<svg xmlns="http://www.w3.org/2000/svg" xmlns:xlink="http://www.w3.org/1999/xlink" version="1.1" width="3.1552000000" height="4.0344000000" viewBox="0 0 56.7953 72.6216">
  <title><![CDATA[Antenna (F)]]></title>
  <g transform=" scale(4.000000) ">
    <!--converted by libvisio2svg-->
    <g transform=" translate(25.917300,0.720000) ">
      <!--emf-blob start-->
      <g transform="translate(-0.0000, -0.0000)">
        <ellipse cx="2.3771" cy="36.3511" rx="1.6564" ry="1.6782" fill="#EFEFEF" stroke="#000000" stroke-width="0.1197" stroke-linecap="round" stroke-linejoin="round"/>
        <ellipse cx="2.3771" cy="36.3511" rx="1.6564" ry="1.6782" fill="none" stroke="#000000" stroke-width="0.1197" stroke-linecap="round" stroke-linejoin="round"/>
        <path d="M 4.5186,37.2148 L 4.5186,33.9286 L 4.8790,33.9286 L 4.8790,1.5448 L 4.8235,1.2077 L 4.7958,1.1375 L 4.7681,1.0532 L 4.7542,0.9830 L 4.7126,0.8988 L 4.6572,0.7583 L 4.6156,0.6881 L 4.5740,0.6319 L 4.5324,0.5617 L 4.4493,0.4494 L 4.2968,0.2949 L 4.1305,0.1685 L 4.0612,0.1404 L 4.0057,0.0983 L 3.9503,0.0843 L 3.8117,0.0281 L 3.7562,0.0140 L 3.6869,0.0140 L 3.6176,0.0000 L 1.2613,0.0000 L 1.1920,0.0140 L 1.1227,0.0140 L 1.0673,0.0281 L 0.9287,0.0843 L 0.8732,0.0983 L 0.8178,0.1404 L 0.7485,0.1685 L 0.5821,0.2949 L 0.4297,0.4494 L 0.3465,0.5617 L 0.3049,0.6319 L 0.2634,0.6881 L 0.2218,0.7583 L 0.1663,0.8988 L 0.1247,0.9830 L 0.1109,1.0532 L 0.0832,1.1375 L 0.0554,1.2077 L 0.0000,1.5448 L 0.0000,34.0129 L 0.4574,34.0129 L 0.4574,37.2148 L 4.5047,37.2148 L 4.5186,37.2148 Z" stroke="#000000" stroke-width="0.1197" stroke-linecap="round" stroke-linejoin="round" fill="#EFEFEF"/>
        <path d="M 2.3563,14.3803 L 2.1484,14.9280 L 1.9544,15.5179 L 1.7603,16.1358 L 1.5940,16.7958 L 1.4277,17.4839 L 1.2890,18.2001 L 1.1504,18.9444 L 1.0118,19.7028 L 0.9009,20.4611 L 0.7901,21.2475 L 0.5960,22.8204 L 0.5128,23.6208 L 0.4435,24.4073 L 0.3742,25.1797 L 0.3188,25.9380 L 0.2634,26.6823 L 0.2218,27.4125 L 0.1802,28.1147 L 0.1386,28.7888 L 0.1109,29.4348 L 0.0832,30.0527 L 0.0554,30.6144 L 0.0416,31.1340 L 0.0277,31.6115 L 0.0139,32.0468 L 0.0139,32.4120 L 0.0000,32.7209 L 0.0000,33.3107 L 4.8790,33.3107 L 4.8790,32.7209 L 4.8651,32.4120 L 4.8651,32.0468 L 4.8512,31.6115 L 4.8374,31.1340 L 4.8097,30.6144 L 4.7958,30.0386 L 4.7681,29.4348 L 4.7404,28.7888 L 4.6988,28.1147 L 4.6572,27.4125 L 4.6018,26.6823 L 4.5463,25.9380 L 4.4909,25.1656 L 4.4077,24.3932 L 4.3384,23.6068 L 4.0473,21.2475 L 3.9226,20.4611 L 3.7978,19.6887 L 3.6592,18.9304 L 3.5068,18.2001 L 3.3543,17.4839 L 3.1741,16.7958 L 2.9939,16.1358 L 2.7999,15.5179 L 2.5781,14.9280 L 2.3563,14.3803 Z" stroke="#E2E2E2" stroke-width="0.1197" stroke-linecap="round" stroke-linejoin="round" fill="#E2E2E2"/>
        <path d="M 2.3840,14.3803 L 2.2177,14.9280 L 2.0514,15.5179 L 1.8989,16.1358 L 1.7603,16.7958 L 1.6356,17.4839 L 1.5108,18.2001 L 1.3999,18.9444 L 1.2890,19.7028 L 1.2059,20.4611 L 1.1089,21.2475 L 1.0257,22.0339 L 0.9564,22.8204 L 0.8871,23.6208 L 0.8316,24.4073 L 0.7762,25.1797 L 0.7208,25.9380 L 0.6792,26.6823 L 0.6515,27.4125 L 0.6099,28.1147 L 0.5821,28.7888 L 0.5544,29.4348 L 0.5406,30.0527 L 0.5267,30.6144 L 0.5128,31.1340 L 0.4990,31.6115 L 0.4851,32.0468 L 0.4851,32.4120 L 0.4713,32.7209 L 0.4713,33.3107 L 4.4077,33.3107 L 4.4077,32.7209 L 4.3938,32.4120 L 4.3938,32.0468 L 4.3800,31.6115 L 4.3661,31.1340 L 4.3523,30.6144 L 4.3384,30.0386 L 4.3245,29.4348 L 4.2968,28.7888 L 4.2691,28.1147 L 4.2275,27.4125 L 4.1859,26.6823 L 4.1443,25.9380 L 4.0335,24.3932 L 3.9780,23.6068 L 3.8949,22.8204 L 3.8256,22.0339 L 3.7424,21.2475 L 3.6454,20.4611 L 3.5483,19.6887 L 3.4375,18.9304 L 3.3127,18.2001 L 3.1880,17.4839 L 3.0494,16.7958 L 2.8969,16.1358 L 2.7306,15.5179 L 2.5642,14.9280 L 2.3840,14.3803 Z" stroke="#EFEFEF" stroke-width="0.1197" stroke-linecap="round" stroke-linejoin="round" fill="#EFEFEF"/>
        <path d="M 4.8790,30.1369 L 0.0000,30.1369 L 0.0000,34.0129 L 4.8790,34.0129 L 4.8790,30.1369 Z" stroke="#BFBFBF" stroke-width="0.1197" stroke-linecap="round" stroke-linejoin="round" fill="#EFEFEF"/>
        <path d="M 2.6485,37.9025 L 2.2861,37.9025 L 2.2861,38.2699 L 2.6485,38.2699 L 2.6485,37.9025 " stroke="none" stroke-width="0.0" fill="none"/>
      </g>
      <!--emf-blob end-->
    </g>
  </g>
</svg>
