<svg xmlns="http://www.w3.org/2000/svg" xmlns:xlink="http://www.w3.org/1999/xlink" version="1.1" width="3.1552000000" height="4.0312000000" viewBox="0 0 56.7953 72.5649">
  <title><![CDATA[Antenna (RS)]]></title>
  <g transform=" scale(4.000000) ">
    <!--converted by libvisio2svg-->
    <g transform=" translate(23.479500,0.720000) ">
      <!--emf-blob start-->
      <g transform="translate(-0.0000, -0.0000)">
        <path d="M 5.4687,34.8935 L 6.2679,34.8935 L 6.2679,37.2553 L 5.4687,37.2553 L 5.4687,34.8935 Z" stroke="#000000" stroke-width="0.1199" stroke-linecap="round" stroke-linejoin="round" fill="#EFEFEF"/>
        <path d="M 5.4827,33.9656 L 0.1683,33.9656 L 0.1683,38.1832 L 5.4827,38.1832 L 5.4827,33.9656 Z" stroke="#000000" stroke-width="0.1199" stroke-linecap="round" stroke-linejoin="round" fill="#EFEFEF"/>
        <path d="M 9.8015,37.5646 L 9.8015,28.7639 L 9.7875,28.5530 L 9.7735,28.2859 L 9.7595,27.9485 L 9.7454,27.5408 L 9.7314,27.0769 L 9.7174,26.5708 L 9.6893,26.0225 L 9.6753,25.4320 L 9.6473,24.8134 L 9.6192,24.1527 L 9.6052,23.4779 L 9.5772,22.7890 L 9.4650,19.9773 L 9.4369,19.2884 L 9.4229,18.6136 L 9.3949,17.9528 L 9.3668,17.3343 L 9.3528,16.7438 L 9.3248,16.1955 L 9.3107,15.6894 L 9.2967,15.2255 L 9.2827,14.8178 L 9.2687,14.4804 L 9.2547,14.2132 L 9.2406,14.0024 L 9.2406,13.8196 L 9.2266,13.7915 L 9.2266,13.7774 L 9.2126,13.7493 L 9.2126,13.7353 L 9.1986,13.7071 L 9.1845,13.6650 L 9.1705,13.6368 L 9.1705,13.6087 L 9.1425,13.5244 L 9.1285,13.4963 L 9.0724,13.3276 L 9.0583,13.2994 L 9.0303,13.2151 L 9.0303,13.1870 L 9.0163,13.1589 L 9.0023,13.1167 L 8.9882,13.0886 L 8.9882,13.0745 L 8.9742,13.0464 L 8.9742,13.0323 L 8.9602,13.0042 L 8.9602,0.9560 L 8.9462,0.8998 L 8.9321,0.8576 L 8.9321,0.8013 L 8.9181,0.7451 L 8.8901,0.7029 L 8.8761,0.6467 L 8.8620,0.6045 L 8.8059,0.5202 L 8.7779,0.4639 L 8.7499,0.4358 L 8.7218,0.3936 L 8.6797,0.3515 L 8.6517,0.3093 L 8.6096,0.2812 L 8.5676,0.2390 L 8.5255,0.2109 L 8.4975,0.1828 L 8.4414,0.1546 L 8.3572,0.0984 L 8.3152,0.0844 L 8.2591,0.0703 L 8.2170,0.0422 L 8.1609,0.0281 L 8.1048,0.0281 L 8.0628,0.0141 L 8.0067,0.0000 L 7.7683,0.0000 L 7.7122,0.0141 L 7.6701,0.0281 L 7.6141,0.0281 L 7.5580,0.0422 L 7.5159,0.0703 L 7.4598,0.0844 L 7.4177,0.0984 L 7.3336,0.1546 L 7.2775,0.1828 L 7.2495,0.2109 L 7.2074,0.2390 L 7.1653,0.2812 L 7.1233,0.3093 L 7.0952,0.3515 L 7.0532,0.3936 L 7.0251,0.4358 L 6.9971,0.4639 L 6.9690,0.5202 L 6.9129,0.6045 L 6.8989,0.6467 L 6.8849,0.7029 L 6.8569,0.7451 L 6.8428,0.8013 L 6.8428,0.8576 L 6.8288,0.8998 L 6.8148,0.9560 L 6.8148,13.0042 L 6.8008,13.0323 L 6.8008,13.0464 L 6.7867,13.0745 L 6.7867,13.0886 L 6.7727,13.1167 L 6.7587,13.1589 L 6.7447,13.1870 L 6.7447,13.2151 L 6.7166,13.2994 L 6.7026,13.3276 L 6.6465,13.4963 L 6.6325,13.5244 L 6.6045,13.6087 L 6.6045,13.6368 L 6.5904,13.6650 L 6.5764,13.7071 L 6.5624,13.7353 L 6.5624,13.7493 L 6.5484,13.7774 L 6.5484,13.7915 L 6.5343,13.8196 L 6.5343,14.0024 L 6.5203,14.2132 L 6.5063,14.4804 L 6.4923,14.8178 L 6.4783,15.2255 L 6.4642,15.6894 L 6.4502,16.1955 L 6.4222,16.7438 L 6.4081,17.3343 L 6.3801,17.9528 L 6.3521,18.6136 L 6.3380,19.2884 L 6.3100,19.9773 L 6.1978,22.7890 L 6.1698,23.4779 L 6.1557,24.1527 L 6.1277,24.8134 L 6.0997,25.4320 L 6.0856,26.0225 L 6.0576,26.5708 L 6.0436,27.0769 L 6.0295,27.5408 L 6.0155,27.9485 L 6.0015,28.2859 L 5.9875,28.5530 L 5.9735,28.7639 L 5.9735,33.7547 L 5.9875,33.7688 L 5.9875,33.7828 L 6.0015,33.7969 L 6.0015,33.8109 L 6.0295,33.8391 L 6.0295,33.8531 L 6.0716,33.8953 L 6.0856,33.8953 L 6.1277,33.9375 L 6.1417,33.9375 L 6.1698,33.9656 L 6.1838,33.9656 L 6.1838,33.9796 L 6.1978,33.9937 L 6.2118,33.9937 L 6.2679,34.0499 L 6.2679,37.3959 L 6.2960,37.4240 L 6.3100,37.4521 L 6.3380,37.4662 L 6.3521,37.4943 L 6.4081,37.5505 L 6.4502,37.5786 L 6.4783,37.6208 L 6.5203,37.6489 L 6.6045,37.7333 L 6.6605,37.7614 L 6.7026,37.8036 L 6.7587,37.8458 L 6.8148,37.8739 L 6.8709,37.9161 L 6.9410,37.9582 L 6.9971,37.9863 L 7.0672,38.0285 L 7.2775,38.1129 L 7.3617,38.1410 L 7.4318,38.1550 L 7.5159,38.1832 L 7.6000,38.1972 L 7.6842,38.1972 L 7.7683,38.2113 L 9.4790,38.2113 L 9.4930,38.1972 L 9.5211,38.1972 L 9.5351,38.1832 L 9.5491,38.1832 L 9.5772,38.1691 L 9.6613,38.0848 L 9.6753,38.0566 L 9.6893,38.0426 L 9.7034,38.0145 L 9.7174,38.0004 L 9.7454,37.9442 L 9.7454,37.9161 L 9.7595,37.9020 L 9.7735,37.8739 L 9.7735,37.8036 L 9.7875,37.7755 L 9.7875,37.7052 L 9.8015,37.6771 L 9.8015,37.6068 L 9.8015,37.5646 Z" stroke="#000000" stroke-width="0.1199" stroke-linecap="round" stroke-linejoin="round" fill="#EFEFEF"/>
        <path d="M 6.8148,13.0323 L 8.9742,13.0323 L 9.2406,13.8196 L 6.5343,13.8196 L 6.8148,13.0323 Z" stroke="#E2E2E2" stroke-width="0.1199" stroke-linecap="round" stroke-linejoin="round" fill="#F7F7F7"/>
        <path d="M 8.9742,4.4003 L 6.8288,4.4003 L 6.8288,4.5269 L 8.9742,4.5269 L 8.9742,4.4003 Z" stroke="#BFBFBF" stroke-width="0.1199" stroke-linecap="round" stroke-linejoin="round" fill="#BFBFBF"/>
        <path d="M 8.9742,5.5250 L 6.8288,5.5250 L 6.8288,5.6516 L 8.9742,5.6516 L 8.9742,5.5250 Z" stroke="#BFBFBF" stroke-width="0.1199" stroke-linecap="round" stroke-linejoin="round" fill="#BFBFBF"/>
        <path d="M 6.1557,24.4198 L 9.6333,24.4198 L 9.6333,24.5463 L 6.1557,24.5463 L 6.1557,24.4198 Z" stroke="#BFBFBF" stroke-width="0.1199" stroke-linecap="round" stroke-linejoin="round" fill="#BFBFBF"/>
        <path d="M 6.0856,25.9241 L 9.6893,25.9241 L 9.6893,26.0506 L 6.0856,26.0506 L 6.0856,25.9241 Z" stroke="#BFBFBF" stroke-width="0.1199" stroke-linecap="round" stroke-linejoin="round" fill="#BFBFBF"/>
        <path d="M 5.9735,28.8061 L 9.8015,28.8061 L 9.8015,28.9326 L 5.9735,28.9326 L 5.9735,28.8061 Z" stroke="#BFBFBF" stroke-width="0.1199" stroke-linecap="round" stroke-linejoin="round" fill="#BFBFBF"/>
        <path d="M 5.9735,30.3103 L 9.8015,30.3103 L 9.8015,30.4369 L 5.9735,30.4369 L 5.9735,30.3103 Z" stroke="#BFBFBF" stroke-width="0.1199" stroke-linecap="round" stroke-linejoin="round" fill="#BFBFBF"/>
        <path d="M 0.3651,35.8773 L 0.0000,35.8773 L 0.0000,36.2448 L 0.3651,36.2448 L 0.3651,35.8773 " stroke="none" stroke-width="0.0" fill="none"/>
      </g>
      <!--emf-blob end-->
    </g>
  </g>
</svg>
