<svg xmlns="http://www.w3.org/2000/svg" xmlns:xlink="http://www.w3.org/1999/xlink" version="1.1" width="3.1552000000" height="4.0312000000" viewBox="0 0 56.7953 72.5649">
  <title><![CDATA[Antenna (LS)]]></title>
  <g transform=" scale(4.000000) ">
    <!--converted by libvisio2svg-->
    <g transform=" translate(23.422800,0.720000) ">
      <!--emf-blob start-->
      <g transform="translate(-0.0000, -0.0000)">
        <path d="M 4.3301,34.8935 L 3.5313,34.8935 L 3.5313,37.2553 L 4.3301,37.2553 L 4.3301,34.8935 Z" stroke="#000000" stroke-width="0.1199" stroke-linecap="round" stroke-linejoin="round" fill="#EFEFEF"/>
        <path d="M 9.6411,33.9656 L 4.3301,33.9656 L 4.3301,38.1832 L 9.6411,38.1832 L 9.6411,33.9656 Z" stroke="#000000" stroke-width="0.1199" stroke-linecap="round" stroke-linejoin="round" fill="#EFEFEF"/>
        <path d="M 0.0000,37.5646 L 0.0000,28.7639 L 0.0140,28.5530 L 0.0280,28.2859 L 0.0420,27.9485 L 0.0561,27.5408 L 0.0701,27.0769 L 0.0841,26.5708 L 0.1121,26.0225 L 0.1261,25.4320 L 0.1541,24.8134 L 0.1822,24.1527 L 0.1962,23.4779 L 0.2242,22.7890 L 0.3363,19.9773 L 0.3643,19.2884 L 0.3784,18.6136 L 0.4064,17.9528 L 0.4344,17.3343 L 0.4484,16.7438 L 0.4765,16.1955 L 0.4905,15.6894 L 0.5045,15.2255 L 0.5185,14.8178 L 0.5325,14.4804 L 0.5465,14.2132 L 0.5605,14.0024 L 0.5605,13.8196 L 0.5745,13.7915 L 0.5745,13.7774 L 0.5886,13.7493 L 0.5886,13.7353 L 0.6026,13.7071 L 0.6166,13.6650 L 0.6306,13.6368 L 0.6306,13.6087 L 0.6586,13.5244 L 0.6726,13.4963 L 0.7287,13.3276 L 0.7427,13.2994 L 0.7707,13.2151 L 0.7707,13.1870 L 0.7847,13.1589 L 0.7988,13.1167 L 0.8128,13.0886 L 0.8128,13.0745 L 0.8268,13.0464 L 0.8268,13.0323 L 0.8408,13.0042 L 0.8408,0.9560 L 0.8548,0.8998 L 0.8688,0.8576 L 0.8688,0.8013 L 0.8828,0.7451 L 0.9109,0.7029 L 0.9249,0.6467 L 0.9389,0.6045 L 0.9949,0.5202 L 1.0230,0.4639 L 1.0510,0.4358 L 1.0790,0.3936 L 1.1211,0.3515 L 1.1491,0.3093 L 1.1911,0.2812 L 1.2332,0.2390 L 1.2752,0.2109 L 1.3032,0.1828 L 1.3593,0.1546 L 1.4434,0.0984 L 1.4854,0.0844 L 1.5415,0.0703 L 1.5835,0.0422 L 1.6396,0.0281 L 1.6956,0.0281 L 1.7376,0.0141 L 1.7937,0.0000 L 2.0319,0.0000 L 2.0880,0.0141 L 2.1300,0.0281 L 2.1861,0.0281 L 2.2421,0.0422 L 2.2842,0.0703 L 2.3402,0.0844 L 2.3823,0.0984 L 2.4663,0.1546 L 2.5224,0.1828 L 2.5504,0.2109 L 2.5925,0.2390 L 2.6345,0.2812 L 2.6765,0.3093 L 2.7046,0.3515 L 2.7466,0.3936 L 2.7746,0.4358 L 2.8027,0.4639 L 2.8307,0.5202 L 2.8867,0.6045 L 2.9008,0.6467 L 2.9148,0.7029 L 2.9428,0.7451 L 2.9568,0.8013 L 2.9568,0.8576 L 2.9708,0.8998 L 2.9848,0.9560 L 2.9848,13.0042 L 2.9988,13.0323 L 2.9988,13.0464 L 3.0129,13.0745 L 3.0129,13.0886 L 3.0269,13.1167 L 3.0409,13.1589 L 3.0549,13.1870 L 3.0549,13.2151 L 3.0829,13.2994 L 3.0969,13.3276 L 3.1530,13.4963 L 3.1670,13.5244 L 3.1950,13.6087 L 3.1950,13.6368 L 3.2090,13.6650 L 3.2231,13.7071 L 3.2371,13.7353 L 3.2371,13.7493 L 3.2511,13.7774 L 3.2511,13.7915 L 3.2651,13.8196 L 3.2651,14.0024 L 3.2791,14.2132 L 3.2931,14.4804 L 3.3071,14.8178 L 3.3211,15.2255 L 3.3352,15.6894 L 3.3492,16.1955 L 3.3772,16.7438 L 3.3912,17.3343 L 3.4192,17.9528 L 3.4473,18.6136 L 3.4613,19.2884 L 3.4893,19.9773 L 3.6014,22.7890 L 3.6294,23.4779 L 3.6435,24.1527 L 3.6715,24.8134 L 3.6995,25.4320 L 3.7135,26.0225 L 3.7415,26.5708 L 3.7556,27.0769 L 3.7696,27.5408 L 3.7836,27.9485 L 3.7976,28.2859 L 3.8116,28.5530 L 3.8256,28.7639 L 3.8256,33.7547 L 3.8116,33.7688 L 3.8116,33.7828 L 3.7976,33.7969 L 3.7976,33.8109 L 3.7696,33.8391 L 3.7696,33.8531 L 3.7275,33.8953 L 3.7135,33.8953 L 3.6715,33.9375 L 3.6575,33.9375 L 3.6294,33.9656 L 3.6154,33.9656 L 3.6154,33.9796 L 3.6014,33.9937 L 3.5874,33.9937 L 3.5313,34.0499 L 3.5313,37.3959 L 3.5033,37.4240 L 3.4893,37.4521 L 3.4613,37.4662 L 3.4473,37.4943 L 3.3912,37.5505 L 3.3492,37.5786 L 3.3211,37.6208 L 3.2791,37.6489 L 3.1950,37.7333 L 3.1390,37.7614 L 3.0969,37.8036 L 3.0409,37.8458 L 2.9848,37.8739 L 2.9288,37.9161 L 2.8587,37.9582 L 2.8027,37.9863 L 2.7326,38.0285 L 2.5224,38.1129 L 2.4383,38.1410 L 2.3682,38.1550 L 2.2842,38.1832 L 2.2001,38.1972 L 2.1160,38.1972 L 2.0319,38.2113 L 0.3223,38.2113 L 0.3083,38.1972 L 0.2803,38.1972 L 0.2663,38.1832 L 0.2522,38.1832 L 0.2242,38.1691 L 0.1401,38.0848 L 0.1261,38.0566 L 0.1121,38.0426 L 0.0981,38.0145 L 0.0841,38.0004 L 0.0561,37.9442 L 0.0561,37.9161 L 0.0420,37.9020 L 0.0280,37.8739 L 0.0280,37.8036 L 0.0140,37.7755 L 0.0140,37.7052 L 0.0000,37.6771 L 0.0000,37.6068 L 0.0000,37.5646 Z" stroke="#000000" stroke-width="0.1199" stroke-linecap="round" stroke-linejoin="round" fill="#EFEFEF"/>
        <path d="M 2.9848,13.0323 L 0.8268,13.0323 L 0.5605,13.8196 L 3.2651,13.8196 L 2.9848,13.0323 Z" stroke="#E2E2E2" stroke-width="0.1199" stroke-linecap="round" stroke-linejoin="round" fill="#F7F7F7"/>
        <path d="M 2.9848,4.4003 L 0.8408,4.4003 L 0.8408,4.5269 L 2.9848,4.5269 L 2.9848,4.4003 Z" stroke="#BFBFBF" stroke-width="0.1199" stroke-linecap="round" stroke-linejoin="round" fill="#BFBFBF"/>
        <path d="M 2.9848,5.5250 L 0.8408,5.5250 L 0.8408,5.6516 L 2.9848,5.6516 L 2.9848,5.5250 Z" stroke="#BFBFBF" stroke-width="0.1199" stroke-linecap="round" stroke-linejoin="round" fill="#BFBFBF"/>
        <path d="M 3.6435,24.4198 L 0.1682,24.4198 L 0.1682,24.5463 L 3.6435,24.5463 L 3.6435,24.4198 Z" stroke="#BFBFBF" stroke-width="0.1199" stroke-linecap="round" stroke-linejoin="round" fill="#BFBFBF"/>
        <path d="M 3.7135,25.9241 L 0.1121,25.9241 L 0.1121,26.0506 L 3.7135,26.0506 L 3.7135,25.9241 Z" stroke="#BFBFBF" stroke-width="0.1199" stroke-linecap="round" stroke-linejoin="round" fill="#BFBFBF"/>
        <path d="M 3.8256,28.8061 L 0.0000,28.8061 L 0.0000,28.9326 L 3.8256,28.9326 L 3.8256,28.8061 Z" stroke="#BFBFBF" stroke-width="0.1199" stroke-linecap="round" stroke-linejoin="round" fill="#BFBFBF"/>
        <path d="M 3.8256,30.3103 L 0.0000,30.3103 L 0.0000,30.4369 L 3.8256,30.4369 L 3.8256,30.3103 Z" stroke="#BFBFBF" stroke-width="0.1199" stroke-linecap="round" stroke-linejoin="round" fill="#BFBFBF"/>
        <path d="M 9.9213,35.8773 L 9.5560,35.8773 L 9.5560,36.2448 L 9.9213,36.2448 L 9.9213,35.8773 " stroke="none" stroke-width="0.0" fill="none"/>
      </g>
      <!--emf-blob end-->
    </g>
  </g>
</svg>
