<svg xmlns="http://www.w3.org/2000/svg" viewBox="0 0 256 256"><path fill="#000" d="M172.4 131.6c-.2-22.8 18.6-33.8 19.4-34.3-10.6-15.4-27.1-17.5-32.9-17.7-14-1.4-27.3 8.3-34.4 8.3-7.2 0-18.1-8.1-29.8-7.9-15.3.2-29.5 8.9-37.4 22.6-16 27.8-4.1 68.9 11.5 91.5 7.6 10.9 16.6 23.1 28.5 22.7 11.5-.5 15.8-7.3 29.6-7.3 13.7 0 17.6 7.3 29.8 7.1 12.4-.2 20.3-11.1 27.9-22 8.8-12.9 12.4-25.4 12.6-26.1-.3-.1-24.1-9.2-24.4-35zM148.7 61.7c6.2-7.5 10.3-17.9 9.1-28.3-8.8.4-19.8 5.9-26.2 13.4-5.7 6.6-10.7 17.2-9.3 27.3 9.8.8 19.8-5 26.4-12.4z"/></svg>