<svg xmlns="http://www.w3.org/2000/svg" xmlns:xlink="http://www.w3.org/1999/xlink" version="1.1" width="0.4440000000" height="4.0000000000" viewBox="0 0 7.9937 72.0000">
  <title><![CDATA[CFP2 100GE Transceiver]]></title>
  <g transform=" scale(4.000000) ">
    <!--converted by libvisio2svg-->
    <g transform=" translate(0.000000,32.966900) ">
      <!--emf-blob start-->
      <g transform="translate(-0.0000, -0.0000)">
        <path d="M 0.0000,0.0000 L 0.0000,2.9551 L 7.9657,2.9551 L 7.9657,0.0000 L 0.0000,0.0000 Z" stroke="#000000" stroke-width="0.1193" stroke-linecap="round" stroke-linejoin="round" fill="#BFBFBF"/>
        <path d="M 0.1683,0.1381 L 0.1683,2.8032 L 7.7974,2.8032 L 7.7974,0.1381 L 0.1683,0.1381 Z" stroke="#848484" stroke-width="0.1193" stroke-linecap="round" stroke-linejoin="round" fill="#EFEFEF"/>
        <path d="M 2.4682,0.4143 L 2.4682,2.4856 L 2.4823,2.4856 L 2.4823,2.5132 L 2.4963,2.5270 L 2.4963,2.5408 L 2.5103,2.5408 L 2.5103,2.5546 L 2.5243,2.5546 L 2.5243,2.5685 L 2.5384,2.5685 L 2.5524,2.5823 L 2.5804,2.5823 L 2.5804,2.5961 L 5.3852,2.5961 L 5.3852,2.5823 L 5.4133,2.5823 L 5.4273,2.5685 L 5.4413,2.5685 L 5.4413,2.5546 L 5.4553,2.5546 L 5.4553,2.5408 L 5.4694,2.5408 L 5.4694,2.5270 L 5.4834,2.5132 L 5.4834,2.4856 L 5.4974,2.4856 L 5.4974,0.4143 L 2.4823,0.4143 L 2.4682,0.4143 Z" stroke="#BFBFBF" stroke-width="0.1193" stroke-linecap="round" stroke-linejoin="round" fill="#EAEAEA"/>
        <path d="M 0.1683,0.1381 L 0.1683,0.4143 L 7.7974,0.4143 L 7.7974,0.1381 L 0.1683,0.1381 Z" stroke="#848484" stroke-width="0.1193" stroke-linecap="round" stroke-linejoin="round" fill="#EFEFEF"/>
        <path d="M 2.7066,0.4143 L 2.7066,2.1266 L 5.2730,2.1266 L 5.2730,0.4143 L 2.7066,0.4143 Z" stroke="#000000" stroke-width="0.1193" stroke-linecap="round" stroke-linejoin="round" fill="#333333"/>
        <path d="M 5.1638,2.0837 L 2.8726,2.0837 L 2.8726,0.5545 L 5.1638,0.5545 L 5.1638,2.0837 Z" stroke="#000000" stroke-width="0.1193" stroke-linecap="round" stroke-linejoin="round" fill="#999974"/>
        <path d="M 5.1296,0.6974 L 5.1296,0.6722 L 5.1040,0.6218 L 5.0527,0.5965 L 2.9837,0.5965 L 2.9324,0.6218 L 2.9068,0.6722 L 2.9068,1.9745 L 2.9324,2.0249 L 2.9837,2.0501 L 5.0527,2.0501 L 5.1040,2.0249 L 5.1296,1.9745 L 5.1296,1.9493 L 5.1296,0.6974 Z" stroke="#7F7F7F" stroke-width="0.1193" stroke-linecap="round" stroke-linejoin="round" fill="#CCCCB9"/>
        <path d="M 3.0436,1.9493 L 3.0436,1.0335 L 3.1205,1.0335 L 3.1205,0.9410 L 3.0436,0.9410 L 3.0436,0.7982 L 3.2060,0.7982 L 3.2060,0.6302 L 3.7617,0.6302 L 3.7617,0.7982 L 3.9327,0.7982 L 3.9327,0.9410 L 3.8558,0.9410 L 3.8558,1.0335 L 3.9327,1.0335 L 3.9327,1.9493 L 3.0436,1.9493 Z" stroke="#000000" stroke-width="0.1193" stroke-linecap="round" stroke-linejoin="round" fill="#938476"/>
        <path d="M 3.0436,0.8738 L 3.0436,0.7982 L 3.2060,0.7982 L 3.2060,0.6218 L 3.7617,0.6218 L 3.7617,0.7982 L 3.9327,0.7982 L 3.9327,0.8738 L 3.0436,0.8738 Z" stroke="#000000" stroke-width="0.1193" stroke-linecap="round" stroke-linejoin="round" fill="#938476"/>
        <path d="M 3.0436,0.8738 L 3.0436,0.9074 L 3.9327,0.9074 L 3.9327,0.8738 L 3.0436,0.8738 Z" stroke="#000000" stroke-width="0.1193" stroke-linecap="round" stroke-linejoin="round" fill="#706257"/>
        <path d="M 3.0436,1.2603 L 3.9242,1.2603 " stroke="#000000" stroke-width="0.1193" stroke-linecap="round" stroke-linejoin="round" fill="none"/>
        <path d="M 3.8045,1.9493 L 3.8387,1.9157 L 3.8472,1.8989 L 3.8643,1.8821 L 3.8729,1.8653 L 3.8814,1.8400 L 3.8985,1.8064 L 3.9071,1.7812 L 3.9242,1.7476 L 3.9242,1.7056 L 3.9327,1.6804 L 3.9327,1.5964 L 3.9242,1.5712 L 3.9242,1.5292 L 3.9071,1.4956 L 3.8985,1.4704 L 3.8814,1.4367 L 3.8729,1.4115 L 3.8643,1.3947 L 3.8472,1.3779 L 3.8387,1.3611 L 3.7703,1.2939 L 3.7532,1.2855 L 3.7361,1.2687 L 3.7190,1.2603 L 3.6933,1.2519 L 3.6591,1.2351 L 3.6335,1.2267 L 3.5993,1.2099 L 3.5566,1.2099 L 3.5309,1.2015 L 3.4454,1.2015 L 3.4198,1.2099 L 3.3770,1.2099 L 3.3428,1.2267 L 3.3172,1.2351 L 3.2830,1.2519 L 3.2573,1.2603 L 3.2402,1.2687 L 3.2231,1.2855 L 3.2060,1.2939 L 3.1376,1.3611 L 3.1291,1.3779 L 3.1120,1.3947 L 3.1034,1.4115 L 3.0949,1.4367 L 3.0778,1.4704 L 3.0692,1.4956 L 3.0521,1.5292 L 3.0521,1.5712 L 3.0436,1.5964 L 3.0436,1.6804 L 3.0521,1.7056 L 3.0521,1.7476 L 3.0692,1.7812 L 3.0778,1.8064 L 3.0949,1.8400 L 3.1034,1.8653 L 3.1120,1.8821 L 3.1291,1.8989 L 3.1376,1.9157 L 3.1718,1.9493 L 3.7959,1.9493 L 3.8045,1.9493 Z" stroke="#000000" stroke-width="0.1193" stroke-linecap="round" stroke-linejoin="round" fill="#A09183"/>
        <ellipse cx="3.4283" cy="1.5796" rx="0.1539" ry="0.1512" fill="none" stroke="#494949" stroke-width="0.1193" stroke-linecap="round" stroke-linejoin="round"/>
        <ellipse cx="3.4283" cy="1.5754" rx="0.0855" ry="0.0882" fill="#706257" stroke="#000000" stroke-width="0.1193" stroke-linecap="round" stroke-linejoin="round"/>
        <ellipse cx="3.4283" cy="1.5754" rx="0.0855" ry="0.0882" fill="none" stroke="#000000" stroke-width="0.1193" stroke-linecap="round" stroke-linejoin="round"/>
        <ellipse cx="3.4283" cy="1.5712" rx="0.0769" ry="0.0756" fill="#9B8C81" stroke="#000000" stroke-width="0.1193" stroke-linecap="round" stroke-linejoin="round"/>
        <ellipse cx="3.4283" cy="1.5712" rx="0.0769" ry="0.0756" fill="none" stroke="#000000" stroke-width="0.1193" stroke-linecap="round" stroke-linejoin="round"/>
        <path d="M 3.5138,1.5124 L 3.4711,1.5124 L 3.4711,1.7728 L 3.5138,1.7728 L 3.5138,1.5124 Z" stroke="#000000" stroke-width="0.1193" stroke-linecap="round" stroke-linejoin="round" fill="#4F443C"/>
        <path d="M 4.0695,1.9493 L 4.0695,1.0335 L 4.1465,1.0335 L 4.1465,0.9410 L 4.0695,0.9410 L 4.0695,0.7982 L 4.2320,0.7982 L 4.2320,0.6302 L 4.7877,0.6302 L 4.7877,0.7982 L 4.9587,0.7982 L 4.9587,0.9410 L 4.8817,0.9410 L 4.8817,1.0335 L 4.9587,1.0335 L 4.9587,1.9493 L 4.0695,1.9493 Z" stroke="#000000" stroke-width="0.1193" stroke-linecap="round" stroke-linejoin="round" fill="#938476"/>
        <path d="M 4.0695,0.8738 L 4.0695,0.7982 L 4.2320,0.7982 L 4.2320,0.6218 L 4.7877,0.6218 L 4.7877,0.7982 L 4.9587,0.7982 L 4.9587,0.8738 L 4.0695,0.8738 Z" stroke="#000000" stroke-width="0.1193" stroke-linecap="round" stroke-linejoin="round" fill="#938476"/>
        <path d="M 4.0695,0.8738 L 4.0695,0.9074 L 4.9587,0.9074 L 4.9587,0.8738 L 4.0695,0.8738 Z" stroke="#000000" stroke-width="0.1193" stroke-linecap="round" stroke-linejoin="round" fill="#706257"/>
        <path d="M 4.0695,1.2603 L 4.9501,1.2603 " stroke="#000000" stroke-width="0.1193" stroke-linecap="round" stroke-linejoin="round" fill="none"/>
        <path d="M 4.8304,1.9493 L 4.8646,1.9157 L 4.8732,1.8989 L 4.8903,1.8821 L 4.8988,1.8653 L 4.9074,1.8400 L 4.9245,1.8064 L 4.9330,1.7812 L 4.9501,1.7476 L 4.9501,1.7056 L 4.9587,1.6804 L 4.9587,1.5964 L 4.9501,1.5712 L 4.9501,1.5292 L 4.9330,1.4956 L 4.9245,1.4704 L 4.9074,1.4367 L 4.8988,1.4115 L 4.8903,1.3947 L 4.8732,1.3779 L 4.8646,1.3611 L 4.7962,1.2939 L 4.7791,1.2855 L 4.7620,1.2687 L 4.7449,1.2603 L 4.7193,1.2519 L 4.6851,1.2351 L 4.6594,1.2267 L 4.6252,1.2099 L 4.5825,1.2099 L 4.5568,1.2015 L 4.4713,1.2015 L 4.4457,1.2099 L 4.4029,1.2099 L 4.3687,1.2267 L 4.3431,1.2351 L 4.3089,1.2519 L 4.2833,1.2603 L 4.2662,1.2687 L 4.2491,1.2855 L 4.2320,1.2939 L 4.1636,1.3611 L 4.1550,1.3779 L 4.1379,1.3947 L 4.1294,1.4115 L 4.1208,1.4367 L 4.1037,1.4704 L 4.0952,1.4956 L 4.0781,1.5292 L 4.0781,1.5712 L 4.0695,1.5964 L 4.0695,1.6804 L 4.0781,1.7056 L 4.0781,1.7476 L 4.0952,1.7812 L 4.1037,1.8064 L 4.1208,1.8400 L 4.1294,1.8653 L 4.1379,1.8821 L 4.1550,1.8989 L 4.1636,1.9157 L 4.1978,1.9493 L 4.8219,1.9493 L 4.8304,1.9493 Z" stroke="#000000" stroke-width="0.1193" stroke-linecap="round" stroke-linejoin="round" fill="#A09183"/>
        <ellipse cx="4.4500" cy="1.5796" rx="0.1582" ry="0.1512" fill="none" stroke="#494949" stroke-width="0.1193" stroke-linecap="round" stroke-linejoin="round"/>
        <ellipse cx="4.4542" cy="1.5754" rx="0.0855" ry="0.0882" fill="#706257" stroke="#000000" stroke-width="0.1193" stroke-linecap="round" stroke-linejoin="round"/>
        <ellipse cx="4.4542" cy="1.5754" rx="0.0855" ry="0.0882" fill="none" stroke="#000000" stroke-width="0.1193" stroke-linecap="round" stroke-linejoin="round"/>
        <ellipse cx="4.4500" cy="1.5712" rx="0.0727" ry="0.0756" fill="#9B8C81" stroke="#000000" stroke-width="0.1193" stroke-linecap="round" stroke-linejoin="round"/>
        <ellipse cx="4.4500" cy="1.5712" rx="0.0727" ry="0.0756" fill="none" stroke="#000000" stroke-width="0.1193" stroke-linecap="round" stroke-linejoin="round"/>
        <path d="M 4.5397,1.5124 L 4.4970,1.5124 L 4.4970,1.7728 L 4.5397,1.7728 L 4.5397,1.5124 Z" stroke="#000000" stroke-width="0.1193" stroke-linecap="round" stroke-linejoin="round" fill="#4F443C"/>
      </g>
      <!--emf-blob end-->
    </g>
  </g>
</svg>
