<svg xmlns="http://www.w3.org/2000/svg" xmlns:xlink="http://www.w3.org/1999/xlink" version="1.1" width="3.3464000000" height="3.3212000000" viewBox="0 0 60.2362 59.7827">
  <title><![CDATA[FAP-U422EV]]></title>
  <g transform=" scale(4.000000) ">
    <!--converted by libvisio2svg-->
    <g transform=" translate(0.000000,0.000000) ">
      <!--emf-blob start-->
      <g transform="translate(-0.0000, -0.0000)">
        <path d="M 60.0018,16.5688 L 59.6370,16.5688 L 59.6370,20.9394 L 60.0018,20.9394 L 60.0018,16.5688 Z" stroke="#000000" stroke-width="0.1198" stroke-linecap="round" stroke-linejoin="round" fill="#DDDDDD"/>
        <path d="M 60.0018,27.6850 L 59.6370,27.6850 L 59.6370,32.0556 L 60.0018,32.0556 L 60.0018,27.6850 Z" stroke="#000000" stroke-width="0.1198" stroke-linecap="round" stroke-linejoin="round" fill="#333333"/>
        <path d="M 60.0018,38.8292 L 59.6370,38.8292 L 59.6370,43.1998 L 60.0018,43.1998 L 60.0018,38.8292 Z" stroke="#000000" stroke-width="0.1198" stroke-linecap="round" stroke-linejoin="round" fill="#333333"/>
        <path d="M 59.6370,12.8025 L 59.6229,12.1420 L 59.5668,11.4956 L 59.4966,10.8632 L 59.3844,10.2308 L 59.2300,9.6125 L 59.0616,9.0082 L 58.8652,8.4039 L 58.6407,7.8277 L 58.3741,7.2656 L 58.0934,6.7175 L 57.7847,6.1834 L 57.4620,5.6635 L 57.0971,5.1576 L 56.7183,4.6797 L 56.3253,4.2160 L 55.9044,3.7663 L 55.4554,3.3447 L 54.9923,2.9512 L 54.5152,2.5718 L 54.0100,2.2064 L 53.4908,1.8831 L 52.9576,1.5740 L 52.4104,1.2929 L 51.8491,1.0259 L 51.2737,0.8010 L 50.6704,0.6043 L 50.0670,0.4357 L 49.4496,0.2811 L 48.8181,0.1686 L 48.1867,0.0984 L 47.5412,0.0422 L 46.8817,0.0281 L 12.7834,0.0281 L 12.1238,0.0422 L 11.4784,0.0984 L 10.8469,0.1686 L 10.2155,0.2811 L 9.5980,0.4357 L 8.9947,0.6043 L 8.3913,0.8010 L 7.8159,1.0259 L 7.2547,1.2929 L 6.7074,1.5740 L 6.1742,1.8831 L 5.6550,2.2064 L 5.1498,2.5718 L 4.6727,2.9512 L 4.2097,3.3447 L 3.7606,3.7663 L 3.3397,4.2160 L 2.9468,4.6797 L 2.5679,5.1576 L 2.2031,5.6635 L 1.8803,6.1834 L 1.5716,6.7175 L 1.2910,7.2656 L 1.0244,7.8277 L 0.7998,8.4039 L 0.6034,9.0082 L 0.4350,9.6125 L 0.2806,10.2308 L 0.1684,10.8632 L 0.0982,11.4956 L 0.0421,12.1420 L 0.0281,12.8025 L 0.0281,46.9520 L 0.0421,47.6125 L 0.0982,48.2590 L 0.1684,48.8914 L 0.2806,49.5238 L 0.4350,50.1421 L 0.6034,50.7464 L 0.7998,51.3507 L 1.0244,51.9269 L 1.2910,52.4890 L 1.5716,53.0371 L 1.8803,53.5711 L 2.2031,54.0911 L 2.5679,54.5970 L 2.9468,55.0748 L 3.3397,55.5386 L 3.7606,55.9883 L 4.2097,56.4099 L 4.6727,56.8034 L 5.1498,57.1828 L 5.6550,57.5482 L 6.1742,57.8715 L 6.7074,58.1806 L 7.2547,58.4617 L 7.8159,58.7287 L 8.3913,58.9536 L 8.9947,59.1503 L 9.5980,59.3189 L 10.2155,59.4735 L 10.8469,59.5860 L 11.4784,59.6562 L 12.1238,59.7124 L 12.7834,59.7265 L 46.8817,59.7265 L 47.5412,59.7124 L 48.1867,59.6562 L 48.8181,59.5860 L 49.4496,59.4735 L 50.0670,59.3189 L 50.6704,59.1503 L 51.2737,58.9536 L 51.8491,58.7287 L 52.4104,58.4617 L 52.9576,58.1806 L 53.4908,57.8715 L 54.0100,57.5482 L 54.5152,57.1828 L 54.9923,56.8034 L 55.4554,56.4099 L 55.9044,55.9883 L 56.3253,55.5386 L 56.7183,55.0748 L 57.0971,54.5970 L 57.4620,54.0911 L 57.7847,53.5711 L 58.0934,53.0371 L 58.3741,52.4890 L 58.6407,51.9269 L 58.8652,51.3507 L 59.0616,50.7464 L 59.2300,50.1421 L 59.3844,49.5238 L 59.4966,48.8914 L 59.5668,48.2590 L 59.6229,47.6125 L 59.6370,46.9520 L 59.6370,12.8025 Z" stroke="#000000" stroke-width="0.1198" stroke-linecap="round" stroke-linejoin="round" fill="#D1D1D1"/>
        <path d="M 59.0476,13.2804 L 59.0336,12.6339 L 58.9774,11.9875 L 58.9073,11.3551 L 58.7950,10.7367 L 58.6547,10.1184 L 58.4863,9.5141 L 58.2758,8.9379 L 58.0513,8.3617 L 57.7987,7.7996 L 57.5181,7.2515 L 57.2234,6.7175 L 56.8866,6.2116 L 56.5358,5.7197 L 56.1570,5.2419 L 55.7641,4.7781 L 55.3431,4.3425 L 54.9081,3.9209 L 54.4450,3.5274 L 53.9679,3.1479 L 53.4768,2.7966 L 52.9716,2.4593 L 52.4384,2.1642 L 51.8912,1.8831 L 51.3299,1.6302 L 50.7546,1.4053 L 50.1792,1.1945 L 49.5758,1.0259 L 48.9584,0.8854 L 48.3410,0.7729 L 47.7096,0.7027 L 47.0641,0.6465 L 46.4186,0.6324 L 13.2605,0.6324 L 12.6150,0.6465 L 11.9695,0.7027 L 11.3380,0.7729 L 10.7206,0.8854 L 10.1032,1.0259 L 9.4998,1.1945 L 8.9245,1.4053 L 8.3492,1.6302 L 7.7879,1.8831 L 7.2406,2.1642 L 6.7074,2.4593 L 6.2022,2.7966 L 5.7111,3.1479 L 5.2340,3.5274 L 4.7710,3.9209 L 4.3360,4.3425 L 3.9150,4.7781 L 3.5221,5.2419 L 3.1432,5.7197 L 2.7924,6.2116 L 2.4556,6.7175 L 2.1610,7.2515 L 1.8803,7.7996 L 1.6277,8.3617 L 1.4032,8.9379 L 1.1927,9.5141 L 1.0244,10.1184 L 0.8840,10.7367 L 0.7718,11.3551 L 0.7016,11.9875 L 0.6455,12.6339 L 0.6315,13.2804 L 0.6315,46.4883 L 0.6455,47.1347 L 0.7016,47.7812 L 0.7718,48.4136 L 0.8840,49.0319 L 1.0244,49.6503 L 1.1927,50.2546 L 1.4032,50.8308 L 1.6277,51.4069 L 1.8803,51.9691 L 2.1610,52.5171 L 2.4556,53.0512 L 2.7924,53.5571 L 3.1432,54.0490 L 3.5221,54.5268 L 3.9150,54.9905 L 4.3360,55.4262 L 4.7710,55.8478 L 5.2340,56.2413 L 5.7111,56.6207 L 6.2022,56.9720 L 6.7074,57.3093 L 7.2406,57.6044 L 7.7879,57.8855 L 8.3492,58.1385 L 8.9245,58.3633 L 9.4998,58.5741 L 10.1032,58.7428 L 10.7206,58.8833 L 11.3380,58.9957 L 11.9695,59.0660 L 12.6150,59.1222 L 13.2605,59.1362 L 46.4186,59.1362 L 47.0641,59.1222 L 47.7096,59.0660 L 48.3410,58.9957 L 48.9584,58.8833 L 49.5758,58.7428 L 50.1792,58.5741 L 50.7546,58.3633 L 51.3299,58.1385 L 51.8912,57.8855 L 52.4384,57.6044 L 52.9716,57.3093 L 53.4768,56.9720 L 53.9679,56.6207 L 54.4450,56.2413 L 54.9081,55.8478 L 55.3431,55.4262 L 55.7641,54.9905 L 56.1570,54.5268 L 56.5358,54.0490 L 56.8866,53.5571 L 57.2234,53.0512 L 57.5181,52.5171 L 57.7987,51.9691 L 58.0513,51.4069 L 58.2758,50.8308 L 58.4863,50.2546 L 58.6547,49.6503 L 58.7950,49.0319 L 58.9073,48.4136 L 58.9774,47.7812 L 59.0336,47.1347 L 59.0476,46.4883 L 59.0476,13.2804 Z" stroke="#EAEAEA" stroke-width="0.1198" stroke-linecap="round" stroke-linejoin="round" fill="#EAEAEA"/>
        <path d="M 6.8618,20.3492 L 3.4800,20.3492 L 3.4519,20.3632 L 3.4239,20.3632 L 3.3677,20.3913 L 3.3397,20.3913 L 3.2555,20.4335 L 3.2414,20.4475 L 3.2134,20.4616 L 3.1713,20.5038 L 3.1432,20.5178 L 3.1292,20.5459 L 3.0871,20.5881 L 3.0731,20.6162 L 3.0590,20.6302 L 3.0169,20.7146 L 3.0169,20.7427 L 2.9889,20.7989 L 2.9889,20.8270 L 2.9748,20.8551 L 2.9748,21.0237 L 2.9889,21.0518 L 2.9889,21.0799 L 3.0169,21.1361 L 3.0169,21.1643 L 3.0590,21.2486 L 3.0731,21.2626 L 3.0871,21.2907 L 3.1292,21.3329 L 3.1432,21.3610 L 3.1713,21.3751 L 3.2134,21.4172 L 3.2414,21.4313 L 3.2555,21.4453 L 3.3397,21.4875 L 3.3677,21.4875 L 3.4239,21.5156 L 3.4519,21.5156 L 3.4800,21.5296 L 6.8758,21.5296 L 6.9039,21.5156 L 6.9880,21.4313 L 7.0021,21.3891 L 7.0301,21.3610 L 7.0722,21.2345 L 7.0863,21.1783 L 7.1003,21.1361 L 7.1003,21.0799 L 7.1143,21.0378 L 7.1143,20.7708 L 7.1003,20.7286 L 7.1003,20.6724 L 7.0442,20.5038 L 7.0161,20.4475 L 6.9880,20.4194 L 6.9740,20.3913 L 6.8898,20.3492 L 6.8618,20.3492 Z" stroke="#D8D8D8" stroke-width="0.1198" stroke-linecap="round" stroke-linejoin="round" fill="#D8D8D8"/>
        <path d="M 7.1424,20.3492 L 3.4800,20.3492 L 3.4519,20.3632 L 3.4239,20.3632 L 3.3677,20.3913 L 3.3397,20.3913 L 3.2555,20.4335 L 3.2414,20.4475 L 3.2134,20.4616 L 3.1713,20.5038 L 3.1432,20.5178 L 3.1292,20.5459 L 3.0871,20.5881 L 3.0731,20.6162 L 3.0590,20.6302 L 3.0169,20.7146 L 3.0169,20.7427 L 2.9889,20.7989 L 2.9889,20.8270 L 2.9748,20.8551 L 2.9748,21.0237 L 2.9889,21.0518 L 2.9889,21.0799 L 3.0169,21.1361 L 3.0169,21.1643 L 3.0590,21.2486 L 3.0731,21.2626 L 3.0871,21.2907 L 3.1292,21.3329 L 3.1432,21.3610 L 3.1713,21.3751 L 3.2134,21.4172 L 3.2414,21.4313 L 3.2555,21.4453 L 3.3397,21.4875 L 3.3677,21.4875 L 3.4239,21.5156 L 3.4519,21.5156 L 3.4800,21.5296 L 7.1284,21.5296 L 7.1424,21.5296 " stroke="#BFBFBF" stroke-width="0.1198" stroke-linecap="round" stroke-linejoin="round" fill="none"/>
        <path d="M 3.9431,20.5178 L 3.6203,20.5178 L 3.6203,21.3751 L 3.9431,21.3751 L 3.9431,20.5178 Z" stroke="#000000" stroke-width="0.1198" stroke-linecap="round" stroke-linejoin="round" fill="#00FF00"/>
        <path d="M 5.1779,20.5178 L 4.8551,20.5178 L 4.8551,21.3751 L 5.1779,21.3751 L 5.1779,20.5178 Z" stroke="#000000" stroke-width="0.1198" stroke-linecap="round" stroke-linejoin="round" fill="#00FF00"/>
        <path d="M 6.8618,24.8181 L 3.4800,24.8181 L 3.4519,24.8322 L 3.4239,24.8322 L 3.3677,24.8603 L 3.3397,24.8603 L 3.2555,24.9024 L 3.2414,24.9165 L 3.2134,24.9305 L 3.1713,24.9727 L 3.1432,24.9868 L 3.1292,25.0149 L 3.0871,25.0570 L 3.0731,25.0851 L 3.0590,25.0992 L 3.0169,25.1835 L 3.0169,25.2116 L 2.9889,25.2678 L 2.9889,25.2959 L 2.9748,25.3240 L 2.9748,25.4927 L 2.9889,25.5208 L 2.9889,25.5489 L 3.0169,25.6051 L 3.0169,25.6332 L 3.0590,25.7175 L 3.0731,25.7316 L 3.0871,25.7597 L 3.1292,25.8018 L 3.1432,25.8299 L 3.1713,25.8440 L 3.2134,25.8862 L 3.2414,25.9002 L 3.2555,25.9143 L 3.3397,25.9564 L 3.3677,25.9564 L 3.4239,25.9845 L 3.4519,25.9845 L 3.4800,25.9986 L 6.8758,25.9986 L 6.9039,25.9845 L 6.9880,25.9002 L 7.0021,25.8581 L 7.0301,25.8299 L 7.0722,25.7035 L 7.0863,25.6473 L 7.1003,25.6051 L 7.1003,25.5489 L 7.1143,25.5067 L 7.1143,25.2397 L 7.1003,25.1976 L 7.1003,25.1413 L 7.0442,24.9727 L 7.0161,24.9165 L 6.9880,24.8884 L 6.9740,24.8603 L 6.8898,24.8181 L 6.8618,24.8181 Z" stroke="#D8D8D8" stroke-width="0.1198" stroke-linecap="round" stroke-linejoin="round" fill="#D8D8D8"/>
        <path d="M 7.1424,24.8181 L 3.4800,24.8181 L 3.4519,24.8322 L 3.4239,24.8322 L 3.3677,24.8603 L 3.3397,24.8603 L 3.2555,24.9024 L 3.2414,24.9165 L 3.2134,24.9305 L 3.1713,24.9727 L 3.1432,24.9868 L 3.1292,25.0149 L 3.0871,25.0570 L 3.0731,25.0851 L 3.0590,25.0992 L 3.0169,25.1835 L 3.0169,25.2116 L 2.9889,25.2678 L 2.9889,25.2959 L 2.9748,25.3240 L 2.9748,25.4927 L 2.9889,25.5208 L 2.9889,25.5489 L 3.0169,25.6051 L 3.0169,25.6332 L 3.0590,25.7175 L 3.0731,25.7316 L 3.0871,25.7597 L 3.1292,25.8018 L 3.1432,25.8299 L 3.1713,25.8440 L 3.2134,25.8862 L 3.2414,25.9002 L 3.2555,25.9143 L 3.3397,25.9564 L 3.3677,25.9564 L 3.4239,25.9845 L 3.4519,25.9845 L 3.4800,25.9986 L 7.1284,25.9986 L 7.1424,25.9986 " stroke="#BFBFBF" stroke-width="0.1198" stroke-linecap="round" stroke-linejoin="round" fill="none"/>
        <path d="M 3.9431,24.9868 L 3.6203,24.9868 L 3.6203,25.8440 L 3.9431,25.8440 L 3.9431,24.9868 Z" stroke="#000000" stroke-width="0.1198" stroke-linecap="round" stroke-linejoin="round" fill="#00FF00"/>
        <path d="M 5.1779,24.9868 L 4.8551,24.9868 L 4.8551,25.8440 L 5.1779,25.8440 L 5.1779,24.9868 Z" stroke="#000000" stroke-width="0.1198" stroke-linecap="round" stroke-linejoin="round" fill="#00FF00"/>
        <path d="M 6.8618,29.2871 L 3.4800,29.2871 L 3.4519,29.3011 L 3.4239,29.3011 L 3.3677,29.3292 L 3.3397,29.3292 L 3.2555,29.3714 L 3.2414,29.3854 L 3.2134,29.3995 L 3.1713,29.4416 L 3.1432,29.4557 L 3.1292,29.4838 L 3.0871,29.5260 L 3.0731,29.5541 L 3.0590,29.5681 L 3.0169,29.6524 L 3.0169,29.6806 L 2.9889,29.7368 L 2.9889,29.7649 L 2.9748,29.7930 L 2.9748,29.9616 L 2.9889,29.9897 L 2.9889,30.0178 L 3.0169,30.0740 L 3.0169,30.1021 L 3.0590,30.1865 L 3.0731,30.2005 L 3.0871,30.2286 L 3.1292,30.2708 L 3.1432,30.2989 L 3.1713,30.3129 L 3.2134,30.3551 L 3.2414,30.3692 L 3.2555,30.3832 L 3.3397,30.4254 L 3.3677,30.4254 L 3.4239,30.4535 L 3.4519,30.4535 L 3.4800,30.4675 L 6.8758,30.4675 L 6.9039,30.4535 L 6.9880,30.3692 L 7.0021,30.3270 L 7.0301,30.2989 L 7.0722,30.1724 L 7.0863,30.1162 L 7.1003,30.0740 L 7.1003,30.0178 L 7.1143,29.9757 L 7.1143,29.7087 L 7.1003,29.6665 L 7.1003,29.6103 L 7.0442,29.4416 L 7.0161,29.3854 L 6.9880,29.3573 L 6.9740,29.3292 L 6.8898,29.2871 L 6.8618,29.2871 Z" stroke="#D8D8D8" stroke-width="0.1198" stroke-linecap="round" stroke-linejoin="round" fill="#D8D8D8"/>
        <path d="M 7.1424,29.2871 L 3.4800,29.2871 L 3.4519,29.3011 L 3.4239,29.3011 L 3.3677,29.3292 L 3.3397,29.3292 L 3.2555,29.3714 L 3.2414,29.3854 L 3.2134,29.3995 L 3.1713,29.4416 L 3.1432,29.4557 L 3.1292,29.4838 L 3.0871,29.5260 L 3.0731,29.5541 L 3.0590,29.5681 L 3.0169,29.6524 L 3.0169,29.6806 L 2.9889,29.7368 L 2.9889,29.7649 L 2.9748,29.7930 L 2.9748,29.9616 L 2.9889,29.9897 L 2.9889,30.0178 L 3.0169,30.0740 L 3.0169,30.1021 L 3.0590,30.1865 L 3.0731,30.2005 L 3.0871,30.2286 L 3.1292,30.2708 L 3.1432,30.2989 L 3.1713,30.3129 L 3.2134,30.3551 L 3.2414,30.3692 L 3.2555,30.3832 L 3.3397,30.4254 L 3.3677,30.4254 L 3.4239,30.4535 L 3.4519,30.4535 L 3.4800,30.4675 L 7.1284,30.4675 L 7.1424,30.4675 " stroke="#BFBFBF" stroke-width="0.1198" stroke-linecap="round" stroke-linejoin="round" fill="none"/>
        <path d="M 3.9431,29.4557 L 3.6203,29.4557 L 3.6203,30.3129 L 3.9431,30.3129 L 3.9431,29.4557 Z" stroke="#000000" stroke-width="0.1198" stroke-linecap="round" stroke-linejoin="round" fill="#00FF00"/>
        <path d="M 5.1779,29.4557 L 4.8551,29.4557 L 4.8551,30.3129 L 5.1779,30.3129 L 5.1779,29.4557 Z" stroke="#000000" stroke-width="0.1198" stroke-linecap="round" stroke-linejoin="round" fill="#00FF00"/>
        <path d="M 6.8618,33.7560 L 3.4800,33.7560 L 3.4519,33.7701 L 3.4239,33.7701 L 3.3677,33.7982 L 3.3397,33.7982 L 3.2555,33.8403 L 3.2414,33.8544 L 3.2134,33.8684 L 3.1713,33.9106 L 3.1432,33.9246 L 3.1292,33.9528 L 3.0871,33.9949 L 3.0731,34.0230 L 3.0590,34.0371 L 3.0169,34.1214 L 3.0169,34.1495 L 2.9889,34.2057 L 2.9889,34.2338 L 2.9748,34.2619 L 2.9748,34.4306 L 2.9889,34.4587 L 2.9889,34.4868 L 3.0169,34.5430 L 3.0169,34.5711 L 3.0590,34.6554 L 3.0731,34.6695 L 3.0871,34.6976 L 3.1292,34.7397 L 3.1432,34.7678 L 3.1713,34.7819 L 3.2134,34.8241 L 3.2414,34.8381 L 3.2555,34.8522 L 3.3397,34.8943 L 3.3677,34.8943 L 3.4239,34.9224 L 3.4519,34.9224 L 3.4800,34.9365 L 6.8758,34.9365 L 6.9039,34.9224 L 6.9880,34.8381 L 7.0021,34.7959 L 7.0301,34.7678 L 7.0722,34.6414 L 7.0863,34.5851 L 7.1003,34.5430 L 7.1003,34.4868 L 7.1143,34.4446 L 7.1143,34.1776 L 7.1003,34.1354 L 7.1003,34.0792 L 7.0442,33.9106 L 7.0161,33.8544 L 6.9880,33.8263 L 6.9740,33.7982 L 6.8898,33.7560 L 6.8618,33.7560 Z" stroke="#D8D8D8" stroke-width="0.1198" stroke-linecap="round" stroke-linejoin="round" fill="#D8D8D8"/>
        <path d="M 7.1424,33.7560 L 3.4800,33.7560 L 3.4519,33.7701 L 3.4239,33.7701 L 3.3677,33.7982 L 3.3397,33.7982 L 3.2555,33.8403 L 3.2414,33.8544 L 3.2134,33.8684 L 3.1713,33.9106 L 3.1432,33.9246 L 3.1292,33.9528 L 3.0871,33.9949 L 3.0731,34.0230 L 3.0590,34.0371 L 3.0169,34.1214 L 3.0169,34.1495 L 2.9889,34.2057 L 2.9889,34.2338 L 2.9748,34.2619 L 2.9748,34.4306 L 2.9889,34.4587 L 2.9889,34.4868 L 3.0169,34.5430 L 3.0169,34.5711 L 3.0590,34.6554 L 3.0731,34.6695 L 3.0871,34.6976 L 3.1292,34.7397 L 3.1432,34.7678 L 3.1713,34.7819 L 3.2134,34.8241 L 3.2414,34.8381 L 3.2555,34.8522 L 3.3397,34.8943 L 3.3677,34.8943 L 3.4239,34.9224 L 3.4519,34.9224 L 3.4800,34.9365 L 7.1284,34.9365 L 7.1424,34.9365 " stroke="#BFBFBF" stroke-width="0.1198" stroke-linecap="round" stroke-linejoin="round" fill="none"/>
        <path d="M 3.9431,33.9246 L 3.6203,33.9246 L 3.6203,34.7819 L 3.9431,34.7819 L 3.9431,33.9246 Z" stroke="#000000" stroke-width="0.1198" stroke-linecap="round" stroke-linejoin="round" fill="#00FF00"/>
        <path d="M 5.1779,33.9246 L 4.8551,33.9246 L 4.8551,34.7819 L 5.1779,34.7819 L 5.1779,33.9246 Z" stroke="#000000" stroke-width="0.1198" stroke-linecap="round" stroke-linejoin="round" fill="#00FF00"/>
        <path d="M 6.8618,38.2250 L 3.4800,38.2250 L 3.4519,38.2390 L 3.4239,38.2390 L 3.3677,38.2671 L 3.3397,38.2671 L 3.2555,38.3093 L 3.2414,38.3233 L 3.2134,38.3374 L 3.1713,38.3795 L 3.1432,38.3936 L 3.1292,38.4217 L 3.0871,38.4639 L 3.0731,38.4920 L 3.0590,38.5060 L 3.0169,38.5903 L 3.0169,38.6184 L 2.9889,38.6747 L 2.9889,38.7028 L 2.9748,38.7309 L 2.9748,38.8995 L 2.9889,38.9276 L 2.9889,38.9557 L 3.0169,39.0119 L 3.0169,39.0400 L 3.0590,39.1244 L 3.0731,39.1384 L 3.0871,39.1665 L 3.1292,39.2087 L 3.1432,39.2368 L 3.1713,39.2508 L 3.2134,39.2930 L 3.2414,39.3071 L 3.2555,39.3211 L 3.3397,39.3633 L 3.3677,39.3633 L 3.4239,39.3914 L 3.4519,39.3914 L 3.4800,39.4054 L 6.8758,39.4054 L 6.9039,39.3914 L 6.9880,39.3071 L 7.0021,39.2649 L 7.0301,39.2368 L 7.0722,39.1103 L 7.0863,39.0541 L 7.1003,39.0119 L 7.1003,38.9557 L 7.1143,38.9136 L 7.1143,38.6466 L 7.1003,38.6044 L 7.1003,38.5482 L 7.0442,38.3795 L 7.0161,38.3233 L 6.9880,38.2952 L 6.9740,38.2671 L 6.8898,38.2250 L 6.8618,38.2250 Z" stroke="#D8D8D8" stroke-width="0.1198" stroke-linecap="round" stroke-linejoin="round" fill="#D8D8D8"/>
        <path d="M 7.1424,38.2250 L 3.4800,38.2250 L 3.4519,38.2390 L 3.4239,38.2390 L 3.3677,38.2671 L 3.3397,38.2671 L 3.2555,38.3093 L 3.2414,38.3233 L 3.2134,38.3374 L 3.1713,38.3795 L 3.1432,38.3936 L 3.1292,38.4217 L 3.0871,38.4639 L 3.0731,38.4920 L 3.0590,38.5060 L 3.0169,38.5903 L 3.0169,38.6184 L 2.9889,38.6747 L 2.9889,38.7028 L 2.9748,38.7309 L 2.9748,38.8995 L 2.9889,38.9276 L 2.9889,38.9557 L 3.0169,39.0119 L 3.0169,39.0400 L 3.0590,39.1244 L 3.0731,39.1384 L 3.0871,39.1665 L 3.1292,39.2087 L 3.1432,39.2368 L 3.1713,39.2508 L 3.2134,39.2930 L 3.2414,39.3071 L 3.2555,39.3211 L 3.3397,39.3633 L 3.3677,39.3633 L 3.4239,39.3914 L 3.4519,39.3914 L 3.4800,39.4054 L 7.1284,39.4054 L 7.1424,39.4054 " stroke="#BFBFBF" stroke-width="0.1198" stroke-linecap="round" stroke-linejoin="round" fill="none"/>
        <path d="M 3.9431,38.3936 L 3.6203,38.3936 L 3.6203,39.2508 L 3.9431,39.2508 L 3.9431,38.3936 Z" stroke="#000000" stroke-width="0.1198" stroke-linecap="round" stroke-linejoin="round" fill="#00FF00"/>
        <path d="M 5.1779,38.3936 L 4.8551,38.3936 L 4.8551,39.2508 L 5.1779,39.2508 L 5.1779,38.3936 Z" stroke="#000000" stroke-width="0.1198" stroke-linecap="round" stroke-linejoin="round" fill="#00FF00"/>
        <text font-family="Arial" fill="#A5A5A5" style="white-space:pre;" text-anchor="start" x="8.6298" y="21.4032" font-size="1.1927"><![CDATA[5]]></text>
        <text font-family="Arial" fill="#A5A5A5" style="white-space:pre;" text-anchor="start" x="9.3034" y="21.4032" font-size="1.1927"><![CDATA[G]]></text>
        <text font-family="Arial" fill="#A5A5A5" style="white-space:pre;" text-anchor="start" x="10.2295" y="21.4032" font-size="1.1927"><![CDATA[H]]></text>
        <text font-family="Arial" fill="#A5A5A5" style="white-space:pre;" text-anchor="start" x="11.0995" y="21.4032" font-size="1.1927"><![CDATA[z]]></text>
        <text font-family="Arial" fill="#A5A5A5" style="white-space:pre;" text-anchor="start" x="8.6298" y="25.8581" font-size="1.1927"><![CDATA[2]]></text>
        <text font-family="Arial" fill="#A5A5A5" style="white-space:pre;" text-anchor="start" x="9.3034" y="25.8581" font-size="1.1927"><![CDATA[.]]></text>
        <text font-family="Arial" fill="#A5A5A5" style="white-space:pre;" text-anchor="start" x="9.6401" y="25.8581" font-size="1.1927"><![CDATA[4]]></text>
        <text font-family="Arial" fill="#A5A5A5" style="white-space:pre;" text-anchor="start" x="10.3137" y="25.8581" font-size="1.1927"><![CDATA[G]]></text>
        <text font-family="Arial" fill="#A5A5A5" style="white-space:pre;" text-anchor="start" x="11.2398" y="25.8581" font-size="1.1927"><![CDATA[H]]></text>
        <text font-family="Arial" fill="#A5A5A5" style="white-space:pre;" text-anchor="start" x="12.1098" y="25.8581" font-size="1.1927"><![CDATA[z]]></text>
        <ellipse cx="8.8193" cy="29.0763" rx="0.1333" ry="0.1405" fill="#A5A5A5" stroke="#000000" stroke-width="0.1198" stroke-linecap="round" stroke-linejoin="round"/>
        <ellipse cx="8.8193" cy="29.0763" rx="0.1333" ry="0.1405" fill="none" stroke="#A5A5A5" stroke-width="0.1198" stroke-linecap="round" stroke-linejoin="round"/>
        <ellipse cx="9.3805" cy="30.0178" rx="0.1333" ry="0.1405" fill="#A5A5A5" stroke="#000000" stroke-width="0.1198" stroke-linecap="round" stroke-linejoin="round"/>
        <ellipse cx="9.3805" cy="30.0178" rx="0.1333" ry="0.1405" fill="none" stroke="#A5A5A5" stroke-width="0.1198" stroke-linecap="round" stroke-linejoin="round"/>
        <ellipse cx="8.2650" cy="30.0178" rx="0.1403" ry="0.1405" fill="#A5A5A5" stroke="#000000" stroke-width="0.1198" stroke-linecap="round" stroke-linejoin="round"/>
        <ellipse cx="8.2650" cy="30.0178" rx="0.1403" ry="0.1405" fill="none" stroke="#A5A5A5" stroke-width="0.1198" stroke-linecap="round" stroke-linejoin="round"/>
        <path d="M 8.1247,29.6103 L 9.6261,29.6103 " stroke="#A5A5A5" stroke-width="0.1198" stroke-linecap="round" stroke-linejoin="round" fill="none"/>
        <path d="M 8.8684,29.2730 L 8.8684,29.6103 " stroke="#A5A5A5" stroke-width="0.1198" stroke-linecap="round" stroke-linejoin="round" fill="none"/>
        <path d="M 9.4577,29.8913 L 9.4577,29.6243 " stroke="#A5A5A5" stroke-width="0.1198" stroke-linecap="round" stroke-linejoin="round" fill="none"/>
        <path d="M 9.4577,29.8913 L 9.4577,29.6243 " stroke="#A5A5A5" stroke-width="0.1198" stroke-linecap="round" stroke-linejoin="round" fill="none"/>
        <path d="M 8.3211,29.8913 L 8.3211,29.6243 " stroke="#A5A5A5" stroke-width="0.1198" stroke-linecap="round" stroke-linejoin="round" fill="none"/>
        <ellipse cx="8.8193" cy="33.7982" rx="0.1333" ry="0.1405" fill="#A5A5A5" stroke="#000000" stroke-width="0.1198" stroke-linecap="round" stroke-linejoin="round"/>
        <ellipse cx="8.8193" cy="33.7982" rx="0.1333" ry="0.1405" fill="none" stroke="#A5A5A5" stroke-width="0.1198" stroke-linecap="round" stroke-linejoin="round"/>
        <ellipse cx="9.3805" cy="34.7327" rx="0.1333" ry="0.1335" fill="#A5A5A5" stroke="#000000" stroke-width="0.1198" stroke-linecap="round" stroke-linejoin="round"/>
        <ellipse cx="9.3805" cy="34.7327" rx="0.1333" ry="0.1335" fill="none" stroke="#A5A5A5" stroke-width="0.1198" stroke-linecap="round" stroke-linejoin="round"/>
        <ellipse cx="8.2650" cy="34.7327" rx="0.1403" ry="0.1335" fill="#A5A5A5" stroke="#000000" stroke-width="0.1198" stroke-linecap="round" stroke-linejoin="round"/>
        <ellipse cx="8.2650" cy="34.7327" rx="0.1403" ry="0.1335" fill="none" stroke="#A5A5A5" stroke-width="0.1198" stroke-linecap="round" stroke-linejoin="round"/>
        <path d="M 8.1247,34.3322 L 9.6261,34.3322 " stroke="#A5A5A5" stroke-width="0.1198" stroke-linecap="round" stroke-linejoin="round" fill="none"/>
        <path d="M 8.8684,33.9949 L 8.8684,34.3322 " stroke="#A5A5A5" stroke-width="0.1198" stroke-linecap="round" stroke-linejoin="round" fill="none"/>
        <path d="M 9.4577,34.6133 L 9.4577,34.3462 " stroke="#A5A5A5" stroke-width="0.1198" stroke-linecap="round" stroke-linejoin="round" fill="none"/>
        <path d="M 8.3211,34.6133 L 8.3211,34.3462 " stroke="#A5A5A5" stroke-width="0.1198" stroke-linecap="round" stroke-linejoin="round" fill="none"/>
        <text font-family="Arial" fill="#A5A5A5" style="white-space:pre;" text-anchor="start" x="9.7524" y="29.0622" font-size="1.1927"><![CDATA[1]]></text>
        <text font-family="Arial" fill="#A5A5A5" style="white-space:pre;" text-anchor="start" x="9.7524" y="34.0090" font-size="1.1927"><![CDATA[2]]></text>
        <path d="M 9.1069,38.4076 L 9.1209,38.4076 L 9.1490,38.4358 L 9.1630,38.4358 L 9.1630,38.4498 L 9.1771,38.4639 L 9.1911,38.4639 L 9.2192,38.4920 L 9.2192,38.5060 L 9.2332,38.5060 L 9.2472,38.5201 L 9.2472,38.5341 L 9.2753,38.5622 L 9.2753,38.5763 L 9.2893,38.5903 L 9.2893,38.6044 L 9.3034,38.6184 L 9.3034,38.6325 L 9.3174,38.6466 L 9.3174,38.6747 L 9.3314,38.7028 L 9.3314,38.7309 L 9.3455,38.7449 L 9.3455,38.8995 L 9.3314,38.9276 L 9.3314,38.9557 L 9.3174,38.9698 L 9.3174,38.9979 L 9.3034,39.0119 L 9.3034,39.0400 L 9.2893,39.0541 L 9.2753,39.0822 L 9.2472,39.1103 L 9.2332,39.1384 L 9.1771,39.1946 L 9.1490,39.2087 L 9.1209,39.2368 L 9.0929,39.2508 L 9.0788,39.2649 L 9.0508,39.2649 L 9.0368,39.2789 L 9.0087,39.2789 L 8.9947,39.2930 L 8.9666,39.2930 L 8.9385,39.3071 L 8.7982,39.3071 L 8.7701,39.2930 L 8.7421,39.2930 L 8.7280,39.2789 L 8.7000,39.2789 L 8.6859,39.2649 L 8.6579,39.2649 L 8.6439,39.2508 L 8.6158,39.2368 L 8.5877,39.2087 L 8.5597,39.1946 L 8.5035,39.1384 L 8.4895,39.1103 L 8.4614,39.0822 L 8.4474,39.0541 L 8.4334,39.0400 L 8.4334,39.0119 L 8.4193,38.9979 L 8.4193,38.9698 L 8.4053,38.9557 L 8.4053,38.9276 L 8.3913,38.8995 L 8.3913,38.7590 L 8.4053,38.7309 L 8.4053,38.6747 L 8.4193,38.6606 L 8.4193,38.6325 L 8.4474,38.6044 L 8.4474,38.5903 L 8.4614,38.5763 L 8.4614,38.5622 L 8.4755,38.5482 L 8.4755,38.5341 L 8.5176,38.4920 L 8.5176,38.4779 L 8.5316,38.4639 L 8.5456,38.4639 L 8.5597,38.4498 L 8.5597,38.4358 L 8.5737,38.4358 L 8.5877,38.4217 L 8.5877,38.4358 L 8.6018,38.4358 L 8.6018,38.4498 L 8.6158,38.4498 L 8.6158,38.4779 L 8.6298,38.4779 L 8.6298,38.4920 L 8.6439,38.4920 L 8.6439,38.5060 L 8.6298,38.5060 L 8.6298,38.5201 L 8.6158,38.5341 L 8.6018,38.5341 L 8.6018,38.5482 L 8.5877,38.5482 L 8.5877,38.5622 L 8.5737,38.5622 L 8.5737,38.5763 L 8.5456,38.6044 L 8.5456,38.6184 L 8.5176,38.6466 L 8.5176,38.6747 L 8.5035,38.6747 L 8.5035,38.7028 L 8.4895,38.7168 L 8.4895,38.7590 L 8.4755,38.7730 L 8.4755,38.8855 L 8.4895,38.9136 L 8.4895,38.9557 L 8.5035,38.9698 L 8.5035,38.9838 L 8.5176,38.9979 L 8.5176,39.0260 L 8.5737,39.0822 L 8.5737,39.0963 L 8.6298,39.1525 L 8.6579,39.1525 L 8.6859,39.1806 L 8.7000,39.1806 L 8.7140,39.1946 L 8.7421,39.1946 L 8.7561,39.2087 L 8.7842,39.2087 L 8.8122,39.2227 L 8.9245,39.2227 L 8.9526,39.2087 L 8.9806,39.2087 L 8.9947,39.1946 L 9.0227,39.1946 L 9.0368,39.1806 L 9.0508,39.1806 L 9.0788,39.1525 L 9.1069,39.1525 L 9.1630,39.0963 L 9.1630,39.0822 L 9.2192,39.0260 L 9.2192,38.9979 L 9.2332,38.9838 L 9.2332,38.9698 L 9.2472,38.9557 L 9.2472,38.9136 L 9.2613,38.8855 L 9.2613,38.7590 L 9.2472,38.7590 L 9.2472,38.7168 L 9.2332,38.7028 L 9.2332,38.6747 L 9.2192,38.6747 L 9.2192,38.6606 L 9.2051,38.6466 L 9.2051,38.6325 L 9.1771,38.6044 L 9.1771,38.5903 L 9.1630,38.5763 L 9.1490,38.5763 L 9.1490,38.5622 L 9.1350,38.5482 L 9.1209,38.5482 L 9.1209,38.5341 L 9.1069,38.5341 L 9.0929,38.5201 L 9.0788,38.5201 L 9.0788,38.5060 L 9.0648,38.4920 L 9.0508,38.4920 L 9.0508,38.4779 L 9.0648,38.4779 L 9.0648,38.4639 L 9.0788,38.4639 L 9.0788,38.4358 L 9.0929,38.4358 L 9.0929,38.4217 L 9.1069,38.4217 L 9.1069,38.4076 Z" stroke="#A5A5A5" stroke-width="0.1198" stroke-linecap="round" stroke-linejoin="round" fill="#A5A5A5"/>
        <path d="M 8.9105,38.1828 L 8.7982,38.1828 L 8.7982,38.8573 L 8.9105,38.8573 L 8.9105,38.1828 Z" stroke="#A5A5A5" stroke-width="0.1198" stroke-linecap="round" stroke-linejoin="round" fill="#A5A5A5"/>
        <path d="M 19.5750,28.5422 L 19.5329,28.5422 L 19.5329,28.5282 L 19.5048,28.5282 L 19.5048,28.5141 L 19.4908,28.5141 L 19.4627,28.4860 L 19.4627,28.4720 L 19.4487,28.4720 L 19.4487,28.4439 L 19.4346,28.4439 L 19.4346,26.3921 L 19.4487,26.3921 L 19.4487,26.3640 L 19.4627,26.3640 L 19.4627,26.3499 L 19.4908,26.3218 L 19.5048,26.3218 L 19.5048,26.3078 L 19.5329,26.3078 L 19.5329,26.2937 L 21.9464,26.2937 L 21.9464,26.3078 L 21.9745,26.3078 L 21.9745,26.3218 L 21.9885,26.3218 L 22.0166,26.3499 L 22.0166,26.3640 L 22.0306,26.3640 L 22.0306,26.3921 L 22.0446,26.3921 L 22.0446,26.8137 L 22.0306,26.7996 L 22.0306,26.7856 L 22.0166,26.7856 L 22.0166,26.7715 L 22.0025,26.7715 L 22.0025,26.7575 L 21.9885,26.7575 L 21.9885,26.7434 L 21.9604,26.7434 L 21.9464,26.7294 L 20.0240,26.7294 L 20.0240,26.7434 L 19.9959,26.7434 L 19.9959,26.7575 L 19.9819,26.7575 L 19.9819,26.7715 L 19.9679,26.7715 L 19.9679,26.7996 L 19.9538,26.7996 L 19.9538,28.4579 L 19.9679,28.4720 L 19.9679,28.5001 L 19.9819,28.5001 L 19.9819,28.5141 L 19.9959,28.5141 L 19.9959,28.5282 L 20.0100,28.5282 L 20.0100,28.5422 L 19.5890,28.5422 L 19.5750,28.5422 Z" stroke="#A5A5A5" stroke-width="0.1198" stroke-linecap="round" stroke-linejoin="round" fill="#A5A5A5"/>
        <path d="M 21.8622,27.2493 L 20.1362,27.2493 L 20.1222,27.2353 L 20.1082,27.2353 L 20.0661,27.1931 L 20.0661,27.1791 L 20.0520,27.1650 L 20.0520,27.6147 L 20.0661,27.6147 L 20.0661,27.6428 L 20.0801,27.6428 L 20.1082,27.6709 L 20.1222,27.6709 L 20.1362,27.6850 L 21.9043,27.6850 L 21.9183,27.6709 L 21.9464,27.6569 L 21.9885,27.6147 L 21.9885,27.6007 L 22.0025,27.5866 L 22.0166,27.5585 L 22.0166,27.5445 L 22.0306,27.5304 L 22.0306,27.4742 L 22.0446,27.4601 L 22.0306,27.4461 L 22.0306,27.3899 L 22.0166,27.3618 L 22.0166,27.3477 L 22.0025,27.3477 L 21.9745,27.3196 L 21.9745,27.3055 L 21.9464,27.2774 L 21.9324,27.2774 L 21.9183,27.2634 L 21.9043,27.2634 L 21.8762,27.2493 L 21.8622,27.2493 Z" stroke="#A5A5A5" stroke-width="0.1198" stroke-linecap="round" stroke-linejoin="round" fill="#A5A5A5"/>
        <path d="M 25.9175,27.6850 L 25.8895,27.6850 L 25.8895,27.6709 L 25.8614,27.6709 L 25.8614,27.6569 L 25.8474,27.6569 L 25.8474,27.6428 L 25.8333,27.6428 L 25.8333,27.6147 L 25.8193,27.6147 L 25.8193,27.1650 L 25.8333,27.1791 L 25.8333,27.1931 L 25.8614,27.2212 L 25.8754,27.2212 L 25.8895,27.2353 L 27.2927,27.2353 L 27.2927,26.7294 L 25.7912,26.7294 L 25.7772,26.7434 L 25.7632,26.7434 L 25.7491,26.7575 L 25.7491,26.7715 L 25.7351,26.7715 L 25.7211,26.7856 L 25.7211,26.7996 L 25.7070,26.8137 L 25.7070,28.4579 L 25.7211,28.4579 L 25.7211,28.4860 L 25.7351,28.5001 L 25.7351,28.5141 L 25.7491,28.5141 L 25.7491,28.5282 L 25.7632,28.5282 L 25.7632,28.5422 L 25.3001,28.5422 L 25.3001,28.5282 L 25.2720,28.5282 L 25.2720,28.5141 L 25.2580,28.5141 L 25.2299,28.4860 L 25.2299,28.4720 L 25.2159,28.4720 L 25.2159,28.4439 L 25.2019,28.4439 L 25.2019,26.3921 L 25.2159,26.3921 L 25.2159,26.3640 L 25.2299,26.3640 L 25.2299,26.3499 L 25.2580,26.3218 L 25.2720,26.3218 L 25.2720,26.3078 L 25.3001,26.3078 L 25.3001,26.2937 L 27.6996,26.2937 L 27.6996,26.3078 L 27.7277,26.3078 L 27.7277,26.3218 L 27.7417,26.3218 L 27.7698,26.3499 L 27.7698,26.3640 L 27.7838,26.3640 L 27.7838,26.3921 L 27.7978,26.3921 L 27.7978,27.5023 L 27.7838,27.5163 L 27.7838,27.5445 L 27.7698,27.5445 L 27.7698,27.5726 L 27.7557,27.5726 L 27.7557,27.5866 L 27.7277,27.6147 L 27.7277,27.6288 L 27.7136,27.6288 L 27.7136,27.6428 L 27.6996,27.6428 L 27.6996,27.6569 L 27.6856,27.6569 L 27.6575,27.6850 L 27.6856,27.7131 L 27.6996,27.7131 L 27.6996,27.7271 L 27.7136,27.7271 L 27.7136,27.7412 L 27.7277,27.7412 L 27.7277,27.7552 L 27.7557,27.7834 L 27.7557,27.7974 L 27.7698,27.7974 L 27.7698,27.8255 L 27.7838,27.8255 L 27.7838,27.8536 L 27.7978,27.8677 L 27.7978,28.4579 L 27.8119,28.4579 L 27.8119,28.4860 L 27.8259,28.5001 L 27.8259,28.5141 L 27.8399,28.5141 L 27.8399,28.5282 L 27.8540,28.5282 L 27.8540,28.5422 L 27.3909,28.5422 L 27.3909,28.5282 L 27.3628,28.5282 L 27.3628,28.5141 L 27.3488,28.5141 L 27.3207,28.4860 L 27.3207,28.4720 L 27.3067,28.4720 L 27.3067,28.4439 L 27.2927,28.4439 L 27.2927,27.6850 L 25.9316,27.6850 L 25.9175,27.6850 Z" stroke="#A5A5A5" stroke-width="0.1198" stroke-linecap="round" stroke-linejoin="round" fill="#A5A5A5"/>
        <path d="M 28.6959,26.7294 L 28.1627,26.7294 L 28.1627,26.7153 L 28.1346,26.7153 L 28.1346,26.7013 L 28.1206,26.7013 L 28.0925,26.6731 L 28.0925,26.6591 L 28.0785,26.6591 L 28.0785,26.6310 L 28.0644,26.6310 L 28.0644,26.3921 L 28.0785,26.3921 L 28.0785,26.3640 L 28.0925,26.3640 L 28.0925,26.3499 L 28.1206,26.3218 L 28.1346,26.3218 L 28.1346,26.3078 L 28.1627,26.3078 L 28.1627,26.2937 L 30.5762,26.2937 L 30.5762,26.3078 L 30.6043,26.3078 L 30.6043,26.3218 L 30.6183,26.3218 L 30.6464,26.3499 L 30.6464,26.3640 L 30.6604,26.3640 L 30.6604,26.3921 L 30.6744,26.3921 L 30.6744,26.8137 L 30.6604,26.7996 L 30.6604,26.7856 L 30.6464,26.7856 L 30.6464,26.7715 L 30.6323,26.7715 L 30.6323,26.7575 L 30.6183,26.7575 L 30.6183,26.7434 L 30.5902,26.7434 L 30.5762,26.7294 L 29.2853,26.7294 L 29.2853,26.7434 L 29.2572,26.7434 L 29.2572,26.7575 L 29.2432,26.7575 L 29.2432,26.7715 L 29.2291,26.7715 L 29.2291,26.7996 L 29.2151,26.7996 L 29.2151,28.4579 L 29.2291,28.4720 L 29.2291,28.5001 L 29.2432,28.5001 L 29.2432,28.5141 L 29.2572,28.5141 L 29.2572,28.5282 L 29.2712,28.5282 L 29.2712,28.5422 L 28.7941,28.5422 L 28.7941,28.5282 L 28.7661,28.5282 L 28.7661,28.5141 L 28.7520,28.5141 L 28.7240,28.4860 L 28.7240,28.4720 L 28.7099,28.4720 L 28.7099,28.4439 L 28.6959,28.4439 L 28.6959,26.7856 L 28.6959,26.7294 Z" stroke="#A5A5A5" stroke-width="0.1198" stroke-linecap="round" stroke-linejoin="round" fill="#A5A5A5"/>
        <path d="M 31.4743,28.4158 L 31.4743,28.4579 L 31.4883,28.4720 L 31.4883,28.5001 L 31.5023,28.5001 L 31.5023,28.5141 L 31.5164,28.5141 L 31.5164,28.5282 L 31.5304,28.5282 L 31.5304,28.5422 L 31.0533,28.5422 L 31.0533,28.5282 L 31.0252,28.5282 L 31.0252,28.5141 L 31.0112,28.5141 L 30.9832,28.4860 L 30.9832,28.4720 L 30.9691,28.4720 L 30.9691,28.4439 L 30.9551,28.4439 L 30.9551,26.3780 L 30.9411,26.3640 L 30.9411,26.3359 L 30.9270,26.3359 L 30.9270,26.3218 L 30.9130,26.3218 L 30.9130,26.3078 L 30.8990,26.3078 L 30.8990,26.2937 L 31.3761,26.2937 L 31.3761,26.3078 L 31.4041,26.3078 L 31.4041,26.3218 L 31.4182,26.3218 L 31.4462,26.3499 L 31.4462,26.3640 L 31.4602,26.3640 L 31.4602,26.3921 L 31.4743,26.3921 L 31.4743,28.3876 L 31.4743,28.4158 Z" stroke="#A5A5A5" stroke-width="0.1198" stroke-linecap="round" stroke-linejoin="round" fill="#A5A5A5"/>
        <path d="M 33.9580,26.7294 L 32.4565,26.7294 L 32.4425,26.7434 L 32.4285,26.7434 L 32.4144,26.7575 L 32.4144,26.7715 L 32.4004,26.7715 L 32.3864,26.7856 L 32.3864,26.7996 L 32.3723,26.8137 L 32.3723,28.4579 L 32.3864,28.4579 L 32.3864,28.4860 L 32.4004,28.5001 L 32.4004,28.5141 L 32.4144,28.5141 L 32.4144,28.5282 L 32.4285,28.5282 L 32.4285,28.5422 L 31.9654,28.5422 L 31.9654,28.5282 L 31.9373,28.5282 L 31.9373,28.5141 L 31.9233,28.5141 L 31.8952,28.4860 L 31.8952,28.4720 L 31.8812,28.4720 L 31.8812,28.4439 L 31.8672,28.4439 L 31.8672,26.3921 L 31.8812,26.3921 L 31.8812,26.3640 L 31.8952,26.3640 L 31.8952,26.3499 L 31.9233,26.3218 L 31.9373,26.3218 L 31.9373,26.3078 L 31.9654,26.3078 L 31.9654,26.2937 L 34.3649,26.2937 L 34.3649,26.3078 L 34.3930,26.3078 L 34.3930,26.3218 L 34.4070,26.3218 L 34.4351,26.3499 L 34.4351,26.3640 L 34.4491,26.3640 L 34.4491,26.3921 L 34.4631,26.3921 L 34.4631,28.4579 L 34.4772,28.4579 L 34.4772,28.4860 L 34.4912,28.5001 L 34.4912,28.5141 L 34.5052,28.5141 L 34.5052,28.5282 L 34.5193,28.5282 L 34.5193,28.5422 L 34.0562,28.5422 L 34.0562,28.5282 L 34.0281,28.5282 L 34.0281,28.5141 L 34.0141,28.5141 L 33.9860,28.4860 L 33.9860,28.4720 L 33.9720,28.4720 L 33.9720,28.4439 L 33.9580,28.4439 L 33.9580,26.7856 L 33.9580,26.7294 Z" stroke="#A5A5A5" stroke-width="0.1198" stroke-linecap="round" stroke-linejoin="round" fill="#A5A5A5"/>
        <path d="M 37.0451,27.2493 L 35.4173,27.2493 L 35.4173,27.2353 L 35.3893,27.2353 L 35.3893,27.2212 L 35.3752,27.2212 L 35.3752,27.2072 L 35.3612,27.1931 L 35.3612,27.1791 L 35.3472,27.1650 L 35.3472,27.6147 L 35.3612,27.6147 L 35.3612,27.6428 L 35.3752,27.6428 L 35.3752,27.6569 L 35.3893,27.6569 L 35.3893,27.6709 L 35.4173,27.6709 L 35.4173,27.6850 L 37.0591,27.6850 L 37.0731,27.6709 L 37.1012,27.6569 L 37.1573,27.6007 L 37.1573,27.5866 L 37.1714,27.5585 L 37.1714,27.5445 L 37.1854,27.5304 L 37.1854,27.5023 L 37.1994,27.4742 L 37.1994,27.4320 L 37.1854,27.4180 L 37.1854,27.3618 L 37.1433,27.3196 L 37.1433,27.3055 L 37.1152,27.2774 L 37.1012,27.2774 L 37.0872,27.2634 L 37.0731,27.2634 L 37.0591,27.2493 L 37.0451,27.2493 Z" stroke="#A5A5A5" stroke-width="0.1198" stroke-linecap="round" stroke-linejoin="round" fill="#A5A5A5"/>
        <path d="M 38.2518,26.7294 L 37.7186,26.7294 L 37.7186,26.7153 L 37.6906,26.7153 L 37.6906,26.7013 L 37.6765,26.7013 L 37.6485,26.6731 L 37.6485,26.6591 L 37.6344,26.6591 L 37.6344,26.6310 L 37.6204,26.6310 L 37.6204,26.3921 L 37.6344,26.3921 L 37.6344,26.3640 L 37.6485,26.3640 L 37.6485,26.3499 L 37.6765,26.3218 L 37.6906,26.3218 L 37.6906,26.3078 L 37.7186,26.3078 L 37.7186,26.2937 L 40.1322,26.2937 L 40.1322,26.3078 L 40.1602,26.3078 L 40.1602,26.3218 L 40.1743,26.3218 L 40.2023,26.3499 L 40.2023,26.3640 L 40.2164,26.3640 L 40.2164,26.3921 L 40.2304,26.3921 L 40.2304,26.8137 L 40.2164,26.7996 L 40.2164,26.7856 L 40.2023,26.7856 L 40.2023,26.7715 L 40.1883,26.7715 L 40.1883,26.7575 L 40.1743,26.7575 L 40.1743,26.7434 L 40.1462,26.7434 L 40.1322,26.7294 L 38.8412,26.7294 L 38.8412,26.7434 L 38.8131,26.7434 L 38.8131,26.7575 L 38.7991,26.7575 L 38.7991,26.7715 L 38.7851,26.7715 L 38.7851,26.7996 L 38.7710,26.7996 L 38.7710,28.4579 L 38.7851,28.4720 L 38.7851,28.5001 L 38.7991,28.5001 L 38.7991,28.5141 L 38.8131,28.5141 L 38.8131,28.5282 L 38.8272,28.5282 L 38.8272,28.5422 L 38.3501,28.5422 L 38.3501,28.5282 L 38.3220,28.5282 L 38.3220,28.5141 L 38.3080,28.5141 L 38.2799,28.4860 L 38.2799,28.4720 L 38.2659,28.4720 L 38.2659,28.4439 L 38.2518,28.4439 L 38.2518,26.7856 L 38.2518,26.7294 Z" stroke="#A5A5A5" stroke-width="0.1198" stroke-linecap="round" stroke-linejoin="round" fill="#A5A5A5"/>
        <path d="M 37.2275,28.1066 L 37.2556,28.1066 L 37.2696,28.0925 L 37.2977,28.0925 L 37.2977,28.0785 L 37.3117,28.0785 L 37.3117,28.0644 L 37.3257,28.0644 L 37.3257,28.0504 L 37.3397,28.0504 L 37.3397,28.0363 L 37.3538,28.0223 L 37.3538,28.4439 L 37.3397,28.4439 L 37.3397,28.4720 L 37.3257,28.4720 L 37.3257,28.4860 L 37.2977,28.5141 L 37.2836,28.5141 L 37.2836,28.5282 L 37.2556,28.5282 L 37.2556,28.5422 L 34.8420,28.5422 L 34.8420,28.5282 L 34.8139,28.5282 L 34.8139,28.5141 L 34.7999,28.5141 L 34.7719,28.4860 L 34.7719,28.4720 L 34.7578,28.4720 L 34.7578,28.4439 L 34.7438,28.4439 L 34.7438,26.3921 L 34.7578,26.3921 L 34.7578,26.3640 L 34.7719,26.3640 L 34.7719,26.3499 L 34.7999,26.3218 L 34.8139,26.3218 L 34.8139,26.3078 L 34.8420,26.3078 L 34.8420,26.2937 L 37.2556,26.2937 L 37.2556,26.3078 L 37.2836,26.3078 L 37.2836,26.3218 L 37.2977,26.3218 L 37.3257,26.3499 L 37.3257,26.3640 L 37.3397,26.3640 L 37.3397,26.3921 L 37.3538,26.3921 L 37.3538,26.8137 L 37.3397,26.7996 L 37.3397,26.7856 L 37.3257,26.7856 L 37.3257,26.7715 L 37.3117,26.7715 L 37.3117,26.7575 L 37.2977,26.7575 L 37.2977,26.7434 L 37.2696,26.7434 L 37.2556,26.7294 L 35.3331,26.7294 L 35.3331,26.7434 L 35.3051,26.7434 L 35.3051,26.7575 L 35.2910,26.7575 L 35.2910,26.7715 L 35.2770,26.7715 L 35.2770,26.7996 L 35.2630,26.7996 L 35.2630,28.1066 L 37.1994,28.1066 L 37.2275,28.1066 Z" stroke="#A5A5A5" stroke-width="0.1198" stroke-linecap="round" stroke-linejoin="round" fill="#A5A5A5"/>
        <path d="M 23.1953,27.8817 L 23.1953,28.5422 L 24.0372,28.5422 L 24.0372,27.8817 L 23.1953,27.8817 Z" stroke="#A5A5A5" stroke-width="0.1198" stroke-linecap="round" stroke-linejoin="round" fill="#A5A5A5"/>
        <path d="M 22.3253,27.0947 L 23.0409,27.0947 L 23.0409,27.7412 L 22.3253,27.7412 L 22.3253,27.0947 Z" stroke="#A5A5A5" stroke-width="0.1198" stroke-linecap="round" stroke-linejoin="round" fill="#A5A5A5"/>
        <path d="M 24.2056,27.8958 L 24.2056,28.5563 L 24.4301,28.5563 L 24.4582,28.5422 L 24.5283,28.5422 L 24.5845,28.5141 L 24.6125,28.5141 L 24.6967,28.4720 L 24.7388,28.4298 L 24.7669,28.4158 L 24.7949,28.3595 L 24.8230,28.3314 L 24.8370,28.3033 L 24.8511,28.2612 L 24.8651,28.2331 L 24.9072,28.1066 L 24.9072,28.0644 L 24.9212,28.0082 L 24.9212,27.8958 L 24.2196,27.8958 L 24.2056,27.8958 Z" stroke="#A5A5A5" stroke-width="0.1198" stroke-linecap="round" stroke-linejoin="round" fill="#A5A5A5"/>
        <path d="M 24.2056,27.0947 L 24.9212,27.0947 L 24.9212,27.7412 L 24.2056,27.7412 L 24.2056,27.0947 Z" stroke="#A5A5A5" stroke-width="0.1198" stroke-linecap="round" stroke-linejoin="round" fill="#A5A5A5"/>
        <path d="M 23.0409,27.8958 L 23.0409,28.5563 L 22.8164,28.5563 L 22.7883,28.5422 L 22.7182,28.5422 L 22.6620,28.5141 L 22.6340,28.5141 L 22.5778,28.4860 L 22.5638,28.4720 L 22.5358,28.4579 L 22.5077,28.4298 L 22.4796,28.4158 L 22.4516,28.3595 L 22.4235,28.3314 L 22.4095,28.3033 L 22.3954,28.2612 L 22.3814,28.2331 L 22.3393,28.1066 L 22.3393,28.0644 L 22.3253,28.0082 L 22.3253,27.8958 L 23.0269,27.8958 L 23.0409,27.8958 Z" stroke="#A5A5A5" stroke-width="0.1198" stroke-linecap="round" stroke-linejoin="round" fill="#A5A5A5"/>
        <path d="M 23.1953,26.2797 L 23.1953,26.9402 L 24.0372,26.9402 L 24.0372,26.2797 L 23.1953,26.2797 Z" stroke="#A5A5A5" stroke-width="0.1198" stroke-linecap="round" stroke-linejoin="round" fill="#A5A5A5"/>
        <path d="M 24.2056,26.9402 L 24.2056,26.2797 L 24.4301,26.2797 L 24.4582,26.2937 L 24.5283,26.2937 L 24.5845,26.3218 L 24.6125,26.3218 L 24.6967,26.3640 L 24.7388,26.4061 L 24.7669,26.4202 L 24.7949,26.4764 L 24.8230,26.5045 L 24.8370,26.5326 L 24.8511,26.5748 L 24.8651,26.6029 L 24.9072,26.7294 L 24.9072,26.7715 L 24.9212,26.8277 L 24.9212,26.9402 L 24.2196,26.9402 L 24.2056,26.9402 Z" stroke="#A5A5A5" stroke-width="0.1198" stroke-linecap="round" stroke-linejoin="round" fill="#A5A5A5"/>
        <path d="M 23.0409,26.9402 L 23.0409,26.2797 L 22.8164,26.2797 L 22.7883,26.2937 L 22.7182,26.2937 L 22.6620,26.3218 L 22.6340,26.3218 L 22.5778,26.3499 L 22.5638,26.3640 L 22.5358,26.3780 L 22.5077,26.4061 L 22.4796,26.4202 L 22.4516,26.4764 L 22.4235,26.5045 L 22.4095,26.5326 L 22.3954,26.5748 L 22.3814,26.6029 L 22.3393,26.7294 L 22.3393,26.7715 L 22.3253,26.8277 L 22.3253,26.9402 L 23.0269,26.9402 L 23.0409,26.9402 Z" stroke="#A5A5A5" stroke-width="0.1198" stroke-linecap="round" stroke-linejoin="round" fill="#A5A5A5"/>
        <text font-family="Arial" fill="#A5A5A5" style="white-space:pre;" text-anchor="start" x="21.6798" y="32.9409" font-size="2.2171"><![CDATA[F]]></text>
        <text font-family="Arial" fill="#A5A5A5" style="white-space:pre;" text-anchor="start" x="23.0409" y="32.9409" font-size="2.2171"><![CDATA[o]]></text>
        <text font-family="Arial" fill="#A5A5A5" style="white-space:pre;" text-anchor="start" x="24.2757" y="32.9409" font-size="2.2171"><![CDATA[r]]></text>
        <text font-family="Arial" fill="#A5A5A5" style="white-space:pre;" text-anchor="start" x="25.0195" y="32.9409" font-size="2.2171"><![CDATA[t]]></text>
        <text font-family="Arial" fill="#A5A5A5" style="white-space:pre;" text-anchor="start" x="25.6369" y="32.9409" font-size="2.2171"><![CDATA[i]]></text>
        <text font-family="Arial" fill="#A5A5A5" style="white-space:pre;" text-anchor="start" x="26.1280" y="32.9409" font-size="2.2171"><![CDATA[A]]></text>
        <text font-family="Arial" fill="#A5A5A5" style="white-space:pre;" text-anchor="start" x="27.6014" y="32.9409" font-size="2.2171"><![CDATA[P]]></text>
        <text font-family="Arial" fill="#A5A5A5" style="white-space:pre;" text-anchor="start" x="29.0748" y="32.9409" font-size="2.2171"><![CDATA[ ]]></text>
        <text font-family="Arial" fill="#A5A5A5" style="white-space:pre;" text-anchor="start" x="29.6922" y="32.9409" font-size="2.2171"><![CDATA[U]]></text>
        <text font-family="Arial" fill="#A5A5A5" style="white-space:pre;" text-anchor="start" x="31.2919" y="32.9409" font-size="2.2171"><![CDATA[4]]></text>
        <text font-family="Arial" fill="#A5A5A5" style="white-space:pre;" text-anchor="start" x="32.5267" y="32.9409" font-size="2.2171"><![CDATA[2]]></text>
        <text font-family="Arial" fill="#A5A5A5" style="white-space:pre;" text-anchor="start" x="33.7615" y="32.9409" font-size="2.2171"><![CDATA[2]]></text>
        <text font-family="Arial" fill="#A5A5A5" style="white-space:pre;" text-anchor="start" x="34.9964" y="32.9409" font-size="2.2171"><![CDATA[E]]></text>
        <text font-family="Arial" fill="#A5A5A5" style="white-space:pre;" text-anchor="start" x="36.4698" y="32.9409" font-size="2.2171"><![CDATA[V]]></text>
        <text font-family="Symbol" fill="#A5A5A5" style="white-space:pre;" text-anchor="start" x="39.2762" y="28.5141" font-size="0.4911"><![CDATA[]]></text>
        <path d="M 11.7590,20.2227 L 11.7169,20.1805 L 11.7029,20.1805 L 11.7029,20.1665 L 11.6888,20.1665 L 11.6748,20.1524 L 11.6608,20.1524 L 11.6327,20.1243 L 11.6187,20.1243 L 11.6046,20.1103 L 11.5906,20.1103 L 11.5766,20.0962 L 11.5626,20.0962 L 11.5485,20.0822 L 11.5205,20.0822 L 11.5064,20.0681 L 11.4643,20.0681 L 11.4363,20.0540 L 11.2819,20.0540 L 11.2679,20.0681 L 11.2258,20.0681 L 11.2117,20.0822 L 11.1837,20.0822 L 11.1697,20.0962 L 11.1556,20.0962 L 11.1416,20.1103 L 11.1276,20.1103 L 11.1135,20.1243 L 11.0995,20.1243 L 11.0855,20.1384 L 11.0714,20.1384 L 11.0714,20.1524 L 11.0574,20.1665 L 11.0434,20.1665 L 11.0293,20.1805 L 11.0293,20.1946 L 11.0153,20.1946 L 11.0013,20.2086 L 11.0013,20.2227 L 10.9732,20.2508 L 10.9732,20.2648 " stroke="#A5A5A5" stroke-width="0.1198" stroke-linecap="round" stroke-linejoin="round" fill="none"/>
        <path d="M 11.6327,20.2930 L 11.6187,20.2789 L 11.6046,20.2789 L 11.6046,20.2648 L 11.5906,20.2648 L 11.5766,20.2508 L 11.5626,20.2508 L 11.5626,20.2367 L 11.5345,20.2367 L 11.5345,20.2227 L 11.5064,20.2227 L 11.4924,20.2086 L 11.4503,20.2086 L 11.4363,20.1946 L 11.2959,20.1946 L 11.2819,20.2086 L 11.2398,20.2086 L 11.2258,20.2227 L 11.1977,20.2227 L 11.1977,20.2367 L 11.1697,20.2367 L 11.1697,20.2508 L 11.1556,20.2508 L 11.1556,20.2648 L 11.1416,20.2648 L 11.1276,20.2789 L 11.1276,20.2930 L 11.1135,20.2930 L 11.1135,20.3070 L 11.0995,20.3211 L 11.0995,20.3351 " stroke="#A5A5A5" stroke-width="0.1198" stroke-linecap="round" stroke-linejoin="round" fill="none"/>
        <path d="M 11.5345,20.4054 L 11.5205,20.3913 L 11.5205,20.3773 L 11.5064,20.3773 L 11.5064,20.3632 L 11.4924,20.3632 L 11.4924,20.3492 L 11.4784,20.3492 L 11.4784,20.3351 L 11.4503,20.3351 L 11.4363,20.3211 L 11.2959,20.3211 L 11.2819,20.3351 L 11.2538,20.3351 L 11.2398,20.3492 L 11.2258,20.3492 L 11.2258,20.3632 L 11.2117,20.3773 L 11.2117,20.3913 L 11.1977,20.3913 L 11.1977,20.4054 " stroke="#A5A5A5" stroke-width="0.1198" stroke-linecap="round" stroke-linejoin="round" fill="none"/>
        <path d="M 12.7834,24.6776 L 12.7413,24.6354 L 12.7272,24.6354 L 12.7272,24.6214 L 12.7132,24.6214 L 12.6992,24.6073 L 12.6851,24.6073 L 12.6571,24.5792 L 12.6430,24.5792 L 12.6290,24.5652 L 12.6150,24.5652 L 12.6009,24.5511 L 12.5869,24.5511 L 12.5729,24.5370 L 12.5448,24.5370 L 12.5308,24.5230 L 12.4887,24.5230 L 12.4606,24.5089 L 12.3063,24.5089 L 12.2922,24.5230 L 12.2501,24.5230 L 12.2361,24.5370 L 12.2080,24.5370 L 12.1940,24.5511 L 12.1800,24.5511 L 12.1659,24.5652 L 12.1519,24.5652 L 12.1379,24.5792 L 12.1238,24.5792 L 12.1098,24.5933 L 12.0958,24.5933 L 12.0958,24.6073 L 12.0817,24.6214 L 12.0677,24.6214 L 12.0537,24.6354 L 12.0537,24.6495 L 12.0396,24.6495 L 12.0256,24.6635 L 12.0256,24.6776 L 11.9976,24.7057 L 11.9976,24.7197 " stroke="#A5A5A5" stroke-width="0.1198" stroke-linecap="round" stroke-linejoin="round" fill="none"/>
        <path d="M 12.6571,24.7478 L 12.6430,24.7338 L 12.6290,24.7338 L 12.6290,24.7197 L 12.6150,24.7197 L 12.6009,24.7057 L 12.5869,24.7057 L 12.5869,24.6916 L 12.5588,24.6916 L 12.5588,24.6776 L 12.5308,24.6776 L 12.5167,24.6635 L 12.4746,24.6635 L 12.4606,24.6495 L 12.3203,24.6495 L 12.3063,24.6635 L 12.2642,24.6635 L 12.2501,24.6776 L 12.2221,24.6776 L 12.2221,24.6916 L 12.1940,24.6916 L 12.1940,24.7057 L 12.1800,24.7057 L 12.1800,24.7197 L 12.1659,24.7197 L 12.1519,24.7338 L 12.1519,24.7478 L 12.1379,24.7478 L 12.1379,24.7619 L 12.1238,24.7760 L 12.1238,24.7900 " stroke="#A5A5A5" stroke-width="0.1198" stroke-linecap="round" stroke-linejoin="round" fill="none"/>
        <path d="M 12.5588,24.8603 L 12.5448,24.8462 L 12.5448,24.8322 L 12.5308,24.8322 L 12.5308,24.8181 L 12.5167,24.8181 L 12.5167,24.8041 L 12.5027,24.8041 L 12.5027,24.7900 L 12.4746,24.7900 L 12.4606,24.7760 L 12.3203,24.7760 L 12.3063,24.7900 L 12.2782,24.7900 L 12.2642,24.8041 L 12.2501,24.8041 L 12.2501,24.8181 L 12.2361,24.8322 L 12.2361,24.8462 L 12.2221,24.8462 L 12.2221,24.8603 " stroke="#A5A5A5" stroke-width="0.1198" stroke-linecap="round" stroke-linejoin="round" fill="none"/>
        <text font-family="Arial" fill="#000000" style="white-space:pre;" font-weight="400" text-anchor="start" x="4.1816" y="1.8447" font-size="0.3789"><![CDATA[A1]]></text>
        <text font-family="Arial" fill="#000000" style="white-space:pre;" font-weight="400" text-anchor="start" x="4.1816" y="2.3225" font-size="0.3789"><![CDATA[2.4G]]></text>
        <text font-family="Arial" fill="#000000" style="white-space:pre;" font-weight="400" text-anchor="start" x="10.6645" y="2.3225" font-size="0.3789"><![CDATA[2.4G]]></text>
        <text font-family="Arial" fill="#000000" style="white-space:pre;" font-weight="400" text-anchor="start" x="10.6645" y="1.8447" font-size="0.3789"><![CDATA[A3]]></text>
        <text font-family="Arial" fill="#000000" style="white-space:pre;" font-weight="400" text-anchor="start" x="13.6393" y="2.3225" font-size="0.3789"><![CDATA[5.0G]]></text>
        <text font-family="Arial" fill="#000000" style="white-space:pre;" font-weight="400" text-anchor="start" x="13.6393" y="1.8447" font-size="0.3789"><![CDATA[A4]]></text>
        <text font-family="Arial" fill="#000000" style="white-space:pre;" font-weight="400" text-anchor="start" x="7.5213" y="2.3225" font-size="0.3789"><![CDATA[5.0G]]></text>
        <text font-family="Arial" fill="#000000" style="white-space:pre;" font-weight="400" text-anchor="start" x="7.5213" y="1.8447" font-size="0.3789"><![CDATA[A2]]></text>
        <text font-family="Arial" fill="#000000" style="white-space:pre;" font-weight="400" text-anchor="start" x="4.1816" y="14.7316" font-size="0.3789"><![CDATA[A8]]></text>
        <text font-family="Arial" fill="#000000" style="white-space:pre;" font-weight="400" text-anchor="start" x="4.1816" y="15.2094" font-size="0.3789"><![CDATA[5.0G]]></text>
        <text font-family="Arial" fill="#000000" style="white-space:pre;" font-weight="400" text-anchor="start" x="10.6645" y="15.2094" font-size="0.3789"><![CDATA[5.0G]]></text>
        <text font-family="Arial" fill="#000000" style="white-space:pre;" font-weight="400" text-anchor="start" x="10.6645" y="14.7316" font-size="0.3789"><![CDATA[A6]]></text>
        <text font-family="Arial" fill="#000000" style="white-space:pre;" font-weight="400" text-anchor="start" x="13.6393" y="15.2094" font-size="0.3789"><![CDATA[5.0G]]></text>
        <text font-family="Arial" fill="#000000" style="white-space:pre;" font-weight="400" text-anchor="start" x="13.6393" y="14.7316" font-size="0.3789"><![CDATA[A5]]></text>
        <text font-family="Arial" fill="#000000" style="white-space:pre;" font-weight="400" text-anchor="start" x="7.5213" y="15.2094" font-size="0.3789"><![CDATA[2.4G]]></text>
        <text font-family="Arial" fill="#000000" style="white-space:pre;" font-weight="400" text-anchor="start" x="7.5213" y="14.7316" font-size="0.3789"><![CDATA[A7]]></text>
        <path d="M 11.1640,0.0547 L 10.9515,0.0547 L 10.9515,0.2675 L 11.1640,0.2675 L 11.1640,0.0547 Z" stroke="#000000" stroke-width="0.1198" stroke-linecap="round" stroke-linejoin="round" fill="none"/>
        <path d="M 23.7970,0.0547 L 23.5845,0.0547 L 23.5845,0.2675 L 23.7970,0.2675 L 23.7970,0.0547 Z" stroke="#000000" stroke-width="0.1198" stroke-linecap="round" stroke-linejoin="round" fill="none"/>
        <path d="M 36.3754,0.0547 L 36.1630,0.0547 L 36.1630,0.2675 L 36.3754,0.2675 L 36.3754,0.0547 Z" stroke="#000000" stroke-width="0.1198" stroke-linecap="round" stroke-linejoin="round" fill="none"/>
        <path d="M 49.0085,0.0547 L 48.7960,0.0547 L 48.7960,0.2675 L 49.0085,0.2675 L 49.0085,0.0547 Z" stroke="#000000" stroke-width="0.1198" stroke-linecap="round" stroke-linejoin="round" fill="none"/>
        <path d="M 49.0085,59.5030 L 48.7960,59.5030 L 48.7960,59.7158 L 49.0085,59.7158 L 49.0085,59.5030 Z" stroke="#000000" stroke-width="0.1198" stroke-linecap="round" stroke-linejoin="round" fill="none"/>
        <path d="M 36.3754,59.5030 L 36.1630,59.5030 L 36.1630,59.7158 L 36.3754,59.7158 L 36.3754,59.5030 Z" stroke="#000000" stroke-width="0.1198" stroke-linecap="round" stroke-linejoin="round" fill="none"/>
        <path d="M 23.7970,59.5030 L 23.5845,59.5030 L 23.5845,59.7158 L 23.7970,59.7158 L 23.7970,59.5030 Z" stroke="#000000" stroke-width="0.1198" stroke-linecap="round" stroke-linejoin="round" fill="none"/>
        <path d="M 11.1640,59.5030 L 10.9515,59.5030 L 10.9515,59.7158 L 11.1640,59.7158 L 11.1640,59.5030 Z" stroke="#000000" stroke-width="0.1198" stroke-linecap="round" stroke-linejoin="round" fill="none"/>
        <path d="M 60.0146,18.5008 L 59.8022,18.5008 L 59.8022,18.7136 L 60.0146,18.7136 L 60.0146,18.5008 Z" stroke="#000000" stroke-width="0.1198" stroke-linecap="round" stroke-linejoin="round" fill="none"/>
        <path d="M 60.1239,29.6405 L 59.8052,29.6405 L 59.8052,29.9598 L 60.1239,29.9598 L 60.1239,29.6405 Z" stroke="#000000" stroke-width="0.1198" stroke-linecap="round" stroke-linejoin="round" fill="none"/>
        <path d="M 60.0146,40.9414 L 59.8022,40.9414 L 59.8022,41.1542 L 60.0146,41.1542 L 60.0146,40.9414 Z" stroke="#000000" stroke-width="0.1198" stroke-linecap="round" stroke-linejoin="round" fill="none"/>
      </g>
      <!--emf-blob end-->
    </g>
  </g>
</svg>
