<svg xmlns="http://www.w3.org/2000/svg" xmlns:xlink="http://www.w3.org/1999/xlink" version="1.1" width="5.4468000000" height="5.2944000000" viewBox="0 0 98.0456 95.2988">
  <title><![CDATA[FAP-U431/433F]]></title>
  <g transform=" scale(4.000000) ">
    <!--converted by libvisio2svg-->
    <g transform=" translate(18.536200,0.720000) ">
      <!--emf-blob start-->
      <g transform="translate(-0.0000, -0.0000)">
        <path d="M 60.7973,13.9432 L 60.7833,13.2263 L 60.7272,12.5235 L 60.6430,11.8208 L 60.5167,11.1320 L 60.3624,10.4714 L 60.1801,9.8108 L 59.9556,9.1643 L 59.7031,8.5318 L 59.4226,7.9133 L 59.1280,7.3089 L 58.7913,6.7326 L 58.4266,6.1564 L 58.0338,5.6222 L 57.6270,5.0881 L 57.1921,4.5821 L 56.7292,4.1042 L 56.2522,3.6404 L 55.7472,3.2047 L 55.2142,2.7971 L 54.6811,2.4035 L 54.1059,2.0381 L 53.5308,1.7007 L 52.9276,1.4056 L 52.3104,1.1244 L 51.6791,0.8714 L 51.0338,0.6466 L 50.3745,0.4638 L 49.7152,0.3092 L 49.0278,0.1827 L 48.3264,0.0984 L 47.6250,0.0422 L 46.9096,0.0281 L 13.9158,0.0281 L 13.2003,0.0422 L 12.4989,0.0984 L 11.7975,0.1827 L 11.1102,0.3092 L 10.4509,0.4638 L 9.7915,0.6466 L 9.1462,0.8714 L 8.5150,1.1244 L 7.8978,1.4056 L 7.2946,1.7007 L 6.7194,2.0381 L 6.1443,2.4035 L 5.6112,2.7971 L 5.0781,3.2047 L 4.5731,3.6404 L 4.0962,4.1042 L 3.6332,4.5821 L 3.1984,5.0881 L 2.7916,5.6222 L 2.3988,6.1564 L 2.0341,6.7326 L 1.6974,7.3089 L 1.4028,7.9133 L 1.1222,8.5318 L 0.8697,9.1643 L 0.6453,9.8108 L 0.4629,10.4714 L 0.3086,11.1320 L 0.1824,11.8208 L 0.0982,12.5235 L 0.0421,13.2263 L 0.0281,13.9432 L 0.0281,47.0019 L 0.0421,47.7188 L 0.0982,48.4215 L 0.1824,49.1243 L 0.3086,49.8131 L 0.4629,50.4737 L 0.6453,51.1343 L 0.8697,51.7808 L 1.1222,52.4133 L 1.4028,53.0318 L 1.6974,53.6362 L 2.0341,54.2125 L 2.3988,54.7887 L 2.7916,55.3228 L 3.1984,55.8570 L 3.6332,56.3630 L 4.0962,56.8409 L 4.5731,57.3047 L 5.0781,57.7404 L 5.6112,58.1480 L 6.1443,58.5416 L 6.7194,58.9070 L 7.2946,59.2444 L 7.8978,59.5395 L 8.5150,59.8206 L 9.1462,60.0736 L 9.7915,60.2985 L 10.4509,60.4813 L 11.1102,60.6359 L 11.7975,60.7624 L 12.4989,60.8467 L 13.2003,60.9029 L 13.9158,60.9170 L 46.9096,60.9170 L 47.6250,60.9029 L 48.3264,60.8467 L 49.0278,60.7624 L 49.7152,60.6359 L 50.3745,60.4813 L 51.0338,60.2985 L 51.6791,60.0736 L 52.3104,59.8206 L 52.9276,59.5395 L 53.5308,59.2444 L 54.1059,58.9070 L 54.6811,58.5416 L 55.2142,58.1480 L 55.7472,57.7404 L 56.2522,57.3047 L 56.7292,56.8409 L 57.1921,56.3630 L 57.6270,55.8570 L 58.0338,55.3228 L 58.4266,54.7887 L 58.7913,54.2125 L 59.1280,53.6362 L 59.4226,53.0318 L 59.7031,52.4133 L 59.9556,51.7808 L 60.1801,51.1343 L 60.3624,50.4737 L 60.5167,49.8131 L 60.6430,49.1243 L 60.7272,48.4215 L 60.7833,47.7188 L 60.7973,47.0019 L 60.7973,13.9432 Z" stroke="#000000" stroke-width="0.1198" stroke-linecap="round" stroke-linejoin="round" fill="#DDDDDD"/>
        <path d="M 59.8995,14.4351 L 59.8855,13.7464 L 59.8294,13.0577 L 59.7452,12.3830 L 59.6189,11.7224 L 59.4787,11.0618 L 59.2963,10.4293 L 59.0859,9.7968 L 58.8474,9.1783 L 58.5668,8.5880 L 58.2723,7.9976 L 57.9496,7.4354 L 57.5989,6.8872 L 57.2202,6.3672 L 56.8274,5.8471 L 56.4065,5.3692 L 55.9576,4.8913 L 55.4807,4.4416 L 55.0037,4.0199 L 54.4847,3.6263 L 53.9657,3.2468 L 53.4186,2.8955 L 52.8575,2.5722 L 52.2683,2.2770 L 51.6791,1.9959 L 51.0619,1.7570 L 50.4306,1.5461 L 49.7994,1.3634 L 49.1400,1.2228 L 48.4807,1.0963 L 47.8074,1.0120 L 47.1200,0.9558 L 46.4326,0.9417 L 14.4067,0.9417 L 13.7194,0.9558 L 13.0320,1.0120 L 12.3587,1.0963 L 11.6993,1.2228 L 11.0400,1.3634 L 10.4088,1.5461 L 9.7775,1.7570 L 9.1603,1.9959 L 8.5711,2.2770 L 7.9819,2.5722 L 7.4208,2.8955 L 6.8737,3.2468 L 6.3547,3.6263 L 5.8356,4.0199 L 5.3587,4.4416 L 4.8817,4.8913 L 4.4328,5.3692 L 4.0120,5.8471 L 3.6192,6.3672 L 3.2405,6.8872 L 2.8898,7.4354 L 2.5671,7.9976 L 2.2725,8.5880 L 1.9920,9.1783 L 1.7535,9.7968 L 1.5431,10.4293 L 1.3607,11.0618 L 1.2204,11.7224 L 1.0942,12.3830 L 1.0100,13.0577 L 0.9539,13.7464 L 0.9399,14.4351 L 0.9399,46.5240 L 0.9539,47.2128 L 1.0100,47.9015 L 1.0942,48.5762 L 1.2204,49.2368 L 1.3607,49.8974 L 1.5431,50.5299 L 1.7535,51.1624 L 1.9920,51.7808 L 2.2725,52.3712 L 2.5671,52.9615 L 2.8898,53.5237 L 3.2405,54.0719 L 3.6192,54.5920 L 4.0120,55.1120 L 4.4328,55.5899 L 4.8817,56.0678 L 5.3587,56.5176 L 5.8356,56.9392 L 6.3547,57.3328 L 6.8737,57.7123 L 7.4208,58.0637 L 7.9819,58.3870 L 8.5711,58.6821 L 9.1603,58.9632 L 9.7775,59.2022 L 10.4088,59.4130 L 11.0400,59.5958 L 11.6993,59.7363 L 12.3587,59.8628 L 13.0320,59.9471 L 13.7194,60.0034 L 14.4067,60.0174 L 46.4326,60.0174 L 47.1200,60.0034 L 47.8074,59.9471 L 48.4807,59.8628 L 49.1400,59.7363 L 49.7994,59.5958 L 50.4306,59.4130 L 51.0619,59.2022 L 51.6791,58.9632 L 52.2683,58.6821 L 52.8575,58.3870 L 53.4186,58.0637 L 53.9657,57.7123 L 54.4847,57.3328 L 55.0037,56.9392 L 55.4807,56.5176 L 55.9576,56.0678 L 56.4065,55.5899 L 56.8274,55.1120 L 57.2202,54.5920 L 57.5989,54.0719 L 57.9496,53.5237 L 58.2723,52.9615 L 58.5668,52.3712 L 58.8474,51.7808 L 59.0859,51.1624 L 59.2963,50.5299 L 59.4787,49.8974 L 59.6189,49.2368 L 59.7452,48.5762 L 59.8294,47.9015 L 59.8855,47.2128 L 59.8995,46.5240 L 59.8995,14.4351 Z" stroke="#EAEAEA" stroke-width="0.1198" stroke-linecap="round" stroke-linejoin="round" fill="#EAEAEA"/>
        <path d="M 58.4266,15.2363 L 58.4125,14.5757 L 58.3564,13.9291 L 58.2723,13.2825 L 58.1600,12.6500 L 58.0198,12.0316 L 57.8514,11.4272 L 57.6550,10.8228 L 57.4166,10.2465 L 57.1640,9.6703 L 56.8835,9.1221 L 56.5749,8.5880 L 56.2382,8.0679 L 55.8875,7.5619 L 55.5087,7.0840 L 55.1019,6.6202 L 54.6811,6.1704 L 54.2322,5.7487 L 53.7693,5.3411 L 53.2923,4.9616 L 52.7873,4.6102 L 52.2683,4.2729 L 51.7352,3.9637 L 51.1881,3.6826 L 50.6130,3.4296 L 50.0378,3.1906 L 49.4346,2.9938 L 48.8314,2.8252 L 48.2142,2.6846 L 47.5829,2.5722 L 46.9376,2.4878 L 46.2924,2.4316 L 45.6330,2.4176 L 15.2063,2.4176 L 14.5470,2.4316 L 13.9017,2.4878 L 13.2564,2.5722 L 12.6252,2.6846 L 12.0080,2.8252 L 11.4048,2.9938 L 10.8016,3.1906 L 10.2264,3.4296 L 9.6513,3.6826 L 9.1042,3.9637 L 8.5711,4.2729 L 8.0521,4.6102 L 7.5471,4.9616 L 7.0701,5.3411 L 6.6072,5.7487 L 6.1583,6.1704 L 5.7374,6.6202 L 5.3306,7.0840 L 4.9519,7.5619 L 4.6012,8.0679 L 4.2645,8.5880 L 3.9559,9.1221 L 3.6753,9.6703 L 3.4228,10.2465 L 3.1844,10.8228 L 2.9880,11.4272 L 2.8196,12.0316 L 2.6793,12.6500 L 2.5671,13.2825 L 2.4830,13.9291 L 2.4268,14.5757 L 2.4128,15.2363 L 2.4128,45.7229 L 2.4268,46.3835 L 2.4830,47.0300 L 2.5671,47.6766 L 2.6793,48.3091 L 2.8196,48.9275 L 2.9880,49.5319 L 3.1844,50.1363 L 3.4228,50.7126 L 3.6753,51.2889 L 3.9559,51.8371 L 4.2645,52.3712 L 4.6012,52.8912 L 4.9519,53.3972 L 5.3306,53.8751 L 5.7374,54.3390 L 6.1583,54.7887 L 6.6072,55.2104 L 7.0701,55.6180 L 7.5471,55.9975 L 8.0521,56.3489 L 8.5711,56.6862 L 9.1042,56.9955 L 9.6513,57.2766 L 10.2264,57.5296 L 10.8016,57.7685 L 11.4048,57.9653 L 12.0080,58.1340 L 12.6252,58.2745 L 13.2564,58.3870 L 13.9017,58.4713 L 14.5470,58.5275 L 15.2063,58.5416 L 45.6330,58.5416 L 46.2924,58.5275 L 46.9376,58.4713 L 47.5829,58.3870 L 48.2142,58.2745 L 48.8314,58.1340 L 49.4346,57.9653 L 50.0378,57.7685 L 50.6130,57.5296 L 51.1881,57.2766 L 51.7352,56.9955 L 52.2683,56.6862 L 52.7873,56.3489 L 53.2923,55.9975 L 53.7693,55.6180 L 54.2322,55.2104 L 54.6811,54.7887 L 55.1019,54.3390 L 55.5087,53.8751 L 55.8875,53.3972 L 56.2382,52.8912 L 56.5749,52.3712 L 56.8835,51.8371 L 57.1640,51.2889 L 57.4166,50.7126 L 57.6550,50.1363 L 57.8514,49.5319 L 58.0198,48.9275 L 58.1600,48.3091 L 58.2723,47.6766 L 58.3564,47.0300 L 58.4125,46.3835 L 58.4266,45.7229 L 58.4266,15.2363 Z" stroke="#EFEFEF" stroke-width="0.1198" stroke-linecap="round" stroke-linejoin="round" fill="#EFEFEF"/>
        <path d="M 55.2142,16.9792 L 55.2001,16.3888 L 55.1580,15.8126 L 55.0879,15.2503 L 54.9897,14.6881 L 54.8635,14.1399 L 54.7092,13.6058 L 54.5268,13.0717 L 54.3304,12.5657 L 54.0919,12.0597 L 53.8534,11.5678 L 53.5729,11.0899 L 53.2783,10.6401 L 52.9697,10.1903 L 52.6330,9.7686 L 52.2683,9.3470 L 51.9036,8.9534 L 51.5108,8.5880 L 51.0899,8.2225 L 50.6691,7.8852 L 50.2202,7.5760 L 49.7713,7.2808 L 49.2943,6.9997 L 48.8034,6.7607 L 48.2984,6.5218 L 47.7934,6.3250 L 47.2603,6.1423 L 46.7272,5.9877 L 46.1801,5.8612 L 45.6190,5.7628 L 45.0579,5.6925 L 44.4827,5.6504 L 43.8936,5.6363 L 16.9458,5.6363 L 16.3566,5.6504 L 15.7815,5.6925 L 15.2204,5.7628 L 14.6592,5.8612 L 14.1122,5.9877 L 13.5791,6.1423 L 13.0460,6.3250 L 12.5410,6.5218 L 12.0360,6.7607 L 11.5450,6.9997 L 11.0681,7.2808 L 10.6192,7.5760 L 10.1703,7.8852 L 9.7495,8.2225 L 9.3286,8.5880 L 8.9358,8.9534 L 8.5711,9.3470 L 8.2064,9.7686 L 7.8697,10.1903 L 7.5611,10.6401 L 7.2665,11.0899 L 6.9859,11.5678 L 6.7475,12.0597 L 6.5090,12.5657 L 6.3126,13.0717 L 6.1302,13.6058 L 5.9759,14.1399 L 5.8497,14.6881 L 5.7515,15.2503 L 5.6813,15.8126 L 5.6393,16.3888 L 5.6252,16.9792 L 5.6252,43.9800 L 5.6393,44.5703 L 5.6813,45.1466 L 5.7515,45.7088 L 5.8497,46.2710 L 5.9759,46.8192 L 6.1302,47.3533 L 6.3126,47.8874 L 6.5090,48.3934 L 6.7475,48.8994 L 6.9859,49.3914 L 7.2665,49.8693 L 7.5611,50.3191 L 7.8697,50.7688 L 8.2064,51.1905 L 8.5711,51.6122 L 8.9358,52.0057 L 9.3286,52.3712 L 9.7495,52.7366 L 10.1703,53.0740 L 10.6192,53.3832 L 11.0681,53.6783 L 11.5450,53.9595 L 12.0360,54.1984 L 12.5410,54.4373 L 13.0460,54.6341 L 13.5791,54.8168 L 14.1122,54.9715 L 14.6592,55.0980 L 15.2204,55.1963 L 15.7815,55.2666 L 16.3566,55.3088 L 16.9458,55.3228 L 43.8936,55.3228 L 44.4827,55.3088 L 45.0579,55.2666 L 45.6190,55.1963 L 46.1801,55.0980 L 46.7272,54.9715 L 47.2603,54.8168 L 47.7934,54.6341 L 48.2984,54.4373 L 48.8034,54.1984 L 49.2943,53.9595 L 49.7713,53.6783 L 50.2202,53.3832 L 50.6691,53.0740 L 51.0899,52.7366 L 51.5108,52.3712 L 51.9036,52.0057 L 52.2683,51.6122 L 52.6330,51.1905 L 52.9697,50.7688 L 53.2783,50.3191 L 53.5729,49.8693 L 53.8534,49.3914 L 54.0919,48.8994 L 54.3304,48.3934 L 54.5268,47.8874 L 54.7092,47.3533 L 54.8635,46.8192 L 54.9897,46.2710 L 55.0879,45.7088 L 55.1580,45.1466 L 55.2001,44.5703 L 55.2142,43.9800 L 55.2142,16.9792 Z" stroke="#F7F7F7" stroke-width="0.1198" stroke-linecap="round" stroke-linejoin="round" fill="#F7F7F7"/>
        <path d="M 22.2344,29.6152 L 22.2063,29.6152 L 22.2063,29.6011 L 22.1923,29.6011 L 22.1923,29.5870 L 22.1782,29.5870 L 22.1782,29.5730 L 22.1642,29.5589 L 22.1642,29.5308 L 22.1502,29.5308 L 22.1502,27.9004 L 22.1642,27.9004 L 22.1642,27.8723 L 22.1782,27.8582 L 22.1782,27.8441 L 22.1923,27.8441 L 22.1923,27.8301 L 22.2063,27.8301 L 22.2063,27.8160 L 24.1422,27.8160 L 24.1422,27.8301 L 24.1562,27.8301 L 24.1562,27.8441 L 24.1702,27.8441 L 24.1702,27.8582 L 24.1843,27.8723 L 24.1843,27.9004 L 24.1983,27.9004 L 24.1983,28.2236 L 24.1843,28.2236 L 24.1843,28.1955 L 24.1562,28.1674 L 24.1422,28.1674 L 24.1422,28.1534 L 22.5991,28.1534 L 22.5991,28.1674 L 22.5851,28.1674 L 22.5851,28.1815 L 22.5710,28.1815 L 22.5710,28.2096 L 22.5570,28.2096 L 22.5570,29.5449 L 22.5710,29.5449 L 22.5710,29.5730 L 22.5851,29.5870 L 22.5851,29.6011 L 22.5991,29.6011 L 22.5991,29.6152 L 22.2484,29.6152 L 22.2344,29.6152 Z" stroke="#000000" stroke-width="0.1198" stroke-linecap="round" stroke-linejoin="round" fill="#000000"/>
        <path d="M 24.0580,28.5891 L 22.6833,28.5891 L 22.6833,28.5750 L 22.6552,28.5750 L 22.6552,28.5610 L 22.6412,28.5610 L 22.6412,28.5469 L 22.6271,28.5329 L 22.6271,28.5188 L 22.6131,28.5048 L 22.6131,28.8702 L 22.6271,28.8702 L 22.6271,28.8843 L 22.6412,28.8983 L 22.6552,28.8983 L 22.6552,28.9124 L 22.6692,28.9124 L 22.6833,28.9264 L 24.1001,28.9264 L 24.1843,28.8421 L 24.1843,28.8280 L 24.1983,28.8140 L 24.1983,28.7015 L 24.1843,28.6875 L 24.1843,28.6734 L 24.1562,28.6453 L 24.1562,28.6313 L 24.1422,28.6313 L 24.1141,28.6031 L 24.0861,28.6031 L 24.0720,28.5891 L 24.0580,28.5891 Z" stroke="#000000" stroke-width="0.1198" stroke-linecap="round" stroke-linejoin="round" fill="#000000"/>
        <path d="M 27.2844,28.9405 L 27.2704,28.9405 L 27.2704,28.9264 L 27.2564,28.9264 L 27.2424,28.9124 L 27.2424,28.8983 L 27.2283,28.8983 L 27.2283,28.8702 L 27.2143,28.8702 L 27.2143,28.5188 L 27.2283,28.5188 L 27.2283,28.5329 L 27.2424,28.5329 L 27.2424,28.5469 L 27.2564,28.5469 L 27.2564,28.5610 L 28.3786,28.5610 L 28.3786,28.1534 L 27.1862,28.1534 L 27.1862,28.1674 L 27.1722,28.1674 L 27.1722,28.1815 L 27.1582,28.1815 L 27.1582,28.1955 L 27.1442,28.1955 L 27.1442,28.2236 L 27.1301,28.2236 L 27.1301,29.5308 L 27.1442,29.5449 L 27.1442,29.5589 L 27.1582,29.5730 L 27.1582,29.5870 L 27.1722,29.5870 L 27.1722,29.6011 L 27.1862,29.6011 L 27.1862,29.6152 L 26.8075,29.6152 L 26.8075,29.6011 L 26.7935,29.6011 L 26.7373,29.5449 L 26.7373,29.5308 L 26.7233,29.5168 L 26.7233,27.9144 L 26.7373,27.9004 L 26.7373,27.8863 L 26.7935,27.8301 L 26.8075,27.8301 L 26.8075,27.8160 L 28.7153,27.8160 L 28.7153,27.8301 L 28.7293,27.8301 L 28.7433,27.8441 L 28.7574,27.8441 L 28.7574,27.8723 L 28.7714,27.8723 L 28.7714,27.9004 L 28.7854,27.9004 L 28.7854,28.8140 L 28.7714,28.8140 L 28.7714,28.8421 L 28.7574,28.8421 L 28.7574,28.8702 L 28.7433,28.8702 L 28.7433,28.8843 L 28.7293,28.8843 L 28.7293,28.8983 L 28.7153,28.8983 L 28.7153,28.9124 L 28.7013,28.9124 L 28.7013,28.9264 L 28.6872,28.9405 L 28.7013,28.9405 L 28.7013,28.9545 L 28.7153,28.9545 L 28.7153,28.9686 L 28.7293,28.9686 L 28.7293,28.9827 L 28.7433,28.9827 L 28.7433,28.9967 L 28.7574,28.9967 L 28.7574,29.0108 L 28.7714,29.0248 L 28.7714,29.0389 L 28.7854,29.0529 L 28.7854,29.5449 L 28.7995,29.5449 L 28.7995,29.5730 L 28.8135,29.5730 L 28.8135,29.6011 L 28.8275,29.6011 L 28.8275,29.6152 L 28.4628,29.6152 L 28.4628,29.6011 L 28.4488,29.6011 L 28.3926,29.5449 L 28.3926,29.5308 L 28.3786,29.5168 L 28.3786,28.9405 L 27.2985,28.9405 L 27.2844,28.9405 Z" stroke="#000000" stroke-width="0.1198" stroke-linecap="round" stroke-linejoin="round" fill="#000000"/>
        <path d="M 29.5149,28.1534 L 29.0800,28.1534 L 29.0660,28.1393 L 29.0520,28.1393 L 29.0520,28.1253 L 29.0379,28.1253 L 29.0379,28.0971 L 29.0239,28.0971 L 29.0239,27.9004 L 29.0379,27.9004 L 29.0379,27.8723 L 29.0520,27.8582 L 29.0520,27.8441 L 29.0660,27.8441 L 29.0660,27.8301 L 29.0800,27.8301 L 29.0800,27.8160 L 31.0159,27.8160 L 31.0159,27.8301 L 31.0299,27.8301 L 31.0299,27.8441 L 31.0439,27.8441 L 31.0439,27.8582 L 31.0580,27.8723 L 31.0580,27.9004 L 31.0720,27.9004 L 31.0720,28.2236 L 31.0580,28.2236 L 31.0580,28.1955 L 31.0299,28.1674 L 31.0159,28.1674 L 31.0159,28.1534 L 29.9778,28.1534 L 29.9778,28.1674 L 29.9638,28.1674 L 29.9638,28.1815 L 29.9498,28.1815 L 29.9498,28.2096 L 29.9357,28.2096 L 29.9357,29.5589 L 29.9498,29.5589 L 29.9498,29.6011 L 29.9638,29.6011 L 29.9638,29.6152 L 29.5850,29.6152 L 29.5850,29.6011 L 29.5710,29.6011 L 29.5710,29.5870 L 29.5570,29.5870 L 29.5429,29.5730 L 29.5429,29.5589 L 29.5289,29.5589 L 29.5289,29.5308 L 29.5149,29.5308 L 29.5149,28.1955 L 29.5149,28.1534 Z" stroke="#000000" stroke-width="0.1198" stroke-linecap="round" stroke-linejoin="round" fill="#000000"/>
        <path d="M 31.7313,29.5027 L 31.7313,29.5730 L 31.7453,29.5870 L 31.7453,29.6011 L 31.7594,29.6152 L 31.3806,29.6152 L 31.3806,29.6011 L 31.3666,29.6011 L 31.3666,29.5870 L 31.3526,29.5870 L 31.3385,29.5730 L 31.3385,29.5589 L 31.3245,29.5589 L 31.3245,29.5308 L 31.3105,29.5308 L 31.3105,27.8863 L 31.2964,27.8863 L 31.2964,27.8582 L 31.2824,27.8582 L 31.2824,27.8301 L 31.2684,27.8301 L 31.2684,27.8160 L 31.6331,27.8160 L 31.6471,27.8301 L 31.6612,27.8301 L 31.6612,27.8441 L 31.6752,27.8441 L 31.7033,27.8723 L 31.7033,27.8863 L 31.7173,27.8863 L 31.7173,27.9004 L 31.7313,27.9144 L 31.7313,29.4887 L 31.7313,29.5027 Z" stroke="#000000" stroke-width="0.1198" stroke-linecap="round" stroke-linejoin="round" fill="#000000"/>
        <path d="M 33.6812,28.1534 L 32.4888,28.1534 L 32.4888,28.1674 L 32.4748,28.1674 L 32.4748,28.1815 L 32.4608,28.1815 L 32.4608,28.1955 L 32.4467,28.1955 L 32.4467,28.2236 L 32.4327,28.2236 L 32.4327,29.5308 L 32.4467,29.5449 L 32.4467,29.5589 L 32.4608,29.5730 L 32.4608,29.5870 L 32.4748,29.5870 L 32.4748,29.6011 L 32.4888,29.6011 L 32.4888,29.6152 L 32.1101,29.6152 L 32.1101,29.6011 L 32.0960,29.6011 L 32.0399,29.5449 L 32.0399,29.5308 L 32.0259,29.5168 L 32.0259,27.9144 L 32.0399,27.9004 L 32.0399,27.8863 L 32.0960,27.8301 L 32.1101,27.8301 L 32.1101,27.8160 L 34.0179,27.8160 L 34.0179,27.8301 L 34.0319,27.8301 L 34.0459,27.8441 L 34.0600,27.8441 L 34.0600,27.8723 L 34.0740,27.8723 L 34.0740,27.9004 L 34.0880,27.9004 L 34.0880,29.5449 L 34.1020,29.5449 L 34.1020,29.5730 L 34.1161,29.5730 L 34.1161,29.6011 L 34.1301,29.6011 L 34.1301,29.6152 L 33.7654,29.6152 L 33.7654,29.6011 L 33.7513,29.6011 L 33.6952,29.5449 L 33.6952,29.5308 L 33.6812,29.5168 L 33.6812,28.1955 L 33.6812,28.1534 Z" stroke="#000000" stroke-width="0.1198" stroke-linecap="round" stroke-linejoin="round" fill="#000000"/>
        <path d="M 36.1501,28.5891 L 34.8736,28.5891 L 34.8595,28.5750 L 34.8455,28.5750 L 34.8455,28.5610 L 34.8315,28.5610 L 34.8315,28.5469 L 34.8175,28.5329 L 34.8175,28.5188 L 34.8034,28.5048 L 34.8034,28.8702 L 34.8175,28.8702 L 34.8175,28.8843 L 34.8455,28.9124 L 34.8595,28.9124 L 34.8595,28.9264 L 36.1501,28.9264 L 36.2062,28.8702 L 36.2203,28.8702 L 36.2343,28.8562 L 36.2343,28.8421 L 36.2483,28.8280 L 36.2483,28.8140 L 36.2623,28.7999 L 36.2623,28.7718 L 36.2764,28.7578 L 36.2764,28.7156 L 36.2623,28.7015 L 36.2623,28.6734 L 36.2483,28.6594 L 36.2483,28.6453 L 36.2343,28.6313 L 36.2203,28.6313 L 36.2203,28.6172 L 36.2062,28.6172 L 36.1922,28.6031 L 36.1782,28.6031 L 36.1642,28.5891 L 36.1501,28.5891 Z" stroke="#000000" stroke-width="0.1198" stroke-linecap="round" stroke-linejoin="round" fill="#000000"/>
        <path d="M 37.1181,28.1534 L 36.6832,28.1534 L 36.6692,28.1393 L 36.6551,28.1393 L 36.6551,28.1253 L 36.6411,28.1253 L 36.6411,28.0971 L 36.6271,28.0971 L 36.6271,27.9004 L 36.6411,27.9004 L 36.6411,27.8723 L 36.6551,27.8582 L 36.6551,27.8441 L 36.6692,27.8441 L 36.6692,27.8301 L 36.6832,27.8301 L 36.6832,27.8160 L 38.6190,27.8160 L 38.6190,27.8301 L 38.6331,27.8301 L 38.6331,27.8441 L 38.6471,27.8441 L 38.6471,27.8582 L 38.6611,27.8723 L 38.6611,27.9004 L 38.6752,27.9004 L 38.6752,28.2236 L 38.6611,28.2236 L 38.6611,28.1955 L 38.6331,28.1674 L 38.6190,28.1674 L 38.6190,28.1534 L 37.5810,28.1534 L 37.5810,28.1674 L 37.5670,28.1674 L 37.5670,28.1815 L 37.5529,28.1815 L 37.5529,28.2096 L 37.5389,28.2096 L 37.5389,29.5589 L 37.5529,29.5589 L 37.5529,29.6011 L 37.5670,29.6011 L 37.5670,29.6152 L 37.1882,29.6152 L 37.1882,29.6011 L 37.1742,29.6011 L 37.1742,29.5870 L 37.1601,29.5870 L 37.1461,29.5730 L 37.1461,29.5589 L 37.1321,29.5589 L 37.1321,29.5308 L 37.1181,29.5308 L 37.1181,28.1955 L 37.1181,28.1534 Z" stroke="#000000" stroke-width="0.1198" stroke-linecap="round" stroke-linejoin="round" fill="#000000"/>
        <path d="M 36.2904,29.2778 L 36.3185,29.2778 L 36.3185,29.2638 L 36.3325,29.2638 L 36.3605,29.2357 L 36.3605,29.2075 L 36.3746,29.2075 L 36.3746,29.5308 L 36.3605,29.5308 L 36.3605,29.5589 L 36.3465,29.5730 L 36.3465,29.5870 L 36.3325,29.5870 L 36.3325,29.6011 L 36.3185,29.6011 L 36.3185,29.6152 L 34.3826,29.6152 L 34.3826,29.6011 L 34.3686,29.6011 L 34.3686,29.5870 L 34.3545,29.5870 L 34.3545,29.5730 L 34.3405,29.5589 L 34.3405,29.5308 L 34.3265,29.5308 L 34.3265,27.9004 L 34.3405,27.9004 L 34.3405,27.8723 L 34.3545,27.8582 L 34.3545,27.8441 L 34.3686,27.8441 L 34.3686,27.8301 L 34.3826,27.8301 L 34.3826,27.8160 L 36.3185,27.8160 L 36.3185,27.8301 L 36.3325,27.8301 L 36.3325,27.8441 L 36.3465,27.8441 L 36.3465,27.8582 L 36.3605,27.8723 L 36.3605,27.9004 L 36.3746,27.9004 L 36.3746,28.2236 L 36.3605,28.2236 L 36.3605,28.1955 L 36.3325,28.1674 L 36.3185,28.1674 L 36.3185,28.1534 L 34.7754,28.1534 L 34.7754,28.1674 L 34.7614,28.1674 L 34.7614,28.1815 L 34.7473,28.1815 L 34.7473,28.2096 L 34.7333,28.2096 L 34.7333,29.2778 L 36.2764,29.2778 L 36.2904,29.2778 Z" stroke="#000000" stroke-width="0.1198" stroke-linecap="round" stroke-linejoin="round" fill="#000000"/>
        <path d="M 25.1382,29.0810 L 25.1382,29.6011 L 25.8115,29.6011 L 25.8115,29.0810 L 25.1382,29.0810 Z" stroke="#000000" stroke-width="0.1198" stroke-linecap="round" stroke-linejoin="round" fill="#000000"/>
        <path d="M 24.4788,28.4626 L 25.0259,28.4626 L 25.0259,28.9686 L 24.4788,28.9686 L 24.4788,28.4626 Z" stroke="#000000" stroke-width="0.1198" stroke-linecap="round" stroke-linejoin="round" fill="#000000"/>
        <path d="M 25.9518,29.0951 L 25.9518,29.6152 L 26.1482,29.6152 L 26.1762,29.6011 L 26.1903,29.6011 L 26.2183,29.5870 L 26.2323,29.5870 L 26.2604,29.5730 L 26.2744,29.5730 L 26.3025,29.5589 L 26.3165,29.5449 L 26.3446,29.5308 L 26.3726,29.5027 L 26.3866,29.4746 L 26.4007,29.4605 L 26.4147,29.4324 L 26.4287,29.4184 L 26.4568,29.3622 L 26.4708,29.3200 L 26.4708,29.2919 L 26.4848,29.2638 L 26.4848,29.2216 L 26.4989,29.1794 L 26.4989,29.0951 L 25.9658,29.0951 L 25.9518,29.0951 Z" stroke="#000000" stroke-width="0.1198" stroke-linecap="round" stroke-linejoin="round" fill="#000000"/>
        <path d="M 25.9518,28.4626 L 26.4989,28.4626 L 26.4989,28.9686 L 25.9518,28.9686 L 25.9518,28.4626 Z" stroke="#000000" stroke-width="0.1198" stroke-linecap="round" stroke-linejoin="round" fill="#000000"/>
        <path d="M 25.0259,29.0951 L 25.0259,29.6152 L 24.8295,29.6152 L 24.8015,29.6011 L 24.7875,29.6011 L 24.7594,29.5870 L 24.7313,29.5870 L 24.7173,29.5730 L 24.6893,29.5730 L 24.6752,29.5589 L 24.6472,29.5449 L 24.6191,29.5168 L 24.5911,29.5027 L 24.5770,29.4746 L 24.5630,29.4605 L 24.5490,29.4324 L 24.5350,29.4184 L 24.5209,29.3903 L 24.5209,29.3622 L 24.5069,29.3200 L 24.4929,29.2919 L 24.4929,29.2216 L 24.4788,29.1794 L 24.4788,29.0951 L 25.0119,29.0951 L 25.0259,29.0951 Z" stroke="#000000" stroke-width="0.1198" stroke-linecap="round" stroke-linejoin="round" fill="#000000"/>
        <path d="M 25.1382,27.8160 L 25.1382,28.3361 L 25.8115,28.3361 L 25.8115,27.8160 L 25.1382,27.8160 Z" stroke="#000000" stroke-width="0.1198" stroke-linecap="round" stroke-linejoin="round" fill="#000000"/>
        <path d="M 25.9518,28.3361 L 25.9518,27.8160 L 26.1482,27.8160 L 26.1762,27.8301 L 26.1903,27.8301 L 26.2183,27.8441 L 26.2323,27.8441 L 26.2604,27.8582 L 26.2744,27.8582 L 26.3025,27.8723 L 26.3165,27.8863 L 26.3446,27.9004 L 26.3726,27.9285 L 26.3866,27.9566 L 26.4007,27.9706 L 26.4147,27.9988 L 26.4287,28.0128 L 26.4568,28.0690 L 26.4708,28.1112 L 26.4708,28.1393 L 26.4848,28.1674 L 26.4848,28.2096 L 26.4989,28.2518 L 26.4989,28.3361 L 25.9658,28.3361 L 25.9518,28.3361 Z" stroke="#000000" stroke-width="0.1198" stroke-linecap="round" stroke-linejoin="round" fill="#000000"/>
        <path d="M 25.0259,28.3361 L 25.0259,27.8160 L 24.8295,27.8160 L 24.8015,27.8301 L 24.7875,27.8301 L 24.7594,27.8441 L 24.7313,27.8441 L 24.7173,27.8582 L 24.6893,27.8582 L 24.6752,27.8723 L 24.6472,27.8863 L 24.6191,27.9144 L 24.5911,27.9285 L 24.5770,27.9566 L 24.5630,27.9706 L 24.5490,27.9988 L 24.5350,28.0128 L 24.5209,28.0409 L 24.5209,28.0690 L 24.5069,28.1112 L 24.4929,28.1393 L 24.4929,28.2096 L 24.4788,28.2518 L 24.4788,28.3361 L 25.0119,28.3361 L 25.0259,28.3361 Z" stroke="#000000" stroke-width="0.1198" stroke-linecap="round" stroke-linejoin="round" fill="#000000"/>
        <text font-family="Arial" fill="#000000" style="white-space:pre;" text-anchor="start" x="24.1422" y="32.6933" font-size="1.8938"><![CDATA[F]]></text>
        <text font-family="Arial" fill="#000000" style="white-space:pre;" text-anchor="start" x="25.3065" y="32.6933" font-size="1.8938"><![CDATA[o]]></text>
        <text font-family="Arial" fill="#000000" style="white-space:pre;" text-anchor="start" x="26.3586" y="32.6933" font-size="1.8938"><![CDATA[r]]></text>
        <text font-family="Arial" fill="#000000" style="white-space:pre;" text-anchor="start" x="26.9898" y="32.6933" font-size="1.8938"><![CDATA[t]]></text>
        <text font-family="Arial" fill="#000000" style="white-space:pre;" text-anchor="start" x="27.5229" y="32.6933" font-size="1.8938"><![CDATA[i]]></text>
        <text font-family="Arial" fill="#000000" style="white-space:pre;" text-anchor="start" x="27.9438" y="32.6933" font-size="1.8938"><![CDATA[A]]></text>
        <text font-family="Arial" fill="#000000" style="white-space:pre;" text-anchor="start" x="29.2063" y="32.6933" font-size="1.8938"><![CDATA[P]]></text>
        <text font-family="Arial" fill="#000000" style="white-space:pre;" text-anchor="start" x="30.4688" y="32.6933" font-size="1.8938"><![CDATA[ ]]></text>
        <text font-family="Arial" fill="#000000" style="white-space:pre;" text-anchor="start" x="31.0019" y="32.6933" font-size="1.8938"><![CDATA[U]]></text>
        <text font-family="Arial" fill="#000000" style="white-space:pre;" text-anchor="start" x="32.3766" y="32.6933" font-size="1.8938"><![CDATA[4]]></text>
        <text font-family="Arial" fill="#000000" style="white-space:pre;" text-anchor="start" x="33.4287" y="32.6933" font-size="1.8938"><![CDATA[3]]></text>
        <text font-family="Arial" fill="#000000" style="white-space:pre;" text-anchor="start" x="34.4808" y="32.6933" font-size="1.8938"><![CDATA[1]]></text>
        <text font-family="Arial" fill="#000000" style="white-space:pre;" text-anchor="start" x="35.5329" y="32.6933" font-size="1.8938"><![CDATA[F]]></text>
        <text font-family="Symbol" fill="#000000" style="white-space:pre;" text-anchor="start" x="38.0720" y="29.6011" font-size="0.6172"><![CDATA[]]></text>
        <path d="M 35.9257,50.7829 L 36.3044,50.3893 L 36.1221,50.2066 L 36.1221,50.9656 L 36.3044,50.7829 L 35.9116,50.3893 " stroke="#000000" stroke-width="0.1198" stroke-linecap="round" stroke-linejoin="round" fill="none"/>
        <path d="M 24.9558,50.3753 L 24.9698,50.3753 L 24.9698,50.3893 L 24.9838,50.3893 L 24.9979,50.4034 L 25.0119,50.4034 L 25.0540,50.4456 L 25.0540,50.4596 L 25.0680,50.4596 L 25.0680,50.4737 L 25.0820,50.4877 L 25.0820,50.5018 L 25.0961,50.5158 L 25.0961,50.5580 L 25.1101,50.5721 L 25.1101,50.6986 L 25.0961,50.7126 L 25.0961,50.7548 L 25.0820,50.7688 L 25.0820,50.7829 L 25.0680,50.7969 L 25.0680,50.8110 L 25.0540,50.8251 L 25.0540,50.8391 L 25.0400,50.8391 L 25.0259,50.8532 L 25.0259,50.8672 L 25.0119,50.8672 L 24.9698,50.9094 L 24.9418,50.9094 L 24.9277,50.9234 L 24.8997,50.9234 L 24.8856,50.9375 L 24.7454,50.9375 L 24.7313,50.9234 L 24.7033,50.9234 L 24.6893,50.9094 L 24.6612,50.9094 L 24.6191,50.8672 L 24.6051,50.8672 L 24.6051,50.8532 L 24.5911,50.8391 L 24.5770,50.8391 L 24.5770,50.8251 L 24.5630,50.8110 L 24.5630,50.7969 L 24.5490,50.7829 L 24.5490,50.7688 L 24.5350,50.7548 L 24.5350,50.7126 L 24.5209,50.6986 L 24.5209,50.5721 L 24.5350,50.5580 L 24.5350,50.5158 L 24.5490,50.5158 L 24.5490,50.4877 L 24.5630,50.4737 L 24.5630,50.4596 L 24.5770,50.4596 L 24.5770,50.4456 L 24.5911,50.4315 L 24.5911,50.4174 L 24.6051,50.4174 L 24.6331,50.3893 L 24.6331,50.4034 L 24.6472,50.4034 L 24.6472,50.4174 L 24.6612,50.4174 L 24.6612,50.4315 L 24.6752,50.4315 L 24.6752,50.4456 L 24.6612,50.4456 L 24.6612,50.4596 L 24.6472,50.4596 L 24.6051,50.5018 L 24.6051,50.5158 L 24.5911,50.5299 L 24.5911,50.5439 L 24.5770,50.5439 L 24.5770,50.5861 L 24.5630,50.5861 L 24.5630,50.6986 L 24.5770,50.6986 L 24.5770,50.7407 L 24.6051,50.7688 L 24.6051,50.7829 L 24.6191,50.7829 L 24.6191,50.7969 L 24.6472,50.8251 L 24.6612,50.8251 L 24.6612,50.8391 L 24.6752,50.8391 L 24.6893,50.8532 L 24.7033,50.8532 L 24.7173,50.8672 L 24.7454,50.8672 L 24.7454,50.8813 L 24.8856,50.8813 L 24.8856,50.8672 L 24.9137,50.8672 L 24.9277,50.8532 L 24.9418,50.8532 L 24.9558,50.8391 L 24.9698,50.8391 L 24.9698,50.8251 L 24.9838,50.8251 L 25.0119,50.7969 L 25.0119,50.7829 L 25.0259,50.7829 L 25.0259,50.7688 L 25.0540,50.7407 L 25.0540,50.6986 L 25.0680,50.6986 L 25.0680,50.5861 L 25.0540,50.5861 L 25.0540,50.5439 L 25.0400,50.5439 L 25.0400,50.5158 L 25.0259,50.5158 L 25.0259,50.5018 L 25.0119,50.4877 L 25.0119,50.4737 L 24.9979,50.4737 L 24.9979,50.4596 L 24.9838,50.4596 L 24.9698,50.4456 L 24.9558,50.4456 L 24.9558,50.4315 L 24.9418,50.4315 L 24.9418,50.4034 L 24.9558,50.4034 L 24.9558,50.3893 L 24.9558,50.3753 Z" stroke="#000000" stroke-width="0.1198" stroke-linecap="round" stroke-linejoin="round" fill="#000000"/>
        <path d="M 24.8436,50.2347 L 24.7734,50.2347 L 24.7734,50.6564 L 24.8436,50.6564 L 24.8436,50.2347 Z" stroke="#000000" stroke-width="0.1198" stroke-linecap="round" stroke-linejoin="round" fill="#000000"/>
        <path d="M 33.6672,50.7548 L 33.7093,50.7126 L 33.7233,50.6845 L 33.7513,50.6704 L 33.7654,50.6423 L 33.7794,50.6283 L 33.7934,50.6002 L 33.7934,50.5861 L 33.8215,50.5299 L 33.8215,50.4877 L 33.8355,50.4737 L 33.8355,50.4034 L 33.8215,50.3893 L 33.8215,50.3472 L 33.8074,50.3191 L 33.8074,50.3050 L 33.7934,50.2769 L 33.7934,50.2628 L 33.7794,50.2488 L 33.7654,50.2207 L 33.7373,50.1926 L 33.7233,50.1644 L 33.6812,50.1223 L 33.6672,50.1082 " stroke="#000000" stroke-width="0.1198" stroke-linecap="round" stroke-linejoin="round" fill="none"/>
        <path d="M 33.5830,50.6845 L 33.6251,50.6423 L 33.6391,50.6142 L 33.6391,50.6002 L 33.6672,50.5721 L 33.6672,50.5580 L 33.6812,50.5299 L 33.6812,50.4877 L 33.6952,50.4596 L 33.6952,50.4174 L 33.6812,50.4034 L 33.6812,50.3472 L 33.6672,50.3331 L 33.6672,50.3050 L 33.6531,50.2909 L 33.6531,50.2769 L 33.6251,50.2488 L 33.6251,50.2347 L 33.5970,50.2066 L 33.5970,50.1926 L 33.5830,50.1785 " stroke="#000000" stroke-width="0.1198" stroke-linecap="round" stroke-linejoin="round" fill="none"/>
        <path d="M 33.4988,50.6142 L 33.5269,50.5861 L 33.5269,50.5721 L 33.5409,50.5721 L 33.5549,50.5580 L 33.5549,50.5439 L 33.5690,50.5299 L 33.5690,50.5158 L 33.5830,50.5018 L 33.5830,50.3612 L 33.5690,50.3612 L 33.5690,50.3331 L 33.5409,50.3050 L 33.5409,50.2909 L 33.5129,50.2628 L 33.4988,50.2488 " stroke="#000000" stroke-width="0.1198" stroke-linecap="round" stroke-linejoin="round" fill="none"/>
        <path d="M 33.0780,50.7548 L 33.0359,50.7126 L 33.0219,50.6845 L 32.9938,50.6704 L 32.9798,50.6423 L 32.9658,50.6283 L 32.9517,50.6002 L 32.9517,50.5861 L 32.9237,50.5299 L 32.9237,50.4877 L 32.9097,50.4737 L 32.9097,50.4034 L 32.9237,50.3893 L 32.9237,50.3472 L 32.9377,50.3191 L 32.9377,50.3050 L 32.9517,50.2769 L 32.9517,50.2628 L 32.9658,50.2488 L 32.9798,50.2207 L 33.0079,50.1926 L 33.0219,50.1644 L 33.0640,50.1223 L 33.0780,50.1082 " stroke="#000000" stroke-width="0.1198" stroke-linecap="round" stroke-linejoin="round" fill="none"/>
        <path d="M 33.1622,50.6845 L 33.1201,50.6423 L 33.1061,50.6142 L 33.0920,50.6002 L 33.0920,50.5861 L 33.0780,50.5721 L 33.0780,50.5580 L 33.0640,50.5299 L 33.0640,50.5018 L 33.0499,50.4877 L 33.0499,50.3893 L 33.0640,50.3612 L 33.0640,50.3331 L 33.0780,50.3191 L 33.0780,50.3050 L 33.0920,50.2909 L 33.0920,50.2769 L 33.1061,50.2628 L 33.1061,50.2488 L 33.1341,50.2207 L 33.1341,50.2066 L 33.1481,50.1926 L 33.1622,50.1785 " stroke="#000000" stroke-width="0.1198" stroke-linecap="round" stroke-linejoin="round" fill="none"/>
        <path d="M 33.2323,50.6142 L 33.2042,50.5861 L 33.2042,50.5721 L 33.1902,50.5721 L 33.1762,50.5580 L 33.1762,50.5439 L 33.1622,50.5299 L 33.1622,50.5158 L 33.1481,50.5018 L 33.1481,50.3612 L 33.1622,50.3612 L 33.1622,50.3331 L 33.1902,50.3050 L 33.1902,50.2909 L 33.2183,50.2628 L 33.2323,50.2488 " stroke="#000000" stroke-width="0.1198" stroke-linecap="round" stroke-linejoin="round" fill="none"/>
        <ellipse cx="33.3095" cy="50.3682" rx="0.0491" ry="0.0492" fill="#000000" stroke="#000000" stroke-width="0.1198" stroke-linecap="round" stroke-linejoin="round"/>
        <ellipse cx="33.3095" cy="50.3682" rx="0.0491" ry="0.0492" fill="none" stroke="#000000" stroke-width="0.1198" stroke-linecap="round" stroke-linejoin="round"/>
        <path d="M 33.4147,50.4174 L 33.3305,50.4174 L 33.3305,50.9516 L 33.4147,50.9516 L 33.4147,50.4174 Z" stroke="#000000" stroke-width="0.1198" stroke-linecap="round" stroke-linejoin="round" fill="#000000"/>
        <path d="M 30.8195,50.5721 L 29.8936,50.5721 " stroke="#000000" stroke-width="0.1198" stroke-linecap="round" stroke-linejoin="round" fill="none"/>
        <path d="M 30.3566,50.4456 L 30.3566,50.5861 " stroke="#000000" stroke-width="0.1198" stroke-linecap="round" stroke-linejoin="round" fill="none"/>
        <path d="M 30.4688,50.2207 L 30.2443,50.2207 L 30.2443,50.4456 L 30.4688,50.4456 L 30.4688,50.2207 Z" stroke="#000000" stroke-width="0.1198" stroke-linecap="round" stroke-linejoin="round" fill="#0A0A0A"/>
        <path d="M 30.6231,50.5861 L 30.6231,50.7267 " stroke="#000000" stroke-width="0.1198" stroke-linecap="round" stroke-linejoin="round" fill="none"/>
        <path d="M 30.6231,50.5861 L 30.6231,50.7267 " stroke="#000000" stroke-width="0.1198" stroke-linecap="round" stroke-linejoin="round" fill="none"/>
        <path d="M 30.5249,50.7267 L 30.7493,50.7267 L 30.7493,50.9516 L 30.5249,50.9516 L 30.5249,50.7267 Z" stroke="#000000" stroke-width="0.1198" stroke-linecap="round" stroke-linejoin="round" fill="#0A0A0A"/>
        <path d="M 30.0620,50.5861 L 30.0620,50.7267 " stroke="#000000" stroke-width="0.1198" stroke-linecap="round" stroke-linejoin="round" fill="none"/>
        <path d="M 30.1882,50.7267 L 29.9638,50.7267 L 29.9638,50.9516 L 30.1882,50.9516 L 30.1882,50.7267 Z" stroke="#000000" stroke-width="0.1198" stroke-linecap="round" stroke-linejoin="round" fill="#0A0A0A"/>
        <text font-family="Arial" fill="#000000" style="white-space:pre;" text-anchor="start" x="31.0019" y="50.8110" font-size="0.5190"><![CDATA[2]]></text>
        <path d="M 28.0279,50.5721 L 27.1021,50.5721 " stroke="#000000" stroke-width="0.1198" stroke-linecap="round" stroke-linejoin="round" fill="none"/>
        <path d="M 27.5650,50.4456 L 27.5650,50.5861 " stroke="#000000" stroke-width="0.1198" stroke-linecap="round" stroke-linejoin="round" fill="none"/>
        <path d="M 27.6772,50.2207 L 27.4528,50.2207 L 27.4528,50.4456 L 27.6772,50.4456 L 27.6772,50.2207 Z" stroke="#000000" stroke-width="0.1198" stroke-linecap="round" stroke-linejoin="round" fill="#0A0A0A"/>
        <path d="M 27.8315,50.5861 L 27.8315,50.7267 " stroke="#000000" stroke-width="0.1198" stroke-linecap="round" stroke-linejoin="round" fill="none"/>
        <path d="M 27.7333,50.7267 L 27.9578,50.7267 L 27.9578,50.9516 L 27.7333,50.9516 L 27.7333,50.7267 Z" stroke="#000000" stroke-width="0.1198" stroke-linecap="round" stroke-linejoin="round" fill="#0A0A0A"/>
        <path d="M 27.2704,50.5861 L 27.2704,50.7267 " stroke="#000000" stroke-width="0.1198" stroke-linecap="round" stroke-linejoin="round" fill="none"/>
        <path d="M 27.3967,50.7267 L 27.1722,50.7267 L 27.1722,50.9516 L 27.3967,50.9516 L 27.3967,50.7267 Z" stroke="#000000" stroke-width="0.1198" stroke-linecap="round" stroke-linejoin="round" fill="#0A0A0A"/>
        <text font-family="Arial" fill="#000000" style="white-space:pre;" text-anchor="start" x="28.1963" y="50.8110" font-size="0.5190"><![CDATA[1]]></text>
        <path d="M 38.2683,51.4716 L 38.2543,51.4154 L 38.2263,51.3732 L 38.1842,51.3451 L 38.1281,51.3311 L 22.6973,51.3311 L 22.6412,51.3451 L 22.5991,51.3732 L 22.5710,51.4154 L 22.5570,51.4716 L 22.5710,51.5278 L 22.5991,51.5700 L 22.6412,51.5981 L 22.6973,51.6122 L 38.1281,51.6122 L 38.1842,51.5981 L 38.2263,51.5700 L 38.2543,51.5278 L 38.2683,51.4716 Z" stroke="#333333" stroke-width="0.1198" stroke-linecap="round" stroke-linejoin="round" fill="#333333"/>
      </g>
      <!--emf-blob end-->
    </g>
  </g>
</svg>
