<svg xmlns="http://www.w3.org/2000/svg" xmlns:xlink="http://www.w3.org/1999/xlink" version="1.1" width="2.5212000000" height="2.5212000000" viewBox="0 0 45.3827 45.3827">
  <title><![CDATA[FAP-221/223E]]></title>
  <g transform=" scale(4.000000) ">
    <!--converted by libvisio2svg-->
    <g transform=" translate(0.000000,0.000000) ">
      <!--emf-blob start-->
      <g transform="translate(-0.0000, -0.0000)">
        <ellipse cx="22.6211" cy="22.6739" rx="22.5930" ry="22.6457" fill="#7F7F7F" stroke="#000000" stroke-width="0.1201" stroke-linecap="round" stroke-linejoin="round"/>
        <ellipse cx="22.6211" cy="22.6739" rx="22.5930" ry="22.6457" fill="none" stroke="#000000" stroke-width="0.1201" stroke-linecap="round" stroke-linejoin="round"/>
        <ellipse cx="22.6211" cy="22.6739" rx="22.2558" ry="22.3076" fill="#EAEAEA" stroke="#000000" stroke-width="0.1201" stroke-linecap="round" stroke-linejoin="round"/>
        <ellipse cx="22.6211" cy="22.6739" rx="22.2558" ry="22.3076" fill="none" stroke="#EAEAEA" stroke-width="0.1201" stroke-linecap="round" stroke-linejoin="round"/>
        <path d="M 22.6773,7.5368 L 21.8905,7.5509 L 21.1318,7.6214 L 20.3730,7.7059 L 19.6284,7.8468 L 18.8837,8.0158 L 18.1671,8.2271 L 17.4646,8.4525 L 16.7761,8.7343 L 16.1017,9.0301 L 15.4554,9.3682 L 14.8091,9.7345 L 14.2049,10.1289 L 13.6008,10.5516 L 13.0387,11.0024 L 12.4767,11.4813 L 11.9569,11.9885 L 11.4511,12.5097 L 10.9733,13.0732 L 10.5237,13.6367 L 10.1022,14.2425 L 9.7088,14.8483 L 9.3435,15.4963 L 9.0063,16.1443 L 8.7112,16.8205 L 8.4302,17.5108 L 8.2054,18.2152 L 7.9947,18.9337 L 7.8261,19.6803 L 7.6856,20.4269 L 7.6013,21.1877 L 7.5310,21.9484 L 7.5169,22.7373 L 7.5310,23.5262 L 7.6013,24.2869 L 7.6856,25.0476 L 7.8261,25.7943 L 7.9947,26.5409 L 8.2054,27.2594 L 8.4302,27.9638 L 8.7112,28.6541 L 9.0063,29.3303 L 9.3435,29.9783 L 9.7088,30.6263 L 10.1022,31.2321 L 10.5237,31.8378 L 10.9733,32.4013 L 11.4511,32.9648 L 11.9569,33.4861 L 12.4767,33.9932 L 13.0387,34.4722 L 13.6008,34.9230 L 14.2049,35.3456 L 14.8091,35.7401 L 15.4554,36.1064 L 16.1017,36.4445 L 16.7761,36.7403 L 17.4646,37.0221 L 18.1671,37.2475 L 18.8837,37.4588 L 19.6284,37.6278 L 20.3730,37.7687 L 21.1318,37.8532 L 21.8905,37.9237 L 22.6773,37.9378 " stroke="#D1D1D1" stroke-width="0.1201" stroke-linecap="round" stroke-linejoin="round" fill="none"/>
        <path d="M 22.6773,37.1770 L 23.4220,37.1629 L 24.1526,37.1066 L 24.8692,37.0080 L 25.5857,36.8812 L 26.2742,36.7262 L 26.9627,36.5290 L 27.6230,36.3036 L 28.2834,36.0359 L 28.9157,35.7542 L 29.5479,35.4302 L 30.1380,35.0921 L 30.7282,34.7117 L 31.2902,34.3032 L 31.8381,33.8805 L 32.3580,33.4297 L 32.8638,32.9508 L 33.3415,32.4436 L 33.7911,31.9224 L 34.2127,31.3730 L 34.6201,30.8095 L 34.9995,30.2178 L 35.3367,29.6261 L 35.6598,28.9922 L 35.9409,28.3582 L 36.2078,27.6961 L 36.4326,27.0340 L 36.6293,26.3437 L 36.7839,25.6534 L 36.9103,24.9349 L 37.0087,24.2165 L 37.0649,23.4839 L 37.0789,22.7373 L 37.0649,21.9907 L 37.0087,21.2581 L 36.9103,20.5396 L 36.7839,19.8212 L 36.6293,19.1309 L 36.4326,18.4406 L 36.2078,17.7785 L 35.9409,17.1164 L 35.6598,16.4824 L 35.3367,15.8485 L 34.9995,15.2568 L 34.6201,14.6651 L 34.2127,14.1016 L 33.7911,13.5522 L 33.3415,13.0310 L 32.8638,12.5238 L 32.3580,12.0448 L 31.8381,11.5940 L 31.2902,11.1714 L 30.7282,10.7629 L 30.1380,10.3825 L 29.5479,10.0444 L 28.9157,9.7204 L 28.2834,9.4387 L 27.6230,9.1710 L 26.9627,8.9456 L 26.2742,8.7484 L 25.5857,8.5934 L 24.8692,8.4666 L 24.1526,8.3680 L 23.4220,8.3116 L 22.6773,8.2976 " stroke="#D1D1D1" stroke-width="0.1201" stroke-linecap="round" stroke-linejoin="round" fill="none"/>
        <path d="M 22.6773,8.2976 L 21.9326,8.3116 L 21.2020,8.3680 L 20.4854,8.4666 L 19.7689,8.5934 L 19.0804,8.7484 L 18.3919,8.9456 L 17.7316,9.1710 L 17.0712,9.4387 L 16.4389,9.7204 L 15.8067,10.0444 L 15.2166,10.3825 L 14.6264,10.7629 L 14.0644,11.1714 L 13.5165,11.5940 L 12.9966,12.0448 L 12.4908,12.5238 L 12.0131,13.0310 L 11.5635,13.5522 L 11.1419,14.1016 L 10.7345,14.6651 L 10.3551,15.2568 L 10.0179,15.8485 L 9.6948,16.4824 L 9.4137,17.1164 L 9.1468,17.7785 L 8.9220,18.4406 L 8.7253,19.1309 L 8.5707,19.8212 L 8.4443,20.5396 L 8.3459,21.2581 L 8.2897,21.9907 L 8.2757,22.7373 L 8.2897,23.4839 L 8.3459,24.2165 L 8.4443,24.9349 L 8.5707,25.6534 L 8.7253,26.3437 L 8.9220,27.0340 L 9.1468,27.6961 L 9.4137,28.3582 L 9.6948,28.9922 L 10.0179,29.6261 L 10.3551,30.2178 L 10.7345,30.8095 L 11.1419,31.3730 L 11.5635,31.9224 L 12.0131,32.4436 L 12.4908,32.9508 L 12.9966,33.4297 L 13.5165,33.8805 L 14.0644,34.3032 L 14.6264,34.7117 L 15.2166,35.0921 L 15.8067,35.4302 L 16.4389,35.7542 L 17.0712,36.0359 L 17.7316,36.3036 L 18.3919,36.5290 L 19.0804,36.7262 L 19.7689,36.8812 L 20.4854,37.0080 L 21.2020,37.1066 L 21.9326,37.1629 L 22.6773,37.1770 " stroke="#FFFFFF" stroke-width="0.1201" stroke-linecap="round" stroke-linejoin="round" fill="none"/>
        <path d="M 22.6773,37.9378 L 23.4641,37.9237 L 24.2228,37.8532 L 24.9816,37.7687 L 25.7262,37.6278 L 26.4709,37.4588 L 27.1875,37.2475 L 27.8900,37.0221 L 28.5785,36.7403 L 29.2529,36.4445 L 29.8992,36.1064 L 30.5455,35.7401 L 31.1497,35.3456 L 31.7538,34.9230 L 32.3159,34.4722 L 32.8779,33.9932 L 33.3977,33.4861 L 33.9035,32.9648 L 34.3813,32.4013 L 34.8309,31.8378 L 35.2524,31.2321 L 35.6458,30.6263 L 36.0111,29.9783 L 36.3483,29.3303 L 36.6434,28.6541 L 36.9244,27.9638 L 37.1492,27.2594 L 37.3599,26.5409 L 37.5285,25.7943 L 37.6690,25.0476 L 37.7533,24.2869 L 37.8236,23.5262 L 37.8377,22.7373 L 37.8236,21.9484 L 37.7533,21.1877 L 37.6690,20.4269 L 37.5285,19.6803 L 37.3599,18.9337 L 37.1492,18.2152 L 36.9244,17.5108 L 36.6434,16.8205 L 36.3483,16.1443 L 36.0111,15.4963 L 35.6458,14.8483 L 35.2524,14.2425 L 34.8309,13.6367 L 34.3813,13.0732 L 33.9035,12.5097 L 33.3977,11.9885 L 32.8779,11.4813 L 32.3159,11.0024 L 31.7538,10.5516 L 31.1497,10.1289 L 30.5455,9.7345 L 29.8992,9.3682 L 29.2529,9.0301 L 28.5785,8.7343 L 27.8900,8.4525 L 27.1875,8.2271 L 26.4709,8.0158 L 25.7262,7.8468 L 24.9816,7.7059 L 24.2228,7.6214 L 23.4641,7.5509 L 22.6773,7.5368 " stroke="#FFFFFF" stroke-width="0.1201" stroke-linecap="round" stroke-linejoin="round" fill="none"/>
        <ellipse cx="22.6211" cy="41.4949" rx="0.3232" ry="0.3170" fill="#00FF00" stroke="#000000" stroke-width="0.1201" stroke-linecap="round" stroke-linejoin="round"/>
        <ellipse cx="22.6211" cy="41.4949" rx="0.3232" ry="0.3170" fill="none" stroke="#000000" stroke-width="0.1201" stroke-linecap="round" stroke-linejoin="round"/>
        <ellipse cx="25.8316" cy="41.2131" rx="0.3161" ry="0.3170" fill="#00FF00" stroke="#000000" stroke-width="0.1201" stroke-linecap="round" stroke-linejoin="round"/>
        <ellipse cx="25.8316" cy="41.2131" rx="0.3161" ry="0.3170" fill="none" stroke="#000000" stroke-width="0.1201" stroke-linecap="round" stroke-linejoin="round"/>
        <ellipse cx="29.0351" cy="40.3749" rx="0.3161" ry="0.3240" fill="#00FF00" stroke="#000000" stroke-width="0.1201" stroke-linecap="round" stroke-linejoin="round"/>
        <ellipse cx="29.0351" cy="40.3749" rx="0.3161" ry="0.3240" fill="none" stroke="#000000" stroke-width="0.1201" stroke-linecap="round" stroke-linejoin="round"/>
        <ellipse cx="16.1931" cy="40.3749" rx="0.3161" ry="0.3240" fill="#00FF00" stroke="#000000" stroke-width="0.1201" stroke-linecap="round" stroke-linejoin="round"/>
        <ellipse cx="16.1931" cy="40.3749" rx="0.3161" ry="0.3240" fill="none" stroke="#000000" stroke-width="0.1201" stroke-linecap="round" stroke-linejoin="round"/>
        <ellipse cx="19.4176" cy="41.2131" rx="0.3232" ry="0.3170" fill="#00FF00" stroke="#000000" stroke-width="0.1201" stroke-linecap="round" stroke-linejoin="round"/>
        <ellipse cx="19.4176" cy="41.2131" rx="0.3232" ry="0.3170" fill="none" stroke="#000000" stroke-width="0.1201" stroke-linecap="round" stroke-linejoin="round"/>
        <path d="M 23.1972,40.3045 L 22.0450,40.3045 " stroke="#7F7F7F" stroke-width="0.1201" stroke-linecap="round" stroke-linejoin="round" fill="none"/>
        <path d="M 22.6211,40.1213 L 22.6211,40.2904 " stroke="#7F7F7F" stroke-width="0.1201" stroke-linecap="round" stroke-linejoin="round" fill="none"/>
        <path d="M 22.7616,39.8396 L 22.4806,39.8396 L 22.4806,40.1213 L 22.7616,40.1213 L 22.7616,39.8396 Z" stroke="#7F7F7F" stroke-width="0.1201" stroke-linecap="round" stroke-linejoin="round" fill="#7F7F7F"/>
        <path d="M 22.9583,40.2904 L 22.9583,40.4735 " stroke="#7F7F7F" stroke-width="0.1201" stroke-linecap="round" stroke-linejoin="round" fill="none"/>
        <path d="M 22.9583,40.2904 L 22.9583,40.4735 " stroke="#7F7F7F" stroke-width="0.1201" stroke-linecap="round" stroke-linejoin="round" fill="none"/>
        <path d="M 22.8319,40.4594 L 23.1129,40.4594 L 23.1129,40.7412 L 22.8319,40.7412 L 22.8319,40.4594 Z" stroke="#7F7F7F" stroke-width="0.1201" stroke-linecap="round" stroke-linejoin="round" fill="#7F7F7F"/>
        <path d="M 22.2558,40.2904 L 22.2558,40.4735 " stroke="#7F7F7F" stroke-width="0.1201" stroke-linecap="round" stroke-linejoin="round" fill="none"/>
        <path d="M 22.4103,40.4594 L 22.1293,40.4594 L 22.1293,40.7412 L 22.4103,40.7412 L 22.4103,40.4594 Z" stroke="#7F7F7F" stroke-width="0.1201" stroke-linecap="round" stroke-linejoin="round" fill="#7F7F7F"/>
        <path d="M 15.9331,39.2479 L 15.9191,39.2338 L 15.9191,39.2197 L 15.9050,39.2197 L 15.9050,39.2056 L 15.8910,39.2056 L 15.8910,39.1915 L 15.8769,39.1775 L 15.8769,39.1634 L 15.8629,39.1634 L 15.8629,39.1352 L 15.8488,39.1211 L 15.8488,39.1070 L 15.8348,39.0929 L 15.8348,39.0507 L 15.8207,39.0366 L 15.8207,38.9098 L 15.8348,38.9098 L 15.8348,38.8675 L 15.8488,38.8534 L 15.8488,38.8394 L 15.8629,38.8253 L 15.8629,38.8112 L 15.8769,38.7971 L 15.8769,38.7830 L 15.9331,38.7267 L 15.9472,38.7267 L 15.9612,38.7126 L 15.9753,38.7126 " stroke="#7F7F7F" stroke-width="0.1201" stroke-linecap="round" stroke-linejoin="round" fill="none"/>
        <path d="M 15.9753,39.1634 L 15.9753,39.1493 L 15.9612,39.1493 L 15.9612,39.1352 L 15.9472,39.1211 L 15.9472,39.1070 L 15.9331,39.0929 L 15.9331,39.0648 L 15.9191,39.0507 L 15.9191,38.9098 L 15.9331,38.8957 L 15.9331,38.8675 L 15.9472,38.8534 L 15.9472,38.8394 L 15.9612,38.8253 L 15.9612,38.8112 L 15.9893,38.8112 L 15.9893,38.7971 L 16.0034,38.7971 " stroke="#7F7F7F" stroke-width="0.1201" stroke-linecap="round" stroke-linejoin="round" fill="none"/>
        <path d="M 16.0596,39.0929 L 16.0455,39.0929 L 16.0455,39.0788 L 16.0315,39.0788 L 16.0315,39.0648 L 16.0174,39.0648 L 16.0174,39.0366 L 16.0034,39.0366 L 16.0034,38.9239 L 16.0174,38.9239 L 16.0174,38.8957 L 16.0315,38.8957 L 16.0315,38.8816 L 16.0455,38.8816 L 16.0455,38.8675 L 16.0596,38.8675 " stroke="#7F7F7F" stroke-width="0.1201" stroke-linecap="round" stroke-linejoin="round" fill="none"/>
        <path d="M 16.4670,39.2479 L 16.4951,39.2197 L 16.4951,39.2056 L 16.5092,39.2056 L 16.5092,39.1915 L 16.5373,39.1634 L 16.5373,39.1493 L 16.5513,39.1493 L 16.5513,39.1211 L 16.5654,39.1211 L 16.5654,39.0929 L 16.5794,39.0788 L 16.5794,39.0507 L 16.5935,39.0366 L 16.5935,38.9239 L 16.5794,38.9098 L 16.5794,38.8675 L 16.5654,38.8675 L 16.5654,38.8394 L 16.5513,38.8394 L 16.5513,38.8112 L 16.5373,38.8112 L 16.5373,38.7830 L 16.5232,38.7830 L 16.5232,38.7689 L 16.5092,38.7689 L 16.5092,38.7548 L 16.4951,38.7548 L 16.4951,38.7407 L 16.4811,38.7407 L 16.4811,38.7267 L 16.4670,38.7267 L 16.4530,38.7126 L 16.4389,38.7126 " stroke="#7F7F7F" stroke-width="0.1201" stroke-linecap="round" stroke-linejoin="round" fill="none"/>
        <path d="M 16.4249,39.1634 L 16.4249,39.1493 L 16.4389,39.1493 L 16.4389,39.1352 L 16.4530,39.1211 L 16.4530,39.1070 L 16.4670,39.0929 L 16.4670,39.0648 L 16.4811,39.0507 L 16.4811,38.9098 L 16.4670,38.8957 L 16.4670,38.8534 L 16.4530,38.8534 L 16.4530,38.8394 L 16.4389,38.8253 L 16.4389,38.8112 L 16.4108,38.8112 L 16.4108,38.7971 L 16.3968,38.7971 " stroke="#7F7F7F" stroke-width="0.1201" stroke-linecap="round" stroke-linejoin="round" fill="none"/>
        <path d="M 16.3546,39.0929 L 16.3687,39.0929 L 16.3687,39.0788 L 16.3827,39.0788 L 16.3827,39.0648 L 16.3968,39.0648 L 16.3968,39.0366 L 16.4108,39.0366 L 16.4108,38.9239 L 16.3968,38.9239 L 16.3968,38.8957 L 16.3827,38.8957 L 16.3827,38.8816 L 16.3687,38.8816 L 16.3687,38.8675 L 16.3546,38.8675 " stroke="#7F7F7F" stroke-width="0.1201" stroke-linecap="round" stroke-linejoin="round" fill="none"/>
        <path d="M 16.1439,39.6283 L 16.1860,39.0084 L 16.2563,39.0084 L 16.2984,39.6283 L 16.1439,39.6283 Z" stroke="#7F7F7F" stroke-width="0.1201" stroke-linecap="round" stroke-linejoin="round" fill="#7F7F7F"/>
        <path d="M 19.2069,40.1777 L 19.1928,40.1636 L 19.1928,40.1495 L 19.1788,40.1495 L 19.1788,40.1354 L 19.1647,40.1354 L 19.1647,40.1213 L 19.1507,40.1072 L 19.1507,40.0931 L 19.1366,40.0931 L 19.1366,40.0650 L 19.1226,40.0509 L 19.1226,40.0368 L 19.1085,40.0227 L 19.1085,39.9804 L 19.0945,39.9664 L 19.0945,39.8396 L 19.1085,39.8396 L 19.1085,39.7973 L 19.1226,39.7832 L 19.1226,39.7691 L 19.1366,39.7550 L 19.1366,39.7410 L 19.1507,39.7269 L 19.1507,39.7128 L 19.2069,39.6564 L 19.2209,39.6564 L 19.2350,39.6423 L 19.2490,39.6423 " stroke="#7F7F7F" stroke-width="0.1201" stroke-linecap="round" stroke-linejoin="round" fill="none"/>
        <path d="M 19.2490,40.0931 L 19.2490,40.0791 L 19.2350,40.0791 L 19.2350,40.0650 L 19.2209,40.0509 L 19.2209,40.0368 L 19.2069,40.0227 L 19.2069,39.9945 L 19.1928,39.9804 L 19.1928,39.8396 L 19.2069,39.8255 L 19.2069,39.7973 L 19.2209,39.7832 L 19.2209,39.7691 L 19.2350,39.7550 L 19.2350,39.7410 L 19.2631,39.7410 L 19.2631,39.7269 L 19.2771,39.7269 " stroke="#7F7F7F" stroke-width="0.1201" stroke-linecap="round" stroke-linejoin="round" fill="none"/>
        <path d="M 19.3333,40.0227 L 19.3193,40.0227 L 19.3193,40.0086 L 19.3052,40.0086 L 19.3052,39.9945 L 19.2912,39.9945 L 19.2912,39.9664 L 19.2771,39.9664 L 19.2771,39.8537 L 19.2912,39.8537 L 19.2912,39.8255 L 19.3052,39.8255 L 19.3052,39.8114 L 19.3193,39.8114 L 19.3193,39.7973 L 19.3333,39.7973 " stroke="#7F7F7F" stroke-width="0.1201" stroke-linecap="round" stroke-linejoin="round" fill="none"/>
        <path d="M 19.7408,40.1777 L 19.7689,40.1495 L 19.7689,40.1354 L 19.7829,40.1354 L 19.7829,40.1213 L 19.8110,40.0931 L 19.8110,40.0791 L 19.8251,40.0791 L 19.8251,40.0509 L 19.8391,40.0509 L 19.8391,40.0227 L 19.8532,40.0086 L 19.8532,39.9804 L 19.8672,39.9664 L 19.8672,39.8537 L 19.8532,39.8396 L 19.8532,39.7973 L 19.8391,39.7973 L 19.8391,39.7691 L 19.8251,39.7691 L 19.8251,39.7410 L 19.8110,39.7410 L 19.8110,39.7128 L 19.7970,39.7128 L 19.7970,39.6987 L 19.7829,39.6987 L 19.7829,39.6846 L 19.7689,39.6846 L 19.7689,39.6705 L 19.7548,39.6705 L 19.7548,39.6564 L 19.7408,39.6564 L 19.7267,39.6423 L 19.7127,39.6423 " stroke="#7F7F7F" stroke-width="0.1201" stroke-linecap="round" stroke-linejoin="round" fill="none"/>
        <path d="M 19.6986,40.0931 L 19.6986,40.0791 L 19.7127,40.0791 L 19.7127,40.0650 L 19.7267,40.0509 L 19.7267,40.0368 L 19.7408,40.0227 L 19.7408,39.9945 L 19.7548,39.9804 L 19.7548,39.8396 L 19.7408,39.8255 L 19.7408,39.7832 L 19.7267,39.7832 L 19.7267,39.7691 L 19.7127,39.7550 L 19.7127,39.7410 L 19.6846,39.7410 L 19.6846,39.7269 L 19.6705,39.7269 " stroke="#7F7F7F" stroke-width="0.1201" stroke-linecap="round" stroke-linejoin="round" fill="none"/>
        <path d="M 19.6284,40.0227 L 19.6424,40.0227 L 19.6424,40.0086 L 19.6565,40.0086 L 19.6565,39.9945 L 19.6705,39.9945 L 19.6705,39.9664 L 19.6846,39.9664 L 19.6846,39.8537 L 19.6705,39.8537 L 19.6705,39.8255 L 19.6565,39.8255 L 19.6565,39.8114 L 19.6424,39.8114 L 19.6424,39.7973 L 19.6284,39.7973 " stroke="#7F7F7F" stroke-width="0.1201" stroke-linecap="round" stroke-linejoin="round" fill="none"/>
        <path d="M 19.4176,40.5580 L 19.4598,39.9382 L 19.5300,39.9382 L 19.5722,40.5580 L 19.4176,40.5580 Z" stroke="#7F7F7F" stroke-width="0.1201" stroke-linecap="round" stroke-linejoin="round" fill="#7F7F7F"/>
        <path d="M 26.2882,40.5299 L 26.3163,40.5299 L 26.3163,40.5158 L 26.3304,40.5158 L 26.3304,40.5017 L 26.3444,40.5017 L 26.3444,40.4453 L 26.3304,40.4312 L 26.3304,40.4172 L 26.3163,40.4172 L 26.3163,40.4031 L 26.3023,40.3749 L 26.2882,40.3608 L 26.2461,40.2763 L 26.2180,40.2481 L 26.1899,40.1918 L 26.1758,40.1495 L 26.1477,40.1213 L 26.1056,40.0368 L 26.0775,39.9945 L 26.0353,39.9100 L 26.0072,39.8818 L 25.9791,39.8255 L 25.9651,39.8114 L 25.9370,39.7550 L 25.9229,39.7410 L 25.9229,39.7269 L 25.9089,39.6987 L 25.8948,39.6846 L 25.8948,39.6705 L 25.8808,39.6564 L 25.8808,39.6423 L 25.8667,39.6423 L 25.8667,39.6283 L 25.8386,39.6283 L 25.8386,39.6142 L 25.8105,39.6142 L 25.8105,39.6283 L 25.7824,39.6283 L 25.7403,39.6705 L 25.7403,39.6846 L 25.7262,39.6987 L 25.7262,39.7128 L 25.6981,39.7410 L 25.6700,39.7973 L 25.6560,39.8114 L 25.5998,39.9241 L 25.5717,39.9664 L 25.5436,40.0227 L 25.5155,40.0509 L 25.5014,40.0931 L 25.4874,40.1213 L 25.4593,40.1495 L 25.4452,40.1918 L 25.4171,40.2481 L 25.3890,40.2904 L 25.3328,40.4031 L 25.3188,40.4172 L 25.3047,40.4453 L 25.2907,40.4594 L 25.2907,40.4735 L 25.2766,40.4735 L 25.2766,40.5017 L 25.2907,40.5017 L 25.2907,40.5158 L 25.3047,40.5158 L 25.3188,40.5299 L 26.2882,40.5299 L 26.2601,40.5017 L 26.3023,40.5017 L 26.3023,40.4876 L 26.3163,40.4876 L 26.3163,40.4594 L 26.3023,40.4594 L 26.3023,40.4312 L 26.2742,40.4031 L 26.2742,40.3890 L 26.2601,40.3749 L 26.2461,40.3467 L 26.2320,40.3326 L 26.2039,40.2763 L 26.1899,40.2622 L 26.0915,40.0650 L 26.0634,40.0368 L 25.9932,39.8959 L 25.9791,39.8818 L 25.9510,39.8255 L 25.9370,39.8114 L 25.9370,39.7973 L 25.9229,39.7691 L 25.9089,39.7550 L 25.9089,39.7410 L 25.8948,39.7269 L 25.8948,39.7128 L 25.8808,39.7128 L 25.8808,39.6987 L 25.8667,39.6846 L 25.8667,39.6705 L 25.8527,39.6705 L 25.8527,39.6564 L 25.8386,39.6564 L 25.8386,39.6423 L 25.8105,39.6423 L 25.7965,39.6564 L 25.7824,39.6564 L 25.7824,39.6846 L 25.7684,39.6846 L 25.7684,39.6987 L 25.7543,39.7128 L 25.7543,39.7269 L 25.7262,39.7550 L 25.7262,39.7832 L 25.7122,39.7973 L 25.6981,39.8255 L 25.6841,39.8396 L 25.6560,39.8959 L 25.6419,39.9100 L 25.6138,39.9664 L 25.5857,39.9945 L 25.5717,40.0227 L 25.5576,40.0650 L 25.5436,40.0931 L 25.5155,40.1213 L 25.4171,40.3185 L 25.4031,40.3326 L 25.3750,40.3890 L 25.3469,40.4172 L 25.3469,40.4312 L 25.3328,40.4312 L 25.3328,40.4594 L 25.3188,40.4594 L 25.3188,40.4876 L 25.3328,40.4876 L 25.3328,40.5017 L 26.2601,40.5017 L 26.2742,40.5158 L 26.2882,40.5299 Z" stroke="#7F7F7F" stroke-width="0.1201" stroke-linecap="round" stroke-linejoin="round" fill="#7F7F7F"/>
        <path d="M 25.8105,40.3467 L 25.8105,40.3045 L 25.8246,40.2904 L 25.8246,40.2199 L 25.8386,40.1918 L 25.8386,40.1354 L 25.8527,40.1072 L 25.8527,40.0227 L 25.8667,39.9945 L 25.8667,39.9241 L 25.8808,39.9100 L 25.8808,39.8396 L 25.8667,39.8396 L 25.8667,39.8255 L 25.8527,39.8255 L 25.8386,39.8114 L 25.7824,39.8114 L 25.7824,39.8255 L 25.7684,39.8255 L 25.7684,39.8396 L 25.7543,39.8396 L 25.7543,39.9382 L 25.7684,39.9523 L 25.7684,40.0509 L 25.7824,40.0650 L 25.7824,40.1636 L 25.7965,40.1777 L 25.7965,40.2763 L 25.8105,40.2904 L 25.8105,40.3326 L 25.8105,40.3467 Z" stroke="#7F7F7F" stroke-width="0.1201" stroke-linecap="round" stroke-linejoin="round" fill="#7F7F7F"/>
        <path d="M 29.1545,38.9943 L 29.1686,38.9943 L 29.1686,39.0084 L 29.1826,39.0084 L 29.1967,39.0225 L 29.2107,39.0225 L 29.2107,39.0366 L 29.2248,39.0366 L 29.2248,39.0507 L 29.2388,39.0648 L 29.2529,39.0648 L 29.2529,39.0788 L 29.2810,39.1070 L 29.2810,39.1211 L 29.2950,39.1352 L 29.2950,39.1493 L 29.3091,39.1634 L 29.3091,39.1915 L 29.3231,39.2056 L 29.3231,39.2479 L 29.3372,39.2620 L 29.3372,39.3888 L 29.3231,39.4169 L 29.3231,39.4592 L 29.3091,39.4733 L 29.3091,39.4874 L 29.2950,39.5015 L 29.2950,39.5296 L 29.2669,39.5578 L 29.2669,39.5719 L 29.1826,39.6564 L 29.1686,39.6564 L 29.1405,39.6846 L 29.1264,39.6846 L 29.1124,39.6987 L 29.0843,39.6987 L 29.0702,39.7128 L 29.0281,39.7128 L 29.0140,39.7269 L 28.9016,39.7269 L 28.8876,39.7128 L 28.8454,39.7128 L 28.8314,39.6987 L 28.8033,39.6987 L 28.7892,39.6846 L 28.7752,39.6846 L 28.7471,39.6564 L 28.7330,39.6564 L 28.6487,39.5719 L 28.6487,39.5578 L 28.6206,39.5296 L 28.6206,39.5015 L 28.6066,39.4874 L 28.6066,39.4733 L 28.5925,39.4592 L 28.5925,39.4169 L 28.5785,39.3888 L 28.5785,39.2620 L 28.5925,39.2479 L 28.5925,39.2056 L 28.6066,39.1915 L 28.6066,39.1775 L 28.6206,39.1634 L 28.6206,39.1493 L 28.6347,39.1352 L 28.6347,39.1211 L 28.6487,39.1070 L 28.6487,39.0929 L 28.6628,39.0929 L 28.6628,39.0788 L 28.7330,39.0084 L 28.7330,39.0225 L 28.7471,39.0225 L 28.7471,39.0366 L 28.7611,39.0507 L 28.7611,39.0648 L 28.7752,39.0648 L 28.7752,39.0788 L 28.7190,39.1352 L 28.7190,39.1493 L 28.7049,39.1493 L 28.7049,39.1634 L 28.6909,39.1775 L 28.6909,39.1915 L 28.6768,39.1915 L 28.6768,39.2197 L 28.6628,39.2338 L 28.6628,39.2620 L 28.6487,39.2761 L 28.6487,39.4029 L 28.6628,39.4169 L 28.6628,39.4451 L 28.6768,39.4592 L 28.6768,39.4733 L 28.6909,39.4874 L 28.6909,39.5015 L 28.7049,39.5156 L 28.7049,39.5296 L 28.7330,39.5578 L 28.7471,39.5578 L 28.7471,39.5719 L 28.7752,39.6001 L 28.7892,39.6001 L 28.8033,39.6142 L 28.8173,39.6142 L 28.8314,39.6283 L 28.8454,39.6283 L 28.8454,39.6423 L 28.8876,39.6423 L 28.9016,39.6564 L 29.0140,39.6564 L 29.0281,39.6423 L 29.0702,39.6423 L 29.0983,39.6142 L 29.1124,39.6142 L 29.1264,39.6001 L 29.1405,39.6001 L 29.2107,39.5296 L 29.2107,39.5156 L 29.2248,39.5015 L 29.2248,39.4874 L 29.2388,39.4733 L 29.2388,39.4592 L 29.2529,39.4451 L 29.2529,39.4169 L 29.2669,39.4029 L 29.2669,39.2761 L 29.2529,39.2620 L 29.2529,39.2197 L 29.2388,39.2197 L 29.2388,39.1915 L 29.2248,39.1915 L 29.2248,39.1634 L 29.2107,39.1634 L 29.2107,39.1493 L 29.1967,39.1493 L 29.1967,39.1352 L 29.1826,39.1352 L 29.1826,39.1211 L 29.1686,39.1211 L 29.1686,39.1070 L 29.1545,39.1070 L 29.1264,39.0788 L 29.1124,39.0788 L 29.1124,39.0648 L 29.0983,39.0648 L 29.0983,39.0507 L 29.1124,39.0507 L 29.1124,39.0366 L 29.1264,39.0366 L 29.1264,39.0225 L 29.1405,39.0225 L 29.1405,39.0084 L 29.1545,39.0084 L 29.1545,38.9943 Z" stroke="#7F7F7F" stroke-width="0.1201" stroke-linecap="round" stroke-linejoin="round" fill="#7F7F7F"/>
        <path d="M 28.9859,38.8253 L 28.9016,38.8253 L 28.9016,39.3606 L 28.9859,39.3606 L 28.9859,38.8253 Z" stroke="#7F7F7F" stroke-width="0.1201" stroke-linecap="round" stroke-linejoin="round" fill="#7F7F7F"/>
        <text font-family="Arial" fill="#BFBFBF" style="white-space:pre;" text-anchor="start" x="17.5630" y="24.4701" font-size="1.7141"><![CDATA[F]]></text>
        <text font-family="Arial" fill="#BFBFBF" style="white-space:pre;" text-anchor="start" x="18.6167" y="24.4701" font-size="1.7141"><![CDATA[o]]></text>
        <text font-family="Arial" fill="#BFBFBF" style="white-space:pre;" text-anchor="start" x="19.5722" y="24.4701" font-size="1.7141"><![CDATA[r]]></text>
        <text font-family="Arial" fill="#BFBFBF" style="white-space:pre;" text-anchor="start" x="20.1482" y="24.4701" font-size="1.7141"><![CDATA[t]]></text>
        <text font-family="Arial" fill="#BFBFBF" style="white-space:pre;" text-anchor="start" x="20.6259" y="24.4701" font-size="1.7141"><![CDATA[i]]></text>
        <text font-family="Arial" fill="#BFBFBF" style="white-space:pre;" text-anchor="start" x="21.0053" y="24.4701" font-size="1.7141"><![CDATA[A]]></text>
        <text font-family="Arial" fill="#BFBFBF" style="white-space:pre;" text-anchor="start" x="22.1574" y="24.4701" font-size="1.7141"><![CDATA[P]]></text>
        <text font-family="Arial" fill="#BFBFBF" style="white-space:pre;" text-anchor="start" x="23.3096" y="24.4701" font-size="1.7141"><![CDATA[ ]]></text>
        <text font-family="Arial" fill="#BFBFBF" style="white-space:pre;" text-anchor="start" x="23.7873" y="24.4701" font-size="1.7141"><![CDATA[2]]></text>
        <text font-family="Arial" fill="#BFBFBF" style="white-space:pre;" text-anchor="start" x="24.7427" y="24.4701" font-size="1.7141"><![CDATA[2]]></text>
        <text font-family="Arial" fill="#BFBFBF" style="white-space:pre;" text-anchor="start" x="25.6981" y="24.4701" font-size="1.7141"><![CDATA[1]]></text>
        <text font-family="Arial" fill="#BFBFBF" style="white-space:pre;" text-anchor="start" x="26.6536" y="24.4701" font-size="1.7141"><![CDATA[E]]></text>
        <path d="M 15.3009,22.2301 L 15.2728,22.2301 L 15.2587,22.2161 L 15.2447,22.2161 L 15.2025,22.1738 L 15.2025,22.1597 L 15.1885,22.1456 L 15.1885,20.6805 L 15.2025,20.6664 L 15.2025,20.6523 L 15.2166,20.6382 L 15.2306,20.6382 L 15.2306,20.6242 L 15.2447,20.6101 L 15.2587,20.6101 L 15.2728,20.5960 L 16.9869,20.5960 L 17.0009,20.6101 L 17.0150,20.6101 L 17.0572,20.6523 L 17.0572,20.6664 L 17.0712,20.6805 L 17.0712,20.9763 L 17.0572,20.9763 L 17.0572,20.9623 L 17.0431,20.9482 L 17.0291,20.9482 L 17.0291,20.9341 L 17.0009,20.9341 L 17.0009,20.9200 L 15.6100,20.9200 L 15.6100,20.9341 L 15.5959,20.9341 L 15.5959,20.9482 L 15.5819,20.9482 L 15.5819,20.9623 L 15.5678,20.9623 L 15.5678,22.1879 L 15.5819,22.1879 L 15.5819,22.2161 L 15.5959,22.2161 L 15.6100,22.2301 L 15.3149,22.2301 L 15.3009,22.2301 Z" stroke="#C1C1C1" stroke-width="0.1201" stroke-linecap="round" stroke-linejoin="round" fill="#BFBFBF"/>
        <path d="M 16.9307,21.2863 L 15.6802,21.2863 L 15.6802,21.2722 L 15.6662,21.2722 L 15.6662,21.2581 L 15.6521,21.2581 L 15.6521,21.2440 L 15.6381,21.2299 L 15.6381,21.5539 L 15.6521,21.5539 L 15.6521,21.5680 L 15.6662,21.5680 L 15.6662,21.5821 L 15.6802,21.5821 L 15.6802,21.5962 L 16.9588,21.5962 L 16.9728,21.5821 L 16.9869,21.5821 L 17.0009,21.5680 L 17.0009,21.5539 L 17.0150,21.5399 L 17.0291,21.5399 L 17.0291,21.5258 L 17.0431,21.5117 L 17.0431,21.4835 L 17.0572,21.4835 L 17.0572,21.3990 L 17.0431,21.3849 L 17.0431,21.3708 L 17.0291,21.3567 L 17.0291,21.3426 L 17.0150,21.3426 L 16.9869,21.3145 L 16.9728,21.3145 L 16.9728,21.3004 L 16.9588,21.3004 L 16.9447,21.2863 L 16.9307,21.2863 Z" stroke="#C1C1C1" stroke-width="0.1201" stroke-linecap="round" stroke-linejoin="round" fill="#BFBFBF"/>
        <path d="M 19.8672,21.5962 L 19.8391,21.5962 L 19.8251,21.5821 L 19.8110,21.5821 L 19.8110,21.5680 L 19.7970,21.5680 L 19.7970,21.5539 L 19.7829,21.5539 L 19.7829,21.2299 L 19.7970,21.2440 L 19.7970,21.2581 L 19.8110,21.2581 L 19.8110,21.2722 L 19.8391,21.2722 L 19.8391,21.2863 L 20.8508,21.2863 L 20.8508,20.9200 L 19.7548,20.9200 L 19.7548,20.9341 L 19.7408,20.9341 L 19.7408,20.9482 L 19.7267,20.9482 L 19.7267,20.9623 L 19.7127,20.9623 L 19.7127,22.1738 L 19.7267,22.1738 L 19.7267,22.2020 L 19.7408,22.2020 L 19.7408,22.2161 L 19.7548,22.2161 L 19.7548,22.2301 L 19.4176,22.2301 L 19.4176,22.2161 L 19.3895,22.2161 L 19.3895,22.2020 L 19.3755,22.2020 L 19.3755,22.1879 L 19.3614,22.1879 L 19.3614,22.1597 L 19.3474,22.1597 L 19.3474,20.6664 L 19.3614,20.6664 L 19.3614,20.6382 L 19.3755,20.6382 L 19.3755,20.6242 L 19.3895,20.6242 L 19.3895,20.6101 L 19.4176,20.6101 L 19.4176,20.5960 L 21.1458,20.5960 L 21.1458,20.6101 L 21.1739,20.6101 L 21.1739,20.6242 L 21.2020,20.6523 L 21.2020,20.6664 L 21.2161,20.6805 L 21.2161,21.4835 L 21.2020,21.4835 L 21.2020,21.5117 L 21.1880,21.5117 L 21.1880,21.5258 L 21.1739,21.5399 L 21.1739,21.5539 L 21.1599,21.5539 L 21.1599,21.5680 L 21.1458,21.5680 L 21.1458,21.5821 L 21.1318,21.5821 L 21.1318,21.5962 L 21.1177,21.5962 L 21.1458,21.6244 L 21.1458,21.6385 L 21.1599,21.6385 L 21.1599,21.6526 L 21.1739,21.6526 L 21.1739,21.6666 L 21.1880,21.6807 L 21.1880,21.6948 L 21.2020,21.6948 L 21.2020,21.7230 L 21.2161,21.7230 L 21.2161,22.1738 L 21.2301,22.1738 L 21.2301,22.2020 L 21.2442,22.2020 L 21.2442,22.2161 L 21.2582,22.2161 L 21.2582,22.2301 L 20.9210,22.2301 L 20.9210,22.2161 L 20.8929,22.2161 L 20.8929,22.2020 L 20.8789,22.2020 L 20.8789,22.1879 L 20.8648,22.1879 L 20.8648,22.1597 L 20.8508,22.1597 L 20.8508,21.5962 L 19.8813,21.5962 L 19.8672,21.5962 Z" stroke="#C1C1C1" stroke-width="0.1201" stroke-linecap="round" stroke-linejoin="round" fill="#BFBFBF"/>
        <path d="M 21.8764,20.9200 L 21.4971,20.9200 L 21.4830,20.9059 L 21.4690,20.9059 L 21.4409,20.8777 L 21.4268,20.8777 L 21.4268,20.8496 L 21.4128,20.8496 L 21.4128,20.6805 L 21.4268,20.6664 L 21.4268,20.6523 L 21.4409,20.6382 L 21.4549,20.6382 L 21.4549,20.6242 L 21.4690,20.6101 L 21.4830,20.6101 L 21.4971,20.5960 L 23.2112,20.5960 L 23.2253,20.6101 L 23.2393,20.6101 L 23.2815,20.6523 L 23.2815,20.6664 L 23.2955,20.6805 L 23.2955,20.9763 L 23.2815,20.9763 L 23.2815,20.9623 L 23.2674,20.9482 L 23.2534,20.9482 L 23.2534,20.9341 L 23.2253,20.9341 L 23.2253,20.9200 L 22.2979,20.9200 L 22.2839,20.9341 L 22.2698,20.9341 L 22.2698,20.9482 L 22.2558,20.9482 L 22.2558,20.9623 L 22.2417,20.9763 L 22.2417,22.1738 L 22.2558,22.1738 L 22.2558,22.2020 L 22.2698,22.2020 L 22.2698,22.2161 L 22.2839,22.2161 L 22.2839,22.2301 L 21.9467,22.2301 L 21.9467,22.2161 L 21.9186,22.2161 L 21.9186,22.2020 L 21.9045,22.2020 L 21.9045,22.1879 L 21.8905,22.1879 L 21.8905,22.1597 L 21.8764,22.1597 L 21.8764,20.9623 L 21.8764,20.9200 Z" stroke="#C1C1C1" stroke-width="0.1201" stroke-linecap="round" stroke-linejoin="round" fill="#BFBFBF"/>
        <path d="M 23.8435,22.1315 L 23.8435,22.1738 L 23.8575,22.1738 L 23.8575,22.2020 L 23.8716,22.2020 L 23.8716,22.2161 L 23.8856,22.2161 L 23.8856,22.2301 L 23.5625,22.2301 L 23.5484,22.2161 L 23.5344,22.2161 L 23.4922,22.1738 L 23.4922,22.1597 L 23.4782,22.1456 L 23.4782,20.6382 L 23.4641,20.6382 L 23.4641,20.6101 L 23.4501,20.6101 L 23.4360,20.5960 L 23.7732,20.5960 L 23.7732,20.6101 L 23.8013,20.6101 L 23.8013,20.6242 L 23.8154,20.6242 L 23.8154,20.6382 L 23.8294,20.6382 L 23.8294,20.6664 L 23.8435,20.6664 L 23.8435,22.1174 L 23.8435,22.1315 Z" stroke="#C1C1C1" stroke-width="0.1201" stroke-linecap="round" stroke-linejoin="round" fill="#BFBFBF"/>
        <path d="M 25.6560,20.9200 L 24.5600,20.9200 L 24.5600,20.9341 L 24.5460,20.9341 L 24.5460,20.9482 L 24.5319,20.9482 L 24.5319,20.9623 L 24.5179,20.9623 L 24.5179,22.1738 L 24.5319,22.1738 L 24.5319,22.2020 L 24.5460,22.2020 L 24.5460,22.2161 L 24.5600,22.2161 L 24.5600,22.2301 L 24.2228,22.2301 L 24.2228,22.2161 L 24.1947,22.2161 L 24.1947,22.2020 L 24.1807,22.2020 L 24.1807,22.1879 L 24.1666,22.1879 L 24.1666,22.1597 L 24.1526,22.1597 L 24.1526,20.6664 L 24.1666,20.6664 L 24.1666,20.6382 L 24.1807,20.6382 L 24.1807,20.6242 L 24.1947,20.6242 L 24.1947,20.6101 L 24.2228,20.6101 L 24.2228,20.5960 L 25.9510,20.5960 L 25.9510,20.6101 L 25.9791,20.6101 L 25.9791,20.6242 L 26.0072,20.6523 L 26.0072,20.6664 L 26.0213,20.6805 L 26.0213,22.1738 L 26.0353,22.1738 L 26.0353,22.2020 L 26.0494,22.2020 L 26.0494,22.2161 L 26.0634,22.2161 L 26.0634,22.2301 L 25.7262,22.2301 L 25.7262,22.2161 L 25.6981,22.2161 L 25.6981,22.2020 L 25.6841,22.2020 L 25.6841,22.1879 L 25.6700,22.1879 L 25.6700,22.1597 L 25.6560,22.1597 L 25.6560,20.9623 L 25.6560,20.9200 Z" stroke="#C1C1C1" stroke-width="0.1201" stroke-linecap="round" stroke-linejoin="round" fill="#BFBFBF"/>
        <path d="M 27.8759,21.2863 L 26.6957,21.2863 L 26.6957,21.2722 L 26.6817,21.2722 L 26.6817,21.2581 L 26.6676,21.2581 L 26.6676,21.2440 L 26.6536,21.2299 L 26.6536,21.5539 L 26.6676,21.5539 L 26.6676,21.5680 L 26.6817,21.5680 L 26.6817,21.5821 L 26.6957,21.5821 L 26.6957,21.5962 L 27.8900,21.5962 L 27.9040,21.5821 L 27.9181,21.5821 L 27.9321,21.5680 L 27.9321,21.5539 L 27.9602,21.5258 L 27.9602,21.5117 L 27.9743,21.4976 L 27.9743,21.4694 L 27.9883,21.4553 L 27.9883,21.4131 L 27.9743,21.3990 L 27.9743,21.3708 L 27.9602,21.3567 L 27.9602,21.3426 L 27.9462,21.3426 L 27.9462,21.3285 L 27.9321,21.3285 L 27.9321,21.3145 L 27.9181,21.3145 L 27.8900,21.2863 L 27.8759,21.2863 Z" stroke="#C1C1C1" stroke-width="0.1201" stroke-linecap="round" stroke-linejoin="round" fill="#BFBFBF"/>
        <path d="M 28.7471,20.9200 L 28.3677,20.9200 L 28.3536,20.9059 L 28.3396,20.9059 L 28.3115,20.8777 L 28.2974,20.8777 L 28.2974,20.8496 L 28.2834,20.8496 L 28.2834,20.6805 L 28.2974,20.6664 L 28.2974,20.6523 L 28.3115,20.6382 L 28.3255,20.6382 L 28.3255,20.6242 L 28.3396,20.6101 L 28.3536,20.6101 L 28.3677,20.5960 L 30.0818,20.5960 L 30.0959,20.6101 L 30.1099,20.6101 L 30.1521,20.6523 L 30.1521,20.6664 L 30.1661,20.6805 L 30.1661,20.9763 L 30.1521,20.9763 L 30.1521,20.9623 L 30.1380,20.9482 L 30.1240,20.9482 L 30.1240,20.9341 L 30.0959,20.9341 L 30.0959,20.9200 L 29.1686,20.9200 L 29.1545,20.9341 L 29.1405,20.9341 L 29.1405,20.9482 L 29.1264,20.9482 L 29.1264,20.9623 L 29.1124,20.9763 L 29.1124,22.1738 L 29.1264,22.1738 L 29.1264,22.2020 L 29.1405,22.2020 L 29.1405,22.2161 L 29.1545,22.2161 L 29.1545,22.2301 L 28.8173,22.2301 L 28.8173,22.2161 L 28.7892,22.2161 L 28.7892,22.2020 L 28.7752,22.2020 L 28.7752,22.1879 L 28.7611,22.1879 L 28.7611,22.1597 L 28.7471,22.1597 L 28.7471,20.9623 L 28.7471,20.9200 Z" stroke="#C1C1C1" stroke-width="0.1201" stroke-linecap="round" stroke-linejoin="round" fill="#BFBFBF"/>
        <path d="M 28.0024,21.9061 L 28.0305,21.9061 L 28.0445,21.8920 L 28.0586,21.8920 L 28.0586,21.8780 L 28.0726,21.8780 L 28.0867,21.8639 L 28.0867,21.8498 L 28.1007,21.8498 L 28.1007,22.1456 L 28.0867,22.1597 L 28.0867,22.1738 L 28.0726,22.1879 L 28.0726,22.2020 L 28.0586,22.2020 L 28.0445,22.2161 L 28.0305,22.2161 L 28.0164,22.2301 L 26.3023,22.2301 L 26.2882,22.2161 L 26.2742,22.2161 L 26.2320,22.1738 L 26.2320,22.1597 L 26.2180,22.1456 L 26.2180,20.6805 L 26.2320,20.6664 L 26.2320,20.6523 L 26.2461,20.6382 L 26.2601,20.6382 L 26.2601,20.6242 L 26.2742,20.6101 L 26.2882,20.6101 L 26.3023,20.5960 L 28.0164,20.5960 L 28.0305,20.6101 L 28.0445,20.6101 L 28.0867,20.6523 L 28.0867,20.6664 L 28.1007,20.6805 L 28.1007,20.9763 L 28.0867,20.9763 L 28.0867,20.9623 L 28.0726,20.9482 L 28.0586,20.9482 L 28.0586,20.9341 L 28.0305,20.9341 L 28.0305,20.9200 L 26.6395,20.9200 L 26.6395,20.9341 L 26.6255,20.9341 L 26.6255,20.9482 L 26.6114,20.9482 L 26.6114,20.9623 L 26.5974,20.9623 L 26.5974,21.9061 L 27.9883,21.9061 L 28.0024,21.9061 Z" stroke="#C1C1C1" stroke-width="0.1201" stroke-linecap="round" stroke-linejoin="round" fill="#BFBFBF"/>
        <path d="M 17.8861,21.7512 L 17.8861,22.2161 L 18.5043,22.2161 L 18.5043,21.7512 L 17.8861,21.7512 Z" stroke="#C1C1C1" stroke-width="0.1201" stroke-linecap="round" stroke-linejoin="round" fill="#BFBFBF"/>
        <path d="M 17.2679,21.1877 L 17.7878,21.1877 L 17.7878,21.6385 L 17.2679,21.6385 L 17.2679,21.1877 Z" stroke="#C1C1C1" stroke-width="0.1201" stroke-linecap="round" stroke-linejoin="round" fill="#BFBFBF"/>
        <path d="M 18.6167,21.7512 L 18.6167,22.2161 L 18.8275,22.2161 L 18.8415,22.2020 L 18.8696,22.2020 L 18.8837,22.1879 L 18.9118,22.1879 L 18.9259,22.1738 L 18.9540,22.1738 L 18.9961,22.1315 L 19.0242,22.1174 L 19.0383,22.1034 L 19.0523,22.0752 L 19.0664,22.0611 L 19.0804,22.0329 L 19.0804,22.0188 L 19.1085,21.9625 L 19.1085,21.9343 L 19.1226,21.9061 L 19.1226,21.8639 L 19.1366,21.8357 L 19.1366,21.7512 L 18.6308,21.7512 L 18.6167,21.7512 Z" stroke="#C1C1C1" stroke-width="0.1201" stroke-linecap="round" stroke-linejoin="round" fill="#BFBFBF"/>
        <path d="M 18.6167,21.1877 L 19.1366,21.1877 L 19.1366,21.6385 L 18.6167,21.6385 L 18.6167,21.1877 Z" stroke="#C1C1C1" stroke-width="0.1201" stroke-linecap="round" stroke-linejoin="round" fill="#BFBFBF"/>
        <path d="M 17.7878,21.7512 L 17.7878,22.2161 L 17.5770,22.2161 L 17.5630,22.2020 L 17.5349,22.2020 L 17.5208,22.1879 L 17.4927,22.1879 L 17.4787,22.1738 L 17.4506,22.1738 L 17.4084,22.1315 L 17.3803,22.1174 L 17.3663,22.1034 L 17.3522,22.0752 L 17.3382,22.0611 L 17.3241,22.0329 L 17.3241,22.0188 L 17.2960,21.9625 L 17.2960,21.9343 L 17.2820,21.9061 L 17.2820,21.8639 L 17.2679,21.8357 L 17.2679,21.7512 L 17.7737,21.7512 L 17.7878,21.7512 Z" stroke="#C1C1C1" stroke-width="0.1201" stroke-linecap="round" stroke-linejoin="round" fill="#BFBFBF"/>
        <path d="M 17.8861,20.6101 L 17.8861,21.0750 L 18.5043,21.0750 L 18.5043,20.6101 L 17.8861,20.6101 Z" stroke="#C1C1C1" stroke-width="0.1201" stroke-linecap="round" stroke-linejoin="round" fill="#BFBFBF"/>
        <path d="M 18.6167,21.0750 L 18.6167,20.6101 L 18.8275,20.6101 L 18.8415,20.6242 L 18.8696,20.6242 L 18.8837,20.6382 L 18.9118,20.6382 L 18.9259,20.6523 L 18.9540,20.6523 L 18.9961,20.6946 L 19.0242,20.7087 L 19.0383,20.7228 L 19.0523,20.7509 L 19.0664,20.7650 L 19.0804,20.7932 L 19.0804,20.8073 L 19.1085,20.8636 L 19.1085,20.8918 L 19.1226,20.9200 L 19.1226,20.9623 L 19.1366,20.9904 L 19.1366,21.0750 L 18.6308,21.0750 L 18.6167,21.0750 Z" stroke="#C1C1C1" stroke-width="0.1201" stroke-linecap="round" stroke-linejoin="round" fill="#BFBFBF"/>
        <path d="M 17.7878,21.0750 L 17.7878,20.6101 L 17.5770,20.6101 L 17.5630,20.6242 L 17.5349,20.6242 L 17.5208,20.6382 L 17.4927,20.6382 L 17.4787,20.6523 L 17.4506,20.6523 L 17.4084,20.6946 L 17.3803,20.7087 L 17.3663,20.7228 L 17.3522,20.7509 L 17.3382,20.7650 L 17.3241,20.7932 L 17.3241,20.8073 L 17.2960,20.8636 L 17.2960,20.8918 L 17.2820,20.9200 L 17.2820,20.9623 L 17.2679,20.9904 L 17.2679,21.0750 L 17.7737,21.0750 L 17.7878,21.0750 Z" stroke="#C1C1C1" stroke-width="0.1201" stroke-linecap="round" stroke-linejoin="round" fill="#BFBFBF"/>
        <text font-family="Symbol" fill="#7F7F7F" style="white-space:pre;" text-anchor="start" x="29.6182" y="22.2020" font-size="0.4918"><![CDATA[]]></text>
        <ellipse cx="22.6211" cy="22.6739" rx="22.5930" ry="22.6457" fill="none" stroke="#000000" stroke-width="0.1201" stroke-linecap="round" stroke-linejoin="round"/>
        <ellipse cx="22.6211" cy="22.6739" rx="22.5930" ry="22.6457" fill="none" stroke="#000000" stroke-width="0.1201" stroke-linecap="round" stroke-linejoin="round"/>
        <ellipse cx="22.5834" cy="6.6367" rx="0.2631" ry="0.2638" fill="#00FF00" stroke="#000000" stroke-width="0.1201" stroke-linecap="round" stroke-linejoin="round"/>
        <ellipse cx="22.5834" cy="6.6367" rx="0.2631" ry="0.2638" fill="none" stroke="#000000" stroke-width="0.1201" stroke-linecap="round" stroke-linejoin="round"/>
      </g>
      <!--emf-blob end-->
    </g>
  </g>
</svg>
