<svg xmlns="http://www.w3.org/2000/svg" xmlns:xlink="http://www.w3.org/1999/xlink" version="1.1" width="5.9292000000" height="5.0564000000" viewBox="0 0 106.7237 91.0185">
  <title><![CDATA[FAP-U221/223EV]]></title>
  <g transform=" scale(4.000000) ">
    <!--converted by libvisio2svg-->
    <g transform=" translate(25.015400,0.720000) ">
      <!--emf-blob start-->
      <g transform="translate(-0.0000, -0.0000)">
        <path d="M 26.4774,56.6367 L 25.8043,56.6367 L 24.4580,56.6086 L 22.4385,56.5243 L 21.7794,56.4821 L 21.1062,56.4399 L 20.4471,56.3978 L 19.1569,56.2853 L 17.8666,56.1448 L 17.2356,56.0745 L 16.0014,55.9059 L 15.3844,55.8075 L 14.7814,55.7091 L 14.1923,55.6108 L 13.6033,55.4983 L 13.0283,55.3859 L 12.4674,55.2735 L 11.9064,55.1470 L 11.3735,55.0205 L 10.8406,54.8800 L 10.3217,54.7394 L 9.8168,54.5989 L 8.8352,54.2897 L 8.3724,54.1211 L 7.9236,53.9524 L 7.4888,53.7838 L 6.9279,53.5589 L 6.6614,53.4465 L 6.4090,53.3200 L 5.9041,53.0951 L 5.6797,52.9687 L 5.4413,52.8422 L 5.2310,52.7157 L 5.0066,52.5751 L 4.8103,52.4487 L 4.5999,52.3081 L 4.4176,52.1676 L 4.2212,52.0130 L 4.0530,51.8584 L 3.8706,51.7038 L 3.7164,51.5352 L 3.5481,51.3665 L 3.3938,51.1979 L 3.1133,50.8325 L 2.8329,50.4390 L 2.7207,50.2282 L 2.5945,50.0174 L 2.3701,49.5676 L 2.2719,49.3287 L 2.1597,49.0758 L 2.0756,48.8228 L 1.9774,48.5558 L 1.8932,48.2747 L 1.7109,47.7266 L 1.5286,47.1223 L 1.3744,46.4758 L 1.2201,45.8012 L 1.0939,45.0845 L 0.9677,44.3537 L 0.8414,43.5807 L 0.7433,42.7937 L 0.6451,41.9927 L 0.5469,41.1775 L 0.3366,38.6900 L 0.2805,37.8609 L 0.2384,37.0457 L 0.1963,36.2447 L 0.1543,35.4577 L 0.1262,34.6847 L 0.0982,33.9398 L 0.0841,33.2231 L 0.0561,32.5345 L 0.0421,31.8880 L 0.0421,31.2837 L 0.0280,30.7215 L 0.0280,28.3324 L 0.0421,27.5313 L 0.0421,26.7303 L 0.0701,25.1562 L 0.0982,24.3833 L 0.1122,23.6103 L 0.1402,22.8374 L 0.1683,22.0785 L 0.1963,21.3336 L 0.2384,20.5888 L 0.2665,19.8580 L 0.3085,19.1412 L 0.3646,18.4245 L 0.4067,17.7218 L 0.4628,17.0332 L 0.6030,15.6840 L 0.7433,14.3911 L 0.8274,13.7727 L 0.9256,13.1543 L 1.0238,12.5641 L 1.1219,11.9879 L 1.2341,11.4117 L 1.3463,10.8636 L 1.4725,10.3295 L 1.5987,9.8236 L 1.7390,9.3176 L 1.8792,8.8398 L 2.0335,8.3760 L 2.2018,7.9404 L 2.3701,7.5188 L 2.4823,7.3220 L 2.6085,7.1253 L 2.7207,6.9285 L 2.8469,6.7458 L 2.9591,6.5772 L 3.0853,6.3945 L 3.1975,6.2258 L 3.3237,6.0712 L 3.4499,5.9026 L 3.5761,5.7620 L 3.8286,5.4529 L 4.2353,5.0453 L 4.3895,4.9188 L 4.5298,4.7923 L 4.6840,4.6659 L 4.8383,4.5534 L 4.9926,4.4269 L 5.3291,4.2021 L 5.5115,4.1037 L 5.6938,3.9913 L 5.8761,3.8929 L 6.2688,3.6961 L 6.6895,3.4994 L 6.9139,3.4151 L 7.1382,3.3167 L 7.3767,3.2324 L 7.9516,3.0356 L 9.1297,2.6702 L 9.7327,2.4875 L 10.3498,2.3189 L 10.9668,2.1643 L 11.5979,1.9956 L 12.2290,1.8551 L 12.8601,1.7005 L 13.5052,1.5600 L 14.1503,1.4335 L 14.8094,1.2929 L 15.4685,1.1805 L 16.1277,1.0540 L 16.7868,0.9557 L 17.4599,0.8432 L 18.1191,0.7448 L 20.1385,0.4919 L 21.4849,0.3513 L 22.8312,0.2389 L 23.4903,0.1827 L 24.1634,0.1405 L 26.1408,0.0562 L 26.8000,0.0422 L 27.4451,0.0281 L 29.0999,0.0281 L 29.7450,0.0422 L 30.4042,0.0562 L 32.3815,0.1405 L 33.0547,0.1827 L 33.7138,0.2389 L 35.0601,0.3513 L 36.4064,0.4919 L 38.4259,0.7448 L 39.0850,0.8432 L 39.7582,0.9557 L 40.4173,1.0540 L 41.0765,1.1805 L 41.7356,1.2929 L 42.3947,1.4335 L 43.0398,1.5600 L 43.6849,1.7005 L 44.3160,1.8551 L 44.9471,1.9956 L 45.5782,2.1643 L 46.1952,2.3189 L 46.8123,2.4875 L 47.4153,2.6702 L 48.5934,3.0356 L 49.1683,3.2324 L 49.4067,3.3167 L 49.6311,3.4151 L 49.8555,3.4994 L 50.2762,3.6961 L 50.6689,3.8929 L 50.8512,3.9913 L 51.0335,4.1037 L 51.2159,4.2021 L 51.5524,4.4269 L 51.7067,4.5534 L 51.8610,4.6659 L 52.0152,4.7923 L 52.1555,4.9188 L 52.3097,5.0453 L 52.7164,5.4529 L 52.9689,5.7620 L 53.0951,5.9026 L 53.2213,6.0712 L 53.3475,6.2258 L 53.4597,6.3945 L 53.5859,6.5772 L 53.6981,6.7458 L 53.8243,6.9285 L 53.9365,7.1253 L 54.0627,7.3220 L 54.1749,7.5188 L 54.3432,7.9404 L 54.5115,8.3760 L 54.6658,8.8398 L 54.8060,9.3176 L 54.9463,9.8236 L 55.0725,10.3295 L 55.1987,10.8636 L 55.3109,11.4117 L 55.4231,11.9879 L 55.5212,12.5641 L 55.6194,13.1543 L 55.7176,13.7727 L 55.8017,14.3911 L 55.9420,15.6840 L 56.0822,17.0332 L 56.1383,17.7218 L 56.1804,18.4245 L 56.2365,19.1412 L 56.2785,19.8580 L 56.3066,20.5888 L 56.3487,21.3336 L 56.3767,22.0785 L 56.4048,22.8374 L 56.4328,23.6103 L 56.4468,24.3833 L 56.4749,25.1562 L 56.5029,26.7303 L 56.5029,27.5313 L 56.5169,28.3324 L 56.5169,30.7215 L 56.5029,31.2837 L 56.5029,31.8880 L 56.4889,32.5345 L 56.4608,33.2231 L 56.4468,33.9398 L 56.4188,34.6847 L 56.3907,35.4577 L 56.3487,36.2447 L 56.3066,37.0457 L 56.2645,37.8609 L 56.2084,38.6900 L 55.9981,41.1775 L 55.8999,41.9927 L 55.8017,42.7937 L 55.7036,43.5807 L 55.5773,44.3537 L 55.4511,45.0845 L 55.3249,45.8012 L 55.1706,46.4758 L 55.0164,47.1223 L 54.8341,47.7266 L 54.6517,48.2747 L 54.5676,48.5558 L 54.4694,48.8228 L 54.3853,49.0758 L 54.2731,49.3287 L 54.1749,49.5676 L 53.9505,50.0174 L 53.8243,50.2282 L 53.7121,50.4390 L 53.4317,50.8325 L 53.1512,51.1979 L 52.9969,51.3665 L 52.8286,51.5352 L 52.6744,51.7038 L 52.4920,51.8584 L 52.3238,52.0130 L 52.1274,52.1676 L 51.9451,52.3081 L 51.7347,52.4487 L 51.5384,52.5751 L 51.3140,52.7157 L 51.1037,52.8422 L 50.8653,52.9687 L 50.6409,53.0951 L 50.1360,53.3200 L 49.8836,53.4465 L 49.6171,53.5589 L 49.0561,53.7838 L 48.6214,53.9524 L 48.1726,54.1211 L 47.7098,54.2897 L 46.7282,54.5989 L 46.2233,54.7394 L 45.7044,54.8800 L 45.1715,55.0205 L 44.6386,55.1470 L 44.0776,55.2735 L 43.5166,55.3859 L 42.9417,55.4983 L 42.3526,55.6108 L 41.7636,55.7091 L 40.5576,55.9059 L 39.9265,55.9902 L 39.3094,56.0745 L 38.6783,56.1448 L 37.3881,56.2853 L 36.0979,56.3978 L 35.4388,56.4399 L 34.7656,56.4821 L 34.1065,56.5243 L 32.0870,56.6086 L 30.7407,56.6367 L 26.4914,56.6367 L 26.4774,56.6367 Z" stroke="#000000" stroke-width="0.1199" stroke-linecap="round" stroke-linejoin="round" fill="#BFBFBF"/>
        <path d="M 26.4914,55.9199 L 25.8323,55.9199 L 25.1872,55.9059 L 24.5281,55.8918 L 23.8830,55.8778 L 23.2238,55.8497 L 22.5787,55.8356 L 21.9336,55.7935 L 21.2885,55.7654 L 20.6434,55.7232 L 20.0123,55.6670 L 19.3812,55.6248 L 18.7642,55.5686 L 17.5301,55.4281 L 16.3240,55.2875 L 15.1460,55.1189 L 14.5710,55.0205 L 14.0100,54.9221 L 13.4491,54.8097 L 12.9021,54.6973 L 11.8363,54.4724 L 11.3174,54.3319 L 10.8125,54.2054 L 10.3217,54.0648 L 9.8449,53.9243 L 9.3821,53.7697 L 8.9333,53.6151 L 8.4986,53.4465 L 7.7974,53.1654 L 7.2645,52.9405 L 7.0120,52.8281 L 6.5352,52.6033 L 6.0864,52.3503 L 5.6657,52.0973 L 5.4694,51.9708 L 5.0767,51.6898 L 4.9084,51.5492 L 4.7261,51.3946 L 4.5578,51.2400 L 4.4036,51.0854 L 4.0950,50.7482 L 3.6743,50.2001 L 3.5481,50.0033 L 3.4359,49.8066 L 3.3097,49.5817 L 3.1975,49.3709 L 3.0993,49.1460 L 2.9871,48.9071 L 2.8890,48.6682 L 2.8048,48.4152 L 2.7066,48.1482 L 2.6225,47.8812 L 2.4262,47.3471 L 2.2438,46.8131 L 2.0756,46.2791 L 1.9353,45.7310 L 1.6548,44.6067 L 1.5426,44.0445 L 1.3463,42.8921 L 1.2622,42.3159 L 1.1920,41.7256 L 1.0799,40.5451 L 1.0238,39.9408 L 0.9817,39.3365 L 0.9256,38.1279 L 0.9116,37.5236 L 0.8975,36.9052 L 0.8835,36.3009 L 0.8835,35.6825 L 0.8695,35.0642 L 0.8835,34.4458 L 0.8835,33.2091 L 0.8975,32.5907 L 0.8975,31.9723 L 0.9116,31.3680 L 0.9256,30.7496 L 0.9256,30.1313 L 0.9396,29.5129 L 0.9396,28.1075 L 0.9536,27.3065 L 0.9536,26.5054 L 0.9817,24.9314 L 1.0097,23.3855 L 1.0238,22.6266 L 1.0518,21.8677 L 1.1079,20.3780 L 1.1500,19.6472 L 1.1920,18.9304 L 1.2341,18.2277 L 1.2902,17.5250 L 1.4024,16.1759 L 1.4585,15.5154 L 1.5286,14.8689 L 1.6128,14.2365 L 1.6969,13.6181 L 1.7811,13.0138 L 1.8792,12.4235 L 1.9914,11.8473 L 2.0896,11.2992 L 2.2158,10.7652 L 2.3420,10.2452 L 2.4682,9.7393 L 2.6085,9.2614 L 2.7627,8.7977 L 2.9170,8.3620 L 3.0853,7.9404 L 3.1694,7.7577 L 3.2816,7.5890 L 3.3798,7.4063 L 3.5060,7.2377 L 3.6463,7.0550 L 3.7865,6.8863 L 3.9267,6.7036 L 4.0810,6.5350 L 4.7542,5.8604 L 5.4834,5.2421 L 5.6797,5.1015 L 6.0444,4.8204 L 6.2267,4.6940 L 6.3950,4.5815 L 6.5773,4.4550 L 6.7456,4.3567 L 6.9139,4.2442 L 7.3767,3.9913 L 7.5169,3.9210 L 7.6431,3.8648 L 7.7553,3.8086 L 7.8675,3.7664 L 7.9657,3.7383 L 8.5547,3.5556 L 9.7607,3.1902 L 10.3778,3.0216 L 10.9808,2.8670 L 11.5979,2.6983 L 12.2150,2.5578 L 12.8460,2.4032 L 13.4631,2.2627 L 15.3563,1.8832 L 16.6185,1.6583 L 17.2496,1.5600 L 17.8947,1.4616 L 18.5258,1.3773 L 19.1709,1.2929 L 19.8020,1.2086 L 21.0922,1.0681 L 21.7233,1.0119 L 22.3684,0.9557 L 22.9995,0.8994 L 23.6446,0.8573 L 24.2756,0.8151 L 25.5378,0.7589 L 27.4311,0.7167 L 29.1420,0.7167 L 31.0352,0.7589 L 32.2974,0.8151 L 32.9285,0.8573 L 33.5736,0.8994 L 34.2047,0.9557 L 34.8498,1.0119 L 35.4809,1.0681 L 36.7711,1.2086 L 37.4022,1.2929 L 38.0473,1.3773 L 38.6783,1.4616 L 39.3235,1.5600 L 39.9545,1.6583 L 41.2167,1.8832 L 43.1099,2.2627 L 43.7410,2.4032 L 44.3581,2.5578 L 44.9751,2.6983 L 45.5922,2.8670 L 46.1952,3.0216 L 46.8123,3.1902 L 48.0184,3.5556 L 48.6074,3.7383 L 48.7055,3.7664 L 48.8177,3.8086 L 48.9299,3.8648 L 49.0561,3.9210 L 49.1964,3.9913 L 49.6592,4.2442 L 49.8275,4.3567 L 49.9958,4.4550 L 50.1781,4.5815 L 50.3464,4.6940 L 50.5287,4.8204 L 50.8933,5.1015 L 51.0896,5.2421 L 51.8189,5.8604 L 52.4920,6.5350 L 52.6463,6.7036 L 52.7865,6.8863 L 52.9268,7.0550 L 53.0670,7.2377 L 53.1932,7.4063 L 53.2914,7.5890 L 53.4036,7.7577 L 53.4877,7.9404 L 53.6560,8.3620 L 53.8103,8.7977 L 53.9646,9.2614 L 54.1048,9.7393 L 54.2310,10.2452 L 54.3572,10.7652 L 54.4835,11.2992 L 54.5816,11.8473 L 54.6938,12.4235 L 54.7920,13.0138 L 54.8761,13.6181 L 54.9603,14.2365 L 55.0444,14.8689 L 55.1145,15.5154 L 55.1706,16.1759 L 55.2408,16.8505 L 55.2828,17.5250 L 55.3389,18.2277 L 55.3810,18.9304 L 55.4231,19.6472 L 55.4651,20.3780 L 55.5212,21.8677 L 55.5493,22.6266 L 55.5633,23.3855 L 55.5914,24.9314 L 55.6194,26.5054 L 55.6194,27.3065 L 55.6334,28.1075 L 55.6334,29.5129 L 55.6475,30.1313 L 55.6475,30.7496 L 55.6615,31.3680 L 55.6755,31.9723 L 55.6755,32.5907 L 55.6895,33.2091 L 55.6895,34.4458 L 55.7036,35.0642 L 55.6895,35.6825 L 55.6895,36.3009 L 55.6755,36.9052 L 55.6615,37.5236 L 55.6475,38.1279 L 55.5914,39.3365 L 55.5493,39.9408 L 55.4932,40.5451 L 55.3810,41.7256 L 55.3109,42.3159 L 55.2267,42.8921 L 55.0304,44.0445 L 54.9182,44.6067 L 54.6377,45.7310 L 54.4975,46.2791 L 54.3292,46.8131 L 54.1469,47.3471 L 53.9505,47.8812 L 53.8664,48.1482 L 53.7682,48.4152 L 53.6841,48.6682 L 53.5859,48.9071 L 53.4737,49.1460 L 53.3756,49.3709 L 53.2634,49.5817 L 53.1371,49.8066 L 53.0250,50.0033 L 52.8987,50.2001 L 52.4780,50.7482 L 52.1695,51.0854 L 52.0152,51.2400 L 51.8469,51.3946 L 51.6646,51.5492 L 51.4963,51.6898 L 51.1037,51.9708 L 50.9073,52.0973 L 50.4866,52.3503 L 50.0378,52.6033 L 49.5610,52.8281 L 49.3086,52.9405 L 48.7757,53.1654 L 48.0745,53.4465 L 47.6397,53.6151 L 47.1909,53.7697 L 46.7282,53.9243 L 46.2513,54.0648 L 45.7605,54.2054 L 45.2556,54.3319 L 44.7367,54.4724 L 43.6709,54.6973 L 43.1240,54.8097 L 42.5630,54.9221 L 42.0020,55.0205 L 41.4271,55.1189 L 40.2490,55.2875 L 39.0430,55.4281 L 37.8089,55.5686 L 37.1918,55.6248 L 36.5607,55.6670 L 35.9296,55.7232 L 35.2845,55.7654 L 34.6394,55.7935 L 33.9943,55.8356 L 33.3492,55.8497 L 32.6901,55.8778 L 32.0450,55.8918 L 31.3858,55.9059 L 30.7407,55.9199 L 26.5055,55.9199 L 26.4914,55.9199 Z" stroke="#EFEFEF" stroke-width="0.1199" stroke-linecap="round" stroke-linejoin="round" fill="#EAEAEA"/>
        <ellipse cx="21.6602" cy="52.5541" rx="0.4698" ry="0.4708" fill="#000000" stroke="#000000" stroke-width="0.1199" stroke-linecap="round" stroke-linejoin="round"/>
        <ellipse cx="21.6602" cy="52.5541" rx="0.4698" ry="0.4708" fill="none" stroke="#000000" stroke-width="0.1199" stroke-linecap="round" stroke-linejoin="round"/>
        <ellipse cx="21.6602" cy="52.5541" rx="0.3576" ry="0.3584" fill="#00FF00" stroke="#000000" stroke-width="0.1199" stroke-linecap="round" stroke-linejoin="round"/>
        <ellipse cx="21.6602" cy="52.5541" rx="0.3576" ry="0.3584" fill="none" stroke="#000000" stroke-width="0.1199" stroke-linecap="round" stroke-linejoin="round"/>
        <ellipse cx="24.9278" cy="52.5541" rx="0.4698" ry="0.4708" fill="#000000" stroke="#000000" stroke-width="0.1199" stroke-linecap="round" stroke-linejoin="round"/>
        <ellipse cx="24.9278" cy="52.5541" rx="0.4698" ry="0.4708" fill="none" stroke="#000000" stroke-width="0.1199" stroke-linecap="round" stroke-linejoin="round"/>
        <ellipse cx="24.9278" cy="52.5541" rx="0.3576" ry="0.3584" fill="#00FF00" stroke="#000000" stroke-width="0.1199" stroke-linecap="round" stroke-linejoin="round"/>
        <ellipse cx="24.9278" cy="52.5541" rx="0.3576" ry="0.3584" fill="none" stroke="#000000" stroke-width="0.1199" stroke-linecap="round" stroke-linejoin="round"/>
        <ellipse cx="28.1743" cy="52.5541" rx="0.4768" ry="0.4708" fill="#000000" stroke="#000000" stroke-width="0.1199" stroke-linecap="round" stroke-linejoin="round"/>
        <ellipse cx="28.1743" cy="52.5541" rx="0.4768" ry="0.4708" fill="none" stroke="#000000" stroke-width="0.1199" stroke-linecap="round" stroke-linejoin="round"/>
        <ellipse cx="28.1743" cy="52.5541" rx="0.3646" ry="0.3584" fill="#00FF00" stroke="#000000" stroke-width="0.1199" stroke-linecap="round" stroke-linejoin="round"/>
        <ellipse cx="28.1743" cy="52.5541" rx="0.3646" ry="0.3584" fill="none" stroke="#000000" stroke-width="0.1199" stroke-linecap="round" stroke-linejoin="round"/>
        <ellipse cx="34.6745" cy="52.5541" rx="0.4698" ry="0.4708" fill="#000000" stroke="#000000" stroke-width="0.1199" stroke-linecap="round" stroke-linejoin="round"/>
        <ellipse cx="34.6745" cy="52.5541" rx="0.4698" ry="0.4708" fill="none" stroke="#000000" stroke-width="0.1199" stroke-linecap="round" stroke-linejoin="round"/>
        <ellipse cx="34.6745" cy="52.5541" rx="0.3576" ry="0.3584" fill="#00FF00" stroke="#000000" stroke-width="0.1199" stroke-linecap="round" stroke-linejoin="round"/>
        <ellipse cx="34.6745" cy="52.5541" rx="0.3576" ry="0.3584" fill="none" stroke="#000000" stroke-width="0.1199" stroke-linecap="round" stroke-linejoin="round"/>
        <ellipse cx="31.4419" cy="52.5541" rx="0.4768" ry="0.4708" fill="#000000" stroke="#000000" stroke-width="0.1199" stroke-linecap="round" stroke-linejoin="round"/>
        <ellipse cx="31.4419" cy="52.5541" rx="0.4768" ry="0.4708" fill="none" stroke="#000000" stroke-width="0.1199" stroke-linecap="round" stroke-linejoin="round"/>
        <ellipse cx="31.4419" cy="52.5541" rx="0.3646" ry="0.3584" fill="#00FF00" stroke="#000000" stroke-width="0.1199" stroke-linecap="round" stroke-linejoin="round"/>
        <ellipse cx="31.4419" cy="52.5541" rx="0.3646" ry="0.3584" fill="none" stroke="#000000" stroke-width="0.1199" stroke-linecap="round" stroke-linejoin="round"/>
        <path d="M 21.4568,26.3649 L 21.4428,26.3649 L 21.4428,26.3508 L 21.4288,26.3508 L 21.4147,26.3368 L 21.4147,26.3227 L 21.4007,26.3227 L 21.4007,26.2946 L 21.3867,26.2946 L 21.3867,24.9454 L 21.4007,24.9454 L 21.4007,24.9173 L 21.4147,24.9173 L 21.4147,24.9033 L 21.4288,24.8892 L 21.4428,24.8892 L 21.4428,24.8752 L 23.0415,24.8752 L 23.0415,24.8892 L 23.0555,24.8892 L 23.0696,24.9033 L 23.0696,24.9173 L 23.0836,24.9173 L 23.0836,24.9314 L 23.0976,24.9454 L 23.0976,25.1984 L 23.0836,25.1984 L 23.0836,25.1844 L 23.0696,25.1844 L 23.0696,25.1703 L 23.0555,25.1703 L 23.0555,25.1562 L 21.7513,25.1562 L 21.7513,25.1703 L 21.7373,25.1703 L 21.7373,25.1984 L 21.7233,25.1984 L 21.7233,26.3087 L 21.7373,26.3087 L 21.7373,26.3368 L 21.7513,26.3368 L 21.7513,26.3508 L 21.7653,26.3508 L 21.7653,26.3649 L 21.4708,26.3649 L 21.4568,26.3649 Z" stroke="#000000" stroke-width="0.1199" stroke-linecap="round" stroke-linejoin="round" fill="#000000"/>
        <path d="M 22.9854,25.5076 L 21.8355,25.5076 L 21.8355,25.4935 L 21.8074,25.4935 L 21.8074,25.4795 L 21.7934,25.4795 L 21.7934,25.4514 L 21.7794,25.4514 L 21.7794,25.7465 L 21.7934,25.7465 L 21.7934,25.7606 L 21.8074,25.7746 L 21.8214,25.7746 L 21.8355,25.7887 L 23.0135,25.7887 L 23.0275,25.7746 L 23.0415,25.7746 L 23.0415,25.7606 L 23.0836,25.7184 L 23.0836,25.7043 L 23.0976,25.6903 L 23.0976,25.5919 L 23.0696,25.5638 L 23.0696,25.5498 L 23.0555,25.5357 L 23.0415,25.5357 L 23.0275,25.5216 L 23.0135,25.5216 L 23.0135,25.5076 L 22.9995,25.5076 L 22.9854,25.5076 Z" stroke="#000000" stroke-width="0.1199" stroke-linecap="round" stroke-linejoin="round" fill="#000000"/>
        <path d="M 25.6640,25.8027 L 25.6500,25.8027 L 25.6500,25.7887 L 25.6360,25.7887 L 25.6220,25.7746 L 25.6220,25.7606 L 25.6079,25.7465 L 25.6079,25.4654 L 25.6220,25.4654 L 25.6220,25.4795 L 25.6360,25.4795 L 25.6360,25.4935 L 26.5756,25.4935 L 26.5756,25.1562 L 25.5799,25.1562 L 25.5799,25.1703 L 25.5659,25.1703 L 25.5659,25.1844 L 25.5518,25.1844 L 25.5518,25.1984 L 25.5378,25.2125 L 25.5378,26.3087 L 25.5518,26.3087 L 25.5518,26.3368 L 25.5659,26.3368 L 25.5659,26.3508 L 25.5799,26.3508 L 25.5799,26.3649 L 25.2713,26.3649 L 25.2573,26.3508 L 25.2433,26.3508 L 25.2433,26.3368 L 25.2293,26.3368 L 25.2293,26.3227 L 25.2153,26.3227 L 25.2153,26.2946 L 25.2012,26.2946 L 25.2012,24.9454 L 25.2153,24.9454 L 25.2153,24.9173 L 25.2293,24.9173 L 25.2293,24.9033 L 25.2433,24.9033 L 25.2433,24.8892 L 25.2573,24.8892 L 25.2713,24.8752 L 26.8561,24.8752 L 26.8561,24.8892 L 26.8841,24.8892 L 26.8841,24.9033 L 26.8981,24.9033 L 26.8981,24.9314 L 26.9122,24.9314 L 26.9122,25.7043 L 26.8981,25.7043 L 26.8981,25.7324 L 26.8841,25.7324 L 26.8841,25.7465 L 26.8701,25.7606 L 26.8701,25.7746 L 26.8561,25.7746 L 26.8561,25.7887 L 26.8420,25.7887 L 26.8280,25.8027 L 26.8420,25.8027 L 26.8420,25.8168 L 26.8561,25.8168 L 26.8561,25.8308 L 26.8701,25.8308 L 26.8701,25.8449 L 26.8841,25.8449 L 26.8841,25.8589 L 26.8981,25.8589 L 26.8981,25.8870 L 26.9122,25.8870 L 26.9122,26.3087 L 26.9262,26.3087 L 26.9262,26.3368 L 26.9402,26.3368 L 26.9402,26.3508 L 26.9542,26.3508 L 26.9542,26.3649 L 26.6457,26.3649 L 26.6457,26.3508 L 26.6177,26.3508 L 26.6177,26.3368 L 26.6036,26.3368 L 26.6036,26.3227 L 26.5896,26.3227 L 26.5896,26.2946 L 26.5756,26.2946 L 26.5756,25.8027 L 25.6780,25.8027 L 25.6640,25.8027 Z" stroke="#000000" stroke-width="0.1199" stroke-linecap="round" stroke-linejoin="round" fill="#000000"/>
        <path d="M 27.5152,25.1562 L 27.1506,25.1562 L 27.1506,25.1422 L 27.1365,25.1422 L 27.1365,25.1281 L 27.1225,25.1281 L 27.1225,25.1141 L 27.1085,25.1000 L 27.1085,24.9454 L 27.1225,24.9454 L 27.1225,24.9173 L 27.1365,24.9173 L 27.1365,24.9033 L 27.1506,24.8892 L 27.1646,24.8892 L 27.1646,24.8752 L 28.7633,24.8752 L 28.7633,24.8892 L 28.7774,24.8892 L 28.7914,24.9033 L 28.7914,24.9173 L 28.8054,24.9173 L 28.8054,24.9314 L 28.8194,24.9454 L 28.8194,25.1984 L 28.8054,25.1984 L 28.8054,25.1844 L 28.7914,25.1844 L 28.7914,25.1703 L 28.7774,25.1703 L 28.7774,25.1562 L 27.8938,25.1562 L 27.8938,25.1703 L 27.8798,25.1703 L 27.8798,25.1984 L 27.8658,25.1984 L 27.8658,26.3227 L 27.8798,26.3227 L 27.8798,26.3508 L 27.8938,26.3508 L 27.8938,26.3649 L 27.5853,26.3649 L 27.5853,26.3508 L 27.5573,26.3508 L 27.5573,26.3368 L 27.5432,26.3368 L 27.5432,26.3227 L 27.5292,26.3227 L 27.5292,26.2946 L 27.5152,26.2946 L 27.5152,25.1844 L 27.5152,25.1562 Z" stroke="#000000" stroke-width="0.1199" stroke-linecap="round" stroke-linejoin="round" fill="#000000"/>
        <path d="M 29.3664,26.2805 L 29.3664,26.3368 L 29.3804,26.3368 L 29.3804,26.3508 L 29.3944,26.3649 L 29.0859,26.3649 L 29.0859,26.3508 L 29.0578,26.3508 L 29.0578,26.3368 L 29.0438,26.3368 L 29.0438,26.3227 L 29.0298,26.3227 L 29.0298,26.2946 L 29.0158,26.2946 L 29.0158,24.9173 L 29.0017,24.9173 L 29.0017,24.8892 L 28.9877,24.8892 L 28.9737,24.8752 L 29.2963,24.8752 L 29.2963,24.8892 L 29.3243,24.8892 L 29.3243,24.9033 L 29.3383,24.9033 L 29.3383,24.9173 L 29.3523,24.9173 L 29.3523,24.9454 L 29.3664,24.9454 L 29.3664,26.2665 L 29.3664,26.2805 Z" stroke="#000000" stroke-width="0.1199" stroke-linecap="round" stroke-linejoin="round" fill="#000000"/>
        <path d="M 30.9932,25.1562 L 29.9975,25.1562 L 29.9975,25.1703 L 29.9834,25.1703 L 29.9834,25.1844 L 29.9694,25.1844 L 29.9694,25.1984 L 29.9554,25.2125 L 29.9554,26.3087 L 29.9694,26.3087 L 29.9694,26.3368 L 29.9834,26.3368 L 29.9834,26.3508 L 29.9975,26.3508 L 29.9975,26.3649 L 29.6889,26.3649 L 29.6749,26.3508 L 29.6609,26.3508 L 29.6609,26.3368 L 29.6469,26.3368 L 29.6469,26.3227 L 29.6328,26.3227 L 29.6328,26.2946 L 29.6188,26.2946 L 29.6188,24.9454 L 29.6328,24.9454 L 29.6328,24.9173 L 29.6469,24.9173 L 29.6469,24.9033 L 29.6609,24.9033 L 29.6609,24.8892 L 29.6749,24.8892 L 29.6889,24.8752 L 31.2736,24.8752 L 31.2736,24.8892 L 31.3017,24.8892 L 31.3017,24.9033 L 31.3157,24.9033 L 31.3157,24.9314 L 31.3297,24.9314 L 31.3297,26.3087 L 31.3438,26.3087 L 31.3438,26.3368 L 31.3578,26.3368 L 31.3578,26.3508 L 31.3718,26.3508 L 31.3718,26.3649 L 31.0633,26.3649 L 31.0633,26.3508 L 31.0352,26.3508 L 31.0352,26.3368 L 31.0212,26.3368 L 31.0212,26.3227 L 31.0072,26.3227 L 31.0072,26.2946 L 30.9932,26.2946 L 30.9932,25.1844 L 30.9932,25.1562 Z" stroke="#000000" stroke-width="0.1199" stroke-linecap="round" stroke-linejoin="round" fill="#000000"/>
        <path d="M 33.0547,25.5076 L 31.9889,25.5076 L 31.9748,25.4935 L 31.9608,25.4935 L 31.9608,25.4795 L 31.9468,25.4795 L 31.9468,25.4514 L 31.9328,25.4514 L 31.9328,25.7465 L 31.9468,25.7465 L 31.9468,25.7606 L 31.9608,25.7746 L 31.9748,25.7746 L 31.9748,25.7887 L 33.0547,25.7887 L 33.0687,25.7746 L 33.0827,25.7746 L 33.0968,25.7606 L 33.0968,25.7465 L 33.1108,25.7324 L 33.1248,25.7324 L 33.1248,25.7184 L 33.1388,25.7043 L 33.1388,25.6903 L 33.1529,25.6762 L 33.1529,25.5919 L 33.1388,25.5779 L 33.1388,25.5638 L 33.1248,25.5638 L 33.1248,25.5498 L 33.1108,25.5357 L 33.0968,25.5357 L 33.0968,25.5216 L 33.0827,25.5216 L 33.0687,25.5076 L 33.0547,25.5076 Z" stroke="#000000" stroke-width="0.1199" stroke-linecap="round" stroke-linejoin="round" fill="#000000"/>
        <path d="M 33.8541,25.1562 L 33.4894,25.1562 L 33.4894,25.1422 L 33.4754,25.1422 L 33.4754,25.1281 L 33.4614,25.1281 L 33.4614,25.1141 L 33.4474,25.1000 L 33.4474,24.9454 L 33.4614,24.9454 L 33.4614,24.9173 L 33.4754,24.9173 L 33.4754,24.9033 L 33.4894,24.8892 L 33.5035,24.8892 L 33.5035,24.8752 L 35.1022,24.8752 L 35.1022,24.8892 L 35.1162,24.8892 L 35.1303,24.9033 L 35.1303,24.9173 L 35.1443,24.9173 L 35.1443,24.9314 L 35.1583,24.9454 L 35.1583,25.1984 L 35.1443,25.1984 L 35.1443,25.1844 L 35.1303,25.1844 L 35.1303,25.1703 L 35.1162,25.1703 L 35.1162,25.1562 L 34.2327,25.1562 L 34.2327,25.1703 L 34.2187,25.1703 L 34.2187,25.1984 L 34.2047,25.1984 L 34.2047,26.3227 L 34.2187,26.3227 L 34.2187,26.3508 L 34.2327,26.3508 L 34.2327,26.3649 L 33.9242,26.3649 L 33.9242,26.3508 L 33.8961,26.3508 L 33.8961,26.3368 L 33.8821,26.3368 L 33.8821,26.3227 L 33.8681,26.3227 L 33.8681,26.2946 L 33.8541,26.2946 L 33.8541,25.1844 L 33.8541,25.1562 Z" stroke="#000000" stroke-width="0.1199" stroke-linecap="round" stroke-linejoin="round" fill="#000000"/>
        <path d="M 33.1669,26.0838 L 33.1949,26.0838 L 33.1949,26.0697 L 33.2090,26.0697 L 33.2090,26.0557 L 33.2230,26.0557 L 33.2230,26.0416 L 33.2370,26.0416 L 33.2370,26.2946 L 33.2230,26.3087 L 33.2230,26.3227 L 33.2090,26.3227 L 33.2090,26.3368 L 33.1949,26.3508 L 33.1809,26.3508 L 33.1809,26.3649 L 31.5822,26.3649 L 31.5822,26.3508 L 31.5682,26.3508 L 31.5541,26.3368 L 31.5541,26.3227 L 31.5401,26.3227 L 31.5401,26.2946 L 31.5261,26.2946 L 31.5261,24.9454 L 31.5401,24.9454 L 31.5401,24.9173 L 31.5541,24.9173 L 31.5541,24.9033 L 31.5682,24.8892 L 31.5822,24.8892 L 31.5822,24.8752 L 33.1809,24.8752 L 33.1809,24.8892 L 33.1949,24.8892 L 33.2090,24.9033 L 33.2090,24.9173 L 33.2230,24.9173 L 33.2230,24.9314 L 33.2370,24.9454 L 33.2370,25.1984 L 33.2230,25.1984 L 33.2230,25.1844 L 33.2090,25.1844 L 33.2090,25.1703 L 33.1949,25.1703 L 33.1949,25.1562 L 31.8907,25.1562 L 31.8907,25.1703 L 31.8767,25.1703 L 31.8767,25.1984 L 31.8627,25.1984 L 31.8627,26.0838 L 33.1529,26.0838 L 33.1669,26.0838 Z" stroke="#000000" stroke-width="0.1199" stroke-linecap="round" stroke-linejoin="round" fill="#000000"/>
        <path d="M 23.8830,25.9292 L 23.8830,26.3649 L 24.4439,26.3649 L 24.4439,25.9292 L 23.8830,25.9292 Z" stroke="#000000" stroke-width="0.1199" stroke-linecap="round" stroke-linejoin="round" fill="#000000"/>
        <path d="M 23.3220,25.4092 L 23.7848,25.4092 L 23.7848,25.8308 L 23.3220,25.8308 L 23.3220,25.4092 Z" stroke="#000000" stroke-width="0.1199" stroke-linecap="round" stroke-linejoin="round" fill="#000000"/>
        <path d="M 24.5561,25.9292 L 24.5561,26.3649 L 24.7244,26.3649 L 24.7384,26.3508 L 24.7805,26.3508 L 24.7945,26.3368 L 24.8086,26.3368 L 24.8366,26.3227 L 24.8506,26.3227 L 24.9348,26.2384 L 24.9488,26.2103 L 24.9628,26.1962 L 24.9768,26.1681 L 24.9768,26.1541 L 24.9909,26.1260 L 24.9909,26.0978 L 25.0049,26.0697 L 25.0049,26.0276 L 25.0189,25.9995 L 25.0189,25.9292 L 24.5701,25.9292 L 24.5561,25.9292 Z" stroke="#000000" stroke-width="0.1199" stroke-linecap="round" stroke-linejoin="round" fill="#000000"/>
        <path d="M 24.5561,25.4092 L 25.0189,25.4092 L 25.0189,25.8308 L 24.5561,25.8308 L 24.5561,25.4092 Z" stroke="#000000" stroke-width="0.1199" stroke-linecap="round" stroke-linejoin="round" fill="#000000"/>
        <path d="M 23.7848,25.9292 L 23.7848,26.3649 L 23.6165,26.3649 L 23.6025,26.3508 L 23.5604,26.3508 L 23.5464,26.3368 L 23.5183,26.3368 L 23.5043,26.3227 L 23.4903,26.3227 L 23.4763,26.3087 L 23.4482,26.2946 L 23.3921,26.2384 L 23.3781,26.2103 L 23.3781,26.1962 L 23.3641,26.1681 L 23.3501,26.1541 L 23.3501,26.1260 L 23.3360,26.0978 L 23.3360,26.0697 L 23.3220,26.0276 L 23.3220,25.9292 L 23.7708,25.9292 L 23.7848,25.9292 Z" stroke="#000000" stroke-width="0.1199" stroke-linecap="round" stroke-linejoin="round" fill="#000000"/>
        <path d="M 23.8830,24.8752 L 23.8830,25.3108 L 24.4439,25.3108 L 24.4439,24.8752 L 23.8830,24.8752 Z" stroke="#000000" stroke-width="0.1199" stroke-linecap="round" stroke-linejoin="round" fill="#000000"/>
        <path d="M 24.5561,25.3108 L 24.5561,24.8752 L 24.7244,24.8752 L 24.7384,24.8892 L 24.7805,24.8892 L 24.7945,24.9033 L 24.8086,24.9033 L 24.8366,24.9173 L 24.8506,24.9173 L 24.9348,25.0017 L 24.9488,25.0298 L 24.9628,25.0438 L 24.9768,25.0719 L 24.9768,25.0860 L 24.9909,25.1141 L 24.9909,25.1422 L 25.0049,25.1703 L 25.0049,25.2125 L 25.0189,25.2406 L 25.0189,25.3108 L 24.5701,25.3108 L 24.5561,25.3108 Z" stroke="#000000" stroke-width="0.1199" stroke-linecap="round" stroke-linejoin="round" fill="#000000"/>
        <path d="M 23.7848,25.3108 L 23.7848,24.8752 L 23.6165,24.8752 L 23.6025,24.8892 L 23.5604,24.8892 L 23.5464,24.9033 L 23.5183,24.9033 L 23.5043,24.9173 L 23.4903,24.9173 L 23.4763,24.9314 L 23.4482,24.9454 L 23.3921,25.0017 L 23.3781,25.0298 L 23.3781,25.0438 L 23.3641,25.0719 L 23.3501,25.0860 L 23.3501,25.1141 L 23.3360,25.1422 L 23.3360,25.1703 L 23.3220,25.2125 L 23.3220,25.3108 L 23.7708,25.3108 L 23.7848,25.3108 Z" stroke="#000000" stroke-width="0.1199" stroke-linecap="round" stroke-linejoin="round" fill="#000000"/>
        <text font-family="Arial" fill="#000000" style="white-space:pre;" text-anchor="start" x="22.5086" y="28.9367" font-size="1.5707"><![CDATA[F]]></text>
        <text font-family="Arial" fill="#000000" style="white-space:pre;" text-anchor="start" x="23.4763" y="28.9367" font-size="1.5707"><![CDATA[o]]></text>
        <text font-family="Arial" fill="#000000" style="white-space:pre;" text-anchor="start" x="24.3458" y="28.9367" font-size="1.5707"><![CDATA[r]]></text>
        <text font-family="Arial" fill="#000000" style="white-space:pre;" text-anchor="start" x="24.8647" y="28.9367" font-size="1.5707"><![CDATA[t]]></text>
        <text font-family="Arial" fill="#000000" style="white-space:pre;" text-anchor="start" x="25.2994" y="28.9367" font-size="1.5707"><![CDATA[i]]></text>
        <text font-family="Arial" fill="#000000" style="white-space:pre;" text-anchor="start" x="25.6500" y="28.9367" font-size="1.5707"><![CDATA[A]]></text>
        <text font-family="Arial" fill="#000000" style="white-space:pre;" text-anchor="start" x="26.7018" y="28.9367" font-size="1.5707"><![CDATA[P]]></text>
        <text font-family="Arial" fill="#000000" style="white-space:pre;" text-anchor="start" x="27.7536" y="28.9367" font-size="1.5707"><![CDATA[ ]]></text>
        <text font-family="Arial" fill="#000000" style="white-space:pre;" text-anchor="start" x="28.1884" y="28.9367" font-size="1.5707"><![CDATA[U]]></text>
        <text font-family="Arial" fill="#000000" style="white-space:pre;" text-anchor="start" x="29.3243" y="28.9367" font-size="1.5707"><![CDATA[2]]></text>
        <text font-family="Arial" fill="#000000" style="white-space:pre;" text-anchor="start" x="30.1938" y="28.9367" font-size="1.5707"><![CDATA[2]]></text>
        <text font-family="Arial" fill="#000000" style="white-space:pre;" text-anchor="start" x="31.0633" y="28.9367" font-size="1.5707"><![CDATA[1]]></text>
        <text font-family="Arial" fill="#000000" style="white-space:pre;" text-anchor="start" x="31.9328" y="28.9367" font-size="1.5707"><![CDATA[E]]></text>
        <text font-family="Arial" fill="#000000" style="white-space:pre;" text-anchor="start" x="32.9846" y="28.9367" font-size="1.5707"><![CDATA[V]]></text>
        <text font-family="Symbol" fill="#000000" style="white-space:pre;" text-anchor="start" x="34.6534" y="26.3508" font-size="0.5189"><![CDATA[]]></text>
        <path d="M 21.5409,51.5633 L 21.9196,51.1698 L 21.7373,50.9871 L 21.7373,51.7460 L 21.9196,51.5633 L 21.5269,51.1698 " stroke="#000000" stroke-width="0.1199" stroke-linecap="round" stroke-linejoin="round" fill="none"/>
        <path d="M 31.9748,51.3525 L 31.0493,51.3525 " stroke="#000000" stroke-width="0.1199" stroke-linecap="round" stroke-linejoin="round" fill="none"/>
        <path d="M 31.5121,51.2260 L 31.5121,51.3665 " stroke="#000000" stroke-width="0.1199" stroke-linecap="round" stroke-linejoin="round" fill="none"/>
        <path d="M 31.6242,51.0011 L 31.3999,51.0011 L 31.3999,51.2260 L 31.6242,51.2260 L 31.6242,51.0011 Z" stroke="#000000" stroke-width="0.1199" stroke-linecap="round" stroke-linejoin="round" fill="#0A0A0A"/>
        <path d="M 31.7785,51.3665 L 31.7785,51.5071 " stroke="#000000" stroke-width="0.1199" stroke-linecap="round" stroke-linejoin="round" fill="none"/>
        <path d="M 31.7785,51.3665 L 31.7785,51.5071 " stroke="#000000" stroke-width="0.1199" stroke-linecap="round" stroke-linejoin="round" fill="none"/>
        <path d="M 31.6803,51.5071 L 31.9047,51.5071 L 31.9047,51.7319 L 31.6803,51.7319 L 31.6803,51.5071 Z" stroke="#000000" stroke-width="0.1199" stroke-linecap="round" stroke-linejoin="round" fill="#0A0A0A"/>
        <path d="M 31.2175,51.3665 L 31.2175,51.5071 " stroke="#000000" stroke-width="0.1199" stroke-linecap="round" stroke-linejoin="round" fill="none"/>
        <path d="M 31.3438,51.5071 L 31.1194,51.5071 L 31.1194,51.7319 L 31.3438,51.7319 L 31.3438,51.5071 Z" stroke="#000000" stroke-width="0.1199" stroke-linecap="round" stroke-linejoin="round" fill="#0A0A0A"/>
        <path d="M 34.8778,51.1557 L 34.8919,51.1557 L 34.8919,51.1698 L 34.9059,51.1698 L 34.9199,51.1838 L 34.9339,51.1838 L 34.9760,51.2260 L 34.9760,51.2400 L 34.9900,51.2400 L 34.9900,51.2541 L 35.0040,51.2681 L 35.0040,51.2822 L 35.0181,51.2963 L 35.0181,51.3384 L 35.0321,51.3525 L 35.0321,51.4790 L 35.0181,51.4930 L 35.0181,51.5352 L 35.0040,51.5492 L 35.0040,51.5633 L 34.9900,51.5773 L 34.9900,51.5914 L 34.9760,51.6054 L 34.9760,51.6195 L 34.9620,51.6195 L 34.9479,51.6335 L 34.9479,51.6476 L 34.9339,51.6476 L 34.8919,51.6898 L 34.8638,51.6898 L 34.8498,51.7038 L 34.8217,51.7038 L 34.8077,51.7179 L 34.6675,51.7179 L 34.6534,51.7038 L 34.6254,51.7038 L 34.6114,51.6898 L 34.5833,51.6898 L 34.5412,51.6476 L 34.5272,51.6476 L 34.5272,51.6335 L 34.5132,51.6195 L 34.4992,51.6195 L 34.4992,51.6054 L 34.4852,51.5914 L 34.4852,51.5773 L 34.4711,51.5633 L 34.4711,51.5492 L 34.4571,51.5352 L 34.4571,51.4930 L 34.4431,51.4790 L 34.4431,51.3525 L 34.4571,51.3384 L 34.4571,51.2963 L 34.4711,51.2963 L 34.4711,51.2681 L 34.4852,51.2541 L 34.4852,51.2400 L 34.4992,51.2400 L 34.4992,51.2260 L 34.5132,51.2119 L 34.5132,51.1979 L 34.5272,51.1979 L 34.5553,51.1698 L 34.5553,51.1838 L 34.5693,51.1838 L 34.5693,51.1979 L 34.5833,51.1979 L 34.5833,51.2119 L 34.5973,51.2119 L 34.5973,51.2260 L 34.5833,51.2260 L 34.5833,51.2400 L 34.5693,51.2400 L 34.5272,51.2822 L 34.5272,51.2963 L 34.5132,51.3103 L 34.5132,51.3244 L 34.4992,51.3244 L 34.4992,51.3665 L 34.4852,51.3665 L 34.4852,51.4790 L 34.4992,51.4790 L 34.4992,51.5211 L 34.5272,51.5492 L 34.5272,51.5633 L 34.5412,51.5633 L 34.5412,51.5773 L 34.5693,51.6054 L 34.5833,51.6054 L 34.5833,51.6195 L 34.5973,51.6195 L 34.6114,51.6335 L 34.6254,51.6335 L 34.6394,51.6476 L 34.6675,51.6476 L 34.6675,51.6617 L 34.8077,51.6617 L 34.8077,51.6476 L 34.8358,51.6476 L 34.8498,51.6335 L 34.8638,51.6335 L 34.8778,51.6195 L 34.8919,51.6195 L 34.8919,51.6054 L 34.9059,51.6054 L 34.9339,51.5773 L 34.9339,51.5633 L 34.9479,51.5633 L 34.9479,51.5492 L 34.9760,51.5211 L 34.9760,51.4790 L 34.9900,51.4790 L 34.9900,51.3665 L 34.9760,51.3665 L 34.9760,51.3244 L 34.9620,51.3244 L 34.9620,51.2963 L 34.9479,51.2963 L 34.9479,51.2822 L 34.9339,51.2681 L 34.9339,51.2541 L 34.9199,51.2541 L 34.9199,51.2400 L 34.9059,51.2400 L 34.8919,51.2260 L 34.8778,51.2260 L 34.8778,51.2119 L 34.8638,51.2119 L 34.8638,51.1838 L 34.8778,51.1838 L 34.8778,51.1698 L 34.8778,51.1557 Z" stroke="#000000" stroke-width="0.1199" stroke-linecap="round" stroke-linejoin="round" fill="#000000"/>
        <path d="M 34.7656,51.0152 L 34.6955,51.0152 L 34.6955,51.4368 L 34.7656,51.4368 L 34.7656,51.0152 Z" stroke="#000000" stroke-width="0.1199" stroke-linecap="round" stroke-linejoin="round" fill="#000000"/>
        <text font-family="Arial" fill="#000000" style="white-space:pre;" text-anchor="start" x="24.2616" y="51.4930" font-size="0.5189"><![CDATA[W]]></text>
        <text font-family="Arial" fill="#000000" style="white-space:pre;" text-anchor="start" x="24.7525" y="51.4930" font-size="0.5189"><![CDATA[i]]></text>
        <text font-family="Arial" fill="#000000" style="white-space:pre;" text-anchor="start" x="24.8647" y="51.4930" font-size="0.5189"><![CDATA[F]]></text>
        <text font-family="Arial" fill="#000000" style="white-space:pre;" text-anchor="start" x="25.1872" y="51.4930" font-size="0.5189"><![CDATA[i]]></text>
        <text font-family="Arial" fill="#000000" style="white-space:pre;" text-anchor="start" x="25.4396" y="51.2260" font-size="0.5189"><![CDATA[2]]></text>
        <text font-family="Arial" fill="#000000" style="white-space:pre;" text-anchor="start" x="27.4731" y="51.4930" font-size="0.5189"><![CDATA[W]]></text>
        <text font-family="Arial" fill="#000000" style="white-space:pre;" text-anchor="start" x="27.9640" y="51.4930" font-size="0.5189"><![CDATA[i]]></text>
        <text font-family="Arial" fill="#000000" style="white-space:pre;" text-anchor="start" x="28.0762" y="51.4930" font-size="0.5189"><![CDATA[F]]></text>
        <text font-family="Arial" fill="#000000" style="white-space:pre;" text-anchor="start" x="28.3987" y="51.4930" font-size="0.5189"><![CDATA[i]]></text>
        <text font-family="Arial" fill="#000000" style="white-space:pre;" text-anchor="start" x="28.5530" y="51.2260" font-size="0.5189"><![CDATA[1]]></text>
      </g>
      <!--emf-blob end-->
    </g>
  </g>
</svg>
