<svg xmlns="http://www.w3.org/2000/svg" xmlns:xlink="http://www.w3.org/1999/xlink" version="1.1" width="2.9876000000" height="2.9876000000" viewBox="0 0 53.7732 53.7732">
  <title><![CDATA[FAP-241K]]></title>
  <g transform=" scale(4.000000) ">
    <!--converted by libvisio2svg-->
    <g transform=" translate(0.000000,0.000000) ">
      <!--emf-blob start-->
      <g transform="translate(-0.0000, -0.0000)">
        <path d="M 53.7170,9.5895 L 53.7029,9.0988 L 53.6608,8.6081 L 53.6046,8.1314 L 53.5203,7.6548 L 53.4219,7.1921 L 53.2814,6.7435 L 53.1409,6.2949 L 52.9582,5.8602 L 52.7756,5.4396 L 52.5648,5.0331 L 52.3259,4.6265 L 52.0871,4.2480 L 51.8201,3.8694 L 51.5250,3.5049 L 51.2300,3.1544 L 50.9068,2.8320 L 50.5836,2.5095 L 50.2323,2.2151 L 49.8670,1.9207 L 49.4876,1.6543 L 49.1083,1.4160 L 48.7008,1.1777 L 48.2933,0.9674 L 47.8718,0.7851 L 47.4362,0.6028 L 46.9866,0.4627 L 46.5369,0.3225 L 46.0732,0.2243 L 45.5955,0.1402 L 45.1178,0.0841 L 44.6260,0.0421 L 44.1342,0.0280 L 9.6109,0.0280 L 9.1191,0.0421 L 8.6273,0.0841 L 8.1496,0.1402 L 7.6718,0.2243 L 7.2082,0.3225 L 6.7585,0.4627 L 6.3089,0.6028 L 5.8733,0.7851 L 5.4518,0.9674 L 5.0443,1.1777 L 4.6368,1.4160 L 4.2575,1.6543 L 3.8781,1.9207 L 3.5128,2.2151 L 3.1615,2.5095 L 2.8383,2.8320 L 2.5151,3.1544 L 2.2201,3.5049 L 1.9250,3.8694 L 1.6580,4.2480 L 1.4192,4.6265 L 1.1803,5.0331 L 0.9695,5.4396 L 0.7869,5.8602 L 0.6042,6.2949 L 0.4637,6.7435 L 0.3232,7.1921 L 0.2248,7.6548 L 0.1405,8.1314 L 0.0843,8.6081 L 0.0422,9.0988 L 0.0281,9.5895 L 0.0281,44.0359 L 0.0422,44.5266 L 0.0843,45.0173 L 0.1405,45.4940 L 0.2248,45.9706 L 0.3232,46.4333 L 0.4637,46.8819 L 0.6042,47.3305 L 0.7869,47.7652 L 0.9695,48.1858 L 1.1803,48.5923 L 1.4192,48.9989 L 1.6580,49.3774 L 1.9250,49.7560 L 2.2201,50.1205 L 2.5151,50.4710 L 2.8383,50.7934 L 3.1615,51.1159 L 3.5128,51.4103 L 3.8781,51.7047 L 4.2575,51.9711 L 4.6368,52.2094 L 5.0443,52.4477 L 5.4518,52.6580 L 5.8733,52.8403 L 6.3089,53.0226 L 6.7585,53.1627 L 7.2082,53.3029 L 7.6718,53.4011 L 8.1496,53.4852 L 8.6273,53.5413 L 9.1191,53.5833 L 9.6109,53.5974 L 44.1342,53.5974 L 44.6260,53.5833 L 45.1178,53.5413 L 45.5955,53.4852 L 46.0732,53.4011 L 46.5369,53.3029 L 46.9866,53.1627 L 47.4362,53.0226 L 47.8718,52.8403 L 48.2933,52.6580 L 48.7008,52.4477 L 49.1083,52.2094 L 49.4876,51.9711 L 49.8670,51.7047 L 50.2323,51.4103 L 50.5836,51.1159 L 50.9068,50.7934 L 51.2300,50.4710 L 51.5250,50.1205 L 51.8201,49.7560 L 52.0871,49.3774 L 52.3259,48.9989 L 52.5648,48.5923 L 52.7756,48.1858 L 52.9582,47.7652 L 53.1409,47.3305 L 53.2814,46.8819 L 53.4219,46.4333 L 53.5203,45.9706 L 53.6046,45.4940 L 53.6608,45.0173 L 53.7029,44.5266 L 53.7170,44.0359 L 53.7170,9.5895 Z" stroke="#000000" stroke-width="0.1198" stroke-linecap="round" stroke-linejoin="round" fill="#EAEAEA"/>
        <path d="M 53.1831,9.9260 L 53.1690,9.4493 L 53.1409,8.9726 L 53.0706,8.4959 L 52.9863,8.0333 L 52.8880,7.5847 L 52.7615,7.1360 L 52.6070,6.7014 L 52.4524,6.2808 L 52.2557,5.8602 L 52.0449,5.4677 L 51.8201,5.0751 L 51.5812,4.6826 L 51.3143,4.3181 L 51.0333,3.9676 L 50.7382,3.6311 L 50.4291,3.3087 L 50.1059,3.0002 L 49.7687,2.7058 L 49.4174,2.4254 L 49.0521,2.1590 L 48.6586,1.9207 L 48.2652,1.6964 L 47.8718,1.4861 L 47.4502,1.2898 L 47.0287,1.1356 L 46.5931,0.9814 L 46.1435,0.8552 L 45.6939,0.7571 L 45.2302,0.6729 L 44.7525,0.6028 L 44.2747,0.5748 L 43.7970,0.5608 L 9.9481,0.5608 L 9.4704,0.5748 L 8.9926,0.6028 L 8.5149,0.6729 L 8.0512,0.7571 L 7.6016,0.8552 L 7.1520,0.9814 L 6.7164,1.1356 L 6.2949,1.2898 L 5.8733,1.4861 L 5.4799,1.6964 L 5.0865,1.9207 L 4.6930,2.1590 L 4.3277,2.4254 L 3.9764,2.7058 L 3.6392,3.0002 L 3.3160,3.3087 L 3.0069,3.6311 L 2.7118,3.9676 L 2.4308,4.3181 L 2.1639,4.6826 L 1.9250,5.0751 L 1.7002,5.4677 L 1.4894,5.8602 L 1.2927,6.2808 L 1.1381,6.7014 L 0.9836,7.1360 L 0.8571,7.5847 L 0.7588,8.0333 L 0.6744,8.4959 L 0.6042,8.9726 L 0.5761,9.4493 L 0.5620,9.9260 L 0.5620,43.6994 L 0.5761,44.1761 L 0.6042,44.6528 L 0.6744,45.1295 L 0.7588,45.5921 L 0.8571,46.0407 L 0.9836,46.4894 L 1.1381,46.9240 L 1.2927,47.3446 L 1.4894,47.7652 L 1.7002,48.1577 L 1.9250,48.5503 L 2.1639,48.9428 L 2.4308,49.3073 L 2.7118,49.6578 L 3.0069,49.9943 L 3.3160,50.3167 L 3.6392,50.6252 L 3.9764,50.9196 L 4.3277,51.2000 L 4.6930,51.4664 L 5.0865,51.7047 L 5.4799,51.9290 L 5.8733,52.1393 L 6.2949,52.3356 L 6.7164,52.4898 L 7.1520,52.6440 L 7.6016,52.7702 L 8.0512,52.8683 L 8.5149,52.9525 L 8.9926,53.0226 L 9.4704,53.0506 L 9.9481,53.0646 L 43.7970,53.0646 L 44.2747,53.0506 L 44.7525,53.0226 L 45.2302,52.9525 L 45.6939,52.8683 L 46.1435,52.7702 L 46.5931,52.6440 L 47.0287,52.4898 L 47.4502,52.3356 L 47.8718,52.1393 L 48.2652,51.9290 L 48.6586,51.7047 L 49.0521,51.4664 L 49.4174,51.2000 L 49.7687,50.9196 L 50.1059,50.6252 L 50.4291,50.3167 L 50.7382,49.9943 L 51.0333,49.6578 L 51.3143,49.3073 L 51.5812,48.9428 L 51.8201,48.5503 L 52.0449,48.1577 L 52.2557,47.7652 L 52.4524,47.3446 L 52.6070,46.9240 L 52.7615,46.4894 L 52.8880,46.0407 L 52.9863,45.5921 L 53.0706,45.1295 L 53.1409,44.6528 L 53.1690,44.1761 L 53.1831,43.6994 L 53.1831,9.9260 Z" stroke="#E2E2E2" stroke-width="0.1198" stroke-linecap="round" stroke-linejoin="round" fill="#EFEFEF"/>
        <path d="M 53.7170,9.5895 L 53.7029,9.0988 L 53.6608,8.6081 L 53.6046,8.1314 L 53.5203,7.6548 L 53.4219,7.1921 L 53.2814,6.7435 L 53.1409,6.2949 L 52.9582,5.8602 L 52.7756,5.4396 L 52.5648,5.0331 L 52.3259,4.6265 L 52.0871,4.2480 L 51.8201,3.8694 L 51.5250,3.5049 L 51.2300,3.1544 L 50.9068,2.8320 L 50.5836,2.5095 L 50.2323,2.2151 L 49.8670,1.9207 L 49.4876,1.6543 L 49.1083,1.4160 L 48.7008,1.1777 L 48.2933,0.9674 L 47.8718,0.7851 L 47.4362,0.6028 L 46.9866,0.4627 L 46.5369,0.3225 L 46.0732,0.2243 L 45.5955,0.1402 L 45.1178,0.0841 L 44.6260,0.0421 L 44.1342,0.0280 L 9.6109,0.0280 L 9.1191,0.0421 L 8.6273,0.0841 L 8.1496,0.1402 L 7.6718,0.2243 L 7.2082,0.3225 L 6.7585,0.4627 L 6.3089,0.6028 L 5.8733,0.7851 L 5.4518,0.9674 L 5.0443,1.1777 L 4.6368,1.4160 L 4.2575,1.6543 L 3.8781,1.9207 L 3.5128,2.2151 L 3.1615,2.5095 L 2.8383,2.8320 L 2.5151,3.1544 L 2.2201,3.5049 L 1.9250,3.8694 L 1.6580,4.2480 L 1.4192,4.6265 L 1.1803,5.0331 L 0.9695,5.4396 L 0.7869,5.8602 L 0.6042,6.2949 L 0.4637,6.7435 L 0.3232,7.1921 L 0.2248,7.6548 L 0.1405,8.1314 L 0.0843,8.6081 L 0.0422,9.0988 L 0.0281,9.5895 L 0.0281,44.0359 L 0.0422,44.5266 L 0.0843,45.0173 L 0.1405,45.4940 L 0.2248,45.9706 L 0.3232,46.4333 L 0.4637,46.8819 L 0.6042,47.3305 L 0.7869,47.7652 L 0.9695,48.1858 L 1.1803,48.5923 L 1.4192,48.9989 L 1.6580,49.3774 L 1.9250,49.7560 L 2.2201,50.1205 L 2.5151,50.4710 L 2.8383,50.7934 L 3.1615,51.1159 L 3.5128,51.4103 L 3.8781,51.7047 L 4.2575,51.9711 L 4.6368,52.2094 L 5.0443,52.4477 L 5.4518,52.6580 L 5.8733,52.8403 L 6.3089,53.0226 L 6.7585,53.1627 L 7.2082,53.3029 L 7.6718,53.4011 L 8.1496,53.4852 L 8.6273,53.5413 L 9.1191,53.5833 L 9.6109,53.5974 L 44.1342,53.5974 L 44.6260,53.5833 L 45.1178,53.5413 L 45.5955,53.4852 L 46.0732,53.4011 L 46.5369,53.3029 L 46.9866,53.1627 L 47.4362,53.0226 L 47.8718,52.8403 L 48.2933,52.6580 L 48.7008,52.4477 L 49.1083,52.2094 L 49.4876,51.9711 L 49.8670,51.7047 L 50.2323,51.4103 L 50.5836,51.1159 L 50.9068,50.7934 L 51.2300,50.4710 L 51.5250,50.1205 L 51.8201,49.7560 L 52.0871,49.3774 L 52.3259,48.9989 L 52.5648,48.5923 L 52.7756,48.1858 L 52.9582,47.7652 L 53.1409,47.3305 L 53.2814,46.8819 L 53.4219,46.4333 L 53.5203,45.9706 L 53.6046,45.4940 L 53.6608,45.0173 L 53.7029,44.5266 L 53.7170,44.0359 L 53.7170,9.5895 Z" stroke="#000000" stroke-width="0.1198" stroke-linecap="round" stroke-linejoin="round" fill="none"/>
        <ellipse cx="21.9477" cy="49.4686" rx="0.4215" ry="0.4136" fill="#00FF00" stroke="#000000" stroke-width="0.1198" stroke-linecap="round" stroke-linejoin="round"/>
        <ellipse cx="21.9477" cy="49.4686" rx="0.4215" ry="0.4136" fill="none" stroke="#000000" stroke-width="0.1198" stroke-linecap="round" stroke-linejoin="round"/>
        <ellipse cx="27.0131" cy="49.4686" rx="0.4145" ry="0.4136" fill="#00FF00" stroke="#000000" stroke-width="0.1198" stroke-linecap="round" stroke-linejoin="round"/>
        <ellipse cx="27.0131" cy="49.4686" rx="0.4145" ry="0.4136" fill="none" stroke="#000000" stroke-width="0.1198" stroke-linecap="round" stroke-linejoin="round"/>
        <ellipse cx="32.0574" cy="49.4686" rx="0.4145" ry="0.4136" fill="#00FF00" stroke="#000000" stroke-width="0.1198" stroke-linecap="round" stroke-linejoin="round"/>
        <ellipse cx="32.0574" cy="49.4686" rx="0.4145" ry="0.4136" fill="none" stroke="#000000" stroke-width="0.1198" stroke-linecap="round" stroke-linejoin="round"/>
        <path d="M 27.2449,50.3868 L 26.8796,50.3868 L 26.8796,50.7373 L 27.2449,50.7373 L 27.2449,50.3868 Z" stroke="#494949" stroke-width="0.1198" stroke-linecap="round" stroke-linejoin="round" fill="#333333"/>
        <path d="M 26.8515,51.0318 L 26.4861,51.0318 L 26.4861,51.3822 L 26.8515,51.3822 L 26.8515,51.0318 Z" stroke="#494949" stroke-width="0.1198" stroke-linecap="round" stroke-linejoin="round" fill="#333333"/>
        <path d="M 27.6383,51.0318 L 27.2730,51.0318 L 27.2730,51.3822 L 27.6383,51.3822 L 27.6383,51.0318 Z" stroke="#494949" stroke-width="0.1198" stroke-linecap="round" stroke-linejoin="round" fill="#333333"/>
        <path d="M 26.4299,50.8775 L 27.7086,50.8775 " stroke="#494949" stroke-width="0.1198" stroke-linecap="round" stroke-linejoin="round" fill="none"/>
        <path d="M 27.0622,50.7373 L 27.0622,50.8775 " stroke="#494949" stroke-width="0.1198" stroke-linecap="round" stroke-linejoin="round" fill="none"/>
        <path d="M 27.4557,50.8775 L 27.4557,51.0177 " stroke="#494949" stroke-width="0.1198" stroke-linecap="round" stroke-linejoin="round" fill="none"/>
        <path d="M 26.6688,50.8775 L 26.6688,51.0177 " stroke="#494949" stroke-width="0.1198" stroke-linecap="round" stroke-linejoin="round" fill="none"/>
        <path d="M 22.2146,50.5831 L 22.2287,50.5831 L 22.2427,50.5971 L 22.2568,50.5971 L 22.2708,50.6112 L 22.2849,50.6252 L 22.2989,50.6392 L 22.3130,50.6392 L 22.3130,50.6532 L 22.3270,50.6672 L 22.3411,50.6813 L 22.3552,50.6953 L 22.3552,50.7093 L 22.3692,50.7233 L 22.3692,50.7373 L 22.3833,50.7514 L 22.3833,50.7654 L 22.3973,50.7794 L 22.3973,50.7934 L 22.3973,50.8074 L 22.4114,50.8215 L 22.4114,50.8355 L 22.4114,50.8495 L 22.4114,50.8635 L 22.4114,50.8775 L 22.4254,50.8916 L 22.4254,50.9056 L 22.4254,50.9196 L 22.4254,50.9336 L 22.4254,50.9476 L 22.4254,50.9617 L 22.4254,50.9897 L 22.4254,51.0177 L 22.4254,51.0318 L 22.4114,51.0598 L 22.4114,51.0878 L 22.4114,51.1019 L 22.3973,51.1299 L 22.3973,51.1439 L 22.3833,51.1719 L 22.3692,51.1860 L 22.3552,51.2000 L 22.3552,51.2280 L 22.3411,51.2420 L 22.3270,51.2561 L 22.3130,51.2701 L 22.2989,51.2981 L 22.2849,51.3121 L 22.2708,51.3262 L 22.2427,51.3402 L 22.2287,51.3542 L 22.2146,51.3542 L 22.2006,51.3682 L 22.1725,51.3822 L 22.1584,51.3963 L 22.1444,51.3963 L 22.1163,51.4103 L 22.1022,51.4103 L 22.0741,51.4103 L 22.0601,51.4243 L 22.0320,51.4243 L 22.0179,51.4243 L 21.9898,51.4243 L 21.9617,51.4243 L 21.9477,51.4243 L 21.9196,51.4243 L 21.9055,51.4103 L 21.8774,51.4103 L 21.8634,51.4103 L 21.8353,51.3963 L 21.8212,51.3963 L 21.8072,51.3822 L 21.7791,51.3682 L 21.7650,51.3542 L 21.7510,51.3542 L 21.7369,51.3402 L 21.7088,51.3262 L 21.6948,51.3121 L 21.6807,51.2981 L 21.6667,51.2701 L 21.6526,51.2561 L 21.6385,51.2420 L 21.6245,51.2280 L 21.6245,51.2000 L 21.6104,51.1860 L 21.5964,51.1719 L 21.5823,51.1439 L 21.5823,51.1299 L 21.5683,51.1019 L 21.5683,51.0878 L 21.5683,51.0598 L 21.5542,51.0318 L 21.5542,51.0177 L 21.5542,50.9897 L 21.5542,50.9617 L 21.5542,50.9476 L 21.5542,50.9336 L 21.5542,50.9196 L 21.5542,50.9056 L 21.5542,50.8916 L 21.5683,50.8775 L 21.5683,50.8635 L 21.5683,50.8495 L 21.5683,50.8355 L 21.5823,50.8215 L 21.5823,50.8074 L 21.5823,50.7934 L 21.5964,50.7934 L 21.5964,50.7794 L 21.5964,50.7654 L 21.6104,50.7514 L 21.6104,50.7373 L 21.6245,50.7373 L 21.6245,50.7233 L 21.6385,50.7093 L 21.6385,50.6953 L 21.6526,50.6953 L 21.6526,50.6813 L 21.6667,50.6672 L 21.6807,50.6532 L 21.6807,50.6392 L 21.6948,50.6392 L 21.7088,50.6252 L 21.7229,50.6112 L 21.7369,50.6252 L 21.7510,50.6392 L 21.7650,50.6532 L 21.7791,50.6672 L 21.7931,50.6813 L 21.7791,50.6813 L 21.7791,50.6953 L 21.7650,50.6953 L 21.7650,50.7093 L 21.7510,50.7093 L 21.7510,50.7233 L 21.7369,50.7233 L 21.7369,50.7373 L 21.7229,50.7373 L 21.7229,50.7514 L 21.7088,50.7654 L 21.6948,50.7794 L 21.6948,50.7934 L 21.6807,50.7934 L 21.6807,50.8074 L 21.6667,50.8215 L 21.6667,50.8355 L 21.6526,50.8495 L 21.6526,50.8635 L 21.6385,50.8775 L 21.6385,50.8916 L 21.6385,50.9056 L 21.6245,50.9196 L 21.6245,50.9336 L 21.6245,50.9476 L 21.6245,50.9617 L 21.6245,50.9757 L 21.6245,51.0037 L 21.6245,51.0177 L 21.6385,51.0458 L 21.6385,51.0598 L 21.6385,51.0878 L 21.6526,51.1019 L 21.6526,51.1159 L 21.6667,51.1299 L 21.6667,51.1579 L 21.6807,51.1719 L 21.6948,51.1860 L 21.6948,51.2000 L 21.7088,51.2140 L 21.7229,51.2280 L 21.7369,51.2420 L 21.7510,51.2561 L 21.7650,51.2701 L 21.7791,51.2841 L 21.7931,51.2841 L 21.8072,51.2981 L 21.8212,51.3121 L 21.8353,51.3121 L 21.8493,51.3262 L 21.8634,51.3262 L 21.8774,51.3402 L 21.9055,51.3402 L 21.9196,51.3402 L 21.9336,51.3542 L 21.9477,51.3542 L 21.9758,51.3542 L 21.9898,51.3542 L 22.0039,51.3542 L 22.0320,51.3542 L 22.0460,51.3542 L 22.0601,51.3402 L 22.0741,51.3402 L 22.1022,51.3402 L 22.1163,51.3262 L 22.1303,51.3262 L 22.1444,51.3121 L 22.1584,51.3121 L 22.1725,51.2981 L 22.1865,51.2841 L 22.2006,51.2841 L 22.2146,51.2701 L 22.2287,51.2561 L 22.2427,51.2420 L 22.2568,51.2280 L 22.2708,51.2140 L 22.2849,51.2000 L 22.2849,51.1860 L 22.2989,51.1719 L 22.3130,51.1579 L 22.3130,51.1299 L 22.3270,51.1159 L 22.3270,51.1019 L 22.3411,51.0878 L 22.3411,51.0598 L 22.3411,51.0458 L 22.3552,51.0177 L 22.3552,51.0037 L 22.3552,50.9757 L 22.3552,50.9617 L 22.3552,50.9476 L 22.3552,50.9336 L 22.3552,50.9196 L 22.3552,50.9056 L 22.3411,50.8916 L 22.3411,50.8775 L 22.3411,50.8635 L 22.3270,50.8495 L 22.3270,50.8355 L 22.3130,50.8215 L 22.3130,50.8074 L 22.2989,50.8074 L 22.2989,50.7934 L 22.2849,50.7794 L 22.2849,50.7654 L 22.2708,50.7654 L 22.2708,50.7514 L 22.2568,50.7373 L 22.2427,50.7373 L 22.2427,50.7233 L 22.2287,50.7093 L 22.2146,50.7093 L 22.2146,50.6953 L 22.2006,50.6953 L 22.1865,50.6813 L 22.1725,50.6813 L 22.1725,50.6672 L 22.1584,50.6532 L 22.1444,50.6532 L 22.1584,50.6392 L 22.1725,50.6252 L 22.1865,50.6252 L 22.1865,50.6112 L 22.2006,50.5971 L 22.2146,50.5831 Z" stroke="#494949" stroke-width="0.1198" stroke-linecap="round" stroke-linejoin="round" fill="#494949"/>
        <path d="M 22.0179,50.4009 L 21.9055,50.4009 L 21.9055,51.0037 L 22.0179,51.0037 L 22.0179,50.4009 Z" stroke="#494949" stroke-width="0.1198" stroke-linecap="round" stroke-linejoin="round" fill="#494949"/>
        <ellipse cx="32.0433" cy="50.6742" rx="0.0492" ry="0.0491" fill="#494949" stroke="#000000" stroke-width="0.1198" stroke-linecap="round" stroke-linejoin="round"/>
        <ellipse cx="32.0433" cy="50.6742" rx="0.0492" ry="0.0491" fill="none" stroke="#494949" stroke-width="0.1198" stroke-linecap="round" stroke-linejoin="round"/>
        <path d="M 31.7974,50.7093 L 31.7974,50.7233 L 31.7974,50.7373 L 31.7974,50.7514 L 31.7974,50.7654 L 31.7974,50.7794 L 31.8115,50.7934 L 31.8115,50.8074 L 31.8115,50.8215 L 31.8255,50.8355 L 31.8255,50.8495 L 31.8396,50.8635 L 31.8396,50.8775 L 31.8536,50.8775 L 31.8536,50.8916 L 31.8677,50.8916 L 31.8677,50.9056 L 31.8817,50.9056 L 31.8817,50.9196 L 31.8958,50.9196 L 31.8958,50.9336 L 31.9098,50.9336 L 31.9239,50.9336 L 31.9379,50.9336 L 31.9520,50.9336 L 31.9520,50.9196 L 31.9660,50.9196 L 31.9660,50.9056 L 31.9660,50.8916 L 31.9660,50.8775 L 31.9660,50.8635 L 31.9520,50.8635 L 31.9520,50.8495 L 31.9379,50.8495 L 31.9239,50.8495 L 31.9239,50.8355 L 31.9098,50.8355 L 31.9098,50.8215 L 31.8958,50.8215 L 31.8958,50.8074 L 31.8817,50.8074 L 31.8817,50.7934 L 31.8677,50.7934 L 31.8677,50.7794 L 31.8677,50.7654 L 31.8536,50.7514 L 31.8536,50.7373 L 31.8536,50.7233 L 31.8536,50.7093 L 31.8536,50.6953 L 31.8536,50.6813 L 31.8536,50.6672 L 31.8677,50.6532 L 31.8677,50.6392 L 31.8677,50.6252 L 31.8817,50.6252 L 31.8817,50.6112 L 31.8958,50.6112 L 31.8958,50.5971 L 31.9098,50.5971 L 31.9098,50.5831 L 31.9239,50.5831 L 31.9239,50.5691 L 31.9379,50.5691 L 31.9520,50.5691 L 31.9520,50.5551 L 31.9660,50.5551 L 31.9660,50.5411 L 31.9660,50.5270 L 31.9660,50.5130 L 31.9660,50.4990 L 31.9520,50.4990 L 31.9520,50.4850 L 31.9379,50.4850 L 31.9239,50.4850 L 31.9098,50.4850 L 31.8958,50.4850 L 31.8958,50.4990 L 31.8817,50.4990 L 31.8817,50.5130 L 31.8677,50.5130 L 31.8677,50.5270 L 31.8536,50.5270 L 31.8536,50.5411 L 31.8396,50.5411 L 31.8396,50.5551 L 31.8255,50.5691 L 31.8255,50.5831 L 31.8115,50.5971 L 31.8115,50.6112 L 31.8115,50.6252 L 31.7974,50.6392 L 31.7974,50.6532 L 31.7974,50.6672 L 31.7974,50.6813 L 31.7974,50.6953 L 31.7974,50.7093 Z" stroke="#494949" stroke-width="0.1198" stroke-linecap="round" stroke-linejoin="round" fill="#494949"/>
        <path d="M 31.6429,50.7093 L 31.6429,50.6953 L 31.6429,50.6813 L 31.6429,50.6672 L 31.6429,50.6532 L 31.6429,50.6392 L 31.6429,50.6252 L 31.6569,50.6112 L 31.6569,50.5971 L 31.6569,50.5831 L 31.6569,50.5691 L 31.6710,50.5691 L 31.6710,50.5551 L 31.6710,50.5411 L 31.6850,50.5411 L 31.6850,50.5270 L 31.6850,50.5130 L 31.6991,50.4990 L 31.6991,50.4850 L 31.7131,50.4850 L 31.7131,50.4710 L 31.7272,50.4569 L 31.7412,50.4429 L 31.7553,50.4429 L 31.7553,50.4289 L 31.7693,50.4149 L 31.7834,50.4149 L 31.7834,50.4009 L 31.7974,50.4009 L 31.8115,50.4009 L 31.8115,50.3868 L 31.8255,50.3868 L 31.8396,50.3868 L 31.8396,50.4009 L 31.8396,50.4149 L 31.8396,50.4289 L 31.8396,50.4429 L 31.8255,50.4569 L 31.8115,50.4710 L 31.8115,50.4850 L 31.7974,50.4850 L 31.7974,50.4990 L 31.7834,50.5130 L 31.7834,50.5270 L 31.7693,50.5270 L 31.7693,50.5411 L 31.7553,50.5551 L 31.7553,50.5691 L 31.7412,50.5831 L 31.7412,50.5971 L 31.7272,50.6112 L 31.7272,50.6252 L 31.7272,50.6392 L 31.7131,50.6532 L 31.7131,50.6672 L 31.7131,50.6813 L 31.7131,50.6953 L 31.7131,50.7093 L 31.7131,50.7233 L 31.7131,50.7373 L 31.7131,50.7514 L 31.7131,50.7654 L 31.7272,50.7794 L 31.7272,50.7934 L 31.7272,50.8074 L 31.7412,50.8215 L 31.7412,50.8355 L 31.7553,50.8495 L 31.7553,50.8635 L 31.7693,50.8775 L 31.7693,50.8916 L 31.7834,50.8916 L 31.7834,50.9056 L 31.7974,50.9196 L 31.7974,50.9336 L 31.8115,50.9336 L 31.8115,50.9476 L 31.8255,50.9617 L 31.8396,50.9757 L 31.8396,50.9897 L 31.8396,51.0037 L 31.8396,51.0177 L 31.8396,51.0318 L 31.8255,51.0318 L 31.8115,51.0318 L 31.8115,51.0177 L 31.7974,51.0177 L 31.7834,51.0177 L 31.7834,51.0037 L 31.7693,51.0037 L 31.7553,50.9897 L 31.7553,50.9757 L 31.7412,50.9757 L 31.7272,50.9617 L 31.7131,50.9476 L 31.7131,50.9336 L 31.6991,50.9336 L 31.6991,50.9196 L 31.6850,50.9056 L 31.6850,50.8916 L 31.6710,50.8775 L 31.6710,50.8635 L 31.6710,50.8495 L 31.6569,50.8495 L 31.6569,50.8355 L 31.6569,50.8215 L 31.6569,50.8074 L 31.6429,50.7934 L 31.6429,50.7794 L 31.6429,50.7654 L 31.6429,50.7514 L 31.6429,50.7373 L 31.6429,50.7233 L 31.6429,50.7093 Z" stroke="#494949" stroke-width="0.1198" stroke-linecap="round" stroke-linejoin="round" fill="#494949"/>
        <path d="M 32.4016,50.7093 L 32.4016,50.7233 L 32.4016,50.7373 L 32.4016,50.7514 L 32.4016,50.7654 L 32.4016,50.7794 L 32.3876,50.7934 L 32.3876,50.8074 L 32.3876,50.8215 L 32.3735,50.8355 L 32.3735,50.8495 L 32.3595,50.8635 L 32.3595,50.8775 L 32.3454,50.8775 L 32.3454,50.8916 L 32.3314,50.8916 L 32.3314,50.9056 L 32.3173,50.9056 L 32.3173,50.9196 L 32.3033,50.9196 L 32.3033,50.9336 L 32.2892,50.9336 L 32.2752,50.9336 L 32.2611,50.9336 L 32.2471,50.9336 L 32.2471,50.9196 L 32.2330,50.9196 L 32.2330,50.9056 L 32.2330,50.8916 L 32.2330,50.8775 L 32.2330,50.8635 L 32.2471,50.8635 L 32.2471,50.8495 L 32.2611,50.8495 L 32.2752,50.8495 L 32.2752,50.8355 L 32.2892,50.8355 L 32.2892,50.8215 L 32.3033,50.8215 L 32.3033,50.8074 L 32.3173,50.8074 L 32.3173,50.7934 L 32.3314,50.7934 L 32.3314,50.7794 L 32.3314,50.7654 L 32.3454,50.7514 L 32.3454,50.7373 L 32.3454,50.7233 L 32.3454,50.7093 L 32.3454,50.6953 L 32.3454,50.6813 L 32.3454,50.6672 L 32.3314,50.6532 L 32.3314,50.6392 L 32.3314,50.6252 L 32.3173,50.6252 L 32.3173,50.6112 L 32.3033,50.6112 L 32.3033,50.5971 L 32.2892,50.5971 L 32.2892,50.5831 L 32.2752,50.5831 L 32.2752,50.5691 L 32.2611,50.5691 L 32.2471,50.5691 L 32.2471,50.5551 L 32.2330,50.5551 L 32.2330,50.5411 L 32.2330,50.5270 L 32.2330,50.5130 L 32.2330,50.4990 L 32.2471,50.4990 L 32.2471,50.4850 L 32.2611,50.4850 L 32.2752,50.4850 L 32.2892,50.4850 L 32.3033,50.4850 L 32.3033,50.4990 L 32.3173,50.4990 L 32.3173,50.5130 L 32.3314,50.5130 L 32.3314,50.5270 L 32.3454,50.5270 L 32.3454,50.5411 L 32.3595,50.5411 L 32.3595,50.5551 L 32.3735,50.5691 L 32.3735,50.5831 L 32.3876,50.5971 L 32.3876,50.6112 L 32.3876,50.6252 L 32.4016,50.6392 L 32.4016,50.6532 L 32.4016,50.6672 L 32.4016,50.6813 L 32.4016,50.6953 L 32.4016,50.7093 Z" stroke="#494949" stroke-width="0.1198" stroke-linecap="round" stroke-linejoin="round" fill="#494949"/>
        <path d="M 32.5562,50.7093 L 32.5562,50.6953 L 32.5562,50.6813 L 32.5562,50.6672 L 32.5562,50.6532 L 32.5562,50.6392 L 32.5562,50.6252 L 32.5421,50.6112 L 32.5421,50.5971 L 32.5421,50.5831 L 32.5421,50.5691 L 32.5281,50.5691 L 32.5281,50.5551 L 32.5281,50.5411 L 32.5140,50.5270 L 32.5140,50.5130 L 32.5000,50.4990 L 32.5000,50.4850 L 32.4859,50.4850 L 32.4859,50.4710 L 32.4719,50.4569 L 32.4578,50.4429 L 32.4438,50.4429 L 32.4438,50.4289 L 32.4297,50.4149 L 32.4157,50.4149 L 32.4157,50.4009 L 32.4016,50.4009 L 32.3876,50.4009 L 32.3876,50.3868 L 32.3735,50.3868 L 32.3595,50.3868 L 32.3595,50.4009 L 32.3595,50.4149 L 32.3595,50.4289 L 32.3595,50.4429 L 32.3735,50.4569 L 32.3876,50.4710 L 32.3876,50.4850 L 32.4016,50.4850 L 32.4016,50.4990 L 32.4157,50.5130 L 32.4157,50.5270 L 32.4297,50.5270 L 32.4297,50.5411 L 32.4438,50.5551 L 32.4438,50.5691 L 32.4578,50.5831 L 32.4578,50.5971 L 32.4719,50.6112 L 32.4719,50.6252 L 32.4719,50.6392 L 32.4859,50.6532 L 32.4859,50.6672 L 32.4859,50.6813 L 32.4859,50.6953 L 32.4859,50.7093 L 32.4859,50.7233 L 32.4859,50.7373 L 32.4859,50.7514 L 32.4859,50.7654 L 32.4719,50.7794 L 32.4719,50.7934 L 32.4719,50.8074 L 32.4578,50.8215 L 32.4578,50.8355 L 32.4438,50.8495 L 32.4438,50.8635 L 32.4297,50.8775 L 32.4297,50.8916 L 32.4157,50.8916 L 32.4157,50.9056 L 32.4016,50.9196 L 32.4016,50.9336 L 32.3876,50.9336 L 32.3876,50.9476 L 32.3735,50.9617 L 32.3595,50.9757 L 32.3595,50.9897 L 32.3595,51.0037 L 32.3595,51.0177 L 32.3595,51.0318 L 32.3735,51.0318 L 32.3876,51.0318 L 32.3876,51.0177 L 32.4016,51.0177 L 32.4157,51.0177 L 32.4157,51.0037 L 32.4297,51.0037 L 32.4438,50.9897 L 32.4438,50.9757 L 32.4578,50.9757 L 32.4719,50.9617 L 32.4859,50.9476 L 32.4859,50.9336 L 32.5000,50.9336 L 32.5000,50.9196 L 32.5140,50.9056 L 32.5140,50.8916 L 32.5281,50.8916 L 32.5281,50.8775 L 32.5281,50.8635 L 32.5281,50.8495 L 32.5421,50.8495 L 32.5421,50.8355 L 32.5421,50.8215 L 32.5421,50.8074 L 32.5562,50.7934 L 32.5562,50.7794 L 32.5562,50.7654 L 32.5562,50.7514 L 32.5562,50.7373 L 32.5562,50.7233 L 32.5562,50.7093 Z" stroke="#494949" stroke-width="0.1198" stroke-linecap="round" stroke-linejoin="round" fill="#494949"/>
        <path d="M 32.1487,50.7514 L 32.0644,50.7514 L 32.0644,51.3402 L 32.1487,51.3402 L 32.1487,50.7514 Z" stroke="#494949" stroke-width="0.1198" stroke-linecap="round" stroke-linejoin="round" fill="#494949"/>
        <path d="M 31.9660,51.2841 L 31.9660,51.3402 L 32.2611,51.3402 L 32.2611,51.2841 L 31.9660,51.2841 Z" stroke="#494949" stroke-width="0.1198" stroke-linecap="round" stroke-linejoin="round" fill="#494949"/>
        <path d="M 19.4747,27.5347 L 19.4606,27.5347 L 19.4466,27.5347 L 19.4466,27.5207 L 19.4325,27.5207 L 19.4185,27.5067 L 19.4044,27.5067 L 19.4044,27.4927 L 19.3904,27.4927 L 19.3904,27.4786 L 19.3904,27.4646 L 19.3763,27.4646 L 19.3763,27.4506 L 19.3763,27.4366 L 19.3763,27.4226 L 19.3763,27.3945 L 19.3763,27.3665 L 19.3763,27.3384 L 19.3763,27.2964 L 19.3763,27.2543 L 19.3763,27.1982 L 19.3763,27.1562 L 19.3763,27.0861 L 19.3763,27.0300 L 19.3763,26.9599 L 19.3763,26.9038 L 19.3763,26.8337 L 19.3763,26.7636 L 19.3763,26.6935 L 19.3763,26.6234 L 19.3763,26.5533 L 19.3763,26.4832 L 19.3763,26.4272 L 19.3763,26.3571 L 19.3763,26.3010 L 19.3763,26.2309 L 19.3763,26.1888 L 19.3763,26.1327 L 19.3763,26.0907 L 19.3763,26.0486 L 19.3763,26.0206 L 19.3763,25.9925 L 19.3763,25.9645 L 19.3763,25.9505 L 19.3763,25.9365 L 19.3763,25.9224 L 19.3904,25.9224 L 19.3904,25.9084 L 19.3904,25.8944 L 19.4044,25.8944 L 19.4044,25.8804 L 19.4185,25.8804 L 19.4325,25.8664 L 19.4466,25.8664 L 19.4466,25.8523 L 19.4606,25.8523 L 19.4747,25.8523 L 19.4887,25.8523 L 19.5168,25.8523 L 19.5449,25.8523 L 19.5871,25.8523 L 19.6293,25.8523 L 19.6855,25.8523 L 19.7417,25.8523 L 19.8119,25.8523 L 19.8822,25.8523 L 19.9524,25.8523 L 20.0227,25.8523 L 20.1070,25.8523 L 20.1772,25.8523 L 20.2616,25.8523 L 20.3459,25.8523 L 20.4302,25.8523 L 20.5145,25.8523 L 20.5847,25.8523 L 20.6690,25.8523 L 20.7393,25.8523 L 20.8095,25.8523 L 20.8798,25.8523 L 20.9500,25.8523 L 21.0063,25.8523 L 21.0625,25.8523 L 21.1046,25.8523 L 21.1468,25.8523 L 21.1749,25.8523 L 21.2030,25.8523 L 21.2170,25.8523 L 21.2311,25.8523 L 21.2451,25.8523 L 21.2451,25.8664 L 21.2592,25.8664 L 21.2732,25.8804 L 21.2873,25.8804 L 21.2873,25.8944 L 21.3013,25.8944 L 21.3013,25.9084 L 21.3013,25.9224 L 21.3154,25.9224 L 21.3154,25.9365 L 21.3154,25.9505 L 21.3154,25.9645 L 21.3154,25.9785 L 21.3154,25.9925 L 21.3154,26.0066 L 21.3154,26.0206 L 21.3154,26.0346 L 21.3154,26.0486 L 21.3154,26.0626 L 21.3154,26.0767 L 21.3154,26.0907 L 21.3154,26.1047 L 21.3154,26.1187 L 21.3154,26.1327 L 21.3154,26.1468 L 21.3154,26.1608 L 21.3154,26.1748 L 21.3154,26.1888 L 21.3154,26.2028 L 21.3154,26.2169 L 21.3154,26.2309 L 21.3154,26.2449 L 21.3154,26.2589 L 21.3154,26.2449 L 21.3154,26.2309 L 21.3013,26.2309 L 21.3013,26.2169 L 21.2873,26.2169 L 21.2873,26.2028 L 21.2732,26.2028 L 21.2732,26.1888 L 21.2592,26.1888 L 21.2592,26.1748 L 21.2451,26.1748 L 21.2311,26.1748 L 21.2170,26.1748 L 21.1889,26.1748 L 21.1468,26.1748 L 21.1187,26.1748 L 21.0765,26.1748 L 21.0203,26.1748 L 20.9782,26.1748 L 20.9219,26.1748 L 20.8517,26.1748 L 20.7955,26.1748 L 20.7393,26.1748 L 20.6690,26.1748 L 20.5988,26.1748 L 20.5426,26.1748 L 20.4723,26.1748 L 20.4021,26.1748 L 20.3318,26.1748 L 20.2756,26.1748 L 20.2194,26.1748 L 20.1491,26.1748 L 20.0929,26.1748 L 20.0508,26.1748 L 19.9946,26.1748 L 19.9524,26.1748 L 19.9243,26.1748 L 19.8822,26.1748 L 19.8541,26.1748 L 19.8400,26.1748 L 19.8260,26.1748 L 19.8119,26.1748 L 19.7979,26.1748 L 19.7838,26.1748 L 19.7698,26.1888 L 19.7557,26.1888 L 19.7417,26.2028 L 19.7417,26.2169 L 19.7276,26.2169 L 19.7276,26.2309 L 19.7276,26.2449 L 19.7276,26.2589 L 19.7276,26.2729 L 19.7276,26.2870 L 19.7276,26.3150 L 19.7276,26.3430 L 19.7276,26.3711 L 19.7276,26.3991 L 19.7276,26.4412 L 19.7276,26.4832 L 19.7276,26.5393 L 19.7276,26.5814 L 19.7276,26.6375 L 19.7276,26.6935 L 19.7276,26.7496 L 19.7276,26.8057 L 19.7276,26.8618 L 19.7276,26.9038 L 19.7276,26.9599 L 19.7276,27.0160 L 19.7276,27.0721 L 19.7276,27.1281 L 19.7276,27.1702 L 19.7276,27.2263 L 19.7276,27.2683 L 19.7276,27.3104 L 19.7276,27.3384 L 19.7276,27.3665 L 19.7276,27.3945 L 19.7276,27.4226 L 19.7276,27.4366 L 19.7276,27.4506 L 19.7276,27.4646 L 19.7276,27.4786 L 19.7276,27.4927 L 19.7417,27.4927 L 19.7417,27.5067 L 19.7417,27.5207 L 19.7557,27.5207 L 19.7698,27.5207 L 19.7698,27.5347 L 19.7838,27.5347 L 19.7979,27.5347 L 19.8119,27.5347 L 19.7979,27.5347 L 19.7838,27.5347 L 19.7698,27.5347 L 19.7557,27.5347 L 19.7417,27.5347 L 19.7276,27.5347 L 19.7136,27.5347 L 19.6995,27.5347 L 19.6855,27.5347 L 19.6714,27.5347 L 19.6574,27.5347 L 19.6433,27.5347 L 19.6293,27.5347 L 19.6152,27.5347 L 19.6012,27.5347 L 19.5871,27.5347 L 19.5731,27.5347 L 19.5590,27.5347 L 19.5449,27.5347 L 19.5309,27.5347 L 19.5168,27.5347 L 19.5028,27.5347 L 19.4887,27.5347 L 19.4747,27.5347 Z" stroke="#7F7F7F" stroke-width="0.1198" stroke-linecap="round" stroke-linejoin="round" fill="#7F7F7F"/>
        <path d="M 21.2592,26.5674 L 21.2311,26.5674 L 21.1889,26.5674 L 21.1468,26.5674 L 21.1046,26.5674 L 21.0625,26.5674 L 21.0063,26.5674 L 20.9641,26.5674 L 20.9079,26.5674 L 20.8517,26.5674 L 20.8095,26.5674 L 20.7533,26.5674 L 20.6971,26.5674 L 20.6409,26.5674 L 20.5847,26.5674 L 20.5285,26.5674 L 20.4723,26.5674 L 20.4161,26.5674 L 20.3599,26.5674 L 20.3178,26.5674 L 20.2616,26.5674 L 20.2194,26.5674 L 20.1772,26.5674 L 20.1351,26.5674 L 20.0929,26.5674 L 20.0648,26.5674 L 20.0367,26.5674 L 20.0086,26.5674 L 19.9805,26.5674 L 19.9665,26.5674 L 19.9524,26.5674 L 19.9384,26.5674 L 19.9243,26.5674 L 19.9103,26.5674 L 19.9103,26.5533 L 19.8962,26.5533 L 19.8962,26.5393 L 19.8962,26.5253 L 19.8822,26.5253 L 19.8822,26.5113 L 19.8822,26.4973 L 19.8822,26.4832 L 19.8822,26.4973 L 19.8822,26.5113 L 19.8822,26.5253 L 19.8822,26.5393 L 19.8822,26.5533 L 19.8822,26.5674 L 19.8822,26.5814 L 19.8822,26.5954 L 19.8822,26.6094 L 19.8822,26.6234 L 19.8822,26.6515 L 19.8822,26.6655 L 19.8822,26.6795 L 19.8822,26.6935 L 19.8822,26.7076 L 19.8822,26.7216 L 19.8822,26.7356 L 19.8822,26.7496 L 19.8822,26.7636 L 19.8822,26.7776 L 19.8822,26.7917 L 19.8822,26.8057 L 19.8822,26.8197 L 19.8822,26.8337 L 19.8822,26.8477 L 19.8962,26.8477 L 19.8962,26.8618 L 19.8962,26.8758 L 19.9103,26.8758 L 19.9243,26.8898 L 19.9384,26.8898 L 19.9524,26.8898 L 19.9665,26.8898 L 19.9805,26.8898 L 20.0086,26.8898 L 20.0367,26.8898 L 20.0648,26.8898 L 20.1070,26.8898 L 20.1491,26.8898 L 20.1913,26.8898 L 20.2334,26.8898 L 20.2756,26.8898 L 20.3318,26.8898 L 20.3880,26.8898 L 20.4302,26.8898 L 20.4864,26.8898 L 20.5426,26.8898 L 20.5988,26.8898 L 20.6550,26.8898 L 20.7112,26.8898 L 20.7674,26.8898 L 20.8236,26.8898 L 20.8798,26.8898 L 20.9360,26.8898 L 20.9922,26.8898 L 21.0344,26.8898 L 21.0765,26.8898 L 21.1327,26.8898 L 21.1749,26.8898 L 21.2030,26.8898 L 21.2451,26.8898 L 21.2732,26.8898 L 21.2873,26.8758 L 21.3013,26.8618 L 21.3154,26.8618 L 21.3154,26.8477 L 21.3294,26.8337 L 21.3435,26.8197 L 21.3435,26.8057 L 21.3575,26.7917 L 21.3575,26.7776 L 21.3575,26.7636 L 21.3716,26.7496 L 21.3716,26.7356 L 21.3716,26.7216 L 21.3716,26.7076 L 21.3716,26.6935 L 21.3716,26.6795 L 21.3716,26.6655 L 21.3575,26.6515 L 21.3575,26.6375 L 21.3435,26.6234 L 21.3435,26.6094 L 21.3294,26.5954 L 21.3154,26.5954 L 21.3154,26.5814 L 21.3013,26.5814 L 21.2873,26.5814 L 21.2873,26.5674 L 21.2732,26.5674 L 21.2592,26.5674 Z" stroke="#7F7F7F" stroke-width="0.1198" stroke-linecap="round" stroke-linejoin="round" fill="#7F7F7F"/>
        <path d="M 24.3223,26.8898 L 24.3082,26.8898 L 24.2942,26.8898 L 24.2942,26.8758 L 24.2801,26.8758 L 24.2661,26.8758 L 24.2661,26.8618 L 24.2520,26.8618 L 24.2520,26.8477 L 24.2380,26.8477 L 24.2380,26.8337 L 24.2239,26.8337 L 24.2239,26.8197 L 24.2239,26.8057 L 24.2239,26.7917 L 24.2239,26.7776 L 24.2239,26.7636 L 24.2239,26.7496 L 24.2239,26.7356 L 24.2239,26.7216 L 24.2239,26.7076 L 24.2239,26.6935 L 24.2239,26.6795 L 24.2239,26.6655 L 24.2239,26.6515 L 24.2239,26.6234 L 24.2239,26.6094 L 24.2239,26.5954 L 24.2239,26.5814 L 24.2239,26.5674 L 24.2239,26.5533 L 24.2239,26.5393 L 24.2239,26.5253 L 24.2239,26.5113 L 24.2239,26.4973 L 24.2239,26.4832 L 24.2239,26.4973 L 24.2239,26.5113 L 24.2380,26.5113 L 24.2380,26.5253 L 24.2380,26.5393 L 24.2520,26.5393 L 24.2520,26.5533 L 24.2661,26.5533 L 24.2801,26.5533 L 24.2801,26.5674 L 24.2942,26.5674 L 24.3082,26.5674 L 24.3223,26.5674 L 24.3363,26.5674 L 24.3504,26.5674 L 24.3644,26.5674 L 24.3925,26.5674 L 24.4206,26.5674 L 24.4488,26.5674 L 24.4909,26.5674 L 24.5331,26.5674 L 24.5752,26.5674 L 24.6174,26.5674 L 24.6595,26.5674 L 24.7017,26.5674 L 24.7579,26.5674 L 24.8000,26.5674 L 24.8562,26.5674 L 24.9124,26.5674 L 24.9546,26.5674 L 25.0108,26.5674 L 25.0529,26.5674 L 25.0951,26.5674 L 25.1372,26.5674 L 25.1794,26.5674 L 25.2216,26.5674 L 25.2637,26.5674 L 25.2918,26.5674 L 25.3199,26.5674 L 25.3480,26.5674 L 25.3621,26.5674 L 25.3761,26.5674 L 25.3902,26.5674 L 25.3902,26.5533 L 25.3902,26.5393 L 25.3902,26.5253 L 25.3902,26.5113 L 25.3902,26.4973 L 25.3902,26.4832 L 25.3902,26.4552 L 25.3902,26.4412 L 25.3902,26.4272 L 25.3902,26.4131 L 25.3902,26.3851 L 25.3902,26.3711 L 25.3902,26.3571 L 25.3902,26.3290 L 25.3902,26.3150 L 25.3902,26.3010 L 25.3902,26.2870 L 25.3902,26.2589 L 25.3902,26.2449 L 25.3902,26.2309 L 25.3902,26.2169 L 25.3902,26.2028 L 25.3902,26.1888 L 25.3902,26.1748 L 25.3761,26.1748 L 25.3621,26.1748 L 25.3340,26.1748 L 25.3199,26.1748 L 25.2778,26.1748 L 25.2497,26.1748 L 25.2075,26.1748 L 25.1654,26.1748 L 25.1232,26.1748 L 25.0670,26.1748 L 25.0248,26.1748 L 24.9686,26.1748 L 24.9124,26.1748 L 24.8562,26.1748 L 24.8141,26.1748 L 24.7579,26.1748 L 24.7017,26.1748 L 24.6455,26.1748 L 24.5893,26.1748 L 24.5471,26.1748 L 24.4909,26.1748 L 24.4488,26.1748 L 24.4066,26.1748 L 24.3644,26.1748 L 24.3363,26.1748 L 24.2942,26.1748 L 24.2801,26.1748 L 24.2520,26.1748 L 24.2380,26.1748 L 24.2239,26.1748 L 24.2099,26.1748 L 24.1958,26.1748 L 24.1958,26.1888 L 24.1818,26.1888 L 24.1818,26.2028 L 24.1677,26.2028 L 24.1677,26.2169 L 24.1537,26.2309 L 24.1537,26.2449 L 24.1537,26.2589 L 24.1537,26.2729 L 24.1537,26.2870 L 24.1537,26.3150 L 24.1537,26.3430 L 24.1537,26.3711 L 24.1537,26.3991 L 24.1537,26.4412 L 24.1537,26.4832 L 24.1537,26.5393 L 24.1537,26.5814 L 24.1537,26.6375 L 24.1537,26.6935 L 24.1537,26.7496 L 24.1537,26.8057 L 24.1537,26.8618 L 24.1537,26.9038 L 24.1537,26.9599 L 24.1537,27.0160 L 24.1537,27.0721 L 24.1537,27.1281 L 24.1537,27.1702 L 24.1537,27.2263 L 24.1537,27.2683 L 24.1537,27.3104 L 24.1537,27.3384 L 24.1537,27.3665 L 24.1537,27.3945 L 24.1537,27.4226 L 24.1537,27.4366 L 24.1537,27.4506 L 24.1537,27.4646 L 24.1537,27.4786 L 24.1537,27.4927 L 24.1537,27.5067 L 24.1677,27.5067 L 24.1677,27.5207 L 24.1677,27.5347 L 24.1818,27.5347 L 24.1677,27.5347 L 24.1537,27.5347 L 24.1396,27.5347 L 24.1256,27.5347 L 24.1115,27.5347 L 24.0975,27.5347 L 24.0834,27.5347 L 24.0694,27.5347 L 24.0553,27.5347 L 24.0413,27.5347 L 24.0272,27.5347 L 24.0132,27.5347 L 23.9991,27.5347 L 23.9851,27.5347 L 23.9710,27.5347 L 23.9570,27.5347 L 23.9429,27.5347 L 23.9289,27.5347 L 23.9148,27.5347 L 23.9008,27.5347 L 23.8867,27.5347 L 23.8727,27.5347 L 23.8586,27.5347 L 23.8446,27.5207 L 23.8305,27.5207 L 23.8305,27.5067 L 23.8165,27.5067 L 23.8165,27.4927 L 23.8165,27.4786 L 23.8024,27.4786 L 23.8024,27.4646 L 23.8024,27.4506 L 23.8024,27.4366 L 23.8024,27.4226 L 23.8024,27.3945 L 23.8024,27.3665 L 23.8024,27.3384 L 23.8024,27.2964 L 23.8024,27.2543 L 23.8024,27.1982 L 23.8024,27.1562 L 23.8024,27.0861 L 23.8024,27.0300 L 23.8024,26.9599 L 23.8024,26.9038 L 23.8024,26.8337 L 23.8024,26.7636 L 23.8024,26.6935 L 23.8024,26.6234 L 23.8024,26.5533 L 23.8024,26.4832 L 23.8024,26.4272 L 23.8024,26.3571 L 23.8024,26.3010 L 23.8024,26.2309 L 23.8024,26.1888 L 23.8024,26.1327 L 23.8024,26.0907 L 23.8024,26.0486 L 23.8024,26.0206 L 23.8024,25.9925 L 23.8024,25.9645 L 23.8024,25.9505 L 23.8024,25.9365 L 23.8024,25.9224 L 23.8024,25.9084 L 23.8165,25.9084 L 23.8165,25.8944 L 23.8165,25.8804 L 23.8305,25.8804 L 23.8305,25.8664 L 23.8446,25.8664 L 23.8586,25.8523 L 23.8727,25.8523 L 23.8867,25.8523 L 23.9008,25.8523 L 23.9289,25.8523 L 23.9570,25.8523 L 23.9991,25.8523 L 24.0413,25.8523 L 24.0975,25.8523 L 24.1537,25.8523 L 24.2239,25.8523 L 24.2942,25.8523 L 24.3644,25.8523 L 24.4347,25.8523 L 24.5190,25.8523 L 24.5893,25.8523 L 24.6736,25.8523 L 24.7579,25.8523 L 24.8422,25.8523 L 24.9265,25.8523 L 24.9967,25.8523 L 25.0810,25.8523 L 25.1513,25.8523 L 25.2216,25.8523 L 25.2918,25.8523 L 25.3621,25.8523 L 25.4183,25.8523 L 25.4745,25.8523 L 25.5166,25.8523 L 25.5588,25.8523 L 25.5869,25.8523 L 25.6150,25.8523 L 25.6290,25.8523 L 25.6431,25.8523 L 25.6571,25.8523 L 25.6712,25.8523 L 25.6712,25.8664 L 25.6852,25.8664 L 25.6993,25.8664 L 25.6993,25.8804 L 25.7133,25.8804 L 25.7133,25.8944 L 25.7274,25.8944 L 25.7274,25.9084 L 25.7274,25.9224 L 25.7414,25.9224 L 25.7414,25.9365 L 25.7414,25.9505 L 25.7414,25.9645 L 25.7414,25.9785 L 25.7414,26.0066 L 25.7414,26.0206 L 25.7414,26.0486 L 25.7414,26.0767 L 25.7414,26.1047 L 25.7414,26.1327 L 25.7414,26.1748 L 25.7414,26.2028 L 25.7414,26.2449 L 25.7414,26.2870 L 25.7414,26.3150 L 25.7414,26.3571 L 25.7414,26.3991 L 25.7414,26.4272 L 25.7414,26.4692 L 25.7414,26.5113 L 25.7414,26.5393 L 25.7414,26.5814 L 25.7414,26.6094 L 25.7414,26.6375 L 25.7414,26.6655 L 25.7414,26.6935 L 25.7414,26.7076 L 25.7414,26.7356 L 25.7414,26.7496 L 25.7414,26.7636 L 25.7414,26.7776 L 25.7274,26.7776 L 25.7274,26.7917 L 25.7133,26.8057 L 25.7133,26.8197 L 25.6993,26.8197 L 25.6993,26.8337 L 25.6852,26.8337 L 25.6852,26.8477 L 25.6712,26.8477 L 25.6712,26.8618 L 25.6571,26.8618 L 25.6571,26.8758 L 25.6431,26.8758 L 25.6290,26.8898 L 25.6290,26.9038 L 25.6431,26.9038 L 25.6431,26.9178 L 25.6571,26.9319 L 25.6712,26.9459 L 25.6712,26.9599 L 25.6852,26.9599 L 25.6852,26.9739 L 25.6993,26.9739 L 25.6993,26.9879 L 25.7133,27.0020 L 25.7133,27.0160 L 25.7274,27.0160 L 25.7274,27.0300 L 25.7274,27.0440 L 25.7414,27.0440 L 25.7414,27.0580 L 25.7414,27.0721 L 25.7414,27.0861 L 25.7414,27.1001 L 25.7414,27.1141 L 25.7414,27.1281 L 25.7414,27.1422 L 25.7414,27.1562 L 25.7414,27.1702 L 25.7414,27.1982 L 25.7414,27.2123 L 25.7414,27.2263 L 25.7414,27.2403 L 25.7414,27.2683 L 25.7414,27.2824 L 25.7414,27.2964 L 25.7414,27.3104 L 25.7414,27.3244 L 25.7414,27.3525 L 25.7414,27.3665 L 25.7414,27.3805 L 25.7414,27.3945 L 25.7414,27.4085 L 25.7414,27.4226 L 25.7414,27.4366 L 25.7414,27.4506 L 25.7414,27.4646 L 25.7414,27.4786 L 25.7414,27.4927 L 25.7555,27.4927 L 25.7555,27.5067 L 25.7555,27.5207 L 25.7695,27.5207 L 25.7695,27.5347 L 25.7836,27.5347 L 25.7976,27.5347 L 25.7836,27.5347 L 25.7695,27.5347 L 25.7555,27.5347 L 25.7414,27.5347 L 25.7274,27.5347 L 25.7133,27.5347 L 25.6993,27.5347 L 25.6852,27.5347 L 25.6712,27.5347 L 25.6571,27.5347 L 25.6431,27.5347 L 25.6290,27.5347 L 25.6150,27.5347 L 25.6009,27.5347 L 25.5869,27.5347 L 25.5728,27.5347 L 25.5588,27.5347 L 25.5447,27.5347 L 25.5307,27.5347 L 25.5166,27.5347 L 25.5026,27.5347 L 25.4885,27.5347 L 25.4745,27.5347 L 25.4604,27.5347 L 25.4464,27.5347 L 25.4323,27.5347 L 25.4323,27.5207 L 25.4183,27.5207 L 25.4183,27.5067 L 25.4042,27.5067 L 25.4042,27.4927 L 25.4042,27.4786 L 25.3902,27.4786 L 25.3902,27.4646 L 25.3902,27.4506 L 25.3902,27.4366 L 25.3902,27.4226 L 25.3902,27.4085 L 25.3902,27.3945 L 25.3902,27.3805 L 25.3902,27.3665 L 25.3902,27.3525 L 25.3902,27.3384 L 25.3902,27.3244 L 25.3902,27.2964 L 25.3902,27.2824 L 25.3902,27.2683 L 25.3902,27.2403 L 25.3902,27.2263 L 25.3902,27.1982 L 25.3902,27.1842 L 25.3902,27.1562 L 25.3902,27.1422 L 25.3902,27.1141 L 25.3902,27.0861 L 25.3902,27.0580 L 25.3902,27.0300 L 25.3902,27.0020 L 25.3902,26.9739 L 25.3902,26.9459 L 25.3902,26.9178 L 25.3902,26.8898 L 25.3761,26.8898 L 25.3621,26.8898 L 25.3480,26.8898 L 25.3199,26.8898 L 25.2918,26.8898 L 25.2637,26.8898 L 25.2216,26.8898 L 25.1794,26.8898 L 25.1372,26.8898 L 25.0951,26.8898 L 25.0529,26.8898 L 25.0108,26.8898 L 24.9546,26.8898 L 24.9124,26.8898 L 24.8562,26.8898 L 24.8000,26.8898 L 24.7579,26.8898 L 24.7017,26.8898 L 24.6595,26.8898 L 24.6174,26.8898 L 24.5752,26.8898 L 24.5331,26.8898 L 24.4909,26.8898 L 24.4488,26.8898 L 24.4206,26.8898 L 24.3925,26.8898 L 24.3644,26.8898 L 24.3504,26.8898 L 24.3363,26.8898 L 24.3223,26.8898 Z" stroke="#7F7F7F" stroke-width="0.1198" stroke-linecap="round" stroke-linejoin="round" fill="#7F7F7F"/>
        <path d="M 26.3737,26.1748 L 26.3456,26.1748 L 26.3316,26.1748 L 26.3035,26.1748 L 26.2894,26.1748 L 26.2754,26.1748 L 26.2473,26.1748 L 26.2332,26.1748 L 26.2192,26.1748 L 26.2051,26.1748 L 26.1770,26.1748 L 26.1630,26.1748 L 26.1489,26.1748 L 26.1349,26.1748 L 26.1208,26.1748 L 26.1068,26.1748 L 26.0927,26.1748 L 26.0787,26.1748 L 26.0646,26.1748 L 26.0506,26.1748 L 26.0365,26.1748 L 26.0225,26.1748 L 26.0084,26.1748 L 25.9944,26.1748 L 25.9944,26.1608 L 25.9803,26.1608 L 25.9663,26.1608 L 25.9663,26.1468 L 25.9522,26.1327 L 25.9382,26.1187 L 25.9382,26.1047 L 25.9241,26.1047 L 25.9241,26.0907 L 25.9101,26.0767 L 25.9101,26.0626 L 25.9101,26.0486 L 25.9101,26.0346 L 25.9101,26.0206 L 25.9101,26.0066 L 25.9101,25.9925 L 25.9101,25.9785 L 25.9101,25.9645 L 25.9101,25.9505 L 25.9101,25.9365 L 25.9101,25.9224 L 25.9241,25.9224 L 25.9241,25.9084 L 25.9241,25.8944 L 25.9382,25.8944 L 25.9382,25.8804 L 25.9522,25.8804 L 25.9663,25.8664 L 25.9803,25.8664 L 25.9803,25.8523 L 25.9944,25.8523 L 26.0084,25.8523 L 26.0225,25.8523 L 26.0506,25.8523 L 26.0787,25.8523 L 26.1208,25.8523 L 26.1630,25.8523 L 26.2192,25.8523 L 26.2754,25.8523 L 26.3456,25.8523 L 26.4159,25.8523 L 26.4861,25.8523 L 26.5564,25.8523 L 26.6407,25.8523 L 26.7110,25.8523 L 26.7953,25.8523 L 26.8796,25.8523 L 26.9639,25.8523 L 27.0482,25.8523 L 27.1184,25.8523 L 27.2027,25.8523 L 27.2730,25.8523 L 27.3433,25.8523 L 27.4135,25.8523 L 27.4838,25.8523 L 27.5400,25.8523 L 27.5962,25.8523 L 27.6383,25.8523 L 27.6805,25.8523 L 27.7086,25.8523 L 27.7367,25.8523 L 27.7507,25.8523 L 27.7648,25.8523 L 27.7788,25.8523 L 27.7788,25.8664 L 27.7929,25.8664 L 27.8069,25.8804 L 27.8210,25.8804 L 27.8210,25.8944 L 27.8350,25.8944 L 27.8350,25.9084 L 27.8350,25.9224 L 27.8491,25.9224 L 27.8491,25.9365 L 27.8491,25.9505 L 27.8491,25.9645 L 27.8491,25.9785 L 27.8491,25.9925 L 27.8491,26.0066 L 27.8491,26.0206 L 27.8491,26.0346 L 27.8491,26.0486 L 27.8491,26.0626 L 27.8491,26.0767 L 27.8491,26.0907 L 27.8491,26.1047 L 27.8491,26.1187 L 27.8491,26.1327 L 27.8491,26.1468 L 27.8491,26.1608 L 27.8491,26.1748 L 27.8491,26.1888 L 27.8491,26.2028 L 27.8491,26.2169 L 27.8491,26.2309 L 27.8491,26.2449 L 27.8491,26.2589 L 27.8491,26.2449 L 27.8491,26.2309 L 27.8350,26.2309 L 27.8350,26.2169 L 27.8210,26.2169 L 27.8210,26.2028 L 27.8069,26.2028 L 27.8069,26.1888 L 27.7929,26.1888 L 27.7929,26.1748 L 27.7788,26.1748 L 27.7648,26.1748 L 27.7507,26.1748 L 27.7367,26.1748 L 27.7226,26.1748 L 27.7086,26.1748 L 27.6945,26.1748 L 27.6664,26.1748 L 27.6524,26.1748 L 27.6243,26.1748 L 27.5962,26.1748 L 27.5681,26.1748 L 27.5400,26.1748 L 27.4978,26.1748 L 27.4697,26.1748 L 27.4276,26.1748 L 27.3995,26.1748 L 27.3573,26.1748 L 27.3292,26.1748 L 27.2871,26.1748 L 27.2449,26.1748 L 27.2027,26.1748 L 27.1746,26.1748 L 27.1325,26.1748 L 27.0903,26.1748 L 27.0482,26.1748 L 27.0060,26.1748 L 26.9639,26.1748 L 26.9358,26.1748 L 26.8936,26.1748 L 26.8515,26.1748 L 26.8374,26.1748 L 26.8234,26.1748 L 26.8093,26.1748 L 26.8093,26.1888 L 26.7953,26.1888 L 26.7812,26.1888 L 26.7812,26.2028 L 26.7812,26.2169 L 26.7672,26.2169 L 26.7672,26.2309 L 26.7672,26.2449 L 26.7672,26.2589 L 26.7672,26.2729 L 26.7672,26.2870 L 26.7672,26.3150 L 26.7672,26.3430 L 26.7672,26.3711 L 26.7672,26.3991 L 26.7672,26.4412 L 26.7672,26.4832 L 26.7672,26.5393 L 26.7672,26.5814 L 26.7672,26.6375 L 26.7672,26.6935 L 26.7672,26.7496 L 26.7672,26.8057 L 26.7672,26.8618 L 26.7672,26.9038 L 26.7672,26.9599 L 26.7672,27.0160 L 26.7672,27.0721 L 26.7672,27.1281 L 26.7672,27.1702 L 26.7672,27.2263 L 26.7672,27.2683 L 26.7672,27.3104 L 26.7672,27.3384 L 26.7672,27.3665 L 26.7672,27.3945 L 26.7672,27.4226 L 26.7672,27.4366 L 26.7672,27.4506 L 26.7672,27.4646 L 26.7672,27.4786 L 26.7672,27.4927 L 26.7812,27.5067 L 26.7812,27.5207 L 26.7953,27.5207 L 26.7953,27.5347 L 26.8093,27.5347 L 26.7953,27.5347 L 26.7812,27.5347 L 26.7672,27.5347 L 26.7531,27.5347 L 26.7391,27.5347 L 26.7250,27.5347 L 26.7110,27.5347 L 26.6969,27.5347 L 26.6829,27.5347 L 26.6688,27.5347 L 26.6548,27.5347 L 26.6407,27.5347 L 26.6126,27.5347 L 26.5986,27.5347 L 26.5845,27.5347 L 26.5705,27.5347 L 26.5564,27.5347 L 26.5424,27.5347 L 26.5283,27.5347 L 26.5142,27.5347 L 26.5002,27.5347 L 26.4861,27.5347 L 26.4721,27.5347 L 26.4580,27.5347 L 26.4440,27.5347 L 26.4299,27.5347 L 26.4299,27.5207 L 26.4159,27.5207 L 26.4018,27.5067 L 26.3878,27.5067 L 26.3878,27.4927 L 26.3878,27.4786 L 26.3737,27.4646 L 26.3737,27.4506 L 26.3737,27.4366 L 26.3737,27.4226 L 26.3737,27.4085 L 26.3737,27.3945 L 26.3737,27.3805 L 26.3737,27.3525 L 26.3737,27.3244 L 26.3737,27.2964 L 26.3737,27.2543 L 26.3737,27.2263 L 26.3737,27.1842 L 26.3737,27.1422 L 26.3737,27.1001 L 26.3737,27.0440 L 26.3737,27.0020 L 26.3737,26.9599 L 26.3737,26.9038 L 26.3737,26.8477 L 26.3737,26.8057 L 26.3737,26.7496 L 26.3737,26.6935 L 26.3737,26.6375 L 26.3737,26.5954 L 26.3737,26.5393 L 26.3737,26.4832 L 26.3737,26.4412 L 26.3737,26.3851 L 26.3737,26.3430 L 26.3737,26.3010 L 26.3737,26.2589 L 26.3737,26.2169 L 26.3737,26.1748 Z" stroke="#7F7F7F" stroke-width="0.1198" stroke-linecap="round" stroke-linejoin="round" fill="#7F7F7F"/>
        <path d="M 28.4673,27.4506 L 28.4673,27.4646 L 28.4814,27.4786 L 28.4814,27.4927 L 28.4954,27.4927 L 28.5095,27.5067 L 28.5235,27.5207 L 28.5376,27.5207 L 28.5516,27.5347 L 28.5657,27.5347 L 28.5516,27.5347 L 28.5376,27.5347 L 28.5235,27.5347 L 28.5095,27.5347 L 28.4954,27.5347 L 28.4814,27.5347 L 28.4533,27.5347 L 28.4392,27.5347 L 28.4252,27.5347 L 28.4111,27.5347 L 28.3830,27.5347 L 28.3690,27.5347 L 28.3549,27.5347 L 28.3268,27.5347 L 28.3128,27.5347 L 28.2987,27.5347 L 28.2847,27.5347 L 28.2566,27.5347 L 28.2425,27.5347 L 28.2285,27.5347 L 28.2144,27.5347 L 28.2004,27.5347 L 28.1863,27.5347 L 28.1723,27.5347 L 28.1582,27.5347 L 28.1442,27.5207 L 28.1301,27.5207 L 28.1301,27.5067 L 28.1161,27.5067 L 28.1161,27.4927 L 28.1161,27.4786 L 28.1020,27.4646 L 28.1020,27.4506 L 28.1020,27.4366 L 28.1020,27.4226 L 28.1020,27.3945 L 28.1020,27.3665 L 28.1020,27.3384 L 28.1020,27.2964 L 28.1020,27.2543 L 28.1020,27.1982 L 28.1020,27.1422 L 28.1020,27.0861 L 28.1020,27.0300 L 28.1020,26.9599 L 28.1020,26.8898 L 28.1020,26.8197 L 28.1020,26.7636 L 28.1020,26.6935 L 28.1020,26.6094 L 28.1020,26.5533 L 28.1020,26.4832 L 28.1020,26.4131 L 28.1020,26.3430 L 28.1020,26.2870 L 28.1020,26.2309 L 28.1020,26.1748 L 28.1020,26.1187 L 28.1020,26.0767 L 28.1020,26.0346 L 28.1020,26.0066 L 28.1020,25.9785 L 28.1020,25.9505 L 28.1020,25.9365 L 28.1020,25.9224 L 28.1020,25.9084 L 28.0880,25.9084 L 28.0880,25.8944 L 28.0739,25.8804 L 28.0599,25.8664 L 28.0458,25.8664 L 28.0318,25.8664 L 28.0318,25.8523 L 28.0177,25.8523 L 28.0037,25.8523 L 27.9896,25.8523 L 28.0037,25.8523 L 28.0177,25.8523 L 28.0318,25.8523 L 28.0458,25.8523 L 28.0599,25.8523 L 28.0739,25.8523 L 28.0880,25.8523 L 28.1161,25.8523 L 28.1301,25.8523 L 28.1442,25.8523 L 28.1582,25.8523 L 28.1863,25.8523 L 28.2004,25.8523 L 28.2144,25.8523 L 28.2285,25.8523 L 28.2425,25.8523 L 28.2706,25.8523 L 28.2847,25.8523 L 28.2987,25.8523 L 28.3128,25.8523 L 28.3268,25.8523 L 28.3409,25.8523 L 28.3549,25.8523 L 28.3690,25.8523 L 28.3830,25.8523 L 28.3971,25.8523 L 28.3971,25.8664 L 28.4111,25.8664 L 28.4252,25.8804 L 28.4392,25.8804 L 28.4392,25.8944 L 28.4533,25.8944 L 28.4533,25.9084 L 28.4533,25.9224 L 28.4673,25.9224 L 28.4673,25.9365 L 28.4673,25.9505 L 28.4673,25.9645 L 28.4673,25.9925 L 28.4673,26.0206 L 28.4673,26.0486 L 28.4673,26.0907 L 28.4673,26.1327 L 28.4673,26.1888 L 28.4673,26.2449 L 28.4673,26.3010 L 28.4673,26.3571 L 28.4673,26.4272 L 28.4673,26.4973 L 28.4673,26.5674 L 28.4673,26.6234 L 28.4673,26.7076 L 28.4673,26.7776 L 28.4673,26.8337 L 28.4673,26.9038 L 28.4673,26.9739 L 28.4673,27.0440 L 28.4673,27.1001 L 28.4673,27.1562 L 28.4673,27.2123 L 28.4673,27.2683 L 28.4673,27.3104 L 28.4673,27.3525 L 28.4673,27.3805 L 28.4673,27.4085 L 28.4673,27.4366 L 28.4673,27.4506 Z" stroke="#7F7F7F" stroke-width="0.1198" stroke-linecap="round" stroke-linejoin="round" fill="#7F7F7F"/>
        <path d="M 30.4485,26.1748 L 30.4064,26.1748 L 30.3502,26.1748 L 30.3080,26.1748 L 30.2659,26.1748 L 30.2097,26.1748 L 30.1675,26.1748 L 30.1113,26.1748 L 30.0692,26.1748 L 30.0129,26.1748 L 29.9708,26.1748 L 29.9146,26.1748 L 29.8724,26.1748 L 29.8162,26.1748 L 29.7741,26.1748 L 29.7319,26.1748 L 29.6898,26.1748 L 29.6476,26.1748 L 29.6055,26.1748 L 29.5633,26.1748 L 29.5212,26.1748 L 29.4931,26.1748 L 29.4509,26.1748 L 29.4228,26.1748 L 29.3947,26.1748 L 29.3666,26.1748 L 29.3526,26.1748 L 29.3244,26.1748 L 29.3104,26.1748 L 29.2963,26.1748 L 29.2823,26.1748 L 29.2682,26.1748 L 29.2542,26.1748 L 29.2542,26.1888 L 29.2401,26.1888 L 29.2401,26.2028 L 29.2261,26.2028 L 29.2261,26.2169 L 29.2120,26.2309 L 29.2120,26.2449 L 29.2120,26.2589 L 29.2120,26.2729 L 29.2120,26.2870 L 29.2120,26.3150 L 29.2120,26.3430 L 29.2120,26.3711 L 29.2120,26.3991 L 29.2120,26.4412 L 29.2120,26.4832 L 29.2120,26.5393 L 29.2120,26.5814 L 29.2120,26.6375 L 29.2120,26.6935 L 29.2120,26.7496 L 29.2120,26.8057 L 29.2120,26.8618 L 29.2120,26.9038 L 29.2120,26.9599 L 29.2120,27.0160 L 29.2120,27.0721 L 29.2120,27.1281 L 29.2120,27.1702 L 29.2120,27.2263 L 29.2120,27.2683 L 29.2120,27.3104 L 29.2120,27.3384 L 29.2120,27.3665 L 29.2120,27.3945 L 29.2120,27.4226 L 29.2120,27.4366 L 29.2120,27.4506 L 29.2120,27.4646 L 29.2120,27.4786 L 29.2120,27.4927 L 29.2120,27.5067 L 29.2261,27.5067 L 29.2261,27.5207 L 29.2261,27.5347 L 29.2401,27.5347 L 29.2261,27.5347 L 29.2120,27.5347 L 29.1980,27.5347 L 29.1839,27.5347 L 29.1699,27.5347 L 29.1558,27.5347 L 29.1418,27.5347 L 29.1277,27.5347 L 29.1137,27.5347 L 29.0996,27.5347 L 29.0856,27.5347 L 29.0715,27.5347 L 29.0575,27.5347 L 29.0434,27.5347 L 29.0294,27.5347 L 29.0153,27.5347 L 29.0013,27.5347 L 28.9872,27.5347 L 28.9732,27.5347 L 28.9591,27.5347 L 28.9451,27.5347 L 28.9310,27.5347 L 28.9170,27.5347 L 28.9029,27.5207 L 28.8889,27.5207 L 28.8889,27.5067 L 28.8748,27.5067 L 28.8748,27.4927 L 28.8748,27.4786 L 28.8608,27.4786 L 28.8608,27.4646 L 28.8608,27.4506 L 28.8608,27.4366 L 28.8608,27.4226 L 28.8608,27.3945 L 28.8608,27.3665 L 28.8608,27.3384 L 28.8608,27.2964 L 28.8608,27.2543 L 28.8608,27.1982 L 28.8608,27.1562 L 28.8608,27.0861 L 28.8608,27.0300 L 28.8608,26.9599 L 28.8608,26.9038 L 28.8608,26.8337 L 28.8608,26.7636 L 28.8608,26.6935 L 28.8608,26.6234 L 28.8608,26.5533 L 28.8608,26.4832 L 28.8608,26.4272 L 28.8608,26.3571 L 28.8608,26.3010 L 28.8608,26.2309 L 28.8608,26.1888 L 28.8608,26.1327 L 28.8608,26.0907 L 28.8608,26.0486 L 28.8608,26.0206 L 28.8608,25.9925 L 28.8608,25.9645 L 28.8608,25.9505 L 28.8608,25.9365 L 28.8608,25.9224 L 28.8608,25.9084 L 28.8748,25.9084 L 28.8748,25.8944 L 28.8748,25.8804 L 28.8889,25.8804 L 28.8889,25.8664 L 28.9029,25.8664 L 28.9170,25.8523 L 28.9310,25.8523 L 28.9451,25.8523 L 28.9591,25.8523 L 28.9872,25.8523 L 29.0153,25.8523 L 29.0575,25.8523 L 29.0996,25.8523 L 29.1558,25.8523 L 29.2120,25.8523 L 29.2823,25.8523 L 29.3526,25.8523 L 29.4228,25.8523 L 29.4931,25.8523 L 29.5774,25.8523 L 29.6476,25.8523 L 29.7319,25.8523 L 29.8162,25.8523 L 29.9005,25.8523 L 29.9848,25.8523 L 30.0551,25.8523 L 30.1394,25.8523 L 30.2097,25.8523 L 30.2799,25.8523 L 30.3502,25.8523 L 30.4204,25.8523 L 30.4766,25.8523 L 30.5328,25.8523 L 30.5750,25.8523 L 30.6171,25.8523 L 30.6452,25.8523 L 30.6733,25.8523 L 30.6874,25.8523 L 30.7014,25.8523 L 30.7155,25.8523 L 30.7296,25.8523 L 30.7296,25.8664 L 30.7436,25.8664 L 30.7577,25.8664 L 30.7577,25.8804 L 30.7717,25.8804 L 30.7717,25.8944 L 30.7858,25.8944 L 30.7858,25.9084 L 30.7858,25.9224 L 30.7998,25.9224 L 30.7998,25.9365 L 30.7998,25.9505 L 30.7998,25.9645 L 30.7998,25.9925 L 30.7998,26.0206 L 30.7998,26.0486 L 30.7998,26.0907 L 30.7998,26.1327 L 30.7998,26.1888 L 30.7998,26.2449 L 30.7998,26.3010 L 30.7998,26.3571 L 30.7998,26.4272 L 30.7998,26.4973 L 30.7998,26.5674 L 30.7998,26.6234 L 30.7998,26.7076 L 30.7998,26.7776 L 30.7998,26.8337 L 30.7998,26.9038 L 30.7998,26.9739 L 30.7998,27.0440 L 30.7998,27.1001 L 30.7998,27.1562 L 30.7998,27.2123 L 30.7998,27.2683 L 30.7998,27.3104 L 30.7998,27.3525 L 30.7998,27.3805 L 30.7998,27.4085 L 30.7998,27.4366 L 30.7998,27.4506 L 30.7998,27.4646 L 30.7998,27.4786 L 30.7998,27.4927 L 30.8139,27.4927 L 30.8139,27.5067 L 30.8139,27.5207 L 30.8279,27.5207 L 30.8279,27.5347 L 30.8420,27.5347 L 30.8560,27.5347 L 30.8420,27.5347 L 30.8279,27.5347 L 30.8139,27.5347 L 30.7998,27.5347 L 30.7858,27.5347 L 30.7717,27.5347 L 30.7577,27.5347 L 30.7436,27.5347 L 30.7296,27.5347 L 30.7155,27.5347 L 30.7014,27.5347 L 30.6874,27.5347 L 30.6733,27.5347 L 30.6593,27.5347 L 30.6452,27.5347 L 30.6312,27.5347 L 30.6171,27.5347 L 30.6031,27.5347 L 30.5890,27.5347 L 30.5750,27.5347 L 30.5609,27.5347 L 30.5469,27.5347 L 30.5328,27.5347 L 30.5188,27.5347 L 30.5047,27.5347 L 30.4907,27.5347 L 30.4907,27.5207 L 30.4766,27.5207 L 30.4766,27.5067 L 30.4626,27.5067 L 30.4626,27.4927 L 30.4626,27.4786 L 30.4485,27.4786 L 30.4485,27.4646 L 30.4485,27.4506 L 30.4485,27.4366 L 30.4485,27.4226 L 30.4485,27.4085 L 30.4485,27.3945 L 30.4485,27.3805 L 30.4485,27.3525 L 30.4485,27.3244 L 30.4485,27.2964 L 30.4485,27.2543 L 30.4485,27.2263 L 30.4485,27.1842 L 30.4485,27.1422 L 30.4485,27.1001 L 30.4485,27.0440 L 30.4485,27.0020 L 30.4485,26.9599 L 30.4485,26.9038 L 30.4485,26.8477 L 30.4485,26.8057 L 30.4485,26.7496 L 30.4485,26.6935 L 30.4485,26.6375 L 30.4485,26.5954 L 30.4485,26.5393 L 30.4485,26.4832 L 30.4485,26.4412 L 30.4485,26.3851 L 30.4485,26.3430 L 30.4485,26.3010 L 30.4485,26.2589 L 30.4485,26.2169 L 30.4485,26.1748 Z" stroke="#7F7F7F" stroke-width="0.1198" stroke-linecap="round" stroke-linejoin="round" fill="#7F7F7F"/>
        <path d="M 32.7529,26.5674 L 32.7248,26.5674 L 32.6826,26.5674 L 32.6405,26.5674 L 32.5983,26.5674 L 32.5562,26.5674 L 32.5140,26.5674 L 32.4578,26.5674 L 32.4157,26.5674 L 32.3595,26.5674 L 32.3173,26.5674 L 32.2611,26.5674 L 32.2049,26.5674 L 32.1628,26.5674 L 32.1065,26.5674 L 32.0503,26.5674 L 32.0082,26.5674 L 31.9520,26.5674 L 31.8958,26.5674 L 31.8536,26.5674 L 31.8115,26.5674 L 31.7693,26.5674 L 31.7272,26.5674 L 31.6850,26.5674 L 31.6569,26.5674 L 31.6148,26.5674 L 31.5867,26.5674 L 31.5586,26.5674 L 31.5445,26.5674 L 31.5305,26.5674 L 31.5164,26.5674 L 31.5024,26.5674 L 31.4883,26.5674 L 31.4883,26.5533 L 31.4743,26.5533 L 31.4602,26.5393 L 31.4602,26.5253 L 31.4462,26.5113 L 31.4462,26.4973 L 31.4462,26.4832 L 31.4462,26.4973 L 31.4462,26.5113 L 31.4462,26.5253 L 31.4462,26.5393 L 31.4462,26.5533 L 31.4462,26.5674 L 31.4462,26.5814 L 31.4462,26.5954 L 31.4462,26.6094 L 31.4462,26.6234 L 31.4462,26.6515 L 31.4462,26.6655 L 31.4462,26.6795 L 31.4462,26.6935 L 31.4462,26.7076 L 31.4462,26.7216 L 31.4462,26.7356 L 31.4462,26.7496 L 31.4462,26.7636 L 31.4462,26.7776 L 31.4462,26.7917 L 31.4462,26.8057 L 31.4462,26.8197 L 31.4462,26.8337 L 31.4602,26.8337 L 31.4602,26.8477 L 31.4602,26.8618 L 31.4743,26.8618 L 31.4743,26.8758 L 31.4883,26.8758 L 31.4883,26.8898 L 31.5024,26.8898 L 31.5164,26.8898 L 31.5305,26.8898 L 31.5445,26.8898 L 31.5726,26.8898 L 31.5867,26.8898 L 31.6288,26.8898 L 31.6569,26.8898 L 31.6991,26.8898 L 31.7272,26.8898 L 31.7693,26.8898 L 31.8255,26.8898 L 31.8677,26.8898 L 31.9098,26.8898 L 31.9660,26.8898 L 32.0222,26.8898 L 32.0644,26.8898 L 32.1206,26.8898 L 32.1768,26.8898 L 32.2330,26.8898 L 32.2752,26.8898 L 32.3314,26.8898 L 32.3876,26.8898 L 32.4297,26.8898 L 32.4859,26.8898 L 32.5281,26.8898 L 32.5702,26.8898 L 32.6124,26.8898 L 32.6545,26.8898 L 32.6967,26.8898 L 32.7248,26.8898 L 32.7529,26.8898 L 32.7669,26.8758 L 32.7810,26.8618 L 32.7950,26.8477 L 32.8091,26.8337 L 32.8091,26.8197 L 32.8232,26.8057 L 32.8232,26.7917 L 32.8372,26.7776 L 32.8372,26.7636 L 32.8372,26.7496 L 32.8372,26.7356 L 32.8372,26.7216 L 32.8372,26.7076 L 32.8372,26.6935 L 32.8372,26.6795 L 32.8372,26.6655 L 32.8372,26.6515 L 32.8232,26.6375 L 32.8232,26.6234 L 32.8091,26.6094 L 32.8091,26.5954 L 32.7950,26.5954 L 32.7950,26.5814 L 32.7810,26.5814 L 32.7669,26.5674 L 32.7529,26.5674 Z" stroke="#7F7F7F" stroke-width="0.1198" stroke-linecap="round" stroke-linejoin="round" fill="#7F7F7F"/>
        <path d="M 33.6662,26.1748 L 33.6381,26.1748 L 33.6241,26.1748 L 33.5960,26.1748 L 33.5819,26.1748 L 33.5679,26.1748 L 33.5398,26.1748 L 33.5257,26.1748 L 33.5116,26.1748 L 33.4976,26.1748 L 33.4695,26.1748 L 33.4554,26.1748 L 33.4414,26.1748 L 33.4273,26.1748 L 33.4133,26.1748 L 33.3992,26.1748 L 33.3852,26.1748 L 33.3711,26.1748 L 33.3571,26.1748 L 33.3430,26.1748 L 33.3290,26.1748 L 33.3149,26.1748 L 33.3009,26.1748 L 33.2868,26.1748 L 33.2868,26.1608 L 33.2728,26.1608 L 33.2587,26.1608 L 33.2587,26.1468 L 33.2447,26.1327 L 33.2306,26.1187 L 33.2306,26.1047 L 33.2166,26.1047 L 33.2166,26.0907 L 33.2025,26.0767 L 33.2025,26.0626 L 33.2025,26.0486 L 33.2025,26.0346 L 33.2025,26.0206 L 33.2025,26.0066 L 33.2025,25.9925 L 33.2025,25.9785 L 33.2025,25.9645 L 33.2025,25.9505 L 33.2025,25.9365 L 33.2025,25.9224 L 33.2166,25.9224 L 33.2166,25.9084 L 33.2166,25.8944 L 33.2306,25.8944 L 33.2306,25.8804 L 33.2447,25.8804 L 33.2587,25.8664 L 33.2728,25.8664 L 33.2728,25.8523 L 33.2868,25.8523 L 33.3009,25.8523 L 33.3149,25.8523 L 33.3430,25.8523 L 33.3711,25.8523 L 33.4133,25.8523 L 33.4554,25.8523 L 33.5116,25.8523 L 33.5679,25.8523 L 33.6381,25.8523 L 33.7084,25.8523 L 33.7786,25.8523 L 33.8489,25.8523 L 33.9332,25.8523 L 34.0034,25.8523 L 34.0877,25.8523 L 34.1720,25.8523 L 34.2564,25.8523 L 34.3407,25.8523 L 34.4109,25.8523 L 34.4952,25.8523 L 34.5655,25.8523 L 34.6357,25.8523 L 34.7060,25.8523 L 34.7762,25.8523 L 34.8324,25.8523 L 34.8886,25.8523 L 34.9308,25.8523 L 34.9730,25.8523 L 35.0011,25.8523 L 35.0292,25.8523 L 35.0432,25.8523 L 35.0573,25.8523 L 35.0713,25.8523 L 35.0713,25.8664 L 35.0854,25.8664 L 35.0994,25.8804 L 35.1135,25.8804 L 35.1135,25.8944 L 35.1275,25.8944 L 35.1275,25.9084 L 35.1275,25.9224 L 35.1416,25.9224 L 35.1416,25.9365 L 35.1416,25.9505 L 35.1416,25.9645 L 35.1416,25.9785 L 35.1416,25.9925 L 35.1416,26.0066 L 35.1416,26.0206 L 35.1416,26.0346 L 35.1416,26.0486 L 35.1416,26.0626 L 35.1416,26.0767 L 35.1416,26.0907 L 35.1416,26.1047 L 35.1416,26.1187 L 35.1416,26.1327 L 35.1416,26.1468 L 35.1416,26.1608 L 35.1416,26.1748 L 35.1416,26.1888 L 35.1416,26.2028 L 35.1416,26.2169 L 35.1416,26.2309 L 35.1416,26.2449 L 35.1416,26.2589 L 35.1416,26.2449 L 35.1416,26.2309 L 35.1275,26.2309 L 35.1275,26.2169 L 35.1135,26.2169 L 35.1135,26.2028 L 35.0994,26.2028 L 35.0994,26.1888 L 35.0854,26.1888 L 35.0854,26.1748 L 35.0713,26.1748 L 35.0573,26.1748 L 35.0432,26.1748 L 35.0292,26.1748 L 35.0151,26.1748 L 35.0011,26.1748 L 34.9870,26.1748 L 34.9589,26.1748 L 34.9449,26.1748 L 34.9167,26.1748 L 34.8886,26.1748 L 34.8605,26.1748 L 34.8324,26.1748 L 34.7903,26.1748 L 34.7622,26.1748 L 34.7200,26.1748 L 34.6919,26.1748 L 34.6498,26.1748 L 34.6217,26.1748 L 34.5795,26.1748 L 34.5374,26.1748 L 34.4952,26.1748 L 34.4671,26.1748 L 34.4250,26.1748 L 34.3828,26.1748 L 34.3407,26.1748 L 34.2985,26.1748 L 34.2564,26.1748 L 34.2283,26.1748 L 34.1861,26.1748 L 34.1439,26.1748 L 34.1299,26.1748 L 34.1158,26.1748 L 34.1018,26.1748 L 34.1018,26.1888 L 34.0877,26.1888 L 34.0737,26.1888 L 34.0737,26.2028 L 34.0737,26.2169 L 34.0596,26.2169 L 34.0596,26.2309 L 34.0596,26.2449 L 34.0596,26.2589 L 34.0596,26.2729 L 34.0596,26.2870 L 34.0596,26.3150 L 34.0596,26.3430 L 34.0596,26.3711 L 34.0596,26.3991 L 34.0596,26.4412 L 34.0596,26.4832 L 34.0596,26.5393 L 34.0596,26.5814 L 34.0596,26.6375 L 34.0596,26.6935 L 34.0596,26.7496 L 34.0596,26.8057 L 34.0596,26.8618 L 34.0596,26.9038 L 34.0596,26.9599 L 34.0596,27.0160 L 34.0596,27.0721 L 34.0596,27.1281 L 34.0596,27.1702 L 34.0596,27.2263 L 34.0596,27.2683 L 34.0596,27.3104 L 34.0596,27.3384 L 34.0596,27.3665 L 34.0596,27.3945 L 34.0596,27.4226 L 34.0596,27.4366 L 34.0596,27.4506 L 34.0596,27.4646 L 34.0596,27.4786 L 34.0596,27.4927 L 34.0737,27.5067 L 34.0737,27.5207 L 34.0877,27.5207 L 34.0877,27.5347 L 34.1018,27.5347 L 34.0877,27.5347 L 34.0737,27.5347 L 34.0596,27.5347 L 34.0456,27.5347 L 34.0315,27.5347 L 34.0175,27.5347 L 34.0034,27.5347 L 33.9894,27.5347 L 33.9753,27.5347 L 33.9613,27.5347 L 33.9472,27.5347 L 33.9332,27.5347 L 33.9051,27.5347 L 33.8910,27.5347 L 33.8770,27.5347 L 33.8629,27.5347 L 33.8489,27.5347 L 33.8348,27.5347 L 33.8208,27.5347 L 33.8067,27.5347 L 33.7927,27.5347 L 33.7786,27.5347 L 33.7646,27.5347 L 33.7505,27.5347 L 33.7365,27.5347 L 33.7224,27.5347 L 33.7224,27.5207 L 33.7084,27.5207 L 33.6943,27.5067 L 33.6803,27.5067 L 33.6803,27.4927 L 33.6803,27.4786 L 33.6662,27.4646 L 33.6662,27.4506 L 33.6662,27.4366 L 33.6662,27.4226 L 33.6662,27.4085 L 33.6662,27.3945 L 33.6662,27.3805 L 33.6662,27.3525 L 33.6662,27.3244 L 33.6662,27.2964 L 33.6662,27.2543 L 33.6662,27.2263 L 33.6662,27.1842 L 33.6662,27.1422 L 33.6662,27.1001 L 33.6662,27.0440 L 33.6662,27.0020 L 33.6662,26.9599 L 33.6662,26.9038 L 33.6662,26.8477 L 33.6662,26.8057 L 33.6662,26.7496 L 33.6662,26.6935 L 33.6662,26.6375 L 33.6662,26.5954 L 33.6662,26.5393 L 33.6662,26.4832 L 33.6662,26.4412 L 33.6662,26.3851 L 33.6662,26.3430 L 33.6662,26.3010 L 33.6662,26.2589 L 33.6662,26.2169 L 33.6662,26.1748 Z" stroke="#7F7F7F" stroke-width="0.1198" stroke-linecap="round" stroke-linejoin="round" fill="#7F7F7F"/>
        <path d="M 32.8794,27.2123 L 32.8934,27.2123 L 32.8934,27.1982 L 32.9075,27.1982 L 32.9075,27.1842 L 32.9215,27.1842 L 32.9215,27.1702 L 32.9356,27.1702 L 32.9356,27.1562 L 32.9496,27.1562 L 32.9496,27.1422 L 32.9496,27.1281 L 32.9496,27.1422 L 32.9496,27.1562 L 32.9496,27.1702 L 32.9496,27.1842 L 32.9496,27.1982 L 32.9496,27.2123 L 32.9496,27.2263 L 32.9496,27.2403 L 32.9496,27.2543 L 32.9496,27.2683 L 32.9496,27.2824 L 32.9496,27.2964 L 32.9496,27.3104 L 32.9496,27.3244 L 32.9496,27.3384 L 32.9496,27.3525 L 32.9496,27.3665 L 32.9496,27.3805 L 32.9496,27.3945 L 32.9496,27.4085 L 32.9496,27.4226 L 32.9496,27.4366 L 32.9496,27.4506 L 32.9496,27.4646 L 32.9356,27.4646 L 32.9356,27.4786 L 32.9356,27.4927 L 32.9215,27.4927 L 32.9215,27.5067 L 32.9075,27.5067 L 32.8934,27.5207 L 32.8794,27.5207 L 32.8794,27.5347 L 32.8653,27.5347 L 32.8513,27.5347 L 32.8372,27.5347 L 32.8091,27.5347 L 32.7810,27.5347 L 32.7388,27.5347 L 32.6967,27.5347 L 32.6405,27.5347 L 32.5843,27.5347 L 32.5140,27.5347 L 32.4438,27.5347 L 32.3735,27.5347 L 32.3033,27.5347 L 32.2190,27.5347 L 32.1487,27.5347 L 32.0644,27.5347 L 31.9801,27.5347 L 31.8958,27.5347 L 31.8115,27.5347 L 31.7412,27.5347 L 31.6569,27.5347 L 31.5867,27.5347 L 31.5164,27.5347 L 31.4462,27.5347 L 31.3759,27.5347 L 31.3197,27.5347 L 31.2635,27.5347 L 31.2213,27.5347 L 31.1792,27.5347 L 31.1511,27.5347 L 31.1230,27.5347 L 31.1089,27.5347 L 31.0949,27.5347 L 31.0808,27.5347 L 31.0808,27.5207 L 31.0668,27.5207 L 31.0527,27.5067 L 31.0387,27.5067 L 31.0387,27.4927 L 31.0246,27.4927 L 31.0246,27.4786 L 31.0246,27.4646 L 31.0106,27.4646 L 31.0106,27.4506 L 31.0106,27.4366 L 31.0106,27.4226 L 31.0106,27.3945 L 31.0106,27.3665 L 31.0106,27.3384 L 31.0106,27.2964 L 31.0106,27.2543 L 31.0106,27.1982 L 31.0106,27.1562 L 31.0106,27.0861 L 31.0106,27.0300 L 31.0106,26.9599 L 31.0106,26.9038 L 31.0106,26.8337 L 31.0106,26.7636 L 31.0106,26.6935 L 31.0106,26.6234 L 31.0106,26.5533 L 31.0106,26.4832 L 31.0106,26.4272 L 31.0106,26.3571 L 31.0106,26.3010 L 31.0106,26.2309 L 31.0106,26.1888 L 31.0106,26.1327 L 31.0106,26.0907 L 31.0106,26.0486 L 31.0106,26.0206 L 31.0106,25.9925 L 31.0106,25.9645 L 31.0106,25.9505 L 31.0106,25.9365 L 31.0106,25.9224 L 31.0246,25.9224 L 31.0246,25.9084 L 31.0246,25.8944 L 31.0387,25.8944 L 31.0387,25.8804 L 31.0527,25.8804 L 31.0668,25.8664 L 31.0808,25.8664 L 31.0808,25.8523 L 31.0949,25.8523 L 31.1089,25.8523 L 31.1230,25.8523 L 31.1511,25.8523 L 31.1792,25.8523 L 31.2213,25.8523 L 31.2635,25.8523 L 31.3197,25.8523 L 31.3759,25.8523 L 31.4462,25.8523 L 31.5164,25.8523 L 31.5867,25.8523 L 31.6569,25.8523 L 31.7412,25.8523 L 31.8115,25.8523 L 31.8958,25.8523 L 31.9801,25.8523 L 32.0644,25.8523 L 32.1487,25.8523 L 32.2190,25.8523 L 32.3033,25.8523 L 32.3735,25.8523 L 32.4438,25.8523 L 32.5140,25.8523 L 32.5843,25.8523 L 32.6405,25.8523 L 32.6967,25.8523 L 32.7388,25.8523 L 32.7810,25.8523 L 32.8091,25.8523 L 32.8372,25.8523 L 32.8513,25.8523 L 32.8653,25.8523 L 32.8794,25.8523 L 32.8794,25.8664 L 32.8934,25.8664 L 32.9075,25.8804 L 32.9215,25.8804 L 32.9215,25.8944 L 32.9356,25.8944 L 32.9356,25.9084 L 32.9356,25.9224 L 32.9496,25.9224 L 32.9496,25.9365 L 32.9496,25.9505 L 32.9496,25.9645 L 32.9496,25.9785 L 32.9496,25.9925 L 32.9496,26.0066 L 32.9496,26.0206 L 32.9496,26.0346 L 32.9496,26.0486 L 32.9496,26.0626 L 32.9496,26.0767 L 32.9496,26.0907 L 32.9496,26.1047 L 32.9496,26.1187 L 32.9496,26.1327 L 32.9496,26.1468 L 32.9496,26.1608 L 32.9496,26.1748 L 32.9496,26.1888 L 32.9496,26.2028 L 32.9496,26.2169 L 32.9496,26.2309 L 32.9496,26.2449 L 32.9496,26.2589 L 32.9496,26.2449 L 32.9496,26.2309 L 32.9356,26.2309 L 32.9356,26.2169 L 32.9215,26.2169 L 32.9215,26.2028 L 32.9075,26.2028 L 32.9075,26.1888 L 32.8934,26.1888 L 32.8934,26.1748 L 32.8794,26.1748 L 32.8653,26.1748 L 32.8513,26.1748 L 32.8232,26.1748 L 32.7810,26.1748 L 32.7529,26.1748 L 32.7107,26.1748 L 32.6545,26.1748 L 32.6124,26.1748 L 32.5562,26.1748 L 32.4859,26.1748 L 32.4297,26.1748 L 32.3735,26.1748 L 32.3033,26.1748 L 32.2330,26.1748 L 32.1768,26.1748 L 32.1065,26.1748 L 32.0363,26.1748 L 31.9660,26.1748 L 31.9098,26.1748 L 31.8536,26.1748 L 31.7834,26.1748 L 31.7272,26.1748 L 31.6850,26.1748 L 31.6288,26.1748 L 31.5867,26.1748 L 31.5586,26.1748 L 31.5164,26.1748 L 31.4883,26.1748 L 31.4743,26.1748 L 31.4602,26.1748 L 31.4462,26.1748 L 31.4321,26.1748 L 31.4180,26.1748 L 31.4040,26.1888 L 31.3899,26.1888 L 31.3759,26.2028 L 31.3759,26.2169 L 31.3618,26.2169 L 31.3618,26.2309 L 31.3618,26.2449 L 31.3618,26.2589 L 31.3618,26.2729 L 31.3618,26.2870 L 31.3618,26.3010 L 31.3618,26.3150 L 31.3618,26.3290 L 31.3618,26.3571 L 31.3618,26.3851 L 31.3618,26.4131 L 31.3618,26.4412 L 31.3618,26.4692 L 31.3618,26.4973 L 31.3618,26.5253 L 31.3618,26.5674 L 31.3618,26.5954 L 31.3618,26.6375 L 31.3618,26.6795 L 31.3618,26.7076 L 31.3618,26.7496 L 31.3618,26.7917 L 31.3618,26.8337 L 31.3618,26.8758 L 31.3618,26.9038 L 31.3618,26.9459 L 31.3618,26.9879 L 31.3618,27.0300 L 31.3618,27.0721 L 31.3618,27.1001 L 31.3618,27.1422 L 31.3618,27.1842 L 31.3618,27.2123 L 31.3759,27.2123 L 31.4040,27.2123 L 31.4321,27.2123 L 31.4602,27.2123 L 31.5024,27.2123 L 31.5445,27.2123 L 31.6007,27.2123 L 31.6569,27.2123 L 31.7131,27.2123 L 31.7834,27.2123 L 31.8396,27.2123 L 31.9098,27.2123 L 31.9801,27.2123 L 32.0503,27.2123 L 32.1206,27.2123 L 32.1909,27.2123 L 32.2611,27.2123 L 32.3314,27.2123 L 32.4016,27.2123 L 32.4578,27.2123 L 32.5281,27.2123 L 32.5843,27.2123 L 32.6405,27.2123 L 32.6967,27.2123 L 32.7388,27.2123 L 32.7810,27.2123 L 32.8091,27.2123 L 32.8372,27.2123 L 32.8653,27.2123 L 32.8794,27.2123 Z" stroke="#7F7F7F" stroke-width="0.1198" stroke-linecap="round" stroke-linejoin="round" fill="#7F7F7F"/>
        <path d="M 22.2146,27.0300 L 22.2146,27.5908 L 22.8610,27.5908 L 22.8610,27.0300 L 22.2146,27.0300 Z" stroke="#7F7F7F" stroke-width="0.1198" stroke-linecap="round" stroke-linejoin="round" fill="#7F7F7F"/>
        <path d="M 21.5402,26.4131 L 22.1303,26.4131 L 22.1303,26.9739 L 21.5402,26.9739 L 21.5402,26.4131 Z" stroke="#7F7F7F" stroke-width="0.1198" stroke-linecap="round" stroke-linejoin="round" fill="#7F7F7F"/>
        <path d="M 22.9312,27.0440 L 22.9312,27.0580 L 22.9312,27.0721 L 22.9312,27.0861 L 22.9312,27.1001 L 22.9312,27.1141 L 22.9312,27.1281 L 22.9312,27.1562 L 22.9312,27.1702 L 22.9312,27.1982 L 22.9312,27.2263 L 22.9312,27.2403 L 22.9312,27.2683 L 22.9312,27.2964 L 22.9312,27.3244 L 22.9312,27.3525 L 22.9312,27.3805 L 22.9312,27.4085 L 22.9312,27.4226 L 22.9312,27.4506 L 22.9312,27.4786 L 22.9312,27.4927 L 22.9312,27.5207 L 22.9312,27.5347 L 22.9312,27.5487 L 22.9312,27.5628 L 22.9312,27.5768 L 22.9312,27.5908 L 22.9312,27.6048 L 22.9593,27.6048 L 22.9874,27.6048 L 23.0155,27.6048 L 23.0436,27.6048 L 23.0718,27.6048 L 23.0999,27.6048 L 23.1280,27.6048 L 23.1420,27.5908 L 23.1701,27.5908 L 23.1982,27.5908 L 23.2263,27.5768 L 23.2544,27.5768 L 23.2685,27.5628 L 23.2966,27.5628 L 23.3106,27.5487 L 23.3387,27.5347 L 23.3528,27.5207 L 23.3809,27.5067 L 23.3949,27.4927 L 23.4090,27.4646 L 23.4230,27.4506 L 23.4371,27.4226 L 23.4511,27.3945 L 23.4652,27.3665 L 23.4792,27.3384 L 23.4933,27.3104 L 23.5073,27.2683 L 23.5073,27.2263 L 23.5073,27.1842 L 23.5214,27.1422 L 23.5214,27.1001 L 23.5214,27.0440 L 23.5073,27.0440 L 23.4933,27.0440 L 23.4792,27.0440 L 23.4652,27.0440 L 23.4511,27.0440 L 23.4230,27.0440 L 23.4090,27.0440 L 23.3809,27.0440 L 23.3668,27.0440 L 23.3387,27.0440 L 23.3106,27.0440 L 23.2825,27.0440 L 23.2544,27.0440 L 23.2263,27.0440 L 23.1982,27.0440 L 23.1701,27.0440 L 23.1420,27.0440 L 23.1139,27.0440 L 23.0858,27.0440 L 23.0718,27.0440 L 23.0436,27.0440 L 23.0296,27.0440 L 23.0015,27.0440 L 22.9874,27.0440 L 22.9734,27.0440 L 22.9593,27.0440 L 22.9453,27.0440 L 22.9312,27.0440 Z" stroke="#7F7F7F" stroke-width="0.1198" stroke-linecap="round" stroke-linejoin="round" fill="#7F7F7F"/>
        <path d="M 22.9312,26.4131 L 23.5214,26.4131 L 23.5214,26.9739 L 22.9312,26.9739 L 22.9312,26.4131 Z" stroke="#7F7F7F" stroke-width="0.1198" stroke-linecap="round" stroke-linejoin="round" fill="#7F7F7F"/>
        <path d="M 22.1303,27.0440 L 22.1303,27.0580 L 22.1303,27.0721 L 22.1303,27.0861 L 22.1303,27.1001 L 22.1303,27.1141 L 22.1303,27.1281 L 22.1303,27.1562 L 22.1303,27.1702 L 22.1303,27.1982 L 22.1303,27.2263 L 22.1303,27.2403 L 22.1303,27.2683 L 22.1303,27.2964 L 22.1303,27.3244 L 22.1303,27.3525 L 22.1303,27.3805 L 22.1303,27.4085 L 22.1303,27.4226 L 22.1303,27.4506 L 22.1303,27.4786 L 22.1303,27.4927 L 22.1303,27.5207 L 22.1303,27.5347 L 22.1303,27.5487 L 22.1303,27.5628 L 22.1303,27.5768 L 22.1303,27.5908 L 22.1303,27.6048 L 22.1022,27.6048 L 22.0741,27.6048 L 22.0460,27.6048 L 22.0179,27.6048 L 22.0039,27.6048 L 21.9758,27.6048 L 21.9477,27.6048 L 21.9196,27.5908 L 21.8915,27.5908 L 21.8774,27.5908 L 21.8493,27.5768 L 21.8212,27.5768 L 21.8072,27.5628 L 21.7791,27.5628 L 21.7510,27.5487 L 21.7369,27.5347 L 21.7088,27.5207 L 21.6948,27.5067 L 21.6807,27.4927 L 21.6526,27.4646 L 21.6385,27.4506 L 21.6245,27.4226 L 21.6104,27.3945 L 21.5964,27.3665 L 21.5823,27.3384 L 21.5823,27.3104 L 21.5683,27.2683 L 21.5542,27.2263 L 21.5542,27.1842 L 21.5402,27.1422 L 21.5402,27.1001 L 21.5402,27.0440 L 21.5542,27.0440 L 21.5683,27.0440 L 21.5823,27.0440 L 21.5964,27.0440 L 21.6104,27.0440 L 21.6385,27.0440 L 21.6526,27.0440 L 21.6807,27.0440 L 21.6948,27.0440 L 21.7229,27.0440 L 21.7510,27.0440 L 21.7791,27.0440 L 21.8072,27.0440 L 21.8353,27.0440 L 21.8634,27.0440 L 21.8915,27.0440 L 21.9196,27.0440 L 21.9477,27.0440 L 21.9758,27.0440 L 21.9898,27.0440 L 22.0179,27.0440 L 22.0320,27.0440 L 22.0601,27.0440 L 22.0741,27.0440 L 22.0882,27.0440 L 22.1022,27.0440 L 22.1163,27.0440 L 22.1303,27.0440 Z" stroke="#7F7F7F" stroke-width="0.1198" stroke-linecap="round" stroke-linejoin="round" fill="#7F7F7F"/>
        <path d="M 22.2146,25.7823 L 22.2146,26.3430 L 22.8610,26.3430 L 22.8610,25.7823 L 22.2146,25.7823 Z" stroke="#7F7F7F" stroke-width="0.1198" stroke-linecap="round" stroke-linejoin="round" fill="#7F7F7F"/>
        <path d="M 22.9312,26.3430 L 22.9312,26.3290 L 22.9312,26.3150 L 22.9312,26.3010 L 22.9312,26.2870 L 22.9312,26.2729 L 22.9312,26.2589 L 22.9312,26.2309 L 22.9312,26.2169 L 22.9312,26.1888 L 22.9312,26.1608 L 22.9312,26.1468 L 22.9312,26.1187 L 22.9312,26.0907 L 22.9312,26.0626 L 22.9312,26.0346 L 22.9312,26.0066 L 22.9312,25.9785 L 22.9312,25.9645 L 22.9312,25.9365 L 22.9312,25.9084 L 22.9312,25.8944 L 22.9312,25.8664 L 22.9312,25.8523 L 22.9312,25.8383 L 22.9312,25.8243 L 22.9312,25.8103 L 22.9312,25.7963 L 22.9312,25.7823 L 22.9593,25.7823 L 22.9874,25.7823 L 23.0155,25.7823 L 23.0436,25.7823 L 23.0718,25.7823 L 23.0999,25.7823 L 23.1280,25.7823 L 23.1420,25.7963 L 23.1701,25.7963 L 23.1982,25.7963 L 23.2263,25.8103 L 23.2544,25.8103 L 23.2685,25.8243 L 23.2966,25.8243 L 23.3106,25.8383 L 23.3387,25.8523 L 23.3528,25.8664 L 23.3809,25.8804 L 23.3949,25.8944 L 23.4090,25.9224 L 23.4230,25.9365 L 23.4371,25.9645 L 23.4511,25.9925 L 23.4652,26.0206 L 23.4792,26.0486 L 23.4933,26.0767 L 23.5073,26.1187 L 23.5073,26.1608 L 23.5073,26.2028 L 23.5214,26.2449 L 23.5214,26.2870 L 23.5214,26.3430 L 23.5073,26.3430 L 23.4933,26.3430 L 23.4792,26.3430 L 23.4652,26.3430 L 23.4511,26.3430 L 23.4230,26.3430 L 23.4090,26.3430 L 23.3809,26.3430 L 23.3668,26.3430 L 23.3387,26.3430 L 23.3106,26.3430 L 23.2825,26.3430 L 23.2544,26.3430 L 23.2263,26.3430 L 23.1982,26.3430 L 23.1701,26.3430 L 23.1420,26.3430 L 23.1139,26.3430 L 23.0858,26.3430 L 23.0718,26.3430 L 23.0436,26.3430 L 23.0296,26.3430 L 23.0015,26.3430 L 22.9874,26.3430 L 22.9734,26.3430 L 22.9593,26.3430 L 22.9453,26.3430 L 22.9312,26.3430 Z" stroke="#7F7F7F" stroke-width="0.1198" stroke-linecap="round" stroke-linejoin="round" fill="#7F7F7F"/>
        <path d="M 22.1303,26.3430 L 22.1303,26.3290 L 22.1303,26.3150 L 22.1303,26.3010 L 22.1303,26.2870 L 22.1303,26.2729 L 22.1303,26.2589 L 22.1303,26.2309 L 22.1303,26.2169 L 22.1303,26.1888 L 22.1303,26.1608 L 22.1303,26.1468 L 22.1303,26.1187 L 22.1303,26.0907 L 22.1303,26.0626 L 22.1303,26.0346 L 22.1303,26.0066 L 22.1303,25.9785 L 22.1303,25.9645 L 22.1303,25.9365 L 22.1303,25.9084 L 22.1303,25.8944 L 22.1303,25.8664 L 22.1303,25.8523 L 22.1303,25.8383 L 22.1303,25.8243 L 22.1303,25.8103 L 22.1303,25.7963 L 22.1303,25.7823 L 22.1022,25.7823 L 22.0741,25.7823 L 22.0460,25.7823 L 22.0179,25.7823 L 22.0039,25.7823 L 21.9758,25.7823 L 21.9477,25.7823 L 21.9196,25.7963 L 21.8915,25.7963 L 21.8774,25.7963 L 21.8493,25.8103 L 21.8212,25.8103 L 21.8072,25.8243 L 21.7791,25.8243 L 21.7510,25.8383 L 21.7369,25.8523 L 21.7088,25.8664 L 21.6948,25.8804 L 21.6807,25.8944 L 21.6526,25.9224 L 21.6385,25.9365 L 21.6245,25.9645 L 21.6104,25.9925 L 21.5964,26.0206 L 21.5823,26.0486 L 21.5823,26.0767 L 21.5683,26.1187 L 21.5542,26.1608 L 21.5542,26.2028 L 21.5402,26.2449 L 21.5402,26.2870 L 21.5402,26.3430 L 21.5542,26.3430 L 21.5683,26.3430 L 21.5823,26.3430 L 21.5964,26.3430 L 21.6104,26.3430 L 21.6385,26.3430 L 21.6526,26.3430 L 21.6807,26.3430 L 21.6948,26.3430 L 21.7229,26.3430 L 21.7510,26.3430 L 21.7791,26.3430 L 21.8072,26.3430 L 21.8353,26.3430 L 21.8634,26.3430 L 21.8915,26.3430 L 21.9196,26.3430 L 21.9477,26.3430 L 21.9758,26.3430 L 21.9898,26.3430 L 22.0179,26.3430 L 22.0320,26.3430 L 22.0601,26.3430 L 22.0741,26.3430 L 22.0882,26.3430 L 22.1022,26.3430 L 22.1163,26.3430 L 22.1303,26.3430 Z" stroke="#7F7F7F" stroke-width="0.1198" stroke-linecap="round" stroke-linejoin="round" fill="#7F7F7F"/>
        <text font-family="Arial" fill="#7F7F7F" style="white-space:pre;" text-anchor="start" x="34.8886" y="27.5347" font-size="0.5901"><![CDATA[]]></text>
        <path d="M 34.9772,0.0000 L 34.7644,0.0000 L 34.7644,0.2124 L 34.9772,0.2124 L 34.9772,0.0000 Z" stroke="#000000" stroke-width="0.1198" stroke-linecap="round" stroke-linejoin="round" fill="none"/>
        <path d="M 30.1916,0.0000 L 29.9787,0.0000 L 29.9787,0.2124 L 30.1916,0.2124 L 30.1916,0.0000 Z" stroke="#000000" stroke-width="0.1198" stroke-linecap="round" stroke-linejoin="round" fill="none"/>
        <path d="M 25.3025,0.0000 L 25.0897,0.0000 L 25.0897,0.2124 L 25.3025,0.2124 L 25.3025,0.0000 Z" stroke="#000000" stroke-width="0.1198" stroke-linecap="round" stroke-linejoin="round" fill="none"/>
        <path d="M 18.0420,0.0000 L 17.8291,0.0000 L 17.8291,0.2124 L 18.0420,0.2124 L 18.0420,0.0000 Z" stroke="#000000" stroke-width="0.1198" stroke-linecap="round" stroke-linejoin="round" fill="none"/>
        <path d="M 2.7425,50.0070 L 2.5296,50.0070 L 2.5296,50.2193 L 2.7425,50.2193 L 2.7425,50.0070 Z" stroke="#000000" stroke-width="0.1198" stroke-linecap="round" stroke-linejoin="round" fill="none"/>
        <path d="M 0.2128,26.9936 L 0.0000,26.9936 L 0.0000,27.2059 L 0.2128,27.2059 L 0.2128,26.9936 Z" stroke="#000000" stroke-width="0.1198" stroke-linecap="round" stroke-linejoin="round" fill="none"/>
        <path d="M 2.4628,3.2582 L 2.2499,3.2582 L 2.2499,3.4705 L 2.4628,3.4705 L 2.4628,3.2582 Z" stroke="#000000" stroke-width="0.1198" stroke-linecap="round" stroke-linejoin="round" fill="none"/>
        <path d="M 51.2314,50.0070 L 51.0186,50.0070 L 51.0186,50.2193 L 51.2314,50.2193 L 51.2314,50.0070 Z" stroke="#000000" stroke-width="0.1198" stroke-linecap="round" stroke-linejoin="round" fill="none"/>
        <path d="M 53.7610,26.4354 L 53.5482,26.4354 L 53.5482,26.6477 L 53.7610,26.6477 L 53.7610,26.4354 Z" stroke="#000000" stroke-width="0.1198" stroke-linecap="round" stroke-linejoin="round" fill="none"/>
        <path d="M 51.0611,3.2582 L 50.8483,3.2582 L 50.8483,3.4705 L 51.0611,3.4705 L 51.0611,3.2582 Z" stroke="#000000" stroke-width="0.1198" stroke-linecap="round" stroke-linejoin="round" fill="none"/>
      </g>
      <!--emf-blob end-->
    </g>
  </g>
</svg>
