<svg xmlns="http://www.w3.org/2000/svg" xmlns:xlink="http://www.w3.org/1999/xlink" version="1.1" width="3.4032000000" height="3.4032000000" viewBox="0 0 61.2567 61.2567">
  <title><![CDATA[FAP-421/423E]]></title>
  <g transform=" scale(4.000000) ">
    <!--converted by libvisio2svg-->
    <g transform=" translate(0.000000,0.000000) ">
      <!--emf-blob start-->
      <g transform="translate(-0.0000, -0.0000)">
        <path d="M 53.7016,3.8654 L 53.4491,3.7108 L 53.1545,3.5703 L 52.8178,3.4156 L 52.4391,3.2470 L 52.0322,3.0924 L 51.5693,2.9377 L 51.0923,2.7691 L 50.5592,2.6144 L 50.0121,2.4458 L 49.4229,2.2771 L 48.7916,2.1225 L 48.1463,1.9679 L 47.4589,1.8132 L 46.7575,1.6586 L 46.0139,1.5040 L 45.2424,1.3634 L 44.4568,1.2229 L 43.6431,1.0823 L 42.8014,0.9558 L 41.9456,0.8293 L 41.0618,0.7169 L 40.1640,0.6044 L 39.2521,0.5060 L 38.3122,0.4076 L 37.3583,0.3233 L 36.3903,0.2530 L 35.3943,0.1827 L 34.3982,0.1265 L 33.3882,0.0843 L 32.3781,0.0562 L 31.3400,0.0281 L 29.6425,0.0281 L 28.2958,0.0562 L 26.2756,0.1406 L 25.5882,0.1827 L 24.9149,0.2390 L 24.2275,0.2952 L 23.5541,0.3514 L 22.8667,0.4217 L 22.1933,0.4920 L 21.5059,0.5763 L 20.8325,0.6606 L 20.1451,0.7590 L 19.4718,0.8574 L 18.7844,0.9699 L 18.1110,1.0823 L 17.4236,1.2088 L 16.0768,1.4618 L 15.4175,1.6024 L 14.7441,1.7570 L 14.0848,1.9116 L 13.4114,2.0663 L 12.7520,2.2349 L 12.0927,2.4177 L 10.8021,2.7831 L 9.5114,3.1767 L 8.8801,3.3875 L 8.7819,3.4297 L 8.6697,3.4719 L 8.5434,3.5281 L 8.4032,3.5984 L 8.2488,3.6687 L 8.0945,3.7530 L 7.9402,3.8514 L 7.7719,3.9638 L 7.4071,4.1887 L 7.2248,4.3152 L 6.8319,4.5964 L 6.2427,5.0602 L 5.6535,5.5662 L 5.4571,5.7490 L 4.9100,6.2972 L 4.7417,6.4939 L 4.5733,6.6767 L 4.2647,7.0702 L 4.1384,7.2670 L 3.9982,7.4498 L 3.8859,7.6465 L 3.6895,8.0401 L 3.5072,8.5040 L 3.3248,8.9959 L 3.1564,9.5160 L 2.9741,10.0501 L 2.8057,10.5983 L 2.6374,11.1746 L 2.4690,11.7791 L 2.3147,12.3975 L 2.1464,13.0301 L 1.9921,13.6907 L 1.8378,14.3654 L 1.6975,15.0541 L 1.5572,15.7569 L 1.4169,16.4738 L 1.2766,17.2047 L 1.1503,17.9638 L 1.0381,18.7228 L 0.9119,19.5099 L 0.7996,20.2971 L 0.6032,21.8995 L 0.4349,23.5581 L 0.3507,24.4015 L 0.2806,25.2448 L 0.2245,26.1023 L 0.1683,26.9738 L 0.0842,28.7167 L 0.0561,29.6023 L 0.0281,31.3733 L 0.0281,32.7227 L 0.0421,33.4115 L 0.0561,34.0862 L 0.0842,34.7749 L 0.1403,36.1243 L 0.1824,36.8131 L 0.2245,37.4878 L 0.2806,38.1765 L 0.3367,38.8512 L 0.5471,40.8753 L 0.6453,41.5359 L 0.7295,42.2106 L 0.8277,42.8713 L 1.0521,44.1925 L 1.1644,44.8391 L 1.3047,45.4998 L 1.4309,46.1323 L 1.5712,46.7789 L 1.8798,48.0439 L 2.0482,48.6624 L 2.2306,49.2809 L 2.3989,49.8993 L 2.5953,50.5037 L 2.7917,51.0941 L 3.2126,52.2748 L 3.2967,52.5700 L 3.3949,52.8652 L 3.4931,53.1463 L 3.5913,53.4134 L 3.8158,53.9194 L 3.9420,54.1583 L 4.0543,54.3973 L 4.1946,54.6222 L 4.3208,54.8330 L 4.4611,55.0439 L 4.6154,55.2547 L 4.7697,55.4515 L 4.9241,55.6342 L 5.2607,55.9997 L 5.6255,56.3370 L 6.2147,56.8009 L 6.4391,56.9415 L 6.6496,57.0820 L 6.8881,57.2226 L 7.1125,57.3631 L 7.3650,57.4897 L 7.6176,57.6302 L 7.8701,57.7567 L 8.1366,57.8832 L 8.4172,58.0097 L 8.6978,58.1222 L 8.9924,58.2487 L 9.4413,58.4314 L 9.9042,58.6141 L 10.3952,58.7969 L 10.8862,58.9655 L 11.3913,59.1202 L 12.4574,59.4294 L 13.0046,59.5700 L 13.5657,59.6965 L 14.1409,59.8370 L 14.7301,59.9495 L 15.3193,60.0760 L 15.9225,60.1884 L 17.1570,60.3852 L 17.7883,60.4836 L 19.0790,60.6523 L 19.7243,60.7226 L 20.3836,60.7928 L 21.0570,60.8491 L 21.7304,60.9194 L 22.4037,60.9615 L 23.0771,61.0177 L 23.7645,61.0599 L 24.4519,61.0880 L 25.1393,61.1302 L 25.8408,61.1443 L 26.5282,61.1724 L 27.2296,61.1864 L 27.9170,61.2005 L 29.5022,61.2005 L 32.1536,61.1583 L 33.0375,61.1161 L 33.9072,61.0880 L 34.7770,61.0459 L 35.6328,60.9896 L 37.3162,60.8772 L 38.1439,60.8069 L 39.7712,60.6663 L 41.3424,60.4977 L 42.1000,60.3993 L 42.8435,60.3009 L 43.5730,60.2025 L 44.2884,60.1041 L 44.9758,60.0057 L 45.6492,59.8933 L 46.2945,59.7808 L 46.9118,59.6684 L 47.5150,59.5418 L 48.0902,59.4294 L 48.6373,59.3029 L 49.1704,59.1764 L 49.6614,59.0499 L 50.1243,58.9234 L 50.5592,58.7969 L 50.9661,58.6563 L 51.3448,58.5298 L 51.6675,58.4314 L 51.9621,58.3330 L 52.2567,58.2206 L 52.5373,58.1222 L 52.8038,58.0097 L 53.0704,57.9113 L 53.3229,57.7989 L 53.5614,57.6864 L 54.0103,57.4615 L 54.2207,57.3350 L 54.4311,57.2226 L 54.6135,57.1101 L 54.8099,56.9836 L 54.9782,56.8712 L 55.1606,56.7447 L 55.3149,56.6322 L 55.6236,56.3792 L 55.7639,56.2668 L 55.9041,56.1403 L 56.0304,56.0138 L 56.1567,55.9013 L 56.2829,55.7748 L 56.3951,55.6483 L 56.5074,55.5358 L 56.6196,55.4093 L 56.7318,55.2969 L 56.8300,55.1704 L 56.9282,55.0579 L 57.0124,54.9314 L 57.1106,54.8190 L 57.3912,53.8491 L 57.6577,52.8933 L 57.9102,51.9234 L 58.1487,50.9817 L 58.5976,49.0981 L 58.8081,48.1704 L 59.0045,47.2427 L 59.2009,46.3291 L 59.7059,43.6303 L 59.8462,42.7448 L 59.9865,41.8733 L 60.1127,41.0018 L 60.2390,40.1444 L 60.3512,39.2869 L 60.5476,37.6002 L 60.6318,36.7709 L 60.7160,35.9556 L 60.7861,35.1404 L 60.8422,34.3392 L 60.8983,33.5520 L 60.9404,32.7649 L 60.9825,31.9918 L 61.0106,31.2328 L 61.0667,29.7428 L 61.0807,28.9978 L 61.0807,27.5641 L 61.0667,26.7207 L 61.0527,25.8914 L 60.9965,24.2890 L 60.9124,22.7429 L 60.8563,21.9979 L 60.7861,21.2670 L 60.7160,20.5501 L 60.6458,19.8473 L 60.5616,19.1726 L 60.4775,18.5119 L 60.3793,17.8654 L 60.2811,17.2328 L 60.1829,16.6284 L 60.0706,16.0381 L 59.9584,15.4618 L 59.8462,14.8995 L 59.7199,14.3654 L 59.4674,13.3533 L 59.3271,12.8754 L 59.2009,12.4256 L 59.0606,11.9899 L 58.9203,11.5682 L 58.7660,11.1746 L 58.6257,10.8092 L 58.4714,10.4578 L 58.3311,10.1204 L 58.1768,9.8112 L 58.0225,9.5301 L 57.8682,9.2630 L 57.7699,9.0381 L 57.6717,8.8273 L 57.5876,8.6164 L 57.4894,8.4056 L 57.4052,8.2088 L 57.3070,8.0120 L 57.2088,7.8293 L 57.1246,7.6465 L 57.0264,7.4779 L 56.9282,7.2951 L 56.7318,6.9578 L 56.5354,6.6486 L 56.4232,6.4799 L 56.3110,6.3393 L 56.1987,6.1847 L 55.9462,5.8755 L 55.8200,5.7349 L 55.5394,5.4257 L 55.3851,5.2851 L 55.0765,4.9759 L 54.9081,4.8353 L 54.7257,4.6807 L 54.5434,4.5120 L 54.3470,4.3574 L 54.1365,4.2028 L 53.9261,4.0341 L 53.7016,3.8654 Z" stroke="#000000" stroke-width="0.1199" stroke-linecap="round" stroke-linejoin="round" fill="#D8D8D8"/>
        <path d="M 53.2387,4.3996 L 52.9862,4.2590 L 52.7056,4.1044 L 52.3689,3.9498 L 52.0042,3.7952 L 51.5973,3.6405 L 51.1625,3.4859 L 50.6715,3.3313 L 50.1664,3.1626 L 49.6193,3.0080 L 49.0441,2.8534 L 48.4269,2.6988 L 47.7956,2.5442 L 47.1222,2.3895 L 46.4208,2.2349 L 45.7053,2.0944 L 44.9478,1.9538 L 44.1762,1.8132 L 43.3766,1.6727 L 42.5629,1.5462 L 41.7212,1.4337 L 40.8514,1.3213 L 39.9676,1.2088 L 39.0698,1.1104 L 38.1439,1.0120 L 37.2180,0.9418 L 36.2640,0.8574 L 34.3281,0.7450 L 33.3321,0.7028 L 32.3360,0.6747 L 31.3260,0.6466 L 29.6425,0.6466 L 28.9972,0.6606 L 28.3379,0.6747 L 27.0192,0.7309 L 26.3458,0.7590 L 25.0271,0.8434 L 24.3537,0.8996 L 23.6944,0.9558 L 22.3476,1.0964 L 21.6883,1.1807 L 21.0149,1.2651 L 20.3556,1.3634 L 19.6822,1.4618 L 19.0228,1.5602 L 18.3495,1.6727 L 16.3714,2.0522 L 15.0527,2.3333 L 13.7621,2.6426 L 12.4715,2.9799 L 11.8261,3.1626 L 10.5636,3.5281 L 9.9323,3.7249 L 9.3150,3.9357 L 9.2168,3.9638 L 9.1046,4.0201 L 8.9783,4.0763 L 8.8380,4.1325 L 8.6978,4.2168 L 8.3891,4.3855 L 8.2208,4.4980 L 8.0524,4.5964 L 7.6877,4.8494 L 7.4913,4.9759 L 7.3089,5.1164 L 7.1125,5.2570 L 6.9161,5.4116 L 6.7337,5.5662 L 6.1445,6.0723 L 5.9622,6.2409 L 5.7798,6.4237 L 5.5974,6.5923 L 5.4291,6.7891 L 5.0924,7.1546 L 4.9381,7.3514 L 4.7978,7.5341 L 4.6575,7.7309 L 4.5313,7.9136 L 4.4190,8.1104 L 4.3068,8.2931 L 4.2226,8.4899 L 4.0402,8.9538 L 3.8719,9.4317 L 3.7036,9.9236 L 3.5212,10.4578 L 3.3528,11.0060 L 3.1985,11.5682 L 3.0302,12.1586 L 2.8759,12.7630 L 2.7216,13.3815 L 2.4129,14.6746 L 2.1324,16.0521 L 1.9921,16.7549 L 1.8658,17.4718 L 1.6133,18.9617 L 1.5011,19.7208 L 1.4029,20.4939 L 1.2906,21.2810 L 1.2065,22.0822 L 1.1083,22.8834 L 1.0241,23.6987 L 0.8838,25.3573 L 0.7716,27.0440 L 0.7295,27.9015 L 0.6734,29.6163 L 0.6453,31.3593 L 0.6453,32.6946 L 0.6734,34.0159 L 0.6874,34.6906 L 0.7155,35.3512 L 0.7575,36.0259 L 0.7996,36.6866 L 0.8417,37.3612 L 0.8838,38.0219 L 0.9399,38.6825 L 1.1503,40.6644 L 1.2345,41.3251 L 1.3327,41.9857 L 1.5291,43.2789 L 1.6414,43.9255 L 1.7536,44.5580 L 1.8798,45.1905 L 2.1604,46.4556 L 2.3007,47.0740 L 2.4550,47.6925 L 2.6234,48.3110 L 2.7917,48.9154 L 3.1564,50.0961 L 3.3528,50.6865 L 3.5492,51.2628 L 3.7597,51.8391 L 3.8438,52.1343 L 4.0402,52.6965 L 4.1384,52.9495 L 4.2367,53.2166 L 4.3489,53.4555 L 4.4751,53.6945 L 4.5874,53.9194 L 4.7136,54.1443 L 4.9942,54.5660 L 5.1345,54.7628 L 5.2888,54.9595 L 5.5974,55.3250 L 5.7658,55.4937 L 5.9481,55.6624 L 6.1165,55.8170 L 6.3129,55.9856 L 6.5093,56.1262 L 6.7057,56.2808 L 7.1266,56.5619 L 7.3510,56.7025 L 7.5895,56.8290 L 7.8280,56.9696 L 8.0665,57.0961 L 8.3330,57.2226 L 8.5855,57.3350 L 8.8661,57.4615 L 9.1326,57.5880 L 9.4272,57.7005 L 9.8621,57.8832 L 10.3251,58.0660 L 11.2790,58.4033 L 11.7841,58.5579 L 12.3031,58.7125 L 12.8222,58.8531 L 13.3553,58.9937 L 13.9024,59.1202 L 14.4635,59.2467 L 15.0387,59.3732 L 16.2171,59.5981 L 17.4236,59.7949 L 18.0408,59.8792 L 19.3034,60.0479 L 21.2394,60.2587 L 21.8987,60.3149 L 22.5581,60.3571 L 23.2314,60.4133 L 23.9048,60.4414 L 24.5782,60.4836 L 25.9249,60.5398 L 27.2997,60.5679 L 27.9731,60.5820 L 29.5303,60.5820 L 31.2698,60.5539 L 32.1256,60.5398 L 32.9813,60.5117 L 34.6928,60.4274 L 35.5205,60.3852 L 36.3622,60.3290 L 37.1759,60.2587 L 37.9896,60.2025 L 39.5888,60.0619 L 40.3604,59.9776 L 41.8755,59.8089 L 42.6050,59.7105 L 43.3204,59.6121 L 44.0079,59.5137 L 44.6812,59.4013 L 45.3406,59.3029 L 45.9719,59.1904 L 46.5891,59.0780 L 47.1783,58.9655 L 47.7395,58.8390 L 48.2726,58.7266 L 48.7916,58.6001 L 49.2826,58.4736 L 49.7315,58.3471 L 50.1664,58.2206 L 50.5592,58.0941 L 50.9240,57.9676 L 51.2326,57.8692 L 51.8218,57.6724 L 52.0883,57.5740 L 52.3549,57.4615 L 52.6074,57.3631 L 52.8599,57.2507 L 53.0984,57.1382 L 53.3229,57.0399 L 53.7437,56.8150 L 53.9401,56.6885 L 54.1365,56.5760 L 54.3189,56.4636 L 54.4872,56.3511 L 54.6556,56.2246 L 54.8099,56.1121 L 54.9642,55.9856 L 55.1185,55.8732 L 55.2588,55.7467 L 55.3991,55.6342 L 55.5254,55.5077 L 55.6516,55.3953 L 55.7639,55.2688 L 55.9883,55.0439 L 56.1005,54.9174 L 56.2969,54.6925 L 56.3951,54.5660 L 56.4933,54.4535 L 56.5775,54.3411 L 56.8441,53.3853 L 57.1106,52.4435 L 57.3631,51.5017 L 57.6016,50.5740 L 57.8261,49.6463 L 58.2469,47.8190 L 58.4433,46.9194 L 58.6257,46.0198 L 58.9624,44.2488 L 59.1167,43.3773 L 59.2570,42.5058 L 59.3973,41.6484 L 59.5235,40.7909 L 59.6358,39.9476 L 59.7480,39.1183 L 59.9444,37.4596 L 60.0286,36.6584 L 60.1688,35.0560 L 60.2250,34.2689 L 60.2811,33.4958 L 60.3232,32.7227 L 60.3652,31.9637 L 60.4073,31.2187 L 60.4214,30.4878 L 60.4494,29.7569 L 60.4634,29.0259 L 60.4634,26.7910 L 60.4354,25.9898 L 60.4214,25.1886 L 60.3933,24.4155 L 60.3512,23.6424 L 60.2951,22.8975 L 60.2530,22.1665 L 60.1829,21.4497 L 60.1268,20.7469 L 60.0426,20.0722 L 59.9724,19.3975 L 59.8883,18.7509 L 59.7901,18.1184 L 59.6919,17.4999 L 59.5937,16.8955 L 59.4814,16.3192 L 59.3692,15.7569 L 59.1448,14.6887 L 59.0185,14.1827 L 58.8922,13.7047 L 58.7660,13.2409 L 58.6257,12.7911 L 58.4854,12.3554 L 58.3451,11.9477 L 58.2048,11.5682 L 58.0646,11.2028 L 57.9243,10.8513 L 57.7699,10.5281 L 57.6156,10.2329 L 57.4753,9.9377 L 57.3210,9.6847 L 57.2228,9.4598 L 57.1387,9.2489 L 57.0405,9.0522 L 56.9563,8.8554 L 56.8581,8.6586 L 56.7739,8.4618 L 56.6897,8.2791 L 56.5915,8.1104 L 56.5074,7.9417 L 56.4092,7.7590 L 56.3110,7.6044 L 56.2128,7.4357 L 56.0164,7.1265 L 55.7919,6.8172 L 55.6797,6.6767 L 55.5675,6.5221 L 55.4412,6.3815 L 55.3149,6.2269 L 55.1747,6.0863 L 55.0344,5.9317 L 54.8941,5.7911 L 54.7398,5.6506 L 54.5854,5.4960 L 54.4171,5.3413 L 54.2347,5.2008 L 53.8700,4.8915 L 53.6596,4.7229 L 53.4632,4.5682 L 53.2387,4.3996 Z" stroke="#EFEFEF" stroke-width="0.1199" stroke-linecap="round" stroke-linejoin="round" fill="#EFEFEF"/>
        <ellipse cx="23.3857" cy="54.6714" rx="0.5191" ry="0.5130" fill="#000000" stroke="#000000" stroke-width="0.1199" stroke-linecap="round" stroke-linejoin="round"/>
        <ellipse cx="23.3857" cy="54.6714" rx="0.5191" ry="0.5130" fill="none" stroke="#000000" stroke-width="0.1199" stroke-linecap="round" stroke-linejoin="round"/>
        <ellipse cx="23.3857" cy="54.6714" rx="0.4068" ry="0.4006" fill="#00FF00" stroke="#000000" stroke-width="0.1199" stroke-linecap="round" stroke-linejoin="round"/>
        <ellipse cx="23.3857" cy="54.6714" rx="0.4068" ry="0.4006" fill="none" stroke="#000000" stroke-width="0.1199" stroke-linecap="round" stroke-linejoin="round"/>
        <ellipse cx="26.9140" cy="54.6714" rx="0.5120" ry="0.5130" fill="#000000" stroke="#000000" stroke-width="0.1199" stroke-linecap="round" stroke-linejoin="round"/>
        <ellipse cx="26.9140" cy="54.6714" rx="0.5120" ry="0.5130" fill="none" stroke="#000000" stroke-width="0.1199" stroke-linecap="round" stroke-linejoin="round"/>
        <ellipse cx="26.9140" cy="54.6714" rx="0.3998" ry="0.4006" fill="#00FF00" stroke="#000000" stroke-width="0.1199" stroke-linecap="round" stroke-linejoin="round"/>
        <ellipse cx="26.9140" cy="54.6714" rx="0.3998" ry="0.4006" fill="none" stroke="#000000" stroke-width="0.1199" stroke-linecap="round" stroke-linejoin="round"/>
        <ellipse cx="30.4351" cy="54.6714" rx="0.5120" ry="0.5130" fill="#000000" stroke="#000000" stroke-width="0.1199" stroke-linecap="round" stroke-linejoin="round"/>
        <ellipse cx="30.4351" cy="54.6714" rx="0.5120" ry="0.5130" fill="none" stroke="#000000" stroke-width="0.1199" stroke-linecap="round" stroke-linejoin="round"/>
        <ellipse cx="30.4351" cy="54.6714" rx="0.3998" ry="0.4006" fill="#00FF00" stroke="#000000" stroke-width="0.1199" stroke-linecap="round" stroke-linejoin="round"/>
        <ellipse cx="30.4351" cy="54.6714" rx="0.3998" ry="0.4006" fill="none" stroke="#000000" stroke-width="0.1199" stroke-linecap="round" stroke-linejoin="round"/>
        <ellipse cx="37.4915" cy="54.6714" rx="0.5120" ry="0.5130" fill="#000000" stroke="#000000" stroke-width="0.1199" stroke-linecap="round" stroke-linejoin="round"/>
        <ellipse cx="37.4915" cy="54.6714" rx="0.5120" ry="0.5130" fill="none" stroke="#000000" stroke-width="0.1199" stroke-linecap="round" stroke-linejoin="round"/>
        <ellipse cx="37.4915" cy="54.6714" rx="0.3998" ry="0.4006" fill="#00FF00" stroke="#000000" stroke-width="0.1199" stroke-linecap="round" stroke-linejoin="round"/>
        <ellipse cx="37.4915" cy="54.6714" rx="0.3998" ry="0.4006" fill="none" stroke="#000000" stroke-width="0.1199" stroke-linecap="round" stroke-linejoin="round"/>
        <ellipse cx="33.9704" cy="54.6714" rx="0.5120" ry="0.5130" fill="#000000" stroke="#000000" stroke-width="0.1199" stroke-linecap="round" stroke-linejoin="round"/>
        <ellipse cx="33.9704" cy="54.6714" rx="0.5120" ry="0.5130" fill="none" stroke="#000000" stroke-width="0.1199" stroke-linecap="round" stroke-linejoin="round"/>
        <ellipse cx="33.9704" cy="54.6714" rx="0.3998" ry="0.4006" fill="#00FF00" stroke="#000000" stroke-width="0.1199" stroke-linecap="round" stroke-linejoin="round"/>
        <ellipse cx="33.9704" cy="54.6714" rx="0.3998" ry="0.4006" fill="none" stroke="#000000" stroke-width="0.1199" stroke-linecap="round" stroke-linejoin="round"/>
        <path d="M 23.5401,53.1041 L 23.5541,53.1041 L 23.5541,53.1182 L 23.5821,53.1182 L 23.5821,53.1322 L 23.5962,53.1322 L 23.5962,53.1463 L 23.6102,53.1463 L 23.6102,53.1604 L 23.6242,53.1604 L 23.6242,53.1744 L 23.6523,53.2025 L 23.6523,53.2166 L 23.6663,53.2166 L 23.6663,53.2447 L 23.6803,53.2447 L 23.6803,53.2728 L 23.6944,53.2869 L 23.6944,53.3290 L 23.7084,53.3431 L 23.7084,53.4696 L 23.6944,53.4836 L 23.6944,53.5118 L 23.6803,53.5258 L 23.6803,53.5399 L 23.6523,53.5680 L 23.6523,53.5820 L 23.6242,53.6102 L 23.6242,53.6242 L 23.6102,53.6242 L 23.5681,53.6664 L 23.5541,53.6664 L 23.5401,53.6804 L 23.5260,53.6804 L 23.5120,53.6945 L 23.4980,53.6945 L 23.4839,53.7085 L 23.4559,53.7085 L 23.4419,53.7226 L 23.3016,53.7226 L 23.2875,53.7085 L 23.2595,53.7085 L 23.2455,53.6945 L 23.2314,53.6945 L 23.2174,53.6804 L 23.2034,53.6804 L 23.1893,53.6664 L 23.1753,53.6664 L 23.1332,53.6242 L 23.1192,53.6242 L 23.1192,53.6102 L 23.0911,53.5820 L 23.0911,53.5680 L 23.0631,53.5399 L 23.0631,53.5258 L 23.0491,53.5118 L 23.0491,53.4836 L 23.0350,53.4696 L 23.0350,53.3290 L 23.0491,53.3150 L 23.0491,53.2728 L 23.0631,53.2728 L 23.0631,53.2447 L 23.0771,53.2306 L 23.0771,53.2166 L 23.0911,53.2025 L 23.0911,53.1885 L 23.1052,53.1885 L 23.1052,53.1744 L 23.1332,53.1463 L 23.1332,53.1322 L 23.1473,53.1322 L 23.1473,53.1182 L 23.1613,53.1182 L 23.1613,53.1041 L 23.1753,53.1041 L 23.1753,53.1182 L 23.1893,53.1182 L 23.1893,53.1322 L 23.2034,53.1463 L 23.2034,53.1604 L 23.2174,53.1604 L 23.2174,53.1744 L 23.2034,53.1885 L 23.1893,53.1885 L 23.1893,53.2025 L 23.1753,53.2025 L 23.1613,53.2166 L 23.1613,53.2306 L 23.1473,53.2306 L 23.1473,53.2447 L 23.1332,53.2447 L 23.1332,53.2728 L 23.1192,53.2728 L 23.1192,53.3009 L 23.1052,53.3009 L 23.1052,53.3431 L 23.0911,53.3431 L 23.0911,53.4555 L 23.1052,53.4696 L 23.1052,53.4977 L 23.1332,53.5258 L 23.1332,53.5399 L 23.1473,53.5539 L 23.1473,53.5680 L 23.1613,53.5680 L 23.1753,53.5820 L 23.1753,53.5961 L 23.1893,53.5961 L 23.2174,53.6242 L 23.2314,53.6242 L 23.2455,53.6383 L 23.2595,53.6383 L 23.2735,53.6523 L 23.3016,53.6523 L 23.3156,53.6664 L 23.4278,53.6664 L 23.4419,53.6523 L 23.4699,53.6523 L 23.4839,53.6383 L 23.4980,53.6383 L 23.5120,53.6242 L 23.5260,53.6242 L 23.5541,53.5961 L 23.5681,53.5961 L 23.5681,53.5820 L 23.5821,53.5680 L 23.5962,53.5680 L 23.5962,53.5539 L 23.6102,53.5399 L 23.6102,53.5258 L 23.6383,53.4977 L 23.6383,53.4696 L 23.6523,53.4555 L 23.6523,53.3571 L 23.6383,53.3431 L 23.6383,53.3150 L 23.6242,53.3009 L 23.6242,53.2869 L 23.6102,53.2728 L 23.6102,53.2588 L 23.5962,53.2447 L 23.5962,53.2306 L 23.5821,53.2306 L 23.5821,53.2166 L 23.5681,53.2166 L 23.5681,53.2025 L 23.5541,53.2025 L 23.5260,53.1744 L 23.5120,53.1744 L 23.5120,53.1604 L 23.4980,53.1604 L 23.4980,53.1463 L 23.5120,53.1463 L 23.5120,53.1322 L 23.5260,53.1322 L 23.5260,53.1182 L 23.5401,53.1182 L 23.5401,53.1041 Z" stroke="#000000" stroke-width="0.1199" stroke-linecap="round" stroke-linejoin="round" fill="#000000"/>
        <path d="M 23.3998,52.9355 L 23.3156,52.9355 L 23.3156,53.4134 L 23.3998,53.4134 L 23.3998,52.9355 Z" stroke="#000000" stroke-width="0.1199" stroke-linecap="round" stroke-linejoin="round" fill="#000000"/>
        <ellipse cx="26.8578" cy="52.9636" rx="0.0491" ry="0.0562" fill="#000000" stroke="#000000" stroke-width="0.1199" stroke-linecap="round" stroke-linejoin="round"/>
        <ellipse cx="26.8578" cy="52.9636" rx="0.0491" ry="0.0562" fill="none" stroke="#000000" stroke-width="0.1199" stroke-linecap="round" stroke-linejoin="round"/>
        <ellipse cx="26.5492" cy="53.5891" rx="0.0491" ry="0.0492" fill="#000000" stroke="#000000" stroke-width="0.1199" stroke-linecap="round" stroke-linejoin="round"/>
        <ellipse cx="26.5492" cy="53.5891" rx="0.0491" ry="0.0492" fill="none" stroke="#000000" stroke-width="0.1199" stroke-linecap="round" stroke-linejoin="round"/>
        <ellipse cx="27.1524" cy="53.5891" rx="0.0491" ry="0.0492" fill="#000000" stroke="#000000" stroke-width="0.1199" stroke-linecap="round" stroke-linejoin="round"/>
        <ellipse cx="27.1524" cy="53.5891" rx="0.0491" ry="0.0492" fill="none" stroke="#000000" stroke-width="0.1199" stroke-linecap="round" stroke-linejoin="round"/>
        <path d="M 26.4440,53.3290 L 27.3418,53.3290 " stroke="#000000" stroke-width="0.1199" stroke-linecap="round" stroke-linejoin="round" fill="none"/>
        <path d="M 27.2156,53.3290 L 27.2156,53.5539 " stroke="#000000" stroke-width="0.1199" stroke-linecap="round" stroke-linejoin="round" fill="none"/>
        <path d="M 26.6123,53.3290 L 26.6123,53.5539 " stroke="#000000" stroke-width="0.1199" stroke-linecap="round" stroke-linejoin="round" fill="none"/>
        <path d="M 26.6123,53.3290 L 26.6123,53.5539 " stroke="#000000" stroke-width="0.1199" stroke-linecap="round" stroke-linejoin="round" fill="none"/>
        <path d="M 26.9210,53.1041 L 26.9210,53.3290 " stroke="#000000" stroke-width="0.1199" stroke-linecap="round" stroke-linejoin="round" fill="none"/>
        <ellipse cx="30.4632" cy="52.9636" rx="0.0491" ry="0.0562" fill="#000000" stroke="#000000" stroke-width="0.1199" stroke-linecap="round" stroke-linejoin="round"/>
        <ellipse cx="30.4632" cy="52.9636" rx="0.0491" ry="0.0562" fill="none" stroke="#000000" stroke-width="0.1199" stroke-linecap="round" stroke-linejoin="round"/>
        <ellipse cx="30.1546" cy="53.5891" rx="0.0491" ry="0.0492" fill="#000000" stroke="#000000" stroke-width="0.1199" stroke-linecap="round" stroke-linejoin="round"/>
        <ellipse cx="30.1546" cy="53.5891" rx="0.0491" ry="0.0492" fill="none" stroke="#000000" stroke-width="0.1199" stroke-linecap="round" stroke-linejoin="round"/>
        <ellipse cx="30.7648" cy="53.5891" rx="0.0561" ry="0.0492" fill="#000000" stroke="#000000" stroke-width="0.1199" stroke-linecap="round" stroke-linejoin="round"/>
        <ellipse cx="30.7648" cy="53.5891" rx="0.0561" ry="0.0492" fill="none" stroke="#000000" stroke-width="0.1199" stroke-linecap="round" stroke-linejoin="round"/>
        <path d="M 30.0494,53.3290 L 30.9472,53.3290 " stroke="#000000" stroke-width="0.1199" stroke-linecap="round" stroke-linejoin="round" fill="none"/>
        <path d="M 30.8209,53.3290 L 30.8209,53.5539 " stroke="#000000" stroke-width="0.1199" stroke-linecap="round" stroke-linejoin="round" fill="none"/>
        <path d="M 30.2177,53.3290 L 30.2177,53.5539 " stroke="#000000" stroke-width="0.1199" stroke-linecap="round" stroke-linejoin="round" fill="none"/>
        <path d="M 30.5263,53.1041 L 30.5263,53.3290 " stroke="#000000" stroke-width="0.1199" stroke-linecap="round" stroke-linejoin="round" fill="none"/>
        <text font-family="Arial" fill="#000000" style="white-space:pre;" text-anchor="start" x="27.4260" y="53.2588" font-size="0.5191"><![CDATA[1]]></text>
        <text font-family="Arial" fill="#000000" style="white-space:pre;" text-anchor="start" x="31.0033" y="53.2588" font-size="0.5191"><![CDATA[2]]></text>
        <text font-family="Arial" fill="#000000" style="white-space:pre;" text-anchor="start" x="33.1357" y="53.6242" font-size="0.5191"><![CDATA[2]]></text>
        <text font-family="Arial" fill="#000000" style="white-space:pre;" text-anchor="start" x="33.4303" y="53.6242" font-size="0.5191"><![CDATA[.]]></text>
        <text font-family="Arial" fill="#000000" style="white-space:pre;" text-anchor="start" x="33.5705" y="53.6242" font-size="0.5191"><![CDATA[4]]></text>
        <text font-family="Arial" fill="#000000" style="white-space:pre;" text-anchor="start" x="33.8651" y="53.6242" font-size="0.5191"><![CDATA[G]]></text>
        <text font-family="Arial" fill="#000000" style="white-space:pre;" text-anchor="start" x="34.2720" y="53.6242" font-size="0.5191"><![CDATA[H]]></text>
        <text font-family="Arial" fill="#000000" style="white-space:pre;" text-anchor="start" x="34.6507" y="53.6242" font-size="0.5191"><![CDATA[z]]></text>
        <text font-family="Arial" fill="#000000" style="white-space:pre;" text-anchor="start" x="36.7971" y="53.6242" font-size="0.5191"><![CDATA[5]]></text>
        <text font-family="Arial" fill="#000000" style="white-space:pre;" text-anchor="start" x="37.0917" y="53.6242" font-size="0.5191"><![CDATA[G]]></text>
        <text font-family="Arial" fill="#000000" style="white-space:pre;" text-anchor="start" x="37.4986" y="53.6242" font-size="0.5191"><![CDATA[H]]></text>
        <text font-family="Arial" fill="#000000" style="white-space:pre;" text-anchor="start" x="37.8773" y="53.6242" font-size="0.5191"><![CDATA[z]]></text>
        <path d="M 35.0015,53.2025 L 35.0015,53.1322 L 34.9874,53.1322 L 34.9874,53.1041 L 34.9734,53.0901 L 34.9734,53.0760 L 34.9594,53.0620 L 34.9594,53.0479 L 34.9453,53.0479 L 34.9453,53.0198 L 34.9313,53.0198 L 34.8892,52.9776 L 34.8752,52.9776 L 34.8752,52.9636 L 34.8471,52.9636 L 34.8331,52.9495 L 34.7489,52.9495 L 34.7349,52.9636 L 34.7069,52.9636 L 34.7069,52.9776 L 34.6928,52.9776 L 34.6928,52.9917 L 34.6788,52.9917 L 34.6788,53.0057 L 34.6648,53.0057 L 34.6507,53.0198 L 34.6507,53.0339 L 34.6227,53.0620 L 34.6227,53.0760 L 34.6087,53.0901 L 34.6087,53.1322 L 34.5946,53.1322 L 34.5946,53.1885 L 34.5946,53.2025 " stroke="#000000" stroke-width="0.1199" stroke-linecap="round" stroke-linejoin="round" fill="none"/>
        <path d="M 34.9173,53.1885 L 34.9173,53.1463 L 34.9033,53.1322 L 34.9033,53.1041 L 34.8892,53.1041 L 34.8892,53.0901 L 34.8471,53.0479 L 34.8331,53.0479 L 34.8191,53.0339 L 34.7630,53.0339 L 34.7489,53.0479 L 34.7349,53.0479 L 34.6928,53.0901 L 34.6928,53.1041 L 34.6788,53.1041 L 34.6788,53.1322 L 34.6648,53.1463 L 34.6648,53.1744 L 34.6648,53.1885 " stroke="#000000" stroke-width="0.1199" stroke-linecap="round" stroke-linejoin="round" fill="none"/>
        <path d="M 34.8612,53.2025 L 34.8612,53.1744 L 34.8471,53.1604 L 34.8471,53.1463 L 34.8331,53.1463 L 34.8331,53.1322 L 34.8191,53.1322 L 34.8191,53.1182 L 34.7770,53.1182 L 34.7630,53.1322 L 34.7489,53.1322 L 34.7489,53.1463 L 34.7349,53.1463 L 34.7349,53.1744 L 34.7209,53.1744 L 34.7209,53.1885 L 34.7209,53.2025 " stroke="#000000" stroke-width="0.1199" stroke-linecap="round" stroke-linejoin="round" fill="none"/>
        <path d="M 38.2281,53.2025 L 38.2281,53.1322 L 38.2140,53.1322 L 38.2140,53.1041 L 38.2000,53.0901 L 38.2000,53.0760 L 38.1860,53.0620 L 38.1860,53.0479 L 38.1719,53.0479 L 38.1719,53.0198 L 38.1579,53.0198 L 38.1158,52.9776 L 38.1018,52.9776 L 38.1018,52.9636 L 38.0737,52.9636 L 38.0597,52.9495 L 37.9755,52.9495 L 37.9615,52.9636 L 37.9334,52.9636 L 37.9334,52.9776 L 37.9194,52.9776 L 37.9194,52.9917 L 37.9054,52.9917 L 37.9054,53.0057 L 37.8914,53.0057 L 37.8773,53.0198 L 37.8773,53.0339 L 37.8493,53.0620 L 37.8493,53.0760 L 37.8352,53.0901 L 37.8352,53.1322 L 37.8212,53.1322 L 37.8212,53.1885 L 37.8212,53.2025 " stroke="#000000" stroke-width="0.1199" stroke-linecap="round" stroke-linejoin="round" fill="none"/>
        <path d="M 38.1439,53.1885 L 38.1439,53.1463 L 38.1299,53.1322 L 38.1299,53.1041 L 38.1158,53.1041 L 38.1158,53.0901 L 38.0737,53.0479 L 38.0597,53.0479 L 38.0457,53.0339 L 37.9896,53.0339 L 37.9755,53.0479 L 37.9615,53.0479 L 37.9194,53.0901 L 37.9194,53.1041 L 37.9054,53.1041 L 37.9054,53.1322 L 37.8914,53.1463 L 37.8914,53.1744 L 37.8914,53.1885 " stroke="#000000" stroke-width="0.1199" stroke-linecap="round" stroke-linejoin="round" fill="none"/>
        <path d="M 38.0878,53.2025 L 38.0878,53.1744 L 38.0737,53.1604 L 38.0737,53.1463 L 38.0597,53.1463 L 38.0597,53.1322 L 38.0457,53.1322 L 38.0457,53.1182 L 38.0036,53.1182 L 37.9896,53.1322 L 37.9755,53.1322 L 37.9755,53.1463 L 37.9615,53.1463 L 37.9615,53.1744 L 37.9475,53.1744 L 37.9475,53.1885 L 37.9475,53.2025 " stroke="#000000" stroke-width="0.1199" stroke-linecap="round" stroke-linejoin="round" fill="none"/>
        <path d="M 20.2854,28.1826 L 20.2433,28.1826 L 20.2433,28.1685 L 20.2153,28.1685 L 20.2153,28.1545 L 20.2012,28.1545 L 20.1732,28.1264 L 20.1732,28.1123 L 20.1592,28.1123 L 20.1592,28.0842 L 20.1451,28.0842 L 20.1451,26.0320 L 20.1592,26.0320 L 20.1592,26.0039 L 20.1732,26.0039 L 20.1732,25.9898 L 20.2012,25.9617 L 20.2153,25.9617 L 20.2153,25.9477 L 20.2433,25.9477 L 20.2433,25.9336 L 22.6563,25.9336 L 22.6563,25.9477 L 22.6843,25.9477 L 22.6843,25.9617 L 22.6983,25.9617 L 22.7264,25.9898 L 22.7264,26.0039 L 22.7404,26.0039 L 22.7404,26.0320 L 22.7545,26.0320 L 22.7545,26.4537 L 22.7404,26.4396 L 22.7404,26.4256 L 22.7264,26.4256 L 22.7264,26.4115 L 22.7124,26.4115 L 22.7124,26.3974 L 22.6983,26.3974 L 22.6983,26.3834 L 22.6703,26.3834 L 22.6563,26.3693 L 20.7343,26.3693 L 20.7343,26.3834 L 20.7063,26.3834 L 20.7063,26.3974 L 20.6922,26.3974 L 20.6922,26.4115 L 20.6782,26.4115 L 20.6782,26.4396 L 20.6642,26.4396 L 20.6642,28.0982 L 20.6782,28.1123 L 20.6782,28.1404 L 20.6922,28.1404 L 20.6922,28.1545 L 20.7063,28.1545 L 20.7063,28.1685 L 20.7203,28.1685 L 20.7203,28.1826 L 20.2994,28.1826 L 20.2854,28.1826 Z" stroke="#000000" stroke-width="0.1199" stroke-linecap="round" stroke-linejoin="round" fill="#000000"/>
        <path d="M 22.5721,26.8894 L 20.8466,26.8894 L 20.8325,26.8754 L 20.8185,26.8754 L 20.7764,26.8332 L 20.7764,26.8191 L 20.7624,26.8051 L 20.7624,27.2549 L 20.7764,27.2549 L 20.7764,27.2830 L 20.7904,27.2830 L 20.8185,27.3111 L 20.8325,27.3111 L 20.8466,27.3252 L 22.6142,27.3252 L 22.6282,27.3111 L 22.6563,27.2970 L 22.6983,27.2549 L 22.6983,27.2408 L 22.7124,27.2268 L 22.7264,27.1986 L 22.7264,27.1846 L 22.7404,27.1705 L 22.7404,27.1143 L 22.7545,27.1003 L 22.7404,27.0862 L 22.7404,27.0300 L 22.7264,27.0019 L 22.7264,26.9878 L 22.7124,26.9878 L 22.6843,26.9597 L 22.6843,26.9456 L 22.6563,26.9175 L 22.6422,26.9175 L 22.6282,26.9035 L 22.6142,26.9035 L 22.5861,26.8894 L 22.5721,26.8894 Z" stroke="#000000" stroke-width="0.1199" stroke-linecap="round" stroke-linejoin="round" fill="#000000"/>
        <path d="M 26.6264,27.3252 L 26.5983,27.3252 L 26.5983,27.3111 L 26.5702,27.3111 L 26.5702,27.2970 L 26.5562,27.2970 L 26.5562,27.2830 L 26.5422,27.2830 L 26.5422,27.2549 L 26.5282,27.2549 L 26.5282,26.8051 L 26.5422,26.8191 L 26.5422,26.8332 L 26.5702,26.8613 L 26.5843,26.8613 L 26.5983,26.8754 L 28.0012,26.8754 L 28.0012,26.3693 L 26.5001,26.3693 L 26.4861,26.3834 L 26.4720,26.3834 L 26.4580,26.3974 L 26.4580,26.4115 L 26.4440,26.4115 L 26.4300,26.4256 L 26.4300,26.4396 L 26.4159,26.4537 L 26.4159,28.0982 L 26.4300,28.0982 L 26.4300,28.1264 L 26.4440,28.1404 L 26.4440,28.1545 L 26.4580,28.1545 L 26.4580,28.1685 L 26.4720,28.1685 L 26.4720,28.1826 L 26.0091,28.1826 L 26.0091,28.1685 L 25.9810,28.1685 L 25.9810,28.1545 L 25.9670,28.1545 L 25.9390,28.1264 L 25.9390,28.1123 L 25.9249,28.1123 L 25.9249,28.0842 L 25.9109,28.0842 L 25.9109,26.0320 L 25.9249,26.0320 L 25.9249,26.0039 L 25.9390,26.0039 L 25.9390,25.9898 L 25.9670,25.9617 L 25.9810,25.9617 L 25.9810,25.9477 L 26.0091,25.9477 L 26.0091,25.9336 L 28.4080,25.9336 L 28.4080,25.9477 L 28.4361,25.9477 L 28.4361,25.9617 L 28.4501,25.9617 L 28.4781,25.9898 L 28.4781,26.0039 L 28.4922,26.0039 L 28.4922,26.0320 L 28.5062,26.0320 L 28.5062,27.1424 L 28.4922,27.1565 L 28.4922,27.1846 L 28.4781,27.1846 L 28.4781,27.2127 L 28.4641,27.2127 L 28.4641,27.2268 L 28.4361,27.2549 L 28.4361,27.2689 L 28.4220,27.2689 L 28.4220,27.2830 L 28.4080,27.2830 L 28.4080,27.2970 L 28.3940,27.2970 L 28.3659,27.3252 L 28.3940,27.3533 L 28.4080,27.3533 L 28.4080,27.3673 L 28.4220,27.3673 L 28.4220,27.3814 L 28.4361,27.3814 L 28.4361,27.3954 L 28.4641,27.4235 L 28.4641,27.4376 L 28.4781,27.4376 L 28.4781,27.4657 L 28.4922,27.4657 L 28.4922,27.4938 L 28.5062,27.5079 L 28.5062,28.0982 L 28.5202,28.0982 L 28.5202,28.1264 L 28.5343,28.1404 L 28.5343,28.1545 L 28.5483,28.1545 L 28.5483,28.1685 L 28.5623,28.1685 L 28.5623,28.1826 L 28.0994,28.1826 L 28.0994,28.1685 L 28.0713,28.1685 L 28.0713,28.1545 L 28.0573,28.1545 L 28.0292,28.1264 L 28.0292,28.1123 L 28.0152,28.1123 L 28.0152,28.0842 L 28.0012,28.0842 L 28.0012,27.3252 L 26.6404,27.3252 L 26.6264,27.3252 Z" stroke="#000000" stroke-width="0.1199" stroke-linecap="round" stroke-linejoin="round" fill="#000000"/>
        <path d="M 29.4040,26.3693 L 28.8709,26.3693 L 28.8709,26.3553 L 28.8429,26.3553 L 28.8429,26.3412 L 28.8289,26.3412 L 28.8008,26.3131 L 28.8008,26.2991 L 28.7868,26.2991 L 28.7868,26.2709 L 28.7727,26.2709 L 28.7727,26.0320 L 28.7868,26.0320 L 28.7868,26.0039 L 28.8008,26.0039 L 28.8008,25.9898 L 28.8289,25.9617 L 28.8429,25.9617 L 28.8429,25.9477 L 28.8709,25.9477 L 28.8709,25.9336 L 31.2839,25.9336 L 31.2839,25.9477 L 31.3119,25.9477 L 31.3119,25.9617 L 31.3260,25.9617 L 31.3540,25.9898 L 31.3540,26.0039 L 31.3680,26.0039 L 31.3680,26.0320 L 31.3821,26.0320 L 31.3821,26.4537 L 31.3680,26.4396 L 31.3680,26.4256 L 31.3540,26.4256 L 31.3540,26.4115 L 31.3400,26.4115 L 31.3400,26.3974 L 31.3260,26.3974 L 31.3260,26.3834 L 31.2979,26.3834 L 31.2839,26.3693 L 29.9932,26.3693 L 29.9932,26.3834 L 29.9652,26.3834 L 29.9652,26.3974 L 29.9512,26.3974 L 29.9512,26.4115 L 29.9371,26.4115 L 29.9371,26.4396 L 29.9231,26.4396 L 29.9231,28.0982 L 29.9371,28.1123 L 29.9371,28.1404 L 29.9512,28.1404 L 29.9512,28.1545 L 29.9652,28.1545 L 29.9652,28.1685 L 29.9792,28.1685 L 29.9792,28.1826 L 29.5022,28.1826 L 29.5022,28.1685 L 29.4742,28.1685 L 29.4742,28.1545 L 29.4601,28.1545 L 29.4321,28.1264 L 29.4321,28.1123 L 29.4181,28.1123 L 29.4181,28.0842 L 29.4040,28.0842 L 29.4040,26.4256 L 29.4040,26.3693 Z" stroke="#000000" stroke-width="0.1199" stroke-linecap="round" stroke-linejoin="round" fill="#000000"/>
        <path d="M 32.1817,28.0561 L 32.1817,28.0982 L 32.1957,28.1123 L 32.1957,28.1404 L 32.2098,28.1404 L 32.2098,28.1545 L 32.2238,28.1545 L 32.2238,28.1685 L 32.2378,28.1685 L 32.2378,28.1826 L 31.7608,28.1826 L 31.7608,28.1685 L 31.7328,28.1685 L 31.7328,28.1545 L 31.7188,28.1545 L 31.6907,28.1264 L 31.6907,28.1123 L 31.6767,28.1123 L 31.6767,28.0842 L 31.6626,28.0842 L 31.6626,26.0179 L 31.6486,26.0039 L 31.6486,25.9758 L 31.6346,25.9758 L 31.6346,25.9617 L 31.6206,25.9617 L 31.6206,25.9477 L 31.6065,25.9477 L 31.6065,25.9336 L 32.0835,25.9336 L 32.0835,25.9477 L 32.1116,25.9477 L 32.1116,25.9617 L 32.1256,25.9617 L 32.1536,25.9898 L 32.1536,26.0039 L 32.1677,26.0039 L 32.1677,26.0320 L 32.1817,26.0320 L 32.1817,28.0280 L 32.1817,28.0561 Z" stroke="#000000" stroke-width="0.1199" stroke-linecap="round" stroke-linejoin="round" fill="#000000"/>
        <path d="M 34.6648,26.3693 L 33.1637,26.3693 L 33.1497,26.3834 L 33.1357,26.3834 L 33.1216,26.3974 L 33.1216,26.4115 L 33.1076,26.4115 L 33.0936,26.4256 L 33.0936,26.4396 L 33.0795,26.4537 L 33.0795,28.0982 L 33.0936,28.0982 L 33.0936,28.1264 L 33.1076,28.1404 L 33.1076,28.1545 L 33.1216,28.1545 L 33.1216,28.1685 L 33.1357,28.1685 L 33.1357,28.1826 L 32.6727,28.1826 L 32.6727,28.1685 L 32.6447,28.1685 L 32.6447,28.1545 L 32.6306,28.1545 L 32.6026,28.1264 L 32.6026,28.1123 L 32.5885,28.1123 L 32.5885,28.0842 L 32.5745,28.0842 L 32.5745,26.0320 L 32.5885,26.0320 L 32.5885,26.0039 L 32.6026,26.0039 L 32.6026,25.9898 L 32.6306,25.9617 L 32.6447,25.9617 L 32.6447,25.9477 L 32.6727,25.9477 L 32.6727,25.9336 L 35.0716,25.9336 L 35.0716,25.9477 L 35.0997,25.9477 L 35.0997,25.9617 L 35.1137,25.9617 L 35.1417,25.9898 L 35.1417,26.0039 L 35.1558,26.0039 L 35.1558,26.0320 L 35.1698,26.0320 L 35.1698,28.0982 L 35.1838,28.0982 L 35.1838,28.1264 L 35.1979,28.1404 L 35.1979,28.1545 L 35.2119,28.1545 L 35.2119,28.1685 L 35.2259,28.1685 L 35.2259,28.1826 L 34.7630,28.1826 L 34.7630,28.1685 L 34.7349,28.1685 L 34.7349,28.1545 L 34.7209,28.1545 L 34.6928,28.1264 L 34.6928,28.1123 L 34.6788,28.1123 L 34.6788,28.0842 L 34.6648,28.0842 L 34.6648,26.4256 L 34.6648,26.3693 Z" stroke="#000000" stroke-width="0.1199" stroke-linecap="round" stroke-linejoin="round" fill="#000000"/>
        <path d="M 37.7511,26.8894 L 36.1238,26.8894 L 36.1238,26.8754 L 36.0957,26.8754 L 36.0957,26.8613 L 36.0817,26.8613 L 36.0817,26.8472 L 36.0676,26.8332 L 36.0676,26.8191 L 36.0536,26.8051 L 36.0536,27.2549 L 36.0676,27.2549 L 36.0676,27.2830 L 36.0817,27.2830 L 36.0817,27.2970 L 36.0957,27.2970 L 36.0957,27.3111 L 36.1238,27.3111 L 36.1238,27.3252 L 37.7651,27.3252 L 37.7791,27.3111 L 37.8072,27.2970 L 37.8633,27.2408 L 37.8633,27.2268 L 37.8773,27.1986 L 37.8773,27.1846 L 37.8914,27.1705 L 37.8914,27.1424 L 37.9054,27.1143 L 37.9054,27.0721 L 37.8914,27.0581 L 37.8914,27.0019 L 37.8493,26.9597 L 37.8493,26.9456 L 37.8212,26.9175 L 37.8072,26.9175 L 37.7932,26.9035 L 37.7791,26.9035 L 37.7651,26.8894 L 37.7511,26.8894 Z" stroke="#000000" stroke-width="0.1199" stroke-linecap="round" stroke-linejoin="round" fill="#000000"/>
        <path d="M 38.9575,26.3693 L 38.4245,26.3693 L 38.4245,26.3553 L 38.3964,26.3553 L 38.3964,26.3412 L 38.3824,26.3412 L 38.3543,26.3131 L 38.3543,26.2991 L 38.3403,26.2991 L 38.3403,26.2709 L 38.3263,26.2709 L 38.3263,26.0320 L 38.3403,26.0320 L 38.3403,26.0039 L 38.3543,26.0039 L 38.3543,25.9898 L 38.3824,25.9617 L 38.3964,25.9617 L 38.3964,25.9477 L 38.4245,25.9477 L 38.4245,25.9336 L 40.8374,25.9336 L 40.8374,25.9477 L 40.8654,25.9477 L 40.8654,25.9617 L 40.8795,25.9617 L 40.9075,25.9898 L 40.9075,26.0039 L 40.9216,26.0039 L 40.9216,26.0320 L 40.9356,26.0320 L 40.9356,26.4537 L 40.9216,26.4396 L 40.9216,26.4256 L 40.9075,26.4256 L 40.9075,26.4115 L 40.8935,26.4115 L 40.8935,26.3974 L 40.8795,26.3974 L 40.8795,26.3834 L 40.8514,26.3834 L 40.8374,26.3693 L 39.5467,26.3693 L 39.5467,26.3834 L 39.5187,26.3834 L 39.5187,26.3974 L 39.5047,26.3974 L 39.5047,26.4115 L 39.4906,26.4115 L 39.4906,26.4396 L 39.4766,26.4396 L 39.4766,28.0982 L 39.4906,28.1123 L 39.4906,28.1404 L 39.5047,28.1404 L 39.5047,28.1545 L 39.5187,28.1545 L 39.5187,28.1685 L 39.5327,28.1685 L 39.5327,28.1826 L 39.0557,28.1826 L 39.0557,28.1685 L 39.0277,28.1685 L 39.0277,28.1545 L 39.0137,28.1545 L 38.9856,28.1264 L 38.9856,28.1123 L 38.9716,28.1123 L 38.9716,28.0842 L 38.9575,28.0842 L 38.9575,26.4256 L 38.9575,26.3693 Z" stroke="#000000" stroke-width="0.1199" stroke-linecap="round" stroke-linejoin="round" fill="#000000"/>
        <path d="M 37.9334,27.7468 L 37.9615,27.7468 L 37.9755,27.7328 L 38.0036,27.7328 L 38.0036,27.7187 L 38.0176,27.7187 L 38.0176,27.7047 L 38.0316,27.7047 L 38.0316,27.6906 L 38.0457,27.6906 L 38.0457,27.6766 L 38.0597,27.6625 L 38.0597,28.0842 L 38.0457,28.0842 L 38.0457,28.1123 L 38.0316,28.1123 L 38.0316,28.1264 L 38.0036,28.1545 L 37.9896,28.1545 L 37.9896,28.1685 L 37.9615,28.1685 L 37.9615,28.1826 L 35.5486,28.1826 L 35.5486,28.1685 L 35.5205,28.1685 L 35.5205,28.1545 L 35.5065,28.1545 L 35.4784,28.1264 L 35.4784,28.1123 L 35.4644,28.1123 L 35.4644,28.0842 L 35.4504,28.0842 L 35.4504,26.0320 L 35.4644,26.0320 L 35.4644,26.0039 L 35.4784,26.0039 L 35.4784,25.9898 L 35.5065,25.9617 L 35.5205,25.9617 L 35.5205,25.9477 L 35.5486,25.9477 L 35.5486,25.9336 L 37.9615,25.9336 L 37.9615,25.9477 L 37.9896,25.9477 L 37.9896,25.9617 L 38.0036,25.9617 L 38.0316,25.9898 L 38.0316,26.0039 L 38.0457,26.0039 L 38.0457,26.0320 L 38.0597,26.0320 L 38.0597,26.4537 L 38.0457,26.4396 L 38.0457,26.4256 L 38.0316,26.4256 L 38.0316,26.4115 L 38.0176,26.4115 L 38.0176,26.3974 L 38.0036,26.3974 L 38.0036,26.3834 L 37.9755,26.3834 L 37.9615,26.3693 L 36.0396,26.3693 L 36.0396,26.3834 L 36.0115,26.3834 L 36.0115,26.3974 L 35.9975,26.3974 L 35.9975,26.4115 L 35.9835,26.4115 L 35.9835,26.4396 L 35.9694,26.4396 L 35.9694,27.7468 L 37.9054,27.7468 L 37.9334,27.7468 Z" stroke="#000000" stroke-width="0.1199" stroke-linecap="round" stroke-linejoin="round" fill="#000000"/>
        <path d="M 23.9048,27.5219 L 23.9048,28.1826 L 24.7465,28.1826 L 24.7465,27.5219 L 23.9048,27.5219 Z" stroke="#000000" stroke-width="0.1199" stroke-linecap="round" stroke-linejoin="round" fill="#000000"/>
        <path d="M 23.0350,26.7348 L 23.7505,26.7348 L 23.7505,27.3814 L 23.0350,27.3814 L 23.0350,26.7348 Z" stroke="#000000" stroke-width="0.1199" stroke-linecap="round" stroke-linejoin="round" fill="#000000"/>
        <path d="M 24.9149,27.5360 L 24.9149,28.1966 L 25.1393,28.1966 L 25.1674,28.1826 L 25.2375,28.1826 L 25.2936,28.1545 L 25.3217,28.1545 L 25.4059,28.1123 L 25.4480,28.0701 L 25.4760,28.0561 L 25.5041,27.9999 L 25.5321,27.9717 L 25.5462,27.9436 L 25.5602,27.9015 L 25.5742,27.8733 L 25.6163,27.7468 L 25.6163,27.7047 L 25.6303,27.6484 L 25.6303,27.5360 L 24.9289,27.5360 L 24.9149,27.5360 Z" stroke="#000000" stroke-width="0.1199" stroke-linecap="round" stroke-linejoin="round" fill="#000000"/>
        <path d="M 24.9149,26.7348 L 25.6303,26.7348 L 25.6303,27.3814 L 24.9149,27.3814 L 24.9149,26.7348 Z" stroke="#000000" stroke-width="0.1199" stroke-linecap="round" stroke-linejoin="round" fill="#000000"/>
        <path d="M 23.7505,27.5360 L 23.7505,28.1966 L 23.5260,28.1966 L 23.4980,28.1826 L 23.4278,28.1826 L 23.3717,28.1545 L 23.3437,28.1545 L 23.2875,28.1264 L 23.2735,28.1123 L 23.2455,28.0982 L 23.2174,28.0701 L 23.1893,28.0561 L 23.1613,27.9999 L 23.1332,27.9717 L 23.1192,27.9436 L 23.1052,27.9015 L 23.0911,27.8733 L 23.0491,27.7468 L 23.0491,27.7047 L 23.0350,27.6484 L 23.0350,27.5360 L 23.7365,27.5360 L 23.7505,27.5360 Z" stroke="#000000" stroke-width="0.1199" stroke-linecap="round" stroke-linejoin="round" fill="#000000"/>
        <path d="M 23.9048,25.9195 L 23.9048,26.5802 L 24.7465,26.5802 L 24.7465,25.9195 L 23.9048,25.9195 Z" stroke="#000000" stroke-width="0.1199" stroke-linecap="round" stroke-linejoin="round" fill="#000000"/>
        <path d="M 24.9149,26.5802 L 24.9149,25.9195 L 25.1393,25.9195 L 25.1674,25.9336 L 25.2375,25.9336 L 25.2936,25.9617 L 25.3217,25.9617 L 25.4059,26.0039 L 25.4480,26.0460 L 25.4760,26.0601 L 25.5041,26.1163 L 25.5321,26.1444 L 25.5462,26.1726 L 25.5602,26.2147 L 25.5742,26.2428 L 25.6163,26.3693 L 25.6163,26.4115 L 25.6303,26.4677 L 25.6303,26.5802 L 24.9289,26.5802 L 24.9149,26.5802 Z" stroke="#000000" stroke-width="0.1199" stroke-linecap="round" stroke-linejoin="round" fill="#000000"/>
        <path d="M 23.7505,26.5802 L 23.7505,25.9195 L 23.5260,25.9195 L 23.4980,25.9336 L 23.4278,25.9336 L 23.3717,25.9617 L 23.3437,25.9617 L 23.2875,25.9898 L 23.2735,26.0039 L 23.2455,26.0179 L 23.2174,26.0460 L 23.1893,26.0601 L 23.1613,26.1163 L 23.1332,26.1444 L 23.1192,26.1726 L 23.1052,26.2147 L 23.0911,26.2428 L 23.0491,26.3693 L 23.0491,26.4115 L 23.0350,26.4677 L 23.0350,26.5802 L 23.7365,26.5802 L 23.7505,26.5802 Z" stroke="#000000" stroke-width="0.1199" stroke-linecap="round" stroke-linejoin="round" fill="#000000"/>
        <text font-family="Arial" fill="#000000" style="white-space:pre;" text-anchor="start" x="23.4278" y="32.0761" font-size="2.3849"><![CDATA[F]]></text>
        <text font-family="Arial" fill="#000000" style="white-space:pre;" text-anchor="start" x="24.8868" y="32.0761" font-size="2.3849"><![CDATA[o]]></text>
        <text font-family="Arial" fill="#000000" style="white-space:pre;" text-anchor="start" x="26.2195" y="32.0761" font-size="2.3849"><![CDATA[r]]></text>
        <text font-family="Arial" fill="#000000" style="white-space:pre;" text-anchor="start" x="27.0192" y="32.0761" font-size="2.3849"><![CDATA[t]]></text>
        <text font-family="Arial" fill="#000000" style="white-space:pre;" text-anchor="start" x="27.6785" y="32.0761" font-size="2.3849"><![CDATA[i]]></text>
        <text font-family="Arial" fill="#000000" style="white-space:pre;" text-anchor="start" x="28.2116" y="32.0761" font-size="2.3849"><![CDATA[A]]></text>
        <text font-family="Arial" fill="#000000" style="white-space:pre;" text-anchor="start" x="29.8109" y="32.0761" font-size="2.3849"><![CDATA[P]]></text>
        <text font-family="Arial" fill="#000000" style="white-space:pre;" text-anchor="start" x="31.4101" y="32.0761" font-size="2.3849"><![CDATA[ ]]></text>
        <text font-family="Arial" fill="#000000" style="white-space:pre;" text-anchor="start" x="32.0695" y="32.0761" font-size="2.3849"><![CDATA[4]]></text>
        <text font-family="Arial" fill="#000000" style="white-space:pre;" text-anchor="start" x="33.4022" y="32.0761" font-size="2.3849"><![CDATA[2]]></text>
        <text font-family="Arial" fill="#000000" style="white-space:pre;" text-anchor="start" x="34.7349" y="32.0761" font-size="2.3849"><![CDATA[1]]></text>
        <text font-family="Arial" fill="#000000" style="white-space:pre;" text-anchor="start" x="36.0676" y="32.0761" font-size="2.3849"><![CDATA[E]]></text>
        <text font-family="Symbol" fill="#000000" style="white-space:pre;" text-anchor="start" x="40.1780" y="28.1545" font-size="0.7856"><![CDATA[]]></text>
      </g>
      <!--emf-blob end-->
    </g>
  </g>
</svg>
