<svg xmlns="http://www.w3.org/2000/svg" xmlns:xlink="http://www.w3.org/1999/xlink" version="1.1" width="2.7528000000" height="2.7432000000" viewBox="0 0 49.5496 49.3795">
  <title><![CDATA[FAP-231K]]></title>
  <g transform=" scale(4.000000) ">
    <!--converted by libvisio2svg-->
    <g transform=" translate(0.000000,0.000000) ">
      <!--emf-blob start-->
      <g transform="translate(-0.0000, -0.0000)">
        <path d="M 49.4934,8.6930 L 49.4934,8.6790 L 49.4934,8.6510 L 49.4794,8.5950 L 49.4794,8.5111 L 49.4794,8.4271 L 49.4653,8.3151 L 49.4513,8.1891 L 49.4513,8.0631 L 49.4372,7.9091 L 49.4232,7.7551 L 49.4091,7.5732 L 49.3951,7.4052 L 49.3810,7.2232 L 49.3670,7.0412 L 49.3529,6.8452 L 49.3529,6.6633 L 49.3389,6.4673 L 49.3248,6.2713 L 49.3108,6.0893 L 49.2967,5.9073 L 49.2827,5.7394 L 49.2686,5.5574 L 49.2546,5.4034 L 49.2405,5.2494 L 49.2405,5.1234 L 49.2265,4.9974 L 49.2124,4.8855 L 49.2124,4.8015 L 49.2124,4.7175 L 49.1984,4.6615 L 49.1984,4.6335 L 49.1984,4.6195 L 49.1141,4.3395 L 49.0298,4.0875 L 48.9455,3.8216 L 48.8612,3.5836 L 48.7629,3.3456 L 48.6786,3.1077 L 48.5802,2.8977 L 48.4819,2.6877 L 48.3695,2.4777 L 48.2571,2.2817 L 48.1447,2.0998 L 48.0323,1.9178 L 47.8919,1.7498 L 47.7654,1.5958 L 47.6249,1.4418 L 47.4704,1.3019 L 47.3159,1.1619 L 47.1473,1.0359 L 46.9646,0.9099 L 46.7820,0.7979 L 46.5853,0.6859 L 46.3746,0.5879 L 46.1498,0.5039 L 45.9110,0.4200 L 45.6722,0.3500 L 45.4052,0.2800 L 45.1243,0.2240 L 44.8433,0.1680 L 44.5342,0.1260 L 44.2111,0.0840 L 43.8739,0.0560 L 43.5227,0.0280 L 43.4103,0.0280 L 43.1013,0.0280 L 42.5955,0.0280 L 41.9071,0.0280 L 41.0642,0.0280 L 40.0668,0.0280 L 38.9148,0.0280 L 37.6644,0.0280 L 36.2877,0.0280 L 34.8266,0.0280 L 33.2672,0.0280 L 31.6516,0.0280 L 29.9798,0.0280 L 28.2659,0.0280 L 26.5239,0.0280 L 24.7678,0.0280 L 22.9976,0.0280 L 21.2556,0.0280 L 19.5417,0.0280 L 17.8699,0.0280 L 16.2543,0.0280 L 14.6949,0.0280 L 13.2338,0.0280 L 11.8571,0.0280 L 10.6067,0.0280 L 9.4547,0.0280 L 8.4573,0.0280 L 7.6144,0.0280 L 6.9260,0.0280 L 6.4202,0.0280 L 6.1112,0.0280 L 5.9988,0.0280 L 5.6476,0.0560 L 5.3104,0.0840 L 4.9873,0.1260 L 4.6782,0.1680 L 4.3972,0.2240 L 4.1163,0.2800 L 3.8493,0.3500 L 3.6105,0.4200 L 3.3717,0.5039 L 3.1469,0.5879 L 2.9362,0.6859 L 2.7395,0.7979 L 2.5569,0.9099 L 2.3742,1.0359 L 2.2056,1.1619 L 2.0511,1.3019 L 1.8966,1.4418 L 1.7561,1.5958 L 1.6296,1.7498 L 1.4892,1.9178 L 1.3768,2.0998 L 1.2644,2.2817 L 1.1520,2.4777 L 1.0396,2.6877 L 0.9413,2.8977 L 0.8429,3.1077 L 0.7586,3.3456 L 0.6603,3.5836 L 0.5760,3.8216 L 0.4917,4.0875 L 0.4074,4.3395 L 0.3231,4.6195 L 0.3231,4.6335 L 0.3231,4.6615 L 0.3091,4.7175 L 0.3091,4.8015 L 0.3091,4.8855 L 0.2950,4.9974 L 0.2810,5.1234 L 0.2810,5.2494 L 0.2669,5.4034 L 0.2529,5.5574 L 0.2388,5.7394 L 0.2248,5.9073 L 0.2107,6.0893 L 0.1967,6.2713 L 0.1826,6.4673 L 0.1826,6.6633 L 0.1686,6.8452 L 0.1545,7.0412 L 0.1405,7.2232 L 0.1264,7.4052 L 0.1124,7.5732 L 0.0983,7.7551 L 0.0843,7.9091 L 0.0702,8.0631 L 0.0702,8.1891 L 0.0562,8.3151 L 0.0421,8.4271 L 0.0421,8.5111 L 0.0421,8.5950 L 0.0281,8.6510 L 0.0281,8.6790 L 0.0281,8.6930 L 0.0281,8.7910 L 0.0281,9.0430 L 0.0281,9.4769 L 0.0281,10.0649 L 0.0281,10.7788 L 0.0281,11.6187 L 0.0281,12.5846 L 0.0281,13.6625 L 0.0281,14.8244 L 0.0281,16.0562 L 0.0281,17.3721 L 0.0281,18.7439 L 0.0281,20.1718 L 0.0281,21.6136 L 0.0281,23.0974 L 0.0281,24.5813 L 0.0281,26.0651 L 0.0281,27.5489 L 0.0281,28.9908 L 0.0281,30.4186 L 0.0281,31.7905 L 0.0281,33.1063 L 0.0281,34.3382 L 0.0281,35.5001 L 0.0281,36.5779 L 0.0281,37.5438 L 0.0281,38.3837 L 0.0281,39.0977 L 0.0281,39.6856 L 0.0281,40.1196 L 0.0281,40.3715 L 0.0281,40.4695 L 0.0281,40.4835 L 0.0281,40.5115 L 0.0421,40.5675 L 0.0421,40.6515 L 0.0421,40.7355 L 0.0562,40.8475 L 0.0702,40.9735 L 0.0702,41.0994 L 0.0843,41.2534 L 0.0983,41.4074 L 0.1124,41.5894 L 0.1264,41.7574 L 0.1405,41.9393 L 0.1545,42.1213 L 0.1686,42.3173 L 0.1826,42.5133 L 0.1826,42.6953 L 0.1967,42.8912 L 0.2107,43.0732 L 0.2248,43.2552 L 0.2388,43.4232 L 0.2529,43.6052 L 0.2669,43.7591 L 0.2810,43.9131 L 0.2810,44.0391 L 0.2950,44.1651 L 0.3091,44.2771 L 0.3091,44.3611 L 0.3091,44.4451 L 0.3231,44.5011 L 0.3231,44.5291 L 0.3231,44.5431 L 0.4074,44.8230 L 0.4917,45.0750 L 0.5760,45.3410 L 0.6603,45.5789 L 0.7586,45.8169 L 0.8429,46.0549 L 0.9413,46.2649 L 1.0396,46.4748 L 1.1520,46.6848 L 1.2644,46.8808 L 1.3768,47.0628 L 1.4892,47.2448 L 1.6296,47.4127 L 1.7561,47.5667 L 1.8966,47.7207 L 2.0511,47.8747 L 2.2056,48.0007 L 2.3742,48.1267 L 2.5569,48.2526 L 2.7395,48.3646 L 2.9362,48.4766 L 3.1469,48.5746 L 3.3717,48.6586 L 3.6105,48.7426 L 3.8493,48.8126 L 4.1163,48.8826 L 4.3972,48.9386 L 4.6782,48.9946 L 4.9873,49.0366 L 5.3104,49.0786 L 5.6476,49.1066 L 5.9988,49.1346 L 6.1112,49.1346 L 6.4202,49.1346 L 6.9260,49.1346 L 7.6144,49.1346 L 8.4573,49.1346 L 9.4547,49.1346 L 10.6067,49.1346 L 11.8571,49.1346 L 13.2338,49.1346 L 14.6949,49.1346 L 16.2543,49.1346 L 17.8699,49.1346 L 19.5417,49.1346 L 21.2556,49.1346 L 22.9976,49.1346 L 24.7678,49.1346 L 26.5239,49.1346 L 28.2659,49.1346 L 29.9798,49.1346 L 31.6516,49.1346 L 33.2672,49.1346 L 34.8266,49.1346 L 36.2877,49.1346 L 37.6644,49.1346 L 38.9148,49.1346 L 40.0668,49.1346 L 41.0642,49.1346 L 41.9071,49.1346 L 42.5955,49.1346 L 43.1013,49.1346 L 43.4103,49.1346 L 43.5227,49.1346 L 43.8739,49.1066 L 44.2111,49.0786 L 44.5342,49.0366 L 44.8433,48.9946 L 45.1243,48.9386 L 45.4052,48.8826 L 45.6722,48.8126 L 45.9110,48.7426 L 46.1498,48.6586 L 46.3746,48.5746 L 46.5853,48.4766 L 46.7820,48.3646 L 46.9646,48.2526 L 47.1473,48.1267 L 47.3159,48.0007 L 47.4704,47.8747 L 47.6249,47.7207 L 47.7654,47.5667 L 47.8919,47.4127 L 48.0323,47.2448 L 48.1447,47.0628 L 48.2571,46.8808 L 48.3695,46.6848 L 48.4819,46.4748 L 48.5802,46.2649 L 48.6786,46.0549 L 48.7629,45.8169 L 48.8612,45.5789 L 48.9455,45.3410 L 49.0298,45.0750 L 49.1141,44.8230 L 49.1984,44.5431 L 49.1984,44.5291 L 49.1984,44.5011 L 49.2124,44.4451 L 49.2124,44.3611 L 49.2124,44.2771 L 49.2265,44.1651 L 49.2405,44.0391 L 49.2405,43.9131 L 49.2546,43.7591 L 49.2686,43.6052 L 49.2827,43.4232 L 49.2967,43.2552 L 49.3108,43.0732 L 49.3248,42.8912 L 49.3389,42.6953 L 49.3529,42.5133 L 49.3529,42.3173 L 49.3670,42.1213 L 49.3810,41.9393 L 49.3951,41.7574 L 49.4091,41.5894 L 49.4232,41.4074 L 49.4372,41.2534 L 49.4513,41.0994 L 49.4513,40.9735 L 49.4653,40.8475 L 49.4794,40.7355 L 49.4794,40.6515 L 49.4794,40.5675 L 49.4934,40.5115 L 49.4934,40.4835 L 49.4934,40.4695 L 49.4934,40.3715 L 49.4934,40.1196 L 49.4934,39.6856 L 49.4934,39.0977 L 49.4934,38.3837 L 49.4934,37.5438 L 49.4934,36.5779 L 49.4934,35.5001 L 49.4934,34.3382 L 49.4934,33.1063 L 49.4934,31.7905 L 49.4934,30.4186 L 49.4934,28.9908 L 49.4934,27.5489 L 49.4934,26.0651 L 49.4934,24.5813 L 49.4934,23.0974 L 49.4934,21.6136 L 49.4934,20.1718 L 49.4934,18.7439 L 49.4934,17.3721 L 49.4934,16.0562 L 49.4934,14.8244 L 49.4934,13.6625 L 49.4934,12.5846 L 49.4934,11.6187 L 49.4934,10.7788 L 49.4934,10.0649 L 49.4934,9.4769 L 49.4934,9.0430 L 49.4934,8.7910 L 49.4934,8.6930 Z" stroke="#000000" stroke-width="0.1197" stroke-linecap="round" stroke-linejoin="round" fill="#EAEAEA"/>
        <path d="M 49.0017,9.0150 L 49.0017,9.0010 L 49.0017,8.9730 L 48.9877,8.9170 L 48.9877,8.8470 L 48.9877,8.7490 L 48.9736,8.6510 L 48.9596,8.5251 L 48.9596,8.3851 L 48.9455,8.2451 L 48.9315,8.0911 L 48.9174,7.9231 L 48.9034,7.7551 L 48.8893,7.5732 L 48.8753,7.3912 L 48.8612,7.2092 L 48.8612,7.0272 L 48.8472,6.8312 L 48.8331,6.6493 L 48.8191,6.4673 L 48.8050,6.2853 L 48.7910,6.1173 L 48.7769,5.9493 L 48.7629,5.7954 L 48.7488,5.6554 L 48.7488,5.5154 L 48.7348,5.3894 L 48.7207,5.2914 L 48.7207,5.1934 L 48.7207,5.1234 L 48.7067,5.0674 L 48.7067,5.0394 L 48.7067,5.0254 L 48.6224,4.7595 L 48.5381,4.4935 L 48.4538,4.2415 L 48.3695,4.0036 L 48.2852,3.7656 L 48.1869,3.5416 L 48.0885,3.3316 L 48.0042,3.1217 L 47.8919,2.9257 L 47.7935,2.7297 L 47.6811,2.5477 L 47.5547,2.3797 L 47.4283,2.2118 L 47.3018,2.0578 L 47.1613,1.9038 L 47.0208,1.7638 L 46.8663,1.6238 L 46.6977,1.4978 L 46.5151,1.3858 L 46.3325,1.2739 L 46.1358,1.1759 L 45.9391,1.0779 L 45.7143,0.9939 L 45.4895,0.9099 L 45.2507,0.8399 L 44.9838,0.7699 L 44.7169,0.7139 L 44.4359,0.6579 L 44.1409,0.6159 L 43.8177,0.5739 L 43.4946,0.5459 L 43.1434,0.5179 L 43.0310,0.5179 L 42.7360,0.5179 L 42.2303,0.5179 L 41.5700,0.5179 L 40.7270,0.5179 L 39.7436,0.5179 L 38.6338,0.5179 L 37.3975,0.5179 L 36.0488,0.5179 L 34.6159,0.5179 L 33.0986,0.5179 L 31.5111,0.5179 L 29.8674,0.5179 L 28.1956,0.5179 L 26.4817,0.5179 L 24.7678,0.5179 L 23.0398,0.5179 L 21.3259,0.5179 L 19.6541,0.5179 L 18.0104,0.5179 L 16.4229,0.5179 L 14.9056,0.5179 L 13.4727,0.5179 L 12.1240,0.5179 L 10.8877,0.5179 L 9.7779,0.5179 L 8.7945,0.5179 L 7.9515,0.5179 L 7.2913,0.5179 L 6.7855,0.5179 L 6.4905,0.5179 L 6.3781,0.5179 L 6.0269,0.5459 L 5.7038,0.5739 L 5.3806,0.6159 L 5.0856,0.6579 L 4.8046,0.7139 L 4.5377,0.7699 L 4.2708,0.8399 L 4.0320,0.9099 L 3.8072,0.9939 L 3.5824,1.0779 L 3.3857,1.1759 L 3.1890,1.2739 L 3.0064,1.3858 L 2.8238,1.4978 L 2.6552,1.6238 L 2.5007,1.7638 L 2.3602,1.9038 L 2.2197,2.0578 L 2.0932,2.2118 L 1.9668,2.3797 L 1.8404,2.5477 L 1.7280,2.7297 L 1.6296,2.9257 L 1.5173,3.1217 L 1.4330,3.3316 L 1.3346,3.5416 L 1.2363,3.7656 L 1.1520,4.0036 L 1.0677,4.2415 L 0.9834,4.4935 L 0.8991,4.7595 L 0.8148,5.0254 L 0.8148,5.0394 L 0.8148,5.0674 L 0.8008,5.1234 L 0.8008,5.1934 L 0.8008,5.2914 L 0.7867,5.3894 L 0.7727,5.5154 L 0.7727,5.6554 L 0.7586,5.7954 L 0.7446,5.9493 L 0.7305,6.1173 L 0.7165,6.2853 L 0.7024,6.4673 L 0.6884,6.6493 L 0.6743,6.8312 L 0.6743,7.0272 L 0.6603,7.2092 L 0.6462,7.3912 L 0.6322,7.5732 L 0.6181,7.7551 L 0.6041,7.9231 L 0.5900,8.0911 L 0.5760,8.2451 L 0.5619,8.3851 L 0.5619,8.5251 L 0.5479,8.6510 L 0.5338,8.7490 L 0.5338,8.8470 L 0.5338,8.9170 L 0.5198,8.9730 L 0.5198,9.0010 L 0.5198,9.0150 L 0.5198,9.0990 L 0.5198,9.3650 L 0.5198,9.7849 L 0.5198,10.3589 L 0.5198,11.0588 L 0.5198,11.8847 L 0.5198,12.8366 L 0.5198,13.8865 L 0.5198,15.0203 L 0.5198,16.2382 L 0.5198,17.5261 L 0.5198,18.8699 L 0.5198,20.2558 L 0.5198,21.6836 L 0.5198,23.1254 L 0.5198,24.5813 L 0.5198,26.0371 L 0.5198,27.4790 L 0.5198,28.9068 L 0.5198,30.2926 L 0.5198,31.6365 L 0.5198,32.9243 L 0.5198,34.1422 L 0.5198,35.2901 L 0.5198,36.3260 L 0.5198,37.2779 L 0.5198,38.1038 L 0.5198,38.8037 L 0.5198,39.3776 L 0.5198,39.7976 L 0.5198,40.0636 L 0.5198,40.1475 L 0.5198,40.1615 L 0.5198,40.1895 L 0.5338,40.2455 L 0.5338,40.3155 L 0.5338,40.4135 L 0.5479,40.5115 L 0.5619,40.6375 L 0.5619,40.7775 L 0.5760,40.9175 L 0.5900,41.0714 L 0.6041,41.2394 L 0.6181,41.4074 L 0.6322,41.5894 L 0.6462,41.7714 L 0.6603,41.9533 L 0.6743,42.1493 L 0.6743,42.3313 L 0.6884,42.5133 L 0.7024,42.6953 L 0.7165,42.8772 L 0.7305,43.0452 L 0.7446,43.2132 L 0.7586,43.3672 L 0.7727,43.5072 L 0.7727,43.6472 L 0.7867,43.7731 L 0.8008,43.8711 L 0.8008,43.9691 L 0.8008,44.0391 L 0.8148,44.0951 L 0.8148,44.1231 L 0.8148,44.1371 L 0.8991,44.4031 L 0.9834,44.6690 L 1.0677,44.9210 L 1.1520,45.1590 L 1.2363,45.3970 L 1.3346,45.6209 L 1.4330,45.8309 L 1.5173,46.0409 L 1.6296,46.2369 L 1.7280,46.4329 L 1.8404,46.6148 L 1.9668,46.7828 L 2.0932,46.9508 L 2.2197,47.1048 L 2.3602,47.2588 L 2.5007,47.3987 L 2.6552,47.5387 L 2.8238,47.6647 L 3.0064,47.7767 L 3.1890,47.8887 L 3.3857,47.9867 L 3.5824,48.0847 L 3.8072,48.1687 L 4.0320,48.2526 L 4.2708,48.3226 L 4.5377,48.3926 L 4.8046,48.4486 L 5.0856,48.5046 L 5.3806,48.5466 L 5.7038,48.5886 L 6.0269,48.6166 L 6.3781,48.6446 L 6.4905,48.6446 L 6.7855,48.6446 L 7.2913,48.6446 L 7.9515,48.6446 L 8.7945,48.6446 L 9.7779,48.6446 L 10.8877,48.6446 L 12.1240,48.6446 L 13.4727,48.6446 L 14.9056,48.6446 L 16.4229,48.6446 L 18.0104,48.6446 L 19.6541,48.6446 L 21.3259,48.6446 L 23.0398,48.6446 L 24.7678,48.6446 L 26.4817,48.6446 L 28.1956,48.6446 L 29.8674,48.6446 L 31.5111,48.6446 L 33.0986,48.6446 L 34.6159,48.6446 L 36.0488,48.6446 L 37.3975,48.6446 L 38.6338,48.6446 L 39.7436,48.6446 L 40.7270,48.6446 L 41.5700,48.6446 L 42.2303,48.6446 L 42.7360,48.6446 L 43.0310,48.6446 L 43.1434,48.6446 L 43.4946,48.6166 L 43.8177,48.5886 L 44.1409,48.5466 L 44.4359,48.5046 L 44.7169,48.4486 L 44.9838,48.3926 L 45.2507,48.3226 L 45.4895,48.2526 L 45.7143,48.1687 L 45.9391,48.0847 L 46.1358,47.9867 L 46.3325,47.8887 L 46.5151,47.7767 L 46.6977,47.6647 L 46.8663,47.5387 L 47.0208,47.3987 L 47.1613,47.2588 L 47.3018,47.1048 L 47.4283,46.9508 L 47.5547,46.7828 L 47.6811,46.6148 L 47.7935,46.4329 L 47.8919,46.2369 L 48.0042,46.0409 L 48.0885,45.8309 L 48.1869,45.6209 L 48.2852,45.3970 L 48.3695,45.1590 L 48.4538,44.9210 L 48.5381,44.6690 L 48.6224,44.4031 L 48.7067,44.1371 L 48.7067,44.1231 L 48.7067,44.0951 L 48.7207,44.0391 L 48.7207,43.9691 L 48.7207,43.8711 L 48.7348,43.7731 L 48.7488,43.6472 L 48.7488,43.5072 L 48.7629,43.3672 L 48.7769,43.2132 L 48.7910,43.0452 L 48.8050,42.8772 L 48.8191,42.6953 L 48.8331,42.5133 L 48.8472,42.3313 L 48.8612,42.1493 L 48.8612,41.9533 L 48.8753,41.7714 L 48.8893,41.5894 L 48.9034,41.4074 L 48.9174,41.2394 L 48.9315,41.0714 L 48.9455,40.9175 L 48.9596,40.7775 L 48.9596,40.6375 L 48.9736,40.5115 L 48.9877,40.4135 L 48.9877,40.3155 L 48.9877,40.2455 L 49.0017,40.1895 L 49.0017,40.1615 L 49.0017,40.1475 L 49.0017,40.0636 L 49.0017,39.7976 L 49.0017,39.3776 L 49.0017,38.8037 L 49.0017,38.1038 L 49.0017,37.2779 L 49.0017,36.3260 L 49.0017,35.2901 L 49.0017,34.1422 L 49.0017,32.9243 L 49.0017,31.6365 L 49.0017,30.2926 L 49.0017,28.9068 L 49.0017,27.4790 L 49.0017,26.0371 L 49.0017,24.5813 L 49.0017,23.1254 L 49.0017,21.6836 L 49.0017,20.2558 L 49.0017,18.8699 L 49.0017,17.5261 L 49.0017,16.2382 L 49.0017,15.0203 L 49.0017,13.8865 L 49.0017,12.8366 L 49.0017,11.8847 L 49.0017,11.0588 L 49.0017,10.3589 L 49.0017,9.7849 L 49.0017,9.3650 L 49.0017,9.0990 L 49.0017,9.0150 Z" stroke="#EFEFEF" stroke-width="0.1197" stroke-linecap="round" stroke-linejoin="round" fill="#EFEFEF"/>
        <path d="M 49.4934,8.6930 L 49.4934,8.6790 L 49.4934,8.6510 L 49.4794,8.5950 L 49.4794,8.5111 L 49.4794,8.4271 L 49.4653,8.3151 L 49.4513,8.1891 L 49.4513,8.0631 L 49.4372,7.9091 L 49.4232,7.7551 L 49.4091,7.5732 L 49.3951,7.4052 L 49.3810,7.2232 L 49.3670,7.0412 L 49.3529,6.8452 L 49.3529,6.6633 L 49.3389,6.4673 L 49.3248,6.2713 L 49.3108,6.0893 L 49.2967,5.9073 L 49.2827,5.7394 L 49.2686,5.5574 L 49.2546,5.4034 L 49.2405,5.2494 L 49.2405,5.1234 L 49.2265,4.9974 L 49.2124,4.8855 L 49.2124,4.8015 L 49.2124,4.7175 L 49.1984,4.6615 L 49.1984,4.6335 L 49.1984,4.6195 L 49.1141,4.3395 L 49.0298,4.0875 L 48.9455,3.8216 L 48.8612,3.5836 L 48.7629,3.3456 L 48.6786,3.1077 L 48.5802,2.8977 L 48.4819,2.6877 L 48.3695,2.4777 L 48.2571,2.2817 L 48.1447,2.0998 L 48.0323,1.9178 L 47.8919,1.7498 L 47.7654,1.5958 L 47.6249,1.4418 L 47.4704,1.3019 L 47.3159,1.1619 L 47.1473,1.0359 L 46.9646,0.9099 L 46.7820,0.7979 L 46.5853,0.6859 L 46.3746,0.5879 L 46.1498,0.5039 L 45.9110,0.4200 L 45.6722,0.3500 L 45.4052,0.2800 L 45.1243,0.2240 L 44.8433,0.1680 L 44.5342,0.1260 L 44.2111,0.0840 L 43.8739,0.0560 L 43.5227,0.0280 L 43.4103,0.0280 L 43.1013,0.0280 L 42.5955,0.0280 L 41.9071,0.0280 L 41.0642,0.0280 L 40.0668,0.0280 L 38.9148,0.0280 L 37.6644,0.0280 L 36.2877,0.0280 L 34.8266,0.0280 L 33.2672,0.0280 L 31.6516,0.0280 L 29.9798,0.0280 L 28.2659,0.0280 L 26.5239,0.0280 L 24.7678,0.0280 L 22.9976,0.0280 L 21.2556,0.0280 L 19.5417,0.0280 L 17.8699,0.0280 L 16.2543,0.0280 L 14.6949,0.0280 L 13.2338,0.0280 L 11.8571,0.0280 L 10.6067,0.0280 L 9.4547,0.0280 L 8.4573,0.0280 L 7.6144,0.0280 L 6.9260,0.0280 L 6.4202,0.0280 L 6.1112,0.0280 L 5.9988,0.0280 L 5.6476,0.0560 L 5.3104,0.0840 L 4.9873,0.1260 L 4.6782,0.1680 L 4.3972,0.2240 L 4.1163,0.2800 L 3.8493,0.3500 L 3.6105,0.4200 L 3.3717,0.5039 L 3.1469,0.5879 L 2.9362,0.6859 L 2.7395,0.7979 L 2.5569,0.9099 L 2.3742,1.0359 L 2.2056,1.1619 L 2.0511,1.3019 L 1.8966,1.4418 L 1.7561,1.5958 L 1.6296,1.7498 L 1.4892,1.9178 L 1.3768,2.0998 L 1.2644,2.2817 L 1.1520,2.4777 L 1.0396,2.6877 L 0.9413,2.8977 L 0.8429,3.1077 L 0.7586,3.3456 L 0.6603,3.5836 L 0.5760,3.8216 L 0.4917,4.0875 L 0.4074,4.3395 L 0.3231,4.6195 L 0.3231,4.6335 L 0.3231,4.6615 L 0.3091,4.7175 L 0.3091,4.8015 L 0.3091,4.8855 L 0.2950,4.9974 L 0.2810,5.1234 L 0.2810,5.2494 L 0.2669,5.4034 L 0.2529,5.5574 L 0.2388,5.7394 L 0.2248,5.9073 L 0.2107,6.0893 L 0.1967,6.2713 L 0.1826,6.4673 L 0.1826,6.6633 L 0.1686,6.8452 L 0.1545,7.0412 L 0.1405,7.2232 L 0.1264,7.4052 L 0.1124,7.5732 L 0.0983,7.7551 L 0.0843,7.9091 L 0.0702,8.0631 L 0.0702,8.1891 L 0.0562,8.3151 L 0.0421,8.4271 L 0.0421,8.5111 L 0.0421,8.5950 L 0.0281,8.6510 L 0.0281,8.6790 L 0.0281,8.6930 L 0.0281,8.7910 L 0.0281,9.0430 L 0.0281,9.4769 L 0.0281,10.0649 L 0.0281,10.7788 L 0.0281,11.6187 L 0.0281,12.5846 L 0.0281,13.6625 L 0.0281,14.8244 L 0.0281,16.0562 L 0.0281,17.3721 L 0.0281,18.7439 L 0.0281,20.1718 L 0.0281,21.6136 L 0.0281,23.0974 L 0.0281,24.5813 L 0.0281,26.0651 L 0.0281,27.5489 L 0.0281,28.9908 L 0.0281,30.4186 L 0.0281,31.7905 L 0.0281,33.1063 L 0.0281,34.3382 L 0.0281,35.5001 L 0.0281,36.5779 L 0.0281,37.5438 L 0.0281,38.3837 L 0.0281,39.0977 L 0.0281,39.6856 L 0.0281,40.1196 L 0.0281,40.3715 L 0.0281,40.4695 L 0.0281,40.4835 L 0.0281,40.5115 L 0.0421,40.5675 L 0.0421,40.6515 L 0.0421,40.7355 L 0.0562,40.8475 L 0.0702,40.9735 L 0.0702,41.0994 L 0.0843,41.2534 L 0.0983,41.4074 L 0.1124,41.5894 L 0.1264,41.7574 L 0.1405,41.9393 L 0.1545,42.1213 L 0.1686,42.3173 L 0.1826,42.5133 L 0.1826,42.6953 L 0.1967,42.8912 L 0.2107,43.0732 L 0.2248,43.2552 L 0.2388,43.4232 L 0.2529,43.6052 L 0.2669,43.7591 L 0.2810,43.9131 L 0.2810,44.0391 L 0.2950,44.1651 L 0.3091,44.2771 L 0.3091,44.3611 L 0.3091,44.4451 L 0.3231,44.5011 L 0.3231,44.5291 L 0.3231,44.5431 L 0.4074,44.8230 L 0.4917,45.0750 L 0.5760,45.3410 L 0.6603,45.5789 L 0.7586,45.8169 L 0.8429,46.0549 L 0.9413,46.2649 L 1.0396,46.4748 L 1.1520,46.6848 L 1.2644,46.8808 L 1.3768,47.0628 L 1.4892,47.2448 L 1.6296,47.4127 L 1.7561,47.5667 L 1.8966,47.7207 L 2.0511,47.8747 L 2.2056,48.0007 L 2.3742,48.1267 L 2.5569,48.2526 L 2.7395,48.3646 L 2.9362,48.4766 L 3.1469,48.5746 L 3.3717,48.6586 L 3.6105,48.7426 L 3.8493,48.8126 L 4.1163,48.8826 L 4.3972,48.9386 L 4.6782,48.9946 L 4.9873,49.0366 L 5.3104,49.0786 L 5.6476,49.1066 L 5.9988,49.1346 L 6.1112,49.1346 L 6.4202,49.1346 L 6.9260,49.1346 L 7.6144,49.1346 L 8.4573,49.1346 L 9.4547,49.1346 L 10.6067,49.1346 L 11.8571,49.1346 L 13.2338,49.1346 L 14.6949,49.1346 L 16.2543,49.1346 L 17.8699,49.1346 L 19.5417,49.1346 L 21.2556,49.1346 L 22.9976,49.1346 L 24.7678,49.1346 L 26.5239,49.1346 L 28.2659,49.1346 L 29.9798,49.1346 L 31.6516,49.1346 L 33.2672,49.1346 L 34.8266,49.1346 L 36.2877,49.1346 L 37.6644,49.1346 L 38.9148,49.1346 L 40.0668,49.1346 L 41.0642,49.1346 L 41.9071,49.1346 L 42.5955,49.1346 L 43.1013,49.1346 L 43.4103,49.1346 L 43.5227,49.1346 L 43.8739,49.1066 L 44.2111,49.0786 L 44.5342,49.0366 L 44.8433,48.9946 L 45.1243,48.9386 L 45.4052,48.8826 L 45.6722,48.8126 L 45.9110,48.7426 L 46.1498,48.6586 L 46.3746,48.5746 L 46.5853,48.4766 L 46.7820,48.3646 L 46.9646,48.2526 L 47.1473,48.1267 L 47.3159,48.0007 L 47.4704,47.8747 L 47.6249,47.7207 L 47.7654,47.5667 L 47.8919,47.4127 L 48.0323,47.2448 L 48.1447,47.0628 L 48.2571,46.8808 L 48.3695,46.6848 L 48.4819,46.4748 L 48.5802,46.2649 L 48.6786,46.0549 L 48.7629,45.8169 L 48.8612,45.5789 L 48.9455,45.3410 L 49.0298,45.0750 L 49.1141,44.8230 L 49.1984,44.5431 L 49.1984,44.5291 L 49.1984,44.5011 L 49.2124,44.4451 L 49.2124,44.3611 L 49.2124,44.2771 L 49.2265,44.1651 L 49.2405,44.0391 L 49.2405,43.9131 L 49.2546,43.7591 L 49.2686,43.6052 L 49.2827,43.4232 L 49.2967,43.2552 L 49.3108,43.0732 L 49.3248,42.8912 L 49.3389,42.6953 L 49.3529,42.5133 L 49.3529,42.3173 L 49.3670,42.1213 L 49.3810,41.9393 L 49.3951,41.7574 L 49.4091,41.5894 L 49.4232,41.4074 L 49.4372,41.2534 L 49.4513,41.0994 L 49.4513,40.9735 L 49.4653,40.8475 L 49.4794,40.7355 L 49.4794,40.6515 L 49.4794,40.5675 L 49.4934,40.5115 L 49.4934,40.4835 L 49.4934,40.4695 L 49.4934,40.3715 L 49.4934,40.1196 L 49.4934,39.6856 L 49.4934,39.0977 L 49.4934,38.3837 L 49.4934,37.5438 L 49.4934,36.5779 L 49.4934,35.5001 L 49.4934,34.3382 L 49.4934,33.1063 L 49.4934,31.7905 L 49.4934,30.4186 L 49.4934,28.9908 L 49.4934,27.5489 L 49.4934,26.0651 L 49.4934,24.5813 L 49.4934,23.0974 L 49.4934,21.6136 L 49.4934,20.1718 L 49.4934,18.7439 L 49.4934,17.3721 L 49.4934,16.0562 L 49.4934,14.8244 L 49.4934,13.6625 L 49.4934,12.5846 L 49.4934,11.6187 L 49.4934,10.7788 L 49.4934,10.0649 L 49.4934,9.4769 L 49.4934,9.0430 L 49.4934,8.7910 L 49.4934,8.6930 Z" stroke="#000000" stroke-width="0.1197" stroke-linecap="round" stroke-linejoin="round" fill="none"/>
        <path d="M 20.8482,43.3112 L 20.8482,43.2552 L 20.8201,43.1992 L 20.8061,43.1572 L 20.7639,43.1152 L 20.7218,43.0732 L 20.6796,43.0592 L 20.6234,43.0312 L 20.5672,43.0312 L 19.8367,43.0312 L 19.7805,43.0312 L 19.7243,43.0592 L 19.6822,43.0732 L 19.6400,43.1152 L 19.5979,43.1572 L 19.5838,43.1992 L 19.5557,43.2552 L 19.5557,43.3112 L 19.5557,43.3672 L 19.5838,43.4232 L 19.5979,43.4652 L 19.6400,43.5072 L 19.6822,43.5492 L 19.7243,43.5632 L 19.7805,43.5912 L 19.8367,43.5912 L 20.5672,43.5912 L 20.6234,43.5912 L 20.6796,43.5632 L 20.7218,43.5492 L 20.7639,43.5072 L 20.8061,43.4652 L 20.8201,43.4232 L 20.8482,43.3672 L 20.8482,43.3112 Z" stroke="#000000" stroke-width="0.1197" stroke-linecap="round" stroke-linejoin="round" fill="#00FF00"/>
        <path d="M 25.4000,43.3112 L 25.4000,43.2552 L 25.3719,43.1992 L 25.3578,43.1572 L 25.3157,43.1152 L 25.2735,43.0732 L 25.2314,43.0592 L 25.1752,43.0312 L 25.1190,43.0312 L 24.3885,43.0312 L 24.3323,43.0312 L 24.2761,43.0592 L 24.2339,43.0732 L 24.1918,43.1152 L 24.1496,43.1572 L 24.1356,43.1992 L 24.1075,43.2552 L 24.1075,43.3112 L 24.1075,43.3672 L 24.1356,43.4232 L 24.1496,43.4652 L 24.1918,43.5072 L 24.2339,43.5492 L 24.2761,43.5632 L 24.3323,43.5912 L 24.3885,43.5912 L 25.1190,43.5912 L 25.1752,43.5912 L 25.2314,43.5632 L 25.2735,43.5492 L 25.3157,43.5072 L 25.3578,43.4652 L 25.3719,43.4232 L 25.4000,43.3672 L 25.4000,43.3112 Z" stroke="#000000" stroke-width="0.1197" stroke-linecap="round" stroke-linejoin="round" fill="#00FF00"/>
        <path d="M 29.9517,43.3112 L 29.9517,43.2552 L 29.9236,43.1992 L 29.9096,43.1572 L 29.8674,43.1152 L 29.8253,43.0732 L 29.7831,43.0592 L 29.7270,43.0312 L 29.6708,43.0312 L 28.9402,43.0312 L 28.8840,43.0312 L 28.8278,43.0592 L 28.7857,43.0732 L 28.7435,43.1152 L 28.7014,43.1572 L 28.6873,43.1992 L 28.6593,43.2552 L 28.6593,43.3112 L 28.6593,43.3672 L 28.6873,43.4232 L 28.7014,43.4652 L 28.7435,43.5072 L 28.7857,43.5492 L 28.8278,43.5632 L 28.8840,43.5912 L 28.9402,43.5912 L 29.6708,43.5912 L 29.7270,43.5912 L 29.7831,43.5632 L 29.8253,43.5492 L 29.8674,43.5072 L 29.9096,43.4652 L 29.9236,43.4232 L 29.9517,43.3672 L 29.9517,43.3112 Z" stroke="#000000" stroke-width="0.1197" stroke-linecap="round" stroke-linejoin="round" fill="#00FF00"/>
        <ellipse cx="29.2914" cy="44.1931" rx="0.0140" ry="0.0140" fill="#494949" stroke="#000000" stroke-width="0.1197" stroke-linecap="round" stroke-linejoin="round"/>
        <ellipse cx="29.2914" cy="44.1931" rx="0.0140" ry="0.0140" fill="none" stroke="#494949" stroke-width="0.1197" stroke-linecap="round" stroke-linejoin="round"/>
        <path d="M 29.1510,44.2351 L 29.1510,44.2491 L 29.1510,44.2631 L 29.1510,44.2771 L 29.1510,44.2911 L 29.1650,44.2911 L 29.1650,44.3051 L 29.1650,44.3191 L 29.1650,44.3331 L 29.1791,44.3331 L 29.1791,44.3471 L 29.1931,44.3611 L 29.1931,44.3751 L 29.2072,44.3751 L 29.2212,44.3891 L 29.2352,44.3891 L 29.2493,44.3891 L 29.2633,44.3891 L 29.2633,44.3751 L 29.2633,44.3611 L 29.2633,44.3471 L 29.2493,44.3471 L 29.2493,44.3331 L 29.2352,44.3331 L 29.2352,44.3191 L 29.2212,44.3191 L 29.2212,44.3051 L 29.2072,44.3051 L 29.2072,44.2911 L 29.2072,44.2771 L 29.1931,44.2771 L 29.1931,44.2631 L 29.1931,44.2491 L 29.1931,44.2351 L 29.1931,44.2211 L 29.1931,44.2071 L 29.1931,44.1931 L 29.2072,44.1931 L 29.2072,44.1791 L 29.2072,44.1651 L 29.2212,44.1651 L 29.2212,44.1511 L 29.2352,44.1511 L 29.2352,44.1371 L 29.2493,44.1371 L 29.2493,44.1231 L 29.2633,44.1231 L 29.2633,44.1091 L 29.2633,44.0951 L 29.2633,44.0811 L 29.2493,44.0811 L 29.2352,44.0811 L 29.2212,44.0811 L 29.2072,44.0951 L 29.1931,44.0951 L 29.1931,44.1091 L 29.1791,44.1231 L 29.1791,44.1371 L 29.1650,44.1371 L 29.1650,44.1511 L 29.1650,44.1651 L 29.1650,44.1791 L 29.1510,44.1791 L 29.1510,44.1931 L 29.1510,44.2071 L 29.1510,44.2211 L 29.1510,44.2351 Z" stroke="#494949" stroke-width="0.1197" stroke-linecap="round" stroke-linejoin="round" fill="#494949"/>
        <path d="M 29.0526,44.2351 L 29.0526,44.2211 L 29.0526,44.2071 L 29.0526,44.1931 L 29.0526,44.1791 L 29.0526,44.1651 L 29.0667,44.1511 L 29.0667,44.1371 L 29.0667,44.1231 L 29.0807,44.1091 L 29.0807,44.0951 L 29.0948,44.0811 L 29.0948,44.0671 L 29.1088,44.0671 L 29.1088,44.0531 L 29.1229,44.0531 L 29.1229,44.0391 L 29.1369,44.0391 L 29.1510,44.0251 L 29.1650,44.0251 L 29.1650,44.0111 L 29.1791,44.0111 L 29.1791,44.0251 L 29.1791,44.0391 L 29.1791,44.0531 L 29.1650,44.0671 L 29.1650,44.0811 L 29.1510,44.0811 L 29.1510,44.0951 L 29.1369,44.0951 L 29.1369,44.1091 L 29.1369,44.1231 L 29.1229,44.1231 L 29.1229,44.1371 L 29.1088,44.1511 L 29.1088,44.1651 L 29.1088,44.1791 L 29.0948,44.1931 L 29.0948,44.2071 L 29.0948,44.2211 L 29.0948,44.2351 L 29.0948,44.2491 L 29.0948,44.2631 L 29.0948,44.2771 L 29.1088,44.2911 L 29.1088,44.3051 L 29.1088,44.3191 L 29.1229,44.3331 L 29.1229,44.3471 L 29.1369,44.3471 L 29.1369,44.3611 L 29.1369,44.3751 L 29.1510,44.3751 L 29.1510,44.3891 L 29.1650,44.3891 L 29.1650,44.4031 L 29.1791,44.4171 L 29.1791,44.4311 L 29.1791,44.4451 L 29.1791,44.4591 L 29.1650,44.4591 L 29.1650,44.4451 L 29.1510,44.4451 L 29.1369,44.4311 L 29.1229,44.4311 L 29.1229,44.4171 L 29.1088,44.4171 L 29.1088,44.4031 L 29.0948,44.4031 L 29.0948,44.3891 L 29.0807,44.3751 L 29.0807,44.3611 L 29.0667,44.3471 L 29.0667,44.3331 L 29.0667,44.3191 L 29.0526,44.3051 L 29.0526,44.2911 L 29.0526,44.2771 L 29.0526,44.2631 L 29.0526,44.2491 L 29.0526,44.2351 Z" stroke="#494949" stroke-width="0.1197" stroke-linecap="round" stroke-linejoin="round" fill="#494949"/>
        <path d="M 29.5443,44.2351 L 29.5443,44.2491 L 29.5443,44.2631 L 29.5443,44.2771 L 29.5443,44.2911 L 29.5303,44.2911 L 29.5303,44.3051 L 29.5303,44.3191 L 29.5303,44.3331 L 29.5162,44.3331 L 29.5162,44.3471 L 29.5022,44.3611 L 29.5022,44.3751 L 29.4881,44.3751 L 29.4741,44.3891 L 29.4600,44.3891 L 29.4460,44.3891 L 29.4319,44.3891 L 29.4319,44.3751 L 29.4319,44.3611 L 29.4319,44.3471 L 29.4460,44.3471 L 29.4460,44.3331 L 29.4600,44.3331 L 29.4600,44.3191 L 29.4741,44.3191 L 29.4741,44.3051 L 29.4881,44.3051 L 29.4881,44.2911 L 29.4881,44.2771 L 29.5022,44.2771 L 29.5022,44.2631 L 29.5022,44.2491 L 29.5022,44.2351 L 29.5022,44.2211 L 29.5022,44.2071 L 29.5022,44.1931 L 29.4881,44.1931 L 29.4881,44.1791 L 29.4881,44.1651 L 29.4741,44.1651 L 29.4741,44.1511 L 29.4600,44.1511 L 29.4600,44.1371 L 29.4460,44.1371 L 29.4460,44.1231 L 29.4319,44.1231 L 29.4319,44.1091 L 29.4319,44.0951 L 29.4319,44.0811 L 29.4460,44.0811 L 29.4600,44.0811 L 29.4741,44.0811 L 29.4881,44.0951 L 29.5022,44.0951 L 29.5022,44.1091 L 29.5162,44.1231 L 29.5162,44.1371 L 29.5303,44.1371 L 29.5303,44.1511 L 29.5303,44.1651 L 29.5303,44.1791 L 29.5443,44.1791 L 29.5443,44.1931 L 29.5443,44.2071 L 29.5443,44.2211 L 29.5443,44.2351 Z" stroke="#494949" stroke-width="0.1197" stroke-linecap="round" stroke-linejoin="round" fill="#494949"/>
        <path d="M 29.6427,44.2351 L 29.6427,44.2211 L 29.6427,44.2071 L 29.6427,44.1931 L 29.6427,44.1791 L 29.6427,44.1651 L 29.6286,44.1511 L 29.6286,44.1371 L 29.6286,44.1231 L 29.6146,44.1091 L 29.6146,44.0951 L 29.6005,44.0811 L 29.6005,44.0671 L 29.5865,44.0671 L 29.5865,44.0531 L 29.5724,44.0531 L 29.5724,44.0391 L 29.5584,44.0391 L 29.5443,44.0251 L 29.5303,44.0251 L 29.5303,44.0111 L 29.5162,44.0111 L 29.5162,44.0251 L 29.5162,44.0391 L 29.5162,44.0531 L 29.5303,44.0671 L 29.5303,44.0811 L 29.5443,44.0811 L 29.5443,44.0951 L 29.5584,44.0951 L 29.5584,44.1091 L 29.5584,44.1231 L 29.5724,44.1231 L 29.5724,44.1371 L 29.5865,44.1511 L 29.5865,44.1651 L 29.5865,44.1791 L 29.6005,44.1931 L 29.6005,44.2071 L 29.6005,44.2211 L 29.6005,44.2351 L 29.6005,44.2491 L 29.6005,44.2631 L 29.6005,44.2771 L 29.5865,44.2911 L 29.5865,44.3051 L 29.5865,44.3191 L 29.5724,44.3331 L 29.5724,44.3471 L 29.5584,44.3471 L 29.5584,44.3611 L 29.5584,44.3751 L 29.5443,44.3751 L 29.5443,44.3891 L 29.5303,44.3891 L 29.5303,44.4031 L 29.5162,44.4171 L 29.5162,44.4311 L 29.5162,44.4451 L 29.5162,44.4591 L 29.5303,44.4591 L 29.5303,44.4451 L 29.5443,44.4451 L 29.5584,44.4311 L 29.5724,44.4311 L 29.5724,44.4171 L 29.5865,44.4171 L 29.5865,44.4031 L 29.6005,44.4031 L 29.6005,44.3891 L 29.6146,44.3751 L 29.6146,44.3611 L 29.6286,44.3471 L 29.6286,44.3331 L 29.6286,44.3191 L 29.6427,44.3051 L 29.6427,44.2911 L 29.6427,44.2771 L 29.6427,44.2631 L 29.6427,44.2491 L 29.6427,44.2351 Z" stroke="#494949" stroke-width="0.1197" stroke-linecap="round" stroke-linejoin="round" fill="#494949"/>
        <path d="M 29.3617,44.2771 L 29.3055,44.2771 L 29.3055,44.6830 L 29.3617,44.6830 L 29.3617,44.2771 Z" stroke="#494949" stroke-width="0.1197" stroke-linecap="round" stroke-linejoin="round" fill="#494949"/>
        <path d="M 24.9083,43.9971 L 24.6554,43.9971 L 24.6554,44.2351 L 24.9083,44.2351 L 24.9083,43.9971 " stroke="#494949" stroke-width="0.1197" stroke-linecap="round" stroke-linejoin="round" fill="none"/>
        <path d="M 24.6273,44.4451 L 24.3744,44.4451 L 24.3744,44.6830 L 24.6273,44.6830 L 24.6273,44.4451 " stroke="#494949" stroke-width="0.1197" stroke-linecap="round" stroke-linejoin="round" fill="none"/>
        <path d="M 25.1892,44.4451 L 24.9364,44.4451 L 24.9364,44.6830 L 25.1892,44.6830 L 25.1892,44.4451 " stroke="#494949" stroke-width="0.1197" stroke-linecap="round" stroke-linejoin="round" fill="none"/>
        <path d="M 24.3463,44.3331 L 25.2314,44.3331 " stroke="#494949" stroke-width="0.1197" stroke-linecap="round" stroke-linejoin="round" fill="none"/>
        <path d="M 24.7818,44.2491 L 24.7818,44.3331 " stroke="#494949" stroke-width="0.1197" stroke-linecap="round" stroke-linejoin="round" fill="none"/>
        <path d="M 25.0628,44.3331 L 25.0628,44.4171 " stroke="#494949" stroke-width="0.1197" stroke-linecap="round" stroke-linejoin="round" fill="none"/>
        <path d="M 24.5009,44.3331 L 24.5009,44.4171 " stroke="#494949" stroke-width="0.1197" stroke-linecap="round" stroke-linejoin="round" fill="none"/>
        <path d="M 20.4127,44.1091 L 20.4267,44.1091 L 20.4267,44.1231 L 20.4408,44.1231 L 20.4548,44.1371 L 20.4689,44.1371 L 20.4689,44.1511 L 20.4829,44.1511 L 20.4829,44.1651 L 20.4970,44.1651 L 20.4970,44.1791 L 20.5110,44.1791 L 20.5110,44.1931 L 20.5251,44.2071 L 20.5251,44.2211 L 20.5391,44.2351 L 20.5391,44.2491 L 20.5532,44.2631 L 20.5532,44.2771 L 20.5532,44.2911 L 20.5532,44.3051 L 20.5672,44.3191 L 20.5672,44.3331 L 20.5672,44.3471 L 20.5672,44.3611 L 20.5672,44.3751 L 20.5672,44.3891 L 20.5672,44.4031 L 20.5672,44.4311 L 20.5672,44.4451 L 20.5532,44.4591 L 20.5532,44.4731 L 20.5532,44.4871 L 20.5391,44.5011 L 20.5391,44.5151 L 20.5251,44.5291 L 20.5251,44.5431 L 20.5110,44.5571 L 20.5110,44.5711 L 20.4970,44.5851 L 20.4829,44.5991 L 20.4689,44.6131 L 20.4548,44.6271 L 20.4408,44.6410 L 20.4267,44.6410 L 20.4127,44.6550 L 20.3986,44.6550 L 20.3846,44.6690 L 20.3705,44.6830 L 20.3424,44.6830 L 20.3284,44.6830 L 20.3144,44.6970 L 20.3003,44.6970 L 20.2863,44.6970 L 20.2722,44.6970 L 20.2582,44.6970 L 20.2441,44.6970 L 20.2301,44.6970 L 20.2160,44.6970 L 20.2020,44.6970 L 20.1879,44.6830 L 20.1739,44.6830 L 20.1458,44.6830 L 20.1458,44.6690 L 20.1317,44.6690 L 20.1177,44.6550 L 20.1036,44.6550 L 20.0896,44.6410 L 20.0755,44.6410 L 20.0615,44.6271 L 20.0474,44.6131 L 20.0474,44.5991 L 20.0334,44.5991 L 20.0193,44.5851 L 20.0053,44.5711 L 20.0053,44.5571 L 19.9912,44.5431 L 19.9912,44.5291 L 19.9772,44.5151 L 19.9772,44.5011 L 19.9631,44.4871 L 19.9631,44.4731 L 19.9631,44.4591 L 19.9491,44.4451 L 19.9491,44.4311 L 19.9491,44.4031 L 19.9491,44.3891 L 19.9491,44.3751 L 19.9491,44.3611 L 19.9491,44.3471 L 19.9491,44.3331 L 19.9491,44.3191 L 19.9631,44.3191 L 19.9631,44.3051 L 19.9631,44.2911 L 19.9631,44.2771 L 19.9772,44.2771 L 19.9772,44.2631 L 19.9772,44.2491 L 19.9912,44.2351 L 19.9912,44.2211 L 20.0053,44.2211 L 20.0053,44.2071 L 20.0193,44.1931 L 20.0193,44.1791 L 20.0334,44.1651 L 20.0474,44.1511 L 20.0615,44.1371 L 20.0755,44.1231 L 20.0755,44.1371 L 20.0896,44.1371 L 20.0896,44.1511 L 20.1036,44.1511 L 20.1036,44.1651 L 20.1177,44.1651 L 20.1177,44.1791 L 20.1036,44.1931 L 20.0896,44.2071 L 20.0755,44.2071 L 20.0755,44.2211 L 20.0615,44.2351 L 20.0474,44.2491 L 20.0474,44.2631 L 20.0334,44.2771 L 20.0334,44.2911 L 20.0193,44.2911 L 20.0193,44.3051 L 20.0193,44.3191 L 20.0193,44.3331 L 20.0053,44.3331 L 20.0053,44.3471 L 20.0053,44.3611 L 20.0053,44.3751 L 20.0053,44.3891 L 20.0053,44.4031 L 20.0053,44.4171 L 20.0053,44.4311 L 20.0193,44.4451 L 20.0193,44.4591 L 20.0193,44.4731 L 20.0193,44.4871 L 20.0334,44.4871 L 20.0334,44.5011 L 20.0474,44.5151 L 20.0474,44.5291 L 20.0615,44.5431 L 20.0755,44.5571 L 20.0755,44.5711 L 20.0896,44.5711 L 20.1036,44.5851 L 20.1177,44.5991 L 20.1317,44.5991 L 20.1317,44.6131 L 20.1458,44.6131 L 20.1598,44.6271 L 20.1739,44.6271 L 20.1879,44.6271 L 20.2020,44.6410 L 20.2160,44.6410 L 20.2301,44.6410 L 20.2441,44.6410 L 20.2582,44.6410 L 20.2722,44.6410 L 20.2863,44.6410 L 20.3003,44.6410 L 20.3144,44.6410 L 20.3284,44.6271 L 20.3424,44.6271 L 20.3565,44.6271 L 20.3705,44.6131 L 20.3846,44.6131 L 20.3846,44.5991 L 20.3986,44.5991 L 20.4127,44.5851 L 20.4267,44.5711 L 20.4408,44.5711 L 20.4408,44.5571 L 20.4548,44.5431 L 20.4689,44.5291 L 20.4689,44.5151 L 20.4829,44.5011 L 20.4829,44.4871 L 20.4970,44.4871 L 20.4970,44.4731 L 20.4970,44.4591 L 20.4970,44.4451 L 20.5110,44.4311 L 20.5110,44.4171 L 20.5110,44.4031 L 20.5110,44.3891 L 20.5110,44.3751 L 20.5110,44.3611 L 20.5110,44.3471 L 20.5110,44.3331 L 20.4970,44.3191 L 20.4970,44.3051 L 20.4970,44.2911 L 20.4829,44.2771 L 20.4829,44.2631 L 20.4689,44.2491 L 20.4689,44.2351 L 20.4548,44.2351 L 20.4548,44.2211 L 20.4408,44.2211 L 20.4408,44.2071 L 20.4267,44.2071 L 20.4267,44.1931 L 20.4127,44.1931 L 20.3986,44.1791 L 20.3846,44.1791 L 20.3846,44.1651 L 20.3705,44.1651 L 20.3705,44.1511 L 20.3846,44.1511 L 20.3846,44.1371 L 20.3986,44.1371 L 20.3986,44.1231 L 20.4127,44.1231 L 20.4127,44.1091 Z" stroke="#494949" stroke-width="0.1197" stroke-linecap="round" stroke-linejoin="round" fill="#494949"/>
        <path d="M 20.2863,43.9831 L 20.2160,43.9831 L 20.2160,44.4031 L 20.2863,44.4031 L 20.2863,43.9831 Z" stroke="#494949" stroke-width="0.1197" stroke-linecap="round" stroke-linejoin="round" fill="#494949"/>
        <path d="M 17.4203,25.3792 L 17.4063,25.3792 L 17.3922,25.3792 L 17.3922,25.3652 L 17.3782,25.3652 L 17.3641,25.3652 L 17.3641,25.3512 L 17.3501,25.3512 L 17.3501,25.3372 L 17.3360,25.3372 L 17.3360,25.3232 L 17.3220,25.3232 L 17.3220,25.3092 L 17.3220,25.2952 L 17.3220,25.2812 L 17.3220,25.2532 L 17.3220,25.2392 L 17.3220,25.1972 L 17.3220,25.1692 L 17.3220,25.1132 L 17.3220,25.0712 L 17.3220,25.0152 L 17.3220,24.9592 L 17.3220,24.9032 L 17.3220,24.8472 L 17.3220,24.7773 L 17.3220,24.7213 L 17.3220,24.6513 L 17.3220,24.5813 L 17.3220,24.5113 L 17.3220,24.4413 L 17.3220,24.3853 L 17.3220,24.3153 L 17.3220,24.2593 L 17.3220,24.2033 L 17.3220,24.1473 L 17.3220,24.0913 L 17.3220,24.0493 L 17.3220,23.9933 L 17.3220,23.9653 L 17.3220,23.9233 L 17.3220,23.9093 L 17.3220,23.8814 L 17.3220,23.8674 L 17.3220,23.8534 L 17.3220,23.8394 L 17.3360,23.8394 L 17.3360,23.8254 L 17.3501,23.8254 L 17.3501,23.8114 L 17.3641,23.8114 L 17.3641,23.7974 L 17.3782,23.7974 L 17.3922,23.7974 L 17.3922,23.7834 L 17.4063,23.7834 L 17.4203,23.7834 L 17.4344,23.7834 L 17.4625,23.7834 L 17.4906,23.7834 L 17.5327,23.7834 L 17.5749,23.7834 L 17.6170,23.7834 L 17.6732,23.7834 L 17.7434,23.7834 L 17.7996,23.7834 L 17.8699,23.7834 L 17.9401,23.7834 L 18.0244,23.7834 L 18.0947,23.7834 L 18.1649,23.7834 L 18.2492,23.7834 L 18.3335,23.7834 L 18.4037,23.7834 L 18.4740,23.7834 L 18.5583,23.7834 L 18.6285,23.7834 L 18.6988,23.7834 L 18.7550,23.7834 L 18.8252,23.7834 L 18.8814,23.7834 L 18.9235,23.7834 L 18.9657,23.7834 L 19.0078,23.7834 L 19.0359,23.7834 L 19.0640,23.7834 L 19.0781,23.7834 L 19.0921,23.7834 L 19.1062,23.7834 L 19.1062,23.7974 L 19.1202,23.7974 L 19.1343,23.7974 L 19.1343,23.8114 L 19.1483,23.8114 L 19.1483,23.8254 L 19.1624,23.8254 L 19.1624,23.8394 L 19.1764,23.8394 L 19.1764,23.8534 L 19.1764,23.8674 L 19.1764,23.8814 L 19.1764,23.8954 L 19.1764,23.9093 L 19.1764,23.9233 L 19.1764,23.9373 L 19.1764,23.9513 L 19.1764,23.9653 L 19.1764,23.9793 L 19.1764,23.9933 L 19.1764,24.0073 L 19.1764,24.0213 L 19.1764,24.0353 L 19.1764,24.0493 L 19.1764,24.0633 L 19.1764,24.0773 L 19.1764,24.0913 L 19.1764,24.1053 L 19.1764,24.1193 L 19.1764,24.1333 L 19.1764,24.1473 L 19.1764,24.1613 L 19.1764,24.1753 L 19.1764,24.1613 L 19.1764,24.1473 L 19.1624,24.1473 L 19.1624,24.1333 L 19.1483,24.1333 L 19.1483,24.1193 L 19.1343,24.1193 L 19.1202,24.1053 L 19.1062,24.1053 L 19.0921,24.1053 L 19.0781,24.1053 L 19.0500,24.1053 L 19.0219,24.1053 L 18.9797,24.1053 L 18.9376,24.1053 L 18.8954,24.1053 L 18.8533,24.1053 L 18.7971,24.1053 L 18.7409,24.1053 L 18.6847,24.1053 L 18.6285,24.1053 L 18.5583,24.1053 L 18.5021,24.1053 L 18.4459,24.1053 L 18.3756,24.1053 L 18.3194,24.1053 L 18.2492,24.1053 L 18.1930,24.1053 L 18.1368,24.1053 L 18.0806,24.1053 L 18.0244,24.1053 L 17.9823,24.1053 L 17.9401,24.1053 L 17.8980,24.1053 L 17.8558,24.1053 L 17.8277,24.1053 L 17.7996,24.1053 L 17.7856,24.1053 L 17.7715,24.1053 L 17.7575,24.1053 L 17.7434,24.1053 L 17.7294,24.1053 L 17.7154,24.1193 L 17.7013,24.1193 L 17.7013,24.1333 L 17.6873,24.1333 L 17.6873,24.1473 L 17.6873,24.1613 L 17.6873,24.1753 L 17.6873,24.1893 L 17.6873,24.2033 L 17.6873,24.2173 L 17.6873,24.2453 L 17.6873,24.2733 L 17.6873,24.3153 L 17.6873,24.3573 L 17.6873,24.3993 L 17.6873,24.4413 L 17.6873,24.4833 L 17.6873,24.5393 L 17.6873,24.5813 L 17.6873,24.6373 L 17.6873,24.6933 L 17.6873,24.7493 L 17.6873,24.7913 L 17.6873,24.8472 L 17.6873,24.9032 L 17.6873,24.9452 L 17.6873,25.0012 L 17.6873,25.0432 L 17.6873,25.0852 L 17.6873,25.1272 L 17.6873,25.1692 L 17.6873,25.2112 L 17.6873,25.2392 L 17.6873,25.2672 L 17.6873,25.2812 L 17.6873,25.2952 L 17.6873,25.3092 L 17.6873,25.3232 L 17.6873,25.3372 L 17.7013,25.3372 L 17.7013,25.3512 L 17.7013,25.3652 L 17.7154,25.3652 L 17.7294,25.3792 L 17.7434,25.3792 L 17.7575,25.3792 L 17.7434,25.3792 L 17.7294,25.3792 L 17.7154,25.3792 L 17.7013,25.3792 L 17.6873,25.3792 L 17.6732,25.3792 L 17.6592,25.3792 L 17.6451,25.3792 L 17.6311,25.3792 L 17.6170,25.3792 L 17.6030,25.3792 L 17.5889,25.3792 L 17.5749,25.3792 L 17.5608,25.3792 L 17.5468,25.3792 L 17.5327,25.3792 L 17.5187,25.3792 L 17.5046,25.3792 L 17.4906,25.3792 L 17.4765,25.3792 L 17.4625,25.3792 L 17.4484,25.3792 L 17.4344,25.3792 L 17.4203,25.3792 Z" stroke="#7F7F7F" stroke-width="0.1197" stroke-linecap="round" stroke-linejoin="round" fill="#7F7F7F"/>
        <path d="M 19.0781,24.4693 L 19.0500,24.4693 L 19.0078,24.4693 L 18.9797,24.4693 L 18.9376,24.4693 L 18.8954,24.4693 L 18.8533,24.4693 L 18.8111,24.4693 L 18.7550,24.4693 L 18.7128,24.4693 L 18.6566,24.4693 L 18.6004,24.4693 L 18.5583,24.4693 L 18.5021,24.4693 L 18.4459,24.4693 L 18.4037,24.4693 L 18.3475,24.4693 L 18.3054,24.4693 L 18.2492,24.4693 L 18.2071,24.4693 L 18.1649,24.4693 L 18.1228,24.4693 L 18.0806,24.4693 L 18.0385,24.4693 L 18.0104,24.4693 L 17.9682,24.4693 L 17.9401,24.4693 L 17.9120,24.4693 L 17.8980,24.4693 L 17.8839,24.4693 L 17.8699,24.4693 L 17.8558,24.4693 L 17.8418,24.4693 L 17.8277,24.4693 L 17.8277,24.4553 L 17.8137,24.4553 L 17.7996,24.4413 L 17.7996,24.4273 L 17.7856,24.4273 L 17.7856,24.4133 L 17.7856,24.3993 L 17.7856,24.3853 L 17.7856,24.3993 L 17.7856,24.4133 L 17.7856,24.4273 L 17.7856,24.4413 L 17.7856,24.4553 L 17.7856,24.4693 L 17.7856,24.4833 L 17.7856,24.4973 L 17.7856,24.5113 L 17.7856,24.5253 L 17.7856,24.5393 L 17.7856,24.5533 L 17.7856,24.5673 L 17.7856,24.5813 L 17.7856,24.5953 L 17.7856,24.6093 L 17.7856,24.6233 L 17.7856,24.6373 L 17.7856,24.6513 L 17.7856,24.6653 L 17.7856,24.6793 L 17.7856,24.6933 L 17.7856,24.7073 L 17.7856,24.7213 L 17.7996,24.7213 L 17.7996,24.7353 L 17.7996,24.7493 L 17.8137,24.7493 L 17.8277,24.7493 L 17.8277,24.7633 L 17.8418,24.7633 L 17.8558,24.7633 L 17.8699,24.7633 L 17.8839,24.7633 L 17.8980,24.7633 L 17.9261,24.7633 L 17.9401,24.7633 L 17.9823,24.7633 L 18.0104,24.7633 L 18.0525,24.7633 L 18.0806,24.7633 L 18.1228,24.7633 L 18.1790,24.7633 L 18.2211,24.7633 L 18.2632,24.7633 L 18.3194,24.7633 L 18.3756,24.7633 L 18.4178,24.7633 L 18.4740,24.7633 L 18.5302,24.7633 L 18.5864,24.7633 L 18.6285,24.7633 L 18.6847,24.7633 L 18.7409,24.7633 L 18.7830,24.7633 L 18.8392,24.7633 L 18.8814,24.7633 L 18.9235,24.7633 L 18.9657,24.7633 L 19.0078,24.7633 L 19.0500,24.7633 L 19.0781,24.7633 L 19.1062,24.7633 L 19.1202,24.7493 L 19.1343,24.7353 L 19.1483,24.7353 L 19.1624,24.7213 L 19.1624,24.7073 L 19.1764,24.6933 L 19.1764,24.6793 L 19.1905,24.6653 L 19.2045,24.6513 L 19.2045,24.6373 L 19.2045,24.6233 L 19.2045,24.6093 L 19.2045,24.5953 L 19.2045,24.5813 L 19.2045,24.5673 L 19.2045,24.5533 L 19.1905,24.5393 L 19.1905,24.5253 L 19.1764,24.5113 L 19.1624,24.4973 L 19.1483,24.4973 L 19.1343,24.4833 L 19.1202,24.4833 L 19.1062,24.4693 L 19.0921,24.4693 L 19.0781,24.4693 Z" stroke="#7F7F7F" stroke-width="0.1197" stroke-linecap="round" stroke-linejoin="round" fill="#7F7F7F"/>
        <path d="M 21.9861,24.7633 L 21.9721,24.7633 L 21.9580,24.7633 L 21.9580,24.7493 L 21.9440,24.7493 L 21.9299,24.7493 L 21.9299,24.7353 L 21.9159,24.7353 L 21.9159,24.7213 L 21.9159,24.7073 L 21.9019,24.7073 L 21.9019,24.6933 L 21.9019,24.6793 L 21.9019,24.6653 L 21.9019,24.6513 L 21.9019,24.6373 L 21.9019,24.6233 L 21.9019,24.6093 L 21.9019,24.5953 L 21.9019,24.5813 L 21.9019,24.5673 L 21.9019,24.5533 L 21.9019,24.5393 L 21.9019,24.5253 L 21.9019,24.5113 L 21.9019,24.4973 L 21.9019,24.4833 L 21.9019,24.4693 L 21.9019,24.4553 L 21.9019,24.4413 L 21.9019,24.4273 L 21.9019,24.4133 L 21.9019,24.3993 L 21.9019,24.3853 L 21.9019,24.3993 L 21.9019,24.4133 L 21.9159,24.4133 L 21.9159,24.4273 L 21.9299,24.4273 L 21.9299,24.4413 L 21.9440,24.4553 L 21.9580,24.4553 L 21.9580,24.4693 L 21.9721,24.4693 L 21.9861,24.4693 L 22.0002,24.4693 L 22.0142,24.4693 L 22.0283,24.4693 L 22.0564,24.4693 L 22.0704,24.4693 L 22.1126,24.4693 L 22.1407,24.4693 L 22.1688,24.4693 L 22.2109,24.4693 L 22.2531,24.4693 L 22.2952,24.4693 L 22.3374,24.4693 L 22.3795,24.4693 L 22.4357,24.4693 L 22.4778,24.4693 L 22.5200,24.4693 L 22.5762,24.4693 L 22.6183,24.4693 L 22.6605,24.4693 L 22.7026,24.4693 L 22.7448,24.4693 L 22.7869,24.4693 L 22.8150,24.4693 L 22.8431,24.4693 L 22.8853,24.4693 L 22.8993,24.4693 L 22.9274,24.4693 L 22.9415,24.4693 L 22.9555,24.4693 L 22.9695,24.4693 L 22.9695,24.4553 L 22.9695,24.4413 L 22.9695,24.4273 L 22.9695,24.4133 L 22.9695,24.3993 L 22.9695,24.3853 L 22.9695,24.3713 L 22.9695,24.3573 L 22.9695,24.3433 L 22.9695,24.3153 L 22.9695,24.3013 L 22.9695,24.2873 L 22.9695,24.2733 L 22.9695,24.2593 L 22.9695,24.2313 L 22.9695,24.2173 L 22.9695,24.2033 L 22.9695,24.1893 L 22.9695,24.1753 L 22.9695,24.1613 L 22.9695,24.1473 L 22.9695,24.1333 L 22.9695,24.1193 L 22.9695,24.1053 L 22.9555,24.1053 L 22.9415,24.1053 L 22.9274,24.1053 L 22.8993,24.1053 L 22.8712,24.1053 L 22.8431,24.1053 L 22.8010,24.1053 L 22.7588,24.1053 L 22.7167,24.1053 L 22.6745,24.1053 L 22.6324,24.1053 L 22.5902,24.1053 L 22.5340,24.1053 L 22.4919,24.1053 L 22.4357,24.1053 L 22.3795,24.1053 L 22.3374,24.1053 L 22.2812,24.1053 L 22.2390,24.1053 L 22.1969,24.1053 L 22.1547,24.1053 L 22.1126,24.1053 L 22.0704,24.1053 L 22.0283,24.1053 L 22.0002,24.1053 L 21.9721,24.1053 L 21.9440,24.1053 L 21.9299,24.1053 L 21.9159,24.1053 L 21.9019,24.1053 L 21.8878,24.1053 L 21.8738,24.1053 L 21.8738,24.1193 L 21.8597,24.1193 L 21.8597,24.1333 L 21.8457,24.1333 L 21.8457,24.1473 L 21.8316,24.1473 L 21.8316,24.1613 L 21.8316,24.1753 L 21.8316,24.1893 L 21.8316,24.2033 L 21.8316,24.2173 L 21.8316,24.2453 L 21.8316,24.2733 L 21.8316,24.3153 L 21.8316,24.3573 L 21.8316,24.3993 L 21.8316,24.4413 L 21.8316,24.4833 L 21.8316,24.5393 L 21.8316,24.5813 L 21.8316,24.6373 L 21.8316,24.6933 L 21.8316,24.7493 L 21.8316,24.7913 L 21.8316,24.8472 L 21.8316,24.9032 L 21.8316,24.9452 L 21.8316,25.0012 L 21.8316,25.0432 L 21.8316,25.0852 L 21.8316,25.1272 L 21.8316,25.1692 L 21.8316,25.2112 L 21.8316,25.2392 L 21.8316,25.2672 L 21.8316,25.2812 L 21.8316,25.2952 L 21.8316,25.3092 L 21.8316,25.3232 L 21.8316,25.3372 L 21.8457,25.3372 L 21.8457,25.3512 L 21.8457,25.3652 L 21.8597,25.3652 L 21.8597,25.3792 L 21.8738,25.3792 L 21.8597,25.3792 L 21.8457,25.3792 L 21.8316,25.3792 L 21.8176,25.3792 L 21.8035,25.3792 L 21.7895,25.3792 L 21.7754,25.3792 L 21.7614,25.3792 L 21.7473,25.3792 L 21.7333,25.3792 L 21.7192,25.3792 L 21.7052,25.3792 L 21.6911,25.3792 L 21.6771,25.3792 L 21.6630,25.3792 L 21.6490,25.3792 L 21.6349,25.3792 L 21.6209,25.3792 L 21.6068,25.3792 L 21.5928,25.3792 L 21.5787,25.3792 L 21.5647,25.3792 L 21.5506,25.3792 L 21.5366,25.3792 L 21.5225,25.3652 L 21.5085,25.3652 L 21.5085,25.3512 L 21.4944,25.3512 L 21.4944,25.3372 L 21.4804,25.3232 L 21.4804,25.3092 L 21.4804,25.2952 L 21.4804,25.2812 L 21.4804,25.2532 L 21.4804,25.2392 L 21.4804,25.1972 L 21.4804,25.1692 L 21.4804,25.1132 L 21.4804,25.0712 L 21.4804,25.0152 L 21.4804,24.9592 L 21.4804,24.9032 L 21.4804,24.8472 L 21.4804,24.7773 L 21.4804,24.7213 L 21.4804,24.6513 L 21.4804,24.5813 L 21.4804,24.5113 L 21.4804,24.4413 L 21.4804,24.3853 L 21.4804,24.3153 L 21.4804,24.2593 L 21.4804,24.2033 L 21.4804,24.1473 L 21.4804,24.0913 L 21.4804,24.0493 L 21.4804,23.9933 L 21.4804,23.9653 L 21.4804,23.9233 L 21.4804,23.9093 L 21.4804,23.8814 L 21.4804,23.8674 L 21.4804,23.8534 L 21.4804,23.8394 L 21.4944,23.8254 L 21.4944,23.8114 L 21.5085,23.8114 L 21.5085,23.7974 L 21.5225,23.7974 L 21.5366,23.7834 L 21.5506,23.7834 L 21.5647,23.7834 L 21.5787,23.7834 L 21.6068,23.7834 L 21.6349,23.7834 L 21.6771,23.7834 L 21.7192,23.7834 L 21.7614,23.7834 L 21.8176,23.7834 L 21.8878,23.7834 L 21.9440,23.7834 L 22.0142,23.7834 L 22.0845,23.7834 L 22.1688,23.7834 L 22.2390,23.7834 L 22.3093,23.7834 L 22.3936,23.7834 L 22.4778,23.7834 L 22.5481,23.7834 L 22.6183,23.7834 L 22.7026,23.7834 L 22.7729,23.7834 L 22.8431,23.7834 L 22.8993,23.7834 L 22.9695,23.7834 L 23.0257,23.7834 L 23.0679,23.7834 L 23.1100,23.7834 L 23.1522,23.7834 L 23.1803,23.7834 L 23.2084,23.7834 L 23.2224,23.7834 L 23.2365,23.7834 L 23.2505,23.7834 L 23.2646,23.7834 L 23.2646,23.7974 L 23.2786,23.7974 L 23.2927,23.7974 L 23.2927,23.8114 L 23.3067,23.8114 L 23.3067,23.8254 L 23.3208,23.8254 L 23.3208,23.8394 L 23.3348,23.8394 L 23.3348,23.8534 L 23.3348,23.8674 L 23.3348,23.8814 L 23.3348,23.8954 L 23.3348,23.9233 L 23.3348,23.9373 L 23.3348,23.9653 L 23.3348,23.9933 L 23.3348,24.0213 L 23.3348,24.0493 L 23.3348,24.0773 L 23.3348,24.1053 L 23.3348,24.1473 L 23.3348,24.1753 L 23.3348,24.2173 L 23.3348,24.2593 L 23.3348,24.2873 L 23.3348,24.3293 L 23.3348,24.3573 L 23.3348,24.3993 L 23.3348,24.4273 L 23.3348,24.4553 L 23.3348,24.4833 L 23.3348,24.5113 L 23.3348,24.5393 L 23.3348,24.5673 L 23.3348,24.5813 L 23.3348,24.6093 L 23.3348,24.6233 L 23.3348,24.6373 L 23.3348,24.6513 L 23.3208,24.6513 L 23.3208,24.6653 L 23.3208,24.6793 L 23.3067,24.6793 L 23.3067,24.6933 L 23.2927,24.6933 L 23.2927,24.7073 L 23.2786,24.7073 L 23.2786,24.7213 L 23.2646,24.7213 L 23.2646,24.7353 L 23.2505,24.7353 L 23.2505,24.7493 L 23.2365,24.7493 L 23.2365,24.7633 L 23.2224,24.7633 L 23.2365,24.7773 L 23.2365,24.7913 L 23.2505,24.7913 L 23.2505,24.8052 L 23.2646,24.8052 L 23.2646,24.8192 L 23.2786,24.8192 L 23.2786,24.8332 L 23.2927,24.8332 L 23.2927,24.8472 L 23.3067,24.8472 L 23.3067,24.8612 L 23.3208,24.8752 L 23.3208,24.8892 L 23.3348,24.9032 L 23.3348,24.9172 L 23.3348,24.9312 L 23.3348,24.9452 L 23.3348,24.9592 L 23.3348,24.9732 L 23.3348,24.9872 L 23.3348,25.0012 L 23.3348,25.0292 L 23.3348,25.0432 L 23.3348,25.0572 L 23.3348,25.0712 L 23.3348,25.0992 L 23.3348,25.1132 L 23.3348,25.1272 L 23.3348,25.1552 L 23.3348,25.1692 L 23.3348,25.1832 L 23.3348,25.1972 L 23.3348,25.2252 L 23.3348,25.2392 L 23.3348,25.2532 L 23.3348,25.2672 L 23.3348,25.2812 L 23.3348,25.2952 L 23.3348,25.3092 L 23.3348,25.3232 L 23.3348,25.3372 L 23.3348,25.3512 L 23.3489,25.3512 L 23.3489,25.3652 L 23.3629,25.3652 L 23.3629,25.3792 L 23.3770,25.3792 L 23.3629,25.3792 L 23.3489,25.3792 L 23.3348,25.3792 L 23.3208,25.3792 L 23.3067,25.3792 L 23.2927,25.3792 L 23.2786,25.3792 L 23.2646,25.3792 L 23.2505,25.3792 L 23.2365,25.3792 L 23.2224,25.3792 L 23.1943,25.3792 L 23.1803,25.3792 L 23.1662,25.3792 L 23.1522,25.3792 L 23.1381,25.3792 L 23.1241,25.3792 L 23.1100,25.3792 L 23.0960,25.3792 L 23.0819,25.3792 L 23.0679,25.3792 L 23.0538,25.3792 L 23.0398,25.3792 L 23.0257,25.3792 L 23.0257,25.3652 L 23.0117,25.3652 L 22.9976,25.3652 L 22.9976,25.3512 L 22.9836,25.3512 L 22.9836,25.3372 L 22.9836,25.3232 L 22.9695,25.3232 L 22.9695,25.3092 L 22.9695,25.2952 L 22.9695,25.2812 L 22.9695,25.2672 L 22.9695,25.2532 L 22.9695,25.2392 L 22.9695,25.2252 L 22.9695,25.2112 L 22.9695,25.1832 L 22.9695,25.1692 L 22.9695,25.1552 L 22.9695,25.1412 L 22.9695,25.1272 L 22.9695,25.0992 L 22.9695,25.0852 L 22.9695,25.0572 L 22.9695,25.0432 L 22.9695,25.0152 L 22.9695,24.9872 L 22.9695,24.9732 L 22.9695,24.9452 L 22.9695,24.9172 L 22.9695,24.9032 L 22.9695,24.8752 L 22.9695,24.8472 L 22.9695,24.8192 L 22.9695,24.7913 L 22.9695,24.7633 L 22.9555,24.7633 L 22.9415,24.7633 L 22.9274,24.7633 L 22.8993,24.7633 L 22.8853,24.7633 L 22.8431,24.7633 L 22.8150,24.7633 L 22.7869,24.7633 L 22.7448,24.7633 L 22.7026,24.7633 L 22.6605,24.7633 L 22.6183,24.7633 L 22.5762,24.7633 L 22.5200,24.7633 L 22.4778,24.7633 L 22.4357,24.7633 L 22.3795,24.7633 L 22.3374,24.7633 L 22.2952,24.7633 L 22.2531,24.7633 L 22.2109,24.7633 L 22.1688,24.7633 L 22.1407,24.7633 L 22.1126,24.7633 L 22.0704,24.7633 L 22.0564,24.7633 L 22.0283,24.7633 L 22.0142,24.7633 L 22.0002,24.7633 L 21.9861,24.7633 Z" stroke="#7F7F7F" stroke-width="0.1197" stroke-linecap="round" stroke-linejoin="round" fill="#7F7F7F"/>
        <path d="M 23.9530,24.1053 L 23.9249,24.1053 L 23.9108,24.1053 L 23.8827,24.1053 L 23.8687,24.1053 L 23.8406,24.1053 L 23.8265,24.1053 L 23.8125,24.1053 L 23.7844,24.1053 L 23.7703,24.1053 L 23.7563,24.1053 L 23.7422,24.1053 L 23.7282,24.1053 L 23.7141,24.1053 L 23.7001,24.1053 L 23.6860,24.1053 L 23.6720,24.1053 L 23.6579,24.1053 L 23.6439,24.1053 L 23.6298,24.1053 L 23.6158,24.1053 L 23.6017,24.1053 L 23.5877,24.1053 L 23.5736,24.1053 L 23.5596,24.1053 L 23.5596,24.0913 L 23.5455,24.0913 L 23.5315,24.0773 L 23.5315,24.0633 L 23.5174,24.0633 L 23.5174,24.0493 L 23.5034,24.0493 L 23.5034,24.0353 L 23.5034,24.0213 L 23.4893,24.0213 L 23.4893,24.0073 L 23.4893,23.9933 L 23.4893,23.9793 L 23.4893,23.9653 L 23.4893,23.9513 L 23.4893,23.9373 L 23.4893,23.9233 L 23.4893,23.9093 L 23.4893,23.8954 L 23.4893,23.8814 L 23.4893,23.8674 L 23.4893,23.8534 L 23.4893,23.8394 L 23.5034,23.8394 L 23.5034,23.8254 L 23.5174,23.8254 L 23.5174,23.8114 L 23.5315,23.8114 L 23.5315,23.7974 L 23.5455,23.7974 L 23.5596,23.7974 L 23.5596,23.7834 L 23.5736,23.7834 L 23.5877,23.7834 L 23.6017,23.7834 L 23.6298,23.7834 L 23.6579,23.7834 L 23.7001,23.7834 L 23.7422,23.7834 L 23.7844,23.7834 L 23.8406,23.7834 L 23.9108,23.7834 L 23.9670,23.7834 L 24.0372,23.7834 L 24.1075,23.7834 L 24.1918,23.7834 L 24.2620,23.7834 L 24.3323,23.7834 L 24.4166,23.7834 L 24.5009,23.7834 L 24.5711,23.7834 L 24.6413,23.7834 L 24.7256,23.7834 L 24.7959,23.7834 L 24.8661,23.7834 L 24.9223,23.7834 L 24.9926,23.7834 L 25.0487,23.7834 L 25.0909,23.7834 L 25.1330,23.7834 L 25.1752,23.7834 L 25.2033,23.7834 L 25.2314,23.7834 L 25.2454,23.7834 L 25.2595,23.7834 L 25.2735,23.7834 L 25.2735,23.7974 L 25.2876,23.7974 L 25.3016,23.7974 L 25.3016,23.8114 L 25.3157,23.8114 L 25.3157,23.8254 L 25.3297,23.8254 L 25.3297,23.8394 L 25.3438,23.8394 L 25.3438,23.8534 L 25.3438,23.8674 L 25.3438,23.8814 L 25.3438,23.8954 L 25.3438,23.9093 L 25.3438,23.9233 L 25.3438,23.9373 L 25.3438,23.9513 L 25.3438,23.9653 L 25.3438,23.9793 L 25.3438,23.9933 L 25.3438,24.0073 L 25.3438,24.0213 L 25.3438,24.0353 L 25.3438,24.0493 L 25.3438,24.0633 L 25.3438,24.0773 L 25.3438,24.0913 L 25.3438,24.1053 L 25.3438,24.1193 L 25.3438,24.1333 L 25.3438,24.1473 L 25.3438,24.1613 L 25.3438,24.1753 L 25.3438,24.1613 L 25.3438,24.1473 L 25.3297,24.1473 L 25.3297,24.1333 L 25.3157,24.1333 L 25.3157,24.1193 L 25.3016,24.1193 L 25.2876,24.1053 L 25.2735,24.1053 L 25.2595,24.1053 L 25.2454,24.1053 L 25.2173,24.1053 L 25.2033,24.1053 L 25.1892,24.1053 L 25.1611,24.1053 L 25.1471,24.1053 L 25.1190,24.1053 L 25.0909,24.1053 L 25.0628,24.1053 L 25.0347,24.1053 L 25.0066,24.1053 L 24.9785,24.1053 L 24.9364,24.1053 L 24.9083,24.1053 L 24.8661,24.1053 L 24.8380,24.1053 L 24.7959,24.1053 L 24.7678,24.1053 L 24.7256,24.1053 L 24.6835,24.1053 L 24.6554,24.1053 L 24.6132,24.1053 L 24.5711,24.1053 L 24.5289,24.1053 L 24.5009,24.1053 L 24.4587,24.1053 L 24.4306,24.1053 L 24.3885,24.1053 L 24.3744,24.1053 L 24.3604,24.1053 L 24.3463,24.1053 L 24.3463,24.1193 L 24.3323,24.1193 L 24.3323,24.1333 L 24.3182,24.1333 L 24.3182,24.1473 L 24.3182,24.1613 L 24.3182,24.1753 L 24.3182,24.1893 L 24.3182,24.2033 L 24.3182,24.2173 L 24.3182,24.2453 L 24.3182,24.2733 L 24.3182,24.3153 L 24.3182,24.3573 L 24.3182,24.3993 L 24.3182,24.4413 L 24.3182,24.4833 L 24.3182,24.5393 L 24.3182,24.5813 L 24.3182,24.6373 L 24.3182,24.6933 L 24.3182,24.7493 L 24.3182,24.7913 L 24.3182,24.8472 L 24.3182,24.9032 L 24.3182,24.9452 L 24.3182,25.0012 L 24.3182,25.0432 L 24.3182,25.0852 L 24.3182,25.1272 L 24.3182,25.1692 L 24.3182,25.2112 L 24.3182,25.2392 L 24.3182,25.2672 L 24.3182,25.2812 L 24.3182,25.2952 L 24.3182,25.3092 L 24.3182,25.3232 L 24.3182,25.3372 L 24.3182,25.3512 L 24.3323,25.3512 L 24.3323,25.3652 L 24.3463,25.3652 L 24.3463,25.3792 L 24.3604,25.3792 L 24.3463,25.3792 L 24.3323,25.3792 L 24.3182,25.3792 L 24.3042,25.3792 L 24.2901,25.3792 L 24.2761,25.3792 L 24.2620,25.3792 L 24.2480,25.3792 L 24.2339,25.3792 L 24.2199,25.3792 L 24.2058,25.3792 L 24.1918,25.3792 L 24.1777,25.3792 L 24.1637,25.3792 L 24.1496,25.3792 L 24.1356,25.3792 L 24.1215,25.3792 L 24.1075,25.3792 L 24.0934,25.3792 L 24.0794,25.3792 L 24.0653,25.3792 L 24.0513,25.3792 L 24.0372,25.3792 L 24.0232,25.3792 L 24.0091,25.3792 L 23.9951,25.3792 L 23.9951,25.3652 L 23.9811,25.3652 L 23.9811,25.3512 L 23.9670,25.3512 L 23.9670,25.3372 L 23.9530,25.3232 L 23.9530,25.3092 L 23.9530,25.2952 L 23.9530,25.2812 L 23.9530,25.2532 L 23.9530,25.2392 L 23.9530,25.2112 L 23.9530,25.1832 L 23.9530,25.1552 L 23.9530,25.1272 L 23.9530,25.0992 L 23.9530,25.0572 L 23.9530,25.0152 L 23.9530,24.9732 L 23.9530,24.9312 L 23.9530,24.8892 L 23.9530,24.8332 L 23.9530,24.7913 L 23.9530,24.7353 L 23.9530,24.6933 L 23.9530,24.6373 L 23.9530,24.5953 L 23.9530,24.5393 L 23.9530,24.4973 L 23.9530,24.4413 L 23.9530,24.3993 L 23.9530,24.3433 L 23.9530,24.3013 L 23.9530,24.2593 L 23.9530,24.2173 L 23.9530,24.1753 L 23.9530,24.1473 L 23.9530,24.1053 Z" stroke="#7F7F7F" stroke-width="0.1197" stroke-linecap="round" stroke-linejoin="round" fill="#7F7F7F"/>
        <path d="M 25.8917,25.3092 L 25.8917,25.3232 L 25.9057,25.3232 L 25.9057,25.3372 L 25.9198,25.3372 L 25.9198,25.3512 L 25.9338,25.3512 L 25.9338,25.3652 L 25.9479,25.3652 L 25.9619,25.3792 L 25.9760,25.3792 L 25.9619,25.3792 L 25.9479,25.3792 L 25.9338,25.3792 L 25.9198,25.3792 L 25.9057,25.3792 L 25.8917,25.3792 L 25.8776,25.3792 L 25.8636,25.3792 L 25.8495,25.3792 L 25.8355,25.3792 L 25.8214,25.3792 L 25.8074,25.3792 L 25.7793,25.3792 L 25.7652,25.3792 L 25.7512,25.3792 L 25.7371,25.3792 L 25.7231,25.3792 L 25.7090,25.3792 L 25.6950,25.3792 L 25.6809,25.3792 L 25.6669,25.3792 L 25.6528,25.3792 L 25.6388,25.3792 L 25.6247,25.3792 L 25.6107,25.3792 L 25.5966,25.3792 L 25.5966,25.3652 L 25.5826,25.3652 L 25.5685,25.3512 L 25.5685,25.3372 L 25.5545,25.3372 L 25.5545,25.3232 L 25.5405,25.3232 L 25.5405,25.3092 L 25.5405,25.2952 L 25.5405,25.2812 L 25.5405,25.2532 L 25.5405,25.2392 L 25.5405,25.1972 L 25.5405,25.1552 L 25.5405,25.1132 L 25.5405,25.0712 L 25.5405,25.0152 L 25.5405,24.9592 L 25.5405,24.9032 L 25.5405,24.8332 L 25.5405,24.7773 L 25.5405,24.7073 L 25.5405,24.6373 L 25.5405,24.5813 L 25.5405,24.5113 L 25.5405,24.4413 L 25.5405,24.3713 L 25.5405,24.3153 L 25.5405,24.2453 L 25.5405,24.1893 L 25.5405,24.1333 L 25.5405,24.0773 L 25.5405,24.0353 L 25.5405,23.9933 L 25.5405,23.9513 L 25.5405,23.9093 L 25.5405,23.8954 L 25.5405,23.8674 L 25.5405,23.8534 L 25.5405,23.8394 L 25.5405,23.8254 L 25.5264,23.8254 L 25.5264,23.8114 L 25.5124,23.8114 L 25.5124,23.7974 L 25.4983,23.7974 L 25.4843,23.7834 L 25.4702,23.7834 L 25.4562,23.7834 L 25.4702,23.7834 L 25.4843,23.7834 L 25.4983,23.7834 L 25.5124,23.7834 L 25.5264,23.7834 L 25.5405,23.7834 L 25.5545,23.7834 L 25.5685,23.7834 L 25.5826,23.7834 L 25.5966,23.7834 L 25.6107,23.7834 L 25.6247,23.7834 L 25.6388,23.7834 L 25.6528,23.7834 L 25.6669,23.7834 L 25.6809,23.7834 L 25.6950,23.7834 L 25.7090,23.7834 L 25.7231,23.7834 L 25.7371,23.7834 L 25.7512,23.7834 L 25.7652,23.7834 L 25.7793,23.7834 L 25.7933,23.7834 L 25.8074,23.7834 L 25.8214,23.7834 L 25.8214,23.7974 L 25.8355,23.7974 L 25.8495,23.7974 L 25.8495,23.8114 L 25.8636,23.8114 L 25.8636,23.8254 L 25.8776,23.8254 L 25.8776,23.8394 L 25.8917,23.8394 L 25.8917,23.8534 L 25.8917,23.8674 L 25.8917,23.8814 L 25.8917,23.9093 L 25.8917,23.9233 L 25.8917,23.9653 L 25.8917,24.0073 L 25.8917,24.0493 L 25.8917,24.0913 L 25.8917,24.1473 L 25.8917,24.2033 L 25.8917,24.2593 L 25.8917,24.3293 L 25.8917,24.3853 L 25.8917,24.4553 L 25.8917,24.5253 L 25.8917,24.5953 L 25.8917,24.6513 L 25.8917,24.7213 L 25.8917,24.7913 L 25.8917,24.8472 L 25.8917,24.9172 L 25.8917,24.9732 L 25.8917,25.0292 L 25.8917,25.0852 L 25.8917,25.1272 L 25.8917,25.1692 L 25.8917,25.2112 L 25.8917,25.2532 L 25.8917,25.2672 L 25.8917,25.2952 L 25.8917,25.3092 Z" stroke="#7F7F7F" stroke-width="0.1197" stroke-linecap="round" stroke-linejoin="round" fill="#7F7F7F"/>
        <path d="M 27.7320,24.1053 L 27.6899,24.1053 L 27.6477,24.1053 L 27.6056,24.1053 L 27.5635,24.1053 L 27.5213,24.1053 L 27.4792,24.1053 L 27.4370,24.1053 L 27.3808,24.1053 L 27.3387,24.1053 L 27.2965,24.1053 L 27.2544,24.1053 L 27.2122,24.1053 L 27.1701,24.1053 L 27.1279,24.1053 L 27.0858,24.1053 L 27.0437,24.1053 L 27.0015,24.1053 L 26.9594,24.1053 L 26.9313,24.1053 L 26.8891,24.1053 L 26.8610,24.1053 L 26.8329,24.1053 L 26.8048,24.1053 L 26.7767,24.1053 L 26.7486,24.1053 L 26.7205,24.1053 L 26.7065,24.1053 L 26.6924,24.1053 L 26.6784,24.1053 L 26.6643,24.1053 L 26.6503,24.1053 L 26.6362,24.1053 L 26.6362,24.1193 L 26.6222,24.1193 L 26.6222,24.1333 L 26.6081,24.1333 L 26.6081,24.1473 L 26.5941,24.1473 L 26.5941,24.1613 L 26.5941,24.1753 L 26.5941,24.1893 L 26.5941,24.2033 L 26.5941,24.2173 L 26.5941,24.2453 L 26.5941,24.2733 L 26.5941,24.3153 L 26.5941,24.3573 L 26.5941,24.3993 L 26.5941,24.4413 L 26.5941,24.4833 L 26.5941,24.5393 L 26.5941,24.5813 L 26.5941,24.6373 L 26.5941,24.6933 L 26.5941,24.7493 L 26.5941,24.7913 L 26.5941,24.8472 L 26.5941,24.9032 L 26.5941,24.9452 L 26.5941,25.0012 L 26.5941,25.0432 L 26.5941,25.0852 L 26.5941,25.1272 L 26.5941,25.1692 L 26.5941,25.2112 L 26.5941,25.2392 L 26.5941,25.2672 L 26.5941,25.2812 L 26.5941,25.2952 L 26.5941,25.3092 L 26.5941,25.3232 L 26.5941,25.3372 L 26.6081,25.3372 L 26.6081,25.3512 L 26.6081,25.3652 L 26.6222,25.3652 L 26.6222,25.3792 L 26.6362,25.3792 L 26.6222,25.3792 L 26.6081,25.3792 L 26.5941,25.3792 L 26.5801,25.3792 L 26.5660,25.3792 L 26.5520,25.3792 L 26.5379,25.3792 L 26.5239,25.3792 L 26.5098,25.3792 L 26.4958,25.3792 L 26.4817,25.3792 L 26.4677,25.3792 L 26.4536,25.3792 L 26.4396,25.3792 L 26.4255,25.3792 L 26.4115,25.3792 L 26.3974,25.3792 L 26.3834,25.3792 L 26.3693,25.3792 L 26.3553,25.3792 L 26.3412,25.3792 L 26.3272,25.3792 L 26.3131,25.3792 L 26.2991,25.3792 L 26.2850,25.3652 L 26.2710,25.3652 L 26.2710,25.3512 L 26.2569,25.3512 L 26.2569,25.3372 L 26.2429,25.3232 L 26.2429,25.3092 L 26.2429,25.2952 L 26.2429,25.2812 L 26.2429,25.2532 L 26.2429,25.2392 L 26.2429,25.1972 L 26.2429,25.1692 L 26.2429,25.1132 L 26.2429,25.0712 L 26.2429,25.0152 L 26.2429,24.9592 L 26.2429,24.9032 L 26.2429,24.8472 L 26.2429,24.7773 L 26.2429,24.7213 L 26.2429,24.6513 L 26.2429,24.5813 L 26.2429,24.5113 L 26.2429,24.4413 L 26.2429,24.3853 L 26.2429,24.3153 L 26.2429,24.2593 L 26.2429,24.2033 L 26.2429,24.1473 L 26.2429,24.0913 L 26.2429,24.0493 L 26.2429,23.9933 L 26.2429,23.9653 L 26.2429,23.9233 L 26.2429,23.9093 L 26.2429,23.8814 L 26.2429,23.8674 L 26.2429,23.8534 L 26.2429,23.8394 L 26.2569,23.8254 L 26.2569,23.8114 L 26.2710,23.8114 L 26.2710,23.7974 L 26.2850,23.7974 L 26.2991,23.7834 L 26.3131,23.7834 L 26.3272,23.7834 L 26.3412,23.7834 L 26.3693,23.7834 L 26.3974,23.7834 L 26.4396,23.7834 L 26.4817,23.7834 L 26.5239,23.7834 L 26.5801,23.7834 L 26.6503,23.7834 L 26.7065,23.7834 L 26.7767,23.7834 L 26.8470,23.7834 L 26.9313,23.7834 L 27.0015,23.7834 L 27.0718,23.7834 L 27.1560,23.7834 L 27.2403,23.7834 L 27.3106,23.7834 L 27.3808,23.7834 L 27.4651,23.7834 L 27.5354,23.7834 L 27.6056,23.7834 L 27.6618,23.7834 L 27.7320,23.7834 L 27.7882,23.7834 L 27.8304,23.7834 L 27.8725,23.7834 L 27.9147,23.7834 L 27.9428,23.7834 L 27.9709,23.7834 L 27.9849,23.7834 L 27.9990,23.7834 L 28.0130,23.7834 L 28.0271,23.7834 L 28.0271,23.7974 L 28.0411,23.7974 L 28.0552,23.7974 L 28.0552,23.8114 L 28.0692,23.8114 L 28.0692,23.8254 L 28.0833,23.8254 L 28.0833,23.8394 L 28.0973,23.8394 L 28.0973,23.8534 L 28.0973,23.8674 L 28.0973,23.8814 L 28.0973,23.9093 L 28.0973,23.9233 L 28.0973,23.9653 L 28.0973,24.0073 L 28.0973,24.0493 L 28.0973,24.0913 L 28.0973,24.1473 L 28.0973,24.2033 L 28.0973,24.2593 L 28.0973,24.3293 L 28.0973,24.3853 L 28.0973,24.4553 L 28.0973,24.5253 L 28.0973,24.5953 L 28.0973,24.6513 L 28.0973,24.7213 L 28.0973,24.7913 L 28.0973,24.8472 L 28.0973,24.9172 L 28.0973,24.9732 L 28.0973,25.0292 L 28.0973,25.0852 L 28.0973,25.1272 L 28.0973,25.1692 L 28.0973,25.2112 L 28.0973,25.2532 L 28.0973,25.2672 L 28.0973,25.2952 L 28.0973,25.3092 L 28.0973,25.3232 L 28.0973,25.3372 L 28.0973,25.3512 L 28.1114,25.3512 L 28.1114,25.3652 L 28.1254,25.3652 L 28.1254,25.3792 L 28.1395,25.3792 L 28.1254,25.3792 L 28.1114,25.3792 L 28.0973,25.3792 L 28.0833,25.3792 L 28.0692,25.3792 L 28.0552,25.3792 L 28.0411,25.3792 L 28.0271,25.3792 L 28.0130,25.3792 L 27.9990,25.3792 L 27.9849,25.3792 L 27.9568,25.3792 L 27.9428,25.3792 L 27.9287,25.3792 L 27.9147,25.3792 L 27.9006,25.3792 L 27.8866,25.3792 L 27.8725,25.3792 L 27.8585,25.3792 L 27.8444,25.3792 L 27.8304,25.3792 L 27.8163,25.3792 L 27.8023,25.3792 L 27.7882,25.3792 L 27.7882,25.3652 L 27.7742,25.3652 L 27.7601,25.3652 L 27.7601,25.3512 L 27.7461,25.3512 L 27.7461,25.3372 L 27.7461,25.3232 L 27.7320,25.3232 L 27.7320,25.3092 L 27.7320,25.2952 L 27.7320,25.2812 L 27.7320,25.2532 L 27.7320,25.2392 L 27.7320,25.2112 L 27.7320,25.1832 L 27.7320,25.1552 L 27.7320,25.1272 L 27.7320,25.0992 L 27.7320,25.0572 L 27.7320,25.0152 L 27.7320,24.9732 L 27.7320,24.9312 L 27.7320,24.8892 L 27.7320,24.8332 L 27.7320,24.7913 L 27.7320,24.7353 L 27.7320,24.6933 L 27.7320,24.6373 L 27.7320,24.5953 L 27.7320,24.5393 L 27.7320,24.4973 L 27.7320,24.4413 L 27.7320,24.3993 L 27.7320,24.3433 L 27.7320,24.3013 L 27.7320,24.2593 L 27.7320,24.2173 L 27.7320,24.1753 L 27.7320,24.1473 L 27.7320,24.1053 Z" stroke="#7F7F7F" stroke-width="0.1197" stroke-linecap="round" stroke-linejoin="round" fill="#7F7F7F"/>
        <path d="M 29.9236,24.4693 L 29.8955,24.4693 L 29.8674,24.4693 L 29.8253,24.4693 L 29.7831,24.4693 L 29.7550,24.4693 L 29.7129,24.4693 L 29.6708,24.4693 L 29.6146,24.4693 L 29.5724,24.4693 L 29.5303,24.4693 L 29.4881,24.4693 L 29.4319,24.4693 L 29.3898,24.4693 L 29.3336,24.4693 L 29.2914,24.4693 L 29.2493,24.4693 L 29.1931,24.4693 L 29.1510,24.4693 L 29.1088,24.4693 L 29.0667,24.4693 L 29.0245,24.4693 L 28.9964,24.4693 L 28.9543,24.4693 L 28.9262,24.4693 L 28.8981,24.4693 L 28.8700,24.4693 L 28.8419,24.4693 L 28.8278,24.4693 L 28.8138,24.4693 L 28.7997,24.4693 L 28.7857,24.4693 L 28.7716,24.4693 L 28.7576,24.4693 L 28.7576,24.4553 L 28.7435,24.4553 L 28.7435,24.4413 L 28.7295,24.4413 L 28.7154,24.4273 L 28.7154,24.4133 L 28.7014,24.4133 L 28.7014,24.3993 L 28.7014,24.3853 L 28.7014,24.3993 L 28.7014,24.4133 L 28.7014,24.4273 L 28.7014,24.4413 L 28.7014,24.4553 L 28.7014,24.4693 L 28.7014,24.4833 L 28.7014,24.4973 L 28.7014,24.5113 L 28.7014,24.5253 L 28.7014,24.5393 L 28.7014,24.5533 L 28.7014,24.5673 L 28.7014,24.5813 L 28.7014,24.5953 L 28.7014,24.6093 L 28.7014,24.6233 L 28.7014,24.6373 L 28.7014,24.6513 L 28.7014,24.6653 L 28.7014,24.6793 L 28.7014,24.6933 L 28.7014,24.7073 L 28.7154,24.7073 L 28.7154,24.7213 L 28.7154,24.7353 L 28.7295,24.7353 L 28.7295,24.7493 L 28.7435,24.7493 L 28.7576,24.7493 L 28.7576,24.7633 L 28.7716,24.7633 L 28.7857,24.7633 L 28.7997,24.7633 L 28.8138,24.7633 L 28.8278,24.7633 L 28.8419,24.7633 L 28.8700,24.7633 L 28.8981,24.7633 L 28.9262,24.7633 L 28.9543,24.7633 L 28.9964,24.7633 L 29.0386,24.7633 L 29.0807,24.7633 L 29.1229,24.7633 L 29.1650,24.7633 L 29.2072,24.7633 L 29.2493,24.7633 L 29.3055,24.7633 L 29.3476,24.7633 L 29.4038,24.7633 L 29.4460,24.7633 L 29.4881,24.7633 L 29.5443,24.7633 L 29.5865,24.7633 L 29.6286,24.7633 L 29.6708,24.7633 L 29.7129,24.7633 L 29.7550,24.7633 L 29.7972,24.7633 L 29.8393,24.7633 L 29.8674,24.7633 L 29.8955,24.7633 L 29.9236,24.7633 L 29.9377,24.7493 L 29.9517,24.7353 L 29.9658,24.7353 L 29.9798,24.7213 L 29.9798,24.7073 L 29.9939,24.6933 L 30.0079,24.6793 L 30.0079,24.6653 L 30.0220,24.6653 L 30.0220,24.6513 L 30.0220,24.6373 L 30.0220,24.6233 L 30.0360,24.6093 L 30.0360,24.5953 L 30.0360,24.5813 L 30.0220,24.5673 L 30.0220,24.5533 L 30.0220,24.5393 L 30.0079,24.5253 L 30.0079,24.5113 L 29.9939,24.5113 L 29.9939,24.4973 L 29.9798,24.4973 L 29.9658,24.4833 L 29.9517,24.4833 L 29.9377,24.4693 L 29.9236,24.4693 Z" stroke="#7F7F7F" stroke-width="0.1197" stroke-linecap="round" stroke-linejoin="round" fill="#7F7F7F"/>
        <path d="M 30.7946,24.1053 L 30.7666,24.1053 L 30.7525,24.1053 L 30.7244,24.1053 L 30.7104,24.1053 L 30.6823,24.1053 L 30.6682,24.1053 L 30.6542,24.1053 L 30.6261,24.1053 L 30.6120,24.1053 L 30.5980,24.1053 L 30.5839,24.1053 L 30.5699,24.1053 L 30.5558,24.1053 L 30.5418,24.1053 L 30.5277,24.1053 L 30.5137,24.1053 L 30.4996,24.1053 L 30.4856,24.1053 L 30.4715,24.1053 L 30.4575,24.1053 L 30.4434,24.1053 L 30.4294,24.1053 L 30.4153,24.1053 L 30.4013,24.1053 L 30.4013,24.0913 L 30.3872,24.0913 L 30.3732,24.0773 L 30.3732,24.0633 L 30.3591,24.0633 L 30.3591,24.0493 L 30.3451,24.0493 L 30.3451,24.0353 L 30.3451,24.0213 L 30.3310,24.0213 L 30.3310,24.0073 L 30.3310,23.9933 L 30.3310,23.9793 L 30.3310,23.9653 L 30.3310,23.9513 L 30.3310,23.9373 L 30.3310,23.9233 L 30.3310,23.9093 L 30.3310,23.8954 L 30.3310,23.8814 L 30.3310,23.8674 L 30.3310,23.8534 L 30.3310,23.8394 L 30.3451,23.8394 L 30.3451,23.8254 L 30.3591,23.8254 L 30.3591,23.8114 L 30.3732,23.8114 L 30.3732,23.7974 L 30.3872,23.7974 L 30.4013,23.7974 L 30.4013,23.7834 L 30.4153,23.7834 L 30.4294,23.7834 L 30.4434,23.7834 L 30.4715,23.7834 L 30.4996,23.7834 L 30.5418,23.7834 L 30.5839,23.7834 L 30.6261,23.7834 L 30.6823,23.7834 L 30.7525,23.7834 L 30.8087,23.7834 L 30.8789,23.7834 L 30.9492,23.7834 L 31.0335,23.7834 L 31.1037,23.7834 L 31.1740,23.7834 L 31.2583,23.7834 L 31.3425,23.7834 L 31.4128,23.7834 L 31.4830,23.7834 L 31.5673,23.7834 L 31.6376,23.7834 L 31.7078,23.7834 L 31.7640,23.7834 L 31.8342,23.7834 L 31.8904,23.7834 L 31.9326,23.7834 L 31.9747,23.7834 L 32.0169,23.7834 L 32.0450,23.7834 L 32.0731,23.7834 L 32.0871,23.7834 L 32.1012,23.7834 L 32.1152,23.7834 L 32.1152,23.7974 L 32.1293,23.7974 L 32.1433,23.7974 L 32.1433,23.8114 L 32.1574,23.8114 L 32.1574,23.8254 L 32.1714,23.8254 L 32.1714,23.8394 L 32.1855,23.8394 L 32.1855,23.8534 L 32.1855,23.8674 L 32.1855,23.8814 L 32.1855,23.8954 L 32.1855,23.9093 L 32.1855,23.9233 L 32.1855,23.9373 L 32.1855,23.9513 L 32.1855,23.9653 L 32.1855,23.9793 L 32.1855,23.9933 L 32.1855,24.0073 L 32.1855,24.0213 L 32.1855,24.0353 L 32.1855,24.0493 L 32.1855,24.0633 L 32.1855,24.0773 L 32.1855,24.0913 L 32.1855,24.1053 L 32.1855,24.1193 L 32.1855,24.1333 L 32.1855,24.1473 L 32.1855,24.1613 L 32.1855,24.1753 L 32.1855,24.1613 L 32.1855,24.1473 L 32.1714,24.1473 L 32.1714,24.1333 L 32.1574,24.1333 L 32.1574,24.1193 L 32.1433,24.1193 L 32.1293,24.1053 L 32.1152,24.1053 L 32.1012,24.1053 L 32.0871,24.1053 L 32.0590,24.1053 L 32.0450,24.1053 L 32.0309,24.1053 L 32.0028,24.1053 L 31.9888,24.1053 L 31.9607,24.1053 L 31.9326,24.1053 L 31.9045,24.1053 L 31.8764,24.1053 L 31.8483,24.1053 L 31.8202,24.1053 L 31.7781,24.1053 L 31.7500,24.1053 L 31.7078,24.1053 L 31.6797,24.1053 L 31.6376,24.1053 L 31.6095,24.1053 L 31.5673,24.1053 L 31.5252,24.1053 L 31.4971,24.1053 L 31.4549,24.1053 L 31.4128,24.1053 L 31.3706,24.1053 L 31.3425,24.1053 L 31.3004,24.1053 L 31.2723,24.1053 L 31.2302,24.1053 L 31.2161,24.1053 L 31.2021,24.1053 L 31.1880,24.1053 L 31.1880,24.1193 L 31.1740,24.1193 L 31.1740,24.1333 L 31.1599,24.1333 L 31.1599,24.1473 L 31.1599,24.1613 L 31.1599,24.1753 L 31.1599,24.1893 L 31.1599,24.2033 L 31.1599,24.2173 L 31.1599,24.2453 L 31.1599,24.2733 L 31.1599,24.3153 L 31.1599,24.3573 L 31.1599,24.3993 L 31.1599,24.4413 L 31.1599,24.4833 L 31.1599,24.5393 L 31.1599,24.5813 L 31.1599,24.6373 L 31.1599,24.6933 L 31.1599,24.7493 L 31.1599,24.7913 L 31.1599,24.8472 L 31.1599,24.9032 L 31.1599,24.9452 L 31.1599,25.0012 L 31.1599,25.0432 L 31.1599,25.0852 L 31.1599,25.1272 L 31.1599,25.1692 L 31.1599,25.2112 L 31.1599,25.2392 L 31.1599,25.2672 L 31.1599,25.2812 L 31.1599,25.2952 L 31.1599,25.3092 L 31.1599,25.3232 L 31.1599,25.3372 L 31.1599,25.3512 L 31.1740,25.3512 L 31.1740,25.3652 L 31.1880,25.3652 L 31.1880,25.3792 L 31.2021,25.3792 L 31.1880,25.3792 L 31.1740,25.3792 L 31.1599,25.3792 L 31.1459,25.3792 L 31.1318,25.3792 L 31.1178,25.3792 L 31.1037,25.3792 L 31.0897,25.3792 L 31.0756,25.3792 L 31.0616,25.3792 L 31.0475,25.3792 L 31.0335,25.3792 L 31.0194,25.3792 L 31.0054,25.3792 L 30.9913,25.3792 L 30.9773,25.3792 L 30.9632,25.3792 L 30.9492,25.3792 L 30.9351,25.3792 L 30.9211,25.3792 L 30.9070,25.3792 L 30.8930,25.3792 L 30.8789,25.3792 L 30.8649,25.3792 L 30.8508,25.3792 L 30.8368,25.3792 L 30.8368,25.3652 L 30.8227,25.3652 L 30.8227,25.3512 L 30.8087,25.3512 L 30.8087,25.3372 L 30.7946,25.3232 L 30.7946,25.3092 L 30.7946,25.2952 L 30.7946,25.2812 L 30.7946,25.2532 L 30.7946,25.2392 L 30.7946,25.2112 L 30.7946,25.1832 L 30.7946,25.1552 L 30.7946,25.1272 L 30.7946,25.0992 L 30.7946,25.0572 L 30.7946,25.0152 L 30.7946,24.9732 L 30.7946,24.9312 L 30.7946,24.8892 L 30.7946,24.8332 L 30.7946,24.7913 L 30.7946,24.7353 L 30.7946,24.6933 L 30.7946,24.6373 L 30.7946,24.5953 L 30.7946,24.5393 L 30.7946,24.4973 L 30.7946,24.4413 L 30.7946,24.3993 L 30.7946,24.3433 L 30.7946,24.3013 L 30.7946,24.2593 L 30.7946,24.2173 L 30.7946,24.1753 L 30.7946,24.1473 L 30.7946,24.1053 Z" stroke="#7F7F7F" stroke-width="0.1197" stroke-linecap="round" stroke-linejoin="round" fill="#7F7F7F"/>
        <path d="M 30.0501,25.0572 L 30.0641,25.0572 L 30.0782,25.0432 L 30.0922,25.0432 L 30.0922,25.0292 L 30.1063,25.0292 L 30.1063,25.0152 L 30.1203,25.0152 L 30.1203,25.0012 L 30.1203,24.9872 L 30.1203,25.0012 L 30.1203,25.0152 L 30.1203,25.0292 L 30.1203,25.0432 L 30.1203,25.0572 L 30.1203,25.0712 L 30.1203,25.0852 L 30.1203,25.0992 L 30.1203,25.1132 L 30.1203,25.1272 L 30.1203,25.1412 L 30.1203,25.1552 L 30.1203,25.1692 L 30.1203,25.1832 L 30.1203,25.1972 L 30.1203,25.2112 L 30.1203,25.2252 L 30.1203,25.2392 L 30.1203,25.2532 L 30.1203,25.2672 L 30.1203,25.2812 L 30.1203,25.2952 L 30.1203,25.3092 L 30.1203,25.3232 L 30.1063,25.3232 L 30.1063,25.3372 L 30.0922,25.3372 L 30.0922,25.3512 L 30.0782,25.3512 L 30.0782,25.3652 L 30.0641,25.3652 L 30.0501,25.3652 L 30.0501,25.3792 L 30.0360,25.3792 L 30.0220,25.3792 L 30.0079,25.3792 L 29.9798,25.3792 L 29.9517,25.3792 L 29.9096,25.3792 L 29.8674,25.3792 L 29.8253,25.3792 L 29.7691,25.3792 L 29.6989,25.3792 L 29.6427,25.3792 L 29.5724,25.3792 L 29.5022,25.3792 L 29.4179,25.3792 L 29.3476,25.3792 L 29.2774,25.3792 L 29.1931,25.3792 L 29.1088,25.3792 L 29.0386,25.3792 L 28.9683,25.3792 L 28.8840,25.3792 L 28.8138,25.3792 L 28.7435,25.3792 L 28.6873,25.3792 L 28.6171,25.3792 L 28.5609,25.3792 L 28.5188,25.3792 L 28.4766,25.3792 L 28.4345,25.3792 L 28.4064,25.3792 L 28.3783,25.3792 L 28.3642,25.3792 L 28.3502,25.3792 L 28.3361,25.3792 L 28.3361,25.3652 L 28.3221,25.3652 L 28.3080,25.3652 L 28.3080,25.3512 L 28.2940,25.3512 L 28.2940,25.3372 L 28.2799,25.3372 L 28.2799,25.3232 L 28.2659,25.3232 L 28.2659,25.3092 L 28.2659,25.2952 L 28.2659,25.2812 L 28.2659,25.2532 L 28.2659,25.2392 L 28.2659,25.1972 L 28.2659,25.1692 L 28.2659,25.1132 L 28.2659,25.0712 L 28.2659,25.0152 L 28.2659,24.9592 L 28.2659,24.9032 L 28.2659,24.8472 L 28.2659,24.7773 L 28.2659,24.7213 L 28.2659,24.6513 L 28.2659,24.5813 L 28.2659,24.5113 L 28.2659,24.4413 L 28.2659,24.3853 L 28.2659,24.3153 L 28.2659,24.2593 L 28.2659,24.2033 L 28.2659,24.1473 L 28.2659,24.0913 L 28.2659,24.0493 L 28.2659,23.9933 L 28.2659,23.9653 L 28.2659,23.9233 L 28.2659,23.9093 L 28.2659,23.8814 L 28.2659,23.8674 L 28.2659,23.8534 L 28.2659,23.8394 L 28.2799,23.8394 L 28.2799,23.8254 L 28.2940,23.8254 L 28.2940,23.8114 L 28.3080,23.8114 L 28.3080,23.7974 L 28.3221,23.7974 L 28.3361,23.7974 L 28.3361,23.7834 L 28.3502,23.7834 L 28.3642,23.7834 L 28.3783,23.7834 L 28.4064,23.7834 L 28.4345,23.7834 L 28.4766,23.7834 L 28.5188,23.7834 L 28.5609,23.7834 L 28.6171,23.7834 L 28.6873,23.7834 L 28.7435,23.7834 L 28.8138,23.7834 L 28.8840,23.7834 L 28.9683,23.7834 L 29.0386,23.7834 L 29.1088,23.7834 L 29.1931,23.7834 L 29.2774,23.7834 L 29.3476,23.7834 L 29.4179,23.7834 L 29.5022,23.7834 L 29.5724,23.7834 L 29.6427,23.7834 L 29.6989,23.7834 L 29.7691,23.7834 L 29.8253,23.7834 L 29.8674,23.7834 L 29.9096,23.7834 L 29.9517,23.7834 L 29.9798,23.7834 L 30.0079,23.7834 L 30.0220,23.7834 L 30.0360,23.7834 L 30.0501,23.7834 L 30.0501,23.7974 L 30.0641,23.7974 L 30.0782,23.7974 L 30.0782,23.8114 L 30.0922,23.8114 L 30.0922,23.8254 L 30.1063,23.8254 L 30.1063,23.8394 L 30.1203,23.8394 L 30.1203,23.8534 L 30.1203,23.8674 L 30.1203,23.8814 L 30.1203,23.8954 L 30.1203,23.9093 L 30.1203,23.9233 L 30.1203,23.9373 L 30.1203,23.9513 L 30.1203,23.9653 L 30.1203,23.9793 L 30.1203,23.9933 L 30.1203,24.0073 L 30.1203,24.0213 L 30.1203,24.0353 L 30.1203,24.0493 L 30.1203,24.0633 L 30.1203,24.0773 L 30.1203,24.0913 L 30.1203,24.1053 L 30.1203,24.1193 L 30.1203,24.1333 L 30.1203,24.1473 L 30.1203,24.1613 L 30.1203,24.1753 L 30.1203,24.1613 L 30.1203,24.1473 L 30.1063,24.1473 L 30.1063,24.1333 L 30.0922,24.1333 L 30.0922,24.1193 L 30.0782,24.1193 L 30.0641,24.1053 L 30.0501,24.1053 L 30.0360,24.1053 L 30.0220,24.1053 L 29.9939,24.1053 L 29.9658,24.1053 L 29.9236,24.1053 L 29.8815,24.1053 L 29.8393,24.1053 L 29.7972,24.1053 L 29.7410,24.1053 L 29.6848,24.1053 L 29.6286,24.1053 L 29.5724,24.1053 L 29.5022,24.1053 L 29.4460,24.1053 L 29.3898,24.1053 L 29.3195,24.1053 L 29.2633,24.1053 L 29.1931,24.1053 L 29.1369,24.1053 L 29.0807,24.1053 L 29.0245,24.1053 L 28.9683,24.1053 L 28.9262,24.1053 L 28.8840,24.1053 L 28.8419,24.1053 L 28.7997,24.1053 L 28.7716,24.1053 L 28.7435,24.1053 L 28.7295,24.1053 L 28.7154,24.1053 L 28.7014,24.1053 L 28.6873,24.1053 L 28.6733,24.1053 L 28.6593,24.1193 L 28.6452,24.1193 L 28.6452,24.1333 L 28.6312,24.1333 L 28.6312,24.1473 L 28.6312,24.1613 L 28.6312,24.1753 L 28.6312,24.1893 L 28.6312,24.2033 L 28.6312,24.2173 L 28.6312,24.2313 L 28.6312,24.2453 L 28.6312,24.2733 L 28.6312,24.2873 L 28.6312,24.3153 L 28.6312,24.3433 L 28.6312,24.3713 L 28.6312,24.3993 L 28.6312,24.4273 L 28.6312,24.4553 L 28.6312,24.4973 L 28.6312,24.5253 L 28.6312,24.5673 L 28.6312,24.5953 L 28.6312,24.6373 L 28.6312,24.6793 L 28.6312,24.7073 L 28.6312,24.7493 L 28.6312,24.7773 L 28.6312,24.8192 L 28.6312,24.8612 L 28.6312,24.8892 L 28.6312,24.9312 L 28.6312,24.9592 L 28.6312,25.0012 L 28.6312,25.0292 L 28.6312,25.0572 L 28.6452,25.0572 L 28.6593,25.0572 L 28.6873,25.0572 L 28.7295,25.0572 L 28.7576,25.0572 L 28.7997,25.0572 L 28.8559,25.0572 L 28.8981,25.0572 L 28.9543,25.0572 L 29.0245,25.0572 L 29.0807,25.0572 L 29.1369,25.0572 L 29.2072,25.0572 L 29.2774,25.0572 L 29.3476,25.0572 L 29.4038,25.0572 L 29.4741,25.0572 L 29.5443,25.0572 L 29.6005,25.0572 L 29.6567,25.0572 L 29.7270,25.0572 L 29.7831,25.0572 L 29.8253,25.0572 L 29.8815,25.0572 L 29.9236,25.0572 L 29.9517,25.0572 L 29.9939,25.0572 L 30.0220,25.0572 L 30.0360,25.0572 L 30.0501,25.0572 Z" stroke="#7F7F7F" stroke-width="0.1197" stroke-linecap="round" stroke-linejoin="round" fill="#7F7F7F"/>
        <path d="M 20.0193,24.8892 L 20.0193,25.3932 L 20.6094,25.3932 L 20.6094,24.8892 L 20.0193,24.8892 Z" stroke="#7F7F7F" stroke-width="0.1197" stroke-linecap="round" stroke-linejoin="round" fill="#7F7F7F"/>
        <path d="M 19.3731,24.3293 L 19.9069,24.3293 L 19.9069,24.8332 L 19.3731,24.8332 L 19.3731,24.3293 Z" stroke="#7F7F7F" stroke-width="0.1197" stroke-linecap="round" stroke-linejoin="round" fill="#7F7F7F"/>
        <path d="M 20.6937,24.9032 L 20.6937,24.9172 L 20.6937,24.9312 L 20.6937,24.9452 L 20.6937,24.9592 L 20.6937,24.9872 L 20.6937,25.0012 L 20.6937,25.0152 L 20.6937,25.0432 L 20.6937,25.0572 L 20.6937,25.0852 L 20.6937,25.1132 L 20.6937,25.1272 L 20.6937,25.1552 L 20.6937,25.1832 L 20.6937,25.1972 L 20.6937,25.2252 L 20.6937,25.2532 L 20.6937,25.2672 L 20.6937,25.2952 L 20.6937,25.3092 L 20.6937,25.3232 L 20.6937,25.3512 L 20.6937,25.3652 L 20.6937,25.3792 L 20.6937,25.3932 L 20.6937,25.4072 L 20.7218,25.4072 L 20.7499,25.4072 L 20.7639,25.4072 L 20.7920,25.4072 L 20.8201,25.4072 L 20.8482,25.4072 L 20.8623,25.4072 L 20.8903,25.3932 L 20.9184,25.3932 L 20.9325,25.3932 L 20.9606,25.3932 L 20.9746,25.3792 L 21.0027,25.3792 L 21.0168,25.3652 L 21.0449,25.3512 L 21.0589,25.3512 L 21.0730,25.3372 L 21.1011,25.3232 L 21.1151,25.2952 L 21.1292,25.2812 L 21.1432,25.2672 L 21.1573,25.2392 L 21.1713,25.2252 L 21.1854,25.1972 L 21.1854,25.1692 L 21.1994,25.1412 L 21.2135,25.0992 L 21.2135,25.0712 L 21.2275,25.0292 L 21.2275,24.9872 L 21.2275,24.9452 L 21.2275,24.9032 L 21.2135,24.9032 L 21.1994,24.9032 L 21.1713,24.9032 L 21.1573,24.9032 L 21.1432,24.9032 L 21.1292,24.9032 L 21.1011,24.9032 L 21.0870,24.9032 L 21.0589,24.9032 L 21.0308,24.9032 L 21.0168,24.9032 L 20.9887,24.9032 L 20.9606,24.9032 L 20.9325,24.9032 L 20.9044,24.9032 L 20.8903,24.9032 L 20.8623,24.9032 L 20.8342,24.9032 L 20.8201,24.9032 L 20.7920,24.9032 L 20.7780,24.9032 L 20.7639,24.9032 L 20.7499,24.9032 L 20.7218,24.9032 L 20.7077,24.9032 L 20.6937,24.9032 Z" stroke="#7F7F7F" stroke-width="0.1197" stroke-linecap="round" stroke-linejoin="round" fill="#7F7F7F"/>
        <path d="M 20.6937,24.3293 L 21.2275,24.3293 L 21.2275,24.8332 L 20.6937,24.8332 L 20.6937,24.3293 Z" stroke="#7F7F7F" stroke-width="0.1197" stroke-linecap="round" stroke-linejoin="round" fill="#7F7F7F"/>
        <path d="M 19.9069,24.9032 L 19.9069,24.9172 L 19.9069,24.9312 L 19.9069,24.9452 L 19.9069,24.9592 L 19.9069,24.9872 L 19.9069,25.0012 L 19.9069,25.0152 L 19.9069,25.0432 L 19.9069,25.0572 L 19.9069,25.0852 L 19.9069,25.1132 L 19.9069,25.1272 L 19.9069,25.1552 L 19.9069,25.1832 L 19.9069,25.1972 L 19.9069,25.2252 L 19.9069,25.2532 L 19.9069,25.2672 L 19.9069,25.2952 L 19.9069,25.3092 L 19.9069,25.3232 L 19.9069,25.3512 L 19.9069,25.3652 L 19.9069,25.3792 L 19.9069,25.3932 L 19.9069,25.4072 L 19.8788,25.4072 L 19.8648,25.4072 L 19.8367,25.4072 L 19.8086,25.4072 L 19.7946,25.4072 L 19.7665,25.4072 L 19.7384,25.4072 L 19.7243,25.3932 L 19.6962,25.3932 L 19.6681,25.3932 L 19.6541,25.3932 L 19.6260,25.3792 L 19.6119,25.3792 L 19.5838,25.3652 L 19.5698,25.3512 L 19.5557,25.3512 L 19.5276,25.3372 L 19.5136,25.3232 L 19.4995,25.2952 L 19.4855,25.2812 L 19.4714,25.2672 L 19.4574,25.2392 L 19.4433,25.2252 L 19.4293,25.1972 L 19.4152,25.1692 L 19.4012,25.1412 L 19.4012,25.0992 L 19.3871,25.0712 L 19.3871,25.0292 L 19.3731,24.9872 L 19.3731,24.9452 L 19.3731,24.9032 L 19.3871,24.9032 L 19.4012,24.9032 L 19.4293,24.9032 L 19.4433,24.9032 L 19.4574,24.9032 L 19.4714,24.9032 L 19.4995,24.9032 L 19.5136,24.9032 L 19.5417,24.9032 L 19.5698,24.9032 L 19.5838,24.9032 L 19.6119,24.9032 L 19.6400,24.9032 L 19.6681,24.9032 L 19.6962,24.9032 L 19.7103,24.9032 L 19.7384,24.9032 L 19.7665,24.9032 L 19.7805,24.9032 L 19.8086,24.9032 L 19.8226,24.9032 L 19.8367,24.9032 L 19.8507,24.9032 L 19.8788,24.9032 L 19.8929,24.9032 L 19.9069,24.9032 Z" stroke="#7F7F7F" stroke-width="0.1197" stroke-linecap="round" stroke-linejoin="round" fill="#7F7F7F"/>
        <path d="M 20.0193,23.7554 L 20.0193,24.2593 L 20.6094,24.2593 L 20.6094,23.7554 L 20.0193,23.7554 Z" stroke="#7F7F7F" stroke-width="0.1197" stroke-linecap="round" stroke-linejoin="round" fill="#7F7F7F"/>
        <path d="M 20.6937,24.2593 L 20.6937,24.2453 L 20.6937,24.2313 L 20.6937,24.2173 L 20.6937,24.2033 L 20.6937,24.1753 L 20.6937,24.1613 L 20.6937,24.1473 L 20.6937,24.1193 L 20.6937,24.1053 L 20.6937,24.0773 L 20.6937,24.0493 L 20.6937,24.0353 L 20.6937,24.0073 L 20.6937,23.9793 L 20.6937,23.9653 L 20.6937,23.9373 L 20.6937,23.9093 L 20.6937,23.8954 L 20.6937,23.8674 L 20.6937,23.8534 L 20.6937,23.8394 L 20.6937,23.8114 L 20.6937,23.7974 L 20.6937,23.7834 L 20.6937,23.7694 L 20.6937,23.7554 L 20.7218,23.7554 L 20.7499,23.7554 L 20.7639,23.7554 L 20.7920,23.7554 L 20.8201,23.7554 L 20.8482,23.7554 L 20.8623,23.7554 L 20.8903,23.7694 L 20.9184,23.7694 L 20.9325,23.7694 L 20.9606,23.7694 L 20.9746,23.7834 L 21.0027,23.7834 L 21.0168,23.7974 L 21.0449,23.8114 L 21.0589,23.8254 L 21.0730,23.8254 L 21.1011,23.8394 L 21.1151,23.8674 L 21.1292,23.8814 L 21.1432,23.8954 L 21.1573,23.9233 L 21.1713,23.9373 L 21.1854,23.9653 L 21.1854,23.9933 L 21.1994,24.0213 L 21.2135,24.0633 L 21.2135,24.0913 L 21.2275,24.1333 L 21.2275,24.1753 L 21.2275,24.2173 L 21.2275,24.2593 L 21.2135,24.2593 L 21.1994,24.2593 L 21.1713,24.2593 L 21.1573,24.2593 L 21.1432,24.2593 L 21.1292,24.2593 L 21.1011,24.2593 L 21.0870,24.2593 L 21.0589,24.2593 L 21.0308,24.2593 L 21.0168,24.2593 L 20.9887,24.2593 L 20.9606,24.2593 L 20.9325,24.2593 L 20.9044,24.2593 L 20.8903,24.2593 L 20.8623,24.2593 L 20.8342,24.2593 L 20.8201,24.2593 L 20.7920,24.2593 L 20.7780,24.2593 L 20.7639,24.2593 L 20.7499,24.2593 L 20.7218,24.2593 L 20.7077,24.2593 L 20.6937,24.2593 Z" stroke="#7F7F7F" stroke-width="0.1197" stroke-linecap="round" stroke-linejoin="round" fill="#7F7F7F"/>
        <path d="M 19.9069,24.2593 L 19.9069,24.2453 L 19.9069,24.2313 L 19.9069,24.2173 L 19.9069,24.2033 L 19.9069,24.1753 L 19.9069,24.1613 L 19.9069,24.1473 L 19.9069,24.1193 L 19.9069,24.1053 L 19.9069,24.0773 L 19.9069,24.0493 L 19.9069,24.0353 L 19.9069,24.0073 L 19.9069,23.9793 L 19.9069,23.9653 L 19.9069,23.9373 L 19.9069,23.9093 L 19.9069,23.8954 L 19.9069,23.8674 L 19.9069,23.8534 L 19.9069,23.8394 L 19.9069,23.8114 L 19.9069,23.7974 L 19.9069,23.7834 L 19.9069,23.7694 L 19.9069,23.7554 L 19.8788,23.7554 L 19.8648,23.7554 L 19.8367,23.7554 L 19.8086,23.7554 L 19.7946,23.7554 L 19.7665,23.7554 L 19.7384,23.7554 L 19.7243,23.7694 L 19.6962,23.7694 L 19.6681,23.7694 L 19.6541,23.7694 L 19.6260,23.7834 L 19.6119,23.7834 L 19.5838,23.7974 L 19.5698,23.8114 L 19.5557,23.8254 L 19.5276,23.8254 L 19.5136,23.8394 L 19.4995,23.8674 L 19.4855,23.8814 L 19.4714,23.8954 L 19.4574,23.9233 L 19.4433,23.9373 L 19.4293,23.9653 L 19.4152,23.9933 L 19.4012,24.0213 L 19.4012,24.0633 L 19.3871,24.0913 L 19.3871,24.1333 L 19.3731,24.1753 L 19.3731,24.2173 L 19.3731,24.2593 L 19.3871,24.2593 L 19.4012,24.2593 L 19.4293,24.2593 L 19.4433,24.2593 L 19.4574,24.2593 L 19.4714,24.2593 L 19.4995,24.2593 L 19.5136,24.2593 L 19.5417,24.2593 L 19.5698,24.2593 L 19.5838,24.2593 L 19.6119,24.2593 L 19.6400,24.2593 L 19.6681,24.2593 L 19.6962,24.2593 L 19.7103,24.2593 L 19.7384,24.2593 L 19.7665,24.2593 L 19.7805,24.2593 L 19.8086,24.2593 L 19.8226,24.2593 L 19.8367,24.2593 L 19.8507,24.2593 L 19.8788,24.2593 L 19.8929,24.2593 L 19.9069,24.2593 Z" stroke="#7F7F7F" stroke-width="0.1197" stroke-linecap="round" stroke-linejoin="round" fill="#7F7F7F"/>
        <path d="M 17.3658,0.0000 L 17.1530,0.0000 L 17.1530,0.2120 L 17.3658,0.2120 L 17.3658,0.0000 Z" stroke="#000000" stroke-width="0.1197" stroke-linecap="round" stroke-linejoin="round" fill="none"/>
        <path d="M 23.3307,0.0000 L 23.1179,0.0000 L 23.1179,0.2120 L 23.3307,0.2120 L 23.3307,0.0000 Z" stroke="#000000" stroke-width="0.1197" stroke-linecap="round" stroke-linejoin="round" fill="none"/>
        <path d="M 33.2844,0.0000 L 33.0716,0.0000 L 33.0716,0.2120 L 33.2844,0.2120 L 33.2844,0.0000 Z" stroke="#000000" stroke-width="0.1197" stroke-linecap="round" stroke-linejoin="round" fill="none"/>
      </g>
      <!--emf-blob end-->
    </g>
  </g>
</svg>
