<svg xmlns="http://www.w3.org/2000/svg" xmlns:xlink="http://www.w3.org/1999/xlink" version="1.1" width="6.0076000000" height="3.6408000000" viewBox="0 0 108.1355 65.5350">
  <title><![CDATA[FAP-S311C/321C (3FR)]]></title>
  <g transform=" scale(4.000000) ">
    <!--converted by libvisio2svg-->
    <g transform=" translate(30.639400,0.720000) ">
      <!--emf-blob start-->
      <g transform="translate(-0.0000, -0.0000)">
        <path d="M 43.9071,24.6671 L 43.9071,26.0289 L 43.9211,26.0289 L 43.9211,26.0570 L 43.9351,26.0710 L 43.9491,26.0710 L 43.9491,26.0850 L 44.0330,26.0850 L 44.0330,26.0710 L 44.0610,26.0710 L 44.0750,26.0570 L 44.0890,26.0570 L 44.0890,26.0429 L 44.1030,26.0289 L 44.1170,26.0289 L 44.2848,25.8604 L 44.3128,25.8464 L 44.3268,25.8183 L 44.7744,25.3690 L 44.7744,25.3550 L 44.8024,25.3269 L 44.8024,25.3129 L 44.8163,25.2988 L 44.8163,25.2567 L 44.8303,25.2427 L 44.8303,25.2287 L 44.8443,25.2146 L 44.8443,25.1725 L 44.8583,25.1585 L 44.8583,25.1023 L 44.8723,25.0742 L 44.8723,24.9900 L 44.8863,24.9619 L 44.8863,23.6843 L 43.9211,24.6530 L 43.9071,24.6671 Z" stroke="#000000" stroke-width="0.1196" stroke-linecap="round" stroke-linejoin="round" fill="#EAEAEA"/>
        <path d="M 43.9071,24.6671 L 43.9071,26.0289 L 43.9211,26.0289 L 43.9211,26.0570 L 43.9491,26.0850 L 44.0330,26.0850 L 44.0330,26.0710 L 44.0191,26.0710 L 44.0191,26.0850 L 43.9631,26.0850 L 43.9631,26.0991 L 43.9211,26.0991 L 43.9211,26.1131 L 43.8652,26.1131 L 43.8512,26.1272 L 43.7393,26.1272 L 43.7253,26.1131 L 43.6694,26.1131 L 43.6554,26.0991 L 43.6414,26.0991 L 43.5994,26.0570 L 43.5994,25.9727 L 43.5854,25.9166 L 43.5854,25.8745 L 43.5714,25.8183 L 43.5714,25.7621 L 43.5575,25.7200 L 43.5575,25.6639 L 43.5435,25.6218 L 43.5435,25.5796 L 43.5295,25.5375 L 43.5295,25.4954 L 43.5155,25.4533 L 43.5155,25.4112 L 43.5015,25.3690 L 43.5015,25.2988 L 43.4875,25.2708 L 43.4875,25.2146 L 43.4735,25.1865 L 43.4735,25.1304 L 43.4595,25.1163 L 43.4595,25.0602 L 43.4456,25.0461 L 43.4456,25.0181 L 43.4735,24.9900 L 43.4875,24.9900 L 43.5295,24.9479 L 43.5575,24.9338 L 43.5854,24.9057 L 43.6134,24.8917 L 43.6274,24.8777 L 43.6833,24.8496 L 43.6973,24.8215 L 43.7253,24.8075 L 43.7393,24.7934 L 43.7673,24.7794 L 43.7952,24.7513 L 43.8232,24.7373 L 43.8652,24.6952 L 43.8792,24.6952 L 43.8932,24.6811 L 43.9071,24.6671 Z" stroke="#000000" stroke-width="0.1196" stroke-linecap="round" stroke-linejoin="round" fill="#DDDDDD"/>
        <path d="M 2.9654,24.6671 L 2.9654,26.0289 L 2.9514,26.0289 L 2.9514,26.0570 L 2.9374,26.0710 L 2.9234,26.0710 L 2.9234,26.0850 L 2.8395,26.0850 L 2.8395,26.0710 L 2.8115,26.0710 L 2.7975,26.0570 L 2.7835,26.0570 L 2.7835,26.0429 L 2.7695,26.0289 L 2.7556,26.0289 L 2.0981,25.3690 L 2.0981,25.3550 L 2.0702,25.3269 L 2.0702,25.3129 L 2.0562,25.2988 L 2.0562,25.2567 L 2.0422,25.2427 L 2.0422,25.2287 L 2.0282,25.2146 L 2.0282,25.1725 L 2.0142,25.1585 L 2.0142,25.1023 L 2.0002,25.0742 L 2.0002,24.9900 L 1.9862,24.9619 L 1.9862,23.6843 L 2.9514,24.6530 L 2.9654,24.6671 Z" stroke="#000000" stroke-width="0.1196" stroke-linecap="round" stroke-linejoin="round" fill="#EAEAEA"/>
        <path d="M 2.9654,24.6671 L 2.9654,26.0289 L 2.9514,26.0289 L 2.9514,26.0570 L 2.9234,26.0850 L 2.8395,26.0850 L 2.8395,26.0710 L 2.8535,26.0710 L 2.8535,26.0850 L 2.9094,26.0850 L 2.9094,26.0991 L 2.9514,26.0991 L 2.9514,26.1131 L 3.0073,26.1131 L 3.0213,26.1272 L 3.1332,26.1272 L 3.1472,26.1131 L 3.2032,26.1131 L 3.2172,26.0991 L 3.2311,26.0991 L 3.2731,26.0570 L 3.2731,25.9727 L 3.2871,25.9166 L 3.2871,25.8745 L 3.3011,25.8183 L 3.3011,25.7621 L 3.3151,25.7200 L 3.3151,25.6639 L 3.3291,25.6218 L 3.3291,25.5796 L 3.3430,25.5375 L 3.3430,25.4954 L 3.3570,25.4533 L 3.3570,25.4112 L 3.3710,25.3690 L 3.3710,25.2988 L 3.3850,25.2708 L 3.3850,25.2146 L 3.3990,25.1865 L 3.3990,25.1304 L 3.4130,25.1163 L 3.4130,25.0602 L 3.4270,25.0461 L 3.4270,25.0181 L 3.3990,24.9900 L 3.3850,24.9900 L 3.3430,24.9479 L 3.3151,24.9338 L 3.2871,24.9057 L 3.2591,24.8917 L 3.2451,24.8777 L 3.2172,24.8636 L 3.1752,24.8215 L 3.1472,24.8075 L 3.1332,24.7934 L 3.1053,24.7794 L 3.0773,24.7513 L 3.0493,24.7373 L 3.0073,24.6952 L 2.9934,24.6952 L 2.9794,24.6811 L 2.9654,24.6671 Z" stroke="#000000" stroke-width="0.1196" stroke-linecap="round" stroke-linejoin="round" fill="#DDDDDD"/>
        <path d="M 46.5788,11.8211 L 46.5508,12.4248 L 46.4529,13.0285 L 46.3130,13.6181 L 46.1032,14.2078 L 45.8514,14.7694 L 45.5297,15.3309 L 45.1660,15.8785 L 44.7464,16.4260 L 44.2848,16.9455 L 43.7673,17.4509 L 43.2078,17.9422 L 42.6063,18.4196 L 41.9489,18.8829 L 41.2635,19.3321 L 40.5361,19.7674 L 39.7668,20.1745 L 38.9555,20.5676 L 38.1023,20.9326 L 37.2351,21.2836 L 36.3119,21.6205 L 35.3747,21.9154 L 34.3956,22.2102 L 33.3885,22.4629 L 32.3674,22.7016 L 31.3043,22.9122 L 30.2273,23.0947 L 29.1222,23.2631 L 27.9892,23.3895 L 26.8422,23.4878 L 25.6813,23.5720 L 24.5063,23.6141 L 23.3034,23.6282 L 22.1004,23.6141 L 20.9255,23.5720 L 19.7645,23.4878 L 18.6175,23.3895 L 17.4845,23.2631 L 16.3795,23.0947 L 15.3025,22.9122 L 14.2394,22.7016 L 13.2183,22.4629 L 12.2112,22.2102 L 11.2321,21.9154 L 10.2949,21.6205 L 9.3717,21.2836 L 8.5045,20.9326 L 7.6512,20.5676 L 6.8399,20.1745 L 6.0706,19.7674 L 5.3433,19.3321 L 4.6579,18.8829 L 4.0005,18.4196 L 3.3990,17.9422 L 2.8395,17.4509 L 2.3219,16.9455 L 1.8604,16.4260 L 1.4407,15.8785 L 1.0770,15.3309 L 0.7553,14.7694 L 0.5036,14.2078 L 0.2937,13.6181 L 0.1539,13.0285 L 0.0560,12.4248 L 0.0280,11.8211 L 0.0280,19.3462 L 0.0560,19.9499 L 0.1539,20.5536 L 0.2937,21.1432 L 0.5036,21.7329 L 0.7553,22.2944 L 1.0770,22.8560 L 1.4407,23.4035 L 1.8604,23.9511 L 2.3219,24.4705 L 2.8395,24.9759 L 3.3990,25.4673 L 4.0005,25.9447 L 4.6579,26.4080 L 5.3433,26.8572 L 6.0706,27.2924 L 6.8399,27.6996 L 7.6512,28.0927 L 8.5045,28.4577 L 9.3717,28.8087 L 10.2949,29.1456 L 11.2321,29.4404 L 12.2112,29.7353 L 13.2183,29.9880 L 14.2394,30.2266 L 15.3025,30.4372 L 16.3795,30.6197 L 17.4845,30.7882 L 18.6175,30.9146 L 19.7645,31.0128 L 20.9255,31.0971 L 22.1004,31.1392 L 23.3034,31.1532 L 24.5063,31.1392 L 25.6813,31.0971 L 26.8422,31.0128 L 27.9892,30.9146 L 29.1222,30.7882 L 30.2273,30.6197 L 31.3043,30.4372 L 32.3674,30.2266 L 33.3885,29.9880 L 34.3956,29.7353 L 35.3747,29.4404 L 36.3119,29.1456 L 37.2351,28.8087 L 38.1023,28.4577 L 38.9555,28.0927 L 39.7668,27.6996 L 40.5361,27.2924 L 41.2635,26.8572 L 41.9489,26.4080 L 42.6063,25.9447 L 43.2078,25.4673 L 43.7673,24.9759 L 44.2848,24.4705 L 44.7464,23.9511 L 45.1660,23.4035 L 45.5297,22.8560 L 45.8514,22.2944 L 46.1032,21.7329 L 46.3130,21.1432 L 46.4529,20.5536 L 46.5508,19.9499 L 46.5788,19.3462 L 46.5788,11.8492 L 46.5788,11.8211 Z" stroke="#000000" stroke-width="0.1196" stroke-linecap="round" stroke-linejoin="round" fill="#EAEAEA"/>
        <path d="M 46.5788,11.8211 L 46.5508,11.2174 L 46.4529,10.6137 L 46.3130,10.0241 L 46.1032,9.4485 L 45.8514,8.8728 L 45.5297,8.3113 L 45.1660,7.7637 L 44.7464,7.2302 L 44.2848,6.7108 L 43.7673,6.2054 L 43.2078,5.7000 L 42.6063,5.2226 L 41.9489,4.7593 L 41.2635,4.3241 L 40.5361,3.8889 L 39.7668,3.4818 L 38.9555,3.0886 L 38.1023,2.7236 L 37.2351,2.3726 L 36.3119,2.0357 L 35.3747,1.7409 L 34.3956,1.4460 L 33.3885,1.1933 L 32.3674,0.9547 L 31.3043,0.7441 L 30.2273,0.5616 L 29.1222,0.3931 L 27.9892,0.2667 L 26.8422,0.1685 L 25.6813,0.0842 L 24.5063,0.0421 L 23.3034,0.0281 L 22.1004,0.0421 L 20.9255,0.0842 L 19.7645,0.1685 L 18.6175,0.2667 L 17.4845,0.3931 L 16.3795,0.5616 L 15.3025,0.7441 L 14.2394,0.9547 L 13.2183,1.1933 L 12.2112,1.4460 L 11.2321,1.7409 L 10.2949,2.0357 L 9.3717,2.3726 L 8.5045,2.7236 L 7.6512,3.0886 L 6.8399,3.4818 L 6.0706,3.8889 L 5.3433,4.3241 L 4.6579,4.7593 L 4.0005,5.2226 L 3.3990,5.7000 L 2.8395,6.2054 L 2.3219,6.7108 L 1.8604,7.2302 L 1.4407,7.7637 L 1.0770,8.3113 L 0.7553,8.8728 L 0.5036,9.4485 L 0.2937,10.0241 L 0.1539,10.6137 L 0.0560,11.2174 L 0.0280,11.8211 L 0.0560,12.4248 L 0.1539,13.0285 L 0.2937,13.6181 L 0.5036,14.2078 L 0.7553,14.7694 L 1.0770,15.3309 L 1.4407,15.8785 L 1.8604,16.4260 L 2.3219,16.9455 L 2.8395,17.4509 L 3.3990,17.9422 L 4.0005,18.4196 L 4.6579,18.8829 L 5.3433,19.3321 L 6.0706,19.7674 L 6.8399,20.1745 L 7.6512,20.5676 L 8.5045,20.9326 L 9.3717,21.2836 L 10.2949,21.6205 L 11.2321,21.9154 L 12.2112,22.2102 L 13.2183,22.4629 L 14.2394,22.7016 L 15.3025,22.9122 L 16.3795,23.0947 L 17.4845,23.2631 L 18.6175,23.3895 L 19.7645,23.4878 L 20.9255,23.5720 L 22.1004,23.6141 L 23.3034,23.6282 L 24.5063,23.6141 L 25.6813,23.5720 L 26.8422,23.4878 L 27.9892,23.3895 L 29.1222,23.2631 L 30.2273,23.0947 L 31.3043,22.9122 L 32.3674,22.7016 L 33.3885,22.4629 L 34.3956,22.2102 L 35.3747,21.9154 L 36.3119,21.6205 L 37.2351,21.2836 L 38.1023,20.9326 L 38.9555,20.5676 L 39.7668,20.1745 L 40.5361,19.7674 L 41.2635,19.3321 L 41.9489,18.8829 L 42.6063,18.4196 L 43.2078,17.9422 L 43.7673,17.4509 L 44.2848,16.9455 L 44.7464,16.4260 L 45.1660,15.8785 L 45.5297,15.3309 L 45.8514,14.7694 L 46.1032,14.2078 L 46.3130,13.6181 L 46.4529,13.0285 L 46.5508,12.4248 L 46.5788,11.8211 Z" stroke="#000000" stroke-width="0.1196" stroke-linecap="round" stroke-linejoin="round" fill="#BFBFBF"/>
        <path d="M 46.1172,11.8211 L 46.0892,11.2315 L 46.0053,10.6558 L 45.8514,10.0802 L 45.6556,9.5187 L 45.4038,8.9571 L 45.0961,8.4236 L 44.7324,7.8901 L 44.3268,7.3706 L 43.8652,6.8652 L 43.3616,6.3738 L 42.8161,5.8825 L 42.2286,5.4192 L 41.5852,4.9699 L 40.9138,4.5487 L 40.1864,4.1276 L 39.4311,3.7345 L 38.6478,3.3554 L 37.8225,2.9904 L 36.9553,2.6534 L 36.0601,2.3305 L 35.1369,2.0357 L 34.1858,1.7549 L 33.1926,1.5022 L 32.1855,1.2776 L 31.1504,1.0670 L 30.0874,0.8985 L 29.0103,0.7441 L 27.9053,0.6177 L 26.7723,0.5054 L 25.6393,0.4352 L 24.4783,0.3931 L 23.3034,0.3791 L 22.1284,0.3931 L 20.9674,0.4352 L 19.8344,0.5054 L 18.7015,0.6177 L 17.5964,0.7441 L 16.5194,0.8985 L 15.4563,1.0670 L 14.4212,1.2776 L 13.4141,1.5022 L 12.4210,1.7549 L 11.4699,2.0357 L 10.5467,2.3305 L 9.6515,2.6534 L 8.7842,2.9904 L 7.9590,3.3554 L 7.1757,3.7345 L 6.4203,4.1276 L 5.6930,4.5487 L 5.0216,4.9699 L 4.3781,5.4192 L 3.7906,5.8825 L 3.2451,6.3738 L 2.7416,6.8652 L 2.2800,7.3706 L 1.8743,7.8901 L 1.5107,8.4236 L 1.2029,8.9571 L 0.9512,9.5187 L 0.7553,10.0802 L 0.6015,10.6558 L 0.5175,11.2315 L 0.4896,11.8211 L 0.5175,12.4108 L 0.6015,12.9864 L 0.7553,13.5620 L 0.9512,14.1376 L 1.2029,14.6851 L 1.5107,15.2327 L 1.8743,15.7662 L 2.2800,16.2856 L 2.7416,16.7910 L 3.2451,17.2824 L 3.7906,17.7597 L 4.3781,18.2230 L 5.0216,18.6723 L 5.6930,19.1075 L 6.4203,19.5287 L 7.1757,19.9218 L 7.9590,20.3009 L 8.7842,20.6659 L 9.6515,21.0028 L 10.5467,21.3257 L 11.4699,21.6205 L 12.4210,21.9013 L 13.4141,22.1540 L 14.4212,22.3787 L 15.4563,22.5893 L 16.5194,22.7577 L 17.5964,22.9122 L 18.7015,23.0385 L 19.8344,23.1508 L 20.9674,23.2210 L 22.1284,23.2631 L 23.3034,23.2772 L 24.4783,23.2631 L 25.6393,23.2210 L 26.7723,23.1508 L 27.9053,23.0385 L 29.0103,22.9122 L 30.0874,22.7577 L 31.1504,22.5893 L 32.1855,22.3787 L 33.1926,22.1540 L 34.1858,21.9013 L 35.1369,21.6205 L 36.0601,21.3257 L 36.9553,21.0028 L 37.8225,20.6659 L 38.6478,20.3009 L 39.4311,19.9218 L 40.1864,19.5287 L 40.9138,19.1075 L 41.5852,18.6723 L 42.2286,18.2230 L 42.8161,17.7597 L 43.3616,17.2824 L 43.8652,16.7910 L 44.3268,16.2856 L 44.7324,15.7662 L 45.0961,15.2327 L 45.4038,14.6851 L 45.6556,14.1376 L 45.8514,13.5620 L 46.0053,12.9864 L 46.0892,12.4108 L 46.1172,11.8211 Z" stroke="#EAEAEA" stroke-width="0.1196" stroke-linecap="round" stroke-linejoin="round" fill="#EAEAEA"/>
        <path d="M 23.3034,4.2539 L 22.5201,4.2680 L 21.7647,4.2960 L 21.0094,4.3381 L 20.2681,4.4083 L 19.5267,4.4926 L 18.8134,4.5909 L 18.1140,4.7172 L 17.4286,4.8436 L 16.7572,4.9980 L 16.1137,5.1665 L 15.4703,5.3490 L 14.8688,5.5455 L 14.2674,5.7561 L 13.7079,5.9807 L 13.1484,6.2194 L 12.6308,6.4721 L 12.1273,6.7248 L 11.6517,7.0056 L 11.2041,7.2864 L 10.7845,7.5953 L 10.3928,7.8901 L 10.0291,8.2130 L 9.6934,8.5359 L 9.3997,8.8728 L 9.1199,9.2238 L 8.8961,9.5748 L 8.6863,9.9258 L 8.5185,10.2908 L 8.3786,10.6699 L 8.2947,11.0489 L 8.2247,11.4280 L 8.2107,11.8211 L 8.2247,12.2142 L 8.2947,12.5933 L 8.3786,12.9723 L 8.5185,13.3514 L 8.6863,13.7164 L 8.8961,14.0674 L 9.1199,14.4324 L 9.3997,14.7694 L 9.6934,15.1063 L 10.0291,15.4292 L 10.3928,15.7521 L 10.7845,16.0610 L 11.2041,16.3558 L 11.6517,16.6366 L 12.1273,16.9174 L 12.6308,17.1841 L 13.1484,17.4368 L 13.7079,17.6755 L 14.2674,17.9001 L 14.8688,18.1107 L 15.4703,18.3073 L 16.1137,18.4898 L 16.7572,18.6583 L 17.4286,18.8127 L 18.1140,18.9390 L 18.8134,19.0654 L 19.5267,19.1637 L 20.2681,19.2479 L 21.0094,19.3181 L 21.7647,19.3602 L 22.5201,19.3883 L 23.3034,19.4023 " stroke="#D1D1D1" stroke-width="0.1196" stroke-linecap="round" stroke-linejoin="round" fill="none"/>
        <path d="M 23.3034,19.0233 L 24.0447,19.0092 L 24.7721,18.9812 L 25.4854,18.9390 L 26.1988,18.8829 L 26.8842,18.7986 L 27.5696,18.7004 L 28.2270,18.5881 L 28.8844,18.4617 L 30.1433,18.1528 L 30.7308,17.9844 L 31.3183,17.7878 L 31.8778,17.5913 L 32.4233,17.3807 L 32.9409,17.1560 L 33.4444,16.9174 L 33.9200,16.6647 L 34.3676,16.3979 L 34.7872,16.1312 L 35.1929,15.8504 L 35.5705,15.5556 L 35.9062,15.2467 L 36.2279,14.9378 L 36.5077,14.6290 L 36.7735,14.2920 L 36.9973,13.9551 L 37.1931,13.6181 L 37.3470,13.2672 L 37.4728,12.9162 L 37.5708,12.5511 L 37.6267,12.1861 L 37.6407,11.8211 L 37.6267,11.4561 L 37.5708,11.0911 L 37.4728,10.7260 L 37.3470,10.3751 L 37.1931,10.0241 L 36.9973,9.6871 L 36.7735,9.3502 L 36.5077,9.0273 L 36.2279,8.7044 L 35.9062,8.3955 L 35.5705,8.0866 L 35.1929,7.8059 L 34.7872,7.5251 L 34.3676,7.2443 L 33.9200,6.9916 L 33.4444,6.7389 L 32.9409,6.5002 L 32.4233,6.2756 L 31.8778,6.0650 L 31.3183,5.8544 L 30.7308,5.6719 L 30.1433,5.5034 L 29.5139,5.3349 L 28.8844,5.1945 L 28.2270,5.0682 L 27.5696,4.9559 L 26.8842,4.8576 L 26.1988,4.7734 L 25.4854,4.7172 L 24.7721,4.6751 L 24.0447,4.6470 L 23.3034,4.6330 " stroke="#D1D1D1" stroke-width="0.1196" stroke-linecap="round" stroke-linejoin="round" fill="none"/>
        <path d="M 23.3034,4.6189 L 22.5620,4.6330 L 21.8347,4.6611 L 21.1213,4.7032 L 20.4079,4.7593 L 19.7225,4.8436 L 19.0372,4.9418 L 18.3797,5.0542 L 17.7223,5.1805 L 16.4634,5.4894 L 15.8760,5.6578 L 15.2885,5.8544 L 14.7290,6.0509 L 14.1834,6.2615 L 13.6659,6.4862 L 13.1624,6.7248 L 12.6868,6.9775 L 12.2392,7.2443 L 11.8195,7.5110 L 11.4139,7.7918 L 11.0362,8.0866 L 10.7005,8.3955 L 10.3788,8.7044 L 10.0991,9.0132 L 9.8333,9.3502 L 9.6095,9.6871 L 9.4137,10.0241 L 9.2598,10.3751 L 9.1339,10.7260 L 9.0360,11.0911 L 8.9801,11.4561 L 8.9661,11.8211 L 8.9801,12.1861 L 9.0360,12.5511 L 9.1339,12.9162 L 9.2598,13.2672 L 9.4137,13.6181 L 9.6095,13.9551 L 9.8333,14.2920 L 10.0991,14.6290 L 10.3788,14.9378 L 10.7005,15.2467 L 11.0362,15.5556 L 11.4139,15.8504 L 11.8195,16.1312 L 12.2392,16.3979 L 12.6868,16.6647 L 13.1624,16.9174 L 13.6659,17.1560 L 14.1834,17.3807 L 14.7290,17.5913 L 15.2885,17.7878 L 15.8760,17.9844 L 16.4634,18.1528 L 17.7223,18.4617 L 18.3797,18.5881 L 19.0372,18.7004 L 19.7225,18.7986 L 20.4079,18.8829 L 21.1213,18.9390 L 21.8347,18.9812 L 22.5620,19.0092 L 23.3034,19.0233 " stroke="#FFFFFF" stroke-width="0.1196" stroke-linecap="round" stroke-linejoin="round" fill="none"/>
        <path d="M 23.3034,19.4023 L 24.0867,19.3883 L 24.8420,19.3602 L 25.5974,19.3181 L 26.3387,19.2479 L 27.0800,19.1637 L 27.7934,19.0654 L 28.4928,18.9390 L 29.1782,18.8127 L 29.8496,18.6583 L 30.4930,18.4898 L 31.1364,18.3073 L 31.7379,18.1107 L 32.3394,17.9001 L 32.8989,17.6755 L 33.4584,17.4368 L 33.9759,17.1841 L 34.4795,16.9174 L 34.9551,16.6366 L 35.4027,16.3558 L 35.8223,16.0610 L 36.2140,15.7521 L 36.5776,15.4292 L 36.9133,15.1063 L 37.2071,14.7694 L 37.4868,14.4324 L 37.7106,14.0674 L 37.9204,13.7164 L 38.0883,13.3514 L 38.2282,12.9723 L 38.3121,12.5933 L 38.3820,12.2142 L 38.3960,11.8211 L 38.3820,11.4280 L 38.3121,11.0489 L 38.2282,10.6699 L 38.0883,10.2908 L 37.9204,9.9258 L 37.7106,9.5748 L 37.4868,9.2098 L 37.2071,8.8728 L 36.9133,8.5359 L 36.5776,8.2130 L 36.2140,7.8901 L 35.8223,7.5812 L 35.4027,7.2864 L 34.9551,7.0056 L 34.4795,6.7248 L 33.9759,6.4581 L 33.4584,6.2054 L 32.8989,5.9667 L 32.3394,5.7421 L 31.7379,5.5315 L 31.1364,5.3349 L 30.4930,5.1524 L 29.8496,4.9840 L 29.1782,4.8295 L 28.4928,4.7032 L 27.7934,4.5768 L 27.0800,4.4785 L 26.3387,4.3943 L 25.5974,4.3241 L 24.8420,4.2820 L 24.0867,4.2539 L 23.3034,4.2399 " stroke="#FFFFFF" stroke-width="0.1196" stroke-linecap="round" stroke-linejoin="round" fill="none"/>
        <path d="M 15.9599,11.5684 L 15.9179,11.5684 L 15.9039,11.5544 L 15.8760,11.5544 L 15.8760,11.5403 L 15.8620,11.5403 L 15.8620,11.5263 L 15.8480,11.5263 L 15.8480,10.7962 L 15.8620,10.7962 L 15.8620,10.7822 L 15.8760,10.7822 L 15.8760,10.7682 L 15.9039,10.7682 L 15.9179,10.7541 L 17.6524,10.7541 L 17.6664,10.7682 L 17.6943,10.7682 L 17.6943,10.7822 L 17.7083,10.7822 L 17.7083,10.7962 L 17.7223,10.7962 L 17.7223,10.9366 L 17.7083,10.9366 L 17.6943,10.9226 L 17.6664,10.9226 L 17.6664,10.9085 L 16.2676,10.9085 L 16.2536,10.9226 L 16.2396,10.9226 L 16.2396,10.9366 L 16.2256,10.9366 L 16.2256,11.5403 L 16.2396,11.5544 L 16.2536,11.5544 L 16.2536,11.5684 L 15.9739,11.5684 L 15.9599,11.5684 Z" stroke="#C1C1C1" stroke-width="0.1196" stroke-linecap="round" stroke-linejoin="round" fill="#BFBFBF"/>
        <path d="M 17.5824,11.0911 L 16.3375,11.0911 L 16.3375,11.0770 L 16.3096,11.0770 L 16.3096,11.0630 L 16.2956,11.0630 L 16.2956,11.2315 L 16.3236,11.2315 L 16.3236,11.2455 L 17.6244,11.2455 L 17.6384,11.2315 L 17.6524,11.2315 L 17.6664,11.2174 L 17.6804,11.2174 L 17.6943,11.2034 L 17.6943,11.1893 L 17.7083,11.1893 L 17.7083,11.1472 L 17.6943,11.1472 L 17.6943,11.1332 L 17.6804,11.1191 L 17.6664,11.1191 L 17.6524,11.1051 L 17.6244,11.1051 L 17.6244,11.0911 L 17.5964,11.0911 L 17.5824,11.0911 Z" stroke="#C1C1C1" stroke-width="0.1196" stroke-linecap="round" stroke-linejoin="round" fill="#BFBFBF"/>
        <path d="M 20.5059,11.2595 L 20.4639,11.2595 L 20.4499,11.2455 L 20.4359,11.2455 L 20.4359,11.2315 L 20.4219,11.2315 L 20.4219,11.0770 L 20.4499,11.0770 L 20.4499,11.0911 L 21.4850,11.0911 L 21.4850,10.9085 L 20.3940,10.9085 L 20.3800,10.9226 L 20.3660,10.9226 L 20.3660,10.9366 L 20.3520,10.9366 L 20.3520,11.5403 L 20.3660,11.5403 L 20.3660,11.5544 L 20.3800,11.5544 L 20.3800,11.5684 L 20.0443,11.5684 L 20.0443,11.5544 L 20.0163,11.5544 L 20.0163,11.5403 L 20.0023,11.5403 L 20.0023,11.5263 L 19.9883,11.5263 L 19.9883,10.7962 L 20.0023,10.7962 L 20.0023,10.7822 L 20.0163,10.7822 L 20.0163,10.7682 L 20.0443,10.7682 L 20.0443,10.7541 L 21.7927,10.7541 L 21.7927,10.7682 L 21.8207,10.7682 L 21.8207,10.7822 L 21.8347,10.7822 L 21.8347,10.7962 L 21.8487,10.7962 L 21.8487,11.2034 L 21.8347,11.2034 L 21.8347,11.2174 L 21.8207,11.2174 L 21.8207,11.2315 L 21.8067,11.2315 L 21.7927,11.2455 L 21.7647,11.2455 L 21.7647,11.2595 L 21.7647,11.2736 L 21.7927,11.2736 L 21.8067,11.2876 L 21.8207,11.2876 L 21.8207,11.3016 L 21.8347,11.3016 L 21.8347,11.3157 L 21.8487,11.3157 L 21.8487,11.5403 L 21.8627,11.5403 L 21.8627,11.5544 L 21.8766,11.5544 L 21.8766,11.5684 L 21.5409,11.5684 L 21.5409,11.5544 L 21.5130,11.5544 L 21.5130,11.5403 L 21.4990,11.5403 L 21.4990,11.5263 L 21.4850,11.5263 L 21.4850,11.2595 L 20.5198,11.2595 L 20.5059,11.2595 Z" stroke="#C1C1C1" stroke-width="0.1196" stroke-linecap="round" stroke-linejoin="round" fill="#BFBFBF"/>
        <path d="M 22.5061,10.9085 L 22.1004,10.9085 L 22.1004,10.8945 L 22.0725,10.8945 L 22.0585,10.8805 L 22.0445,10.8805 L 22.0445,10.7962 L 22.0585,10.7962 L 22.0585,10.7822 L 22.0725,10.7822 L 22.0725,10.7682 L 22.1004,10.7682 L 22.1144,10.7541 L 23.8489,10.7541 L 23.8629,10.7682 L 23.8909,10.7682 L 23.8909,10.7822 L 23.9048,10.7822 L 23.9048,10.7962 L 23.9188,10.7962 L 23.9188,10.9366 L 23.9048,10.9366 L 23.8909,10.9226 L 23.8629,10.9226 L 23.8629,10.9085 L 22.9117,10.9085 L 22.9117,10.9226 L 22.8838,10.9226 L 22.8838,10.9366 L 22.8698,10.9366 L 22.8698,11.5403 L 22.8838,11.5403 L 22.8838,11.5544 L 22.8977,11.5544 L 22.8977,11.5684 L 22.5620,11.5684 L 22.5620,11.5544 L 22.5341,11.5544 L 22.5341,11.5403 L 22.5201,11.5403 L 22.5201,11.5263 L 22.5061,11.5263 L 22.5061,10.9226 L 22.5061,10.9085 Z" stroke="#C1C1C1" stroke-width="0.1196" stroke-linecap="round" stroke-linejoin="round" fill="#BFBFBF"/>
        <path d="M 24.4644,11.5263 L 24.4644,11.5403 L 24.4783,11.5403 L 24.4783,11.5544 L 24.4923,11.5544 L 24.5063,11.5684 L 24.1706,11.5684 L 24.1566,11.5544 L 24.1286,11.5544 L 24.1286,11.5403 L 24.1147,11.5403 L 24.1147,11.5263 L 24.1007,11.5263 L 24.1007,10.7822 L 24.0867,10.7682 L 24.0727,10.7682 L 24.0727,10.7541 L 24.4084,10.7541 L 24.4084,10.7682 L 24.4364,10.7682 L 24.4364,10.7822 L 24.4504,10.7822 L 24.4504,10.7962 L 24.4644,10.7962 L 24.4644,11.5122 L 24.4644,11.5263 Z" stroke="#C1C1C1" stroke-width="0.1196" stroke-linecap="round" stroke-linejoin="round" fill="#BFBFBF"/>
        <path d="M 26.2688,10.9085 L 25.1777,10.9085 L 25.1637,10.9226 L 25.1497,10.9226 L 25.1497,10.9366 L 25.1358,10.9366 L 25.1358,11.5403 L 25.1497,11.5403 L 25.1497,11.5544 L 25.1637,11.5544 L 25.1637,11.5684 L 24.8280,11.5684 L 24.8280,11.5544 L 24.8001,11.5544 L 24.8001,11.5403 L 24.7861,11.5403 L 24.7861,11.5263 L 24.7721,11.5263 L 24.7721,10.7962 L 24.7861,10.7962 L 24.7861,10.7822 L 24.8001,10.7822 L 24.8001,10.7682 L 24.8280,10.7682 L 24.8280,10.7541 L 26.5765,10.7541 L 26.5765,10.7682 L 26.6045,10.7682 L 26.6045,10.7822 L 26.6184,10.7822 L 26.6184,10.7962 L 26.6324,10.7962 L 26.6324,11.5403 L 26.6464,11.5403 L 26.6464,11.5544 L 26.6604,11.5544 L 26.6604,11.5684 L 26.3247,11.5684 L 26.3247,11.5544 L 26.2967,11.5544 L 26.2967,11.5403 L 26.2827,11.5403 L 26.2827,11.5263 L 26.2688,11.5263 L 26.2688,10.9226 L 26.2688,10.9085 Z" stroke="#C1C1C1" stroke-width="0.1196" stroke-linecap="round" stroke-linejoin="round" fill="#BFBFBF"/>
        <path d="M 28.4788,11.0911 L 27.3038,11.0911 L 27.3038,11.0770 L 27.2759,11.0770 L 27.2759,11.0630 L 27.2619,11.0630 L 27.2619,11.2315 L 27.2899,11.2315 L 27.2899,11.2455 L 28.5068,11.2455 L 28.5208,11.2315 L 28.5348,11.2315 L 28.5487,11.2174 L 28.5627,11.2174 L 28.5627,11.2034 L 28.5767,11.2034 L 28.5767,11.1753 L 28.5907,11.1753 L 28.5907,11.1472 L 28.5767,11.1472 L 28.5767,11.1332 L 28.5627,11.1191 L 28.5487,11.1191 L 28.5487,11.1051 L 28.5208,11.1051 L 28.5068,11.0911 L 28.4928,11.0911 L 28.4788,11.0911 Z" stroke="#C1C1C1" stroke-width="0.1196" stroke-linecap="round" stroke-linejoin="round" fill="#BFBFBF"/>
        <path d="M 29.3460,10.9085 L 28.9404,10.9085 L 28.9404,10.8945 L 28.9124,10.8945 L 28.8984,10.8805 L 28.8844,10.8805 L 28.8844,10.7962 L 28.8984,10.7962 L 28.8984,10.7822 L 28.9124,10.7822 L 28.9124,10.7682 L 28.9404,10.7682 L 28.9544,10.7541 L 30.6888,10.7541 L 30.7028,10.7682 L 30.7308,10.7682 L 30.7308,10.7822 L 30.7448,10.7822 L 30.7448,10.7962 L 30.7588,10.7962 L 30.7588,10.9366 L 30.7448,10.9366 L 30.7308,10.9226 L 30.7028,10.9226 L 30.7028,10.9085 L 29.7517,10.9085 L 29.7517,10.9226 L 29.7237,10.9226 L 29.7237,10.9366 L 29.7097,10.9366 L 29.7097,11.5403 L 29.7237,11.5403 L 29.7237,11.5544 L 29.7377,11.5544 L 29.7377,11.5684 L 29.4020,11.5684 L 29.4020,11.5544 L 29.3740,11.5544 L 29.3740,11.5403 L 29.3600,11.5403 L 29.3600,11.5263 L 29.3460,11.5263 L 29.3460,10.9226 L 29.3460,10.9085 Z" stroke="#C1C1C1" stroke-width="0.1196" stroke-linecap="round" stroke-linejoin="round" fill="#BFBFBF"/>
        <path d="M 28.6047,11.4140 L 28.6467,11.4140 L 28.6467,11.3999 L 28.6746,11.3999 L 28.6886,11.3859 L 28.7026,11.3859 L 28.7026,11.5263 L 28.6886,11.5263 L 28.6886,11.5403 L 28.6746,11.5403 L 28.6746,11.5544 L 28.6467,11.5544 L 28.6327,11.5684 L 26.8982,11.5684 L 26.8842,11.5544 L 26.8562,11.5544 L 26.8562,11.5403 L 26.8422,11.5403 L 26.8422,11.5263 L 26.8283,11.5263 L 26.8283,10.7962 L 26.8422,10.7962 L 26.8422,10.7822 L 26.8562,10.7822 L 26.8562,10.7682 L 26.8842,10.7682 L 26.8982,10.7541 L 28.6327,10.7541 L 28.6467,10.7682 L 28.6746,10.7682 L 28.6746,10.7822 L 28.6886,10.7822 L 28.6886,10.7962 L 28.7026,10.7962 L 28.7026,10.9366 L 28.6886,10.9366 L 28.6746,10.9226 L 28.6467,10.9226 L 28.6467,10.9085 L 27.2479,10.9085 L 27.2339,10.9226 L 27.2199,10.9226 L 27.2199,10.9366 L 27.2059,10.9366 L 27.2059,11.4140 L 28.5907,11.4140 L 28.6047,11.4140 Z" stroke="#C1C1C1" stroke-width="0.1196" stroke-linecap="round" stroke-linejoin="round" fill="#BFBFBF"/>
        <path d="M 18.5336,11.3297 L 18.5336,11.5684 L 19.1491,11.5684 L 19.1491,11.3297 L 18.5336,11.3297 Z" stroke="#C1C1C1" stroke-width="0.1196" stroke-linecap="round" stroke-linejoin="round" fill="#BFBFBF"/>
        <path d="M 17.9181,11.0489 L 18.4357,11.0489 L 18.4357,11.2736 L 17.9181,11.2736 L 17.9181,11.0489 Z" stroke="#C1C1C1" stroke-width="0.1196" stroke-linecap="round" stroke-linejoin="round" fill="#BFBFBF"/>
        <path d="M 19.2610,11.3297 L 19.2610,11.5684 L 19.5267,11.5684 L 19.5547,11.5544 L 19.5967,11.5544 L 19.6106,11.5403 L 19.6246,11.5403 L 19.6386,11.5263 L 19.6666,11.5263 L 19.6946,11.4982 L 19.7086,11.4982 L 19.7225,11.4842 L 19.7225,11.4701 L 19.7505,11.4420 L 19.7505,11.4280 L 19.7645,11.4140 L 19.7645,11.3859 L 19.7785,11.3718 L 19.7785,11.3297 L 19.2749,11.3297 L 19.2610,11.3297 Z" stroke="#C1C1C1" stroke-width="0.1196" stroke-linecap="round" stroke-linejoin="round" fill="#BFBFBF"/>
        <path d="M 19.2610,11.0489 L 19.7785,11.0489 L 19.7785,11.2736 L 19.2610,11.2736 L 19.2610,11.0489 Z" stroke="#C1C1C1" stroke-width="0.1196" stroke-linecap="round" stroke-linejoin="round" fill="#BFBFBF"/>
        <path d="M 18.4357,11.3297 L 18.4357,11.5684 L 18.1699,11.5684 L 18.1419,11.5544 L 18.1000,11.5544 L 18.0860,11.5403 L 18.0720,11.5403 L 18.0580,11.5263 L 18.0300,11.5263 L 18.0021,11.4982 L 17.9881,11.4982 L 17.9741,11.4842 L 17.9741,11.4701 L 17.9461,11.4420 L 17.9461,11.4280 L 17.9321,11.4140 L 17.9321,11.3859 L 17.9181,11.3718 L 17.9181,11.3297 L 18.4217,11.3297 L 18.4357,11.3297 Z" stroke="#C1C1C1" stroke-width="0.1196" stroke-linecap="round" stroke-linejoin="round" fill="#BFBFBF"/>
        <path d="M 18.5336,10.7541 L 18.5336,10.9928 L 19.1491,10.9928 L 19.1491,10.7541 L 18.5336,10.7541 Z" stroke="#C1C1C1" stroke-width="0.1196" stroke-linecap="round" stroke-linejoin="round" fill="#BFBFBF"/>
        <path d="M 19.2610,10.9928 L 19.2610,10.7541 L 19.5267,10.7541 L 19.5547,10.7682 L 19.5967,10.7682 L 19.6106,10.7822 L 19.6246,10.7822 L 19.6386,10.7962 L 19.6666,10.7962 L 19.6946,10.8243 L 19.7086,10.8243 L 19.7225,10.8384 L 19.7225,10.8524 L 19.7505,10.8805 L 19.7505,10.8945 L 19.7645,10.9085 L 19.7645,10.9366 L 19.7785,10.9507 L 19.7785,10.9928 L 19.2749,10.9928 L 19.2610,10.9928 Z" stroke="#C1C1C1" stroke-width="0.1196" stroke-linecap="round" stroke-linejoin="round" fill="#BFBFBF"/>
        <path d="M 18.4357,10.9928 L 18.4357,10.7541 L 18.1699,10.7541 L 18.1419,10.7682 L 18.1000,10.7682 L 18.0860,10.7822 L 18.0720,10.7822 L 18.0580,10.7962 L 18.0300,10.7962 L 18.0021,10.8243 L 17.9881,10.8243 L 17.9741,10.8384 L 17.9741,10.8524 L 17.9461,10.8805 L 17.9461,10.8945 L 17.9321,10.9085 L 17.9321,10.9366 L 17.9181,10.9507 L 17.9181,10.9928 L 18.4217,10.9928 L 18.4357,10.9928 Z" stroke="#C1C1C1" stroke-width="0.1196" stroke-linecap="round" stroke-linejoin="round" fill="#BFBFBF"/>
        <text font-family="Arial" fill="#BFBFBF" style="white-space:pre;" text-anchor="start" x="17.5824" y="12.6915" font-size="1.2869"><![CDATA[F]]></text>
        <text font-family="Arial" fill="#BFBFBF" style="white-space:pre;" text-anchor="start" x="18.3797" y="12.6915" font-size="1.2869"><![CDATA[o]]></text>
        <text font-family="Arial" fill="#BFBFBF" style="white-space:pre;" text-anchor="start" x="19.0931" y="12.6915" font-size="1.2869"><![CDATA[r]]></text>
        <text font-family="Arial" fill="#BFBFBF" style="white-space:pre;" text-anchor="start" x="19.5267" y="12.6915" font-size="1.2869"><![CDATA[t]]></text>
        <text font-family="Arial" fill="#BFBFBF" style="white-space:pre;" text-anchor="start" x="19.8904" y="12.6915" font-size="1.2869"><![CDATA[i]]></text>
        <text font-family="Arial" fill="#BFBFBF" style="white-space:pre;" text-anchor="start" x="20.1702" y="12.6915" font-size="1.2869"><![CDATA[A]]></text>
        <text font-family="Arial" fill="#BFBFBF" style="white-space:pre;" text-anchor="start" x="21.0374" y="12.6915" font-size="1.2869"><![CDATA[P]]></text>
        <text font-family="Arial" fill="#BFBFBF" style="white-space:pre;" text-anchor="start" x="21.9046" y="12.6915" font-size="1.2869"><![CDATA[ ]]></text>
        <text font-family="Arial" fill="#BFBFBF" style="white-space:pre;" text-anchor="start" x="22.2683" y="12.6915" font-size="1.2869"><![CDATA[S]]></text>
        <text font-family="Arial" fill="#BFBFBF" style="white-space:pre;" text-anchor="start" x="23.1355" y="12.6915" font-size="1.2869"><![CDATA[3]]></text>
        <text font-family="Arial" fill="#BFBFBF" style="white-space:pre;" text-anchor="start" x="23.8489" y="12.6915" font-size="1.2869"><![CDATA[1]]></text>
        <text font-family="Arial" fill="#BFBFBF" style="white-space:pre;" text-anchor="start" x="24.5623" y="12.6915" font-size="1.2869"><![CDATA[1]]></text>
        <text font-family="Arial" fill="#BFBFBF" style="white-space:pre;" text-anchor="start" x="25.2756" y="12.6915" font-size="1.2869"><![CDATA[C]]></text>
        <path d="M 23.6810,21.1994 L 23.6671,21.1572 L 23.6531,21.1292 L 23.5691,21.0730 L 23.5132,21.0449 L 23.4572,21.0309 L 23.3733,21.0169 L 23.2334,21.0169 L 23.1495,21.0309 L 23.0936,21.0449 L 23.0376,21.0730 L 22.9537,21.1292 L 22.9397,21.1572 L 22.9257,21.1994 L 22.9537,21.2836 L 23.0376,21.3398 L 23.0936,21.3678 L 23.1495,21.3819 L 23.2334,21.3959 L 23.3733,21.3959 L 23.4572,21.3819 L 23.5132,21.3678 L 23.5691,21.3398 L 23.6531,21.2836 L 23.6671,21.2415 L 23.6810,21.1994 Z" stroke="#000000" stroke-width="0.1196" stroke-linecap="round" stroke-linejoin="round" fill="#00FF00"/>
        <path d="M 26.8842,21.0590 L 26.8702,21.0169 L 26.8562,20.9888 L 26.7723,20.9326 L 26.7164,20.9045 L 26.6604,20.8905 L 26.5765,20.8765 L 26.4366,20.8765 L 26.3527,20.8905 L 26.2967,20.9045 L 26.2408,20.9326 L 26.1569,20.9888 L 26.1429,21.0169 L 26.1289,21.0590 L 26.1569,21.1432 L 26.2408,21.1994 L 26.2967,21.2274 L 26.3527,21.2415 L 26.4366,21.2555 L 26.5765,21.2555 L 26.6604,21.2415 L 26.7164,21.2274 L 26.7723,21.1994 L 26.8562,21.1432 L 26.8702,21.1011 L 26.8842,21.0590 Z" stroke="#000000" stroke-width="0.1196" stroke-linecap="round" stroke-linejoin="round" fill="#00FF00"/>
        <path d="M 30.0734,20.6378 L 30.0594,20.5957 L 30.0454,20.5676 L 29.9615,20.5114 L 29.9055,20.4834 L 29.8496,20.4693 L 29.7657,20.4553 L 29.6258,20.4553 L 29.5419,20.4693 L 29.4859,20.4834 L 29.4300,20.5114 L 29.3460,20.5676 L 29.3320,20.5957 L 29.3181,20.6378 L 29.3460,20.7220 L 29.4300,20.7782 L 29.4859,20.8063 L 29.5419,20.8203 L 29.6258,20.8343 L 29.7657,20.8343 L 29.8496,20.8203 L 29.9055,20.8063 L 29.9615,20.7782 L 30.0454,20.7220 L 30.0594,20.6799 L 30.0734,20.6378 Z" stroke="#000000" stroke-width="0.1196" stroke-linecap="round" stroke-linejoin="round" fill="#00FF00"/>
        <path d="M 17.2887,20.6378 L 17.2747,20.5957 L 17.2607,20.5676 L 17.1768,20.5114 L 17.1209,20.4834 L 17.0649,20.4693 L 16.9810,20.4553 L 16.8411,20.4553 L 16.7572,20.4693 L 16.7012,20.4834 L 16.6453,20.5114 L 16.5613,20.5676 L 16.5474,20.5957 L 16.5334,20.6378 L 16.5613,20.7220 L 16.6453,20.7782 L 16.7012,20.8063 L 16.7572,20.8203 L 16.8411,20.8343 L 16.9810,20.8343 L 17.0649,20.8203 L 17.1209,20.8063 L 17.1768,20.7782 L 17.2607,20.7220 L 17.2747,20.6799 L 17.2887,20.6378 Z" stroke="#000000" stroke-width="0.1196" stroke-linecap="round" stroke-linejoin="round" fill="#00FF00"/>
        <path d="M 20.4919,21.0590 L 20.4779,21.0169 L 20.4639,20.9888 L 20.3800,20.9326 L 20.3240,20.9045 L 20.2681,20.8905 L 20.1841,20.8765 L 20.0443,20.8765 L 19.9603,20.8905 L 19.9044,20.9045 L 19.8484,20.9326 L 19.7645,20.9888 L 19.7505,21.0169 L 19.7365,21.0590 L 19.7645,21.1432 L 19.8484,21.1994 L 19.9044,21.2274 L 19.9603,21.2415 L 20.0443,21.2555 L 20.1841,21.2555 L 20.2681,21.2415 L 20.3240,21.2274 L 20.3800,21.1994 L 20.4639,21.1432 L 20.4779,21.1011 L 20.4919,21.0590 Z" stroke="#000000" stroke-width="0.1196" stroke-linecap="round" stroke-linejoin="round" fill="#00FF00"/>
        <path d="M 23.8209,20.5816 L 22.6739,20.5816 " stroke="#7F7F7F" stroke-width="0.1196" stroke-linecap="round" stroke-linejoin="round" fill="none"/>
        <path d="M 23.2474,20.4834 L 23.2474,20.5676 " stroke="#7F7F7F" stroke-width="0.1196" stroke-linecap="round" stroke-linejoin="round" fill="none"/>
        <path d="M 23.3873,20.3430 L 23.1076,20.3430 L 23.1076,20.4834 L 23.3873,20.4834 L 23.3873,20.3430 Z" stroke="#7F7F7F" stroke-width="0.1196" stroke-linecap="round" stroke-linejoin="round" fill="#7F7F7F"/>
        <path d="M 23.5831,20.5676 L 23.5831,20.6518 " stroke="#7F7F7F" stroke-width="0.1196" stroke-linecap="round" stroke-linejoin="round" fill="none"/>
        <path d="M 23.5831,20.5676 L 23.5831,20.6518 " stroke="#7F7F7F" stroke-width="0.1196" stroke-linecap="round" stroke-linejoin="round" fill="none"/>
        <path d="M 23.4572,20.6518 L 23.7370,20.6518 L 23.7370,20.7922 L 23.4572,20.7922 L 23.4572,20.6518 Z" stroke="#7F7F7F" stroke-width="0.1196" stroke-linecap="round" stroke-linejoin="round" fill="#7F7F7F"/>
        <path d="M 22.8838,20.5676 L 22.8838,20.6518 " stroke="#7F7F7F" stroke-width="0.1196" stroke-linecap="round" stroke-linejoin="round" fill="none"/>
        <path d="M 23.0376,20.6518 L 22.7579,20.6518 L 22.7579,20.7922 L 23.0376,20.7922 L 23.0376,20.6518 Z" stroke="#7F7F7F" stroke-width="0.1196" stroke-linecap="round" stroke-linejoin="round" fill="#7F7F7F"/>
        <path d="M 16.5893,20.0481 L 16.5753,20.0481 L 16.5753,20.0341 L 16.5613,20.0341 L 16.5474,20.0201 L 16.5334,20.0201 L 16.5334,20.0060 L 16.5194,20.0060 L 16.5194,19.9920 L 16.4914,19.9639 L 16.4914,19.9499 L 16.4774,19.9358 L 16.4774,19.8797 L 16.4914,19.8656 L 16.4914,19.8516 L 16.5474,19.7954 L 16.5613,19.7954 L 16.5613,19.7814 L 16.6033,19.7814 L 16.6033,19.7674 L 16.6173,19.7674 L 16.6313,19.7674 " stroke="#7F7F7F" stroke-width="0.1196" stroke-linecap="round" stroke-linejoin="round" fill="none"/>
        <path d="M 16.6313,20.0060 L 16.5893,19.9639 L 16.5893,19.9499 L 16.5753,19.9499 L 16.5753,19.8656 L 16.5893,19.8656 L 16.5893,19.8516 L 16.6173,19.8235 L 16.6313,19.8235 L 16.6453,19.8095 L 16.6593,19.8095 " stroke="#7F7F7F" stroke-width="0.1196" stroke-linecap="round" stroke-linejoin="round" fill="none"/>
        <path d="M 16.7152,19.9639 L 16.7012,19.9639 L 16.7012,19.9499 L 16.6732,19.9499 L 16.6732,19.9358 L 16.6593,19.9358 L 16.6593,19.8797 L 16.6732,19.8797 L 16.6732,19.8656 L 16.6872,19.8656 L 16.6872,19.8516 L 16.7012,19.8516 L 16.7152,19.8516 " stroke="#7F7F7F" stroke-width="0.1196" stroke-linecap="round" stroke-linejoin="round" fill="none"/>
        <path d="M 17.1209,20.0481 L 17.1348,20.0481 L 17.1348,20.0341 L 17.1488,20.0341 L 17.1628,20.0201 L 17.1768,20.0201 L 17.1768,20.0060 L 17.1908,20.0060 L 17.1908,19.9920 L 17.2048,19.9920 L 17.2048,19.9779 L 17.2188,19.9779 L 17.2188,19.9639 L 17.2328,19.9639 L 17.2328,19.9499 L 17.2467,19.9358 L 17.2467,19.8797 L 17.2328,19.8797 L 17.2328,19.8516 L 17.2188,19.8516 L 17.2188,19.8376 L 17.2048,19.8376 L 17.2048,19.8235 L 17.1908,19.8235 L 17.1908,19.8095 L 17.1768,19.8095 L 17.1768,19.7954 L 17.1628,19.7954 L 17.1488,19.7814 L 17.1209,19.7814 L 17.1209,19.7674 L 17.1069,19.7674 L 17.0929,19.7674 " stroke="#7F7F7F" stroke-width="0.1196" stroke-linecap="round" stroke-linejoin="round" fill="none"/>
        <path d="M 17.0789,20.0060 L 17.1209,19.9639 L 17.1209,19.9499 L 17.1348,19.9499 L 17.1348,19.8656 L 17.1209,19.8656 L 17.1209,19.8376 L 17.1069,19.8376 L 17.0929,19.8235 L 17.0789,19.8235 L 17.0649,19.8095 L 17.0509,19.8095 " stroke="#7F7F7F" stroke-width="0.1196" stroke-linecap="round" stroke-linejoin="round" fill="none"/>
        <path d="M 17.0089,19.9639 L 17.0229,19.9639 L 17.0229,19.9499 L 17.0509,19.9499 L 17.0509,19.9358 L 17.0649,19.9358 L 17.0649,19.8797 L 17.0509,19.8797 L 17.0509,19.8656 L 17.0369,19.8656 L 17.0369,19.8516 L 17.0229,19.8516 L 17.0089,19.8516 " stroke="#7F7F7F" stroke-width="0.1196" stroke-linecap="round" stroke-linejoin="round" fill="none"/>
        <path d="M 16.7991,20.2447 L 16.8411,19.9358 L 16.9110,19.9358 L 16.9530,20.2447 L 16.7991,20.2447 Z" stroke="#7F7F7F" stroke-width="0.1196" stroke-linecap="round" stroke-linejoin="round" fill="#7F7F7F"/>
        <path d="M 19.8484,20.5114 L 19.8344,20.5114 L 19.8344,20.4974 L 19.8205,20.4974 L 19.8065,20.4834 L 19.7925,20.4834 L 19.7925,20.4693 L 19.7785,20.4693 L 19.7785,20.4553 L 19.7505,20.4272 L 19.7505,20.4132 L 19.7365,20.3991 L 19.7365,20.3430 L 19.7505,20.3289 L 19.7505,20.3149 L 19.8065,20.2587 L 19.8205,20.2587 L 19.8205,20.2447 L 19.8624,20.2447 L 19.8624,20.2307 L 19.8764,20.2307 L 19.8904,20.2307 " stroke="#7F7F7F" stroke-width="0.1196" stroke-linecap="round" stroke-linejoin="round" fill="none"/>
        <path d="M 19.8904,20.4693 L 19.8484,20.4272 L 19.8484,20.4132 L 19.8344,20.4132 L 19.8344,20.3289 L 19.8484,20.3289 L 19.8484,20.3149 L 19.8764,20.2868 L 19.8904,20.2868 L 19.9044,20.2728 L 19.9184,20.2728 " stroke="#7F7F7F" stroke-width="0.1196" stroke-linecap="round" stroke-linejoin="round" fill="none"/>
        <path d="M 19.9743,20.4272 L 19.9603,20.4272 L 19.9603,20.4132 L 19.9324,20.4132 L 19.9324,20.3991 L 19.9184,20.3991 L 19.9184,20.3430 L 19.9324,20.3430 L 19.9324,20.3289 L 19.9464,20.3289 L 19.9464,20.3149 L 19.9603,20.3149 L 19.9743,20.3149 " stroke="#7F7F7F" stroke-width="0.1196" stroke-linecap="round" stroke-linejoin="round" fill="none"/>
        <path d="M 20.3800,20.5114 L 20.3940,20.5114 L 20.3940,20.4974 L 20.4079,20.4974 L 20.4219,20.4834 L 20.4359,20.4834 L 20.4359,20.4693 L 20.4499,20.4693 L 20.4499,20.4553 L 20.4639,20.4553 L 20.4639,20.4412 L 20.4779,20.4412 L 20.4779,20.4272 L 20.4919,20.4272 L 20.4919,20.4132 L 20.5059,20.3991 L 20.5059,20.3430 L 20.4919,20.3430 L 20.4919,20.3149 L 20.4779,20.3149 L 20.4779,20.3009 L 20.4639,20.3009 L 20.4639,20.2868 L 20.4499,20.2868 L 20.4499,20.2728 L 20.4359,20.2728 L 20.4359,20.2587 L 20.4219,20.2587 L 20.4079,20.2447 L 20.3800,20.2447 L 20.3800,20.2307 L 20.3660,20.2307 L 20.3520,20.2307 " stroke="#7F7F7F" stroke-width="0.1196" stroke-linecap="round" stroke-linejoin="round" fill="none"/>
        <path d="M 20.3380,20.4693 L 20.3800,20.4272 L 20.3800,20.4132 L 20.3940,20.4132 L 20.3940,20.3289 L 20.3800,20.3289 L 20.3800,20.3009 L 20.3660,20.3009 L 20.3520,20.2868 L 20.3380,20.2868 L 20.3240,20.2728 L 20.3100,20.2728 " stroke="#7F7F7F" stroke-width="0.1196" stroke-linecap="round" stroke-linejoin="round" fill="none"/>
        <path d="M 20.2681,20.4272 L 20.2821,20.4272 L 20.2821,20.4132 L 20.3100,20.4132 L 20.3100,20.3991 L 20.3240,20.3991 L 20.3240,20.3430 L 20.3100,20.3430 L 20.3100,20.3289 L 20.2960,20.3289 L 20.2960,20.3149 L 20.2821,20.3149 L 20.2681,20.3149 " stroke="#7F7F7F" stroke-width="0.1196" stroke-linecap="round" stroke-linejoin="round" fill="none"/>
        <path d="M 20.0583,20.7080 L 20.1002,20.3991 L 20.1702,20.3991 L 20.2121,20.7080 L 20.0583,20.7080 Z" stroke="#7F7F7F" stroke-width="0.1196" stroke-linecap="round" stroke-linejoin="round" fill="#7F7F7F"/>
        <text font-family="Symbol" fill="#7F7F7F" style="white-space:pre;" text-anchor="start" x="30.2133" y="11.5544" font-size="0.3637"><![CDATA[]]></text>
        <path d="M 26.8982,20.6940 L 26.9402,20.6940 L 26.9402,20.6799 L 26.9541,20.6799 L 26.9541,20.6518 L 26.8842,20.5816 L 26.8702,20.5816 L 26.8562,20.5676 L 26.8283,20.5536 L 26.8143,20.5255 L 26.7863,20.4974 L 26.7583,20.4834 L 26.7164,20.4412 L 26.6884,20.4272 L 26.6604,20.3991 L 26.6464,20.3710 L 26.6184,20.3570 L 26.5905,20.3289 L 26.5765,20.3289 L 26.5345,20.2868 L 26.5345,20.2728 L 26.5205,20.2728 L 26.5065,20.2587 L 26.5065,20.2447 L 26.4786,20.2447 L 26.4786,20.2307 L 26.3807,20.2307 L 26.3807,20.2447 L 26.3667,20.2447 L 26.3527,20.2587 L 26.3387,20.2587 L 26.3387,20.2728 L 26.3247,20.2868 L 26.3107,20.2868 L 26.2128,20.3851 L 26.1848,20.3991 L 26.1009,20.4834 L 26.0729,20.4974 L 26.0589,20.5114 L 26.0450,20.5395 L 26.0310,20.5536 L 26.0030,20.5676 L 25.9191,20.6518 L 25.9051,20.6518 L 25.9051,20.6659 L 25.8911,20.6659 L 25.8911,20.6799 L 25.9191,20.6799 L 25.9191,20.6940 L 26.8842,20.6940 L 26.8842,20.6799 L 26.9122,20.6799 L 26.9122,20.6659 L 26.9262,20.6659 L 26.9262,20.6518 L 26.9122,20.6518 L 26.9122,20.6378 L 26.8982,20.6378 L 26.8982,20.6238 L 26.8842,20.6238 L 26.8842,20.6097 L 26.8702,20.6097 L 26.8422,20.5816 L 26.8283,20.5816 L 26.7024,20.4553 L 26.6744,20.4412 L 26.5765,20.3430 L 26.5625,20.3430 L 26.5485,20.3289 L 26.5485,20.3149 L 26.5345,20.3149 L 26.4786,20.2587 L 26.4646,20.2587 L 26.4646,20.2447 L 26.3946,20.2447 L 26.3946,20.2587 L 26.3807,20.2587 L 26.3807,20.2728 L 26.3667,20.2728 L 26.3667,20.2868 L 26.3527,20.3009 L 26.3387,20.3009 L 26.3387,20.3149 L 26.3247,20.3289 L 26.3107,20.3289 L 26.2268,20.4132 L 26.1988,20.4272 L 26.1569,20.4693 L 26.1289,20.4834 L 26.0030,20.6097 L 25.9890,20.6097 L 25.9610,20.6378 L 25.9470,20.6378 L 25.9470,20.6518 L 25.9331,20.6518 L 25.9331,20.6659 L 25.9470,20.6659 L 25.9470,20.6799 L 26.8842,20.6799 L 26.8842,20.6940 L 26.8982,20.6940 Z" stroke="#7F7F7F" stroke-width="0.1196" stroke-linecap="round" stroke-linejoin="round" fill="#7F7F7F"/>
        <path d="M 26.4226,20.5957 L 26.4226,20.5676 L 26.4366,20.5676 L 26.4366,20.5255 L 26.4506,20.5255 L 26.4506,20.4834 L 26.4646,20.4834 L 26.4646,20.4272 L 26.4786,20.4272 L 26.4786,20.3851 L 26.4926,20.3851 L 26.4926,20.3430 L 26.4786,20.3430 L 26.4646,20.3289 L 26.3807,20.3289 L 26.3667,20.3430 L 26.3667,20.3851 L 26.3807,20.3991 L 26.3807,20.4412 L 26.3946,20.4553 L 26.3946,20.4974 L 26.4086,20.5114 L 26.4086,20.5536 L 26.4226,20.5676 L 26.4226,20.5816 L 26.4226,20.5957 Z" stroke="#7F7F7F" stroke-width="0.1196" stroke-linecap="round" stroke-linejoin="round" fill="#7F7F7F"/>
        <path d="M 26.4786,20.6378 L 26.4646,20.6238 L 26.4226,20.6097 L 26.3807,20.6238 L 26.3667,20.6378 L 26.3807,20.6518 L 26.4226,20.6659 L 26.4646,20.6518 L 26.4786,20.6378 Z" stroke="#7F7F7F" stroke-width="0.1196" stroke-linecap="round" stroke-linejoin="round" fill="#7F7F7F"/>
        <path d="M 29.7517,19.9218 L 29.7657,19.9218 L 29.7796,19.9358 L 29.8076,19.9358 L 29.8216,19.9499 L 29.8356,19.9499 L 29.8496,19.9639 L 29.8636,19.9639 L 29.8636,19.9779 L 29.8776,19.9779 L 29.8916,19.9920 L 29.8916,20.0060 L 29.9055,20.0060 L 29.9055,20.0201 L 29.9195,20.0201 L 29.9195,20.0481 L 29.9335,20.0622 L 29.9335,20.1183 L 29.9195,20.1324 L 29.9195,20.1464 L 29.9055,20.1605 L 29.9055,20.1745 L 29.8916,20.1745 L 29.8916,20.1885 L 29.8776,20.1885 L 29.8356,20.2307 L 29.8076,20.2307 L 29.7936,20.2447 L 29.7796,20.2447 L 29.7657,20.2587 L 29.7377,20.2587 L 29.7237,20.2728 L 29.6677,20.2728 L 29.6538,20.2868 L 29.4579,20.2868 L 29.4439,20.2728 L 29.3880,20.2728 L 29.3740,20.2587 L 29.3460,20.2587 L 29.3320,20.2447 L 29.3181,20.2447 L 29.3041,20.2307 L 29.2761,20.2307 L 29.2341,20.1885 L 29.2201,20.1885 L 29.2201,20.1745 L 29.2062,20.1745 L 29.2062,20.1605 L 29.1922,20.1464 L 29.1922,20.1324 L 29.1782,20.1183 L 29.1782,20.0481 L 29.1922,20.0481 L 29.1922,20.0201 L 29.2062,20.0201 L 29.2062,20.0060 L 29.2201,20.0060 L 29.2201,19.9920 L 29.2341,19.9920 L 29.2341,19.9779 L 29.2481,19.9639 L 29.2621,19.9639 L 29.2621,19.9499 L 29.2761,19.9499 L 29.2901,19.9358 L 29.3181,19.9358 L 29.3181,19.9218 L 29.3320,19.9218 L 29.3740,19.9639 L 29.3600,19.9639 L 29.3600,19.9779 L 29.3320,19.9779 L 29.3181,19.9920 L 29.3041,19.9920 L 29.3041,20.0060 L 29.2901,20.0060 L 29.2901,20.0201 L 29.2761,20.0201 L 29.2761,20.0341 L 29.2621,20.0341 L 29.2621,20.0622 L 29.2481,20.0622 L 29.2481,20.1324 L 29.2621,20.1324 L 29.2621,20.1464 L 29.3181,20.2026 L 29.3320,20.2026 L 29.3460,20.2166 L 29.3600,20.2166 L 29.3740,20.2307 L 29.4020,20.2307 L 29.4160,20.2447 L 29.4719,20.2447 L 29.4859,20.2587 L 29.6258,20.2587 L 29.6398,20.2447 L 29.6957,20.2447 L 29.7097,20.2307 L 29.7377,20.2307 L 29.7517,20.2166 L 29.7796,20.2166 L 29.7796,20.2026 L 29.7936,20.2026 L 29.8496,20.1464 L 29.8496,20.1324 L 29.8636,20.1324 L 29.8636,20.0622 L 29.8496,20.0481 L 29.8496,20.0341 L 29.8356,20.0341 L 29.8356,20.0201 L 29.8216,20.0201 L 29.8216,20.0060 L 29.8076,20.0060 L 29.8076,19.9920 L 29.7936,19.9920 L 29.7796,19.9779 L 29.7657,19.9779 L 29.7517,19.9639 L 29.7237,19.9639 L 29.7097,19.9499 L 29.7097,19.9358 L 29.7377,19.9358 L 29.7377,19.9218 L 29.7517,19.9218 Z" stroke="#7F7F7F" stroke-width="0.1196" stroke-linecap="round" stroke-linejoin="round" fill="#7F7F7F"/>
        <path d="M 29.5838,19.8376 L 29.4999,19.8376 L 29.4999,20.1043 L 29.5838,20.1043 L 29.5838,19.8376 Z" stroke="#7F7F7F" stroke-width="0.1196" stroke-linecap="round" stroke-linejoin="round" fill="#7F7F7F"/>
        <path d="M 41.3055,26.8291 L 40.8998,27.0678 L 40.4802,27.3065 L 40.0466,27.5451 L 39.1514,27.9944 L 38.2002,28.4156 L 37.7106,28.6121 L 36.7035,29.0052 L 36.1860,29.1877 L 35.6545,29.3562 L 35.1089,29.5247 L 34.5634,29.6791 L 33.9899,29.8335 L 33.4304,29.9880 L 31.6680,30.3670 L 31.0665,30.4794 L 30.4511,30.5917 L 29.8356,30.6759 L 29.2062,30.7742 L 28.5767,30.8444 L 27.2899,30.9848 L 26.6464,31.0269 L 25.9890,31.0690 L 25.3176,31.1111 L 24.6602,31.1392 L 23.9748,31.1532 L 22.8558,31.1532 L 22.4222,31.1392 L 21.9746,31.1392 L 21.5409,31.1252 L 21.1073,31.0971 L 20.6737,31.0830 L 20.2401,31.0550 L 19.8205,31.0269 L 19.3868,30.9848 L 17.7083,30.8163 L 16.4914,30.6478 L 15.6801,30.5074 L 14.8968,30.3670 L 14.1135,30.1986 L 13.3582,30.0301 L 12.9805,29.9318 L 12.6028,29.8476 L 12.2392,29.7353 L 11.5118,29.5387 L 10.4627,29.2018 L 10.4767,29.2158 L 10.5047,29.1877 L 10.5187,29.1597 L 10.5467,29.1316 L 10.6026,29.0473 L 10.6446,28.9912 L 10.6865,28.9491 L 10.7285,28.8929 L 10.7705,28.8227 L 10.8264,28.7666 L 10.8684,28.6964 L 10.9243,28.6262 L 10.9803,28.5419 L 11.0362,28.4717 L 11.0922,28.3875 L 11.1621,28.3173 L 11.2740,28.1488 L 11.3440,28.0786 L 11.4559,27.9102 L 11.5258,27.8259 L 11.5818,27.7557 L 11.6377,27.6715 L 11.8056,27.4609 L 11.8475,27.3907 L 11.9035,27.3205 L 11.9454,27.2644 L 11.9874,27.2222 L 12.0154,27.2082 L 12.0433,27.1801 L 12.0993,27.1520 L 12.1133,27.1380 L 12.1413,27.1240 L 12.1692,27.1240 L 12.1832,27.1099 L 12.2112,27.0959 L 12.2392,27.0959 L 12.2671,27.0818 L 12.2951,27.0818 L 12.3231,27.0678 L 12.3651,27.0678 L 12.3930,27.0538 L 12.4490,27.0538 L 12.4770,27.0397 L 12.6588,27.0397 L 13.3582,27.1801 L 14.0855,27.2924 L 14.8409,27.3907 L 15.6242,27.4749 L 16.4355,27.5451 L 17.2747,27.6153 L 18.1280,27.6575 L 19.0092,27.6855 L 19.9044,27.6996 L 20.7996,27.6996 L 21.7228,27.6855 L 22.6460,27.6575 L 23.5831,27.6294 L 25.4575,27.5171 L 26.3946,27.4469 L 27.3318,27.3626 L 29.1782,27.1661 L 30.0874,27.0538 L 31.8778,26.8011 L 32.7450,26.6607 L 33.5843,26.5062 L 34.4096,26.3518 L 35.2068,26.1833 L 35.9902,26.0149 L 36.7315,25.8323 L 37.4449,25.6498 L 38.1163,25.4533 L 38.7597,25.2567 L 39.3612,25.0461 L 39.5850,25.0461 L 39.5990,25.0602 L 39.6409,25.0602 L 39.6689,25.0742 L 39.6969,25.0742 L 39.7109,25.0883 L 39.7388,25.0883 L 39.7668,25.1023 L 39.7808,25.1023 L 39.8088,25.1163 L 39.8228,25.1304 L 39.8507,25.1304 L 39.8647,25.1444 L 39.8927,25.1585 L 39.9067,25.1725 L 39.9347,25.1865 L 40.0326,25.2848 L 40.0745,25.3410 L 40.1305,25.3971 L 40.1725,25.4533 L 40.2284,25.5094 L 40.2704,25.5796 L 40.3263,25.6358 L 40.3823,25.7060 L 40.4382,25.7621 L 40.4942,25.8323 L 40.5501,25.8885 L 40.6620,26.0289 L 40.7180,26.0850 L 40.7739,26.1552 L 40.8299,26.2114 L 40.8718,26.2676 L 40.9278,26.3237 L 40.9697,26.3939 L 41.0257,26.4360 L 41.1096,26.5483 L 41.1516,26.5905 L 41.1796,26.6326 L 41.2215,26.6607 L 41.2495,26.7028 L 41.2775,26.7309 L 41.2915,26.7589 L 41.3334,26.8011 L 41.3194,26.8151 L 41.3055,26.8291 Z" stroke="#BFBFBF" stroke-width="0.1196" stroke-linecap="round" stroke-linejoin="round" fill="#DDDDDD"/>
        <path d="M 40.5501,27.2644 L 40.5361,27.2363 L 40.4662,27.1661 L 40.4522,27.1380 L 40.4242,27.1240 L 40.3963,27.0678 L 40.3683,27.0538 L 40.3403,26.9976 L 40.3123,26.9836 L 40.2983,26.9555 L 40.2844,26.9414 L 40.2704,26.9134 L 40.2144,26.8572 L 40.2004,26.8291 L 40.1864,26.8151 L 40.1725,26.7870 L 40.1445,26.7730 L 40.1305,26.7589 L 40.1165,26.7309 L 40.0885,26.7028 L 40.0745,26.6747 L 40.0606,26.6607 L 40.0326,26.6466 L 40.0186,26.6185 L 39.9347,26.5343 L 39.9067,26.5203 L 39.8927,26.5062 L 39.8647,26.4922 L 39.8507,26.4782 L 39.8228,26.4782 L 39.8088,26.4641 L 39.7808,26.4501 L 39.7668,26.4501 L 39.7388,26.4360 L 39.7109,26.4360 L 39.6969,26.4220 L 39.6689,26.4220 L 39.6409,26.4080 L 39.5990,26.4080 L 39.5850,26.3939 L 39.3612,26.3939 L 38.7597,26.6045 L 38.1163,26.8011 L 37.4449,26.9976 L 36.7315,27.1801 L 35.9902,27.3626 L 35.2068,27.5311 L 34.4096,27.6996 L 33.5843,27.8540 L 32.7450,28.0084 L 31.8778,28.1488 L 30.0874,28.4015 L 29.1782,28.5139 L 27.3318,28.7104 L 26.3946,28.7946 L 25.4575,28.8648 L 23.5831,28.9771 L 22.6460,29.0052 L 21.7228,29.0333 L 20.7996,29.0473 L 19.9044,29.0473 L 19.0092,29.0333 L 18.1280,29.0052 L 17.2747,28.9631 L 16.4355,28.8929 L 15.6242,28.8227 L 14.8409,28.7385 L 14.0855,28.6402 L 13.3582,28.5279 L 12.6588,28.3875 L 12.4770,28.3875 L 12.4490,28.4015 L 12.3930,28.4015 L 12.3651,28.4156 L 12.3231,28.4156 L 12.2951,28.4296 L 12.2671,28.4296 L 12.2392,28.4437 L 12.2112,28.4437 L 12.1832,28.4577 L 12.1692,28.4717 L 12.1413,28.4717 L 12.1133,28.4858 L 12.0993,28.4998 L 12.0433,28.5279 L 12.0154,28.5560 L 11.9874,28.5700 L 11.9314,28.6262 L 11.9175,28.6542 L 11.8895,28.6683 L 11.8615,28.7244 L 11.8195,28.7666 L 11.7916,28.8227 L 11.7636,28.8368 L 11.7496,28.8648 L 11.7216,28.8929 L 11.7076,28.9210 L 11.6797,28.9491 L 11.6517,29.0052 L 11.5957,29.0614 L 11.5818,29.0895 L 11.5538,29.1175 L 11.5398,29.1456 L 11.5118,29.1737 L 11.4978,29.2018 L 11.4699,29.2299 L 11.4559,29.2579 L 11.4279,29.2860 L 11.4139,29.3281 L 11.3859,29.3562 L 11.3719,29.3843 L 11.3440,29.4124 L 11.3300,29.4404 L 11.3020,29.4685 L 11.2880,29.4685 L 11.2880,29.4545 L 11.2740,29.4545 L 12.2811,29.7493 L 12.6168,29.8335 L 12.9665,29.9318 L 13.6659,30.1003 L 14.0156,30.1705 L 14.3653,30.2547 L 15.4563,30.4653 L 15.8340,30.5355 L 16.1977,30.5917 L 17.7083,30.8163 L 18.4916,30.9005 L 18.8693,30.9427 L 19.2749,30.9707 L 19.6666,31.0128 L 20.0583,31.0409 L 20.4639,31.0690 L 20.8555,31.0830 L 21.2612,31.1111 L 22.0725,31.1392 L 22.4781,31.1392 L 22.8977,31.1532 L 23.9468,31.1532 L 24.5763,31.1392 L 25.2057,31.1111 L 25.8212,31.0830 L 26.4506,31.0409 L 27.0661,30.9988 L 28.2690,30.8865 L 28.8705,30.8163 L 30.0454,30.6478 L 30.6189,30.5636 L 31.1924,30.4513 L 31.7659,30.3530 L 32.3254,30.2407 L 33.4164,29.9880 L 34.4795,29.7072 L 34.9970,29.5528 L 36.0041,29.2439 L 36.5077,29.0754 L 37.4589,28.7104 L 37.9204,28.5279 L 38.3820,28.3313 L 38.8296,28.1348 L 39.2633,27.9382 L 40.1025,27.5171 L 40.5082,27.2924 L 40.5221,27.2924 L 40.5221,27.2784 L 40.5361,27.2784 L 40.5361,27.2644 L 40.5501,27.2644 Z" stroke="#BFBFBF" stroke-width="0.1196" stroke-linecap="round" stroke-linejoin="round" fill="#BFBFBF"/>
        <path d="M 23.3930,0.0000 L 23.1812,0.0000 L 23.1812,0.2128 L 23.3930,0.2128 L 23.3930,0.0000 Z" stroke="#000000" stroke-width="0.1196" stroke-linecap="round" stroke-linejoin="round" fill="none"/>
        <path d="M 0.2118,15.9694 L 0.0000,15.9694 L 0.0000,16.1822 L 0.2118,16.1822 L 0.2118,15.9694 Z" stroke="#000000" stroke-width="0.1196" stroke-linecap="round" stroke-linejoin="round" fill="none"/>
        <path d="M 46.6226,15.9694 L 46.4108,15.9694 L 46.4108,16.1822 L 46.6226,16.1822 L 46.6226,15.9694 Z" stroke="#000000" stroke-width="0.1196" stroke-linecap="round" stroke-linejoin="round" fill="none"/>
        <path d="M 23.3930,25.9815 L 23.1812,25.9815 L 23.1812,26.1943 L 23.3930,26.1943 L 23.3930,25.9815 Z" stroke="#000000" stroke-width="0.1196" stroke-linecap="round" stroke-linejoin="round" fill="none"/>
      </g>
      <!--emf-blob end-->
    </g>
  </g>
</svg>
