<svg xmlns="http://www.w3.org/2000/svg" xmlns:xlink="http://www.w3.org/1999/xlink" version="1.1" width="8.7824000000" height="4.3100000000" viewBox="0 0 158.0815 77.5823">
  <title><![CDATA[FAP-231F/233F/431F/433F]]></title>
  <g transform=" scale(4.000000) ">
    <!--converted by libvisio2svg-->
    <g transform=" translate(57.412400,0.720000) ">
      <!--emf-blob start-->
      <g transform="translate(-0.0000, -0.0000)">
        <path d="M 43.0808,7.3359 L 43.0668,6.9565 L 43.0388,6.5911 L 42.9967,6.2257 L 42.9267,5.8603 L 42.8566,5.5090 L 42.7585,5.1576 L 42.6324,4.8204 L 42.5062,4.4971 L 42.3661,4.1739 L 42.1979,3.8507 L 42.0297,3.5415 L 41.8335,3.2464 L 41.6373,2.9653 L 41.4131,2.6842 L 41.1888,2.4172 L 40.9506,2.1642 L 40.6983,1.9253 L 40.4321,1.7005 L 40.1518,1.4756 L 39.8715,1.2789 L 39.5772,1.0821 L 39.2689,0.9135 L 38.9465,0.7448 L 38.6242,0.6043 L 38.3018,0.4778 L 37.9655,0.3513 L 37.6151,0.2530 L 37.2648,0.1827 L 36.9004,0.1124 L 36.5360,0.0703 L 36.1716,0.0422 L 35.7932,0.0281 L 7.3156,0.0281 L 6.9372,0.0422 L 6.5728,0.0703 L 6.2085,0.1124 L 5.8441,0.1827 L 5.4937,0.2530 L 5.1434,0.3513 L 4.8070,0.4778 L 4.4847,0.6043 L 4.1623,0.7448 L 3.8400,0.9135 L 3.5317,1.0821 L 3.2374,1.2789 L 2.9571,1.4756 L 2.6768,1.7005 L 2.4105,1.9253 L 2.1582,2.1642 L 1.9200,2.4172 L 1.6958,2.6842 L 1.4715,2.9653 L 1.2753,3.2464 L 1.0791,3.5415 L 0.9109,3.8507 L 0.7428,4.1739 L 0.6026,4.4971 L 0.4765,4.8204 L 0.3504,5.1576 L 0.2523,5.5090 L 0.1822,5.8603 L 0.1121,6.2257 L 0.0701,6.5911 L 0.0420,6.9565 L 0.0280,7.3359 L 0.0280,35.8927 L 0.0420,36.2721 L 0.0701,36.6375 L 0.1121,37.0029 L 0.1822,37.3683 L 0.2523,37.7196 L 0.3504,38.0710 L 0.4765,38.4082 L 0.6026,38.7315 L 0.7428,39.0547 L 0.9109,39.3779 L 1.0791,39.6871 L 1.2753,39.9822 L 1.4715,40.2633 L 1.6958,40.5444 L 1.9200,40.8114 L 2.1582,41.0644 L 2.4105,41.3033 L 2.6768,41.5281 L 2.9571,41.7530 L 3.2374,41.9497 L 3.5317,42.1465 L 3.8400,42.3151 L 4.1623,42.4838 L 4.4847,42.6243 L 4.8070,42.7508 L 5.1434,42.8773 L 5.4937,42.9756 L 5.8441,43.0459 L 6.2085,43.1162 L 6.5728,43.1583 L 6.9372,43.1864 L 7.3156,43.2005 L 35.7932,43.2005 L 36.1716,43.1864 L 36.5360,43.1583 L 36.9004,43.1162 L 37.2648,43.0459 L 37.6151,42.9756 L 37.9655,42.8773 L 38.3018,42.7508 L 38.6242,42.6243 L 38.9465,42.4838 L 39.2689,42.3151 L 39.5772,42.1465 L 39.8715,41.9497 L 40.1518,41.7530 L 40.4321,41.5281 L 40.6983,41.3033 L 40.9506,41.0644 L 41.1888,40.8114 L 41.4131,40.5444 L 41.6373,40.2633 L 41.8335,39.9822 L 42.0297,39.6871 L 42.1979,39.3779 L 42.3661,39.0547 L 42.5062,38.7315 L 42.6324,38.4082 L 42.7585,38.0710 L 42.8566,37.7196 L 42.9267,37.3683 L 42.9967,37.0029 L 43.0388,36.6375 L 43.0668,36.2721 L 43.0808,35.8927 L 43.0808,7.3359 Z" stroke="#000000" stroke-width="0.1198" stroke-linecap="round" stroke-linejoin="round" fill="#E2E2E2"/>
        <path d="M 42.6604,7.6311 L 42.6464,7.2657 L 42.6183,6.9003 L 42.5763,6.5349 L 42.5202,6.1835 L 42.4361,5.8322 L 42.3380,5.4949 L 42.2259,5.1717 L 42.0998,4.8344 L 41.9597,4.5252 L 41.8055,4.2161 L 41.6233,3.9069 L 41.4411,3.6258 L 41.2449,3.3447 L 41.0347,3.0637 L 40.8105,2.8107 L 40.5722,2.5577 L 40.3199,2.3188 L 40.0677,2.0940 L 39.7874,1.8832 L 39.5071,1.6864 L 39.2268,1.5037 L 38.9185,1.3210 L 38.6102,1.1664 L 38.3018,1.0259 L 37.9655,0.8994 L 37.6432,0.7870 L 37.3068,0.6886 L 36.9564,0.6043 L 36.6061,0.5481 L 36.2417,0.5059 L 35.8773,0.4778 L 35.5129,0.4638 L 7.6099,0.4638 L 7.2455,0.4778 L 6.8812,0.5059 L 6.5168,0.5481 L 6.1664,0.6043 L 5.8161,0.6886 L 5.4797,0.7870 L 5.1574,0.8994 L 4.8210,1.0259 L 4.5127,1.1664 L 4.2044,1.3210 L 3.8961,1.5037 L 3.6158,1.6864 L 3.3355,1.8832 L 3.0552,2.0940 L 2.8029,2.3188 L 2.5507,2.5577 L 2.3124,2.8107 L 2.0882,3.0637 L 1.8780,3.3447 L 1.6817,3.6258 L 1.4996,3.9069 L 1.3174,4.2161 L 1.1632,4.5252 L 1.0231,4.8344 L 0.8969,5.1717 L 0.7848,5.4949 L 0.6867,5.8322 L 0.6026,6.1835 L 0.5466,6.5349 L 0.5045,6.9003 L 0.4765,7.2657 L 0.4625,7.6311 L 0.4625,35.6116 L 0.4765,35.9770 L 0.5045,36.3424 L 0.5466,36.7078 L 0.6026,37.0591 L 0.6867,37.4104 L 0.7848,37.7477 L 0.8969,38.0710 L 1.0231,38.4082 L 1.1632,38.7174 L 1.3174,39.0266 L 1.4996,39.3358 L 1.6817,39.6168 L 1.8780,39.8979 L 2.0882,40.1790 L 2.3124,40.4319 L 2.5507,40.6849 L 2.8029,40.9238 L 3.0552,41.1487 L 3.3355,41.3595 L 3.6158,41.5562 L 3.8961,41.7389 L 4.2044,41.9216 L 4.5127,42.0762 L 4.8210,42.2167 L 5.1574,42.3432 L 5.4797,42.4556 L 5.8161,42.5540 L 6.1664,42.6383 L 6.5168,42.6946 L 6.8812,42.7367 L 7.2455,42.7648 L 7.6099,42.7789 L 35.5129,42.7789 L 35.8773,42.7648 L 36.2417,42.7367 L 36.6061,42.6946 L 36.9564,42.6383 L 37.3068,42.5540 L 37.6432,42.4556 L 37.9655,42.3432 L 38.3018,42.2167 L 38.6102,42.0762 L 38.9185,41.9216 L 39.2268,41.7389 L 39.5071,41.5562 L 39.7874,41.3595 L 40.0677,41.1487 L 40.3199,40.9238 L 40.5722,40.6849 L 40.8105,40.4319 L 41.0347,40.1790 L 41.2449,39.8979 L 41.4411,39.6168 L 41.6233,39.3358 L 41.8055,39.0266 L 41.9597,38.7174 L 42.0998,38.4082 L 42.2259,38.0710 L 42.3380,37.7477 L 42.4361,37.4104 L 42.5202,37.0591 L 42.5763,36.7078 L 42.6183,36.3424 L 42.6464,35.9770 L 42.6604,35.6116 L 42.6604,7.6311 Z" stroke="#EFEFEF" stroke-width="0.1198" stroke-linecap="round" stroke-linejoin="round" fill="#EFEFEF"/>
        <path d="M 40.1237,9.3034 L 40.0957,8.6570 L 40.0537,8.3478 L 39.9976,8.0386 L 39.9275,7.7294 L 39.8434,7.4203 L 39.7453,7.1392 L 39.6332,6.8441 L 39.5071,6.5630 L 39.3670,6.2960 L 39.2128,6.0290 L 38.8764,5.5230 L 38.6802,5.2841 L 38.4840,5.0593 L 38.2878,4.8485 L 38.0636,4.6377 L 37.8394,4.4409 L 37.6011,4.2442 L 37.0966,3.9069 L 36.8303,3.7523 L 36.5640,3.6118 L 36.2837,3.4853 L 35.9894,3.3728 L 35.7091,3.2745 L 35.4008,3.1901 L 35.0925,3.1199 L 34.7842,3.0637 L 34.4759,3.0215 L 33.8312,2.9934 L 9.2777,2.9934 L 8.6330,3.0215 L 8.3247,3.0637 L 8.0163,3.1199 L 7.7080,3.1901 L 7.3997,3.2745 L 7.1194,3.3728 L 6.8251,3.4853 L 6.5448,3.6118 L 6.2785,3.7523 L 6.0123,3.9069 L 5.5077,4.2442 L 5.2695,4.4409 L 5.0452,4.6377 L 4.6248,5.0593 L 4.4286,5.2841 L 4.2324,5.5230 L 3.8961,6.0290 L 3.7419,6.2960 L 3.6017,6.5630 L 3.4756,6.8441 L 3.3635,7.1392 L 3.2654,7.4203 L 3.1813,7.7294 L 3.1112,8.0386 L 3.0552,8.3478 L 3.0131,8.6570 L 2.9851,9.3034 L 2.9851,33.9252 L 3.0131,34.5716 L 3.0552,34.8808 L 3.1112,35.1900 L 3.1813,35.4992 L 3.2654,35.8083 L 3.3635,36.0894 L 3.4756,36.3845 L 3.6017,36.6656 L 3.7419,36.9326 L 3.8961,37.1996 L 4.2324,37.7056 L 4.4286,37.9445 L 4.6248,38.1693 L 4.8350,38.3942 L 5.0452,38.5909 L 5.2695,38.7877 L 5.5077,38.9844 L 6.0123,39.3217 L 6.2785,39.4763 L 6.5448,39.6168 L 6.8251,39.7433 L 7.1194,39.8558 L 7.3997,39.9541 L 7.7080,40.0384 L 8.0163,40.1087 L 8.3247,40.1649 L 8.6330,40.2071 L 9.2777,40.2352 L 33.8312,40.2352 L 34.4759,40.2071 L 34.7842,40.1649 L 35.0925,40.1087 L 35.4008,40.0384 L 35.7091,39.9541 L 35.9894,39.8558 L 36.2837,39.7433 L 36.5640,39.6168 L 36.8303,39.4763 L 37.0966,39.3217 L 37.6011,38.9844 L 37.8394,38.7877 L 38.2878,38.3942 L 38.6802,37.9445 L 38.8764,37.7056 L 39.2128,37.1996 L 39.3670,36.9326 L 39.5071,36.6656 L 39.6332,36.3845 L 39.7453,36.0894 L 39.8434,35.8083 L 39.9275,35.4992 L 39.9976,35.1900 L 40.0537,34.8808 L 40.0957,34.5716 L 40.1237,33.9252 L 40.1237,9.3034 Z" stroke="#F7F7F7" stroke-width="0.1198" stroke-linecap="round" stroke-linejoin="round" fill="#F7F7F7"/>
        <path d="M 15.0096,20.9257 L 14.9956,20.9257 L 14.9956,20.9116 L 14.9816,20.9116 L 14.9816,20.8976 L 14.9676,20.8976 L 14.9676,20.8695 L 14.9536,20.8695 L 14.9536,19.5484 L 14.9676,19.5484 L 14.9676,19.5203 L 14.9816,19.5203 L 14.9816,19.5063 L 14.9956,19.5063 L 14.9956,19.4922 L 16.5372,19.4922 L 16.5372,19.5063 L 16.5512,19.5063 L 16.5512,19.5203 L 16.5652,19.5203 L 16.5652,19.5484 L 16.5792,19.5484 L 16.5792,19.8014 L 16.5652,19.8014 L 16.5652,19.7733 L 16.5512,19.7733 L 16.5512,19.7592 L 15.3039,19.7592 L 15.2899,19.7733 L 15.2899,19.7873 L 15.2759,19.7873 L 15.2759,20.8835 L 15.2899,20.8835 L 15.2899,20.9116 L 15.3039,20.9116 L 15.3039,20.9257 L 15.0236,20.9257 L 15.0096,20.9257 Z" stroke="#000000" stroke-width="0.1198" stroke-linecap="round" stroke-linejoin="round" fill="#000000"/>
        <path d="M 16.4671,20.1106 L 15.3740,20.1106 L 15.3740,20.0965 L 15.3600,20.0965 L 15.3460,20.0825 L 15.3460,20.0684 L 15.3319,20.0684 L 15.3319,20.0403 L 15.3179,20.0403 L 15.3179,20.3354 L 15.3319,20.3354 L 15.3319,20.3495 L 15.3460,20.3495 L 15.3460,20.3635 L 15.3600,20.3635 L 15.3600,20.3776 L 16.5092,20.3776 L 16.5232,20.3635 L 16.5372,20.3635 L 16.5372,20.3495 L 16.5512,20.3354 L 16.5512,20.3214 L 16.5652,20.3214 L 16.5652,20.3073 L 16.5792,20.2933 L 16.5792,20.1808 L 16.5652,20.1808 L 16.5652,20.1668 L 16.5512,20.1527 L 16.5512,20.1387 L 16.5232,20.1387 L 16.5232,20.1246 L 16.4952,20.1246 L 16.4952,20.1106 L 16.4811,20.1106 L 16.4671,20.1106 Z" stroke="#000000" stroke-width="0.1198" stroke-linecap="round" stroke-linejoin="round" fill="#000000"/>
        <path d="M 19.0458,20.3916 L 19.0318,20.3916 L 19.0318,20.3776 L 19.0178,20.3776 L 19.0178,20.3635 L 19.0038,20.3635 L 19.0038,20.3354 L 18.9898,20.3354 L 18.9898,20.0544 L 19.0038,20.0544 L 19.0038,20.0684 L 19.0178,20.0684 L 19.0178,20.0825 L 19.9287,20.0825 L 19.9287,19.7592 L 18.9757,19.7592 L 18.9617,19.7733 L 18.9477,19.7733 L 18.9477,19.7873 L 18.9337,19.7873 L 18.9337,19.8154 L 18.9197,19.8154 L 18.9197,20.8695 L 18.9337,20.8695 L 18.9337,20.8976 L 18.9477,20.8976 L 18.9477,20.9116 L 18.9617,20.9116 L 18.9617,20.9257 L 18.6674,20.9257 L 18.6674,20.9116 L 18.6394,20.9116 L 18.6394,20.8976 L 18.6254,20.8976 L 18.6254,20.8835 L 18.6114,20.8835 L 18.6114,20.8554 L 18.5973,20.8554 L 18.5973,19.5625 L 18.6114,19.5625 L 18.6114,19.5344 L 18.6254,19.5344 L 18.6254,19.5203 L 18.6394,19.5203 L 18.6394,19.5063 L 18.6674,19.5063 L 18.6674,19.4922 L 20.1950,19.4922 L 20.1950,19.5063 L 20.2090,19.5063 L 20.2090,19.5203 L 20.2230,19.5203 L 20.2230,19.5344 L 20.2371,19.5344 L 20.2371,19.5625 L 20.2511,19.5625 L 20.2511,20.2933 L 20.2371,20.2933 L 20.2371,20.3214 L 20.2230,20.3214 L 20.2230,20.3354 L 20.2090,20.3354 L 20.2090,20.3495 L 20.1950,20.3495 L 20.1950,20.3635 L 20.1670,20.3916 L 20.1810,20.3916 L 20.1810,20.4057 L 20.1950,20.4057 L 20.2230,20.4338 L 20.2230,20.4479 L 20.2371,20.4479 L 20.2371,20.4760 L 20.2511,20.4760 L 20.2511,20.8835 L 20.2651,20.8835 L 20.2651,20.9116 L 20.2791,20.9116 L 20.2931,20.9257 L 19.9988,20.9257 L 19.9848,20.9116 L 19.9708,20.9116 L 19.9708,20.8976 L 19.9568,20.8976 L 19.9568,20.8835 L 19.9427,20.8835 L 19.9427,20.8554 L 19.9287,20.8554 L 19.9287,20.3916 L 19.0598,20.3916 L 19.0458,20.3916 Z" stroke="#000000" stroke-width="0.1198" stroke-linecap="round" stroke-linejoin="round" fill="#000000"/>
        <path d="M 20.8397,19.7592 L 20.4753,19.7592 L 20.4753,19.7452 L 20.4613,19.7452 L 20.4613,19.7171 L 20.4473,19.7171 L 20.4473,19.5484 L 20.4613,19.5484 L 20.4613,19.5203 L 20.4753,19.5203 L 20.4753,19.5063 L 20.4893,19.5063 L 20.4893,19.4922 L 22.0309,19.4922 L 22.0309,19.5063 L 22.0449,19.5063 L 22.0449,19.5203 L 22.0589,19.5203 L 22.0589,19.5484 L 22.0730,19.5484 L 22.0730,19.8014 L 22.0589,19.8014 L 22.0589,19.7733 L 22.0449,19.7733 L 22.0449,19.7592 L 21.2041,19.7592 L 21.1900,19.7733 L 21.1900,19.7873 L 21.1760,19.7873 L 21.1760,20.9116 L 21.1900,20.9116 L 21.1900,20.9257 L 20.8957,20.9257 L 20.8957,20.9116 L 20.8677,20.9116 L 20.8677,20.8976 L 20.8537,20.8835 L 20.8537,20.8695 L 20.8397,20.8695 L 20.8397,19.7873 L 20.8397,19.7592 Z" stroke="#000000" stroke-width="0.1198" stroke-linecap="round" stroke-linejoin="round" fill="#000000"/>
        <path d="M 22.6055,20.8414 L 22.6055,20.9116 L 22.6195,20.9116 L 22.6195,20.9257 L 22.3252,20.9257 L 22.3252,20.9116 L 22.2972,20.9116 L 22.2972,20.8976 L 22.2832,20.8835 L 22.2832,20.8695 L 22.2692,20.8695 L 22.2692,19.5484 L 22.2552,19.5484 L 22.2552,19.5203 L 22.2411,19.5203 L 22.2411,19.5063 L 22.2271,19.5063 L 22.2271,19.4922 L 22.5354,19.4922 L 22.5354,19.5063 L 22.5635,19.5063 L 22.5635,19.5203 L 22.5775,19.5203 L 22.5775,19.5344 L 22.5915,19.5344 L 22.5915,19.5625 L 22.6055,19.5625 L 22.6055,20.8273 L 22.6055,20.8414 Z" stroke="#000000" stroke-width="0.1198" stroke-linecap="round" stroke-linejoin="round" fill="#000000"/>
        <path d="M 24.1751,19.7592 L 23.2222,19.7592 L 23.2081,19.7733 L 23.1941,19.7733 L 23.1941,19.7873 L 23.1801,19.7873 L 23.1801,19.8154 L 23.1661,19.8154 L 23.1661,20.8695 L 23.1801,20.8695 L 23.1801,20.8976 L 23.1941,20.8976 L 23.1941,20.9116 L 23.2081,20.9116 L 23.2081,20.9257 L 22.9138,20.9257 L 22.9138,20.9116 L 22.8858,20.9116 L 22.8858,20.8976 L 22.8718,20.8976 L 22.8718,20.8835 L 22.8578,20.8835 L 22.8578,20.8554 L 22.8438,20.8554 L 22.8438,19.5625 L 22.8578,19.5625 L 22.8578,19.5344 L 22.8718,19.5344 L 22.8718,19.5203 L 22.8858,19.5203 L 22.8858,19.5063 L 22.9138,19.5063 L 22.9138,19.4922 L 24.4414,19.4922 L 24.4414,19.5063 L 24.4554,19.5063 L 24.4554,19.5203 L 24.4695,19.5203 L 24.4695,19.5344 L 24.4835,19.5344 L 24.4835,19.5625 L 24.4975,19.5625 L 24.4975,20.8835 L 24.5115,20.8835 L 24.5115,20.9116 L 24.5255,20.9116 L 24.5395,20.9257 L 24.2452,20.9257 L 24.2312,20.9116 L 24.2172,20.9116 L 24.2172,20.8976 L 24.2032,20.8976 L 24.2032,20.8835 L 24.1892,20.8835 L 24.1892,20.8554 L 24.1751,20.8554 L 24.1751,19.7873 L 24.1751,19.7592 Z" stroke="#000000" stroke-width="0.1198" stroke-linecap="round" stroke-linejoin="round" fill="#000000"/>
        <path d="M 26.1512,20.1106 L 25.1281,20.1106 L 25.1281,20.0965 L 25.1141,20.0965 L 25.1001,20.0825 L 25.1001,20.0684 L 25.0861,20.0684 L 25.0861,20.0403 L 25.0721,20.0403 L 25.0721,20.3354 L 25.0861,20.3354 L 25.0861,20.3495 L 25.1001,20.3495 L 25.1001,20.3635 L 25.1141,20.3635 L 25.1141,20.3776 L 26.1512,20.3776 L 26.1652,20.3635 L 26.1792,20.3635 L 26.1932,20.3495 L 26.1932,20.3354 L 26.2213,20.3073 L 26.2213,20.2933 L 26.2353,20.2792 L 26.2353,20.2652 L 26.2493,20.2511 L 26.2493,20.1949 L 26.2353,20.1808 L 26.2353,20.1527 L 26.2213,20.1527 L 26.2213,20.1387 L 26.2073,20.1387 L 26.1932,20.1246 L 26.1792,20.1246 L 26.1652,20.1106 L 26.1512,20.1106 Z" stroke="#000000" stroke-width="0.1198" stroke-linecap="round" stroke-linejoin="round" fill="#000000"/>
        <path d="M 26.9220,19.7592 L 26.5576,19.7592 L 26.5576,19.7452 L 26.5436,19.7452 L 26.5436,19.7171 L 26.5296,19.7171 L 26.5296,19.5484 L 26.5436,19.5484 L 26.5436,19.5203 L 26.5576,19.5203 L 26.5576,19.5063 L 26.5716,19.5063 L 26.5716,19.4922 L 28.1132,19.4922 L 28.1132,19.5063 L 28.1273,19.5063 L 28.1273,19.5203 L 28.1413,19.5203 L 28.1413,19.5484 L 28.1553,19.5484 L 28.1553,19.8014 L 28.1413,19.8014 L 28.1413,19.7733 L 28.1273,19.7733 L 28.1273,19.7592 L 27.2864,19.7592 L 27.2724,19.7733 L 27.2724,19.7873 L 27.2584,19.7873 L 27.2584,20.9116 L 27.2724,20.9116 L 27.2724,20.9257 L 26.9781,20.9257 L 26.9781,20.9116 L 26.9500,20.9116 L 26.9500,20.8976 L 26.9360,20.8835 L 26.9360,20.8695 L 26.9220,20.8695 L 26.9220,19.7873 L 26.9220,19.7592 Z" stroke="#000000" stroke-width="0.1198" stroke-linecap="round" stroke-linejoin="round" fill="#000000"/>
        <path d="M 26.2633,20.6587 L 26.2914,20.6587 L 26.2914,20.6446 L 26.3054,20.6446 L 26.3054,20.6165 L 26.3194,20.6165 L 26.3194,20.8695 L 26.3054,20.8695 L 26.3054,20.8976 L 26.2914,20.8976 L 26.2914,20.9116 L 26.2773,20.9116 L 26.2773,20.9257 L 24.7357,20.9257 L 24.7357,20.9116 L 24.7217,20.9116 L 24.7217,20.8976 L 24.7077,20.8976 L 24.7077,20.8695 L 24.6937,20.8695 L 24.6937,19.5484 L 24.7077,19.5484 L 24.7077,19.5203 L 24.7217,19.5203 L 24.7217,19.5063 L 24.7357,19.5063 L 24.7357,19.4922 L 26.2773,19.4922 L 26.2773,19.5063 L 26.2914,19.5063 L 26.2914,19.5203 L 26.3054,19.5203 L 26.3054,19.5484 L 26.3194,19.5484 L 26.3194,19.8014 L 26.3054,19.8014 L 26.3054,19.7733 L 26.2914,19.7733 L 26.2914,19.7592 L 25.0441,19.7592 L 25.0300,19.7733 L 25.0300,19.7873 L 25.0160,19.7873 L 25.0160,20.6587 L 26.2493,20.6587 L 26.2633,20.6587 Z" stroke="#000000" stroke-width="0.1198" stroke-linecap="round" stroke-linejoin="round" fill="#000000"/>
        <path d="M 17.3360,20.5041 L 17.3360,20.9116 L 17.8686,20.9116 L 17.8686,20.5041 L 17.3360,20.5041 Z" stroke="#000000" stroke-width="0.1198" stroke-linecap="round" stroke-linejoin="round" fill="#000000"/>
        <path d="M 16.8175,20.0122 L 17.2519,20.0122 L 17.2519,20.4057 L 16.8175,20.4057 L 16.8175,20.0122 Z" stroke="#000000" stroke-width="0.1198" stroke-linecap="round" stroke-linejoin="round" fill="#000000"/>
        <path d="M 17.9947,20.5181 L 17.9947,20.9257 L 18.1629,20.9257 L 18.1909,20.9116 L 18.2190,20.9116 L 18.2330,20.8976 L 18.2610,20.8976 L 18.2890,20.8695 L 18.3030,20.8695 L 18.3591,20.8132 L 18.3591,20.7851 L 18.3731,20.7711 L 18.3871,20.7430 L 18.3871,20.7289 L 18.4152,20.6727 L 18.4152,20.6165 L 18.4292,20.5884 L 18.4292,20.5181 L 18.0087,20.5181 L 17.9947,20.5181 Z" stroke="#000000" stroke-width="0.1198" stroke-linecap="round" stroke-linejoin="round" fill="#000000"/>
        <path d="M 17.9947,20.0122 L 18.4292,20.0122 L 18.4292,20.4057 L 17.9947,20.4057 L 17.9947,20.0122 Z" stroke="#000000" stroke-width="0.1198" stroke-linecap="round" stroke-linejoin="round" fill="#000000"/>
        <path d="M 17.2519,20.5181 L 17.2519,20.9257 L 17.0698,20.9257 L 17.0557,20.9116 L 17.0277,20.9116 L 16.9997,20.8976 L 16.9857,20.8976 L 16.9576,20.8695 L 16.9436,20.8695 L 16.8876,20.8132 L 16.8736,20.7851 L 16.8595,20.7711 L 16.8595,20.7430 L 16.8455,20.7289 L 16.8455,20.7008 L 16.8315,20.6727 L 16.8315,20.6446 L 16.8175,20.6165 L 16.8175,20.5181 L 17.2379,20.5181 L 17.2519,20.5181 Z" stroke="#000000" stroke-width="0.1198" stroke-linecap="round" stroke-linejoin="round" fill="#000000"/>
        <path d="M 17.3360,19.4922 L 17.3360,19.8998 L 17.8686,19.8998 L 17.8686,19.4922 L 17.3360,19.4922 Z" stroke="#000000" stroke-width="0.1198" stroke-linecap="round" stroke-linejoin="round" fill="#000000"/>
        <path d="M 17.9947,19.8998 L 17.9947,19.4922 L 18.1629,19.4922 L 18.1909,19.5063 L 18.2190,19.5063 L 18.2330,19.5203 L 18.2610,19.5203 L 18.2890,19.5484 L 18.3030,19.5484 L 18.3591,19.6046 L 18.3591,19.6328 L 18.3731,19.6468 L 18.3871,19.6749 L 18.3871,19.6890 L 18.4152,19.7452 L 18.4152,19.8014 L 18.4292,19.8295 L 18.4292,19.8998 L 18.0087,19.8998 L 17.9947,19.8998 Z" stroke="#000000" stroke-width="0.1198" stroke-linecap="round" stroke-linejoin="round" fill="#000000"/>
        <path d="M 17.2519,19.8998 L 17.2519,19.4922 L 17.0698,19.4922 L 17.0557,19.5063 L 17.0277,19.5063 L 16.9997,19.5203 L 16.9857,19.5203 L 16.9576,19.5484 L 16.9436,19.5484 L 16.8876,19.6046 L 16.8736,19.6328 L 16.8595,19.6468 L 16.8595,19.6749 L 16.8455,19.6890 L 16.8455,19.7171 L 16.8315,19.7452 L 16.8315,19.7733 L 16.8175,19.8014 L 16.8175,19.8998 L 17.2379,19.8998 L 17.2519,19.8998 Z" stroke="#000000" stroke-width="0.1198" stroke-linecap="round" stroke-linejoin="round" fill="#000000"/>
        <text font-family="Arial" fill="#000000" style="white-space:pre;" text-anchor="start" x="15.8785" y="23.0478" font-size="1.3594"><![CDATA[F]]></text>
        <text font-family="Arial" fill="#000000" style="white-space:pre;" text-anchor="start" x="16.7194" y="23.0478" font-size="1.3594"><![CDATA[o]]></text>
        <text font-family="Arial" fill="#000000" style="white-space:pre;" text-anchor="start" x="17.4762" y="23.0478" font-size="1.3594"><![CDATA[r]]></text>
        <text font-family="Arial" fill="#000000" style="white-space:pre;" text-anchor="start" x="17.9387" y="23.0478" font-size="1.3594"><![CDATA[t]]></text>
        <text font-family="Arial" fill="#000000" style="white-space:pre;" text-anchor="start" x="18.3171" y="23.0478" font-size="1.3594"><![CDATA[i]]></text>
        <text font-family="Arial" fill="#000000" style="white-space:pre;" text-anchor="start" x="18.6254" y="23.0478" font-size="1.3594"><![CDATA[A]]></text>
        <text font-family="Arial" fill="#000000" style="white-space:pre;" text-anchor="start" x="19.5363" y="23.0478" font-size="1.3594"><![CDATA[P]]></text>
        <text font-family="Arial" fill="#000000" style="white-space:pre;" text-anchor="start" x="20.4473" y="23.0478" font-size="1.3594"><![CDATA[ ]]></text>
        <text font-family="Arial" fill="#000000" style="white-space:pre;" text-anchor="start" x="20.8257" y="23.0478" font-size="1.3594"><![CDATA[2]]></text>
        <text font-family="Arial" fill="#000000" style="white-space:pre;" text-anchor="start" x="21.5825" y="23.0478" font-size="1.3594"><![CDATA[3]]></text>
        <text font-family="Arial" fill="#000000" style="white-space:pre;" text-anchor="start" x="22.3392" y="23.0478" font-size="1.3594"><![CDATA[x]]></text>
        <text font-family="Arial" fill="#000000" style="white-space:pre;" text-anchor="start" x="23.0260" y="23.0478" font-size="1.3594"><![CDATA[F]]></text>
        <text font-family="Arial" fill="#000000" style="white-space:pre;" text-anchor="start" x="23.8668" y="23.0478" font-size="1.3594"><![CDATA[/]]></text>
        <text font-family="Arial" fill="#000000" style="white-space:pre;" text-anchor="start" x="24.2452" y="23.0478" font-size="1.3594"><![CDATA[4]]></text>
        <text font-family="Arial" fill="#000000" style="white-space:pre;" text-anchor="start" x="25.0020" y="23.0478" font-size="1.3594"><![CDATA[3]]></text>
        <text font-family="Arial" fill="#000000" style="white-space:pre;" text-anchor="start" x="25.7588" y="23.0478" font-size="1.3594"><![CDATA[x]]></text>
        <text font-family="Arial" fill="#000000" style="white-space:pre;" text-anchor="start" x="26.4455" y="23.0478" font-size="1.3594"><![CDATA[F]]></text>
        <text font-family="Symbol" fill="#000000" style="white-space:pre;" text-anchor="start" x="27.6788" y="20.9116" font-size="0.4905"><![CDATA[]]></text>
        <path d="M 27.0622,37.6493 L 27.4405,37.2559 L 27.2584,37.0732 L 27.2584,37.8320 L 27.4405,37.6493 L 27.0481,37.2559 " stroke="#000000" stroke-width="0.1198" stroke-linecap="round" stroke-linejoin="round" fill="none"/>
        <path d="M 16.1028,37.2418 L 16.1168,37.2418 L 16.1168,37.2559 L 16.1308,37.2559 L 16.1448,37.2699 L 16.1588,37.2699 L 16.2009,37.3121 L 16.2009,37.3261 L 16.2149,37.3261 L 16.2149,37.3402 L 16.2289,37.3542 L 16.2289,37.3683 L 16.2429,37.3823 L 16.2429,37.4245 L 16.2569,37.4385 L 16.2569,37.5650 L 16.2429,37.5791 L 16.2429,37.6212 L 16.2289,37.6353 L 16.2289,37.6493 L 16.2149,37.6634 L 16.2149,37.6775 L 16.2009,37.6915 L 16.2009,37.7056 L 16.1868,37.7056 L 16.1728,37.7196 L 16.1728,37.7337 L 16.1588,37.7337 L 16.1168,37.7758 L 16.0887,37.7758 L 16.0747,37.7899 L 16.0467,37.7899 L 16.0327,37.8039 L 15.8925,37.8039 L 15.8785,37.7899 L 15.8505,37.7899 L 15.8365,37.7758 L 15.8084,37.7758 L 15.7664,37.7337 L 15.7524,37.7337 L 15.7524,37.7196 L 15.7384,37.7056 L 15.7244,37.7056 L 15.7244,37.6915 L 15.7103,37.6775 L 15.7103,37.6634 L 15.6963,37.6493 L 15.6963,37.6353 L 15.6823,37.6212 L 15.6823,37.5791 L 15.6683,37.5650 L 15.6683,37.4385 L 15.6823,37.4245 L 15.6823,37.3823 L 15.6963,37.3823 L 15.6963,37.3542 L 15.7103,37.3402 L 15.7103,37.3261 L 15.7244,37.3261 L 15.7244,37.3121 L 15.7384,37.2980 L 15.7384,37.2840 L 15.7524,37.2840 L 15.7804,37.2559 L 15.7804,37.2699 L 15.7944,37.2699 L 15.7944,37.2840 L 15.8084,37.2840 L 15.8084,37.2980 L 15.8225,37.2980 L 15.8225,37.3121 L 15.8084,37.3121 L 15.8084,37.3261 L 15.7944,37.3261 L 15.7524,37.3683 L 15.7524,37.3823 L 15.7384,37.3964 L 15.7384,37.4104 L 15.7244,37.4104 L 15.7244,37.4526 L 15.7103,37.4526 L 15.7103,37.5650 L 15.7244,37.5650 L 15.7244,37.6072 L 15.7524,37.6353 L 15.7524,37.6493 L 15.7664,37.6493 L 15.7664,37.6634 L 15.7944,37.6915 L 15.8084,37.6915 L 15.8084,37.7056 L 15.8225,37.7056 L 15.8365,37.7196 L 15.8505,37.7196 L 15.8645,37.7337 L 15.8925,37.7337 L 15.8925,37.7477 L 16.0327,37.7477 L 16.0327,37.7337 L 16.0607,37.7337 L 16.0747,37.7196 L 16.0887,37.7196 L 16.1028,37.7056 L 16.1168,37.7056 L 16.1168,37.6915 L 16.1308,37.6915 L 16.1588,37.6634 L 16.1588,37.6493 L 16.1728,37.6493 L 16.1728,37.6353 L 16.2009,37.6072 L 16.2009,37.5650 L 16.2149,37.5650 L 16.2149,37.4526 L 16.2009,37.4526 L 16.2009,37.4104 L 16.1868,37.4104 L 16.1868,37.3823 L 16.1728,37.3823 L 16.1728,37.3683 L 16.1588,37.3542 L 16.1588,37.3402 L 16.1448,37.3402 L 16.1448,37.3261 L 16.1308,37.3261 L 16.1168,37.3121 L 16.1028,37.3121 L 16.1028,37.2980 L 16.0887,37.2980 L 16.0887,37.2699 L 16.1028,37.2699 L 16.1028,37.2559 L 16.1028,37.2418 Z" stroke="#000000" stroke-width="0.1198" stroke-linecap="round" stroke-linejoin="round" fill="#000000"/>
        <path d="M 15.9906,37.1013 L 15.9206,37.1013 L 15.9206,37.5229 L 15.9906,37.5229 L 15.9906,37.1013 Z" stroke="#000000" stroke-width="0.1198" stroke-linecap="round" stroke-linejoin="round" fill="#000000"/>
        <path d="M 24.8058,37.6212 L 24.8478,37.5791 L 24.8619,37.5510 L 24.8899,37.5369 L 24.9039,37.5088 L 24.9179,37.4948 L 24.9319,37.4667 L 24.9319,37.4526 L 24.9600,37.3964 L 24.9600,37.3542 L 24.9740,37.3402 L 24.9740,37.2699 L 24.9600,37.2559 L 24.9600,37.2137 L 24.9460,37.1856 L 24.9460,37.1715 L 24.9319,37.1434 L 24.9319,37.1294 L 24.9179,37.1153 L 24.9039,37.0872 L 24.8759,37.0591 L 24.8619,37.0310 L 24.8198,36.9888 L 24.8058,36.9748 " stroke="#000000" stroke-width="0.1198" stroke-linecap="round" stroke-linejoin="round" fill="none"/>
        <path d="M 24.7217,37.5510 L 24.7638,37.5088 L 24.7778,37.4807 L 24.7778,37.4667 L 24.8058,37.4385 L 24.8058,37.4245 L 24.8198,37.3964 L 24.8198,37.3542 L 24.8338,37.3261 L 24.8338,37.2840 L 24.8198,37.2699 L 24.8198,37.2137 L 24.8058,37.1996 L 24.8058,37.1715 L 24.7918,37.1575 L 24.7918,37.1434 L 24.7638,37.1153 L 24.7638,37.1013 L 24.7357,37.0732 L 24.7357,37.0591 L 24.7217,37.0450 " stroke="#000000" stroke-width="0.1198" stroke-linecap="round" stroke-linejoin="round" fill="none"/>
        <path d="M 24.6376,37.4807 L 24.6657,37.4526 L 24.6657,37.4385 L 24.6797,37.4385 L 24.6937,37.4245 L 24.6937,37.4104 L 24.7077,37.3964 L 24.7077,37.3823 L 24.7217,37.3683 L 24.7217,37.2277 L 24.7077,37.2277 L 24.7077,37.1996 L 24.6797,37.1715 L 24.6797,37.1575 L 24.6516,37.1294 L 24.6376,37.1153 " stroke="#000000" stroke-width="0.1198" stroke-linecap="round" stroke-linejoin="round" fill="none"/>
        <path d="M 24.2172,37.6212 L 24.1751,37.5791 L 24.1611,37.5510 L 24.1331,37.5369 L 24.1191,37.5088 L 24.1051,37.4948 L 24.0911,37.4667 L 24.0911,37.4526 L 24.0630,37.3964 L 24.0630,37.3542 L 24.0490,37.3402 L 24.0490,37.2699 L 24.0630,37.2559 L 24.0630,37.2137 L 24.0770,37.1856 L 24.0770,37.1715 L 24.0911,37.1434 L 24.0911,37.1294 L 24.1051,37.1153 L 24.1191,37.0872 L 24.1471,37.0591 L 24.1611,37.0310 L 24.2032,36.9888 L 24.2172,36.9748 " stroke="#000000" stroke-width="0.1198" stroke-linecap="round" stroke-linejoin="round" fill="none"/>
        <path d="M 24.3013,37.5510 L 24.2592,37.5088 L 24.2452,37.4807 L 24.2312,37.4667 L 24.2312,37.4526 L 24.2172,37.4385 L 24.2172,37.4245 L 24.2032,37.3964 L 24.2032,37.3683 L 24.1892,37.3542 L 24.1892,37.2559 L 24.2032,37.2277 L 24.2032,37.1996 L 24.2172,37.1856 L 24.2172,37.1715 L 24.2312,37.1575 L 24.2312,37.1434 L 24.2452,37.1294 L 24.2452,37.1153 L 24.2733,37.0872 L 24.2733,37.0732 L 24.2873,37.0591 L 24.3013,37.0450 " stroke="#000000" stroke-width="0.1198" stroke-linecap="round" stroke-linejoin="round" fill="none"/>
        <path d="M 24.3714,37.4807 L 24.3433,37.4526 L 24.3433,37.4385 L 24.3293,37.4385 L 24.3153,37.4245 L 24.3153,37.4104 L 24.3013,37.3964 L 24.3013,37.3823 L 24.2873,37.3683 L 24.2873,37.2277 L 24.3013,37.2277 L 24.3013,37.1996 L 24.3293,37.1715 L 24.3293,37.1575 L 24.3573,37.1294 L 24.3714,37.1153 " stroke="#000000" stroke-width="0.1198" stroke-linecap="round" stroke-linejoin="round" fill="none"/>
        <ellipse cx="24.4484" cy="37.2348" rx="0.0491" ry="0.0492" fill="#000000" stroke="#000000" stroke-width="0.1198" stroke-linecap="round" stroke-linejoin="round"/>
        <ellipse cx="24.4484" cy="37.2348" rx="0.0491" ry="0.0492" fill="none" stroke="#000000" stroke-width="0.1198" stroke-linecap="round" stroke-linejoin="round"/>
        <path d="M 24.5535,37.2840 L 24.4695,37.2840 L 24.4695,37.8180 L 24.5535,37.8180 L 24.5535,37.2840 Z" stroke="#000000" stroke-width="0.1198" stroke-linecap="round" stroke-linejoin="round" fill="#000000"/>
        <path d="M 21.9608,37.4385 L 21.0359,37.4385 " stroke="#000000" stroke-width="0.1198" stroke-linecap="round" stroke-linejoin="round" fill="none"/>
        <path d="M 21.4984,37.3121 L 21.4984,37.4526 " stroke="#000000" stroke-width="0.1198" stroke-linecap="round" stroke-linejoin="round" fill="none"/>
        <path d="M 21.6105,37.0872 L 21.3862,37.0872 L 21.3862,37.3121 L 21.6105,37.3121 L 21.6105,37.0872 Z" stroke="#000000" stroke-width="0.1198" stroke-linecap="round" stroke-linejoin="round" fill="#0A0A0A"/>
        <path d="M 21.7646,37.4526 L 21.7646,37.5931 " stroke="#000000" stroke-width="0.1198" stroke-linecap="round" stroke-linejoin="round" fill="none"/>
        <path d="M 21.7646,37.4526 L 21.7646,37.5931 " stroke="#000000" stroke-width="0.1198" stroke-linecap="round" stroke-linejoin="round" fill="none"/>
        <path d="M 21.6665,37.5931 L 21.8908,37.5931 L 21.8908,37.8180 L 21.6665,37.8180 L 21.6665,37.5931 Z" stroke="#000000" stroke-width="0.1198" stroke-linecap="round" stroke-linejoin="round" fill="#0A0A0A"/>
        <path d="M 21.2041,37.4526 L 21.2041,37.5931 " stroke="#000000" stroke-width="0.1198" stroke-linecap="round" stroke-linejoin="round" fill="none"/>
        <path d="M 21.3302,37.5931 L 21.1060,37.5931 L 21.1060,37.8180 L 21.3302,37.8180 L 21.3302,37.5931 Z" stroke="#000000" stroke-width="0.1198" stroke-linecap="round" stroke-linejoin="round" fill="#0A0A0A"/>
        <text font-family="Arial" fill="#000000" style="white-space:pre;" text-anchor="start" x="21.9048" y="37.3542" font-size="0.3644"><![CDATA[2]]></text>
        <path d="M 19.1719,37.4385 L 18.2470,37.4385 " stroke="#000000" stroke-width="0.1198" stroke-linecap="round" stroke-linejoin="round" fill="none"/>
        <path d="M 18.7095,37.3121 L 18.7095,37.4526 " stroke="#000000" stroke-width="0.1198" stroke-linecap="round" stroke-linejoin="round" fill="none"/>
        <path d="M 18.8216,37.0872 L 18.5973,37.0872 L 18.5973,37.3121 L 18.8216,37.3121 L 18.8216,37.0872 Z" stroke="#000000" stroke-width="0.1198" stroke-linecap="round" stroke-linejoin="round" fill="#0A0A0A"/>
        <path d="M 18.9757,37.4526 L 18.9757,37.5931 " stroke="#000000" stroke-width="0.1198" stroke-linecap="round" stroke-linejoin="round" fill="none"/>
        <path d="M 18.8776,37.5931 L 19.1019,37.5931 L 19.1019,37.8180 L 18.8776,37.8180 L 18.8776,37.5931 Z" stroke="#000000" stroke-width="0.1198" stroke-linecap="round" stroke-linejoin="round" fill="#0A0A0A"/>
        <path d="M 18.4152,37.4526 L 18.4152,37.5931 " stroke="#000000" stroke-width="0.1198" stroke-linecap="round" stroke-linejoin="round" fill="none"/>
        <path d="M 18.5413,37.5931 L 18.3171,37.5931 L 18.3171,37.8180 L 18.5413,37.8180 L 18.5413,37.5931 Z" stroke="#000000" stroke-width="0.1198" stroke-linecap="round" stroke-linejoin="round" fill="#0A0A0A"/>
        <text font-family="Arial" fill="#000000" style="white-space:pre;" text-anchor="start" x="19.1019" y="37.3542" font-size="0.3644"><![CDATA[1]]></text>
        <path d="M 28.6038,36.2018 L 28.6038,36.1737 L 28.5617,36.0894 L 28.4776,36.0472 L 14.6312,36.0472 L 14.5471,36.0894 L 14.5051,36.1737 L 14.5051,36.2440 L 14.5471,36.3283 L 14.6312,36.3705 L 28.4776,36.3705 L 28.5617,36.3283 L 28.6038,36.2440 L 28.6038,36.2159 L 28.6038,36.2018 Z" stroke="#333333" stroke-width="0.1198" stroke-linecap="round" stroke-linejoin="round" fill="#333333"/>
      </g>
      <!--emf-blob end-->
    </g>
  </g>
</svg>
