<svg xmlns="http://www.w3.org/2000/svg" xmlns:xlink="http://www.w3.org/1999/xlink" version="1.1" width="5.5260000000" height="4.5100000000" viewBox="0 0 99.4695 81.1823">
  <title><![CDATA[FAP-320B/320C (3FR)]]></title>
  <g transform=" scale(4.000000) ">
    <!--converted by libvisio2svg-->
    <g transform=" translate(26.306400,0.720000) ">
      <!--emf-blob start-->
      <g transform="translate(-0.0000, -0.0000)">
        <path d="M 19.2865,18.1900 L 19.2865,19.2349 L 20.6412,19.2349 " stroke="#000000" stroke-width="0.1198" stroke-linecap="round" stroke-linejoin="round" fill="none"/>
        <path d="M 20.6412,18.1900 L 23.3150,18.1900 " stroke="#000000" stroke-width="0.1198" stroke-linecap="round" stroke-linejoin="round" fill="none"/>
        <path d="M 21.9603,18.1900 L 21.9603,19.2349 " stroke="#000000" stroke-width="0.1198" stroke-linecap="round" stroke-linejoin="round" fill="none"/>
        <path d="M 23.9923,18.1900 L 23.9923,19.2349 " stroke="#000000" stroke-width="0.1198" stroke-linecap="round" stroke-linejoin="round" fill="none"/>
        <path d="M 23.9923,18.1900 L 23.9923,19.2349 " stroke="#000000" stroke-width="0.1198" stroke-linecap="round" stroke-linejoin="round" fill="none"/>
        <path d="M 25.3113,19.2349 L 25.3113,18.1900 L 26.6660,19.2349 L 28.0207,18.1900 L 28.0207,19.2349 " stroke="#000000" stroke-width="0.1198" stroke-linecap="round" stroke-linejoin="round" fill="none"/>
        <path d="M 28.6624,19.2349 L 30.0171,18.1900 L 31.3718,19.2349 " stroke="#000000" stroke-width="0.1198" stroke-linecap="round" stroke-linejoin="round" fill="none"/>
        <path d="M 29.0189,18.9737 L 31.0153,18.9737 " stroke="#000000" stroke-width="0.1198" stroke-linecap="round" stroke-linejoin="round" fill="none"/>
        <path d="M 15.2581,19.2349 L 16.6128,18.1900 L 17.9675,19.2349 " stroke="#000000" stroke-width="0.1198" stroke-linecap="round" stroke-linejoin="round" fill="none"/>
        <path d="M 15.6146,18.9737 L 17.6110,18.9737 " stroke="#000000" stroke-width="0.1198" stroke-linecap="round" stroke-linejoin="round" fill="none"/>
        <path d="M 46.6808,5.0033 L 46.6808,4.7503 L 46.6247,4.2444 L 46.5827,4.0054 L 46.5266,3.7525 L 46.4565,3.5276 L 46.3864,3.2887 L 46.1901,2.8389 L 45.9659,2.4173 L 45.8397,2.2206 L 45.6995,2.0238 L 45.3911,1.6584 L 45.2369,1.4897 L 45.0547,1.3211 L 44.6902,1.0119 L 44.4939,0.8714 L 44.2977,0.7449 L 43.8771,0.5200 L 43.4286,0.3232 L 43.1902,0.2530 L 42.9660,0.1827 L 42.7136,0.1265 L 42.4753,0.0843 L 41.9707,0.0281 L 4.7382,0.0281 L 4.2335,0.0843 L 3.9952,0.1265 L 3.7429,0.1827 L 3.5186,0.2530 L 3.2803,0.3232 L 2.8317,0.5200 L 2.4111,0.7449 L 2.2149,0.8714 L 2.0186,1.0119 L 1.6542,1.3211 L 1.3177,1.6584 L 1.0093,2.0238 L 0.8691,2.2206 L 0.7430,2.4173 L 0.5187,2.8389 L 0.3224,3.2887 L 0.2523,3.5276 L 0.1822,3.7525 L 0.1262,4.0054 L 0.0841,4.2444 L 0.0280,4.7503 L 0.0280,34.4328 L 0.0841,34.9387 L 0.1262,35.1777 L 0.1822,35.4306 L 0.2523,35.6555 L 0.3224,35.8944 L 0.5187,36.3442 L 0.7430,36.7658 L 0.8691,36.9625 L 1.0093,37.1593 L 1.3177,37.5247 L 1.4859,37.7074 L 1.6542,37.8620 L 2.0186,38.1712 L 2.2149,38.3117 L 2.4111,38.4382 L 2.8317,38.6631 L 3.2803,38.8599 L 3.5186,38.9301 L 3.7429,39.0004 L 3.9952,39.0566 L 4.2335,39.0988 L 4.7382,39.1550 L 41.9707,39.1550 L 42.4753,39.0988 L 42.7136,39.0566 L 42.9660,39.0004 L 43.1902,38.9301 L 43.4286,38.8599 L 43.8771,38.6631 L 44.2977,38.4382 L 44.4939,38.3117 L 44.6902,38.1712 L 45.2369,37.7074 L 45.6995,37.1593 L 45.8397,36.9625 L 45.9659,36.7658 L 46.1901,36.3442 L 46.3864,35.8944 L 46.4565,35.6555 L 46.5266,35.4306 L 46.5827,35.1777 L 46.6247,34.9387 L 46.6808,34.4328 L 46.6808,5.0876 L 46.6808,5.0033 Z" stroke="#000000" stroke-width="0.1198" stroke-linecap="round" stroke-linejoin="round" fill="#DDDDDD"/>
        <path d="M 45.7556,5.7341 L 45.7556,5.4811 L 45.6995,5.0033 L 45.6575,4.7644 L 45.5453,4.3146 L 45.4612,4.0898 L 45.3771,3.8790 L 45.2930,3.6541 L 45.0687,3.2606 L 44.8164,2.8671 L 44.6622,2.6984 L 44.5220,2.5157 L 44.1996,2.1925 L 44.0173,2.0519 L 43.8491,1.8973 L 43.4566,1.6443 L 43.0641,1.4195 L 42.8398,1.3351 L 42.6295,1.2508 L 42.4052,1.1665 L 41.9566,1.0541 L 41.7183,1.0119 L 41.2417,0.9557 L 5.4671,0.9557 L 4.9905,1.0119 L 4.7522,1.0541 L 4.3036,1.1665 L 4.0793,1.2508 L 3.8690,1.3351 L 3.6447,1.4195 L 3.2522,1.6443 L 2.8597,1.8973 L 2.6915,2.0519 L 2.5093,2.1925 L 2.3551,2.3611 L 2.1868,2.5157 L 2.0467,2.6984 L 1.8925,2.8671 L 1.6401,3.2606 L 1.4158,3.6541 L 1.3317,3.8790 L 1.2476,4.0898 L 1.1635,4.3146 L 1.0514,4.7644 L 1.0093,5.0033 L 0.9532,5.4811 L 0.9532,33.7020 L 1.0093,34.1798 L 1.0514,34.4187 L 1.1635,34.8685 L 1.2476,35.0933 L 1.3317,35.3041 L 1.4158,35.5290 L 1.6401,35.9225 L 1.8925,36.3161 L 2.0467,36.4847 L 2.1868,36.6674 L 2.5093,36.9907 L 2.6915,37.1312 L 2.8597,37.2858 L 3.2522,37.5388 L 3.6447,37.7636 L 3.8690,37.8480 L 4.0793,37.9323 L 4.3036,38.0166 L 4.7522,38.1290 L 4.9905,38.1712 L 5.4671,38.2274 L 41.2417,38.2274 L 41.7183,38.1712 L 41.9566,38.1290 L 42.4052,38.0166 L 42.6295,37.9323 L 42.8398,37.8480 L 43.0641,37.7636 L 43.4566,37.5388 L 43.8491,37.2858 L 44.0173,37.1312 L 44.1996,36.9907 L 44.3678,36.8361 L 44.5220,36.6674 L 44.6622,36.4847 L 44.8164,36.3161 L 45.0687,35.9225 L 45.2930,35.5290 L 45.3771,35.3041 L 45.4612,35.0933 L 45.5453,34.8685 L 45.6575,34.4187 L 45.6995,34.1798 L 45.7556,33.7020 L 45.7556,5.8184 L 45.7556,5.7341 Z" stroke="#EAEAEA" stroke-width="0.1198" stroke-linecap="round" stroke-linejoin="round" fill="#EAEAEA"/>
        <path d="M 46.6808,45.3388 L 46.6808,45.4091 L 46.6668,45.4934 L 46.6668,45.5637 L 46.6387,45.7043 L 46.6107,45.7745 L 46.5967,45.8448 L 46.5686,45.9010 L 46.5406,45.9713 L 46.4986,46.0275 L 46.4705,46.0978 L 46.3023,46.3226 L 46.2462,46.3648 L 46.2042,46.4210 L 45.9799,46.5897 L 45.9098,46.6178 L 45.8537,46.6599 L 45.7836,46.6880 L 45.7275,46.7162 L 45.6575,46.7302 L 45.5874,46.7583 L 45.4472,46.7864 L 45.3771,46.7864 L 45.2930,46.8005 L 1.4158,46.8005 L 1.3317,46.7864 L 1.2616,46.7864 L 1.1215,46.7583 L 1.0514,46.7302 L 0.9813,46.7162 L 0.9252,46.6880 L 0.8551,46.6599 L 0.7990,46.6178 L 0.7289,46.5897 L 0.5047,46.4210 L 0.4626,46.3648 L 0.4065,46.3226 L 0.2383,46.0978 L 0.2103,46.0275 L 0.1682,45.9713 L 0.1402,45.9010 L 0.1121,45.8448 L 0.0981,45.7745 L 0.0701,45.7043 L 0.0421,45.5637 L 0.0421,45.4934 L 0.0280,45.4091 L 0.0280,34.4328 L 0.0841,34.9387 L 0.1262,35.1777 L 0.1822,35.4306 L 0.2523,35.6555 L 0.3224,35.8944 L 0.5187,36.3442 L 0.7430,36.7658 L 0.8691,36.9625 L 1.0093,37.1593 L 1.3177,37.5247 L 1.4859,37.7074 L 1.6542,37.8620 L 2.0186,38.1712 L 2.2149,38.3117 L 2.4111,38.4382 L 2.8317,38.6631 L 3.2803,38.8599 L 3.5186,38.9301 L 3.7429,39.0004 L 3.9952,39.0566 L 4.2335,39.0988 L 4.7382,39.1550 L 41.9707,39.1550 L 42.4753,39.0988 L 42.7136,39.0566 L 42.9660,39.0004 L 43.1902,38.9301 L 43.4286,38.8599 L 43.8771,38.6631 L 44.2977,38.4382 L 44.4939,38.3117 L 44.6902,38.1712 L 45.2369,37.7074 L 45.6995,37.1593 L 45.8397,36.9625 L 45.9659,36.7658 L 46.1901,36.3442 L 46.3864,35.8944 L 46.4565,35.6555 L 46.5266,35.4306 L 46.5827,35.1777 L 46.6247,34.9387 L 46.6808,34.4328 L 46.6808,45.3107 L 46.6808,45.3388 Z" stroke="#000000" stroke-width="0.1198" stroke-linecap="round" stroke-linejoin="round" fill="#DDDDDD"/>
        <path d="M 1.4859,46.8005 L 1.4158,46.8005 L 1.3317,46.7864 L 1.2616,46.7864 L 1.1215,46.7583 L 1.0514,46.7302 L 0.9813,46.7162 L 0.9252,46.6880 L 0.8551,46.6599 L 0.7990,46.6178 L 0.7289,46.5897 L 0.5047,46.4210 L 0.4626,46.3648 L 0.4065,46.3226 L 0.2383,46.0978 L 0.2103,46.0275 L 0.1682,45.9713 L 0.1402,45.9010 L 0.1121,45.8448 L 0.0981,45.7745 L 0.0701,45.7043 L 0.0421,45.5637 L 0.0421,45.4934 L 0.0280,45.4091 L 0.0280,34.4328 L 0.0841,34.9387 L 0.1262,35.1777 L 0.1822,35.4306 L 0.2523,35.6555 L 0.3224,35.8944 L 0.5187,36.3442 L 0.7430,36.7658 L 0.8691,36.9625 L 1.0093,37.1593 L 1.3177,37.5247 L 1.4859,37.7074 L 1.6542,37.8620 L 2.0186,38.1712 L 2.2149,38.3117 L 2.4111,38.4382 L 2.8317,38.6631 L 3.2803,38.8599 L 3.5186,38.9301 L 3.7429,39.0004 L 3.9952,39.0566 L 4.2335,39.0988 L 4.7382,39.1550 L 4.9905,39.1550 L 4.9484,39.2393 L 4.9064,39.3377 L 4.8363,39.4782 L 4.7662,39.6610 L 4.6681,39.8577 L 4.5559,40.0966 L 4.4438,40.3496 L 4.3176,40.6307 L 4.1774,40.9258 L 4.0373,41.2491 L 3.8831,41.5723 L 3.7289,41.9096 L 3.5606,42.2610 L 3.4064,42.6264 L 3.0700,43.3291 L 2.9158,43.6945 L 2.7476,44.0459 L 2.5934,44.3832 L 2.4392,44.7064 L 2.2990,45.0297 L 2.1588,45.3248 L 2.0326,45.6059 L 1.9205,45.8589 L 1.8084,46.0978 L 1.7102,46.2945 L 1.6401,46.4772 L 1.5700,46.6178 L 1.5280,46.7162 L 1.5000,46.7724 L 1.4859,46.8005 Z" stroke="#E2E2E2" stroke-width="0.1198" stroke-linecap="round" stroke-linejoin="round" fill="#E2E2E2"/>
        <path d="M 41.7183,39.1550 L 41.9707,39.1550 L 42.4753,39.0988 L 42.7136,39.0566 L 42.9660,39.0004 L 43.1902,38.9301 L 43.4286,38.8599 L 43.8771,38.6631 L 44.2977,38.4382 L 44.4939,38.3117 L 44.6902,38.1712 L 45.2369,37.7074 L 45.6995,37.1593 L 45.8397,36.9625 L 45.9659,36.7658 L 46.1901,36.3442 L 46.3864,35.8944 L 46.4565,35.6555 L 46.5266,35.4306 L 46.5827,35.1777 L 46.6247,34.9387 L 46.6808,34.4328 L 46.6808,45.4091 L 46.6668,45.4934 L 46.6668,45.5637 L 46.6387,45.7043 L 46.6107,45.7745 L 46.5967,45.8448 L 46.5686,45.9010 L 46.5406,45.9713 L 46.4986,46.0275 L 46.4705,46.0978 L 46.3023,46.3226 L 46.2462,46.3648 L 46.2042,46.4210 L 45.9799,46.5897 L 45.9098,46.6178 L 45.8537,46.6599 L 45.7836,46.6880 L 45.7275,46.7162 L 45.6575,46.7302 L 45.5874,46.7583 L 45.4472,46.7864 L 45.3771,46.7864 L 45.2930,46.8005 L 45.2229,46.8005 L 45.1808,46.7162 L 45.1388,46.6178 L 45.0687,46.4772 L 44.9986,46.2945 L 44.9005,46.0978 L 44.7883,45.8589 L 44.6762,45.6059 L 44.5500,45.3248 L 44.4098,45.0297 L 44.2696,44.7064 L 44.1154,44.3832 L 43.9612,44.0459 L 43.7930,43.6945 L 43.6388,43.3291 L 43.3024,42.6264 L 43.1482,42.2610 L 42.9800,41.9096 L 42.8258,41.5723 L 42.6716,41.2491 L 42.5314,40.9258 L 42.3912,40.6307 L 42.2650,40.3496 L 42.1529,40.0966 L 42.0407,39.8577 L 41.9426,39.6610 L 41.8725,39.4782 L 41.8024,39.3377 L 41.7604,39.2393 L 41.7323,39.1831 L 41.7183,39.1550 Z" stroke="#E2E2E2" stroke-width="0.1198" stroke-linecap="round" stroke-linejoin="round" fill="#E2E2E2"/>
        <path d="M 46.6808,45.3388 L 46.6808,45.4091 L 46.6668,45.4934 L 46.6668,45.5637 L 46.6387,45.7043 L 46.6107,45.7745 L 46.5967,45.8448 L 46.5686,45.9010 L 46.5406,45.9713 L 46.4986,46.0275 L 46.4705,46.0978 L 46.3023,46.3226 L 46.2462,46.3648 L 46.2042,46.4210 L 45.9799,46.5897 L 45.9098,46.6178 L 45.8537,46.6599 L 45.7836,46.6880 L 45.7275,46.7162 L 45.6575,46.7302 L 45.5874,46.7583 L 45.4472,46.7864 L 45.3771,46.7864 L 45.2930,46.8005 L 1.4158,46.8005 L 1.3317,46.7864 L 1.2616,46.7864 L 1.1215,46.7583 L 1.0514,46.7302 L 0.9813,46.7162 L 0.9252,46.6880 L 0.8551,46.6599 L 0.7990,46.6178 L 0.7289,46.5897 L 0.5047,46.4210 L 0.4626,46.3648 L 0.4065,46.3226 L 0.2383,46.0978 L 0.2103,46.0275 L 0.1682,45.9713 L 0.1402,45.9010 L 0.1121,45.8448 L 0.0981,45.7745 L 0.0701,45.7043 L 0.0421,45.5637 L 0.0421,45.4934 L 0.0280,45.4091 L 0.0280,34.4328 L 0.0841,34.9387 L 0.1262,35.1777 L 0.1822,35.4306 L 0.2523,35.6555 L 0.3224,35.8944 L 0.5187,36.3442 L 0.7430,36.7658 L 0.8691,36.9625 L 1.0093,37.1593 L 1.3177,37.5247 L 1.4859,37.7074 L 1.6542,37.8620 L 2.0186,38.1712 L 2.2149,38.3117 L 2.4111,38.4382 L 2.8317,38.6631 L 3.2803,38.8599 L 3.5186,38.9301 L 3.7429,39.0004 L 3.9952,39.0566 L 4.2335,39.0988 L 4.7382,39.1550 L 41.9707,39.1550 L 42.4753,39.0988 L 42.7136,39.0566 L 42.9660,39.0004 L 43.1902,38.9301 L 43.4286,38.8599 L 43.8771,38.6631 L 44.2977,38.4382 L 44.4939,38.3117 L 44.6902,38.1712 L 45.2369,37.7074 L 45.6995,37.1593 L 45.8397,36.9625 L 45.9659,36.7658 L 46.1901,36.3442 L 46.3864,35.8944 L 46.4565,35.6555 L 46.5266,35.4306 L 46.5827,35.1777 L 46.6247,34.9387 L 46.6808,34.4328 L 46.6808,45.3107 L 46.6808,45.3388 Z" stroke="#000000" stroke-width="0.1198" stroke-linecap="round" stroke-linejoin="round" fill="none"/>
        <path d="M 14.4949,42.7810 L 14.4809,42.6967 L 14.4668,42.6264 L 14.4248,42.5561 L 14.3827,42.4999 L 14.3126,42.4437 L 14.2425,42.4015 L 14.1725,42.3875 L 14.0883,42.3734 L 12.2660,42.3734 L 12.1819,42.3875 L 12.1118,42.4015 L 12.0417,42.4437 L 11.9295,42.5561 L 11.8875,42.6264 L 11.8735,42.6967 L 11.8594,42.7810 L 11.8735,42.8653 L 11.8875,42.9356 L 11.9295,43.0058 L 11.9856,43.0761 L 12.0417,43.1183 L 12.1118,43.1604 L 12.1819,43.1745 L 12.2660,43.1886 L 14.0883,43.1886 L 14.1725,43.1745 L 14.2425,43.1604 L 14.3827,43.0761 L 14.4668,42.9356 L 14.4809,42.8653 L 14.4949,42.7810 Z" stroke="#E2E2E2" stroke-width="0.1198" stroke-linecap="round" stroke-linejoin="round" fill="#000000"/>
        <path d="M 11.8875,42.9215 L 11.8875,42.9356 L 11.9015,42.9496 L 11.9015,42.9637 L 11.9155,42.9777 L 11.9155,42.9918 L 11.9295,43.0058 L 11.9295,43.0199 L 11.9436,43.0340 L 11.9576,43.0340 L 11.9576,43.0480 L 11.9996,43.0902 L 12.0136,43.0902 L 12.0557,43.1323 L 12.0697,43.1323 L 12.0837,43.1464 L 12.0978,43.1464 L 12.1118,43.1604 L 12.1398,43.1604 L 12.1538,43.1745 L 12.1959,43.1745 L 12.2099,43.1886 L 14.1584,43.1886 L 14.1725,43.1745 L 14.2145,43.1745 L 14.2285,43.1604 L 14.2425,43.1604 L 14.2566,43.1464 L 14.2706,43.1464 L 14.2846,43.1323 L 14.2986,43.1323 L 14.3126,43.1183 L 14.3267,43.1183 L 14.3967,43.0480 L 14.3967,43.0340 L 14.4108,43.0340 L 14.4248,43.0199 L 14.4248,43.0058 L 14.4388,42.9918 L 14.4388,42.9777 L 14.4528,42.9637 L 14.4528,42.9496 L 14.4668,42.9356 L 14.4668,42.9215 L 11.9436,42.9215 L 11.8875,42.9215 Z" stroke="#BFBFBF" stroke-width="0.1198" stroke-linecap="round" stroke-linejoin="round" fill="#BFBFBF"/>
        <path d="M 11.4669,42.6967 L 11.4529,42.6545 L 11.4389,42.6264 L 11.4109,42.6123 L 11.3688,42.5983 L 11.0604,42.5983 L 11.0183,42.6123 L 10.9903,42.6264 L 10.9763,42.6545 L 10.9623,42.6967 L 10.9623,43.0058 L 10.9763,43.0480 L 10.9903,43.0761 L 11.0183,43.0902 L 11.0604,43.1042 L 11.3688,43.1042 L 11.4109,43.0902 L 11.4389,43.0761 L 11.4529,43.0480 L 11.4669,43.0058 L 11.4669,42.6967 Z" stroke="#BFBFBF" stroke-width="0.1198" stroke-linecap="round" stroke-linejoin="round" fill="#BFBFBF"/>
        <path d="M 11.3968,42.4437 L 11.3828,42.4015 L 11.3688,42.3734 L 11.3408,42.3594 L 11.2987,42.3453 L 11.1305,42.3453 L 11.0884,42.3594 L 11.0604,42.3734 L 11.0464,42.4015 L 11.0324,42.4437 L 11.0324,42.9215 L 11.0464,42.9637 L 11.0604,42.9918 L 11.0884,43.0058 L 11.1305,43.0199 L 11.2987,43.0199 L 11.3408,43.0058 L 11.3688,42.9918 L 11.3828,42.9637 L 11.3968,42.9215 L 11.3968,42.4437 " stroke="#BFBFBF" stroke-width="0.1198" stroke-linecap="round" stroke-linejoin="round" fill="none"/>
        <text font-family="Arial" fill="#E2E2E2" style="white-space:pre;" text-anchor="start" x="11.1305" y="42.9918" font-size="0.3224"><![CDATA[K]]></text>
        <path d="M 15.1496,19.3348 L 15.1216,19.3348 L 15.1076,19.3253 L 15.0936,19.3253 L 15.0516,19.2967 L 15.0516,19.2872 L 15.0376,19.2777 L 15.0376,18.1734 L 15.0516,18.1639 L 15.0516,18.1544 L 15.0656,18.1448 L 15.0796,18.1448 L 15.0796,18.1353 L 15.0936,18.1258 L 15.1076,18.1258 L 15.1216,18.1163 L 17.0258,18.1163 L 17.0398,18.1258 L 17.0538,18.1258 L 17.0958,18.1544 L 17.0958,18.1639 L 17.1098,18.1734 L 17.1098,18.3923 L 17.0958,18.3923 L 17.0958,18.3828 L 17.0818,18.3828 L 17.0818,18.3733 L 17.0678,18.3733 L 17.0678,18.3638 L 17.0398,18.3638 L 17.0398,18.3543 L 15.4996,18.3543 L 15.4996,18.3638 L 15.4716,18.3638 L 15.4716,18.3733 L 15.4576,18.3733 L 15.4576,18.3923 L 15.4436,18.3923 L 15.4436,19.2967 L 15.4576,19.2967 L 15.4576,19.3158 L 15.4716,19.3158 L 15.4716,19.3253 L 15.4856,19.3253 L 15.4856,19.3348 L 15.1636,19.3348 L 15.1496,19.3348 Z" stroke="#7F7F7F" stroke-width="0.1198" stroke-linecap="round" stroke-linejoin="round" fill="#7F7F7F"/>
        <path d="M 16.9698,18.6303 L 15.5836,18.6303 L 15.5836,18.6208 L 15.5556,18.6208 L 15.5556,18.6113 L 15.5416,18.6113 L 15.5416,18.5923 L 15.5276,18.5923 L 15.5276,18.8303 L 15.5416,18.8303 L 15.5416,18.8493 L 15.5556,18.8493 L 15.5556,18.8588 L 15.5836,18.8588 L 15.5836,18.8683 L 16.9978,18.8683 L 17.0258,18.8493 L 17.0398,18.8493 L 17.0678,18.8303 L 17.0678,18.8207 L 17.0818,18.8112 L 17.0818,18.8017 L 17.0958,18.7922 L 17.0958,18.7731 L 17.1098,18.7636 L 17.1098,18.7351 L 17.0958,18.7255 L 17.0958,18.6970 L 17.0678,18.6779 L 17.0678,18.6684 L 17.0538,18.6589 L 17.0398,18.6589 L 17.0398,18.6494 L 17.0258,18.6494 L 17.0118,18.6399 L 16.9978,18.6399 L 16.9838,18.6303 L 16.9698,18.6303 Z" stroke="#7F7F7F" stroke-width="0.1198" stroke-linecap="round" stroke-linejoin="round" fill="#7F7F7F"/>
        <path d="M 20.2041,18.8683 L 20.1761,18.8683 L 20.1761,18.8588 L 20.1481,18.8588 L 20.1481,18.8493 L 20.1341,18.8493 L 20.1341,18.8303 L 20.1201,18.8303 L 20.1201,18.5923 L 20.1341,18.5923 L 20.1341,18.6113 L 20.1481,18.6113 L 20.1481,18.6208 L 20.1761,18.6208 L 20.1761,18.6303 L 21.2962,18.6303 L 21.2962,18.3543 L 20.0921,18.3543 L 20.0921,18.3638 L 20.0641,18.3638 L 20.0641,18.3733 L 20.0501,18.3733 L 20.0501,18.3923 L 20.0361,18.3923 L 20.0361,19.2967 L 20.0501,19.2967 L 20.0501,19.3158 L 20.0641,19.3158 L 20.0641,19.3253 L 20.0781,19.3253 L 20.0781,19.3348 L 19.7141,19.3348 L 19.7000,19.3253 L 19.6860,19.3253 L 19.6440,19.2967 L 19.6440,19.2872 L 19.6300,19.2777 L 19.6300,18.1734 L 19.6440,18.1639 L 19.6440,18.1544 L 19.6580,18.1448 L 19.6720,18.1448 L 19.6720,18.1353 L 19.6860,18.1258 L 19.7000,18.1258 L 19.7141,18.1163 L 21.6182,18.1163 L 21.6323,18.1258 L 21.6463,18.1258 L 21.6883,18.1544 L 21.6883,18.1639 L 21.7023,18.1734 L 21.7023,18.7731 L 21.6883,18.7827 L 21.6883,18.8017 L 21.6743,18.8017 L 21.6743,18.8112 L 21.6603,18.8207 L 21.6603,18.8303 L 21.6463,18.8303 L 21.6463,18.8398 L 21.6323,18.8398 L 21.6323,18.8493 L 21.6182,18.8493 L 21.6182,18.8588 L 21.6042,18.8588 L 21.5902,18.8683 L 21.6042,18.8779 L 21.6182,18.8779 L 21.6182,18.8874 L 21.6323,18.8874 L 21.6323,18.8969 L 21.6463,18.8969 L 21.6463,18.9064 L 21.6603,18.9064 L 21.6603,18.9159 L 21.6743,18.9255 L 21.6743,18.9350 L 21.6883,18.9350 L 21.6883,18.9540 L 21.7023,18.9635 L 21.7023,19.2967 L 21.7163,19.2967 L 21.7163,19.3158 L 21.7303,19.3158 L 21.7303,19.3253 L 21.7443,19.3253 L 21.7443,19.3348 L 21.3802,19.3348 L 21.3662,19.3253 L 21.3522,19.3253 L 21.3102,19.2967 L 21.3102,19.2872 L 21.2962,19.2777 L 21.2962,18.8683 L 20.2181,18.8683 L 20.2041,18.8683 Z" stroke="#7F7F7F" stroke-width="0.1198" stroke-linecap="round" stroke-linejoin="round" fill="#7F7F7F"/>
        <path d="M 22.4303,18.3543 L 22.0103,18.3543 L 21.9963,18.3448 L 21.9823,18.3448 L 21.9403,18.3162 L 21.9403,18.3067 L 21.9263,18.2972 L 21.9263,18.1734 L 21.9403,18.1639 L 21.9403,18.1544 L 21.9543,18.1448 L 21.9683,18.1448 L 21.9683,18.1353 L 21.9823,18.1258 L 21.9963,18.1258 L 22.0103,18.1163 L 23.9145,18.1163 L 23.9285,18.1258 L 23.9425,18.1258 L 23.9845,18.1544 L 23.9845,18.1639 L 23.9985,18.1734 L 23.9985,18.3923 L 23.9845,18.3923 L 23.9845,18.3828 L 23.9705,18.3828 L 23.9705,18.3733 L 23.9565,18.3733 L 23.9565,18.3638 L 23.9285,18.3638 L 23.9285,18.3543 L 22.8924,18.3543 L 22.8924,18.3638 L 22.8644,18.3638 L 22.8644,18.3733 L 22.8504,18.3733 L 22.8504,18.3923 L 22.8364,18.3923 L 22.8364,19.2967 L 22.8504,19.2967 L 22.8504,19.3158 L 22.8644,19.3158 L 22.8644,19.3253 L 22.8784,19.3253 L 22.8784,19.3348 L 22.5143,19.3348 L 22.5003,19.3253 L 22.4863,19.3253 L 22.4443,19.2967 L 22.4443,19.2872 L 22.4303,19.2777 L 22.4303,18.3828 L 22.4303,18.3543 Z" stroke="#7F7F7F" stroke-width="0.1198" stroke-linecap="round" stroke-linejoin="round" fill="#7F7F7F"/>
        <path d="M 24.6286,19.2682 L 24.6286,19.2967 L 24.6426,19.2967 L 24.6426,19.3158 L 24.6566,19.3158 L 24.6566,19.3253 L 24.6706,19.3253 L 24.6706,19.3348 L 24.3065,19.3348 L 24.2925,19.3253 L 24.2785,19.3253 L 24.2365,19.2967 L 24.2365,19.2872 L 24.2225,19.2777 L 24.2225,18.1544 L 24.2085,18.1544 L 24.2085,18.1353 L 24.1945,18.1353 L 24.1945,18.1258 L 24.1805,18.1258 L 24.1805,18.1163 L 24.5446,18.1163 L 24.5586,18.1258 L 24.5726,18.1258 L 24.6146,18.1544 L 24.6146,18.1639 L 24.6286,18.1734 L 24.6286,19.2587 L 24.6286,19.2682 Z" stroke="#7F7F7F" stroke-width="0.1198" stroke-linecap="round" stroke-linejoin="round" fill="#7F7F7F"/>
        <path d="M 26.6168,18.3543 L 25.4126,18.3543 L 25.4126,18.3638 L 25.3846,18.3638 L 25.3846,18.3733 L 25.3706,18.3733 L 25.3706,18.3923 L 25.3566,18.3923 L 25.3566,19.2967 L 25.3706,19.2967 L 25.3706,19.3158 L 25.3846,19.3158 L 25.3846,19.3253 L 25.3986,19.3253 L 25.3986,19.3348 L 25.0346,19.3348 L 25.0206,19.3253 L 25.0066,19.3253 L 24.9646,19.2967 L 24.9646,19.2872 L 24.9506,19.2777 L 24.9506,18.1734 L 24.9646,18.1639 L 24.9646,18.1544 L 24.9786,18.1448 L 24.9926,18.1448 L 24.9926,18.1353 L 25.0066,18.1258 L 25.0206,18.1258 L 25.0346,18.1163 L 26.9388,18.1163 L 26.9528,18.1258 L 26.9668,18.1258 L 27.0088,18.1544 L 27.0088,18.1639 L 27.0228,18.1734 L 27.0228,19.2967 L 27.0368,19.2967 L 27.0368,19.3158 L 27.0508,19.3158 L 27.0508,19.3253 L 27.0648,19.3253 L 27.0648,19.3348 L 26.7008,19.3348 L 26.6868,19.3253 L 26.6728,19.3253 L 26.6308,19.2967 L 26.6308,19.2872 L 26.6168,19.2777 L 26.6168,18.3828 L 26.6168,18.3543 Z" stroke="#7F7F7F" stroke-width="0.1198" stroke-linecap="round" stroke-linejoin="round" fill="#7F7F7F"/>
        <path d="M 29.0810,18.6303 L 27.7929,18.6303 L 27.7789,18.6208 L 27.7649,18.6208 L 27.7649,18.6113 L 27.7509,18.6113 L 27.7509,18.5923 L 27.7369,18.5923 L 27.7369,18.8303 L 27.7509,18.8303 L 27.7509,18.8493 L 27.7649,18.8493 L 27.7649,18.8588 L 27.7789,18.8588 L 27.7929,18.8683 L 29.0950,18.8683 L 29.1230,18.8493 L 29.1370,18.8493 L 29.1650,18.8303 L 29.1650,18.8207 L 29.1790,18.8112 L 29.1790,18.8017 L 29.1930,18.7922 L 29.1930,18.7731 L 29.2070,18.7636 L 29.2070,18.7255 L 29.1930,18.7160 L 29.1930,18.6875 L 29.1790,18.6875 L 29.1790,18.6779 L 29.1370,18.6494 L 29.1230,18.6494 L 29.1230,18.6399 L 29.1090,18.6399 L 29.0950,18.6303 L 29.0810,18.6303 Z" stroke="#7F7F7F" stroke-width="0.1198" stroke-linecap="round" stroke-linejoin="round" fill="#7F7F7F"/>
        <path d="M 30.0471,18.3543 L 29.6271,18.3543 L 29.6131,18.3448 L 29.5991,18.3448 L 29.5571,18.3162 L 29.5571,18.3067 L 29.5431,18.2972 L 29.5431,18.1734 L 29.5571,18.1639 L 29.5571,18.1544 L 29.5711,18.1448 L 29.5851,18.1448 L 29.5851,18.1353 L 29.5991,18.1258 L 29.6131,18.1258 L 29.6271,18.1163 L 31.5313,18.1163 L 31.5453,18.1258 L 31.5593,18.1258 L 31.6013,18.1544 L 31.6013,18.1639 L 31.6153,18.1734 L 31.6153,18.3923 L 31.6013,18.3923 L 31.6013,18.3828 L 31.5873,18.3828 L 31.5873,18.3733 L 31.5733,18.3733 L 31.5733,18.3638 L 31.5453,18.3638 L 31.5453,18.3543 L 30.5092,18.3543 L 30.5092,18.3638 L 30.4812,18.3638 L 30.4812,18.3733 L 30.4672,18.3733 L 30.4672,18.3923 L 30.4532,18.3923 L 30.4532,19.2967 L 30.4672,19.2967 L 30.4672,19.3158 L 30.4812,19.3158 L 30.4812,19.3253 L 30.4952,19.3253 L 30.4952,19.3348 L 30.1311,19.3348 L 30.1171,19.3253 L 30.1031,19.3253 L 30.0611,19.2967 L 30.0611,19.2872 L 30.0471,19.2777 L 30.0471,18.3828 L 30.0471,18.3543 Z" stroke="#7F7F7F" stroke-width="0.1198" stroke-linecap="round" stroke-linejoin="round" fill="#7F7F7F"/>
        <path d="M 29.2210,19.0968 L 29.2490,19.0968 L 29.2490,19.0873 L 29.2770,19.0873 L 29.2770,19.0778 L 29.2910,19.0778 L 29.2910,19.0683 L 29.3050,19.0683 L 29.3050,19.0587 L 29.3190,19.0587 L 29.3190,19.2777 L 29.3050,19.2872 L 29.3050,19.2967 L 29.2910,19.3063 L 29.2910,19.3158 L 29.2770,19.3158 L 29.2630,19.3253 L 29.2490,19.3253 L 29.2350,19.3348 L 27.3308,19.3348 L 27.3168,19.3253 L 27.3028,19.3253 L 27.2608,19.2967 L 27.2608,19.2872 L 27.2468,19.2777 L 27.2468,18.1734 L 27.2608,18.1639 L 27.2608,18.1544 L 27.2748,18.1448 L 27.2888,18.1448 L 27.2888,18.1353 L 27.3028,18.1258 L 27.3168,18.1258 L 27.3308,18.1163 L 29.2350,18.1163 L 29.2490,18.1258 L 29.2630,18.1258 L 29.3050,18.1544 L 29.3050,18.1639 L 29.3190,18.1734 L 29.3190,18.3923 L 29.3050,18.3923 L 29.3050,18.3828 L 29.2910,18.3828 L 29.2910,18.3733 L 29.2770,18.3733 L 29.2770,18.3638 L 29.2490,18.3638 L 29.2490,18.3543 L 27.7089,18.3543 L 27.7089,18.3638 L 27.6809,18.3638 L 27.6809,18.3733 L 27.6669,18.3733 L 27.6669,18.3923 L 27.6529,18.3923 L 27.6529,19.0968 L 29.2070,19.0968 L 29.2210,19.0968 Z" stroke="#7F7F7F" stroke-width="0.1198" stroke-linecap="round" stroke-linejoin="round" fill="#7F7F7F"/>
        <path d="M 18.0339,18.9826 L 18.0339,19.3348 L 18.7059,19.3348 L 18.7059,18.9826 L 18.0339,18.9826 Z" stroke="#7F7F7F" stroke-width="0.1198" stroke-linecap="round" stroke-linejoin="round" fill="#7F7F7F"/>
        <path d="M 17.3338,18.5542 L 17.9079,18.5542 L 17.9079,18.8969 L 17.3338,18.8969 L 17.3338,18.5542 Z" stroke="#7F7F7F" stroke-width="0.1198" stroke-linecap="round" stroke-linejoin="round" fill="#7F7F7F"/>
        <path d="M 18.8320,18.9826 L 18.8320,19.3348 L 19.0420,19.3348 L 19.0560,19.3253 L 19.1120,19.3253 L 19.1260,19.3158 L 19.1540,19.3158 L 19.1820,19.3063 L 19.1960,19.2967 L 19.2240,19.2872 L 19.2520,19.2682 L 19.2800,19.2587 L 19.2940,19.2491 L 19.3080,19.2301 L 19.3220,19.2206 L 19.3780,19.1444 L 19.3780,19.1254 L 19.3920,19.0968 L 19.3920,19.0683 L 19.4060,19.0397 L 19.4060,18.9826 L 18.8460,18.9826 L 18.8320,18.9826 Z" stroke="#7F7F7F" stroke-width="0.1198" stroke-linecap="round" stroke-linejoin="round" fill="#7F7F7F"/>
        <path d="M 18.8320,18.5542 L 19.4060,18.5542 L 19.4060,18.8969 L 18.8320,18.8969 L 18.8320,18.5542 Z" stroke="#7F7F7F" stroke-width="0.1198" stroke-linecap="round" stroke-linejoin="round" fill="#7F7F7F"/>
        <path d="M 17.9079,18.9826 L 17.9079,19.3348 L 17.6978,19.3348 L 17.6838,19.3253 L 17.6278,19.3253 L 17.6138,19.3158 L 17.5858,19.3158 L 17.5578,19.3063 L 17.5438,19.2967 L 17.5158,19.2872 L 17.4878,19.2682 L 17.4598,19.2587 L 17.4458,19.2491 L 17.4318,19.2301 L 17.4178,19.2206 L 17.3618,19.1444 L 17.3618,19.1254 L 17.3478,19.0968 L 17.3478,19.0683 L 17.3338,19.0397 L 17.3338,18.9826 L 17.8939,18.9826 L 17.9079,18.9826 Z" stroke="#7F7F7F" stroke-width="0.1198" stroke-linecap="round" stroke-linejoin="round" fill="#7F7F7F"/>
        <path d="M 18.0339,18.1163 L 18.0339,18.4685 L 18.7059,18.4685 L 18.7059,18.1163 L 18.0339,18.1163 Z" stroke="#7F7F7F" stroke-width="0.1198" stroke-linecap="round" stroke-linejoin="round" fill="#7F7F7F"/>
        <path d="M 18.8320,18.4685 L 18.8320,18.1163 L 19.0420,18.1163 L 19.0560,18.1258 L 19.1120,18.1258 L 19.1260,18.1353 L 19.1540,18.1353 L 19.1820,18.1448 L 19.1960,18.1544 L 19.2240,18.1639 L 19.2520,18.1829 L 19.2800,18.1924 L 19.2940,18.2020 L 19.3080,18.2210 L 19.3220,18.2305 L 19.3780,18.3067 L 19.3780,18.3257 L 19.3920,18.3543 L 19.3920,18.3828 L 19.4060,18.4114 L 19.4060,18.4685 L 18.8460,18.4685 L 18.8320,18.4685 Z" stroke="#7F7F7F" stroke-width="0.1198" stroke-linecap="round" stroke-linejoin="round" fill="#7F7F7F"/>
        <path d="M 17.9079,18.4685 L 17.9079,18.1163 L 17.6978,18.1163 L 17.6838,18.1258 L 17.6278,18.1258 L 17.6138,18.1353 L 17.5858,18.1353 L 17.5578,18.1448 L 17.5438,18.1544 L 17.5158,18.1639 L 17.4878,18.1829 L 17.4598,18.1924 L 17.4458,18.2020 L 17.4318,18.2210 L 17.4178,18.2305 L 17.3618,18.3067 L 17.3618,18.3257 L 17.3478,18.3543 L 17.3478,18.3828 L 17.3338,18.4114 L 17.3338,18.4685 L 17.8939,18.4685 L 17.9079,18.4685 Z" stroke="#7F7F7F" stroke-width="0.1198" stroke-linecap="round" stroke-linejoin="round" fill="#7F7F7F"/>
        <ellipse cx="16.7074" cy="34.9653" rx="0.3221" ry="0.3150" fill="#00FF00" stroke="#000000" stroke-width="0.1198" stroke-linecap="round" stroke-linejoin="round"/>
        <ellipse cx="16.7074" cy="34.9653" rx="0.3221" ry="0.3150" fill="none" stroke="#000000" stroke-width="0.1198" stroke-linecap="round" stroke-linejoin="round"/>
        <ellipse cx="20.0694" cy="34.9653" rx="0.3221" ry="0.3150" fill="#00FF00" stroke="#000000" stroke-width="0.1198" stroke-linecap="round" stroke-linejoin="round"/>
        <ellipse cx="20.0694" cy="34.9653" rx="0.3221" ry="0.3150" fill="none" stroke="#000000" stroke-width="0.1198" stroke-linecap="round" stroke-linejoin="round"/>
        <ellipse cx="23.4941" cy="34.9653" rx="0.3221" ry="0.3150" fill="#00FF00" stroke="#000000" stroke-width="0.1198" stroke-linecap="round" stroke-linejoin="round"/>
        <ellipse cx="23.4941" cy="34.9653" rx="0.3221" ry="0.3150" fill="none" stroke="#000000" stroke-width="0.1198" stroke-linecap="round" stroke-linejoin="round"/>
        <ellipse cx="26.8560" cy="34.9653" rx="0.3221" ry="0.3150" fill="#00FF00" stroke="#000000" stroke-width="0.1198" stroke-linecap="round" stroke-linejoin="round"/>
        <ellipse cx="26.8560" cy="34.9653" rx="0.3221" ry="0.3150" fill="none" stroke="#000000" stroke-width="0.1198" stroke-linecap="round" stroke-linejoin="round"/>
        <ellipse cx="30.2336" cy="34.9653" rx="0.3221" ry="0.3150" fill="#00FF00" stroke="#000000" stroke-width="0.1198" stroke-linecap="round" stroke-linejoin="round"/>
        <ellipse cx="30.2336" cy="34.9653" rx="0.3221" ry="0.3150" fill="none" stroke="#000000" stroke-width="0.1198" stroke-linecap="round" stroke-linejoin="round"/>
        <text font-family="Arial" fill="#808080" style="white-space:pre;" font-weight="400" text-anchor="start" x="35.5514" y="44.8843" font-size="0.1885"><![CDATA[2.4G]]></text>
        <text font-family="Arial" fill="#808080" style="white-space:pre;" font-weight="400" text-anchor="start" x="36.5726" y="44.8843" font-size="0.1885"><![CDATA[5G]]></text>
        <text font-family="Arial" fill="#808080" style="white-space:pre;" font-weight="400" text-anchor="start" x="37.7351" y="44.7898" font-size="0.1885"><![CDATA[1]]></text>
        <text font-family="Arial" fill="#808080" style="white-space:pre;" font-weight="400" text-anchor="start" x="38.7405" y="44.7898" font-size="0.1885"><![CDATA[2]]></text>
        <path d="M 30.5217,33.3262 L 30.5582,33.3452 L 30.5765,33.3642 L 30.5887,33.3705 L 30.6192,33.4022 L 30.6253,33.4148 L 30.6375,33.4212 L 30.6436,33.4338 L 30.6558,33.4465 L 30.6619,33.4591 L 30.6680,33.4655 L 30.6802,33.4908 L 30.6924,33.5034 L 30.6985,33.5161 L 30.6985,33.5287 L 30.7046,33.5477 L 30.7168,33.5730 L 30.7168,33.5857 L 30.7229,33.5984 L 30.7290,33.6173 L 30.7290,33.6427 L 30.7351,33.6616 L 30.7351,33.7502 L 30.7290,33.7692 L 30.7290,33.7945 L 30.7168,33.8325 L 30.7107,33.8578 L 30.7046,33.8768 L 30.6924,33.8958 L 30.6863,33.9148 L 30.6741,33.9274 L 30.6680,33.9464 L 30.6558,33.9654 L 30.5704,34.0540 L 30.5522,34.0667 L 30.5339,34.0730 L 30.5217,34.0857 L 30.5034,34.0920 L 30.4851,34.1046 L 30.4668,34.1110 L 30.4424,34.1173 L 30.4058,34.1300 L 30.3814,34.1300 L 30.3631,34.1363 L 30.2777,34.1363 L 30.2594,34.1300 L 30.2350,34.1300 L 30.1985,34.1173 L 30.1741,34.1110 L 30.1558,34.1046 L 30.1375,34.0920 L 30.1192,34.0857 L 30.1070,34.0730 L 30.0887,34.0667 L 30.0704,34.0540 L 29.9850,33.9654 L 29.9728,33.9464 L 29.9667,33.9274 L 29.9545,33.9148 L 29.9484,33.8958 L 29.9362,33.8768 L 29.9301,33.8578 L 29.9240,33.8325 L 29.9118,33.7945 L 29.9118,33.7692 L 29.9057,33.7502 L 29.9057,33.6616 L 29.9118,33.6490 L 29.9118,33.6237 L 29.9179,33.6110 L 29.9179,33.5984 L 29.9240,33.5857 L 29.9240,33.5730 L 29.9301,33.5604 L 29.9301,33.5477 L 29.9545,33.4971 L 29.9606,33.4908 L 29.9789,33.4528 L 29.9850,33.4465 L 29.9911,33.4338 L 30.0033,33.4275 L 30.0094,33.4148 L 30.0521,33.3705 L 30.0643,33.3642 L 30.0704,33.3515 L 30.0826,33.3452 L 30.0826,33.3515 L 30.0887,33.3515 L 30.0887,33.3579 L 30.0948,33.3579 L 30.0948,33.3642 L 30.1009,33.3705 L 30.1009,33.3769 L 30.1070,33.3769 L 30.1070,33.3895 L 30.1131,33.3895 L 30.1131,33.3958 L 30.1192,33.4022 L 30.1192,33.4085 L 30.1253,33.4085 L 30.1253,33.4148 L 30.1314,33.4148 L 30.1314,33.4212 L 30.1253,33.4275 L 30.1131,33.4338 L 30.0582,33.4908 L 30.0521,33.5034 L 30.0399,33.5161 L 30.0338,33.5287 L 30.0338,33.5351 L 30.0277,33.5477 L 30.0216,33.5541 L 30.0155,33.5667 L 30.0155,33.5730 L 30.0094,33.5857 L 30.0033,33.5920 L 30.0033,33.6047 L 29.9972,33.6173 L 29.9972,33.6237 L 29.9911,33.6363 L 29.9911,33.6553 L 29.9850,33.6680 L 29.9850,33.7502 L 29.9911,33.7629 L 29.9911,33.7819 L 29.9972,33.8009 L 30.0033,33.8135 L 30.0033,33.8325 L 30.0094,33.8452 L 30.0155,33.8642 L 30.0277,33.8768 L 30.0338,33.8895 L 30.0399,33.9085 L 30.0643,33.9338 L 30.0704,33.9464 L 30.0948,33.9717 L 30.1070,33.9781 L 30.1314,34.0034 L 30.1497,34.0097 L 30.1619,34.0160 L 30.1741,34.0287 L 30.1924,34.0350 L 30.2046,34.0414 L 30.2228,34.0414 L 30.2350,34.0477 L 30.2533,34.0540 L 30.2716,34.0540 L 30.2838,34.0603 L 30.3570,34.0603 L 30.3692,34.0540 L 30.3875,34.0540 L 30.4058,34.0477 L 30.4180,34.0414 L 30.4363,34.0414 L 30.4485,34.0350 L 30.4668,34.0287 L 30.4790,34.0160 L 30.4912,34.0097 L 30.5095,34.0034 L 30.5339,33.9781 L 30.5461,33.9717 L 30.5704,33.9464 L 30.5765,33.9338 L 30.6009,33.9085 L 30.6070,33.8895 L 30.6131,33.8768 L 30.6253,33.8642 L 30.6314,33.8452 L 30.6375,33.8325 L 30.6375,33.8135 L 30.6436,33.8009 L 30.6497,33.7819 L 30.6497,33.7629 L 30.6558,33.7502 L 30.6558,33.6743 L 30.6497,33.6616 L 30.6497,33.6427 L 30.6436,33.6300 L 30.6436,33.6173 L 30.6375,33.6047 L 30.6375,33.5920 L 30.6314,33.5857 L 30.6253,33.5730 L 30.6253,33.5604 L 30.6192,33.5541 L 30.6131,33.5414 L 30.6070,33.5351 L 30.5948,33.5098 L 30.5582,33.4718 L 30.5522,33.4591 L 30.5400,33.4528 L 30.5278,33.4401 L 30.5156,33.4338 L 30.5095,33.4275 L 30.4973,33.4212 L 30.4912,33.4148 L 30.4790,33.4085 L 30.4790,33.4022 L 30.4851,33.4022 L 30.4851,33.3895 L 30.4912,33.3895 L 30.4912,33.3832 L 30.4973,33.3769 L 30.4973,33.3705 L 30.5034,33.3705 L 30.5034,33.3579 L 30.5095,33.3515 L 30.5095,33.3452 L 30.5156,33.3452 L 30.5156,33.3326 L 30.5217,33.3326 L 30.5217,33.3262 Z" stroke="#898989" stroke-width="0.1198" stroke-linecap="round" stroke-linejoin="round" fill="#898989"/>
        <path d="M 30.3570,33.1364 L 30.2655,33.1364 L 30.2655,33.7376 L 30.3570,33.7376 L 30.3570,33.1364 Z" stroke="#898989" stroke-width="0.1198" stroke-linecap="round" stroke-linejoin="round" fill="#898989"/>
        <path d="M 23.0678,33.2545 L 22.7509,33.2545 L 22.7509,33.5667 L 23.0678,33.5667 L 23.0678,33.2545 Z" stroke="#7F7F7F" stroke-width="0.1198" stroke-linecap="round" stroke-linejoin="round" fill="#7F7F7F"/>
        <path d="M 22.7184,33.7524 L 22.4015,33.7524 L 22.4015,34.0646 L 22.7184,34.0646 L 22.7184,33.7524 Z" stroke="#7F7F7F" stroke-width="0.1198" stroke-linecap="round" stroke-linejoin="round" fill="#7F7F7F"/>
        <path d="M 23.4172,33.7524 L 23.1003,33.7524 L 23.1003,34.0646 L 23.4172,34.0646 L 23.4172,33.7524 Z" stroke="#7F7F7F" stroke-width="0.1198" stroke-linecap="round" stroke-linejoin="round" fill="#7F7F7F"/>
        <path d="M 22.3365,33.6595 L 23.4822,33.6595 " stroke="#7F7F7F" stroke-width="0.1198" stroke-linecap="round" stroke-linejoin="round" fill="none"/>
        <path d="M 22.9053,33.5667 L 22.9053,33.6595 " stroke="#7F7F7F" stroke-width="0.1198" stroke-linecap="round" stroke-linejoin="round" fill="none"/>
        <path d="M 23.2628,33.6595 L 23.2628,33.7524 " stroke="#7F7F7F" stroke-width="0.1198" stroke-linecap="round" stroke-linejoin="round" fill="none"/>
        <path d="M 22.5478,33.6595 L 22.5478,33.7524 " stroke="#7F7F7F" stroke-width="0.1198" stroke-linecap="round" stroke-linejoin="round" fill="none"/>
        <path d="M 26.6592,33.2545 L 26.3423,33.2545 L 26.3423,33.5667 L 26.6592,33.5667 L 26.6592,33.2545 Z" stroke="#7F7F7F" stroke-width="0.1198" stroke-linecap="round" stroke-linejoin="round" fill="#7F7F7F"/>
        <path d="M 26.3098,33.7524 L 25.9929,33.7524 L 25.9929,34.0646 L 26.3098,34.0646 L 26.3098,33.7524 Z" stroke="#7F7F7F" stroke-width="0.1198" stroke-linecap="round" stroke-linejoin="round" fill="#7F7F7F"/>
        <path d="M 27.0086,33.7524 L 26.6917,33.7524 L 26.6917,34.0646 L 27.0086,34.0646 L 27.0086,33.7524 Z" stroke="#7F7F7F" stroke-width="0.1198" stroke-linecap="round" stroke-linejoin="round" fill="#7F7F7F"/>
        <path d="M 25.9279,33.6595 L 27.0736,33.6595 " stroke="#7F7F7F" stroke-width="0.1198" stroke-linecap="round" stroke-linejoin="round" fill="none"/>
        <path d="M 26.4967,33.5667 L 26.4967,33.6595 " stroke="#7F7F7F" stroke-width="0.1198" stroke-linecap="round" stroke-linejoin="round" fill="none"/>
        <path d="M 26.8542,33.6595 L 26.8542,33.7524 " stroke="#7F7F7F" stroke-width="0.1198" stroke-linecap="round" stroke-linejoin="round" fill="none"/>
        <path d="M 26.1392,33.6595 L 26.1392,33.7524 " stroke="#7F7F7F" stroke-width="0.1198" stroke-linecap="round" stroke-linejoin="round" fill="none"/>
        <path d="M 23.4443,0.0000 L 23.2320,0.0000 L 23.2320,0.2128 L 23.4443,0.2128 L 23.4443,0.0000 Z" stroke="#000000" stroke-width="0.1198" stroke-linecap="round" stroke-linejoin="round" fill="none"/>
        <path d="M 0.2123,23.2915 L 0.0000,23.2915 L 0.0000,23.5044 L 0.2123,23.5044 L 0.2123,23.2915 Z" stroke="#000000" stroke-width="0.1198" stroke-linecap="round" stroke-linejoin="round" fill="none"/>
        <path d="M 46.7247,23.2915 L 46.5124,23.2915 L 46.5124,23.5044 L 46.7247,23.5044 L 46.7247,23.2915 Z" stroke="#000000" stroke-width="0.1198" stroke-linecap="round" stroke-linejoin="round" fill="none"/>
        <path d="M 23.4443,42.8065 L 23.2320,42.8065 L 23.2320,43.0194 L 23.4443,43.0194 L 23.4443,42.8065 Z" stroke="#000000" stroke-width="0.1198" stroke-linecap="round" stroke-linejoin="round" fill="none"/>
      </g>
      <!--emf-blob end-->
    </g>
  </g>
</svg>
