<svg xmlns="http://www.w3.org/2000/svg" xmlns:xlink="http://www.w3.org/1999/xlink" version="1.1" width="5.2124000000" height="4.0000000000" viewBox="0 0 93.8268 72.0000">
  <title><![CDATA[FCTRL-5903C]]></title>
  <g transform=" scale(4.000000) ">
    <!--converted by libvisio2svg-->
    <g transform=" translate(46.9134, 31.8331)  scale(1, 1)  rotate(-90.0000)  translate(-46.9134, -31.8331)  translate(42.746500,-15.080300) ">
      <!--emf-blob start-->
      <g transform="translate(-0.0000, -0.0000)">
        <path d="M 7.0206,83.8255 L 7.0206,91.6616 L 7.0982,91.6616 " stroke="#000000" stroke-width="0.1201" stroke-linecap="round" stroke-linejoin="round" fill="none"/>
        <path d="M 7.0982,83.8255 L 7.2515,83.8255 " stroke="#000000" stroke-width="0.1201" stroke-linecap="round" stroke-linejoin="round" fill="none"/>
        <path d="M 7.1738,83.8255 L 7.1738,91.6616 " stroke="#000000" stroke-width="0.1201" stroke-linecap="round" stroke-linejoin="round" fill="none"/>
        <path d="M 7.2903,83.8255 L 7.2903,91.6616 " stroke="#000000" stroke-width="0.1201" stroke-linecap="round" stroke-linejoin="round" fill="none"/>
        <path d="M 7.2903,83.8255 L 7.2903,91.6616 " stroke="#000000" stroke-width="0.1201" stroke-linecap="round" stroke-linejoin="round" fill="none"/>
        <path d="M 7.3659,91.6616 L 7.3659,83.8255 L 7.4435,91.6616 L 7.5212,83.8255 L 7.5212,91.6616 " stroke="#000000" stroke-width="0.1201" stroke-linecap="round" stroke-linejoin="round" fill="none"/>
        <path d="M 7.5580,91.6616 L 7.6356,83.8255 L 7.7132,91.6616 " stroke="#000000" stroke-width="0.1201" stroke-linecap="round" stroke-linejoin="round" fill="none"/>
        <path d="M 7.5784,89.7025 L 7.6928,89.7025 " stroke="#000000" stroke-width="0.1201" stroke-linecap="round" stroke-linejoin="round" fill="none"/>
        <path d="M 6.7897,91.6616 L 6.8673,83.8255 L 6.9450,91.6616 " stroke="#000000" stroke-width="0.1201" stroke-linecap="round" stroke-linejoin="round" fill="none"/>
        <path d="M 6.8101,89.7025 L 6.9245,89.7025 " stroke="#000000" stroke-width="0.1201" stroke-linecap="round" stroke-linejoin="round" fill="none"/>
        <path d="M 8.2616,93.7987 L 1.4210,93.7987 L 1.4210,88.1190 L 0.0000,88.1190 L 0.0000,5.6797 L 1.4210,5.6797 L 1.4210,0.0000 L 8.2616,0.0000 L 8.2616,93.7987 Z" stroke="#000000" stroke-width="0.1201" stroke-linecap="round" stroke-linejoin="round" fill="#666666"/>
        <path d="M 0.2368,83.1142 L 0.2368,92.6037 L 1.1424,92.6037 L 1.1424,83.1142 L 0.2368,83.1142 Z" stroke="#000000" stroke-width="0.1201" stroke-linecap="round" stroke-linejoin="round" fill="#BFBFBF"/>
        <path d="M 0.1393,88.3580 L 0.1393,84.2529 L 1.2399,84.2529 L 1.2399,88.3580 L 0.1393,88.3580 Z" stroke="#000000" stroke-width="0.1201" stroke-linecap="round" stroke-linejoin="round" fill="#7F7F7F"/>
        <path d="M 0.1393,83.1704 L 0.1393,79.0653 L 1.2399,79.0653 L 1.2399,83.1704 L 0.1393,83.1704 Z" stroke="#000000" stroke-width="0.1201" stroke-linecap="round" stroke-linejoin="round" fill="#7F7F7F"/>
        <path d="M 0.2368,10.6845 L 0.2368,1.1950 L 1.1424,1.1950 L 1.1424,10.6845 L 0.2368,10.6845 Z" stroke="#000000" stroke-width="0.1201" stroke-linecap="round" stroke-linejoin="round" fill="#BFBFBF"/>
        <path d="M 0.1393,5.4407 L 0.1393,9.5458 L 1.2399,9.5458 L 1.2399,5.4407 L 0.1393,5.4407 Z" stroke="#000000" stroke-width="0.1201" stroke-linecap="round" stroke-linejoin="round" fill="#7F7F7F"/>
        <path d="M 0.1393,10.6283 L 0.1393,14.7334 L 1.2399,14.7334 L 1.2399,10.6283 L 0.1393,10.6283 Z" stroke="#000000" stroke-width="0.1201" stroke-linecap="round" stroke-linejoin="round" fill="#7F7F7F"/>
        <path d="M 6.3390,58.7929 L 6.3390,56.0655 " stroke="#FFFFFF" stroke-width="0.1201" stroke-linecap="round" stroke-linejoin="round" fill="none"/>
        <path d="M 6.3390,64.1351 L 6.3390,61.4078 " stroke="#FFFFFF" stroke-width="0.1201" stroke-linecap="round" stroke-linejoin="round" fill="none"/>
        <path d="M 6.3390,55.2501 L 6.3390,46.3651 " stroke="#FFFFFF" stroke-width="0.1201" stroke-linecap="round" stroke-linejoin="round" fill="none"/>
        <path d="M 6.3390,43.2722 L 6.3390,34.3872 " stroke="#FFFFFF" stroke-width="0.1201" stroke-linecap="round" stroke-linejoin="round" fill="none"/>
        <path d="M 1.2399,16.4345 L 0.1533,16.4345 L 0.1533,17.7700 L 1.2399,17.7700 L 1.2399,16.4345 Z" stroke="#FFFFFF" stroke-width="0.1201" stroke-linecap="round" stroke-linejoin="round" fill="#FFFFFF"/>
        <path d="M 1.0728,16.5610 L 0.3204,16.5610 L 0.3204,17.6435 L 1.0728,17.6435 L 1.0728,16.5610 Z" stroke="#FF0000" stroke-width="0.1201" stroke-linecap="round" stroke-linejoin="round" fill="#FF0000"/>
        <path d="M 1.2399,20.6942 L 0.1533,20.6942 L 0.1533,22.0298 L 1.2399,22.0298 L 1.2399,20.6942 Z" stroke="#FFFFFF" stroke-width="0.1201" stroke-linecap="round" stroke-linejoin="round" fill="#FFFFFF"/>
        <path d="M 1.0728,20.8207 L 0.3204,20.8207 L 0.3204,21.9032 L 1.0728,21.9032 L 1.0728,20.8207 Z" stroke="#00FF00" stroke-width="0.1201" stroke-linecap="round" stroke-linejoin="round" fill="#00FF00"/>
        <path d="M 5.4613,23.4778 L 4.9319,23.4778 L 4.9319,24.0261 L 5.4613,24.0261 L 5.4613,23.4778 Z" stroke="#00FF00" stroke-width="0.1201" stroke-linecap="round" stroke-linejoin="round" fill="#00FF00"/>
        <path d="M 1.2399,24.9680 L 0.1533,24.9680 L 0.1533,26.3036 L 1.2399,26.3036 L 1.2399,24.9680 Z" stroke="#FFFFFF" stroke-width="0.1201" stroke-linecap="round" stroke-linejoin="round" fill="#FFFFFF"/>
        <path d="M 1.0728,25.0945 L 0.3204,25.0945 L 0.3204,26.1770 L 1.0728,26.1770 L 1.0728,25.0945 Z" stroke="#00FF00" stroke-width="0.1201" stroke-linecap="round" stroke-linejoin="round" fill="#00FF00"/>
        <path d="M 1.2399,36.3273 L 0.1533,36.3273 L 0.1533,37.6629 L 1.2399,37.6629 L 1.2399,36.3273 Z" stroke="#FFFFFF" stroke-width="0.1201" stroke-linecap="round" stroke-linejoin="round" fill="#FFFFFF"/>
        <path d="M 1.0728,36.4538 L 0.3204,36.4538 L 0.3204,37.5363 L 1.0728,37.5363 L 1.0728,36.4538 Z" stroke="#00FF00" stroke-width="0.1201" stroke-linecap="round" stroke-linejoin="round" fill="#00FF00"/>
        <path d="M 1.2399,41.5852 L 0.1533,41.5852 L 0.1533,42.9208 L 1.2399,42.9208 L 1.2399,41.5852 Z" stroke="#FFFFFF" stroke-width="0.1201" stroke-linecap="round" stroke-linejoin="round" fill="#FFFFFF"/>
        <path d="M 1.0728,41.7117 L 0.3204,41.7117 L 0.3204,42.7942 L 1.0728,42.7942 L 1.0728,41.7117 Z" stroke="#00FF00" stroke-width="0.1201" stroke-linecap="round" stroke-linejoin="round" fill="#00FF00"/>
        <path d="M 1.2399,46.7025 L 0.1533,46.7025 L 0.1533,48.0381 L 1.2399,48.0381 L 1.2399,46.7025 Z" stroke="#FFFFFF" stroke-width="0.1201" stroke-linecap="round" stroke-linejoin="round" fill="#FFFFFF"/>
        <path d="M 1.0728,46.8290 L 0.3204,46.8290 L 0.3204,47.9116 L 1.0728,47.9116 L 1.0728,46.8290 Z" stroke="#00FF00" stroke-width="0.1201" stroke-linecap="round" stroke-linejoin="round" fill="#00FF00"/>
        <path d="M 1.2399,51.9323 L 0.1533,51.9323 L 0.1533,53.2679 L 1.2399,53.2679 L 1.2399,51.9323 Z" stroke="#FFFFFF" stroke-width="0.1201" stroke-linecap="round" stroke-linejoin="round" fill="#FFFFFF"/>
        <path d="M 1.0728,52.0588 L 0.3204,52.0588 L 0.3204,53.1413 L 1.0728,53.1413 L 1.0728,52.0588 Z" stroke="#00FF00" stroke-width="0.1201" stroke-linecap="round" stroke-linejoin="round" fill="#00FF00"/>
        <path d="M 1.2399,57.3308 L 0.1533,57.3308 L 0.1533,58.6664 L 1.2399,58.6664 L 1.2399,57.3308 Z" stroke="#FFFFFF" stroke-width="0.1201" stroke-linecap="round" stroke-linejoin="round" fill="#FFFFFF"/>
        <path d="M 1.0728,57.4573 L 0.3204,57.4573 L 0.3204,58.5398 L 1.0728,58.5398 L 1.0728,57.4573 Z" stroke="#00FF00" stroke-width="0.1201" stroke-linecap="round" stroke-linejoin="round" fill="#00FF00"/>
        <path d="M 1.2399,61.4359 L 0.1533,61.4359 L 0.1533,62.7715 L 1.2399,62.7715 L 1.2399,61.4359 Z" stroke="#FFFFFF" stroke-width="0.1201" stroke-linecap="round" stroke-linejoin="round" fill="#FFFFFF"/>
        <path d="M 1.0728,61.5624 L 0.3204,61.5624 L 0.3204,62.6449 L 1.0728,62.6449 L 1.0728,61.5624 Z" stroke="#00FF00" stroke-width="0.1201" stroke-linecap="round" stroke-linejoin="round" fill="#00FF00"/>
        <path d="M 6.7736,83.3164 L 6.7736,83.3007 L 6.7809,83.2929 L 6.7809,83.2851 L 6.7883,83.2773 L 6.7956,83.2773 L 6.7956,83.2694 L 6.8029,83.2616 L 6.8102,83.2616 L 6.8175,83.2538 L 7.6670,83.2538 L 7.6743,83.2616 L 7.6816,83.2616 L 7.7036,83.2851 L 7.7036,83.2929 L 7.7109,83.3007 L 7.7109,84.3651 L 7.7036,84.3729 L 7.7036,84.3807 L 7.6963,84.3886 L 7.6963,84.3964 L 7.6890,84.3964 L 7.6816,84.4042 L 7.6743,84.4042 L 7.6670,84.4120 L 7.4986,84.4120 L 7.4986,84.4042 L 7.5059,84.4042 L 7.5059,84.3964 L 7.5132,84.3964 L 7.5132,84.3886 L 7.5205,84.3886 L 7.5205,84.3729 L 7.5279,84.3729 L 7.5279,83.5120 L 7.5205,83.5120 L 7.5205,83.4964 L 7.5132,83.4964 L 7.5132,83.4886 L 7.4986,83.4886 L 7.4986,83.4807 L 6.8029,83.4807 L 6.8029,83.4886 L 6.7883,83.4886 L 6.7883,83.4964 L 6.7809,83.4964 L 6.7809,83.5042 L 6.7736,83.5042 L 6.7736,83.3242 L 6.7736,83.3164 Z" stroke="#FFFFFF" stroke-width="0.1201" stroke-linecap="round" stroke-linejoin="round" fill="#FFFFFF"/>
        <path d="M 7.3155,84.3338 L 7.3155,83.5590 L 7.3228,83.5590 L 7.3228,83.5433 L 7.3301,83.5433 L 7.3301,83.5355 L 7.3448,83.5355 L 7.3448,83.5277 L 7.1617,83.5277 L 7.1617,83.5355 L 7.1471,83.5355 L 7.1471,83.5433 L 7.1398,83.5433 L 7.1398,83.5590 L 7.1324,83.5590 L 7.1324,84.3494 L 7.1471,84.3651 L 7.1471,84.3729 L 7.1617,84.3886 L 7.1690,84.3886 L 7.1764,84.3964 L 7.1837,84.3964 L 7.1910,84.4042 L 7.2057,84.4042 L 7.2130,84.4120 L 7.2349,84.4120 L 7.2423,84.4042 L 7.2642,84.4042 L 7.2789,84.3886 L 7.2862,84.3886 L 7.2935,84.3807 L 7.2935,84.3729 L 7.3009,84.3729 L 7.3009,84.3651 L 7.3082,84.3573 L 7.3082,84.3494 L 7.3155,84.3416 L 7.3155,84.3338 Z" stroke="#FFFFFF" stroke-width="0.1201" stroke-linecap="round" stroke-linejoin="round" fill="#FFFFFF"/>
        <path d="M 7.1324,86.1416 L 7.1324,86.1259 L 7.1398,86.1259 L 7.1398,86.1103 L 7.1471,86.1103 L 7.1471,86.1025 L 7.1617,86.1025 L 7.1617,86.0946 L 7.3448,86.0946 L 7.3448,86.1025 L 7.3301,86.1025 L 7.3301,86.1103 L 7.3228,86.1103 L 7.3228,86.1259 L 7.3155,86.1259 L 7.3155,86.7520 L 7.5279,86.7520 L 7.5279,86.0790 L 7.5205,86.0790 L 7.5205,86.0633 L 7.5132,86.0633 L 7.5132,86.0555 L 7.4986,86.0555 L 7.4986,86.0477 L 6.8029,86.0477 L 6.8029,86.0555 L 6.7883,86.0555 L 6.7883,86.0633 L 6.7809,86.0633 L 6.7809,86.0712 L 6.7736,86.0712 L 6.7736,85.8677 L 6.7809,85.8599 L 6.7809,85.8520 L 6.7883,85.8442 L 6.7956,85.8442 L 6.7956,85.8364 L 6.8029,85.8286 L 6.8102,85.8286 L 6.8175,85.8207 L 7.6670,85.8207 L 7.6743,85.8286 L 7.6816,85.8286 L 7.7036,85.8520 L 7.7036,85.8599 L 7.7109,85.8677 L 7.7109,86.9320 L 7.7036,86.9399 L 7.7036,86.9477 L 7.6963,86.9555 L 7.6963,86.9633 L 7.6890,86.9633 L 7.6816,86.9712 L 7.6743,86.9712 L 7.6670,86.9790 L 7.2057,86.9790 L 7.1983,86.9712 L 7.1837,86.9712 L 7.1837,86.9633 L 7.1764,86.9633 L 7.1690,86.9555 L 7.1617,86.9555 L 7.1617,86.9477 L 7.1544,86.9477 L 7.1544,86.9399 L 7.1471,86.9399 L 7.1471,86.9320 L 7.1398,86.9320 L 7.1398,86.9242 L 7.1324,86.9164 L 7.1251,86.9242 L 7.1251,86.9320 L 7.1178,86.9320 L 7.1178,86.9399 L 7.1105,86.9399 L 7.1105,86.9477 L 7.1031,86.9477 L 7.1031,86.9555 L 7.0958,86.9555 L 7.0885,86.9633 L 7.0812,86.9633 L 7.0812,86.9712 L 7.0665,86.9712 L 7.0592,86.9790 L 6.8029,86.9790 L 6.8029,86.9868 L 6.7883,86.9868 L 6.7883,86.9946 L 6.7809,86.9946 L 6.7809,87.0025 L 6.7736,87.0025 L 6.7736,86.7990 L 6.7809,86.7912 L 6.7809,86.7833 L 6.7883,86.7755 L 6.7956,86.7755 L 6.7956,86.7677 L 6.8029,86.7599 L 6.8102,86.7599 L 6.8175,86.7520 L 7.1324,86.7520 L 7.1324,86.1494 L 7.1324,86.1416 Z" stroke="#FFFFFF" stroke-width="0.1201" stroke-linecap="round" stroke-linejoin="round" fill="#FFFFFF"/>
        <path d="M 7.5279,87.3859 L 7.5279,87.1512 L 7.5352,87.1433 L 7.5352,87.1355 L 7.5425,87.1277 L 7.5498,87.1277 L 7.5498,87.1199 L 7.5572,87.1120 L 7.5645,87.1120 L 7.5718,87.1042 L 7.6670,87.1042 L 7.6743,87.1120 L 7.6816,87.1120 L 7.7036,87.1355 L 7.7036,87.1433 L 7.7109,87.1512 L 7.7109,88.2155 L 7.7036,88.2233 L 7.7036,88.2312 L 7.6963,88.2390 L 7.6963,88.2468 L 7.6890,88.2468 L 7.6816,88.2546 L 7.6743,88.2546 L 7.6670,88.2625 L 7.4986,88.2625 L 7.4986,88.2546 L 7.5059,88.2546 L 7.5059,88.2468 L 7.5132,88.2468 L 7.5132,88.2390 L 7.5205,88.2390 L 7.5205,88.2233 L 7.5279,88.2233 L 7.5279,87.6442 L 7.5205,87.6442 L 7.5205,87.6285 L 7.5132,87.6285 L 7.5132,87.6207 L 7.4986,87.6207 L 7.4986,87.6129 L 6.8029,87.6129 L 6.8029,87.6207 L 6.7883,87.6207 L 6.7883,87.6285 L 6.7809,87.6285 L 6.7809,87.6364 L 6.7736,87.6364 L 6.7736,87.4329 L 6.7809,87.4251 L 6.7809,87.4172 L 6.7883,87.4094 L 6.7956,87.4094 L 6.7956,87.4016 L 6.8029,87.3938 L 6.8102,87.3938 L 6.8175,87.3859 L 7.5059,87.3859 L 7.5279,87.3859 Z" stroke="#FFFFFF" stroke-width="0.1201" stroke-linecap="round" stroke-linejoin="round" fill="#FFFFFF"/>
        <path d="M 6.8249,88.6146 L 6.8029,88.6146 L 6.8029,88.6225 L 6.7883,88.6225 L 6.7883,88.6303 L 6.7809,88.6303 L 6.7809,88.6381 L 6.7736,88.6381 L 6.7736,88.4346 L 6.7809,88.4268 L 6.7809,88.4190 L 6.7883,88.4112 L 6.7956,88.4112 L 6.7956,88.4033 L 6.8029,88.3955 L 6.8102,88.3955 L 6.8175,88.3877 L 7.6816,88.3877 L 7.6816,88.3799 L 7.6963,88.3799 L 7.6963,88.3720 L 7.7036,88.3720 L 7.7036,88.3642 L 7.7109,88.3642 L 7.7109,88.5677 L 7.7036,88.5755 L 7.7036,88.5833 L 7.6963,88.5912 L 7.6963,88.5990 L 7.6890,88.5990 L 7.6816,88.6068 L 7.6743,88.6068 L 7.6670,88.6146 L 6.8322,88.6146 L 6.8249,88.6146 Z" stroke="#FFFFFF" stroke-width="0.1201" stroke-linecap="round" stroke-linejoin="round" fill="#FFFFFF"/>
        <path d="M 7.5279,89.7259 L 7.5279,89.0529 L 7.5205,89.0529 L 7.5205,89.0372 L 7.5132,89.0372 L 7.5132,89.0294 L 7.4986,89.0294 L 7.4986,89.0216 L 6.8029,89.0216 L 6.8029,89.0294 L 6.7883,89.0294 L 6.7883,89.0372 L 6.7809,89.0372 L 6.7809,89.0451 L 6.7736,89.0451 L 6.7736,88.8416 L 6.7809,88.8338 L 6.7809,88.8259 L 6.7883,88.8181 L 6.7956,88.8181 L 6.7956,88.8103 L 6.8029,88.8025 L 6.8102,88.8025 L 6.8175,88.7946 L 7.6670,88.7946 L 7.6743,88.8025 L 7.6816,88.8025 L 7.7036,88.8259 L 7.7036,88.8338 L 7.7109,88.8416 L 7.7109,89.9059 L 7.7036,89.9138 L 7.7036,89.9216 L 7.6963,89.9294 L 7.6963,89.9372 L 7.6890,89.9372 L 7.6816,89.9451 L 7.6743,89.9451 L 7.6670,89.9529 L 6.8029,89.9529 L 6.8029,89.9607 L 6.7883,89.9607 L 6.7883,89.9685 L 6.7809,89.9685 L 6.7809,89.9764 L 6.7736,89.9764 L 6.7736,89.7729 L 6.7809,89.7651 L 6.7809,89.7572 L 6.7883,89.7494 L 6.7956,89.7494 L 6.7956,89.7416 L 6.8029,89.7338 L 6.8102,89.7338 L 6.8175,89.7259 L 7.5059,89.7259 L 7.5279,89.7259 Z" stroke="#FFFFFF" stroke-width="0.1201" stroke-linecap="round" stroke-linejoin="round" fill="#FFFFFF"/>
        <path d="M 7.3155,91.1033 L 7.3155,90.3833 L 7.3228,90.3755 L 7.3228,90.3677 L 7.3301,90.3677 L 7.3301,90.3598 L 7.3448,90.3598 L 7.3448,90.3520 L 7.1617,90.3520 L 7.1617,90.3598 L 7.1471,90.3598 L 7.1471,90.3677 L 7.1398,90.3677 L 7.1398,90.3755 L 7.1324,90.3833 L 7.1324,91.1112 L 7.1471,91.1268 L 7.1471,91.1346 L 7.1617,91.1503 L 7.1690,91.1503 L 7.1764,91.1581 L 7.1837,91.1581 L 7.1910,91.1659 L 7.2057,91.1659 L 7.2130,91.1738 L 7.2423,91.1738 L 7.2496,91.1659 L 7.2716,91.1659 L 7.2716,91.1581 L 7.2789,91.1581 L 7.3009,91.1346 L 7.3009,91.1268 L 7.3082,91.1268 L 7.3082,91.1190 L 7.3155,91.1112 L 7.3155,91.1033 Z" stroke="#FFFFFF" stroke-width="0.1201" stroke-linecap="round" stroke-linejoin="round" fill="#FFFFFF"/>
        <path d="M 7.5279,91.6433 L 7.5279,91.4085 L 7.5352,91.4007 L 7.5352,91.3929 L 7.5425,91.3851 L 7.5498,91.3851 L 7.5498,91.3772 L 7.5572,91.3694 L 7.5645,91.3694 L 7.5718,91.3616 L 7.6670,91.3616 L 7.6743,91.3694 L 7.6816,91.3694 L 7.7036,91.3929 L 7.7036,91.4007 L 7.7109,91.4085 L 7.7109,92.4729 L 7.7036,92.4807 L 7.7036,92.4885 L 7.6963,92.4964 L 7.6963,92.5042 L 7.6890,92.5042 L 7.6816,92.5120 L 7.6743,92.5120 L 7.6670,92.5198 L 7.4986,92.5198 L 7.4986,92.5120 L 7.5059,92.5120 L 7.5059,92.5042 L 7.5132,92.5042 L 7.5132,92.4964 L 7.5205,92.4964 L 7.5205,92.4807 L 7.5279,92.4807 L 7.5279,91.9016 L 7.5205,91.9016 L 7.5205,91.8859 L 7.5132,91.8859 L 7.5132,91.8781 L 7.4986,91.8781 L 7.4986,91.8703 L 6.8029,91.8703 L 6.8029,91.8781 L 6.7883,91.8781 L 6.7883,91.8859 L 6.7809,91.8859 L 6.7809,91.8938 L 6.7736,91.8938 L 6.7736,91.6903 L 6.7809,91.6825 L 6.7809,91.6746 L 6.7883,91.6668 L 6.7956,91.6668 L 6.7956,91.6590 L 6.8029,91.6512 L 6.8102,91.6512 L 6.8175,91.6433 L 7.5059,91.6433 L 7.5279,91.6433 Z" stroke="#FFFFFF" stroke-width="0.1201" stroke-linecap="round" stroke-linejoin="round" fill="#FFFFFF"/>
        <path d="M 6.9567,91.1816 L 6.9567,91.1972 L 6.9640,91.1972 L 6.9640,91.2129 L 6.9713,91.2129 L 6.9713,91.2207 L 6.9787,91.2207 L 6.9787,91.2285 L 6.9860,91.2285 L 6.9860,91.2364 L 6.8175,91.2364 L 6.8102,91.2285 L 6.8029,91.2285 L 6.7809,91.2051 L 6.7809,91.1972 L 6.7736,91.1894 L 6.7736,90.1251 L 6.7809,90.1172 L 6.7809,90.1094 L 6.7883,90.1016 L 6.7956,90.1016 L 6.7956,90.0938 L 6.8029,90.0859 L 6.8102,90.0859 L 6.8175,90.0781 L 7.6670,90.0781 L 7.6743,90.0859 L 7.6816,90.0859 L 7.7036,90.1094 L 7.7036,90.1172 L 7.7109,90.1251 L 7.7109,91.1894 L 7.7036,91.1972 L 7.7036,91.2051 L 7.6963,91.2129 L 7.6963,91.2207 L 7.6890,91.2207 L 7.6816,91.2285 L 7.6743,91.2285 L 7.6670,91.2364 L 7.4986,91.2364 L 7.4986,91.2285 L 7.5059,91.2285 L 7.5059,91.2207 L 7.5132,91.2207 L 7.5132,91.2129 L 7.5205,91.2129 L 7.5205,91.1972 L 7.5279,91.1972 L 7.5279,90.3364 L 7.5205,90.3364 L 7.5205,90.3207 L 7.5132,90.3207 L 7.5132,90.3129 L 7.4986,90.3129 L 7.4986,90.3051 L 6.9567,90.3051 L 6.9567,91.1738 L 6.9567,91.1816 Z" stroke="#FFFFFF" stroke-width="0.1201" stroke-linecap="round" stroke-linejoin="round" fill="#FFFFFF"/>
        <path d="M 7.0446,84.9286 L 6.7736,84.9286 L 6.7736,85.3042 L 7.0446,85.3042 L 7.0446,84.9286 Z" stroke="#FFFFFF" stroke-width="0.1201" stroke-linecap="round" stroke-linejoin="round" fill="#FFFFFF"/>
        <path d="M 7.3741,84.5373 L 7.3741,84.8581 L 7.1105,84.8581 L 7.1105,84.5373 L 7.3741,84.5373 Z" stroke="#FFFFFF" stroke-width="0.1201" stroke-linecap="round" stroke-linejoin="round" fill="#FFFFFF"/>
        <path d="M 7.0446,85.3746 L 6.7736,85.3746 L 6.7736,85.4920 L 6.7809,85.4999 L 6.7809,85.5312 L 6.7883,85.5390 L 6.7883,85.5546 L 6.7956,85.5703 L 6.8029,85.5781 L 6.8102,85.5938 L 6.8249,85.6094 L 6.8322,85.6251 L 6.8395,85.6329 L 6.8542,85.6407 L 6.8615,85.6486 L 6.9201,85.6799 L 6.9347,85.6799 L 6.9567,85.6877 L 6.9787,85.6877 L 7.0006,85.6955 L 7.0446,85.6955 L 7.0446,85.3825 L 7.0446,85.3746 Z" stroke="#FFFFFF" stroke-width="0.1201" stroke-linecap="round" stroke-linejoin="round" fill="#FFFFFF"/>
        <path d="M 7.3741,85.3746 L 7.3741,85.6955 L 7.1105,85.6955 L 7.1105,85.3746 L 7.3741,85.3746 Z" stroke="#FFFFFF" stroke-width="0.1201" stroke-linecap="round" stroke-linejoin="round" fill="#FFFFFF"/>
        <path d="M 7.0446,84.8581 L 6.7736,84.8581 L 6.7736,84.7407 L 6.7809,84.7329 L 6.7809,84.7016 L 6.7883,84.6938 L 6.7883,84.6781 L 6.7956,84.6625 L 6.8029,84.6546 L 6.8102,84.6390 L 6.8249,84.6233 L 6.8322,84.6077 L 6.8395,84.5999 L 6.8542,84.5920 L 6.8615,84.5842 L 6.9201,84.5529 L 6.9347,84.5529 L 6.9567,84.5451 L 6.9787,84.5451 L 7.0006,84.5373 L 7.0446,84.5373 L 7.0446,84.8503 L 7.0446,84.8581 Z" stroke="#FFFFFF" stroke-width="0.1201" stroke-linecap="round" stroke-linejoin="round" fill="#FFFFFF"/>
        <path d="M 7.7109,84.9286 L 7.4400,84.9286 L 7.4400,85.3042 L 7.7109,85.3042 L 7.7109,84.9286 Z" stroke="#FFFFFF" stroke-width="0.1201" stroke-linecap="round" stroke-linejoin="round" fill="#FFFFFF"/>
        <path d="M 7.4400,85.3746 L 7.7109,85.3746 L 7.7109,85.4920 L 7.7036,85.4999 L 7.7036,85.5312 L 7.6963,85.5390 L 7.6963,85.5546 L 7.6890,85.5703 L 7.6816,85.5781 L 7.6743,85.5938 L 7.6597,85.6094 L 7.6523,85.6251 L 7.6450,85.6329 L 7.6304,85.6407 L 7.6231,85.6486 L 7.5645,85.6799 L 7.5498,85.6799 L 7.5279,85.6877 L 7.5059,85.6877 L 7.4839,85.6955 L 7.4400,85.6955 L 7.4400,85.3825 L 7.4400,85.3746 Z" stroke="#FFFFFF" stroke-width="0.1201" stroke-linecap="round" stroke-linejoin="round" fill="#FFFFFF"/>
        <path d="M 7.4400,84.8581 L 7.7109,84.8581 L 7.7109,84.7407 L 7.7036,84.7329 L 7.7036,84.7016 L 7.6963,84.6938 L 7.6963,84.6781 L 7.6890,84.6625 L 7.6816,84.6546 L 7.6743,84.6390 L 7.6597,84.6233 L 7.6523,84.6077 L 7.6450,84.5999 L 7.6304,84.5920 L 7.6231,84.5842 L 7.5645,84.5529 L 7.5498,84.5529 L 7.5279,84.5451 L 7.5059,84.5451 L 7.4839,84.5373 L 7.4400,84.5373 L 7.4400,84.8503 L 7.4400,84.8581 Z" stroke="#FFFFFF" stroke-width="0.1201" stroke-linecap="round" stroke-linejoin="round" fill="#FFFFFF"/>
        <text font-family="Arial" fill="#FFFFFF" transform="rotate(-270, 8.0551, 87.3176) translate(0, 0.0725)" style="white-space:pre;" font-weight="400" text-anchor="start" x="8.0551" y="87.3176" font-size="0.0806"><![CDATA[USB]]></text>
        <text font-family="Arial" fill="#FFFFFF" transform="rotate(-270, 7.8647, 91.5815) translate(0, 0.0791)" style="white-space:pre;" font-weight="400" text-anchor="start" x="7.8647" y="91.5815" font-size="0.0879"><![CDATA[5]]></text>
        <text font-family="Arial" fill="#FFFFFF" transform="rotate(-270, 7.8647, 92.1528) translate(0, 0.0791)" style="white-space:pre;" font-weight="400" text-anchor="start" x="7.8647" y="92.1528" font-size="0.0879"><![CDATA[6]]></text>
        <text font-family="Arial" fill="#FFFFFF" transform="rotate(-270, 8.0551, 91.7928) translate(0, 0.0791)" style="white-space:pre;" font-weight="400" text-anchor="start" x="8.0551" y="91.7928" font-size="0.0879"><![CDATA[SFP+]]></text>
        <text font-family="Arial" fill="#FFFFFF" transform="rotate(-270, 7.6157, 95.5415) translate(0, 0.0791)" style="white-space:pre;" font-weight="400" text-anchor="start" x="7.6157" y="95.5415" font-size="0.0879"><![CDATA[IPM]]></text>
        <text font-family="Arial" fill="#FFFFFF" transform="rotate(-270, 8.0405, 95.2495) translate(0, 0.0923)" style="white-space:pre;" font-weight="700" text-anchor="start" x="8.0405" y="95.2495" font-size="0.1025"><![CDATA[FortiController 5903C]]></text>
        <path d="M 5.4137,33.6776 L 5.4137,29.5324 L 1.5141,29.5324 L 1.5141,33.6776 L 5.4137,33.6776 Z" stroke="#0A0A0A" stroke-width="0.1201" stroke-linecap="round" stroke-linejoin="round" fill="#FFFFFF"/>
        <text font-family="Arial" fill="#FFFFFF" transform="rotate(-270, 3.3550, 40.4842) translate(0, 0.1078)" style="white-space:pre;" font-weight="400" text-anchor="start" x="3.3550" y="40.4842" font-size="0.1198"><![CDATA[MGMT]]></text>
        <text font-family="Arial" fill="#FFFFFF" transform="rotate(-270, 3.4203, 34.5550) translate(0, 0.1078)" style="white-space:pre;" font-weight="400" text-anchor="start" x="3.4203" y="34.5550" font-size="0.1198"><![CDATA[CONSOLE]]></text>
        <path d="M 3.3489,10.6713 L 3.3489,9.6746 L 2.3560,9.6746 L 2.3560,10.6713 L 3.3489,10.6713 Z" stroke="#000000" stroke-width="0.1201" stroke-linecap="round" stroke-linejoin="round" fill="#000000"/>
        <path d="M 3.2780,10.6001 L 3.2780,9.7458 L 2.4269,9.7458 L 2.4269,10.6001 L 3.2780,10.6001 Z" stroke="#000000" stroke-width="0.1201" stroke-linecap="round" stroke-linejoin="round" fill="#494949"/>
        <text font-family="Arial" fill="#FFFFFF" transform="rotate(-270, 3.8138, 22.8953) translate(0, 0.0496)" style="white-space:pre;" font-weight="400" text-anchor="start" x="3.8138" y="22.8953" font-size="0.0552"><![CDATA[®]]></text>
        <text font-family="Arial" fill="#FFFFFF" transform="rotate(-270, 2.9628, 12.4834) translate(0, 0.0638)" style="white-space:pre;" font-weight="400" text-anchor="start" x="2.9628" y="12.4834" font-size="0.0709"><![CDATA[OOS]]></text>
        <text font-family="Arial" fill="#FFFFFF" transform="rotate(-270, 2.9549, 13.0846) translate(0, 0.0638)" style="white-space:pre;" font-weight="400" text-anchor="start" x="2.9549" y="13.0846" font-size="0.0709"><![CDATA[PWR]]></text>
        <text font-family="Arial" fill="#FFFFFF" transform="rotate(-270, 2.9628, 13.6937) translate(0, 0.0638)" style="white-space:pre;" font-weight="400" text-anchor="start" x="2.9628" y="13.6937" font-size="0.0709"><![CDATA[STA]]></text>
        <ellipse cx="2.9778" cy="91.9686" rx="1.1804" ry="1.1850" fill="#BFBFBF" stroke="#000000" stroke-width="0.1201" stroke-linecap="round" stroke-linejoin="round"/>
        <ellipse cx="2.9778" cy="91.9686" rx="1.1804" ry="1.1850" fill="none" stroke="#000000" stroke-width="0.1201" stroke-linecap="round" stroke-linejoin="round"/>
        <ellipse cx="2.9643" cy="91.9686" rx="0.8719" ry="0.8887" fill="#666666" stroke="#000000" stroke-width="0.1201" stroke-linecap="round" stroke-linejoin="round"/>
        <ellipse cx="2.9643" cy="91.9686" rx="0.8719" ry="0.8887" fill="none" stroke="#000000" stroke-width="0.1201" stroke-linecap="round" stroke-linejoin="round"/>
        <ellipse cx="2.9778" cy="91.9686" rx="0.8048" ry="0.8079" fill="#E2E2E2" stroke="#000000" stroke-width="0.1201" stroke-linecap="round" stroke-linejoin="round"/>
        <ellipse cx="2.9778" cy="91.9686" rx="0.8048" ry="0.8079" fill="none" stroke="#E2E2E2" stroke-width="0.1201" stroke-linecap="round" stroke-linejoin="round"/>
        <path d="M 3.1655,91.3492 L 3.1655,91.3222 L 3.1387,91.2953 L 3.1119,91.2953 L 3.1119,91.2684 L 2.9509,91.2684 L 2.9509,91.2953 L 2.9241,91.2953 L 2.8973,91.3222 L 2.8973,91.8878 L 2.3071,91.8878 L 2.3071,91.9147 L 2.2803,91.9147 L 2.2803,91.9416 L 2.2534,91.9416 L 2.2534,92.1032 L 2.2803,92.1032 L 2.2803,92.1302 L 2.3071,92.1302 L 2.3071,92.1571 L 2.8973,92.1571 L 2.8973,92.7496 L 2.9241,92.7496 L 2.9241,92.7765 L 2.9509,92.7765 L 2.9509,92.8034 L 3.1119,92.8034 L 3.1119,92.7765 L 3.1387,92.7765 L 3.1387,92.7496 L 3.1655,92.7496 L 3.1655,92.1571 L 3.7289,92.1571 L 3.7557,92.1302 L 3.7557,92.1032 L 3.7826,92.1032 L 3.7826,91.9416 L 3.7557,91.9416 L 3.7557,91.9147 L 3.7289,91.8878 L 3.1655,91.8878 L 3.1655,91.3761 L 3.1655,91.3492 Z" stroke="#161616" stroke-width="0.1201" stroke-linecap="round" stroke-linejoin="round" fill="#494949"/>
        <path d="M 3.0851,91.2414 L 2.9509,91.2414 L 2.9241,91.2684 L 2.9241,91.2953 L 2.8973,91.2953 L 2.8973,91.8878 L 2.2803,91.8878 L 2.2534,91.9147 L 2.2534,91.9416 L 2.2266,91.9416 L 2.2266,92.0224 L 2.2266,92.0494 " stroke="#BFBFBF" stroke-width="0.1201" stroke-linecap="round" stroke-linejoin="round" fill="none"/>
        <path d="M 3.7289,91.8878 L 3.1924,91.8878 L 3.1655,91.8878 " stroke="#BFBFBF" stroke-width="0.1201" stroke-linecap="round" stroke-linejoin="round" fill="none"/>
        <ellipse cx="3.0314" cy="1.7370" rx="1.1804" ry="1.1715" fill="#BFBFBF" stroke="#000000" stroke-width="0.1201" stroke-linecap="round" stroke-linejoin="round"/>
        <ellipse cx="3.0314" cy="1.7370" rx="1.1804" ry="1.1715" fill="none" stroke="#000000" stroke-width="0.1201" stroke-linecap="round" stroke-linejoin="round"/>
        <ellipse cx="3.0314" cy="1.7505" rx="0.8853" ry="0.8887" fill="#666666" stroke="#000000" stroke-width="0.1201" stroke-linecap="round" stroke-linejoin="round"/>
        <ellipse cx="3.0314" cy="1.7505" rx="0.8853" ry="0.8887" fill="none" stroke="#000000" stroke-width="0.1201" stroke-linecap="round" stroke-linejoin="round"/>
        <ellipse cx="3.0314" cy="1.7505" rx="0.8048" ry="0.8079" fill="#E2E2E2" stroke="#000000" stroke-width="0.1201" stroke-linecap="round" stroke-linejoin="round"/>
        <ellipse cx="3.0314" cy="1.7505" rx="0.8048" ry="0.8079" fill="none" stroke="#E2E2E2" stroke-width="0.1201" stroke-linecap="round" stroke-linejoin="round"/>
        <path d="M 3.2192,1.1311 L 3.2192,1.1042 L 3.1924,1.0772 L 3.1655,1.0772 L 3.1655,1.0503 L 3.0046,1.0503 L 3.0046,1.0772 L 2.9778,1.0772 L 2.9509,1.1042 L 2.9509,1.6697 L 2.3607,1.6697 L 2.3607,1.6966 L 2.3339,1.6966 L 2.3339,1.7236 L 2.3071,1.7236 L 2.3071,1.8852 L 2.3339,1.8852 L 2.3339,1.9121 L 2.3607,1.9121 L 2.3607,1.9390 L 2.9509,1.9390 L 2.9509,2.5315 L 2.9778,2.5315 L 2.9778,2.5584 L 3.0046,2.5584 L 3.0046,2.5854 L 3.1655,2.5854 L 3.1655,2.5584 L 3.1924,2.5584 L 3.1924,2.5315 L 3.2192,2.5315 L 3.2192,1.9390 L 3.7826,1.9390 L 3.8094,1.9121 L 3.8094,1.8852 L 3.8362,1.8852 L 3.8362,1.7236 L 3.8094,1.7236 L 3.8094,1.6966 L 3.7826,1.6697 L 3.2192,1.6697 L 3.2192,1.1580 L 3.2192,1.1311 Z" stroke="#161616" stroke-width="0.1201" stroke-linecap="round" stroke-linejoin="round" fill="#494949"/>
        <path d="M 3.1387,1.0234 L 3.0046,1.0234 L 2.9778,1.0503 L 2.9778,1.0772 L 2.9509,1.0772 L 2.9509,1.6697 L 2.3339,1.6697 L 2.3071,1.6966 L 2.3071,1.7236 L 2.2803,1.7236 L 2.2803,1.8044 L 2.2803,1.8313 " stroke="#BFBFBF" stroke-width="0.1201" stroke-linecap="round" stroke-linejoin="round" fill="none"/>
        <path d="M 3.7826,1.6697 L 3.2460,1.6697 L 3.2192,1.6697 " stroke="#BFBFBF" stroke-width="0.1201" stroke-linecap="round" stroke-linejoin="round" fill="none"/>
        <path d="M 5.3049,66.7642 L 1.5123,66.7642 L 1.5123,71.4627 L 5.3049,71.4627 L 5.3049,66.7642 Z" stroke="#0A0A0A" stroke-width="0.1201" stroke-linecap="round" stroke-linejoin="round" fill="#FFFFFF"/>
        <text font-family="Arial" fill="#FFFFFF" transform="rotate(-270, 2.7125, 76.9827) translate(0, 0.0864)" style="white-space:pre;" font-weight="400" text-anchor="start" x="2.7125" y="76.9827" font-size="0.0960"><![CDATA[2]]></text>
        <text font-family="Arial" fill="#FFFFFF" transform="rotate(-270, 2.9205, 77.4158) translate(0, 0.0864)" style="white-space:pre;" font-weight="400" text-anchor="start" x="2.9205" y="77.4158" font-size="0.0960"><![CDATA[QSFP+]]></text>
        <text font-family="Arial" fill="#FFFFFF" transform="rotate(-270, 2.7125, 75.8015) translate(0, 0.0864)" style="white-space:pre;" font-weight="400" text-anchor="start" x="2.7125" y="75.8015" font-size="0.0960"><![CDATA[1]]></text>
        <path d="M 2.0315,87.4449 L 2.0860,87.4449 L 2.1404,87.4256 L 2.1948,87.3868 L 2.2674,87.3092 L 2.3036,87.2510 L 2.3218,87.1928 L 2.3218,86.6108 L 2.3036,86.5527 L 2.2674,86.4945 L 2.1948,86.4169 L 2.1404,86.3781 L 2.0860,86.3587 L 1.9771,86.3587 L 1.9227,86.3781 L 1.8683,86.4169 L 1.7957,86.4945 L 1.7595,86.5527 L 1.7413,86.6108 L 1.7413,87.1928 L 1.7595,87.2510 L 1.7957,87.3092 L 1.8683,87.3868 L 1.9227,87.4256 L 1.9771,87.4449 L 2.0315,87.4449 Z" stroke="#00FFFF" stroke-width="0.1201" stroke-linecap="round" stroke-linejoin="round" fill="#00FFFF"/>
        <ellipse cx="2.3799" cy="22.7631" rx="0.4235" ry="0.4253" fill="#00FF00" stroke="#000000" stroke-width="0.1201" stroke-linecap="round" stroke-linejoin="round"/>
        <ellipse cx="2.3799" cy="22.7631" rx="0.4235" ry="0.4253" fill="none" stroke="#000000" stroke-width="0.1201" stroke-linecap="round" stroke-linejoin="round"/>
        <ellipse cx="3.8321" cy="22.7631" rx="0.4235" ry="0.4253" fill="#00FF00" stroke="#000000" stroke-width="0.1201" stroke-linecap="round" stroke-linejoin="round"/>
        <ellipse cx="3.8321" cy="22.7631" rx="0.4235" ry="0.4253" fill="none" stroke="#000000" stroke-width="0.1201" stroke-linecap="round" stroke-linejoin="round"/>
        <ellipse cx="6.6333" cy="22.8132" rx="0.3670" ry="0.3690" fill="#00FF00" stroke="#000000" stroke-width="0.1201" stroke-linecap="round" stroke-linejoin="round"/>
        <ellipse cx="6.6333" cy="22.8132" rx="0.3670" ry="0.3690" fill="none" stroke="#000000" stroke-width="0.1201" stroke-linecap="round" stroke-linejoin="round"/>
        <text font-family="Arial" fill="#FFFFFF" transform="rotate(-270, 9.5069, 30.2927) translate(0, 0.1450)" style="white-space:pre;" font-weight="400" text-anchor="start" x="9.5069" y="30.2927" font-size="0.1611"><![CDATA[14]]></text>
        <ellipse cx="2.3902" cy="21.3554" rx="0.3670" ry="0.3690" fill="#00FF00" stroke="#000000" stroke-width="0.1201" stroke-linecap="round" stroke-linejoin="round"/>
        <ellipse cx="2.3902" cy="21.3554" rx="0.3670" ry="0.3690" fill="none" stroke="#000000" stroke-width="0.1201" stroke-linecap="round" stroke-linejoin="round"/>
        <ellipse cx="3.8404" cy="21.3554" rx="0.3670" ry="0.3690" fill="#00FF00" stroke="#000000" stroke-width="0.1201" stroke-linecap="round" stroke-linejoin="round"/>
        <ellipse cx="3.8404" cy="21.3554" rx="0.3670" ry="0.3690" fill="none" stroke="#000000" stroke-width="0.1201" stroke-linecap="round" stroke-linejoin="round"/>
        <ellipse cx="6.6333" cy="21.4094" rx="0.3670" ry="0.3690" fill="#00FF00" stroke="#000000" stroke-width="0.1201" stroke-linecap="round" stroke-linejoin="round"/>
        <ellipse cx="6.6333" cy="21.4094" rx="0.3670" ry="0.3690" fill="none" stroke="#000000" stroke-width="0.1201" stroke-linecap="round" stroke-linejoin="round"/>
        <ellipse cx="5.2368" cy="21.4094" rx="0.3670" ry="0.3690" fill="#00FF00" stroke="#000000" stroke-width="0.1201" stroke-linecap="round" stroke-linejoin="round"/>
        <ellipse cx="5.2368" cy="21.4094" rx="0.3670" ry="0.3690" fill="none" stroke="#000000" stroke-width="0.1201" stroke-linecap="round" stroke-linejoin="round"/>
        <text font-family="Arial" fill="#FFFFFF" transform="rotate(-270, 8.1104, 28.4388) translate(0, 0.1450)" style="white-space:pre;" font-weight="400" text-anchor="start" x="8.1104" y="28.4388" font-size="0.1611"><![CDATA[10]]></text>
        <text font-family="Arial" fill="#FFFFFF" transform="rotate(-270, 7.6628, 28.4388) translate(0, 0.1450)" style="white-space:pre;" font-weight="400" text-anchor="start" x="7.6628" y="28.4388" font-size="0.1611"><![CDATA[11]]></text>
        <text font-family="Arial" fill="#FFFFFF" transform="rotate(-270, 7.2152, 28.4209) translate(0, 0.1450)" style="white-space:pre;" font-weight="400" text-anchor="start" x="7.2152" y="28.4209" font-size="0.1611"><![CDATA[12]]></text>
        <text font-family="Arial" fill="#FFFFFF" transform="rotate(-270, 6.7497, 28.4209) translate(0, 0.1450)" style="white-space:pre;" font-weight="400" text-anchor="start" x="6.7497" y="28.4209" font-size="0.1611"><![CDATA[13]]></text>
        <ellipse cx="2.3902" cy="20.0595" rx="0.3670" ry="0.3690" fill="#00FF00" stroke="#000000" stroke-width="0.1201" stroke-linecap="round" stroke-linejoin="round"/>
        <ellipse cx="2.3902" cy="20.0595" rx="0.3670" ry="0.3690" fill="none" stroke="#000000" stroke-width="0.1201" stroke-linecap="round" stroke-linejoin="round"/>
        <ellipse cx="3.8404" cy="20.0595" rx="0.3670" ry="0.3690" fill="#00FF00" stroke="#000000" stroke-width="0.1201" stroke-linecap="round" stroke-linejoin="round"/>
        <ellipse cx="3.8404" cy="20.0595" rx="0.3670" ry="0.3690" fill="none" stroke="#000000" stroke-width="0.1201" stroke-linecap="round" stroke-linejoin="round"/>
        <ellipse cx="6.6333" cy="20.1135" rx="0.3670" ry="0.3690" fill="#00FF00" stroke="#000000" stroke-width="0.1201" stroke-linecap="round" stroke-linejoin="round"/>
        <ellipse cx="6.6333" cy="20.1135" rx="0.3670" ry="0.3690" fill="none" stroke="#000000" stroke-width="0.1201" stroke-linecap="round" stroke-linejoin="round"/>
        <ellipse cx="5.2368" cy="20.1135" rx="0.3670" ry="0.3690" fill="#00FF00" stroke="#000000" stroke-width="0.1201" stroke-linecap="round" stroke-linejoin="round"/>
        <ellipse cx="5.2368" cy="20.1135" rx="0.3670" ry="0.3690" fill="none" stroke="#000000" stroke-width="0.1201" stroke-linecap="round" stroke-linejoin="round"/>
        <text font-family="Arial" fill="#FFFFFF" transform="rotate(-270, 8.1104, 26.7650) translate(0, 0.1450)" style="white-space:pre;" font-weight="400" text-anchor="start" x="8.1104" y="26.7650" font-size="0.1611"><![CDATA[6]]></text>
        <text font-family="Arial" fill="#FFFFFF" transform="rotate(-270, 7.6628, 26.7650) translate(0, 0.1450)" style="white-space:pre;" font-weight="400" text-anchor="start" x="7.6628" y="26.7650" font-size="0.1611"><![CDATA[7]]></text>
        <text font-family="Arial" fill="#FFFFFF" transform="rotate(-270, 7.2152, 26.7470) translate(0, 0.1450)" style="white-space:pre;" font-weight="400" text-anchor="start" x="7.2152" y="26.7470" font-size="0.1611"><![CDATA[8]]></text>
        <text font-family="Arial" fill="#FFFFFF" transform="rotate(-270, 6.7497, 26.7470) translate(0, 0.1450)" style="white-space:pre;" font-weight="400" text-anchor="start" x="6.7497" y="26.7470" font-size="0.1611"><![CDATA[9]]></text>
        <ellipse cx="2.3902" cy="18.7636" rx="0.3670" ry="0.3690" fill="#00FF00" stroke="#000000" stroke-width="0.1201" stroke-linecap="round" stroke-linejoin="round"/>
        <ellipse cx="2.3902" cy="18.7636" rx="0.3670" ry="0.3690" fill="none" stroke="#000000" stroke-width="0.1201" stroke-linecap="round" stroke-linejoin="round"/>
        <ellipse cx="3.8404" cy="18.7636" rx="0.3670" ry="0.3690" fill="#00FF00" stroke="#000000" stroke-width="0.1201" stroke-linecap="round" stroke-linejoin="round"/>
        <ellipse cx="3.8404" cy="18.7636" rx="0.3670" ry="0.3690" fill="none" stroke="#000000" stroke-width="0.1201" stroke-linecap="round" stroke-linejoin="round"/>
        <ellipse cx="6.6333" cy="18.8176" rx="0.3670" ry="0.3690" fill="#00FF00" stroke="#000000" stroke-width="0.1201" stroke-linecap="round" stroke-linejoin="round"/>
        <ellipse cx="6.6333" cy="18.8176" rx="0.3670" ry="0.3690" fill="none" stroke="#000000" stroke-width="0.1201" stroke-linecap="round" stroke-linejoin="round"/>
        <ellipse cx="5.2368" cy="18.8176" rx="0.3670" ry="0.3690" fill="#00FF00" stroke="#000000" stroke-width="0.1201" stroke-linecap="round" stroke-linejoin="round"/>
        <ellipse cx="5.2368" cy="18.8176" rx="0.3670" ry="0.3690" fill="none" stroke="#000000" stroke-width="0.1201" stroke-linecap="round" stroke-linejoin="round"/>
        <text font-family="Arial" fill="#FFFFFF" transform="rotate(-270, 8.1104, 24.9831) translate(0, 0.1450)" style="white-space:pre;" font-weight="400" text-anchor="start" x="8.1104" y="24.9831" font-size="0.1611"><![CDATA[1/2]]></text>
        <text font-family="Arial" fill="#FFFFFF" transform="rotate(-270, 7.6628, 25.0551) translate(0, 0.1450)" style="white-space:pre;" font-weight="400" text-anchor="start" x="7.6628" y="25.0551" font-size="0.1611"><![CDATA[3]]></text>
        <text font-family="Arial" fill="#FFFFFF" transform="rotate(-270, 7.2152, 25.0371) translate(0, 0.1450)" style="white-space:pre;" font-weight="400" text-anchor="start" x="7.2152" y="25.0371" font-size="0.1611"><![CDATA[4]]></text>
        <text font-family="Arial" fill="#FFFFFF" transform="rotate(-270, 6.7497, 25.0371) translate(0, 0.1450)" style="white-space:pre;" font-weight="400" text-anchor="start" x="6.7497" y="25.0371" font-size="0.1611"><![CDATA[5]]></text>
        <text font-family="Arial" fill="#FFFFFF" transform="rotate(-270, 7.6628, 26.2070) translate(0, 0.1450)" style="white-space:pre;" font-weight="400" text-anchor="start" x="7.6628" y="26.2070" font-size="0.1611"><![CDATA[SH1]]></text>
        <text font-family="Arial" fill="#FFFFFF" transform="rotate(-270, 6.4274, 26.2250) translate(0, 0.1450)" style="white-space:pre;" font-weight="400" text-anchor="start" x="6.4274" y="26.2250" font-size="0.1611"><![CDATA[SH2]]></text>
        <ellipse cx="6.6333" cy="16.8017" rx="0.3670" ry="0.3690" fill="#00FF00" stroke="#000000" stroke-width="0.1201" stroke-linecap="round" stroke-linejoin="round"/>
        <ellipse cx="6.6333" cy="16.8017" rx="0.3670" ry="0.3690" fill="none" stroke="#000000" stroke-width="0.1201" stroke-linecap="round" stroke-linejoin="round"/>
        <text font-family="Arial" fill="#FFFFFF" transform="rotate(-270, 9.5069, 22.3553) translate(0, 0.1450)" style="white-space:pre;" font-weight="400" text-anchor="start" x="9.5069" y="22.3553" font-size="0.1611"><![CDATA[14]]></text>
        <ellipse cx="2.3902" cy="15.3258" rx="0.3670" ry="0.3690" fill="#00FF00" stroke="#000000" stroke-width="0.1201" stroke-linecap="round" stroke-linejoin="round"/>
        <ellipse cx="2.3902" cy="15.3258" rx="0.3670" ry="0.3690" fill="none" stroke="#000000" stroke-width="0.1201" stroke-linecap="round" stroke-linejoin="round"/>
        <ellipse cx="3.8404" cy="15.3258" rx="0.3670" ry="0.3690" fill="#00FF00" stroke="#000000" stroke-width="0.1201" stroke-linecap="round" stroke-linejoin="round"/>
        <ellipse cx="3.8404" cy="15.3258" rx="0.3670" ry="0.3690" fill="none" stroke="#000000" stroke-width="0.1201" stroke-linecap="round" stroke-linejoin="round"/>
        <ellipse cx="6.6333" cy="15.3798" rx="0.3670" ry="0.3690" fill="#00FF00" stroke="#000000" stroke-width="0.1201" stroke-linecap="round" stroke-linejoin="round"/>
        <ellipse cx="6.6333" cy="15.3798" rx="0.3670" ry="0.3690" fill="none" stroke="#000000" stroke-width="0.1201" stroke-linecap="round" stroke-linejoin="round"/>
        <ellipse cx="5.2368" cy="15.3798" rx="0.3670" ry="0.3690" fill="#00FF00" stroke="#000000" stroke-width="0.1201" stroke-linecap="round" stroke-linejoin="round"/>
        <ellipse cx="5.2368" cy="15.3798" rx="0.3670" ry="0.3690" fill="none" stroke="#000000" stroke-width="0.1201" stroke-linecap="round" stroke-linejoin="round"/>
        <text font-family="Arial" fill="#FFFFFF" transform="rotate(-270, 8.1104, 20.4835) translate(0, 0.1450)" style="white-space:pre;" font-weight="400" text-anchor="start" x="8.1104" y="20.4835" font-size="0.1611"><![CDATA[10]]></text>
        <text font-family="Arial" fill="#FFFFFF" transform="rotate(-270, 7.6628, 20.4835) translate(0, 0.1450)" style="white-space:pre;" font-weight="400" text-anchor="start" x="7.6628" y="20.4835" font-size="0.1611"><![CDATA[11]]></text>
        <text font-family="Arial" fill="#FFFFFF" transform="rotate(-270, 7.2152, 20.4655) translate(0, 0.1450)" style="white-space:pre;" font-weight="400" text-anchor="start" x="7.2152" y="20.4655" font-size="0.1611"><![CDATA[12]]></text>
        <text font-family="Arial" fill="#FFFFFF" transform="rotate(-270, 6.7497, 20.4655) translate(0, 0.1450)" style="white-space:pre;" font-weight="400" text-anchor="start" x="6.7497" y="20.4655" font-size="0.1611"><![CDATA[13]]></text>
        <ellipse cx="2.3902" cy="14.0299" rx="0.3670" ry="0.3690" fill="#00FF00" stroke="#000000" stroke-width="0.1201" stroke-linecap="round" stroke-linejoin="round"/>
        <ellipse cx="2.3902" cy="14.0299" rx="0.3670" ry="0.3690" fill="none" stroke="#000000" stroke-width="0.1201" stroke-linecap="round" stroke-linejoin="round"/>
        <ellipse cx="3.8404" cy="14.0299" rx="0.3670" ry="0.3690" fill="#00FF00" stroke="#000000" stroke-width="0.1201" stroke-linecap="round" stroke-linejoin="round"/>
        <ellipse cx="3.8404" cy="14.0299" rx="0.3670" ry="0.3690" fill="none" stroke="#000000" stroke-width="0.1201" stroke-linecap="round" stroke-linejoin="round"/>
        <ellipse cx="6.6333" cy="14.1019" rx="0.3670" ry="0.3690" fill="#00FF00" stroke="#000000" stroke-width="0.1201" stroke-linecap="round" stroke-linejoin="round"/>
        <ellipse cx="6.6333" cy="14.1019" rx="0.3670" ry="0.3690" fill="none" stroke="#000000" stroke-width="0.1201" stroke-linecap="round" stroke-linejoin="round"/>
        <ellipse cx="5.2368" cy="14.1019" rx="0.3670" ry="0.3690" fill="#00FF00" stroke="#000000" stroke-width="0.1201" stroke-linecap="round" stroke-linejoin="round"/>
        <ellipse cx="5.2368" cy="14.1019" rx="0.3670" ry="0.3690" fill="none" stroke="#000000" stroke-width="0.1201" stroke-linecap="round" stroke-linejoin="round"/>
        <text font-family="Arial" fill="#FFFFFF" transform="rotate(-270, 8.1104, 18.8276) translate(0, 0.1450)" style="white-space:pre;" font-weight="400" text-anchor="start" x="8.1104" y="18.8276" font-size="0.1611"><![CDATA[6]]></text>
        <text font-family="Arial" fill="#FFFFFF" transform="rotate(-270, 7.6628, 18.8276) translate(0, 0.1450)" style="white-space:pre;" font-weight="400" text-anchor="start" x="7.6628" y="18.8276" font-size="0.1611"><![CDATA[7]]></text>
        <text font-family="Arial" fill="#FFFFFF" transform="rotate(-270, 7.2152, 18.8096) translate(0, 0.1450)" style="white-space:pre;" font-weight="400" text-anchor="start" x="7.2152" y="18.8096" font-size="0.1611"><![CDATA[8]]></text>
        <text font-family="Arial" fill="#FFFFFF" transform="rotate(-270, 6.7497, 18.8096) translate(0, 0.1450)" style="white-space:pre;" font-weight="400" text-anchor="start" x="6.7497" y="18.8096" font-size="0.1611"><![CDATA[9]]></text>
        <ellipse cx="2.3902" cy="12.7520" rx="0.3670" ry="0.3690" fill="#00FF00" stroke="#000000" stroke-width="0.1201" stroke-linecap="round" stroke-linejoin="round"/>
        <ellipse cx="2.3902" cy="12.7520" rx="0.3670" ry="0.3690" fill="none" stroke="#000000" stroke-width="0.1201" stroke-linecap="round" stroke-linejoin="round"/>
        <ellipse cx="3.8404" cy="12.7520" rx="0.3670" ry="0.3690" fill="#00FF00" stroke="#000000" stroke-width="0.1201" stroke-linecap="round" stroke-linejoin="round"/>
        <ellipse cx="3.8404" cy="12.7520" rx="0.3670" ry="0.3690" fill="none" stroke="#000000" stroke-width="0.1201" stroke-linecap="round" stroke-linejoin="round"/>
        <ellipse cx="6.6333" cy="12.8060" rx="0.3670" ry="0.3690" fill="#00FF00" stroke="#000000" stroke-width="0.1201" stroke-linecap="round" stroke-linejoin="round"/>
        <ellipse cx="6.6333" cy="12.8060" rx="0.3670" ry="0.3690" fill="none" stroke="#000000" stroke-width="0.1201" stroke-linecap="round" stroke-linejoin="round"/>
        <ellipse cx="5.2368" cy="12.8060" rx="0.3670" ry="0.3690" fill="#00FF00" stroke="#000000" stroke-width="0.1201" stroke-linecap="round" stroke-linejoin="round"/>
        <ellipse cx="5.2368" cy="12.8060" rx="0.3670" ry="0.3690" fill="none" stroke="#000000" stroke-width="0.1201" stroke-linecap="round" stroke-linejoin="round"/>
        <text font-family="Arial" fill="#FFFFFF" transform="rotate(-270, 8.1104, 17.0457) translate(0, 0.1450)" style="white-space:pre;" font-weight="400" text-anchor="start" x="8.1104" y="17.0457" font-size="0.1611"><![CDATA[1/2]]></text>
        <text font-family="Arial" fill="#FFFFFF" transform="rotate(-270, 7.6628, 17.1177) translate(0, 0.1450)" style="white-space:pre;" font-weight="400" text-anchor="start" x="7.6628" y="17.1177" font-size="0.1611"><![CDATA[3]]></text>
        <text font-family="Arial" fill="#FFFFFF" transform="rotate(-270, 7.2152, 17.0997) translate(0, 0.1450)" style="white-space:pre;" font-weight="400" text-anchor="start" x="7.2152" y="17.0997" font-size="0.1611"><![CDATA[4]]></text>
        <text font-family="Arial" fill="#FFFFFF" transform="rotate(-270, 6.7497, 17.0997) translate(0, 0.1450)" style="white-space:pre;" font-weight="400" text-anchor="start" x="6.7497" y="17.0997" font-size="0.1611"><![CDATA[5]]></text>
        <text font-family="Arial" fill="#FFFFFF" transform="rotate(-270, 8.4148, 19.5115) translate(0, 0.1450)" style="white-space:pre;" font-weight="400" text-anchor="start" x="8.4148" y="19.5115" font-size="0.1611"><![CDATA[BASE]]></text>
        <text font-family="Arial" fill="#FFFFFF" transform="rotate(-270, 8.4148, 17.4957) translate(0, 0.1450)" style="white-space:pre;" font-weight="400" text-anchor="start" x="8.4148" y="17.4957" font-size="0.1611"><![CDATA[FABRIC]]></text>
        <text font-family="Arial" fill="#FFFFFF" transform="rotate(-270, 7.5375, 28.1812) translate(0, 0.1934)" style="white-space:pre;" font-weight="400" text-anchor="start" x="7.5375" y="28.1812" font-size="0.2148"><![CDATA[3]]></text>
        <text font-family="Arial" fill="#FFFFFF" transform="rotate(-270, 7.5375, 29.8551) translate(0, 0.1934)" style="white-space:pre;" font-weight="400" text-anchor="start" x="7.5375" y="29.8551" font-size="0.2148"><![CDATA[4]]></text>
        <path d="M 1.8903,27.0005 L 1.8483,27.0005 L 1.8483,27.0146 L 1.8203,27.0146 L 1.8063,27.0286 L 1.7923,27.0286 L 1.7923,27.0427 L 1.7783,27.0427 L 1.7783,27.0568 L 1.7643,27.0568 L 1.7643,27.0708 L 1.7503,27.0849 L 1.7503,27.1130 L 1.7363,27.1130 L 1.7363,28.4912 L 1.7503,28.4912 L 1.7503,28.5193 L 1.7643,28.5334 L 1.7643,28.5474 L 1.7783,28.5474 L 1.7783,28.5615 L 1.7923,28.5615 L 1.7923,28.5755 L 1.8063,28.5755 L 1.8203,28.5896 L 1.8483,28.5896 L 1.8483,28.6037 L 5.3489,28.6037 L 5.3489,28.5896 L 5.3769,28.5896 L 5.3909,28.5755 L 5.4049,28.5755 L 5.4049,28.5615 L 5.4189,28.5615 L 5.4189,28.5474 L 5.4329,28.5474 L 5.4329,28.5334 L 5.4469,28.5193 L 5.4469,28.4912 L 5.4609,28.4912 L 5.4609,27.1130 L 5.4469,27.1130 L 5.4469,27.0849 L 5.4329,27.0708 L 5.4329,27.0568 L 5.4189,27.0568 L 5.4189,27.0427 L 5.4049,27.0427 L 5.4049,27.0286 L 5.3909,27.0286 L 5.3769,27.0146 L 5.3489,27.0146 L 5.3489,27.0005 L 1.9043,27.0005 L 1.8903,27.0005 Z" stroke="#000000" stroke-width="0.1201" stroke-linecap="round" stroke-linejoin="round" fill="#BFBFBF"/>
        <path d="M 1.9463,27.1271 L 1.9043,27.1271 L 1.9043,27.1411 L 1.8903,27.1411 L 1.8903,27.1552 L 1.8763,27.1552 L 1.8763,27.1693 L 1.8623,27.1693 L 1.8623,28.4349 L 1.8763,28.4490 L 1.8763,28.4630 L 1.8903,28.4630 L 1.8903,28.4771 L 1.9043,28.4771 L 1.9183,28.4912 L 5.2929,28.4912 L 5.2929,28.4771 L 5.3069,28.4771 L 5.3069,28.4630 L 5.3209,28.4630 L 5.3209,28.4490 L 5.3349,28.4349 L 5.3349,27.1693 L 5.3209,27.1693 L 5.3209,27.1552 L 5.3069,27.1411 L 5.2929,27.1411 L 5.2929,27.1271 L 1.9603,27.1271 L 1.9463,27.1271 Z" stroke="#F7DDB9" stroke-width="0.1201" stroke-linecap="round" stroke-linejoin="round" fill="#000000"/>
        <path d="M 2.6885,27.8302 L 2.3804,27.8302 L 2.3804,27.7599 L 2.6885,27.7599 L 2.6885,27.8302 Z" stroke="#000000" stroke-width="0.1201" stroke-linecap="round" stroke-linejoin="round" fill="#E2E2CC"/>
        <path d="M 3.3886,27.8302 L 3.0805,27.8302 L 3.0805,27.7599 L 3.3886,27.7599 L 3.3886,27.8302 Z" stroke="#000000" stroke-width="0.1201" stroke-linecap="round" stroke-linejoin="round" fill="#E2E2CC"/>
        <path d="M 4.0747,27.8302 L 3.7667,27.8302 L 3.7667,27.7599 L 4.0747,27.7599 L 4.0747,27.8302 Z" stroke="#000000" stroke-width="0.1201" stroke-linecap="round" stroke-linejoin="round" fill="#E2E2CC"/>
        <path d="M 4.7888,27.8302 L 4.4808,27.8302 L 4.4808,27.7599 L 4.7888,27.7599 L 4.7888,27.8302 Z" stroke="#000000" stroke-width="0.1201" stroke-linecap="round" stroke-linejoin="round" fill="#E2E2CC"/>
        <path d="M 5.1249,27.3943 L 5.1249,27.3661 L 5.1109,27.3380 L 5.0829,27.3240 L 2.1144,27.3240 L 2.0864,27.3380 L 2.0724,27.3661 L 2.0724,27.7177 L 2.0864,27.7458 L 2.1144,27.7599 L 5.0829,27.7599 L 5.1109,27.7458 L 5.1249,27.7177 L 5.1249,27.6896 L 5.1249,27.3943 Z" stroke="#000000" stroke-width="0.1201" stroke-linecap="round" stroke-linejoin="round" fill="#7F7F7F"/>
        <path d="M 5.0129,27.5349 L 4.9989,27.4787 L 4.9429,27.4224 L 4.8868,27.4083 L 2.3104,27.4083 L 2.2544,27.4224 L 2.1984,27.4787 L 2.1844,27.5349 L 2.1984,27.5912 L 2.2544,27.6474 L 2.3104,27.6615 L 4.8868,27.6615 L 4.9429,27.6474 L 4.9989,27.5912 L 5.0129,27.5349 Z" stroke="#999999" stroke-width="0.1201" stroke-linecap="round" stroke-linejoin="round" fill="#999999"/>
        <path d="M 2.1276,29.8197 L 4.2414,29.8197 L 4.2414,30.7128 L 4.7388,30.7128 L 4.7388,31.0756 L 5.2362,31.0756 L 5.2362,32.1361 L 4.7388,32.1361 L 4.7388,32.4989 L 4.2414,32.4989 L 4.2414,33.3920 L 2.1276,33.3920 L 2.1276,29.8197 Z" stroke="#161616" stroke-width="0.1201" stroke-linecap="round" stroke-linejoin="round" fill="#000000"/>
        <path d="M 4.3447,34.4824 L 4.3447,39.4045 L 1.6827,39.4045 L 1.6827,34.4824 L 4.3447,34.4824 Z" stroke="#000000" stroke-width="0.1201" stroke-linecap="round" stroke-linejoin="round" fill="#494949"/>
        <path d="M 4.3447,39.6562 L 4.3447,44.5782 L 1.6827,44.5782 L 1.6827,39.6562 L 4.3447,39.6562 Z" stroke="#000000" stroke-width="0.1201" stroke-linecap="round" stroke-linejoin="round" fill="#494949"/>
        <path d="M 4.3447,44.8858 L 4.3447,49.8079 L 1.6827,49.8079 L 1.6827,44.8858 L 4.3447,44.8858 Z" stroke="#000000" stroke-width="0.1201" stroke-linecap="round" stroke-linejoin="round" fill="#494949"/>
        <path d="M 4.3447,50.0596 L 4.3447,54.9817 L 1.6827,54.9817 L 1.6827,50.0596 L 4.3447,50.0596 Z" stroke="#000000" stroke-width="0.1201" stroke-linecap="round" stroke-linejoin="round" fill="#494949"/>
        <path d="M 4.3447,55.9136 L 4.3447,59.8793 L 1.6827,59.8793 L 1.6827,55.9136 L 4.3447,55.9136 Z" stroke="#000000" stroke-width="0.1201" stroke-linecap="round" stroke-linejoin="round" fill="#494949"/>
        <path d="M 4.3447,60.0762 L 4.3447,64.0419 L 1.6827,64.0419 L 1.6827,60.0762 L 4.3447,60.0762 Z" stroke="#000000" stroke-width="0.1201" stroke-linecap="round" stroke-linejoin="round" fill="#494949"/>
        <path d="M 1.5750,68.4576 L 1.7270,68.4576 L 1.7270,68.2326 L 2.1553,68.2326 L 2.1553,67.2904 L 2.1967,67.2904 L 2.1967,66.9950 L 1.7270,66.9950 L 1.7270,67.0513 L 2.1553,67.0513 L 2.1553,67.2904 L 3.1085,67.2904 L 3.1085,67.3888 L 3.6059,67.3888 L 3.6059,67.2904 L 4.6835,67.2904 L 4.6835,70.8904 L 3.6059,70.8904 L 3.6059,70.7920 L 3.1085,70.7920 L 3.1085,70.8904 L 2.1553,70.8904 L 2.1553,71.1295 L 1.7270,71.1295 L 1.7270,71.1857 L 2.1967,71.1857 L 2.1967,70.8904 L 2.1553,70.8904 L 2.1553,69.9482 L 1.7270,69.9482 L 1.7270,69.7232 L 1.5750,69.7232 L 1.5750,68.4576 Z" stroke="#000000" stroke-width="0.1201" stroke-linecap="round" stroke-linejoin="round" fill="#000000"/>
        <path d="M 2.1553,68.2326 L 2.1553,67.0513 L 1.7270,67.0513 L 1.7270,68.2326 L 2.1553,68.2326 Z" stroke="#494949" stroke-width="0.1201" stroke-linecap="round" stroke-linejoin="round" fill="#000000"/>
        <path d="M 2.1553,71.1295 L 2.1553,69.9482 L 1.7270,69.9482 L 1.7270,71.1295 L 2.1553,71.1295 Z" stroke="#494949" stroke-width="0.1201" stroke-linecap="round" stroke-linejoin="round" fill="#000000"/>
        <path d="M 2.1079,68.1500 L 2.1079,67.3896 L 1.7976,67.3896 L 1.7976,68.1500 L 2.1079,68.1500 Z" stroke="#000000" stroke-width="0.1201" stroke-linecap="round" stroke-linejoin="round" fill="#83FF00"/>
        <path d="M 2.1079,71.0151 L 2.1079,70.2547 L 1.7976,70.2547 L 1.7976,71.0151 L 2.1079,71.0151 Z" stroke="#000000" stroke-width="0.1201" stroke-linecap="round" stroke-linejoin="round" fill="#FFFF00"/>
      </g>
      <!--emf-blob end-->
    </g>
  </g>
</svg>
