<svg xmlns="http://www.w3.org/2000/svg" xmlns:xlink="http://www.w3.org/1999/xlink" version="1.1" width="5.2124000000" height="4.0000000000" viewBox="0 0 93.8268 72.0000">
  <title><![CDATA[FCTRL-5913C]]></title>
  <g transform=" scale(4.000000) ">
    <!--converted by libvisio2svg-->
    <g transform=" translate(0.000000,27.666100) ">
      <!--emf-blob start-->
      <g transform="translate(-0.0000, -0.0000)">
        <path d="M 85.7805,0.5665 L 85.7805,1.3218 L 86.5373,1.3218 " stroke="#000000" stroke-width="0.1200" stroke-linecap="round" stroke-linejoin="round" fill="none"/>
        <path d="M 86.5373,0.5665 L 88.0311,0.5665 " stroke="#000000" stroke-width="0.1200" stroke-linecap="round" stroke-linejoin="round" fill="none"/>
        <path d="M 87.2743,0.5665 L 87.2743,1.3218 " stroke="#000000" stroke-width="0.1200" stroke-linecap="round" stroke-linejoin="round" fill="none"/>
        <path d="M 88.4095,0.5665 L 88.4095,1.3218 " stroke="#000000" stroke-width="0.1200" stroke-linecap="round" stroke-linejoin="round" fill="none"/>
        <path d="M 88.4095,0.5665 L 88.4095,1.3218 " stroke="#000000" stroke-width="0.1200" stroke-linecap="round" stroke-linejoin="round" fill="none"/>
        <path d="M 89.1464,1.3218 L 89.1464,0.5665 L 89.9032,1.3218 L 90.6601,0.5665 L 90.6601,1.3218 " stroke="#000000" stroke-width="0.1200" stroke-linecap="round" stroke-linejoin="round" fill="none"/>
        <path d="M 91.0186,1.3218 L 91.7754,0.5665 L 92.5322,1.3218 " stroke="#000000" stroke-width="0.1200" stroke-linecap="round" stroke-linejoin="round" fill="none"/>
        <path d="M 91.2177,1.1330 L 92.3331,1.1330 " stroke="#000000" stroke-width="0.1200" stroke-linecap="round" stroke-linejoin="round" fill="none"/>
        <path d="M 83.5300,1.3218 L 84.2868,0.5665 L 85.0436,1.3218 " stroke="#000000" stroke-width="0.1200" stroke-linecap="round" stroke-linejoin="round" fill="none"/>
        <path d="M 83.7291,1.1330 L 84.8444,1.1330 " stroke="#000000" stroke-width="0.1200" stroke-linecap="round" stroke-linejoin="round" fill="none"/>
        <path d="M 93.7987,0.0000 L 93.7987,6.8318 L 88.1190,6.8318 L 88.1190,8.2510 L 5.6797,8.2510 L 5.6797,6.8318 L 0.0000,6.8318 L 0.0000,0.0000 L 93.7987,0.0000 Z" stroke="#000000" stroke-width="0.1200" stroke-linecap="round" stroke-linejoin="round" fill="#666666"/>
        <path d="M 83.1142,8.0145 L 92.6037,8.0145 L 92.6037,7.1101 L 83.1142,7.1101 L 83.1142,8.0145 Z" stroke="#000000" stroke-width="0.1200" stroke-linecap="round" stroke-linejoin="round" fill="#BFBFBF"/>
        <path d="M 88.3580,8.1119 L 84.2529,8.1119 L 84.2529,7.0127 L 88.3580,7.0127 L 88.3580,8.1119 Z" stroke="#000000" stroke-width="0.1200" stroke-linecap="round" stroke-linejoin="round" fill="#7F7F7F"/>
        <path d="M 83.1704,8.1119 L 79.0653,8.1119 L 79.0653,7.0127 L 83.1704,7.0127 L 83.1704,8.1119 Z" stroke="#000000" stroke-width="0.1200" stroke-linecap="round" stroke-linejoin="round" fill="#7F7F7F"/>
        <path d="M 10.6845,8.0145 L 1.1950,8.0145 L 1.1950,7.1101 L 10.6845,7.1101 L 10.6845,8.0145 Z" stroke="#000000" stroke-width="0.1200" stroke-linecap="round" stroke-linejoin="round" fill="#BFBFBF"/>
        <path d="M 5.4407,8.1119 L 9.5458,8.1119 L 9.5458,7.0127 L 5.4407,7.0127 L 5.4407,8.1119 Z" stroke="#000000" stroke-width="0.1200" stroke-linecap="round" stroke-linejoin="round" fill="#7F7F7F"/>
        <path d="M 10.6283,8.1119 L 14.7334,8.1119 L 14.7334,7.0127 L 10.6283,7.0127 L 10.6283,8.1119 Z" stroke="#000000" stroke-width="0.1200" stroke-linecap="round" stroke-linejoin="round" fill="#7F7F7F"/>
        <path d="M 69.3930,6.2752 L 65.4285,6.2752 L 65.4285,3.5898 L 69.3930,3.5898 L 69.3930,6.2752 Z" stroke-width="1px" stroke="#333333" fill="#333333"/>
        <path d="M 65.2879,6.2752 L 61.3234,6.2752 L 61.3234,3.5898 L 65.2879,3.5898 L 65.2879,6.2752 Z" stroke-width="1px" stroke="#333333" fill="#333333"/>
        <path d="M 26.6269,2.4210 L 22.3531,2.4210 L 22.3531,6.2613 L 26.6269,6.2613 L 26.6269,2.4210 Z" stroke="#000000" stroke-width="0.1200" stroke-linecap="round" stroke-linejoin="round" fill="#BFBFBF"/>
        <path d="M 64.4304,2.5602 L 62.1810,2.5602 " stroke="#FFFFFF" stroke-width="0.1200" stroke-linecap="round" stroke-linejoin="round" fill="none"/>
        <path d="M 68.5355,2.5602 L 66.2861,2.5602 " stroke="#FFFFFF" stroke-width="0.1200" stroke-linecap="round" stroke-linejoin="round" fill="none"/>
        <path d="M 75.3257,2.4210 L 71.0519,2.4210 L 71.0519,6.2613 L 75.3257,6.2613 L 75.3257,2.4210 Z" stroke="#000000" stroke-width="0.1200" stroke-linecap="round" stroke-linejoin="round" fill="#BFBFBF"/>
        <path d="M 45.4654,1.1688 L 38.3939,1.1688 " stroke="#FFFFFF" stroke-width="0.1200" stroke-linecap="round" stroke-linejoin="round" fill="none"/>
        <path d="M 35.5681,1.1688 L 28.4967,1.1688 " stroke="#FFFFFF" stroke-width="0.1200" stroke-linecap="round" stroke-linejoin="round" fill="none"/>
        <text font-family="Arial" fill="#FFFFFF" style="white-space:pre;" font-weight="400" text-anchor="start" x="4.9346" y="0.8488" font-size="0.1546"><![CDATA[USB]]></text>
        <text font-family="Arial" fill="#FFFFFF" style="white-space:pre;" font-weight="400" text-anchor="start" x="15.9565" y="1.1397" font-size="0.1687"><![CDATA[B1]]></text>
        <text font-family="Arial" fill="#FFFFFF" style="white-space:pre;" font-weight="400" text-anchor="start" x="16.9827" y="1.1397" font-size="0.1687"><![CDATA[B2]]></text>
        <text font-family="Arial" fill="#FFFFFF" style="white-space:pre;" font-weight="400" text-anchor="start" x="16.3782" y="1.0145" font-size="0.1687"><![CDATA[SFP+]]></text>
        <text font-family="Arial" fill="#FFFFFF" style="white-space:pre;" font-weight="400" text-anchor="start" x="21.8611" y="1.6963" font-size="0.1687"><![CDATA[IPM]]></text>
        <text font-family="Arial" fill="#FFFFFF" style="white-space:pre;" font-weight="700" text-anchor="start" x="21.2565" y="0.9007" font-size="0.1968"><![CDATA[FortiController 5913C]]></text>
        <text font-family="Arial" fill="#FFFFFF" style="white-space:pre;" font-weight="400" text-anchor="start" x="18.3183" y="0.8071" font-size="0.1546"><![CDATA[MGMT]]></text>
        <text font-family="Arial" fill="#FFFFFF" style="white-space:pre;" font-weight="400" text-anchor="start" x="6.0311" y="0.8071" font-size="0.1546"><![CDATA[CONSOLE]]></text>
        <path d="M 10.7821,4.9264 L 9.7853,4.9264 L 9.7853,5.9180 L 10.7821,5.9180 L 10.7821,4.9264 Z" stroke="#000000" stroke-width="0.1200" stroke-linecap="round" stroke-linejoin="round" fill="#000000"/>
        <path d="M 10.7109,4.9972 L 9.8565,4.9972 L 9.8565,5.8471 L 10.7109,5.8471 L 10.7109,4.9972 Z" stroke="#000000" stroke-width="0.1200" stroke-linecap="round" stroke-linejoin="round" fill="#494949"/>
        <path d="M 83.4886,1.3832 L 83.4729,1.3832 L 83.4651,1.3764 L 83.4573,1.3764 L 83.4338,1.3557 L 83.4338,1.3488 L 83.4259,1.3420 L 83.4259,0.5437 L 83.4338,0.5368 L 83.4338,0.5299 L 83.4416,0.5230 L 83.4494,0.5230 L 83.4494,0.5161 L 83.4573,0.5093 L 83.4651,0.5093 L 83.4729,0.5024 L 84.5373,0.5024 L 84.5451,0.5093 L 84.5529,0.5093 L 84.5764,0.5299 L 84.5764,0.5368 L 84.5842,0.5437 L 84.5842,0.7019 L 84.5764,0.7019 L 84.5764,0.6951 L 84.5686,0.6951 L 84.5686,0.6882 L 84.5607,0.6882 L 84.5607,0.6813 L 84.5451,0.6813 L 84.5451,0.6744 L 83.6842,0.6744 L 83.6842,0.6813 L 83.6686,0.6813 L 83.6686,0.6882 L 83.6607,0.6882 L 83.6607,0.7019 L 83.6529,0.7019 L 83.6529,1.3557 L 83.6607,1.3557 L 83.6607,1.3695 L 83.6686,1.3695 L 83.6686,1.3764 L 83.6764,1.3764 L 83.6764,1.3832 L 83.4964,1.3832 L 83.4886,1.3832 Z" stroke="#FFFFFF" stroke-width="0.1200" stroke-linecap="round" stroke-linejoin="round" fill="#FFFFFF"/>
        <path d="M 84.5059,0.8740 L 83.7312,0.8740 L 83.7312,0.8671 L 83.7155,0.8671 L 83.7155,0.8602 L 83.7077,0.8602 L 83.7077,0.8465 L 83.6999,0.8465 L 83.6999,1.0185 L 83.7077,1.0185 L 83.7077,1.0323 L 83.7155,1.0323 L 83.7155,1.0392 L 83.7312,1.0392 L 83.7312,1.0460 L 84.5216,1.0460 L 84.5373,1.0323 L 84.5451,1.0323 L 84.5607,1.0185 L 84.5607,1.0116 L 84.5686,1.0047 L 84.5686,0.9979 L 84.5764,0.9910 L 84.5764,0.9772 L 84.5842,0.9703 L 84.5842,0.9497 L 84.5764,0.9428 L 84.5764,0.9222 L 84.5607,0.9084 L 84.5607,0.9015 L 84.5529,0.8946 L 84.5451,0.8946 L 84.5451,0.8878 L 84.5373,0.8878 L 84.5294,0.8809 L 84.5216,0.8809 L 84.5138,0.8740 L 84.5059,0.8740 Z" stroke="#FFFFFF" stroke-width="0.1200" stroke-linecap="round" stroke-linejoin="round" fill="#FFFFFF"/>
        <path d="M 86.3138,1.0460 L 86.2981,1.0460 L 86.2981,1.0392 L 86.2825,1.0392 L 86.2825,1.0323 L 86.2746,1.0323 L 86.2746,1.0185 L 86.2668,1.0185 L 86.2668,0.8465 L 86.2746,0.8465 L 86.2746,0.8602 L 86.2825,0.8602 L 86.2825,0.8671 L 86.2981,0.8671 L 86.2981,0.8740 L 86.9242,0.8740 L 86.9242,0.6744 L 86.2512,0.6744 L 86.2512,0.6813 L 86.2355,0.6813 L 86.2355,0.6882 L 86.2277,0.6882 L 86.2277,0.7019 L 86.2199,0.7019 L 86.2199,1.3557 L 86.2277,1.3557 L 86.2277,1.3695 L 86.2355,1.3695 L 86.2355,1.3764 L 86.2433,1.3764 L 86.2433,1.3832 L 86.0399,1.3832 L 86.0320,1.3764 L 86.0242,1.3764 L 86.0007,1.3557 L 86.0007,1.3488 L 85.9929,1.3420 L 85.9929,0.5437 L 86.0007,0.5368 L 86.0007,0.5299 L 86.0086,0.5230 L 86.0164,0.5230 L 86.0164,0.5161 L 86.0242,0.5093 L 86.0320,0.5093 L 86.0399,0.5024 L 87.1042,0.5024 L 87.1120,0.5093 L 87.1199,0.5093 L 87.1433,0.5299 L 87.1433,0.5368 L 87.1512,0.5437 L 87.1512,0.9772 L 87.1433,0.9841 L 87.1433,0.9979 L 87.1355,0.9979 L 87.1355,1.0047 L 87.1277,1.0116 L 87.1277,1.0185 L 87.1199,1.0185 L 87.1199,1.0254 L 87.1120,1.0254 L 87.1120,1.0323 L 87.1042,1.0323 L 87.1042,1.0392 L 87.0964,1.0392 L 87.0886,1.0460 L 87.0964,1.0529 L 87.1042,1.0529 L 87.1042,1.0598 L 87.1120,1.0598 L 87.1120,1.0667 L 87.1199,1.0667 L 87.1199,1.0736 L 87.1277,1.0736 L 87.1277,1.0804 L 87.1355,1.0873 L 87.1355,1.0942 L 87.1433,1.0942 L 87.1433,1.1080 L 87.1512,1.1149 L 87.1512,1.3557 L 87.1590,1.3557 L 87.1590,1.3695 L 87.1668,1.3695 L 87.1668,1.3764 L 87.1746,1.3764 L 87.1746,1.3832 L 86.9712,1.3832 L 86.9633,1.3764 L 86.9555,1.3764 L 86.9320,1.3557 L 86.9320,1.3488 L 86.9242,1.3420 L 86.9242,1.0460 L 86.3216,1.0460 L 86.3138,1.0460 Z" stroke="#FFFFFF" stroke-width="0.1200" stroke-linecap="round" stroke-linejoin="round" fill="#FFFFFF"/>
        <path d="M 87.5581,0.6744 L 87.3233,0.6744 L 87.3155,0.6675 L 87.3077,0.6675 L 87.2842,0.6469 L 87.2842,0.6400 L 87.2764,0.6331 L 87.2764,0.5437 L 87.2842,0.5368 L 87.2842,0.5299 L 87.2920,0.5230 L 87.2999,0.5230 L 87.2999,0.5161 L 87.3077,0.5093 L 87.3155,0.5093 L 87.3233,0.5024 L 88.3877,0.5024 L 88.3955,0.5093 L 88.4033,0.5093 L 88.4268,0.5299 L 88.4268,0.5368 L 88.4346,0.5437 L 88.4346,0.7019 L 88.4268,0.7019 L 88.4268,0.6951 L 88.4190,0.6951 L 88.4190,0.6882 L 88.4112,0.6882 L 88.4112,0.6813 L 88.3955,0.6813 L 88.3955,0.6744 L 87.8164,0.6744 L 87.8164,0.6813 L 87.8007,0.6813 L 87.8007,0.6882 L 87.7929,0.6882 L 87.7929,0.7019 L 87.7851,0.7019 L 87.7851,1.3557 L 87.7929,1.3557 L 87.7929,1.3695 L 87.8007,1.3695 L 87.8007,1.3764 L 87.8085,1.3764 L 87.8085,1.3832 L 87.6051,1.3832 L 87.5972,1.3764 L 87.5894,1.3764 L 87.5659,1.3557 L 87.5659,1.3488 L 87.5581,1.3420 L 87.5581,0.6951 L 87.5581,0.6744 Z" stroke="#FFFFFF" stroke-width="0.1200" stroke-linecap="round" stroke-linejoin="round" fill="#FFFFFF"/>
        <path d="M 88.7868,1.3351 L 88.7868,1.3557 L 88.7946,1.3557 L 88.7946,1.3695 L 88.8025,1.3695 L 88.8025,1.3764 L 88.8103,1.3764 L 88.8103,1.3832 L 88.6068,1.3832 L 88.5990,1.3764 L 88.5912,1.3764 L 88.5677,1.3557 L 88.5677,1.3488 L 88.5599,1.3420 L 88.5599,0.5299 L 88.5520,0.5299 L 88.5520,0.5161 L 88.5442,0.5161 L 88.5442,0.5093 L 88.5364,0.5093 L 88.5364,0.5024 L 88.7399,0.5024 L 88.7477,0.5093 L 88.7555,0.5093 L 88.7790,0.5299 L 88.7790,0.5368 L 88.7868,0.5437 L 88.7868,1.3282 L 88.7868,1.3351 Z" stroke="#FFFFFF" stroke-width="0.1200" stroke-linecap="round" stroke-linejoin="round" fill="#FFFFFF"/>
        <path d="M 89.8981,0.6744 L 89.2251,0.6744 L 89.2251,0.6813 L 89.2094,0.6813 L 89.2094,0.6882 L 89.2016,0.6882 L 89.2016,0.7019 L 89.1938,0.7019 L 89.1938,1.3557 L 89.2016,1.3557 L 89.2016,1.3695 L 89.2094,1.3695 L 89.2094,1.3764 L 89.2172,1.3764 L 89.2172,1.3832 L 89.0138,1.3832 L 89.0059,1.3764 L 88.9981,1.3764 L 88.9746,1.3557 L 88.9746,1.3488 L 88.9668,1.3420 L 88.9668,0.5437 L 88.9746,0.5368 L 88.9746,0.5299 L 88.9825,0.5230 L 88.9903,0.5230 L 88.9903,0.5161 L 88.9981,0.5093 L 89.0059,0.5093 L 89.0138,0.5024 L 90.0781,0.5024 L 90.0859,0.5093 L 90.0938,0.5093 L 90.1172,0.5299 L 90.1172,0.5368 L 90.1251,0.5437 L 90.1251,1.3557 L 90.1329,1.3557 L 90.1329,1.3695 L 90.1407,1.3695 L 90.1407,1.3764 L 90.1485,1.3764 L 90.1485,1.3832 L 89.9451,1.3832 L 89.9372,1.3764 L 89.9294,1.3764 L 89.9059,1.3557 L 89.9059,1.3488 L 89.8981,1.3420 L 89.8981,0.6951 L 89.8981,0.6744 Z" stroke="#FFFFFF" stroke-width="0.1200" stroke-linecap="round" stroke-linejoin="round" fill="#FFFFFF"/>
        <path d="M 91.2755,0.8740 L 90.5555,0.8740 L 90.5477,0.8671 L 90.5398,0.8671 L 90.5398,0.8602 L 90.5320,0.8602 L 90.5320,0.8465 L 90.5242,0.8465 L 90.5242,1.0185 L 90.5320,1.0185 L 90.5320,1.0323 L 90.5398,1.0323 L 90.5398,1.0392 L 90.5477,1.0392 L 90.5555,1.0460 L 91.2833,1.0460 L 91.2990,1.0323 L 91.3068,1.0323 L 91.3225,1.0185 L 91.3225,1.0116 L 91.3303,1.0047 L 91.3303,0.9979 L 91.3381,0.9910 L 91.3381,0.9772 L 91.3459,0.9703 L 91.3459,0.9428 L 91.3381,0.9359 L 91.3381,0.9153 L 91.3303,0.9153 L 91.3303,0.9084 L 91.3068,0.8878 L 91.2990,0.8878 L 91.2990,0.8809 L 91.2912,0.8809 L 91.2833,0.8740 L 91.2755,0.8740 Z" stroke="#FFFFFF" stroke-width="0.1200" stroke-linecap="round" stroke-linejoin="round" fill="#FFFFFF"/>
        <path d="M 91.8155,0.6744 L 91.5807,0.6744 L 91.5729,0.6675 L 91.5651,0.6675 L 91.5416,0.6469 L 91.5416,0.6400 L 91.5338,0.6331 L 91.5338,0.5437 L 91.5416,0.5368 L 91.5416,0.5299 L 91.5494,0.5230 L 91.5572,0.5230 L 91.5572,0.5161 L 91.5651,0.5093 L 91.5729,0.5093 L 91.5807,0.5024 L 92.6451,0.5024 L 92.6529,0.5093 L 92.6607,0.5093 L 92.6842,0.5299 L 92.6842,0.5368 L 92.6920,0.5437 L 92.6920,0.7019 L 92.6842,0.7019 L 92.6842,0.6951 L 92.6764,0.6951 L 92.6764,0.6882 L 92.6685,0.6882 L 92.6685,0.6813 L 92.6529,0.6813 L 92.6529,0.6744 L 92.0738,0.6744 L 92.0738,0.6813 L 92.0581,0.6813 L 92.0581,0.6882 L 92.0503,0.6882 L 92.0503,0.7019 L 92.0425,0.7019 L 92.0425,1.3557 L 92.0503,1.3557 L 92.0503,1.3695 L 92.0581,1.3695 L 92.0581,1.3764 L 92.0659,1.3764 L 92.0659,1.3832 L 91.8625,1.3832 L 91.8546,1.3764 L 91.8468,1.3764 L 91.8233,1.3557 L 91.8233,1.3488 L 91.8155,1.3420 L 91.8155,0.6951 L 91.8155,0.6744 Z" stroke="#FFFFFF" stroke-width="0.1200" stroke-linecap="round" stroke-linejoin="round" fill="#FFFFFF"/>
        <path d="M 91.3538,1.2112 L 91.3694,1.2112 L 91.3694,1.2043 L 91.3851,1.2043 L 91.3851,1.1974 L 91.3929,1.1974 L 91.3929,1.1906 L 91.4007,1.1906 L 91.4007,1.1837 L 91.4085,1.1837 L 91.4085,1.3420 L 91.4007,1.3488 L 91.4007,1.3557 L 91.3929,1.3626 L 91.3929,1.3695 L 91.3851,1.3695 L 91.3772,1.3764 L 91.3694,1.3764 L 91.3616,1.3832 L 90.2972,1.3832 L 90.2894,1.3764 L 90.2816,1.3764 L 90.2581,1.3557 L 90.2581,1.3488 L 90.2503,1.3420 L 90.2503,0.5437 L 90.2581,0.5368 L 90.2581,0.5299 L 90.2659,0.5230 L 90.2738,0.5230 L 90.2738,0.5161 L 90.2816,0.5093 L 90.2894,0.5093 L 90.2972,0.5024 L 91.3616,0.5024 L 91.3694,0.5093 L 91.3772,0.5093 L 91.4007,0.5299 L 91.4007,0.5368 L 91.4085,0.5437 L 91.4085,0.7019 L 91.4007,0.7019 L 91.4007,0.6951 L 91.3929,0.6951 L 91.3929,0.6882 L 91.3851,0.6882 L 91.3851,0.6813 L 91.3694,0.6813 L 91.3694,0.6744 L 90.5085,0.6744 L 90.5085,0.6813 L 90.4929,0.6813 L 90.4929,0.6882 L 90.4851,0.6882 L 90.4851,0.7019 L 90.4772,0.7019 L 90.4772,1.2112 L 91.3459,1.2112 L 91.3538,1.2112 Z" stroke="#FFFFFF" stroke-width="0.1200" stroke-linecap="round" stroke-linejoin="round" fill="#FFFFFF"/>
        <path d="M 85.1007,1.1286 L 85.1007,1.3832 L 85.4764,1.3832 L 85.4764,1.1286 L 85.1007,1.1286 Z" stroke="#FFFFFF" stroke-width="0.1200" stroke-linecap="round" stroke-linejoin="round" fill="#FFFFFF"/>
        <path d="M 84.7094,0.8189 L 85.0303,0.8189 L 85.0303,1.0667 L 84.7094,1.0667 L 84.7094,0.8189 Z" stroke="#FFFFFF" stroke-width="0.1200" stroke-linecap="round" stroke-linejoin="round" fill="#FFFFFF"/>
        <path d="M 85.5468,1.1286 L 85.5468,1.3832 L 85.6642,1.3832 L 85.6720,1.3764 L 85.7033,1.3764 L 85.7112,1.3695 L 85.7268,1.3695 L 85.7425,1.3626 L 85.7503,1.3557 L 85.7659,1.3488 L 85.7816,1.3351 L 85.7972,1.3282 L 85.8051,1.3213 L 85.8129,1.3075 L 85.8207,1.3007 L 85.8520,1.2456 L 85.8520,1.2318 L 85.8599,1.2112 L 85.8599,1.1906 L 85.8677,1.1699 L 85.8677,1.1286 L 85.5546,1.1286 L 85.5468,1.1286 Z" stroke="#FFFFFF" stroke-width="0.1200" stroke-linecap="round" stroke-linejoin="round" fill="#FFFFFF"/>
        <path d="M 85.5468,0.8189 L 85.8677,0.8189 L 85.8677,1.0667 L 85.5468,1.0667 L 85.5468,0.8189 Z" stroke="#FFFFFF" stroke-width="0.1200" stroke-linecap="round" stroke-linejoin="round" fill="#FFFFFF"/>
        <path d="M 85.0303,1.1286 L 85.0303,1.3832 L 84.9129,1.3832 L 84.9051,1.3764 L 84.8738,1.3764 L 84.8659,1.3695 L 84.8503,1.3695 L 84.8346,1.3626 L 84.8268,1.3557 L 84.8112,1.3488 L 84.7955,1.3351 L 84.7799,1.3282 L 84.7720,1.3213 L 84.7642,1.3075 L 84.7564,1.3007 L 84.7251,1.2456 L 84.7251,1.2318 L 84.7172,1.2112 L 84.7172,1.1906 L 84.7094,1.1699 L 84.7094,1.1286 L 85.0225,1.1286 L 85.0303,1.1286 Z" stroke="#FFFFFF" stroke-width="0.1200" stroke-linecap="round" stroke-linejoin="round" fill="#FFFFFF"/>
        <path d="M 85.1007,0.5024 L 85.1007,0.7570 L 85.4764,0.7570 L 85.4764,0.5024 L 85.1007,0.5024 Z" stroke="#FFFFFF" stroke-width="0.1200" stroke-linecap="round" stroke-linejoin="round" fill="#FFFFFF"/>
        <path d="M 85.5468,0.7570 L 85.5468,0.5024 L 85.6642,0.5024 L 85.6720,0.5093 L 85.7033,0.5093 L 85.7112,0.5161 L 85.7268,0.5161 L 85.7425,0.5230 L 85.7503,0.5299 L 85.7659,0.5368 L 85.7816,0.5505 L 85.7972,0.5574 L 85.8051,0.5643 L 85.8129,0.5781 L 85.8207,0.5850 L 85.8520,0.6400 L 85.8520,0.6538 L 85.8599,0.6744 L 85.8599,0.6951 L 85.8677,0.7157 L 85.8677,0.7570 L 85.5546,0.7570 L 85.5468,0.7570 Z" stroke="#FFFFFF" stroke-width="0.1200" stroke-linecap="round" stroke-linejoin="round" fill="#FFFFFF"/>
        <path d="M 85.0303,0.7570 L 85.0303,0.5024 L 84.9129,0.5024 L 84.9051,0.5093 L 84.8738,0.5093 L 84.8659,0.5161 L 84.8503,0.5161 L 84.8346,0.5230 L 84.8268,0.5299 L 84.8112,0.5368 L 84.7955,0.5505 L 84.7799,0.5574 L 84.7720,0.5643 L 84.7642,0.5781 L 84.7564,0.5850 L 84.7251,0.6400 L 84.7251,0.6538 L 84.7172,0.6744 L 84.7172,0.6951 L 84.7094,0.7157 L 84.7094,0.7570 L 85.0225,0.7570 L 85.0303,0.7570 Z" stroke="#FFFFFF" stroke-width="0.1200" stroke-linecap="round" stroke-linejoin="round" fill="#FFFFFF"/>
        <text font-family="Arial" fill="#FFFFFF" style="white-space:pre;" font-weight="400" text-anchor="start" x="96.4016" y="0.8338" font-size="0.0548"><![CDATA[®]]></text>
        <text font-family="Arial" fill="#FFFFFF" style="white-space:pre;" font-weight="400" text-anchor="start" x="86.0868" y="1.5774" font-size="0.0704"><![CDATA[OOS]]></text>
        <path d="M 17.9243,6.9871 L 16.5455,6.9871 L 16.5455,8.1223 L 17.9243,8.1223 L 17.9243,6.9871 Z" stroke="#FFFFFF" stroke-width="0.1200" stroke-linecap="round" stroke-linejoin="round" fill="#FFFFFF"/>
        <text font-family="Arial" fill="#FFFFFF" style="white-space:pre;" font-weight="400" text-anchor="start" x="22.3089" y="9.9758" font-size="0.1241"><![CDATA[PWR]]></text>
        <path d="M 22.1986,6.9871 L 20.8198,6.9871 L 20.8198,8.1223 L 22.1986,8.1223 L 22.1986,6.9871 Z" stroke="#FFFFFF" stroke-width="0.1200" stroke-linecap="round" stroke-linejoin="round" fill="#FFFFFF"/>
        <text font-family="Arial" fill="#FFFFFF" style="white-space:pre;" font-weight="400" text-anchor="start" x="27.6172" y="9.9758" font-size="0.1241"><![CDATA[STA]]></text>
        <path d="M 26.4728,6.9871 L 25.0940,6.9871 L 25.0940,8.1223 L 26.4728,8.1223 L 26.4728,6.9871 Z" stroke="#FFFFFF" stroke-width="0.1200" stroke-linecap="round" stroke-linejoin="round" fill="#FFFFFF"/>
        <ellipse cx="92.1436" cy="5.1441" rx="1.1715" ry="1.1789" fill="#BFBFBF" stroke="#000000" stroke-width="0.1200" stroke-linecap="round" stroke-linejoin="round"/>
        <ellipse cx="92.1436" cy="5.1441" rx="1.1715" ry="1.1789" fill="none" stroke="#000000" stroke-width="0.1200" stroke-linecap="round" stroke-linejoin="round"/>
        <ellipse cx="92.1436" cy="5.1307" rx="0.8753" ry="0.8708" fill="#666666" stroke="#000000" stroke-width="0.1200" stroke-linecap="round" stroke-linejoin="round"/>
        <ellipse cx="92.1436" cy="5.1307" rx="0.8753" ry="0.8708" fill="none" stroke="#000000" stroke-width="0.1200" stroke-linecap="round" stroke-linejoin="round"/>
        <ellipse cx="92.1436" cy="5.1441" rx="0.7945" ry="0.8038" fill="#E2E2E2" stroke="#000000" stroke-width="0.1200" stroke-linecap="round" stroke-linejoin="round"/>
        <ellipse cx="92.1436" cy="5.1441" rx="0.7945" ry="0.8038" fill="none" stroke="#E2E2E2" stroke-width="0.1200" stroke-linecap="round" stroke-linejoin="round"/>
        <path d="M 91.5377,5.0638 L 91.5108,5.0638 L 91.4838,5.0905 L 91.4838,5.1173 L 91.4569,5.1173 L 91.4569,5.2781 L 91.4838,5.2781 L 91.4838,5.3049 L 91.5108,5.3317 L 92.0763,5.3317 L 92.0763,5.9211 L 92.1032,5.9211 L 92.1032,5.9479 L 92.1302,5.9479 L 92.1302,5.9747 L 92.2917,5.9747 L 92.2917,5.9479 L 92.3187,5.9479 L 92.3187,5.9211 L 92.3456,5.9211 L 92.3456,5.3317 L 92.9381,5.3317 L 92.9381,5.3049 L 92.9650,5.3049 L 92.9650,5.2781 L 92.9919,5.2781 L 92.9919,5.1173 L 92.9650,5.1173 L 92.9650,5.0905 L 92.9381,5.0905 L 92.9381,5.0638 L 92.3456,5.0638 L 92.3456,4.5011 L 92.3187,4.4743 L 92.2917,4.4743 L 92.2917,4.4475 L 92.1302,4.4475 L 92.1302,4.4743 L 92.1032,4.4743 L 92.0763,4.5011 L 92.0763,5.0638 L 91.5646,5.0638 L 91.5377,5.0638 Z" stroke="#161616" stroke-width="0.1200" stroke-linecap="round" stroke-linejoin="round" fill="#494949"/>
        <path d="M 91.4300,5.1441 L 91.4300,5.2781 L 91.4569,5.3049 L 91.4838,5.3049 L 91.4838,5.3317 L 92.0763,5.3317 L 92.0763,5.9479 L 92.1032,5.9747 L 92.1302,5.9747 L 92.1302,6.0015 L 92.2110,6.0015 L 92.2379,6.0015 " stroke="#BFBFBF" stroke-width="0.1200" stroke-linecap="round" stroke-linejoin="round" fill="none"/>
        <path d="M 92.0763,4.5011 L 92.0763,5.0370 L 92.0763,5.0638 " stroke="#BFBFBF" stroke-width="0.1200" stroke-linecap="round" stroke-linejoin="round" fill="none"/>
        <ellipse cx="1.8448" cy="5.1441" rx="1.1715" ry="1.1789" fill="#BFBFBF" stroke="#000000" stroke-width="0.1200" stroke-linecap="round" stroke-linejoin="round"/>
        <ellipse cx="1.8448" cy="5.1441" rx="1.1715" ry="1.1789" fill="none" stroke="#000000" stroke-width="0.1200" stroke-linecap="round" stroke-linejoin="round"/>
        <ellipse cx="1.8582" cy="5.1307" rx="0.8887" ry="0.8708" fill="#666666" stroke="#000000" stroke-width="0.1200" stroke-linecap="round" stroke-linejoin="round"/>
        <ellipse cx="1.8582" cy="5.1307" rx="0.8887" ry="0.8708" fill="none" stroke="#000000" stroke-width="0.1200" stroke-linecap="round" stroke-linejoin="round"/>
        <ellipse cx="1.8582" cy="5.1441" rx="0.8079" ry="0.8038" fill="#E2E2E2" stroke="#000000" stroke-width="0.1200" stroke-linecap="round" stroke-linejoin="round"/>
        <ellipse cx="1.8582" cy="5.1441" rx="0.8079" ry="0.8038" fill="none" stroke="#E2E2E2" stroke-width="0.1200" stroke-linecap="round" stroke-linejoin="round"/>
        <path d="M 1.2388,5.0638 L 1.2119,5.0638 L 1.1850,5.0905 L 1.1850,5.1173 L 1.1580,5.1173 L 1.1580,5.2781 L 1.1850,5.2781 L 1.1850,5.3049 L 1.2119,5.3317 L 1.7774,5.3317 L 1.7774,5.9211 L 1.8044,5.9211 L 1.8044,5.9479 L 1.8313,5.9479 L 1.8313,5.9747 L 1.9929,5.9747 L 1.9929,5.9479 L 2.0198,5.9479 L 2.0198,5.9211 L 2.0467,5.9211 L 2.0467,5.3317 L 2.6392,5.3317 L 2.6392,5.3049 L 2.6661,5.3049 L 2.6661,5.2781 L 2.6931,5.2781 L 2.6931,5.1173 L 2.6661,5.1173 L 2.6661,5.0905 L 2.6392,5.0905 L 2.6392,5.0638 L 2.0467,5.0638 L 2.0467,4.5011 L 2.0198,4.4743 L 1.9929,4.4743 L 1.9929,4.4475 L 1.8313,4.4475 L 1.8313,4.4743 L 1.8044,4.4743 L 1.7774,4.5011 L 1.7774,5.0638 L 1.2657,5.0638 L 1.2388,5.0638 Z" stroke="#161616" stroke-width="0.1200" stroke-linecap="round" stroke-linejoin="round" fill="#494949"/>
        <path d="M 1.1311,5.1441 L 1.1311,5.2781 L 1.1580,5.3049 L 1.1850,5.3049 L 1.1850,5.3317 L 1.7774,5.3317 L 1.7774,5.9479 L 1.8044,5.9747 L 1.8313,5.9747 L 1.8313,6.0015 L 1.9121,6.0015 L 1.9390,6.0015 " stroke="#BFBFBF" stroke-width="0.1200" stroke-linecap="round" stroke-linejoin="round" fill="none"/>
        <path d="M 1.7774,4.5011 L 1.7774,5.0370 L 1.7774,5.0638 " stroke="#BFBFBF" stroke-width="0.1200" stroke-linecap="round" stroke-linejoin="round" fill="none"/>
        <path d="M 17.7668,7.2197 L 17.7618,7.1980 L 17.7568,7.1721 L 17.7269,7.1375 L 17.6871,7.1116 L 17.6572,7.1073 L 17.6323,7.1029 L 16.7861,7.1029 L 16.7612,7.1073 L 16.7313,7.1116 L 16.6915,7.1375 L 16.6616,7.1721 L 16.6566,7.1980 L 16.6517,7.2197 L 16.6517,7.8725 L 16.6566,7.8941 L 16.6616,7.9200 L 16.6915,7.9546 L 16.7313,7.9805 L 16.7612,7.9849 L 16.7861,7.9892 L 17.6323,7.9892 L 17.6572,7.9849 L 17.6871,7.9805 L 17.7269,7.9546 L 17.7568,7.9200 L 17.7618,7.8941 L 17.7668,7.8725 L 17.7668,7.2197 Z" stroke="#FF0000" stroke-width="0.1200" stroke-linecap="round" stroke-linejoin="round" fill="#FF0000"/>
        <path d="M 22.0429,7.2197 L 22.0379,7.1980 L 22.0330,7.1721 L 22.0031,7.1375 L 21.9633,7.1116 L 21.9334,7.1073 L 21.9085,7.1029 L 21.0622,7.1029 L 21.0374,7.1073 L 21.0075,7.1116 L 20.9677,7.1375 L 20.9378,7.1721 L 20.9328,7.1980 L 20.9278,7.2197 L 20.9278,7.8725 L 20.9328,7.8941 L 20.9378,7.9200 L 20.9677,7.9546 L 21.0075,7.9805 L 21.0374,7.9849 L 21.0622,7.9892 L 21.9085,7.9892 L 21.9334,7.9849 L 21.9633,7.9805 L 22.0031,7.9546 L 22.0330,7.9200 L 22.0379,7.8941 L 22.0429,7.8725 L 22.0429,7.2197 Z" stroke="#00FF00" stroke-width="0.1200" stroke-linecap="round" stroke-linejoin="round" fill="#00FF00"/>
        <path d="M 26.3141,7.2197 L 26.3091,7.1980 L 26.3042,7.1721 L 26.2743,7.1375 L 26.2345,7.1116 L 26.2046,7.1073 L 26.1797,7.1029 L 25.3334,7.1029 L 25.3085,7.1073 L 25.2787,7.1116 L 25.2389,7.1375 L 25.2090,7.1721 L 25.2040,7.1980 L 25.1990,7.2197 L 25.1990,7.8725 L 25.2040,7.8941 L 25.2090,7.9200 L 25.2389,7.9546 L 25.2787,7.9805 L 25.3085,7.9849 L 25.3334,7.9892 L 26.1797,7.9892 L 26.2046,7.9849 L 26.2345,7.9805 L 26.2743,7.9546 L 26.3042,7.9200 L 26.3091,7.8941 L 26.3141,7.8725 L 26.3141,7.2197 Z" stroke="#00FF00" stroke-width="0.1200" stroke-linecap="round" stroke-linejoin="round" fill="#00FF00"/>
        <path d="M 87.6001,6.1774 L 87.6001,6.1231 L 87.5807,6.0687 L 87.5419,6.0144 L 87.4643,5.9419 L 87.4062,5.9057 L 87.3480,5.8876 L 86.7660,5.8876 L 86.7078,5.9057 L 86.6496,5.9419 L 86.5721,6.0144 L 86.5333,6.0687 L 86.5139,6.1231 L 86.5139,6.2318 L 86.5333,6.2861 L 86.5721,6.3405 L 86.6496,6.4129 L 86.7078,6.4492 L 86.7660,6.4673 L 87.3480,6.4673 L 87.4062,6.4492 L 87.4643,6.4129 L 87.5419,6.3405 L 87.5807,6.2861 L 87.6001,6.2318 L 87.6001,6.1774 Z" stroke="#00FFFF" stroke-width="0.1200" stroke-linecap="round" stroke-linejoin="round" fill="#00FFFF"/>
        <path d="M 63.9346,6.9871 L 62.5558,6.9871 L 62.5558,8.1223 L 63.9346,8.1223 L 63.9346,6.9871 Z" stroke="#FFFFFF" stroke-width="0.1200" stroke-linecap="round" stroke-linejoin="round" fill="#FFFFFF"/>
        <path d="M 63.7791,7.2197 L 63.7741,7.1980 L 63.7692,7.1721 L 63.7393,7.1375 L 63.6995,7.1116 L 63.6696,7.1073 L 63.6447,7.1029 L 62.7984,7.1029 L 62.7736,7.1073 L 62.7437,7.1116 L 62.7039,7.1375 L 62.6740,7.1721 L 62.6690,7.1980 L 62.6640,7.2197 L 62.6640,7.8725 L 62.6690,7.8941 L 62.6740,7.9200 L 62.7039,7.9546 L 62.7437,7.9805 L 62.7736,7.9849 L 62.7984,7.9892 L 63.6447,7.9892 L 63.6696,7.9849 L 63.6995,7.9805 L 63.7393,7.9546 L 63.7692,7.9200 L 63.7741,7.8941 L 63.7791,7.8725 L 63.7791,7.2197 Z" stroke="#00FF00" stroke-width="0.1200" stroke-linecap="round" stroke-linejoin="round" fill="#00FF00"/>
        <path d="M 68.0985,6.9871 L 66.7197,6.9871 L 66.7197,8.1223 L 68.0985,8.1223 L 68.0985,6.9871 Z" stroke="#FFFFFF" stroke-width="0.1200" stroke-linecap="round" stroke-linejoin="round" fill="#FFFFFF"/>
        <path d="M 67.9408,7.2197 L 67.9358,7.1980 L 67.9308,7.1721 L 67.9010,7.1375 L 67.8611,7.1116 L 67.8313,7.1073 L 67.8064,7.1029 L 66.9601,7.1029 L 66.9352,7.1073 L 66.9054,7.1116 L 66.8655,7.1375 L 66.8357,7.1721 L 66.8307,7.1980 L 66.8257,7.2197 L 66.8257,7.8725 L 66.8307,7.8941 L 66.8357,7.9200 L 66.8655,7.9546 L 66.9054,7.9805 L 66.9352,7.9849 L 66.9601,7.9892 L 67.8064,7.9892 L 67.8313,7.9849 L 67.8611,7.9805 L 67.9010,7.9546 L 67.9308,7.9200 L 67.9358,7.8941 L 67.9408,7.8725 L 67.9408,7.2197 Z" stroke="#00FF00" stroke-width="0.1200" stroke-linecap="round" stroke-linejoin="round" fill="#00FF00"/>
        <path d="M 33.0496,6.9871 L 31.6709,6.9871 L 31.6709,8.1223 L 33.0496,8.1223 L 33.0496,6.9871 Z" stroke="#FFFFFF" stroke-width="0.1200" stroke-linecap="round" stroke-linejoin="round" fill="#FFFFFF"/>
        <path d="M 32.9001,7.2197 L 32.8951,7.1980 L 32.8902,7.1721 L 32.8603,7.1375 L 32.8205,7.1116 L 32.7906,7.1073 L 32.7657,7.1029 L 31.9194,7.1029 L 31.8945,7.1073 L 31.8647,7.1116 L 31.8248,7.1375 L 31.7950,7.1721 L 31.7900,7.1980 L 31.7850,7.2197 L 31.7850,7.8725 L 31.7900,7.8941 L 31.7950,7.9200 L 31.8248,7.9546 L 31.8647,7.9805 L 31.8945,7.9849 L 31.9194,7.9892 L 32.7657,7.9892 L 32.7906,7.9849 L 32.8205,7.9805 L 32.8603,7.9546 L 32.8902,7.9200 L 32.8951,7.8941 L 32.9001,7.8725 L 32.9001,7.2197 Z" stroke="#00FF00" stroke-width="0.1200" stroke-linecap="round" stroke-linejoin="round" fill="#00FF00"/>
        <path d="M 42.7839,6.9871 L 41.4051,6.9871 L 41.4051,8.1223 L 42.7839,8.1223 L 42.7839,6.9871 Z" stroke="#FFFFFF" stroke-width="0.1200" stroke-linecap="round" stroke-linejoin="round" fill="#FFFFFF"/>
        <path d="M 42.6273,7.2197 L 42.6223,7.1980 L 42.6173,7.1721 L 42.5875,7.1375 L 42.5476,7.1116 L 42.5178,7.1073 L 42.4929,7.1029 L 41.6466,7.1029 L 41.6217,7.1073 L 41.5918,7.1116 L 41.5520,7.1375 L 41.5221,7.1721 L 41.5172,7.1980 L 41.5122,7.2197 L 41.5122,7.8725 L 41.5172,7.8941 L 41.5221,7.9200 L 41.5520,7.9546 L 41.5918,7.9805 L 41.6217,7.9849 L 41.6466,7.9892 L 42.4929,7.9892 L 42.5178,7.9849 L 42.5476,7.9805 L 42.5875,7.9546 L 42.6173,7.9200 L 42.6223,7.8941 L 42.6273,7.8725 L 42.6273,7.2197 Z" stroke="#00FF00" stroke-width="0.1200" stroke-linecap="round" stroke-linejoin="round" fill="#00FF00"/>
        <text font-family="Arial" fill="#FFFFFF" style="white-space:pre;" font-weight="400" text-anchor="start" x="44.4293" y="7.3597" font-size="0.0548"><![CDATA[F1]]></text>
        <text font-family="Arial" fill="#FFFFFF" style="white-space:pre;" font-weight="400" text-anchor="start" x="45.2905" y="7.3597" font-size="0.0548"><![CDATA[F2]]></text>
        <text font-family="Arial" fill="#FFFFFF" style="white-space:pre;" font-weight="400" text-anchor="start" x="44.8127" y="7.3122" font-size="0.0548"><![CDATA[CFP2]]></text>
        <path d="M 18.6191,5.9155 L 18.6191,5.9574 L 18.6332,5.9574 L 18.6332,5.9854 L 18.6472,5.9994 L 18.6472,6.0133 L 18.6613,6.0133 L 18.6613,6.0273 L 18.6754,6.0273 L 18.6754,6.0413 L 18.6894,6.0413 L 18.7035,6.0553 L 18.7316,6.0553 L 18.7316,6.0693 L 20.1098,6.0693 L 20.1098,6.0553 L 20.1379,6.0553 L 20.1519,6.0413 L 20.1660,6.0413 L 20.1660,6.0273 L 20.1801,6.0273 L 20.1801,6.0133 L 20.1941,6.0133 L 20.1941,5.9994 L 20.2082,5.9854 L 20.2082,5.9574 L 20.2223,5.9574 L 20.2223,2.4613 L 20.2082,2.4613 L 20.2082,2.4333 L 20.1941,2.4193 L 20.1941,2.4053 L 20.1801,2.4053 L 20.1801,2.3914 L 20.1660,2.3914 L 20.1660,2.3774 L 20.1519,2.3774 L 20.1379,2.3634 L 20.1098,2.3634 L 20.1098,2.3494 L 18.7316,2.3494 L 18.7316,2.3634 L 18.7035,2.3634 L 18.6894,2.3774 L 18.6754,2.3774 L 18.6754,2.3914 L 18.6613,2.3914 L 18.6613,2.4053 L 18.6472,2.4053 L 18.6472,2.4193 L 18.6332,2.4333 L 18.6332,2.4613 L 18.6191,2.4613 L 18.6191,5.9015 L 18.6191,5.9155 Z" stroke="#000000" stroke-width="0.1200" stroke-linecap="round" stroke-linejoin="round" fill="#BFBFBF"/>
        <path d="M 18.7457,5.8595 L 18.7457,5.9015 L 18.7597,5.9015 L 18.7597,5.9155 L 18.7738,5.9294 L 18.7879,5.9294 L 18.7879,5.9434 L 20.0535,5.9434 L 20.0676,5.9294 L 20.0816,5.9294 L 20.0816,5.9155 L 20.0957,5.9155 L 20.0957,5.9015 L 20.1098,5.8875 L 20.1098,2.5172 L 20.0957,2.5172 L 20.0957,2.5032 L 20.0816,2.5032 L 20.0816,2.4892 L 20.0676,2.4892 L 20.0535,2.4753 L 18.7879,2.4753 L 18.7879,2.4892 L 18.7738,2.4892 L 18.7597,2.5032 L 18.7597,2.5172 L 18.7457,2.5172 L 18.7457,5.8455 L 18.7457,5.8595 Z" stroke="#F7DDB9" stroke-width="0.1200" stroke-linecap="round" stroke-linejoin="round" fill="#000000"/>
        <path d="M 19.4488,5.1183 L 19.4488,5.4260 L 19.3785,5.4260 L 19.3785,5.1183 L 19.4488,5.1183 Z" stroke="#000000" stroke-width="0.1200" stroke-linecap="round" stroke-linejoin="round" fill="#E2E2CC"/>
        <path d="M 19.4488,4.4191 L 19.4488,4.7268 L 19.3785,4.7268 L 19.3785,4.4191 L 19.4488,4.4191 Z" stroke="#000000" stroke-width="0.1200" stroke-linecap="round" stroke-linejoin="round" fill="#E2E2CC"/>
        <path d="M 19.4488,3.7339 L 19.4488,4.0415 L 19.3785,4.0415 L 19.3785,3.7339 L 19.4488,3.7339 Z" stroke="#000000" stroke-width="0.1200" stroke-linecap="round" stroke-linejoin="round" fill="#E2E2CC"/>
        <path d="M 19.4488,3.0207 L 19.4488,3.3283 L 19.3785,3.3283 L 19.3785,3.0207 L 19.4488,3.0207 Z" stroke="#000000" stroke-width="0.1200" stroke-linecap="round" stroke-linejoin="round" fill="#E2E2CC"/>
        <path d="M 19.0129,2.6850 L 18.9847,2.6850 L 18.9566,2.6990 L 18.9426,2.7270 L 18.9426,5.6917 L 18.9566,5.7197 L 18.9847,5.7337 L 19.3363,5.7337 L 19.3644,5.7197 L 19.3785,5.6917 L 19.3785,2.7270 L 19.3644,2.6990 L 19.3363,2.6850 L 19.3082,2.6850 L 19.0129,2.6850 Z" stroke="#000000" stroke-width="0.1200" stroke-linecap="round" stroke-linejoin="round" fill="#7F7F7F"/>
        <path d="M 19.1535,2.7969 L 19.0972,2.8109 L 19.0410,2.8668 L 19.0269,2.9228 L 19.0269,5.4959 L 19.0410,5.5519 L 19.0972,5.6078 L 19.1535,5.6218 L 19.2097,5.6078 L 19.2660,5.5519 L 19.2801,5.4959 L 19.2801,2.9228 L 19.2660,2.8668 L 19.2097,2.8109 L 19.1535,2.7969 Z" stroke="#999999" stroke-width="0.1200" stroke-linecap="round" stroke-linejoin="round" fill="#999999"/>
        <path d="M 22.7869,5.5606 L 22.7869,3.4495 L 23.6800,3.4495 L 23.6800,2.9528 L 24.0428,2.9528 L 24.0428,2.4561 L 25.1033,2.4561 L 25.1033,2.9528 L 25.4661,2.9528 L 25.4661,3.4495 L 26.3591,3.4495 L 26.3591,5.5606 L 22.7869,5.5606 Z" stroke="#161616" stroke-width="0.1200" stroke-linecap="round" stroke-linejoin="round" fill="#000000"/>
        <path d="M 28.3512,2.7410 L 28.3512,5.7337 L 36.3115,5.7337 L 36.3115,2.7410 L 28.3512,2.7410 Z" stroke="#000000" stroke-width="0.1200" stroke-linecap="round" stroke-linejoin="round" fill="none"/>
        <path d="M 38.0913,2.7410 L 38.0913,5.7337 L 46.0515,5.7337 L 46.0515,2.7410 L 38.0913,2.7410 Z" stroke="#000000" stroke-width="0.1200" stroke-linecap="round" stroke-linejoin="round" fill="none"/>
        <path d="M 65.2231,6.2952 L 61.2574,6.2952 L 61.2574,3.6366 L 65.2231,3.6366 L 65.2231,6.2952 Z" stroke="#000000" stroke-width="0.1200" stroke-linecap="round" stroke-linejoin="round" fill="none"/>
        <path d="M 69.3857,6.2952 L 65.4200,6.2952 L 65.4200,3.6366 L 69.3857,3.6366 L 69.3857,6.2952 Z" stroke="#000000" stroke-width="0.1200" stroke-linecap="round" stroke-linejoin="round" fill="none"/>
        <path d="M 71.3887,5.5606 L 71.3887,3.4495 L 72.2818,3.4495 L 72.2818,2.9528 L 72.6446,2.9528 L 72.6446,2.4561 L 73.7051,2.4561 L 73.7051,2.9528 L 74.0679,2.9528 L 74.0679,3.4495 L 74.9610,3.4495 L 74.9610,5.5606 L 71.3887,5.5606 Z" stroke="#161616" stroke-width="0.1200" stroke-linecap="round" stroke-linejoin="round" fill="#000000"/>
      </g>
      <!--emf-blob end-->
    </g>
  </g>
</svg>
