<svg xmlns="http://www.w3.org/2000/svg" xmlns:xlink="http://www.w3.org/1999/xlink" version="1.1" width="7.6032000000" height="4.0000000000" viewBox="0 0 136.8567 72.0000">
  <title><![CDATA[FG-100/101E]]></title>
  <g transform=" scale(4.000000) ">
    <!--converted by libvisio2svg-->
    <g transform=" translate(0.000000,23.499200) ">
      <!--emf-blob start-->
      <g transform="translate(-0.0000, -0.0000)">
        <path d="M 14.2547,1.5860 L 14.2547,2.4408 L 14.9977,2.4408 " stroke="#000000" stroke-width="0.1200" stroke-linecap="round" stroke-linejoin="round" fill="none"/>
        <path d="M 14.9977,1.5860 L 16.4643,1.5860 " stroke="#000000" stroke-width="0.1200" stroke-linecap="round" stroke-linejoin="round" fill="none"/>
        <path d="M 15.7212,1.5860 L 15.7212,2.4408 " stroke="#000000" stroke-width="0.1200" stroke-linecap="round" stroke-linejoin="round" fill="none"/>
        <path d="M 16.8358,1.5860 L 16.8358,2.4408 " stroke="#000000" stroke-width="0.1200" stroke-linecap="round" stroke-linejoin="round" fill="none"/>
        <path d="M 16.8358,1.5860 L 16.8358,2.4408 " stroke="#000000" stroke-width="0.1200" stroke-linecap="round" stroke-linejoin="round" fill="none"/>
        <path d="M 17.5593,2.4408 L 17.5593,1.5860 L 18.3023,2.4408 L 19.0454,1.5860 L 19.0454,2.4408 " stroke="#000000" stroke-width="0.1200" stroke-linecap="round" stroke-linejoin="round" fill="none"/>
        <path d="M 19.3973,2.4408 L 20.1404,1.5860 L 20.8834,2.4408 " stroke="#000000" stroke-width="0.1200" stroke-linecap="round" stroke-linejoin="round" fill="none"/>
        <path d="M 19.5929,2.2271 L 20.6879,2.2271 " stroke="#000000" stroke-width="0.1200" stroke-linecap="round" stroke-linejoin="round" fill="none"/>
        <path d="M 12.0451,2.4408 L 12.7882,1.5860 L 13.5312,2.4408 " stroke="#000000" stroke-width="0.1200" stroke-linecap="round" stroke-linejoin="round" fill="none"/>
        <path d="M 12.2406,2.2271 L 13.3357,2.2271 " stroke="#000000" stroke-width="0.1200" stroke-linecap="round" stroke-linejoin="round" fill="none"/>
        <path d="M 136.8005,0.4910 L 136.7864,0.3928 L 136.7583,0.3086 L 136.7161,0.2385 L 136.6599,0.1683 L 136.5896,0.1122 L 136.5193,0.0701 L 136.4349,0.0421 L 136.3365,0.0281 L 0.4921,0.0281 L 0.3937,0.0421 L 0.3093,0.0701 L 0.2390,0.1122 L 0.1687,0.1683 L 0.1125,0.2385 L 0.0703,0.3086 L 0.0422,0.3928 L 0.0281,0.4910 L 0.0281,11.9661 L 0.0422,12.0643 L 0.0703,12.1485 L 0.1125,12.2186 L 0.1687,12.2888 L 0.2390,12.3449 L 0.3093,12.3870 L 0.3937,12.4150 L 0.4921,12.4291 L 136.3365,12.4291 L 136.4349,12.4150 L 136.5193,12.3870 L 136.5896,12.3449 L 136.6599,12.2888 L 136.7161,12.2186 L 136.7583,12.1485 L 136.7864,12.0643 L 136.8005,11.9661 L 136.8005,0.4910 Z" stroke="#000000" stroke-width="0.1200" stroke-linecap="round" stroke-linejoin="round" fill="#EAEAEA"/>
        <path d="M 129.6019,0.0281 L 7.2267,0.0281 L 7.2267,12.4291 L 129.6019,12.4291 L 129.6019,0.0281 Z" stroke="#000000" stroke-width="0.1200" stroke-linecap="round" stroke-linejoin="round" fill="#EAEAEA"/>
        <path d="M 5.2302,2.1604 L 5.2302,2.0481 L 5.2021,1.9359 L 5.1458,1.7395 L 5.1037,1.6413 L 5.0474,1.5431 L 4.9771,1.4589 L 4.8365,1.3187 L 4.7522,1.2485 L 4.6537,1.1924 L 4.5553,1.1503 L 4.3585,1.0942 L 4.2460,1.0661 L 1.9121,1.0661 L 1.7996,1.0942 L 1.6028,1.1503 L 1.5044,1.1924 L 1.4060,1.2485 L 1.3216,1.3187 L 1.1810,1.4589 L 1.1107,1.5431 L 1.0545,1.6413 L 1.0123,1.7395 L 0.9561,1.9359 L 0.9279,2.0481 L 0.9279,2.2866 L 0.9561,2.3988 L 1.0123,2.5952 L 1.0545,2.6934 L 1.1107,2.7916 L 1.1810,2.8758 L 1.3216,3.0161 L 1.4060,3.0862 L 1.5044,3.1423 L 1.6028,3.1844 L 1.7996,3.2405 L 1.9121,3.2686 L 4.2460,3.2686 L 4.3585,3.2405 L 4.5553,3.1844 L 4.6537,3.1423 L 4.7522,3.0862 L 4.8365,3.0161 L 4.9771,2.8758 L 5.0474,2.7916 L 5.1037,2.6934 L 5.1458,2.5952 L 5.2021,2.3988 L 5.2302,2.2866 L 5.2302,2.1744 L 5.2302,2.1604 Z" stroke="#000000" stroke-width="0.1200" stroke-linecap="round" stroke-linejoin="round" fill="#FFFFFF"/>
        <path d="M 5.2302,10.2968 L 5.2302,10.1845 L 5.2021,10.0723 L 5.1458,9.8759 L 5.1037,9.7777 L 5.0474,9.6795 L 4.9771,9.5953 L 4.8365,9.4551 L 4.7522,9.3849 L 4.6537,9.3288 L 4.5553,9.2867 L 4.3585,9.2306 L 4.2460,9.2026 L 1.9121,9.2026 L 1.7996,9.2306 L 1.6028,9.2867 L 1.5044,9.3288 L 1.4060,9.3849 L 1.3216,9.4551 L 1.1810,9.5953 L 1.1107,9.6795 L 1.0545,9.7777 L 1.0123,9.8759 L 0.9561,10.0723 L 0.9279,10.1845 L 0.9279,10.4230 L 0.9561,10.5352 L 1.0123,10.7316 L 1.0545,10.8298 L 1.1107,10.9280 L 1.1810,11.0122 L 1.3216,11.1525 L 1.4060,11.2226 L 1.5044,11.2787 L 1.6028,11.3208 L 1.7996,11.3769 L 1.9121,11.4050 L 4.2460,11.4050 L 4.3585,11.3769 L 4.5553,11.3208 L 4.6537,11.2787 L 4.7522,11.2226 L 4.8365,11.1525 L 4.9771,11.0122 L 5.0474,10.9280 L 5.1037,10.8298 L 5.1458,10.7316 L 5.2021,10.5352 L 5.2302,10.4230 L 5.2302,10.3108 L 5.2302,10.2968 Z" stroke="#000000" stroke-width="0.1200" stroke-linecap="round" stroke-linejoin="round" fill="#FFFFFF"/>
        <path d="M 135.9006,2.1604 L 135.9006,2.0481 L 135.8725,1.9359 L 135.8163,1.7395 L 135.7741,1.6413 L 135.7179,1.5431 L 135.6476,1.4589 L 135.5070,1.3187 L 135.4226,1.2485 L 135.3242,1.1924 L 135.2258,1.1503 L 135.0289,1.0942 L 134.9165,1.0661 L 132.5826,1.0661 L 132.4701,1.0942 L 132.2733,1.1503 L 132.1748,1.1924 L 132.0764,1.2485 L 131.9921,1.3187 L 131.8515,1.4589 L 131.7812,1.5431 L 131.7249,1.6413 L 131.6827,1.7395 L 131.6265,1.9359 L 131.5984,2.0481 L 131.5984,2.2866 L 131.6265,2.3988 L 131.6827,2.5952 L 131.7249,2.6934 L 131.7812,2.7916 L 131.8515,2.8758 L 131.9921,3.0161 L 132.0764,3.0862 L 132.1748,3.1423 L 132.2733,3.1844 L 132.4701,3.2405 L 132.5826,3.2686 L 134.9165,3.2686 L 135.0289,3.2405 L 135.2258,3.1844 L 135.3242,3.1423 L 135.4226,3.0862 L 135.5070,3.0161 L 135.6476,2.8758 L 135.7179,2.7916 L 135.7741,2.6934 L 135.8163,2.5952 L 135.8725,2.3988 L 135.9006,2.2866 L 135.9006,2.1744 L 135.9006,2.1604 Z" stroke="#000000" stroke-width="0.1200" stroke-linecap="round" stroke-linejoin="round" fill="#FFFFFF"/>
        <path d="M 135.9006,10.2968 L 135.9006,10.1845 L 135.8725,10.0723 L 135.8163,9.8759 L 135.7741,9.7777 L 135.7179,9.6795 L 135.6476,9.5953 L 135.5070,9.4551 L 135.4226,9.3849 L 135.3242,9.3288 L 135.2258,9.2867 L 135.0289,9.2306 L 134.9165,9.2026 L 132.5826,9.2026 L 132.4701,9.2306 L 132.2733,9.2867 L 132.1748,9.3288 L 132.0764,9.3849 L 131.9921,9.4551 L 131.8515,9.5953 L 131.7812,9.6795 L 131.7249,9.7777 L 131.6827,9.8759 L 131.6265,10.0723 L 131.5984,10.1845 L 131.5984,10.4230 L 131.6265,10.5352 L 131.6827,10.7316 L 131.7249,10.8298 L 131.7812,10.9280 L 131.8515,11.0122 L 131.9921,11.1525 L 132.0764,11.2226 L 132.1748,11.2787 L 132.2733,11.3208 L 132.4701,11.3769 L 132.5826,11.4050 L 134.9165,11.4050 L 135.0289,11.3769 L 135.2258,11.3208 L 135.3242,11.2787 L 135.4226,11.2226 L 135.5070,11.1525 L 135.6476,11.0122 L 135.7179,10.9280 L 135.7741,10.8298 L 135.8163,10.7316 L 135.8725,10.5352 L 135.9006,10.4230 L 135.9006,10.3108 L 135.9006,10.2968 Z" stroke="#000000" stroke-width="0.1200" stroke-linecap="round" stroke-linejoin="round" fill="#FFFFFF"/>
        <path d="M 128.8568,1.3327 L 128.8568,1.2766 L 128.8286,1.1643 L 128.8146,1.1223 L 128.7865,1.0661 L 128.7021,0.9399 L 128.5756,0.8557 L 128.5193,0.8277 L 128.4771,0.8136 L 128.3647,0.7856 L 8.4639,0.7856 L 8.3514,0.8136 L 8.3093,0.8277 L 8.2530,0.8557 L 8.1265,0.9399 L 8.0421,1.0661 L 8.0140,1.1223 L 7.9999,1.1643 L 7.9718,1.2766 L 7.9718,11.2507 L 7.9999,11.3629 L 8.0140,11.4050 L 8.0421,11.4611 L 8.1265,11.5874 L 8.2530,11.6715 L 8.3093,11.6996 L 8.3514,11.7136 L 8.4639,11.7417 L 128.3647,11.7417 L 128.4771,11.7136 L 128.5193,11.6996 L 128.5756,11.6715 L 128.7021,11.5874 L 128.7865,11.4611 L 128.8146,11.4050 L 128.8286,11.3629 L 128.8568,11.2507 L 128.8568,11.1946 L 128.8568,1.3327 Z" stroke="#BFBFBF" stroke-width="0.1200" stroke-linecap="round" stroke-linejoin="round" fill="#E2E2E2"/>
        <path d="M 11.4024,1.6834 L 11.3883,1.6273 L 11.3602,1.5852 L 11.3180,1.5571 L 11.2618,1.5431 L 11.2055,1.5571 L 11.1634,1.5852 L 11.1352,1.6273 L 11.1212,1.6834 L 11.1212,3.6614 L 11.1352,3.7175 L 11.1634,3.7596 L 11.2055,3.7876 L 11.2618,3.8017 L 11.3180,3.7876 L 11.3602,3.7596 L 11.3883,3.7175 L 11.4024,3.6614 L 11.4024,1.6834 Z" stroke="#7EBC7E" stroke-width="0.1200" stroke-linecap="round" stroke-linejoin="round" fill="#7EBC7E"/>
        <path d="M 10.4604,1.6834 L 10.4463,1.6273 L 10.4182,1.5852 L 10.3760,1.5571 L 10.3198,1.5431 L 10.2635,1.5571 L 10.2214,1.5852 L 10.1933,1.6273 L 10.1792,1.6834 L 10.1792,3.6614 L 10.1933,3.7175 L 10.2214,3.7596 L 10.2635,3.7876 L 10.3198,3.8017 L 10.3760,3.7876 L 10.4182,3.7596 L 10.4463,3.7175 L 10.4604,3.6614 L 10.4604,1.6834 Z" stroke="#7EBC7E" stroke-width="0.1200" stroke-linecap="round" stroke-linejoin="round" fill="#7EBC7E"/>
        <path d="M 9.5184,1.6834 L 9.5043,1.6273 L 9.4762,1.5852 L 9.4340,1.5571 L 9.3778,1.5431 L 9.3216,1.5571 L 9.2794,1.5852 L 9.2513,1.6273 L 9.2372,1.6834 L 9.2372,3.6614 L 9.2513,3.7175 L 9.2794,3.7596 L 9.3216,3.7876 L 9.3778,3.8017 L 9.4340,3.7876 L 9.4762,3.7596 L 9.5043,3.7175 L 9.5184,3.6614 L 9.5184,1.6834 Z" stroke="#7EBC7E" stroke-width="0.1200" stroke-linecap="round" stroke-linejoin="round" fill="#7EBC7E"/>
        <path d="M 107.4158,2.1604 L 102.9167,2.1604 L 102.9167,10.3529 L 107.4158,10.3529 L 107.4158,2.1604 Z" stroke="#000000" stroke-width="0.1200" stroke-linecap="round" stroke-linejoin="round" fill="#BFBFBF"/>
        <path d="M 107.1486,5.1764 L 103.1838,5.1764 L 103.1838,2.4690 L 107.1486,2.4690 L 107.1486,5.1764 Z" stroke="#7F7F7F" stroke-width="0.1200" stroke-linecap="round" stroke-linejoin="round" fill="#7F7F7F"/>
        <path d="M 107.1486,10.0583 L 103.1838,10.0583 L 103.1838,7.3508 L 107.1486,7.3508 L 107.1486,10.0583 Z" stroke="#7F7F7F" stroke-width="0.1200" stroke-linecap="round" stroke-linejoin="round" fill="#7F7F7F"/>
        <path d="M 105.9676,5.1764 L 104.3648,5.1764 L 104.3648,4.9099 L 105.9676,4.9099 L 105.9676,5.1764 Z" stroke="#7F7F7F" stroke-width="0.1200" stroke-linecap="round" stroke-linejoin="round" fill="#BFBFBF"/>
        <path d="M 105.9676,7.6174 L 104.3648,7.6174 L 104.3648,7.3508 L 105.9676,7.3508 L 105.9676,7.6174 Z" stroke="#7F7F7F" stroke-width="0.1200" stroke-linecap="round" stroke-linejoin="round" fill="#BFBFBF"/>
        <path d="M 103.5213,5.9059 L 103.8727,6.5933 L 104.2102,5.9059 L 103.5213,5.9059 Z" stroke="#333333" stroke-width="0.1200" stroke-linecap="round" stroke-linejoin="round" fill="#333333"/>
        <path d="M 106.1223,6.5933 L 106.4738,5.9059 L 106.8112,6.5933 L 106.1223,6.5933 Z" stroke="#333333" stroke-width="0.1200" stroke-linecap="round" stroke-linejoin="round" fill="#333333"/>
        <path d="M 106.1645,5.1764 L 104.1680,5.1764 L 104.1680,5.4570 L 106.1645,5.4570 L 106.1645,5.1764 Z" stroke="#7F7F7F" stroke-width="0.1200" stroke-linecap="round" stroke-linejoin="round" fill="#7F7F7F"/>
        <path d="M 106.1645,7.0703 L 104.1680,7.0703 L 104.1680,7.3508 L 106.1645,7.3508 L 106.1645,7.0703 Z" stroke="#7F7F7F" stroke-width="0.1200" stroke-linecap="round" stroke-linejoin="round" fill="#7F7F7F"/>
        <path d="M 101.5248,2.1604 L 83.0504,2.1604 L 83.0504,10.3529 L 101.5248,10.3529 L 101.5248,2.1604 Z" stroke="#000000" stroke-width="0.1200" stroke-linecap="round" stroke-linejoin="round" fill="#BFBFBF"/>
        <path d="M 81.6585,2.1604 L 63.1841,2.1604 L 63.1841,10.3529 L 81.6585,10.3529 L 81.6585,2.1604 Z" stroke="#000000" stroke-width="0.1200" stroke-linecap="round" stroke-linejoin="round" fill="#BFBFBF"/>
        <path d="M 61.7922,2.1604 L 56.5339,2.1604 L 56.5339,10.3529 L 61.7922,10.3529 L 61.7922,2.1604 Z" stroke="#000000" stroke-width="0.1200" stroke-linecap="round" stroke-linejoin="round" fill="#BFBFBF"/>
        <path d="M 55.1560,2.1604 L 49.8977,2.1604 L 49.8977,10.3529 L 55.1560,10.3529 L 55.1560,2.1604 Z" stroke="#000000" stroke-width="0.1200" stroke-linecap="round" stroke-linejoin="round" fill="#BFBFBF"/>
        <path d="M 48.5058,2.1604 L 43.2475,2.1604 L 43.2475,10.3529 L 48.5058,10.3529 L 48.5058,2.1604 Z" stroke="#000000" stroke-width="0.1200" stroke-linecap="round" stroke-linejoin="round" fill="#BFBFBF"/>
        <path d="M 41.8556,6.3127 L 36.5973,6.3127 L 36.5973,10.3529 L 41.8556,10.3529 L 41.8556,6.3127 Z" stroke="#000000" stroke-width="0.1200" stroke-linecap="round" stroke-linejoin="round" fill="#BFBFBF"/>
        <path d="M 96.8007,11.0262 L 96.8007,11.5593 L 107.3877,11.5593 L 107.3877,11.0262 " stroke="#000000" stroke-width="0.1200" stroke-linecap="round" stroke-linejoin="round" fill="none"/>
        <path d="M 96.8007,1.4870 L 96.8007,0.9539 L 99.5564,0.9539 " stroke="#000000" stroke-width="0.1200" stroke-linecap="round" stroke-linejoin="round" fill="none"/>
        <path d="M 104.2945,0.9539 L 107.3877,0.9539 L 107.3877,1.4870 " stroke="#000000" stroke-width="0.1200" stroke-linecap="round" stroke-linejoin="round" fill="none"/>
        <path d="M 11.9861,2.5157 L 11.9707,2.5157 L 11.9631,2.5079 L 11.9554,2.5079 L 11.9323,2.4846 L 11.9323,2.4768 L 11.9246,2.4690 L 11.9246,1.5655 L 11.9323,1.5577 L 11.9323,1.5499 L 11.9400,1.5421 L 11.9477,1.5421 L 11.9477,1.5344 L 11.9554,1.5266 L 11.9631,1.5266 L 11.9707,1.5188 L 13.0157,1.5188 L 13.0234,1.5266 L 13.0310,1.5266 L 13.0541,1.5499 L 13.0541,1.5577 L 13.0618,1.5655 L 13.0618,1.7447 L 13.0541,1.7447 L 13.0541,1.7369 L 13.0464,1.7369 L 13.0464,1.7291 L 13.0387,1.7291 L 13.0387,1.7213 L 13.0234,1.7213 L 13.0234,1.7135 L 12.1782,1.7135 L 12.1782,1.7213 L 12.1628,1.7213 L 12.1628,1.7291 L 12.1551,1.7291 L 12.1551,1.7447 L 12.1475,1.7447 L 12.1475,2.4846 L 12.1551,2.4846 L 12.1551,2.5001 L 12.1628,2.5001 L 12.1628,2.5079 L 12.1705,2.5079 L 12.1705,2.5157 L 11.9938,2.5157 L 11.9861,2.5157 Z" stroke="#000000" stroke-width="0.1200" stroke-linecap="round" stroke-linejoin="round" fill="#000000"/>
        <path d="M 12.9849,1.9394 L 12.2243,1.9394 L 12.2243,1.9316 L 12.2089,1.9316 L 12.2089,1.9238 L 12.2012,1.9238 L 12.2012,1.9082 L 12.1936,1.9082 L 12.1936,2.1029 L 12.2012,2.1029 L 12.2012,2.1185 L 12.2089,2.1185 L 12.2089,2.1263 L 12.2243,2.1263 L 12.2243,2.1341 L 13.0003,2.1341 L 13.0157,2.1185 L 13.0234,2.1185 L 13.0387,2.1029 L 13.0387,2.0951 L 13.0464,2.0874 L 13.0464,2.0796 L 13.0541,2.0718 L 13.0541,2.0562 L 13.0618,2.0484 L 13.0618,2.0250 L 13.0541,2.0173 L 13.0541,1.9939 L 13.0387,1.9783 L 13.0387,1.9705 L 13.0310,1.9627 L 13.0234,1.9627 L 13.0234,1.9549 L 13.0157,1.9549 L 13.0080,1.9472 L 13.0003,1.9472 L 12.9926,1.9394 L 12.9849,1.9394 Z" stroke="#000000" stroke-width="0.1200" stroke-linecap="round" stroke-linejoin="round" fill="#000000"/>
        <path d="M 14.7598,2.1341 L 14.7444,2.1341 L 14.7444,2.1263 L 14.7291,2.1263 L 14.7291,2.1185 L 14.7214,2.1185 L 14.7214,2.1029 L 14.7137,2.1029 L 14.7137,1.9082 L 14.7214,1.9082 L 14.7214,1.9238 L 14.7291,1.9238 L 14.7291,1.9316 L 14.7444,1.9316 L 14.7444,1.9394 L 15.3591,1.9394 L 15.3591,1.7135 L 14.6983,1.7135 L 14.6983,1.7213 L 14.6830,1.7213 L 14.6830,1.7291 L 14.6753,1.7291 L 14.6753,1.7447 L 14.6676,1.7447 L 14.6676,2.4846 L 14.6753,2.4846 L 14.6753,2.5001 L 14.6830,2.5001 L 14.6830,2.5079 L 14.6907,2.5079 L 14.6907,2.5157 L 14.4909,2.5157 L 14.4832,2.5079 L 14.4755,2.5079 L 14.4525,2.4846 L 14.4525,2.4768 L 14.4448,2.4690 L 14.4448,1.5655 L 14.4525,1.5577 L 14.4525,1.5499 L 14.4602,1.5421 L 14.4678,1.5421 L 14.4678,1.5344 L 14.4755,1.5266 L 14.4832,1.5266 L 14.4909,1.5188 L 15.5358,1.5188 L 15.5435,1.5266 L 15.5512,1.5266 L 15.5742,1.5499 L 15.5742,1.5577 L 15.5819,1.5655 L 15.5819,2.0562 L 15.5742,2.0640 L 15.5742,2.0796 L 15.5666,2.0796 L 15.5666,2.0874 L 15.5589,2.0951 L 15.5589,2.1029 L 15.5512,2.1029 L 15.5512,2.1107 L 15.5435,2.1107 L 15.5435,2.1185 L 15.5358,2.1185 L 15.5358,2.1263 L 15.5281,2.1263 L 15.5205,2.1341 L 15.5281,2.1419 L 15.5358,2.1419 L 15.5358,2.1497 L 15.5435,2.1497 L 15.5435,2.1575 L 15.5512,2.1575 L 15.5512,2.1652 L 15.5589,2.1652 L 15.5589,2.1730 L 15.5666,2.1808 L 15.5666,2.1886 L 15.5742,2.1886 L 15.5742,2.2042 L 15.5819,2.2120 L 15.5819,2.4846 L 15.5896,2.4846 L 15.5896,2.5001 L 15.5973,2.5001 L 15.5973,2.5079 L 15.6050,2.5079 L 15.6050,2.5157 L 15.4052,2.5157 L 15.3975,2.5079 L 15.3898,2.5079 L 15.3668,2.4846 L 15.3668,2.4768 L 15.3591,2.4690 L 15.3591,2.1341 L 14.7675,2.1341 L 14.7598,2.1341 Z" stroke="#000000" stroke-width="0.1200" stroke-linecap="round" stroke-linejoin="round" fill="#000000"/>
        <path d="M 15.9815,1.7135 L 15.7510,1.7135 L 15.7433,1.7057 L 15.7356,1.7057 L 15.7126,1.6823 L 15.7126,1.6746 L 15.7049,1.6668 L 15.7049,1.5655 L 15.7126,1.5577 L 15.7126,1.5499 L 15.7202,1.5421 L 15.7279,1.5421 L 15.7279,1.5344 L 15.7356,1.5266 L 15.7433,1.5266 L 15.7510,1.5188 L 16.7959,1.5188 L 16.8036,1.5266 L 16.8113,1.5266 L 16.8343,1.5499 L 16.8343,1.5577 L 16.8420,1.5655 L 16.8420,1.7447 L 16.8343,1.7447 L 16.8343,1.7369 L 16.8266,1.7369 L 16.8266,1.7291 L 16.8190,1.7291 L 16.8190,1.7213 L 16.8036,1.7213 L 16.8036,1.7135 L 16.2350,1.7135 L 16.2350,1.7213 L 16.2197,1.7213 L 16.2197,1.7291 L 16.2120,1.7291 L 16.2120,1.7447 L 16.2043,1.7447 L 16.2043,2.4846 L 16.2120,2.4846 L 16.2120,2.5001 L 16.2197,2.5001 L 16.2197,2.5079 L 16.2273,2.5079 L 16.2273,2.5157 L 16.0276,2.5157 L 16.0199,2.5079 L 16.0122,2.5079 L 15.9892,2.4846 L 15.9892,2.4768 L 15.9815,2.4690 L 15.9815,1.7369 L 15.9815,1.7135 Z" stroke="#000000" stroke-width="0.1200" stroke-linecap="round" stroke-linejoin="round" fill="#000000"/>
        <path d="M 17.1878,2.4612 L 17.1878,2.4846 L 17.1954,2.4846 L 17.1954,2.5001 L 17.2031,2.5001 L 17.2031,2.5079 L 17.2108,2.5079 L 17.2108,2.5157 L 17.0110,2.5157 L 17.0034,2.5079 L 16.9957,2.5079 L 16.9726,2.4846 L 16.9726,2.4768 L 16.9649,2.4690 L 16.9649,1.5499 L 16.9573,1.5499 L 16.9573,1.5344 L 16.9496,1.5344 L 16.9496,1.5266 L 16.9419,1.5266 L 16.9419,1.5188 L 17.1417,1.5188 L 17.1493,1.5266 L 17.1570,1.5266 L 17.1801,1.5499 L 17.1801,1.5577 L 17.1878,1.5655 L 17.1878,2.4534 L 17.1878,2.4612 Z" stroke="#000000" stroke-width="0.1200" stroke-linecap="round" stroke-linejoin="round" fill="#000000"/>
        <path d="M 18.2788,1.7135 L 17.6180,1.7135 L 17.6180,1.7213 L 17.6027,1.7213 L 17.6027,1.7291 L 17.5950,1.7291 L 17.5950,1.7447 L 17.5873,1.7447 L 17.5873,2.4846 L 17.5950,2.4846 L 17.5950,2.5001 L 17.6027,2.5001 L 17.6027,2.5079 L 17.6104,2.5079 L 17.6104,2.5157 L 17.4106,2.5157 L 17.4029,2.5079 L 17.3952,2.5079 L 17.3722,2.4846 L 17.3722,2.4768 L 17.3645,2.4690 L 17.3645,1.5655 L 17.3722,1.5577 L 17.3722,1.5499 L 17.3798,1.5421 L 17.3875,1.5421 L 17.3875,1.5344 L 17.3952,1.5266 L 17.4029,1.5266 L 17.4106,1.5188 L 18.4555,1.5188 L 18.4632,1.5266 L 18.4709,1.5266 L 18.4939,1.5499 L 18.4939,1.5577 L 18.5016,1.5655 L 18.5016,2.4846 L 18.5093,2.4846 L 18.5093,2.5001 L 18.5170,2.5001 L 18.5170,2.5079 L 18.5247,2.5079 L 18.5247,2.5157 L 18.3249,2.5157 L 18.3172,2.5079 L 18.3095,2.5079 L 18.2865,2.4846 L 18.2865,2.4768 L 18.2788,2.4690 L 18.2788,1.7369 L 18.2788,1.7135 Z" stroke="#000000" stroke-width="0.1200" stroke-linecap="round" stroke-linejoin="round" fill="#000000"/>
        <path d="M 19.6311,1.9394 L 18.9242,1.9394 L 18.9165,1.9316 L 18.9088,1.9316 L 18.9088,1.9238 L 18.9012,1.9238 L 18.9012,1.9082 L 18.8935,1.9082 L 18.8935,2.1029 L 18.9012,2.1029 L 18.9012,2.1185 L 18.9088,2.1185 L 18.9088,2.1263 L 18.9165,2.1263 L 18.9242,2.1341 L 19.6388,2.1341 L 19.6541,2.1185 L 19.6618,2.1185 L 19.6772,2.1029 L 19.6772,2.0951 L 19.6849,2.0874 L 19.6849,2.0796 L 19.6926,2.0718 L 19.6926,2.0562 L 19.7002,2.0484 L 19.7002,2.0173 L 19.6926,2.0095 L 19.6926,1.9861 L 19.6849,1.9861 L 19.6849,1.9783 L 19.6618,1.9549 L 19.6541,1.9549 L 19.6541,1.9472 L 19.6465,1.9472 L 19.6388,1.9394 L 19.6311,1.9394 Z" stroke="#000000" stroke-width="0.1200" stroke-linecap="round" stroke-linejoin="round" fill="#000000"/>
        <path d="M 20.1612,1.7135 L 19.9307,1.7135 L 19.9231,1.7057 L 19.9154,1.7057 L 19.8923,1.6823 L 19.8923,1.6746 L 19.8846,1.6668 L 19.8846,1.5655 L 19.8923,1.5577 L 19.8923,1.5499 L 19.9000,1.5421 L 19.9077,1.5421 L 19.9077,1.5344 L 19.9154,1.5266 L 19.9231,1.5266 L 19.9307,1.5188 L 20.9757,1.5188 L 20.9834,1.5266 L 20.9910,1.5266 L 21.0141,1.5499 L 21.0141,1.5577 L 21.0218,1.5655 L 21.0218,1.7447 L 21.0141,1.7447 L 21.0141,1.7369 L 21.0064,1.7369 L 21.0064,1.7291 L 20.9987,1.7291 L 20.9987,1.7213 L 20.9834,1.7213 L 20.9834,1.7135 L 20.4148,1.7135 L 20.4148,1.7213 L 20.3994,1.7213 L 20.3994,1.7291 L 20.3917,1.7291 L 20.3917,1.7447 L 20.3841,1.7447 L 20.3841,2.4846 L 20.3917,2.4846 L 20.3917,2.5001 L 20.3994,2.5001 L 20.3994,2.5079 L 20.4071,2.5079 L 20.4071,2.5157 L 20.2073,2.5157 L 20.1997,2.5079 L 20.1920,2.5079 L 20.1689,2.4846 L 20.1689,2.4768 L 20.1612,2.4690 L 20.1612,1.7369 L 20.1612,1.7135 Z" stroke="#000000" stroke-width="0.1200" stroke-linecap="round" stroke-linejoin="round" fill="#000000"/>
        <path d="M 19.7079,2.3210 L 19.7233,2.3210 L 19.7233,2.3132 L 19.7387,2.3132 L 19.7387,2.3054 L 19.7463,2.3054 L 19.7463,2.2976 L 19.7540,2.2976 L 19.7540,2.2899 L 19.7617,2.2899 L 19.7617,2.4690 L 19.7540,2.4768 L 19.7540,2.4846 L 19.7463,2.4924 L 19.7463,2.5001 L 19.7387,2.5001 L 19.7310,2.5079 L 19.7233,2.5079 L 19.7156,2.5157 L 18.6707,2.5157 L 18.6630,2.5079 L 18.6553,2.5079 L 18.6322,2.4846 L 18.6322,2.4768 L 18.6246,2.4690 L 18.6246,1.5655 L 18.6322,1.5577 L 18.6322,1.5499 L 18.6399,1.5421 L 18.6476,1.5421 L 18.6476,1.5344 L 18.6553,1.5266 L 18.6630,1.5266 L 18.6707,1.5188 L 19.7156,1.5188 L 19.7233,1.5266 L 19.7310,1.5266 L 19.7540,1.5499 L 19.7540,1.5577 L 19.7617,1.5655 L 19.7617,1.7447 L 19.7540,1.7447 L 19.7540,1.7369 L 19.7463,1.7369 L 19.7463,1.7291 L 19.7387,1.7291 L 19.7387,1.7213 L 19.7233,1.7213 L 19.7233,1.7135 L 18.8781,1.7135 L 18.8781,1.7213 L 18.8627,1.7213 L 18.8627,1.7291 L 18.8551,1.7291 L 18.8551,1.7447 L 18.8474,1.7447 L 18.8474,2.3210 L 19.7002,2.3210 L 19.7079,2.3210 Z" stroke="#000000" stroke-width="0.1200" stroke-linecap="round" stroke-linejoin="round" fill="#000000"/>
        <path d="M 13.5689,2.2275 L 13.5689,2.5157 L 13.9377,2.5157 L 13.9377,2.2275 L 13.5689,2.2275 Z" stroke="#FF0000" stroke-width="0.1200" stroke-linecap="round" stroke-linejoin="round" fill="#FF0000"/>
        <path d="M 13.1847,1.8771 L 13.4997,1.8771 L 13.4997,2.1575 L 13.1847,2.1575 L 13.1847,1.8771 Z" stroke="#FF0000" stroke-width="0.1200" stroke-linecap="round" stroke-linejoin="round" fill="#FF0000"/>
        <path d="M 14.0068,2.2275 L 14.0068,2.5157 L 14.1221,2.5157 L 14.1298,2.5079 L 14.1605,2.5079 L 14.1682,2.5001 L 14.1836,2.5001 L 14.1989,2.4924 L 14.2066,2.4846 L 14.2220,2.4768 L 14.2373,2.4612 L 14.2527,2.4534 L 14.2604,2.4456 L 14.2681,2.4301 L 14.2758,2.4223 L 14.3065,2.3600 L 14.3065,2.3444 L 14.3142,2.3210 L 14.3142,2.2976 L 14.3219,2.2743 L 14.3219,2.2275 L 14.0145,2.2275 L 14.0068,2.2275 Z" stroke="#FF0000" stroke-width="0.1200" stroke-linecap="round" stroke-linejoin="round" fill="#FF0000"/>
        <path d="M 14.0068,1.8771 L 14.3219,1.8771 L 14.3219,2.1575 L 14.0068,2.1575 L 14.0068,1.8771 Z" stroke="#FF0000" stroke-width="0.1200" stroke-linecap="round" stroke-linejoin="round" fill="#FF0000"/>
        <path d="M 13.4997,2.2275 L 13.4997,2.5157 L 13.3845,2.5157 L 13.3768,2.5079 L 13.3461,2.5079 L 13.3384,2.5001 L 13.3230,2.5001 L 13.3076,2.4924 L 13.3000,2.4846 L 13.2846,2.4768 L 13.2692,2.4612 L 13.2539,2.4534 L 13.2462,2.4456 L 13.2385,2.4301 L 13.2308,2.4223 L 13.2001,2.3600 L 13.2001,2.3444 L 13.1924,2.3210 L 13.1924,2.2976 L 13.1847,2.2743 L 13.1847,2.2275 L 13.4920,2.2275 L 13.4997,2.2275 Z" stroke="#FF0000" stroke-width="0.1200" stroke-linecap="round" stroke-linejoin="round" fill="#FF0000"/>
        <path d="M 13.5689,1.5188 L 13.5689,1.8070 L 13.9377,1.8070 L 13.9377,1.5188 L 13.5689,1.5188 Z" stroke="#FF0000" stroke-width="0.1200" stroke-linecap="round" stroke-linejoin="round" fill="#FF0000"/>
        <path d="M 14.0068,1.8070 L 14.0068,1.5188 L 14.1221,1.5188 L 14.1298,1.5266 L 14.1605,1.5266 L 14.1682,1.5344 L 14.1836,1.5344 L 14.1989,1.5421 L 14.2066,1.5499 L 14.2220,1.5577 L 14.2373,1.5733 L 14.2527,1.5811 L 14.2604,1.5889 L 14.2681,1.6045 L 14.2758,1.6122 L 14.3065,1.6746 L 14.3065,1.6901 L 14.3142,1.7135 L 14.3142,1.7369 L 14.3219,1.7602 L 14.3219,1.8070 L 14.0145,1.8070 L 14.0068,1.8070 Z" stroke="#FF0000" stroke-width="0.1200" stroke-linecap="round" stroke-linejoin="round" fill="#FF0000"/>
        <path d="M 13.4997,1.8070 L 13.4997,1.5188 L 13.3845,1.5188 L 13.3768,1.5266 L 13.3461,1.5266 L 13.3384,1.5344 L 13.3230,1.5344 L 13.3076,1.5421 L 13.3000,1.5499 L 13.2846,1.5577 L 13.2692,1.5733 L 13.2539,1.5811 L 13.2462,1.5889 L 13.2385,1.6045 L 13.2308,1.6122 L 13.2001,1.6746 L 13.2001,1.6901 L 13.1924,1.7135 L 13.1924,1.7369 L 13.1847,1.7602 L 13.1847,1.8070 L 13.4920,1.8070 L 13.4997,1.8070 Z" stroke="#FF0000" stroke-width="0.1200" stroke-linecap="round" stroke-linejoin="round" fill="#FF0000"/>
        <path d="M 26.7379,7.4793 L 26.1486,7.4793 L 26.1486,8.0682 L 26.7379,8.0682 L 26.7379,7.4793 Z" stroke="#000000" stroke-width="0.1200" stroke-linecap="round" stroke-linejoin="round" fill="#00FF00"/>
        <path d="M 26.7379,8.5983 L 26.1486,8.5983 L 26.1486,9.1872 L 26.7379,9.1872 L 26.7379,8.5983 Z" stroke="#000000" stroke-width="0.1200" stroke-linecap="round" stroke-linejoin="round" fill="#00FF00"/>
        <path d="M 26.7379,9.7320 L 26.1486,9.7320 L 26.1486,10.3209 L 26.7379,10.3209 L 26.7379,9.7320 Z" stroke="#000000" stroke-width="0.1200" stroke-linecap="round" stroke-linejoin="round" fill="#00FF00"/>
        <path d="M 26.7379,6.3456 L 26.1486,6.3456 L 26.1486,6.9346 L 26.7379,6.9346 L 26.7379,6.3456 Z" stroke="#000000" stroke-width="0.1200" stroke-linecap="round" stroke-linejoin="round" fill="#00FF00"/>
        <text font-family="Arial" fill="#000000" style="white-space:pre;" font-weight="400" text-anchor="start" x="29.6842" y="7.6326" font-size="0.2357"><![CDATA[FortiGate 100E]]></text>
        <text font-family="Symbol" fill="#000000" style="white-space:pre;" text-anchor="start" x="20.6427" y="2.4970" font-size="0.3443"><![CDATA[]]></text>
        <text font-family="Arial" fill="#000000" style="white-space:pre;" font-weight="400" text-anchor="start" x="23.1400" y="2.8584" font-size="0.0533"><![CDATA[STATUS]]></text>
        <text font-family="Arial" fill="#000000" style="white-space:pre;" font-weight="400" text-anchor="start" x="23.1400" y="2.9595" font-size="0.0533"><![CDATA[ALARM]]></text>
        <text font-family="Arial" fill="#000000" style="white-space:pre;" font-weight="400" text-anchor="start" x="23.1400" y="3.0606" font-size="0.0533"><![CDATA[HA]]></text>
        <text font-family="Arial" fill="#000000" style="white-space:pre;" font-weight="400" text-anchor="start" x="23.1400" y="3.1617" font-size="0.0533"><![CDATA[POWER]]></text>
        <text font-family="Arial" fill="#000000" style="white-space:pre;" font-weight="400" text-anchor="start" x="23.6831" y="2.7422" font-size="0.0533"><![CDATA[USB]]></text>
        <text font-family="Arial" fill="#000000" style="white-space:pre;" font-weight="400" text-anchor="start" x="24.0371" y="2.7422" font-size="0.0533"><![CDATA[CONSOLE]]></text>
        <text font-family="Arial" fill="#000000" style="white-space:pre;" font-weight="400" text-anchor="start" x="24.6772" y="2.4086" font-size="0.0533"><![CDATA[DMZ]]></text>
        <text font-family="Arial" fill="#000000" style="white-space:pre;" font-weight="400" text-anchor="start" x="25.2154" y="2.4086" font-size="0.0533"><![CDATA[WAN 1]]></text>
        <text font-family="Arial" fill="#000000" style="white-space:pre;" font-weight="400" text-anchor="start" x="25.8167" y="2.4086" font-size="0.0533"><![CDATA[HA 1]]></text>
        <text font-family="Arial" fill="#000000" style="white-space:pre;" font-weight="400" text-anchor="start" x="26.4083" y="2.4086" font-size="0.0533"><![CDATA[1]]></text>
        <text font-family="Arial" fill="#000000" style="white-space:pre;" font-weight="400" text-anchor="start" x="25.8167" y="3.2476" font-size="0.0533"><![CDATA[HA 2]]></text>
        <text font-family="Arial" fill="#000000" style="white-space:pre;" font-weight="400" text-anchor="start" x="25.2154" y="3.2476" font-size="0.0533"><![CDATA[WAN 2]]></text>
        <text font-family="Arial" fill="#000000" style="white-space:pre;" font-weight="400" text-anchor="start" x="24.6578" y="3.2476" font-size="0.0533"><![CDATA[MGMT]]></text>
        <text font-family="Arial" fill="#000000" style="white-space:pre;" font-weight="400" text-anchor="start" x="26.4083" y="3.2476" font-size="0.0533"><![CDATA[2]]></text>
        <text font-family="Arial" fill="#000000" style="white-space:pre;" font-weight="400" text-anchor="start" x="26.8011" y="3.2476" font-size="0.0533"><![CDATA[4]]></text>
        <text font-family="Arial" fill="#000000" style="white-space:pre;" font-weight="400" text-anchor="start" x="26.8011" y="2.4086" font-size="0.0533"><![CDATA[3]]></text>
        <text font-family="Arial" fill="#000000" style="white-space:pre;" font-weight="400" text-anchor="start" x="27.1890" y="3.2476" font-size="0.0533"><![CDATA[6]]></text>
        <text font-family="Arial" fill="#000000" style="white-space:pre;" font-weight="400" text-anchor="start" x="27.1890" y="2.4086" font-size="0.0533"><![CDATA[5]]></text>
        <text font-family="Arial" fill="#000000" style="white-space:pre;" font-weight="400" text-anchor="start" x="27.5818" y="3.2476" font-size="0.0533"><![CDATA[8]]></text>
        <text font-family="Arial" fill="#000000" style="white-space:pre;" font-weight="400" text-anchor="start" x="27.5818" y="2.4086" font-size="0.0533"><![CDATA[7]]></text>
        <text font-family="Arial" fill="#000000" style="white-space:pre;" font-weight="400" text-anchor="start" x="28.1103" y="3.2476" font-size="0.0533"><![CDATA[10]]></text>
        <text font-family="Arial" fill="#000000" style="white-space:pre;" font-weight="400" text-anchor="start" x="28.1249" y="2.4086" font-size="0.0533"><![CDATA[9]]></text>
        <text font-family="Arial" fill="#000000" style="white-space:pre;" font-weight="400" text-anchor="start" x="28.5031" y="3.2476" font-size="0.0533"><![CDATA[12]]></text>
        <text font-family="Arial" fill="#000000" style="white-space:pre;" font-weight="400" text-anchor="start" x="28.5031" y="2.4086" font-size="0.0533"><![CDATA[11]]></text>
        <text font-family="Arial" fill="#000000" style="white-space:pre;" font-weight="400" text-anchor="start" x="28.8911" y="3.2476" font-size="0.0533"><![CDATA[14]]></text>
        <text font-family="Arial" fill="#000000" style="white-space:pre;" font-weight="400" text-anchor="start" x="28.8911" y="2.4086" font-size="0.0533"><![CDATA[13]]></text>
        <text font-family="Arial" fill="#000000" style="white-space:pre;" font-weight="400" text-anchor="start" x="29.2838" y="3.2476" font-size="0.0533"><![CDATA[16]]></text>
        <text font-family="Arial" fill="#000000" style="white-space:pre;" font-weight="400" text-anchor="start" x="29.2838" y="2.4086" font-size="0.0533"><![CDATA[15]]></text>
        <text font-family="Arial" fill="#000000" style="white-space:pre;" font-weight="400" text-anchor="start" x="29.7687" y="2.4086" font-size="0.0533"><![CDATA[SFP 1]]></text>
        <text font-family="Arial" fill="#000000" style="white-space:pre;" font-weight="400" text-anchor="start" x="29.7687" y="3.2476" font-size="0.0533"><![CDATA[SFP 2]]></text>
        <text font-family="Arial" fill="#000000" style="white-space:pre;" font-weight="400" text-anchor="start" x="29.3760" y="2.3557" font-size="0.0339"><![CDATA[SHARED INTERFACES]]></text>
        <ellipse cx="24.3985" cy="9.9966" rx="0.2109" ry="0.2109" fill="#000000" stroke="#000000" stroke-width="0.1200" stroke-linecap="round" stroke-linejoin="round"/>
        <ellipse cx="24.3985" cy="9.9966" rx="0.2109" ry="0.2109" fill="none" stroke="#0A0A0A" stroke-width="0.1200" stroke-linecap="round" stroke-linejoin="round"/>
        <path d="M 35.1845,6.7347 L 35.1845,6.6925 L 35.1704,6.6925 L 35.1704,6.6644 L 35.1564,6.6503 L 35.1564,6.6363 L 35.1423,6.6363 L 35.1423,6.6222 L 35.1282,6.6222 L 35.1282,6.6081 L 35.1142,6.6081 L 35.1001,6.5941 L 35.0720,6.5941 L 35.0720,6.5800 L 33.6939,6.5800 L 33.6939,6.5941 L 33.6657,6.5941 L 33.6517,6.6081 L 33.6376,6.6081 L 33.6376,6.6222 L 33.6235,6.6222 L 33.6235,6.6363 L 33.6095,6.6363 L 33.6095,6.6503 L 33.5954,6.6644 L 33.5954,6.6925 L 33.5814,6.6925 L 33.5814,10.2075 L 33.5954,10.2075 L 33.5954,10.2356 L 33.6095,10.2497 L 33.6095,10.2637 L 33.6235,10.2637 L 33.6235,10.2778 L 33.6376,10.2778 L 33.6376,10.2918 L 33.6517,10.2918 L 33.6657,10.3059 L 33.6939,10.3059 L 33.6939,10.3200 L 35.0720,10.3200 L 35.0720,10.3059 L 35.1001,10.3059 L 35.1142,10.2918 L 35.1282,10.2918 L 35.1282,10.2778 L 35.1423,10.2778 L 35.1423,10.2637 L 35.1564,10.2637 L 35.1564,10.2497 L 35.1704,10.2356 L 35.1704,10.2075 L 35.1845,10.2075 L 35.1845,6.7487 L 35.1845,6.7347 Z" stroke="#000000" stroke-width="0.1200" stroke-linecap="round" stroke-linejoin="round" fill="#BFBFBF"/>
        <path d="M 35.0579,6.7909 L 35.0579,6.7487 L 35.0439,6.7487 L 35.0439,6.7347 L 35.0298,6.7206 L 35.0157,6.7206 L 35.0157,6.7066 L 33.7501,6.7066 L 33.7360,6.7206 L 33.7220,6.7206 L 33.7220,6.7347 L 33.7079,6.7347 L 33.7079,6.7487 L 33.6939,6.7628 L 33.6939,10.1512 L 33.7079,10.1512 L 33.7079,10.1653 L 33.7220,10.1653 L 33.7220,10.1794 L 33.7360,10.1794 L 33.7501,10.1934 L 35.0157,10.1934 L 35.0157,10.1794 L 35.0439,10.1794 L 35.0439,10.1512 L 35.0579,10.1512 L 35.0579,6.8050 L 35.0579,6.7909 Z" stroke="#7F7F7F" stroke-width="0.1200" stroke-linecap="round" stroke-linejoin="round" fill="#000000"/>
        <path d="M 34.3548,7.5361 L 34.3548,7.2268 L 34.4251,7.2268 L 34.4251,7.5361 L 34.3548,7.5361 Z" stroke="#000000" stroke-width="0.1200" stroke-linecap="round" stroke-linejoin="round" fill="#E2E2CC"/>
        <path d="M 34.3548,8.2391 L 34.3548,7.9298 L 34.4251,7.9298 L 34.4251,8.2391 L 34.3548,8.2391 Z" stroke="#000000" stroke-width="0.1200" stroke-linecap="round" stroke-linejoin="round" fill="#E2E2CC"/>
        <path d="M 34.3548,8.9280 L 34.3548,8.6187 L 34.4251,8.6187 L 34.4251,8.9280 L 34.3548,8.9280 Z" stroke="#000000" stroke-width="0.1200" stroke-linecap="round" stroke-linejoin="round" fill="#E2E2CC"/>
        <path d="M 34.3548,9.6451 L 34.3548,9.3358 L 34.4251,9.3358 L 34.4251,9.6451 L 34.3548,9.6451 Z" stroke="#000000" stroke-width="0.1200" stroke-linecap="round" stroke-linejoin="round" fill="#E2E2CC"/>
        <path d="M 34.7907,9.9825 L 34.8189,9.9825 L 34.8470,9.9685 L 34.8611,9.9403 L 34.8611,6.9596 L 34.8470,6.9315 L 34.8189,6.9175 L 34.4673,6.9175 L 34.4392,6.9315 L 34.4251,6.9596 L 34.4251,9.9403 L 34.4392,9.9685 L 34.4673,9.9825 L 34.4954,9.9825 L 34.7907,9.9825 Z" stroke="#000000" stroke-width="0.1200" stroke-linecap="round" stroke-linejoin="round" fill="#0000FF"/>
        <path d="M 34.6501,9.8700 L 34.7064,9.8560 L 34.7626,9.7997 L 34.7767,9.7435 L 34.7767,7.1565 L 34.7626,7.1002 L 34.7064,7.0440 L 34.6501,7.0299 L 34.5939,7.0440 L 34.5376,7.1002 L 34.5236,7.1565 L 34.5236,9.7435 L 34.5376,9.7997 L 34.5939,9.8560 L 34.6501,9.8700 Z" stroke="#6565FF" stroke-width="0.1200" stroke-linecap="round" stroke-linejoin="round" fill="#6565FF"/>
        <path d="M 37.4654,9.5303 L 37.4654,7.4079 L 38.3584,7.4079 L 38.3584,6.9085 L 38.7212,6.9085 L 38.7212,6.4091 L 39.7817,6.4091 L 39.7817,6.9085 L 40.1444,6.9085 L 40.1444,7.4079 L 41.0375,7.4079 L 41.0375,9.5303 L 37.4654,9.5303 Z" stroke="#161616" stroke-width="0.1200" stroke-linecap="round" stroke-linejoin="round" fill="#000000"/>
        <path d="M 45.2814,2.2473 L 45.2814,2.3999 L 45.0564,2.3999 L 45.0564,2.8300 L 44.1142,2.8300 L 44.1142,2.8716 L 43.8189,2.8716 L 43.8189,2.3999 L 43.8751,2.3999 L 43.8751,2.8300 L 44.1142,2.8300 L 44.1142,3.7872 L 44.2126,3.7872 L 44.2126,4.2866 L 44.1142,4.2866 L 44.1142,5.3686 L 47.7142,5.3686 L 47.7142,4.2866 L 47.6158,4.2866 L 47.6158,3.7872 L 47.7142,3.7872 L 47.7142,2.8300 L 47.9533,2.8300 L 47.9533,2.3999 L 48.0095,2.3999 L 48.0095,2.8716 L 47.7142,2.8716 L 47.7142,2.8300 L 46.7720,2.8300 L 46.7720,2.3999 L 46.5470,2.3999 L 46.5470,2.2473 L 45.2814,2.2473 Z" stroke="#000000" stroke-width="0.1200" stroke-linecap="round" stroke-linejoin="round" fill="#000000"/>
        <path d="M 45.0564,2.4138 L 43.8751,2.4138 L 43.8751,2.8438 L 45.0564,2.8438 L 45.0564,2.4138 Z" stroke="#494949" stroke-width="0.1200" stroke-linecap="round" stroke-linejoin="round" fill="#000000"/>
        <path d="M 47.9533,2.4138 L 46.7720,2.4138 L 46.7720,2.8438 L 47.9533,2.8438 L 47.9533,2.4138 Z" stroke="#494949" stroke-width="0.1200" stroke-linecap="round" stroke-linejoin="round" fill="#000000"/>
        <path d="M 45.2814,10.2656 L 45.2814,10.1130 L 45.0564,10.1130 L 45.0564,9.6829 L 44.1142,9.6829 L 44.1142,9.6413 L 43.8189,9.6413 L 43.8189,10.1130 L 43.8751,10.1130 L 43.8751,9.6829 L 44.1142,9.6829 L 44.1142,8.7257 L 44.2126,8.7257 L 44.2126,8.2263 L 44.1142,8.2263 L 44.1142,7.1443 L 47.7142,7.1443 L 47.7142,8.2263 L 47.6158,8.2263 L 47.6158,8.7257 L 47.7142,8.7257 L 47.7142,9.6829 L 47.9533,9.6829 L 47.9533,10.1130 L 48.0095,10.1130 L 48.0095,9.6413 L 47.7142,9.6413 L 47.7142,9.6829 L 46.7720,9.6829 L 46.7720,10.1130 L 46.5470,10.1130 L 46.5470,10.2656 L 45.2814,10.2656 Z" stroke="#000000" stroke-width="0.1200" stroke-linecap="round" stroke-linejoin="round" fill="#000000"/>
        <path d="M 45.0564,9.6829 L 43.8751,9.6829 L 43.8751,10.1130 L 45.0564,10.1130 L 45.0564,9.6829 Z" stroke="#494949" stroke-width="0.1200" stroke-linecap="round" stroke-linejoin="round" fill="#000000"/>
        <path d="M 47.9533,9.6829 L 46.7720,9.6829 L 46.7720,10.1130 L 47.9533,10.1130 L 47.9533,9.6829 Z" stroke="#494949" stroke-width="0.1200" stroke-linecap="round" stroke-linejoin="round" fill="#000000"/>
        <path d="M 51.8627,2.2473 L 51.8627,2.3999 L 51.6377,2.3999 L 51.6377,2.8300 L 50.6955,2.8300 L 50.6955,2.8716 L 50.4002,2.8716 L 50.4002,2.3999 L 50.4564,2.3999 L 50.4564,2.8300 L 50.6955,2.8300 L 50.6955,3.7872 L 50.7939,3.7872 L 50.7939,4.2866 L 50.6955,4.2866 L 50.6955,5.3686 L 54.2955,5.3686 L 54.2955,4.2866 L 54.1971,4.2866 L 54.1971,3.7872 L 54.2955,3.7872 L 54.2955,2.8300 L 54.5346,2.8300 L 54.5346,2.3999 L 54.5908,2.3999 L 54.5908,2.8716 L 54.2955,2.8716 L 54.2955,2.8300 L 53.3533,2.8300 L 53.3533,2.3999 L 53.1283,2.3999 L 53.1283,2.2473 L 51.8627,2.2473 Z" stroke="#000000" stroke-width="0.1200" stroke-linecap="round" stroke-linejoin="round" fill="#000000"/>
        <path d="M 51.6377,2.4138 L 50.4564,2.4138 L 50.4564,2.8438 L 51.6377,2.8438 L 51.6377,2.4138 Z" stroke="#494949" stroke-width="0.1200" stroke-linecap="round" stroke-linejoin="round" fill="#000000"/>
        <path d="M 54.5346,2.4138 L 53.3533,2.4138 L 53.3533,2.8438 L 54.5346,2.8438 L 54.5346,2.4138 Z" stroke="#494949" stroke-width="0.1200" stroke-linecap="round" stroke-linejoin="round" fill="#000000"/>
        <path d="M 51.8627,10.2656 L 51.8627,10.1130 L 51.6377,10.1130 L 51.6377,9.6829 L 50.6955,9.6829 L 50.6955,9.6413 L 50.4002,9.6413 L 50.4002,10.1130 L 50.4564,10.1130 L 50.4564,9.6829 L 50.6955,9.6829 L 50.6955,8.7257 L 50.7939,8.7257 L 50.7939,8.2263 L 50.6955,8.2263 L 50.6955,7.1443 L 54.2955,7.1443 L 54.2955,8.2263 L 54.1971,8.2263 L 54.1971,8.7257 L 54.2955,8.7257 L 54.2955,9.6829 L 54.5346,9.6829 L 54.5346,10.1130 L 54.5908,10.1130 L 54.5908,9.6413 L 54.2955,9.6413 L 54.2955,9.6829 L 53.3533,9.6829 L 53.3533,10.1130 L 53.1283,10.1130 L 53.1283,10.2656 L 51.8627,10.2656 Z" stroke="#000000" stroke-width="0.1200" stroke-linecap="round" stroke-linejoin="round" fill="#000000"/>
        <path d="M 51.6377,9.6829 L 50.4564,9.6829 L 50.4564,10.1130 L 51.6377,10.1130 L 51.6377,9.6829 Z" stroke="#494949" stroke-width="0.1200" stroke-linecap="round" stroke-linejoin="round" fill="#000000"/>
        <path d="M 54.5346,9.6829 L 53.3533,9.6829 L 53.3533,10.1130 L 54.5346,10.1130 L 54.5346,9.6829 Z" stroke="#494949" stroke-width="0.1200" stroke-linecap="round" stroke-linejoin="round" fill="#000000"/>
        <path d="M 58.5564,2.2473 L 58.5564,2.3999 L 58.3314,2.3999 L 58.3314,2.8300 L 57.3893,2.8300 L 57.3893,2.8716 L 57.0939,2.8716 L 57.0939,2.3999 L 57.1502,2.3999 L 57.1502,2.8300 L 57.3893,2.8300 L 57.3893,3.7872 L 57.4877,3.7872 L 57.4877,4.2866 L 57.3893,4.2866 L 57.3893,5.3686 L 60.9893,5.3686 L 60.9893,4.2866 L 60.8908,4.2866 L 60.8908,3.7872 L 60.9893,3.7872 L 60.9893,2.8300 L 61.2283,2.8300 L 61.2283,2.3999 L 61.2846,2.3999 L 61.2846,2.8716 L 60.9893,2.8716 L 60.9893,2.8300 L 60.0471,2.8300 L 60.0471,2.3999 L 59.8221,2.3999 L 59.8221,2.2473 L 58.5564,2.2473 Z" stroke="#000000" stroke-width="0.1200" stroke-linecap="round" stroke-linejoin="round" fill="#000000"/>
        <path d="M 58.3314,2.4138 L 57.1502,2.4138 L 57.1502,2.8438 L 58.3314,2.8438 L 58.3314,2.4138 Z" stroke="#494949" stroke-width="0.1200" stroke-linecap="round" stroke-linejoin="round" fill="#000000"/>
        <path d="M 61.2283,2.4138 L 60.0471,2.4138 L 60.0471,2.8438 L 61.2283,2.8438 L 61.2283,2.4138 Z" stroke="#494949" stroke-width="0.1200" stroke-linecap="round" stroke-linejoin="round" fill="#000000"/>
        <path d="M 58.5564,10.2656 L 58.5564,10.1130 L 58.3314,10.1130 L 58.3314,9.6829 L 57.3893,9.6829 L 57.3893,9.6413 L 57.0939,9.6413 L 57.0939,10.1130 L 57.1502,10.1130 L 57.1502,9.6829 L 57.3893,9.6829 L 57.3893,8.7257 L 57.4877,8.7257 L 57.4877,8.2263 L 57.3893,8.2263 L 57.3893,7.1443 L 60.9893,7.1443 L 60.9893,8.2263 L 60.8908,8.2263 L 60.8908,8.7257 L 60.9893,8.7257 L 60.9893,9.6829 L 61.2283,9.6829 L 61.2283,10.1130 L 61.2846,10.1130 L 61.2846,9.6413 L 60.9893,9.6413 L 60.9893,9.6829 L 60.0471,9.6829 L 60.0471,10.1130 L 59.8221,10.1130 L 59.8221,10.2656 L 58.5564,10.2656 Z" stroke="#000000" stroke-width="0.1200" stroke-linecap="round" stroke-linejoin="round" fill="#000000"/>
        <path d="M 58.3314,9.6829 L 57.1502,9.6829 L 57.1502,10.1130 L 58.3314,10.1130 L 58.3314,9.6829 Z" stroke="#494949" stroke-width="0.1200" stroke-linecap="round" stroke-linejoin="round" fill="#000000"/>
        <path d="M 61.2283,9.6829 L 60.0471,9.6829 L 60.0471,10.1130 L 61.2283,10.1130 L 61.2283,9.6829 Z" stroke="#494949" stroke-width="0.1200" stroke-linecap="round" stroke-linejoin="round" fill="#000000"/>
        <path d="M 64.9127,2.2473 L 64.9127,2.3999 L 64.6877,2.3999 L 64.6877,2.8300 L 63.7455,2.8300 L 63.7455,2.8716 L 63.4502,2.8716 L 63.4502,2.3999 L 63.5065,2.3999 L 63.5065,2.8300 L 63.7455,2.8300 L 63.7455,3.7872 L 63.8440,3.7872 L 63.8440,4.2866 L 63.7455,4.2866 L 63.7455,5.3686 L 67.3455,5.3686 L 67.3455,4.2866 L 67.2471,4.2866 L 67.2471,3.7872 L 67.3455,3.7872 L 67.3455,2.8300 L 67.5846,2.8300 L 67.5846,2.3999 L 67.6408,2.3999 L 67.6408,2.8716 L 67.3455,2.8716 L 67.3455,2.8300 L 66.4033,2.8300 L 66.4033,2.3999 L 66.1783,2.3999 L 66.1783,2.2473 L 64.9127,2.2473 Z" stroke="#000000" stroke-width="0.1200" stroke-linecap="round" stroke-linejoin="round" fill="#000000"/>
        <path d="M 64.6877,2.4138 L 63.5065,2.4138 L 63.5065,2.8438 L 64.6877,2.8438 L 64.6877,2.4138 Z" stroke="#494949" stroke-width="0.1200" stroke-linecap="round" stroke-linejoin="round" fill="#000000"/>
        <path d="M 67.5846,2.4138 L 66.4033,2.4138 L 66.4033,2.8438 L 67.5846,2.8438 L 67.5846,2.4138 Z" stroke="#494949" stroke-width="0.1200" stroke-linecap="round" stroke-linejoin="round" fill="#000000"/>
        <path d="M 64.9127,10.2656 L 64.9127,10.1130 L 64.6877,10.1130 L 64.6877,9.6829 L 63.7455,9.6829 L 63.7455,9.6413 L 63.4502,9.6413 L 63.4502,10.1130 L 63.5065,10.1130 L 63.5065,9.6829 L 63.7455,9.6829 L 63.7455,8.7257 L 63.8440,8.7257 L 63.8440,8.2263 L 63.7455,8.2263 L 63.7455,7.1443 L 67.3455,7.1443 L 67.3455,8.2263 L 67.2471,8.2263 L 67.2471,8.7257 L 67.3455,8.7257 L 67.3455,9.6829 L 67.5846,9.6829 L 67.5846,10.1130 L 67.6408,10.1130 L 67.6408,9.6413 L 67.3455,9.6413 L 67.3455,9.6829 L 66.4033,9.6829 L 66.4033,10.1130 L 66.1783,10.1130 L 66.1783,10.2656 L 64.9127,10.2656 Z" stroke="#000000" stroke-width="0.1200" stroke-linecap="round" stroke-linejoin="round" fill="#000000"/>
        <path d="M 64.6877,9.6829 L 63.5065,9.6829 L 63.5065,10.1130 L 64.6877,10.1130 L 64.6877,9.6829 Z" stroke="#494949" stroke-width="0.1200" stroke-linecap="round" stroke-linejoin="round" fill="#000000"/>
        <path d="M 67.5846,9.6829 L 66.4033,9.6829 L 66.4033,10.1130 L 67.5846,10.1130 L 67.5846,9.6829 Z" stroke="#494949" stroke-width="0.1200" stroke-linecap="round" stroke-linejoin="round" fill="#000000"/>
        <path d="M 69.4690,2.2473 L 69.4690,2.3999 L 69.2440,2.3999 L 69.2440,2.8300 L 68.3018,2.8300 L 68.3018,2.8716 L 68.0065,2.8716 L 68.0065,2.3999 L 68.0627,2.3999 L 68.0627,2.8300 L 68.3018,2.8300 L 68.3018,3.7872 L 68.4002,3.7872 L 68.4002,4.2866 L 68.3018,4.2866 L 68.3018,5.3686 L 71.9018,5.3686 L 71.9018,4.2866 L 71.8034,4.2866 L 71.8034,3.7872 L 71.9018,3.7872 L 71.9018,2.8300 L 72.1409,2.8300 L 72.1409,2.3999 L 72.1971,2.3999 L 72.1971,2.8716 L 71.9018,2.8716 L 71.9018,2.8300 L 70.9596,2.8300 L 70.9596,2.3999 L 70.7346,2.3999 L 70.7346,2.2473 L 69.4690,2.2473 Z" stroke="#000000" stroke-width="0.1200" stroke-linecap="round" stroke-linejoin="round" fill="#000000"/>
        <path d="M 69.2440,2.4138 L 68.0627,2.4138 L 68.0627,2.8438 L 69.2440,2.8438 L 69.2440,2.4138 Z" stroke="#494949" stroke-width="0.1200" stroke-linecap="round" stroke-linejoin="round" fill="#000000"/>
        <path d="M 72.1409,2.4138 L 70.9596,2.4138 L 70.9596,2.8438 L 72.1409,2.8438 L 72.1409,2.4138 Z" stroke="#494949" stroke-width="0.1200" stroke-linecap="round" stroke-linejoin="round" fill="#000000"/>
        <path d="M 69.4690,10.2656 L 69.4690,10.1130 L 69.2440,10.1130 L 69.2440,9.6829 L 68.3018,9.6829 L 68.3018,9.6413 L 68.0065,9.6413 L 68.0065,10.1130 L 68.0627,10.1130 L 68.0627,9.6829 L 68.3018,9.6829 L 68.3018,8.7257 L 68.4002,8.7257 L 68.4002,8.2263 L 68.3018,8.2263 L 68.3018,7.1443 L 71.9018,7.1443 L 71.9018,8.2263 L 71.8034,8.2263 L 71.8034,8.7257 L 71.9018,8.7257 L 71.9018,9.6829 L 72.1409,9.6829 L 72.1409,10.1130 L 72.1971,10.1130 L 72.1971,9.6413 L 71.9018,9.6413 L 71.9018,9.6829 L 70.9596,9.6829 L 70.9596,10.1130 L 70.7346,10.1130 L 70.7346,10.2656 L 69.4690,10.2656 Z" stroke="#000000" stroke-width="0.1200" stroke-linecap="round" stroke-linejoin="round" fill="#000000"/>
        <path d="M 69.2440,9.6829 L 68.0627,9.6829 L 68.0627,10.1130 L 69.2440,10.1130 L 69.2440,9.6829 Z" stroke="#494949" stroke-width="0.1200" stroke-linecap="round" stroke-linejoin="round" fill="#000000"/>
        <path d="M 72.1409,9.6829 L 70.9596,9.6829 L 70.9596,10.1130 L 72.1409,10.1130 L 72.1409,9.6829 Z" stroke="#494949" stroke-width="0.1200" stroke-linecap="round" stroke-linejoin="round" fill="#000000"/>
        <path d="M 73.9690,2.2473 L 73.9690,2.3999 L 73.7440,2.3999 L 73.7440,2.8300 L 72.8018,2.8300 L 72.8018,2.8716 L 72.5065,2.8716 L 72.5065,2.3999 L 72.5627,2.3999 L 72.5627,2.8300 L 72.8018,2.8300 L 72.8018,3.7872 L 72.9002,3.7872 L 72.9002,4.2866 L 72.8018,4.2866 L 72.8018,5.3686 L 76.4018,5.3686 L 76.4018,4.2866 L 76.3034,4.2866 L 76.3034,3.7872 L 76.4018,3.7872 L 76.4018,2.8300 L 76.6409,2.8300 L 76.6409,2.3999 L 76.6971,2.3999 L 76.6971,2.8716 L 76.4018,2.8716 L 76.4018,2.8300 L 75.4596,2.8300 L 75.4596,2.3999 L 75.2346,2.3999 L 75.2346,2.2473 L 73.9690,2.2473 Z" stroke="#000000" stroke-width="0.1200" stroke-linecap="round" stroke-linejoin="round" fill="#000000"/>
        <path d="M 73.7440,2.4138 L 72.5627,2.4138 L 72.5627,2.8438 L 73.7440,2.8438 L 73.7440,2.4138 Z" stroke="#494949" stroke-width="0.1200" stroke-linecap="round" stroke-linejoin="round" fill="#000000"/>
        <path d="M 76.6409,2.4138 L 75.4596,2.4138 L 75.4596,2.8438 L 76.6409,2.8438 L 76.6409,2.4138 Z" stroke="#494949" stroke-width="0.1200" stroke-linecap="round" stroke-linejoin="round" fill="#000000"/>
        <path d="M 73.9690,10.2656 L 73.9690,10.1130 L 73.7440,10.1130 L 73.7440,9.6829 L 72.8018,9.6829 L 72.8018,9.6413 L 72.5065,9.6413 L 72.5065,10.1130 L 72.5627,10.1130 L 72.5627,9.6829 L 72.8018,9.6829 L 72.8018,8.7257 L 72.9002,8.7257 L 72.9002,8.2263 L 72.8018,8.2263 L 72.8018,7.1443 L 76.4018,7.1443 L 76.4018,8.2263 L 76.3034,8.2263 L 76.3034,8.7257 L 76.4018,8.7257 L 76.4018,9.6829 L 76.6409,9.6829 L 76.6409,10.1130 L 76.6971,10.1130 L 76.6971,9.6413 L 76.4018,9.6413 L 76.4018,9.6829 L 75.4596,9.6829 L 75.4596,10.1130 L 75.2346,10.1130 L 75.2346,10.2656 L 73.9690,10.2656 Z" stroke="#000000" stroke-width="0.1200" stroke-linecap="round" stroke-linejoin="round" fill="#000000"/>
        <path d="M 73.7440,9.6829 L 72.5627,9.6829 L 72.5627,10.1130 L 73.7440,10.1130 L 73.7440,9.6829 Z" stroke="#494949" stroke-width="0.1200" stroke-linecap="round" stroke-linejoin="round" fill="#000000"/>
        <path d="M 76.6409,9.6829 L 75.4596,9.6829 L 75.4596,10.1130 L 76.6409,10.1130 L 76.6409,9.6829 Z" stroke="#494949" stroke-width="0.1200" stroke-linecap="round" stroke-linejoin="round" fill="#000000"/>
        <path d="M 78.5253,2.2473 L 78.5253,2.3999 L 78.3003,2.3999 L 78.3003,2.8300 L 77.3581,2.8300 L 77.3581,2.8716 L 77.0628,2.8716 L 77.0628,2.3999 L 77.1190,2.3999 L 77.1190,2.8300 L 77.3581,2.8300 L 77.3581,3.7872 L 77.4565,3.7872 L 77.4565,4.2866 L 77.3581,4.2866 L 77.3581,5.3686 L 80.9581,5.3686 L 80.9581,4.2866 L 80.8596,4.2866 L 80.8596,3.7872 L 80.9581,3.7872 L 80.9581,2.8300 L 81.1971,2.8300 L 81.1971,2.3999 L 81.2534,2.3999 L 81.2534,2.8716 L 80.9581,2.8716 L 80.9581,2.8300 L 80.0159,2.8300 L 80.0159,2.3999 L 79.7909,2.3999 L 79.7909,2.2473 L 78.5253,2.2473 Z" stroke="#000000" stroke-width="0.1200" stroke-linecap="round" stroke-linejoin="round" fill="#000000"/>
        <path d="M 78.3003,2.4138 L 77.1190,2.4138 L 77.1190,2.8438 L 78.3003,2.8438 L 78.3003,2.4138 Z" stroke="#494949" stroke-width="0.1200" stroke-linecap="round" stroke-linejoin="round" fill="#000000"/>
        <path d="M 81.1971,2.4138 L 80.0159,2.4138 L 80.0159,2.8438 L 81.1971,2.8438 L 81.1971,2.4138 Z" stroke="#494949" stroke-width="0.1200" stroke-linecap="round" stroke-linejoin="round" fill="#000000"/>
        <path d="M 78.5253,10.2656 L 78.5253,10.1130 L 78.3003,10.1130 L 78.3003,9.6829 L 77.3581,9.6829 L 77.3581,9.6413 L 77.0628,9.6413 L 77.0628,10.1130 L 77.1190,10.1130 L 77.1190,9.6829 L 77.3581,9.6829 L 77.3581,8.7257 L 77.4565,8.7257 L 77.4565,8.2263 L 77.3581,8.2263 L 77.3581,7.1443 L 80.9581,7.1443 L 80.9581,8.2263 L 80.8596,8.2263 L 80.8596,8.7257 L 80.9581,8.7257 L 80.9581,9.6829 L 81.1971,9.6829 L 81.1971,10.1130 L 81.2534,10.1130 L 81.2534,9.6413 L 80.9581,9.6413 L 80.9581,9.6829 L 80.0159,9.6829 L 80.0159,10.1130 L 79.7909,10.1130 L 79.7909,10.2656 L 78.5253,10.2656 Z" stroke="#000000" stroke-width="0.1200" stroke-linecap="round" stroke-linejoin="round" fill="#000000"/>
        <path d="M 78.3003,9.6829 L 77.1190,9.6829 L 77.1190,10.1130 L 78.3003,10.1130 L 78.3003,9.6829 Z" stroke="#494949" stroke-width="0.1200" stroke-linecap="round" stroke-linejoin="round" fill="#000000"/>
        <path d="M 81.1971,9.6829 L 80.0159,9.6829 L 80.0159,10.1130 L 81.1971,10.1130 L 81.1971,9.6829 Z" stroke="#494949" stroke-width="0.1200" stroke-linecap="round" stroke-linejoin="round" fill="#000000"/>
        <path d="M 84.8253,2.2473 L 84.8253,2.3999 L 84.6003,2.3999 L 84.6003,2.8300 L 83.6581,2.8300 L 83.6581,2.8716 L 83.3628,2.8716 L 83.3628,2.3999 L 83.4190,2.3999 L 83.4190,2.8300 L 83.6581,2.8300 L 83.6581,3.7872 L 83.7565,3.7872 L 83.7565,4.2866 L 83.6581,4.2866 L 83.6581,5.3686 L 87.2581,5.3686 L 87.2581,4.2866 L 87.1597,4.2866 L 87.1597,3.7872 L 87.2581,3.7872 L 87.2581,2.8300 L 87.4972,2.8300 L 87.4972,2.3999 L 87.5534,2.3999 L 87.5534,2.8716 L 87.2581,2.8716 L 87.2581,2.8300 L 86.3159,2.8300 L 86.3159,2.3999 L 86.0909,2.3999 L 86.0909,2.2473 L 84.8253,2.2473 Z" stroke="#000000" stroke-width="0.1200" stroke-linecap="round" stroke-linejoin="round" fill="#000000"/>
        <path d="M 84.6003,2.4138 L 83.4190,2.4138 L 83.4190,2.8438 L 84.6003,2.8438 L 84.6003,2.4138 Z" stroke="#494949" stroke-width="0.1200" stroke-linecap="round" stroke-linejoin="round" fill="#000000"/>
        <path d="M 87.4972,2.4138 L 86.3159,2.4138 L 86.3159,2.8438 L 87.4972,2.8438 L 87.4972,2.4138 Z" stroke="#494949" stroke-width="0.1200" stroke-linecap="round" stroke-linejoin="round" fill="#000000"/>
        <path d="M 84.8253,10.2656 L 84.8253,10.1130 L 84.6003,10.1130 L 84.6003,9.6829 L 83.6581,9.6829 L 83.6581,9.6413 L 83.3628,9.6413 L 83.3628,10.1130 L 83.4190,10.1130 L 83.4190,9.6829 L 83.6581,9.6829 L 83.6581,8.7257 L 83.7565,8.7257 L 83.7565,8.2263 L 83.6581,8.2263 L 83.6581,7.1443 L 87.2581,7.1443 L 87.2581,8.2263 L 87.1597,8.2263 L 87.1597,8.7257 L 87.2581,8.7257 L 87.2581,9.6829 L 87.4972,9.6829 L 87.4972,10.1130 L 87.5534,10.1130 L 87.5534,9.6413 L 87.2581,9.6413 L 87.2581,9.6829 L 86.3159,9.6829 L 86.3159,10.1130 L 86.0909,10.1130 L 86.0909,10.2656 L 84.8253,10.2656 Z" stroke="#000000" stroke-width="0.1200" stroke-linecap="round" stroke-linejoin="round" fill="#000000"/>
        <path d="M 84.6003,9.6829 L 83.4190,9.6829 L 83.4190,10.1130 L 84.6003,10.1130 L 84.6003,9.6829 Z" stroke="#494949" stroke-width="0.1200" stroke-linecap="round" stroke-linejoin="round" fill="#000000"/>
        <path d="M 87.4972,9.6829 L 86.3159,9.6829 L 86.3159,10.1130 L 87.4972,10.1130 L 87.4972,9.6829 Z" stroke="#494949" stroke-width="0.1200" stroke-linecap="round" stroke-linejoin="round" fill="#000000"/>
        <path d="M 89.3815,2.2473 L 89.3815,2.3999 L 89.1565,2.3999 L 89.1565,2.8300 L 88.2144,2.8300 L 88.2144,2.8716 L 87.9190,2.8716 L 87.9190,2.3999 L 87.9753,2.3999 L 87.9753,2.8300 L 88.2144,2.8300 L 88.2144,3.7872 L 88.3128,3.7872 L 88.3128,4.2866 L 88.2144,4.2866 L 88.2144,5.3686 L 91.8144,5.3686 L 91.8144,4.2866 L 91.7159,4.2866 L 91.7159,3.7872 L 91.8144,3.7872 L 91.8144,2.8300 L 92.0534,2.8300 L 92.0534,2.3999 L 92.1097,2.3999 L 92.1097,2.8716 L 91.8144,2.8716 L 91.8144,2.8300 L 90.8722,2.8300 L 90.8722,2.3999 L 90.6472,2.3999 L 90.6472,2.2473 L 89.3815,2.2473 Z" stroke="#000000" stroke-width="0.1200" stroke-linecap="round" stroke-linejoin="round" fill="#000000"/>
        <path d="M 89.1565,2.4138 L 87.9753,2.4138 L 87.9753,2.8438 L 89.1565,2.8438 L 89.1565,2.4138 Z" stroke="#494949" stroke-width="0.1200" stroke-linecap="round" stroke-linejoin="round" fill="#000000"/>
        <path d="M 92.0534,2.4138 L 90.8722,2.4138 L 90.8722,2.8438 L 92.0534,2.8438 L 92.0534,2.4138 Z" stroke="#494949" stroke-width="0.1200" stroke-linecap="round" stroke-linejoin="round" fill="#000000"/>
        <path d="M 89.3815,10.2656 L 89.3815,10.1130 L 89.1565,10.1130 L 89.1565,9.6829 L 88.2144,9.6829 L 88.2144,9.6413 L 87.9190,9.6413 L 87.9190,10.1130 L 87.9753,10.1130 L 87.9753,9.6829 L 88.2144,9.6829 L 88.2144,8.7257 L 88.3128,8.7257 L 88.3128,8.2263 L 88.2144,8.2263 L 88.2144,7.1443 L 91.8144,7.1443 L 91.8144,8.2263 L 91.7159,8.2263 L 91.7159,8.7257 L 91.8144,8.7257 L 91.8144,9.6829 L 92.0534,9.6829 L 92.0534,10.1130 L 92.1097,10.1130 L 92.1097,9.6413 L 91.8144,9.6413 L 91.8144,9.6829 L 90.8722,9.6829 L 90.8722,10.1130 L 90.6472,10.1130 L 90.6472,10.2656 L 89.3815,10.2656 Z" stroke="#000000" stroke-width="0.1200" stroke-linecap="round" stroke-linejoin="round" fill="#000000"/>
        <path d="M 89.1565,9.6829 L 87.9753,9.6829 L 87.9753,10.1130 L 89.1565,10.1130 L 89.1565,9.6829 Z" stroke="#494949" stroke-width="0.1200" stroke-linecap="round" stroke-linejoin="round" fill="#000000"/>
        <path d="M 92.0534,9.6829 L 90.8722,9.6829 L 90.8722,10.1130 L 92.0534,10.1130 L 92.0534,9.6829 Z" stroke="#494949" stroke-width="0.1200" stroke-linecap="round" stroke-linejoin="round" fill="#000000"/>
        <path d="M 93.8816,2.2473 L 93.8816,2.3999 L 93.6566,2.3999 L 93.6566,2.8300 L 92.7144,2.8300 L 92.7144,2.8716 L 92.4191,2.8716 L 92.4191,2.3999 L 92.4753,2.3999 L 92.4753,2.8300 L 92.7144,2.8300 L 92.7144,3.7872 L 92.8128,3.7872 L 92.8128,4.2866 L 92.7144,4.2866 L 92.7144,5.3686 L 96.3144,5.3686 L 96.3144,4.2866 L 96.2159,4.2866 L 96.2159,3.7872 L 96.3144,3.7872 L 96.3144,2.8300 L 96.5534,2.8300 L 96.5534,2.3999 L 96.6097,2.3999 L 96.6097,2.8716 L 96.3144,2.8716 L 96.3144,2.8300 L 95.3722,2.8300 L 95.3722,2.3999 L 95.1472,2.3999 L 95.1472,2.2473 L 93.8816,2.2473 Z" stroke="#000000" stroke-width="0.1200" stroke-linecap="round" stroke-linejoin="round" fill="#000000"/>
        <path d="M 93.6566,2.4138 L 92.4753,2.4138 L 92.4753,2.8438 L 93.6566,2.8438 L 93.6566,2.4138 Z" stroke="#494949" stroke-width="0.1200" stroke-linecap="round" stroke-linejoin="round" fill="#000000"/>
        <path d="M 96.5534,2.4138 L 95.3722,2.4138 L 95.3722,2.8438 L 96.5534,2.8438 L 96.5534,2.4138 Z" stroke="#494949" stroke-width="0.1200" stroke-linecap="round" stroke-linejoin="round" fill="#000000"/>
        <path d="M 93.8816,10.2656 L 93.8816,10.1130 L 93.6566,10.1130 L 93.6566,9.6829 L 92.7144,9.6829 L 92.7144,9.6413 L 92.4191,9.6413 L 92.4191,10.1130 L 92.4753,10.1130 L 92.4753,9.6829 L 92.7144,9.6829 L 92.7144,8.7257 L 92.8128,8.7257 L 92.8128,8.2263 L 92.7144,8.2263 L 92.7144,7.1443 L 96.3144,7.1443 L 96.3144,8.2263 L 96.2159,8.2263 L 96.2159,8.7257 L 96.3144,8.7257 L 96.3144,9.6829 L 96.5534,9.6829 L 96.5534,10.1130 L 96.6097,10.1130 L 96.6097,9.6413 L 96.3144,9.6413 L 96.3144,9.6829 L 95.3722,9.6829 L 95.3722,10.1130 L 95.1472,10.1130 L 95.1472,10.2656 L 93.8816,10.2656 Z" stroke="#000000" stroke-width="0.1200" stroke-linecap="round" stroke-linejoin="round" fill="#000000"/>
        <path d="M 93.6566,9.6829 L 92.4753,9.6829 L 92.4753,10.1130 L 93.6566,10.1130 L 93.6566,9.6829 Z" stroke="#494949" stroke-width="0.1200" stroke-linecap="round" stroke-linejoin="round" fill="#000000"/>
        <path d="M 96.5534,9.6829 L 95.3722,9.6829 L 95.3722,10.1130 L 96.5534,10.1130 L 96.5534,9.6829 Z" stroke="#494949" stroke-width="0.1200" stroke-linecap="round" stroke-linejoin="round" fill="#000000"/>
        <path d="M 98.4378,2.2473 L 98.4378,2.3999 L 98.2128,2.3999 L 98.2128,2.8300 L 97.2706,2.8300 L 97.2706,2.8716 L 96.9753,2.8716 L 96.9753,2.3999 L 97.0316,2.3999 L 97.0316,2.8300 L 97.2706,2.8300 L 97.2706,3.7872 L 97.3691,3.7872 L 97.3691,4.2866 L 97.2706,4.2866 L 97.2706,5.3686 L 100.8706,5.3686 L 100.8706,4.2866 L 100.7722,4.2866 L 100.7722,3.7872 L 100.8706,3.7872 L 100.8706,2.8300 L 101.1097,2.8300 L 101.1097,2.3999 L 101.1660,2.3999 L 101.1660,2.8716 L 100.8706,2.8716 L 100.8706,2.8300 L 99.9285,2.8300 L 99.9285,2.3999 L 99.7035,2.3999 L 99.7035,2.2473 L 98.4378,2.2473 Z" stroke="#000000" stroke-width="0.1200" stroke-linecap="round" stroke-linejoin="round" fill="#000000"/>
        <path d="M 98.2128,2.4138 L 97.0316,2.4138 L 97.0316,2.8438 L 98.2128,2.8438 L 98.2128,2.4138 Z" stroke="#494949" stroke-width="0.1200" stroke-linecap="round" stroke-linejoin="round" fill="#000000"/>
        <path d="M 101.1097,2.4138 L 99.9285,2.4138 L 99.9285,2.8438 L 101.1097,2.8438 L 101.1097,2.4138 Z" stroke="#494949" stroke-width="0.1200" stroke-linecap="round" stroke-linejoin="round" fill="#000000"/>
        <path d="M 98.4378,10.2656 L 98.4378,10.1130 L 98.2128,10.1130 L 98.2128,9.6829 L 97.2706,9.6829 L 97.2706,9.6413 L 96.9753,9.6413 L 96.9753,10.1130 L 97.0316,10.1130 L 97.0316,9.6829 L 97.2706,9.6829 L 97.2706,8.7257 L 97.3691,8.7257 L 97.3691,8.2263 L 97.2706,8.2263 L 97.2706,7.1443 L 100.8706,7.1443 L 100.8706,8.2263 L 100.7722,8.2263 L 100.7722,8.7257 L 100.8706,8.7257 L 100.8706,9.6829 L 101.1097,9.6829 L 101.1097,10.1130 L 101.1660,10.1130 L 101.1660,9.6413 L 100.8706,9.6413 L 100.8706,9.6829 L 99.9285,9.6829 L 99.9285,10.1130 L 99.7035,10.1130 L 99.7035,10.2656 L 98.4378,10.2656 Z" stroke="#000000" stroke-width="0.1200" stroke-linecap="round" stroke-linejoin="round" fill="#000000"/>
        <path d="M 98.2128,9.6829 L 97.0316,9.6829 L 97.0316,10.1130 L 98.2128,10.1130 L 98.2128,9.6829 Z" stroke="#494949" stroke-width="0.1200" stroke-linecap="round" stroke-linejoin="round" fill="#000000"/>
        <path d="M 101.1097,9.6829 L 99.9285,9.6829 L 99.9285,10.1130 L 101.1097,10.1130 L 101.1097,9.6829 Z" stroke="#494949" stroke-width="0.1200" stroke-linecap="round" stroke-linejoin="round" fill="#000000"/>
        <path d="M 107.1285,5.1491 L 103.1628,5.1491 L 103.1628,2.4777 L 107.1285,2.4777 L 107.1285,5.1491 Z" stroke="#000000" stroke-width="0.1200" stroke-linecap="round" stroke-linejoin="round" fill="none"/>
        <path d="M 107.1285,10.0906 L 103.1628,10.0906 L 103.1628,7.4191 L 107.1285,7.4191 L 107.1285,10.0906 Z" stroke="#000000" stroke-width="0.1200" stroke-linecap="round" stroke-linejoin="round" fill="none"/>
        <path d="M 44.9129,2.4789 L 44.1526,2.4789 L 44.1526,2.7903 L 44.9129,2.7903 L 44.9129,2.4789 Z" stroke="#000000" stroke-width="0.1200" stroke-linecap="round" stroke-linejoin="round" fill="#83FF00"/>
        <path d="M 47.7777,2.4789 L 47.0173,2.4789 L 47.0173,2.7903 L 47.7777,2.7903 L 47.7777,2.4789 Z" stroke="#000000" stroke-width="0.1200" stroke-linecap="round" stroke-linejoin="round" fill="#83FF00"/>
        <path d="M 51.4978,2.4789 L 50.7374,2.4789 L 50.7374,2.7903 L 51.4978,2.7903 L 51.4978,2.4789 Z" stroke="#000000" stroke-width="0.1200" stroke-linecap="round" stroke-linejoin="round" fill="#83FF00"/>
        <path d="M 54.3625,2.4789 L 53.6022,2.4789 L 53.6022,2.7903 L 54.3625,2.7903 L 54.3625,2.4789 Z" stroke="#000000" stroke-width="0.1200" stroke-linecap="round" stroke-linejoin="round" fill="#83FF00"/>
        <path d="M 58.1913,2.4789 L 57.4309,2.4789 L 57.4309,2.7903 L 58.1913,2.7903 L 58.1913,2.4789 Z" stroke="#000000" stroke-width="0.1200" stroke-linecap="round" stroke-linejoin="round" fill="#83FF00"/>
        <path d="M 61.0560,2.4789 L 60.2957,2.4789 L 60.2957,2.7903 L 61.0560,2.7903 L 61.0560,2.4789 Z" stroke="#000000" stroke-width="0.1200" stroke-linecap="round" stroke-linejoin="round" fill="#83FF00"/>
        <path d="M 64.5453,2.4789 L 63.7850,2.4789 L 63.7850,2.7903 L 64.5453,2.7903 L 64.5453,2.4789 Z" stroke="#000000" stroke-width="0.1200" stroke-linecap="round" stroke-linejoin="round" fill="#83FF00"/>
        <path d="M 67.4101,2.4789 L 66.6498,2.4789 L 66.6498,2.7903 L 67.4101,2.7903 L 67.4101,2.4789 Z" stroke="#000000" stroke-width="0.1200" stroke-linecap="round" stroke-linejoin="round" fill="#83FF00"/>
        <path d="M 69.1072,2.4789 L 68.3469,2.4789 L 68.3469,2.7903 L 69.1072,2.7903 L 69.1072,2.4789 Z" stroke="#000000" stroke-width="0.1200" stroke-linecap="round" stroke-linejoin="round" fill="#83FF00"/>
        <path d="M 71.9720,2.4789 L 71.2116,2.4789 L 71.2116,2.7903 L 71.9720,2.7903 L 71.9720,2.4789 Z" stroke="#000000" stroke-width="0.1200" stroke-linecap="round" stroke-linejoin="round" fill="#83FF00"/>
        <path d="M 73.6012,2.4789 L 72.8409,2.4789 L 72.8409,2.7903 L 73.6012,2.7903 L 73.6012,2.4789 Z" stroke="#000000" stroke-width="0.1200" stroke-linecap="round" stroke-linejoin="round" fill="#83FF00"/>
        <path d="M 76.4660,2.4789 L 75.7057,2.4789 L 75.7057,2.7903 L 76.4660,2.7903 L 76.4660,2.4789 Z" stroke="#000000" stroke-width="0.1200" stroke-linecap="round" stroke-linejoin="round" fill="#83FF00"/>
        <path d="M 78.1631,2.4789 L 77.4028,2.4789 L 77.4028,2.7903 L 78.1631,2.7903 L 78.1631,2.4789 Z" stroke="#000000" stroke-width="0.1200" stroke-linecap="round" stroke-linejoin="round" fill="#83FF00"/>
        <path d="M 81.0279,2.4789 L 80.2675,2.4789 L 80.2675,2.7903 L 81.0279,2.7903 L 81.0279,2.4789 Z" stroke="#000000" stroke-width="0.1200" stroke-linecap="round" stroke-linejoin="round" fill="#83FF00"/>
        <path d="M 84.4629,2.4789 L 83.7025,2.4789 L 83.7025,2.7903 L 84.4629,2.7903 L 84.4629,2.4789 Z" stroke="#000000" stroke-width="0.1200" stroke-linecap="round" stroke-linejoin="round" fill="#83FF00"/>
        <path d="M 87.3276,2.4789 L 86.5673,2.4789 L 86.5673,2.7903 L 87.3276,2.7903 L 87.3276,2.4789 Z" stroke="#000000" stroke-width="0.1200" stroke-linecap="round" stroke-linejoin="round" fill="#83FF00"/>
        <path d="M 89.0112,2.4789 L 88.2508,2.4789 L 88.2508,2.7903 L 89.0112,2.7903 L 89.0112,2.4789 Z" stroke="#000000" stroke-width="0.1200" stroke-linecap="round" stroke-linejoin="round" fill="#83FF00"/>
        <path d="M 91.8759,2.4789 L 91.1156,2.4789 L 91.1156,2.7903 L 91.8759,2.7903 L 91.8759,2.4789 Z" stroke="#000000" stroke-width="0.1200" stroke-linecap="round" stroke-linejoin="round" fill="#83FF00"/>
        <path d="M 93.5187,2.4789 L 92.7584,2.4789 L 92.7584,2.7903 L 93.5187,2.7903 L 93.5187,2.4789 Z" stroke="#000000" stroke-width="0.1200" stroke-linecap="round" stroke-linejoin="round" fill="#83FF00"/>
        <path d="M 96.3835,2.4789 L 95.6232,2.4789 L 95.6232,2.7903 L 96.3835,2.7903 L 96.3835,2.4789 Z" stroke="#000000" stroke-width="0.1200" stroke-linecap="round" stroke-linejoin="round" fill="#83FF00"/>
        <path d="M 98.0671,2.4789 L 97.3067,2.4789 L 97.3067,2.7903 L 98.0671,2.7903 L 98.0671,2.4789 Z" stroke="#000000" stroke-width="0.1200" stroke-linecap="round" stroke-linejoin="round" fill="#83FF00"/>
        <path d="M 100.9318,2.4789 L 100.1715,2.4789 L 100.1715,2.7903 L 100.9318,2.7903 L 100.9318,2.4789 Z" stroke="#000000" stroke-width="0.1200" stroke-linecap="round" stroke-linejoin="round" fill="#83FF00"/>
        <path d="M 47.7777,9.7338 L 47.0173,9.7338 L 47.0173,10.0452 L 47.7777,10.0452 L 47.7777,9.7338 Z" stroke="#000000" stroke-width="0.1200" stroke-linecap="round" stroke-linejoin="round" fill="#83FF00"/>
        <path d="M 44.9129,9.7338 L 44.1526,9.7338 L 44.1526,10.0452 L 44.9129,10.0452 L 44.9129,9.7338 Z" stroke="#000000" stroke-width="0.1200" stroke-linecap="round" stroke-linejoin="round" fill="#83FF00"/>
        <path d="M 54.3625,9.7338 L 53.6022,9.7338 L 53.6022,10.0452 L 54.3625,10.0452 L 54.3625,9.7338 Z" stroke="#000000" stroke-width="0.1200" stroke-linecap="round" stroke-linejoin="round" fill="#83FF00"/>
        <path d="M 51.4978,9.7338 L 50.7374,9.7338 L 50.7374,10.0452 L 51.4978,10.0452 L 51.4978,9.7338 Z" stroke="#000000" stroke-width="0.1200" stroke-linecap="round" stroke-linejoin="round" fill="#83FF00"/>
        <path d="M 61.0560,9.7338 L 60.2957,9.7338 L 60.2957,10.0452 L 61.0560,10.0452 L 61.0560,9.7338 Z" stroke="#000000" stroke-width="0.1200" stroke-linecap="round" stroke-linejoin="round" fill="#83FF00"/>
        <path d="M 58.1913,9.7338 L 57.4309,9.7338 L 57.4309,10.0452 L 58.1913,10.0452 L 58.1913,9.7338 Z" stroke="#000000" stroke-width="0.1200" stroke-linecap="round" stroke-linejoin="round" fill="#83FF00"/>
        <path d="M 67.4101,9.7338 L 66.6498,9.7338 L 66.6498,10.0452 L 67.4101,10.0452 L 67.4101,9.7338 Z" stroke="#000000" stroke-width="0.1200" stroke-linecap="round" stroke-linejoin="round" fill="#83FF00"/>
        <path d="M 64.5453,9.7338 L 63.7850,9.7338 L 63.7850,10.0452 L 64.5453,10.0452 L 64.5453,9.7338 Z" stroke="#000000" stroke-width="0.1200" stroke-linecap="round" stroke-linejoin="round" fill="#83FF00"/>
        <path d="M 71.9720,9.7338 L 71.2116,9.7338 L 71.2116,10.0452 L 71.9720,10.0452 L 71.9720,9.7338 Z" stroke="#000000" stroke-width="0.1200" stroke-linecap="round" stroke-linejoin="round" fill="#83FF00"/>
        <path d="M 69.1072,9.7338 L 68.3469,9.7338 L 68.3469,10.0452 L 69.1072,10.0452 L 69.1072,9.7338 Z" stroke="#000000" stroke-width="0.1200" stroke-linecap="round" stroke-linejoin="round" fill="#83FF00"/>
        <path d="M 76.4660,9.7338 L 75.7057,9.7338 L 75.7057,10.0452 L 76.4660,10.0452 L 76.4660,9.7338 Z" stroke="#000000" stroke-width="0.1200" stroke-linecap="round" stroke-linejoin="round" fill="#83FF00"/>
        <path d="M 73.6012,9.7338 L 72.8409,9.7338 L 72.8409,10.0452 L 73.6012,10.0452 L 73.6012,9.7338 Z" stroke="#000000" stroke-width="0.1200" stroke-linecap="round" stroke-linejoin="round" fill="#83FF00"/>
        <path d="M 81.0279,9.7338 L 80.2675,9.7338 L 80.2675,10.0452 L 81.0279,10.0452 L 81.0279,9.7338 Z" stroke="#000000" stroke-width="0.1200" stroke-linecap="round" stroke-linejoin="round" fill="#83FF00"/>
        <path d="M 78.1631,9.7338 L 77.4028,9.7338 L 77.4028,10.0452 L 78.1631,10.0452 L 78.1631,9.7338 Z" stroke="#000000" stroke-width="0.1200" stroke-linecap="round" stroke-linejoin="round" fill="#83FF00"/>
        <path d="M 87.3276,9.7338 L 86.5673,9.7338 L 86.5673,10.0452 L 87.3276,10.0452 L 87.3276,9.7338 Z" stroke="#000000" stroke-width="0.1200" stroke-linecap="round" stroke-linejoin="round" fill="#83FF00"/>
        <path d="M 84.4629,9.7338 L 83.7025,9.7338 L 83.7025,10.0452 L 84.4629,10.0452 L 84.4629,9.7338 Z" stroke="#000000" stroke-width="0.1200" stroke-linecap="round" stroke-linejoin="round" fill="#83FF00"/>
        <path d="M 91.8759,9.7338 L 91.1156,9.7338 L 91.1156,10.0452 L 91.8759,10.0452 L 91.8759,9.7338 Z" stroke="#000000" stroke-width="0.1200" stroke-linecap="round" stroke-linejoin="round" fill="#83FF00"/>
        <path d="M 89.0112,9.7338 L 88.2508,9.7338 L 88.2508,10.0452 L 89.0112,10.0452 L 89.0112,9.7338 Z" stroke="#000000" stroke-width="0.1200" stroke-linecap="round" stroke-linejoin="round" fill="#83FF00"/>
        <path d="M 96.3835,9.7338 L 95.6232,9.7338 L 95.6232,10.0452 L 96.3835,10.0452 L 96.3835,9.7338 Z" stroke="#000000" stroke-width="0.1200" stroke-linecap="round" stroke-linejoin="round" fill="#83FF00"/>
        <path d="M 93.5187,9.7338 L 92.7584,9.7338 L 92.7584,10.0452 L 93.5187,10.0452 L 93.5187,9.7338 Z" stroke="#000000" stroke-width="0.1200" stroke-linecap="round" stroke-linejoin="round" fill="#83FF00"/>
        <path d="M 100.9318,9.7338 L 100.1715,9.7338 L 100.1715,10.0452 L 100.9318,10.0452 L 100.9318,9.7338 Z" stroke="#000000" stroke-width="0.1200" stroke-linecap="round" stroke-linejoin="round" fill="#83FF00"/>
        <path d="M 98.0671,9.7338 L 97.3067,9.7338 L 97.3067,10.0452 L 98.0671,10.0452 L 98.0671,9.7338 Z" stroke="#000000" stroke-width="0.1200" stroke-linecap="round" stroke-linejoin="round" fill="#83FF00"/>
      </g>
      <!--emf-blob end-->
    </g>
  </g>
</svg>
