<svg xmlns="http://www.w3.org/2000/svg" xmlns:xlink="http://www.w3.org/1999/xlink" version="1.1" width="7.6032000000" height="0.6944000000" viewBox="0 0 136.8567 12.5008">
  <title><![CDATA[FG-100EF]]></title>
  <g transform=" scale(4.000000) ">
    <!--converted by libvisio2svg-->
    <g transform=" translate(0.000000,0.000000) ">
      <!--emf-blob start-->
      <g transform="translate(-0.0000, -0.0000)">
        <path d="M 14.2547,1.5860 L 14.2547,2.4408 L 14.9977,2.4408 " stroke="#000000" stroke-width="0.1200" stroke-linecap="round" stroke-linejoin="round" fill="none"/>
        <path d="M 14.9977,1.5860 L 16.4643,1.5860 " stroke="#000000" stroke-width="0.1200" stroke-linecap="round" stroke-linejoin="round" fill="none"/>
        <path d="M 15.7212,1.5860 L 15.7212,2.4408 " stroke="#000000" stroke-width="0.1200" stroke-linecap="round" stroke-linejoin="round" fill="none"/>
        <path d="M 16.8358,1.5860 L 16.8358,2.4408 " stroke="#000000" stroke-width="0.1200" stroke-linecap="round" stroke-linejoin="round" fill="none"/>
        <path d="M 16.8358,1.5860 L 16.8358,2.4408 " stroke="#000000" stroke-width="0.1200" stroke-linecap="round" stroke-linejoin="round" fill="none"/>
        <path d="M 17.5593,2.4408 L 17.5593,1.5860 L 18.3023,2.4408 L 19.0454,1.5860 L 19.0454,2.4408 " stroke="#000000" stroke-width="0.1200" stroke-linecap="round" stroke-linejoin="round" fill="none"/>
        <path d="M 19.3973,2.4408 L 20.1404,1.5860 L 20.8834,2.4408 " stroke="#000000" stroke-width="0.1200" stroke-linecap="round" stroke-linejoin="round" fill="none"/>
        <path d="M 19.5929,2.2271 L 20.6879,2.2271 " stroke="#000000" stroke-width="0.1200" stroke-linecap="round" stroke-linejoin="round" fill="none"/>
        <path d="M 12.0451,2.4408 L 12.7882,1.5860 L 13.5312,2.4408 " stroke="#000000" stroke-width="0.1200" stroke-linecap="round" stroke-linejoin="round" fill="none"/>
        <path d="M 12.2406,2.2271 L 13.3357,2.2271 " stroke="#000000" stroke-width="0.1200" stroke-linecap="round" stroke-linejoin="round" fill="none"/>
        <path d="M 136.8005,0.4910 L 136.7864,0.3928 L 136.7583,0.3086 L 136.7161,0.2385 L 136.6599,0.1683 L 136.5896,0.1122 L 136.5193,0.0701 L 136.4349,0.0421 L 136.3365,0.0281 L 0.4921,0.0281 L 0.3937,0.0421 L 0.3093,0.0701 L 0.2390,0.1122 L 0.1687,0.1683 L 0.1125,0.2385 L 0.0703,0.3086 L 0.0422,0.3928 L 0.0281,0.4910 L 0.0281,11.9661 L 0.0422,12.0643 L 0.0703,12.1485 L 0.1125,12.2186 L 0.1687,12.2888 L 0.2390,12.3449 L 0.3093,12.3870 L 0.3937,12.4150 L 0.4921,12.4291 L 136.3365,12.4291 L 136.4349,12.4150 L 136.5193,12.3870 L 136.5896,12.3449 L 136.6599,12.2888 L 136.7161,12.2186 L 136.7583,12.1485 L 136.7864,12.0643 L 136.8005,11.9661 L 136.8005,0.4910 Z" stroke="#000000" stroke-width="0.1200" stroke-linecap="round" stroke-linejoin="round" fill="#EAEAEA"/>
        <path d="M 129.6019,0.0281 L 7.2267,0.0281 L 7.2267,12.4291 L 129.6019,12.4291 L 129.6019,0.0281 Z" stroke="#000000" stroke-width="0.1200" stroke-linecap="round" stroke-linejoin="round" fill="#EAEAEA"/>
        <path d="M 5.2302,2.1604 L 5.2302,2.0481 L 5.2021,1.9359 L 5.1458,1.7395 L 5.1037,1.6413 L 5.0474,1.5431 L 4.9771,1.4589 L 4.8365,1.3187 L 4.7522,1.2485 L 4.6537,1.1924 L 4.5553,1.1503 L 4.3585,1.0942 L 4.2460,1.0661 L 1.9121,1.0661 L 1.7996,1.0942 L 1.6028,1.1503 L 1.5044,1.1924 L 1.4060,1.2485 L 1.3216,1.3187 L 1.1810,1.4589 L 1.1107,1.5431 L 1.0545,1.6413 L 1.0123,1.7395 L 0.9561,1.9359 L 0.9279,2.0481 L 0.9279,2.2866 L 0.9561,2.3988 L 1.0123,2.5952 L 1.0545,2.6934 L 1.1107,2.7916 L 1.1810,2.8758 L 1.3216,3.0161 L 1.4060,3.0862 L 1.5044,3.1423 L 1.6028,3.1844 L 1.7996,3.2405 L 1.9121,3.2686 L 4.2460,3.2686 L 4.3585,3.2405 L 4.5553,3.1844 L 4.6537,3.1423 L 4.7522,3.0862 L 4.8365,3.0161 L 4.9771,2.8758 L 5.0474,2.7916 L 5.1037,2.6934 L 5.1458,2.5952 L 5.2021,2.3988 L 5.2302,2.2866 L 5.2302,2.1744 L 5.2302,2.1604 Z" stroke="#000000" stroke-width="0.1200" stroke-linecap="round" stroke-linejoin="round" fill="#FFFFFF"/>
        <path d="M 5.2302,10.2968 L 5.2302,10.1845 L 5.2021,10.0723 L 5.1458,9.8759 L 5.1037,9.7777 L 5.0474,9.6795 L 4.9771,9.5953 L 4.8365,9.4551 L 4.7522,9.3849 L 4.6537,9.3288 L 4.5553,9.2867 L 4.3585,9.2306 L 4.2460,9.2026 L 1.9121,9.2026 L 1.7996,9.2306 L 1.6028,9.2867 L 1.5044,9.3288 L 1.4060,9.3849 L 1.3216,9.4551 L 1.1810,9.5953 L 1.1107,9.6795 L 1.0545,9.7777 L 1.0123,9.8759 L 0.9561,10.0723 L 0.9279,10.1845 L 0.9279,10.4230 L 0.9561,10.5352 L 1.0123,10.7316 L 1.0545,10.8298 L 1.1107,10.9280 L 1.1810,11.0122 L 1.3216,11.1525 L 1.4060,11.2226 L 1.5044,11.2787 L 1.6028,11.3208 L 1.7996,11.3769 L 1.9121,11.4050 L 4.2460,11.4050 L 4.3585,11.3769 L 4.5553,11.3208 L 4.6537,11.2787 L 4.7522,11.2226 L 4.8365,11.1525 L 4.9771,11.0122 L 5.0474,10.9280 L 5.1037,10.8298 L 5.1458,10.7316 L 5.2021,10.5352 L 5.2302,10.4230 L 5.2302,10.3108 L 5.2302,10.2968 Z" stroke="#000000" stroke-width="0.1200" stroke-linecap="round" stroke-linejoin="round" fill="#FFFFFF"/>
        <path d="M 135.9006,2.1604 L 135.9006,2.0481 L 135.8725,1.9359 L 135.8163,1.7395 L 135.7741,1.6413 L 135.7179,1.5431 L 135.6476,1.4589 L 135.5070,1.3187 L 135.4226,1.2485 L 135.3242,1.1924 L 135.2258,1.1503 L 135.0289,1.0942 L 134.9165,1.0661 L 132.5826,1.0661 L 132.4701,1.0942 L 132.2733,1.1503 L 132.1748,1.1924 L 132.0764,1.2485 L 131.9921,1.3187 L 131.8515,1.4589 L 131.7812,1.5431 L 131.7249,1.6413 L 131.6827,1.7395 L 131.6265,1.9359 L 131.5984,2.0481 L 131.5984,2.2866 L 131.6265,2.3988 L 131.6827,2.5952 L 131.7249,2.6934 L 131.7812,2.7916 L 131.8515,2.8758 L 131.9921,3.0161 L 132.0764,3.0862 L 132.1748,3.1423 L 132.2733,3.1844 L 132.4701,3.2405 L 132.5826,3.2686 L 134.9165,3.2686 L 135.0289,3.2405 L 135.2258,3.1844 L 135.3242,3.1423 L 135.4226,3.0862 L 135.5070,3.0161 L 135.6476,2.8758 L 135.7179,2.7916 L 135.7741,2.6934 L 135.8163,2.5952 L 135.8725,2.3988 L 135.9006,2.2866 L 135.9006,2.1744 L 135.9006,2.1604 Z" stroke="#000000" stroke-width="0.1200" stroke-linecap="round" stroke-linejoin="round" fill="#FFFFFF"/>
        <path d="M 135.9006,10.2968 L 135.9006,10.1845 L 135.8725,10.0723 L 135.8163,9.8759 L 135.7741,9.7777 L 135.7179,9.6795 L 135.6476,9.5953 L 135.5070,9.4551 L 135.4226,9.3849 L 135.3242,9.3288 L 135.2258,9.2867 L 135.0289,9.2306 L 134.9165,9.2026 L 132.5826,9.2026 L 132.4701,9.2306 L 132.2733,9.2867 L 132.1748,9.3288 L 132.0764,9.3849 L 131.9921,9.4551 L 131.8515,9.5953 L 131.7812,9.6795 L 131.7249,9.7777 L 131.6827,9.8759 L 131.6265,10.0723 L 131.5984,10.1845 L 131.5984,10.4230 L 131.6265,10.5352 L 131.6827,10.7316 L 131.7249,10.8298 L 131.7812,10.9280 L 131.8515,11.0122 L 131.9921,11.1525 L 132.0764,11.2226 L 132.1748,11.2787 L 132.2733,11.3208 L 132.4701,11.3769 L 132.5826,11.4050 L 134.9165,11.4050 L 135.0289,11.3769 L 135.2258,11.3208 L 135.3242,11.2787 L 135.4226,11.2226 L 135.5070,11.1525 L 135.6476,11.0122 L 135.7179,10.9280 L 135.7741,10.8298 L 135.8163,10.7316 L 135.8725,10.5352 L 135.9006,10.4230 L 135.9006,10.3108 L 135.9006,10.2968 Z" stroke="#000000" stroke-width="0.1200" stroke-linecap="round" stroke-linejoin="round" fill="#FFFFFF"/>
        <path d="M 128.8568,1.3327 L 128.8568,1.2766 L 128.8286,1.1643 L 128.8146,1.1223 L 128.7865,1.0661 L 128.7021,0.9399 L 128.5756,0.8557 L 128.5193,0.8277 L 128.4771,0.8136 L 128.3647,0.7856 L 8.4639,0.7856 L 8.3514,0.8136 L 8.3093,0.8277 L 8.2530,0.8557 L 8.1265,0.9399 L 8.0421,1.0661 L 8.0140,1.1223 L 7.9999,1.1643 L 7.9718,1.2766 L 7.9718,11.2507 L 7.9999,11.3629 L 8.0140,11.4050 L 8.0421,11.4611 L 8.1265,11.5874 L 8.2530,11.6715 L 8.3093,11.6996 L 8.3514,11.7136 L 8.4639,11.7417 L 128.3647,11.7417 L 128.4771,11.7136 L 128.5193,11.6996 L 128.5756,11.6715 L 128.7021,11.5874 L 128.7865,11.4611 L 128.8146,11.4050 L 128.8286,11.3629 L 128.8568,11.2507 L 128.8568,11.1946 L 128.8568,1.3327 Z" stroke="#333333" stroke-width="0.1200" stroke-linecap="round" stroke-linejoin="round" fill="#E2E2E2"/>
        <path d="M 11.4024,1.6834 L 11.3883,1.6273 L 11.3602,1.5852 L 11.3180,1.5571 L 11.2618,1.5431 L 11.2055,1.5571 L 11.1634,1.5852 L 11.1352,1.6273 L 11.1212,1.6834 L 11.1212,3.6614 L 11.1352,3.7175 L 11.1634,3.7596 L 11.2055,3.7876 L 11.2618,3.8017 L 11.3180,3.7876 L 11.3602,3.7596 L 11.3883,3.7175 L 11.4024,3.6614 L 11.4024,1.6834 Z" stroke="#000000" stroke-width="0.1200" stroke-linecap="round" stroke-linejoin="round" fill="#3B9945"/>
        <path d="M 10.4604,1.6834 L 10.4463,1.6273 L 10.4182,1.5852 L 10.3760,1.5571 L 10.3198,1.5431 L 10.2635,1.5571 L 10.2214,1.5852 L 10.1933,1.6273 L 10.1792,1.6834 L 10.1792,3.6614 L 10.1933,3.7175 L 10.2214,3.7596 L 10.2635,3.7876 L 10.3198,3.8017 L 10.3760,3.7876 L 10.4182,3.7596 L 10.4463,3.7175 L 10.4604,3.6614 L 10.4604,1.6834 Z" stroke="#000000" stroke-width="0.1200" stroke-linecap="round" stroke-linejoin="round" fill="#3B9945"/>
        <path d="M 9.5184,1.6834 L 9.5043,1.6273 L 9.4762,1.5852 L 9.4340,1.5571 L 9.3778,1.5431 L 9.3216,1.5571 L 9.2794,1.5852 L 9.2513,1.6273 L 9.2372,1.6834 L 9.2372,3.6614 L 9.2513,3.7175 L 9.2794,3.7596 L 9.3216,3.7876 L 9.3778,3.8017 L 9.4340,3.7876 L 9.4762,3.7596 L 9.5043,3.7175 L 9.5184,3.6614 L 9.5184,1.6834 Z" stroke="#000000" stroke-width="0.1200" stroke-linecap="round" stroke-linejoin="round" fill="#3B9945"/>
        <path d="M 81.6585,2.1604 L 63.1841,2.1604 L 63.1841,10.3529 L 81.6585,10.3529 L 81.6585,2.1604 Z" stroke="#000000" stroke-width="0.1200" stroke-linecap="round" stroke-linejoin="round" fill="#BFBFBF"/>
        <path d="M 61.7922,2.1604 L 56.5339,2.1604 L 56.5339,10.3529 L 61.7922,10.3529 L 61.7922,2.1604 Z" stroke="#000000" stroke-width="0.1200" stroke-linecap="round" stroke-linejoin="round" fill="#BFBFBF"/>
        <path d="M 55.1560,2.1604 L 49.8977,2.1604 L 49.8977,10.3529 L 55.1560,10.3529 L 55.1560,2.1604 Z" stroke="#000000" stroke-width="0.1200" stroke-linecap="round" stroke-linejoin="round" fill="#BFBFBF"/>
        <path d="M 48.5058,2.1604 L 43.2475,2.1604 L 43.2475,10.3529 L 48.5058,10.3529 L 48.5058,2.1604 Z" stroke="#000000" stroke-width="0.1200" stroke-linecap="round" stroke-linejoin="round" fill="#BFBFBF"/>
        <path d="M 41.8556,6.3127 L 36.5973,6.3127 L 36.5973,10.3529 L 41.8556,10.3529 L 41.8556,6.3127 Z" stroke="#000000" stroke-width="0.1200" stroke-linecap="round" stroke-linejoin="round" fill="#BFBFBF"/>
        <path d="M 99.0643,1.1784 L 107.3877,1.1784 " stroke="#000000" stroke-width="0.1200" stroke-linecap="round" stroke-linejoin="round" fill="none"/>
        <path d="M 48.2949,6.2566 L 48.2949,6.2145 L 48.2809,6.1724 L 48.2246,6.0883 L 48.1403,6.0322 L 48.0981,6.0181 L 43.6552,6.0181 L 43.6131,6.0322 L 43.5287,6.0883 L 43.4725,6.1724 L 43.4584,6.2145 L 43.4584,6.3127 L 43.4725,6.3548 L 43.5287,6.4390 L 43.6131,6.4951 L 43.6552,6.5091 L 48.0981,6.5091 L 48.1403,6.4951 L 48.2246,6.4390 L 48.2809,6.3548 L 48.2949,6.3127 L 48.2949,6.2706 L 48.2949,6.2566 Z" stroke="#000000" stroke-width="0.1200" stroke-linecap="round" stroke-linejoin="round" fill="#7F7F7F"/>
        <path d="M 54.9451,6.2566 L 54.9451,6.2145 L 54.9311,6.1724 L 54.8748,6.0883 L 54.7905,6.0322 L 54.7483,6.0181 L 50.3055,6.0181 L 50.2633,6.0322 L 50.1789,6.0883 L 50.1227,6.1724 L 50.1086,6.2145 L 50.1086,6.3127 L 50.1227,6.3548 L 50.1789,6.4390 L 50.2633,6.4951 L 50.3055,6.5091 L 54.7483,6.5091 L 54.7905,6.4951 L 54.8748,6.4390 L 54.9311,6.3548 L 54.9451,6.3127 L 54.9451,6.2706 L 54.9451,6.2566 Z" stroke="#000000" stroke-width="0.1200" stroke-linecap="round" stroke-linejoin="round" fill="#7F7F7F"/>
        <path d="M 61.5813,6.2566 L 61.5813,6.2145 L 61.5672,6.1724 L 61.5110,6.0883 L 61.4266,6.0322 L 61.3845,6.0181 L 56.9416,6.0181 L 56.8994,6.0322 L 56.8151,6.0883 L 56.7588,6.1724 L 56.7448,6.2145 L 56.7448,6.3127 L 56.7588,6.3548 L 56.8151,6.4390 L 56.8994,6.4951 L 56.9416,6.5091 L 61.3845,6.5091 L 61.4266,6.4951 L 61.5110,6.4390 L 61.5672,6.3548 L 61.5813,6.3127 L 61.5813,6.2706 L 61.5813,6.2566 Z" stroke="#000000" stroke-width="0.1200" stroke-linecap="round" stroke-linejoin="round" fill="#7F7F7F"/>
        <path d="M 81.0961,6.5091 L 81.1383,6.5091 L 81.1523,6.4951 L 81.1805,6.4951 L 81.1945,6.4811 L 81.2086,6.4811 L 81.2226,6.4670 L 81.2367,6.4670 L 81.2508,6.4530 L 81.2508,6.4390 L 81.2648,6.4390 L 81.2648,6.4250 L 81.2789,6.4250 L 81.2929,6.4109 L 81.2929,6.3969 L 81.3070,6.3829 L 81.3070,6.3688 L 81.3211,6.3548 L 81.3211,6.3268 L 81.3351,6.3127 L 81.3351,6.2145 L 81.3211,6.2005 L 81.3211,6.1724 L 81.3070,6.1584 L 81.3070,6.1444 L 81.2929,6.1304 L 81.2929,6.1163 L 81.2789,6.1023 L 81.2648,6.1023 L 81.2648,6.0883 L 81.2508,6.0883 L 81.2508,6.0742 L 81.2367,6.0602 L 81.2226,6.0602 L 81.2086,6.0462 L 81.1945,6.0462 L 81.1805,6.0322 L 81.1523,6.0322 L 81.1383,6.0181 L 63.7465,6.0181 L 63.7324,6.0322 L 63.7043,6.0322 L 63.6902,6.0462 L 63.6762,6.0462 L 63.6621,6.0602 L 63.6481,6.0602 L 63.6340,6.0742 L 63.6340,6.0883 L 63.6199,6.0883 L 63.6199,6.1023 L 63.6059,6.1023 L 63.5918,6.1163 L 63.5918,6.1304 L 63.5778,6.1444 L 63.5778,6.1584 L 63.5637,6.1724 L 63.5637,6.2005 L 63.5496,6.2145 L 63.5496,6.3127 L 63.5637,6.3268 L 63.5637,6.3548 L 63.5778,6.3688 L 63.5778,6.3829 L 63.5918,6.3969 L 63.5918,6.4109 L 63.6059,6.4250 L 63.6199,6.4250 L 63.6199,6.4390 L 63.6340,6.4390 L 63.6340,6.4530 L 63.6481,6.4670 L 63.6621,6.4670 L 63.6762,6.4811 L 63.6902,6.4811 L 63.7043,6.4951 L 63.7324,6.4951 L 63.7465,6.5091 L 81.0399,6.5091 L 81.0961,6.5091 Z" stroke="#000000" stroke-width="0.1200" stroke-linecap="round" stroke-linejoin="round" fill="#7F7F7F"/>
        <path d="M 107.4158,2.1604 L 102.9167,2.1604 L 102.9167,10.3529 L 107.4158,10.3529 L 107.4158,2.1604 Z" stroke="#000000" stroke-width="0.1200" stroke-linecap="round" stroke-linejoin="round" fill="#BFBFBF"/>
        <path d="M 107.1486,5.1764 L 103.1838,5.1764 L 103.1838,2.4690 L 107.1486,2.4690 L 107.1486,5.1764 Z" stroke="#7F7F7F" stroke-width="0.1200" stroke-linecap="round" stroke-linejoin="round" fill="#7F7F7F"/>
        <path d="M 107.1486,10.0583 L 103.1838,10.0583 L 103.1838,7.3508 L 107.1486,7.3508 L 107.1486,10.0583 Z" stroke="#7F7F7F" stroke-width="0.1200" stroke-linecap="round" stroke-linejoin="round" fill="#7F7F7F"/>
        <path d="M 105.9676,5.1764 L 104.3648,5.1764 L 104.3648,4.9099 L 105.9676,4.9099 L 105.9676,5.1764 Z" stroke="#7F7F7F" stroke-width="0.1200" stroke-linecap="round" stroke-linejoin="round" fill="#BFBFBF"/>
        <path d="M 105.9676,7.6174 L 104.3648,7.6174 L 104.3648,7.3508 L 105.9676,7.3508 L 105.9676,7.6174 Z" stroke="#7F7F7F" stroke-width="0.1200" stroke-linecap="round" stroke-linejoin="round" fill="#BFBFBF"/>
        <path d="M 103.5213,5.9059 L 103.8727,6.5933 L 104.2102,5.9059 L 103.5213,5.9059 Z" stroke="#333333" stroke-width="0.1200" stroke-linecap="round" stroke-linejoin="round" fill="#00FF00"/>
        <path d="M 106.1223,6.5933 L 106.4738,5.9059 L 106.8112,6.5933 L 106.1223,6.5933 Z" stroke="#333333" stroke-width="0.1200" stroke-linecap="round" stroke-linejoin="round" fill="#00FF00"/>
        <path d="M 106.1645,5.1764 L 104.1680,5.1764 L 104.1680,5.4570 L 106.1645,5.4570 L 106.1645,5.1764 Z" stroke="#7F7F7F" stroke-width="0.1200" stroke-linecap="round" stroke-linejoin="round" fill="#7F7F7F"/>
        <path d="M 106.1645,7.0703 L 104.1680,7.0703 L 104.1680,7.3508 L 106.1645,7.3508 L 106.1645,7.0703 Z" stroke="#7F7F7F" stroke-width="0.1200" stroke-linecap="round" stroke-linejoin="round" fill="#7F7F7F"/>
        <path d="M 102.8323,2.1604 L 98.3332,2.1604 L 98.3332,10.3529 L 102.8323,10.3529 L 102.8323,2.1604 Z" stroke="#000000" stroke-width="0.1200" stroke-linecap="round" stroke-linejoin="round" fill="#BFBFBF"/>
        <path d="M 102.5652,5.1764 L 98.6004,5.1764 L 98.6004,2.4690 L 102.5652,2.4690 L 102.5652,5.1764 Z" stroke="#7F7F7F" stroke-width="0.1200" stroke-linecap="round" stroke-linejoin="round" fill="#7F7F7F"/>
        <path d="M 102.5652,10.0583 L 98.6004,10.0583 L 98.6004,7.3508 L 102.5652,7.3508 L 102.5652,10.0583 Z" stroke="#7F7F7F" stroke-width="0.1200" stroke-linecap="round" stroke-linejoin="round" fill="#7F7F7F"/>
        <path d="M 101.3842,5.1764 L 99.7814,5.1764 L 99.7814,4.9099 L 101.3842,4.9099 L 101.3842,5.1764 Z" stroke="#7F7F7F" stroke-width="0.1200" stroke-linecap="round" stroke-linejoin="round" fill="#BFBFBF"/>
        <path d="M 101.3842,7.6174 L 99.7814,7.6174 L 99.7814,7.3508 L 101.3842,7.3508 L 101.3842,7.6174 Z" stroke="#7F7F7F" stroke-width="0.1200" stroke-linecap="round" stroke-linejoin="round" fill="#BFBFBF"/>
        <path d="M 98.9378,5.9059 L 99.2893,6.5933 L 99.6267,5.9059 L 98.9378,5.9059 Z" stroke="#333333" stroke-width="0.1200" stroke-linecap="round" stroke-linejoin="round" fill="#00FF00"/>
        <path d="M 101.5388,6.5933 L 101.8903,5.9059 L 102.2278,6.5933 L 101.5388,6.5933 Z" stroke="#333333" stroke-width="0.1200" stroke-linecap="round" stroke-linejoin="round" fill="#00FF00"/>
        <path d="M 101.5810,5.1764 L 99.5845,5.1764 L 99.5845,5.4570 L 101.5810,5.4570 L 101.5810,5.1764 Z" stroke="#7F7F7F" stroke-width="0.1200" stroke-linecap="round" stroke-linejoin="round" fill="#7F7F7F"/>
        <path d="M 101.5810,7.0703 L 99.5845,7.0703 L 99.5845,7.3508 L 101.5810,7.3508 L 101.5810,7.0703 Z" stroke="#7F7F7F" stroke-width="0.1200" stroke-linecap="round" stroke-linejoin="round" fill="#7F7F7F"/>
        <path d="M 98.2489,2.1604 L 93.7498,2.1604 L 93.7498,10.3529 L 98.2489,10.3529 L 98.2489,2.1604 Z" stroke="#000000" stroke-width="0.1200" stroke-linecap="round" stroke-linejoin="round" fill="#BFBFBF"/>
        <path d="M 97.9817,5.1764 L 94.0169,5.1764 L 94.0169,2.4690 L 97.9817,2.4690 L 97.9817,5.1764 Z" stroke="#7F7F7F" stroke-width="0.1200" stroke-linecap="round" stroke-linejoin="round" fill="#7F7F7F"/>
        <path d="M 97.9817,10.0583 L 94.0169,10.0583 L 94.0169,7.3508 L 97.9817,7.3508 L 97.9817,10.0583 Z" stroke="#7F7F7F" stroke-width="0.1200" stroke-linecap="round" stroke-linejoin="round" fill="#7F7F7F"/>
        <path d="M 96.8007,5.1764 L 95.1979,5.1764 L 95.1979,4.9099 L 96.8007,4.9099 L 96.8007,5.1764 Z" stroke="#7F7F7F" stroke-width="0.1200" stroke-linecap="round" stroke-linejoin="round" fill="#BFBFBF"/>
        <path d="M 96.8007,7.6174 L 95.1979,7.6174 L 95.1979,7.3508 L 96.8007,7.3508 L 96.8007,7.6174 Z" stroke="#7F7F7F" stroke-width="0.1200" stroke-linecap="round" stroke-linejoin="round" fill="#BFBFBF"/>
        <path d="M 94.3544,5.9059 L 94.7058,6.5933 L 95.0433,5.9059 L 94.3544,5.9059 Z" stroke="#333333" stroke-width="0.1200" stroke-linecap="round" stroke-linejoin="round" fill="#00FF00"/>
        <path d="M 96.9554,6.5933 L 97.3069,5.9059 L 97.6443,6.5933 L 96.9554,6.5933 Z" stroke="#333333" stroke-width="0.1200" stroke-linecap="round" stroke-linejoin="round" fill="#00FF00"/>
        <path d="M 96.9976,5.1764 L 95.0011,5.1764 L 95.0011,5.4570 L 96.9976,5.4570 L 96.9976,5.1764 Z" stroke="#7F7F7F" stroke-width="0.1200" stroke-linecap="round" stroke-linejoin="round" fill="#7F7F7F"/>
        <path d="M 96.9976,7.0703 L 95.0011,7.0703 L 95.0011,7.3508 L 96.9976,7.3508 L 96.9976,7.0703 Z" stroke="#7F7F7F" stroke-width="0.1200" stroke-linecap="round" stroke-linejoin="round" fill="#7F7F7F"/>
        <path d="M 93.6654,2.1604 L 89.1663,2.1604 L 89.1663,10.3529 L 93.6654,10.3529 L 93.6654,2.1604 Z" stroke="#000000" stroke-width="0.1200" stroke-linecap="round" stroke-linejoin="round" fill="#BFBFBF"/>
        <path d="M 93.3983,5.1764 L 89.4335,5.1764 L 89.4335,2.4690 L 93.3983,2.4690 L 93.3983,5.1764 Z" stroke="#7F7F7F" stroke-width="0.1200" stroke-linecap="round" stroke-linejoin="round" fill="#7F7F7F"/>
        <path d="M 93.3983,10.0583 L 89.4335,10.0583 L 89.4335,7.3508 L 93.3983,7.3508 L 93.3983,10.0583 Z" stroke="#7F7F7F" stroke-width="0.1200" stroke-linecap="round" stroke-linejoin="round" fill="#7F7F7F"/>
        <path d="M 92.2173,5.1764 L 90.6145,5.1764 L 90.6145,4.9099 L 92.2173,4.9099 L 92.2173,5.1764 Z" stroke="#7F7F7F" stroke-width="0.1200" stroke-linecap="round" stroke-linejoin="round" fill="#BFBFBF"/>
        <path d="M 92.2173,7.6174 L 90.6145,7.6174 L 90.6145,7.3508 L 92.2173,7.3508 L 92.2173,7.6174 Z" stroke="#7F7F7F" stroke-width="0.1200" stroke-linecap="round" stroke-linejoin="round" fill="#BFBFBF"/>
        <path d="M 89.7709,5.9059 L 90.1224,6.5933 L 90.4598,5.9059 L 89.7709,5.9059 Z" stroke="#333333" stroke-width="0.1200" stroke-linecap="round" stroke-linejoin="round" fill="#00FF00"/>
        <path d="M 92.3719,6.5933 L 92.7234,5.9059 L 93.0609,6.5933 L 92.3719,6.5933 Z" stroke="#333333" stroke-width="0.1200" stroke-linecap="round" stroke-linejoin="round" fill="#00FF00"/>
        <path d="M 92.4141,5.1764 L 90.4177,5.1764 L 90.4177,5.4570 L 92.4141,5.4570 L 92.4141,5.1764 Z" stroke="#7F7F7F" stroke-width="0.1200" stroke-linecap="round" stroke-linejoin="round" fill="#7F7F7F"/>
        <path d="M 92.4141,7.0703 L 90.4177,7.0703 L 90.4177,7.3508 L 92.4141,7.3508 L 92.4141,7.0703 Z" stroke="#7F7F7F" stroke-width="0.1200" stroke-linecap="round" stroke-linejoin="round" fill="#7F7F7F"/>
        <path d="M 89.1663,1.1784 L 97.2225,1.1784 " stroke="#000000" stroke-width="0.1200" stroke-linecap="round" stroke-linejoin="round" fill="none"/>
        <path d="M 11.9861,2.5157 L 11.9707,2.5157 L 11.9631,2.5079 L 11.9554,2.5079 L 11.9323,2.4846 L 11.9323,2.4768 L 11.9246,2.4690 L 11.9246,1.5655 L 11.9323,1.5577 L 11.9323,1.5499 L 11.9400,1.5421 L 11.9477,1.5421 L 11.9477,1.5344 L 11.9554,1.5266 L 11.9631,1.5266 L 11.9707,1.5188 L 13.0157,1.5188 L 13.0234,1.5266 L 13.0310,1.5266 L 13.0541,1.5499 L 13.0541,1.5577 L 13.0618,1.5655 L 13.0618,1.7447 L 13.0541,1.7447 L 13.0541,1.7369 L 13.0464,1.7369 L 13.0464,1.7291 L 13.0387,1.7291 L 13.0387,1.7213 L 13.0234,1.7213 L 13.0234,1.7135 L 12.1782,1.7135 L 12.1782,1.7213 L 12.1628,1.7213 L 12.1628,1.7291 L 12.1551,1.7291 L 12.1551,1.7447 L 12.1475,1.7447 L 12.1475,2.4846 L 12.1551,2.4846 L 12.1551,2.5001 L 12.1628,2.5001 L 12.1628,2.5079 L 12.1705,2.5079 L 12.1705,2.5157 L 11.9938,2.5157 L 11.9861,2.5157 Z" stroke="#000000" stroke-width="0.1200" stroke-linecap="round" stroke-linejoin="round" fill="#000000"/>
        <path d="M 12.9849,1.9394 L 12.2243,1.9394 L 12.2243,1.9316 L 12.2089,1.9316 L 12.2089,1.9238 L 12.2012,1.9238 L 12.2012,1.9082 L 12.1936,1.9082 L 12.1936,2.1029 L 12.2012,2.1029 L 12.2012,2.1185 L 12.2089,2.1185 L 12.2089,2.1263 L 12.2243,2.1263 L 12.2243,2.1341 L 13.0003,2.1341 L 13.0157,2.1185 L 13.0234,2.1185 L 13.0387,2.1029 L 13.0387,2.0951 L 13.0464,2.0874 L 13.0464,2.0796 L 13.0541,2.0718 L 13.0541,2.0562 L 13.0618,2.0484 L 13.0618,2.0250 L 13.0541,2.0173 L 13.0541,1.9939 L 13.0387,1.9783 L 13.0387,1.9705 L 13.0310,1.9627 L 13.0234,1.9627 L 13.0234,1.9549 L 13.0157,1.9549 L 13.0080,1.9472 L 13.0003,1.9472 L 12.9926,1.9394 L 12.9849,1.9394 Z" stroke="#000000" stroke-width="0.1200" stroke-linecap="round" stroke-linejoin="round" fill="#000000"/>
        <path d="M 14.7598,2.1341 L 14.7444,2.1341 L 14.7444,2.1263 L 14.7291,2.1263 L 14.7291,2.1185 L 14.7214,2.1185 L 14.7214,2.1029 L 14.7137,2.1029 L 14.7137,1.9082 L 14.7214,1.9082 L 14.7214,1.9238 L 14.7291,1.9238 L 14.7291,1.9316 L 14.7444,1.9316 L 14.7444,1.9394 L 15.3591,1.9394 L 15.3591,1.7135 L 14.6983,1.7135 L 14.6983,1.7213 L 14.6830,1.7213 L 14.6830,1.7291 L 14.6753,1.7291 L 14.6753,1.7447 L 14.6676,1.7447 L 14.6676,2.4846 L 14.6753,2.4846 L 14.6753,2.5001 L 14.6830,2.5001 L 14.6830,2.5079 L 14.6907,2.5079 L 14.6907,2.5157 L 14.4909,2.5157 L 14.4832,2.5079 L 14.4755,2.5079 L 14.4525,2.4846 L 14.4525,2.4768 L 14.4448,2.4690 L 14.4448,1.5655 L 14.4525,1.5577 L 14.4525,1.5499 L 14.4602,1.5421 L 14.4678,1.5421 L 14.4678,1.5344 L 14.4755,1.5266 L 14.4832,1.5266 L 14.4909,1.5188 L 15.5358,1.5188 L 15.5435,1.5266 L 15.5512,1.5266 L 15.5742,1.5499 L 15.5742,1.5577 L 15.5819,1.5655 L 15.5819,2.0562 L 15.5742,2.0640 L 15.5742,2.0796 L 15.5666,2.0796 L 15.5666,2.0874 L 15.5589,2.0951 L 15.5589,2.1029 L 15.5512,2.1029 L 15.5512,2.1107 L 15.5435,2.1107 L 15.5435,2.1185 L 15.5358,2.1185 L 15.5358,2.1263 L 15.5281,2.1263 L 15.5205,2.1341 L 15.5281,2.1419 L 15.5358,2.1419 L 15.5358,2.1497 L 15.5435,2.1497 L 15.5435,2.1575 L 15.5512,2.1575 L 15.5512,2.1652 L 15.5589,2.1652 L 15.5589,2.1730 L 15.5666,2.1808 L 15.5666,2.1886 L 15.5742,2.1886 L 15.5742,2.2042 L 15.5819,2.2120 L 15.5819,2.4846 L 15.5896,2.4846 L 15.5896,2.5001 L 15.5973,2.5001 L 15.5973,2.5079 L 15.6050,2.5079 L 15.6050,2.5157 L 15.4052,2.5157 L 15.3975,2.5079 L 15.3898,2.5079 L 15.3668,2.4846 L 15.3668,2.4768 L 15.3591,2.4690 L 15.3591,2.1341 L 14.7675,2.1341 L 14.7598,2.1341 Z" stroke="#000000" stroke-width="0.1200" stroke-linecap="round" stroke-linejoin="round" fill="#000000"/>
        <path d="M 15.9815,1.7135 L 15.7510,1.7135 L 15.7433,1.7057 L 15.7356,1.7057 L 15.7126,1.6823 L 15.7126,1.6746 L 15.7049,1.6668 L 15.7049,1.5655 L 15.7126,1.5577 L 15.7126,1.5499 L 15.7202,1.5421 L 15.7279,1.5421 L 15.7279,1.5344 L 15.7356,1.5266 L 15.7433,1.5266 L 15.7510,1.5188 L 16.7959,1.5188 L 16.8036,1.5266 L 16.8113,1.5266 L 16.8343,1.5499 L 16.8343,1.5577 L 16.8420,1.5655 L 16.8420,1.7447 L 16.8343,1.7447 L 16.8343,1.7369 L 16.8266,1.7369 L 16.8266,1.7291 L 16.8190,1.7291 L 16.8190,1.7213 L 16.8036,1.7213 L 16.8036,1.7135 L 16.2350,1.7135 L 16.2350,1.7213 L 16.2197,1.7213 L 16.2197,1.7291 L 16.2120,1.7291 L 16.2120,1.7447 L 16.2043,1.7447 L 16.2043,2.4846 L 16.2120,2.4846 L 16.2120,2.5001 L 16.2197,2.5001 L 16.2197,2.5079 L 16.2273,2.5079 L 16.2273,2.5157 L 16.0276,2.5157 L 16.0199,2.5079 L 16.0122,2.5079 L 15.9892,2.4846 L 15.9892,2.4768 L 15.9815,2.4690 L 15.9815,1.7369 L 15.9815,1.7135 Z" stroke="#000000" stroke-width="0.1200" stroke-linecap="round" stroke-linejoin="round" fill="#000000"/>
        <path d="M 17.1878,2.4612 L 17.1878,2.4846 L 17.1954,2.4846 L 17.1954,2.5001 L 17.2031,2.5001 L 17.2031,2.5079 L 17.2108,2.5079 L 17.2108,2.5157 L 17.0110,2.5157 L 17.0034,2.5079 L 16.9957,2.5079 L 16.9726,2.4846 L 16.9726,2.4768 L 16.9649,2.4690 L 16.9649,1.5499 L 16.9573,1.5499 L 16.9573,1.5344 L 16.9496,1.5344 L 16.9496,1.5266 L 16.9419,1.5266 L 16.9419,1.5188 L 17.1417,1.5188 L 17.1493,1.5266 L 17.1570,1.5266 L 17.1801,1.5499 L 17.1801,1.5577 L 17.1878,1.5655 L 17.1878,2.4534 L 17.1878,2.4612 Z" stroke="#000000" stroke-width="0.1200" stroke-linecap="round" stroke-linejoin="round" fill="#000000"/>
        <path d="M 18.2788,1.7135 L 17.6180,1.7135 L 17.6180,1.7213 L 17.6027,1.7213 L 17.6027,1.7291 L 17.5950,1.7291 L 17.5950,1.7447 L 17.5873,1.7447 L 17.5873,2.4846 L 17.5950,2.4846 L 17.5950,2.5001 L 17.6027,2.5001 L 17.6027,2.5079 L 17.6104,2.5079 L 17.6104,2.5157 L 17.4106,2.5157 L 17.4029,2.5079 L 17.3952,2.5079 L 17.3722,2.4846 L 17.3722,2.4768 L 17.3645,2.4690 L 17.3645,1.5655 L 17.3722,1.5577 L 17.3722,1.5499 L 17.3798,1.5421 L 17.3875,1.5421 L 17.3875,1.5344 L 17.3952,1.5266 L 17.4029,1.5266 L 17.4106,1.5188 L 18.4555,1.5188 L 18.4632,1.5266 L 18.4709,1.5266 L 18.4939,1.5499 L 18.4939,1.5577 L 18.5016,1.5655 L 18.5016,2.4846 L 18.5093,2.4846 L 18.5093,2.5001 L 18.5170,2.5001 L 18.5170,2.5079 L 18.5247,2.5079 L 18.5247,2.5157 L 18.3249,2.5157 L 18.3172,2.5079 L 18.3095,2.5079 L 18.2865,2.4846 L 18.2865,2.4768 L 18.2788,2.4690 L 18.2788,1.7369 L 18.2788,1.7135 Z" stroke="#000000" stroke-width="0.1200" stroke-linecap="round" stroke-linejoin="round" fill="#000000"/>
        <path d="M 19.6311,1.9394 L 18.9242,1.9394 L 18.9165,1.9316 L 18.9088,1.9316 L 18.9088,1.9238 L 18.9012,1.9238 L 18.9012,1.9082 L 18.8935,1.9082 L 18.8935,2.1029 L 18.9012,2.1029 L 18.9012,2.1185 L 18.9088,2.1185 L 18.9088,2.1263 L 18.9165,2.1263 L 18.9242,2.1341 L 19.6388,2.1341 L 19.6541,2.1185 L 19.6618,2.1185 L 19.6772,2.1029 L 19.6772,2.0951 L 19.6849,2.0874 L 19.6849,2.0796 L 19.6926,2.0718 L 19.6926,2.0562 L 19.7002,2.0484 L 19.7002,2.0173 L 19.6926,2.0095 L 19.6926,1.9861 L 19.6849,1.9861 L 19.6849,1.9783 L 19.6618,1.9549 L 19.6541,1.9549 L 19.6541,1.9472 L 19.6465,1.9472 L 19.6388,1.9394 L 19.6311,1.9394 Z" stroke="#000000" stroke-width="0.1200" stroke-linecap="round" stroke-linejoin="round" fill="#000000"/>
        <path d="M 20.1612,1.7135 L 19.9307,1.7135 L 19.9231,1.7057 L 19.9154,1.7057 L 19.8923,1.6823 L 19.8923,1.6746 L 19.8846,1.6668 L 19.8846,1.5655 L 19.8923,1.5577 L 19.8923,1.5499 L 19.9000,1.5421 L 19.9077,1.5421 L 19.9077,1.5344 L 19.9154,1.5266 L 19.9231,1.5266 L 19.9307,1.5188 L 20.9757,1.5188 L 20.9834,1.5266 L 20.9910,1.5266 L 21.0141,1.5499 L 21.0141,1.5577 L 21.0218,1.5655 L 21.0218,1.7447 L 21.0141,1.7447 L 21.0141,1.7369 L 21.0064,1.7369 L 21.0064,1.7291 L 20.9987,1.7291 L 20.9987,1.7213 L 20.9834,1.7213 L 20.9834,1.7135 L 20.4148,1.7135 L 20.4148,1.7213 L 20.3994,1.7213 L 20.3994,1.7291 L 20.3917,1.7291 L 20.3917,1.7447 L 20.3841,1.7447 L 20.3841,2.4846 L 20.3917,2.4846 L 20.3917,2.5001 L 20.3994,2.5001 L 20.3994,2.5079 L 20.4071,2.5079 L 20.4071,2.5157 L 20.2073,2.5157 L 20.1997,2.5079 L 20.1920,2.5079 L 20.1689,2.4846 L 20.1689,2.4768 L 20.1612,2.4690 L 20.1612,1.7369 L 20.1612,1.7135 Z" stroke="#000000" stroke-width="0.1200" stroke-linecap="round" stroke-linejoin="round" fill="#000000"/>
        <path d="M 19.7079,2.3210 L 19.7233,2.3210 L 19.7233,2.3132 L 19.7387,2.3132 L 19.7387,2.3054 L 19.7463,2.3054 L 19.7463,2.2976 L 19.7540,2.2976 L 19.7540,2.2899 L 19.7617,2.2899 L 19.7617,2.4690 L 19.7540,2.4768 L 19.7540,2.4846 L 19.7463,2.4924 L 19.7463,2.5001 L 19.7387,2.5001 L 19.7310,2.5079 L 19.7233,2.5079 L 19.7156,2.5157 L 18.6707,2.5157 L 18.6630,2.5079 L 18.6553,2.5079 L 18.6322,2.4846 L 18.6322,2.4768 L 18.6246,2.4690 L 18.6246,1.5655 L 18.6322,1.5577 L 18.6322,1.5499 L 18.6399,1.5421 L 18.6476,1.5421 L 18.6476,1.5344 L 18.6553,1.5266 L 18.6630,1.5266 L 18.6707,1.5188 L 19.7156,1.5188 L 19.7233,1.5266 L 19.7310,1.5266 L 19.7540,1.5499 L 19.7540,1.5577 L 19.7617,1.5655 L 19.7617,1.7447 L 19.7540,1.7447 L 19.7540,1.7369 L 19.7463,1.7369 L 19.7463,1.7291 L 19.7387,1.7291 L 19.7387,1.7213 L 19.7233,1.7213 L 19.7233,1.7135 L 18.8781,1.7135 L 18.8781,1.7213 L 18.8627,1.7213 L 18.8627,1.7291 L 18.8551,1.7291 L 18.8551,1.7447 L 18.8474,1.7447 L 18.8474,2.3210 L 19.7002,2.3210 L 19.7079,2.3210 Z" stroke="#000000" stroke-width="0.1200" stroke-linecap="round" stroke-linejoin="round" fill="#000000"/>
        <path d="M 13.5689,2.2275 L 13.5689,2.5157 L 13.9377,2.5157 L 13.9377,2.2275 L 13.5689,2.2275 Z" stroke="#FF0000" stroke-width="0.1200" stroke-linecap="round" stroke-linejoin="round" fill="#FF0000"/>
        <path d="M 13.1847,1.8771 L 13.4997,1.8771 L 13.4997,2.1575 L 13.1847,2.1575 L 13.1847,1.8771 Z" stroke="#FF0000" stroke-width="0.1200" stroke-linecap="round" stroke-linejoin="round" fill="#FF0000"/>
        <path d="M 14.0068,2.2275 L 14.0068,2.5157 L 14.1221,2.5157 L 14.1298,2.5079 L 14.1605,2.5079 L 14.1682,2.5001 L 14.1836,2.5001 L 14.1989,2.4924 L 14.2066,2.4846 L 14.2220,2.4768 L 14.2373,2.4612 L 14.2527,2.4534 L 14.2604,2.4456 L 14.2681,2.4301 L 14.2758,2.4223 L 14.3065,2.3600 L 14.3065,2.3444 L 14.3142,2.3210 L 14.3142,2.2976 L 14.3219,2.2743 L 14.3219,2.2275 L 14.0145,2.2275 L 14.0068,2.2275 Z" stroke="#FF0000" stroke-width="0.1200" stroke-linecap="round" stroke-linejoin="round" fill="#FF0000"/>
        <path d="M 14.0068,1.8771 L 14.3219,1.8771 L 14.3219,2.1575 L 14.0068,2.1575 L 14.0068,1.8771 Z" stroke="#FF0000" stroke-width="0.1200" stroke-linecap="round" stroke-linejoin="round" fill="#FF0000"/>
        <path d="M 13.4997,2.2275 L 13.4997,2.5157 L 13.3845,2.5157 L 13.3768,2.5079 L 13.3461,2.5079 L 13.3384,2.5001 L 13.3230,2.5001 L 13.3076,2.4924 L 13.3000,2.4846 L 13.2846,2.4768 L 13.2692,2.4612 L 13.2539,2.4534 L 13.2462,2.4456 L 13.2385,2.4301 L 13.2308,2.4223 L 13.2001,2.3600 L 13.2001,2.3444 L 13.1924,2.3210 L 13.1924,2.2976 L 13.1847,2.2743 L 13.1847,2.2275 L 13.4920,2.2275 L 13.4997,2.2275 Z" stroke="#FF0000" stroke-width="0.1200" stroke-linecap="round" stroke-linejoin="round" fill="#FF0000"/>
        <path d="M 13.5689,1.5188 L 13.5689,1.8070 L 13.9377,1.8070 L 13.9377,1.5188 L 13.5689,1.5188 Z" stroke="#FF0000" stroke-width="0.1200" stroke-linecap="round" stroke-linejoin="round" fill="#FF0000"/>
        <path d="M 14.0068,1.8070 L 14.0068,1.5188 L 14.1221,1.5188 L 14.1298,1.5266 L 14.1605,1.5266 L 14.1682,1.5344 L 14.1836,1.5344 L 14.1989,1.5421 L 14.2066,1.5499 L 14.2220,1.5577 L 14.2373,1.5733 L 14.2527,1.5811 L 14.2604,1.5889 L 14.2681,1.6045 L 14.2758,1.6122 L 14.3065,1.6746 L 14.3065,1.6901 L 14.3142,1.7135 L 14.3142,1.7369 L 14.3219,1.7602 L 14.3219,1.8070 L 14.0145,1.8070 L 14.0068,1.8070 Z" stroke="#FF0000" stroke-width="0.1200" stroke-linecap="round" stroke-linejoin="round" fill="#FF0000"/>
        <path d="M 13.4997,1.8070 L 13.4997,1.5188 L 13.3845,1.5188 L 13.3768,1.5266 L 13.3461,1.5266 L 13.3384,1.5344 L 13.3230,1.5344 L 13.3076,1.5421 L 13.3000,1.5499 L 13.2846,1.5577 L 13.2692,1.5733 L 13.2539,1.5811 L 13.2462,1.5889 L 13.2385,1.6045 L 13.2308,1.6122 L 13.2001,1.6746 L 13.2001,1.6901 L 13.1924,1.7135 L 13.1924,1.7369 L 13.1847,1.7602 L 13.1847,1.8070 L 13.4920,1.8070 L 13.4997,1.8070 Z" stroke="#FF0000" stroke-width="0.1200" stroke-linecap="round" stroke-linejoin="round" fill="#FF0000"/>
        <path d="M 26.7379,7.4793 L 26.1486,7.4793 L 26.1486,8.0682 L 26.7379,8.0682 L 26.7379,7.4793 Z" stroke="#000000" stroke-width="0.1200" stroke-linecap="round" stroke-linejoin="round" fill="#00FF00"/>
        <path d="M 26.7379,8.5983 L 26.1486,8.5983 L 26.1486,9.1872 L 26.7379,9.1872 L 26.7379,8.5983 Z" stroke="#000000" stroke-width="0.1200" stroke-linecap="round" stroke-linejoin="round" fill="#00FF00"/>
        <path d="M 26.7379,9.7320 L 26.1486,9.7320 L 26.1486,10.3209 L 26.7379,10.3209 L 26.7379,9.7320 Z" stroke="#000000" stroke-width="0.1200" stroke-linecap="round" stroke-linejoin="round" fill="#00FF00"/>
        <path d="M 26.7379,6.3456 L 26.1486,6.3456 L 26.1486,6.9346 L 26.7379,6.9346 L 26.7379,6.3456 Z" stroke="#000000" stroke-width="0.1200" stroke-linecap="round" stroke-linejoin="round" fill="#00FF00"/>
        <text font-family="Arial" fill="#000000" style="white-space:pre;" font-weight="400" text-anchor="start" x="30.1703" y="7.9565" font-size="0.2357"><![CDATA[FortiGate 100EF]]></text>
        <text font-family="Symbol" fill="#000000" style="white-space:pre;" text-anchor="start" x="20.6427" y="2.4970" font-size="0.3443"><![CDATA[]]></text>
        <text font-family="Arial" fill="#000000" style="white-space:pre;" font-weight="400" text-anchor="start" x="23.3000" y="2.9696" font-size="0.0533"><![CDATA[STATUS]]></text>
        <text font-family="Arial" fill="#000000" style="white-space:pre;" font-weight="400" text-anchor="start" x="23.3000" y="3.0707" font-size="0.0533"><![CDATA[ALARM]]></text>
        <text font-family="Arial" fill="#000000" style="white-space:pre;" font-weight="400" text-anchor="start" x="23.3000" y="3.1718" font-size="0.0533"><![CDATA[HA]]></text>
        <text font-family="Arial" fill="#000000" style="white-space:pre;" font-weight="400" text-anchor="start" x="23.3000" y="3.2729" font-size="0.0533"><![CDATA[POWER]]></text>
        <text font-family="Arial" fill="#000000" style="white-space:pre;" font-weight="400" text-anchor="start" x="23.7995" y="2.8534" font-size="0.0533"><![CDATA[USB]]></text>
        <text font-family="Arial" fill="#000000" style="white-space:pre;" font-weight="400" text-anchor="start" x="24.1971" y="2.8534" font-size="0.0533"><![CDATA[CONSOLE]]></text>
        <text font-family="Arial" fill="#000000" style="white-space:pre;" font-weight="400" text-anchor="start" x="24.8372" y="2.5198" font-size="0.0533"><![CDATA[DMZ]]></text>
        <text font-family="Arial" fill="#000000" style="white-space:pre;" font-weight="400" text-anchor="start" x="25.3754" y="2.5198" font-size="0.0533"><![CDATA[WAN 1]]></text>
        <text font-family="Arial" fill="#000000" style="white-space:pre;" font-weight="400" text-anchor="start" x="25.9767" y="2.5198" font-size="0.0533"><![CDATA[HA 1]]></text>
        <text font-family="Arial" fill="#000000" style="white-space:pre;" font-weight="400" text-anchor="start" x="26.5683" y="2.5198" font-size="0.0533"><![CDATA[1]]></text>
        <text font-family="Arial" fill="#000000" style="white-space:pre;" font-weight="400" text-anchor="start" x="25.9767" y="3.3589" font-size="0.0533"><![CDATA[HA 2]]></text>
        <text font-family="Arial" fill="#000000" style="white-space:pre;" font-weight="400" text-anchor="start" x="25.3754" y="3.3589" font-size="0.0533"><![CDATA[WAN 2]]></text>
        <text font-family="Arial" fill="#000000" style="white-space:pre;" font-weight="400" text-anchor="start" x="24.8178" y="3.3589" font-size="0.0533"><![CDATA[MGMT]]></text>
        <text font-family="Arial" fill="#000000" style="white-space:pre;" font-weight="400" text-anchor="start" x="26.5683" y="3.3589" font-size="0.0533"><![CDATA[2]]></text>
        <text font-family="Arial" fill="#000000" style="white-space:pre;" font-weight="400" text-anchor="start" x="26.9611" y="3.3589" font-size="0.0533"><![CDATA[4]]></text>
        <text font-family="Arial" fill="#000000" style="white-space:pre;" font-weight="400" text-anchor="start" x="26.9611" y="2.5198" font-size="0.0533"><![CDATA[3]]></text>
        <text font-family="Arial" fill="#000000" style="white-space:pre;" font-weight="400" text-anchor="start" x="27.3490" y="3.3589" font-size="0.0533"><![CDATA[6]]></text>
        <text font-family="Arial" fill="#000000" style="white-space:pre;" font-weight="400" text-anchor="start" x="27.3490" y="2.5198" font-size="0.0533"><![CDATA[5]]></text>
        <text font-family="Arial" fill="#000000" style="white-space:pre;" font-weight="400" text-anchor="start" x="27.7418" y="3.3589" font-size="0.0533"><![CDATA[8]]></text>
        <text font-family="Arial" fill="#000000" style="white-space:pre;" font-weight="400" text-anchor="start" x="27.7418" y="2.5198" font-size="0.0533"><![CDATA[7]]></text>
        <text font-family="Arial" fill="#000000" style="white-space:pre;" font-weight="400" text-anchor="start" x="29.3469" y="2.4844" font-size="0.0533"><![CDATA[SFP]]></text>
        <text font-family="Arial" fill="#000000" style="white-space:pre;" font-weight="400" text-anchor="start" x="29.9724" y="3.3589" font-size="0.0533"><![CDATA[16]]></text>
        <ellipse cx="24.3985" cy="9.9966" rx="0.2109" ry="0.2109" fill="#000000" stroke="#000000" stroke-width="0.1200" stroke-linecap="round" stroke-linejoin="round"/>
        <ellipse cx="24.3985" cy="9.9966" rx="0.2109" ry="0.2109" fill="none" stroke="#0A0A0A" stroke-width="0.1200" stroke-linecap="round" stroke-linejoin="round"/>
        <text font-family="Arial" fill="#000000" style="white-space:pre;" font-weight="400" text-anchor="start" x="39.9283" y="12.0531" font-size="0.1031"><![CDATA[10]]></text>
        <text font-family="Arial" fill="#000000" style="white-space:pre;" font-weight="400" text-anchor="start" x="40.6876" y="12.0531" font-size="0.1031"><![CDATA[12]]></text>
        <text font-family="Arial" fill="#000000" style="white-space:pre;" font-weight="400" text-anchor="start" x="41.4564" y="12.0531" font-size="0.1031"><![CDATA[14]]></text>
        <text font-family="Arial" fill="#000000" style="white-space:pre;" font-weight="400" text-anchor="start" x="42.2251" y="10.4971" font-size="0.1031"><![CDATA[15]]></text>
        <text font-family="Arial" fill="#000000" style="white-space:pre;" font-weight="400" text-anchor="start" x="39.9564" y="10.4971" font-size="0.1031"><![CDATA[9]]></text>
        <text font-family="Arial" fill="#000000" style="white-space:pre;" font-weight="400" text-anchor="start" x="40.6876" y="10.4971" font-size="0.1031"><![CDATA[11]]></text>
        <text font-family="Arial" fill="#000000" style="white-space:pre;" font-weight="400" text-anchor="start" x="41.4564" y="10.4971" font-size="0.1031"><![CDATA[13]]></text>
        <path d="M 34.6782,6.7347 L 34.6782,6.6925 L 34.6642,6.6925 L 34.6642,6.6644 L 34.6501,6.6503 L 34.6501,6.6363 L 34.6361,6.6363 L 34.6361,6.6222 L 34.6220,6.6222 L 34.6220,6.6081 L 34.6079,6.6081 L 34.5939,6.5941 L 34.5657,6.5941 L 34.5657,6.5800 L 33.1876,6.5800 L 33.1876,6.5941 L 33.1595,6.5941 L 33.1454,6.6081 L 33.1314,6.6081 L 33.1314,6.6222 L 33.1173,6.6222 L 33.1173,6.6363 L 33.1032,6.6363 L 33.1032,6.6503 L 33.0892,6.6644 L 33.0892,6.6925 L 33.0751,6.6925 L 33.0751,10.2075 L 33.0892,10.2075 L 33.0892,10.2356 L 33.1032,10.2497 L 33.1032,10.2637 L 33.1173,10.2637 L 33.1173,10.2778 L 33.1314,10.2778 L 33.1314,10.2918 L 33.1454,10.2918 L 33.1595,10.3059 L 33.1876,10.3059 L 33.1876,10.3200 L 34.5657,10.3200 L 34.5657,10.3059 L 34.5939,10.3059 L 34.6079,10.2918 L 34.6220,10.2918 L 34.6220,10.2778 L 34.6361,10.2778 L 34.6361,10.2637 L 34.6501,10.2637 L 34.6501,10.2497 L 34.6642,10.2356 L 34.6642,10.2075 L 34.6782,10.2075 L 34.6782,6.7487 L 34.6782,6.7347 Z" stroke="#000000" stroke-width="0.1200" stroke-linecap="round" stroke-linejoin="round" fill="#BFBFBF"/>
        <path d="M 34.5517,6.7909 L 34.5517,6.7487 L 34.5376,6.7487 L 34.5376,6.7347 L 34.5236,6.7206 L 34.5095,6.7206 L 34.5095,6.7066 L 33.2439,6.7066 L 33.2298,6.7206 L 33.2157,6.7206 L 33.2157,6.7347 L 33.2017,6.7347 L 33.2017,6.7487 L 33.1876,6.7628 L 33.1876,10.1512 L 33.2017,10.1512 L 33.2017,10.1653 L 33.2157,10.1653 L 33.2157,10.1794 L 33.2298,10.1794 L 33.2439,10.1934 L 34.5095,10.1934 L 34.5095,10.1794 L 34.5376,10.1794 L 34.5376,10.1512 L 34.5517,10.1512 L 34.5517,6.8050 L 34.5517,6.7909 Z" stroke="#7F7F7F" stroke-width="0.1200" stroke-linecap="round" stroke-linejoin="round" fill="#000000"/>
        <path d="M 33.8485,7.5361 L 33.8485,7.2268 L 33.9189,7.2268 L 33.9189,7.5361 L 33.8485,7.5361 Z" stroke="#000000" stroke-width="0.1200" stroke-linecap="round" stroke-linejoin="round" fill="#E2E2CC"/>
        <path d="M 33.8485,8.2391 L 33.8485,7.9298 L 33.9189,7.9298 L 33.9189,8.2391 L 33.8485,8.2391 Z" stroke="#000000" stroke-width="0.1200" stroke-linecap="round" stroke-linejoin="round" fill="#E2E2CC"/>
        <path d="M 33.8485,8.9280 L 33.8485,8.6187 L 33.9189,8.6187 L 33.9189,8.9280 L 33.8485,8.9280 Z" stroke="#000000" stroke-width="0.1200" stroke-linecap="round" stroke-linejoin="round" fill="#E2E2CC"/>
        <path d="M 33.8485,9.6451 L 33.8485,9.3358 L 33.9189,9.3358 L 33.9189,9.6451 L 33.8485,9.6451 Z" stroke="#000000" stroke-width="0.1200" stroke-linecap="round" stroke-linejoin="round" fill="#E2E2CC"/>
        <path d="M 34.2845,9.9825 L 34.3126,9.9825 L 34.3407,9.9685 L 34.3548,9.9403 L 34.3548,6.9596 L 34.3407,6.9315 L 34.3126,6.9175 L 33.9610,6.9175 L 33.9329,6.9315 L 33.9189,6.9596 L 33.9189,9.9403 L 33.9329,9.9685 L 33.9610,9.9825 L 33.9892,9.9825 L 34.2845,9.9825 Z" stroke="#000000" stroke-width="0.1200" stroke-linecap="round" stroke-linejoin="round" fill="#0000FF"/>
        <path d="M 34.1439,9.8700 L 34.2001,9.8560 L 34.2564,9.7997 L 34.2704,9.7435 L 34.2704,7.1565 L 34.2564,7.1002 L 34.2001,7.0440 L 34.1439,7.0299 L 34.0876,7.0440 L 34.0314,7.1002 L 34.0173,7.1565 L 34.0173,9.7435 L 34.0314,9.7997 L 34.0876,9.8560 L 34.1439,9.8700 Z" stroke="#6565FF" stroke-width="0.1200" stroke-linecap="round" stroke-linejoin="round" fill="#6565FF"/>
        <path d="M 37.4654,9.5303 L 37.4654,7.4079 L 38.3584,7.4079 L 38.3584,6.9085 L 38.7212,6.9085 L 38.7212,6.4091 L 39.7817,6.4091 L 39.7817,6.9085 L 40.1444,6.9085 L 40.1444,7.4079 L 41.0375,7.4079 L 41.0375,9.5303 L 37.4654,9.5303 Z" stroke="#161616" stroke-width="0.1200" stroke-linecap="round" stroke-linejoin="round" fill="#000000"/>
        <path d="M 45.2814,2.2473 L 45.2814,2.3999 L 45.0564,2.3999 L 45.0564,2.8300 L 44.1142,2.8300 L 44.1142,2.8716 L 43.8189,2.8716 L 43.8189,2.3999 L 43.8751,2.3999 L 43.8751,2.8300 L 44.1142,2.8300 L 44.1142,3.7872 L 44.2126,3.7872 L 44.2126,4.2866 L 44.1142,4.2866 L 44.1142,5.3686 L 47.7142,5.3686 L 47.7142,4.2866 L 47.6158,4.2866 L 47.6158,3.7872 L 47.7142,3.7872 L 47.7142,2.8300 L 47.9533,2.8300 L 47.9533,2.3999 L 48.0095,2.3999 L 48.0095,2.8716 L 47.7142,2.8716 L 47.7142,2.8300 L 46.7720,2.8300 L 46.7720,2.3999 L 46.5470,2.3999 L 46.5470,2.2473 L 45.2814,2.2473 Z" stroke="#000000" stroke-width="0.1200" stroke-linecap="round" stroke-linejoin="round" fill="#000000"/>
        <path d="M 45.0564,2.4138 L 43.8751,2.4138 L 43.8751,2.8438 L 45.0564,2.8438 L 45.0564,2.4138 Z" stroke="#494949" stroke-width="0.1200" stroke-linecap="round" stroke-linejoin="round" fill="#000000"/>
        <path d="M 47.9533,2.4138 L 46.7720,2.4138 L 46.7720,2.8438 L 47.9533,2.8438 L 47.9533,2.4138 Z" stroke="#494949" stroke-width="0.1200" stroke-linecap="round" stroke-linejoin="round" fill="#000000"/>
        <path d="M 45.2814,10.2656 L 45.2814,10.1130 L 45.0564,10.1130 L 45.0564,9.6829 L 44.1142,9.6829 L 44.1142,9.6413 L 43.8189,9.6413 L 43.8189,10.1130 L 43.8751,10.1130 L 43.8751,9.6829 L 44.1142,9.6829 L 44.1142,8.7257 L 44.2126,8.7257 L 44.2126,8.2263 L 44.1142,8.2263 L 44.1142,7.1443 L 47.7142,7.1443 L 47.7142,8.2263 L 47.6158,8.2263 L 47.6158,8.7257 L 47.7142,8.7257 L 47.7142,9.6829 L 47.9533,9.6829 L 47.9533,10.1130 L 48.0095,10.1130 L 48.0095,9.6413 L 47.7142,9.6413 L 47.7142,9.6829 L 46.7720,9.6829 L 46.7720,10.1130 L 46.5470,10.1130 L 46.5470,10.2656 L 45.2814,10.2656 Z" stroke="#000000" stroke-width="0.1200" stroke-linecap="round" stroke-linejoin="round" fill="#000000"/>
        <path d="M 45.0564,9.6829 L 43.8751,9.6829 L 43.8751,10.1130 L 45.0564,10.1130 L 45.0564,9.6829 Z" stroke="#494949" stroke-width="0.1200" stroke-linecap="round" stroke-linejoin="round" fill="#000000"/>
        <path d="M 47.9533,9.6829 L 46.7720,9.6829 L 46.7720,10.1130 L 47.9533,10.1130 L 47.9533,9.6829 Z" stroke="#494949" stroke-width="0.1200" stroke-linecap="round" stroke-linejoin="round" fill="#000000"/>
        <path d="M 51.8627,2.2473 L 51.8627,2.3999 L 51.6377,2.3999 L 51.6377,2.8300 L 50.6955,2.8300 L 50.6955,2.8716 L 50.4002,2.8716 L 50.4002,2.3999 L 50.4564,2.3999 L 50.4564,2.8300 L 50.6955,2.8300 L 50.6955,3.7872 L 50.7939,3.7872 L 50.7939,4.2866 L 50.6955,4.2866 L 50.6955,5.3686 L 54.2955,5.3686 L 54.2955,4.2866 L 54.1971,4.2866 L 54.1971,3.7872 L 54.2955,3.7872 L 54.2955,2.8300 L 54.5346,2.8300 L 54.5346,2.3999 L 54.5908,2.3999 L 54.5908,2.8716 L 54.2955,2.8716 L 54.2955,2.8300 L 53.3533,2.8300 L 53.3533,2.3999 L 53.1283,2.3999 L 53.1283,2.2473 L 51.8627,2.2473 Z" stroke="#000000" stroke-width="0.1200" stroke-linecap="round" stroke-linejoin="round" fill="#000000"/>
        <path d="M 51.6377,2.4138 L 50.4564,2.4138 L 50.4564,2.8438 L 51.6377,2.8438 L 51.6377,2.4138 Z" stroke="#494949" stroke-width="0.1200" stroke-linecap="round" stroke-linejoin="round" fill="#000000"/>
        <path d="M 54.5346,2.4138 L 53.3533,2.4138 L 53.3533,2.8438 L 54.5346,2.8438 L 54.5346,2.4138 Z" stroke="#494949" stroke-width="0.1200" stroke-linecap="round" stroke-linejoin="round" fill="#000000"/>
        <path d="M 51.8627,10.2656 L 51.8627,10.1130 L 51.6377,10.1130 L 51.6377,9.6829 L 50.6955,9.6829 L 50.6955,9.6413 L 50.4002,9.6413 L 50.4002,10.1130 L 50.4564,10.1130 L 50.4564,9.6829 L 50.6955,9.6829 L 50.6955,8.7257 L 50.7939,8.7257 L 50.7939,8.2263 L 50.6955,8.2263 L 50.6955,7.1443 L 54.2955,7.1443 L 54.2955,8.2263 L 54.1971,8.2263 L 54.1971,8.7257 L 54.2955,8.7257 L 54.2955,9.6829 L 54.5346,9.6829 L 54.5346,10.1130 L 54.5908,10.1130 L 54.5908,9.6413 L 54.2955,9.6413 L 54.2955,9.6829 L 53.3533,9.6829 L 53.3533,10.1130 L 53.1283,10.1130 L 53.1283,10.2656 L 51.8627,10.2656 Z" stroke="#000000" stroke-width="0.1200" stroke-linecap="round" stroke-linejoin="round" fill="#000000"/>
        <path d="M 51.6377,9.6829 L 50.4564,9.6829 L 50.4564,10.1130 L 51.6377,10.1130 L 51.6377,9.6829 Z" stroke="#494949" stroke-width="0.1200" stroke-linecap="round" stroke-linejoin="round" fill="#000000"/>
        <path d="M 54.5346,9.6829 L 53.3533,9.6829 L 53.3533,10.1130 L 54.5346,10.1130 L 54.5346,9.6829 Z" stroke="#494949" stroke-width="0.1200" stroke-linecap="round" stroke-linejoin="round" fill="#000000"/>
        <path d="M 58.5564,2.2473 L 58.5564,2.3999 L 58.3314,2.3999 L 58.3314,2.8300 L 57.3893,2.8300 L 57.3893,2.8716 L 57.0939,2.8716 L 57.0939,2.3999 L 57.1502,2.3999 L 57.1502,2.8300 L 57.3893,2.8300 L 57.3893,3.7872 L 57.4877,3.7872 L 57.4877,4.2866 L 57.3893,4.2866 L 57.3893,5.3686 L 60.9893,5.3686 L 60.9893,4.2866 L 60.8908,4.2866 L 60.8908,3.7872 L 60.9893,3.7872 L 60.9893,2.8300 L 61.2283,2.8300 L 61.2283,2.3999 L 61.2846,2.3999 L 61.2846,2.8716 L 60.9893,2.8716 L 60.9893,2.8300 L 60.0471,2.8300 L 60.0471,2.3999 L 59.8221,2.3999 L 59.8221,2.2473 L 58.5564,2.2473 Z" stroke="#000000" stroke-width="0.1200" stroke-linecap="round" stroke-linejoin="round" fill="#000000"/>
        <path d="M 58.3314,2.4138 L 57.1502,2.4138 L 57.1502,2.8438 L 58.3314,2.8438 L 58.3314,2.4138 Z" stroke="#494949" stroke-width="0.1200" stroke-linecap="round" stroke-linejoin="round" fill="#000000"/>
        <path d="M 61.2283,2.4138 L 60.0471,2.4138 L 60.0471,2.8438 L 61.2283,2.8438 L 61.2283,2.4138 Z" stroke="#494949" stroke-width="0.1200" stroke-linecap="round" stroke-linejoin="round" fill="#000000"/>
        <path d="M 58.5564,10.2656 L 58.5564,10.1130 L 58.3314,10.1130 L 58.3314,9.6829 L 57.3893,9.6829 L 57.3893,9.6413 L 57.0939,9.6413 L 57.0939,10.1130 L 57.1502,10.1130 L 57.1502,9.6829 L 57.3893,9.6829 L 57.3893,8.7257 L 57.4877,8.7257 L 57.4877,8.2263 L 57.3893,8.2263 L 57.3893,7.1443 L 60.9893,7.1443 L 60.9893,8.2263 L 60.8908,8.2263 L 60.8908,8.7257 L 60.9893,8.7257 L 60.9893,9.6829 L 61.2283,9.6829 L 61.2283,10.1130 L 61.2846,10.1130 L 61.2846,9.6413 L 60.9893,9.6413 L 60.9893,9.6829 L 60.0471,9.6829 L 60.0471,10.1130 L 59.8221,10.1130 L 59.8221,10.2656 L 58.5564,10.2656 Z" stroke="#000000" stroke-width="0.1200" stroke-linecap="round" stroke-linejoin="round" fill="#000000"/>
        <path d="M 58.3314,9.6829 L 57.1502,9.6829 L 57.1502,10.1130 L 58.3314,10.1130 L 58.3314,9.6829 Z" stroke="#494949" stroke-width="0.1200" stroke-linecap="round" stroke-linejoin="round" fill="#000000"/>
        <path d="M 61.2283,9.6829 L 60.0471,9.6829 L 60.0471,10.1130 L 61.2283,10.1130 L 61.2283,9.6829 Z" stroke="#494949" stroke-width="0.1200" stroke-linecap="round" stroke-linejoin="round" fill="#000000"/>
        <path d="M 64.9127,2.2473 L 64.9127,2.3999 L 64.6877,2.3999 L 64.6877,2.8300 L 63.7455,2.8300 L 63.7455,2.8716 L 63.4502,2.8716 L 63.4502,2.3999 L 63.5065,2.3999 L 63.5065,2.8300 L 63.7455,2.8300 L 63.7455,3.7872 L 63.8440,3.7872 L 63.8440,4.2866 L 63.7455,4.2866 L 63.7455,5.3686 L 67.3455,5.3686 L 67.3455,4.2866 L 67.2471,4.2866 L 67.2471,3.7872 L 67.3455,3.7872 L 67.3455,2.8300 L 67.5846,2.8300 L 67.5846,2.3999 L 67.6408,2.3999 L 67.6408,2.8716 L 67.3455,2.8716 L 67.3455,2.8300 L 66.4033,2.8300 L 66.4033,2.3999 L 66.1783,2.3999 L 66.1783,2.2473 L 64.9127,2.2473 Z" stroke="#000000" stroke-width="0.1200" stroke-linecap="round" stroke-linejoin="round" fill="#000000"/>
        <path d="M 64.6877,2.4138 L 63.5065,2.4138 L 63.5065,2.8438 L 64.6877,2.8438 L 64.6877,2.4138 Z" stroke="#494949" stroke-width="0.1200" stroke-linecap="round" stroke-linejoin="round" fill="#000000"/>
        <path d="M 67.5846,2.4138 L 66.4033,2.4138 L 66.4033,2.8438 L 67.5846,2.8438 L 67.5846,2.4138 Z" stroke="#494949" stroke-width="0.1200" stroke-linecap="round" stroke-linejoin="round" fill="#000000"/>
        <path d="M 64.9127,10.2656 L 64.9127,10.1130 L 64.6877,10.1130 L 64.6877,9.6829 L 63.7455,9.6829 L 63.7455,9.6413 L 63.4502,9.6413 L 63.4502,10.1130 L 63.5065,10.1130 L 63.5065,9.6829 L 63.7455,9.6829 L 63.7455,8.7257 L 63.8440,8.7257 L 63.8440,8.2263 L 63.7455,8.2263 L 63.7455,7.1443 L 67.3455,7.1443 L 67.3455,8.2263 L 67.2471,8.2263 L 67.2471,8.7257 L 67.3455,8.7257 L 67.3455,9.6829 L 67.5846,9.6829 L 67.5846,10.1130 L 67.6408,10.1130 L 67.6408,9.6413 L 67.3455,9.6413 L 67.3455,9.6829 L 66.4033,9.6829 L 66.4033,10.1130 L 66.1783,10.1130 L 66.1783,10.2656 L 64.9127,10.2656 Z" stroke="#000000" stroke-width="0.1200" stroke-linecap="round" stroke-linejoin="round" fill="#000000"/>
        <path d="M 64.6877,9.6829 L 63.5065,9.6829 L 63.5065,10.1130 L 64.6877,10.1130 L 64.6877,9.6829 Z" stroke="#494949" stroke-width="0.1200" stroke-linecap="round" stroke-linejoin="round" fill="#000000"/>
        <path d="M 67.5846,9.6829 L 66.4033,9.6829 L 66.4033,10.1130 L 67.5846,10.1130 L 67.5846,9.6829 Z" stroke="#494949" stroke-width="0.1200" stroke-linecap="round" stroke-linejoin="round" fill="#000000"/>
        <path d="M 69.4690,2.2473 L 69.4690,2.3999 L 69.2440,2.3999 L 69.2440,2.8300 L 68.3018,2.8300 L 68.3018,2.8716 L 68.0065,2.8716 L 68.0065,2.3999 L 68.0627,2.3999 L 68.0627,2.8300 L 68.3018,2.8300 L 68.3018,3.7872 L 68.4002,3.7872 L 68.4002,4.2866 L 68.3018,4.2866 L 68.3018,5.3686 L 71.9018,5.3686 L 71.9018,4.2866 L 71.8034,4.2866 L 71.8034,3.7872 L 71.9018,3.7872 L 71.9018,2.8300 L 72.1409,2.8300 L 72.1409,2.3999 L 72.1971,2.3999 L 72.1971,2.8716 L 71.9018,2.8716 L 71.9018,2.8300 L 70.9596,2.8300 L 70.9596,2.3999 L 70.7346,2.3999 L 70.7346,2.2473 L 69.4690,2.2473 Z" stroke="#000000" stroke-width="0.1200" stroke-linecap="round" stroke-linejoin="round" fill="#000000"/>
        <path d="M 69.2440,2.4138 L 68.0627,2.4138 L 68.0627,2.8438 L 69.2440,2.8438 L 69.2440,2.4138 Z" stroke="#494949" stroke-width="0.1200" stroke-linecap="round" stroke-linejoin="round" fill="#000000"/>
        <path d="M 72.1409,2.4138 L 70.9596,2.4138 L 70.9596,2.8438 L 72.1409,2.8438 L 72.1409,2.4138 Z" stroke="#494949" stroke-width="0.1200" stroke-linecap="round" stroke-linejoin="round" fill="#000000"/>
        <path d="M 69.4690,10.2656 L 69.4690,10.1130 L 69.2440,10.1130 L 69.2440,9.6829 L 68.3018,9.6829 L 68.3018,9.6413 L 68.0065,9.6413 L 68.0065,10.1130 L 68.0627,10.1130 L 68.0627,9.6829 L 68.3018,9.6829 L 68.3018,8.7257 L 68.4002,8.7257 L 68.4002,8.2263 L 68.3018,8.2263 L 68.3018,7.1443 L 71.9018,7.1443 L 71.9018,8.2263 L 71.8034,8.2263 L 71.8034,8.7257 L 71.9018,8.7257 L 71.9018,9.6829 L 72.1409,9.6829 L 72.1409,10.1130 L 72.1971,10.1130 L 72.1971,9.6413 L 71.9018,9.6413 L 71.9018,9.6829 L 70.9596,9.6829 L 70.9596,10.1130 L 70.7346,10.1130 L 70.7346,10.2656 L 69.4690,10.2656 Z" stroke="#000000" stroke-width="0.1200" stroke-linecap="round" stroke-linejoin="round" fill="#000000"/>
        <path d="M 69.2440,9.6829 L 68.0627,9.6829 L 68.0627,10.1130 L 69.2440,10.1130 L 69.2440,9.6829 Z" stroke="#494949" stroke-width="0.1200" stroke-linecap="round" stroke-linejoin="round" fill="#000000"/>
        <path d="M 72.1409,9.6829 L 70.9596,9.6829 L 70.9596,10.1130 L 72.1409,10.1130 L 72.1409,9.6829 Z" stroke="#494949" stroke-width="0.1200" stroke-linecap="round" stroke-linejoin="round" fill="#000000"/>
        <path d="M 73.9690,2.2473 L 73.9690,2.3999 L 73.7440,2.3999 L 73.7440,2.8300 L 72.8018,2.8300 L 72.8018,2.8716 L 72.5065,2.8716 L 72.5065,2.3999 L 72.5627,2.3999 L 72.5627,2.8300 L 72.8018,2.8300 L 72.8018,3.7872 L 72.9002,3.7872 L 72.9002,4.2866 L 72.8018,4.2866 L 72.8018,5.3686 L 76.4018,5.3686 L 76.4018,4.2866 L 76.3034,4.2866 L 76.3034,3.7872 L 76.4018,3.7872 L 76.4018,2.8300 L 76.6409,2.8300 L 76.6409,2.3999 L 76.6971,2.3999 L 76.6971,2.8716 L 76.4018,2.8716 L 76.4018,2.8300 L 75.4596,2.8300 L 75.4596,2.3999 L 75.2346,2.3999 L 75.2346,2.2473 L 73.9690,2.2473 Z" stroke="#000000" stroke-width="0.1200" stroke-linecap="round" stroke-linejoin="round" fill="#000000"/>
        <path d="M 73.7440,2.4138 L 72.5627,2.4138 L 72.5627,2.8438 L 73.7440,2.8438 L 73.7440,2.4138 Z" stroke="#494949" stroke-width="0.1200" stroke-linecap="round" stroke-linejoin="round" fill="#000000"/>
        <path d="M 76.6409,2.4138 L 75.4596,2.4138 L 75.4596,2.8438 L 76.6409,2.8438 L 76.6409,2.4138 Z" stroke="#494949" stroke-width="0.1200" stroke-linecap="round" stroke-linejoin="round" fill="#000000"/>
        <path d="M 73.9690,10.2656 L 73.9690,10.1130 L 73.7440,10.1130 L 73.7440,9.6829 L 72.8018,9.6829 L 72.8018,9.6413 L 72.5065,9.6413 L 72.5065,10.1130 L 72.5627,10.1130 L 72.5627,9.6829 L 72.8018,9.6829 L 72.8018,8.7257 L 72.9002,8.7257 L 72.9002,8.2263 L 72.8018,8.2263 L 72.8018,7.1443 L 76.4018,7.1443 L 76.4018,8.2263 L 76.3034,8.2263 L 76.3034,8.7257 L 76.4018,8.7257 L 76.4018,9.6829 L 76.6409,9.6829 L 76.6409,10.1130 L 76.6971,10.1130 L 76.6971,9.6413 L 76.4018,9.6413 L 76.4018,9.6829 L 75.4596,9.6829 L 75.4596,10.1130 L 75.2346,10.1130 L 75.2346,10.2656 L 73.9690,10.2656 Z" stroke="#000000" stroke-width="0.1200" stroke-linecap="round" stroke-linejoin="round" fill="#000000"/>
        <path d="M 73.7440,9.6829 L 72.5627,9.6829 L 72.5627,10.1130 L 73.7440,10.1130 L 73.7440,9.6829 Z" stroke="#494949" stroke-width="0.1200" stroke-linecap="round" stroke-linejoin="round" fill="#000000"/>
        <path d="M 76.6409,9.6829 L 75.4596,9.6829 L 75.4596,10.1130 L 76.6409,10.1130 L 76.6409,9.6829 Z" stroke="#494949" stroke-width="0.1200" stroke-linecap="round" stroke-linejoin="round" fill="#000000"/>
        <path d="M 78.5253,2.2473 L 78.5253,2.3999 L 78.3003,2.3999 L 78.3003,2.8300 L 77.3581,2.8300 L 77.3581,2.8716 L 77.0628,2.8716 L 77.0628,2.3999 L 77.1190,2.3999 L 77.1190,2.8300 L 77.3581,2.8300 L 77.3581,3.7872 L 77.4565,3.7872 L 77.4565,4.2866 L 77.3581,4.2866 L 77.3581,5.3686 L 80.9581,5.3686 L 80.9581,4.2866 L 80.8596,4.2866 L 80.8596,3.7872 L 80.9581,3.7872 L 80.9581,2.8300 L 81.1971,2.8300 L 81.1971,2.3999 L 81.2534,2.3999 L 81.2534,2.8716 L 80.9581,2.8716 L 80.9581,2.8300 L 80.0159,2.8300 L 80.0159,2.3999 L 79.7909,2.3999 L 79.7909,2.2473 L 78.5253,2.2473 Z" stroke="#000000" stroke-width="0.1200" stroke-linecap="round" stroke-linejoin="round" fill="#000000"/>
        <path d="M 78.3003,2.4138 L 77.1190,2.4138 L 77.1190,2.8438 L 78.3003,2.8438 L 78.3003,2.4138 Z" stroke="#494949" stroke-width="0.1200" stroke-linecap="round" stroke-linejoin="round" fill="#000000"/>
        <path d="M 81.1971,2.4138 L 80.0159,2.4138 L 80.0159,2.8438 L 81.1971,2.8438 L 81.1971,2.4138 Z" stroke="#494949" stroke-width="0.1200" stroke-linecap="round" stroke-linejoin="round" fill="#000000"/>
        <path d="M 78.5253,10.2656 L 78.5253,10.1130 L 78.3003,10.1130 L 78.3003,9.6829 L 77.3581,9.6829 L 77.3581,9.6413 L 77.0628,9.6413 L 77.0628,10.1130 L 77.1190,10.1130 L 77.1190,9.6829 L 77.3581,9.6829 L 77.3581,8.7257 L 77.4565,8.7257 L 77.4565,8.2263 L 77.3581,8.2263 L 77.3581,7.1443 L 80.9581,7.1443 L 80.9581,8.2263 L 80.8596,8.2263 L 80.8596,8.7257 L 80.9581,8.7257 L 80.9581,9.6829 L 81.1971,9.6829 L 81.1971,10.1130 L 81.2534,10.1130 L 81.2534,9.6413 L 80.9581,9.6413 L 80.9581,9.6829 L 80.0159,9.6829 L 80.0159,10.1130 L 79.7909,10.1130 L 79.7909,10.2656 L 78.5253,10.2656 Z" stroke="#000000" stroke-width="0.1200" stroke-linecap="round" stroke-linejoin="round" fill="#000000"/>
        <path d="M 78.3003,9.6829 L 77.1190,9.6829 L 77.1190,10.1130 L 78.3003,10.1130 L 78.3003,9.6829 Z" stroke="#494949" stroke-width="0.1200" stroke-linecap="round" stroke-linejoin="round" fill="#000000"/>
        <path d="M 81.1971,9.6829 L 80.0159,9.6829 L 80.0159,10.1130 L 81.1971,10.1130 L 81.1971,9.6829 Z" stroke="#494949" stroke-width="0.1200" stroke-linecap="round" stroke-linejoin="round" fill="#000000"/>
        <path d="M 93.4034,5.1491 L 89.4378,5.1491 L 89.4378,2.4777 L 93.4034,2.4777 L 93.4034,5.1491 Z" stroke="#000000" stroke-width="0.1200" stroke-linecap="round" stroke-linejoin="round" fill="none"/>
        <path d="M 93.4034,10.0352 L 89.4378,10.0352 L 89.4378,7.3638 L 93.4034,7.3638 L 93.4034,10.0352 Z" stroke="#000000" stroke-width="0.1200" stroke-linecap="round" stroke-linejoin="round" fill="none"/>
        <path d="M 97.9597,5.1491 L 93.9941,5.1491 L 93.9941,2.4777 L 97.9597,2.4777 L 97.9597,5.1491 Z" stroke="#000000" stroke-width="0.1200" stroke-linecap="round" stroke-linejoin="round" fill="none"/>
        <path d="M 97.9597,10.0352 L 93.9941,10.0352 L 93.9941,7.3638 L 97.9597,7.3638 L 97.9597,10.0352 Z" stroke="#000000" stroke-width="0.1200" stroke-linecap="round" stroke-linejoin="round" fill="none"/>
        <path d="M 102.5722,5.1491 L 98.6066,5.1491 L 98.6066,2.4777 L 102.5722,2.4777 L 102.5722,5.1491 Z" stroke="#000000" stroke-width="0.1200" stroke-linecap="round" stroke-linejoin="round" fill="none"/>
        <path d="M 102.5722,10.0352 L 98.6066,10.0352 L 98.6066,7.3638 L 102.5722,7.3638 L 102.5722,10.0352 Z" stroke="#000000" stroke-width="0.1200" stroke-linecap="round" stroke-linejoin="round" fill="none"/>
        <path d="M 107.1847,5.1491 L 103.2191,5.1491 L 103.2191,2.4777 L 107.1847,2.4777 L 107.1847,5.1491 Z" stroke="#000000" stroke-width="0.1200" stroke-linecap="round" stroke-linejoin="round" fill="none"/>
        <path d="M 107.1847,10.0352 L 103.2191,10.0352 L 103.2191,7.3638 L 107.1847,7.3638 L 107.1847,10.0352 Z" stroke="#000000" stroke-width="0.1200" stroke-linecap="round" stroke-linejoin="round" fill="none"/>
        <path d="M 44.9129,2.4789 L 44.1526,2.4789 L 44.1526,2.7903 L 44.9129,2.7903 L 44.9129,2.4789 Z" stroke="#000000" stroke-width="0.1200" stroke-linecap="round" stroke-linejoin="round" fill="#83FF00"/>
        <path d="M 47.7777,2.4789 L 47.0173,2.4789 L 47.0173,2.7903 L 47.7777,2.7903 L 47.7777,2.4789 Z" stroke="#000000" stroke-width="0.1200" stroke-linecap="round" stroke-linejoin="round" fill="#83FF00"/>
        <path d="M 51.4978,2.4789 L 50.7374,2.4789 L 50.7374,2.7903 L 51.4978,2.7903 L 51.4978,2.4789 Z" stroke="#000000" stroke-width="0.1200" stroke-linecap="round" stroke-linejoin="round" fill="#83FF00"/>
        <path d="M 54.3625,2.4789 L 53.6022,2.4789 L 53.6022,2.7903 L 54.3625,2.7903 L 54.3625,2.4789 Z" stroke="#000000" stroke-width="0.1200" stroke-linecap="round" stroke-linejoin="round" fill="#83FF00"/>
        <path d="M 58.1913,2.4789 L 57.4309,2.4789 L 57.4309,2.7903 L 58.1913,2.7903 L 58.1913,2.4789 Z" stroke="#000000" stroke-width="0.1200" stroke-linecap="round" stroke-linejoin="round" fill="#83FF00"/>
        <path d="M 61.0560,2.4789 L 60.2957,2.4789 L 60.2957,2.7903 L 61.0560,2.7903 L 61.0560,2.4789 Z" stroke="#000000" stroke-width="0.1200" stroke-linecap="round" stroke-linejoin="round" fill="#83FF00"/>
        <path d="M 64.5453,2.4789 L 63.7850,2.4789 L 63.7850,2.7903 L 64.5453,2.7903 L 64.5453,2.4789 Z" stroke="#000000" stroke-width="0.1200" stroke-linecap="round" stroke-linejoin="round" fill="#83FF00"/>
        <path d="M 67.4101,2.4789 L 66.6498,2.4789 L 66.6498,2.7903 L 67.4101,2.7903 L 67.4101,2.4789 Z" stroke="#000000" stroke-width="0.1200" stroke-linecap="round" stroke-linejoin="round" fill="#83FF00"/>
        <path d="M 69.1072,2.4789 L 68.3469,2.4789 L 68.3469,2.7903 L 69.1072,2.7903 L 69.1072,2.4789 Z" stroke="#000000" stroke-width="0.1200" stroke-linecap="round" stroke-linejoin="round" fill="#83FF00"/>
        <path d="M 71.9720,2.4789 L 71.2116,2.4789 L 71.2116,2.7903 L 71.9720,2.7903 L 71.9720,2.4789 Z" stroke="#000000" stroke-width="0.1200" stroke-linecap="round" stroke-linejoin="round" fill="#83FF00"/>
        <path d="M 73.6012,2.4789 L 72.8409,2.4789 L 72.8409,2.7903 L 73.6012,2.7903 L 73.6012,2.4789 Z" stroke="#000000" stroke-width="0.1200" stroke-linecap="round" stroke-linejoin="round" fill="#83FF00"/>
        <path d="M 76.4660,2.4789 L 75.7057,2.4789 L 75.7057,2.7903 L 76.4660,2.7903 L 76.4660,2.4789 Z" stroke="#000000" stroke-width="0.1200" stroke-linecap="round" stroke-linejoin="round" fill="#83FF00"/>
        <path d="M 78.1631,2.4789 L 77.4028,2.4789 L 77.4028,2.7903 L 78.1631,2.7903 L 78.1631,2.4789 Z" stroke="#000000" stroke-width="0.1200" stroke-linecap="round" stroke-linejoin="round" fill="#83FF00"/>
        <path d="M 81.0279,2.4789 L 80.2675,2.4789 L 80.2675,2.7903 L 81.0279,2.7903 L 81.0279,2.4789 Z" stroke="#000000" stroke-width="0.1200" stroke-linecap="round" stroke-linejoin="round" fill="#83FF00"/>
        <path d="M 47.7777,9.7338 L 47.0173,9.7338 L 47.0173,10.0452 L 47.7777,10.0452 L 47.7777,9.7338 Z" stroke="#000000" stroke-width="0.1200" stroke-linecap="round" stroke-linejoin="round" fill="#83FF00"/>
        <path d="M 44.9129,9.7338 L 44.1526,9.7338 L 44.1526,10.0452 L 44.9129,10.0452 L 44.9129,9.7338 Z" stroke="#000000" stroke-width="0.1200" stroke-linecap="round" stroke-linejoin="round" fill="#83FF00"/>
        <path d="M 54.3625,9.7338 L 53.6022,9.7338 L 53.6022,10.0452 L 54.3625,10.0452 L 54.3625,9.7338 Z" stroke="#000000" stroke-width="0.1200" stroke-linecap="round" stroke-linejoin="round" fill="#83FF00"/>
        <path d="M 51.4978,9.7338 L 50.7374,9.7338 L 50.7374,10.0452 L 51.4978,10.0452 L 51.4978,9.7338 Z" stroke="#000000" stroke-width="0.1200" stroke-linecap="round" stroke-linejoin="round" fill="#83FF00"/>
        <path d="M 61.0560,9.7338 L 60.2957,9.7338 L 60.2957,10.0452 L 61.0560,10.0452 L 61.0560,9.7338 Z" stroke="#000000" stroke-width="0.1200" stroke-linecap="round" stroke-linejoin="round" fill="#83FF00"/>
        <path d="M 58.1913,9.7338 L 57.4309,9.7338 L 57.4309,10.0452 L 58.1913,10.0452 L 58.1913,9.7338 Z" stroke="#000000" stroke-width="0.1200" stroke-linecap="round" stroke-linejoin="round" fill="#83FF00"/>
        <path d="M 67.4101,9.7338 L 66.6498,9.7338 L 66.6498,10.0452 L 67.4101,10.0452 L 67.4101,9.7338 Z" stroke="#000000" stroke-width="0.1200" stroke-linecap="round" stroke-linejoin="round" fill="#83FF00"/>
        <path d="M 64.5453,9.7338 L 63.7850,9.7338 L 63.7850,10.0452 L 64.5453,10.0452 L 64.5453,9.7338 Z" stroke="#000000" stroke-width="0.1200" stroke-linecap="round" stroke-linejoin="round" fill="#83FF00"/>
        <path d="M 71.9720,9.7338 L 71.2116,9.7338 L 71.2116,10.0452 L 71.9720,10.0452 L 71.9720,9.7338 Z" stroke="#000000" stroke-width="0.1200" stroke-linecap="round" stroke-linejoin="round" fill="#83FF00"/>
        <path d="M 69.1072,9.7338 L 68.3469,9.7338 L 68.3469,10.0452 L 69.1072,10.0452 L 69.1072,9.7338 Z" stroke="#000000" stroke-width="0.1200" stroke-linecap="round" stroke-linejoin="round" fill="#83FF00"/>
        <path d="M 76.4660,9.7338 L 75.7057,9.7338 L 75.7057,10.0452 L 76.4660,10.0452 L 76.4660,9.7338 Z" stroke="#000000" stroke-width="0.1200" stroke-linecap="round" stroke-linejoin="round" fill="#83FF00"/>
        <path d="M 73.6012,9.7338 L 72.8409,9.7338 L 72.8409,10.0452 L 73.6012,10.0452 L 73.6012,9.7338 Z" stroke="#000000" stroke-width="0.1200" stroke-linecap="round" stroke-linejoin="round" fill="#83FF00"/>
        <path d="M 81.0279,9.7338 L 80.2675,9.7338 L 80.2675,10.0452 L 81.0279,10.0452 L 81.0279,9.7338 Z" stroke="#000000" stroke-width="0.1200" stroke-linecap="round" stroke-linejoin="round" fill="#83FF00"/>
        <path d="M 78.1631,9.7338 L 77.4028,9.7338 L 77.4028,10.0452 L 78.1631,10.0452 L 78.1631,9.7338 Z" stroke="#000000" stroke-width="0.1200" stroke-linecap="round" stroke-linejoin="round" fill="#83FF00"/>
      </g>
      <!--emf-blob end-->
    </g>
  </g>
</svg>
