<svg xmlns="http://www.w3.org/2000/svg" xmlns:xlink="http://www.w3.org/1999/xlink" version="1.1" width="7.6032000000" height="0.4000000000" viewBox="0 0 136.8567 7.2000">
  <title><![CDATA[FG-100F/101F]]></title>
  <g transform=" scale(4.000000) ">
    <!--converted by libvisio2svg-->
    <g transform=" translate(576.000000,-765.042500) ">
      <!--emf-blob start-->
      <g transform="translate(-0.0000, -0.0000)">
        <path d="M 14.1620,1.6407 L 14.1620,2.4948 L 14.9002,2.4948 " stroke="#000000" stroke-width="0.1193" stroke-linecap="round" stroke-linejoin="round" fill="none"/>
        <path d="M 14.9002,1.6407 L 16.3572,1.6407 " stroke="#000000" stroke-width="0.1193" stroke-linecap="round" stroke-linejoin="round" fill="none"/>
        <path d="M 15.6190,1.6407 L 15.6190,2.4948 " stroke="#000000" stroke-width="0.1193" stroke-linecap="round" stroke-linejoin="round" fill="none"/>
        <path d="M 16.7263,1.6407 L 16.7263,2.4948 " stroke="#000000" stroke-width="0.1193" stroke-linecap="round" stroke-linejoin="round" fill="none"/>
        <path d="M 16.7263,1.6407 L 16.7263,2.4948 " stroke="#000000" stroke-width="0.1193" stroke-linecap="round" stroke-linejoin="round" fill="none"/>
        <path d="M 17.4451,2.4948 L 17.4451,1.6407 L 18.1833,2.4948 L 18.9215,1.6407 L 18.9215,2.4948 " stroke="#000000" stroke-width="0.1193" stroke-linecap="round" stroke-linejoin="round" fill="none"/>
        <path d="M 19.2711,2.4948 L 20.0094,1.6407 L 20.7476,2.4948 " stroke="#000000" stroke-width="0.1193" stroke-linecap="round" stroke-linejoin="round" fill="none"/>
        <path d="M 19.4654,2.2813 L 20.5533,2.2813 " stroke="#000000" stroke-width="0.1193" stroke-linecap="round" stroke-linejoin="round" fill="none"/>
        <path d="M 11.9668,2.4948 L 12.7050,1.6407 L 13.4432,2.4948 " stroke="#000000" stroke-width="0.1193" stroke-linecap="round" stroke-linejoin="round" fill="none"/>
        <path d="M 12.1610,2.2813 L 13.2489,2.2813 " stroke="#000000" stroke-width="0.1193" stroke-linecap="round" stroke-linejoin="round" fill="none"/>
        <path d="M 135.9106,0.4765 L 135.8967,0.3784 L 135.8827,0.2943 L 135.8408,0.2243 L 135.7849,0.1542 L 135.7151,0.0981 L 135.6452,0.0561 L 135.5614,0.0420 L 135.4637,0.0280 L 0.4749,0.0280 L 0.3771,0.0420 L 0.2933,0.0561 L 0.2235,0.0981 L 0.1537,0.1542 L 0.0978,0.2243 L 0.0559,0.2943 L 0.0419,0.3784 L 0.0279,0.4765 L 0.0279,12.1379 L 0.0419,12.2360 L 0.0559,12.3201 L 0.0978,12.3902 L 0.1537,12.4603 L 0.2235,12.5164 L 0.2933,12.5584 L 0.3771,12.5724 L 0.4749,12.5864 L 135.4637,12.5864 L 135.5614,12.5724 L 135.6452,12.5584 L 135.7151,12.5164 L 135.7849,12.4603 L 135.8408,12.3902 L 135.8827,12.3201 L 135.8967,12.2360 L 135.9106,12.1379 L 135.9106,0.4765 Z" stroke="#000000" stroke-width="0.1193" stroke-linecap="round" stroke-linejoin="round" fill="#EAEAEA"/>
        <path d="M 128.7589,0.0280 L 7.1797,0.0280 L 7.1797,12.5864 L 128.7589,12.5864 L 128.7589,0.0280 Z" stroke="#000000" stroke-width="0.1193" stroke-linecap="round" stroke-linejoin="round" fill="#EAEAEA"/>
        <path d="M 5.1962,2.2426 L 5.1962,2.1304 L 5.1682,2.0183 L 5.1124,1.8221 L 5.0705,1.7240 L 5.0146,1.6259 L 4.9447,1.5418 L 4.8051,1.4016 L 4.7213,1.3315 L 4.6235,1.2755 L 4.5257,1.2334 L 4.3301,1.1774 L 4.2184,1.1493 L 1.8997,1.1493 L 1.7879,1.1774 L 1.5924,1.2334 L 1.4946,1.2755 L 1.3968,1.3315 L 1.3130,1.4016 L 1.1733,1.5418 L 1.1035,1.6259 L 1.0476,1.7240 L 1.0057,1.8221 L 0.9498,2.0183 L 0.9219,2.1304 L 0.9219,2.3687 L 0.9498,2.4808 L 1.0057,2.6771 L 1.0476,2.7752 L 1.1035,2.8733 L 1.1733,2.9574 L 1.3130,3.0976 L 1.3968,3.1676 L 1.4946,3.2237 L 1.5924,3.2657 L 1.7879,3.3218 L 1.8997,3.3498 L 4.2184,3.3498 L 4.3301,3.3218 L 4.5257,3.2657 L 4.6235,3.2237 L 4.7213,3.1676 L 4.8051,3.0976 L 4.9447,2.9574 L 5.0146,2.8733 L 5.0705,2.7752 L 5.1124,2.6771 L 5.1682,2.4808 L 5.1962,2.3687 L 5.1962,2.2566 L 5.1962,2.2426 Z" stroke="#000000" stroke-width="0.1193" stroke-linecap="round" stroke-linejoin="round" fill="#FFFFFF"/>
        <path d="M 5.1962,10.3719 L 5.1962,10.2598 L 5.1682,10.1476 L 5.1124,9.9514 L 5.0705,9.8533 L 5.0146,9.7552 L 4.9447,9.6711 L 4.8051,9.5309 L 4.7213,9.4609 L 4.6235,9.4048 L 4.5257,9.3627 L 4.3301,9.3067 L 4.2184,9.2786 L 1.8997,9.2786 L 1.7879,9.3067 L 1.5924,9.3627 L 1.4946,9.4048 L 1.3968,9.4609 L 1.3130,9.5309 L 1.1733,9.6711 L 1.1035,9.7552 L 1.0476,9.8533 L 1.0057,9.9514 L 0.9498,10.1476 L 0.9219,10.2598 L 0.9219,10.4980 L 0.9498,10.6102 L 1.0057,10.8064 L 1.0476,10.9045 L 1.1035,11.0026 L 1.1733,11.0867 L 1.3130,11.2269 L 1.3968,11.2970 L 1.4946,11.3530 L 1.5924,11.3951 L 1.7879,11.4511 L 1.8997,11.4792 L 4.2184,11.4792 L 4.3301,11.4511 L 4.5257,11.3951 L 4.6235,11.3530 L 4.7213,11.2970 L 4.8051,11.2269 L 4.9447,11.0867 L 5.0146,11.0026 L 5.0705,10.9045 L 5.1124,10.8064 L 5.1682,10.6102 L 5.1962,10.4980 L 5.1962,10.3859 L 5.1962,10.3719 Z" stroke="#000000" stroke-width="0.1193" stroke-linecap="round" stroke-linejoin="round" fill="#FFFFFF"/>
        <path d="M 135.0167,2.2426 L 135.0167,2.1304 L 134.9887,2.0183 L 134.9329,1.8221 L 134.8910,1.7240 L 134.8351,1.6259 L 134.7652,1.5418 L 134.6256,1.4016 L 134.5418,1.3315 L 134.4440,1.2755 L 134.3462,1.2334 L 134.1506,1.1774 L 134.0389,1.1493 L 131.7202,1.1493 L 131.6084,1.1774 L 131.4129,1.2334 L 131.3151,1.2755 L 131.2173,1.3315 L 131.1335,1.4016 L 130.9938,1.5418 L 130.9240,1.6259 L 130.8681,1.7240 L 130.8262,1.8221 L 130.7703,2.0183 L 130.7424,2.1304 L 130.7424,2.3687 L 130.7703,2.4808 L 130.8262,2.6771 L 130.8681,2.7752 L 130.9240,2.8733 L 130.9938,2.9574 L 131.1335,3.0976 L 131.2173,3.1676 L 131.3151,3.2237 L 131.4129,3.2657 L 131.6084,3.3218 L 131.7202,3.3498 L 134.0389,3.3498 L 134.1506,3.3218 L 134.3462,3.2657 L 134.4440,3.2237 L 134.5418,3.1676 L 134.6256,3.0976 L 134.7652,2.9574 L 134.8351,2.8733 L 134.8910,2.7752 L 134.9329,2.6771 L 134.9887,2.4808 L 135.0167,2.3687 L 135.0167,2.2566 L 135.0167,2.2426 Z" stroke="#000000" stroke-width="0.1193" stroke-linecap="round" stroke-linejoin="round" fill="#FFFFFF"/>
        <path d="M 135.0167,10.3719 L 135.0167,10.2598 L 134.9887,10.1476 L 134.9329,9.9514 L 134.8910,9.8533 L 134.8351,9.7552 L 134.7652,9.6711 L 134.6256,9.5309 L 134.5418,9.4609 L 134.4440,9.4048 L 134.3462,9.3627 L 134.1506,9.3067 L 134.0389,9.2786 L 131.7202,9.2786 L 131.6084,9.3067 L 131.4129,9.3627 L 131.3151,9.4048 L 131.2173,9.4609 L 131.1335,9.5309 L 130.9938,9.6711 L 130.9240,9.7552 L 130.8681,9.8533 L 130.8262,9.9514 L 130.7703,10.1476 L 130.7424,10.2598 L 130.7424,10.4980 L 130.7703,10.6102 L 130.8262,10.8064 L 130.8681,10.9045 L 130.9240,11.0026 L 130.9938,11.0867 L 131.1335,11.2269 L 131.2173,11.2970 L 131.3151,11.3530 L 131.4129,11.3951 L 131.6084,11.4511 L 131.7202,11.4792 L 134.0389,11.4792 L 134.1506,11.4511 L 134.3462,11.3951 L 134.4440,11.3530 L 134.5418,11.2970 L 134.6256,11.2269 L 134.7652,11.0867 L 134.8351,11.0026 L 134.8910,10.9045 L 134.9329,10.8064 L 134.9887,10.6102 L 135.0167,10.4980 L 135.0167,10.3859 L 135.0167,10.3719 Z" stroke="#000000" stroke-width="0.1193" stroke-linecap="round" stroke-linejoin="round" fill="#FFFFFF"/>
        <path d="M 128.0186,1.4156 L 128.0186,1.3596 L 127.9907,1.2474 L 127.9767,1.2054 L 127.9488,1.1493 L 127.8650,1.0232 L 127.7392,0.9391 L 127.6834,0.9110 L 127.6415,0.8970 L 127.5297,0.8690 L 8.4089,0.8690 L 8.2971,0.8970 L 8.2552,0.9110 L 8.1993,0.9391 L 8.0736,1.0232 L 7.9898,1.1493 L 7.9619,1.2054 L 7.9479,1.2474 L 7.9200,1.3596 L 7.9200,11.3250 L 7.9479,11.4371 L 7.9619,11.4792 L 7.9898,11.5352 L 8.0736,11.6614 L 8.1993,11.7455 L 8.2552,11.7735 L 8.2971,11.7875 L 8.4089,11.8156 L 127.5297,11.8156 L 127.6415,11.7875 L 127.6834,11.7735 L 127.7392,11.7455 L 127.8650,11.6614 L 127.9488,11.5352 L 127.9767,11.4792 L 127.9907,11.4371 L 128.0186,11.3250 L 128.0186,11.2689 L 128.0186,1.4156 Z" stroke="#333333" stroke-width="0.1193" stroke-linecap="round" stroke-linejoin="round" fill="#E2E2E2"/>
        <path d="M 11.3282,1.7660 L 11.3142,1.7100 L 11.2863,1.6679 L 11.2444,1.6399 L 11.1885,1.6259 L 11.1327,1.6399 L 11.0908,1.6679 L 11.0628,1.7100 L 11.0489,1.7660 L 11.0489,3.7423 L 11.0628,3.7984 L 11.0908,3.8404 L 11.1327,3.8684 L 11.1885,3.8825 L 11.2444,3.8684 L 11.2863,3.8404 L 11.3142,3.7984 L 11.3282,3.7423 L 11.3282,1.7660 Z" stroke="#000000" stroke-width="0.1193" stroke-linecap="round" stroke-linejoin="round" fill="#3B9945"/>
        <path d="M 10.3923,1.7660 L 10.3784,1.7100 L 10.3504,1.6679 L 10.3085,1.6399 L 10.2527,1.6259 L 10.1968,1.6399 L 10.1549,1.6679 L 10.1269,1.7100 L 10.1130,1.7660 L 10.1130,3.7423 L 10.1269,3.7984 L 10.1549,3.8404 L 10.1968,3.8684 L 10.2527,3.8825 L 10.3085,3.8684 L 10.3504,3.8404 L 10.3784,3.7984 L 10.3923,3.7423 L 10.3923,1.7660 Z" stroke="#000000" stroke-width="0.1193" stroke-linecap="round" stroke-linejoin="round" fill="#3B9945"/>
        <path d="M 9.4565,1.7660 L 9.4425,1.7100 L 9.4146,1.6679 L 9.3727,1.6399 L 9.3168,1.6259 L 9.2609,1.6399 L 9.2190,1.6679 L 9.1911,1.7100 L 9.1771,1.7660 L 9.1771,3.7423 L 9.1911,3.7984 L 9.2190,3.8404 L 9.2609,3.8684 L 9.3168,3.8825 L 9.3727,3.8684 L 9.4146,3.8404 L 9.4425,3.7984 L 9.4565,3.7423 L 9.4565,1.7660 Z" stroke="#000000" stroke-width="0.1193" stroke-linecap="round" stroke-linejoin="round" fill="#3B9945"/>
        <path d="M 66.7820,2.2426 L 49.6849,2.2426 L 49.6849,10.4280 L 66.7820,10.4280 L 66.7820,2.2426 Z" stroke="#000000" stroke-width="0.1193" stroke-linecap="round" stroke-linejoin="round" fill="#BFBFBF"/>
        <path d="M 42.7706,6.3913 L 38.0773,6.3913 L 38.0773,10.4280 L 42.7706,10.4280 L 42.7706,6.3913 Z" stroke="#000000" stroke-width="0.1193" stroke-linecap="round" stroke-linejoin="round" fill="#BFBFBF"/>
        <path d="M 113.2263,1.1493 L 118.9253,1.1493 " stroke="#000000" stroke-width="0.1193" stroke-linecap="round" stroke-linejoin="round" fill="none"/>
        <path d="M 102.6104,1.1493 L 107.9742,1.1493 " stroke="#000000" stroke-width="0.1193" stroke-linecap="round" stroke-linejoin="round" fill="none"/>
        <path d="M 84.9965,2.2426 L 67.8994,2.2426 L 67.8994,10.4280 L 84.9965,10.4280 L 84.9965,2.2426 Z" stroke="#000000" stroke-width="0.1193" stroke-linecap="round" stroke-linejoin="round" fill="#BFBFBF"/>
        <path d="M 48.5814,2.2426 L 43.8881,2.2426 L 43.8881,10.4280 L 48.5814,10.4280 L 48.5814,2.2426 Z" stroke="#000000" stroke-width="0.1193" stroke-linecap="round" stroke-linejoin="round" fill="#BFBFBF"/>
        <path d="M 48.3998,6.3353 L 48.3859,6.2652 L 48.3719,6.1811 L 48.2881,6.0690 L 48.1763,5.9849 L 48.0925,5.9708 L 48.0227,5.9568 L 44.4468,5.9568 L 44.3770,5.9708 L 44.2932,5.9849 L 44.1814,6.0690 L 44.0976,6.1811 L 44.0837,6.2652 L 44.0697,6.3353 L 44.0697,6.3493 L 44.0837,6.4194 L 44.0976,6.5035 L 44.1814,6.6156 L 44.2932,6.6997 L 44.3770,6.7137 L 44.4468,6.7277 L 48.0227,6.7277 L 48.0925,6.7137 L 48.1763,6.6997 L 48.2881,6.6156 L 48.3719,6.5035 L 48.3859,6.4194 L 48.3998,6.3493 L 48.3998,6.3353 Z" stroke="#D1D1D1" stroke-width="0.1193" stroke-linecap="round" stroke-linejoin="round" fill="#BFBFBF"/>
        <path d="M 115.4053,2.2426 L 110.7120,2.2426 L 110.7120,10.4280 L 115.4053,10.4280 L 115.4053,2.2426 Z" stroke="#000000" stroke-width="0.1193" stroke-linecap="round" stroke-linejoin="round" fill="#BFBFBF"/>
        <path d="M 115.2237,6.3353 L 115.2098,6.2652 L 115.1958,6.1811 L 115.1120,6.0690 L 115.0002,5.9849 L 114.9164,5.9708 L 114.8466,5.9568 L 111.2707,5.9568 L 111.2009,5.9708 L 111.1171,5.9849 L 111.0053,6.0690 L 110.9215,6.1811 L 110.9075,6.2652 L 110.8936,6.3353 L 110.8936,6.3493 L 110.9075,6.4194 L 110.9215,6.5035 L 111.0053,6.6156 L 111.1171,6.6997 L 111.2009,6.7137 L 111.2707,6.7277 L 114.8466,6.7277 L 114.9164,6.7137 L 115.0002,6.6997 L 115.1120,6.6156 L 115.1958,6.5035 L 115.2098,6.4194 L 115.2237,6.3493 L 115.2237,6.3353 Z" stroke="#D1D1D1" stroke-width="0.1193" stroke-linecap="round" stroke-linejoin="round" fill="#BFBFBF"/>
        <path d="M 121.2161,2.2426 L 116.5228,2.2426 L 116.5228,10.4280 L 121.2161,10.4280 L 121.2161,2.2426 Z" stroke="#000000" stroke-width="0.1193" stroke-linecap="round" stroke-linejoin="round" fill="#BFBFBF"/>
        <path d="M 121.0345,6.3353 L 121.0205,6.2652 L 121.0066,6.1811 L 120.9228,6.0690 L 120.8110,5.9849 L 120.7272,5.9708 L 120.6574,5.9568 L 117.0815,5.9568 L 117.0117,5.9708 L 116.9278,5.9849 L 116.8161,6.0690 L 116.7323,6.1811 L 116.7183,6.2652 L 116.7044,6.3353 L 116.7044,6.3493 L 116.7183,6.4194 L 116.7323,6.5035 L 116.8161,6.6156 L 116.9278,6.6997 L 117.0117,6.7137 L 117.0815,6.7277 L 120.6574,6.7277 L 120.7272,6.7137 L 120.8110,6.6997 L 120.9228,6.6156 L 121.0066,6.5035 L 121.0205,6.4194 L 121.0345,6.3493 L 121.0345,6.3353 Z" stroke="#D1D1D1" stroke-width="0.1193" stroke-linecap="round" stroke-linejoin="round" fill="#BFBFBF"/>
        <path d="M 90.5698,2.2426 L 86.1000,2.2426 L 86.1000,10.4280 L 90.5698,10.4280 L 90.5698,2.2426 Z" stroke="#000000" stroke-width="0.1193" stroke-linecap="round" stroke-linejoin="round" fill="#BFBFBF"/>
        <path d="M 90.3044,5.2560 L 86.3654,5.2560 L 86.3654,2.5509 L 90.3044,2.5509 L 90.3044,5.2560 Z" stroke="#7F7F7F" stroke-width="0.1193" stroke-linecap="round" stroke-linejoin="round" fill="#7F7F7F"/>
        <path d="M 90.3044,10.1336 L 86.3654,10.1336 L 86.3654,7.4285 L 90.3044,7.4285 L 90.3044,10.1336 Z" stroke="#7F7F7F" stroke-width="0.1193" stroke-linecap="round" stroke-linejoin="round" fill="#7F7F7F"/>
        <path d="M 89.1311,5.2560 L 87.5387,5.2560 L 87.5387,4.9897 L 89.1311,4.9897 L 89.1311,5.2560 Z" stroke="#7F7F7F" stroke-width="0.1193" stroke-linecap="round" stroke-linejoin="round" fill="#BFBFBF"/>
        <path d="M 89.1311,7.6948 L 87.5387,7.6948 L 87.5387,7.4285 L 89.1311,7.4285 L 89.1311,7.6948 Z" stroke="#7F7F7F" stroke-width="0.1193" stroke-linecap="round" stroke-linejoin="round" fill="#BFBFBF"/>
        <path d="M 86.7006,5.9849 L 87.0499,6.6717 L 87.3851,5.9849 L 86.7006,5.9849 Z" stroke="#333333" stroke-width="0.1193" stroke-linecap="round" stroke-linejoin="round" fill="#00FF00"/>
        <path d="M 89.2848,6.6717 L 89.6340,5.9849 L 89.9692,6.6717 L 89.2848,6.6717 Z" stroke="#333333" stroke-width="0.1193" stroke-linecap="round" stroke-linejoin="round" fill="#00FF00"/>
        <path d="M 89.3267,5.2560 L 87.3432,5.2560 L 87.3432,5.5363 L 89.3267,5.5363 L 89.3267,5.2560 Z" stroke="#7F7F7F" stroke-width="0.1193" stroke-linecap="round" stroke-linejoin="round" fill="#7F7F7F"/>
        <path d="M 89.3267,7.1482 L 87.3432,7.1482 L 87.3432,7.4285 L 89.3267,7.4285 L 89.3267,7.1482 Z" stroke="#7F7F7F" stroke-width="0.1193" stroke-linecap="round" stroke-linejoin="round" fill="#7F7F7F"/>
        <path d="M 109.6085,2.2426 L 105.1387,2.2426 L 105.1387,10.4280 L 109.6085,10.4280 L 109.6085,2.2426 Z" stroke="#000000" stroke-width="0.1193" stroke-linecap="round" stroke-linejoin="round" fill="#BFBFBF"/>
        <path d="M 109.3431,5.2560 L 105.4041,5.2560 L 105.4041,2.5509 L 109.3431,2.5509 L 109.3431,5.2560 Z" stroke="#7F7F7F" stroke-width="0.1193" stroke-linecap="round" stroke-linejoin="round" fill="#7F7F7F"/>
        <path d="M 109.3431,10.1336 L 105.4041,10.1336 L 105.4041,7.4285 L 109.3431,7.4285 L 109.3431,10.1336 Z" stroke="#7F7F7F" stroke-width="0.1193" stroke-linecap="round" stroke-linejoin="round" fill="#7F7F7F"/>
        <path d="M 108.1698,5.2560 L 106.5774,5.2560 L 106.5774,4.9897 L 108.1698,4.9897 L 108.1698,5.2560 Z" stroke="#7F7F7F" stroke-width="0.1193" stroke-linecap="round" stroke-linejoin="round" fill="#BFBFBF"/>
        <path d="M 108.1698,7.6948 L 106.5774,7.6948 L 106.5774,7.4285 L 108.1698,7.4285 L 108.1698,7.6948 Z" stroke="#7F7F7F" stroke-width="0.1193" stroke-linecap="round" stroke-linejoin="round" fill="#BFBFBF"/>
        <path d="M 105.7393,5.9849 L 106.0885,6.6717 L 106.4238,5.9849 L 105.7393,5.9849 Z" stroke="#333333" stroke-width="0.1193" stroke-linecap="round" stroke-linejoin="round" fill="#00FF00"/>
        <path d="M 108.3234,6.6717 L 108.6726,5.9849 L 109.0079,6.6717 L 108.3234,6.6717 Z" stroke="#333333" stroke-width="0.1193" stroke-linecap="round" stroke-linejoin="round" fill="#00FF00"/>
        <path d="M 108.3653,5.2560 L 106.3819,5.2560 L 106.3819,5.5363 L 108.3653,5.5363 L 108.3653,5.2560 Z" stroke="#7F7F7F" stroke-width="0.1193" stroke-linecap="round" stroke-linejoin="round" fill="#7F7F7F"/>
        <path d="M 108.3653,7.1482 L 106.3819,7.1482 L 106.3819,7.4285 L 108.3653,7.4285 L 108.3653,7.1482 Z" stroke="#7F7F7F" stroke-width="0.1193" stroke-linecap="round" stroke-linejoin="round" fill="#7F7F7F"/>
        <path d="M 105.1247,2.2426 L 100.6549,2.2426 L 100.6549,10.4280 L 105.1247,10.4280 L 105.1247,2.2426 Z" stroke="#000000" stroke-width="0.1193" stroke-linecap="round" stroke-linejoin="round" fill="#BFBFBF"/>
        <path d="M 104.8593,5.2560 L 100.9203,5.2560 L 100.9203,2.5509 L 104.8593,2.5509 L 104.8593,5.2560 Z" stroke="#7F7F7F" stroke-width="0.1193" stroke-linecap="round" stroke-linejoin="round" fill="#7F7F7F"/>
        <path d="M 104.8593,10.1336 L 100.9203,10.1336 L 100.9203,7.4285 L 104.8593,7.4285 L 104.8593,10.1336 Z" stroke="#7F7F7F" stroke-width="0.1193" stroke-linecap="round" stroke-linejoin="round" fill="#7F7F7F"/>
        <path d="M 103.6860,5.2560 L 102.0936,5.2560 L 102.0936,4.9897 L 103.6860,4.9897 L 103.6860,5.2560 Z" stroke="#7F7F7F" stroke-width="0.1193" stroke-linecap="round" stroke-linejoin="round" fill="#BFBFBF"/>
        <path d="M 103.6860,7.6948 L 102.0936,7.6948 L 102.0936,7.4285 L 103.6860,7.4285 L 103.6860,7.6948 Z" stroke="#7F7F7F" stroke-width="0.1193" stroke-linecap="round" stroke-linejoin="round" fill="#BFBFBF"/>
        <path d="M 101.2555,5.9849 L 101.6047,6.6717 L 101.9400,5.9849 L 101.2555,5.9849 Z" stroke="#333333" stroke-width="0.1193" stroke-linecap="round" stroke-linejoin="round" fill="#00FF00"/>
        <path d="M 103.8396,6.6717 L 104.1888,5.9849 L 104.5241,6.6717 L 103.8396,6.6717 Z" stroke="#333333" stroke-width="0.1193" stroke-linecap="round" stroke-linejoin="round" fill="#00FF00"/>
        <path d="M 103.8815,5.2560 L 101.8981,5.2560 L 101.8981,5.5363 L 103.8815,5.5363 L 103.8815,5.2560 Z" stroke="#7F7F7F" stroke-width="0.1193" stroke-linecap="round" stroke-linejoin="round" fill="#7F7F7F"/>
        <path d="M 103.8815,7.1482 L 101.8981,7.1482 L 101.8981,7.4285 L 103.8815,7.4285 L 103.8815,7.1482 Z" stroke="#7F7F7F" stroke-width="0.1193" stroke-linecap="round" stroke-linejoin="round" fill="#7F7F7F"/>
        <path d="M 100.6409,2.2426 L 96.1711,2.2426 L 96.1711,10.4280 L 100.6409,10.4280 L 100.6409,2.2426 Z" stroke="#000000" stroke-width="0.1193" stroke-linecap="round" stroke-linejoin="round" fill="#BFBFBF"/>
        <path d="M 100.3755,5.2560 L 96.4365,5.2560 L 96.4365,2.5509 L 100.3755,2.5509 L 100.3755,5.2560 Z" stroke="#7F7F7F" stroke-width="0.1193" stroke-linecap="round" stroke-linejoin="round" fill="#7F7F7F"/>
        <path d="M 100.3755,10.1336 L 96.4365,10.1336 L 96.4365,7.4285 L 100.3755,7.4285 L 100.3755,10.1336 Z" stroke="#7F7F7F" stroke-width="0.1193" stroke-linecap="round" stroke-linejoin="round" fill="#7F7F7F"/>
        <path d="M 99.2022,5.2560 L 97.6098,5.2560 L 97.6098,4.9897 L 99.2022,4.9897 L 99.2022,5.2560 Z" stroke="#7F7F7F" stroke-width="0.1193" stroke-linecap="round" stroke-linejoin="round" fill="#BFBFBF"/>
        <path d="M 99.2022,7.6948 L 97.6098,7.6948 L 97.6098,7.4285 L 99.2022,7.4285 L 99.2022,7.6948 Z" stroke="#7F7F7F" stroke-width="0.1193" stroke-linecap="round" stroke-linejoin="round" fill="#BFBFBF"/>
        <path d="M 96.7717,5.9849 L 97.1209,6.6717 L 97.4562,5.9849 L 96.7717,5.9849 Z" stroke="#333333" stroke-width="0.1193" stroke-linecap="round" stroke-linejoin="round" fill="#00FF00"/>
        <path d="M 99.3558,6.6717 L 99.7050,5.9849 L 100.0403,6.6717 L 99.3558,6.6717 Z" stroke="#333333" stroke-width="0.1193" stroke-linecap="round" stroke-linejoin="round" fill="#00FF00"/>
        <path d="M 99.3977,5.2560 L 97.4143,5.2560 L 97.4143,5.5363 L 99.3977,5.5363 L 99.3977,5.2560 Z" stroke="#7F7F7F" stroke-width="0.1193" stroke-linecap="round" stroke-linejoin="round" fill="#7F7F7F"/>
        <path d="M 99.3977,7.1482 L 97.4143,7.1482 L 97.4143,7.4285 L 99.3977,7.4285 L 99.3977,7.1482 Z" stroke="#7F7F7F" stroke-width="0.1193" stroke-linecap="round" stroke-linejoin="round" fill="#7F7F7F"/>
        <path d="M 96.1571,2.2426 L 91.6873,2.2426 L 91.6873,10.4280 L 96.1571,10.4280 L 96.1571,2.2426 Z" stroke="#000000" stroke-width="0.1193" stroke-linecap="round" stroke-linejoin="round" fill="#BFBFBF"/>
        <path d="M 95.8917,5.2560 L 91.9527,5.2560 L 91.9527,2.5509 L 95.8917,2.5509 L 95.8917,5.2560 Z" stroke="#7F7F7F" stroke-width="0.1193" stroke-linecap="round" stroke-linejoin="round" fill="#7F7F7F"/>
        <path d="M 95.8917,10.1336 L 91.9527,10.1336 L 91.9527,7.4285 L 95.8917,7.4285 L 95.8917,10.1336 Z" stroke="#7F7F7F" stroke-width="0.1193" stroke-linecap="round" stroke-linejoin="round" fill="#7F7F7F"/>
        <path d="M 94.7184,5.2560 L 93.1260,5.2560 L 93.1260,4.9897 L 94.7184,4.9897 L 94.7184,5.2560 Z" stroke="#7F7F7F" stroke-width="0.1193" stroke-linecap="round" stroke-linejoin="round" fill="#BFBFBF"/>
        <path d="M 94.7184,7.6948 L 93.1260,7.6948 L 93.1260,7.4285 L 94.7184,7.4285 L 94.7184,7.6948 Z" stroke="#7F7F7F" stroke-width="0.1193" stroke-linecap="round" stroke-linejoin="round" fill="#BFBFBF"/>
        <path d="M 92.2879,5.9849 L 92.6371,6.6717 L 92.9724,5.9849 L 92.2879,5.9849 Z" stroke="#333333" stroke-width="0.1193" stroke-linecap="round" stroke-linejoin="round" fill="#00FF00"/>
        <path d="M 94.8720,6.6717 L 95.2213,5.9849 L 95.5565,6.6717 L 94.8720,6.6717 Z" stroke="#333333" stroke-width="0.1193" stroke-linecap="round" stroke-linejoin="round" fill="#00FF00"/>
        <path d="M 94.9140,5.2560 L 92.9305,5.2560 L 92.9305,5.5363 L 94.9140,5.5363 L 94.9140,5.2560 Z" stroke="#7F7F7F" stroke-width="0.1193" stroke-linecap="round" stroke-linejoin="round" fill="#7F7F7F"/>
        <path d="M 94.9140,7.1482 L 92.9305,7.1482 L 92.9305,7.4285 L 94.9140,7.4285 L 94.9140,7.1482 Z" stroke="#7F7F7F" stroke-width="0.1193" stroke-linecap="round" stroke-linejoin="round" fill="#7F7F7F"/>
        <path d="M 11.9081,2.5674 L 11.8929,2.5674 L 11.8852,2.5596 L 11.8776,2.5596 L 11.8547,2.5363 L 11.8547,2.5285 L 11.8471,2.5207 L 11.8471,1.6182 L 11.8547,1.6105 L 11.8547,1.6027 L 11.8623,1.5949 L 11.8700,1.5949 L 11.8700,1.5871 L 11.8776,1.5793 L 11.8852,1.5793 L 11.8929,1.5716 L 12.9310,1.5716 L 12.9386,1.5793 L 12.9463,1.5793 L 12.9692,1.6027 L 12.9692,1.6105 L 12.9768,1.6182 L 12.9768,1.7972 L 12.9692,1.7972 L 12.9692,1.7894 L 12.9616,1.7894 L 12.9616,1.7816 L 12.9539,1.7816 L 12.9539,1.7738 L 12.9386,1.7738 L 12.9386,1.7661 L 12.0990,1.7661 L 12.0990,1.7738 L 12.0837,1.7738 L 12.0837,1.7816 L 12.0761,1.7816 L 12.0761,1.7972 L 12.0684,1.7972 L 12.0684,2.5363 L 12.0761,2.5363 L 12.0761,2.5518 L 12.0837,2.5518 L 12.0837,2.5596 L 12.0913,2.5596 L 12.0913,2.5674 L 11.9158,2.5674 L 11.9081,2.5674 Z" stroke="#000000" stroke-width="0.1193" stroke-linecap="round" stroke-linejoin="round" fill="#000000"/>
        <path d="M 12.9005,1.9917 L 12.1448,1.9917 L 12.1448,1.9839 L 12.1295,1.9839 L 12.1295,1.9761 L 12.1219,1.9761 L 12.1219,1.9606 L 12.1142,1.9606 L 12.1142,2.1551 L 12.1219,2.1551 L 12.1219,2.1706 L 12.1295,2.1706 L 12.1295,2.1784 L 12.1448,2.1784 L 12.1448,2.1862 L 12.9157,2.1862 L 12.9310,2.1706 L 12.9386,2.1706 L 12.9539,2.1551 L 12.9539,2.1473 L 12.9616,2.1395 L 12.9616,2.1317 L 12.9692,2.1239 L 12.9692,2.1084 L 12.9768,2.1006 L 12.9768,2.0773 L 12.9692,2.0695 L 12.9692,2.0461 L 12.9539,2.0306 L 12.9539,2.0228 L 12.9463,2.0150 L 12.9386,2.0150 L 12.9386,2.0072 L 12.9310,2.0072 L 12.9234,1.9995 L 12.9157,1.9995 L 12.9081,1.9917 L 12.9005,1.9917 Z" stroke="#000000" stroke-width="0.1193" stroke-linecap="round" stroke-linejoin="round" fill="#000000"/>
        <path d="M 14.6638,2.1862 L 14.6485,2.1862 L 14.6485,2.1784 L 14.6333,2.1784 L 14.6333,2.1706 L 14.6256,2.1706 L 14.6256,2.1551 L 14.6180,2.1551 L 14.6180,1.9606 L 14.6256,1.9606 L 14.6256,1.9761 L 14.6333,1.9761 L 14.6333,1.9839 L 14.6485,1.9839 L 14.6485,1.9917 L 15.2592,1.9917 L 15.2592,1.7661 L 14.6027,1.7661 L 14.6027,1.7738 L 14.5875,1.7738 L 14.5875,1.7816 L 14.5798,1.7816 L 14.5798,1.7972 L 14.5722,1.7972 L 14.5722,2.5363 L 14.5798,2.5363 L 14.5798,2.5518 L 14.5875,2.5518 L 14.5875,2.5596 L 14.5951,2.5596 L 14.5951,2.5674 L 14.3966,2.5674 L 14.3890,2.5596 L 14.3814,2.5596 L 14.3585,2.5363 L 14.3585,2.5285 L 14.3508,2.5207 L 14.3508,1.6182 L 14.3585,1.6105 L 14.3585,1.6027 L 14.3661,1.5949 L 14.3737,1.5949 L 14.3737,1.5871 L 14.3814,1.5793 L 14.3890,1.5793 L 14.3966,1.5716 L 15.4348,1.5716 L 15.4424,1.5793 L 15.4500,1.5793 L 15.4729,1.6027 L 15.4729,1.6105 L 15.4806,1.6182 L 15.4806,2.1084 L 15.4729,2.1162 L 15.4729,2.1317 L 15.4653,2.1317 L 15.4653,2.1395 L 15.4577,2.1473 L 15.4577,2.1551 L 15.4500,2.1551 L 15.4500,2.1628 L 15.4424,2.1628 L 15.4424,2.1706 L 15.4348,2.1706 L 15.4348,2.1784 L 15.4271,2.1784 L 15.4195,2.1862 L 15.4271,2.1940 L 15.4348,2.1940 L 15.4348,2.2017 L 15.4424,2.2017 L 15.4424,2.2095 L 15.4500,2.2095 L 15.4500,2.2173 L 15.4577,2.2173 L 15.4577,2.2251 L 15.4653,2.2329 L 15.4653,2.2406 L 15.4729,2.2406 L 15.4729,2.2562 L 15.4806,2.2640 L 15.4806,2.5363 L 15.4882,2.5363 L 15.4882,2.5518 L 15.4958,2.5518 L 15.4958,2.5596 L 15.5035,2.5596 L 15.5035,2.5674 L 15.3050,2.5674 L 15.2974,2.5596 L 15.2897,2.5596 L 15.2668,2.5363 L 15.2668,2.5285 L 15.2592,2.5207 L 15.2592,2.1862 L 14.6714,2.1862 L 14.6638,2.1862 Z" stroke="#000000" stroke-width="0.1193" stroke-linecap="round" stroke-linejoin="round" fill="#000000"/>
        <path d="M 15.8775,1.7661 L 15.6485,1.7661 L 15.6409,1.7583 L 15.6332,1.7583 L 15.6103,1.7349 L 15.6103,1.7272 L 15.6027,1.7194 L 15.6027,1.6182 L 15.6103,1.6105 L 15.6103,1.6027 L 15.6180,1.5949 L 15.6256,1.5949 L 15.6256,1.5871 L 15.6332,1.5793 L 15.6409,1.5793 L 15.6485,1.5716 L 16.6867,1.5716 L 16.6943,1.5793 L 16.7019,1.5793 L 16.7248,1.6027 L 16.7248,1.6105 L 16.7325,1.6182 L 16.7325,1.7972 L 16.7248,1.7972 L 16.7248,1.7894 L 16.7172,1.7894 L 16.7172,1.7816 L 16.7096,1.7816 L 16.7096,1.7738 L 16.6943,1.7738 L 16.6943,1.7661 L 16.1294,1.7661 L 16.1294,1.7738 L 16.1142,1.7738 L 16.1142,1.7816 L 16.1065,1.7816 L 16.1065,1.7972 L 16.0989,1.7972 L 16.0989,2.5363 L 16.1065,2.5363 L 16.1065,2.5518 L 16.1142,2.5518 L 16.1142,2.5596 L 16.1218,2.5596 L 16.1218,2.5674 L 15.9233,2.5674 L 15.9157,2.5596 L 15.9081,2.5596 L 15.8852,2.5363 L 15.8852,2.5285 L 15.8775,2.5207 L 15.8775,1.7894 L 15.8775,1.7661 Z" stroke="#000000" stroke-width="0.1193" stroke-linecap="round" stroke-linejoin="round" fill="#000000"/>
        <path d="M 17.0760,2.5129 L 17.0760,2.5363 L 17.0836,2.5363 L 17.0836,2.5518 L 17.0912,2.5518 L 17.0912,2.5596 L 17.0989,2.5596 L 17.0989,2.5674 L 16.9004,2.5674 L 16.8928,2.5596 L 16.8851,2.5596 L 16.8622,2.5363 L 16.8622,2.5285 L 16.8546,2.5207 L 16.8546,1.6027 L 16.8470,1.6027 L 16.8470,1.5871 L 16.8393,1.5871 L 16.8393,1.5793 L 16.8317,1.5793 L 16.8317,1.5716 L 17.0302,1.5716 L 17.0378,1.5793 L 17.0454,1.5793 L 17.0683,1.6027 L 17.0683,1.6105 L 17.0760,1.6182 L 17.0760,2.5052 L 17.0760,2.5129 Z" stroke="#000000" stroke-width="0.1193" stroke-linecap="round" stroke-linejoin="round" fill="#000000"/>
        <path d="M 18.1599,1.7661 L 17.5034,1.7661 L 17.5034,1.7738 L 17.4882,1.7738 L 17.4882,1.7816 L 17.4805,1.7816 L 17.4805,1.7972 L 17.4729,1.7972 L 17.4729,2.5363 L 17.4805,2.5363 L 17.4805,2.5518 L 17.4882,2.5518 L 17.4882,2.5596 L 17.4958,2.5596 L 17.4958,2.5674 L 17.2973,2.5674 L 17.2897,2.5596 L 17.2821,2.5596 L 17.2592,2.5363 L 17.2592,2.5285 L 17.2515,2.5207 L 17.2515,1.6182 L 17.2592,1.6105 L 17.2592,1.6027 L 17.2668,1.5949 L 17.2744,1.5949 L 17.2744,1.5871 L 17.2821,1.5793 L 17.2897,1.5793 L 17.2973,1.5716 L 18.3355,1.5716 L 18.3431,1.5793 L 18.3507,1.5793 L 18.3736,1.6027 L 18.3736,1.6105 L 18.3813,1.6182 L 18.3813,2.5363 L 18.3889,2.5363 L 18.3889,2.5518 L 18.3965,2.5518 L 18.3965,2.5596 L 18.4042,2.5596 L 18.4042,2.5674 L 18.2057,2.5674 L 18.1981,2.5596 L 18.1904,2.5596 L 18.1675,2.5363 L 18.1675,2.5285 L 18.1599,2.5207 L 18.1599,1.7894 L 18.1599,1.7661 Z" stroke="#000000" stroke-width="0.1193" stroke-linecap="round" stroke-linejoin="round" fill="#000000"/>
        <path d="M 19.5034,1.9917 L 18.8011,1.9917 L 18.7935,1.9839 L 18.7859,1.9839 L 18.7859,1.9761 L 18.7782,1.9761 L 18.7782,1.9606 L 18.7706,1.9606 L 18.7706,2.1551 L 18.7782,2.1551 L 18.7782,2.1706 L 18.7859,2.1706 L 18.7859,2.1784 L 18.7935,2.1784 L 18.8011,2.1862 L 19.5110,2.1862 L 19.5263,2.1706 L 19.5339,2.1706 L 19.5492,2.1551 L 19.5492,2.1473 L 19.5568,2.1395 L 19.5568,2.1317 L 19.5645,2.1239 L 19.5645,2.1084 L 19.5721,2.1006 L 19.5721,2.0695 L 19.5645,2.0617 L 19.5645,2.0384 L 19.5568,2.0384 L 19.5568,2.0306 L 19.5339,2.0072 L 19.5263,2.0072 L 19.5263,1.9995 L 19.5187,1.9995 L 19.5110,1.9917 L 19.5034,1.9917 Z" stroke="#000000" stroke-width="0.1193" stroke-linecap="round" stroke-linejoin="round" fill="#000000"/>
        <path d="M 20.0301,1.7661 L 19.8011,1.7661 L 19.7935,1.7583 L 19.7858,1.7583 L 19.7629,1.7349 L 19.7629,1.7272 L 19.7553,1.7194 L 19.7553,1.6182 L 19.7629,1.6105 L 19.7629,1.6027 L 19.7706,1.5949 L 19.7782,1.5949 L 19.7782,1.5871 L 19.7858,1.5793 L 19.7935,1.5793 L 19.8011,1.5716 L 20.8392,1.5716 L 20.8469,1.5793 L 20.8545,1.5793 L 20.8774,1.6027 L 20.8774,1.6105 L 20.8850,1.6182 L 20.8850,1.7972 L 20.8774,1.7972 L 20.8774,1.7894 L 20.8698,1.7894 L 20.8698,1.7816 L 20.8621,1.7816 L 20.8621,1.7738 L 20.8469,1.7738 L 20.8469,1.7661 L 20.2820,1.7661 L 20.2820,1.7738 L 20.2667,1.7738 L 20.2667,1.7816 L 20.2591,1.7816 L 20.2591,1.7972 L 20.2515,1.7972 L 20.2515,2.5363 L 20.2591,2.5363 L 20.2591,2.5518 L 20.2667,2.5518 L 20.2667,2.5596 L 20.2744,2.5596 L 20.2744,2.5674 L 20.0759,2.5674 L 20.0683,2.5596 L 20.0606,2.5596 L 20.0377,2.5363 L 20.0377,2.5285 L 20.0301,2.5207 L 20.0301,1.7894 L 20.0301,1.7661 Z" stroke="#000000" stroke-width="0.1193" stroke-linecap="round" stroke-linejoin="round" fill="#000000"/>
        <path d="M 19.5797,2.3729 L 19.5950,2.3729 L 19.5950,2.3651 L 19.6103,2.3651 L 19.6103,2.3573 L 19.6179,2.3573 L 19.6179,2.3496 L 19.6255,2.3496 L 19.6255,2.3418 L 19.6332,2.3418 L 19.6332,2.5207 L 19.6255,2.5285 L 19.6255,2.5363 L 19.6179,2.5441 L 19.6179,2.5518 L 19.6103,2.5518 L 19.6026,2.5596 L 19.5950,2.5596 L 19.5874,2.5674 L 18.5492,2.5674 L 18.5416,2.5596 L 18.5339,2.5596 L 18.5110,2.5363 L 18.5110,2.5285 L 18.5034,2.5207 L 18.5034,1.6182 L 18.5110,1.6105 L 18.5110,1.6027 L 18.5187,1.5949 L 18.5263,1.5949 L 18.5263,1.5871 L 18.5339,1.5793 L 18.5416,1.5793 L 18.5492,1.5716 L 19.5874,1.5716 L 19.5950,1.5793 L 19.6026,1.5793 L 19.6255,1.6027 L 19.6255,1.6105 L 19.6332,1.6182 L 19.6332,1.7972 L 19.6255,1.7972 L 19.6255,1.7894 L 19.6179,1.7894 L 19.6179,1.7816 L 19.6103,1.7816 L 19.6103,1.7738 L 19.5950,1.7738 L 19.5950,1.7661 L 18.7553,1.7661 L 18.7553,1.7738 L 18.7401,1.7738 L 18.7401,1.7816 L 18.7324,1.7816 L 18.7324,1.7972 L 18.7248,1.7972 L 18.7248,2.3729 L 19.5721,2.3729 L 19.5797,2.3729 Z" stroke="#000000" stroke-width="0.1193" stroke-linecap="round" stroke-linejoin="round" fill="#000000"/>
        <path d="M 13.4806,2.2795 L 13.4806,2.5674 L 13.8470,2.5674 L 13.8470,2.2795 L 13.4806,2.2795 Z" stroke="#FF0000" stroke-width="0.1193" stroke-linecap="round" stroke-linejoin="round" fill="#FF0000"/>
        <path d="M 13.0990,1.9294 L 13.4119,1.9294 L 13.4119,2.2095 L 13.0990,2.2095 L 13.0990,1.9294 Z" stroke="#FF0000" stroke-width="0.1193" stroke-linecap="round" stroke-linejoin="round" fill="#FF0000"/>
        <path d="M 13.9157,2.2795 L 13.9157,2.5674 L 14.0302,2.5674 L 14.0379,2.5596 L 14.0684,2.5596 L 14.0760,2.5518 L 14.0913,2.5518 L 14.1066,2.5441 L 14.1142,2.5363 L 14.1295,2.5285 L 14.1447,2.5129 L 14.1600,2.5052 L 14.1676,2.4974 L 14.1753,2.4818 L 14.1829,2.4740 L 14.2134,2.4118 L 14.2134,2.3962 L 14.2211,2.3729 L 14.2211,2.3496 L 14.2287,2.3262 L 14.2287,2.2795 L 13.9234,2.2795 L 13.9157,2.2795 Z" stroke="#FF0000" stroke-width="0.1193" stroke-linecap="round" stroke-linejoin="round" fill="#FF0000"/>
        <path d="M 13.9157,1.9294 L 14.2287,1.9294 L 14.2287,2.2095 L 13.9157,2.2095 L 13.9157,1.9294 Z" stroke="#FF0000" stroke-width="0.1193" stroke-linecap="round" stroke-linejoin="round" fill="#FF0000"/>
        <path d="M 13.4119,2.2795 L 13.4119,2.5674 L 13.2974,2.5674 L 13.2898,2.5596 L 13.2593,2.5596 L 13.2516,2.5518 L 13.2364,2.5518 L 13.2211,2.5441 L 13.2135,2.5363 L 13.1982,2.5285 L 13.1829,2.5129 L 13.1677,2.5052 L 13.1600,2.4974 L 13.1524,2.4818 L 13.1448,2.4740 L 13.1142,2.4118 L 13.1142,2.3962 L 13.1066,2.3729 L 13.1066,2.3496 L 13.0990,2.3262 L 13.0990,2.2795 L 13.4043,2.2795 L 13.4119,2.2795 Z" stroke="#FF0000" stroke-width="0.1193" stroke-linecap="round" stroke-linejoin="round" fill="#FF0000"/>
        <path d="M 13.4806,1.5716 L 13.4806,1.8594 L 13.8470,1.8594 L 13.8470,1.5716 L 13.4806,1.5716 Z" stroke="#FF0000" stroke-width="0.1193" stroke-linecap="round" stroke-linejoin="round" fill="#FF0000"/>
        <path d="M 13.9157,1.8594 L 13.9157,1.5716 L 14.0302,1.5716 L 14.0379,1.5793 L 14.0684,1.5793 L 14.0760,1.5871 L 14.0913,1.5871 L 14.1066,1.5949 L 14.1142,1.6027 L 14.1295,1.6105 L 14.1447,1.6260 L 14.1600,1.6338 L 14.1676,1.6416 L 14.1753,1.6571 L 14.1829,1.6649 L 14.2134,1.7272 L 14.2134,1.7427 L 14.2211,1.7661 L 14.2211,1.7894 L 14.2287,1.8127 L 14.2287,1.8594 L 13.9234,1.8594 L 13.9157,1.8594 Z" stroke="#FF0000" stroke-width="0.1193" stroke-linecap="round" stroke-linejoin="round" fill="#FF0000"/>
        <path d="M 13.4119,1.8594 L 13.4119,1.5716 L 13.2974,1.5716 L 13.2898,1.5793 L 13.2593,1.5793 L 13.2516,1.5871 L 13.2364,1.5871 L 13.2211,1.5949 L 13.2135,1.6027 L 13.1982,1.6105 L 13.1829,1.6260 L 13.1677,1.6338 L 13.1600,1.6416 L 13.1524,1.6571 L 13.1448,1.6649 L 13.1142,1.7272 L 13.1142,1.7427 L 13.1066,1.7661 L 13.1066,1.7894 L 13.0990,1.8127 L 13.0990,1.8594 L 13.4043,1.8594 L 13.4119,1.8594 Z" stroke="#FF0000" stroke-width="0.1193" stroke-linecap="round" stroke-linejoin="round" fill="#FF0000"/>
        <path d="M 29.4179,7.5355 L 28.8325,7.5355 L 28.8325,8.1242 L 29.4179,8.1242 L 29.4179,7.5355 Z" stroke="#000000" stroke-width="0.1193" stroke-linecap="round" stroke-linejoin="round" fill="#00FF00"/>
        <path d="M 29.4179,8.6540 L 28.8325,8.6540 L 28.8325,9.2427 L 29.4179,9.2427 L 29.4179,8.6540 Z" stroke="#000000" stroke-width="0.1193" stroke-linecap="round" stroke-linejoin="round" fill="#00FF00"/>
        <path d="M 29.4179,9.7725 L 28.8325,9.7725 L 28.8325,10.3613 L 29.4179,10.3613 L 29.4179,9.7725 Z" stroke="#000000" stroke-width="0.1193" stroke-linecap="round" stroke-linejoin="round" fill="#00FF00"/>
        <path d="M 29.4179,6.4022 L 28.8325,6.4022 L 28.8325,6.9909 L 29.4179,6.9909 L 29.4179,6.4022 Z" stroke="#000000" stroke-width="0.1193" stroke-linecap="round" stroke-linejoin="round" fill="#00FF00"/>
        <text font-family="Arial" fill="#000000" style="white-space:pre;" font-weight="400" text-anchor="start" x="32.8281" y="8.0111" font-size="0.2342"><![CDATA[FortiGate 100F]]></text>
        <text font-family="Symbol" fill="#000000" style="white-space:pre;" text-anchor="start" x="20.5084" y="2.5507" font-size="0.3420"><![CDATA[]]></text>
        <text font-family="Arial" fill="#000000" style="white-space:pre;" font-weight="400" text-anchor="start" x="23.3942" y="3.0227" font-size="0.0530"><![CDATA[STATUS]]></text>
        <text font-family="Arial" fill="#000000" style="white-space:pre;" font-weight="400" text-anchor="start" x="23.3942" y="3.1237" font-size="0.0530"><![CDATA[ALARM]]></text>
        <text font-family="Arial" fill="#000000" style="white-space:pre;" font-weight="400" text-anchor="start" x="23.3942" y="3.2247" font-size="0.0530"><![CDATA[HA]]></text>
        <text font-family="Arial" fill="#000000" style="white-space:pre;" font-weight="400" text-anchor="start" x="23.3942" y="3.3258" font-size="0.0530"><![CDATA[POWER]]></text>
        <text font-family="Arial" fill="#000000" style="white-space:pre;" font-weight="400" text-anchor="start" x="23.8277" y="2.9065" font-size="0.0530"><![CDATA[USB]]></text>
        <text font-family="Arial" fill="#000000" style="white-space:pre;" font-weight="400" text-anchor="start" x="24.1650" y="2.9065" font-size="0.0530"><![CDATA[CONSOLE]]></text>
        <text font-family="Arial" fill="#000000" style="white-space:pre;" font-weight="400" text-anchor="start" x="24.7286" y="2.5732" font-size="0.0530"><![CDATA[DMZ]]></text>
        <text font-family="Arial" fill="#000000" style="white-space:pre;" font-weight="400" text-anchor="start" x="25.1911" y="2.5732" font-size="0.0530"><![CDATA[WAN 1]]></text>
        <text font-family="Arial" fill="#000000" style="white-space:pre;" font-weight="400" text-anchor="start" x="25.5765" y="2.5732" font-size="0.0530"><![CDATA[HA 1]]></text>
        <text font-family="Arial" fill="#000000" style="white-space:pre;" font-weight="400" text-anchor="start" x="25.9812" y="2.5732" font-size="0.0530"><![CDATA[1]]></text>
        <text font-family="Arial" fill="#000000" style="white-space:pre;" font-weight="400" text-anchor="start" x="25.5765" y="3.4116" font-size="0.0530"><![CDATA[HA 2]]></text>
        <text font-family="Arial" fill="#000000" style="white-space:pre;" font-weight="400" text-anchor="start" x="25.1911" y="3.4116" font-size="0.0530"><![CDATA[WAN 2]]></text>
        <text font-family="Arial" fill="#000000" style="white-space:pre;" font-weight="400" text-anchor="start" x="24.7094" y="3.4116" font-size="0.0530"><![CDATA[MGMT]]></text>
        <text font-family="Arial" fill="#000000" style="white-space:pre;" font-weight="400" text-anchor="start" x="25.9812" y="3.4116" font-size="0.0530"><![CDATA[2]]></text>
        <text font-family="Arial" fill="#000000" style="white-space:pre;" font-weight="400" text-anchor="start" x="26.3425" y="3.4116" font-size="0.0530"><![CDATA[4]]></text>
        <text font-family="Arial" fill="#000000" style="white-space:pre;" font-weight="400" text-anchor="start" x="26.3425" y="2.5732" font-size="0.0530"><![CDATA[3]]></text>
        <text font-family="Arial" fill="#000000" style="white-space:pre;" font-weight="400" text-anchor="start" x="30.1532" y="2.5291" font-size="0.0434"><![CDATA[Shared Interfaces]]></text>
        <text font-family="Arial" fill="#000000" style="white-space:pre;" font-weight="400" text-anchor="start" x="30.0231" y="3.4116" font-size="0.0530"><![CDATA[20]]></text>
        <ellipse cx="27.0899" cy="10.0438" rx="0.2096" ry="0.2107" fill="#000000" stroke="#000000" stroke-width="0.1193" stroke-linecap="round" stroke-linejoin="round"/>
        <ellipse cx="27.0899" cy="10.0438" rx="0.2096" ry="0.2107" fill="none" stroke="#0A0A0A" stroke-width="0.1193" stroke-linecap="round" stroke-linejoin="round"/>
        <text font-family="Arial" fill="#000000" style="white-space:pre;" font-weight="400" text-anchor="start" x="43.0402" y="12.0979" font-size="0.1025"><![CDATA[14]]></text>
        <text font-family="Arial" fill="#000000" style="white-space:pre;" font-weight="400" text-anchor="start" x="43.7947" y="12.0979" font-size="0.1025"><![CDATA[16]]></text>
        <text font-family="Arial" fill="#000000" style="white-space:pre;" font-weight="400" text-anchor="start" x="44.5584" y="12.0979" font-size="0.1025"><![CDATA[18]]></text>
        <text font-family="Arial" fill="#000000" style="white-space:pre;" font-weight="400" text-anchor="start" x="45.2756" y="10.5433" font-size="0.1025"><![CDATA[19]]></text>
        <text font-family="Arial" fill="#000000" style="white-space:pre;" font-weight="400" text-anchor="start" x="43.0402" y="10.5433" font-size="0.1025"><![CDATA[13]]></text>
        <text font-family="Arial" fill="#000000" style="white-space:pre;" font-weight="400" text-anchor="start" x="43.7947" y="10.5433" font-size="0.1025"><![CDATA[15]]></text>
        <text font-family="Arial" fill="#000000" style="white-space:pre;" font-weight="400" text-anchor="start" x="44.5584" y="10.5433" font-size="0.1025"><![CDATA[17]]></text>
        <text font-family="Arial" fill="#000000" style="white-space:pre;" font-weight="400" text-anchor="start" x="39.1004" y="10.5433" font-size="0.1025"><![CDATA[5]]></text>
        <text font-family="Arial" fill="#000000" style="white-space:pre;" font-weight="400" text-anchor="start" x="39.7989" y="10.5433" font-size="0.1025"><![CDATA[7]]></text>
        <text font-family="Arial" fill="#000000" style="white-space:pre;" font-weight="400" text-anchor="start" x="40.4975" y="10.5433" font-size="0.1025"><![CDATA[9]]></text>
        <text font-family="Arial" fill="#000000" style="white-space:pre;" font-weight="400" text-anchor="start" x="39.7989" y="12.0979" font-size="0.1025"><![CDATA[8]]></text>
        <text font-family="Arial" fill="#000000" style="white-space:pre;" font-weight="400" text-anchor="start" x="39.1004" y="12.0979" font-size="0.1025"><![CDATA[6]]></text>
        <text font-family="Arial" fill="#000000" style="white-space:pre;" font-weight="400" text-anchor="start" x="40.4695" y="12.0979" font-size="0.1025"><![CDATA[10]]></text>
        <text font-family="Arial" fill="#000000" style="white-space:pre;" font-weight="400" text-anchor="start" x="41.1681" y="12.0979" font-size="0.1025"><![CDATA[12]]></text>
        <text font-family="Arial" fill="#000000" style="white-space:pre;" font-weight="400" text-anchor="start" x="41.1681" y="10.5433" font-size="0.1025"><![CDATA[11]]></text>
        <text font-family="Arial" fill="#000000" style="white-space:pre;" font-weight="400" text-anchor="start" x="42.0995" y="12.0979" font-size="0.1025"><![CDATA[X2]]></text>
        <text font-family="Arial" fill="#000000" style="white-space:pre;" font-weight="400" text-anchor="start" x="42.0995" y="10.5433" font-size="0.1025"><![CDATA[X1]]></text>
        <text font-family="Arial" fill="#000000" style="white-space:pre;" font-weight="400" text-anchor="start" x="46.2256" y="10.5433" font-size="0.1025"><![CDATA[17]]></text>
        <text font-family="Arial" fill="#000000" style="white-space:pre;" font-weight="400" text-anchor="start" x="46.2256" y="12.0979" font-size="0.1025"><![CDATA[18]]></text>
        <text font-family="Arial" fill="#000000" style="white-space:pre;" font-weight="400" text-anchor="start" x="47.1943" y="10.5433" font-size="0.1025"><![CDATA[19]]></text>
        <text font-family="Arial" fill="#000000" style="white-space:pre;" font-weight="400" text-anchor="start" x="47.1943" y="12.0979" font-size="0.1025"><![CDATA[20]]></text>
        <path d="M 36.5763,6.7848 L 36.5763,6.7427 L 36.5623,6.7427 L 36.5623,6.7146 L 36.5483,6.7005 L 36.5483,6.6865 L 36.5344,6.6865 L 36.5344,6.6724 L 36.5204,6.6724 L 36.5204,6.6584 L 36.5064,6.6584 L 36.4924,6.6443 L 36.4645,6.6443 L 36.4645,6.6303 L 35.0953,6.6303 L 35.0953,6.6443 L 35.0674,6.6443 L 35.0534,6.6584 L 35.0395,6.6584 L 35.0395,6.6724 L 35.0255,6.6724 L 35.0255,6.6865 L 35.0115,6.6865 L 35.0115,6.7005 L 34.9975,6.7146 L 34.9975,6.7427 L 34.9836,6.7427 L 34.9836,10.2545 L 34.9975,10.2545 L 34.9975,10.2826 L 35.0115,10.2966 L 35.0115,10.3107 L 35.0255,10.3107 L 35.0255,10.3247 L 35.0395,10.3247 L 35.0395,10.3388 L 35.0534,10.3388 L 35.0674,10.3528 L 35.0953,10.3528 L 35.0953,10.3669 L 36.4645,10.3669 L 36.4645,10.3528 L 36.4924,10.3528 L 36.5064,10.3388 L 36.5204,10.3388 L 36.5204,10.3247 L 36.5344,10.3247 L 36.5344,10.3107 L 36.5483,10.3107 L 36.5483,10.2966 L 36.5623,10.2826 L 36.5623,10.2545 L 36.5763,10.2545 L 36.5763,6.7989 L 36.5763,6.7848 Z" stroke="#000000" stroke-width="0.1193" stroke-linecap="round" stroke-linejoin="round" fill="#BFBFBF"/>
        <path d="M 36.4505,6.8410 L 36.4505,6.7989 L 36.4366,6.7989 L 36.4366,6.7848 L 36.4226,6.7708 L 36.4086,6.7708 L 36.4086,6.7567 L 35.1512,6.7567 L 35.1373,6.7708 L 35.1233,6.7708 L 35.1233,6.7848 L 35.1093,6.7848 L 35.1093,6.7989 L 35.0953,6.8129 L 35.0953,10.1983 L 35.1093,10.1983 L 35.1093,10.2123 L 35.1233,10.2123 L 35.1233,10.2264 L 35.1373,10.2264 L 35.1512,10.2404 L 36.4086,10.2404 L 36.4086,10.2264 L 36.4366,10.2264 L 36.4366,10.1983 L 36.4505,10.1983 L 36.4505,6.8550 L 36.4505,6.8410 Z" stroke="#7F7F7F" stroke-width="0.1193" stroke-linecap="round" stroke-linejoin="round" fill="#000000"/>
        <path d="M 35.7520,7.5855 L 35.7520,7.2765 L 35.8218,7.2765 L 35.8218,7.5855 L 35.7520,7.5855 Z" stroke="#000000" stroke-width="0.1193" stroke-linecap="round" stroke-linejoin="round" fill="#E2E2CC"/>
        <path d="M 35.7520,8.2879 L 35.7520,7.9788 L 35.8218,7.9788 L 35.8218,8.2879 L 35.7520,8.2879 Z" stroke="#000000" stroke-width="0.1193" stroke-linecap="round" stroke-linejoin="round" fill="#E2E2CC"/>
        <path d="M 35.7520,8.9762 L 35.7520,8.6671 L 35.8218,8.6671 L 35.8218,8.9762 L 35.7520,8.9762 Z" stroke="#000000" stroke-width="0.1193" stroke-linecap="round" stroke-linejoin="round" fill="#E2E2CC"/>
        <path d="M 35.7520,9.6926 L 35.7520,9.3835 L 35.8218,9.3835 L 35.8218,9.6926 L 35.7520,9.6926 Z" stroke="#000000" stroke-width="0.1193" stroke-linecap="round" stroke-linejoin="round" fill="#E2E2CC"/>
        <path d="M 36.1851,10.0297 L 36.2130,10.0297 L 36.2410,10.0157 L 36.2549,9.9876 L 36.2549,7.0096 L 36.2410,6.9815 L 36.2130,6.9674 L 35.8638,6.9674 L 35.8358,6.9815 L 35.8218,7.0096 L 35.8218,9.9876 L 35.8358,10.0157 L 35.8638,10.0297 L 35.8917,10.0297 L 36.1851,10.0297 Z" stroke="#000000" stroke-width="0.1193" stroke-linecap="round" stroke-linejoin="round" fill="#0000FF"/>
        <path d="M 36.0454,9.9173 L 36.1013,9.9033 L 36.1571,9.8471 L 36.1711,9.7909 L 36.1711,7.2062 L 36.1571,7.1500 L 36.1013,7.0938 L 36.0454,7.0798 L 35.9895,7.0938 L 35.9336,7.1500 L 35.9196,7.2062 L 35.9196,9.7909 L 35.9336,9.8471 L 35.9895,9.9033 L 36.0454,9.9173 Z" stroke="#6565FF" stroke-width="0.1193" stroke-linecap="round" stroke-linejoin="round" fill="#6565FF"/>
        <path d="M 38.6773,9.5789 L 38.6773,7.4580 L 39.5645,7.4580 L 39.5645,6.9589 L 39.9249,6.9589 L 39.9249,6.4599 L 40.9785,6.4599 L 40.9785,6.9589 L 41.3389,6.9589 L 41.3389,7.4580 L 42.2261,7.4580 L 42.2261,9.5789 L 38.6773,9.5789 Z" stroke="#161616" stroke-width="0.1193" stroke-linecap="round" stroke-linejoin="round" fill="#000000"/>
        <path d="M 45.6016,2.3012 L 45.6016,2.4536 L 45.3781,2.4536 L 45.3781,2.8834 L 44.4420,2.8834 L 44.4420,2.9250 L 44.1486,2.9250 L 44.1486,2.4536 L 44.2045,2.4536 L 44.2045,2.8834 L 44.4420,2.8834 L 44.4420,3.8399 L 44.5398,3.8399 L 44.5398,4.3389 L 44.4420,4.3389 L 44.4420,5.4202 L 48.0186,5.4202 L 48.0186,4.3389 L 47.9208,4.3389 L 47.9208,3.8399 L 48.0186,3.8399 L 48.0186,2.8834 L 48.2561,2.8834 L 48.2561,2.4536 L 48.3120,2.4536 L 48.3120,2.9250 L 48.0186,2.9250 L 48.0186,2.8834 L 47.0825,2.8834 L 47.0825,2.4536 L 46.8590,2.4536 L 46.8590,2.3012 L 45.6016,2.3012 Z" stroke="#000000" stroke-width="0.1193" stroke-linecap="round" stroke-linejoin="round" fill="#000000"/>
        <path d="M 45.3781,2.4675 L 44.2045,2.4675 L 44.2045,2.8972 L 45.3781,2.8972 L 45.3781,2.4675 Z" stroke="#494949" stroke-width="0.1193" stroke-linecap="round" stroke-linejoin="round" fill="#000000"/>
        <path d="M 48.2561,2.4675 L 47.0825,2.4675 L 47.0825,2.8972 L 48.2561,2.8972 L 48.2561,2.4675 Z" stroke="#494949" stroke-width="0.1193" stroke-linecap="round" stroke-linejoin="round" fill="#000000"/>
        <path d="M 45.6016,10.3691 L 45.6016,10.2166 L 45.3781,10.2166 L 45.3781,9.7868 L 44.4420,9.7868 L 44.4420,9.7453 L 44.1486,9.7453 L 44.1486,10.2166 L 44.2045,10.2166 L 44.2045,9.7868 L 44.4420,9.7868 L 44.4420,8.8303 L 44.5398,8.8303 L 44.5398,8.3313 L 44.4420,8.3313 L 44.4420,7.2500 L 48.0186,7.2500 L 48.0186,8.3313 L 47.9208,8.3313 L 47.9208,8.8303 L 48.0186,8.8303 L 48.0186,9.7868 L 48.2561,9.7868 L 48.2561,10.2166 L 48.3120,10.2166 L 48.3120,9.7453 L 48.0186,9.7453 L 48.0186,9.7868 L 47.0825,9.7868 L 47.0825,10.2166 L 46.8590,10.2166 L 46.8590,10.3691 L 45.6016,10.3691 Z" stroke="#000000" stroke-width="0.1193" stroke-linecap="round" stroke-linejoin="round" fill="#000000"/>
        <path d="M 45.3781,9.7868 L 44.2045,9.7868 L 44.2045,10.2166 L 45.3781,10.2166 L 45.3781,9.7868 Z" stroke="#494949" stroke-width="0.1193" stroke-linecap="round" stroke-linejoin="round" fill="#000000"/>
        <path d="M 48.2561,9.7868 L 47.0825,9.7868 L 47.0825,10.2166 L 48.2561,10.2166 L 48.2561,9.7868 Z" stroke="#494949" stroke-width="0.1193" stroke-linecap="round" stroke-linejoin="round" fill="#000000"/>
        <path d="M 51.3018,2.3012 L 51.3018,2.4536 L 51.0783,2.4536 L 51.0783,2.8834 L 50.1422,2.8834 L 50.1422,2.9250 L 49.8488,2.9250 L 49.8488,2.4536 L 49.9047,2.4536 L 49.9047,2.8834 L 50.1422,2.8834 L 50.1422,3.8399 L 50.2400,3.8399 L 50.2400,4.3389 L 50.1422,4.3389 L 50.1422,5.4202 L 53.7188,5.4202 L 53.7188,4.3389 L 53.6210,4.3389 L 53.6210,3.8399 L 53.7188,3.8399 L 53.7188,2.8834 L 53.9563,2.8834 L 53.9563,2.4536 L 54.0122,2.4536 L 54.0122,2.9250 L 53.7188,2.9250 L 53.7188,2.8834 L 52.7827,2.8834 L 52.7827,2.4536 L 52.5592,2.4536 L 52.5592,2.3012 L 51.3018,2.3012 Z" stroke="#000000" stroke-width="0.1193" stroke-linecap="round" stroke-linejoin="round" fill="#000000"/>
        <path d="M 51.0783,2.4675 L 49.9047,2.4675 L 49.9047,2.8972 L 51.0783,2.8972 L 51.0783,2.4675 Z" stroke="#494949" stroke-width="0.1193" stroke-linecap="round" stroke-linejoin="round" fill="#000000"/>
        <path d="M 53.9563,2.4675 L 52.7827,2.4675 L 52.7827,2.8972 L 53.9563,2.8972 L 53.9563,2.4675 Z" stroke="#494949" stroke-width="0.1193" stroke-linecap="round" stroke-linejoin="round" fill="#000000"/>
        <path d="M 51.3018,10.3691 L 51.3018,10.2166 L 51.0783,10.2166 L 51.0783,9.7868 L 50.1422,9.7868 L 50.1422,9.7453 L 49.8488,9.7453 L 49.8488,10.2166 L 49.9047,10.2166 L 49.9047,9.7868 L 50.1422,9.7868 L 50.1422,8.8303 L 50.2400,8.8303 L 50.2400,8.3313 L 50.1422,8.3313 L 50.1422,7.2500 L 53.7188,7.2500 L 53.7188,8.3313 L 53.6210,8.3313 L 53.6210,8.8303 L 53.7188,8.8303 L 53.7188,9.7868 L 53.9563,9.7868 L 53.9563,10.2166 L 54.0122,10.2166 L 54.0122,9.7453 L 53.7188,9.7453 L 53.7188,9.7868 L 52.7827,9.7868 L 52.7827,10.2166 L 52.5592,10.2166 L 52.5592,10.3691 L 51.3018,10.3691 Z" stroke="#000000" stroke-width="0.1193" stroke-linecap="round" stroke-linejoin="round" fill="#000000"/>
        <path d="M 51.0783,9.7868 L 49.9047,9.7868 L 49.9047,10.2166 L 51.0783,10.2166 L 51.0783,9.7868 Z" stroke="#494949" stroke-width="0.1193" stroke-linecap="round" stroke-linejoin="round" fill="#000000"/>
        <path d="M 53.9563,9.7868 L 52.7827,9.7868 L 52.7827,10.2166 L 53.9563,10.2166 L 53.9563,9.7868 Z" stroke="#494949" stroke-width="0.1193" stroke-linecap="round" stroke-linejoin="round" fill="#000000"/>
        <path d="M 55.4931,2.3012 L 55.4931,2.4536 L 55.2696,2.4536 L 55.2696,2.8834 L 54.3335,2.8834 L 54.3335,2.9250 L 54.0401,2.9250 L 54.0401,2.4536 L 54.0960,2.4536 L 54.0960,2.8834 L 54.3335,2.8834 L 54.3335,3.8399 L 54.4313,3.8399 L 54.4313,4.3389 L 54.3335,4.3389 L 54.3335,5.4202 L 57.9101,5.4202 L 57.9101,4.3389 L 57.8123,4.3389 L 57.8123,3.8399 L 57.9101,3.8399 L 57.9101,2.8834 L 58.1476,2.8834 L 58.1476,2.4536 L 58.2035,2.4536 L 58.2035,2.9250 L 57.9101,2.9250 L 57.9101,2.8834 L 56.9740,2.8834 L 56.9740,2.4536 L 56.7505,2.4536 L 56.7505,2.3012 L 55.4931,2.3012 Z" stroke="#000000" stroke-width="0.1193" stroke-linecap="round" stroke-linejoin="round" fill="#000000"/>
        <path d="M 55.2696,2.4675 L 54.0960,2.4675 L 54.0960,2.8972 L 55.2696,2.8972 L 55.2696,2.4675 Z" stroke="#494949" stroke-width="0.1193" stroke-linecap="round" stroke-linejoin="round" fill="#000000"/>
        <path d="M 58.1476,2.4675 L 56.9740,2.4675 L 56.9740,2.8972 L 58.1476,2.8972 L 58.1476,2.4675 Z" stroke="#494949" stroke-width="0.1193" stroke-linecap="round" stroke-linejoin="round" fill="#000000"/>
        <path d="M 55.4931,10.3691 L 55.4931,10.2166 L 55.2696,10.2166 L 55.2696,9.7868 L 54.3335,9.7868 L 54.3335,9.7453 L 54.0401,9.7453 L 54.0401,10.2166 L 54.0960,10.2166 L 54.0960,9.7868 L 54.3335,9.7868 L 54.3335,8.8303 L 54.4313,8.8303 L 54.4313,8.3313 L 54.3335,8.3313 L 54.3335,7.2500 L 57.9101,7.2500 L 57.9101,8.3313 L 57.8123,8.3313 L 57.8123,8.8303 L 57.9101,8.8303 L 57.9101,9.7868 L 58.1476,9.7868 L 58.1476,10.2166 L 58.2035,10.2166 L 58.2035,9.7453 L 57.9101,9.7453 L 57.9101,9.7868 L 56.9740,9.7868 L 56.9740,10.2166 L 56.7505,10.2166 L 56.7505,10.3691 L 55.4931,10.3691 Z" stroke="#000000" stroke-width="0.1193" stroke-linecap="round" stroke-linejoin="round" fill="#000000"/>
        <path d="M 55.2696,9.7868 L 54.0960,9.7868 L 54.0960,10.2166 L 55.2696,10.2166 L 55.2696,9.7868 Z" stroke="#494949" stroke-width="0.1193" stroke-linecap="round" stroke-linejoin="round" fill="#000000"/>
        <path d="M 58.1476,9.7868 L 56.9740,9.7868 L 56.9740,10.2166 L 58.1476,10.2166 L 58.1476,9.7868 Z" stroke="#494949" stroke-width="0.1193" stroke-linecap="round" stroke-linejoin="round" fill="#000000"/>
        <path d="M 59.6844,2.3012 L 59.6844,2.4536 L 59.4609,2.4536 L 59.4609,2.8834 L 58.5248,2.8834 L 58.5248,2.9250 L 58.2314,2.9250 L 58.2314,2.4536 L 58.2873,2.4536 L 58.2873,2.8834 L 58.5248,2.8834 L 58.5248,3.8399 L 58.6226,3.8399 L 58.6226,4.3389 L 58.5248,4.3389 L 58.5248,5.4202 L 62.1014,5.4202 L 62.1014,4.3389 L 62.0036,4.3389 L 62.0036,3.8399 L 62.1014,3.8399 L 62.1014,2.8834 L 62.3389,2.8834 L 62.3389,2.4536 L 62.3948,2.4536 L 62.3948,2.9250 L 62.1014,2.9250 L 62.1014,2.8834 L 61.1654,2.8834 L 61.1654,2.4536 L 60.9418,2.4536 L 60.9418,2.3012 L 59.6844,2.3012 Z" stroke="#000000" stroke-width="0.1193" stroke-linecap="round" stroke-linejoin="round" fill="#000000"/>
        <path d="M 59.4609,2.4675 L 58.2873,2.4675 L 58.2873,2.8972 L 59.4609,2.8972 L 59.4609,2.4675 Z" stroke="#494949" stroke-width="0.1193" stroke-linecap="round" stroke-linejoin="round" fill="#000000"/>
        <path d="M 62.3389,2.4675 L 61.1654,2.4675 L 61.1654,2.8972 L 62.3389,2.8972 L 62.3389,2.4675 Z" stroke="#494949" stroke-width="0.1193" stroke-linecap="round" stroke-linejoin="round" fill="#000000"/>
        <path d="M 59.6844,10.3691 L 59.6844,10.2166 L 59.4609,10.2166 L 59.4609,9.7868 L 58.5248,9.7868 L 58.5248,9.7453 L 58.2314,9.7453 L 58.2314,10.2166 L 58.2873,10.2166 L 58.2873,9.7868 L 58.5248,9.7868 L 58.5248,8.8303 L 58.6226,8.8303 L 58.6226,8.3313 L 58.5248,8.3313 L 58.5248,7.2500 L 62.1014,7.2500 L 62.1014,8.3313 L 62.0036,8.3313 L 62.0036,8.8303 L 62.1014,8.8303 L 62.1014,9.7868 L 62.3389,9.7868 L 62.3389,10.2166 L 62.3948,10.2166 L 62.3948,9.7453 L 62.1014,9.7453 L 62.1014,9.7868 L 61.1654,9.7868 L 61.1654,10.2166 L 60.9418,10.2166 L 60.9418,10.3691 L 59.6844,10.3691 Z" stroke="#000000" stroke-width="0.1193" stroke-linecap="round" stroke-linejoin="round" fill="#000000"/>
        <path d="M 59.4609,9.7868 L 58.2873,9.7868 L 58.2873,10.2166 L 59.4609,10.2166 L 59.4609,9.7868 Z" stroke="#494949" stroke-width="0.1193" stroke-linecap="round" stroke-linejoin="round" fill="#000000"/>
        <path d="M 62.3389,9.7868 L 61.1654,9.7868 L 61.1654,10.2166 L 62.3389,10.2166 L 62.3389,9.7868 Z" stroke="#494949" stroke-width="0.1193" stroke-linecap="round" stroke-linejoin="round" fill="#000000"/>
        <path d="M 63.8758,2.3012 L 63.8758,2.4536 L 63.6522,2.4536 L 63.6522,2.8834 L 62.7162,2.8834 L 62.7162,2.9250 L 62.4228,2.9250 L 62.4228,2.4536 L 62.4787,2.4536 L 62.4787,2.8834 L 62.7162,2.8834 L 62.7162,3.8399 L 62.8140,3.8399 L 62.8140,4.3389 L 62.7162,4.3389 L 62.7162,5.4202 L 66.2928,5.4202 L 66.2928,4.3389 L 66.1950,4.3389 L 66.1950,3.8399 L 66.2928,3.8399 L 66.2928,2.8834 L 66.5303,2.8834 L 66.5303,2.4536 L 66.5861,2.4536 L 66.5861,2.9250 L 66.2928,2.9250 L 66.2928,2.8834 L 65.3567,2.8834 L 65.3567,2.4536 L 65.1332,2.4536 L 65.1332,2.3012 L 63.8758,2.3012 Z" stroke="#000000" stroke-width="0.1193" stroke-linecap="round" stroke-linejoin="round" fill="#000000"/>
        <path d="M 63.6522,2.4675 L 62.4787,2.4675 L 62.4787,2.8972 L 63.6522,2.8972 L 63.6522,2.4675 Z" stroke="#494949" stroke-width="0.1193" stroke-linecap="round" stroke-linejoin="round" fill="#000000"/>
        <path d="M 66.5303,2.4675 L 65.3567,2.4675 L 65.3567,2.8972 L 66.5303,2.8972 L 66.5303,2.4675 Z" stroke="#494949" stroke-width="0.1193" stroke-linecap="round" stroke-linejoin="round" fill="#000000"/>
        <path d="M 63.8758,10.3691 L 63.8758,10.2166 L 63.6522,10.2166 L 63.6522,9.7868 L 62.7162,9.7868 L 62.7162,9.7453 L 62.4228,9.7453 L 62.4228,10.2166 L 62.4787,10.2166 L 62.4787,9.7868 L 62.7162,9.7868 L 62.7162,8.8303 L 62.8140,8.8303 L 62.8140,8.3313 L 62.7162,8.3313 L 62.7162,7.2500 L 66.2928,7.2500 L 66.2928,8.3313 L 66.1950,8.3313 L 66.1950,8.8303 L 66.2928,8.8303 L 66.2928,9.7868 L 66.5303,9.7868 L 66.5303,10.2166 L 66.5861,10.2166 L 66.5861,9.7453 L 66.2928,9.7453 L 66.2928,9.7868 L 65.3567,9.7868 L 65.3567,10.2166 L 65.1332,10.2166 L 65.1332,10.3691 L 63.8758,10.3691 Z" stroke="#000000" stroke-width="0.1193" stroke-linecap="round" stroke-linejoin="round" fill="#000000"/>
        <path d="M 63.6522,9.7868 L 62.4787,9.7868 L 62.4787,10.2166 L 63.6522,10.2166 L 63.6522,9.7868 Z" stroke="#494949" stroke-width="0.1193" stroke-linecap="round" stroke-linejoin="round" fill="#000000"/>
        <path d="M 66.5303,9.7868 L 65.3567,9.7868 L 65.3567,10.2166 L 66.5303,10.2166 L 66.5303,9.7868 Z" stroke="#494949" stroke-width="0.1193" stroke-linecap="round" stroke-linejoin="round" fill="#000000"/>
        <path d="M 69.5201,2.3012 L 69.5201,2.4536 L 69.2965,2.4536 L 69.2965,2.8834 L 68.3605,2.8834 L 68.3605,2.9250 L 68.0671,2.9250 L 68.0671,2.4536 L 68.1230,2.4536 L 68.1230,2.8834 L 68.3605,2.8834 L 68.3605,3.8399 L 68.4583,3.8399 L 68.4583,4.3389 L 68.3605,4.3389 L 68.3605,5.4202 L 71.9371,5.4202 L 71.9371,4.3389 L 71.8393,4.3389 L 71.8393,3.8399 L 71.9371,3.8399 L 71.9371,2.8834 L 72.1746,2.8834 L 72.1746,2.4536 L 72.2305,2.4536 L 72.2305,2.9250 L 71.9371,2.9250 L 71.9371,2.8834 L 71.0010,2.8834 L 71.0010,2.4536 L 70.7775,2.4536 L 70.7775,2.3012 L 69.5201,2.3012 Z" stroke="#000000" stroke-width="0.1193" stroke-linecap="round" stroke-linejoin="round" fill="#000000"/>
        <path d="M 69.2965,2.4675 L 68.1230,2.4675 L 68.1230,2.8972 L 69.2965,2.8972 L 69.2965,2.4675 Z" stroke="#494949" stroke-width="0.1193" stroke-linecap="round" stroke-linejoin="round" fill="#000000"/>
        <path d="M 72.1746,2.4675 L 71.0010,2.4675 L 71.0010,2.8972 L 72.1746,2.8972 L 72.1746,2.4675 Z" stroke="#494949" stroke-width="0.1193" stroke-linecap="round" stroke-linejoin="round" fill="#000000"/>
        <path d="M 69.5201,10.3691 L 69.5201,10.2166 L 69.2965,10.2166 L 69.2965,9.7868 L 68.3605,9.7868 L 68.3605,9.7453 L 68.0671,9.7453 L 68.0671,10.2166 L 68.1230,10.2166 L 68.1230,9.7868 L 68.3605,9.7868 L 68.3605,8.8303 L 68.4583,8.8303 L 68.4583,8.3313 L 68.3605,8.3313 L 68.3605,7.2500 L 71.9371,7.2500 L 71.9371,8.3313 L 71.8393,8.3313 L 71.8393,8.8303 L 71.9371,8.8303 L 71.9371,9.7868 L 72.1746,9.7868 L 72.1746,10.2166 L 72.2305,10.2166 L 72.2305,9.7453 L 71.9371,9.7453 L 71.9371,9.7868 L 71.0010,9.7868 L 71.0010,10.2166 L 70.7775,10.2166 L 70.7775,10.3691 L 69.5201,10.3691 Z" stroke="#000000" stroke-width="0.1193" stroke-linecap="round" stroke-linejoin="round" fill="#000000"/>
        <path d="M 69.2965,9.7868 L 68.1230,9.7868 L 68.1230,10.2166 L 69.2965,10.2166 L 69.2965,9.7868 Z" stroke="#494949" stroke-width="0.1193" stroke-linecap="round" stroke-linejoin="round" fill="#000000"/>
        <path d="M 72.1746,9.7868 L 71.0010,9.7868 L 71.0010,10.2166 L 72.1746,10.2166 L 72.1746,9.7868 Z" stroke="#494949" stroke-width="0.1193" stroke-linecap="round" stroke-linejoin="round" fill="#000000"/>
        <path d="M 73.7114,2.3012 L 73.7114,2.4536 L 73.4879,2.4536 L 73.4879,2.8834 L 72.5518,2.8834 L 72.5518,2.9250 L 72.2584,2.9250 L 72.2584,2.4536 L 72.3143,2.4536 L 72.3143,2.8834 L 72.5518,2.8834 L 72.5518,3.8399 L 72.6496,3.8399 L 72.6496,4.3389 L 72.5518,4.3389 L 72.5518,5.4202 L 76.1284,5.4202 L 76.1284,4.3389 L 76.0306,4.3389 L 76.0306,3.8399 L 76.1284,3.8399 L 76.1284,2.8834 L 76.3659,2.8834 L 76.3659,2.4536 L 76.4218,2.4536 L 76.4218,2.9250 L 76.1284,2.9250 L 76.1284,2.8834 L 75.1923,2.8834 L 75.1923,2.4536 L 74.9688,2.4536 L 74.9688,2.3012 L 73.7114,2.3012 Z" stroke="#000000" stroke-width="0.1193" stroke-linecap="round" stroke-linejoin="round" fill="#000000"/>
        <path d="M 73.4879,2.4675 L 72.3143,2.4675 L 72.3143,2.8972 L 73.4879,2.8972 L 73.4879,2.4675 Z" stroke="#494949" stroke-width="0.1193" stroke-linecap="round" stroke-linejoin="round" fill="#000000"/>
        <path d="M 76.3659,2.4675 L 75.1923,2.4675 L 75.1923,2.8972 L 76.3659,2.8972 L 76.3659,2.4675 Z" stroke="#494949" stroke-width="0.1193" stroke-linecap="round" stroke-linejoin="round" fill="#000000"/>
        <path d="M 73.7114,10.3691 L 73.7114,10.2166 L 73.4879,10.2166 L 73.4879,9.7868 L 72.5518,9.7868 L 72.5518,9.7453 L 72.2584,9.7453 L 72.2584,10.2166 L 72.3143,10.2166 L 72.3143,9.7868 L 72.5518,9.7868 L 72.5518,8.8303 L 72.6496,8.8303 L 72.6496,8.3313 L 72.5518,8.3313 L 72.5518,7.2500 L 76.1284,7.2500 L 76.1284,8.3313 L 76.0306,8.3313 L 76.0306,8.8303 L 76.1284,8.8303 L 76.1284,9.7868 L 76.3659,9.7868 L 76.3659,10.2166 L 76.4218,10.2166 L 76.4218,9.7453 L 76.1284,9.7453 L 76.1284,9.7868 L 75.1923,9.7868 L 75.1923,10.2166 L 74.9688,10.2166 L 74.9688,10.3691 L 73.7114,10.3691 Z" stroke="#000000" stroke-width="0.1193" stroke-linecap="round" stroke-linejoin="round" fill="#000000"/>
        <path d="M 73.4879,9.7868 L 72.3143,9.7868 L 72.3143,10.2166 L 73.4879,10.2166 L 73.4879,9.7868 Z" stroke="#494949" stroke-width="0.1193" stroke-linecap="round" stroke-linejoin="round" fill="#000000"/>
        <path d="M 76.3659,9.7868 L 75.1923,9.7868 L 75.1923,10.2166 L 76.3659,10.2166 L 76.3659,9.7868 Z" stroke="#494949" stroke-width="0.1193" stroke-linecap="round" stroke-linejoin="round" fill="#000000"/>
        <path d="M 77.9027,2.3012 L 77.9027,2.4536 L 77.6792,2.4536 L 77.6792,2.8834 L 76.7431,2.8834 L 76.7431,2.9250 L 76.4497,2.9250 L 76.4497,2.4536 L 76.5056,2.4536 L 76.5056,2.8834 L 76.7431,2.8834 L 76.7431,3.8399 L 76.8409,3.8399 L 76.8409,4.3389 L 76.7431,4.3389 L 76.7431,5.4202 L 80.3197,5.4202 L 80.3197,4.3389 L 80.2219,4.3389 L 80.2219,3.8399 L 80.3197,3.8399 L 80.3197,2.8834 L 80.5572,2.8834 L 80.5572,2.4536 L 80.6131,2.4536 L 80.6131,2.9250 L 80.3197,2.9250 L 80.3197,2.8834 L 79.3837,2.8834 L 79.3837,2.4536 L 79.1601,2.4536 L 79.1601,2.3012 L 77.9027,2.3012 Z" stroke="#000000" stroke-width="0.1193" stroke-linecap="round" stroke-linejoin="round" fill="#000000"/>
        <path d="M 77.6792,2.4675 L 76.5056,2.4675 L 76.5056,2.8972 L 77.6792,2.8972 L 77.6792,2.4675 Z" stroke="#494949" stroke-width="0.1193" stroke-linecap="round" stroke-linejoin="round" fill="#000000"/>
        <path d="M 80.5572,2.4675 L 79.3837,2.4675 L 79.3837,2.8972 L 80.5572,2.8972 L 80.5572,2.4675 Z" stroke="#494949" stroke-width="0.1193" stroke-linecap="round" stroke-linejoin="round" fill="#000000"/>
        <path d="M 77.9027,10.3691 L 77.9027,10.2166 L 77.6792,10.2166 L 77.6792,9.7868 L 76.7431,9.7868 L 76.7431,9.7453 L 76.4497,9.7453 L 76.4497,10.2166 L 76.5056,10.2166 L 76.5056,9.7868 L 76.7431,9.7868 L 76.7431,8.8303 L 76.8409,8.8303 L 76.8409,8.3313 L 76.7431,8.3313 L 76.7431,7.2500 L 80.3197,7.2500 L 80.3197,8.3313 L 80.2219,8.3313 L 80.2219,8.8303 L 80.3197,8.8303 L 80.3197,9.7868 L 80.5572,9.7868 L 80.5572,10.2166 L 80.6131,10.2166 L 80.6131,9.7453 L 80.3197,9.7453 L 80.3197,9.7868 L 79.3837,9.7868 L 79.3837,10.2166 L 79.1601,10.2166 L 79.1601,10.3691 L 77.9027,10.3691 Z" stroke="#000000" stroke-width="0.1193" stroke-linecap="round" stroke-linejoin="round" fill="#000000"/>
        <path d="M 77.6792,9.7868 L 76.5056,9.7868 L 76.5056,10.2166 L 77.6792,10.2166 L 77.6792,9.7868 Z" stroke="#494949" stroke-width="0.1193" stroke-linecap="round" stroke-linejoin="round" fill="#000000"/>
        <path d="M 80.5572,9.7868 L 79.3837,9.7868 L 79.3837,10.2166 L 80.5572,10.2166 L 80.5572,9.7868 Z" stroke="#494949" stroke-width="0.1193" stroke-linecap="round" stroke-linejoin="round" fill="#000000"/>
        <path d="M 82.0940,2.3012 L 82.0940,2.4536 L 81.8705,2.4536 L 81.8705,2.8834 L 80.9344,2.8834 L 80.9344,2.9250 L 80.6410,2.9250 L 80.6410,2.4536 L 80.6969,2.4536 L 80.6969,2.8834 L 80.9344,2.8834 L 80.9344,3.8399 L 81.0322,3.8399 L 81.0322,4.3389 L 80.9344,4.3389 L 80.9344,5.4202 L 84.5110,5.4202 L 84.5110,4.3389 L 84.4132,4.3389 L 84.4132,3.8399 L 84.5110,3.8399 L 84.5110,2.8834 L 84.7485,2.8834 L 84.7485,2.4536 L 84.8044,2.4536 L 84.8044,2.9250 L 84.5110,2.9250 L 84.5110,2.8834 L 83.5750,2.8834 L 83.5750,2.4536 L 83.3514,2.4536 L 83.3514,2.3012 L 82.0940,2.3012 Z" stroke="#000000" stroke-width="0.1193" stroke-linecap="round" stroke-linejoin="round" fill="#000000"/>
        <path d="M 81.8705,2.4675 L 80.6969,2.4675 L 80.6969,2.8972 L 81.8705,2.8972 L 81.8705,2.4675 Z" stroke="#494949" stroke-width="0.1193" stroke-linecap="round" stroke-linejoin="round" fill="#000000"/>
        <path d="M 84.7485,2.4675 L 83.5750,2.4675 L 83.5750,2.8972 L 84.7485,2.8972 L 84.7485,2.4675 Z" stroke="#494949" stroke-width="0.1193" stroke-linecap="round" stroke-linejoin="round" fill="#000000"/>
        <path d="M 82.0940,10.3691 L 82.0940,10.2166 L 81.8705,10.2166 L 81.8705,9.7868 L 80.9344,9.7868 L 80.9344,9.7453 L 80.6410,9.7453 L 80.6410,10.2166 L 80.6969,10.2166 L 80.6969,9.7868 L 80.9344,9.7868 L 80.9344,8.8303 L 81.0322,8.8303 L 81.0322,8.3313 L 80.9344,8.3313 L 80.9344,7.2500 L 84.5110,7.2500 L 84.5110,8.3313 L 84.4132,8.3313 L 84.4132,8.8303 L 84.5110,8.8303 L 84.5110,9.7868 L 84.7485,9.7868 L 84.7485,10.2166 L 84.8044,10.2166 L 84.8044,9.7453 L 84.5110,9.7453 L 84.5110,9.7868 L 83.5750,9.7868 L 83.5750,10.2166 L 83.3514,10.2166 L 83.3514,10.3691 L 82.0940,10.3691 Z" stroke="#000000" stroke-width="0.1193" stroke-linecap="round" stroke-linejoin="round" fill="#000000"/>
        <path d="M 81.8705,9.7868 L 80.6969,9.7868 L 80.6969,10.2166 L 81.8705,10.2166 L 81.8705,9.7868 Z" stroke="#494949" stroke-width="0.1193" stroke-linecap="round" stroke-linejoin="round" fill="#000000"/>
        <path d="M 84.7485,9.7868 L 83.5750,9.7868 L 83.5750,10.2166 L 84.7485,10.2166 L 84.7485,9.7868 Z" stroke="#494949" stroke-width="0.1193" stroke-linecap="round" stroke-linejoin="round" fill="#000000"/>
        <path d="M 95.9254,5.2562 L 91.9856,5.2562 L 91.9856,2.5866 L 95.9254,2.5866 L 95.9254,5.2562 Z" stroke="#000000" stroke-width="0.1193" stroke-linecap="round" stroke-linejoin="round" fill="none"/>
        <path d="M 95.9254,10.1389 L 91.9856,10.1389 L 91.9856,7.4693 L 95.9254,7.4693 L 95.9254,10.1389 Z" stroke="#000000" stroke-width="0.1193" stroke-linecap="round" stroke-linejoin="round" fill="none"/>
        <path d="M 100.3962,5.2562 L 96.4563,5.2562 L 96.4563,2.5866 L 100.3962,2.5866 L 100.3962,5.2562 Z" stroke="#000000" stroke-width="0.1193" stroke-linecap="round" stroke-linejoin="round" fill="none"/>
        <path d="M 100.3962,10.1389 L 96.4563,10.1389 L 96.4563,7.4693 L 100.3962,7.4693 L 100.3962,10.1389 Z" stroke="#000000" stroke-width="0.1193" stroke-linecap="round" stroke-linejoin="round" fill="none"/>
        <path d="M 104.8669,5.2562 L 100.9271,5.2562 L 100.9271,2.5866 L 104.8669,2.5866 L 104.8669,5.2562 Z" stroke="#000000" stroke-width="0.1193" stroke-linecap="round" stroke-linejoin="round" fill="none"/>
        <path d="M 104.8669,10.1389 L 100.9271,10.1389 L 100.9271,7.4693 L 104.8669,7.4693 L 104.8669,10.1389 Z" stroke="#000000" stroke-width="0.1193" stroke-linecap="round" stroke-linejoin="round" fill="none"/>
        <path d="M 109.3376,5.2562 L 105.3978,5.2562 L 105.3978,2.5866 L 109.3376,2.5866 L 109.3376,5.2562 Z" stroke="#000000" stroke-width="0.1193" stroke-linecap="round" stroke-linejoin="round" fill="none"/>
        <path d="M 109.3376,10.1389 L 105.3978,10.1389 L 105.3978,7.4693 L 109.3376,7.4693 L 109.3376,10.1389 Z" stroke="#000000" stroke-width="0.1193" stroke-linecap="round" stroke-linejoin="round" fill="none"/>
        <path d="M 112.4392,2.3012 L 112.4392,2.4536 L 112.2157,2.4536 L 112.2157,2.8834 L 111.2796,2.8834 L 111.2796,2.9250 L 110.9862,2.9250 L 110.9862,2.4536 L 111.0421,2.4536 L 111.0421,2.8834 L 111.2796,2.8834 L 111.2796,3.8399 L 111.3774,3.8399 L 111.3774,4.3389 L 111.2796,4.3389 L 111.2796,5.4202 L 114.8562,5.4202 L 114.8562,4.3389 L 114.7584,4.3389 L 114.7584,3.8399 L 114.8562,3.8399 L 114.8562,2.8834 L 115.0937,2.8834 L 115.0937,2.4536 L 115.1496,2.4536 L 115.1496,2.9250 L 114.8562,2.9250 L 114.8562,2.8834 L 113.9202,2.8834 L 113.9202,2.4536 L 113.6966,2.4536 L 113.6966,2.3012 L 112.4392,2.3012 Z" stroke="#000000" stroke-width="0.1193" stroke-linecap="round" stroke-linejoin="round" fill="#000000"/>
        <path d="M 112.2157,2.4675 L 111.0421,2.4675 L 111.0421,2.8972 L 112.2157,2.8972 L 112.2157,2.4675 Z" stroke="#494949" stroke-width="0.1193" stroke-linecap="round" stroke-linejoin="round" fill="#000000"/>
        <path d="M 115.0937,2.4675 L 113.9202,2.4675 L 113.9202,2.8972 L 115.0937,2.8972 L 115.0937,2.4675 Z" stroke="#494949" stroke-width="0.1193" stroke-linecap="round" stroke-linejoin="round" fill="#000000"/>
        <path d="M 112.4392,10.3691 L 112.4392,10.2166 L 112.2157,10.2166 L 112.2157,9.7868 L 111.2796,9.7868 L 111.2796,9.7453 L 110.9862,9.7453 L 110.9862,10.2166 L 111.0421,10.2166 L 111.0421,9.7868 L 111.2796,9.7868 L 111.2796,8.8303 L 111.3774,8.8303 L 111.3774,8.3313 L 111.2796,8.3313 L 111.2796,7.2500 L 114.8562,7.2500 L 114.8562,8.3313 L 114.7584,8.3313 L 114.7584,8.8303 L 114.8562,8.8303 L 114.8562,9.7868 L 115.0937,9.7868 L 115.0937,10.2166 L 115.1496,10.2166 L 115.1496,9.7453 L 114.8562,9.7453 L 114.8562,9.7868 L 113.9202,9.7868 L 113.9202,10.2166 L 113.6966,10.2166 L 113.6966,10.3691 L 112.4392,10.3691 Z" stroke="#000000" stroke-width="0.1193" stroke-linecap="round" stroke-linejoin="round" fill="#000000"/>
        <path d="M 112.2157,9.7868 L 111.0421,9.7868 L 111.0421,10.2166 L 112.2157,10.2166 L 112.2157,9.7868 Z" stroke="#494949" stroke-width="0.1193" stroke-linecap="round" stroke-linejoin="round" fill="#000000"/>
        <path d="M 115.0937,9.7868 L 113.9202,9.7868 L 113.9202,10.2166 L 115.0937,10.2166 L 115.0937,9.7868 Z" stroke="#494949" stroke-width="0.1193" stroke-linecap="round" stroke-linejoin="round" fill="#000000"/>
        <path d="M 118.2512,2.3012 L 118.2512,2.4536 L 118.0276,2.4536 L 118.0276,2.8834 L 117.0916,2.8834 L 117.0916,2.9250 L 116.7982,2.9250 L 116.7982,2.4536 L 116.8541,2.4536 L 116.8541,2.8834 L 117.0916,2.8834 L 117.0916,3.8399 L 117.1894,3.8399 L 117.1894,4.3389 L 117.0916,4.3389 L 117.0916,5.4202 L 120.6682,5.4202 L 120.6682,4.3389 L 120.5704,4.3389 L 120.5704,3.8399 L 120.6682,3.8399 L 120.6682,2.8834 L 120.9057,2.8834 L 120.9057,2.4536 L 120.9616,2.4536 L 120.9616,2.9250 L 120.6682,2.9250 L 120.6682,2.8834 L 119.7321,2.8834 L 119.7321,2.4536 L 119.5086,2.4536 L 119.5086,2.3012 L 118.2512,2.3012 Z" stroke="#000000" stroke-width="0.1193" stroke-linecap="round" stroke-linejoin="round" fill="#000000"/>
        <path d="M 118.0276,2.4675 L 116.8541,2.4675 L 116.8541,2.8972 L 118.0276,2.8972 L 118.0276,2.4675 Z" stroke="#494949" stroke-width="0.1193" stroke-linecap="round" stroke-linejoin="round" fill="#000000"/>
        <path d="M 120.9057,2.4675 L 119.7321,2.4675 L 119.7321,2.8972 L 120.9057,2.8972 L 120.9057,2.4675 Z" stroke="#494949" stroke-width="0.1193" stroke-linecap="round" stroke-linejoin="round" fill="#000000"/>
        <path d="M 118.2512,10.3691 L 118.2512,10.2166 L 118.0276,10.2166 L 118.0276,9.7868 L 117.0916,9.7868 L 117.0916,9.7453 L 116.7982,9.7453 L 116.7982,10.2166 L 116.8541,10.2166 L 116.8541,9.7868 L 117.0916,9.7868 L 117.0916,8.8303 L 117.1894,8.8303 L 117.1894,8.3313 L 117.0916,8.3313 L 117.0916,7.2500 L 120.6682,7.2500 L 120.6682,8.3313 L 120.5704,8.3313 L 120.5704,8.8303 L 120.6682,8.8303 L 120.6682,9.7868 L 120.9057,9.7868 L 120.9057,10.2166 L 120.9616,10.2166 L 120.9616,9.7453 L 120.6682,9.7453 L 120.6682,9.7868 L 119.7321,9.7868 L 119.7321,10.2166 L 119.5086,10.2166 L 119.5086,10.3691 L 118.2512,10.3691 Z" stroke="#000000" stroke-width="0.1193" stroke-linecap="round" stroke-linejoin="round" fill="#000000"/>
        <path d="M 118.0276,9.7868 L 116.8541,9.7868 L 116.8541,10.2166 L 118.0276,10.2166 L 118.0276,9.7868 Z" stroke="#494949" stroke-width="0.1193" stroke-linecap="round" stroke-linejoin="round" fill="#000000"/>
        <path d="M 120.9057,9.7868 L 119.7321,9.7868 L 119.7321,10.2166 L 120.9057,10.2166 L 120.9057,9.7868 Z" stroke="#494949" stroke-width="0.1193" stroke-linecap="round" stroke-linejoin="round" fill="#000000"/>
        <path d="M 90.3370,5.2562 L 86.3971,5.2562 L 86.3971,2.5866 L 90.3370,2.5866 L 90.3370,5.2562 Z" stroke="#000000" stroke-width="0.1193" stroke-linecap="round" stroke-linejoin="round" fill="none"/>
        <path d="M 90.3370,10.1389 L 86.3971,10.1389 L 86.3971,7.4693 L 90.3370,7.4693 L 90.3370,10.1389 Z" stroke="#000000" stroke-width="0.1193" stroke-linecap="round" stroke-linejoin="round" fill="none"/>
        <path d="M 45.2412,2.5285 L 44.4859,2.5285 L 44.4859,2.8397 L 45.2412,2.8397 L 45.2412,2.5285 Z" stroke="#000000" stroke-width="0.1193" stroke-linecap="round" stroke-linejoin="round" fill="#83FF00"/>
        <path d="M 48.0874,2.5285 L 47.3320,2.5285 L 47.3320,2.8397 L 48.0874,2.8397 L 48.0874,2.5285 Z" stroke="#000000" stroke-width="0.1193" stroke-linecap="round" stroke-linejoin="round" fill="#83FF00"/>
        <path d="M 50.9335,2.5285 L 50.1781,2.5285 L 50.1781,2.8397 L 50.9335,2.8397 L 50.9335,2.5285 Z" stroke="#000000" stroke-width="0.1193" stroke-linecap="round" stroke-linejoin="round" fill="#83FF00"/>
        <path d="M 53.7931,2.5285 L 53.0377,2.5285 L 53.0377,2.8397 L 53.7931,2.8397 L 53.7931,2.5285 Z" stroke="#000000" stroke-width="0.1193" stroke-linecap="round" stroke-linejoin="round" fill="#83FF00"/>
        <path d="M 55.1285,2.5285 L 54.3731,2.5285 L 54.3731,2.8397 L 55.1285,2.8397 L 55.1285,2.5285 Z" stroke="#000000" stroke-width="0.1193" stroke-linecap="round" stroke-linejoin="round" fill="#83FF00"/>
        <path d="M 57.9746,2.5285 L 57.2192,2.5285 L 57.2192,2.8397 L 57.9746,2.8397 L 57.9746,2.5285 Z" stroke="#000000" stroke-width="0.1193" stroke-linecap="round" stroke-linejoin="round" fill="#83FF00"/>
        <path d="M 59.3235,2.5285 L 58.5681,2.5285 L 58.5681,2.8397 L 59.3235,2.8397 L 59.3235,2.5285 Z" stroke="#000000" stroke-width="0.1193" stroke-linecap="round" stroke-linejoin="round" fill="#83FF00"/>
        <path d="M 62.1696,2.5285 L 61.4142,2.5285 L 61.4142,2.8397 L 62.1696,2.8397 L 62.1696,2.5285 Z" stroke="#000000" stroke-width="0.1193" stroke-linecap="round" stroke-linejoin="round" fill="#83FF00"/>
        <path d="M 63.5050,2.5285 L 62.7496,2.5285 L 62.7496,2.8397 L 63.5050,2.8397 L 63.5050,2.5285 Z" stroke="#000000" stroke-width="0.1193" stroke-linecap="round" stroke-linejoin="round" fill="#83FF00"/>
        <path d="M 66.3646,2.5285 L 65.6092,2.5285 L 65.6092,2.8397 L 66.3646,2.8397 L 66.3646,2.5285 Z" stroke="#000000" stroke-width="0.1193" stroke-linecap="round" stroke-linejoin="round" fill="#83FF00"/>
        <path d="M 69.1568,2.5285 L 68.4014,2.5285 L 68.4014,2.8397 L 69.1568,2.8397 L 69.1568,2.5285 Z" stroke="#000000" stroke-width="0.1193" stroke-linecap="round" stroke-linejoin="round" fill="#83FF00"/>
        <path d="M 72.0029,2.5285 L 71.2475,2.5285 L 71.2475,2.8397 L 72.0029,2.8397 L 72.0029,2.5285 Z" stroke="#000000" stroke-width="0.1193" stroke-linecap="round" stroke-linejoin="round" fill="#83FF00"/>
        <path d="M 73.3518,2.5285 L 72.5964,2.5285 L 72.5964,2.8397 L 73.3518,2.8397 L 73.3518,2.5285 Z" stroke="#000000" stroke-width="0.1193" stroke-linecap="round" stroke-linejoin="round" fill="#83FF00"/>
        <path d="M 76.1979,2.5285 L 75.4425,2.5285 L 75.4425,2.8397 L 76.1979,2.8397 L 76.1979,2.5285 Z" stroke="#000000" stroke-width="0.1193" stroke-linecap="round" stroke-linejoin="round" fill="#83FF00"/>
        <path d="M 77.5333,2.5285 L 76.7779,2.5285 L 76.7779,2.8397 L 77.5333,2.8397 L 77.5333,2.5285 Z" stroke="#000000" stroke-width="0.1193" stroke-linecap="round" stroke-linejoin="round" fill="#83FF00"/>
        <path d="M 80.3929,2.5285 L 79.6375,2.5285 L 79.6375,2.8397 L 80.3929,2.8397 L 80.3929,2.5285 Z" stroke="#000000" stroke-width="0.1193" stroke-linecap="round" stroke-linejoin="round" fill="#83FF00"/>
        <path d="M 81.7283,2.5285 L 80.9729,2.5285 L 80.9729,2.8397 L 81.7283,2.8397 L 81.7283,2.5285 Z" stroke="#000000" stroke-width="0.1193" stroke-linecap="round" stroke-linejoin="round" fill="#83FF00"/>
        <path d="M 84.5744,2.5285 L 83.8190,2.5285 L 83.8190,2.8397 L 84.5744,2.8397 L 84.5744,2.5285 Z" stroke="#000000" stroke-width="0.1193" stroke-linecap="round" stroke-linejoin="round" fill="#83FF00"/>
        <path d="M 112.0779,2.5285 L 111.3226,2.5285 L 111.3226,2.8397 L 112.0779,2.8397 L 112.0779,2.5285 Z" stroke="#000000" stroke-width="0.1193" stroke-linecap="round" stroke-linejoin="round" fill="#83FF00"/>
        <path d="M 114.9241,2.5285 L 114.1687,2.5285 L 114.1687,2.8397 L 114.9241,2.8397 L 114.9241,2.5285 Z" stroke="#000000" stroke-width="0.1193" stroke-linecap="round" stroke-linejoin="round" fill="#83FF00"/>
        <path d="M 117.8781,2.5285 L 117.1227,2.5285 L 117.1227,2.8397 L 117.8781,2.8397 L 117.8781,2.5285 Z" stroke="#000000" stroke-width="0.1193" stroke-linecap="round" stroke-linejoin="round" fill="#83FF00"/>
        <path d="M 120.7377,2.5285 L 119.9824,2.5285 L 119.9824,2.8397 L 120.7377,2.8397 L 120.7377,2.5285 Z" stroke="#000000" stroke-width="0.1193" stroke-linecap="round" stroke-linejoin="round" fill="#83FF00"/>
        <path d="M 48.0874,9.8287 L 47.3320,9.8287 L 47.3320,10.1399 L 48.0874,10.1399 L 48.0874,9.8287 Z" stroke="#000000" stroke-width="0.1193" stroke-linecap="round" stroke-linejoin="round" fill="#83FF00"/>
        <path d="M 45.2412,9.8287 L 44.4859,9.8287 L 44.4859,10.1399 L 45.2412,10.1399 L 45.2412,9.8287 Z" stroke="#000000" stroke-width="0.1193" stroke-linecap="round" stroke-linejoin="round" fill="#83FF00"/>
        <path d="M 53.7931,9.8287 L 53.0377,9.8287 L 53.0377,10.1399 L 53.7931,10.1399 L 53.7931,9.8287 Z" stroke="#000000" stroke-width="0.1193" stroke-linecap="round" stroke-linejoin="round" fill="#83FF00"/>
        <path d="M 50.9335,9.8287 L 50.1781,9.8287 L 50.1781,10.1399 L 50.9335,10.1399 L 50.9335,9.8287 Z" stroke="#000000" stroke-width="0.1193" stroke-linecap="round" stroke-linejoin="round" fill="#83FF00"/>
        <path d="M 57.9746,9.8287 L 57.2192,9.8287 L 57.2192,10.1399 L 57.9746,10.1399 L 57.9746,9.8287 Z" stroke="#000000" stroke-width="0.1193" stroke-linecap="round" stroke-linejoin="round" fill="#83FF00"/>
        <path d="M 55.1285,9.8287 L 54.3731,9.8287 L 54.3731,10.1399 L 55.1285,10.1399 L 55.1285,9.8287 Z" stroke="#000000" stroke-width="0.1193" stroke-linecap="round" stroke-linejoin="round" fill="#83FF00"/>
        <path d="M 62.1696,9.8287 L 61.4142,9.8287 L 61.4142,10.1399 L 62.1696,10.1399 L 62.1696,9.8287 Z" stroke="#000000" stroke-width="0.1193" stroke-linecap="round" stroke-linejoin="round" fill="#83FF00"/>
        <path d="M 59.3235,9.8287 L 58.5681,9.8287 L 58.5681,10.1399 L 59.3235,10.1399 L 59.3235,9.8287 Z" stroke="#000000" stroke-width="0.1193" stroke-linecap="round" stroke-linejoin="round" fill="#83FF00"/>
        <path d="M 66.3646,9.8287 L 65.6092,9.8287 L 65.6092,10.1399 L 66.3646,10.1399 L 66.3646,9.8287 Z" stroke="#000000" stroke-width="0.1193" stroke-linecap="round" stroke-linejoin="round" fill="#83FF00"/>
        <path d="M 63.5050,9.8287 L 62.7496,9.8287 L 62.7496,10.1399 L 63.5050,10.1399 L 63.5050,9.8287 Z" stroke="#000000" stroke-width="0.1193" stroke-linecap="round" stroke-linejoin="round" fill="#83FF00"/>
        <path d="M 72.0029,9.8287 L 71.2475,9.8287 L 71.2475,10.1399 L 72.0029,10.1399 L 72.0029,9.8287 Z" stroke="#000000" stroke-width="0.1193" stroke-linecap="round" stroke-linejoin="round" fill="#83FF00"/>
        <path d="M 69.1568,9.8287 L 68.4014,9.8287 L 68.4014,10.1399 L 69.1568,10.1399 L 69.1568,9.8287 Z" stroke="#000000" stroke-width="0.1193" stroke-linecap="round" stroke-linejoin="round" fill="#83FF00"/>
        <path d="M 76.1979,9.8287 L 75.4425,9.8287 L 75.4425,10.1399 L 76.1979,10.1399 L 76.1979,9.8287 Z" stroke="#000000" stroke-width="0.1193" stroke-linecap="round" stroke-linejoin="round" fill="#83FF00"/>
        <path d="M 73.3518,9.8287 L 72.5964,9.8287 L 72.5964,10.1399 L 73.3518,10.1399 L 73.3518,9.8287 Z" stroke="#000000" stroke-width="0.1193" stroke-linecap="round" stroke-linejoin="round" fill="#83FF00"/>
        <path d="M 80.3929,9.8287 L 79.6375,9.8287 L 79.6375,10.1399 L 80.3929,10.1399 L 80.3929,9.8287 Z" stroke="#000000" stroke-width="0.1193" stroke-linecap="round" stroke-linejoin="round" fill="#83FF00"/>
        <path d="M 77.5333,9.8287 L 76.7779,9.8287 L 76.7779,10.1399 L 77.5333,10.1399 L 77.5333,9.8287 Z" stroke="#000000" stroke-width="0.1193" stroke-linecap="round" stroke-linejoin="round" fill="#83FF00"/>
        <path d="M 84.5744,9.8287 L 83.8190,9.8287 L 83.8190,10.1399 L 84.5744,10.1399 L 84.5744,9.8287 Z" stroke="#000000" stroke-width="0.1193" stroke-linecap="round" stroke-linejoin="round" fill="#83FF00"/>
        <path d="M 81.7283,9.8287 L 80.9729,9.8287 L 80.9729,10.1399 L 81.7283,10.1399 L 81.7283,9.8287 Z" stroke="#000000" stroke-width="0.1193" stroke-linecap="round" stroke-linejoin="round" fill="#83FF00"/>
        <path d="M 114.9241,9.8287 L 114.1687,9.8287 L 114.1687,10.1399 L 114.9241,10.1399 L 114.9241,9.8287 Z" stroke="#000000" stroke-width="0.1193" stroke-linecap="round" stroke-linejoin="round" fill="#83FF00"/>
        <path d="M 112.0779,9.8287 L 111.3226,9.8287 L 111.3226,10.1399 L 112.0779,10.1399 L 112.0779,9.8287 Z" stroke="#000000" stroke-width="0.1193" stroke-linecap="round" stroke-linejoin="round" fill="#83FF00"/>
        <path d="M 120.7377,9.8287 L 119.9824,9.8287 L 119.9824,10.1399 L 120.7377,10.1399 L 120.7377,9.8287 Z" stroke="#000000" stroke-width="0.1193" stroke-linecap="round" stroke-linejoin="round" fill="#83FF00"/>
        <path d="M 117.8781,9.8287 L 117.1227,9.8287 L 117.1227,10.1399 L 117.8781,10.1399 L 117.8781,9.8287 Z" stroke="#000000" stroke-width="0.1193" stroke-linecap="round" stroke-linejoin="round" fill="#83FF00"/>
      </g>
      <!--emf-blob end-->
    </g>
  </g>
</svg>
