<svg xmlns="http://www.w3.org/2000/svg" width="7.62" height="4" viewBox="0 0 137.2 72"><title><![CDATA[FG-2500E]]></title><g fill="none" stroke="#f0f0f0" stroke-linecap="round" stroke-linejoin="round" stroke-width=".12"><path d="M1.93 10.23 6.5.6l4.57 9.63M3.13 7.58h6.74M13.24.6v9.63h7.7m0-9.63h9.15M25.5.6v9.63M32.5.6v9.63m2.17 0V.6l4.57 9.63L43.81.6v9.63m2.16 0L50.55.6l4.57 9.63m-7.94-2.65h6.74" transform="matrix(.4232 0 0 .4252 47.108 51.077)"/></g><g stroke="#000" stroke-linecap="round" stroke-linejoin="round" stroke-width=".12" transform="translate(-7.946 33.665)scale(.4684)"><path fill="#eaeaea" d="M17.33 17.33h1170.75v215.66H17.33z"/><path fill="#eaeaea" d="M66.55 17.33h1072.18v215.66H66.55z"/><path fill="#fff" d="m58 36.59-.11-.97-.12-.84-.24-.84-.24-.84-.36-.73-.49-.72-.48-.72-.6-.6-.6-.6-.72-.48-.73-.49-.72-.36-.84-.24-.84-.24-.84-.12-.85-.12H32.13l-.96.12-.84.12-.84.24-.85.24-.72.36-.72.49-.72.48-.6.6-.6.6-.49.72-.48.72-.36.73-.24.84-.24.84-.12.84v1.8l.12.85.24.84.24.85.36.72.48.72.48.72.6.6.6.6.73.49.72.48.72.36.85.24.84.24.84.12.96.12h17.1l.84-.12.84-.12.84-.24.84-.24.72-.36.73-.48.72-.49.6-.6.6-.6.48-.72.49-.72.35-.72.25-.85.24-.84.12-.84zm0 177.15-.11-.97-.12-.84-.24-.84-.24-.84-.36-.72-.49-.73-.48-.72-.6-.6-.6-.6-.72-.48-.73-.48-.72-.37-.84-.24-.84-.24-.84-.12-.85-.12H32.13l-.96.12-.84.12-.84.24-.85.24-.72.37-.72.48-.72.48-.6.6-.6.6-.49.72-.48.73-.36.72-.24.84-.24.84-.12.85v1.8l.12.84.24.85.24.84.36.72.48.72.48.72.6.6.6.6.73.49.72.48.72.36.85.24.84.24.84.12.96.12h17.1l.84-.12.84-.12.84-.24.84-.24.72-.36.73-.48.72-.48.6-.6.6-.6.48-.73.49-.72.35-.72.25-.84.24-.85.12-.84zM1181.95 36.59v-.97l-.12-.84-.24-.84-.24-.84-.36-.73-.49-.72-.48-.72-.6-.6-.6-.6-.72-.48-.72-.49-.73-.36-.84-.24-.84-.24-.84-.12-.97-.12h-17.09l-.84.12-.84.12-.84.24-.85.24-.72.36-.72.49-.72.48-.6.6-.6.6-.49.72-.48.72-.36.73-.24.84-.24.84-.12.84-.12.97.12.84.12.84.24.84.24.85.36.72.48.72.48.72.6.6.6.6.73.49.72.48.72.36.85.24.84.24.84.12.84.12h17.1l.96-.12.84-.12.84-.24.84-.24.73-.36.72-.48.72-.48.6-.6.6-.6.48-.73.49-.72.36-.72.24-.85.24-.84.12-.84zm0 177.15v-.97l-.12-.84-.24-.84-.24-.84-.36-.72-.49-.73-.48-.72-.6-.6-.6-.6-.72-.48-.72-.48-.73-.37-.84-.24-.84-.24-.84-.12-.97-.12h-17.09l-.84.12-.84.12-.84.24-.85.24-.72.37-.72.48-.72.48-.6.6-.6.6-.49.72-.48.73-.36.72-.24.84-.24.84-.12.85-.12.96.12.84.12.84.24.85.24.84.36.72.48.72.48.72.6.6.6.6.73.49.72.48.72.36.85.24.84.24.84.12.84.12h17.1l.96-.12.84-.12.84-.24.84-.24.73-.36.72-.48.72-.48.6-.6.6-.6.48-.73.49-.72.36-.72.24-.84.24-.85.12-.84z"/><path fill="#efefef" d="m1133.32 23.7-.12-.35-.12-.36-.12-.36-.24-.25-.36-.24-.24-.24-.37-.12H73.53l-.36.12-.24.24-.36.24-.24.24-.12.37-.12.36-.12.36V226.5l.12.36.12.36.12.36.24.24.36.24.24.24.36.12h1058.22l.36-.12.25-.24.36-.24.24-.24.12-.36.12-.36.12-.36z"/><path fill="#ddd" d="M514.13 135.75H205.79v67.52h308.34zm-312.19 0H161.4v67.52h40.55zm-42.72 13.6h-40.8v53.92h40.8z"/><path fill="#7f7f7f" d="m152.96 181.12-.12-.48-.24-.36-.36-.24-.36-.12h-26l-.48.12-.36.24-.24.36-.12.48h0l.12.36.24.37.36.24.48.12h26l.36-.12.36-.24.24-.37zm819.7-45.37H827.62v67.52h145.02z"/><path fill="#bfbfbf" d="M864.34 162.1H830.4v14.7h33.94z"/><path fill="#7f7f7f" d="M854.35 162.1h-13.84v1.81h13.84zm0 12.77h-13.84v1.92h13.84z"/><path fill="#0f0" d="m859.05 166.44-2.53 5.3h5.17zm-26.36 0 2.65 5.3 2.52-5.3z"/><path fill="#bfbfbf" d="M899.48 162.1h-33.94v14.7h33.94z"/><path fill="#7f7f7f" d="M889.37 162.1h-13.6v1.81h13.6zm0 12.77h-13.6v1.92h13.6z"/><path fill="#0f0" d="m894.3 166.44-2.52 5.3h5.06zm-26.47 0 2.65 5.3 2.53-5.3z"/><path fill="#bfbfbf" d="M934.74 162.1h-33.93v14.7h33.93z"/><path fill="#7f7f7f" d="M924.52 162.1h-13.6v1.81h13.6zm0 12.77h-13.6v1.92h13.6z"/><path fill="#0f0" d="m929.45 166.44-2.53 5.3h5.06zm-26.6 0 2.65 5.3 2.53-5.3z"/><path fill="#bfbfbf" d="M969.89 162.1h-33.94v14.7h33.94z"/><path fill="#7f7f7f" d="M959.78 162.1h-13.84v1.81h13.84zm0 12.77h-13.84v1.92h13.84z"/><path fill="#0f0" d="m964.47 166.44-2.53 5.3H967zm-26.48 0 2.65 5.3 2.53-5.3z"/><path fill="#7f7f7f" d="M1014.3 135.75h-36.6v67.52h36.6z"/><path fill="#bfbfbf" d="M1012.97 162.1h-33.94v14.7h33.94z"/><path fill="#7f7f7f" d="M1002.86 162.1h-13.72v1.81h13.72zm0 12.77h-13.72v1.92h13.72z"/><path fill="#0f0" d="m1007.56 166.44-2.41 5.3h4.93zm-26.48 0 2.65 5.3 2.52-5.3z"/><circle cx="1040.83" cy="169.39" r="4.03" fill="#0f0"/><circle cx="1066.1" cy="139.66" r="4.03" fill="#0f0"/><ellipse cx="1066.1" cy="199.18" fill="#0f0" rx="4.03" ry="3.97"/><path fill="#ddd" d="M824.39 135.75h-308.1v67.52h308.1z"/><circle cx="88.09" cy="109.16" r="5.17"/><circle cx="101.57" cy="109.16" r="5.17"/><ellipse cx="115.23" cy="109.16" rx="5.24" ry="5.17"/><ellipse cx="128.71" cy="109.16" rx="5.24" ry="5.17"/><ellipse cx="142.31" cy="109.16" rx="5.24" ry="5.17"/><ellipse cx="155.79" cy="109.16" rx="5.24" ry="5.17"/><ellipse cx="169.39" cy="109.16" rx="5.24" ry="5.17"/><ellipse cx="182.87" cy="109.16" rx="5.24" ry="5.17"/><circle cx="196.53" cy="109.16" r="5.17"/><circle cx="210.01" cy="109.16" r="5.17"/><circle cx="223.49" cy="109.16" r="5.17"/><circle cx="236.97" cy="109.16" r="5.17"/><ellipse cx="250.63" cy="109.16" rx="5.24" ry="5.17"/><ellipse cx="264.1" cy="109.16" rx="5.24" ry="5.17"/><ellipse cx="277.7" cy="109.16" rx="5.24" ry="5.17"/><ellipse cx="291.18" cy="109.16" rx="5.24" ry="5.17"/><ellipse cx="304.78" cy="109.16" rx="5.24" ry="5.17"/><ellipse cx="318.26" cy="109.16" rx="5.24" ry="5.17"/><circle cx="331.92" cy="109.16" r="5.17"/><circle cx="345.4" cy="109.16" r="5.17"/><circle cx="358.88" cy="109.16" r="5.17"/><circle cx="372.48" cy="109.16" r="5.17"/><circle cx="385.96" cy="109.16" r="5.17"/><circle cx="399.44" cy="109.16" r="5.17"/><circle cx="412.91" cy="109.16" r="5.17"/><ellipse cx="426.57" cy="109.16" rx="5.24" ry="5.17"/><ellipse cx="453.65" cy="109.16" rx="5.24" ry="5.17"/><circle cx="480.79" cy="109.16" r="5.17"/><circle cx="507.87" cy="109.16" r="5.17"/><circle cx="534.83" cy="109.16" r="5.17"/><ellipse cx="561.97" cy="109.16" rx="5.24" ry="5.17"/><ellipse cx="589.04" cy="109.16" rx="5.24" ry="5.17"/><ellipse cx="616" cy="109.16" rx="5.24" ry="5.17"/><ellipse cx="643.08" cy="109.16" rx="5.24" ry="5.17"/><circle cx="670.22" cy="109.16" r="5.17"/><circle cx="697.18" cy="109.16" r="5.17"/><ellipse cx="724.32" cy="109.16" rx="5.24" ry="5.17"/><ellipse cx="751.39" cy="109.16" rx="5.24" ry="5.17"/><ellipse cx="778.47" cy="109.16" rx="5.24" ry="5.17"/><circle cx="805.61" cy="109.16" r="5.17"/><circle cx="832.69" cy="109.16" r="5.17"/><circle cx="859.65" cy="109.16" r="5.17"/><ellipse cx="886.78" cy="109.16" rx="5.24" ry="5.17"/><ellipse cx="913.86" cy="109.16" rx="5.24" ry="5.17"/><ellipse cx="440.05" cy="109.16" rx="5.24" ry="5.17"/><ellipse cx="467.13" cy="109.16" rx="5.24" ry="5.17"/><circle cx="494.27" cy="109.16" r="5.17"/><circle cx="521.35" cy="109.16" r="5.17"/><circle cx="548.31" cy="109.16" r="5.17"/><ellipse cx="575.45" cy="109.16" rx="5.24" ry="5.17"/><ellipse cx="602.52" cy="109.16" rx="5.24" ry="5.17"/><ellipse cx="629.6" cy="109.16" rx="5.24" ry="5.17"/><circle cx="656.74" cy="109.16" r="5.17"/><circle cx="683.7" cy="109.16" r="5.17"/><circle cx="710.78" cy="109.16" r="5.17"/><ellipse cx="737.91" cy="109.16" rx="5.24" ry="5.17"/><ellipse cx="764.99" cy="109.16" rx="5.24" ry="5.17"/><circle cx="792.13" cy="109.16" r="5.17"/><circle cx="819.21" cy="109.16" r="5.17"/><circle cx="846.17" cy="109.16" r="5.17"/><circle cx="873.13" cy="109.16" r="5.17"/><ellipse cx="900.26" cy="109.16" rx="5.24" ry="5.17"/><ellipse cx="927.34" cy="109.16" rx="5.24" ry="5.17"/><circle cx="941" cy="109.16" r="5.17"/><circle cx="954.48" cy="109.16" r="5.17"/><circle cx="968.08" cy="109.16" r="5.17"/><circle cx="981.56" cy="109.16" r="5.17"/><circle cx="995.04" cy="109.16" r="5.17"/><circle cx="1008.52" cy="109.16" r="5.17"/><ellipse cx="1022.18" cy="109.16" rx="5.24" ry="5.17"/><ellipse cx="1035.66" cy="109.16" rx="5.24" ry="5.17"/><ellipse cx="1049.26" cy="109.16" rx="5.24" ry="5.17"/><ellipse cx="1062.73" cy="109.16" rx="5.24" ry="5.17"/><ellipse cx="1076.33" cy="109.16" rx="5.24" ry="5.17"/><ellipse cx="1089.81" cy="109.16" rx="5.24" ry="5.17"/><circle cx="1103.47" cy="109.16" r="5.17"/><circle cx="1116.95" cy="109.16" r="5.17"/><circle cx="94.89" cy="97.3" r="5.24"/><ellipse cx="108.55" cy="97.3" rx="5.17" ry="5.24"/><ellipse cx="122.03" cy="97.3" rx="5.17" ry="5.24"/><ellipse cx="135.63" cy="97.3" rx="5.17" ry="5.24"/><ellipse cx="149.11" cy="97.3" rx="5.17" ry="5.24"/><ellipse cx="162.59" cy="97.3" rx="5.17" ry="5.24"/><ellipse cx="176.07" cy="97.3" rx="5.17" ry="5.24"/><circle cx="189.73" cy="97.3" r="5.24"/><circle cx="203.21" cy="97.3" r="5.24"/><circle cx="216.81" cy="97.3" r="5.24"/><circle cx="230.29" cy="97.3" r="5.24"/><ellipse cx="243.95" cy="97.3" rx="5.17" ry="5.24"/><ellipse cx="257.43" cy="97.3" rx="5.17" ry="5.24"/><ellipse cx="271.02" cy="97.3" rx="5.17" ry="5.24"/><ellipse cx="284.5" cy="97.3" rx="5.17" ry="5.24"/><ellipse cx="297.98" cy="97.3" rx="5.17" ry="5.24"/><ellipse cx="311.46" cy="97.3" rx="5.17" ry="5.24"/><circle cx="325.12" cy="97.3" r="5.24"/><circle cx="338.6" cy="97.3" r="5.24"/><circle cx="352.08" cy="97.3" r="5.24"/><circle cx="365.68" cy="97.3" r="5.24"/><circle cx="379.16" cy="97.3" r="5.24"/><circle cx="392.76" cy="97.3" r="5.24"/><circle cx="406.24" cy="97.3" r="5.24"/><ellipse cx="419.89" cy="97.3" rx="5.17" ry="5.24"/><ellipse cx="446.85" cy="97.3" rx="5.17" ry="5.24"/><circle cx="473.99" cy="97.3" r="5.24"/><circle cx="501.07" cy="97.3" r="5.24"/><circle cx="528.15" cy="97.3" r="5.24"/><ellipse cx="555.29" cy="97.3" rx="5.17" ry="5.24"/><ellipse cx="582.37" cy="97.3" rx="5.17" ry="5.24"/><ellipse cx="609.32" cy="97.3" rx="5.17" ry="5.24"/><ellipse cx="636.28" cy="97.3" rx="5.17" ry="5.24"/><circle cx="663.42" cy="97.3" r="5.24"/><circle cx="690.5" cy="97.3" r="5.24"/><ellipse cx="717.64" cy="97.3" rx="5.17" ry="5.24"/><ellipse cx="744.71" cy="97.3" rx="5.17" ry="5.24"/><ellipse cx="771.67" cy="97.3" rx="5.17" ry="5.24"/><circle cx="798.81" cy="97.3" r="5.24"/><circle cx="825.89" cy="97.3" r="5.24"/><circle cx="852.97" cy="97.3" r="5.24"/><ellipse cx="880.11" cy="97.3" rx="5.17" ry="5.24"/><ellipse cx="907.06" cy="97.3" rx="5.17" ry="5.24"/><ellipse cx="433.37" cy="97.3" rx="5.17" ry="5.24"/><ellipse cx="460.33" cy="97.3" rx="5.17" ry="5.24"/><circle cx="487.47" cy="97.3" r="5.24"/><circle cx="514.55" cy="97.3" r="5.24"/><circle cx="541.63" cy="97.3" r="5.24"/><ellipse cx="568.76" cy="97.3" rx="5.17" ry="5.24"/><ellipse cx="595.84" cy="97.3" rx="5.17" ry="5.24"/><ellipse cx="622.8" cy="97.3" rx="5.17" ry="5.24"/><circle cx="649.94" cy="97.3" r="5.24"/><circle cx="677.02" cy="97.3" r="5.24"/><ellipse cx="704.16" cy="97.3" rx="5.17" ry="5.24"/><ellipse cx="731.24" cy="97.3" rx="5.17" ry="5.24"/><ellipse cx="758.19" cy="97.3" rx="5.17" ry="5.24"/><circle cx="785.33" cy="97.3" r="5.24"/><circle cx="812.41" cy="97.3" r="5.24"/><circle cx="839.49" cy="97.3" r="5.24"/><circle cx="866.45" cy="97.3" r="5.24"/><ellipse cx="893.59" cy="97.3" rx="5.17" ry="5.24"/><ellipse cx="920.54" cy="97.3" rx="5.17" ry="5.24"/><circle cx="934.2" cy="97.3" r="5.24"/><circle cx="947.68" cy="97.3" r="5.24"/><circle cx="961.28" cy="97.3" r="5.24"/><circle cx="974.76" cy="97.3" r="5.24"/><circle cx="988.36" cy="97.3" r="5.24"/><circle cx="1001.84" cy="97.3" r="5.24"/><ellipse cx="1015.5" cy="97.3" rx="5.17" ry="5.24"/><ellipse cx="1028.98" cy="97.3" rx="5.17" ry="5.24"/><ellipse cx="1042.58" cy="97.3" rx="5.17" ry="5.24"/><ellipse cx="1056.06" cy="97.3" rx="5.17" ry="5.24"/><ellipse cx="1069.53" cy="97.3" rx="5.17" ry="5.24"/><ellipse cx="1083.01" cy="97.3" rx="5.17" ry="5.24"/><circle cx="1096.67" cy="97.3" r="5.24"/><circle cx="1110.15" cy="97.3" r="5.24"/><circle cx="88.09" cy="85.57" r="5.17"/><circle cx="101.57" cy="85.57" r="5.17"/><ellipse cx="115.23" cy="85.57" rx="5.24" ry="5.17"/><ellipse cx="128.71" cy="85.57" rx="5.24" ry="5.17"/><ellipse cx="142.31" cy="85.57" rx="5.24" ry="5.17"/><ellipse cx="155.79" cy="85.57" rx="5.24" ry="5.17"/><ellipse cx="169.39" cy="85.57" rx="5.24" ry="5.17"/><ellipse cx="182.87" cy="85.57" rx="5.24" ry="5.17"/><circle cx="196.53" cy="85.57" r="5.17"/><circle cx="210.01" cy="85.57" r="5.17"/><circle cx="223.49" cy="85.57" r="5.17"/><circle cx="236.97" cy="85.57" r="5.17"/><ellipse cx="250.63" cy="85.57" rx="5.24" ry="5.17"/><ellipse cx="264.1" cy="85.57" rx="5.24" ry="5.17"/><ellipse cx="277.7" cy="85.57" rx="5.24" ry="5.17"/><ellipse cx="291.18" cy="85.57" rx="5.24" ry="5.17"/><ellipse cx="304.78" cy="85.57" rx="5.24" ry="5.17"/><ellipse cx="318.26" cy="85.57" rx="5.24" ry="5.17"/><circle cx="331.92" cy="85.57" r="5.17"/><circle cx="345.4" cy="85.57" r="5.17"/><circle cx="358.88" cy="85.57" r="5.17"/><circle cx="372.48" cy="85.57" r="5.17"/><circle cx="385.96" cy="85.57" r="5.17"/><circle cx="399.44" cy="85.57" r="5.17"/><circle cx="412.91" cy="85.57" r="5.17"/><ellipse cx="426.57" cy="85.57" rx="5.24" ry="5.17"/><ellipse cx="453.65" cy="85.57" rx="5.24" ry="5.17"/><circle cx="480.79" cy="85.57" r="5.17"/><circle cx="507.87" cy="85.57" r="5.17"/><circle cx="534.83" cy="85.57" r="5.17"/><ellipse cx="561.97" cy="85.57" rx="5.24" ry="5.17"/><ellipse cx="589.04" cy="85.57" rx="5.24" ry="5.17"/><ellipse cx="616" cy="85.57" rx="5.24" ry="5.17"/><ellipse cx="643.08" cy="85.57" rx="5.24" ry="5.17"/><circle cx="670.22" cy="85.57" r="5.17"/><circle cx="697.18" cy="85.57" r="5.17"/><ellipse cx="724.32" cy="85.57" rx="5.24" ry="5.17"/><ellipse cx="751.39" cy="85.57" rx="5.24" ry="5.17"/><ellipse cx="778.47" cy="85.57" rx="5.24" ry="5.17"/><circle cx="805.61" cy="85.57" r="5.17"/><circle cx="832.69" cy="85.57" r="5.17"/><circle cx="859.65" cy="85.57" r="5.17"/><ellipse cx="886.78" cy="85.57" rx="5.24" ry="5.17"/><ellipse cx="913.86" cy="85.57" rx="5.24" ry="5.17"/><ellipse cx="440.05" cy="85.57" rx="5.24" ry="5.17"/><ellipse cx="467.13" cy="85.57" rx="5.24" ry="5.17"/><circle cx="494.27" cy="85.57" r="5.17"/><circle cx="521.35" cy="85.57" r="5.17"/><circle cx="548.31" cy="85.57" r="5.17"/><ellipse cx="575.45" cy="85.57" rx="5.24" ry="5.17"/><ellipse cx="602.52" cy="85.57" rx="5.24" ry="5.17"/><ellipse cx="629.6" cy="85.57" rx="5.24" ry="5.17"/><circle cx="656.74" cy="85.57" r="5.17"/><circle cx="683.7" cy="85.57" r="5.17"/><circle cx="710.78" cy="85.57" r="5.17"/><ellipse cx="737.91" cy="85.57" rx="5.24" ry="5.17"/><ellipse cx="764.99" cy="85.57" rx="5.24" ry="5.17"/><circle cx="792.13" cy="85.57" r="5.17"/><circle cx="819.21" cy="85.57" r="5.17"/><circle cx="846.17" cy="85.57" r="5.17"/><circle cx="873.13" cy="85.57" r="5.17"/><ellipse cx="900.26" cy="85.57" rx="5.24" ry="5.17"/><ellipse cx="927.34" cy="85.57" rx="5.24" ry="5.17"/><circle cx="941" cy="85.57" r="5.17"/><circle cx="954.48" cy="85.57" r="5.17"/><circle cx="968.08" cy="85.57" r="5.17"/><circle cx="981.56" cy="85.57" r="5.17"/><circle cx="995.04" cy="85.57" r="5.17"/><circle cx="1008.52" cy="85.57" r="5.17"/><ellipse cx="1022.18" cy="85.57" rx="5.24" ry="5.17"/><ellipse cx="1035.66" cy="85.57" rx="5.24" ry="5.17"/><ellipse cx="1049.26" cy="85.57" rx="5.24" ry="5.17"/><ellipse cx="1062.73" cy="85.57" rx="5.24" ry="5.17"/><ellipse cx="1076.33" cy="85.57" rx="5.24" ry="5.17"/><ellipse cx="1089.81" cy="85.57" rx="5.24" ry="5.17"/><circle cx="1103.47" cy="85.57" r="5.17"/><circle cx="1116.95" cy="85.57" r="5.17"/><ellipse cx="257.43" cy="73.71" rx="5.17" ry="5.24"/><ellipse cx="271.02" cy="73.71" rx="5.17" ry="5.24"/><ellipse cx="284.5" cy="73.71" rx="5.17" ry="5.24"/><ellipse cx="297.98" cy="73.71" rx="5.17" ry="5.24"/><ellipse cx="311.46" cy="73.71" rx="5.17" ry="5.24"/><circle cx="325.12" cy="73.71" r="5.24"/><circle cx="338.6" cy="73.71" r="5.24"/><circle cx="352.08" cy="73.71" r="5.24"/><circle cx="365.68" cy="73.71" r="5.24"/><circle cx="379.16" cy="73.71" r="5.24"/><circle cx="392.76" cy="73.71" r="5.24"/><circle cx="406.24" cy="73.71" r="5.24"/><ellipse cx="419.89" cy="73.71" rx="5.17" ry="5.24"/><ellipse cx="446.85" cy="73.71" rx="5.17" ry="5.24"/><circle cx="473.99" cy="73.71" r="5.24"/><circle cx="501.07" cy="73.71" r="5.24"/><circle cx="528.15" cy="73.71" r="5.24"/><ellipse cx="555.29" cy="73.71" rx="5.17" ry="5.24"/><ellipse cx="582.37" cy="73.71" rx="5.17" ry="5.24"/><ellipse cx="609.32" cy="73.71" rx="5.17" ry="5.24"/><ellipse cx="636.28" cy="73.71" rx="5.17" ry="5.24"/><circle cx="663.42" cy="73.71" r="5.24"/><circle cx="690.5" cy="73.71" r="5.24"/><ellipse cx="717.64" cy="73.71" rx="5.17" ry="5.24"/><ellipse cx="744.71" cy="73.71" rx="5.17" ry="5.24"/><ellipse cx="771.67" cy="73.71" rx="5.17" ry="5.24"/><circle cx="798.81" cy="73.71" r="5.24"/><circle cx="825.89" cy="73.71" r="5.24"/><circle cx="852.97" cy="73.71" r="5.24"/><ellipse cx="880.11" cy="73.71" rx="5.17" ry="5.24"/><ellipse cx="907.06" cy="73.71" rx="5.17" ry="5.24"/><ellipse cx="433.37" cy="73.71" rx="5.17" ry="5.24"/><ellipse cx="460.33" cy="73.71" rx="5.17" ry="5.24"/><circle cx="487.47" cy="73.71" r="5.24"/><circle cx="514.55" cy="73.71" r="5.24"/><circle cx="541.63" cy="73.71" r="5.24"/><ellipse cx="568.76" cy="73.71" rx="5.17" ry="5.24"/><ellipse cx="595.84" cy="73.71" rx="5.17" ry="5.24"/><ellipse cx="622.8" cy="73.71" rx="5.17" ry="5.24"/><circle cx="649.94" cy="73.71" r="5.24"/><circle cx="677.02" cy="73.71" r="5.24"/><ellipse cx="704.16" cy="73.71" rx="5.17" ry="5.24"/><ellipse cx="731.24" cy="73.71" rx="5.17" ry="5.24"/><ellipse cx="758.19" cy="73.71" rx="5.17" ry="5.24"/><circle cx="785.33" cy="73.71" r="5.24"/><circle cx="812.41" cy="73.71" r="5.24"/><circle cx="839.49" cy="73.71" r="5.24"/><circle cx="866.45" cy="73.71" r="5.24"/><ellipse cx="893.59" cy="73.71" rx="5.17" ry="5.24"/><ellipse cx="920.54" cy="73.71" rx="5.17" ry="5.24"/><circle cx="934.2" cy="73.71" r="5.24"/><circle cx="947.68" cy="73.71" r="5.24"/><circle cx="961.28" cy="73.71" r="5.24"/><circle cx="974.76" cy="73.71" r="5.24"/><circle cx="988.36" cy="73.71" r="5.24"/><circle cx="1001.84" cy="73.71" r="5.24"/><ellipse cx="1015.5" cy="73.71" rx="5.17" ry="5.24"/><ellipse cx="1028.98" cy="73.71" rx="5.17" ry="5.24"/><ellipse cx="1042.58" cy="73.71" rx="5.17" ry="5.24"/><ellipse cx="1056.06" cy="73.71" rx="5.17" ry="5.24"/><ellipse cx="1069.53" cy="73.71" rx="5.17" ry="5.24"/><ellipse cx="1083.01" cy="73.71" rx="5.17" ry="5.24"/><circle cx="1096.67" cy="73.71" r="5.24"/><circle cx="1110.15" cy="73.71" r="5.24"/><circle cx="250.63" cy="61.92" r="5.24"/><circle cx="264.1" cy="61.92" r="5.24"/><circle cx="277.7" cy="61.92" r="5.24"/><circle cx="291.18" cy="61.92" r="5.24"/><circle cx="304.78" cy="61.92" r="5.24"/><circle cx="318.26" cy="61.92" r="5.24"/><ellipse cx="331.92" cy="61.92" rx="5.17" ry="5.24"/><ellipse cx="345.4" cy="61.92" rx="5.17" ry="5.24"/><ellipse cx="358.88" cy="61.92" rx="5.17" ry="5.24"/><ellipse cx="372.48" cy="61.92" rx="5.17" ry="5.24"/><ellipse cx="385.96" cy="61.92" rx="5.17" ry="5.24"/><ellipse cx="399.44" cy="61.92" rx="5.17" ry="5.24"/><ellipse cx="412.91" cy="61.92" rx="5.17" ry="5.24"/><circle cx="426.57" cy="61.92" r="5.24"/><circle cx="453.65" cy="61.92" r="5.24"/><ellipse cx="480.79" cy="61.92" rx="5.17" ry="5.24"/><ellipse cx="507.87" cy="61.92" rx="5.17" ry="5.24"/><ellipse cx="534.83" cy="61.92" rx="5.17" ry="5.24"/><circle cx="561.97" cy="61.92" r="5.24"/><circle cx="589.04" cy="61.92" r="5.24"/><circle cx="616" cy="61.92" r="5.24"/><circle cx="643.08" cy="61.92" r="5.24"/><ellipse cx="670.22" cy="61.92" rx="5.17" ry="5.24"/><ellipse cx="697.18" cy="61.92" rx="5.17" ry="5.24"/><circle cx="724.32" cy="61.92" r="5.24"/><circle cx="751.39" cy="61.92" r="5.24"/><circle cx="778.47" cy="61.92" r="5.24"/><ellipse cx="805.61" cy="61.92" rx="5.17" ry="5.24"/><ellipse cx="832.69" cy="61.92" rx="5.17" ry="5.24"/><ellipse cx="859.65" cy="61.92" rx="5.17" ry="5.24"/><circle cx="886.78" cy="61.92" r="5.24"/><circle cx="913.86" cy="61.92" r="5.24"/><circle cx="440.05" cy="61.92" r="5.24"/><circle cx="467.13" cy="61.92" r="5.24"/><ellipse cx="494.27" cy="61.92" rx="5.17" ry="5.24"/><ellipse cx="521.35" cy="61.92" rx="5.17" ry="5.24"/><ellipse cx="548.31" cy="61.92" rx="5.17" ry="5.24"/><circle cx="575.45" cy="61.92" r="5.24"/><circle cx="602.52" cy="61.92" r="5.24"/><circle cx="629.6" cy="61.92" r="5.24"/><ellipse cx="656.74" cy="61.92" rx="5.17" ry="5.24"/><ellipse cx="683.7" cy="61.92" rx="5.17" ry="5.24"/><ellipse cx="710.78" cy="61.92" rx="5.17" ry="5.24"/><circle cx="737.91" cy="61.92" r="5.24"/><circle cx="764.99" cy="61.92" r="5.24"/><ellipse cx="792.13" cy="61.92" rx="5.17" ry="5.24"/><ellipse cx="819.21" cy="61.92" rx="5.17" ry="5.24"/><ellipse cx="846.17" cy="61.92" rx="5.17" ry="5.24"/><ellipse cx="873.13" cy="61.92" rx="5.17" ry="5.24"/><circle cx="900.26" cy="61.92" r="5.24"/><circle cx="927.34" cy="61.92" r="5.24"/><ellipse cx="941" cy="61.92" rx="5.17" ry="5.24"/><ellipse cx="954.48" cy="61.92" rx="5.17" ry="5.24"/><ellipse cx="968.08" cy="61.92" rx="5.17" ry="5.24"/><ellipse cx="981.56" cy="61.92" rx="5.17" ry="5.24"/><ellipse cx="995.04" cy="61.92" rx="5.17" ry="5.24"/><ellipse cx="1008.52" cy="61.92" rx="5.17" ry="5.24"/><circle cx="1022.18" cy="61.92" r="5.24"/><circle cx="1035.66" cy="61.92" r="5.24"/><circle cx="1049.26" cy="61.92" r="5.24"/><circle cx="1062.73" cy="61.92" r="5.24"/><circle cx="1076.33" cy="61.92" r="5.24"/><circle cx="1089.81" cy="61.92" r="5.24"/><ellipse cx="1103.47" cy="61.92" rx="5.17" ry="5.24"/><ellipse cx="1116.95" cy="61.92" rx="5.17" ry="5.24"/><circle cx="257.43" cy="50.19" r="5.17"/><circle cx="271.02" cy="50.19" r="5.17"/><circle cx="284.5" cy="50.19" r="5.17"/><circle cx="297.98" cy="50.19" r="5.17"/><circle cx="311.46" cy="50.19" r="5.17"/><ellipse cx="325.12" cy="50.19" rx="5.24" ry="5.17"/><ellipse cx="338.6" cy="50.19" rx="5.24" ry="5.17"/><ellipse cx="352.08" cy="50.19" rx="5.24" ry="5.17"/><ellipse cx="365.68" cy="50.19" rx="5.24" ry="5.17"/><ellipse cx="379.16" cy="50.19" rx="5.24" ry="5.17"/><ellipse cx="392.76" cy="50.19" rx="5.24" ry="5.17"/><ellipse cx="406.24" cy="50.19" rx="5.24" ry="5.17"/><circle cx="419.89" cy="50.19" r="5.17"/><circle cx="446.85" cy="50.19" r="5.17"/><ellipse cx="473.99" cy="50.19" rx="5.24" ry="5.17"/><ellipse cx="501.07" cy="50.19" rx="5.24" ry="5.17"/><ellipse cx="528.15" cy="50.19" rx="5.24" ry="5.17"/><circle cx="555.29" cy="50.19" r="5.17"/><circle cx="582.37" cy="50.19" r="5.17"/><circle cx="609.32" cy="50.19" r="5.17"/><circle cx="636.28" cy="50.19" r="5.17"/><ellipse cx="663.42" cy="50.19" rx="5.24" ry="5.17"/><ellipse cx="690.5" cy="50.19" rx="5.24" ry="5.17"/><circle cx="717.64" cy="50.19" r="5.17"/><circle cx="744.71" cy="50.19" r="5.17"/><circle cx="771.67" cy="50.19" r="5.17"/><ellipse cx="798.81" cy="50.19" rx="5.24" ry="5.17"/><ellipse cx="825.89" cy="50.19" rx="5.24" ry="5.17"/><ellipse cx="852.97" cy="50.19" rx="5.24" ry="5.17"/><circle cx="880.11" cy="50.19" r="5.17"/><circle cx="907.06" cy="50.19" r="5.17"/><circle cx="433.37" cy="50.19" r="5.17"/><circle cx="460.33" cy="50.19" r="5.17"/><ellipse cx="487.47" cy="50.19" rx="5.24" ry="5.17"/><ellipse cx="514.55" cy="50.19" rx="5.24" ry="5.17"/><ellipse cx="541.63" cy="50.19" rx="5.24" ry="5.17"/><circle cx="568.76" cy="50.19" r="5.17"/><circle cx="595.84" cy="50.19" r="5.17"/><circle cx="622.8" cy="50.19" r="5.17"/><ellipse cx="649.94" cy="50.19" rx="5.24" ry="5.17"/><ellipse cx="677.02" cy="50.19" rx="5.24" ry="5.17"/><circle cx="704.16" cy="50.19" r="5.17"/><circle cx="731.24" cy="50.19" r="5.17"/><circle cx="758.19" cy="50.19" r="5.17"/><ellipse cx="785.33" cy="50.19" rx="5.24" ry="5.17"/><ellipse cx="812.41" cy="50.19" rx="5.24" ry="5.17"/><ellipse cx="839.49" cy="50.19" rx="5.24" ry="5.17"/><ellipse cx="866.45" cy="50.19" rx="5.24" ry="5.17"/><circle cx="893.59" cy="50.19" r="5.17"/><circle cx="920.54" cy="50.19" r="5.17"/><ellipse cx="934.2" cy="50.19" rx="5.24" ry="5.17"/><ellipse cx="947.68" cy="50.19" rx="5.24" ry="5.17"/><ellipse cx="961.28" cy="50.19" rx="5.24" ry="5.17"/><ellipse cx="974.76" cy="50.19" rx="5.24" ry="5.17"/><ellipse cx="988.36" cy="50.19" rx="5.24" ry="5.17"/><ellipse cx="1001.84" cy="50.19" rx="5.24" ry="5.17"/><circle cx="1015.5" cy="50.19" r="5.17"/><circle cx="1028.98" cy="50.19" r="5.17"/><circle cx="1042.58" cy="50.19" r="5.17"/><circle cx="1056.06" cy="50.19" r="5.17"/><circle cx="1069.53" cy="50.19" r="5.17"/><circle cx="1083.01" cy="50.19" r="5.17"/><ellipse cx="1096.67" cy="50.19" rx="5.24" ry="5.17"/><ellipse cx="1110.15" cy="50.19" rx="5.24" ry="5.17"/><circle cx="250.63" cy="38.33" r="5.24"/><circle cx="264.1" cy="38.33" r="5.24"/><circle cx="277.7" cy="38.33" r="5.24"/><circle cx="291.18" cy="38.33" r="5.24"/><circle cx="304.78" cy="38.33" r="5.24"/><circle cx="318.26" cy="38.33" r="5.24"/><ellipse cx="331.92" cy="38.33" rx="5.17" ry="5.24"/><ellipse cx="345.4" cy="38.33" rx="5.17" ry="5.24"/><ellipse cx="358.88" cy="38.33" rx="5.17" ry="5.24"/><ellipse cx="372.48" cy="38.33" rx="5.17" ry="5.24"/><ellipse cx="385.96" cy="38.33" rx="5.17" ry="5.24"/><ellipse cx="399.44" cy="38.33" rx="5.17" ry="5.24"/><ellipse cx="412.91" cy="38.33" rx="5.17" ry="5.24"/><circle cx="426.57" cy="38.33" r="5.24"/><circle cx="453.65" cy="38.33" r="5.24"/><ellipse cx="480.79" cy="38.33" rx="5.17" ry="5.24"/><ellipse cx="507.87" cy="38.33" rx="5.17" ry="5.24"/><ellipse cx="534.83" cy="38.33" rx="5.17" ry="5.24"/><circle cx="561.97" cy="38.33" r="5.24"/><circle cx="589.04" cy="38.33" r="5.24"/><circle cx="616" cy="38.33" r="5.24"/><circle cx="643.08" cy="38.33" r="5.24"/><ellipse cx="670.22" cy="38.33" rx="5.17" ry="5.24"/><ellipse cx="697.18" cy="38.33" rx="5.17" ry="5.24"/><circle cx="724.32" cy="38.33" r="5.24"/><circle cx="751.39" cy="38.33" r="5.24"/><circle cx="778.47" cy="38.33" r="5.24"/><ellipse cx="805.61" cy="38.33" rx="5.17" ry="5.24"/><ellipse cx="832.69" cy="38.33" rx="5.17" ry="5.24"/><ellipse cx="859.65" cy="38.33" rx="5.17" ry="5.24"/><circle cx="886.78" cy="38.33" r="5.24"/><circle cx="913.86" cy="38.33" r="5.24"/><circle cx="440.05" cy="38.33" r="5.24"/><circle cx="467.13" cy="38.33" r="5.24"/><ellipse cx="494.27" cy="38.33" rx="5.17" ry="5.24"/><ellipse cx="521.35" cy="38.33" rx="5.17" ry="5.24"/><ellipse cx="548.31" cy="38.33" rx="5.17" ry="5.24"/><circle cx="575.45" cy="38.33" r="5.24"/><circle cx="602.52" cy="38.33" r="5.24"/><circle cx="629.6" cy="38.33" r="5.24"/><ellipse cx="656.74" cy="38.33" rx="5.17" ry="5.24"/><ellipse cx="683.7" cy="38.33" rx="5.17" ry="5.24"/><ellipse cx="710.78" cy="38.33" rx="5.17" ry="5.24"/><circle cx="737.91" cy="38.33" r="5.24"/><circle cx="764.99" cy="38.33" r="5.24"/><ellipse cx="792.13" cy="38.33" rx="5.17" ry="5.24"/><ellipse cx="819.21" cy="38.33" rx="5.17" ry="5.24"/><ellipse cx="846.17" cy="38.33" rx="5.17" ry="5.24"/><ellipse cx="873.13" cy="38.33" rx="5.17" ry="5.24"/><circle cx="900.26" cy="38.33" r="5.24"/><circle cx="927.34" cy="38.33" r="5.24"/><ellipse cx="941" cy="38.33" rx="5.17" ry="5.24"/><ellipse cx="954.48" cy="38.33" rx="5.17" ry="5.24"/><ellipse cx="968.08" cy="38.33" rx="5.17" ry="5.24"/><ellipse cx="981.56" cy="38.33" rx="5.17" ry="5.24"/><ellipse cx="995.04" cy="38.33" rx="5.17" ry="5.24"/><ellipse cx="1008.52" cy="38.33" rx="5.17" ry="5.24"/><circle cx="1022.18" cy="38.33" r="5.24"/><circle cx="1035.66" cy="38.33" r="5.24"/><circle cx="1049.26" cy="38.33" r="5.24"/><circle cx="1062.73" cy="38.33" r="5.24"/><circle cx="1076.33" cy="38.33" r="5.24"/><circle cx="1089.81" cy="38.33" r="5.24"/><ellipse cx="1103.47" cy="38.33" rx="5.17" ry="5.24"/><ellipse cx="1116.95" cy="38.33" rx="5.17" ry="5.24"/><path fill="none" d="m242.62 31.53-.12-.84-.24-.84-.36-.6-.48-.6-.72-.6-.6-.37-.85-.24H81.24l-.85.24-.72.36-.6.6-.48.6-.36.6-.24.85-.12.84v39l.12.72.24.84.36.72.48.6.6.48.72.36.85.25.72.12H238.4l.84-.12.84-.25.6-.36.73-.48.48-.6.36-.72.24-.84.12-.73z"/><path fill="#0f0" d="m90.98 39.11-.12-.48-.12-.48-.24-.36-.24-.36-.36-.24-.36-.24-.48-.12h-.36 0-.49l-.48.12-.36.24-.36.24-.24.36-.24.36-.12.48V63.3l.12.48.24.36.24.37.36.24.36.24.49.12.48.12h0l.36-.12.48-.12.36-.24.36-.24.24-.36.24-.37.12-.48.12-.36zm10.47 0-.12-.48-.12-.48-.24-.36-.24-.36-.36-.24-.36-.24-.48-.12h-.36 0-.48l-.49.12-.36.24-.36.24-.24.36-.24.36-.12.48V63.3l.12.48.24.36.24.37.36.24.36.24.49.12.48.12h0l.36-.12.48-.12.36-.24.36-.24.24-.36.24-.37.12-.48.12-.36zm10.35 0v-.48l-.12-.48-.24-.36-.24-.36-.36-.24-.36-.24-.48-.12h-.48 0-.36l-.49.12-.36.24-.36.24-.24.36-.24.36-.12.48-.12.48v23.83l.12.36.12.48.24.36.24.37.36.24.36.24.49.12.36.12h0l.48-.12.48-.12.36-.24.36-.24.24-.36.24-.37.12-.48z"/><path fill="none" d="M827.63 120.35h83.4m22.03 0h81.23"/><path d="M151.28 216.39v-.6l-.24-.49-.24-.48-.37-.48-.36-.36-.48-.24-.48-.12-.6-.12h-19.14l-.6.12-.48.12-.48.24-.36.36-.36.48-.24.48-.24.48v3.25l.24.48.24.49.36.48.36.36.48.24.48.12h20.34l.48-.12.48-.24.36-.36.37-.48.24-.49.24-.48zm42.84 0v-.6l-.24-.49-.24-.48-.36-.48-.36-.36-.48-.24-.49-.12-.6-.12h-19.13l-.6.12-.49.12-.48.24-.36.36-.36.48-.24.48-.24.48v3.25l.24.48.24.49.36.48.36.36.49.24.48.12h20.34l.48-.12.48-.24.36-.36.36-.48.24-.49.24-.48z"/><circle cx="104.64" cy="217.17" r="2.11"/><path fill="#7f7f7f" d="M132.99 214.1h11.79v6.5h-11.8z"/><path fill="#bfbfbf" d="M136 214.46h5.77v5.78h-5.78z"/><path fill="#7f7f7f" d="M175.95 214.1h11.8v6.5h-11.8z"/><path fill="#bfbfbf" d="M178.96 214.46h5.77v5.78h-5.77z"/><path fill="#7f7f7f" d="m152.96 181.12-.12-.48-.24-.36-.36-.24-.36-.12h-26l-.48.12-.36.24-.24.36-.12.48h0l.12.36.24.37.36.24.48.12h26l.36-.12.36-.24.24-.37zm46.1-11.55-.12-.36-.12-.36-.12-.36-.24-.24-.25-.24-.36-.12-.24-.12h-31.9l-.23.12-.36.12-.24.24-.24.24-.12.36-.12.36v.72l.12.24.12.36.24.24.24.24.36.13.24.12.36.12h31.17l.36-.12.24-.12.36-.12.24-.25.24-.24.13-.36.12-.24zm311.46 0v-.48l-.12-.36-.12-.36-.36-.36-.24-.24-.37-.13-.36-.12H210.61l-.36.12-.36.12-.36.25-.25.36-.12.36-.12.36-.12.48h0l.12.36.12.36.12.36.24.36.37.24.36.12.36.13.36.12h297.5l.48-.12.36-.12.36-.12.24-.24.36-.37.12-.36.12-.36zm310.62 0v-.48l-.12-.36-.13-.36-.36-.36-.24-.24-.36-.13-.36-.12H521.23l-.36.12-.36.12-.37.25-.24.36-.12.36-.12.36-.12.48h0l.12.36.12.36.12.36.24.36.37.24.36.12.36.13.36.12h297.5l.48-.12.36-.12.36-.12.24-.24.37-.37.12-.36.12-.36z"/></g><g stroke-linecap="round" stroke-linejoin="round" stroke-width=".12"><path stroke="#000" d="M3.37 18.05h-.12v-.12h-.12 0-.12 0-.12v-.12h0-.12 0l-.12-.12h0l-.12-.12h0v-.12h0-.12v-.12h0v-.12h0v-.12h-.12v-.12h0V3.49h.12v-.12h0v-.12h0v-.12h.12v-.12h0l.12-.12h0l.12-.12h.12v-.12h16.73v.12h.12l.12.12h0l.12.12h0v.12h.12v.12h0v.12h0l.12.12h0v.12h0v.24h0v2.17h0v.24h0-.12v-.12h0v-.12h0-.12V5.9h0-.12v-.12h0-.12 0v-.12h-.12 0-.12 0-.12 0v-.12h0H6.62h0-.12v.12h0-.12 0-.12 0l-.12.12h0-.12v.12h0l-.12.12h0v.12h0v.12h0v10.83h0v.12h0v.12h0v.12h0v.12h0l.12.12h0v.12h.12v.12h.24v.12h.12-.12 0-.12 0-.36 0-2.41 0z" transform="matrix(.3652 0 0 .3664 46.274 50.108)"/><path stroke="#000" d="M18.9 9.15H7.33h0-.12v-.12h0-.12 0-.12 0l-.12-.12h0-.12v-.12h0l-.12-.12h0v-.12h0v-.12h0v.12h0v.24h0v2.16h0v.24h0v.12h0v.12h0v.12h0v.12h0l.12.12h0v.12h.12l.12.12h12.4l.12-.12v-.12l.12-.12.12-.12.12-.12h0l.12-.12v-.12l.12-.12v-.96l-.12-.12h0v-.12l-.12-.12v-.12h-.12l-.12-.12v-.12h-.12l-.12-.12h-.12l-.12-.12zm27.8 2.89h-.11 0-.12 0l-.13-.12h0-.12v-.12h0l-.12-.13h0v-.12h0v-.12h0-.12v-.12h0v-.12h0v-.24h0V8.8h0v-.24h0v-.13h.12v.13h0v.11h0l.12.12h0v.12h.12l.12.13h.24v.12h9.4v-.12h0V8.9h0V5.78h0v-.12h0v-.12h0-10 0-.12 0v.12h0-.12 0-.12 0l-.12.12h0-.12v.12h0l-.12.12h0v.12h0v.12h-.12 0v10.83h0v.12h.12v.12h0v.12h0v.12h0l.12.12h0v.12h.12v.12h.24v.12h0-.12 0-2.4 0-.36 0-.13 0-.12 0v-.12h-.12 0-.12 0-.12v-.12h0-.12 0l-.12-.12h0l-.12-.12h0v-.12h0-.12v-.12h0v-.12h0v-.12h0v-.12h0V3.5h0v-.12h0v-.12h0v-.12H42v-.12h0l.12-.12h0l.12-.12h.12v-.12H59.1v.12h.12l.12.12h0l.12.12h0v.12h.12v.12h0v.12h0v.12h.12v.12h0v7.1h0l-.12.12h0v.12h0v.12h0-.12v.12h0v.12h0-.12v.12h0l-.12.12h0v.12h-.12 0v.12h-.12 0v.12h-.12 0v.12h-.12 0v.12h.12v.12h.12v.12h.12v.13h.12v.12h0l.12.12h0v.12h.12V13h0v.12h.12v.12h0v.12h0l.12.12h0v.24h0v3.13h0v.24h0v.12h0v.12h0v.12h0v.12h0l.12.12h0v.12h.12v.12h.24v.12h0-.12 0-2.76 0-.12 0-.12v-.12h-.12 0-.12 0-.13v-.12h0-.12 0l-.12-.12h0l-.12-.12h0v-.12h0-.12v-.12h0v-.12h0l-.12-.12h0v-.12h0v-.12h0v-.24h0v-4.58h0-9.26 0zm19.14-6.5h-2.77 0-.24 0-.12 0-.12 0-.12 0-.12 0-.12 0-.12v-.12h0-.12 0l-.12-.12h0l-.12-.13h0v-.12h0-.12v-.12h0v-.12h0V4.7h0v-.12h0v-.12h0v-.12h0v-.12h0V4.1h0v-.12h0v-.12h0v-.12h0v-.12h0v-.12h0v-.12h0v-.12h0v-.12h.12v-.12h0l.12-.12h0l.12-.12h.12v-.12h16.73v.12h.12l.12.12h0l.12.12h0v.12h.12v.12h0v.12h0v.12h0v.12h0v.24h0v2.17h0v.24h0v-.12h0v-.12h0-.12 0V5.9h0-.12v-.12h0-.12 0v-.12h-.12 0-.12 0-.12 0v-.12h0-.12 0-8.43v.12h0-.12 0-.12 0l-.12.12h0-.12v.12h0l-.12.12h0v.12h0v.12h0v10.83h0v.12h0v.12h0v.12h0v.12h0l.12.12h0v.12h.12v.12h.24v.12h.12-.12 0-.12 0-.36 0-2.4 0-.13 0-.12v-.12h-.12 0-.12 0-.12v-.12h0-.12 0l-.12-.12h0l-.12-.12h0v-.12h0-.12v-.12h0v-.12h0v-.12h-.12v-.12h0zm19.02 11.55v.12h0v.12h0v.12h0v.12h0l.12.12h0v.12h.12v.12h.24v.12h.12-.12 0-.12 0-.36 0-2.41 0-.12 0-.12v-.12h-.12 0-.12 0-.12v-.12h0-.12 0l-.12-.12h0l-.12-.12h0v-.12h0-.12v-.12h0v-.12h0v-.12h-.13v-.12h0V3.49h0v-.12h0v-.12h0v-.12h0v-.12h0l-.12-.12h0v-.12h0H81h0v-.12h0-.12 0-.12 0-.12 3.61v.12h.12l.12.12h0l.12.12h0v.12h.12v.12h0v.12h0v.12h.12zm16.97-11.55h-9.98 0-.12v.12h0-.13 0-.12 0l-.12.12h0-.12v.12h0l-.12.12h0v.12h0v.12h0-.12v10.83h0v.12h.12v.12h0v.12h0v.12h0l.12.12h0v.12h.12v.12h.24v.12h0-.12 0-2.76 0-.12 0-.12v-.12h-.12 0-.12 0-.13v-.12h0-.12 0l-.12-.12h0v-.12h-.12 0v-.12h0-.12v-.12h0v-.12h0v-.12h0v-.12h0V3.5h0v-.12h0v-.12h0v-.12h.12v-.12h.12v-.12h0l.12-.12h.12v-.12h16.73v.12h.12l.12.12h0l.12.12h0v.12h.12v.12h0v.12h0v.12h.13v13.6h0v.12h0v.12h0v.12h0v.12h0l.11.12h0v.12h.12v.12h.25v.12h.12-.12 0-.12 0-.37 0-2.4 0-.12 0-.12v-.12h-.12 0-.12 0-.12v-.12h0-.12 0l-.12-.12h0l-.12-.12h0v-.12h0-.13v-.12h0v-.12h0v-.12h-.12v-.12h0zM123 9.14h-10.84 0-.12 0v-.11h0-.12 0-.12 0V8.9h0-.12 0v-.12h0l-.12-.12h0v-.12h0v-.12h0-.12 0v.12h0v.24h0v2.16h0v.24h0v.12h0v.12h.12v.12h0v.12h0l.12.12h0v.12h.12v.12h11.56l.12-.12v-.12l.12-.12.12-.12.12-.12h0l.12-.12v-.12l.12-.12V10h-.12v-.24l-.12-.12h0l-.12-.12-.12-.12h0l-.12-.12h-.12l-.12-.12zm8.3-3.61h-2.77 0-.24 0-.12 0-.12 0-.12 0-.12 0-.12 0-.12v-.12h0-.12 0l-.12-.12h0l-.12-.13h0v-.12h0-.12v-.12h0v-.12h0V4.7h0v-.12h0v-.12h0v-.12h0v-.12h0V4.1h0v-.12h0v-.12h0v-.12h0v-.12h0v-.12h0v-.12h0v-.12h0v-.12h.12v-.12h0l.12-.12h0l.12-.12h.12v-.12h16.73v.12h.12l.12.12h0l.12.12h0v.12h.12v.12h0v.12h0v.12h0v.12h0v.24h0v2.17h0v.24h0v-.12h0v-.12h0-.12 0V5.9h0-.12v-.12h0-.12 0v-.12h-.12 0-.12 0-.12 0v-.12h0-.12 0-8.43v.12h0-.12 0-.12 0l-.12.12h0-.12v.12h0l-.12.12h0v.12h0v.12h0v10.83h0v.12h0v.12h0v.12h0v.12h0l.12.12h0v.12h.12v.12h.24v.12h.12-.12 0-.12 0-.36 0-2.4 0-.13 0-.12v-.12h-.12 0-.12 0-.12v-.12h0-.12 0l-.12-.12h0l-.12-.12h0v-.12h0-.12v-.12h0v-.12h0v-.12h-.12v-.12h0z" transform="matrix(.3652 0 0 .3664 46.274 50.108)"/><path stroke="#000" d="M124.2 15.04h.12v-.12h.36v-.12h.12v-.12h.12v-.12h.12v-.12h0v-.12h.12v.12h0v.12h0v2.17h0v.12h0v.12h0l-.12.12h0v.12h0v.12h0v.12h-.12 0v.12h0l-.12.12h0l-.12.12h0-.12 0v.12h-.12 0-.12 0-.12v.12h0-16 0v-.12h-.13 0-.12 0-.12v-.12h0-.12 0l-.12-.12h0l-.12-.12h0v-.12h0-.12v-.12h0v-.12h0v-.12h0v-.12h0V3.49h0v-.12h0v-.12h0v-.12h.12v-.12h0l.12-.12h0l.12-.12h.12v-.12h16.73v.12h.12l.12.12h0l.12.12h0v.12h.12v.12h0v.12h0v.12h.12v.12h0v.24h0v2.17h0v.24h0-.12 0v-.12h0v-.12h0-.12 0V5.9h0-.12v-.12h0-.12 0v-.12h-.12 0-.12 0-.12 0v-.12h-.12 0-12.76 0v.12h0-.12 0-.12 0l-.12.12h0-.12v.12h0l-.12.12h0v.12h0v.12h-.12 0v.12h0v8.66z" transform="matrix(.3652 0 0 .3664 46.274 50.108)"/><path fill="red" stroke="red" d="M28.04 13.6v4.45h5.78V13.6zm-5.9-5.54h4.94v4.46h-4.94zM34.9 13.6v4.33h0v.12h1.45l.12-.12h.72l.12-.12h.24l.24-.12h.12l.24-.12.12-.12.24-.12.12-.12.12-.12.12-.24.24-.12.12-.24.12-.12.12-.24v-.24l.12-.37.12-.24v-.36l.12-.24v-.72l.12-.36h-.12 0-4.8 0zm0-5.54h5.06v4.46H34.9zm-7.82 5.54v4.33h0v.12h-1.44l-.13-.12h-.72l-.12-.12h-.24l-.24-.12h-.12l-.24-.12-.12-.12-.24-.12-.12-.12-.12-.12-.12-.24-.12-.12-.24-.24-.12-.12v-.24l-.12-.24-.13-.37-.12-.24v-.36l-.12-.24V13.6zm.96-10.95V7.1h5.78V2.65zM34.9 7.1v-.12h0V2.65h0l.24-.12h1.2l.13.12h.72l.12.12h.24l.24.12.12.12h.24l.12.12.24.12.12.12.12.12.12.24.24.12.12.24.12.24.12.12v.24l.12.36.12.25v.36l.12.24v.72l.12.48h-.12 0-4.8 0zm-7.82 0v-.12h0V2.65h0l-.24-.12h-1.2l-.13.12h-.72l-.12.12h-.24l-.24.12-.12.12h-.24l-.12.12-.24.12-.12.12-.12.12-.12.24-.12.12-.24.24-.12.24v.12l-.12.24-.13.36-.12.25v.36l-.12.24v1.2z" transform="matrix(.3652 0 0 .3664 46.274 50.108)"/></g><text x="3.85" y="10.95" font-family="Symbol" font-size="8.54" style="white-space:pre" transform="matrix(.166 0 0 .1724 97.41 54.514)"><![CDATA[]]></text><text x="30.33" y="15.92" font-family="Arial" font-size="3.25" font-weight="400" style="white-space:pre" transform="matrix(4 0 0 4 0 41.612)"><![CDATA[FortiGate 2500E]]></text><circle cx="6.68" cy="6.68" r="2.83" fill="#0f0" stroke="#000" stroke-linecap="round" stroke-linejoin="round" stroke-width=".12" transform="matrix(.6124 0 0 .6388 37.238 101.724)"/><circle cx="6.68" cy="6.68" r="2.83" fill="#0f0" stroke="#000" stroke-linecap="round" stroke-linejoin="round" stroke-width=".12" transform="matrix(.6124 0 0 .6388 37.238 108.26)"/><circle cx="6.68" cy="6.68" r="2.83" fill="#0f0" stroke="#000" stroke-linecap="round" stroke-linejoin="round" stroke-width=".12" transform="matrix(.6124 0 0 .6388 37.238 115.02)"/><circle cx="6.68" cy="6.68" r="2.83" fill="#0f0" stroke="#000" stroke-linecap="round" stroke-linejoin="round" stroke-width=".12" transform="matrix(.6124 0 0 .6388 37.238 121.555)"/><g font-family="Arial" font-size="1.32" font-weight="400"><text x="20.34" y="39.22" style="white-space:pre" transform="matrix(4 0 0 4 0 41.612)"><![CDATA[STATUS]]></text><text x="20.82" y="42.71" style="white-space:pre" transform="matrix(4 0 0 4 0 41.612)"><![CDATA[ALARM]]></text><text x="23.47" y="46.32" style="white-space:pre" transform="matrix(4 0 0 4 0 41.612)"><![CDATA[HA]]></text><text x="20.82" y="49.81" style="white-space:pre" transform="matrix(4 0 0 4 0 41.612)"><![CDATA[POWER]]></text><text x="34.3" y="52.58" style="white-space:pre" transform="matrix(4 0 0 4 0 41.612)"><![CDATA[USB]]></text><text x="44.17" y="52.58" style="white-space:pre" transform="matrix(4 0 0 4 0 41.612)"><![CDATA[MGMT2]]></text><text x="44.17" y="33.08" style="white-space:pre" transform="matrix(4 0 0 4 0 41.612)"><![CDATA[MGMT1]]></text><text x="32.61" y="36.33" style="white-space:pre" transform="matrix(4 0 0 4 0 41.612)"><![CDATA[CONSOLE]]></text><text x="57.05" y="33.08" style="white-space:pre" transform="matrix(4 0 0 4 0 41.612)"><![CDATA[1]]></text><text x="57.05" y="52.58" style="white-space:pre" transform="matrix(4 0 0 4 0 41.612)"><![CDATA[2]]></text><text x="66.55" y="33.08" style="white-space:pre" transform="matrix(4 0 0 4 0 41.612)"><![CDATA[3]]></text><text x="66.55" y="52.58" style="white-space:pre" transform="matrix(4 0 0 4 0 41.612)"><![CDATA[4]]></text><text x="76.06" y="33.08" style="white-space:pre" transform="matrix(4 0 0 4 0 41.612)"><![CDATA[5]]></text><text x="76.06" y="52.58" style="white-space:pre" transform="matrix(4 0 0 4 0 41.612)"><![CDATA[6]]></text><text x="85.57" y="33.08" style="white-space:pre" transform="matrix(4 0 0 4 0 41.612)"><![CDATA[7]]></text><text x="85.57" y="52.58" style="white-space:pre" transform="matrix(4 0 0 4 0 41.612)"><![CDATA[8]]></text><text x="95.19" y="33.08" style="white-space:pre" transform="matrix(4 0 0 4 0 41.612)"><![CDATA[9]]></text><text x="94.83" y="52.58" style="white-space:pre" transform="matrix(4 0 0 4 0 41.612)"><![CDATA[10]]></text><text x="104.34" y="33.08" style="white-space:pre" transform="matrix(4 0 0 4 0 41.612)"><![CDATA[11]]></text><text x="104.34" y="52.58" style="white-space:pre" transform="matrix(4 0 0 4 0 41.612)"><![CDATA[12]]></text><text x="113.85" y="33.08" style="white-space:pre" transform="matrix(4 0 0 4 0 41.612)"><![CDATA[13]]></text><text x="113.85" y="52.58" style="white-space:pre" transform="matrix(4 0 0 4 0 41.612)"><![CDATA[14]]></text><text x="123.36" y="33.08" style="white-space:pre" transform="matrix(4 0 0 4 0 41.612)"><![CDATA[15]]></text><text x="123.36" y="52.58" style="white-space:pre" transform="matrix(4 0 0 4 0 41.612)"><![CDATA[16]]></text><text x="134.19" y="52.58" style="white-space:pre" transform="matrix(4 0 0 4 0 41.612)"><![CDATA[18]]></text><text x="143.7" y="52.58" style="white-space:pre" transform="matrix(4 0 0 4 0 41.612)"><![CDATA[20]]></text><text x="153.2" y="52.58" style="white-space:pre" transform="matrix(4 0 0 4 0 41.612)"><![CDATA[22]]></text><text x="162.71" y="52.58" style="white-space:pre" transform="matrix(4 0 0 4 0 41.612)"><![CDATA[24]]></text><text x="172.34" y="52.58" style="white-space:pre" transform="matrix(4 0 0 4 0 41.612)"><![CDATA[26]]></text><text x="181.85" y="52.58" style="white-space:pre" transform="matrix(4 0 0 4 0 41.612)"><![CDATA[28]]></text><text x="191.35" y="52.58" style="white-space:pre" transform="matrix(4 0 0 4 0 41.612)"><![CDATA[30]]></text><text x="200.86" y="52.58" style="white-space:pre" transform="matrix(4 0 0 4 0 41.612)"><![CDATA[32]]></text><text x="134.19" y="33.08" style="white-space:pre" transform="matrix(4 0 0 4 0 41.612)"><![CDATA[17]]></text><text x="143.7" y="33.08" style="white-space:pre" transform="matrix(4 0 0 4 0 41.612)"><![CDATA[19]]></text><text x="153.2" y="33.08" style="white-space:pre" transform="matrix(4 0 0 4 0 41.612)"><![CDATA[21]]></text><text x="162.71" y="33.08" style="white-space:pre" transform="matrix(4 0 0 4 0 41.612)"><![CDATA[23]]></text><text x="172.34" y="33.08" style="white-space:pre" transform="matrix(4 0 0 4 0 41.612)"><![CDATA[25]]></text><text x="181.85" y="33.08" style="white-space:pre" transform="matrix(4 0 0 4 0 41.612)"><![CDATA[27]]></text><text x="191.35" y="33.08" style="white-space:pre" transform="matrix(4 0 0 4 0 41.612)"><![CDATA[29]]></text><text x="200.86" y="33.08" style="white-space:pre" transform="matrix(4 0 0 4 0 41.612)"><![CDATA[31]]></text><text x="211.81" y="33.08" style="white-space:pre" transform="matrix(4 0 0 4 0 41.612)"><![CDATA[33]]></text><text x="220.6" y="33.08" style="white-space:pre" transform="matrix(4 0 0 4 0 41.612)"><![CDATA[35]]></text><text x="229.5" y="33.08" style="white-space:pre" transform="matrix(4 0 0 4 0 41.612)"><![CDATA[37]]></text><text x="238.29" y="33.08" style="white-space:pre" transform="matrix(4 0 0 4 0 41.612)"><![CDATA[39]]></text><text x="249" y="33.08" style="white-space:pre" transform="matrix(4 0 0 4 0 41.612)"><![CDATA[41]]></text><text x="249" y="52.58" style="white-space:pre" transform="matrix(4 0 0 4 0 41.612)"><![CDATA[42]]></text><text x="211.81" y="52.58" style="white-space:pre" transform="matrix(4 0 0 4 0 41.612)"><![CDATA[34]]></text><text x="220.6" y="52.58" style="white-space:pre" transform="matrix(4 0 0 4 0 41.612)"><![CDATA[36]]></text><text x="229.5" y="52.58" style="white-space:pre" transform="matrix(4 0 0 4 0 41.612)"><![CDATA[38]]></text><text x="238.29" y="52.58" style="white-space:pre" transform="matrix(4 0 0 4 0 41.612)"><![CDATA[40]]></text><text x="271.87" y="33.08" style="white-space:pre" transform="matrix(4 0 0 4 0 41.612)"><![CDATA[43]]></text><text x="271.87" y="52.58" style="white-space:pre" transform="matrix(4 0 0 4 0 41.612)"><![CDATA[44]]></text><text x="260.07" y="40.3" style="white-space:pre" transform="matrix(4 0 0 4 0 41.612)"><![CDATA[BP]]></text><text x="229.75" y="30.56" style="white-space:pre" transform="matrix(4 0 0 4 0 41.612)"><![CDATA[SFP+]]></text></g><path stroke="#161616" stroke-linecap="round" stroke-linejoin="round" stroke-width=".12" d="M2.89 1.32v18.3h7.7v4.45h3.13v4.33h9.03v-4.33H26v-4.45h7.7V1.32z" transform="matrix(.4684 0 0 -.4672 48.742 117.049)"/><g stroke-linecap="round" stroke-linejoin="round" stroke-width=".12"><path fill="gray" stroke="#000" stroke-width=".06" d="M50.44 121.16h-.06l-.05.06h0-.06 0-.06 0-.05v.06h-.06 0-.06v.05h0-.06v.06h-.05v.06h0-.06v.06h0v.05h-.06v.06h0v.06h0v.05h0v.06h0v5.3h0v.06h0v.06h0v.05h0v.06h.06v.06h0v.05h.06v.06h.05v.06h.06v.05h.12v.06h.17l.05.06h13.97l.05-.06h.18v-.06h.11v-.05h.06v-.06h.05v-.06h.06v-.05h0v-.06h.06v-.06h0v-.05h0v-.06h0v-.06h0v-5.3h0v-.06h0v-.05h0v-.06h0v-.06h-.06v-.05h0v-.06h-.06 0v-.06h-.05v-.06h-.06 0v-.05h-.06 0-.05v-.06h-.06 0-.06 0-.06 0l-.05-.06h-.06 0z"/><path stroke="gray" stroke-width=".06" d="M50.61 121.68h-.06v.05h0-.05 0-.06 0l-.06.06h0l-.05.06h0v.05h0v.06h0l-.06.06h0v.06h0v4.78h0v.06h.06v.06h0v.05h0v.06h.05v.06h.06v.06H64.3v-.06h.06v-.06h.06v-.06h0v-.05h0v-.06h.05v-.06h0v-4.78h0v-.06h0l-.05-.06h0v-.06h0v-.05h0l-.06-.06h0v-.06h-.06 0-.06 0l-.05-.05h0z"/><path fill="silver" stroke="#000" stroke-width=".06" d="M53.63 124.53h-1.25v-.23h1.25zm2.91 0h-1.25v-.23h1.25zm2.8 0h-1.26v-.23h1.25zm2.84 0h-1.25v-.23h1.25z"/><path fill="#00f" stroke="#000" stroke-width=".06" d="M63.55 122.76v-.12l-.06-.1-.11-.07H51.35l-.11.06-.06.11v1.43l.06.11.11.06h12.03l.11-.06.06-.11z"/><path fill="#33f" stroke="#33f" stroke-width=".06" d="M63.1 123.33v-.17l-.12-.17-.17-.12-.17-.05H52.09l-.17.05-.17.12-.11.17v.4l.11.17.17.11.17.06h10.55l.17-.06.17-.11.11-.17z"/></g><g stroke-linecap="round" stroke-linejoin="round" stroke-width=".12"><path stroke="#000" d="M15.04 29v-1.32h-1.92v-3.73H4.93v-.48H2.41v4.21h.48v-3.73h2.04v-8.3h.97v-4.46h-.97V1.93h30.81v9.26h-.84v4.46h.84v8.3h2.17v3.73h.36v-4.21h-2.53v.48H27.8v3.73h-1.92V29z" transform="matrix(.4728 0 0 -.4672 67.834 110.795)"/><path stroke="#494949" d="M2.89 23.83h10.1v3.73H2.9zm24.91 0h10.11v3.73H27.8z" transform="matrix(.4728 0 0 -.4672 67.834 110.795)"/></g><g stroke-linecap="round" stroke-linejoin="round" stroke-width=".12"><path stroke="#000" d="M15.04 29v-1.32h-1.92v-3.73H4.93v-.48H2.41v4.21h.48v-3.73h2.04v-8.3h.97v-4.46h-.97V1.93h30.81v9.26h-.84v4.46h.84v8.3h2.17v3.73h.36v-4.21h-2.53v.48H27.8v3.73h-1.92V29z" transform="matrix(.4728 0 0 .4672 67.834 115.08)"/><path stroke="#494949" d="M2.89 23.83h10.1v3.73H2.9zm24.91 0h10.11v3.73H27.8z" transform="matrix(.4728 0 0 .4672 67.834 115.08)"/></g><g stroke-linecap="round" stroke-linejoin="round" stroke-width=".12"><path stroke="#000" d="M15.04 29v-1.32h-1.92v-3.73H4.93v-.48H2.41v4.21h.48v-3.73h2.04v-8.3h.97v-4.46h-.97V1.93h30.81v9.26h-.84v4.46h.84v8.3h2.17v3.73h.36v-4.21h-2.53v.48H27.8v3.73h-1.92V29z" transform="matrix(.4728 0 0 -.4672 88.57 110.795)"/><path stroke="#494949" d="M2.89 23.83h10.1v3.73H2.9zm24.91 0h10.11v3.73H27.8z" transform="matrix(.4728 0 0 -.4672 88.57 110.795)"/></g><g stroke-linecap="round" stroke-linejoin="round" stroke-width=".12"><path stroke="#000" d="M15.04 29v-1.32h-1.92v-3.73H4.93v-.48H2.41v4.21h.48v-3.73h2.04v-8.3h.97v-4.46h-.97V1.93h30.81v9.26h-.84v4.46h.84v8.3h2.17v3.73h.36v-4.21h-2.53v.48H27.8v3.73h-1.92V29z" transform="matrix(.4728 0 0 .4672 88.57 115.08)"/><path stroke="#494949" d="M2.89 23.83h10.1v3.73H2.9zm24.91 0h10.11v3.73H27.8z" transform="matrix(.4728 0 0 .4672 88.57 115.08)"/></g><g stroke-linecap="round" stroke-linejoin="round" stroke-width=".12"><path stroke="#000" d="M15.04 29v-1.32h-1.92v-3.73H4.93v-.48H2.41v4.21h.48v-3.73h2.04v-8.3h.97v-4.46h-.97V1.93h30.81v9.26h-.84v4.46h.84v8.3h2.17v3.73h.36v-4.21h-2.53v.48H27.8v3.73h-1.92V29z" transform="matrix(.4728 0 0 -.4672 106.603 110.795)"/><path stroke="#494949" d="M2.89 23.83h10.1v3.73H2.9zm24.91 0h10.11v3.73H27.8z" transform="matrix(.4728 0 0 -.4672 106.603 110.795)"/></g><g stroke-linecap="round" stroke-linejoin="round" stroke-width=".12"><path stroke="#000" d="M15.04 29v-1.32h-1.92v-3.73H4.93v-.48H2.41v4.21h.48v-3.73h2.04v-8.3h.97v-4.46h-.97V1.93h30.81v9.26h-.84v4.46h.84v8.3h2.17v3.73h.36v-4.21h-2.53v.48H27.8v3.73h-1.92V29z" transform="matrix(.4728 0 0 .4672 106.603 115.08)"/><path stroke="#494949" d="M2.89 23.83h10.1v3.73H2.9zm24.91 0h10.11v3.73H27.8z" transform="matrix(.4728 0 0 .4672 106.603 115.08)"/></g><g stroke-linecap="round" stroke-linejoin="round" stroke-width=".12"><path stroke="#000" d="M15.04 29v-1.32h-1.92v-3.73H4.93v-.48H2.41v4.21h.48v-3.73h2.04v-8.3h.97v-4.46h-.97V1.93h30.81v9.26h-.84v4.46h.84v8.3h2.17v3.73h.36v-4.21h-2.53v.48H27.8v3.73h-1.92V29z" transform="matrix(.4728 0 0 -.4672 124.41 110.795)"/><path stroke="#494949" d="M2.89 23.83h10.1v3.73H2.9zm24.91 0h10.11v3.73H27.8z" transform="matrix(.4728 0 0 -.4672 124.41 110.795)"/></g><g stroke-linecap="round" stroke-linejoin="round" stroke-width=".12"><path stroke="#000" d="M15.04 29v-1.32h-1.92v-3.73H4.93v-.48H2.41v4.21h.48v-3.73h2.04v-8.3h.97v-4.46h-.97V1.93h30.81v9.26h-.84v4.46h.84v8.3h2.17v3.73h.36v-4.21h-2.53v.48H27.8v3.73h-1.92V29z" transform="matrix(.4728 0 0 .4672 124.41 115.08)"/><path stroke="#494949" d="M2.89 23.83h10.1v3.73H2.9zm24.91 0h10.11v3.73H27.8z" transform="matrix(.4728 0 0 .4672 124.41 115.08)"/></g><g stroke-linecap="round" stroke-linejoin="round" stroke-width=".12"><path stroke="#000" d="M15.04 29v-1.32h-1.92v-3.73H4.93v-.48H2.41v4.21h.48v-3.73h2.04v-8.3h.97v-4.46h-.97V1.93h30.81v9.26h-.84v4.46h.84v8.3h2.17v3.73h.36v-4.21h-2.53v.48H27.8v3.73h-1.92V29z" transform="matrix(.4728 0 0 -.4672 142.216 110.795)"/><path stroke="#494949" d="M2.89 23.83h10.1v3.73H2.9zm24.91 0h10.11v3.73H27.8z" transform="matrix(.4728 0 0 -.4672 142.216 110.795)"/></g><g stroke-linecap="round" stroke-linejoin="round" stroke-width=".12"><path stroke="#000" d="M15.04 29v-1.32h-1.92v-3.73H4.93v-.48H2.41v4.21h.48v-3.73h2.04v-8.3h.97v-4.46h-.97V1.93h30.81v9.26h-.84v4.46h.84v8.3h2.17v3.73h.36v-4.21h-2.53v.48H27.8v3.73h-1.92V29z" transform="matrix(.4728 0 0 .4672 142.216 115.08)"/><path stroke="#494949" d="M2.89 23.83h10.1v3.73H2.9zm24.91 0h10.11v3.73H27.8z" transform="matrix(.4728 0 0 .4672 142.216 115.08)"/></g><g stroke-linecap="round" stroke-linejoin="round" stroke-width=".12"><path stroke="#000" d="M15.04 29v-1.32h-1.92v-3.73H4.93v-.48H2.41v4.21h.48v-3.73h2.04v-8.3h.97v-4.46h-.97V1.93h30.81v9.26h-.84v4.46h.84v8.3h2.17v3.73h.36v-4.21h-2.53v.48H27.8v3.73h-1.92V29z" transform="matrix(.4728 0 0 -.4672 160.023 110.795)"/><path stroke="#494949" d="M2.89 23.83h10.1v3.73H2.9zm24.91 0h10.11v3.73H27.8z" transform="matrix(.4728 0 0 -.4672 160.023 110.795)"/></g><g stroke-linecap="round" stroke-linejoin="round" stroke-width=".12"><path stroke="#000" d="M15.04 29v-1.32h-1.92v-3.73H4.93v-.48H2.41v4.21h.48v-3.73h2.04v-8.3h.97v-4.46h-.97V1.93h30.81v9.26h-.84v4.46h.84v8.3h2.17v3.73h.36v-4.21h-2.53v.48H27.8v3.73h-1.92V29z" transform="matrix(.4728 0 0 .4672 160.023 115.08)"/><path stroke="#494949" d="M2.89 23.83h10.1v3.73H2.9zm24.91 0h10.11v3.73H27.8z" transform="matrix(.4728 0 0 .4672 160.023 115.08)"/></g><g stroke-linecap="round" stroke-linejoin="round" stroke-width=".12"><path stroke="#000" d="M15.04 29v-1.32h-1.92v-3.73H4.93v-.48H2.41v4.21h.48v-3.73h2.04v-8.3h.97v-4.46h-.97V1.93h30.81v9.26h-.84v4.46h.84v8.3h2.17v3.73h.36v-4.21h-2.53v.48H27.8v3.73h-1.92V29z" transform="matrix(.4728 0 0 -.4672 177.83 110.795)"/><path stroke="#494949" d="M2.89 23.83h10.1v3.73H2.9zm24.91 0h10.11v3.73H27.8z" transform="matrix(.4728 0 0 -.4672 177.83 110.795)"/></g><g stroke-linecap="round" stroke-linejoin="round" stroke-width=".12"><path stroke="#000" d="M15.04 29v-1.32h-1.92v-3.73H4.93v-.48H2.41v4.21h.48v-3.73h2.04v-8.3h.97v-4.46h-.97V1.93h30.81v9.26h-.84v4.46h.84v8.3h2.17v3.73h.36v-4.21h-2.53v.48H27.8v3.73h-1.92V29z" transform="matrix(.4728 0 0 .4672 177.83 115.08)"/><path stroke="#494949" d="M2.89 23.83h10.1v3.73H2.9zm24.91 0h10.11v3.73H27.8z" transform="matrix(.4728 0 0 .4672 177.83 115.08)"/></g><g stroke-linecap="round" stroke-linejoin="round" stroke-width=".12"><path stroke="#000" d="M15.04 29v-1.32h-1.92v-3.73H4.93v-.48H2.41v4.21h.48v-3.73h2.04v-8.3h.97v-4.46h-.97V1.93h30.81v9.26h-.84v4.46h.84v8.3h2.17v3.73h.36v-4.21h-2.53v.48H27.8v3.73h-1.92V29z" transform="matrix(.4728 0 0 -.4672 195.636 110.795)"/><path stroke="#494949" d="M2.89 23.83h10.1v3.73H2.9zm24.91 0h10.11v3.73H27.8z" transform="matrix(.4728 0 0 -.4672 195.636 110.795)"/></g><g stroke-linecap="round" stroke-linejoin="round" stroke-width=".12"><path stroke="#000" d="M15.04 29v-1.32h-1.92v-3.73H4.93v-.48H2.41v4.21h.48v-3.73h2.04v-8.3h.97v-4.46h-.97V1.93h30.81v9.26h-.84v4.46h.84v8.3h2.17v3.73h.36v-4.21h-2.53v.48H27.8v3.73h-1.92V29z" transform="matrix(.4728 0 0 .4672 195.636 115.08)"/><path stroke="#494949" d="M2.89 23.83h10.1v3.73H2.9zm24.91 0h10.11v3.73H27.8z" transform="matrix(.4728 0 0 .4672 195.636 115.08)"/></g><g stroke-linecap="round" stroke-linejoin="round" stroke-width=".12"><path stroke="#000" d="M15.04 29v-1.32h-1.92v-3.73H4.93v-.48H2.41v4.21h.48v-3.73h2.04v-8.3h.97v-4.46h-.97V1.93h30.81v9.26h-.84v4.46h.84v8.3h2.17v3.73h.36v-4.21h-2.53v.48H27.8v3.73h-1.92V29z" transform="matrix(.4728 0 0 -.4672 213.442 110.795)"/><path stroke="#494949" d="M2.89 23.83h10.1v3.73H2.9zm24.91 0h10.11v3.73H27.8z" transform="matrix(.4728 0 0 -.4672 213.442 110.795)"/></g><g stroke-linecap="round" stroke-linejoin="round" stroke-width=".12"><path stroke="#000" d="M15.04 29v-1.32h-1.92v-3.73H4.93v-.48H2.41v4.21h.48v-3.73h2.04v-8.3h.97v-4.46h-.97V1.93h30.81v9.26h-.84v4.46h.84v8.3h2.17v3.73h.36v-4.21h-2.53v.48H27.8v3.73h-1.92V29z" transform="matrix(.4728 0 0 .4672 213.442 115.08)"/><path stroke="#494949" d="M2.89 23.83h10.1v3.73H2.9zm24.91 0h10.11v3.73H27.8z" transform="matrix(.4728 0 0 .4672 213.442 115.08)"/></g><g stroke-linecap="round" stroke-linejoin="round" stroke-width=".12"><path stroke="#000" d="M15.04 29v-1.32h-1.92v-3.73H4.93v-.48H2.41v4.21h.48v-3.73h2.04v-8.3h.97v-4.46h-.97V1.93h30.81v9.26h-.84v4.46h.84v8.3h2.17v3.73h.36v-4.21h-2.53v.48H27.8v3.73h-1.92V29z" transform="matrix(.4728 0 0 -.4672 233.728 110.795)"/><path stroke="#494949" d="M2.89 23.83h10.1v3.73H2.9zm24.91 0h10.11v3.73H27.8z" transform="matrix(.4728 0 0 -.4672 233.728 110.795)"/></g><g stroke-linecap="round" stroke-linejoin="round" stroke-width=".12"><path stroke="#000" d="M15.04 29v-1.32h-1.92v-3.73H4.93v-.48H2.41v4.21h.48v-3.73h2.04v-8.3h.97v-4.46h-.97V1.93h30.81v9.26h-.84v4.46h.84v8.3h2.17v3.73h.36v-4.21h-2.53v.48H27.8v3.73h-1.92V29z" transform="matrix(.4728 0 0 .4672 233.728 115.08)"/><path stroke="#494949" d="M2.89 23.83h10.1v3.73H2.9zm24.91 0h10.11v3.73H27.8z" transform="matrix(.4728 0 0 .4672 233.728 115.08)"/></g><g stroke-linecap="round" stroke-linejoin="round" stroke-width=".12"><path stroke="#000" d="M15.04 29v-1.32h-1.92v-3.73H4.93v-.48H2.41v4.21h.48v-3.73h2.04v-8.3h.97v-4.46h-.97V1.93h30.81v9.26h-.84v4.46h.84v8.3h2.17v3.73h.36v-4.21h-2.53v.48H27.8v3.73h-1.92V29z" transform="matrix(.4728 0 0 -.4672 251.76 110.795)"/><path stroke="#494949" d="M2.89 23.83h10.1v3.73H2.9zm24.91 0h10.11v3.73H27.8z" transform="matrix(.4728 0 0 -.4672 251.76 110.795)"/></g><g stroke-linecap="round" stroke-linejoin="round" stroke-width=".12"><path stroke="#000" d="M15.04 29v-1.32h-1.92v-3.73H4.93v-.48H2.41v4.21h.48v-3.73h2.04v-8.3h.97v-4.46h-.97V1.93h30.81v9.26h-.84v4.46h.84v8.3h2.17v3.73h.36v-4.21h-2.53v.48H27.8v3.73h-1.92V29z" transform="matrix(.4728 0 0 .4672 251.76 115.08)"/><path stroke="#494949" d="M2.89 23.83h10.1v3.73H2.9zm24.91 0h10.11v3.73H27.8z" transform="matrix(.4728 0 0 .4672 251.76 115.08)"/></g><g stroke-linecap="round" stroke-linejoin="round" stroke-width=".12"><path stroke="#000" d="M15.04 29v-1.32h-1.92v-3.73H4.93v-.48H2.41v4.21h.48v-3.73h2.04v-8.3h.97v-4.46h-.97V1.93h30.81v9.26h-.84v4.46h.84v8.3h2.17v3.73h.36v-4.21h-2.53v.48H27.8v3.73h-1.92V29z" transform="matrix(.4728 0 0 -.4672 269.567 110.795)"/><path stroke="#494949" d="M2.89 23.83h10.1v3.73H2.9zm24.91 0h10.11v3.73H27.8z" transform="matrix(.4728 0 0 -.4672 269.567 110.795)"/></g><g stroke-linecap="round" stroke-linejoin="round" stroke-width=".12"><path stroke="#000" d="M15.04 29v-1.32h-1.92v-3.73H4.93v-.48H2.41v4.21h.48v-3.73h2.04v-8.3h.97v-4.46h-.97V1.93h30.81v9.26h-.84v4.46h.84v8.3h2.17v3.73h.36v-4.21h-2.53v.48H27.8v3.73h-1.92V29z" transform="matrix(.4728 0 0 .4672 269.567 115.08)"/><path stroke="#494949" d="M2.89 23.83h10.1v3.73H2.9zm24.91 0h10.11v3.73H27.8z" transform="matrix(.4728 0 0 .4672 269.567 115.08)"/></g><g stroke-linecap="round" stroke-linejoin="round" stroke-width=".12"><path stroke="#000" d="M15.04 29v-1.32h-1.92v-3.73H4.93v-.48H2.41v4.21h.48v-3.73h2.04v-8.3h.97v-4.46h-.97V1.93h30.81v9.26h-.84v4.46h.84v8.3h2.17v3.73h.36v-4.21h-2.53v.48H27.8v3.73h-1.92V29z" transform="matrix(.4728 0 0 -.4672 287.374 110.795)"/><path stroke="#494949" d="M2.89 23.83h10.1v3.73H2.9zm24.91 0h10.11v3.73H27.8z" transform="matrix(.4728 0 0 -.4672 287.374 110.795)"/></g><g stroke-linecap="round" stroke-linejoin="round" stroke-width=".12"><path stroke="#000" d="M15.04 29v-1.32h-1.92v-3.73H4.93v-.48H2.41v4.21h.48v-3.73h2.04v-8.3h.97v-4.46h-.97V1.93h30.81v9.26h-.84v4.46h.84v8.3h2.17v3.73h.36v-4.21h-2.53v.48H27.8v3.73h-1.92V29z" transform="matrix(.4728 0 0 .4672 287.374 115.08)"/><path stroke="#494949" d="M2.89 23.83h10.1v3.73H2.9zm24.91 0h10.11v3.73H27.8z" transform="matrix(.4728 0 0 .4672 287.374 115.08)"/></g><g stroke-linecap="round" stroke-linejoin="round" stroke-width=".12"><path stroke="#000" d="M15.04 29v-1.32h-1.92v-3.73H4.93v-.48H2.41v4.21h.48v-3.73h2.04v-8.3h.97v-4.46h-.97V1.93h30.81v9.26h-.84v4.46h.84v8.3h2.17v3.73h.36v-4.21h-2.53v.48H27.8v3.73h-1.92V29z" transform="matrix(.4728 0 0 -.4672 305.18 110.795)"/><path stroke="#494949" d="M2.89 23.83h10.1v3.73H2.9zm24.91 0h10.11v3.73H27.8z" transform="matrix(.4728 0 0 -.4672 305.18 110.795)"/></g><g stroke-linecap="round" stroke-linejoin="round" stroke-width=".12"><path stroke="#000" d="M15.04 29v-1.32h-1.92v-3.73H4.93v-.48H2.41v4.21h.48v-3.73h2.04v-8.3h.97v-4.46h-.97V1.93h30.81v9.26h-.84v4.46h.84v8.3h2.17v3.73h.36v-4.21h-2.53v.48H27.8v3.73h-1.92V29z" transform="matrix(.4728 0 0 .4672 305.18 115.08)"/><path stroke="#494949" d="M2.89 23.83h10.1v3.73H2.9zm24.91 0h10.11v3.73H27.8z" transform="matrix(.4728 0 0 .4672 305.18 115.08)"/></g><g stroke-linecap="round" stroke-linejoin="round" stroke-width=".12"><path stroke="#000" d="M15.04 29v-1.32h-1.92v-3.73H4.93v-.48H2.41v4.21h.48v-3.73h2.04v-8.3h.97v-4.46h-.97V1.93h30.81v9.26h-.84v4.46h.84v8.3h2.17v3.73h.36v-4.21h-2.53v.48H27.8v3.73h-1.92V29z" transform="matrix(.4728 0 0 -.4672 322.987 110.795)"/><path stroke="#494949" d="M2.89 23.83h10.1v3.73H2.9zm24.91 0h10.11v3.73H27.8z" transform="matrix(.4728 0 0 -.4672 322.987 110.795)"/></g><g stroke-linecap="round" stroke-linejoin="round" stroke-width=".12"><path stroke="#000" d="M15.04 29v-1.32h-1.92v-3.73H4.93v-.48H2.41v4.21h.48v-3.73h2.04v-8.3h.97v-4.46h-.97V1.93h30.81v9.26h-.84v4.46h.84v8.3h2.17v3.73h.36v-4.21h-2.53v.48H27.8v3.73h-1.92V29z" transform="matrix(.4728 0 0 .4672 322.987 115.08)"/><path stroke="#494949" d="M2.89 23.83h10.1v3.73H2.9zm24.91 0h10.11v3.73H27.8z" transform="matrix(.4728 0 0 .4672 322.987 115.08)"/></g><g stroke-linecap="round" stroke-linejoin="round" stroke-width=".12"><path stroke="#000" d="M15.04 29v-1.32h-1.92v-3.73H4.93v-.48H2.41v4.21h.48v-3.73h2.04v-8.3h.97v-4.46h-.97V1.93h30.81v9.26h-.84v4.46h.84v8.3h2.17v3.73h.36v-4.21h-2.53v.48H27.8v3.73h-1.92V29z" transform="matrix(.4728 0 0 -.4672 340.793 110.795)"/><path stroke="#494949" d="M2.89 23.83h10.1v3.73H2.9zm24.91 0h10.11v3.73H27.8z" transform="matrix(.4728 0 0 -.4672 340.793 110.795)"/></g><g stroke-linecap="round" stroke-linejoin="round" stroke-width=".12"><path stroke="#000" d="M15.04 29v-1.32h-1.92v-3.73H4.93v-.48H2.41v4.21h.48v-3.73h2.04v-8.3h.97v-4.46h-.97V1.93h30.81v9.26h-.84v4.46h.84v8.3h2.17v3.73h.36v-4.21h-2.53v.48H27.8v3.73h-1.92V29z" transform="matrix(.4728 0 0 .4672 340.793 115.08)"/><path stroke="#494949" d="M2.89 23.83h10.1v3.73H2.9zm24.91 0h10.11v3.73H27.8z" transform="matrix(.4728 0 0 .4672 340.793 115.08)"/></g><g stroke-linecap="round" stroke-linejoin="round" stroke-width=".12"><path stroke="#000" d="M15.04 29v-1.32h-1.92v-3.73H4.93v-.48H2.41v4.21h.48v-3.73h2.04v-8.3h.97v-4.46h-.97V1.93h30.81v9.26h-.84v4.46h.84v8.3h2.17v3.73h.36v-4.21h-2.53v.48H27.8v3.73h-1.92V29z" transform="matrix(.4728 0 0 -.4672 358.6 110.795)"/><path stroke="#494949" d="M2.89 23.83h10.1v3.73H2.9zm24.91 0h10.11v3.73H27.8z" transform="matrix(.4728 0 0 -.4672 358.6 110.795)"/></g><g stroke-linecap="round" stroke-linejoin="round" stroke-width=".12"><path stroke="#000" d="M15.04 29v-1.32h-1.92v-3.73H4.93v-.48H2.41v4.21h.48v-3.73h2.04v-8.3h.97v-4.46h-.97V1.93h30.81v9.26h-.84v4.46h.84v8.3h2.17v3.73h.36v-4.21h-2.53v.48H27.8v3.73h-1.92V29z" transform="matrix(.4728 0 0 .4672 358.6 115.08)"/><path stroke="#494949" d="M2.89 23.83h10.1v3.73H2.9zm24.91 0h10.11v3.73H27.8z" transform="matrix(.4728 0 0 .4672 358.6 115.08)"/></g><path fill="none" stroke="#000" stroke-linecap="round" stroke-linejoin="round" stroke-width=".12" d="M36.23 24.07H2.16V.97h34.05z" transform="matrix(.4712 0 0 .464 379.68 97.786)"/><path fill="none" stroke="#000" stroke-linecap="round" stroke-linejoin="round" stroke-width=".12" d="M36.23 24.07H2.16V.97h34.05z" transform="matrix(.4712 0 0 .464 379.68 116.49)"/><path fill="none" stroke="#000" stroke-linecap="round" stroke-linejoin="round" stroke-width=".12" d="M36.23 24.07H2.16V.97h34.05z" transform="matrix(.4712 0 0 .464 396.134 97.786)"/><path fill="none" stroke="#000" stroke-linecap="round" stroke-linejoin="round" stroke-width=".12" d="M36.23 24.07H2.16V.97h34.05z" transform="matrix(.4712 0 0 .464 396.134 116.49)"/><path fill="none" stroke="#000" stroke-linecap="round" stroke-linejoin="round" stroke-width=".12" d="M36.23 24.07H2.16V.97h34.05z" transform="matrix(.4712 0 0 .464 412.814 97.786)"/><path fill="none" stroke="#000" stroke-linecap="round" stroke-linejoin="round" stroke-width=".12" d="M36.23 24.07H2.16V.97h34.05z" transform="matrix(.4712 0 0 .464 412.814 116.49)"/><path fill="none" stroke="#000" stroke-linecap="round" stroke-linejoin="round" stroke-width=".12" d="M36.23 24.07H2.16V.97h34.05z" transform="matrix(.4712 0 0 .464 429.268 97.786)"/><path fill="none" stroke="#000" stroke-linecap="round" stroke-linejoin="round" stroke-width=".12" d="M36.23 24.07H2.16V.97h34.05z" transform="matrix(.4712 0 0 .464 429.268 116.49)"/><path fill="none" stroke="#000" stroke-linecap="round" stroke-linejoin="round" stroke-width=".12" d="M36.23 24.07H2.16V.97h34.05z" transform="matrix(.4712 0 0 .464 449.328 97.786)"/><path fill="none" stroke="#000" stroke-linecap="round" stroke-linejoin="round" stroke-width=".12" d="M36.23 24.07H2.16V.97h34.05z" transform="matrix(.4712 0 0 .464 449.328 116.49)"/><g stroke-linecap="round" stroke-linejoin="round" stroke-width=".12" transform="matrix(0 -.4696 .4712 0 493.668 113.958)"><path fill="#999974" stroke="#000" d="M36.7 26.6H4.34V4.8h32.38z"/><path fill="#ccccb9" stroke="#7f7f7f" d="M36.1 6.74v-.6l-.36-.48-.48-.24-.6-.12H6.38l-.6.12-.48.24-.36.48v19.13l.36.36.48.36.6.12h28.28l.6-.12.48-.36.36-.36z"/><path fill="#938476" stroke="#000" d="M6.74 24.67v-13h1.2v-1.32h-1.2V8.18h2.4V5.9h7.83v2.28h2.4v2.17H18.3v1.32h1.09v13z"/><path fill="#938476" stroke="#000" d="M6.74 9.27V8.18h2.4v-2.4h7.83v2.4h2.4v1.09z"/><path fill="#706257" stroke="#000" d="M6.74 9.27v.6h12.64v-.6z"/><path fill="none" stroke="#000" d="M6.74 14.92h12.52"/><path fill="#a09183" stroke="#000" d="m17.57 24.67.12-.12.24-.24.24-.36.12-.24.12-.24.24-.24.12-.24.12-.36.13-.24v-.37l.12-.24.12-.24v-.96l.12-.24-.12-.36v-.96l-.12-.24-.13-.25v-.36l-.12-.24-.12-.36-.12-.24-.24-.24-.12-.24-.12-.36-.24-.24-.24-.24-.12-.24-.24-.12-.24-.24-.24-.25-.36-.12-.24-.12-.24-.24-.24-.12-.36-.12-.25-.12h-.24l-.36-.12-.24-.12h-.96l-.24-.12-.36.12h-.97l-.24.12-.24.12h-.36l-.24.12-.36.12-.24.12-.24.24-.24.12-.24.12-.36.25-.24.24-.12.12-.25.24-.24.24-.24.24-.12.36-.12.24-.24.24-.12.24-.12.36-.12.24v.36l-.12.24-.12.24v.97l-.12.36.12.24v.96l.12.24.12.24v.36l.12.24.12.37.12.24.24.24.12.24.12.24.24.36.24.24.25.12z"/><ellipse cx="13" cy="20.16" fill="none" stroke="#494949" rx="2.89" ry="2.83"/><circle cx="13" cy="20.1" r="1.93" fill="#706257" stroke="#000"/><circle cx="13" cy="20.1" r="1.8" fill="#9b8c81" stroke="#000"/><path fill="#4f443c" stroke="#000" d="M12.76 18.41h.6v3.73h-.6z"/><path fill="#938476" stroke="#000" d="M21.3 24.67v-13h.96v-1.32h-.96V8.18h2.17V5.9h7.82v2.28h2.4v2.17h-.95v1.32h.96v13z"/><path fill="#938476" stroke="#000" d="M21.3 9.27V8.18h2.17v-2.4h7.82v2.4h2.4v1.09z"/><path fill="#706257" stroke="#000" d="M21.3 9.27v.6h12.4v-.6z"/><path fill="none" stroke="#000" d="M21.3 14.92h12.4"/><path fill="#a09183" stroke="#000" d="m31.9 24.67.23-.12.24-.24.24-.36.12-.24.13-.24.24-.24.12-.24.12-.36.12-.24v-.37l.12-.24.12-.24v-2.52l-.12-.24-.12-.25v-.36l-.12-.24-.12-.36-.12-.24-.24-.24-.12-.24-.12-.36-.25-.24-.24-.24-.24-.24-.12-.12-.24-.24-.24-.25-.36-.12-.24-.12-.24-.24-.24-.12-.36-.12-.24-.12h-.36L29 14.2l-.24-.12h-.96l-.36-.12-.24.12h-.96l-.24.12-.37.12h-.24l-.24.12-.36.12-.24.12-.24.24-.24.12-.36.12-.24.25-.24.24-.12.12-.24.24-.24.24-.24.24-.12.36-.12.24-.25.24-.12.24-.12.36-.12.24v.36l-.12.24-.12.25v2.52l.12.24.12.24v.37l.12.23.12.37.12.24.24.24.12.24.12.24.25.36.24.24.24.12z"/><circle cx="27.38" cy="20.16" r="2.83" fill="none" stroke="#494949"/><ellipse cx="27.38" cy="20.1" fill="#706257" stroke="#000" rx="1.99" ry="1.93"/><circle cx="27.32" cy="20.1" r="1.8" fill="#9b8c81" stroke="#000"/><path fill="#4f443c" stroke="#000" d="M27.2 18.41h.6v3.73h-.6z"/></g><g stroke-linecap="round" stroke-linejoin="round" stroke-width=".12" transform="matrix(0 -.4696 .4712 0 493.668 130.634)"><path fill="#999974" stroke="#000" d="M36.7 26.6H4.34V4.8h32.38z"/><path fill="#ccccb9" stroke="#7f7f7f" d="M36.1 6.74v-.6l-.36-.48-.48-.24-.6-.12H6.38l-.6.12-.48.24-.36.48v19.13l.36.36.48.36.6.12h28.28l.6-.12.48-.36.36-.36z"/><path fill="#938476" stroke="#000" d="M6.74 24.67v-13h1.2v-1.32h-1.2V8.18h2.4V5.9h7.83v2.28h2.4v2.17H18.3v1.32h1.09v13z"/><path fill="#938476" stroke="#000" d="M6.74 9.27V8.18h2.4v-2.4h7.83v2.4h2.4v1.09z"/><path fill="#706257" stroke="#000" d="M6.74 9.27v.6h12.64v-.6z"/><path fill="none" stroke="#000" d="M6.74 14.92h12.52"/><path fill="#a09183" stroke="#000" d="m17.57 24.67.12-.12.24-.24.24-.36.12-.24.12-.24.24-.24.12-.24.12-.36.13-.24v-.37l.12-.24.12-.24v-.96l.12-.24-.12-.36v-.96l-.12-.24-.13-.25v-.36l-.12-.24-.12-.36-.12-.24-.24-.24-.12-.24-.12-.36-.24-.24-.24-.24-.12-.24-.24-.12-.24-.24-.24-.25-.36-.12-.24-.12-.24-.24-.24-.12-.36-.12-.25-.12h-.24l-.36-.12-.24-.12h-.96l-.24-.12-.36.12h-.97l-.24.12-.24.12h-.36l-.24.12-.36.12-.24.12-.24.24-.24.12-.24.12-.36.25-.24.24-.12.12-.25.24-.24.24-.24.24-.12.36-.12.24-.24.24-.12.24-.12.36-.12.24v.36l-.12.24-.12.24v.97l-.12.36.12.24v.96l.12.24.12.24v.36l.12.24.12.37.12.24.24.24.12.24.12.24.24.36.24.24.25.12z"/><ellipse cx="13" cy="20.16" fill="none" stroke="#494949" rx="2.89" ry="2.83"/><circle cx="13" cy="20.1" r="1.93" fill="#706257" stroke="#000"/><circle cx="13" cy="20.1" r="1.8" fill="#9b8c81" stroke="#000"/><path fill="#4f443c" stroke="#000" d="M12.76 18.41h.6v3.73h-.6z"/><path fill="#938476" stroke="#000" d="M21.3 24.67v-13h.96v-1.32h-.96V8.18h2.17V5.9h7.82v2.28h2.4v2.17h-.95v1.32h.96v13z"/><path fill="#938476" stroke="#000" d="M21.3 9.27V8.18h2.17v-2.4h7.82v2.4h2.4v1.09z"/><path fill="#706257" stroke="#000" d="M21.3 9.27v.6h12.4v-.6z"/><path fill="none" stroke="#000" d="M21.3 14.92h12.4"/><path fill="#a09183" stroke="#000" d="m31.9 24.67.23-.12.24-.24.24-.36.12-.24.13-.24.24-.24.12-.24.12-.36.12-.24v-.37l.12-.24.12-.24v-2.52l-.12-.24-.12-.25v-.36l-.12-.24-.12-.36-.12-.24-.24-.24-.12-.24-.12-.36-.25-.24-.24-.24-.24-.24-.12-.12-.24-.24-.24-.25-.36-.12-.24-.12-.24-.24-.24-.12-.36-.12-.24-.12h-.36L29 14.2l-.24-.12h-.96l-.36-.12-.24.12h-.96l-.24.12-.37.12h-.24l-.24.12-.36.12-.24.12-.24.24-.24.12-.36.12-.24.25-.24.24-.12.12-.24.24-.24.24-.24.24-.12.36-.12.24-.25.24-.12.24-.12.36-.12.24v.36l-.12.24-.12.25v2.52l.12.24.12.24v.37l.12.23.12.37.12.24.24.24.12.24.12.24.25.36.24.24.24.12z"/><circle cx="27.38" cy="20.16" r="2.83" fill="none" stroke="#494949"/><ellipse cx="27.38" cy="20.1" fill="#706257" stroke="#000" rx="1.99" ry="1.93"/><circle cx="27.32" cy="20.1" r="1.8" fill="#9b8c81" stroke="#000"/><path fill="#4f443c" stroke="#000" d="M27.2 18.41h.6v3.73h-.6z"/></g><path fill="#83ff00" stroke="#000" stroke-linecap="round" stroke-linejoin="round" stroke-width=".12" d="M6.62 7.22h6.86v2.89H6.62z" transform="matrix(.4644 0 0 .4632 67.476 95.002)"/><path fill="#83ff00" stroke="#000" stroke-linecap="round" stroke-linejoin="round" stroke-width=".12" d="M6.62 7.22h6.86v2.89H6.62z" transform="matrix(.4644 0 0 .4632 78.746 95.002)"/><path fill="#83ff00" stroke="#000" stroke-linecap="round" stroke-linejoin="round" stroke-width=".12" d="M6.62 7.22h6.86v2.89H6.62z" transform="matrix(.4644 0 0 .4632 88.212 95.002)"/><path fill="#83ff00" stroke="#000" stroke-linecap="round" stroke-linejoin="round" stroke-width=".12" d="M6.62 7.22h6.86v2.89H6.62z" transform="matrix(.4644 0 0 .4632 99.482 95.002)"/><path fill="#83ff00" stroke="#000" stroke-linecap="round" stroke-linejoin="round" stroke-width=".12" d="M6.62 7.22h6.86v2.89H6.62z" transform="matrix(.4644 0 0 .4632 106.244 95.002)"/><path fill="#83ff00" stroke="#000" stroke-linecap="round" stroke-linejoin="round" stroke-width=".12" d="M6.62 7.22h6.86v2.89H6.62z" transform="matrix(.4644 0 0 .4632 117.514 95.002)"/><path fill="#83ff00" stroke="#000" stroke-linecap="round" stroke-linejoin="round" stroke-width=".12" d="M6.62 7.22h6.86v2.89H6.62z" transform="matrix(.4644 0 0 .4632 124.05 95.002)"/><path fill="#83ff00" stroke="#000" stroke-linecap="round" stroke-linejoin="round" stroke-width=".12" d="M6.62 7.22h6.86v2.89H6.62z" transform="matrix(.4644 0 0 .4632 135.32 95.002)"/><path fill="#83ff00" stroke="#000" stroke-linecap="round" stroke-linejoin="round" stroke-width=".12" d="M6.62 7.22h6.86v2.89H6.62z" transform="matrix(.4644 0 0 .4632 141.858 95.002)"/><path fill="#83ff00" stroke="#000" stroke-linecap="round" stroke-linejoin="round" stroke-width=".12" d="M6.62 7.22h6.86v2.89H6.62z" transform="matrix(.4644 0 0 .4632 153.128 95.002)"/><path fill="#83ff00" stroke="#000" stroke-linecap="round" stroke-linejoin="round" stroke-width=".12" d="M6.62 7.22h6.86v2.89H6.62z" transform="matrix(.4644 0 0 .4632 159.664 95.002)"/><path fill="#83ff00" stroke="#000" stroke-linecap="round" stroke-linejoin="round" stroke-width=".12" d="M6.62 7.22h6.86v2.89H6.62z" transform="matrix(.4644 0 0 .4632 170.934 95.002)"/><path fill="#83ff00" stroke="#000" stroke-linecap="round" stroke-linejoin="round" stroke-width=".12" d="M6.62 7.22h6.86v2.89H6.62z" transform="matrix(.4644 0 0 .4632 177.47 95.002)"/><path fill="#83ff00" stroke="#000" stroke-linecap="round" stroke-linejoin="round" stroke-width=".12" d="M6.62 7.22h6.86v2.89H6.62z" transform="matrix(.4644 0 0 .4632 188.74 95.002)"/><path fill="#83ff00" stroke="#000" stroke-linecap="round" stroke-linejoin="round" stroke-width=".12" d="M6.62 7.22h6.86v2.89H6.62z" transform="matrix(.4644 0 0 .4632 195.277 95.002)"/><path fill="#83ff00" stroke="#000" stroke-linecap="round" stroke-linejoin="round" stroke-width=".12" d="M6.62 7.22h6.86v2.89H6.62z" transform="matrix(.4644 0 0 .4632 206.547 95.002)"/><path fill="#83ff00" stroke="#000" stroke-linecap="round" stroke-linejoin="round" stroke-width=".12" d="M6.62 7.22h6.86v2.89H6.62z" transform="matrix(.4644 0 0 .4632 213.084 95.002)"/><path fill="#83ff00" stroke="#000" stroke-linecap="round" stroke-linejoin="round" stroke-width=".12" d="M6.62 7.22h6.86v2.89H6.62z" transform="matrix(.4644 0 0 .4632 224.354 95.002)"/><path fill="#83ff00" stroke="#000" stroke-linecap="round" stroke-linejoin="round" stroke-width=".12" d="M6.62 7.22h6.86v2.89H6.62z" transform="matrix(.4644 0 0 .4632 233.37 95.002)"/><path fill="#83ff00" stroke="#000" stroke-linecap="round" stroke-linejoin="round" stroke-width=".12" d="M6.62 7.22h6.86v2.89H6.62z" transform="matrix(.4644 0 0 .4632 244.64 95.002)"/><path fill="#83ff00" stroke="#000" stroke-linecap="round" stroke-linejoin="round" stroke-width=".12" d="M6.62 7.22h6.86v2.89H6.62z" transform="matrix(.4644 0 0 .4632 251.402 95.002)"/><path fill="#83ff00" stroke="#000" stroke-linecap="round" stroke-linejoin="round" stroke-width=".12" d="M6.62 7.22h6.86v2.89H6.62z" transform="matrix(.4644 0 0 .4632 262.672 95.002)"/><path fill="#83ff00" stroke="#000" stroke-linecap="round" stroke-linejoin="round" stroke-width=".12" d="M6.62 7.22h6.86v2.89H6.62z" transform="matrix(.4644 0 0 .4632 269.208 95.002)"/><path fill="#83ff00" stroke="#000" stroke-linecap="round" stroke-linejoin="round" stroke-width=".12" d="M6.62 7.22h6.86v2.89H6.62z" transform="matrix(.4644 0 0 .4632 280.478 95.002)"/><path fill="#83ff00" stroke="#000" stroke-linecap="round" stroke-linejoin="round" stroke-width=".12" d="M6.62 7.22h6.86v2.89H6.62z" transform="matrix(.4644 0 0 .4632 287.015 95.002)"/><path fill="#83ff00" stroke="#000" stroke-linecap="round" stroke-linejoin="round" stroke-width=".12" d="M6.62 7.22h6.86v2.89H6.62z" transform="matrix(.4644 0 0 .4632 298.285 95.002)"/><path fill="#83ff00" stroke="#000" stroke-linecap="round" stroke-linejoin="round" stroke-width=".12" d="M6.62 7.22h6.86v2.89H6.62z" transform="matrix(.4644 0 0 .4632 304.822 95.002)"/><path fill="#83ff00" stroke="#000" stroke-linecap="round" stroke-linejoin="round" stroke-width=".12" d="M6.62 7.22h6.86v2.89H6.62z" transform="matrix(.4644 0 0 .4632 316.092 95.002)"/><path fill="#83ff00" stroke="#000" stroke-linecap="round" stroke-linejoin="round" stroke-width=".12" d="M6.62 7.22h6.86v2.89H6.62z" transform="matrix(.4644 0 0 .4632 322.628 95.002)"/><path fill="#83ff00" stroke="#000" stroke-linecap="round" stroke-linejoin="round" stroke-width=".12" d="M6.62 7.22h6.86v2.89H6.62z" transform="matrix(.4644 0 0 .4632 333.898 95.002)"/><path fill="#83ff00" stroke="#000" stroke-linecap="round" stroke-linejoin="round" stroke-width=".12" d="M6.62 7.22h6.86v2.89H6.62z" transform="matrix(.4644 0 0 .4632 340.435 95.002)"/><path fill="#83ff00" stroke="#000" stroke-linecap="round" stroke-linejoin="round" stroke-width=".12" d="M6.62 7.22h6.86v2.89H6.62z" transform="matrix(.4644 0 0 .4632 351.705 95.002)"/><path fill="#83ff00" stroke="#000" stroke-linecap="round" stroke-linejoin="round" stroke-width=".12" d="M6.62 7.22h6.86v2.89H6.62z" transform="matrix(.4644 0 0 .4632 358.242 95.002)"/><path fill="#83ff00" stroke="#000" stroke-linecap="round" stroke-linejoin="round" stroke-width=".12" d="M6.62 7.22h6.86v2.89H6.62z" transform="matrix(.4644 0 0 .4632 369.512 95.002)"/><path fill="#83ff00" stroke="#000" stroke-linecap="round" stroke-linejoin="round" stroke-width=".12" d="M6.62 7.22h6.86v2.89H6.62z" transform="matrix(.4644 0 0 .4632 67.476 122.946)"/><path fill="#83ff00" stroke="#000" stroke-linecap="round" stroke-linejoin="round" stroke-width=".12" d="M6.62 7.22h6.86v2.89H6.62z" transform="matrix(.4644 0 0 .4632 78.746 122.946)"/><path fill="#83ff00" stroke="#000" stroke-linecap="round" stroke-linejoin="round" stroke-width=".12" d="M6.62 7.22h6.86v2.89H6.62z" transform="matrix(.4644 0 0 .4632 88.212 122.946)"/><path fill="#83ff00" stroke="#000" stroke-linecap="round" stroke-linejoin="round" stroke-width=".12" d="M6.62 7.22h6.86v2.89H6.62z" transform="matrix(.4644 0 0 .4632 99.482 122.946)"/><path fill="#83ff00" stroke="#000" stroke-linecap="round" stroke-linejoin="round" stroke-width=".12" d="M6.62 7.22h6.86v2.89H6.62z" transform="matrix(.4644 0 0 .4632 106.244 122.946)"/><path fill="#83ff00" stroke="#000" stroke-linecap="round" stroke-linejoin="round" stroke-width=".12" d="M6.62 7.22h6.86v2.89H6.62z" transform="matrix(.4644 0 0 .4632 117.514 122.946)"/><path fill="#83ff00" stroke="#000" stroke-linecap="round" stroke-linejoin="round" stroke-width=".12" d="M6.62 7.22h6.86v2.89H6.62z" transform="matrix(.4644 0 0 .4632 124.05 122.946)"/><path fill="#83ff00" stroke="#000" stroke-linecap="round" stroke-linejoin="round" stroke-width=".12" d="M6.62 7.22h6.86v2.89H6.62z" transform="matrix(.4644 0 0 .4632 135.32 122.946)"/><path fill="#83ff00" stroke="#000" stroke-linecap="round" stroke-linejoin="round" stroke-width=".12" d="M6.62 7.22h6.86v2.89H6.62z" transform="matrix(.4644 0 0 .4632 141.858 122.946)"/><path fill="#83ff00" stroke="#000" stroke-linecap="round" stroke-linejoin="round" stroke-width=".12" d="M6.62 7.22h6.86v2.89H6.62z" transform="matrix(.4644 0 0 .4632 153.128 122.946)"/><path fill="#83ff00" stroke="#000" stroke-linecap="round" stroke-linejoin="round" stroke-width=".12" d="M6.62 7.22h6.86v2.89H6.62z" transform="matrix(.4644 0 0 .4632 159.664 122.946)"/><path fill="#83ff00" stroke="#000" stroke-linecap="round" stroke-linejoin="round" stroke-width=".12" d="M6.62 7.22h6.86v2.89H6.62z" transform="matrix(.4644 0 0 .4632 170.934 122.946)"/><path fill="#83ff00" stroke="#000" stroke-linecap="round" stroke-linejoin="round" stroke-width=".12" d="M6.62 7.22h6.86v2.89H6.62z" transform="matrix(.4644 0 0 .4632 177.47 122.946)"/><path fill="#83ff00" stroke="#000" stroke-linecap="round" stroke-linejoin="round" stroke-width=".12" d="M6.62 7.22h6.86v2.89H6.62z" transform="matrix(.4644 0 0 .4632 188.74 122.946)"/><path fill="#83ff00" stroke="#000" stroke-linecap="round" stroke-linejoin="round" stroke-width=".12" d="M6.62 7.22h6.86v2.89H6.62z" transform="matrix(.4644 0 0 .4632 195.277 122.946)"/><path fill="#83ff00" stroke="#000" stroke-linecap="round" stroke-linejoin="round" stroke-width=".12" d="M6.62 7.22h6.86v2.89H6.62z" transform="matrix(.4644 0 0 .4632 206.547 122.946)"/><path fill="#83ff00" stroke="#000" stroke-linecap="round" stroke-linejoin="round" stroke-width=".12" d="M6.62 7.22h6.86v2.89H6.62z" transform="matrix(.4644 0 0 .4632 213.084 122.946)"/><path fill="#83ff00" stroke="#000" stroke-linecap="round" stroke-linejoin="round" stroke-width=".12" d="M6.62 7.22h6.86v2.89H6.62z" transform="matrix(.4644 0 0 .4632 224.354 122.946)"/><path fill="#83ff00" stroke="#000" stroke-linecap="round" stroke-linejoin="round" stroke-width=".12" d="M6.62 7.22h6.86v2.89H6.62z" transform="matrix(.4644 0 0 .4632 233.37 122.946)"/><path fill="#83ff00" stroke="#000" stroke-linecap="round" stroke-linejoin="round" stroke-width=".12" d="M6.62 7.22h6.86v2.89H6.62z" transform="matrix(.4644 0 0 .4632 244.64 122.946)"/><path fill="#83ff00" stroke="#000" stroke-linecap="round" stroke-linejoin="round" stroke-width=".12" d="M6.62 7.22h6.86v2.89H6.62z" transform="matrix(.4644 0 0 .4632 251.402 122.946)"/><path fill="#83ff00" stroke="#000" stroke-linecap="round" stroke-linejoin="round" stroke-width=".12" d="M6.62 7.22h6.86v2.89H6.62z" transform="matrix(.4644 0 0 .4632 262.672 122.946)"/><path fill="#83ff00" stroke="#000" stroke-linecap="round" stroke-linejoin="round" stroke-width=".12" d="M6.62 7.22h6.86v2.89H6.62z" transform="matrix(.4644 0 0 .4632 269.208 122.946)"/><path fill="#83ff00" stroke="#000" stroke-linecap="round" stroke-linejoin="round" stroke-width=".12" d="M6.62 7.22h6.86v2.89H6.62z" transform="matrix(.4644 0 0 .4632 280.478 122.946)"/><path fill="#83ff00" stroke="#000" stroke-linecap="round" stroke-linejoin="round" stroke-width=".12" d="M6.62 7.22h6.86v2.89H6.62z" transform="matrix(.4644 0 0 .4632 287.015 122.946)"/><path fill="#83ff00" stroke="#000" stroke-linecap="round" stroke-linejoin="round" stroke-width=".12" d="M6.62 7.22h6.86v2.89H6.62z" transform="matrix(.4644 0 0 .4632 298.285 122.946)"/><path fill="#83ff00" stroke="#000" stroke-linecap="round" stroke-linejoin="round" stroke-width=".12" d="M6.62 7.22h6.86v2.89H6.62z" transform="matrix(.4644 0 0 .4632 304.822 122.946)"/><path fill="#83ff00" stroke="#000" stroke-linecap="round" stroke-linejoin="round" stroke-width=".12" d="M6.62 7.22h6.86v2.89H6.62z" transform="matrix(.4644 0 0 .4632 316.092 122.946)"/><path fill="#83ff00" stroke="#000" stroke-linecap="round" stroke-linejoin="round" stroke-width=".12" d="M6.62 7.22h6.86v2.89H6.62z" transform="matrix(.4644 0 0 .4632 322.628 122.946)"/><path fill="#83ff00" stroke="#000" stroke-linecap="round" stroke-linejoin="round" stroke-width=".12" d="M6.62 7.22h6.86v2.89H6.62z" transform="matrix(.4644 0 0 .4632 333.898 122.946)"/><path fill="#83ff00" stroke="#000" stroke-linecap="round" stroke-linejoin="round" stroke-width=".12" d="M6.62 7.22h6.86v2.89H6.62z" transform="matrix(.4644 0 0 .4632 340.435 122.946)"/><path fill="#83ff00" stroke="#000" stroke-linecap="round" stroke-linejoin="round" stroke-width=".12" d="M6.62 7.22h6.86v2.89H6.62z" transform="matrix(.4644 0 0 .4632 351.705 122.946)"/><path fill="#83ff00" stroke="#000" stroke-linecap="round" stroke-linejoin="round" stroke-width=".12" d="M6.62 7.22h6.86v2.89H6.62z" transform="matrix(.4644 0 0 .4632 358.242 122.946)"/><path fill="#83ff00" stroke="#000" stroke-linecap="round" stroke-linejoin="round" stroke-width=".12" d="M6.62 7.22h6.86v2.89H6.62z" transform="matrix(.4644 0 0 .4632 369.512 122.946)"/></svg>