<svg xmlns="http://www.w3.org/2000/svg" xmlns:xlink="http://www.w3.org/1999/xlink" version="1.1" width="7.6000000000" height="4.0000000000" viewBox="0 0 136.8000 72.0000">
  <title><![CDATA[FG-300C]]></title>
  <g transform=" scale(4.000000) ">
    <!--converted by libvisio2svg-->
    <g transform=" translate(0.000000,23.385800) ">
      <!--emf-blob start-->
      <g transform="translate(-0.0000, -0.0000)">
        <path d="M 16.1712,1.7194 L 16.1712,2.7648 L 17.1482,2.7648 " stroke="#000000" stroke-width="0.1200" stroke-linecap="round" stroke-linejoin="round" fill="none"/>
        <path d="M 17.1482,1.7194 L 19.0764,1.7194 " stroke="#000000" stroke-width="0.1200" stroke-linecap="round" stroke-linejoin="round" fill="none"/>
        <path d="M 18.0995,1.7194 L 18.0995,2.7648 " stroke="#000000" stroke-width="0.1200" stroke-linecap="round" stroke-linejoin="round" fill="none"/>
        <path d="M 19.5649,1.7194 L 19.5649,2.7648 " stroke="#000000" stroke-width="0.1200" stroke-linecap="round" stroke-linejoin="round" fill="none"/>
        <path d="M 19.5649,1.7194 L 19.5649,2.7648 " stroke="#000000" stroke-width="0.1200" stroke-linecap="round" stroke-linejoin="round" fill="none"/>
        <path d="M 20.5161,2.7648 L 20.5161,1.7194 L 21.4931,2.7648 L 22.4701,1.7194 L 22.4701,2.7648 " stroke="#000000" stroke-width="0.1200" stroke-linecap="round" stroke-linejoin="round" fill="none"/>
        <path d="M 22.9328,2.7648 L 23.9098,1.7194 L 24.8868,2.7648 " stroke="#000000" stroke-width="0.1200" stroke-linecap="round" stroke-linejoin="round" fill="none"/>
        <path d="M 23.1899,2.5035 L 24.6297,2.5035 " stroke="#000000" stroke-width="0.1200" stroke-linecap="round" stroke-linejoin="round" fill="none"/>
        <path d="M 13.2661,2.7648 L 14.2430,1.7194 L 15.2200,2.7648 " stroke="#000000" stroke-width="0.1200" stroke-linecap="round" stroke-linejoin="round" fill="none"/>
        <path d="M 13.5232,2.5035 L 14.9629,2.5035 " stroke="#000000" stroke-width="0.1200" stroke-linecap="round" stroke-linejoin="round" fill="none"/>
        <path d="M 136.7438,0.0281 L 0.0281,0.0281 L 0.0281,12.5439 L 136.7438,12.5439 L 136.7438,0.0281 Z" stroke="#000000" stroke-width="0.1200" stroke-linecap="round" stroke-linejoin="round" fill="#BFBFBF"/>
        <path d="M 130.4451,0.0281 L 6.3268,0.0281 L 6.3268,12.5439 L 130.4451,12.5439 L 130.4451,0.0281 Z" stroke="#000000" stroke-width="0.1200" stroke-linecap="round" stroke-linejoin="round" fill="#EFEFEF"/>
        <path d="M 135.7034,1.7258 L 135.7034,1.6276 L 135.6893,1.5294 L 135.6612,1.4312 L 135.6331,1.3470 L 135.5909,1.2488 L 135.5346,1.1786 L 135.4784,1.0944 L 135.4222,1.0243 L 135.3519,0.9682 L 135.2675,0.9120 L 135.1972,0.8559 L 135.0988,0.8138 L 135.0144,0.7857 L 134.9160,0.7577 L 134.8176,0.7437 L 132.7087,0.7437 L 132.6102,0.7577 L 132.5118,0.7857 L 132.4275,0.8138 L 132.3290,0.8559 L 132.2587,0.9120 L 132.1744,0.9682 L 132.1041,1.0243 L 132.0479,1.0944 L 131.9916,1.1786 L 131.9354,1.2488 L 131.8932,1.3470 L 131.8651,1.4312 L 131.8370,1.5294 L 131.8229,1.6276 L 131.8229,1.8381 L 131.8370,1.9363 L 131.8651,2.0345 L 131.8932,2.1187 L 131.9354,2.2169 L 131.9916,2.2871 L 132.0479,2.3713 L 132.1041,2.4414 L 132.1744,2.4976 L 132.2587,2.5537 L 132.3290,2.6098 L 132.4275,2.6519 L 132.5118,2.6800 L 132.6102,2.7080 L 132.7087,2.7220 L 134.8176,2.7220 L 134.9160,2.7080 L 135.0144,2.6800 L 135.0988,2.6519 L 135.1972,2.6098 L 135.2675,2.5537 L 135.3519,2.4976 L 135.4222,2.4414 L 135.4784,2.3713 L 135.5346,2.2871 L 135.5909,2.2169 L 135.6331,2.1187 L 135.6612,2.0345 L 135.6893,1.9363 L 135.7034,1.8381 L 135.7034,1.7399 L 135.7034,1.7258 Z" stroke="#000000" stroke-width="0.1200" stroke-linecap="round" stroke-linejoin="round" fill="#FFFFFF"/>
        <path d="M 135.7034,10.8461 L 135.7034,10.7479 L 135.6893,10.6497 L 135.6612,10.5514 L 135.6331,10.4673 L 135.5909,10.3690 L 135.5346,10.2989 L 135.4784,10.2147 L 135.4222,10.1445 L 135.3519,10.0884 L 135.2675,10.0323 L 135.1972,9.9762 L 135.0988,9.9341 L 135.0144,9.9060 L 134.9160,9.8780 L 134.8176,9.8639 L 132.7087,9.8639 L 132.6102,9.8780 L 132.5118,9.9060 L 132.4275,9.9341 L 132.3290,9.9762 L 132.2587,10.0323 L 132.1744,10.0884 L 132.1041,10.1445 L 132.0479,10.2147 L 131.9916,10.2989 L 131.9354,10.3690 L 131.8932,10.4673 L 131.8651,10.5514 L 131.8370,10.6497 L 131.8229,10.7479 L 131.8229,10.9584 L 131.8370,11.0566 L 131.8651,11.1548 L 131.8932,11.2390 L 131.9354,11.3372 L 131.9916,11.4073 L 132.0479,11.4915 L 132.1041,11.5617 L 132.1744,11.6178 L 132.2587,11.6739 L 132.3290,11.7301 L 132.4275,11.7722 L 132.5118,11.8002 L 132.6102,11.8283 L 132.7087,11.8423 L 134.8176,11.8423 L 134.9160,11.8283 L 135.0144,11.8002 L 135.0988,11.7722 L 135.1972,11.7301 L 135.2675,11.6739 L 135.3519,11.6178 L 135.4222,11.5617 L 135.4784,11.4915 L 135.5346,11.4073 L 135.5909,11.3372 L 135.6331,11.2390 L 135.6612,11.1548 L 135.6893,11.0566 L 135.7034,10.9584 L 135.7034,10.8601 L 135.7034,10.8461 Z" stroke="#000000" stroke-width="0.1200" stroke-linecap="round" stroke-linejoin="round" fill="#FFFFFF"/>
        <path d="M 4.9490,1.7258 L 4.9490,1.6276 L 4.9349,1.5294 L 4.9068,1.4312 L 4.8787,1.3470 L 4.8365,1.2488 L 4.7803,1.1786 L 4.7240,1.0944 L 4.6678,1.0243 L 4.5975,0.9682 L 4.5131,0.9120 L 4.4428,0.8559 L 4.3444,0.8138 L 4.2601,0.7857 L 4.1616,0.7577 L 4.0632,0.7437 L 1.9543,0.7437 L 1.8559,0.7577 L 1.7575,0.7857 L 1.6731,0.8138 L 1.5747,0.8559 L 1.5044,0.9120 L 1.4200,0.9682 L 1.3497,1.0243 L 1.2935,1.0944 L 1.2372,1.1786 L 1.1810,1.2488 L 1.1388,1.3470 L 1.1107,1.4312 L 1.0826,1.5294 L 1.0685,1.6276 L 1.0685,1.8381 L 1.0826,1.9363 L 1.1107,2.0345 L 1.1388,2.1187 L 1.1810,2.2169 L 1.2372,2.2871 L 1.2935,2.3713 L 1.3497,2.4414 L 1.4200,2.4976 L 1.5044,2.5537 L 1.5747,2.6098 L 1.6731,2.6519 L 1.7575,2.6800 L 1.8559,2.7080 L 1.9543,2.7220 L 4.0632,2.7220 L 4.1616,2.7080 L 4.2601,2.6800 L 4.3444,2.6519 L 4.4428,2.6098 L 4.5131,2.5537 L 4.5975,2.4976 L 4.6678,2.4414 L 4.7240,2.3713 L 4.7803,2.2871 L 4.8365,2.2169 L 4.8787,2.1187 L 4.9068,2.0345 L 4.9349,1.9363 L 4.9490,1.8381 L 4.9490,1.7399 L 4.9490,1.7258 Z" stroke="#000000" stroke-width="0.1200" stroke-linecap="round" stroke-linejoin="round" fill="#FFFFFF"/>
        <path d="M 4.9490,10.8461 L 4.9490,10.7479 L 4.9349,10.6497 L 4.9068,10.5514 L 4.8787,10.4673 L 4.8365,10.3690 L 4.7803,10.2989 L 4.7240,10.2147 L 4.6678,10.1445 L 4.5975,10.0884 L 4.5131,10.0323 L 4.4428,9.9762 L 4.3444,9.9341 L 4.2601,9.9060 L 4.1616,9.8780 L 4.0632,9.8639 L 1.9543,9.8639 L 1.8559,9.8780 L 1.7575,9.9060 L 1.6731,9.9341 L 1.5747,9.9762 L 1.5044,10.0323 L 1.4200,10.0884 L 1.3497,10.1445 L 1.2935,10.2147 L 1.2372,10.2989 L 1.1810,10.3690 L 1.1388,10.4673 L 1.1107,10.5514 L 1.0826,10.6497 L 1.0685,10.7479 L 1.0685,10.9584 L 1.0826,11.0566 L 1.1107,11.1548 L 1.1388,11.2390 L 1.1810,11.3372 L 1.2372,11.4073 L 1.2935,11.4915 L 1.3497,11.5617 L 1.4200,11.6178 L 1.5044,11.6739 L 1.5747,11.7301 L 1.6731,11.7722 L 1.7575,11.8002 L 1.8559,11.8283 L 1.9543,11.8423 L 4.0632,11.8423 L 4.1616,11.8283 L 4.2601,11.8002 L 4.3444,11.7722 L 4.4428,11.7301 L 4.5131,11.6739 L 4.5975,11.6178 L 4.6678,11.5617 L 4.7240,11.4915 L 4.7803,11.4073 L 4.8365,11.3372 L 4.8787,11.2390 L 4.9068,11.1548 L 4.9349,11.0566 L 4.9490,10.9584 L 4.9490,10.8601 L 4.9490,10.8461 Z" stroke="#000000" stroke-width="0.1200" stroke-linecap="round" stroke-linejoin="round" fill="#FFFFFF"/>
        <path d="M 90.0237,11.8704 L 129.1094,11.8704 L 129.1235,11.8563 L 129.1375,11.8563 L 129.1516,11.8423 L 129.1797,11.8423 L 129.2078,11.8143 L 129.2219,11.8143 L 129.2359,11.8002 L 129.2359,11.7862 L 129.2500,11.7862 L 129.2640,11.7722 L 129.2640,11.7581 L 129.2922,11.7301 L 129.2922,11.7020 L 129.3062,11.6880 L 129.3062,11.6739 L 129.3203,11.6599 L 129.3203,0.9120 L 129.3062,0.8980 L 129.3062,0.8840 L 129.2922,0.8699 L 129.2922,0.8419 L 129.2640,0.8138 L 129.2640,0.7998 L 129.2500,0.7857 L 129.2359,0.7857 L 129.2359,0.7717 L 129.2219,0.7577 L 129.2078,0.7577 L 129.1797,0.7296 L 129.1516,0.7296 L 129.1375,0.7156 L 129.1235,0.7156 L 129.1094,0.7016 L 7.6765,0.7016 L 7.6625,0.7156 L 7.6484,0.7156 L 7.6344,0.7296 L 7.6062,0.7296 L 7.5781,0.7577 L 7.5641,0.7577 L 7.5500,0.7717 L 7.5500,0.7857 L 7.5360,0.7857 L 7.5219,0.7998 L 7.5219,0.8138 L 7.4938,0.8419 L 7.4938,0.8699 L 7.4797,0.8840 L 7.4797,0.8980 L 7.4657,0.9120 L 7.4657,11.6599 L 7.4797,11.6739 L 7.4797,11.6880 L 7.4938,11.7020 L 7.4938,11.7301 L 7.5219,11.7581 L 7.5219,11.7722 L 7.5360,11.7862 L 7.5500,11.7862 L 7.5500,11.8002 L 7.5641,11.8143 L 7.5781,11.8143 L 7.6062,11.8423 L 7.6344,11.8423 L 7.6484,11.8563 L 7.6625,11.8563 L 7.6765,11.8704 L 89.7847,11.8704 L 90.0237,11.8704 Z" stroke="#A8A6A3" stroke-width="0.1200" stroke-linecap="round" stroke-linejoin="round" fill="#CCE0CC"/>
        <path d="M 123.0778,7.9416 L 123.0778,10.2708 L 126.8458,10.2708 L 126.8458,7.9416 L 123.0778,7.9416 Z" stroke="#D6D5D4" stroke-width="0.1200" stroke-linecap="round" stroke-linejoin="round" fill="#EFEFEF"/>
        <path d="M 119.1552,5.1494 L 122.3608,5.1494 L 122.3608,7.4225 L 119.1552,7.4225 L 119.1552,5.1494 Z" stroke="#D6D5D4" stroke-width="0.1200" stroke-linecap="round" stroke-linejoin="round" fill="#EFEFEF"/>
        <path d="M 127.6050,7.4225 L 129.3484,7.4225 L 129.3484,5.1494 L 127.6050,5.1494 L 127.6050,7.4225 Z" stroke="#D6D5D4" stroke-width="0.1200" stroke-linecap="round" stroke-linejoin="round" fill="#EFEFEF"/>
        <path d="M 122.3608,7.9416 L 122.3608,10.2708 L 122.2202,10.2708 L 122.0655,10.2849 L 121.7703,10.2849 L 121.6297,10.2708 L 121.4891,10.2708 L 121.0673,10.2287 L 120.9267,10.2007 L 120.5471,10.1165 L 120.4206,10.0604 L 120.3081,10.0183 L 120.0831,9.9060 L 119.9847,9.8359 L 119.6895,9.5833 L 119.6192,9.4851 L 119.5348,9.3728 L 119.4645,9.2606 L 119.3942,9.1203 L 119.3380,8.9940 L 119.2536,8.6853 L 119.2114,8.5169 L 119.1833,8.3345 L 119.1552,7.9416 L 122.3467,7.9416 L 122.3608,7.9416 Z" stroke="#D6D5D4" stroke-width="0.1200" stroke-linecap="round" stroke-linejoin="round" fill="#EFEFEF"/>
        <path d="M 123.0778,2.3011 L 123.0778,4.6303 L 126.8458,4.6303 L 126.8458,2.3011 L 123.0778,2.3011 Z" stroke="#D6D5D4" stroke-width="0.1200" stroke-linecap="round" stroke-linejoin="round" fill="#EFEFEF"/>
        <path d="M 122.3608,4.6303 L 122.3608,2.3011 L 122.2202,2.3011 L 122.0655,2.2871 L 121.7703,2.2871 L 121.6297,2.3011 L 121.4891,2.3011 L 121.0673,2.3432 L 120.9267,2.3713 L 120.5471,2.4555 L 120.4206,2.5116 L 120.3081,2.5537 L 120.0831,2.6659 L 119.9847,2.7361 L 119.6895,2.9886 L 119.6192,3.0869 L 119.5348,3.1991 L 119.4645,3.3114 L 119.3942,3.4517 L 119.3380,3.5780 L 119.2536,3.8866 L 119.2114,4.0550 L 119.1833,4.2374 L 119.1552,4.6303 L 122.3467,4.6303 L 122.3608,4.6303 Z" stroke="#D6D5D4" stroke-width="0.1200" stroke-linecap="round" stroke-linejoin="round" fill="#EFEFEF"/>
        <path d="M 127.6050,7.9416 L 127.6050,10.2708 L 129.3484,10.2708 L 129.3484,7.9416 L 127.6050,7.9416 Z" stroke="#D6D5D4" stroke-width="0.1200" stroke-linecap="round" stroke-linejoin="round" fill="#EFEFEF"/>
        <path d="M 127.6050,2.3011 L 127.6050,4.6303 L 129.3484,4.6303 L 129.3484,2.3011 L 127.6050,2.3011 Z" stroke="#D6D5D4" stroke-width="0.1200" stroke-linecap="round" stroke-linejoin="round" fill="#EFEFEF"/>
        <ellipse cx="9.6730" cy="10.6847" rx="0.5483" ry="0.5402" fill="#000000" stroke="#000000" stroke-width="0.1200" stroke-linecap="round" stroke-linejoin="round"/>
        <ellipse cx="9.6730" cy="10.6847" rx="0.5483" ry="0.5402" fill="none" stroke="#000000" stroke-width="0.1200" stroke-linecap="round" stroke-linejoin="round"/>
        <ellipse cx="11.2125" cy="10.6847" rx="0.5413" ry="0.5402" fill="#000000" stroke="#000000" stroke-width="0.1200" stroke-linecap="round" stroke-linejoin="round"/>
        <ellipse cx="11.2125" cy="10.6847" rx="0.5413" ry="0.5402" fill="none" stroke="#000000" stroke-width="0.1200" stroke-linecap="round" stroke-linejoin="round"/>
        <ellipse cx="12.7591" cy="10.6847" rx="0.5413" ry="0.5402" fill="#000000" stroke="#000000" stroke-width="0.1200" stroke-linecap="round" stroke-linejoin="round"/>
        <ellipse cx="12.7591" cy="10.6847" rx="0.5413" ry="0.5402" fill="none" stroke="#000000" stroke-width="0.1200" stroke-linecap="round" stroke-linejoin="round"/>
        <ellipse cx="14.3197" cy="10.6847" rx="0.5413" ry="0.5402" fill="#000000" stroke="#000000" stroke-width="0.1200" stroke-linecap="round" stroke-linejoin="round"/>
        <ellipse cx="14.3197" cy="10.6847" rx="0.5413" ry="0.5402" fill="none" stroke="#000000" stroke-width="0.1200" stroke-linecap="round" stroke-linejoin="round"/>
        <ellipse cx="15.8733" cy="10.6847" rx="0.5483" ry="0.5402" fill="#000000" stroke="#000000" stroke-width="0.1200" stroke-linecap="round" stroke-linejoin="round"/>
        <ellipse cx="15.8733" cy="10.6847" rx="0.5483" ry="0.5402" fill="none" stroke="#000000" stroke-width="0.1200" stroke-linecap="round" stroke-linejoin="round"/>
        <ellipse cx="17.4199" cy="10.6847" rx="0.5483" ry="0.5402" fill="#000000" stroke="#000000" stroke-width="0.1200" stroke-linecap="round" stroke-linejoin="round"/>
        <ellipse cx="17.4199" cy="10.6847" rx="0.5483" ry="0.5402" fill="none" stroke="#000000" stroke-width="0.1200" stroke-linecap="round" stroke-linejoin="round"/>
        <ellipse cx="18.9594" cy="10.6847" rx="0.5413" ry="0.5402" fill="#000000" stroke="#000000" stroke-width="0.1200" stroke-linecap="round" stroke-linejoin="round"/>
        <ellipse cx="18.9594" cy="10.6847" rx="0.5413" ry="0.5402" fill="none" stroke="#000000" stroke-width="0.1200" stroke-linecap="round" stroke-linejoin="round"/>
        <ellipse cx="20.5059" cy="10.6847" rx="0.5413" ry="0.5402" fill="#000000" stroke="#000000" stroke-width="0.1200" stroke-linecap="round" stroke-linejoin="round"/>
        <ellipse cx="20.5059" cy="10.6847" rx="0.5413" ry="0.5402" fill="none" stroke="#000000" stroke-width="0.1200" stroke-linecap="round" stroke-linejoin="round"/>
        <ellipse cx="22.0666" cy="10.6847" rx="0.5413" ry="0.5402" fill="#000000" stroke="#000000" stroke-width="0.1200" stroke-linecap="round" stroke-linejoin="round"/>
        <ellipse cx="22.0666" cy="10.6847" rx="0.5413" ry="0.5402" fill="none" stroke="#000000" stroke-width="0.1200" stroke-linecap="round" stroke-linejoin="round"/>
        <ellipse cx="23.6131" cy="10.6847" rx="0.5413" ry="0.5402" fill="#000000" stroke="#000000" stroke-width="0.1200" stroke-linecap="round" stroke-linejoin="round"/>
        <ellipse cx="23.6131" cy="10.6847" rx="0.5413" ry="0.5402" fill="none" stroke="#000000" stroke-width="0.1200" stroke-linecap="round" stroke-linejoin="round"/>
        <ellipse cx="25.1667" cy="10.6847" rx="0.5483" ry="0.5402" fill="#000000" stroke="#000000" stroke-width="0.1200" stroke-linecap="round" stroke-linejoin="round"/>
        <ellipse cx="25.1667" cy="10.6847" rx="0.5483" ry="0.5402" fill="none" stroke="#000000" stroke-width="0.1200" stroke-linecap="round" stroke-linejoin="round"/>
        <ellipse cx="26.7133" cy="10.6847" rx="0.5483" ry="0.5402" fill="#000000" stroke="#000000" stroke-width="0.1200" stroke-linecap="round" stroke-linejoin="round"/>
        <ellipse cx="26.7133" cy="10.6847" rx="0.5483" ry="0.5402" fill="none" stroke="#000000" stroke-width="0.1200" stroke-linecap="round" stroke-linejoin="round"/>
        <ellipse cx="28.2528" cy="10.6847" rx="0.5413" ry="0.5402" fill="#000000" stroke="#000000" stroke-width="0.1200" stroke-linecap="round" stroke-linejoin="round"/>
        <ellipse cx="28.2528" cy="10.6847" rx="0.5413" ry="0.5402" fill="none" stroke="#000000" stroke-width="0.1200" stroke-linecap="round" stroke-linejoin="round"/>
        <ellipse cx="29.8134" cy="10.6847" rx="0.5413" ry="0.5402" fill="#000000" stroke="#000000" stroke-width="0.1200" stroke-linecap="round" stroke-linejoin="round"/>
        <ellipse cx="29.8134" cy="10.6847" rx="0.5413" ry="0.5402" fill="none" stroke="#000000" stroke-width="0.1200" stroke-linecap="round" stroke-linejoin="round"/>
        <ellipse cx="31.3600" cy="10.6847" rx="0.5413" ry="0.5402" fill="#000000" stroke="#000000" stroke-width="0.1200" stroke-linecap="round" stroke-linejoin="round"/>
        <ellipse cx="31.3600" cy="10.6847" rx="0.5413" ry="0.5402" fill="none" stroke="#000000" stroke-width="0.1200" stroke-linecap="round" stroke-linejoin="round"/>
        <ellipse cx="32.9135" cy="10.6847" rx="0.5483" ry="0.5402" fill="#000000" stroke="#000000" stroke-width="0.1200" stroke-linecap="round" stroke-linejoin="round"/>
        <ellipse cx="32.9135" cy="10.6847" rx="0.5483" ry="0.5402" fill="none" stroke="#000000" stroke-width="0.1200" stroke-linecap="round" stroke-linejoin="round"/>
        <ellipse cx="34.4601" cy="10.6847" rx="0.5483" ry="0.5402" fill="#000000" stroke="#000000" stroke-width="0.1200" stroke-linecap="round" stroke-linejoin="round"/>
        <ellipse cx="34.4601" cy="10.6847" rx="0.5483" ry="0.5402" fill="none" stroke="#000000" stroke-width="0.1200" stroke-linecap="round" stroke-linejoin="round"/>
        <ellipse cx="35.9996" cy="10.6847" rx="0.5413" ry="0.5402" fill="#000000" stroke="#000000" stroke-width="0.1200" stroke-linecap="round" stroke-linejoin="round"/>
        <ellipse cx="35.9996" cy="10.6847" rx="0.5413" ry="0.5402" fill="none" stroke="#000000" stroke-width="0.1200" stroke-linecap="round" stroke-linejoin="round"/>
        <ellipse cx="37.5602" cy="10.6847" rx="0.5413" ry="0.5402" fill="#000000" stroke="#000000" stroke-width="0.1200" stroke-linecap="round" stroke-linejoin="round"/>
        <ellipse cx="37.5602" cy="10.6847" rx="0.5413" ry="0.5402" fill="none" stroke="#000000" stroke-width="0.1200" stroke-linecap="round" stroke-linejoin="round"/>
        <ellipse cx="39.1068" cy="10.6847" rx="0.5413" ry="0.5402" fill="#000000" stroke="#000000" stroke-width="0.1200" stroke-linecap="round" stroke-linejoin="round"/>
        <ellipse cx="39.1068" cy="10.6847" rx="0.5413" ry="0.5402" fill="none" stroke="#000000" stroke-width="0.1200" stroke-linecap="round" stroke-linejoin="round"/>
        <ellipse cx="40.6534" cy="10.6847" rx="0.5413" ry="0.5402" fill="#000000" stroke="#000000" stroke-width="0.1200" stroke-linecap="round" stroke-linejoin="round"/>
        <ellipse cx="40.6534" cy="10.6847" rx="0.5413" ry="0.5402" fill="none" stroke="#000000" stroke-width="0.1200" stroke-linecap="round" stroke-linejoin="round"/>
        <ellipse cx="27.4373" cy="9.1974" rx="0.5413" ry="0.5402" fill="#000000" stroke="#000000" stroke-width="0.1200" stroke-linecap="round" stroke-linejoin="round"/>
        <ellipse cx="27.4373" cy="9.1974" rx="0.5413" ry="0.5402" fill="none" stroke="#000000" stroke-width="0.1200" stroke-linecap="round" stroke-linejoin="round"/>
        <ellipse cx="28.9909" cy="9.1974" rx="0.5483" ry="0.5402" fill="#000000" stroke="#000000" stroke-width="0.1200" stroke-linecap="round" stroke-linejoin="round"/>
        <ellipse cx="28.9909" cy="9.1974" rx="0.5483" ry="0.5402" fill="none" stroke="#000000" stroke-width="0.1200" stroke-linecap="round" stroke-linejoin="round"/>
        <ellipse cx="30.5515" cy="9.1974" rx="0.5483" ry="0.5402" fill="#000000" stroke="#000000" stroke-width="0.1200" stroke-linecap="round" stroke-linejoin="round"/>
        <ellipse cx="30.5515" cy="9.1974" rx="0.5483" ry="0.5402" fill="none" stroke="#000000" stroke-width="0.1200" stroke-linecap="round" stroke-linejoin="round"/>
        <ellipse cx="32.0981" cy="9.1974" rx="0.5483" ry="0.5402" fill="#000000" stroke="#000000" stroke-width="0.1200" stroke-linecap="round" stroke-linejoin="round"/>
        <ellipse cx="32.0981" cy="9.1974" rx="0.5483" ry="0.5402" fill="none" stroke="#000000" stroke-width="0.1200" stroke-linecap="round" stroke-linejoin="round"/>
        <ellipse cx="33.6376" cy="9.1974" rx="0.5413" ry="0.5402" fill="#000000" stroke="#000000" stroke-width="0.1200" stroke-linecap="round" stroke-linejoin="round"/>
        <ellipse cx="33.6376" cy="9.1974" rx="0.5413" ry="0.5402" fill="none" stroke="#000000" stroke-width="0.1200" stroke-linecap="round" stroke-linejoin="round"/>
        <ellipse cx="35.1842" cy="9.1974" rx="0.5413" ry="0.5402" fill="#000000" stroke="#000000" stroke-width="0.1200" stroke-linecap="round" stroke-linejoin="round"/>
        <ellipse cx="35.1842" cy="9.1974" rx="0.5413" ry="0.5402" fill="none" stroke="#000000" stroke-width="0.1200" stroke-linecap="round" stroke-linejoin="round"/>
        <ellipse cx="36.7307" cy="9.1974" rx="0.5413" ry="0.5402" fill="#000000" stroke="#000000" stroke-width="0.1200" stroke-linecap="round" stroke-linejoin="round"/>
        <ellipse cx="36.7307" cy="9.1974" rx="0.5413" ry="0.5402" fill="none" stroke="#000000" stroke-width="0.1200" stroke-linecap="round" stroke-linejoin="round"/>
        <ellipse cx="38.2984" cy="9.1974" rx="0.5483" ry="0.5402" fill="#000000" stroke="#000000" stroke-width="0.1200" stroke-linecap="round" stroke-linejoin="round"/>
        <ellipse cx="38.2984" cy="9.1974" rx="0.5483" ry="0.5402" fill="none" stroke="#000000" stroke-width="0.1200" stroke-linecap="round" stroke-linejoin="round"/>
        <ellipse cx="39.8449" cy="9.1974" rx="0.5483" ry="0.5402" fill="#000000" stroke="#000000" stroke-width="0.1200" stroke-linecap="round" stroke-linejoin="round"/>
        <ellipse cx="39.8449" cy="9.1974" rx="0.5483" ry="0.5402" fill="none" stroke="#000000" stroke-width="0.1200" stroke-linecap="round" stroke-linejoin="round"/>
        <ellipse cx="28.2528" cy="7.7663" rx="0.5413" ry="0.5402" fill="#000000" stroke="#000000" stroke-width="0.1200" stroke-linecap="round" stroke-linejoin="round"/>
        <ellipse cx="28.2528" cy="7.7663" rx="0.5413" ry="0.5402" fill="none" stroke="#000000" stroke-width="0.1200" stroke-linecap="round" stroke-linejoin="round"/>
        <ellipse cx="29.8134" cy="7.7663" rx="0.5413" ry="0.5402" fill="#000000" stroke="#000000" stroke-width="0.1200" stroke-linecap="round" stroke-linejoin="round"/>
        <ellipse cx="29.8134" cy="7.7663" rx="0.5413" ry="0.5402" fill="none" stroke="#000000" stroke-width="0.1200" stroke-linecap="round" stroke-linejoin="round"/>
        <ellipse cx="31.3600" cy="7.7663" rx="0.5413" ry="0.5402" fill="#000000" stroke="#000000" stroke-width="0.1200" stroke-linecap="round" stroke-linejoin="round"/>
        <ellipse cx="31.3600" cy="7.7663" rx="0.5413" ry="0.5402" fill="none" stroke="#000000" stroke-width="0.1200" stroke-linecap="round" stroke-linejoin="round"/>
        <ellipse cx="32.9135" cy="7.7663" rx="0.5483" ry="0.5402" fill="#000000" stroke="#000000" stroke-width="0.1200" stroke-linecap="round" stroke-linejoin="round"/>
        <ellipse cx="32.9135" cy="7.7663" rx="0.5483" ry="0.5402" fill="none" stroke="#000000" stroke-width="0.1200" stroke-linecap="round" stroke-linejoin="round"/>
        <ellipse cx="34.4601" cy="7.7663" rx="0.5483" ry="0.5402" fill="#000000" stroke="#000000" stroke-width="0.1200" stroke-linecap="round" stroke-linejoin="round"/>
        <ellipse cx="34.4601" cy="7.7663" rx="0.5483" ry="0.5402" fill="none" stroke="#000000" stroke-width="0.1200" stroke-linecap="round" stroke-linejoin="round"/>
        <ellipse cx="35.9996" cy="7.7663" rx="0.5413" ry="0.5402" fill="#000000" stroke="#000000" stroke-width="0.1200" stroke-linecap="round" stroke-linejoin="round"/>
        <ellipse cx="35.9996" cy="7.7663" rx="0.5413" ry="0.5402" fill="none" stroke="#000000" stroke-width="0.1200" stroke-linecap="round" stroke-linejoin="round"/>
        <ellipse cx="37.5602" cy="7.7663" rx="0.5413" ry="0.5402" fill="#000000" stroke="#000000" stroke-width="0.1200" stroke-linecap="round" stroke-linejoin="round"/>
        <ellipse cx="37.5602" cy="7.7663" rx="0.5413" ry="0.5402" fill="none" stroke="#000000" stroke-width="0.1200" stroke-linecap="round" stroke-linejoin="round"/>
        <ellipse cx="39.1068" cy="7.7663" rx="0.5413" ry="0.5402" fill="#000000" stroke="#000000" stroke-width="0.1200" stroke-linecap="round" stroke-linejoin="round"/>
        <ellipse cx="39.1068" cy="7.7663" rx="0.5413" ry="0.5402" fill="none" stroke="#000000" stroke-width="0.1200" stroke-linecap="round" stroke-linejoin="round"/>
        <ellipse cx="40.6534" cy="7.7663" rx="0.5413" ry="0.5402" fill="#000000" stroke="#000000" stroke-width="0.1200" stroke-linecap="round" stroke-linejoin="round"/>
        <ellipse cx="40.6534" cy="7.7663" rx="0.5413" ry="0.5402" fill="none" stroke="#000000" stroke-width="0.1200" stroke-linecap="round" stroke-linejoin="round"/>
        <ellipse cx="30.6359" cy="6.3140" rx="0.5483" ry="0.5472" fill="#000000" stroke="#000000" stroke-width="0.1200" stroke-linecap="round" stroke-linejoin="round"/>
        <ellipse cx="30.6359" cy="6.3140" rx="0.5483" ry="0.5472" fill="none" stroke="#000000" stroke-width="0.1200" stroke-linecap="round" stroke-linejoin="round"/>
        <ellipse cx="32.1754" cy="6.3140" rx="0.5413" ry="0.5472" fill="#000000" stroke="#000000" stroke-width="0.1200" stroke-linecap="round" stroke-linejoin="round"/>
        <ellipse cx="32.1754" cy="6.3140" rx="0.5413" ry="0.5472" fill="none" stroke="#000000" stroke-width="0.1200" stroke-linecap="round" stroke-linejoin="round"/>
        <ellipse cx="33.7220" cy="6.3140" rx="0.5413" ry="0.5472" fill="#000000" stroke="#000000" stroke-width="0.1200" stroke-linecap="round" stroke-linejoin="round"/>
        <ellipse cx="33.7220" cy="6.3140" rx="0.5413" ry="0.5472" fill="none" stroke="#000000" stroke-width="0.1200" stroke-linecap="round" stroke-linejoin="round"/>
        <ellipse cx="35.2756" cy="6.3140" rx="0.5483" ry="0.5472" fill="#000000" stroke="#000000" stroke-width="0.1200" stroke-linecap="round" stroke-linejoin="round"/>
        <ellipse cx="35.2756" cy="6.3140" rx="0.5483" ry="0.5472" fill="none" stroke="#000000" stroke-width="0.1200" stroke-linecap="round" stroke-linejoin="round"/>
        <ellipse cx="36.8362" cy="6.3140" rx="0.5483" ry="0.5472" fill="#000000" stroke="#000000" stroke-width="0.1200" stroke-linecap="round" stroke-linejoin="round"/>
        <ellipse cx="36.8362" cy="6.3140" rx="0.5483" ry="0.5472" fill="none" stroke="#000000" stroke-width="0.1200" stroke-linecap="round" stroke-linejoin="round"/>
        <ellipse cx="38.3827" cy="6.3140" rx="0.5483" ry="0.5472" fill="#000000" stroke="#000000" stroke-width="0.1200" stroke-linecap="round" stroke-linejoin="round"/>
        <ellipse cx="38.3827" cy="6.3140" rx="0.5483" ry="0.5472" fill="none" stroke="#000000" stroke-width="0.1200" stroke-linecap="round" stroke-linejoin="round"/>
        <ellipse cx="39.9223" cy="6.3140" rx="0.5413" ry="0.5472" fill="#000000" stroke="#000000" stroke-width="0.1200" stroke-linecap="round" stroke-linejoin="round"/>
        <ellipse cx="39.9223" cy="6.3140" rx="0.5413" ry="0.5472" fill="none" stroke="#000000" stroke-width="0.1200" stroke-linecap="round" stroke-linejoin="round"/>
        <ellipse cx="31.3600" cy="4.9600" rx="0.5413" ry="0.5402" fill="#000000" stroke="#000000" stroke-width="0.1200" stroke-linecap="round" stroke-linejoin="round"/>
        <ellipse cx="31.3600" cy="4.9600" rx="0.5413" ry="0.5402" fill="none" stroke="#000000" stroke-width="0.1200" stroke-linecap="round" stroke-linejoin="round"/>
        <ellipse cx="32.9135" cy="4.9600" rx="0.5483" ry="0.5402" fill="#000000" stroke="#000000" stroke-width="0.1200" stroke-linecap="round" stroke-linejoin="round"/>
        <ellipse cx="32.9135" cy="4.9600" rx="0.5483" ry="0.5402" fill="none" stroke="#000000" stroke-width="0.1200" stroke-linecap="round" stroke-linejoin="round"/>
        <ellipse cx="34.4601" cy="4.9600" rx="0.5483" ry="0.5402" fill="#000000" stroke="#000000" stroke-width="0.1200" stroke-linecap="round" stroke-linejoin="round"/>
        <ellipse cx="34.4601" cy="4.9600" rx="0.5483" ry="0.5402" fill="none" stroke="#000000" stroke-width="0.1200" stroke-linecap="round" stroke-linejoin="round"/>
        <ellipse cx="35.9996" cy="4.9600" rx="0.5413" ry="0.5402" fill="#000000" stroke="#000000" stroke-width="0.1200" stroke-linecap="round" stroke-linejoin="round"/>
        <ellipse cx="35.9996" cy="4.9600" rx="0.5413" ry="0.5402" fill="none" stroke="#000000" stroke-width="0.1200" stroke-linecap="round" stroke-linejoin="round"/>
        <ellipse cx="37.5602" cy="4.9600" rx="0.5413" ry="0.5402" fill="#000000" stroke="#000000" stroke-width="0.1200" stroke-linecap="round" stroke-linejoin="round"/>
        <ellipse cx="37.5602" cy="4.9600" rx="0.5413" ry="0.5402" fill="none" stroke="#000000" stroke-width="0.1200" stroke-linecap="round" stroke-linejoin="round"/>
        <ellipse cx="39.1068" cy="4.9600" rx="0.5413" ry="0.5402" fill="#000000" stroke="#000000" stroke-width="0.1200" stroke-linecap="round" stroke-linejoin="round"/>
        <ellipse cx="39.1068" cy="4.9600" rx="0.5413" ry="0.5402" fill="none" stroke="#000000" stroke-width="0.1200" stroke-linecap="round" stroke-linejoin="round"/>
        <ellipse cx="40.6534" cy="4.9600" rx="0.5413" ry="0.5402" fill="#000000" stroke="#000000" stroke-width="0.1200" stroke-linecap="round" stroke-linejoin="round"/>
        <ellipse cx="40.6534" cy="4.9600" rx="0.5413" ry="0.5402" fill="none" stroke="#000000" stroke-width="0.1200" stroke-linecap="round" stroke-linejoin="round"/>
        <ellipse cx="33.7220" cy="3.6200" rx="0.5413" ry="0.5472" fill="#000000" stroke="#000000" stroke-width="0.1200" stroke-linecap="round" stroke-linejoin="round"/>
        <ellipse cx="33.7220" cy="3.6200" rx="0.5413" ry="0.5472" fill="none" stroke="#000000" stroke-width="0.1200" stroke-linecap="round" stroke-linejoin="round"/>
        <ellipse cx="35.2756" cy="3.6200" rx="0.5483" ry="0.5472" fill="#000000" stroke="#000000" stroke-width="0.1200" stroke-linecap="round" stroke-linejoin="round"/>
        <ellipse cx="35.2756" cy="3.6200" rx="0.5483" ry="0.5472" fill="none" stroke="#000000" stroke-width="0.1200" stroke-linecap="round" stroke-linejoin="round"/>
        <ellipse cx="36.8362" cy="3.6200" rx="0.5483" ry="0.5472" fill="#000000" stroke="#000000" stroke-width="0.1200" stroke-linecap="round" stroke-linejoin="round"/>
        <ellipse cx="36.8362" cy="3.6200" rx="0.5483" ry="0.5472" fill="none" stroke="#000000" stroke-width="0.1200" stroke-linecap="round" stroke-linejoin="round"/>
        <ellipse cx="38.3827" cy="3.6200" rx="0.5483" ry="0.5472" fill="#000000" stroke="#000000" stroke-width="0.1200" stroke-linecap="round" stroke-linejoin="round"/>
        <ellipse cx="38.3827" cy="3.6200" rx="0.5483" ry="0.5472" fill="none" stroke="#000000" stroke-width="0.1200" stroke-linecap="round" stroke-linejoin="round"/>
        <ellipse cx="39.9223" cy="3.6200" rx="0.5413" ry="0.5472" fill="#000000" stroke="#000000" stroke-width="0.1200" stroke-linecap="round" stroke-linejoin="round"/>
        <ellipse cx="39.9223" cy="3.6200" rx="0.5413" ry="0.5472" fill="none" stroke="#000000" stroke-width="0.1200" stroke-linecap="round" stroke-linejoin="round"/>
        <ellipse cx="35.9996" cy="2.2660" rx="0.5413" ry="0.5402" fill="#000000" stroke="#000000" stroke-width="0.1200" stroke-linecap="round" stroke-linejoin="round"/>
        <ellipse cx="35.9996" cy="2.2660" rx="0.5413" ry="0.5402" fill="none" stroke="#000000" stroke-width="0.1200" stroke-linecap="round" stroke-linejoin="round"/>
        <ellipse cx="37.5602" cy="2.2660" rx="0.5413" ry="0.5402" fill="#000000" stroke="#000000" stroke-width="0.1200" stroke-linecap="round" stroke-linejoin="round"/>
        <ellipse cx="37.5602" cy="2.2660" rx="0.5413" ry="0.5402" fill="none" stroke="#000000" stroke-width="0.1200" stroke-linecap="round" stroke-linejoin="round"/>
        <ellipse cx="39.1068" cy="2.2660" rx="0.5413" ry="0.5402" fill="#000000" stroke="#000000" stroke-width="0.1200" stroke-linecap="round" stroke-linejoin="round"/>
        <ellipse cx="39.1068" cy="2.2660" rx="0.5413" ry="0.5402" fill="none" stroke="#000000" stroke-width="0.1200" stroke-linecap="round" stroke-linejoin="round"/>
        <ellipse cx="40.6534" cy="2.2660" rx="0.5413" ry="0.5402" fill="#000000" stroke="#000000" stroke-width="0.1200" stroke-linecap="round" stroke-linejoin="round"/>
        <ellipse cx="40.6534" cy="2.2660" rx="0.5413" ry="0.5402" fill="none" stroke="#000000" stroke-width="0.1200" stroke-linecap="round" stroke-linejoin="round"/>
        <path d="M 122.8669,10.2708 L 121.5734,10.2708 L 121.5734,10.6637 L 122.8669,10.6637 L 122.8669,10.2708 Z" stroke="#000000" stroke-width="0.1200" stroke-linecap="round" stroke-linejoin="round" fill="#000000"/>
        <path d="M 120.8986,10.2708 L 119.6051,10.2708 L 119.6051,10.6637 L 120.8986,10.6637 L 120.8986,10.2708 Z" stroke="#000000" stroke-width="0.1200" stroke-linecap="round" stroke-linejoin="round" fill="#000000"/>
        <ellipse cx="29.0893" cy="6.3140" rx="0.5483" ry="0.5472" fill="#000000" stroke="#000000" stroke-width="0.1200" stroke-linecap="round" stroke-linejoin="round"/>
        <ellipse cx="29.0893" cy="6.3140" rx="0.5483" ry="0.5472" fill="none" stroke="#000000" stroke-width="0.1200" stroke-linecap="round" stroke-linejoin="round"/>
        <path d="M 7.4657,9.9341 L 7.4657,0.8980 L 7.4797,0.8840 L 7.4797,0.8559 L 7.4938,0.8559 L 7.4938,0.8278 L 7.5219,0.7998 L 7.5219,0.7857 L 7.5360,0.7857 L 7.5781,0.7437 L 7.5922,0.7437 L 7.6062,0.7296 L 7.6203,0.7296 L 7.6344,0.7156 L 7.6625,0.7156 L 7.6765,0.7016 L 41.3915,0.7016 L 40.4636,0.8840 L 39.5637,1.0804 L 38.7202,1.3049 L 37.9047,1.5575 L 37.1174,1.8241 L 36.3722,2.1047 L 35.6692,2.3993 L 34.9944,2.7080 L 34.3617,3.0307 L 33.7571,3.3675 L 33.1807,3.7042 L 32.6324,4.0550 L 32.1262,4.3918 L 31.6341,4.7425 L 31.1842,5.0933 L 30.7624,5.4441 L 30.3688,5.7808 L 29.9891,6.1176 L 29.6377,6.4403 L 29.3143,6.7630 L 29.0190,7.0717 L 28.7519,7.3523 L 28.4988,7.6330 L 28.2598,7.8996 L 28.0489,8.1381 L 27.8521,8.3486 L 27.6834,8.5450 L 27.5287,8.7134 L 27.2756,8.9659 L 27.1632,9.0501 L 27.0788,9.0922 L 27.0226,9.1343 L 26.9663,9.1904 L 26.7414,9.3588 L 26.6992,9.3869 L 26.6430,9.4290 L 26.5867,9.4570 L 26.5305,9.4991 L 26.4602,9.5272 L 26.2915,9.6114 L 26.2212,9.6394 L 26.1649,9.6675 L 26.0946,9.6955 L 26.0243,9.7096 L 25.9540,9.7376 L 25.8697,9.7517 L 25.7994,9.7797 L 25.7150,9.7938 L 25.6447,9.8078 L 25.5463,9.8218 L 25.4620,9.8499 L 25.3776,9.8639 L 25.1808,9.8920 L 25.0683,9.9060 L 24.9558,9.9060 L 24.7309,9.9341 L 7.5078,9.9341 L 7.4657,9.9341 Z" stroke="#EFEFEF" stroke-width="0.1200" stroke-linecap="round" stroke-linejoin="round" fill="#E2E2E2"/>
        <path d="M 10.2635,1.7399 L 10.2635,1.6837 L 10.2495,1.6416 L 10.1932,1.5575 L 10.1089,1.5013 L 10.0667,1.4873 L 9.9542,1.4873 L 9.9120,1.5013 L 9.8277,1.5575 L 9.7714,1.6416 L 9.7574,1.6837 L 9.7574,4.3777 L 9.7714,4.4198 L 9.8277,4.5040 L 9.9120,4.5601 L 9.9542,4.5742 L 10.0667,4.5742 L 10.1089,4.5601 L 10.1932,4.5040 L 10.2495,4.4198 L 10.2635,4.3777 L 10.2635,4.3216 L 10.2635,1.7399 Z" stroke="#CCDDCC" stroke-width="0.1200" stroke-linecap="round" stroke-linejoin="round" fill="#CCDDCC"/>
        <path d="M 11.2477,1.7399 L 11.2477,1.6837 L 11.2336,1.6416 L 11.1774,1.5575 L 11.0930,1.5013 L 11.0509,1.4873 L 10.9384,1.4873 L 10.8962,1.5013 L 10.8118,1.5575 L 10.7556,1.6416 L 10.7415,1.6837 L 10.7415,4.3777 L 10.7556,4.4198 L 10.8118,4.5040 L 10.8962,4.5601 L 10.9384,4.5742 L 11.0509,4.5742 L 11.0930,4.5601 L 11.1774,4.5040 L 11.2336,4.4198 L 11.2477,4.3777 L 11.2477,4.3216 L 11.2477,1.7399 Z" stroke="#CCDDCC" stroke-width="0.1200" stroke-linecap="round" stroke-linejoin="round" fill="#CCDDCC"/>
        <path d="M 12.2319,1.7399 L 12.2319,1.6837 L 12.2178,1.6416 L 12.1616,1.5575 L 12.0772,1.5013 L 12.0350,1.4873 L 11.9225,1.4873 L 11.8804,1.5013 L 11.7960,1.5575 L 11.7398,1.6416 L 11.7257,1.6837 L 11.7257,4.3777 L 11.7398,4.4198 L 11.7960,4.5040 L 11.8804,4.5601 L 11.9225,4.5742 L 12.0350,4.5742 L 12.0772,4.5601 L 12.1616,4.5040 L 12.2178,4.4198 L 12.2319,4.3777 L 12.2319,4.3216 L 12.2319,1.7399 Z" stroke="#CCDDCC" stroke-width="0.1200" stroke-linecap="round" stroke-linejoin="round" fill="#CCDDCC"/>
        <path d="M 90.0237,11.8704 L 129.1094,11.8704 L 129.1235,11.8563 L 129.1375,11.8563 L 129.1516,11.8423 L 129.1797,11.8423 L 129.2078,11.8143 L 129.2219,11.8143 L 129.2359,11.8002 L 129.2359,11.7862 L 129.2500,11.7862 L 129.2640,11.7722 L 129.2640,11.7581 L 129.2922,11.7301 L 129.2922,11.7020 L 129.3062,11.6880 L 129.3062,11.6739 L 129.3203,11.6599 L 129.3203,0.9120 L 129.3062,0.8980 L 129.3062,0.8840 L 129.2922,0.8699 L 129.2922,0.8419 L 129.2640,0.8138 L 129.2640,0.7998 L 129.2500,0.7857 L 129.2359,0.7857 L 129.2359,0.7717 L 129.2219,0.7577 L 129.2078,0.7577 L 129.1797,0.7296 L 129.1516,0.7296 L 129.1375,0.7156 L 129.1235,0.7156 L 129.1094,0.7016 L 7.6765,0.7016 L 7.6625,0.7156 L 7.6484,0.7156 L 7.6344,0.7296 L 7.6062,0.7296 L 7.5781,0.7577 L 7.5641,0.7577 L 7.5500,0.7717 L 7.5500,0.7857 L 7.5360,0.7857 L 7.5219,0.7998 L 7.5219,0.8138 L 7.4938,0.8419 L 7.4938,0.8699 L 7.4797,0.8840 L 7.4797,0.8980 L 7.4657,0.9120 L 7.4657,11.6599 L 7.4797,11.6739 L 7.4797,11.6880 L 7.4938,11.7020 L 7.4938,11.7301 L 7.5219,11.7581 L 7.5219,11.7722 L 7.5360,11.7862 L 7.5500,11.7862 L 7.5500,11.8002 L 7.5641,11.8143 L 7.5781,11.8143 L 7.6062,11.8423 L 7.6344,11.8423 L 7.6484,11.8563 L 7.6625,11.8563 L 7.6765,11.8704 L 89.7847,11.8704 L 90.0237,11.8704 Z" stroke="#A8A6A3" stroke-width="0.1200" stroke-linecap="round" stroke-linejoin="round" fill="none"/>
        <path d="M 88.4209,4.6163 L 84.1749,4.6163 L 84.1749,9.4149 L 88.4209,9.4149 L 88.4209,4.6163 Z" stroke="#000000" stroke-width="0.1200" stroke-linecap="round" stroke-linejoin="round" fill="#DDDDDD"/>
        <path d="M 73.3068,1.3891 L 53.3984,1.3891 L 53.3984,9.6675 L 73.3068,9.6675 L 73.3068,1.3891 Z" stroke="#0000FF" stroke-width="0.1200" stroke-linecap="round" stroke-linejoin="round" fill="#0000FF"/>
        <path d="M 58.1224,1.5855 L 53.7358,1.5855 L 53.7358,9.4149 L 58.1224,9.4149 L 58.1224,1.5855 Z" stroke="#494949" stroke-width="0.1200" stroke-linecap="round" stroke-linejoin="round" fill="#DDDDDD"/>
        <path d="M 63.0714,1.5855 L 58.6848,1.5855 L 58.6848,9.4149 L 63.0714,9.4149 L 63.0714,1.5855 Z" stroke="#494949" stroke-width="0.1200" stroke-linecap="round" stroke-linejoin="round" fill="#DDDDDD"/>
        <path d="M 68.0204,1.5855 L 63.6338,1.5855 L 63.6338,9.4149 L 68.0204,9.4149 L 68.0204,1.5855 Z" stroke="#494949" stroke-width="0.1200" stroke-linecap="round" stroke-linejoin="round" fill="#DDDDDD"/>
        <path d="M 72.9694,1.5855 L 68.5828,1.5855 L 68.5828,9.4149 L 72.9694,9.4149 L 72.9694,1.5855 Z" stroke="#494949" stroke-width="0.1200" stroke-linecap="round" stroke-linejoin="round" fill="#DDDDDD"/>
        <path d="M 78.0871,1.5855 L 73.7005,1.5855 L 73.7005,9.4149 L 78.0871,9.4149 L 78.0871,1.5855 Z" stroke="#000000" stroke-width="0.1200" stroke-linecap="round" stroke-linejoin="round" fill="#DDDDDD"/>
        <path d="M 83.3172,5.5143 L 78.9306,5.5143 L 78.9306,9.4149 L 83.3172,9.4149 L 83.3172,5.5143 Z" stroke="#000000" stroke-width="0.1200" stroke-linecap="round" stroke-linejoin="round" fill="#DDDDDD"/>
        <path d="M 53.6234,11.1688 L 60.5969,11.1688 " stroke="#0000FF" stroke-width="0.1200" stroke-linecap="round" stroke-linejoin="round" fill="none"/>
        <path d="M 66.1083,11.1688 L 73.0818,11.1688 " stroke="#0000FF" stroke-width="0.1200" stroke-linecap="round" stroke-linejoin="round" fill="none"/>
        <text font-family="Arial" fill="#000000" style="white-space:pre;" font-weight="400" text-anchor="start" x="3.5149" y="1.5566" font-size="0.2953"><![CDATA[FortiGate 300C]]></text>
        <path d="M 13.1830,2.8455 L 13.1628,2.8455 L 13.1527,2.8360 L 13.1426,2.8360 L 13.1123,2.8074 L 13.1123,2.7979 L 13.1022,2.7884 L 13.1022,1.6844 L 13.1123,1.6749 L 13.1123,1.6654 L 13.1224,1.6559 L 13.1325,1.6559 L 13.1325,1.6464 L 13.1426,1.6369 L 13.1527,1.6369 L 13.1628,1.6273 L 14.5366,1.6273 L 14.5467,1.6369 L 14.5568,1.6369 L 14.5872,1.6654 L 14.5872,1.6749 L 14.5973,1.6844 L 14.5973,1.9033 L 14.5872,1.9033 L 14.5872,1.8938 L 14.5770,1.8938 L 14.5770,1.8843 L 14.5669,1.8843 L 14.5669,1.8748 L 14.5467,1.8748 L 14.5467,1.8653 L 13.4355,1.8653 L 13.4355,1.8748 L 13.4153,1.8748 L 13.4153,1.8843 L 13.4052,1.8843 L 13.4052,1.9033 L 13.3951,1.9033 L 13.3951,2.8074 L 13.4052,2.8074 L 13.4052,2.8264 L 13.4153,2.8264 L 13.4153,2.8360 L 13.4254,2.8360 L 13.4254,2.8455 L 13.1931,2.8455 L 13.1830,2.8455 Z" stroke="#161616" stroke-width="0.1200" stroke-linecap="round" stroke-linejoin="round" fill="#161616"/>
        <path d="M 14.4962,2.1412 L 13.4961,2.1412 L 13.4961,2.1317 L 13.4759,2.1317 L 13.4759,2.1222 L 13.4658,2.1222 L 13.4658,2.1032 L 13.4557,2.1032 L 13.4557,2.3411 L 13.4658,2.3411 L 13.4658,2.3601 L 13.4759,2.3601 L 13.4759,2.3696 L 13.4961,2.3696 L 13.4961,2.3792 L 14.5164,2.3792 L 14.5366,2.3601 L 14.5467,2.3601 L 14.5669,2.3411 L 14.5669,2.3316 L 14.5770,2.3221 L 14.5770,2.3125 L 14.5872,2.3030 L 14.5872,2.2840 L 14.5973,2.2745 L 14.5973,2.2459 L 14.5872,2.2364 L 14.5872,2.2079 L 14.5669,2.1888 L 14.5669,2.1793 L 14.5568,2.1698 L 14.5467,2.1698 L 14.5467,2.1603 L 14.5366,2.1603 L 14.5265,2.1508 L 14.5164,2.1508 L 14.5063,2.1412 L 14.4962,2.1412 Z" stroke="#161616" stroke-width="0.1200" stroke-linecap="round" stroke-linejoin="round" fill="#161616"/>
        <path d="M 16.8298,2.3792 L 16.8096,2.3792 L 16.8096,2.3696 L 16.7894,2.3696 L 16.7894,2.3601 L 16.7793,2.3601 L 16.7793,2.3411 L 16.7692,2.3411 L 16.7692,2.1032 L 16.7793,2.1032 L 16.7793,2.1222 L 16.7894,2.1222 L 16.7894,2.1317 L 16.8096,2.1317 L 16.8096,2.1412 L 17.6177,2.1412 L 17.6177,1.8653 L 16.7490,1.8653 L 16.7490,1.8748 L 16.7288,1.8748 L 16.7288,1.8843 L 16.7187,1.8843 L 16.7187,1.9033 L 16.7086,1.9033 L 16.7086,2.8074 L 16.7187,2.8074 L 16.7187,2.8264 L 16.7288,2.8264 L 16.7288,2.8360 L 16.7389,2.8360 L 16.7389,2.8455 L 16.4762,2.8455 L 16.4661,2.8360 L 16.4560,2.8360 L 16.4257,2.8074 L 16.4257,2.7979 L 16.4156,2.7884 L 16.4156,1.6844 L 16.4257,1.6749 L 16.4257,1.6654 L 16.4358,1.6559 L 16.4459,1.6559 L 16.4459,1.6464 L 16.4560,1.6369 L 16.4661,1.6369 L 16.4762,1.6273 L 17.8501,1.6273 L 17.8602,1.6369 L 17.8703,1.6369 L 17.9006,1.6654 L 17.9006,1.6749 L 17.9107,1.6844 L 17.9107,2.2840 L 17.9006,2.2935 L 17.9006,2.3125 L 17.8905,2.3125 L 17.8905,2.3221 L 17.8804,2.3316 L 17.8804,2.3411 L 17.8703,2.3411 L 17.8703,2.3506 L 17.8602,2.3506 L 17.8602,2.3601 L 17.8501,2.3601 L 17.8501,2.3696 L 17.8400,2.3696 L 17.8299,2.3792 L 17.8400,2.3887 L 17.8501,2.3887 L 17.8501,2.3982 L 17.8602,2.3982 L 17.8602,2.4077 L 17.8703,2.4077 L 17.8703,2.4172 L 17.8804,2.4172 L 17.8804,2.4267 L 17.8905,2.4363 L 17.8905,2.4458 L 17.9006,2.4458 L 17.9006,2.4648 L 17.9107,2.4743 L 17.9107,2.8074 L 17.9208,2.8074 L 17.9208,2.8264 L 17.9309,2.8264 L 17.9309,2.8360 L 17.9410,2.8360 L 17.9410,2.8455 L 17.6783,2.8455 L 17.6682,2.8360 L 17.6581,2.8360 L 17.6278,2.8074 L 17.6278,2.7979 L 17.6177,2.7884 L 17.6177,2.3792 L 16.8399,2.3792 L 16.8298,2.3792 Z" stroke="#161616" stroke-width="0.1200" stroke-linecap="round" stroke-linejoin="round" fill="#161616"/>
        <path d="M 18.4360,1.8653 L 18.1329,1.8653 L 18.1228,1.8557 L 18.1127,1.8557 L 18.0824,1.8272 L 18.0824,1.8177 L 18.0723,1.8082 L 18.0723,1.6844 L 18.0824,1.6749 L 18.0824,1.6654 L 18.0925,1.6559 L 18.1026,1.6559 L 18.1026,1.6464 L 18.1127,1.6369 L 18.1228,1.6369 L 18.1329,1.6273 L 19.5068,1.6273 L 19.5169,1.6369 L 19.5270,1.6369 L 19.5573,1.6654 L 19.5573,1.6749 L 19.5674,1.6844 L 19.5674,1.9033 L 19.5573,1.9033 L 19.5573,1.8938 L 19.5472,1.8938 L 19.5472,1.8843 L 19.5371,1.8843 L 19.5371,1.8748 L 19.5169,1.8748 L 19.5169,1.8653 L 18.7693,1.8653 L 18.7693,1.8748 L 18.7491,1.8748 L 18.7491,1.8843 L 18.7390,1.8843 L 18.7390,1.9033 L 18.7289,1.9033 L 18.7289,2.8074 L 18.7390,2.8074 L 18.7390,2.8264 L 18.7491,2.8264 L 18.7491,2.8360 L 18.7592,2.8360 L 18.7592,2.8455 L 18.4966,2.8455 L 18.4865,2.8360 L 18.4764,2.8360 L 18.4461,2.8074 L 18.4461,2.7979 L 18.4360,2.7884 L 18.4360,1.8938 L 18.4360,1.8653 Z" stroke="#161616" stroke-width="0.1200" stroke-linecap="round" stroke-linejoin="round" fill="#161616"/>
        <path d="M 20.0220,2.7789 L 20.0220,2.8074 L 20.0321,2.8074 L 20.0321,2.8264 L 20.0422,2.8264 L 20.0422,2.8360 L 20.0523,2.8360 L 20.0523,2.8455 L 19.7896,2.8455 L 19.7795,2.8360 L 19.7694,2.8360 L 19.7391,2.8074 L 19.7391,2.7979 L 19.7290,2.7884 L 19.7290,1.6654 L 19.7189,1.6654 L 19.7189,1.6464 L 19.7088,1.6464 L 19.7088,1.6369 L 19.6987,1.6369 L 19.6987,1.6273 L 19.9614,1.6273 L 19.9715,1.6369 L 19.9816,1.6369 L 20.0119,1.6654 L 20.0119,1.6749 L 20.0220,1.6844 L 20.0220,2.7693 L 20.0220,2.7789 Z" stroke="#161616" stroke-width="0.1200" stroke-linecap="round" stroke-linejoin="round" fill="#161616"/>
        <path d="M 21.4564,1.8653 L 20.5877,1.8653 L 20.5877,1.8748 L 20.5675,1.8748 L 20.5675,1.8843 L 20.5574,1.8843 L 20.5574,1.9033 L 20.5473,1.9033 L 20.5473,2.8074 L 20.5574,2.8074 L 20.5574,2.8264 L 20.5675,2.8264 L 20.5675,2.8360 L 20.5776,2.8360 L 20.5776,2.8455 L 20.3149,2.8455 L 20.3048,2.8360 L 20.2947,2.8360 L 20.2644,2.8074 L 20.2644,2.7979 L 20.2543,2.7884 L 20.2543,1.6844 L 20.2644,1.6749 L 20.2644,1.6654 L 20.2745,1.6559 L 20.2846,1.6559 L 20.2846,1.6464 L 20.2947,1.6369 L 20.3048,1.6369 L 20.3149,1.6273 L 21.6888,1.6273 L 21.6989,1.6369 L 21.7090,1.6369 L 21.7393,1.6654 L 21.7393,1.6749 L 21.7494,1.6844 L 21.7494,2.8074 L 21.7595,2.8074 L 21.7595,2.8264 L 21.7696,2.8264 L 21.7696,2.8360 L 21.7797,2.8360 L 21.7797,2.8455 L 21.5171,2.8455 L 21.5070,2.8360 L 21.4969,2.8360 L 21.4665,2.8074 L 21.4665,2.7979 L 21.4564,2.7884 L 21.4564,1.8938 L 21.4564,1.8653 Z" stroke="#161616" stroke-width="0.1200" stroke-linecap="round" stroke-linejoin="round" fill="#161616"/>
        <path d="M 23.2344,2.1412 L 22.3050,2.1412 L 22.2949,2.1317 L 22.2848,2.1317 L 22.2848,2.1222 L 22.2747,2.1222 L 22.2747,2.1032 L 22.2646,2.1032 L 22.2646,2.3411 L 22.2747,2.3411 L 22.2747,2.3601 L 22.2848,2.3601 L 22.2848,2.3696 L 22.2949,2.3696 L 22.3050,2.3792 L 23.2445,2.3792 L 23.2647,2.3601 L 23.2748,2.3601 L 23.2950,2.3411 L 23.2950,2.3316 L 23.3051,2.3221 L 23.3051,2.3125 L 23.3152,2.3030 L 23.3152,2.2840 L 23.3253,2.2745 L 23.3253,2.2364 L 23.3152,2.2269 L 23.3152,2.1983 L 23.3051,2.1983 L 23.3051,2.1888 L 23.2748,2.1603 L 23.2647,2.1603 L 23.2647,2.1508 L 23.2546,2.1508 L 23.2445,2.1412 L 23.2344,2.1412 Z" stroke="#161616" stroke-width="0.1200" stroke-linecap="round" stroke-linejoin="round" fill="#161616"/>
        <path d="M 23.9314,1.8653 L 23.6284,1.8653 L 23.6183,1.8557 L 23.6082,1.8557 L 23.5778,1.8272 L 23.5778,1.8177 L 23.5677,1.8082 L 23.5677,1.6844 L 23.5778,1.6749 L 23.5778,1.6654 L 23.5879,1.6559 L 23.5981,1.6559 L 23.5981,1.6464 L 23.6082,1.6369 L 23.6183,1.6369 L 23.6284,1.6273 L 25.0022,1.6273 L 25.0123,1.6369 L 25.0224,1.6369 L 25.0527,1.6654 L 25.0527,1.6749 L 25.0628,1.6844 L 25.0628,1.9033 L 25.0527,1.9033 L 25.0527,1.8938 L 25.0426,1.8938 L 25.0426,1.8843 L 25.0325,1.8843 L 25.0325,1.8748 L 25.0123,1.8748 L 25.0123,1.8653 L 24.2648,1.8653 L 24.2648,1.8748 L 24.2446,1.8748 L 24.2446,1.8843 L 24.2345,1.8843 L 24.2345,1.9033 L 24.2244,1.9033 L 24.2244,2.8074 L 24.2345,2.8074 L 24.2345,2.8264 L 24.2446,2.8264 L 24.2446,2.8360 L 24.2547,2.8360 L 24.2547,2.8455 L 23.9920,2.8455 L 23.9819,2.8360 L 23.9718,2.8360 L 23.9415,2.8074 L 23.9415,2.7979 L 23.9314,2.7884 L 23.9314,1.8938 L 23.9314,1.8653 Z" stroke="#161616" stroke-width="0.1200" stroke-linecap="round" stroke-linejoin="round" fill="#161616"/>
        <path d="M 23.3354,2.6076 L 23.3556,2.6076 L 23.3556,2.5980 L 23.3758,2.5980 L 23.3758,2.5885 L 23.3859,2.5885 L 23.3859,2.5790 L 23.3960,2.5790 L 23.3960,2.5695 L 23.4061,2.5695 L 23.4061,2.7884 L 23.3960,2.7979 L 23.3960,2.8074 L 23.3859,2.8169 L 23.3859,2.8264 L 23.3758,2.8264 L 23.3657,2.8360 L 23.3556,2.8360 L 23.3455,2.8455 L 21.9716,2.8455 L 21.9615,2.8360 L 21.9514,2.8360 L 21.9211,2.8074 L 21.9211,2.7979 L 21.9110,2.7884 L 21.9110,1.6844 L 21.9211,1.6749 L 21.9211,1.6654 L 21.9312,1.6559 L 21.9413,1.6559 L 21.9413,1.6464 L 21.9514,1.6369 L 21.9615,1.6369 L 21.9716,1.6273 L 23.3455,1.6273 L 23.3556,1.6369 L 23.3657,1.6369 L 23.3960,1.6654 L 23.3960,1.6749 L 23.4061,1.6844 L 23.4061,1.9033 L 23.3960,1.9033 L 23.3960,1.8938 L 23.3859,1.8938 L 23.3859,1.8843 L 23.3758,1.8843 L 23.3758,1.8748 L 23.3556,1.8748 L 23.3556,1.8653 L 22.2444,1.8653 L 22.2444,1.8748 L 22.2242,1.8748 L 22.2242,1.8843 L 22.2141,1.8843 L 22.2141,1.9033 L 22.2040,1.9033 L 22.2040,2.6076 L 23.3253,2.6076 L 23.3354,2.6076 Z" stroke="#161616" stroke-width="0.1200" stroke-linecap="round" stroke-linejoin="round" fill="#161616"/>
        <path d="M 15.2640,2.4934 L 15.2640,2.8455 L 15.7489,2.8455 L 15.7489,2.4934 L 15.2640,2.4934 Z" stroke="#ED3440" stroke-width="0.1200" stroke-linecap="round" stroke-linejoin="round" fill="#ED3440"/>
        <path d="M 14.7589,2.0651 L 15.1731,2.0651 L 15.1731,2.4077 L 14.7589,2.4077 L 14.7589,2.0651 Z" stroke="#ED3440" stroke-width="0.1200" stroke-linecap="round" stroke-linejoin="round" fill="#ED3440"/>
        <path d="M 15.8398,2.4934 L 15.8398,2.8455 L 15.9913,2.8455 L 16.0014,2.8360 L 16.0418,2.8360 L 16.0519,2.8264 L 16.0721,2.8264 L 16.0923,2.8169 L 16.1024,2.8074 L 16.1226,2.7979 L 16.1428,2.7789 L 16.1630,2.7693 L 16.1732,2.7598 L 16.1833,2.7408 L 16.1934,2.7313 L 16.2338,2.6551 L 16.2338,2.6361 L 16.2439,2.6076 L 16.2439,2.5790 L 16.2540,2.5505 L 16.2540,2.4934 L 15.8499,2.4934 L 15.8398,2.4934 Z" stroke="#ED3440" stroke-width="0.1200" stroke-linecap="round" stroke-linejoin="round" fill="#ED3440"/>
        <path d="M 15.8398,2.0651 L 16.2540,2.0651 L 16.2540,2.4077 L 15.8398,2.4077 L 15.8398,2.0651 Z" stroke="#ED3440" stroke-width="0.1200" stroke-linecap="round" stroke-linejoin="round" fill="#ED3440"/>
        <path d="M 15.1731,2.4934 L 15.1731,2.8455 L 15.0215,2.8455 L 15.0114,2.8360 L 14.9710,2.8360 L 14.9609,2.8264 L 14.9407,2.8264 L 14.9205,2.8169 L 14.9104,2.8074 L 14.8902,2.7979 L 14.8700,2.7789 L 14.8498,2.7693 L 14.8397,2.7598 L 14.8296,2.7408 L 14.8195,2.7313 L 14.7791,2.6551 L 14.7791,2.6361 L 14.7690,2.6076 L 14.7690,2.5790 L 14.7589,2.5505 L 14.7589,2.4934 L 15.1630,2.4934 L 15.1731,2.4934 Z" stroke="#ED3440" stroke-width="0.1200" stroke-linecap="round" stroke-linejoin="round" fill="#ED3440"/>
        <path d="M 15.2640,1.6273 L 15.2640,1.9795 L 15.7489,1.9795 L 15.7489,1.6273 L 15.2640,1.6273 Z" stroke="#ED3440" stroke-width="0.1200" stroke-linecap="round" stroke-linejoin="round" fill="#ED3440"/>
        <path d="M 15.8398,1.9795 L 15.8398,1.6273 L 15.9913,1.6273 L 16.0014,1.6369 L 16.0418,1.6369 L 16.0519,1.6464 L 16.0721,1.6464 L 16.0923,1.6559 L 16.1024,1.6654 L 16.1226,1.6749 L 16.1428,1.6940 L 16.1630,1.7035 L 16.1732,1.7130 L 16.1833,1.7320 L 16.1934,1.7415 L 16.2338,1.8177 L 16.2338,1.8367 L 16.2439,1.8653 L 16.2439,1.8938 L 16.2540,1.9224 L 16.2540,1.9795 L 15.8499,1.9795 L 15.8398,1.9795 Z" stroke="#ED3440" stroke-width="0.1200" stroke-linecap="round" stroke-linejoin="round" fill="#ED3440"/>
        <path d="M 15.1731,1.9795 L 15.1731,1.6273 L 15.0215,1.6273 L 15.0114,1.6369 L 14.9710,1.6369 L 14.9609,1.6464 L 14.9407,1.6464 L 14.9205,1.6559 L 14.9104,1.6654 L 14.8902,1.6749 L 14.8700,1.6940 L 14.8498,1.7035 L 14.8397,1.7130 L 14.8296,1.7320 L 14.8195,1.7415 L 14.7791,1.8177 L 14.7791,1.8367 L 14.7690,1.8653 L 14.7690,1.8938 L 14.7589,1.9224 L 14.7589,1.9795 L 15.1630,1.9795 L 15.1731,1.9795 Z" stroke="#ED3440" stroke-width="0.1200" stroke-linecap="round" stroke-linejoin="round" fill="#ED3440"/>
        <text font-family="Symbol" fill="#000000" style="white-space:pre;" text-anchor="start" x="24.6402" y="2.9201" font-size="0.6197"><![CDATA[]]></text>
        <ellipse cx="95.7769" cy="7.9763" rx="0.2644" ry="0.2700" fill="#000000" stroke="#000000" stroke-width="0.1200" stroke-linecap="round" stroke-linejoin="round"/>
        <ellipse cx="95.7769" cy="7.9763" rx="0.2644" ry="0.2700" fill="none" stroke="#0A0A0A" stroke-width="0.1200" stroke-linecap="round" stroke-linejoin="round"/>
        <path d="M 45.5304,3.3762 L 44.8339,3.3762 L 44.8339,4.0724 L 45.5304,4.0724 L 45.5304,3.3762 Z" stroke="#000000" stroke-width="0.1200" stroke-linecap="round" stroke-linejoin="round" fill="#00FF00"/>
        <path d="M 45.5304,5.0122 L 44.8339,5.0122 L 44.8339,5.7083 L 45.5304,5.7083 L 45.5304,5.0122 Z" stroke="#000000" stroke-width="0.1200" stroke-linecap="round" stroke-linejoin="round" fill="#00FF00"/>
        <path d="M 45.5304,6.6829 L 44.8339,6.6829 L 44.8339,7.3790 L 45.5304,7.3790 L 45.5304,6.6829 Z" stroke="#000000" stroke-width="0.1200" stroke-linecap="round" stroke-linejoin="round" fill="#00FF00"/>
        <path d="M 45.5304,8.3188 L 44.8339,8.3188 L 44.8339,9.0149 L 45.5304,9.0149 L 45.5304,8.3188 Z" stroke="#000000" stroke-width="0.1200" stroke-linecap="round" stroke-linejoin="round" fill="#00FF00"/>
        <text font-family="Arial" fill="#000000" style="white-space:pre;" font-weight="400" text-anchor="start" x="59.4593" y="10.1619" font-size="0.1915"><![CDATA[STATUS]]></text>
        <text font-family="Arial" fill="#000000" style="white-space:pre;" font-weight="400" text-anchor="start" x="59.4593" y="11.6934" font-size="0.1915"><![CDATA[POWER]]></text>
        <text font-family="Arial" fill="#000000" style="white-space:pre;" font-weight="400" text-anchor="start" x="59.4593" y="10.6666" font-size="0.1915"><![CDATA[ALARM]]></text>
        <text font-family="Arial" fill="#000000" style="white-space:pre;" font-weight="400" text-anchor="start" x="59.4593" y="11.1887" font-size="0.1915"><![CDATA[HA]]></text>
        <text font-family="Arial" fill="#0000FF" style="white-space:pre;" font-weight="400" text-anchor="start" x="63.9166" y="12.4591" font-size="0.1915"><![CDATA[FortiASIC Powered]]></text>
        <text font-family="Arial" fill="#0000FF" style="white-space:pre;" font-weight="400" text-anchor="start" x="62.2974" y="12.1981" font-size="0.1915"><![CDATA[1/2]]></text>
        <text font-family="Arial" fill="#0000FF" style="white-space:pre;" font-weight="400" text-anchor="start" x="66.8765" y="12.1981" font-size="0.1915"><![CDATA[7/8]]></text>
        <text font-family="Arial" fill="#0000FF" style="white-space:pre;" font-weight="400" text-anchor="start" x="63.8296" y="12.1981" font-size="0.1915"><![CDATA[3/4]]></text>
        <text font-family="Arial" fill="#0000FF" style="white-space:pre;" font-weight="400" text-anchor="start" x="65.3443" y="12.1981" font-size="0.1915"><![CDATA[5/6]]></text>
        <text font-family="Arial" fill="#000000" style="white-space:pre;" font-weight="400" text-anchor="start" x="68.4087" y="12.1981" font-size="0.1915"><![CDATA[9/10]]></text>
        <text font-family="Arial" fill="#000000" style="white-space:pre;" font-weight="400" text-anchor="start" x="69.8016" y="12.1981" font-size="0.1915"><![CDATA[CONSOLE]]></text>
        <text font-family="Arial" fill="#000000" style="white-space:pre;" font-weight="400" text-anchor="start" x="71.6298" y="12.1981" font-size="0.1915"><![CDATA[USB]]></text>
        <text font-family="Arial" fill="#000000" style="white-space:pre;" font-weight="400" text-anchor="start" x="72.8660" y="12.1981" font-size="0.1915"><![CDATA[USB MGMT]]></text>
        <path d="M 55.3607,1.6850 L 55.3607,1.8212 L 55.1597,1.8212 L 55.1597,2.2053 L 54.3180,2.2053 L 54.3180,2.2425 L 54.0542,2.2425 L 54.0542,1.8212 L 54.1045,1.8212 L 54.1045,2.2053 L 54.3180,2.2053 L 54.3180,3.0602 L 54.4060,3.0602 L 54.4060,3.5062 L 54.3180,3.5062 L 54.3180,4.4726 L 57.5339,4.4726 L 57.5339,3.5062 L 57.4460,3.5062 L 57.4460,3.0602 L 57.5339,3.0602 L 57.5339,2.2053 L 57.7474,2.2053 L 57.7474,1.8212 L 57.7977,1.8212 L 57.7977,2.2425 L 57.5339,2.2425 L 57.5339,2.2053 L 56.6922,2.2053 L 56.6922,1.8212 L 56.4912,1.8212 L 56.4912,1.6850 L 55.3607,1.6850 Z" stroke="#000000" stroke-width="0.1200" stroke-linecap="round" stroke-linejoin="round" fill="#000000"/>
        <path d="M 55.1597,1.8336 L 54.1045,1.8336 L 54.1045,2.2177 L 55.1597,2.2177 L 55.1597,1.8336 Z" stroke="#494949" stroke-width="0.1200" stroke-linecap="round" stroke-linejoin="round" fill="#000000"/>
        <path d="M 57.7474,1.8336 L 56.6922,1.8336 L 56.6922,2.2177 L 57.7474,2.2177 L 57.7474,1.8336 Z" stroke="#494949" stroke-width="0.1200" stroke-linecap="round" stroke-linejoin="round" fill="#000000"/>
        <path d="M 55.3607,9.3664 L 55.3607,9.2301 L 55.1597,9.2301 L 55.1597,8.8460 L 54.3180,8.8460 L 54.3180,8.8088 L 54.0542,8.8088 L 54.0542,9.2301 L 54.1045,9.2301 L 54.1045,8.8460 L 54.3180,8.8460 L 54.3180,7.9912 L 54.4060,7.9912 L 54.4060,7.5451 L 54.3180,7.5451 L 54.3180,6.5788 L 57.5339,6.5788 L 57.5339,7.5451 L 57.4460,7.5451 L 57.4460,7.9912 L 57.5339,7.9912 L 57.5339,8.8460 L 57.7474,8.8460 L 57.7474,9.2301 L 57.7977,9.2301 L 57.7977,8.8088 L 57.5339,8.8088 L 57.5339,8.8460 L 56.6922,8.8460 L 56.6922,9.2301 L 56.4912,9.2301 L 56.4912,9.3664 L 55.3607,9.3664 Z" stroke="#000000" stroke-width="0.1200" stroke-linecap="round" stroke-linejoin="round" fill="#000000"/>
        <path d="M 55.1597,8.8460 L 54.1045,8.8460 L 54.1045,9.2301 L 55.1597,9.2301 L 55.1597,8.8460 Z" stroke="#494949" stroke-width="0.1200" stroke-linecap="round" stroke-linejoin="round" fill="#000000"/>
        <path d="M 57.7474,8.8460 L 56.6922,8.8460 L 56.6922,9.2301 L 57.7474,9.2301 L 57.7474,8.8460 Z" stroke="#494949" stroke-width="0.1200" stroke-linecap="round" stroke-linejoin="round" fill="#000000"/>
        <path d="M 60.3101,1.6850 L 60.3101,1.8212 L 60.1091,1.8212 L 60.1091,2.2053 L 59.2674,2.2053 L 59.2674,2.2425 L 59.0036,2.2425 L 59.0036,1.8212 L 59.0539,1.8212 L 59.0539,2.2053 L 59.2674,2.2053 L 59.2674,3.0602 L 59.3554,3.0602 L 59.3554,3.5062 L 59.2674,3.5062 L 59.2674,4.4726 L 62.4833,4.4726 L 62.4833,3.5062 L 62.3954,3.5062 L 62.3954,3.0602 L 62.4833,3.0602 L 62.4833,2.2053 L 62.6969,2.2053 L 62.6969,1.8212 L 62.7471,1.8212 L 62.7471,2.2425 L 62.4833,2.2425 L 62.4833,2.2053 L 61.6417,2.2053 L 61.6417,1.8212 L 61.4407,1.8212 L 61.4407,1.6850 L 60.3101,1.6850 Z" stroke="#000000" stroke-width="0.1200" stroke-linecap="round" stroke-linejoin="round" fill="#000000"/>
        <path d="M 60.1091,1.8336 L 59.0539,1.8336 L 59.0539,2.2177 L 60.1091,2.2177 L 60.1091,1.8336 Z" stroke="#494949" stroke-width="0.1200" stroke-linecap="round" stroke-linejoin="round" fill="#000000"/>
        <path d="M 62.6969,1.8336 L 61.6417,1.8336 L 61.6417,2.2177 L 62.6969,2.2177 L 62.6969,1.8336 Z" stroke="#494949" stroke-width="0.1200" stroke-linecap="round" stroke-linejoin="round" fill="#000000"/>
        <path d="M 60.3101,9.3664 L 60.3101,9.2301 L 60.1091,9.2301 L 60.1091,8.8460 L 59.2674,8.8460 L 59.2674,8.8088 L 59.0036,8.8088 L 59.0036,9.2301 L 59.0539,9.2301 L 59.0539,8.8460 L 59.2674,8.8460 L 59.2674,7.9912 L 59.3554,7.9912 L 59.3554,7.5451 L 59.2674,7.5451 L 59.2674,6.5788 L 62.4833,6.5788 L 62.4833,7.5451 L 62.3954,7.5451 L 62.3954,7.9912 L 62.4833,7.9912 L 62.4833,8.8460 L 62.6969,8.8460 L 62.6969,9.2301 L 62.7471,9.2301 L 62.7471,8.8088 L 62.4833,8.8088 L 62.4833,8.8460 L 61.6417,8.8460 L 61.6417,9.2301 L 61.4407,9.2301 L 61.4407,9.3664 L 60.3101,9.3664 Z" stroke="#000000" stroke-width="0.1200" stroke-linecap="round" stroke-linejoin="round" fill="#000000"/>
        <path d="M 60.1091,8.8460 L 59.0539,8.8460 L 59.0539,9.2301 L 60.1091,9.2301 L 60.1091,8.8460 Z" stroke="#494949" stroke-width="0.1200" stroke-linecap="round" stroke-linejoin="round" fill="#000000"/>
        <path d="M 62.6969,8.8460 L 61.6417,8.8460 L 61.6417,9.2301 L 62.6969,9.2301 L 62.6969,8.8460 Z" stroke="#494949" stroke-width="0.1200" stroke-linecap="round" stroke-linejoin="round" fill="#000000"/>
        <path d="M 65.2595,1.6850 L 65.2595,1.8212 L 65.0585,1.8212 L 65.0585,2.2053 L 64.2169,2.2053 L 64.2169,2.2425 L 63.9531,2.2425 L 63.9531,1.8212 L 64.0033,1.8212 L 64.0033,2.2053 L 64.2169,2.2053 L 64.2169,3.0602 L 64.3048,3.0602 L 64.3048,3.5062 L 64.2169,3.5062 L 64.2169,4.4726 L 67.4327,4.4726 L 67.4327,3.5062 L 67.3448,3.5062 L 67.3448,3.0602 L 67.4327,3.0602 L 67.4327,2.2053 L 67.6463,2.2053 L 67.6463,1.8212 L 67.6965,1.8212 L 67.6965,2.2425 L 67.4327,2.2425 L 67.4327,2.2053 L 66.5911,2.2053 L 66.5911,1.8212 L 66.3901,1.8212 L 66.3901,1.6850 L 65.2595,1.6850 Z" stroke="#000000" stroke-width="0.1200" stroke-linecap="round" stroke-linejoin="round" fill="#000000"/>
        <path d="M 65.0585,1.8336 L 64.0033,1.8336 L 64.0033,2.2177 L 65.0585,2.2177 L 65.0585,1.8336 Z" stroke="#494949" stroke-width="0.1200" stroke-linecap="round" stroke-linejoin="round" fill="#000000"/>
        <path d="M 67.6463,1.8336 L 66.5911,1.8336 L 66.5911,2.2177 L 67.6463,2.2177 L 67.6463,1.8336 Z" stroke="#494949" stroke-width="0.1200" stroke-linecap="round" stroke-linejoin="round" fill="#000000"/>
        <path d="M 65.2595,9.3664 L 65.2595,9.2301 L 65.0585,9.2301 L 65.0585,8.8460 L 64.2169,8.8460 L 64.2169,8.8088 L 63.9531,8.8088 L 63.9531,9.2301 L 64.0033,9.2301 L 64.0033,8.8460 L 64.2169,8.8460 L 64.2169,7.9912 L 64.3048,7.9912 L 64.3048,7.5451 L 64.2169,7.5451 L 64.2169,6.5788 L 67.4327,6.5788 L 67.4327,7.5451 L 67.3448,7.5451 L 67.3448,7.9912 L 67.4327,7.9912 L 67.4327,8.8460 L 67.6463,8.8460 L 67.6463,9.2301 L 67.6965,9.2301 L 67.6965,8.8088 L 67.4327,8.8088 L 67.4327,8.8460 L 66.5911,8.8460 L 66.5911,9.2301 L 66.3901,9.2301 L 66.3901,9.3664 L 65.2595,9.3664 Z" stroke="#000000" stroke-width="0.1200" stroke-linecap="round" stroke-linejoin="round" fill="#000000"/>
        <path d="M 65.0585,8.8460 L 64.0033,8.8460 L 64.0033,9.2301 L 65.0585,9.2301 L 65.0585,8.8460 Z" stroke="#494949" stroke-width="0.1200" stroke-linecap="round" stroke-linejoin="round" fill="#000000"/>
        <path d="M 67.6463,8.8460 L 66.5911,8.8460 L 66.5911,9.2301 L 67.6463,9.2301 L 67.6463,8.8460 Z" stroke="#494949" stroke-width="0.1200" stroke-linecap="round" stroke-linejoin="round" fill="#000000"/>
        <path d="M 70.2089,1.6850 L 70.2089,1.8212 L 70.0079,1.8212 L 70.0079,2.2053 L 69.1663,2.2053 L 69.1663,2.2425 L 68.9025,2.2425 L 68.9025,1.8212 L 68.9527,1.8212 L 68.9527,2.2053 L 69.1663,2.2053 L 69.1663,3.0602 L 69.2542,3.0602 L 69.2542,3.5062 L 69.1663,3.5062 L 69.1663,4.4726 L 72.3821,4.4726 L 72.3821,3.5062 L 72.2942,3.5062 L 72.2942,3.0602 L 72.3821,3.0602 L 72.3821,2.2053 L 72.5957,2.2053 L 72.5957,1.8212 L 72.6460,1.8212 L 72.6460,2.2425 L 72.3821,2.2425 L 72.3821,2.2053 L 71.5405,2.2053 L 71.5405,1.8212 L 71.3395,1.8212 L 71.3395,1.6850 L 70.2089,1.6850 Z" stroke="#000000" stroke-width="0.1200" stroke-linecap="round" stroke-linejoin="round" fill="#000000"/>
        <path d="M 70.0079,1.8336 L 68.9527,1.8336 L 68.9527,2.2177 L 70.0079,2.2177 L 70.0079,1.8336 Z" stroke="#494949" stroke-width="0.1200" stroke-linecap="round" stroke-linejoin="round" fill="#000000"/>
        <path d="M 72.5957,1.8336 L 71.5405,1.8336 L 71.5405,2.2177 L 72.5957,2.2177 L 72.5957,1.8336 Z" stroke="#494949" stroke-width="0.1200" stroke-linecap="round" stroke-linejoin="round" fill="#000000"/>
        <path d="M 70.2089,9.3664 L 70.2089,9.2301 L 70.0079,9.2301 L 70.0079,8.8460 L 69.1663,8.8460 L 69.1663,8.8088 L 68.9025,8.8088 L 68.9025,9.2301 L 68.9527,9.2301 L 68.9527,8.8460 L 69.1663,8.8460 L 69.1663,7.9912 L 69.2542,7.9912 L 69.2542,7.5451 L 69.1663,7.5451 L 69.1663,6.5788 L 72.3821,6.5788 L 72.3821,7.5451 L 72.2942,7.5451 L 72.2942,7.9912 L 72.3821,7.9912 L 72.3821,8.8460 L 72.5957,8.8460 L 72.5957,9.2301 L 72.6460,9.2301 L 72.6460,8.8088 L 72.3821,8.8088 L 72.3821,8.8460 L 71.5405,8.8460 L 71.5405,9.2301 L 71.3395,9.2301 L 71.3395,9.3664 L 70.2089,9.3664 Z" stroke="#000000" stroke-width="0.1200" stroke-linecap="round" stroke-linejoin="round" fill="#000000"/>
        <path d="M 70.0079,8.8460 L 68.9527,8.8460 L 68.9527,9.2301 L 70.0079,9.2301 L 70.0079,8.8460 Z" stroke="#494949" stroke-width="0.1200" stroke-linecap="round" stroke-linejoin="round" fill="#000000"/>
        <path d="M 72.5957,8.8460 L 71.5405,8.8460 L 71.5405,9.2301 L 72.5957,9.2301 L 72.5957,8.8460 Z" stroke="#494949" stroke-width="0.1200" stroke-linecap="round" stroke-linejoin="round" fill="#000000"/>
        <path d="M 75.3342,1.6850 L 75.3342,1.8212 L 75.1332,1.8212 L 75.1332,2.2053 L 74.2916,2.2053 L 74.2916,2.2425 L 74.0278,2.2425 L 74.0278,1.8212 L 74.0780,1.8212 L 74.0780,2.2053 L 74.2916,2.2053 L 74.2916,3.0602 L 74.3795,3.0602 L 74.3795,3.5062 L 74.2916,3.5062 L 74.2916,4.4726 L 77.5074,4.4726 L 77.5074,3.5062 L 77.4195,3.5062 L 77.4195,3.0602 L 77.5074,3.0602 L 77.5074,2.2053 L 77.7210,2.2053 L 77.7210,1.8212 L 77.7712,1.8212 L 77.7712,2.2425 L 77.5074,2.2425 L 77.5074,2.2053 L 76.6658,2.2053 L 76.6658,1.8212 L 76.4648,1.8212 L 76.4648,1.6850 L 75.3342,1.6850 Z" stroke="#000000" stroke-width="0.1200" stroke-linecap="round" stroke-linejoin="round" fill="#000000"/>
        <path d="M 75.1332,1.8336 L 74.0780,1.8336 L 74.0780,2.2177 L 75.1332,2.2177 L 75.1332,1.8336 Z" stroke="#494949" stroke-width="0.1200" stroke-linecap="round" stroke-linejoin="round" fill="#000000"/>
        <path d="M 77.7210,1.8336 L 76.6658,1.8336 L 76.6658,2.2177 L 77.7210,2.2177 L 77.7210,1.8336 Z" stroke="#494949" stroke-width="0.1200" stroke-linecap="round" stroke-linejoin="round" fill="#000000"/>
        <path d="M 75.3342,9.3664 L 75.3342,9.2301 L 75.1332,9.2301 L 75.1332,8.8460 L 74.2916,8.8460 L 74.2916,8.8088 L 74.0278,8.8088 L 74.0278,9.2301 L 74.0780,9.2301 L 74.0780,8.8460 L 74.2916,8.8460 L 74.2916,7.9912 L 74.3795,7.9912 L 74.3795,7.5451 L 74.2916,7.5451 L 74.2916,6.5788 L 77.5074,6.5788 L 77.5074,7.5451 L 77.4195,7.5451 L 77.4195,7.9912 L 77.5074,7.9912 L 77.5074,8.8460 L 77.7210,8.8460 L 77.7210,9.2301 L 77.7712,9.2301 L 77.7712,8.8088 L 77.5074,8.8088 L 77.5074,8.8460 L 76.6658,8.8460 L 76.6658,9.2301 L 76.4648,9.2301 L 76.4648,9.3664 L 75.3342,9.3664 Z" stroke="#000000" stroke-width="0.1200" stroke-linecap="round" stroke-linejoin="round" fill="#000000"/>
        <path d="M 75.1332,8.8460 L 74.0780,8.8460 L 74.0780,9.2301 L 75.1332,9.2301 L 75.1332,8.8460 Z" stroke="#494949" stroke-width="0.1200" stroke-linecap="round" stroke-linejoin="round" fill="#000000"/>
        <path d="M 77.7210,8.8460 L 76.6658,8.8460 L 76.6658,9.2301 L 77.7210,9.2301 L 77.7210,8.8460 Z" stroke="#494949" stroke-width="0.1200" stroke-linecap="round" stroke-linejoin="round" fill="#000000"/>
        <path d="M 79.3674,6.2445 L 79.3674,8.3676 L 80.2605,8.3676 L 80.2605,8.8672 L 80.6233,8.8672 L 80.6233,9.3667 L 81.6837,9.3667 L 81.6837,8.8672 L 82.0465,8.8672 L 82.0465,8.3676 L 82.9395,8.3676 L 82.9395,6.2445 L 79.3674,6.2445 Z" stroke="#161616" stroke-width="0.1200" stroke-linecap="round" stroke-linejoin="round" fill="#000000"/>
        <path d="M 84.5859,5.0063 L 84.5438,5.0063 L 84.5438,5.0203 L 84.5156,5.0203 L 84.5016,5.0344 L 84.4875,5.0344 L 84.4875,5.0484 L 84.4734,5.0484 L 84.4734,5.0625 L 84.4594,5.0625 L 84.4594,5.0766 L 84.4453,5.0906 L 84.4453,5.1188 L 84.4313,5.1188 L 84.4313,6.4969 L 84.4453,6.4969 L 84.4453,6.5250 L 84.4594,6.5391 L 84.4594,6.5531 L 84.4734,6.5531 L 84.4734,6.5672 L 84.4875,6.5672 L 84.4875,6.5813 L 84.5016,6.5813 L 84.5156,6.5953 L 84.5438,6.5953 L 84.5438,6.6094 L 88.0594,6.6094 L 88.0594,6.5953 L 88.0875,6.5953 L 88.1016,6.5813 L 88.1156,6.5813 L 88.1156,6.5672 L 88.1297,6.5672 L 88.1297,6.5531 L 88.1438,6.5531 L 88.1438,6.5391 L 88.1578,6.5250 L 88.1578,6.4969 L 88.1719,6.4969 L 88.1719,5.1188 L 88.1578,5.1188 L 88.1578,5.0906 L 88.1438,5.0766 L 88.1438,5.0625 L 88.1297,5.0625 L 88.1297,5.0484 L 88.1156,5.0484 L 88.1156,5.0344 L 88.1016,5.0344 L 88.0875,5.0203 L 88.0594,5.0203 L 88.0594,5.0063 L 84.6000,5.0063 L 84.5859,5.0063 Z" stroke="#000000" stroke-width="0.1200" stroke-linecap="round" stroke-linejoin="round" fill="#BFBFBF"/>
        <path d="M 84.6422,5.1328 L 84.6000,5.1328 L 84.6000,5.1469 L 84.5859,5.1469 L 84.5859,5.1609 L 84.5719,5.1609 L 84.5719,5.1750 L 84.5578,5.1750 L 84.5578,6.4406 L 84.5719,6.4547 L 84.5719,6.4688 L 84.5859,6.4688 L 84.5859,6.4828 L 84.6000,6.4828 L 84.6141,6.4969 L 88.0031,6.4969 L 88.0031,6.4828 L 88.0172,6.4828 L 88.0172,6.4688 L 88.0312,6.4688 L 88.0312,6.4547 L 88.0453,6.4406 L 88.0453,5.1750 L 88.0312,5.1750 L 88.0312,5.1609 L 88.0172,5.1469 L 88.0031,5.1469 L 88.0031,5.1328 L 84.6562,5.1328 L 84.6422,5.1328 Z" stroke="#F7DDB9" stroke-width="0.1200" stroke-linecap="round" stroke-linejoin="round" fill="#000000"/>
        <path d="M 85.3875,5.8359 L 85.0781,5.8359 L 85.0781,5.7656 L 85.3875,5.7656 L 85.3875,5.8359 Z" stroke="#000000" stroke-width="0.1200" stroke-linecap="round" stroke-linejoin="round" fill="#E2E2CC"/>
        <path d="M 86.0906,5.8359 L 85.7812,5.8359 L 85.7812,5.7656 L 86.0906,5.7656 L 86.0906,5.8359 Z" stroke="#000000" stroke-width="0.1200" stroke-linecap="round" stroke-linejoin="round" fill="#E2E2CC"/>
        <path d="M 86.7797,5.8359 L 86.4703,5.8359 L 86.4703,5.7656 L 86.7797,5.7656 L 86.7797,5.8359 Z" stroke="#000000" stroke-width="0.1200" stroke-linecap="round" stroke-linejoin="round" fill="#E2E2CC"/>
        <path d="M 87.4969,5.8359 L 87.1875,5.8359 L 87.1875,5.7656 L 87.4969,5.7656 L 87.4969,5.8359 Z" stroke="#000000" stroke-width="0.1200" stroke-linecap="round" stroke-linejoin="round" fill="#E2E2CC"/>
        <path d="M 87.8344,5.4000 L 87.8344,5.3719 L 87.8203,5.3438 L 87.7922,5.3297 L 84.8109,5.3297 L 84.7828,5.3438 L 84.7688,5.3719 L 84.7688,5.7234 L 84.7828,5.7516 L 84.8109,5.7656 L 87.7922,5.7656 L 87.8203,5.7516 L 87.8344,5.7234 L 87.8344,5.6953 L 87.8344,5.4000 Z" stroke="#000000" stroke-width="0.1200" stroke-linecap="round" stroke-linejoin="round" fill="#7F7F7F"/>
        <path d="M 87.7219,5.5406 L 87.7078,5.4844 L 87.6516,5.4281 L 87.5953,5.4141 L 85.0078,5.4141 L 84.9516,5.4281 L 84.8953,5.4844 L 84.8813,5.5406 L 84.8953,5.5969 L 84.9516,5.6531 L 85.0078,5.6672 L 87.5953,5.6672 L 87.6516,5.6531 L 87.7078,5.5969 L 87.7219,5.5406 Z" stroke="#999999" stroke-width="0.1200" stroke-linecap="round" stroke-linejoin="round" fill="#999999"/>
        <path d="M 84.5859,7.4250 L 84.5438,7.4250 L 84.5438,7.4391 L 84.5156,7.4391 L 84.5016,7.4531 L 84.4875,7.4531 L 84.4875,7.4672 L 84.4734,7.4672 L 84.4734,7.4813 L 84.4594,7.4813 L 84.4594,7.4953 L 84.4453,7.5094 L 84.4453,7.5375 L 84.4313,7.5375 L 84.4313,8.9156 L 84.4453,8.9156 L 84.4453,8.9438 L 84.4594,8.9578 L 84.4594,8.9719 L 84.4734,8.9719 L 84.4734,8.9859 L 84.4875,8.9859 L 84.4875,9.0000 L 84.5016,9.0000 L 84.5156,9.0141 L 84.5438,9.0141 L 84.5438,9.0281 L 88.0594,9.0281 L 88.0594,9.0141 L 88.0875,9.0141 L 88.1016,9.0000 L 88.1156,9.0000 L 88.1156,8.9859 L 88.1297,8.9859 L 88.1297,8.9719 L 88.1438,8.9719 L 88.1438,8.9578 L 88.1578,8.9438 L 88.1578,8.9156 L 88.1719,8.9156 L 88.1719,7.5375 L 88.1578,7.5375 L 88.1578,7.5094 L 88.1438,7.4953 L 88.1438,7.4813 L 88.1297,7.4813 L 88.1297,7.4672 L 88.1156,7.4672 L 88.1156,7.4531 L 88.1016,7.4531 L 88.0875,7.4391 L 88.0594,7.4391 L 88.0594,7.4250 L 84.6000,7.4250 L 84.5859,7.4250 Z" stroke="#000000" stroke-width="0.1200" stroke-linecap="round" stroke-linejoin="round" fill="#BFBFBF"/>
        <path d="M 84.6422,7.5516 L 84.6000,7.5516 L 84.6000,7.5656 L 84.5859,7.5656 L 84.5859,7.5797 L 84.5719,7.5797 L 84.5719,7.5938 L 84.5578,7.5938 L 84.5578,8.8594 L 84.5719,8.8734 L 84.5719,8.8875 L 84.5859,8.8875 L 84.5859,8.9016 L 84.6000,8.9016 L 84.6141,8.9156 L 88.0031,8.9156 L 88.0031,8.9016 L 88.0172,8.9016 L 88.0172,8.8875 L 88.0312,8.8875 L 88.0312,8.8734 L 88.0453,8.8594 L 88.0453,7.5938 L 88.0312,7.5938 L 88.0312,7.5797 L 88.0172,7.5656 L 88.0031,7.5656 L 88.0031,7.5516 L 84.6562,7.5516 L 84.6422,7.5516 Z" stroke="#F7DDB9" stroke-width="0.1200" stroke-linecap="round" stroke-linejoin="round" fill="#000000"/>
        <path d="M 85.3875,8.2547 L 85.0781,8.2547 L 85.0781,8.1844 L 85.3875,8.1844 L 85.3875,8.2547 Z" stroke="#000000" stroke-width="0.1200" stroke-linecap="round" stroke-linejoin="round" fill="#E2E2CC"/>
        <path d="M 86.0906,8.2547 L 85.7812,8.2547 L 85.7812,8.1844 L 86.0906,8.1844 L 86.0906,8.2547 Z" stroke="#000000" stroke-width="0.1200" stroke-linecap="round" stroke-linejoin="round" fill="#E2E2CC"/>
        <path d="M 86.7797,8.2547 L 86.4703,8.2547 L 86.4703,8.1844 L 86.7797,8.1844 L 86.7797,8.2547 Z" stroke="#000000" stroke-width="0.1200" stroke-linecap="round" stroke-linejoin="round" fill="#E2E2CC"/>
        <path d="M 87.4969,8.2547 L 87.1875,8.2547 L 87.1875,8.1844 L 87.4969,8.1844 L 87.4969,8.2547 Z" stroke="#000000" stroke-width="0.1200" stroke-linecap="round" stroke-linejoin="round" fill="#E2E2CC"/>
        <path d="M 87.8344,7.8188 L 87.8344,7.7906 L 87.8203,7.7625 L 87.7922,7.7484 L 84.8109,7.7484 L 84.7828,7.7625 L 84.7688,7.7906 L 84.7688,8.1422 L 84.7828,8.1703 L 84.8109,8.1844 L 87.7922,8.1844 L 87.8203,8.1703 L 87.8344,8.1422 L 87.8344,8.1141 L 87.8344,7.8188 Z" stroke="#000000" stroke-width="0.1200" stroke-linecap="round" stroke-linejoin="round" fill="#7F7F7F"/>
        <path d="M 87.7219,7.9594 L 87.7078,7.9031 L 87.6516,7.8469 L 87.5953,7.8328 L 85.0078,7.8328 L 84.9516,7.8469 L 84.8953,7.9031 L 84.8813,7.9594 L 84.8953,8.0156 L 84.9516,8.0719 L 85.0078,8.0859 L 87.5953,8.0859 L 87.6516,8.0719 L 87.7078,8.0156 L 87.7219,7.9594 Z" stroke="#999999" stroke-width="0.1200" stroke-linecap="round" stroke-linejoin="round" fill="#999999"/>
        <path d="M 93.1810,6.3000 L 89.1587,6.3000 L 89.1587,9.3660 L 93.1810,9.3660 L 93.1810,6.3000 Z" stroke="#000000" stroke-width="0.1200" stroke-linecap="round" stroke-linejoin="round" fill="#7F7F7F"/>
        <path d="M 92.8191,6.5800 L 89.5066,6.5800 L 89.5066,9.0720 L 92.8191,9.0720 L 92.8191,6.5800 Z" stroke="#000000" stroke-width="0.1200" stroke-linecap="round" stroke-linejoin="round" fill="#DDDDDD"/>
        <path d="M 91.9980,6.9020 L 90.3417,6.9020 L 89.8268,7.4060 L 89.8268,8.7500 L 92.4990,8.7500 L 92.4990,7.4060 L 91.9980,6.9020 Z" stroke="#7F7F7F" stroke-width="0.1200" stroke-linecap="round" stroke-linejoin="round" fill="#333333"/>
        <path d="M 92.1511,7.6300 L 92.1511,7.6020 L 92.1093,7.5180 L 92.0258,7.4760 L 90.3417,7.4760 L 90.2582,7.5180 L 90.2165,7.6020 L 90.2165,8.2180 L 90.2582,8.3020 L 90.3417,8.3440 L 92.0258,8.3440 L 92.1093,8.3020 L 92.1511,8.2180 L 92.1511,8.1900 L 92.1511,7.6300 Z" stroke="#7F7F7F" stroke-width="0.1200" stroke-linecap="round" stroke-linejoin="round" fill="#7F7F7F"/>
        <path d="M 55.1017,1.8037 L 54.2328,1.8037 L 54.2328,2.1151 L 55.1017,2.1151 L 55.1017,1.8037 Z" stroke="#000000" stroke-width="0.1200" stroke-linecap="round" stroke-linejoin="round" fill="#83FF00"/>
        <path d="M 57.6776,1.8037 L 56.8086,1.8037 L 56.8086,2.1151 L 57.6776,2.1151 L 57.6776,1.8037 Z" stroke="#000000" stroke-width="0.1200" stroke-linecap="round" stroke-linejoin="round" fill="#83FF00"/>
        <path d="M 60.0517,1.8037 L 59.1828,1.8037 L 59.1828,2.1151 L 60.0517,2.1151 L 60.0517,1.8037 Z" stroke="#000000" stroke-width="0.1200" stroke-linecap="round" stroke-linejoin="round" fill="#83FF00"/>
        <path d="M 62.6276,1.8037 L 61.7586,1.8037 L 61.7586,2.1151 L 62.6276,2.1151 L 62.6276,1.8037 Z" stroke="#000000" stroke-width="0.1200" stroke-linecap="round" stroke-linejoin="round" fill="#83FF00"/>
        <path d="M 65.0017,1.8037 L 64.1328,1.8037 L 64.1328,2.1151 L 65.0017,2.1151 L 65.0017,1.8037 Z" stroke="#000000" stroke-width="0.1200" stroke-linecap="round" stroke-linejoin="round" fill="#83FF00"/>
        <path d="M 67.5776,1.8037 L 66.7086,1.8037 L 66.7086,2.1151 L 67.5776,2.1151 L 67.5776,1.8037 Z" stroke="#000000" stroke-width="0.1200" stroke-linecap="round" stroke-linejoin="round" fill="#83FF00"/>
        <path d="M 69.9517,1.8037 L 69.0828,1.8037 L 69.0828,2.1151 L 69.9517,2.1151 L 69.9517,1.8037 Z" stroke="#000000" stroke-width="0.1200" stroke-linecap="round" stroke-linejoin="round" fill="#83FF00"/>
        <path d="M 72.5276,1.8037 L 71.6586,1.8037 L 71.6586,2.1151 L 72.5276,2.1151 L 72.5276,1.8037 Z" stroke="#000000" stroke-width="0.1200" stroke-linecap="round" stroke-linejoin="round" fill="#83FF00"/>
        <path d="M 75.0569,1.8037 L 74.1879,1.8037 L 74.1879,2.1151 L 75.0569,2.1151 L 75.0569,1.8037 Z" stroke="#000000" stroke-width="0.1200" stroke-linecap="round" stroke-linejoin="round" fill="#83FF00"/>
        <path d="M 77.6483,1.8037 L 76.7793,1.8037 L 76.7793,2.1151 L 77.6483,2.1151 L 77.6483,1.8037 Z" stroke="#000000" stroke-width="0.1200" stroke-linecap="round" stroke-linejoin="round" fill="#83FF00"/>
        <path d="M 55.1017,8.8239 L 54.2328,8.8239 L 54.2328,9.1353 L 55.1017,9.1353 L 55.1017,8.8239 Z" stroke="#000000" stroke-width="0.1200" stroke-linecap="round" stroke-linejoin="round" fill="#83FF00"/>
        <path d="M 57.6776,8.8239 L 56.8086,8.8239 L 56.8086,9.1353 L 57.6776,9.1353 L 57.6776,8.8239 Z" stroke="#000000" stroke-width="0.1200" stroke-linecap="round" stroke-linejoin="round" fill="#83FF00"/>
        <path d="M 60.0517,8.8239 L 59.1828,8.8239 L 59.1828,9.1353 L 60.0517,9.1353 L 60.0517,8.8239 Z" stroke="#000000" stroke-width="0.1200" stroke-linecap="round" stroke-linejoin="round" fill="#83FF00"/>
        <path d="M 62.6276,8.8239 L 61.7586,8.8239 L 61.7586,9.1353 L 62.6276,9.1353 L 62.6276,8.8239 Z" stroke="#000000" stroke-width="0.1200" stroke-linecap="round" stroke-linejoin="round" fill="#83FF00"/>
        <path d="M 65.0017,8.8239 L 64.1328,8.8239 L 64.1328,9.1353 L 65.0017,9.1353 L 65.0017,8.8239 Z" stroke="#000000" stroke-width="0.1200" stroke-linecap="round" stroke-linejoin="round" fill="#83FF00"/>
        <path d="M 67.5776,8.8239 L 66.7086,8.8239 L 66.7086,9.1353 L 67.5776,9.1353 L 67.5776,8.8239 Z" stroke="#000000" stroke-width="0.1200" stroke-linecap="round" stroke-linejoin="round" fill="#83FF00"/>
        <path d="M 69.9517,8.8239 L 69.0828,8.8239 L 69.0828,9.1353 L 69.9517,9.1353 L 69.9517,8.8239 Z" stroke="#000000" stroke-width="0.1200" stroke-linecap="round" stroke-linejoin="round" fill="#83FF00"/>
        <path d="M 72.5276,8.8239 L 71.6586,8.8239 L 71.6586,9.1353 L 72.5276,9.1353 L 72.5276,8.8239 Z" stroke="#000000" stroke-width="0.1200" stroke-linecap="round" stroke-linejoin="round" fill="#83FF00"/>
        <path d="M 75.0569,8.8239 L 74.1879,8.8239 L 74.1879,9.1353 L 75.0569,9.1353 L 75.0569,8.8239 Z" stroke="#000000" stroke-width="0.1200" stroke-linecap="round" stroke-linejoin="round" fill="#83FF00"/>
        <path d="M 77.6483,8.8239 L 76.7793,8.8239 L 76.7793,9.1353 L 77.6483,9.1353 L 77.6483,8.8239 Z" stroke="#000000" stroke-width="0.1200" stroke-linecap="round" stroke-linejoin="round" fill="#83FF00"/>
      </g>
      <!--emf-blob end-->
    </g>
  </g>
</svg>
