<svg xmlns="http://www.w3.org/2000/svg" xmlns:xlink="http://www.w3.org/1999/xlink" version="1.1" width="7.6832000000" height="2.3568000000" viewBox="0 0 138.2967 42.4226">
  <title><![CDATA[FG-400D]]></title>
  <g transform=" scale(4.000000) ">
    <g xmlns="http://www.w3.org/2000/svg" id="Layer1521">
      <g id="Layer1522">
        <path d="  M0.7200,13.2208 L0.7200,0.7200 L0.7200,13.2208 Z M137.5767,13.2208 L137.5767,0.7200 L137.5767,13.2208 Z" style="stroke-width: 0.0240; stroke-linecap: round; stroke-linejoin: round; fill-rule: evenodd; fill: #e6e6e6; "/>
        <path d="  M0.7200,13.2208 L0.7200,0.7200 L0.7200,13.2208 Z M137.5767,13.2208 L137.5767,0.7200 L137.5767,13.2208 Z M0.7200,13.2208 L0.7200,0.7200 L137.5767,0.7200 L137.5767,13.2208 L0.7200,13.2208 Z" style="stroke-width: 0.0240; stroke: #000000; stroke-dasharray: none; stroke-linecap: round; stroke-linejoin: round; fill: none; "/>
      </g>
      <g transform=" translate(0.720000,0.720000) ">
        <!--emf-blob start-->
        <g transform="translate(-0.0000, -0.0000)">
          <path d="M 15.9806,1.9371 L 15.9806,2.9812 L 16.9163,2.9812 " stroke="#000000" stroke-width="0.1199" stroke-linecap="round" stroke-linejoin="round" fill="none"/>
          <path d="M 16.9163,1.9371 L 18.7630,1.9371 " stroke="#000000" stroke-width="0.1199" stroke-linecap="round" stroke-linejoin="round" fill="none"/>
          <path d="M 17.8273,1.9371 L 17.8273,2.9812 " stroke="#000000" stroke-width="0.1199" stroke-linecap="round" stroke-linejoin="round" fill="none"/>
          <path d="M 19.2309,1.9371 L 19.2309,2.9812 " stroke="#000000" stroke-width="0.1199" stroke-linecap="round" stroke-linejoin="round" fill="none"/>
          <path d="M 19.2309,1.9371 L 19.2309,2.9812 " stroke="#000000" stroke-width="0.1199" stroke-linecap="round" stroke-linejoin="round" fill="none"/>
          <path d="M 20.1419,2.9812 L 20.1419,1.9371 L 21.0776,2.9812 L 22.0133,1.9371 L 22.0133,2.9812 " stroke="#000000" stroke-width="0.1199" stroke-linecap="round" stroke-linejoin="round" fill="none"/>
          <path d="M 22.4565,2.9812 L 23.3922,1.9371 L 24.3279,2.9812 " stroke="#000000" stroke-width="0.1199" stroke-linecap="round" stroke-linejoin="round" fill="none"/>
          <path d="M 22.7027,2.7202 L 24.0817,2.7202 " stroke="#000000" stroke-width="0.1199" stroke-linecap="round" stroke-linejoin="round" fill="none"/>
          <path d="M 13.1981,2.9812 L 14.1338,1.9371 L 15.0695,2.9812 " stroke="#000000" stroke-width="0.1199" stroke-linecap="round" stroke-linejoin="round" fill="none"/>
          <path d="M 13.4444,2.7202 L 14.8233,2.7202 " stroke="#000000" stroke-width="0.1199" stroke-linecap="round" stroke-linejoin="round" fill="none"/>
          <path d="M 136.8005,0.0280 L 0.0281,0.0280 L 0.0281,12.4182 L 136.8005,12.4182 L 136.8005,0.0280 Z" stroke="#000000" stroke-width="0.1199" stroke-linecap="round" stroke-linejoin="round" fill="#EAEAEA"/>
          <path d="M 129.6019,0.0280 L 7.2267,0.0280 L 7.2267,12.4182 L 129.6019,12.4182 L 129.6019,0.0280 Z" stroke="#000000" stroke-width="0.1199" stroke-linecap="round" stroke-linejoin="round" fill="#EAEAEA"/>
          <path d="M 4.5834,2.0744 L 4.5834,1.9763 L 4.5694,1.8781 L 4.5413,1.7800 L 4.4991,1.6819 L 4.4147,1.5137 L 4.3585,1.4436 L 4.2179,1.3035 L 4.1476,1.2474 L 3.9789,1.1633 L 3.8805,1.1213 L 3.7820,1.0932 L 3.6836,1.0792 L 1.8137,1.0792 L 1.7153,1.0932 L 1.6169,1.1213 L 1.5184,1.1633 L 1.3497,1.2474 L 1.2794,1.3035 L 1.1388,1.4436 L 1.0826,1.5137 L 0.9982,1.6819 L 0.9561,1.7800 L 0.9279,1.8781 L 0.9139,1.9763 L 0.9139,2.1725 L 0.9279,2.2706 L 0.9561,2.3687 L 0.9982,2.4668 L 1.0826,2.6350 L 1.1388,2.7051 L 1.2794,2.8452 L 1.3497,2.9013 L 1.5184,2.9854 L 1.6169,3.0275 L 1.7153,3.0555 L 1.8137,3.0695 L 3.6836,3.0695 L 3.7820,3.0555 L 3.8805,3.0275 L 3.9789,2.9854 L 4.1476,2.9013 L 4.2179,2.8452 L 4.3585,2.7051 L 4.4147,2.6350 L 4.4991,2.4668 L 4.5413,2.3687 L 4.5694,2.2706 L 4.5834,2.1725 L 4.5834,2.0744 Z" stroke="#000000" stroke-width="0.1199" stroke-linecap="round" stroke-linejoin="round" fill="#FFFFFF"/>
          <path d="M 4.5834,10.3718 L 4.5834,10.2737 L 4.5694,10.1756 L 4.5413,10.0775 L 4.4991,9.9794 L 4.4147,9.8112 L 4.3585,9.7411 L 4.2179,9.6010 L 4.1476,9.5449 L 3.9789,9.4608 L 3.8805,9.4187 L 3.7820,9.3907 L 3.6836,9.3767 L 1.8137,9.3767 L 1.7153,9.3907 L 1.6169,9.4187 L 1.5184,9.4608 L 1.3497,9.5449 L 1.2794,9.6010 L 1.1388,9.7411 L 1.0826,9.8112 L 0.9982,9.9794 L 0.9561,10.0775 L 0.9279,10.1756 L 0.9139,10.2737 L 0.9139,10.4699 L 0.9279,10.5681 L 0.9561,10.6662 L 0.9982,10.7643 L 1.0826,10.9325 L 1.1388,11.0026 L 1.2794,11.1427 L 1.3497,11.1988 L 1.5184,11.2829 L 1.6169,11.3249 L 1.7153,11.3530 L 1.8137,11.3670 L 3.6836,11.3670 L 3.7820,11.3530 L 3.8805,11.3249 L 3.9789,11.2829 L 4.1476,11.1988 L 4.2179,11.1427 L 4.3585,11.0026 L 4.4147,10.9325 L 4.4991,10.7643 L 4.5413,10.6662 L 4.5694,10.5681 L 4.5834,10.4699 L 4.5834,10.3718 Z" stroke="#000000" stroke-width="0.1199" stroke-linecap="round" stroke-linejoin="round" fill="#FFFFFF"/>
          <path d="M 135.9288,2.0744 L 135.9288,1.9763 L 135.9147,1.8781 L 135.8866,1.7800 L 135.8444,1.6819 L 135.7600,1.5137 L 135.7038,1.4436 L 135.5632,1.3035 L 135.4929,1.2474 L 135.3242,1.1633 L 135.2258,1.1213 L 135.1274,1.0932 L 135.0289,1.0792 L 133.1590,1.0792 L 133.0606,1.0932 L 132.9622,1.1213 L 132.8638,1.1633 L 132.6950,1.2474 L 132.6247,1.3035 L 132.4841,1.4436 L 132.4279,1.5137 L 132.3436,1.6819 L 132.3014,1.7800 L 132.2733,1.8781 L 132.2592,1.9763 L 132.2592,2.1725 L 132.2733,2.2706 L 132.3014,2.3687 L 132.3436,2.4668 L 132.4279,2.6350 L 132.4841,2.7051 L 132.6247,2.8452 L 132.6950,2.9013 L 132.8638,2.9854 L 132.9622,3.0275 L 133.0606,3.0555 L 133.1590,3.0695 L 135.0289,3.0695 L 135.1274,3.0555 L 135.2258,3.0275 L 135.3242,2.9854 L 135.4929,2.9013 L 135.5632,2.8452 L 135.7038,2.7051 L 135.7600,2.6350 L 135.8444,2.4668 L 135.8866,2.3687 L 135.9147,2.2706 L 135.9288,2.1725 L 135.9288,2.0744 Z" stroke="#000000" stroke-width="0.1199" stroke-linecap="round" stroke-linejoin="round" fill="#FFFFFF"/>
          <path d="M 135.9288,10.3718 L 135.9288,10.2737 L 135.9147,10.1756 L 135.8866,10.0775 L 135.8444,9.9794 L 135.7600,9.8112 L 135.7038,9.7411 L 135.5632,9.6010 L 135.4929,9.5449 L 135.3242,9.4608 L 135.2258,9.4187 L 135.1274,9.3907 L 135.0289,9.3767 L 133.1590,9.3767 L 133.0606,9.3907 L 132.9622,9.4187 L 132.8638,9.4608 L 132.6950,9.5449 L 132.6247,9.6010 L 132.4841,9.7411 L 132.4279,9.8112 L 132.3436,9.9794 L 132.3014,10.0775 L 132.2733,10.1756 L 132.2592,10.2737 L 132.2592,10.4699 L 132.2733,10.5681 L 132.3014,10.6662 L 132.3436,10.7643 L 132.4279,10.9325 L 132.4841,11.0026 L 132.6247,11.1427 L 132.6950,11.1988 L 132.8638,11.2829 L 132.9622,11.3249 L 133.0606,11.3530 L 133.1590,11.3670 L 135.0289,11.3670 L 135.1274,11.3530 L 135.2258,11.3249 L 135.3242,11.2829 L 135.4929,11.1988 L 135.5632,11.1427 L 135.7038,11.0026 L 135.7600,10.9325 L 135.8444,10.7643 L 135.8866,10.6662 L 135.9147,10.5681 L 135.9288,10.4699 L 135.9288,10.3718 Z" stroke="#000000" stroke-width="0.1199" stroke-linecap="round" stroke-linejoin="round" fill="#FFFFFF"/>
          <path d="M 128.8146,1.0932 L 128.8146,1.0372 L 128.7865,0.9811 L 128.7724,0.9251 L 128.6880,0.8410 L 128.6318,0.8269 L 128.5756,0.7989 L 8.2530,0.7989 L 8.1968,0.8269 L 8.1405,0.8410 L 8.0562,0.9251 L 8.0421,0.9811 L 8.0140,1.0372 L 8.0140,11.4230 L 8.0421,11.4791 L 8.0562,11.5352 L 8.1405,11.6193 L 8.1968,11.6333 L 8.2530,11.6613 L 128.5756,11.6613 L 128.6318,11.6333 L 128.6880,11.6193 L 128.7724,11.5352 L 128.7865,11.4791 L 128.8146,11.4230 L 128.8146,11.3670 L 128.8146,1.0932 " stroke="#000000" stroke-width="0.1199" stroke-linecap="round" stroke-linejoin="round" fill="none"/>
          <ellipse cx="9.2372" cy="10.3648" rx="0.4921" ry="0.4836" fill="#000000" stroke="#000000" stroke-width="0.1199" stroke-linecap="round" stroke-linejoin="round"/>
          <ellipse cx="9.2372" cy="10.3648" rx="0.4921" ry="0.4836" fill="none" stroke="#000000" stroke-width="0.1199" stroke-linecap="round" stroke-linejoin="round"/>
          <ellipse cx="10.6150" cy="10.3648" rx="0.4921" ry="0.4836" fill="#000000" stroke="#000000" stroke-width="0.1199" stroke-linecap="round" stroke-linejoin="round"/>
          <ellipse cx="10.6150" cy="10.3648" rx="0.4921" ry="0.4836" fill="none" stroke="#000000" stroke-width="0.1199" stroke-linecap="round" stroke-linejoin="round"/>
          <ellipse cx="11.9999" cy="10.3648" rx="0.4851" ry="0.4836" fill="#000000" stroke="#000000" stroke-width="0.1199" stroke-linecap="round" stroke-linejoin="round"/>
          <ellipse cx="11.9999" cy="10.3648" rx="0.4851" ry="0.4836" fill="none" stroke="#000000" stroke-width="0.1199" stroke-linecap="round" stroke-linejoin="round"/>
          <ellipse cx="13.3778" cy="10.3648" rx="0.4851" ry="0.4836" fill="#000000" stroke="#000000" stroke-width="0.1199" stroke-linecap="round" stroke-linejoin="round"/>
          <ellipse cx="13.3778" cy="10.3648" rx="0.4851" ry="0.4836" fill="none" stroke="#000000" stroke-width="0.1199" stroke-linecap="round" stroke-linejoin="round"/>
          <ellipse cx="14.7626" cy="10.3648" rx="0.4921" ry="0.4836" fill="#000000" stroke="#000000" stroke-width="0.1199" stroke-linecap="round" stroke-linejoin="round"/>
          <ellipse cx="14.7626" cy="10.3648" rx="0.4921" ry="0.4836" fill="none" stroke="#000000" stroke-width="0.1199" stroke-linecap="round" stroke-linejoin="round"/>
          <ellipse cx="16.1545" cy="10.3648" rx="0.4921" ry="0.4836" fill="#000000" stroke="#000000" stroke-width="0.1199" stroke-linecap="round" stroke-linejoin="round"/>
          <ellipse cx="16.1545" cy="10.3648" rx="0.4921" ry="0.4836" fill="none" stroke="#000000" stroke-width="0.1199" stroke-linecap="round" stroke-linejoin="round"/>
          <ellipse cx="17.5254" cy="10.3648" rx="0.4851" ry="0.4836" fill="#000000" stroke="#000000" stroke-width="0.1199" stroke-linecap="round" stroke-linejoin="round"/>
          <ellipse cx="17.5254" cy="10.3648" rx="0.4851" ry="0.4836" fill="none" stroke="#000000" stroke-width="0.1199" stroke-linecap="round" stroke-linejoin="round"/>
          <ellipse cx="18.9032" cy="10.3648" rx="0.4851" ry="0.4836" fill="#000000" stroke="#000000" stroke-width="0.1199" stroke-linecap="round" stroke-linejoin="round"/>
          <ellipse cx="18.9032" cy="10.3648" rx="0.4851" ry="0.4836" fill="none" stroke="#000000" stroke-width="0.1199" stroke-linecap="round" stroke-linejoin="round"/>
          <ellipse cx="20.3021" cy="10.3648" rx="0.4921" ry="0.4836" fill="#000000" stroke="#000000" stroke-width="0.1199" stroke-linecap="round" stroke-linejoin="round"/>
          <ellipse cx="20.3021" cy="10.3648" rx="0.4921" ry="0.4836" fill="none" stroke="#000000" stroke-width="0.1199" stroke-linecap="round" stroke-linejoin="round"/>
          <ellipse cx="21.6800" cy="10.3648" rx="0.4921" ry="0.4836" fill="#000000" stroke="#000000" stroke-width="0.1199" stroke-linecap="round" stroke-linejoin="round"/>
          <ellipse cx="21.6800" cy="10.3648" rx="0.4921" ry="0.4836" fill="none" stroke="#000000" stroke-width="0.1199" stroke-linecap="round" stroke-linejoin="round"/>
          <ellipse cx="23.0508" cy="10.3648" rx="0.4851" ry="0.4836" fill="#000000" stroke="#000000" stroke-width="0.1199" stroke-linecap="round" stroke-linejoin="round"/>
          <ellipse cx="23.0508" cy="10.3648" rx="0.4851" ry="0.4836" fill="none" stroke="#000000" stroke-width="0.1199" stroke-linecap="round" stroke-linejoin="round"/>
          <ellipse cx="24.4427" cy="10.3648" rx="0.4851" ry="0.4836" fill="#000000" stroke="#000000" stroke-width="0.1199" stroke-linecap="round" stroke-linejoin="round"/>
          <ellipse cx="24.4427" cy="10.3648" rx="0.4851" ry="0.4836" fill="none" stroke="#000000" stroke-width="0.1199" stroke-linecap="round" stroke-linejoin="round"/>
          <ellipse cx="25.8276" cy="10.3648" rx="0.4921" ry="0.4836" fill="#000000" stroke="#000000" stroke-width="0.1199" stroke-linecap="round" stroke-linejoin="round"/>
          <ellipse cx="25.8276" cy="10.3648" rx="0.4921" ry="0.4836" fill="none" stroke="#000000" stroke-width="0.1199" stroke-linecap="round" stroke-linejoin="round"/>
          <ellipse cx="27.2054" cy="10.3648" rx="0.4921" ry="0.4836" fill="#000000" stroke="#000000" stroke-width="0.1199" stroke-linecap="round" stroke-linejoin="round"/>
          <ellipse cx="27.2054" cy="10.3648" rx="0.4921" ry="0.4836" fill="none" stroke="#000000" stroke-width="0.1199" stroke-linecap="round" stroke-linejoin="round"/>
          <ellipse cx="28.5903" cy="10.3648" rx="0.4851" ry="0.4836" fill="#000000" stroke="#000000" stroke-width="0.1199" stroke-linecap="round" stroke-linejoin="round"/>
          <ellipse cx="28.5903" cy="10.3648" rx="0.4851" ry="0.4836" fill="none" stroke="#000000" stroke-width="0.1199" stroke-linecap="round" stroke-linejoin="round"/>
          <ellipse cx="29.9682" cy="10.3648" rx="0.4851" ry="0.4836" fill="#000000" stroke="#000000" stroke-width="0.1199" stroke-linecap="round" stroke-linejoin="round"/>
          <ellipse cx="29.9682" cy="10.3648" rx="0.4851" ry="0.4836" fill="none" stroke="#000000" stroke-width="0.1199" stroke-linecap="round" stroke-linejoin="round"/>
          <ellipse cx="31.3460" cy="10.3648" rx="0.4851" ry="0.4836" fill="#000000" stroke="#000000" stroke-width="0.1199" stroke-linecap="round" stroke-linejoin="round"/>
          <ellipse cx="31.3460" cy="10.3648" rx="0.4851" ry="0.4836" fill="none" stroke="#000000" stroke-width="0.1199" stroke-linecap="round" stroke-linejoin="round"/>
          <ellipse cx="32.7449" cy="10.3648" rx="0.4921" ry="0.4836" fill="#000000" stroke="#000000" stroke-width="0.1199" stroke-linecap="round" stroke-linejoin="round"/>
          <ellipse cx="32.7449" cy="10.3648" rx="0.4921" ry="0.4836" fill="none" stroke="#000000" stroke-width="0.1199" stroke-linecap="round" stroke-linejoin="round"/>
          <ellipse cx="34.1158" cy="10.3648" rx="0.4851" ry="0.4836" fill="#000000" stroke="#000000" stroke-width="0.1199" stroke-linecap="round" stroke-linejoin="round"/>
          <ellipse cx="34.1158" cy="10.3648" rx="0.4851" ry="0.4836" fill="none" stroke="#000000" stroke-width="0.1199" stroke-linecap="round" stroke-linejoin="round"/>
          <ellipse cx="9.9261" cy="8.9632" rx="0.4921" ry="0.4836" fill="#000000" stroke="#000000" stroke-width="0.1199" stroke-linecap="round" stroke-linejoin="round"/>
          <ellipse cx="9.9261" cy="8.9632" rx="0.4921" ry="0.4836" fill="none" stroke="#000000" stroke-width="0.1199" stroke-linecap="round" stroke-linejoin="round"/>
          <ellipse cx="11.3040" cy="8.9632" rx="0.4921" ry="0.4836" fill="#000000" stroke="#000000" stroke-width="0.1199" stroke-linecap="round" stroke-linejoin="round"/>
          <ellipse cx="11.3040" cy="8.9632" rx="0.4921" ry="0.4836" fill="none" stroke="#000000" stroke-width="0.1199" stroke-linecap="round" stroke-linejoin="round"/>
          <ellipse cx="12.6888" cy="8.9632" rx="0.4851" ry="0.4836" fill="#000000" stroke="#000000" stroke-width="0.1199" stroke-linecap="round" stroke-linejoin="round"/>
          <ellipse cx="12.6888" cy="8.9632" rx="0.4851" ry="0.4836" fill="none" stroke="#000000" stroke-width="0.1199" stroke-linecap="round" stroke-linejoin="round"/>
          <ellipse cx="14.0667" cy="8.9632" rx="0.4851" ry="0.4836" fill="#000000" stroke="#000000" stroke-width="0.1199" stroke-linecap="round" stroke-linejoin="round"/>
          <ellipse cx="14.0667" cy="8.9632" rx="0.4851" ry="0.4836" fill="none" stroke="#000000" stroke-width="0.1199" stroke-linecap="round" stroke-linejoin="round"/>
          <ellipse cx="15.4516" cy="8.9632" rx="0.4921" ry="0.4836" fill="#000000" stroke="#000000" stroke-width="0.1199" stroke-linecap="round" stroke-linejoin="round"/>
          <ellipse cx="15.4516" cy="8.9632" rx="0.4921" ry="0.4836" fill="none" stroke="#000000" stroke-width="0.1199" stroke-linecap="round" stroke-linejoin="round"/>
          <ellipse cx="16.8364" cy="8.9632" rx="0.4851" ry="0.4836" fill="#000000" stroke="#000000" stroke-width="0.1199" stroke-linecap="round" stroke-linejoin="round"/>
          <ellipse cx="16.8364" cy="8.9632" rx="0.4851" ry="0.4836" fill="none" stroke="#000000" stroke-width="0.1199" stroke-linecap="round" stroke-linejoin="round"/>
          <ellipse cx="18.2143" cy="8.9632" rx="0.4851" ry="0.4836" fill="#000000" stroke="#000000" stroke-width="0.1199" stroke-linecap="round" stroke-linejoin="round"/>
          <ellipse cx="18.2143" cy="8.9632" rx="0.4851" ry="0.4836" fill="none" stroke="#000000" stroke-width="0.1199" stroke-linecap="round" stroke-linejoin="round"/>
          <ellipse cx="19.5921" cy="8.9632" rx="0.4851" ry="0.4836" fill="#000000" stroke="#000000" stroke-width="0.1199" stroke-linecap="round" stroke-linejoin="round"/>
          <ellipse cx="19.5921" cy="8.9632" rx="0.4851" ry="0.4836" fill="none" stroke="#000000" stroke-width="0.1199" stroke-linecap="round" stroke-linejoin="round"/>
          <ellipse cx="20.9911" cy="8.9632" rx="0.4921" ry="0.4836" fill="#000000" stroke="#000000" stroke-width="0.1199" stroke-linecap="round" stroke-linejoin="round"/>
          <ellipse cx="20.9911" cy="8.9632" rx="0.4921" ry="0.4836" fill="none" stroke="#000000" stroke-width="0.1199" stroke-linecap="round" stroke-linejoin="round"/>
          <ellipse cx="22.3689" cy="8.9632" rx="0.4921" ry="0.4836" fill="#000000" stroke="#000000" stroke-width="0.1199" stroke-linecap="round" stroke-linejoin="round"/>
          <ellipse cx="22.3689" cy="8.9632" rx="0.4921" ry="0.4836" fill="none" stroke="#000000" stroke-width="0.1199" stroke-linecap="round" stroke-linejoin="round"/>
          <ellipse cx="23.7397" cy="8.9632" rx="0.4851" ry="0.4836" fill="#000000" stroke="#000000" stroke-width="0.1199" stroke-linecap="round" stroke-linejoin="round"/>
          <ellipse cx="23.7397" cy="8.9632" rx="0.4851" ry="0.4836" fill="none" stroke="#000000" stroke-width="0.1199" stroke-linecap="round" stroke-linejoin="round"/>
          <ellipse cx="25.1316" cy="8.9632" rx="0.4851" ry="0.4836" fill="#000000" stroke="#000000" stroke-width="0.1199" stroke-linecap="round" stroke-linejoin="round"/>
          <ellipse cx="25.1316" cy="8.9632" rx="0.4851" ry="0.4836" fill="none" stroke="#000000" stroke-width="0.1199" stroke-linecap="round" stroke-linejoin="round"/>
          <ellipse cx="26.5165" cy="8.9632" rx="0.4921" ry="0.4836" fill="#000000" stroke="#000000" stroke-width="0.1199" stroke-linecap="round" stroke-linejoin="round"/>
          <ellipse cx="26.5165" cy="8.9632" rx="0.4921" ry="0.4836" fill="none" stroke="#000000" stroke-width="0.1199" stroke-linecap="round" stroke-linejoin="round"/>
          <ellipse cx="27.8944" cy="8.9632" rx="0.4921" ry="0.4836" fill="#000000" stroke="#000000" stroke-width="0.1199" stroke-linecap="round" stroke-linejoin="round"/>
          <ellipse cx="27.8944" cy="8.9632" rx="0.4921" ry="0.4836" fill="none" stroke="#000000" stroke-width="0.1199" stroke-linecap="round" stroke-linejoin="round"/>
          <ellipse cx="29.2792" cy="8.9632" rx="0.4851" ry="0.4836" fill="#000000" stroke="#000000" stroke-width="0.1199" stroke-linecap="round" stroke-linejoin="round"/>
          <ellipse cx="29.2792" cy="8.9632" rx="0.4851" ry="0.4836" fill="none" stroke="#000000" stroke-width="0.1199" stroke-linecap="round" stroke-linejoin="round"/>
          <ellipse cx="30.6571" cy="8.9632" rx="0.4851" ry="0.4836" fill="#000000" stroke="#000000" stroke-width="0.1199" stroke-linecap="round" stroke-linejoin="round"/>
          <ellipse cx="30.6571" cy="8.9632" rx="0.4851" ry="0.4836" fill="none" stroke="#000000" stroke-width="0.1199" stroke-linecap="round" stroke-linejoin="round"/>
          <ellipse cx="32.0420" cy="8.9632" rx="0.4921" ry="0.4836" fill="#000000" stroke="#000000" stroke-width="0.1199" stroke-linecap="round" stroke-linejoin="round"/>
          <ellipse cx="32.0420" cy="8.9632" rx="0.4921" ry="0.4836" fill="none" stroke="#000000" stroke-width="0.1199" stroke-linecap="round" stroke-linejoin="round"/>
          <ellipse cx="33.4339" cy="8.9632" rx="0.4921" ry="0.4836" fill="#000000" stroke="#000000" stroke-width="0.1199" stroke-linecap="round" stroke-linejoin="round"/>
          <ellipse cx="33.4339" cy="8.9632" rx="0.4921" ry="0.4836" fill="none" stroke="#000000" stroke-width="0.1199" stroke-linecap="round" stroke-linejoin="round"/>
          <ellipse cx="9.2372" cy="7.5616" rx="0.4921" ry="0.4836" fill="#000000" stroke="#000000" stroke-width="0.1199" stroke-linecap="round" stroke-linejoin="round"/>
          <ellipse cx="9.2372" cy="7.5616" rx="0.4921" ry="0.4836" fill="none" stroke="#000000" stroke-width="0.1199" stroke-linecap="round" stroke-linejoin="round"/>
          <ellipse cx="10.6150" cy="7.5616" rx="0.4921" ry="0.4836" fill="#000000" stroke="#000000" stroke-width="0.1199" stroke-linecap="round" stroke-linejoin="round"/>
          <ellipse cx="10.6150" cy="7.5616" rx="0.4921" ry="0.4836" fill="none" stroke="#000000" stroke-width="0.1199" stroke-linecap="round" stroke-linejoin="round"/>
          <ellipse cx="11.9999" cy="7.5616" rx="0.4851" ry="0.4836" fill="#000000" stroke="#000000" stroke-width="0.1199" stroke-linecap="round" stroke-linejoin="round"/>
          <ellipse cx="11.9999" cy="7.5616" rx="0.4851" ry="0.4836" fill="none" stroke="#000000" stroke-width="0.1199" stroke-linecap="round" stroke-linejoin="round"/>
          <ellipse cx="13.3778" cy="7.5616" rx="0.4851" ry="0.4836" fill="#000000" stroke="#000000" stroke-width="0.1199" stroke-linecap="round" stroke-linejoin="round"/>
          <ellipse cx="13.3778" cy="7.5616" rx="0.4851" ry="0.4836" fill="none" stroke="#000000" stroke-width="0.1199" stroke-linecap="round" stroke-linejoin="round"/>
          <ellipse cx="14.7626" cy="7.5616" rx="0.4921" ry="0.4836" fill="#000000" stroke="#000000" stroke-width="0.1199" stroke-linecap="round" stroke-linejoin="round"/>
          <ellipse cx="14.7626" cy="7.5616" rx="0.4921" ry="0.4836" fill="none" stroke="#000000" stroke-width="0.1199" stroke-linecap="round" stroke-linejoin="round"/>
          <ellipse cx="16.1545" cy="7.5616" rx="0.4921" ry="0.4836" fill="#000000" stroke="#000000" stroke-width="0.1199" stroke-linecap="round" stroke-linejoin="round"/>
          <ellipse cx="16.1545" cy="7.5616" rx="0.4921" ry="0.4836" fill="none" stroke="#000000" stroke-width="0.1199" stroke-linecap="round" stroke-linejoin="round"/>
          <ellipse cx="17.5254" cy="7.5616" rx="0.4851" ry="0.4836" fill="#000000" stroke="#000000" stroke-width="0.1199" stroke-linecap="round" stroke-linejoin="round"/>
          <ellipse cx="17.5254" cy="7.5616" rx="0.4851" ry="0.4836" fill="none" stroke="#000000" stroke-width="0.1199" stroke-linecap="round" stroke-linejoin="round"/>
          <ellipse cx="18.9032" cy="7.5616" rx="0.4851" ry="0.4836" fill="#000000" stroke="#000000" stroke-width="0.1199" stroke-linecap="round" stroke-linejoin="round"/>
          <ellipse cx="18.9032" cy="7.5616" rx="0.4851" ry="0.4836" fill="none" stroke="#000000" stroke-width="0.1199" stroke-linecap="round" stroke-linejoin="round"/>
          <ellipse cx="20.3021" cy="7.5616" rx="0.4921" ry="0.4836" fill="#000000" stroke="#000000" stroke-width="0.1199" stroke-linecap="round" stroke-linejoin="round"/>
          <ellipse cx="20.3021" cy="7.5616" rx="0.4921" ry="0.4836" fill="none" stroke="#000000" stroke-width="0.1199" stroke-linecap="round" stroke-linejoin="round"/>
          <ellipse cx="21.6800" cy="7.5616" rx="0.4921" ry="0.4836" fill="#000000" stroke="#000000" stroke-width="0.1199" stroke-linecap="round" stroke-linejoin="round"/>
          <ellipse cx="21.6800" cy="7.5616" rx="0.4921" ry="0.4836" fill="none" stroke="#000000" stroke-width="0.1199" stroke-linecap="round" stroke-linejoin="round"/>
          <ellipse cx="23.0508" cy="7.5616" rx="0.4851" ry="0.4836" fill="#000000" stroke="#000000" stroke-width="0.1199" stroke-linecap="round" stroke-linejoin="round"/>
          <ellipse cx="23.0508" cy="7.5616" rx="0.4851" ry="0.4836" fill="none" stroke="#000000" stroke-width="0.1199" stroke-linecap="round" stroke-linejoin="round"/>
          <ellipse cx="24.4427" cy="7.5616" rx="0.4851" ry="0.4836" fill="#000000" stroke="#000000" stroke-width="0.1199" stroke-linecap="round" stroke-linejoin="round"/>
          <ellipse cx="24.4427" cy="7.5616" rx="0.4851" ry="0.4836" fill="none" stroke="#000000" stroke-width="0.1199" stroke-linecap="round" stroke-linejoin="round"/>
          <ellipse cx="25.8276" cy="7.5616" rx="0.4921" ry="0.4836" fill="#000000" stroke="#000000" stroke-width="0.1199" stroke-linecap="round" stroke-linejoin="round"/>
          <ellipse cx="25.8276" cy="7.5616" rx="0.4921" ry="0.4836" fill="none" stroke="#000000" stroke-width="0.1199" stroke-linecap="round" stroke-linejoin="round"/>
          <ellipse cx="27.2054" cy="7.5616" rx="0.4921" ry="0.4836" fill="#000000" stroke="#000000" stroke-width="0.1199" stroke-linecap="round" stroke-linejoin="round"/>
          <ellipse cx="27.2054" cy="7.5616" rx="0.4921" ry="0.4836" fill="none" stroke="#000000" stroke-width="0.1199" stroke-linecap="round" stroke-linejoin="round"/>
          <ellipse cx="28.5903" cy="7.5616" rx="0.4851" ry="0.4836" fill="#000000" stroke="#000000" stroke-width="0.1199" stroke-linecap="round" stroke-linejoin="round"/>
          <ellipse cx="28.5903" cy="7.5616" rx="0.4851" ry="0.4836" fill="none" stroke="#000000" stroke-width="0.1199" stroke-linecap="round" stroke-linejoin="round"/>
          <ellipse cx="29.9682" cy="7.5616" rx="0.4851" ry="0.4836" fill="#000000" stroke="#000000" stroke-width="0.1199" stroke-linecap="round" stroke-linejoin="round"/>
          <ellipse cx="29.9682" cy="7.5616" rx="0.4851" ry="0.4836" fill="none" stroke="#000000" stroke-width="0.1199" stroke-linecap="round" stroke-linejoin="round"/>
          <ellipse cx="31.3460" cy="7.5616" rx="0.4851" ry="0.4836" fill="#000000" stroke="#000000" stroke-width="0.1199" stroke-linecap="round" stroke-linejoin="round"/>
          <ellipse cx="31.3460" cy="7.5616" rx="0.4851" ry="0.4836" fill="none" stroke="#000000" stroke-width="0.1199" stroke-linecap="round" stroke-linejoin="round"/>
          <ellipse cx="32.7449" cy="7.5616" rx="0.4921" ry="0.4836" fill="#000000" stroke="#000000" stroke-width="0.1199" stroke-linecap="round" stroke-linejoin="round"/>
          <ellipse cx="32.7449" cy="7.5616" rx="0.4921" ry="0.4836" fill="none" stroke="#000000" stroke-width="0.1199" stroke-linecap="round" stroke-linejoin="round"/>
          <ellipse cx="34.1158" cy="7.5616" rx="0.4851" ry="0.4836" fill="#000000" stroke="#000000" stroke-width="0.1199" stroke-linecap="round" stroke-linejoin="round"/>
          <ellipse cx="34.1158" cy="7.5616" rx="0.4851" ry="0.4836" fill="none" stroke="#000000" stroke-width="0.1199" stroke-linecap="round" stroke-linejoin="round"/>
          <ellipse cx="27.8944" cy="6.1600" rx="0.4921" ry="0.4836" fill="#000000" stroke="#000000" stroke-width="0.1199" stroke-linecap="round" stroke-linejoin="round"/>
          <ellipse cx="27.8944" cy="6.1600" rx="0.4921" ry="0.4836" fill="none" stroke="#000000" stroke-width="0.1199" stroke-linecap="round" stroke-linejoin="round"/>
          <ellipse cx="29.2792" cy="6.1600" rx="0.4851" ry="0.4836" fill="#000000" stroke="#000000" stroke-width="0.1199" stroke-linecap="round" stroke-linejoin="round"/>
          <ellipse cx="29.2792" cy="6.1600" rx="0.4851" ry="0.4836" fill="none" stroke="#000000" stroke-width="0.1199" stroke-linecap="round" stroke-linejoin="round"/>
          <ellipse cx="30.6571" cy="6.1600" rx="0.4851" ry="0.4836" fill="#000000" stroke="#000000" stroke-width="0.1199" stroke-linecap="round" stroke-linejoin="round"/>
          <ellipse cx="30.6571" cy="6.1600" rx="0.4851" ry="0.4836" fill="none" stroke="#000000" stroke-width="0.1199" stroke-linecap="round" stroke-linejoin="round"/>
          <ellipse cx="32.0420" cy="6.1600" rx="0.4921" ry="0.4836" fill="#000000" stroke="#000000" stroke-width="0.1199" stroke-linecap="round" stroke-linejoin="round"/>
          <ellipse cx="32.0420" cy="6.1600" rx="0.4921" ry="0.4836" fill="none" stroke="#000000" stroke-width="0.1199" stroke-linecap="round" stroke-linejoin="round"/>
          <ellipse cx="33.4339" cy="6.1600" rx="0.4921" ry="0.4836" fill="#000000" stroke="#000000" stroke-width="0.1199" stroke-linecap="round" stroke-linejoin="round"/>
          <ellipse cx="33.4339" cy="6.1600" rx="0.4921" ry="0.4836" fill="none" stroke="#000000" stroke-width="0.1199" stroke-linecap="round" stroke-linejoin="round"/>
          <ellipse cx="27.2054" cy="4.7584" rx="0.4921" ry="0.4836" fill="#000000" stroke="#000000" stroke-width="0.1199" stroke-linecap="round" stroke-linejoin="round"/>
          <ellipse cx="27.2054" cy="4.7584" rx="0.4921" ry="0.4836" fill="none" stroke="#000000" stroke-width="0.1199" stroke-linecap="round" stroke-linejoin="round"/>
          <ellipse cx="28.5903" cy="4.7584" rx="0.4851" ry="0.4836" fill="#000000" stroke="#000000" stroke-width="0.1199" stroke-linecap="round" stroke-linejoin="round"/>
          <ellipse cx="28.5903" cy="4.7584" rx="0.4851" ry="0.4836" fill="none" stroke="#000000" stroke-width="0.1199" stroke-linecap="round" stroke-linejoin="round"/>
          <ellipse cx="29.9682" cy="4.7584" rx="0.4851" ry="0.4836" fill="#000000" stroke="#000000" stroke-width="0.1199" stroke-linecap="round" stroke-linejoin="round"/>
          <ellipse cx="29.9682" cy="4.7584" rx="0.4851" ry="0.4836" fill="none" stroke="#000000" stroke-width="0.1199" stroke-linecap="round" stroke-linejoin="round"/>
          <ellipse cx="31.3460" cy="4.7584" rx="0.4851" ry="0.4836" fill="#000000" stroke="#000000" stroke-width="0.1199" stroke-linecap="round" stroke-linejoin="round"/>
          <ellipse cx="31.3460" cy="4.7584" rx="0.4851" ry="0.4836" fill="none" stroke="#000000" stroke-width="0.1199" stroke-linecap="round" stroke-linejoin="round"/>
          <ellipse cx="32.7449" cy="4.7584" rx="0.4921" ry="0.4836" fill="#000000" stroke="#000000" stroke-width="0.1199" stroke-linecap="round" stroke-linejoin="round"/>
          <ellipse cx="32.7449" cy="4.7584" rx="0.4921" ry="0.4836" fill="none" stroke="#000000" stroke-width="0.1199" stroke-linecap="round" stroke-linejoin="round"/>
          <ellipse cx="34.1158" cy="4.7584" rx="0.4851" ry="0.4836" fill="#000000" stroke="#000000" stroke-width="0.1199" stroke-linecap="round" stroke-linejoin="round"/>
          <ellipse cx="34.1158" cy="4.7584" rx="0.4851" ry="0.4836" fill="none" stroke="#000000" stroke-width="0.1199" stroke-linecap="round" stroke-linejoin="round"/>
          <ellipse cx="27.8944" cy="3.3568" rx="0.4921" ry="0.4836" fill="#000000" stroke="#000000" stroke-width="0.1199" stroke-linecap="round" stroke-linejoin="round"/>
          <ellipse cx="27.8944" cy="3.3568" rx="0.4921" ry="0.4836" fill="none" stroke="#000000" stroke-width="0.1199" stroke-linecap="round" stroke-linejoin="round"/>
          <ellipse cx="29.2792" cy="3.3568" rx="0.4851" ry="0.4836" fill="#000000" stroke="#000000" stroke-width="0.1199" stroke-linecap="round" stroke-linejoin="round"/>
          <ellipse cx="29.2792" cy="3.3568" rx="0.4851" ry="0.4836" fill="none" stroke="#000000" stroke-width="0.1199" stroke-linecap="round" stroke-linejoin="round"/>
          <ellipse cx="30.6571" cy="3.3568" rx="0.4851" ry="0.4836" fill="#000000" stroke="#000000" stroke-width="0.1199" stroke-linecap="round" stroke-linejoin="round"/>
          <ellipse cx="30.6571" cy="3.3568" rx="0.4851" ry="0.4836" fill="none" stroke="#000000" stroke-width="0.1199" stroke-linecap="round" stroke-linejoin="round"/>
          <ellipse cx="32.0420" cy="3.3568" rx="0.4921" ry="0.4836" fill="#000000" stroke="#000000" stroke-width="0.1199" stroke-linecap="round" stroke-linejoin="round"/>
          <ellipse cx="32.0420" cy="3.3568" rx="0.4921" ry="0.4836" fill="none" stroke="#000000" stroke-width="0.1199" stroke-linecap="round" stroke-linejoin="round"/>
          <ellipse cx="33.4339" cy="3.3568" rx="0.4921" ry="0.4836" fill="#000000" stroke="#000000" stroke-width="0.1199" stroke-linecap="round" stroke-linejoin="round"/>
          <ellipse cx="33.4339" cy="3.3568" rx="0.4921" ry="0.4836" fill="none" stroke="#000000" stroke-width="0.1199" stroke-linecap="round" stroke-linejoin="round"/>
          <ellipse cx="27.2054" cy="1.9552" rx="0.4921" ry="0.4836" fill="#000000" stroke="#000000" stroke-width="0.1199" stroke-linecap="round" stroke-linejoin="round"/>
          <ellipse cx="27.2054" cy="1.9552" rx="0.4921" ry="0.4836" fill="none" stroke="#000000" stroke-width="0.1199" stroke-linecap="round" stroke-linejoin="round"/>
          <ellipse cx="28.5903" cy="1.9552" rx="0.4851" ry="0.4836" fill="#000000" stroke="#000000" stroke-width="0.1199" stroke-linecap="round" stroke-linejoin="round"/>
          <ellipse cx="28.5903" cy="1.9552" rx="0.4851" ry="0.4836" fill="none" stroke="#000000" stroke-width="0.1199" stroke-linecap="round" stroke-linejoin="round"/>
          <ellipse cx="29.9682" cy="1.9552" rx="0.4851" ry="0.4836" fill="#000000" stroke="#000000" stroke-width="0.1199" stroke-linecap="round" stroke-linejoin="round"/>
          <ellipse cx="29.9682" cy="1.9552" rx="0.4851" ry="0.4836" fill="none" stroke="#000000" stroke-width="0.1199" stroke-linecap="round" stroke-linejoin="round"/>
          <ellipse cx="31.3460" cy="1.9552" rx="0.4851" ry="0.4836" fill="#000000" stroke="#000000" stroke-width="0.1199" stroke-linecap="round" stroke-linejoin="round"/>
          <ellipse cx="31.3460" cy="1.9552" rx="0.4851" ry="0.4836" fill="none" stroke="#000000" stroke-width="0.1199" stroke-linecap="round" stroke-linejoin="round"/>
          <ellipse cx="32.7449" cy="1.9552" rx="0.4921" ry="0.4836" fill="#000000" stroke="#000000" stroke-width="0.1199" stroke-linecap="round" stroke-linejoin="round"/>
          <ellipse cx="32.7449" cy="1.9552" rx="0.4921" ry="0.4836" fill="none" stroke="#000000" stroke-width="0.1199" stroke-linecap="round" stroke-linejoin="round"/>
          <ellipse cx="34.1158" cy="1.9552" rx="0.4851" ry="0.4836" fill="#000000" stroke="#000000" stroke-width="0.1199" stroke-linecap="round" stroke-linejoin="round"/>
          <ellipse cx="34.1158" cy="1.9552" rx="0.4851" ry="0.4836" fill="none" stroke="#000000" stroke-width="0.1199" stroke-linecap="round" stroke-linejoin="round"/>
          <path d="M 54.6077,6.1110 L 50.0946,6.1110 L 50.0946,10.0915 L 54.6077,10.0915 L 54.6077,6.1110 Z" stroke="#000000" stroke-width="0.1199" stroke-linecap="round" stroke-linejoin="round" fill="#EFEFEF"/>
          <path d="M 59.5567,5.3541 L 55.1560,5.3541 L 55.1560,10.0915 L 59.5567,10.0915 L 59.5567,5.3541 Z" stroke="#000000" stroke-width="0.1199" stroke-linecap="round" stroke-linejoin="round" fill="#EFEFEF"/>
          <path d="M 65.0259,2.5509 L 60.1753,2.5509 L 60.1753,10.0915 L 65.0259,10.0915 L 65.0259,2.5509 Z" stroke="#000000" stroke-width="0.1199" stroke-linecap="round" stroke-linejoin="round" fill="#EFEFEF"/>
          <path d="M 64.1683,6.2932 L 64.1683,6.2511 L 64.1261,6.1670 L 64.0417,6.1250 L 60.9627,6.1250 L 60.8783,6.1670 L 60.8361,6.2511 L 60.8361,6.3492 L 60.8783,6.4333 L 60.9627,6.4754 L 64.0417,6.4754 L 64.1261,6.4333 L 64.1683,6.3492 L 64.1683,6.3072 L 64.1683,6.2932 Z" stroke="#000000" stroke-width="0.1199" stroke-linecap="round" stroke-linejoin="round" fill="#BFBFBF"/>
          <path d="M 12.1054,1.9763 L 12.1054,1.9342 L 12.0913,1.8922 L 12.0772,1.8641 L 12.0210,1.8081 L 11.9929,1.7940 L 11.9507,1.7800 L 11.8523,1.7800 L 11.8101,1.7940 L 11.7820,1.8081 L 11.7258,1.8641 L 11.7117,1.8922 L 11.6976,1.9342 L 11.6976,4.7795 L 11.7117,4.8215 L 11.7258,4.8495 L 11.7820,4.9056 L 11.8101,4.9196 L 11.8523,4.9336 L 11.9507,4.9336 L 11.9929,4.9196 L 12.0210,4.9056 L 12.0772,4.8495 L 12.0913,4.8215 L 12.1054,4.7795 L 12.1054,4.7374 L 12.1054,1.9763 Z" stroke="#9BCC9B" stroke-width="0.1199" stroke-linecap="round" stroke-linejoin="round" fill="#9BCC9B"/>
          <path d="M 10.9525,1.9763 L 10.9525,1.9342 L 10.9384,1.8922 L 10.9244,1.8641 L 10.8681,1.8081 L 10.8400,1.7940 L 10.7978,1.7800 L 10.6994,1.7800 L 10.6572,1.7940 L 10.6291,1.8081 L 10.5729,1.8641 L 10.5588,1.8922 L 10.5447,1.9342 L 10.5447,4.7795 L 10.5588,4.8215 L 10.5729,4.8495 L 10.6291,4.9056 L 10.6572,4.9196 L 10.6994,4.9336 L 10.7978,4.9336 L 10.8400,4.9196 L 10.8681,4.9056 L 10.9244,4.8495 L 10.9384,4.8215 L 10.9525,4.7795 L 10.9525,4.7374 L 10.9525,1.9763 Z" stroke="#9BCC9B" stroke-width="0.1199" stroke-linecap="round" stroke-linejoin="round" fill="#9BCC9B"/>
          <path d="M 9.8136,1.9763 L 9.8136,1.9342 L 9.7996,1.8922 L 9.7855,1.8641 L 9.7293,1.8081 L 9.7012,1.7940 L 9.6590,1.7800 L 9.5606,1.7800 L 9.5184,1.7940 L 9.4903,1.8081 L 9.4340,1.8641 L 9.4200,1.8922 L 9.4059,1.9342 L 9.4059,4.7795 L 9.4200,4.8215 L 9.4340,4.8495 L 9.4903,4.9056 L 9.5184,4.9196 L 9.5606,4.9336 L 9.6590,4.9336 L 9.7012,4.9196 L 9.7293,4.9056 L 9.7855,4.8495 L 9.7996,4.8215 L 9.8136,4.7795 L 9.8136,4.7374 L 9.8136,1.9763 Z" stroke="#9BCC9B" stroke-width="0.1199" stroke-linecap="round" stroke-linejoin="round" fill="#9BCC9B"/>
          <path d="M 108.2172,2.5509 L 89.7709,2.5509 L 89.7709,10.0915 L 108.2172,10.0915 L 108.2172,2.5509 Z" stroke="#000000" stroke-width="0.1199" stroke-linecap="round" stroke-linejoin="round" fill="#EFEFEF"/>
          <path d="M 107.9641,6.3072 L 107.9641,6.2651 L 107.9219,6.1811 L 107.8376,6.1390 L 90.1505,6.1390 L 90.0662,6.1811 L 90.0240,6.2651 L 90.0240,6.3633 L 90.0662,6.4474 L 90.1505,6.4894 L 107.8376,6.4894 L 107.9219,6.4474 L 107.9641,6.3633 L 107.9641,6.3212 L 107.9641,6.3072 Z" stroke="#000000" stroke-width="0.1199" stroke-linecap="round" stroke-linejoin="round" fill="#BFBFBF"/>
          <path d="M 66.0663,10.0915 L 70.6217,10.0915 L 70.6217,2.5509 L 66.0663,2.5509 L 66.0663,10.0915 Z" stroke="#7F7F7F" stroke-width="0.1199" stroke-linecap="round" stroke-linejoin="round" fill="#BFBFBF"/>
          <path d="M 66.3616,5.4662 L 70.3264,5.4662 L 70.3264,2.7611 L 66.3616,2.7611 L 66.3616,5.4662 Z" stroke="#7F7F7F" stroke-width="0.1199" stroke-linecap="round" stroke-linejoin="round" fill="#7F7F7F"/>
          <path d="M 66.0663,5.6765 L 70.6217,5.6765 L 70.6217,6.9659 L 66.0663,6.9659 L 66.0663,5.6765 Z" stroke="#7F7F7F" stroke-width="0.1199" stroke-linecap="round" stroke-linejoin="round" fill="#7F7F7F"/>
          <path d="M 66.3616,9.8953 L 70.3264,9.8953 L 70.3264,7.1902 L 66.3616,7.1902 L 66.3616,9.8953 Z" stroke="#7F7F7F" stroke-width="0.1199" stroke-linecap="round" stroke-linejoin="round" fill="#7F7F7F"/>
          <path d="M 66.0663,5.8587 L 70.6217,5.8587 L 70.6217,6.7978 L 66.0663,6.7978 L 66.0663,5.8587 Z" stroke="#BFBFBF" stroke-width="0.1199" stroke-linecap="round" stroke-linejoin="round" fill="#BFBFBF"/>
          <path d="M 66.0663,5.6765 L 70.6217,5.6765 L 70.6217,6.9659 L 66.0663,6.9659 L 66.0663,5.6765 Z" stroke="#494949" stroke-width="0.1199" stroke-linecap="round" stroke-linejoin="round" fill="none"/>
          <path d="M 70.1999,5.9848 L 69.8062,6.6576 L 69.4266,5.9848 L 70.1999,5.9848 Z" stroke="#000000" stroke-width="0.1199" stroke-linecap="round" stroke-linejoin="round" fill="#00FF00"/>
          <path d="M 67.2614,6.6576 L 66.8677,5.9848 L 66.4881,6.6576 L 67.2614,6.6576 Z" stroke="#000000" stroke-width="0.1199" stroke-linecap="round" stroke-linejoin="round" fill="#00FF00"/>
          <path d="M 67.5848,5.6765 L 69.1032,5.6765 L 69.1032,5.9147 L 67.5848,5.9147 L 67.5848,5.6765 Z" stroke="#494949" stroke-width="0.1199" stroke-linecap="round" stroke-linejoin="round" fill="#494949"/>
          <path d="M 67.5848,6.7277 L 69.1032,6.7277 L 69.1032,6.9659 L 67.5848,6.9659 L 67.5848,6.7277 Z" stroke="#494949" stroke-width="0.1199" stroke-linecap="round" stroke-linejoin="round" fill="#494949"/>
          <path d="M 72.0839,10.0915 L 76.6392,10.0915 L 76.6392,2.5509 L 72.0839,2.5509 L 72.0839,10.0915 Z" stroke="#7F7F7F" stroke-width="0.1199" stroke-linecap="round" stroke-linejoin="round" fill="#BFBFBF"/>
          <path d="M 72.3791,5.4662 L 76.3439,5.4662 L 76.3439,2.7611 L 72.3791,2.7611 L 72.3791,5.4662 Z" stroke="#7F7F7F" stroke-width="0.1199" stroke-linecap="round" stroke-linejoin="round" fill="#7F7F7F"/>
          <path d="M 72.0839,5.6765 L 76.6392,5.6765 L 76.6392,6.9659 L 72.0839,6.9659 L 72.0839,5.6765 Z" stroke="#7F7F7F" stroke-width="0.1199" stroke-linecap="round" stroke-linejoin="round" fill="#7F7F7F"/>
          <path d="M 72.3791,9.8953 L 76.3439,9.8953 L 76.3439,7.1902 L 72.3791,7.1902 L 72.3791,9.8953 Z" stroke="#7F7F7F" stroke-width="0.1199" stroke-linecap="round" stroke-linejoin="round" fill="#7F7F7F"/>
          <path d="M 72.0839,5.8587 L 76.6392,5.8587 L 76.6392,6.7978 L 72.0839,6.7978 L 72.0839,5.8587 Z" stroke="#BFBFBF" stroke-width="0.1199" stroke-linecap="round" stroke-linejoin="round" fill="#BFBFBF"/>
          <path d="M 72.0839,5.6765 L 76.6392,5.6765 L 76.6392,6.9659 L 72.0839,6.9659 L 72.0839,5.6765 Z" stroke="#494949" stroke-width="0.1199" stroke-linecap="round" stroke-linejoin="round" fill="none"/>
          <path d="M 76.2174,5.9848 L 75.8237,6.6576 L 75.4441,5.9848 L 76.2174,5.9848 Z" stroke="#000000" stroke-width="0.1199" stroke-linecap="round" stroke-linejoin="round" fill="#00FF00"/>
          <path d="M 73.2789,6.6576 L 72.8853,5.9848 L 72.5057,6.6576 L 73.2789,6.6576 Z" stroke="#000000" stroke-width="0.1199" stroke-linecap="round" stroke-linejoin="round" fill="#00FF00"/>
          <path d="M 73.6023,5.6765 L 75.1207,5.6765 L 75.1207,5.9147 L 73.6023,5.9147 L 73.6023,5.6765 Z" stroke="#494949" stroke-width="0.1199" stroke-linecap="round" stroke-linejoin="round" fill="#494949"/>
          <path d="M 73.6023,6.7277 L 75.1207,6.7277 L 75.1207,6.9659 L 73.6023,6.9659 L 73.6023,6.7277 Z" stroke="#494949" stroke-width="0.1199" stroke-linecap="round" stroke-linejoin="round" fill="#494949"/>
          <path d="M 78.1014,10.0915 L 82.6567,10.0915 L 82.6567,2.5509 L 78.1014,2.5509 L 78.1014,10.0915 Z" stroke="#7F7F7F" stroke-width="0.1199" stroke-linecap="round" stroke-linejoin="round" fill="#BFBFBF"/>
          <path d="M 78.3966,5.4662 L 82.3615,5.4662 L 82.3615,2.7611 L 78.3966,2.7611 L 78.3966,5.4662 Z" stroke="#7F7F7F" stroke-width="0.1199" stroke-linecap="round" stroke-linejoin="round" fill="#7F7F7F"/>
          <path d="M 78.1014,5.6765 L 82.6567,5.6765 L 82.6567,6.9659 L 78.1014,6.9659 L 78.1014,5.6765 Z" stroke="#7F7F7F" stroke-width="0.1199" stroke-linecap="round" stroke-linejoin="round" fill="#7F7F7F"/>
          <path d="M 78.3966,9.8953 L 82.3615,9.8953 L 82.3615,7.1902 L 78.3966,7.1902 L 78.3966,9.8953 Z" stroke="#7F7F7F" stroke-width="0.1199" stroke-linecap="round" stroke-linejoin="round" fill="#7F7F7F"/>
          <path d="M 78.1014,5.8587 L 82.6567,5.8587 L 82.6567,6.7978 L 78.1014,6.7978 L 78.1014,5.8587 Z" stroke="#BFBFBF" stroke-width="0.1199" stroke-linecap="round" stroke-linejoin="round" fill="#BFBFBF"/>
          <path d="M 78.1014,5.6765 L 82.6567,5.6765 L 82.6567,6.9659 L 78.1014,6.9659 L 78.1014,5.6765 Z" stroke="#494949" stroke-width="0.1199" stroke-linecap="round" stroke-linejoin="round" fill="none"/>
          <path d="M 82.2349,5.9848 L 81.8413,6.6576 L 81.4617,5.9848 L 82.2349,5.9848 Z" stroke="#000000" stroke-width="0.1199" stroke-linecap="round" stroke-linejoin="round" fill="#00FF00"/>
          <path d="M 79.2965,6.6576 L 78.9028,5.9848 L 78.5232,6.6576 L 79.2965,6.6576 Z" stroke="#000000" stroke-width="0.1199" stroke-linecap="round" stroke-linejoin="round" fill="#00FF00"/>
          <path d="M 79.6198,5.6765 L 81.1383,5.6765 L 81.1383,5.9147 L 79.6198,5.9147 L 79.6198,5.6765 Z" stroke="#494949" stroke-width="0.1199" stroke-linecap="round" stroke-linejoin="round" fill="#494949"/>
          <path d="M 79.6198,6.7277 L 81.1383,6.7277 L 81.1383,6.9659 L 79.6198,6.9659 L 79.6198,6.7277 Z" stroke="#494949" stroke-width="0.1199" stroke-linecap="round" stroke-linejoin="round" fill="#494949"/>
          <path d="M 84.1189,10.0915 L 88.6743,10.0915 L 88.6743,2.5509 L 84.1189,2.5509 L 84.1189,10.0915 Z" stroke="#7F7F7F" stroke-width="0.1199" stroke-linecap="round" stroke-linejoin="round" fill="#BFBFBF"/>
          <path d="M 84.4142,5.4662 L 88.3790,5.4662 L 88.3790,2.7611 L 84.4142,2.7611 L 84.4142,5.4662 Z" stroke="#7F7F7F" stroke-width="0.1199" stroke-linecap="round" stroke-linejoin="round" fill="#7F7F7F"/>
          <path d="M 84.1189,5.6765 L 88.6743,5.6765 L 88.6743,6.9659 L 84.1189,6.9659 L 84.1189,5.6765 Z" stroke="#7F7F7F" stroke-width="0.1199" stroke-linecap="round" stroke-linejoin="round" fill="#7F7F7F"/>
          <path d="M 84.4142,9.8953 L 88.3790,9.8953 L 88.3790,7.1902 L 84.4142,7.1902 L 84.4142,9.8953 Z" stroke="#7F7F7F" stroke-width="0.1199" stroke-linecap="round" stroke-linejoin="round" fill="#7F7F7F"/>
          <path d="M 84.1189,5.8587 L 88.6743,5.8587 L 88.6743,6.7978 L 84.1189,6.7978 L 84.1189,5.8587 Z" stroke="#BFBFBF" stroke-width="0.1199" stroke-linecap="round" stroke-linejoin="round" fill="#BFBFBF"/>
          <path d="M 84.1189,5.6765 L 88.6743,5.6765 L 88.6743,6.9659 L 84.1189,6.9659 L 84.1189,5.6765 Z" stroke="#494949" stroke-width="0.1199" stroke-linecap="round" stroke-linejoin="round" fill="none"/>
          <path d="M 88.2525,5.9848 L 87.8588,6.6576 L 87.4792,5.9848 L 88.2525,5.9848 Z" stroke="#000000" stroke-width="0.1199" stroke-linecap="round" stroke-linejoin="round" fill="#00FF00"/>
          <path d="M 85.3140,6.6576 L 84.9203,5.9848 L 84.5407,6.6576 L 85.3140,6.6576 Z" stroke="#000000" stroke-width="0.1199" stroke-linecap="round" stroke-linejoin="round" fill="#00FF00"/>
          <path d="M 85.6374,5.6765 L 87.1558,5.6765 L 87.1558,5.9147 L 85.6374,5.9147 L 85.6374,5.6765 Z" stroke="#494949" stroke-width="0.1199" stroke-linecap="round" stroke-linejoin="round" fill="#494949"/>
          <path d="M 85.6374,6.7277 L 87.1558,6.7277 L 87.1558,6.9659 L 85.6374,6.9659 L 85.6374,6.7277 Z" stroke="#494949" stroke-width="0.1199" stroke-linecap="round" stroke-linejoin="round" fill="#494949"/>
          <path d="M 13.1293,3.0710 L 13.1100,3.0710 L 13.1003,3.0615 L 13.0906,3.0615 L 13.0616,3.0330 L 13.0616,3.0235 L 13.0519,3.0140 L 13.0519,1.9111 L 13.0616,1.9016 L 13.0616,1.8921 L 13.0713,1.8825 L 13.0810,1.8825 L 13.0810,1.8730 L 13.0906,1.8635 L 13.1003,1.8635 L 13.1100,1.8540 L 14.4258,1.8540 L 14.4355,1.8635 L 14.4452,1.8635 L 14.4742,1.8921 L 14.4742,1.9016 L 14.4839,1.9111 L 14.4839,2.1297 L 14.4742,2.1297 L 14.4742,2.1202 L 14.4645,2.1202 L 14.4645,2.1107 L 14.4549,2.1107 L 14.4549,2.1012 L 14.4355,2.1012 L 14.4355,2.0917 L 13.3712,2.0917 L 13.3712,2.1012 L 13.3519,2.1012 L 13.3519,2.1107 L 13.3422,2.1107 L 13.3422,2.1297 L 13.3325,2.1297 L 13.3325,3.0330 L 13.3422,3.0330 L 13.3422,3.0520 L 13.3519,3.0520 L 13.3519,3.0615 L 13.3615,3.0615 L 13.3615,3.0710 L 13.1390,3.0710 L 13.1293,3.0710 Z" stroke="#000000" stroke-width="0.1199" stroke-linecap="round" stroke-linejoin="round" fill="#000000"/>
          <path d="M 14.3871,2.3674 L 13.4293,2.3674 L 13.4293,2.3579 L 13.4099,2.3579 L 13.4099,2.3484 L 13.4002,2.3484 L 13.4002,2.3294 L 13.3906,2.3294 L 13.3906,2.5671 L 13.4002,2.5671 L 13.4002,2.5861 L 13.4099,2.5861 L 13.4099,2.5956 L 13.4293,2.5956 L 13.4293,2.6051 L 14.4065,2.6051 L 14.4258,2.5861 L 14.4355,2.5861 L 14.4549,2.5671 L 14.4549,2.5576 L 14.4645,2.5481 L 14.4645,2.5386 L 14.4742,2.5291 L 14.4742,2.5101 L 14.4839,2.5006 L 14.4839,2.4720 L 14.4742,2.4625 L 14.4742,2.4340 L 14.4549,2.4150 L 14.4549,2.4055 L 14.4452,2.3960 L 14.4355,2.3960 L 14.4355,2.3865 L 14.4258,2.3865 L 14.4162,2.3769 L 14.4065,2.3769 L 14.3968,2.3674 L 14.3871,2.3674 Z" stroke="#000000" stroke-width="0.1199" stroke-linecap="round" stroke-linejoin="round" fill="#000000"/>
          <path d="M 16.6221,2.6051 L 16.6028,2.6051 L 16.6028,2.5956 L 16.5834,2.5956 L 16.5834,2.5861 L 16.5737,2.5861 L 16.5737,2.5671 L 16.5641,2.5671 L 16.5641,2.3294 L 16.5737,2.3294 L 16.5737,2.3484 L 16.5834,2.3484 L 16.5834,2.3579 L 16.6028,2.3579 L 16.6028,2.3674 L 17.3768,2.3674 L 17.3768,2.0917 L 16.5447,2.0917 L 16.5447,2.1012 L 16.5254,2.1012 L 16.5254,2.1107 L 16.5157,2.1107 L 16.5157,2.1297 L 16.5060,2.1297 L 16.5060,3.0330 L 16.5157,3.0330 L 16.5157,3.0520 L 16.5254,3.0520 L 16.5254,3.0615 L 16.5350,3.0615 L 16.5350,3.0710 L 16.2835,3.0710 L 16.2738,3.0615 L 16.2641,3.0615 L 16.2351,3.0330 L 16.2351,3.0235 L 16.2254,3.0140 L 16.2254,1.9111 L 16.2351,1.9016 L 16.2351,1.8921 L 16.2448,1.8825 L 16.2545,1.8825 L 16.2545,1.8730 L 16.2641,1.8635 L 16.2738,1.8635 L 16.2835,1.8540 L 17.5993,1.8540 L 17.6090,1.8635 L 17.6187,1.8635 L 17.6477,1.8921 L 17.6477,1.9016 L 17.6574,1.9111 L 17.6574,2.5101 L 17.6477,2.5196 L 17.6477,2.5386 L 17.6380,2.5386 L 17.6380,2.5481 L 17.6283,2.5576 L 17.6283,2.5671 L 17.6187,2.5671 L 17.6187,2.5766 L 17.6090,2.5766 L 17.6090,2.5861 L 17.5993,2.5861 L 17.5993,2.5956 L 17.5896,2.5956 L 17.5800,2.6051 L 17.5896,2.6146 L 17.5993,2.6146 L 17.5993,2.6242 L 17.6090,2.6242 L 17.6090,2.6337 L 17.6187,2.6337 L 17.6187,2.6432 L 17.6283,2.6432 L 17.6283,2.6527 L 17.6380,2.6622 L 17.6380,2.6717 L 17.6477,2.6717 L 17.6477,2.6907 L 17.6574,2.7002 L 17.6574,3.0330 L 17.6670,3.0330 L 17.6670,3.0520 L 17.6767,3.0520 L 17.6767,3.0615 L 17.6864,3.0615 L 17.6864,3.0710 L 17.4348,3.0710 L 17.4252,3.0615 L 17.4155,3.0615 L 17.3865,3.0330 L 17.3865,3.0235 L 17.3768,3.0140 L 17.3768,2.6051 L 16.6318,2.6051 L 16.6221,2.6051 Z" stroke="#000000" stroke-width="0.1199" stroke-linecap="round" stroke-linejoin="round" fill="#000000"/>
          <path d="M 18.1605,2.0917 L 17.8702,2.0917 L 17.8605,2.0822 L 17.8509,2.0822 L 17.8218,2.0537 L 17.8218,2.0442 L 17.8122,2.0347 L 17.8122,1.9111 L 17.8218,1.9016 L 17.8218,1.8921 L 17.8315,1.8825 L 17.8412,1.8825 L 17.8412,1.8730 L 17.8509,1.8635 L 17.8605,1.8635 L 17.8702,1.8540 L 19.1861,1.8540 L 19.1957,1.8635 L 19.2054,1.8635 L 19.2344,1.8921 L 19.2344,1.9016 L 19.2441,1.9111 L 19.2441,2.1297 L 19.2344,2.1297 L 19.2344,2.1202 L 19.2248,2.1202 L 19.2248,2.1107 L 19.2151,2.1107 L 19.2151,2.1012 L 19.1957,2.1012 L 19.1957,2.0917 L 18.4798,2.0917 L 18.4798,2.1012 L 18.4604,2.1012 L 18.4604,2.1107 L 18.4507,2.1107 L 18.4507,2.1297 L 18.4411,2.1297 L 18.4411,3.0330 L 18.4507,3.0330 L 18.4507,3.0520 L 18.4604,3.0520 L 18.4604,3.0615 L 18.4701,3.0615 L 18.4701,3.0710 L 18.2185,3.0710 L 18.2089,3.0615 L 18.1992,3.0615 L 18.1702,3.0330 L 18.1702,3.0235 L 18.1605,3.0140 L 18.1605,2.1202 L 18.1605,2.0917 Z" stroke="#000000" stroke-width="0.1199" stroke-linecap="round" stroke-linejoin="round" fill="#000000"/>
          <path d="M 19.6795,3.0045 L 19.6795,3.0330 L 19.6892,3.0330 L 19.6892,3.0520 L 19.6989,3.0520 L 19.6989,3.0615 L 19.7085,3.0615 L 19.7085,3.0710 L 19.4570,3.0710 L 19.4473,3.0615 L 19.4376,3.0615 L 19.4086,3.0330 L 19.4086,3.0235 L 19.3989,3.0140 L 19.3989,1.8921 L 19.3892,1.8921 L 19.3892,1.8730 L 19.3796,1.8730 L 19.3796,1.8635 L 19.3699,1.8635 L 19.3699,1.8540 L 19.6214,1.8540 L 19.6311,1.8635 L 19.6408,1.8635 L 19.6698,1.8921 L 19.6698,1.9016 L 19.6795,1.9111 L 19.6795,2.9950 L 19.6795,3.0045 Z" stroke="#000000" stroke-width="0.1199" stroke-linecap="round" stroke-linejoin="round" fill="#000000"/>
          <path d="M 21.0534,2.0917 L 20.2213,2.0917 L 20.2213,2.1012 L 20.2020,2.1012 L 20.2020,2.1107 L 20.1923,2.1107 L 20.1923,2.1297 L 20.1826,2.1297 L 20.1826,3.0330 L 20.1923,3.0330 L 20.1923,3.0520 L 20.2020,3.0520 L 20.2020,3.0615 L 20.2116,3.0615 L 20.2116,3.0710 L 19.9601,3.0710 L 19.9504,3.0615 L 19.9407,3.0615 L 19.9117,3.0330 L 19.9117,3.0235 L 19.9020,3.0140 L 19.9020,1.9111 L 19.9117,1.9016 L 19.9117,1.8921 L 19.9214,1.8825 L 19.9311,1.8825 L 19.9311,1.8730 L 19.9407,1.8635 L 19.9504,1.8635 L 19.9601,1.8540 L 21.2759,1.8540 L 21.2856,1.8635 L 21.2953,1.8635 L 21.3243,1.8921 L 21.3243,1.9016 L 21.3340,1.9111 L 21.3340,3.0330 L 21.3436,3.0330 L 21.3436,3.0520 L 21.3533,3.0520 L 21.3533,3.0615 L 21.3630,3.0615 L 21.3630,3.0710 L 21.1114,3.0710 L 21.1018,3.0615 L 21.0921,3.0615 L 21.0631,3.0330 L 21.0631,3.0235 L 21.0534,3.0140 L 21.0534,2.1202 L 21.0534,2.0917 Z" stroke="#000000" stroke-width="0.1199" stroke-linecap="round" stroke-linejoin="round" fill="#000000"/>
          <path d="M 22.7562,2.3674 L 21.8661,2.3674 L 21.8564,2.3579 L 21.8468,2.3579 L 21.8468,2.3484 L 21.8371,2.3484 L 21.8371,2.3294 L 21.8274,2.3294 L 21.8274,2.5671 L 21.8371,2.5671 L 21.8371,2.5861 L 21.8468,2.5861 L 21.8468,2.5956 L 21.8564,2.5956 L 21.8661,2.6051 L 22.7659,2.6051 L 22.7853,2.5861 L 22.7949,2.5861 L 22.8143,2.5671 L 22.8143,2.5576 L 22.8240,2.5481 L 22.8240,2.5386 L 22.8336,2.5291 L 22.8336,2.5101 L 22.8433,2.5006 L 22.8433,2.4625 L 22.8336,2.4530 L 22.8336,2.4245 L 22.8240,2.4245 L 22.8240,2.4150 L 22.7949,2.3865 L 22.7853,2.3865 L 22.7853,2.3769 L 22.7756,2.3769 L 22.7659,2.3674 L 22.7562,2.3674 Z" stroke="#000000" stroke-width="0.1199" stroke-linecap="round" stroke-linejoin="round" fill="#000000"/>
          <path d="M 23.4238,2.0917 L 23.1336,2.0917 L 23.1239,2.0822 L 23.1142,2.0822 L 23.0852,2.0537 L 23.0852,2.0442 L 23.0755,2.0347 L 23.0755,1.9111 L 23.0852,1.9016 L 23.0852,1.8921 L 23.0949,1.8825 L 23.1045,1.8825 L 23.1045,1.8730 L 23.1142,1.8635 L 23.1239,1.8635 L 23.1336,1.8540 L 24.4494,1.8540 L 24.4591,1.8635 L 24.4688,1.8635 L 24.4978,1.8921 L 24.4978,1.9016 L 24.5075,1.9111 L 24.5075,2.1297 L 24.4978,2.1297 L 24.4978,2.1202 L 24.4881,2.1202 L 24.4881,2.1107 L 24.4784,2.1107 L 24.4784,2.1012 L 24.4591,2.1012 L 24.4591,2.0917 L 23.7431,2.0917 L 23.7431,2.1012 L 23.7238,2.1012 L 23.7238,2.1107 L 23.7141,2.1107 L 23.7141,2.1297 L 23.7044,2.1297 L 23.7044,3.0330 L 23.7141,3.0330 L 23.7141,3.0520 L 23.7238,3.0520 L 23.7238,3.0615 L 23.7334,3.0615 L 23.7334,3.0710 L 23.4819,3.0710 L 23.4722,3.0615 L 23.4625,3.0615 L 23.4335,3.0330 L 23.4335,3.0235 L 23.4238,3.0140 L 23.4238,2.1202 L 23.4238,2.0917 Z" stroke="#000000" stroke-width="0.1199" stroke-linecap="round" stroke-linejoin="round" fill="#000000"/>
          <path d="M 22.8530,2.8333 L 22.8723,2.8333 L 22.8723,2.8238 L 22.8917,2.8238 L 22.8917,2.8143 L 22.9014,2.8143 L 22.9014,2.8048 L 22.9110,2.8048 L 22.9110,2.7953 L 22.9207,2.7953 L 22.9207,3.0140 L 22.9110,3.0235 L 22.9110,3.0330 L 22.9014,3.0425 L 22.9014,3.0520 L 22.8917,3.0520 L 22.8820,3.0615 L 22.8723,3.0615 L 22.8627,3.0710 L 21.5468,3.0710 L 21.5372,3.0615 L 21.5275,3.0615 L 21.4985,3.0330 L 21.4985,3.0235 L 21.4888,3.0140 L 21.4888,1.9111 L 21.4985,1.9016 L 21.4985,1.8921 L 21.5081,1.8825 L 21.5178,1.8825 L 21.5178,1.8730 L 21.5275,1.8635 L 21.5372,1.8635 L 21.5468,1.8540 L 22.8627,1.8540 L 22.8723,1.8635 L 22.8820,1.8635 L 22.9110,1.8921 L 22.9110,1.9016 L 22.9207,1.9111 L 22.9207,2.1297 L 22.9110,2.1297 L 22.9110,2.1202 L 22.9014,2.1202 L 22.9014,2.1107 L 22.8917,2.1107 L 22.8917,2.1012 L 22.8723,2.1012 L 22.8723,2.0917 L 21.8081,2.0917 L 21.8081,2.1012 L 21.7887,2.1012 L 21.7887,2.1107 L 21.7790,2.1107 L 21.7790,2.1297 L 21.7694,2.1297 L 21.7694,2.8333 L 22.8433,2.8333 L 22.8530,2.8333 Z" stroke="#000000" stroke-width="0.1199" stroke-linecap="round" stroke-linejoin="round" fill="#000000"/>
          <path d="M 15.1224,2.7192 L 15.1224,3.0710 L 15.5869,3.0710 L 15.5869,2.7192 L 15.1224,2.7192 Z" stroke="#ED3440" stroke-width="0.1199" stroke-linecap="round" stroke-linejoin="round" fill="#ED3440"/>
          <path d="M 14.6387,2.2914 L 15.0354,2.2914 L 15.0354,2.6337 L 14.6387,2.6337 L 14.6387,2.2914 Z" stroke="#ED3440" stroke-width="0.1199" stroke-linecap="round" stroke-linejoin="round" fill="#ED3440"/>
          <path d="M 15.6739,2.7192 L 15.6739,3.0710 L 15.8191,3.0710 L 15.8287,3.0615 L 15.8674,3.0615 L 15.8771,3.0520 L 15.8965,3.0520 L 15.9158,3.0425 L 15.9255,3.0330 L 15.9448,3.0235 L 15.9642,3.0045 L 15.9835,2.9950 L 15.9932,2.9854 L 16.0029,2.9664 L 16.0126,2.9569 L 16.0513,2.8809 L 16.0513,2.8618 L 16.0609,2.8333 L 16.0609,2.8048 L 16.0706,2.7763 L 16.0706,2.7192 L 15.6836,2.7192 L 15.6739,2.7192 Z" stroke="#ED3440" stroke-width="0.1199" stroke-linecap="round" stroke-linejoin="round" fill="#ED3440"/>
          <path d="M 15.6739,2.2914 L 16.0706,2.2914 L 16.0706,2.6337 L 15.6739,2.6337 L 15.6739,2.2914 Z" stroke="#ED3440" stroke-width="0.1199" stroke-linecap="round" stroke-linejoin="round" fill="#ED3440"/>
          <path d="M 15.0354,2.7192 L 15.0354,3.0710 L 14.8902,3.0710 L 14.8806,3.0615 L 14.8419,3.0615 L 14.8322,3.0520 L 14.8128,3.0520 L 14.7935,3.0425 L 14.7838,3.0330 L 14.7645,3.0235 L 14.7451,3.0045 L 14.7258,2.9950 L 14.7161,2.9854 L 14.7064,2.9664 L 14.6967,2.9569 L 14.6580,2.8809 L 14.6580,2.8618 L 14.6484,2.8333 L 14.6484,2.8048 L 14.6387,2.7763 L 14.6387,2.7192 L 15.0257,2.7192 L 15.0354,2.7192 Z" stroke="#ED3440" stroke-width="0.1199" stroke-linecap="round" stroke-linejoin="round" fill="#ED3440"/>
          <path d="M 15.1224,1.8540 L 15.1224,2.2058 L 15.5869,2.2058 L 15.5869,1.8540 L 15.1224,1.8540 Z" stroke="#ED3440" stroke-width="0.1199" stroke-linecap="round" stroke-linejoin="round" fill="#ED3440"/>
          <path d="M 15.6739,2.2058 L 15.6739,1.8540 L 15.8191,1.8540 L 15.8287,1.8635 L 15.8674,1.8635 L 15.8771,1.8730 L 15.8965,1.8730 L 15.9158,1.8825 L 15.9255,1.8921 L 15.9448,1.9016 L 15.9642,1.9206 L 15.9835,1.9301 L 15.9932,1.9396 L 16.0029,1.9586 L 16.0126,1.9681 L 16.0513,2.0442 L 16.0513,2.0632 L 16.0609,2.0917 L 16.0609,2.1202 L 16.0706,2.1488 L 16.0706,2.2058 L 15.6836,2.2058 L 15.6739,2.2058 Z" stroke="#ED3440" stroke-width="0.1199" stroke-linecap="round" stroke-linejoin="round" fill="#ED3440"/>
          <path d="M 15.0354,2.2058 L 15.0354,1.8540 L 14.8902,1.8540 L 14.8806,1.8635 L 14.8419,1.8635 L 14.8322,1.8730 L 14.8128,1.8730 L 14.7935,1.8825 L 14.7838,1.8921 L 14.7645,1.9016 L 14.7451,1.9206 L 14.7258,1.9301 L 14.7161,1.9396 L 14.7064,1.9586 L 14.6967,1.9681 L 14.6580,2.0442 L 14.6580,2.0632 L 14.6484,2.0917 L 14.6484,2.1202 L 14.6387,2.1488 L 14.6387,2.2058 L 15.0257,2.2058 L 15.0354,2.2058 Z" stroke="#ED3440" stroke-width="0.1199" stroke-linecap="round" stroke-linejoin="round" fill="#ED3440"/>
          <text font-family="Arial" fill="#C0C0C0" style="white-space:pre;" font-weight="400" text-anchor="start" x="15.9061" y="2.9306" font-size="0.2032"><![CDATA[FortiGate 400D]]></text>
          <text font-family="Symbol" fill="#000000" style="white-space:pre;" text-anchor="start" x="24.1918" y="3.1810" font-size="0.5509"><![CDATA[]]></text>
          <ellipse cx="36.4681" cy="9.0661" rx="0.2987" ry="0.2985" fill="#000000" stroke="#000000" stroke-width="0.1199" stroke-linecap="round" stroke-linejoin="round"/>
          <ellipse cx="36.4681" cy="9.0661" rx="0.2987" ry="0.2985" fill="none" stroke="#000000" stroke-width="0.1199" stroke-linecap="round" stroke-linejoin="round"/>
          <ellipse cx="36.4636" cy="9.0705" rx="0.2586" ry="0.2584" fill="#333333" stroke="#000000" stroke-width="0.1199" stroke-linecap="round" stroke-linejoin="round"/>
          <ellipse cx="36.4636" cy="9.0705" rx="0.2586" ry="0.2584" fill="none" stroke="#000000" stroke-width="0.1199" stroke-linecap="round" stroke-linejoin="round"/>
          <path d="M 38.7294,4.8838 L 38.1402,4.8838 L 38.1402,5.4722 L 38.7294,5.4722 L 38.7294,4.8838 Z" stroke="#000000" stroke-width="0.1199" stroke-linecap="round" stroke-linejoin="round" fill="#00FF00"/>
          <path d="M 38.7294,6.3401 L 38.1402,6.3401 L 38.1402,6.9285 L 38.7294,6.9285 L 38.7294,6.3401 Z" stroke="#000000" stroke-width="0.1199" stroke-linecap="round" stroke-linejoin="round" fill="#00FF00"/>
          <path d="M 38.7294,7.8111 L 38.1402,7.8111 L 38.1402,8.3995 L 38.7294,8.3995 L 38.7294,7.8111 Z" stroke="#000000" stroke-width="0.1199" stroke-linecap="round" stroke-linejoin="round" fill="#00FF00"/>
          <path d="M 38.7294,9.2674 L 38.1402,9.2674 L 38.1402,9.8558 L 38.7294,9.8558 L 38.7294,9.2674 Z" stroke="#000000" stroke-width="0.1199" stroke-linecap="round" stroke-linejoin="round" fill="#00FF00"/>
          <text font-family="Arial" fill="#000000" style="white-space:pre;" font-weight="400" text-anchor="start" x="49.3656" y="11.1049" font-size="0.1620"><![CDATA[STATUS]]></text>
          <text font-family="Arial" fill="#000000" style="white-space:pre;" font-weight="400" text-anchor="start" x="49.3656" y="11.4874" font-size="0.1620"><![CDATA[ALARM]]></text>
          <text font-family="Arial" fill="#000000" style="white-space:pre;" font-weight="400" text-anchor="start" x="49.3656" y="11.8699" font-size="0.1620"><![CDATA[HA]]></text>
          <text font-family="Arial" fill="#000000" style="white-space:pre;" font-weight="400" text-anchor="start" x="49.3656" y="12.2523" font-size="0.1620"><![CDATA[POWER]]></text>
          <text font-family="Arial" fill="#000000" style="white-space:pre;" font-weight="400" text-anchor="start" x="52.4004" y="11.1049" font-size="0.1620"><![CDATA[CONSOLE]]></text>
          <path d="M 53.5907,10.8204 L 53.5907,10.7732 L 53.5719,10.6787 L 53.5530,10.6314 L 53.5342,10.5936 L 53.4495,10.4802 L 53.3366,10.3952 L 53.2989,10.3763 L 53.2519,10.3574 L 53.1577,10.3385 L 51.6236,10.3385 L 51.5295,10.3574 L 51.4824,10.3763 L 51.4448,10.3952 L 51.3319,10.4802 L 51.2471,10.5936 L 51.2283,10.6314 L 51.2095,10.6787 L 51.1907,10.7732 L 51.1907,10.9528 L 51.2095,11.0473 L 51.2283,11.0945 L 51.2471,11.1323 L 51.3319,11.2457 L 51.4448,11.3308 L 51.4824,11.3497 L 51.5295,11.3686 L 51.6236,11.3875 L 53.1577,11.3875 L 53.2519,11.3686 L 53.2989,11.3497 L 53.3366,11.3308 L 53.4495,11.2457 L 53.5342,11.1323 L 53.5530,11.0945 L 53.5719,11.0473 L 53.5907,10.9528 L 53.5907,10.9055 L 53.5907,10.8204 Z" stroke="#000000" stroke-width="0.1199" stroke-linecap="round" stroke-linejoin="round" fill="#7F7F7F"/>
          <ellipse cx="52.3313" cy="10.7877" rx="0.4064" ry="0.3978" fill="#FFFFFF" stroke="#000000" stroke-width="0.1199" stroke-linecap="round" stroke-linejoin="round"/>
          <ellipse cx="52.3313" cy="10.7877" rx="0.4064" ry="0.3978" fill="none" stroke="#0A0A0A" stroke-width="0.1199" stroke-linecap="round" stroke-linejoin="round"/>
          <path d="M 58.5413,10.8204 L 58.5413,10.7732 L 58.5225,10.6787 L 58.5036,10.6314 L 58.4848,10.5936 L 58.4001,10.4802 L 58.2872,10.3952 L 58.2495,10.3763 L 58.2025,10.3574 L 58.1083,10.3385 L 56.5742,10.3385 L 56.4801,10.3574 L 56.4330,10.3763 L 56.3954,10.3952 L 56.2824,10.4802 L 56.1977,10.5936 L 56.1789,10.6314 L 56.1601,10.6787 L 56.1413,10.7732 L 56.1413,10.9528 L 56.1601,11.0473 L 56.1789,11.0945 L 56.1977,11.1323 L 56.2824,11.2457 L 56.3954,11.3308 L 56.4330,11.3497 L 56.4801,11.3686 L 56.5742,11.3875 L 58.1083,11.3875 L 58.2025,11.3686 L 58.2495,11.3497 L 58.2872,11.3308 L 58.4001,11.2457 L 58.4848,11.1323 L 58.5036,11.0945 L 58.5225,11.0473 L 58.5413,10.9528 L 58.5413,10.9055 L 58.5413,10.8204 Z" stroke="#000000" stroke-width="0.1199" stroke-linecap="round" stroke-linejoin="round" fill="#7F7F7F"/>
          <ellipse cx="57.2720" cy="10.7877" rx="0.4064" ry="0.3978" fill="#FFFFFF" stroke="#000000" stroke-width="0.1199" stroke-linecap="round" stroke-linejoin="round"/>
          <ellipse cx="57.2720" cy="10.7877" rx="0.4064" ry="0.3978" fill="none" stroke="#0A0A0A" stroke-width="0.1199" stroke-linecap="round" stroke-linejoin="round"/>
          <text font-family="Arial" fill="#000000" style="white-space:pre;" font-weight="400" text-anchor="start" x="73.9189" y="12.2024" font-size="0.1753"><![CDATA[USB]]></text>
          <text font-family="Arial" fill="#000000" style="white-space:pre;" font-weight="400" text-anchor="start" x="75.2736" y="11.4387" font-size="0.1753"><![CDATA[MGMT 1]]></text>
          <text font-family="Arial" fill="#000000" style="white-space:pre;" font-weight="400" text-anchor="start" x="75.2736" y="13.9844" font-size="0.1753"><![CDATA[MGMT 2]]></text>
          <text font-family="Arial" fill="#000000" style="white-space:pre;" font-weight="400" text-anchor="start" x="83.9277" y="11.4387" font-size="0.1753"><![CDATA[9]]></text>
          <text font-family="Arial" fill="#000000" style="white-space:pre;" font-weight="400" text-anchor="start" x="85.1709" y="11.4387" font-size="0.1753"><![CDATA[11]]></text>
          <text font-family="Arial" fill="#000000" style="white-space:pre;" font-weight="400" text-anchor="start" x="86.4459" y="11.4387" font-size="0.1753"><![CDATA[13]]></text>
          <text font-family="Arial" fill="#000000" style="white-space:pre;" font-weight="400" text-anchor="start" x="87.7368" y="11.4387" font-size="0.1753"><![CDATA[15]]></text>
          <text font-family="Arial" fill="#000000" style="white-space:pre;" font-weight="400" text-anchor="start" x="77.1383" y="11.4546" font-size="0.1753"><![CDATA[1]]></text>
          <text font-family="Arial" fill="#000000" style="white-space:pre;" font-weight="400" text-anchor="start" x="78.8595" y="11.4546" font-size="0.1753"><![CDATA[3]]></text>
          <text font-family="Arial" fill="#000000" style="white-space:pre;" font-weight="400" text-anchor="start" x="80.5649" y="11.4546" font-size="0.1753"><![CDATA[5]]></text>
          <text font-family="Arial" fill="#000000" style="white-space:pre;" font-weight="400" text-anchor="start" x="82.2861" y="11.4546" font-size="0.1753"><![CDATA[7]]></text>
          <text font-family="Arial" fill="#000000" style="white-space:pre;" font-weight="400" text-anchor="start" x="77.1383" y="13.9844" font-size="0.1753"><![CDATA[2]]></text>
          <text font-family="Arial" fill="#000000" style="white-space:pre;" font-weight="400" text-anchor="start" x="78.8595" y="13.9844" font-size="0.1753"><![CDATA[4]]></text>
          <text font-family="Arial" fill="#000000" style="white-space:pre;" font-weight="400" text-anchor="start" x="80.5649" y="13.9844" font-size="0.1753"><![CDATA[6]]></text>
          <text font-family="Arial" fill="#000000" style="white-space:pre;" font-weight="400" text-anchor="start" x="82.2861" y="13.9844" font-size="0.1753"><![CDATA[8]]></text>
          <text font-family="Arial" fill="#000000" style="white-space:pre;" font-weight="400" text-anchor="start" x="83.8799" y="13.9844" font-size="0.1753"><![CDATA[10]]></text>
          <text font-family="Arial" fill="#000000" style="white-space:pre;" font-weight="400" text-anchor="start" x="85.1709" y="13.9844" font-size="0.1753"><![CDATA[12]]></text>
          <text font-family="Arial" fill="#000000" style="white-space:pre;" font-weight="400" text-anchor="start" x="86.4459" y="13.9844" font-size="0.1753"><![CDATA[14]]></text>
          <text font-family="Arial" fill="#000000" style="white-space:pre;" font-weight="400" text-anchor="start" x="87.7368" y="13.9844" font-size="0.1753"><![CDATA[16]]></text>
          <path d="M 50.5678,6.8608 L 50.5678,8.9814 L 51.4608,8.9814 L 51.4608,9.4804 L 51.8236,9.4804 L 51.8236,9.9794 L 52.8841,9.9794 L 52.8841,9.4804 L 53.2469,9.4804 L 53.2469,8.9814 L 54.1399,8.9814 L 54.1399,6.8608 L 50.5678,6.8608 Z" stroke="#161616" stroke-width="0.1199" stroke-linecap="round" stroke-linejoin="round" fill="#000000"/>
          <path d="M 55.6174,5.7314 L 55.5752,5.7314 L 55.5752,5.7455 L 55.5471,5.7455 L 55.5330,5.7595 L 55.5189,5.7595 L 55.5189,5.7735 L 55.5049,5.7735 L 55.5049,5.7876 L 55.4908,5.7876 L 55.4908,5.8016 L 55.4767,5.8157 L 55.4767,5.8438 L 55.4627,5.8438 L 55.4627,7.2204 L 55.4767,7.2204 L 55.4767,7.2485 L 55.4908,7.2626 L 55.4908,7.2766 L 55.5049,7.2766 L 55.5049,7.2907 L 55.5189,7.2907 L 55.5189,7.3047 L 55.5330,7.3047 L 55.5471,7.3188 L 55.5752,7.3188 L 55.5752,7.3328 L 59.0908,7.3328 L 59.0908,7.3188 L 59.1189,7.3188 L 59.1330,7.3047 L 59.1471,7.3047 L 59.1471,7.2907 L 59.1611,7.2907 L 59.1611,7.2766 L 59.1752,7.2766 L 59.1752,7.2626 L 59.1893,7.2485 L 59.1893,7.2204 L 59.2033,7.2204 L 59.2033,5.8438 L 59.1893,5.8438 L 59.1893,5.8157 L 59.1752,5.8016 L 59.1752,5.7876 L 59.1611,5.7876 L 59.1611,5.7735 L 59.1471,5.7735 L 59.1471,5.7595 L 59.1330,5.7595 L 59.1189,5.7455 L 59.0908,5.7455 L 59.0908,5.7314 L 55.6314,5.7314 L 55.6174,5.7314 Z" stroke="#000000" stroke-width="0.1199" stroke-linecap="round" stroke-linejoin="round" fill="#BFBFBF"/>
          <path d="M 55.6736,5.8578 L 55.6314,5.8578 L 55.6314,5.8719 L 55.6174,5.8719 L 55.6174,5.8859 L 55.6033,5.8859 L 55.6033,5.9000 L 55.5892,5.9000 L 55.5892,7.1643 L 55.6033,7.1783 L 55.6033,7.1923 L 55.6174,7.1923 L 55.6174,7.2064 L 55.6314,7.2064 L 55.6455,7.2204 L 59.0346,7.2204 L 59.0346,7.2064 L 59.0486,7.2064 L 59.0486,7.1923 L 59.0627,7.1923 L 59.0627,7.1783 L 59.0768,7.1643 L 59.0768,5.9000 L 59.0627,5.9000 L 59.0627,5.8859 L 59.0486,5.8719 L 59.0346,5.8719 L 59.0346,5.8578 L 55.6877,5.8578 L 55.6736,5.8578 Z" stroke="#7F7F7F" stroke-width="0.1199" stroke-linecap="round" stroke-linejoin="round" fill="#000000"/>
          <path d="M 56.4189,6.5602 L 56.1096,6.5602 L 56.1096,6.4900 L 56.4189,6.4900 L 56.4189,6.5602 Z" stroke="#000000" stroke-width="0.1199" stroke-linecap="round" stroke-linejoin="round" fill="#E2E2CC"/>
          <path d="M 57.1221,6.5602 L 56.8127,6.5602 L 56.8127,6.4900 L 57.1221,6.4900 L 57.1221,6.5602 Z" stroke="#000000" stroke-width="0.1199" stroke-linecap="round" stroke-linejoin="round" fill="#E2E2CC"/>
          <path d="M 57.8111,6.5602 L 57.5018,6.5602 L 57.5018,6.4900 L 57.8111,6.4900 L 57.8111,6.5602 Z" stroke="#000000" stroke-width="0.1199" stroke-linecap="round" stroke-linejoin="round" fill="#E2E2CC"/>
          <path d="M 58.5283,6.5602 L 58.2189,6.5602 L 58.2189,6.4900 L 58.5283,6.4900 L 58.5283,6.5602 Z" stroke="#000000" stroke-width="0.1199" stroke-linecap="round" stroke-linejoin="round" fill="#E2E2CC"/>
          <path d="M 58.8658,6.1247 L 58.8658,6.0966 L 58.8518,6.0685 L 58.8236,6.0545 L 55.8424,6.0545 L 55.8142,6.0685 L 55.8002,6.0966 L 55.8002,6.4478 L 55.8142,6.4759 L 55.8424,6.4900 L 58.8236,6.4900 L 58.8518,6.4759 L 58.8658,6.4478 L 58.8658,6.4197 L 58.8658,6.1247 Z" stroke="#000000" stroke-width="0.1199" stroke-linecap="round" stroke-linejoin="round" fill="#494949"/>
          <path d="M 58.7533,6.2652 L 58.7393,6.2090 L 58.6830,6.1528 L 58.6268,6.1388 L 56.0392,6.1388 L 55.9830,6.1528 L 55.9267,6.2090 L 55.9127,6.2652 L 55.9267,6.3214 L 55.9830,6.3776 L 56.0392,6.3916 L 58.6268,6.3916 L 58.6830,6.3776 L 58.7393,6.3214 L 58.7533,6.2652 Z" stroke="#333333" stroke-width="0.1199" stroke-linecap="round" stroke-linejoin="round" fill="#333333"/>
          <path d="M 55.6174,8.0352 L 55.5752,8.0352 L 55.5752,8.0492 L 55.5471,8.0492 L 55.5330,8.0633 L 55.5189,8.0633 L 55.5189,8.0773 L 55.5049,8.0773 L 55.5049,8.0914 L 55.4908,8.0914 L 55.4908,8.1054 L 55.4767,8.1195 L 55.4767,8.1476 L 55.4627,8.1476 L 55.4627,9.5242 L 55.4767,9.5242 L 55.4767,9.5523 L 55.4908,9.5664 L 55.4908,9.5804 L 55.5049,9.5804 L 55.5049,9.5945 L 55.5189,9.5945 L 55.5189,9.6085 L 55.5330,9.6085 L 55.5471,9.6226 L 55.5752,9.6226 L 55.5752,9.6366 L 59.0908,9.6366 L 59.0908,9.6226 L 59.1189,9.6226 L 59.1330,9.6085 L 59.1471,9.6085 L 59.1471,9.5945 L 59.1611,9.5945 L 59.1611,9.5804 L 59.1752,9.5804 L 59.1752,9.5664 L 59.1893,9.5523 L 59.1893,9.5242 L 59.2033,9.5242 L 59.2033,8.1476 L 59.1893,8.1476 L 59.1893,8.1195 L 59.1752,8.1054 L 59.1752,8.0914 L 59.1611,8.0914 L 59.1611,8.0773 L 59.1471,8.0773 L 59.1471,8.0633 L 59.1330,8.0633 L 59.1189,8.0492 L 59.0908,8.0492 L 59.0908,8.0352 L 55.6314,8.0352 L 55.6174,8.0352 Z" stroke="#000000" stroke-width="0.1199" stroke-linecap="round" stroke-linejoin="round" fill="#BFBFBF"/>
          <path d="M 55.6736,8.1616 L 55.6314,8.1616 L 55.6314,8.1757 L 55.6174,8.1757 L 55.6174,8.1897 L 55.6033,8.1897 L 55.6033,8.2038 L 55.5892,8.2038 L 55.5892,9.4681 L 55.6033,9.4821 L 55.6033,9.4961 L 55.6174,9.4961 L 55.6174,9.5102 L 55.6314,9.5102 L 55.6455,9.5242 L 59.0346,9.5242 L 59.0346,9.5102 L 59.0486,9.5102 L 59.0486,9.4961 L 59.0627,9.4961 L 59.0627,9.4821 L 59.0768,9.4681 L 59.0768,8.2038 L 59.0627,8.2038 L 59.0627,8.1897 L 59.0486,8.1757 L 59.0346,8.1757 L 59.0346,8.1616 L 55.6877,8.1616 L 55.6736,8.1616 Z" stroke="#7F7F7F" stroke-width="0.1199" stroke-linecap="round" stroke-linejoin="round" fill="#000000"/>
          <path d="M 56.4189,8.8640 L 56.1096,8.8640 L 56.1096,8.7938 L 56.4189,8.7938 L 56.4189,8.8640 Z" stroke="#000000" stroke-width="0.1199" stroke-linecap="round" stroke-linejoin="round" fill="#E2E2CC"/>
          <path d="M 57.1221,8.8640 L 56.8127,8.8640 L 56.8127,8.7938 L 57.1221,8.7938 L 57.1221,8.8640 Z" stroke="#000000" stroke-width="0.1199" stroke-linecap="round" stroke-linejoin="round" fill="#E2E2CC"/>
          <path d="M 57.8111,8.8640 L 57.5018,8.8640 L 57.5018,8.7938 L 57.8111,8.7938 L 57.8111,8.8640 Z" stroke="#000000" stroke-width="0.1199" stroke-linecap="round" stroke-linejoin="round" fill="#E2E2CC"/>
          <path d="M 58.5283,8.8640 L 58.2189,8.8640 L 58.2189,8.7938 L 58.5283,8.7938 L 58.5283,8.8640 Z" stroke="#000000" stroke-width="0.1199" stroke-linecap="round" stroke-linejoin="round" fill="#E2E2CC"/>
          <path d="M 58.8658,8.4285 L 58.8658,8.4004 L 58.8518,8.3723 L 58.8236,8.3583 L 55.8424,8.3583 L 55.8142,8.3723 L 55.8002,8.4004 L 55.8002,8.7516 L 55.8142,8.7797 L 55.8424,8.7938 L 58.8236,8.7938 L 58.8518,8.7797 L 58.8658,8.7516 L 58.8658,8.7235 L 58.8658,8.4285 Z" stroke="#000000" stroke-width="0.1199" stroke-linecap="round" stroke-linejoin="round" fill="#494949"/>
          <path d="M 58.7533,8.5690 L 58.7393,8.5128 L 58.6830,8.4566 L 58.6268,8.4426 L 56.0392,8.4426 L 55.9830,8.4566 L 55.9267,8.5128 L 55.9127,8.5690 L 55.9267,8.6252 L 55.9830,8.6814 L 56.0392,8.6954 L 58.6268,8.6954 L 58.6830,8.6814 L 58.7393,8.6252 L 58.7533,8.5690 Z" stroke="#333333" stroke-width="0.1199" stroke-linecap="round" stroke-linejoin="round" fill="#333333"/>
          <path d="M 61.9877,2.6473 L 61.9877,2.7998 L 61.7627,2.7998 L 61.7627,3.2294 L 60.8205,3.2294 L 60.8205,3.2710 L 60.5252,3.2710 L 60.5252,2.7998 L 60.5814,2.7998 L 60.5814,3.2294 L 60.8205,3.2294 L 60.8205,4.1858 L 60.9190,4.1858 L 60.9190,4.6848 L 60.8205,4.6848 L 60.8205,5.7659 L 64.4205,5.7659 L 64.4205,4.6848 L 64.3221,4.6848 L 64.3221,4.1858 L 64.4205,4.1858 L 64.4205,3.2294 L 64.6596,3.2294 L 64.6596,2.7998 L 64.7158,2.7998 L 64.7158,3.2710 L 64.4205,3.2710 L 64.4205,3.2294 L 63.4783,3.2294 L 63.4783,2.7998 L 63.2533,2.7998 L 63.2533,2.6473 L 61.9877,2.6473 Z" stroke="#000000" stroke-width="0.1199" stroke-linecap="round" stroke-linejoin="round" fill="#000000"/>
          <path d="M 61.7627,2.8136 L 60.5814,2.8136 L 60.5814,3.2433 L 61.7627,3.2433 L 61.7627,2.8136 Z" stroke="#494949" stroke-width="0.1199" stroke-linecap="round" stroke-linejoin="round" fill="#000000"/>
          <path d="M 64.6596,2.8136 L 63.4783,2.8136 L 63.4783,3.2433 L 64.6596,3.2433 L 64.6596,2.8136 Z" stroke="#494949" stroke-width="0.1199" stroke-linecap="round" stroke-linejoin="round" fill="#000000"/>
          <path d="M 61.9877,10.0348 L 61.9877,9.8824 L 61.7627,9.8824 L 61.7627,9.4527 L 60.8205,9.4527 L 60.8205,9.4111 L 60.5252,9.4111 L 60.5252,9.8824 L 60.5814,9.8824 L 60.5814,9.4527 L 60.8205,9.4527 L 60.8205,8.4963 L 60.9190,8.4963 L 60.9190,7.9974 L 60.8205,7.9974 L 60.8205,6.9163 L 64.4205,6.9163 L 64.4205,7.9974 L 64.3221,7.9974 L 64.3221,8.4963 L 64.4205,8.4963 L 64.4205,9.4527 L 64.6596,9.4527 L 64.6596,9.8824 L 64.7158,9.8824 L 64.7158,9.4111 L 64.4205,9.4111 L 64.4205,9.4527 L 63.4783,9.4527 L 63.4783,9.8824 L 63.2533,9.8824 L 63.2533,10.0348 L 61.9877,10.0348 Z" stroke="#000000" stroke-width="0.1199" stroke-linecap="round" stroke-linejoin="round" fill="#000000"/>
          <path d="M 61.7627,9.4527 L 60.5814,9.4527 L 60.5814,9.8824 L 61.7627,9.8824 L 61.7627,9.4527 Z" stroke="#494949" stroke-width="0.1199" stroke-linecap="round" stroke-linejoin="round" fill="#000000"/>
          <path d="M 64.6596,9.4527 L 63.4783,9.4527 L 63.4783,9.8824 L 64.6596,9.8824 L 64.6596,9.4527 Z" stroke="#494949" stroke-width="0.1199" stroke-linecap="round" stroke-linejoin="round" fill="#000000"/>
          <path d="M 70.3409,5.4212 L 66.3752,5.4212 L 66.3752,2.7521 L 70.3409,2.7521 L 70.3409,5.4212 Z" stroke="#000000" stroke-width="0.1199" stroke-linecap="round" stroke-linejoin="round" fill="none"/>
          <path d="M 70.3409,9.8605 L 66.3752,9.8605 L 66.3752,7.1914 L 70.3409,7.1914 L 70.3409,9.8605 Z" stroke="#000000" stroke-width="0.1199" stroke-linecap="round" stroke-linejoin="round" fill="none"/>
          <path d="M 76.3596,5.4212 L 72.3940,5.4212 L 72.3940,2.7521 L 76.3596,2.7521 L 76.3596,5.4212 Z" stroke="#000000" stroke-width="0.1199" stroke-linecap="round" stroke-linejoin="round" fill="none"/>
          <path d="M 76.3596,9.8605 L 72.3940,9.8605 L 72.3940,7.1914 L 76.3596,7.1914 L 76.3596,9.8605 Z" stroke="#000000" stroke-width="0.1199" stroke-linecap="round" stroke-linejoin="round" fill="none"/>
          <path d="M 82.3784,5.4212 L 78.4128,5.4212 L 78.4128,2.7521 L 82.3784,2.7521 L 82.3784,5.4212 Z" stroke="#000000" stroke-width="0.1199" stroke-linecap="round" stroke-linejoin="round" fill="none"/>
          <path d="M 82.3784,9.8605 L 78.4128,9.8605 L 78.4128,7.1914 L 82.3784,7.1914 L 82.3784,9.8605 Z" stroke="#000000" stroke-width="0.1199" stroke-linecap="round" stroke-linejoin="round" fill="none"/>
          <path d="M 88.3972,5.4212 L 84.4315,5.4212 L 84.4315,2.7521 L 88.3972,2.7521 L 88.3972,5.4212 Z" stroke="#000000" stroke-width="0.1199" stroke-linecap="round" stroke-linejoin="round" fill="none"/>
          <path d="M 88.3972,9.8605 L 84.4315,9.8605 L 84.4315,7.1914 L 88.3972,7.1914 L 88.3972,9.8605 Z" stroke="#000000" stroke-width="0.1199" stroke-linecap="round" stroke-linejoin="round" fill="none"/>
          <path d="M 91.5753,2.6473 L 91.5753,2.7998 L 91.3503,2.7998 L 91.3503,3.2294 L 90.4081,3.2294 L 90.4081,3.2710 L 90.1128,3.2710 L 90.1128,2.7998 L 90.1690,2.7998 L 90.1690,3.2294 L 90.4081,3.2294 L 90.4081,4.1858 L 90.5065,4.1858 L 90.5065,4.6848 L 90.4081,4.6848 L 90.4081,5.7659 L 94.0081,5.7659 L 94.0081,4.6848 L 93.9097,4.6848 L 93.9097,4.1858 L 94.0081,4.1858 L 94.0081,3.2294 L 94.2472,3.2294 L 94.2472,2.7998 L 94.3034,2.7998 L 94.3034,3.2710 L 94.0081,3.2710 L 94.0081,3.2294 L 93.0659,3.2294 L 93.0659,2.7998 L 92.8409,2.7998 L 92.8409,2.6473 L 91.5753,2.6473 Z" stroke="#000000" stroke-width="0.1199" stroke-linecap="round" stroke-linejoin="round" fill="#000000"/>
          <path d="M 91.3503,2.8136 L 90.1690,2.8136 L 90.1690,3.2433 L 91.3503,3.2433 L 91.3503,2.8136 Z" stroke="#494949" stroke-width="0.1199" stroke-linecap="round" stroke-linejoin="round" fill="#000000"/>
          <path d="M 94.2472,2.8136 L 93.0659,2.8136 L 93.0659,3.2433 L 94.2472,3.2433 L 94.2472,2.8136 Z" stroke="#494949" stroke-width="0.1199" stroke-linecap="round" stroke-linejoin="round" fill="#000000"/>
          <path d="M 91.5753,10.0348 L 91.5753,9.8824 L 91.3503,9.8824 L 91.3503,9.4527 L 90.4081,9.4527 L 90.4081,9.4111 L 90.1128,9.4111 L 90.1128,9.8824 L 90.1690,9.8824 L 90.1690,9.4527 L 90.4081,9.4527 L 90.4081,8.4963 L 90.5065,8.4963 L 90.5065,7.9974 L 90.4081,7.9974 L 90.4081,6.9163 L 94.0081,6.9163 L 94.0081,7.9974 L 93.9097,7.9974 L 93.9097,8.4963 L 94.0081,8.4963 L 94.0081,9.4527 L 94.2472,9.4527 L 94.2472,9.8824 L 94.3034,9.8824 L 94.3034,9.4111 L 94.0081,9.4111 L 94.0081,9.4527 L 93.0659,9.4527 L 93.0659,9.8824 L 92.8409,9.8824 L 92.8409,10.0348 L 91.5753,10.0348 Z" stroke="#000000" stroke-width="0.1199" stroke-linecap="round" stroke-linejoin="round" fill="#000000"/>
          <path d="M 91.3503,9.4527 L 90.1690,9.4527 L 90.1690,9.8824 L 91.3503,9.8824 L 91.3503,9.4527 Z" stroke="#494949" stroke-width="0.1199" stroke-linecap="round" stroke-linejoin="round" fill="#000000"/>
          <path d="M 94.2472,9.4527 L 93.0659,9.4527 L 93.0659,9.8824 L 94.2472,9.8824 L 94.2472,9.4527 Z" stroke="#494949" stroke-width="0.1199" stroke-linecap="round" stroke-linejoin="round" fill="#000000"/>
          <path d="M 96.1316,2.6473 L 96.1316,2.7998 L 95.9066,2.7998 L 95.9066,3.2294 L 94.9644,3.2294 L 94.9644,3.2710 L 94.6691,3.2710 L 94.6691,2.7998 L 94.7253,2.7998 L 94.7253,3.2294 L 94.9644,3.2294 L 94.9644,4.1858 L 95.0628,4.1858 L 95.0628,4.6848 L 94.9644,4.6848 L 94.9644,5.7659 L 98.5644,5.7659 L 98.5644,4.6848 L 98.4659,4.6848 L 98.4659,4.1858 L 98.5644,4.1858 L 98.5644,3.2294 L 98.8034,3.2294 L 98.8034,2.7998 L 98.8597,2.7998 L 98.8597,3.2710 L 98.5644,3.2710 L 98.5644,3.2294 L 97.6222,3.2294 L 97.6222,2.7998 L 97.3972,2.7998 L 97.3972,2.6473 L 96.1316,2.6473 Z" stroke="#000000" stroke-width="0.1199" stroke-linecap="round" stroke-linejoin="round" fill="#000000"/>
          <path d="M 95.9066,2.8136 L 94.7253,2.8136 L 94.7253,3.2433 L 95.9066,3.2433 L 95.9066,2.8136 Z" stroke="#494949" stroke-width="0.1199" stroke-linecap="round" stroke-linejoin="round" fill="#000000"/>
          <path d="M 98.8034,2.8136 L 97.6222,2.8136 L 97.6222,3.2433 L 98.8034,3.2433 L 98.8034,2.8136 Z" stroke="#494949" stroke-width="0.1199" stroke-linecap="round" stroke-linejoin="round" fill="#000000"/>
          <path d="M 96.1316,10.0348 L 96.1316,9.8824 L 95.9066,9.8824 L 95.9066,9.4527 L 94.9644,9.4527 L 94.9644,9.4111 L 94.6691,9.4111 L 94.6691,9.8824 L 94.7253,9.8824 L 94.7253,9.4527 L 94.9644,9.4527 L 94.9644,8.4963 L 95.0628,8.4963 L 95.0628,7.9974 L 94.9644,7.9974 L 94.9644,6.9163 L 98.5644,6.9163 L 98.5644,7.9974 L 98.4659,7.9974 L 98.4659,8.4963 L 98.5644,8.4963 L 98.5644,9.4527 L 98.8034,9.4527 L 98.8034,9.8824 L 98.8597,9.8824 L 98.8597,9.4111 L 98.5644,9.4111 L 98.5644,9.4527 L 97.6222,9.4527 L 97.6222,9.8824 L 97.3972,9.8824 L 97.3972,10.0348 L 96.1316,10.0348 Z" stroke="#000000" stroke-width="0.1199" stroke-linecap="round" stroke-linejoin="round" fill="#000000"/>
          <path d="M 95.9066,9.4527 L 94.7253,9.4527 L 94.7253,9.8824 L 95.9066,9.8824 L 95.9066,9.4527 Z" stroke="#494949" stroke-width="0.1199" stroke-linecap="round" stroke-linejoin="round" fill="#000000"/>
          <path d="M 98.8034,9.4527 L 97.6222,9.4527 L 97.6222,9.8824 L 98.8034,9.8824 L 98.8034,9.4527 Z" stroke="#494949" stroke-width="0.1199" stroke-linecap="round" stroke-linejoin="round" fill="#000000"/>
          <path d="M 100.6316,2.6473 L 100.6316,2.7998 L 100.4066,2.7998 L 100.4066,3.2294 L 99.4644,3.2294 L 99.4644,3.2710 L 99.1691,3.2710 L 99.1691,2.7998 L 99.2253,2.7998 L 99.2253,3.2294 L 99.4644,3.2294 L 99.4644,4.1858 L 99.5628,4.1858 L 99.5628,4.6848 L 99.4644,4.6848 L 99.4644,5.7659 L 103.0644,5.7659 L 103.0644,4.6848 L 102.9660,4.6848 L 102.9660,4.1858 L 103.0644,4.1858 L 103.0644,3.2294 L 103.3035,3.2294 L 103.3035,2.7998 L 103.3597,2.7998 L 103.3597,3.2710 L 103.0644,3.2710 L 103.0644,3.2294 L 102.1222,3.2294 L 102.1222,2.7998 L 101.8972,2.7998 L 101.8972,2.6473 L 100.6316,2.6473 Z" stroke="#000000" stroke-width="0.1199" stroke-linecap="round" stroke-linejoin="round" fill="#000000"/>
          <path d="M 100.4066,2.8136 L 99.2253,2.8136 L 99.2253,3.2433 L 100.4066,3.2433 L 100.4066,2.8136 Z" stroke="#494949" stroke-width="0.1199" stroke-linecap="round" stroke-linejoin="round" fill="#000000"/>
          <path d="M 103.3035,2.8136 L 102.1222,2.8136 L 102.1222,3.2433 L 103.3035,3.2433 L 103.3035,2.8136 Z" stroke="#494949" stroke-width="0.1199" stroke-linecap="round" stroke-linejoin="round" fill="#000000"/>
          <path d="M 100.6316,10.0348 L 100.6316,9.8824 L 100.4066,9.8824 L 100.4066,9.4527 L 99.4644,9.4527 L 99.4644,9.4111 L 99.1691,9.4111 L 99.1691,9.8824 L 99.2253,9.8824 L 99.2253,9.4527 L 99.4644,9.4527 L 99.4644,8.4963 L 99.5628,8.4963 L 99.5628,7.9974 L 99.4644,7.9974 L 99.4644,6.9163 L 103.0644,6.9163 L 103.0644,7.9974 L 102.9660,7.9974 L 102.9660,8.4963 L 103.0644,8.4963 L 103.0644,9.4527 L 103.3035,9.4527 L 103.3035,9.8824 L 103.3597,9.8824 L 103.3597,9.4111 L 103.0644,9.4111 L 103.0644,9.4527 L 102.1222,9.4527 L 102.1222,9.8824 L 101.8972,9.8824 L 101.8972,10.0348 L 100.6316,10.0348 Z" stroke="#000000" stroke-width="0.1199" stroke-linecap="round" stroke-linejoin="round" fill="#000000"/>
          <path d="M 100.4066,9.4527 L 99.2253,9.4527 L 99.2253,9.8824 L 100.4066,9.8824 L 100.4066,9.4527 Z" stroke="#494949" stroke-width="0.1199" stroke-linecap="round" stroke-linejoin="round" fill="#000000"/>
          <path d="M 103.3035,9.4527 L 102.1222,9.4527 L 102.1222,9.8824 L 103.3035,9.8824 L 103.3035,9.4527 Z" stroke="#494949" stroke-width="0.1199" stroke-linecap="round" stroke-linejoin="round" fill="#000000"/>
          <path d="M 105.1878,2.6473 L 105.1878,2.7998 L 104.9628,2.7998 L 104.9628,3.2294 L 104.0207,3.2294 L 104.0207,3.2710 L 103.7253,3.2710 L 103.7253,2.7998 L 103.7816,2.7998 L 103.7816,3.2294 L 104.0207,3.2294 L 104.0207,4.1858 L 104.1191,4.1858 L 104.1191,4.6848 L 104.0207,4.6848 L 104.0207,5.7659 L 107.6207,5.7659 L 107.6207,4.6848 L 107.5222,4.6848 L 107.5222,4.1858 L 107.6207,4.1858 L 107.6207,3.2294 L 107.8597,3.2294 L 107.8597,2.7998 L 107.9160,2.7998 L 107.9160,3.2710 L 107.6207,3.2710 L 107.6207,3.2294 L 106.6785,3.2294 L 106.6785,2.7998 L 106.4535,2.7998 L 106.4535,2.6473 L 105.1878,2.6473 Z" stroke="#000000" stroke-width="0.1199" stroke-linecap="round" stroke-linejoin="round" fill="#000000"/>
          <path d="M 104.9628,2.8136 L 103.7816,2.8136 L 103.7816,3.2433 L 104.9628,3.2433 L 104.9628,2.8136 Z" stroke="#494949" stroke-width="0.1199" stroke-linecap="round" stroke-linejoin="round" fill="#000000"/>
          <path d="M 107.8597,2.8136 L 106.6785,2.8136 L 106.6785,3.2433 L 107.8597,3.2433 L 107.8597,2.8136 Z" stroke="#494949" stroke-width="0.1199" stroke-linecap="round" stroke-linejoin="round" fill="#000000"/>
          <path d="M 105.1878,10.0348 L 105.1878,9.8824 L 104.9628,9.8824 L 104.9628,9.4527 L 104.0207,9.4527 L 104.0207,9.4111 L 103.7253,9.4111 L 103.7253,9.8824 L 103.7816,9.8824 L 103.7816,9.4527 L 104.0207,9.4527 L 104.0207,8.4963 L 104.1191,8.4963 L 104.1191,7.9974 L 104.0207,7.9974 L 104.0207,6.9163 L 107.6207,6.9163 L 107.6207,7.9974 L 107.5222,7.9974 L 107.5222,8.4963 L 107.6207,8.4963 L 107.6207,9.4527 L 107.8597,9.4527 L 107.8597,9.8824 L 107.9160,9.8824 L 107.9160,9.4111 L 107.6207,9.4111 L 107.6207,9.4527 L 106.6785,9.4527 L 106.6785,9.8824 L 106.4535,9.8824 L 106.4535,10.0348 L 105.1878,10.0348 Z" stroke="#000000" stroke-width="0.1199" stroke-linecap="round" stroke-linejoin="round" fill="#000000"/>
          <path d="M 104.9628,9.4527 L 103.7816,9.4527 L 103.7816,9.8824 L 104.9628,9.8824 L 104.9628,9.4527 Z" stroke="#494949" stroke-width="0.1199" stroke-linecap="round" stroke-linejoin="round" fill="#000000"/>
          <path d="M 107.8597,9.4527 L 106.6785,9.4527 L 106.6785,9.8824 L 107.8597,9.8824 L 107.8597,9.4527 Z" stroke="#494949" stroke-width="0.1199" stroke-linecap="round" stroke-linejoin="round" fill="#000000"/>
          <path d="M 91.2106,2.8657 L 90.4503,2.8657 L 90.4503,3.1769 L 91.2106,3.1769 L 91.2106,2.8657 Z" stroke="#000000" stroke-width="0.1199" stroke-linecap="round" stroke-linejoin="round" fill="#83FF00"/>
          <path d="M 94.0211,2.8657 L 93.2608,2.8657 L 93.2608,3.1769 L 94.0211,3.1769 L 94.0211,2.8657 Z" stroke="#000000" stroke-width="0.1199" stroke-linecap="round" stroke-linejoin="round" fill="#83FF00"/>
          <path d="M 95.7590,2.8657 L 94.9986,2.8657 L 94.9986,3.1769 L 95.7590,3.1769 L 95.7590,2.8657 Z" stroke="#000000" stroke-width="0.1199" stroke-linecap="round" stroke-linejoin="round" fill="#83FF00"/>
          <path d="M 98.5694,2.8657 L 97.8091,2.8657 L 97.8091,3.1769 L 98.5694,3.1769 L 98.5694,2.8657 Z" stroke="#000000" stroke-width="0.1199" stroke-linecap="round" stroke-linejoin="round" fill="#83FF00"/>
          <path d="M 100.2122,2.8657 L 99.4519,2.8657 L 99.4519,3.1769 L 100.2122,3.1769 L 100.2122,2.8657 Z" stroke="#000000" stroke-width="0.1199" stroke-linecap="round" stroke-linejoin="round" fill="#83FF00"/>
          <path d="M 103.0227,2.8657 L 102.2624,2.8657 L 102.2624,3.1769 L 103.0227,3.1769 L 103.0227,2.8657 Z" stroke="#000000" stroke-width="0.1199" stroke-linecap="round" stroke-linejoin="round" fill="#83FF00"/>
          <path d="M 104.8149,2.8657 L 104.0545,2.8657 L 104.0545,3.1769 L 104.8149,3.1769 L 104.8149,2.8657 Z" stroke="#000000" stroke-width="0.1199" stroke-linecap="round" stroke-linejoin="round" fill="#83FF00"/>
          <path d="M 107.6253,2.8657 L 106.8650,2.8657 L 106.8650,3.1769 L 107.6253,3.1769 L 107.6253,2.8657 Z" stroke="#000000" stroke-width="0.1199" stroke-linecap="round" stroke-linejoin="round" fill="#83FF00"/>
          <path d="M 91.2106,9.5567 L 90.4503,9.5567 L 90.4503,9.8679 L 91.2106,9.8679 L 91.2106,9.5567 Z" stroke="#000000" stroke-width="0.1199" stroke-linecap="round" stroke-linejoin="round" fill="#83FF00"/>
          <path d="M 94.0211,9.5567 L 93.2608,9.5567 L 93.2608,9.8679 L 94.0211,9.8679 L 94.0211,9.5567 Z" stroke="#000000" stroke-width="0.1199" stroke-linecap="round" stroke-linejoin="round" fill="#83FF00"/>
          <path d="M 95.7590,9.5567 L 94.9986,9.5567 L 94.9986,9.8679 L 95.7590,9.8679 L 95.7590,9.5567 Z" stroke="#000000" stroke-width="0.1199" stroke-linecap="round" stroke-linejoin="round" fill="#83FF00"/>
          <path d="M 98.5694,9.5567 L 97.8091,9.5567 L 97.8091,9.8679 L 98.5694,9.8679 L 98.5694,9.5567 Z" stroke="#000000" stroke-width="0.1199" stroke-linecap="round" stroke-linejoin="round" fill="#83FF00"/>
          <path d="M 100.2122,9.5567 L 99.4519,9.5567 L 99.4519,9.8679 L 100.2122,9.8679 L 100.2122,9.5567 Z" stroke="#000000" stroke-width="0.1199" stroke-linecap="round" stroke-linejoin="round" fill="#83FF00"/>
          <path d="M 103.0227,9.5567 L 102.2624,9.5567 L 102.2624,9.8679 L 103.0227,9.8679 L 103.0227,9.5567 Z" stroke="#000000" stroke-width="0.1199" stroke-linecap="round" stroke-linejoin="round" fill="#83FF00"/>
          <path d="M 104.8149,9.5567 L 104.0545,9.5567 L 104.0545,9.8679 L 104.8149,9.8679 L 104.8149,9.5567 Z" stroke="#000000" stroke-width="0.1199" stroke-linecap="round" stroke-linejoin="round" fill="#83FF00"/>
          <path d="M 107.6253,9.5567 L 106.8650,9.5567 L 106.8650,9.8679 L 107.6253,9.8679 L 107.6253,9.5567 Z" stroke="#000000" stroke-width="0.1199" stroke-linecap="round" stroke-linejoin="round" fill="#83FF00"/>
          <path d="M 61.6262,2.8657 L 60.8659,2.8657 L 60.8659,3.1769 L 61.6262,3.1769 L 61.6262,2.8657 Z" stroke="#000000" stroke-width="0.1199" stroke-linecap="round" stroke-linejoin="round" fill="#83FF00"/>
          <path d="M 64.4367,2.8657 L 63.6764,2.8657 L 63.6764,3.1769 L 64.4367,3.1769 L 64.4367,2.8657 Z" stroke="#000000" stroke-width="0.1199" stroke-linecap="round" stroke-linejoin="round" fill="#83FF00"/>
          <path d="M 61.6262,9.4918 L 60.8659,9.4918 L 60.8659,9.8030 L 61.6262,9.8030 L 61.6262,9.4918 Z" stroke="#000000" stroke-width="0.1199" stroke-linecap="round" stroke-linejoin="round" fill="#83FF00"/>
          <path d="M 64.4367,9.4918 L 63.6764,9.4918 L 63.6764,9.8030 L 64.4367,9.8030 L 64.4367,9.4918 Z" stroke="#000000" stroke-width="0.1199" stroke-linecap="round" stroke-linejoin="round" fill="#83FF00"/>
        </g>
        <!--emf-blob end-->
      </g>
    </g>
    <!--converted by libvisio2svg-->
  </g>
</svg>
