<svg xmlns="http://www.w3.org/2000/svg" xmlns:xlink="http://www.w3.org/1999/xlink" version="1.1" width="7.6832000000" height="2.6016000000" viewBox="0 0 138.2967 46.8264">
  <title><![CDATA[FG-500D ]]></title>
  <g transform=" scale(4.000000) ">
    <!--converted by libvisio2svg-->
    <g transform=" translate(0.720000,0.720000) ">
      <!--emf-blob start-->
      <g transform="translate(-0.0000, -0.0000)">
        <path d="M 15.9806,1.9388 L 15.9806,2.9838 L 16.9163,2.9838 " stroke="#000000" stroke-width="0.1200" stroke-linecap="round" stroke-linejoin="round" fill="none"/>
        <path d="M 16.9163,1.9388 L 18.7630,1.9388 " stroke="#000000" stroke-width="0.1200" stroke-linecap="round" stroke-linejoin="round" fill="none"/>
        <path d="M 17.8273,1.9388 L 17.8273,2.9838 " stroke="#000000" stroke-width="0.1200" stroke-linecap="round" stroke-linejoin="round" fill="none"/>
        <path d="M 19.2309,1.9388 L 19.2309,2.9838 " stroke="#000000" stroke-width="0.1200" stroke-linecap="round" stroke-linejoin="round" fill="none"/>
        <path d="M 19.2309,1.9388 L 19.2309,2.9838 " stroke="#000000" stroke-width="0.1200" stroke-linecap="round" stroke-linejoin="round" fill="none"/>
        <path d="M 20.1419,2.9838 L 20.1419,1.9388 L 21.0776,2.9838 L 22.0133,1.9388 L 22.0133,2.9838 " stroke="#000000" stroke-width="0.1200" stroke-linecap="round" stroke-linejoin="round" fill="none"/>
        <path d="M 22.4565,2.9838 L 23.3922,1.9388 L 24.3279,2.9838 " stroke="#000000" stroke-width="0.1200" stroke-linecap="round" stroke-linejoin="round" fill="none"/>
        <path d="M 22.7027,2.7225 L 24.0817,2.7225 " stroke="#000000" stroke-width="0.1200" stroke-linecap="round" stroke-linejoin="round" fill="none"/>
        <path d="M 13.1981,2.9838 L 14.1338,1.9388 L 15.0695,2.9838 " stroke="#000000" stroke-width="0.1200" stroke-linecap="round" stroke-linejoin="round" fill="none"/>
        <path d="M 13.4444,2.7225 L 14.8233,2.7225 " stroke="#000000" stroke-width="0.1200" stroke-linecap="round" stroke-linejoin="round" fill="none"/>
        <path d="M 136.8005,0.0281 L 0.0281,0.0281 L 0.0281,12.4291 L 136.8005,12.4291 L 136.8005,0.0281 Z" stroke="#000000" stroke-width="0.1200" stroke-linecap="round" stroke-linejoin="round" fill="#EAEAEA"/>
        <path d="M 129.6019,0.0281 L 7.2267,0.0281 L 7.2267,12.4291 L 129.6019,12.4291 L 129.6019,0.0281 Z" stroke="#000000" stroke-width="0.1200" stroke-linecap="round" stroke-linejoin="round" fill="#EAEAEA"/>
        <path d="M 4.5834,2.0762 L 4.5834,1.9780 L 4.5694,1.8798 L 4.5413,1.7816 L 4.4991,1.6834 L 4.4147,1.5151 L 4.3585,1.4449 L 4.2179,1.3046 L 4.1476,1.2485 L 3.9789,1.1643 L 3.8805,1.1223 L 3.7820,1.0942 L 3.6836,1.0802 L 1.8137,1.0802 L 1.7153,1.0942 L 1.6169,1.1223 L 1.5184,1.1643 L 1.3497,1.2485 L 1.2794,1.3046 L 1.1388,1.4449 L 1.0826,1.5151 L 0.9982,1.6834 L 0.9561,1.7816 L 0.9279,1.8798 L 0.9139,1.9780 L 0.9139,2.1744 L 0.9279,2.2726 L 0.9561,2.3708 L 0.9982,2.4690 L 1.0826,2.6373 L 1.1388,2.7075 L 1.2794,2.8477 L 1.3497,2.9039 L 1.5184,2.9880 L 1.6169,3.0301 L 1.7153,3.0582 L 1.8137,3.0722 L 3.6836,3.0722 L 3.7820,3.0582 L 3.8805,3.0301 L 3.9789,2.9880 L 4.1476,2.9039 L 4.2179,2.8477 L 4.3585,2.7075 L 4.4147,2.6373 L 4.4991,2.4690 L 4.5413,2.3708 L 4.5694,2.2726 L 4.5834,2.1744 L 4.5834,2.0762 Z" stroke="#000000" stroke-width="0.1200" stroke-linecap="round" stroke-linejoin="round" fill="#FFFFFF"/>
        <path d="M 4.5834,10.3809 L 4.5834,10.2827 L 4.5694,10.1845 L 4.5413,10.0863 L 4.4991,9.9881 L 4.4147,9.8198 L 4.3585,9.7497 L 4.2179,9.6094 L 4.1476,9.5533 L 3.9789,9.4691 L 3.8805,9.4270 L 3.7820,9.3990 L 3.6836,9.3849 L 1.8137,9.3849 L 1.7153,9.3990 L 1.6169,9.4270 L 1.5184,9.4691 L 1.3497,9.5533 L 1.2794,9.6094 L 1.1388,9.7497 L 1.0826,9.8198 L 0.9982,9.9881 L 0.9561,10.0863 L 0.9279,10.1845 L 0.9139,10.2827 L 0.9139,10.4791 L 0.9279,10.5773 L 0.9561,10.6755 L 0.9982,10.7737 L 1.0826,10.9421 L 1.1388,11.0122 L 1.2794,11.1525 L 1.3497,11.2086 L 1.5184,11.2928 L 1.6169,11.3349 L 1.7153,11.3629 L 1.8137,11.3769 L 3.6836,11.3769 L 3.7820,11.3629 L 3.8805,11.3349 L 3.9789,11.2928 L 4.1476,11.2086 L 4.2179,11.1525 L 4.3585,11.0122 L 4.4147,10.9421 L 4.4991,10.7737 L 4.5413,10.6755 L 4.5694,10.5773 L 4.5834,10.4791 L 4.5834,10.3809 Z" stroke="#000000" stroke-width="0.1200" stroke-linecap="round" stroke-linejoin="round" fill="#FFFFFF"/>
        <path d="M 135.9288,2.0762 L 135.9288,1.9780 L 135.9147,1.8798 L 135.8866,1.7816 L 135.8444,1.6834 L 135.7600,1.5151 L 135.7038,1.4449 L 135.5632,1.3046 L 135.4929,1.2485 L 135.3242,1.1643 L 135.2258,1.1223 L 135.1274,1.0942 L 135.0289,1.0802 L 133.1590,1.0802 L 133.0606,1.0942 L 132.9622,1.1223 L 132.8638,1.1643 L 132.6950,1.2485 L 132.6247,1.3046 L 132.4841,1.4449 L 132.4279,1.5151 L 132.3436,1.6834 L 132.3014,1.7816 L 132.2733,1.8798 L 132.2592,1.9780 L 132.2592,2.1744 L 132.2733,2.2726 L 132.3014,2.3708 L 132.3436,2.4690 L 132.4279,2.6373 L 132.4841,2.7075 L 132.6247,2.8477 L 132.6950,2.9039 L 132.8638,2.9880 L 132.9622,3.0301 L 133.0606,3.0582 L 133.1590,3.0722 L 135.0289,3.0722 L 135.1274,3.0582 L 135.2258,3.0301 L 135.3242,2.9880 L 135.4929,2.9039 L 135.5632,2.8477 L 135.7038,2.7075 L 135.7600,2.6373 L 135.8444,2.4690 L 135.8866,2.3708 L 135.9147,2.2726 L 135.9288,2.1744 L 135.9288,2.0762 Z" stroke="#000000" stroke-width="0.1200" stroke-linecap="round" stroke-linejoin="round" fill="#FFFFFF"/>
        <path d="M 135.9288,10.3809 L 135.9288,10.2827 L 135.9147,10.1845 L 135.8866,10.0863 L 135.8444,9.9881 L 135.7600,9.8198 L 135.7038,9.7497 L 135.5632,9.6094 L 135.4929,9.5533 L 135.3242,9.4691 L 135.2258,9.4270 L 135.1274,9.3990 L 135.0289,9.3849 L 133.1590,9.3849 L 133.0606,9.3990 L 132.9622,9.4270 L 132.8638,9.4691 L 132.6950,9.5533 L 132.6247,9.6094 L 132.4841,9.7497 L 132.4279,9.8198 L 132.3436,9.9881 L 132.3014,10.0863 L 132.2733,10.1845 L 132.2592,10.2827 L 132.2592,10.4791 L 132.2733,10.5773 L 132.3014,10.6755 L 132.3436,10.7737 L 132.4279,10.9421 L 132.4841,11.0122 L 132.6247,11.1525 L 132.6950,11.2086 L 132.8638,11.2928 L 132.9622,11.3349 L 133.0606,11.3629 L 133.1590,11.3769 L 135.0289,11.3769 L 135.1274,11.3629 L 135.2258,11.3349 L 135.3242,11.2928 L 135.4929,11.2086 L 135.5632,11.1525 L 135.7038,11.0122 L 135.7600,10.9421 L 135.8444,10.7737 L 135.8866,10.6755 L 135.9147,10.5773 L 135.9288,10.4791 L 135.9288,10.3809 Z" stroke="#000000" stroke-width="0.1200" stroke-linecap="round" stroke-linejoin="round" fill="#FFFFFF"/>
        <path d="M 128.8146,1.0942 L 128.8146,1.0381 L 128.7865,0.9820 L 128.7724,0.9259 L 128.6880,0.8417 L 128.6318,0.8277 L 128.5756,0.7996 L 8.2530,0.7996 L 8.1968,0.8277 L 8.1405,0.8417 L 8.0562,0.9259 L 8.0421,0.9820 L 8.0140,1.0381 L 8.0140,11.4331 L 8.0421,11.4892 L 8.0562,11.5453 L 8.1405,11.6294 L 8.1968,11.6435 L 8.2530,11.6715 L 128.5756,11.6715 L 128.6318,11.6435 L 128.6880,11.6294 L 128.7724,11.5453 L 128.7865,11.4892 L 128.8146,11.4331 L 128.8146,11.3769 L 128.8146,1.0942 " stroke="#000000" stroke-width="0.1200" stroke-linecap="round" stroke-linejoin="round" fill="none"/>
        <ellipse cx="9.2372" cy="10.3739" rx="0.4921" ry="0.4840" fill="#000000" stroke="#000000" stroke-width="0.1200" stroke-linecap="round" stroke-linejoin="round"/>
        <ellipse cx="9.2372" cy="10.3739" rx="0.4921" ry="0.4840" fill="none" stroke="#000000" stroke-width="0.1200" stroke-linecap="round" stroke-linejoin="round"/>
        <ellipse cx="10.6080" cy="10.3739" rx="0.4851" ry="0.4840" fill="#000000" stroke="#000000" stroke-width="0.1200" stroke-linecap="round" stroke-linejoin="round"/>
        <ellipse cx="10.6080" cy="10.3739" rx="0.4851" ry="0.4840" fill="none" stroke="#000000" stroke-width="0.1200" stroke-linecap="round" stroke-linejoin="round"/>
        <ellipse cx="12.0069" cy="10.3739" rx="0.4921" ry="0.4840" fill="#000000" stroke="#000000" stroke-width="0.1200" stroke-linecap="round" stroke-linejoin="round"/>
        <ellipse cx="12.0069" cy="10.3739" rx="0.4921" ry="0.4840" fill="none" stroke="#000000" stroke-width="0.1200" stroke-linecap="round" stroke-linejoin="round"/>
        <ellipse cx="13.3778" cy="10.3739" rx="0.4851" ry="0.4840" fill="#000000" stroke="#000000" stroke-width="0.1200" stroke-linecap="round" stroke-linejoin="round"/>
        <ellipse cx="13.3778" cy="10.3739" rx="0.4851" ry="0.4840" fill="none" stroke="#000000" stroke-width="0.1200" stroke-linecap="round" stroke-linejoin="round"/>
        <ellipse cx="14.7556" cy="10.3739" rx="0.4851" ry="0.4840" fill="#000000" stroke="#000000" stroke-width="0.1200" stroke-linecap="round" stroke-linejoin="round"/>
        <ellipse cx="14.7556" cy="10.3739" rx="0.4851" ry="0.4840" fill="none" stroke="#000000" stroke-width="0.1200" stroke-linecap="round" stroke-linejoin="round"/>
        <ellipse cx="16.1545" cy="10.3739" rx="0.4921" ry="0.4840" fill="#000000" stroke="#000000" stroke-width="0.1200" stroke-linecap="round" stroke-linejoin="round"/>
        <ellipse cx="16.1545" cy="10.3739" rx="0.4921" ry="0.4840" fill="none" stroke="#000000" stroke-width="0.1200" stroke-linecap="round" stroke-linejoin="round"/>
        <ellipse cx="17.5254" cy="10.3739" rx="0.4851" ry="0.4840" fill="#000000" stroke="#000000" stroke-width="0.1200" stroke-linecap="round" stroke-linejoin="round"/>
        <ellipse cx="17.5254" cy="10.3739" rx="0.4851" ry="0.4840" fill="none" stroke="#000000" stroke-width="0.1200" stroke-linecap="round" stroke-linejoin="round"/>
        <ellipse cx="18.9102" cy="10.3739" rx="0.4921" ry="0.4840" fill="#000000" stroke="#000000" stroke-width="0.1200" stroke-linecap="round" stroke-linejoin="round"/>
        <ellipse cx="18.9102" cy="10.3739" rx="0.4921" ry="0.4840" fill="none" stroke="#000000" stroke-width="0.1200" stroke-linecap="round" stroke-linejoin="round"/>
        <ellipse cx="20.2951" cy="10.3739" rx="0.4851" ry="0.4840" fill="#000000" stroke="#000000" stroke-width="0.1200" stroke-linecap="round" stroke-linejoin="round"/>
        <ellipse cx="20.2951" cy="10.3739" rx="0.4851" ry="0.4840" fill="none" stroke="#000000" stroke-width="0.1200" stroke-linecap="round" stroke-linejoin="round"/>
        <ellipse cx="21.6730" cy="10.3739" rx="0.4851" ry="0.4840" fill="#000000" stroke="#000000" stroke-width="0.1200" stroke-linecap="round" stroke-linejoin="round"/>
        <ellipse cx="21.6730" cy="10.3739" rx="0.4851" ry="0.4840" fill="none" stroke="#000000" stroke-width="0.1200" stroke-linecap="round" stroke-linejoin="round"/>
        <ellipse cx="23.0578" cy="10.3739" rx="0.4921" ry="0.4840" fill="#000000" stroke="#000000" stroke-width="0.1200" stroke-linecap="round" stroke-linejoin="round"/>
        <ellipse cx="23.0578" cy="10.3739" rx="0.4921" ry="0.4840" fill="none" stroke="#000000" stroke-width="0.1200" stroke-linecap="round" stroke-linejoin="round"/>
        <ellipse cx="24.4427" cy="10.3739" rx="0.4851" ry="0.4840" fill="#000000" stroke="#000000" stroke-width="0.1200" stroke-linecap="round" stroke-linejoin="round"/>
        <ellipse cx="24.4427" cy="10.3739" rx="0.4851" ry="0.4840" fill="none" stroke="#000000" stroke-width="0.1200" stroke-linecap="round" stroke-linejoin="round"/>
        <ellipse cx="25.8276" cy="10.3739" rx="0.4921" ry="0.4840" fill="#000000" stroke="#000000" stroke-width="0.1200" stroke-linecap="round" stroke-linejoin="round"/>
        <ellipse cx="25.8276" cy="10.3739" rx="0.4921" ry="0.4840" fill="none" stroke="#000000" stroke-width="0.1200" stroke-linecap="round" stroke-linejoin="round"/>
        <ellipse cx="27.1984" cy="10.3739" rx="0.4851" ry="0.4840" fill="#000000" stroke="#000000" stroke-width="0.1200" stroke-linecap="round" stroke-linejoin="round"/>
        <ellipse cx="27.1984" cy="10.3739" rx="0.4851" ry="0.4840" fill="none" stroke="#000000" stroke-width="0.1200" stroke-linecap="round" stroke-linejoin="round"/>
        <ellipse cx="28.5903" cy="10.3739" rx="0.4851" ry="0.4840" fill="#000000" stroke="#000000" stroke-width="0.1200" stroke-linecap="round" stroke-linejoin="round"/>
        <ellipse cx="28.5903" cy="10.3739" rx="0.4851" ry="0.4840" fill="none" stroke="#000000" stroke-width="0.1200" stroke-linecap="round" stroke-linejoin="round"/>
        <ellipse cx="29.9752" cy="10.3739" rx="0.4921" ry="0.4840" fill="#000000" stroke="#000000" stroke-width="0.1200" stroke-linecap="round" stroke-linejoin="round"/>
        <ellipse cx="29.9752" cy="10.3739" rx="0.4921" ry="0.4840" fill="none" stroke="#000000" stroke-width="0.1200" stroke-linecap="round" stroke-linejoin="round"/>
        <ellipse cx="31.3460" cy="10.3739" rx="0.4851" ry="0.4840" fill="#000000" stroke="#000000" stroke-width="0.1200" stroke-linecap="round" stroke-linejoin="round"/>
        <ellipse cx="31.3460" cy="10.3739" rx="0.4851" ry="0.4840" fill="none" stroke="#000000" stroke-width="0.1200" stroke-linecap="round" stroke-linejoin="round"/>
        <ellipse cx="32.7449" cy="10.3739" rx="0.4921" ry="0.4840" fill="#000000" stroke="#000000" stroke-width="0.1200" stroke-linecap="round" stroke-linejoin="round"/>
        <ellipse cx="32.7449" cy="10.3739" rx="0.4921" ry="0.4840" fill="none" stroke="#000000" stroke-width="0.1200" stroke-linecap="round" stroke-linejoin="round"/>
        <ellipse cx="34.1158" cy="10.3739" rx="0.4851" ry="0.4840" fill="#000000" stroke="#000000" stroke-width="0.1200" stroke-linecap="round" stroke-linejoin="round"/>
        <ellipse cx="34.1158" cy="10.3739" rx="0.4851" ry="0.4840" fill="none" stroke="#000000" stroke-width="0.1200" stroke-linecap="round" stroke-linejoin="round"/>
        <ellipse cx="9.9261" cy="8.9711" rx="0.4921" ry="0.4840" fill="#000000" stroke="#000000" stroke-width="0.1200" stroke-linecap="round" stroke-linejoin="round"/>
        <ellipse cx="9.9261" cy="8.9711" rx="0.4921" ry="0.4840" fill="none" stroke="#000000" stroke-width="0.1200" stroke-linecap="round" stroke-linejoin="round"/>
        <ellipse cx="11.2969" cy="8.9711" rx="0.4851" ry="0.4840" fill="#000000" stroke="#000000" stroke-width="0.1200" stroke-linecap="round" stroke-linejoin="round"/>
        <ellipse cx="11.2969" cy="8.9711" rx="0.4851" ry="0.4840" fill="none" stroke="#000000" stroke-width="0.1200" stroke-linecap="round" stroke-linejoin="round"/>
        <ellipse cx="12.6959" cy="8.9711" rx="0.4921" ry="0.4840" fill="#000000" stroke="#000000" stroke-width="0.1200" stroke-linecap="round" stroke-linejoin="round"/>
        <ellipse cx="12.6959" cy="8.9711" rx="0.4921" ry="0.4840" fill="none" stroke="#000000" stroke-width="0.1200" stroke-linecap="round" stroke-linejoin="round"/>
        <ellipse cx="14.0667" cy="8.9711" rx="0.4851" ry="0.4840" fill="#000000" stroke="#000000" stroke-width="0.1200" stroke-linecap="round" stroke-linejoin="round"/>
        <ellipse cx="14.0667" cy="8.9711" rx="0.4851" ry="0.4840" fill="none" stroke="#000000" stroke-width="0.1200" stroke-linecap="round" stroke-linejoin="round"/>
        <ellipse cx="15.4445" cy="8.9711" rx="0.4851" ry="0.4840" fill="#000000" stroke="#000000" stroke-width="0.1200" stroke-linecap="round" stroke-linejoin="round"/>
        <ellipse cx="15.4445" cy="8.9711" rx="0.4851" ry="0.4840" fill="none" stroke="#000000" stroke-width="0.1200" stroke-linecap="round" stroke-linejoin="round"/>
        <ellipse cx="16.8364" cy="8.9711" rx="0.4851" ry="0.4840" fill="#000000" stroke="#000000" stroke-width="0.1200" stroke-linecap="round" stroke-linejoin="round"/>
        <ellipse cx="16.8364" cy="8.9711" rx="0.4851" ry="0.4840" fill="none" stroke="#000000" stroke-width="0.1200" stroke-linecap="round" stroke-linejoin="round"/>
        <ellipse cx="18.2143" cy="8.9711" rx="0.4851" ry="0.4840" fill="#000000" stroke="#000000" stroke-width="0.1200" stroke-linecap="round" stroke-linejoin="round"/>
        <ellipse cx="18.2143" cy="8.9711" rx="0.4851" ry="0.4840" fill="none" stroke="#000000" stroke-width="0.1200" stroke-linecap="round" stroke-linejoin="round"/>
        <ellipse cx="19.5992" cy="8.9711" rx="0.4921" ry="0.4840" fill="#000000" stroke="#000000" stroke-width="0.1200" stroke-linecap="round" stroke-linejoin="round"/>
        <ellipse cx="19.5992" cy="8.9711" rx="0.4921" ry="0.4840" fill="none" stroke="#000000" stroke-width="0.1200" stroke-linecap="round" stroke-linejoin="round"/>
        <ellipse cx="20.9840" cy="8.9711" rx="0.4851" ry="0.4840" fill="#000000" stroke="#000000" stroke-width="0.1200" stroke-linecap="round" stroke-linejoin="round"/>
        <ellipse cx="20.9840" cy="8.9711" rx="0.4851" ry="0.4840" fill="none" stroke="#000000" stroke-width="0.1200" stroke-linecap="round" stroke-linejoin="round"/>
        <ellipse cx="22.3689" cy="8.9711" rx="0.4921" ry="0.4840" fill="#000000" stroke="#000000" stroke-width="0.1200" stroke-linecap="round" stroke-linejoin="round"/>
        <ellipse cx="22.3689" cy="8.9711" rx="0.4921" ry="0.4840" fill="none" stroke="#000000" stroke-width="0.1200" stroke-linecap="round" stroke-linejoin="round"/>
        <ellipse cx="23.7397" cy="8.9711" rx="0.4851" ry="0.4840" fill="#000000" stroke="#000000" stroke-width="0.1200" stroke-linecap="round" stroke-linejoin="round"/>
        <ellipse cx="23.7397" cy="8.9711" rx="0.4851" ry="0.4840" fill="none" stroke="#000000" stroke-width="0.1200" stroke-linecap="round" stroke-linejoin="round"/>
        <ellipse cx="25.1316" cy="8.9711" rx="0.4851" ry="0.4840" fill="#000000" stroke="#000000" stroke-width="0.1200" stroke-linecap="round" stroke-linejoin="round"/>
        <ellipse cx="25.1316" cy="8.9711" rx="0.4851" ry="0.4840" fill="none" stroke="#000000" stroke-width="0.1200" stroke-linecap="round" stroke-linejoin="round"/>
        <ellipse cx="26.5165" cy="8.9711" rx="0.4921" ry="0.4840" fill="#000000" stroke="#000000" stroke-width="0.1200" stroke-linecap="round" stroke-linejoin="round"/>
        <ellipse cx="26.5165" cy="8.9711" rx="0.4921" ry="0.4840" fill="none" stroke="#000000" stroke-width="0.1200" stroke-linecap="round" stroke-linejoin="round"/>
        <ellipse cx="27.8873" cy="8.9711" rx="0.4851" ry="0.4840" fill="#000000" stroke="#000000" stroke-width="0.1200" stroke-linecap="round" stroke-linejoin="round"/>
        <ellipse cx="27.8873" cy="8.9711" rx="0.4851" ry="0.4840" fill="none" stroke="#000000" stroke-width="0.1200" stroke-linecap="round" stroke-linejoin="round"/>
        <ellipse cx="29.2863" cy="8.9711" rx="0.4921" ry="0.4840" fill="#000000" stroke="#000000" stroke-width="0.1200" stroke-linecap="round" stroke-linejoin="round"/>
        <ellipse cx="29.2863" cy="8.9711" rx="0.4921" ry="0.4840" fill="none" stroke="#000000" stroke-width="0.1200" stroke-linecap="round" stroke-linejoin="round"/>
        <ellipse cx="30.6571" cy="8.9711" rx="0.4851" ry="0.4840" fill="#000000" stroke="#000000" stroke-width="0.1200" stroke-linecap="round" stroke-linejoin="round"/>
        <ellipse cx="30.6571" cy="8.9711" rx="0.4851" ry="0.4840" fill="none" stroke="#000000" stroke-width="0.1200" stroke-linecap="round" stroke-linejoin="round"/>
        <ellipse cx="32.0349" cy="8.9711" rx="0.4851" ry="0.4840" fill="#000000" stroke="#000000" stroke-width="0.1200" stroke-linecap="round" stroke-linejoin="round"/>
        <ellipse cx="32.0349" cy="8.9711" rx="0.4851" ry="0.4840" fill="none" stroke="#000000" stroke-width="0.1200" stroke-linecap="round" stroke-linejoin="round"/>
        <ellipse cx="33.4339" cy="8.9711" rx="0.4921" ry="0.4840" fill="#000000" stroke="#000000" stroke-width="0.1200" stroke-linecap="round" stroke-linejoin="round"/>
        <ellipse cx="33.4339" cy="8.9711" rx="0.4921" ry="0.4840" fill="none" stroke="#000000" stroke-width="0.1200" stroke-linecap="round" stroke-linejoin="round"/>
        <ellipse cx="9.2372" cy="7.5683" rx="0.4921" ry="0.4840" fill="#000000" stroke="#000000" stroke-width="0.1200" stroke-linecap="round" stroke-linejoin="round"/>
        <ellipse cx="9.2372" cy="7.5683" rx="0.4921" ry="0.4840" fill="none" stroke="#000000" stroke-width="0.1200" stroke-linecap="round" stroke-linejoin="round"/>
        <ellipse cx="10.6080" cy="7.5683" rx="0.4851" ry="0.4840" fill="#000000" stroke="#000000" stroke-width="0.1200" stroke-linecap="round" stroke-linejoin="round"/>
        <ellipse cx="10.6080" cy="7.5683" rx="0.4851" ry="0.4840" fill="none" stroke="#000000" stroke-width="0.1200" stroke-linecap="round" stroke-linejoin="round"/>
        <ellipse cx="12.0069" cy="7.5683" rx="0.4921" ry="0.4840" fill="#000000" stroke="#000000" stroke-width="0.1200" stroke-linecap="round" stroke-linejoin="round"/>
        <ellipse cx="12.0069" cy="7.5683" rx="0.4921" ry="0.4840" fill="none" stroke="#000000" stroke-width="0.1200" stroke-linecap="round" stroke-linejoin="round"/>
        <ellipse cx="13.3778" cy="7.5683" rx="0.4851" ry="0.4840" fill="#000000" stroke="#000000" stroke-width="0.1200" stroke-linecap="round" stroke-linejoin="round"/>
        <ellipse cx="13.3778" cy="7.5683" rx="0.4851" ry="0.4840" fill="none" stroke="#000000" stroke-width="0.1200" stroke-linecap="round" stroke-linejoin="round"/>
        <ellipse cx="14.7556" cy="7.5683" rx="0.4851" ry="0.4840" fill="#000000" stroke="#000000" stroke-width="0.1200" stroke-linecap="round" stroke-linejoin="round"/>
        <ellipse cx="14.7556" cy="7.5683" rx="0.4851" ry="0.4840" fill="none" stroke="#000000" stroke-width="0.1200" stroke-linecap="round" stroke-linejoin="round"/>
        <ellipse cx="16.1545" cy="7.5683" rx="0.4921" ry="0.4840" fill="#000000" stroke="#000000" stroke-width="0.1200" stroke-linecap="round" stroke-linejoin="round"/>
        <ellipse cx="16.1545" cy="7.5683" rx="0.4921" ry="0.4840" fill="none" stroke="#000000" stroke-width="0.1200" stroke-linecap="round" stroke-linejoin="round"/>
        <ellipse cx="17.5254" cy="7.5683" rx="0.4851" ry="0.4840" fill="#000000" stroke="#000000" stroke-width="0.1200" stroke-linecap="round" stroke-linejoin="round"/>
        <ellipse cx="17.5254" cy="7.5683" rx="0.4851" ry="0.4840" fill="none" stroke="#000000" stroke-width="0.1200" stroke-linecap="round" stroke-linejoin="round"/>
        <ellipse cx="18.9102" cy="7.5683" rx="0.4921" ry="0.4840" fill="#000000" stroke="#000000" stroke-width="0.1200" stroke-linecap="round" stroke-linejoin="round"/>
        <ellipse cx="18.9102" cy="7.5683" rx="0.4921" ry="0.4840" fill="none" stroke="#000000" stroke-width="0.1200" stroke-linecap="round" stroke-linejoin="round"/>
        <ellipse cx="20.2951" cy="7.5683" rx="0.4851" ry="0.4840" fill="#000000" stroke="#000000" stroke-width="0.1200" stroke-linecap="round" stroke-linejoin="round"/>
        <ellipse cx="20.2951" cy="7.5683" rx="0.4851" ry="0.4840" fill="none" stroke="#000000" stroke-width="0.1200" stroke-linecap="round" stroke-linejoin="round"/>
        <ellipse cx="21.6730" cy="7.5683" rx="0.4851" ry="0.4840" fill="#000000" stroke="#000000" stroke-width="0.1200" stroke-linecap="round" stroke-linejoin="round"/>
        <ellipse cx="21.6730" cy="7.5683" rx="0.4851" ry="0.4840" fill="none" stroke="#000000" stroke-width="0.1200" stroke-linecap="round" stroke-linejoin="round"/>
        <ellipse cx="23.0578" cy="7.5683" rx="0.4921" ry="0.4840" fill="#000000" stroke="#000000" stroke-width="0.1200" stroke-linecap="round" stroke-linejoin="round"/>
        <ellipse cx="23.0578" cy="7.5683" rx="0.4921" ry="0.4840" fill="none" stroke="#000000" stroke-width="0.1200" stroke-linecap="round" stroke-linejoin="round"/>
        <ellipse cx="24.4427" cy="7.5683" rx="0.4851" ry="0.4840" fill="#000000" stroke="#000000" stroke-width="0.1200" stroke-linecap="round" stroke-linejoin="round"/>
        <ellipse cx="24.4427" cy="7.5683" rx="0.4851" ry="0.4840" fill="none" stroke="#000000" stroke-width="0.1200" stroke-linecap="round" stroke-linejoin="round"/>
        <ellipse cx="25.8276" cy="7.5683" rx="0.4921" ry="0.4840" fill="#000000" stroke="#000000" stroke-width="0.1200" stroke-linecap="round" stroke-linejoin="round"/>
        <ellipse cx="25.8276" cy="7.5683" rx="0.4921" ry="0.4840" fill="none" stroke="#000000" stroke-width="0.1200" stroke-linecap="round" stroke-linejoin="round"/>
        <ellipse cx="27.1984" cy="7.5683" rx="0.4851" ry="0.4840" fill="#000000" stroke="#000000" stroke-width="0.1200" stroke-linecap="round" stroke-linejoin="round"/>
        <ellipse cx="27.1984" cy="7.5683" rx="0.4851" ry="0.4840" fill="none" stroke="#000000" stroke-width="0.1200" stroke-linecap="round" stroke-linejoin="round"/>
        <ellipse cx="28.5903" cy="7.5683" rx="0.4851" ry="0.4840" fill="#000000" stroke="#000000" stroke-width="0.1200" stroke-linecap="round" stroke-linejoin="round"/>
        <ellipse cx="28.5903" cy="7.5683" rx="0.4851" ry="0.4840" fill="none" stroke="#000000" stroke-width="0.1200" stroke-linecap="round" stroke-linejoin="round"/>
        <ellipse cx="29.9752" cy="7.5683" rx="0.4921" ry="0.4840" fill="#000000" stroke="#000000" stroke-width="0.1200" stroke-linecap="round" stroke-linejoin="round"/>
        <ellipse cx="29.9752" cy="7.5683" rx="0.4921" ry="0.4840" fill="none" stroke="#000000" stroke-width="0.1200" stroke-linecap="round" stroke-linejoin="round"/>
        <ellipse cx="31.3460" cy="7.5683" rx="0.4851" ry="0.4840" fill="#000000" stroke="#000000" stroke-width="0.1200" stroke-linecap="round" stroke-linejoin="round"/>
        <ellipse cx="31.3460" cy="7.5683" rx="0.4851" ry="0.4840" fill="none" stroke="#000000" stroke-width="0.1200" stroke-linecap="round" stroke-linejoin="round"/>
        <ellipse cx="32.7449" cy="7.5683" rx="0.4921" ry="0.4840" fill="#000000" stroke="#000000" stroke-width="0.1200" stroke-linecap="round" stroke-linejoin="round"/>
        <ellipse cx="32.7449" cy="7.5683" rx="0.4921" ry="0.4840" fill="none" stroke="#000000" stroke-width="0.1200" stroke-linecap="round" stroke-linejoin="round"/>
        <ellipse cx="34.1158" cy="7.5683" rx="0.4851" ry="0.4840" fill="#000000" stroke="#000000" stroke-width="0.1200" stroke-linecap="round" stroke-linejoin="round"/>
        <ellipse cx="34.1158" cy="7.5683" rx="0.4851" ry="0.4840" fill="none" stroke="#000000" stroke-width="0.1200" stroke-linecap="round" stroke-linejoin="round"/>
        <ellipse cx="27.8873" cy="6.1654" rx="0.4851" ry="0.4840" fill="#000000" stroke="#000000" stroke-width="0.1200" stroke-linecap="round" stroke-linejoin="round"/>
        <ellipse cx="27.8873" cy="6.1654" rx="0.4851" ry="0.4840" fill="none" stroke="#000000" stroke-width="0.1200" stroke-linecap="round" stroke-linejoin="round"/>
        <ellipse cx="29.2863" cy="6.1654" rx="0.4921" ry="0.4840" fill="#000000" stroke="#000000" stroke-width="0.1200" stroke-linecap="round" stroke-linejoin="round"/>
        <ellipse cx="29.2863" cy="6.1654" rx="0.4921" ry="0.4840" fill="none" stroke="#000000" stroke-width="0.1200" stroke-linecap="round" stroke-linejoin="round"/>
        <ellipse cx="30.6571" cy="6.1654" rx="0.4851" ry="0.4840" fill="#000000" stroke="#000000" stroke-width="0.1200" stroke-linecap="round" stroke-linejoin="round"/>
        <ellipse cx="30.6571" cy="6.1654" rx="0.4851" ry="0.4840" fill="none" stroke="#000000" stroke-width="0.1200" stroke-linecap="round" stroke-linejoin="round"/>
        <ellipse cx="32.0349" cy="6.1654" rx="0.4851" ry="0.4840" fill="#000000" stroke="#000000" stroke-width="0.1200" stroke-linecap="round" stroke-linejoin="round"/>
        <ellipse cx="32.0349" cy="6.1654" rx="0.4851" ry="0.4840" fill="none" stroke="#000000" stroke-width="0.1200" stroke-linecap="round" stroke-linejoin="round"/>
        <ellipse cx="33.4339" cy="6.1654" rx="0.4921" ry="0.4840" fill="#000000" stroke="#000000" stroke-width="0.1200" stroke-linecap="round" stroke-linejoin="round"/>
        <ellipse cx="33.4339" cy="6.1654" rx="0.4921" ry="0.4840" fill="none" stroke="#000000" stroke-width="0.1200" stroke-linecap="round" stroke-linejoin="round"/>
        <ellipse cx="27.1984" cy="4.7626" rx="0.4851" ry="0.4840" fill="#000000" stroke="#000000" stroke-width="0.1200" stroke-linecap="round" stroke-linejoin="round"/>
        <ellipse cx="27.1984" cy="4.7626" rx="0.4851" ry="0.4840" fill="none" stroke="#000000" stroke-width="0.1200" stroke-linecap="round" stroke-linejoin="round"/>
        <ellipse cx="28.5903" cy="4.7626" rx="0.4851" ry="0.4840" fill="#000000" stroke="#000000" stroke-width="0.1200" stroke-linecap="round" stroke-linejoin="round"/>
        <ellipse cx="28.5903" cy="4.7626" rx="0.4851" ry="0.4840" fill="none" stroke="#000000" stroke-width="0.1200" stroke-linecap="round" stroke-linejoin="round"/>
        <ellipse cx="29.9752" cy="4.7626" rx="0.4921" ry="0.4840" fill="#000000" stroke="#000000" stroke-width="0.1200" stroke-linecap="round" stroke-linejoin="round"/>
        <ellipse cx="29.9752" cy="4.7626" rx="0.4921" ry="0.4840" fill="none" stroke="#000000" stroke-width="0.1200" stroke-linecap="round" stroke-linejoin="round"/>
        <ellipse cx="31.3460" cy="4.7626" rx="0.4851" ry="0.4840" fill="#000000" stroke="#000000" stroke-width="0.1200" stroke-linecap="round" stroke-linejoin="round"/>
        <ellipse cx="31.3460" cy="4.7626" rx="0.4851" ry="0.4840" fill="none" stroke="#000000" stroke-width="0.1200" stroke-linecap="round" stroke-linejoin="round"/>
        <ellipse cx="32.7449" cy="4.7626" rx="0.4921" ry="0.4840" fill="#000000" stroke="#000000" stroke-width="0.1200" stroke-linecap="round" stroke-linejoin="round"/>
        <ellipse cx="32.7449" cy="4.7626" rx="0.4921" ry="0.4840" fill="none" stroke="#000000" stroke-width="0.1200" stroke-linecap="round" stroke-linejoin="round"/>
        <ellipse cx="34.1158" cy="4.7626" rx="0.4851" ry="0.4840" fill="#000000" stroke="#000000" stroke-width="0.1200" stroke-linecap="round" stroke-linejoin="round"/>
        <ellipse cx="34.1158" cy="4.7626" rx="0.4851" ry="0.4840" fill="none" stroke="#000000" stroke-width="0.1200" stroke-linecap="round" stroke-linejoin="round"/>
        <ellipse cx="27.8873" cy="3.3598" rx="0.4851" ry="0.4840" fill="#000000" stroke="#000000" stroke-width="0.1200" stroke-linecap="round" stroke-linejoin="round"/>
        <ellipse cx="27.8873" cy="3.3598" rx="0.4851" ry="0.4840" fill="none" stroke="#000000" stroke-width="0.1200" stroke-linecap="round" stroke-linejoin="round"/>
        <ellipse cx="29.2863" cy="3.3598" rx="0.4921" ry="0.4840" fill="#000000" stroke="#000000" stroke-width="0.1200" stroke-linecap="round" stroke-linejoin="round"/>
        <ellipse cx="29.2863" cy="3.3598" rx="0.4921" ry="0.4840" fill="none" stroke="#000000" stroke-width="0.1200" stroke-linecap="round" stroke-linejoin="round"/>
        <ellipse cx="30.6571" cy="3.3598" rx="0.4851" ry="0.4840" fill="#000000" stroke="#000000" stroke-width="0.1200" stroke-linecap="round" stroke-linejoin="round"/>
        <ellipse cx="30.6571" cy="3.3598" rx="0.4851" ry="0.4840" fill="none" stroke="#000000" stroke-width="0.1200" stroke-linecap="round" stroke-linejoin="round"/>
        <ellipse cx="32.0349" cy="3.3598" rx="0.4851" ry="0.4840" fill="#000000" stroke="#000000" stroke-width="0.1200" stroke-linecap="round" stroke-linejoin="round"/>
        <ellipse cx="32.0349" cy="3.3598" rx="0.4851" ry="0.4840" fill="none" stroke="#000000" stroke-width="0.1200" stroke-linecap="round" stroke-linejoin="round"/>
        <ellipse cx="33.4339" cy="3.3598" rx="0.4921" ry="0.4840" fill="#000000" stroke="#000000" stroke-width="0.1200" stroke-linecap="round" stroke-linejoin="round"/>
        <ellipse cx="33.4339" cy="3.3598" rx="0.4921" ry="0.4840" fill="none" stroke="#000000" stroke-width="0.1200" stroke-linecap="round" stroke-linejoin="round"/>
        <ellipse cx="27.1984" cy="1.9569" rx="0.4851" ry="0.4840" fill="#000000" stroke="#000000" stroke-width="0.1200" stroke-linecap="round" stroke-linejoin="round"/>
        <ellipse cx="27.1984" cy="1.9569" rx="0.4851" ry="0.4840" fill="none" stroke="#000000" stroke-width="0.1200" stroke-linecap="round" stroke-linejoin="round"/>
        <ellipse cx="28.5903" cy="1.9569" rx="0.4851" ry="0.4840" fill="#000000" stroke="#000000" stroke-width="0.1200" stroke-linecap="round" stroke-linejoin="round"/>
        <ellipse cx="28.5903" cy="1.9569" rx="0.4851" ry="0.4840" fill="none" stroke="#000000" stroke-width="0.1200" stroke-linecap="round" stroke-linejoin="round"/>
        <ellipse cx="29.9752" cy="1.9569" rx="0.4921" ry="0.4840" fill="#000000" stroke="#000000" stroke-width="0.1200" stroke-linecap="round" stroke-linejoin="round"/>
        <ellipse cx="29.9752" cy="1.9569" rx="0.4921" ry="0.4840" fill="none" stroke="#000000" stroke-width="0.1200" stroke-linecap="round" stroke-linejoin="round"/>
        <ellipse cx="31.3460" cy="1.9569" rx="0.4851" ry="0.4840" fill="#000000" stroke="#000000" stroke-width="0.1200" stroke-linecap="round" stroke-linejoin="round"/>
        <ellipse cx="31.3460" cy="1.9569" rx="0.4851" ry="0.4840" fill="none" stroke="#000000" stroke-width="0.1200" stroke-linecap="round" stroke-linejoin="round"/>
        <ellipse cx="32.7449" cy="1.9569" rx="0.4921" ry="0.4840" fill="#000000" stroke="#000000" stroke-width="0.1200" stroke-linecap="round" stroke-linejoin="round"/>
        <ellipse cx="32.7449" cy="1.9569" rx="0.4921" ry="0.4840" fill="none" stroke="#000000" stroke-width="0.1200" stroke-linecap="round" stroke-linejoin="round"/>
        <ellipse cx="34.1158" cy="1.9569" rx="0.4851" ry="0.4840" fill="#000000" stroke="#000000" stroke-width="0.1200" stroke-linecap="round" stroke-linejoin="round"/>
        <ellipse cx="34.1158" cy="1.9569" rx="0.4851" ry="0.4840" fill="none" stroke="#000000" stroke-width="0.1200" stroke-linecap="round" stroke-linejoin="round"/>
        <path d="M 54.6077,6.1163 L 50.0946,6.1163 L 50.0946,10.1004 L 54.6077,10.1004 L 54.6077,6.1163 Z" stroke="#000000" stroke-width="0.1200" stroke-linecap="round" stroke-linejoin="round" fill="#EFEFEF"/>
        <path d="M 59.5567,5.3588 L 55.1560,5.3588 L 55.1560,10.1004 L 59.5567,10.1004 L 59.5567,5.3588 Z" stroke="#000000" stroke-width="0.1200" stroke-linecap="round" stroke-linejoin="round" fill="#EFEFEF"/>
        <path d="M 65.0259,2.5531 L 60.1753,2.5531 L 60.1753,10.1004 L 65.0259,10.1004 L 65.0259,2.5531 Z" stroke="#000000" stroke-width="0.1200" stroke-linecap="round" stroke-linejoin="round" fill="#EFEFEF"/>
        <path d="M 64.1683,6.2987 L 64.1683,6.2566 L 64.1261,6.1724 L 64.0417,6.1304 L 60.9627,6.1304 L 60.8783,6.1724 L 60.8361,6.2566 L 60.8361,6.3548 L 60.8783,6.4390 L 60.9627,6.4811 L 64.0417,6.4811 L 64.1261,6.4390 L 64.1683,6.3548 L 64.1683,6.3127 L 64.1683,6.2987 Z" stroke="#000000" stroke-width="0.1200" stroke-linecap="round" stroke-linejoin="round" fill="#BFBFBF"/>
        <path d="M 12.1054,1.9780 L 12.1054,1.9359 L 12.0913,1.8938 L 12.0772,1.8658 L 12.0210,1.8096 L 11.9929,1.7956 L 11.9507,1.7816 L 11.8523,1.7816 L 11.8101,1.7956 L 11.7820,1.8096 L 11.7258,1.8658 L 11.7117,1.8938 L 11.6976,1.9359 L 11.6976,4.7836 L 11.7117,4.8257 L 11.7258,4.8538 L 11.7820,4.9099 L 11.8101,4.9239 L 11.8523,4.9380 L 11.9507,4.9380 L 11.9929,4.9239 L 12.0210,4.9099 L 12.0772,4.8538 L 12.0913,4.8257 L 12.1054,4.7836 L 12.1054,4.7416 L 12.1054,1.9780 Z" stroke="#9BCC9B" stroke-width="0.1200" stroke-linecap="round" stroke-linejoin="round" fill="#9BCC9B"/>
        <path d="M 10.9525,1.9780 L 10.9525,1.9359 L 10.9384,1.8938 L 10.9244,1.8658 L 10.8681,1.8096 L 10.8400,1.7956 L 10.7978,1.7816 L 10.6994,1.7816 L 10.6572,1.7956 L 10.6291,1.8096 L 10.5729,1.8658 L 10.5588,1.8938 L 10.5447,1.9359 L 10.5447,4.7836 L 10.5588,4.8257 L 10.5729,4.8538 L 10.6291,4.9099 L 10.6572,4.9239 L 10.6994,4.9380 L 10.7978,4.9380 L 10.8400,4.9239 L 10.8681,4.9099 L 10.9244,4.8538 L 10.9384,4.8257 L 10.9525,4.7836 L 10.9525,4.7416 L 10.9525,1.9780 Z" stroke="#9BCC9B" stroke-width="0.1200" stroke-linecap="round" stroke-linejoin="round" fill="#9BCC9B"/>
        <path d="M 9.8136,1.9780 L 9.8136,1.9359 L 9.7996,1.8938 L 9.7855,1.8658 L 9.7293,1.8096 L 9.7012,1.7956 L 9.6590,1.7816 L 9.5606,1.7816 L 9.5184,1.7956 L 9.4903,1.8096 L 9.4340,1.8658 L 9.4200,1.8938 L 9.4059,1.9359 L 9.4059,4.7836 L 9.4200,4.8257 L 9.4340,4.8538 L 9.4903,4.9099 L 9.5184,4.9239 L 9.5606,4.9380 L 9.6590,4.9380 L 9.7012,4.9239 L 9.7293,4.9099 L 9.7855,4.8538 L 9.7996,4.8257 L 9.8136,4.7836 L 9.8136,4.7416 L 9.8136,1.9780 Z" stroke="#9BCC9B" stroke-width="0.1200" stroke-linecap="round" stroke-linejoin="round" fill="#9BCC9B"/>
        <path d="M 108.2172,2.5531 L 89.7709,2.5531 L 89.7709,10.1004 L 108.2172,10.1004 L 108.2172,2.5531 Z" stroke="#000000" stroke-width="0.1200" stroke-linecap="round" stroke-linejoin="round" fill="#EFEFEF"/>
        <path d="M 107.9641,6.3127 L 107.9641,6.2706 L 107.9219,6.1865 L 107.8376,6.1444 L 90.1505,6.1444 L 90.0662,6.1865 L 90.0240,6.2706 L 90.0240,6.3688 L 90.0662,6.4530 L 90.1505,6.4951 L 107.8376,6.4951 L 107.9219,6.4530 L 107.9641,6.3688 L 107.9641,6.3268 L 107.9641,6.3127 Z" stroke="#000000" stroke-width="0.1200" stroke-linecap="round" stroke-linejoin="round" fill="#BFBFBF"/>
        <path d="M 66.0663,10.1004 L 70.6217,10.1004 L 70.6217,2.5531 L 66.0663,2.5531 L 66.0663,10.1004 Z" stroke="#7F7F7F" stroke-width="0.1200" stroke-linecap="round" stroke-linejoin="round" fill="#BFBFBF"/>
        <path d="M 66.3616,5.4710 L 70.3264,5.4710 L 70.3264,2.7636 L 66.3616,2.7636 L 66.3616,5.4710 Z" stroke="#7F7F7F" stroke-width="0.1200" stroke-linecap="round" stroke-linejoin="round" fill="#7F7F7F"/>
        <path d="M 66.0663,5.6815 L 70.6217,5.6815 L 70.6217,6.9721 L 66.0663,6.9721 L 66.0663,5.6815 Z" stroke="#7F7F7F" stroke-width="0.1200" stroke-linecap="round" stroke-linejoin="round" fill="#7F7F7F"/>
        <path d="M 66.3616,9.9040 L 70.3264,9.9040 L 70.3264,7.1965 L 66.3616,7.1965 L 66.3616,9.9040 Z" stroke="#7F7F7F" stroke-width="0.1200" stroke-linecap="round" stroke-linejoin="round" fill="#7F7F7F"/>
        <path d="M 66.0663,5.8638 L 70.6217,5.8638 L 70.6217,6.8037 L 66.0663,6.8037 L 66.0663,5.8638 Z" stroke="#BFBFBF" stroke-width="0.1200" stroke-linecap="round" stroke-linejoin="round" fill="#BFBFBF"/>
        <path d="M 66.0663,5.6815 L 70.6217,5.6815 L 70.6217,6.9721 L 66.0663,6.9721 L 66.0663,5.6815 Z" stroke="#494949" stroke-width="0.1200" stroke-linecap="round" stroke-linejoin="round" fill="none"/>
        <path d="M 70.1999,5.9901 L 69.8062,6.6634 L 69.4266,5.9901 L 70.1999,5.9901 Z" stroke="#000000" stroke-width="0.1200" stroke-linecap="round" stroke-linejoin="round" fill="#00FF00"/>
        <path d="M 67.2614,6.6634 L 66.8677,5.9901 L 66.4881,6.6634 L 67.2614,6.6634 Z" stroke="#000000" stroke-width="0.1200" stroke-linecap="round" stroke-linejoin="round" fill="#00FF00"/>
        <path d="M 67.5848,5.6815 L 69.1032,5.6815 L 69.1032,5.9199 L 67.5848,5.9199 L 67.5848,5.6815 Z" stroke="#494949" stroke-width="0.1200" stroke-linecap="round" stroke-linejoin="round" fill="#494949"/>
        <path d="M 67.5848,6.7336 L 69.1032,6.7336 L 69.1032,6.9721 L 67.5848,6.9721 L 67.5848,6.7336 Z" stroke="#494949" stroke-width="0.1200" stroke-linecap="round" stroke-linejoin="round" fill="#494949"/>
        <path d="M 72.0839,10.1004 L 76.6392,10.1004 L 76.6392,2.5531 L 72.0839,2.5531 L 72.0839,10.1004 Z" stroke="#7F7F7F" stroke-width="0.1200" stroke-linecap="round" stroke-linejoin="round" fill="#BFBFBF"/>
        <path d="M 72.3791,5.4710 L 76.3439,5.4710 L 76.3439,2.7636 L 72.3791,2.7636 L 72.3791,5.4710 Z" stroke="#7F7F7F" stroke-width="0.1200" stroke-linecap="round" stroke-linejoin="round" fill="#7F7F7F"/>
        <path d="M 72.0839,5.6815 L 76.6392,5.6815 L 76.6392,6.9721 L 72.0839,6.9721 L 72.0839,5.6815 Z" stroke="#7F7F7F" stroke-width="0.1200" stroke-linecap="round" stroke-linejoin="round" fill="#7F7F7F"/>
        <path d="M 72.3791,9.9040 L 76.3439,9.9040 L 76.3439,7.1965 L 72.3791,7.1965 L 72.3791,9.9040 Z" stroke="#7F7F7F" stroke-width="0.1200" stroke-linecap="round" stroke-linejoin="round" fill="#7F7F7F"/>
        <path d="M 72.0839,5.8638 L 76.6392,5.8638 L 76.6392,6.8037 L 72.0839,6.8037 L 72.0839,5.8638 Z" stroke="#BFBFBF" stroke-width="0.1200" stroke-linecap="round" stroke-linejoin="round" fill="#BFBFBF"/>
        <path d="M 72.0839,5.6815 L 76.6392,5.6815 L 76.6392,6.9721 L 72.0839,6.9721 L 72.0839,5.6815 Z" stroke="#494949" stroke-width="0.1200" stroke-linecap="round" stroke-linejoin="round" fill="none"/>
        <path d="M 76.2174,5.9901 L 75.8237,6.6634 L 75.4441,5.9901 L 76.2174,5.9901 Z" stroke="#000000" stroke-width="0.1200" stroke-linecap="round" stroke-linejoin="round" fill="#00FF00"/>
        <path d="M 73.2789,6.6634 L 72.8853,5.9901 L 72.5057,6.6634 L 73.2789,6.6634 Z" stroke="#000000" stroke-width="0.1200" stroke-linecap="round" stroke-linejoin="round" fill="#00FF00"/>
        <path d="M 73.6023,5.6815 L 75.1207,5.6815 L 75.1207,5.9199 L 73.6023,5.9199 L 73.6023,5.6815 Z" stroke="#494949" stroke-width="0.1200" stroke-linecap="round" stroke-linejoin="round" fill="#494949"/>
        <path d="M 73.6023,6.7336 L 75.1207,6.7336 L 75.1207,6.9721 L 73.6023,6.9721 L 73.6023,6.7336 Z" stroke="#494949" stroke-width="0.1200" stroke-linecap="round" stroke-linejoin="round" fill="#494949"/>
        <path d="M 78.1014,10.1004 L 82.6567,10.1004 L 82.6567,2.5531 L 78.1014,2.5531 L 78.1014,10.1004 Z" stroke="#7F7F7F" stroke-width="0.1200" stroke-linecap="round" stroke-linejoin="round" fill="#BFBFBF"/>
        <path d="M 78.3966,5.4710 L 82.3615,5.4710 L 82.3615,2.7636 L 78.3966,2.7636 L 78.3966,5.4710 Z" stroke="#7F7F7F" stroke-width="0.1200" stroke-linecap="round" stroke-linejoin="round" fill="#7F7F7F"/>
        <path d="M 78.1014,5.6815 L 82.6567,5.6815 L 82.6567,6.9721 L 78.1014,6.9721 L 78.1014,5.6815 Z" stroke="#7F7F7F" stroke-width="0.1200" stroke-linecap="round" stroke-linejoin="round" fill="#7F7F7F"/>
        <path d="M 78.3966,9.9040 L 82.3615,9.9040 L 82.3615,7.1965 L 78.3966,7.1965 L 78.3966,9.9040 Z" stroke="#7F7F7F" stroke-width="0.1200" stroke-linecap="round" stroke-linejoin="round" fill="#7F7F7F"/>
        <path d="M 78.1014,5.8638 L 82.6567,5.8638 L 82.6567,6.8037 L 78.1014,6.8037 L 78.1014,5.8638 Z" stroke="#BFBFBF" stroke-width="0.1200" stroke-linecap="round" stroke-linejoin="round" fill="#BFBFBF"/>
        <path d="M 78.1014,5.6815 L 82.6567,5.6815 L 82.6567,6.9721 L 78.1014,6.9721 L 78.1014,5.6815 Z" stroke="#494949" stroke-width="0.1200" stroke-linecap="round" stroke-linejoin="round" fill="none"/>
        <path d="M 82.2349,5.9901 L 81.8413,6.6634 L 81.4617,5.9901 L 82.2349,5.9901 Z" stroke="#000000" stroke-width="0.1200" stroke-linecap="round" stroke-linejoin="round" fill="#00FF00"/>
        <path d="M 79.2965,6.6634 L 78.9028,5.9901 L 78.5232,6.6634 L 79.2965,6.6634 Z" stroke="#000000" stroke-width="0.1200" stroke-linecap="round" stroke-linejoin="round" fill="#00FF00"/>
        <path d="M 79.6198,5.6815 L 81.1383,5.6815 L 81.1383,5.9199 L 79.6198,5.9199 L 79.6198,5.6815 Z" stroke="#494949" stroke-width="0.1200" stroke-linecap="round" stroke-linejoin="round" fill="#494949"/>
        <path d="M 79.6198,6.7336 L 81.1383,6.7336 L 81.1383,6.9721 L 79.6198,6.9721 L 79.6198,6.7336 Z" stroke="#494949" stroke-width="0.1200" stroke-linecap="round" stroke-linejoin="round" fill="#494949"/>
        <path d="M 84.1189,10.1004 L 88.6743,10.1004 L 88.6743,2.5531 L 84.1189,2.5531 L 84.1189,10.1004 Z" stroke="#7F7F7F" stroke-width="0.1200" stroke-linecap="round" stroke-linejoin="round" fill="#BFBFBF"/>
        <path d="M 84.4142,5.4710 L 88.3790,5.4710 L 88.3790,2.7636 L 84.4142,2.7636 L 84.4142,5.4710 Z" stroke="#7F7F7F" stroke-width="0.1200" stroke-linecap="round" stroke-linejoin="round" fill="#7F7F7F"/>
        <path d="M 84.1189,5.6815 L 88.6743,5.6815 L 88.6743,6.9721 L 84.1189,6.9721 L 84.1189,5.6815 Z" stroke="#7F7F7F" stroke-width="0.1200" stroke-linecap="round" stroke-linejoin="round" fill="#7F7F7F"/>
        <path d="M 84.4142,9.9040 L 88.3790,9.9040 L 88.3790,7.1965 L 84.4142,7.1965 L 84.4142,9.9040 Z" stroke="#7F7F7F" stroke-width="0.1200" stroke-linecap="round" stroke-linejoin="round" fill="#7F7F7F"/>
        <path d="M 84.1189,5.8638 L 88.6743,5.8638 L 88.6743,6.8037 L 84.1189,6.8037 L 84.1189,5.8638 Z" stroke="#BFBFBF" stroke-width="0.1200" stroke-linecap="round" stroke-linejoin="round" fill="#BFBFBF"/>
        <path d="M 84.1189,5.6815 L 88.6743,5.6815 L 88.6743,6.9721 L 84.1189,6.9721 L 84.1189,5.6815 Z" stroke="#494949" stroke-width="0.1200" stroke-linecap="round" stroke-linejoin="round" fill="none"/>
        <path d="M 88.2525,5.9901 L 87.8588,6.6634 L 87.4792,5.9901 L 88.2525,5.9901 Z" stroke="#000000" stroke-width="0.1200" stroke-linecap="round" stroke-linejoin="round" fill="#00FF00"/>
        <path d="M 85.3140,6.6634 L 84.9203,5.9901 L 84.5407,6.6634 L 85.3140,6.6634 Z" stroke="#000000" stroke-width="0.1200" stroke-linecap="round" stroke-linejoin="round" fill="#00FF00"/>
        <path d="M 85.6374,5.6815 L 87.1558,5.6815 L 87.1558,5.9199 L 85.6374,5.9199 L 85.6374,5.6815 Z" stroke="#494949" stroke-width="0.1200" stroke-linecap="round" stroke-linejoin="round" fill="#494949"/>
        <path d="M 85.6374,6.7336 L 87.1558,6.7336 L 87.1558,6.9721 L 85.6374,6.9721 L 85.6374,6.7336 Z" stroke="#494949" stroke-width="0.1200" stroke-linecap="round" stroke-linejoin="round" fill="#494949"/>
        <path d="M 13.1293,3.0737 L 13.1100,3.0737 L 13.1003,3.0642 L 13.0906,3.0642 L 13.0616,3.0356 L 13.0616,3.0261 L 13.0519,3.0166 L 13.0519,1.9127 L 13.0616,1.9032 L 13.0616,1.8937 L 13.0713,1.8842 L 13.0810,1.8842 L 13.0810,1.8747 L 13.0906,1.8652 L 13.1003,1.8652 L 13.1100,1.8556 L 14.4258,1.8556 L 14.4355,1.8652 L 14.4452,1.8652 L 14.4742,1.8937 L 14.4742,1.9032 L 14.4839,1.9127 L 14.4839,2.1316 L 14.4742,2.1316 L 14.4742,2.1221 L 14.4645,2.1221 L 14.4645,2.1126 L 14.4549,2.1126 L 14.4549,2.1031 L 14.4355,2.1031 L 14.4355,2.0936 L 13.3712,2.0936 L 13.3712,2.1031 L 13.3519,2.1031 L 13.3519,2.1126 L 13.3422,2.1126 L 13.3422,2.1316 L 13.3325,2.1316 L 13.3325,3.0356 L 13.3422,3.0356 L 13.3422,3.0547 L 13.3519,3.0547 L 13.3519,3.0642 L 13.3615,3.0642 L 13.3615,3.0737 L 13.1390,3.0737 L 13.1293,3.0737 Z" stroke="#000000" stroke-width="0.1200" stroke-linecap="round" stroke-linejoin="round" fill="#000000"/>
        <path d="M 14.3871,2.3695 L 13.4293,2.3695 L 13.4293,2.3600 L 13.4099,2.3600 L 13.4099,2.3505 L 13.4002,2.3505 L 13.4002,2.3315 L 13.3906,2.3315 L 13.3906,2.5694 L 13.4002,2.5694 L 13.4002,2.5884 L 13.4099,2.5884 L 13.4099,2.5979 L 13.4293,2.5979 L 13.4293,2.6074 L 14.4065,2.6074 L 14.4258,2.5884 L 14.4355,2.5884 L 14.4549,2.5694 L 14.4549,2.5598 L 14.4645,2.5503 L 14.4645,2.5408 L 14.4742,2.5313 L 14.4742,2.5123 L 14.4839,2.5027 L 14.4839,2.4742 L 14.4742,2.4647 L 14.4742,2.4361 L 14.4549,2.4171 L 14.4549,2.4076 L 14.4452,2.3981 L 14.4355,2.3981 L 14.4355,2.3886 L 14.4258,2.3886 L 14.4162,2.3790 L 14.4065,2.3790 L 14.3968,2.3695 L 14.3871,2.3695 Z" stroke="#000000" stroke-width="0.1200" stroke-linecap="round" stroke-linejoin="round" fill="#000000"/>
        <path d="M 16.6221,2.6074 L 16.6028,2.6074 L 16.6028,2.5979 L 16.5834,2.5979 L 16.5834,2.5884 L 16.5737,2.5884 L 16.5737,2.5694 L 16.5641,2.5694 L 16.5641,2.3315 L 16.5737,2.3315 L 16.5737,2.3505 L 16.5834,2.3505 L 16.5834,2.3600 L 16.6028,2.3600 L 16.6028,2.3695 L 17.3768,2.3695 L 17.3768,2.0936 L 16.5447,2.0936 L 16.5447,2.1031 L 16.5254,2.1031 L 16.5254,2.1126 L 16.5157,2.1126 L 16.5157,2.1316 L 16.5060,2.1316 L 16.5060,3.0356 L 16.5157,3.0356 L 16.5157,3.0547 L 16.5254,3.0547 L 16.5254,3.0642 L 16.5350,3.0642 L 16.5350,3.0737 L 16.2835,3.0737 L 16.2738,3.0642 L 16.2641,3.0642 L 16.2351,3.0356 L 16.2351,3.0261 L 16.2254,3.0166 L 16.2254,1.9127 L 16.2351,1.9032 L 16.2351,1.8937 L 16.2448,1.8842 L 16.2545,1.8842 L 16.2545,1.8747 L 16.2641,1.8652 L 16.2738,1.8652 L 16.2835,1.8556 L 17.5993,1.8556 L 17.6090,1.8652 L 17.6187,1.8652 L 17.6477,1.8937 L 17.6477,1.9032 L 17.6574,1.9127 L 17.6574,2.5123 L 17.6477,2.5218 L 17.6477,2.5408 L 17.6380,2.5408 L 17.6380,2.5503 L 17.6283,2.5598 L 17.6283,2.5694 L 17.6187,2.5694 L 17.6187,2.5789 L 17.6090,2.5789 L 17.6090,2.5884 L 17.5993,2.5884 L 17.5993,2.5979 L 17.5896,2.5979 L 17.5800,2.6074 L 17.5896,2.6169 L 17.5993,2.6169 L 17.5993,2.6265 L 17.6090,2.6265 L 17.6090,2.6360 L 17.6187,2.6360 L 17.6187,2.6455 L 17.6283,2.6455 L 17.6283,2.6550 L 17.6380,2.6645 L 17.6380,2.6740 L 17.6477,2.6740 L 17.6477,2.6931 L 17.6574,2.7026 L 17.6574,3.0356 L 17.6670,3.0356 L 17.6670,3.0547 L 17.6767,3.0547 L 17.6767,3.0642 L 17.6864,3.0642 L 17.6864,3.0737 L 17.4348,3.0737 L 17.4252,3.0642 L 17.4155,3.0642 L 17.3865,3.0356 L 17.3865,3.0261 L 17.3768,3.0166 L 17.3768,2.6074 L 16.6318,2.6074 L 16.6221,2.6074 Z" stroke="#000000" stroke-width="0.1200" stroke-linecap="round" stroke-linejoin="round" fill="#000000"/>
        <path d="M 18.1605,2.0936 L 17.8702,2.0936 L 17.8605,2.0840 L 17.8509,2.0840 L 17.8218,2.0555 L 17.8218,2.0460 L 17.8122,2.0365 L 17.8122,1.9127 L 17.8218,1.9032 L 17.8218,1.8937 L 17.8315,1.8842 L 17.8412,1.8842 L 17.8412,1.8747 L 17.8509,1.8652 L 17.8605,1.8652 L 17.8702,1.8556 L 19.1861,1.8556 L 19.1957,1.8652 L 19.2054,1.8652 L 19.2344,1.8937 L 19.2344,1.9032 L 19.2441,1.9127 L 19.2441,2.1316 L 19.2344,2.1316 L 19.2344,2.1221 L 19.2248,2.1221 L 19.2248,2.1126 L 19.2151,2.1126 L 19.2151,2.1031 L 19.1957,2.1031 L 19.1957,2.0936 L 18.4798,2.0936 L 18.4798,2.1031 L 18.4604,2.1031 L 18.4604,2.1126 L 18.4507,2.1126 L 18.4507,2.1316 L 18.4411,2.1316 L 18.4411,3.0356 L 18.4507,3.0356 L 18.4507,3.0547 L 18.4604,3.0547 L 18.4604,3.0642 L 18.4701,3.0642 L 18.4701,3.0737 L 18.2185,3.0737 L 18.2089,3.0642 L 18.1992,3.0642 L 18.1702,3.0356 L 18.1702,3.0261 L 18.1605,3.0166 L 18.1605,2.1221 L 18.1605,2.0936 Z" stroke="#000000" stroke-width="0.1200" stroke-linecap="round" stroke-linejoin="round" fill="#000000"/>
        <path d="M 19.6795,3.0071 L 19.6795,3.0356 L 19.6892,3.0356 L 19.6892,3.0547 L 19.6989,3.0547 L 19.6989,3.0642 L 19.7085,3.0642 L 19.7085,3.0737 L 19.4570,3.0737 L 19.4473,3.0642 L 19.4376,3.0642 L 19.4086,3.0356 L 19.4086,3.0261 L 19.3989,3.0166 L 19.3989,1.8937 L 19.3892,1.8937 L 19.3892,1.8747 L 19.3796,1.8747 L 19.3796,1.8652 L 19.3699,1.8652 L 19.3699,1.8556 L 19.6214,1.8556 L 19.6311,1.8652 L 19.6408,1.8652 L 19.6698,1.8937 L 19.6698,1.9032 L 19.6795,1.9127 L 19.6795,2.9976 L 19.6795,3.0071 Z" stroke="#000000" stroke-width="0.1200" stroke-linecap="round" stroke-linejoin="round" fill="#000000"/>
        <path d="M 21.0534,2.0936 L 20.2213,2.0936 L 20.2213,2.1031 L 20.2020,2.1031 L 20.2020,2.1126 L 20.1923,2.1126 L 20.1923,2.1316 L 20.1826,2.1316 L 20.1826,3.0356 L 20.1923,3.0356 L 20.1923,3.0547 L 20.2020,3.0547 L 20.2020,3.0642 L 20.2116,3.0642 L 20.2116,3.0737 L 19.9601,3.0737 L 19.9504,3.0642 L 19.9407,3.0642 L 19.9117,3.0356 L 19.9117,3.0261 L 19.9020,3.0166 L 19.9020,1.9127 L 19.9117,1.9032 L 19.9117,1.8937 L 19.9214,1.8842 L 19.9311,1.8842 L 19.9311,1.8747 L 19.9407,1.8652 L 19.9504,1.8652 L 19.9601,1.8556 L 21.2759,1.8556 L 21.2856,1.8652 L 21.2953,1.8652 L 21.3243,1.8937 L 21.3243,1.9032 L 21.3340,1.9127 L 21.3340,3.0356 L 21.3436,3.0356 L 21.3436,3.0547 L 21.3533,3.0547 L 21.3533,3.0642 L 21.3630,3.0642 L 21.3630,3.0737 L 21.1114,3.0737 L 21.1018,3.0642 L 21.0921,3.0642 L 21.0631,3.0356 L 21.0631,3.0261 L 21.0534,3.0166 L 21.0534,2.1221 L 21.0534,2.0936 Z" stroke="#000000" stroke-width="0.1200" stroke-linecap="round" stroke-linejoin="round" fill="#000000"/>
        <path d="M 22.7562,2.3695 L 21.8661,2.3695 L 21.8564,2.3600 L 21.8468,2.3600 L 21.8468,2.3505 L 21.8371,2.3505 L 21.8371,2.3315 L 21.8274,2.3315 L 21.8274,2.5694 L 21.8371,2.5694 L 21.8371,2.5884 L 21.8468,2.5884 L 21.8468,2.5979 L 21.8564,2.5979 L 21.8661,2.6074 L 22.7659,2.6074 L 22.7853,2.5884 L 22.7949,2.5884 L 22.8143,2.5694 L 22.8143,2.5598 L 22.8240,2.5503 L 22.8240,2.5408 L 22.8336,2.5313 L 22.8336,2.5123 L 22.8433,2.5027 L 22.8433,2.4647 L 22.8336,2.4552 L 22.8336,2.4266 L 22.8240,2.4266 L 22.8240,2.4171 L 22.7949,2.3886 L 22.7853,2.3886 L 22.7853,2.3790 L 22.7756,2.3790 L 22.7659,2.3695 L 22.7562,2.3695 Z" stroke="#000000" stroke-width="0.1200" stroke-linecap="round" stroke-linejoin="round" fill="#000000"/>
        <path d="M 23.4238,2.0936 L 23.1336,2.0936 L 23.1239,2.0840 L 23.1142,2.0840 L 23.0852,2.0555 L 23.0852,2.0460 L 23.0755,2.0365 L 23.0755,1.9127 L 23.0852,1.9032 L 23.0852,1.8937 L 23.0949,1.8842 L 23.1045,1.8842 L 23.1045,1.8747 L 23.1142,1.8652 L 23.1239,1.8652 L 23.1336,1.8556 L 24.4494,1.8556 L 24.4591,1.8652 L 24.4688,1.8652 L 24.4978,1.8937 L 24.4978,1.9032 L 24.5075,1.9127 L 24.5075,2.1316 L 24.4978,2.1316 L 24.4978,2.1221 L 24.4881,2.1221 L 24.4881,2.1126 L 24.4784,2.1126 L 24.4784,2.1031 L 24.4591,2.1031 L 24.4591,2.0936 L 23.7431,2.0936 L 23.7431,2.1031 L 23.7238,2.1031 L 23.7238,2.1126 L 23.7141,2.1126 L 23.7141,2.1316 L 23.7044,2.1316 L 23.7044,3.0356 L 23.7141,3.0356 L 23.7141,3.0547 L 23.7238,3.0547 L 23.7238,3.0642 L 23.7334,3.0642 L 23.7334,3.0737 L 23.4819,3.0737 L 23.4722,3.0642 L 23.4625,3.0642 L 23.4335,3.0356 L 23.4335,3.0261 L 23.4238,3.0166 L 23.4238,2.1221 L 23.4238,2.0936 Z" stroke="#000000" stroke-width="0.1200" stroke-linecap="round" stroke-linejoin="round" fill="#000000"/>
        <path d="M 22.8530,2.8358 L 22.8723,2.8358 L 22.8723,2.8263 L 22.8917,2.8263 L 22.8917,2.8168 L 22.9014,2.8168 L 22.9014,2.8073 L 22.9110,2.8073 L 22.9110,2.7977 L 22.9207,2.7977 L 22.9207,3.0166 L 22.9110,3.0261 L 22.9110,3.0356 L 22.9014,3.0452 L 22.9014,3.0547 L 22.8917,3.0547 L 22.8820,3.0642 L 22.8723,3.0642 L 22.8627,3.0737 L 21.5468,3.0737 L 21.5372,3.0642 L 21.5275,3.0642 L 21.4985,3.0356 L 21.4985,3.0261 L 21.4888,3.0166 L 21.4888,1.9127 L 21.4985,1.9032 L 21.4985,1.8937 L 21.5081,1.8842 L 21.5178,1.8842 L 21.5178,1.8747 L 21.5275,1.8652 L 21.5372,1.8652 L 21.5468,1.8556 L 22.8627,1.8556 L 22.8723,1.8652 L 22.8820,1.8652 L 22.9110,1.8937 L 22.9110,1.9032 L 22.9207,1.9127 L 22.9207,2.1316 L 22.9110,2.1316 L 22.9110,2.1221 L 22.9014,2.1221 L 22.9014,2.1126 L 22.8917,2.1126 L 22.8917,2.1031 L 22.8723,2.1031 L 22.8723,2.0936 L 21.8081,2.0936 L 21.8081,2.1031 L 21.7887,2.1031 L 21.7887,2.1126 L 21.7790,2.1126 L 21.7790,2.1316 L 21.7694,2.1316 L 21.7694,2.8358 L 22.8433,2.8358 L 22.8530,2.8358 Z" stroke="#000000" stroke-width="0.1200" stroke-linecap="round" stroke-linejoin="round" fill="#000000"/>
        <path d="M 15.1224,2.7216 L 15.1224,3.0737 L 15.5869,3.0737 L 15.5869,2.7216 L 15.1224,2.7216 Z" stroke="#ED3440" stroke-width="0.1200" stroke-linecap="round" stroke-linejoin="round" fill="#ED3440"/>
        <path d="M 14.6387,2.2934 L 15.0354,2.2934 L 15.0354,2.6360 L 14.6387,2.6360 L 14.6387,2.2934 Z" stroke="#ED3440" stroke-width="0.1200" stroke-linecap="round" stroke-linejoin="round" fill="#ED3440"/>
        <path d="M 15.6739,2.7216 L 15.6739,3.0737 L 15.8191,3.0737 L 15.8287,3.0642 L 15.8674,3.0642 L 15.8771,3.0547 L 15.8965,3.0547 L 15.9158,3.0452 L 15.9255,3.0356 L 15.9448,3.0261 L 15.9642,3.0071 L 15.9835,2.9976 L 15.9932,2.9881 L 16.0029,2.9690 L 16.0126,2.9595 L 16.0513,2.8834 L 16.0513,2.8644 L 16.0609,2.8358 L 16.0609,2.8073 L 16.0706,2.7787 L 16.0706,2.7216 L 15.6836,2.7216 L 15.6739,2.7216 Z" stroke="#ED3440" stroke-width="0.1200" stroke-linecap="round" stroke-linejoin="round" fill="#ED3440"/>
        <path d="M 15.6739,2.2934 L 16.0706,2.2934 L 16.0706,2.6360 L 15.6739,2.6360 L 15.6739,2.2934 Z" stroke="#ED3440" stroke-width="0.1200" stroke-linecap="round" stroke-linejoin="round" fill="#ED3440"/>
        <path d="M 15.0354,2.7216 L 15.0354,3.0737 L 14.8902,3.0737 L 14.8806,3.0642 L 14.8419,3.0642 L 14.8322,3.0547 L 14.8128,3.0547 L 14.7935,3.0452 L 14.7838,3.0356 L 14.7645,3.0261 L 14.7451,3.0071 L 14.7258,2.9976 L 14.7161,2.9881 L 14.7064,2.9690 L 14.6967,2.9595 L 14.6580,2.8834 L 14.6580,2.8644 L 14.6484,2.8358 L 14.6484,2.8073 L 14.6387,2.7787 L 14.6387,2.7216 L 15.0257,2.7216 L 15.0354,2.7216 Z" stroke="#ED3440" stroke-width="0.1200" stroke-linecap="round" stroke-linejoin="round" fill="#ED3440"/>
        <path d="M 15.1224,1.8556 L 15.1224,2.2077 L 15.5869,2.2077 L 15.5869,1.8556 L 15.1224,1.8556 Z" stroke="#ED3440" stroke-width="0.1200" stroke-linecap="round" stroke-linejoin="round" fill="#ED3440"/>
        <path d="M 15.6739,2.2077 L 15.6739,1.8556 L 15.8191,1.8556 L 15.8287,1.8652 L 15.8674,1.8652 L 15.8771,1.8747 L 15.8965,1.8747 L 15.9158,1.8842 L 15.9255,1.8937 L 15.9448,1.9032 L 15.9642,1.9223 L 15.9835,1.9318 L 15.9932,1.9413 L 16.0029,1.9603 L 16.0126,1.9698 L 16.0513,2.0460 L 16.0513,2.0650 L 16.0609,2.0936 L 16.0609,2.1221 L 16.0706,2.1506 L 16.0706,2.2077 L 15.6836,2.2077 L 15.6739,2.2077 Z" stroke="#ED3440" stroke-width="0.1200" stroke-linecap="round" stroke-linejoin="round" fill="#ED3440"/>
        <path d="M 15.0354,2.2077 L 15.0354,1.8556 L 14.8902,1.8556 L 14.8806,1.8652 L 14.8419,1.8652 L 14.8322,1.8747 L 14.8128,1.8747 L 14.7935,1.8842 L 14.7838,1.8937 L 14.7645,1.9032 L 14.7451,1.9223 L 14.7258,1.9318 L 14.7161,1.9413 L 14.7064,1.9603 L 14.6967,1.9698 L 14.6580,2.0460 L 14.6580,2.0650 L 14.6484,2.0936 L 14.6484,2.1221 L 14.6387,2.1506 L 14.6387,2.2077 L 15.0257,2.2077 L 15.0354,2.2077 Z" stroke="#ED3440" stroke-width="0.1200" stroke-linecap="round" stroke-linejoin="round" fill="#ED3440"/>
        <text font-family="Arial" fill="#C0C0C0" style="white-space:pre;" font-weight="400" text-anchor="start" x="15.9061" y="2.9330" font-size="0.2032"><![CDATA[FortiGate 500D]]></text>
        <text font-family="Symbol" fill="#000000" style="white-space:pre;" text-anchor="start" x="24.1918" y="3.1838" font-size="0.5509"><![CDATA[]]></text>
        <ellipse cx="36.4681" cy="9.0740" rx="0.2987" ry="0.2988" fill="#000000" stroke="#000000" stroke-width="0.1200" stroke-linecap="round" stroke-linejoin="round"/>
        <ellipse cx="36.4681" cy="9.0740" rx="0.2987" ry="0.2988" fill="none" stroke="#000000" stroke-width="0.1200" stroke-linecap="round" stroke-linejoin="round"/>
        <ellipse cx="36.4725" cy="9.0785" rx="0.2586" ry="0.2586" fill="#333333" stroke="#000000" stroke-width="0.1200" stroke-linecap="round" stroke-linejoin="round"/>
        <ellipse cx="36.4725" cy="9.0785" rx="0.2586" ry="0.2586" fill="none" stroke="#000000" stroke-width="0.1200" stroke-linecap="round" stroke-linejoin="round"/>
        <path d="M 38.7294,4.8881 L 38.1402,4.8881 L 38.1402,5.4770 L 38.7294,5.4770 L 38.7294,4.8881 Z" stroke="#000000" stroke-width="0.1200" stroke-linecap="round" stroke-linejoin="round" fill="#00FF00"/>
        <path d="M 38.7294,6.3456 L 38.1402,6.3456 L 38.1402,6.9346 L 38.7294,6.9346 L 38.7294,6.3456 Z" stroke="#000000" stroke-width="0.1200" stroke-linecap="round" stroke-linejoin="round" fill="#00FF00"/>
        <path d="M 38.7294,7.8180 L 38.1402,7.8180 L 38.1402,8.4069 L 38.7294,8.4069 L 38.7294,7.8180 Z" stroke="#000000" stroke-width="0.1200" stroke-linecap="round" stroke-linejoin="round" fill="#00FF00"/>
        <path d="M 38.7294,9.2755 L 38.1402,9.2755 L 38.1402,9.8645 L 38.7294,9.8645 L 38.7294,9.2755 Z" stroke="#000000" stroke-width="0.1200" stroke-linecap="round" stroke-linejoin="round" fill="#00FF00"/>
        <text font-family="Arial" fill="#000000" style="white-space:pre;" font-weight="400" text-anchor="start" x="49.3656" y="11.1145" font-size="0.1620"><![CDATA[STATUS]]></text>
        <text font-family="Arial" fill="#000000" style="white-space:pre;" font-weight="400" text-anchor="start" x="49.3656" y="11.4973" font-size="0.1620"><![CDATA[ALARM]]></text>
        <text font-family="Arial" fill="#000000" style="white-space:pre;" font-weight="400" text-anchor="start" x="49.3656" y="11.8801" font-size="0.1620"><![CDATA[HA]]></text>
        <text font-family="Arial" fill="#000000" style="white-space:pre;" font-weight="400" text-anchor="start" x="49.3656" y="12.2629" font-size="0.1620"><![CDATA[POWER]]></text>
        <text font-family="Arial" fill="#000000" style="white-space:pre;" font-weight="400" text-anchor="start" x="52.4004" y="11.1145" font-size="0.1620"><![CDATA[CONSOLE]]></text>
        <text font-family="Arial" fill="#000000" style="white-space:pre;" font-weight="400" text-anchor="start" x="51.2218" y="11.9243" font-size="0.1620"><![CDATA[USB MGMT]]></text>
        <path d="M 53.5907,10.8299 L 53.5907,10.7826 L 53.5719,10.6881 L 53.5530,10.6408 L 53.5342,10.6029 L 53.4495,10.4894 L 53.3366,10.4043 L 53.2989,10.3854 L 53.2519,10.3665 L 53.1577,10.3476 L 51.6236,10.3476 L 51.5295,10.3665 L 51.4824,10.3854 L 51.4448,10.4043 L 51.3319,10.4894 L 51.2471,10.6029 L 51.2283,10.6408 L 51.2095,10.6881 L 51.1907,10.7826 L 51.1907,10.9624 L 51.2095,11.0569 L 51.2283,11.1042 L 51.2471,11.1421 L 51.3319,11.2556 L 51.4448,11.3407 L 51.4824,11.3596 L 51.5295,11.3785 L 51.6236,11.3974 L 53.1577,11.3974 L 53.2519,11.3785 L 53.2989,11.3596 L 53.3366,11.3407 L 53.4495,11.2556 L 53.5342,11.1421 L 53.5530,11.1042 L 53.5719,11.0569 L 53.5907,10.9624 L 53.5907,10.9151 L 53.5907,10.8299 Z" stroke="#000000" stroke-width="0.1200" stroke-linecap="round" stroke-linejoin="round" fill="#7F7F7F"/>
        <ellipse cx="52.3233" cy="10.7971" rx="0.3984" ry="0.3981" fill="#FFFFFF" stroke="#000000" stroke-width="0.1200" stroke-linecap="round" stroke-linejoin="round"/>
        <ellipse cx="52.3233" cy="10.7971" rx="0.3984" ry="0.3981" fill="none" stroke="#0A0A0A" stroke-width="0.1200" stroke-linecap="round" stroke-linejoin="round"/>
        <path d="M 58.5413,10.8299 L 58.5413,10.7826 L 58.5225,10.6881 L 58.5036,10.6408 L 58.4848,10.6029 L 58.4001,10.4894 L 58.2872,10.4043 L 58.2495,10.3854 L 58.2025,10.3665 L 58.1083,10.3476 L 56.5742,10.3476 L 56.4801,10.3665 L 56.4330,10.3854 L 56.3954,10.4043 L 56.2824,10.4894 L 56.1977,10.6029 L 56.1789,10.6408 L 56.1601,10.6881 L 56.1413,10.7826 L 56.1413,10.9624 L 56.1601,11.0569 L 56.1789,11.1042 L 56.1977,11.1421 L 56.2824,11.2556 L 56.3954,11.3407 L 56.4330,11.3596 L 56.4801,11.3785 L 56.5742,11.3974 L 58.1083,11.3974 L 58.2025,11.3785 L 58.2495,11.3596 L 58.2872,11.3407 L 58.4001,11.2556 L 58.4848,11.1421 L 58.5036,11.1042 L 58.5225,11.0569 L 58.5413,10.9624 L 58.5413,10.9151 L 58.5413,10.8299 Z" stroke="#000000" stroke-width="0.1200" stroke-linecap="round" stroke-linejoin="round" fill="#7F7F7F"/>
        <ellipse cx="57.2640" cy="10.7971" rx="0.3984" ry="0.3981" fill="#FFFFFF" stroke="#000000" stroke-width="0.1200" stroke-linecap="round" stroke-linejoin="round"/>
        <ellipse cx="57.2640" cy="10.7971" rx="0.3984" ry="0.3981" fill="none" stroke="#0A0A0A" stroke-width="0.1200" stroke-linecap="round" stroke-linejoin="round"/>
        <text font-family="Arial" fill="#000000" style="white-space:pre;" font-weight="400" text-anchor="start" x="73.9189" y="12.2130" font-size="0.1753"><![CDATA[USB]]></text>
        <text font-family="Arial" fill="#000000" style="white-space:pre;" font-weight="400" text-anchor="start" x="75.2736" y="11.4486" font-size="0.1753"><![CDATA[MGMT 1]]></text>
        <text font-family="Arial" fill="#000000" style="white-space:pre;" font-weight="400" text-anchor="start" x="75.2736" y="13.9966" font-size="0.1753"><![CDATA[MGMT 2]]></text>
        <text font-family="Arial" fill="#000000" style="white-space:pre;" font-weight="400" text-anchor="start" x="83.9277" y="11.4486" font-size="0.1753"><![CDATA[9]]></text>
        <text font-family="Arial" fill="#000000" style="white-space:pre;" font-weight="400" text-anchor="start" x="85.1709" y="11.4486" font-size="0.1753"><![CDATA[11]]></text>
        <text font-family="Arial" fill="#000000" style="white-space:pre;" font-weight="400" text-anchor="start" x="86.4459" y="11.4486" font-size="0.1753"><![CDATA[13]]></text>
        <text font-family="Arial" fill="#000000" style="white-space:pre;" font-weight="400" text-anchor="start" x="87.7368" y="11.4486" font-size="0.1753"><![CDATA[15]]></text>
        <text font-family="Arial" fill="#000000" style="white-space:pre;" font-weight="400" text-anchor="start" x="77.1383" y="11.4645" font-size="0.1753"><![CDATA[1]]></text>
        <text font-family="Arial" fill="#000000" style="white-space:pre;" font-weight="400" text-anchor="start" x="78.8595" y="11.4645" font-size="0.1753"><![CDATA[3]]></text>
        <text font-family="Arial" fill="#000000" style="white-space:pre;" font-weight="400" text-anchor="start" x="80.5649" y="11.4645" font-size="0.1753"><![CDATA[5]]></text>
        <text font-family="Arial" fill="#000000" style="white-space:pre;" font-weight="400" text-anchor="start" x="82.2861" y="11.4645" font-size="0.1753"><![CDATA[7]]></text>
        <text font-family="Arial" fill="#000000" style="white-space:pre;" font-weight="400" text-anchor="start" x="77.1383" y="13.9966" font-size="0.1753"><![CDATA[2]]></text>
        <text font-family="Arial" fill="#000000" style="white-space:pre;" font-weight="400" text-anchor="start" x="78.8595" y="13.9966" font-size="0.1753"><![CDATA[4]]></text>
        <text font-family="Arial" fill="#000000" style="white-space:pre;" font-weight="400" text-anchor="start" x="80.5649" y="13.9966" font-size="0.1753"><![CDATA[6]]></text>
        <text font-family="Arial" fill="#000000" style="white-space:pre;" font-weight="400" text-anchor="start" x="82.2861" y="13.9966" font-size="0.1753"><![CDATA[8]]></text>
        <text font-family="Arial" fill="#000000" style="white-space:pre;" font-weight="400" text-anchor="start" x="83.8799" y="13.9966" font-size="0.1753"><![CDATA[10]]></text>
        <text font-family="Arial" fill="#000000" style="white-space:pre;" font-weight="400" text-anchor="start" x="85.1709" y="13.9966" font-size="0.1753"><![CDATA[12]]></text>
        <text font-family="Arial" fill="#000000" style="white-space:pre;" font-weight="400" text-anchor="start" x="86.4459" y="13.9966" font-size="0.1753"><![CDATA[14]]></text>
        <text font-family="Arial" fill="#000000" style="white-space:pre;" font-weight="400" text-anchor="start" x="87.7368" y="13.9966" font-size="0.1753"><![CDATA[16]]></text>
        <path d="M 47.0731,9.2738 L 47.0731,9.2268 L 47.0883,9.2268 L 47.0883,9.1955 L 47.1036,9.1798 L 47.1036,9.1641 L 47.1189,9.1641 L 47.1189,9.1485 L 47.1341,9.1485 L 47.1341,9.1328 L 47.1494,9.1328 L 47.1646,9.1172 L 47.1799,9.1172 L 47.1951,9.1015 L 48.7205,9.1015 L 48.7358,9.1172 L 48.7510,9.1172 L 48.7663,9.1328 L 48.7815,9.1328 L 48.7815,9.1485 L 48.7968,9.1485 L 48.7968,9.1641 L 48.8120,9.1641 L 48.8120,9.1798 L 48.8273,9.1955 L 48.8273,9.2268 L 48.8425,9.2268 L 48.8425,9.5558 L 48.7205,9.6811 L 48.7205,9.9317 L 48.7052,9.9474 L 48.7052,9.9631 L 48.6900,9.9631 L 48.6900,9.9787 L 48.6747,9.9787 L 48.6747,9.9944 L 48.6595,9.9944 L 48.6595,10.0101 L 48.6290,10.0101 L 48.6290,10.0257 L 47.2866,10.0257 L 47.2866,10.0101 L 47.2561,10.0101 L 47.2561,9.9944 L 47.2409,9.9944 L 47.2409,9.9787 L 47.2256,9.9787 L 47.2256,9.9631 L 47.2104,9.9631 L 47.2104,9.9474 L 47.1951,9.9317 L 47.1951,9.6811 L 47.0731,9.5558 L 47.0731,9.2895 L 47.0731,9.2738 Z" stroke="#7F7F7F" stroke-width="0.1200" stroke-linecap="round" stroke-linejoin="round" fill="#BFBFBF"/>
        <path d="M 48.7815,9.5401 L 48.6595,9.6654 L 48.6595,9.9004 L 48.6442,9.9161 L 48.6442,9.9317 L 48.6290,9.9317 L 48.6137,9.9474 L 48.5985,9.9474 L 48.5832,9.9631 L 47.3324,9.9631 L 47.3324,9.9474 L 47.3019,9.9474 L 47.2866,9.9317 L 47.2714,9.9317 L 47.2714,9.9161 L 47.2561,9.9004 L 47.2561,9.6654 L 47.1341,9.5401 L 47.1341,9.2738 L 47.1494,9.2738 L 47.1494,9.2425 L 47.1646,9.2425 L 47.1646,9.2111 L 47.1799,9.2111 L 47.1799,9.1955 L 47.2104,9.1955 L 47.2104,9.1798 L 47.2256,9.1798 L 47.2409,9.1641 L 48.6747,9.1641 L 48.6900,9.1798 L 48.7052,9.1798 L 48.7052,9.1955 L 48.7358,9.1955 L 48.7358,9.2111 L 48.7510,9.2111 L 48.7510,9.2425 L 48.7663,9.2425 L 48.7663,9.2738 L 48.7815,9.2738 L 48.7815,9.5244 L 48.7815,9.5401 Z" stroke="#000000" stroke-width="0.1200" stroke-linecap="round" stroke-linejoin="round" fill="#161616"/>
        <path d="M 48.5527,9.6028 L 48.5527,9.5714 L 48.5375,9.5401 L 48.5069,9.5244 L 47.4239,9.5244 L 47.3934,9.5401 L 47.3782,9.5714 L 47.3782,9.8221 L 47.3934,9.8534 L 47.4239,9.8691 L 48.5069,9.8691 L 48.5375,9.8534 L 48.5527,9.8221 L 48.5527,9.7908 L 48.5527,9.6028 Z" stroke="#000000" stroke-width="0.1200" stroke-linecap="round" stroke-linejoin="round" fill="#CCCCCC"/>
        <path d="M 47.6527,9.4775 L 47.5002,9.4775 L 47.5002,9.5244 L 47.6527,9.5244 L 47.6527,9.4775 Z" stroke="#000000" stroke-width="0.1200" stroke-linecap="round" stroke-linejoin="round" fill="#D6D6B1"/>
        <path d="M 47.8968,9.4775 L 47.7443,9.4775 L 47.7443,9.5244 L 47.8968,9.5244 L 47.8968,9.4775 Z" stroke="#000000" stroke-width="0.1200" stroke-linecap="round" stroke-linejoin="round" fill="#D6D6B1"/>
        <path d="M 48.1561,9.4775 L 48.0036,9.4775 L 48.0036,9.5244 L 48.1561,9.5244 L 48.1561,9.4775 Z" stroke="#000000" stroke-width="0.1200" stroke-linecap="round" stroke-linejoin="round" fill="#D6D6B1"/>
        <path d="M 48.4002,9.4775 L 48.2476,9.4775 L 48.2476,9.5244 L 48.4002,9.5244 L 48.4002,9.4775 Z" stroke="#000000" stroke-width="0.1200" stroke-linecap="round" stroke-linejoin="round" fill="#D6D6B1"/>
        <path d="M 50.5678,6.8668 L 50.5678,8.9893 L 51.4608,8.9893 L 51.4608,9.4887 L 51.8236,9.4887 L 51.8236,9.9881 L 52.8841,9.9881 L 52.8841,9.4887 L 53.2469,9.4887 L 53.2469,8.9893 L 54.1399,8.9893 L 54.1399,6.8668 L 50.5678,6.8668 Z" stroke="#161616" stroke-width="0.1200" stroke-linecap="round" stroke-linejoin="round" fill="#000000"/>
        <path d="M 55.6174,5.7364 L 55.5752,5.7364 L 55.5752,5.7505 L 55.5471,5.7505 L 55.5330,5.7646 L 55.5189,5.7646 L 55.5189,5.7786 L 55.5049,5.7786 L 55.5049,5.7927 L 55.4908,5.7927 L 55.4908,5.8067 L 55.4767,5.8208 L 55.4767,5.8489 L 55.4627,5.8489 L 55.4627,7.2268 L 55.4767,7.2268 L 55.4767,7.2549 L 55.4908,7.2690 L 55.4908,7.2830 L 55.5049,7.2830 L 55.5049,7.2971 L 55.5189,7.2971 L 55.5189,7.3111 L 55.5330,7.3111 L 55.5471,7.3252 L 55.5752,7.3252 L 55.5752,7.3393 L 59.0908,7.3393 L 59.0908,7.3252 L 59.1189,7.3252 L 59.1330,7.3111 L 59.1471,7.3111 L 59.1471,7.2971 L 59.1611,7.2971 L 59.1611,7.2830 L 59.1752,7.2830 L 59.1752,7.2690 L 59.1893,7.2549 L 59.1893,7.2268 L 59.2033,7.2268 L 59.2033,5.8489 L 59.1893,5.8489 L 59.1893,5.8208 L 59.1752,5.8067 L 59.1752,5.7927 L 59.1611,5.7927 L 59.1611,5.7786 L 59.1471,5.7786 L 59.1471,5.7646 L 59.1330,5.7646 L 59.1189,5.7505 L 59.0908,5.7505 L 59.0908,5.7364 L 55.6314,5.7364 L 55.6174,5.7364 Z" stroke="#000000" stroke-width="0.1200" stroke-linecap="round" stroke-linejoin="round" fill="#BFBFBF"/>
        <path d="M 55.6736,5.8630 L 55.6314,5.8630 L 55.6314,5.8770 L 55.6174,5.8770 L 55.6174,5.8911 L 55.6033,5.8911 L 55.6033,5.9051 L 55.5892,5.9051 L 55.5892,7.1705 L 55.6033,7.1846 L 55.6033,7.1987 L 55.6174,7.1987 L 55.6174,7.2127 L 55.6314,7.2127 L 55.6455,7.2268 L 59.0346,7.2268 L 59.0346,7.2127 L 59.0486,7.2127 L 59.0486,7.1987 L 59.0627,7.1987 L 59.0627,7.1846 L 59.0768,7.1705 L 59.0768,5.9051 L 59.0627,5.9051 L 59.0627,5.8911 L 59.0486,5.8770 L 59.0346,5.8770 L 59.0346,5.8630 L 55.6877,5.8630 L 55.6736,5.8630 Z" stroke="#7F7F7F" stroke-width="0.1200" stroke-linecap="round" stroke-linejoin="round" fill="#000000"/>
        <path d="M 56.4189,6.5660 L 56.1096,6.5660 L 56.1096,6.4957 L 56.4189,6.4957 L 56.4189,6.5660 Z" stroke="#000000" stroke-width="0.1200" stroke-linecap="round" stroke-linejoin="round" fill="#E2E2CC"/>
        <path d="M 57.1221,6.5660 L 56.8127,6.5660 L 56.8127,6.4957 L 57.1221,6.4957 L 57.1221,6.5660 Z" stroke="#000000" stroke-width="0.1200" stroke-linecap="round" stroke-linejoin="round" fill="#E2E2CC"/>
        <path d="M 57.8111,6.5660 L 57.5018,6.5660 L 57.5018,6.4957 L 57.8111,6.4957 L 57.8111,6.5660 Z" stroke="#000000" stroke-width="0.1200" stroke-linecap="round" stroke-linejoin="round" fill="#E2E2CC"/>
        <path d="M 58.5283,6.5660 L 58.2189,6.5660 L 58.2189,6.4957 L 58.5283,6.4957 L 58.5283,6.5660 Z" stroke="#000000" stroke-width="0.1200" stroke-linecap="round" stroke-linejoin="round" fill="#E2E2CC"/>
        <path d="M 58.8658,6.1301 L 58.8658,6.1020 L 58.8518,6.0739 L 58.8236,6.0598 L 55.8424,6.0598 L 55.8142,6.0739 L 55.8002,6.1020 L 55.8002,6.4535 L 55.8142,6.4816 L 55.8424,6.4957 L 58.8236,6.4957 L 58.8518,6.4816 L 58.8658,6.4535 L 58.8658,6.4254 L 58.8658,6.1301 Z" stroke="#000000" stroke-width="0.1200" stroke-linecap="round" stroke-linejoin="round" fill="#494949"/>
        <path d="M 58.7533,6.2707 L 58.7393,6.2145 L 58.6830,6.1582 L 58.6268,6.1442 L 56.0392,6.1442 L 55.9830,6.1582 L 55.9267,6.2145 L 55.9127,6.2707 L 55.9267,6.3269 L 55.9830,6.3832 L 56.0392,6.3972 L 58.6268,6.3972 L 58.6830,6.3832 L 58.7393,6.3269 L 58.7533,6.2707 Z" stroke="#333333" stroke-width="0.1200" stroke-linecap="round" stroke-linejoin="round" fill="#333333"/>
        <path d="M 55.6174,8.0423 L 55.5752,8.0423 L 55.5752,8.0563 L 55.5471,8.0563 L 55.5330,8.0704 L 55.5189,8.0704 L 55.5189,8.0844 L 55.5049,8.0844 L 55.5049,8.0985 L 55.4908,8.0985 L 55.4908,8.1126 L 55.4767,8.1266 L 55.4767,8.1547 L 55.4627,8.1547 L 55.4627,9.5326 L 55.4767,9.5326 L 55.4767,9.5607 L 55.4908,9.5748 L 55.4908,9.5888 L 55.5049,9.5888 L 55.5049,9.6029 L 55.5189,9.6029 L 55.5189,9.6170 L 55.5330,9.6170 L 55.5471,9.6310 L 55.5752,9.6310 L 55.5752,9.6451 L 59.0908,9.6451 L 59.0908,9.6310 L 59.1189,9.6310 L 59.1330,9.6170 L 59.1471,9.6170 L 59.1471,9.6029 L 59.1611,9.6029 L 59.1611,9.5888 L 59.1752,9.5888 L 59.1752,9.5748 L 59.1893,9.5607 L 59.1893,9.5326 L 59.2033,9.5326 L 59.2033,8.1547 L 59.1893,8.1547 L 59.1893,8.1266 L 59.1752,8.1126 L 59.1752,8.0985 L 59.1611,8.0985 L 59.1611,8.0844 L 59.1471,8.0844 L 59.1471,8.0704 L 59.1330,8.0704 L 59.1189,8.0563 L 59.0908,8.0563 L 59.0908,8.0423 L 55.6314,8.0423 L 55.6174,8.0423 Z" stroke="#000000" stroke-width="0.1200" stroke-linecap="round" stroke-linejoin="round" fill="#BFBFBF"/>
        <path d="M 55.6736,8.1688 L 55.6314,8.1688 L 55.6314,8.1828 L 55.6174,8.1828 L 55.6174,8.1969 L 55.6033,8.1969 L 55.6033,8.2110 L 55.5892,8.2110 L 55.5892,9.4764 L 55.6033,9.4904 L 55.6033,9.5045 L 55.6174,9.5045 L 55.6174,9.5185 L 55.6314,9.5185 L 55.6455,9.5326 L 59.0346,9.5326 L 59.0346,9.5185 L 59.0486,9.5185 L 59.0486,9.5045 L 59.0627,9.5045 L 59.0627,9.4904 L 59.0768,9.4764 L 59.0768,8.2110 L 59.0627,8.2110 L 59.0627,8.1969 L 59.0486,8.1828 L 59.0346,8.1828 L 59.0346,8.1688 L 55.6877,8.1688 L 55.6736,8.1688 Z" stroke="#7F7F7F" stroke-width="0.1200" stroke-linecap="round" stroke-linejoin="round" fill="#000000"/>
        <path d="M 56.4189,8.8718 L 56.1096,8.8718 L 56.1096,8.8015 L 56.4189,8.8015 L 56.4189,8.8718 Z" stroke="#000000" stroke-width="0.1200" stroke-linecap="round" stroke-linejoin="round" fill="#E2E2CC"/>
        <path d="M 57.1221,8.8718 L 56.8127,8.8718 L 56.8127,8.8015 L 57.1221,8.8015 L 57.1221,8.8718 Z" stroke="#000000" stroke-width="0.1200" stroke-linecap="round" stroke-linejoin="round" fill="#E2E2CC"/>
        <path d="M 57.8111,8.8718 L 57.5018,8.8718 L 57.5018,8.8015 L 57.8111,8.8015 L 57.8111,8.8718 Z" stroke="#000000" stroke-width="0.1200" stroke-linecap="round" stroke-linejoin="round" fill="#E2E2CC"/>
        <path d="M 58.5283,8.8718 L 58.2189,8.8718 L 58.2189,8.8015 L 58.5283,8.8015 L 58.5283,8.8718 Z" stroke="#000000" stroke-width="0.1200" stroke-linecap="round" stroke-linejoin="round" fill="#E2E2CC"/>
        <path d="M 58.8658,8.4359 L 58.8658,8.4078 L 58.8518,8.3797 L 58.8236,8.3656 L 55.8424,8.3656 L 55.8142,8.3797 L 55.8002,8.4078 L 55.8002,8.7593 L 55.8142,8.7874 L 55.8424,8.8015 L 58.8236,8.8015 L 58.8518,8.7874 L 58.8658,8.7593 L 58.8658,8.7312 L 58.8658,8.4359 Z" stroke="#000000" stroke-width="0.1200" stroke-linecap="round" stroke-linejoin="round" fill="#494949"/>
        <path d="M 58.7533,8.5765 L 58.7393,8.5203 L 58.6830,8.4640 L 58.6268,8.4500 L 56.0392,8.4500 L 55.9830,8.4640 L 55.9267,8.5203 L 55.9127,8.5765 L 55.9267,8.6328 L 55.9830,8.6890 L 56.0392,8.7031 L 58.6268,8.7031 L 58.6830,8.6890 L 58.7393,8.6328 L 58.7533,8.5765 Z" stroke="#333333" stroke-width="0.1200" stroke-linecap="round" stroke-linejoin="round" fill="#333333"/>
        <path d="M 61.9877,2.6496 L 61.9877,2.8022 L 61.7627,2.8022 L 61.7627,3.2323 L 60.8205,3.2323 L 60.8205,3.2739 L 60.5252,3.2739 L 60.5252,2.8022 L 60.5814,2.8022 L 60.5814,3.2323 L 60.8205,3.2323 L 60.8205,4.1895 L 60.9190,4.1895 L 60.9190,4.6889 L 60.8205,4.6889 L 60.8205,5.7709 L 64.4205,5.7709 L 64.4205,4.6889 L 64.3221,4.6889 L 64.3221,4.1895 L 64.4205,4.1895 L 64.4205,3.2323 L 64.6596,3.2323 L 64.6596,2.8022 L 64.7158,2.8022 L 64.7158,3.2739 L 64.4205,3.2739 L 64.4205,3.2323 L 63.4783,3.2323 L 63.4783,2.8022 L 63.2533,2.8022 L 63.2533,2.6496 L 61.9877,2.6496 Z" stroke="#000000" stroke-width="0.1200" stroke-linecap="round" stroke-linejoin="round" fill="#000000"/>
        <path d="M 61.7627,2.8161 L 60.5814,2.8161 L 60.5814,3.2461 L 61.7627,3.2461 L 61.7627,2.8161 Z" stroke="#494949" stroke-width="0.1200" stroke-linecap="round" stroke-linejoin="round" fill="#000000"/>
        <path d="M 64.6596,2.8161 L 63.4783,2.8161 L 63.4783,3.2461 L 64.6596,3.2461 L 64.6596,2.8161 Z" stroke="#494949" stroke-width="0.1200" stroke-linecap="round" stroke-linejoin="round" fill="#000000"/>
        <path d="M 61.9877,10.0436 L 61.9877,9.8910 L 61.7627,9.8910 L 61.7627,9.4610 L 60.8205,9.4610 L 60.8205,9.4194 L 60.5252,9.4194 L 60.5252,9.8910 L 60.5814,9.8910 L 60.5814,9.4610 L 60.8205,9.4610 L 60.8205,8.5038 L 60.9190,8.5038 L 60.9190,8.0044 L 60.8205,8.0044 L 60.8205,6.9223 L 64.4205,6.9223 L 64.4205,8.0044 L 64.3221,8.0044 L 64.3221,8.5038 L 64.4205,8.5038 L 64.4205,9.4610 L 64.6596,9.4610 L 64.6596,9.8910 L 64.7158,9.8910 L 64.7158,9.4194 L 64.4205,9.4194 L 64.4205,9.4610 L 63.4783,9.4610 L 63.4783,9.8910 L 63.2533,9.8910 L 63.2533,10.0436 L 61.9877,10.0436 Z" stroke="#000000" stroke-width="0.1200" stroke-linecap="round" stroke-linejoin="round" fill="#000000"/>
        <path d="M 61.7627,9.4610 L 60.5814,9.4610 L 60.5814,9.8910 L 61.7627,9.8910 L 61.7627,9.4610 Z" stroke="#494949" stroke-width="0.1200" stroke-linecap="round" stroke-linejoin="round" fill="#000000"/>
        <path d="M 64.6596,9.4610 L 63.4783,9.4610 L 63.4783,9.8910 L 64.6596,9.8910 L 64.6596,9.4610 Z" stroke="#494949" stroke-width="0.1200" stroke-linecap="round" stroke-linejoin="round" fill="#000000"/>
        <path d="M 70.3409,5.4259 L 66.3752,5.4259 L 66.3752,2.7545 L 70.3409,2.7545 L 70.3409,5.4259 Z" stroke="#000000" stroke-width="0.1200" stroke-linecap="round" stroke-linejoin="round" fill="none"/>
        <path d="M 70.3409,9.8691 L 66.3752,9.8691 L 66.3752,7.1977 L 70.3409,7.1977 L 70.3409,9.8691 Z" stroke="#000000" stroke-width="0.1200" stroke-linecap="round" stroke-linejoin="round" fill="none"/>
        <path d="M 76.3596,5.4259 L 72.3940,5.4259 L 72.3940,2.7545 L 76.3596,2.7545 L 76.3596,5.4259 Z" stroke="#000000" stroke-width="0.1200" stroke-linecap="round" stroke-linejoin="round" fill="none"/>
        <path d="M 76.3596,9.8691 L 72.3940,9.8691 L 72.3940,7.1977 L 76.3596,7.1977 L 76.3596,9.8691 Z" stroke="#000000" stroke-width="0.1200" stroke-linecap="round" stroke-linejoin="round" fill="none"/>
        <path d="M 82.3784,5.4259 L 78.4128,5.4259 L 78.4128,2.7545 L 82.3784,2.7545 L 82.3784,5.4259 Z" stroke="#000000" stroke-width="0.1200" stroke-linecap="round" stroke-linejoin="round" fill="none"/>
        <path d="M 82.3784,9.8691 L 78.4128,9.8691 L 78.4128,7.1977 L 82.3784,7.1977 L 82.3784,9.8691 Z" stroke="#000000" stroke-width="0.1200" stroke-linecap="round" stroke-linejoin="round" fill="none"/>
        <path d="M 88.3972,5.4259 L 84.4315,5.4259 L 84.4315,2.7545 L 88.3972,2.7545 L 88.3972,5.4259 Z" stroke="#000000" stroke-width="0.1200" stroke-linecap="round" stroke-linejoin="round" fill="none"/>
        <path d="M 88.3972,9.8691 L 84.4315,9.8691 L 84.4315,7.1977 L 88.3972,7.1977 L 88.3972,9.8691 Z" stroke="#000000" stroke-width="0.1200" stroke-linecap="round" stroke-linejoin="round" fill="none"/>
        <path d="M 91.5753,2.6496 L 91.5753,2.8022 L 91.3503,2.8022 L 91.3503,3.2323 L 90.4081,3.2323 L 90.4081,3.2739 L 90.1128,3.2739 L 90.1128,2.8022 L 90.1690,2.8022 L 90.1690,3.2323 L 90.4081,3.2323 L 90.4081,4.1895 L 90.5065,4.1895 L 90.5065,4.6889 L 90.4081,4.6889 L 90.4081,5.7709 L 94.0081,5.7709 L 94.0081,4.6889 L 93.9097,4.6889 L 93.9097,4.1895 L 94.0081,4.1895 L 94.0081,3.2323 L 94.2472,3.2323 L 94.2472,2.8022 L 94.3034,2.8022 L 94.3034,3.2739 L 94.0081,3.2739 L 94.0081,3.2323 L 93.0659,3.2323 L 93.0659,2.8022 L 92.8409,2.8022 L 92.8409,2.6496 L 91.5753,2.6496 Z" stroke="#000000" stroke-width="0.1200" stroke-linecap="round" stroke-linejoin="round" fill="#000000"/>
        <path d="M 91.3503,2.8161 L 90.1690,2.8161 L 90.1690,3.2461 L 91.3503,3.2461 L 91.3503,2.8161 Z" stroke="#494949" stroke-width="0.1200" stroke-linecap="round" stroke-linejoin="round" fill="#000000"/>
        <path d="M 94.2472,2.8161 L 93.0659,2.8161 L 93.0659,3.2461 L 94.2472,3.2461 L 94.2472,2.8161 Z" stroke="#494949" stroke-width="0.1200" stroke-linecap="round" stroke-linejoin="round" fill="#000000"/>
        <path d="M 91.5753,10.0436 L 91.5753,9.8910 L 91.3503,9.8910 L 91.3503,9.4610 L 90.4081,9.4610 L 90.4081,9.4194 L 90.1128,9.4194 L 90.1128,9.8910 L 90.1690,9.8910 L 90.1690,9.4610 L 90.4081,9.4610 L 90.4081,8.5038 L 90.5065,8.5038 L 90.5065,8.0044 L 90.4081,8.0044 L 90.4081,6.9223 L 94.0081,6.9223 L 94.0081,8.0044 L 93.9097,8.0044 L 93.9097,8.5038 L 94.0081,8.5038 L 94.0081,9.4610 L 94.2472,9.4610 L 94.2472,9.8910 L 94.3034,9.8910 L 94.3034,9.4194 L 94.0081,9.4194 L 94.0081,9.4610 L 93.0659,9.4610 L 93.0659,9.8910 L 92.8409,9.8910 L 92.8409,10.0436 L 91.5753,10.0436 Z" stroke="#000000" stroke-width="0.1200" stroke-linecap="round" stroke-linejoin="round" fill="#000000"/>
        <path d="M 91.3503,9.4610 L 90.1690,9.4610 L 90.1690,9.8910 L 91.3503,9.8910 L 91.3503,9.4610 Z" stroke="#494949" stroke-width="0.1200" stroke-linecap="round" stroke-linejoin="round" fill="#000000"/>
        <path d="M 94.2472,9.4610 L 93.0659,9.4610 L 93.0659,9.8910 L 94.2472,9.8910 L 94.2472,9.4610 Z" stroke="#494949" stroke-width="0.1200" stroke-linecap="round" stroke-linejoin="round" fill="#000000"/>
        <path d="M 96.1316,2.6496 L 96.1316,2.8022 L 95.9066,2.8022 L 95.9066,3.2323 L 94.9644,3.2323 L 94.9644,3.2739 L 94.6691,3.2739 L 94.6691,2.8022 L 94.7253,2.8022 L 94.7253,3.2323 L 94.9644,3.2323 L 94.9644,4.1895 L 95.0628,4.1895 L 95.0628,4.6889 L 94.9644,4.6889 L 94.9644,5.7709 L 98.5644,5.7709 L 98.5644,4.6889 L 98.4659,4.6889 L 98.4659,4.1895 L 98.5644,4.1895 L 98.5644,3.2323 L 98.8034,3.2323 L 98.8034,2.8022 L 98.8597,2.8022 L 98.8597,3.2739 L 98.5644,3.2739 L 98.5644,3.2323 L 97.6222,3.2323 L 97.6222,2.8022 L 97.3972,2.8022 L 97.3972,2.6496 L 96.1316,2.6496 Z" stroke="#000000" stroke-width="0.1200" stroke-linecap="round" stroke-linejoin="round" fill="#000000"/>
        <path d="M 95.9066,2.8161 L 94.7253,2.8161 L 94.7253,3.2461 L 95.9066,3.2461 L 95.9066,2.8161 Z" stroke="#494949" stroke-width="0.1200" stroke-linecap="round" stroke-linejoin="round" fill="#000000"/>
        <path d="M 98.8034,2.8161 L 97.6222,2.8161 L 97.6222,3.2461 L 98.8034,3.2461 L 98.8034,2.8161 Z" stroke="#494949" stroke-width="0.1200" stroke-linecap="round" stroke-linejoin="round" fill="#000000"/>
        <path d="M 96.1316,10.0436 L 96.1316,9.8910 L 95.9066,9.8910 L 95.9066,9.4610 L 94.9644,9.4610 L 94.9644,9.4194 L 94.6691,9.4194 L 94.6691,9.8910 L 94.7253,9.8910 L 94.7253,9.4610 L 94.9644,9.4610 L 94.9644,8.5038 L 95.0628,8.5038 L 95.0628,8.0044 L 94.9644,8.0044 L 94.9644,6.9223 L 98.5644,6.9223 L 98.5644,8.0044 L 98.4659,8.0044 L 98.4659,8.5038 L 98.5644,8.5038 L 98.5644,9.4610 L 98.8034,9.4610 L 98.8034,9.8910 L 98.8597,9.8910 L 98.8597,9.4194 L 98.5644,9.4194 L 98.5644,9.4610 L 97.6222,9.4610 L 97.6222,9.8910 L 97.3972,9.8910 L 97.3972,10.0436 L 96.1316,10.0436 Z" stroke="#000000" stroke-width="0.1200" stroke-linecap="round" stroke-linejoin="round" fill="#000000"/>
        <path d="M 95.9066,9.4610 L 94.7253,9.4610 L 94.7253,9.8910 L 95.9066,9.8910 L 95.9066,9.4610 Z" stroke="#494949" stroke-width="0.1200" stroke-linecap="round" stroke-linejoin="round" fill="#000000"/>
        <path d="M 98.8034,9.4610 L 97.6222,9.4610 L 97.6222,9.8910 L 98.8034,9.8910 L 98.8034,9.4610 Z" stroke="#494949" stroke-width="0.1200" stroke-linecap="round" stroke-linejoin="round" fill="#000000"/>
        <path d="M 100.6316,2.6496 L 100.6316,2.8022 L 100.4066,2.8022 L 100.4066,3.2323 L 99.4644,3.2323 L 99.4644,3.2739 L 99.1691,3.2739 L 99.1691,2.8022 L 99.2253,2.8022 L 99.2253,3.2323 L 99.4644,3.2323 L 99.4644,4.1895 L 99.5628,4.1895 L 99.5628,4.6889 L 99.4644,4.6889 L 99.4644,5.7709 L 103.0644,5.7709 L 103.0644,4.6889 L 102.9660,4.6889 L 102.9660,4.1895 L 103.0644,4.1895 L 103.0644,3.2323 L 103.3035,3.2323 L 103.3035,2.8022 L 103.3597,2.8022 L 103.3597,3.2739 L 103.0644,3.2739 L 103.0644,3.2323 L 102.1222,3.2323 L 102.1222,2.8022 L 101.8972,2.8022 L 101.8972,2.6496 L 100.6316,2.6496 Z" stroke="#000000" stroke-width="0.1200" stroke-linecap="round" stroke-linejoin="round" fill="#000000"/>
        <path d="M 100.4066,2.8161 L 99.2253,2.8161 L 99.2253,3.2461 L 100.4066,3.2461 L 100.4066,2.8161 Z" stroke="#494949" stroke-width="0.1200" stroke-linecap="round" stroke-linejoin="round" fill="#000000"/>
        <path d="M 103.3035,2.8161 L 102.1222,2.8161 L 102.1222,3.2461 L 103.3035,3.2461 L 103.3035,2.8161 Z" stroke="#494949" stroke-width="0.1200" stroke-linecap="round" stroke-linejoin="round" fill="#000000"/>
        <path d="M 100.6316,10.0436 L 100.6316,9.8910 L 100.4066,9.8910 L 100.4066,9.4610 L 99.4644,9.4610 L 99.4644,9.4194 L 99.1691,9.4194 L 99.1691,9.8910 L 99.2253,9.8910 L 99.2253,9.4610 L 99.4644,9.4610 L 99.4644,8.5038 L 99.5628,8.5038 L 99.5628,8.0044 L 99.4644,8.0044 L 99.4644,6.9223 L 103.0644,6.9223 L 103.0644,8.0044 L 102.9660,8.0044 L 102.9660,8.5038 L 103.0644,8.5038 L 103.0644,9.4610 L 103.3035,9.4610 L 103.3035,9.8910 L 103.3597,9.8910 L 103.3597,9.4194 L 103.0644,9.4194 L 103.0644,9.4610 L 102.1222,9.4610 L 102.1222,9.8910 L 101.8972,9.8910 L 101.8972,10.0436 L 100.6316,10.0436 Z" stroke="#000000" stroke-width="0.1200" stroke-linecap="round" stroke-linejoin="round" fill="#000000"/>
        <path d="M 100.4066,9.4610 L 99.2253,9.4610 L 99.2253,9.8910 L 100.4066,9.8910 L 100.4066,9.4610 Z" stroke="#494949" stroke-width="0.1200" stroke-linecap="round" stroke-linejoin="round" fill="#000000"/>
        <path d="M 103.3035,9.4610 L 102.1222,9.4610 L 102.1222,9.8910 L 103.3035,9.8910 L 103.3035,9.4610 Z" stroke="#494949" stroke-width="0.1200" stroke-linecap="round" stroke-linejoin="round" fill="#000000"/>
        <path d="M 105.1878,2.6496 L 105.1878,2.8022 L 104.9628,2.8022 L 104.9628,3.2323 L 104.0207,3.2323 L 104.0207,3.2739 L 103.7253,3.2739 L 103.7253,2.8022 L 103.7816,2.8022 L 103.7816,3.2323 L 104.0207,3.2323 L 104.0207,4.1895 L 104.1191,4.1895 L 104.1191,4.6889 L 104.0207,4.6889 L 104.0207,5.7709 L 107.6207,5.7709 L 107.6207,4.6889 L 107.5222,4.6889 L 107.5222,4.1895 L 107.6207,4.1895 L 107.6207,3.2323 L 107.8597,3.2323 L 107.8597,2.8022 L 107.9160,2.8022 L 107.9160,3.2739 L 107.6207,3.2739 L 107.6207,3.2323 L 106.6785,3.2323 L 106.6785,2.8022 L 106.4535,2.8022 L 106.4535,2.6496 L 105.1878,2.6496 Z" stroke="#000000" stroke-width="0.1200" stroke-linecap="round" stroke-linejoin="round" fill="#000000"/>
        <path d="M 104.9628,2.8161 L 103.7816,2.8161 L 103.7816,3.2461 L 104.9628,3.2461 L 104.9628,2.8161 Z" stroke="#494949" stroke-width="0.1200" stroke-linecap="round" stroke-linejoin="round" fill="#000000"/>
        <path d="M 107.8597,2.8161 L 106.6785,2.8161 L 106.6785,3.2461 L 107.8597,3.2461 L 107.8597,2.8161 Z" stroke="#494949" stroke-width="0.1200" stroke-linecap="round" stroke-linejoin="round" fill="#000000"/>
        <path d="M 105.1878,10.0436 L 105.1878,9.8910 L 104.9628,9.8910 L 104.9628,9.4610 L 104.0207,9.4610 L 104.0207,9.4194 L 103.7253,9.4194 L 103.7253,9.8910 L 103.7816,9.8910 L 103.7816,9.4610 L 104.0207,9.4610 L 104.0207,8.5038 L 104.1191,8.5038 L 104.1191,8.0044 L 104.0207,8.0044 L 104.0207,6.9223 L 107.6207,6.9223 L 107.6207,8.0044 L 107.5222,8.0044 L 107.5222,8.5038 L 107.6207,8.5038 L 107.6207,9.4610 L 107.8597,9.4610 L 107.8597,9.8910 L 107.9160,9.8910 L 107.9160,9.4194 L 107.6207,9.4194 L 107.6207,9.4610 L 106.6785,9.4610 L 106.6785,9.8910 L 106.4535,9.8910 L 106.4535,10.0436 L 105.1878,10.0436 Z" stroke="#000000" stroke-width="0.1200" stroke-linecap="round" stroke-linejoin="round" fill="#000000"/>
        <path d="M 104.9628,9.4610 L 103.7816,9.4610 L 103.7816,9.8910 L 104.9628,9.8910 L 104.9628,9.4610 Z" stroke="#494949" stroke-width="0.1200" stroke-linecap="round" stroke-linejoin="round" fill="#000000"/>
        <path d="M 107.8597,9.4610 L 106.6785,9.4610 L 106.6785,9.8910 L 107.8597,9.8910 L 107.8597,9.4610 Z" stroke="#494949" stroke-width="0.1200" stroke-linecap="round" stroke-linejoin="round" fill="#000000"/>
        <path d="M 91.2106,2.8682 L 90.4503,2.8682 L 90.4503,3.1797 L 91.2106,3.1797 L 91.2106,2.8682 Z" stroke="#000000" stroke-width="0.1200" stroke-linecap="round" stroke-linejoin="round" fill="#83FF00"/>
        <path d="M 94.0211,2.8682 L 93.2608,2.8682 L 93.2608,3.1797 L 94.0211,3.1797 L 94.0211,2.8682 Z" stroke="#000000" stroke-width="0.1200" stroke-linecap="round" stroke-linejoin="round" fill="#83FF00"/>
        <path d="M 95.7590,2.8682 L 94.9986,2.8682 L 94.9986,3.1797 L 95.7590,3.1797 L 95.7590,2.8682 Z" stroke="#000000" stroke-width="0.1200" stroke-linecap="round" stroke-linejoin="round" fill="#83FF00"/>
        <path d="M 98.5694,2.8682 L 97.8091,2.8682 L 97.8091,3.1797 L 98.5694,3.1797 L 98.5694,2.8682 Z" stroke="#000000" stroke-width="0.1200" stroke-linecap="round" stroke-linejoin="round" fill="#83FF00"/>
        <path d="M 100.2122,2.8682 L 99.4519,2.8682 L 99.4519,3.1797 L 100.2122,3.1797 L 100.2122,2.8682 Z" stroke="#000000" stroke-width="0.1200" stroke-linecap="round" stroke-linejoin="round" fill="#83FF00"/>
        <path d="M 103.0227,2.8682 L 102.2624,2.8682 L 102.2624,3.1797 L 103.0227,3.1797 L 103.0227,2.8682 Z" stroke="#000000" stroke-width="0.1200" stroke-linecap="round" stroke-linejoin="round" fill="#83FF00"/>
        <path d="M 104.8149,2.8682 L 104.0545,2.8682 L 104.0545,3.1797 L 104.8149,3.1797 L 104.8149,2.8682 Z" stroke="#000000" stroke-width="0.1200" stroke-linecap="round" stroke-linejoin="round" fill="#83FF00"/>
        <path d="M 107.6253,2.8682 L 106.8650,2.8682 L 106.8650,3.1797 L 107.6253,3.1797 L 107.6253,2.8682 Z" stroke="#000000" stroke-width="0.1200" stroke-linecap="round" stroke-linejoin="round" fill="#83FF00"/>
        <path d="M 91.2106,9.5650 L 90.4503,9.5650 L 90.4503,9.8765 L 91.2106,9.8765 L 91.2106,9.5650 Z" stroke="#000000" stroke-width="0.1200" stroke-linecap="round" stroke-linejoin="round" fill="#83FF00"/>
        <path d="M 94.0211,9.5650 L 93.2608,9.5650 L 93.2608,9.8765 L 94.0211,9.8765 L 94.0211,9.5650 Z" stroke="#000000" stroke-width="0.1200" stroke-linecap="round" stroke-linejoin="round" fill="#83FF00"/>
        <path d="M 95.7590,9.5650 L 94.9986,9.5650 L 94.9986,9.8765 L 95.7590,9.8765 L 95.7590,9.5650 Z" stroke="#000000" stroke-width="0.1200" stroke-linecap="round" stroke-linejoin="round" fill="#83FF00"/>
        <path d="M 98.5694,9.5650 L 97.8091,9.5650 L 97.8091,9.8765 L 98.5694,9.8765 L 98.5694,9.5650 Z" stroke="#000000" stroke-width="0.1200" stroke-linecap="round" stroke-linejoin="round" fill="#83FF00"/>
        <path d="M 100.2122,9.5650 L 99.4519,9.5650 L 99.4519,9.8765 L 100.2122,9.8765 L 100.2122,9.5650 Z" stroke="#000000" stroke-width="0.1200" stroke-linecap="round" stroke-linejoin="round" fill="#83FF00"/>
        <path d="M 103.0227,9.5650 L 102.2624,9.5650 L 102.2624,9.8765 L 103.0227,9.8765 L 103.0227,9.5650 Z" stroke="#000000" stroke-width="0.1200" stroke-linecap="round" stroke-linejoin="round" fill="#83FF00"/>
        <path d="M 104.8149,9.5650 L 104.0545,9.5650 L 104.0545,9.8765 L 104.8149,9.8765 L 104.8149,9.5650 Z" stroke="#000000" stroke-width="0.1200" stroke-linecap="round" stroke-linejoin="round" fill="#83FF00"/>
        <path d="M 107.6253,9.5650 L 106.8650,9.5650 L 106.8650,9.8765 L 107.6253,9.8765 L 107.6253,9.5650 Z" stroke="#000000" stroke-width="0.1200" stroke-linecap="round" stroke-linejoin="round" fill="#83FF00"/>
        <path d="M 61.6262,2.8682 L 60.8659,2.8682 L 60.8659,3.1797 L 61.6262,3.1797 L 61.6262,2.8682 Z" stroke="#000000" stroke-width="0.1200" stroke-linecap="round" stroke-linejoin="round" fill="#83FF00"/>
        <path d="M 64.4367,2.8682 L 63.6764,2.8682 L 63.6764,3.1797 L 64.4367,3.1797 L 64.4367,2.8682 Z" stroke="#000000" stroke-width="0.1200" stroke-linecap="round" stroke-linejoin="round" fill="#83FF00"/>
        <path d="M 61.6262,9.5002 L 60.8659,9.5002 L 60.8659,9.8116 L 61.6262,9.8116 L 61.6262,9.5002 Z" stroke="#000000" stroke-width="0.1200" stroke-linecap="round" stroke-linejoin="round" fill="#83FF00"/>
        <path d="M 64.4367,9.5002 L 63.6764,9.5002 L 63.6764,9.8116 L 64.4367,9.8116 L 64.4367,9.5002 Z" stroke="#000000" stroke-width="0.1200" stroke-linecap="round" stroke-linejoin="round" fill="#83FF00"/>
      </g>
      <!--emf-blob end-->
    </g>
  </g>
</svg>
