<svg xmlns="http://www.w3.org/2000/svg" xmlns:xlink="http://www.w3.org/1999/xlink" version="1.1" width="5.2924000000" height="2.3700000000" viewBox="0 0 95.2668 42.6594">
  <title><![CDATA[FG-5001C]]></title>
  <g transform=" scale(4.000000) ">
    <!--converted by libvisio2svg-->
    <g transform=" translate(0.720000,0.720000) ">
      <!--emf-blob start-->
      <g transform="translate(-0.0000, -0.0000)">
        <path d="M 86.6161,0.4962 L 86.6161,1.1578 L 87.2812,1.1578 " stroke="#000000" stroke-width="0.1200" stroke-linecap="round" stroke-linejoin="round" fill="none"/>
        <path d="M 87.2812,0.4962 L 88.5938,0.4962 " stroke="#000000" stroke-width="0.1200" stroke-linecap="round" stroke-linejoin="round" fill="none"/>
        <path d="M 87.9287,0.4962 L 87.9287,1.1578 " stroke="#000000" stroke-width="0.1200" stroke-linecap="round" stroke-linejoin="round" fill="none"/>
        <path d="M 88.9263,0.4962 L 88.9263,1.1578 " stroke="#000000" stroke-width="0.1200" stroke-linecap="round" stroke-linejoin="round" fill="none"/>
        <path d="M 88.9263,0.4962 L 88.9263,1.1578 " stroke="#000000" stroke-width="0.1200" stroke-linecap="round" stroke-linejoin="round" fill="none"/>
        <path d="M 89.5739,1.1578 L 89.5739,0.4962 L 90.2389,1.1578 L 90.9040,0.4962 L 90.9040,1.1578 " stroke="#000000" stroke-width="0.1200" stroke-linecap="round" stroke-linejoin="round" fill="none"/>
        <path d="M 91.2190,1.1578 L 91.8841,0.4962 L 92.5492,1.1578 " stroke="#000000" stroke-width="0.1200" stroke-linecap="round" stroke-linejoin="round" fill="none"/>
        <path d="M 91.3941,0.9924 L 92.3742,0.9924 " stroke="#000000" stroke-width="0.1200" stroke-linecap="round" stroke-linejoin="round" fill="none"/>
        <path d="M 84.6384,1.1578 L 85.3035,0.4962 L 85.9685,1.1578 " stroke="#000000" stroke-width="0.1200" stroke-linecap="round" stroke-linejoin="round" fill="none"/>
        <path d="M 84.8134,0.9924 L 85.7935,0.9924 " stroke="#000000" stroke-width="0.1200" stroke-linecap="round" stroke-linejoin="round" fill="none"/>
        <path d="M 93.7987,0.0000 L 93.7987,6.8318 L 88.1190,6.8318 L 88.1190,8.2510 L 5.6797,8.2510 L 5.6797,6.8318 L 0.0000,6.8318 L 0.0000,0.0000 L 93.7987,0.0000 Z" stroke="#000000" stroke-width="0.1200" stroke-linecap="round" stroke-linejoin="round" fill="#666666"/>
        <path d="M 83.1142,8.0145 L 92.6037,8.0145 L 92.6037,7.1101 L 83.1142,7.1101 L 83.1142,8.0145 Z" stroke="#000000" stroke-width="0.1200" stroke-linecap="round" stroke-linejoin="round" fill="#BFBFBF"/>
        <path d="M 88.3580,8.1119 L 84.2529,8.1119 L 84.2529,7.0127 L 88.3580,7.0127 L 88.3580,8.1119 Z" stroke="#000000" stroke-width="0.1200" stroke-linecap="round" stroke-linejoin="round" fill="#7F7F7F"/>
        <path d="M 83.1704,8.1119 L 79.0653,8.1119 L 79.0653,7.0127 L 83.1704,7.0127 L 83.1704,8.1119 Z" stroke="#000000" stroke-width="0.1200" stroke-linecap="round" stroke-linejoin="round" fill="#7F7F7F"/>
        <path d="M 10.6845,8.0145 L 1.1950,8.0145 L 1.1950,7.1101 L 10.6845,7.1101 L 10.6845,8.0145 Z" stroke="#000000" stroke-width="0.1200" stroke-linecap="round" stroke-linejoin="round" fill="#BFBFBF"/>
        <path d="M 5.4407,8.1119 L 9.5458,8.1119 L 9.5458,7.0127 L 5.4407,7.0127 L 5.4407,8.1119 Z" stroke="#000000" stroke-width="0.1200" stroke-linecap="round" stroke-linejoin="round" fill="#7F7F7F"/>
        <path d="M 10.6283,8.1119 L 14.7334,8.1119 L 14.7334,7.0127 L 10.6283,7.0127 L 10.6283,8.1119 Z" stroke="#000000" stroke-width="0.1200" stroke-linecap="round" stroke-linejoin="round" fill="#7F7F7F"/>
        <path d="M 43.2722,2.0036 L 40.5449,2.0036 " stroke="#FFFFFF" stroke-width="0.1200" stroke-linecap="round" stroke-linejoin="round" fill="none"/>
        <path d="M 48.6145,6.6926 L 44.6500,6.6926 L 44.6500,4.0072 L 48.6145,4.0072 L 48.6145,6.6926 Z" stroke-width="1px" stroke="#333333" fill="#333333"/>
        <path d="M 44.5094,6.6926 L 40.5449,6.6926 L 40.5449,4.0072 L 44.5094,4.0072 L 44.5094,6.6926 Z" stroke-width="1px" stroke="#333333" fill="#333333"/>
        <path d="M 48.6145,2.0036 L 45.8871,2.0036 " stroke="#FFFFFF" stroke-width="0.1200" stroke-linecap="round" stroke-linejoin="round" fill="none"/>
        <ellipse cx="16.4597" cy="4.7831" rx="0.3690" ry="0.3666" fill="#00FFFF" stroke="#000000" stroke-width="0.1200" stroke-linecap="round" stroke-linejoin="round"/>
        <ellipse cx="16.4597" cy="4.7831" rx="0.3690" ry="0.3666" fill="none" stroke="#000000" stroke-width="0.1200" stroke-linecap="round" stroke-linejoin="round"/>
        <ellipse cx="16.4597" cy="3.3348" rx="0.3690" ry="0.3666" fill="#00FFFF" stroke="#000000" stroke-width="0.1200" stroke-linecap="round" stroke-linejoin="round"/>
        <ellipse cx="16.4597" cy="3.3348" rx="0.3690" ry="0.3666" fill="none" stroke="#000000" stroke-width="0.1200" stroke-linecap="round" stroke-linejoin="round"/>
        <text font-family="Arial" fill="#FFFFFF" style="white-space:pre;" font-weight="400" text-anchor="start" x="21.8143" y="4.4551" font-size="0.1620"><![CDATA[1]]></text>
        <text font-family="Arial" fill="#FFFFFF" style="white-space:pre;" font-weight="400" text-anchor="start" x="21.8143" y="4.9200" font-size="0.1620"><![CDATA[2]]></text>
        <ellipse cx="13.4720" cy="4.7831" rx="0.3690" ry="0.3666" fill="#00FFFF" stroke="#000000" stroke-width="0.1200" stroke-linecap="round" stroke-linejoin="round"/>
        <ellipse cx="13.4720" cy="4.7831" rx="0.3690" ry="0.3666" fill="none" stroke="#000000" stroke-width="0.1200" stroke-linecap="round" stroke-linejoin="round"/>
        <ellipse cx="13.4720" cy="3.3348" rx="0.3690" ry="0.3666" fill="#00FFFF" stroke="#000000" stroke-width="0.1200" stroke-linecap="round" stroke-linejoin="round"/>
        <ellipse cx="13.4720" cy="3.3348" rx="0.3690" ry="0.3666" fill="none" stroke="#000000" stroke-width="0.1200" stroke-linecap="round" stroke-linejoin="round"/>
        <text font-family="Arial" fill="#FFFFFF" style="white-space:pre;" font-weight="400" text-anchor="start" x="17.8726" y="4.4551" font-size="0.1620"><![CDATA[1]]></text>
        <text font-family="Arial" fill="#FFFFFF" style="white-space:pre;" font-weight="400" text-anchor="start" x="17.8726" y="4.9200" font-size="0.1620"><![CDATA[2]]></text>
        <text font-family="Arial" fill="#FFFFFF" style="white-space:pre;" font-weight="400" text-anchor="start" x="18.6286" y="4.0047" font-size="0.1980"><![CDATA[BASE]]></text>
        <text font-family="Arial" fill="#FFFFFF" style="white-space:pre;" font-weight="400" text-anchor="start" x="17.5847" y="4.0047" font-size="0.1980"><![CDATA[FABRIC]]></text>
        <text font-family="Arial" fill="#FFFFFF" style="white-space:pre;" font-weight="400" text-anchor="start" x="19.4385" y="4.0047" font-size="0.1980"><![CDATA[USB]]></text>
        <path d="M 86.5962,5.8610 L 85.7273,5.8610 L 85.7273,6.3252 L 86.5962,6.3252 L 86.5962,5.8610 Z" stroke="#000000" stroke-width="0.1200" stroke-linecap="round" stroke-linejoin="round" fill="#00FFFF"/>
        <path d="M 43.1132,7.4402 L 42.1899,7.4402 L 42.1899,7.9563 L 43.1132,7.9563 L 43.1132,7.4402 Z" stroke="#000000" stroke-width="0.1200" stroke-linecap="round" stroke-linejoin="round" fill="#83FF00"/>
        <path d="M 47.2184,7.4402 L 46.2951,7.4402 L 46.2951,7.9563 L 47.2184,7.9563 L 47.2184,7.4402 Z" stroke="#000000" stroke-width="0.1200" stroke-linecap="round" stroke-linejoin="round" fill="#83FF00"/>
        <path d="M 20.5591,7.4402 L 19.6359,7.4402 L 19.6359,7.9563 L 20.5591,7.9563 L 20.5591,7.4402 Z" stroke="#000000" stroke-width="0.1200" stroke-linecap="round" stroke-linejoin="round" fill="#FF0000"/>
        <path d="M 32.3637,7.4402 L 31.4405,7.4402 L 31.4405,7.9563 L 32.3637,7.9563 L 32.3637,7.4402 Z" stroke="#000000" stroke-width="0.1200" stroke-linecap="round" stroke-linejoin="round" fill="#83FF00"/>
        <path d="M 24.4995,7.4402 L 23.5762,7.4402 L 23.5762,7.9563 L 24.4995,7.9563 L 24.4995,7.4402 Z" stroke="#000000" stroke-width="0.1200" stroke-linecap="round" stroke-linejoin="round" fill="#83FF00"/>
        <path d="M 28.4234,7.4402 L 27.5001,7.4402 L 27.5001,7.9563 L 28.4234,7.9563 L 28.4234,7.4402 Z" stroke="#000000" stroke-width="0.1200" stroke-linecap="round" stroke-linejoin="round" fill="#FF0000"/>
        <text font-family="Arial" fill="#FFFFFF" style="white-space:pre;" font-weight="400" text-anchor="start" x="34.0784" y="10.8423" font-size="0.1484"><![CDATA[00S]]></text>
        <text font-family="Arial" fill="#FFFFFF" style="white-space:pre;" font-weight="400" text-anchor="start" x="37.5076" y="10.8208" font-size="0.1484"><![CDATA[ACC]]></text>
        <text font-family="Arial" fill="#FFFFFF" style="white-space:pre;" font-weight="400" text-anchor="start" x="35.2654" y="10.8423" font-size="0.1484"><![CDATA[PWR]]></text>
        <text font-family="Arial" fill="#FFFFFF" style="white-space:pre;" font-weight="400" text-anchor="start" x="36.4030" y="10.8423" font-size="0.1484"><![CDATA[STA]]></text>
        <text font-family="Arial" fill="#FFFFFF" style="white-space:pre;" font-weight="400" text-anchor="start" x="40.3434" y="9.1235" font-size="0.1978"><![CDATA[1]]></text>
        <text font-family="Arial" fill="#FFFFFF" style="white-space:pre;" font-weight="400" text-anchor="start" x="41.5469" y="9.1235" font-size="0.1978"><![CDATA[2]]></text>
        <text font-family="Arial" fill="#FFFFFF" style="white-space:pre;" font-weight="400" text-anchor="start" x="40.7720" y="8.6934" font-size="0.1978"><![CDATA[SFP+]]></text>
        <text font-family="Arial" fill="#FFFFFF" style="white-space:pre;" font-weight="400" text-anchor="start" x="53.0383" y="9.9621" font-size="0.1978"><![CDATA[IPM]]></text>
        <ellipse cx="91.8851" cy="4.0249" rx="1.4480" ry="1.4398" fill="#999999" stroke="#000000" stroke-width="0.1200" stroke-linecap="round" stroke-linejoin="round"/>
        <ellipse cx="91.8851" cy="4.0249" rx="1.4480" ry="1.4398" fill="none" stroke="#000000" stroke-width="0.1200" stroke-linecap="round" stroke-linejoin="round"/>
        <ellipse cx="91.8851" cy="4.0249" rx="1.0860" ry="1.0798" fill="#666666" stroke="#000000" stroke-width="0.1200" stroke-linecap="round" stroke-linejoin="round"/>
        <ellipse cx="91.8851" cy="4.0249" rx="1.0860" ry="1.0798" fill="none" stroke="#000000" stroke-width="0.1200" stroke-linecap="round" stroke-linejoin="round"/>
        <ellipse cx="91.8851" cy="4.0249" rx="0.9873" ry="0.9817" fill="#7F7F7F" stroke="#000000" stroke-width="0.1200" stroke-linecap="round" stroke-linejoin="round"/>
        <ellipse cx="91.8851" cy="4.0249" rx="0.9873" ry="0.9817" fill="none" stroke="#7F7F7F" stroke-width="0.1200" stroke-linecap="round" stroke-linejoin="round"/>
        <path d="M 91.1282,3.9267 L 91.0953,3.9267 L 91.0623,3.9594 L 91.0623,3.9922 L 91.0294,3.9922 L 91.0294,4.1885 L 91.0623,4.1885 L 91.0623,4.2212 L 91.0953,4.2539 L 91.7864,4.2539 L 91.7864,4.9738 L 91.8193,4.9738 L 91.8193,5.0066 L 91.8522,5.0066 L 91.8522,5.0393 L 92.0497,5.0393 L 92.0497,5.0066 L 92.0826,5.0066 L 92.0826,4.9738 L 92.1155,4.9738 L 92.1155,4.2539 L 92.8395,4.2539 L 92.8395,4.2212 L 92.8724,4.2212 L 92.8724,4.1885 L 92.9053,4.1885 L 92.9053,3.9922 L 92.8724,3.9922 L 92.8724,3.9594 L 92.8395,3.9594 L 92.8395,3.9267 L 92.1155,3.9267 L 92.1155,3.2395 L 92.0826,3.2068 L 92.0497,3.2068 L 92.0497,3.1741 L 91.8522,3.1741 L 91.8522,3.2068 L 91.8193,3.2068 L 91.7864,3.2395 L 91.7864,3.9267 L 91.1611,3.9267 L 91.1282,3.9267 Z" stroke="#161616" stroke-width="0.1200" stroke-linecap="round" stroke-linejoin="round" fill="#494949"/>
        <path d="M 90.9965,4.0249 L 90.9965,4.1885 L 91.0294,4.2212 L 91.0623,4.2212 L 91.0623,4.2539 L 91.7864,4.2539 L 91.7864,5.0066 L 91.8193,5.0393 L 91.8522,5.0393 L 91.8522,5.0720 L 91.9509,5.0720 L 91.9838,5.0720 " stroke="#BFBFBF" stroke-width="0.1200" stroke-linecap="round" stroke-linejoin="round" fill="none"/>
        <path d="M 91.7864,3.2395 L 91.7864,3.8940 L 91.7864,3.9267 " stroke="#BFBFBF" stroke-width="0.1200" stroke-linecap="round" stroke-linejoin="round" fill="none"/>
        <ellipse cx="1.8430" cy="4.0249" rx="1.4480" ry="1.4398" fill="#999999" stroke="#000000" stroke-width="0.1200" stroke-linecap="round" stroke-linejoin="round"/>
        <ellipse cx="1.8430" cy="4.0249" rx="1.4480" ry="1.4398" fill="none" stroke="#000000" stroke-width="0.1200" stroke-linecap="round" stroke-linejoin="round"/>
        <ellipse cx="1.8430" cy="4.0249" rx="1.0860" ry="1.0798" fill="#666666" stroke="#000000" stroke-width="0.1200" stroke-linecap="round" stroke-linejoin="round"/>
        <ellipse cx="1.8430" cy="4.0249" rx="1.0860" ry="1.0798" fill="none" stroke="#000000" stroke-width="0.1200" stroke-linecap="round" stroke-linejoin="round"/>
        <ellipse cx="1.8430" cy="4.0249" rx="0.9873" ry="0.9817" fill="#7F7F7F" stroke="#000000" stroke-width="0.1200" stroke-linecap="round" stroke-linejoin="round"/>
        <ellipse cx="1.8430" cy="4.0249" rx="0.9873" ry="0.9817" fill="none" stroke="#7F7F7F" stroke-width="0.1200" stroke-linecap="round" stroke-linejoin="round"/>
        <path d="M 1.0860,3.9267 L 1.0531,3.9267 L 1.0202,3.9594 L 1.0202,3.9922 L 0.9873,3.9922 L 0.9873,4.1885 L 1.0202,4.1885 L 1.0202,4.2212 L 1.0531,4.2539 L 1.7442,4.2539 L 1.7442,4.9738 L 1.7771,4.9738 L 1.7771,5.0066 L 1.8101,5.0066 L 1.8101,5.0393 L 2.0075,5.0393 L 2.0075,5.0066 L 2.0404,5.0066 L 2.0404,4.9738 L 2.0733,4.9738 L 2.0733,4.2539 L 2.7974,4.2539 L 2.7974,4.2212 L 2.8303,4.2212 L 2.8303,4.1885 L 2.8632,4.1885 L 2.8632,3.9922 L 2.8303,3.9922 L 2.8303,3.9594 L 2.7974,3.9594 L 2.7974,3.9267 L 2.0733,3.9267 L 2.0733,3.2395 L 2.0404,3.2068 L 2.0075,3.2068 L 2.0075,3.1741 L 1.8101,3.1741 L 1.8101,3.2068 L 1.7771,3.2068 L 1.7442,3.2395 L 1.7442,3.9267 L 1.1189,3.9267 L 1.0860,3.9267 Z" stroke="#161616" stroke-width="0.1200" stroke-linecap="round" stroke-linejoin="round" fill="#494949"/>
        <path d="M 0.9544,4.0249 L 0.9544,4.1885 L 0.9873,4.2212 L 1.0202,4.2212 L 1.0202,4.2539 L 1.7442,4.2539 L 1.7442,5.0066 L 1.7771,5.0393 L 1.8101,5.0393 L 1.8101,5.0720 L 1.9088,5.0720 L 1.9417,5.0720 " stroke="#BFBFBF" stroke-width="0.1200" stroke-linecap="round" stroke-linejoin="round" fill="none"/>
        <path d="M 1.7442,3.2395 L 1.7442,3.8940 L 1.7442,3.9267 " stroke="#BFBFBF" stroke-width="0.1200" stroke-linecap="round" stroke-linejoin="round" fill="none"/>
        <text font-family="Arial" fill="#FFFFFF" style="white-space:pre;" font-weight="700" text-anchor="start" x="52.6562" y="4.5798" font-size="0.3620"><![CDATA[FortiGate 5001C]]></text>
        <path d="M 25.8499,2.8503 L 20.6404,2.8503 L 20.6404,6.7449 L 25.8499,6.7449 L 25.8499,2.8503 Z" stroke="#0A0A0A" stroke-width="0.1200" stroke-linecap="round" stroke-linejoin="round" fill="#FFFFFF"/>
        <path d="M 31.3672,2.8503 L 26.1576,2.8503 L 26.1576,6.7449 L 31.3672,6.7449 L 31.3672,2.8503 Z" stroke="#0A0A0A" stroke-width="0.1200" stroke-linecap="round" stroke-linejoin="round" fill="#FFFFFF"/>
        <path d="M 38.1154,2.8503 L 32.9059,2.8503 L 32.9059,6.7449 L 38.1154,6.7449 L 38.1154,2.8503 Z" stroke="#0A0A0A" stroke-width="0.1200" stroke-linecap="round" stroke-linejoin="round" fill="#FFFFFF"/>
        <text font-family="Arial" fill="#FFFFFF" style="white-space:pre;" font-weight="400" text-anchor="start" x="37.5439" y="3.4813" font-size="0.1209"><![CDATA[MGMT1]]></text>
        <text font-family="Arial" fill="#FFFFFF" style="white-space:pre;" font-weight="400" text-anchor="start" x="38.6210" y="3.4813" font-size="0.1209"><![CDATA[MGMT2]]></text>
        <text font-family="Arial" fill="#FFFFFF" style="white-space:pre;" font-weight="400" text-anchor="start" x="39.8629" y="3.4813" font-size="0.1209"><![CDATA[CONSOLE]]></text>
        <path d="M 11.5731,5.3199 L 10.5764,5.3199 L 10.5764,6.3114 L 11.5731,6.3114 L 11.5731,5.3199 Z" stroke="#000000" stroke-width="0.1200" stroke-linecap="round" stroke-linejoin="round" fill="#000000"/>
        <path d="M 11.5019,5.3907 L 10.6476,5.3907 L 10.6476,6.2406 L 11.5019,6.2406 L 11.5019,5.3907 Z" stroke="#000000" stroke-width="0.1200" stroke-linecap="round" stroke-linejoin="round" fill="#494949"/>
        <ellipse cx="9.0657" cy="5.7716" rx="0.3499" ry="0.3479" fill="#000000" stroke="#000000" stroke-width="0.1200" stroke-linecap="round" stroke-linejoin="round"/>
        <ellipse cx="9.0657" cy="5.7716" rx="0.3499" ry="0.3479" fill="none" stroke="#000000" stroke-width="0.1200" stroke-linecap="round" stroke-linejoin="round"/>
        <ellipse cx="9.0606" cy="5.7665" rx="0.3139" ry="0.3121" fill="#494949" stroke="#000000" stroke-width="0.1200" stroke-linecap="round" stroke-linejoin="round"/>
        <ellipse cx="9.0606" cy="5.7665" rx="0.3139" ry="0.3121" fill="none" stroke="#000000" stroke-width="0.1200" stroke-linecap="round" stroke-linejoin="round"/>
        <path d="M 18.1128,6.4189 L 18.1128,6.4608 L 18.1269,6.4608 L 18.1269,6.4888 L 18.1410,6.5028 L 18.1410,6.5168 L 18.1550,6.5168 L 18.1550,6.5308 L 18.1691,6.5308 L 18.1691,6.5448 L 18.1832,6.5448 L 18.1972,6.5587 L 18.2253,6.5587 L 18.2253,6.5727 L 19.6035,6.5727 L 19.6035,6.5587 L 19.6316,6.5587 L 19.6457,6.5448 L 19.6598,6.5448 L 19.6598,6.5308 L 19.6738,6.5308 L 19.6738,6.5168 L 19.6879,6.5168 L 19.6879,6.5028 L 19.7019,6.4888 L 19.7019,6.4608 L 19.7160,6.4608 L 19.7160,2.9647 L 19.7019,2.9647 L 19.7019,2.9367 L 19.6879,2.9228 L 19.6879,2.9088 L 19.6738,2.9088 L 19.6738,2.8948 L 19.6598,2.8948 L 19.6598,2.8808 L 19.6457,2.8808 L 19.6316,2.8668 L 19.6035,2.8668 L 19.6035,2.8528 L 18.2253,2.8528 L 18.2253,2.8668 L 18.1972,2.8668 L 18.1832,2.8808 L 18.1691,2.8808 L 18.1691,2.8948 L 18.1550,2.8948 L 18.1550,2.9088 L 18.1410,2.9088 L 18.1410,2.9228 L 18.1269,2.9367 L 18.1269,2.9647 L 18.1128,2.9647 L 18.1128,6.4049 L 18.1128,6.4189 Z" stroke="#000000" stroke-width="0.1200" stroke-linecap="round" stroke-linejoin="round" fill="#BFBFBF"/>
        <path d="M 18.2394,6.3630 L 18.2394,6.4049 L 18.2535,6.4049 L 18.2535,6.4189 L 18.2675,6.4329 L 18.2816,6.4329 L 18.2816,6.4469 L 19.5473,6.4469 L 19.5613,6.4329 L 19.5754,6.4329 L 19.5754,6.4189 L 19.5894,6.4189 L 19.5894,6.4049 L 19.6035,6.3909 L 19.6035,3.0207 L 19.5894,3.0207 L 19.5894,3.0067 L 19.5754,3.0067 L 19.5754,2.9927 L 19.5613,2.9927 L 19.5473,2.9787 L 18.2816,2.9787 L 18.2816,2.9927 L 18.2675,2.9927 L 18.2535,3.0067 L 18.2535,3.0207 L 18.2394,3.0207 L 18.2394,6.3490 L 18.2394,6.3630 Z" stroke="#F7DDB9" stroke-width="0.1200" stroke-linecap="round" stroke-linejoin="round" fill="#000000"/>
        <path d="M 18.9426,5.6218 L 18.9426,5.9294 L 18.8722,5.9294 L 18.8722,5.6218 L 18.9426,5.6218 Z" stroke="#000000" stroke-width="0.1200" stroke-linecap="round" stroke-linejoin="round" fill="#E2E2CC"/>
        <path d="M 18.9426,4.9226 L 18.9426,5.2302 L 18.8722,5.2302 L 18.8722,4.9226 L 18.9426,4.9226 Z" stroke="#000000" stroke-width="0.1200" stroke-linecap="round" stroke-linejoin="round" fill="#E2E2CC"/>
        <path d="M 18.9426,4.2373 L 18.9426,4.5450 L 18.8722,4.5450 L 18.8722,4.2373 L 18.9426,4.2373 Z" stroke="#000000" stroke-width="0.1200" stroke-linecap="round" stroke-linejoin="round" fill="#E2E2CC"/>
        <path d="M 18.9426,3.5241 L 18.9426,3.8318 L 18.8722,3.8318 L 18.8722,3.5241 L 18.9426,3.5241 Z" stroke="#000000" stroke-width="0.1200" stroke-linecap="round" stroke-linejoin="round" fill="#E2E2CC"/>
        <path d="M 18.5066,3.1885 L 18.4785,3.1885 L 18.4504,3.2025 L 18.4363,3.2304 L 18.4363,6.1951 L 18.4504,6.2231 L 18.4785,6.2371 L 18.8300,6.2371 L 18.8582,6.2231 L 18.8722,6.1951 L 18.8722,3.2304 L 18.8582,3.2025 L 18.8300,3.1885 L 18.8019,3.1885 L 18.5066,3.1885 Z" stroke="#000000" stroke-width="0.1200" stroke-linecap="round" stroke-linejoin="round" fill="#7F7F7F"/>
        <path d="M 18.6472,3.3003 L 18.5910,3.3143 L 18.5347,3.3703 L 18.5207,3.4262 L 18.5207,5.9994 L 18.5347,6.0553 L 18.5910,6.1112 L 18.6472,6.1252 L 18.7035,6.1112 L 18.7597,6.0553 L 18.7738,5.9994 L 18.7738,3.4262 L 18.7597,3.3703 L 18.7035,3.3143 L 18.6472,3.3003 Z" stroke="#999999" stroke-width="0.1200" stroke-linecap="round" stroke-linejoin="round" fill="#999999"/>
        <path d="M 22.6129,2.9114 L 22.6129,3.0632 L 22.3879,3.0632 L 22.3879,3.4909 L 21.4457,3.4909 L 21.4457,3.5323 L 21.1504,3.5323 L 21.1504,3.0632 L 21.2067,3.0632 L 21.2067,3.4909 L 21.4457,3.4909 L 21.4457,4.4430 L 21.5442,4.4430 L 21.5442,4.9397 L 21.4457,4.9397 L 21.4457,6.0160 L 25.0458,6.0160 L 25.0458,4.9397 L 24.9474,4.9397 L 24.9474,4.4430 L 25.0458,4.4430 L 25.0458,3.4909 L 25.2849,3.4909 L 25.2849,3.0632 L 25.3411,3.0632 L 25.3411,3.5323 L 25.0458,3.5323 L 25.0458,3.4909 L 24.1036,3.4909 L 24.1036,3.0632 L 23.8786,3.0632 L 23.8786,2.9114 L 22.6129,2.9114 Z" stroke="#000000" stroke-width="0.1200" stroke-linecap="round" stroke-linejoin="round" fill="#000000"/>
        <path d="M 22.3879,3.0770 L 21.2067,3.0770 L 21.2067,3.5047 L 22.3879,3.5047 L 22.3879,3.0770 Z" stroke="#494949" stroke-width="0.1200" stroke-linecap="round" stroke-linejoin="round" fill="#000000"/>
        <path d="M 25.2849,3.0770 L 24.1036,3.0770 L 24.1036,3.5047 L 25.2849,3.5047 L 25.2849,3.0770 Z" stroke="#494949" stroke-width="0.1200" stroke-linecap="round" stroke-linejoin="round" fill="#000000"/>
        <path d="M 28.1255,2.9114 L 28.1255,3.0632 L 27.9005,3.0632 L 27.9005,3.4909 L 26.9583,3.4909 L 26.9583,3.5323 L 26.6630,3.5323 L 26.6630,3.0632 L 26.7193,3.0632 L 26.7193,3.4909 L 26.9583,3.4909 L 26.9583,4.4430 L 27.0568,4.4430 L 27.0568,4.9397 L 26.9583,4.9397 L 26.9583,6.0160 L 30.5584,6.0160 L 30.5584,4.9397 L 30.4600,4.9397 L 30.4600,4.4430 L 30.5584,4.4430 L 30.5584,3.4909 L 30.7975,3.4909 L 30.7975,3.0632 L 30.8537,3.0632 L 30.8537,3.5323 L 30.5584,3.5323 L 30.5584,3.4909 L 29.6162,3.4909 L 29.6162,3.0632 L 29.3912,3.0632 L 29.3912,2.9114 L 28.1255,2.9114 Z" stroke="#000000" stroke-width="0.1200" stroke-linecap="round" stroke-linejoin="round" fill="#000000"/>
        <path d="M 27.9005,3.0770 L 26.7193,3.0770 L 26.7193,3.5047 L 27.9005,3.5047 L 27.9005,3.0770 Z" stroke="#494949" stroke-width="0.1200" stroke-linecap="round" stroke-linejoin="round" fill="#000000"/>
        <path d="M 30.7975,3.0770 L 29.6162,3.0770 L 29.6162,3.5047 L 30.7975,3.5047 L 30.7975,3.0770 Z" stroke="#494949" stroke-width="0.1200" stroke-linecap="round" stroke-linejoin="round" fill="#000000"/>
        <path d="M 33.6989,6.0711 L 33.6989,3.9600 L 34.5920,3.9600 L 34.5920,3.4633 L 34.9548,3.4633 L 34.9548,2.9666 L 36.0153,2.9666 L 36.0153,3.4633 L 36.3781,3.4633 L 36.3781,3.9600 L 37.2712,3.9600 L 37.2712,6.0711 L 33.6989,6.0711 Z" stroke="#161616" stroke-width="0.1200" stroke-linecap="round" stroke-linejoin="round" fill="#000000"/>
        <path d="M 44.5227,6.6258 L 40.5570,6.6258 L 40.5570,3.9672 L 44.5227,3.9672 L 44.5227,6.6258 Z" stroke="#000000" stroke-width="0.1200" stroke-linecap="round" stroke-linejoin="round" fill="none"/>
        <path d="M 48.6291,6.6258 L 44.6634,6.6258 L 44.6634,3.9672 L 48.6291,3.9672 L 48.6291,6.6258 Z" stroke="#000000" stroke-width="0.1200" stroke-linecap="round" stroke-linejoin="round" fill="none"/>
        <path d="M 22.1871,3.1385 L 21.4267,3.1385 L 21.4267,3.4484 L 22.1871,3.4484 L 22.1871,3.1385 Z" stroke="#000000" stroke-width="0.1200" stroke-linecap="round" stroke-linejoin="round" fill="#83FF00"/>
        <path d="M 25.0657,3.1385 L 24.3054,3.1385 L 24.3054,3.4484 L 25.0657,3.4484 L 25.0657,3.1385 Z" stroke="#000000" stroke-width="0.1200" stroke-linecap="round" stroke-linejoin="round" fill="#FFFF00"/>
        <path d="M 27.7000,3.1385 L 26.9396,3.1385 L 26.9396,3.4484 L 27.7000,3.4484 L 27.7000,3.1385 Z" stroke="#000000" stroke-width="0.1200" stroke-linecap="round" stroke-linejoin="round" fill="#83FF00"/>
        <path d="M 30.5786,3.1385 L 29.8182,3.1385 L 29.8182,3.4484 L 30.5786,3.4484 L 30.5786,3.1385 Z" stroke="#000000" stroke-width="0.1200" stroke-linecap="round" stroke-linejoin="round" fill="#FFFF00"/>
        <path d="M 84.6044,1.2171 L 84.5906,1.2171 L 84.5837,1.2111 L 84.5769,1.2111 L 84.5562,1.1930 L 84.5562,1.1870 L 84.5493,1.1810 L 84.5493,0.4820 L 84.5562,0.4760 L 84.5562,0.4700 L 84.5631,0.4640 L 84.5700,0.4640 L 84.5700,0.4579 L 84.5769,0.4519 L 84.5837,0.4519 L 84.5906,0.4459 L 85.5259,0.4459 L 85.5328,0.4519 L 85.5397,0.4519 L 85.5603,0.4700 L 85.5603,0.4760 L 85.5672,0.4820 L 85.5672,0.6206 L 85.5603,0.6206 L 85.5603,0.6146 L 85.5534,0.6146 L 85.5534,0.6086 L 85.5465,0.6086 L 85.5465,0.6025 L 85.5328,0.6025 L 85.5328,0.5965 L 84.7763,0.5965 L 84.7763,0.6025 L 84.7625,0.6025 L 84.7625,0.6086 L 84.7557,0.6086 L 84.7557,0.6206 L 84.7488,0.6206 L 84.7488,1.1930 L 84.7557,1.1930 L 84.7557,1.2051 L 84.7625,1.2051 L 84.7625,1.2111 L 84.7694,1.2111 L 84.7694,1.2171 L 84.6112,1.2171 L 84.6044,1.2171 Z" stroke="#FFFFFF" stroke-width="0.1200" stroke-linecap="round" stroke-linejoin="round" fill="#FFFFFF"/>
        <path d="M 85.4984,0.7712 L 84.8176,0.7712 L 84.8176,0.7652 L 84.8038,0.7652 L 84.8038,0.7592 L 84.7969,0.7592 L 84.7969,0.7471 L 84.7900,0.7471 L 84.7900,0.8978 L 84.7969,0.8978 L 84.7969,0.9098 L 84.8038,0.9098 L 84.8038,0.9159 L 84.8176,0.9159 L 84.8176,0.9219 L 85.5122,0.9219 L 85.5259,0.9098 L 85.5328,0.9098 L 85.5465,0.8978 L 85.5465,0.8918 L 85.5534,0.8857 L 85.5534,0.8797 L 85.5603,0.8737 L 85.5603,0.8616 L 85.5672,0.8556 L 85.5672,0.8375 L 85.5603,0.8315 L 85.5603,0.8134 L 85.5465,0.8014 L 85.5465,0.7953 L 85.5397,0.7893 L 85.5328,0.7893 L 85.5328,0.7833 L 85.5259,0.7833 L 85.5190,0.7773 L 85.5122,0.7773 L 85.5053,0.7712 L 85.4984,0.7712 Z" stroke="#FFFFFF" stroke-width="0.1200" stroke-linecap="round" stroke-linejoin="round" fill="#FFFFFF"/>
        <path d="M 87.0871,0.9219 L 87.0733,0.9219 L 87.0733,0.9159 L 87.0596,0.9159 L 87.0596,0.9098 L 87.0527,0.9098 L 87.0527,0.8978 L 87.0458,0.8978 L 87.0458,0.7471 L 87.0527,0.7471 L 87.0527,0.7592 L 87.0596,0.7592 L 87.0596,0.7652 L 87.0733,0.7652 L 87.0733,0.7712 L 87.6235,0.7712 L 87.6235,0.5965 L 87.0320,0.5965 L 87.0320,0.6025 L 87.0183,0.6025 L 87.0183,0.6086 L 87.0114,0.6086 L 87.0114,0.6206 L 87.0045,0.6206 L 87.0045,1.1930 L 87.0114,1.1930 L 87.0114,1.2051 L 87.0183,1.2051 L 87.0183,1.2111 L 87.0252,1.2111 L 87.0252,1.2171 L 86.8464,1.2171 L 86.8395,1.2111 L 86.8326,1.2111 L 86.8120,1.1930 L 86.8120,1.1870 L 86.8051,1.1810 L 86.8051,0.4820 L 86.8120,0.4760 L 86.8120,0.4700 L 86.8188,0.4640 L 86.8257,0.4640 L 86.8257,0.4579 L 86.8326,0.4519 L 86.8395,0.4519 L 86.8464,0.4459 L 87.7817,0.4459 L 87.7885,0.4519 L 87.7954,0.4519 L 87.8161,0.4700 L 87.8161,0.4760 L 87.8229,0.4820 L 87.8229,0.8616 L 87.8161,0.8677 L 87.8161,0.8797 L 87.8092,0.8797 L 87.8092,0.8857 L 87.8023,0.8918 L 87.8023,0.8978 L 87.7954,0.8978 L 87.7954,0.9038 L 87.7885,0.9038 L 87.7885,0.9098 L 87.7817,0.9098 L 87.7817,0.9159 L 87.7748,0.9159 L 87.7679,0.9219 L 87.7748,0.9279 L 87.7817,0.9279 L 87.7817,0.9339 L 87.7885,0.9339 L 87.7885,0.9400 L 87.7954,0.9400 L 87.7954,0.9460 L 87.8023,0.9460 L 87.8023,0.9520 L 87.8092,0.9580 L 87.8092,0.9641 L 87.8161,0.9641 L 87.8161,0.9761 L 87.8229,0.9821 L 87.8229,1.1930 L 87.8298,1.1930 L 87.8298,1.2051 L 87.8367,1.2051 L 87.8367,1.2111 L 87.8436,1.2111 L 87.8436,1.2171 L 87.6648,1.2171 L 87.6579,1.2111 L 87.6510,1.2111 L 87.6304,1.1930 L 87.6304,1.1870 L 87.6235,1.1810 L 87.6235,0.9219 L 87.0939,0.9219 L 87.0871,0.9219 Z" stroke="#FFFFFF" stroke-width="0.1200" stroke-linecap="round" stroke-linejoin="round" fill="#FFFFFF"/>
        <path d="M 88.1805,0.5965 L 87.9742,0.5965 L 87.9674,0.5905 L 87.9605,0.5905 L 87.9398,0.5724 L 87.9398,0.5664 L 87.9330,0.5604 L 87.9330,0.4820 L 87.9398,0.4760 L 87.9398,0.4700 L 87.9467,0.4640 L 87.9536,0.4640 L 87.9536,0.4579 L 87.9605,0.4519 L 87.9674,0.4519 L 87.9742,0.4459 L 88.9095,0.4459 L 88.9164,0.4519 L 88.9233,0.4519 L 88.9439,0.4700 L 88.9439,0.4760 L 88.9508,0.4820 L 88.9508,0.6206 L 88.9439,0.6206 L 88.9439,0.6146 L 88.9371,0.6146 L 88.9371,0.6086 L 88.9302,0.6086 L 88.9302,0.6025 L 88.9164,0.6025 L 88.9164,0.5965 L 88.4075,0.5965 L 88.4075,0.6025 L 88.3937,0.6025 L 88.3937,0.6086 L 88.3869,0.6086 L 88.3869,0.6206 L 88.3800,0.6206 L 88.3800,1.1930 L 88.3869,1.1930 L 88.3869,1.2051 L 88.3937,1.2051 L 88.3937,1.2111 L 88.4006,1.2111 L 88.4006,1.2171 L 88.2218,1.2171 L 88.2149,1.2111 L 88.2081,1.2111 L 88.1874,1.1930 L 88.1874,1.1870 L 88.1805,1.1810 L 88.1805,0.6146 L 88.1805,0.5965 Z" stroke="#FFFFFF" stroke-width="0.1200" stroke-linecap="round" stroke-linejoin="round" fill="#FFFFFF"/>
        <path d="M 89.2603,1.1749 L 89.2603,1.1930 L 89.2672,1.1930 L 89.2672,1.2051 L 89.2740,1.2051 L 89.2740,1.2111 L 89.2809,1.2111 L 89.2809,1.2171 L 89.1021,1.2171 L 89.0952,1.2111 L 89.0884,1.2111 L 89.0677,1.1930 L 89.0677,1.1870 L 89.0608,1.1810 L 89.0608,0.4700 L 89.0540,0.4700 L 89.0540,0.4579 L 89.0471,0.4579 L 89.0471,0.4519 L 89.0402,0.4519 L 89.0402,0.4459 L 89.2190,0.4459 L 89.2259,0.4519 L 89.2328,0.4519 L 89.2534,0.4700 L 89.2534,0.4760 L 89.2603,0.4820 L 89.2603,1.1689 L 89.2603,1.1749 Z" stroke="#FFFFFF" stroke-width="0.1200" stroke-linecap="round" stroke-linejoin="round" fill="#FFFFFF"/>
        <path d="M 90.2369,0.5965 L 89.6454,0.5965 L 89.6454,0.6025 L 89.6317,0.6025 L 89.6317,0.6086 L 89.6248,0.6086 L 89.6248,0.6206 L 89.6179,0.6206 L 89.6179,1.1930 L 89.6248,1.1930 L 89.6248,1.2051 L 89.6317,1.2051 L 89.6317,1.2111 L 89.6385,1.2111 L 89.6385,1.2171 L 89.4597,1.2171 L 89.4528,1.2111 L 89.4460,1.2111 L 89.4253,1.1930 L 89.4253,1.1870 L 89.4185,1.1810 L 89.4185,0.4820 L 89.4253,0.4760 L 89.4253,0.4700 L 89.4322,0.4640 L 89.4391,0.4640 L 89.4391,0.4579 L 89.4460,0.4519 L 89.4528,0.4519 L 89.4597,0.4459 L 90.3950,0.4459 L 90.4019,0.4519 L 90.4088,0.4519 L 90.4294,0.4700 L 90.4294,0.4760 L 90.4363,0.4820 L 90.4363,1.1930 L 90.4432,1.1930 L 90.4432,1.2051 L 90.4501,1.2051 L 90.4501,1.2111 L 90.4569,1.2111 L 90.4569,1.2171 L 90.2781,1.2171 L 90.2712,1.2111 L 90.2644,1.2111 L 90.2437,1.1930 L 90.2437,1.1870 L 90.2369,1.1810 L 90.2369,0.6146 L 90.2369,0.5965 Z" stroke="#FFFFFF" stroke-width="0.1200" stroke-linecap="round" stroke-linejoin="round" fill="#FFFFFF"/>
        <path d="M 91.4473,0.7712 L 90.8145,0.7712 L 90.8077,0.7652 L 90.8008,0.7652 L 90.8008,0.7592 L 90.7939,0.7592 L 90.7939,0.7471 L 90.7870,0.7471 L 90.7870,0.8978 L 90.7939,0.8978 L 90.7939,0.9098 L 90.8008,0.9098 L 90.8008,0.9159 L 90.8077,0.9159 L 90.8145,0.9219 L 91.4541,0.9219 L 91.4679,0.9098 L 91.4748,0.9098 L 91.4885,0.8978 L 91.4885,0.8918 L 91.4954,0.8857 L 91.4954,0.8797 L 91.5023,0.8737 L 91.5023,0.8616 L 91.5092,0.8556 L 91.5092,0.8315 L 91.5023,0.8255 L 91.5023,0.8074 L 91.4954,0.8074 L 91.4954,0.8014 L 91.4748,0.7833 L 91.4679,0.7833 L 91.4679,0.7773 L 91.4610,0.7773 L 91.4541,0.7712 L 91.4473,0.7712 Z" stroke="#FFFFFF" stroke-width="0.1200" stroke-linecap="round" stroke-linejoin="round" fill="#FFFFFF"/>
        <path d="M 91.9218,0.5965 L 91.7155,0.5965 L 91.7086,0.5905 L 91.7017,0.5905 L 91.6811,0.5724 L 91.6811,0.5664 L 91.6742,0.5604 L 91.6742,0.4820 L 91.6811,0.4760 L 91.6811,0.4700 L 91.6880,0.4640 L 91.6948,0.4640 L 91.6948,0.4579 L 91.7017,0.4519 L 91.7086,0.4519 L 91.7155,0.4459 L 92.6508,0.4459 L 92.6577,0.4519 L 92.6645,0.4519 L 92.6852,0.4700 L 92.6852,0.4760 L 92.6920,0.4820 L 92.6920,0.6206 L 92.6852,0.6206 L 92.6852,0.6146 L 92.6783,0.6146 L 92.6783,0.6086 L 92.6714,0.6086 L 92.6714,0.6025 L 92.6577,0.6025 L 92.6577,0.5965 L 92.1487,0.5965 L 92.1487,0.6025 L 92.1350,0.6025 L 92.1350,0.6086 L 92.1281,0.6086 L 92.1281,0.6206 L 92.1212,0.6206 L 92.1212,1.1930 L 92.1281,1.1930 L 92.1281,1.2051 L 92.1350,1.2051 L 92.1350,1.2111 L 92.1419,1.2111 L 92.1419,1.2171 L 91.9631,1.2171 L 91.9562,1.2111 L 91.9493,1.2111 L 91.9287,1.1930 L 91.9287,1.1870 L 91.9218,1.1810 L 91.9218,0.6146 L 91.9218,0.5965 Z" stroke="#FFFFFF" stroke-width="0.1200" stroke-linecap="round" stroke-linejoin="round" fill="#FFFFFF"/>
        <path d="M 91.5160,1.0665 L 91.5298,1.0665 L 91.5298,1.0605 L 91.5435,1.0605 L 91.5435,1.0544 L 91.5504,1.0544 L 91.5504,1.0484 L 91.5573,1.0484 L 91.5573,1.0424 L 91.5642,1.0424 L 91.5642,1.1810 L 91.5573,1.1870 L 91.5573,1.1930 L 91.5504,1.1990 L 91.5504,1.2051 L 91.5435,1.2051 L 91.5367,1.2111 L 91.5298,1.2111 L 91.5229,1.2171 L 90.5876,1.2171 L 90.5807,1.2111 L 90.5738,1.2111 L 90.5532,1.1930 L 90.5532,1.1870 L 90.5463,1.1810 L 90.5463,0.4820 L 90.5532,0.4760 L 90.5532,0.4700 L 90.5601,0.4640 L 90.5670,0.4640 L 90.5670,0.4579 L 90.5738,0.4519 L 90.5807,0.4519 L 90.5876,0.4459 L 91.5229,0.4459 L 91.5298,0.4519 L 91.5367,0.4519 L 91.5573,0.4700 L 91.5573,0.4760 L 91.5642,0.4820 L 91.5642,0.6206 L 91.5573,0.6206 L 91.5573,0.6146 L 91.5504,0.6146 L 91.5504,0.6086 L 91.5435,0.6086 L 91.5435,0.6025 L 91.5298,0.6025 L 91.5298,0.5965 L 90.7733,0.5965 L 90.7733,0.6025 L 90.7595,0.6025 L 90.7595,0.6086 L 90.7527,0.6086 L 90.7527,0.6206 L 90.7458,0.6206 L 90.7458,1.0665 L 91.5092,1.0665 L 91.5160,1.0665 Z" stroke="#FFFFFF" stroke-width="0.1200" stroke-linecap="round" stroke-linejoin="round" fill="#FFFFFF"/>
        <path d="M 86.0211,0.9942 L 86.0211,1.2171 L 86.3512,1.2171 L 86.3512,0.9942 L 86.0211,0.9942 Z" stroke="#FFFFFF" stroke-width="0.1200" stroke-linecap="round" stroke-linejoin="round" fill="#FFFFFF"/>
        <path d="M 85.6772,0.7230 L 85.9592,0.7230 L 85.9592,0.9400 L 85.6772,0.9400 L 85.6772,0.7230 Z" stroke="#FFFFFF" stroke-width="0.1200" stroke-linecap="round" stroke-linejoin="round" fill="#FFFFFF"/>
        <path d="M 86.4131,0.9942 L 86.4131,1.2171 L 86.5162,1.2171 L 86.5231,1.2111 L 86.5506,1.2111 L 86.5575,1.2051 L 86.5713,1.2051 L 86.5850,1.1990 L 86.5919,1.1930 L 86.6057,1.1870 L 86.6194,1.1749 L 86.6332,1.1689 L 86.6400,1.1629 L 86.6469,1.1508 L 86.6538,1.1448 L 86.6813,1.0966 L 86.6813,1.0846 L 86.6882,1.0665 L 86.6882,1.0484 L 86.6951,1.0303 L 86.6951,0.9942 L 86.4200,0.9942 L 86.4131,0.9942 Z" stroke="#FFFFFF" stroke-width="0.1200" stroke-linecap="round" stroke-linejoin="round" fill="#FFFFFF"/>
        <path d="M 86.4131,0.7230 L 86.6951,0.7230 L 86.6951,0.9400 L 86.4131,0.9400 L 86.4131,0.7230 Z" stroke="#FFFFFF" stroke-width="0.1200" stroke-linecap="round" stroke-linejoin="round" fill="#FFFFFF"/>
        <path d="M 85.9592,0.9942 L 85.9592,1.2171 L 85.8560,1.2171 L 85.8491,1.2111 L 85.8216,1.2111 L 85.8148,1.2051 L 85.8010,1.2051 L 85.7873,1.1990 L 85.7804,1.1930 L 85.7666,1.1870 L 85.7529,1.1749 L 85.7391,1.1689 L 85.7322,1.1629 L 85.7254,1.1508 L 85.7185,1.1448 L 85.6910,1.0966 L 85.6910,1.0846 L 85.6841,1.0665 L 85.6841,1.0484 L 85.6772,1.0303 L 85.6772,0.9942 L 85.9523,0.9942 L 85.9592,0.9942 Z" stroke="#FFFFFF" stroke-width="0.1200" stroke-linecap="round" stroke-linejoin="round" fill="#FFFFFF"/>
        <path d="M 86.0211,0.4459 L 86.0211,0.6688 L 86.3512,0.6688 L 86.3512,0.4459 L 86.0211,0.4459 Z" stroke="#FFFFFF" stroke-width="0.1200" stroke-linecap="round" stroke-linejoin="round" fill="#FFFFFF"/>
        <path d="M 86.4131,0.6688 L 86.4131,0.4459 L 86.5162,0.4459 L 86.5231,0.4519 L 86.5506,0.4519 L 86.5575,0.4579 L 86.5713,0.4579 L 86.5850,0.4640 L 86.5919,0.4700 L 86.6057,0.4760 L 86.6194,0.4881 L 86.6332,0.4941 L 86.6400,0.5001 L 86.6469,0.5122 L 86.6538,0.5182 L 86.6813,0.5664 L 86.6813,0.5784 L 86.6882,0.5965 L 86.6882,0.6146 L 86.6951,0.6327 L 86.6951,0.6688 L 86.4200,0.6688 L 86.4131,0.6688 Z" stroke="#FFFFFF" stroke-width="0.1200" stroke-linecap="round" stroke-linejoin="round" fill="#FFFFFF"/>
        <path d="M 85.9592,0.6688 L 85.9592,0.4459 L 85.8560,0.4459 L 85.8491,0.4519 L 85.8216,0.4519 L 85.8148,0.4579 L 85.8010,0.4579 L 85.7873,0.4640 L 85.7804,0.4700 L 85.7666,0.4760 L 85.7529,0.4881 L 85.7391,0.4941 L 85.7322,0.5001 L 85.7254,0.5122 L 85.7185,0.5182 L 85.6910,0.5664 L 85.6910,0.5784 L 85.6841,0.5965 L 85.6841,0.6146 L 85.6772,0.6327 L 85.6772,0.6688 L 85.9523,0.6688 L 85.9592,0.6688 Z" stroke="#FFFFFF" stroke-width="0.1200" stroke-linecap="round" stroke-linejoin="round" fill="#FFFFFF"/>
        <text font-family="Arial" fill="#FFFFFF" style="white-space:pre;" font-weight="400" text-anchor="start" x="96.0550" y="0.7302" font-size="0.0481"><![CDATA[®]]></text>
      </g>
      <!--emf-blob end-->
    </g>
  </g>
</svg>
