<svg xmlns="http://www.w3.org/2000/svg" xmlns:xlink="http://www.w3.org/1999/xlink" version="1.1" width="5.6368000000" height="2.3700000000" viewBox="0 0 101.4613 42.6594">
  <title><![CDATA[FG-5101C]]></title>
  <g transform=" scale(4.000000) ">
    <!--converted by libvisio2svg-->
    <g transform=" translate(3.817300,0.720000) ">
      <!--emf-blob start-->
      <g transform="translate(-0.0000, -0.0000)">
        <path d="M 88.4952,0.4848 L 88.4952,0.9572 L 88.9631,0.9572 " stroke="#000000" stroke-width="0.1200" stroke-linecap="round" stroke-linejoin="round" fill="none"/>
        <path d="M 88.9631,0.4848 L 89.8866,0.4848 " stroke="#000000" stroke-width="0.1200" stroke-linecap="round" stroke-linejoin="round" fill="none"/>
        <path d="M 89.4187,0.4848 L 89.4187,0.9572 " stroke="#000000" stroke-width="0.1200" stroke-linecap="round" stroke-linejoin="round" fill="none"/>
        <path d="M 90.1205,0.4848 L 90.1205,0.9572 " stroke="#000000" stroke-width="0.1200" stroke-linecap="round" stroke-linejoin="round" fill="none"/>
        <path d="M 90.1205,0.4848 L 90.1205,0.9572 " stroke="#000000" stroke-width="0.1200" stroke-linecap="round" stroke-linejoin="round" fill="none"/>
        <path d="M 90.5761,0.9572 L 90.5761,0.4848 L 91.0440,0.9572 L 91.5119,0.4848 L 91.5119,0.9572 " stroke="#000000" stroke-width="0.1200" stroke-linecap="round" stroke-linejoin="round" fill="none"/>
        <path d="M 91.7336,0.9572 L 92.2015,0.4848 L 92.6694,0.9572 " stroke="#000000" stroke-width="0.1200" stroke-linecap="round" stroke-linejoin="round" fill="none"/>
        <path d="M 91.8567,0.8391 L 92.5462,0.8391 " stroke="#000000" stroke-width="0.1200" stroke-linecap="round" stroke-linejoin="round" fill="none"/>
        <path d="M 87.1038,0.9572 L 87.5717,0.4848 L 88.0396,0.9572 " stroke="#000000" stroke-width="0.1200" stroke-linecap="round" stroke-linejoin="round" fill="none"/>
        <path d="M 87.2269,0.8391 L 87.9165,0.8391 " stroke="#000000" stroke-width="0.1200" stroke-linecap="round" stroke-linejoin="round" fill="none"/>
        <path d="M 93.7987,0.0000 L 93.7987,6.8318 L 88.1190,6.8318 L 88.1190,8.2510 L 5.6797,8.2510 L 5.6797,6.8318 L 0.0000,6.8318 L 0.0000,0.0000 L 93.7987,0.0000 Z" stroke="#000000" stroke-width="0.1200" stroke-linecap="round" stroke-linejoin="round" fill="#666666"/>
        <path d="M 83.1142,8.0145 L 92.6037,8.0145 L 92.6037,7.1101 L 83.1142,7.1101 L 83.1142,8.0145 Z" stroke="#000000" stroke-width="0.1200" stroke-linecap="round" stroke-linejoin="round" fill="#BFBFBF"/>
        <path d="M 88.3580,8.1119 L 84.2529,8.1119 L 84.2529,7.0127 L 88.3580,7.0127 L 88.3580,8.1119 Z" stroke="#000000" stroke-width="0.1200" stroke-linecap="round" stroke-linejoin="round" fill="#7F7F7F"/>
        <path d="M 83.1704,8.1119 L 79.0653,8.1119 L 79.0653,7.0127 L 83.1704,7.0127 L 83.1704,8.1119 Z" stroke="#000000" stroke-width="0.1200" stroke-linecap="round" stroke-linejoin="round" fill="#7F7F7F"/>
        <path d="M 10.6845,8.0145 L 1.1950,8.0145 L 1.1950,7.1101 L 10.6845,7.1101 L 10.6845,8.0145 Z" stroke="#000000" stroke-width="0.1200" stroke-linecap="round" stroke-linejoin="round" fill="#BFBFBF"/>
        <path d="M 5.4407,8.1119 L 9.5458,8.1119 L 9.5458,7.0127 L 5.4407,7.0127 L 5.4407,8.1119 Z" stroke="#000000" stroke-width="0.1200" stroke-linecap="round" stroke-linejoin="round" fill="#7F7F7F"/>
        <path d="M 10.6283,8.1119 L 14.7334,8.1119 L 14.7334,7.0127 L 10.6283,7.0127 L 10.6283,8.1119 Z" stroke="#000000" stroke-width="0.1200" stroke-linecap="round" stroke-linejoin="round" fill="#7F7F7F"/>
        <path d="M 50.7233,6.6926 L 46.7588,6.6926 L 46.7588,4.0072 L 50.7233,4.0072 L 50.7233,6.6926 Z" stroke-width="1px" stroke="#333333" fill="#333333"/>
        <path d="M 46.6182,6.6926 L 42.6537,6.6926 L 42.6537,4.0072 L 46.6182,4.0072 L 46.6182,6.6926 Z" stroke-width="1px" stroke="#333333" fill="#333333"/>
        <path d="M 42.5131,6.6926 L 38.5486,6.6926 L 38.5486,4.0072 L 42.5131,4.0072 L 42.5131,6.6926 Z" stroke-width="1px" stroke="#333333" fill="#333333"/>
        <path d="M 38.4080,6.6926 L 34.4435,6.6926 L 34.4435,4.0072 L 38.4080,4.0072 L 38.4080,6.6926 Z" stroke-width="1px" stroke="#333333" fill="#333333"/>
        <path d="M 29.1012,2.4210 L 24.8274,2.4210 L 24.8274,6.2613 L 29.1012,6.2613 L 29.1012,2.4210 Z" stroke="#000000" stroke-width="0.1200" stroke-linecap="round" stroke-linejoin="round" fill="#BFBFBF"/>
        <path d="M 50.5827,2.0036 L 34.4435,2.0036 " stroke="#FFFFFF" stroke-width="0.1200" stroke-linecap="round" stroke-linejoin="round" fill="none"/>
        <path d="M 43.7502,1.6975 L 41.2759,1.6975 L 41.2759,2.3097 L 43.7502,2.3097 L 43.7502,1.6975 Z" stroke="#666666" stroke-width="0.1200" stroke-linecap="round" stroke-linejoin="round" fill="#666666"/>
        <path d="M 23.5903,2.4210 L 14.9302,2.4210 L 14.9302,6.2613 L 23.5903,6.2613 L 23.5903,2.4210 Z" stroke="#000000" stroke-width="0.1200" stroke-linecap="round" stroke-linejoin="round" fill="#BFBFBF"/>
        <ellipse cx="13.6520" cy="2.1010" rx="0.3690" ry="0.3666" fill="#00FF00" stroke="#000000" stroke-width="0.1200" stroke-linecap="round" stroke-linejoin="round"/>
        <ellipse cx="13.6520" cy="2.1010" rx="0.3690" ry="0.3666" fill="none" stroke="#000000" stroke-width="0.1200" stroke-linecap="round" stroke-linejoin="round"/>
        <ellipse cx="13.6520" cy="0.6527" rx="0.3690" ry="0.3666" fill="#00FF00" stroke="#000000" stroke-width="0.1200" stroke-linecap="round" stroke-linejoin="round"/>
        <ellipse cx="13.6520" cy="0.6527" rx="0.3690" ry="0.3666" fill="none" stroke="#000000" stroke-width="0.1200" stroke-linecap="round" stroke-linejoin="round"/>
        <text font-family="Arial" fill="#FFFFFF" style="white-space:pre;" font-weight="400" text-anchor="start" x="17.9266" y="0.7180" font-size="0.1620"><![CDATA[1]]></text>
        <text font-family="Arial" fill="#FFFFFF" style="white-space:pre;" font-weight="400" text-anchor="start" x="17.9266" y="1.1829" font-size="0.1620"><![CDATA[2]]></text>
        <text font-family="Arial" fill="#FFFFFF" style="white-space:pre;" font-weight="400" text-anchor="start" x="18.1786" y="0.7359" font-size="0.1620"><![CDATA[BASE]]></text>
        <text font-family="Arial" fill="#FFFFFF" style="white-space:pre;" font-weight="400" text-anchor="start" x="16.7027" y="0.7359" font-size="0.1620"><![CDATA[FABRIC]]></text>
        <text font-family="Arial" fill="#FFFFFF" style="white-space:pre;" font-weight="400" text-anchor="start" x="21.7963" y="1.1259" font-size="0.1980"><![CDATA[CONSOLE]]></text>
        <text font-family="Arial" fill="#FFFFFF" style="white-space:pre;" font-weight="400" text-anchor="start" x="23.4882" y="1.1259" font-size="0.1980"><![CDATA[USB]]></text>
        <path d="M 88.5513,5.8610 L 87.6824,5.8610 L 87.6824,6.3252 L 88.5513,6.3252 L 88.5513,5.8610 Z" stroke="#000000" stroke-width="0.1200" stroke-linecap="round" stroke-linejoin="round" fill="#83FF00"/>
        <path d="M 36.9306,7.4402 L 36.0073,7.4402 L 36.0073,7.9563 L 36.9306,7.9563 L 36.9306,7.4402 Z" stroke="#000000" stroke-width="0.1200" stroke-linecap="round" stroke-linejoin="round" fill="#83FF00"/>
        <path d="M 49.1803,7.4402 L 48.2571,7.4402 L 48.2571,7.9563 L 49.1803,7.9563 L 49.1803,7.4402 Z" stroke="#000000" stroke-width="0.1200" stroke-linecap="round" stroke-linejoin="round" fill="#83FF00"/>
        <path d="M 41.0358,7.4402 L 40.1126,7.4402 L 40.1126,7.9563 L 41.0358,7.9563 L 41.0358,7.4402 Z" stroke="#000000" stroke-width="0.1200" stroke-linecap="round" stroke-linejoin="round" fill="#83FF00"/>
        <path d="M 45.0751,7.4402 L 44.1518,7.4402 L 44.1518,7.9563 L 45.0751,7.9563 L 45.0751,7.4402 Z" stroke="#000000" stroke-width="0.1200" stroke-linecap="round" stroke-linejoin="round" fill="#83FF00"/>
        <path d="M 20.7240,7.4402 L 19.8007,7.4402 L 19.8007,7.9563 L 20.7240,7.9563 L 20.7240,7.4402 Z" stroke="#000000" stroke-width="0.1200" stroke-linecap="round" stroke-linejoin="round" fill="#83FF00"/>
        <path d="M 30.1710,7.4402 L 29.2477,7.4402 L 29.2477,7.9563 L 30.1710,7.9563 L 30.1710,7.4402 Z" stroke="#000000" stroke-width="0.1200" stroke-linecap="round" stroke-linejoin="round" fill="#83FF00"/>
        <path d="M 23.8730,7.4402 L 22.9497,7.4402 L 22.9497,7.9563 L 23.8730,7.9563 L 23.8730,7.4402 Z" stroke="#000000" stroke-width="0.1200" stroke-linecap="round" stroke-linejoin="round" fill="#83FF00"/>
        <path d="M 27.0220,7.4402 L 26.0987,7.4402 L 26.0987,7.9563 L 27.0220,7.9563 L 27.0220,7.4402 Z" stroke="#000000" stroke-width="0.1200" stroke-linecap="round" stroke-linejoin="round" fill="#83FF00"/>
        <text font-family="Arial" fill="#FFFFFF" style="white-space:pre;" font-weight="400" text-anchor="start" x="32.5616" y="10.6057" font-size="0.1484"><![CDATA[00S]]></text>
        <text font-family="Arial" fill="#FFFFFF" style="white-space:pre;" font-weight="400" text-anchor="start" x="35.2984" y="10.5842" font-size="0.1484"><![CDATA[ACC]]></text>
        <text font-family="Arial" fill="#FFFFFF" style="white-space:pre;" font-weight="400" text-anchor="start" x="33.4354" y="10.6057" font-size="0.1484"><![CDATA[PWR]]></text>
        <text font-family="Arial" fill="#FFFFFF" style="white-space:pre;" font-weight="400" text-anchor="start" x="34.3751" y="10.6057" font-size="0.1484"><![CDATA[STA]]></text>
        <path d="M 12.1395,5.3127 L 11.3641,5.3127 L 11.3641,6.3040 L 12.1395,6.3040 L 12.1395,5.3127 Z" stroke="#000000" stroke-width="0.1200" stroke-linecap="round" stroke-linejoin="round" fill="#333333"/>
        <text font-family="Arial" fill="#FFFFFF" style="white-space:pre;" font-weight="400" text-anchor="start" x="15.3743" y="5.8606" font-size="0.0666"><![CDATA[1]]></text>
        <text font-family="Arial" fill="#FFFFFF" style="white-space:pre;" font-weight="400" text-anchor="start" x="16.6949" y="5.8606" font-size="0.0666"><![CDATA[4]]></text>
        <text font-family="Arial" fill="#FFFFFF" style="white-space:pre;" font-weight="400" text-anchor="start" x="15.8165" y="5.8606" font-size="0.0666"><![CDATA[2]]></text>
        <text font-family="Arial" fill="#FFFFFF" style="white-space:pre;" font-weight="400" text-anchor="start" x="16.2527" y="5.8606" font-size="0.0666"><![CDATA[3]]></text>
        <text font-family="Arial" fill="#FFFFFF" style="white-space:pre;" font-weight="400" text-anchor="start" x="15.9619" y="5.6747" font-size="0.0666"><![CDATA[SFP+]]></text>
        <text font-family="Arial" fill="#FFFFFF" style="white-space:pre;" font-weight="400" text-anchor="start" x="20.9110" y="6.1316" font-size="0.0666"><![CDATA[IPM]]></text>
        <ellipse cx="91.8851" cy="4.0249" rx="1.4480" ry="1.4398" fill="#999999" stroke="#000000" stroke-width="0.1200" stroke-linecap="round" stroke-linejoin="round"/>
        <ellipse cx="91.8851" cy="4.0249" rx="1.4480" ry="1.4398" fill="none" stroke="#000000" stroke-width="0.1200" stroke-linecap="round" stroke-linejoin="round"/>
        <ellipse cx="91.8851" cy="4.0249" rx="1.0860" ry="1.0798" fill="#666666" stroke="#000000" stroke-width="0.1200" stroke-linecap="round" stroke-linejoin="round"/>
        <ellipse cx="91.8851" cy="4.0249" rx="1.0860" ry="1.0798" fill="none" stroke="#000000" stroke-width="0.1200" stroke-linecap="round" stroke-linejoin="round"/>
        <ellipse cx="91.8851" cy="4.0249" rx="0.9873" ry="0.9817" fill="#7F7F7F" stroke="#000000" stroke-width="0.1200" stroke-linecap="round" stroke-linejoin="round"/>
        <ellipse cx="91.8851" cy="4.0249" rx="0.9873" ry="0.9817" fill="none" stroke="#7F7F7F" stroke-width="0.1200" stroke-linecap="round" stroke-linejoin="round"/>
        <path d="M 91.1282,3.9267 L 91.0953,3.9267 L 91.0623,3.9594 L 91.0623,3.9922 L 91.0294,3.9922 L 91.0294,4.1885 L 91.0623,4.1885 L 91.0623,4.2212 L 91.0953,4.2539 L 91.7864,4.2539 L 91.7864,4.9738 L 91.8193,4.9738 L 91.8193,5.0066 L 91.8522,5.0066 L 91.8522,5.0393 L 92.0497,5.0393 L 92.0497,5.0066 L 92.0826,5.0066 L 92.0826,4.9738 L 92.1155,4.9738 L 92.1155,4.2539 L 92.8395,4.2539 L 92.8395,4.2212 L 92.8724,4.2212 L 92.8724,4.1885 L 92.9053,4.1885 L 92.9053,3.9922 L 92.8724,3.9922 L 92.8724,3.9594 L 92.8395,3.9594 L 92.8395,3.9267 L 92.1155,3.9267 L 92.1155,3.2395 L 92.0826,3.2068 L 92.0497,3.2068 L 92.0497,3.1741 L 91.8522,3.1741 L 91.8522,3.2068 L 91.8193,3.2068 L 91.7864,3.2395 L 91.7864,3.9267 L 91.1611,3.9267 L 91.1282,3.9267 Z" stroke="#161616" stroke-width="0.1200" stroke-linecap="round" stroke-linejoin="round" fill="#494949"/>
        <path d="M 90.9965,4.0249 L 90.9965,4.1885 L 91.0294,4.2212 L 91.0623,4.2212 L 91.0623,4.2539 L 91.7864,4.2539 L 91.7864,5.0066 L 91.8193,5.0393 L 91.8522,5.0393 L 91.8522,5.0720 L 91.9509,5.0720 L 91.9838,5.0720 " stroke="#BFBFBF" stroke-width="0.1200" stroke-linecap="round" stroke-linejoin="round" fill="none"/>
        <path d="M 91.7864,3.2395 L 91.7864,3.8940 L 91.7864,3.9267 " stroke="#BFBFBF" stroke-width="0.1200" stroke-linecap="round" stroke-linejoin="round" fill="none"/>
        <ellipse cx="1.8430" cy="4.0249" rx="1.4480" ry="1.4398" fill="#999999" stroke="#000000" stroke-width="0.1200" stroke-linecap="round" stroke-linejoin="round"/>
        <ellipse cx="1.8430" cy="4.0249" rx="1.4480" ry="1.4398" fill="none" stroke="#000000" stroke-width="0.1200" stroke-linecap="round" stroke-linejoin="round"/>
        <ellipse cx="1.8430" cy="4.0249" rx="1.0860" ry="1.0798" fill="#666666" stroke="#000000" stroke-width="0.1200" stroke-linecap="round" stroke-linejoin="round"/>
        <ellipse cx="1.8430" cy="4.0249" rx="1.0860" ry="1.0798" fill="none" stroke="#000000" stroke-width="0.1200" stroke-linecap="round" stroke-linejoin="round"/>
        <ellipse cx="1.8430" cy="4.0249" rx="0.9873" ry="0.9817" fill="#7F7F7F" stroke="#000000" stroke-width="0.1200" stroke-linecap="round" stroke-linejoin="round"/>
        <ellipse cx="1.8430" cy="4.0249" rx="0.9873" ry="0.9817" fill="none" stroke="#7F7F7F" stroke-width="0.1200" stroke-linecap="round" stroke-linejoin="round"/>
        <path d="M 1.0860,3.9267 L 1.0531,3.9267 L 1.0202,3.9594 L 1.0202,3.9922 L 0.9873,3.9922 L 0.9873,4.1885 L 1.0202,4.1885 L 1.0202,4.2212 L 1.0531,4.2539 L 1.7442,4.2539 L 1.7442,4.9738 L 1.7771,4.9738 L 1.7771,5.0066 L 1.8101,5.0066 L 1.8101,5.0393 L 2.0075,5.0393 L 2.0075,5.0066 L 2.0404,5.0066 L 2.0404,4.9738 L 2.0733,4.9738 L 2.0733,4.2539 L 2.7974,4.2539 L 2.7974,4.2212 L 2.8303,4.2212 L 2.8303,4.1885 L 2.8632,4.1885 L 2.8632,3.9922 L 2.8303,3.9922 L 2.8303,3.9594 L 2.7974,3.9594 L 2.7974,3.9267 L 2.0733,3.9267 L 2.0733,3.2395 L 2.0404,3.2068 L 2.0075,3.2068 L 2.0075,3.1741 L 1.8101,3.1741 L 1.8101,3.2068 L 1.7771,3.2068 L 1.7442,3.2395 L 1.7442,3.9267 L 1.1189,3.9267 L 1.0860,3.9267 Z" stroke="#161616" stroke-width="0.1200" stroke-linecap="round" stroke-linejoin="round" fill="#494949"/>
        <path d="M 0.9544,4.0249 L 0.9544,4.1885 L 0.9873,4.2212 L 1.0202,4.2212 L 1.0202,4.2539 L 1.7442,4.2539 L 1.7442,5.0066 L 1.7771,5.0393 L 1.8101,5.0393 L 1.8101,5.0720 L 1.9088,5.0720 L 1.9417,5.0720 " stroke="#BFBFBF" stroke-width="0.1200" stroke-linecap="round" stroke-linejoin="round" fill="none"/>
        <path d="M 1.7442,3.2395 L 1.7442,3.8940 L 1.7442,3.9267 " stroke="#BFBFBF" stroke-width="0.1200" stroke-linecap="round" stroke-linejoin="round" fill="none"/>
        <text font-family="Arial" fill="#FFFFFF" style="white-space:pre;" font-weight="700" text-anchor="start" x="52.4258" y="4.0235" font-size="0.3620"><![CDATA[FortiGate 5101C]]></text>
        <path d="M 87.0589,0.9983 L 87.0492,0.9983 L 87.0444,0.9940 L 87.0395,0.9940 L 87.0250,0.9811 L 87.0250,0.9768 L 87.0202,0.9725 L 87.0202,0.4733 L 87.0250,0.4690 L 87.0250,0.4647 L 87.0299,0.4604 L 87.0347,0.4604 L 87.0347,0.4561 L 87.0395,0.4518 L 87.0444,0.4518 L 87.0492,0.4475 L 87.7071,0.4475 L 87.7120,0.4518 L 87.7168,0.4518 L 87.7313,0.4647 L 87.7313,0.4690 L 87.7362,0.4733 L 87.7362,0.5723 L 87.7313,0.5723 L 87.7313,0.5680 L 87.7265,0.5680 L 87.7265,0.5637 L 87.7216,0.5637 L 87.7216,0.5594 L 87.7120,0.5594 L 87.7120,0.5551 L 87.1798,0.5551 L 87.1798,0.5594 L 87.1702,0.5594 L 87.1702,0.5637 L 87.1653,0.5637 L 87.1653,0.5723 L 87.1605,0.5723 L 87.1605,0.9811 L 87.1653,0.9811 L 87.1653,0.9897 L 87.1702,0.9897 L 87.1702,0.9940 L 87.1750,0.9940 L 87.1750,0.9983 L 87.0637,0.9983 L 87.0589,0.9983 Z" stroke="#FFFFFF" stroke-width="0.1200" stroke-linecap="round" stroke-linejoin="round" fill="#FFFFFF"/>
        <path d="M 87.6878,0.6799 L 87.2089,0.6799 L 87.2089,0.6756 L 87.1992,0.6756 L 87.1992,0.6713 L 87.1943,0.6713 L 87.1943,0.6627 L 87.1895,0.6627 L 87.1895,0.7702 L 87.1943,0.7702 L 87.1943,0.7788 L 87.1992,0.7788 L 87.1992,0.7831 L 87.2089,0.7831 L 87.2089,0.7874 L 87.6975,0.7874 L 87.7071,0.7788 L 87.7120,0.7788 L 87.7216,0.7702 L 87.7216,0.7659 L 87.7265,0.7616 L 87.7265,0.7573 L 87.7313,0.7530 L 87.7313,0.7444 L 87.7362,0.7401 L 87.7362,0.7272 L 87.7313,0.7229 L 87.7313,0.7100 L 87.7216,0.7014 L 87.7216,0.6971 L 87.7168,0.6928 L 87.7120,0.6928 L 87.7120,0.6885 L 87.7071,0.6885 L 87.7023,0.6842 L 87.6975,0.6842 L 87.6926,0.6799 L 87.6878,0.6799 Z" stroke="#FFFFFF" stroke-width="0.1200" stroke-linecap="round" stroke-linejoin="round" fill="#FFFFFF"/>
        <path d="M 88.8053,0.7874 L 88.7956,0.7874 L 88.7956,0.7831 L 88.7859,0.7831 L 88.7859,0.7788 L 88.7811,0.7788 L 88.7811,0.7702 L 88.7763,0.7702 L 88.7763,0.6627 L 88.7811,0.6627 L 88.7811,0.6713 L 88.7859,0.6713 L 88.7859,0.6756 L 88.7956,0.6756 L 88.7956,0.6799 L 89.1826,0.6799 L 89.1826,0.5551 L 88.7666,0.5551 L 88.7666,0.5594 L 88.7569,0.5594 L 88.7569,0.5637 L 88.7521,0.5637 L 88.7521,0.5723 L 88.7472,0.5723 L 88.7472,0.9811 L 88.7521,0.9811 L 88.7521,0.9897 L 88.7569,0.9897 L 88.7569,0.9940 L 88.7617,0.9940 L 88.7617,0.9983 L 88.6360,0.9983 L 88.6311,0.9940 L 88.6263,0.9940 L 88.6118,0.9811 L 88.6118,0.9768 L 88.6069,0.9725 L 88.6069,0.4733 L 88.6118,0.4690 L 88.6118,0.4647 L 88.6166,0.4604 L 88.6215,0.4604 L 88.6215,0.4561 L 88.6263,0.4518 L 88.6311,0.4518 L 88.6360,0.4475 L 89.2939,0.4475 L 89.2987,0.4518 L 89.3036,0.4518 L 89.3181,0.4647 L 89.3181,0.4690 L 89.3229,0.4733 L 89.3229,0.7444 L 89.3181,0.7487 L 89.3181,0.7573 L 89.3132,0.7573 L 89.3132,0.7616 L 89.3084,0.7659 L 89.3084,0.7702 L 89.3036,0.7702 L 89.3036,0.7745 L 89.2987,0.7745 L 89.2987,0.7788 L 89.2939,0.7788 L 89.2939,0.7831 L 89.2891,0.7831 L 89.2842,0.7874 L 89.2891,0.7917 L 89.2939,0.7917 L 89.2939,0.7960 L 89.2987,0.7960 L 89.2987,0.8003 L 89.3036,0.8003 L 89.3036,0.8046 L 89.3084,0.8046 L 89.3084,0.8090 L 89.3132,0.8133 L 89.3132,0.8176 L 89.3181,0.8176 L 89.3181,0.8262 L 89.3229,0.8305 L 89.3229,0.9811 L 89.3278,0.9811 L 89.3278,0.9897 L 89.3326,0.9897 L 89.3326,0.9940 L 89.3374,0.9940 L 89.3374,0.9983 L 89.2117,0.9983 L 89.2068,0.9940 L 89.2020,0.9940 L 89.1875,0.9811 L 89.1875,0.9768 L 89.1826,0.9725 L 89.1826,0.7874 L 88.8101,0.7874 L 88.8053,0.7874 Z" stroke="#FFFFFF" stroke-width="0.1200" stroke-linecap="round" stroke-linejoin="round" fill="#FFFFFF"/>
        <path d="M 89.5745,0.5551 L 89.4293,0.5551 L 89.4245,0.5508 L 89.4197,0.5508 L 89.4052,0.5379 L 89.4052,0.5336 L 89.4003,0.5293 L 89.4003,0.4733 L 89.4052,0.4690 L 89.4052,0.4647 L 89.4100,0.4604 L 89.4148,0.4604 L 89.4148,0.4561 L 89.4197,0.4518 L 89.4245,0.4518 L 89.4293,0.4475 L 90.0873,0.4475 L 90.0921,0.4518 L 90.0969,0.4518 L 90.1115,0.4647 L 90.1115,0.4690 L 90.1163,0.4733 L 90.1163,0.5723 L 90.1115,0.5723 L 90.1115,0.5680 L 90.1066,0.5680 L 90.1066,0.5637 L 90.1018,0.5637 L 90.1018,0.5594 L 90.0921,0.5594 L 90.0921,0.5551 L 89.7341,0.5551 L 89.7341,0.5594 L 89.7244,0.5594 L 89.7244,0.5637 L 89.7196,0.5637 L 89.7196,0.5723 L 89.7148,0.5723 L 89.7148,0.9811 L 89.7196,0.9811 L 89.7196,0.9897 L 89.7244,0.9897 L 89.7244,0.9940 L 89.7293,0.9940 L 89.7293,0.9983 L 89.6035,0.9983 L 89.5987,0.9940 L 89.5938,0.9940 L 89.5793,0.9811 L 89.5793,0.9768 L 89.5745,0.9725 L 89.5745,0.5680 L 89.5745,0.5551 Z" stroke="#FFFFFF" stroke-width="0.1200" stroke-linecap="round" stroke-linejoin="round" fill="#FFFFFF"/>
        <path d="M 90.3340,0.9682 L 90.3340,0.9811 L 90.3388,0.9811 L 90.3388,0.9897 L 90.3437,0.9897 L 90.3437,0.9940 L 90.3485,0.9940 L 90.3485,0.9983 L 90.2227,0.9983 L 90.2179,0.9940 L 90.2131,0.9940 L 90.1985,0.9811 L 90.1985,0.9768 L 90.1937,0.9725 L 90.1937,0.4647 L 90.1889,0.4647 L 90.1889,0.4561 L 90.1840,0.4561 L 90.1840,0.4518 L 90.1792,0.4518 L 90.1792,0.4475 L 90.3050,0.4475 L 90.3098,0.4518 L 90.3146,0.4518 L 90.3292,0.4647 L 90.3292,0.4690 L 90.3340,0.4733 L 90.3340,0.9639 L 90.3340,0.9682 Z" stroke="#FFFFFF" stroke-width="0.1200" stroke-linecap="round" stroke-linejoin="round" fill="#FFFFFF"/>
        <path d="M 91.0209,0.5551 L 90.6049,0.5551 L 90.6049,0.5594 L 90.5952,0.5594 L 90.5952,0.5637 L 90.5904,0.5637 L 90.5904,0.5723 L 90.5856,0.5723 L 90.5856,0.9811 L 90.5904,0.9811 L 90.5904,0.9897 L 90.5952,0.9897 L 90.5952,0.9940 L 90.6001,0.9940 L 90.6001,0.9983 L 90.4743,0.9983 L 90.4695,0.9940 L 90.4646,0.9940 L 90.4501,0.9811 L 90.4501,0.9768 L 90.4453,0.9725 L 90.4453,0.4733 L 90.4501,0.4690 L 90.4501,0.4647 L 90.4549,0.4604 L 90.4598,0.4604 L 90.4598,0.4561 L 90.4646,0.4518 L 90.4695,0.4518 L 90.4743,0.4475 L 91.1322,0.4475 L 91.1371,0.4518 L 91.1419,0.4518 L 91.1564,0.4647 L 91.1564,0.4690 L 91.1612,0.4733 L 91.1612,0.9811 L 91.1661,0.9811 L 91.1661,0.9897 L 91.1709,0.9897 L 91.1709,0.9940 L 91.1758,0.9940 L 91.1758,0.9983 L 91.0500,0.9983 L 91.0451,0.9940 L 91.0403,0.9940 L 91.0258,0.9811 L 91.0258,0.9768 L 91.0209,0.9725 L 91.0209,0.5680 L 91.0209,0.5551 Z" stroke="#FFFFFF" stroke-width="0.1200" stroke-linecap="round" stroke-linejoin="round" fill="#FFFFFF"/>
        <path d="M 91.8724,0.6799 L 91.4273,0.6799 L 91.4225,0.6756 L 91.4176,0.6756 L 91.4176,0.6713 L 91.4128,0.6713 L 91.4128,0.6627 L 91.4080,0.6627 L 91.4080,0.7702 L 91.4128,0.7702 L 91.4128,0.7788 L 91.4176,0.7788 L 91.4176,0.7831 L 91.4225,0.7831 L 91.4273,0.7874 L 91.8772,0.7874 L 91.8869,0.7788 L 91.8917,0.7788 L 91.9014,0.7702 L 91.9014,0.7659 L 91.9062,0.7616 L 91.9062,0.7573 L 91.9111,0.7530 L 91.9111,0.7444 L 91.9159,0.7401 L 91.9159,0.7229 L 91.9111,0.7186 L 91.9111,0.7057 L 91.9062,0.7057 L 91.9062,0.7014 L 91.8917,0.6885 L 91.8869,0.6885 L 91.8869,0.6842 L 91.8821,0.6842 L 91.8772,0.6799 L 91.8724,0.6799 Z" stroke="#FFFFFF" stroke-width="0.1200" stroke-linecap="round" stroke-linejoin="round" fill="#FFFFFF"/>
        <path d="M 92.2062,0.5551 L 92.0610,0.5551 L 92.0562,0.5508 L 92.0514,0.5508 L 92.0369,0.5379 L 92.0369,0.5336 L 92.0320,0.5293 L 92.0320,0.4733 L 92.0369,0.4690 L 92.0369,0.4647 L 92.0417,0.4604 L 92.0465,0.4604 L 92.0465,0.4561 L 92.0514,0.4518 L 92.0562,0.4518 L 92.0610,0.4475 L 92.7190,0.4475 L 92.7238,0.4518 L 92.7286,0.4518 L 92.7432,0.4647 L 92.7432,0.4690 L 92.7480,0.4733 L 92.7480,0.5723 L 92.7432,0.5723 L 92.7432,0.5680 L 92.7383,0.5680 L 92.7383,0.5637 L 92.7335,0.5637 L 92.7335,0.5594 L 92.7238,0.5594 L 92.7238,0.5551 L 92.3658,0.5551 L 92.3658,0.5594 L 92.3561,0.5594 L 92.3561,0.5637 L 92.3513,0.5637 L 92.3513,0.5723 L 92.3465,0.5723 L 92.3465,0.9811 L 92.3513,0.9811 L 92.3513,0.9897 L 92.3561,0.9897 L 92.3561,0.9940 L 92.3610,0.9940 L 92.3610,0.9983 L 92.2352,0.9983 L 92.2304,0.9940 L 92.2255,0.9940 L 92.2110,0.9811 L 92.2110,0.9768 L 92.2062,0.9725 L 92.2062,0.5680 L 92.2062,0.5551 Z" stroke="#FFFFFF" stroke-width="0.1200" stroke-linecap="round" stroke-linejoin="round" fill="#FFFFFF"/>
        <path d="M 91.9208,0.8907 L 91.9304,0.8907 L 91.9304,0.8864 L 91.9401,0.8864 L 91.9401,0.8821 L 91.9449,0.8821 L 91.9449,0.8778 L 91.9498,0.8778 L 91.9498,0.8735 L 91.9546,0.8735 L 91.9546,0.9725 L 91.9498,0.9768 L 91.9498,0.9811 L 91.9449,0.9854 L 91.9449,0.9897 L 91.9401,0.9897 L 91.9353,0.9940 L 91.9304,0.9940 L 91.9256,0.9983 L 91.2677,0.9983 L 91.2628,0.9940 L 91.2580,0.9940 L 91.2435,0.9811 L 91.2435,0.9768 L 91.2386,0.9725 L 91.2386,0.4733 L 91.2435,0.4690 L 91.2435,0.4647 L 91.2483,0.4604 L 91.2532,0.4604 L 91.2532,0.4561 L 91.2580,0.4518 L 91.2628,0.4518 L 91.2677,0.4475 L 91.9256,0.4475 L 91.9304,0.4518 L 91.9353,0.4518 L 91.9498,0.4647 L 91.9498,0.4690 L 91.9546,0.4733 L 91.9546,0.5723 L 91.9498,0.5723 L 91.9498,0.5680 L 91.9449,0.5680 L 91.9449,0.5637 L 91.9401,0.5637 L 91.9401,0.5594 L 91.9304,0.5594 L 91.9304,0.5551 L 91.3983,0.5551 L 91.3983,0.5594 L 91.3886,0.5594 L 91.3886,0.5637 L 91.3838,0.5637 L 91.3838,0.5723 L 91.3789,0.5723 L 91.3789,0.8907 L 91.9159,0.8907 L 91.9208,0.8907 Z" stroke="#FFFFFF" stroke-width="0.1200" stroke-linecap="round" stroke-linejoin="round" fill="#FFFFFF"/>
        <path d="M 88.0554,0.8391 L 88.0554,0.9983 L 88.2877,0.9983 L 88.2877,0.8391 L 88.0554,0.8391 Z" stroke="#ED3440" stroke-width="0.1200" stroke-linecap="round" stroke-linejoin="round" fill="#ED3440"/>
        <path d="M 87.8136,0.6454 L 88.0119,0.6454 L 88.0119,0.8003 L 87.8136,0.8003 L 87.8136,0.6454 Z" stroke="#ED3440" stroke-width="0.1200" stroke-linecap="round" stroke-linejoin="round" fill="#ED3440"/>
        <path d="M 88.3312,0.8391 L 88.3312,0.9983 L 88.4038,0.9983 L 88.4086,0.9940 L 88.4279,0.9940 L 88.4328,0.9897 L 88.4425,0.9897 L 88.4521,0.9854 L 88.4570,0.9811 L 88.4667,0.9768 L 88.4763,0.9682 L 88.4860,0.9639 L 88.4908,0.9596 L 88.4957,0.9509 L 88.5005,0.9466 L 88.5199,0.9122 L 88.5199,0.9036 L 88.5247,0.8907 L 88.5247,0.8778 L 88.5295,0.8649 L 88.5295,0.8391 L 88.3360,0.8391 L 88.3312,0.8391 Z" stroke="#ED3440" stroke-width="0.1200" stroke-linecap="round" stroke-linejoin="round" fill="#ED3440"/>
        <path d="M 88.3312,0.6454 L 88.5295,0.6454 L 88.5295,0.8003 L 88.3312,0.8003 L 88.3312,0.6454 Z" stroke="#ED3440" stroke-width="0.1200" stroke-linecap="round" stroke-linejoin="round" fill="#ED3440"/>
        <path d="M 88.0119,0.8391 L 88.0119,0.9983 L 87.9393,0.9983 L 87.9345,0.9940 L 87.9152,0.9940 L 87.9103,0.9897 L 87.9006,0.9897 L 87.8910,0.9854 L 87.8861,0.9811 L 87.8765,0.9768 L 87.8668,0.9682 L 87.8571,0.9639 L 87.8523,0.9596 L 87.8474,0.9509 L 87.8426,0.9466 L 87.8232,0.9122 L 87.8232,0.9036 L 87.8184,0.8907 L 87.8184,0.8778 L 87.8136,0.8649 L 87.8136,0.8391 L 88.0071,0.8391 L 88.0119,0.8391 Z" stroke="#ED3440" stroke-width="0.1200" stroke-linecap="round" stroke-linejoin="round" fill="#ED3440"/>
        <path d="M 88.0554,0.4475 L 88.0554,0.6067 L 88.2877,0.6067 L 88.2877,0.4475 L 88.0554,0.4475 Z" stroke="#ED3440" stroke-width="0.1200" stroke-linecap="round" stroke-linejoin="round" fill="#ED3440"/>
        <path d="M 88.3312,0.6067 L 88.3312,0.4475 L 88.4038,0.4475 L 88.4086,0.4518 L 88.4279,0.4518 L 88.4328,0.4561 L 88.4425,0.4561 L 88.4521,0.4604 L 88.4570,0.4647 L 88.4667,0.4690 L 88.4763,0.4776 L 88.4860,0.4819 L 88.4908,0.4862 L 88.4957,0.4948 L 88.5005,0.4991 L 88.5199,0.5336 L 88.5199,0.5422 L 88.5247,0.5551 L 88.5247,0.5680 L 88.5295,0.5809 L 88.5295,0.6067 L 88.3360,0.6067 L 88.3312,0.6067 Z" stroke="#ED3440" stroke-width="0.1200" stroke-linecap="round" stroke-linejoin="round" fill="#ED3440"/>
        <path d="M 88.0119,0.6067 L 88.0119,0.4475 L 87.9393,0.4475 L 87.9345,0.4518 L 87.9152,0.4518 L 87.9103,0.4561 L 87.9006,0.4561 L 87.8910,0.4604 L 87.8861,0.4647 L 87.8765,0.4690 L 87.8668,0.4776 L 87.8571,0.4819 L 87.8523,0.4862 L 87.8474,0.4948 L 87.8426,0.4991 L 87.8232,0.5336 L 87.8232,0.5422 L 87.8184,0.5551 L 87.8184,0.5680 L 87.8136,0.5809 L 87.8136,0.6067 L 88.0071,0.6067 L 88.0119,0.6067 Z" stroke="#ED3440" stroke-width="0.1200" stroke-linecap="round" stroke-linejoin="round" fill="#ED3440"/>
        <text font-family="Arial" fill="#FFFFFF" style="white-space:pre;" font-weight="400" text-anchor="start" x="95.0749" y="0.5811" font-size="0.0194"><![CDATA[®]]></text>
        <path d="M 16.2197,2.9595 L 15.4051,2.9595 L 15.4051,3.4237 L 16.2197,3.4237 L 16.2197,2.9595 Z" stroke="#000000" stroke-width="0.1200" stroke-linecap="round" stroke-linejoin="round" fill="#83FF00"/>
        <path d="M 19.1581,2.9595 L 18.3435,2.9595 L 18.3435,3.4237 L 19.1581,3.4237 L 19.1581,2.9595 Z" stroke="#7F7F7F" stroke-width="0.1200" stroke-linecap="round" stroke-linejoin="round" fill="#AFAFAF"/>
        <path d="M 20.2782,2.9595 L 19.4636,2.9595 L 19.4636,3.4237 L 20.2782,3.4237 L 20.2782,2.9595 Z" stroke="#000000" stroke-width="0.1200" stroke-linecap="round" stroke-linejoin="round" fill="#83FF00"/>
        <path d="M 23.2021,2.9595 L 22.3875,2.9595 L 22.3875,3.4237 L 23.2021,3.4237 L 23.2021,2.9595 Z" stroke="#7F7F7F" stroke-width="0.1200" stroke-linecap="round" stroke-linejoin="round" fill="#AFAFAF"/>
        <text font-family="Arial" fill="#FFFFFF" style="white-space:pre;" font-weight="400" text-anchor="start" x="26.8388" y="3.8192" font-size="0.1600"><![CDATA[MGMT1]]></text>
        <text font-family="Arial" fill="#FFFFFF" style="white-space:pre;" font-weight="400" text-anchor="start" x="27.9007" y="3.8192" font-size="0.1600"><![CDATA[MGMT2]]></text>
        <ellipse cx="12.3021" cy="2.1010" rx="0.3690" ry="0.3666" fill="#00FF00" stroke="#000000" stroke-width="0.1200" stroke-linecap="round" stroke-linejoin="round"/>
        <ellipse cx="12.3021" cy="2.1010" rx="0.3690" ry="0.3666" fill="none" stroke="#000000" stroke-width="0.1200" stroke-linecap="round" stroke-linejoin="round"/>
        <ellipse cx="12.3021" cy="0.6527" rx="0.3690" ry="0.3666" fill="#00FF00" stroke="#000000" stroke-width="0.1200" stroke-linecap="round" stroke-linejoin="round"/>
        <ellipse cx="12.3021" cy="0.6527" rx="0.3690" ry="0.3666" fill="none" stroke="#000000" stroke-width="0.1200" stroke-linecap="round" stroke-linejoin="round"/>
        <text font-family="Arial" fill="#FFFFFF" style="white-space:pre;" font-weight="400" text-anchor="start" x="16.1448" y="0.7180" font-size="0.1620"><![CDATA[1]]></text>
        <text font-family="Arial" fill="#FFFFFF" style="white-space:pre;" font-weight="400" text-anchor="start" x="16.1448" y="1.1829" font-size="0.1620"><![CDATA[2]]></text>
        <path d="M 15.4750,6.0160 L 15.4750,3.9049 L 16.3681,3.9049 L 16.3681,3.4081 L 16.7309,3.4081 L 16.7309,2.9114 L 17.7914,2.9114 L 17.7914,3.4081 L 18.1542,3.4081 L 18.1542,3.9049 L 19.0472,3.9049 L 19.0472,6.0160 L 15.4750,6.0160 Z" stroke="#161616" stroke-width="0.1200" stroke-linecap="round" stroke-linejoin="round" fill="#000000"/>
        <path d="M 19.5775,6.0160 L 19.5775,3.9049 L 20.4705,3.9049 L 20.4705,3.4081 L 20.8333,3.4081 L 20.8333,2.9114 L 21.8939,2.9114 L 21.8939,3.4081 L 22.2567,3.4081 L 22.2567,3.9049 L 23.1497,3.9049 L 23.1497,6.0160 L 19.5775,6.0160 Z" stroke="#161616" stroke-width="0.1200" stroke-linecap="round" stroke-linejoin="round" fill="#000000"/>
        <path d="M 25.2568,5.5606 L 25.2568,3.4495 L 26.1498,3.4495 L 26.1498,2.9528 L 26.5126,2.9528 L 26.5126,2.4561 L 27.5731,2.4561 L 27.5731,2.9528 L 27.9359,2.9528 L 27.9359,3.4495 L 28.8290,3.4495 L 28.8290,5.5606 L 25.2568,5.5606 Z" stroke="#161616" stroke-width="0.1200" stroke-linecap="round" stroke-linejoin="round" fill="#000000"/>
        <path d="M 30.7693,6.1392 L 30.7693,6.1812 L 30.7834,6.1812 L 30.7834,6.2091 L 30.7975,6.2231 L 30.7975,6.2371 L 30.8115,6.2371 L 30.8115,6.2511 L 30.8256,6.2511 L 30.8256,6.2651 L 30.8397,6.2651 L 30.8537,6.2790 L 30.8818,6.2790 L 30.8818,6.2930 L 32.2600,6.2930 L 32.2600,6.2790 L 32.2881,6.2790 L 32.3022,6.2651 L 32.3162,6.2651 L 32.3162,6.2511 L 32.3303,6.2511 L 32.3303,6.2371 L 32.3444,6.2371 L 32.3444,6.2231 L 32.3584,6.2091 L 32.3584,6.1812 L 32.3725,6.1812 L 32.3725,2.6850 L 32.3584,2.6850 L 32.3584,2.6571 L 32.3444,2.6431 L 32.3444,2.6291 L 32.3303,2.6291 L 32.3303,2.6151 L 32.3162,2.6151 L 32.3162,2.6011 L 32.3022,2.6011 L 32.2881,2.5871 L 32.2600,2.5871 L 32.2600,2.5732 L 30.8818,2.5732 L 30.8818,2.5871 L 30.8537,2.5871 L 30.8397,2.6011 L 30.8256,2.6011 L 30.8256,2.6151 L 30.8115,2.6151 L 30.8115,2.6291 L 30.7975,2.6291 L 30.7975,2.6431 L 30.7834,2.6571 L 30.7834,2.6850 L 30.7693,2.6850 L 30.7693,6.1252 L 30.7693,6.1392 Z" stroke="#000000" stroke-width="0.1200" stroke-linecap="round" stroke-linejoin="round" fill="#BFBFBF"/>
        <path d="M 30.8959,6.0833 L 30.8959,6.1252 L 30.9100,6.1252 L 30.9100,6.1392 L 30.9240,6.1532 L 30.9381,6.1532 L 30.9381,6.1672 L 32.2037,6.1672 L 32.2178,6.1532 L 32.2319,6.1532 L 32.2319,6.1392 L 32.2459,6.1392 L 32.2459,6.1252 L 32.2600,6.1112 L 32.2600,2.7410 L 32.2459,2.7410 L 32.2459,2.7270 L 32.2319,2.7270 L 32.2319,2.7130 L 32.2178,2.7130 L 32.2037,2.6990 L 30.9381,2.6990 L 30.9381,2.7130 L 30.9240,2.7130 L 30.9100,2.7270 L 30.9100,2.7410 L 30.8959,2.7410 L 30.8959,6.0693 L 30.8959,6.0833 Z" stroke="#F7DDB9" stroke-width="0.1200" stroke-linecap="round" stroke-linejoin="round" fill="#000000"/>
        <path d="M 31.5990,5.3421 L 31.5990,5.6497 L 31.5287,5.6497 L 31.5287,5.3421 L 31.5990,5.3421 Z" stroke="#000000" stroke-width="0.1200" stroke-linecap="round" stroke-linejoin="round" fill="#E2E2CC"/>
        <path d="M 31.5990,4.6429 L 31.5990,4.9505 L 31.5287,4.9505 L 31.5287,4.6429 L 31.5990,4.6429 Z" stroke="#000000" stroke-width="0.1200" stroke-linecap="round" stroke-linejoin="round" fill="#E2E2CC"/>
        <path d="M 31.5990,3.9576 L 31.5990,4.2653 L 31.5287,4.2653 L 31.5287,3.9576 L 31.5990,3.9576 Z" stroke="#000000" stroke-width="0.1200" stroke-linecap="round" stroke-linejoin="round" fill="#E2E2CC"/>
        <path d="M 31.5990,3.2444 L 31.5990,3.5521 L 31.5287,3.5521 L 31.5287,3.2444 L 31.5990,3.2444 Z" stroke="#000000" stroke-width="0.1200" stroke-linecap="round" stroke-linejoin="round" fill="#E2E2CC"/>
        <path d="M 31.1631,2.9088 L 31.1350,2.9088 L 31.1068,2.9228 L 31.0928,2.9507 L 31.0928,5.9155 L 31.1068,5.9434 L 31.1350,5.9574 L 31.4865,5.9574 L 31.5147,5.9434 L 31.5287,5.9155 L 31.5287,2.9507 L 31.5147,2.9228 L 31.4865,2.9088 L 31.4584,2.9088 L 31.1631,2.9088 Z" stroke="#000000" stroke-width="0.1200" stroke-linecap="round" stroke-linejoin="round" fill="#7F7F7F"/>
        <path d="M 31.3037,3.0207 L 31.2475,3.0346 L 31.1912,3.0906 L 31.1772,3.1465 L 31.1772,5.7197 L 31.1912,5.7756 L 31.2475,5.8315 L 31.3037,5.8455 L 31.3600,5.8315 L 31.4162,5.7756 L 31.4303,5.7197 L 31.4303,3.1465 L 31.4162,3.0906 L 31.3600,3.0346 L 31.3037,3.0207 Z" stroke="#999999" stroke-width="0.1200" stroke-linecap="round" stroke-linejoin="round" fill="#999999"/>
        <path d="M 38.4476,6.6258 L 34.4819,6.6258 L 34.4819,3.9672 L 38.4476,3.9672 L 38.4476,6.6258 Z" stroke="#000000" stroke-width="0.1200" stroke-linecap="round" stroke-linejoin="round" fill="none"/>
        <path d="M 42.5539,6.6258 L 38.5882,6.6258 L 38.5882,3.9672 L 42.5539,3.9672 L 42.5539,6.6258 Z" stroke="#000000" stroke-width="0.1200" stroke-linecap="round" stroke-linejoin="round" fill="none"/>
        <path d="M 46.6040,6.6258 L 42.6383,6.6258 L 42.6383,3.9672 L 46.6040,3.9672 L 46.6040,6.6258 Z" stroke="#000000" stroke-width="0.1200" stroke-linecap="round" stroke-linejoin="round" fill="none"/>
        <path d="M 50.7103,6.6258 L 46.7446,6.6258 L 46.7446,3.9672 L 50.7103,3.9672 L 50.7103,6.6258 Z" stroke="#000000" stroke-width="0.1200" stroke-linecap="round" stroke-linejoin="round" fill="none"/>
      </g>
      <!--emf-blob end-->
    </g>
  </g>
</svg>
