<svg xmlns="http://www.w3.org/2000/svg" xmlns:xlink="http://www.w3.org/1999/xlink" version="1.1" width="7.6704000000" height="11.6724000000" viewBox="0 0 138.0699 210.1019">
  <title><![CDATA[FG-5144C (CF)]]></title>
  <g transform=" scale(4.000000) ">
    <!--converted by libvisio2svg-->
    <g transform=" translate(0.720000,0.720000) ">
      <!--emf-blob start-->
      <g transform="translate(-0.0000, -0.0000)">
        <path d="M 15.1919,5.7002 L 15.1919,7.9803 L 17.2104,7.9803 " stroke="#000000" stroke-width="0.1198" stroke-linecap="round" stroke-linejoin="round" fill="none"/>
        <path d="M 17.2104,5.7002 L 21.1943,5.7002 " stroke="#000000" stroke-width="0.1198" stroke-linecap="round" stroke-linejoin="round" fill="none"/>
        <path d="M 19.1758,5.7002 L 19.1758,7.9803 " stroke="#000000" stroke-width="0.1198" stroke-linecap="round" stroke-linejoin="round" fill="none"/>
        <path d="M 22.2036,5.7002 L 22.2036,7.9803 " stroke="#000000" stroke-width="0.1198" stroke-linecap="round" stroke-linejoin="round" fill="none"/>
        <path d="M 22.2036,5.7002 L 22.2036,7.9803 " stroke="#000000" stroke-width="0.1198" stroke-linecap="round" stroke-linejoin="round" fill="none"/>
        <path d="M 24.1690,7.9803 L 24.1690,5.7002 L 26.1875,7.9803 L 28.2060,5.7002 L 28.2060,7.9803 " stroke="#000000" stroke-width="0.1198" stroke-linecap="round" stroke-linejoin="round" fill="none"/>
        <path d="M 29.1621,7.9803 L 31.1806,5.7002 L 33.1991,7.9803 " stroke="#000000" stroke-width="0.1198" stroke-linecap="round" stroke-linejoin="round" fill="none"/>
        <path d="M 29.6933,7.4103 L 32.6680,7.4103 " stroke="#000000" stroke-width="0.1198" stroke-linecap="round" stroke-linejoin="round" fill="none"/>
        <path d="M 9.1895,7.9803 L 11.2080,5.7002 L 13.2265,7.9803 " stroke="#000000" stroke-width="0.1198" stroke-linecap="round" stroke-linejoin="round" fill="none"/>
        <path d="M 9.7207,7.4103 L 12.6954,7.4103 " stroke="#000000" stroke-width="0.1198" stroke-linecap="round" stroke-linejoin="round" fill="none"/>
        <path d="M 136.2994,0.0281 L 0.0281,0.0281 L 0.0281,175.7202 L 136.2994,175.7202 L 136.2994,0.0281 Z" stroke="#000000" stroke-width="0.1198" stroke-linecap="round" stroke-linejoin="round" fill="#666666"/>
        <path d="M 130.9114,45.1322 L 5.4161,45.1322 L 5.4161,139.6707 L 130.9114,139.6707 L 130.9114,45.1322 Z" stroke="#000000" stroke-width="0.1198" stroke-linecap="round" stroke-linejoin="round" fill="#494949"/>
        <path d="M 130.9114,137.0696 L 5.4161,137.0696 L 5.4161,175.7202 L 130.9114,175.7202 L 130.9114,137.0696 Z" stroke="#000000" stroke-width="0.1198" stroke-linecap="round" stroke-linejoin="round" fill="#494949"/>
        <path d="M 130.9114,137.0696 L 5.4161,137.0696 L 5.4161,143.1013 L 130.9114,143.1013 L 130.9114,137.0696 Z" stroke="#000000" stroke-width="0.1198" stroke-linecap="round" stroke-linejoin="round" fill="#BFBFBF"/>
        <path d="M 130.9114,137.0696 L 5.4161,137.0696 L 5.4161,137.2524 L 130.9114,137.2524 L 130.9114,137.0696 Z" stroke="#DDDDDD" stroke-width="0.1198" stroke-linecap="round" stroke-linejoin="round" fill="#DDDDDD"/>
        <path d="M 130.9114,137.0696 L 5.4161,137.0696 L 5.4161,143.1013 L 130.9114,143.1013 L 130.9114,137.0696 Z" stroke="#000000" stroke-width="0.1198" stroke-linecap="round" stroke-linejoin="round" fill="none"/>
        <path d="M 130.9114,47.7332 L 5.4161,47.7332 L 5.4161,45.1322 L 130.9114,45.1322 L 130.9114,47.7332 Z" stroke="#000000" stroke-width="0.1198" stroke-linecap="round" stroke-linejoin="round" fill="#BFBFBF"/>
        <path d="M 130.9114,47.7332 L 5.4161,47.7332 L 5.4161,47.5505 L 130.9114,47.5505 L 130.9114,47.7332 Z" stroke="#DDDDDD" stroke-width="0.1198" stroke-linecap="round" stroke-linejoin="round" fill="#DDDDDD"/>
        <ellipse cx="2.6940" cy="152.9924" rx="1.8802" ry="1.8770" fill="#494949" stroke="#000000" stroke-width="0.1198" stroke-linecap="round" stroke-linejoin="round"/>
        <ellipse cx="2.6940" cy="152.9924" rx="1.8802" ry="1.8770" fill="none" stroke="#494949" stroke-width="0.1198" stroke-linecap="round" stroke-linejoin="round"/>
        <path d="M 3.2693,154.1102 L 3.5780,153.2947 L 2.2310,153.2947 L 1.9223,154.1102 " stroke="#FFFFFF" stroke-width="0.1198" stroke-linecap="round" stroke-linejoin="round" fill="none"/>
        <path d="M 2.5958,154.0820 L 2.9045,153.2947 L 2.9045,152.4230 " stroke="#FFFFFF" stroke-width="0.1198" stroke-linecap="round" stroke-linejoin="round" fill="none"/>
        <ellipse cx="2.8624" cy="152.2683" rx="0.2666" ry="0.2671" fill="#FFFFFF" stroke="#000000" stroke-width="0.1198" stroke-linecap="round" stroke-linejoin="round"/>
        <ellipse cx="2.8624" cy="152.2683" rx="0.2666" ry="0.2671" fill="none" stroke="#FFFFFF" stroke-width="0.1198" stroke-linecap="round" stroke-linejoin="round"/>
        <ellipse cx="2.8554" cy="152.2613" rx="0.1894" ry="0.1898" fill="#494949" stroke="#000000" stroke-width="0.1198" stroke-linecap="round" stroke-linejoin="round"/>
        <ellipse cx="2.8554" cy="152.2613" rx="0.1894" ry="0.1898" fill="none" stroke="#FFFFFF" stroke-width="0.1198" stroke-linecap="round" stroke-linejoin="round"/>
        <path d="M 130.9114,166.4828 L 5.4161,166.4828 L 5.4161,174.3001 L 130.9114,174.3001 L 130.9114,166.4828 Z" stroke="#000000" stroke-width="0.1198" stroke-linecap="round" stroke-linejoin="round" fill="#BFBFBF"/>
        <path d="M 135.4575,124.0642 L 135.4575,123.9517 L 135.4014,123.7268 L 135.3733,123.6284 L 135.2611,123.4315 L 135.2050,123.3472 L 135.0506,123.1925 L 134.9664,123.1363 L 134.7700,123.0238 L 134.6718,122.9957 L 134.4473,122.9394 L 132.7635,122.9394 L 132.5390,122.9957 L 132.4408,123.0238 L 132.2444,123.1363 L 132.1602,123.1925 L 132.0900,123.2769 L 132.0058,123.3472 L 131.9497,123.4315 L 131.8375,123.6284 L 131.8094,123.7268 L 131.7533,123.9517 L 131.7533,124.1767 L 131.8094,124.4017 L 131.8375,124.5001 L 131.9497,124.6969 L 132.0058,124.7813 L 132.1602,124.9359 L 132.2444,124.9922 L 132.4408,125.1047 L 132.5390,125.1328 L 132.7635,125.1890 L 134.4473,125.1890 L 134.6718,125.1328 L 134.7700,125.1047 L 134.9664,124.9922 L 135.0506,124.9359 L 135.1348,124.8656 L 135.2050,124.7813 L 135.2611,124.6969 L 135.3733,124.5001 L 135.4014,124.4017 L 135.4575,124.1767 L 135.4575,124.0642 Z" stroke="#000000" stroke-width="0.1198" stroke-linecap="round" stroke-linejoin="round" fill="#FFFFFF"/>
        <path d="M 135.4575,132.2189 L 135.4575,132.1065 L 135.4014,131.8815 L 135.3733,131.7831 L 135.2611,131.5863 L 135.2050,131.5019 L 135.0506,131.3472 L 134.9664,131.2910 L 134.7700,131.1785 L 134.6718,131.1504 L 134.4473,131.0942 L 132.7635,131.0942 L 132.5390,131.1504 L 132.4408,131.1785 L 132.2444,131.2910 L 132.1602,131.3472 L 132.0900,131.4316 L 132.0058,131.5019 L 131.9497,131.5863 L 131.8375,131.7831 L 131.8094,131.8815 L 131.7533,132.1065 L 131.7533,132.3314 L 131.8094,132.5564 L 131.8375,132.6548 L 131.9497,132.8516 L 132.0058,132.9360 L 132.1602,133.0907 L 132.2444,133.1469 L 132.4408,133.2594 L 132.5390,133.2875 L 132.7635,133.3437 L 134.4473,133.3437 L 134.6718,133.2875 L 134.7700,133.2594 L 134.9664,133.1469 L 135.0506,133.0907 L 135.1348,133.0204 L 135.2050,132.9360 L 135.2611,132.8516 L 135.3733,132.6548 L 135.4014,132.5564 L 135.4575,132.3314 L 135.4575,132.2189 Z" stroke="#000000" stroke-width="0.1198" stroke-linecap="round" stroke-linejoin="round" fill="#FFFFFF"/>
        <path d="M 135.4575,160.2403 L 135.4575,160.1278 L 135.4014,159.9028 L 135.3733,159.8044 L 135.2611,159.6076 L 135.2050,159.5232 L 135.0506,159.3685 L 134.9664,159.3123 L 134.7700,159.1998 L 134.6718,159.1717 L 134.4473,159.1155 L 132.7635,159.1155 L 132.5390,159.1717 L 132.4408,159.1998 L 132.2444,159.3123 L 132.1602,159.3685 L 132.0900,159.4529 L 132.0058,159.5232 L 131.9497,159.6076 L 131.8375,159.8044 L 131.8094,159.9028 L 131.7533,160.1278 L 131.7533,160.3527 L 131.8094,160.5777 L 131.8375,160.6761 L 131.9497,160.8729 L 132.0058,160.9573 L 132.1602,161.1120 L 132.2444,161.1682 L 132.4408,161.2807 L 132.5390,161.3088 L 132.7635,161.3650 L 134.4473,161.3650 L 134.6718,161.3088 L 134.7700,161.2807 L 134.9664,161.1682 L 135.0506,161.1120 L 135.1348,161.0417 L 135.2050,160.9573 L 135.2611,160.8729 L 135.3733,160.6761 L 135.4014,160.5777 L 135.4575,160.3527 L 135.4575,160.2403 Z" stroke="#000000" stroke-width="0.1198" stroke-linecap="round" stroke-linejoin="round" fill="#FFFFFF"/>
        <path d="M 135.4575,89.2379 L 135.4575,89.1255 L 135.4014,88.9005 L 135.3733,88.8021 L 135.2611,88.6053 L 135.2050,88.5209 L 135.0506,88.3662 L 134.9664,88.3100 L 134.7700,88.1975 L 134.6718,88.1694 L 134.4473,88.1132 L 132.7635,88.1132 L 132.5390,88.1694 L 132.4408,88.1975 L 132.2444,88.3100 L 132.1602,88.3662 L 132.0900,88.4506 L 132.0058,88.5209 L 131.9497,88.6053 L 131.8375,88.8021 L 131.8094,88.9005 L 131.7533,89.1255 L 131.7533,89.3504 L 131.8094,89.5754 L 131.8375,89.6738 L 131.9497,89.8706 L 132.0058,89.9550 L 132.1602,90.1097 L 132.2444,90.1659 L 132.4408,90.2784 L 132.5390,90.3065 L 132.7635,90.3627 L 134.4473,90.3627 L 134.6718,90.3065 L 134.7700,90.2784 L 134.9664,90.1659 L 135.0506,90.1097 L 135.1348,90.0394 L 135.2050,89.9550 L 135.2611,89.8706 L 135.3733,89.6738 L 135.4014,89.5754 L 135.4575,89.3504 L 135.4575,89.2379 Z" stroke="#000000" stroke-width="0.1198" stroke-linecap="round" stroke-linejoin="round" fill="#FFFFFF"/>
        <path d="M 135.4575,97.3927 L 135.4575,97.2802 L 135.4014,97.0552 L 135.3733,96.9568 L 135.2611,96.7600 L 135.2050,96.6756 L 135.0506,96.5210 L 134.9664,96.4647 L 134.7700,96.3522 L 134.6718,96.3241 L 134.4473,96.2679 L 132.7635,96.2679 L 132.5390,96.3241 L 132.4408,96.3522 L 132.2444,96.4647 L 132.1602,96.5210 L 132.0900,96.6053 L 132.0058,96.6756 L 131.9497,96.7600 L 131.8375,96.9568 L 131.8094,97.0552 L 131.7533,97.2802 L 131.7533,97.5051 L 131.8094,97.7301 L 131.8375,97.8285 L 131.9497,98.0254 L 132.0058,98.1097 L 132.1602,98.2644 L 132.2444,98.3206 L 132.4408,98.4331 L 132.5390,98.4612 L 132.7635,98.5175 L 134.4473,98.5175 L 134.6718,98.4612 L 134.7700,98.4331 L 134.9664,98.3206 L 135.0506,98.2644 L 135.1348,98.1941 L 135.2050,98.1097 L 135.2611,98.0254 L 135.3733,97.8285 L 135.4014,97.7301 L 135.4575,97.5051 L 135.4575,97.3927 Z" stroke="#000000" stroke-width="0.1198" stroke-linecap="round" stroke-linejoin="round" fill="#FFFFFF"/>
        <path d="M 135.4575,54.3976 L 135.4575,54.2851 L 135.4014,54.0602 L 135.3733,53.9618 L 135.2611,53.7649 L 135.2050,53.6806 L 135.0506,53.5259 L 134.9664,53.4697 L 134.7700,53.3572 L 134.6718,53.3291 L 134.4473,53.2728 L 132.7635,53.2728 L 132.5390,53.3291 L 132.4408,53.3572 L 132.2444,53.4697 L 132.1602,53.5259 L 132.0900,53.6103 L 132.0058,53.6806 L 131.9497,53.7649 L 131.8375,53.9618 L 131.8094,54.0602 L 131.7533,54.2851 L 131.7533,54.5101 L 131.8094,54.7350 L 131.8375,54.8335 L 131.9497,55.0303 L 132.0058,55.1147 L 132.1602,55.2693 L 132.2444,55.3256 L 132.4408,55.4380 L 132.5390,55.4662 L 132.7635,55.5224 L 134.4473,55.5224 L 134.6718,55.4662 L 134.7700,55.4380 L 134.9664,55.3256 L 135.0506,55.2693 L 135.1348,55.1990 L 135.2050,55.1147 L 135.2611,55.0303 L 135.3733,54.8335 L 135.4014,54.7350 L 135.4575,54.5101 L 135.4575,54.3976 Z" stroke="#000000" stroke-width="0.1198" stroke-linecap="round" stroke-linejoin="round" fill="#FFFFFF"/>
        <path d="M 135.4575,62.5523 L 135.4575,62.4398 L 135.4014,62.2149 L 135.3733,62.1165 L 135.2611,61.9196 L 135.2050,61.8353 L 135.0506,61.6806 L 134.9664,61.6244 L 134.7700,61.5119 L 134.6718,61.4838 L 134.4473,61.4275 L 132.7635,61.4275 L 132.5390,61.4838 L 132.4408,61.5119 L 132.2444,61.6244 L 132.1602,61.6806 L 132.0900,61.7650 L 132.0058,61.8353 L 131.9497,61.9196 L 131.8375,62.1165 L 131.8094,62.2149 L 131.7533,62.4398 L 131.7533,62.6648 L 131.8094,62.8898 L 131.8375,62.9882 L 131.9497,63.1850 L 132.0058,63.2694 L 132.1602,63.4240 L 132.2444,63.4803 L 132.4408,63.5928 L 132.5390,63.6209 L 132.7635,63.6771 L 134.4473,63.6771 L 134.6718,63.6209 L 134.7700,63.5928 L 134.9664,63.4803 L 135.0506,63.4240 L 135.1348,63.3537 L 135.2050,63.2694 L 135.2611,63.1850 L 135.3733,62.9882 L 135.4014,62.8898 L 135.4575,62.6648 L 135.4575,62.5523 Z" stroke="#000000" stroke-width="0.1198" stroke-linecap="round" stroke-linejoin="round" fill="#FFFFFF"/>
        <path d="M 135.4575,15.5221 L 135.4575,15.4096 L 135.4014,15.1847 L 135.3733,15.0862 L 135.2611,14.8894 L 135.2050,14.8050 L 135.0506,14.6504 L 134.9664,14.5941 L 134.7700,14.4817 L 134.6718,14.4535 L 134.4473,14.3973 L 132.7635,14.3973 L 132.5390,14.4535 L 132.4408,14.4817 L 132.2444,14.5941 L 132.1602,14.6504 L 132.0900,14.7347 L 132.0058,14.8050 L 131.9497,14.8894 L 131.8375,15.0862 L 131.8094,15.1847 L 131.7533,15.4096 L 131.7533,15.6346 L 131.8094,15.8595 L 131.8375,15.9579 L 131.9497,16.1548 L 132.0058,16.2391 L 132.1602,16.3938 L 132.2444,16.4500 L 132.4408,16.5625 L 132.5390,16.5906 L 132.7635,16.6469 L 134.4473,16.6469 L 134.6718,16.5906 L 134.7700,16.5625 L 134.9664,16.4500 L 135.0506,16.3938 L 135.1348,16.3235 L 135.2050,16.2391 L 135.2611,16.1548 L 135.3733,15.9579 L 135.4014,15.8595 L 135.4575,15.6346 L 135.4575,15.5221 Z" stroke="#000000" stroke-width="0.1198" stroke-linecap="round" stroke-linejoin="round" fill="#FFFFFF"/>
        <path d="M 135.4575,23.6768 L 135.4575,23.5643 L 135.4014,23.3394 L 135.3733,23.2410 L 135.2611,23.0441 L 135.2050,22.9598 L 135.0506,22.8051 L 134.9664,22.7489 L 134.7700,22.6364 L 134.6718,22.6083 L 134.4473,22.5520 L 132.7635,22.5520 L 132.5390,22.6083 L 132.4408,22.6364 L 132.2444,22.7489 L 132.1602,22.8051 L 132.0900,22.8895 L 132.0058,22.9598 L 131.9497,23.0441 L 131.8375,23.2410 L 131.8094,23.3394 L 131.7533,23.5643 L 131.7533,23.7893 L 131.8094,24.0142 L 131.8375,24.1127 L 131.9497,24.3095 L 132.0058,24.3939 L 132.1602,24.5485 L 132.2444,24.6048 L 132.4408,24.7172 L 132.5390,24.7454 L 132.7635,24.8016 L 134.4473,24.8016 L 134.6718,24.7454 L 134.7700,24.7172 L 134.9664,24.6048 L 135.0506,24.5485 L 135.1348,24.4782 L 135.2050,24.3939 L 135.2611,24.3095 L 135.3733,24.1127 L 135.4014,24.0142 L 135.4575,23.7893 L 135.4575,23.6768 Z" stroke="#000000" stroke-width="0.1198" stroke-linecap="round" stroke-linejoin="round" fill="#FFFFFF"/>
        <path d="M 4.5742,124.0642 L 4.5742,123.9517 L 4.5181,123.7268 L 4.4900,123.6284 L 4.3777,123.4315 L 4.3216,123.3472 L 4.1673,123.1925 L 4.0831,123.1363 L 3.8867,123.0238 L 3.7884,122.9957 L 3.5639,122.9394 L 1.8802,122.9394 L 1.6557,122.9957 L 1.5575,123.0238 L 1.3610,123.1363 L 1.2768,123.1925 L 1.2067,123.2769 L 1.1225,123.3472 L 1.0664,123.4315 L 0.9541,123.6284 L 0.9261,123.7268 L 0.8699,123.9517 L 0.8699,124.1767 L 0.9261,124.4017 L 0.9541,124.5001 L 1.0664,124.6969 L 1.1225,124.7813 L 1.2768,124.9359 L 1.3610,124.9922 L 1.5575,125.1047 L 1.6557,125.1328 L 1.8802,125.1890 L 3.5639,125.1890 L 3.7884,125.1328 L 3.8867,125.1047 L 4.0831,124.9922 L 4.1673,124.9359 L 4.2515,124.8656 L 4.3216,124.7813 L 4.3777,124.6969 L 4.4900,124.5001 L 4.5181,124.4017 L 4.5742,124.1767 L 4.5742,124.0642 Z" stroke="#000000" stroke-width="0.1198" stroke-linecap="round" stroke-linejoin="round" fill="#FFFFFF"/>
        <path d="M 4.5742,132.2189 L 4.5742,132.1065 L 4.5181,131.8815 L 4.4900,131.7831 L 4.3777,131.5863 L 4.3216,131.5019 L 4.1673,131.3472 L 4.0831,131.2910 L 3.8867,131.1785 L 3.7884,131.1504 L 3.5639,131.0942 L 1.8802,131.0942 L 1.6557,131.1504 L 1.5575,131.1785 L 1.3610,131.2910 L 1.2768,131.3472 L 1.2067,131.4316 L 1.1225,131.5019 L 1.0664,131.5863 L 0.9541,131.7831 L 0.9261,131.8815 L 0.8699,132.1065 L 0.8699,132.3314 L 0.9261,132.5564 L 0.9541,132.6548 L 1.0664,132.8516 L 1.1225,132.9360 L 1.2768,133.0907 L 1.3610,133.1469 L 1.5575,133.2594 L 1.6557,133.2875 L 1.8802,133.3437 L 3.5639,133.3437 L 3.7884,133.2875 L 3.8867,133.2594 L 4.0831,133.1469 L 4.1673,133.0907 L 4.2515,133.0204 L 4.3216,132.9360 L 4.3777,132.8516 L 4.4900,132.6548 L 4.5181,132.5564 L 4.5742,132.3314 L 4.5742,132.2189 Z" stroke="#000000" stroke-width="0.1198" stroke-linecap="round" stroke-linejoin="round" fill="#FFFFFF"/>
        <path d="M 4.5742,160.2403 L 4.5742,160.1278 L 4.5181,159.9028 L 4.4900,159.8044 L 4.3777,159.6076 L 4.3216,159.5232 L 4.1673,159.3685 L 4.0831,159.3123 L 3.8867,159.1998 L 3.7884,159.1717 L 3.5639,159.1155 L 1.8802,159.1155 L 1.6557,159.1717 L 1.5575,159.1998 L 1.3610,159.3123 L 1.2768,159.3685 L 1.2067,159.4529 L 1.1225,159.5232 L 1.0664,159.6076 L 0.9541,159.8044 L 0.9261,159.9028 L 0.8699,160.1278 L 0.8699,160.3527 L 0.9261,160.5777 L 0.9541,160.6761 L 1.0664,160.8729 L 1.1225,160.9573 L 1.2768,161.1120 L 1.3610,161.1682 L 1.5575,161.2807 L 1.6557,161.3088 L 1.8802,161.3650 L 3.5639,161.3650 L 3.7884,161.3088 L 3.8867,161.2807 L 4.0831,161.1682 L 4.1673,161.1120 L 4.2515,161.0417 L 4.3216,160.9573 L 4.3777,160.8729 L 4.4900,160.6761 L 4.5181,160.5777 L 4.5742,160.3527 L 4.5742,160.2403 Z" stroke="#000000" stroke-width="0.1198" stroke-linecap="round" stroke-linejoin="round" fill="#FFFFFF"/>
        <path d="M 4.5742,89.2379 L 4.5742,89.1255 L 4.5181,88.9005 L 4.4900,88.8021 L 4.3777,88.6053 L 4.3216,88.5209 L 4.1673,88.3662 L 4.0831,88.3100 L 3.8867,88.1975 L 3.7884,88.1694 L 3.5639,88.1132 L 1.8802,88.1132 L 1.6557,88.1694 L 1.5575,88.1975 L 1.3610,88.3100 L 1.2768,88.3662 L 1.2067,88.4506 L 1.1225,88.5209 L 1.0664,88.6053 L 0.9541,88.8021 L 0.9261,88.9005 L 0.8699,89.1255 L 0.8699,89.3504 L 0.9261,89.5754 L 0.9541,89.6738 L 1.0664,89.8706 L 1.1225,89.9550 L 1.2768,90.1097 L 1.3610,90.1659 L 1.5575,90.2784 L 1.6557,90.3065 L 1.8802,90.3627 L 3.5639,90.3627 L 3.7884,90.3065 L 3.8867,90.2784 L 4.0831,90.1659 L 4.1673,90.1097 L 4.2515,90.0394 L 4.3216,89.9550 L 4.3777,89.8706 L 4.4900,89.6738 L 4.5181,89.5754 L 4.5742,89.3504 L 4.5742,89.2379 Z" stroke="#000000" stroke-width="0.1198" stroke-linecap="round" stroke-linejoin="round" fill="#FFFFFF"/>
        <path d="M 4.5742,97.3927 L 4.5742,97.2802 L 4.5181,97.0552 L 4.4900,96.9568 L 4.3777,96.7600 L 4.3216,96.6756 L 4.1673,96.5210 L 4.0831,96.4647 L 3.8867,96.3522 L 3.7884,96.3241 L 3.5639,96.2679 L 1.8802,96.2679 L 1.6557,96.3241 L 1.5575,96.3522 L 1.3610,96.4647 L 1.2768,96.5210 L 1.2067,96.6053 L 1.1225,96.6756 L 1.0664,96.7600 L 0.9541,96.9568 L 0.9261,97.0552 L 0.8699,97.2802 L 0.8699,97.5051 L 0.9261,97.7301 L 0.9541,97.8285 L 1.0664,98.0254 L 1.1225,98.1097 L 1.2768,98.2644 L 1.3610,98.3206 L 1.5575,98.4331 L 1.6557,98.4612 L 1.8802,98.5175 L 3.5639,98.5175 L 3.7884,98.4612 L 3.8867,98.4331 L 4.0831,98.3206 L 4.1673,98.2644 L 4.2515,98.1941 L 4.3216,98.1097 L 4.3777,98.0254 L 4.4900,97.8285 L 4.5181,97.7301 L 4.5742,97.5051 L 4.5742,97.3927 Z" stroke="#000000" stroke-width="0.1198" stroke-linecap="round" stroke-linejoin="round" fill="#FFFFFF"/>
        <path d="M 4.5742,54.3976 L 4.5742,54.2851 L 4.5181,54.0602 L 4.4900,53.9618 L 4.3777,53.7649 L 4.3216,53.6806 L 4.1673,53.5259 L 4.0831,53.4697 L 3.8867,53.3572 L 3.7884,53.3291 L 3.5639,53.2728 L 1.8802,53.2728 L 1.6557,53.3291 L 1.5575,53.3572 L 1.3610,53.4697 L 1.2768,53.5259 L 1.2067,53.6103 L 1.1225,53.6806 L 1.0664,53.7649 L 0.9541,53.9618 L 0.9261,54.0602 L 0.8699,54.2851 L 0.8699,54.5101 L 0.9261,54.7350 L 0.9541,54.8335 L 1.0664,55.0303 L 1.1225,55.1147 L 1.2768,55.2693 L 1.3610,55.3256 L 1.5575,55.4380 L 1.6557,55.4662 L 1.8802,55.5224 L 3.5639,55.5224 L 3.7884,55.4662 L 3.8867,55.4380 L 4.0831,55.3256 L 4.1673,55.2693 L 4.2515,55.1990 L 4.3216,55.1147 L 4.3777,55.0303 L 4.4900,54.8335 L 4.5181,54.7350 L 4.5742,54.5101 L 4.5742,54.3976 Z" stroke="#000000" stroke-width="0.1198" stroke-linecap="round" stroke-linejoin="round" fill="#FFFFFF"/>
        <path d="M 4.5742,62.5523 L 4.5742,62.4398 L 4.5181,62.2149 L 4.4900,62.1165 L 4.3777,61.9196 L 4.3216,61.8353 L 4.1673,61.6806 L 4.0831,61.6244 L 3.8867,61.5119 L 3.7884,61.4838 L 3.5639,61.4275 L 1.8802,61.4275 L 1.6557,61.4838 L 1.5575,61.5119 L 1.3610,61.6244 L 1.2768,61.6806 L 1.2067,61.7650 L 1.1225,61.8353 L 1.0664,61.9196 L 0.9541,62.1165 L 0.9261,62.2149 L 0.8699,62.4398 L 0.8699,62.6648 L 0.9261,62.8898 L 0.9541,62.9882 L 1.0664,63.1850 L 1.1225,63.2694 L 1.2768,63.4240 L 1.3610,63.4803 L 1.5575,63.5928 L 1.6557,63.6209 L 1.8802,63.6771 L 3.5639,63.6771 L 3.7884,63.6209 L 3.8867,63.5928 L 4.0831,63.4803 L 4.1673,63.4240 L 4.2515,63.3537 L 4.3216,63.2694 L 4.3777,63.1850 L 4.4900,62.9882 L 4.5181,62.8898 L 4.5742,62.6648 L 4.5742,62.5523 Z" stroke="#000000" stroke-width="0.1198" stroke-linecap="round" stroke-linejoin="round" fill="#FFFFFF"/>
        <path d="M 4.5742,15.5221 L 4.5742,15.4096 L 4.5181,15.1847 L 4.4900,15.0862 L 4.3777,14.8894 L 4.3216,14.8050 L 4.1673,14.6504 L 4.0831,14.5941 L 3.8867,14.4817 L 3.7884,14.4535 L 3.5639,14.3973 L 1.8802,14.3973 L 1.6557,14.4535 L 1.5575,14.4817 L 1.3610,14.5941 L 1.2768,14.6504 L 1.2067,14.7347 L 1.1225,14.8050 L 1.0664,14.8894 L 0.9541,15.0862 L 0.9261,15.1847 L 0.8699,15.4096 L 0.8699,15.6346 L 0.9261,15.8595 L 0.9541,15.9579 L 1.0664,16.1548 L 1.1225,16.2391 L 1.2768,16.3938 L 1.3610,16.4500 L 1.5575,16.5625 L 1.6557,16.5906 L 1.8802,16.6469 L 3.5639,16.6469 L 3.7884,16.5906 L 3.8867,16.5625 L 4.0831,16.4500 L 4.1673,16.3938 L 4.2515,16.3235 L 4.3216,16.2391 L 4.3777,16.1548 L 4.4900,15.9579 L 4.5181,15.8595 L 4.5742,15.6346 L 4.5742,15.5221 Z" stroke="#000000" stroke-width="0.1198" stroke-linecap="round" stroke-linejoin="round" fill="#FFFFFF"/>
        <path d="M 4.5742,23.6768 L 4.5742,23.5643 L 4.5181,23.3394 L 4.4900,23.2410 L 4.3777,23.0441 L 4.3216,22.9598 L 4.1673,22.8051 L 4.0831,22.7489 L 3.8867,22.6364 L 3.7884,22.6083 L 3.5639,22.5520 L 1.8802,22.5520 L 1.6557,22.6083 L 1.5575,22.6364 L 1.3610,22.7489 L 1.2768,22.8051 L 1.2067,22.8895 L 1.1225,22.9598 L 1.0664,23.0441 L 0.9541,23.2410 L 0.9261,23.3394 L 0.8699,23.5643 L 0.8699,23.7893 L 0.9261,24.0142 L 0.9541,24.1127 L 1.0664,24.3095 L 1.1225,24.3939 L 1.2768,24.5485 L 1.3610,24.6048 L 1.5575,24.7172 L 1.6557,24.7454 L 1.8802,24.8016 L 3.5639,24.8016 L 3.7884,24.7454 L 3.8867,24.7172 L 4.0831,24.6048 L 4.1673,24.5485 L 4.2515,24.4782 L 4.3216,24.3939 L 4.3777,24.3095 L 4.4900,24.1127 L 4.5181,24.0142 L 4.5742,23.7893 L 4.5742,23.6768 Z" stroke="#000000" stroke-width="0.1198" stroke-linecap="round" stroke-linejoin="round" fill="#FFFFFF"/>
        <path d="M 130.9114,141.3438 L 5.4161,141.3438 L 5.4161,143.1013 L 130.9114,143.1013 L 130.9114,141.3438 Z" stroke="#000000" stroke-width="0.1198" stroke-linecap="round" stroke-linejoin="round" fill="none"/>
        <path d="M 7.2121,143.1153 L 5.4161,143.1153 L 5.4161,165.4002 L 7.2121,165.4002 L 7.2121,143.1153 Z" stroke="#000000" stroke-width="0.1198" stroke-linecap="round" stroke-linejoin="round" fill="#BFBFBF"/>
        <path d="M 130.9114,143.1153 L 129.1154,143.1153 L 129.1154,165.4002 L 130.9114,165.4002 L 130.9114,143.1153 Z" stroke="#000000" stroke-width="0.1198" stroke-linecap="round" stroke-linejoin="round" fill="#BFBFBF"/>
        <path d="M 118.3675,149.3579 L 17.9600,149.3579 L 17.9600,151.1154 L 118.3675,151.1154 L 118.3675,149.3579 Z" stroke="#7F7F7F" stroke-width="0.1198" stroke-linecap="round" stroke-linejoin="round" fill="#BFBFBF"/>
        <path d="M 118.3675,157.3720 L 17.9600,157.3720 L 17.9600,159.1295 L 118.3675,159.1295 L 118.3675,157.3720 Z" stroke="#7F7F7F" stroke-width="0.1198" stroke-linecap="round" stroke-linejoin="round" fill="#BFBFBF"/>
        <path d="M 68.6127,143.1153 L 67.7147,143.1153 L 67.7147,174.3001 L 68.6127,174.3001 L 68.6127,143.1153 Z" stroke="#7F7F7F" stroke-width="0.1198" stroke-linecap="round" stroke-linejoin="round" fill="#BFBFBF"/>
        <path d="M 17.9600,143.1153 L 17.5110,143.1153 L 17.5110,165.4143 L 17.9600,165.4143 L 17.9600,143.1153 Z" stroke="#7F7F7F" stroke-width="0.1198" stroke-linecap="round" stroke-linejoin="round" fill="#BFBFBF"/>
        <path d="M 17.5110,143.1153 L 15.3221,144.3667 L 12.5159,149.0908 L 14.7609,163.4881 L 17.5110,165.4283 L 17.5110,143.1153 Z" stroke="#7F7F7F" stroke-width="0.1198" stroke-linecap="round" stroke-linejoin="round" fill="#BFBFBF"/>
        <path d="M 118.3675,143.1153 L 118.8165,143.1153 L 118.8165,165.4143 L 118.3675,165.4143 L 118.3675,143.1153 Z" stroke="#7F7F7F" stroke-width="0.1198" stroke-linecap="round" stroke-linejoin="round" fill="#BFBFBF"/>
        <path d="M 118.8165,143.1153 L 121.0053,144.3667 L 123.8116,149.0908 L 121.5666,163.4881 L 118.8165,165.4283 L 118.8165,143.1153 Z" stroke="#7F7F7F" stroke-width="0.1198" stroke-linecap="round" stroke-linejoin="round" fill="#BFBFBF"/>
        <path d="M 132.7074,42.4327 L 135.4295,42.4327 L 135.4715,42.4186 L 135.5277,42.4186 L 135.6960,42.3624 L 135.7381,42.3342 L 135.7802,42.3202 L 135.8223,42.2921 L 135.8504,42.2780 L 135.9346,42.2218 L 135.9626,42.1936 L 135.9907,42.1515 L 136.0328,42.1233 L 136.0609,42.0952 L 136.1170,42.0109 L 136.1310,41.9827 L 136.1591,41.9406 L 136.1731,41.8984 L 136.2012,41.8562 L 136.2573,41.6875 L 136.2573,41.6313 L 136.2713,41.5891 L 136.2713,39.9019 L 136.2573,39.8597 L 136.2573,39.8035 L 136.2012,39.6348 L 136.1731,39.5926 L 136.1591,39.5504 L 136.1310,39.5082 L 136.1170,39.4801 L 136.0609,39.3957 L 136.0328,39.3676 L 135.9907,39.3395 L 135.9626,39.2973 L 135.9346,39.2692 L 135.8504,39.2130 L 135.8223,39.1989 L 135.7802,39.1708 L 135.7381,39.1567 L 135.6960,39.1286 L 135.5277,39.0724 L 135.4715,39.0724 L 135.4295,39.0583 L 132.7074,39.0583 L 132.7074,42.4186 L 132.7074,42.4327 Z" stroke="#000000" stroke-width="0.1198" stroke-linecap="round" stroke-linejoin="round" fill="#666666"/>
        <ellipse cx="134.5525" cy="40.6892" rx="1.2277" ry="1.2373" fill="#E2E2E2" stroke="#000000" stroke-width="0.1198" stroke-linecap="round" stroke-linejoin="round"/>
        <ellipse cx="134.5525" cy="40.6892" rx="1.2277" ry="1.2373" fill="none" stroke="#000000" stroke-width="0.1198" stroke-linecap="round" stroke-linejoin="round"/>
        <ellipse cx="134.5595" cy="40.6822" rx="0.9261" ry="0.9209" fill="#666666" stroke="#000000" stroke-width="0.1198" stroke-linecap="round" stroke-linejoin="round"/>
        <ellipse cx="134.5595" cy="40.6822" rx="0.9261" ry="0.9209" fill="none" stroke="#000000" stroke-width="0.1198" stroke-linecap="round" stroke-linejoin="round"/>
        <ellipse cx="134.5595" cy="40.6822" rx="0.8419" ry="0.8366" fill="#E2E2E2" stroke="#000000" stroke-width="0.1198" stroke-linecap="round" stroke-linejoin="round"/>
        <ellipse cx="134.5595" cy="40.6822" rx="0.8419" ry="0.8366" fill="none" stroke="#7F7F7F" stroke-width="0.1198" stroke-linecap="round" stroke-linejoin="round"/>
        <path d="M 133.9141,40.6049 L 133.8860,40.6049 L 133.8860,40.6189 L 133.8580,40.6189 L 133.8580,40.6471 L 133.8439,40.6471 L 133.8439,40.6611 L 133.8299,40.6752 L 133.8299,40.8158 L 133.8439,40.8298 L 133.8439,40.8439 L 133.8580,40.8580 L 133.8580,40.8720 L 133.8860,40.8720 L 133.8860,40.8861 L 134.4753,40.8861 L 134.4753,41.4766 L 134.4894,41.4907 L 134.4894,41.5047 L 134.5315,41.5469 L 134.5455,41.5469 L 134.5595,41.5610 L 134.6718,41.5610 L 134.6858,41.5469 L 134.6998,41.5469 L 134.7139,41.5328 L 134.7279,41.5328 L 134.7279,41.5188 L 134.7419,41.5047 L 134.7419,41.4907 L 134.7560,41.4766 L 134.7560,40.8861 L 135.3453,40.8861 L 135.3593,40.8720 L 135.3733,40.8720 L 135.3874,40.8580 L 135.4014,40.8580 L 135.4014,40.8439 L 135.4154,40.8298 L 135.4154,40.8158 L 135.4295,40.8017 L 135.4295,40.6892 L 135.4154,40.6752 L 135.4154,40.6611 L 135.3733,40.6189 L 135.3593,40.6189 L 135.3453,40.6049 L 134.7560,40.6049 L 134.7560,40.0144 L 134.7419,40.0144 L 134.7419,39.9862 L 134.7279,39.9862 L 134.7139,39.9722 L 134.6998,39.9722 L 134.6858,39.9581 L 134.5455,39.9581 L 134.5315,39.9722 L 134.5174,39.9722 L 134.5174,39.9862 L 134.4894,39.9862 L 134.4894,40.0144 L 134.4753,40.0144 L 134.4753,40.6049 L 133.9281,40.6049 L 133.9141,40.6049 Z" stroke="#161616" stroke-width="0.1198" stroke-linecap="round" stroke-linejoin="round" fill="#494949"/>
        <path d="M 3.6201,42.4327 L 0.8980,42.4327 L 0.8559,42.4186 L 0.7998,42.4186 L 0.6314,42.3624 L 0.5893,42.3342 L 0.5472,42.3202 L 0.5051,42.2921 L 0.4771,42.2780 L 0.3929,42.2218 L 0.3648,42.1936 L 0.3367,42.1515 L 0.2947,42.1233 L 0.2666,42.0952 L 0.2105,42.0109 L 0.1964,41.9827 L 0.1684,41.9406 L 0.1543,41.8984 L 0.1263,41.8562 L 0.0702,41.6875 L 0.0702,41.6313 L 0.0561,41.5891 L 0.0561,39.9019 L 0.0702,39.8597 L 0.0702,39.8035 L 0.1263,39.6348 L 0.1543,39.5926 L 0.1684,39.5504 L 0.1964,39.5082 L 0.2105,39.4801 L 0.2666,39.3957 L 0.2947,39.3676 L 0.3367,39.3395 L 0.3648,39.2973 L 0.3929,39.2692 L 0.4771,39.2130 L 0.5051,39.1989 L 0.5472,39.1708 L 0.5893,39.1567 L 0.6314,39.1286 L 0.7998,39.0724 L 0.8559,39.0724 L 0.8980,39.0583 L 3.6201,39.0583 L 3.6201,42.4186 L 3.6201,42.4327 Z" stroke="#000000" stroke-width="0.1198" stroke-linecap="round" stroke-linejoin="round" fill="#666666"/>
        <ellipse cx="1.6487" cy="40.6892" rx="1.2277" ry="1.2373" fill="#E2E2E2" stroke="#000000" stroke-width="0.1198" stroke-linecap="round" stroke-linejoin="round"/>
        <ellipse cx="1.6487" cy="40.6892" rx="1.2277" ry="1.2373" fill="none" stroke="#000000" stroke-width="0.1198" stroke-linecap="round" stroke-linejoin="round"/>
        <ellipse cx="1.6557" cy="40.6822" rx="0.9261" ry="0.9209" fill="#666666" stroke="#000000" stroke-width="0.1198" stroke-linecap="round" stroke-linejoin="round"/>
        <ellipse cx="1.6557" cy="40.6822" rx="0.9261" ry="0.9209" fill="none" stroke="#000000" stroke-width="0.1198" stroke-linecap="round" stroke-linejoin="round"/>
        <ellipse cx="1.6487" cy="40.6822" rx="0.8349" ry="0.8366" fill="#E2E2E2" stroke="#000000" stroke-width="0.1198" stroke-linecap="round" stroke-linejoin="round"/>
        <ellipse cx="1.6487" cy="40.6822" rx="0.8349" ry="0.8366" fill="none" stroke="#7F7F7F" stroke-width="0.1198" stroke-linecap="round" stroke-linejoin="round"/>
        <path d="M 2.4134,40.6049 L 2.4414,40.6049 L 2.4414,40.6189 L 2.4695,40.6189 L 2.4695,40.6330 L 2.4835,40.6471 L 2.4835,40.6611 L 2.4976,40.6752 L 2.4976,40.8158 L 2.4835,40.8298 L 2.4835,40.8580 L 2.4695,40.8580 L 2.4695,40.8720 L 2.4414,40.8720 L 2.4414,40.8861 L 1.8521,40.8861 L 1.8521,41.4766 L 1.8381,41.4907 L 1.8381,41.5047 L 1.8241,41.5188 L 1.8241,41.5328 L 1.8100,41.5328 L 1.7960,41.5469 L 1.7820,41.5469 L 1.7679,41.5610 L 1.6557,41.5610 L 1.6417,41.5469 L 1.6276,41.5469 L 1.5855,41.5047 L 1.5855,41.4907 L 1.5715,41.4766 L 1.5715,40.8861 L 0.9822,40.8861 L 0.9682,40.8720 L 0.9541,40.8720 L 0.9120,40.8298 L 0.9120,40.8158 L 0.8980,40.8017 L 0.8980,40.6892 L 0.9120,40.6752 L 0.9120,40.6611 L 0.9261,40.6471 L 0.9401,40.6471 L 0.9401,40.6330 L 0.9541,40.6189 L 0.9682,40.6189 L 0.9822,40.6049 L 1.5715,40.6049 L 1.5715,40.0144 L 1.5855,40.0144 L 1.5855,39.9862 L 1.6136,39.9862 L 1.6136,39.9722 L 1.6276,39.9722 L 1.6417,39.9581 L 1.7820,39.9581 L 1.7960,39.9722 L 1.8100,39.9722 L 1.8241,39.9862 L 1.8381,39.9862 L 1.8381,40.0144 L 1.8521,40.0144 L 1.8521,40.6049 L 2.3993,40.6049 L 2.4134,40.6049 Z" stroke="#161616" stroke-width="0.1198" stroke-linecap="round" stroke-linejoin="round" fill="#494949"/>
        <path d="M 132.7074,0.8155 L 3.6201,0.8155 L 3.6201,42.4327 L 132.7074,42.4327 L 132.7074,0.8155 Z" stroke="#000000" stroke-width="0.1198" stroke-linecap="round" stroke-linejoin="round" fill="#000000"/>
        <path d="M 61.3726,174.2861 L 61.3726,166.4969 L 11.8704,166.4969 L 11.8704,174.2861 L 61.3726,174.2861 Z" stroke="#000000" stroke-width="0.1198" stroke-linecap="round" stroke-linejoin="round" fill="#494949"/>
        <path d="M 131.8655,1.7153 L 4.4619,1.7153 L 4.4619,42.4327 L 131.8655,42.4327 L 131.8655,1.7153 Z" stroke="#000000" stroke-width="0.1198" stroke-linecap="round" stroke-linejoin="round" fill="#666666"/>
        <path d="M 13.9190,0.8155 L 8.1381,0.8155 L 8.1381,1.7153 L 13.9190,1.7153 L 13.9190,0.8155 Z" stroke="#000000" stroke-width="0.1198" stroke-linecap="round" stroke-linejoin="round" fill="#666666"/>
        <path d="M 28.2028,0.8155 L 22.4219,0.8155 L 22.4219,1.7153 L 28.2028,1.7153 L 28.2028,0.8155 Z" stroke="#000000" stroke-width="0.1198" stroke-linecap="round" stroke-linejoin="round" fill="#666666"/>
        <path d="M 42.4866,0.8155 L 36.7057,0.8155 L 36.7057,1.7153 L 42.4866,1.7153 L 42.4866,0.8155 Z" stroke="#000000" stroke-width="0.1198" stroke-linecap="round" stroke-linejoin="round" fill="#666666"/>
        <path d="M 56.7704,0.8155 L 50.9895,0.8155 L 50.9895,1.7153 L 56.7704,1.7153 L 56.7704,0.8155 Z" stroke="#000000" stroke-width="0.1198" stroke-linecap="round" stroke-linejoin="round" fill="#666666"/>
        <path d="M 71.0542,0.8155 L 65.2733,0.8155 L 65.2733,1.7153 L 71.0542,1.7153 L 71.0542,0.8155 Z" stroke="#000000" stroke-width="0.1198" stroke-linecap="round" stroke-linejoin="round" fill="#666666"/>
        <path d="M 85.3380,0.8155 L 79.5571,0.8155 L 79.5571,1.7153 L 85.3380,1.7153 L 85.3380,0.8155 Z" stroke="#000000" stroke-width="0.1198" stroke-linecap="round" stroke-linejoin="round" fill="#666666"/>
        <path d="M 99.6218,0.8155 L 93.8409,0.8155 L 93.8409,1.7153 L 99.6218,1.7153 L 99.6218,0.8155 Z" stroke="#000000" stroke-width="0.1198" stroke-linecap="round" stroke-linejoin="round" fill="#666666"/>
        <path d="M 113.9055,0.8155 L 108.1247,0.8155 L 108.1247,1.7153 L 113.9055,1.7153 L 113.9055,0.8155 Z" stroke="#000000" stroke-width="0.1198" stroke-linecap="round" stroke-linejoin="round" fill="#666666"/>
        <path d="M 128.1893,0.8155 L 122.4085,0.8155 L 122.4085,1.7153 L 128.1893,1.7153 L 128.1893,0.8155 Z" stroke="#000000" stroke-width="0.1198" stroke-linecap="round" stroke-linejoin="round" fill="#666666"/>
        <path d="M 124.4570,174.2861 L 124.4570,166.4969 L 74.9548,166.4969 L 74.9548,174.2861 L 124.4570,174.2861 Z" stroke="#000000" stroke-width="0.1198" stroke-linecap="round" stroke-linejoin="round" fill="#494949"/>
        <path d="M 130.9114,165.4002 L 5.4161,165.4002 L 5.4161,166.4828 L 130.9114,166.4828 L 130.9114,165.4002 Z" stroke="#000000" stroke-width="0.1198" stroke-linecap="round" stroke-linejoin="round" fill="#BFBFBF"/>
        <path d="M 130.9114,47.7332 L 5.4161,47.7332 L 5.4161,42.4327 L 130.9114,42.4327 L 130.9114,47.7332 Z" stroke="#000000" stroke-width="0.1198" stroke-linecap="round" stroke-linejoin="round" fill="#BFBFBF"/>
        <ellipse cx="64.5156" cy="170.3352" rx="1.2347" ry="1.2373" fill="#E2E2E2" stroke="#000000" stroke-width="0.1198" stroke-linecap="round" stroke-linejoin="round"/>
        <ellipse cx="64.5156" cy="170.3352" rx="1.2347" ry="1.2373" fill="none" stroke="#000000" stroke-width="0.1198" stroke-linecap="round" stroke-linejoin="round"/>
        <ellipse cx="64.5156" cy="170.3282" rx="0.9261" ry="0.9209" fill="#666666" stroke="#000000" stroke-width="0.1198" stroke-linecap="round" stroke-linejoin="round"/>
        <ellipse cx="64.5156" cy="170.3282" rx="0.9261" ry="0.9209" fill="none" stroke="#000000" stroke-width="0.1198" stroke-linecap="round" stroke-linejoin="round"/>
        <ellipse cx="64.5086" cy="170.3282" rx="0.8349" ry="0.8366" fill="#E2E2E2" stroke="#000000" stroke-width="0.1198" stroke-linecap="round" stroke-linejoin="round"/>
        <ellipse cx="64.5086" cy="170.3282" rx="0.8349" ry="0.8366" fill="none" stroke="#7F7F7F" stroke-width="0.1198" stroke-linecap="round" stroke-linejoin="round"/>
        <path d="M 65.2733,170.2509 L 65.3014,170.2509 L 65.3014,170.2649 L 65.3294,170.2649 L 65.3294,170.2790 L 65.3434,170.2931 L 65.3434,170.3071 L 65.3575,170.3212 L 65.3575,170.4618 L 65.3434,170.4758 L 65.3434,170.5040 L 65.3294,170.5040 L 65.3294,170.5180 L 65.3014,170.5180 L 65.3014,170.5321 L 64.7120,170.5321 L 64.7120,171.1226 L 64.6980,171.1366 L 64.6980,171.1507 L 64.6840,171.1648 L 64.6840,171.1788 L 64.6700,171.1788 L 64.6559,171.1929 L 64.6419,171.1929 L 64.6279,171.2069 L 64.5156,171.2069 L 64.5016,171.1929 L 64.4875,171.1929 L 64.4455,171.1507 L 64.4455,171.1366 L 64.4314,171.1226 L 64.4314,170.5321 L 63.8421,170.5321 L 63.8281,170.5180 L 63.8140,170.5180 L 63.7720,170.4758 L 63.7720,170.4618 L 63.7579,170.4477 L 63.7579,170.3352 L 63.7720,170.3212 L 63.7720,170.3071 L 63.7860,170.2931 L 63.8000,170.2931 L 63.8000,170.2790 L 63.8140,170.2649 L 63.8281,170.2649 L 63.8421,170.2509 L 64.4314,170.2509 L 64.4314,169.6604 L 64.4455,169.6604 L 64.4455,169.6322 L 64.4735,169.6322 L 64.4735,169.6182 L 64.4875,169.6182 L 64.5016,169.6041 L 64.6419,169.6041 L 64.6559,169.6182 L 64.6700,169.6182 L 64.6840,169.6322 L 64.6980,169.6322 L 64.6980,169.6604 L 64.7120,169.6604 L 64.7120,170.2509 L 65.2593,170.2509 L 65.2733,170.2509 Z" stroke="#161616" stroke-width="0.1198" stroke-linecap="round" stroke-linejoin="round" fill="#494949"/>
        <text font-family="Symbol" fill="#FFFFFF" style="white-space:pre;" text-anchor="start" x="33.0629" y="8.0390" font-size="0.6872"><![CDATA[]]></text>
        <path d="M 9.0389,8.1616 L 8.9971,8.1616 L 8.9763,8.1409 L 8.9554,8.1409 L 8.8928,8.0786 L 8.8928,8.0578 L 8.8719,8.0370 L 8.8719,5.6280 L 8.8928,5.6072 L 8.8928,5.5865 L 8.9136,5.5657 L 8.9345,5.5657 L 8.9345,5.5449 L 8.9554,5.5242 L 8.9763,5.5242 L 8.9971,5.5034 L 11.8361,5.5034 L 11.8570,5.5242 L 11.8779,5.5242 L 11.9405,5.5865 L 11.9405,5.6072 L 11.9614,5.6280 L 11.9614,6.1057 L 11.9405,6.1057 L 11.9405,6.0849 L 11.9196,6.0849 L 11.9196,6.0641 L 11.8988,6.0641 L 11.8988,6.0434 L 11.8570,6.0434 L 11.8570,6.0226 L 9.5608,6.0226 L 9.5608,6.0434 L 9.5190,6.0434 L 9.5190,6.0641 L 9.4981,6.0641 L 9.4981,6.1057 L 9.4773,6.1057 L 9.4773,8.0786 L 9.4981,8.0786 L 9.4981,8.1201 L 9.5190,8.1201 L 9.5190,8.1409 L 9.5399,8.1409 L 9.5399,8.1616 L 9.0598,8.1616 L 9.0389,8.1616 Z" stroke="#FFFFFF" stroke-width="0.1198" stroke-linecap="round" stroke-linejoin="round" fill="#FFFFFF"/>
        <path d="M 11.7526,6.6248 L 9.6860,6.6248 L 9.6860,6.6041 L 9.6443,6.6041 L 9.6443,6.5833 L 9.6234,6.5833 L 9.6234,6.5418 L 9.6025,6.5418 L 9.6025,7.0610 L 9.6234,7.0610 L 9.6234,7.1025 L 9.6443,7.1025 L 9.6443,7.1233 L 9.6860,7.1233 L 9.6860,7.1440 L 11.7944,7.1440 L 11.8361,7.1025 L 11.8570,7.1025 L 11.8988,7.0610 L 11.8988,7.0402 L 11.9196,7.0194 L 11.9196,6.9987 L 11.9405,6.9779 L 11.9405,6.9364 L 11.9614,6.9156 L 11.9614,6.8533 L 11.9405,6.8325 L 11.9405,6.7702 L 11.8988,6.7287 L 11.8988,6.7079 L 11.8779,6.6871 L 11.8570,6.6871 L 11.8570,6.6664 L 11.8361,6.6664 L 11.8153,6.6456 L 11.7944,6.6456 L 11.7735,6.6248 L 11.7526,6.6248 Z" stroke="#FFFFFF" stroke-width="0.1198" stroke-linecap="round" stroke-linejoin="round" fill="#FFFFFF"/>
        <path d="M 16.5748,7.1440 L 16.5330,7.1440 L 16.5330,7.1233 L 16.4913,7.1233 L 16.4913,7.1025 L 16.4704,7.1025 L 16.4704,7.0610 L 16.4495,7.0610 L 16.4495,6.5418 L 16.4704,6.5418 L 16.4704,6.5833 L 16.4913,6.5833 L 16.4913,6.6041 L 16.5330,6.6041 L 16.5330,6.6248 L 18.2030,6.6248 L 18.2030,6.0226 L 16.4078,6.0226 L 16.4078,6.0434 L 16.3660,6.0434 L 16.3660,6.0641 L 16.3451,6.0641 L 16.3451,6.1057 L 16.3243,6.1057 L 16.3243,8.0786 L 16.3451,8.0786 L 16.3451,8.1201 L 16.3660,8.1201 L 16.3660,8.1409 L 16.3869,8.1409 L 16.3869,8.1616 L 15.8441,8.1616 L 15.8233,8.1409 L 15.8024,8.1409 L 15.7398,8.0786 L 15.7398,8.0578 L 15.7189,8.0370 L 15.7189,5.6280 L 15.7398,5.6072 L 15.7398,5.5865 L 15.7606,5.5657 L 15.7815,5.5657 L 15.7815,5.5449 L 15.8024,5.5242 L 15.8233,5.5242 L 15.8441,5.5034 L 18.6831,5.5034 L 18.7040,5.5242 L 18.7249,5.5242 L 18.7875,5.5865 L 18.7875,5.6072 L 18.8084,5.6280 L 18.8084,6.9364 L 18.7875,6.9571 L 18.7875,6.9987 L 18.7666,6.9987 L 18.7666,7.0194 L 18.7458,7.0402 L 18.7458,7.0610 L 18.7249,7.0610 L 18.7249,7.0817 L 18.7040,7.0817 L 18.7040,7.1025 L 18.6831,7.1025 L 18.6831,7.1233 L 18.6623,7.1233 L 18.6414,7.1440 L 18.6623,7.1648 L 18.6831,7.1648 L 18.6831,7.1856 L 18.7040,7.1856 L 18.7040,7.2063 L 18.7249,7.2063 L 18.7249,7.2271 L 18.7458,7.2271 L 18.7458,7.2479 L 18.7666,7.2686 L 18.7666,7.2894 L 18.7875,7.2894 L 18.7875,7.3309 L 18.8084,7.3517 L 18.8084,8.0786 L 18.8293,8.0786 L 18.8293,8.1201 L 18.8501,8.1201 L 18.8501,8.1409 L 18.8710,8.1409 L 18.8710,8.1616 L 18.3283,8.1616 L 18.3074,8.1409 L 18.2865,8.1409 L 18.2239,8.0786 L 18.2239,8.0578 L 18.2030,8.0370 L 18.2030,7.1440 L 16.5956,7.1440 L 16.5748,7.1440 Z" stroke="#FFFFFF" stroke-width="0.1198" stroke-linecap="round" stroke-linejoin="round" fill="#FFFFFF"/>
        <path d="M 19.8939,6.0226 L 19.2676,6.0226 L 19.2468,6.0018 L 19.2259,6.0018 L 19.1633,5.9395 L 19.1633,5.9187 L 19.1424,5.8980 L 19.1424,5.6280 L 19.1633,5.6072 L 19.1633,5.5865 L 19.1841,5.5657 L 19.2050,5.5657 L 19.2050,5.5449 L 19.2259,5.5242 L 19.2468,5.5242 L 19.2676,5.5034 L 22.1066,5.5034 L 22.1275,5.5242 L 22.1484,5.5242 L 22.2110,5.5865 L 22.2110,5.6072 L 22.2319,5.6280 L 22.2319,6.1057 L 22.2110,6.1057 L 22.2110,6.0849 L 22.1901,6.0849 L 22.1901,6.0641 L 22.1693,6.0641 L 22.1693,6.0434 L 22.1275,6.0434 L 22.1275,6.0226 L 20.5828,6.0226 L 20.5828,6.0434 L 20.5410,6.0434 L 20.5410,6.0641 L 20.5201,6.0641 L 20.5201,6.1057 L 20.4993,6.1057 L 20.4993,8.0786 L 20.5201,8.0786 L 20.5201,8.1201 L 20.5410,8.1201 L 20.5410,8.1409 L 20.5619,8.1409 L 20.5619,8.1616 L 20.0191,8.1616 L 19.9983,8.1409 L 19.9774,8.1409 L 19.9148,8.0786 L 19.9148,8.0578 L 19.8939,8.0370 L 19.8939,6.0849 L 19.8939,6.0226 Z" stroke="#FFFFFF" stroke-width="0.1198" stroke-linecap="round" stroke-linejoin="round" fill="#FFFFFF"/>
        <path d="M 23.1713,8.0163 L 23.1713,8.0786 L 23.1921,8.0786 L 23.1921,8.1201 L 23.2130,8.1201 L 23.2130,8.1409 L 23.2339,8.1409 L 23.2339,8.1616 L 22.6911,8.1616 L 22.6703,8.1409 L 22.6494,8.1409 L 22.5868,8.0786 L 22.5868,8.0578 L 22.5659,8.0370 L 22.5659,5.5865 L 22.5450,5.5865 L 22.5450,5.5449 L 22.5241,5.5449 L 22.5241,5.5242 L 22.5033,5.5242 L 22.5033,5.5034 L 23.0460,5.5034 L 23.0669,5.5242 L 23.0878,5.5242 L 23.1504,5.5865 L 23.1504,5.6072 L 23.1713,5.6280 L 23.1713,7.9955 L 23.1713,8.0163 Z" stroke="#FFFFFF" stroke-width="0.1198" stroke-linecap="round" stroke-linejoin="round" fill="#FFFFFF"/>
        <path d="M 26.1355,6.0226 L 24.3403,6.0226 L 24.3403,6.0434 L 24.2985,6.0434 L 24.2985,6.0641 L 24.2776,6.0641 L 24.2776,6.1057 L 24.2568,6.1057 L 24.2568,8.0786 L 24.2776,8.0786 L 24.2776,8.1201 L 24.2985,8.1201 L 24.2985,8.1409 L 24.3194,8.1409 L 24.3194,8.1616 L 23.7766,8.1616 L 23.7558,8.1409 L 23.7349,8.1409 L 23.6723,8.0786 L 23.6723,8.0578 L 23.6514,8.0370 L 23.6514,5.6280 L 23.6723,5.6072 L 23.6723,5.5865 L 23.6931,5.5657 L 23.7140,5.5657 L 23.7140,5.5449 L 23.7349,5.5242 L 23.7558,5.5242 L 23.7766,5.5034 L 26.6156,5.5034 L 26.6365,5.5242 L 26.6574,5.5242 L 26.7200,5.5865 L 26.7200,5.6072 L 26.7409,5.6280 L 26.7409,8.0786 L 26.7618,8.0786 L 26.7618,8.1201 L 26.7826,8.1201 L 26.7826,8.1409 L 26.8035,8.1409 L 26.8035,8.1616 L 26.2608,8.1616 L 26.2399,8.1409 L 26.2190,8.1409 L 26.1564,8.0786 L 26.1564,8.0578 L 26.1355,8.0370 L 26.1355,6.0849 L 26.1355,6.0226 Z" stroke="#FFFFFF" stroke-width="0.1198" stroke-linecap="round" stroke-linejoin="round" fill="#FFFFFF"/>
        <path d="M 29.8095,6.6248 L 27.8890,6.6248 L 27.8681,6.6041 L 27.8473,6.6041 L 27.8473,6.5833 L 27.8264,6.5833 L 27.8264,6.5418 L 27.8055,6.5418 L 27.8055,7.0610 L 27.8264,7.0610 L 27.8264,7.1025 L 27.8473,7.1025 L 27.8473,7.1233 L 27.8681,7.1233 L 27.8890,7.1440 L 29.8304,7.1440 L 29.8721,7.1025 L 29.8930,7.1025 L 29.9348,7.0610 L 29.9348,7.0402 L 29.9556,7.0194 L 29.9556,6.9987 L 29.9765,6.9779 L 29.9765,6.9364 L 29.9974,6.9156 L 29.9974,6.8325 L 29.9765,6.8118 L 29.9765,6.7494 L 29.9556,6.7494 L 29.9556,6.7287 L 29.8930,6.6664 L 29.8721,6.6664 L 29.8721,6.6456 L 29.8513,6.6456 L 29.8304,6.6248 L 29.8095,6.6248 Z" stroke="#FFFFFF" stroke-width="0.1198" stroke-linecap="round" stroke-linejoin="round" fill="#FFFFFF"/>
        <path d="M 31.2499,6.0226 L 30.6236,6.0226 L 30.6028,6.0018 L 30.5819,6.0018 L 30.5193,5.9395 L 30.5193,5.9187 L 30.4984,5.8980 L 30.4984,5.6280 L 30.5193,5.6072 L 30.5193,5.5865 L 30.5401,5.5657 L 30.5610,5.5657 L 30.5610,5.5449 L 30.5819,5.5242 L 30.6028,5.5242 L 30.6236,5.5034 L 33.4626,5.5034 L 33.4835,5.5242 L 33.5044,5.5242 L 33.5670,5.5865 L 33.5670,5.6072 L 33.5879,5.6280 L 33.5879,6.1057 L 33.5670,6.1057 L 33.5670,6.0849 L 33.5461,6.0849 L 33.5461,6.0641 L 33.5253,6.0641 L 33.5253,6.0434 L 33.4835,6.0434 L 33.4835,6.0226 L 31.9388,6.0226 L 31.9388,6.0434 L 31.8970,6.0434 L 31.8970,6.0641 L 31.8761,6.0641 L 31.8761,6.1057 L 31.8553,6.1057 L 31.8553,8.0786 L 31.8761,8.0786 L 31.8761,8.1201 L 31.8970,8.1201 L 31.8970,8.1409 L 31.9179,8.1409 L 31.9179,8.1616 L 31.3751,8.1616 L 31.3543,8.1409 L 31.3334,8.1409 L 31.2708,8.0786 L 31.2708,8.0578 L 31.2499,8.0370 L 31.2499,6.0849 L 31.2499,6.0226 Z" stroke="#FFFFFF" stroke-width="0.1198" stroke-linecap="round" stroke-linejoin="round" fill="#FFFFFF"/>
        <path d="M 30.0183,7.6425 L 30.0600,7.6425 L 30.0600,7.6217 L 30.1018,7.6217 L 30.1018,7.6009 L 30.1226,7.6009 L 30.1226,7.5801 L 30.1435,7.5801 L 30.1435,7.5594 L 30.1644,7.5594 L 30.1644,8.0370 L 30.1435,8.0578 L 30.1435,8.0786 L 30.1226,8.0993 L 30.1226,8.1201 L 30.1018,8.1201 L 30.0809,8.1409 L 30.0600,8.1409 L 30.0391,8.1616 L 27.2001,8.1616 L 27.1793,8.1409 L 27.1584,8.1409 L 27.0958,8.0786 L 27.0958,8.0578 L 27.0749,8.0370 L 27.0749,5.6280 L 27.0958,5.6072 L 27.0958,5.5865 L 27.1166,5.5657 L 27.1375,5.5657 L 27.1375,5.5449 L 27.1584,5.5242 L 27.1793,5.5242 L 27.2001,5.5034 L 30.0391,5.5034 L 30.0600,5.5242 L 30.0809,5.5242 L 30.1435,5.5865 L 30.1435,5.6072 L 30.1644,5.6280 L 30.1644,6.1057 L 30.1435,6.1057 L 30.1435,6.0849 L 30.1226,6.0849 L 30.1226,6.0641 L 30.1018,6.0641 L 30.1018,6.0434 L 30.0600,6.0434 L 30.0600,6.0226 L 27.7638,6.0226 L 27.7638,6.0434 L 27.7220,6.0434 L 27.7220,6.0641 L 27.7011,6.0641 L 27.7011,6.1057 L 27.6803,6.1057 L 27.6803,7.6425 L 29.9974,7.6425 L 30.0183,7.6425 Z" stroke="#FFFFFF" stroke-width="0.1198" stroke-linecap="round" stroke-linejoin="round" fill="#FFFFFF"/>
        <path d="M 13.3391,7.3932 L 13.3391,8.1616 L 14.3411,8.1616 L 14.3411,7.3932 L 13.3391,7.3932 Z" stroke="#ED3440" stroke-width="0.1198" stroke-linecap="round" stroke-linejoin="round" fill="#ED3440"/>
        <path d="M 12.2954,6.4587 L 13.1513,6.4587 L 13.1513,7.2063 L 12.2954,7.2063 L 12.2954,6.4587 Z" stroke="#ED3440" stroke-width="0.1198" stroke-linecap="round" stroke-linejoin="round" fill="#ED3440"/>
        <path d="M 14.5290,7.3932 L 14.5290,8.1616 L 14.8421,8.1616 L 14.8630,8.1409 L 14.9465,8.1409 L 14.9674,8.1201 L 15.0091,8.1201 L 15.0509,8.0993 L 15.0718,8.0786 L 15.1135,8.0578 L 15.1553,8.0163 L 15.1970,7.9955 L 15.2179,7.9747 L 15.2388,7.9332 L 15.2596,7.9124 L 15.3431,7.7463 L 15.3431,7.7048 L 15.3640,7.6425 L 15.3640,7.5801 L 15.3849,7.5178 L 15.3849,7.3932 L 14.5499,7.3932 L 14.5290,7.3932 Z" stroke="#ED3440" stroke-width="0.1198" stroke-linecap="round" stroke-linejoin="round" fill="#ED3440"/>
        <path d="M 14.5290,6.4587 L 15.3849,6.4587 L 15.3849,7.2063 L 14.5290,7.2063 L 14.5290,6.4587 Z" stroke="#ED3440" stroke-width="0.1198" stroke-linecap="round" stroke-linejoin="round" fill="#ED3440"/>
        <path d="M 13.1513,7.3932 L 13.1513,8.1616 L 12.8381,8.1616 L 12.8173,8.1409 L 12.7338,8.1409 L 12.7129,8.1201 L 12.6711,8.1201 L 12.6294,8.0993 L 12.6085,8.0786 L 12.5668,8.0578 L 12.5250,8.0163 L 12.4833,7.9955 L 12.4624,7.9747 L 12.4415,7.9332 L 12.4206,7.9124 L 12.3371,7.7463 L 12.3371,7.7048 L 12.3163,7.6425 L 12.3163,7.5801 L 12.2954,7.5178 L 12.2954,7.3932 L 13.1304,7.3932 L 13.1513,7.3932 Z" stroke="#ED3440" stroke-width="0.1198" stroke-linecap="round" stroke-linejoin="round" fill="#ED3440"/>
        <path d="M 13.3391,5.5034 L 13.3391,6.2718 L 14.3411,6.2718 L 14.3411,5.5034 L 13.3391,5.5034 Z" stroke="#ED3440" stroke-width="0.1198" stroke-linecap="round" stroke-linejoin="round" fill="#ED3440"/>
        <path d="M 14.5290,6.2718 L 14.5290,5.5034 L 14.8421,5.5034 L 14.8630,5.5242 L 14.9465,5.5242 L 14.9674,5.5449 L 15.0091,5.5449 L 15.0509,5.5657 L 15.0718,5.5865 L 15.1135,5.6072 L 15.1553,5.6488 L 15.1970,5.6695 L 15.2179,5.6903 L 15.2388,5.7318 L 15.2596,5.7526 L 15.3431,5.9187 L 15.3431,5.9603 L 15.3640,6.0226 L 15.3640,6.0849 L 15.3849,6.1472 L 15.3849,6.2718 L 14.5499,6.2718 L 14.5290,6.2718 Z" stroke="#ED3440" stroke-width="0.1198" stroke-linecap="round" stroke-linejoin="round" fill="#ED3440"/>
        <path d="M 13.1513,6.2718 L 13.1513,5.5034 L 12.8381,5.5034 L 12.8173,5.5242 L 12.7338,5.5242 L 12.7129,5.5449 L 12.6711,5.5449 L 12.6294,5.5657 L 12.6085,5.5865 L 12.5668,5.6072 L 12.5250,5.6488 L 12.4833,5.6695 L 12.4624,5.6903 L 12.4415,5.7318 L 12.4206,5.7526 L 12.3371,5.9187 L 12.3371,5.9603 L 12.3163,6.0226 L 12.3163,6.0849 L 12.2954,6.1472 L 12.2954,6.2718 L 13.1304,6.2718 L 13.1513,6.2718 Z" stroke="#ED3440" stroke-width="0.1198" stroke-linecap="round" stroke-linejoin="round" fill="#ED3440"/>
        <text font-family="Arial" fill="#000000" style="white-space:pre;" font-weight="400" text-anchor="start" x="58.3665" y="25.0031" font-size="0.6680"><![CDATA[14]]></text>
        <text font-family="Arial" fill="#000000" style="white-space:pre;" font-weight="400" text-anchor="start" x="55.0474" y="25.0031" font-size="0.6680"><![CDATA[12]]></text>
        <text font-family="Arial" fill="#000000" style="white-space:pre;" font-weight="400" text-anchor="start" x="51.7074" y="25.0031" font-size="0.6680"><![CDATA[10]]></text>
        <text font-family="Arial" fill="#000000" style="white-space:pre;" font-weight="400" text-anchor="start" x="48.5761" y="25.0031" font-size="0.6680"><![CDATA[8]]></text>
        <text font-family="Arial" fill="#000000" style="white-space:pre;" font-weight="400" text-anchor="start" x="45.2361" y="25.0031" font-size="0.6680"><![CDATA[6]]></text>
        <text font-family="Arial" fill="#000000" style="white-space:pre;" font-weight="400" text-anchor="start" x="41.9170" y="25.0238" font-size="0.6680"><![CDATA[4]]></text>
        <text font-family="Arial" fill="#000000" style="white-space:pre;" font-weight="400" text-anchor="start" x="38.5979" y="25.0238" font-size="0.6680"><![CDATA[2]]></text>
        <text font-family="Arial" fill="#000000" style="white-space:pre;" font-weight="400" text-anchor="start" x="35.2579" y="25.0031" font-size="0.6680"><![CDATA[1]]></text>
        <text font-family="Arial" fill="#000000" style="white-space:pre;" font-weight="400" text-anchor="start" x="31.9388" y="25.0031" font-size="0.6680"><![CDATA[3]]></text>
        <text font-family="Arial" fill="#000000" style="white-space:pre;" font-weight="400" text-anchor="start" x="28.6196" y="25.0031" font-size="0.6680"><![CDATA[5]]></text>
        <text font-family="Arial" fill="#000000" style="white-space:pre;" font-weight="400" text-anchor="start" x="25.2796" y="25.0031" font-size="0.6680"><![CDATA[7]]></text>
        <text font-family="Arial" fill="#000000" style="white-space:pre;" font-weight="400" text-anchor="start" x="21.9605" y="25.0031" font-size="0.6680"><![CDATA[9]]></text>
        <text font-family="Arial" fill="#000000" style="white-space:pre;" font-weight="400" text-anchor="start" x="18.4326" y="25.0031" font-size="0.6680"><![CDATA[11]]></text>
        <text font-family="Arial" fill="#000000" style="white-space:pre;" font-weight="400" text-anchor="start" x="15.1135" y="25.0031" font-size="0.6680"><![CDATA[13]]></text>
        <ellipse cx="2.6572" cy="148.5984" rx="1.1328" ry="1.1245" fill="#BFBFBF" stroke="#000000" stroke-width="0.1198" stroke-linecap="round" stroke-linejoin="round"/>
        <ellipse cx="2.6572" cy="148.5984" rx="1.1328" ry="1.1245" fill="none" stroke="#494949" stroke-width="0.1198" stroke-linecap="round" stroke-linejoin="round"/>
        <ellipse cx="2.6572" cy="148.5984" rx="0.6246" ry="0.6153" fill="#000000" stroke="#000000" stroke-width="0.1198" stroke-linecap="round" stroke-linejoin="round"/>
        <ellipse cx="2.6572" cy="148.5984" rx="0.6246" ry="0.6153" fill="none" stroke="#494949" stroke-width="0.1198" stroke-linecap="round" stroke-linejoin="round"/>
        <text font-family="Arial" fill="#FFFFFF" style="white-space:pre;" font-weight="400" text-anchor="start" x="46.5599" y="164.9312" font-size="0.8681"><![CDATA[FortiGate 5144C]]></text>
        <path d="M 67.5564,139.2969 L 67.5564,45.5045 L 59.2759,45.5045 L 59.2759,139.2969 L 67.5564,139.2969 Z" stroke="#000000" stroke-width="0.1198" stroke-linecap="round" stroke-linejoin="round" fill="none"/>
        <path d="M 76.5490,139.2969 L 76.5490,45.5045 L 68.2685,45.5045 L 68.2685,139.2969 L 76.5490,139.2969 Z" stroke="#000000" stroke-width="0.1198" stroke-linecap="round" stroke-linejoin="round" fill="none"/>
        <path d="M 58.6336,139.2969 L 58.6336,45.5045 L 50.3531,45.5045 L 50.3531,139.2969 L 58.6336,139.2969 Z" stroke="#000000" stroke-width="0.1198" stroke-linecap="round" stroke-linejoin="round" fill="none"/>
        <path d="M 85.4718,139.2969 L 85.4718,45.5045 L 77.1913,45.5045 L 77.1913,139.2969 L 85.4718,139.2969 Z" stroke="#000000" stroke-width="0.1198" stroke-linecap="round" stroke-linejoin="round" fill="none"/>
        <path d="M 49.7108,139.2969 L 49.7108,45.5045 L 41.4303,45.5045 L 41.4303,139.2969 L 49.7108,139.2969 Z" stroke="#000000" stroke-width="0.1198" stroke-linecap="round" stroke-linejoin="round" fill="none"/>
        <path d="M 94.3946,139.2969 L 94.3946,45.5045 L 86.1141,45.5045 L 86.1141,139.2969 L 94.3946,139.2969 Z" stroke="#000000" stroke-width="0.1198" stroke-linecap="round" stroke-linejoin="round" fill="none"/>
        <path d="M 40.7321,139.2969 L 40.7321,45.5045 L 32.4516,45.5045 L 32.4516,139.2969 L 40.7321,139.2969 Z" stroke="#000000" stroke-width="0.1198" stroke-linecap="round" stroke-linejoin="round" fill="none"/>
        <path d="M 103.3733,139.2969 L 103.3733,45.5045 L 95.0928,45.5045 L 95.0928,139.2969 L 103.3733,139.2969 Z" stroke="#000000" stroke-width="0.1198" stroke-linecap="round" stroke-linejoin="round" fill="none"/>
        <path d="M 31.7953,139.2969 L 31.7953,45.5045 L 23.5149,45.5045 L 23.5149,139.2969 L 31.7953,139.2969 Z" stroke="#000000" stroke-width="0.1198" stroke-linecap="round" stroke-linejoin="round" fill="none"/>
        <path d="M 112.3100,139.2969 L 112.3100,45.5045 L 104.0296,45.5045 L 104.0296,139.2969 L 112.3100,139.2969 Z" stroke="#000000" stroke-width="0.1198" stroke-linecap="round" stroke-linejoin="round" fill="none"/>
        <path d="M 22.8167,139.2969 L 22.8167,45.5045 L 14.5362,45.5045 L 14.5362,139.2969 L 22.8167,139.2969 Z" stroke="#000000" stroke-width="0.1198" stroke-linecap="round" stroke-linejoin="round" fill="none"/>
        <path d="M 121.2887,139.2969 L 121.2887,45.5045 L 113.0082,45.5045 L 113.0082,139.2969 L 121.2887,139.2969 Z" stroke="#000000" stroke-width="0.1198" stroke-linecap="round" stroke-linejoin="round" fill="none"/>
        <path d="M 13.8939,139.2969 L 13.8939,45.5045 L 5.6134,45.5045 L 5.6134,139.2969 L 13.8939,139.2969 Z" stroke="#000000" stroke-width="0.1198" stroke-linecap="round" stroke-linejoin="round" fill="none"/>
        <path d="M 130.2115,139.2969 L 130.2115,45.5045 L 121.9310,45.5045 L 121.9310,139.2969 L 130.2115,139.2969 Z" stroke="#000000" stroke-width="0.1198" stroke-linecap="round" stroke-linejoin="round" fill="none"/>
        <path d="M 61.3754,166.4392 L 11.8936,166.4392 L 11.8936,174.2296 L 61.3754,174.2296 L 61.3754,166.4392 " stroke="#000000" stroke-width="0.1198" stroke-linecap="round" stroke-linejoin="round" fill="none"/>
        <path d="M 124.4199,166.4392 L 74.9380,166.4392 L 74.9380,174.2296 L 124.4199,174.2296 L 124.4199,166.4392 " stroke="#000000" stroke-width="0.1198" stroke-linecap="round" stroke-linejoin="round" fill="none"/>
      </g>
      <!--emf-blob end-->
    </g>
  </g>
</svg>
