<svg xmlns="http://www.w3.org/2000/svg" xmlns:xlink="http://www.w3.org/1999/xlink" version="1.1" width="7.6704000000" height="3.9984000000" viewBox="0 0 138.0699 71.9697">
  <title><![CDATA[FG-5020]]></title>
  <g transform=" scale(4.000000) ">
    <!--converted by libvisio2svg-->
    <g transform=" translate(0.720000,0.720000) ">
      <!--emf-blob start-->
      <g transform="translate(-0.0000, -0.0000)">
        <path d="M 113.7545,1.9343 L 113.7545,3.5497 L 115.1882,3.5497 " stroke="#000000" stroke-width="0.1199" stroke-linecap="round" stroke-linejoin="round" fill="none"/>
        <path d="M 115.1882,1.9343 L 118.0179,1.9343 " stroke="#000000" stroke-width="0.1199" stroke-linecap="round" stroke-linejoin="round" fill="none"/>
        <path d="M 116.5842,1.9343 L 116.5842,3.5497 " stroke="#000000" stroke-width="0.1199" stroke-linecap="round" stroke-linejoin="round" fill="none"/>
        <path d="M 118.7348,1.9343 L 118.7348,3.5497 " stroke="#000000" stroke-width="0.1199" stroke-linecap="round" stroke-linejoin="round" fill="none"/>
        <path d="M 118.7348,1.9343 L 118.7348,3.5497 " stroke="#000000" stroke-width="0.1199" stroke-linecap="round" stroke-linejoin="round" fill="none"/>
        <path d="M 120.1307,3.5497 L 120.1307,1.9343 L 121.5645,3.5497 L 122.9982,1.9343 L 122.9982,3.5497 " stroke="#000000" stroke-width="0.1199" stroke-linecap="round" stroke-linejoin="round" fill="none"/>
        <path d="M 123.6773,3.5497 L 125.1110,1.9343 L 126.5448,3.5497 " stroke="#000000" stroke-width="0.1199" stroke-linecap="round" stroke-linejoin="round" fill="none"/>
        <path d="M 124.0546,3.1459 L 126.1675,3.1459 " stroke="#000000" stroke-width="0.1199" stroke-linecap="round" stroke-linejoin="round" fill="none"/>
        <path d="M 109.4910,3.5497 L 110.9247,1.9343 L 112.3585,3.5497 " stroke="#000000" stroke-width="0.1199" stroke-linecap="round" stroke-linejoin="round" fill="none"/>
        <path d="M 109.8683,3.1459 L 111.9812,3.1459 " stroke="#000000" stroke-width="0.1199" stroke-linecap="round" stroke-linejoin="round" fill="none"/>
        <path d="M 113.7545,1.9343 L 113.7545,3.5497 L 115.1882,3.5497 " stroke="#000000" stroke-width="0.1199" stroke-linecap="round" stroke-linejoin="round" fill="none"/>
        <path d="M 115.1882,1.9343 L 118.0179,1.9343 " stroke="#000000" stroke-width="0.1199" stroke-linecap="round" stroke-linejoin="round" fill="none"/>
        <path d="M 116.5842,1.9343 L 116.5842,3.5497 " stroke="#000000" stroke-width="0.1199" stroke-linecap="round" stroke-linejoin="round" fill="none"/>
        <path d="M 118.7348,1.9343 L 118.7348,3.5497 " stroke="#000000" stroke-width="0.1199" stroke-linecap="round" stroke-linejoin="round" fill="none"/>
        <path d="M 118.7348,1.9343 L 118.7348,3.5497 " stroke="#000000" stroke-width="0.1199" stroke-linecap="round" stroke-linejoin="round" fill="none"/>
        <path d="M 120.1307,3.5497 L 120.1307,1.9343 L 121.5645,3.5497 L 122.9982,1.9343 L 122.9982,3.5497 " stroke="#000000" stroke-width="0.1199" stroke-linecap="round" stroke-linejoin="round" fill="none"/>
        <path d="M 123.6773,3.5497 L 125.1110,1.9343 L 126.5448,3.5497 " stroke="#000000" stroke-width="0.1199" stroke-linecap="round" stroke-linejoin="round" fill="none"/>
        <path d="M 124.0546,3.1459 L 126.1675,3.1459 " stroke="#000000" stroke-width="0.1199" stroke-linecap="round" stroke-linejoin="round" fill="none"/>
        <path d="M 109.4910,3.5497 L 110.9247,1.9343 L 112.3585,3.5497 " stroke="#000000" stroke-width="0.1199" stroke-linecap="round" stroke-linejoin="round" fill="none"/>
        <path d="M 109.8683,3.1459 L 111.9812,3.1459 " stroke="#000000" stroke-width="0.1199" stroke-linecap="round" stroke-linejoin="round" fill="none"/>
        <path d="M 129.1858,0.0281 L 7.2160,0.0281 L 7.2160,37.5879 L 129.1858,37.5879 L 129.1858,0.0281 Z" stroke="#000000" stroke-width="0.1199" stroke-linecap="round" stroke-linejoin="round" fill="#666666"/>
        <path d="M 7.2160,0.0281 L 0.0281,0.0281 L 0.0281,37.5879 L 7.2160,37.5879 L 7.2160,0.0281 Z" stroke="#000000" stroke-width="0.1199" stroke-linecap="round" stroke-linejoin="round" fill="#666666"/>
        <path d="M 7.2160,0.0281 L 6.7387,0.0281 L 6.7387,37.5879 L 7.2160,37.5879 L 7.2160,0.0281 Z" stroke="#000000" stroke-width="0.1199" stroke-linecap="round" stroke-linejoin="round" fill="#494949"/>
        <path d="M 5.0119,10.4864 L 5.0119,10.3739 L 4.9557,10.1490 L 4.9276,10.0506 L 4.8855,9.9522 L 4.8294,9.8679 L 4.6890,9.6992 L 4.5205,9.5586 L 4.4363,9.5024 L 4.3380,9.4602 L 4.2397,9.4321 L 4.0151,9.3759 L 2.5691,9.3759 L 2.3445,9.4321 L 2.2462,9.4602 L 2.1479,9.5024 L 2.0637,9.5586 L 1.8952,9.6992 L 1.7549,9.8679 L 1.6987,9.9522 L 1.6566,10.0506 L 1.6285,10.1490 L 1.5724,10.3739 L 1.5724,10.5988 L 1.6285,10.8237 L 1.6566,10.9221 L 1.6987,11.0205 L 1.7549,11.1049 L 1.8952,11.2736 L 2.0637,11.4141 L 2.1479,11.4703 L 2.2462,11.5125 L 2.3445,11.5406 L 2.5691,11.5969 L 4.0151,11.5969 L 4.2397,11.5406 L 4.3380,11.5125 L 4.4363,11.4703 L 4.5205,11.4141 L 4.6890,11.2736 L 4.8294,11.1049 L 4.8855,11.0205 L 4.9276,10.9221 L 4.9557,10.8237 L 5.0119,10.5988 L 5.0119,10.4864 Z" stroke="#000000" stroke-width="0.1199" stroke-linecap="round" stroke-linejoin="round" fill="#FFFFFF"/>
        <path d="M 5.0119,27.1296 L 5.0119,27.0172 L 4.9557,26.7923 L 4.9276,26.6939 L 4.8855,26.5955 L 4.8294,26.5111 L 4.6890,26.3424 L 4.5205,26.2019 L 4.4363,26.1456 L 4.3380,26.1035 L 4.2397,26.0754 L 4.0151,26.0191 L 2.5691,26.0191 L 2.3445,26.0754 L 2.2462,26.1035 L 2.1479,26.1456 L 2.0637,26.2019 L 1.8952,26.3424 L 1.7549,26.5111 L 1.6987,26.5955 L 1.6566,26.6939 L 1.6285,26.7923 L 1.5724,27.0172 L 1.5724,27.2421 L 1.6285,27.4670 L 1.6566,27.5654 L 1.6987,27.6638 L 1.7549,27.7481 L 1.8952,27.9168 L 2.0637,28.0574 L 2.1479,28.1136 L 2.2462,28.1558 L 2.3445,28.1839 L 2.5691,28.2401 L 4.0151,28.2401 L 4.2397,28.1839 L 4.3380,28.1558 L 4.4363,28.1136 L 4.5205,28.0574 L 4.6890,27.9168 L 4.8294,27.7481 L 4.8855,27.6638 L 4.9276,27.5654 L 4.9557,27.4670 L 5.0119,27.2421 L 5.0119,27.1296 Z" stroke="#000000" stroke-width="0.1199" stroke-linecap="round" stroke-linejoin="round" fill="#FFFFFF"/>
        <path d="M 129.1858,0.0281 L 136.3737,0.0281 L 136.3737,37.5879 L 129.1858,37.5879 L 129.1858,0.0281 Z" stroke="#000000" stroke-width="0.1199" stroke-linecap="round" stroke-linejoin="round" fill="#666666"/>
        <path d="M 129.1858,0.0281 L 129.6631,0.0281 L 129.6631,37.5879 L 129.1858,37.5879 L 129.1858,0.0281 Z" stroke="#000000" stroke-width="0.1199" stroke-linecap="round" stroke-linejoin="round" fill="#494949"/>
        <path d="M 134.8435,10.4864 L 134.8435,10.3739 L 134.7873,10.1490 L 134.7593,10.0506 L 134.7171,9.9522 L 134.6610,9.8679 L 134.5206,9.6992 L 134.3521,9.5586 L 134.2679,9.5024 L 134.1696,9.4602 L 134.0714,9.4321 L 133.8467,9.3759 L 132.4007,9.3759 L 132.1761,9.4321 L 132.0778,9.4602 L 131.9796,9.5024 L 131.8953,9.5586 L 131.7269,9.6992 L 131.5865,9.8679 L 131.5303,9.9522 L 131.4882,10.0506 L 131.4601,10.1490 L 131.4040,10.3739 L 131.4040,10.5988 L 131.4601,10.8237 L 131.4882,10.9221 L 131.5303,11.0205 L 131.5865,11.1049 L 131.7269,11.2736 L 131.8953,11.4141 L 131.9796,11.4703 L 132.0778,11.5125 L 132.1761,11.5406 L 132.4007,11.5969 L 133.8467,11.5969 L 134.0714,11.5406 L 134.1696,11.5125 L 134.2679,11.4703 L 134.3521,11.4141 L 134.5206,11.2736 L 134.6610,11.1049 L 134.7171,11.0205 L 134.7593,10.9221 L 134.7873,10.8237 L 134.8435,10.5988 L 134.8435,10.4864 Z" stroke="#000000" stroke-width="0.1199" stroke-linecap="round" stroke-linejoin="round" fill="#FFFFFF"/>
        <path d="M 134.8435,27.1296 L 134.8435,27.0172 L 134.7873,26.7923 L 134.7593,26.6939 L 134.7171,26.5955 L 134.6610,26.5111 L 134.5206,26.3424 L 134.3521,26.2019 L 134.2679,26.1456 L 134.1696,26.1035 L 134.0714,26.0754 L 133.8467,26.0191 L 132.4007,26.0191 L 132.1761,26.0754 L 132.0778,26.1035 L 131.9796,26.1456 L 131.8953,26.2019 L 131.7269,26.3424 L 131.5865,26.5111 L 131.5303,26.5955 L 131.4882,26.6939 L 131.4601,26.7923 L 131.4040,27.0172 L 131.4040,27.2421 L 131.4601,27.4670 L 131.4882,27.5654 L 131.5303,27.6638 L 131.5865,27.7481 L 131.7269,27.9168 L 131.8953,28.0574 L 131.9796,28.1136 L 132.0778,28.1558 L 132.1761,28.1839 L 132.4007,28.2401 L 133.8467,28.2401 L 134.0714,28.1839 L 134.1696,28.1558 L 134.2679,28.1136 L 134.3521,28.0574 L 134.5206,27.9168 L 134.6610,27.7481 L 134.7171,27.6638 L 134.7593,27.5654 L 134.7873,27.4670 L 134.8435,27.2421 L 134.8435,27.1296 Z" stroke="#000000" stroke-width="0.1199" stroke-linecap="round" stroke-linejoin="round" fill="#FFFFFF"/>
        <path d="M 8.7322,34.4251 L 103.1577,34.4251 L 103.1577,16.6714 L 8.7322,16.6714 L 8.7322,34.4251 Z" stroke="#000000" stroke-width="0.1199" stroke-linecap="round" stroke-linejoin="round" fill="#494949"/>
        <path d="M 14.1091,1.2370 L 103.1437,1.2370 L 103.1437,13.2837 L 14.1091,13.2837 L 14.1091,1.2370 Z" stroke="#000000" stroke-width="0.1199" stroke-linecap="round" stroke-linejoin="round" fill="#494949"/>
        <path d="M 14.3337,1.3495 L 102.8629,1.3495 L 102.8629,13.1572 L 14.3337,13.1572 L 14.3337,1.3495 Z" stroke="#000000" stroke-width="0.1199" stroke-linecap="round" stroke-linejoin="round" fill="#666666"/>
        <path d="M 64.5368,1.3495 L 98.3705,1.3495 L 98.3705,1.7009 L 64.5368,1.7009 L 64.5368,1.3495 Z" stroke="#000000" stroke-width="0.1199" stroke-linecap="round" stroke-linejoin="round" fill="#494949"/>
        <path d="M 64.5368,12.8057 L 98.3705,12.8057 L 98.3705,13.1572 L 64.5368,13.1572 L 64.5368,12.8057 Z" stroke="#000000" stroke-width="0.1199" stroke-linecap="round" stroke-linejoin="round" fill="#494949"/>
        <path d="M 22.9817,1.3495 L 56.8154,1.3495 L 56.8154,1.7009 L 22.9817,1.7009 L 22.9817,1.3495 Z" stroke="#000000" stroke-width="0.1199" stroke-linecap="round" stroke-linejoin="round" fill="#494949"/>
        <path d="M 22.9817,12.8057 L 56.8154,12.8057 L 56.8154,13.1572 L 22.9817,13.1572 L 22.9817,12.8057 Z" stroke="#000000" stroke-width="0.1199" stroke-linecap="round" stroke-linejoin="round" fill="#494949"/>
        <path d="M 18.1102,1.3495 L 58.2052,1.3495 L 58.2052,13.1572 L 18.1102,13.1572 L 18.1102,1.3495 Z" stroke="#000000" stroke-width="0.1199" stroke-linecap="round" stroke-linejoin="round" fill="#494949"/>
        <path d="M 58.9914,1.3495 L 99.0865,1.3495 L 99.0865,13.1572 L 58.9914,13.1572 L 58.9914,1.3495 Z" stroke="#000000" stroke-width="0.1199" stroke-linecap="round" stroke-linejoin="round" fill="#494949"/>
        <ellipse cx="16.1810" cy="7.2515" rx="1.0657" ry="1.0675" fill="#BFBFBF" stroke="#000000" stroke-width="0.1199" stroke-linecap="round" stroke-linejoin="round"/>
        <ellipse cx="16.1810" cy="7.2515" rx="1.0657" ry="1.0675" fill="none" stroke="#000000" stroke-width="0.1199" stroke-linecap="round" stroke-linejoin="round"/>
        <ellipse cx="16.1810" cy="7.2515" rx="0.7962" ry="0.7975" fill="#666666" stroke="#000000" stroke-width="0.1199" stroke-linecap="round" stroke-linejoin="round"/>
        <ellipse cx="16.1810" cy="7.2515" rx="0.7962" ry="0.7975" fill="none" stroke="#000000" stroke-width="0.1199" stroke-linecap="round" stroke-linejoin="round"/>
        <ellipse cx="16.1810" cy="7.2515" rx="0.7227" ry="0.7239" fill="#DDDDDD" stroke="#000000" stroke-width="0.1199" stroke-linecap="round" stroke-linejoin="round"/>
        <ellipse cx="16.1810" cy="7.2515" rx="0.7227" ry="0.7239" fill="none" stroke="#DDDDDD" stroke-width="0.1199" stroke-linecap="round" stroke-linejoin="round"/>
        <path d="M 15.6298,7.1902 L 15.6053,7.1902 L 15.5808,7.2147 L 15.5808,7.2393 L 15.5563,7.2393 L 15.5563,7.3865 L 15.5808,7.3865 L 15.5808,7.4110 L 15.6053,7.4356 L 16.1197,7.4356 L 16.1197,7.9754 L 16.1442,7.9754 L 16.1442,8.0000 L 16.1687,8.0000 L 16.1687,8.0245 L 16.3157,8.0245 L 16.3157,8.0000 L 16.3402,8.0000 L 16.3402,7.9754 L 16.3647,7.9754 L 16.3647,7.4356 L 16.9037,7.4356 L 16.9037,7.4110 L 16.9282,7.4110 L 16.9282,7.3865 L 16.9527,7.3865 L 16.9527,7.2393 L 16.9282,7.2393 L 16.9282,7.2147 L 16.9037,7.2147 L 16.9037,7.1902 L 16.3647,7.1902 L 16.3647,6.6748 L 16.3402,6.6503 L 16.3157,6.6503 L 16.3157,6.6258 L 16.1687,6.6258 L 16.1687,6.6503 L 16.1442,6.6503 L 16.1197,6.6748 L 16.1197,7.1902 L 15.6543,7.1902 L 15.6298,7.1902 Z" stroke="#161616" stroke-width="0.1199" stroke-linecap="round" stroke-linejoin="round" fill="#494949"/>
        <path d="M 15.5318,7.2638 L 15.5318,7.3865 L 15.5563,7.4110 L 15.5808,7.4110 L 15.5808,7.4356 L 16.1197,7.4356 L 16.1197,8.0000 L 16.1442,8.0245 L 16.1687,8.0245 L 16.1687,8.0491 L 16.2422,8.0491 L 16.2667,8.0491 " stroke="#BFBFBF" stroke-width="0.1199" stroke-linecap="round" stroke-linejoin="round" fill="none"/>
        <path d="M 16.1197,6.6748 L 16.1197,7.1656 L 16.1197,7.1902 " stroke="#BFBFBF" stroke-width="0.1199" stroke-linecap="round" stroke-linejoin="round" fill="none"/>
        <ellipse cx="100.9199" cy="7.2515" rx="1.0657" ry="1.0675" fill="#BFBFBF" stroke="#000000" stroke-width="0.1199" stroke-linecap="round" stroke-linejoin="round"/>
        <ellipse cx="100.9199" cy="7.2515" rx="1.0657" ry="1.0675" fill="none" stroke="#000000" stroke-width="0.1199" stroke-linecap="round" stroke-linejoin="round"/>
        <ellipse cx="100.9199" cy="7.2515" rx="0.7962" ry="0.7975" fill="#666666" stroke="#000000" stroke-width="0.1199" stroke-linecap="round" stroke-linejoin="round"/>
        <ellipse cx="100.9199" cy="7.2515" rx="0.7962" ry="0.7975" fill="none" stroke="#000000" stroke-width="0.1199" stroke-linecap="round" stroke-linejoin="round"/>
        <ellipse cx="100.9199" cy="7.2515" rx="0.7227" ry="0.7239" fill="#DDDDDD" stroke="#000000" stroke-width="0.1199" stroke-linecap="round" stroke-linejoin="round"/>
        <ellipse cx="100.9199" cy="7.2515" rx="0.7227" ry="0.7239" fill="none" stroke="#DDDDDD" stroke-width="0.1199" stroke-linecap="round" stroke-linejoin="round"/>
        <path d="M 100.3687,7.1902 L 100.3442,7.1902 L 100.3197,7.2147 L 100.3197,7.2393 L 100.2952,7.2393 L 100.2952,7.3865 L 100.3197,7.3865 L 100.3197,7.4110 L 100.3442,7.4356 L 100.8587,7.4356 L 100.8587,7.9754 L 100.8832,7.9754 L 100.8832,8.0000 L 100.9077,8.0000 L 100.9077,8.0245 L 101.0546,8.0245 L 101.0546,8.0000 L 101.0791,8.0000 L 101.0791,7.9754 L 101.1036,7.9754 L 101.1036,7.4356 L 101.6426,7.4356 L 101.6426,7.4110 L 101.6671,7.4110 L 101.6671,7.3865 L 101.6916,7.3865 L 101.6916,7.2393 L 101.6671,7.2393 L 101.6671,7.2147 L 101.6426,7.2147 L 101.6426,7.1902 L 101.1036,7.1902 L 101.1036,6.6748 L 101.0791,6.6503 L 101.0546,6.6503 L 101.0546,6.6258 L 100.9077,6.6258 L 100.9077,6.6503 L 100.8832,6.6503 L 100.8587,6.6748 L 100.8587,7.1902 L 100.3932,7.1902 L 100.3687,7.1902 Z" stroke="#161616" stroke-width="0.1199" stroke-linecap="round" stroke-linejoin="round" fill="#494949"/>
        <path d="M 100.2707,7.2638 L 100.2707,7.3865 L 100.2952,7.4110 L 100.3197,7.4110 L 100.3197,7.4356 L 100.8587,7.4356 L 100.8587,8.0000 L 100.8832,8.0245 L 100.9077,8.0245 L 100.9077,8.0491 L 100.9811,8.0491 L 101.0056,8.0491 " stroke="#BFBFBF" stroke-width="0.1199" stroke-linecap="round" stroke-linejoin="round" fill="none"/>
        <path d="M 100.8587,6.6748 L 100.8587,7.1656 L 100.8587,7.1902 " stroke="#BFBFBF" stroke-width="0.1199" stroke-linecap="round" stroke-linejoin="round" fill="none"/>
        <ellipse cx="8.5193" cy="9.9341" rx="0.6491" ry="0.6501" fill="#666666" stroke="#000000" stroke-width="0.1199" stroke-linecap="round" stroke-linejoin="round"/>
        <ellipse cx="8.5193" cy="9.9341" rx="0.6491" ry="0.6501" fill="none" stroke="#000000" stroke-width="0.1199" stroke-linecap="round" stroke-linejoin="round"/>
        <ellipse cx="8.5193" cy="9.9341" rx="0.5882" ry="0.5891" fill="#7F7F7F" stroke="#000000" stroke-width="0.1199" stroke-linecap="round" stroke-linejoin="round"/>
        <ellipse cx="8.5193" cy="9.9341" rx="0.5882" ry="0.5891" fill="none" stroke="#7F7F7F" stroke-width="0.1199" stroke-linecap="round" stroke-linejoin="round"/>
        <path d="M 8.0730,9.8935 L 8.0527,9.8935 L 8.0324,9.9138 L 8.0324,9.9341 L 8.0122,9.9341 L 8.0122,10.0560 L 8.0324,10.0560 L 8.0324,10.0763 L 8.0527,10.0967 L 8.4787,10.0967 L 8.4787,10.5436 L 8.4990,10.5436 L 8.4990,10.5639 L 8.5193,10.5639 L 8.5193,10.5842 L 8.6410,10.5842 L 8.6410,10.5639 L 8.6612,10.5639 L 8.6612,10.5436 L 8.6815,10.5436 L 8.6815,10.0967 L 9.1278,10.0967 L 9.1278,10.0763 L 9.1481,10.0763 L 9.1481,10.0560 L 9.1683,10.0560 L 9.1683,9.9341 L 9.1481,9.9341 L 9.1481,9.9138 L 9.1278,9.9138 L 9.1278,9.8935 L 8.6815,9.8935 L 8.6815,9.4669 L 8.6612,9.4466 L 8.6410,9.4466 L 8.6410,9.4263 L 8.5193,9.4263 L 8.5193,9.4466 L 8.4990,9.4466 L 8.4787,9.4669 L 8.4787,9.8935 L 8.0933,9.8935 L 8.0730,9.8935 Z" stroke="#161616" stroke-width="0.1199" stroke-linecap="round" stroke-linejoin="round" fill="#494949"/>
        <path d="M 7.9919,9.9545 L 7.9919,10.0560 L 8.0122,10.0763 L 8.0324,10.0763 L 8.0324,10.0967 L 8.4787,10.0967 L 8.4787,10.5639 L 8.4990,10.5842 L 8.5193,10.5842 L 8.5193,10.6045 L 8.5801,10.6045 L 8.6004,10.6045 " stroke="#BFBFBF" stroke-width="0.1199" stroke-linecap="round" stroke-linejoin="round" fill="none"/>
        <path d="M 8.4787,9.4669 L 8.4787,9.8732 L 8.4787,9.8935 " stroke="#BFBFBF" stroke-width="0.1199" stroke-linecap="round" stroke-linejoin="round" fill="none"/>
        <ellipse cx="105.8105" cy="6.5279" rx="0.7329" ry="0.7344" fill="#161616" stroke="#000000" stroke-width="0.1199" stroke-linecap="round" stroke-linejoin="round"/>
        <ellipse cx="105.8105" cy="6.5279" rx="0.7329" ry="0.7344" fill="none" stroke="#0A0A0A" stroke-width="0.1199" stroke-linecap="round" stroke-linejoin="round"/>
        <ellipse cx="105.8006" cy="6.4946" rx="0.5932" ry="0.5806" fill="#00FF00" stroke="#000000" stroke-width="0.1199" stroke-linecap="round" stroke-linejoin="round"/>
        <ellipse cx="105.8006" cy="6.4946" rx="0.5932" ry="0.5806" fill="none" stroke="#000000" stroke-width="0.1199" stroke-linecap="round" stroke-linejoin="round"/>
        <ellipse cx="105.8105" cy="3.4271" rx="0.7329" ry="0.7344" fill="#161616" stroke="#000000" stroke-width="0.1199" stroke-linecap="round" stroke-linejoin="round"/>
        <ellipse cx="105.8105" cy="3.4271" rx="0.7329" ry="0.7344" fill="none" stroke="#0A0A0A" stroke-width="0.1199" stroke-linecap="round" stroke-linejoin="round"/>
        <ellipse cx="105.8006" cy="3.4026" rx="0.5932" ry="0.5941" fill="#00FF00" stroke="#000000" stroke-width="0.1199" stroke-linecap="round" stroke-linejoin="round"/>
        <ellipse cx="105.8006" cy="3.4026" rx="0.5932" ry="0.5941" fill="none" stroke="#000000" stroke-width="0.1199" stroke-linecap="round" stroke-linejoin="round"/>
        <text font-family="Arial" fill="#FFFFFF" style="white-space:pre;" font-weight="400" text-anchor="start" x="157.1640" y="6.8963" font-size="0.4314"><![CDATA[PSU A]]></text>
        <text font-family="Arial" fill="#FFFFFF" style="white-space:pre;" font-weight="400" text-anchor="start" x="157.1640" y="8.4896" font-size="0.4314"><![CDATA[PSU B]]></text>
        <path d="M 109.3633,3.6791 L 109.3336,3.6791 L 109.3188,3.6643 L 109.3040,3.6643 L 109.2595,3.6202 L 109.2595,3.6055 L 109.2447,3.5908 L 109.2447,1.8837 L 109.2595,1.8690 L 109.2595,1.8542 L 109.2744,1.8395 L 109.2892,1.8395 L 109.2892,1.8248 L 109.3040,1.8101 L 109.3188,1.8101 L 109.3336,1.7954 L 111.3496,1.7954 L 111.3644,1.8101 L 111.3792,1.8101 L 111.4237,1.8542 L 111.4237,1.8690 L 111.4385,1.8837 L 111.4385,2.2221 L 111.4237,2.2221 L 111.4237,2.2074 L 111.4089,2.2074 L 111.4089,2.1927 L 111.3940,2.1927 L 111.3940,2.1780 L 111.3644,2.1780 L 111.3644,2.1633 L 109.7339,2.1633 L 109.7339,2.1780 L 109.7042,2.1780 L 109.7042,2.1927 L 109.6894,2.1927 L 109.6894,2.2221 L 109.6746,2.2221 L 109.6746,3.6202 L 109.6894,3.6202 L 109.6894,3.6496 L 109.7042,3.6496 L 109.7042,3.6643 L 109.7190,3.6643 L 109.7190,3.6791 L 109.3781,3.6791 L 109.3633,3.6791 Z" stroke="#FFFFFF" stroke-width="0.1199" stroke-linecap="round" stroke-linejoin="round" fill="#FFFFFF"/>
        <path d="M 111.2903,2.5901 L 109.8228,2.5901 L 109.8228,2.5753 L 109.7932,2.5753 L 109.7932,2.5606 L 109.7783,2.5606 L 109.7783,2.5312 L 109.7635,2.5312 L 109.7635,2.8991 L 109.7783,2.8991 L 109.7783,2.9285 L 109.7932,2.9285 L 109.7932,2.9432 L 109.8228,2.9432 L 109.8228,2.9580 L 111.3199,2.9580 L 111.3496,2.9285 L 111.3644,2.9285 L 111.3940,2.8991 L 111.3940,2.8844 L 111.4089,2.8697 L 111.4089,2.8549 L 111.4237,2.8402 L 111.4237,2.8108 L 111.4385,2.7961 L 111.4385,2.7519 L 111.4237,2.7372 L 111.4237,2.6931 L 111.3940,2.6636 L 111.3940,2.6489 L 111.3792,2.6342 L 111.3644,2.6342 L 111.3644,2.6195 L 111.3496,2.6195 L 111.3347,2.6048 L 111.3199,2.6048 L 111.3051,2.5901 L 111.2903,2.5901 Z" stroke="#FFFFFF" stroke-width="0.1199" stroke-linecap="round" stroke-linejoin="round" fill="#FFFFFF"/>
        <path d="M 114.7144,2.9580 L 114.6847,2.9580 L 114.6847,2.9432 L 114.6551,2.9432 L 114.6551,2.9285 L 114.6402,2.9285 L 114.6402,2.8991 L 114.6254,2.8991 L 114.6254,2.5312 L 114.6402,2.5312 L 114.6402,2.5606 L 114.6551,2.5606 L 114.6551,2.5753 L 114.6847,2.5753 L 114.6847,2.5901 L 115.8705,2.5901 L 115.8705,2.1633 L 114.5958,2.1633 L 114.5958,2.1780 L 114.5661,2.1780 L 114.5661,2.1927 L 114.5513,2.1927 L 114.5513,2.2221 L 114.5365,2.2221 L 114.5365,3.6202 L 114.5513,3.6202 L 114.5513,3.6496 L 114.5661,3.6496 L 114.5661,3.6643 L 114.5809,3.6643 L 114.5809,3.6791 L 114.1956,3.6791 L 114.1807,3.6643 L 114.1659,3.6643 L 114.1214,3.6202 L 114.1214,3.6055 L 114.1066,3.5908 L 114.1066,1.8837 L 114.1214,1.8690 L 114.1214,1.8542 L 114.1363,1.8395 L 114.1511,1.8395 L 114.1511,1.8248 L 114.1659,1.8101 L 114.1807,1.8101 L 114.1956,1.7954 L 116.2115,1.7954 L 116.2263,1.8101 L 116.2411,1.8101 L 116.2856,1.8542 L 116.2856,1.8690 L 116.3004,1.8837 L 116.3004,2.8108 L 116.2856,2.8255 L 116.2856,2.8549 L 116.2708,2.8549 L 116.2708,2.8697 L 116.2559,2.8844 L 116.2559,2.8991 L 116.2411,2.8991 L 116.2411,2.9138 L 116.2263,2.9138 L 116.2263,2.9285 L 116.2115,2.9285 L 116.2115,2.9432 L 116.1966,2.9432 L 116.1818,2.9580 L 116.1966,2.9727 L 116.2115,2.9727 L 116.2115,2.9874 L 116.2263,2.9874 L 116.2263,3.0021 L 116.2411,3.0021 L 116.2411,3.0168 L 116.2559,3.0168 L 116.2559,3.0315 L 116.2708,3.0463 L 116.2708,3.0610 L 116.2856,3.0610 L 116.2856,3.0904 L 116.3004,3.1051 L 116.3004,3.6202 L 116.3152,3.6202 L 116.3152,3.6496 L 116.3301,3.6496 L 116.3301,3.6643 L 116.3449,3.6643 L 116.3449,3.6791 L 115.9595,3.6791 L 115.9447,3.6643 L 115.9298,3.6643 L 115.8854,3.6202 L 115.8854,3.6055 L 115.8705,3.5908 L 115.8705,2.9580 L 114.7292,2.9580 L 114.7144,2.9580 Z" stroke="#FFFFFF" stroke-width="0.1199" stroke-linecap="round" stroke-linejoin="round" fill="#FFFFFF"/>
        <path d="M 117.0712,2.1633 L 116.6265,2.1633 L 116.6117,2.1486 L 116.5969,2.1486 L 116.5524,2.1044 L 116.5524,2.0897 L 116.5376,2.0750 L 116.5376,1.8837 L 116.5524,1.8690 L 116.5524,1.8542 L 116.5672,1.8395 L 116.5820,1.8395 L 116.5820,1.8248 L 116.5969,1.8101 L 116.6117,1.8101 L 116.6265,1.7954 L 118.6424,1.7954 L 118.6572,1.8101 L 118.6721,1.8101 L 118.7165,1.8542 L 118.7165,1.8690 L 118.7314,1.8837 L 118.7314,2.2221 L 118.7165,2.2221 L 118.7165,2.2074 L 118.7017,2.2074 L 118.7017,2.1927 L 118.6869,2.1927 L 118.6869,2.1780 L 118.6572,2.1780 L 118.6572,2.1633 L 117.5604,2.1633 L 117.5604,2.1780 L 117.5307,2.1780 L 117.5307,2.1927 L 117.5159,2.1927 L 117.5159,2.2221 L 117.5011,2.2221 L 117.5011,3.6202 L 117.5159,3.6202 L 117.5159,3.6496 L 117.5307,3.6496 L 117.5307,3.6643 L 117.5455,3.6643 L 117.5455,3.6791 L 117.1601,3.6791 L 117.1453,3.6643 L 117.1305,3.6643 L 117.0860,3.6202 L 117.0860,3.6055 L 117.0712,3.5908 L 117.0712,2.2074 L 117.0712,2.1633 Z" stroke="#FFFFFF" stroke-width="0.1199" stroke-linecap="round" stroke-linejoin="round" fill="#FFFFFF"/>
        <path d="M 119.3984,3.5760 L 119.3984,3.6202 L 119.4132,3.6202 L 119.4132,3.6496 L 119.4280,3.6496 L 119.4280,3.6643 L 119.4429,3.6643 L 119.4429,3.6791 L 119.0575,3.6791 L 119.0426,3.6643 L 119.0278,3.6643 L 118.9833,3.6202 L 118.9833,3.6055 L 118.9685,3.5908 L 118.9685,1.8542 L 118.9537,1.8542 L 118.9537,1.8248 L 118.9389,1.8248 L 118.9389,1.8101 L 118.9241,1.8101 L 118.9241,1.7954 L 119.3095,1.7954 L 119.3243,1.8101 L 119.3391,1.8101 L 119.3836,1.8542 L 119.3836,1.8690 L 119.3984,1.8837 L 119.3984,3.5613 L 119.3984,3.5760 Z" stroke="#FFFFFF" stroke-width="0.1199" stroke-linecap="round" stroke-linejoin="round" fill="#FFFFFF"/>
        <path d="M 121.5032,2.1633 L 120.2285,2.1633 L 120.2285,2.1780 L 120.1988,2.1780 L 120.1988,2.1927 L 120.1840,2.1927 L 120.1840,2.2221 L 120.1692,2.2221 L 120.1692,3.6202 L 120.1840,3.6202 L 120.1840,3.6496 L 120.1988,3.6496 L 120.1988,3.6643 L 120.2136,3.6643 L 120.2136,3.6791 L 119.8283,3.6791 L 119.8134,3.6643 L 119.7986,3.6643 L 119.7541,3.6202 L 119.7541,3.6055 L 119.7393,3.5908 L 119.7393,1.8837 L 119.7541,1.8690 L 119.7541,1.8542 L 119.7690,1.8395 L 119.7838,1.8395 L 119.7838,1.8248 L 119.7986,1.8101 L 119.8134,1.8101 L 119.8283,1.7954 L 121.8442,1.7954 L 121.8590,1.8101 L 121.8738,1.8101 L 121.9183,1.8542 L 121.9183,1.8690 L 121.9331,1.8837 L 121.9331,3.6202 L 121.9479,3.6202 L 121.9479,3.6496 L 121.9627,3.6496 L 121.9627,3.6643 L 121.9776,3.6643 L 121.9776,3.6791 L 121.5922,3.6791 L 121.5774,3.6643 L 121.5625,3.6643 L 121.5181,3.6202 L 121.5181,3.6055 L 121.5032,3.5908 L 121.5032,2.2074 L 121.5032,2.1633 Z" stroke="#FFFFFF" stroke-width="0.1199" stroke-linecap="round" stroke-linejoin="round" fill="#FFFFFF"/>
        <path d="M 124.1121,2.5901 L 122.7484,2.5901 L 122.7335,2.5753 L 122.7187,2.5753 L 122.7187,2.5606 L 122.7039,2.5606 L 122.7039,2.5312 L 122.6891,2.5312 L 122.6891,2.8991 L 122.7039,2.8991 L 122.7039,2.9285 L 122.7187,2.9285 L 122.7187,2.9432 L 122.7335,2.9432 L 122.7484,2.9580 L 124.1269,2.9580 L 124.1565,2.9285 L 124.1714,2.9285 L 124.2010,2.8991 L 124.2010,2.8844 L 124.2158,2.8697 L 124.2158,2.8549 L 124.2307,2.8402 L 124.2307,2.8108 L 124.2455,2.7961 L 124.2455,2.7372 L 124.2307,2.7225 L 124.2307,2.6784 L 124.2158,2.6784 L 124.2158,2.6636 L 124.1714,2.6195 L 124.1565,2.6195 L 124.1565,2.6048 L 124.1417,2.6048 L 124.1269,2.5901 L 124.1121,2.5901 Z" stroke="#FFFFFF" stroke-width="0.1199" stroke-linecap="round" stroke-linejoin="round" fill="#FFFFFF"/>
        <path d="M 125.1348,2.1633 L 124.6902,2.1633 L 124.6753,2.1486 L 124.6605,2.1486 L 124.6160,2.1044 L 124.6160,2.0897 L 124.6012,2.0750 L 124.6012,1.8837 L 124.6160,1.8690 L 124.6160,1.8542 L 124.6309,1.8395 L 124.6457,1.8395 L 124.6457,1.8248 L 124.6605,1.8101 L 124.6753,1.8101 L 124.6902,1.7954 L 126.7061,1.7954 L 126.7209,1.8101 L 126.7357,1.8101 L 126.7802,1.8542 L 126.7802,1.8690 L 126.7950,1.8837 L 126.7950,2.2221 L 126.7802,2.2221 L 126.7802,2.2074 L 126.7654,2.2074 L 126.7654,2.1927 L 126.7505,2.1927 L 126.7505,2.1780 L 126.7209,2.1780 L 126.7209,2.1633 L 125.6240,2.1633 L 125.6240,2.1780 L 125.5944,2.1780 L 125.5944,2.1927 L 125.5795,2.1927 L 125.5795,2.2221 L 125.5647,2.2221 L 125.5647,3.6202 L 125.5795,3.6202 L 125.5795,3.6496 L 125.5944,3.6496 L 125.5944,3.6643 L 125.6092,3.6643 L 125.6092,3.6791 L 125.2238,3.6791 L 125.2090,3.6643 L 125.1941,3.6643 L 125.1497,3.6202 L 125.1497,3.6055 L 125.1348,3.5908 L 125.1348,2.2074 L 125.1348,2.1633 Z" stroke="#FFFFFF" stroke-width="0.1199" stroke-linecap="round" stroke-linejoin="round" fill="#FFFFFF"/>
        <path d="M 124.2603,3.3112 L 124.2899,3.3112 L 124.2899,3.2964 L 124.3196,3.2964 L 124.3196,3.2817 L 124.3344,3.2817 L 124.3344,3.2670 L 124.3492,3.2670 L 124.3492,3.2523 L 124.3641,3.2523 L 124.3641,3.5908 L 124.3492,3.6055 L 124.3492,3.6202 L 124.3344,3.6349 L 124.3344,3.6496 L 124.3196,3.6496 L 124.3048,3.6643 L 124.2899,3.6643 L 124.2751,3.6791 L 122.2592,3.6791 L 122.2444,3.6643 L 122.2296,3.6643 L 122.1851,3.6202 L 122.1851,3.6055 L 122.1703,3.5908 L 122.1703,1.8837 L 122.1851,1.8690 L 122.1851,1.8542 L 122.1999,1.8395 L 122.2147,1.8395 L 122.2147,1.8248 L 122.2296,1.8101 L 122.2444,1.8101 L 122.2592,1.7954 L 124.2751,1.7954 L 124.2899,1.8101 L 124.3048,1.8101 L 124.3492,1.8542 L 124.3492,1.8690 L 124.3641,1.8837 L 124.3641,2.2221 L 124.3492,2.2221 L 124.3492,2.2074 L 124.3344,2.2074 L 124.3344,2.1927 L 124.3196,2.1927 L 124.3196,2.1780 L 124.2899,2.1780 L 124.2899,2.1633 L 122.6594,2.1633 L 122.6594,2.1780 L 122.6298,2.1780 L 122.6298,2.1927 L 122.6150,2.1927 L 122.6150,2.2221 L 122.6001,2.2221 L 122.6001,3.3112 L 124.2455,3.3112 L 124.2603,3.3112 Z" stroke="#FFFFFF" stroke-width="0.1199" stroke-linecap="round" stroke-linejoin="round" fill="#FFFFFF"/>
        <path d="M 112.4168,3.1346 L 112.4168,3.6791 L 113.1283,3.6791 L 113.1283,3.1346 L 112.4168,3.1346 Z" stroke="#ED3440" stroke-width="0.1199" stroke-linecap="round" stroke-linejoin="round" fill="#ED3440"/>
        <path d="M 111.6757,2.4723 L 112.2834,2.4723 L 112.2834,3.0021 L 111.6757,3.0021 L 111.6757,2.4723 Z" stroke="#ED3440" stroke-width="0.1199" stroke-linecap="round" stroke-linejoin="round" fill="#ED3440"/>
        <path d="M 113.2617,3.1346 L 113.2617,3.6791 L 113.4841,3.6791 L 113.4989,3.6643 L 113.5582,3.6643 L 113.5730,3.6496 L 113.6026,3.6496 L 113.6323,3.6349 L 113.6471,3.6202 L 113.6768,3.6055 L 113.7064,3.5760 L 113.7360,3.5613 L 113.7509,3.5466 L 113.7657,3.5172 L 113.7805,3.5025 L 113.8398,3.3847 L 113.8398,3.3553 L 113.8546,3.3112 L 113.8546,3.2670 L 113.8695,3.2229 L 113.8695,3.1346 L 113.2765,3.1346 L 113.2617,3.1346 Z" stroke="#ED3440" stroke-width="0.1199" stroke-linecap="round" stroke-linejoin="round" fill="#ED3440"/>
        <path d="M 113.2617,2.4723 L 113.8695,2.4723 L 113.8695,3.0021 L 113.2617,3.0021 L 113.2617,2.4723 Z" stroke="#ED3440" stroke-width="0.1199" stroke-linecap="round" stroke-linejoin="round" fill="#ED3440"/>
        <path d="M 112.2834,3.1346 L 112.2834,3.6791 L 112.0611,3.6791 L 112.0462,3.6643 L 111.9869,3.6643 L 111.9721,3.6496 L 111.9425,3.6496 L 111.9128,3.6349 L 111.8980,3.6202 L 111.8684,3.6055 L 111.8387,3.5760 L 111.8091,3.5613 L 111.7942,3.5466 L 111.7794,3.5172 L 111.7646,3.5025 L 111.7053,3.3847 L 111.7053,3.3553 L 111.6905,3.3112 L 111.6905,3.2670 L 111.6757,3.2229 L 111.6757,3.1346 L 112.2686,3.1346 L 112.2834,3.1346 Z" stroke="#ED3440" stroke-width="0.1199" stroke-linecap="round" stroke-linejoin="round" fill="#ED3440"/>
        <path d="M 112.4168,1.7954 L 112.4168,2.3399 L 113.1283,2.3399 L 113.1283,1.7954 L 112.4168,1.7954 Z" stroke="#ED3440" stroke-width="0.1199" stroke-linecap="round" stroke-linejoin="round" fill="#ED3440"/>
        <path d="M 113.2617,2.3399 L 113.2617,1.7954 L 113.4841,1.7954 L 113.4989,1.8101 L 113.5582,1.8101 L 113.5730,1.8248 L 113.6026,1.8248 L 113.6323,1.8395 L 113.6471,1.8542 L 113.6768,1.8690 L 113.7064,1.8984 L 113.7360,1.9131 L 113.7509,1.9278 L 113.7657,1.9573 L 113.7805,1.9720 L 113.8398,2.0897 L 113.8398,2.1191 L 113.8546,2.1633 L 113.8546,2.2074 L 113.8695,2.2516 L 113.8695,2.3399 L 113.2765,2.3399 L 113.2617,2.3399 Z" stroke="#ED3440" stroke-width="0.1199" stroke-linecap="round" stroke-linejoin="round" fill="#ED3440"/>
        <path d="M 112.2834,2.3399 L 112.2834,1.7954 L 112.0611,1.7954 L 112.0462,1.8101 L 111.9869,1.8101 L 111.9721,1.8248 L 111.9425,1.8248 L 111.9128,1.8395 L 111.8980,1.8542 L 111.8684,1.8690 L 111.8387,1.8984 L 111.8091,1.9131 L 111.7942,1.9278 L 111.7794,1.9573 L 111.7646,1.9720 L 111.7053,2.0897 L 111.7053,2.1191 L 111.6905,2.1633 L 111.6905,2.2074 L 111.6757,2.2516 L 111.6757,2.3399 L 112.2686,2.3399 L 112.2834,2.3399 Z" stroke="#ED3440" stroke-width="0.1199" stroke-linecap="round" stroke-linejoin="round" fill="#ED3440"/>
        <text font-family="Symbol" fill="#FFFFFF" style="white-space:pre;" text-anchor="start" x="125.9246" y="3.9614" font-size="0.8251"><![CDATA[]]></text>
        <path d="M 108.7132,35.6243 L 108.6881,35.6243 L 108.6881,35.6117 L 108.6755,35.6117 L 108.6629,35.5990 L 108.6503,35.5990 L 108.6503,35.5738 L 108.6377,35.5612 L 108.6377,34.1978 L 108.6503,34.1852 L 108.6503,34.1599 L 108.6629,34.1599 L 108.6755,34.1473 L 108.6881,34.1473 L 108.6881,34.1347 L 110.2999,34.1347 L 110.2999,34.1473 L 110.3125,34.1473 L 110.3251,34.1599 L 110.3377,34.1599 L 110.3377,34.1852 L 110.3503,34.1978 L 110.3503,34.4629 L 110.3377,34.4629 L 110.3377,34.4377 L 110.3251,34.4377 L 110.3251,34.4250 L 110.3125,34.4250 L 110.2999,34.4124 L 109.0155,34.4124 L 109.0029,34.4250 L 108.9903,34.4250 L 108.9903,34.4377 L 108.9777,34.4377 L 108.9777,34.4629 L 108.9651,34.4755 L 108.9651,35.5738 L 108.9777,35.5864 L 108.9777,35.5990 L 108.9903,35.5990 L 108.9903,35.6117 L 109.0029,35.6117 L 109.0029,35.6243 L 108.7258,35.6243 L 108.7132,35.6243 Z" stroke="#FFFFFF" stroke-width="0.1199" stroke-linecap="round" stroke-linejoin="round" fill="#FFFFFF"/>
        <path d="M 110.2496,34.7659 L 109.0910,34.7659 L 109.0910,34.7533 L 109.0658,34.7533 L 109.0658,34.7406 L 109.0532,34.7406 L 109.0532,34.7154 L 109.0407,34.7154 L 109.0407,35.0057 L 109.0532,35.0057 L 109.0532,35.0310 L 109.0658,35.0310 L 109.0658,35.0436 L 109.0910,35.0436 L 109.0910,35.0562 L 110.2747,35.0562 L 110.2873,35.0436 L 110.2999,35.0436 L 110.3125,35.0310 L 110.3125,35.0184 L 110.3503,34.9805 L 110.3503,34.9552 L 110.3629,34.9426 L 110.3629,34.8669 L 110.3503,34.8542 L 110.3503,34.8416 L 110.3377,34.8290 L 110.3377,34.8164 L 110.3251,34.8038 L 110.3125,34.8038 L 110.3125,34.7911 L 110.2999,34.7911 L 110.2873,34.7785 L 110.2747,34.7785 L 110.2621,34.7659 L 110.2496,34.7659 Z" stroke="#FFFFFF" stroke-width="0.1199" stroke-linecap="round" stroke-linejoin="round" fill="#FFFFFF"/>
        <path d="M 112.3525,35.1951 L 112.3400,35.1951 L 112.3148,35.1698 L 112.3148,35.1572 L 112.3022,35.1572 L 112.3022,34.9426 L 112.3148,34.9426 L 112.3148,34.9552 L 112.3274,34.9552 L 112.3274,34.9679 L 113.0451,34.9679 L 113.0451,34.7154 L 112.2770,34.7154 L 112.2770,34.7280 L 112.2644,34.7280 L 112.2644,34.7406 L 112.2518,34.7406 L 112.2518,35.5990 L 112.2644,35.5990 L 112.2644,35.6117 L 112.2770,35.6117 L 112.2770,35.6243 L 112.0377,35.6243 L 112.0377,35.6117 L 112.0125,35.6117 L 112.0125,35.5990 L 111.9999,35.5990 L 111.9999,35.5738 L 111.9874,35.5738 L 111.9874,34.5387 L 111.9999,34.5387 L 111.9999,34.5134 L 112.0125,34.5134 L 112.0125,34.5008 L 112.0377,34.5008 L 112.0377,34.4882 L 113.2592,34.4882 L 113.2592,34.5008 L 113.2844,34.5008 L 113.2844,34.5134 L 113.2970,34.5134 L 113.2970,34.5387 L 113.3096,34.5387 L 113.3096,35.1067 L 113.2970,35.1067 L 113.2970,35.1320 L 113.2844,35.1320 L 113.2844,35.1446 L 113.2718,35.1446 L 113.2718,35.1572 L 113.2340,35.1951 L 113.2466,35.1951 L 113.2466,35.2077 L 113.2592,35.2077 L 113.2592,35.2203 L 113.2718,35.2203 L 113.2718,35.2330 L 113.2844,35.2330 L 113.2844,35.2456 L 113.2970,35.2456 L 113.2970,35.2708 L 113.3096,35.2708 L 113.3096,35.5990 L 113.3222,35.5990 L 113.3222,35.6117 L 113.3348,35.6117 L 113.3348,35.6243 L 113.0955,35.6243 L 113.0955,35.6117 L 113.0703,35.6117 L 113.0703,35.5990 L 113.0577,35.5990 L 113.0577,35.5738 L 113.0451,35.5738 L 113.0451,35.1951 L 112.3651,35.1951 L 112.3525,35.1951 Z" stroke="#FFFFFF" stroke-width="0.1199" stroke-linecap="round" stroke-linejoin="round" fill="#FFFFFF"/>
        <path d="M 113.7629,34.7154 L 113.4985,34.7154 L 113.4985,34.7028 L 113.4733,34.7028 L 113.4733,34.6901 L 113.4607,34.6901 L 113.4607,34.6649 L 113.4481,34.6649 L 113.4481,34.5387 L 113.4607,34.5387 L 113.4607,34.5134 L 113.4733,34.5134 L 113.4733,34.5008 L 113.4985,34.5008 L 113.4985,34.4882 L 114.7074,34.4882 L 114.7074,34.5008 L 114.7326,34.5008 L 114.7326,34.5134 L 114.7452,34.5134 L 114.7452,34.5387 L 114.7578,34.5387 L 114.7578,34.7533 L 114.7326,34.7280 L 114.7200,34.7280 L 114.7200,34.7154 L 114.0526,34.7154 L 114.0526,34.7280 L 114.0400,34.7280 L 114.0400,34.7406 L 114.0274,34.7406 L 114.0274,35.5990 L 114.0400,35.5990 L 114.0400,35.6117 L 114.0526,35.6117 L 114.0526,35.6243 L 113.8133,35.6243 L 113.8133,35.6117 L 113.7881,35.6117 L 113.7881,35.5990 L 113.7755,35.5990 L 113.7755,35.5738 L 113.7629,35.5738 L 113.7629,34.7406 L 113.7629,34.7154 Z" stroke="#FFFFFF" stroke-width="0.1199" stroke-linecap="round" stroke-linejoin="round" fill="#FFFFFF"/>
        <path d="M 115.1607,35.5612 L 115.1607,35.5990 L 115.1733,35.5990 L 115.1733,35.6117 L 115.1859,35.6117 L 115.1859,35.6243 L 114.9467,35.6243 L 114.9467,35.6117 L 114.9215,35.6117 L 114.9215,35.5990 L 114.9089,35.5990 L 114.9089,35.5738 L 114.8963,35.5738 L 114.8963,34.5134 L 114.8837,34.5134 L 114.8837,34.5008 L 114.8711,34.5008 L 114.8711,34.4882 L 115.1104,34.4882 L 115.1104,34.5008 L 115.1355,34.5008 L 115.1355,34.5134 L 115.1481,34.5134 L 115.1481,34.5387 L 115.1607,34.5387 L 115.1607,35.5486 L 115.1607,35.5612 Z" stroke="#FFFFFF" stroke-width="0.1199" stroke-linecap="round" stroke-linejoin="round" fill="#FFFFFF"/>
        <path d="M 110.7785,34.7659 L 110.7785,34.7406 L 110.7910,34.7406 L 110.7910,34.7280 L 110.8162,34.7280 L 110.8162,34.7154 L 111.5844,34.7154 L 111.5844,35.3718 L 111.5718,35.3718 L 111.5718,35.3844 L 111.5466,35.3844 L 111.5466,35.3971 L 110.5644,35.3971 L 110.5644,35.3844 L 110.5518,35.3844 L 110.5392,35.3718 L 110.5392,35.3592 L 110.5266,35.3592 L 110.5266,35.5738 L 110.5392,35.5738 L 110.5392,35.5990 L 110.5518,35.5990 L 110.5518,35.6117 L 110.5770,35.6117 L 110.5770,35.6243 L 111.7859,35.6243 L 111.7859,35.6117 L 111.8111,35.6117 L 111.8111,35.5990 L 111.8237,35.5990 L 111.8237,35.5738 L 111.8362,35.5738 L 111.8362,34.5387 L 111.8237,34.5387 L 111.8237,34.5134 L 111.8111,34.5134 L 111.8111,34.5008 L 111.7859,34.5008 L 111.7859,34.4882 L 110.5770,34.4882 L 110.5770,34.5008 L 110.5518,34.5008 L 110.5518,34.5134 L 110.5392,34.5134 L 110.5392,34.5387 L 110.5266,34.5387 L 110.5266,35.2835 L 110.5392,35.2835 L 110.5392,35.3087 L 110.5518,35.3087 L 110.5518,35.3213 L 110.5770,35.3213 L 110.5770,35.3339 L 110.7785,35.3339 L 110.7785,34.7785 L 110.7785,34.7659 Z" stroke="#FFFFFF" stroke-width="0.1199" stroke-linecap="round" stroke-linejoin="round" fill="#FFFFFF"/>
        <path d="M 121.5075,34.9679 L 120.6764,34.9679 L 120.6764,34.9552 L 120.6638,34.9552 L 120.6638,34.9300 L 120.6512,34.9300 L 120.6512,35.1572 L 120.6638,35.1572 L 120.6638,35.1698 L 120.6764,35.1698 L 120.6764,35.1825 L 121.5201,35.1825 L 121.5201,35.1698 L 121.5327,35.1572 L 121.5453,35.1572 L 121.5453,35.1446 L 121.5578,35.1446 L 121.5578,35.1320 L 121.5704,35.1193 L 121.5704,35.0815 L 121.5830,35.0815 L 121.5830,35.0562 L 121.5704,35.0436 L 121.5704,35.0184 L 121.5578,35.0057 L 121.5578,34.9931 L 121.5453,34.9931 L 121.5453,34.9805 L 121.5327,34.9805 L 121.5201,34.9679 L 121.5075,34.9679 Z" stroke="#FFFFFF" stroke-width="0.1199" stroke-linecap="round" stroke-linejoin="round" fill="#FFFFFF"/>
        <path d="M 121.5704,35.3971 L 121.5956,35.3971 L 121.5956,35.3844 L 121.6082,35.3844 L 121.6334,35.3592 L 121.6334,35.5738 L 121.6208,35.5738 L 121.6208,35.5990 L 121.6082,35.5990 L 121.6082,35.6117 L 121.5830,35.6117 L 121.5830,35.6243 L 120.3741,35.6243 L 120.3741,35.6117 L 120.3489,35.6117 L 120.3489,35.5990 L 120.3364,35.5990 L 120.3364,35.5738 L 120.3238,35.5738 L 120.3238,34.5387 L 120.3364,34.5387 L 120.3364,34.5134 L 120.3489,34.5134 L 120.3489,34.5008 L 120.3741,34.5008 L 120.3741,34.4882 L 121.5830,34.4882 L 121.5830,34.5008 L 121.6082,34.5008 L 121.6082,34.5134 L 121.6208,34.5134 L 121.6208,34.5387 L 121.6334,34.5387 L 121.6334,34.7533 L 121.6082,34.7280 L 121.5956,34.7280 L 121.5956,34.7154 L 120.6134,34.7154 L 120.6134,34.7280 L 120.5882,34.7280 L 120.5882,34.7406 L 120.5756,34.7406 L 120.5756,35.3971 L 121.5578,35.3971 L 121.5704,35.3971 Z" stroke="#FFFFFF" stroke-width="0.1199" stroke-linecap="round" stroke-linejoin="round" fill="#FFFFFF"/>
        <path d="M 119.1904,34.7154 L 118.9260,34.7154 L 118.9260,34.7028 L 118.9008,34.7028 L 118.9008,34.6901 L 118.8882,34.6901 L 118.8882,34.6649 L 118.8756,34.6649 L 118.8756,34.5387 L 118.8882,34.5387 L 118.8882,34.5134 L 118.9008,34.5134 L 118.9008,34.5008 L 118.9260,34.5008 L 118.9260,34.4882 L 120.1349,34.4882 L 120.1349,34.5008 L 120.1601,34.5008 L 120.1601,34.5134 L 120.1726,34.5134 L 120.1726,34.5387 L 120.1852,34.5387 L 120.1852,34.7533 L 120.1601,34.7280 L 120.1475,34.7280 L 120.1475,34.7154 L 119.4800,34.7154 L 119.4800,34.7280 L 119.4675,34.7280 L 119.4675,34.7406 L 119.4549,34.7406 L 119.4549,35.5990 L 119.4675,35.5990 L 119.4675,35.6117 L 119.4800,35.6117 L 119.4800,35.6243 L 119.2408,35.6243 L 119.2408,35.6117 L 119.2156,35.6117 L 119.2156,35.5990 L 119.2030,35.5990 L 119.2030,35.5738 L 119.1904,35.5738 L 119.1904,34.7406 L 119.1904,34.7154 Z" stroke="#FFFFFF" stroke-width="0.1199" stroke-linecap="round" stroke-linejoin="round" fill="#FFFFFF"/>
        <path d="M 117.7422,35.1951 L 117.7297,35.1951 L 117.7045,35.1698 L 117.7045,35.1572 L 117.6919,35.1572 L 117.6919,34.9426 L 117.7045,34.9426 L 117.7045,34.9552 L 117.7171,34.9552 L 117.7171,34.9679 L 118.4348,34.9679 L 118.4348,34.7154 L 117.6667,34.7154 L 117.6667,34.7280 L 117.6541,34.7280 L 117.6541,34.7406 L 117.6415,34.7406 L 117.6415,35.5990 L 117.6541,35.5990 L 117.6541,35.6117 L 117.6667,35.6117 L 117.6667,35.6243 L 117.4274,35.6243 L 117.4274,35.6117 L 117.4022,35.6117 L 117.4022,35.5990 L 117.3896,35.5990 L 117.3896,35.5738 L 117.3771,35.5738 L 117.3771,34.5387 L 117.3896,34.5387 L 117.3896,34.5134 L 117.4022,34.5134 L 117.4022,34.5008 L 117.4274,34.5008 L 117.4274,34.4882 L 118.6489,34.4882 L 118.6489,34.5008 L 118.6615,34.5008 L 118.6615,34.5134 L 118.6741,34.5134 L 118.6741,34.5260 L 118.6867,34.5387 L 118.6867,35.5864 L 118.6993,35.5864 L 118.6993,35.5990 L 118.7245,35.6243 L 118.4852,35.6243 L 118.4852,35.6117 L 118.4600,35.6117 L 118.4600,35.5990 L 118.4474,35.5990 L 118.4474,35.5738 L 118.4348,35.5738 L 118.4348,35.1951 L 117.7548,35.1951 L 117.7422,35.1951 Z" stroke="#FFFFFF" stroke-width="0.1199" stroke-linecap="round" stroke-linejoin="round" fill="#FFFFFF"/>
        <path d="M 115.5637,35.6243 L 115.5385,35.6243 L 115.5385,35.6117 L 115.5259,35.6117 L 115.5133,35.5990 L 115.5007,35.5990 L 115.5007,35.5738 L 115.4881,35.5612 L 115.4881,34.1978 L 115.5007,34.1852 L 115.5007,34.1599 L 115.5133,34.1599 L 115.5259,34.1473 L 115.5385,34.1473 L 115.5385,34.1347 L 117.1504,34.1347 L 117.1504,34.1473 L 117.1630,34.1473 L 117.1756,34.1599 L 117.1882,34.1599 L 117.1882,34.1852 L 117.2008,34.1978 L 117.2008,34.4629 L 117.1882,34.4629 L 117.1882,34.4377 L 117.1756,34.4377 L 117.1756,34.4250 L 117.1630,34.4250 L 117.1504,34.4124 L 115.8659,34.4124 L 115.8533,34.4250 L 115.8407,34.4250 L 115.8407,34.4377 L 115.8281,34.4377 L 115.8281,34.4629 L 115.8156,34.4755 L 115.8156,35.5738 L 115.8281,35.5864 L 115.8281,35.5990 L 115.8407,35.5990 L 115.8407,35.6117 L 115.8533,35.6117 L 115.8533,35.6243 L 115.5763,35.6243 L 115.5637,35.6243 Z" stroke="#FFFFFF" stroke-width="0.1199" stroke-linecap="round" stroke-linejoin="round" fill="#FFFFFF"/>
        <path d="M 117.2008,35.5359 L 117.2008,35.5612 L 117.1882,35.5738 L 117.1882,35.5990 L 117.1756,35.5990 L 117.1630,35.6117 L 117.1504,35.6117 L 117.1504,35.6243 L 115.9415,35.6243 L 115.9289,35.6117 L 115.9037,35.6117 L 115.9037,35.5990 L 115.8911,35.5864 L 115.8911,35.5738 L 115.8785,35.5738 L 115.8785,35.2961 L 115.8911,35.2961 L 115.8911,35.3087 L 115.9037,35.3213 L 115.9037,35.3339 L 115.9289,35.3339 L 115.9415,35.3466 L 116.8230,35.3466 L 116.8608,35.3087 L 116.8608,35.2961 L 116.8733,35.2835 L 116.8733,35.1067 L 116.8608,35.1067 L 116.8608,35.0941 L 116.8482,35.0941 L 116.8482,35.0815 L 116.8356,35.0815 L 116.8230,35.0688 L 116.2563,35.0688 L 116.2563,35.0815 L 116.2311,35.0815 L 116.2311,35.0941 L 116.2185,35.0941 L 116.2185,35.1067 L 116.2059,35.1067 L 116.2059,34.8290 L 116.2185,34.8290 L 116.2185,34.8164 L 116.2311,34.8164 L 116.2311,34.8038 L 116.2437,34.8038 L 116.2437,34.7911 L 116.2689,34.7911 L 116.2689,34.7785 L 117.1504,34.7785 L 117.1504,34.7911 L 117.1630,34.7911 L 117.1630,34.8038 L 117.1756,34.8038 L 117.1756,34.8164 L 117.1882,34.8164 L 117.1882,34.8416 L 117.2008,34.8416 L 117.2008,35.5233 L 117.2008,35.5359 Z" stroke="#FFFFFF" stroke-width="0.1199" stroke-linecap="round" stroke-linejoin="round" fill="#FFFFFF"/>
        <path d="M 106.7991,35.3087 L 106.7991,35.8768 L 107.5295,35.8768 L 107.5295,35.3087 L 106.7991,35.3087 Z" stroke="#ED3440" stroke-width="0.1199" stroke-linecap="round" stroke-linejoin="round" fill="#ED3440"/>
        <path d="M 106.0436,34.6270 L 106.6606,34.6270 L 106.6606,35.1825 L 106.0436,35.1825 L 106.0436,34.6270 Z" stroke="#ED3440" stroke-width="0.1199" stroke-linecap="round" stroke-linejoin="round" fill="#ED3440"/>
        <path d="M 107.6680,35.3087 L 107.6680,35.8768 L 107.8695,35.8768 L 107.8947,35.8641 L 107.9451,35.8641 L 107.9703,35.8515 L 107.9955,35.8515 L 108.0458,35.8263 L 108.0584,35.8137 L 108.1088,35.7884 L 108.1214,35.7632 L 108.1466,35.7505 L 108.1592,35.7253 L 108.1843,35.7127 L 108.2095,35.6622 L 108.2221,35.6243 L 108.2347,35.5990 L 108.2725,35.4854 L 108.2725,35.4476 L 108.2851,35.4097 L 108.2851,35.3087 L 107.6806,35.3087 L 107.6680,35.3087 Z" stroke="#ED3440" stroke-width="0.1199" stroke-linecap="round" stroke-linejoin="round" fill="#ED3440"/>
        <path d="M 107.6680,34.6270 L 108.2851,34.6270 L 108.2851,35.1825 L 107.6680,35.1825 L 107.6680,34.6270 Z" stroke="#ED3440" stroke-width="0.1199" stroke-linecap="round" stroke-linejoin="round" fill="#ED3440"/>
        <path d="M 106.6606,35.3087 L 106.6606,35.8768 L 106.4591,35.8768 L 106.4340,35.8641 L 106.3836,35.8641 L 106.3584,35.8515 L 106.3332,35.8515 L 106.2828,35.8263 L 106.2702,35.8137 L 106.2199,35.7884 L 106.2073,35.7632 L 106.1821,35.7505 L 106.1695,35.7253 L 106.1443,35.7127 L 106.1191,35.6622 L 106.1065,35.6243 L 106.0939,35.5990 L 106.0562,35.4854 L 106.0562,35.4476 L 106.0436,35.4097 L 106.0436,35.3087 L 106.6480,35.3087 L 106.6606,35.3087 Z" stroke="#ED3440" stroke-width="0.1199" stroke-linecap="round" stroke-linejoin="round" fill="#ED3440"/>
        <path d="M 106.7991,33.9327 L 106.7991,34.5008 L 107.5295,34.5008 L 107.5295,33.9327 L 106.7991,33.9327 Z" stroke="#ED3440" stroke-width="0.1199" stroke-linecap="round" stroke-linejoin="round" fill="#ED3440"/>
        <path d="M 107.6680,34.5008 L 107.6680,33.9327 L 107.8695,33.9327 L 107.8947,33.9453 L 107.9451,33.9453 L 107.9703,33.9580 L 107.9955,33.9580 L 108.0458,33.9832 L 108.0584,33.9958 L 108.1088,34.0211 L 108.1214,34.0463 L 108.1466,34.0589 L 108.1592,34.0842 L 108.1843,34.0968 L 108.2095,34.1473 L 108.2221,34.1852 L 108.2347,34.2104 L 108.2725,34.3240 L 108.2725,34.3619 L 108.2851,34.3998 L 108.2851,34.5008 L 107.6806,34.5008 L 107.6680,34.5008 Z" stroke="#ED3440" stroke-width="0.1199" stroke-linecap="round" stroke-linejoin="round" fill="#ED3440"/>
        <path d="M 106.6606,34.5008 L 106.6606,33.9327 L 106.4591,33.9327 L 106.4340,33.9453 L 106.3836,33.9453 L 106.3584,33.9580 L 106.3332,33.9580 L 106.2828,33.9832 L 106.2702,33.9958 L 106.2199,34.0211 L 106.2073,34.0463 L 106.1821,34.0589 L 106.1695,34.0842 L 106.1443,34.0968 L 106.1191,34.1473 L 106.1065,34.1852 L 106.0939,34.2104 L 106.0562,34.3240 L 106.0562,34.3619 L 106.0436,34.3998 L 106.0436,34.5008 L 106.6480,34.5008 L 106.6606,34.5008 Z" stroke="#ED3440" stroke-width="0.1199" stroke-linecap="round" stroke-linejoin="round" fill="#ED3440"/>
        <text font-family="Arial" fill="#FFFFFF" style="white-space:pre;" font-weight="400" text-anchor="start" x="134.3899" y="42.6144" font-size="0.4030"><![CDATA[5020]]></text>
        <path d="M 18.1991,1.4036 L 58.2735,1.4036 L 58.2735,13.1937 L 18.1991,13.1937 L 18.1991,1.4036 Z" stroke="#000000" stroke-width="0.1199" stroke-linecap="round" stroke-linejoin="round" fill="none"/>
        <path d="M 58.9190,1.4036 L 98.9934,1.4036 L 98.9934,13.1937 L 58.9190,13.1937 L 58.9190,1.4036 Z" stroke="#000000" stroke-width="0.1199" stroke-linecap="round" stroke-linejoin="round" fill="none"/>
        <path d="M 9.0963,25.2873 L 102.7541,25.2873 L 102.7541,16.9888 L 9.0963,16.9888 L 9.0963,25.2873 Z" stroke="#000000" stroke-width="0.1199" stroke-linecap="round" stroke-linejoin="round" fill="none"/>
        <path d="M 9.0963,33.9497 L 102.7541,33.9497 L 102.7541,25.6512 L 9.0963,25.6512 L 9.0963,33.9497 Z" stroke="#000000" stroke-width="0.1199" stroke-linecap="round" stroke-linejoin="round" fill="none"/>
      </g>
      <!--emf-blob end-->
    </g>
  </g>
</svg>
