<svg xmlns="http://www.w3.org/2000/svg" xmlns:xlink="http://www.w3.org/1999/xlink" version="1.1" width="7.6704000000" height="5.3984000000" viewBox="0 0 138.0699 97.1697">
  <title><![CDATA[FG-5060]]></title>
  <g transform=" scale(4.000000) ">
    <!--converted by libvisio2svg-->
    <g transform=" translate(0.720000,0.720000) ">
      <!--emf-blob start-->
      <g transform="translate(-0.0000, -0.0000)">
        <path d="M 102.3459,0.6652 L 102.3459,1.9956 L 103.5327,1.9956 " stroke="#000000" stroke-width="0.1199" stroke-linecap="round" stroke-linejoin="round" fill="none"/>
        <path d="M 103.5327,0.6652 L 105.8751,0.6652 " stroke="#000000" stroke-width="0.1199" stroke-linecap="round" stroke-linejoin="round" fill="none"/>
        <path d="M 104.6883,0.6652 L 104.6883,1.9956 " stroke="#000000" stroke-width="0.1199" stroke-linecap="round" stroke-linejoin="round" fill="none"/>
        <path d="M 106.4685,0.6652 L 106.4685,1.9956 " stroke="#000000" stroke-width="0.1199" stroke-linecap="round" stroke-linejoin="round" fill="none"/>
        <path d="M 106.4685,0.6652 L 106.4685,1.9956 " stroke="#000000" stroke-width="0.1199" stroke-linecap="round" stroke-linejoin="round" fill="none"/>
        <path d="M 107.6240,1.9956 L 107.6240,0.6652 L 108.8108,1.9956 L 109.9976,0.6652 L 109.9976,1.9956 " stroke="#000000" stroke-width="0.1199" stroke-linecap="round" stroke-linejoin="round" fill="none"/>
        <path d="M 110.5598,1.9956 L 111.7466,0.6652 L 112.9334,1.9956 " stroke="#000000" stroke-width="0.1199" stroke-linecap="round" stroke-linejoin="round" fill="none"/>
        <path d="M 110.8721,1.6630 L 112.6211,1.6630 " stroke="#000000" stroke-width="0.1199" stroke-linecap="round" stroke-linejoin="round" fill="none"/>
        <path d="M 98.8167,1.9956 L 100.0035,0.6652 L 101.1903,1.9956 " stroke="#000000" stroke-width="0.1199" stroke-linecap="round" stroke-linejoin="round" fill="none"/>
        <path d="M 99.1291,1.6630 L 100.8780,1.6630 " stroke="#000000" stroke-width="0.1199" stroke-linecap="round" stroke-linejoin="round" fill="none"/>
        <path d="M 136.4259,0.0281 L 0.0281,0.0281 L 0.0281,62.7879 L 136.4259,62.7879 L 136.4259,0.0281 Z" stroke="#000000" stroke-width="0.1199" stroke-linecap="round" stroke-linejoin="round" fill="#666666"/>
        <path d="M 129.2352,0.0281 L 7.2187,0.0281 L 7.2187,62.7879 L 129.2352,62.7879 L 129.2352,0.0281 Z" stroke="#000000" stroke-width="0.1199" stroke-linecap="round" stroke-linejoin="round" fill="#494949"/>
        <path d="M 5.5334,8.6885 L 5.5334,8.5620 L 5.4773,8.3089 L 5.4351,8.1964 L 5.3789,8.0840 L 5.3228,7.9856 L 5.2525,7.8871 L 5.1683,7.7887 L 5.0700,7.7044 L 4.9717,7.6341 L 4.8734,7.5778 L 4.7610,7.5216 L 4.6486,7.4794 L 4.3959,7.4232 L 2.6263,7.4232 L 2.3735,7.4794 L 2.2611,7.5216 L 2.1488,7.5778 L 2.0505,7.6341 L 1.9522,7.7044 L 1.8538,7.7887 L 1.7696,7.8871 L 1.6994,7.9856 L 1.6432,8.0840 L 1.5870,8.1964 L 1.5449,8.3089 L 1.4887,8.5620 L 1.4887,8.8150 L 1.5449,9.0681 L 1.5870,9.1806 L 1.6432,9.2931 L 1.6994,9.3915 L 1.7696,9.4899 L 1.8538,9.5883 L 1.9522,9.6726 L 2.0505,9.7429 L 2.1488,9.7992 L 2.2611,9.8554 L 2.3735,9.8976 L 2.6263,9.9538 L 4.3959,9.9538 L 4.6486,9.8976 L 4.7610,9.8554 L 4.8734,9.7992 L 4.9717,9.7429 L 5.0700,9.6726 L 5.1683,9.5883 L 5.2525,9.4899 L 5.3228,9.3915 L 5.3789,9.2931 L 5.4351,9.1806 L 5.4773,9.0681 L 5.5334,8.8150 L 5.5334,8.6885 Z" stroke="#000000" stroke-width="0.1199" stroke-linecap="round" stroke-linejoin="round" fill="#FFFFFF"/>
        <path d="M 5.5334,54.1275 L 5.5334,54.0009 L 5.4773,53.7479 L 5.4351,53.6354 L 5.3789,53.5229 L 5.3228,53.4245 L 5.2525,53.3261 L 5.1683,53.2277 L 5.0700,53.1433 L 4.9717,53.0730 L 4.8734,53.0168 L 4.7610,52.9606 L 4.6486,52.9184 L 4.3959,52.8622 L 2.6263,52.8622 L 2.3735,52.9184 L 2.2611,52.9606 L 2.1488,53.0168 L 2.0505,53.0730 L 1.9522,53.1433 L 1.8538,53.2277 L 1.7696,53.3261 L 1.6994,53.4245 L 1.6432,53.5229 L 1.5870,53.6354 L 1.5449,53.7479 L 1.4887,54.0009 L 1.4887,54.2540 L 1.5449,54.5071 L 1.5870,54.6195 L 1.6432,54.7320 L 1.6994,54.8304 L 1.7696,54.9288 L 1.8538,55.0272 L 1.9522,55.1116 L 2.0505,55.1819 L 2.1488,55.2381 L 2.2611,55.2944 L 2.3735,55.3365 L 2.6263,55.3928 L 4.3959,55.3928 L 4.6486,55.3365 L 4.7610,55.2944 L 4.8734,55.2381 L 4.9717,55.1819 L 5.0700,55.1116 L 5.1683,55.0272 L 5.2525,54.9288 L 5.3228,54.8304 L 5.3789,54.7320 L 5.4351,54.6195 L 5.4773,54.5071 L 5.5334,54.2540 L 5.5334,54.1275 Z" stroke="#000000" stroke-width="0.1199" stroke-linecap="round" stroke-linejoin="round" fill="#FFFFFF"/>
        <path d="M 135.1900,8.6885 L 135.1900,8.5620 L 135.1338,8.3089 L 135.0917,8.1964 L 135.0355,8.0840 L 134.9793,7.9856 L 134.9091,7.8871 L 134.8248,7.7887 L 134.7265,7.7044 L 134.6282,7.6341 L 134.5299,7.5778 L 134.4175,7.5216 L 134.3052,7.4794 L 134.0524,7.4232 L 132.2828,7.4232 L 132.0300,7.4794 L 131.9177,7.5216 L 131.8053,7.5778 L 131.7070,7.6341 L 131.6087,7.7044 L 131.5104,7.7887 L 131.4261,7.8871 L 131.3559,7.9856 L 131.2997,8.0840 L 131.2435,8.1964 L 131.2014,8.3089 L 131.1452,8.5620 L 131.1452,8.8150 L 131.2014,9.0681 L 131.2435,9.1806 L 131.2997,9.2931 L 131.3559,9.3915 L 131.4261,9.4899 L 131.5104,9.5883 L 131.6087,9.6726 L 131.7070,9.7429 L 131.8053,9.7992 L 131.9177,9.8554 L 132.0300,9.8976 L 132.2828,9.9538 L 134.0524,9.9538 L 134.3052,9.8976 L 134.4175,9.8554 L 134.5299,9.7992 L 134.6282,9.7429 L 134.7265,9.6726 L 134.8248,9.5883 L 134.9091,9.4899 L 134.9793,9.3915 L 135.0355,9.2931 L 135.0917,9.1806 L 135.1338,9.0681 L 135.1900,8.8150 L 135.1900,8.6885 Z" stroke="#000000" stroke-width="0.1199" stroke-linecap="round" stroke-linejoin="round" fill="#FFFFFF"/>
        <path d="M 135.1900,54.1275 L 135.1900,54.0009 L 135.1338,53.7479 L 135.0917,53.6354 L 135.0355,53.5229 L 134.9793,53.4245 L 134.9091,53.3261 L 134.8248,53.2277 L 134.7265,53.1433 L 134.6282,53.0730 L 134.5299,53.0168 L 134.4175,52.9606 L 134.3052,52.9184 L 134.0524,52.8622 L 132.2828,52.8622 L 132.0300,52.9184 L 131.9177,52.9606 L 131.8053,53.0168 L 131.7070,53.0730 L 131.6087,53.1433 L 131.5104,53.2277 L 131.4261,53.3261 L 131.3559,53.4245 L 131.2997,53.5229 L 131.2435,53.6354 L 131.2014,53.7479 L 131.1452,54.0009 L 131.1452,54.2540 L 131.2014,54.5071 L 131.2435,54.6195 L 131.2997,54.7320 L 131.3559,54.8304 L 131.4261,54.9288 L 131.5104,55.0272 L 131.6087,55.1116 L 131.7070,55.1819 L 131.8053,55.2381 L 131.9177,55.2944 L 132.0300,55.3365 L 132.2828,55.3928 L 134.0524,55.3928 L 134.3052,55.3365 L 134.4175,55.2944 L 134.5299,55.2381 L 134.6282,55.1819 L 134.7265,55.1116 L 134.8248,55.0272 L 134.9091,54.9288 L 134.9793,54.8304 L 135.0355,54.7320 L 135.0917,54.6195 L 135.1338,54.5071 L 135.1900,54.2540 L 135.1900,54.1275 Z" stroke="#000000" stroke-width="0.1199" stroke-linecap="round" stroke-linejoin="round" fill="#FFFFFF"/>
        <path d="M 19.9990,4.0490 L 19.9990,0.0281 L 114.3623,0.0281 L 114.3623,4.0490 L 19.9990,4.0490 Z" stroke="#000000" stroke-width="0.1199" stroke-linecap="round" stroke-linejoin="round" fill="#666666"/>
        <path d="M 24.0438,3.9084 L 24.0438,3.1774 L 25.1533,3.1774 " stroke="#FFFFFF" stroke-width="0.1199" stroke-linecap="round" stroke-linejoin="round" fill="none"/>
        <text font-family="Arial" fill="#FFFFFF" style="white-space:pre;" text-anchor="start" x="25.2235" y="3.5569" font-size="0.9971"><![CDATA[S]]></text>
        <text font-family="Arial" fill="#FFFFFF" style="white-space:pre;" text-anchor="start" x="25.8836" y="3.5569" font-size="0.9971"><![CDATA[M]]></text>
        <text font-family="Arial" fill="#FFFFFF" style="white-space:pre;" text-anchor="start" x="26.7122" y="3.5569" font-size="0.9971"><![CDATA[1]]></text>
        <path d="M 91.2595,3.9084 L 91.2595,3.1774 L 92.3690,3.1774 " stroke="#FFFFFF" stroke-width="0.1199" stroke-linecap="round" stroke-linejoin="round" fill="none"/>
        <text font-family="Arial" fill="#FFFFFF" style="white-space:pre;" text-anchor="start" x="92.4393" y="3.5569" font-size="0.9971"><![CDATA[S]]></text>
        <text font-family="Arial" fill="#FFFFFF" style="white-space:pre;" text-anchor="start" x="93.0993" y="3.5569" font-size="0.9971"><![CDATA[M]]></text>
        <text font-family="Arial" fill="#FFFFFF" style="white-space:pre;" text-anchor="start" x="93.9280" y="3.5569" font-size="0.9971"><![CDATA[2]]></text>
        <path d="M 48.8600,3.9084 L 48.8600,3.1774 L 49.9694,3.1774 " stroke="#FFFFFF" stroke-width="0.1199" stroke-linecap="round" stroke-linejoin="round" fill="none"/>
        <text font-family="Arial" fill="#FFFFFF" style="white-space:pre;" text-anchor="start" x="50.0397" y="3.5569" font-size="0.9971"><![CDATA[S]]></text>
        <text font-family="Arial" fill="#FFFFFF" style="white-space:pre;" text-anchor="start" x="50.6997" y="3.5569" font-size="0.9971"><![CDATA[A]]></text>
        <text font-family="Arial" fill="#FFFFFF" style="white-space:pre;" text-anchor="start" x="51.3598" y="3.5569" font-size="0.9971"><![CDATA[P]]></text>
        <path d="M 114.1376,0.0281 L 115.9634,0.0281 L 115.9634,62.7879 L 114.1376,62.7879 L 114.1376,0.0281 Z" stroke="#000000" stroke-width="0.1199" stroke-linecap="round" stroke-linejoin="round" fill="#666666"/>
        <path d="M 114.9943,0.7592 L 115.2471,1.4340 L 115.0926,1.4340 L 115.0926,2.8399 L 114.8960,2.8399 L 114.8960,1.4340 L 114.7415,1.4340 L 114.9943,0.7592 Z" stroke="#FFFFFF" stroke-width="0.1199" stroke-linecap="round" stroke-linejoin="round" fill="#F7F7F7"/>
        <path d="M 46.8412,4.2242 L 20.2352,4.2242 L 20.2352,10.2729 L 46.8412,10.2729 L 46.8412,4.2242 Z" stroke="#000000" stroke-width="0.1199" stroke-linecap="round" stroke-linejoin="round" fill="none"/>
        <path d="M 113.9315,4.2242 L 87.3255,4.2242 L 87.3255,10.2729 L 113.9315,10.2729 L 113.9315,4.2242 Z" stroke="#000000" stroke-width="0.1199" stroke-linecap="round" stroke-linejoin="round" fill="none"/>
        <text font-family="Arial" fill="#FFFFFF" transform="rotate(-90, 116.5696, 10.1493) translate(0, 0.2273)" style="white-space:pre;" font-weight="400" text-anchor="start" x="116.5696" y="10.1493" font-size="0.2526"><![CDATA[FILTER]]></text>
        <text font-family="Arial" fill="#FFFFFF" transform="rotate(-90, 116.5977, 6.3040) translate(0, 0.2273)" style="white-space:pre;" font-weight="400" text-anchor="start" x="116.5977" y="6.3040" font-size="0.2526"><![CDATA[TOP]]></text>
        <path d="M 82.8878,3.1729 L 83.3307,2.0228 L 81.3980,2.0228 L 80.9550,3.1729 " stroke="#FFFFFF" stroke-width="0.1199" stroke-linecap="round" stroke-linejoin="round" fill="none"/>
        <path d="M 81.9214,3.1333 L 82.3644,2.0228 L 82.3644,0.7932 " stroke="#FFFFFF" stroke-width="0.1199" stroke-linecap="round" stroke-linejoin="round" fill="none"/>
        <path d="M 98.7019,2.1085 L 98.6774,2.1085 L 98.6651,2.0964 L 98.6528,2.0964 L 98.6160,2.0601 L 98.6160,2.0479 L 98.6038,2.0358 L 98.6038,0.6301 L 98.6160,0.6180 L 98.6160,0.6059 L 98.6283,0.5938 L 98.6406,0.5938 L 98.6406,0.5817 L 98.6528,0.5695 L 98.6651,0.5695 L 98.6774,0.5574 L 100.3461,0.5574 L 100.3584,0.5695 L 100.3707,0.5695 L 100.4075,0.6059 L 100.4075,0.6180 L 100.4198,0.6301 L 100.4198,0.9089 L 100.4075,0.9089 L 100.4075,0.8967 L 100.3952,0.8967 L 100.3952,0.8846 L 100.3829,0.8846 L 100.3829,0.8725 L 100.3584,0.8725 L 100.3584,0.8604 L 99.0087,0.8604 L 99.0087,0.8725 L 98.9841,0.8725 L 98.9841,0.8846 L 98.9719,0.8846 L 98.9719,0.9089 L 98.9596,0.9089 L 98.9596,2.0601 L 98.9719,2.0601 L 98.9719,2.0843 L 98.9841,2.0843 L 98.9841,2.0964 L 98.9964,2.0964 L 98.9964,2.1085 L 98.7142,2.1085 L 98.7019,2.1085 Z" stroke="#FFFFFF" stroke-width="0.1199" stroke-linecap="round" stroke-linejoin="round" fill="#FFFFFF"/>
        <path d="M 100.2971,1.2118 L 99.0823,1.2118 L 99.0823,1.1997 L 99.0578,1.1997 L 99.0578,1.1876 L 99.0455,1.1876 L 99.0455,1.1633 L 99.0332,1.1633 L 99.0332,1.4663 L 99.0455,1.4663 L 99.0455,1.4905 L 99.0578,1.4905 L 99.0578,1.5026 L 99.0823,1.5026 L 99.0823,1.5148 L 100.3216,1.5148 L 100.3461,1.4905 L 100.3584,1.4905 L 100.3829,1.4663 L 100.3829,1.4542 L 100.3952,1.4420 L 100.3952,1.4299 L 100.4075,1.4178 L 100.4075,1.3936 L 100.4198,1.3815 L 100.4198,1.3451 L 100.4075,1.3330 L 100.4075,1.2966 L 100.3829,1.2724 L 100.3829,1.2603 L 100.3707,1.2482 L 100.3584,1.2482 L 100.3584,1.2360 L 100.3461,1.2360 L 100.3339,1.2239 L 100.3216,1.2239 L 100.3093,1.2118 L 100.2971,1.2118 Z" stroke="#FFFFFF" stroke-width="0.1199" stroke-linecap="round" stroke-linejoin="round" fill="#FFFFFF"/>
        <path d="M 103.1315,1.5148 L 103.1069,1.5148 L 103.1069,1.5026 L 103.0824,1.5026 L 103.0824,1.4905 L 103.0701,1.4905 L 103.0701,1.4663 L 103.0579,1.4663 L 103.0579,1.1633 L 103.0701,1.1633 L 103.0701,1.1876 L 103.0824,1.1876 L 103.0824,1.1997 L 103.1069,1.1997 L 103.1069,1.2118 L 104.0886,1.2118 L 104.0886,0.8604 L 103.0333,0.8604 L 103.0333,0.8725 L 103.0088,0.8725 L 103.0088,0.8846 L 102.9965,0.8846 L 102.9965,0.9089 L 102.9842,0.9089 L 102.9842,2.0601 L 102.9965,2.0601 L 102.9965,2.0843 L 103.0088,2.0843 L 103.0088,2.0964 L 103.0211,2.0964 L 103.0211,2.1085 L 102.7020,2.1085 L 102.6898,2.0964 L 102.6775,2.0964 L 102.6407,2.0601 L 102.6407,2.0479 L 102.6284,2.0358 L 102.6284,0.6301 L 102.6407,0.6180 L 102.6407,0.6059 L 102.6529,0.5938 L 102.6652,0.5938 L 102.6652,0.5817 L 102.6775,0.5695 L 102.6898,0.5695 L 102.7020,0.5574 L 104.3708,0.5574 L 104.3830,0.5695 L 104.3953,0.5695 L 104.4321,0.6059 L 104.4321,0.6180 L 104.4444,0.6301 L 104.4444,1.3936 L 104.4321,1.4057 L 104.4321,1.4299 L 104.4199,1.4299 L 104.4199,1.4420 L 104.4076,1.4542 L 104.4076,1.4663 L 104.3953,1.4663 L 104.3953,1.4784 L 104.3830,1.4784 L 104.3830,1.4905 L 104.3708,1.4905 L 104.3708,1.5026 L 104.3585,1.5026 L 104.3462,1.5148 L 104.3585,1.5269 L 104.3708,1.5269 L 104.3708,1.5390 L 104.3830,1.5390 L 104.3830,1.5511 L 104.3953,1.5511 L 104.3953,1.5632 L 104.4076,1.5632 L 104.4076,1.5753 L 104.4199,1.5875 L 104.4199,1.5996 L 104.4321,1.5996 L 104.4321,1.6238 L 104.4444,1.6359 L 104.4444,2.0601 L 104.4567,2.0601 L 104.4567,2.0843 L 104.4689,2.0843 L 104.4689,2.0964 L 104.4812,2.0964 L 104.4812,2.1085 L 104.1622,2.1085 L 104.1499,2.0964 L 104.1376,2.0964 L 104.1008,2.0601 L 104.1008,2.0479 L 104.0886,2.0358 L 104.0886,1.5148 L 103.1438,1.5148 L 103.1315,1.5148 Z" stroke="#FFFFFF" stroke-width="0.1199" stroke-linecap="round" stroke-linejoin="round" fill="#FFFFFF"/>
        <path d="M 105.0825,0.8604 L 104.7143,0.8604 L 104.7021,0.8483 L 104.6898,0.8483 L 104.6530,0.8119 L 104.6530,0.7998 L 104.6407,0.7877 L 104.6407,0.6301 L 104.6530,0.6180 L 104.6530,0.6059 L 104.6653,0.5938 L 104.6775,0.5938 L 104.6775,0.5817 L 104.6898,0.5695 L 104.7021,0.5695 L 104.7143,0.5574 L 106.3831,0.5574 L 106.3954,0.5695 L 106.4076,0.5695 L 106.4445,0.6059 L 106.4445,0.6180 L 106.4567,0.6301 L 106.4567,0.9089 L 106.4445,0.9089 L 106.4445,0.8967 L 106.4322,0.8967 L 106.4322,0.8846 L 106.4199,0.8846 L 106.4199,0.8725 L 106.3954,0.8725 L 106.3954,0.8604 L 105.4874,0.8604 L 105.4874,0.8725 L 105.4628,0.8725 L 105.4628,0.8846 L 105.4506,0.8846 L 105.4506,0.9089 L 105.4383,0.9089 L 105.4383,2.0601 L 105.4506,2.0601 L 105.4506,2.0843 L 105.4628,2.0843 L 105.4628,2.0964 L 105.4751,2.0964 L 105.4751,2.1085 L 105.1561,2.1085 L 105.1438,2.0964 L 105.1315,2.0964 L 105.0947,2.0601 L 105.0947,2.0479 L 105.0825,2.0358 L 105.0825,0.8967 L 105.0825,0.8604 Z" stroke="#FFFFFF" stroke-width="0.1199" stroke-linecap="round" stroke-linejoin="round" fill="#FFFFFF"/>
        <path d="M 107.0089,2.0237 L 107.0089,2.0601 L 107.0212,2.0601 L 107.0212,2.0843 L 107.0334,2.0843 L 107.0334,2.0964 L 107.0457,2.0964 L 107.0457,2.1085 L 106.7267,2.1085 L 106.7144,2.0964 L 106.7021,2.0964 L 106.6653,2.0601 L 106.6653,2.0479 L 106.6530,2.0358 L 106.6530,0.6059 L 106.6408,0.6059 L 106.6408,0.5817 L 106.6285,0.5817 L 106.6285,0.5695 L 106.6162,0.5695 L 106.6162,0.5574 L 106.9353,0.5574 L 106.9475,0.5695 L 106.9598,0.5695 L 106.9966,0.6059 L 106.9966,0.6180 L 107.0089,0.6301 L 107.0089,2.0116 L 107.0089,2.0237 Z" stroke="#FFFFFF" stroke-width="0.1199" stroke-linecap="round" stroke-linejoin="round" fill="#FFFFFF"/>
        <path d="M 108.7513,0.8604 L 107.6960,0.8604 L 107.6960,0.8725 L 107.6715,0.8725 L 107.6715,0.8846 L 107.6592,0.8846 L 107.6592,0.9089 L 107.6469,0.9089 L 107.6469,2.0601 L 107.6592,2.0601 L 107.6592,2.0843 L 107.6715,2.0843 L 107.6715,2.0964 L 107.6837,2.0964 L 107.6837,2.1085 L 107.3647,2.1085 L 107.3525,2.0964 L 107.3402,2.0964 L 107.3034,2.0601 L 107.3034,2.0479 L 107.2911,2.0358 L 107.2911,0.6301 L 107.3034,0.6180 L 107.3034,0.6059 L 107.3156,0.5938 L 107.3279,0.5938 L 107.3279,0.5817 L 107.3402,0.5695 L 107.3525,0.5695 L 107.3647,0.5574 L 109.0335,0.5574 L 109.0457,0.5695 L 109.0580,0.5695 L 109.0948,0.6059 L 109.0948,0.6180 L 109.1071,0.6301 L 109.1071,2.0601 L 109.1194,2.0601 L 109.1194,2.0843 L 109.1316,2.0843 L 109.1316,2.0964 L 109.1439,2.0964 L 109.1439,2.1085 L 108.8249,2.1085 L 108.8126,2.0964 L 108.8003,2.0964 L 108.7635,2.0601 L 108.7635,2.0479 L 108.7513,2.0358 L 108.7513,0.8967 L 108.7513,0.8604 Z" stroke="#FFFFFF" stroke-width="0.1199" stroke-linecap="round" stroke-linejoin="round" fill="#FFFFFF"/>
        <path d="M 110.9108,1.2118 L 109.7820,1.2118 L 109.7697,1.1997 L 109.7574,1.1997 L 109.7574,1.1876 L 109.7452,1.1876 L 109.7452,1.1633 L 109.7329,1.1633 L 109.7329,1.4663 L 109.7452,1.4663 L 109.7452,1.4905 L 109.7574,1.4905 L 109.7574,1.5026 L 109.7697,1.5026 L 109.7820,1.5148 L 110.9231,1.5148 L 110.9476,1.4905 L 110.9599,1.4905 L 110.9844,1.4663 L 110.9844,1.4542 L 110.9967,1.4420 L 110.9967,1.4299 L 111.0090,1.4178 L 111.0090,1.3936 L 111.0213,1.3815 L 111.0213,1.3330 L 111.0090,1.3209 L 111.0090,1.2845 L 110.9967,1.2845 L 110.9967,1.2724 L 110.9599,1.2360 L 110.9476,1.2360 L 110.9476,1.2239 L 110.9354,1.2239 L 110.9231,1.2118 L 110.9108,1.2118 Z" stroke="#FFFFFF" stroke-width="0.1199" stroke-linecap="round" stroke-linejoin="round" fill="#FFFFFF"/>
        <path d="M 111.7575,0.8604 L 111.3894,0.8604 L 111.3771,0.8483 L 111.3648,0.8483 L 111.3280,0.8119 L 111.3280,0.7998 L 111.3157,0.7877 L 111.3157,0.6301 L 111.3280,0.6180 L 111.3280,0.6059 L 111.3403,0.5938 L 111.3526,0.5938 L 111.3526,0.5817 L 111.3648,0.5695 L 111.3771,0.5695 L 111.3894,0.5574 L 113.0581,0.5574 L 113.0704,0.5695 L 113.0827,0.5695 L 113.1195,0.6059 L 113.1195,0.6180 L 113.1317,0.6301 L 113.1317,0.9089 L 113.1195,0.9089 L 113.1195,0.8967 L 113.1072,0.8967 L 113.1072,0.8846 L 113.0949,0.8846 L 113.0949,0.8725 L 113.0704,0.8725 L 113.0704,0.8604 L 112.1624,0.8604 L 112.1624,0.8725 L 112.1379,0.8725 L 112.1379,0.8846 L 112.1256,0.8846 L 112.1256,0.9089 L 112.1133,0.9089 L 112.1133,2.0601 L 112.1256,2.0601 L 112.1256,2.0843 L 112.1379,2.0843 L 112.1379,2.0964 L 112.1501,2.0964 L 112.1501,2.1085 L 111.8311,2.1085 L 111.8188,2.0964 L 111.8066,2.0964 L 111.7697,2.0601 L 111.7697,2.0479 L 111.7575,2.0358 L 111.7575,0.8967 L 111.7575,0.8604 Z" stroke="#FFFFFF" stroke-width="0.1199" stroke-linecap="round" stroke-linejoin="round" fill="#FFFFFF"/>
        <path d="M 111.0335,1.8056 L 111.0581,1.8056 L 111.0581,1.7935 L 111.0826,1.7935 L 111.0826,1.7814 L 111.0949,1.7814 L 111.0949,1.7692 L 111.1071,1.7692 L 111.1071,1.7571 L 111.1194,1.7571 L 111.1194,2.0358 L 111.1071,2.0479 L 111.1071,2.0601 L 111.0949,2.0722 L 111.0949,2.0843 L 111.0826,2.0843 L 111.0703,2.0964 L 111.0581,2.0964 L 111.0458,2.1085 L 109.3770,2.1085 L 109.3648,2.0964 L 109.3525,2.0964 L 109.3157,2.0601 L 109.3157,2.0479 L 109.3034,2.0358 L 109.3034,0.6301 L 109.3157,0.6180 L 109.3157,0.6059 L 109.3280,0.5938 L 109.3402,0.5938 L 109.3402,0.5817 L 109.3525,0.5695 L 109.3648,0.5695 L 109.3770,0.5574 L 111.0458,0.5574 L 111.0581,0.5695 L 111.0703,0.5695 L 111.1071,0.6059 L 111.1071,0.6180 L 111.1194,0.6301 L 111.1194,0.9089 L 111.1071,0.9089 L 111.1071,0.8967 L 111.0949,0.8967 L 111.0949,0.8846 L 111.0826,0.8846 L 111.0826,0.8725 L 111.0581,0.8725 L 111.0581,0.8604 L 109.7083,0.8604 L 109.7083,0.8725 L 109.6838,0.8725 L 109.6838,0.8846 L 109.6715,0.8846 L 109.6715,0.9089 L 109.6593,0.9089 L 109.6593,1.8056 L 111.0213,1.8056 L 111.0335,1.8056 Z" stroke="#FFFFFF" stroke-width="0.1199" stroke-linecap="round" stroke-linejoin="round" fill="#FFFFFF"/>
        <path d="M 101.2296,1.6602 L 101.2296,2.1085 L 101.8186,2.1085 L 101.8186,1.6602 L 101.2296,1.6602 Z" stroke="#ED3440" stroke-width="0.1199" stroke-linecap="round" stroke-linejoin="round" fill="#ED3440"/>
        <path d="M 100.6161,1.1149 L 101.1192,1.1149 L 101.1192,1.5511 L 100.6161,1.5511 L 100.6161,1.1149 Z" stroke="#ED3440" stroke-width="0.1199" stroke-linecap="round" stroke-linejoin="round" fill="#ED3440"/>
        <path d="M 101.9290,1.6602 L 101.9290,2.1085 L 102.1131,2.1085 L 102.1253,2.0964 L 102.1744,2.0964 L 102.1867,2.0843 L 102.2112,2.0843 L 102.2358,2.0722 L 102.2480,2.0601 L 102.2726,2.0479 L 102.2971,2.0237 L 102.3216,2.0116 L 102.3339,1.9995 L 102.3462,1.9752 L 102.3585,1.9631 L 102.4075,1.8662 L 102.4075,1.8419 L 102.4198,1.8056 L 102.4198,1.7692 L 102.4321,1.7329 L 102.4321,1.6602 L 101.9413,1.6602 L 101.9290,1.6602 Z" stroke="#ED3440" stroke-width="0.1199" stroke-linecap="round" stroke-linejoin="round" fill="#ED3440"/>
        <path d="M 101.9290,1.1149 L 102.4321,1.1149 L 102.4321,1.5511 L 101.9290,1.5511 L 101.9290,1.1149 Z" stroke="#ED3440" stroke-width="0.1199" stroke-linecap="round" stroke-linejoin="round" fill="#ED3440"/>
        <path d="M 101.1192,1.6602 L 101.1192,2.1085 L 100.9351,2.1085 L 100.9228,2.0964 L 100.8738,2.0964 L 100.8615,2.0843 L 100.8369,2.0843 L 100.8124,2.0722 L 100.8001,2.0601 L 100.7756,2.0479 L 100.7511,2.0237 L 100.7265,2.0116 L 100.7142,1.9995 L 100.7020,1.9752 L 100.6897,1.9631 L 100.6406,1.8662 L 100.6406,1.8419 L 100.6284,1.8056 L 100.6284,1.7692 L 100.6161,1.7329 L 100.6161,1.6602 L 101.1069,1.6602 L 101.1192,1.6602 Z" stroke="#ED3440" stroke-width="0.1199" stroke-linecap="round" stroke-linejoin="round" fill="#ED3440"/>
        <path d="M 101.2296,0.5574 L 101.2296,1.0058 L 101.8186,1.0058 L 101.8186,0.5574 L 101.2296,0.5574 Z" stroke="#ED3440" stroke-width="0.1199" stroke-linecap="round" stroke-linejoin="round" fill="#ED3440"/>
        <path d="M 101.9290,1.0058 L 101.9290,0.5574 L 102.1131,0.5574 L 102.1253,0.5695 L 102.1744,0.5695 L 102.1867,0.5817 L 102.2112,0.5817 L 102.2358,0.5938 L 102.2480,0.6059 L 102.2726,0.6180 L 102.2971,0.6423 L 102.3216,0.6544 L 102.3339,0.6665 L 102.3462,0.6907 L 102.3585,0.7028 L 102.4075,0.7998 L 102.4075,0.8240 L 102.4198,0.8604 L 102.4198,0.8967 L 102.4321,0.9331 L 102.4321,1.0058 L 101.9413,1.0058 L 101.9290,1.0058 Z" stroke="#ED3440" stroke-width="0.1199" stroke-linecap="round" stroke-linejoin="round" fill="#ED3440"/>
        <path d="M 101.1192,1.0058 L 101.1192,0.5574 L 100.9351,0.5574 L 100.9228,0.5695 L 100.8738,0.5695 L 100.8615,0.5817 L 100.8369,0.5817 L 100.8124,0.5938 L 100.8001,0.6059 L 100.7756,0.6180 L 100.7511,0.6423 L 100.7265,0.6544 L 100.7142,0.6665 L 100.7020,0.6907 L 100.6897,0.7028 L 100.6406,0.7998 L 100.6406,0.8240 L 100.6284,0.8604 L 100.6284,0.8967 L 100.6161,0.9331 L 100.6161,1.0058 L 101.1069,1.0058 L 101.1192,1.0058 Z" stroke="#ED3440" stroke-width="0.1199" stroke-linecap="round" stroke-linejoin="round" fill="#ED3440"/>
        <text font-family="Arial" fill="#FFFFFF" style="white-space:pre;" font-weight="400" text-anchor="start" x="123.7701" y="1.3718" font-size="0.1104"><![CDATA[®]]></text>
        <text font-family="Arial" fill="#FFFFFF" style="white-space:pre;" font-weight="400" text-anchor="start" x="120.7025" y="1.6861" font-size="0.2577"><![CDATA[FortiGate 5060]]></text>
        <path d="M 47.0376,4.2242 L 87.1852,4.2242 L 87.1852,10.2729 L 47.0376,10.2729 L 47.0376,4.2242 Z" stroke="#000000" stroke-width="0.1199" stroke-linecap="round" stroke-linejoin="round" fill="none"/>
        <path d="M 20.2216,62.5922 L 113.9152,62.5922 L 113.9152,54.2942 L 20.2216,54.2942 L 20.2216,62.5922 Z" stroke="#000000" stroke-width="0.1199" stroke-linecap="round" stroke-linejoin="round" fill="none"/>
        <path d="M 20.2216,53.8604 L 113.9152,53.8604 L 113.9152,45.5623 L 20.2216,45.5623 L 20.2216,53.8604 Z" stroke="#000000" stroke-width="0.1199" stroke-linecap="round" stroke-linejoin="round" fill="none"/>
        <path d="M 20.2216,45.1425 L 113.9152,45.1425 L 113.9152,36.8445 L 20.2216,36.8445 L 20.2216,45.1425 Z" stroke="#000000" stroke-width="0.1199" stroke-linecap="round" stroke-linejoin="round" fill="none"/>
        <path d="M 20.2216,36.4247 L 113.9152,36.4247 L 113.9152,28.1266 L 20.2216,28.1266 L 20.2216,36.4247 Z" stroke="#000000" stroke-width="0.1199" stroke-linecap="round" stroke-linejoin="round" fill="none"/>
        <path d="M 20.2216,27.7068 L 113.9152,27.7068 L 113.9152,19.4088 L 20.2216,19.4088 L 20.2216,27.7068 Z" stroke="#000000" stroke-width="0.1199" stroke-linecap="round" stroke-linejoin="round" fill="none"/>
        <path d="M 20.2216,18.9890 L 113.9152,18.9890 L 113.9152,10.6909 L 20.2216,10.6909 L 20.2216,18.9890 Z" stroke="#000000" stroke-width="0.1199" stroke-linecap="round" stroke-linejoin="round" fill="none"/>
        <path d="M 20.0874,0.0562 L 7.1921,0.0562 L 7.1921,62.8160 L 20.0874,62.8160 L 20.0874,0.0562 Z" stroke="#000000" stroke-width="0.1199" stroke-linecap="round" stroke-linejoin="round" fill="none"/>
        <path d="M 128.9809,0.0562 L 116.0856,0.0562 L 116.0856,62.8160 L 128.9809,62.8160 L 128.9809,0.0562 Z" stroke="#000000" stroke-width="0.1199" stroke-linecap="round" stroke-linejoin="round" fill="none"/>
        <path d="M 80.8319,1.9500 L 80.1015,0.7184 L 78.6754,0.7184 L 77.9798,1.9500 L 78.7102,3.1815 L 80.1362,3.1815 L 80.8319,1.9500 Z" stroke="#000000" stroke-width="0.1199" stroke-linecap="round" stroke-linejoin="round" fill="#999999"/>
        <ellipse cx="79.3363" cy="1.8987" rx="1.0087" ry="1.0092" fill="#DDDDDD" stroke="#000000" stroke-width="0.1199" stroke-linecap="round" stroke-linejoin="round"/>
        <ellipse cx="79.3363" cy="1.8987" rx="1.0087" ry="1.0092" fill="none" stroke="#BFBFBF" stroke-width="0.1199" stroke-linecap="round" stroke-linejoin="round"/>
        <ellipse cx="79.3537" cy="1.8987" rx="0.9565" ry="0.9408" fill="#999999" stroke="#000000" stroke-width="0.1199" stroke-linecap="round" stroke-linejoin="round"/>
        <ellipse cx="79.3537" cy="1.8987" rx="0.9565" ry="0.9408" fill="none" stroke="#BFBFBF" stroke-width="0.1199" stroke-linecap="round" stroke-linejoin="round"/>
        <ellipse cx="79.3537" cy="1.8987" rx="0.4000" ry="0.3934" fill="#A5A5A5" stroke="#000000" stroke-width="0.1199" stroke-linecap="round" stroke-linejoin="round"/>
        <ellipse cx="79.3537" cy="1.8987" rx="0.4000" ry="0.3934" fill="none" stroke="#999999" stroke-width="0.1199" stroke-linecap="round" stroke-linejoin="round"/>
      </g>
      <!--emf-blob end-->
    </g>
  </g>
</svg>
