<svg xmlns="http://www.w3.org/2000/svg" xmlns:xlink="http://www.w3.org/1999/xlink" version="1.1" width="3.4032000000" height="0.6032000000" viewBox="0 0 61.2567 10.8567">
  <title><![CDATA[FG-70/71F]]></title>
  <g transform=" scale(4.000000) ">
    <!--converted by libvisio2svg-->
    <g transform=" translate(0.000000,0.000000) ">
      <!--emf-blob start-->
      <g transform="translate(-0.0000, -0.0000)">
        <path d="M 60.7894,0.2244 L 60.7894,0.1823 L 60.7754,0.1403 L 60.7615,0.1122 L 60.7335,0.0842 L 60.7056,0.0561 L 60.6777,0.0421 L 60.6358,0.0281 L 60.5939,0.0281 L 0.2234,0.0281 L 0.1815,0.0281 L 0.1396,0.0421 L 0.1117,0.0561 L 0.0838,0.0842 L 0.0558,0.1122 L 0.0419,0.1403 L 0.0279,0.1823 L 0.0279,0.2244 L 0.0279,10.6042 L 0.0279,10.6463 L 0.0419,10.6884 L 0.0558,10.7164 L 0.0838,10.7445 L 0.1117,10.7725 L 0.1396,10.7866 L 0.1815,10.8006 L 0.2234,10.8006 L 60.5939,10.8006 L 60.6358,10.8006 L 60.6777,10.7866 L 60.7056,10.7725 L 60.7335,10.7445 L 60.7615,10.7164 L 60.7754,10.6884 L 60.7894,10.6463 L 60.7894,10.6042 L 60.7894,0.2244 Z" stroke="#000000" stroke-width="0.1193" stroke-linecap="round" stroke-linejoin="round" fill="#EDEDED"/>
        <path d="M 0.4887,0.0281 L 0.4887,0.2665 L 0.0279,0.2665 " stroke="#000000" stroke-width="0.1193" stroke-linecap="round" stroke-linejoin="round" fill="none"/>
        <path d="M 60.3287,0.0281 L 60.3287,0.2665 L 60.7894,0.2665 " stroke="#000000" stroke-width="0.1193" stroke-linecap="round" stroke-linejoin="round" fill="none"/>
        <path d="M 0.4887,10.8006 L 0.4887,10.5621 L 0.0279,10.5621 " stroke="#000000" stroke-width="0.1193" stroke-linecap="round" stroke-linejoin="round" fill="none"/>
        <path d="M 60.3287,10.8006 L 60.3287,10.5621 L 60.7894,10.5621 " stroke="#000000" stroke-width="0.1193" stroke-linecap="round" stroke-linejoin="round" fill="none"/>
        <path d="M 15.0089,4.5727 L 10.6807,4.5727 L 10.6807,8.5844 L 15.0089,8.5844 L 15.0089,4.5727 Z" stroke="#000000" stroke-width="0.1193" stroke-linecap="round" stroke-linejoin="round" fill="#DDDDDD"/>
        <path d="M 37.0405,4.5727 L 15.9024,4.5727 L 15.9024,8.5844 L 37.0405,8.5844 L 37.0405,4.5727 Z" stroke="#000000" stroke-width="0.1193" stroke-linecap="round" stroke-linejoin="round" fill="#DDDDDD"/>
        <path d="M 20.2864,5.0777 L 16.4330,5.0777 L 16.4330,8.3740 L 20.2864,8.3740 L 20.2864,5.0777 Z" stroke="#000000" stroke-width="0.1193" stroke-linecap="round" stroke-linejoin="round" fill="#EAEAEA"/>
        <path d="M 24.3493,5.0777 L 20.4958,5.0777 L 20.4958,8.3740 L 24.3493,8.3740 L 24.3493,5.0777 Z" stroke="#000000" stroke-width="0.1193" stroke-linecap="round" stroke-linejoin="round" fill="#EAEAEA"/>
        <path d="M 28.3982,5.0777 L 24.5447,5.0777 L 24.5447,8.3740 L 28.3982,8.3740 L 28.3982,5.0777 Z" stroke="#000000" stroke-width="0.1193" stroke-linecap="round" stroke-linejoin="round" fill="#EAEAEA"/>
        <path d="M 32.4610,5.0777 L 28.6076,5.0777 L 28.6076,8.3740 L 32.4610,8.3740 L 32.4610,5.0777 Z" stroke="#000000" stroke-width="0.1193" stroke-linecap="round" stroke-linejoin="round" fill="#EAEAEA"/>
        <path d="M 36.5099,5.0777 L 32.6565,5.0777 L 32.6565,8.3740 L 36.5099,8.3740 L 36.5099,5.0777 Z" stroke="#000000" stroke-width="0.1193" stroke-linecap="round" stroke-linejoin="round" fill="#EAEAEA"/>
        <path d="M 58.4299,4.5727 L 37.2918,4.5727 L 37.2918,8.5844 L 58.4299,8.5844 L 58.4299,4.5727 Z" stroke="#000000" stroke-width="0.1193" stroke-linecap="round" stroke-linejoin="round" fill="#DDDDDD"/>
        <path d="M 41.6758,5.0777 L 37.8223,5.0777 L 37.8223,8.3740 L 41.6758,8.3740 L 41.6758,5.0777 Z" stroke="#000000" stroke-width="0.1193" stroke-linecap="round" stroke-linejoin="round" fill="#EAEAEA"/>
        <path d="M 45.7386,5.0777 L 41.8852,5.0777 L 41.8852,8.3740 L 45.7386,8.3740 L 45.7386,5.0777 Z" stroke="#000000" stroke-width="0.1193" stroke-linecap="round" stroke-linejoin="round" fill="#EAEAEA"/>
        <path d="M 49.7875,5.0777 L 45.9341,5.0777 L 45.9341,8.3740 L 49.7875,8.3740 L 49.7875,5.0777 Z" stroke="#000000" stroke-width="0.1193" stroke-linecap="round" stroke-linejoin="round" fill="#EAEAEA"/>
        <path d="M 53.8504,5.0777 L 49.9970,5.0777 L 49.9970,8.3740 L 53.8504,8.3740 L 53.8504,5.0777 Z" stroke="#000000" stroke-width="0.1193" stroke-linecap="round" stroke-linejoin="round" fill="#EAEAEA"/>
        <path d="M 57.8993,5.0777 L 54.0459,5.0777 L 54.0459,8.3740 L 57.8993,8.3740 L 57.8993,5.0777 Z" stroke="#000000" stroke-width="0.1193" stroke-linecap="round" stroke-linejoin="round" fill="#EAEAEA"/>
        <path d="M 33.9549,1.3886 L 33.9549,1.3466 L 33.9410,1.3045 L 33.9131,1.2624 L 33.8851,1.2203 L 33.8432,1.1923 L 33.8014,1.1642 L 33.7595,1.1502 L 33.7176,1.1502 L 32.8380,1.1502 L 32.7961,1.1502 L 32.7542,1.1642 L 32.7123,1.1923 L 32.6705,1.2203 L 32.6425,1.2624 L 32.6146,1.3045 L 32.6007,1.3466 L 32.6007,1.3886 L 32.6007,1.4027 L 32.6007,1.4448 L 32.6146,1.4868 L 32.6425,1.5289 L 32.6705,1.5710 L 32.7123,1.5990 L 32.7542,1.6271 L 32.7961,1.6411 L 32.8380,1.6411 L 33.7176,1.6411 L 33.7595,1.6411 L 33.8014,1.6271 L 33.8432,1.5990 L 33.8851,1.5710 L 33.9131,1.5289 L 33.9410,1.4868 L 33.9549,1.4448 L 33.9549,1.4027 L 33.9549,1.3886 Z" stroke="#000000" stroke-width="0.1193" stroke-linecap="round" stroke-linejoin="round" fill="#000000"/>
        <path d="M 36.1609,1.3886 L 36.1609,1.3466 L 36.1469,1.3045 L 36.1190,1.2624 L 36.0911,1.2203 L 36.0492,1.1923 L 36.0073,1.1642 L 35.9654,1.1502 L 35.9235,1.1502 L 35.0440,1.1502 L 35.0021,1.1502 L 34.9602,1.1642 L 34.9183,1.1923 L 34.8764,1.2203 L 34.8485,1.2624 L 34.8206,1.3045 L 34.8066,1.3466 L 34.8066,1.3886 L 34.8066,1.4027 L 34.8066,1.4448 L 34.8206,1.4868 L 34.8485,1.5289 L 34.8764,1.5710 L 34.9183,1.5990 L 34.9602,1.6271 L 35.0021,1.6411 L 35.0440,1.6411 L 35.9235,1.6411 L 35.9654,1.6411 L 36.0073,1.6271 L 36.0492,1.5990 L 36.0911,1.5710 L 36.1190,1.5289 L 36.1469,1.4868 L 36.1609,1.4448 L 36.1609,1.4027 L 36.1609,1.3886 Z" stroke="#000000" stroke-width="0.1193" stroke-linecap="round" stroke-linejoin="round" fill="#000000"/>
        <path d="M 38.3389,1.3886 L 38.3389,1.3466 L 38.3250,1.3045 L 38.2970,1.2624 L 38.2691,1.2203 L 38.2272,1.1923 L 38.1853,1.1642 L 38.1435,1.1502 L 38.1016,1.1502 L 37.2220,1.1502 L 37.1801,1.1502 L 37.1382,1.1642 L 37.0963,1.1923 L 37.0544,1.2203 L 37.0265,1.2624 L 36.9986,1.3045 L 36.9846,1.3466 L 36.9846,1.3886 L 36.9846,1.4027 L 36.9846,1.4448 L 36.9986,1.4868 L 37.0265,1.5289 L 37.0544,1.5710 L 37.0963,1.5990 L 37.1382,1.6271 L 37.1801,1.6411 L 37.2220,1.6411 L 38.1016,1.6411 L 38.1435,1.6411 L 38.1853,1.6271 L 38.2272,1.5990 L 38.2691,1.5710 L 38.2970,1.5289 L 38.3250,1.4868 L 38.3389,1.4448 L 38.3389,1.4027 L 38.3389,1.3886 Z" stroke="#000000" stroke-width="0.1193" stroke-linecap="round" stroke-linejoin="round" fill="#000000"/>
        <path d="M 40.5449,1.3886 L 40.5449,1.3466 L 40.5309,1.3045 L 40.5030,1.2624 L 40.4751,1.2203 L 40.4332,1.1923 L 40.3913,1.1642 L 40.3494,1.1502 L 40.3075,1.1502 L 39.4279,1.1502 L 39.3861,1.1502 L 39.3442,1.1642 L 39.3023,1.1923 L 39.2604,1.2203 L 39.2325,1.2624 L 39.2046,1.3045 L 39.1906,1.3466 L 39.1906,1.3886 L 39.1906,1.4027 L 39.1906,1.4448 L 39.2046,1.4868 L 39.2325,1.5289 L 39.2604,1.5710 L 39.3023,1.5990 L 39.3442,1.6271 L 39.3861,1.6411 L 39.4279,1.6411 L 40.3075,1.6411 L 40.3494,1.6411 L 40.3913,1.6271 L 40.4332,1.5990 L 40.4751,1.5710 L 40.5030,1.5289 L 40.5309,1.4868 L 40.5449,1.4448 L 40.5449,1.4027 L 40.5449,1.3886 Z" stroke="#000000" stroke-width="0.1193" stroke-linecap="round" stroke-linejoin="round" fill="#000000"/>
        <path d="M 42.7369,1.3886 L 42.7369,1.3466 L 42.7229,1.3045 L 42.6950,1.2624 L 42.6671,1.2203 L 42.6252,1.1923 L 42.5833,1.1642 L 42.5414,1.1502 L 42.4995,1.1502 L 41.6199,1.1502 L 41.5780,1.1502 L 41.5362,1.1642 L 41.4943,1.1923 L 41.4524,1.2203 L 41.4245,1.2624 L 41.3965,1.3045 L 41.3826,1.3466 L 41.3826,1.3886 L 41.3826,1.4027 L 41.3826,1.4448 L 41.3965,1.4868 L 41.4245,1.5289 L 41.4524,1.5710 L 41.4943,1.5990 L 41.5362,1.6271 L 41.5780,1.6411 L 41.6199,1.6411 L 42.4995,1.6411 L 42.5414,1.6411 L 42.5833,1.6271 L 42.6252,1.5990 L 42.6671,1.5710 L 42.6950,1.5289 L 42.7229,1.4868 L 42.7369,1.4448 L 42.7369,1.4027 L 42.7369,1.3886 Z" stroke="#000000" stroke-width="0.1193" stroke-linecap="round" stroke-linejoin="round" fill="#000000"/>
        <path d="M 44.9428,1.3886 L 44.9428,1.3466 L 44.9289,1.3045 L 44.9009,1.2624 L 44.8730,1.2203 L 44.8311,1.1923 L 44.7892,1.1642 L 44.7474,1.1502 L 44.7055,1.1502 L 43.8259,1.1502 L 43.7840,1.1502 L 43.7421,1.1642 L 43.7002,1.1923 L 43.6583,1.2203 L 43.6304,1.2624 L 43.6025,1.3045 L 43.5885,1.3466 L 43.5885,1.3886 L 43.5885,1.4027 L 43.5885,1.4448 L 43.6025,1.4868 L 43.6304,1.5289 L 43.6583,1.5710 L 43.7002,1.5990 L 43.7421,1.6271 L 43.7840,1.6411 L 43.8259,1.6411 L 44.7055,1.6411 L 44.7474,1.6411 L 44.7892,1.6271 L 44.8311,1.5990 L 44.8730,1.5710 L 44.9009,1.5289 L 44.9289,1.4868 L 44.9428,1.4448 L 44.9428,1.4027 L 44.9428,1.3886 Z" stroke="#000000" stroke-width="0.1193" stroke-linecap="round" stroke-linejoin="round" fill="#000000"/>
        <path d="M 47.1348,1.3886 L 47.1348,1.3466 L 47.1209,1.3045 L 47.0929,1.2624 L 47.0650,1.2203 L 47.0231,1.1923 L 46.9812,1.1642 L 46.9394,1.1502 L 46.8975,1.1502 L 46.0179,1.1502 L 45.9760,1.1502 L 45.9341,1.1642 L 45.8922,1.1923 L 45.8503,1.2203 L 45.8224,1.2624 L 45.7945,1.3045 L 45.7805,1.3466 L 45.7805,1.3886 L 45.7805,1.4027 L 45.7805,1.4448 L 45.7945,1.4868 L 45.8224,1.5289 L 45.8503,1.5710 L 45.8922,1.5990 L 45.9341,1.6271 L 45.9760,1.6411 L 46.0179,1.6411 L 46.8975,1.6411 L 46.9394,1.6411 L 46.9812,1.6271 L 47.0231,1.5990 L 47.0650,1.5710 L 47.0929,1.5289 L 47.1209,1.4868 L 47.1348,1.4448 L 47.1348,1.4027 L 47.1348,1.3886 Z" stroke="#000000" stroke-width="0.1193" stroke-linecap="round" stroke-linejoin="round" fill="#000000"/>
        <path d="M 49.3268,1.3886 L 49.3268,1.3466 L 49.3128,1.3045 L 49.2849,1.2624 L 49.2570,1.2203 L 49.2151,1.1923 L 49.1732,1.1642 L 49.1313,1.1502 L 49.0895,1.1502 L 48.2099,1.1502 L 48.1680,1.1502 L 48.1261,1.1642 L 48.0842,1.1923 L 48.0423,1.2203 L 48.0144,1.2624 L 47.9865,1.3045 L 47.9725,1.3466 L 47.9725,1.3886 L 47.9725,1.4027 L 47.9725,1.4448 L 47.9865,1.4868 L 48.0144,1.5289 L 48.0423,1.5710 L 48.0842,1.5990 L 48.1261,1.6271 L 48.1680,1.6411 L 48.2099,1.6411 L 49.0895,1.6411 L 49.1313,1.6411 L 49.1732,1.6271 L 49.2151,1.5990 L 49.2570,1.5710 L 49.2849,1.5289 L 49.3128,1.4868 L 49.3268,1.4448 L 49.3268,1.4027 L 49.3268,1.3886 Z" stroke="#000000" stroke-width="0.1193" stroke-linecap="round" stroke-linejoin="round" fill="#000000"/>
        <path d="M 51.5328,1.3886 L 51.5328,1.3466 L 51.5188,1.3045 L 51.4909,1.2624 L 51.4630,1.2203 L 51.4211,1.1923 L 51.3792,1.1642 L 51.3373,1.1502 L 51.2954,1.1502 L 50.4158,1.1502 L 50.3739,1.1502 L 50.3321,1.1642 L 50.2902,1.1923 L 50.2483,1.2203 L 50.2204,1.2624 L 50.1924,1.3045 L 50.1785,1.3466 L 50.1785,1.3886 L 50.1785,1.4027 L 50.1785,1.4448 L 50.1924,1.4868 L 50.2204,1.5289 L 50.2483,1.5710 L 50.2902,1.5990 L 50.3321,1.6271 L 50.3739,1.6411 L 50.4158,1.6411 L 51.2954,1.6411 L 51.3373,1.6411 L 51.3792,1.6271 L 51.4211,1.5990 L 51.4630,1.5710 L 51.4909,1.5289 L 51.5188,1.4868 L 51.5328,1.4448 L 51.5328,1.4027 L 51.5328,1.3886 Z" stroke="#000000" stroke-width="0.1193" stroke-linecap="round" stroke-linejoin="round" fill="#000000"/>
        <path d="M 53.7248,1.3886 L 53.7248,1.3466 L 53.7108,1.3045 L 53.6829,1.2624 L 53.6549,1.2203 L 53.6131,1.1923 L 53.5712,1.1642 L 53.5293,1.1502 L 53.4874,1.1502 L 52.6078,1.1502 L 52.5659,1.1502 L 52.5240,1.1642 L 52.4822,1.1923 L 52.4403,1.2203 L 52.4124,1.2624 L 52.3844,1.3045 L 52.3705,1.3466 L 52.3705,1.3886 L 52.3705,1.4027 L 52.3705,1.4448 L 52.3844,1.4868 L 52.4124,1.5289 L 52.4403,1.5710 L 52.4822,1.5990 L 52.5240,1.6271 L 52.5659,1.6411 L 52.6078,1.6411 L 53.4874,1.6411 L 53.5293,1.6411 L 53.5712,1.6271 L 53.6131,1.5990 L 53.6549,1.5710 L 53.6829,1.5289 L 53.7108,1.4868 L 53.7248,1.4448 L 53.7248,1.4027 L 53.7248,1.3886 Z" stroke="#000000" stroke-width="0.1193" stroke-linecap="round" stroke-linejoin="round" fill="#000000"/>
        <path d="M 33.9549,2.6791 L 33.9549,2.6370 L 33.9410,2.5949 L 33.9131,2.5529 L 33.8851,2.5108 L 33.8432,2.4827 L 33.8014,2.4547 L 33.7595,2.4407 L 33.7176,2.4407 L 32.8380,2.4407 L 32.7961,2.4407 L 32.7542,2.4547 L 32.7123,2.4827 L 32.6705,2.5108 L 32.6425,2.5529 L 32.6146,2.5949 L 32.6007,2.6370 L 32.6007,2.6791 L 32.6007,2.6931 L 32.6007,2.7352 L 32.6146,2.7773 L 32.6425,2.8194 L 32.6705,2.8615 L 32.7123,2.8895 L 32.7542,2.9176 L 32.7961,2.9316 L 32.8380,2.9316 L 33.7176,2.9316 L 33.7595,2.9316 L 33.8014,2.9176 L 33.8432,2.8895 L 33.8851,2.8615 L 33.9131,2.8194 L 33.9410,2.7773 L 33.9549,2.7352 L 33.9549,2.6931 L 33.9549,2.6791 Z" stroke="#000000" stroke-width="0.1193" stroke-linecap="round" stroke-linejoin="round" fill="#000000"/>
        <path d="M 36.1609,2.6791 L 36.1609,2.6370 L 36.1469,2.5949 L 36.1190,2.5529 L 36.0911,2.5108 L 36.0492,2.4827 L 36.0073,2.4547 L 35.9654,2.4407 L 35.9235,2.4407 L 35.0440,2.4407 L 35.0021,2.4407 L 34.9602,2.4547 L 34.9183,2.4827 L 34.8764,2.5108 L 34.8485,2.5529 L 34.8206,2.5949 L 34.8066,2.6370 L 34.8066,2.6791 L 34.8066,2.6931 L 34.8066,2.7352 L 34.8206,2.7773 L 34.8485,2.8194 L 34.8764,2.8615 L 34.9183,2.8895 L 34.9602,2.9176 L 35.0021,2.9316 L 35.0440,2.9316 L 35.9235,2.9316 L 35.9654,2.9316 L 36.0073,2.9176 L 36.0492,2.8895 L 36.0911,2.8615 L 36.1190,2.8194 L 36.1469,2.7773 L 36.1609,2.7352 L 36.1609,2.6931 L 36.1609,2.6791 Z" stroke="#000000" stroke-width="0.1193" stroke-linecap="round" stroke-linejoin="round" fill="#000000"/>
        <path d="M 38.3389,2.6791 L 38.3389,2.6370 L 38.3250,2.5949 L 38.2970,2.5529 L 38.2691,2.5108 L 38.2272,2.4827 L 38.1853,2.4547 L 38.1435,2.4407 L 38.1016,2.4407 L 37.2220,2.4407 L 37.1801,2.4407 L 37.1382,2.4547 L 37.0963,2.4827 L 37.0544,2.5108 L 37.0265,2.5529 L 36.9986,2.5949 L 36.9846,2.6370 L 36.9846,2.6791 L 36.9846,2.6931 L 36.9846,2.7352 L 36.9986,2.7773 L 37.0265,2.8194 L 37.0544,2.8615 L 37.0963,2.8895 L 37.1382,2.9176 L 37.1801,2.9316 L 37.2220,2.9316 L 38.1016,2.9316 L 38.1435,2.9316 L 38.1853,2.9176 L 38.2272,2.8895 L 38.2691,2.8615 L 38.2970,2.8194 L 38.3250,2.7773 L 38.3389,2.7352 L 38.3389,2.6931 L 38.3389,2.6791 Z" stroke="#000000" stroke-width="0.1193" stroke-linecap="round" stroke-linejoin="round" fill="#000000"/>
        <path d="M 40.5449,2.6791 L 40.5449,2.6370 L 40.5309,2.5949 L 40.5030,2.5529 L 40.4751,2.5108 L 40.4332,2.4827 L 40.3913,2.4547 L 40.3494,2.4407 L 40.3075,2.4407 L 39.4279,2.4407 L 39.3861,2.4407 L 39.3442,2.4547 L 39.3023,2.4827 L 39.2604,2.5108 L 39.2325,2.5529 L 39.2046,2.5949 L 39.1906,2.6370 L 39.1906,2.6791 L 39.1906,2.6931 L 39.1906,2.7352 L 39.2046,2.7773 L 39.2325,2.8194 L 39.2604,2.8615 L 39.3023,2.8895 L 39.3442,2.9176 L 39.3861,2.9316 L 39.4279,2.9316 L 40.3075,2.9316 L 40.3494,2.9316 L 40.3913,2.9176 L 40.4332,2.8895 L 40.4751,2.8615 L 40.5030,2.8194 L 40.5309,2.7773 L 40.5449,2.7352 L 40.5449,2.6931 L 40.5449,2.6791 Z" stroke="#000000" stroke-width="0.1193" stroke-linecap="round" stroke-linejoin="round" fill="#000000"/>
        <path d="M 42.7369,2.6791 L 42.7369,2.6370 L 42.7229,2.5949 L 42.6950,2.5529 L 42.6671,2.5108 L 42.6252,2.4827 L 42.5833,2.4547 L 42.5414,2.4407 L 42.4995,2.4407 L 41.6199,2.4407 L 41.5780,2.4407 L 41.5362,2.4547 L 41.4943,2.4827 L 41.4524,2.5108 L 41.4245,2.5529 L 41.3965,2.5949 L 41.3826,2.6370 L 41.3826,2.6791 L 41.3826,2.6931 L 41.3826,2.7352 L 41.3965,2.7773 L 41.4245,2.8194 L 41.4524,2.8615 L 41.4943,2.8895 L 41.5362,2.9176 L 41.5780,2.9316 L 41.6199,2.9316 L 42.4995,2.9316 L 42.5414,2.9316 L 42.5833,2.9176 L 42.6252,2.8895 L 42.6671,2.8615 L 42.6950,2.8194 L 42.7229,2.7773 L 42.7369,2.7352 L 42.7369,2.6931 L 42.7369,2.6791 Z" stroke="#000000" stroke-width="0.1193" stroke-linecap="round" stroke-linejoin="round" fill="#000000"/>
        <path d="M 44.9428,2.6791 L 44.9428,2.6370 L 44.9289,2.5949 L 44.9009,2.5529 L 44.8730,2.5108 L 44.8311,2.4827 L 44.7892,2.4547 L 44.7474,2.4407 L 44.7055,2.4407 L 43.8259,2.4407 L 43.7840,2.4407 L 43.7421,2.4547 L 43.7002,2.4827 L 43.6583,2.5108 L 43.6304,2.5529 L 43.6025,2.5949 L 43.5885,2.6370 L 43.5885,2.6791 L 43.5885,2.6931 L 43.5885,2.7352 L 43.6025,2.7773 L 43.6304,2.8194 L 43.6583,2.8615 L 43.7002,2.8895 L 43.7421,2.9176 L 43.7840,2.9316 L 43.8259,2.9316 L 44.7055,2.9316 L 44.7474,2.9316 L 44.7892,2.9176 L 44.8311,2.8895 L 44.8730,2.8615 L 44.9009,2.8194 L 44.9289,2.7773 L 44.9428,2.7352 L 44.9428,2.6931 L 44.9428,2.6791 Z" stroke="#000000" stroke-width="0.1193" stroke-linecap="round" stroke-linejoin="round" fill="#000000"/>
        <path d="M 47.1348,2.6791 L 47.1348,2.6370 L 47.1209,2.5949 L 47.0929,2.5529 L 47.0650,2.5108 L 47.0231,2.4827 L 46.9812,2.4547 L 46.9394,2.4407 L 46.8975,2.4407 L 46.0179,2.4407 L 45.9760,2.4407 L 45.9341,2.4547 L 45.8922,2.4827 L 45.8503,2.5108 L 45.8224,2.5529 L 45.7945,2.5949 L 45.7805,2.6370 L 45.7805,2.6791 L 45.7805,2.6931 L 45.7805,2.7352 L 45.7945,2.7773 L 45.8224,2.8194 L 45.8503,2.8615 L 45.8922,2.8895 L 45.9341,2.9176 L 45.9760,2.9316 L 46.0179,2.9316 L 46.8975,2.9316 L 46.9394,2.9316 L 46.9812,2.9176 L 47.0231,2.8895 L 47.0650,2.8615 L 47.0929,2.8194 L 47.1209,2.7773 L 47.1348,2.7352 L 47.1348,2.6931 L 47.1348,2.6791 Z" stroke="#000000" stroke-width="0.1193" stroke-linecap="round" stroke-linejoin="round" fill="#000000"/>
        <path d="M 49.3268,2.6791 L 49.3268,2.6370 L 49.3128,2.5949 L 49.2849,2.5529 L 49.2570,2.5108 L 49.2151,2.4827 L 49.1732,2.4547 L 49.1313,2.4407 L 49.0895,2.4407 L 48.2099,2.4407 L 48.1680,2.4407 L 48.1261,2.4547 L 48.0842,2.4827 L 48.0423,2.5108 L 48.0144,2.5529 L 47.9865,2.5949 L 47.9725,2.6370 L 47.9725,2.6791 L 47.9725,2.6931 L 47.9725,2.7352 L 47.9865,2.7773 L 48.0144,2.8194 L 48.0423,2.8615 L 48.0842,2.8895 L 48.1261,2.9176 L 48.1680,2.9316 L 48.2099,2.9316 L 49.0895,2.9316 L 49.1313,2.9316 L 49.1732,2.9176 L 49.2151,2.8895 L 49.2570,2.8615 L 49.2849,2.8194 L 49.3128,2.7773 L 49.3268,2.7352 L 49.3268,2.6931 L 49.3268,2.6791 Z" stroke="#000000" stroke-width="0.1193" stroke-linecap="round" stroke-linejoin="round" fill="#000000"/>
        <path d="M 51.5328,2.6791 L 51.5328,2.6370 L 51.5188,2.5949 L 51.4909,2.5529 L 51.4630,2.5108 L 51.4211,2.4827 L 51.3792,2.4547 L 51.3373,2.4407 L 51.2954,2.4407 L 50.4158,2.4407 L 50.3739,2.4407 L 50.3321,2.4547 L 50.2902,2.4827 L 50.2483,2.5108 L 50.2204,2.5529 L 50.1924,2.5949 L 50.1785,2.6370 L 50.1785,2.6791 L 50.1785,2.6931 L 50.1785,2.7352 L 50.1924,2.7773 L 50.2204,2.8194 L 50.2483,2.8615 L 50.2902,2.8895 L 50.3321,2.9176 L 50.3739,2.9316 L 50.4158,2.9316 L 51.2954,2.9316 L 51.3373,2.9316 L 51.3792,2.9176 L 51.4211,2.8895 L 51.4630,2.8615 L 51.4909,2.8194 L 51.5188,2.7773 L 51.5328,2.7352 L 51.5328,2.6931 L 51.5328,2.6791 Z" stroke="#000000" stroke-width="0.1193" stroke-linecap="round" stroke-linejoin="round" fill="#000000"/>
        <path d="M 53.7248,2.6791 L 53.7248,2.6370 L 53.7108,2.5949 L 53.6829,2.5529 L 53.6549,2.5108 L 53.6131,2.4827 L 53.5712,2.4547 L 53.5293,2.4407 L 53.4874,2.4407 L 52.6078,2.4407 L 52.5659,2.4407 L 52.5240,2.4547 L 52.4822,2.4827 L 52.4403,2.5108 L 52.4124,2.5529 L 52.3844,2.5949 L 52.3705,2.6370 L 52.3705,2.6791 L 52.3705,2.6931 L 52.3705,2.7352 L 52.3844,2.7773 L 52.4124,2.8194 L 52.4403,2.8615 L 52.4822,2.8895 L 52.5240,2.9176 L 52.5659,2.9316 L 52.6078,2.9316 L 53.4874,2.9316 L 53.5293,2.9316 L 53.5712,2.9176 L 53.6131,2.8895 L 53.6549,2.8615 L 53.6829,2.8194 L 53.7108,2.7773 L 53.7248,2.7352 L 53.7248,2.6931 L 53.7248,2.6791 Z" stroke="#000000" stroke-width="0.1193" stroke-linecap="round" stroke-linejoin="round" fill="#000000"/>
        <path d="M 55.9307,1.3886 L 55.9307,1.3466 L 55.9167,1.3045 L 55.8888,1.2624 L 55.8609,1.2203 L 55.8190,1.1923 L 55.7771,1.1642 L 55.7352,1.1502 L 55.6934,1.1502 L 54.8138,1.1502 L 54.7719,1.1502 L 54.7300,1.1642 L 54.6881,1.1923 L 54.6462,1.2203 L 54.6183,1.2624 L 54.5904,1.3045 L 54.5764,1.3466 L 54.5764,1.3886 L 54.5764,1.4027 L 54.5764,1.4448 L 54.5904,1.4868 L 54.6183,1.5289 L 54.6462,1.5710 L 54.6881,1.5990 L 54.7300,1.6271 L 54.7719,1.6411 L 54.8138,1.6411 L 55.6934,1.6411 L 55.7352,1.6411 L 55.7771,1.6271 L 55.8190,1.5990 L 55.8609,1.5710 L 55.8888,1.5289 L 55.9167,1.4868 L 55.9307,1.4448 L 55.9307,1.4027 L 55.9307,1.3886 Z" stroke="#000000" stroke-width="0.1193" stroke-linecap="round" stroke-linejoin="round" fill="#000000"/>
        <path d="M 55.9307,2.6791 L 55.9307,2.6370 L 55.9167,2.5949 L 55.8888,2.5529 L 55.8609,2.5108 L 55.8190,2.4827 L 55.7771,2.4547 L 55.7352,2.4407 L 55.6934,2.4407 L 54.8138,2.4407 L 54.7719,2.4407 L 54.7300,2.4547 L 54.6881,2.4827 L 54.6462,2.5108 L 54.6183,2.5529 L 54.5904,2.5949 L 54.5764,2.6370 L 54.5764,2.6791 L 54.5764,2.6931 L 54.5764,2.7352 L 54.5904,2.7773 L 54.6183,2.8194 L 54.6462,2.8615 L 54.6881,2.8895 L 54.7300,2.9176 L 54.7719,2.9316 L 54.8138,2.9316 L 55.6934,2.9316 L 55.7352,2.9316 L 55.7771,2.9176 L 55.8190,2.8895 L 55.8609,2.8615 L 55.8888,2.8194 L 55.9167,2.7773 L 55.9307,2.7352 L 55.9307,2.6931 L 55.9307,2.6791 Z" stroke="#000000" stroke-width="0.1193" stroke-linecap="round" stroke-linejoin="round" fill="#000000"/>
        <path d="M 9.5079,1.3886 L 9.5079,1.3466 L 9.4940,1.3045 L 9.4661,1.2624 L 9.4381,1.2203 L 9.3962,1.1923 L 9.3544,1.1642 L 9.3125,1.1502 L 9.2706,1.1502 L 8.3910,1.1502 L 8.3491,1.1502 L 8.3072,1.1642 L 8.2653,1.1923 L 8.2235,1.2203 L 8.1955,1.2624 L 8.1676,1.3045 L 8.1537,1.3466 L 8.1537,1.3886 L 8.1537,1.4027 L 8.1537,1.4448 L 8.1676,1.4868 L 8.1955,1.5289 L 8.2235,1.5710 L 8.2653,1.5990 L 8.3072,1.6271 L 8.3491,1.6411 L 8.3910,1.6411 L 9.2706,1.6411 L 9.3125,1.6411 L 9.3544,1.6271 L 9.3962,1.5990 L 9.4381,1.5710 L 9.4661,1.5289 L 9.4940,1.4868 L 9.5079,1.4448 L 9.5079,1.4027 L 9.5079,1.3886 Z" stroke="#000000" stroke-width="0.1193" stroke-linecap="round" stroke-linejoin="round" fill="#000000"/>
        <path d="M 11.7139,1.3886 L 11.7139,1.3466 L 11.6999,1.3045 L 11.6720,1.2624 L 11.6441,1.2203 L 11.6022,1.1923 L 11.5603,1.1642 L 11.5184,1.1502 L 11.4765,1.1502 L 10.5970,1.1502 L 10.5551,1.1502 L 10.5132,1.1642 L 10.4713,1.1923 L 10.4294,1.2203 L 10.4015,1.2624 L 10.3736,1.3045 L 10.3596,1.3466 L 10.3596,1.3886 L 10.3596,1.4027 L 10.3596,1.4448 L 10.3736,1.4868 L 10.4015,1.5289 L 10.4294,1.5710 L 10.4713,1.5990 L 10.5132,1.6271 L 10.5551,1.6411 L 10.5970,1.6411 L 11.4765,1.6411 L 11.5184,1.6411 L 11.5603,1.6271 L 11.6022,1.5990 L 11.6441,1.5710 L 11.6720,1.5289 L 11.6999,1.4868 L 11.7139,1.4448 L 11.7139,1.4027 L 11.7139,1.3886 Z" stroke="#000000" stroke-width="0.1193" stroke-linecap="round" stroke-linejoin="round" fill="#000000"/>
        <path d="M 13.8919,1.3886 L 13.8919,1.3466 L 13.8780,1.3045 L 13.8500,1.2624 L 13.8221,1.2203 L 13.7802,1.1923 L 13.7383,1.1642 L 13.6965,1.1502 L 13.6546,1.1502 L 12.7750,1.1502 L 12.7331,1.1502 L 12.6912,1.1642 L 12.6493,1.1923 L 12.6074,1.2203 L 12.5795,1.2624 L 12.5516,1.3045 L 12.5376,1.3466 L 12.5376,1.3886 L 12.5376,1.4027 L 12.5376,1.4448 L 12.5516,1.4868 L 12.5795,1.5289 L 12.6074,1.5710 L 12.6493,1.5990 L 12.6912,1.6271 L 12.7331,1.6411 L 12.7750,1.6411 L 13.6546,1.6411 L 13.6965,1.6411 L 13.7383,1.6271 L 13.7802,1.5990 L 13.8221,1.5710 L 13.8500,1.5289 L 13.8780,1.4868 L 13.8919,1.4448 L 13.8919,1.4027 L 13.8919,1.3886 Z" stroke="#000000" stroke-width="0.1193" stroke-linecap="round" stroke-linejoin="round" fill="#000000"/>
        <path d="M 16.0979,1.3886 L 16.0979,1.3466 L 16.0839,1.3045 L 16.0560,1.2624 L 16.0281,1.2203 L 15.9862,1.1923 L 15.9443,1.1642 L 15.9024,1.1502 L 15.8605,1.1502 L 14.9809,1.1502 L 14.9391,1.1502 L 14.8972,1.1642 L 14.8553,1.1923 L 14.8134,1.2203 L 14.7855,1.2624 L 14.7576,1.3045 L 14.7436,1.3466 L 14.7436,1.3886 L 14.7436,1.4027 L 14.7436,1.4448 L 14.7576,1.4868 L 14.7855,1.5289 L 14.8134,1.5710 L 14.8553,1.5990 L 14.8972,1.6271 L 14.9391,1.6411 L 14.9809,1.6411 L 15.8605,1.6411 L 15.9024,1.6411 L 15.9443,1.6271 L 15.9862,1.5990 L 16.0281,1.5710 L 16.0560,1.5289 L 16.0839,1.4868 L 16.0979,1.4448 L 16.0979,1.4027 L 16.0979,1.3886 Z" stroke="#000000" stroke-width="0.1193" stroke-linecap="round" stroke-linejoin="round" fill="#000000"/>
        <path d="M 18.2899,1.3886 L 18.2899,1.3466 L 18.2759,1.3045 L 18.2480,1.2624 L 18.2201,1.2203 L 18.1782,1.1923 L 18.1363,1.1642 L 18.0944,1.1502 L 18.0525,1.1502 L 17.1729,1.1502 L 17.1310,1.1502 L 17.0892,1.1642 L 17.0473,1.1923 L 17.0054,1.2203 L 16.9775,1.2624 L 16.9495,1.3045 L 16.9356,1.3466 L 16.9356,1.3886 L 16.9356,1.4027 L 16.9356,1.4448 L 16.9495,1.4868 L 16.9775,1.5289 L 17.0054,1.5710 L 17.0473,1.5990 L 17.0892,1.6271 L 17.1310,1.6411 L 17.1729,1.6411 L 18.0525,1.6411 L 18.0944,1.6411 L 18.1363,1.6271 L 18.1782,1.5990 L 18.2201,1.5710 L 18.2480,1.5289 L 18.2759,1.4868 L 18.2899,1.4448 L 18.2899,1.4027 L 18.2899,1.3886 Z" stroke="#000000" stroke-width="0.1193" stroke-linecap="round" stroke-linejoin="round" fill="#000000"/>
        <path d="M 20.4958,1.3886 L 20.4958,1.3466 L 20.4819,1.3045 L 20.4539,1.2624 L 20.4260,1.2203 L 20.3841,1.1923 L 20.3422,1.1642 L 20.3004,1.1502 L 20.2585,1.1502 L 19.3789,1.1502 L 19.3370,1.1502 L 19.2951,1.1642 L 19.2532,1.1923 L 19.2113,1.2203 L 19.1834,1.2624 L 19.1555,1.3045 L 19.1415,1.3466 L 19.1415,1.3886 L 19.1415,1.4027 L 19.1415,1.4448 L 19.1555,1.4868 L 19.1834,1.5289 L 19.2113,1.5710 L 19.2532,1.5990 L 19.2951,1.6271 L 19.3370,1.6411 L 19.3789,1.6411 L 20.2585,1.6411 L 20.3004,1.6411 L 20.3422,1.6271 L 20.3841,1.5990 L 20.4260,1.5710 L 20.4539,1.5289 L 20.4819,1.4868 L 20.4958,1.4448 L 20.4958,1.4027 L 20.4958,1.3886 Z" stroke="#000000" stroke-width="0.1193" stroke-linecap="round" stroke-linejoin="round" fill="#000000"/>
        <path d="M 22.6739,1.3886 L 22.6739,1.3466 L 22.6599,1.3045 L 22.6320,1.2624 L 22.6040,1.2203 L 22.5622,1.1923 L 22.5203,1.1642 L 22.4784,1.1502 L 22.4365,1.1502 L 21.5569,1.1502 L 21.5150,1.1502 L 21.4731,1.1642 L 21.4313,1.1923 L 21.3894,1.2203 L 21.3615,1.2624 L 21.3335,1.3045 L 21.3196,1.3466 L 21.3196,1.3886 L 21.3196,1.4027 L 21.3196,1.4448 L 21.3335,1.4868 L 21.3615,1.5289 L 21.3894,1.5710 L 21.4313,1.5990 L 21.4731,1.6271 L 21.5150,1.6411 L 21.5569,1.6411 L 22.4365,1.6411 L 22.4784,1.6411 L 22.5203,1.6271 L 22.5622,1.5990 L 22.6040,1.5710 L 22.6320,1.5289 L 22.6599,1.4868 L 22.6739,1.4448 L 22.6739,1.4027 L 22.6739,1.3886 Z" stroke="#000000" stroke-width="0.1193" stroke-linecap="round" stroke-linejoin="round" fill="#000000"/>
        <path d="M 24.8798,1.3886 L 24.8798,1.3466 L 24.8659,1.3045 L 24.8379,1.2624 L 24.8100,1.2203 L 24.7681,1.1923 L 24.7262,1.1642 L 24.6843,1.1502 L 24.6425,1.1502 L 23.7629,1.1502 L 23.7210,1.1502 L 23.6791,1.1642 L 23.6372,1.1923 L 23.5953,1.2203 L 23.5674,1.2624 L 23.5395,1.3045 L 23.5255,1.3466 L 23.5255,1.3886 L 23.5255,1.4027 L 23.5255,1.4448 L 23.5395,1.4868 L 23.5674,1.5289 L 23.5953,1.5710 L 23.6372,1.5990 L 23.6791,1.6271 L 23.7210,1.6411 L 23.7629,1.6411 L 24.6425,1.6411 L 24.6843,1.6411 L 24.7262,1.6271 L 24.7681,1.5990 L 24.8100,1.5710 L 24.8379,1.5289 L 24.8659,1.4868 L 24.8798,1.4448 L 24.8798,1.4027 L 24.8798,1.3886 Z" stroke="#000000" stroke-width="0.1193" stroke-linecap="round" stroke-linejoin="round" fill="#000000"/>
        <path d="M 27.0718,1.3886 L 27.0718,1.3466 L 27.0578,1.3045 L 27.0299,1.2624 L 27.0020,1.2203 L 26.9601,1.1923 L 26.9182,1.1642 L 26.8763,1.1502 L 26.8345,1.1502 L 25.9549,1.1502 L 25.9130,1.1502 L 25.8711,1.1642 L 25.8292,1.1923 L 25.7873,1.2203 L 25.7594,1.2624 L 25.7315,1.3045 L 25.7175,1.3466 L 25.7175,1.3886 L 25.7175,1.4027 L 25.7175,1.4448 L 25.7315,1.4868 L 25.7594,1.5289 L 25.7873,1.5710 L 25.8292,1.5990 L 25.8711,1.6271 L 25.9130,1.6411 L 25.9549,1.6411 L 26.8345,1.6411 L 26.8763,1.6411 L 26.9182,1.6271 L 26.9601,1.5990 L 27.0020,1.5710 L 27.0299,1.5289 L 27.0578,1.4868 L 27.0718,1.4448 L 27.0718,1.4027 L 27.0718,1.3886 Z" stroke="#000000" stroke-width="0.1193" stroke-linecap="round" stroke-linejoin="round" fill="#000000"/>
        <path d="M 29.2778,1.3886 L 29.2778,1.3466 L 29.2638,1.3045 L 29.2359,1.2624 L 29.2079,1.2203 L 29.1661,1.1923 L 29.1242,1.1642 L 29.0823,1.1502 L 29.0404,1.1502 L 28.1608,1.1502 L 28.1189,1.1502 L 28.0770,1.1642 L 28.0352,1.1923 L 27.9933,1.2203 L 27.9654,1.2624 L 27.9374,1.3045 L 27.9235,1.3466 L 27.9235,1.3886 L 27.9235,1.4027 L 27.9235,1.4448 L 27.9374,1.4868 L 27.9654,1.5289 L 27.9933,1.5710 L 28.0352,1.5990 L 28.0770,1.6271 L 28.1189,1.6411 L 28.1608,1.6411 L 29.0404,1.6411 L 29.0823,1.6411 L 29.1242,1.6271 L 29.1661,1.5990 L 29.2079,1.5710 L 29.2359,1.5289 L 29.2638,1.4868 L 29.2778,1.4448 L 29.2778,1.4027 L 29.2778,1.3886 Z" stroke="#000000" stroke-width="0.1193" stroke-linecap="round" stroke-linejoin="round" fill="#000000"/>
        <path d="M 9.5079,2.6791 L 9.5079,2.6370 L 9.4940,2.5949 L 9.4661,2.5529 L 9.4381,2.5108 L 9.3962,2.4827 L 9.3544,2.4547 L 9.3125,2.4407 L 9.2706,2.4407 L 8.3910,2.4407 L 8.3491,2.4407 L 8.3072,2.4547 L 8.2653,2.4827 L 8.2235,2.5108 L 8.1955,2.5529 L 8.1676,2.5949 L 8.1537,2.6370 L 8.1537,2.6791 L 8.1537,2.6931 L 8.1537,2.7352 L 8.1676,2.7773 L 8.1955,2.8194 L 8.2235,2.8615 L 8.2653,2.8895 L 8.3072,2.9176 L 8.3491,2.9316 L 8.3910,2.9316 L 9.2706,2.9316 L 9.3125,2.9316 L 9.3544,2.9176 L 9.3962,2.8895 L 9.4381,2.8615 L 9.4661,2.8194 L 9.4940,2.7773 L 9.5079,2.7352 L 9.5079,2.6931 L 9.5079,2.6791 Z" stroke="#000000" stroke-width="0.1193" stroke-linecap="round" stroke-linejoin="round" fill="#000000"/>
        <path d="M 11.7139,2.6791 L 11.7139,2.6370 L 11.6999,2.5949 L 11.6720,2.5529 L 11.6441,2.5108 L 11.6022,2.4827 L 11.5603,2.4547 L 11.5184,2.4407 L 11.4765,2.4407 L 10.5970,2.4407 L 10.5551,2.4407 L 10.5132,2.4547 L 10.4713,2.4827 L 10.4294,2.5108 L 10.4015,2.5529 L 10.3736,2.5949 L 10.3596,2.6370 L 10.3596,2.6791 L 10.3596,2.6931 L 10.3596,2.7352 L 10.3736,2.7773 L 10.4015,2.8194 L 10.4294,2.8615 L 10.4713,2.8895 L 10.5132,2.9176 L 10.5551,2.9316 L 10.5970,2.9316 L 11.4765,2.9316 L 11.5184,2.9316 L 11.5603,2.9176 L 11.6022,2.8895 L 11.6441,2.8615 L 11.6720,2.8194 L 11.6999,2.7773 L 11.7139,2.7352 L 11.7139,2.6931 L 11.7139,2.6791 Z" stroke="#000000" stroke-width="0.1193" stroke-linecap="round" stroke-linejoin="round" fill="#000000"/>
        <path d="M 13.8919,2.6791 L 13.8919,2.6370 L 13.8780,2.5949 L 13.8500,2.5529 L 13.8221,2.5108 L 13.7802,2.4827 L 13.7383,2.4547 L 13.6965,2.4407 L 13.6546,2.4407 L 12.7750,2.4407 L 12.7331,2.4407 L 12.6912,2.4547 L 12.6493,2.4827 L 12.6074,2.5108 L 12.5795,2.5529 L 12.5516,2.5949 L 12.5376,2.6370 L 12.5376,2.6791 L 12.5376,2.6931 L 12.5376,2.7352 L 12.5516,2.7773 L 12.5795,2.8194 L 12.6074,2.8615 L 12.6493,2.8895 L 12.6912,2.9176 L 12.7331,2.9316 L 12.7750,2.9316 L 13.6546,2.9316 L 13.6965,2.9316 L 13.7383,2.9176 L 13.7802,2.8895 L 13.8221,2.8615 L 13.8500,2.8194 L 13.8780,2.7773 L 13.8919,2.7352 L 13.8919,2.6931 L 13.8919,2.6791 Z" stroke="#000000" stroke-width="0.1193" stroke-linecap="round" stroke-linejoin="round" fill="#000000"/>
        <path d="M 16.0979,2.6791 L 16.0979,2.6370 L 16.0839,2.5949 L 16.0560,2.5529 L 16.0281,2.5108 L 15.9862,2.4827 L 15.9443,2.4547 L 15.9024,2.4407 L 15.8605,2.4407 L 14.9809,2.4407 L 14.9391,2.4407 L 14.8972,2.4547 L 14.8553,2.4827 L 14.8134,2.5108 L 14.7855,2.5529 L 14.7576,2.5949 L 14.7436,2.6370 L 14.7436,2.6791 L 14.7436,2.6931 L 14.7436,2.7352 L 14.7576,2.7773 L 14.7855,2.8194 L 14.8134,2.8615 L 14.8553,2.8895 L 14.8972,2.9176 L 14.9391,2.9316 L 14.9809,2.9316 L 15.8605,2.9316 L 15.9024,2.9316 L 15.9443,2.9176 L 15.9862,2.8895 L 16.0281,2.8615 L 16.0560,2.8194 L 16.0839,2.7773 L 16.0979,2.7352 L 16.0979,2.6931 L 16.0979,2.6791 Z" stroke="#000000" stroke-width="0.1193" stroke-linecap="round" stroke-linejoin="round" fill="#000000"/>
        <path d="M 18.2899,2.6791 L 18.2899,2.6370 L 18.2759,2.5949 L 18.2480,2.5529 L 18.2201,2.5108 L 18.1782,2.4827 L 18.1363,2.4547 L 18.0944,2.4407 L 18.0525,2.4407 L 17.1729,2.4407 L 17.1310,2.4407 L 17.0892,2.4547 L 17.0473,2.4827 L 17.0054,2.5108 L 16.9775,2.5529 L 16.9495,2.5949 L 16.9356,2.6370 L 16.9356,2.6791 L 16.9356,2.6931 L 16.9356,2.7352 L 16.9495,2.7773 L 16.9775,2.8194 L 17.0054,2.8615 L 17.0473,2.8895 L 17.0892,2.9176 L 17.1310,2.9316 L 17.1729,2.9316 L 18.0525,2.9316 L 18.0944,2.9316 L 18.1363,2.9176 L 18.1782,2.8895 L 18.2201,2.8615 L 18.2480,2.8194 L 18.2759,2.7773 L 18.2899,2.7352 L 18.2899,2.6931 L 18.2899,2.6791 Z" stroke="#000000" stroke-width="0.1193" stroke-linecap="round" stroke-linejoin="round" fill="#000000"/>
        <path d="M 20.4958,2.6791 L 20.4958,2.6370 L 20.4819,2.5949 L 20.4539,2.5529 L 20.4260,2.5108 L 20.3841,2.4827 L 20.3422,2.4547 L 20.3004,2.4407 L 20.2585,2.4407 L 19.3789,2.4407 L 19.3370,2.4407 L 19.2951,2.4547 L 19.2532,2.4827 L 19.2113,2.5108 L 19.1834,2.5529 L 19.1555,2.5949 L 19.1415,2.6370 L 19.1415,2.6791 L 19.1415,2.6931 L 19.1415,2.7352 L 19.1555,2.7773 L 19.1834,2.8194 L 19.2113,2.8615 L 19.2532,2.8895 L 19.2951,2.9176 L 19.3370,2.9316 L 19.3789,2.9316 L 20.2585,2.9316 L 20.3004,2.9316 L 20.3422,2.9176 L 20.3841,2.8895 L 20.4260,2.8615 L 20.4539,2.8194 L 20.4819,2.7773 L 20.4958,2.7352 L 20.4958,2.6931 L 20.4958,2.6791 Z" stroke="#000000" stroke-width="0.1193" stroke-linecap="round" stroke-linejoin="round" fill="#000000"/>
        <path d="M 22.6739,2.6791 L 22.6739,2.6370 L 22.6599,2.5949 L 22.6320,2.5529 L 22.6040,2.5108 L 22.5622,2.4827 L 22.5203,2.4547 L 22.4784,2.4407 L 22.4365,2.4407 L 21.5569,2.4407 L 21.5150,2.4407 L 21.4731,2.4547 L 21.4313,2.4827 L 21.3894,2.5108 L 21.3615,2.5529 L 21.3335,2.5949 L 21.3196,2.6370 L 21.3196,2.6791 L 21.3196,2.6931 L 21.3196,2.7352 L 21.3335,2.7773 L 21.3615,2.8194 L 21.3894,2.8615 L 21.4313,2.8895 L 21.4731,2.9176 L 21.5150,2.9316 L 21.5569,2.9316 L 22.4365,2.9316 L 22.4784,2.9316 L 22.5203,2.9176 L 22.5622,2.8895 L 22.6040,2.8615 L 22.6320,2.8194 L 22.6599,2.7773 L 22.6739,2.7352 L 22.6739,2.6931 L 22.6739,2.6791 Z" stroke="#000000" stroke-width="0.1193" stroke-linecap="round" stroke-linejoin="round" fill="#000000"/>
        <path d="M 24.8798,2.6791 L 24.8798,2.6370 L 24.8659,2.5949 L 24.8379,2.5529 L 24.8100,2.5108 L 24.7681,2.4827 L 24.7262,2.4547 L 24.6843,2.4407 L 24.6425,2.4407 L 23.7629,2.4407 L 23.7210,2.4407 L 23.6791,2.4547 L 23.6372,2.4827 L 23.5953,2.5108 L 23.5674,2.5529 L 23.5395,2.5949 L 23.5255,2.6370 L 23.5255,2.6791 L 23.5255,2.6931 L 23.5255,2.7352 L 23.5395,2.7773 L 23.5674,2.8194 L 23.5953,2.8615 L 23.6372,2.8895 L 23.6791,2.9176 L 23.7210,2.9316 L 23.7629,2.9316 L 24.6425,2.9316 L 24.6843,2.9316 L 24.7262,2.9176 L 24.7681,2.8895 L 24.8100,2.8615 L 24.8379,2.8194 L 24.8659,2.7773 L 24.8798,2.7352 L 24.8798,2.6931 L 24.8798,2.6791 Z" stroke="#000000" stroke-width="0.1193" stroke-linecap="round" stroke-linejoin="round" fill="#000000"/>
        <path d="M 27.0718,2.6791 L 27.0718,2.6370 L 27.0578,2.5949 L 27.0299,2.5529 L 27.0020,2.5108 L 26.9601,2.4827 L 26.9182,2.4547 L 26.8763,2.4407 L 26.8345,2.4407 L 25.9549,2.4407 L 25.9130,2.4407 L 25.8711,2.4547 L 25.8292,2.4827 L 25.7873,2.5108 L 25.7594,2.5529 L 25.7315,2.5949 L 25.7175,2.6370 L 25.7175,2.6791 L 25.7175,2.6931 L 25.7175,2.7352 L 25.7315,2.7773 L 25.7594,2.8194 L 25.7873,2.8615 L 25.8292,2.8895 L 25.8711,2.9176 L 25.9130,2.9316 L 25.9549,2.9316 L 26.8345,2.9316 L 26.8763,2.9316 L 26.9182,2.9176 L 26.9601,2.8895 L 27.0020,2.8615 L 27.0299,2.8194 L 27.0578,2.7773 L 27.0718,2.7352 L 27.0718,2.6931 L 27.0718,2.6791 Z" stroke="#000000" stroke-width="0.1193" stroke-linecap="round" stroke-linejoin="round" fill="#000000"/>
        <path d="M 29.2778,2.6791 L 29.2778,2.6370 L 29.2638,2.5949 L 29.2359,2.5529 L 29.2079,2.5108 L 29.1661,2.4827 L 29.1242,2.4547 L 29.0823,2.4407 L 29.0404,2.4407 L 28.1608,2.4407 L 28.1189,2.4407 L 28.0770,2.4547 L 28.0352,2.4827 L 27.9933,2.5108 L 27.9654,2.5529 L 27.9374,2.5949 L 27.9235,2.6370 L 27.9235,2.6791 L 27.9235,2.6931 L 27.9235,2.7352 L 27.9374,2.7773 L 27.9654,2.8194 L 27.9933,2.8615 L 28.0352,2.8895 L 28.0770,2.9176 L 28.1189,2.9316 L 28.1608,2.9316 L 29.0404,2.9316 L 29.0823,2.9316 L 29.1242,2.9176 L 29.1661,2.8895 L 29.2079,2.8615 L 29.2359,2.8194 L 29.2638,2.7773 L 29.2778,2.7352 L 29.2778,2.6931 L 29.2778,2.6791 Z" stroke="#000000" stroke-width="0.1193" stroke-linecap="round" stroke-linejoin="round" fill="#000000"/>
        <path d="M 31.2324,9.4821 L 31.7629,9.4821 " stroke="#000000" stroke-width="0.1193" stroke-linecap="round" stroke-linejoin="round" fill="none"/>
        <path d="M 33.3267,9.4821 L 33.8572,9.4821 " stroke="#000000" stroke-width="0.1193" stroke-linecap="round" stroke-linejoin="round" fill="none"/>
        <ellipse cx="2.9743" cy="7.4916" rx="0.3475" ry="0.3499" fill="#494949" stroke="#000000" stroke-width="0.1193" stroke-linecap="round" stroke-linejoin="round"/>
        <ellipse cx="2.9743" cy="7.4916" rx="0.3475" ry="0.3499" fill="none" stroke="#000000" stroke-width="0.1193" stroke-linecap="round" stroke-linejoin="round"/>
        <ellipse cx="2.9692" cy="7.5019" rx="0.3117" ry="0.3087" fill="#000000" stroke="#000000" stroke-width="0.1193" stroke-linecap="round" stroke-linejoin="round"/>
        <ellipse cx="2.9692" cy="7.5019" rx="0.3117" ry="0.3087" fill="none" stroke="#000000" stroke-width="0.1193" stroke-linecap="round" stroke-linejoin="round"/>
        <text font-family="Arial" fill="#000000" style="white-space:pre;" font-weight="400" text-anchor="start" x="3.8840" y="9.0666" font-size="0.0920"><![CDATA[RESET]]></text>
        <ellipse cx="2.4456" cy="5.3510" rx="0.8323" ry="0.8381" fill="#666666" stroke="#000000" stroke-width="0.1193" stroke-linecap="round" stroke-linejoin="round"/>
        <ellipse cx="2.4456" cy="5.3510" rx="0.8323" ry="0.8381" fill="none" stroke="#000000" stroke-width="0.1193" stroke-linecap="round" stroke-linejoin="round"/>
        <ellipse cx="2.4456" cy="5.3510" rx="0.7554" ry="0.7607" fill="#E2E2E2" stroke="#000000" stroke-width="0.1193" stroke-linecap="round" stroke-linejoin="round"/>
        <ellipse cx="2.4456" cy="5.3510" rx="0.7554" ry="0.7607" fill="none" stroke="#E2E2E2" stroke-width="0.1193" stroke-linecap="round" stroke-linejoin="round"/>
        <path d="M 1.8694,5.2865 L 1.8438,5.2865 L 1.8182,5.3123 L 1.8182,5.3381 L 1.7926,5.3381 L 1.7926,5.3639 L 1.7926,5.3897 L 1.7926,5.4155 L 1.7926,5.4412 L 1.7926,5.4670 L 1.7926,5.4928 L 1.8182,5.4928 L 1.8182,5.5186 L 1.8438,5.5444 L 1.8694,5.5444 L 1.8950,5.5444 L 1.9206,5.5444 L 1.9462,5.5444 L 1.9718,5.5444 L 1.9974,5.5444 L 2.0231,5.5444 L 2.0487,5.5444 L 2.0743,5.5444 L 2.0999,5.5444 L 2.1255,5.5444 L 2.1511,5.5444 L 2.1767,5.5444 L 2.2023,5.5444 L 2.2279,5.5444 L 2.2535,5.5444 L 2.2791,5.5444 L 2.3047,5.5444 L 2.3304,5.5444 L 2.3560,5.5444 L 2.3816,5.5444 L 2.3816,5.5702 L 2.3816,5.5960 L 2.3816,5.6218 L 2.3816,5.6475 L 2.3816,5.6733 L 2.3816,5.6991 L 2.3816,5.7249 L 2.3816,5.7507 L 2.3816,5.7765 L 2.3816,5.8023 L 2.3816,5.8281 L 2.3816,5.8539 L 2.3816,5.8796 L 2.3816,5.9054 L 2.3816,5.9312 L 2.3816,5.9570 L 2.3816,5.9828 L 2.3816,6.0086 L 2.3816,6.0344 L 2.3816,6.0602 L 2.3816,6.0859 L 2.3816,6.1117 L 2.4072,6.1117 L 2.4072,6.1375 L 2.4328,6.1375 L 2.4328,6.1633 L 2.4584,6.1633 L 2.4840,6.1633 L 2.5096,6.1633 L 2.5352,6.1633 L 2.5608,6.1633 L 2.5864,6.1633 L 2.5864,6.1375 L 2.6120,6.1375 L 2.6120,6.1117 L 2.6377,6.1117 L 2.6377,6.0859 L 2.6377,6.0602 L 2.6377,6.0344 L 2.6377,6.0086 L 2.6377,5.9828 L 2.6377,5.9570 L 2.6377,5.9312 L 2.6377,5.9054 L 2.6377,5.8796 L 2.6377,5.8539 L 2.6377,5.8281 L 2.6377,5.8023 L 2.6377,5.7765 L 2.6377,5.7507 L 2.6377,5.7249 L 2.6377,5.6991 L 2.6377,5.6733 L 2.6377,5.6475 L 2.6377,5.6218 L 2.6377,5.5960 L 2.6377,5.5702 L 2.6377,5.5444 L 2.6633,5.5444 L 2.6889,5.5444 L 2.7145,5.5444 L 2.7401,5.5444 L 2.7657,5.5444 L 2.7913,5.5444 L 2.8169,5.5444 L 2.8425,5.5444 L 2.8681,5.5444 L 2.8937,5.5444 L 2.9193,5.5444 L 2.9450,5.5444 L 2.9706,5.5444 L 2.9962,5.5444 L 3.0218,5.5444 L 3.0474,5.5444 L 3.0730,5.5444 L 3.0986,5.5444 L 3.1242,5.5444 L 3.1498,5.5444 L 3.1754,5.5444 L 3.2010,5.5444 L 3.2010,5.5186 L 3.2266,5.5186 L 3.2266,5.4928 L 3.2522,5.4928 L 3.2522,5.4670 L 3.2522,5.4412 L 3.2522,5.4155 L 3.2522,5.3897 L 3.2522,5.3639 L 3.2522,5.3381 L 3.2266,5.3381 L 3.2266,5.3123 L 3.2010,5.3123 L 3.2010,5.2865 L 3.1754,5.2865 L 3.1498,5.2865 L 3.1242,5.2865 L 3.0986,5.2865 L 3.0730,5.2865 L 3.0474,5.2865 L 3.0218,5.2865 L 2.9962,5.2865 L 2.9706,5.2865 L 2.9450,5.2865 L 2.9193,5.2865 L 2.8937,5.2865 L 2.8681,5.2865 L 2.8425,5.2865 L 2.8169,5.2865 L 2.7913,5.2865 L 2.7657,5.2865 L 2.7401,5.2865 L 2.7145,5.2865 L 2.6889,5.2865 L 2.6633,5.2865 L 2.6377,5.2865 L 2.6377,5.2607 L 2.6377,5.2349 L 2.6377,5.2092 L 2.6377,5.1834 L 2.6377,5.1576 L 2.6377,5.1318 L 2.6377,5.1060 L 2.6377,5.0802 L 2.6377,5.0544 L 2.6377,5.0286 L 2.6377,5.0028 L 2.6377,4.9771 L 2.6377,4.9513 L 2.6377,4.9255 L 2.6377,4.8997 L 2.6377,4.8739 L 2.6377,4.8481 L 2.6377,4.8223 L 2.6377,4.7965 L 2.6377,4.7708 L 2.6377,4.7450 L 2.6120,4.7192 L 2.5864,4.7192 L 2.5864,4.6934 L 2.5608,4.6934 L 2.5352,4.6934 L 2.5096,4.6934 L 2.4840,4.6934 L 2.4584,4.6934 L 2.4328,4.6934 L 2.4328,4.7192 L 2.4072,4.7192 L 2.3816,4.7450 L 2.3816,4.7708 L 2.3816,4.7965 L 2.3816,4.8223 L 2.3816,4.8481 L 2.3816,4.8739 L 2.3816,4.8997 L 2.3816,4.9255 L 2.3816,4.9513 L 2.3816,4.9771 L 2.3816,5.0028 L 2.3816,5.0286 L 2.3816,5.0544 L 2.3816,5.0802 L 2.3816,5.1060 L 2.3816,5.1318 L 2.3816,5.1576 L 2.3816,5.1834 L 2.3816,5.2092 L 2.3816,5.2349 L 2.3816,5.2607 L 2.3816,5.2865 L 2.3560,5.2865 L 2.3304,5.2865 L 2.3047,5.2865 L 2.2791,5.2865 L 2.2535,5.2865 L 2.2279,5.2865 L 2.2023,5.2865 L 2.1767,5.2865 L 2.1511,5.2865 L 2.1255,5.2865 L 2.0999,5.2865 L 2.0743,5.2865 L 2.0487,5.2865 L 2.0231,5.2865 L 1.9974,5.2865 L 1.9718,5.2865 L 1.9462,5.2865 L 1.9206,5.2865 L 1.8950,5.2865 L 1.8694,5.2865 Z" stroke="#161616" stroke-width="0.1193" stroke-linecap="round" stroke-linejoin="round" fill="#494949"/>
        <path d="M 1.7670,5.3639 L 1.7670,5.3897 L 1.7670,5.4155 L 1.7670,5.4412 L 1.7670,5.4670 L 1.7670,5.4928 L 1.7926,5.5186 L 1.8182,5.5186 L 1.8182,5.5444 L 1.8438,5.5444 L 1.8694,5.5444 L 1.8950,5.5444 L 1.9206,5.5444 L 1.9462,5.5444 L 1.9718,5.5444 L 1.9974,5.5444 L 2.0231,5.5444 L 2.0487,5.5444 L 2.0743,5.5444 L 2.0999,5.5444 L 2.1255,5.5444 L 2.1511,5.5444 L 2.1767,5.5444 L 2.2023,5.5444 L 2.2279,5.5444 L 2.2535,5.5444 L 2.2791,5.5444 L 2.3047,5.5444 L 2.3304,5.5444 L 2.3560,5.5444 L 2.3816,5.5444 L 2.3816,5.5702 L 2.3816,5.5960 L 2.3816,5.6218 L 2.3816,5.6475 L 2.3816,5.6733 L 2.3816,5.6991 L 2.3816,5.7507 L 2.3816,5.7765 L 2.3816,5.8023 L 2.3816,5.8281 L 2.3816,5.8539 L 2.3816,5.8796 L 2.3816,5.9054 L 2.3816,5.9312 L 2.3816,5.9570 L 2.3816,5.9828 L 2.3816,6.0086 L 2.3816,6.0344 L 2.3816,6.0602 L 2.3816,6.0859 L 2.3816,6.1117 L 2.3816,6.1375 L 2.4072,6.1633 L 2.4328,6.1633 L 2.4328,6.1891 L 2.4584,6.1891 L 2.4840,6.1891 L 2.5096,6.1891 L 2.5352,6.1891 " stroke="#BFBFBF" stroke-width="0.1193" stroke-linecap="round" stroke-linejoin="round" fill="none"/>
        <path d="M 2.3816,4.7450 L 2.3816,4.7708 L 2.3816,4.7965 L 2.3816,4.8223 L 2.3816,4.8481 L 2.3816,4.8739 L 2.3816,4.8997 L 2.3816,4.9255 L 2.3816,4.9513 L 2.3816,4.9771 L 2.3816,5.0028 L 2.3816,5.0286 L 2.3816,5.0544 L 2.3816,5.0802 L 2.3816,5.1060 L 2.3816,5.1318 L 2.3816,5.1576 L 2.3816,5.1834 L 2.3816,5.2349 L 2.3816,5.2607 L 2.3816,5.2865 " stroke="#BFBFBF" stroke-width="0.1193" stroke-linecap="round" stroke-linejoin="round" fill="none"/>
        <path d="M 1.3549,6.9249 L 1.3549,7.6459 " stroke="#000000" stroke-width="0.1193" stroke-linecap="round" stroke-linejoin="round" fill="none"/>
        <path d="M 0.8381,7.7956 L 1.8717,7.7956 " stroke="#000000" stroke-width="0.1193" stroke-linecap="round" stroke-linejoin="round" fill="none"/>
        <path d="M 1.0057,7.9589 L 1.7181,7.9589 " stroke="#000000" stroke-width="0.1193" stroke-linecap="round" stroke-linejoin="round" fill="none"/>
        <path d="M 1.0057,7.9589 L 1.7181,7.9589 " stroke="#000000" stroke-width="0.1193" stroke-linecap="round" stroke-linejoin="round" fill="none"/>
        <path d="M 1.1873,8.1357 L 1.5225,8.1357 " stroke="#000000" stroke-width="0.1193" stroke-linecap="round" stroke-linejoin="round" fill="none"/>
        <text font-family="Arial" fill="#000000" style="white-space:pre;" font-weight="400" text-anchor="start" x="4.0228" y="9.7538" font-size="0.1956"><![CDATA[USB]]></text>
        <text font-family="Arial" fill="#000000" style="white-space:pre;" font-weight="400" text-anchor="start" x="3.0032" y="9.7538" font-size="0.1956"><![CDATA[DC+12V]]></text>
        <text font-family="Arial" fill="#000000" style="white-space:pre;" font-weight="400" text-anchor="start" x="6.3555" y="9.7538" font-size="0.1956"><![CDATA[WAN2]]></text>
        <text font-family="Arial" fill="#000000" style="white-space:pre;" font-weight="400" text-anchor="start" x="7.3612" y="9.7538" font-size="0.1956"><![CDATA[WAN1]]></text>
        <text font-family="Arial" fill="#000000" style="white-space:pre;" font-weight="400" text-anchor="start" x="8.4507" y="9.7538" font-size="0.1956"><![CDATA[DMZ]]></text>
        <text font-family="Arial" fill="#000000" style="white-space:pre;" font-weight="400" text-anchor="start" x="9.6101" y="9.7538" font-size="0.1956"><![CDATA[B]]></text>
        <text font-family="Arial" fill="#000000" style="white-space:pre;" font-weight="400" text-anchor="start" x="10.6158" y="9.7538" font-size="0.1956"><![CDATA[A]]></text>
        <text font-family="Arial" fill="#000000" style="white-space:pre;" font-weight="400" text-anchor="start" x="11.9148" y="9.7538" font-size="0.1956"><![CDATA[5]]></text>
        <text font-family="Arial" fill="#000000" style="white-space:pre;" font-weight="400" text-anchor="start" x="15.9656" y="9.7538" font-size="0.1956"><![CDATA[1]]></text>
        <text font-family="Arial" fill="#000000" style="white-space:pre;" font-weight="400" text-anchor="start" x="12.9205" y="9.7538" font-size="0.1956"><![CDATA[4]]></text>
        <text font-family="Arial" fill="#000000" style="white-space:pre;" font-weight="400" text-anchor="start" x="13.9262" y="9.7538" font-size="0.1956"><![CDATA[3]]></text>
        <text font-family="Arial" fill="#000000" style="white-space:pre;" font-weight="400" text-anchor="start" x="14.9459" y="9.7538" font-size="0.1956"><![CDATA[2]]></text>
        <text font-family="Arial" fill="#000000" style="white-space:pre;" font-weight="400" text-anchor="start" x="4.7631" y="9.7538" font-size="0.1956"><![CDATA[CONSOLE]]></text>
        <path d="M 32.5517,9.3503 L 32.5382,9.3503 L 32.5247,9.3503 L 32.5112,9.3503 L 32.4977,9.3503 L 32.4841,9.3503 L 32.4706,9.3503 L 32.4706,9.3633 L 32.4706,9.3762 L 32.4571,9.3762 L 32.4571,9.3892 L 32.4571,9.4022 L 32.4571,9.4152 L 32.4571,9.4282 L 32.4571,9.4412 L 32.4571,9.4542 L 32.4571,9.4671 L 32.4571,9.4801 L 32.4706,9.4931 L 32.4706,9.5061 L 32.4706,9.5191 L 32.4841,9.5191 L 32.4841,9.5321 L 32.4841,9.5451 L 32.4977,9.5451 L 32.4977,9.5581 L 32.5112,9.5581 L 32.5112,9.5710 L 32.5247,9.5710 L 32.5247,9.5840 L 32.5382,9.5840 L 32.5517,9.5840 L 32.5517,9.5970 L 32.5652,9.5970 L 32.5788,9.5970 L 32.5923,9.5970 L 32.6058,9.5970 L 32.6193,9.5970 L 32.6328,9.5970 L 32.6464,9.5970 L 32.6599,9.5970 L 32.6734,9.5970 L 32.6869,9.5970 L 32.7004,9.5970 L 32.7139,9.5970 L 32.7275,9.5970 L 32.7410,9.5970 L 32.7545,9.5970 L 32.7680,9.5970 L 32.7815,9.5970 L 32.7951,9.5970 L 32.8086,9.5970 L 32.8221,9.5970 L 32.8356,9.5970 L 32.8491,9.5970 L 32.8626,9.5970 L 32.8762,9.5970 L 32.8897,9.5970 L 32.9032,9.5970 L 32.9032,9.5840 L 32.9167,9.5840 L 32.9302,9.5840 L 32.9302,9.5710 L 32.9438,9.5710 L 32.9438,9.5581 L 32.9573,9.5581 L 32.9573,9.5451 L 32.9708,9.5451 L 32.9708,9.5321 L 32.9708,9.5191 L 32.9843,9.5191 L 32.9843,9.5061 L 32.9843,9.4931 L 32.9978,9.4801 L 32.9978,9.4671 L 32.9978,9.4542 L 32.9978,9.4412 L 32.9978,9.4282 L 32.9978,9.4152 L 32.9978,9.4022 L 32.9843,9.3892 L 32.9843,9.3762 L 32.9843,9.3633 L 32.9708,9.3633 L 32.9708,9.3503 L 32.9708,9.3373 L 32.9573,9.3373 L 32.9573,9.3243 L 32.9438,9.3243 L 32.9438,9.3113 L 32.9302,9.3113 L 32.9302,9.2983 L 32.9167,9.2983 L 32.9032,9.2983 L 32.9032,9.2853 L 32.8897,9.2853 L 32.8762,9.2853 L 32.8626,9.2853 L 32.8491,9.2853 L 32.8356,9.2853 L 32.8221,9.2853 L 32.8086,9.2853 L 32.7951,9.2853 L 32.7815,9.2853 L 32.7680,9.2853 L 32.7545,9.2853 L 32.7410,9.2853 L 32.7275,9.2853 L 32.7139,9.2853 L 32.7004,9.2853 L 32.6869,9.2853 L 32.7004,9.2853 L 32.7004,9.2983 L 32.7139,9.2983 L 32.7139,9.3113 L 32.7275,9.3243 L 32.7275,9.3373 L 32.7410,9.3503 L 32.7410,9.3633 L 32.7545,9.3633 L 32.7680,9.3633 L 32.7815,9.3633 L 32.7951,9.3633 L 32.8086,9.3633 L 32.8221,9.3633 L 32.8356,9.3633 L 32.8491,9.3633 L 32.8626,9.3633 L 32.8762,9.3633 L 32.8762,9.3762 L 32.8897,9.3762 L 32.9032,9.3892 L 32.9032,9.4022 L 32.9167,9.4022 L 32.9167,9.4152 L 32.9167,9.4282 L 32.9167,9.4412 L 32.9167,9.4542 L 32.9167,9.4671 L 32.9167,9.4801 L 32.9032,9.4931 L 32.9032,9.5061 L 32.9032,9.5191 L 32.8897,9.5191 L 32.8897,9.5321 L 32.8762,9.5321 L 32.8626,9.5321 L 32.8626,9.5451 L 32.8491,9.5451 L 32.8356,9.5451 L 32.8221,9.5451 L 32.8086,9.5451 L 32.7951,9.5451 L 32.7815,9.5451 L 32.7680,9.5451 L 32.7545,9.5451 L 32.7410,9.5451 L 32.7275,9.5451 L 32.7139,9.5451 L 32.7004,9.5451 L 32.6869,9.5451 L 32.6734,9.5451 L 32.6599,9.5451 L 32.6464,9.5451 L 32.6328,9.5451 L 32.6193,9.5451 L 32.6058,9.5451 L 32.5923,9.5451 L 32.5923,9.5321 L 32.5788,9.5321 L 32.5652,9.5321 L 32.5652,9.5191 L 32.5517,9.5061 L 32.5517,9.4931 L 32.5382,9.4801 L 32.5382,9.4671 L 32.5382,9.4542 L 32.5382,9.4412 L 32.5382,9.4282 L 32.5382,9.4152 L 32.5382,9.4022 L 32.5382,9.3892 L 32.5382,9.3762 L 32.5517,9.3762 L 32.5517,9.3633 L 32.5517,9.3503 Z" stroke="#000000" stroke-width="0.1193" stroke-linecap="round" stroke-linejoin="round" fill="#000000"/>
        <path d="M 32.6328,9.5321 L 32.6464,9.5321 L 32.6599,9.5321 L 32.6734,9.5321 L 32.6869,9.5321 L 32.7004,9.5321 L 32.7139,9.5321 L 32.7139,9.5191 L 32.7139,9.5061 L 32.7275,9.5061 L 32.7275,9.4931 L 32.7275,9.4801 L 32.7275,9.4671 L 32.7275,9.4542 L 32.7275,9.4412 L 32.7275,9.4282 L 32.7275,9.4152 L 32.7275,9.4022 L 32.7139,9.3892 L 32.7139,9.3762 L 32.7139,9.3633 L 32.7004,9.3633 L 32.7004,9.3503 L 32.7004,9.3373 L 32.6869,9.3373 L 32.6869,9.3243 L 32.6734,9.3243 L 32.6734,9.3113 L 32.6599,9.3113 L 32.6599,9.2983 L 32.6464,9.2983 L 32.6328,9.2983 L 32.6328,9.2853 L 32.6193,9.2853 L 32.6058,9.2853 L 32.5923,9.2853 L 32.5788,9.2853 L 32.5652,9.2853 L 32.5517,9.2853 L 32.5382,9.2853 L 32.5247,9.2853 L 32.5112,9.2853 L 32.4977,9.2853 L 32.4841,9.2853 L 32.4706,9.2853 L 32.4571,9.2853 L 32.4436,9.2853 L 32.4301,9.2853 L 32.4165,9.2853 L 32.4030,9.2853 L 32.3895,9.2853 L 32.3760,9.2853 L 32.3625,9.2853 L 32.3490,9.2853 L 32.3354,9.2853 L 32.3219,9.2853 L 32.3084,9.2853 L 32.2949,9.2853 L 32.2814,9.2853 L 32.2814,9.2983 L 32.2678,9.2983 L 32.2543,9.2983 L 32.2543,9.3113 L 32.2408,9.3113 L 32.2408,9.3243 L 32.2273,9.3243 L 32.2273,9.3373 L 32.2138,9.3373 L 32.2138,9.3503 L 32.2138,9.3633 L 32.2003,9.3633 L 32.2003,9.3762 L 32.2003,9.3892 L 32.1867,9.4022 L 32.1867,9.4152 L 32.1867,9.4282 L 32.1867,9.4412 L 32.1867,9.4542 L 32.1867,9.4671 L 32.1867,9.4801 L 32.2003,9.4931 L 32.2003,9.5061 L 32.2003,9.5191 L 32.2138,9.5191 L 32.2138,9.5321 L 32.2138,9.5451 L 32.2273,9.5451 L 32.2273,9.5581 L 32.2408,9.5581 L 32.2408,9.5710 L 32.2543,9.5710 L 32.2543,9.5840 L 32.2678,9.5840 L 32.2814,9.5840 L 32.2814,9.5970 L 32.2949,9.5970 L 32.3084,9.5970 L 32.3219,9.5970 L 32.3354,9.5970 L 32.3490,9.5970 L 32.3625,9.5970 L 32.3760,9.5970 L 32.3895,9.5970 L 32.4030,9.5970 L 32.4165,9.5970 L 32.4301,9.5970 L 32.4436,9.5970 L 32.4571,9.5970 L 32.4706,9.5970 L 32.4841,9.5970 L 32.4977,9.5970 L 32.4841,9.5970 L 32.4841,9.5840 L 32.4706,9.5840 L 32.4706,9.5710 L 32.4571,9.5581 L 32.4571,9.5451 L 32.4436,9.5321 L 32.4436,9.5191 L 32.4301,9.5191 L 32.4165,9.5191 L 32.4030,9.5191 L 32.3895,9.5191 L 32.3760,9.5191 L 32.3625,9.5191 L 32.3490,9.5191 L 32.3354,9.5191 L 32.3219,9.5191 L 32.3084,9.5191 L 32.3084,9.5061 L 32.2949,9.5061 L 32.2814,9.4931 L 32.2814,9.4801 L 32.2678,9.4801 L 32.2678,9.4671 L 32.2678,9.4542 L 32.2678,9.4412 L 32.2678,9.4282 L 32.2678,9.4152 L 32.2678,9.4022 L 32.2814,9.3892 L 32.2814,9.3762 L 32.2949,9.3762 L 32.2949,9.3633 L 32.2949,9.3503 L 32.3084,9.3503 L 32.3219,9.3503 L 32.3219,9.3373 L 32.3354,9.3373 L 32.3490,9.3373 L 32.3625,9.3373 L 32.3760,9.3373 L 32.3895,9.3373 L 32.4030,9.3373 L 32.4165,9.3373 L 32.4301,9.3373 L 32.4436,9.3373 L 32.4571,9.3373 L 32.4706,9.3373 L 32.4841,9.3373 L 32.4977,9.3373 L 32.5112,9.3373 L 32.5247,9.3373 L 32.5382,9.3373 L 32.5517,9.3373 L 32.5652,9.3373 L 32.5788,9.3373 L 32.5923,9.3373 L 32.5923,9.3503 L 32.6058,9.3503 L 32.6193,9.3503 L 32.6193,9.3633 L 32.6328,9.3762 L 32.6328,9.3892 L 32.6464,9.4022 L 32.6464,9.4152 L 32.6464,9.4282 L 32.6464,9.4412 L 32.6464,9.4542 L 32.6464,9.4671 L 32.6464,9.4801 L 32.6464,9.4931 L 32.6464,9.5061 L 32.6328,9.5061 L 32.6328,9.5191 L 32.6328,9.5321 Z" stroke="#000000" stroke-width="0.1193" stroke-linecap="round" stroke-linejoin="round" fill="#000000"/>
        <path d="M 6.4591,3.4233 L 6.4591,8.1740 L 4.5310,8.1740 L 4.5310,3.4233 L 4.9029,3.4233 L 4.9029,3.8005 L 6.0873,3.8005 L 6.0873,3.4233 L 6.4591,3.4233 Z" stroke="#000000" stroke-width="0.1193" stroke-linecap="round" stroke-linejoin="round" fill="#000000"/>
        <path d="M 6.4040,3.9403 L 4.5861,3.9403 L 4.5861,8.1041 L 6.4040,8.1041 L 6.4040,3.9403 Z" stroke="#000000" stroke-width="0.1193" stroke-linecap="round" stroke-linejoin="round" fill="#666666"/>
        <path d="M 6.2112,6.1899 L 4.7789,6.1899 L 4.7789,7.6430 L 6.2112,7.6430 L 6.2112,6.1899 Z" stroke="#000000" stroke-width="0.1193" stroke-linecap="round" stroke-linejoin="round" fill="#000000"/>
        <ellipse cx="5.4331" cy="6.8605" rx="0.1171" ry="0.1258" fill="#BFBFBF" stroke="#000000" stroke-width="0.1193" stroke-linecap="round" stroke-linejoin="round"/>
        <ellipse cx="5.4331" cy="6.8605" rx="0.1171" ry="0.1258" fill="none" stroke="#000000" stroke-width="0.1193" stroke-linecap="round" stroke-linejoin="round"/>
        <path d="M 6.2112,4.4293 L 4.7789,4.4293 L 4.7789,5.5192 L 5.1370,5.8825 L 5.8807,5.8825 L 6.2112,5.5471 L 6.2112,4.4293 Z" stroke="#000000" stroke-width="0.1193" stroke-linecap="round" stroke-linejoin="round" fill="#000000"/>
        <ellipse cx="5.4331" cy="5.1000" rx="0.1171" ry="0.1258" fill="#BFBFBF" stroke="#000000" stroke-width="0.1193" stroke-linecap="round" stroke-linejoin="round"/>
        <ellipse cx="5.4331" cy="5.1000" rx="0.1171" ry="0.1258" fill="none" stroke="#000000" stroke-width="0.1193" stroke-linecap="round" stroke-linejoin="round"/>
        <path d="M 9.6294,4.5492 L 9.6294,4.5353 L 9.6294,4.5213 L 9.6294,4.5073 L 9.6158,4.5073 L 9.6158,4.4934 L 9.6158,4.4794 L 9.6021,4.4655 L 9.6021,4.4515 L 9.5885,4.4515 L 9.5885,4.4376 L 9.5748,4.4376 L 9.5748,4.4236 L 9.5612,4.4236 L 9.5476,4.4097 L 9.5339,4.4097 L 9.5203,4.4097 L 9.5203,4.3957 L 9.5066,4.3957 L 9.4930,4.3957 L 9.4794,4.3957 L 9.4657,4.3957 L 9.4521,4.3957 L 9.4248,4.3957 L 9.3975,4.3957 L 9.3702,4.3957 L 9.3293,4.3957 L 9.2884,4.3957 L 9.2339,4.3957 L 9.1929,4.3957 L 9.1384,4.3957 L 9.0838,4.3957 L 9.0293,4.3957 L 8.9747,4.3957 L 8.9065,4.3957 L 8.8520,4.3957 L 8.7974,4.3957 L 8.7292,4.3957 L 8.6746,4.3957 L 8.6201,4.3957 L 8.5655,4.3957 L 8.5110,4.3957 L 8.4701,4.3957 L 8.4155,4.3957 L 8.3746,4.3957 L 8.3337,4.3957 L 8.3064,4.3957 L 8.2791,4.3957 L 8.2518,4.3957 L 8.2382,4.3957 L 8.2245,4.3957 L 8.2109,4.3957 L 8.1973,4.3957 L 8.1836,4.3957 L 8.1836,4.4097 L 8.1700,4.4097 L 8.1563,4.4097 L 8.1427,4.4236 L 8.1291,4.4236 L 8.1291,4.4376 L 8.1154,4.4376 L 8.1154,4.4515 L 8.1018,4.4515 L 8.1018,4.4655 L 8.0881,4.4794 L 8.0881,4.4934 L 8.0881,4.5073 L 8.0745,4.5073 L 8.0745,4.5213 L 8.0745,4.5353 L 8.0745,4.5492 L 8.0745,4.5632 L 8.0745,4.5911 L 8.0745,4.6329 L 8.0745,4.6888 L 8.0745,4.7725 L 8.0745,4.8702 L 8.0745,4.9678 L 8.0745,5.0795 L 8.0745,5.2051 L 8.0745,5.3446 L 8.0745,5.4842 L 8.0745,5.6237 L 8.0745,5.7772 L 8.0745,5.9307 L 8.0745,6.0982 L 8.0745,6.2517 L 8.0745,6.4052 L 8.0745,6.5726 L 8.0745,6.7261 L 8.0745,6.8796 L 8.0745,7.0192 L 8.0745,7.1587 L 8.0745,7.2983 L 8.0745,7.4239 L 8.0745,7.5355 L 8.0745,7.6332 L 8.0745,7.7309 L 8.0745,7.8146 L 8.0745,7.8704 L 8.0745,7.9123 L 8.0745,7.9402 L 8.0745,7.9541 L 8.0745,7.9681 L 8.0745,7.9820 L 8.0745,7.9960 L 8.0881,7.9960 L 8.0881,8.0100 L 8.0881,8.0239 L 8.1018,8.0379 L 8.1018,8.0518 L 8.1154,8.0518 L 8.1154,8.0658 L 8.1291,8.0658 L 8.1291,8.0797 L 8.1427,8.0797 L 8.1563,8.0937 L 8.1700,8.0937 L 8.1836,8.0937 L 8.1836,8.1076 L 8.1973,8.1076 L 8.2109,8.1076 L 8.2245,8.1076 L 8.2382,8.1076 L 8.2518,8.1076 L 8.2791,8.1076 L 8.3064,8.1076 L 8.3337,8.1076 L 8.3746,8.1076 L 8.4155,8.1076 L 8.4701,8.1076 L 8.5110,8.1076 L 8.5655,8.1076 L 8.6201,8.1076 L 8.6746,8.1076 L 8.7292,8.1076 L 8.7974,8.1076 L 8.8520,8.1076 L 8.9065,8.1076 L 8.9747,8.1076 L 9.0293,8.1076 L 9.0838,8.1076 L 9.1384,8.1076 L 9.1929,8.1076 L 9.2339,8.1076 L 9.2884,8.1076 L 9.3293,8.1076 L 9.3702,8.1076 L 9.3975,8.1076 L 9.4248,8.1076 L 9.4521,8.1076 L 9.4657,8.1076 L 9.4794,8.1076 L 9.4930,8.1076 L 9.5066,8.1076 L 9.5203,8.1076 L 9.5203,8.0937 L 9.5339,8.0937 L 9.5476,8.0937 L 9.5612,8.0797 L 9.5748,8.0797 L 9.5748,8.0658 L 9.5885,8.0658 L 9.5885,8.0518 L 9.6021,8.0518 L 9.6021,8.0379 L 9.6158,8.0239 L 9.6158,8.0100 L 9.6158,7.9960 L 9.6294,7.9960 L 9.6294,7.9820 L 9.6294,7.9681 L 9.6294,7.9541 L 9.6294,7.9402 L 9.6294,7.9123 L 9.6294,7.8704 L 9.6294,7.8146 L 9.6294,7.7309 L 9.6294,7.6332 L 9.6294,7.5355 L 9.6294,7.4239 L 9.6294,7.2983 L 9.6294,7.1587 L 9.6294,7.0192 L 9.6294,6.8796 L 9.6294,6.7261 L 9.6294,6.5726 L 9.6294,6.4052 L 9.6294,6.2517 L 9.6294,6.0982 L 9.6294,5.9307 L 9.6294,5.7772 L 9.6294,5.6237 L 9.6294,5.4842 L 9.6294,5.3446 L 9.6294,5.2051 L 9.6294,5.0795 L 9.6294,4.9678 L 9.6294,4.8702 L 9.6294,4.7725 L 9.6294,4.6888 L 9.6294,4.6329 L 9.6294,4.5911 L 9.6294,4.5632 L 9.6294,4.5492 Z" stroke="#000000" stroke-width="0.1193" stroke-linecap="round" stroke-linejoin="round" fill="#494949"/>
        <path d="M 9.5066,4.6050 L 9.5066,4.5911 L 9.5066,4.5771 L 9.5066,4.5632 L 9.4930,4.5632 L 9.4930,4.5492 L 9.4794,4.5353 L 9.4657,4.5353 L 9.4657,4.5213 L 9.4521,4.5213 L 9.4384,4.5213 L 9.4248,4.5213 L 9.4112,4.5213 L 9.3975,4.5213 L 9.3702,4.5213 L 9.3430,4.5213 L 9.3157,4.5213 L 9.2884,4.5213 L 9.2475,4.5213 L 9.2066,4.5213 L 9.1520,4.5213 L 9.1111,4.5213 L 9.0565,4.5213 L 9.0020,4.5213 L 8.9474,4.5213 L 8.8929,4.5213 L 8.8520,4.5213 L 8.7974,4.5213 L 8.7428,4.5213 L 8.6883,4.5213 L 8.6337,4.5213 L 8.5792,4.5213 L 8.5382,4.5213 L 8.4837,4.5213 L 8.4428,4.5213 L 8.4019,4.5213 L 8.3746,4.5213 L 8.3473,4.5213 L 8.3200,4.5213 L 8.2927,4.5213 L 8.2791,4.5213 L 8.2655,4.5213 L 8.2518,4.5213 L 8.2382,4.5213 L 8.2245,4.5353 L 8.2109,4.5353 L 8.2109,4.5492 L 8.1973,4.5492 L 8.1973,4.5632 L 8.1836,4.5771 L 8.1836,4.5911 L 8.1836,4.6050 L 8.1836,4.6190 L 8.1836,4.6469 L 8.1836,4.6888 L 8.1836,4.7446 L 8.1836,4.8283 L 8.1836,4.9120 L 8.1836,5.0097 L 8.1836,5.1213 L 8.1836,5.2469 L 8.1836,5.3725 L 8.1836,5.5121 L 8.1836,5.6516 L 8.1836,5.8051 L 8.1836,5.9447 L 8.1836,6.0982 L 8.1836,6.2656 L 8.1836,6.4191 L 8.1836,6.5726 L 8.1836,6.7122 L 8.1836,6.8657 L 8.1836,7.0052 L 8.1836,7.1448 L 8.1836,7.2704 L 8.1836,7.3960 L 8.1836,7.5076 L 8.1836,7.6053 L 8.1836,7.6890 L 8.1836,7.7727 L 8.1836,7.8285 L 8.1836,7.8704 L 8.1836,7.8983 L 8.1836,7.9123 L 8.1836,7.9262 L 8.1836,7.9402 L 8.1973,7.9402 L 8.1973,7.9541 L 8.2109,7.9541 L 8.2109,7.9681 L 8.2245,7.9681 L 8.2382,7.9820 L 8.2518,7.9820 L 8.2655,7.9820 L 8.2791,7.9820 L 8.2927,7.9820 L 8.3200,7.9820 L 8.3473,7.9820 L 8.3746,7.9820 L 8.4019,7.9820 L 8.4428,7.9820 L 8.4837,7.9820 L 8.5382,7.9820 L 8.5792,7.9820 L 8.6337,7.9820 L 8.6883,7.9820 L 8.7428,7.9820 L 8.7974,7.9820 L 8.8520,7.9820 L 8.8929,7.9820 L 8.9474,7.9820 L 9.0020,7.9820 L 9.0565,7.9820 L 9.1111,7.9820 L 9.1520,7.9820 L 9.2066,7.9820 L 9.2475,7.9820 L 9.2884,7.9820 L 9.3157,7.9820 L 9.3430,7.9820 L 9.3702,7.9820 L 9.3975,7.9820 L 9.4112,7.9820 L 9.4248,7.9820 L 9.4384,7.9820 L 9.4521,7.9820 L 9.4657,7.9820 L 9.4657,7.9681 L 9.4794,7.9681 L 9.4930,7.9681 L 9.4930,7.9541 L 9.4930,7.9402 L 9.5066,7.9402 L 9.5066,7.9262 L 9.5066,7.9123 L 9.5066,7.8983 L 9.5066,7.8704 L 9.5066,7.8285 L 9.5066,7.7727 L 9.5066,7.6890 L 9.5066,7.6053 L 9.5066,7.5076 L 9.5066,7.3960 L 9.5066,7.2704 L 9.5066,7.1448 L 9.5066,7.0052 L 9.5066,6.8657 L 9.5066,6.7122 L 9.5066,6.5726 L 9.5066,6.4191 L 9.5066,6.2656 L 9.5066,6.0982 L 9.5066,5.9447 L 9.5066,5.8051 L 9.5066,5.6516 L 9.5066,5.5121 L 9.5066,5.3725 L 9.5066,5.2469 L 9.5066,5.1213 L 9.5066,5.0097 L 9.5066,4.9120 L 9.5066,4.8283 L 9.5066,4.7446 L 9.5066,4.6888 L 9.5066,4.6469 L 9.5066,4.6190 L 9.5066,4.6050 Z" stroke="#494949" stroke-width="0.1193" stroke-linecap="round" stroke-linejoin="round" fill="#000000"/>
        <path d="M 8.7701,5.3446 L 8.7701,5.0376 L 8.8383,5.0376 L 8.8383,5.3446 L 8.7701,5.3446 Z" stroke="#494949" stroke-width="0.1193" stroke-linecap="round" stroke-linejoin="round" fill="#494949"/>
        <path d="M 8.7701,6.0424 L 8.7701,5.7354 L 8.8383,5.7354 L 8.8383,6.0424 L 8.7701,6.0424 Z" stroke="#494949" stroke-width="0.1193" stroke-linecap="round" stroke-linejoin="round" fill="#494949"/>
        <path d="M 8.7701,6.7261 L 8.7701,6.4191 L 8.8383,6.4191 L 8.8383,6.7261 L 8.7701,6.7261 Z" stroke="#494949" stroke-width="0.1193" stroke-linecap="round" stroke-linejoin="round" fill="#494949"/>
        <path d="M 8.7701,7.4378 L 8.7701,7.1308 L 8.8383,7.1308 L 8.8383,7.4378 L 8.7701,7.4378 Z" stroke="#494949" stroke-width="0.1193" stroke-linecap="round" stroke-linejoin="round" fill="#494949"/>
        <path d="M 9.1929,7.7727 L 9.2202,7.7727 L 9.2475,7.7588 L 9.2611,7.7309 L 9.2611,7.7030 L 9.2611,4.8004 L 9.2611,4.7725 L 9.2475,4.7446 L 9.2202,4.7306 L 9.1929,4.7306 L 8.9065,4.7306 L 8.8792,4.7306 L 8.8520,4.7446 L 8.8383,4.7725 L 8.8383,4.8004 L 8.8383,7.7030 L 8.8383,7.7309 L 8.8520,7.7588 L 8.8792,7.7727 L 8.9065,7.7727 L 9.1929,7.7727 Z" stroke="#494949" stroke-width="0.1193" stroke-linecap="round" stroke-linejoin="round" fill="#21BCFF"/>
        <path d="M 9.0565,7.6611 L 9.1111,7.6471 L 9.1384,7.6192 L 9.1657,7.5913 L 9.1793,7.5355 L 9.1793,4.9678 L 9.1657,4.9120 L 9.1384,4.8841 L 9.1111,4.8562 L 9.0565,4.8423 L 9.0020,4.8562 L 8.9747,4.8841 L 8.9474,4.9120 L 8.9338,4.9678 L 8.9338,7.5355 L 8.9474,7.5913 L 8.9747,7.6192 L 9.0020,7.6471 L 9.0565,7.6611 Z" stroke="#00A7EF" stroke-width="0.1193" stroke-linecap="round" stroke-linejoin="round" fill="#00A7EF"/>
        <path d="M 9.3839,4.5213 L 9.3839,4.5073 L 9.3839,4.4934 L 9.3839,4.4794 L 9.3839,4.4655 L 9.3839,4.4515 L 9.3839,4.4376 L 9.3839,4.4236 L 9.3839,4.4097 L 9.3839,4.3957 L 9.3839,4.3818 L 9.3839,4.3678 L 9.3702,4.3678 L 9.3702,4.3538 L 9.3566,4.3538 L 9.3566,4.3399 L 9.3430,4.3399 L 9.3293,4.3259 L 9.3157,4.3259 L 9.3021,4.3259 L 9.2884,4.3259 L 9.2748,4.3259 L 9.2611,4.3259 L 9.2475,4.3259 L 9.2202,4.3259 L 9.1929,4.3259 L 9.1657,4.3259 L 9.1247,4.3259 L 9.0975,4.3259 L 9.0565,4.3259 L 9.0156,4.3259 L 8.9747,4.3259 L 8.9338,4.3259 L 8.8929,4.3259 L 8.8520,4.3259 L 8.8110,4.3259 L 8.7701,4.3259 L 8.7292,4.3259 L 8.6883,4.3259 L 8.6474,4.3259 L 8.6064,4.3259 L 8.5792,4.3259 L 8.5382,4.3259 L 8.5110,4.3259 L 8.4837,4.3259 L 8.4564,4.3259 L 8.4428,4.3259 L 8.4291,4.3259 L 8.4155,4.3259 L 8.4019,4.3259 L 8.3882,4.3259 L 8.3746,4.3259 L 8.3609,4.3399 L 8.3473,4.3399 L 8.3473,4.3538 L 8.3337,4.3538 L 8.3337,4.3678 L 8.3200,4.3678 L 8.3200,4.3818 L 8.3200,4.3957 L 8.3200,4.4097 L 8.3200,4.4236 L 8.3200,4.4376 L 8.3200,4.4515 L 8.3200,4.4655 L 8.3200,4.4794 L 8.3200,4.4934 L 8.3200,4.5073 L 8.3200,4.5213 L 8.3337,4.5213 L 8.3473,4.5213 L 8.3609,4.5213 L 8.3882,4.5213 L 8.4155,4.5213 L 8.4564,4.5213 L 8.4837,4.5213 L 8.5246,4.5213 L 8.5655,4.5213 L 8.6064,4.5213 L 8.6610,4.5213 L 8.7019,4.5213 L 8.7565,4.5213 L 8.7974,4.5213 L 8.8520,4.5213 L 8.9065,4.5213 L 8.9474,4.5213 L 9.0020,4.5213 L 9.0429,4.5213 L 9.0975,4.5213 L 9.1384,4.5213 L 9.1793,4.5213 L 9.2202,4.5213 L 9.2475,4.5213 L 9.2884,4.5213 L 9.3157,4.5213 L 9.3430,4.5213 L 9.3566,4.5213 L 9.3702,4.5213 L 9.3839,4.5213 Z" stroke="#000000" stroke-width="0.1193" stroke-linecap="round" stroke-linejoin="round" fill="#EAEAEA"/>
        <path d="M 9.3839,7.9820 L 9.3839,7.9960 L 9.3839,8.0100 L 9.3839,8.0239 L 9.3839,8.0379 L 9.3839,8.0518 L 9.3839,8.0658 L 9.3839,8.0797 L 9.3839,8.0937 L 9.3839,8.1076 L 9.3839,8.1216 L 9.3839,8.1355 L 9.3702,8.1355 L 9.3702,8.1495 L 9.3566,8.1495 L 9.3566,8.1635 L 9.3430,8.1635 L 9.3293,8.1774 L 9.3157,8.1774 L 9.3021,8.1774 L 9.2884,8.1774 L 9.2748,8.1774 L 9.2611,8.1774 L 9.2475,8.1774 L 9.2202,8.1774 L 9.1929,8.1774 L 9.1657,8.1774 L 9.1247,8.1774 L 9.0975,8.1774 L 9.0565,8.1774 L 9.0156,8.1774 L 8.9747,8.1774 L 8.9338,8.1774 L 8.8929,8.1774 L 8.8520,8.1774 L 8.8110,8.1774 L 8.7701,8.1774 L 8.7292,8.1774 L 8.6883,8.1774 L 8.6474,8.1774 L 8.6064,8.1774 L 8.5792,8.1774 L 8.5382,8.1774 L 8.5110,8.1774 L 8.4837,8.1774 L 8.4564,8.1774 L 8.4428,8.1774 L 8.4291,8.1774 L 8.4155,8.1774 L 8.4019,8.1774 L 8.3882,8.1774 L 8.3746,8.1774 L 8.3609,8.1635 L 8.3473,8.1635 L 8.3473,8.1495 L 8.3337,8.1495 L 8.3337,8.1355 L 8.3200,8.1355 L 8.3200,8.1216 L 8.3200,8.1076 L 8.3200,8.0937 L 8.3200,8.0797 L 8.3200,8.0658 L 8.3200,8.0518 L 8.3200,8.0379 L 8.3200,8.0239 L 8.3200,8.0100 L 8.3200,7.9960 L 8.3200,7.9820 L 8.3337,7.9820 L 8.3473,7.9820 L 8.3609,7.9820 L 8.3882,7.9820 L 8.4155,7.9820 L 8.4564,7.9820 L 8.4837,7.9820 L 8.5246,7.9820 L 8.5655,7.9820 L 8.6064,7.9820 L 8.6610,7.9820 L 8.7019,7.9820 L 8.7565,7.9820 L 8.7974,7.9820 L 8.8520,7.9820 L 8.9065,7.9820 L 8.9474,7.9820 L 9.0020,7.9820 L 9.0429,7.9820 L 9.0975,7.9820 L 9.1384,7.9820 L 9.1793,7.9820 L 9.2202,7.9820 L 9.2475,7.9820 L 9.2884,7.9820 L 9.3157,7.9820 L 9.3430,7.9820 L 9.3566,7.9820 L 9.3702,7.9820 L 9.3839,7.9820 Z" stroke="#000000" stroke-width="0.1193" stroke-linecap="round" stroke-linejoin="round" fill="#EAEAEA"/>
        <path d="M 9.5066,4.7167 L 9.5203,4.7167 L 9.5339,4.7167 L 9.5476,4.7167 L 9.5612,4.7167 L 9.5748,4.7167 L 9.5885,4.7167 L 9.6021,4.7167 L 9.6158,4.7167 L 9.6294,4.7167 L 9.6430,4.7167 L 9.6567,4.7167 L 9.6567,4.7306 L 9.6703,4.7306 L 9.6840,4.7446 L 9.6840,4.7585 L 9.6976,4.7585 L 9.6976,4.7725 L 9.6976,4.7864 L 9.6976,4.8004 L 9.6976,4.8143 L 9.6976,4.8283 L 9.6976,4.8702 L 9.6976,4.9260 L 9.6976,4.9958 L 9.6976,5.0655 L 9.6976,5.1493 L 9.6976,5.2469 L 9.6976,5.3586 L 9.6976,5.4702 L 9.6976,5.5819 L 9.6976,5.7074 L 9.6976,5.8330 L 9.6976,5.9726 L 9.6976,6.0982 L 9.6976,6.2377 L 9.6976,6.3773 L 9.6976,6.5029 L 9.6976,6.6424 L 9.6976,6.7680 L 9.6976,6.8936 L 9.6976,7.0052 L 9.6976,7.1169 L 9.6976,7.2285 L 9.6976,7.3262 L 9.6976,7.4099 L 9.6976,7.4797 L 9.6976,7.5495 L 9.6976,7.6053 L 9.6976,7.6471 L 9.6976,7.6611 L 9.6976,7.6750 L 9.6976,7.6890 L 9.6976,7.7030 L 9.6976,7.7169 L 9.6840,7.7169 L 9.6840,7.7309 L 9.6840,7.7448 L 9.6703,7.7448 L 9.6567,7.7448 L 9.6567,7.7588 L 9.6430,7.7588 L 9.6294,7.7588 L 9.6158,7.7588 L 9.6021,7.7588 L 9.5885,7.7588 L 9.5748,7.7588 L 9.5612,7.7588 L 9.5476,7.7588 L 9.5339,7.7588 L 9.5203,7.7588 L 9.5066,7.7588 L 9.5066,7.7448 L 9.5066,7.7309 L 9.5066,7.6890 L 9.5066,7.6332 L 9.5066,7.5634 L 9.5066,7.4797 L 9.5066,7.3820 L 9.5066,7.2843 L 9.5066,7.1727 L 9.5066,7.0471 L 9.5066,6.9215 L 9.5066,6.7959 L 9.5066,6.6564 L 9.5066,6.5168 L 9.5066,6.3773 L 9.5066,6.2377 L 9.5066,6.0982 L 9.5066,5.9586 L 9.5066,5.8191 L 9.5066,5.6795 L 9.5066,5.5539 L 9.5066,5.4284 L 9.5066,5.3028 L 9.5066,5.1911 L 9.5066,5.0934 L 9.5066,4.9958 L 9.5066,4.9120 L 9.5066,4.8423 L 9.5066,4.7864 L 9.5066,4.7446 L 9.5066,4.7306 L 9.5066,4.7167 Z" stroke="#000000" stroke-width="0.1193" stroke-linecap="round" stroke-linejoin="round" fill="#EAEAEA"/>
        <path d="M 8.1836,4.7167 L 8.1700,4.7167 L 8.1563,4.7167 L 8.1427,4.7167 L 8.1291,4.7167 L 8.1154,4.7167 L 8.1018,4.7167 L 8.0881,4.7167 L 8.0745,4.7167 L 8.0609,4.7167 L 8.0472,4.7167 L 8.0336,4.7167 L 8.0336,4.7306 L 8.0200,4.7306 L 8.0063,4.7446 L 8.0063,4.7585 L 7.9927,4.7585 L 7.9927,4.7725 L 7.9927,4.7864 L 7.9927,4.8004 L 7.9927,4.8143 L 7.9927,4.8283 L 7.9927,4.8702 L 7.9927,4.9260 L 7.9927,4.9958 L 7.9927,5.0655 L 7.9927,5.1493 L 7.9927,5.2469 L 7.9927,5.3586 L 7.9927,5.4702 L 7.9927,5.5819 L 7.9927,5.7074 L 7.9927,5.8330 L 7.9927,5.9726 L 7.9927,6.0982 L 7.9927,6.2377 L 7.9927,6.3773 L 7.9927,6.5029 L 7.9927,6.6424 L 7.9927,6.7680 L 7.9927,6.8936 L 7.9927,7.0052 L 7.9927,7.1169 L 7.9927,7.2285 L 7.9927,7.3262 L 7.9927,7.4099 L 7.9927,7.4797 L 7.9927,7.5495 L 7.9927,7.6053 L 7.9927,7.6471 L 7.9927,7.6611 L 7.9927,7.6750 L 7.9927,7.6890 L 7.9927,7.7030 L 7.9927,7.7169 L 8.0063,7.7169 L 8.0063,7.7309 L 8.0063,7.7448 L 8.0200,7.7448 L 8.0336,7.7448 L 8.0336,7.7588 L 8.0472,7.7588 L 8.0609,7.7588 L 8.0745,7.7588 L 8.0881,7.7588 L 8.1018,7.7588 L 8.1154,7.7588 L 8.1291,7.7588 L 8.1427,7.7588 L 8.1563,7.7588 L 8.1700,7.7588 L 8.1836,7.7588 L 8.1836,7.7448 L 8.1836,7.7309 L 8.1836,7.6890 L 8.1836,7.6332 L 8.1836,7.5634 L 8.1836,7.4797 L 8.1836,7.3820 L 8.1836,7.2843 L 8.1836,7.1727 L 8.1836,7.0471 L 8.1836,6.9215 L 8.1836,6.7959 L 8.1836,6.6564 L 8.1836,6.5168 L 8.1836,6.3773 L 8.1836,6.2377 L 8.1836,6.0982 L 8.1836,5.9586 L 8.1836,5.8191 L 8.1836,5.6795 L 8.1836,5.5539 L 8.1836,5.4284 L 8.1836,5.3028 L 8.1836,5.1911 L 8.1836,5.0934 L 8.1836,4.9958 L 8.1836,4.9120 L 8.1836,4.8423 L 8.1836,4.7864 L 8.1836,4.7446 L 8.1836,4.7306 L 8.1836,4.7167 Z" stroke="#000000" stroke-width="0.1193" stroke-linecap="round" stroke-linejoin="round" fill="#EAEAEA"/>
        <path d="M 11.1157,7.9135 L 11.1157,5.7893 L 12.0027,5.7893 L 12.0027,5.2895 L 12.3631,5.2895 L 12.3631,4.7897 L 13.4164,4.7897 L 13.4164,5.2895 L 13.7768,5.2895 L 13.7768,5.7893 L 14.6638,5.7893 L 14.6638,7.9135 L 11.1157,7.9135 Z" stroke="#161616" stroke-width="0.1193" stroke-linecap="round" stroke-linejoin="round" fill="#000000"/>
        <path d="M 20.6791,5.1785 L 20.6791,7.3026 L 21.5661,7.3026 L 21.5661,7.8024 L 21.9265,7.8024 L 21.9265,8.3022 L 22.9798,8.3022 L 22.9798,7.8024 L 23.3402,7.8024 L 23.3402,7.3026 L 24.2272,7.3026 L 24.2272,5.1785 L 20.6791,5.1785 Z" stroke="#161616" stroke-width="0.1193" stroke-linecap="round" stroke-linejoin="round" fill="#000000"/>
        <path d="M 16.6458,5.1785 L 16.6458,7.3026 L 17.5329,7.3026 L 17.5329,7.8024 L 17.8932,7.8024 L 17.8932,8.3022 L 18.9466,8.3022 L 18.9466,7.8024 L 19.3069,7.8024 L 19.3069,7.3026 L 20.1940,7.3026 L 20.1940,5.1785 L 16.6458,5.1785 Z" stroke="#161616" stroke-width="0.1193" stroke-linecap="round" stroke-linejoin="round" fill="#000000"/>
        <path d="M 24.7539,5.1785 L 24.7539,7.3026 L 25.6409,7.3026 L 25.6409,7.8024 L 26.0013,7.8024 L 26.0013,8.3022 L 27.0546,8.3022 L 27.0546,7.8024 L 27.4150,7.8024 L 27.4150,7.3026 L 28.3020,7.3026 L 28.3020,5.1785 L 24.7539,5.1785 Z" stroke="#161616" stroke-width="0.1193" stroke-linecap="round" stroke-linejoin="round" fill="#000000"/>
        <path d="M 32.7927,5.1785 L 32.7927,7.3026 L 33.6797,7.3026 L 33.6797,7.8024 L 34.0401,7.8024 L 34.0401,8.3022 L 35.0934,8.3022 L 35.0934,7.8024 L 35.4538,7.8024 L 35.4538,7.3026 L 36.3408,7.3026 L 36.3408,5.1785 L 32.7927,5.1785 Z" stroke="#161616" stroke-width="0.1193" stroke-linecap="round" stroke-linejoin="round" fill="#000000"/>
        <path d="M 28.7733,5.1785 L 28.7733,7.3026 L 29.6603,7.3026 L 29.6603,7.8024 L 30.0207,7.8024 L 30.0207,8.3022 L 31.0740,8.3022 L 31.0740,7.8024 L 31.4344,7.8024 L 31.4344,7.3026 L 32.3214,7.3026 L 32.3214,5.1785 L 28.7733,5.1785 Z" stroke="#161616" stroke-width="0.1193" stroke-linecap="round" stroke-linejoin="round" fill="#000000"/>
        <path d="M 54.1925,5.1785 L 54.1925,7.3026 L 55.0795,7.3026 L 55.0795,7.8024 L 55.4399,7.8024 L 55.4399,8.3022 L 56.4932,8.3022 L 56.4932,7.8024 L 56.8536,7.8024 L 56.8536,7.3026 L 57.7406,7.3026 L 57.7406,5.1785 L 54.1925,5.1785 Z" stroke="#161616" stroke-width="0.1193" stroke-linecap="round" stroke-linejoin="round" fill="#000000"/>
        <path d="M 50.1176,5.1785 L 50.1176,7.3026 L 51.0047,7.3026 L 51.0047,7.8024 L 51.3650,7.8024 L 51.3650,8.3022 L 52.4184,8.3022 L 52.4184,7.8024 L 52.7787,7.8024 L 52.7787,7.3026 L 53.6658,7.3026 L 53.6658,5.1785 L 50.1176,5.1785 Z" stroke="#161616" stroke-width="0.1193" stroke-linecap="round" stroke-linejoin="round" fill="#000000"/>
        <path d="M 46.0428,5.1785 L 46.0428,7.3026 L 46.9298,7.3026 L 46.9298,7.8024 L 47.2902,7.8024 L 47.2902,8.3022 L 48.3436,8.3022 L 48.3436,7.8024 L 48.7039,7.8024 L 48.7039,7.3026 L 49.5910,7.3026 L 49.5910,5.1785 L 46.0428,5.1785 Z" stroke="#161616" stroke-width="0.1193" stroke-linecap="round" stroke-linejoin="round" fill="#000000"/>
        <path d="M 42.0234,5.1785 L 42.0234,7.3026 L 42.9104,7.3026 L 42.9104,7.8024 L 43.2708,7.8024 L 43.2708,8.3022 L 44.3242,8.3022 L 44.3242,7.8024 L 44.6845,7.8024 L 44.6845,7.3026 L 45.5716,7.3026 L 45.5716,5.1785 L 42.0234,5.1785 Z" stroke="#161616" stroke-width="0.1193" stroke-linecap="round" stroke-linejoin="round" fill="#000000"/>
        <path d="M 37.9902,5.1785 L 37.9902,7.3026 L 38.8772,7.3026 L 38.8772,7.8024 L 39.2376,7.8024 L 39.2376,8.3022 L 40.2909,8.3022 L 40.2909,7.8024 L 40.6513,7.8024 L 40.6513,7.3026 L 41.5383,7.3026 L 41.5383,5.1785 L 37.9902,5.1785 Z" stroke="#161616" stroke-width="0.1193" stroke-linecap="round" stroke-linejoin="round" fill="#000000"/>
      </g>
      <!--emf-blob end-->
    </g>
  </g>
</svg>
