<svg xmlns="http://www.w3.org/2000/svg" width="7.62" height="4" viewBox="0 0 137.2 72"><title><![CDATA[FG-7030E Chassis]]></title><g stroke-linecap="round" stroke-linejoin="round" stroke-width=".12" transform="matrix(.4692 0 0 .4684 -6.147 -166.128)"><path fill="#eaeaea" stroke="#000" d="M13.47 13.35h1169.72v646.54H13.47z"/><path fill="#fff" stroke="#000" d="m53.63 52.07-.12-.97-.12-.96-.24-.84-.24-.84-.48-.84-.36-.73-.6-.72-.6-.6-.6-.6-.73-.6-.72-.36-.84-.48-.84-.24-.85-.24-.96-.12-.96-.12H28.62l-.96.12-.97.12-.84.24-.84.24-.84.48-.72.36-.72.6-.6.6-.6.6-.6.72-.37.73-.48.84-.24.84-.24.84-.12.96-.12.96.12.85.12.96.24.84.24.84.48.84.36.72.6.73.6.6.6.6.73.6.72.36.84.48.84.24.85.24.96.12.96.12h15.75l.96-.12.96-.12.85-.24.84-.24.84-.48.72-.36.72-.6.6-.6.6-.6.6-.73.36-.72.49-.84.24-.84.24-.84.12-.96zm0 569.1-.12-.84-.12-.96-.24-.84-.24-.84-.48-.85-.36-.72-.6-.72-.6-.6-.6-.6-.73-.6-.72-.36-.84-.48-.84-.24-.85-.24-.96-.12-.96-.12H28.62l-.96.12-.97.12-.84.24-.84.24-.84.48-.72.36-.72.6-.6.6-.6.6-.6.72-.37.73-.48.84-.24.84-.24.84-.12.96-.12.84.12.97.12.96.24.84.24.84.48.84.36.72.6.73.6.6.6.6.73.6.72.36.84.48.84.24.85.24.96.12.96.12h15.75l.96-.12.96-.12.85-.24.84-.24.84-.48.72-.36.72-.6.6-.6.6-.6.6-.73.36-.72.49-.84.24-.84.24-.84.12-.96zm1123.55-569.1-.12-.97-.12-.96-.24-.84-.24-.84-.49-.84-.36-.72-.6-.73-.6-.6-.6-.6-.72-.6-.72-.36-.85-.48-.84-.24-.84-.24-.96-.12-.96-.12h-15.75l-.97.12-.96.12-.84.24-.84.24-.84.48-.73.36-.72.6-.6.6-.6.6-.6.73-.36.72-.48.84-.24.84-.24.84-.12.96-.12.97.12.84.12.96.24.84.24.84.48.84.36.73.6.72.6.6.6.6.72.6.73.36.84.48.84.24.84.24.96.12.96.12h15.76l.96-.12.96-.12.84-.24.84-.24.85-.48.72-.36.72-.6.6-.6.6-.6.6-.72.36-.73.48-.84.24-.84.25-.84.12-.96zm0 569.1-.12-.84-.12-.96-.24-.84-.24-.84-.49-.85-.36-.72-.6-.72-.6-.6-.6-.6-.72-.6-.72-.36-.85-.48-.84-.24-.84-.24-.96-.12-.96-.12h-15.75l-.97.12-.96.12-.84.24-.84.24-.84.48-.73.36-.72.6-.6.6-.6.6-.6.72-.36.73-.48.84-.24.84-.24.84-.12.96-.12.84.12.97.12.96.24.84.24.84.48.84.36.72.6.73.6.6.6.6.72.6.73.36.84.48.84.24.84.24.96.12.96.12h15.76l.96-.12.96-.12.84-.24.84-.24.85-.48.72-.36.72-.6.6-.6.6-.6.6-.73.36-.72.48-.84.24-.84.25-.84.12-.96z"/><path fill="#d1d1d1" stroke="#d1d1d1" d="M57.36 13.47h7.09v646.42h-7.1zm1074.73 0h7.09v646.42h-7.1z"/><path fill="#eaeaea" stroke="#000" d="M1132.09 13.47H64.44v646.42h1067.64z"/><path fill="none" stroke="#000" d="M13.47 13.35h1169.72v646.54H13.47z"/><path fill="#ddd" stroke="#000" d="M64.57 13.35h40.04v646.54H64.57zm1027.35 0h40.04v646.54h-40.04zm-987.19 1.2h987.07v64.33H104.73z"/><path fill="#eaeaea" stroke="#000" d="M1091.8 15.63v62.29h36.32l.12-.12h.48l.12-.12h.24l.12-.12h.12l.24-.12.12-.12h0l.12-.12.12-.12.12-.12.12-.12h.12l.12-.13v-.12l.12-.12v-.12l.12-.24.12-.12v-.24l.12-.12V17.8l-.12-.12v-.24l-.12-.13-.12-.11v-.24l-.12-.13h0l-.12-.12-.12-.12-.12-.12-.12-.12-.12-.12-.12-.12h0l-.12-.12h-.24l-.12-.12-.12-.12h-.24l-.12-.12h-.84 0zm-987.07 0v62.29H68.66h0-.24l-.12-.12h-.48l-.12-.12h-.24l-.12-.12h-.12l-.24-.12-.12-.12h0l-.12-.12-.12-.12-.12-.12-.12-.12h-.12l-.12-.13v-.12l-.12-.12v-.12l-.13-.24-.12-.12v-.24l-.12-.12V17.8l.12-.12v-.24l.12-.13.12-.11v-.24l.12-.13h0l.12-.12.13-.12.12-.12.12-.12.12-.12.12-.12h0l.12-.12h.24l.12-.12.12-.12h.24l.12-.12z"/><circle cx="83.99" cy="63.43" r="6.55" fill="#666" stroke="#000"/><circle cx="83.99" cy="63.43" r="5.95" fill="#ddd" stroke="#7f7f7f"/><path fill="#494949" stroke="#161616" d="m79.36 62.53-.12.12h0-.12 0H79v.12h0l-.12.12h0V63h0v.12h0v.12h0v.12h0v.12h0v.12h0v.12h0v.12h0v.12h0v.12h0v.12H79v.12h0l.12.12h3.97v3.37h0v.24h0v.12h0v.12h.12v.12h0v.12h0v.12h.12v.12h.12l.12.12h1.08l.12-.12h.12v-.12h.12v-.12h0v-.12h0v-.12h0v-.12h0v-.12h0v-.12h0v-.36h0v-3.13h4.21v-.12h.12v-.12h0l.12-.12h0v-.12h0v-.12h0v-.12h0v-.12h0v-.12h0v-.12h0v-.12h0v-.12h0V63h0l-.12-.12h0v-.12h0-.12 0v-.12h0-.12 0-.12 0l-.12-.12h0-.12 0-.12 0-.12 0-.36 0H85h0v-.24h0v-3.13h0v-.24h0v-.12h0v-.12h0v-.12h0v-.12h-.12 0v-.12h-.12 0-.12 0-.12 0-.12 0-.12v-.12h0-.12 0-.12 0-.12v.12h-.12 0-.12 0-.12 0-.12 0l-.12.12h0-.12v.12h0v.12h0v.12h-.12 0v.12h0v.12h0v.24h0v3.25h0-.24 0-3.13 0-.24 0z"/><circle cx="1110.38" cy="63.43" r="6.55" fill="#666" stroke="#000"/><circle cx="1110.38" cy="63.43" r="5.95" fill="#ddd" stroke="#7f7f7f"/><path fill="#494949" stroke="#161616" d="M1105.87 62.53h-.12 0l-.12.12h0-.12 0-.12v.12h0l-.12.12h0V63h0v.12h0v.12h0v.12h0v.12h0v.12h0v.12h0v.12h0v.12h0v.12h0v.12h.12v.12h0l.12.12h4.09v3.37h0v.24h0v.12h0v.12h0v.12h0v.12h0v.12h.12v.12h.12l.12.12h1.08l.12-.12h.12v-.12h.12v-.12h0v-.12h0v-.12h.12v-.12h0v-.12h0v-.12h0v-.36h0v-3.13h4.1v-.12h.11v-.12h.12v-.12h0v-.12h0v-.12h0l.12-.12h0v-.12h0v-.12h0v-.12h0l-.12-.12h0v-.12h0V63h0v-.12h-.12 0v-.12h0-.12 0v-.12h0-.12 0-.12 0l-.12-.12h0-.12 0-.12 0-.12 0-.36 0-3 0v-.24h0v-3.13h0v-.24h0v-.12h0-.13v-.12h0v-.12h0v-.12h-.12 0v-.12h-.12 0-.12 0-.12 0-.12 0-.12v-.12h-.12 0-.12 0-.12 0v.12h-.12 0-.12 0-.12 0-.12 0l-.12.12h0-.12v.12h0v.12h0v.12h0v.12h0v.12h0v.24h0v3.25h-.12 0-.24 0-3.13 0z"/><path fill="#efefef" stroke="#000" d="M1131.96 565.02H64.93v94.51h1067.03z"/><circle cx="361.39" cy="580.35" r="6.55" fill="#666" stroke="#000"/><circle cx="361.39" cy="580.35" r="5.95" fill="#ddd" stroke="#7f7f7f"/><path fill="#494949" stroke="#161616" d="M356.88 579.45h-.12v.12h-.12 0-.12 0-.12v.12h0l-.12.12h0v.12h0v.12h0v.12h-.12 0v.12h0v.12h0v.12h0v.12h0v.12h.12v.12h0v.12h0v.12h0v.12h.12v.12h4.2v3.37h0v.24h0v.12h0v.12h0v.12h0v.12h0v.12h.13v.12h.12l.12.12h1.08l.12-.12h.12v-.12h.12v-.12h0v-.12h0l.12-.12h0v-.12h0v-.12h0v-.12h0v-.36h0v-3.13h4.09v-.12h.12v-.12h.12v-.12h0v-.12h0v-.12h0l.12-.12h0v-.12h0v-.12h0v-.12h0l-.12-.12h0v-.12h0v-.12h0v-.12h-.12 0v-.12h0-.12 0v-.12h0-.12 0-.12 0-.12v-.12h0-.12 0-.12 0-.12 0-.36 0-3 0v-.24h0v-3.13h0v-.24h0v-.12h0l-.13-.12h0v-.12h0v-.12h-.12 0l-.12-.12h0-.12 0-.12 0-.12 0-.12 0-.12 0-.12 0-.12 0-.12 0-.12 0-.12 0-.12 0v.12h-.12 0l-.12.12h0v.12h0v.12h0v.12h0v.12h0v.24h0v3.25h-.12 0-.12 0-3.25 0z"/><circle cx="598.27" cy="580.35" r="6.55" fill="#666" stroke="#000"/><circle cx="598.27" cy="580.35" r="5.95" fill="#ddd" stroke="#7f7f7f"/><path fill="#494949" stroke="#161616" d="M593.64 579.45v.12h-.12 0-.12 0-.12v.12h0v.12h-.12 0v.12h0v.12h0v.12h0v.12h-.12v.12h0v.12h0v.12h.12v.12h0v.12h0v.12h0v.12h0l.12.12h0v.12h4.09v3.37h0v.24h0v.12h0v.12h0l.12.12h0v.12h0v.12h.12v.12h.12l.12.12h1.08l.12-.12h.12v-.12h.12v-.12h0v-.12h0v-.12h0v-.12h0v-.12h0v-.12h0v-.36h0v-3.13h4.2v-.12h.13v-.12h0l.12-.12h0v-.12h0v-.12h0v-.12h0v-.12h0v-.12h0v-.12h0v-.12h0v-.12h0v-.12h0l-.12-.12h0v-.12h0-.12 0v-.12h0-.12 0-.12 0-.12v-.12h0-.12 0-.12 0-.12 0-.36 0-3.13 0v-.24h0v-3.13h0v-.24h0v-.12h0v-.12h0v-.12h0l-.12-.12h0-.12v-.12h0-.12 0-.12 0-.12 0-.12 0-.12 0-.12 0-.12 0-.12 0-.12 0-.12 0-.12 0l-.12.12h0-.12v.12h0v.12h0l-.12.12h0v.12h0v.12h0v.24h0v3.25h0-.24 0H594h0-.24 0z"/><ellipse cx="835.09" cy="580.35" fill="#666" stroke="#000" rx="6.49" ry="6.55"/><ellipse cx="835.09" cy="580.35" fill="#ddd" stroke="#7f7f7f" rx="5.89" ry="5.95"/><path fill="#494949" stroke="#161616" d="M830.64 579.45h-.12v.12h-.12 0-.12 0-.12v.12h0v.12h-.12 0v.12h0v.12h0v.12h0v.12h0v.12h0v.12h0v.12h0v.12h0v.12h0v.12h0v.12h0l.12.12h0v.12h4.2v3.37h0v.24h0v.12h0v.12h0v.12h0v.12h0v.12h.12v.12h.12l.12.12h1.09l.12-.12h.12v-.12h.12v-.12h0v-.12h0v-.12h0l.12-.12h0v-.12h0v-.12h0v-.36h0v-3.13h4.09v-.12h.12v-.12h0l.12-.12h0v-.12h0v-.12h0v-.12h.12v-.12h0v-.12h0l-.12-.12h0v-.12h0v-.12h0v-.12h0l-.12-.12h0v-.12h0-.12 0v-.12h0-.12 0-.12 0-.12v-.12h-.12 0-.13 0-.12 0-.36 0-3 0v-.24h0v-3.13h0v-.24h0v-.12h-.12 0v-.12h0v-.12h0v-.12h-.12 0l-.12-.12h0-.12 0-.12 0-.12 0-.12 0-.12 0-.12 0-.12 0-.12 0-.13 0-.12 0-.12 0l-.12.12h0-.12v.12h0v.12h0v.12h0v.12h0v.12h0v.24h0v3.25h-.12 0-.24 0-3.12 0z"/><path stroke="#000" d="M152.23 586.06h8.05v8.06h-8.05zm11.66 0h8.06v8.06h-8.06zm11.54 0h8.06v8.06h-8.06zm11.55 0h8.05v8.06h-8.05zm11.54 0h8.06v8.06h-8.06zm11.54 0h8.06v8.06h-8.06zm11.55 0h8.05v8.06h-8.05zm11.54 0h8.06v8.06h-8.06zm11.78 0H253v8.06h-8.06zm11.55 0h8.05v8.06h-8.05zm11.54 0h8.06v8.06h-8.06zm11.54 0h8.06v8.06h-8.06zm11.55 0h8.05v8.06h-8.05zm11.54 0h8.06v8.06h-8.06zm11.54 0h8.06v8.06h-8.06zm11.67 0h8.05v8.06h-8.05zm-173.63 11.07h8.05v8.05h-8.05zm11.66 0h8.06v8.05h-8.06zm11.54 0h8.06v8.05h-8.06zm11.55 0h8.05v8.05h-8.05zm11.54 0h8.06v8.05h-8.06zm11.54 0h8.06v8.05h-8.06zm11.55 0h8.05v8.05h-8.05zm11.54 0h8.06v8.05h-8.06zm11.78 0H253v8.05h-8.06zm11.55 0h8.05v8.05h-8.05zm11.54 0h8.06v8.05h-8.06zm11.54 0h8.06v8.05h-8.06zm11.55 0h8.05v8.05h-8.05zm11.54 0h8.06v8.05h-8.06zm11.54 0h8.06v8.05h-8.06zm11.67 0h8.05v8.05h-8.05zm-173.63 11.06h8.05v8.05h-8.05zm11.66 0h8.06v8.05h-8.06zm11.54 0h8.06v8.05h-8.06zm11.55 0h8.05v8.05h-8.05zm11.54 0h8.06v8.05h-8.06zm11.54 0h8.06v8.05h-8.06zm11.55 0h8.05v8.05h-8.05zm11.54 0h8.06v8.05h-8.06zm11.78 0H253v8.05h-8.06zm11.55 0h8.05v8.05h-8.05zm11.54 0h8.06v8.05h-8.06zm11.54 0h8.06v8.05h-8.06zm11.55 0h8.05v8.05h-8.05zm11.54 0h8.06v8.05h-8.06zm11.54 0h8.06v8.05h-8.06zm11.67 0h8.05v8.05h-8.05zm-173.63 11.06h8.05v8.06h-8.05zm11.66 0h8.06v8.06h-8.06zm11.54 0h8.06v8.06h-8.06zm11.55 0h8.05v8.06h-8.05zm11.54 0h8.06v8.06h-8.06zm11.54 0h8.06v8.06h-8.06zm11.55 0h8.05v8.06h-8.05zm11.54 0h8.06v8.06h-8.06zm11.78 0H253v8.06h-8.06zm11.55 0h8.05v8.06h-8.05zm11.54 0h8.06v8.06h-8.06zm11.54 0h8.06v8.06h-8.06zm11.55 0h8.05v8.06h-8.05zm11.54 0h8.06v8.06h-8.06zm11.54 0h8.06v8.06h-8.06zm11.67 0h8.05v8.06h-8.05zm63.25-33.19h8.05v8.06h-8.05zm11.66 0h8.06v8.06h-8.06zm11.54 0h8.06v8.06h-8.06zm11.55 0h8.05v8.06h-8.05zm11.54 0h8.06v8.06h-8.06zm11.54 0H455v8.06h-8.06zm11.55 0h8.05v8.06h-8.05zm11.54 0h8.06v8.06h-8.06zm11.78 0h8.06v8.06h-8.06zm11.55 0h8.05v8.06h-8.05zm11.54 0h8.06v8.06h-8.06zm11.54 0h8.06v8.06h-8.06zm11.55 0h8.05v8.06H528zm11.54 0h8.06v8.06h-8.06zm11.54 0h8.06v8.06h-8.06zm11.67 0h8.05v8.06h-8.05zM389.1 597.13h8.05v8.05h-8.05zm11.66 0h8.06v8.05h-8.06zm11.54 0h8.06v8.05h-8.06zm11.55 0h8.05v8.05h-8.05zm11.54 0h8.06v8.05h-8.06zm11.54 0H455v8.05h-8.06zm11.55 0h8.05v8.05h-8.05zm11.54 0h8.06v8.05h-8.06zm11.78 0h8.06v8.05h-8.06zm11.55 0h8.05v8.05h-8.05zm11.54 0h8.06v8.05h-8.06zm11.54 0h8.06v8.05h-8.06zm11.55 0h8.05v8.05H528zm11.54 0h8.06v8.05h-8.06zm11.54 0h8.06v8.05h-8.06zm11.67 0h8.05v8.05h-8.05zM389.1 608.18h8.05v8.05h-8.05zm11.66 0h8.06v8.05h-8.06zm11.54 0h8.06v8.05h-8.06zm11.55 0h8.05v8.05h-8.05zm11.54 0h8.06v8.05h-8.06zm11.54 0H455v8.05h-8.06zm11.55 0h8.05v8.05h-8.05zm11.54 0h8.06v8.05h-8.06zm11.78 0h8.06v8.05h-8.06zm11.55 0h8.05v8.05h-8.05zm11.54 0h8.06v8.05h-8.06zm11.54 0h8.06v8.05h-8.06zm11.55 0h8.05v8.05H528zm11.54 0h8.06v8.05h-8.06zm11.54 0h8.06v8.05h-8.06zm11.67 0h8.05v8.05h-8.05zM389.1 619.25h8.05v8.06h-8.05zm11.66 0h8.06v8.06h-8.06zm11.54 0h8.06v8.06h-8.06zm11.55 0h8.05v8.06h-8.05zm11.54 0h8.06v8.06h-8.06zm11.54 0H455v8.06h-8.06zm11.55 0h8.05v8.06h-8.05zm11.54 0h8.06v8.06h-8.06zm11.78 0h8.06v8.06h-8.06zm11.55 0h8.05v8.06h-8.05zm11.54 0h8.06v8.06h-8.06zm11.54 0h8.06v8.06h-8.06zm11.55 0h8.05v8.06H528zm11.54 0h8.06v8.06h-8.06zm11.54 0h8.06v8.06h-8.06zm11.67 0h8.05v8.06h-8.05zm63.24-33.19h8.06v8.06h-8.06zm11.67 0h8.05v8.06h-8.05zm11.54 0h8.06v8.06h-8.06zm11.54 0h8.06v8.06h-8.06zm11.55 0h8.05v8.06h-8.05zm11.54 0h8.06v8.06h-8.06zm11.54 0h8.06v8.06h-8.06zm11.55 0h8.05v8.06h-8.05zm11.78 0h8.06v8.06h-8.06zm11.54 0h8.06v8.06h-8.06zm11.55 0h8.05v8.06h-8.05zm11.54 0h8.06v8.06h-8.06zm11.54 0h8.06v8.06h-8.06zm11.55 0h8.05v8.06h-8.05zm11.54 0h8.06v8.06h-8.06zm11.66 0h8.06v8.06h-8.06zm-173.63 11.07h8.06v8.05h-8.06zm11.67 0h8.05v8.05h-8.05zm11.54 0h8.06v8.05h-8.06zm11.54 0h8.06v8.05h-8.06zm11.55 0h8.05v8.05h-8.05zm11.54 0h8.06v8.05h-8.06zm11.54 0h8.06v8.05h-8.06zm11.55 0h8.05v8.05h-8.05zm11.78 0h8.06v8.05h-8.06zm11.54 0h8.06v8.05h-8.06zm11.55 0h8.05v8.05h-8.05zm11.54 0h8.06v8.05h-8.06zm11.54 0h8.06v8.05h-8.06zm11.55 0h8.05v8.05h-8.05zm11.54 0h8.06v8.05h-8.06zm11.66 0h8.06v8.05h-8.06zm-173.63 11.06h8.06v8.05h-8.06zm11.67 0h8.05v8.05h-8.05zm11.54 0h8.06v8.05h-8.06zm11.54 0h8.06v8.05h-8.06zm11.55 0h8.05v8.05h-8.05zm11.54 0h8.06v8.05h-8.06zm11.54 0h8.06v8.05h-8.06zm11.55 0h8.05v8.05h-8.05zm11.78 0h8.06v8.05h-8.06zm11.54 0h8.06v8.05h-8.06zm11.55 0h8.05v8.05h-8.05zm11.54 0h8.06v8.05h-8.06zm11.54 0h8.06v8.05h-8.06zm11.55 0h8.05v8.05h-8.05zm11.54 0h8.06v8.05h-8.06zm11.66 0h8.06v8.05h-8.06zm-173.63 11.06h8.06v8.06h-8.06zm11.67 0h8.05v8.06h-8.05zm11.54 0h8.06v8.06h-8.06zm11.54 0h8.06v8.06h-8.06zm11.55 0h8.05v8.06h-8.05zm11.54 0h8.06v8.06h-8.06zm11.54 0h8.06v8.06h-8.06zm11.55 0h8.05v8.06h-8.05zm11.78 0h8.06v8.06h-8.06zm11.54 0h8.06v8.06h-8.06zm11.55 0h8.05v8.06h-8.05zm11.54 0h8.06v8.06h-8.06zm11.54 0h8.06v8.06h-8.06zm11.55 0h8.05v8.06h-8.05zm11.54 0h8.06v8.06h-8.06zm11.66 0h8.06v8.06h-8.06zm63.25-33.19h8.06v8.06h-8.06zm11.66 0h8.06v8.06h-8.06zm11.55 0h8.05v8.06h-8.05zm11.54 0h8.06v8.06h-8.06zm11.54 0h8.06v8.06h-8.06zm11.55 0h8.05v8.06h-8.05zm11.54 0h8.06v8.06h-8.06zm11.54 0h8.06v8.06h-8.06zm11.79 0h8.05v8.06h-8.05zm11.54 0h8.06v8.06h-8.06zm11.54 0h8.06v8.06h-8.06zm11.55 0h8.05v8.06h-8.05zm11.54 0h8.06v8.06h-8.06zm11.54 0h8.06v8.06h-8.06zm11.55 0h8.06v8.06h-8.06zm11.66 0h8.06v8.06h-8.06zm-173.63 11.07h8.06v8.05h-8.06zm11.66 0h8.06v8.05h-8.06zm11.55 0h8.05v8.05h-8.05zm11.54 0h8.06v8.05h-8.06zm11.54 0h8.06v8.05h-8.06zm11.55 0h8.05v8.05h-8.05zm11.54 0h8.06v8.05h-8.06zm11.54 0h8.06v8.05h-8.06zm11.79 0h8.05v8.05h-8.05zm11.54 0h8.06v8.05h-8.06zm11.54 0h8.06v8.05h-8.06zm11.55 0h8.05v8.05h-8.05zm11.54 0h8.06v8.05h-8.06zm11.54 0h8.06v8.05h-8.06zm11.55 0h8.06v8.05h-8.06zm11.66 0h8.06v8.05h-8.06zm-173.63 11.06h8.06v8.05h-8.06zm11.66 0h8.06v8.05h-8.06zm11.55 0h8.05v8.05h-8.05zm11.54 0h8.06v8.05h-8.06zm11.54 0h8.06v8.05h-8.06zm11.55 0h8.05v8.05h-8.05zm11.54 0h8.06v8.05h-8.06zm11.54 0h8.06v8.05h-8.06zm11.79 0h8.05v8.05h-8.05zm11.54 0h8.06v8.05h-8.06zm11.54 0h8.06v8.05h-8.06zm11.55 0h8.05v8.05h-8.05zm11.54 0h8.06v8.05h-8.06zm11.54 0h8.06v8.05h-8.06zm11.55 0h8.06v8.05h-8.06zm11.66 0h8.06v8.05h-8.06zm-173.63 11.06h8.06v8.06h-8.06zm11.66 0h8.06v8.06h-8.06zm11.55 0h8.05v8.06h-8.05zm11.54 0h8.06v8.06h-8.06zm11.54 0h8.06v8.06h-8.06zm11.55 0h8.05v8.06h-8.05zm11.54 0h8.06v8.06h-8.06zm11.54 0h8.06v8.06h-8.06zm11.79 0h8.05v8.06h-8.05zm11.54 0h8.06v8.06h-8.06zm11.54 0h8.06v8.06h-8.06zm11.55 0h8.05v8.06h-8.05zm11.54 0h8.06v8.06h-8.06zm11.54 0h8.06v8.06h-8.06zm11.55 0h8.06v8.06h-8.06zm11.66 0h8.06v8.06h-8.06z"/><circle cx="1072.44" cy="606.26" r="7.7" fill="none" stroke="#000"/><circle cx="1072.44" cy="606.26" r="5.05" stroke="#000"/><path fill="none" stroke="#000" d="m1122.95 613.36 2.64-6.98h-11.54l-2.65 6.98"/><path fill="none" stroke="#000" d="m1117.18 613.24 2.64-6.86v-7.33"/><ellipse cx="124.57" cy="643.84" fill="#666" stroke="#000" rx="6.49" ry="6.55"/><ellipse cx="124.57" cy="643.84" fill="#ddd" stroke="#7f7f7f" rx="5.89" ry="5.95"/><path fill="#494949" stroke="#161616" d="M120 642.94h-.12v.12h-.12 0-.12 0-.12v.12h0v.12h-.12 0v.12h0v.12h0v.12h0v.12h0v.12h0v.12h0v.12h0v.12h0v.12h0v.12h0v.12h0l.12.12h0v.12h4.09v3.37h0v.24h0v.12h0l.12.12h0v.12h0v.12h0v.12h.12v.12h.12l.12.12h1.08l.12-.12h.12v-.12h.12v-.12h0v-.12h0v-.12h0v-.12h0v-.12h0v-.12h0v-.36h0v-3.13h4.21v-.12h.12v-.12h.12v-.12h0v-.12h0v-.12h0v-.12h0v-.12h0v-.12h0v-.12h0v-.12h0v-.12h0v-.12h0v-.12h-.12 0v-.12h0-.12 0v-.12h0-.12 0-.12 0-.12v-.12h-.12 0-.12 0-.12 0-.36 0-3.13 0v-.24h0v-3.13h0v-.24h0v-.12h0v-.12h0v-.12h0v-.12h-.12 0l-.12-.12h0-.12 0-.12 0-.12 0-.12 0-.12 0-.12 0-.12 0-.12 0-.12 0-.12 0-.12 0v.12h-.12 0-.12v.12h0v.12h0v.12h0-.12v.12h0v.12h0v.24h0v3.25h0-.24 0-3.13 0z"/><ellipse cx="124.57" cy="580.35" fill="#666" stroke="#000" rx="6.49" ry="6.55"/><ellipse cx="124.57" cy="580.35" fill="#ddd" stroke="#7f7f7f" rx="5.89" ry="5.95"/><path fill="#494949" stroke="#161616" d="M120 579.45h-.12v.12h-.12 0-.12 0-.12v.12h0v.12h-.12 0v.12h0v.12h0v.12h0v.12h0v.12h0v.12h0v.12h0v.12h0v.12h0v.12h0v.12h0l.12.12h0v.12h4.09v3.37h0v.24h0v.12h0l.12.12h0v.12h0v.12h0v.12h.12v.12h.12l.12.12h1.08l.12-.12h.12v-.12h.12v-.12h0v-.12h0v-.12h0v-.12h0v-.12h0v-.12h0v-.36h0v-3.13h4.21v-.12h.12v-.12h.12v-.12h0v-.12h0v-.12h0v-.12h0v-.12h0v-.12h0v-.12h0v-.12h0v-.12h0v-.12h0v-.12h-.12 0v-.12h0-.12 0v-.12h0-.12 0-.12 0-.12v-.12h-.12 0-.12 0-.12 0-.36 0-3.13 0v-.24h0v-3.13h0v-.24h0v-.12h0v-.12h0v-.12h0v-.12h-.12 0l-.12-.12h0-.12 0-.12 0-.12 0-.12 0-.12 0-.12 0-.12 0-.12 0-.12 0-.12 0-.12 0v.12h-.12 0-.12v.12h0v.12h0v.12h0-.12v.12h0v.12h0v.24h0v3.25h0-.24 0-3.13 0z"/><ellipse cx="76.47" cy="643.84" fill="#666" stroke="#000" rx="6.49" ry="6.55"/><ellipse cx="76.47" cy="643.84" fill="#ddd" stroke="#7f7f7f" rx="5.89" ry="5.95"/><path fill="#494949" stroke="#161616" d="M71.9 642.94h-.12v.12h-.12 0-.12 0-.12v.12h0v.12h-.12 0v.12h0v.12h0v.12h0v.12h0v.12h0v.12h0v.12h0v.12h0v.12h0v.12h0v.12h0l.12.12h0v.12h4.1v3.37h0v.24h0v.12h0l.11.12h0v.12h0v.12h0v.12h.12v.12h.12l.12.12h1.09l.12-.12h.12v-.12h.12v-.12h0v-.12h0v-.12h0v-.12h0v-.12h0v-.12h0v-.36h0v-3.13h4.2v-.12h.13v-.12h.12v-.12h0v-.12h0v-.12h0v-.12h0v-.12h0v-.12h0v-.12h0v-.12h0v-.12h0v-.12h0v-.12h-.12 0v-.12h0-.12 0v-.12h0-.13 0-.12 0-.12v-.12h-.12 0-.12 0-.12 0-.36 0-3.12 0v-.24h0v-3.13h0v-.24h0v-.12h0v-.12h0v-.12h0v-.12h-.12 0l-.12-.12h0-.12 0-.12 0-.12 0-.13 0-.12 0-.12 0-.12 0-.12 0-.12 0H76h0-.12 0v.12h-.12 0-.12v.12h0v.12h0v.12h0-.12v.12h0v.12h0v.24h0v3.25h0-.24 0-3.12 0z"/><ellipse cx="76.47" cy="580.35" fill="#666" stroke="#000" rx="6.49" ry="6.55"/><ellipse cx="76.47" cy="580.35" fill="#ddd" stroke="#7f7f7f" rx="5.89" ry="5.95"/><path fill="#494949" stroke="#161616" d="M71.9 579.45h-.12v.12h-.12 0-.12 0-.12v.12h0v.12h-.12 0v.12h0v.12h0v.12h0v.12h0v.12h0v.12h0v.12h0v.12h0v.12h0v.12h0v.12h0l.12.12h0v.12h4.1v3.37h0v.24h0v.12h0l.11.12h0v.12h0v.12h0v.12h.12v.12h.12l.12.12h1.09l.12-.12h.12v-.12h.12v-.12h0v-.12h0v-.12h0v-.12h0v-.12h0v-.12h0v-.36h0v-3.13h4.2v-.12h.13v-.12h.12v-.12h0v-.12h0v-.12h0v-.12h0v-.12h0v-.12h0v-.12h0v-.12h0v-.12h0v-.12h0v-.12h-.12 0v-.12h0-.12 0v-.12h0-.13 0-.12 0-.12v-.12h-.12 0-.12 0-.12 0-.36 0-3.12 0v-.24h0v-3.13h0v-.24h0v-.12h0v-.12h0v-.12h0v-.12h-.12 0l-.12-.12h0-.12 0-.12 0-.12 0-.13 0-.12 0-.12 0-.12 0-.12 0-.12 0H76h0-.12 0v.12h-.12 0-.12v.12h0v.12h0v.12h0-.12v.12h0v.12h0v.24h0v3.25h0-.24 0-3.12 0z"/><circle cx="1120.12" cy="643.84" r="6.55" fill="#666" stroke="#000"/><circle cx="1120.12" cy="643.84" r="5.95" fill="#ddd" stroke="#7f7f7f"/><path fill="#494949" stroke="#161616" d="M1115.5 642.94v.12h-.13 0-.12 0-.12v.12h0l-.12.12h0v.12h0v.12h0v.12h0-.12v.12h0v.12h0v.12h0v.12h0v.12h.12v.12h0v.12h0v.12h0v.12h.12v.12h4.2v3.37h0v.24h0v.12h0v.12h0v.12h0v.12h0v.12h.13v.12h.12l.12.12h1.08l.12-.12h.12v-.12h.12v-.12h0v-.12h0l.12-.12h0v-.12h0v-.12h0v-.12h0v-.36h0v-3.13h4.1v-.12h.11v-.12h.12v-.12h0v-.12h0v-.12h0l.12-.12h0v-.12h0v-.12h0v-.12h0l-.12-.12h0v-.12h0v-.12h0v-.12h-.12 0v-.12h0-.12 0v-.12h0-.12 0-.12 0-.12v-.12h0-.12 0-.12 0-.12 0-.36 0-3 0v-.24h0v-3.13h0v-.24h0v-.12h0l-.13-.12h0v-.12h0v-.12h-.12 0l-.12-.12h0-.12 0-.12 0-.12 0-.12 0-.12 0-.12 0-.12 0-.12 0-.12 0-.12 0-.12 0v.12h-.12 0l-.12.12h0v.12h0v.12h0v.12h0v.12h0v.24h0v3.25h-.12 0-.12 0-3.37 0-.12 0z"/><circle cx="1120.12" cy="580.35" r="6.55" fill="#666" stroke="#000"/><circle cx="1120.12" cy="580.35" r="5.95" fill="#ddd" stroke="#7f7f7f"/><path fill="#494949" stroke="#161616" d="M1115.5 579.45v.12h-.13 0-.12 0-.12v.12h0l-.12.12h0v.12h0v.12h0v.12h0-.12v.12h0v.12h0v.12h0v.12h0v.12h.12v.12h0v.12h0v.12h0v.12h.12v.12h4.2v3.37h0v.24h0v.12h0v.12h0v.12h0v.12h0v.12h.13v.12h.12l.12.12h1.08l.12-.12h.12v-.12h.12v-.12h0v-.12h0l.12-.12h0v-.12h0v-.12h0v-.12h0v-.36h0v-3.13h4.1v-.12h.11v-.12h.12v-.12h0v-.12h0v-.12h0l.12-.12h0v-.12h0v-.12h0v-.12h0l-.12-.12h0v-.12h0v-.12h0v-.12h-.12 0v-.12h0-.12 0v-.12h0-.12 0-.12 0-.12v-.12h0-.12 0-.12 0-.12 0-.36 0-3 0v-.24h0v-3.13h0v-.24h0v-.12h0l-.13-.12h0v-.12h0v-.12h-.12 0l-.12-.12h0-.12 0-.12 0-.12 0-.12 0-.12 0-.12 0-.12 0-.12 0-.12 0-.12 0-.12 0v.12h-.12 0l-.12.12h0v.12h0v.12h0v.12h0v.12h0v.24h0v3.25h-.12 0-.12 0-3.37 0-.12 0z"/><circle cx="1072.02" cy="643.84" r="6.55" fill="#666" stroke="#000"/><circle cx="1072.02" cy="643.84" r="5.95" fill="#ddd" stroke="#7f7f7f"/><path fill="#494949" stroke="#161616" d="M1067.4 642.94v.12h-.13 0-.12 0-.12v.12h0l-.12.12h0v.12h0v.12h0v.12h0-.12v.12h0v.12h0v.12h0v.12h0v.12h.12v.12h0v.12h0v.12h0v.12h.12v.12h4.21v3.37h0v.24h0v.12h0v.12h0v.12h0v.12h0v.12h.12v.12h.12l.12.12h1.09l.12-.12h.12v-.12h.11v-.12h0v-.12h0l.12-.12h0v-.12h0v-.12h0v-.12h0v-.36h0v-3.13h4.1v-.12h.11v-.12h.12v-.12h0v-.12h0v-.12h0l.12-.12h0v-.12h0v-.12h0v-.12h0l-.12-.12h0v-.12h0v-.12h0v-.12h-.12 0v-.12h0-.12 0v-.12h0-.12 0-.12 0-.12v-.12h0-.12 0-.12 0-.12 0-.36 0-3 0v-.24h0v-3.13h0v-.24h0v-.12h0l-.12-.12h0v-.12h0v-.12h-.12 0l-.12-.12h0-.12 0-.12 0-.12 0-.12 0-.13 0-.12 0-.12 0-.12 0-.12 0-.12 0-.12 0v.12h-.12 0l-.12.12h0v.12h0v.12h0v.12h0v.12h0v.24h0v3.25h-.12 0-.12 0-3.36 0-.12 0z"/><circle cx="1072.02" cy="580.35" r="6.55" fill="#666" stroke="#000"/><circle cx="1072.02" cy="580.35" r="5.95" fill="#ddd" stroke="#7f7f7f"/><path fill="#494949" stroke="#161616" d="M1067.4 579.45v.12h-.13 0-.12 0-.12v.12h0l-.12.12h0v.12h0v.12h0v.12h0-.12v.12h0v.12h0v.12h0v.12h0v.12h.12v.12h0v.12h0v.12h0v.12h.12v.12h4.21v3.37h0v.24h0v.12h0v.12h0v.12h0v.12h0v.12h.12v.12h.12l.12.12h1.09l.12-.12h.12v-.12h.11v-.12h0v-.12h0l.12-.12h0v-.12h0v-.12h0v-.12h0v-.36h0v-3.13h4.1v-.12h.11v-.12h.12v-.12h0v-.12h0v-.12h0l.12-.12h0v-.12h0v-.12h0v-.12h0l-.12-.12h0v-.12h0v-.12h0v-.12h-.12 0v-.12h0-.12 0v-.12h0-.12 0-.12 0-.12v-.12h0-.12 0-.12 0-.12 0-.36 0-3 0v-.24h0v-3.13h0v-.24h0v-.12h0l-.12-.12h0v-.12h0v-.12h-.12 0l-.12-.12h0-.12 0-.12 0-.12 0-.12 0-.13 0-.12 0-.12 0-.12 0-.12 0-.12 0-.12 0v.12h-.12 0l-.12.12h0v.12h0v.12h0v.12h0v.12h0v.24h0v3.25h-.12 0-.12 0-3.36 0-.12 0z"/></g><g font-family="Arial" font-size="3.25" font-weight="400"><text x="31.98" y="91.06" style="white-space:pre" transform="matrix(4 0 0 4 0 -159.988)"><![CDATA[2]]></text><text x="290.39" y="91.06" style="white-space:pre" transform="matrix(4 0 0 4 0 -159.988)"><![CDATA[2]]></text></g><g stroke-linecap="round" stroke-linejoin="round" stroke-width=".12" transform="matrix(.4692 0 0 .4696 20.924 -20.168)"><path fill="#eaeaea" stroke="#000" d="m1072.32 17.32-.12-.73-.24-.6-.36-.6-.36-.6-.6-.36-.6-.36-.6-.24H11.66l-.6.24-.6.36-.6.36-.36.6-.36.6-.24.6-.12.73v107.61l.12.72.24.6.36.6.36.6.6.37.6.36.6.24h1057.78l.6-.24.6-.36.6-.36.36-.6.36-.6.24-.6.12-.73z"/><ellipse cx="19.06" cy="36.07" fill="#666" stroke="#000" rx="4.87" ry="4.93"/><ellipse cx="19.06" cy="36.07" fill="#7f7f7f" stroke="#7f7f7f" rx="4.51" ry="4.45"/><path fill="#494949" stroke="#161616" d="M15.63 35.6h-.12 0-.12 0-.12 0v.11h-.12 0v.12h0v.12h0-.12 0v.12h0v.12h0v.12h0v.12h0v.12h.12v.12h0v.12h0l.12.12h3.13v2.05h0v.36h0v.24h0v.12h0v.12h0v.12h.12v.12h0v.12h0v.12h.12v.12h.24v.12h.6v-.12h.24v-.12h.12v-.12h0v-.12h0v-.12h.12v-.12h0v-.12h0v-.12h0v-.12h0v-.12h0v-.48h0V36.9h3.25v-.12h.12v-.12h0v-.12h0v-.12h0v-.12h0v-.12h0v-.12h0v-.12h0v-.12h0v-.12h0-.12 0v-.12h-.12 0-.12 0-.12 0-.12 0-.12 0-.12 0-.12 0-.13 0-.48 0-1.8v-.12h0v-.24h0v-2.28h0v-.12h0v-.12h0v-.12h-.12 0v-.12h0v-.12h0-.12v-.12h0-.12 0-.12 0-.12 0-.12 0-.12 0H19h0-.12 0-.12 0-.12 0v.12h-.12 0v.12h0v.12h0-.12v.12h0v.12h0v.12h0v.24h0v.36h0v2.04h0-.12 0-.12 0-2.29 0-.12 0z"/><ellipse cx="19.06" cy="105.93" fill="#666" stroke="#000" rx="4.87" ry="4.93"/><ellipse cx="19.06" cy="105.93" fill="#7f7f7f" stroke="#7f7f7f" rx="4.51" ry="4.45"/><path fill="#494949" stroke="#161616" d="M15.63 105.33h-.12 0-.12 0-.12 0l-.12.12h0v.12h0v.12h0-.12 0v.12h0v.12h0v.12h0v.12h0v.12h.12v.12h0v.13h0l.12.12h.12l.12.12h2.89v1.92h0v.36h0v.24h0v.12h0v.12h0v.12h.12v.12h0v.12h0v.12h.12v.12h1.08v-.12h.12v-.12h0v-.12h0v-.12h.12v-.12h0v-.12h0v-.12h0v-.12h0v-.12h0v-.36h0v-1.92h2.89l.12-.12h.24v-.12h.12v-.12h0v-.12h0v-.12h0v-.13h0v-.12h0v-.12h0v-.12h0v-.12h0v-.12h0-.12 0v-.12h0-.12 0-.12 0-.12 0-.12 0-.12 0-.12 0-.12 0-.13 0-.48 0-1.8v-.12h0v-.12h0v-.12h0v-2.28h0v-.12h0v-.12h0v-.12h0-.12 0v-.12h0v-.12h0-.12v-.12h0-.12 0-.12 0-.12 0-.12 0-.12 0H19h0-.12 0-.12 0-.12 0v.12h-.12 0v.12h0v.12h0-.12 0v.12h0v.12h0v.12h0v.24h0v.36h0v2.04h0-.12 0-.12 0-2.29 0-.12 0z"/><ellipse cx="1061.8" cy="36.07" fill="#666" stroke="#000" rx="4.87" ry="4.93"/><ellipse cx="1061.8" cy="36.07" fill="#7f7f7f" stroke="#7f7f7f" rx="4.51" ry="4.45"/><path fill="#494949" stroke="#161616" d="M1058.38 35.6h-.12 0-.12 0-.12 0v.11h-.12 0v.12h0v.12h0-.12 0v.12h0v.12h0v.12h0v.12h0v.12h.12v.12h0v.12h0l.12.12h3.12v2.05h0v.36h0v.24h0v.12h0v.12h0v.12h.12v.12h0v.12h0v.12h.12v.12h.24v.12h.6v-.12h.24v-.12h.12v-.12h0v-.12h0v-.12h.12v-.12h0v-.12h0v-.12h0v-.12h0v-.12h0v-.48h0V36.9h3.25v-.12h.12v-.12h0v-.12h0v-.12h0v-.12h0v-.12h0v-.12h0v-.12h0v-.12h0v-.12h0-.12 0v-.12h-.12 0-.12 0-.12 0-.12 0-.12 0-.12 0-.12 0-.12 0-.48 0-1.8v-.12h0v-.24h0v-2.28h0v-.12h0v-.12h0v-.12h-.12 0v-.12h0v-.12h0-.12v-.12h0-.12 0-.13 0-.12 0-.12 0-.12 0-.12 0-.12 0-.12 0-.12 0v.12h-.12 0v.12h0v.12h0-.12v.12h0v.12h0v.12h0v.24h0v.36h0v2.04h0-.12 0-.12 0-2.28 0-.12 0z"/><ellipse cx="1061.8" cy="105.93" fill="#666" stroke="#000" rx="4.87" ry="4.93"/><ellipse cx="1061.8" cy="105.93" fill="#7f7f7f" stroke="#7f7f7f" rx="4.51" ry="4.45"/><path fill="#494949" stroke="#161616" d="M1058.38 105.33h-.12 0-.12 0-.12 0l-.12.12h0v.12h0v.12h0-.12 0v.12h0v.12h0v.12h0v.12h0v.12h.12v.12h0v.13h0l.12.12h.12l.11.12h2.9v1.92h0v.36h0v.24h0v.12h0v.12h0v.12h.11v.12h0v.12h0v.12h.12v.12h1.08v-.12h.12v-.12h0v-.12h0v-.12h.12v-.12h0v-.12h0v-.12h0v-.12h0v-.12h0v-.36h0v-1.92h2.89l.12-.12h.24v-.12h.12v-.12h0v-.12h0v-.12h0v-.13h0v-.12h0v-.12h0v-.12h0v-.12h0v-.12h0-.12 0v-.12h0-.12 0-.12 0-.12 0-.12 0-.12 0-.12 0-.12 0-.12 0-.48 0-1.8v-.12h0v-.12h0v-.12h0v-2.28h0v-.12h0v-.12h0v-.12h0-.12 0v-.12h0v-.12h0-.12v-.12h0-.12 0-.13 0-.12 0-.12 0-.12 0-.12 0-.12 0-.12 0-.12 0v.12h-.12 0v.12h0v.12h0-.12 0v.12h0v.12h0v.12h0v.24h0v.36h0v2.04h0-.12 0-.12 0-2.28 0-.12 0z"/><path stroke="#000" d="M45.33 19.96h9.26v9.14h-9.26zm12.63 0h9.14v9.14h-9.14zm12.62 0h9.14v9.14h-9.14zm12.5 0h9.27v9.14h-9.26zm12.63 0h9.14v9.14h-9.14zm12.5 0h9.27v9.14h-9.26zm12.63 0h9.14v9.14h-9.14zm12.63 0h9.14v9.14h-9.14zm12.5 0h9.26v9.14h-9.25zm12.63 0h9.14v9.14h-9.14zm12.63 0h9.13v9.14h-9.13zm12.5 0h9.14v9.14h-9.14zm12.63 0h9.13v9.14h-9.13zm12.5 0h9.26v9.14h-9.26zm12.63 0h9.13v9.14h-9.13zm12.62 0h9.14v9.14h-9.14zm12.5 0h9.27v9.14h-9.26zm12.63 0h9.14v9.14h-9.14zm12.5 0h9.27v9.14h-9.26zm50.39 0h9.14v9.14h-9.14zm12.63 0h9.13v9.14h-9.13zm12.5 0h9.14v9.14h-9.14zm12.63 0h9.14v9.14h-9.14zm12.5 0h9.26v9.14h-9.26zm12.63 0h9.14v9.14h-9.14zm12.62 0h9.14v9.14h-9.14zm12.5 0h9.27v9.14h-9.26zm12.63 0h9.14v9.14h-9.14zm12.5 0h9.27v9.14h-9.26zm12.63 0h9.14v9.14h-9.14zm12.63 0h9.14v9.14h-9.14zm12.5 0h9.26v9.14h-9.26zm12.63 0h9.14v9.14h-9.14zm12.63 0h9.13v9.14h-9.13zm12.5 0h9.14v9.14h-9.14zm62.89 0h9.26v9.14h-9.26zm25.13 0h9.26v9.14h-9.26zm25.25 0h9.14v9.14h-9.14zm25.13 0h9.14v9.14h-9.14zm25.13 0h9.14v9.14h-9.14zm25.13 0h9.26v9.14h-9.26zm25.25 0h9.14v9.14h-9.14zm25.13 0h9.14v9.14h-9.14zm50.26 0h9.26v9.14h-9.26zm-238.92 0h9.14v9.14h-9.14zm25.13 0h9.14v9.14h-9.14zm25.13 0h9.14v9.14h-9.14zm25.14 0h9.25v9.14h-9.25zm25.25 0h9.13v9.14h-9.13zm25.13 0h9.13v9.14h-9.13zm25.13 0h9.14v9.14h-9.14zm25.13 0h9.26v9.14h-9.26zm75.51 0h9.14v9.14h-9.14zm12.63 0h9.13v9.14h-9.13zm12.5 0H847v9.14h-9.14zm12.63 0h9.13v9.14h-9.13zm12.5 0h9.26v9.14h-9.26zm12.63 0h9.14v9.14h-9.14zm12.62 0h9.14v9.14h-9.14zm12.5 0H910v9.14h-9.26zm12.63 0h9.14v9.14h-9.14zm12.5 0h9.27v9.14h-9.26zm12.63 0h9.14v9.14h-9.14zm12.63 0h9.14v9.14h-9.14zm12.5 0h9.26v9.14h-9.26zm12.63 0h9.14v9.14h-9.14zm12.63 0H998v9.14h-9.13zm12.5 0h9.14v9.14h-9.14zm12.63 0h9.13v9.14h-9.13zm12.5 0h9.26v9.14h-9.26zM45.33 113.15h9.26v9.14h-9.26zm12.63 0h9.14v9.14h-9.14zm12.62 0h9.14v9.14h-9.14zm12.5 0h9.27v9.14h-9.26zm12.63 0h9.14v9.14h-9.14zm12.5 0h9.27v9.14h-9.26zm12.63 0h9.14v9.14h-9.14zm12.63 0h9.14v9.14h-9.14zm12.5 0h9.26v9.14h-9.25zm12.63 0h9.14v9.14h-9.14zm12.63 0h9.13v9.14h-9.13zm12.5 0h9.14v9.14h-9.14zm12.63 0h9.13v9.14h-9.13zm12.5 0h9.26v9.14h-9.26zm12.63 0h9.13v9.14h-9.13zm12.62 0h9.14v9.14h-9.14zm12.5 0h9.27v9.14h-9.26zm12.63 0h9.14v9.14h-9.14zm12.5 0h9.27v9.14h-9.26zm50.39 0h9.14v9.14h-9.14zm12.63 0h9.13v9.14h-9.13zm12.5 0h9.14v9.14h-9.14zm12.63 0h9.14v9.14h-9.14zm12.5 0h9.26v9.14h-9.26zm12.63 0h9.14v9.14h-9.14zm12.62 0h9.14v9.14h-9.14zm12.5 0h9.27v9.14h-9.26zm12.63 0h9.14v9.14h-9.14zm12.5 0h9.27v9.14h-9.26zm12.63 0h9.14v9.14h-9.14zm12.63 0h9.14v9.14h-9.14zm12.5 0h9.26v9.14h-9.26zm12.63 0h9.14v9.14h-9.14zm12.63 0h9.13v9.14h-9.13zm12.5 0h9.14v9.14h-9.14zm62.89 0h9.26v9.14h-9.26zm25.13 0h9.26v9.14h-9.26zm25.25 0h9.14v9.14h-9.14zm25.13 0h9.14v9.14h-9.14zm25.13 0h9.14v9.14h-9.14zm25.13 0h9.26v9.14h-9.26zm25.25 0h9.14v9.14h-9.14zm25.13 0h9.14v9.14h-9.14zm50.26 0h9.26v9.14h-9.26zm-238.92 0h9.14v9.14h-9.14zm25.13 0h9.14v9.14h-9.14zm25.13 0h9.14v9.14h-9.14zm25.14 0h9.25v9.14h-9.25zm25.25 0h9.13v9.14h-9.13zm25.13 0h9.13v9.14h-9.13zm25.13 0h9.14v9.14h-9.14zm25.13 0h9.26v9.14h-9.26zm75.51 0h9.14v9.14h-9.14zm12.63 0h9.13v9.14h-9.13zm12.5 0H847v9.14h-9.14zm12.63 0h9.13v9.14h-9.13zm12.5 0h9.26v9.14h-9.26zm12.63 0h9.14v9.14h-9.14zm12.62 0h9.14v9.14h-9.14zm12.5 0H910v9.14h-9.26zm12.63 0h9.14v9.14h-9.14zm12.5 0h9.27v9.14h-9.26zm12.63 0h9.14v9.14h-9.14zm12.63 0h9.14v9.14h-9.14zm12.5 0h9.26v9.14h-9.26zm12.63 0h9.14v9.14h-9.14zm12.63 0H998v9.14h-9.13zm12.5 0h9.14v9.14h-9.14zm12.63 0h9.13v9.14h-9.13zm12.5 0h9.26v9.14h-9.26z"/></g><path fill="#dfdfdf" stroke="#000" stroke-linecap="round" stroke-linejoin="round" stroke-width=".12" d="M1074.25 7.94H10.7v114.83h1063.55z" transform="matrix(.4692 0 0 .4696 20.022 -74.022)"/><path fill="none" stroke="#000" stroke-linecap="round" stroke-linejoin="round" stroke-width=".12" d="M1074.25 7.94H10.7v114.83h1063.55z" transform="matrix(.4692 0 0 .4696 20.022 -17.458)"/><path fill="#dfdfdf" stroke="#000" stroke-linecap="round" stroke-linejoin="round" stroke-width=".12" d="M1074.25 7.94H10.7v114.83h1063.55z" transform="matrix(.4692 0 0 .4696 20.022 -130.586)"/><path fill="#dfdfdf" stroke="#000" stroke-linecap="round" stroke-linejoin="round" stroke-width=".12" d="M1074.25 7.94H10.7v114.83h1063.55z" transform="matrix(.4692 0 0 .4696 20.022 39.106)"/><path fill="none" stroke="#000" stroke-linecap="round" stroke-linejoin="round" stroke-width=".12" d="M9.38 9.26h493v62.16h-493z" transform="matrix(.4692 0 0 .4708 38.69 -163.22)"/><g stroke-linecap="round" stroke-linejoin="round" stroke-width=".12" transform="matrix(.4692 0 0 .4712 36.376 -164.528)"><path fill="#eaeaea" stroke="#000" d="M14.3 12.02h492.76v62.41H14.31z"/><ellipse cx="23.63" cy="43.17" fill="#666" stroke="#000" rx="6.55" ry="6.49"/><ellipse cx="23.63" cy="43.17" fill="#ddd" stroke="#7f7f7f" rx="5.95" ry="5.89"/><path fill="#494949" stroke="#161616" d="M19 42.33h-.12 0-.12 0-.12v.12h0-.12v.11h0v.13h0v.12h0v.12h0l-.12.12h0v.12h0v.12h0v.12h0l.12.12h0v.12h0v.12h0v.12h0V44h.12v.12H19v.12h3.72v3.24h0v.25h0v.12h0v.12h0l.13.12h0v.12h0v.12h.12v.12h.12l.12.12h1.08l.12-.12h.12v-.12h.12v-.12h0v-.12h0v-.12h0v-.12h0v-.12h0v-.12h0v-.36h0v-3.01h3.85v-.12h.36v-.12h.12v-.12h0l.12-.12h0v-.12h0v-.12h0v-.12h0v-.12h0v-.12h0v-.12h0v-.12h0v-.12h0v-.12h0l-.12-.12h0v-.12h0-.12 0v-.12h0-.12 0-.12 0-.12 0-.12 0-.12 0-.12 0-.36 0-3.13v-.12h0v-.24h0v-3.13h0v-.24h0v-.12h0v-.12h0v-.12h0l-.12-.12h0-.12V38h0-.12 0-.12 0-.12 0-.12 0-.12 0-.12 0-.12 0-.12 0-.12 0-.12 0-.12 0l-.12.12h0-.12v.12h0v.12h0l-.12.12h0v.12h0v.12h0v.24h0v3.37h0-.24 0-3.13 0-.24 0z"/><ellipse cx="497.38" cy="43.17" fill="#666" stroke="#000" rx="6.55" ry="6.49"/><ellipse cx="497.38" cy="43.17" fill="#ddd" stroke="#7f7f7f" rx="5.95" ry="5.89"/><path fill="#494949" stroke="#161616" d="M492.76 42.33h-.12 0-.13 0-.12v.12h0-.12v.11h0v.13h0v.12h0v.12h0-.12v.12h0v.12h0v.12h0v.12h0v.12h.12v.12h0v.12h0v.12h0V44h.12v.12h.36v.12h3.85v3.24h0v.25h0v.12h0v.12h0v.12h0v.12h0v.12h.12v.12h.12l.12.12h1.09l.12-.12h.12v-.12h.12v-.12h0v-.12h0l.12-.12h0v-.12h0v-.12h0v-.12h0v-.36h0v-3.01h3.72v-.12h.36v-.12h.12v-.12h.12v-.12h0v-.12h0v-.12h0l.12-.12h0v-.12h0v-.12h0v-.12h0l-.12-.12h0v-.12h0v-.12h0v-.12h-.12 0v-.12h0-.12 0v-.12h0-.12 0-.12 0-.12 0-.12 0-.12 0-.12 0-.36 0-3v-.12h0v-.24h0v-3.13h0v-.24h0v-.12h0l-.12-.12h0v-.12h0v-.12h-.12 0l-.12-.12h0-.12 0-.13 0-.12 0-.12 0-.12 0-.12 0-.12 0-.12 0-.12 0-.12 0-.12 0v.12h-.12 0l-.12.12h0v.12h0v.12h0v.12h0v.12h0v.24h0v3.37h-.12 0-.12 0H493h0-.12 0z"/><path fill="none" stroke="#000" d="m217.4 24.29-.12-.72-.24-.72-.24-.6-.48-.49-.48-.36-.6-.36-.73-.24H52.8l-.72.24-.6.36-.49.36-.36.48-.36.6-.24.73v39.32l.24.72.36.6.36.48.48.48.6.24.73.24.72.12h160.4l.6-.12.72-.24.6-.24.49-.48.48-.48.24-.6.24-.72.12-.6z"/><path fill="#0f0" stroke="#0f0" d="M62.65 30.9v-.36l-.12-.36-.12-.36-.24-.24-.24-.24-.36-.12-.25-.12h-.84l-.24.12-.36.12-.24.24-.24.24-.12.36-.12.36v25.5l.12.23.12.36.24.24.24.25.36.12.24.11.48.13.36-.12.24-.12.37-.12.24-.24.24-.24.12-.37.12-.24zm9.98 0v-.36l-.12-.36-.12-.36-.24-.24-.24-.24-.37-.12-.36-.12h-.72l-.24.12-.36.12-.24.24-.24.24-.12.36-.12.36-.12.36v24.77l.12.36.12.24.12.36.24.24.24.24.36.12.24.12.36.13.36-.12.36-.12.36-.12.24-.24.25-.25.12-.36.12-.24zm10.1 0-.12-.36-.12-.36-.12-.36-.24-.24-.24-.24-.37-.12-.24-.12h-.36 0-.36l-.36.12-.36.12-.24.24-.24.24-.12.36-.12.36v25.5l.12.23.12.36.24.24.24.25.36.12.36.11.36.13h0l.36-.12.24-.12.37-.12.24-.24.24-.24.12-.37.12-.24.12-.36z"/></g><g stroke-linecap="round" stroke-linejoin="round" stroke-width=".12"><path stroke="#000" d="M3.37 18.04h-.12v-.12h-.12 0H3h0-.12v-.12h0-.12 0l-.12-.12h0l-.12-.12h0v-.12h0-.13v-.13h0v-.12h0v-.12h-.12v-.12h0V3.5h.12v-.12h0v-.12h0v-.12h.12V3h0l.12-.12h0l.12-.12h.12v-.12H19.6v.12h.12l.12.12h0l.12.12h0v.12h.12v.12h0v.12h0l.12.12h0v.12h0v.24h0V6h0v.24h0-.12v-.12h0v-.12h0-.12V5.9h0-.12v-.12h0-.12 0v-.12h-.12 0-.12 0-.12 0v-.12h0H6.61h0-.12v.12h0-.12 0-.12 0l-.12.12h0-.12v.12h0l-.12.12h0v.12h0v.12h0v10.82h0v.12h0v.12h0v.12h0v.12h0l.12.12h0v.12h.12v.13h.24v.12h.12-.12 0-.12 0-.36 0-2.4 0z" transform="matrix(.344 0 0 .3372 79.08 -150.954)"/><path stroke="#000" d="M18.88 9.14H7.34h0-.12v-.12h0-.12 0-.12 0l-.13-.12h0-.12v-.12h0l-.12-.12h0v-.12h0v-.12h0v.12h0v.24h0v2.16h0v.24h0v.12h0v.12h0v.12h0v.12h0l.12.12h0v.12h.12l.12.12h12.39l.12-.12v-.12l.12-.12.12-.12.12-.12h0l.12-.12v-.12l.12-.12v-.96l-.12-.12h0v-.12l-.12-.12v-.12h-.12l-.12-.12v-.12h-.12l-.12-.12h-.12l-.12-.12zm27.77 2.88h-.12 0-.12 0l-.12-.12h0-.12v-.12h0l-.12-.12h0v-.12h0v-.12h0-.12v-.12h0v-.12h0v-.24h0V8.78h0v-.24h0v-.12h.12v.12h0v.12h0l.12.12h0v.12h.12l.12.12h.24v.12h9.38v-.12h0V8.9h0V5.77h0v-.12h0v-.12h0-9.98 0-.12 0v.12h0-.12 0-.12 0l-.12.12h0-.12v.12h0l-.12.12h0v.12h0v.12h-.12 0v10.82h0v.12h.12v.12h0v.13h0v.11h0l.12.12h0v.12h.12v.13h.24v.12h0-.12 0-2.4 0-.36 0-.12 0-.12 0v-.12h-.12 0-.12 0-.12v-.12h0-.12 0l-.12-.12h0l-.12-.12h0v-.12h0-.12v-.13h0v-.12h0v-.12h0v-.12h0V3.5h0v-.12h0v-.12h0v-.12h.12V3h0l.12-.12h0l.12-.12h.12v-.12h16.71v.12h.12l.12.12h0l.12.12h0v.12h.12v.12h0v.12h0v.12h.12v.12h0v7.09h0l-.12.12h0v.12h0v.12h0-.12v.12h0v.12h0-.12v.12h0l-.12.12h0v.12h-.12 0v.12h-.12 0v.12h-.12 0v.12h-.12 0v.12h.12v.12h.12v.12h.12v.12h.12v.12h0l.12.12h0v.12h.12v.12h0v.12h.12v.12h0v.12h0l.12.13h0v.24h0v3.12h0v.24h0v.12h0v.12h0v.12h0v.12h0l.12.12h0v.12h.12v.12h.24v.12h0H60h0-2.76 0-.12 0H57v-.12h-.12 0-.12 0-.12v-.12h0-.12 0l-.13-.12h0l-.12-.12h0v-.12h0-.12v-.12h0v-.12h0l-.11-.12h0v-.12h0v-.12h0v-.24h0v-4.57h0-9.26 0zm19.12-6.49h-2.76 0-.24 0-.12 0-.12 0-.12 0-.12 0-.12 0-.12v-.12h0-.12 0l-.12-.12h0l-.12-.12h0v-.12h0-.12v-.12h0v-.12h0v-.12h0v-.12h0v-.12h0v-.12h0V4.2h0v-.12h0v-.12h0v-.12h0v-.12h0V3.6h0v-.12h0v-.12h0v-.12h0v-.12h.12V3h0l.12-.12h0l.12-.12h.12v-.12h16.71v.12h.12l.12.12h0l.12.12h0v.12h.12v.12h0v.12h0v.12h0v.12h0v.24h0V6h0v.24h0v-.12h0v-.12h0-.12 0V5.9h0H79v-.12h0-.12 0v-.12h-.12 0-.12 0-.12 0v-.12h0-.12 0-8.42v.12h0-.12 0-.12 0l-.12.12h0-.12v.12h0l-.12.12h0v.12h0v.12h0v10.82h0v.12h0v.12h0v.13h0v.11h0l.12.12h0v.12h.12v.13h.24v.12h.12-.12 0-.12 0-.36 0-2.4 0-.12 0-.12v-.12h-.12 0-.12 0-.13v-.12h0-.12 0l-.12-.12h0l-.12-.12h0v-.12h0-.12v-.13h0v-.12h0v-.12h-.12v-.12h0zm19 11.54v.12h0v.12h0v.13h0v.12h0l.12.12h0v.12h.12v.12h.24v.12h.12-.12 0-.12 0-.36 0-2.4 0-.12 0-.12v-.12H82h0-.12 0-.13v-.12h0-.12 0l-.12-.12h0l-.12-.12h0v-.12h0-.12v-.13h0v-.11h0v-.12h-.12v-.12h0V3.48h0v-.12h0v-.12h0v-.12h0V3h0l-.12-.12h0v-.12h0-.12 0v-.12h0-.12 0-.12 0-.12 3.6v.12h.13l.12.12h0l.12.12h0v.12h.12v.12h0v.12h0v.12h.12zm16.95-11.54h-9.97 0-.13v.12h0-.12 0-.12 0l-.12.12h0-.12v.12h0l-.12.12h0v.12h0v.12h0-.12v10.82h0v.12h.12v.12h0v.13h0v.11h0l.12.12h0v.12h.12v.13h.24v.12h0-.12 0-2.76 0-.12 0-.12v-.12h-.12 0-.12 0-.12v-.12h0-.12 0l-.12-.12h0v-.12h-.12 0v-.12h0-.12v-.13h0v-.12h0v-.12h0v-.12h0V3.5h0v-.12h0v-.12h0v-.12h.12V3h.12v-.12h0l.12-.12h.12v-.12h16.71v.12h.12l.12.12h0l.12.12h0v.12h.12v.12h0v.12h0v.12h.12v13.58h0v.12h0v.12h0v.12h0v.12h0l.12.12h0v.12h.12v.13h.24v.12h.12-.12 0-.12 0-.36 0-2.4 0-.12 0-.12v-.12h-.12 0-.12 0-.12v-.12h0-.12 0l-.12-.12h0l-.12-.12h0v-.12h0-.12v-.13h0v-.12h0v-.12h-.12v-.12h0zm21.16 3.6h-10.82 0-.12 0v-.11h0-.12 0-.12 0V8.9h0-.12 0v-.12h0l-.13-.12h0v-.12h0v-.12h0-.11 0v.12h0v.24h0v2.16h0v.24h0v.12h0v.12h.12v.12h0v.12h0l.12.12h0v.12h.12v.12h11.54l.12-.12v-.12l.12-.12.12-.12.12-.12h0l.12-.12v-.12l.12-.12V9.98h-.12v-.24l-.12-.12h0l-.12-.12-.12-.12h0l-.12-.12h-.12l-.12-.12zm8.3-3.6h-2.77 0-.24 0-.12 0-.12 0-.12 0-.12 0-.12 0-.12V5.4h0-.12 0l-.12-.12h0l-.12-.12h0v-.12h0-.12v-.12h0v-.12h0v-.12h0v-.12h0v-.12h0v-.12h0V4.2h0v-.12h0v-.12h0v-.12h0v-.12h0V3.6h0v-.12h0v-.12h0v-.12h0v-.12h.12V3h0l.12-.12h0l.12-.12h.12v-.12h16.71v.12h.12l.12.12h0l.12.12h0v.12h.12v.12h0v.12h0v.12h0v.12h0v.24h0V6h0v.24h0v-.12h0v-.12h0-.12 0V5.9h0-.12v-.12h0-.12 0v-.12h-.12 0-.12 0-.12 0v-.12h0-.12 0-8.42v.12h0-.12 0-.12 0l-.12.12h0-.12v.12h0l-.12.12h0v.12h0v.12h0v10.82h0v.12h0v.12h0v.13h0v.11h0l.12.12h0v.12h.12v.13h.24v.12h.12-.12 0-.12 0-.36 0-2.4 0-.12 0-.12v-.12h-.12 0-.12 0-.12v-.12h0-.12 0l-.12-.12h0l-.12-.12h0v-.12h0-.13v-.13h0v-.12h0v-.12h-.12v-.12h0z" transform="matrix(.344 0 0 .3372 79.08 -150.954)"/><path stroke="#000" d="M124.09 15.03h.12v-.12h.36v-.12h.12v-.12h.12v-.12h.12v-.12h0v-.12h.12v.12h0v.12h0v2.16h0v.12h0v.12h0l-.12.12h0v.12h0v.12h0v.13h-.12 0v.12h0l-.12.12h0l-.12.12h0-.12 0v.12h-.12 0-.12 0-.12v.12h0-16 0v-.12h-.11 0-.12 0-.12v-.12h0-.12 0l-.12-.12h0l-.12-.12h0v-.12h0-.12v-.13h0v-.11h0v-.12h0v-.12h0V3.48h0v-.12h0v-.12h0v-.12h.12V3h0l.12-.12h0l.12-.12h.12v-.12h16.71v.12h.12l.12.12h0l.12.12h0v.12h.12v.12h0v.12h0v.12h.12v.12h0v.24h0V6h0v.24h0-.12 0v-.12h0v-.12h0-.12 0V5.9h0-.12v-.12h0-.12 0v-.12h-.12 0-.12 0-.12 0v-.12h-.12 0-12.75 0v.12h0-.12 0-.12 0l-.12.12h0-.12v.12h0l-.12.12h0v.12h0v.12h-.12 0v.12h0v8.66z" transform="matrix(.344 0 0 .3372 79.08 -150.954)"/><path fill="red" stroke="red" d="M28.02 13.59v4.45h5.77v-4.45zm-5.9-5.53h4.93v4.45h-4.93zm12.75 5.53v4.33h0v.12h1.44l.12-.12h.72l.12-.12h.24l.25-.12h.12l.24-.12.12-.12.24-.13.12-.12.12-.12.12-.24.24-.12.12-.24.12-.12.12-.24v-.24l.12-.36.12-.24v-.36l.12-.24v-.72l.12-.36h-.12 0H35h0zm0-5.53h5.05v4.45h-5.05zm-7.81 5.53v4.33h0v.12H25.6l-.12-.12h-.72l-.12-.12h-.24l-.24-.12h-.12l-.24-.12-.12-.12-.24-.13-.12-.12-.12-.12-.12-.24-.12-.12-.24-.24-.12-.12v-.24l-.12-.24-.12-.36-.13-.24v-.36l-.12-.24v-1.08zm.97-10.94V7.1h5.77V2.64zm6.85 4.44v-.12h0V2.65h0l.24-.12h1.2l.12.12h.73l.12.12h.23l.25.12.12.12h.24l.12.12.24.12.12.12.12.12.12.24.24.12.12.24.12.24.12.12v.24l.12.36.12.24v.36l.12.24v.72l.12.48h-.12 0H35h0zm-7.81 0v-.12h0V2.65h0l-.24-.12h-1.2l-.13.12h-.72l-.12.12h-.24l-.24.12-.12.12h-.24l-.12.12-.24.12-.12.12-.12.12-.12.24-.12.12-.24.24-.12.24v.12l-.12.24-.12.36-.13.24v.36l-.11.24v1.2z" transform="matrix(.344 0 0 .3372 79.08 -150.954)"/></g><text x="3.85" y="10.94" font-family="Symbol" font-size="8.54" style="white-space:pre" transform="matrix(.166 0 0 .1732 126.607 -147.074)"><![CDATA[]]></text><text x="22.85" y="12.85" font-family="Arial" font-size="2.52" font-weight="400" style="white-space:pre" transform="translate(36.997 -162.696)scale(1.8764)"><![CDATA[FortiGate 7030E]]></text><path fill="none" stroke="#000" stroke-linecap="round" stroke-linejoin="round" stroke-width=".12" d="M9.38 9.26h493v62.16h-493z" transform="matrix(.4692 0 0 .4708 270.152 -163.22)"/><g stroke-linecap="round" stroke-linejoin="round" stroke-width=".12" transform="matrix(.4692 0 0 .4712 270.546 -162.318)"><path fill="#eaeaea" stroke="#000" d="M8.54 7.34h492.75V69.5H8.54z"/><circle cx="17.86" cy="38.3" r="6.55" fill="#666" stroke="#000"/><circle cx="17.86" cy="38.3" r="5.95" fill="#ddd" stroke="#7f7f7f"/><path fill="#494949" stroke="#161616" d="M13.23 37.52h-.12 0-.12 0l-.12.12h0l-.12.12h0v.12h0V38h0v.12h0l-.12.12h0v.12h0v.12h0v.12h0l.12.12h0v.12h0v.12h0v.12h0v.12h.12v.12h.24l.12.12h3.72v3.25h0v.24h0v.12h0v.12h0l.12.12h0v.12h0v.12h.12v.12h.12v.12h.37v.12h.6v-.12h.36v-.12h.12v-.12h.12v-.12h0v-.12h0v-.12h0v-.12h0v-.12h0v-.12h0v-.36h0v-3.01h3.85l.12-.12h.24v-.12h.12v-.12h0l.12-.12h0v-.12h0v-.12h0v-.12h0v-.12h0v-.12h0v-.12h0v-.12h0V38h0v-.12h0l-.12-.12h0v-.12h0-.12 0v-.12h-.12 0-.12 0-.12 0-.12 0-.12 0-.12 0H22h0-3.12v-.12h0v-.12h0v-3.25h0v-.24h0v-.12h0v-.12h0v-.12h0l-.12-.12h0l-.12-.12h0-.12 0-.12 0-.12 0v-.12h-.12 0-.12 0-.12 0-.12 0-.12v.12h0-.12 0-.12 0-.13 0-.12v.12h0-.12v.12h0v.12h0l-.12.12h0v.12h0v.12h0v.24h0v3.37h0-.24 0-3.12 0-.24 0z"/><circle cx="491.61" cy="38.3" r="6.55" fill="#666" stroke="#000"/><circle cx="491.61" cy="38.3" r="5.95" fill="#ddd" stroke="#7f7f7f"/><path fill="#494949" stroke="#161616" d="M486.98 37.52h-.12 0-.12 0l-.12.12h0l-.12.12h0v.12h0V38h0v.12h0-.12v.12h0v.12h0v.12h0v.12h0v.12h.12v.12h0v.12h0v.12h0v.12h.12v.12h.24l.12.12h3.85v3.25h0v.24h0v.12h0v.12h0v.12h0v.12h0v.12h.12v.12h.12v.12h.36v.12h.6v-.12h.36v-.12h.12v-.12h.12v-.12h0v-.12h0l.12-.12h0v-.12h0v-.12h0v-.12h0v-.36h0v-3.01h3.73l.12-.12h.24v-.12h.12v-.12h.12v-.12h0v-.12h0v-.12h0l.12-.12h0v-.12h0v-.12h0v-.12h0l-.12-.12h0V38h0v-.12h0v-.12h-.12 0v-.12h0-.12 0v-.12h-.12 0-.12 0-.12 0-.12 0-.12 0-.12 0-.36 0-3v-.12h0v-.12h0v-3.25h0v-.24h0v-.12h0l-.12-.12h0v-.12h0v-.12h-.13 0v-.12h-.12 0-.12 0-.12 0-.12 0v-.12h-.12 0-.12 0-.12 0-.12 0-.12v.12h0-.12 0-.12 0-.12 0l-.12.12h0l-.12.12h0v.12h0v.12h0v.12h0v.12h0v.24h0v3.37h-.12 0-.12 0-3.37 0-.12 0z"/><path fill="none" stroke="#000" d="m354.12 20.56-.12-.48-.12-.36-.13-.24-.24-.36-.36-.24-.24-.12-.36-.12H246.62l-.36.12-.24.12-.36.24-.24.36-.12.24-.13.36v34.75l.12.36.12.36.24.24.37.24.24.12.36.12.48.12h105.09l.36-.12.36-.12.24-.12.36-.24.24-.24.12-.36.12-.36.12-.36z"/><path fill="#bfbfbf" stroke="#000" d="M247.34 21.04h38.24V54h-38.24z"/><ellipse cx="345.82" cy="48.52" fill="#333" stroke="#000" rx="3.61" ry="3.55"/><ellipse cx="345.82" cy="48.52" fill="#494949" stroke="#666" rx="3.13" ry="3.19"/><path fill="none" stroke="#000" d="M472.31 20.56v-.48l-.12-.36-.12-.24-.24-.36-.36-.24-.24-.12-.36-.12H364.94l-.36.12-.24.12-.36.24-.24.36-.13.24-.12.36-.12.48v33.91l.12.36.12.36.12.36.24.24.37.24.24.12.36.12.36.12h105.09l.48-.12.36-.12.24-.12.36-.24.24-.24.12-.36.12-.36z"/><path fill="#bfbfbf" stroke="#000" d="M365.66 21.04h38.11V54h-38.11z"/><circle cx="464.08" cy="48.52" r="3.55" fill="#333" stroke="#000"/><circle cx="464.08" cy="48.52" r="3.19" fill="#494949" stroke="#666"/><path fill="#bfbfbf" stroke="#000" d="M174.83 21.04h38.24V54h-38.24z"/><circle cx="230.56" cy="48.52" r="2.1" fill="#333" stroke="#000"/><circle cx="230.56" cy="48.52" r="1.62" fill="#494949" stroke="#666"/><ellipse cx="230.56" cy="37.88" fill="#333" stroke="#000" rx="3.55" ry="3.61"/><circle cx="230.56" cy="37.82" r="2.83" fill="#e2e2e2" stroke="#efefef"/><path fill="#0f0" stroke="#000" d="M316.84 26.45v-.36l-.12-.24-.12-.24-.12-.24-.24-.24-.36-.12-.24-.12h-4.45l-.36.12-.24.12-.24.24-.12.24-.12.24-.12.24-.12.36v.36l.12.36.12.24.12.24.12.25.24.24.24.12.36.12h4.45l.24-.12.36-.12.24-.24.12-.24.12-.24.12-.25zm0 6.62v-.36l-.12-.24-.12-.24-.12-.24-.24-.24-.36-.13-.24-.12h-4.45l-.36.12-.24.12-.24.24-.12.25-.12.24-.12.24-.12.36v.36l.12.36.12.24.12.24.12.24.24.24.24.12.36.12h4.45l.24-.12.36-.12.24-.24.12-.24.12-.24.12-.24zm0 6.61v-.36l-.12-.24-.12-.24-.12-.24-.24-.24-.36-.12-.24-.12h-4.45l-.36.12-.24.12-.24.24-.12.24-.12.24-.12.24-.12.36v.36l.12.36.12.24.12.24.12.24.24.24.24.12.36.12h4.45l.24-.12.36-.12.24-.24.12-.24.12-.24.12-.24zm0 6.85v-.36l-.12-.24-.12-.24-.12-.24-.24-.24-.36-.12-.24-.12h-4.45l-.36.12-.24.12-.24.24-.12.24-.12.24-.12.24-.12.36v.36l.12.36.12.24.12.25.12.24.24.24.24.12.36.12h4.45l.24-.12.36-.12.24-.24.12-.24.12-.24.12-.24zm118.08-20.08v-.36l-.12-.24-.12-.24-.12-.24-.24-.24-.24-.12-.36-.12h-4.45l-.36.12-.24.12-.25.24-.12.24-.12.24-.12.24v1.08l.12.24.12.24.12.25.25.24.24.12.36.12h4.45l.36-.12.24-.12.24-.24.12-.24.12-.24.12-.25zm0 6.62v-.36l-.12-.24-.12-.24-.12-.24-.24-.24-.24-.13-.36-.12h-4.45l-.36.12-.24.12-.25.24-.12.25-.12.24-.12.24v1.08l.12.24.12.24.12.24.25.24.24.12.36.12h4.45l.36-.12.24-.12.24-.24.12-.24.12-.24.12-.24zm0 6.61v-.36l-.12-.24-.12-.24-.12-.24-.24-.24-.24-.12-.36-.12h-4.45l-.36.12-.24.12-.25.24-.12.24-.12.24-.12.24v1.08l.12.24.12.24.12.24.25.24.24.12.36.12h4.45l.36-.12.24-.12.24-.24.12-.24.12-.24.12-.24zm0 6.85v-.36l-.12-.24-.12-.24-.12-.24-.24-.24-.24-.12-.36-.12h-4.45l-.36.12-.24.12-.25.24-.12.24-.12.24-.12.24v1.08l.12.24.12.25.12.24.25.24.24.12.36.12h4.45l.36-.12.24-.12.24-.24.12-.24.12-.24.12-.24zM63.25 25.5l-.12-.36-.12-.24-.12-.24-.12-.24-.24-.24-.24-.12-.37-.12h-4.44l-.24.12-.37.12-.23.24-.13.24-.12.24-.12.24v1.08l.12.24.12.24.12.24.24.24.36.12.25.12h4.44l.36-.12.25-.12.24-.24.12-.24.12-.24.12-.24.12-.36zm0 7.34-.12-.36-.12-.24-.12-.24-.12-.24-.24-.25-.24-.12-.36-.12h-4.45l-.24.12-.36.12-.24.24-.12.24-.13.25-.12.24v1.08l.12.24.12.24.12.24.24.24.37.12.24.12h4.45l.35-.12.25-.12.24-.24.12-.24.12-.24.12-.24.12-.36zm0 7.33-.12-.36-.12-.24-.12-.24-.12-.24-.24-.24-.24-.12-.36-.12h-4.45l-.24.12-.36.12-.24.24-.12.24-.13.24-.12.24v1.08l.12.24.12.24.12.24.24.24.37.12.24.12h4.45l.35-.12.25-.12.24-.24.12-.24.12-.24.12-.24.12-.36zm0 7.58-.12-.36-.12-.24-.12-.25-.12-.24-.24-.24-.24-.12-.36-.12h-4.45l-.24.12-.36.12-.24.24-.12.24-.13.24-.12.24v1.09l.12.24.12.24.12.24.24.24.37.12.24.12h4.45l.35-.12.25-.12.24-.24.12-.24.12-.24.12-.24.12-.36zm44.37-14.91v-.36l-.12-.24-.12-.24-.12-.24-.24-.25-.36-.12-.25-.12h-4.44l-.36.12-.25.12-.24.24-.12.24-.24.25v.24l-.12.36v.36l.12.36v.24l.24.24.12.24.24.24.25.12.36.12h4.44l.25-.12.36-.12.24-.24.12-.24.12-.24.12-.24zm0 14.9v-.35l-.12-.24-.12-.25-.12-.24-.24-.24-.36-.12-.25-.12h-4.44l-.36.12-.25.12-.24.24-.12.24-.24.24v.24l-.12.37v.36l.12.36v.24l.24.24.12.24.24.24.25.12.36.12h4.44l.25-.12.36-.12.24-.24.12-.24.12-.24.12-.24zm18.4-14.91-.13-.36-.12-.24-.12-.24-.12-.24-.24-.25-.24-.12-.36-.12h-4.45l-.36.12-.24.12-.24.24-.12.24-.12.25-.12.24v1.08l.12.24.12.24.12.24.24.24.24.12.36.12h4.45l.36-.12.24-.12.24-.24.12-.24.12-.24.12-.24.12-.36zm0 14.9-.13-.35-.12-.24-.12-.25-.12-.24-.24-.24-.24-.12-.36-.12h-4.45l-.36.12-.24.12-.24.24-.12.24-.12.24-.12.24v1.09l.12.24.12.24.12.24.24.24.24.12.36.12h4.45l.36-.12.24-.12.24-.24.12-.24.12-.24.12-.24.12-.36zm18.15-14.9-.12-.36v-.24l-.24-.24-.12-.24-.24-.25-.24-.12-.36-.12h-4.45l-.24.12-.36.12-.24.24-.12.24-.12.25-.12.24v1.08l.12.24.12.24.12.24.24.24.36.12.24.12h4.45l.36-.12.24-.12.24-.24.12-.24.24-.24v-.24l.12-.36zm0 14.9-.12-.35v-.24l-.24-.25-.12-.24-.24-.24-.24-.12-.36-.12h-4.45l-.24.12-.36.12-.24.24-.12.24-.12.24-.12.24v1.09l.12.24.12.24.12.24.24.24.36.12.24.12h4.45l.36-.12.24-.12.24-.24.12-.24.24-.24v-.24l.12-.36zm18.16 0v-.35l-.12-.24-.12-.25-.12-.24-.24-.24-.24-.12-.36-.12h-4.45l-.37.12-.24.12-.24.24-.12.24-.12.24-.12.24-.12.37v.36l.12.36.12.24.12.24.12.24.24.24.24.12.37.12h4.44l.36-.12.25-.12.24-.24.12-.24.12-.24.12-.24z"/></g><g font-family="Arial" font-size="1.32" font-weight="400"><text x="8.9" y="7.2" style="white-space:pre" transform="translate(268.46 -162.696)scale(1.8764)"><![CDATA[STATUS]]></text><text x="9.38" y="9.01" style="white-space:pre" transform="translate(268.46 -162.696)scale(1.8764)"><![CDATA[ALARM]]></text><text x="10.7" y="10.81" style="white-space:pre" transform="translate(268.46 -162.696)scale(1.8764)"><![CDATA[TEMP]]></text><text x="9.38" y="12.61" style="white-space:pre" transform="translate(268.46 -162.696)scale(1.8764)"><![CDATA[POWER]]></text><text x="22.13" y="12.61" style="white-space:pre" transform="translate(268.46 -162.696)scale(1.8764)"><![CDATA[PSU]]></text><text x="22" y="9.01" style="white-space:pre" transform="translate(268.46 -162.696)scale(1.8764)"><![CDATA[FAN]]></text><text x="26.69" y="10.69" style="white-space:pre" transform="translate(268.46 -162.696)scale(1.8764)"><![CDATA[1]]></text><text x="26.69" y="7.08" style="white-space:pre" transform="translate(268.46 -162.696)scale(1.8764)"><![CDATA[1]]></text><text x="31.26" y="10.69" style="white-space:pre" transform="translate(268.46 -162.696)scale(1.8764)"><![CDATA[2]]></text><text x="31.26" y="7.08" style="white-space:pre" transform="translate(268.46 -162.696)scale(1.8764)"><![CDATA[2]]></text><text x="35.83" y="10.69" style="white-space:pre" transform="translate(268.46 -162.696)scale(1.8764)"><![CDATA[3]]></text><text x="35.83" y="7.08" style="white-space:pre" transform="translate(268.46 -162.696)scale(1.8764)"><![CDATA[3]]></text><text x="40.4" y="10.69" style="white-space:pre" transform="translate(268.46 -162.696)scale(1.8764)"><![CDATA[4]]></text></g><path fill="#83ff00" stroke="#000" stroke-linecap="round" stroke-linejoin="round" stroke-width=".12" d="M6.61 7.22h6.86v2.88H6.6z" transform="matrix(.4648 0 0 .4656 351.572 -155.055)"/><path fill="#83ff00" stroke="#000" stroke-linecap="round" stroke-linejoin="round" stroke-width=".12" d="M6.61 7.22h6.86v2.88H6.6z" transform="matrix(.4648 0 0 .4656 362.628 -155.055)"/><g font-family="Arial" font-size="1.32" font-weight="400"><text x="81.16" y="7.2" style="white-space:pre" transform="translate(268.46 -162.696)scale(1.8764)"><![CDATA[3]]></text><text x="81.16" y="9.01" style="white-space:pre" transform="translate(268.46 -162.696)scale(1.8764)"><![CDATA[1 I/O]]></text><text x="81.16" y="10.81" style="white-space:pre" transform="translate(268.46 -162.696)scale(1.8764)"><![CDATA[2 I/O]]></text><text x="81.16" y="12.61" style="white-space:pre" transform="translate(268.46 -162.696)scale(1.8764)"><![CDATA[4]]></text><text x="110.5" y="7.2" style="white-space:pre" transform="translate(268.46 -162.696)scale(1.8764)"><![CDATA[3]]></text><text x="110.5" y="9.01" style="white-space:pre" transform="translate(268.46 -162.696)scale(1.8764)"><![CDATA[1 I/O]]></text><text x="110.5" y="10.81" style="white-space:pre" transform="translate(268.46 -162.696)scale(1.8764)"><![CDATA[2 I/O]]></text><text x="110.5" y="12.61" style="white-space:pre" transform="translate(268.46 -162.696)scale(1.8764)"><![CDATA[4]]></text><text x="73.35" y="16.1" style="white-space:pre" transform="translate(268.46 -162.696)scale(1.8764)"><![CDATA[CONSOLE 1]]></text><text x="103.41" y="16.1" style="white-space:pre" transform="translate(268.46 -162.696)scale(1.8764)"><![CDATA[CONSOLE 2]]></text><text x="47.74" y="16.1" style="white-space:pre" transform="translate(268.46 -162.696)scale(1.8764)"><![CDATA[MGMT]]></text></g><path stroke="#161616" stroke-linecap="round" stroke-linejoin="round" stroke-width=".12" d="M2.89 1.32V19.6h7.7v4.45h3.12v4.33h9.02v-4.33h3.24V19.6h7.7V1.32z" transform="matrix(.4688 0 0 -.4652 353.125 -138.617)"/><path stroke="#0a0a0a" stroke-linecap="round" stroke-linejoin="round" stroke-width=".12" d="M10.1 6.5v30.3h10.1v6.25h25.01v-6.26h10.22V6.5z" transform="matrix(.3188 0 0 .3204 385.27 -151.24)"/><path stroke="#0a0a0a" stroke-linecap="round" stroke-linejoin="round" stroke-width=".12" d="M10.1 6.5v30.3h10.1v6.25h25.01v-6.26h10.22V6.5z" transform="matrix(.3188 0 0 .3204 440.548 -151.24)"/><g font-family="Arial" font-size="3.25" font-weight="400"><text x="290.39" y="30.1" style="white-space:pre" transform="matrix(4 0 0 4 0 -159.988)"><![CDATA[3]]></text><text x="290.39" y="61.96" style="white-space:pre" transform="matrix(4 0 0 4 0 -159.988)"><![CDATA[1]]></text><text x="290.39" y="122.32" style="white-space:pre" transform="matrix(4 0 0 4 0 -159.988)"><![CDATA[4]]></text></g><path fill="none" stroke="#000" stroke-linecap="round" stroke-linejoin="round" stroke-width=".12" d="M2.04 2.29h4.21v4.2h-4.2z" transform="matrix(.4732 0 0 .4672 494.612 115.681)"/><g font-family="Arial" font-size="3.25" font-weight="400"><text x="31.98" y="30.1" style="white-space:pre" transform="matrix(4 0 0 4 0 -159.988)"><![CDATA[3]]></text><text x="31.98" y="61.96" style="white-space:pre" transform="matrix(4 0 0 4 0 -159.988)"><![CDATA[1]]></text><text x="31.98" y="122.32" style="white-space:pre" transform="matrix(4 0 0 4 0 -159.988)"><![CDATA[4]]></text></g></svg>