<svg xmlns="http://www.w3.org/2000/svg" xmlns:xlink="http://www.w3.org/1999/xlink" version="1.1" width="3.4032000000" height="0.6440000000" viewBox="0 0 61.2567 11.5937">
  <title><![CDATA[FG-70G-POE]]></title>
  <g transform=" scale(4.000000) ">
    <!--converted by libvisio2svg-->
    <g transform=" translate(0.000000,0.000000) ">
      <!--emf-blob start-->
      <g transform="translate(-0.0000, -0.0000)">
        <path d="M 61.1394,0.2526 L 61.1394,0.2105 L 61.1254,0.1684 L 61.0973,0.1263 L 61.0692,0.0983 L 61.0411,0.0702 L 60.9990,0.0421 L 60.9569,0.0281 L 60.9148,0.0281 L 0.2528,0.0281 L 0.2106,0.0281 L 0.1685,0.0421 L 0.1264,0.0702 L 0.0983,0.0983 L 0.0702,0.1263 L 0.0421,0.1684 L 0.0281,0.2105 L 0.0281,0.2526 L 0.0281,11.3130 L 0.0281,11.3551 L 0.0421,11.3972 L 0.0702,11.4393 L 0.0983,11.4674 L 0.1264,11.4954 L 0.1685,11.5235 L 0.2106,11.5376 L 0.2528,11.5376 L 60.9148,11.5376 L 60.9569,11.5376 L 60.9990,11.5235 L 61.0411,11.4954 L 61.0692,11.4674 L 61.0973,11.4393 L 61.1254,11.3972 L 61.1394,11.3551 L 61.1394,11.3130 L 61.1394,0.2526 Z" stroke="#000000" stroke-width="0.1195" stroke-linecap="round" stroke-linejoin="round" fill="#EFEFEF"/>
        <path d="M 0.3511,0.0281 L 60.8165,0.0281 L 60.9429,0.2807 L 61.1394,0.3509 L 61.1394,11.2147 L 60.9429,11.2849 L 60.8165,11.5376 L 0.3511,11.5376 L 0.2247,11.2849 L 0.0281,11.2147 L 0.0281,0.3509 L 0.2247,0.2807 L 0.3511,0.0281 Z" stroke="#000000" stroke-width="0.1195" stroke-linecap="round" stroke-linejoin="round" fill="#EFEFEF"/>
        <path d="M 0.2668,0.1965 L 0.3511,0.0281 L 60.8165,0.0281 L 60.9007,0.1965 L 0.2668,0.1965 Z" stroke="#FFFFFF" stroke-width="0.1195" stroke-linecap="round" stroke-linejoin="round" fill="#FFFFFF"/>
        <path d="M 0.2668,11.3691 L 0.3511,11.5376 L 60.8165,11.5376 L 60.9007,11.3691 L 0.2668,11.3691 Z" stroke="#D8D8D8" stroke-width="0.1195" stroke-linecap="round" stroke-linejoin="round" fill="#D8D8D8"/>
        <path d="M 61.1394,0.3509 L 60.9429,0.2807 L 60.8165,0.0281 L 0.3511,0.0281 L 0.2247,0.2807 L 0.0281,0.3509 L 0.0281,11.2147 L 0.2247,11.2849 L 0.3511,11.5376 L 60.8165,11.5376 L 60.9429,11.2849 L 61.1394,11.2147 " stroke="#000000" stroke-width="0.1195" stroke-linecap="round" stroke-linejoin="round" fill="none"/>
        <path d="M 48.1645,2.0633 L 48.1645,2.0212 L 48.1505,1.9791 L 48.1224,1.9510 L 48.1083,1.9229 L 48.0662,1.8949 L 48.0381,1.8668 L 47.9960,1.8527 L 47.9539,1.8527 L 47.1114,1.8527 L 47.0692,1.8527 L 47.0271,1.8668 L 46.9990,1.8949 L 46.9709,1.9229 L 46.9428,1.9510 L 46.9148,1.9791 L 46.9007,2.0212 L 46.9007,2.0633 L 46.9007,2.0773 L 46.9007,2.1194 L 46.9148,2.1615 L 46.9428,2.1896 L 46.9709,2.2317 L 46.9990,2.2458 L 47.0271,2.2738 L 47.0692,2.2879 L 47.1114,2.2879 L 47.9539,2.2879 L 47.9960,2.2879 L 48.0381,2.2738 L 48.0662,2.2458 L 48.1083,2.2317 L 48.1224,2.1896 L 48.1505,2.1615 L 48.1645,2.1194 L 48.1645,2.0773 L 48.1645,2.0633 Z" stroke="#7F7F7F" stroke-width="0.1195" stroke-linecap="round" stroke-linejoin="round" fill="#000000"/>
        <path d="M 50.0883,2.0633 L 50.0883,2.0212 L 50.0742,1.9791 L 50.0462,1.9510 L 50.0321,1.9229 L 49.9900,1.8949 L 49.9619,1.8668 L 49.9198,1.8527 L 49.8777,1.8527 L 49.0351,1.8527 L 48.9930,1.8527 L 48.9509,1.8668 L 48.9228,1.8949 L 48.8947,1.9229 L 48.8666,1.9510 L 48.8385,1.9791 L 48.8245,2.0212 L 48.8245,2.0633 L 48.8245,2.0773 L 48.8245,2.1194 L 48.8385,2.1615 L 48.8666,2.1896 L 48.8947,2.2317 L 48.9228,2.2458 L 48.9509,2.2738 L 48.9930,2.2879 L 49.0351,2.2879 L 49.8777,2.2879 L 49.9198,2.2879 L 49.9619,2.2738 L 49.9900,2.2458 L 50.0321,2.2317 L 50.0462,2.1896 L 50.0742,2.1615 L 50.0883,2.1194 L 50.0883,2.0773 L 50.0883,2.0633 Z" stroke="#7F7F7F" stroke-width="0.1195" stroke-linecap="round" stroke-linejoin="round" fill="#000000"/>
        <path d="M 52.0121,2.0633 L 52.0121,2.0212 L 51.9980,1.9791 L 51.9699,1.9510 L 51.9559,1.9229 L 51.9138,1.8949 L 51.8857,1.8668 L 51.8436,1.8527 L 51.8014,1.8527 L 50.9589,1.8527 L 50.9168,1.8527 L 50.8746,1.8668 L 50.8466,1.8949 L 50.8185,1.9229 L 50.7904,1.9510 L 50.7623,1.9791 L 50.7483,2.0212 L 50.7483,2.0633 L 50.7483,2.0773 L 50.7483,2.1194 L 50.7623,2.1615 L 50.7904,2.1896 L 50.8185,2.2317 L 50.8466,2.2458 L 50.8746,2.2738 L 50.9168,2.2879 L 50.9589,2.2879 L 51.8014,2.2879 L 51.8436,2.2879 L 51.8857,2.2738 L 51.9138,2.2458 L 51.9559,2.2317 L 51.9699,2.1896 L 51.9980,2.1615 L 52.0121,2.1194 L 52.0121,2.0773 L 52.0121,2.0633 Z" stroke="#7F7F7F" stroke-width="0.1195" stroke-linecap="round" stroke-linejoin="round" fill="#000000"/>
        <path d="M 48.1645,3.2844 L 48.1645,3.2423 L 48.1505,3.2002 L 48.1224,3.1721 L 48.1083,3.1441 L 48.0662,3.1160 L 48.0381,3.0879 L 47.9960,3.0739 L 47.9539,3.0739 L 47.1114,3.0739 L 47.0692,3.0739 L 47.0271,3.0879 L 46.9990,3.1160 L 46.9709,3.1441 L 46.9428,3.1721 L 46.9148,3.2002 L 46.9007,3.2423 L 46.9007,3.2844 L 46.9007,3.2984 L 46.9007,3.3406 L 46.9148,3.3827 L 46.9428,3.4107 L 46.9709,3.4528 L 46.9990,3.4669 L 47.0271,3.4950 L 47.0692,3.5090 L 47.1114,3.5090 L 47.9539,3.5090 L 47.9960,3.5090 L 48.0381,3.4950 L 48.0662,3.4669 L 48.1083,3.4528 L 48.1224,3.4107 L 48.1505,3.3827 L 48.1645,3.3406 L 48.1645,3.2984 L 48.1645,3.2844 Z" stroke="#7F7F7F" stroke-width="0.1195" stroke-linecap="round" stroke-linejoin="round" fill="#000000"/>
        <path d="M 50.0883,3.2844 L 50.0883,3.2423 L 50.0742,3.2002 L 50.0462,3.1721 L 50.0321,3.1441 L 49.9900,3.1160 L 49.9619,3.0879 L 49.9198,3.0739 L 49.8777,3.0739 L 49.0351,3.0739 L 48.9930,3.0739 L 48.9509,3.0879 L 48.9228,3.1160 L 48.8947,3.1441 L 48.8666,3.1721 L 48.8385,3.2002 L 48.8245,3.2423 L 48.8245,3.2844 L 48.8245,3.2984 L 48.8245,3.3406 L 48.8385,3.3827 L 48.8666,3.4107 L 48.8947,3.4528 L 48.9228,3.4669 L 48.9509,3.4950 L 48.9930,3.5090 L 49.0351,3.5090 L 49.8777,3.5090 L 49.9198,3.5090 L 49.9619,3.4950 L 49.9900,3.4669 L 50.0321,3.4528 L 50.0462,3.4107 L 50.0742,3.3827 L 50.0883,3.3406 L 50.0883,3.2984 L 50.0883,3.2844 Z" stroke="#7F7F7F" stroke-width="0.1195" stroke-linecap="round" stroke-linejoin="round" fill="#000000"/>
        <path d="M 52.0121,3.2844 L 52.0121,3.2423 L 51.9980,3.2002 L 51.9699,3.1721 L 51.9559,3.1441 L 51.9138,3.1160 L 51.8857,3.0879 L 51.8436,3.0739 L 51.8014,3.0739 L 50.9589,3.0739 L 50.9168,3.0739 L 50.8746,3.0879 L 50.8466,3.1160 L 50.8185,3.1441 L 50.7904,3.1721 L 50.7623,3.2002 L 50.7483,3.2423 L 50.7483,3.2844 L 50.7483,3.2984 L 50.7483,3.3406 L 50.7623,3.3827 L 50.7904,3.4107 L 50.8185,3.4528 L 50.8466,3.4669 L 50.8746,3.4950 L 50.9168,3.5090 L 50.9589,3.5090 L 51.8014,3.5090 L 51.8436,3.5090 L 51.8857,3.4950 L 51.9138,3.4669 L 51.9559,3.4528 L 51.9699,3.4107 L 51.9980,3.3827 L 52.0121,3.3406 L 52.0121,3.2984 L 52.0121,3.2844 Z" stroke="#7F7F7F" stroke-width="0.1195" stroke-linecap="round" stroke-linejoin="round" fill="#000000"/>
        <path d="M 48.1645,4.4915 L 48.1645,4.4494 L 48.1505,4.4073 L 48.1224,4.3792 L 48.1083,4.3511 L 48.0662,4.3231 L 48.0381,4.2950 L 47.9960,4.2810 L 47.9539,4.2810 L 47.1114,4.2810 L 47.0692,4.2810 L 47.0271,4.2950 L 46.9990,4.3231 L 46.9709,4.3511 L 46.9428,4.3792 L 46.9148,4.4073 L 46.9007,4.4494 L 46.9007,4.4915 L 46.9007,4.5055 L 46.9007,4.5476 L 46.9148,4.5898 L 46.9428,4.6178 L 46.9709,4.6599 L 46.9990,4.6740 L 47.0271,4.7020 L 47.0692,4.7161 L 47.1114,4.7161 L 47.9539,4.7161 L 47.9960,4.7161 L 48.0381,4.7020 L 48.0662,4.6740 L 48.1083,4.6599 L 48.1224,4.6178 L 48.1505,4.5898 L 48.1645,4.5476 L 48.1645,4.5055 L 48.1645,4.4915 Z" stroke="#7F7F7F" stroke-width="0.1195" stroke-linecap="round" stroke-linejoin="round" fill="#000000"/>
        <path d="M 50.0883,4.4915 L 50.0883,4.4494 L 50.0742,4.4073 L 50.0462,4.3792 L 50.0321,4.3511 L 49.9900,4.3231 L 49.9619,4.2950 L 49.9198,4.2810 L 49.8777,4.2810 L 49.0351,4.2810 L 48.9930,4.2810 L 48.9509,4.2950 L 48.9228,4.3231 L 48.8947,4.3511 L 48.8666,4.3792 L 48.8385,4.4073 L 48.8245,4.4494 L 48.8245,4.4915 L 48.8245,4.5055 L 48.8245,4.5476 L 48.8385,4.5898 L 48.8666,4.6178 L 48.8947,4.6599 L 48.9228,4.6740 L 48.9509,4.7020 L 48.9930,4.7161 L 49.0351,4.7161 L 49.8777,4.7161 L 49.9198,4.7161 L 49.9619,4.7020 L 49.9900,4.6740 L 50.0321,4.6599 L 50.0462,4.6178 L 50.0742,4.5898 L 50.0883,4.5476 L 50.0883,4.5055 L 50.0883,4.4915 Z" stroke="#7F7F7F" stroke-width="0.1195" stroke-linecap="round" stroke-linejoin="round" fill="#000000"/>
        <path d="M 52.0121,4.4915 L 52.0121,4.4494 L 51.9980,4.4073 L 51.9699,4.3792 L 51.9559,4.3511 L 51.9138,4.3231 L 51.8857,4.2950 L 51.8436,4.2810 L 51.8014,4.2810 L 50.9589,4.2810 L 50.9168,4.2810 L 50.8746,4.2950 L 50.8466,4.3231 L 50.8185,4.3511 L 50.7904,4.3792 L 50.7623,4.4073 L 50.7483,4.4494 L 50.7483,4.4915 L 50.7483,4.5055 L 50.7483,4.5476 L 50.7623,4.5898 L 50.7904,4.6178 L 50.8185,4.6599 L 50.8466,4.6740 L 50.8746,4.7020 L 50.9168,4.7161 L 50.9589,4.7161 L 51.8014,4.7161 L 51.8436,4.7161 L 51.8857,4.7020 L 51.9138,4.6740 L 51.9559,4.6599 L 51.9699,4.6178 L 51.9980,4.5898 L 52.0121,4.5476 L 52.0121,4.5055 L 52.0121,4.4915 Z" stroke="#7F7F7F" stroke-width="0.1195" stroke-linecap="round" stroke-linejoin="round" fill="#000000"/>
        <path d="M 48.1645,5.7126 L 48.1645,5.6705 L 48.1505,5.6284 L 48.1224,5.6003 L 48.1083,5.5723 L 48.0662,5.5442 L 48.0381,5.5161 L 47.9960,5.5021 L 47.9539,5.5021 L 47.1114,5.5021 L 47.0692,5.5021 L 47.0271,5.5161 L 46.9990,5.5442 L 46.9709,5.5723 L 46.9428,5.6003 L 46.9148,5.6284 L 46.9007,5.6705 L 46.9007,5.7126 L 46.9007,5.7267 L 46.9007,5.7688 L 46.9148,5.8109 L 46.9428,5.8390 L 46.9709,5.8811 L 46.9990,5.8951 L 47.0271,5.9232 L 47.0692,5.9372 L 47.1114,5.9372 L 47.9539,5.9372 L 47.9960,5.9372 L 48.0381,5.9232 L 48.0662,5.8951 L 48.1083,5.8811 L 48.1224,5.8390 L 48.1505,5.8109 L 48.1645,5.7688 L 48.1645,5.7267 L 48.1645,5.7126 Z" stroke="#7F7F7F" stroke-width="0.1195" stroke-linecap="round" stroke-linejoin="round" fill="#000000"/>
        <path d="M 50.0883,5.7126 L 50.0883,5.6705 L 50.0742,5.6284 L 50.0462,5.6003 L 50.0321,5.5723 L 49.9900,5.5442 L 49.9619,5.5161 L 49.9198,5.5021 L 49.8777,5.5021 L 49.0351,5.5021 L 48.9930,5.5021 L 48.9509,5.5161 L 48.9228,5.5442 L 48.8947,5.5723 L 48.8666,5.6003 L 48.8385,5.6284 L 48.8245,5.6705 L 48.8245,5.7126 L 48.8245,5.7267 L 48.8245,5.7688 L 48.8385,5.8109 L 48.8666,5.8390 L 48.8947,5.8811 L 48.9228,5.8951 L 48.9509,5.9232 L 48.9930,5.9372 L 49.0351,5.9372 L 49.8777,5.9372 L 49.9198,5.9372 L 49.9619,5.9232 L 49.9900,5.8951 L 50.0321,5.8811 L 50.0462,5.8390 L 50.0742,5.8109 L 50.0883,5.7688 L 50.0883,5.7267 L 50.0883,5.7126 Z" stroke="#7F7F7F" stroke-width="0.1195" stroke-linecap="round" stroke-linejoin="round" fill="#000000"/>
        <path d="M 52.0121,5.7126 L 52.0121,5.6705 L 51.9980,5.6284 L 51.9699,5.6003 L 51.9559,5.5723 L 51.9138,5.5442 L 51.8857,5.5161 L 51.8436,5.5021 L 51.8014,5.5021 L 50.9589,5.5021 L 50.9168,5.5021 L 50.8746,5.5161 L 50.8466,5.5442 L 50.8185,5.5723 L 50.7904,5.6003 L 50.7623,5.6284 L 50.7483,5.6705 L 50.7483,5.7126 L 50.7483,5.7267 L 50.7483,5.7688 L 50.7623,5.8109 L 50.7904,5.8390 L 50.8185,5.8811 L 50.8466,5.8951 L 50.8746,5.9232 L 50.9168,5.9372 L 50.9589,5.9372 L 51.8014,5.9372 L 51.8436,5.9372 L 51.8857,5.9232 L 51.9138,5.8951 L 51.9559,5.8811 L 51.9699,5.8390 L 51.9980,5.8109 L 52.0121,5.7688 L 52.0121,5.7267 L 52.0121,5.7126 Z" stroke="#7F7F7F" stroke-width="0.1195" stroke-linecap="round" stroke-linejoin="round" fill="#000000"/>
        <path d="M 48.1645,6.9338 L 48.1645,6.8917 L 48.1505,6.8495 L 48.1224,6.8215 L 48.1083,6.7934 L 48.0662,6.7653 L 48.0381,6.7373 L 47.9960,6.7232 L 47.9539,6.7232 L 47.1114,6.7232 L 47.0692,6.7232 L 47.0271,6.7373 L 46.9990,6.7653 L 46.9709,6.7934 L 46.9428,6.8215 L 46.9148,6.8495 L 46.9007,6.8917 L 46.9007,6.9338 L 46.9007,6.9478 L 46.9007,6.9899 L 46.9148,7.0320 L 46.9428,7.0601 L 46.9709,7.1022 L 46.9990,7.1162 L 47.0271,7.1443 L 47.0692,7.1583 L 47.1114,7.1583 L 47.9539,7.1583 L 47.9960,7.1583 L 48.0381,7.1443 L 48.0662,7.1162 L 48.1083,7.1022 L 48.1224,7.0601 L 48.1505,7.0320 L 48.1645,6.9899 L 48.1645,6.9478 L 48.1645,6.9338 Z" stroke="#7F7F7F" stroke-width="0.1195" stroke-linecap="round" stroke-linejoin="round" fill="#000000"/>
        <path d="M 50.0883,6.9338 L 50.0883,6.8917 L 50.0742,6.8495 L 50.0462,6.8215 L 50.0321,6.7934 L 49.9900,6.7653 L 49.9619,6.7373 L 49.9198,6.7232 L 49.8777,6.7232 L 49.0351,6.7232 L 48.9930,6.7232 L 48.9509,6.7373 L 48.9228,6.7653 L 48.8947,6.7934 L 48.8666,6.8215 L 48.8385,6.8495 L 48.8245,6.8917 L 48.8245,6.9338 L 48.8245,6.9478 L 48.8245,6.9899 L 48.8385,7.0320 L 48.8666,7.0601 L 48.8947,7.1022 L 48.9228,7.1162 L 48.9509,7.1443 L 48.9930,7.1583 L 49.0351,7.1583 L 49.8777,7.1583 L 49.9198,7.1583 L 49.9619,7.1443 L 49.9900,7.1162 L 50.0321,7.1022 L 50.0462,7.0601 L 50.0742,7.0320 L 50.0883,6.9899 L 50.0883,6.9478 L 50.0883,6.9338 Z" stroke="#7F7F7F" stroke-width="0.1195" stroke-linecap="round" stroke-linejoin="round" fill="#000000"/>
        <path d="M 52.0121,6.9338 L 52.0121,6.8917 L 51.9980,6.8495 L 51.9699,6.8215 L 51.9559,6.7934 L 51.9138,6.7653 L 51.8857,6.7373 L 51.8436,6.7232 L 51.8014,6.7232 L 50.9589,6.7232 L 50.9168,6.7232 L 50.8746,6.7373 L 50.8466,6.7653 L 50.8185,6.7934 L 50.7904,6.8215 L 50.7623,6.8495 L 50.7483,6.8917 L 50.7483,6.9338 L 50.7483,6.9478 L 50.7483,6.9899 L 50.7623,7.0320 L 50.7904,7.0601 L 50.8185,7.1022 L 50.8466,7.1162 L 50.8746,7.1443 L 50.9168,7.1583 L 50.9589,7.1583 L 51.8014,7.1583 L 51.8436,7.1583 L 51.8857,7.1443 L 51.9138,7.1162 L 51.9559,7.1022 L 51.9699,7.0601 L 51.9980,7.0320 L 52.0121,6.9899 L 52.0121,6.9478 L 52.0121,6.9338 Z" stroke="#7F7F7F" stroke-width="0.1195" stroke-linecap="round" stroke-linejoin="round" fill="#000000"/>
        <path d="M 48.1645,8.1409 L 48.1645,8.0987 L 48.1505,8.0566 L 48.1224,8.0286 L 48.1083,8.0005 L 48.0662,7.9724 L 48.0381,7.9444 L 47.9960,7.9303 L 47.9539,7.9303 L 47.1114,7.9303 L 47.0692,7.9303 L 47.0271,7.9444 L 46.9990,7.9724 L 46.9709,8.0005 L 46.9428,8.0286 L 46.9148,8.0566 L 46.9007,8.0987 L 46.9007,8.1409 L 46.9007,8.1549 L 46.9007,8.1970 L 46.9148,8.2391 L 46.9428,8.2672 L 46.9709,8.3093 L 46.9990,8.3233 L 47.0271,8.3514 L 47.0692,8.3654 L 47.1114,8.3654 L 47.9539,8.3654 L 47.9960,8.3654 L 48.0381,8.3514 L 48.0662,8.3233 L 48.1083,8.3093 L 48.1224,8.2672 L 48.1505,8.2391 L 48.1645,8.1970 L 48.1645,8.1549 L 48.1645,8.1409 Z" stroke="#7F7F7F" stroke-width="0.1195" stroke-linecap="round" stroke-linejoin="round" fill="#000000"/>
        <path d="M 50.0883,8.1409 L 50.0883,8.0987 L 50.0742,8.0566 L 50.0462,8.0286 L 50.0321,8.0005 L 49.9900,7.9724 L 49.9619,7.9444 L 49.9198,7.9303 L 49.8777,7.9303 L 49.0351,7.9303 L 48.9930,7.9303 L 48.9509,7.9444 L 48.9228,7.9724 L 48.8947,8.0005 L 48.8666,8.0286 L 48.8385,8.0566 L 48.8245,8.0987 L 48.8245,8.1409 L 48.8245,8.1549 L 48.8245,8.1970 L 48.8385,8.2391 L 48.8666,8.2672 L 48.8947,8.3093 L 48.9228,8.3233 L 48.9509,8.3514 L 48.9930,8.3654 L 49.0351,8.3654 L 49.8777,8.3654 L 49.9198,8.3654 L 49.9619,8.3514 L 49.9900,8.3233 L 50.0321,8.3093 L 50.0462,8.2672 L 50.0742,8.2391 L 50.0883,8.1970 L 50.0883,8.1549 L 50.0883,8.1409 Z" stroke="#7F7F7F" stroke-width="0.1195" stroke-linecap="round" stroke-linejoin="round" fill="#000000"/>
        <path d="M 52.0121,8.1409 L 52.0121,8.0987 L 51.9980,8.0566 L 51.9699,8.0286 L 51.9559,8.0005 L 51.9138,7.9724 L 51.8857,7.9444 L 51.8436,7.9303 L 51.8014,7.9303 L 50.9589,7.9303 L 50.9168,7.9303 L 50.8746,7.9444 L 50.8466,7.9724 L 50.8185,8.0005 L 50.7904,8.0286 L 50.7623,8.0566 L 50.7483,8.0987 L 50.7483,8.1409 L 50.7483,8.1549 L 50.7483,8.1970 L 50.7623,8.2391 L 50.7904,8.2672 L 50.8185,8.3093 L 50.8466,8.3233 L 50.8746,8.3514 L 50.9168,8.3654 L 50.9589,8.3654 L 51.8014,8.3654 L 51.8436,8.3654 L 51.8857,8.3514 L 51.9138,8.3233 L 51.9559,8.3093 L 51.9699,8.2672 L 51.9980,8.2391 L 52.0121,8.1970 L 52.0121,8.1549 L 52.0121,8.1409 Z" stroke="#7F7F7F" stroke-width="0.1195" stroke-linecap="round" stroke-linejoin="round" fill="#000000"/>
        <path d="M 48.1645,9.3620 L 48.1645,9.3199 L 48.1505,9.2778 L 48.1224,9.2497 L 48.1083,9.2216 L 48.0662,9.1936 L 48.0381,9.1655 L 47.9960,9.1514 L 47.9539,9.1514 L 47.1114,9.1514 L 47.0692,9.1514 L 47.0271,9.1655 L 46.9990,9.1936 L 46.9709,9.2216 L 46.9428,9.2497 L 46.9148,9.2778 L 46.9007,9.3199 L 46.9007,9.3620 L 46.9007,9.3760 L 46.9007,9.4181 L 46.9148,9.4602 L 46.9428,9.4883 L 46.9709,9.5304 L 46.9990,9.5445 L 47.0271,9.5725 L 47.0692,9.5866 L 47.1114,9.5866 L 47.9539,9.5866 L 47.9960,9.5866 L 48.0381,9.5725 L 48.0662,9.5445 L 48.1083,9.5304 L 48.1224,9.4883 L 48.1505,9.4602 L 48.1645,9.4181 L 48.1645,9.3760 L 48.1645,9.3620 Z" stroke="#7F7F7F" stroke-width="0.1195" stroke-linecap="round" stroke-linejoin="round" fill="#000000"/>
        <path d="M 50.0883,9.3620 L 50.0883,9.3199 L 50.0742,9.2778 L 50.0462,9.2497 L 50.0321,9.2216 L 49.9900,9.1936 L 49.9619,9.1655 L 49.9198,9.1514 L 49.8777,9.1514 L 49.0351,9.1514 L 48.9930,9.1514 L 48.9509,9.1655 L 48.9228,9.1936 L 48.8947,9.2216 L 48.8666,9.2497 L 48.8385,9.2778 L 48.8245,9.3199 L 48.8245,9.3620 L 48.8245,9.3760 L 48.8245,9.4181 L 48.8385,9.4602 L 48.8666,9.4883 L 48.8947,9.5304 L 48.9228,9.5445 L 48.9509,9.5725 L 48.9930,9.5866 L 49.0351,9.5866 L 49.8777,9.5866 L 49.9198,9.5866 L 49.9619,9.5725 L 49.9900,9.5445 L 50.0321,9.5304 L 50.0462,9.4883 L 50.0742,9.4602 L 50.0883,9.4181 L 50.0883,9.3760 L 50.0883,9.3620 Z" stroke="#7F7F7F" stroke-width="0.1195" stroke-linecap="round" stroke-linejoin="round" fill="#000000"/>
        <path d="M 52.0121,9.3620 L 52.0121,9.3199 L 51.9980,9.2778 L 51.9699,9.2497 L 51.9559,9.2216 L 51.9138,9.1936 L 51.8857,9.1655 L 51.8436,9.1514 L 51.8014,9.1514 L 50.9589,9.1514 L 50.9168,9.1514 L 50.8746,9.1655 L 50.8466,9.1936 L 50.8185,9.2216 L 50.7904,9.2497 L 50.7623,9.2778 L 50.7483,9.3199 L 50.7483,9.3620 L 50.7483,9.3760 L 50.7483,9.4181 L 50.7623,9.4602 L 50.7904,9.4883 L 50.8185,9.5304 L 50.8466,9.5445 L 50.8746,9.5725 L 50.9168,9.5866 L 50.9589,9.5866 L 51.8014,9.5866 L 51.8436,9.5866 L 51.8857,9.5725 L 51.9138,9.5445 L 51.9559,9.5304 L 51.9699,9.4883 L 51.9980,9.4602 L 52.0121,9.4181 L 52.0121,9.3760 L 52.0121,9.3620 Z" stroke="#7F7F7F" stroke-width="0.1195" stroke-linecap="round" stroke-linejoin="round" fill="#000000"/>
        <path d="M 20.9789,0.8422 L 16.2608,0.8422 L 16.2608,8.8146 L 20.9789,8.8146 L 20.9789,0.8422 Z" stroke="#000000" stroke-width="0.1195" stroke-linecap="round" stroke-linejoin="round" fill="#BFBFBF"/>
        <path d="M 20.6981,0.9825 L 16.5416,0.9825 L 16.5416,4.6880 L 20.6981,4.6880 L 20.6981,0.9825 Z" stroke="#000000" stroke-width="0.1195" stroke-linecap="round" stroke-linejoin="round" fill="#F7F7F7"/>
        <path d="M 20.6981,4.9687 L 16.5416,4.9687 L 16.5416,8.6742 L 20.6981,8.6742 L 20.6981,4.9687 Z" stroke="#000000" stroke-width="0.1195" stroke-linecap="round" stroke-linejoin="round" fill="#F7F7F7"/>
        <path d="M 31.3842,0.8422 L 22.3270,0.8422 L 22.3270,8.8146 L 31.3842,8.8146 L 31.3842,0.8422 Z" stroke="#000000" stroke-width="0.1195" stroke-linecap="round" stroke-linejoin="round" fill="#BFBFBF"/>
        <path d="M 26.7643,0.9825 L 22.6078,0.9825 L 22.6078,4.6880 L 26.7643,4.6880 L 26.7643,0.9825 Z" stroke="#000000" stroke-width="0.1195" stroke-linecap="round" stroke-linejoin="round" fill="#F7F7F7"/>
        <path d="M 26.7643,4.9687 L 22.6078,4.9687 L 22.6078,8.6742 L 26.7643,8.6742 L 26.7643,4.9687 Z" stroke="#000000" stroke-width="0.1195" stroke-linecap="round" stroke-linejoin="round" fill="#F7F7F7"/>
        <path d="M 31.1033,0.9825 L 26.9469,0.9825 L 26.9469,4.6880 L 31.1033,4.6880 L 31.1033,0.9825 Z" stroke="#000000" stroke-width="0.1195" stroke-linecap="round" stroke-linejoin="round" fill="#F7F7F7"/>
        <path d="M 31.1033,4.9687 L 26.9469,4.9687 L 26.9469,8.6742 L 31.1033,8.6742 L 31.1033,4.9687 Z" stroke="#000000" stroke-width="0.1195" stroke-linecap="round" stroke-linejoin="round" fill="#F7F7F7"/>
        <path d="M 44.4574,0.8422 L 35.4002,0.8422 L 35.4002,8.8146 L 44.4574,8.8146 L 44.4574,0.8422 Z" stroke="#000000" stroke-width="0.1195" stroke-linecap="round" stroke-linejoin="round" fill="#BFBFBF"/>
        <path d="M 39.8375,0.9825 L 35.6811,0.9825 L 35.6811,4.6880 L 39.8375,4.6880 L 39.8375,0.9825 Z" stroke="#000000" stroke-width="0.1195" stroke-linecap="round" stroke-linejoin="round" fill="#F7F7F7"/>
        <path d="M 39.8375,4.9687 L 35.6811,4.9687 L 35.6811,8.6742 L 39.8375,8.6742 L 39.8375,4.9687 Z" stroke="#000000" stroke-width="0.1195" stroke-linecap="round" stroke-linejoin="round" fill="#F7F7F7"/>
        <path d="M 44.1765,0.9825 L 40.0201,0.9825 L 40.0201,4.6880 L 44.1765,4.6880 L 44.1765,0.9825 Z" stroke="#000000" stroke-width="0.1195" stroke-linecap="round" stroke-linejoin="round" fill="#F7F7F7"/>
        <path d="M 44.1765,4.9687 L 40.0201,4.9687 L 40.0201,8.6742 L 44.1765,8.6742 L 44.1765,4.9687 Z" stroke="#000000" stroke-width="0.1195" stroke-linecap="round" stroke-linejoin="round" fill="#F7F7F7"/>
        <path d="M 15.1093,2.3300 L 15.1093,2.2879 L 15.0953,2.2598 L 15.0813,2.2317 L 15.0532,2.2036 L 15.0251,2.1756 L 14.9970,2.1615 L 14.9689,2.1475 L 14.9268,2.1475 L 10.3210,2.1475 L 10.2788,2.1475 L 10.2508,2.1615 L 10.2227,2.1756 L 10.1946,2.2036 L 10.1665,2.2317 L 10.1525,2.2598 L 10.1384,2.2879 L 10.1384,2.3300 L 10.1384,8.6321 L 10.1384,8.6742 L 10.1525,8.7023 L 10.1665,8.7304 L 10.1946,8.7584 L 10.2227,8.7865 L 10.2508,8.8005 L 10.2788,8.8146 L 10.3210,8.8146 L 14.9268,8.8146 L 14.9689,8.8146 L 14.9970,8.8005 L 15.0251,8.7865 L 15.0532,8.7584 L 15.0813,8.7304 L 15.0953,8.7023 L 15.1093,8.6742 L 15.1093,8.6321 L 15.1093,2.3300 Z" stroke="#000000" stroke-width="0.1195" stroke-linecap="round" stroke-linejoin="round" fill="#333333"/>
        <path d="M 14.9127,2.2738 L 10.3350,2.2738 L 10.3350,8.4356 L 14.9127,8.4356 L 14.9127,2.2738 Z" stroke="#000000" stroke-width="0.1195" stroke-linecap="round" stroke-linejoin="round" fill="#F7F7F7"/>
        <path d="M 6.3751,5.4460 L 6.3611,5.3758 L 6.3470,5.2916 L 6.3049,5.2354 L 6.2628,5.1793 L 6.2066,5.1372 L 6.1505,5.0951 L 6.0662,5.0810 L 5.9960,5.0670 L 4.2969,5.0670 L 4.2267,5.0810 L 4.1424,5.0951 L 4.0863,5.1372 L 4.0301,5.1793 L 3.9880,5.2354 L 3.9458,5.2916 L 3.9318,5.3758 L 3.9178,5.4460 L 3.9178,10.6533 L 3.9318,10.7235 L 3.9458,10.8077 L 3.9880,10.8638 L 4.0301,10.9200 L 4.0863,10.9621 L 4.1424,11.0042 L 4.2267,11.0182 L 4.2969,11.0323 L 5.9960,11.0323 L 6.0662,11.0182 L 6.1505,11.0042 L 6.2066,10.9621 L 6.2628,10.9200 L 6.3049,10.8638 L 6.3470,10.8077 L 6.3611,10.7235 L 6.3751,10.6533 L 6.3751,5.4460 Z" stroke="#000000" stroke-width="0.1195" stroke-linecap="round" stroke-linejoin="round" fill="#D8D8D8"/>
        <ellipse cx="5.0762" cy="6.3583" rx="0.8636" ry="0.8702" fill="#BFBFBF" stroke="#000000" stroke-width="0.1195" stroke-linecap="round" stroke-linejoin="round"/>
        <ellipse cx="5.0762" cy="6.3583" rx="0.8636" ry="0.8702" fill="none" stroke="#161616" stroke-width="0.1195" stroke-linecap="round" stroke-linejoin="round"/>
        <ellipse cx="5.0762" cy="6.3583" rx="0.7372" ry="0.7439" fill="#DDDDDD" stroke="#000000" stroke-width="0.1195" stroke-linecap="round" stroke-linejoin="round"/>
        <ellipse cx="5.0762" cy="6.3583" rx="0.7372" ry="0.7439" fill="none" stroke="#BFBFBF" stroke-width="0.1195" stroke-linecap="round" stroke-linejoin="round"/>
        <path d="M 5.2658,6.9478 L 5.2518,6.9478 L 5.2377,6.9478 L 5.2237,6.9478 L 5.2096,6.9478 L 5.1956,6.9478 L 5.1815,6.9478 L 5.1675,6.9478 L 5.1535,6.9478 L 5.1394,6.9478 L 5.1254,6.9478 L 5.1113,6.9478 L 5.0973,6.9478 L 5.0833,6.9478 L 5.0692,6.9478 L 5.0552,6.9478 L 5.0411,6.9478 L 5.0411,6.9338 L 5.0411,6.9197 L 5.0411,6.9057 L 5.0411,6.8917 L 5.0411,6.8776 L 5.0411,6.8636 L 5.0411,6.8495 L 5.0411,6.8355 L 5.0411,6.8215 L 5.0411,6.8074 L 5.0411,6.7934 L 5.0411,6.7794 L 5.0411,6.7653 L 5.0411,6.7513 L 5.0411,6.7373 L 5.0411,6.7232 L 5.0411,6.7092 L 5.0411,6.6952 L 5.0411,6.6811 L 5.0411,6.6671 L 5.0411,6.6530 L 5.0271,6.6530 L 5.0271,6.6390 L 5.0271,6.6250 L 5.0130,6.6109 L 4.9990,6.5969 L 4.9850,6.5829 L 4.9709,6.5688 L 4.9569,6.5688 L 4.9428,6.5688 L 4.9428,6.5548 L 4.9288,6.5548 L 4.9147,6.5548 L 4.9007,6.5548 L 4.8867,6.5548 L 4.8726,6.5548 L 4.8586,6.5548 L 4.8445,6.5548 L 4.8305,6.5548 L 4.8165,6.5548 L 4.8024,6.5548 L 4.7884,6.5548 L 4.7743,6.5548 L 4.7603,6.5548 L 4.7462,6.5548 L 4.7322,6.5548 L 4.7182,6.5548 L 4.7041,6.5548 L 4.6901,6.5548 L 4.6760,6.5548 L 4.6620,6.5548 L 4.6479,6.5548 L 4.6339,6.5548 L 4.6339,6.5408 L 4.6339,6.5267 L 4.6339,6.5127 L 4.6339,6.4986 L 4.6339,6.4846 L 4.6339,6.4706 L 4.6339,6.4565 L 4.6339,6.4425 L 4.6339,6.4285 L 4.6339,6.4144 L 4.6339,6.4004 L 4.6339,6.3864 L 4.6339,6.3723 L 4.6339,6.3583 L 4.6339,6.3443 L 4.6339,6.3302 L 4.6339,6.3162 L 4.6339,6.3021 L 4.6479,6.3021 L 4.6620,6.3021 L 4.6760,6.3021 L 4.6901,6.3021 L 4.7041,6.3021 L 4.7182,6.3021 L 4.7322,6.3021 L 4.7462,6.3021 L 4.7603,6.3021 L 4.7743,6.3021 L 4.7884,6.3021 L 4.8024,6.3021 L 4.8165,6.3021 L 4.8305,6.3021 L 4.8445,6.3021 L 4.8586,6.3021 L 4.8726,6.3021 L 4.8867,6.3021 L 4.9007,6.3021 L 4.9147,6.3021 L 4.9288,6.3021 L 4.9428,6.2881 L 4.9569,6.2881 L 4.9709,6.2741 L 4.9850,6.2741 L 4.9850,6.2600 L 4.9990,6.2600 L 4.9990,6.2460 L 5.0130,6.2460 L 5.0130,6.2320 L 5.0271,6.2179 L 5.0271,6.2039 L 5.0271,6.1899 L 5.0411,6.1899 L 5.0411,6.1758 L 5.0411,6.1618 L 5.0411,6.1477 L 5.0411,6.1337 L 5.0411,6.1197 L 5.0411,6.1056 L 5.0411,6.0916 L 5.0411,6.0776 L 5.0411,6.0635 L 5.0411,6.0495 L 5.0411,6.0355 L 5.0411,6.0214 L 5.0411,6.0074 L 5.0411,5.9934 L 5.0411,5.9793 L 5.0411,5.9653 L 5.0411,5.9512 L 5.0411,5.9372 L 5.0411,5.9232 L 5.0411,5.9091 L 5.0552,5.9091 L 5.0692,5.9091 L 5.0833,5.9091 L 5.0973,5.9091 L 5.1113,5.9091 L 5.1254,5.9091 L 5.1394,5.9091 L 5.1535,5.9091 L 5.1675,5.9091 L 5.1815,5.9091 L 5.1956,5.9091 L 5.2096,5.9091 L 5.2237,5.9091 L 5.2377,5.9091 L 5.2518,5.9091 L 5.2658,5.9091 L 5.2658,5.9232 L 5.2658,5.9372 L 5.2658,5.9512 L 5.2658,5.9653 L 5.2658,5.9793 L 5.2658,5.9934 L 5.2658,6.0074 L 5.2658,6.0214 L 5.2658,6.0355 L 5.2658,6.0495 L 5.2658,6.0635 L 5.2658,6.0776 L 5.2658,6.0916 L 5.2658,6.1056 L 5.2658,6.1197 L 5.2658,6.1337 L 5.2658,6.1477 L 5.2658,6.1618 L 5.2658,6.1758 L 5.2658,6.1899 L 5.2798,6.1899 L 5.2798,6.2039 L 5.2798,6.2179 L 5.2939,6.2320 L 5.2939,6.2460 L 5.3079,6.2460 L 5.3079,6.2600 L 5.3220,6.2600 L 5.3220,6.2741 L 5.3360,6.2741 L 5.3501,6.2881 L 5.3641,6.2881 L 5.3781,6.3021 L 5.3922,6.3021 L 5.4062,6.3021 L 5.4203,6.3021 L 5.4343,6.3021 L 5.4483,6.3021 L 5.4624,6.3021 L 5.4764,6.3021 L 5.4905,6.3021 L 5.5045,6.3021 L 5.5186,6.3021 L 5.5326,6.3021 L 5.5466,6.3021 L 5.5607,6.3021 L 5.5747,6.3021 L 5.5888,6.3021 L 5.6028,6.3021 L 5.6169,6.3021 L 5.6309,6.3021 L 5.6449,6.3021 L 5.6590,6.3021 L 5.6730,6.3021 L 5.6730,6.3162 L 5.6730,6.3302 L 5.6730,6.3443 L 5.6730,6.3583 L 5.6730,6.3723 L 5.6730,6.3864 L 5.6730,6.4004 L 5.6730,6.4144 L 5.6730,6.4285 L 5.6730,6.4425 L 5.6730,6.4565 L 5.6730,6.4706 L 5.6730,6.4846 L 5.6730,6.4986 L 5.6730,6.5127 L 5.6730,6.5267 L 5.6730,6.5408 L 5.6730,6.5548 L 5.6590,6.5548 L 5.6449,6.5548 L 5.6309,6.5548 L 5.6169,6.5548 L 5.6028,6.5548 L 5.5888,6.5548 L 5.5747,6.5548 L 5.5607,6.5548 L 5.5466,6.5548 L 5.5326,6.5548 L 5.5186,6.5548 L 5.5045,6.5548 L 5.4905,6.5548 L 5.4764,6.5548 L 5.4624,6.5548 L 5.4483,6.5548 L 5.4343,6.5548 L 5.4203,6.5548 L 5.4062,6.5548 L 5.3922,6.5548 L 5.3781,6.5548 L 5.3641,6.5548 L 5.3641,6.5688 L 5.3501,6.5688 L 5.3360,6.5688 L 5.3220,6.5829 L 5.3079,6.5969 L 5.2939,6.6109 L 5.2798,6.6250 L 5.2798,6.6390 L 5.2798,6.6530 L 5.2658,6.6530 L 5.2658,6.6671 L 5.2658,6.6811 L 5.2658,6.6952 L 5.2658,6.7092 L 5.2658,6.7232 L 5.2658,6.7373 L 5.2658,6.7513 L 5.2658,6.7653 L 5.2658,6.7794 L 5.2658,6.7934 L 5.2658,6.8074 L 5.2658,6.8215 L 5.2658,6.8355 L 5.2658,6.8495 L 5.2658,6.8636 L 5.2658,6.8776 L 5.2658,6.8917 L 5.2658,6.9057 L 5.2658,6.9197 L 5.2658,6.9338 L 5.2658,6.9478 Z" stroke="#7F7F7F" stroke-width="0.1195" stroke-linecap="round" stroke-linejoin="round" fill="#D1D1D1"/>
        <ellipse cx="5.0762" cy="6.3583" rx="0.8636" ry="0.8702" fill="none" stroke="#161616" stroke-width="0.1195" stroke-linecap="round" stroke-linejoin="round"/>
        <ellipse cx="5.0762" cy="6.3583" rx="0.8636" ry="0.8702" fill="none" stroke="#161616" stroke-width="0.1195" stroke-linecap="round" stroke-linejoin="round"/>
        <ellipse cx="2.1836" cy="5.7267" rx="1.0321" ry="1.0387" fill="#BFBFBF" stroke="#000000" stroke-width="0.1195" stroke-linecap="round" stroke-linejoin="round"/>
        <ellipse cx="2.1836" cy="5.7267" rx="1.0321" ry="1.0387" fill="none" stroke="#161616" stroke-width="0.1195" stroke-linecap="round" stroke-linejoin="round"/>
        <ellipse cx="2.1906" cy="5.7197" rx="0.8847" ry="0.8772" fill="#DDDDDD" stroke="#000000" stroke-width="0.1195" stroke-linecap="round" stroke-linejoin="round"/>
        <ellipse cx="2.1906" cy="5.7197" rx="0.8847" ry="0.8772" fill="none" stroke="#BFBFBF" stroke-width="0.1195" stroke-linecap="round" stroke-linejoin="round"/>
        <path d="M 2.3872,6.4004 L 2.3731,6.4004 L 2.3591,6.4004 L 2.3450,6.4004 L 2.3310,6.4004 L 2.3170,6.4004 L 2.3029,6.4004 L 2.2889,6.4004 L 2.2748,6.4004 L 2.2608,6.4004 L 2.2467,6.4004 L 2.2327,6.4004 L 2.2187,6.4004 L 2.2046,6.4004 L 2.1906,6.4004 L 2.1765,6.4004 L 2.1625,6.4004 L 2.1484,6.4004 L 2.1344,6.4004 L 2.1344,6.3864 L 2.1344,6.3723 L 2.1344,6.3583 L 2.1344,6.3443 L 2.1344,6.3302 L 2.1344,6.3162 L 2.1344,6.3021 L 2.1344,6.2881 L 2.1344,6.2741 L 2.1344,6.2600 L 2.1344,6.2460 L 2.1344,6.2320 L 2.1344,6.2179 L 2.1344,6.2039 L 2.1344,6.1899 L 2.1344,6.1758 L 2.1344,6.1618 L 2.1344,6.1477 L 2.1344,6.1337 L 2.1344,6.1197 L 2.1344,6.1056 L 2.1344,6.0916 L 2.1344,6.0776 L 2.1204,6.0635 L 2.1204,6.0495 L 2.1204,6.0355 L 2.1063,6.0214 L 2.1063,6.0074 L 2.0923,6.0074 L 2.0923,5.9934 L 2.0782,5.9934 L 2.0782,5.9793 L 2.0642,5.9793 L 2.0642,5.9653 L 2.0502,5.9653 L 2.0361,5.9512 L 2.0221,5.9512 L 2.0080,5.9512 L 1.9940,5.9372 L 1.9799,5.9372 L 1.9659,5.9372 L 1.9519,5.9372 L 1.9378,5.9372 L 1.9238,5.9372 L 1.9097,5.9372 L 1.8957,5.9372 L 1.8816,5.9372 L 1.8676,5.9372 L 1.8536,5.9372 L 1.8395,5.9372 L 1.8255,5.9372 L 1.8114,5.9372 L 1.7974,5.9372 L 1.7834,5.9372 L 1.7693,5.9372 L 1.7553,5.9372 L 1.7412,5.9372 L 1.7272,5.9372 L 1.7131,5.9372 L 1.6991,5.9372 L 1.6851,5.9372 L 1.6710,5.9372 L 1.6570,5.9372 L 1.6570,5.9232 L 1.6570,5.9091 L 1.6570,5.8951 L 1.6570,5.8811 L 1.6570,5.8670 L 1.6570,5.8530 L 1.6570,5.8390 L 1.6570,5.8249 L 1.6570,5.8109 L 1.6570,5.7969 L 1.6570,5.7828 L 1.6570,5.7688 L 1.6570,5.7547 L 1.6570,5.7407 L 1.6570,5.7267 L 1.6570,5.7126 L 1.6570,5.6986 L 1.6570,5.6846 L 1.6570,5.6705 L 1.6570,5.6565 L 1.6710,5.6565 L 1.6851,5.6565 L 1.6991,5.6565 L 1.7131,5.6565 L 1.7272,5.6565 L 1.7412,5.6565 L 1.7553,5.6565 L 1.7693,5.6565 L 1.7834,5.6565 L 1.7974,5.6565 L 1.8114,5.6565 L 1.8255,5.6565 L 1.8395,5.6565 L 1.8536,5.6565 L 1.8676,5.6565 L 1.8816,5.6565 L 1.8957,5.6565 L 1.9097,5.6565 L 1.9238,5.6565 L 1.9378,5.6565 L 1.9519,5.6565 L 1.9659,5.6565 L 1.9799,5.6565 L 1.9940,5.6425 L 2.0080,5.6425 L 2.0221,5.6425 L 2.0361,5.6284 L 2.0502,5.6284 L 2.0502,5.6144 L 2.0642,5.6144 L 2.0642,5.6003 L 2.0782,5.6003 L 2.0782,5.5863 L 2.0923,5.5863 L 2.0923,5.5723 L 2.1063,5.5723 L 2.1063,5.5582 L 2.1063,5.5442 L 2.1204,5.5442 L 2.1204,5.5302 L 2.1204,5.5161 L 2.1344,5.5021 L 2.1344,5.4881 L 2.1344,5.4740 L 2.1344,5.4600 L 2.1344,5.4460 L 2.1344,5.4319 L 2.1344,5.4179 L 2.1344,5.4038 L 2.1344,5.3898 L 2.1344,5.3758 L 2.1344,5.3617 L 2.1344,5.3477 L 2.1344,5.3337 L 2.1344,5.3196 L 2.1344,5.3056 L 2.1344,5.2916 L 2.1344,5.2775 L 2.1344,5.2635 L 2.1344,5.2494 L 2.1344,5.2354 L 2.1344,5.2214 L 2.1344,5.2073 L 2.1344,5.1933 L 2.1484,5.1933 L 2.1625,5.1933 L 2.1765,5.1933 L 2.1906,5.1933 L 2.2046,5.1933 L 2.2187,5.1933 L 2.2327,5.1933 L 2.2467,5.1933 L 2.2608,5.1933 L 2.2748,5.1933 L 2.2889,5.1933 L 2.3029,5.1933 L 2.3170,5.1933 L 2.3310,5.1933 L 2.3450,5.1933 L 2.3591,5.1933 L 2.3731,5.1933 L 2.3872,5.1933 L 2.3872,5.2073 L 2.3872,5.2214 L 2.3872,5.2354 L 2.3872,5.2494 L 2.3872,5.2635 L 2.3872,5.2775 L 2.3872,5.2916 L 2.3872,5.3056 L 2.3872,5.3196 L 2.3872,5.3337 L 2.3872,5.3477 L 2.3872,5.3617 L 2.3872,5.3758 L 2.3872,5.3898 L 2.3872,5.4038 L 2.3872,5.4179 L 2.3872,5.4319 L 2.3872,5.4460 L 2.3872,5.4600 L 2.3872,5.4740 L 2.3872,5.4881 L 2.3872,5.5021 L 2.4012,5.5161 L 2.4012,5.5302 L 2.4012,5.5442 L 2.4152,5.5442 L 2.4152,5.5582 L 2.4152,5.5723 L 2.4293,5.5723 L 2.4293,5.5863 L 2.4433,5.5863 L 2.4433,5.6003 L 2.4574,5.6003 L 2.4574,5.6144 L 2.4714,5.6144 L 2.4714,5.6284 L 2.4855,5.6284 L 2.4995,5.6425 L 2.5135,5.6425 L 2.5276,5.6425 L 2.5416,5.6565 L 2.5557,5.6565 L 2.5697,5.6565 L 2.5838,5.6565 L 2.5978,5.6565 L 2.6118,5.6565 L 2.6259,5.6565 L 2.6399,5.6565 L 2.6540,5.6565 L 2.6680,5.6565 L 2.6820,5.6565 L 2.6961,5.6565 L 2.7101,5.6565 L 2.7242,5.6565 L 2.7382,5.6565 L 2.7523,5.6565 L 2.7663,5.6565 L 2.7803,5.6565 L 2.7944,5.6565 L 2.8084,5.6565 L 2.8225,5.6565 L 2.8365,5.6565 L 2.8506,5.6565 L 2.8646,5.6565 L 2.8646,5.6705 L 2.8646,5.6846 L 2.8646,5.6986 L 2.8646,5.7126 L 2.8646,5.7267 L 2.8646,5.7407 L 2.8646,5.7547 L 2.8646,5.7688 L 2.8646,5.7828 L 2.8646,5.7969 L 2.8646,5.8109 L 2.8646,5.8249 L 2.8646,5.8390 L 2.8646,5.8530 L 2.8646,5.8670 L 2.8646,5.8811 L 2.8646,5.8951 L 2.8646,5.9091 L 2.8646,5.9232 L 2.8646,5.9372 L 2.8506,5.9372 L 2.8365,5.9372 L 2.8225,5.9372 L 2.8084,5.9372 L 2.7944,5.9372 L 2.7803,5.9372 L 2.7663,5.9372 L 2.7523,5.9372 L 2.7382,5.9372 L 2.7242,5.9372 L 2.7101,5.9372 L 2.6961,5.9372 L 2.6820,5.9372 L 2.6680,5.9372 L 2.6540,5.9372 L 2.6399,5.9372 L 2.6259,5.9372 L 2.6118,5.9372 L 2.5978,5.9372 L 2.5838,5.9372 L 2.5697,5.9372 L 2.5557,5.9372 L 2.5416,5.9372 L 2.5276,5.9372 L 2.5135,5.9512 L 2.4995,5.9512 L 2.4855,5.9512 L 2.4714,5.9653 L 2.4574,5.9653 L 2.4574,5.9793 L 2.4433,5.9793 L 2.4433,5.9934 L 2.4293,5.9934 L 2.4293,6.0074 L 2.4152,6.0074 L 2.4152,6.0214 L 2.4012,6.0355 L 2.4012,6.0495 L 2.4012,6.0635 L 2.3872,6.0776 L 2.3872,6.0916 L 2.3872,6.1056 L 2.3872,6.1197 L 2.3872,6.1337 L 2.3872,6.1477 L 2.3872,6.1618 L 2.3872,6.1758 L 2.3872,6.1899 L 2.3872,6.2039 L 2.3872,6.2179 L 2.3872,6.2320 L 2.3872,6.2460 L 2.3872,6.2600 L 2.3872,6.2741 L 2.3872,6.2881 L 2.3872,6.3021 L 2.3872,6.3162 L 2.3872,6.3302 L 2.3872,6.3443 L 2.3872,6.3583 L 2.3872,6.3723 L 2.3872,6.3864 L 2.3872,6.4004 Z" stroke="#7F7F7F" stroke-width="0.1195" stroke-linecap="round" stroke-linejoin="round" fill="#D1D1D1"/>
        <ellipse cx="2.1836" cy="5.7267" rx="1.0321" ry="1.0387" fill="none" stroke="#161616" stroke-width="0.1195" stroke-linecap="round" stroke-linejoin="round"/>
        <ellipse cx="2.1836" cy="5.7267" rx="1.0321" ry="1.0387" fill="none" stroke="#161616" stroke-width="0.1195" stroke-linecap="round" stroke-linejoin="round"/>
        <path d="M 26.0201,9.6708 L 26.0060,9.6708 L 25.9920,9.6708 L 25.9779,9.6708 L 25.9639,9.6708 L 25.9499,9.6708 L 25.9358,9.6708 L 25.9218,9.6708 L 25.9218,9.6848 L 25.9218,9.6988 L 25.9218,9.7129 L 25.9077,9.7129 L 25.9077,9.7269 L 25.9077,9.7410 L 25.9077,9.7550 L 25.9077,9.7690 L 25.9077,9.7831 L 25.9077,9.7971 L 25.9077,9.8111 L 25.9077,9.8252 L 25.9077,9.8392 L 25.9218,9.8392 L 25.9218,9.8532 L 25.9218,9.8673 L 25.9218,9.8813 L 25.9358,9.8813 L 25.9358,9.8953 L 25.9499,9.9094 L 25.9499,9.9234 L 25.9639,9.9234 L 25.9639,9.9375 L 25.9779,9.9375 L 25.9920,9.9515 L 26.0060,9.9515 L 26.0201,9.9655 L 26.0341,9.9655 L 26.0482,9.9655 L 26.0622,9.9655 L 26.0762,9.9655 L 26.0903,9.9655 L 26.1043,9.9655 L 26.1184,9.9655 L 26.1324,9.9655 L 26.1465,9.9655 L 26.1605,9.9655 L 26.1745,9.9655 L 26.1886,9.9655 L 26.2026,9.9655 L 26.2167,9.9655 L 26.2307,9.9655 L 26.2447,9.9655 L 26.2588,9.9655 L 26.2728,9.9655 L 26.2869,9.9655 L 26.3009,9.9655 L 26.3150,9.9655 L 26.3290,9.9655 L 26.3430,9.9655 L 26.3571,9.9655 L 26.3711,9.9655 L 26.3852,9.9655 L 26.3992,9.9655 L 26.4133,9.9655 L 26.4273,9.9515 L 26.4413,9.9515 L 26.4554,9.9375 L 26.4694,9.9375 L 26.4694,9.9234 L 26.4835,9.9234 L 26.4835,9.9094 L 26.4975,9.8953 L 26.4975,9.8813 L 26.5115,9.8813 L 26.5115,9.8673 L 26.5115,9.8532 L 26.5115,9.8392 L 26.5256,9.8392 L 26.5256,9.8252 L 26.5256,9.8111 L 26.5256,9.7971 L 26.5256,9.7831 L 26.5256,9.7690 L 26.5256,9.7550 L 26.5256,9.7410 L 26.5256,9.7269 L 26.5115,9.7269 L 26.5115,9.7129 L 26.5115,9.6988 L 26.5115,9.6848 L 26.4975,9.6848 L 26.4975,9.6708 L 26.4835,9.6567 L 26.4835,9.6427 L 26.4694,9.6427 L 26.4694,9.6287 L 26.4554,9.6287 L 26.4413,9.6146 L 26.4273,9.6146 L 26.4133,9.6006 L 26.3992,9.6006 L 26.3852,9.6006 L 26.3711,9.6006 L 26.3571,9.6006 L 26.3430,9.6006 L 26.3290,9.6006 L 26.3150,9.6006 L 26.3009,9.6006 L 26.2869,9.6006 L 26.2728,9.6006 L 26.2588,9.6006 L 26.2447,9.6006 L 26.2307,9.6006 L 26.2167,9.6006 L 26.2026,9.6006 L 26.1886,9.6006 L 26.1745,9.6006 L 26.1886,9.6006 L 26.1886,9.6146 L 26.2026,9.6146 L 26.2026,9.6287 L 26.2167,9.6427 L 26.2167,9.6567 L 26.2307,9.6708 L 26.2307,9.6848 L 26.2447,9.6848 L 26.2588,9.6848 L 26.2728,9.6848 L 26.2869,9.6848 L 26.3009,9.6848 L 26.3150,9.6848 L 26.3290,9.6848 L 26.3430,9.6848 L 26.3571,9.6848 L 26.3711,9.6848 L 26.3852,9.6988 L 26.3992,9.6988 L 26.3992,9.7129 L 26.4133,9.7129 L 26.4133,9.7269 L 26.4133,9.7410 L 26.4273,9.7410 L 26.4273,9.7550 L 26.4273,9.7690 L 26.4273,9.7831 L 26.4273,9.7971 L 26.4273,9.8111 L 26.4273,9.8252 L 26.4133,9.8392 L 26.4133,9.8532 L 26.4133,9.8673 L 26.3992,9.8673 L 26.3992,9.8813 L 26.3852,9.8813 L 26.3852,9.8953 L 26.3711,9.8953 L 26.3711,9.9094 L 26.3571,9.9094 L 26.3430,9.9094 L 26.3290,9.9094 L 26.3150,9.9094 L 26.3009,9.9094 L 26.2869,9.9094 L 26.2728,9.9094 L 26.2588,9.9094 L 26.2447,9.9094 L 26.2307,9.9094 L 26.2167,9.9094 L 26.2026,9.9094 L 26.1886,9.9094 L 26.1745,9.9094 L 26.1605,9.9094 L 26.1465,9.9094 L 26.1324,9.9094 L 26.1184,9.9094 L 26.1043,9.9094 L 26.0903,9.9094 L 26.0762,9.9094 L 26.0622,9.9094 L 26.0622,9.8953 L 26.0482,9.8953 L 26.0482,9.8813 L 26.0341,9.8813 L 26.0341,9.8673 L 26.0201,9.8673 L 26.0201,9.8532 L 26.0201,9.8392 L 26.0060,9.8252 L 26.0060,9.8111 L 26.0060,9.7971 L 26.0060,9.7831 L 26.0060,9.7690 L 26.0060,9.7550 L 26.0060,9.7410 L 26.0060,9.7269 L 26.0060,9.7129 L 26.0201,9.7129 L 26.0201,9.6988 L 26.0201,9.6848 L 26.0201,9.6708 Z" stroke-width="1px" stroke="#6EACD3" fill="#6EACD3"/>
        <path d="M 26.1043,9.8953 L 26.1184,9.8953 L 26.1324,9.8953 L 26.1465,9.8953 L 26.1605,9.8953 L 26.1745,9.8953 L 26.1886,9.8953 L 26.2026,9.8953 L 26.2026,9.8813 L 26.2026,9.8673 L 26.2167,9.8673 L 26.2167,9.8532 L 26.2167,9.8392 L 26.2167,9.8252 L 26.2167,9.8111 L 26.2167,9.7971 L 26.2167,9.7831 L 26.2167,9.7690 L 26.2167,9.7550 L 26.2167,9.7410 L 26.2167,9.7269 L 26.2026,9.7269 L 26.2026,9.7129 L 26.2026,9.6988 L 26.2026,9.6848 L 26.1886,9.6848 L 26.1886,9.6708 L 26.1745,9.6567 L 26.1745,9.6427 L 26.1605,9.6427 L 26.1605,9.6287 L 26.1465,9.6287 L 26.1324,9.6146 L 26.1184,9.6146 L 26.1043,9.6006 L 26.0903,9.6006 L 26.0762,9.6006 L 26.0622,9.6006 L 26.0482,9.6006 L 26.0341,9.6006 L 26.0201,9.6006 L 26.0060,9.6006 L 25.9920,9.6006 L 25.9779,9.6006 L 25.9639,9.6006 L 25.9499,9.6006 L 25.9358,9.6006 L 25.9218,9.6006 L 25.9077,9.6006 L 25.8937,9.6006 L 25.8796,9.6006 L 25.8656,9.6006 L 25.8516,9.6006 L 25.8375,9.6006 L 25.8235,9.6006 L 25.8094,9.6006 L 25.7954,9.6006 L 25.7814,9.6006 L 25.7673,9.6006 L 25.7533,9.6006 L 25.7392,9.6006 L 25.7252,9.6006 L 25.7111,9.6006 L 25.6971,9.6146 L 25.6831,9.6146 L 25.6690,9.6287 L 25.6550,9.6287 L 25.6550,9.6427 L 25.6409,9.6427 L 25.6409,9.6567 L 25.6269,9.6708 L 25.6269,9.6848 L 25.6128,9.6848 L 25.6128,9.6988 L 25.6128,9.7129 L 25.6128,9.7269 L 25.5988,9.7269 L 25.5988,9.7410 L 25.5988,9.7550 L 25.5988,9.7690 L 25.5988,9.7831 L 25.5988,9.7971 L 25.5988,9.8111 L 25.5988,9.8252 L 25.5988,9.8392 L 25.6128,9.8392 L 25.6128,9.8532 L 25.6128,9.8673 L 25.6128,9.8813 L 25.6269,9.8813 L 25.6269,9.8953 L 25.6409,9.9094 L 25.6409,9.9234 L 25.6550,9.9234 L 25.6550,9.9375 L 25.6690,9.9375 L 25.6831,9.9515 L 25.6971,9.9515 L 25.7111,9.9655 L 25.7252,9.9655 L 25.7392,9.9655 L 25.7533,9.9655 L 25.7673,9.9655 L 25.7814,9.9655 L 25.7954,9.9655 L 25.8094,9.9655 L 25.8235,9.9655 L 25.8375,9.9655 L 25.8516,9.9655 L 25.8656,9.9655 L 25.8796,9.9655 L 25.8937,9.9655 L 25.9077,9.9655 L 25.9218,9.9655 L 25.9358,9.9655 L 25.9499,9.9655 L 25.9358,9.9655 L 25.9358,9.9515 L 25.9218,9.9515 L 25.9218,9.9375 L 25.9077,9.9234 L 25.9077,9.9094 L 25.8937,9.8953 L 25.8937,9.8813 L 25.8796,9.8813 L 25.8656,9.8813 L 25.8516,9.8813 L 25.8375,9.8813 L 25.8235,9.8813 L 25.8094,9.8813 L 25.7954,9.8813 L 25.7814,9.8813 L 25.7673,9.8813 L 25.7533,9.8813 L 25.7392,9.8673 L 25.7252,9.8673 L 25.7252,9.8532 L 25.7111,9.8532 L 25.7111,9.8392 L 25.7111,9.8252 L 25.6971,9.8252 L 25.6971,9.8111 L 25.6971,9.7971 L 25.6971,9.7831 L 25.6971,9.7690 L 25.6971,9.7550 L 25.6971,9.7410 L 25.7111,9.7269 L 25.7111,9.7129 L 25.7111,9.6988 L 25.7252,9.6988 L 25.7252,9.6848 L 25.7392,9.6848 L 25.7392,9.6708 L 25.7533,9.6708 L 25.7533,9.6567 L 25.7673,9.6567 L 25.7814,9.6567 L 25.7954,9.6567 L 25.8094,9.6567 L 25.8235,9.6567 L 25.8375,9.6567 L 25.8516,9.6567 L 25.8656,9.6567 L 25.8796,9.6567 L 25.8937,9.6567 L 25.9077,9.6567 L 25.9218,9.6567 L 25.9358,9.6567 L 25.9499,9.6567 L 25.9639,9.6567 L 25.9779,9.6567 L 25.9920,9.6567 L 26.0060,9.6567 L 26.0201,9.6567 L 26.0341,9.6567 L 26.0482,9.6567 L 26.0622,9.6567 L 26.0622,9.6708 L 26.0762,9.6708 L 26.0762,9.6848 L 26.0903,9.6848 L 26.0903,9.6988 L 26.1043,9.6988 L 26.1043,9.7129 L 26.1043,9.7269 L 26.1184,9.7410 L 26.1184,9.7550 L 26.1184,9.7690 L 26.1184,9.7831 L 26.1184,9.7971 L 26.1184,9.8111 L 26.1184,9.8252 L 26.1184,9.8392 L 26.1184,9.8532 L 26.1184,9.8673 L 26.1043,9.8673 L 26.1043,9.8813 L 26.1043,9.8953 Z" stroke-width="1px" stroke="#6EACD3" fill="#6EACD3"/>
        <path d="M 2.6540,7.6215 L 1.8395,7.6215 " stroke="#000000" stroke-width="0.1195" stroke-linecap="round" stroke-linejoin="round" fill="none"/>
        <path d="M 2.2467,7.6215 L 2.2467,7.2285 " stroke="#000000" stroke-width="0.1195" stroke-linecap="round" stroke-linejoin="round" fill="none"/>
        <path d="M 2.3450,7.9865 L 2.1484,7.9865 " stroke="#000000" stroke-width="0.1195" stroke-linecap="round" stroke-linejoin="round" fill="none"/>
        <path d="M 1.9799,7.8040 L 2.5135,7.8040 " stroke="#000000" stroke-width="0.1195" stroke-linecap="round" stroke-linejoin="round" fill="none"/>
        <path d="M 26.0762,9.5023 L 26.0762,9.2216 L 25.7814,9.2216 " stroke="#000000" stroke-width="0.1195" stroke-linecap="round" stroke-linejoin="round" fill="none"/>
        <path d="M 26.0762,10.0919 L 26.0762,10.3726 L 25.7814,10.3726 " stroke="#000000" stroke-width="0.1195" stroke-linecap="round" stroke-linejoin="round" fill="none"/>
        <path d="M 37.0853,9.2357 L 36.7483,9.2357 L 36.7483,10.3866 L 37.0853,10.3866 " stroke="#000000" stroke-width="0.1195" stroke-linecap="round" stroke-linejoin="round" fill="none"/>
        <path d="M 42.7723,10.3866 L 43.1093,10.3866 L 43.1093,9.2357 L 42.7723,9.2357 " stroke="#000000" stroke-width="0.1195" stroke-linecap="round" stroke-linejoin="round" fill="none"/>
        <text font-family="Arial" fill="#000000" style="white-space:pre;" font-weight="400" text-anchor="start" x="1.7272" y="1.5426" font-size="0.1545"><![CDATA[FIRMWARE]]></text>
        <text font-family="Arial" fill="#000000" style="white-space:pre;" font-weight="400" text-anchor="start" x="3.4965" y="0.7384" font-size="0.1966"><![CDATA[CONSOLE]]></text>
        <text font-family="Arial" fill="#000000" style="white-space:pre;" font-weight="400" text-anchor="start" x="14.1123" y="2.9280" font-size="0.1966"><![CDATA[DC+54V]]></text>
        <text font-family="Arial" fill="#000000" style="white-space:pre;" font-weight="400" text-anchor="start" x="1.8395" y="1.3742" font-size="0.1545"><![CDATA[SIGNED]]></text>
        <text font-family="Arial" fill="#000000" style="white-space:pre;" font-weight="400" text-anchor="start" x="3.7914" y="2.8999" font-size="0.1966"><![CDATA[USB]]></text>
        <text font-family="Arial" fill="#000000" style="white-space:pre;" font-weight="400" text-anchor="start" x="5.2096" y="2.8017" font-size="0.1966"><![CDATA[WAN1]]></text>
        <text font-family="Arial" fill="#000000" style="white-space:pre;" font-weight="400" text-anchor="start" x="5.2096" y="3.0122" font-size="0.1966"><![CDATA[WAN2]]></text>
        <text font-family="Arial" fill="#000000" style="white-space:pre;" font-weight="400" text-anchor="start" x="6.9368" y="2.8017" font-size="0.1966"><![CDATA[A]]></text>
        <text font-family="Arial" fill="#000000" style="white-space:pre;" font-weight="400" text-anchor="start" x="6.9368" y="3.0122" font-size="0.1966"><![CDATA[B]]></text>
        <text font-family="Arial" fill="#000000" style="white-space:pre;" font-weight="400" text-anchor="start" x="8.0181" y="2.8017" font-size="0.1966"><![CDATA[5]]></text>
        <text font-family="Arial" fill="#000000" style="white-space:pre;" font-weight="400" text-anchor="start" x="8.0181" y="3.0122" font-size="0.1966"><![CDATA[6]]></text>
        <text font-family="Arial" fill="#000000" style="white-space:pre;" font-weight="400" text-anchor="start" x="10.1805" y="2.8017" font-size="0.1966"><![CDATA[3]]></text>
        <text font-family="Arial" fill="#000000" style="white-space:pre;" font-weight="400" text-anchor="start" x="10.1805" y="3.0122" font-size="0.1966"><![CDATA[4]]></text>
        <text font-family="Arial" fill="#000000" style="white-space:pre;" font-weight="400" text-anchor="start" x="11.2758" y="2.8017" font-size="0.1966"><![CDATA[1]]></text>
        <text font-family="Arial" fill="#000000" style="white-space:pre;" font-weight="400" text-anchor="start" x="11.2758" y="3.0122" font-size="0.1966"><![CDATA[2]]></text>
        <text font-family="Arial" fill="#FF0000" style="white-space:pre;" font-weight="700" text-anchor="start" x="11.7673" y="2.9041" font-size="0.1545"><![CDATA[PoE+]]></text>
        <path d="M 40.2859,4.3042 L 40.2859,2.1799 L 41.1781,2.1799 L 41.1781,1.6800 L 41.5405,1.6800 L 41.5405,1.1802 L 42.6000,1.1802 L 42.6000,1.6800 L 42.9624,1.6800 L 42.9624,2.1799 L 43.8545,2.1799 L 43.8545,4.3042 L 40.2859,4.3042 Z" stroke="#161616" stroke-width="0.1195" stroke-linecap="round" stroke-linejoin="round" fill="#000000"/>
        <path d="M 40.2859,5.3456 L 40.2859,7.4700 L 41.1781,7.4700 L 41.1781,7.9698 L 41.5405,7.9698 L 41.5405,8.4696 L 42.6000,8.4696 L 42.6000,7.9698 L 42.9624,7.9698 L 42.9624,7.4700 L 43.8545,7.4700 L 43.8545,5.3456 L 40.2859,5.3456 Z" stroke="#161616" stroke-width="0.1195" stroke-linecap="round" stroke-linejoin="round" fill="#000000"/>
        <path d="M 35.9646,4.3042 L 35.9646,2.1799 L 36.8568,2.1799 L 36.8568,1.6800 L 37.2192,1.6800 L 37.2192,1.1802 L 38.2786,1.1802 L 38.2786,1.6800 L 38.6411,1.6800 L 38.6411,2.1799 L 39.5332,2.1799 L 39.5332,4.3042 L 35.9646,4.3042 Z" stroke="#161616" stroke-width="0.1195" stroke-linecap="round" stroke-linejoin="round" fill="#000000"/>
        <path d="M 35.9089,5.3456 L 35.9089,7.4700 L 36.8010,7.4700 L 36.8010,7.9698 L 37.1634,7.9698 L 37.1634,8.4696 L 38.2229,8.4696 L 38.2229,7.9698 L 38.5853,7.9698 L 38.5853,7.4700 L 39.4774,7.4700 L 39.4774,5.3456 L 35.9089,5.3456 Z" stroke="#161616" stroke-width="0.1195" stroke-linecap="round" stroke-linejoin="round" fill="#000000"/>
        <path d="M 27.2523,4.3042 L 27.2523,2.1799 L 28.1444,2.1799 L 28.1444,1.6800 L 28.5068,1.6800 L 28.5068,1.1802 L 29.5663,1.1802 L 29.5663,1.6800 L 29.9287,1.6800 L 29.9287,2.1799 L 30.8208,2.1799 L 30.8208,4.3042 L 27.2523,4.3042 Z" stroke="#161616" stroke-width="0.1195" stroke-linecap="round" stroke-linejoin="round" fill="#000000"/>
        <path d="M 27.2523,5.3456 L 27.2523,7.4700 L 28.1444,7.4700 L 28.1444,7.9698 L 28.5068,7.9698 L 28.5068,8.4696 L 29.5663,8.4696 L 29.5663,7.9698 L 29.9287,7.9698 L 29.9287,7.4700 L 30.8208,7.4700 L 30.8208,5.3456 L 27.2523,5.3456 Z" stroke="#161616" stroke-width="0.1195" stroke-linecap="round" stroke-linejoin="round" fill="#000000"/>
        <path d="M 22.9309,4.3042 L 22.9309,2.1799 L 23.8231,2.1799 L 23.8231,1.6800 L 24.1855,1.6800 L 24.1855,1.1802 L 25.2449,1.1802 L 25.2449,1.6800 L 25.6074,1.6800 L 25.6074,2.1799 L 26.4995,2.1799 L 26.4995,4.3042 L 22.9309,4.3042 Z" stroke="#161616" stroke-width="0.1195" stroke-linecap="round" stroke-linejoin="round" fill="#000000"/>
        <path d="M 22.9309,5.3456 L 22.9309,7.4700 L 23.8231,7.4700 L 23.8231,7.9698 L 24.1855,7.9698 L 24.1855,8.4696 L 25.2449,8.4696 L 25.2449,7.9698 L 25.6074,7.9698 L 25.6074,7.4700 L 26.4995,7.4700 L 26.4995,5.3456 L 22.9309,5.3456 Z" stroke="#161616" stroke-width="0.1195" stroke-linecap="round" stroke-linejoin="round" fill="#000000"/>
        <path d="M 16.8532,4.3042 L 16.8532,2.1799 L 17.7453,2.1799 L 17.7453,1.6800 L 18.1078,1.6800 L 18.1078,1.1802 L 19.1672,1.1802 L 19.1672,1.6800 L 19.5296,1.6800 L 19.5296,2.1799 L 20.4218,2.1799 L 20.4218,4.3042 L 16.8532,4.3042 Z" stroke="#161616" stroke-width="0.1195" stroke-linecap="round" stroke-linejoin="round" fill="#000000"/>
        <path d="M 16.8532,5.3456 L 16.8532,7.4700 L 17.7453,7.4700 L 17.7453,7.9698 L 18.1078,7.9698 L 18.1078,8.4696 L 19.1672,8.4696 L 19.1672,7.9698 L 19.5296,7.9698 L 19.5296,7.4700 L 20.4218,7.4700 L 20.4218,5.3456 L 16.8532,5.3456 Z" stroke="#161616" stroke-width="0.1195" stroke-linecap="round" stroke-linejoin="round" fill="#000000"/>
        <path d="M 10.8451,5.6511 L 10.8451,3.5267 L 11.7373,3.5267 L 11.7373,3.0269 L 12.0997,3.0269 L 12.0997,2.5270 L 13.1591,2.5270 L 13.1591,3.0269 L 13.5216,3.0269 L 13.5216,3.5267 L 14.4137,3.5267 L 14.4137,5.6511 L 10.8451,5.6511 Z" stroke="#161616" stroke-width="0.1195" stroke-linecap="round" stroke-linejoin="round" fill="#000000"/>
        <path d="M 10.9617,6.3738 L 10.9477,6.3738 L 10.9338,6.3738 L 10.9198,6.3738 L 10.9198,6.3875 L 10.9059,6.3875 L 10.8919,6.3875 L 10.8780,6.4013 L 10.8640,6.4013 L 10.8640,6.4150 L 10.8501,6.4150 L 10.8501,6.4287 L 10.8361,6.4287 L 10.8361,6.4425 L 10.8222,6.4562 L 10.8222,6.4699 L 10.8222,6.4837 L 10.8082,6.4837 L 10.8082,6.4974 L 10.8082,6.5112 L 10.8082,6.5249 L 10.8082,6.5386 L 10.8082,6.5524 L 10.8082,6.5798 L 10.8082,6.6073 L 10.8082,6.6348 L 10.8082,6.6760 L 10.8082,6.7172 L 10.8082,6.7721 L 10.8082,6.8134 L 10.8082,6.8683 L 10.8082,6.9233 L 10.8082,6.9782 L 10.8082,7.0331 L 10.8082,7.1018 L 10.8082,7.1568 L 10.8082,7.2117 L 10.8082,7.2804 L 10.8082,7.3354 L 10.8082,7.3903 L 10.8082,7.4452 L 10.8082,7.5002 L 10.8082,7.5414 L 10.8082,7.5963 L 10.8082,7.6376 L 10.8082,7.6788 L 10.8082,7.7062 L 10.8082,7.7337 L 10.8082,7.7612 L 10.8082,7.7749 L 10.8082,7.7887 L 10.8082,7.8024 L 10.8082,7.8161 L 10.8082,7.8299 L 10.8222,7.8299 L 10.8222,7.8436 L 10.8222,7.8573 L 10.8361,7.8711 L 10.8361,7.8848 L 10.8501,7.8848 L 10.8501,7.8986 L 10.8640,7.8986 L 10.8640,7.9123 L 10.8780,7.9123 L 10.8919,7.9260 L 10.9059,7.9260 L 10.9198,7.9260 L 10.9198,7.9398 L 10.9338,7.9398 L 10.9477,7.9398 L 10.9617,7.9398 L 10.9756,7.9398 L 11.0035,7.9398 L 11.0453,7.9398 L 11.1011,7.9398 L 11.1848,7.9398 L 11.2824,7.9398 L 11.3800,7.9398 L 11.4916,7.9398 L 11.6171,7.9398 L 11.7566,7.9398 L 11.8960,7.9398 L 12.0355,7.9398 L 12.1889,7.9398 L 12.3423,7.9398 L 12.5097,7.9398 L 12.6631,7.9398 L 12.8165,7.9398 L 12.9838,7.9398 L 13.1373,7.9398 L 13.2907,7.9398 L 13.4301,7.9398 L 13.5696,7.9398 L 13.7090,7.9398 L 13.8346,7.9398 L 13.9461,7.9398 L 14.0438,7.9398 L 14.1414,7.9398 L 14.2251,7.9398 L 14.2808,7.9398 L 14.3227,7.9398 L 14.3506,7.9398 L 14.3645,7.9398 L 14.3785,7.9398 L 14.3924,7.9398 L 14.4064,7.9398 L 14.4064,7.9260 L 14.4203,7.9260 L 14.4342,7.9260 L 14.4482,7.9123 L 14.4621,7.9123 L 14.4621,7.8986 L 14.4761,7.8986 L 14.4761,7.8848 L 14.4900,7.8848 L 14.4900,7.8711 L 14.5040,7.8573 L 14.5040,7.8436 L 14.5040,7.8299 L 14.5179,7.8299 L 14.5179,7.8161 L 14.5179,7.8024 L 14.5179,7.7887 L 14.5179,7.7749 L 14.5179,7.7612 L 14.5179,7.7337 L 14.5179,7.7062 L 14.5179,7.6788 L 14.5179,7.6376 L 14.5179,7.5963 L 14.5179,7.5414 L 14.5179,7.5002 L 14.5179,7.4452 L 14.5179,7.3903 L 14.5179,7.3354 L 14.5179,7.2804 L 14.5179,7.2117 L 14.5179,7.1568 L 14.5179,7.1018 L 14.5179,7.0331 L 14.5179,6.9782 L 14.5179,6.9233 L 14.5179,6.8683 L 14.5179,6.8134 L 14.5179,6.7721 L 14.5179,6.7172 L 14.5179,6.6760 L 14.5179,6.6348 L 14.5179,6.6073 L 14.5179,6.5798 L 14.5179,6.5524 L 14.5179,6.5386 L 14.5179,6.5249 L 14.5179,6.5112 L 14.5179,6.4974 L 14.5179,6.4837 L 14.5040,6.4837 L 14.5040,6.4699 L 14.5040,6.4562 L 14.4900,6.4425 L 14.4900,6.4287 L 14.4761,6.4287 L 14.4761,6.4150 L 14.4621,6.4150 L 14.4621,6.4013 L 14.4482,6.4013 L 14.4342,6.3875 L 14.4203,6.3875 L 14.4064,6.3875 L 14.4064,6.3738 L 14.3924,6.3738 L 14.3785,6.3738 L 14.3645,6.3738 L 14.3506,6.3738 L 14.3227,6.3738 L 14.2808,6.3738 L 14.2251,6.3738 L 14.1414,6.3738 L 14.0438,6.3738 L 13.9461,6.3738 L 13.8346,6.3738 L 13.7090,6.3738 L 13.5696,6.3738 L 13.4301,6.3738 L 13.2907,6.3738 L 13.1373,6.3738 L 12.9838,6.3738 L 12.8165,6.3738 L 12.6631,6.3738 L 12.5097,6.3738 L 12.3423,6.3738 L 12.1889,6.3738 L 12.0355,6.3738 L 11.8960,6.3738 L 11.7566,6.3738 L 11.6171,6.3738 L 11.4916,6.3738 L 11.3800,6.3738 L 11.2824,6.3738 L 11.1848,6.3738 L 11.1011,6.3738 L 11.0453,6.3738 L 11.0035,6.3738 L 10.9756,6.3738 L 10.9617,6.3738 Z" stroke="#000000" stroke-width="0.1195" stroke-linecap="round" stroke-linejoin="round" fill="#494949"/>
        <path d="M 11.0174,6.4974 L 11.0035,6.4974 L 10.9895,6.4974 L 10.9756,6.4974 L 10.9756,6.5112 L 10.9617,6.5112 L 10.9617,6.5249 L 10.9477,6.5249 L 10.9477,6.5386 L 10.9338,6.5386 L 10.9338,6.5524 L 10.9338,6.5661 L 10.9338,6.5798 L 10.9338,6.5936 L 10.9338,6.6073 L 10.9338,6.6348 L 10.9338,6.6623 L 10.9338,6.6897 L 10.9338,6.7172 L 10.9338,6.7584 L 10.9338,6.7996 L 10.9338,6.8546 L 10.9338,6.8958 L 10.9338,6.9507 L 10.9338,7.0057 L 10.9338,7.0606 L 10.9338,7.1156 L 10.9338,7.1705 L 10.9338,7.2117 L 10.9338,7.2667 L 10.9338,7.3216 L 10.9338,7.3766 L 10.9338,7.4315 L 10.9338,7.4727 L 10.9338,7.5277 L 10.9338,7.5689 L 10.9338,7.6101 L 10.9338,7.6376 L 10.9338,7.6650 L 10.9338,7.6925 L 10.9338,7.7200 L 10.9338,7.7337 L 10.9338,7.7474 L 10.9338,7.7612 L 10.9338,7.7749 L 10.9477,7.7887 L 10.9477,7.8024 L 10.9617,7.8024 L 10.9617,7.8161 L 10.9756,7.8161 L 10.9895,7.8299 L 11.0035,7.8299 L 11.0174,7.8299 L 11.0314,7.8299 L 11.0593,7.8299 L 11.1011,7.8299 L 11.1569,7.8299 L 11.2406,7.8299 L 11.3243,7.8299 L 11.4219,7.8299 L 11.5334,7.8299 L 11.6590,7.8299 L 11.7845,7.8299 L 11.9239,7.8299 L 12.0634,7.8299 L 12.2168,7.8299 L 12.3563,7.8299 L 12.5097,7.8299 L 12.6770,7.8299 L 12.8304,7.8299 L 12.9838,7.8299 L 13.1233,7.8299 L 13.2767,7.8299 L 13.4162,7.8299 L 13.5556,7.8299 L 13.6812,7.8299 L 13.8067,7.8299 L 13.9182,7.8299 L 14.0159,7.8299 L 14.0995,7.8299 L 14.1832,7.8299 L 14.2390,7.8299 L 14.2808,7.8299 L 14.3087,7.8299 L 14.3227,7.8299 L 14.3366,7.8299 L 14.3506,7.8299 L 14.3506,7.8161 L 14.3645,7.8161 L 14.3645,7.8024 L 14.3785,7.8024 L 14.3785,7.7887 L 14.3924,7.7749 L 14.3924,7.7612 L 14.3924,7.7474 L 14.3924,7.7337 L 14.3924,7.7200 L 14.3924,7.6925 L 14.3924,7.6650 L 14.3924,7.6376 L 14.3924,7.6101 L 14.3924,7.5689 L 14.3924,7.5277 L 14.3924,7.4727 L 14.3924,7.4315 L 14.3924,7.3766 L 14.3924,7.3216 L 14.3924,7.2667 L 14.3924,7.2117 L 14.3924,7.1705 L 14.3924,7.1156 L 14.3924,7.0606 L 14.3924,7.0057 L 14.3924,6.9507 L 14.3924,6.8958 L 14.3924,6.8546 L 14.3924,6.7996 L 14.3924,6.7584 L 14.3924,6.7172 L 14.3924,6.6897 L 14.3924,6.6623 L 14.3924,6.6348 L 14.3924,6.6073 L 14.3924,6.5936 L 14.3924,6.5798 L 14.3924,6.5661 L 14.3924,6.5524 L 14.3924,6.5386 L 14.3785,6.5386 L 14.3785,6.5249 L 14.3645,6.5112 L 14.3506,6.5112 L 14.3506,6.4974 L 14.3366,6.4974 L 14.3227,6.4974 L 14.3087,6.4974 L 14.2808,6.4974 L 14.2390,6.4974 L 14.1832,6.4974 L 14.0995,6.4974 L 14.0159,6.4974 L 13.9182,6.4974 L 13.8067,6.4974 L 13.6812,6.4974 L 13.5556,6.4974 L 13.4162,6.4974 L 13.2767,6.4974 L 13.1233,6.4974 L 12.9838,6.4974 L 12.8304,6.4974 L 12.6770,6.4974 L 12.5097,6.4974 L 12.3563,6.4974 L 12.2168,6.4974 L 12.0634,6.4974 L 11.9239,6.4974 L 11.7845,6.4974 L 11.6590,6.4974 L 11.5334,6.4974 L 11.4219,6.4974 L 11.3243,6.4974 L 11.2406,6.4974 L 11.1569,6.4974 L 11.1011,6.4974 L 11.0593,6.4974 L 11.0314,6.4974 L 11.0174,6.4974 Z" stroke="#494949" stroke-width="0.1195" stroke-linecap="round" stroke-linejoin="round" fill="#000000"/>
        <path d="M 11.7566,7.2392 L 11.4498,7.2392 L 11.4498,7.1705 L 11.7566,7.1705 L 11.7566,7.2392 Z" stroke="#494949" stroke-width="0.1195" stroke-linecap="round" stroke-linejoin="round" fill="#494949"/>
        <path d="M 12.4539,7.2392 L 12.1471,7.2392 L 12.1471,7.1705 L 12.4539,7.1705 L 12.4539,7.2392 Z" stroke="#494949" stroke-width="0.1195" stroke-linecap="round" stroke-linejoin="round" fill="#494949"/>
        <path d="M 13.1373,7.2392 L 12.8304,7.2392 L 12.8304,7.1705 L 13.1373,7.1705 L 13.1373,7.2392 Z" stroke="#494949" stroke-width="0.1195" stroke-linecap="round" stroke-linejoin="round" fill="#494949"/>
        <path d="M 13.8485,7.2392 L 13.5417,7.2392 L 13.5417,7.1705 L 13.8485,7.1705 L 13.8485,7.2392 Z" stroke="#494949" stroke-width="0.1195" stroke-linecap="round" stroke-linejoin="round" fill="#494949"/>
        <path d="M 14.1832,6.8134 L 14.1832,6.7859 L 14.1693,6.7584 L 14.1414,6.7447 L 14.1135,6.7447 L 11.2127,6.7447 L 11.1848,6.7447 L 11.1569,6.7584 L 11.1430,6.7859 L 11.1430,6.8134 L 11.1430,7.1018 L 11.1430,7.1293 L 11.1569,7.1568 L 11.1848,7.1705 L 11.2127,7.1705 L 14.1135,7.1705 L 14.1414,7.1705 L 14.1693,7.1568 L 14.1832,7.1293 L 14.1832,7.1018 L 14.1832,6.8134 Z" stroke="#494949" stroke-width="0.1195" stroke-linecap="round" stroke-linejoin="round" fill="#21BCFF"/>
        <path d="M 14.0716,6.9507 L 14.0577,6.8958 L 14.0298,6.8683 L 14.0019,6.8408 L 13.9461,6.8271 L 11.3800,6.8271 L 11.3243,6.8408 L 11.2964,6.8683 L 11.2685,6.8958 L 11.2545,6.9507 L 11.2685,7.0057 L 11.2964,7.0331 L 11.3243,7.0606 L 11.3800,7.0744 L 13.9461,7.0744 L 14.0019,7.0606 L 14.0298,7.0331 L 14.0577,7.0057 L 14.0716,6.9507 Z" stroke="#00A7EF" stroke-width="0.1195" stroke-linecap="round" stroke-linejoin="round" fill="#00A7EF"/>
        <path d="M 10.9338,6.6210 L 10.9198,6.6210 L 10.9059,6.6210 L 10.8919,6.6210 L 10.8780,6.6210 L 10.8640,6.6210 L 10.8501,6.6210 L 10.8361,6.6210 L 10.8222,6.6210 L 10.8082,6.6210 L 10.7943,6.6210 L 10.7804,6.6210 L 10.7804,6.6348 L 10.7664,6.6348 L 10.7664,6.6485 L 10.7525,6.6485 L 10.7525,6.6623 L 10.7385,6.6760 L 10.7385,6.6897 L 10.7385,6.7035 L 10.7385,6.7172 L 10.7385,6.7309 L 10.7385,6.7447 L 10.7385,6.7584 L 10.7385,6.7859 L 10.7385,6.8134 L 10.7385,6.8408 L 10.7385,6.8820 L 10.7385,6.9095 L 10.7385,6.9507 L 10.7385,6.9919 L 10.7385,7.0331 L 10.7385,7.0744 L 10.7385,7.1156 L 10.7385,7.1568 L 10.7385,7.1980 L 10.7385,7.2392 L 10.7385,7.2804 L 10.7385,7.3216 L 10.7385,7.3628 L 10.7385,7.4040 L 10.7385,7.4315 L 10.7385,7.4727 L 10.7385,7.5002 L 10.7385,7.5277 L 10.7385,7.5551 L 10.7385,7.5689 L 10.7385,7.5826 L 10.7385,7.5963 L 10.7385,7.6101 L 10.7385,7.6238 L 10.7385,7.6376 L 10.7525,7.6513 L 10.7525,7.6650 L 10.7664,7.6650 L 10.7664,7.6788 L 10.7804,7.6788 L 10.7804,7.6925 L 10.7943,7.6925 L 10.8082,7.6925 L 10.8222,7.6925 L 10.8361,7.6925 L 10.8501,7.6925 L 10.8640,7.6925 L 10.8780,7.6925 L 10.8919,7.6925 L 10.9059,7.6925 L 10.9198,7.6925 L 10.9338,7.6925 L 10.9338,7.6788 L 10.9338,7.6650 L 10.9338,7.6513 L 10.9338,7.6238 L 10.9338,7.5963 L 10.9338,7.5551 L 10.9338,7.5277 L 10.9338,7.4865 L 10.9338,7.4452 L 10.9338,7.4040 L 10.9338,7.3491 L 10.9338,7.3079 L 10.9338,7.2529 L 10.9338,7.2117 L 10.9338,7.1568 L 10.9338,7.1018 L 10.9338,7.0606 L 10.9338,7.0057 L 10.9338,6.9645 L 10.9338,6.9095 L 10.9338,6.8683 L 10.9338,6.8271 L 10.9338,6.7859 L 10.9338,6.7584 L 10.9338,6.7172 L 10.9338,6.6897 L 10.9338,6.6623 L 10.9338,6.6485 L 10.9338,6.6348 L 10.9338,6.6210 Z" stroke="#000000" stroke-width="0.1195" stroke-linecap="round" stroke-linejoin="round" fill="#EAEAEA"/>
        <path d="M 14.3924,6.6210 L 14.4064,6.6210 L 14.4203,6.6210 L 14.4342,6.6210 L 14.4482,6.6210 L 14.4621,6.6210 L 14.4761,6.6210 L 14.4900,6.6210 L 14.5040,6.6210 L 14.5179,6.6210 L 14.5319,6.6210 L 14.5458,6.6210 L 14.5458,6.6348 L 14.5598,6.6348 L 14.5598,6.6485 L 14.5737,6.6485 L 14.5737,6.6623 L 14.5877,6.6760 L 14.5877,6.6897 L 14.5877,6.7035 L 14.5877,6.7172 L 14.5877,6.7309 L 14.5877,6.7447 L 14.5877,6.7584 L 14.5877,6.7859 L 14.5877,6.8134 L 14.5877,6.8408 L 14.5877,6.8820 L 14.5877,6.9095 L 14.5877,6.9507 L 14.5877,6.9919 L 14.5877,7.0331 L 14.5877,7.0744 L 14.5877,7.1156 L 14.5877,7.1568 L 14.5877,7.1980 L 14.5877,7.2392 L 14.5877,7.2804 L 14.5877,7.3216 L 14.5877,7.3628 L 14.5877,7.4040 L 14.5877,7.4315 L 14.5877,7.4727 L 14.5877,7.5002 L 14.5877,7.5277 L 14.5877,7.5551 L 14.5877,7.5689 L 14.5877,7.5826 L 14.5877,7.5963 L 14.5877,7.6101 L 14.5877,7.6238 L 14.5877,7.6376 L 14.5737,7.6513 L 14.5737,7.6650 L 14.5598,7.6650 L 14.5598,7.6788 L 14.5458,7.6788 L 14.5458,7.6925 L 14.5319,7.6925 L 14.5179,7.6925 L 14.5040,7.6925 L 14.4900,7.6925 L 14.4761,7.6925 L 14.4621,7.6925 L 14.4482,7.6925 L 14.4342,7.6925 L 14.4203,7.6925 L 14.4064,7.6925 L 14.3924,7.6925 L 14.3924,7.6788 L 14.3924,7.6650 L 14.3924,7.6513 L 14.3924,7.6238 L 14.3924,7.5963 L 14.3924,7.5551 L 14.3924,7.5277 L 14.3924,7.4865 L 14.3924,7.4452 L 14.3924,7.4040 L 14.3924,7.3491 L 14.3924,7.3079 L 14.3924,7.2529 L 14.3924,7.2117 L 14.3924,7.1568 L 14.3924,7.1018 L 14.3924,7.0606 L 14.3924,7.0057 L 14.3924,6.9645 L 14.3924,6.9095 L 14.3924,6.8683 L 14.3924,6.8271 L 14.3924,6.7859 L 14.3924,6.7584 L 14.3924,6.7172 L 14.3924,6.6897 L 14.3924,6.6623 L 14.3924,6.6485 L 14.3924,6.6348 L 14.3924,6.6210 Z" stroke="#000000" stroke-width="0.1195" stroke-linecap="round" stroke-linejoin="round" fill="#EAEAEA"/>
        <path d="M 11.1290,6.4974 L 11.1290,6.4837 L 11.1290,6.4699 L 11.1290,6.4562 L 11.1290,6.4425 L 11.1290,6.4287 L 11.1290,6.4150 L 11.1290,6.4013 L 11.1290,6.3875 L 11.1290,6.3738 L 11.1290,6.3601 L 11.1290,6.3463 L 11.1430,6.3463 L 11.1430,6.3326 L 11.1569,6.3188 L 11.1708,6.3188 L 11.1708,6.3051 L 11.1848,6.3051 L 11.1987,6.3051 L 11.2127,6.3051 L 11.2266,6.3051 L 11.2406,6.3051 L 11.2824,6.3051 L 11.3382,6.3051 L 11.4079,6.3051 L 11.4777,6.3051 L 11.5613,6.3051 L 11.6590,6.3051 L 11.7705,6.3051 L 11.8821,6.3051 L 11.9937,6.3051 L 12.1192,6.3051 L 12.2447,6.3051 L 12.3842,6.3051 L 12.5097,6.3051 L 12.6491,6.3051 L 12.7886,6.3051 L 12.9141,6.3051 L 13.0536,6.3051 L 13.1791,6.3051 L 13.3046,6.3051 L 13.4162,6.3051 L 13.5277,6.3051 L 13.6393,6.3051 L 13.7369,6.3051 L 13.8206,6.3051 L 13.8903,6.3051 L 13.9601,6.3051 L 14.0159,6.3051 L 14.0577,6.3051 L 14.0716,6.3051 L 14.0856,6.3051 L 14.0995,6.3051 L 14.1135,6.3051 L 14.1274,6.3051 L 14.1274,6.3188 L 14.1414,6.3188 L 14.1553,6.3188 L 14.1553,6.3326 L 14.1553,6.3463 L 14.1693,6.3463 L 14.1693,6.3601 L 14.1693,6.3738 L 14.1693,6.3875 L 14.1693,6.4013 L 14.1693,6.4150 L 14.1693,6.4287 L 14.1693,6.4425 L 14.1693,6.4562 L 14.1693,6.4699 L 14.1693,6.4837 L 14.1693,6.4974 L 14.1553,6.4974 L 14.1414,6.4974 L 14.0995,6.4974 L 14.0438,6.4974 L 13.9740,6.4974 L 13.8903,6.4974 L 13.7927,6.4974 L 13.6951,6.4974 L 13.5835,6.4974 L 13.4580,6.4974 L 13.3325,6.4974 L 13.2070,6.4974 L 13.0675,6.4974 L 12.9281,6.4974 L 12.7886,6.4974 L 12.6491,6.4974 L 12.5097,6.4974 L 12.3702,6.4974 L 12.2308,6.4974 L 12.0913,6.4974 L 11.9658,6.4974 L 11.8403,6.4974 L 11.7147,6.4974 L 11.6032,6.4974 L 11.5056,6.4974 L 11.4079,6.4974 L 11.3243,6.4974 L 11.2545,6.4974 L 11.1987,6.4974 L 11.1569,6.4974 L 11.1430,6.4974 L 11.1290,6.4974 Z" stroke="#000000" stroke-width="0.1195" stroke-linecap="round" stroke-linejoin="round" fill="#EAEAEA"/>
        <path d="M 11.1290,7.8299 L 11.1290,7.8436 L 11.1290,7.8573 L 11.1290,7.8711 L 11.1290,7.8848 L 11.1290,7.8986 L 11.1290,7.9123 L 11.1290,7.9260 L 11.1290,7.9398 L 11.1290,7.9535 L 11.1290,7.9672 L 11.1290,7.9810 L 11.1430,7.9810 L 11.1430,7.9947 L 11.1569,8.0084 L 11.1708,8.0084 L 11.1708,8.0222 L 11.1848,8.0222 L 11.1987,8.0222 L 11.2127,8.0222 L 11.2266,8.0222 L 11.2406,8.0222 L 11.2824,8.0222 L 11.3382,8.0222 L 11.4079,8.0222 L 11.4777,8.0222 L 11.5613,8.0222 L 11.6590,8.0222 L 11.7705,8.0222 L 11.8821,8.0222 L 11.9937,8.0222 L 12.1192,8.0222 L 12.2447,8.0222 L 12.3842,8.0222 L 12.5097,8.0222 L 12.6491,8.0222 L 12.7886,8.0222 L 12.9141,8.0222 L 13.0536,8.0222 L 13.1791,8.0222 L 13.3046,8.0222 L 13.4162,8.0222 L 13.5277,8.0222 L 13.6393,8.0222 L 13.7369,8.0222 L 13.8206,8.0222 L 13.8903,8.0222 L 13.9601,8.0222 L 14.0159,8.0222 L 14.0577,8.0222 L 14.0716,8.0222 L 14.0856,8.0222 L 14.0995,8.0222 L 14.1135,8.0222 L 14.1274,8.0222 L 14.1274,8.0084 L 14.1414,8.0084 L 14.1553,8.0084 L 14.1553,7.9947 L 14.1553,7.9810 L 14.1693,7.9810 L 14.1693,7.9672 L 14.1693,7.9535 L 14.1693,7.9398 L 14.1693,7.9260 L 14.1693,7.9123 L 14.1693,7.8986 L 14.1693,7.8848 L 14.1693,7.8711 L 14.1693,7.8573 L 14.1693,7.8436 L 14.1693,7.8299 L 14.1553,7.8299 L 14.1414,7.8299 L 14.0995,7.8299 L 14.0438,7.8299 L 13.9740,7.8299 L 13.8903,7.8299 L 13.7927,7.8299 L 13.6951,7.8299 L 13.5835,7.8299 L 13.4580,7.8299 L 13.3325,7.8299 L 13.2070,7.8299 L 13.0675,7.8299 L 12.9281,7.8299 L 12.7886,7.8299 L 12.6491,7.8299 L 12.5097,7.8299 L 12.3702,7.8299 L 12.2308,7.8299 L 12.0913,7.8299 L 11.9658,7.8299 L 11.8403,7.8299 L 11.7147,7.8299 L 11.6032,7.8299 L 11.5056,7.8299 L 11.4079,7.8299 L 11.3243,7.8299 L 11.2545,7.8299 L 11.1987,7.8299 L 11.1569,7.8299 L 11.1430,7.8299 L 11.1290,7.8299 Z" stroke="#000000" stroke-width="0.1195" stroke-linecap="round" stroke-linejoin="round" fill="#EAEAEA"/>
        <path d="M 55.6619,4.5778 L 55.6619,4.5603 L 55.6619,4.5428 L 55.6448,4.5428 L 55.6448,4.5252 L 55.6448,4.5077 L 55.6277,4.5077 L 55.6277,4.4901 L 55.6106,4.4901 L 55.5936,4.4726 L 55.5765,4.4726 L 55.5594,4.4551 L 55.5423,4.4551 L 55.5252,4.4551 L 55.5082,4.4551 L 55.4911,4.4551 L 55.4740,4.4551 L 55.4569,4.4551 L 55.4398,4.4551 L 55.4398,4.4726 L 55.4228,4.4726 L 55.4057,4.4726 L 55.3886,4.4901 L 55.3715,4.4901 L 55.3715,4.5077 L 55.3544,4.5077 L 55.3544,4.5252 L 55.3544,4.5428 L 55.3374,4.5428 L 55.3374,4.5603 L 55.3374,4.5778 L 55.3374,4.5954 L 55.3374,4.6129 L 55.3374,4.6305 L 55.3374,4.6480 L 55.3374,4.6655 L 55.3374,4.7006 L 55.3374,4.7182 L 55.3374,4.7532 L 55.3374,4.7883 L 55.3374,4.8234 L 55.3374,4.8585 L 55.3374,4.8936 L 55.3374,4.9286 L 55.3374,4.9637 L 55.3374,4.9988 L 55.3374,5.0339 L 55.3374,5.0690 L 55.3374,5.1040 L 55.3374,5.1391 L 55.3374,5.1742 L 55.3374,5.2093 L 55.3374,5.2268 L 55.3374,5.2619 L 55.3374,5.2794 L 55.3374,5.2970 L 55.3374,5.3145 L 55.3374,5.3320 L 55.3374,5.3496 L 55.3374,5.3671 L 55.3374,5.3847 L 55.3374,5.4022 L 55.3203,5.4197 L 55.3203,5.4373 L 55.3203,5.4548 L 55.3032,5.4724 L 55.3032,5.4899 L 55.2861,5.4899 L 55.2861,5.5074 L 55.2690,5.5250 L 55.2520,5.5425 L 55.2349,5.5601 L 55.2178,5.5601 L 55.2178,5.5776 L 55.2007,5.5776 L 55.1837,5.5951 L 55.1666,5.5951 L 55.1495,5.5951 L 55.1495,5.6127 L 55.1324,5.6127 L 55.1153,5.6127 L 55.0983,5.6302 L 55.0812,5.6302 L 55.0641,5.6302 L 55.0470,5.6302 L 55.0299,5.6302 L 55.0129,5.6302 L 54.9958,5.6302 L 54.9787,5.6302 L 54.9616,5.6302 L 54.9445,5.6302 L 54.9275,5.6302 L 54.9104,5.6302 L 54.8933,5.6302 L 54.8762,5.6302 L 54.8591,5.6302 L 54.8421,5.6302 L 54.8250,5.6302 L 54.8079,5.6302 L 54.7908,5.6302 L 54.7737,5.6302 L 54.7567,5.6302 L 54.7396,5.6302 L 54.7225,5.6302 L 54.7054,5.6302 L 54.6883,5.6302 L 54.6713,5.6302 L 54.6542,5.6302 L 54.6371,5.6302 L 54.6200,5.6302 L 54.6030,5.6302 L 54.5859,5.6302 L 54.5688,5.6302 L 54.5517,5.6302 L 54.5346,5.6302 L 54.5176,5.6302 L 54.5005,5.6127 L 54.4834,5.6127 L 54.4663,5.6127 L 54.4663,5.5951 L 54.4492,5.5951 L 54.4322,5.5951 L 54.4151,5.5776 L 54.3980,5.5776 L 54.3980,5.5601 L 54.3809,5.5601 L 54.3638,5.5425 L 54.3468,5.5250 L 54.3297,5.5074 L 54.3297,5.4899 L 54.3126,5.4899 L 54.3126,5.4724 L 54.2955,5.4548 L 54.2955,5.4373 L 54.2955,5.4197 L 54.2784,5.4022 L 54.2784,5.3847 L 54.2784,5.3671 L 54.2784,5.3496 L 54.2784,5.3320 L 54.2784,5.3145 L 54.2784,5.2970 L 54.2784,5.2794 L 54.2784,5.2619 L 54.2784,5.2268 L 54.2784,5.2093 L 54.2784,5.1742 L 54.2784,5.1391 L 54.2784,5.1040 L 54.2784,5.0690 L 54.2784,5.0339 L 54.2784,4.9988 L 54.2784,4.9637 L 54.2784,4.9286 L 54.2784,4.8936 L 54.2784,4.8585 L 54.2784,4.8234 L 54.2784,4.7883 L 54.2784,4.7532 L 54.2784,4.7182 L 54.2784,4.7006 L 54.2784,4.6655 L 54.2784,4.6480 L 54.2784,4.6305 L 54.2784,4.6129 L 54.2784,4.5954 L 54.2784,4.5778 L 54.2784,4.5603 L 54.2784,4.5428 L 54.2614,4.5428 L 54.2614,4.5252 L 54.2614,4.5077 L 54.2443,4.5077 L 54.2443,4.4901 L 54.2272,4.4901 L 54.2101,4.4726 L 54.1930,4.4726 L 54.1760,4.4726 L 54.1760,4.4551 L 54.1589,4.4551 L 54.1418,4.4551 L 54.1247,4.4551 L 54.1076,4.4551 L 54.0906,4.4551 L 54.0735,4.4551 L 54.0564,4.4551 L 54.0393,4.4726 L 54.0223,4.4726 L 54.0052,4.4901 L 53.9881,4.4901 L 53.9881,4.5077 L 53.9710,4.5077 L 53.9710,4.5252 L 53.9710,4.5428 L 53.9539,4.5428 L 53.9539,4.5603 L 53.9539,4.5778 L 53.9539,4.5954 L 53.9539,4.6305 L 53.9539,4.7006 L 53.9539,4.7708 L 53.9539,4.8936 L 53.9539,5.0163 L 53.9539,5.1567 L 53.9539,5.3145 L 53.9539,5.4724 L 53.9539,5.6653 L 53.9539,5.8582 L 53.9539,6.0512 L 53.9539,6.2617 L 53.9539,6.4897 L 53.9539,6.7001 L 53.9539,6.9282 L 53.9539,7.1386 L 53.9539,7.3491 L 53.9539,7.5771 L 53.9539,7.7876 L 53.9539,7.9805 L 53.9539,8.1735 L 53.9539,8.3664 L 53.9539,8.5243 L 53.9539,8.6821 L 53.9539,8.8224 L 53.9539,8.9452 L 53.9539,9.0680 L 53.9539,9.1382 L 53.9539,9.2083 L 53.9539,9.2434 L 53.9539,9.2609 L 53.9710,9.2609 L 53.9881,9.2609 L 54.0223,9.2609 L 54.0735,9.2609 L 54.1076,9.2609 L 54.1589,9.2609 L 54.2272,9.2609 L 54.2784,9.2609 L 54.3468,9.2609 L 54.4151,9.2609 L 54.5005,9.2609 L 54.5688,9.2609 L 54.6542,9.2609 L 54.7225,9.2609 L 54.8079,9.2609 L 54.8933,9.2609 L 54.9616,9.2609 L 55.0470,9.2609 L 55.1153,9.2609 L 55.2007,9.2609 L 55.2690,9.2609 L 55.3374,9.2609 L 55.3886,9.2609 L 55.4569,9.2609 L 55.5082,9.2609 L 55.5423,9.2609 L 55.5936,9.2609 L 55.6277,9.2609 L 55.6448,9.2609 L 55.6619,9.2609 L 55.6619,9.2434 L 55.6619,9.2083 L 55.6619,9.1382 L 55.6619,9.0680 L 55.6619,8.9452 L 55.6619,8.8224 L 55.6619,8.6821 L 55.6619,8.5243 L 55.6619,8.3664 L 55.6619,8.1735 L 55.6619,7.9805 L 55.6619,7.7876 L 55.6619,7.5771 L 55.6619,7.3491 L 55.6619,7.1386 L 55.6619,6.9282 L 55.6619,6.7001 L 55.6619,6.4897 L 55.6619,6.2617 L 55.6619,6.0512 L 55.6619,5.8582 L 55.6619,5.6653 L 55.6619,5.4724 L 55.6619,5.3145 L 55.6619,5.1567 L 55.6619,5.0163 L 55.6619,4.8936 L 55.6619,4.7708 L 55.6619,4.7006 L 55.6619,4.6305 L 55.6619,4.5954 L 55.6619,4.5778 Z" stroke="#000000" stroke-width="0.1195" stroke-linecap="round" stroke-linejoin="round" fill="#494949"/>
        <path d="M 55.4911,6.1564 L 54.1247,6.1564 L 54.1247,9.1382 L 55.4911,9.1382 L 55.4911,6.1564 Z" stroke="#000000" stroke-width="0.1195" stroke-linecap="round" stroke-linejoin="round" fill="#666666"/>
        <path d="M 55.3374,7.7701 L 54.2784,7.7701 L 54.2784,8.8575 L 55.3374,8.8575 L 55.3374,7.7701 Z" stroke="#000000" stroke-width="0.1195" stroke-linecap="round" stroke-linejoin="round" fill="#333333"/>
        <path d="M 55.3374,6.4546 L 54.2784,6.4546 L 54.2784,7.2789 L 54.5346,7.5420 L 55.0983,7.5420 L 55.3374,7.2965 L 55.3374,6.4546 Z" stroke="#000000" stroke-width="0.1195" stroke-linecap="round" stroke-linejoin="round" fill="#333333"/>
        <path d="M 54.9445,8.1735 L 54.6713,8.1735 L 54.6713,8.4541 L 54.9445,8.4541 L 54.9445,8.1735 Z" stroke="#000000" stroke-width="0.1195" stroke-linecap="round" stroke-linejoin="round" fill="#EAEAEA"/>
        <path d="M 54.9445,6.8580 L 54.6713,6.8580 L 54.6713,7.1386 L 54.9445,7.1386 L 54.9445,6.8580 Z" stroke="#000000" stroke-width="0.1195" stroke-linecap="round" stroke-linejoin="round" fill="#EAEAEA"/>
        <path d="M 55.1837,5.9284 L 54.4322,5.9284 L 54.4322,6.1564 L 55.1837,6.1564 L 55.1837,5.9284 Z" stroke="#000000" stroke-width="0.1195" stroke-linecap="round" stroke-linejoin="round" fill="#7F7F7F"/>
        <path d="M 55.3374,4.8585 L 55.3203,4.8585 L 55.3032,4.8585 L 55.2861,4.8585 L 55.2690,4.8585 L 55.2349,4.8585 L 55.2007,4.8585 L 55.1666,4.8585 L 55.1324,4.8585 L 55.0983,4.8585 L 55.0470,4.8585 L 54.9958,4.8585 L 54.9616,4.8585 L 54.9104,4.8585 L 54.8591,4.8585 L 54.8079,4.8585 L 54.7567,4.8585 L 54.7054,4.8585 L 54.6542,4.8585 L 54.6200,4.8585 L 54.5688,4.8585 L 54.5176,4.8585 L 54.4834,4.8585 L 54.4492,4.8585 L 54.4151,4.8585 L 54.3809,4.8585 L 54.3468,4.8585 L 54.3297,4.8585 L 54.3126,4.8585 L 54.2955,4.8585 L 54.2784,4.8585 L 54.2784,4.8760 L 54.2784,4.8936 L 54.2784,4.9111 L 54.2784,4.9286 L 54.2784,4.9462 L 54.2784,4.9637 L 54.2784,4.9813 L 54.2784,5.0163 L 54.2784,5.0339 L 54.2784,5.0514 L 54.2784,5.0690 L 54.2784,5.1040 L 54.2784,5.1216 L 54.2784,5.1391 L 54.2784,5.1567 L 54.2784,5.1742 L 54.2784,5.2093 L 54.2784,5.2268 L 54.2784,5.2444 L 54.2784,5.2619 L 54.2784,5.2794 L 54.2784,5.2970 L 54.2784,5.3145 L 54.2784,5.3320 L 54.2784,5.3496 L 54.2784,5.3671 L 54.2784,5.3847 L 54.2955,5.4022 L 54.2955,5.4197 L 54.2955,5.4373 L 54.3126,5.4548 L 54.3126,5.4724 L 54.3297,5.4899 L 54.3468,5.5074 L 54.3468,5.5250 L 54.3638,5.5250 L 54.3638,5.5425 L 54.3809,5.5425 L 54.3980,5.5601 L 54.3980,5.5776 L 54.4151,5.5776 L 54.4322,5.5776 L 54.4492,5.5951 L 54.4663,5.5951 L 54.4663,5.6127 L 54.4834,5.6127 L 54.5005,5.6127 L 54.5176,5.6127 L 54.5346,5.6302 L 54.5517,5.6302 L 54.5688,5.6302 L 54.5859,5.6302 L 54.6030,5.6302 L 54.6200,5.6302 L 54.6371,5.6302 L 54.6542,5.6302 L 54.6713,5.6302 L 54.6883,5.6302 L 54.7054,5.6302 L 54.7225,5.6302 L 54.7396,5.6302 L 54.7567,5.6302 L 54.7737,5.6302 L 54.7908,5.6302 L 54.8079,5.6302 L 54.8250,5.6302 L 54.8421,5.6302 L 54.8591,5.6302 L 54.8762,5.6302 L 54.8933,5.6302 L 54.9104,5.6302 L 54.9275,5.6302 L 54.9445,5.6302 L 54.9616,5.6302 L 54.9787,5.6302 L 54.9958,5.6302 L 55.0129,5.6302 L 55.0299,5.6302 L 55.0470,5.6302 L 55.0641,5.6302 L 55.0812,5.6302 L 55.0983,5.6127 L 55.1153,5.6127 L 55.1324,5.6127 L 55.1495,5.6127 L 55.1495,5.5951 L 55.1666,5.5951 L 55.1837,5.5776 L 55.2007,5.5776 L 55.2178,5.5776 L 55.2178,5.5601 L 55.2349,5.5425 L 55.2520,5.5425 L 55.2520,5.5250 L 55.2690,5.5250 L 55.2690,5.5074 L 55.2861,5.4899 L 55.3032,5.4724 L 55.3032,5.4548 L 55.3203,5.4373 L 55.3203,5.4197 L 55.3203,5.4022 L 55.3374,5.3847 L 55.3374,5.3671 L 55.3374,5.3496 L 55.3374,5.3320 L 55.3374,5.3145 L 55.3374,5.2970 L 55.3374,5.2794 L 55.3374,5.2619 L 55.3374,5.2444 L 55.3374,5.2268 L 55.3374,5.2093 L 55.3374,5.1742 L 55.3374,5.1567 L 55.3374,5.1391 L 55.3374,5.1216 L 55.3374,5.1040 L 55.3374,5.0690 L 55.3374,5.0514 L 55.3374,5.0339 L 55.3374,5.0163 L 55.3374,4.9813 L 55.3374,4.9637 L 55.3374,4.9462 L 55.3374,4.9286 L 55.3374,4.9111 L 55.3374,4.8936 L 55.3374,4.8760 L 55.3374,4.8585 Z" stroke="#000000" stroke-width="0.1195" stroke-linecap="round" stroke-linejoin="round" fill="#333333"/>
      </g>
      <!--emf-blob end-->
    </g>
  </g>
</svg>
