<svg xmlns="http://www.w3.org/2000/svg" xmlns:xlink="http://www.w3.org/1999/xlink" version="1.1" width="3.4032000000" height="0.6912000000" viewBox="0 0 61.2567 12.4441">
  <title><![CDATA[FG-70D-POE]]></title>
  <g transform=" scale(4.000000) ">
    <!--converted by libvisio2svg-->
    <g transform=" translate(0.000000,0.000000) ">
      <!--emf-blob start-->
      <g transform="translate(-0.0000, -0.0000)">
        <path d="M 61.2005,0.3066 L 61.2005,0.2508 L 61.1724,0.1951 L 61.1583,0.1533 L 61.0740,0.0697 L 61.0318,0.0557 L 60.9756,0.0279 L 0.2530,0.0279 L 0.1968,0.0557 L 0.1546,0.0697 L 0.0703,0.1533 L 0.0562,0.1951 L 0.0281,0.2508 L 0.0281,12.0685 L 0.0562,12.1243 L 0.0703,12.1661 L 0.1546,12.2497 L 0.1968,12.2636 L 0.2530,12.2915 L 60.9756,12.2915 L 61.0318,12.2636 L 61.0740,12.2497 L 61.1583,12.1661 L 61.1724,12.1243 L 61.2005,12.0685 L 61.2005,12.0128 L 61.2005,0.3066 Z" stroke="#000000" stroke-width="0.1199" stroke-linecap="round" stroke-linejoin="round" fill="#EDEDED"/>
        <path d="M 0.3092,0.0279 L 0.2530,0.0279 L 0.2390,0.0418 L 0.1968,0.0418 L 0.1827,0.0557 L 0.1687,0.0557 L 0.1546,0.0697 L 0.1406,0.0697 L 0.1406,0.0836 L 0.1265,0.0836 L 0.1124,0.0976 L 0.1124,0.1115 L 0.0984,0.1115 L 0.0843,0.1254 L 0.0843,0.1394 L 0.0703,0.1394 L 0.0703,0.1533 L 0.0562,0.1672 L 0.0562,0.1812 L 0.0422,0.1951 L 0.0422,0.2369 L 0.0281,0.2508 L 0.0281,1.0313 L 0.2530,1.0313 L 0.2530,0.3902 L 0.2671,0.3763 L 0.2671,0.3345 L 0.2811,0.3066 L 0.2811,0.2927 L 0.2952,0.2787 L 0.2952,0.2648 L 0.3373,0.2230 L 0.3373,0.2090 L 0.3514,0.2090 L 0.3655,0.1951 L 0.3655,0.1812 L 0.3795,0.1812 L 0.3936,0.1672 L 0.4217,0.1672 L 0.4357,0.1533 L 0.4639,0.1533 L 0.4779,0.1394 L 60.7507,0.1394 L 60.7647,0.1533 L 60.7928,0.1533 L 60.8069,0.1672 L 60.8350,0.1672 L 60.8491,0.1812 L 60.8631,0.1812 L 60.8631,0.1951 L 60.8772,0.2090 L 60.8912,0.2090 L 60.9053,0.2230 L 60.9053,0.2369 L 60.9334,0.2648 L 60.9334,0.2787 L 60.9475,0.2927 L 60.9475,0.3066 L 60.9615,0.3345 L 60.9615,0.3763 L 60.9756,0.3902 L 60.9756,1.0313 L 61.2005,1.0313 L 61.2005,0.2508 L 61.1864,0.2369 L 61.1864,0.1951 L 61.1724,0.1812 L 61.1724,0.1672 L 61.1583,0.1533 L 61.1583,0.1394 L 61.1443,0.1394 L 61.1443,0.1254 L 61.1021,0.0836 L 61.0880,0.0836 L 61.0880,0.0697 L 61.0740,0.0697 L 61.0599,0.0557 L 61.0459,0.0557 L 61.0318,0.0418 L 60.9896,0.0418 L 60.9756,0.0279 L 0.4779,0.0279 L 0.3092,0.0279 Z" stroke="#000000" stroke-width="0.1199" stroke-linecap="round" stroke-linejoin="round" fill="#EFEFEF"/>
        <path d="M 0.3092,12.2915 L 0.2530,12.2915 L 0.2390,12.2776 L 0.1968,12.2776 L 0.1827,12.2636 L 0.1687,12.2636 L 0.1546,12.2497 L 0.1406,12.2497 L 0.1406,12.2358 L 0.1265,12.2358 L 0.0843,12.1939 L 0.0843,12.1800 L 0.0703,12.1800 L 0.0703,12.1661 L 0.0562,12.1521 L 0.0562,12.1382 L 0.0422,12.1243 L 0.0422,12.0825 L 0.0281,12.0685 L 0.0281,11.2881 L 0.2530,11.2881 L 0.2530,11.9292 L 0.2671,11.9431 L 0.2671,11.9988 L 0.2811,12.0128 L 0.2811,12.0267 L 0.2952,12.0407 L 0.2952,12.0546 L 0.3373,12.0964 L 0.3373,12.1103 L 0.3514,12.1103 L 0.3655,12.1243 L 0.3655,12.1382 L 0.3795,12.1382 L 0.3936,12.1521 L 0.4076,12.1521 L 0.4217,12.1661 L 0.4639,12.1661 L 0.4779,12.1800 L 60.7507,12.1800 L 60.7647,12.1661 L 60.8069,12.1661 L 60.8210,12.1521 L 60.8350,12.1521 L 60.8491,12.1382 L 60.8631,12.1382 L 60.8631,12.1243 L 60.8772,12.1103 L 60.8912,12.1103 L 60.9053,12.0964 L 60.9053,12.0825 L 60.9334,12.0546 L 60.9334,12.0407 L 60.9475,12.0267 L 60.9475,12.0128 L 60.9615,11.9988 L 60.9615,11.9431 L 60.9756,11.9292 L 60.9756,11.2881 L 61.2005,11.2881 L 61.2005,12.0685 L 61.1864,12.0825 L 61.1864,12.1243 L 61.1724,12.1382 L 61.1724,12.1521 L 61.1583,12.1661 L 61.1583,12.1800 L 61.1443,12.1800 L 61.1443,12.1939 L 61.1302,12.2079 L 61.1302,12.2218 L 61.1161,12.2218 L 61.1021,12.2358 L 61.0880,12.2358 L 61.0880,12.2497 L 61.0740,12.2497 L 61.0599,12.2636 L 61.0459,12.2636 L 61.0318,12.2776 L 60.9896,12.2776 L 60.9756,12.2915 L 0.4779,12.2915 L 0.3092,12.2915 Z" stroke="#000000" stroke-width="0.1199" stroke-linecap="round" stroke-linejoin="round" fill="#EFEFEF"/>
        <path d="M 21.3232,2.3412 L 16.2911,2.3412 L 16.2911,9.9781 L 21.3232,9.9781 L 21.3232,2.3412 Z" stroke="#000000" stroke-width="0.1199" stroke-linecap="round" stroke-linejoin="round" fill="#000000"/>
        <path d="M 16.4035,2.4527 L 21.2107,2.4527 L 21.2107,9.8666 L 16.4035,9.8666 L 16.4035,2.4527 Z" stroke="#BFBFBF" stroke-width="0.1199" stroke-linecap="round" stroke-linejoin="round" fill="#BFBFBF"/>
        <path d="M 8.6305,6.1039 L 12.3413,6.1039 L 12.3413,9.6715 L 8.6305,9.6715 L 8.6305,6.1039 Z" stroke="#EFEFEF" stroke-width="0.1199" stroke-linecap="round" stroke-linejoin="round" fill="#AAA29B"/>
        <path d="M 46.4556,2.3412 L 21.6043,2.3412 L 21.6043,9.9781 L 46.4556,9.9781 L 46.4556,2.3412 Z" stroke="#000000" stroke-width="0.1199" stroke-linecap="round" stroke-linejoin="round" fill="#000000"/>
        <path d="M 52.4716,2.3412 L 47.4395,2.3412 L 47.4395,9.9781 L 52.4716,9.9781 L 52.4716,2.3412 Z" stroke="#000000" stroke-width="0.1199" stroke-linecap="round" stroke-linejoin="round" fill="#000000"/>
        <path d="M 47.5520,2.4527 L 52.3592,2.4527 L 52.3592,9.8666 L 47.5520,9.8666 L 47.5520,2.4527 Z" stroke="#BFBFBF" stroke-width="0.1199" stroke-linecap="round" stroke-linejoin="round" fill="#BFBFBF"/>
        <path d="M 46.3431,2.4527 L 21.7168,2.4527 L 21.7168,9.8666 L 46.3431,9.8666 L 46.3431,2.4527 Z" stroke="#BFBFBF" stroke-width="0.1199" stroke-linecap="round" stroke-linejoin="round" fill="#BFBFBF"/>
        <path d="M 18.0200,1.6026 L 15.8834,1.6026 L 15.8834,10.6331 L 18.0200,10.6331 " stroke="#FF0000" stroke-width="0.1199" stroke-linecap="round" stroke-linejoin="round" fill="none"/>
        <path d="M 22.7429,1.6026 L 19.8192,1.6026 " stroke="#FF0000" stroke-width="0.1199" stroke-linecap="round" stroke-linejoin="round" fill="none"/>
        <path d="M 19.8192,10.6331 L 22.7429,10.6331 " stroke="#FF0000" stroke-width="0.1199" stroke-linecap="round" stroke-linejoin="round" fill="none"/>
        <path d="M 26.6083,1.6026 L 25.0621,1.6026 " stroke="#FF0000" stroke-width="0.1199" stroke-linecap="round" stroke-linejoin="round" fill="none"/>
        <path d="M 25.0621,10.6331 L 26.6083,10.6331 " stroke="#FF0000" stroke-width="0.1199" stroke-linecap="round" stroke-linejoin="round" fill="none"/>
        <path d="M 2.0250,4.0792 L 2.0250,5.4481 L 2.8406,5.4481 L 2.8406,4.0792 L 2.0250,4.0792 Z" stroke="#000000" stroke-width="0.1199" stroke-linecap="round" stroke-linejoin="round" fill="#000000"/>
        <ellipse cx="5.8992" cy="5.5226" rx="0.6644" ry="0.6599" fill="none" stroke="#0A0A0A" stroke-width="0.1199" stroke-linecap="round" stroke-linejoin="round"/>
        <path d="M 5.9571,5.0576 L 5.9571,5.7042 " stroke="#000000" stroke-width="0.1199" stroke-linecap="round" stroke-linejoin="round" fill="none"/>
        <path d="M 5.5112,5.8282 L 6.4030,5.8282 " stroke="#000000" stroke-width="0.1199" stroke-linecap="round" stroke-linejoin="round" fill="none"/>
        <path d="M 5.6093,5.9788 L 6.3049,5.9788 " stroke="#000000" stroke-width="0.1199" stroke-linecap="round" stroke-linejoin="round" fill="none"/>
        <path d="M 5.6093,5.9788 L 6.3049,5.9788 " stroke="#000000" stroke-width="0.1199" stroke-linecap="round" stroke-linejoin="round" fill="none"/>
        <path d="M 5.7342,6.1293 L 6.1801,6.1293 " stroke="#000000" stroke-width="0.1199" stroke-linecap="round" stroke-linejoin="round" fill="none"/>
        <text font-family="Arial" fill="#000000" style="white-space:pre;" font-weight="400" text-anchor="start" x="6.9024" y="6.0228" font-size="0.0981"><![CDATA[USB]]></text>
        <text font-family="Arial" fill="#000000" style="white-space:pre;" font-weight="400" text-anchor="start" x="6.2871" y="6.8465" font-size="0.0981"><![CDATA[USB]]></text>
        <text font-family="Arial" fill="#000000" style="white-space:pre;" font-weight="400" text-anchor="start" x="6.2514" y="6.9616" font-size="0.0981"><![CDATA[MGMT]]></text>
        <ellipse cx="10.4827" cy="10.3491" rx="0.2423" ry="0.2357" fill="#666666" stroke="#000000" stroke-width="0.1199" stroke-linecap="round" stroke-linejoin="round"/>
        <ellipse cx="10.4827" cy="10.3491" rx="0.2423" ry="0.2357" fill="none" stroke="#0A0A0A" stroke-width="0.1199" stroke-linecap="round" stroke-linejoin="round"/>
        <text font-family="Arial" fill="#FF0000" style="white-space:pre;" font-weight="400" text-anchor="start" x="13.7260" y="10.8441" font-size="0.1856"><![CDATA[C]]></text>
        <text font-family="Arial" fill="#FF0000" style="white-space:pre;" font-weight="400" text-anchor="start" x="14.6851" y="10.8441" font-size="0.1856"><![CDATA[A]]></text>
        <text font-family="Arial" fill="#FF0000" style="white-space:pre;" font-weight="400" text-anchor="start" x="14.6851" y="12.4836" font-size="0.1856"><![CDATA[B]]></text>
        <text font-family="Arial" fill="#FF0000" style="white-space:pre;" font-weight="400" text-anchor="start" x="13.7260" y="12.4836" font-size="0.1856"><![CDATA[D]]></text>
        <text font-family="Arial" fill="#000000" style="white-space:pre;" font-weight="400" text-anchor="start" x="15.4276" y="10.8441" font-size="0.1856"><![CDATA[9]]></text>
        <text font-family="Arial" fill="#000000" style="white-space:pre;" font-weight="400" text-anchor="start" x="16.1804" y="10.8441" font-size="0.1856"><![CDATA[7]]></text>
        <text font-family="Arial" fill="#000000" style="white-space:pre;" font-weight="400" text-anchor="start" x="16.9023" y="10.8441" font-size="0.1856"><![CDATA[5]]></text>
        <text font-family="Arial" fill="#000000" style="white-space:pre;" font-weight="400" text-anchor="start" x="17.6448" y="10.8441" font-size="0.1856"><![CDATA[3]]></text>
        <text font-family="Arial" fill="#000000" style="white-space:pre;" font-weight="400" text-anchor="start" x="18.3667" y="10.8441" font-size="0.1856"><![CDATA[1]]></text>
        <text font-family="Arial" fill="#000000" style="white-space:pre;" font-weight="400" text-anchor="start" x="19.2123" y="10.8441" font-size="0.1856"><![CDATA[WAN 1]]></text>
        <text font-family="Arial" fill="#000000" style="white-space:pre;" font-weight="400" text-anchor="start" x="15.3657" y="12.4836" font-size="0.1856"><![CDATA[10]]></text>
        <text font-family="Arial" fill="#000000" style="white-space:pre;" font-weight="400" text-anchor="start" x="16.1701" y="12.4836" font-size="0.1856"><![CDATA[8]]></text>
        <text font-family="Arial" fill="#000000" style="white-space:pre;" font-weight="400" text-anchor="start" x="16.9126" y="12.4836" font-size="0.1856"><![CDATA[6]]></text>
        <text font-family="Arial" fill="#000000" style="white-space:pre;" font-weight="400" text-anchor="start" x="17.6551" y="12.4836" font-size="0.1856"><![CDATA[4]]></text>
        <text font-family="Arial" fill="#000000" style="white-space:pre;" font-weight="400" text-anchor="start" x="18.3976" y="12.4836" font-size="0.1856"><![CDATA[2]]></text>
        <text font-family="Arial" fill="#000000" style="white-space:pre;" font-weight="400" text-anchor="start" x="19.2123" y="12.4836" font-size="0.1856"><![CDATA[WAN 2]]></text>
        <text font-family="Arial" fill="#000000" style="white-space:pre;" font-weight="400" text-anchor="start" x="10.5188" y="12.4772" font-size="0.1444"><![CDATA[DC+12V]]></text>
        <ellipse cx="5.8742" cy="2.8727" rx="1.2036" ry="1.1955" fill="#666666" stroke="#000000" stroke-width="0.1199" stroke-linecap="round" stroke-linejoin="round"/>
        <ellipse cx="5.8742" cy="2.8727" rx="1.2036" ry="1.1955" fill="none" stroke="#000000" stroke-width="0.1199" stroke-linecap="round" stroke-linejoin="round"/>
        <ellipse cx="5.8742" cy="2.8727" rx="1.0958" ry="1.0884" fill="#E2E2E2" stroke="#000000" stroke-width="0.1199" stroke-linecap="round" stroke-linejoin="round"/>
        <ellipse cx="5.8742" cy="2.8727" rx="1.0958" ry="1.0884" fill="none" stroke="#E2E2E2" stroke-width="0.1199" stroke-linecap="round" stroke-linejoin="round"/>
        <path d="M 5.0299,2.7478 L 4.9939,2.7478 L 4.9580,2.7835 L 4.9580,2.8192 L 4.9221,2.8192 L 4.9221,3.0333 L 4.9580,3.0333 L 4.9580,3.0690 L 4.9939,3.1047 L 5.7484,3.1047 L 5.7484,3.8897 L 5.7844,3.8897 L 5.7844,3.9254 L 5.8203,3.9254 L 5.8203,3.9611 L 6.0359,3.9611 L 6.0359,3.9254 L 6.0718,3.9254 L 6.0718,3.8897 L 6.1077,3.8897 L 6.1077,3.1047 L 6.8981,3.1047 L 6.8981,3.0690 L 6.9340,3.0690 L 6.9340,3.0333 L 6.9700,3.0333 L 6.9700,2.8192 L 6.9340,2.8192 L 6.9340,2.7835 L 6.8981,2.7835 L 6.8981,2.7478 L 6.1077,2.7478 L 6.1077,1.9984 L 6.0718,1.9627 L 6.0359,1.9627 L 6.0359,1.9270 L 5.8203,1.9270 L 5.8203,1.9627 L 5.7844,1.9627 L 5.7484,1.9984 L 5.7484,2.7478 L 5.0658,2.7478 L 5.0299,2.7478 Z" stroke="#161616" stroke-width="0.1199" stroke-linecap="round" stroke-linejoin="round" fill="#494949"/>
        <path d="M 4.8862,2.8549 L 4.8862,3.0333 L 4.9221,3.0690 L 4.9580,3.0690 L 4.9580,3.1047 L 5.7484,3.1047 L 5.7484,3.9254 L 5.7844,3.9611 L 5.8203,3.9611 L 5.8203,3.9968 L 5.9281,3.9968 L 5.9640,3.9968 " stroke="#BFBFBF" stroke-width="0.1199" stroke-linecap="round" stroke-linejoin="round" fill="none"/>
        <path d="M 5.7484,1.9984 L 5.7484,2.7121 L 5.7484,2.7478 " stroke="#BFBFBF" stroke-width="0.1199" stroke-linecap="round" stroke-linejoin="round" fill="none"/>
        <path d="M 3.3970,5.0278 L 3.3970,9.7500 L 1.4559,9.7500 L 1.4559,5.0278 L 1.8302,5.0278 L 1.8302,5.4028 L 3.0226,5.4028 L 3.0226,5.0278 L 3.3970,5.0278 Z" stroke="#000000" stroke-width="0.1199" stroke-linecap="round" stroke-linejoin="round" fill="#000000"/>
        <path d="M 3.3415,5.5417 L 1.5113,5.5417 L 1.5113,9.6806 L 3.3415,9.6806 L 3.3415,5.5417 Z" stroke="#000000" stroke-width="0.1199" stroke-linecap="round" stroke-linejoin="round" fill="#EFEFEF"/>
        <path d="M 3.1474,7.7778 L 1.7054,7.7778 L 1.7054,9.2222 L 3.1474,9.2222 L 3.1474,7.7778 Z" stroke="#000000" stroke-width="0.1199" stroke-linecap="round" stroke-linejoin="round" fill="#000000"/>
        <ellipse cx="2.3640" cy="8.4445" rx="0.1179" ry="0.1250" fill="#BFBFBF" stroke="#000000" stroke-width="0.1199" stroke-linecap="round" stroke-linejoin="round"/>
        <ellipse cx="2.3640" cy="8.4445" rx="0.1179" ry="0.1250" fill="none" stroke="#000000" stroke-width="0.1199" stroke-linecap="round" stroke-linejoin="round"/>
        <path d="M 3.1474,6.0278 L 1.7054,6.0278 L 1.7054,7.1111 L 2.0659,7.4722 L 2.8146,7.4722 L 3.1474,7.1389 L 3.1474,6.0278 Z" stroke="#000000" stroke-width="0.1199" stroke-linecap="round" stroke-linejoin="round" fill="#000000"/>
        <ellipse cx="2.3640" cy="6.6875" rx="0.1179" ry="0.1181" fill="#BFBFBF" stroke="#000000" stroke-width="0.1199" stroke-linecap="round" stroke-linejoin="round"/>
        <ellipse cx="2.3640" cy="6.6875" rx="0.1179" ry="0.1181" fill="none" stroke="#000000" stroke-width="0.1199" stroke-linecap="round" stroke-linejoin="round"/>
        <path d="M 5.4532,8.7231 L 5.4532,8.6599 L 5.4737,8.6599 L 5.4737,8.6178 L 5.4942,8.5967 L 5.4942,8.5756 L 5.5147,8.5756 L 5.5147,8.5546 L 5.5352,8.5546 L 5.5352,8.5335 L 5.5557,8.5335 L 5.5762,8.5124 L 5.5967,8.5124 L 5.6172,8.4914 L 7.6673,8.4914 L 7.6878,8.5124 L 7.7083,8.5124 L 7.7288,8.5335 L 7.7493,8.5335 L 7.7493,8.5546 L 7.7698,8.5546 L 7.7698,8.5756 L 7.7903,8.5756 L 7.7903,8.5967 L 7.8108,8.6178 L 7.8108,8.6599 L 7.8313,8.6599 L 7.8313,9.1024 L 7.6673,9.2710 L 7.6673,9.6081 L 7.6468,9.6292 L 7.6468,9.6502 L 7.6263,9.6502 L 7.6263,9.6713 L 7.6058,9.6713 L 7.6058,9.6924 L 7.5853,9.6924 L 7.5853,9.7134 L 7.5443,9.7134 L 7.5443,9.7345 L 5.7403,9.7345 L 5.7403,9.7134 L 5.6993,9.7134 L 5.6993,9.6924 L 5.6788,9.6924 L 5.6788,9.6713 L 5.6582,9.6713 L 5.6582,9.6502 L 5.6377,9.6502 L 5.6377,9.6292 L 5.6172,9.6081 L 5.6172,9.2710 L 5.4532,9.1024 L 5.4532,8.7442 L 5.4532,8.7231 Z" stroke="#7F7F7F" stroke-width="0.1199" stroke-linecap="round" stroke-linejoin="round" fill="#BFBFBF"/>
        <path d="M 7.7493,9.0813 L 7.5853,9.2499 L 7.5853,9.5660 L 7.5648,9.5870 L 7.5648,9.6081 L 7.5443,9.6081 L 7.5238,9.6292 L 7.5033,9.6292 L 7.4828,9.6502 L 5.8018,9.6502 L 5.8018,9.6292 L 5.7608,9.6292 L 5.7403,9.6081 L 5.7198,9.6081 L 5.7198,9.5870 L 5.6993,9.5660 L 5.6993,9.2499 L 5.5352,9.0813 L 5.5352,8.7231 L 5.5557,8.7231 L 5.5557,8.6810 L 5.5762,8.6810 L 5.5762,8.6389 L 5.5967,8.6389 L 5.5967,8.6178 L 5.6377,8.6178 L 5.6377,8.5967 L 5.6582,8.5967 L 5.6788,8.5756 L 7.6058,8.5756 L 7.6263,8.5967 L 7.6468,8.5967 L 7.6468,8.6178 L 7.6878,8.6178 L 7.6878,8.6389 L 7.7083,8.6389 L 7.7083,8.6810 L 7.7288,8.6810 L 7.7288,8.7231 L 7.7493,8.7231 L 7.7493,9.0603 L 7.7493,9.0813 Z" stroke="#000000" stroke-width="0.1199" stroke-linecap="round" stroke-linejoin="round" fill="#161616"/>
        <path d="M 7.4418,9.1656 L 7.4418,9.1235 L 7.4213,9.0813 L 7.3803,9.0603 L 5.9248,9.0603 L 5.8838,9.0813 L 5.8633,9.1235 L 5.8633,9.4606 L 5.8838,9.5027 L 5.9248,9.5238 L 7.3803,9.5238 L 7.4213,9.5027 L 7.4418,9.4606 L 7.4418,9.4185 L 7.4418,9.1656 Z" stroke="#000000" stroke-width="0.1199" stroke-linecap="round" stroke-linejoin="round" fill="#CCCCCC"/>
        <path d="M 6.2323,8.9971 L 6.0273,8.9971 L 6.0273,9.0603 L 6.2323,9.0603 L 6.2323,8.9971 Z" stroke="#000000" stroke-width="0.1199" stroke-linecap="round" stroke-linejoin="round" fill="#D6D6B1"/>
        <path d="M 6.5603,8.9971 L 6.3553,8.9971 L 6.3553,9.0603 L 6.5603,9.0603 L 6.5603,8.9971 Z" stroke="#000000" stroke-width="0.1199" stroke-linecap="round" stroke-linejoin="round" fill="#D6D6B1"/>
        <path d="M 6.9088,8.9971 L 6.7038,8.9971 L 6.7038,9.0603 L 6.9088,9.0603 L 6.9088,8.9971 Z" stroke="#000000" stroke-width="0.1199" stroke-linecap="round" stroke-linejoin="round" fill="#D6D6B1"/>
        <path d="M 7.2368,8.9971 L 7.0318,8.9971 L 7.0318,9.0603 L 7.2368,9.0603 L 7.2368,8.9971 Z" stroke="#000000" stroke-width="0.1199" stroke-linecap="round" stroke-linejoin="round" fill="#D6D6B1"/>
        <path d="M 9.0733,6.2545 L 9.0381,6.2545 L 9.0381,6.2661 L 9.0146,6.2661 L 9.0028,6.2777 L 8.9911,6.2777 L 8.9911,6.2892 L 8.9793,6.2892 L 8.9793,6.3008 L 8.9675,6.3008 L 8.9675,6.3124 L 8.9558,6.3239 L 8.9558,6.3470 L 8.9440,6.3470 L 8.9440,7.4800 L 8.9558,7.4800 L 8.9558,7.5031 L 8.9675,7.5147 L 8.9675,7.5263 L 8.9793,7.5263 L 8.9793,7.5378 L 8.9911,7.5378 L 8.9911,7.5494 L 9.0028,7.5494 L 9.0146,7.5610 L 9.0381,7.5610 L 9.0381,7.5725 L 11.9763,7.5725 L 11.9763,7.5610 L 11.9998,7.5610 L 12.0116,7.5494 L 12.0233,7.5494 L 12.0233,7.5378 L 12.0351,7.5378 L 12.0351,7.5263 L 12.0468,7.5263 L 12.0468,7.5147 L 12.0586,7.5031 L 12.0586,7.4800 L 12.0703,7.4800 L 12.0703,6.3470 L 12.0586,6.3470 L 12.0586,6.3239 L 12.0468,6.3124 L 12.0468,6.3008 L 12.0351,6.3008 L 12.0351,6.2892 L 12.0233,6.2892 L 12.0233,6.2777 L 12.0116,6.2777 L 11.9998,6.2661 L 11.9763,6.2661 L 11.9763,6.2545 L 9.0851,6.2545 L 9.0733,6.2545 Z" stroke="#000000" stroke-width="0.1199" stroke-linecap="round" stroke-linejoin="round" fill="#BFBFBF"/>
        <path d="M 9.1203,6.3586 L 9.0851,6.3586 L 9.0851,6.3702 L 9.0733,6.3702 L 9.0733,6.3817 L 9.0616,6.3817 L 9.0616,6.3933 L 9.0498,6.3933 L 9.0498,7.4338 L 9.0616,7.4453 L 9.0616,7.4569 L 9.0733,7.4569 L 9.0733,7.4685 L 9.0851,7.4685 L 9.0968,7.4800 L 11.9293,7.4800 L 11.9293,7.4685 L 11.9411,7.4685 L 11.9411,7.4569 L 11.9528,7.4569 L 11.9528,7.4453 L 11.9646,7.4338 L 11.9646,6.3933 L 11.9528,6.3933 L 11.9528,6.3817 L 11.9411,6.3702 L 11.9293,6.3702 L 11.9293,6.3586 L 9.1321,6.3586 L 9.1203,6.3586 Z" stroke="#333333" stroke-width="0.1199" stroke-linecap="round" stroke-linejoin="round" fill="#000000"/>
        <path d="M 9.7432,6.9367 L 9.4847,6.9367 L 9.4847,6.8788 L 9.7432,6.8788 L 9.7432,6.9367 Z" stroke="#000000" stroke-width="0.1199" stroke-linecap="round" stroke-linejoin="round" fill="#E2E2CC"/>
        <path d="M 10.3309,6.9367 L 10.0723,6.9367 L 10.0723,6.8788 L 10.3309,6.8788 L 10.3309,6.9367 Z" stroke="#000000" stroke-width="0.1199" stroke-linecap="round" stroke-linejoin="round" fill="#E2E2CC"/>
        <path d="M 10.9068,6.9367 L 10.6482,6.9367 L 10.6482,6.8788 L 10.9068,6.8788 L 10.9068,6.9367 Z" stroke="#000000" stroke-width="0.1199" stroke-linecap="round" stroke-linejoin="round" fill="#E2E2CC"/>
        <path d="M 11.5062,6.9367 L 11.2476,6.9367 L 11.2476,6.8788 L 11.5062,6.8788 L 11.5062,6.9367 Z" stroke="#000000" stroke-width="0.1199" stroke-linecap="round" stroke-linejoin="round" fill="#E2E2CC"/>
        <path d="M 11.7883,6.5783 L 11.7883,6.5551 L 11.7765,6.5320 L 11.7530,6.5205 L 9.2614,6.5205 L 9.2379,6.5320 L 9.2261,6.5551 L 9.2261,6.8442 L 9.2379,6.8673 L 9.2614,6.8788 L 11.7530,6.8788 L 11.7765,6.8673 L 11.7883,6.8442 L 11.7883,6.8210 L 11.7883,6.5783 Z" stroke="#000000" stroke-width="0.1199" stroke-linecap="round" stroke-linejoin="round" fill="#7F7F7F"/>
        <path d="M 11.6942,6.6939 L 11.6825,6.6476 L 11.6355,6.6014 L 11.5885,6.5898 L 9.4259,6.5898 L 9.3789,6.6014 L 9.3319,6.6476 L 9.3201,6.6939 L 9.3319,6.7401 L 9.3789,6.7864 L 9.4259,6.7979 L 11.5885,6.7979 L 11.6355,6.7864 L 11.6825,6.7401 L 11.6942,6.6939 Z" stroke="#999999" stroke-width="0.1199" stroke-linecap="round" stroke-linejoin="round" fill="#999999"/>
        <path d="M 9.0733,8.2199 L 9.0381,8.2199 L 9.0381,8.2315 L 9.0146,8.2315 L 9.0028,8.2431 L 8.9911,8.2431 L 8.9911,8.2546 L 8.9793,8.2546 L 8.9793,8.2662 L 8.9675,8.2662 L 8.9675,8.2777 L 8.9558,8.2893 L 8.9558,8.3124 L 8.9440,8.3124 L 8.9440,9.4454 L 8.9558,9.4454 L 8.9558,9.4685 L 8.9675,9.4801 L 8.9675,9.4917 L 8.9793,9.4917 L 8.9793,9.5032 L 8.9911,9.5032 L 8.9911,9.5148 L 9.0028,9.5148 L 9.0146,9.5263 L 9.0381,9.5263 L 9.0381,9.5379 L 11.9763,9.5379 L 11.9763,9.5263 L 11.9998,9.5263 L 12.0116,9.5148 L 12.0233,9.5148 L 12.0233,9.5032 L 12.0351,9.5032 L 12.0351,9.4917 L 12.0468,9.4917 L 12.0468,9.4801 L 12.0586,9.4685 L 12.0586,9.4454 L 12.0703,9.4454 L 12.0703,8.3124 L 12.0586,8.3124 L 12.0586,8.2893 L 12.0468,8.2777 L 12.0468,8.2662 L 12.0351,8.2662 L 12.0351,8.2546 L 12.0233,8.2546 L 12.0233,8.2431 L 12.0116,8.2431 L 11.9998,8.2315 L 11.9763,8.2315 L 11.9763,8.2199 L 9.0851,8.2199 L 9.0733,8.2199 Z" stroke="#000000" stroke-width="0.1199" stroke-linecap="round" stroke-linejoin="round" fill="#BFBFBF"/>
        <path d="M 9.1203,8.3240 L 9.0851,8.3240 L 9.0851,8.3355 L 9.0733,8.3355 L 9.0733,8.3471 L 9.0616,8.3471 L 9.0616,8.3587 L 9.0498,8.3587 L 9.0498,9.3992 L 9.0616,9.4107 L 9.0616,9.4223 L 9.0733,9.4223 L 9.0733,9.4338 L 9.0851,9.4338 L 9.0968,9.4454 L 11.9293,9.4454 L 11.9293,9.4338 L 11.9411,9.4338 L 11.9411,9.4223 L 11.9528,9.4223 L 11.9528,9.4107 L 11.9646,9.3992 L 11.9646,8.3587 L 11.9528,8.3587 L 11.9528,8.3471 L 11.9411,8.3355 L 11.9293,8.3355 L 11.9293,8.3240 L 9.1321,8.3240 L 9.1203,8.3240 Z" stroke="#333333" stroke-width="0.1199" stroke-linecap="round" stroke-linejoin="round" fill="#000000"/>
        <path d="M 9.7432,8.9020 L 9.4847,8.9020 L 9.4847,8.8442 L 9.7432,8.8442 L 9.7432,8.9020 Z" stroke="#000000" stroke-width="0.1199" stroke-linecap="round" stroke-linejoin="round" fill="#E2E2CC"/>
        <path d="M 10.3309,8.9020 L 10.0723,8.9020 L 10.0723,8.8442 L 10.3309,8.8442 L 10.3309,8.9020 Z" stroke="#000000" stroke-width="0.1199" stroke-linecap="round" stroke-linejoin="round" fill="#E2E2CC"/>
        <path d="M 10.9068,8.9020 L 10.6482,8.9020 L 10.6482,8.8442 L 10.9068,8.8442 L 10.9068,8.9020 Z" stroke="#000000" stroke-width="0.1199" stroke-linecap="round" stroke-linejoin="round" fill="#E2E2CC"/>
        <path d="M 11.5062,8.9020 L 11.2476,8.9020 L 11.2476,8.8442 L 11.5062,8.8442 L 11.5062,8.9020 Z" stroke="#000000" stroke-width="0.1199" stroke-linecap="round" stroke-linejoin="round" fill="#E2E2CC"/>
        <path d="M 11.7883,8.5436 L 11.7883,8.5205 L 11.7765,8.4974 L 11.7530,8.4858 L 9.2614,8.4858 L 9.2379,8.4974 L 9.2261,8.5205 L 9.2261,8.8095 L 9.2379,8.8327 L 9.2614,8.8442 L 11.7530,8.8442 L 11.7765,8.8327 L 11.7883,8.8095 L 11.7883,8.7864 L 11.7883,8.5436 Z" stroke="#000000" stroke-width="0.1199" stroke-linecap="round" stroke-linejoin="round" fill="#7F7F7F"/>
        <path d="M 11.6942,8.6593 L 11.6825,8.6130 L 11.6355,8.5668 L 11.5885,8.5552 L 9.4259,8.5552 L 9.3789,8.5668 L 9.3319,8.6130 L 9.3201,8.6593 L 9.3319,8.7055 L 9.3789,8.7517 L 9.4259,8.7633 L 11.5885,8.7633 L 11.6355,8.7517 L 11.6825,8.7055 L 11.6942,8.6593 Z" stroke="#999999" stroke-width="0.1199" stroke-linecap="round" stroke-linejoin="round" fill="#999999"/>
        <path d="M 48.1542,5.7326 L 48.1542,3.6242 L 49.0472,3.6242 L 49.0472,3.1282 L 49.4100,3.1282 L 49.4100,2.6321 L 50.4705,2.6321 L 50.4705,3.1282 L 50.8333,3.1282 L 50.8333,3.6242 L 51.7263,3.6242 L 51.7263,5.7326 L 48.1542,5.7326 Z" stroke="#161616" stroke-width="0.1199" stroke-linecap="round" stroke-linejoin="round" fill="#000000"/>
        <path d="M 48.1542,6.6422 L 48.1542,8.7506 L 49.0472,8.7506 L 49.0472,9.2467 L 49.4100,9.2467 L 49.4100,9.7427 L 50.4705,9.7427 L 50.4705,9.2467 L 50.8333,9.2467 L 50.8333,8.7506 L 51.7263,8.7506 L 51.7263,6.6422 L 48.1542,6.6422 Z" stroke="#161616" stroke-width="0.1199" stroke-linecap="round" stroke-linejoin="round" fill="#000000"/>
        <path d="M 42.2378,5.7326 L 42.2378,3.6242 L 43.1309,3.6242 L 43.1309,3.1282 L 43.4937,3.1282 L 43.4937,2.6321 L 44.5541,2.6321 L 44.5541,3.1282 L 44.9169,3.1282 L 44.9169,3.6242 L 45.8100,3.6242 L 45.8100,5.7326 L 42.2378,5.7326 Z" stroke="#161616" stroke-width="0.1199" stroke-linecap="round" stroke-linejoin="round" fill="#000000"/>
        <path d="M 42.2378,6.6422 L 42.2378,8.7506 L 43.1309,8.7506 L 43.1309,9.2467 L 43.4937,9.2467 L 43.4937,9.7427 L 44.5541,9.7427 L 44.5541,9.2467 L 44.9169,9.2467 L 44.9169,8.7506 L 45.8100,8.7506 L 45.8100,6.6422 L 42.2378,6.6422 Z" stroke="#161616" stroke-width="0.1199" stroke-linecap="round" stroke-linejoin="round" fill="#000000"/>
        <path d="M 38.2471,5.7326 L 38.2471,3.6242 L 39.1401,3.6242 L 39.1401,3.1282 L 39.5029,3.1282 L 39.5029,2.6321 L 40.5634,2.6321 L 40.5634,3.1282 L 40.9262,3.1282 L 40.9262,3.6242 L 41.8192,3.6242 L 41.8192,5.7326 L 38.2471,5.7326 Z" stroke="#161616" stroke-width="0.1199" stroke-linecap="round" stroke-linejoin="round" fill="#000000"/>
        <path d="M 38.2471,6.6422 L 38.2471,8.7506 L 39.1401,8.7506 L 39.1401,9.2467 L 39.5029,9.2467 L 39.5029,9.7427 L 40.5634,9.7427 L 40.5634,9.2467 L 40.9262,9.2467 L 40.9262,8.7506 L 41.8192,8.7506 L 41.8192,6.6422 L 38.2471,6.6422 Z" stroke="#161616" stroke-width="0.1199" stroke-linecap="round" stroke-linejoin="round" fill="#000000"/>
        <path d="M 34.2005,5.7326 L 34.2005,3.6242 L 35.0935,3.6242 L 35.0935,3.1282 L 35.4563,3.1282 L 35.4563,2.6321 L 36.5168,2.6321 L 36.5168,3.1282 L 36.8796,3.1282 L 36.8796,3.6242 L 37.7726,3.6242 L 37.7726,5.7326 L 34.2005,5.7326 Z" stroke="#161616" stroke-width="0.1199" stroke-linecap="round" stroke-linejoin="round" fill="#000000"/>
        <path d="M 34.2005,6.6422 L 34.2005,8.7506 L 35.0935,8.7506 L 35.0935,9.2467 L 35.4563,9.2467 L 35.4563,9.7427 L 36.5168,9.7427 L 36.5168,9.2467 L 36.8796,9.2467 L 36.8796,8.7506 L 37.7726,8.7506 L 37.7726,6.6422 L 34.2005,6.6422 Z" stroke="#161616" stroke-width="0.1199" stroke-linecap="round" stroke-linejoin="round" fill="#000000"/>
        <path d="M 30.2097,5.7326 L 30.2097,3.6242 L 31.1028,3.6242 L 31.1028,3.1282 L 31.4656,3.1282 L 31.4656,2.6321 L 32.5261,2.6321 L 32.5261,3.1282 L 32.8888,3.1282 L 32.8888,3.6242 L 33.7819,3.6242 L 33.7819,5.7326 L 30.2097,5.7326 Z" stroke="#161616" stroke-width="0.1199" stroke-linecap="round" stroke-linejoin="round" fill="#000000"/>
        <path d="M 30.2097,6.6422 L 30.2097,8.7506 L 31.1028,8.7506 L 31.1028,9.2467 L 31.4656,9.2467 L 31.4656,9.7427 L 32.5261,9.7427 L 32.5261,9.2467 L 32.8888,9.2467 L 32.8888,8.7506 L 33.7819,8.7506 L 33.7819,6.6422 L 30.2097,6.6422 Z" stroke="#161616" stroke-width="0.1199" stroke-linecap="round" stroke-linejoin="round" fill="#000000"/>
        <path d="M 26.1632,5.7326 L 26.1632,3.6242 L 27.0562,3.6242 L 27.0562,3.1282 L 27.4190,3.1282 L 27.4190,2.6321 L 28.4795,2.6321 L 28.4795,3.1282 L 28.8423,3.1282 L 28.8423,3.6242 L 29.7353,3.6242 L 29.7353,5.7326 L 26.1632,5.7326 Z" stroke="#161616" stroke-width="0.1199" stroke-linecap="round" stroke-linejoin="round" fill="#000000"/>
        <path d="M 26.1632,6.6422 L 26.1632,8.7506 L 27.0562,8.7506 L 27.0562,9.2467 L 27.4190,9.2467 L 27.4190,9.7427 L 28.4795,9.7427 L 28.4795,9.2467 L 28.8423,9.2467 L 28.8423,8.7506 L 29.7353,8.7506 L 29.7353,6.6422 L 26.1632,6.6422 Z" stroke="#161616" stroke-width="0.1199" stroke-linecap="round" stroke-linejoin="round" fill="#000000"/>
        <path d="M 22.1585,5.7326 L 22.1585,3.6242 L 23.0515,3.6242 L 23.0515,3.1282 L 23.4143,3.1282 L 23.4143,2.6321 L 24.4748,2.6321 L 24.4748,3.1282 L 24.8376,3.1282 L 24.8376,3.6242 L 25.7306,3.6242 L 25.7306,5.7326 L 22.1585,5.7326 Z" stroke="#161616" stroke-width="0.1199" stroke-linecap="round" stroke-linejoin="round" fill="#000000"/>
        <path d="M 22.1585,6.6422 L 22.1585,8.7506 L 23.0515,8.7506 L 23.0515,9.2467 L 23.4143,9.2467 L 23.4143,9.7427 L 24.4748,9.7427 L 24.4748,9.2467 L 24.8376,9.2467 L 24.8376,8.7506 L 25.7306,8.7506 L 25.7306,6.6422 L 22.1585,6.6422 Z" stroke="#161616" stroke-width="0.1199" stroke-linecap="round" stroke-linejoin="round" fill="#000000"/>
        <path d="M 16.9816,5.7326 L 16.9816,3.6242 L 17.8747,3.6242 L 17.8747,3.1282 L 18.2375,3.1282 L 18.2375,2.6321 L 19.2980,2.6321 L 19.2980,3.1282 L 19.6607,3.1282 L 19.6607,3.6242 L 20.5538,3.6242 L 20.5538,5.7326 L 16.9816,5.7326 Z" stroke="#161616" stroke-width="0.1199" stroke-linecap="round" stroke-linejoin="round" fill="#000000"/>
        <path d="M 16.9816,6.6422 L 16.9816,8.7506 L 17.8747,8.7506 L 17.8747,9.2467 L 18.2375,9.2467 L 18.2375,9.7427 L 19.2980,9.7427 L 19.2980,9.2467 L 19.6607,9.2467 L 19.6607,8.7506 L 20.5538,8.7506 L 20.5538,6.6422 L 16.9816,6.6422 Z" stroke="#161616" stroke-width="0.1199" stroke-linecap="round" stroke-linejoin="round" fill="#000000"/>
      </g>
      <!--emf-blob end-->
    </g>
  </g>
</svg>
