<svg xmlns="http://www.w3.org/2000/svg" xmlns:xlink="http://www.w3.org/1999/xlink" version="1.1" width="3.4032000000" height="0.6440000000" viewBox="0 0 61.2567 11.5937">
  <title><![CDATA[FG-70G]]></title>
  <g transform=" scale(4.000000) ">
    <!--converted by libvisio2svg-->
    <g transform=" translate(0.000000,0.000000) ">
      <!--emf-blob start-->
      <g transform="translate(-0.0000, -0.0000)">
        <path d="M 61.1394,0.2526 L 61.1394,0.2105 L 61.1254,0.1684 L 61.0973,0.1263 L 61.0692,0.0983 L 61.0411,0.0702 L 60.9990,0.0421 L 60.9569,0.0281 L 60.9148,0.0281 L 0.2528,0.0281 L 0.2106,0.0281 L 0.1685,0.0421 L 0.1264,0.0702 L 0.0983,0.0983 L 0.0702,0.1263 L 0.0421,0.1684 L 0.0281,0.2105 L 0.0281,0.2526 L 0.0281,11.3130 L 0.0281,11.3551 L 0.0421,11.3972 L 0.0702,11.4393 L 0.0983,11.4674 L 0.1264,11.4954 L 0.1685,11.5235 L 0.2106,11.5376 L 0.2528,11.5376 L 60.9148,11.5376 L 60.9569,11.5376 L 60.9990,11.5235 L 61.0411,11.4954 L 61.0692,11.4674 L 61.0973,11.4393 L 61.1254,11.3972 L 61.1394,11.3551 L 61.1394,11.3130 L 61.1394,0.2526 Z" stroke="#000000" stroke-width="0.1195" stroke-linecap="round" stroke-linejoin="round" fill="#EFEFEF"/>
        <path d="M 0.3511,0.0281 L 60.8165,0.0281 L 60.9429,0.2807 L 61.1394,0.3509 L 61.1394,11.2147 L 60.9429,11.2849 L 60.8165,11.5376 L 0.3511,11.5376 L 0.2247,11.2849 L 0.0281,11.2147 L 0.0281,0.3509 L 0.2247,0.2807 L 0.3511,0.0281 Z" stroke="#000000" stroke-width="0.1195" stroke-linecap="round" stroke-linejoin="round" fill="#EFEFEF"/>
        <path d="M 0.2668,0.1965 L 0.3511,0.0281 L 60.8165,0.0281 L 60.9007,0.1965 L 0.2668,0.1965 Z" stroke="#FFFFFF" stroke-width="0.1195" stroke-linecap="round" stroke-linejoin="round" fill="#FFFFFF"/>
        <path d="M 0.2668,11.3691 L 0.3511,11.5376 L 60.8165,11.5376 L 60.9007,11.3691 L 0.2668,11.3691 Z" stroke="#D8D8D8" stroke-width="0.1195" stroke-linecap="round" stroke-linejoin="round" fill="#D8D8D8"/>
        <path d="M 61.1394,0.3509 L 60.9429,0.2807 L 60.8165,0.0281 L 0.3511,0.0281 L 0.2247,0.2807 L 0.0281,0.3509 L 0.0281,11.2147 L 0.2247,11.2849 L 0.3511,11.5376 L 60.8165,11.5376 L 60.9429,11.2849 L 61.1394,11.2147 " stroke="#000000" stroke-width="0.1195" stroke-linecap="round" stroke-linejoin="round" fill="none"/>
        <path d="M 15.1093,2.3300 L 15.1093,2.2879 L 15.0953,2.2598 L 15.0813,2.2317 L 15.0532,2.2036 L 15.0251,2.1756 L 14.9970,2.1615 L 14.9689,2.1475 L 14.9268,2.1475 L 10.3210,2.1475 L 10.2788,2.1475 L 10.2508,2.1615 L 10.2227,2.1756 L 10.1946,2.2036 L 10.1665,2.2317 L 10.1525,2.2598 L 10.1384,2.2879 L 10.1384,2.3300 L 10.1384,8.6321 L 10.1384,8.6742 L 10.1525,8.7023 L 10.1665,8.7304 L 10.1946,8.7584 L 10.2227,8.7865 L 10.2508,8.8005 L 10.2788,8.8146 L 10.3210,8.8146 L 14.9268,8.8146 L 14.9689,8.8146 L 14.9970,8.8005 L 15.0251,8.7865 L 15.0532,8.7584 L 15.0813,8.7304 L 15.0953,8.7023 L 15.1093,8.6742 L 15.1093,8.6321 L 15.1093,2.3300 Z" stroke="#000000" stroke-width="0.1195" stroke-linecap="round" stroke-linejoin="round" fill="#333333"/>
        <path d="M 14.9127,2.2738 L 10.3350,2.2738 L 10.3350,8.4356 L 14.9127,8.4356 L 14.9127,2.2738 Z" stroke="#000000" stroke-width="0.1195" stroke-linecap="round" stroke-linejoin="round" fill="#F7F7F7"/>
        <path d="M 6.3751,5.4460 L 6.3611,5.3758 L 6.3470,5.2916 L 6.3049,5.2354 L 6.2628,5.1793 L 6.2066,5.1372 L 6.1505,5.0951 L 6.0662,5.0810 L 5.9960,5.0670 L 4.2969,5.0670 L 4.2267,5.0810 L 4.1424,5.0951 L 4.0863,5.1372 L 4.0301,5.1793 L 3.9880,5.2354 L 3.9458,5.2916 L 3.9318,5.3758 L 3.9178,5.4460 L 3.9178,10.6533 L 3.9318,10.7235 L 3.9458,10.8077 L 3.9880,10.8638 L 4.0301,10.9200 L 4.0863,10.9621 L 4.1424,11.0042 L 4.2267,11.0182 L 4.2969,11.0323 L 5.9960,11.0323 L 6.0662,11.0182 L 6.1505,11.0042 L 6.2066,10.9621 L 6.2628,10.9200 L 6.3049,10.8638 L 6.3470,10.8077 L 6.3611,10.7235 L 6.3751,10.6533 L 6.3751,5.4460 Z" stroke="#000000" stroke-width="0.1195" stroke-linecap="round" stroke-linejoin="round" fill="#D8D8D8"/>
        <ellipse cx="5.0762" cy="6.3583" rx="0.8636" ry="0.8702" fill="#BFBFBF" stroke="#000000" stroke-width="0.1195" stroke-linecap="round" stroke-linejoin="round"/>
        <ellipse cx="5.0762" cy="6.3583" rx="0.8636" ry="0.8702" fill="none" stroke="#161616" stroke-width="0.1195" stroke-linecap="round" stroke-linejoin="round"/>
        <ellipse cx="5.0762" cy="6.3583" rx="0.7372" ry="0.7439" fill="#DDDDDD" stroke="#000000" stroke-width="0.1195" stroke-linecap="round" stroke-linejoin="round"/>
        <ellipse cx="5.0762" cy="6.3583" rx="0.7372" ry="0.7439" fill="none" stroke="#BFBFBF" stroke-width="0.1195" stroke-linecap="round" stroke-linejoin="round"/>
        <path d="M 5.2658,6.9478 L 5.2518,6.9478 L 5.2377,6.9478 L 5.2237,6.9478 L 5.2096,6.9478 L 5.1956,6.9478 L 5.1815,6.9478 L 5.1675,6.9478 L 5.1535,6.9478 L 5.1394,6.9478 L 5.1254,6.9478 L 5.1113,6.9478 L 5.0973,6.9478 L 5.0833,6.9478 L 5.0692,6.9478 L 5.0552,6.9478 L 5.0411,6.9478 L 5.0411,6.9338 L 5.0411,6.9197 L 5.0411,6.9057 L 5.0411,6.8917 L 5.0411,6.8776 L 5.0411,6.8636 L 5.0411,6.8495 L 5.0411,6.8355 L 5.0411,6.8215 L 5.0411,6.8074 L 5.0411,6.7934 L 5.0411,6.7794 L 5.0411,6.7653 L 5.0411,6.7513 L 5.0411,6.7373 L 5.0411,6.7232 L 5.0411,6.7092 L 5.0411,6.6952 L 5.0411,6.6811 L 5.0411,6.6671 L 5.0411,6.6530 L 5.0271,6.6530 L 5.0271,6.6390 L 5.0271,6.6250 L 5.0130,6.6109 L 4.9990,6.5969 L 4.9850,6.5829 L 4.9709,6.5688 L 4.9569,6.5688 L 4.9428,6.5688 L 4.9428,6.5548 L 4.9288,6.5548 L 4.9147,6.5548 L 4.9007,6.5548 L 4.8867,6.5548 L 4.8726,6.5548 L 4.8586,6.5548 L 4.8445,6.5548 L 4.8305,6.5548 L 4.8165,6.5548 L 4.8024,6.5548 L 4.7884,6.5548 L 4.7743,6.5548 L 4.7603,6.5548 L 4.7462,6.5548 L 4.7322,6.5548 L 4.7182,6.5548 L 4.7041,6.5548 L 4.6901,6.5548 L 4.6760,6.5548 L 4.6620,6.5548 L 4.6479,6.5548 L 4.6339,6.5548 L 4.6339,6.5408 L 4.6339,6.5267 L 4.6339,6.5127 L 4.6339,6.4986 L 4.6339,6.4846 L 4.6339,6.4706 L 4.6339,6.4565 L 4.6339,6.4425 L 4.6339,6.4285 L 4.6339,6.4144 L 4.6339,6.4004 L 4.6339,6.3864 L 4.6339,6.3723 L 4.6339,6.3583 L 4.6339,6.3443 L 4.6339,6.3302 L 4.6339,6.3162 L 4.6339,6.3021 L 4.6479,6.3021 L 4.6620,6.3021 L 4.6760,6.3021 L 4.6901,6.3021 L 4.7041,6.3021 L 4.7182,6.3021 L 4.7322,6.3021 L 4.7462,6.3021 L 4.7603,6.3021 L 4.7743,6.3021 L 4.7884,6.3021 L 4.8024,6.3021 L 4.8165,6.3021 L 4.8305,6.3021 L 4.8445,6.3021 L 4.8586,6.3021 L 4.8726,6.3021 L 4.8867,6.3021 L 4.9007,6.3021 L 4.9147,6.3021 L 4.9288,6.3021 L 4.9428,6.2881 L 4.9569,6.2881 L 4.9709,6.2741 L 4.9850,6.2741 L 4.9850,6.2600 L 4.9990,6.2600 L 4.9990,6.2460 L 5.0130,6.2460 L 5.0130,6.2320 L 5.0271,6.2179 L 5.0271,6.2039 L 5.0271,6.1899 L 5.0411,6.1899 L 5.0411,6.1758 L 5.0411,6.1618 L 5.0411,6.1477 L 5.0411,6.1337 L 5.0411,6.1197 L 5.0411,6.1056 L 5.0411,6.0916 L 5.0411,6.0776 L 5.0411,6.0635 L 5.0411,6.0495 L 5.0411,6.0355 L 5.0411,6.0214 L 5.0411,6.0074 L 5.0411,5.9934 L 5.0411,5.9793 L 5.0411,5.9653 L 5.0411,5.9512 L 5.0411,5.9372 L 5.0411,5.9232 L 5.0411,5.9091 L 5.0552,5.9091 L 5.0692,5.9091 L 5.0833,5.9091 L 5.0973,5.9091 L 5.1113,5.9091 L 5.1254,5.9091 L 5.1394,5.9091 L 5.1535,5.9091 L 5.1675,5.9091 L 5.1815,5.9091 L 5.1956,5.9091 L 5.2096,5.9091 L 5.2237,5.9091 L 5.2377,5.9091 L 5.2518,5.9091 L 5.2658,5.9091 L 5.2658,5.9232 L 5.2658,5.9372 L 5.2658,5.9512 L 5.2658,5.9653 L 5.2658,5.9793 L 5.2658,5.9934 L 5.2658,6.0074 L 5.2658,6.0214 L 5.2658,6.0355 L 5.2658,6.0495 L 5.2658,6.0635 L 5.2658,6.0776 L 5.2658,6.0916 L 5.2658,6.1056 L 5.2658,6.1197 L 5.2658,6.1337 L 5.2658,6.1477 L 5.2658,6.1618 L 5.2658,6.1758 L 5.2658,6.1899 L 5.2798,6.1899 L 5.2798,6.2039 L 5.2798,6.2179 L 5.2939,6.2320 L 5.2939,6.2460 L 5.3079,6.2460 L 5.3079,6.2600 L 5.3220,6.2600 L 5.3220,6.2741 L 5.3360,6.2741 L 5.3501,6.2881 L 5.3641,6.2881 L 5.3781,6.3021 L 5.3922,6.3021 L 5.4062,6.3021 L 5.4203,6.3021 L 5.4343,6.3021 L 5.4483,6.3021 L 5.4624,6.3021 L 5.4764,6.3021 L 5.4905,6.3021 L 5.5045,6.3021 L 5.5186,6.3021 L 5.5326,6.3021 L 5.5466,6.3021 L 5.5607,6.3021 L 5.5747,6.3021 L 5.5888,6.3021 L 5.6028,6.3021 L 5.6169,6.3021 L 5.6309,6.3021 L 5.6449,6.3021 L 5.6590,6.3021 L 5.6730,6.3021 L 5.6730,6.3162 L 5.6730,6.3302 L 5.6730,6.3443 L 5.6730,6.3583 L 5.6730,6.3723 L 5.6730,6.3864 L 5.6730,6.4004 L 5.6730,6.4144 L 5.6730,6.4285 L 5.6730,6.4425 L 5.6730,6.4565 L 5.6730,6.4706 L 5.6730,6.4846 L 5.6730,6.4986 L 5.6730,6.5127 L 5.6730,6.5267 L 5.6730,6.5408 L 5.6730,6.5548 L 5.6590,6.5548 L 5.6449,6.5548 L 5.6309,6.5548 L 5.6169,6.5548 L 5.6028,6.5548 L 5.5888,6.5548 L 5.5747,6.5548 L 5.5607,6.5548 L 5.5466,6.5548 L 5.5326,6.5548 L 5.5186,6.5548 L 5.5045,6.5548 L 5.4905,6.5548 L 5.4764,6.5548 L 5.4624,6.5548 L 5.4483,6.5548 L 5.4343,6.5548 L 5.4203,6.5548 L 5.4062,6.5548 L 5.3922,6.5548 L 5.3781,6.5548 L 5.3641,6.5548 L 5.3641,6.5688 L 5.3501,6.5688 L 5.3360,6.5688 L 5.3220,6.5829 L 5.3079,6.5969 L 5.2939,6.6109 L 5.2798,6.6250 L 5.2798,6.6390 L 5.2798,6.6530 L 5.2658,6.6530 L 5.2658,6.6671 L 5.2658,6.6811 L 5.2658,6.6952 L 5.2658,6.7092 L 5.2658,6.7232 L 5.2658,6.7373 L 5.2658,6.7513 L 5.2658,6.7653 L 5.2658,6.7794 L 5.2658,6.7934 L 5.2658,6.8074 L 5.2658,6.8215 L 5.2658,6.8355 L 5.2658,6.8495 L 5.2658,6.8636 L 5.2658,6.8776 L 5.2658,6.8917 L 5.2658,6.9057 L 5.2658,6.9197 L 5.2658,6.9338 L 5.2658,6.9478 Z" stroke="#7F7F7F" stroke-width="0.1195" stroke-linecap="round" stroke-linejoin="round" fill="#D1D1D1"/>
        <ellipse cx="5.0762" cy="6.3583" rx="0.8636" ry="0.8702" fill="none" stroke="#161616" stroke-width="0.1195" stroke-linecap="round" stroke-linejoin="round"/>
        <ellipse cx="5.0762" cy="6.3583" rx="0.8636" ry="0.8702" fill="none" stroke="#161616" stroke-width="0.1195" stroke-linecap="round" stroke-linejoin="round"/>
        <ellipse cx="2.1836" cy="5.7267" rx="1.0321" ry="1.0387" fill="#BFBFBF" stroke="#000000" stroke-width="0.1195" stroke-linecap="round" stroke-linejoin="round"/>
        <ellipse cx="2.1836" cy="5.7267" rx="1.0321" ry="1.0387" fill="none" stroke="#161616" stroke-width="0.1195" stroke-linecap="round" stroke-linejoin="round"/>
        <ellipse cx="2.1906" cy="5.7197" rx="0.8847" ry="0.8772" fill="#DDDDDD" stroke="#000000" stroke-width="0.1195" stroke-linecap="round" stroke-linejoin="round"/>
        <ellipse cx="2.1906" cy="5.7197" rx="0.8847" ry="0.8772" fill="none" stroke="#BFBFBF" stroke-width="0.1195" stroke-linecap="round" stroke-linejoin="round"/>
        <path d="M 2.3872,6.4004 L 2.3731,6.4004 L 2.3591,6.4004 L 2.3450,6.4004 L 2.3310,6.4004 L 2.3170,6.4004 L 2.3029,6.4004 L 2.2889,6.4004 L 2.2748,6.4004 L 2.2608,6.4004 L 2.2467,6.4004 L 2.2327,6.4004 L 2.2187,6.4004 L 2.2046,6.4004 L 2.1906,6.4004 L 2.1765,6.4004 L 2.1625,6.4004 L 2.1484,6.4004 L 2.1344,6.4004 L 2.1344,6.3864 L 2.1344,6.3723 L 2.1344,6.3583 L 2.1344,6.3443 L 2.1344,6.3302 L 2.1344,6.3162 L 2.1344,6.3021 L 2.1344,6.2881 L 2.1344,6.2741 L 2.1344,6.2600 L 2.1344,6.2460 L 2.1344,6.2320 L 2.1344,6.2179 L 2.1344,6.2039 L 2.1344,6.1899 L 2.1344,6.1758 L 2.1344,6.1618 L 2.1344,6.1477 L 2.1344,6.1337 L 2.1344,6.1197 L 2.1344,6.1056 L 2.1344,6.0916 L 2.1344,6.0776 L 2.1204,6.0635 L 2.1204,6.0495 L 2.1204,6.0355 L 2.1063,6.0214 L 2.1063,6.0074 L 2.0923,6.0074 L 2.0923,5.9934 L 2.0782,5.9934 L 2.0782,5.9793 L 2.0642,5.9793 L 2.0642,5.9653 L 2.0502,5.9653 L 2.0361,5.9512 L 2.0221,5.9512 L 2.0080,5.9512 L 1.9940,5.9372 L 1.9799,5.9372 L 1.9659,5.9372 L 1.9519,5.9372 L 1.9378,5.9372 L 1.9238,5.9372 L 1.9097,5.9372 L 1.8957,5.9372 L 1.8816,5.9372 L 1.8676,5.9372 L 1.8536,5.9372 L 1.8395,5.9372 L 1.8255,5.9372 L 1.8114,5.9372 L 1.7974,5.9372 L 1.7834,5.9372 L 1.7693,5.9372 L 1.7553,5.9372 L 1.7412,5.9372 L 1.7272,5.9372 L 1.7131,5.9372 L 1.6991,5.9372 L 1.6851,5.9372 L 1.6710,5.9372 L 1.6570,5.9372 L 1.6570,5.9232 L 1.6570,5.9091 L 1.6570,5.8951 L 1.6570,5.8811 L 1.6570,5.8670 L 1.6570,5.8530 L 1.6570,5.8390 L 1.6570,5.8249 L 1.6570,5.8109 L 1.6570,5.7969 L 1.6570,5.7828 L 1.6570,5.7688 L 1.6570,5.7547 L 1.6570,5.7407 L 1.6570,5.7267 L 1.6570,5.7126 L 1.6570,5.6986 L 1.6570,5.6846 L 1.6570,5.6705 L 1.6570,5.6565 L 1.6710,5.6565 L 1.6851,5.6565 L 1.6991,5.6565 L 1.7131,5.6565 L 1.7272,5.6565 L 1.7412,5.6565 L 1.7553,5.6565 L 1.7693,5.6565 L 1.7834,5.6565 L 1.7974,5.6565 L 1.8114,5.6565 L 1.8255,5.6565 L 1.8395,5.6565 L 1.8536,5.6565 L 1.8676,5.6565 L 1.8816,5.6565 L 1.8957,5.6565 L 1.9097,5.6565 L 1.9238,5.6565 L 1.9378,5.6565 L 1.9519,5.6565 L 1.9659,5.6565 L 1.9799,5.6565 L 1.9940,5.6425 L 2.0080,5.6425 L 2.0221,5.6425 L 2.0361,5.6284 L 2.0502,5.6284 L 2.0502,5.6144 L 2.0642,5.6144 L 2.0642,5.6003 L 2.0782,5.6003 L 2.0782,5.5863 L 2.0923,5.5863 L 2.0923,5.5723 L 2.1063,5.5723 L 2.1063,5.5582 L 2.1063,5.5442 L 2.1204,5.5442 L 2.1204,5.5302 L 2.1204,5.5161 L 2.1344,5.5021 L 2.1344,5.4881 L 2.1344,5.4740 L 2.1344,5.4600 L 2.1344,5.4460 L 2.1344,5.4319 L 2.1344,5.4179 L 2.1344,5.4038 L 2.1344,5.3898 L 2.1344,5.3758 L 2.1344,5.3617 L 2.1344,5.3477 L 2.1344,5.3337 L 2.1344,5.3196 L 2.1344,5.3056 L 2.1344,5.2916 L 2.1344,5.2775 L 2.1344,5.2635 L 2.1344,5.2494 L 2.1344,5.2354 L 2.1344,5.2214 L 2.1344,5.2073 L 2.1344,5.1933 L 2.1484,5.1933 L 2.1625,5.1933 L 2.1765,5.1933 L 2.1906,5.1933 L 2.2046,5.1933 L 2.2187,5.1933 L 2.2327,5.1933 L 2.2467,5.1933 L 2.2608,5.1933 L 2.2748,5.1933 L 2.2889,5.1933 L 2.3029,5.1933 L 2.3170,5.1933 L 2.3310,5.1933 L 2.3450,5.1933 L 2.3591,5.1933 L 2.3731,5.1933 L 2.3872,5.1933 L 2.3872,5.2073 L 2.3872,5.2214 L 2.3872,5.2354 L 2.3872,5.2494 L 2.3872,5.2635 L 2.3872,5.2775 L 2.3872,5.2916 L 2.3872,5.3056 L 2.3872,5.3196 L 2.3872,5.3337 L 2.3872,5.3477 L 2.3872,5.3617 L 2.3872,5.3758 L 2.3872,5.3898 L 2.3872,5.4038 L 2.3872,5.4179 L 2.3872,5.4319 L 2.3872,5.4460 L 2.3872,5.4600 L 2.3872,5.4740 L 2.3872,5.4881 L 2.3872,5.5021 L 2.4012,5.5161 L 2.4012,5.5302 L 2.4012,5.5442 L 2.4152,5.5442 L 2.4152,5.5582 L 2.4152,5.5723 L 2.4293,5.5723 L 2.4293,5.5863 L 2.4433,5.5863 L 2.4433,5.6003 L 2.4574,5.6003 L 2.4574,5.6144 L 2.4714,5.6144 L 2.4714,5.6284 L 2.4855,5.6284 L 2.4995,5.6425 L 2.5135,5.6425 L 2.5276,5.6425 L 2.5416,5.6565 L 2.5557,5.6565 L 2.5697,5.6565 L 2.5838,5.6565 L 2.5978,5.6565 L 2.6118,5.6565 L 2.6259,5.6565 L 2.6399,5.6565 L 2.6540,5.6565 L 2.6680,5.6565 L 2.6820,5.6565 L 2.6961,5.6565 L 2.7101,5.6565 L 2.7242,5.6565 L 2.7382,5.6565 L 2.7523,5.6565 L 2.7663,5.6565 L 2.7803,5.6565 L 2.7944,5.6565 L 2.8084,5.6565 L 2.8225,5.6565 L 2.8365,5.6565 L 2.8506,5.6565 L 2.8646,5.6565 L 2.8646,5.6705 L 2.8646,5.6846 L 2.8646,5.6986 L 2.8646,5.7126 L 2.8646,5.7267 L 2.8646,5.7407 L 2.8646,5.7547 L 2.8646,5.7688 L 2.8646,5.7828 L 2.8646,5.7969 L 2.8646,5.8109 L 2.8646,5.8249 L 2.8646,5.8390 L 2.8646,5.8530 L 2.8646,5.8670 L 2.8646,5.8811 L 2.8646,5.8951 L 2.8646,5.9091 L 2.8646,5.9232 L 2.8646,5.9372 L 2.8506,5.9372 L 2.8365,5.9372 L 2.8225,5.9372 L 2.8084,5.9372 L 2.7944,5.9372 L 2.7803,5.9372 L 2.7663,5.9372 L 2.7523,5.9372 L 2.7382,5.9372 L 2.7242,5.9372 L 2.7101,5.9372 L 2.6961,5.9372 L 2.6820,5.9372 L 2.6680,5.9372 L 2.6540,5.9372 L 2.6399,5.9372 L 2.6259,5.9372 L 2.6118,5.9372 L 2.5978,5.9372 L 2.5838,5.9372 L 2.5697,5.9372 L 2.5557,5.9372 L 2.5416,5.9372 L 2.5276,5.9372 L 2.5135,5.9512 L 2.4995,5.9512 L 2.4855,5.9512 L 2.4714,5.9653 L 2.4574,5.9653 L 2.4574,5.9793 L 2.4433,5.9793 L 2.4433,5.9934 L 2.4293,5.9934 L 2.4293,6.0074 L 2.4152,6.0074 L 2.4152,6.0214 L 2.4012,6.0355 L 2.4012,6.0495 L 2.4012,6.0635 L 2.3872,6.0776 L 2.3872,6.0916 L 2.3872,6.1056 L 2.3872,6.1197 L 2.3872,6.1337 L 2.3872,6.1477 L 2.3872,6.1618 L 2.3872,6.1758 L 2.3872,6.1899 L 2.3872,6.2039 L 2.3872,6.2179 L 2.3872,6.2320 L 2.3872,6.2460 L 2.3872,6.2600 L 2.3872,6.2741 L 2.3872,6.2881 L 2.3872,6.3021 L 2.3872,6.3162 L 2.3872,6.3302 L 2.3872,6.3443 L 2.3872,6.3583 L 2.3872,6.3723 L 2.3872,6.3864 L 2.3872,6.4004 Z" stroke="#7F7F7F" stroke-width="0.1195" stroke-linecap="round" stroke-linejoin="round" fill="#D1D1D1"/>
        <ellipse cx="2.1836" cy="5.7267" rx="1.0321" ry="1.0387" fill="none" stroke="#161616" stroke-width="0.1195" stroke-linecap="round" stroke-linejoin="round"/>
        <ellipse cx="2.1836" cy="5.7267" rx="1.0321" ry="1.0387" fill="none" stroke="#161616" stroke-width="0.1195" stroke-linecap="round" stroke-linejoin="round"/>
        <path d="M 2.6540,7.6215 L 1.8395,7.6215 " stroke="#000000" stroke-width="0.1195" stroke-linecap="round" stroke-linejoin="round" fill="none"/>
        <path d="M 2.2467,7.6215 L 2.2467,7.2285 " stroke="#000000" stroke-width="0.1195" stroke-linecap="round" stroke-linejoin="round" fill="none"/>
        <path d="M 2.3450,7.9865 L 2.1484,7.9865 " stroke="#000000" stroke-width="0.1195" stroke-linecap="round" stroke-linejoin="round" fill="none"/>
        <path d="M 1.9799,7.8040 L 2.5135,7.8040 " stroke="#000000" stroke-width="0.1195" stroke-linecap="round" stroke-linejoin="round" fill="none"/>
        <path d="M 37.7733,4.8284 L 16.2608,4.8284 L 16.2608,8.8146 L 37.7733,8.8146 L 37.7733,4.8284 Z" stroke="#000000" stroke-width="0.1195" stroke-linecap="round" stroke-linejoin="round" fill="#BFBFBF"/>
        <path d="M 20.6419,4.9687 L 16.4855,4.9687 L 16.4855,8.6742 L 20.6419,8.6742 L 20.6419,4.9687 Z" stroke="#000000" stroke-width="0.1195" stroke-linecap="round" stroke-linejoin="round" fill="#F7F7F7"/>
        <path d="M 24.8686,4.9687 L 20.7121,4.9687 L 20.7121,8.6742 L 24.8686,8.6742 L 24.8686,4.9687 Z" stroke="#000000" stroke-width="0.1195" stroke-linecap="round" stroke-linejoin="round" fill="#F7F7F7"/>
        <path d="M 29.0953,4.9687 L 24.9388,4.9687 L 24.9388,8.6742 L 29.0953,8.6742 L 29.0953,4.9687 Z" stroke="#000000" stroke-width="0.1195" stroke-linecap="round" stroke-linejoin="round" fill="#F7F7F7"/>
        <path d="M 33.3220,4.9687 L 29.1655,4.9687 L 29.1655,8.6742 L 33.3220,8.6742 L 33.3220,4.9687 Z" stroke="#000000" stroke-width="0.1195" stroke-linecap="round" stroke-linejoin="round" fill="#F7F7F7"/>
        <path d="M 37.5487,4.9687 L 33.3922,4.9687 L 33.3922,8.6742 L 37.5487,8.6742 L 37.5487,4.9687 Z" stroke="#000000" stroke-width="0.1195" stroke-linecap="round" stroke-linejoin="round" fill="#F7F7F7"/>
        <path d="M 59.6791,4.8284 L 38.1665,4.8284 L 38.1665,8.8146 L 59.6791,8.8146 L 59.6791,4.8284 Z" stroke="#000000" stroke-width="0.1195" stroke-linecap="round" stroke-linejoin="round" fill="#BFBFBF"/>
        <path d="M 42.5477,4.9687 L 38.3912,4.9687 L 38.3912,8.6742 L 42.5477,8.6742 L 42.5477,4.9687 Z" stroke="#000000" stroke-width="0.1195" stroke-linecap="round" stroke-linejoin="round" fill="#F7F7F7"/>
        <path d="M 46.7743,4.9687 L 42.6179,4.9687 L 42.6179,8.6742 L 46.7743,8.6742 L 46.7743,4.9687 Z" stroke="#000000" stroke-width="0.1195" stroke-linecap="round" stroke-linejoin="round" fill="#F7F7F7"/>
        <path d="M 51.0010,4.9687 L 46.8446,4.9687 L 46.8446,8.6742 L 51.0010,8.6742 L 51.0010,4.9687 Z" stroke="#000000" stroke-width="0.1195" stroke-linecap="round" stroke-linejoin="round" fill="#F7F7F7"/>
        <path d="M 55.2277,4.9687 L 51.0712,4.9687 L 51.0712,8.6742 L 55.2277,8.6742 L 55.2277,4.9687 Z" stroke="#000000" stroke-width="0.1195" stroke-linecap="round" stroke-linejoin="round" fill="#F7F7F7"/>
        <path d="M 59.4544,4.9687 L 55.2979,4.9687 L 55.2979,8.6742 L 59.4544,8.6742 L 59.4544,4.9687 Z" stroke="#000000" stroke-width="0.1195" stroke-linecap="round" stroke-linejoin="round" fill="#F7F7F7"/>
        <path d="M 29.0953,9.6708 L 29.0813,9.6708 L 29.0672,9.6708 L 29.0532,9.6708 L 29.0391,9.6708 L 29.0251,9.6708 L 29.0110,9.6708 L 28.9970,9.6708 L 28.9970,9.6848 L 28.9970,9.6988 L 28.9970,9.7129 L 28.9830,9.7129 L 28.9830,9.7269 L 28.9830,9.7410 L 28.9830,9.7550 L 28.9830,9.7690 L 28.9830,9.7831 L 28.9830,9.7971 L 28.9830,9.8111 L 28.9830,9.8252 L 28.9830,9.8392 L 28.9970,9.8392 L 28.9970,9.8532 L 28.9970,9.8673 L 28.9970,9.8813 L 29.0110,9.8813 L 29.0110,9.8953 L 29.0251,9.9094 L 29.0251,9.9234 L 29.0391,9.9234 L 29.0391,9.9375 L 29.0532,9.9375 L 29.0672,9.9515 L 29.0813,9.9515 L 29.0953,9.9655 L 29.1093,9.9655 L 29.1234,9.9655 L 29.1374,9.9655 L 29.1515,9.9655 L 29.1655,9.9655 L 29.1796,9.9655 L 29.1936,9.9655 L 29.2076,9.9655 L 29.2217,9.9655 L 29.2357,9.9655 L 29.2498,9.9655 L 29.2638,9.9655 L 29.2778,9.9655 L 29.2919,9.9655 L 29.3059,9.9655 L 29.3200,9.9655 L 29.3340,9.9655 L 29.3481,9.9655 L 29.3621,9.9655 L 29.3761,9.9655 L 29.3902,9.9655 L 29.4042,9.9655 L 29.4183,9.9655 L 29.4323,9.9655 L 29.4464,9.9655 L 29.4604,9.9655 L 29.4744,9.9655 L 29.4885,9.9655 L 29.5025,9.9515 L 29.5166,9.9515 L 29.5306,9.9375 L 29.5446,9.9375 L 29.5446,9.9234 L 29.5587,9.9234 L 29.5587,9.9094 L 29.5727,9.8953 L 29.5727,9.8813 L 29.5868,9.8813 L 29.5868,9.8673 L 29.5868,9.8532 L 29.5868,9.8392 L 29.6008,9.8392 L 29.6008,9.8252 L 29.6008,9.8111 L 29.6008,9.7971 L 29.6008,9.7831 L 29.6008,9.7690 L 29.6008,9.7550 L 29.6008,9.7410 L 29.6008,9.7269 L 29.5868,9.7269 L 29.5868,9.7129 L 29.5868,9.6988 L 29.5868,9.6848 L 29.5727,9.6848 L 29.5727,9.6708 L 29.5587,9.6567 L 29.5587,9.6427 L 29.5446,9.6427 L 29.5446,9.6287 L 29.5306,9.6287 L 29.5166,9.6146 L 29.5025,9.6146 L 29.4885,9.6006 L 29.4744,9.6006 L 29.4604,9.6006 L 29.4464,9.6006 L 29.4323,9.6006 L 29.4183,9.6006 L 29.4042,9.6006 L 29.3902,9.6006 L 29.3761,9.6006 L 29.3621,9.6006 L 29.3481,9.6006 L 29.3340,9.6006 L 29.3200,9.6006 L 29.3059,9.6006 L 29.2919,9.6006 L 29.2778,9.6006 L 29.2638,9.6006 L 29.2498,9.6006 L 29.2638,9.6006 L 29.2638,9.6146 L 29.2778,9.6146 L 29.2778,9.6287 L 29.2919,9.6427 L 29.2919,9.6567 L 29.3059,9.6708 L 29.3059,9.6848 L 29.3200,9.6848 L 29.3340,9.6848 L 29.3481,9.6848 L 29.3621,9.6848 L 29.3761,9.6848 L 29.3902,9.6848 L 29.4042,9.6848 L 29.4183,9.6848 L 29.4323,9.6848 L 29.4464,9.6848 L 29.4604,9.6988 L 29.4744,9.6988 L 29.4744,9.7129 L 29.4885,9.7129 L 29.4885,9.7269 L 29.4885,9.7410 L 29.5025,9.7410 L 29.5025,9.7550 L 29.5025,9.7690 L 29.5025,9.7831 L 29.5025,9.7971 L 29.5025,9.8111 L 29.5025,9.8252 L 29.4885,9.8392 L 29.4885,9.8532 L 29.4885,9.8673 L 29.4744,9.8673 L 29.4744,9.8813 L 29.4604,9.8813 L 29.4604,9.8953 L 29.4464,9.8953 L 29.4464,9.9094 L 29.4323,9.9094 L 29.4183,9.9094 L 29.4042,9.9094 L 29.3902,9.9094 L 29.3761,9.9094 L 29.3621,9.9094 L 29.3481,9.9094 L 29.3340,9.9094 L 29.3200,9.9094 L 29.3059,9.9094 L 29.2919,9.9094 L 29.2778,9.9094 L 29.2638,9.9094 L 29.2498,9.9094 L 29.2357,9.9094 L 29.2217,9.9094 L 29.2076,9.9094 L 29.1936,9.9094 L 29.1796,9.9094 L 29.1655,9.9094 L 29.1515,9.9094 L 29.1374,9.9094 L 29.1374,9.8953 L 29.1234,9.8953 L 29.1234,9.8813 L 29.1093,9.8813 L 29.1093,9.8673 L 29.0953,9.8673 L 29.0953,9.8532 L 29.0953,9.8392 L 29.0813,9.8252 L 29.0813,9.8111 L 29.0813,9.7971 L 29.0813,9.7831 L 29.0813,9.7690 L 29.0813,9.7550 L 29.0813,9.7410 L 29.0813,9.7269 L 29.0813,9.7129 L 29.0953,9.7129 L 29.0953,9.6988 L 29.0953,9.6848 L 29.0953,9.6708 Z" stroke-width="1px" stroke="#6EACD3" fill="#6EACD3"/>
        <path d="M 29.1796,9.8953 L 29.1936,9.8953 L 29.2076,9.8953 L 29.2217,9.8953 L 29.2357,9.8953 L 29.2498,9.8953 L 29.2638,9.8953 L 29.2778,9.8953 L 29.2778,9.8813 L 29.2778,9.8673 L 29.2919,9.8673 L 29.2919,9.8532 L 29.2919,9.8392 L 29.2919,9.8252 L 29.2919,9.8111 L 29.2919,9.7971 L 29.2919,9.7831 L 29.2919,9.7690 L 29.2919,9.7550 L 29.2919,9.7410 L 29.2919,9.7269 L 29.2778,9.7269 L 29.2778,9.7129 L 29.2778,9.6988 L 29.2778,9.6848 L 29.2638,9.6848 L 29.2638,9.6708 L 29.2498,9.6567 L 29.2498,9.6427 L 29.2357,9.6427 L 29.2357,9.6287 L 29.2217,9.6287 L 29.2076,9.6146 L 29.1936,9.6146 L 29.1796,9.6006 L 29.1655,9.6006 L 29.1515,9.6006 L 29.1374,9.6006 L 29.1234,9.6006 L 29.1093,9.6006 L 29.0953,9.6006 L 29.0813,9.6006 L 29.0672,9.6006 L 29.0532,9.6006 L 29.0391,9.6006 L 29.0251,9.6006 L 29.0110,9.6006 L 28.9970,9.6006 L 28.9830,9.6006 L 28.9689,9.6006 L 28.9549,9.6006 L 28.9408,9.6006 L 28.9268,9.6006 L 28.9128,9.6006 L 28.8987,9.6006 L 28.8847,9.6006 L 28.8706,9.6006 L 28.8566,9.6006 L 28.8425,9.6006 L 28.8285,9.6006 L 28.8145,9.6006 L 28.8004,9.6006 L 28.7864,9.6006 L 28.7723,9.6146 L 28.7583,9.6146 L 28.7442,9.6287 L 28.7302,9.6287 L 28.7302,9.6427 L 28.7162,9.6427 L 28.7162,9.6567 L 28.7021,9.6708 L 28.7021,9.6848 L 28.6881,9.6848 L 28.6881,9.6988 L 28.6881,9.7129 L 28.6881,9.7269 L 28.6740,9.7269 L 28.6740,9.7410 L 28.6740,9.7550 L 28.6740,9.7690 L 28.6740,9.7831 L 28.6740,9.7971 L 28.6740,9.8111 L 28.6740,9.8252 L 28.6740,9.8392 L 28.6881,9.8392 L 28.6881,9.8532 L 28.6881,9.8673 L 28.6881,9.8813 L 28.7021,9.8813 L 28.7021,9.8953 L 28.7162,9.9094 L 28.7162,9.9234 L 28.7302,9.9234 L 28.7302,9.9375 L 28.7442,9.9375 L 28.7583,9.9515 L 28.7723,9.9515 L 28.7864,9.9655 L 28.8004,9.9655 L 28.8145,9.9655 L 28.8285,9.9655 L 28.8425,9.9655 L 28.8566,9.9655 L 28.8706,9.9655 L 28.8847,9.9655 L 28.8987,9.9655 L 28.9128,9.9655 L 28.9268,9.9655 L 28.9408,9.9655 L 28.9549,9.9655 L 28.9689,9.9655 L 28.9830,9.9655 L 28.9970,9.9655 L 29.0110,9.9655 L 29.0251,9.9655 L 29.0110,9.9655 L 29.0110,9.9515 L 28.9970,9.9515 L 28.9970,9.9375 L 28.9830,9.9234 L 28.9830,9.9094 L 28.9689,9.8953 L 28.9689,9.8813 L 28.9549,9.8813 L 28.9408,9.8813 L 28.9268,9.8813 L 28.9128,9.8813 L 28.8987,9.8813 L 28.8847,9.8813 L 28.8706,9.8813 L 28.8566,9.8813 L 28.8425,9.8813 L 28.8285,9.8813 L 28.8145,9.8673 L 28.8004,9.8673 L 28.8004,9.8532 L 28.7864,9.8532 L 28.7864,9.8392 L 28.7864,9.8252 L 28.7723,9.8252 L 28.7723,9.8111 L 28.7723,9.7971 L 28.7723,9.7831 L 28.7723,9.7690 L 28.7723,9.7550 L 28.7723,9.7410 L 28.7864,9.7269 L 28.7864,9.7129 L 28.7864,9.6988 L 28.8004,9.6988 L 28.8004,9.6848 L 28.8145,9.6848 L 28.8145,9.6708 L 28.8285,9.6708 L 28.8285,9.6567 L 28.8425,9.6567 L 28.8566,9.6567 L 28.8706,9.6567 L 28.8847,9.6567 L 28.8987,9.6567 L 28.9128,9.6567 L 28.9268,9.6567 L 28.9408,9.6567 L 28.9549,9.6567 L 28.9689,9.6567 L 28.9830,9.6567 L 28.9970,9.6567 L 29.0110,9.6567 L 29.0251,9.6567 L 29.0391,9.6567 L 29.0532,9.6567 L 29.0672,9.6567 L 29.0813,9.6567 L 29.0953,9.6567 L 29.1093,9.6567 L 29.1234,9.6567 L 29.1374,9.6567 L 29.1374,9.6708 L 29.1515,9.6708 L 29.1515,9.6848 L 29.1655,9.6848 L 29.1655,9.6988 L 29.1796,9.6988 L 29.1796,9.7129 L 29.1796,9.7269 L 29.1936,9.7410 L 29.1936,9.7550 L 29.1936,9.7690 L 29.1936,9.7831 L 29.1936,9.7971 L 29.1936,9.8111 L 29.1936,9.8252 L 29.1936,9.8392 L 29.1936,9.8532 L 29.1936,9.8673 L 29.1796,9.8673 L 29.1796,9.8813 L 29.1796,9.8953 Z" stroke-width="1px" stroke="#6EACD3" fill="#6EACD3"/>
        <path d="M 28.4072,9.7831 L 27.7332,9.7831 " stroke="#000000" stroke-width="0.1195" stroke-linecap="round" stroke-linejoin="round" fill="none"/>
        <path d="M 30.5276,9.7831 L 29.8536,9.7831 " stroke="#000000" stroke-width="0.1195" stroke-linecap="round" stroke-linejoin="round" fill="none"/>
        <path d="M 59.0893,2.0633 L 59.0893,2.0212 L 59.0753,1.9791 L 59.0472,1.9510 L 59.0331,1.9229 L 58.9910,1.8949 L 58.9629,1.8668 L 58.9208,1.8527 L 58.8787,1.8527 L 58.0361,1.8527 L 57.9940,1.8527 L 57.9519,1.8668 L 57.9238,1.8949 L 57.8957,1.9229 L 57.8676,1.9510 L 57.8395,1.9791 L 57.8255,2.0212 L 57.8255,2.0633 L 57.8255,2.0773 L 57.8255,2.1194 L 57.8395,2.1615 L 57.8676,2.1896 L 57.8957,2.2317 L 57.9238,2.2458 L 57.9519,2.2738 L 57.9940,2.2879 L 58.0361,2.2879 L 58.8787,2.2879 L 58.9208,2.2879 L 58.9629,2.2738 L 58.9910,2.2458 L 59.0331,2.2317 L 59.0472,2.1896 L 59.0753,2.1615 L 59.0893,2.1194 L 59.0893,2.0773 L 59.0893,2.0633 Z" stroke="#7F7F7F" stroke-width="0.1195" stroke-linecap="round" stroke-linejoin="round" fill="#000000"/>
        <path d="M 59.0893,3.2844 L 59.0893,3.2423 L 59.0753,3.2002 L 59.0472,3.1721 L 59.0331,3.1441 L 58.9910,3.1160 L 58.9629,3.0879 L 58.9208,3.0739 L 58.8787,3.0739 L 58.0361,3.0739 L 57.9940,3.0739 L 57.9519,3.0879 L 57.9238,3.1160 L 57.8957,3.1441 L 57.8676,3.1721 L 57.8395,3.2002 L 57.8255,3.2423 L 57.8255,3.2844 L 57.8255,3.2984 L 57.8255,3.3406 L 57.8395,3.3827 L 57.8676,3.4107 L 57.8957,3.4528 L 57.9238,3.4669 L 57.9519,3.4950 L 57.9940,3.5090 L 58.0361,3.5090 L 58.8787,3.5090 L 58.9208,3.5090 L 58.9629,3.4950 L 58.9910,3.4669 L 59.0331,3.4528 L 59.0472,3.4107 L 59.0753,3.3827 L 59.0893,3.3406 L 59.0893,3.2984 L 59.0893,3.2844 Z" stroke="#7F7F7F" stroke-width="0.1195" stroke-linecap="round" stroke-linejoin="round" fill="#000000"/>
        <path d="M 56.8285,2.0633 L 56.8285,2.0212 L 56.8145,1.9791 L 56.7864,1.9510 L 56.7723,1.9229 L 56.7302,1.8949 L 56.7021,1.8668 L 56.6600,1.8527 L 56.6179,1.8527 L 55.7753,1.8527 L 55.7332,1.8527 L 55.6911,1.8668 L 55.6630,1.8949 L 55.6349,1.9229 L 55.6068,1.9510 L 55.5788,1.9791 L 55.5647,2.0212 L 55.5647,2.0633 L 55.5647,2.0773 L 55.5647,2.1194 L 55.5788,2.1615 L 55.6068,2.1896 L 55.6349,2.2317 L 55.6630,2.2458 L 55.6911,2.2738 L 55.7332,2.2879 L 55.7753,2.2879 L 56.6179,2.2879 L 56.6600,2.2879 L 56.7021,2.2738 L 56.7302,2.2458 L 56.7723,2.2317 L 56.7864,2.1896 L 56.8145,2.1615 L 56.8285,2.1194 L 56.8285,2.0773 L 56.8285,2.0633 Z" stroke="#7F7F7F" stroke-width="0.1195" stroke-linecap="round" stroke-linejoin="round" fill="#000000"/>
        <path d="M 56.8285,3.2844 L 56.8285,3.2423 L 56.8145,3.2002 L 56.7864,3.1721 L 56.7723,3.1441 L 56.7302,3.1160 L 56.7021,3.0879 L 56.6600,3.0739 L 56.6179,3.0739 L 55.7753,3.0739 L 55.7332,3.0739 L 55.6911,3.0879 L 55.6630,3.1160 L 55.6349,3.1441 L 55.6068,3.1721 L 55.5788,3.2002 L 55.5647,3.2423 L 55.5647,3.2844 L 55.5647,3.2984 L 55.5647,3.3406 L 55.5788,3.3827 L 55.6068,3.4107 L 55.6349,3.4528 L 55.6630,3.4669 L 55.6911,3.4950 L 55.7332,3.5090 L 55.7753,3.5090 L 56.6179,3.5090 L 56.6600,3.5090 L 56.7021,3.4950 L 56.7302,3.4669 L 56.7723,3.4528 L 56.7864,3.4107 L 56.8145,3.3827 L 56.8285,3.3406 L 56.8285,3.2984 L 56.8285,3.2844 Z" stroke="#7F7F7F" stroke-width="0.1195" stroke-linecap="round" stroke-linejoin="round" fill="#000000"/>
        <path d="M 54.5677,2.0633 L 54.5677,2.0212 L 54.5537,1.9791 L 54.5256,1.9510 L 54.5116,1.9229 L 54.4694,1.8949 L 54.4413,1.8668 L 54.3992,1.8527 L 54.3571,1.8527 L 53.5146,1.8527 L 53.4724,1.8527 L 53.4303,1.8668 L 53.4022,1.8949 L 53.3741,1.9229 L 53.3461,1.9510 L 53.3180,1.9791 L 53.3039,2.0212 L 53.3039,2.0633 L 53.3039,2.0773 L 53.3039,2.1194 L 53.3180,2.1615 L 53.3461,2.1896 L 53.3741,2.2317 L 53.4022,2.2458 L 53.4303,2.2738 L 53.4724,2.2879 L 53.5146,2.2879 L 54.3571,2.2879 L 54.3992,2.2879 L 54.4413,2.2738 L 54.4694,2.2458 L 54.5116,2.2317 L 54.5256,2.1896 L 54.5537,2.1615 L 54.5677,2.1194 L 54.5677,2.0773 L 54.5677,2.0633 Z" stroke="#7F7F7F" stroke-width="0.1195" stroke-linecap="round" stroke-linejoin="round" fill="#000000"/>
        <path d="M 54.5677,3.2844 L 54.5677,3.2423 L 54.5537,3.2002 L 54.5256,3.1721 L 54.5116,3.1441 L 54.4694,3.1160 L 54.4413,3.0879 L 54.3992,3.0739 L 54.3571,3.0739 L 53.5146,3.0739 L 53.4724,3.0739 L 53.4303,3.0879 L 53.4022,3.1160 L 53.3741,3.1441 L 53.3461,3.1721 L 53.3180,3.2002 L 53.3039,3.2423 L 53.3039,3.2844 L 53.3039,3.2984 L 53.3039,3.3406 L 53.3180,3.3827 L 53.3461,3.4107 L 53.3741,3.4528 L 53.4022,3.4669 L 53.4303,3.4950 L 53.4724,3.5090 L 53.5146,3.5090 L 54.3571,3.5090 L 54.3992,3.5090 L 54.4413,3.4950 L 54.4694,3.4669 L 54.5116,3.4528 L 54.5256,3.4107 L 54.5537,3.3827 L 54.5677,3.3406 L 54.5677,3.2984 L 54.5677,3.2844 Z" stroke="#7F7F7F" stroke-width="0.1195" stroke-linecap="round" stroke-linejoin="round" fill="#000000"/>
        <path d="M 52.3069,2.0633 L 52.3069,2.0212 L 52.2929,1.9791 L 52.2648,1.9510 L 52.2508,1.9229 L 52.2086,1.8949 L 52.1806,1.8668 L 52.1384,1.8527 L 52.0963,1.8527 L 51.2538,1.8527 L 51.2117,1.8527 L 51.1695,1.8668 L 51.1414,1.8949 L 51.1134,1.9229 L 51.0853,1.9510 L 51.0572,1.9791 L 51.0432,2.0212 L 51.0432,2.0633 L 51.0432,2.0773 L 51.0432,2.1194 L 51.0572,2.1615 L 51.0853,2.1896 L 51.1134,2.2317 L 51.1414,2.2458 L 51.1695,2.2738 L 51.2117,2.2879 L 51.2538,2.2879 L 52.0963,2.2879 L 52.1384,2.2879 L 52.1806,2.2738 L 52.2086,2.2458 L 52.2508,2.2317 L 52.2648,2.1896 L 52.2929,2.1615 L 52.3069,2.1194 L 52.3069,2.0773 L 52.3069,2.0633 Z" stroke="#7F7F7F" stroke-width="0.1195" stroke-linecap="round" stroke-linejoin="round" fill="#000000"/>
        <path d="M 52.3069,3.2844 L 52.3069,3.2423 L 52.2929,3.2002 L 52.2648,3.1721 L 52.2508,3.1441 L 52.2086,3.1160 L 52.1806,3.0879 L 52.1384,3.0739 L 52.0963,3.0739 L 51.2538,3.0739 L 51.2117,3.0739 L 51.1695,3.0879 L 51.1414,3.1160 L 51.1134,3.1441 L 51.0853,3.1721 L 51.0572,3.2002 L 51.0432,3.2423 L 51.0432,3.2844 L 51.0432,3.2984 L 51.0432,3.3406 L 51.0572,3.3827 L 51.0853,3.4107 L 51.1134,3.4528 L 51.1414,3.4669 L 51.1695,3.4950 L 51.2117,3.5090 L 51.2538,3.5090 L 52.0963,3.5090 L 52.1384,3.5090 L 52.1806,3.4950 L 52.2086,3.4669 L 52.2508,3.4528 L 52.2648,3.4107 L 52.2929,3.3827 L 52.3069,3.3406 L 52.3069,3.2984 L 52.3069,3.2844 Z" stroke="#7F7F7F" stroke-width="0.1195" stroke-linecap="round" stroke-linejoin="round" fill="#000000"/>
        <path d="M 50.0321,2.0633 L 50.0321,2.0212 L 50.0181,1.9791 L 49.9900,1.9510 L 49.9759,1.9229 L 49.9338,1.8949 L 49.9057,1.8668 L 49.8636,1.8527 L 49.8215,1.8527 L 48.9790,1.8527 L 48.9368,1.8527 L 48.8947,1.8668 L 48.8666,1.8949 L 48.8385,1.9229 L 48.8105,1.9510 L 48.7824,1.9791 L 48.7683,2.0212 L 48.7683,2.0633 L 48.7683,2.0773 L 48.7683,2.1194 L 48.7824,2.1615 L 48.8105,2.1896 L 48.8385,2.2317 L 48.8666,2.2458 L 48.8947,2.2738 L 48.9368,2.2879 L 48.9790,2.2879 L 49.8215,2.2879 L 49.8636,2.2879 L 49.9057,2.2738 L 49.9338,2.2458 L 49.9759,2.2317 L 49.9900,2.1896 L 50.0181,2.1615 L 50.0321,2.1194 L 50.0321,2.0773 L 50.0321,2.0633 Z" stroke="#7F7F7F" stroke-width="0.1195" stroke-linecap="round" stroke-linejoin="round" fill="#000000"/>
        <path d="M 50.0321,3.2844 L 50.0321,3.2423 L 50.0181,3.2002 L 49.9900,3.1721 L 49.9759,3.1441 L 49.9338,3.1160 L 49.9057,3.0879 L 49.8636,3.0739 L 49.8215,3.0739 L 48.9790,3.0739 L 48.9368,3.0739 L 48.8947,3.0879 L 48.8666,3.1160 L 48.8385,3.1441 L 48.8105,3.1721 L 48.7824,3.2002 L 48.7683,3.2423 L 48.7683,3.2844 L 48.7683,3.2984 L 48.7683,3.3406 L 48.7824,3.3827 L 48.8105,3.4107 L 48.8385,3.4528 L 48.8666,3.4669 L 48.8947,3.4950 L 48.9368,3.5090 L 48.9790,3.5090 L 49.8215,3.5090 L 49.8636,3.5090 L 49.9057,3.4950 L 49.9338,3.4669 L 49.9759,3.4528 L 49.9900,3.4107 L 50.0181,3.3827 L 50.0321,3.3406 L 50.0321,3.2984 L 50.0321,3.2844 Z" stroke="#7F7F7F" stroke-width="0.1195" stroke-linecap="round" stroke-linejoin="round" fill="#000000"/>
        <path d="M 47.7713,2.0633 L 47.7713,2.0212 L 47.7573,1.9791 L 47.7292,1.9510 L 47.7152,1.9229 L 47.6730,1.8949 L 47.6450,1.8668 L 47.6028,1.8527 L 47.5607,1.8527 L 46.7182,1.8527 L 46.6760,1.8527 L 46.6339,1.8668 L 46.6058,1.8949 L 46.5778,1.9229 L 46.5497,1.9510 L 46.5216,1.9791 L 46.5075,2.0212 L 46.5075,2.0633 L 46.5075,2.0773 L 46.5075,2.1194 L 46.5216,2.1615 L 46.5497,2.1896 L 46.5778,2.2317 L 46.6058,2.2458 L 46.6339,2.2738 L 46.6760,2.2879 L 46.7182,2.2879 L 47.5607,2.2879 L 47.6028,2.2879 L 47.6450,2.2738 L 47.6730,2.2458 L 47.7152,2.2317 L 47.7292,2.1896 L 47.7573,2.1615 L 47.7713,2.1194 L 47.7713,2.0773 L 47.7713,2.0633 Z" stroke="#7F7F7F" stroke-width="0.1195" stroke-linecap="round" stroke-linejoin="round" fill="#000000"/>
        <path d="M 47.7713,3.2844 L 47.7713,3.2423 L 47.7573,3.2002 L 47.7292,3.1721 L 47.7152,3.1441 L 47.6730,3.1160 L 47.6450,3.0879 L 47.6028,3.0739 L 47.5607,3.0739 L 46.7182,3.0739 L 46.6760,3.0739 L 46.6339,3.0879 L 46.6058,3.1160 L 46.5778,3.1441 L 46.5497,3.1721 L 46.5216,3.2002 L 46.5075,3.2423 L 46.5075,3.2844 L 46.5075,3.2984 L 46.5075,3.3406 L 46.5216,3.3827 L 46.5497,3.4107 L 46.5778,3.4528 L 46.6058,3.4669 L 46.6339,3.4950 L 46.6760,3.5090 L 46.7182,3.5090 L 47.5607,3.5090 L 47.6028,3.5090 L 47.6450,3.4950 L 47.6730,3.4669 L 47.7152,3.4528 L 47.7292,3.4107 L 47.7573,3.3827 L 47.7713,3.3406 L 47.7713,3.2984 L 47.7713,3.2844 Z" stroke="#7F7F7F" stroke-width="0.1195" stroke-linecap="round" stroke-linejoin="round" fill="#000000"/>
        <path d="M 45.5106,2.0633 L 45.5106,2.0212 L 45.4965,1.9791 L 45.4684,1.9510 L 45.4544,1.9229 L 45.4123,1.8949 L 45.3842,1.8668 L 45.3420,1.8527 L 45.2999,1.8527 L 44.4574,1.8527 L 44.4153,1.8527 L 44.3731,1.8668 L 44.3451,1.8949 L 44.3170,1.9229 L 44.2889,1.9510 L 44.2608,1.9791 L 44.2468,2.0212 L 44.2468,2.0633 L 44.2468,2.0773 L 44.2468,2.1194 L 44.2608,2.1615 L 44.2889,2.1896 L 44.3170,2.2317 L 44.3451,2.2458 L 44.3731,2.2738 L 44.4153,2.2879 L 44.4574,2.2879 L 45.2999,2.2879 L 45.3420,2.2879 L 45.3842,2.2738 L 45.4123,2.2458 L 45.4544,2.2317 L 45.4684,2.1896 L 45.4965,2.1615 L 45.5106,2.1194 L 45.5106,2.0773 L 45.5106,2.0633 Z" stroke="#7F7F7F" stroke-width="0.1195" stroke-linecap="round" stroke-linejoin="round" fill="#000000"/>
        <path d="M 45.5106,3.2844 L 45.5106,3.2423 L 45.4965,3.2002 L 45.4684,3.1721 L 45.4544,3.1441 L 45.4123,3.1160 L 45.3842,3.0879 L 45.3420,3.0739 L 45.2999,3.0739 L 44.4574,3.0739 L 44.4153,3.0739 L 44.3731,3.0879 L 44.3451,3.1160 L 44.3170,3.1441 L 44.2889,3.1721 L 44.2608,3.2002 L 44.2468,3.2423 L 44.2468,3.2844 L 44.2468,3.2984 L 44.2468,3.3406 L 44.2608,3.3827 L 44.2889,3.4107 L 44.3170,3.4528 L 44.3451,3.4669 L 44.3731,3.4950 L 44.4153,3.5090 L 44.4574,3.5090 L 45.2999,3.5090 L 45.3420,3.5090 L 45.3842,3.4950 L 45.4123,3.4669 L 45.4544,3.4528 L 45.4684,3.4107 L 45.4965,3.3827 L 45.5106,3.3406 L 45.5106,3.2984 L 45.5106,3.2844 Z" stroke="#7F7F7F" stroke-width="0.1195" stroke-linecap="round" stroke-linejoin="round" fill="#000000"/>
        <path d="M 43.2498,2.0633 L 43.2498,2.0212 L 43.2357,1.9791 L 43.2076,1.9510 L 43.1936,1.9229 L 43.1515,1.8949 L 43.1234,1.8668 L 43.0813,1.8527 L 43.0391,1.8527 L 42.1966,1.8527 L 42.1545,1.8527 L 42.1124,1.8668 L 42.0843,1.8949 L 42.0562,1.9229 L 42.0281,1.9510 L 42.0000,1.9791 L 41.9860,2.0212 L 41.9860,2.0633 L 41.9860,2.0773 L 41.9860,2.1194 L 42.0000,2.1615 L 42.0281,2.1896 L 42.0562,2.2317 L 42.0843,2.2458 L 42.1124,2.2738 L 42.1545,2.2879 L 42.1966,2.2879 L 43.0391,2.2879 L 43.0813,2.2879 L 43.1234,2.2738 L 43.1515,2.2458 L 43.1936,2.2317 L 43.2076,2.1896 L 43.2357,2.1615 L 43.2498,2.1194 L 43.2498,2.0773 L 43.2498,2.0633 Z" stroke="#7F7F7F" stroke-width="0.1195" stroke-linecap="round" stroke-linejoin="round" fill="#000000"/>
        <path d="M 43.2498,3.2844 L 43.2498,3.2423 L 43.2357,3.2002 L 43.2076,3.1721 L 43.1936,3.1441 L 43.1515,3.1160 L 43.1234,3.0879 L 43.0813,3.0739 L 43.0391,3.0739 L 42.1966,3.0739 L 42.1545,3.0739 L 42.1124,3.0879 L 42.0843,3.1160 L 42.0562,3.1441 L 42.0281,3.1721 L 42.0000,3.2002 L 41.9860,3.2423 L 41.9860,3.2844 L 41.9860,3.2984 L 41.9860,3.3406 L 42.0000,3.3827 L 42.0281,3.4107 L 42.0562,3.4528 L 42.0843,3.4669 L 42.1124,3.4950 L 42.1545,3.5090 L 42.1966,3.5090 L 43.0391,3.5090 L 43.0813,3.5090 L 43.1234,3.4950 L 43.1515,3.4669 L 43.1936,3.4528 L 43.2076,3.4107 L 43.2357,3.3827 L 43.2498,3.3406 L 43.2498,3.2984 L 43.2498,3.2844 Z" stroke="#7F7F7F" stroke-width="0.1195" stroke-linecap="round" stroke-linejoin="round" fill="#000000"/>
        <path d="M 40.9890,2.0633 L 40.9890,2.0212 L 40.9749,1.9791 L 40.9469,1.9510 L 40.9328,1.9229 L 40.8907,1.8949 L 40.8626,1.8668 L 40.8205,1.8527 L 40.7784,1.8527 L 39.9358,1.8527 L 39.8937,1.8527 L 39.8516,1.8668 L 39.8235,1.8949 L 39.7954,1.9229 L 39.7673,1.9510 L 39.7392,1.9791 L 39.7252,2.0212 L 39.7252,2.0633 L 39.7252,2.0773 L 39.7252,2.1194 L 39.7392,2.1615 L 39.7673,2.1896 L 39.7954,2.2317 L 39.8235,2.2458 L 39.8516,2.2738 L 39.8937,2.2879 L 39.9358,2.2879 L 40.7784,2.2879 L 40.8205,2.2879 L 40.8626,2.2738 L 40.8907,2.2458 L 40.9328,2.2317 L 40.9469,2.1896 L 40.9749,2.1615 L 40.9890,2.1194 L 40.9890,2.0773 L 40.9890,2.0633 Z" stroke="#7F7F7F" stroke-width="0.1195" stroke-linecap="round" stroke-linejoin="round" fill="#000000"/>
        <path d="M 40.9890,3.2844 L 40.9890,3.2423 L 40.9749,3.2002 L 40.9469,3.1721 L 40.9328,3.1441 L 40.8907,3.1160 L 40.8626,3.0879 L 40.8205,3.0739 L 40.7784,3.0739 L 39.9358,3.0739 L 39.8937,3.0739 L 39.8516,3.0879 L 39.8235,3.1160 L 39.7954,3.1441 L 39.7673,3.1721 L 39.7392,3.2002 L 39.7252,3.2423 L 39.7252,3.2844 L 39.7252,3.2984 L 39.7252,3.3406 L 39.7392,3.3827 L 39.7673,3.4107 L 39.7954,3.4528 L 39.8235,3.4669 L 39.8516,3.4950 L 39.8937,3.5090 L 39.9358,3.5090 L 40.7784,3.5090 L 40.8205,3.5090 L 40.8626,3.4950 L 40.8907,3.4669 L 40.9328,3.4528 L 40.9469,3.4107 L 40.9749,3.3827 L 40.9890,3.3406 L 40.9890,3.2984 L 40.9890,3.2844 Z" stroke="#7F7F7F" stroke-width="0.1195" stroke-linecap="round" stroke-linejoin="round" fill="#000000"/>
        <path d="M 38.7282,2.0633 L 38.7282,2.0212 L 38.7142,1.9791 L 38.6861,1.9510 L 38.6720,1.9229 L 38.6299,1.8949 L 38.6018,1.8668 L 38.5597,1.8527 L 38.5176,1.8527 L 37.6750,1.8527 L 37.6329,1.8527 L 37.5908,1.8668 L 37.5627,1.8949 L 37.5346,1.9229 L 37.5065,1.9510 L 37.4785,1.9791 L 37.4644,2.0212 L 37.4644,2.0633 L 37.4644,2.0773 L 37.4644,2.1194 L 37.4785,2.1615 L 37.5065,2.1896 L 37.5346,2.2317 L 37.5627,2.2458 L 37.5908,2.2738 L 37.6329,2.2879 L 37.6750,2.2879 L 38.5176,2.2879 L 38.5597,2.2879 L 38.6018,2.2738 L 38.6299,2.2458 L 38.6720,2.2317 L 38.6861,2.1896 L 38.7142,2.1615 L 38.7282,2.1194 L 38.7282,2.0773 L 38.7282,2.0633 Z" stroke="#7F7F7F" stroke-width="0.1195" stroke-linecap="round" stroke-linejoin="round" fill="#000000"/>
        <path d="M 38.7282,3.2844 L 38.7282,3.2423 L 38.7142,3.2002 L 38.6861,3.1721 L 38.6720,3.1441 L 38.6299,3.1160 L 38.6018,3.0879 L 38.5597,3.0739 L 38.5176,3.0739 L 37.6750,3.0739 L 37.6329,3.0739 L 37.5908,3.0879 L 37.5627,3.1160 L 37.5346,3.1441 L 37.5065,3.1721 L 37.4785,3.2002 L 37.4644,3.2423 L 37.4644,3.2844 L 37.4644,3.2984 L 37.4644,3.3406 L 37.4785,3.3827 L 37.5065,3.4107 L 37.5346,3.4528 L 37.5627,3.4669 L 37.5908,3.4950 L 37.6329,3.5090 L 37.6750,3.5090 L 38.5176,3.5090 L 38.5597,3.5090 L 38.6018,3.4950 L 38.6299,3.4669 L 38.6720,3.4528 L 38.6861,3.4107 L 38.7142,3.3827 L 38.7282,3.3406 L 38.7282,3.2984 L 38.7282,3.2844 Z" stroke="#7F7F7F" stroke-width="0.1195" stroke-linecap="round" stroke-linejoin="round" fill="#000000"/>
        <path d="M 36.4534,2.0633 L 36.4534,2.0212 L 36.4393,1.9791 L 36.4112,1.9510 L 36.3972,1.9229 L 36.3551,1.8949 L 36.3270,1.8668 L 36.2849,1.8527 L 36.2427,1.8527 L 35.4002,1.8527 L 35.3581,1.8527 L 35.3160,1.8668 L 35.2879,1.8949 L 35.2598,1.9229 L 35.2317,1.9510 L 35.2036,1.9791 L 35.1896,2.0212 L 35.1896,2.0633 L 35.1896,2.0773 L 35.1896,2.1194 L 35.2036,2.1615 L 35.2317,2.1896 L 35.2598,2.2317 L 35.2879,2.2458 L 35.3160,2.2738 L 35.3581,2.2879 L 35.4002,2.2879 L 36.2427,2.2879 L 36.2849,2.2879 L 36.3270,2.2738 L 36.3551,2.2458 L 36.3972,2.2317 L 36.4112,2.1896 L 36.4393,2.1615 L 36.4534,2.1194 L 36.4534,2.0773 L 36.4534,2.0633 Z" stroke="#7F7F7F" stroke-width="0.1195" stroke-linecap="round" stroke-linejoin="round" fill="#000000"/>
        <path d="M 36.4534,3.2844 L 36.4534,3.2423 L 36.4393,3.2002 L 36.4112,3.1721 L 36.3972,3.1441 L 36.3551,3.1160 L 36.3270,3.0879 L 36.2849,3.0739 L 36.2427,3.0739 L 35.4002,3.0739 L 35.3581,3.0739 L 35.3160,3.0879 L 35.2879,3.1160 L 35.2598,3.1441 L 35.2317,3.1721 L 35.2036,3.2002 L 35.1896,3.2423 L 35.1896,3.2844 L 35.1896,3.2984 L 35.1896,3.3406 L 35.2036,3.3827 L 35.2317,3.4107 L 35.2598,3.4528 L 35.2879,3.4669 L 35.3160,3.4950 L 35.3581,3.5090 L 35.4002,3.5090 L 36.2427,3.5090 L 36.2849,3.5090 L 36.3270,3.4950 L 36.3551,3.4669 L 36.3972,3.4528 L 36.4112,3.4107 L 36.4393,3.3827 L 36.4534,3.3406 L 36.4534,3.2984 L 36.4534,3.2844 Z" stroke="#7F7F7F" stroke-width="0.1195" stroke-linecap="round" stroke-linejoin="round" fill="#000000"/>
        <path d="M 34.1926,2.0633 L 34.1926,2.0212 L 34.1785,1.9791 L 34.1505,1.9510 L 34.1364,1.9229 L 34.0943,1.8949 L 34.0662,1.8668 L 34.0241,1.8527 L 33.9820,1.8527 L 33.1394,1.8527 L 33.0973,1.8527 L 33.0552,1.8668 L 33.0271,1.8949 L 32.9990,1.9229 L 32.9709,1.9510 L 32.9428,1.9791 L 32.9288,2.0212 L 32.9288,2.0633 L 32.9288,2.0773 L 32.9288,2.1194 L 32.9428,2.1615 L 32.9709,2.1896 L 32.9990,2.2317 L 33.0271,2.2458 L 33.0552,2.2738 L 33.0973,2.2879 L 33.1394,2.2879 L 33.9820,2.2879 L 34.0241,2.2879 L 34.0662,2.2738 L 34.0943,2.2458 L 34.1364,2.2317 L 34.1505,2.1896 L 34.1785,2.1615 L 34.1926,2.1194 L 34.1926,2.0773 L 34.1926,2.0633 Z" stroke="#7F7F7F" stroke-width="0.1195" stroke-linecap="round" stroke-linejoin="round" fill="#000000"/>
        <path d="M 34.1926,3.2844 L 34.1926,3.2423 L 34.1785,3.2002 L 34.1505,3.1721 L 34.1364,3.1441 L 34.0943,3.1160 L 34.0662,3.0879 L 34.0241,3.0739 L 33.9820,3.0739 L 33.1394,3.0739 L 33.0973,3.0739 L 33.0552,3.0879 L 33.0271,3.1160 L 32.9990,3.1441 L 32.9709,3.1721 L 32.9428,3.2002 L 32.9288,3.2423 L 32.9288,3.2844 L 32.9288,3.2984 L 32.9288,3.3406 L 32.9428,3.3827 L 32.9709,3.4107 L 32.9990,3.4528 L 33.0271,3.4669 L 33.0552,3.4950 L 33.0973,3.5090 L 33.1394,3.5090 L 33.9820,3.5090 L 34.0241,3.5090 L 34.0662,3.4950 L 34.0943,3.4669 L 34.1364,3.4528 L 34.1505,3.4107 L 34.1785,3.3827 L 34.1926,3.3406 L 34.1926,3.2984 L 34.1926,3.2844 Z" stroke="#7F7F7F" stroke-width="0.1195" stroke-linecap="round" stroke-linejoin="round" fill="#000000"/>
        <path d="M 29.6710,2.0633 L 29.6710,2.0212 L 29.6570,1.9791 L 29.6289,1.9510 L 29.6149,1.9229 L 29.5727,1.8949 L 29.5446,1.8668 L 29.5025,1.8527 L 29.4604,1.8527 L 28.6179,1.8527 L 28.5757,1.8527 L 28.5336,1.8668 L 28.5055,1.8949 L 28.4774,1.9229 L 28.4494,1.9510 L 28.4213,1.9791 L 28.4072,2.0212 L 28.4072,2.0633 L 28.4072,2.0773 L 28.4072,2.1194 L 28.4213,2.1615 L 28.4494,2.1896 L 28.4774,2.2317 L 28.5055,2.2458 L 28.5336,2.2738 L 28.5757,2.2879 L 28.6179,2.2879 L 29.4604,2.2879 L 29.5025,2.2879 L 29.5446,2.2738 L 29.5727,2.2458 L 29.6149,2.2317 L 29.6289,2.1896 L 29.6570,2.1615 L 29.6710,2.1194 L 29.6710,2.0773 L 29.6710,2.0633 Z" stroke="#7F7F7F" stroke-width="0.1195" stroke-linecap="round" stroke-linejoin="round" fill="#000000"/>
        <path d="M 29.6710,3.2844 L 29.6710,3.2423 L 29.6570,3.2002 L 29.6289,3.1721 L 29.6149,3.1441 L 29.5727,3.1160 L 29.5446,3.0879 L 29.5025,3.0739 L 29.4604,3.0739 L 28.6179,3.0739 L 28.5757,3.0739 L 28.5336,3.0879 L 28.5055,3.1160 L 28.4774,3.1441 L 28.4494,3.1721 L 28.4213,3.2002 L 28.4072,3.2423 L 28.4072,3.2844 L 28.4072,3.2984 L 28.4072,3.3406 L 28.4213,3.3827 L 28.4494,3.4107 L 28.4774,3.4528 L 28.5055,3.4669 L 28.5336,3.4950 L 28.5757,3.5090 L 28.6179,3.5090 L 29.4604,3.5090 L 29.5025,3.5090 L 29.5446,3.4950 L 29.5727,3.4669 L 29.6149,3.4528 L 29.6289,3.4107 L 29.6570,3.3827 L 29.6710,3.3406 L 29.6710,3.2984 L 29.6710,3.2844 Z" stroke="#7F7F7F" stroke-width="0.1195" stroke-linecap="round" stroke-linejoin="round" fill="#000000"/>
        <path d="M 27.4102,2.0633 L 27.4102,2.0212 L 27.3962,1.9791 L 27.3681,1.9510 L 27.3541,1.9229 L 27.3119,1.8949 L 27.2839,1.8668 L 27.2417,1.8527 L 27.1996,1.8527 L 26.3571,1.8527 L 26.3150,1.8527 L 26.2728,1.8668 L 26.2447,1.8949 L 26.2167,1.9229 L 26.1886,1.9510 L 26.1605,1.9791 L 26.1465,2.0212 L 26.1465,2.0633 L 26.1465,2.0773 L 26.1465,2.1194 L 26.1605,2.1615 L 26.1886,2.1896 L 26.2167,2.2317 L 26.2447,2.2458 L 26.2728,2.2738 L 26.3150,2.2879 L 26.3571,2.2879 L 27.1996,2.2879 L 27.2417,2.2879 L 27.2839,2.2738 L 27.3119,2.2458 L 27.3541,2.2317 L 27.3681,2.1896 L 27.3962,2.1615 L 27.4102,2.1194 L 27.4102,2.0773 L 27.4102,2.0633 Z" stroke="#7F7F7F" stroke-width="0.1195" stroke-linecap="round" stroke-linejoin="round" fill="#000000"/>
        <path d="M 27.4102,3.2844 L 27.4102,3.2423 L 27.3962,3.2002 L 27.3681,3.1721 L 27.3541,3.1441 L 27.3119,3.1160 L 27.2839,3.0879 L 27.2417,3.0739 L 27.1996,3.0739 L 26.3571,3.0739 L 26.3150,3.0739 L 26.2728,3.0879 L 26.2447,3.1160 L 26.2167,3.1441 L 26.1886,3.1721 L 26.1605,3.2002 L 26.1465,3.2423 L 26.1465,3.2844 L 26.1465,3.2984 L 26.1465,3.3406 L 26.1605,3.3827 L 26.1886,3.4107 L 26.2167,3.4528 L 26.2447,3.4669 L 26.2728,3.4950 L 26.3150,3.5090 L 26.3571,3.5090 L 27.1996,3.5090 L 27.2417,3.5090 L 27.2839,3.4950 L 27.3119,3.4669 L 27.3541,3.4528 L 27.3681,3.4107 L 27.3962,3.3827 L 27.4102,3.3406 L 27.4102,3.2984 L 27.4102,3.2844 Z" stroke="#7F7F7F" stroke-width="0.1195" stroke-linecap="round" stroke-linejoin="round" fill="#000000"/>
        <path d="M 25.1495,2.0633 L 25.1495,2.0212 L 25.1354,1.9791 L 25.1073,1.9510 L 25.0933,1.9229 L 25.0512,1.8949 L 25.0231,1.8668 L 24.9810,1.8527 L 24.9388,1.8527 L 24.0963,1.8527 L 24.0542,1.8527 L 24.0120,1.8668 L 23.9840,1.8949 L 23.9559,1.9229 L 23.9278,1.9510 L 23.8997,1.9791 L 23.8857,2.0212 L 23.8857,2.0633 L 23.8857,2.0773 L 23.8857,2.1194 L 23.8997,2.1615 L 23.9278,2.1896 L 23.9559,2.2317 L 23.9840,2.2458 L 24.0120,2.2738 L 24.0542,2.2879 L 24.0963,2.2879 L 24.9388,2.2879 L 24.9810,2.2879 L 25.0231,2.2738 L 25.0512,2.2458 L 25.0933,2.2317 L 25.1073,2.1896 L 25.1354,2.1615 L 25.1495,2.1194 L 25.1495,2.0773 L 25.1495,2.0633 Z" stroke="#7F7F7F" stroke-width="0.1195" stroke-linecap="round" stroke-linejoin="round" fill="#000000"/>
        <path d="M 25.1495,3.2844 L 25.1495,3.2423 L 25.1354,3.2002 L 25.1073,3.1721 L 25.0933,3.1441 L 25.0512,3.1160 L 25.0231,3.0879 L 24.9810,3.0739 L 24.9388,3.0739 L 24.0963,3.0739 L 24.0542,3.0739 L 24.0120,3.0879 L 23.9840,3.1160 L 23.9559,3.1441 L 23.9278,3.1721 L 23.8997,3.2002 L 23.8857,3.2423 L 23.8857,3.2844 L 23.8857,3.2984 L 23.8857,3.3406 L 23.8997,3.3827 L 23.9278,3.4107 L 23.9559,3.4528 L 23.9840,3.4669 L 24.0120,3.4950 L 24.0542,3.5090 L 24.0963,3.5090 L 24.9388,3.5090 L 24.9810,3.5090 L 25.0231,3.4950 L 25.0512,3.4669 L 25.0933,3.4528 L 25.1073,3.4107 L 25.1354,3.3827 L 25.1495,3.3406 L 25.1495,3.2984 L 25.1495,3.2844 Z" stroke="#7F7F7F" stroke-width="0.1195" stroke-linecap="round" stroke-linejoin="round" fill="#000000"/>
        <path d="M 22.8746,2.0633 L 22.8746,2.0212 L 22.8606,1.9791 L 22.8325,1.9510 L 22.8185,1.9229 L 22.7763,1.8949 L 22.7483,1.8668 L 22.7061,1.8527 L 22.6640,1.8527 L 21.8215,1.8527 L 21.7793,1.8527 L 21.7372,1.8668 L 21.7091,1.8949 L 21.6811,1.9229 L 21.6530,1.9510 L 21.6249,1.9791 L 21.6108,2.0212 L 21.6108,2.0633 L 21.6108,2.0773 L 21.6108,2.1194 L 21.6249,2.1615 L 21.6530,2.1896 L 21.6811,2.2317 L 21.7091,2.2458 L 21.7372,2.2738 L 21.7793,2.2879 L 21.8215,2.2879 L 22.6640,2.2879 L 22.7061,2.2879 L 22.7483,2.2738 L 22.7763,2.2458 L 22.8185,2.2317 L 22.8325,2.1896 L 22.8606,2.1615 L 22.8746,2.1194 L 22.8746,2.0773 L 22.8746,2.0633 Z" stroke="#7F7F7F" stroke-width="0.1195" stroke-linecap="round" stroke-linejoin="round" fill="#000000"/>
        <path d="M 22.8746,3.2844 L 22.8746,3.2423 L 22.8606,3.2002 L 22.8325,3.1721 L 22.8185,3.1441 L 22.7763,3.1160 L 22.7483,3.0879 L 22.7061,3.0739 L 22.6640,3.0739 L 21.8215,3.0739 L 21.7793,3.0739 L 21.7372,3.0879 L 21.7091,3.1160 L 21.6811,3.1441 L 21.6530,3.1721 L 21.6249,3.2002 L 21.6108,3.2423 L 21.6108,3.2844 L 21.6108,3.2984 L 21.6108,3.3406 L 21.6249,3.3827 L 21.6530,3.4107 L 21.6811,3.4528 L 21.7091,3.4669 L 21.7372,3.4950 L 21.7793,3.5090 L 21.8215,3.5090 L 22.6640,3.5090 L 22.7061,3.5090 L 22.7483,3.4950 L 22.7763,3.4669 L 22.8185,3.4528 L 22.8325,3.4107 L 22.8606,3.3827 L 22.8746,3.3406 L 22.8746,3.2984 L 22.8746,3.2844 Z" stroke="#7F7F7F" stroke-width="0.1195" stroke-linecap="round" stroke-linejoin="round" fill="#000000"/>
        <path d="M 20.6139,2.0633 L 20.6139,2.0212 L 20.5998,1.9791 L 20.5717,1.9510 L 20.5577,1.9229 L 20.5156,1.8949 L 20.4875,1.8668 L 20.4453,1.8527 L 20.4032,1.8527 L 19.5607,1.8527 L 19.5186,1.8527 L 19.4764,1.8668 L 19.4484,1.8949 L 19.4203,1.9229 L 19.3922,1.9510 L 19.3641,1.9791 L 19.3501,2.0212 L 19.3501,2.0633 L 19.3501,2.0773 L 19.3501,2.1194 L 19.3641,2.1615 L 19.3922,2.1896 L 19.4203,2.2317 L 19.4484,2.2458 L 19.4764,2.2738 L 19.5186,2.2879 L 19.5607,2.2879 L 20.4032,2.2879 L 20.4453,2.2879 L 20.4875,2.2738 L 20.5156,2.2458 L 20.5577,2.2317 L 20.5717,2.1896 L 20.5998,2.1615 L 20.6139,2.1194 L 20.6139,2.0773 L 20.6139,2.0633 Z" stroke="#7F7F7F" stroke-width="0.1195" stroke-linecap="round" stroke-linejoin="round" fill="#000000"/>
        <path d="M 20.6139,3.2844 L 20.6139,3.2423 L 20.5998,3.2002 L 20.5717,3.1721 L 20.5577,3.1441 L 20.5156,3.1160 L 20.4875,3.0879 L 20.4453,3.0739 L 20.4032,3.0739 L 19.5607,3.0739 L 19.5186,3.0739 L 19.4764,3.0879 L 19.4484,3.1160 L 19.4203,3.1441 L 19.3922,3.1721 L 19.3641,3.2002 L 19.3501,3.2423 L 19.3501,3.2844 L 19.3501,3.2984 L 19.3501,3.3406 L 19.3641,3.3827 L 19.3922,3.4107 L 19.4203,3.4528 L 19.4484,3.4669 L 19.4764,3.4950 L 19.5186,3.5090 L 19.5607,3.5090 L 20.4032,3.5090 L 20.4453,3.5090 L 20.4875,3.4950 L 20.5156,3.4669 L 20.5577,3.4528 L 20.5717,3.4107 L 20.5998,3.3827 L 20.6139,3.3406 L 20.6139,3.2984 L 20.6139,3.2844 Z" stroke="#7F7F7F" stroke-width="0.1195" stroke-linecap="round" stroke-linejoin="round" fill="#000000"/>
        <path d="M 18.3531,2.0633 L 18.3531,2.0212 L 18.3390,1.9791 L 18.3109,1.9510 L 18.2969,1.9229 L 18.2548,1.8949 L 18.2267,1.8668 L 18.1846,1.8527 L 18.1424,1.8527 L 17.2999,1.8527 L 17.2578,1.8527 L 17.2157,1.8668 L 17.1876,1.8949 L 17.1595,1.9229 L 17.1314,1.9510 L 17.1033,1.9791 L 17.0893,2.0212 L 17.0893,2.0633 L 17.0893,2.0773 L 17.0893,2.1194 L 17.1033,2.1615 L 17.1314,2.1896 L 17.1595,2.2317 L 17.1876,2.2458 L 17.2157,2.2738 L 17.2578,2.2879 L 17.2999,2.2879 L 18.1424,2.2879 L 18.1846,2.2879 L 18.2267,2.2738 L 18.2548,2.2458 L 18.2969,2.2317 L 18.3109,2.1896 L 18.3390,2.1615 L 18.3531,2.1194 L 18.3531,2.0773 L 18.3531,2.0633 Z" stroke="#7F7F7F" stroke-width="0.1195" stroke-linecap="round" stroke-linejoin="round" fill="#000000"/>
        <path d="M 18.3531,3.2844 L 18.3531,3.2423 L 18.3390,3.2002 L 18.3109,3.1721 L 18.2969,3.1441 L 18.2548,3.1160 L 18.2267,3.0879 L 18.1846,3.0739 L 18.1424,3.0739 L 17.2999,3.0739 L 17.2578,3.0739 L 17.2157,3.0879 L 17.1876,3.1160 L 17.1595,3.1441 L 17.1314,3.1721 L 17.1033,3.2002 L 17.0893,3.2423 L 17.0893,3.2844 L 17.0893,3.2984 L 17.0893,3.3406 L 17.1033,3.3827 L 17.1314,3.4107 L 17.1595,3.4528 L 17.1876,3.4669 L 17.2157,3.4950 L 17.2578,3.5090 L 17.2999,3.5090 L 18.1424,3.5090 L 18.1846,3.5090 L 18.2267,3.4950 L 18.2548,3.4669 L 18.2969,3.4528 L 18.3109,3.4107 L 18.3390,3.3827 L 18.3531,3.3406 L 18.3531,3.2984 L 18.3531,3.2844 Z" stroke="#7F7F7F" stroke-width="0.1195" stroke-linecap="round" stroke-linejoin="round" fill="#000000"/>
        <text font-family="Arial" fill="#000000" style="white-space:pre;" font-weight="400" text-anchor="start" x="1.7272" y="1.5426" font-size="0.1545"><![CDATA[FIRMWARE]]></text>
        <text font-family="Arial" fill="#000000" style="white-space:pre;" font-weight="400" text-anchor="start" x="3.4965" y="0.7384" font-size="0.1966"><![CDATA[CONSOLE]]></text>
        <text font-family="Arial" fill="#000000" style="white-space:pre;" font-weight="400" text-anchor="start" x="2.5557" y="2.9280" font-size="0.1966"><![CDATA[DC+12V]]></text>
        <text font-family="Arial" fill="#000000" style="white-space:pre;" font-weight="400" text-anchor="start" x="1.8395" y="1.3742" font-size="0.1545"><![CDATA[SIGNED]]></text>
        <text font-family="Arial" fill="#000000" style="white-space:pre;" font-weight="400" text-anchor="start" x="3.7914" y="2.8999" font-size="0.1966"><![CDATA[USB]]></text>
        <text font-family="Arial" fill="#000000" style="white-space:pre;" font-weight="400" text-anchor="start" x="6.2347" y="2.8999" font-size="0.1966"><![CDATA[WAN1]]></text>
        <text font-family="Arial" fill="#000000" style="white-space:pre;" font-weight="400" text-anchor="start" x="5.1815" y="2.8999" font-size="0.1966"><![CDATA[WAN2]]></text>
        <text font-family="Arial" fill="#000000" style="white-space:pre;" font-weight="400" text-anchor="start" x="8.5517" y="2.8999" font-size="0.1966"><![CDATA[A]]></text>
        <text font-family="Arial" fill="#000000" style="white-space:pre;" font-weight="400" text-anchor="start" x="7.4985" y="2.8999" font-size="0.1966"><![CDATA[B]]></text>
        <text font-family="Arial" fill="#000000" style="white-space:pre;" font-weight="400" text-anchor="start" x="10.8546" y="2.8999" font-size="0.1966"><![CDATA[5]]></text>
        <text font-family="Arial" fill="#000000" style="white-space:pre;" font-weight="400" text-anchor="start" x="9.6048" y="2.8999" font-size="0.1966"><![CDATA[6]]></text>
        <text font-family="Arial" fill="#000000" style="white-space:pre;" font-weight="400" text-anchor="start" x="13.0732" y="2.8999" font-size="0.1966"><![CDATA[3]]></text>
        <text font-family="Arial" fill="#000000" style="white-space:pre;" font-weight="400" text-anchor="start" x="12.0762" y="2.8999" font-size="0.1966"><![CDATA[4]]></text>
        <text font-family="Arial" fill="#000000" style="white-space:pre;" font-weight="400" text-anchor="start" x="15.0672" y="2.8999" font-size="0.1966"><![CDATA[1]]></text>
        <text font-family="Arial" fill="#000000" style="white-space:pre;" font-weight="400" text-anchor="start" x="14.0702" y="2.8999" font-size="0.1966"><![CDATA[2]]></text>
        <path d="M 55.5779,5.3456 L 55.5779,7.4700 L 56.4700,7.4700 L 56.4700,7.9698 L 56.8325,7.9698 L 56.8325,8.4696 L 57.8919,8.4696 L 57.8919,7.9698 L 58.2543,7.9698 L 58.2543,7.4700 L 59.1465,7.4700 L 59.1465,5.3456 L 55.5779,5.3456 Z" stroke="#161616" stroke-width="0.1195" stroke-linecap="round" stroke-linejoin="round" fill="#000000"/>
        <path d="M 51.3681,5.3456 L 51.3681,7.4700 L 52.2602,7.4700 L 52.2602,7.9698 L 52.6227,7.9698 L 52.6227,8.4696 L 53.6821,8.4696 L 53.6821,7.9698 L 54.0445,7.9698 L 54.0445,7.4700 L 54.9367,7.4700 L 54.9367,5.3456 L 51.3681,5.3456 Z" stroke="#161616" stroke-width="0.1195" stroke-linecap="round" stroke-linejoin="round" fill="#000000"/>
        <path d="M 47.1443,5.3456 L 47.1443,7.4700 L 48.0365,7.4700 L 48.0365,7.9698 L 48.3989,7.9698 L 48.3989,8.4696 L 49.4583,8.4696 L 49.4583,7.9698 L 49.8208,7.9698 L 49.8208,7.4700 L 50.7129,7.4700 L 50.7129,5.3456 L 47.1443,5.3456 Z" stroke="#161616" stroke-width="0.1195" stroke-linecap="round" stroke-linejoin="round" fill="#000000"/>
        <path d="M 42.9345,5.3456 L 42.9345,7.4700 L 43.8267,7.4700 L 43.8267,7.9698 L 44.1891,7.9698 L 44.1891,8.4696 L 45.2485,8.4696 L 45.2485,7.9698 L 45.6109,7.9698 L 45.6109,7.4700 L 46.5031,7.4700 L 46.5031,5.3456 L 42.9345,5.3456 Z" stroke="#161616" stroke-width="0.1195" stroke-linecap="round" stroke-linejoin="round" fill="#000000"/>
        <path d="M 38.7247,5.3456 L 38.7247,7.4700 L 39.6168,7.4700 L 39.6168,7.9698 L 39.9793,7.9698 L 39.9793,8.4696 L 41.0387,8.4696 L 41.0387,7.9698 L 41.4011,7.9698 L 41.4011,7.4700 L 42.2933,7.4700 L 42.2933,5.3456 L 38.7247,5.3456 Z" stroke="#161616" stroke-width="0.1195" stroke-linecap="round" stroke-linejoin="round" fill="#000000"/>
        <path d="M 33.7203,5.3456 L 33.7203,7.4700 L 34.6125,7.4700 L 34.6125,7.9698 L 34.9749,7.9698 L 34.9749,8.4696 L 36.0343,8.4696 L 36.0343,7.9698 L 36.3968,7.9698 L 36.3968,7.4700 L 37.2889,7.4700 L 37.2889,5.3456 L 33.7203,5.3456 Z" stroke="#161616" stroke-width="0.1195" stroke-linecap="round" stroke-linejoin="round" fill="#000000"/>
        <path d="M 29.4966,5.3456 L 29.4966,7.4700 L 30.3887,7.4700 L 30.3887,7.9698 L 30.7511,7.9698 L 30.7511,8.4696 L 31.8106,8.4696 L 31.8106,7.9698 L 32.1730,7.9698 L 32.1730,7.4700 L 33.0651,7.4700 L 33.0651,5.3456 L 29.4966,5.3456 Z" stroke="#161616" stroke-width="0.1195" stroke-linecap="round" stroke-linejoin="round" fill="#000000"/>
        <path d="M 25.2868,5.3456 L 25.2868,7.4700 L 26.1789,7.4700 L 26.1789,7.9698 L 26.5413,7.9698 L 26.5413,8.4696 L 27.6008,8.4696 L 27.6008,7.9698 L 27.9632,7.9698 L 27.9632,7.4700 L 28.8553,7.4700 L 28.8553,5.3456 L 25.2868,5.3456 Z" stroke="#161616" stroke-width="0.1195" stroke-linecap="round" stroke-linejoin="round" fill="#000000"/>
        <path d="M 21.0769,5.3456 L 21.0769,7.4700 L 21.9691,7.4700 L 21.9691,7.9698 L 22.3315,7.9698 L 22.3315,8.4696 L 23.3909,8.4696 L 23.3909,7.9698 L 23.7534,7.9698 L 23.7534,7.4700 L 24.6455,7.4700 L 24.6455,5.3456 L 21.0769,5.3456 Z" stroke="#161616" stroke-width="0.1195" stroke-linecap="round" stroke-linejoin="round" fill="#000000"/>
        <path d="M 16.8532,5.3456 L 16.8532,7.4700 L 17.7453,7.4700 L 17.7453,7.9698 L 18.1078,7.9698 L 18.1078,8.4696 L 19.1672,8.4696 L 19.1672,7.9698 L 19.5296,7.9698 L 19.5296,7.4700 L 20.4218,7.4700 L 20.4218,5.3456 L 16.8532,5.3456 Z" stroke="#161616" stroke-width="0.1195" stroke-linecap="round" stroke-linejoin="round" fill="#000000"/>
        <path d="M 10.8451,5.6511 L 10.8451,3.5267 L 11.7373,3.5267 L 11.7373,3.0269 L 12.0997,3.0269 L 12.0997,2.5270 L 13.1591,2.5270 L 13.1591,3.0269 L 13.5216,3.0269 L 13.5216,3.5267 L 14.4137,3.5267 L 14.4137,5.6511 L 10.8451,5.6511 Z" stroke="#161616" stroke-width="0.1195" stroke-linecap="round" stroke-linejoin="round" fill="#000000"/>
        <path d="M 10.9617,6.3738 L 10.9477,6.3738 L 10.9338,6.3738 L 10.9198,6.3738 L 10.9198,6.3875 L 10.9059,6.3875 L 10.8919,6.3875 L 10.8780,6.4013 L 10.8640,6.4013 L 10.8640,6.4150 L 10.8501,6.4150 L 10.8501,6.4287 L 10.8361,6.4287 L 10.8361,6.4425 L 10.8222,6.4562 L 10.8222,6.4699 L 10.8222,6.4837 L 10.8082,6.4837 L 10.8082,6.4974 L 10.8082,6.5112 L 10.8082,6.5249 L 10.8082,6.5386 L 10.8082,6.5524 L 10.8082,6.5798 L 10.8082,6.6073 L 10.8082,6.6348 L 10.8082,6.6760 L 10.8082,6.7172 L 10.8082,6.7721 L 10.8082,6.8134 L 10.8082,6.8683 L 10.8082,6.9233 L 10.8082,6.9782 L 10.8082,7.0331 L 10.8082,7.1018 L 10.8082,7.1568 L 10.8082,7.2117 L 10.8082,7.2804 L 10.8082,7.3354 L 10.8082,7.3903 L 10.8082,7.4452 L 10.8082,7.5002 L 10.8082,7.5414 L 10.8082,7.5963 L 10.8082,7.6376 L 10.8082,7.6788 L 10.8082,7.7062 L 10.8082,7.7337 L 10.8082,7.7612 L 10.8082,7.7749 L 10.8082,7.7887 L 10.8082,7.8024 L 10.8082,7.8161 L 10.8082,7.8299 L 10.8222,7.8299 L 10.8222,7.8436 L 10.8222,7.8573 L 10.8361,7.8711 L 10.8361,7.8848 L 10.8501,7.8848 L 10.8501,7.8986 L 10.8640,7.8986 L 10.8640,7.9123 L 10.8780,7.9123 L 10.8919,7.9260 L 10.9059,7.9260 L 10.9198,7.9260 L 10.9198,7.9398 L 10.9338,7.9398 L 10.9477,7.9398 L 10.9617,7.9398 L 10.9756,7.9398 L 11.0035,7.9398 L 11.0453,7.9398 L 11.1011,7.9398 L 11.1848,7.9398 L 11.2824,7.9398 L 11.3800,7.9398 L 11.4916,7.9398 L 11.6171,7.9398 L 11.7566,7.9398 L 11.8960,7.9398 L 12.0355,7.9398 L 12.1889,7.9398 L 12.3423,7.9398 L 12.5097,7.9398 L 12.6631,7.9398 L 12.8165,7.9398 L 12.9838,7.9398 L 13.1373,7.9398 L 13.2907,7.9398 L 13.4301,7.9398 L 13.5696,7.9398 L 13.7090,7.9398 L 13.8346,7.9398 L 13.9461,7.9398 L 14.0438,7.9398 L 14.1414,7.9398 L 14.2251,7.9398 L 14.2808,7.9398 L 14.3227,7.9398 L 14.3506,7.9398 L 14.3645,7.9398 L 14.3785,7.9398 L 14.3924,7.9398 L 14.4064,7.9398 L 14.4064,7.9260 L 14.4203,7.9260 L 14.4342,7.9260 L 14.4482,7.9123 L 14.4621,7.9123 L 14.4621,7.8986 L 14.4761,7.8986 L 14.4761,7.8848 L 14.4900,7.8848 L 14.4900,7.8711 L 14.5040,7.8573 L 14.5040,7.8436 L 14.5040,7.8299 L 14.5179,7.8299 L 14.5179,7.8161 L 14.5179,7.8024 L 14.5179,7.7887 L 14.5179,7.7749 L 14.5179,7.7612 L 14.5179,7.7337 L 14.5179,7.7062 L 14.5179,7.6788 L 14.5179,7.6376 L 14.5179,7.5963 L 14.5179,7.5414 L 14.5179,7.5002 L 14.5179,7.4452 L 14.5179,7.3903 L 14.5179,7.3354 L 14.5179,7.2804 L 14.5179,7.2117 L 14.5179,7.1568 L 14.5179,7.1018 L 14.5179,7.0331 L 14.5179,6.9782 L 14.5179,6.9233 L 14.5179,6.8683 L 14.5179,6.8134 L 14.5179,6.7721 L 14.5179,6.7172 L 14.5179,6.6760 L 14.5179,6.6348 L 14.5179,6.6073 L 14.5179,6.5798 L 14.5179,6.5524 L 14.5179,6.5386 L 14.5179,6.5249 L 14.5179,6.5112 L 14.5179,6.4974 L 14.5179,6.4837 L 14.5040,6.4837 L 14.5040,6.4699 L 14.5040,6.4562 L 14.4900,6.4425 L 14.4900,6.4287 L 14.4761,6.4287 L 14.4761,6.4150 L 14.4621,6.4150 L 14.4621,6.4013 L 14.4482,6.4013 L 14.4342,6.3875 L 14.4203,6.3875 L 14.4064,6.3875 L 14.4064,6.3738 L 14.3924,6.3738 L 14.3785,6.3738 L 14.3645,6.3738 L 14.3506,6.3738 L 14.3227,6.3738 L 14.2808,6.3738 L 14.2251,6.3738 L 14.1414,6.3738 L 14.0438,6.3738 L 13.9461,6.3738 L 13.8346,6.3738 L 13.7090,6.3738 L 13.5696,6.3738 L 13.4301,6.3738 L 13.2907,6.3738 L 13.1373,6.3738 L 12.9838,6.3738 L 12.8165,6.3738 L 12.6631,6.3738 L 12.5097,6.3738 L 12.3423,6.3738 L 12.1889,6.3738 L 12.0355,6.3738 L 11.8960,6.3738 L 11.7566,6.3738 L 11.6171,6.3738 L 11.4916,6.3738 L 11.3800,6.3738 L 11.2824,6.3738 L 11.1848,6.3738 L 11.1011,6.3738 L 11.0453,6.3738 L 11.0035,6.3738 L 10.9756,6.3738 L 10.9617,6.3738 Z" stroke="#000000" stroke-width="0.1195" stroke-linecap="round" stroke-linejoin="round" fill="#494949"/>
        <path d="M 11.0174,6.4974 L 11.0035,6.4974 L 10.9895,6.4974 L 10.9756,6.4974 L 10.9756,6.5112 L 10.9617,6.5112 L 10.9617,6.5249 L 10.9477,6.5249 L 10.9477,6.5386 L 10.9338,6.5386 L 10.9338,6.5524 L 10.9338,6.5661 L 10.9338,6.5798 L 10.9338,6.5936 L 10.9338,6.6073 L 10.9338,6.6348 L 10.9338,6.6623 L 10.9338,6.6897 L 10.9338,6.7172 L 10.9338,6.7584 L 10.9338,6.7996 L 10.9338,6.8546 L 10.9338,6.8958 L 10.9338,6.9507 L 10.9338,7.0057 L 10.9338,7.0606 L 10.9338,7.1156 L 10.9338,7.1705 L 10.9338,7.2117 L 10.9338,7.2667 L 10.9338,7.3216 L 10.9338,7.3766 L 10.9338,7.4315 L 10.9338,7.4727 L 10.9338,7.5277 L 10.9338,7.5689 L 10.9338,7.6101 L 10.9338,7.6376 L 10.9338,7.6650 L 10.9338,7.6925 L 10.9338,7.7200 L 10.9338,7.7337 L 10.9338,7.7474 L 10.9338,7.7612 L 10.9338,7.7749 L 10.9477,7.7887 L 10.9477,7.8024 L 10.9617,7.8024 L 10.9617,7.8161 L 10.9756,7.8161 L 10.9895,7.8299 L 11.0035,7.8299 L 11.0174,7.8299 L 11.0314,7.8299 L 11.0593,7.8299 L 11.1011,7.8299 L 11.1569,7.8299 L 11.2406,7.8299 L 11.3243,7.8299 L 11.4219,7.8299 L 11.5334,7.8299 L 11.6590,7.8299 L 11.7845,7.8299 L 11.9239,7.8299 L 12.0634,7.8299 L 12.2168,7.8299 L 12.3563,7.8299 L 12.5097,7.8299 L 12.6770,7.8299 L 12.8304,7.8299 L 12.9838,7.8299 L 13.1233,7.8299 L 13.2767,7.8299 L 13.4162,7.8299 L 13.5556,7.8299 L 13.6812,7.8299 L 13.8067,7.8299 L 13.9182,7.8299 L 14.0159,7.8299 L 14.0995,7.8299 L 14.1832,7.8299 L 14.2390,7.8299 L 14.2808,7.8299 L 14.3087,7.8299 L 14.3227,7.8299 L 14.3366,7.8299 L 14.3506,7.8299 L 14.3506,7.8161 L 14.3645,7.8161 L 14.3645,7.8024 L 14.3785,7.8024 L 14.3785,7.7887 L 14.3924,7.7749 L 14.3924,7.7612 L 14.3924,7.7474 L 14.3924,7.7337 L 14.3924,7.7200 L 14.3924,7.6925 L 14.3924,7.6650 L 14.3924,7.6376 L 14.3924,7.6101 L 14.3924,7.5689 L 14.3924,7.5277 L 14.3924,7.4727 L 14.3924,7.4315 L 14.3924,7.3766 L 14.3924,7.3216 L 14.3924,7.2667 L 14.3924,7.2117 L 14.3924,7.1705 L 14.3924,7.1156 L 14.3924,7.0606 L 14.3924,7.0057 L 14.3924,6.9507 L 14.3924,6.8958 L 14.3924,6.8546 L 14.3924,6.7996 L 14.3924,6.7584 L 14.3924,6.7172 L 14.3924,6.6897 L 14.3924,6.6623 L 14.3924,6.6348 L 14.3924,6.6073 L 14.3924,6.5936 L 14.3924,6.5798 L 14.3924,6.5661 L 14.3924,6.5524 L 14.3924,6.5386 L 14.3785,6.5386 L 14.3785,6.5249 L 14.3645,6.5112 L 14.3506,6.5112 L 14.3506,6.4974 L 14.3366,6.4974 L 14.3227,6.4974 L 14.3087,6.4974 L 14.2808,6.4974 L 14.2390,6.4974 L 14.1832,6.4974 L 14.0995,6.4974 L 14.0159,6.4974 L 13.9182,6.4974 L 13.8067,6.4974 L 13.6812,6.4974 L 13.5556,6.4974 L 13.4162,6.4974 L 13.2767,6.4974 L 13.1233,6.4974 L 12.9838,6.4974 L 12.8304,6.4974 L 12.6770,6.4974 L 12.5097,6.4974 L 12.3563,6.4974 L 12.2168,6.4974 L 12.0634,6.4974 L 11.9239,6.4974 L 11.7845,6.4974 L 11.6590,6.4974 L 11.5334,6.4974 L 11.4219,6.4974 L 11.3243,6.4974 L 11.2406,6.4974 L 11.1569,6.4974 L 11.1011,6.4974 L 11.0593,6.4974 L 11.0314,6.4974 L 11.0174,6.4974 Z" stroke="#494949" stroke-width="0.1195" stroke-linecap="round" stroke-linejoin="round" fill="#000000"/>
        <path d="M 11.7566,7.2392 L 11.4498,7.2392 L 11.4498,7.1705 L 11.7566,7.1705 L 11.7566,7.2392 Z" stroke="#494949" stroke-width="0.1195" stroke-linecap="round" stroke-linejoin="round" fill="#494949"/>
        <path d="M 12.4539,7.2392 L 12.1471,7.2392 L 12.1471,7.1705 L 12.4539,7.1705 L 12.4539,7.2392 Z" stroke="#494949" stroke-width="0.1195" stroke-linecap="round" stroke-linejoin="round" fill="#494949"/>
        <path d="M 13.1373,7.2392 L 12.8304,7.2392 L 12.8304,7.1705 L 13.1373,7.1705 L 13.1373,7.2392 Z" stroke="#494949" stroke-width="0.1195" stroke-linecap="round" stroke-linejoin="round" fill="#494949"/>
        <path d="M 13.8485,7.2392 L 13.5417,7.2392 L 13.5417,7.1705 L 13.8485,7.1705 L 13.8485,7.2392 Z" stroke="#494949" stroke-width="0.1195" stroke-linecap="round" stroke-linejoin="round" fill="#494949"/>
        <path d="M 14.1832,6.8134 L 14.1832,6.7859 L 14.1693,6.7584 L 14.1414,6.7447 L 14.1135,6.7447 L 11.2127,6.7447 L 11.1848,6.7447 L 11.1569,6.7584 L 11.1430,6.7859 L 11.1430,6.8134 L 11.1430,7.1018 L 11.1430,7.1293 L 11.1569,7.1568 L 11.1848,7.1705 L 11.2127,7.1705 L 14.1135,7.1705 L 14.1414,7.1705 L 14.1693,7.1568 L 14.1832,7.1293 L 14.1832,7.1018 L 14.1832,6.8134 Z" stroke="#494949" stroke-width="0.1195" stroke-linecap="round" stroke-linejoin="round" fill="#21BCFF"/>
        <path d="M 14.0716,6.9507 L 14.0577,6.8958 L 14.0298,6.8683 L 14.0019,6.8408 L 13.9461,6.8271 L 11.3800,6.8271 L 11.3243,6.8408 L 11.2964,6.8683 L 11.2685,6.8958 L 11.2545,6.9507 L 11.2685,7.0057 L 11.2964,7.0331 L 11.3243,7.0606 L 11.3800,7.0744 L 13.9461,7.0744 L 14.0019,7.0606 L 14.0298,7.0331 L 14.0577,7.0057 L 14.0716,6.9507 Z" stroke="#00A7EF" stroke-width="0.1195" stroke-linecap="round" stroke-linejoin="round" fill="#00A7EF"/>
        <path d="M 10.9338,6.6210 L 10.9198,6.6210 L 10.9059,6.6210 L 10.8919,6.6210 L 10.8780,6.6210 L 10.8640,6.6210 L 10.8501,6.6210 L 10.8361,6.6210 L 10.8222,6.6210 L 10.8082,6.6210 L 10.7943,6.6210 L 10.7804,6.6210 L 10.7804,6.6348 L 10.7664,6.6348 L 10.7664,6.6485 L 10.7525,6.6485 L 10.7525,6.6623 L 10.7385,6.6760 L 10.7385,6.6897 L 10.7385,6.7035 L 10.7385,6.7172 L 10.7385,6.7309 L 10.7385,6.7447 L 10.7385,6.7584 L 10.7385,6.7859 L 10.7385,6.8134 L 10.7385,6.8408 L 10.7385,6.8820 L 10.7385,6.9095 L 10.7385,6.9507 L 10.7385,6.9919 L 10.7385,7.0331 L 10.7385,7.0744 L 10.7385,7.1156 L 10.7385,7.1568 L 10.7385,7.1980 L 10.7385,7.2392 L 10.7385,7.2804 L 10.7385,7.3216 L 10.7385,7.3628 L 10.7385,7.4040 L 10.7385,7.4315 L 10.7385,7.4727 L 10.7385,7.5002 L 10.7385,7.5277 L 10.7385,7.5551 L 10.7385,7.5689 L 10.7385,7.5826 L 10.7385,7.5963 L 10.7385,7.6101 L 10.7385,7.6238 L 10.7385,7.6376 L 10.7525,7.6513 L 10.7525,7.6650 L 10.7664,7.6650 L 10.7664,7.6788 L 10.7804,7.6788 L 10.7804,7.6925 L 10.7943,7.6925 L 10.8082,7.6925 L 10.8222,7.6925 L 10.8361,7.6925 L 10.8501,7.6925 L 10.8640,7.6925 L 10.8780,7.6925 L 10.8919,7.6925 L 10.9059,7.6925 L 10.9198,7.6925 L 10.9338,7.6925 L 10.9338,7.6788 L 10.9338,7.6650 L 10.9338,7.6513 L 10.9338,7.6238 L 10.9338,7.5963 L 10.9338,7.5551 L 10.9338,7.5277 L 10.9338,7.4865 L 10.9338,7.4452 L 10.9338,7.4040 L 10.9338,7.3491 L 10.9338,7.3079 L 10.9338,7.2529 L 10.9338,7.2117 L 10.9338,7.1568 L 10.9338,7.1018 L 10.9338,7.0606 L 10.9338,7.0057 L 10.9338,6.9645 L 10.9338,6.9095 L 10.9338,6.8683 L 10.9338,6.8271 L 10.9338,6.7859 L 10.9338,6.7584 L 10.9338,6.7172 L 10.9338,6.6897 L 10.9338,6.6623 L 10.9338,6.6485 L 10.9338,6.6348 L 10.9338,6.6210 Z" stroke="#000000" stroke-width="0.1195" stroke-linecap="round" stroke-linejoin="round" fill="#EAEAEA"/>
        <path d="M 14.3924,6.6210 L 14.4064,6.6210 L 14.4203,6.6210 L 14.4342,6.6210 L 14.4482,6.6210 L 14.4621,6.6210 L 14.4761,6.6210 L 14.4900,6.6210 L 14.5040,6.6210 L 14.5179,6.6210 L 14.5319,6.6210 L 14.5458,6.6210 L 14.5458,6.6348 L 14.5598,6.6348 L 14.5598,6.6485 L 14.5737,6.6485 L 14.5737,6.6623 L 14.5877,6.6760 L 14.5877,6.6897 L 14.5877,6.7035 L 14.5877,6.7172 L 14.5877,6.7309 L 14.5877,6.7447 L 14.5877,6.7584 L 14.5877,6.7859 L 14.5877,6.8134 L 14.5877,6.8408 L 14.5877,6.8820 L 14.5877,6.9095 L 14.5877,6.9507 L 14.5877,6.9919 L 14.5877,7.0331 L 14.5877,7.0744 L 14.5877,7.1156 L 14.5877,7.1568 L 14.5877,7.1980 L 14.5877,7.2392 L 14.5877,7.2804 L 14.5877,7.3216 L 14.5877,7.3628 L 14.5877,7.4040 L 14.5877,7.4315 L 14.5877,7.4727 L 14.5877,7.5002 L 14.5877,7.5277 L 14.5877,7.5551 L 14.5877,7.5689 L 14.5877,7.5826 L 14.5877,7.5963 L 14.5877,7.6101 L 14.5877,7.6238 L 14.5877,7.6376 L 14.5737,7.6513 L 14.5737,7.6650 L 14.5598,7.6650 L 14.5598,7.6788 L 14.5458,7.6788 L 14.5458,7.6925 L 14.5319,7.6925 L 14.5179,7.6925 L 14.5040,7.6925 L 14.4900,7.6925 L 14.4761,7.6925 L 14.4621,7.6925 L 14.4482,7.6925 L 14.4342,7.6925 L 14.4203,7.6925 L 14.4064,7.6925 L 14.3924,7.6925 L 14.3924,7.6788 L 14.3924,7.6650 L 14.3924,7.6513 L 14.3924,7.6238 L 14.3924,7.5963 L 14.3924,7.5551 L 14.3924,7.5277 L 14.3924,7.4865 L 14.3924,7.4452 L 14.3924,7.4040 L 14.3924,7.3491 L 14.3924,7.3079 L 14.3924,7.2529 L 14.3924,7.2117 L 14.3924,7.1568 L 14.3924,7.1018 L 14.3924,7.0606 L 14.3924,7.0057 L 14.3924,6.9645 L 14.3924,6.9095 L 14.3924,6.8683 L 14.3924,6.8271 L 14.3924,6.7859 L 14.3924,6.7584 L 14.3924,6.7172 L 14.3924,6.6897 L 14.3924,6.6623 L 14.3924,6.6485 L 14.3924,6.6348 L 14.3924,6.6210 Z" stroke="#000000" stroke-width="0.1195" stroke-linecap="round" stroke-linejoin="round" fill="#EAEAEA"/>
        <path d="M 11.1290,6.4974 L 11.1290,6.4837 L 11.1290,6.4699 L 11.1290,6.4562 L 11.1290,6.4425 L 11.1290,6.4287 L 11.1290,6.4150 L 11.1290,6.4013 L 11.1290,6.3875 L 11.1290,6.3738 L 11.1290,6.3601 L 11.1290,6.3463 L 11.1430,6.3463 L 11.1430,6.3326 L 11.1569,6.3188 L 11.1708,6.3188 L 11.1708,6.3051 L 11.1848,6.3051 L 11.1987,6.3051 L 11.2127,6.3051 L 11.2266,6.3051 L 11.2406,6.3051 L 11.2824,6.3051 L 11.3382,6.3051 L 11.4079,6.3051 L 11.4777,6.3051 L 11.5613,6.3051 L 11.6590,6.3051 L 11.7705,6.3051 L 11.8821,6.3051 L 11.9937,6.3051 L 12.1192,6.3051 L 12.2447,6.3051 L 12.3842,6.3051 L 12.5097,6.3051 L 12.6491,6.3051 L 12.7886,6.3051 L 12.9141,6.3051 L 13.0536,6.3051 L 13.1791,6.3051 L 13.3046,6.3051 L 13.4162,6.3051 L 13.5277,6.3051 L 13.6393,6.3051 L 13.7369,6.3051 L 13.8206,6.3051 L 13.8903,6.3051 L 13.9601,6.3051 L 14.0159,6.3051 L 14.0577,6.3051 L 14.0716,6.3051 L 14.0856,6.3051 L 14.0995,6.3051 L 14.1135,6.3051 L 14.1274,6.3051 L 14.1274,6.3188 L 14.1414,6.3188 L 14.1553,6.3188 L 14.1553,6.3326 L 14.1553,6.3463 L 14.1693,6.3463 L 14.1693,6.3601 L 14.1693,6.3738 L 14.1693,6.3875 L 14.1693,6.4013 L 14.1693,6.4150 L 14.1693,6.4287 L 14.1693,6.4425 L 14.1693,6.4562 L 14.1693,6.4699 L 14.1693,6.4837 L 14.1693,6.4974 L 14.1553,6.4974 L 14.1414,6.4974 L 14.0995,6.4974 L 14.0438,6.4974 L 13.9740,6.4974 L 13.8903,6.4974 L 13.7927,6.4974 L 13.6951,6.4974 L 13.5835,6.4974 L 13.4580,6.4974 L 13.3325,6.4974 L 13.2070,6.4974 L 13.0675,6.4974 L 12.9281,6.4974 L 12.7886,6.4974 L 12.6491,6.4974 L 12.5097,6.4974 L 12.3702,6.4974 L 12.2308,6.4974 L 12.0913,6.4974 L 11.9658,6.4974 L 11.8403,6.4974 L 11.7147,6.4974 L 11.6032,6.4974 L 11.5056,6.4974 L 11.4079,6.4974 L 11.3243,6.4974 L 11.2545,6.4974 L 11.1987,6.4974 L 11.1569,6.4974 L 11.1430,6.4974 L 11.1290,6.4974 Z" stroke="#000000" stroke-width="0.1195" stroke-linecap="round" stroke-linejoin="round" fill="#EAEAEA"/>
        <path d="M 11.1290,7.8299 L 11.1290,7.8436 L 11.1290,7.8573 L 11.1290,7.8711 L 11.1290,7.8848 L 11.1290,7.8986 L 11.1290,7.9123 L 11.1290,7.9260 L 11.1290,7.9398 L 11.1290,7.9535 L 11.1290,7.9672 L 11.1290,7.9810 L 11.1430,7.9810 L 11.1430,7.9947 L 11.1569,8.0084 L 11.1708,8.0084 L 11.1708,8.0222 L 11.1848,8.0222 L 11.1987,8.0222 L 11.2127,8.0222 L 11.2266,8.0222 L 11.2406,8.0222 L 11.2824,8.0222 L 11.3382,8.0222 L 11.4079,8.0222 L 11.4777,8.0222 L 11.5613,8.0222 L 11.6590,8.0222 L 11.7705,8.0222 L 11.8821,8.0222 L 11.9937,8.0222 L 12.1192,8.0222 L 12.2447,8.0222 L 12.3842,8.0222 L 12.5097,8.0222 L 12.6491,8.0222 L 12.7886,8.0222 L 12.9141,8.0222 L 13.0536,8.0222 L 13.1791,8.0222 L 13.3046,8.0222 L 13.4162,8.0222 L 13.5277,8.0222 L 13.6393,8.0222 L 13.7369,8.0222 L 13.8206,8.0222 L 13.8903,8.0222 L 13.9601,8.0222 L 14.0159,8.0222 L 14.0577,8.0222 L 14.0716,8.0222 L 14.0856,8.0222 L 14.0995,8.0222 L 14.1135,8.0222 L 14.1274,8.0222 L 14.1274,8.0084 L 14.1414,8.0084 L 14.1553,8.0084 L 14.1553,7.9947 L 14.1553,7.9810 L 14.1693,7.9810 L 14.1693,7.9672 L 14.1693,7.9535 L 14.1693,7.9398 L 14.1693,7.9260 L 14.1693,7.9123 L 14.1693,7.8986 L 14.1693,7.8848 L 14.1693,7.8711 L 14.1693,7.8573 L 14.1693,7.8436 L 14.1693,7.8299 L 14.1553,7.8299 L 14.1414,7.8299 L 14.0995,7.8299 L 14.0438,7.8299 L 13.9740,7.8299 L 13.8903,7.8299 L 13.7927,7.8299 L 13.6951,7.8299 L 13.5835,7.8299 L 13.4580,7.8299 L 13.3325,7.8299 L 13.2070,7.8299 L 13.0675,7.8299 L 12.9281,7.8299 L 12.7886,7.8299 L 12.6491,7.8299 L 12.5097,7.8299 L 12.3702,7.8299 L 12.2308,7.8299 L 12.0913,7.8299 L 11.9658,7.8299 L 11.8403,7.8299 L 11.7147,7.8299 L 11.6032,7.8299 L 11.5056,7.8299 L 11.4079,7.8299 L 11.3243,7.8299 L 11.2545,7.8299 L 11.1987,7.8299 L 11.1569,7.8299 L 11.1430,7.8299 L 11.1290,7.8299 Z" stroke="#000000" stroke-width="0.1195" stroke-linecap="round" stroke-linejoin="round" fill="#EAEAEA"/>
        <path d="M 9.4108,3.8412 L 9.4108,3.8236 L 9.4108,3.8061 L 9.3937,3.8061 L 9.3937,3.7886 L 9.3937,3.7710 L 9.3766,3.7710 L 9.3766,3.7535 L 9.3595,3.7535 L 9.3425,3.7359 L 9.3254,3.7359 L 9.3083,3.7184 L 9.2912,3.7184 L 9.2741,3.7184 L 9.2571,3.7184 L 9.2400,3.7184 L 9.2229,3.7184 L 9.2058,3.7184 L 9.1887,3.7184 L 9.1887,3.7359 L 9.1717,3.7359 L 9.1546,3.7359 L 9.1375,3.7535 L 9.1204,3.7535 L 9.1204,3.7710 L 9.1033,3.7710 L 9.1033,3.7886 L 9.1033,3.8061 L 9.0863,3.8061 L 9.0863,3.8236 L 9.0863,3.8412 L 9.0863,3.8587 L 9.0863,3.8763 L 9.0863,3.8938 L 9.0863,3.9113 L 9.0863,3.9289 L 9.0863,3.9640 L 9.0863,3.9815 L 9.0863,4.0166 L 9.0863,4.0517 L 9.0863,4.0867 L 9.0863,4.1218 L 9.0863,4.1569 L 9.0863,4.1920 L 9.0863,4.2271 L 9.0863,4.2621 L 9.0863,4.2972 L 9.0863,4.3323 L 9.0863,4.3674 L 9.0863,4.4024 L 9.0863,4.4375 L 9.0863,4.4726 L 9.0863,4.4901 L 9.0863,4.5252 L 9.0863,4.5428 L 9.0863,4.5603 L 9.0863,4.5778 L 9.0863,4.5954 L 9.0863,4.6129 L 9.0863,4.6305 L 9.0863,4.6480 L 9.0863,4.6655 L 9.0692,4.6831 L 9.0692,4.7006 L 9.0692,4.7182 L 9.0521,4.7357 L 9.0521,4.7532 L 9.0350,4.7532 L 9.0350,4.7708 L 9.0179,4.7883 L 9.0009,4.8059 L 8.9838,4.8234 L 8.9667,4.8234 L 8.9667,4.8409 L 8.9496,4.8409 L 8.9325,4.8585 L 8.9155,4.8585 L 8.8984,4.8585 L 8.8984,4.8760 L 8.8813,4.8760 L 8.8642,4.8760 L 8.8471,4.8936 L 8.8301,4.8936 L 8.8130,4.8936 L 8.7959,4.8936 L 8.7788,4.8936 L 8.7617,4.8936 L 8.7447,4.8936 L 8.7276,4.8936 L 8.7105,4.8936 L 8.6934,4.8936 L 8.6764,4.8936 L 8.6593,4.8936 L 8.6422,4.8936 L 8.6251,4.8936 L 8.6080,4.8936 L 8.5910,4.8936 L 8.5739,4.8936 L 8.5568,4.8936 L 8.5397,4.8936 L 8.5226,4.8936 L 8.5056,4.8936 L 8.4885,4.8936 L 8.4714,4.8936 L 8.4543,4.8936 L 8.4372,4.8936 L 8.4202,4.8936 L 8.4031,4.8936 L 8.3860,4.8936 L 8.3689,4.8936 L 8.3518,4.8936 L 8.3348,4.8936 L 8.3177,4.8936 L 8.3006,4.8936 L 8.2835,4.8936 L 8.2664,4.8936 L 8.2494,4.8760 L 8.2323,4.8760 L 8.2152,4.8760 L 8.2152,4.8585 L 8.1981,4.8585 L 8.1810,4.8585 L 8.1640,4.8409 L 8.1469,4.8409 L 8.1469,4.8234 L 8.1298,4.8234 L 8.1127,4.8059 L 8.0957,4.7883 L 8.0786,4.7708 L 8.0786,4.7532 L 8.0615,4.7532 L 8.0615,4.7357 L 8.0444,4.7182 L 8.0444,4.7006 L 8.0444,4.6831 L 8.0273,4.6655 L 8.0273,4.6480 L 8.0273,4.6305 L 8.0273,4.6129 L 8.0273,4.5954 L 8.0273,4.5778 L 8.0273,4.5603 L 8.0273,4.5428 L 8.0273,4.5252 L 8.0273,4.4901 L 8.0273,4.4726 L 8.0273,4.4375 L 8.0273,4.4024 L 8.0273,4.3674 L 8.0273,4.3323 L 8.0273,4.2972 L 8.0273,4.2621 L 8.0273,4.2271 L 8.0273,4.1920 L 8.0273,4.1569 L 8.0273,4.1218 L 8.0273,4.0867 L 8.0273,4.0517 L 8.0273,4.0166 L 8.0273,3.9815 L 8.0273,3.9640 L 8.0273,3.9289 L 8.0273,3.9113 L 8.0273,3.8938 L 8.0273,3.8763 L 8.0273,3.8587 L 8.0273,3.8412 L 8.0273,3.8236 L 8.0273,3.8061 L 8.0103,3.8061 L 8.0103,3.7886 L 8.0103,3.7710 L 7.9932,3.7710 L 7.9932,3.7535 L 7.9761,3.7535 L 7.9590,3.7359 L 7.9419,3.7359 L 7.9249,3.7359 L 7.9249,3.7184 L 7.9078,3.7184 L 7.8907,3.7184 L 7.8736,3.7184 L 7.8565,3.7184 L 7.8395,3.7184 L 7.8224,3.7184 L 7.8053,3.7184 L 7.7882,3.7359 L 7.7711,3.7359 L 7.7541,3.7535 L 7.7370,3.7535 L 7.7370,3.7710 L 7.7199,3.7710 L 7.7199,3.7886 L 7.7199,3.8061 L 7.7028,3.8061 L 7.7028,3.8236 L 7.7028,3.8412 L 7.7028,3.8587 L 7.7028,3.8938 L 7.7028,3.9640 L 7.7028,4.0341 L 7.7028,4.1569 L 7.7028,4.2797 L 7.7028,4.4200 L 7.7028,4.5778 L 7.7028,4.7357 L 7.7028,4.9286 L 7.7028,5.1216 L 7.7028,5.3145 L 7.7028,5.5250 L 7.7028,5.7530 L 7.7028,5.9635 L 7.7028,6.1915 L 7.7028,6.4020 L 7.7028,6.6124 L 7.7028,6.8405 L 7.7028,7.0509 L 7.7028,7.2439 L 7.7028,7.4368 L 7.7028,7.6297 L 7.7028,7.7876 L 7.7028,7.9455 L 7.7028,8.0858 L 7.7028,8.2086 L 7.7028,8.3313 L 7.7028,8.4015 L 7.7028,8.4716 L 7.7028,8.5067 L 7.7028,8.5243 L 7.7199,8.5243 L 7.7370,8.5243 L 7.7711,8.5243 L 7.8224,8.5243 L 7.8565,8.5243 L 7.9078,8.5243 L 7.9761,8.5243 L 8.0273,8.5243 L 8.0957,8.5243 L 8.1640,8.5243 L 8.2494,8.5243 L 8.3177,8.5243 L 8.4031,8.5243 L 8.4714,8.5243 L 8.5568,8.5243 L 8.6422,8.5243 L 8.7105,8.5243 L 8.7959,8.5243 L 8.8642,8.5243 L 8.9496,8.5243 L 9.0179,8.5243 L 9.0863,8.5243 L 9.1375,8.5243 L 9.2058,8.5243 L 9.2571,8.5243 L 9.2912,8.5243 L 9.3425,8.5243 L 9.3766,8.5243 L 9.3937,8.5243 L 9.4108,8.5243 L 9.4108,8.5067 L 9.4108,8.4716 L 9.4108,8.4015 L 9.4108,8.3313 L 9.4108,8.2086 L 9.4108,8.0858 L 9.4108,7.9455 L 9.4108,7.7876 L 9.4108,7.6297 L 9.4108,7.4368 L 9.4108,7.2439 L 9.4108,7.0509 L 9.4108,6.8405 L 9.4108,6.6124 L 9.4108,6.4020 L 9.4108,6.1915 L 9.4108,5.9635 L 9.4108,5.7530 L 9.4108,5.5250 L 9.4108,5.3145 L 9.4108,5.1216 L 9.4108,4.9286 L 9.4108,4.7357 L 9.4108,4.5778 L 9.4108,4.4200 L 9.4108,4.2797 L 9.4108,4.1569 L 9.4108,4.0341 L 9.4108,3.9640 L 9.4108,3.8938 L 9.4108,3.8587 L 9.4108,3.8412 Z" stroke="#000000" stroke-width="0.1195" stroke-linecap="round" stroke-linejoin="round" fill="#494949"/>
        <path d="M 9.2400,5.4197 L 7.8736,5.4197 L 7.8736,8.4015 L 9.2400,8.4015 L 9.2400,5.4197 Z" stroke="#000000" stroke-width="0.1195" stroke-linecap="round" stroke-linejoin="round" fill="#666666"/>
        <path d="M 9.0863,7.0334 L 8.0273,7.0334 L 8.0273,8.1209 L 9.0863,8.1209 L 9.0863,7.0334 Z" stroke="#000000" stroke-width="0.1195" stroke-linecap="round" stroke-linejoin="round" fill="#333333"/>
        <path d="M 9.0863,5.7179 L 8.0273,5.7179 L 8.0273,6.5423 L 8.2835,6.8054 L 8.8471,6.8054 L 9.0863,6.5598 L 9.0863,5.7179 Z" stroke="#000000" stroke-width="0.1195" stroke-linecap="round" stroke-linejoin="round" fill="#333333"/>
        <path d="M 8.6934,7.4368 L 8.4202,7.4368 L 8.4202,7.7174 L 8.6934,7.7174 L 8.6934,7.4368 Z" stroke="#000000" stroke-width="0.1195" stroke-linecap="round" stroke-linejoin="round" fill="#EAEAEA"/>
        <path d="M 8.6934,6.1213 L 8.4202,6.1213 L 8.4202,6.4020 L 8.6934,6.4020 L 8.6934,6.1213 Z" stroke="#000000" stroke-width="0.1195" stroke-linecap="round" stroke-linejoin="round" fill="#EAEAEA"/>
        <path d="M 8.9325,5.1917 L 8.1810,5.1917 L 8.1810,5.4197 L 8.9325,5.4197 L 8.9325,5.1917 Z" stroke="#000000" stroke-width="0.1195" stroke-linecap="round" stroke-linejoin="round" fill="#7F7F7F"/>
        <path d="M 9.0863,4.1218 L 9.0692,4.1218 L 9.0521,4.1218 L 9.0350,4.1218 L 9.0179,4.1218 L 8.9838,4.1218 L 8.9496,4.1218 L 8.9155,4.1218 L 8.8813,4.1218 L 8.8471,4.1218 L 8.7959,4.1218 L 8.7447,4.1218 L 8.7105,4.1218 L 8.6593,4.1218 L 8.6080,4.1218 L 8.5568,4.1218 L 8.5056,4.1218 L 8.4543,4.1218 L 8.4031,4.1218 L 8.3689,4.1218 L 8.3177,4.1218 L 8.2664,4.1218 L 8.2323,4.1218 L 8.1981,4.1218 L 8.1640,4.1218 L 8.1298,4.1218 L 8.0957,4.1218 L 8.0786,4.1218 L 8.0615,4.1218 L 8.0444,4.1218 L 8.0273,4.1218 L 8.0273,4.1394 L 8.0273,4.1569 L 8.0273,4.1744 L 8.0273,4.1920 L 8.0273,4.2095 L 8.0273,4.2271 L 8.0273,4.2446 L 8.0273,4.2797 L 8.0273,4.2972 L 8.0273,4.3148 L 8.0273,4.3323 L 8.0273,4.3674 L 8.0273,4.3849 L 8.0273,4.4024 L 8.0273,4.4200 L 8.0273,4.4375 L 8.0273,4.4726 L 8.0273,4.4901 L 8.0273,4.5077 L 8.0273,4.5252 L 8.0273,4.5428 L 8.0273,4.5603 L 8.0273,4.5778 L 8.0273,4.5954 L 8.0273,4.6129 L 8.0273,4.6305 L 8.0273,4.6480 L 8.0444,4.6655 L 8.0444,4.6831 L 8.0444,4.7006 L 8.0615,4.7182 L 8.0615,4.7357 L 8.0786,4.7532 L 8.0957,4.7708 L 8.0957,4.7883 L 8.1127,4.7883 L 8.1127,4.8059 L 8.1298,4.8059 L 8.1469,4.8234 L 8.1469,4.8409 L 8.1640,4.8409 L 8.1810,4.8409 L 8.1981,4.8585 L 8.2152,4.8585 L 8.2152,4.8760 L 8.2323,4.8760 L 8.2494,4.8760 L 8.2664,4.8760 L 8.2835,4.8936 L 8.3006,4.8936 L 8.3177,4.8936 L 8.3348,4.8936 L 8.3518,4.8936 L 8.3689,4.8936 L 8.3860,4.8936 L 8.4031,4.8936 L 8.4202,4.8936 L 8.4372,4.8936 L 8.4543,4.8936 L 8.4714,4.8936 L 8.4885,4.8936 L 8.5056,4.8936 L 8.5226,4.8936 L 8.5397,4.8936 L 8.5568,4.8936 L 8.5739,4.8936 L 8.5910,4.8936 L 8.6080,4.8936 L 8.6251,4.8936 L 8.6422,4.8936 L 8.6593,4.8936 L 8.6764,4.8936 L 8.6934,4.8936 L 8.7105,4.8936 L 8.7276,4.8936 L 8.7447,4.8936 L 8.7617,4.8936 L 8.7788,4.8936 L 8.7959,4.8936 L 8.8130,4.8936 L 8.8301,4.8936 L 8.8471,4.8760 L 8.8642,4.8760 L 8.8813,4.8760 L 8.8984,4.8760 L 8.8984,4.8585 L 8.9155,4.8585 L 8.9325,4.8409 L 8.9496,4.8409 L 8.9667,4.8409 L 8.9667,4.8234 L 8.9838,4.8059 L 9.0009,4.8059 L 9.0009,4.7883 L 9.0179,4.7883 L 9.0179,4.7708 L 9.0350,4.7532 L 9.0521,4.7357 L 9.0521,4.7182 L 9.0692,4.7006 L 9.0692,4.6831 L 9.0692,4.6655 L 9.0863,4.6480 L 9.0863,4.6305 L 9.0863,4.6129 L 9.0863,4.5954 L 9.0863,4.5778 L 9.0863,4.5603 L 9.0863,4.5428 L 9.0863,4.5252 L 9.0863,4.5077 L 9.0863,4.4901 L 9.0863,4.4726 L 9.0863,4.4375 L 9.0863,4.4200 L 9.0863,4.4024 L 9.0863,4.3849 L 9.0863,4.3674 L 9.0863,4.3323 L 9.0863,4.3148 L 9.0863,4.2972 L 9.0863,4.2797 L 9.0863,4.2446 L 9.0863,4.2271 L 9.0863,4.2095 L 9.0863,4.1920 L 9.0863,4.1744 L 9.0863,4.1569 L 9.0863,4.1394 L 9.0863,4.1218 Z" stroke="#000000" stroke-width="0.1195" stroke-linecap="round" stroke-linejoin="round" fill="#333333"/>
      </g>
      <!--emf-blob end-->
    </g>
  </g>
</svg>
