<svg xmlns="http://www.w3.org/2000/svg" width="7.62" height="4" viewBox="0 0 137.2 72"><title><![CDATA[FG-7040E Chassis]]></title><g stroke-linecap="round" stroke-linejoin="round" stroke-width=".12" transform="matrix(.4684 0 0 .4676 -6.143 -166.124)"><path fill="#eaeaea" stroke="#000" d="M13.48 13.36h1170.75v647.11H13.48z"/><path fill="#fff" stroke="#000" d="m53.68 52.11-.13-.96-.11-.97-.25-.84-.24-.84-.48-.84-.36-.72-.6-.73-.6-.6-.6-.6-.73-.6-.72-.36-.84-.48-.84-.24-.85-.24-.96-.12-.96-.13H28.64l-.96.12-.96.12-.85.25-.84.24-.84.48-.72.36-.72.6-.6.6-.6.6-.6.73-.37.72-.48.84-.24.84-.24.84-.12.97-.12.96.12.84.12.97.24.84.24.84.48.84.36.72.6.73.6.6.6.6.73.6.72.36.84.48.84.24.85.25.96.12.96.12h15.77l.96-.12.96-.12.85-.24.84-.24.84-.49.72-.36.73-.6.6-.6.6-.6.6-.73.36-.72.48-.84.24-.84.25-.84.11-.97zm0 569.6-.13-.83-.11-.97-.25-.84-.24-.84-.48-.84-.36-.73-.6-.72-.6-.6-.6-.6-.73-.6-.72-.36-.84-.49-.84-.24-.85-.24-.96-.12-.96-.12H28.64l-.96.12-.96.12-.85.24-.84.24-.84.49-.72.36-.72.6-.6.6-.6.6-.6.72-.37.73-.48.84-.24.84-.24.84-.12.97-.12.84.12.96.12.96.24.85.24.84.48.84.36.72.6.73.6.6.6.6.73.6.72.36.84.48.84.24.85.24.96.12.96.12h15.77l.96-.12.96-.12.85-.24.84-.24.84-.48.72-.36.73-.6.6-.6.6-.6.6-.73.36-.72.48-.84.24-.84.25-.85.11-.96zM1178.2 52.12l-.12-.96-.12-.96-.24-.85-.24-.84-.48-.84-.37-.72-.6-.73-.6-.6-.6-.6-.72-.6-.73-.36-.84-.48-.84-.24-.84-.24-.97-.12-.96-.13h-15.76l-.97.12-.96.12-.84.25-.84.24-.85.48-.72.36-.72.6-.6.6-.6.6-.6.73-.37.72-.48.84-.24.84-.24.85-.12.96-.12.96.12.84.12.97.24.84.24.84.48.84.36.73.6.72.6.6.6.6.73.6.72.36.85.48.84.24.84.25.96.12.97.12h15.76l.96-.12.97-.12.84-.24.84-.24.84-.49.73-.36.72-.6.6-.6.6-.6.6-.73.36-.72.49-.84.24-.84.24-.84.12-.97zm0 569.6-.12-.83-.12-.97-.24-.84-.24-.84-.48-.84-.37-.73-.6-.72-.6-.6-.6-.6-.72-.6-.73-.36-.84-.49-.84-.24-.84-.24-.97-.12-.96-.12h-15.76l-.97.12-.96.12-.84.24-.84.24-.85.49-.72.36-.72.6-.6.6-.6.6-.6.72-.37.73-.48.84-.24.84-.24.84-.12.97-.12.84.12.96.12.96.24.85.24.84.48.84.36.72.6.73.6.6.6.6.73.6.72.36.85.48.84.24.84.24.96.12.97.12h15.76l.96-.12.97-.12.84-.24.84-.24.84-.48.73-.36.72-.6.6-.6.6-.6.6-.73.36-.72.49-.84.24-.84.24-.85.12-.96z"/><path fill="#d1d1d1" stroke="#d1d1d1" d="M57.4 13.48h7.1v647h-7.1zm1075.68 0h7.1v647h-7.1z"/><path fill="#eaeaea" stroke="#000" d="M1133.08 13.48H64.5v647h1068.57z"/><path fill="none" stroke="#000" d="M13.48 13.36h1170.75v647.11H13.48z"/><path fill="#ddd" stroke="#000" d="M64.63 13.36h40.07v647.11H64.63zm1028.25 0h40.08v647.11h-40.08zm-988.06 1.2h987.94v64.39H104.82z"/><path fill="#eaeaea" stroke="#000" d="M1092.76 15.65v62.34h36.35l.12-.12h.48l.12-.12h.24l.12-.12h.12l.24-.12.12-.13h0l.12-.12.12-.12.12-.12.12-.12h.12l.12-.12v-.12l.12-.12v-.12l.12-.24.12-.12v-.24l.12-.12V17.8l-.12-.12v-.24l-.12-.12-.12-.12v-.24l-.12-.12h0l-.12-.12-.12-.12-.12-.12-.12-.12-.12-.12-.12-.12h0l-.12-.12h-.24l-.12-.12-.12-.12h-.24l-.12-.12h-.84 0zm-987.95 0v62.34h-36.1 0-.24l-.12-.12h-.48l-.12-.12h-.24l-.12-.12h-.12l-.24-.12-.12-.13h0l-.12-.12-.13-.12-.12-.12-.12-.12h-.12l-.12-.12v-.12l-.12-.12v-.12l-.12-.24-.12-.12v-.24l-.12-.12V17.8l.12-.12v-.24l.12-.12.12-.12v-.24l.12-.12h0l.12-.12.12-.12.12-.12.12-.12.12-.12.12-.12h0l.12-.12h.25l.12-.12.12-.12h.24l.12-.12z"/><circle cx="84.06" cy="63.48" r="6.56" fill="#666" stroke="#000"/><circle cx="84.06" cy="63.48" r="5.96" fill="#ddd" stroke="#7f7f7f"/><path fill="#494949" stroke="#161616" d="m79.43 62.58-.12.12h0-.12 0-.12v.12h0l-.12.12h0v.12h0v.12h0v.12h0v.12h0v.12h0v.12h0v.12h0v.12h0v.12h0v.12h0v.12h.12v.13h0l.12.12h3.97v3.37h0v.24h0v.12h0v.12h.12v.12h0v.12h0v.12h.12v.12h.12l.12.12h1.09l.12-.12h.12v-.12h.12v-.12h0v-.12h0v-.12h0v-.12h0v-.12h0V68h0v-.36h0V64.5h4.2v-.12h.13v-.12h0l.12-.12h0v-.12h0v-.13h0v-.12h0v-.12h0v-.12h0v-.12h0v-.12h0v-.12h0v-.12h0l-.12-.12h0v-.12h0-.12 0v-.12h0-.12 0-.12 0l-.12-.12h0-.12 0-.12 0-.12 0-.36 0-3.13 0v-.24h0v-3.13h0v-.24h0v-.12h0v-.12h0v-.12h0v-.12h-.12 0v-.12h-.12 0-.12 0-.13 0-.12 0-.12v-.12h0-.12 0-.12 0H84v.12h-.12 0-.12 0-.12 0-.12 0l-.12.12h0-.12v.12h0v.12h0v.12h-.12 0v.12h0v.12h0v.24h0v3.25h0-.24 0-3.13 0-.24 0z"/><circle cx="1111.36" cy="63.48" r="6.56" fill="#666" stroke="#000"/><circle cx="1111.36" cy="63.48" r="5.96" fill="#ddd" stroke="#7f7f7f"/><path fill="#494949" stroke="#161616" d="M1106.84 62.58h-.12 0l-.12.12h0-.12 0-.12v.12h0l-.12.12h0v.12h0v.12h0v.12h0v.12h0v.12h0v.12h0v.12h0v.12h0v.12h0v.12h0v.12h.12v.13h0l.12.12h4.1v3.37h0v.24h0v.12h0v.12h0v.12h0v.12h0v.12h.11v.12h.12l.12.12h1.09l.12-.12h.12v-.12h.12v-.12h0v-.12h0v-.12h.12v-.12h0v-.12h0V68h0v-.36h0V64.5h4.09v-.12h.12v-.12h.12v-.12h0v-.12h0v-.13h0l.12-.12h0v-.12h0v-.12h0v-.12h0l-.12-.12h0v-.12h0v-.12h0v-.12h-.12 0v-.12h0-.12 0v-.12h0-.12 0-.12 0l-.12-.12h0-.12 0-.12 0-.12 0-.36 0-3.01 0v-.24h0v-3.13h0v-.24h0v-.12h0-.12v-.12h0v-.12h0v-.12h-.12 0v-.12h-.12 0-.12 0-.12 0-.12 0-.12v-.12h-.12 0-.12 0-.12 0v.12h-.12 0-.12 0-.13 0-.12 0l-.12.12h0-.12v.12h0v.12h0v.12h0v.12h0v.12h0v.24h0v3.25h-.12 0-.24 0-3.13 0z"/><path fill="#efefef" stroke="#000" d="M1132.96 565.52H64.99v94.59h1067.97z"/><circle cx="361.71" cy="580.86" r="6.56" fill="#666" stroke="#000"/><circle cx="361.71" cy="580.86" r="5.96" fill="#ddd" stroke="#7f7f7f"/><path fill="#494949" stroke="#161616" d="M357.2 579.96h-.13v.12h-.12 0-.12 0-.12v.12h0l-.12.12h0v.12h0v.12h0v.12h-.12 0v.12h0v.12h0v.12h0v.12h0v.12h.12v.12h0v.12h0v.12h0v.12h.12v.12h4.21v3.37h0v.24h0v.12h0v.12h0v.12h0v.12h0v.12h.12v.12h.12l.12.13h1.09l.12-.12h.12v-.12h.12v-.12h0v-.13h0l.12-.12h0v-.12h0v-.12h0v-.12h0v-.36h0v-3.13h4.1v-.12h.11v-.12h.12v-.12h0v-.12h0v-.12h0l.12-.12h0v-.12h0v-.12h0v-.12h0l-.12-.12h0v-.12h0v-.12h0v-.12h-.12 0v-.12h0-.12 0v-.12h0-.12 0-.12 0-.12v-.12h0-.12 0-.12 0-.12 0-.36 0-3.01 0v-.24h0v-3.13h0v-.24h0v-.12h0l-.12-.12h0v-.12h0v-.12h-.12 0l-.12-.12h0-.12 0-.12 0-.12 0-.12 0-.12 0-.12 0-.12 0-.12 0-.12 0-.12 0-.13 0v.12h-.12 0l-.12.12h0v.12h0v.12h0v.12h0v.12h0v.24h0v3.25h-.12 0-.12 0-3.25 0z"/><circle cx="598.79" cy="580.86" r="6.56" fill="#666" stroke="#000"/><circle cx="598.79" cy="580.86" r="5.96" fill="#ddd" stroke="#7f7f7f"/><path fill="#494949" stroke="#161616" d="M594.16 579.96v.12h-.12 0-.12 0-.12v.12h0v.12h-.12 0v.12h0v.12h0v.12h0v.12h-.12v.12h0v.12h0v.12h.12v.12h0v.12h0v.12h0v.12h0l.12.12h0v.12h4.09v3.37h0v.24h0v.12h0v.12h0l.12.12h0v.12h0v.12h.12v.12h.12l.12.13h1.08l.12-.12h.12v-.12h.12v-.12h0v-.13h0v-.12h0v-.12h0v-.12h0v-.12h0v-.36h0v-3.13h4.22v-.12h.12v-.12h0l.12-.12h0v-.12h0v-.12h0v-.12h0v-.12h0v-.12h0v-.12h0v-.12h0v-.12h0v-.12h0l-.12-.12h0v-.12h0-.12 0v-.12h0-.12 0-.12 0-.12v-.12h0-.12 0-.12 0-.12 0-.37 0-3.12 0v-.24h0v-3.13h0v-.24h0v-.12h0v-.12h0v-.12h0l-.13-.12h0-.12v-.12h0-.12 0-.12 0-.12 0-.12 0-.12 0-.12 0-.12 0-.12 0-.12 0-.12 0-.12 0l-.12.12h0-.12v.12h0v.12h0l-.12.12h0v.12h0v.12h0v.24h0v3.25h0-.24 0-3.13 0-.24 0z"/><ellipse cx="835.82" cy="580.86" fill="#666" stroke="#000" rx="6.5" ry="6.56"/><ellipse cx="835.82" cy="580.86" fill="#ddd" stroke="#7f7f7f" rx="5.9" ry="5.96"/><path fill="#494949" stroke="#161616" d="M831.37 579.96h-.12v.12h-.12 0-.13 0-.12v.12h0v.12h-.12 0v.12h0v.12h0v.12h0v.12h0v.12h0v.12h0v.12h0v.12h0v.12h0v.12h0v.12h0l.12.12h0v.12h4.22v3.37h0v.24h0v.12h0v.12h0v.12h0v.12h0v.12h.12v.12h.12l.12.13h1.08l.12-.12h.12v-.12h.12v-.12h0v-.13h0v-.12h0l.12-.12h0v-.12h0v-.12h0v-.36h0v-3.13h4.1v-.12h.11v-.12h0l.12-.12h0v-.12h0v-.12h0v-.12h.12v-.12h0v-.12h0l-.12-.12h0v-.12h0v-.12h0v-.12h0l-.12-.12h0v-.12h0-.12 0v-.12h0-.12 0-.12 0-.12v-.12h-.12 0-.12 0-.12 0-.36 0-3 0v-.24h0v-3.13h0v-.24h0v-.12h-.13 0v-.12h0v-.12h0v-.12h-.12 0l-.12-.12h0-.12 0-.12 0-.12 0-.12 0-.12 0-.12 0-.12 0-.12 0-.12 0-.12 0-.12 0l-.12.12h0-.12v.12h0v.12h0v.12h0v.12h0v.12h0v.24h0v3.25h-.12 0-.25 0-3.12 0z"/><path stroke="#000" d="M152.36 586.58h8.06v8.06h-8.06zm11.67 0h8.07v8.06h-8.07zm11.56 0h8.06v8.06h-8.06zm11.55 0h8.07v8.06h-8.07zm11.56 0h8.06v8.06h-8.07zm11.55 0h8.06v8.06h-8.06zm11.55 0h8.06v8.06h-8.06zm11.55 0h8.07v8.06h-8.07zm11.8 0h8.06v8.06h-8.06zm11.55 0h8.07v8.06h-8.07zm11.56 0h8.06v8.06h-8.06zm11.55 0h8.06v8.06h-8.06zm11.55 0h8.07v8.06h-8.07zm11.56 0h8.06v8.06h-8.06zm11.55 0h8.06v8.06h-8.06zm11.67 0h8.07v8.06h-8.07zm-173.78 11.07h8.06v8.06h-8.06zm11.67 0h8.07v8.06h-8.07zm11.56 0h8.06v8.06h-8.06zm11.55 0h8.07v8.06h-8.07zm11.56 0h8.06v8.06h-8.07zm11.55 0h8.06v8.06h-8.06zm11.55 0h8.06v8.06h-8.06zm11.55 0h8.07v8.06h-8.07zm11.8 0h8.06v8.06h-8.06zm11.55 0h8.07v8.06h-8.07zm11.56 0h8.06v8.06h-8.06zm11.55 0h8.06v8.06h-8.06zm11.55 0h8.07v8.06h-8.07zm11.56 0h8.06v8.06h-8.06zm11.55 0h8.06v8.06h-8.06zm11.67 0h8.07v8.06h-8.07zm-173.78 11.07h8.06v8.06h-8.06zm11.67 0h8.07v8.06h-8.07zm11.56 0h8.06v8.06h-8.06zm11.55 0h8.07v8.06h-8.07zm11.56 0h8.06v8.06h-8.07zm11.55 0h8.06v8.06h-8.06zm11.55 0h8.06v8.06h-8.06zm11.55 0h8.07v8.06h-8.07zm11.8 0h8.06v8.06h-8.06zm11.55 0h8.07v8.06h-8.07zm11.56 0h8.06v8.06h-8.06zm11.55 0h8.06v8.06h-8.06zm11.55 0h8.07v8.06h-8.07zm11.56 0h8.06v8.06h-8.06zm11.55 0h8.06v8.06h-8.06zm11.67 0h8.07v8.06h-8.07zM152.36 619.8h8.06v8.07h-8.06zm11.67 0h8.07v8.07h-8.07zm11.56 0h8.06v8.07h-8.06zm11.55 0h8.07v8.07h-8.07zm11.56 0h8.06v8.07h-8.07zm11.55 0h8.06v8.07h-8.06zm11.55 0h8.06v8.07h-8.06zm11.55 0h8.07v8.07h-8.07zm11.8 0h8.06v8.07h-8.06zm11.55 0h8.07v8.07h-8.07zm11.56 0h8.06v8.07h-8.06zm11.55 0h8.06v8.07h-8.06zm11.55 0h8.07v8.07h-8.07zm11.56 0h8.06v8.07h-8.06zm11.55 0h8.06v8.07h-8.06zm11.67 0h8.07v8.07h-8.07zm63.3-33.21h8.07v8.06h-8.06zm11.68 0h8.06v8.06h-8.06zm11.55 0h8.07v8.06h-8.07zm11.56 0h8.06v8.06h-8.06zm11.55 0h8.06v8.06h-8.06zm11.55 0h8.07v8.06h-8.07zm11.56 0h8.06v8.06h-8.06zm11.55 0h8.06v8.06h-8.06zm11.8 0h8.06v8.06h-8.07zm11.55 0h8.06v8.06h-8.06zm11.55 0h8.07v8.06h-8.07zm11.56 0h8.06v8.06h-8.07zm11.55 0h8.06v8.06h-8.06zm11.55 0h8.07v8.06H540zm11.56 0h8.06v8.06h-8.06zm11.67 0h8.06v8.06h-8.06zm-173.78 11.07h8.06v8.06h-8.06zm11.67 0h8.06v8.06h-8.06zm11.55 0h8.07v8.06h-8.07zm11.56 0h8.06v8.06h-8.06zm11.55 0h8.06v8.06h-8.06zm11.55 0h8.07v8.06h-8.07zm11.56 0h8.06v8.06h-8.06zm11.55 0h8.06v8.06h-8.06zm11.8 0h8.06v8.06h-8.07zm11.55 0h8.06v8.06h-8.06zm11.55 0h8.07v8.06h-8.07zm11.56 0h8.06v8.06h-8.07zm11.55 0h8.06v8.06h-8.06zm11.55 0h8.07v8.06H540zm11.56 0h8.06v8.06h-8.06zm11.67 0h8.06v8.06h-8.06zm-173.78 11.07h8.06v8.06h-8.06zm11.67 0h8.06v8.06h-8.06zm11.55 0h8.07v8.06h-8.07zm11.56 0h8.06v8.06h-8.06zm11.55 0h8.06v8.06h-8.06zm11.55 0h8.07v8.06h-8.07zm11.56 0h8.06v8.06h-8.06zm11.55 0h8.06v8.06h-8.06zm11.8 0h8.06v8.06h-8.07zm11.55 0h8.06v8.06h-8.06zm11.55 0h8.07v8.06h-8.07zm11.56 0h8.06v8.06h-8.07zm11.55 0h8.06v8.06h-8.06zm11.55 0h8.07v8.06H540zm11.56 0h8.06v8.06h-8.06zm11.67 0h8.06v8.06h-8.06zM389.45 619.8h8.06v8.07h-8.06zm11.67 0h8.06v8.07h-8.06zm11.55 0h8.07v8.07h-8.07zm11.56 0h8.06v8.07h-8.06zm11.55 0h8.06v8.07h-8.06zm11.55 0h8.07v8.07h-8.07zm11.56 0h8.06v8.07h-8.06zm11.55 0h8.06v8.07h-8.06zm11.8 0h8.06v8.07h-8.07zm11.55 0h8.06v8.07h-8.06zm11.55 0h8.07v8.07h-8.07zm11.56 0h8.06v8.07h-8.07zm11.55 0h8.06v8.07h-8.06zm11.55 0h8.07v8.07H540zm11.56 0h8.06v8.07h-8.06zm11.67 0h8.06v8.07h-8.06zm63.3-33.21h8.07v8.06h-8.07zm11.68 0h8.06v8.06h-8.06zm11.55 0h8.06v8.06h-8.06zm11.55 0h8.07v8.06h-8.07zm11.56 0h8.06v8.06h-8.06zm11.55 0h8.06v8.06h-8.06zm11.55 0h8.07v8.06h-8.07zm11.56 0h8.06v8.06h-8.06zm11.79 0h8.06v8.06h-8.06zm11.55 0h8.07v8.06h-8.07zm11.56 0h8.06v8.06h-8.06zm11.55 0h8.06v8.06h-8.06zm11.55 0h8.07v8.06h-8.07zm11.56 0h8.06v8.06h-8.06zm11.55 0h8.07v8.06h-8.07zm11.68 0h8.06v8.06h-8.06zm-173.79 11.07h8.07v8.06h-8.07zm11.68 0h8.06v8.06h-8.06zm11.55 0h8.06v8.06h-8.06zm11.55 0h8.07v8.06h-8.07zm11.56 0h8.06v8.06h-8.06zm11.55 0h8.06v8.06h-8.06zm11.55 0h8.07v8.06h-8.07zm11.56 0h8.06v8.06h-8.06zm11.79 0h8.06v8.06h-8.06zm11.55 0h8.07v8.06h-8.07zm11.56 0h8.06v8.06h-8.06zm11.55 0h8.06v8.06h-8.06zm11.55 0h8.07v8.06h-8.07zm11.56 0h8.06v8.06h-8.06zm11.55 0h8.07v8.06h-8.07zm11.68 0h8.06v8.06h-8.06zm-173.79 11.07h8.07v8.06h-8.07zm11.68 0h8.06v8.06h-8.06zm11.55 0h8.06v8.06h-8.06zm11.55 0h8.07v8.06h-8.07zm11.56 0h8.06v8.06h-8.06zm11.55 0h8.06v8.06h-8.06zm11.55 0h8.07v8.06h-8.07zm11.56 0h8.06v8.06h-8.06zm11.79 0h8.06v8.06h-8.06zm11.55 0h8.07v8.06h-8.07zm11.56 0h8.06v8.06h-8.06zm11.55 0h8.06v8.06h-8.06zm11.55 0h8.07v8.06h-8.07zm11.56 0h8.06v8.06h-8.06zm11.55 0h8.07v8.06h-8.07zm11.68 0h8.06v8.06h-8.06zM626.53 619.8h8.07v8.07h-8.07zm11.68 0h8.06v8.07h-8.06zm11.55 0h8.06v8.07h-8.06zm11.55 0h8.07v8.07h-8.07zm11.56 0h8.06v8.07h-8.06zm11.55 0h8.06v8.07h-8.06zm11.55 0h8.07v8.07h-8.07zm11.56 0h8.06v8.07h-8.06zm11.79 0h8.06v8.07h-8.06zm11.55 0h8.07v8.07h-8.07zm11.56 0h8.06v8.07h-8.06zm11.55 0h8.06v8.07h-8.06zm11.55 0h8.07v8.07h-8.07zm11.56 0h8.06v8.07h-8.06zm11.55 0h8.07v8.07h-8.07zm11.68 0h8.06v8.07h-8.06zm63.3-33.21h8.06v8.06h-8.06zm11.67 0h8.07v8.06h-8.07zm11.56 0h8.06v8.06h-8.06zm11.55 0h8.06v8.06h-8.06zm11.55 0h8.07v8.06h-8.07zm11.56 0h8.06v8.06h-8.06zm11.55 0h8.06v8.06h-8.06zm11.55 0h8.07v8.06h-8.07zm11.8 0h8.06v8.06h-8.06zm11.55 0h8.06v8.06h-8.06zm11.55 0h8.07v8.06h-8.07zm11.56 0h8.06v8.06h-8.06zm11.55 0h8.06v8.06h-8.06zm11.55 0h8.07v8.06h-8.07zm11.56 0h8.06v8.06h-8.06zm11.67 0h8.06v8.06h-8.06zm-173.78 11.07h8.06v8.06h-8.06zm11.67 0h8.07v8.06h-8.07zm11.56 0h8.06v8.06h-8.06zm11.55 0h8.06v8.06h-8.06zm11.55 0h8.07v8.06h-8.07zm11.56 0h8.06v8.06h-8.06zm11.55 0h8.06v8.06h-8.06zm11.55 0h8.07v8.06h-8.07zm11.8 0h8.06v8.06h-8.06zm11.55 0h8.06v8.06h-8.06zm11.55 0h8.07v8.06h-8.07zm11.56 0h8.06v8.06h-8.06zm11.55 0h8.06v8.06h-8.06zm11.55 0h8.07v8.06h-8.07zm11.56 0h8.06v8.06h-8.06zm11.67 0h8.06v8.06h-8.06zm-173.78 11.07h8.06v8.06h-8.06zm11.67 0h8.07v8.06h-8.07zm11.56 0h8.06v8.06h-8.06zm11.55 0h8.06v8.06h-8.06zm11.55 0h8.07v8.06h-8.07zm11.56 0h8.06v8.06h-8.06zm11.55 0h8.06v8.06h-8.06zm11.55 0h8.07v8.06h-8.07zm11.8 0h8.06v8.06h-8.06zm11.55 0h8.06v8.06h-8.06zm11.55 0h8.07v8.06h-8.07zm11.56 0h8.06v8.06h-8.06zm11.55 0h8.06v8.06h-8.06zm11.55 0h8.07v8.06h-8.07zm11.56 0h8.06v8.06h-8.06zm11.67 0h8.06v8.06h-8.06zM863.62 619.8h8.06v8.07h-8.06zm11.67 0h8.07v8.07h-8.07zm11.56 0h8.06v8.07h-8.06zm11.55 0h8.06v8.07h-8.06zm11.55 0h8.07v8.07h-8.07zm11.56 0h8.06v8.07h-8.06zm11.55 0h8.06v8.07h-8.06zm11.55 0h8.07v8.07h-8.07zm11.8 0h8.06v8.07h-8.06zm11.55 0h8.06v8.07h-8.06zm11.55 0h8.07v8.07h-8.07zm11.56 0h8.06v8.07h-8.06zm11.55 0h8.06v8.07h-8.06zm11.55 0h8.07v8.07h-8.07zm11.56 0h8.06v8.07h-8.06zm11.67 0h8.06v8.07h-8.06z"/><circle cx="1073.38" cy="606.79" r="7.7" fill="none" stroke="#000"/><circle cx="1073.38" cy="606.79" r="5.05" stroke="#000"/><path fill="none" stroke="#000" d="m1123.93 613.9 2.65-6.98h-11.55l-2.65 6.98"/><path fill="none" stroke="#000" d="m1118.16 613.78 2.64-6.86v-7.35"/><ellipse cx="124.68" cy="644.4" fill="#666" stroke="#000" rx="6.5" ry="6.56"/><ellipse cx="124.68" cy="644.4" fill="#ddd" stroke="#7f7f7f" rx="5.9" ry="5.96"/><path fill="#494949" stroke="#161616" d="M120.1 643.5H120v.12h-.12 0-.12 0-.12v.12h0v.12h-.12 0v.12h0v.12h0v.12h0v.12h0v.12h0v.12h0v.12h0v.12h0v.12h0v.13h0v.12h0l.12.12h0v.12h4.09v3.37h0v.24h0v.12h0l.12.12h0v.12h0v.12h0v.12h.12v.12h.12l.12.12h1.08l.12-.12h.12v-.12h.12v-.12h0v-.12h0v-.12h0v-.12h0v-.12h0v-.12h0v-.36h0v-3.13h4.22v-.12h.12v-.12h.12v-.12h0v-.12h0v-.12h0v-.12h0v-.13h0v-.12h0v-.12h0v-.12h0v-.12h0v-.12h0v-.12h-.12 0v-.12h0-.12 0v-.12h0-.12 0-.12 0-.12v-.12h-.12 0-.13 0-.12 0-.36 0-3.13 0v-.24h0v-3.13h0v-.24h0v-.12h0v-.12h0v-.12h0v-.12h-.12 0l-.12-.12h0-.12 0-.12 0-.12 0-.12 0-.12 0-.12 0-.12 0-.12 0-.12 0-.12 0-.12 0v.12h-.12 0-.12v.12h0v.12h0v.12h0-.12v.12h0v.12h0v.24h0v3.25h0-.24 0-3.13 0z"/><ellipse cx="124.68" cy="580.86" fill="#666" stroke="#000" rx="6.5" ry="6.56"/><ellipse cx="124.68" cy="580.86" fill="#ddd" stroke="#7f7f7f" rx="5.9" ry="5.96"/><path fill="#494949" stroke="#161616" d="M120.1 579.96H120v.12h-.12 0-.12 0-.12v.12h0v.12h-.12 0v.12h0v.12h0v.12h0v.12h0v.12h0v.12h0v.12h0v.12h0v.12h0v.12h0v.12h0l.12.12h0v.12h4.09v3.37h0v.24h0v.12h0l.12.12h0v.12h0v.12h0v.12h.12v.12h.12l.12.13h1.08l.12-.12h.12v-.12h.12v-.12h0v-.13h0v-.12h0v-.12h0v-.12h0v-.12h0v-.36h0v-3.13h4.22v-.12h.12v-.12h.12v-.12h0v-.12h0v-.12h0v-.12h0v-.12h0v-.12h0v-.12h0v-.12h0v-.12h0v-.12h0v-.12h-.12 0v-.12h0-.12 0v-.12h0-.12 0-.12 0-.12v-.12h-.12 0-.13 0-.12 0-.36 0-3.13 0v-.24h0v-3.13h0v-.24h0v-.12h0v-.12h0v-.12h0v-.12h-.12 0l-.12-.12h0-.12 0-.12 0-.12 0-.12 0-.12 0-.12 0-.12 0-.12 0-.12 0-.12 0-.12 0v.12h-.12 0-.12v.12h0v.12h0v.12h0-.12v.12h0v.12h0v.24h0v3.25h0-.24 0-3.13 0z"/><ellipse cx="76.54" cy="644.4" fill="#666" stroke="#000" rx="6.5" ry="6.56"/><ellipse cx="76.54" cy="644.4" fill="#ddd" stroke="#7f7f7f" rx="5.9" ry="5.96"/><path fill="#494949" stroke="#161616" d="M71.97 643.5h-.12v.12h-.12 0-.12 0-.12v.12h0v.12h-.12 0v.12h0v.12h0v.12h0v.12h0v.12h0v.12h0v.12h0v.12h0v.12h0v.13h0v.12h0l.12.12h0v.12h4.09v3.37h0v.24h0v.12h0l.12.12h0v.12h0v.12h0v.12h.12v.12h.12l.12.12h1.08l.12-.12h.12v-.12h.12v-.12h0v-.12h0v-.12h0v-.12h0v-.12h0v-.12h0v-.36h0v-3.13h4.22v-.12h.12v-.12h.12v-.12h0v-.12h0v-.12h0v-.12h0v-.13h0v-.12h0v-.12h0v-.12h0v-.12h0v-.12h0v-.12h-.12 0v-.12h0-.12 0v-.12h0-.12 0-.12 0-.12v-.12h-.13 0-.12 0H81h0-.36 0-3.13 0v-.24h0v-3.13h0v-.24h0v-.12h0v-.12h0v-.12h0v-.12h-.12 0l-.12-.12h0-.12 0-.12 0-.12 0-.12 0-.12 0-.12 0-.12 0-.12 0-.12 0-.12 0-.12 0v.12h-.12 0-.12v.12h0v.12h0v.12h0-.12v.12h0v.12h0v.24h0v3.25h0-.24 0-3.13 0z"/><ellipse cx="76.54" cy="580.86" fill="#666" stroke="#000" rx="6.5" ry="6.56"/><ellipse cx="76.54" cy="580.86" fill="#ddd" stroke="#7f7f7f" rx="5.9" ry="5.96"/><path fill="#494949" stroke="#161616" d="M71.97 579.96h-.12v.12h-.12 0-.12 0-.12v.12h0v.12h-.12 0v.12h0v.12h0v.12h0v.12h0v.12h0v.12h0v.12h0v.12h0v.12h0v.12h0v.12h0l.12.12h0v.12h4.09v3.37h0v.24h0v.12h0l.12.12h0v.12h0v.12h0v.12h.12v.12h.12l.12.13h1.08l.12-.12h.12v-.12h.12v-.12h0v-.13h0v-.12h0v-.12h0v-.12h0v-.12h0v-.36h0v-3.13h4.22v-.12h.12v-.12h.12v-.12h0v-.12h0v-.12h0v-.12h0v-.12h0v-.12h0v-.12h0v-.12h0v-.12h0v-.12h0v-.12h-.12 0v-.12h0-.12 0v-.12h0-.12 0-.12 0-.12v-.12h-.13 0-.12 0H81h0-.36 0-3.13 0v-.24h0v-3.13h0v-.24h0v-.12h0v-.12h0v-.12h0v-.12h-.12 0l-.12-.12h0-.12 0-.12 0-.12 0-.12 0-.12 0-.12 0-.12 0-.12 0-.12 0-.12 0-.12 0v.12h-.12 0-.12v.12h0v.12h0v.12h0-.12v.12h0v.12h0v.24h0v3.25h0-.24 0-3.13 0z"/><circle cx="1121.1" cy="644.4" r="6.56" fill="#666" stroke="#000"/><circle cx="1121.1" cy="644.4" r="5.96" fill="#ddd" stroke="#7f7f7f"/><path fill="#494949" stroke="#161616" d="M1116.47 643.5v.12h-.12 0-.12 0-.12v.12h0l-.12.12h0v.12h0v.12h0v.12h0-.12v.12h0v.12h0v.12h0v.12h0v.12h.12v.12h0v.13h0v.12h0v.12h.12v.12h4.21v3.37h0v.24h0v.12h0v.12h0v.12h0v.12h0v.12h.12v.12h.12l.12.12h1.08l.13-.12h.11v-.12h.13v-.12h0v-.12h0l.12-.12h0v-.12h0v-.12h0v-.12h0v-.36h0v-3.13h4.09v-.12h.12v-.12h.12v-.12h0v-.12h0v-.12h0l.12-.12h0v-.13h0v-.12h0v-.12h0l-.12-.12h0v-.12h0v-.12h0v-.12h-.12 0v-.12h0-.12 0v-.12h0-.12 0-.12 0-.12v-.12h0-.12 0-.12 0-.12 0-.36 0-3.01 0v-.24h0v-3.13h0v-.24h0v-.12h0l-.12-.12h0v-.12h0v-.12h-.12 0l-.12-.12h0-.12 0-.12 0-.12 0-.12 0-.13 0-.12 0-.12 0-.12 0-.12 0-.12 0-.12 0v.12h-.12 0l-.12.12h0v.12h0v.12h0v.12h0v.12h0v.24h0v3.25h-.12 0-.12 0-3.37 0-.12 0z"/><circle cx="1121.1" cy="580.86" r="6.56" fill="#666" stroke="#000"/><circle cx="1121.1" cy="580.86" r="5.96" fill="#ddd" stroke="#7f7f7f"/><path fill="#494949" stroke="#161616" d="M1116.47 579.96v.12h-.12 0-.12 0-.12v.12h0l-.12.12h0v.12h0v.12h0v.12h0-.12v.12h0v.12h0v.12h0v.12h0v.12h.12v.12h0v.12h0v.12h0v.12h.12v.12h4.21v3.37h0v.24h0v.12h0v.12h0v.12h0v.12h0v.12h.12v.12h.12l.12.13h1.08l.13-.12h.11v-.12h.13v-.12h0v-.13h0l.12-.12h0v-.12h0v-.12h0v-.12h0v-.36h0v-3.13h4.09v-.12h.12v-.12h.12v-.12h0v-.12h0v-.12h0l.12-.12h0v-.12h0v-.12h0v-.12h0l-.12-.12h0v-.12h0v-.12h0v-.12h-.12 0v-.12h0-.12 0v-.12h0-.12 0-.12 0-.12v-.12h0-.12 0-.12 0-.12 0-.36 0-3.01 0v-.24h0v-3.13h0v-.24h0v-.12h0l-.12-.12h0v-.12h0v-.12h-.12 0l-.12-.12h0-.12 0-.12 0-.12 0-.12 0-.13 0-.12 0-.12 0-.12 0-.12 0-.12 0-.12 0v.12h-.12 0l-.12.12h0v.12h0v.12h0v.12h0v.12h0v.24h0v3.25h-.12 0-.12 0-3.37 0-.12 0z"/><circle cx="1072.96" cy="644.4" r="6.56" fill="#666" stroke="#000"/><circle cx="1072.96" cy="644.4" r="5.96" fill="#ddd" stroke="#7f7f7f"/><path fill="#494949" stroke="#161616" d="M1068.33 643.5v.12h-.12 0-.12 0-.12v.12h0l-.12.12h0v.12h0v.12h0v.12h0-.12v.12h0v.12h0v.12h0v.12h0v.12h.12v.12h0v.13h0v.12h0v.12h.12v.12h4.21v3.37h0v.24h0v.12h0v.12h0v.12h0v.12h0v.12h.12v.12h.12l.12.12h1.08l.13-.12h.12v-.12h.12v-.12h0v-.12h0l.12-.12h0v-.12h0v-.12h0v-.12h0v-.36h0v-3.13h4.09v-.12h.12v-.12h.12v-.12h0v-.12h0v-.12h0l.12-.12h0v-.13h0v-.12h0v-.12h0l-.12-.12h0v-.12h0v-.12h0v-.12h-.12 0v-.12h0-.12 0v-.12h0-.12 0-.12 0-.12v-.12h0-.12 0-.12 0-.12 0-.36 0-3.01 0v-.24h0v-3.13h0v-.24h0v-.12h0l-.12-.12h0v-.12h0v-.12h-.12 0l-.12-.12h0-.12 0-.12 0-.12 0-.12 0-.12 0-.12 0-.13 0-.12 0-.12 0-.12 0-.12 0v.12h-.12 0l-.12.12h0v.12h0v.12h0v.12h0v.12h0v.24h0v3.25h-.12 0-.12 0-3.37 0-.12 0z"/><circle cx="1072.96" cy="580.86" r="6.56" fill="#666" stroke="#000"/><circle cx="1072.96" cy="580.86" r="5.96" fill="#ddd" stroke="#7f7f7f"/><path fill="#494949" stroke="#161616" d="M1068.33 579.96v.12h-.12 0-.12 0-.12v.12h0l-.12.12h0v.12h0v.12h0v.12h0-.12v.12h0v.12h0v.12h0v.12h0v.12h.12v.12h0v.12h0v.12h0v.12h.12v.12h4.21v3.37h0v.24h0v.12h0v.12h0v.12h0v.12h0v.12h.12v.12h.12l.12.13h1.08l.13-.12h.12v-.12h.12v-.12h0v-.13h0l.12-.12h0v-.12h0v-.12h0v-.12h0v-.36h0v-3.13h4.09v-.12h.12v-.12h.12v-.12h0v-.12h0v-.12h0l.12-.12h0v-.12h0v-.12h0v-.12h0l-.12-.12h0v-.12h0v-.12h0v-.12h-.12 0v-.12h0-.12 0v-.12h0-.12 0-.12 0-.12v-.12h0-.12 0-.12 0-.12 0-.36 0-3.01 0v-.24h0v-3.13h0v-.24h0v-.12h0l-.12-.12h0v-.12h0v-.12h-.12 0l-.12-.12h0-.12 0-.12 0-.12 0-.12 0-.12 0-.12 0-.13 0-.12 0-.12 0-.12 0-.12 0v.12h-.12 0l-.12.12h0v.12h0v.12h0v.12h0v.12h0v.24h0v3.25h-.12 0-.12 0-3.37 0-.12 0z"/></g><path fill="#dfdfdf" stroke="#000" stroke-linecap="round" stroke-linejoin="round" stroke-width=".12" d="M1075.19 7.94H10.71v114.94H1075.2z" transform="matrix(.4684 0 0 .4692 20.004 -74.087)"/><path fill="#dfdfdf" stroke="#000" stroke-linecap="round" stroke-linejoin="round" stroke-width=".12" d="M1075.19 7.94H10.71v114.94H1075.2z" transform="matrix(.4684 0 0 .4692 20.004 -17.563)"/><path fill="#dfdfdf" stroke="#000" stroke-linecap="round" stroke-linejoin="round" stroke-width=".12" d="M1075.19 7.94H10.71v114.94H1075.2z" transform="matrix(.4684 0 0 .4692 20.004 -130.612)"/><path fill="#dfdfdf" stroke="#000" stroke-linecap="round" stroke-linejoin="round" stroke-width=".12" d="M1075.19 7.94H10.71v114.94H1075.2z" transform="matrix(.4684 0 0 .4692 20.004 38.961)"/><path fill="none" stroke="#000" stroke-linecap="round" stroke-linejoin="round" stroke-width=".12" d="M9.39 9.27h493.43v62.22H9.38z" transform="matrix(.4684 0 0 .4688 38.654 -163.205)"/><g stroke-linecap="round" stroke-linejoin="round" stroke-width=".12" transform="matrix(.4684 0 0 .47 36.34 -164.516)"><path fill="#eaeaea" stroke="#000" d="M14.32 12.04h493.19V74.5H14.32z"/><ellipse cx="23.65" cy="43.2" fill="#666" stroke="#000" rx="6.56" ry="6.5"/><ellipse cx="23.65" cy="43.2" fill="#ddd" stroke="#7f7f7f" rx="5.96" ry="5.9"/><path fill="#494949" stroke="#161616" d="M19.02 42.36h-.12 0-.12 0-.13v.12h0-.12v.12h0v.12h0v.12h0v.12h0l-.12.12h0v.12h0v.12h0v.12h0l.12.13h0v.12h0v.12h0v.12h0v.12h.12v.12h.37v.12h3.73v3.25h0v.24h0v.12h0v.12h0l.12.12h0v.12h0v.12h.12v.12h.12l.12.12h1.08l.12-.12h.12v-.12h.12v-.12h0v-.12h0v-.12h0v-.12h0v-.12h0v-.12h0v-.36h0v-3.01h3.85v-.12h.36v-.12H29v-.12h0l.12-.12h0v-.12h0v-.12h0v-.12h0v-.12h0v-.13h0v-.12h0v-.12h0v-.12h0v-.12h0L29 42.6h0v-.12h0-.12 0v-.12h0-.12 0-.12 0-.12 0-.12 0-.12 0-.12 0-.36 0-3.13v-.12h0V42h0v-3.13h0v-.24h0v-.12h0v-.12h0v-.12h0l-.12-.12h0-.12v-.12h0-.12 0-.12 0-.12 0-.12 0-.12 0-.12 0-.12 0-.12 0-.12 0-.12 0-.12 0l-.12.12h0-.12v.12h0v.12h0l-.12.12h0v.12h0v.12h0V39h0v3.37h0-.24 0-3.13 0-.24 0z"/><ellipse cx="497.82" cy="43.2" fill="#666" stroke="#000" rx="6.56" ry="6.5"/><ellipse cx="497.82" cy="43.2" fill="#ddd" stroke="#7f7f7f" rx="5.96" ry="5.9"/><path fill="#494949" stroke="#161616" d="M493.19 42.36h-.12 0-.12 0-.12v.12h0-.12v.12h0v.12h0v.12h0v.12h0-.12v.12h0v.12h0v.12h0v.12h0v.13h.12v.12h0v.12h0v.12h0v.12h.12v.12h.36v.12h3.85v3.25h0v.24h0v.12h0v.12h0v.12h0v.12h0v.12h.12v.12h.12l.12.12h1.08l.12-.12h.12v-.12h.12v-.12h0v-.12h0l.12-.12h0v-.12h0v-.12h0v-.12h0v-.36h0v-3.01h3.73v-.12h.37v-.12h.12v-.12h.12v-.12h0v-.12h0v-.12h0l.12-.12h0v-.12h0v-.13h0v-.12h0l-.12-.12h0v-.12h0v-.12h0v-.12h-.12 0v-.12h0-.12 0v-.12h0-.13 0-.12 0-.12 0-.12 0-.12 0-.12 0-.36 0-3v-.12h0V42h0v-3.13h0v-.24h0v-.12h0l-.13-.12h0v-.12h0v-.12h-.12 0l-.12-.12h0-.12 0-.12 0-.12 0-.12 0-.12 0-.12 0-.12 0-.12 0-.12 0-.12 0-.12 0v.12h-.12 0l-.12.12h0v.12h0v.12h0v.12h0v.12h0V39h0v3.37h-.12 0-.12 0-3.37 0-.12 0z"/><path fill="none" stroke="#000" d="m217.59 24.31-.12-.72-.24-.72-.24-.6-.48-.49-.48-.36-.6-.36-.73-.24H52.83l-.72.24-.6.36-.48.36-.36.48-.36.6-.24.73v39.35l.24.72.36.6.36.49.48.48.6.24.72.24.73.12H214.1l.6-.12.72-.24.6-.24.49-.48.48-.48.24-.6.24-.73.12-.6z"/><path fill="#0f0" stroke="#0f0" d="M62.7 30.93v-.36l-.12-.36-.12-.36-.24-.24-.24-.24-.36-.12-.24-.12h-.85l-.24.12-.36.12-.24.24-.24.24-.12.36-.12.36v25.51l.12.24.12.36.24.24.24.25.36.12.24.12.49.12.36-.12.24-.12.36-.12.24-.24.24-.25.12-.36.12-.24zm9.99 0v-.36l-.12-.36-.12-.36-.24-.24-.24-.24-.36-.12-.36-.12h-.73l-.24.12-.36.12-.24.24-.24.24-.12.36-.12.36-.12.36v24.8l.12.35.12.24.12.36.24.24.24.25.36.12.24.12.37.12.36-.12.36-.12.36-.12.24-.24.24-.25.12-.36.12-.24zm10.11 0-.12-.36-.12-.36-.12-.36-.24-.24-.24-.24-.36-.12-.24-.12h-.37 0-.36l-.36.12-.36.12-.24.24-.24.24-.12.36-.12.36v25.51l.12.24.12.36.24.24.24.25.36.12.36.12.36.12h0l.37-.12.24-.12.36-.12.24-.24.24-.25.12-.36.12-.24.12-.36z"/></g><g stroke-linecap="round" stroke-linejoin="round" stroke-width=".12"><path stroke="#000" d="M3.37 18.05h-.12v-.12h-.12 0-.12 0-.12v-.12h0-.12 0l-.12-.12h0l-.12-.12h0v-.12h0-.12v-.12h0v-.12h0v-.12h-.12v-.12h0V3.49h.12v-.12h0v-.12h0v-.12h.12v-.12h0l.12-.12h0l.12-.12h.12v-.12h16.73v.12h.12l.12.12h0l.12.12h0v.12h.12v.12h0v.12h0l.12.12h0v.12h0v.24h0v2.17h0v.24h0-.12v-.12h0v-.12h0-.12V5.9h0-.12v-.12h0-.12 0v-.12h-.12 0-.12 0-.12 0v-.12h0H6.62h0-.12v.12h0-.12 0-.12 0l-.12.12h0-.12v.12h0l-.12.12h0v.12h0v.12h0v10.83h0v.12h0v.12h0v.12h0v.12h0l.12.12h0v.12h.12v.12h.24v.12h.12-.12 0-.12 0-.36 0-2.41 0z" transform="matrix(.3432 0 0 .3376 79.022 -150.952)"/><path stroke="#000" d="M18.9 9.15H7.33h0-.12v-.12h0-.12 0-.12 0l-.12-.12h0-.12v-.12h0l-.12-.12h0v-.12h0v-.12h0v.12h0v.24h0v2.16h0v.24h0v.12h0v.12h0v.12h0v.12h0l.12.12h0v.12h.12l.12.12h12.4l.12-.12v-.12l.12-.12.12-.12.12-.12h0l.12-.12v-.12l.12-.12v-.96l-.12-.12h0v-.12l-.12-.12v-.12h-.12l-.12-.12v-.12h-.12l-.12-.12h-.12l-.12-.12zm27.8 2.89h-.11 0-.12 0l-.13-.12h0-.12v-.12h0l-.12-.13h0v-.12h0v-.12h0-.12v-.12h0v-.12h0v-.24h0V8.8h0v-.24h0v-.13h.12v.13h0v.11h0l.12.12h0v.12h.12l.12.13h.24v.12h9.4v-.12h0V8.9h0V5.78h0v-.12h0v-.12h0-10 0-.12 0v.12h0-.12 0-.12 0l-.12.12h0-.12v.12h0l-.12.12h0v.12h0v.12h-.12 0v10.83h0v.12h.12v.12h0v.12h0v.12h0l.12.12h0v.12h.12v.12h.24v.12h0-.12 0-2.4 0-.36 0-.13 0-.12 0v-.12h-.12 0-.12 0-.12v-.12h0-.12 0l-.12-.12h0l-.12-.12h0v-.12h0-.12v-.12h0v-.12h0v-.12h0v-.12h0V3.5h0v-.12h0v-.12h0v-.12H42v-.12h0l.12-.12h0l.12-.12h.12v-.12H59.1v.12h.12l.12.12h0l.12.12h0v.12h.12v.12h0v.12h0v.12h.12v.12h0v7.1h0l-.12.12h0v.12h0v.12h0-.12v.12h0v.12h0-.12v.12h0l-.12.12h0v.12h-.12 0v.12h-.12 0v.12h-.12 0v.12h-.12 0v.12h.12v.12h.12v.12h.12v.13h.12v.12h0l.12.12h0v.12h.12V13h0v.12h.12v.12h0v.12h0l.12.12h0v.24h0v3.13h0v.24h0v.12h0v.12h0v.12h0v.12h0l.12.12h0v.12h.12v.12h.24v.12h0-.12 0-2.76 0-.12 0-.12v-.12h-.12 0-.12 0-.13v-.12h0-.12 0l-.12-.12h0l-.12-.12h0v-.12h0-.12v-.12h0v-.12h0l-.12-.12h0v-.12h0v-.12h0v-.24h0v-4.58h0-9.26 0zm19.14-6.5h-2.77 0-.24 0-.12 0-.12 0-.12 0-.12 0-.12 0-.12v-.12h0-.12 0l-.12-.12h0l-.12-.13h0v-.12h0-.12v-.12h0v-.12h0V4.7h0v-.12h0v-.12h0v-.12h0v-.12h0V4.1h0v-.12h0v-.12h0v-.12h0v-.12h0v-.12h0v-.12h0v-.12h0v-.12h.12v-.12h0l.12-.12h0l.12-.12h.12v-.12h16.73v.12h.12l.12.12h0l.12.12h0v.12h.12v.12h0v.12h0v.12h0v.12h0v.24h0v2.17h0v.24h0v-.12h0v-.12h0-.12 0V5.9h0-.12v-.12h0-.12 0v-.12h-.12 0-.12 0-.12 0v-.12h0-.12 0-8.43v.12h0-.12 0-.12 0l-.12.12h0-.12v.12h0l-.12.12h0v.12h0v.12h0v10.83h0v.12h0v.12h0v.12h0v.12h0l.12.12h0v.12h.12v.12h.24v.12h.12-.12 0-.12 0-.36 0-2.4 0-.13 0-.12v-.12h-.12 0-.12 0-.12v-.12h0-.12 0l-.12-.12h0l-.12-.12h0v-.12h0-.12v-.12h0v-.12h0v-.12h-.12v-.12h0zm19.02 11.55v.12h0v.12h0v.12h0v.12h0l.12.12h0v.12h.12v.12h.24v.12h.12-.12 0-.12 0-.36 0-2.41 0-.12 0-.12v-.12h-.12 0-.12 0-.12v-.12h0-.12 0l-.12-.12h0l-.12-.12h0v-.12h0-.12v-.12h0v-.12h0v-.12h-.13v-.12h0V3.49h0v-.12h0v-.12h0v-.12h0v-.12h0l-.12-.12h0v-.12h0H81h0v-.12h0-.12 0-.12 0-.12 3.61v.12h.12l.12.12h0l.12.12h0v.12h.12v.12h0v.12h0v.12h.12zm16.97-11.55h-9.98 0-.12v.12h0-.13 0-.12 0l-.12.12h0-.12v.12h0l-.12.12h0v.12h0v.12h0-.12v10.83h0v.12h.12v.12h0v.12h0v.12h0l.12.12h0v.12h.12v.12h.24v.12h0-.12 0-2.76 0-.12 0-.12v-.12h-.12 0-.12 0-.13v-.12h0-.12 0l-.12-.12h0v-.12h-.12 0v-.12h0-.12v-.12h0v-.12h0v-.12h0v-.12h0V3.5h0v-.12h0v-.12h0v-.12h.12v-.12h.12v-.12h0l.12-.12h.12v-.12h16.73v.12h.12l.12.12h0l.12.12h0v.12h.12v.12h0v.12h0v.12h.13v13.6h0v.12h0v.12h0v.12h0v.12h0l.11.12h0v.12h.12v.12h.25v.12h.12-.12 0-.12 0-.37 0-2.4 0-.12 0-.12v-.12h-.12 0-.12 0-.12v-.12h0-.12 0l-.12-.12h0l-.12-.12h0v-.12h0-.13v-.12h0v-.12h0v-.12h-.12v-.12h0zM123 9.14h-10.84 0-.12 0v-.11h0-.12 0-.12 0V8.9h0-.12 0v-.12h0l-.12-.12h0v-.12h0v-.12h0-.12 0v.12h0v.24h0v2.16h0v.24h0v.12h0v.12h.12v.12h0v.12h0l.12.12h0v.12h.12v.12h11.56l.12-.12v-.12l.12-.12.12-.12.12-.12h0l.12-.12v-.12l.12-.12V10h-.12v-.24l-.12-.12h0l-.12-.12-.12-.12h0l-.12-.12h-.12l-.12-.12zm8.3-3.61h-2.77 0-.24 0-.12 0-.12 0-.12 0-.12 0-.12 0-.12v-.12h0-.12 0l-.12-.12h0l-.12-.13h0v-.12h0-.12v-.12h0v-.12h0V4.7h0v-.12h0v-.12h0v-.12h0v-.12h0V4.1h0v-.12h0v-.12h0v-.12h0v-.12h0v-.12h0v-.12h0v-.12h0v-.12h.12v-.12h0l.12-.12h0l.12-.12h.12v-.12h16.73v.12h.12l.12.12h0l.12.12h0v.12h.12v.12h0v.12h0v.12h0v.12h0v.24h0v2.17h0v.24h0v-.12h0v-.12h0-.12 0V5.9h0-.12v-.12h0-.12 0v-.12h-.12 0-.12 0-.12 0v-.12h0-.12 0-8.43v.12h0-.12 0-.12 0l-.12.12h0-.12v.12h0l-.12.12h0v.12h0v.12h0v10.83h0v.12h0v.12h0v.12h0v.12h0l.12.12h0v.12h.12v.12h.24v.12h.12-.12 0-.12 0-.36 0-2.4 0-.13 0-.12v-.12h-.12 0-.12 0-.12v-.12h0-.12 0l-.12-.12h0l-.12-.12h0v-.12h0-.12v-.12h0v-.12h0v-.12h-.12v-.12h0z" transform="matrix(.3432 0 0 .3376 79.022 -150.952)"/><path stroke="#000" d="M124.2 15.04h.12v-.12h.36v-.12h.12v-.12h.12v-.12h.12v-.12h0v-.12h.12v.12h0v.12h0v2.17h0v.12h0v.12h0l-.12.12h0v.12h0v.12h0v.12h-.12 0v.12h0l-.12.12h0l-.12.12h0-.12 0v.12h-.12 0-.12 0-.12v.12h0-16 0v-.12h-.13 0-.12 0-.12v-.12h0-.12 0l-.12-.12h0l-.12-.12h0v-.12h0-.12v-.12h0v-.12h0v-.12h0v-.12h0V3.49h0v-.12h0v-.12h0v-.12h.12v-.12h0l.12-.12h0l.12-.12h.12v-.12h16.73v.12h.12l.12.12h0l.12.12h0v.12h.12v.12h0v.12h0v.12h.12v.12h0v.24h0v2.17h0v.24h0-.12 0v-.12h0v-.12h0-.12 0V5.9h0-.12v-.12h0-.12 0v-.12h-.12 0-.12 0-.12 0v-.12h-.12 0-12.76 0v.12h0-.12 0-.12 0l-.12.12h0-.12v.12h0l-.12.12h0v.12h0v.12h-.12 0v.12h0v8.66z" transform="matrix(.3432 0 0 .3376 79.022 -150.952)"/><path fill="red" stroke="red" d="M28.04 13.6v4.45h5.78V13.6zm-5.9-5.54h4.94v4.46h-4.94zM34.9 13.6v4.33h0v.12h1.45l.12-.12h.72l.12-.12h.24l.24-.12h.12l.24-.12.12-.12.24-.12.12-.12.12-.12.12-.24.24-.12.12-.24.12-.12.12-.24v-.24l.12-.37.12-.24v-.36l.12-.24v-.72l.12-.36h-.12 0-4.8 0zm0-5.54h5.06v4.46H34.9zm-7.82 5.54v4.33h0v.12h-1.44l-.13-.12h-.72l-.12-.12h-.24l-.24-.12h-.12l-.24-.12-.12-.12-.24-.12-.12-.12-.12-.12-.12-.24-.12-.12-.24-.24-.12-.12v-.24l-.12-.24-.13-.37-.12-.24v-.36l-.12-.24V13.6zm.96-10.95V7.1h5.78V2.65zM34.9 7.1v-.12h0V2.65h0l.24-.12h1.2l.13.12h.72l.12.12h.24l.24.12.12.12h.24l.12.12.24.12.12.12.12.12.12.24.24.12.12.24.12.24.12.12v.24l.12.36.12.25v.36l.12.24v.72l.12.48h-.12 0-4.8 0zm-7.82 0v-.12h0V2.65h0l-.24-.12h-1.2l-.13.12h-.72l-.12.12h-.24l-.24.12-.12.12h-.24l-.12.12-.24.12-.12.12-.12.12-.12.24-.12.12-.24.24-.12.24v.12l-.12.24-.13.36-.12.25v.36l-.12.24v1.2z" transform="matrix(.3432 0 0 .3376 79.022 -150.952)"/></g><text x="3.85" y="10.95" font-family="Symbol" font-size="8.54" style="white-space:pre" transform="matrix(.166 0 0 .1728 126.52 -147.067)"><![CDATA[]]></text><text x="22.87" y="12.87" font-family="Arial" font-size="2.53" font-weight="400" style="white-space:pre" transform="matrix(1.8736 0 0 1.8756 36.963 -162.7)"><![CDATA[FortiGate 7040E]]></text><path fill="none" stroke="#000" stroke-linecap="round" stroke-linejoin="round" stroke-width=".12" d="M9.39 9.27h493.43v62.22H9.38z" transform="matrix(.4684 0 0 .4688 269.915 -163.205)"/><g stroke-linecap="round" stroke-linejoin="round" stroke-width=".12" transform="matrix(.4684 0 0 .47 270.308 -162.31)"><path fill="#eaeaea" stroke="#000" d="M8.55 7.34h493.18v62.22H8.54z"/><circle cx="17.87" cy="38.33" r="6.56" fill="#666" stroke="#000"/><circle cx="17.87" cy="38.33" r="5.96" fill="#ddd" stroke="#7f7f7f"/><path fill="#494949" stroke="#161616" d="M13.24 37.55h-.12 0H13h0l-.12.12h0l-.12.12h0v.12h0v.12h0v.12h0l-.12.12h0v.12h0v.12h0v.12h0l.12.12h0v.12h0V39h0v.12h0v.12h.12v.12h.24l.12.12h3.73v3.25h0v.24h0v.12h0v.12h0l.12.12h0v.12h0v.13h.12v.12h.12v.12h.36v.12h.6v-.12h.36v-.12h.12v-.12h.12v-.12h0v-.12h0v-.13h0v-.12h0v-.12h0v-.12h0v-.36h0v-3h3.86l.12-.13h.24v-.12h.12v-.12h0l.12-.12h0v-.12h0v-.12h0v-.12h0v-.12h0v-.12h0v-.12h0v-.12h0v-.12h0v-.12h0l-.12-.12h0v-.12h0-.12 0v-.12h-.12 0-.12 0-.12 0-.12 0-.12 0-.13 0-.36 0-3.13v-.12h0v-.12h0v-3.25h0v-.24h0v-.12h0v-.12h0v-.12h0l-.12-.12h0l-.12-.12h0-.12 0-.12 0-.12 0v-.12h-.12 0-.12 0-.12 0-.12 0-.12v.12h0-.12 0-.12 0-.12 0-.12v.12h0-.12v.12h0v.12h0l-.12.12h0v.12h0v.12h0v.24h0v3.37h0-.24 0-3.13 0-.24 0z"/><circle cx="492.04" cy="38.33" r="6.56" fill="#666" stroke="#000"/><circle cx="492.04" cy="38.33" r="5.96" fill="#ddd" stroke="#7f7f7f"/><path fill="#494949" stroke="#161616" d="M487.41 37.55h-.12 0-.12 0l-.12.12h0l-.12.12h0v.12h0v.12h0v.12h0-.12v.12h0v.12h0v.12h0v.12h0v.12h.12v.12h0V39h0v.12h0v.12h.12v.12h.24l.12.12h3.85v3.25h0v.24h0v.12h0v.12h0v.12h0v.12h0v.13h.12v.12h.12v.12h.36v.12h.6v-.12h.37v-.12h.12v-.12h.12v-.12h0v-.12h0l.12-.13h0v-.12h0v-.12h0v-.12h0v-.36h0v-3h3.73l.12-.13h.24v-.12h.12v-.12h.12V39h0v-.12h0v-.12h0l.12-.12h0v-.12h0v-.12h0v-.12h0l-.12-.12h0v-.12h0v-.12h0v-.12h-.12 0v-.12h0-.12 0v-.12h-.12 0-.12 0-.12 0-.12 0-.12 0-.12 0-.36 0-3.01v-.12h0v-.12h0v-3.25h0v-.24h0v-.12h0l-.12-.12h0v-.12h0v-.12h-.12 0v-.12h-.12 0-.12 0-.13 0-.12 0v-.12h-.12 0-.12 0-.12 0-.12 0-.12v.12h0-.12 0-.12 0-.12 0l-.12.12h0l-.12.12h0v.12h0v.12h0v.12h0v.12h0v.24h0v3.37h-.12 0-.12 0-3.37 0-.12 0z"/><path fill="none" stroke="#000" d="m354.43 20.58-.12-.48-.12-.36-.12-.24-.25-.36-.36-.25-.24-.12-.36-.12H246.84l-.37.12-.24.12-.36.25-.24.36-.12.24-.12.36v34.78l.12.36.12.36.24.24.36.24.24.12.36.12.48.12H352.5l.36-.12.36-.12.24-.12.36-.24.24-.24.12-.36.13-.36.12-.36z"/><path fill="#bfbfbf" stroke="#000" d="M247.56 21.06h38.27v32.98h-38.27z"/><ellipse cx="346.12" cy="48.56" fill="#333" stroke="#000" rx="3.61" ry="3.55"/><ellipse cx="346.12" cy="48.56" fill="#494949" stroke="#666" rx="3.13" ry="3.19"/><path fill="none" stroke="#000" d="M472.73 20.58v-.48l-.12-.36-.12-.24-.24-.36-.36-.25-.24-.12-.37-.12H365.26l-.36.12-.24.12-.37.25-.24.36-.12.24-.12.36-.12.48v33.94l.12.36.12.36.12.36.24.24.37.24.24.12.36.12.36.12H470.8l.48-.12.36-.12.25-.12.36-.24.24-.24.12-.36.12-.36z"/><path fill="#bfbfbf" stroke="#000" d="M365.98 21.06h38.15v32.98h-38.15z"/><circle cx="464.48" cy="48.56" r="3.55" fill="#333" stroke="#000"/><circle cx="464.48" cy="48.56" r="3.19" fill="#494949" stroke="#666"/><path fill="#bfbfbf" stroke="#000" d="M174.99 21.06h38.27v32.98h-38.27z"/><circle cx="230.77" cy="48.56" r="2.11" fill="#333" stroke="#000"/><circle cx="230.77" cy="48.56" r="1.63" fill="#494949" stroke="#666"/><ellipse cx="230.77" cy="37.91" fill="#333" stroke="#000" rx="3.55" ry="3.61"/><circle cx="230.77" cy="37.85" r="2.83" fill="#e2e2e2" stroke="#efefef"/><path fill="#0f0" stroke="#000" d="M317.12 26.48v-.36l-.12-.25-.12-.24-.12-.24-.24-.24-.36-.12-.25-.12h-4.45l-.36.12-.24.12-.24.24-.12.24-.12.24-.12.25-.12.36v.36l.12.36.12.24.12.24.12.24.24.24.24.12.36.12h4.45l.24-.12.37-.12.24-.24.12-.24.12-.24.12-.24zm0 6.62v-.37l-.12-.24-.12-.24-.12-.24-.24-.24-.36-.12-.25-.12h-4.45l-.36.12-.24.12-.24.24-.12.24-.12.24-.12.24-.12.37v.36l.12.36.12.24.12.24.12.24.24.24.24.12.36.12h4.45l.24-.12.37-.12.24-.24.12-.24.12-.24.12-.24zm0 6.62v-.37l-.12-.24-.12-.24-.12-.24-.24-.24-.36-.12-.25-.12h-4.45l-.36.12-.24.12-.24.24-.12.24-.12.24-.12.24-.12.37v.36l.12.36.12.24.12.24.12.24.24.24.24.12.36.12h4.45l.24-.12.37-.12.24-.24.12-.24.12-.24.12-.24zm0 6.86v-.37l-.12-.24-.12-.24-.12-.24-.24-.24-.36-.12-.25-.12h-4.45l-.36.12-.24.12-.24.24-.12.24-.12.24-.12.24-.12.37v.36l.12.36.12.24.12.24.12.24.24.24.24.12.36.12h4.45l.24-.12.37-.12.24-.24.12-.24.12-.24.12-.24zm118.18-20.1v-.36l-.12-.25-.12-.24-.12-.24-.24-.24-.24-.12-.36-.12h-4.46l-.36.12-.24.12-.24.24-.12.24-.12.24-.12.25v1.08l.12.24.12.24.12.24.24.24.24.12.36.12h4.46l.36-.12.24-.12.24-.24.12-.24.12-.24.12-.24zm0 6.62v-.37l-.12-.24-.12-.24-.12-.24-.24-.24-.24-.12-.36-.12h-4.46l-.36.12-.24.12-.24.24-.12.24-.12.24-.12.24v1.09l.12.24.12.24.12.24.24.24.24.12.36.12h4.46l.36-.12.24-.12.24-.24.12-.24.12-.24.12-.24zm0 6.62v-.37l-.12-.24-.12-.24-.12-.24-.24-.24-.24-.12-.36-.12h-4.46l-.36.12-.24.12-.24.24-.12.24-.12.24-.12.24v1.09l.12.24.12.24.12.24.24.24.24.12.36.12h4.46l.36-.12.24-.12.24-.24.12-.24.12-.24.12-.24zm0 6.86v-.37l-.12-.24-.12-.24-.12-.24-.24-.24-.24-.12-.36-.12h-4.46l-.36.12-.24.12-.24.24-.12.24-.12.24-.12.24v1.09l.12.24.12.24.12.24.24.24.24.12.36.12h4.46l.36-.12.24-.12.24-.24.12-.24.12-.24.12-.24zM63.3 25.5l-.12-.36-.12-.24-.12-.24-.12-.24-.24-.24-.24-.12-.36-.12h-4.45l-.24.12-.37.12-.24.24-.12.24-.12.24-.12.24v1.09l.12.24.12.24.12.24.24.24.37.12.24.12h4.45l.36-.12.24-.12.24-.24.12-.24.12-.24.12-.24.12-.37zm0 7.34-.12-.36-.12-.24-.12-.24-.12-.24-.24-.24-.24-.12-.36-.12h-4.45l-.24.12-.37.12-.24.24-.12.24-.12.24-.12.24v1.09l.12.24.12.24.12.24.24.24.37.12.24.12h4.45l.36-.12.24-.12.24-.24.12-.24.12-.24.12-.24.12-.36zm0 7.35-.12-.36-.12-.25-.12-.24-.12-.24-.24-.24-.24-.12-.36-.12h-4.45l-.24.12-.37.12-.24.24-.12.24-.12.24-.12.24v1.09l.12.24.12.24.12.24.24.24.37.12.24.12h4.45l.36-.12.24-.12.24-.24.12-.24.12-.24.12-.24.12-.36zm0 7.58-.12-.36-.12-.24-.12-.24-.12-.24-.24-.25-.24-.12-.36-.12h-4.45l-.24.12-.37.12-.24.24-.12.25-.12.24-.12.24v1.08l.12.24.12.24.12.24.24.24.37.12.24.12h4.45l.36-.12.24-.12.24-.24.12-.24.12-.24.12-.24.12-.36zm44.41-14.93v-.36l-.12-.24-.12-.24-.12-.24-.24-.24-.36-.12-.24-.12h-4.46l-.35.12-.25.12-.24.24-.12.24-.24.24v.24l-.12.36v.37l.12.36v.24l.24.24.12.24.24.24.24.12.37.12h4.45l.24-.12.36-.12.24-.24.12-.24.12-.24.12-.24zm0 14.93v-.36l-.12-.24-.12-.24-.12-.24-.24-.25-.36-.12-.24-.12h-4.46l-.35.12-.25.12-.24.24-.12.25-.24.24v.24l-.12.36v.36l.12.36v.24l.24.24.12.24.24.24.24.12.37.12h4.45l.24-.12.36-.12.24-.24.12-.24.12-.24.12-.24zm18.42-14.93-.12-.36-.13-.24-.12-.24-.12-.24-.24-.24-.24-.12-.36-.12h-4.45l-.36.12-.24.12-.24.24-.12.24-.13.24-.12.24v1.09l.12.24.12.24.13.24.24.24.24.12.36.12h4.45l.36-.12.24-.12.24-.24.12-.24.12-.24.12-.24.12-.36zm0 14.93-.12-.36-.13-.24-.12-.24-.12-.24-.24-.25-.24-.12-.36-.12h-4.45l-.36.12-.24.12-.24.24-.12.25-.13.24-.12.24v1.08l.12.24.12.24.13.24.24.24.24.12.36.12h4.45l.36-.12.24-.12.24-.24.12-.24.12-.24.12-.24.12-.36zm18.17-14.93-.12-.36v-.24l-.24-.24-.12-.24-.24-.24-.25-.12-.36-.12h-4.45l-.24.12-.36.12-.24.24-.12.24-.12.24-.12.24v1.09l.12.24.12.24.12.24.24.24.36.12.24.12h4.45l.36-.12.24-.12.25-.24.12-.24.24-.24v-.24l.12-.36zm0 14.93-.12-.36v-.24l-.24-.24-.12-.24-.24-.25-.25-.12-.36-.12h-4.45l-.24.12-.36.12-.24.24-.12.25-.12.24-.12.24v1.08l.12.24.12.24.12.24.24.24.36.12.24.12h4.45l.36-.12.24-.12.25-.24.12-.24.24-.24v-.24l.12-.36zm18.17 0v-.36l-.12-.24-.12-.24-.12-.24-.24-.25-.24-.12-.36-.12h-4.46l-.36.12-.24.12-.24.24-.12.25-.12.24-.12.24-.12.36v.36l.12.36.12.24.12.24.12.24.24.24.24.12.36.12h4.46l.36-.12.24-.12.24-.24.12-.24.12-.24.12-.24z"/></g><g font-family="Arial" font-size="1.32" font-weight="400"><text x="8.91" y="7.21" style="white-space:pre" transform="matrix(1.8736 0 0 1.8756 268.224 -162.7)"><![CDATA[STATUS]]></text><text x="9.39" y="9.01" style="white-space:pre" transform="matrix(1.8736 0 0 1.8756 268.224 -162.7)"><![CDATA[ALARM]]></text><text x="10.71" y="10.82" style="white-space:pre" transform="matrix(1.8736 0 0 1.8756 268.224 -162.7)"><![CDATA[TEMP]]></text><text x="9.39" y="12.62" style="white-space:pre" transform="matrix(1.8736 0 0 1.8756 268.224 -162.7)"><![CDATA[POWER]]></text><text x="22.14" y="12.62" style="white-space:pre" transform="matrix(1.8736 0 0 1.8756 268.224 -162.7)"><![CDATA[PSU]]></text><text x="22.02" y="9.01" style="white-space:pre" transform="matrix(1.8736 0 0 1.8756 268.224 -162.7)"><![CDATA[FAN]]></text><text x="26.72" y="10.7" style="white-space:pre" transform="matrix(1.8736 0 0 1.8756 268.224 -162.7)"><![CDATA[1]]></text><text x="26.72" y="7.09" style="white-space:pre" transform="matrix(1.8736 0 0 1.8756 268.224 -162.7)"><![CDATA[1]]></text><text x="31.29" y="10.7" style="white-space:pre" transform="matrix(1.8736 0 0 1.8756 268.224 -162.7)"><![CDATA[2]]></text><text x="31.29" y="7.09" style="white-space:pre" transform="matrix(1.8736 0 0 1.8756 268.224 -162.7)"><![CDATA[2]]></text><text x="35.86" y="10.7" style="white-space:pre" transform="matrix(1.8736 0 0 1.8756 268.224 -162.7)"><![CDATA[3]]></text><text x="35.86" y="7.09" style="white-space:pre" transform="matrix(1.8736 0 0 1.8756 268.224 -162.7)"><![CDATA[3]]></text><text x="40.44" y="10.7" style="white-space:pre" transform="matrix(1.8736 0 0 1.8756 268.224 -162.7)"><![CDATA[4]]></text></g><path fill="#83ff00" stroke="#000" stroke-linecap="round" stroke-linejoin="round" stroke-width=".12" d="M6.62 7.22h6.86v2.89H6.62z" transform="matrix(.4648 0 0 .464 351.285 -155.044)"/><path fill="#83ff00" stroke="#000" stroke-linecap="round" stroke-linejoin="round" stroke-width=".12" d="M6.62 7.22h6.86v2.89H6.62z" transform="matrix(.4648 0 0 .464 362.334 -155.044)"/><g font-family="Arial" font-size="1.32" font-weight="400"><text x="81.23" y="7.21" style="white-space:pre" transform="matrix(1.8736 0 0 1.8756 268.224 -162.7)"><![CDATA[3]]></text><text x="81.23" y="9.01" style="white-space:pre" transform="matrix(1.8736 0 0 1.8756 268.224 -162.7)"><![CDATA[1 I/O]]></text><text x="81.23" y="10.82" style="white-space:pre" transform="matrix(1.8736 0 0 1.8756 268.224 -162.7)"><![CDATA[2 I/O]]></text><text x="81.23" y="12.62" style="white-space:pre" transform="matrix(1.8736 0 0 1.8756 268.224 -162.7)"><![CDATA[4]]></text><text x="110.6" y="7.21" style="white-space:pre" transform="matrix(1.8736 0 0 1.8756 268.224 -162.7)"><![CDATA[3]]></text><text x="110.6" y="9.01" style="white-space:pre" transform="matrix(1.8736 0 0 1.8756 268.224 -162.7)"><![CDATA[1 I/O]]></text><text x="110.6" y="10.82" style="white-space:pre" transform="matrix(1.8736 0 0 1.8756 268.224 -162.7)"><![CDATA[2 I/O]]></text><text x="110.6" y="12.62" style="white-space:pre" transform="matrix(1.8736 0 0 1.8756 268.224 -162.7)"><![CDATA[4]]></text><text x="73.41" y="16.11" style="white-space:pre" transform="matrix(1.8736 0 0 1.8756 268.224 -162.7)"><![CDATA[CONSOLE 1]]></text><text x="103.5" y="16.11" style="white-space:pre" transform="matrix(1.8736 0 0 1.8756 268.224 -162.7)"><![CDATA[CONSOLE 2]]></text><text x="47.78" y="16.11" style="white-space:pre" transform="matrix(1.8736 0 0 1.8756 268.224 -162.7)"><![CDATA[MGMT]]></text></g><path stroke="#161616" stroke-linecap="round" stroke-linejoin="round" stroke-width=".12" d="M2.89 1.32v18.3h7.7v4.45h3.13v4.33h9.03v-4.33H26v-4.45h7.7V1.32z" transform="matrix(.4688 0 0 -.468 352.838 -138.603)"/><path stroke="#0a0a0a" stroke-linecap="round" stroke-linejoin="round" stroke-width=".12" d="M10.11 6.5v30.33h10.1v6.26h25.04v-6.26h10.23V6.5z" transform="matrix(.3188 0 0 .3216 384.963 -151.245)"/><path stroke="#0a0a0a" stroke-linecap="round" stroke-linejoin="round" stroke-width=".12" d="M10.11 6.5v30.33h10.1v6.26h25.04v-6.26h10.23V6.5z" transform="matrix(.3188 0 0 .3216 440.208 -151.245)"/><g font-family="Arial" font-size="3.25" font-weight="400"><text x="290.64" y="30.12" style="white-space:pre" transform="matrix(4 0 0 4 0 -159.988)"><![CDATA[3]]></text><text x="290.64" y="62.02" style="white-space:pre" transform="matrix(4 0 0 4 0 -159.988)"><![CDATA[1]]></text><text x="290.64" y="91.14" style="white-space:pre" transform="matrix(4 0 0 4 0 -159.988)"><![CDATA[2]]></text><text x="290.64" y="122.43" style="white-space:pre" transform="matrix(4 0 0 4 0 -159.988)"><![CDATA[4]]></text></g><path fill="none" stroke="#000" stroke-linecap="round" stroke-linejoin="round" stroke-width=".12" d="M2.05 2.29h4.2v4.2h-4.2z" transform="matrix(.4728 0 0 .4648 494.179 115.49)"/><g font-family="Arial" font-size="3.25" font-weight="400"><text x="32.01" y="30.12" style="white-space:pre" transform="matrix(4 0 0 4 0 -159.988)"><![CDATA[3]]></text><text x="32.01" y="62.02" style="white-space:pre" transform="matrix(4 0 0 4 0 -159.988)"><![CDATA[1]]></text><text x="32.01" y="91.14" style="white-space:pre" transform="matrix(4 0 0 4 0 -159.988)"><![CDATA[2]]></text><text x="32.01" y="122.43" style="white-space:pre" transform="matrix(4 0 0 4 0 -159.988)"><![CDATA[4]]></text></g></svg>