<svg xmlns="http://www.w3.org/2000/svg" xmlns:xlink="http://www.w3.org/1999/xlink" version="1.1" width="7.6032000000" height="4.0000000000" viewBox="0 0 136.8567 72.0000">
  <title><![CDATA[FG-800D]]></title>
  <g transform=" scale(4.000000) ">
    <!--converted by libvisio2svg-->
    <g transform=" translate(0.000000,23.499200) ">
      <!--emf-blob start-->
      <g transform="translate(-0.0000, -0.0000)">
        <path d="M 15.7477,1.9354 L 15.7477,2.8844 L 16.6422,2.8844 " stroke="#000000" stroke-width="0.1199" stroke-linecap="round" stroke-linejoin="round" fill="none"/>
        <path d="M 16.6422,1.9354 L 18.4076,1.9354 " stroke="#000000" stroke-width="0.1199" stroke-linecap="round" stroke-linejoin="round" fill="none"/>
        <path d="M 17.5131,1.9354 L 17.5131,2.8844 " stroke="#000000" stroke-width="0.1199" stroke-linecap="round" stroke-linejoin="round" fill="none"/>
        <path d="M 18.8549,1.9354 L 18.8549,2.8844 " stroke="#000000" stroke-width="0.1199" stroke-linecap="round" stroke-linejoin="round" fill="none"/>
        <path d="M 18.8549,1.9354 L 18.8549,2.8844 " stroke="#000000" stroke-width="0.1199" stroke-linecap="round" stroke-linejoin="round" fill="none"/>
        <path d="M 19.7258,2.8844 L 19.7258,1.9354 L 20.6203,2.8844 L 21.5148,1.9354 L 21.5148,2.8844 " stroke="#000000" stroke-width="0.1199" stroke-linecap="round" stroke-linejoin="round" fill="none"/>
        <path d="M 21.9385,2.8844 L 22.8330,1.9354 L 23.7275,2.8844 " stroke="#000000" stroke-width="0.1199" stroke-linecap="round" stroke-linejoin="round" fill="none"/>
        <path d="M 22.1739,2.6472 L 23.4921,2.6472 " stroke="#000000" stroke-width="0.1199" stroke-linecap="round" stroke-linejoin="round" fill="none"/>
        <path d="M 13.0878,2.8844 L 13.9823,1.9354 L 14.8768,2.8844 " stroke="#000000" stroke-width="0.1199" stroke-linecap="round" stroke-linejoin="round" fill="none"/>
        <path d="M 13.3232,2.6472 L 14.6414,2.6472 " stroke="#000000" stroke-width="0.1199" stroke-linecap="round" stroke-linejoin="round" fill="none"/>
        <path d="M 136.8005,0.0280 L 0.0281,0.0280 L 0.0281,12.4182 L 136.8005,12.4182 L 136.8005,0.0280 Z" stroke="#000000" stroke-width="0.1199" stroke-linecap="round" stroke-linejoin="round" fill="#DDDDDD"/>
        <path d="M 129.6019,0.0280 L 7.2267,0.0280 L 7.2267,12.4182 L 129.6019,12.4182 L 129.6019,0.0280 Z" stroke="#000000" stroke-width="0.1199" stroke-linecap="round" stroke-linejoin="round" fill="#DDDDDD"/>
        <path d="M 4.5834,2.0744 L 4.5834,1.9763 L 4.5694,1.8781 L 4.5413,1.7800 L 4.4991,1.6819 L 4.4147,1.5137 L 4.3585,1.4436 L 4.2179,1.3035 L 4.1476,1.2474 L 3.9789,1.1633 L 3.8805,1.1213 L 3.7820,1.0932 L 3.6836,1.0792 L 1.8137,1.0792 L 1.7153,1.0932 L 1.6169,1.1213 L 1.5184,1.1633 L 1.3497,1.2474 L 1.2794,1.3035 L 1.1388,1.4436 L 1.0826,1.5137 L 0.9982,1.6819 L 0.9561,1.7800 L 0.9279,1.8781 L 0.9139,1.9763 L 0.9139,2.1725 L 0.9279,2.2706 L 0.9561,2.3687 L 0.9982,2.4668 L 1.0826,2.6350 L 1.1388,2.7051 L 1.2794,2.8452 L 1.3497,2.9013 L 1.5184,2.9854 L 1.6169,3.0275 L 1.7153,3.0555 L 1.8137,3.0695 L 3.6836,3.0695 L 3.7820,3.0555 L 3.8805,3.0275 L 3.9789,2.9854 L 4.1476,2.9013 L 4.2179,2.8452 L 4.3585,2.7051 L 4.4147,2.6350 L 4.4991,2.4668 L 4.5413,2.3687 L 4.5694,2.2706 L 4.5834,2.1725 L 4.5834,2.0744 Z" stroke="#000000" stroke-width="0.1199" stroke-linecap="round" stroke-linejoin="round" fill="#FFFFFF"/>
        <path d="M 4.5834,10.3718 L 4.5834,10.2737 L 4.5694,10.1756 L 4.5413,10.0775 L 4.4991,9.9794 L 4.4147,9.8112 L 4.3585,9.7411 L 4.2179,9.6010 L 4.1476,9.5449 L 3.9789,9.4608 L 3.8805,9.4187 L 3.7820,9.3907 L 3.6836,9.3767 L 1.8137,9.3767 L 1.7153,9.3907 L 1.6169,9.4187 L 1.5184,9.4608 L 1.3497,9.5449 L 1.2794,9.6010 L 1.1388,9.7411 L 1.0826,9.8112 L 0.9982,9.9794 L 0.9561,10.0775 L 0.9279,10.1756 L 0.9139,10.2737 L 0.9139,10.4699 L 0.9279,10.5681 L 0.9561,10.6662 L 0.9982,10.7643 L 1.0826,10.9325 L 1.1388,11.0026 L 1.2794,11.1427 L 1.3497,11.1988 L 1.5184,11.2829 L 1.6169,11.3249 L 1.7153,11.3530 L 1.8137,11.3670 L 3.6836,11.3670 L 3.7820,11.3530 L 3.8805,11.3249 L 3.9789,11.2829 L 4.1476,11.1988 L 4.2179,11.1427 L 4.3585,11.0026 L 4.4147,10.9325 L 4.4991,10.7643 L 4.5413,10.6662 L 4.5694,10.5681 L 4.5834,10.4699 L 4.5834,10.3718 Z" stroke="#000000" stroke-width="0.1199" stroke-linecap="round" stroke-linejoin="round" fill="#FFFFFF"/>
        <path d="M 135.9288,2.0744 L 135.9288,1.9763 L 135.9147,1.8781 L 135.8866,1.7800 L 135.8444,1.6819 L 135.7600,1.5137 L 135.7038,1.4436 L 135.5632,1.3035 L 135.4929,1.2474 L 135.3242,1.1633 L 135.2258,1.1213 L 135.1274,1.0932 L 135.0289,1.0792 L 133.1590,1.0792 L 133.0606,1.0932 L 132.9622,1.1213 L 132.8638,1.1633 L 132.6950,1.2474 L 132.6247,1.3035 L 132.4841,1.4436 L 132.4279,1.5137 L 132.3436,1.6819 L 132.3014,1.7800 L 132.2733,1.8781 L 132.2592,1.9763 L 132.2592,2.1725 L 132.2733,2.2706 L 132.3014,2.3687 L 132.3436,2.4668 L 132.4279,2.6350 L 132.4841,2.7051 L 132.6247,2.8452 L 132.6950,2.9013 L 132.8638,2.9854 L 132.9622,3.0275 L 133.0606,3.0555 L 133.1590,3.0695 L 135.0289,3.0695 L 135.1274,3.0555 L 135.2258,3.0275 L 135.3242,2.9854 L 135.4929,2.9013 L 135.5632,2.8452 L 135.7038,2.7051 L 135.7600,2.6350 L 135.8444,2.4668 L 135.8866,2.3687 L 135.9147,2.2706 L 135.9288,2.1725 L 135.9288,2.0744 Z" stroke="#000000" stroke-width="0.1199" stroke-linecap="round" stroke-linejoin="round" fill="#FFFFFF"/>
        <path d="M 135.9288,10.3718 L 135.9288,10.2737 L 135.9147,10.1756 L 135.8866,10.0775 L 135.8444,9.9794 L 135.7600,9.8112 L 135.7038,9.7411 L 135.5632,9.6010 L 135.4929,9.5449 L 135.3242,9.4608 L 135.2258,9.4187 L 135.1274,9.3907 L 135.0289,9.3767 L 133.1590,9.3767 L 133.0606,9.3907 L 132.9622,9.4187 L 132.8638,9.4608 L 132.6950,9.5449 L 132.6247,9.6010 L 132.4841,9.7411 L 132.4279,9.8112 L 132.3436,9.9794 L 132.3014,10.0775 L 132.2733,10.1756 L 132.2592,10.2737 L 132.2592,10.4699 L 132.2733,10.5681 L 132.3014,10.6662 L 132.3436,10.7643 L 132.4279,10.9325 L 132.4841,11.0026 L 132.6247,11.1427 L 132.6950,11.1988 L 132.8638,11.2829 L 132.9622,11.3249 L 133.0606,11.3530 L 133.1590,11.3670 L 135.0289,11.3670 L 135.1274,11.3530 L 135.2258,11.3249 L 135.3242,11.2829 L 135.4929,11.1988 L 135.5632,11.1427 L 135.7038,11.0026 L 135.7600,10.9325 L 135.8444,10.7643 L 135.8866,10.6662 L 135.9147,10.5681 L 135.9288,10.4699 L 135.9288,10.3718 Z" stroke="#000000" stroke-width="0.1199" stroke-linecap="round" stroke-linejoin="round" fill="#FFFFFF"/>
        <path d="M 128.8146,1.4577 L 128.8146,1.3876 L 128.8005,1.3315 L 128.7865,1.2614 L 128.7021,1.0932 L 128.6599,1.0372 L 128.5756,0.9531 L 128.5193,0.9110 L 128.3506,0.8269 L 128.2803,0.8129 L 128.2241,0.7989 L 8.6045,0.7989 L 8.5483,0.8129 L 8.4780,0.8269 L 8.3093,0.9110 L 8.2530,0.9531 L 8.1687,1.0372 L 8.1265,1.0932 L 8.0421,1.2614 L 8.0281,1.3315 L 8.0140,1.3876 L 8.0140,11.0726 L 8.0281,11.1287 L 8.0421,11.1988 L 8.1265,11.3670 L 8.1687,11.4230 L 8.2530,11.5071 L 8.3093,11.5492 L 8.4780,11.6333 L 8.5483,11.6473 L 8.6045,11.6613 L 128.2241,11.6613 L 128.2803,11.6473 L 128.3506,11.6333 L 128.5193,11.5492 L 128.5756,11.5071 L 128.6599,11.4230 L 128.7021,11.3670 L 128.7865,11.1988 L 128.8005,11.1287 L 128.8146,11.0726 L 128.8146,11.0026 L 128.8146,1.4577 Z" stroke="#000000" stroke-width="0.1199" stroke-linecap="round" stroke-linejoin="round" fill="#EFEFEF"/>
        <path d="M 12.1054,1.9763 L 12.1054,1.9342 L 12.0913,1.8922 L 12.0772,1.8641 L 12.0210,1.8081 L 11.9929,1.7940 L 11.9507,1.7800 L 11.8523,1.7800 L 11.8101,1.7940 L 11.7820,1.8081 L 11.7258,1.8641 L 11.7117,1.8922 L 11.6976,1.9342 L 11.6976,4.7795 L 11.7117,4.8215 L 11.7258,4.8495 L 11.7820,4.9056 L 11.8101,4.9196 L 11.8523,4.9336 L 11.9507,4.9336 L 11.9929,4.9196 L 12.0210,4.9056 L 12.0772,4.8495 L 12.0913,4.8215 L 12.1054,4.7795 L 12.1054,4.7374 L 12.1054,1.9763 Z" stroke="#9BCC9B" stroke-width="0.1199" stroke-linecap="round" stroke-linejoin="round" fill="#9BCC9B"/>
        <path d="M 10.9525,1.9763 L 10.9525,1.9342 L 10.9384,1.8922 L 10.9244,1.8641 L 10.8681,1.8081 L 10.8400,1.7940 L 10.7978,1.7800 L 10.6994,1.7800 L 10.6572,1.7940 L 10.6291,1.8081 L 10.5729,1.8641 L 10.5588,1.8922 L 10.5447,1.9342 L 10.5447,4.7795 L 10.5588,4.8215 L 10.5729,4.8495 L 10.6291,4.9056 L 10.6572,4.9196 L 10.6994,4.9336 L 10.7978,4.9336 L 10.8400,4.9196 L 10.8681,4.9056 L 10.9244,4.8495 L 10.9384,4.8215 L 10.9525,4.7795 L 10.9525,4.7374 L 10.9525,1.9763 Z" stroke="#9BCC9B" stroke-width="0.1199" stroke-linecap="round" stroke-linejoin="round" fill="#9BCC9B"/>
        <path d="M 9.8136,1.9763 L 9.8136,1.9342 L 9.7996,1.8922 L 9.7855,1.8641 L 9.7293,1.8081 L 9.7012,1.7940 L 9.6590,1.7800 L 9.5606,1.7800 L 9.5184,1.7940 L 9.4903,1.8081 L 9.4340,1.8641 L 9.4200,1.8922 L 9.4059,1.9342 L 9.4059,4.7795 L 9.4200,4.8215 L 9.4340,4.8495 L 9.4903,4.9056 L 9.5184,4.9196 L 9.5606,4.9336 L 9.6590,4.9336 L 9.7012,4.9196 L 9.7293,4.9056 L 9.7855,4.8495 L 9.7996,4.8215 L 9.8136,4.7795 L 9.8136,4.7374 L 9.8136,1.9763 Z" stroke="#9BCC9B" stroke-width="0.1199" stroke-linecap="round" stroke-linejoin="round" fill="#9BCC9B"/>
        <path d="M 104.8991,1.5418 L 79.2543,1.5418 L 79.2543,9.0824 L 104.8991,9.0824 L 104.8991,1.5418 Z" stroke="#000000" stroke-width="0.1199" stroke-linecap="round" stroke-linejoin="round" fill="#EAEAEA"/>
        <path d="M 43.1913,9.0824 L 47.5779,9.0824 L 47.5779,1.5418 L 43.1913,1.5418 L 43.1913,9.0824 Z" stroke="#000000" stroke-width="0.1199" stroke-linecap="round" stroke-linejoin="round" fill="#EAEAEA"/>
        <path d="M 49.2932,9.0824 L 53.6798,9.0824 L 53.6798,1.5418 L 49.2932,1.5418 L 49.2932,9.0824 Z" stroke="#000000" stroke-width="0.1199" stroke-linecap="round" stroke-linejoin="round" fill="#EAEAEA"/>
        <path d="M 54.7061,9.0824 L 59.0927,9.0824 L 59.0927,1.5418 L 54.7061,1.5418 L 54.7061,9.0824 Z" stroke="#000000" stroke-width="0.1199" stroke-linecap="round" stroke-linejoin="round" fill="#EAEAEA"/>
        <path d="M 106.4175,9.0824 L 127.4789,9.0824 L 127.4789,1.5418 L 106.4175,1.5418 L 106.4175,9.0824 Z" stroke="#000000" stroke-width="0.1199" stroke-linecap="round" stroke-linejoin="round" fill="#BFBFBF"/>
        <path d="M 106.6284,4.4571 L 110.5933,4.4571 L 110.5933,1.7520 L 106.6284,1.7520 L 106.6284,4.4571 Z" stroke="#7F7F7F" stroke-width="0.1199" stroke-linecap="round" stroke-linejoin="round" fill="#7F7F7F"/>
        <path d="M 106.6284,8.8861 L 110.5933,8.8861 L 110.5933,6.1811 L 106.6284,6.1811 L 106.6284,8.8861 Z" stroke="#7F7F7F" stroke-width="0.1199" stroke-linecap="round" stroke-linejoin="round" fill="#7F7F7F"/>
        <path d="M 60.7658,1.5418 L 78.0311,1.5418 L 78.0311,9.0824 L 60.7658,9.0824 L 60.7658,1.5418 Z" stroke="#000000" stroke-width="0.1199" stroke-linecap="round" stroke-linejoin="round" fill="#EAEAEA"/>
        <path d="M 32.5059,9.0824 L 36.8925,9.0824 L 36.8925,5.2980 L 32.5059,5.2980 L 32.5059,9.0824 Z" stroke="#000000" stroke-width="0.1199" stroke-linecap="round" stroke-linejoin="round" fill="#EAEAEA"/>
        <path d="M 110.7901,4.4571 L 114.7549,4.4571 L 114.7549,1.7520 L 110.7901,1.7520 L 110.7901,4.4571 Z" stroke="#7F7F7F" stroke-width="0.1199" stroke-linecap="round" stroke-linejoin="round" fill="#7F7F7F"/>
        <path d="M 110.7901,8.8861 L 114.7549,8.8861 L 114.7549,6.1811 L 110.7901,6.1811 L 110.7901,8.8861 Z" stroke="#7F7F7F" stroke-width="0.1199" stroke-linecap="round" stroke-linejoin="round" fill="#7F7F7F"/>
        <path d="M 114.9518,4.4571 L 118.9166,4.4571 L 118.9166,1.7520 L 114.9518,1.7520 L 114.9518,4.4571 Z" stroke="#7F7F7F" stroke-width="0.1199" stroke-linecap="round" stroke-linejoin="round" fill="#7F7F7F"/>
        <path d="M 114.9518,8.8861 L 118.9166,8.8861 L 118.9166,6.1811 L 114.9518,6.1811 L 114.9518,8.8861 Z" stroke="#7F7F7F" stroke-width="0.1199" stroke-linecap="round" stroke-linejoin="round" fill="#7F7F7F"/>
        <path d="M 119.1134,4.4571 L 123.0782,4.4571 L 123.0782,1.7520 L 119.1134,1.7520 L 119.1134,4.4571 Z" stroke="#7F7F7F" stroke-width="0.1199" stroke-linecap="round" stroke-linejoin="round" fill="#7F7F7F"/>
        <path d="M 119.1134,8.8861 L 123.0782,8.8861 L 123.0782,6.1811 L 119.1134,6.1811 L 119.1134,8.8861 Z" stroke="#7F7F7F" stroke-width="0.1199" stroke-linecap="round" stroke-linejoin="round" fill="#7F7F7F"/>
        <path d="M 123.2751,4.4571 L 127.2399,4.4571 L 127.2399,1.7520 L 123.2751,1.7520 L 123.2751,4.4571 Z" stroke="#7F7F7F" stroke-width="0.1199" stroke-linecap="round" stroke-linejoin="round" fill="#7F7F7F"/>
        <path d="M 123.2751,8.8861 L 127.2399,8.8861 L 127.2399,6.1811 L 123.2751,6.1811 L 123.2751,8.8861 Z" stroke="#7F7F7F" stroke-width="0.1199" stroke-linecap="round" stroke-linejoin="round" fill="#7F7F7F"/>
        <path d="M 110.5933,4.6673 L 106.6284,4.6673 L 106.6284,5.9568 L 110.5933,5.9568 L 110.5933,4.6673 Z" stroke="#7F7F7F" stroke-width="0.1199" stroke-linecap="round" stroke-linejoin="round" fill="#7F7F7F"/>
        <path d="M 110.5933,4.8495 L 106.6284,4.8495 L 106.6284,5.7886 L 110.5933,5.7886 L 110.5933,4.8495 Z" stroke="#BFBFBF" stroke-width="0.1199" stroke-linecap="round" stroke-linejoin="round" fill="#BFBFBF"/>
        <path d="M 110.5933,4.6673 L 106.6284,4.6673 L 106.6284,5.9568 L 110.5933,5.9568 L 110.5933,4.6673 Z" stroke="#494949" stroke-width="0.1199" stroke-linecap="round" stroke-linejoin="round" fill="none"/>
        <path d="M 106.7550,4.9757 L 107.1486,5.6484 L 107.5283,4.9757 L 106.7550,4.9757 Z" stroke="#000000" stroke-width="0.1199" stroke-linecap="round" stroke-linejoin="round" fill="#00FF00"/>
        <path d="M 109.6934,5.6484 L 110.0871,4.9757 L 110.4667,5.6484 L 109.6934,5.6484 Z" stroke="#000000" stroke-width="0.1199" stroke-linecap="round" stroke-linejoin="round" fill="#00FF00"/>
        <path d="M 109.3701,4.6673 L 107.8516,4.6673 L 107.8516,4.9056 L 109.3701,4.9056 L 109.3701,4.6673 Z" stroke="#494949" stroke-width="0.1199" stroke-linecap="round" stroke-linejoin="round" fill="#494949"/>
        <path d="M 109.3701,5.7185 L 107.8516,5.7185 L 107.8516,5.9568 L 109.3701,5.9568 L 109.3701,5.7185 Z" stroke="#494949" stroke-width="0.1199" stroke-linecap="round" stroke-linejoin="round" fill="#494949"/>
        <path d="M 114.7830,4.6673 L 110.8182,4.6673 L 110.8182,5.9568 L 114.7830,5.9568 L 114.7830,4.6673 Z" stroke="#7F7F7F" stroke-width="0.1199" stroke-linecap="round" stroke-linejoin="round" fill="#7F7F7F"/>
        <path d="M 114.7830,4.8495 L 110.8182,4.8495 L 110.8182,5.7886 L 114.7830,5.7886 L 114.7830,4.8495 Z" stroke="#BFBFBF" stroke-width="0.1199" stroke-linecap="round" stroke-linejoin="round" fill="#BFBFBF"/>
        <path d="M 114.7830,4.6673 L 110.8182,4.6673 L 110.8182,5.9568 L 114.7830,5.9568 L 114.7830,4.6673 Z" stroke="#494949" stroke-width="0.1199" stroke-linecap="round" stroke-linejoin="round" fill="none"/>
        <path d="M 110.9448,4.9757 L 111.3384,5.6484 L 111.7180,4.9757 L 110.9448,4.9757 Z" stroke="#000000" stroke-width="0.1199" stroke-linecap="round" stroke-linejoin="round" fill="#00FF00"/>
        <path d="M 113.8832,5.6484 L 114.2769,4.9757 L 114.6565,5.6484 L 113.8832,5.6484 Z" stroke="#000000" stroke-width="0.1199" stroke-linecap="round" stroke-linejoin="round" fill="#00FF00"/>
        <path d="M 113.5598,4.6673 L 112.0414,4.6673 L 112.0414,4.9056 L 113.5598,4.9056 L 113.5598,4.6673 Z" stroke="#494949" stroke-width="0.1199" stroke-linecap="round" stroke-linejoin="round" fill="#494949"/>
        <path d="M 113.5598,5.7185 L 112.0414,5.7185 L 112.0414,5.9568 L 113.5598,5.9568 L 113.5598,5.7185 Z" stroke="#494949" stroke-width="0.1199" stroke-linecap="round" stroke-linejoin="round" fill="#494949"/>
        <path d="M 118.9728,4.6673 L 115.0080,4.6673 L 115.0080,5.9568 L 118.9728,5.9568 L 118.9728,4.6673 Z" stroke="#7F7F7F" stroke-width="0.1199" stroke-linecap="round" stroke-linejoin="round" fill="#7F7F7F"/>
        <path d="M 118.9728,4.8495 L 115.0080,4.8495 L 115.0080,5.7886 L 118.9728,5.7886 L 118.9728,4.8495 Z" stroke="#BFBFBF" stroke-width="0.1199" stroke-linecap="round" stroke-linejoin="round" fill="#BFBFBF"/>
        <path d="M 118.9728,4.6673 L 115.0080,4.6673 L 115.0080,5.9568 L 118.9728,5.9568 L 118.9728,4.6673 Z" stroke="#494949" stroke-width="0.1199" stroke-linecap="round" stroke-linejoin="round" fill="none"/>
        <path d="M 115.1345,4.9757 L 115.5282,5.6484 L 115.9078,4.9757 L 115.1345,4.9757 Z" stroke="#000000" stroke-width="0.1199" stroke-linecap="round" stroke-linejoin="round" fill="#00FF00"/>
        <path d="M 118.0730,5.6484 L 118.4667,4.9757 L 118.8463,5.6484 L 118.0730,5.6484 Z" stroke="#000000" stroke-width="0.1199" stroke-linecap="round" stroke-linejoin="round" fill="#00FF00"/>
        <path d="M 117.7496,4.6673 L 116.2312,4.6673 L 116.2312,4.9056 L 117.7496,4.9056 L 117.7496,4.6673 Z" stroke="#494949" stroke-width="0.1199" stroke-linecap="round" stroke-linejoin="round" fill="#494949"/>
        <path d="M 117.7496,5.7185 L 116.2312,5.7185 L 116.2312,5.9568 L 117.7496,5.9568 L 117.7496,5.7185 Z" stroke="#494949" stroke-width="0.1199" stroke-linecap="round" stroke-linejoin="round" fill="#494949"/>
        <path d="M 123.1626,4.6673 L 119.1978,4.6673 L 119.1978,5.9568 L 123.1626,5.9568 L 123.1626,4.6673 Z" stroke="#7F7F7F" stroke-width="0.1199" stroke-linecap="round" stroke-linejoin="round" fill="#7F7F7F"/>
        <path d="M 123.1626,4.8495 L 119.1978,4.8495 L 119.1978,5.7886 L 123.1626,5.7886 L 123.1626,4.8495 Z" stroke="#BFBFBF" stroke-width="0.1199" stroke-linecap="round" stroke-linejoin="round" fill="#BFBFBF"/>
        <path d="M 123.1626,4.6673 L 119.1978,4.6673 L 119.1978,5.9568 L 123.1626,5.9568 L 123.1626,4.6673 Z" stroke="#494949" stroke-width="0.1199" stroke-linecap="round" stroke-linejoin="round" fill="none"/>
        <path d="M 119.3243,4.9757 L 119.7180,5.6484 L 120.0976,4.9757 L 119.3243,4.9757 Z" stroke="#000000" stroke-width="0.1199" stroke-linecap="round" stroke-linejoin="round" fill="#00FF00"/>
        <path d="M 122.2628,5.6484 L 122.6564,4.9757 L 123.0361,5.6484 L 122.2628,5.6484 Z" stroke="#000000" stroke-width="0.1199" stroke-linecap="round" stroke-linejoin="round" fill="#00FF00"/>
        <path d="M 121.9394,4.6673 L 120.4210,4.6673 L 120.4210,4.9056 L 121.9394,4.9056 L 121.9394,4.6673 Z" stroke="#494949" stroke-width="0.1199" stroke-linecap="round" stroke-linejoin="round" fill="#494949"/>
        <path d="M 121.9394,5.7185 L 120.4210,5.7185 L 120.4210,5.9568 L 121.9394,5.9568 L 121.9394,5.7185 Z" stroke="#494949" stroke-width="0.1199" stroke-linecap="round" stroke-linejoin="round" fill="#494949"/>
        <path d="M 127.2399,4.6673 L 123.2751,4.6673 L 123.2751,5.9568 L 127.2399,5.9568 L 127.2399,4.6673 Z" stroke="#7F7F7F" stroke-width="0.1199" stroke-linecap="round" stroke-linejoin="round" fill="#7F7F7F"/>
        <path d="M 127.2399,4.8495 L 123.2751,4.8495 L 123.2751,5.7886 L 127.2399,5.7886 L 127.2399,4.8495 Z" stroke="#BFBFBF" stroke-width="0.1199" stroke-linecap="round" stroke-linejoin="round" fill="#BFBFBF"/>
        <path d="M 127.2399,4.6673 L 123.2751,4.6673 L 123.2751,5.9568 L 127.2399,5.9568 L 127.2399,4.6673 Z" stroke="#494949" stroke-width="0.1199" stroke-linecap="round" stroke-linejoin="round" fill="none"/>
        <path d="M 123.4016,4.9757 L 123.7953,5.6484 L 124.1749,4.9757 L 123.4016,4.9757 Z" stroke="#000000" stroke-width="0.1199" stroke-linecap="round" stroke-linejoin="round" fill="#00FF00"/>
        <path d="M 126.3401,5.6484 L 126.7337,4.9757 L 127.1134,5.6484 L 126.3401,5.6484 Z" stroke="#000000" stroke-width="0.1199" stroke-linecap="round" stroke-linejoin="round" fill="#00FF00"/>
        <path d="M 126.0167,4.6673 L 124.4983,4.6673 L 124.4983,4.9056 L 126.0167,4.9056 L 126.0167,4.6673 Z" stroke="#494949" stroke-width="0.1199" stroke-linecap="round" stroke-linejoin="round" fill="#494949"/>
        <path d="M 126.0167,5.7185 L 124.4983,5.7185 L 124.4983,5.9568 L 126.0167,5.9568 L 126.0167,5.7185 Z" stroke="#494949" stroke-width="0.1199" stroke-linecap="round" stroke-linejoin="round" fill="#494949"/>
        <path d="M 52.7097,10.5260 L 52.6956,10.4559 L 52.6815,10.3718 L 52.5972,10.2597 L 52.4847,10.1756 L 52.4003,10.1616 L 52.3300,10.1476 L 50.6429,10.1476 L 50.5726,10.1616 L 50.4882,10.1756 L 50.3758,10.2597 L 50.2914,10.3718 L 50.2773,10.4559 L 50.2633,10.5260 L 50.2633,10.5400 L 50.2773,10.6101 L 50.2914,10.6942 L 50.3758,10.8063 L 50.4882,10.8904 L 50.5726,10.9044 L 50.6429,10.9185 L 52.3300,10.9185 L 52.4003,10.9044 L 52.4847,10.8904 L 52.5972,10.8063 L 52.6815,10.6942 L 52.6956,10.6101 L 52.7097,10.5400 L 52.7097,10.5260 Z" stroke="#2B88C6" stroke-width="0.1199" stroke-linecap="round" stroke-linejoin="round" fill="#2B88C6"/>
        <path d="M 58.1226,10.5260 L 58.1086,10.4559 L 58.0945,10.3718 L 58.0101,10.2597 L 57.8977,10.1756 L 57.8133,10.1616 L 57.7430,10.1476 L 56.0559,10.1476 L 55.9856,10.1616 L 55.9012,10.1756 L 55.7887,10.2597 L 55.7044,10.3718 L 55.6903,10.4559 L 55.6762,10.5260 L 55.6762,10.5400 L 55.6903,10.6101 L 55.7044,10.6942 L 55.7887,10.8063 L 55.9012,10.8904 L 55.9856,10.9044 L 56.0559,10.9185 L 57.7430,10.9185 L 57.8133,10.9044 L 57.8977,10.8904 L 58.0101,10.8063 L 58.0945,10.6942 L 58.1086,10.6101 L 58.1226,10.5400 L 58.1226,10.5260 Z" stroke="#2B88C6" stroke-width="0.1199" stroke-linecap="round" stroke-linejoin="round" fill="#2B88C6"/>
        <path d="M 77.6515,5.3121 L 77.6515,5.2560 L 77.6234,5.1999 L 77.6093,5.1439 L 77.5249,5.0598 L 77.4687,5.0458 L 77.4125,5.0177 L 61.3845,5.0177 L 61.3282,5.0458 L 61.2720,5.0598 L 61.1876,5.1439 L 61.1736,5.1999 L 61.1454,5.2560 L 61.1454,5.3821 L 61.1736,5.4382 L 61.1876,5.4943 L 61.2720,5.5784 L 61.3282,5.5924 L 61.3845,5.6204 L 77.4125,5.6204 L 77.4687,5.5924 L 77.5249,5.5784 L 77.6093,5.4943 L 77.6234,5.4382 L 77.6515,5.3821 L 77.6515,5.3261 L 77.6515,5.3121 Z" stroke="#000000" stroke-width="0.1199" stroke-linecap="round" stroke-linejoin="round" fill="#7F7F7F"/>
        <path d="M 104.4633,5.3121 L 104.4633,5.2560 L 104.4351,5.1999 L 104.4211,5.1439 L 104.3367,5.0598 L 104.2805,5.0458 L 104.2242,5.0177 L 79.9432,5.0177 L 79.8870,5.0458 L 79.8307,5.0598 L 79.7464,5.1439 L 79.7323,5.1999 L 79.7042,5.2560 L 79.7042,5.3821 L 79.7323,5.4382 L 79.7464,5.4943 L 79.8307,5.5784 L 79.8870,5.5924 L 79.9432,5.6204 L 104.2242,5.6204 L 104.2805,5.5924 L 104.3367,5.5784 L 104.4211,5.4943 L 104.4351,5.4382 L 104.4633,5.3821 L 104.4633,5.3261 L 104.4633,5.3121 Z" stroke="#000000" stroke-width="0.1199" stroke-linecap="round" stroke-linejoin="round" fill="#7F7F7F"/>
        <text font-family="Arial" fill="#000000" style="white-space:pre;" font-weight="400" text-anchor="start" x="3.3743" y="1.2441" font-size="0.3234"><![CDATA[FortiGate 800D]]></text>
        <path d="M 13.0124,2.9651 L 12.9939,2.9651 L 12.9846,2.9565 L 12.9754,2.9565 L 12.9477,2.9305 L 12.9477,2.9219 L 12.9384,2.9132 L 12.9384,1.9105 L 12.9477,1.9018 L 12.9477,1.8932 L 12.9569,1.8845 L 12.9662,1.8845 L 12.9662,1.8759 L 12.9754,1.8672 L 12.9846,1.8672 L 12.9939,1.8586 L 14.2517,1.8586 L 14.2609,1.8672 L 14.2702,1.8672 L 14.2979,1.8932 L 14.2979,1.9018 L 14.3072,1.9105 L 14.3072,2.1093 L 14.2979,2.1093 L 14.2979,2.1007 L 14.2887,2.1007 L 14.2887,2.0920 L 14.2794,2.0920 L 14.2794,2.0834 L 14.2609,2.0834 L 14.2609,2.0747 L 13.2436,2.0747 L 13.2436,2.0834 L 13.2251,2.0834 L 13.2251,2.0920 L 13.2159,2.0920 L 13.2159,2.1093 L 13.2066,2.1093 L 13.2066,2.9305 L 13.2159,2.9305 L 13.2159,2.9478 L 13.2251,2.9478 L 13.2251,2.9565 L 13.2344,2.9565 L 13.2344,2.9651 L 13.0216,2.9651 L 13.0124,2.9651 Z" stroke="#161616" stroke-width="0.1199" stroke-linecap="round" stroke-linejoin="round" fill="#161616"/>
        <path d="M 14.2147,2.3254 L 13.2991,2.3254 L 13.2991,2.3168 L 13.2806,2.3168 L 13.2806,2.3081 L 13.2713,2.3081 L 13.2713,2.2908 L 13.2621,2.2908 L 13.2621,2.5069 L 13.2713,2.5069 L 13.2713,2.5242 L 13.2806,2.5242 L 13.2806,2.5329 L 13.2991,2.5329 L 13.2991,2.5415 L 14.2332,2.5415 L 14.2517,2.5242 L 14.2609,2.5242 L 14.2794,2.5069 L 14.2794,2.4983 L 14.2887,2.4897 L 14.2887,2.4810 L 14.2979,2.4724 L 14.2979,2.4551 L 14.3072,2.4464 L 14.3072,2.4205 L 14.2979,2.4119 L 14.2979,2.3859 L 14.2794,2.3686 L 14.2794,2.3600 L 14.2702,2.3513 L 14.2609,2.3513 L 14.2609,2.3427 L 14.2517,2.3427 L 14.2424,2.3341 L 14.2332,2.3341 L 14.2239,2.3254 L 14.2147,2.3254 Z" stroke="#161616" stroke-width="0.1199" stroke-linecap="round" stroke-linejoin="round" fill="#161616"/>
        <path d="M 16.3510,2.5415 L 16.3325,2.5415 L 16.3325,2.5329 L 16.3140,2.5329 L 16.3140,2.5242 L 16.3048,2.5242 L 16.3048,2.5069 L 16.2955,2.5069 L 16.2955,2.2908 L 16.3048,2.2908 L 16.3048,2.3081 L 16.3140,2.3081 L 16.3140,2.3168 L 16.3325,2.3168 L 16.3325,2.3254 L 17.0724,2.3254 L 17.0724,2.0747 L 16.2771,2.0747 L 16.2771,2.0834 L 16.2586,2.0834 L 16.2586,2.0920 L 16.2493,2.0920 L 16.2493,2.1093 L 16.2401,2.1093 L 16.2401,2.9305 L 16.2493,2.9305 L 16.2493,2.9478 L 16.2586,2.9478 L 16.2586,2.9565 L 16.2678,2.9565 L 16.2678,2.9651 L 16.0273,2.9651 L 16.0181,2.9565 L 16.0088,2.9565 L 15.9811,2.9305 L 15.9811,2.9219 L 15.9719,2.9132 L 15.9719,1.9105 L 15.9811,1.9018 L 15.9811,1.8932 L 15.9904,1.8845 L 15.9996,1.8845 L 15.9996,1.8759 L 16.0088,1.8672 L 16.0181,1.8672 L 16.0273,1.8586 L 17.2851,1.8586 L 17.2944,1.8672 L 17.3036,1.8672 L 17.3314,1.8932 L 17.3314,1.9018 L 17.3406,1.9105 L 17.3406,2.4551 L 17.3314,2.4637 L 17.3314,2.4810 L 17.3221,2.4810 L 17.3221,2.4897 L 17.3129,2.4983 L 17.3129,2.5069 L 17.3036,2.5069 L 17.3036,2.5156 L 17.2944,2.5156 L 17.2944,2.5242 L 17.2851,2.5242 L 17.2851,2.5329 L 17.2759,2.5329 L 17.2666,2.5415 L 17.2759,2.5502 L 17.2851,2.5502 L 17.2851,2.5588 L 17.2944,2.5588 L 17.2944,2.5675 L 17.3036,2.5675 L 17.3036,2.5761 L 17.3129,2.5761 L 17.3129,2.5848 L 17.3221,2.5934 L 17.3221,2.6020 L 17.3314,2.6020 L 17.3314,2.6193 L 17.3406,2.6280 L 17.3406,2.9305 L 17.3499,2.9305 L 17.3499,2.9478 L 17.3591,2.9478 L 17.3591,2.9565 L 17.3684,2.9565 L 17.3684,2.9651 L 17.1279,2.9651 L 17.1186,2.9565 L 17.1094,2.9565 L 17.0817,2.9305 L 17.0817,2.9219 L 17.0724,2.9132 L 17.0724,2.5415 L 16.3603,2.5415 L 16.3510,2.5415 Z" stroke="#161616" stroke-width="0.1199" stroke-linecap="round" stroke-linejoin="round" fill="#161616"/>
        <path d="M 17.8215,2.0747 L 17.5441,2.0747 L 17.5348,2.0661 L 17.5256,2.0661 L 17.4978,2.0401 L 17.4978,2.0315 L 17.4886,2.0228 L 17.4886,1.9105 L 17.4978,1.9018 L 17.4978,1.8932 L 17.5071,1.8845 L 17.5163,1.8845 L 17.5163,1.8759 L 17.5256,1.8672 L 17.5348,1.8672 L 17.5441,1.8586 L 18.8018,1.8586 L 18.8111,1.8672 L 18.8203,1.8672 L 18.8481,1.8932 L 18.8481,1.9018 L 18.8573,1.9105 L 18.8573,2.1093 L 18.8481,2.1093 L 18.8481,2.1007 L 18.8388,2.1007 L 18.8388,2.0920 L 18.8296,2.0920 L 18.8296,2.0834 L 18.8111,2.0834 L 18.8111,2.0747 L 18.1267,2.0747 L 18.1267,2.0834 L 18.1082,2.0834 L 18.1082,2.0920 L 18.0990,2.0920 L 18.0990,2.1093 L 18.0897,2.1093 L 18.0897,2.9305 L 18.0990,2.9305 L 18.0990,2.9478 L 18.1082,2.9478 L 18.1082,2.9565 L 18.1175,2.9565 L 18.1175,2.9651 L 17.8770,2.9651 L 17.8678,2.9565 L 17.8585,2.9565 L 17.8308,2.9305 L 17.8308,2.9219 L 17.8215,2.9132 L 17.8215,2.1007 L 17.8215,2.0747 Z" stroke="#161616" stroke-width="0.1199" stroke-linecap="round" stroke-linejoin="round" fill="#161616"/>
        <path d="M 19.2735,2.9046 L 19.2735,2.9305 L 19.2828,2.9305 L 19.2828,2.9478 L 19.2920,2.9478 L 19.2920,2.9565 L 19.3013,2.9565 L 19.3013,2.9651 L 19.0608,2.9651 L 19.0515,2.9565 L 19.0423,2.9565 L 19.0146,2.9305 L 19.0146,2.9219 L 19.0053,2.9132 L 19.0053,1.8932 L 18.9961,1.8932 L 18.9961,1.8759 L 18.9868,1.8759 L 18.9868,1.8672 L 18.9776,1.8672 L 18.9776,1.8586 L 19.2180,1.8586 L 19.2273,1.8672 L 19.2365,1.8672 L 19.2643,1.8932 L 19.2643,1.9018 L 19.2735,1.9105 L 19.2735,2.8960 L 19.2735,2.9046 Z" stroke="#161616" stroke-width="0.1199" stroke-linecap="round" stroke-linejoin="round" fill="#161616"/>
        <path d="M 20.5868,2.0747 L 19.7914,2.0747 L 19.7914,2.0834 L 19.7729,2.0834 L 19.7729,2.0920 L 19.7637,2.0920 L 19.7637,2.1093 L 19.7544,2.1093 L 19.7544,2.9305 L 19.7637,2.9305 L 19.7637,2.9478 L 19.7729,2.9478 L 19.7729,2.9565 L 19.7822,2.9565 L 19.7822,2.9651 L 19.5417,2.9651 L 19.5325,2.9565 L 19.5232,2.9565 L 19.4955,2.9305 L 19.4955,2.9219 L 19.4862,2.9132 L 19.4862,1.9105 L 19.4955,1.9018 L 19.4955,1.8932 L 19.5047,1.8845 L 19.5140,1.8845 L 19.5140,1.8759 L 19.5232,1.8672 L 19.5325,1.8672 L 19.5417,1.8586 L 20.7995,1.8586 L 20.8087,1.8672 L 20.8180,1.8672 L 20.8457,1.8932 L 20.8457,1.9018 L 20.8550,1.9105 L 20.8550,2.9305 L 20.8642,2.9305 L 20.8642,2.9478 L 20.8735,2.9478 L 20.8735,2.9565 L 20.8827,2.9565 L 20.8827,2.9651 L 20.6423,2.9651 L 20.6330,2.9565 L 20.6238,2.9565 L 20.5960,2.9305 L 20.5960,2.9219 L 20.5868,2.9132 L 20.5868,2.1007 L 20.5868,2.0747 Z" stroke="#161616" stroke-width="0.1199" stroke-linecap="round" stroke-linejoin="round" fill="#161616"/>
        <path d="M 22.2145,2.3254 L 21.3636,2.3254 L 21.3544,2.3168 L 21.3451,2.3168 L 21.3451,2.3081 L 21.3359,2.3081 L 21.3359,2.2908 L 21.3266,2.2908 L 21.3266,2.5069 L 21.3359,2.5069 L 21.3359,2.5242 L 21.3451,2.5242 L 21.3451,2.5329 L 21.3544,2.5329 L 21.3636,2.5415 L 22.2237,2.5415 L 22.2422,2.5242 L 22.2515,2.5242 L 22.2700,2.5069 L 22.2700,2.4983 L 22.2792,2.4897 L 22.2792,2.4810 L 22.2885,2.4724 L 22.2885,2.4551 L 22.2977,2.4464 L 22.2977,2.4119 L 22.2885,2.4032 L 22.2885,2.3773 L 22.2792,2.3773 L 22.2792,2.3686 L 22.2515,2.3427 L 22.2422,2.3427 L 22.2422,2.3341 L 22.2330,2.3341 L 22.2237,2.3254 L 22.2145,2.3254 Z" stroke="#161616" stroke-width="0.1199" stroke-linecap="round" stroke-linejoin="round" fill="#161616"/>
        <path d="M 22.8526,2.0747 L 22.5752,2.0747 L 22.5659,2.0661 L 22.5567,2.0661 L 22.5289,2.0401 L 22.5289,2.0315 L 22.5197,2.0228 L 22.5197,1.9105 L 22.5289,1.9018 L 22.5289,1.8932 L 22.5382,1.8845 L 22.5474,1.8845 L 22.5474,1.8759 L 22.5567,1.8672 L 22.5659,1.8672 L 22.5752,1.8586 L 23.8329,1.8586 L 23.8422,1.8672 L 23.8514,1.8672 L 23.8792,1.8932 L 23.8792,1.9018 L 23.8884,1.9105 L 23.8884,2.1093 L 23.8792,2.1093 L 23.8792,2.1007 L 23.8699,2.1007 L 23.8699,2.0920 L 23.8607,2.0920 L 23.8607,2.0834 L 23.8422,2.0834 L 23.8422,2.0747 L 23.1578,2.0747 L 23.1578,2.0834 L 23.1393,2.0834 L 23.1393,2.0920 L 23.1301,2.0920 L 23.1301,2.1093 L 23.1208,2.1093 L 23.1208,2.9305 L 23.1301,2.9305 L 23.1301,2.9478 L 23.1393,2.9478 L 23.1393,2.9565 L 23.1486,2.9565 L 23.1486,2.9651 L 22.9081,2.9651 L 22.8989,2.9565 L 22.8896,2.9565 L 22.8619,2.9305 L 22.8619,2.9219 L 22.8526,2.9132 L 22.8526,2.1007 L 22.8526,2.0747 Z" stroke="#161616" stroke-width="0.1199" stroke-linecap="round" stroke-linejoin="round" fill="#161616"/>
        <path d="M 22.3070,2.7490 L 22.3255,2.7490 L 22.3255,2.7404 L 22.3440,2.7404 L 22.3440,2.7317 L 22.3532,2.7317 L 22.3532,2.7231 L 22.3624,2.7231 L 22.3624,2.7144 L 22.3717,2.7144 L 22.3717,2.9132 L 22.3624,2.9219 L 22.3624,2.9305 L 22.3532,2.9392 L 22.3532,2.9478 L 22.3440,2.9478 L 22.3347,2.9565 L 22.3255,2.9565 L 22.3162,2.9651 L 21.0584,2.9651 L 21.0492,2.9565 L 21.0399,2.9565 L 21.0122,2.9305 L 21.0122,2.9219 L 21.0029,2.9132 L 21.0029,1.9105 L 21.0122,1.9018 L 21.0122,1.8932 L 21.0214,1.8845 L 21.0307,1.8845 L 21.0307,1.8759 L 21.0399,1.8672 L 21.0492,1.8672 L 21.0584,1.8586 L 22.3162,1.8586 L 22.3255,1.8672 L 22.3347,1.8672 L 22.3624,1.8932 L 22.3624,1.9018 L 22.3717,1.9105 L 22.3717,2.1093 L 22.3624,2.1093 L 22.3624,2.1007 L 22.3532,2.1007 L 22.3532,2.0920 L 22.3440,2.0920 L 22.3440,2.0834 L 22.3255,2.0834 L 22.3255,2.0747 L 21.3081,2.0747 L 21.3081,2.0834 L 21.2896,2.0834 L 21.2896,2.0920 L 21.2804,2.0920 L 21.2804,2.1093 L 21.2711,2.1093 L 21.2711,2.7490 L 22.2977,2.7490 L 22.3070,2.7490 Z" stroke="#161616" stroke-width="0.1199" stroke-linecap="round" stroke-linejoin="round" fill="#161616"/>
        <path d="M 14.9175,2.6453 L 14.9175,2.9651 L 15.3615,2.9651 L 15.3615,2.6453 L 14.9175,2.6453 Z" stroke="#ED3440" stroke-width="0.1199" stroke-linecap="round" stroke-linejoin="round" fill="#ED3440"/>
        <path d="M 14.4551,2.2563 L 14.8343,2.2563 L 14.8343,2.5675 L 14.4551,2.5675 L 14.4551,2.2563 Z" stroke="#ED3440" stroke-width="0.1199" stroke-linecap="round" stroke-linejoin="round" fill="#ED3440"/>
        <path d="M 15.4447,2.6453 L 15.4447,2.9651 L 15.5834,2.9651 L 15.5927,2.9565 L 15.6297,2.9565 L 15.6389,2.9478 L 15.6574,2.9478 L 15.6759,2.9392 L 15.6852,2.9305 L 15.7037,2.9219 L 15.7222,2.9046 L 15.7406,2.8960 L 15.7499,2.8873 L 15.7591,2.8700 L 15.7684,2.8614 L 15.8054,2.7922 L 15.8054,2.7749 L 15.8146,2.7490 L 15.8146,2.7231 L 15.8239,2.6971 L 15.8239,2.6453 L 15.4539,2.6453 L 15.4447,2.6453 Z" stroke="#ED3440" stroke-width="0.1199" stroke-linecap="round" stroke-linejoin="round" fill="#ED3440"/>
        <path d="M 15.4447,2.2563 L 15.8239,2.2563 L 15.8239,2.5675 L 15.4447,2.5675 L 15.4447,2.2563 Z" stroke="#ED3440" stroke-width="0.1199" stroke-linecap="round" stroke-linejoin="round" fill="#ED3440"/>
        <path d="M 14.8343,2.6453 L 14.8343,2.9651 L 14.6956,2.9651 L 14.6863,2.9565 L 14.6493,2.9565 L 14.6401,2.9478 L 14.6216,2.9478 L 14.6031,2.9392 L 14.5939,2.9305 L 14.5754,2.9219 L 14.5569,2.9046 L 14.5384,2.8960 L 14.5291,2.8873 L 14.5199,2.8700 L 14.5106,2.8614 L 14.4736,2.7922 L 14.4736,2.7749 L 14.4644,2.7490 L 14.4644,2.7231 L 14.4551,2.6971 L 14.4551,2.6453 L 14.8251,2.6453 L 14.8343,2.6453 Z" stroke="#ED3440" stroke-width="0.1199" stroke-linecap="round" stroke-linejoin="round" fill="#ED3440"/>
        <path d="M 14.9175,1.8586 L 14.9175,2.1785 L 15.3615,2.1785 L 15.3615,1.8586 L 14.9175,1.8586 Z" stroke="#ED3440" stroke-width="0.1199" stroke-linecap="round" stroke-linejoin="round" fill="#ED3440"/>
        <path d="M 15.4447,2.1785 L 15.4447,1.8586 L 15.5834,1.8586 L 15.5927,1.8672 L 15.6297,1.8672 L 15.6389,1.8759 L 15.6574,1.8759 L 15.6759,1.8845 L 15.6852,1.8932 L 15.7037,1.9018 L 15.7222,1.9191 L 15.7406,1.9278 L 15.7499,1.9364 L 15.7591,1.9537 L 15.7684,1.9623 L 15.8054,2.0315 L 15.8054,2.0488 L 15.8146,2.0747 L 15.8146,2.1007 L 15.8239,2.1266 L 15.8239,2.1785 L 15.4539,2.1785 L 15.4447,2.1785 Z" stroke="#ED3440" stroke-width="0.1199" stroke-linecap="round" stroke-linejoin="round" fill="#ED3440"/>
        <path d="M 14.8343,2.1785 L 14.8343,1.8586 L 14.6956,1.8586 L 14.6863,1.8672 L 14.6493,1.8672 L 14.6401,1.8759 L 14.6216,1.8759 L 14.6031,1.8845 L 14.5939,1.8932 L 14.5754,1.9018 L 14.5569,1.9191 L 14.5384,1.9278 L 14.5291,1.9364 L 14.5199,1.9537 L 14.5106,1.9623 L 14.4736,2.0315 L 14.4736,2.0488 L 14.4644,2.0747 L 14.4644,2.1007 L 14.4551,2.1266 L 14.4551,2.1785 L 14.8251,2.1785 L 14.8343,2.1785 Z" stroke="#ED3440" stroke-width="0.1199" stroke-linecap="round" stroke-linejoin="round" fill="#ED3440"/>
        <text font-family="Symbol" fill="#000000" style="white-space:pre;" text-anchor="start" x="23.5168" y="3.0412" font-size="0.5509"><![CDATA[]]></text>
        <ellipse cx="20.2332" cy="7.2879" rx="0.2644" ry="0.2641" fill="#000000" stroke="#000000" stroke-width="0.1199" stroke-linecap="round" stroke-linejoin="round"/>
        <ellipse cx="20.2332" cy="7.2879" rx="0.2644" ry="0.2641" fill="none" stroke="#0A0A0A" stroke-width="0.1199" stroke-linecap="round" stroke-linejoin="round"/>
        <text font-family="Arial" fill="#000000" style="white-space:pre;" font-weight="400" text-anchor="start" x="28.8113" y="9.1063" font-size="0.0788"><![CDATA[MGMT 1 / MGMT 2]]></text>
        <path d="M 38.6194,3.7057 L 37.9229,3.7057 L 37.9229,4.4016 L 38.6194,4.4016 L 38.6194,3.7057 Z" stroke="#000000" stroke-width="0.1199" stroke-linecap="round" stroke-linejoin="round" fill="#00FF00"/>
        <path d="M 38.6194,5.1150 L 37.9229,5.1150 L 37.9229,5.8109 L 38.6194,5.8109 L 38.6194,5.1150 Z" stroke="#000000" stroke-width="0.1199" stroke-linecap="round" stroke-linejoin="round" fill="#00FF00"/>
        <path d="M 38.6194,6.5242 L 37.9229,6.5242 L 37.9229,7.2201 L 38.6194,7.2201 L 38.6194,6.5242 Z" stroke="#000000" stroke-width="0.1199" stroke-linecap="round" stroke-linejoin="round" fill="#00FF00"/>
        <path d="M 38.6194,7.9334 L 37.9229,7.9334 L 37.9229,8.6293 L 38.6194,8.6293 L 38.6194,7.9334 Z" stroke="#000000" stroke-width="0.1199" stroke-linecap="round" stroke-linejoin="round" fill="#00FF00"/>
        <text font-family="Arial" fill="#000000" style="white-space:pre;" font-weight="400" text-anchor="start" x="50.2330" y="9.4141" font-size="0.1567"><![CDATA[STATUS]]></text>
        <text font-family="Arial" fill="#000000" style="white-space:pre;" font-weight="400" text-anchor="start" x="50.2330" y="10.7189" font-size="0.1567"><![CDATA[POWER]]></text>
        <text font-family="Arial" fill="#000000" style="white-space:pre;" font-weight="400" text-anchor="start" x="50.2330" y="9.8490" font-size="0.1567"><![CDATA[ALARM]]></text>
        <text font-family="Arial" fill="#000000" style="white-space:pre;" font-weight="400" text-anchor="start" x="50.2330" y="10.2840" font-size="0.1567"><![CDATA[HA]]></text>
        <text font-family="Arial" fill="#000000" style="white-space:pre;" font-weight="400" text-anchor="start" x="53.7502" y="11.1573" font-size="0.1219"><![CDATA[WAN 1 / 1]]></text>
        <text font-family="Arial" fill="#000000" style="white-space:pre;" font-weight="400" text-anchor="start" x="55.4217" y="11.1573" font-size="0.1219"><![CDATA[WAN 2 / 2]]></text>
        <text font-family="Arial" fill="#000000" style="white-space:pre;" font-weight="400" text-anchor="start" x="48.4918" y="11.1365" font-size="0.1567"><![CDATA[CONSOLE]]></text>
        <text font-family="Arial" fill="#000000" style="white-space:pre;" font-weight="400" text-anchor="start" x="46.8900" y="11.1365" font-size="0.1567"><![CDATA[USB]]></text>
        <text font-family="Arial" fill="#000000" style="white-space:pre;" font-weight="400" text-anchor="start" x="57.5286" y="11.1573" font-size="0.1219"><![CDATA[3 / 4]]></text>
        <text font-family="Arial" fill="#000000" style="white-space:pre;" font-weight="400" text-anchor="start" x="58.8170" y="11.1573" font-size="0.1219"><![CDATA[5 / 6]]></text>
        <text font-family="Arial" fill="#000000" style="white-space:pre;" font-weight="400" text-anchor="start" x="60.1229" y="11.1573" font-size="0.1219"><![CDATA[7 / 8]]></text>
        <text font-family="Arial" fill="#000000" style="white-space:pre;" font-weight="400" text-anchor="start" x="61.3766" y="11.1573" font-size="0.1219"><![CDATA[9 / 10]]></text>
        <path d="M 43.2781,9.5534 L 42.9730,9.8844 L 43.5833,9.8844 L 43.2781,9.5534 Z" stroke="#7F7F7F" stroke-width="0.1199" stroke-linecap="round" stroke-linejoin="round" fill="#7F7F7F"/>
        <path d="M 47.3847,9.8844 L 47.0796,9.5534 L 47.6899,9.5534 L 47.3847,9.8844 Z" stroke="#7F7F7F" stroke-width="0.1199" stroke-linecap="round" stroke-linejoin="round" fill="#7F7F7F"/>
        <path d="M 50.5357,1.6330 L 49.7211,1.6330 L 49.7211,1.9959 L 50.5357,1.9959 L 50.5357,1.6330 Z" stroke="#000000" stroke-width="0.1199" stroke-linecap="round" stroke-linejoin="round" fill="#83FF00"/>
        <path d="M 53.2996,1.6330 L 52.4850,1.6330 L 52.4850,1.9959 L 53.2996,1.9959 L 53.2996,1.6330 Z" stroke="#000000" stroke-width="0.1199" stroke-linecap="round" stroke-linejoin="round" fill="#83FF00"/>
        <path d="M 50.5357,8.5430 L 49.7211,8.5430 L 49.7211,8.9058 L 50.5357,8.9058 L 50.5357,8.5430 Z" stroke="#000000" stroke-width="0.1199" stroke-linecap="round" stroke-linejoin="round" fill="#83FF00"/>
        <path d="M 53.2996,8.5430 L 52.4850,8.5430 L 52.4850,8.9058 L 53.2996,8.9058 L 53.2996,8.5430 Z" stroke="#000000" stroke-width="0.1199" stroke-linecap="round" stroke-linejoin="round" fill="#83FF00"/>
        <path d="M 44.4115,1.6330 L 43.5969,1.6330 L 43.5969,1.9959 L 44.4115,1.9959 L 44.4115,1.6330 Z" stroke="#000000" stroke-width="0.1199" stroke-linecap="round" stroke-linejoin="round" fill="#83FF00"/>
        <path d="M 47.1609,1.6330 L 46.3462,1.6330 L 46.3462,1.9959 L 47.1609,1.9959 L 47.1609,1.6330 Z" stroke="#000000" stroke-width="0.1199" stroke-linecap="round" stroke-linejoin="round" fill="#83FF00"/>
        <path d="M 44.4115,8.5430 L 43.5969,8.5430 L 43.5969,8.9058 L 44.4115,8.9058 L 44.4115,8.5430 Z" stroke="#000000" stroke-width="0.1199" stroke-linecap="round" stroke-linejoin="round" fill="#83FF00"/>
        <path d="M 47.1609,8.5430 L 46.3462,8.5430 L 46.3462,8.9058 L 47.1609,8.9058 L 47.1609,8.5430 Z" stroke="#000000" stroke-width="0.1199" stroke-linecap="round" stroke-linejoin="round" fill="#83FF00"/>
        <text font-family="Arial" fill="#000000" style="white-space:pre;" font-weight="400" text-anchor="start" x="59.5693" y="11.5679" font-size="0.1018"><![CDATA[FAIL OPEN]]></text>
        <text font-family="Arial" fill="#000000" style="white-space:pre;" font-weight="400" text-anchor="start" x="60.9658" y="11.5679" font-size="0.1018"><![CDATA[FAIL OPEN]]></text>
        <path d="M 55.9326,1.6330 L 55.1180,1.6330 L 55.1180,1.9959 L 55.9326,1.9959 L 55.9326,1.6330 Z" stroke="#000000" stroke-width="0.1199" stroke-linecap="round" stroke-linejoin="round" fill="#83FF00"/>
        <path d="M 58.6965,1.6330 L 57.8819,1.6330 L 57.8819,1.9959 L 58.6965,1.9959 L 58.6965,1.6330 Z" stroke="#000000" stroke-width="0.1199" stroke-linecap="round" stroke-linejoin="round" fill="#83FF00"/>
        <path d="M 55.9326,8.5430 L 55.1180,8.5430 L 55.1180,8.9058 L 55.9326,8.9058 L 55.9326,8.5430 Z" stroke="#000000" stroke-width="0.1199" stroke-linecap="round" stroke-linejoin="round" fill="#83FF00"/>
        <path d="M 58.6965,8.5430 L 57.8819,8.5430 L 57.8819,8.9058 L 58.6965,8.9058 L 58.6965,8.5430 Z" stroke="#000000" stroke-width="0.1199" stroke-linecap="round" stroke-linejoin="round" fill="#83FF00"/>
        <path d="M 30.0784,10.0344 L 30.0784,10.0155 L 30.0528,9.9854 L 30.0336,9.9703 L 30.0080,9.9591 L 29.9568,9.9440 L 28.0753,9.9440 L 28.0241,9.9591 L 27.9985,9.9703 L 27.9793,9.9854 L 27.9537,10.0155 L 27.9537,10.5954 L 27.9793,10.6255 L 27.9985,10.6406 L 28.0241,10.6519 L 28.0753,10.6669 L 29.9568,10.6669 L 30.0080,10.6519 L 30.0336,10.6406 L 30.0528,10.6255 L 30.0784,10.5954 L 30.0784,10.5766 L 30.0784,10.0344 Z" stroke="#000000" stroke-width="0.1199" stroke-linecap="round" stroke-linejoin="round" fill="#DDDDDD"/>
        <path d="M 29.6258,10.0020 L 28.5228,10.0020 L 28.5228,10.5995 L 29.6258,10.5995 L 29.6258,10.0020 Z" stroke="#000000" stroke-width="0.1199" stroke-linecap="round" stroke-linejoin="round" fill="#494949"/>
        <path d="M 29.5227,10.0019 L 28.9688,10.0019 L 28.9688,10.5551 L 29.5227,10.5551 L 29.5227,10.0019 Z" stroke="#000000" stroke-width="0.1199" stroke-linecap="round" stroke-linejoin="round" fill="#BFBFBF"/>
        <path d="M 35.8189,10.0344 L 35.8189,10.0155 L 35.7933,9.9854 L 35.7741,9.9703 L 35.7485,9.9591 L 35.6973,9.9440 L 33.8158,9.9440 L 33.7646,9.9591 L 33.7390,9.9703 L 33.7198,9.9854 L 33.6942,10.0155 L 33.6942,10.5954 L 33.7198,10.6255 L 33.7390,10.6406 L 33.7646,10.6519 L 33.8158,10.6669 L 35.6973,10.6669 L 35.7485,10.6519 L 35.7741,10.6406 L 35.7933,10.6255 L 35.8189,10.5954 L 35.8189,10.5766 L 35.8189,10.0344 Z" stroke="#000000" stroke-width="0.1199" stroke-linecap="round" stroke-linejoin="round" fill="#DDDDDD"/>
        <path d="M 35.3613,10.0020 L 34.2583,10.0020 L 34.2583,10.5995 L 35.3613,10.5995 L 35.3613,10.0020 Z" stroke="#000000" stroke-width="0.1199" stroke-linecap="round" stroke-linejoin="round" fill="#494949"/>
        <path d="M 35.2602,10.0019 L 34.7064,10.0019 L 34.7064,10.5551 L 35.2602,10.5551 L 35.2602,10.0019 Z" stroke="#000000" stroke-width="0.1199" stroke-linecap="round" stroke-linejoin="round" fill="#BFBFBF"/>
        <text font-family="Arial" fill="#000000" style="white-space:pre;" font-weight="400" text-anchor="start" x="40.9934" y="10.8028" font-size="0.0303"><![CDATA[11/12]]></text>
        <text font-family="Arial" fill="#000000" style="white-space:pre;" font-weight="400" text-anchor="start" x="41.3136" y="10.8028" font-size="0.0303"><![CDATA[13/14]]></text>
        <text font-family="Arial" fill="#000000" style="white-space:pre;" font-weight="400" text-anchor="start" x="41.6381" y="10.8028" font-size="0.0303"><![CDATA[15/16]]></text>
        <text font-family="Arial" fill="#000000" style="white-space:pre;" font-weight="400" text-anchor="start" x="41.9583" y="10.8028" font-size="0.0303"><![CDATA[17/18]]></text>
        <text font-family="Arial" fill="#000000" style="white-space:pre;" font-weight="400" text-anchor="start" x="42.2699" y="10.8028" font-size="0.0303"><![CDATA[19/20]]></text>
        <path d="M 82.8226,9.8844 L 82.5175,9.5534 L 83.1277,9.5534 L 82.8226,9.8844 Z" stroke="#7F7F7F" stroke-width="0.1199" stroke-linecap="round" stroke-linejoin="round" fill="#7F7F7F"/>
        <path d="M 80.5722,9.5534 L 80.2671,9.8844 L 80.8774,9.8844 L 80.5722,9.5534 Z" stroke="#7F7F7F" stroke-width="0.1199" stroke-linecap="round" stroke-linejoin="round" fill="#7F7F7F"/>
        <path d="M 86.9843,9.8844 L 86.6792,9.5534 L 87.2894,9.5534 L 86.9843,9.8844 Z" stroke="#7F7F7F" stroke-width="0.1199" stroke-linecap="round" stroke-linejoin="round" fill="#7F7F7F"/>
        <path d="M 84.7339,9.5534 L 84.4288,9.8844 L 85.0391,9.8844 L 84.7339,9.5534 Z" stroke="#7F7F7F" stroke-width="0.1199" stroke-linecap="round" stroke-linejoin="round" fill="#7F7F7F"/>
        <path d="M 88.9549,9.5534 L 88.6498,9.8844 L 89.2601,9.8844 L 88.9549,9.5534 Z" stroke="#7F7F7F" stroke-width="0.1199" stroke-linecap="round" stroke-linejoin="round" fill="#7F7F7F"/>
        <path d="M 91.2053,9.8844 L 90.9002,9.5534 L 91.5104,9.5534 L 91.2053,9.8844 Z" stroke="#7F7F7F" stroke-width="0.1199" stroke-linecap="round" stroke-linejoin="round" fill="#7F7F7F"/>
        <path d="M 93.1166,9.5534 L 92.8115,9.8844 L 93.4218,9.8844 L 93.1166,9.5534 Z" stroke="#7F7F7F" stroke-width="0.1199" stroke-linecap="round" stroke-linejoin="round" fill="#7F7F7F"/>
        <path d="M 95.3670,9.8844 L 95.0619,9.5534 L 95.6721,9.5534 L 95.3670,9.8844 Z" stroke="#7F7F7F" stroke-width="0.1199" stroke-linecap="round" stroke-linejoin="round" fill="#7F7F7F"/>
        <path d="M 97.1681,9.5534 L 96.8630,9.8844 L 97.4733,9.8844 L 97.1681,9.5534 Z" stroke="#7F7F7F" stroke-width="0.1199" stroke-linecap="round" stroke-linejoin="round" fill="#7F7F7F"/>
        <path d="M 99.4185,9.8844 L 99.1134,9.5534 L 99.7236,9.5534 L 99.4185,9.8844 Z" stroke="#7F7F7F" stroke-width="0.1199" stroke-linecap="round" stroke-linejoin="round" fill="#7F7F7F"/>
        <text font-family="Arial" fill="#000000" style="white-space:pre;" font-weight="400" text-anchor="start" x="107.3053" y="10.1287" font-size="0.0297"><![CDATA[23/24]]></text>
        <path d="M 107.5723,9.5534 L 107.2672,9.8844 L 107.8775,9.8844 L 107.5723,9.5534 Z" stroke="#7F7F7F" stroke-width="0.1199" stroke-linecap="round" stroke-linejoin="round" fill="#7F7F7F"/>
        <path d="M 109.7676,9.8844 L 109.4625,9.5534 L 110.0727,9.5534 L 109.7676,9.8844 Z" stroke="#7F7F7F" stroke-width="0.1199" stroke-linecap="round" stroke-linejoin="round" fill="#7F7F7F"/>
        <text font-family="Arial" fill="#000000" style="white-space:pre;" font-weight="400" text-anchor="start" x="117.9681" y="10.1287" font-size="0.0297"><![CDATA[25/26]]></text>
        <path d="M 111.7340,9.5534 L 111.4289,9.8844 L 112.0392,9.8844 L 111.7340,9.5534 Z" stroke="#7F7F7F" stroke-width="0.1199" stroke-linecap="round" stroke-linejoin="round" fill="#7F7F7F"/>
        <path d="M 113.9293,9.8844 L 113.6242,9.5534 L 114.2344,9.5534 L 113.9293,9.8844 Z" stroke="#7F7F7F" stroke-width="0.1199" stroke-linecap="round" stroke-linejoin="round" fill="#7F7F7F"/>
        <text font-family="Arial" fill="#000000" style="white-space:pre;" font-weight="400" text-anchor="start" x="122.4391" y="10.1287" font-size="0.0297"><![CDATA[27/28]]></text>
        <path d="M 115.8406,9.5534 L 115.5355,9.8844 L 116.1458,9.8844 L 115.8406,9.5534 Z" stroke="#7F7F7F" stroke-width="0.1199" stroke-linecap="round" stroke-linejoin="round" fill="#7F7F7F"/>
        <path d="M 118.0359,9.8844 L 117.7308,9.5534 L 118.3410,9.5534 L 118.0359,9.8844 Z" stroke="#7F7F7F" stroke-width="0.1199" stroke-linecap="round" stroke-linejoin="round" fill="#7F7F7F"/>
        <text font-family="Arial" fill="#000000" style="white-space:pre;" font-weight="400" text-anchor="start" x="126.8593" y="10.1287" font-size="0.0297"><![CDATA[29/30]]></text>
        <path d="M 120.0023,9.5534 L 119.6972,9.8844 L 120.3074,9.8844 L 120.0023,9.5534 Z" stroke="#7F7F7F" stroke-width="0.1199" stroke-linecap="round" stroke-linejoin="round" fill="#7F7F7F"/>
        <path d="M 122.1976,9.8844 L 121.8924,9.5534 L 122.5027,9.5534 L 122.1976,9.8844 Z" stroke="#7F7F7F" stroke-width="0.1199" stroke-linecap="round" stroke-linejoin="round" fill="#7F7F7F"/>
        <text font-family="Arial" fill="#000000" style="white-space:pre;" font-weight="400" text-anchor="start" x="131.3304" y="10.1287" font-size="0.0297"><![CDATA[31/32]]></text>
        <path d="M 124.1089,9.5534 L 123.8038,9.8844 L 124.4140,9.8844 L 124.1089,9.5534 Z" stroke="#7F7F7F" stroke-width="0.1199" stroke-linecap="round" stroke-linejoin="round" fill="#7F7F7F"/>
        <path d="M 126.3042,9.8844 L 125.9990,9.5534 L 126.6093,9.5534 L 126.3042,9.8844 Z" stroke="#7F7F7F" stroke-width="0.1199" stroke-linecap="round" stroke-linejoin="round" fill="#7F7F7F"/>
        <path d="M 126.2902,10.0535 L 124.0843,10.0535 L 124.0843,10.6510 L 126.2902,10.6510 L 126.2902,10.0535 Z" stroke="#494949" stroke-width="0.1199" stroke-linecap="round" stroke-linejoin="round" fill="#494949"/>
        <text font-family="Arial" fill="#FFFFFF" style="white-space:pre;" font-weight="400" text-anchor="start" x="173.0562" y="12.1600" font-size="0.1544"><![CDATA[SFP+ 10G]]></text>
        <path d="M 52.8983,9.8844 L 52.5932,9.5534 L 53.2035,9.5534 L 52.8983,9.8844 Z" stroke="#7F7F7F" stroke-width="0.1199" stroke-linecap="round" stroke-linejoin="round" fill="#7F7F7F"/>
        <path d="M 50.1987,9.5534 L 49.8936,9.8844 L 50.5039,9.8844 L 50.1987,9.5534 Z" stroke="#7F7F7F" stroke-width="0.1199" stroke-linecap="round" stroke-linejoin="round" fill="#7F7F7F"/>
        <path d="M 58.2975,9.8844 L 57.9924,9.5534 L 58.6026,9.5534 L 58.2975,9.8844 Z" stroke="#7F7F7F" stroke-width="0.1199" stroke-linecap="round" stroke-linejoin="round" fill="#7F7F7F"/>
        <path d="M 55.5979,9.5534 L 55.2928,9.8844 L 55.9030,9.8844 L 55.5979,9.5534 Z" stroke="#7F7F7F" stroke-width="0.1199" stroke-linecap="round" stroke-linejoin="round" fill="#7F7F7F"/>
        <text font-family="Arial" fill="#000000" style="white-space:pre;" font-weight="400" text-anchor="start" x="63.0143" y="10.1287" font-size="0.0297"><![CDATA[21/22]]></text>
        <path d="M 101.3298,9.5534 L 101.0247,9.8844 L 101.6349,9.8844 L 101.3298,9.5534 Z" stroke="#7F7F7F" stroke-width="0.1199" stroke-linecap="round" stroke-linejoin="round" fill="#7F7F7F"/>
        <path d="M 103.5802,9.8844 L 103.2750,9.5534 L 103.8853,9.5534 L 103.5802,9.8844 Z" stroke="#7F7F7F" stroke-width="0.1199" stroke-linecap="round" stroke-linejoin="round" fill="#7F7F7F"/>
        <path d="M 64.2052,9.8844 L 63.9001,9.5534 L 64.5103,9.5534 L 64.2052,9.8844 Z" stroke="#7F7F7F" stroke-width="0.1199" stroke-linecap="round" stroke-linejoin="round" fill="#7F7F7F"/>
        <path d="M 62.0650,9.5534 L 61.7599,9.8844 L 62.3702,9.8844 L 62.0650,9.5534 Z" stroke="#7F7F7F" stroke-width="0.1199" stroke-linecap="round" stroke-linejoin="round" fill="#7F7F7F"/>
        <path d="M 68.3669,9.8844 L 68.0618,9.5534 L 68.6720,9.5534 L 68.3669,9.8844 Z" stroke="#7F7F7F" stroke-width="0.1199" stroke-linecap="round" stroke-linejoin="round" fill="#7F7F7F"/>
        <path d="M 66.2310,9.5534 L 65.9258,9.8844 L 66.5361,9.8844 L 66.2310,9.5534 Z" stroke="#7F7F7F" stroke-width="0.1199" stroke-linecap="round" stroke-linejoin="round" fill="#7F7F7F"/>
        <path d="M 70.4477,9.5534 L 70.1426,9.8844 L 70.7529,9.8844 L 70.4477,9.5534 Z" stroke="#7F7F7F" stroke-width="0.1199" stroke-linecap="round" stroke-linejoin="round" fill="#7F7F7F"/>
        <path d="M 72.5837,9.8844 L 72.2785,9.5534 L 72.8888,9.5534 L 72.5837,9.8844 Z" stroke="#7F7F7F" stroke-width="0.1199" stroke-linecap="round" stroke-linejoin="round" fill="#7F7F7F"/>
        <path d="M 74.6094,9.5534 L 74.3043,9.8844 L 74.9146,9.8844 L 74.6094,9.5534 Z" stroke="#7F7F7F" stroke-width="0.1199" stroke-linecap="round" stroke-linejoin="round" fill="#7F7F7F"/>
        <path d="M 76.7496,9.8844 L 76.4445,9.5534 L 77.0547,9.5534 L 76.7496,9.8844 Z" stroke="#7F7F7F" stroke-width="0.1199" stroke-linecap="round" stroke-linejoin="round" fill="#7F7F7F"/>
        <path d="M 62.1878,1.6330 L 61.3731,1.6330 L 61.3731,1.9959 L 62.1878,1.9959 L 62.1878,1.6330 Z" stroke="#000000" stroke-width="0.1199" stroke-linecap="round" stroke-linejoin="round" fill="#83FF00"/>
        <path d="M 64.9371,1.6330 L 64.1225,1.6330 L 64.1225,1.9959 L 64.9371,1.9959 L 64.9371,1.6330 Z" stroke="#000000" stroke-width="0.1199" stroke-linecap="round" stroke-linejoin="round" fill="#83FF00"/>
        <path d="M 62.1878,8.5430 L 61.3731,8.5430 L 61.3731,8.9058 L 62.1878,8.9058 L 62.1878,8.5430 Z" stroke="#000000" stroke-width="0.1199" stroke-linecap="round" stroke-linejoin="round" fill="#83FF00"/>
        <path d="M 64.9371,8.5430 L 64.1225,8.5430 L 64.1225,8.9058 L 64.9371,8.9058 L 64.9371,8.5430 Z" stroke="#000000" stroke-width="0.1199" stroke-linecap="round" stroke-linejoin="round" fill="#83FF00"/>
        <path d="M 66.3482,1.6330 L 65.5335,1.6330 L 65.5335,1.9959 L 66.3482,1.9959 L 66.3482,1.6330 Z" stroke="#000000" stroke-width="0.1199" stroke-linecap="round" stroke-linejoin="round" fill="#83FF00"/>
        <path d="M 69.0975,1.6330 L 68.2829,1.6330 L 68.2829,1.9959 L 69.0975,1.9959 L 69.0975,1.6330 Z" stroke="#000000" stroke-width="0.1199" stroke-linecap="round" stroke-linejoin="round" fill="#83FF00"/>
        <path d="M 66.3482,8.5430 L 65.5335,8.5430 L 65.5335,8.9058 L 66.3482,8.9058 L 66.3482,8.5430 Z" stroke="#000000" stroke-width="0.1199" stroke-linecap="round" stroke-linejoin="round" fill="#83FF00"/>
        <path d="M 69.0975,8.5430 L 68.2829,8.5430 L 68.2829,8.9058 L 69.0975,8.9058 L 69.0975,8.5430 Z" stroke="#000000" stroke-width="0.1199" stroke-linecap="round" stroke-linejoin="round" fill="#83FF00"/>
        <path d="M 70.5667,1.6330 L 69.7521,1.6330 L 69.7521,1.9959 L 70.5667,1.9959 L 70.5667,1.6330 Z" stroke="#000000" stroke-width="0.1199" stroke-linecap="round" stroke-linejoin="round" fill="#83FF00"/>
        <path d="M 73.3161,1.6330 L 72.5015,1.6330 L 72.5015,1.9959 L 73.3161,1.9959 L 73.3161,1.6330 Z" stroke="#000000" stroke-width="0.1199" stroke-linecap="round" stroke-linejoin="round" fill="#83FF00"/>
        <path d="M 70.5667,8.5430 L 69.7521,8.5430 L 69.7521,8.9058 L 70.5667,8.9058 L 70.5667,8.5430 Z" stroke="#000000" stroke-width="0.1199" stroke-linecap="round" stroke-linejoin="round" fill="#83FF00"/>
        <path d="M 73.3161,8.5430 L 72.5015,8.5430 L 72.5015,8.9058 L 73.3161,8.9058 L 73.3161,8.5430 Z" stroke="#000000" stroke-width="0.1199" stroke-linecap="round" stroke-linejoin="round" fill="#83FF00"/>
        <path d="M 74.7271,1.6330 L 73.9125,1.6330 L 73.9125,1.9959 L 74.7271,1.9959 L 74.7271,1.6330 Z" stroke="#000000" stroke-width="0.1199" stroke-linecap="round" stroke-linejoin="round" fill="#83FF00"/>
        <path d="M 77.4765,1.6330 L 76.6619,1.6330 L 76.6619,1.9959 L 77.4765,1.9959 L 77.4765,1.6330 Z" stroke="#000000" stroke-width="0.1199" stroke-linecap="round" stroke-linejoin="round" fill="#83FF00"/>
        <path d="M 74.7271,8.5430 L 73.9125,8.5430 L 73.9125,8.9058 L 74.7271,8.9058 L 74.7271,8.5430 Z" stroke="#000000" stroke-width="0.1199" stroke-linecap="round" stroke-linejoin="round" fill="#83FF00"/>
        <path d="M 77.4765,8.5430 L 76.6619,8.5430 L 76.6619,8.9058 L 77.4765,8.9058 L 77.4765,8.5430 Z" stroke="#000000" stroke-width="0.1199" stroke-linecap="round" stroke-linejoin="round" fill="#83FF00"/>
        <path d="M 80.6332,1.6330 L 79.8185,1.6330 L 79.8185,1.9959 L 80.6332,1.9959 L 80.6332,1.6330 Z" stroke="#000000" stroke-width="0.1199" stroke-linecap="round" stroke-linejoin="round" fill="#83FF00"/>
        <path d="M 83.3825,1.6330 L 82.5679,1.6330 L 82.5679,1.9959 L 83.3825,1.9959 L 83.3825,1.6330 Z" stroke="#000000" stroke-width="0.1199" stroke-linecap="round" stroke-linejoin="round" fill="#83FF00"/>
        <path d="M 80.6332,8.5430 L 79.8185,8.5430 L 79.8185,8.9058 L 80.6332,8.9058 L 80.6332,8.5430 Z" stroke="#000000" stroke-width="0.1199" stroke-linecap="round" stroke-linejoin="round" fill="#83FF00"/>
        <path d="M 83.3825,8.5430 L 82.5679,8.5430 L 82.5679,8.9058 L 83.3825,8.9058 L 83.3825,8.5430 Z" stroke="#000000" stroke-width="0.1199" stroke-linecap="round" stroke-linejoin="round" fill="#83FF00"/>
        <path d="M 84.8517,1.6330 L 84.0371,1.6330 L 84.0371,1.9959 L 84.8517,1.9959 L 84.8517,1.6330 Z" stroke="#000000" stroke-width="0.1199" stroke-linecap="round" stroke-linejoin="round" fill="#83FF00"/>
        <path d="M 87.6011,1.6330 L 86.7865,1.6330 L 86.7865,1.9959 L 87.6011,1.9959 L 87.6011,1.6330 Z" stroke="#000000" stroke-width="0.1199" stroke-linecap="round" stroke-linejoin="round" fill="#83FF00"/>
        <path d="M 84.8517,8.5430 L 84.0371,8.5430 L 84.0371,8.9058 L 84.8517,8.9058 L 84.8517,8.5430 Z" stroke="#000000" stroke-width="0.1199" stroke-linecap="round" stroke-linejoin="round" fill="#83FF00"/>
        <path d="M 87.6011,8.5430 L 86.7865,8.5430 L 86.7865,8.9058 L 87.6011,8.9058 L 87.6011,8.5430 Z" stroke="#000000" stroke-width="0.1199" stroke-linecap="round" stroke-linejoin="round" fill="#83FF00"/>
        <path d="M 89.0121,1.6330 L 88.1975,1.6330 L 88.1975,1.9959 L 89.0121,1.9959 L 89.0121,1.6330 Z" stroke="#000000" stroke-width="0.1199" stroke-linecap="round" stroke-linejoin="round" fill="#83FF00"/>
        <path d="M 91.7615,1.6330 L 90.9469,1.6330 L 90.9469,1.9959 L 91.7615,1.9959 L 91.7615,1.6330 Z" stroke="#000000" stroke-width="0.1199" stroke-linecap="round" stroke-linejoin="round" fill="#83FF00"/>
        <path d="M 89.0121,8.5430 L 88.1975,8.5430 L 88.1975,8.9058 L 89.0121,8.9058 L 89.0121,8.5430 Z" stroke="#000000" stroke-width="0.1199" stroke-linecap="round" stroke-linejoin="round" fill="#83FF00"/>
        <path d="M 91.7615,8.5430 L 90.9469,8.5430 L 90.9469,8.9058 L 91.7615,8.9058 L 91.7615,8.5430 Z" stroke="#000000" stroke-width="0.1199" stroke-linecap="round" stroke-linejoin="round" fill="#83FF00"/>
        <path d="M 93.2307,1.6330 L 92.4161,1.6330 L 92.4161,1.9959 L 93.2307,1.9959 L 93.2307,1.6330 Z" stroke="#000000" stroke-width="0.1199" stroke-linecap="round" stroke-linejoin="round" fill="#83FF00"/>
        <path d="M 95.9801,1.6330 L 95.1654,1.6330 L 95.1654,1.9959 L 95.9801,1.9959 L 95.9801,1.6330 Z" stroke="#000000" stroke-width="0.1199" stroke-linecap="round" stroke-linejoin="round" fill="#83FF00"/>
        <path d="M 93.2307,8.5430 L 92.4161,8.5430 L 92.4161,8.9058 L 93.2307,8.9058 L 93.2307,8.5430 Z" stroke="#000000" stroke-width="0.1199" stroke-linecap="round" stroke-linejoin="round" fill="#83FF00"/>
        <path d="M 95.9801,8.5430 L 95.1654,8.5430 L 95.1654,8.9058 L 95.9801,8.9058 L 95.9801,8.5430 Z" stroke="#000000" stroke-width="0.1199" stroke-linecap="round" stroke-linejoin="round" fill="#83FF00"/>
        <path d="M 97.3911,1.6330 L 96.5765,1.6330 L 96.5765,1.9959 L 97.3911,1.9959 L 97.3911,1.6330 Z" stroke="#000000" stroke-width="0.1199" stroke-linecap="round" stroke-linejoin="round" fill="#83FF00"/>
        <path d="M 100.1550,1.6330 L 99.3404,1.6330 L 99.3404,1.9959 L 100.1550,1.9959 L 100.1550,1.6330 Z" stroke="#000000" stroke-width="0.1199" stroke-linecap="round" stroke-linejoin="round" fill="#83FF00"/>
        <path d="M 97.3911,8.5430 L 96.5765,8.5430 L 96.5765,8.9058 L 97.3911,8.9058 L 97.3911,8.5430 Z" stroke="#000000" stroke-width="0.1199" stroke-linecap="round" stroke-linejoin="round" fill="#83FF00"/>
        <path d="M 100.1550,8.5430 L 99.3404,8.5430 L 99.3404,8.9058 L 100.1550,8.9058 L 100.1550,8.5430 Z" stroke="#000000" stroke-width="0.1199" stroke-linecap="round" stroke-linejoin="round" fill="#83FF00"/>
        <path d="M 101.6097,1.6330 L 100.7951,1.6330 L 100.7951,1.9959 L 101.6097,1.9959 L 101.6097,1.6330 Z" stroke="#000000" stroke-width="0.1199" stroke-linecap="round" stroke-linejoin="round" fill="#83FF00"/>
        <path d="M 104.3736,1.6330 L 103.5590,1.6330 L 103.5590,1.9959 L 104.3736,1.9959 L 104.3736,1.6330 Z" stroke="#000000" stroke-width="0.1199" stroke-linecap="round" stroke-linejoin="round" fill="#83FF00"/>
        <path d="M 101.6097,8.5430 L 100.7951,8.5430 L 100.7951,8.9058 L 101.6097,8.9058 L 101.6097,8.5430 Z" stroke="#000000" stroke-width="0.1199" stroke-linecap="round" stroke-linejoin="round" fill="#83FF00"/>
        <path d="M 104.3736,8.5430 L 103.5590,8.5430 L 103.5590,8.9058 L 104.3736,8.9058 L 104.3736,8.5430 Z" stroke="#000000" stroke-width="0.1199" stroke-linecap="round" stroke-linejoin="round" fill="#83FF00"/>
        <path d="M 27.3235,4.7200 L 27.2813,4.7200 L 27.2813,4.7340 L 27.2532,4.7340 L 27.2392,4.7481 L 27.2251,4.7481 L 27.2251,4.7621 L 27.2110,4.7621 L 27.2110,4.7762 L 27.1970,4.7762 L 27.1970,4.7902 L 27.1829,4.8043 L 27.1829,4.8324 L 27.1688,4.8324 L 27.1688,6.2090 L 27.1829,6.2090 L 27.1829,6.2371 L 27.1970,6.2512 L 27.1970,6.2652 L 27.2110,6.2652 L 27.2110,6.2793 L 27.2251,6.2793 L 27.2251,6.2933 L 27.2392,6.2933 L 27.2532,6.3074 L 27.2813,6.3074 L 27.2813,6.3214 L 30.7970,6.3214 L 30.7970,6.3074 L 30.8251,6.3074 L 30.8392,6.2933 L 30.8532,6.2933 L 30.8532,6.2793 L 30.8673,6.2793 L 30.8673,6.2652 L 30.8814,6.2652 L 30.8814,6.2512 L 30.8954,6.2371 L 30.8954,6.2090 L 30.9095,6.2090 L 30.9095,4.8324 L 30.8954,4.8324 L 30.8954,4.8043 L 30.8814,4.7902 L 30.8814,4.7762 L 30.8673,4.7762 L 30.8673,4.7621 L 30.8532,4.7621 L 30.8532,4.7481 L 30.8392,4.7481 L 30.8251,4.7340 L 30.7970,4.7340 L 30.7970,4.7200 L 27.3376,4.7200 L 27.3235,4.7200 Z" stroke="#000000" stroke-width="0.1199" stroke-linecap="round" stroke-linejoin="round" fill="#BFBFBF"/>
        <path d="M 27.3798,4.8464 L 27.3376,4.8464 L 27.3376,4.8605 L 27.3235,4.8605 L 27.3235,4.8745 L 27.3095,4.8745 L 27.3095,4.8885 L 27.2954,4.8885 L 27.2954,6.1528 L 27.3095,6.1669 L 27.3095,6.1809 L 27.3235,6.1809 L 27.3235,6.1950 L 27.3376,6.1950 L 27.3517,6.2090 L 30.7407,6.2090 L 30.7407,6.1950 L 30.7548,6.1950 L 30.7548,6.1809 L 30.7689,6.1809 L 30.7689,6.1669 L 30.7829,6.1528 L 30.7829,4.8885 L 30.7689,4.8885 L 30.7689,4.8745 L 30.7548,4.8605 L 30.7407,4.8605 L 30.7407,4.8464 L 27.3938,4.8464 L 27.3798,4.8464 Z" stroke="#F7DDB9" stroke-width="0.1199" stroke-linecap="round" stroke-linejoin="round" fill="#000000"/>
        <path d="M 28.1251,5.5488 L 27.8157,5.5488 L 27.8157,5.4785 L 28.1251,5.4785 L 28.1251,5.5488 Z" stroke="#000000" stroke-width="0.1199" stroke-linecap="round" stroke-linejoin="round" fill="#E2E2CC"/>
        <path d="M 28.8282,5.5488 L 28.5188,5.5488 L 28.5188,5.4785 L 28.8282,5.4785 L 28.8282,5.5488 Z" stroke="#000000" stroke-width="0.1199" stroke-linecap="round" stroke-linejoin="round" fill="#E2E2CC"/>
        <path d="M 29.5173,5.5488 L 29.2079,5.5488 L 29.2079,5.4785 L 29.5173,5.4785 L 29.5173,5.5488 Z" stroke="#000000" stroke-width="0.1199" stroke-linecap="round" stroke-linejoin="round" fill="#E2E2CC"/>
        <path d="M 30.2345,5.5488 L 29.9251,5.5488 L 29.9251,5.4785 L 30.2345,5.4785 L 30.2345,5.5488 Z" stroke="#000000" stroke-width="0.1199" stroke-linecap="round" stroke-linejoin="round" fill="#E2E2CC"/>
        <path d="M 30.5720,5.1133 L 30.5720,5.0852 L 30.5579,5.0571 L 30.5298,5.0431 L 27.5485,5.0431 L 27.5204,5.0571 L 27.5063,5.0852 L 27.5063,5.4364 L 27.5204,5.4645 L 27.5485,5.4785 L 30.5298,5.4785 L 30.5579,5.4645 L 30.5720,5.4364 L 30.5720,5.4083 L 30.5720,5.1133 Z" stroke="#000000" stroke-width="0.1199" stroke-linecap="round" stroke-linejoin="round" fill="#7F7F7F"/>
        <path d="M 30.4595,5.2538 L 30.4454,5.1976 L 30.3892,5.1414 L 30.3329,5.1274 L 27.7454,5.1274 L 27.6892,5.1414 L 27.6329,5.1976 L 27.6188,5.2538 L 27.6329,5.3100 L 27.6892,5.3662 L 27.7454,5.3802 L 30.3329,5.3802 L 30.3892,5.3662 L 30.4454,5.3100 L 30.4595,5.2538 Z" stroke="#00FFFF" stroke-width="0.1199" stroke-linecap="round" stroke-linejoin="round" fill="#00FFFF"/>
        <path d="M 27.3235,7.0238 L 27.2813,7.0238 L 27.2813,7.0378 L 27.2532,7.0378 L 27.2392,7.0519 L 27.2251,7.0519 L 27.2251,7.0659 L 27.2110,7.0659 L 27.2110,7.0800 L 27.1970,7.0800 L 27.1970,7.0940 L 27.1829,7.1081 L 27.1829,7.1362 L 27.1688,7.1362 L 27.1688,8.5128 L 27.1829,8.5128 L 27.1829,8.5409 L 27.1970,8.5550 L 27.1970,8.5690 L 27.2110,8.5690 L 27.2110,8.5831 L 27.2251,8.5831 L 27.2251,8.5971 L 27.2392,8.5971 L 27.2532,8.6112 L 27.2813,8.6112 L 27.2813,8.6252 L 30.7970,8.6252 L 30.7970,8.6112 L 30.8251,8.6112 L 30.8392,8.5971 L 30.8532,8.5971 L 30.8532,8.5831 L 30.8673,8.5831 L 30.8673,8.5690 L 30.8814,8.5690 L 30.8814,8.5550 L 30.8954,8.5409 L 30.8954,8.5128 L 30.9095,8.5128 L 30.9095,7.1362 L 30.8954,7.1362 L 30.8954,7.1081 L 30.8814,7.0940 L 30.8814,7.0800 L 30.8673,7.0800 L 30.8673,7.0659 L 30.8532,7.0659 L 30.8532,7.0519 L 30.8392,7.0519 L 30.8251,7.0378 L 30.7970,7.0378 L 30.7970,7.0238 L 27.3376,7.0238 L 27.3235,7.0238 Z" stroke="#000000" stroke-width="0.1199" stroke-linecap="round" stroke-linejoin="round" fill="#BFBFBF"/>
        <path d="M 27.3798,7.1502 L 27.3376,7.1502 L 27.3376,7.1643 L 27.3235,7.1643 L 27.3235,7.1783 L 27.3095,7.1783 L 27.3095,7.1923 L 27.2954,7.1923 L 27.2954,8.4566 L 27.3095,8.4707 L 27.3095,8.4847 L 27.3235,8.4847 L 27.3235,8.4988 L 27.3376,8.4988 L 27.3517,8.5128 L 30.7407,8.5128 L 30.7407,8.4988 L 30.7548,8.4988 L 30.7548,8.4847 L 30.7689,8.4847 L 30.7689,8.4707 L 30.7829,8.4566 L 30.7829,7.1923 L 30.7689,7.1923 L 30.7689,7.1783 L 30.7548,7.1643 L 30.7407,7.1643 L 30.7407,7.1502 L 27.3938,7.1502 L 27.3798,7.1502 Z" stroke="#F7DDB9" stroke-width="0.1199" stroke-linecap="round" stroke-linejoin="round" fill="#000000"/>
        <path d="M 28.1251,7.8526 L 27.8157,7.8526 L 27.8157,7.7823 L 28.1251,7.7823 L 28.1251,7.8526 Z" stroke="#000000" stroke-width="0.1199" stroke-linecap="round" stroke-linejoin="round" fill="#E2E2CC"/>
        <path d="M 28.8282,7.8526 L 28.5188,7.8526 L 28.5188,7.7823 L 28.8282,7.7823 L 28.8282,7.8526 Z" stroke="#000000" stroke-width="0.1199" stroke-linecap="round" stroke-linejoin="round" fill="#E2E2CC"/>
        <path d="M 29.5173,7.8526 L 29.2079,7.8526 L 29.2079,7.7823 L 29.5173,7.7823 L 29.5173,7.8526 Z" stroke="#000000" stroke-width="0.1199" stroke-linecap="round" stroke-linejoin="round" fill="#E2E2CC"/>
        <path d="M 30.2345,7.8526 L 29.9251,7.8526 L 29.9251,7.7823 L 30.2345,7.7823 L 30.2345,7.8526 Z" stroke="#000000" stroke-width="0.1199" stroke-linecap="round" stroke-linejoin="round" fill="#E2E2CC"/>
        <path d="M 30.5720,7.4171 L 30.5720,7.3890 L 30.5579,7.3609 L 30.5298,7.3469 L 27.5485,7.3469 L 27.5204,7.3609 L 27.5063,7.3890 L 27.5063,7.7402 L 27.5204,7.7683 L 27.5485,7.7823 L 30.5298,7.7823 L 30.5579,7.7683 L 30.5720,7.7402 L 30.5720,7.7121 L 30.5720,7.4171 Z" stroke="#000000" stroke-width="0.1199" stroke-linecap="round" stroke-linejoin="round" fill="#7F7F7F"/>
        <path d="M 30.4595,7.5576 L 30.4454,7.5014 L 30.3892,7.4452 L 30.3329,7.4312 L 27.7454,7.4312 L 27.6892,7.4452 L 27.6329,7.5014 L 27.6188,7.5576 L 27.6329,7.6138 L 27.6892,7.6700 L 27.7454,7.6840 L 30.3329,7.6840 L 30.3892,7.6700 L 30.4454,7.6138 L 30.4595,7.5576 Z" stroke="#00FFFF" stroke-width="0.1199" stroke-linecap="round" stroke-linejoin="round" fill="#00FFFF"/>
        <path d="M 32.9584,5.9045 L 32.9584,8.0251 L 33.8514,8.0251 L 33.8514,8.5241 L 34.2142,8.5241 L 34.2142,9.0230 L 35.2746,9.0230 L 35.2746,8.5241 L 35.6374,8.5241 L 35.6374,8.0251 L 36.5305,8.0251 L 36.5305,5.9045 L 32.9584,5.9045 Z" stroke="#161616" stroke-width="0.1199" stroke-linecap="round" stroke-linejoin="round" fill="#000000"/>
        <path d="M 43.5910,4.6986 L 43.5910,2.5780 L 44.4840,2.5780 L 44.4840,2.0790 L 44.8468,2.0790 L 44.8468,1.5801 L 45.9073,1.5801 L 45.9073,2.0790 L 46.2701,2.0790 L 46.2701,2.5780 L 47.1631,2.5780 L 47.1631,4.6986 L 43.5910,4.6986 Z" stroke="#161616" stroke-width="0.1199" stroke-linecap="round" stroke-linejoin="round" fill="#000000"/>
        <path d="M 43.5910,5.9045 L 43.5910,8.0251 L 44.4840,8.0251 L 44.4840,8.5241 L 44.8468,8.5241 L 44.8468,9.0230 L 45.9073,9.0230 L 45.9073,8.5241 L 46.2701,8.5241 L 46.2701,8.0251 L 47.1631,8.0251 L 47.1631,5.9045 L 43.5910,5.9045 Z" stroke="#161616" stroke-width="0.1199" stroke-linecap="round" stroke-linejoin="round" fill="#000000"/>
        <path d="M 49.7306,4.6986 L 49.7306,2.5780 L 50.6236,2.5780 L 50.6236,2.0790 L 50.9864,2.0790 L 50.9864,1.5801 L 52.0468,1.5801 L 52.0468,2.0790 L 52.4096,2.0790 L 52.4096,2.5780 L 53.3027,2.5780 L 53.3027,4.6986 L 49.7306,4.6986 Z" stroke="#161616" stroke-width="0.1199" stroke-linecap="round" stroke-linejoin="round" fill="#000000"/>
        <path d="M 49.7306,5.9045 L 49.7306,8.0251 L 50.6236,8.0251 L 50.6236,8.5241 L 50.9864,8.5241 L 50.9864,9.0230 L 52.0468,9.0230 L 52.0468,8.5241 L 52.4096,8.5241 L 52.4096,8.0251 L 53.3027,8.0251 L 53.3027,5.9045 L 49.7306,5.9045 Z" stroke="#161616" stroke-width="0.1199" stroke-linecap="round" stroke-linejoin="round" fill="#000000"/>
        <path d="M 55.1306,4.6986 L 55.1306,2.5780 L 56.0236,2.5780 L 56.0236,2.0790 L 56.3864,2.0790 L 56.3864,1.5801 L 57.4469,1.5801 L 57.4469,2.0790 L 57.8097,2.0790 L 57.8097,2.5780 L 58.7027,2.5780 L 58.7027,4.6986 L 55.1306,4.6986 Z" stroke="#161616" stroke-width="0.1199" stroke-linecap="round" stroke-linejoin="round" fill="#000000"/>
        <path d="M 55.1306,5.9045 L 55.1306,8.0251 L 56.0236,8.0251 L 56.0236,8.5241 L 56.3864,8.5241 L 56.3864,9.0230 L 57.4469,9.0230 L 57.4469,8.5241 L 57.8097,8.5241 L 57.8097,8.0251 L 58.7027,8.0251 L 58.7027,5.9045 L 55.1306,5.9045 Z" stroke="#161616" stroke-width="0.1199" stroke-linecap="round" stroke-linejoin="round" fill="#000000"/>
        <path d="M 61.3678,4.6986 L 61.3678,2.5780 L 62.2609,2.5780 L 62.2609,2.0790 L 62.6237,2.0790 L 62.6237,1.5801 L 63.6841,1.5801 L 63.6841,2.0790 L 64.0469,2.0790 L 64.0469,2.5780 L 64.9400,2.5780 L 64.9400,4.6986 L 61.3678,4.6986 Z" stroke="#161616" stroke-width="0.1199" stroke-linecap="round" stroke-linejoin="round" fill="#000000"/>
        <path d="M 61.3678,5.9045 L 61.3678,8.0251 L 62.2609,8.0251 L 62.2609,8.5241 L 62.6237,8.5241 L 62.6237,9.0230 L 63.6841,9.0230 L 63.6841,8.5241 L 64.0469,8.5241 L 64.0469,8.0251 L 64.9400,8.0251 L 64.9400,5.9045 L 61.3678,5.9045 Z" stroke="#161616" stroke-width="0.1199" stroke-linecap="round" stroke-linejoin="round" fill="#000000"/>
        <path d="M 65.5260,4.6986 L 65.5260,2.5780 L 66.4190,2.5780 L 66.4190,2.0790 L 66.7818,2.0790 L 66.7818,1.5801 L 67.8423,1.5801 L 67.8423,2.0790 L 68.2051,2.0790 L 68.2051,2.5780 L 69.0981,2.5780 L 69.0981,4.6986 L 65.5260,4.6986 Z" stroke="#161616" stroke-width="0.1199" stroke-linecap="round" stroke-linejoin="round" fill="#000000"/>
        <path d="M 65.5260,5.9045 L 65.5260,8.0251 L 66.4190,8.0251 L 66.4190,8.5241 L 66.7818,8.5241 L 66.7818,9.0230 L 67.8423,9.0230 L 67.8423,8.5241 L 68.2051,8.5241 L 68.2051,8.0251 L 69.0981,8.0251 L 69.0981,5.9045 L 65.5260,5.9045 Z" stroke="#161616" stroke-width="0.1199" stroke-linecap="round" stroke-linejoin="round" fill="#000000"/>
        <path d="M 69.7539,4.6986 L 69.7539,2.5780 L 70.6470,2.5780 L 70.6470,2.0790 L 71.0098,2.0790 L 71.0098,1.5801 L 72.0702,1.5801 L 72.0702,2.0790 L 72.4330,2.0790 L 72.4330,2.5780 L 73.3261,2.5780 L 73.3261,4.6986 L 69.7539,4.6986 Z" stroke="#161616" stroke-width="0.1199" stroke-linecap="round" stroke-linejoin="round" fill="#000000"/>
        <path d="M 69.7539,5.9045 L 69.7539,8.0251 L 70.6470,8.0251 L 70.6470,8.5241 L 71.0098,8.5241 L 71.0098,9.0230 L 72.0702,9.0230 L 72.0702,8.5241 L 72.4330,8.5241 L 72.4330,8.0251 L 73.3261,8.0251 L 73.3261,5.9045 L 69.7539,5.9045 Z" stroke="#161616" stroke-width="0.1199" stroke-linecap="round" stroke-linejoin="round" fill="#000000"/>
        <path d="M 73.9121,4.6986 L 73.9121,2.5780 L 74.8051,2.5780 L 74.8051,2.0790 L 75.1679,2.0790 L 75.1679,1.5801 L 76.2284,1.5801 L 76.2284,2.0790 L 76.5912,2.0790 L 76.5912,2.5780 L 77.4842,2.5780 L 77.4842,4.6986 L 73.9121,4.6986 Z" stroke="#161616" stroke-width="0.1199" stroke-linecap="round" stroke-linejoin="round" fill="#000000"/>
        <path d="M 73.9121,5.9045 L 73.9121,8.0251 L 74.8051,8.0251 L 74.8051,8.5241 L 75.1679,8.5241 L 75.1679,9.0230 L 76.2284,9.0230 L 76.2284,8.5241 L 76.5912,8.5241 L 76.5912,8.0251 L 77.4842,8.0251 L 77.4842,5.9045 L 73.9121,5.9045 Z" stroke="#161616" stroke-width="0.1199" stroke-linecap="round" stroke-linejoin="round" fill="#000000"/>
        <path d="M 79.8145,4.6986 L 79.8145,2.5780 L 80.7075,2.5780 L 80.7075,2.0790 L 81.0703,2.0790 L 81.0703,1.5801 L 82.1308,1.5801 L 82.1308,2.0790 L 82.4936,2.0790 L 82.4936,2.5780 L 83.3866,2.5780 L 83.3866,4.6986 L 79.8145,4.6986 Z" stroke="#161616" stroke-width="0.1199" stroke-linecap="round" stroke-linejoin="round" fill="#000000"/>
        <path d="M 79.8145,5.9045 L 79.8145,8.0251 L 80.7075,8.0251 L 80.7075,8.5241 L 81.0703,8.5241 L 81.0703,9.0230 L 82.1308,9.0230 L 82.1308,8.5241 L 82.4936,8.5241 L 82.4936,8.0251 L 83.3866,8.0251 L 83.3866,5.9045 L 79.8145,5.9045 Z" stroke="#161616" stroke-width="0.1199" stroke-linecap="round" stroke-linejoin="round" fill="#000000"/>
        <path d="M 84.0424,4.6986 L 84.0424,2.5780 L 84.9354,2.5780 L 84.9354,2.0790 L 85.2982,2.0790 L 85.2982,1.5801 L 86.3587,1.5801 L 86.3587,2.0790 L 86.7215,2.0790 L 86.7215,2.5780 L 87.6145,2.5780 L 87.6145,4.6986 L 84.0424,4.6986 Z" stroke="#161616" stroke-width="0.1199" stroke-linecap="round" stroke-linejoin="round" fill="#000000"/>
        <path d="M 84.0424,5.9045 L 84.0424,8.0251 L 84.9354,8.0251 L 84.9354,8.5241 L 85.2982,8.5241 L 85.2982,9.0230 L 86.3587,9.0230 L 86.3587,8.5241 L 86.7215,8.5241 L 86.7215,8.0251 L 87.6145,8.0251 L 87.6145,5.9045 L 84.0424,5.9045 Z" stroke="#161616" stroke-width="0.1199" stroke-linecap="round" stroke-linejoin="round" fill="#000000"/>
        <path d="M 88.2006,4.8095 L 88.2006,2.6889 L 89.0936,2.6889 L 89.0936,2.1899 L 89.4564,2.1899 L 89.4564,1.6910 L 90.5169,1.6910 L 90.5169,2.1899 L 90.8797,2.1899 L 90.8797,2.6889 L 91.7727,2.6889 L 91.7727,4.8095 L 88.2006,4.8095 Z" stroke="#161616" stroke-width="0.1199" stroke-linecap="round" stroke-linejoin="round" fill="#000000"/>
        <path d="M 88.2006,5.9045 L 88.2006,8.0251 L 89.0936,8.0251 L 89.0936,8.5241 L 89.4564,8.5241 L 89.4564,9.0230 L 90.5169,9.0230 L 90.5169,8.5241 L 90.8797,8.5241 L 90.8797,8.0251 L 91.7727,8.0251 L 91.7727,5.9045 L 88.2006,5.9045 Z" stroke="#161616" stroke-width="0.1199" stroke-linecap="round" stroke-linejoin="round" fill="#000000"/>
        <path d="M 92.4146,4.6986 L 92.4146,2.5780 L 93.3076,2.5780 L 93.3076,2.0790 L 93.6704,2.0790 L 93.6704,1.5801 L 94.7308,1.5801 L 94.7308,2.0790 L 95.0936,2.0790 L 95.0936,2.5780 L 95.9867,2.5780 L 95.9867,4.6986 L 92.4146,4.6986 Z" stroke="#161616" stroke-width="0.1199" stroke-linecap="round" stroke-linejoin="round" fill="#000000"/>
        <path d="M 92.4146,5.9045 L 92.4146,8.0251 L 93.3076,8.0251 L 93.3076,8.5241 L 93.6704,8.5241 L 93.6704,9.0230 L 94.7308,9.0230 L 94.7308,8.5241 L 95.0936,8.5241 L 95.0936,8.0251 L 95.9867,8.0251 L 95.9867,5.9045 L 92.4146,5.9045 Z" stroke="#161616" stroke-width="0.1199" stroke-linecap="round" stroke-linejoin="round" fill="#000000"/>
        <path d="M 96.5867,4.6986 L 96.5867,2.5780 L 97.4797,2.5780 L 97.4797,2.0790 L 97.8425,2.0790 L 97.8425,1.5801 L 98.9030,1.5801 L 98.9030,2.0790 L 99.2658,2.0790 L 99.2658,2.5780 L 100.1588,2.5780 L 100.1588,4.6986 L 96.5867,4.6986 Z" stroke="#161616" stroke-width="0.1199" stroke-linecap="round" stroke-linejoin="round" fill="#000000"/>
        <path d="M 96.5867,5.9045 L 96.5867,8.0251 L 97.4797,8.0251 L 97.4797,8.5241 L 97.8425,8.5241 L 97.8425,9.0230 L 98.9030,9.0230 L 98.9030,8.5241 L 99.2658,8.5241 L 99.2658,8.0251 L 100.1588,8.0251 L 100.1588,5.9045 L 96.5867,5.9045 Z" stroke="#161616" stroke-width="0.1199" stroke-linecap="round" stroke-linejoin="round" fill="#000000"/>
        <path d="M 100.8007,4.6986 L 100.8007,2.5780 L 101.6937,2.5780 L 101.6937,2.0790 L 102.0565,2.0790 L 102.0565,1.5801 L 103.1169,1.5801 L 103.1169,2.0790 L 103.4797,2.0790 L 103.4797,2.5780 L 104.3728,2.5780 L 104.3728,4.6986 L 100.8007,4.6986 Z" stroke="#161616" stroke-width="0.1199" stroke-linecap="round" stroke-linejoin="round" fill="#000000"/>
        <path d="M 100.8007,5.9045 L 100.8007,8.0251 L 101.6937,8.0251 L 101.6937,8.5241 L 102.0565,8.5241 L 102.0565,9.0230 L 103.1169,9.0230 L 103.1169,8.5241 L 103.4797,8.5241 L 103.4797,8.0251 L 104.3728,8.0251 L 104.3728,5.9045 L 100.8007,5.9045 Z" stroke="#161616" stroke-width="0.1199" stroke-linecap="round" stroke-linejoin="round" fill="#000000"/>
        <path d="M 110.6722,4.4116 L 106.7066,4.4116 L 106.7066,1.7425 L 110.6722,1.7425 L 110.6722,4.4116 Z" stroke="#000000" stroke-width="0.1199" stroke-linecap="round" stroke-linejoin="round" fill="#494949"/>
        <path d="M 110.6722,8.7956 L 106.7066,8.7956 L 106.7066,6.1265 L 110.6722,6.1265 L 110.6722,8.7956 Z" stroke="#000000" stroke-width="0.1199" stroke-linecap="round" stroke-linejoin="round" fill="#494949"/>
        <path d="M 114.8348,4.4116 L 110.8691,4.4116 L 110.8691,1.7425 L 114.8348,1.7425 L 114.8348,4.4116 Z" stroke="#000000" stroke-width="0.1199" stroke-linecap="round" stroke-linejoin="round" fill="#494949"/>
        <path d="M 114.8348,8.7956 L 110.8691,8.7956 L 110.8691,6.1265 L 114.8348,6.1265 L 114.8348,8.7956 Z" stroke="#000000" stroke-width="0.1199" stroke-linecap="round" stroke-linejoin="round" fill="#494949"/>
        <path d="M 118.9410,4.4116 L 114.9754,4.4116 L 114.9754,1.7425 L 118.9410,1.7425 L 118.9410,4.4116 Z" stroke="#000000" stroke-width="0.1199" stroke-linecap="round" stroke-linejoin="round" fill="#494949"/>
        <path d="M 118.9410,8.7956 L 114.9754,8.7956 L 114.9754,6.1265 L 118.9410,6.1265 L 118.9410,8.7956 Z" stroke="#000000" stroke-width="0.1199" stroke-linecap="round" stroke-linejoin="round" fill="#494949"/>
        <path d="M 123.1035,4.4116 L 119.1379,4.4116 L 119.1379,1.7425 L 123.1035,1.7425 L 123.1035,4.4116 Z" stroke="#000000" stroke-width="0.1199" stroke-linecap="round" stroke-linejoin="round" fill="#494949"/>
        <path d="M 123.1035,8.7956 L 119.1379,8.7956 L 119.1379,6.1265 L 123.1035,6.1265 L 123.1035,8.7956 Z" stroke="#000000" stroke-width="0.1199" stroke-linecap="round" stroke-linejoin="round" fill="#494949"/>
        <path d="M 127.2098,4.4116 L 123.2442,4.4116 L 123.2442,1.7425 L 127.2098,1.7425 L 127.2098,4.4116 Z" stroke="#000000" stroke-width="0.1199" stroke-linecap="round" stroke-linejoin="round" fill="#494949"/>
        <path d="M 127.2098,8.7956 L 123.2442,8.7956 L 123.2442,6.1265 L 127.2098,6.1265 L 127.2098,8.7956 Z" stroke="#000000" stroke-width="0.1199" stroke-linecap="round" stroke-linejoin="round" fill="#494949"/>
      </g>
      <!--emf-blob end-->
    </g>
  </g>
</svg>
