<svg xmlns="http://www.w3.org/2000/svg" xmlns:xlink="http://www.w3.org/1999/xlink" version="1.1" width="7.6032000000" height="4.0000000000" viewBox="0 0 136.8567 72.0000">
  <title><![CDATA[FG-900D]]></title>
  <g transform=" scale(4.000000) ">
    <!--converted by libvisio2svg-->
    <g transform=" translate(1118.551200,23.499200) ">
      <!--emf-blob start-->
      <g transform="translate(-0.0000, -0.0000)">
        <path d="M 14.8632,1.9885 L 14.8632,3.0308 L 15.8172,3.0308 " stroke="#000000" stroke-width="0.1197" stroke-linecap="round" stroke-linejoin="round" fill="none"/>
        <path d="M 15.8172,1.9885 L 17.7002,1.9885 " stroke="#000000" stroke-width="0.1197" stroke-linecap="round" stroke-linejoin="round" fill="none"/>
        <path d="M 16.7462,1.9885 L 16.7462,3.0308 " stroke="#000000" stroke-width="0.1197" stroke-linecap="round" stroke-linejoin="round" fill="none"/>
        <path d="M 18.1773,1.9885 L 18.1773,3.0308 " stroke="#000000" stroke-width="0.1197" stroke-linecap="round" stroke-linejoin="round" fill="none"/>
        <path d="M 18.1773,1.9885 L 18.1773,3.0308 " stroke="#000000" stroke-width="0.1197" stroke-linecap="round" stroke-linejoin="round" fill="none"/>
        <path d="M 19.1062,3.0308 L 19.1062,1.9885 L 20.0603,3.0308 L 21.0143,1.9885 L 21.0143,3.0308 " stroke="#000000" stroke-width="0.1197" stroke-linecap="round" stroke-linejoin="round" fill="none"/>
        <path d="M 21.4662,3.0308 L 22.4203,1.9885 L 23.3744,3.0308 " stroke="#000000" stroke-width="0.1197" stroke-linecap="round" stroke-linejoin="round" fill="none"/>
        <path d="M 21.7173,2.7702 L 23.1233,2.7702 " stroke="#000000" stroke-width="0.1197" stroke-linecap="round" stroke-linejoin="round" fill="none"/>
        <path d="M 12.0261,3.0308 L 12.9802,1.9885 L 13.9342,3.0308 " stroke="#000000" stroke-width="0.1197" stroke-linecap="round" stroke-linejoin="round" fill="none"/>
        <path d="M 12.2772,2.7702 L 13.6832,2.7702 " stroke="#000000" stroke-width="0.1197" stroke-linecap="round" stroke-linejoin="round" fill="none"/>
        <path d="M 136.8005,0.0280 L 0.0281,0.0280 L 0.0281,12.3964 L 136.8005,12.3964 L 136.8005,0.0280 Z" stroke="#000000" stroke-width="0.1197" stroke-linecap="round" stroke-linejoin="round" fill="#EAEAEA"/>
        <path d="M 129.6019,0.0280 L 7.2267,0.0280 L 7.2267,12.3964 L 129.6019,12.3964 L 129.6019,0.0280 Z" stroke="#000000" stroke-width="0.1197" stroke-linecap="round" stroke-linejoin="round" fill="#EAEAEA"/>
        <path d="M 4.5834,2.0707 L 4.5834,1.9728 L 4.5694,1.8749 L 4.5413,1.7769 L 4.4991,1.6790 L 4.4147,1.5111 L 4.3585,1.4411 L 4.2179,1.3012 L 4.1476,1.2452 L 3.9789,1.1613 L 3.8805,1.1193 L 3.7820,1.0913 L 3.6836,1.0773 L 1.8137,1.0773 L 1.7153,1.0913 L 1.6169,1.1193 L 1.5184,1.1613 L 1.3497,1.2452 L 1.2794,1.3012 L 1.1388,1.4411 L 1.0826,1.5111 L 0.9982,1.6790 L 0.9561,1.7769 L 0.9279,1.8749 L 0.9139,1.9728 L 0.9139,2.1687 L 0.9279,2.2666 L 0.9561,2.3646 L 0.9982,2.4625 L 1.0826,2.6304 L 1.1388,2.7004 L 1.2794,2.8403 L 1.3497,2.8962 L 1.5184,2.9802 L 1.6169,3.0222 L 1.7153,3.0501 L 1.8137,3.0641 L 3.6836,3.0641 L 3.7820,3.0501 L 3.8805,3.0222 L 3.9789,2.9802 L 4.1476,2.8962 L 4.2179,2.8403 L 4.3585,2.7004 L 4.4147,2.6304 L 4.4991,2.4625 L 4.5413,2.3646 L 4.5694,2.2666 L 4.5834,2.1687 L 4.5834,2.0707 Z" stroke="#000000" stroke-width="0.1197" stroke-linecap="round" stroke-linejoin="round" fill="#FFFFFF"/>
        <path d="M 4.5834,10.3537 L 4.5834,10.2557 L 4.5694,10.1578 L 4.5413,10.0599 L 4.4991,9.9619 L 4.4147,9.7940 L 4.3585,9.7241 L 4.2179,9.5842 L 4.1476,9.5282 L 3.9789,9.4442 L 3.8805,9.4023 L 3.7820,9.3743 L 3.6836,9.3603 L 1.8137,9.3603 L 1.7153,9.3743 L 1.6169,9.4023 L 1.5184,9.4442 L 1.3497,9.5282 L 1.2794,9.5842 L 1.1388,9.7241 L 1.0826,9.7940 L 0.9982,9.9619 L 0.9561,10.0599 L 0.9279,10.1578 L 0.9139,10.2557 L 0.9139,10.4516 L 0.9279,10.5496 L 0.9561,10.6475 L 0.9982,10.7454 L 1.0826,10.9133 L 1.1388,10.9833 L 1.2794,11.1232 L 1.3497,11.1792 L 1.5184,11.2631 L 1.6169,11.3051 L 1.7153,11.3331 L 1.8137,11.3471 L 3.6836,11.3471 L 3.7820,11.3331 L 3.8805,11.3051 L 3.9789,11.2631 L 4.1476,11.1792 L 4.2179,11.1232 L 4.3585,10.9833 L 4.4147,10.9133 L 4.4991,10.7454 L 4.5413,10.6475 L 4.5694,10.5496 L 4.5834,10.4516 L 4.5834,10.3537 Z" stroke="#000000" stroke-width="0.1197" stroke-linecap="round" stroke-linejoin="round" fill="#FFFFFF"/>
        <path d="M 135.9288,2.0707 L 135.9288,1.9728 L 135.9147,1.8749 L 135.8866,1.7769 L 135.8444,1.6790 L 135.7600,1.5111 L 135.7038,1.4411 L 135.5632,1.3012 L 135.4929,1.2452 L 135.3242,1.1613 L 135.2258,1.1193 L 135.1274,1.0913 L 135.0289,1.0773 L 133.1590,1.0773 L 133.0606,1.0913 L 132.9622,1.1193 L 132.8638,1.1613 L 132.6950,1.2452 L 132.6247,1.3012 L 132.4841,1.4411 L 132.4279,1.5111 L 132.3436,1.6790 L 132.3014,1.7769 L 132.2733,1.8749 L 132.2592,1.9728 L 132.2592,2.1687 L 132.2733,2.2666 L 132.3014,2.3646 L 132.3436,2.4625 L 132.4279,2.6304 L 132.4841,2.7004 L 132.6247,2.8403 L 132.6950,2.8962 L 132.8638,2.9802 L 132.9622,3.0222 L 133.0606,3.0501 L 133.1590,3.0641 L 135.0289,3.0641 L 135.1274,3.0501 L 135.2258,3.0222 L 135.3242,2.9802 L 135.4929,2.8962 L 135.5632,2.8403 L 135.7038,2.7004 L 135.7600,2.6304 L 135.8444,2.4625 L 135.8866,2.3646 L 135.9147,2.2666 L 135.9288,2.1687 L 135.9288,2.0707 Z" stroke="#000000" stroke-width="0.1197" stroke-linecap="round" stroke-linejoin="round" fill="#FFFFFF"/>
        <path d="M 135.9288,10.3537 L 135.9288,10.2557 L 135.9147,10.1578 L 135.8866,10.0599 L 135.8444,9.9619 L 135.7600,9.7940 L 135.7038,9.7241 L 135.5632,9.5842 L 135.4929,9.5282 L 135.3242,9.4442 L 135.2258,9.4023 L 135.1274,9.3743 L 135.0289,9.3603 L 133.1590,9.3603 L 133.0606,9.3743 L 132.9622,9.4023 L 132.8638,9.4442 L 132.6950,9.5282 L 132.6247,9.5842 L 132.4841,9.7241 L 132.4279,9.7940 L 132.3436,9.9619 L 132.3014,10.0599 L 132.2733,10.1578 L 132.2592,10.2557 L 132.2592,10.4516 L 132.2733,10.5496 L 132.3014,10.6475 L 132.3436,10.7454 L 132.4279,10.9133 L 132.4841,10.9833 L 132.6247,11.1232 L 132.6950,11.1792 L 132.8638,11.2631 L 132.9622,11.3051 L 133.0606,11.3331 L 133.1590,11.3471 L 135.0289,11.3471 L 135.1274,11.3331 L 135.2258,11.3051 L 135.3242,11.2631 L 135.4929,11.1792 L 135.5632,11.1232 L 135.7038,10.9833 L 135.7600,10.9133 L 135.8444,10.7454 L 135.8866,10.6475 L 135.9147,10.5496 L 135.9288,10.4516 L 135.9288,10.3537 Z" stroke="#000000" stroke-width="0.1197" stroke-linecap="round" stroke-linejoin="round" fill="#FFFFFF"/>
        <path d="M 128.8146,1.0913 L 128.8146,1.0354 L 128.7865,0.9794 L 128.7724,0.9234 L 128.6880,0.8395 L 128.6318,0.8255 L 128.5756,0.7975 L 8.2530,0.7975 L 8.1968,0.8255 L 8.1405,0.8395 L 8.0562,0.9234 L 8.0421,0.9794 L 8.0140,1.0354 L 8.0140,11.4030 L 8.0421,11.4590 L 8.0562,11.5150 L 8.1405,11.5989 L 8.1968,11.6129 L 8.2530,11.6409 L 128.5756,11.6409 L 128.6318,11.6129 L 128.6880,11.5989 L 128.7724,11.5150 L 128.7865,11.4590 L 128.8146,11.4030 L 128.8146,11.3471 L 128.8146,1.0913 " stroke="#000000" stroke-width="0.1197" stroke-linecap="round" stroke-linejoin="round" fill="none"/>
        <path d="M 40.5340,2.3086 L 36.1474,2.3086 L 36.1474,10.1158 L 40.5340,10.1158 L 40.5340,2.3086 Z" stroke="#000000" stroke-width="0.1197" stroke-linecap="round" stroke-linejoin="round" fill="#BFBFBF"/>
        <path d="M 33.6729,11.2072 L 33.6729,11.1512 L 33.6448,11.1092 L 33.6307,11.0672 L 33.5463,10.9833 L 33.5042,10.9693 L 33.4620,10.9413 L 31.8592,10.9413 L 31.8170,10.9693 L 31.7748,10.9833 L 31.6905,11.0672 L 31.6764,11.1092 L 31.6483,11.1512 L 31.6483,11.2631 L 31.6764,11.3051 L 31.6905,11.3471 L 31.7748,11.4310 L 31.8170,11.4450 L 31.8592,11.4730 L 33.4620,11.4730 L 33.5042,11.4450 L 33.5463,11.4310 L 33.6307,11.3471 L 33.6448,11.3051 L 33.6729,11.2631 L 33.6729,11.2072 Z" stroke="#000000" stroke-width="0.1197" stroke-linecap="round" stroke-linejoin="round" fill="#494949"/>
        <path d="M 26.5868,11.2072 L 26.5868,11.1512 L 26.5587,11.1092 L 26.5446,11.0672 L 26.4603,10.9833 L 26.4181,10.9693 L 26.3759,10.9413 L 24.7731,10.9413 L 24.7309,10.9693 L 24.6888,10.9833 L 24.6044,11.0672 L 24.5903,11.1092 L 24.5622,11.1512 L 24.5622,11.2631 L 24.5903,11.3051 L 24.6044,11.3471 L 24.6888,11.4310 L 24.7309,11.4450 L 24.7731,11.4730 L 26.3759,11.4730 L 26.4181,11.4450 L 26.4603,11.4310 L 26.5446,11.3471 L 26.5587,11.3051 L 26.5868,11.2631 L 26.5868,11.2072 Z" stroke="#000000" stroke-width="0.1197" stroke-linecap="round" stroke-linejoin="round" fill="#494949"/>
        <ellipse cx="25.1738" cy="11.1442" rx="0.2039" ry="0.2029" fill="#BFBFBF" stroke="#000000" stroke-width="0.1197" stroke-linecap="round" stroke-linejoin="round"/>
        <ellipse cx="25.1738" cy="11.1442" rx="0.2039" ry="0.2029" fill="none" stroke="#000000" stroke-width="0.1197" stroke-linecap="round" stroke-linejoin="round"/>
        <ellipse cx="32.3442" cy="11.1442" rx="0.2039" ry="0.2029" fill="#BFBFBF" stroke="#000000" stroke-width="0.1197" stroke-linecap="round" stroke-linejoin="round"/>
        <ellipse cx="32.3442" cy="11.1442" rx="0.2039" ry="0.2029" fill="none" stroke="#000000" stroke-width="0.1197" stroke-linecap="round" stroke-linejoin="round"/>
        <path d="M 77.6655,1.2452 L 40.8011,1.2452 L 40.8011,11.1792 L 86.5794,11.1792 L 86.5794,6.2122 L 77.6655,6.2122 L 77.6655,1.2452 Z" stroke="#AFAFAF" stroke-width="0.1197" stroke-linecap="round" stroke-linejoin="round" fill="#BFBFBF"/>
        <path d="M 58.4601,2.3086 L 54.3546,2.3086 L 54.3546,10.1158 L 58.4601,10.1158 L 58.4601,2.3086 Z" stroke="#000000" stroke-width="0.1197" stroke-linecap="round" stroke-linejoin="round" fill="#BFBFBF"/>
        <path d="M 58.4601,5.3727 L 54.3546,5.3727 L 54.3546,7.0657 L 58.4601,7.0657 L 58.4601,5.3727 Z" stroke="#000000" stroke-width="0.1197" stroke-linecap="round" stroke-linejoin="round" fill="#BFBFBF"/>
        <path d="M 54.3265,2.3086 L 50.2211,2.3086 L 50.2211,10.1158 L 54.3265,10.1158 L 54.3265,2.3086 Z" stroke="#000000" stroke-width="0.1197" stroke-linecap="round" stroke-linejoin="round" fill="#BFBFBF"/>
        <path d="M 54.3265,5.3727 L 50.2211,5.3727 L 50.2211,7.0657 L 54.3265,7.0657 L 54.3265,5.3727 Z" stroke="#000000" stroke-width="0.1197" stroke-linecap="round" stroke-linejoin="round" fill="#BFBFBF"/>
        <path d="M 50.1930,2.3086 L 46.0876,2.3086 L 46.0876,10.1158 L 50.1930,10.1158 L 50.1930,2.3086 Z" stroke="#000000" stroke-width="0.1197" stroke-linecap="round" stroke-linejoin="round" fill="#BFBFBF"/>
        <path d="M 50.1930,5.3727 L 46.0876,5.3727 L 46.0876,7.0657 L 50.1930,7.0657 L 50.1930,5.3727 Z" stroke="#000000" stroke-width="0.1197" stroke-linecap="round" stroke-linejoin="round" fill="#BFBFBF"/>
        <path d="M 46.0594,2.3086 L 41.9540,2.3086 L 41.9540,10.1158 L 46.0594,10.1158 L 46.0594,2.3086 Z" stroke="#000000" stroke-width="0.1197" stroke-linecap="round" stroke-linejoin="round" fill="#BFBFBF"/>
        <path d="M 46.0594,5.3727 L 41.9540,5.3727 L 41.9540,7.0657 L 46.0594,7.0657 L 46.0594,5.3727 Z" stroke="#000000" stroke-width="0.1197" stroke-linecap="round" stroke-linejoin="round" fill="#BFBFBF"/>
        <path d="M 42.6570,6.6180 L 43.0647,5.9044 L 42.2493,5.9044 L 42.6570,6.6180 Z" stroke="#494949" stroke-width="0.1197" stroke-linecap="round" stroke-linejoin="round" fill="#00FF00"/>
        <path d="M 45.3705,5.9044 L 44.9628,6.6180 L 45.7782,6.6180 L 45.3705,5.9044 Z" stroke="#494949" stroke-width="0.1197" stroke-linecap="round" stroke-linejoin="round" fill="#00FF00"/>
        <path d="M 55.0576,6.6180 L 55.4653,5.9044 L 54.6499,5.9044 L 55.0576,6.6180 Z" stroke="#494949" stroke-width="0.1197" stroke-linecap="round" stroke-linejoin="round" fill="#00FF00"/>
        <path d="M 57.7711,5.9044 L 57.3634,6.6180 L 58.1789,6.6180 L 57.7711,5.9044 Z" stroke="#494949" stroke-width="0.1197" stroke-linecap="round" stroke-linejoin="round" fill="#00FF00"/>
        <path d="M 46.7765,6.6180 L 47.1842,5.9044 L 46.3687,5.9044 L 46.7765,6.6180 Z" stroke="#494949" stroke-width="0.1197" stroke-linecap="round" stroke-linejoin="round" fill="#00FF00"/>
        <path d="M 49.4900,5.9044 L 49.0823,6.6180 L 49.8977,6.6180 L 49.4900,5.9044 Z" stroke="#494949" stroke-width="0.1197" stroke-linecap="round" stroke-linejoin="round" fill="#00FF00"/>
        <path d="M 50.9100,6.6180 L 51.3177,5.9044 L 50.5023,5.9044 L 50.9100,6.6180 Z" stroke="#494949" stroke-width="0.1197" stroke-linecap="round" stroke-linejoin="round" fill="#00FF00"/>
        <path d="M 53.6235,5.9044 L 53.2158,6.6180 L 54.0313,6.6180 L 53.6235,5.9044 Z" stroke="#494949" stroke-width="0.1197" stroke-linecap="round" stroke-linejoin="round" fill="#00FF00"/>
        <path d="M 34.8539,6.2262 L 30.4673,6.2262 L 30.4673,10.1158 L 34.8539,10.1158 L 34.8539,6.2262 Z" stroke="#000000" stroke-width="0.1197" stroke-linecap="round" stroke-linejoin="round" fill="#BFBFBF"/>
        <path d="M 86.5794,11.1792 L 123.4438,11.1792 L 123.4438,1.2452 L 77.6655,1.2452 L 77.6655,6.2122 L 86.5794,6.2122 L 86.5794,11.1792 Z" stroke="#EFEFE3" stroke-width="0.1197" stroke-linecap="round" stroke-linejoin="round" fill="#EFEFE3"/>
        <path d="M 11.1774,2.3226 L 11.1774,2.2946 L 11.1352,2.2107 L 11.0509,2.1687 L 10.9947,2.1687 L 10.9103,2.2107 L 10.8681,2.2946 L 10.8681,4.4073 L 10.9103,4.4913 L 10.9947,4.5332 L 11.0509,4.5332 L 11.1352,4.4913 L 11.1774,4.4073 L 11.1774,4.3793 L 11.1774,2.3226 Z" stroke="#9BCC9B" stroke-width="0.1197" stroke-linecap="round" stroke-linejoin="round" fill="#9BCC9B"/>
        <path d="M 10.3057,2.3226 L 10.3057,2.2946 L 10.2635,2.2107 L 10.1792,2.1687 L 10.1230,2.1687 L 10.0386,2.2107 L 9.9964,2.2946 L 9.9964,4.4073 L 10.0386,4.4913 L 10.1230,4.5332 L 10.1792,4.5332 L 10.2635,4.4913 L 10.3057,4.4073 L 10.3057,4.3793 L 10.3057,2.3226 Z" stroke="#9BCC9B" stroke-width="0.1197" stroke-linecap="round" stroke-linejoin="round" fill="#9BCC9B"/>
        <path d="M 9.4481,2.3226 L 9.4481,2.2946 L 9.4059,2.2107 L 9.3216,2.1687 L 9.2653,2.1687 L 9.1810,2.2107 L 9.1388,2.2946 L 9.1388,4.4073 L 9.1810,4.4913 L 9.2653,4.5332 L 9.3216,4.5332 L 9.4059,4.4913 L 9.4481,4.4073 L 9.4481,4.3793 L 9.4481,2.3226 Z" stroke="#9BCC9B" stroke-width="0.1197" stroke-linecap="round" stroke-linejoin="round" fill="#9BCC9B"/>
        <path d="M 76.4283,2.3086 L 59.9223,2.3086 L 59.9223,10.1158 L 76.4283,10.1158 L 76.4283,2.3086 Z" stroke="#000000" stroke-width="0.1197" stroke-linecap="round" stroke-linejoin="round" fill="#BFBFBF"/>
        <path d="M 84.1330,2.3086 L 80.0276,2.3086 L 80.0276,10.1158 L 84.1330,10.1158 L 84.1330,2.3086 Z" stroke="#000000" stroke-width="0.1197" stroke-linecap="round" stroke-linejoin="round" fill="#BFBFBF"/>
        <path d="M 84.1330,5.3727 L 80.0276,5.3727 L 80.0276,7.0657 L 84.1330,7.0657 L 84.1330,5.3727 Z" stroke="#000000" stroke-width="0.1197" stroke-linecap="round" stroke-linejoin="round" fill="#BFBFBF"/>
        <path d="M 80.7305,6.6180 L 81.1383,5.9044 L 80.3228,5.9044 L 80.7305,6.6180 Z" stroke="#494949" stroke-width="0.1197" stroke-linecap="round" stroke-linejoin="round" fill="#00FF00"/>
        <path d="M 83.4441,5.9044 L 83.0363,6.6180 L 83.8518,6.6180 L 83.4441,5.9044 Z" stroke="#494949" stroke-width="0.1197" stroke-linecap="round" stroke-linejoin="round" fill="#00FF00"/>
        <path d="M 104.2383,2.3086 L 100.1329,2.3086 L 100.1329,10.1158 L 104.2383,10.1158 L 104.2383,2.3086 Z" stroke="#000000" stroke-width="0.1197" stroke-linecap="round" stroke-linejoin="round" fill="#BFBFBF"/>
        <path d="M 104.2383,5.3727 L 100.1329,5.3727 L 100.1329,7.0657 L 104.2383,7.0657 L 104.2383,5.3727 Z" stroke="#000000" stroke-width="0.1197" stroke-linecap="round" stroke-linejoin="round" fill="#BFBFBF"/>
        <path d="M 100.1048,2.3086 L 95.9993,2.3086 L 95.9993,10.1158 L 100.1048,10.1158 L 100.1048,2.3086 Z" stroke="#000000" stroke-width="0.1197" stroke-linecap="round" stroke-linejoin="round" fill="#BFBFBF"/>
        <path d="M 100.1048,5.3727 L 95.9993,5.3727 L 95.9993,7.0657 L 100.1048,7.0657 L 100.1048,5.3727 Z" stroke="#000000" stroke-width="0.1197" stroke-linecap="round" stroke-linejoin="round" fill="#BFBFBF"/>
        <path d="M 95.9712,2.3086 L 91.8658,2.3086 L 91.8658,10.1158 L 95.9712,10.1158 L 95.9712,2.3086 Z" stroke="#000000" stroke-width="0.1197" stroke-linecap="round" stroke-linejoin="round" fill="#BFBFBF"/>
        <path d="M 95.9712,5.3727 L 91.8658,5.3727 L 91.8658,7.0657 L 95.9712,7.0657 L 95.9712,5.3727 Z" stroke="#000000" stroke-width="0.1197" stroke-linecap="round" stroke-linejoin="round" fill="#BFBFBF"/>
        <path d="M 91.8377,2.3086 L 87.7323,2.3086 L 87.7323,10.1158 L 91.8377,10.1158 L 91.8377,2.3086 Z" stroke="#000000" stroke-width="0.1197" stroke-linecap="round" stroke-linejoin="round" fill="#BFBFBF"/>
        <path d="M 91.8377,5.3727 L 87.7323,5.3727 L 87.7323,7.0657 L 91.8377,7.0657 L 91.8377,5.3727 Z" stroke="#000000" stroke-width="0.1197" stroke-linecap="round" stroke-linejoin="round" fill="#BFBFBF"/>
        <path d="M 88.4352,6.6180 L 88.8430,5.9044 L 88.0275,5.9044 L 88.4352,6.6180 Z" stroke="#494949" stroke-width="0.1197" stroke-linecap="round" stroke-linejoin="round" fill="#00FF00"/>
        <path d="M 91.1488,5.9044 L 90.7410,6.6180 L 91.5565,6.6180 L 91.1488,5.9044 Z" stroke="#494949" stroke-width="0.1197" stroke-linecap="round" stroke-linejoin="round" fill="#00FF00"/>
        <path d="M 100.8359,6.6180 L 101.2436,5.9044 L 100.4281,5.9044 L 100.8359,6.6180 Z" stroke="#494949" stroke-width="0.1197" stroke-linecap="round" stroke-linejoin="round" fill="#00FF00"/>
        <path d="M 103.5494,5.9044 L 103.1416,6.6180 L 103.9571,6.6180 L 103.5494,5.9044 Z" stroke="#494949" stroke-width="0.1197" stroke-linecap="round" stroke-linejoin="round" fill="#00FF00"/>
        <path d="M 92.5547,6.6180 L 92.9625,5.9044 L 92.1470,5.9044 L 92.5547,6.6180 Z" stroke="#494949" stroke-width="0.1197" stroke-linecap="round" stroke-linejoin="round" fill="#00FF00"/>
        <path d="M 95.2682,5.9044 L 94.8605,6.6180 L 95.6760,6.6180 L 95.2682,5.9044 Z" stroke="#494949" stroke-width="0.1197" stroke-linecap="round" stroke-linejoin="round" fill="#00FF00"/>
        <path d="M 96.6883,6.6180 L 97.0960,5.9044 L 96.2805,5.9044 L 96.6883,6.6180 Z" stroke="#494949" stroke-width="0.1197" stroke-linecap="round" stroke-linejoin="round" fill="#00FF00"/>
        <path d="M 99.4018,5.9044 L 98.9940,6.6180 L 99.8095,6.6180 L 99.4018,5.9044 Z" stroke="#494949" stroke-width="0.1197" stroke-linecap="round" stroke-linejoin="round" fill="#00FF00"/>
        <path d="M 80.7727,10.9273 L 81.0680,10.4236 L 80.4775,10.4236 L 80.7727,10.9273 Z" stroke="#494949" stroke-width="0.1197" stroke-linecap="round" stroke-linejoin="round" fill="#00FF00"/>
        <path d="M 83.3878,10.4236 L 83.0926,10.9273 L 83.6831,10.9273 L 83.3878,10.4236 Z" stroke="#494949" stroke-width="0.1197" stroke-linecap="round" stroke-linejoin="round" fill="#00FF00"/>
        <path d="M 39.9716,6.2122 L 39.9716,6.1842 L 39.9294,6.1003 L 39.8451,6.0583 L 36.8363,6.0583 L 36.7519,6.1003 L 36.7098,6.1842 L 36.7098,6.2402 L 36.7519,6.3241 L 36.8363,6.3661 L 39.8451,6.3661 L 39.9294,6.3241 L 39.9716,6.2402 L 39.9716,6.2122 Z" stroke="#000000" stroke-width="0.1197" stroke-linecap="round" stroke-linejoin="round" fill="#BFBFBF"/>
        <path d="M 76.0627,6.2122 L 76.0627,6.1842 L 76.0206,6.1003 L 75.9362,6.0583 L 60.4284,6.0583 L 60.3440,6.1003 L 60.3019,6.1842 L 60.3019,6.2402 L 60.3440,6.3241 L 60.4284,6.3661 L 75.9362,6.3661 L 76.0206,6.3241 L 76.0627,6.2402 L 76.0627,6.2122 Z" stroke="#000000" stroke-width="0.1197" stroke-linecap="round" stroke-linejoin="round" fill="#BFBFBF"/>
        <path d="M 122.2065,2.3086 L 105.7005,2.3086 L 105.7005,10.1158 L 122.2065,10.1158 L 122.2065,2.3086 Z" stroke="#000000" stroke-width="0.1197" stroke-linecap="round" stroke-linejoin="round" fill="#BFBFBF"/>
        <path d="M 121.8410,6.2122 L 121.8410,6.1842 L 121.7988,6.1003 L 121.7144,6.0583 L 106.2066,6.0583 L 106.1223,6.1003 L 106.0801,6.1842 L 106.0801,6.2402 L 106.1223,6.3241 L 106.2066,6.3661 L 121.7144,6.3661 L 121.7988,6.3241 L 121.8410,6.2402 L 121.8410,6.2122 Z" stroke="#000000" stroke-width="0.1197" stroke-linecap="round" stroke-linejoin="round" fill="#BFBFBF"/>
        <path d="M 11.9465,3.1226 L 11.9267,3.1226 L 11.9169,3.1131 L 11.9070,3.1131 L 11.8774,3.0846 L 11.8774,3.0751 L 11.8676,3.0656 L 11.8676,1.9647 L 11.8774,1.9552 L 11.8774,1.9457 L 11.8873,1.9362 L 11.8972,1.9362 L 11.8972,1.9267 L 11.9070,1.9172 L 11.9169,1.9172 L 11.9267,1.9077 L 13.2684,1.9077 L 13.2782,1.9172 L 13.2881,1.9172 L 13.3177,1.9457 L 13.3177,1.9552 L 13.3276,1.9647 L 13.3276,2.1830 L 13.3177,2.1830 L 13.3177,2.1735 L 13.3078,2.1735 L 13.3078,2.1640 L 13.2980,2.1640 L 13.2980,2.1545 L 13.2782,2.1545 L 13.2782,2.1450 L 12.1931,2.1450 L 12.1931,2.1545 L 12.1734,2.1545 L 12.1734,2.1640 L 12.1635,2.1640 L 12.1635,2.1830 L 12.1536,2.1830 L 12.1536,3.0846 L 12.1635,3.0846 L 12.1635,3.1036 L 12.1734,3.1036 L 12.1734,3.1131 L 12.1832,3.1131 L 12.1832,3.1226 L 11.9563,3.1226 L 11.9465,3.1226 Z" stroke="#000000" stroke-width="0.1197" stroke-linecap="round" stroke-linejoin="round" fill="#000000"/>
        <path d="M 13.2289,2.4202 L 12.2523,2.4202 L 12.2523,2.4108 L 12.2326,2.4108 L 12.2326,2.4013 L 12.2227,2.4013 L 12.2227,2.3823 L 12.2128,2.3823 L 12.2128,2.6196 L 12.2227,2.6196 L 12.2227,2.6385 L 12.2326,2.6385 L 12.2326,2.6480 L 12.2523,2.6480 L 12.2523,2.6575 L 13.2487,2.6575 L 13.2684,2.6385 L 13.2782,2.6385 L 13.2980,2.6196 L 13.2980,2.6101 L 13.3078,2.6006 L 13.3078,2.5911 L 13.3177,2.5816 L 13.3177,2.5626 L 13.3276,2.5531 L 13.3276,2.5246 L 13.3177,2.5152 L 13.3177,2.4867 L 13.2980,2.4677 L 13.2980,2.4582 L 13.2881,2.4487 L 13.2782,2.4487 L 13.2782,2.4392 L 13.2684,2.4392 L 13.2585,2.4297 L 13.2487,2.4297 L 13.2388,2.4202 L 13.2289,2.4202 Z" stroke="#000000" stroke-width="0.1197" stroke-linecap="round" stroke-linejoin="round" fill="#000000"/>
        <path d="M 15.5077,2.6575 L 15.4880,2.6575 L 15.4880,2.6480 L 15.4683,2.6480 L 15.4683,2.6385 L 15.4584,2.6385 L 15.4584,2.6196 L 15.4485,2.6196 L 15.4485,2.3823 L 15.4584,2.3823 L 15.4584,2.4013 L 15.4683,2.4013 L 15.4683,2.4108 L 15.4880,2.4108 L 15.4880,2.4202 L 16.2772,2.4202 L 16.2772,2.1450 L 15.4288,2.1450 L 15.4288,2.1545 L 15.4091,2.1545 L 15.4091,2.1640 L 15.3992,2.1640 L 15.3992,2.1830 L 15.3893,2.1830 L 15.3893,3.0846 L 15.3992,3.0846 L 15.3992,3.1036 L 15.4091,3.1036 L 15.4091,3.1131 L 15.4189,3.1131 L 15.4189,3.1226 L 15.1625,3.1226 L 15.1526,3.1131 L 15.1427,3.1131 L 15.1131,3.0846 L 15.1131,3.0751 L 15.1033,3.0656 L 15.1033,1.9647 L 15.1131,1.9552 L 15.1131,1.9457 L 15.1230,1.9362 L 15.1329,1.9362 L 15.1329,1.9267 L 15.1427,1.9172 L 15.1526,1.9172 L 15.1625,1.9077 L 16.5041,1.9077 L 16.5140,1.9172 L 16.5238,1.9172 L 16.5534,1.9457 L 16.5534,1.9552 L 16.5633,1.9647 L 16.5633,2.5626 L 16.5534,2.5721 L 16.5534,2.5911 L 16.5436,2.5911 L 16.5436,2.6006 L 16.5337,2.6101 L 16.5337,2.6196 L 16.5238,2.6196 L 16.5238,2.6291 L 16.5140,2.6291 L 16.5140,2.6385 L 16.5041,2.6385 L 16.5041,2.6480 L 16.4942,2.6480 L 16.4844,2.6575 L 16.4942,2.6670 L 16.5041,2.6670 L 16.5041,2.6765 L 16.5140,2.6765 L 16.5140,2.6860 L 16.5238,2.6860 L 16.5238,2.6955 L 16.5337,2.6955 L 16.5337,2.7050 L 16.5436,2.7145 L 16.5436,2.7240 L 16.5534,2.7240 L 16.5534,2.7429 L 16.5633,2.7524 L 16.5633,3.0846 L 16.5731,3.0846 L 16.5731,3.1036 L 16.5830,3.1036 L 16.5830,3.1131 L 16.5929,3.1131 L 16.5929,3.1226 L 16.3364,3.1226 L 16.3265,3.1131 L 16.3167,3.1131 L 16.2871,3.0846 L 16.2871,3.0751 L 16.2772,3.0656 L 16.2772,2.6575 L 15.5176,2.6575 L 15.5077,2.6575 Z" stroke="#000000" stroke-width="0.1197" stroke-linecap="round" stroke-linejoin="round" fill="#000000"/>
        <path d="M 17.0763,2.1450 L 16.7803,2.1450 L 16.7704,2.1355 L 16.7606,2.1355 L 16.7310,2.1070 L 16.7310,2.0975 L 16.7211,2.0881 L 16.7211,1.9647 L 16.7310,1.9552 L 16.7310,1.9457 L 16.7409,1.9362 L 16.7507,1.9362 L 16.7507,1.9267 L 16.7606,1.9172 L 16.7704,1.9172 L 16.7803,1.9077 L 18.1219,1.9077 L 18.1318,1.9172 L 18.1417,1.9172 L 18.1713,1.9457 L 18.1713,1.9552 L 18.1811,1.9647 L 18.1811,2.1830 L 18.1713,2.1830 L 18.1713,2.1735 L 18.1614,2.1735 L 18.1614,2.1640 L 18.1515,2.1640 L 18.1515,2.1545 L 18.1318,2.1545 L 18.1318,2.1450 L 17.4018,2.1450 L 17.4018,2.1545 L 17.3821,2.1545 L 17.3821,2.1640 L 17.3722,2.1640 L 17.3722,2.1830 L 17.3623,2.1830 L 17.3623,3.0846 L 17.3722,3.0846 L 17.3722,3.1036 L 17.3821,3.1036 L 17.3821,3.1131 L 17.3919,3.1131 L 17.3919,3.1226 L 17.1354,3.1226 L 17.1256,3.1131 L 17.1157,3.1131 L 17.0861,3.0846 L 17.0861,3.0751 L 17.0763,3.0656 L 17.0763,2.1735 L 17.0763,2.1450 Z" stroke="#000000" stroke-width="0.1197" stroke-linecap="round" stroke-linejoin="round" fill="#000000"/>
        <path d="M 18.6251,3.0562 L 18.6251,3.0846 L 18.6349,3.0846 L 18.6349,3.1036 L 18.6448,3.1036 L 18.6448,3.1131 L 18.6547,3.1131 L 18.6547,3.1226 L 18.3982,3.1226 L 18.3883,3.1131 L 18.3784,3.1131 L 18.3488,3.0846 L 18.3488,3.0751 L 18.3390,3.0656 L 18.3390,1.9457 L 18.3291,1.9457 L 18.3291,1.9267 L 18.3192,1.9267 L 18.3192,1.9172 L 18.3094,1.9172 L 18.3094,1.9077 L 18.5659,1.9077 L 18.5757,1.9172 L 18.5856,1.9172 L 18.6152,1.9457 L 18.6152,1.9552 L 18.6251,1.9647 L 18.6251,3.0467 L 18.6251,3.0562 Z" stroke="#000000" stroke-width="0.1197" stroke-linecap="round" stroke-linejoin="round" fill="#000000"/>
        <path d="M 20.0259,2.1450 L 19.1775,2.1450 L 19.1775,2.1545 L 19.1578,2.1545 L 19.1578,2.1640 L 19.1479,2.1640 L 19.1479,2.1830 L 19.1380,2.1830 L 19.1380,3.0846 L 19.1479,3.0846 L 19.1479,3.1036 L 19.1578,3.1036 L 19.1578,3.1131 L 19.1676,3.1131 L 19.1676,3.1226 L 18.9111,3.1226 L 18.9013,3.1131 L 18.8914,3.1131 L 18.8618,3.0846 L 18.8618,3.0751 L 18.8520,3.0656 L 18.8520,1.9647 L 18.8618,1.9552 L 18.8618,1.9457 L 18.8717,1.9362 L 18.8815,1.9362 L 18.8815,1.9267 L 18.8914,1.9172 L 18.9013,1.9172 L 18.9111,1.9077 L 20.2528,1.9077 L 20.2626,1.9172 L 20.2725,1.9172 L 20.3021,1.9457 L 20.3021,1.9552 L 20.3120,1.9647 L 20.3120,3.0846 L 20.3218,3.0846 L 20.3218,3.1036 L 20.3317,3.1036 L 20.3317,3.1131 L 20.3416,3.1131 L 20.3416,3.1226 L 20.0851,3.1226 L 20.0752,3.1131 L 20.0653,3.1131 L 20.0357,3.0846 L 20.0357,3.0751 L 20.0259,3.0656 L 20.0259,2.1735 L 20.0259,2.1450 Z" stroke="#000000" stroke-width="0.1197" stroke-linecap="round" stroke-linejoin="round" fill="#000000"/>
        <path d="M 21.7621,2.4202 L 20.8545,2.4202 L 20.8447,2.4108 L 20.8348,2.4108 L 20.8348,2.4013 L 20.8249,2.4013 L 20.8249,2.3823 L 20.8151,2.3823 L 20.8151,2.6196 L 20.8249,2.6196 L 20.8249,2.6385 L 20.8348,2.6385 L 20.8348,2.6480 L 20.8447,2.6480 L 20.8545,2.6575 L 21.7720,2.6575 L 21.7917,2.6385 L 21.8016,2.6385 L 21.8213,2.6196 L 21.8213,2.6101 L 21.8312,2.6006 L 21.8312,2.5911 L 21.8410,2.5816 L 21.8410,2.5626 L 21.8509,2.5531 L 21.8509,2.5152 L 21.8410,2.5057 L 21.8410,2.4772 L 21.8312,2.4772 L 21.8312,2.4677 L 21.8016,2.4392 L 21.7917,2.4392 L 21.7917,2.4297 L 21.7818,2.4297 L 21.7720,2.4202 L 21.7621,2.4202 Z" stroke="#000000" stroke-width="0.1197" stroke-linecap="round" stroke-linejoin="round" fill="#000000"/>
        <path d="M 22.4428,2.1450 L 22.1469,2.1450 L 22.1370,2.1355 L 22.1271,2.1355 L 22.0975,2.1070 L 22.0975,2.0975 L 22.0877,2.0881 L 22.0877,1.9647 L 22.0975,1.9552 L 22.0975,1.9457 L 22.1074,1.9362 L 22.1173,1.9362 L 22.1173,1.9267 L 22.1271,1.9172 L 22.1370,1.9172 L 22.1469,1.9077 L 23.4885,1.9077 L 23.4984,1.9172 L 23.5082,1.9172 L 23.5378,1.9457 L 23.5378,1.9552 L 23.5477,1.9647 L 23.5477,2.1830 L 23.5378,2.1830 L 23.5378,2.1735 L 23.5279,2.1735 L 23.5279,2.1640 L 23.5181,2.1640 L 23.5181,2.1545 L 23.4984,2.1545 L 23.4984,2.1450 L 22.7683,2.1450 L 22.7683,2.1545 L 22.7486,2.1545 L 22.7486,2.1640 L 22.7388,2.1640 L 22.7388,2.1830 L 22.7289,2.1830 L 22.7289,3.0846 L 22.7388,3.0846 L 22.7388,3.1036 L 22.7486,3.1036 L 22.7486,3.1131 L 22.7585,3.1131 L 22.7585,3.1226 L 22.5020,3.1226 L 22.4921,3.1131 L 22.4823,3.1131 L 22.4527,3.0846 L 22.4527,3.0751 L 22.4428,3.0656 L 22.4428,2.1735 L 22.4428,2.1450 Z" stroke="#000000" stroke-width="0.1197" stroke-linecap="round" stroke-linejoin="round" fill="#000000"/>
        <path d="M 21.8608,2.8853 L 21.8805,2.8853 L 21.8805,2.8758 L 21.9002,2.8758 L 21.9002,2.8663 L 21.9101,2.8663 L 21.9101,2.8568 L 21.9200,2.8568 L 21.9200,2.8473 L 21.9298,2.8473 L 21.9298,3.0656 L 21.9200,3.0751 L 21.9200,3.0846 L 21.9101,3.0941 L 21.9101,3.1036 L 21.9002,3.1036 L 21.8904,3.1131 L 21.8805,3.1131 L 21.8706,3.1226 L 20.5290,3.1226 L 20.5191,3.1131 L 20.5093,3.1131 L 20.4797,3.0846 L 20.4797,3.0751 L 20.4698,3.0656 L 20.4698,1.9647 L 20.4797,1.9552 L 20.4797,1.9457 L 20.4895,1.9362 L 20.4994,1.9362 L 20.4994,1.9267 L 20.5093,1.9172 L 20.5191,1.9172 L 20.5290,1.9077 L 21.8706,1.9077 L 21.8805,1.9172 L 21.8904,1.9172 L 21.9200,1.9457 L 21.9200,1.9552 L 21.9298,1.9647 L 21.9298,2.1830 L 21.9200,2.1830 L 21.9200,2.1735 L 21.9101,2.1735 L 21.9101,2.1640 L 21.9002,2.1640 L 21.9002,2.1545 L 21.8805,2.1545 L 21.8805,2.1450 L 20.7954,2.1450 L 20.7954,2.1545 L 20.7756,2.1545 L 20.7756,2.1640 L 20.7658,2.1640 L 20.7658,2.1830 L 20.7559,2.1830 L 20.7559,2.8853 L 21.8509,2.8853 L 21.8608,2.8853 Z" stroke="#000000" stroke-width="0.1197" stroke-linecap="round" stroke-linejoin="round" fill="#000000"/>
        <path d="M 13.9787,2.7714 L 13.9787,3.1226 L 14.4522,3.1226 L 14.4522,2.7714 L 13.9787,2.7714 Z" stroke="#ED3440" stroke-width="0.1197" stroke-linecap="round" stroke-linejoin="round" fill="#ED3440"/>
        <path d="M 13.4854,2.3443 L 13.8899,2.3443 L 13.8899,2.6860 L 13.4854,2.6860 L 13.4854,2.3443 Z" stroke="#ED3440" stroke-width="0.1197" stroke-linecap="round" stroke-linejoin="round" fill="#ED3440"/>
        <path d="M 14.5410,2.7714 L 14.5410,3.1226 L 14.6889,3.1226 L 14.6988,3.1131 L 14.7383,3.1131 L 14.7481,3.1036 L 14.7679,3.1036 L 14.7876,3.0941 L 14.7975,3.0846 L 14.8172,3.0751 L 14.8369,3.0562 L 14.8566,3.0467 L 14.8665,3.0372 L 14.8764,3.0182 L 14.8862,3.0087 L 14.9257,2.9328 L 14.9257,2.9138 L 14.9356,2.8853 L 14.9356,2.8568 L 14.9454,2.8284 L 14.9454,2.7714 L 14.5508,2.7714 L 14.5410,2.7714 Z" stroke="#ED3440" stroke-width="0.1197" stroke-linecap="round" stroke-linejoin="round" fill="#ED3440"/>
        <path d="M 14.5410,2.3443 L 14.9454,2.3443 L 14.9454,2.6860 L 14.5410,2.6860 L 14.5410,2.3443 Z" stroke="#ED3440" stroke-width="0.1197" stroke-linecap="round" stroke-linejoin="round" fill="#ED3440"/>
        <path d="M 13.8899,2.7714 L 13.8899,3.1226 L 13.7419,3.1226 L 13.7320,3.1131 L 13.6926,3.1131 L 13.6827,3.1036 L 13.6630,3.1036 L 13.6433,3.0941 L 13.6334,3.0846 L 13.6137,3.0751 L 13.5939,3.0562 L 13.5742,3.0467 L 13.5643,3.0372 L 13.5545,3.0182 L 13.5446,3.0087 L 13.5051,2.9328 L 13.5051,2.9138 L 13.4953,2.8853 L 13.4953,2.8568 L 13.4854,2.8284 L 13.4854,2.7714 L 13.8800,2.7714 L 13.8899,2.7714 Z" stroke="#ED3440" stroke-width="0.1197" stroke-linecap="round" stroke-linejoin="round" fill="#ED3440"/>
        <path d="M 13.9787,1.9077 L 13.9787,2.2589 L 14.4522,2.2589 L 14.4522,1.9077 L 13.9787,1.9077 Z" stroke="#ED3440" stroke-width="0.1197" stroke-linecap="round" stroke-linejoin="round" fill="#ED3440"/>
        <path d="M 14.5410,2.2589 L 14.5410,1.9077 L 14.6889,1.9077 L 14.6988,1.9172 L 14.7383,1.9172 L 14.7481,1.9267 L 14.7679,1.9267 L 14.7876,1.9362 L 14.7975,1.9457 L 14.8172,1.9552 L 14.8369,1.9742 L 14.8566,1.9837 L 14.8665,1.9931 L 14.8764,2.0121 L 14.8862,2.0216 L 14.9257,2.0975 L 14.9257,2.1165 L 14.9356,2.1450 L 14.9356,2.1735 L 14.9454,2.2019 L 14.9454,2.2589 L 14.5508,2.2589 L 14.5410,2.2589 Z" stroke="#ED3440" stroke-width="0.1197" stroke-linecap="round" stroke-linejoin="round" fill="#ED3440"/>
        <path d="M 13.8899,2.2589 L 13.8899,1.9077 L 13.7419,1.9077 L 13.7320,1.9172 L 13.6926,1.9172 L 13.6827,1.9267 L 13.6630,1.9267 L 13.6433,1.9362 L 13.6334,1.9457 L 13.6137,1.9552 L 13.5939,1.9742 L 13.5742,1.9837 L 13.5643,1.9931 L 13.5545,2.0121 L 13.5446,2.0216 L 13.5051,2.0975 L 13.5051,2.1165 L 13.4953,2.1450 L 13.4953,2.1735 L 13.4854,2.2019 L 13.4854,2.2589 L 13.8800,2.2589 L 13.8899,2.2589 Z" stroke="#ED3440" stroke-width="0.1197" stroke-linecap="round" stroke-linejoin="round" fill="#ED3440"/>
        <text font-family="Symbol" fill="#000000" style="white-space:pre;" text-anchor="start" x="22.8920" y="3.1270" font-size="0.4820"><![CDATA[]]></text>
        <text font-family="Arial" fill="#000000" style="white-space:pre;" font-weight="400" text-anchor="start" x="24.5825" y="3.4877" font-size="0.1697"><![CDATA[FortiGate 900D]]></text>
        <path d="M 15.7228,7.3985 L 15.0264,7.3985 L 15.0264,8.0932 L 15.7228,8.0932 L 15.7228,7.3985 Z" stroke="#000000" stroke-width="0.1197" stroke-linecap="round" stroke-linejoin="round" fill="#00FF00"/>
        <path d="M 11.9445,9.2568 L 11.2480,9.2568 L 11.2480,9.9515 L 11.9445,9.9515 L 11.9445,9.2568 Z" stroke="#000000" stroke-width="0.1197" stroke-linecap="round" stroke-linejoin="round" fill="#00FF00"/>
        <path d="M 15.7228,9.2568 L 15.0264,9.2568 L 15.0264,9.9515 L 15.7228,9.9515 L 15.7228,9.2568 Z" stroke="#000000" stroke-width="0.1197" stroke-linecap="round" stroke-linejoin="round" fill="#00FF00"/>
        <text font-family="Arial" fill="#000000" style="white-space:pre;" font-weight="400" text-anchor="start" x="19.4664" y="12.4198" font-size="0.1567"><![CDATA[STATUS]]></text>
        <text font-family="Arial" fill="#000000" style="white-space:pre;" font-weight="400" text-anchor="start" x="19.4664" y="12.9929" font-size="0.1567"><![CDATA[ALARM]]></text>
        <text font-family="Arial" fill="#000000" style="white-space:pre;" font-weight="400" text-anchor="start" x="20.6156" y="12.4198" font-size="0.1567"><![CDATA[HA]]></text>
        <text font-family="Arial" fill="#000000" style="white-space:pre;" font-weight="400" text-anchor="start" x="20.6156" y="12.9929" font-size="0.1567"><![CDATA[POWER]]></text>
        <text font-family="Arial" fill="#000000" style="white-space:pre;" font-weight="400" text-anchor="start" x="27.1450" y="10.6085" font-size="0.2089"><![CDATA[MGMT 1]]></text>
        <text font-family="Arial" fill="#000000" style="white-space:pre;" font-weight="400" text-anchor="start" x="27.1450" y="13.3872" font-size="0.2089"><![CDATA[MGMT 2]]></text>
        <text font-family="Arial" fill="#000000" style="white-space:pre;" font-weight="400" text-anchor="start" x="23.3492" y="11.5984" font-size="0.2089"><![CDATA[USB]]></text>
        <text font-family="Arial" fill="#000000" style="white-space:pre;" font-weight="400" text-anchor="start" x="25.2645" y="11.7200" font-size="0.2089"><![CDATA[CONSOLE]]></text>
        <text font-family="Arial" fill="#000000" style="white-space:pre;" font-weight="400" text-anchor="start" x="21.3120" y="13.4567" font-size="0.2089"><![CDATA[USB MGMT]]></text>
        <text font-family="Arial" fill="#000000" style="white-space:pre;" font-weight="400" text-anchor="start" x="40.5869" y="10.6085" font-size="0.2089"><![CDATA[10G SFP+]]></text>
        <text font-family="Arial" fill="#000000" style="white-space:pre;" font-weight="400" text-anchor="start" x="29.2170" y="10.6085" font-size="0.2089"><![CDATA[1]]></text>
        <text font-family="Arial" fill="#000000" style="white-space:pre;" font-weight="400" text-anchor="start" x="29.2170" y="13.3699" font-size="0.2089"><![CDATA[2]]></text>
        <text font-family="Arial" fill="#000000" style="white-space:pre;" font-weight="400" text-anchor="start" x="30.5055" y="10.6085" font-size="0.2089"><![CDATA[3]]></text>
        <text font-family="Arial" fill="#000000" style="white-space:pre;" font-weight="400" text-anchor="start" x="30.5055" y="13.3699" font-size="0.2089"><![CDATA[4]]></text>
        <text font-family="Arial" fill="#000000" style="white-space:pre;" font-weight="400" text-anchor="start" x="31.7765" y="10.6085" font-size="0.2089"><![CDATA[5]]></text>
        <text font-family="Arial" fill="#000000" style="white-space:pre;" font-weight="400" text-anchor="start" x="31.7765" y="13.3699" font-size="0.2089"><![CDATA[6]]></text>
        <text font-family="Arial" fill="#000000" style="white-space:pre;" font-weight="400" text-anchor="start" x="33.0650" y="10.6085" font-size="0.2089"><![CDATA[7]]></text>
        <text font-family="Arial" fill="#000000" style="white-space:pre;" font-weight="400" text-anchor="start" x="33.0650" y="13.3699" font-size="0.2089"><![CDATA[8]]></text>
        <text font-family="Arial" fill="#000000" style="white-space:pre;" font-weight="400" text-anchor="start" x="34.8932" y="10.6085" font-size="0.2089"><![CDATA[9]]></text>
        <text font-family="Arial" fill="#000000" style="white-space:pre;" font-weight="400" text-anchor="start" x="34.8410" y="13.3699" font-size="0.2089"><![CDATA[10]]></text>
        <text font-family="Arial" fill="#000000" style="white-space:pre;" font-weight="400" text-anchor="start" x="36.0424" y="10.6085" font-size="0.2089"><![CDATA[11]]></text>
        <text font-family="Arial" fill="#000000" style="white-space:pre;" font-weight="400" text-anchor="start" x="36.0424" y="13.3699" font-size="0.2089"><![CDATA[12]]></text>
        <text font-family="Arial" fill="#000000" style="white-space:pre;" font-weight="400" text-anchor="start" x="37.2787" y="10.6085" font-size="0.2089"><![CDATA[13]]></text>
        <text font-family="Arial" fill="#000000" style="white-space:pre;" font-weight="400" text-anchor="start" x="37.2787" y="13.3699" font-size="0.2089"><![CDATA[14]]></text>
        <text font-family="Arial" fill="#000000" style="white-space:pre;" font-weight="400" text-anchor="start" x="38.4975" y="10.6085" font-size="0.2089"><![CDATA[15]]></text>
        <text font-family="Arial" fill="#000000" style="white-space:pre;" font-weight="400" text-anchor="start" x="38.4975" y="13.3699" font-size="0.2089"><![CDATA[16]]></text>
        <text font-family="Arial" fill="#000000" style="white-space:pre;" font-weight="400" text-anchor="start" x="43.3728" y="10.6085" font-size="0.2089"><![CDATA[17]]></text>
        <text font-family="Arial" fill="#000000" style="white-space:pre;" font-weight="400" text-anchor="start" x="43.3728" y="13.3699" font-size="0.2089"><![CDATA[18]]></text>
        <text font-family="Arial" fill="#000000" style="white-space:pre;" font-weight="400" text-anchor="start" x="44.6264" y="13.3699" font-size="0.2089"><![CDATA[20]]></text>
        <text font-family="Arial" fill="#000000" style="white-space:pre;" font-weight="400" text-anchor="start" x="44.6264" y="10.6085" font-size="0.2089"><![CDATA[19]]></text>
        <text font-family="Arial" fill="#000000" style="white-space:pre;" font-weight="400" text-anchor="start" x="45.8627" y="13.3699" font-size="0.2089"><![CDATA[22]]></text>
        <text font-family="Arial" fill="#000000" style="white-space:pre;" font-weight="400" text-anchor="start" x="45.8627" y="10.6085" font-size="0.2089"><![CDATA[21]]></text>
        <text font-family="Arial" fill="#000000" style="white-space:pre;" font-weight="400" text-anchor="start" x="47.0815" y="13.3699" font-size="0.2089"><![CDATA[24]]></text>
        <text font-family="Arial" fill="#000000" style="white-space:pre;" font-weight="400" text-anchor="start" x="47.0815" y="10.6085" font-size="0.2089"><![CDATA[23]]></text>
        <text font-family="Arial" fill="#000000" style="white-space:pre;" font-weight="400" text-anchor="start" x="48.9968" y="10.6085" font-size="0.2089"><![CDATA[25]]></text>
        <text font-family="Arial" fill="#000000" style="white-space:pre;" font-weight="400" text-anchor="start" x="50.2504" y="10.6085" font-size="0.2089"><![CDATA[27]]></text>
        <text font-family="Arial" fill="#000000" style="white-space:pre;" font-weight="400" text-anchor="start" x="51.4693" y="10.6085" font-size="0.2089"><![CDATA[29]]></text>
        <text font-family="Arial" fill="#000000" style="white-space:pre;" font-weight="400" text-anchor="start" x="52.6881" y="10.6085" font-size="0.2089"><![CDATA[31]]></text>
        <text font-family="Arial" fill="#000000" style="white-space:pre;" font-weight="400" text-anchor="start" x="48.9968" y="13.3699" font-size="0.2089"><![CDATA[26]]></text>
        <text font-family="Arial" fill="#000000" style="white-space:pre;" font-weight="400" text-anchor="start" x="50.2504" y="13.3699" font-size="0.2089"><![CDATA[28]]></text>
        <text font-family="Arial" fill="#000000" style="white-space:pre;" font-weight="400" text-anchor="start" x="51.4693" y="13.3699" font-size="0.2089"><![CDATA[30]]></text>
        <text font-family="Arial" fill="#000000" style="white-space:pre;" font-weight="400" text-anchor="start" x="52.6881" y="13.3699" font-size="0.2089"><![CDATA[32]]></text>
        <text font-family="Arial" fill="#000000" style="white-space:pre;" font-weight="400" text-anchor="start" x="41.2485" y="13.3699" font-size="0.2089"><![CDATA[B]]></text>
        <text font-family="Arial" fill="#000000" style="white-space:pre;" font-weight="400" text-anchor="start" x="40.8307" y="13.3699" font-size="0.2089"><![CDATA[A]]></text>
        <path d="M 18.7340,9.3234 L 18.7340,9.2600 L 18.7545,9.2600 L 18.7545,9.2177 L 18.7750,9.1966 L 18.7750,9.1755 L 18.7955,9.1755 L 18.7955,9.1543 L 18.8160,9.1543 L 18.8160,9.1332 L 18.8365,9.1332 L 18.8570,9.1120 L 18.8775,9.1120 L 18.8980,9.0909 L 20.9477,9.0909 L 20.9682,9.1120 L 20.9887,9.1120 L 21.0092,9.1332 L 21.0297,9.1332 L 21.0297,9.1543 L 21.0501,9.1543 L 21.0501,9.1755 L 21.0706,9.1755 L 21.0706,9.1966 L 21.0911,9.2177 L 21.0911,9.2600 L 21.1116,9.2600 L 21.1116,9.7040 L 20.9477,9.8731 L 20.9477,10.2114 L 20.9272,10.2325 L 20.9272,10.2537 L 20.9067,10.2537 L 20.9067,10.2748 L 20.8862,10.2748 L 20.8862,10.2960 L 20.8657,10.2960 L 20.8657,10.3171 L 20.8247,10.3171 L 20.8247,10.3382 L 19.0210,10.3382 L 19.0210,10.3171 L 18.9800,10.3171 L 18.9800,10.2960 L 18.9595,10.2960 L 18.9595,10.2748 L 18.9390,10.2748 L 18.9390,10.2537 L 18.9185,10.2537 L 18.9185,10.2325 L 18.8980,10.2114 L 18.8980,9.8731 L 18.7340,9.7040 L 18.7340,9.3446 L 18.7340,9.3234 Z" stroke="#7F7F7F" stroke-width="0.1197" stroke-linecap="round" stroke-linejoin="round" fill="#BFBFBF"/>
        <path d="M 21.0297,9.6829 L 20.8657,9.8520 L 20.8657,10.1691 L 20.8452,10.1903 L 20.8452,10.2114 L 20.8247,10.2114 L 20.8042,10.2325 L 20.7837,10.2325 L 20.7632,10.2537 L 19.0825,10.2537 L 19.0825,10.2325 L 19.0415,10.2325 L 19.0210,10.2114 L 19.0005,10.2114 L 19.0005,10.1903 L 18.9800,10.1691 L 18.9800,9.8520 L 18.8160,9.6829 L 18.8160,9.3234 L 18.8365,9.3234 L 18.8365,9.2812 L 18.8570,9.2812 L 18.8570,9.2389 L 18.8775,9.2389 L 18.8775,9.2177 L 18.9185,9.2177 L 18.9185,9.1966 L 18.9390,9.1966 L 18.9595,9.1755 L 20.8862,9.1755 L 20.9067,9.1966 L 20.9272,9.1966 L 20.9272,9.2177 L 20.9682,9.2177 L 20.9682,9.2389 L 20.9887,9.2389 L 20.9887,9.2812 L 21.0092,9.2812 L 21.0092,9.3234 L 21.0297,9.3234 L 21.0297,9.6617 L 21.0297,9.6829 Z" stroke="#000000" stroke-width="0.1197" stroke-linecap="round" stroke-linejoin="round" fill="#161616"/>
        <path d="M 20.7222,9.7674 L 20.7222,9.7251 L 20.7017,9.6829 L 20.6607,9.6617 L 19.2054,9.6617 L 19.1644,9.6829 L 19.1440,9.7251 L 19.1440,10.0634 L 19.1644,10.1057 L 19.2054,10.1268 L 20.6607,10.1268 L 20.7017,10.1057 L 20.7222,10.0634 L 20.7222,10.0211 L 20.7222,9.7674 Z" stroke="#000000" stroke-width="0.1197" stroke-linecap="round" stroke-linejoin="round" fill="#CCCCCC"/>
        <path d="M 19.5129,9.5983 L 19.3079,9.5983 L 19.3079,9.6617 L 19.5129,9.6617 L 19.5129,9.5983 Z" stroke="#000000" stroke-width="0.1197" stroke-linecap="round" stroke-linejoin="round" fill="#D6D6B1"/>
        <path d="M 19.8408,9.5983 L 19.6359,9.5983 L 19.6359,9.6617 L 19.8408,9.6617 L 19.8408,9.5983 Z" stroke="#000000" stroke-width="0.1197" stroke-linecap="round" stroke-linejoin="round" fill="#D6D6B1"/>
        <path d="M 20.1893,9.5983 L 19.9843,9.5983 L 19.9843,9.6617 L 20.1893,9.6617 L 20.1893,9.5983 Z" stroke="#000000" stroke-width="0.1197" stroke-linecap="round" stroke-linejoin="round" fill="#D6D6B1"/>
        <path d="M 20.5172,9.5983 L 20.3123,9.5983 L 20.3123,9.6617 L 20.5172,9.6617 L 20.5172,9.5983 Z" stroke="#000000" stroke-width="0.1197" stroke-linecap="round" stroke-linejoin="round" fill="#D6D6B1"/>
        <path d="M 23.8360,5.8897 L 23.7938,5.8897 L 23.7938,5.9037 L 23.7657,5.9037 L 23.7516,5.9177 L 23.7376,5.9177 L 23.7376,5.9317 L 23.7235,5.9317 L 23.7235,5.9457 L 23.7095,5.9457 L 23.7095,5.9598 L 23.6954,5.9738 L 23.6954,6.0018 L 23.6813,6.0018 L 23.6813,7.3761 L 23.6954,7.3761 L 23.6954,7.4041 L 23.7095,7.4182 L 23.7095,7.4322 L 23.7235,7.4322 L 23.7235,7.4462 L 23.7376,7.4462 L 23.7376,7.4602 L 23.7516,7.4602 L 23.7657,7.4742 L 23.7938,7.4742 L 23.7938,7.4883 L 27.3095,7.4883 L 27.3095,7.4742 L 27.3376,7.4742 L 27.3517,7.4602 L 27.3657,7.4602 L 27.3657,7.4462 L 27.3798,7.4462 L 27.3798,7.4322 L 27.3938,7.4322 L 27.3938,7.4182 L 27.4079,7.4041 L 27.4079,7.3761 L 27.4220,7.3761 L 27.4220,6.0018 L 27.4079,6.0018 L 27.4079,5.9738 L 27.3938,5.9598 L 27.3938,5.9457 L 27.3798,5.9457 L 27.3798,5.9317 L 27.3657,5.9317 L 27.3657,5.9177 L 27.3517,5.9177 L 27.3376,5.9037 L 27.3095,5.9037 L 27.3095,5.8897 L 23.8501,5.8897 L 23.8360,5.8897 Z" stroke="#000000" stroke-width="0.1197" stroke-linecap="round" stroke-linejoin="round" fill="#BFBFBF"/>
        <path d="M 23.8923,6.0159 L 23.8501,6.0159 L 23.8501,6.0299 L 23.8360,6.0299 L 23.8360,6.0439 L 23.8220,6.0439 L 23.8220,6.0579 L 23.8079,6.0579 L 23.8079,7.3200 L 23.8220,7.3340 L 23.8220,7.3480 L 23.8360,7.3480 L 23.8360,7.3621 L 23.8501,7.3621 L 23.8641,7.3761 L 27.2532,7.3761 L 27.2532,7.3621 L 27.2673,7.3621 L 27.2673,7.3480 L 27.2813,7.3480 L 27.2813,7.3340 L 27.2954,7.3200 L 27.2954,6.0579 L 27.2813,6.0579 L 27.2813,6.0439 L 27.2673,6.0299 L 27.2532,6.0299 L 27.2532,6.0159 L 23.9063,6.0159 L 23.8923,6.0159 Z" stroke="#F7DDB9" stroke-width="0.1197" stroke-linecap="round" stroke-linejoin="round" fill="#000000"/>
        <path d="M 24.6376,6.7170 L 24.3282,6.7170 L 24.3282,6.6469 L 24.6376,6.6469 L 24.6376,6.7170 Z" stroke="#000000" stroke-width="0.1197" stroke-linecap="round" stroke-linejoin="round" fill="#E2E2CC"/>
        <path d="M 25.3407,6.7170 L 25.0313,6.7170 L 25.0313,6.6469 L 25.3407,6.6469 L 25.3407,6.7170 Z" stroke="#000000" stroke-width="0.1197" stroke-linecap="round" stroke-linejoin="round" fill="#E2E2CC"/>
        <path d="M 26.0298,6.7170 L 25.7204,6.7170 L 25.7204,6.6469 L 26.0298,6.6469 L 26.0298,6.7170 Z" stroke="#000000" stroke-width="0.1197" stroke-linecap="round" stroke-linejoin="round" fill="#E2E2CC"/>
        <path d="M 26.7470,6.7170 L 26.4376,6.7170 L 26.4376,6.6469 L 26.7470,6.6469 L 26.7470,6.7170 Z" stroke="#000000" stroke-width="0.1197" stroke-linecap="round" stroke-linejoin="round" fill="#E2E2CC"/>
        <path d="M 27.0845,6.2823 L 27.0845,6.2542 L 27.0704,6.2262 L 27.0423,6.2122 L 24.0610,6.2122 L 24.0329,6.2262 L 24.0188,6.2542 L 24.0188,6.6048 L 24.0329,6.6329 L 24.0610,6.6469 L 27.0423,6.6469 L 27.0704,6.6329 L 27.0845,6.6048 L 27.0845,6.5768 L 27.0845,6.2823 Z" stroke="#000000" stroke-width="0.1197" stroke-linecap="round" stroke-linejoin="round" fill="#7F7F7F"/>
        <path d="M 26.9720,6.4225 L 26.9579,6.3664 L 26.9017,6.3103 L 26.8454,6.2963 L 24.2579,6.2963 L 24.2016,6.3103 L 24.1454,6.3664 L 24.1313,6.4225 L 24.1454,6.4786 L 24.2016,6.5347 L 24.2579,6.5487 L 26.8454,6.5487 L 26.9017,6.5347 L 26.9579,6.4786 L 26.9720,6.4225 Z" stroke="#999999" stroke-width="0.1197" stroke-linecap="round" stroke-linejoin="round" fill="#999999"/>
        <path d="M 23.8360,8.2455 L 23.7938,8.2455 L 23.7938,8.2595 L 23.7657,8.2595 L 23.7516,8.2736 L 23.7376,8.2736 L 23.7376,8.2876 L 23.7235,8.2876 L 23.7235,8.3016 L 23.7095,8.3016 L 23.7095,8.3156 L 23.6954,8.3296 L 23.6954,8.3577 L 23.6813,8.3577 L 23.6813,9.7319 L 23.6954,9.7319 L 23.6954,9.7600 L 23.7095,9.7740 L 23.7095,9.7880 L 23.7235,9.7880 L 23.7235,9.8021 L 23.7376,9.8021 L 23.7376,9.8161 L 23.7516,9.8161 L 23.7657,9.8301 L 23.7938,9.8301 L 23.7938,9.8441 L 27.3095,9.8441 L 27.3095,9.8301 L 27.3376,9.8301 L 27.3517,9.8161 L 27.3657,9.8161 L 27.3657,9.8021 L 27.3798,9.8021 L 27.3798,9.7880 L 27.3938,9.7880 L 27.3938,9.7740 L 27.4079,9.7600 L 27.4079,9.7319 L 27.4220,9.7319 L 27.4220,8.3577 L 27.4079,8.3577 L 27.4079,8.3296 L 27.3938,8.3156 L 27.3938,8.3016 L 27.3798,8.3016 L 27.3798,8.2876 L 27.3657,8.2876 L 27.3657,8.2736 L 27.3517,8.2736 L 27.3376,8.2595 L 27.3095,8.2595 L 27.3095,8.2455 L 23.8501,8.2455 L 23.8360,8.2455 Z" stroke="#000000" stroke-width="0.1197" stroke-linecap="round" stroke-linejoin="round" fill="#BFBFBF"/>
        <path d="M 23.8923,8.3717 L 23.8501,8.3717 L 23.8501,8.3857 L 23.8360,8.3857 L 23.8360,8.3998 L 23.8220,8.3998 L 23.8220,8.4138 L 23.8079,8.4138 L 23.8079,9.6759 L 23.8220,9.6899 L 23.8220,9.7039 L 23.8360,9.7039 L 23.8360,9.7179 L 23.8501,9.7179 L 23.8641,9.7319 L 27.2532,9.7319 L 27.2532,9.7179 L 27.2673,9.7179 L 27.2673,9.7039 L 27.2813,9.7039 L 27.2813,9.6899 L 27.2954,9.6759 L 27.2954,8.4138 L 27.2813,8.4138 L 27.2813,8.3998 L 27.2673,8.3857 L 27.2532,8.3857 L 27.2532,8.3717 L 23.9063,8.3717 L 23.8923,8.3717 Z" stroke="#F7DDB9" stroke-width="0.1197" stroke-linecap="round" stroke-linejoin="round" fill="#000000"/>
        <path d="M 24.6376,9.0729 L 24.3282,9.0729 L 24.3282,9.0028 L 24.6376,9.0028 L 24.6376,9.0729 Z" stroke="#000000" stroke-width="0.1197" stroke-linecap="round" stroke-linejoin="round" fill="#E2E2CC"/>
        <path d="M 25.3407,9.0729 L 25.0313,9.0729 L 25.0313,9.0028 L 25.3407,9.0028 L 25.3407,9.0729 Z" stroke="#000000" stroke-width="0.1197" stroke-linecap="round" stroke-linejoin="round" fill="#E2E2CC"/>
        <path d="M 26.0298,9.0729 L 25.7204,9.0729 L 25.7204,9.0028 L 26.0298,9.0028 L 26.0298,9.0729 Z" stroke="#000000" stroke-width="0.1197" stroke-linecap="round" stroke-linejoin="round" fill="#E2E2CC"/>
        <path d="M 26.7470,9.0729 L 26.4376,9.0729 L 26.4376,9.0028 L 26.7470,9.0028 L 26.7470,9.0729 Z" stroke="#000000" stroke-width="0.1197" stroke-linecap="round" stroke-linejoin="round" fill="#E2E2CC"/>
        <path d="M 27.0845,8.6382 L 27.0845,8.6101 L 27.0704,8.5821 L 27.0423,8.5680 L 24.0610,8.5680 L 24.0329,8.5821 L 24.0188,8.6101 L 24.0188,8.9607 L 24.0329,8.9887 L 24.0610,9.0028 L 27.0423,9.0028 L 27.0704,8.9887 L 27.0845,8.9607 L 27.0845,8.9326 L 27.0845,8.6382 Z" stroke="#000000" stroke-width="0.1197" stroke-linecap="round" stroke-linejoin="round" fill="#7F7F7F"/>
        <path d="M 26.9720,8.7784 L 26.9579,8.7223 L 26.9017,8.6662 L 26.8454,8.6522 L 24.2579,8.6522 L 24.2016,8.6662 L 24.1454,8.7223 L 24.1313,8.7784 L 24.1454,8.8345 L 24.2016,8.8906 L 24.2579,8.9046 L 26.8454,8.9046 L 26.9017,8.8906 L 26.9579,8.8345 L 26.9720,8.7784 Z" stroke="#999999" stroke-width="0.1197" stroke-linecap="round" stroke-linejoin="round" fill="#999999"/>
        <path d="M 30.8793,6.9595 L 30.8793,9.0764 L 31.7723,9.0764 L 31.7723,9.5745 L 32.1351,9.5745 L 32.1351,10.0726 L 33.1956,10.0726 L 33.1956,9.5745 L 33.5584,9.5745 L 33.5584,9.0764 L 34.4514,9.0764 L 34.4514,6.9595 L 30.8793,6.9595 Z" stroke="#161616" stroke-width="0.1197" stroke-linecap="round" stroke-linejoin="round" fill="#000000"/>
        <path d="M 37.6876,2.2968 L 37.6876,2.4490 L 37.4626,2.4490 L 37.4626,2.8779 L 36.5204,2.8779 L 36.5204,2.9194 L 36.2251,2.9194 L 36.2251,2.4490 L 36.2814,2.4490 L 36.2814,2.8779 L 36.5204,2.8779 L 36.5204,3.8326 L 36.6189,3.8326 L 36.6189,4.3307 L 36.5204,4.3307 L 36.5204,5.4099 L 40.1204,5.4099 L 40.1204,4.3307 L 40.0220,4.3307 L 40.0220,3.8326 L 40.1204,3.8326 L 40.1204,2.8779 L 40.3595,2.8779 L 40.3595,2.4490 L 40.4158,2.4490 L 40.4158,2.9194 L 40.1204,2.9194 L 40.1204,2.8779 L 39.1783,2.8779 L 39.1783,2.4490 L 38.9533,2.4490 L 38.9533,2.2968 L 37.6876,2.2968 Z" stroke="#000000" stroke-width="0.1197" stroke-linecap="round" stroke-linejoin="round" fill="#000000"/>
        <path d="M 37.4626,2.4628 L 36.2814,2.4628 L 36.2814,2.8917 L 37.4626,2.8917 L 37.4626,2.4628 Z" stroke="#494949" stroke-width="0.1197" stroke-linecap="round" stroke-linejoin="round" fill="#000000"/>
        <path d="M 40.3595,2.4628 L 39.1783,2.4628 L 39.1783,2.8917 L 40.3595,2.8917 L 40.3595,2.4628 Z" stroke="#494949" stroke-width="0.1197" stroke-linecap="round" stroke-linejoin="round" fill="#000000"/>
        <path d="M 37.6876,10.0726 L 37.6876,9.9204 L 37.4626,9.9204 L 37.4626,9.4915 L 36.5204,9.4915 L 36.5204,9.4500 L 36.2251,9.4500 L 36.2251,9.9204 L 36.2814,9.9204 L 36.2814,9.4915 L 36.5204,9.4915 L 36.5204,8.5368 L 36.6189,8.5368 L 36.6189,8.0387 L 36.5204,8.0387 L 36.5204,6.9595 L 40.1204,6.9595 L 40.1204,8.0387 L 40.0220,8.0387 L 40.0220,8.5368 L 40.1204,8.5368 L 40.1204,9.4915 L 40.3595,9.4915 L 40.3595,9.9204 L 40.4158,9.9204 L 40.4158,9.4500 L 40.1204,9.4500 L 40.1204,9.4915 L 39.1783,9.4915 L 39.1783,9.9204 L 38.9533,9.9204 L 38.9533,10.0726 L 37.6876,10.0726 Z" stroke="#000000" stroke-width="0.1197" stroke-linecap="round" stroke-linejoin="round" fill="#000000"/>
        <path d="M 37.4626,9.4915 L 36.2814,9.4915 L 36.2814,9.9204 L 37.4626,9.9204 L 37.4626,9.4915 Z" stroke="#494949" stroke-width="0.1197" stroke-linecap="round" stroke-linejoin="round" fill="#000000"/>
        <path d="M 40.3595,9.4915 L 39.1783,9.4915 L 39.1783,9.9204 L 40.3595,9.9204 L 40.3595,9.4915 Z" stroke="#494949" stroke-width="0.1197" stroke-linecap="round" stroke-linejoin="round" fill="#000000"/>
        <path d="M 45.9845,5.1908 L 42.0189,5.1908 L 42.0189,2.5264 L 45.9845,2.5264 L 45.9845,5.1908 Z" stroke="#000000" stroke-width="0.1197" stroke-linecap="round" stroke-linejoin="round" fill="#494949"/>
        <path d="M 45.9845,9.9536 L 42.0189,9.9536 L 42.0189,7.2892 L 45.9845,7.2892 L 45.9845,9.9536 Z" stroke="#000000" stroke-width="0.1197" stroke-linecap="round" stroke-linejoin="round" fill="#494949"/>
        <path d="M 50.1470,5.1908 L 46.1814,5.1908 L 46.1814,2.5264 L 50.1470,2.5264 L 50.1470,5.1908 Z" stroke="#000000" stroke-width="0.1197" stroke-linecap="round" stroke-linejoin="round" fill="#494949"/>
        <path d="M 50.1470,9.9536 L 46.1814,9.9536 L 46.1814,7.2892 L 50.1470,7.2892 L 50.1470,9.9536 Z" stroke="#000000" stroke-width="0.1197" stroke-linecap="round" stroke-linejoin="round" fill="#494949"/>
        <path d="M 54.2533,5.1908 L 50.2877,5.1908 L 50.2877,2.5264 L 54.2533,2.5264 L 54.2533,5.1908 Z" stroke="#000000" stroke-width="0.1197" stroke-linecap="round" stroke-linejoin="round" fill="#494949"/>
        <path d="M 54.2533,9.9536 L 50.2877,9.9536 L 50.2877,7.2892 L 54.2533,7.2892 L 54.2533,9.9536 Z" stroke="#000000" stroke-width="0.1197" stroke-linecap="round" stroke-linejoin="round" fill="#494949"/>
        <path d="M 58.4158,5.1908 L 54.4502,5.1908 L 54.4502,2.5264 L 58.4158,2.5264 L 58.4158,5.1908 Z" stroke="#000000" stroke-width="0.1197" stroke-linecap="round" stroke-linejoin="round" fill="#494949"/>
        <path d="M 58.4158,9.9536 L 54.4502,9.9536 L 54.4502,7.2892 L 58.4158,7.2892 L 58.4158,9.9536 Z" stroke="#000000" stroke-width="0.1197" stroke-linecap="round" stroke-linejoin="round" fill="#494949"/>
        <path d="M 60.4748,5.5206 L 60.4748,3.4037 L 61.3678,3.4037 L 61.3678,2.9056 L 61.7306,2.9056 L 61.7306,2.4075 L 62.7911,2.4075 L 62.7911,2.9056 L 63.1539,2.9056 L 63.1539,3.4037 L 64.0469,3.4037 L 64.0469,5.5206 L 60.4748,5.5206 Z" stroke="#161616" stroke-width="0.1197" stroke-linecap="round" stroke-linejoin="round" fill="#000000"/>
        <path d="M 60.4748,6.9595 L 60.4748,9.0764 L 61.3678,9.0764 L 61.3678,9.5745 L 61.7306,9.5745 L 61.7306,10.0726 L 62.7911,10.0726 L 62.7911,9.5745 L 63.1539,9.5745 L 63.1539,9.0764 L 64.0469,9.0764 L 64.0469,6.9595 L 60.4748,6.9595 Z" stroke="#161616" stroke-width="0.1197" stroke-linecap="round" stroke-linejoin="round" fill="#000000"/>
        <path d="M 64.4097,5.5206 L 64.4097,3.4037 L 65.3027,3.4037 L 65.3027,2.9056 L 65.6655,2.9056 L 65.6655,2.4075 L 66.7260,2.4075 L 66.7260,2.9056 L 67.0888,2.9056 L 67.0888,3.4037 L 67.9818,3.4037 L 67.9818,5.5206 L 64.4097,5.5206 Z" stroke="#161616" stroke-width="0.1197" stroke-linecap="round" stroke-linejoin="round" fill="#000000"/>
        <path d="M 64.4097,6.9595 L 64.4097,9.0764 L 65.3027,9.0764 L 65.3027,9.5745 L 65.6655,9.5745 L 65.6655,10.0726 L 66.7260,10.0726 L 66.7260,9.5745 L 67.0888,9.5745 L 67.0888,9.0764 L 67.9818,9.0764 L 67.9818,6.9595 L 64.4097,6.9595 Z" stroke="#161616" stroke-width="0.1197" stroke-linecap="round" stroke-linejoin="round" fill="#000000"/>
        <path d="M 68.4004,5.5206 L 68.4004,3.4037 L 69.2935,3.4037 L 69.2935,2.9056 L 69.6563,2.9056 L 69.6563,2.4075 L 70.7167,2.4075 L 70.7167,2.9056 L 71.0795,2.9056 L 71.0795,3.4037 L 71.9726,3.4037 L 71.9726,5.5206 L 68.4004,5.5206 Z" stroke="#161616" stroke-width="0.1197" stroke-linecap="round" stroke-linejoin="round" fill="#000000"/>
        <path d="M 68.4004,6.9595 L 68.4004,9.0764 L 69.2935,9.0764 L 69.2935,9.5745 L 69.6563,9.5745 L 69.6563,10.0726 L 70.7167,10.0726 L 70.7167,9.5745 L 71.0795,9.5745 L 71.0795,9.0764 L 71.9726,9.0764 L 71.9726,6.9595 L 68.4004,6.9595 Z" stroke="#161616" stroke-width="0.1197" stroke-linecap="round" stroke-linejoin="round" fill="#000000"/>
        <path d="M 72.3354,5.5206 L 72.3354,3.4037 L 73.2284,3.4037 L 73.2284,2.9056 L 73.5912,2.9056 L 73.5912,2.4075 L 74.6516,2.4075 L 74.6516,2.9056 L 75.0144,2.9056 L 75.0144,3.4037 L 75.9075,3.4037 L 75.9075,5.5206 L 72.3354,5.5206 Z" stroke="#161616" stroke-width="0.1197" stroke-linecap="round" stroke-linejoin="round" fill="#000000"/>
        <path d="M 72.3354,6.9595 L 72.3354,9.0764 L 73.2284,9.0764 L 73.2284,9.5745 L 73.5912,9.5745 L 73.5912,10.0726 L 74.6516,10.0726 L 74.6516,9.5745 L 75.0144,9.5745 L 75.0144,9.0764 L 75.9075,9.0764 L 75.9075,6.9595 L 72.3354,6.9595 Z" stroke="#161616" stroke-width="0.1197" stroke-linecap="round" stroke-linejoin="round" fill="#000000"/>
        <path d="M 91.7159,5.1908 L 87.7503,5.1908 L 87.7503,2.5264 L 91.7159,2.5264 L 91.7159,5.1908 Z" stroke="#000000" stroke-width="0.1197" stroke-linecap="round" stroke-linejoin="round" fill="#494949"/>
        <path d="M 91.7159,9.9536 L 87.7503,9.9536 L 87.7503,7.2892 L 91.7159,7.2892 L 91.7159,9.9536 Z" stroke="#000000" stroke-width="0.1197" stroke-linecap="round" stroke-linejoin="round" fill="#494949"/>
        <path d="M 95.8784,5.1908 L 91.9128,5.1908 L 91.9128,2.5264 L 95.8784,2.5264 L 95.8784,5.1908 Z" stroke="#000000" stroke-width="0.1197" stroke-linecap="round" stroke-linejoin="round" fill="#494949"/>
        <path d="M 95.8784,9.9536 L 91.9128,9.9536 L 91.9128,7.2892 L 95.8784,7.2892 L 95.8784,9.9536 Z" stroke="#000000" stroke-width="0.1197" stroke-linecap="round" stroke-linejoin="round" fill="#494949"/>
        <path d="M 99.9847,5.1908 L 96.0191,5.1908 L 96.0191,2.5264 L 99.9847,2.5264 L 99.9847,5.1908 Z" stroke="#000000" stroke-width="0.1197" stroke-linecap="round" stroke-linejoin="round" fill="#494949"/>
        <path d="M 99.9847,9.9536 L 96.0191,9.9536 L 96.0191,7.2892 L 99.9847,7.2892 L 99.9847,9.9536 Z" stroke="#000000" stroke-width="0.1197" stroke-linecap="round" stroke-linejoin="round" fill="#494949"/>
        <path d="M 104.1472,5.1908 L 100.1816,5.1908 L 100.1816,2.5264 L 104.1472,2.5264 L 104.1472,5.1908 Z" stroke="#000000" stroke-width="0.1197" stroke-linecap="round" stroke-linejoin="round" fill="#494949"/>
        <path d="M 104.1472,9.9536 L 100.1816,9.9536 L 100.1816,7.2892 L 104.1472,7.2892 L 104.1472,9.9536 Z" stroke="#000000" stroke-width="0.1197" stroke-linecap="round" stroke-linejoin="round" fill="#494949"/>
        <path d="M 106.2007,5.5206 L 106.2007,3.4037 L 107.0937,3.4037 L 107.0937,2.9056 L 107.4565,2.9056 L 107.4565,2.4075 L 108.5170,2.4075 L 108.5170,2.9056 L 108.8798,2.9056 L 108.8798,3.4037 L 109.7728,3.4037 L 109.7728,5.5206 L 106.2007,5.5206 Z" stroke="#161616" stroke-width="0.1197" stroke-linecap="round" stroke-linejoin="round" fill="#000000"/>
        <path d="M 106.2007,6.9595 L 106.2007,9.0764 L 107.0937,9.0764 L 107.0937,9.5745 L 107.4565,9.5745 L 107.4565,10.0726 L 108.5170,10.0726 L 108.5170,9.5745 L 108.8798,9.5745 L 108.8798,9.0764 L 109.7728,9.0764 L 109.7728,6.9595 L 106.2007,6.9595 Z" stroke="#161616" stroke-width="0.1197" stroke-linecap="round" stroke-linejoin="round" fill="#000000"/>
        <path d="M 110.1356,5.5206 L 110.1356,3.4037 L 111.0286,3.4037 L 111.0286,2.9056 L 111.3914,2.9056 L 111.3914,2.4075 L 112.4519,2.4075 L 112.4519,2.9056 L 112.8147,2.9056 L 112.8147,3.4037 L 113.7077,3.4037 L 113.7077,5.5206 L 110.1356,5.5206 Z" stroke="#161616" stroke-width="0.1197" stroke-linecap="round" stroke-linejoin="round" fill="#000000"/>
        <path d="M 110.1356,6.9595 L 110.1356,9.0764 L 111.0286,9.0764 L 111.0286,9.5745 L 111.3914,9.5745 L 111.3914,10.0726 L 112.4519,10.0726 L 112.4519,9.5745 L 112.8147,9.5745 L 112.8147,9.0764 L 113.7077,9.0764 L 113.7077,6.9595 L 110.1356,6.9595 Z" stroke="#161616" stroke-width="0.1197" stroke-linecap="round" stroke-linejoin="round" fill="#000000"/>
        <path d="M 114.1263,5.5206 L 114.1263,3.4037 L 115.0193,3.4037 L 115.0193,2.9056 L 115.3821,2.9056 L 115.3821,2.4075 L 116.4426,2.4075 L 116.4426,2.9056 L 116.8054,2.9056 L 116.8054,3.4037 L 117.6984,3.4037 L 117.6984,5.5206 L 114.1263,5.5206 Z" stroke="#161616" stroke-width="0.1197" stroke-linecap="round" stroke-linejoin="round" fill="#000000"/>
        <path d="M 114.1263,6.9595 L 114.1263,9.0764 L 115.0193,9.0764 L 115.0193,9.5745 L 115.3821,9.5745 L 115.3821,10.0726 L 116.4426,10.0726 L 116.4426,9.5745 L 116.8054,9.5745 L 116.8054,9.0764 L 117.6984,9.0764 L 117.6984,6.9595 L 114.1263,6.9595 Z" stroke="#161616" stroke-width="0.1197" stroke-linecap="round" stroke-linejoin="round" fill="#000000"/>
        <path d="M 118.0752,5.5206 L 118.0752,3.4037 L 118.9682,3.4037 L 118.9682,2.9056 L 119.3310,2.9056 L 119.3310,2.4075 L 120.3915,2.4075 L 120.3915,2.9056 L 120.7543,2.9056 L 120.7543,3.4037 L 121.6473,3.4037 L 121.6473,5.5206 L 118.0752,5.5206 Z" stroke="#161616" stroke-width="0.1197" stroke-linecap="round" stroke-linejoin="round" fill="#000000"/>
        <path d="M 118.0752,6.9595 L 118.0752,9.0764 L 118.9682,9.0764 L 118.9682,9.5745 L 119.3310,9.5745 L 119.3310,10.0726 L 120.3915,10.0726 L 120.3915,9.5745 L 120.7543,9.5745 L 120.7543,9.0764 L 121.6473,9.0764 L 121.6473,6.9595 L 118.0752,6.9595 Z" stroke="#161616" stroke-width="0.1197" stroke-linecap="round" stroke-linejoin="round" fill="#000000"/>
        <path d="M 84.0659,9.9536 L 80.1003,9.9536 L 80.1003,7.2892 L 84.0659,7.2892 L 84.0659,9.9536 Z" stroke="#000000" stroke-width="0.1197" stroke-linecap="round" stroke-linejoin="round" fill="#494949"/>
        <path d="M 84.0659,5.1908 L 80.1003,5.1908 L 80.1003,2.5264 L 84.0659,2.5264 L 84.0659,5.1908 Z" stroke="#000000" stroke-width="0.1197" stroke-linecap="round" stroke-linejoin="round" fill="#494949"/>
        <path d="M 40.3549,2.5207 L 39.3230,2.5207 L 39.3230,2.8829 L 40.3549,2.8829 L 40.3549,2.5207 Z" stroke="#000000" stroke-width="0.1197" stroke-linecap="round" stroke-linejoin="round" fill="#83FF00"/>
        <path d="M 40.3549,9.4789 L 39.3230,9.4789 L 39.3230,9.8412 L 40.3549,9.8412 L 40.3549,9.4789 Z" stroke="#000000" stroke-width="0.1197" stroke-linecap="round" stroke-linejoin="round" fill="#83FF00"/>
        <path d="M 37.3698,9.4789 L 36.3379,9.4789 L 36.3379,9.8412 L 37.3698,9.8412 L 37.3698,9.4789 Z" stroke="#000000" stroke-width="0.1197" stroke-linecap="round" stroke-linejoin="round" fill="#83FF00"/>
        <path d="M 11.9445,7.3985 L 11.2480,7.3985 L 11.2480,8.0932 L 11.9445,8.0932 L 11.9445,7.3985 Z" stroke="#000000" stroke-width="0.1197" stroke-linecap="round" stroke-linejoin="round" fill="#00FF00"/>
        <path d="M 37.3698,2.5207 L 36.3379,2.5207 L 36.3379,2.8829 L 37.3698,2.8829 L 37.3698,2.5207 Z" stroke="#000000" stroke-width="0.1197" stroke-linecap="round" stroke-linejoin="round" fill="#83FF00"/>
        <path d="M 61.5090,2.5207 L 60.4771,2.5207 L 60.4771,2.8829 L 61.5090,2.8829 L 61.5090,2.5207 Z" stroke="#000000" stroke-width="0.1197" stroke-linecap="round" stroke-linejoin="round" fill="#83FF00"/>
        <path d="M 64.0335,2.5207 L 63.0016,2.5207 L 63.0016,2.8829 L 64.0335,2.8829 L 64.0335,2.5207 Z" stroke="#000000" stroke-width="0.1197" stroke-linecap="round" stroke-linejoin="round" fill="#83FF00"/>
        <path d="M 61.5090,9.4789 L 60.4771,9.4789 L 60.4771,9.8412 L 61.5090,9.8412 L 61.5090,9.4789 Z" stroke="#000000" stroke-width="0.1197" stroke-linecap="round" stroke-linejoin="round" fill="#83FF00"/>
        <path d="M 64.0335,9.4789 L 63.0016,9.4789 L 63.0016,9.8412 L 64.0335,9.8412 L 64.0335,9.4789 Z" stroke="#000000" stroke-width="0.1197" stroke-linecap="round" stroke-linejoin="round" fill="#83FF00"/>
        <path d="M 65.4340,2.5207 L 64.4021,2.5207 L 64.4021,2.8829 L 65.4340,2.8829 L 65.4340,2.5207 Z" stroke="#000000" stroke-width="0.1197" stroke-linecap="round" stroke-linejoin="round" fill="#83FF00"/>
        <path d="M 65.4340,9.4789 L 64.4021,9.4789 L 64.4021,9.8412 L 65.4340,9.8412 L 65.4340,9.4789 Z" stroke="#000000" stroke-width="0.1197" stroke-linecap="round" stroke-linejoin="round" fill="#83FF00"/>
        <path d="M 67.9769,2.5207 L 66.9450,2.5207 L 66.9450,2.8829 L 67.9769,2.8829 L 67.9769,2.5207 Z" stroke="#000000" stroke-width="0.1197" stroke-linecap="round" stroke-linejoin="round" fill="#83FF00"/>
        <path d="M 67.9769,9.4789 L 66.9450,9.4789 L 66.9450,9.8412 L 67.9769,9.8412 L 67.9769,9.4789 Z" stroke="#000000" stroke-width="0.1197" stroke-linecap="round" stroke-linejoin="round" fill="#83FF00"/>
        <path d="M 69.4326,2.5207 L 68.4007,2.5207 L 68.4007,2.8829 L 69.4326,2.8829 L 69.4326,2.5207 Z" stroke="#000000" stroke-width="0.1197" stroke-linecap="round" stroke-linejoin="round" fill="#83FF00"/>
        <path d="M 69.4326,9.4789 L 68.4007,9.4789 L 68.4007,9.8412 L 69.4326,9.8412 L 69.4326,9.4789 Z" stroke="#000000" stroke-width="0.1197" stroke-linecap="round" stroke-linejoin="round" fill="#83FF00"/>
        <path d="M 71.9571,2.5207 L 70.9252,2.5207 L 70.9252,2.8829 L 71.9571,2.8829 L 71.9571,2.5207 Z" stroke="#000000" stroke-width="0.1197" stroke-linecap="round" stroke-linejoin="round" fill="#83FF00"/>
        <path d="M 71.9571,9.4789 L 70.9252,9.4789 L 70.9252,9.8412 L 71.9571,9.8412 L 71.9571,9.4789 Z" stroke="#000000" stroke-width="0.1197" stroke-linecap="round" stroke-linejoin="round" fill="#83FF00"/>
        <path d="M 73.3760,2.5207 L 72.3441,2.5207 L 72.3441,2.8829 L 73.3760,2.8829 L 73.3760,2.5207 Z" stroke="#000000" stroke-width="0.1197" stroke-linecap="round" stroke-linejoin="round" fill="#83FF00"/>
        <path d="M 73.3760,9.4789 L 72.3441,9.4789 L 72.3441,9.8412 L 73.3760,9.8412 L 73.3760,9.4789 Z" stroke="#000000" stroke-width="0.1197" stroke-linecap="round" stroke-linejoin="round" fill="#83FF00"/>
        <path d="M 75.9005,2.5207 L 74.8686,2.5207 L 74.8686,2.8829 L 75.9005,2.8829 L 75.9005,2.5207 Z" stroke="#000000" stroke-width="0.1197" stroke-linecap="round" stroke-linejoin="round" fill="#83FF00"/>
        <path d="M 75.9005,9.4789 L 74.8686,9.4789 L 74.8686,9.8412 L 75.9005,9.8412 L 75.9005,9.4789 Z" stroke="#000000" stroke-width="0.1197" stroke-linecap="round" stroke-linejoin="round" fill="#83FF00"/>
        <path d="M 107.2262,2.5207 L 106.1943,2.5207 L 106.1943,2.8829 L 107.2262,2.8829 L 107.2262,2.5207 Z" stroke="#000000" stroke-width="0.1197" stroke-linecap="round" stroke-linejoin="round" fill="#83FF00"/>
        <path d="M 107.2262,9.4789 L 106.1943,9.4789 L 106.1943,9.8412 L 107.2262,9.8412 L 107.2262,9.4789 Z" stroke="#000000" stroke-width="0.1197" stroke-linecap="round" stroke-linejoin="round" fill="#83FF00"/>
        <path d="M 111.1696,2.5207 L 110.1377,2.5207 L 110.1377,2.8829 L 111.1696,2.8829 L 111.1696,2.5207 Z" stroke="#000000" stroke-width="0.1197" stroke-linecap="round" stroke-linejoin="round" fill="#83FF00"/>
        <path d="M 111.1696,9.4789 L 110.1377,9.4789 L 110.1377,9.8412 L 111.1696,9.8412 L 111.1696,9.4789 Z" stroke="#000000" stroke-width="0.1197" stroke-linecap="round" stroke-linejoin="round" fill="#83FF00"/>
        <path d="M 115.1682,2.5207 L 114.1363,2.5207 L 114.1363,2.8829 L 115.1682,2.8829 L 115.1682,2.5207 Z" stroke="#000000" stroke-width="0.1197" stroke-linecap="round" stroke-linejoin="round" fill="#83FF00"/>
        <path d="M 115.1682,9.4789 L 114.1363,9.4789 L 114.1363,9.8412 L 115.1682,9.8412 L 115.1682,9.4789 Z" stroke="#000000" stroke-width="0.1197" stroke-linecap="round" stroke-linejoin="round" fill="#83FF00"/>
        <path d="M 119.0932,2.5207 L 118.0612,2.5207 L 118.0612,2.8829 L 119.0932,2.8829 L 119.0932,2.5207 Z" stroke="#000000" stroke-width="0.1197" stroke-linecap="round" stroke-linejoin="round" fill="#83FF00"/>
        <path d="M 119.0932,9.4789 L 118.0612,9.4789 L 118.0612,9.8412 L 119.0932,9.8412 L 119.0932,9.4789 Z" stroke="#000000" stroke-width="0.1197" stroke-linecap="round" stroke-linejoin="round" fill="#83FF00"/>
        <path d="M 109.7691,2.5207 L 108.7372,2.5207 L 108.7372,2.8829 L 109.7691,2.8829 L 109.7691,2.5207 Z" stroke="#000000" stroke-width="0.1197" stroke-linecap="round" stroke-linejoin="round" fill="#83FF00"/>
        <path d="M 109.7691,9.4789 L 108.7372,9.4789 L 108.7372,9.8412 L 109.7691,9.8412 L 109.7691,9.4789 Z" stroke="#000000" stroke-width="0.1197" stroke-linecap="round" stroke-linejoin="round" fill="#83FF00"/>
        <path d="M 113.6941,2.5207 L 112.6622,2.5207 L 112.6622,2.8829 L 113.6941,2.8829 L 113.6941,2.5207 Z" stroke="#000000" stroke-width="0.1197" stroke-linecap="round" stroke-linejoin="round" fill="#83FF00"/>
        <path d="M 113.6941,9.4789 L 112.6622,9.4789 L 112.6622,9.8412 L 113.6941,9.8412 L 113.6941,9.4789 Z" stroke="#000000" stroke-width="0.1197" stroke-linecap="round" stroke-linejoin="round" fill="#83FF00"/>
        <path d="M 117.6927,2.5207 L 116.6608,2.5207 L 116.6608,2.8829 L 117.6927,2.8829 L 117.6927,2.5207 Z" stroke="#000000" stroke-width="0.1197" stroke-linecap="round" stroke-linejoin="round" fill="#83FF00"/>
        <path d="M 117.6927,9.4789 L 116.6608,9.4789 L 116.6608,9.8412 L 117.6927,9.8412 L 117.6927,9.4789 Z" stroke="#000000" stroke-width="0.1197" stroke-linecap="round" stroke-linejoin="round" fill="#83FF00"/>
        <path d="M 121.6361,2.5207 L 120.6042,2.5207 L 120.6042,2.8829 L 121.6361,2.8829 L 121.6361,2.5207 Z" stroke="#000000" stroke-width="0.1197" stroke-linecap="round" stroke-linejoin="round" fill="#83FF00"/>
        <path d="M 121.6361,9.4789 L 120.6042,9.4789 L 120.6042,9.8412 L 121.6361,9.8412 L 121.6361,9.4789 Z" stroke="#000000" stroke-width="0.1197" stroke-linecap="round" stroke-linejoin="round" fill="#83FF00"/>
      </g>
      <!--emf-blob end-->
    </g>
  </g>
</svg>
