<svg xmlns="http://www.w3.org/2000/svg" xmlns:xlink="http://www.w3.org/1999/xlink" version="1.1" width="3.4032000000" height="0.6628000000" viewBox="0 0 61.2567 11.9339">
  <title><![CDATA[FG-90/91G]]></title>
  <g transform=" scale(4.000000) ">
    <!--converted by libvisio2svg-->
    <g transform=" translate(0.000000,0.000000) ">
      <!--emf-blob start-->
      <g transform="translate(-0.0000, -0.0000)">
        <path d="M 61.2005,0.0279 L 0.0281,0.0279 L 0.0281,10.7298 L 61.2005,10.7298 L 61.2005,0.0279 Z" stroke="#000000" stroke-width="0.1196" stroke-linecap="round" stroke-linejoin="round" fill="#EFEFEF"/>
        <path d="M 61.2005,0.0279 L 0.0281,0.0279 L 0.0281,0.2787 L 61.2005,0.2787 L 61.2005,0.0279 Z" stroke="#FFFFFF" stroke-width="0.1196" stroke-linecap="round" stroke-linejoin="round" fill="#FFFFFF"/>
        <path d="M 61.2005,10.4789 L 0.0281,10.4789 L 0.0281,10.7298 L 61.2005,10.7298 L 61.2005,10.4789 Z" stroke="#DDDDDD" stroke-width="0.1196" stroke-linecap="round" stroke-linejoin="round" fill="#DDDDDD"/>
        <path d="M 21.4497,1.2541 L 17.1204,1.2541 L 17.1204,8.8068 L 21.4497,8.8068 L 21.4497,1.2541 Z" stroke="#000000" stroke-width="0.1196" stroke-linecap="round" stroke-linejoin="round" fill="#7F7F7F"/>
        <path d="M 21.2670,5.9083 L 17.3031,5.9083 L 17.3031,8.5978 L 21.2670,8.5978 L 21.2670,5.9083 Z" stroke="#333333" stroke-width="0.1196" stroke-linecap="round" stroke-linejoin="round" fill="#333333"/>
        <path d="M 20.0300,5.7690 L 18.5401,5.7690 L 18.5401,6.1313 L 20.0300,6.1313 L 20.0300,5.7690 Z" stroke="#333333" stroke-width="0.1196" stroke-linecap="round" stroke-linejoin="round" fill="#333333"/>
        <path d="M 19.8754,5.8944 L 18.6947,5.8944 L 18.6947,6.0616 L 19.8754,6.0616 L 19.8754,5.8944 Z" stroke="#494949" stroke-width="0.1196" stroke-linecap="round" stroke-linejoin="round" fill="#494949"/>
        <path d="M 21.2670,4.1247 L 17.3031,4.1247 L 17.3031,1.4353 L 21.2670,1.4353 L 21.2670,4.1247 Z" stroke="#333333" stroke-width="0.1196" stroke-linecap="round" stroke-linejoin="round" fill="#333333"/>
        <path d="M 20.0300,4.2640 L 18.5401,4.2640 L 18.5401,3.9017 L 20.0300,3.9017 L 20.0300,4.2640 Z" stroke="#333333" stroke-width="0.1196" stroke-linecap="round" stroke-linejoin="round" fill="#333333"/>
        <path d="M 19.8754,4.1386 L 18.6947,4.1386 L 18.6947,3.9714 L 19.8754,3.9714 L 19.8754,4.1386 Z" stroke="#494949" stroke-width="0.1196" stroke-linecap="round" stroke-linejoin="round" fill="#494949"/>
        <text font-family="Arial" fill="#000000" style="white-space:pre;" text-anchor="start" x="21.9838" y="9.8519" font-size="0.5482"><![CDATA[s]]></text>
        <text font-family="Arial" fill="#000000" style="white-space:pre;" text-anchor="start" x="22.2649" y="9.8519" font-size="0.5482"><![CDATA[h]]></text>
        <text font-family="Arial" fill="#000000" style="white-space:pre;" text-anchor="start" x="22.5742" y="9.8519" font-size="0.5482"><![CDATA[a]]></text>
        <text font-family="Arial" fill="#000000" style="white-space:pre;" text-anchor="start" x="22.8834" y="9.8519" font-size="0.5482"><![CDATA[r]]></text>
        <text font-family="Arial" fill="#000000" style="white-space:pre;" text-anchor="start" x="23.0661" y="9.8519" font-size="0.5482"><![CDATA[e]]></text>
        <text font-family="Arial" fill="#000000" style="white-space:pre;" text-anchor="start" x="23.3754" y="9.8519" font-size="0.5482"><![CDATA[d]]></text>
        <path d="M 17.9919,5.3928 L 18.3995,4.6681 L 17.5561,4.6681 L 17.9919,5.3928 Z" stroke="#000000" stroke-width="0.1196" stroke-linecap="round" stroke-linejoin="round" fill="#00FF00"/>
        <path d="M 20.6063,4.6681 L 21.0139,5.3928 L 20.1706,5.3928 L 20.6063,4.6681 Z" stroke="#000000" stroke-width="0.1196" stroke-linecap="round" stroke-linejoin="round" fill="#00FF00"/>
        <path d="M 28.9276,0.9197 L 23.7268,0.9197 L 23.7268,8.8068 L 28.9276,8.8068 L 28.9276,0.9197 Z" stroke="#000000" stroke-width="0.1196" stroke-linecap="round" stroke-linejoin="round" fill="#000000"/>
        <path d="M 28.8011,1.0590 L 23.8533,1.0590 L 23.8533,8.6674 L 28.8011,8.6674 L 28.8011,1.0590 Z" stroke="#000000" stroke-width="0.1196" stroke-linecap="round" stroke-linejoin="round" fill="#7F7F7F"/>
        <path d="M 49.2246,1.3238 L 31.3171,1.3238 L 31.3171,8.8068 L 49.2246,8.8068 L 49.2246,1.3238 Z" stroke="#000000" stroke-width="0.1196" stroke-linecap="round" stroke-linejoin="round" fill="#000000"/>
        <path d="M 49.1122,1.4353 L 31.4436,1.4353 L 31.4436,8.7092 L 49.1122,8.7092 L 49.1122,1.4353 Z" stroke="#000000" stroke-width="0.1196" stroke-linecap="round" stroke-linejoin="round" fill="#7F7F7F"/>
        <path d="M 58.3752,4.4731 L 58.3752,3.0099 L 57.0961,2.2853 L 55.8170,3.0238 L 55.8170,4.4870 L 57.0961,5.2116 L 58.3752,4.4731 Z" stroke="#000000" stroke-width="0.1196" stroke-linecap="round" stroke-linejoin="round" fill="#7F7F00"/>
        <ellipse cx="57.0328" cy="3.6927" rx="1.1456" ry="1.1427" fill="#FFFFFF" stroke="#000000" stroke-width="0.1196" stroke-linecap="round" stroke-linejoin="round"/>
        <ellipse cx="57.0328" cy="3.6927" rx="1.1456" ry="1.1427" fill="none" stroke="#000000" stroke-width="0.1196" stroke-linecap="round" stroke-linejoin="round"/>
        <text font-family="Arial" fill="#000000" style="white-space:pre;" text-anchor="start" x="56.4776" y="6.0059" font-size="0.6466"><![CDATA[B]]></text>
        <text font-family="Arial" fill="#000000" style="white-space:pre;" text-anchor="start" x="56.9133" y="6.0059" font-size="0.6466"><![CDATA[L]]></text>
        <text font-family="Arial" fill="#000000" style="white-space:pre;" text-anchor="start" x="57.2788" y="6.0059" font-size="0.6466"><![CDATA[E]]></text>
        <path d="M 0.6325,1.5189 L 0.6185,1.5189 L 0.6044,1.5189 L 0.6044,1.5050 L 0.5904,1.5050 L 0.5904,1.4910 L 0.5904,1.4771 L 0.5904,1.4632 L 0.5904,1.4492 L 0.5904,1.4213 L 0.5904,1.4074 L 0.5904,1.3795 L 0.5904,1.3656 L 0.5904,1.3377 L 0.5904,1.2959 L 0.5904,1.2681 L 0.5904,1.2402 L 0.5904,1.1984 L 0.5904,1.1566 L 0.5904,1.1287 L 0.5904,1.0869 L 0.5904,1.0451 L 0.5904,1.0033 L 0.5904,0.9615 L 0.5904,0.9336 L 0.5904,0.8918 L 0.5904,0.8500 L 0.5904,0.8222 L 0.5904,0.7943 L 0.5904,0.7525 L 0.5904,0.7246 L 0.5904,0.7107 L 0.5904,0.6828 L 0.5904,0.6689 L 0.5904,0.6410 L 0.5904,0.6271 L 0.5904,0.6131 L 0.5904,0.5992 L 0.5904,0.5853 L 0.6044,0.5853 L 0.6044,0.5713 L 0.6185,0.5713 L 0.6325,0.5713 L 0.6466,0.5713 L 0.6606,0.5713 L 0.6747,0.5713 L 0.7028,0.5713 L 0.7309,0.5713 L 0.7590,0.5713 L 0.8012,0.5713 L 0.8293,0.5713 L 0.8715,0.5713 L 0.9136,0.5713 L 0.9558,0.5713 L 1.0120,0.5713 L 1.0542,0.5713 L 1.1104,0.5713 L 1.1526,0.5713 L 1.1948,0.5713 L 1.2510,0.5713 L 1.2932,0.5713 L 1.3494,0.5713 L 1.3916,0.5713 L 1.4337,0.5713 L 1.4759,0.5713 L 1.5040,0.5713 L 1.5462,0.5713 L 1.5743,0.5713 L 1.6024,0.5713 L 1.6305,0.5713 L 1.6446,0.5713 L 1.6586,0.5713 L 1.6727,0.5713 L 1.6867,0.5713 L 1.7008,0.5713 L 1.7008,0.5853 L 1.7149,0.5853 L 1.7149,0.5992 L 1.7149,0.6131 L 1.7149,0.6271 L 1.7149,0.6410 L 1.7149,0.6549 L 1.7149,0.6689 L 1.7149,0.6828 L 1.7149,0.6967 L 1.7149,0.7107 L 1.7149,0.7246 L 1.7149,0.7385 L 1.7149,0.7525 L 1.7149,0.7664 L 1.7149,0.7803 L 1.7149,0.7943 L 1.7149,0.7803 L 1.7008,0.7803 L 1.7008,0.7664 L 1.6867,0.7525 L 1.6727,0.7525 L 1.6446,0.7525 L 1.6305,0.7525 L 1.6165,0.7525 L 1.5883,0.7525 L 1.5602,0.7525 L 1.5321,0.7525 L 1.4900,0.7525 L 1.4618,0.7525 L 1.4197,0.7525 L 1.3916,0.7525 L 1.3494,0.7525 L 1.3072,0.7525 L 1.2791,0.7525 L 1.2369,0.7525 L 1.1948,0.7525 L 1.1526,0.7525 L 1.1245,0.7525 L 1.0823,0.7525 L 1.0542,0.7525 L 1.0120,0.7525 L 0.9839,0.7525 L 0.9558,0.7525 L 0.9277,0.7525 L 0.9136,0.7525 L 0.8996,0.7525 L 0.8715,0.7525 L 0.8574,0.7525 L 0.8434,0.7525 L 0.8293,0.7525 L 0.8293,0.7664 L 0.8153,0.7664 L 0.8153,0.7803 L 0.8153,0.7943 L 0.8153,0.8082 L 0.8153,0.8222 L 0.8153,0.8361 L 0.8153,0.8640 L 0.8153,0.8779 L 0.8153,0.9058 L 0.8153,0.9197 L 0.8153,0.9476 L 0.8153,0.9754 L 0.8153,1.0172 L 0.8153,1.0451 L 0.8153,1.0730 L 0.8153,1.1008 L 0.8153,1.1427 L 0.8153,1.1705 L 0.8153,1.1984 L 0.8153,1.2263 L 0.8153,1.2541 L 0.8153,1.2959 L 0.8153,1.3238 L 0.8153,1.3517 L 0.8153,1.3656 L 0.8153,1.3935 L 0.8153,1.4074 L 0.8153,1.4353 L 0.8153,1.4492 L 0.8153,1.4632 L 0.8153,1.4771 L 0.8153,1.4910 L 0.8153,1.5050 L 0.8293,1.5189 L 0.8434,1.5189 L 0.8293,1.5189 L 0.8153,1.5189 L 0.8012,1.5189 L 0.7871,1.5189 L 0.7731,1.5189 L 0.7590,1.5189 L 0.7450,1.5189 L 0.7309,1.5189 L 0.7169,1.5189 L 0.7028,1.5189 L 0.6888,1.5189 L 0.6747,1.5189 L 0.6606,1.5189 L 0.6466,1.5189 L 0.6325,1.5189 Z" stroke="#000000" stroke-width="0.1196" stroke-linecap="round" stroke-linejoin="round" fill="#000000"/>
        <path d="M 1.6446,0.9894 L 1.6305,0.9894 L 1.6024,0.9894 L 1.5883,0.9894 L 1.5602,0.9894 L 1.5321,0.9894 L 1.5040,0.9894 L 1.4759,0.9894 L 1.4478,0.9894 L 1.4197,0.9894 L 1.3916,0.9894 L 1.3634,0.9894 L 1.3353,0.9894 L 1.2932,0.9894 L 1.2651,0.9894 L 1.2369,0.9894 L 1.2088,0.9894 L 1.1667,0.9894 L 1.1385,0.9894 L 1.1104,0.9894 L 1.0823,0.9894 L 1.0542,0.9894 L 1.0402,0.9894 L 1.0120,0.9894 L 0.9839,0.9894 L 0.9699,0.9894 L 0.9558,0.9894 L 0.9418,0.9894 L 0.9277,0.9894 L 0.9136,0.9894 L 0.8996,0.9894 L 0.8855,0.9894 L 0.8855,0.9754 L 0.8855,0.9615 L 0.8715,0.9615 L 0.8715,0.9476 L 0.8715,0.9336 L 0.8715,0.9197 L 0.8715,0.9058 L 0.8715,0.9197 L 0.8715,0.9336 L 0.8715,0.9476 L 0.8715,0.9615 L 0.8715,0.9754 L 0.8715,0.9894 L 0.8715,1.0033 L 0.8715,1.0172 L 0.8715,1.0312 L 0.8715,1.0451 L 0.8715,1.0590 L 0.8715,1.0730 L 0.8715,1.0869 L 0.8715,1.1008 L 0.8715,1.1148 L 0.8715,1.1287 L 0.8715,1.1427 L 0.8855,1.1427 L 0.8855,1.1566 L 0.8855,1.1705 L 0.8996,1.1705 L 0.9136,1.1705 L 0.9277,1.1705 L 0.9418,1.1705 L 0.9558,1.1705 L 0.9699,1.1705 L 0.9980,1.1705 L 1.0120,1.1705 L 1.0402,1.1705 L 1.0683,1.1705 L 1.0964,1.1705 L 1.1245,1.1705 L 1.1526,1.1705 L 1.1807,1.1705 L 1.2229,1.1705 L 1.2510,1.1705 L 1.2791,1.1705 L 1.3213,1.1705 L 1.3494,1.1705 L 1.3775,1.1705 L 1.4197,1.1705 L 1.4478,1.1705 L 1.4759,1.1705 L 1.5181,1.1705 L 1.5462,1.1705 L 1.5743,1.1705 L 1.6024,1.1705 L 1.6165,1.1705 L 1.6446,1.1705 L 1.6727,1.1705 L 1.6867,1.1705 L 1.7008,1.1566 L 1.7008,1.1427 L 1.7149,1.1287 L 1.7289,1.1148 L 1.7289,1.1008 L 1.7289,1.0869 L 1.7289,1.0730 L 1.7430,1.0730 L 1.7430,1.0590 L 1.7289,1.0451 L 1.7289,1.0312 L 1.7289,1.0172 L 1.7149,1.0172 L 1.7008,1.0033 L 1.6867,1.0033 L 1.6727,1.0033 L 1.6727,0.9894 L 1.6586,0.9894 L 1.6446,0.9894 Z" stroke="#000000" stroke-width="0.1196" stroke-linecap="round" stroke-linejoin="round" fill="#000000"/>
        <path d="M 3.4859,1.1705 L 3.4719,1.1705 L 3.4719,1.1566 L 3.4578,1.1566 L 3.4438,1.1427 L 3.4438,1.1287 L 3.4297,1.1148 L 3.4297,1.1008 L 3.4297,1.0869 L 3.4297,1.0730 L 3.4297,1.0590 L 3.4297,1.0451 L 3.4297,1.0312 L 3.4297,1.0172 L 3.4297,1.0033 L 3.4297,0.9894 L 3.4297,0.9754 L 3.4297,0.9615 L 3.4297,0.9476 L 3.4297,0.9336 L 3.4297,0.9197 L 3.4297,0.9058 L 3.4297,0.9197 L 3.4297,0.9336 L 3.4297,0.9476 L 3.4438,0.9476 L 3.4438,0.9615 L 3.4578,0.9615 L 3.4719,0.9615 L 3.4859,0.9615 L 3.5000,0.9615 L 3.5140,0.9615 L 3.5281,0.9615 L 3.5421,0.9615 L 3.5562,0.9615 L 3.5703,0.9615 L 3.5984,0.9615 L 3.6265,0.9615 L 3.6405,0.9615 L 3.6687,0.9615 L 3.6968,0.9615 L 3.7249,0.9615 L 3.7530,0.9615 L 3.7811,0.9615 L 3.7952,0.9615 L 3.8233,0.9615 L 3.8514,0.9615 L 3.8795,0.9615 L 3.9076,0.9615 L 3.9217,0.9615 L 3.9498,0.9615 L 3.9779,0.9615 L 3.9919,0.9615 L 4.0060,0.9615 L 4.0201,0.9615 L 4.0341,0.9615 L 4.0482,0.9615 L 4.0622,0.9615 L 4.0622,0.9476 L 4.0622,0.9336 L 4.0622,0.9197 L 4.0622,0.9058 L 4.0622,0.8918 L 4.0622,0.8779 L 4.0622,0.8640 L 4.0622,0.8500 L 4.0622,0.8361 L 4.0622,0.8222 L 4.0622,0.8082 L 4.0622,0.7943 L 4.0622,0.7803 L 4.0622,0.7664 L 4.0622,0.7525 L 4.0482,0.7525 L 4.0341,0.7525 L 4.0201,0.7525 L 4.0060,0.7525 L 3.9779,0.7525 L 3.9638,0.7525 L 3.9357,0.7525 L 3.9217,0.7525 L 3.8936,0.7525 L 3.8654,0.7525 L 3.8373,0.7525 L 3.8092,0.7525 L 3.7811,0.7525 L 3.7530,0.7525 L 3.7108,0.7525 L 3.6827,0.7525 L 3.6546,0.7525 L 3.6265,0.7525 L 3.5984,0.7525 L 3.5703,0.7525 L 3.5562,0.7525 L 3.5281,0.7525 L 3.5140,0.7525 L 3.4859,0.7525 L 3.4719,0.7525 L 3.4578,0.7525 L 3.4438,0.7525 L 3.4297,0.7525 L 3.4156,0.7525 L 3.4016,0.7525 L 3.4016,0.7664 L 3.3875,0.7664 L 3.3735,0.7803 L 3.3594,0.7803 L 3.3594,0.7943 L 3.3594,0.8082 L 3.3594,0.8222 L 3.3594,0.8361 L 3.3594,0.8640 L 3.3594,0.8779 L 3.3594,0.9058 L 3.3594,0.9197 L 3.3594,0.9476 L 3.3594,0.9754 L 3.3594,1.0172 L 3.3594,1.0451 L 3.3594,1.0730 L 3.3594,1.1008 L 3.3594,1.1427 L 3.3594,1.1705 L 3.3594,1.1984 L 3.3594,1.2263 L 3.3594,1.2541 L 3.3594,1.2959 L 3.3594,1.3238 L 3.3594,1.3517 L 3.3594,1.3656 L 3.3594,1.3935 L 3.3594,1.4074 L 3.3594,1.4353 L 3.3594,1.4492 L 3.3594,1.4632 L 3.3594,1.4771 L 3.3594,1.4910 L 3.3594,1.5050 L 3.3735,1.5050 L 3.3735,1.5189 L 3.3875,1.5189 L 3.4016,1.5189 L 3.4156,1.5189 L 3.4016,1.5189 L 3.3875,1.5189 L 3.3735,1.5189 L 3.3594,1.5189 L 3.3454,1.5189 L 3.3313,1.5189 L 3.3173,1.5189 L 3.3032,1.5189 L 3.2891,1.5189 L 3.2751,1.5189 L 3.2610,1.5189 L 3.2470,1.5189 L 3.2329,1.5189 L 3.2189,1.5189 L 3.2048,1.5189 L 3.1907,1.5189 L 3.1767,1.5189 L 3.1626,1.5050 L 3.1486,1.4910 L 3.1486,1.4771 L 3.1486,1.4632 L 3.1486,1.4492 L 3.1486,1.4213 L 3.1486,1.4074 L 3.1486,1.3795 L 3.1486,1.3656 L 3.1486,1.3377 L 3.1486,1.2959 L 3.1486,1.2681 L 3.1486,1.2402 L 3.1486,1.1984 L 3.1486,1.1566 L 3.1486,1.1287 L 3.1486,1.0869 L 3.1486,1.0451 L 3.1486,1.0033 L 3.1486,0.9615 L 3.1486,0.9336 L 3.1486,0.8918 L 3.1486,0.8500 L 3.1486,0.8222 L 3.1486,0.7943 L 3.1486,0.7525 L 3.1486,0.7246 L 3.1486,0.7107 L 3.1486,0.6828 L 3.1486,0.6689 L 3.1486,0.6410 L 3.1486,0.6271 L 3.1486,0.6131 L 3.1486,0.5992 L 3.1626,0.5853 L 3.1767,0.5853 L 3.1767,0.5713 L 3.1907,0.5713 L 3.2048,0.5713 L 3.2189,0.5713 L 3.2329,0.5713 L 3.2470,0.5713 L 3.2751,0.5713 L 3.3032,0.5713 L 3.3313,0.5713 L 3.3594,0.5713 L 3.4016,0.5713 L 3.4438,0.5713 L 3.4859,0.5713 L 3.5281,0.5713 L 3.5703,0.5713 L 3.6124,0.5713 L 3.6687,0.5713 L 3.7108,0.5713 L 3.7530,0.5713 L 3.8092,0.5713 L 3.8514,0.5713 L 3.8936,0.5713 L 3.9357,0.5713 L 3.9779,0.5713 L 4.0201,0.5713 L 4.0622,0.5713 L 4.0903,0.5713 L 4.1185,0.5713 L 4.1466,0.5713 L 4.1747,0.5713 L 4.1887,0.5713 L 4.2028,0.5713 L 4.2168,0.5713 L 4.2309,0.5713 L 4.2450,0.5713 L 4.2590,0.5713 L 4.2731,0.5713 L 4.2731,0.5853 L 4.2871,0.5853 L 4.2871,0.5992 L 4.2871,0.6131 L 4.2871,0.6271 L 4.2871,0.6410 L 4.2871,0.6549 L 4.2871,0.6689 L 4.2871,0.6828 L 4.2871,0.6967 L 4.2871,0.7107 L 4.2871,0.7246 L 4.2871,0.7525 L 4.2871,0.7664 L 4.2871,0.7943 L 4.2871,0.8082 L 4.2871,0.8361 L 4.2871,0.8500 L 4.2871,0.8640 L 4.2871,0.8918 L 4.2871,0.9058 L 4.2871,0.9336 L 4.2871,0.9476 L 4.2871,0.9754 L 4.2871,0.9894 L 4.2871,1.0033 L 4.2871,1.0172 L 4.2871,1.0312 L 4.2871,1.0451 L 4.2871,1.0590 L 4.2871,1.0730 L 4.2731,1.0869 L 4.2731,1.1008 L 4.2731,1.1148 L 4.2590,1.1148 L 4.2590,1.1287 L 4.2450,1.1427 L 4.2450,1.1566 L 4.2309,1.1566 L 4.2168,1.1705 L 4.2309,1.1705 L 4.2450,1.1845 L 4.2590,1.1845 L 4.2590,1.1984 L 4.2731,1.1984 L 4.2731,1.2123 L 4.2731,1.2263 L 4.2871,1.2263 L 4.2871,1.2402 L 4.2871,1.2541 L 4.2871,1.2681 L 4.2871,1.2820 L 4.2871,1.2959 L 4.2871,1.3099 L 4.2871,1.3238 L 4.2871,1.3377 L 4.2871,1.3517 L 4.2871,1.3656 L 4.2871,1.3795 L 4.2871,1.3935 L 4.2871,1.4074 L 4.2871,1.4213 L 4.2871,1.4353 L 4.2871,1.4492 L 4.2871,1.4632 L 4.2871,1.4771 L 4.2871,1.4910 L 4.2871,1.5050 L 4.3012,1.5050 L 4.3012,1.5189 L 4.3152,1.5189 L 4.3293,1.5189 L 4.3434,1.5189 L 4.3293,1.5189 L 4.3152,1.5189 L 4.3012,1.5189 L 4.2871,1.5189 L 4.2731,1.5189 L 4.2590,1.5189 L 4.2450,1.5189 L 4.2309,1.5189 L 4.2168,1.5189 L 4.2028,1.5189 L 4.1887,1.5189 L 4.1747,1.5189 L 4.1606,1.5189 L 4.1466,1.5189 L 4.1325,1.5189 L 4.1185,1.5189 L 4.1044,1.5189 L 4.0903,1.5189 L 4.0903,1.5050 L 4.0763,1.5050 L 4.0763,1.4910 L 4.0622,1.4910 L 4.0622,1.4771 L 4.0622,1.4632 L 4.0622,1.4492 L 4.0622,1.4353 L 4.0622,1.4213 L 4.0622,1.4074 L 4.0622,1.3935 L 4.0622,1.3795 L 4.0622,1.3656 L 4.0622,1.3517 L 4.0622,1.3377 L 4.0622,1.3238 L 4.0622,1.3099 L 4.0622,1.2959 L 4.0622,1.2820 L 4.0622,1.2681 L 4.0622,1.2541 L 4.0622,1.2402 L 4.0622,1.2263 L 4.0622,1.2123 L 4.0622,1.1984 L 4.0622,1.1845 L 4.0622,1.1705 L 4.0482,1.1705 L 4.0341,1.1705 L 4.0201,1.1705 L 4.0060,1.1705 L 3.9919,1.1705 L 3.9779,1.1705 L 3.9498,1.1705 L 3.9217,1.1705 L 3.9076,1.1705 L 3.8795,1.1705 L 3.8514,1.1705 L 3.8233,1.1705 L 3.7952,1.1705 L 3.7811,1.1705 L 3.7530,1.1705 L 3.7249,1.1705 L 3.6968,1.1705 L 3.6687,1.1705 L 3.6405,1.1705 L 3.6265,1.1705 L 3.5984,1.1705 L 3.5703,1.1705 L 3.5562,1.1705 L 3.5421,1.1705 L 3.5281,1.1705 L 3.5140,1.1705 L 3.5000,1.1705 L 3.4859,1.1705 Z" stroke="#000000" stroke-width="0.1196" stroke-linecap="round" stroke-linejoin="round" fill="#000000"/>
        <path d="M 4.6948,0.7525 L 4.6807,0.7525 L 4.6666,0.7525 L 4.6526,0.7525 L 4.6385,0.7525 L 4.6245,0.7525 L 4.6104,0.7525 L 4.5964,0.7525 L 4.5823,0.7525 L 4.5682,0.7525 L 4.5542,0.7525 L 4.5401,0.7525 L 4.5261,0.7525 L 4.5120,0.7525 L 4.4980,0.7525 L 4.4839,0.7525 L 4.4699,0.7525 L 4.4558,0.7525 L 4.4417,0.7525 L 4.4417,0.7385 L 4.4277,0.7385 L 4.4277,0.7246 L 4.4277,0.7107 L 4.4136,0.7107 L 4.4136,0.6967 L 4.4136,0.6828 L 4.4136,0.6689 L 4.4136,0.6549 L 4.4136,0.6410 L 4.4136,0.6271 L 4.4136,0.6131 L 4.4136,0.5992 L 4.4136,0.5853 L 4.4277,0.5853 L 4.4277,0.5713 L 4.4417,0.5713 L 4.4558,0.5713 L 4.4699,0.5713 L 4.4839,0.5713 L 4.4980,0.5713 L 4.5261,0.5713 L 4.5542,0.5713 L 4.5823,0.5713 L 4.6245,0.5713 L 4.6526,0.5713 L 4.6948,0.5713 L 4.7369,0.5713 L 4.7791,0.5713 L 4.8353,0.5713 L 4.8775,0.5713 L 4.9337,0.5713 L 4.9759,0.5713 L 5.0180,0.5713 L 5.0743,0.5713 L 5.1164,0.5713 L 5.1727,0.5713 L 5.2148,0.5713 L 5.2570,0.5713 L 5.2992,0.5713 L 5.3273,0.5713 L 5.3694,0.5713 L 5.3976,0.5713 L 5.4257,0.5713 L 5.4538,0.5713 L 5.4678,0.5713 L 5.4819,0.5713 L 5.4960,0.5713 L 5.5100,0.5713 L 5.5241,0.5713 L 5.5241,0.5853 L 5.5381,0.5853 L 5.5381,0.5992 L 5.5381,0.6131 L 5.5381,0.6271 L 5.5381,0.6410 L 5.5381,0.6549 L 5.5381,0.6689 L 5.5381,0.6828 L 5.5381,0.6967 L 5.5381,0.7107 L 5.5381,0.7246 L 5.5381,0.7385 L 5.5381,0.7525 L 5.5381,0.7664 L 5.5381,0.7803 L 5.5381,0.7943 L 5.5381,0.7803 L 5.5241,0.7803 L 5.5241,0.7664 L 5.5100,0.7525 L 5.4960,0.7525 L 5.4819,0.7525 L 5.4678,0.7525 L 5.4538,0.7525 L 5.4397,0.7525 L 5.4257,0.7525 L 5.4116,0.7525 L 5.3976,0.7525 L 5.3835,0.7525 L 5.3694,0.7525 L 5.3413,0.7525 L 5.3273,0.7525 L 5.2992,0.7525 L 5.2851,0.7525 L 5.2570,0.7525 L 5.2429,0.7525 L 5.2148,0.7525 L 5.1867,0.7525 L 5.1727,0.7525 L 5.1446,0.7525 L 5.1164,0.7525 L 5.0883,0.7525 L 5.0743,0.7525 L 5.0462,0.7525 L 5.0180,0.7525 L 4.9899,0.7525 L 4.9759,0.7525 L 4.9478,0.7525 L 4.9478,0.7664 L 4.9337,0.7664 L 4.9337,0.7803 L 4.9337,0.7943 L 4.9337,0.8082 L 4.9337,0.8222 L 4.9337,0.8361 L 4.9337,0.8640 L 4.9337,0.8779 L 4.9337,0.9058 L 4.9337,0.9197 L 4.9337,0.9476 L 4.9337,0.9754 L 4.9337,1.0172 L 4.9337,1.0451 L 4.9337,1.0730 L 4.9337,1.1008 L 4.9337,1.1427 L 4.9337,1.1705 L 4.9337,1.1984 L 4.9337,1.2263 L 4.9337,1.2541 L 4.9337,1.2959 L 4.9337,1.3238 L 4.9337,1.3517 L 4.9337,1.3656 L 4.9337,1.3935 L 4.9337,1.4074 L 4.9337,1.4353 L 4.9337,1.4492 L 4.9337,1.4632 L 4.9337,1.4771 L 4.9337,1.4910 L 4.9337,1.5050 L 4.9337,1.5189 L 4.9478,1.5189 L 4.9337,1.5189 L 4.9197,1.5189 L 4.9056,1.5189 L 4.8915,1.5189 L 4.8775,1.5189 L 4.8634,1.5189 L 4.8494,1.5189 L 4.8353,1.5189 L 4.8213,1.5189 L 4.8072,1.5189 L 4.7931,1.5189 L 4.7791,1.5189 L 4.7650,1.5189 L 4.7510,1.5189 L 4.7369,1.5189 L 4.7229,1.5189 L 4.7088,1.5189 L 4.7088,1.5050 L 4.6948,1.5050 L 4.6948,1.4910 L 4.6948,1.4771 L 4.6948,1.4632 L 4.6948,1.4492 L 4.6948,1.4353 L 4.6948,1.4213 L 4.6948,1.3935 L 4.6948,1.3795 L 4.6948,1.3656 L 4.6948,1.3377 L 4.6948,1.3238 L 4.6948,1.2959 L 4.6948,1.2681 L 4.6948,1.2402 L 4.6948,1.2123 L 4.6948,1.1845 L 4.6948,1.1566 L 4.6948,1.1287 L 4.6948,1.1008 L 4.6948,1.0730 L 4.6948,1.0451 L 4.6948,1.0033 L 4.6948,0.9754 L 4.6948,0.9476 L 4.6948,0.9197 L 4.6948,0.8918 L 4.6948,0.8640 L 4.6948,0.8361 L 4.6948,0.8222 L 4.6948,0.7943 L 4.6948,0.7664 L 4.6948,0.7525 Z" stroke="#000000" stroke-width="0.1196" stroke-linecap="round" stroke-linejoin="round" fill="#000000"/>
        <path d="M 5.9036,1.4771 L 5.9036,1.4910 L 5.9036,1.5050 L 5.9176,1.5189 L 5.9317,1.5189 L 5.9176,1.5189 L 5.9036,1.5189 L 5.8895,1.5189 L 5.8755,1.5189 L 5.8614,1.5189 L 5.8474,1.5189 L 5.8333,1.5189 L 5.8192,1.5189 L 5.8052,1.5189 L 5.7911,1.5189 L 5.7771,1.5189 L 5.7630,1.5189 L 5.7490,1.5189 L 5.7349,1.5189 L 5.7209,1.5189 L 5.7068,1.5189 L 5.6927,1.5189 L 5.6927,1.5050 L 5.6787,1.5050 L 5.6787,1.4910 L 5.6787,1.4771 L 5.6787,1.4632 L 5.6787,1.4492 L 5.6787,1.4353 L 5.6787,1.4213 L 5.6787,1.4074 L 5.6787,1.3795 L 5.6787,1.3656 L 5.6787,1.3238 L 5.6787,1.2959 L 5.6787,1.2681 L 5.6787,1.2263 L 5.6787,1.1984 L 5.6787,1.1566 L 5.6787,1.1148 L 5.6787,1.0730 L 5.6787,1.0451 L 5.6787,1.0033 L 5.6787,0.9615 L 5.6787,0.9197 L 5.6787,0.8779 L 5.6787,0.8500 L 5.6787,0.8082 L 5.6787,0.7803 L 5.6787,0.7525 L 5.6787,0.7107 L 5.6787,0.6967 L 5.6787,0.6689 L 5.6787,0.6549 L 5.6787,0.6410 L 5.6787,0.6271 L 5.6787,0.6131 L 5.6787,0.5992 L 5.6787,0.5853 L 5.6646,0.5853 L 5.6646,0.5713 L 5.6506,0.5713 L 5.6365,0.5713 L 5.6506,0.5713 L 5.6646,0.5713 L 5.6787,0.5713 L 5.6927,0.5713 L 5.7068,0.5713 L 5.7209,0.5713 L 5.7349,0.5713 L 5.7490,0.5713 L 5.7630,0.5713 L 5.7771,0.5713 L 5.7911,0.5713 L 5.8052,0.5713 L 5.8192,0.5713 L 5.8333,0.5713 L 5.8474,0.5713 L 5.8614,0.5713 L 5.8755,0.5713 L 5.8755,0.5853 L 5.8895,0.5853 L 5.8895,0.5992 L 5.9036,0.5992 L 5.9036,0.6131 L 5.9036,0.6271 L 5.9036,0.6410 L 5.9036,0.6549 L 5.9036,0.6689 L 5.9036,0.6828 L 5.9036,0.7107 L 5.9036,0.7246 L 5.9036,0.7664 L 5.9036,0.7943 L 5.9036,0.8222 L 5.9036,0.8640 L 5.9036,0.8918 L 5.9036,0.9336 L 5.9036,0.9754 L 5.9036,1.0172 L 5.9036,1.0590 L 5.9036,1.0869 L 5.9036,1.1287 L 5.9036,1.1705 L 5.9036,1.2123 L 5.9036,1.2402 L 5.9036,1.2820 L 5.9036,1.3099 L 5.9036,1.3377 L 5.9036,1.3795 L 5.9036,1.3935 L 5.9036,1.4213 L 5.9036,1.4353 L 5.9036,1.4492 L 5.9036,1.4632 L 5.9036,1.4771 Z" stroke="#000000" stroke-width="0.1196" stroke-linecap="round" stroke-linejoin="round" fill="#000000"/>
        <path d="M 7.0000,0.7525 L 6.9719,0.7525 L 6.9578,0.7525 L 6.9297,0.7525 L 6.9016,0.7525 L 6.8735,0.7525 L 6.8594,0.7525 L 6.8313,0.7525 L 6.8032,0.7525 L 6.7751,0.7525 L 6.7470,0.7525 L 6.7188,0.7525 L 6.6907,0.7525 L 6.6626,0.7525 L 6.6486,0.7525 L 6.6204,0.7525 L 6.5923,0.7525 L 6.5642,0.7525 L 6.5502,0.7525 L 6.5221,0.7525 L 6.5080,0.7525 L 6.4799,0.7525 L 6.4658,0.7525 L 6.4518,0.7525 L 6.4377,0.7525 L 6.4237,0.7525 L 6.4096,0.7525 L 6.3955,0.7525 L 6.3815,0.7525 L 6.3674,0.7525 L 6.3534,0.7525 L 6.3393,0.7525 L 6.3393,0.7664 L 6.3253,0.7664 L 6.3112,0.7803 L 6.2972,0.7803 L 6.2972,0.7943 L 6.2972,0.8082 L 6.2972,0.8222 L 6.2972,0.8361 L 6.2972,0.8640 L 6.2972,0.8779 L 6.2972,0.9058 L 6.2972,0.9197 L 6.2972,0.9476 L 6.2972,0.9754 L 6.2972,1.0172 L 6.2972,1.0451 L 6.2972,1.0730 L 6.2972,1.1008 L 6.2972,1.1427 L 6.2972,1.1705 L 6.2972,1.1984 L 6.2972,1.2263 L 6.2972,1.2541 L 6.2972,1.2959 L 6.2972,1.3238 L 6.2972,1.3517 L 6.2972,1.3656 L 6.2972,1.3935 L 6.2972,1.4074 L 6.2972,1.4353 L 6.2972,1.4492 L 6.2972,1.4632 L 6.2972,1.4771 L 6.2972,1.4910 L 6.2972,1.5050 L 6.3112,1.5050 L 6.3112,1.5189 L 6.3253,1.5189 L 6.3393,1.5189 L 6.3534,1.5189 L 6.3393,1.5189 L 6.3253,1.5189 L 6.3112,1.5189 L 6.2972,1.5189 L 6.2831,1.5189 L 6.2690,1.5189 L 6.2550,1.5189 L 6.2409,1.5189 L 6.2269,1.5189 L 6.2128,1.5189 L 6.1988,1.5189 L 6.1847,1.5189 L 6.1706,1.5189 L 6.1566,1.5189 L 6.1425,1.5189 L 6.1285,1.5189 L 6.1144,1.5189 L 6.1004,1.5050 L 6.0863,1.4910 L 6.0863,1.4771 L 6.0863,1.4632 L 6.0863,1.4492 L 6.0863,1.4213 L 6.0863,1.4074 L 6.0863,1.3795 L 6.0863,1.3656 L 6.0863,1.3377 L 6.0863,1.2959 L 6.0863,1.2681 L 6.0863,1.2402 L 6.0863,1.1984 L 6.0863,1.1566 L 6.0863,1.1287 L 6.0863,1.0869 L 6.0863,1.0451 L 6.0863,1.0033 L 6.0863,0.9615 L 6.0863,0.9336 L 6.0863,0.8918 L 6.0863,0.8500 L 6.0863,0.8222 L 6.0863,0.7943 L 6.0863,0.7525 L 6.0863,0.7246 L 6.0863,0.7107 L 6.0863,0.6828 L 6.0863,0.6689 L 6.0863,0.6410 L 6.0863,0.6271 L 6.0863,0.6131 L 6.0863,0.5992 L 6.1004,0.5853 L 6.1144,0.5853 L 6.1144,0.5713 L 6.1285,0.5713 L 6.1425,0.5713 L 6.1566,0.5713 L 6.1706,0.5713 L 6.1847,0.5713 L 6.2128,0.5713 L 6.2409,0.5713 L 6.2690,0.5713 L 6.2972,0.5713 L 6.3393,0.5713 L 6.3815,0.5713 L 6.4237,0.5713 L 6.4658,0.5713 L 6.5080,0.5713 L 6.5502,0.5713 L 6.6064,0.5713 L 6.6486,0.5713 L 6.6907,0.5713 L 6.7470,0.5713 L 6.7891,0.5713 L 6.8313,0.5713 L 6.8735,0.5713 L 6.9156,0.5713 L 6.9578,0.5713 L 7.0000,0.5713 L 7.0281,0.5713 L 7.0562,0.5713 L 7.0843,0.5713 L 7.1124,0.5713 L 7.1265,0.5713 L 7.1405,0.5713 L 7.1546,0.5713 L 7.1686,0.5713 L 7.1827,0.5713 L 7.1967,0.5713 L 7.2108,0.5713 L 7.2108,0.5853 L 7.2249,0.5853 L 7.2249,0.5992 L 7.2249,0.6131 L 7.2249,0.6271 L 7.2249,0.6410 L 7.2249,0.6549 L 7.2249,0.6689 L 7.2249,0.6828 L 7.2249,0.7107 L 7.2249,0.7246 L 7.2249,0.7664 L 7.2249,0.7943 L 7.2249,0.8222 L 7.2249,0.8640 L 7.2249,0.8918 L 7.2249,0.9336 L 7.2249,0.9754 L 7.2249,1.0172 L 7.2249,1.0590 L 7.2249,1.0869 L 7.2249,1.1287 L 7.2249,1.1705 L 7.2249,1.2123 L 7.2249,1.2402 L 7.2249,1.2820 L 7.2249,1.3099 L 7.2249,1.3377 L 7.2249,1.3795 L 7.2249,1.3935 L 7.2249,1.4213 L 7.2249,1.4353 L 7.2249,1.4492 L 7.2249,1.4632 L 7.2249,1.4771 L 7.2249,1.4910 L 7.2249,1.5050 L 7.2389,1.5050 L 7.2389,1.5189 L 7.2530,1.5189 L 7.2670,1.5189 L 7.2811,1.5189 L 7.2670,1.5189 L 7.2530,1.5189 L 7.2389,1.5189 L 7.2249,1.5189 L 7.2108,1.5189 L 7.1967,1.5189 L 7.1827,1.5189 L 7.1686,1.5189 L 7.1546,1.5189 L 7.1405,1.5189 L 7.1265,1.5189 L 7.1124,1.5189 L 7.0984,1.5189 L 7.0843,1.5189 L 7.0702,1.5189 L 7.0562,1.5189 L 7.0421,1.5189 L 7.0281,1.5189 L 7.0281,1.5050 L 7.0140,1.5050 L 7.0140,1.4910 L 7.0000,1.4910 L 7.0000,1.4771 L 7.0000,1.4632 L 7.0000,1.4492 L 7.0000,1.4353 L 7.0000,1.4213 L 7.0000,1.3935 L 7.0000,1.3795 L 7.0000,1.3656 L 7.0000,1.3377 L 7.0000,1.3238 L 7.0000,1.2959 L 7.0000,1.2681 L 7.0000,1.2402 L 7.0000,1.2123 L 7.0000,1.1845 L 7.0000,1.1566 L 7.0000,1.1287 L 7.0000,1.1008 L 7.0000,1.0730 L 7.0000,1.0451 L 7.0000,1.0033 L 7.0000,0.9754 L 7.0000,0.9476 L 7.0000,0.9197 L 7.0000,0.8918 L 7.0000,0.8640 L 7.0000,0.8361 L 7.0000,0.8222 L 7.0000,0.7943 L 7.0000,0.7664 L 7.0000,0.7525 Z" stroke="#000000" stroke-width="0.1196" stroke-linecap="round" stroke-linejoin="round" fill="#000000"/>
        <path d="M 8.3353,0.9894 L 8.3212,0.9894 L 8.2931,0.9894 L 8.2791,0.9894 L 8.2510,0.9894 L 8.2228,0.9894 L 8.2088,0.9894 L 8.1807,0.9894 L 8.1526,0.9894 L 8.1245,0.9894 L 8.0963,0.9894 L 8.0682,0.9894 L 8.0261,0.9894 L 7.9979,0.9894 L 7.9698,0.9894 L 7.9417,0.9894 L 7.9136,0.9894 L 7.8855,0.9894 L 7.8574,0.9894 L 7.8293,0.9894 L 7.8012,0.9894 L 7.7871,0.9894 L 7.7590,0.9894 L 7.7309,0.9894 L 7.7168,0.9894 L 7.7028,0.9894 L 7.6887,0.9894 L 7.6606,0.9894 L 7.6465,0.9894 L 7.6325,0.9894 L 7.6184,0.9894 L 7.6184,0.9754 L 7.6044,0.9754 L 7.6044,0.9615 L 7.6044,0.9476 L 7.5903,0.9476 L 7.5903,0.9336 L 7.5903,0.9197 L 7.5903,0.9058 L 7.5903,0.9197 L 7.5903,0.9336 L 7.5903,0.9476 L 7.5903,0.9615 L 7.5903,0.9754 L 7.5903,0.9894 L 7.5903,1.0033 L 7.5903,1.0172 L 7.5903,1.0312 L 7.5903,1.0451 L 7.5903,1.0590 L 7.5903,1.0730 L 7.5903,1.0869 L 7.5903,1.1008 L 7.5903,1.1148 L 7.5903,1.1287 L 7.6044,1.1287 L 7.6044,1.1427 L 7.6044,1.1566 L 7.6184,1.1566 L 7.6184,1.1705 L 7.6325,1.1705 L 7.6465,1.1705 L 7.6606,1.1705 L 7.6747,1.1705 L 7.6887,1.1705 L 7.7028,1.1705 L 7.7168,1.1705 L 7.7449,1.1705 L 7.7590,1.1705 L 7.7871,1.1705 L 7.8152,1.1705 L 7.8433,1.1705 L 7.8714,1.1705 L 7.8996,1.1705 L 7.9277,1.1705 L 7.9558,1.1705 L 7.9839,1.1705 L 8.0120,1.1705 L 8.0401,1.1705 L 8.0682,1.1705 L 8.1104,1.1705 L 8.1385,1.1705 L 8.1666,1.1705 L 8.1807,1.1705 L 8.2088,1.1705 L 8.2369,1.1705 L 8.2650,1.1705 L 8.2791,1.1705 L 8.3072,1.1705 L 8.3212,1.1705 L 8.3353,1.1705 L 8.3494,1.1566 L 8.3634,1.1427 L 8.3634,1.1287 L 8.3775,1.1287 L 8.3775,1.1148 L 8.3915,1.1008 L 8.3915,1.0869 L 8.4056,1.0869 L 8.4056,1.0730 L 8.4056,1.0590 L 8.4056,1.0451 L 8.4056,1.0312 L 8.4056,1.0172 L 8.3915,1.0172 L 8.3915,1.0033 L 8.3775,1.0033 L 8.3634,1.0033 L 8.3634,0.9894 L 8.3494,0.9894 L 8.3353,0.9894 Z" stroke="#000000" stroke-width="0.1196" stroke-linecap="round" stroke-linejoin="round" fill="#000000"/>
        <path d="M 8.9116,0.7525 L 8.8975,0.7525 L 8.8835,0.7525 L 8.8694,0.7525 L 8.8554,0.7525 L 8.8413,0.7525 L 8.8273,0.7525 L 8.8132,0.7525 L 8.7991,0.7525 L 8.7851,0.7525 L 8.7710,0.7525 L 8.7570,0.7525 L 8.7429,0.7525 L 8.7289,0.7525 L 8.7148,0.7525 L 8.7008,0.7525 L 8.6867,0.7525 L 8.6726,0.7525 L 8.6586,0.7525 L 8.6586,0.7385 L 8.6445,0.7385 L 8.6445,0.7246 L 8.6445,0.7107 L 8.6305,0.7107 L 8.6305,0.6967 L 8.6305,0.6828 L 8.6305,0.6689 L 8.6305,0.6549 L 8.6305,0.6410 L 8.6305,0.6271 L 8.6305,0.6131 L 8.6305,0.5992 L 8.6305,0.5853 L 8.6445,0.5853 L 8.6445,0.5713 L 8.6586,0.5713 L 8.6726,0.5713 L 8.6867,0.5713 L 8.7008,0.5713 L 8.7148,0.5713 L 8.7429,0.5713 L 8.7710,0.5713 L 8.7991,0.5713 L 8.8413,0.5713 L 8.8694,0.5713 L 8.9116,0.5713 L 8.9538,0.5713 L 8.9959,0.5713 L 9.0522,0.5713 L 9.0943,0.5713 L 9.1506,0.5713 L 9.1927,0.5713 L 9.2349,0.5713 L 9.2911,0.5713 L 9.3333,0.5713 L 9.3895,0.5713 L 9.4317,0.5713 L 9.4738,0.5713 L 9.5160,0.5713 L 9.5441,0.5713 L 9.5863,0.5713 L 9.6144,0.5713 L 9.6425,0.5713 L 9.6706,0.5713 L 9.6847,0.5713 L 9.6987,0.5713 L 9.7128,0.5713 L 9.7269,0.5713 L 9.7409,0.5713 L 9.7409,0.5853 L 9.7550,0.5853 L 9.7550,0.5992 L 9.7550,0.6131 L 9.7550,0.6271 L 9.7550,0.6410 L 9.7550,0.6549 L 9.7550,0.6689 L 9.7550,0.6828 L 9.7550,0.6967 L 9.7550,0.7107 L 9.7550,0.7246 L 9.7550,0.7385 L 9.7550,0.7525 L 9.7550,0.7664 L 9.7550,0.7803 L 9.7550,0.7943 L 9.7550,0.7803 L 9.7409,0.7803 L 9.7409,0.7664 L 9.7269,0.7525 L 9.7128,0.7525 L 9.6987,0.7525 L 9.6847,0.7525 L 9.6706,0.7525 L 9.6566,0.7525 L 9.6425,0.7525 L 9.6285,0.7525 L 9.6144,0.7525 L 9.6004,0.7525 L 9.5863,0.7525 L 9.5582,0.7525 L 9.5441,0.7525 L 9.5160,0.7525 L 9.5020,0.7525 L 9.4738,0.7525 L 9.4598,0.7525 L 9.4317,0.7525 L 9.4036,0.7525 L 9.3895,0.7525 L 9.3614,0.7525 L 9.3333,0.7525 L 9.3052,0.7525 L 9.2911,0.7525 L 9.2630,0.7525 L 9.2349,0.7525 L 9.2068,0.7525 L 9.1927,0.7525 L 9.1646,0.7525 L 9.1646,0.7664 L 9.1506,0.7664 L 9.1506,0.7803 L 9.1506,0.7943 L 9.1506,0.8082 L 9.1506,0.8222 L 9.1506,0.8361 L 9.1506,0.8640 L 9.1506,0.8779 L 9.1506,0.9058 L 9.1506,0.9197 L 9.1506,0.9476 L 9.1506,0.9754 L 9.1506,1.0172 L 9.1506,1.0451 L 9.1506,1.0730 L 9.1506,1.1008 L 9.1506,1.1427 L 9.1506,1.1705 L 9.1506,1.1984 L 9.1506,1.2263 L 9.1506,1.2541 L 9.1506,1.2959 L 9.1506,1.3238 L 9.1506,1.3517 L 9.1506,1.3656 L 9.1506,1.3935 L 9.1506,1.4074 L 9.1506,1.4353 L 9.1506,1.4492 L 9.1506,1.4632 L 9.1506,1.4771 L 9.1506,1.4910 L 9.1506,1.5050 L 9.1506,1.5189 L 9.1646,1.5189 L 9.1506,1.5189 L 9.1365,1.5189 L 9.1224,1.5189 L 9.1084,1.5189 L 9.0943,1.5189 L 9.0803,1.5189 L 9.0662,1.5189 L 9.0522,1.5189 L 9.0381,1.5189 L 9.0240,1.5189 L 9.0100,1.5189 L 8.9959,1.5189 L 8.9819,1.5189 L 8.9678,1.5189 L 8.9538,1.5189 L 8.9397,1.5189 L 8.9257,1.5189 L 8.9257,1.5050 L 8.9116,1.5050 L 8.9116,1.4910 L 8.9116,1.4771 L 8.9116,1.4632 L 8.9116,1.4492 L 8.9116,1.4353 L 8.9116,1.4213 L 8.9116,1.3935 L 8.9116,1.3795 L 8.9116,1.3656 L 8.9116,1.3377 L 8.9116,1.3238 L 8.9116,1.2959 L 8.9116,1.2681 L 8.9116,1.2402 L 8.9116,1.2123 L 8.9116,1.1845 L 8.9116,1.1566 L 8.9116,1.1287 L 8.9116,1.1008 L 8.9116,1.0730 L 8.9116,1.0451 L 8.9116,1.0033 L 8.9116,0.9754 L 8.9116,0.9476 L 8.9116,0.9197 L 8.9116,0.8918 L 8.9116,0.8640 L 8.9116,0.8361 L 8.9116,0.8222 L 8.9116,0.7943 L 8.9116,0.7664 L 8.9116,0.7525 Z" stroke="#000000" stroke-width="0.1196" stroke-linecap="round" stroke-linejoin="round" fill="#000000"/>
        <path d="M 8.4337,1.3377 L 8.4477,1.3238 L 8.4477,1.3099 L 8.4618,1.3099 L 8.4618,1.2959 L 8.4618,1.3099 L 8.4618,1.3238 L 8.4618,1.3377 L 8.4618,1.3517 L 8.4618,1.3656 L 8.4618,1.3795 L 8.4618,1.3935 L 8.4618,1.4074 L 8.4618,1.4213 L 8.4618,1.4353 L 8.4618,1.4492 L 8.4618,1.4632 L 8.4618,1.4771 L 8.4618,1.4910 L 8.4618,1.5050 L 8.4477,1.5050 L 8.4477,1.5189 L 8.4337,1.5189 L 8.4196,1.5189 L 8.4056,1.5189 L 8.3915,1.5189 L 8.3775,1.5189 L 8.3494,1.5189 L 8.3212,1.5189 L 8.2931,1.5189 L 8.2510,1.5189 L 8.2228,1.5189 L 8.1807,1.5189 L 8.1385,1.5189 L 8.0963,1.5189 L 8.0401,1.5189 L 7.9979,1.5189 L 7.9417,1.5189 L 7.8996,1.5189 L 7.8574,1.5189 L 7.8012,1.5189 L 7.7590,1.5189 L 7.7028,1.5189 L 7.6606,1.5189 L 7.6184,1.5189 L 7.5763,1.5189 L 7.5482,1.5189 L 7.5060,1.5189 L 7.4779,1.5189 L 7.4498,1.5189 L 7.4216,1.5189 L 7.4076,1.5189 L 7.3935,1.5189 L 7.3795,1.5189 L 7.3654,1.5189 L 7.3514,1.5189 L 7.3514,1.5050 L 7.3373,1.5050 L 7.3373,1.4910 L 7.3373,1.4771 L 7.3373,1.4632 L 7.3373,1.4492 L 7.3373,1.4213 L 7.3373,1.4074 L 7.3373,1.3795 L 7.3373,1.3656 L 7.3373,1.3377 L 7.3373,1.2959 L 7.3373,1.2681 L 7.3373,1.2402 L 7.3373,1.1984 L 7.3373,1.1566 L 7.3373,1.1287 L 7.3373,1.0869 L 7.3373,1.0451 L 7.3373,1.0033 L 7.3373,0.9615 L 7.3373,0.9336 L 7.3373,0.8918 L 7.3373,0.8500 L 7.3373,0.8222 L 7.3373,0.7943 L 7.3373,0.7525 L 7.3373,0.7246 L 7.3373,0.7107 L 7.3373,0.6828 L 7.3373,0.6689 L 7.3373,0.6410 L 7.3373,0.6271 L 7.3373,0.6131 L 7.3373,0.5992 L 7.3373,0.5853 L 7.3514,0.5853 L 7.3514,0.5713 L 7.3654,0.5713 L 7.3795,0.5713 L 7.3935,0.5713 L 7.4076,0.5713 L 7.4216,0.5713 L 7.4498,0.5713 L 7.4779,0.5713 L 7.5060,0.5713 L 7.5482,0.5713 L 7.5763,0.5713 L 7.6184,0.5713 L 7.6606,0.5713 L 7.7028,0.5713 L 7.7590,0.5713 L 7.8012,0.5713 L 7.8574,0.5713 L 7.8996,0.5713 L 7.9417,0.5713 L 7.9979,0.5713 L 8.0401,0.5713 L 8.0963,0.5713 L 8.1385,0.5713 L 8.1807,0.5713 L 8.2228,0.5713 L 8.2510,0.5713 L 8.2931,0.5713 L 8.3212,0.5713 L 8.3494,0.5713 L 8.3775,0.5713 L 8.3915,0.5713 L 8.4056,0.5713 L 8.4196,0.5713 L 8.4337,0.5713 L 8.4477,0.5713 L 8.4477,0.5853 L 8.4618,0.5853 L 8.4618,0.5992 L 8.4618,0.6131 L 8.4618,0.6271 L 8.4618,0.6410 L 8.4618,0.6549 L 8.4618,0.6689 L 8.4618,0.6828 L 8.4618,0.6967 L 8.4618,0.7107 L 8.4618,0.7246 L 8.4618,0.7385 L 8.4618,0.7525 L 8.4618,0.7664 L 8.4618,0.7803 L 8.4618,0.7943 L 8.4618,0.7803 L 8.4477,0.7803 L 8.4477,0.7664 L 8.4337,0.7525 L 8.4196,0.7525 L 8.3915,0.7525 L 8.3775,0.7525 L 8.3634,0.7525 L 8.3353,0.7525 L 8.3072,0.7525 L 8.2791,0.7525 L 8.2369,0.7525 L 8.2088,0.7525 L 8.1666,0.7525 L 8.1385,0.7525 L 8.0963,0.7525 L 8.0542,0.7525 L 8.0261,0.7525 L 7.9839,0.7525 L 7.9417,0.7525 L 7.8996,0.7525 L 7.8714,0.7525 L 7.8293,0.7525 L 7.8012,0.7525 L 7.7590,0.7525 L 7.7309,0.7525 L 7.7028,0.7525 L 7.6747,0.7525 L 7.6606,0.7525 L 7.6465,0.7525 L 7.6184,0.7525 L 7.6044,0.7525 L 7.5903,0.7525 L 7.5763,0.7525 L 7.5763,0.7664 L 7.5622,0.7664 L 7.5622,0.7803 L 7.5622,0.7943 L 7.5622,0.8082 L 7.5622,0.8222 L 7.5622,0.8361 L 7.5622,0.8500 L 7.5622,0.8640 L 7.5622,0.8779 L 7.5622,0.8918 L 7.5622,0.9058 L 7.5622,0.9336 L 7.5622,0.9476 L 7.5622,0.9615 L 7.5622,0.9894 L 7.5622,1.0033 L 7.5622,1.0312 L 7.5622,1.0451 L 7.5622,1.0730 L 7.5622,1.1008 L 7.5622,1.1148 L 7.5622,1.1427 L 7.5622,1.1705 L 7.5622,1.1845 L 7.5622,1.2123 L 7.5622,1.2263 L 7.5622,1.2541 L 7.5622,1.2820 L 7.5622,1.2959 L 7.5622,1.3238 L 7.5622,1.3377 L 7.5763,1.3377 L 7.5903,1.3377 L 7.6044,1.3377 L 7.6184,1.3377 L 7.6465,1.3377 L 7.6747,1.3377 L 7.7028,1.3377 L 7.7309,1.3377 L 7.7590,1.3377 L 7.8012,1.3377 L 7.8433,1.3377 L 7.8714,1.3377 L 7.9136,1.3377 L 7.9558,1.3377 L 7.9979,1.3377 L 8.0401,1.3377 L 8.0823,1.3377 L 8.1245,1.3377 L 8.1526,1.3377 L 8.1947,1.3377 L 8.2369,1.3377 L 8.2650,1.3377 L 8.2931,1.3377 L 8.3212,1.3377 L 8.3494,1.3377 L 8.3775,1.3377 L 8.3915,1.3377 L 8.4056,1.3377 L 8.4196,1.3377 L 8.4337,1.3377 Z" stroke="#000000" stroke-width="0.1196" stroke-linecap="round" stroke-linejoin="round" fill="#000000"/>
        <path d="M 2.2630,1.2402 L 2.2630,1.5189 L 2.6285,1.5189 L 2.6285,1.2402 L 2.2630,1.2402 Z" stroke="#ED3440" stroke-width="0.1196" stroke-linecap="round" stroke-linejoin="round" fill="#ED3440"/>
        <path d="M 1.8695,0.9058 L 2.1787,0.9058 L 2.1787,1.1845 L 1.8695,1.1845 L 1.8695,0.9058 Z" stroke="#ED3440" stroke-width="0.1196" stroke-linecap="round" stroke-linejoin="round" fill="#ED3440"/>
        <path d="M 2.6847,1.2681 L 2.6847,1.2820 L 2.6847,1.2959 L 2.6847,1.3099 L 2.6847,1.3238 L 2.6847,1.3377 L 2.6847,1.3517 L 2.6847,1.3656 L 2.6847,1.3795 L 2.6847,1.3935 L 2.6847,1.4074 L 2.6847,1.4213 L 2.6847,1.4353 L 2.6847,1.4492 L 2.6847,1.4632 L 2.6847,1.4771 L 2.6847,1.4910 L 2.6847,1.5050 L 2.6847,1.5189 L 2.6847,1.5328 L 2.6847,1.5468 L 2.6988,1.5468 L 2.7128,1.5468 L 2.7269,1.5468 L 2.7409,1.5468 L 2.7550,1.5468 L 2.7691,1.5468 L 2.7831,1.5468 L 2.7972,1.5468 L 2.8112,1.5468 L 2.8253,1.5328 L 2.8393,1.5328 L 2.8534,1.5328 L 2.8675,1.5328 L 2.8815,1.5189 L 2.8956,1.5189 L 2.9096,1.5050 L 2.9237,1.4910 L 2.9377,1.4771 L 2.9518,1.4632 L 2.9658,1.4492 L 2.9658,1.4353 L 2.9799,1.4074 L 2.9799,1.3935 L 2.9799,1.3795 L 2.9940,1.3656 L 2.9940,1.3377 L 2.9940,1.3238 L 2.9940,1.2959 L 2.9940,1.2681 L 2.9799,1.2681 L 2.9658,1.2681 L 2.9518,1.2681 L 2.9377,1.2681 L 2.9237,1.2681 L 2.9096,1.2681 L 2.8956,1.2681 L 2.8815,1.2681 L 2.8675,1.2681 L 2.8534,1.2681 L 2.8393,1.2681 L 2.8253,1.2681 L 2.8112,1.2681 L 2.7972,1.2681 L 2.7831,1.2681 L 2.7691,1.2681 L 2.7550,1.2681 L 2.7409,1.2681 L 2.7269,1.2681 L 2.7128,1.2681 L 2.6988,1.2681 L 2.6847,1.2681 Z" stroke="#ED3440" stroke-width="0.1196" stroke-linecap="round" stroke-linejoin="round" fill="#ED3440"/>
        <path d="M 2.6847,0.9058 L 2.9940,0.9058 L 2.9940,1.1845 L 2.6847,1.1845 L 2.6847,0.9058 Z" stroke="#ED3440" stroke-width="0.1196" stroke-linecap="round" stroke-linejoin="round" fill="#ED3440"/>
        <path d="M 2.1787,1.2681 L 2.1787,1.2820 L 2.1787,1.2959 L 2.1787,1.3099 L 2.1787,1.3238 L 2.1787,1.3377 L 2.1787,1.3517 L 2.1787,1.3656 L 2.1787,1.3795 L 2.1787,1.3935 L 2.1787,1.4074 L 2.1787,1.4213 L 2.1787,1.4353 L 2.1787,1.4492 L 2.1787,1.4632 L 2.1787,1.4771 L 2.1787,1.4910 L 2.1787,1.5050 L 2.1787,1.5189 L 2.1787,1.5328 L 2.1787,1.5468 L 2.1646,1.5468 L 2.1506,1.5468 L 2.1365,1.5468 L 2.1225,1.5468 L 2.1084,1.5468 L 2.0944,1.5468 L 2.0803,1.5468 L 2.0663,1.5468 L 2.0522,1.5328 L 2.0381,1.5328 L 2.0241,1.5328 L 2.0100,1.5328 L 1.9960,1.5189 L 1.9819,1.5189 L 1.9679,1.5050 L 1.9538,1.4910 L 1.9397,1.4910 L 1.9397,1.4771 L 1.9257,1.4632 L 1.9116,1.4492 L 1.8976,1.4353 L 1.8976,1.4074 L 1.8976,1.3935 L 1.8835,1.3795 L 1.8835,1.3656 L 1.8835,1.3377 L 1.8695,1.3238 L 1.8695,1.2959 L 1.8695,1.2681 L 1.8835,1.2681 L 1.8976,1.2681 L 1.9116,1.2681 L 1.9257,1.2681 L 1.9397,1.2681 L 1.9538,1.2681 L 1.9679,1.2681 L 1.9819,1.2681 L 1.9960,1.2681 L 2.0100,1.2681 L 2.0241,1.2681 L 2.0381,1.2681 L 2.0522,1.2681 L 2.0663,1.2681 L 2.0803,1.2681 L 2.0944,1.2681 L 2.1084,1.2681 L 2.1225,1.2681 L 2.1365,1.2681 L 2.1506,1.2681 L 2.1646,1.2681 L 2.1787,1.2681 Z" stroke="#ED3440" stroke-width="0.1196" stroke-linecap="round" stroke-linejoin="round" fill="#ED3440"/>
        <path d="M 2.2630,0.5435 L 2.2630,0.8222 L 2.6285,0.8222 L 2.6285,0.5435 L 2.2630,0.5435 Z" stroke="#ED3440" stroke-width="0.1196" stroke-linecap="round" stroke-linejoin="round" fill="#ED3440"/>
        <path d="M 2.6847,0.8222 L 2.6847,0.8082 L 2.6847,0.7943 L 2.6847,0.7803 L 2.6847,0.7664 L 2.6847,0.7525 L 2.6847,0.7385 L 2.6847,0.7246 L 2.6847,0.7107 L 2.6847,0.6967 L 2.6847,0.6828 L 2.6847,0.6689 L 2.6847,0.6549 L 2.6847,0.6410 L 2.6847,0.6271 L 2.6847,0.6131 L 2.6847,0.5992 L 2.6847,0.5853 L 2.6847,0.5713 L 2.6847,0.5574 L 2.6847,0.5435 L 2.6988,0.5435 L 2.7128,0.5435 L 2.7269,0.5435 L 2.7409,0.5435 L 2.7550,0.5435 L 2.7691,0.5435 L 2.7831,0.5435 L 2.7972,0.5435 L 2.8112,0.5435 L 2.8253,0.5574 L 2.8393,0.5574 L 2.8534,0.5574 L 2.8675,0.5574 L 2.8815,0.5713 L 2.8956,0.5853 L 2.9096,0.5853 L 2.9237,0.5992 L 2.9377,0.6131 L 2.9518,0.6271 L 2.9658,0.6410 L 2.9658,0.6549 L 2.9799,0.6828 L 2.9799,0.6967 L 2.9799,0.7107 L 2.9940,0.7246 L 2.9940,0.7525 L 2.9940,0.7664 L 2.9940,0.7943 L 2.9940,0.8222 L 2.9799,0.8222 L 2.9658,0.8222 L 2.9518,0.8222 L 2.9377,0.8222 L 2.9237,0.8222 L 2.9096,0.8222 L 2.8956,0.8222 L 2.8815,0.8222 L 2.8675,0.8222 L 2.8534,0.8222 L 2.8393,0.8222 L 2.8253,0.8222 L 2.8112,0.8222 L 2.7972,0.8222 L 2.7831,0.8222 L 2.7691,0.8222 L 2.7550,0.8222 L 2.7409,0.8222 L 2.7269,0.8222 L 2.7128,0.8222 L 2.6988,0.8222 L 2.6847,0.8222 Z" stroke="#ED3440" stroke-width="0.1196" stroke-linecap="round" stroke-linejoin="round" fill="#ED3440"/>
        <path d="M 2.1787,0.8222 L 2.1787,0.8082 L 2.1787,0.7943 L 2.1787,0.7803 L 2.1787,0.7664 L 2.1787,0.7525 L 2.1787,0.7385 L 2.1787,0.7246 L 2.1787,0.7107 L 2.1787,0.6967 L 2.1787,0.6828 L 2.1787,0.6689 L 2.1787,0.6549 L 2.1787,0.6410 L 2.1787,0.6271 L 2.1787,0.6131 L 2.1787,0.5992 L 2.1787,0.5853 L 2.1787,0.5713 L 2.1787,0.5574 L 2.1787,0.5435 L 2.1646,0.5435 L 2.1506,0.5435 L 2.1365,0.5435 L 2.1225,0.5435 L 2.1084,0.5435 L 2.0944,0.5435 L 2.0803,0.5435 L 2.0663,0.5435 L 2.0522,0.5574 L 2.0381,0.5574 L 2.0241,0.5574 L 2.0100,0.5574 L 1.9960,0.5713 L 1.9819,0.5713 L 1.9819,0.5853 L 1.9679,0.5853 L 1.9538,0.5992 L 1.9397,0.5992 L 1.9397,0.6131 L 1.9257,0.6271 L 1.9116,0.6410 L 1.8976,0.6549 L 1.8976,0.6828 L 1.8976,0.6967 L 1.8835,0.7107 L 1.8835,0.7246 L 1.8835,0.7525 L 1.8695,0.7664 L 1.8695,0.7943 L 1.8695,0.8222 L 1.8835,0.8222 L 1.8976,0.8222 L 1.9116,0.8222 L 1.9257,0.8222 L 1.9397,0.8222 L 1.9538,0.8222 L 1.9679,0.8222 L 1.9819,0.8222 L 1.9960,0.8222 L 2.0100,0.8222 L 2.0241,0.8222 L 2.0381,0.8222 L 2.0522,0.8222 L 2.0663,0.8222 L 2.0803,0.8222 L 2.0944,0.8222 L 2.1084,0.8222 L 2.1225,0.8222 L 2.1365,0.8222 L 2.1506,0.8222 L 2.1646,0.8222 L 2.1787,0.8222 Z" stroke="#ED3440" stroke-width="0.1196" stroke-linecap="round" stroke-linejoin="round" fill="#ED3440"/>
        <text font-family="Arial" fill="#000000" style="white-space:pre;" text-anchor="start" x="9.5441" y="1.5328" font-size="0.3373"><![CDATA[®]]></text>
        <text font-family="Arial" fill="#000000" style="white-space:pre;" text-anchor="start" x="0.4779" y="2.9263" font-size="1.0683"><![CDATA[F]]></text>
        <text font-family="Arial" fill="#000000" style="white-space:pre;" text-anchor="start" x="1.1385" y="2.9263" font-size="1.0683"><![CDATA[o]]></text>
        <text font-family="Arial" fill="#000000" style="white-space:pre;" text-anchor="start" x="1.7430" y="2.9263" font-size="1.0683"><![CDATA[r]]></text>
        <text font-family="Arial" fill="#000000" style="white-space:pre;" text-anchor="start" x="2.0944" y="2.9263" font-size="1.0683"><![CDATA[t]]></text>
        <text font-family="Arial" fill="#000000" style="white-space:pre;" text-anchor="start" x="2.3895" y="2.9263" font-size="1.0683"><![CDATA[G]]></text>
        <text font-family="Arial" fill="#000000" style="white-space:pre;" text-anchor="start" x="3.2189" y="2.9263" font-size="1.0683"><![CDATA[a]]></text>
        <text font-family="Arial" fill="#000000" style="white-space:pre;" text-anchor="start" x="3.8233" y="2.9263" font-size="1.0683"><![CDATA[t]]></text>
        <text font-family="Arial" fill="#000000" style="white-space:pre;" text-anchor="start" x="4.1185" y="2.9263" font-size="1.0683"><![CDATA[e]]></text>
        <text font-family="Arial" fill="#000000" style="white-space:pre;" text-anchor="start" x="4.7229" y="2.9263" font-size="1.0683"><![CDATA[ ]]></text>
        <text font-family="Arial" fill="#000000" style="white-space:pre;" text-anchor="start" x="5.0180" y="2.9263" font-size="1.0683"><![CDATA[ ]]></text>
        <text font-family="Arial" fill="#000000" style="white-space:pre;" text-anchor="start" x="5.3132" y="2.9263" font-size="1.0683"><![CDATA[9]]></text>
        <text font-family="Arial" fill="#000000" style="white-space:pre;" text-anchor="start" x="5.9176" y="2.9263" font-size="1.0683"><![CDATA[0]]></text>
        <text font-family="Arial" fill="#000000" style="white-space:pre;" text-anchor="start" x="6.5221" y="2.9263" font-size="1.0683"><![CDATA[G]]></text>
        <text font-family="Arial" fill="#000000" style="white-space:pre;" text-anchor="start" x="12.9879" y="9.5871" font-size="0.7871"><![CDATA[U]]></text>
        <text font-family="Arial" fill="#000000" style="white-space:pre;" text-anchor="start" x="13.5642" y="9.5871" font-size="0.7871"><![CDATA[S]]></text>
        <text font-family="Arial" fill="#000000" style="white-space:pre;" text-anchor="start" x="14.0983" y="9.5871" font-size="0.7871"><![CDATA[B]]></text>
        <text font-family="Arial" fill="#000000" style="white-space:pre;" text-anchor="start" x="11.8493" y="1.9509" font-size="0.7871"><![CDATA[C]]></text>
        <text font-family="Arial" fill="#000000" style="white-space:pre;" text-anchor="start" x="12.4256" y="1.9509" font-size="0.7871"><![CDATA[O]]></text>
        <text font-family="Arial" fill="#000000" style="white-space:pre;" text-anchor="start" x="13.0441" y="1.9509" font-size="0.7871"><![CDATA[N]]></text>
        <text font-family="Arial" fill="#000000" style="white-space:pre;" text-anchor="start" x="13.6204" y="1.9509" font-size="0.7871"><![CDATA[S]]></text>
        <text font-family="Arial" fill="#000000" style="white-space:pre;" text-anchor="start" x="14.1545" y="1.9509" font-size="0.7871"><![CDATA[O]]></text>
        <text font-family="Arial" fill="#000000" style="white-space:pre;" text-anchor="start" x="14.7730" y="1.9509" font-size="0.7871"><![CDATA[L]]></text>
        <text font-family="Arial" fill="#000000" style="white-space:pre;" text-anchor="start" x="15.2228" y="1.9509" font-size="0.7871"><![CDATA[E]]></text>
        <text font-family="Arial" fill="#000000" style="white-space:pre;" text-anchor="start" x="18.1465" y="9.5314" font-size="0.5904"><![CDATA[S]]></text>
        <text font-family="Arial" fill="#000000" style="white-space:pre;" text-anchor="start" x="18.5401" y="9.5314" font-size="0.5904"><![CDATA[F]]></text>
        <text font-family="Arial" fill="#000000" style="white-space:pre;" text-anchor="start" x="18.9055" y="9.5314" font-size="0.5904"><![CDATA[P]]></text>
        <text font-family="Arial" fill="#000000" style="white-space:pre;" text-anchor="start" x="19.2991" y="9.5314" font-size="0.5904"><![CDATA[+]]></text>
        <text font-family="Arial" fill="#000000" style="white-space:pre;" text-anchor="start" x="19.6505" y="9.5314" font-size="0.5904"><![CDATA[1]]></text>
        <text font-family="Arial" fill="#000000" style="white-space:pre;" text-anchor="start" x="18.1465" y="10.2281" font-size="0.5904"><![CDATA[S]]></text>
        <text font-family="Arial" fill="#000000" style="white-space:pre;" text-anchor="start" x="18.5401" y="10.2281" font-size="0.5904"><![CDATA[F]]></text>
        <text font-family="Arial" fill="#000000" style="white-space:pre;" text-anchor="start" x="18.9055" y="10.2281" font-size="0.5904"><![CDATA[P]]></text>
        <text font-family="Arial" fill="#000000" style="white-space:pre;" text-anchor="start" x="19.2991" y="10.2281" font-size="0.5904"><![CDATA[+]]></text>
        <text font-family="Arial" fill="#000000" style="white-space:pre;" text-anchor="start" x="19.6505" y="10.2281" font-size="0.5904"><![CDATA[2]]></text>
        <text font-family="Arial" fill="#000000" style="white-space:pre;" text-anchor="start" x="25.1746" y="9.5314" font-size="0.5904"><![CDATA[W]]></text>
        <text font-family="Arial" fill="#000000" style="white-space:pre;" text-anchor="start" x="25.7368" y="9.5314" font-size="0.5904"><![CDATA[A]]></text>
        <text font-family="Arial" fill="#000000" style="white-space:pre;" text-anchor="start" x="26.1304" y="9.5314" font-size="0.5904"><![CDATA[N]]></text>
        <text font-family="Arial" fill="#000000" style="white-space:pre;" text-anchor="start" x="26.5661" y="9.5314" font-size="0.5904"><![CDATA[1]]></text>
        <text font-family="Arial" fill="#000000" style="white-space:pre;" text-anchor="start" x="25.1746" y="10.2281" font-size="0.5904"><![CDATA[W]]></text>
        <text font-family="Arial" fill="#000000" style="white-space:pre;" text-anchor="start" x="25.7368" y="10.2281" font-size="0.5904"><![CDATA[A]]></text>
        <text font-family="Arial" fill="#000000" style="white-space:pre;" text-anchor="start" x="26.1304" y="10.2281" font-size="0.5904"><![CDATA[N]]></text>
        <text font-family="Arial" fill="#000000" style="white-space:pre;" text-anchor="start" x="26.5661" y="10.2281" font-size="0.5904"><![CDATA[2]]></text>
        <path d="M 24.2187,9.6707 L 24.6967,9.6707 " stroke="#000000" stroke-width="0.1196" stroke-linecap="round" stroke-linejoin="round" fill="none"/>
        <path d="M 20.9296,9.6707 L 21.4075,9.6707 " stroke="#000000" stroke-width="0.1196" stroke-linecap="round" stroke-linejoin="round" fill="none"/>
        <text font-family="Arial" fill="#000000" style="white-space:pre;" text-anchor="start" x="33.6504" y="1.0869" font-size="0.7450"><![CDATA[1]]></text>
        <text font-family="Arial" fill="#000000" style="white-space:pre;" text-anchor="start" x="33.6504" y="9.6150" font-size="0.7450"><![CDATA[2]]></text>
        <text font-family="Arial" fill="#000000" style="white-space:pre;" text-anchor="start" x="37.9235" y="1.0869" font-size="0.7450"><![CDATA[3]]></text>
        <text font-family="Arial" fill="#000000" style="white-space:pre;" text-anchor="start" x="37.9235" y="9.6150" font-size="0.7450"><![CDATA[4]]></text>
        <text font-family="Arial" fill="#000000" style="white-space:pre;" text-anchor="start" x="42.1966" y="1.0869" font-size="0.7450"><![CDATA[5]]></text>
        <text font-family="Arial" fill="#000000" style="white-space:pre;" text-anchor="start" x="42.1966" y="9.6150" font-size="0.7450"><![CDATA[6]]></text>
        <text font-family="Arial" fill="#000000" style="white-space:pre;" text-anchor="start" x="46.4696" y="1.0869" font-size="0.7450"><![CDATA[A]]></text>
        <text font-family="Arial" fill="#000000" style="white-space:pre;" text-anchor="start" x="46.4696" y="9.6150" font-size="0.7450"><![CDATA[B]]></text>
        <path d="M 5.9036,10.7298 L 1.8695,10.7298 L 2.0663,11.7888 L 5.7068,11.7888 L 5.9036,10.7298 Z" stroke="#000000" stroke-width="0.1196" stroke-linecap="round" stroke-linejoin="round" fill="#333333"/>
        <path d="M 5.9036,10.7298 L 1.8695,10.7298 L 2.0663,11.7888 L 5.7068,11.7888 L 5.9036,10.7298 Z" stroke="#000000" stroke-width="0.1196" stroke-linecap="round" stroke-linejoin="round" fill="#333333"/>
        <path d="M 55.3250,10.7298 L 59.3591,10.7298 L 59.1623,11.7888 L 55.5218,11.7888 L 55.3250,10.7298 Z" stroke="#000000" stroke-width="0.1196" stroke-linecap="round" stroke-linejoin="round" fill="#333333"/>
        <path d="M 61.2005,0.0279 L 0.0281,0.0279 L 0.0281,10.7298 L 61.2005,10.7298 L 61.2005,0.0279 Z" stroke="#000000" stroke-width="0.1196" stroke-linecap="round" stroke-linejoin="round" fill="none"/>
        <ellipse cx="1.4829" cy="8.3469" rx="0.2460" ry="0.2508" fill="#000000" stroke="#000000" stroke-width="0.1196" stroke-linecap="round" stroke-linejoin="round"/>
        <ellipse cx="1.4829" cy="8.3469" rx="0.2460" ry="0.2508" fill="none" stroke="#BFBFBF" stroke-width="0.1196" stroke-linecap="round" stroke-linejoin="round"/>
        <ellipse cx="1.4829" cy="8.3400" rx="0.2038" ry="0.2021" fill="#333333" stroke="#000000" stroke-width="0.1196" stroke-linecap="round" stroke-linejoin="round"/>
        <ellipse cx="1.4829" cy="8.3400" rx="0.2038" ry="0.2021" fill="none" stroke="#000000" stroke-width="0.1196" stroke-linecap="round" stroke-linejoin="round"/>
        <text font-family="Arial" fill="#000000" style="white-space:pre;" text-anchor="start" x="1.0683" y="9.2806" font-size="0.4920"><![CDATA[B]]></text>
        <text font-family="Arial" fill="#000000" style="white-space:pre;" text-anchor="start" x="1.4056" y="9.2806" font-size="0.4920"><![CDATA[L]]></text>
        <text font-family="Arial" fill="#000000" style="white-space:pre;" text-anchor="start" x="1.6867" y="9.2806" font-size="0.4920"><![CDATA[E]]></text>
        <text font-family="Arial" fill="#000000" style="white-space:pre;" text-anchor="start" x="8.8835" y="8.8346" font-size="0.4920"><![CDATA[S]]></text>
        <text font-family="Arial" fill="#000000" style="white-space:pre;" text-anchor="start" x="9.2208" y="8.8346" font-size="0.4920"><![CDATA[T]]></text>
        <text font-family="Arial" fill="#000000" style="white-space:pre;" text-anchor="start" x="9.5301" y="8.8346" font-size="0.4920"><![CDATA[A]]></text>
        <text font-family="Arial" fill="#000000" style="white-space:pre;" text-anchor="start" x="9.8674" y="8.8346" font-size="0.4920"><![CDATA[T]]></text>
        <text font-family="Arial" fill="#000000" style="white-space:pre;" text-anchor="start" x="10.1767" y="8.8346" font-size="0.4920"><![CDATA[U]]></text>
        <text font-family="Arial" fill="#000000" style="white-space:pre;" text-anchor="start" x="10.5421" y="8.8346" font-size="0.4920"><![CDATA[S]]></text>
        <text font-family="Arial" fill="#000000" style="white-space:pre;" text-anchor="start" x="6.3815" y="8.8346" font-size="0.4920"><![CDATA[P]]></text>
        <text font-family="Arial" fill="#000000" style="white-space:pre;" text-anchor="start" x="6.7188" y="8.8346" font-size="0.4920"><![CDATA[O]]></text>
        <text font-family="Arial" fill="#000000" style="white-space:pre;" text-anchor="start" x="7.1124" y="8.8346" font-size="0.4920"><![CDATA[W]]></text>
        <text font-family="Arial" fill="#000000" style="white-space:pre;" text-anchor="start" x="7.5903" y="8.8346" font-size="0.4920"><![CDATA[E]]></text>
        <text font-family="Arial" fill="#000000" style="white-space:pre;" text-anchor="start" x="7.9277" y="8.8346" font-size="0.4920"><![CDATA[R]]></text>
        <ellipse cx="9.1716" cy="7.9498" rx="0.2882" ry="0.2857" fill="#00FF00" stroke="#000000" stroke-width="0.1196" stroke-linecap="round" stroke-linejoin="round"/>
        <ellipse cx="9.1716" cy="7.9498" rx="0.2882" ry="0.2857" fill="none" stroke="#000000" stroke-width="0.1196" stroke-linecap="round" stroke-linejoin="round"/>
        <text font-family="Arial" fill="#000000" style="white-space:pre;" text-anchor="start" x="7.6044" y="6.1592" font-size="0.4920"><![CDATA[H]]></text>
        <text font-family="Arial" fill="#000000" style="white-space:pre;" text-anchor="start" x="7.9698" y="6.1592" font-size="0.4920"><![CDATA[A]]></text>
        <path d="M 20.3252,9.1691 L 20.1846,9.5453 L 20.4658,9.5453 L 20.3252,9.1691 Z" stroke="#000000" stroke-width="0.1196" stroke-linecap="round" stroke-linejoin="round" fill="#0A0A0A"/>
        <path d="M 20.3252,10.1863 L 20.1846,9.8101 L 20.4658,9.8101 L 20.3252,10.1863 Z" stroke="#000000" stroke-width="0.1196" stroke-linecap="round" stroke-linejoin="round" fill="#0A0A0A"/>
        <path d="M 27.2970,9.1691 L 27.1565,9.5453 L 27.4376,9.5453 L 27.2970,9.1691 Z" stroke="#000000" stroke-width="0.1196" stroke-linecap="round" stroke-linejoin="round" fill="#0A0A0A"/>
        <path d="M 27.2970,10.1863 L 27.1565,9.8101 L 27.4376,9.8101 L 27.2970,10.1863 Z" stroke="#000000" stroke-width="0.1196" stroke-linecap="round" stroke-linejoin="round" fill="#0A0A0A"/>
        <ellipse cx="7.8996" cy="7.9498" rx="0.2952" ry="0.2857" fill="#00FF00" stroke="#000000" stroke-width="0.1196" stroke-linecap="round" stroke-linejoin="round"/>
        <ellipse cx="7.8996" cy="7.9498" rx="0.2952" ry="0.2857" fill="none" stroke="#000000" stroke-width="0.1196" stroke-linecap="round" stroke-linejoin="round"/>
        <ellipse cx="7.8996" cy="6.6399" rx="0.2952" ry="0.2857" fill="#00FF00" stroke="#000000" stroke-width="0.1196" stroke-linecap="round" stroke-linejoin="round"/>
        <ellipse cx="7.8996" cy="6.6399" rx="0.2952" ry="0.2857" fill="none" stroke="#000000" stroke-width="0.1196" stroke-linecap="round" stroke-linejoin="round"/>
        <text font-family="Arial" fill="#000000" style="white-space:pre;" text-anchor="start" x="3.1486" y="8.1936" font-size="0.4920"><![CDATA[R]]></text>
        <text font-family="Arial" fill="#000000" style="white-space:pre;" text-anchor="start" x="3.5140" y="8.1936" font-size="0.4920"><![CDATA[E]]></text>
        <text font-family="Arial" fill="#000000" style="white-space:pre;" text-anchor="start" x="3.8514" y="8.1936" font-size="0.4920"><![CDATA[S]]></text>
        <text font-family="Arial" fill="#000000" style="white-space:pre;" text-anchor="start" x="4.1887" y="8.1936" font-size="0.4920"><![CDATA[E]]></text>
        <text font-family="Arial" fill="#000000" style="white-space:pre;" text-anchor="start" x="4.5261" y="8.1936" font-size="0.4920"><![CDATA[T]]></text>
        <ellipse cx="3.9287" cy="7.3158" rx="0.2460" ry="0.2508" fill="#000000" stroke="#000000" stroke-width="0.1196" stroke-linecap="round" stroke-linejoin="round"/>
        <ellipse cx="3.9287" cy="7.3158" rx="0.2460" ry="0.2508" fill="none" stroke="#BFBFBF" stroke-width="0.1196" stroke-linecap="round" stroke-linejoin="round"/>
        <ellipse cx="3.9357" cy="7.3088" rx="0.2108" ry="0.2021" fill="#333333" stroke="#000000" stroke-width="0.1196" stroke-linecap="round" stroke-linejoin="round"/>
        <ellipse cx="3.9357" cy="7.3088" rx="0.2108" ry="0.2021" fill="none" stroke="#000000" stroke-width="0.1196" stroke-linecap="round" stroke-linejoin="round"/>
        <path d="M 16.1927,2.2574 L 11.4136,2.2574 L 11.4136,8.8068 L 16.1927,8.8068 L 16.1927,2.2574 Z" stroke="#000000" stroke-width="0.1196" stroke-linecap="round" stroke-linejoin="round" fill="#000000"/>
        <path d="M 16.0802,2.3550 L 11.5260,2.3550 L 11.5260,8.7092 L 16.0802,8.7092 L 16.0802,2.3550 Z" stroke="#000000" stroke-width="0.1196" stroke-linecap="round" stroke-linejoin="round" fill="#7F7F7F"/>
        <path d="M 12.0420,5.5017 L 12.0420,3.3920 L 12.9351,3.3920 L 12.9351,2.8956 L 13.2979,2.8956 L 13.2979,2.3992 L 14.3583,2.3992 L 14.3583,2.8956 L 14.7211,2.8956 L 14.7211,3.3920 L 15.6142,3.3920 L 15.6142,5.5017 L 12.0420,5.5017 Z" stroke="#161616" stroke-width="0.1196" stroke-linecap="round" stroke-linejoin="round" fill="#000000"/>
        <path d="M 12.1360,6.7603 L 12.1220,6.7603 L 12.1079,6.7603 L 12.0938,6.7603 L 12.0938,6.7743 L 12.0798,6.7743 L 12.0657,6.7743 L 12.0517,6.7883 L 12.0376,6.7883 L 12.0376,6.8022 L 12.0235,6.8022 L 12.0235,6.8162 L 12.0095,6.8162 L 12.0095,6.8302 L 11.9954,6.8441 L 11.9954,6.8581 L 11.9954,6.8721 L 11.9813,6.8721 L 11.9813,6.8860 L 11.9813,6.9000 L 11.9813,6.9140 L 11.9813,6.9279 L 11.9813,6.9419 L 11.9813,6.9699 L 11.9813,6.9978 L 11.9813,7.0257 L 11.9813,7.0676 L 11.9813,7.1095 L 11.9813,7.1654 L 11.9813,7.2073 L 11.9813,7.2632 L 11.9813,7.3190 L 11.9813,7.3749 L 11.9813,7.4308 L 11.9813,7.5006 L 11.9813,7.5565 L 11.9813,7.6124 L 11.9813,7.6822 L 11.9813,7.7381 L 11.9813,7.7939 L 11.9813,7.8498 L 11.9813,7.9057 L 11.9813,7.9476 L 11.9813,8.0035 L 11.9813,8.0454 L 11.9813,8.0873 L 11.9813,8.1152 L 11.9813,8.1431 L 11.9813,8.1711 L 11.9813,8.1850 L 11.9813,8.1990 L 11.9813,8.2130 L 11.9813,8.2269 L 11.9813,8.2409 L 11.9954,8.2409 L 11.9954,8.2549 L 11.9954,8.2688 L 12.0095,8.2828 L 12.0095,8.2968 L 12.0235,8.2968 L 12.0235,8.3107 L 12.0376,8.3107 L 12.0376,8.3247 L 12.0517,8.3247 L 12.0657,8.3387 L 12.0798,8.3387 L 12.0938,8.3387 L 12.0938,8.3526 L 12.1079,8.3526 L 12.1220,8.3526 L 12.1360,8.3526 L 12.1501,8.3526 L 12.1782,8.3526 L 12.2204,8.3526 L 12.2767,8.3526 L 12.3610,8.3526 L 12.4595,8.3526 L 12.5579,8.3526 L 12.6704,8.3526 L 12.7970,8.3526 L 12.9376,8.3526 L 13.0782,8.3526 L 13.2188,8.3526 L 13.3735,8.3526 L 13.5282,8.3526 L 13.6970,8.3526 L 13.8517,8.3526 L 14.0064,8.3526 L 14.1751,8.3526 L 14.3298,8.3526 L 14.4845,8.3526 L 14.6251,8.3526 L 14.7657,8.3526 L 14.9064,8.3526 L 15.0329,8.3526 L 15.1454,8.3526 L 15.2439,8.3526 L 15.3423,8.3526 L 15.4267,8.3526 L 15.4829,8.3526 L 15.5251,8.3526 L 15.5532,8.3526 L 15.5673,8.3526 L 15.5814,8.3526 L 15.5954,8.3526 L 15.6095,8.3526 L 15.6095,8.3387 L 15.6236,8.3387 L 15.6376,8.3387 L 15.6517,8.3247 L 15.6657,8.3247 L 15.6657,8.3107 L 15.6798,8.3107 L 15.6798,8.2968 L 15.6939,8.2968 L 15.6939,8.2828 L 15.7079,8.2688 L 15.7079,8.2549 L 15.7079,8.2409 L 15.7220,8.2409 L 15.7220,8.2269 L 15.7220,8.2130 L 15.7220,8.1990 L 15.7220,8.1850 L 15.7220,8.1711 L 15.7220,8.1431 L 15.7220,8.1152 L 15.7220,8.0873 L 15.7220,8.0454 L 15.7220,8.0035 L 15.7220,7.9476 L 15.7220,7.9057 L 15.7220,7.8498 L 15.7220,7.7939 L 15.7220,7.7381 L 15.7220,7.6822 L 15.7220,7.6124 L 15.7220,7.5565 L 15.7220,7.5006 L 15.7220,7.4308 L 15.7220,7.3749 L 15.7220,7.3190 L 15.7220,7.2632 L 15.7220,7.2073 L 15.7220,7.1654 L 15.7220,7.1095 L 15.7220,7.0676 L 15.7220,7.0257 L 15.7220,6.9978 L 15.7220,6.9699 L 15.7220,6.9419 L 15.7220,6.9279 L 15.7220,6.9140 L 15.7220,6.9000 L 15.7220,6.8860 L 15.7220,6.8721 L 15.7079,6.8721 L 15.7079,6.8581 L 15.7079,6.8441 L 15.6939,6.8302 L 15.6939,6.8162 L 15.6798,6.8162 L 15.6798,6.8022 L 15.6657,6.8022 L 15.6657,6.7883 L 15.6517,6.7883 L 15.6376,6.7743 L 15.6236,6.7743 L 15.6095,6.7743 L 15.6095,6.7603 L 15.5954,6.7603 L 15.5814,6.7603 L 15.5673,6.7603 L 15.5532,6.7603 L 15.5251,6.7603 L 15.4829,6.7603 L 15.4267,6.7603 L 15.3423,6.7603 L 15.2439,6.7603 L 15.1454,6.7603 L 15.0329,6.7603 L 14.9064,6.7603 L 14.7657,6.7603 L 14.6251,6.7603 L 14.4845,6.7603 L 14.3298,6.7603 L 14.1751,6.7603 L 14.0064,6.7603 L 13.8517,6.7603 L 13.6970,6.7603 L 13.5282,6.7603 L 13.3735,6.7603 L 13.2188,6.7603 L 13.0782,6.7603 L 12.9376,6.7603 L 12.7970,6.7603 L 12.6704,6.7603 L 12.5579,6.7603 L 12.4595,6.7603 L 12.3610,6.7603 L 12.2767,6.7603 L 12.2204,6.7603 L 12.1782,6.7603 L 12.1501,6.7603 L 12.1360,6.7603 Z" stroke="#000000" stroke-width="0.1196" stroke-linecap="round" stroke-linejoin="round" fill="#BFBFBF"/>
        <path d="M 12.1923,6.8860 L 12.1782,6.8860 L 12.1642,6.8860 L 12.1501,6.8860 L 12.1501,6.9000 L 12.1360,6.9000 L 12.1360,6.9140 L 12.1220,6.9140 L 12.1220,6.9279 L 12.1079,6.9279 L 12.1079,6.9419 L 12.1079,6.9559 L 12.1079,6.9699 L 12.1079,6.9838 L 12.1079,6.9978 L 12.1079,7.0257 L 12.1079,7.0537 L 12.1079,7.0816 L 12.1079,7.1095 L 12.1079,7.1514 L 12.1079,7.1933 L 12.1079,7.2492 L 12.1079,7.2911 L 12.1079,7.3470 L 12.1079,7.4028 L 12.1079,7.4587 L 12.1079,7.5146 L 12.1079,7.5705 L 12.1079,7.6124 L 12.1079,7.6682 L 12.1079,7.7241 L 12.1079,7.7800 L 12.1079,7.8358 L 12.1079,7.8777 L 12.1079,7.9336 L 12.1079,7.9755 L 12.1079,8.0174 L 12.1079,8.0454 L 12.1079,8.0733 L 12.1079,8.1012 L 12.1079,8.1292 L 12.1079,8.1431 L 12.1079,8.1571 L 12.1079,8.1711 L 12.1079,8.1850 L 12.1220,8.1990 L 12.1220,8.2130 L 12.1360,8.2130 L 12.1360,8.2269 L 12.1501,8.2269 L 12.1642,8.2409 L 12.1782,8.2409 L 12.1923,8.2409 L 12.2063,8.2409 L 12.2345,8.2409 L 12.2767,8.2409 L 12.3329,8.2409 L 12.4173,8.2409 L 12.5017,8.2409 L 12.6001,8.2409 L 12.7126,8.2409 L 12.8392,8.2409 L 12.9657,8.2409 L 13.1063,8.2409 L 13.2470,8.2409 L 13.4017,8.2409 L 13.5423,8.2409 L 13.6970,8.2409 L 13.8657,8.2409 L 14.0204,8.2409 L 14.1751,8.2409 L 14.3157,8.2409 L 14.4704,8.2409 L 14.6110,8.2409 L 14.7517,8.2409 L 14.8782,8.2409 L 15.0048,8.2409 L 15.1173,8.2409 L 15.2157,8.2409 L 15.3001,8.2409 L 15.3845,8.2409 L 15.4407,8.2409 L 15.4829,8.2409 L 15.5111,8.2409 L 15.5251,8.2409 L 15.5392,8.2409 L 15.5532,8.2409 L 15.5532,8.2269 L 15.5673,8.2269 L 15.5673,8.2130 L 15.5814,8.2130 L 15.5814,8.1990 L 15.5954,8.1850 L 15.5954,8.1711 L 15.5954,8.1571 L 15.5954,8.1431 L 15.5954,8.1292 L 15.5954,8.1012 L 15.5954,8.0733 L 15.5954,8.0454 L 15.5954,8.0174 L 15.5954,7.9755 L 15.5954,7.9336 L 15.5954,7.8777 L 15.5954,7.8358 L 15.5954,7.7800 L 15.5954,7.7241 L 15.5954,7.6682 L 15.5954,7.6124 L 15.5954,7.5705 L 15.5954,7.5146 L 15.5954,7.4587 L 15.5954,7.4028 L 15.5954,7.3470 L 15.5954,7.2911 L 15.5954,7.2492 L 15.5954,7.1933 L 15.5954,7.1514 L 15.5954,7.1095 L 15.5954,7.0816 L 15.5954,7.0537 L 15.5954,7.0257 L 15.5954,6.9978 L 15.5954,6.9838 L 15.5954,6.9699 L 15.5954,6.9559 L 15.5954,6.9419 L 15.5954,6.9279 L 15.5814,6.9279 L 15.5814,6.9140 L 15.5673,6.9000 L 15.5532,6.9000 L 15.5532,6.8860 L 15.5392,6.8860 L 15.5251,6.8860 L 15.5111,6.8860 L 15.4829,6.8860 L 15.4407,6.8860 L 15.3845,6.8860 L 15.3001,6.8860 L 15.2157,6.8860 L 15.1173,6.8860 L 15.0048,6.8860 L 14.8782,6.8860 L 14.7517,6.8860 L 14.6110,6.8860 L 14.4704,6.8860 L 14.3157,6.8860 L 14.1751,6.8860 L 14.0204,6.8860 L 13.8657,6.8860 L 13.6970,6.8860 L 13.5423,6.8860 L 13.4017,6.8860 L 13.2470,6.8860 L 13.1063,6.8860 L 12.9657,6.8860 L 12.8392,6.8860 L 12.7126,6.8860 L 12.6001,6.8860 L 12.5017,6.8860 L 12.4173,6.8860 L 12.3329,6.8860 L 12.2767,6.8860 L 12.2345,6.8860 L 12.2063,6.8860 L 12.1923,6.8860 Z" stroke="#7F7F7F" stroke-width="0.1196" stroke-linecap="round" stroke-linejoin="round" fill="#000000"/>
        <path d="M 12.9376,7.5844 L 12.6282,7.5844 L 12.6282,7.5146 L 12.9376,7.5146 L 12.9376,7.5844 Z" stroke="#000000" stroke-width="0.1196" stroke-linecap="round" stroke-linejoin="round" fill="#7F7F7F"/>
        <path d="M 13.6407,7.5844 L 13.3313,7.5844 L 13.3313,7.5146 L 13.6407,7.5146 L 13.6407,7.5844 Z" stroke="#000000" stroke-width="0.1196" stroke-linecap="round" stroke-linejoin="round" fill="#7F7F7F"/>
        <path d="M 14.3298,7.5844 L 14.0204,7.5844 L 14.0204,7.5146 L 14.3298,7.5146 L 14.3298,7.5844 Z" stroke="#000000" stroke-width="0.1196" stroke-linecap="round" stroke-linejoin="round" fill="#7F7F7F"/>
        <path d="M 15.0470,7.5844 L 14.7376,7.5844 L 14.7376,7.5146 L 15.0470,7.5146 L 15.0470,7.5844 Z" stroke="#000000" stroke-width="0.1196" stroke-linecap="round" stroke-linejoin="round" fill="#7F7F7F"/>
        <path d="M 15.3845,7.1514 L 15.3845,7.1235 L 15.3704,7.0956 L 15.3423,7.0816 L 15.3142,7.0816 L 12.3892,7.0816 L 12.3610,7.0816 L 12.3329,7.0956 L 12.3188,7.1235 L 12.3188,7.1514 L 12.3188,7.4448 L 12.3188,7.4727 L 12.3329,7.5006 L 12.3610,7.5146 L 12.3892,7.5146 L 15.3142,7.5146 L 15.3423,7.5146 L 15.3704,7.5006 L 15.3845,7.4727 L 15.3845,7.4448 L 15.3845,7.1514 Z" stroke="#000000" stroke-width="0.1196" stroke-linecap="round" stroke-linejoin="round" fill="#00007F"/>
        <path d="M 15.2720,7.2911 L 15.2579,7.2352 L 15.2298,7.2073 L 15.2017,7.1794 L 15.1454,7.1654 L 12.5579,7.1654 L 12.5017,7.1794 L 12.4735,7.2073 L 12.4454,7.2352 L 12.4313,7.2911 L 12.4454,7.3470 L 12.4735,7.3749 L 12.5017,7.4028 L 12.5579,7.4168 L 15.1454,7.4168 L 15.2017,7.4028 L 15.2298,7.3749 L 15.2579,7.3470 L 15.2720,7.2911 Z" stroke="#0000FF" stroke-width="0.1196" stroke-linecap="round" stroke-linejoin="round" fill="#0000FF"/>
        <path d="M 21.2908,4.0582 L 17.3251,4.0582 L 17.3251,1.4032 L 21.2908,1.4032 L 21.2908,4.0582 Z" stroke="#000000" stroke-width="0.1196" stroke-linecap="round" stroke-linejoin="round" fill="none"/>
        <path d="M 21.2908,8.5842 L 17.3251,8.5842 L 17.3251,5.9292 L 21.2908,5.9292 L 21.2908,8.5842 Z" stroke="#000000" stroke-width="0.1196" stroke-linecap="round" stroke-linejoin="round" fill="none"/>
        <path d="M 25.7064,1.0617 L 25.7064,1.2134 L 25.4814,1.2134 L 25.4814,1.6409 L 24.5392,1.6409 L 24.5392,1.6822 L 24.2439,1.6822 L 24.2439,1.2134 L 24.3002,1.2134 L 24.3002,1.6409 L 24.5392,1.6409 L 24.5392,2.5923 L 24.6377,2.5923 L 24.6377,3.0887 L 24.5392,3.0887 L 24.5392,4.1642 L 28.1393,4.1642 L 28.1393,3.0887 L 28.0408,3.0887 L 28.0408,2.5923 L 28.1393,2.5923 L 28.1393,1.6409 L 28.3783,1.6409 L 28.3783,1.2134 L 28.4346,1.2134 L 28.4346,1.6822 L 28.1393,1.6822 L 28.1393,1.6409 L 27.1971,1.6409 L 27.1971,1.2134 L 26.9721,1.2134 L 26.9721,1.0617 L 25.7064,1.0617 Z" stroke="#000000" stroke-width="0.1196" stroke-linecap="round" stroke-linejoin="round" fill="#000000"/>
        <path d="M 25.4814,1.2272 L 24.3002,1.2272 L 24.3002,1.6547 L 25.4814,1.6547 L 25.4814,1.2272 Z" stroke="#494949" stroke-width="0.1196" stroke-linecap="round" stroke-linejoin="round" fill="#000000"/>
        <path d="M 28.3783,1.2272 L 27.1971,1.2272 L 27.1971,1.6547 L 28.3783,1.6547 L 28.3783,1.2272 Z" stroke="#494949" stroke-width="0.1196" stroke-linecap="round" stroke-linejoin="round" fill="#000000"/>
        <path d="M 25.7064,8.6318 L 25.7064,8.4801 L 25.4814,8.4801 L 25.4814,8.0526 L 24.5392,8.0526 L 24.5392,8.0113 L 24.2439,8.0113 L 24.2439,8.4801 L 24.3002,8.4801 L 24.3002,8.0526 L 24.5392,8.0526 L 24.5392,7.1012 L 24.6377,7.1012 L 24.6377,6.6048 L 24.5392,6.6048 L 24.5392,5.5293 L 28.1393,5.5293 L 28.1393,6.6048 L 28.0408,6.6048 L 28.0408,7.1012 L 28.1393,7.1012 L 28.1393,8.0526 L 28.3783,8.0526 L 28.3783,8.4801 L 28.4346,8.4801 L 28.4346,8.0113 L 28.1393,8.0113 L 28.1393,8.0526 L 27.1971,8.0526 L 27.1971,8.4801 L 26.9721,8.4801 L 26.9721,8.6318 L 25.7064,8.6318 Z" stroke="#000000" stroke-width="0.1196" stroke-linecap="round" stroke-linejoin="round" fill="#000000"/>
        <path d="M 25.4814,8.0526 L 24.3002,8.0526 L 24.3002,8.4801 L 25.4814,8.4801 L 25.4814,8.0526 Z" stroke="#494949" stroke-width="0.1196" stroke-linecap="round" stroke-linejoin="round" fill="#000000"/>
        <path d="M 28.3783,8.0526 L 27.1971,8.0526 L 27.1971,8.4801 L 28.3783,8.4801 L 28.3783,8.0526 Z" stroke="#494949" stroke-width="0.1196" stroke-linecap="round" stroke-linejoin="round" fill="#000000"/>
        <path d="M 33.1315,1.3927 L 33.1315,1.5443 L 32.9065,1.5443 L 32.9065,1.9718 L 31.9643,1.9718 L 31.9643,2.0132 L 31.6690,2.0132 L 31.6690,1.5443 L 31.7252,1.5443 L 31.7252,1.9718 L 31.9643,1.9718 L 31.9643,2.9232 L 32.0627,2.9232 L 32.0627,3.4196 L 31.9643,3.4196 L 31.9643,4.4951 L 35.5643,4.4951 L 35.5643,3.4196 L 35.4659,3.4196 L 35.4659,2.9232 L 35.5643,2.9232 L 35.5643,1.9718 L 35.8034,1.9718 L 35.8034,1.5443 L 35.8596,1.5443 L 35.8596,2.0132 L 35.5643,2.0132 L 35.5643,1.9718 L 34.6221,1.9718 L 34.6221,1.5443 L 34.3971,1.5443 L 34.3971,1.3927 L 33.1315,1.3927 Z" stroke="#000000" stroke-width="0.1196" stroke-linecap="round" stroke-linejoin="round" fill="#000000"/>
        <path d="M 32.9065,1.5581 L 31.7252,1.5581 L 31.7252,1.9856 L 32.9065,1.9856 L 32.9065,1.5581 Z" stroke="#494949" stroke-width="0.1196" stroke-linecap="round" stroke-linejoin="round" fill="#000000"/>
        <path d="M 35.8034,1.5581 L 34.6221,1.5581 L 34.6221,1.9856 L 35.8034,1.9856 L 35.8034,1.5581 Z" stroke="#494949" stroke-width="0.1196" stroke-linecap="round" stroke-linejoin="round" fill="#000000"/>
        <path d="M 33.1315,8.6318 L 33.1315,8.4801 L 32.9065,8.4801 L 32.9065,8.0526 L 31.9643,8.0526 L 31.9643,8.0113 L 31.6690,8.0113 L 31.6690,8.4801 L 31.7252,8.4801 L 31.7252,8.0526 L 31.9643,8.0526 L 31.9643,7.1012 L 32.0627,7.1012 L 32.0627,6.6048 L 31.9643,6.6048 L 31.9643,5.5293 L 35.5643,5.5293 L 35.5643,6.6048 L 35.4659,6.6048 L 35.4659,7.1012 L 35.5643,7.1012 L 35.5643,8.0526 L 35.8034,8.0526 L 35.8034,8.4801 L 35.8596,8.4801 L 35.8596,8.0113 L 35.5643,8.0113 L 35.5643,8.0526 L 34.6221,8.0526 L 34.6221,8.4801 L 34.3971,8.4801 L 34.3971,8.6318 L 33.1315,8.6318 Z" stroke="#000000" stroke-width="0.1196" stroke-linecap="round" stroke-linejoin="round" fill="#000000"/>
        <path d="M 32.9065,8.0526 L 31.7252,8.0526 L 31.7252,8.4801 L 32.9065,8.4801 L 32.9065,8.0526 Z" stroke="#494949" stroke-width="0.1196" stroke-linecap="round" stroke-linejoin="round" fill="#000000"/>
        <path d="M 35.8034,8.0526 L 34.6221,8.0526 L 34.6221,8.4801 L 35.8034,8.4801 L 35.8034,8.0526 Z" stroke="#494949" stroke-width="0.1196" stroke-linecap="round" stroke-linejoin="round" fill="#000000"/>
        <path d="M 37.4628,1.3927 L 37.4628,1.5443 L 37.2378,1.5443 L 37.2378,1.9718 L 36.2956,1.9718 L 36.2956,2.0132 L 36.0003,2.0132 L 36.0003,1.5443 L 36.0565,1.5443 L 36.0565,1.9718 L 36.2956,1.9718 L 36.2956,2.9232 L 36.3940,2.9232 L 36.3940,3.4196 L 36.2956,3.4196 L 36.2956,4.4951 L 39.8956,4.4951 L 39.8956,3.4196 L 39.7972,3.4196 L 39.7972,2.9232 L 39.8956,2.9232 L 39.8956,1.9718 L 40.1347,1.9718 L 40.1347,1.5443 L 40.1909,1.5443 L 40.1909,2.0132 L 39.8956,2.0132 L 39.8956,1.9718 L 38.9534,1.9718 L 38.9534,1.5443 L 38.7284,1.5443 L 38.7284,1.3927 L 37.4628,1.3927 Z" stroke="#000000" stroke-width="0.1196" stroke-linecap="round" stroke-linejoin="round" fill="#000000"/>
        <path d="M 37.2378,1.5581 L 36.0565,1.5581 L 36.0565,1.9856 L 37.2378,1.9856 L 37.2378,1.5581 Z" stroke="#494949" stroke-width="0.1196" stroke-linecap="round" stroke-linejoin="round" fill="#000000"/>
        <path d="M 40.1347,1.5581 L 38.9534,1.5581 L 38.9534,1.9856 L 40.1347,1.9856 L 40.1347,1.5581 Z" stroke="#494949" stroke-width="0.1196" stroke-linecap="round" stroke-linejoin="round" fill="#000000"/>
        <path d="M 37.4628,8.6318 L 37.4628,8.4801 L 37.2378,8.4801 L 37.2378,8.0526 L 36.2956,8.0526 L 36.2956,8.0113 L 36.0003,8.0113 L 36.0003,8.4801 L 36.0565,8.4801 L 36.0565,8.0526 L 36.2956,8.0526 L 36.2956,7.1012 L 36.3940,7.1012 L 36.3940,6.6048 L 36.2956,6.6048 L 36.2956,5.5293 L 39.8956,5.5293 L 39.8956,6.6048 L 39.7972,6.6048 L 39.7972,7.1012 L 39.8956,7.1012 L 39.8956,8.0526 L 40.1347,8.0526 L 40.1347,8.4801 L 40.1909,8.4801 L 40.1909,8.0113 L 39.8956,8.0113 L 39.8956,8.0526 L 38.9534,8.0526 L 38.9534,8.4801 L 38.7284,8.4801 L 38.7284,8.6318 L 37.4628,8.6318 Z" stroke="#000000" stroke-width="0.1196" stroke-linecap="round" stroke-linejoin="round" fill="#000000"/>
        <path d="M 37.2378,8.0526 L 36.0565,8.0526 L 36.0565,8.4801 L 37.2378,8.4801 L 37.2378,8.0526 Z" stroke="#494949" stroke-width="0.1196" stroke-linecap="round" stroke-linejoin="round" fill="#000000"/>
        <path d="M 40.1347,8.0526 L 38.9534,8.0526 L 38.9534,8.4801 L 40.1347,8.4801 L 40.1347,8.0526 Z" stroke="#494949" stroke-width="0.1196" stroke-linecap="round" stroke-linejoin="round" fill="#000000"/>
        <path d="M 41.7941,1.3927 L 41.7941,1.5443 L 41.5691,1.5443 L 41.5691,1.9718 L 40.6269,1.9718 L 40.6269,2.0132 L 40.3315,2.0132 L 40.3315,1.5443 L 40.3878,1.5443 L 40.3878,1.9718 L 40.6269,1.9718 L 40.6269,2.9232 L 40.7253,2.9232 L 40.7253,3.4196 L 40.6269,3.4196 L 40.6269,4.4951 L 44.2269,4.4951 L 44.2269,3.4196 L 44.1284,3.4196 L 44.1284,2.9232 L 44.2269,2.9232 L 44.2269,1.9718 L 44.4660,1.9718 L 44.4660,1.5443 L 44.5222,1.5443 L 44.5222,2.0132 L 44.2269,2.0132 L 44.2269,1.9718 L 43.2847,1.9718 L 43.2847,1.5443 L 43.0597,1.5443 L 43.0597,1.3927 L 41.7941,1.3927 Z" stroke="#000000" stroke-width="0.1196" stroke-linecap="round" stroke-linejoin="round" fill="#000000"/>
        <path d="M 41.5691,1.5581 L 40.3878,1.5581 L 40.3878,1.9856 L 41.5691,1.9856 L 41.5691,1.5581 Z" stroke="#494949" stroke-width="0.1196" stroke-linecap="round" stroke-linejoin="round" fill="#000000"/>
        <path d="M 44.4660,1.5581 L 43.2847,1.5581 L 43.2847,1.9856 L 44.4660,1.9856 L 44.4660,1.5581 Z" stroke="#494949" stroke-width="0.1196" stroke-linecap="round" stroke-linejoin="round" fill="#000000"/>
        <path d="M 41.7941,8.6318 L 41.7941,8.4801 L 41.5691,8.4801 L 41.5691,8.0526 L 40.6269,8.0526 L 40.6269,8.0113 L 40.3315,8.0113 L 40.3315,8.4801 L 40.3878,8.4801 L 40.3878,8.0526 L 40.6269,8.0526 L 40.6269,7.1012 L 40.7253,7.1012 L 40.7253,6.6048 L 40.6269,6.6048 L 40.6269,5.5293 L 44.2269,5.5293 L 44.2269,6.6048 L 44.1284,6.6048 L 44.1284,7.1012 L 44.2269,7.1012 L 44.2269,8.0526 L 44.4660,8.0526 L 44.4660,8.4801 L 44.5222,8.4801 L 44.5222,8.0113 L 44.2269,8.0113 L 44.2269,8.0526 L 43.2847,8.0526 L 43.2847,8.4801 L 43.0597,8.4801 L 43.0597,8.6318 L 41.7941,8.6318 Z" stroke="#000000" stroke-width="0.1196" stroke-linecap="round" stroke-linejoin="round" fill="#000000"/>
        <path d="M 41.5691,8.0526 L 40.3878,8.0526 L 40.3878,8.4801 L 41.5691,8.4801 L 41.5691,8.0526 Z" stroke="#494949" stroke-width="0.1196" stroke-linecap="round" stroke-linejoin="round" fill="#000000"/>
        <path d="M 44.4660,8.0526 L 43.2847,8.0526 L 43.2847,8.4801 L 44.4660,8.4801 L 44.4660,8.0526 Z" stroke="#494949" stroke-width="0.1196" stroke-linecap="round" stroke-linejoin="round" fill="#000000"/>
        <path d="M 46.1253,1.3927 L 46.1253,1.5443 L 45.9003,1.5443 L 45.9003,1.9718 L 44.9581,1.9718 L 44.9581,2.0132 L 44.6628,2.0132 L 44.6628,1.5443 L 44.7191,1.5443 L 44.7191,1.9718 L 44.9581,1.9718 L 44.9581,2.9232 L 45.0566,2.9232 L 45.0566,3.4196 L 44.9581,3.4196 L 44.9581,4.4951 L 48.5582,4.4951 L 48.5582,3.4196 L 48.4597,3.4196 L 48.4597,2.9232 L 48.5582,2.9232 L 48.5582,1.9718 L 48.7972,1.9718 L 48.7972,1.5443 L 48.8535,1.5443 L 48.8535,2.0132 L 48.5582,2.0132 L 48.5582,1.9718 L 47.6160,1.9718 L 47.6160,1.5443 L 47.3910,1.5443 L 47.3910,1.3927 L 46.1253,1.3927 Z" stroke="#000000" stroke-width="0.1196" stroke-linecap="round" stroke-linejoin="round" fill="#000000"/>
        <path d="M 45.9003,1.5581 L 44.7191,1.5581 L 44.7191,1.9856 L 45.9003,1.9856 L 45.9003,1.5581 Z" stroke="#494949" stroke-width="0.1196" stroke-linecap="round" stroke-linejoin="round" fill="#000000"/>
        <path d="M 48.7972,1.5581 L 47.6160,1.5581 L 47.6160,1.9856 L 48.7972,1.9856 L 48.7972,1.5581 Z" stroke="#494949" stroke-width="0.1196" stroke-linecap="round" stroke-linejoin="round" fill="#000000"/>
        <path d="M 46.1253,8.6318 L 46.1253,8.4801 L 45.9003,8.4801 L 45.9003,8.0526 L 44.9581,8.0526 L 44.9581,8.0113 L 44.6628,8.0113 L 44.6628,8.4801 L 44.7191,8.4801 L 44.7191,8.0526 L 44.9581,8.0526 L 44.9581,7.1012 L 45.0566,7.1012 L 45.0566,6.6048 L 44.9581,6.6048 L 44.9581,5.5293 L 48.5582,5.5293 L 48.5582,6.6048 L 48.4597,6.6048 L 48.4597,7.1012 L 48.5582,7.1012 L 48.5582,8.0526 L 48.7972,8.0526 L 48.7972,8.4801 L 48.8535,8.4801 L 48.8535,8.0113 L 48.5582,8.0113 L 48.5582,8.0526 L 47.6160,8.0526 L 47.6160,8.4801 L 47.3910,8.4801 L 47.3910,8.6318 L 46.1253,8.6318 Z" stroke="#000000" stroke-width="0.1196" stroke-linecap="round" stroke-linejoin="round" fill="#000000"/>
        <path d="M 45.9003,8.0526 L 44.7191,8.0526 L 44.7191,8.4801 L 45.9003,8.4801 L 45.9003,8.0526 Z" stroke="#494949" stroke-width="0.1196" stroke-linecap="round" stroke-linejoin="round" fill="#000000"/>
        <path d="M 48.7972,8.0526 L 47.6160,8.0526 L 47.6160,8.4801 L 48.7972,8.4801 L 48.7972,8.0526 Z" stroke="#494949" stroke-width="0.1196" stroke-linecap="round" stroke-linejoin="round" fill="#000000"/>
        <path d="M 28.4290,1.2386 L 27.2886,1.2386 L 27.2886,1.7031 L 28.4290,1.7031 L 28.4290,1.2386 Z" stroke="#000000" stroke-width="0.1196" stroke-linecap="round" stroke-linejoin="round" fill="#FFFF00"/>
        <path d="M 25.4354,1.2386 L 24.2950,1.2386 L 24.2950,1.7031 L 25.4354,1.7031 L 25.4354,1.2386 Z" stroke="#000000" stroke-width="0.1196" stroke-linecap="round" stroke-linejoin="round" fill="#83FF00"/>
        <path d="M 32.8074,1.5677 L 31.6669,1.5677 L 31.6669,2.0322 L 32.8074,2.0322 L 32.8074,1.5677 Z" stroke="#000000" stroke-width="0.1196" stroke-linecap="round" stroke-linejoin="round" fill="#83FF00"/>
        <path d="M 35.8417,1.5677 L 34.7013,1.5677 L 34.7013,2.0322 L 35.8417,2.0322 L 35.8417,1.5677 Z" stroke="#000000" stroke-width="0.1196" stroke-linecap="round" stroke-linejoin="round" fill="#83FF00"/>
        <path d="M 37.1450,1.5677 L 36.0046,1.5677 L 36.0046,2.0322 L 37.1450,2.0322 L 37.1450,1.5677 Z" stroke="#000000" stroke-width="0.1196" stroke-linecap="round" stroke-linejoin="round" fill="#83FF00"/>
        <path d="M 40.1793,1.5677 L 39.0389,1.5677 L 39.0389,2.0322 L 40.1793,2.0322 L 40.1793,1.5677 Z" stroke="#000000" stroke-width="0.1196" stroke-linecap="round" stroke-linejoin="round" fill="#83FF00"/>
        <path d="M 41.4623,1.5677 L 40.3219,1.5677 L 40.3219,2.0322 L 41.4623,2.0322 L 41.4623,1.5677 Z" stroke="#000000" stroke-width="0.1196" stroke-linecap="round" stroke-linejoin="round" fill="#83FF00"/>
        <path d="M 44.4966,1.5677 L 43.3562,1.5677 L 43.3562,2.0322 L 44.4966,2.0322 L 44.4966,1.5677 Z" stroke="#000000" stroke-width="0.1196" stroke-linecap="round" stroke-linejoin="round" fill="#83FF00"/>
        <path d="M 45.8000,1.5677 L 44.6596,1.5677 L 44.6596,2.0322 L 45.8000,2.0322 L 45.8000,1.5677 Z" stroke="#000000" stroke-width="0.1196" stroke-linecap="round" stroke-linejoin="round" fill="#83FF00"/>
        <path d="M 48.8343,1.5677 L 47.6939,1.5677 L 47.6939,2.0322 L 48.8343,2.0322 L 48.8343,1.5677 Z" stroke="#000000" stroke-width="0.1196" stroke-linecap="round" stroke-linejoin="round" fill="#83FF00"/>
        <path d="M 25.4354,8.0512 L 24.2950,8.0512 L 24.2950,8.5157 L 25.4354,8.5157 L 25.4354,8.0512 Z" stroke="#000000" stroke-width="0.1196" stroke-linecap="round" stroke-linejoin="round" fill="#83FF00"/>
        <path d="M 28.4290,8.0512 L 27.2886,8.0512 L 27.2886,8.5157 L 28.4290,8.5157 L 28.4290,8.0512 Z" stroke="#000000" stroke-width="0.1196" stroke-linecap="round" stroke-linejoin="round" fill="#FFFF00"/>
        <path d="M 35.8417,8.0512 L 34.7013,8.0512 L 34.7013,8.5157 L 35.8417,8.5157 L 35.8417,8.0512 Z" stroke="#000000" stroke-width="0.1196" stroke-linecap="round" stroke-linejoin="round" fill="#83FF00"/>
        <path d="M 37.1450,8.0512 L 36.0046,8.0512 L 36.0046,8.5157 L 37.1450,8.5157 L 37.1450,8.0512 Z" stroke="#000000" stroke-width="0.1196" stroke-linecap="round" stroke-linejoin="round" fill="#83FF00"/>
        <path d="M 40.1793,8.0512 L 39.0389,8.0512 L 39.0389,8.5157 L 40.1793,8.5157 L 40.1793,8.0512 Z" stroke="#000000" stroke-width="0.1196" stroke-linecap="round" stroke-linejoin="round" fill="#83FF00"/>
        <path d="M 41.4623,8.0512 L 40.3219,8.0512 L 40.3219,8.5157 L 41.4623,8.5157 L 41.4623,8.0512 Z" stroke="#000000" stroke-width="0.1196" stroke-linecap="round" stroke-linejoin="round" fill="#83FF00"/>
        <path d="M 44.4966,8.0512 L 43.3562,8.0512 L 43.3562,8.5157 L 44.4966,8.5157 L 44.4966,8.0512 Z" stroke="#000000" stroke-width="0.1196" stroke-linecap="round" stroke-linejoin="round" fill="#83FF00"/>
        <path d="M 45.8000,8.0512 L 44.6596,8.0512 L 44.6596,8.5157 L 45.8000,8.5157 L 45.8000,8.0512 Z" stroke="#000000" stroke-width="0.1196" stroke-linecap="round" stroke-linejoin="round" fill="#83FF00"/>
        <path d="M 48.8343,8.0512 L 47.6939,8.0512 L 47.6939,8.5157 L 48.8343,8.5157 L 48.8343,8.0512 Z" stroke="#000000" stroke-width="0.1196" stroke-linecap="round" stroke-linejoin="round" fill="#83FF00"/>
        <path d="M 32.8074,8.0512 L 31.6669,8.0512 L 31.6669,8.5157 L 32.8074,8.5157 L 32.8074,8.0512 Z" stroke="#000000" stroke-width="0.1196" stroke-linecap="round" stroke-linejoin="round" fill="#83FF00"/>
      </g>
      <!--emf-blob end-->
    </g>
  </g>
</svg>
