<svg xmlns="http://www.w3.org/2000/svg" xmlns:xlink="http://www.w3.org/1999/xlink" version="1.1" width="7.6704000000" height="2.5856000000" viewBox="0 0 138.0699 46.5429">
  <title><![CDATA[FG-94D-POE ]]></title>
  <g transform=" scale(4.000000) ">
    <!--converted by libvisio2svg-->
    <g transform=" translate(0.720000,0.720000) ">
      <!--emf-blob start-->
      <g transform="translate(-0.0000, -0.0000)">
        <path d="M 10.4483,1.0134 L 10.4483,1.7266 L 11.0981,1.7266 " stroke="#000000" stroke-width="0.1198" stroke-linecap="round" stroke-linejoin="round" fill="none"/>
        <path d="M 11.0981,1.0134 L 12.3806,1.0134 " stroke="#000000" stroke-width="0.1198" stroke-linecap="round" stroke-linejoin="round" fill="none"/>
        <path d="M 11.7308,1.0134 L 11.7308,1.7266 " stroke="#000000" stroke-width="0.1198" stroke-linecap="round" stroke-linejoin="round" fill="none"/>
        <path d="M 12.7055,1.0134 L 12.7055,1.7266 " stroke="#000000" stroke-width="0.1198" stroke-linecap="round" stroke-linejoin="round" fill="none"/>
        <path d="M 12.7055,1.0134 L 12.7055,1.7266 " stroke="#000000" stroke-width="0.1198" stroke-linecap="round" stroke-linejoin="round" fill="none"/>
        <path d="M 13.3383,1.7266 L 13.3383,1.0134 L 13.9881,1.7266 L 14.6379,1.0134 L 14.6379,1.7266 " stroke="#000000" stroke-width="0.1198" stroke-linecap="round" stroke-linejoin="round" fill="none"/>
        <path d="M 14.9457,1.7266 L 15.5955,1.0134 L 16.2453,1.7266 " stroke="#000000" stroke-width="0.1198" stroke-linecap="round" stroke-linejoin="round" fill="none"/>
        <path d="M 15.1167,1.5483 L 16.0743,1.5483 " stroke="#000000" stroke-width="0.1198" stroke-linecap="round" stroke-linejoin="round" fill="none"/>
        <path d="M 8.5160,1.7266 L 9.1658,1.0134 L 9.8156,1.7266 " stroke="#000000" stroke-width="0.1198" stroke-linecap="round" stroke-linejoin="round" fill="none"/>
        <path d="M 8.6870,1.5483 L 9.6446,1.5483 " stroke="#000000" stroke-width="0.1198" stroke-linecap="round" stroke-linejoin="round" fill="none"/>
        <path d="M 136.2506,0.0281 L 0.0281,0.0281 L 0.0281,12.1611 L 136.2506,12.1611 L 136.2506,0.0281 Z" stroke="#000000" stroke-width="0.1198" stroke-linecap="round" stroke-linejoin="round" fill="#EFEFEF"/>
        <path d="M 129.0692,0.4072 L 129.0552,0.3370 L 129.0412,0.2528 L 128.9570,0.1404 L 128.8448,0.0562 L 128.7606,0.0421 L 128.6905,0.0281 L 7.5882,0.0281 L 7.5181,0.0421 L 7.4339,0.0562 L 7.3217,0.1404 L 7.2375,0.2528 L 7.2235,0.3370 L 7.2095,0.4072 L 7.2095,11.7820 L 7.2235,11.8522 L 7.2375,11.9364 L 7.3217,12.0488 L 7.4339,12.1330 L 7.5181,12.1471 L 7.5882,12.1611 L 128.6905,12.1611 L 128.7606,12.1471 L 128.8448,12.1330 L 128.9570,12.0488 L 129.0412,11.9364 L 129.0552,11.8522 L 129.0692,11.7820 L 129.0692,0.4072 Z" stroke="#000000" stroke-width="0.1198" stroke-linecap="round" stroke-linejoin="round" fill="#EFEFEF"/>
        <path d="M 128.3679,0.8566 L 128.3679,0.7864 L 128.3399,0.7162 L 128.3118,0.6600 L 128.2697,0.6038 L 128.2136,0.5617 L 128.1575,0.5336 L 128.0172,0.5055 L 8.2755,0.5055 L 8.1352,0.5336 L 8.0791,0.5617 L 8.0230,0.6038 L 7.9809,0.6600 L 7.9529,0.7162 L 7.9248,0.8566 L 7.9248,11.3326 L 7.9529,11.4730 L 7.9809,11.5292 L 8.0230,11.5854 L 8.0791,11.6275 L 8.1352,11.6556 L 8.2053,11.6837 L 128.0874,11.6837 L 128.1575,11.6556 L 128.2136,11.6275 L 128.2697,11.5854 L 128.3118,11.5292 L 128.3399,11.4730 L 128.3679,11.4028 L 128.3679,11.3326 L 128.3679,0.8566 Z" stroke="#CBDBCB" stroke-width="0.1198" stroke-linecap="round" stroke-linejoin="round" fill="#CBDBCB"/>
        <path d="M 135.2969,1.5307 L 135.2969,1.4324 L 135.2828,1.3341 L 135.2548,1.2358 L 135.2267,1.1515 L 135.1846,1.0532 L 135.1285,0.9830 L 135.0724,0.8987 L 135.0163,0.8285 L 134.9462,0.7724 L 134.8620,0.7162 L 134.7919,0.6600 L 134.6937,0.6179 L 134.6096,0.5898 L 134.5114,0.5617 L 134.4132,0.5477 L 132.3093,0.5477 L 132.2111,0.5617 L 132.1129,0.5898 L 132.0287,0.6179 L 131.9306,0.6600 L 131.8604,0.7162 L 131.7763,0.7724 L 131.7061,0.8285 L 131.6500,0.8987 L 131.5939,0.9830 L 131.5378,1.0532 L 131.4957,1.1515 L 131.4677,1.2358 L 131.4396,1.3341 L 131.4256,1.4324 L 131.4256,1.6430 L 131.4396,1.7413 L 131.4677,1.8396 L 131.4957,1.9239 L 131.5378,2.0222 L 131.5939,2.0924 L 131.6500,2.1766 L 131.7061,2.2469 L 131.7763,2.3030 L 131.8604,2.3592 L 131.9306,2.4154 L 132.0287,2.4575 L 132.1129,2.4856 L 132.2111,2.5137 L 132.3093,2.5277 L 134.4132,2.5277 L 134.5114,2.5137 L 134.6096,2.4856 L 134.6937,2.4575 L 134.7919,2.4154 L 134.8620,2.3592 L 134.9462,2.3030 L 135.0163,2.2469 L 135.0724,2.1766 L 135.1285,2.0924 L 135.1846,2.0222 L 135.2267,1.9239 L 135.2548,1.8396 L 135.2828,1.7413 L 135.2969,1.6430 L 135.2969,1.5447 L 135.2969,1.5307 Z" stroke="#000000" stroke-width="0.1198" stroke-linecap="round" stroke-linejoin="round" fill="#FFFFFF"/>
        <path d="M 135.2969,10.6585 L 135.2969,10.5602 L 135.2828,10.4619 L 135.2548,10.3636 L 135.2267,10.2794 L 135.1846,10.1811 L 135.1285,10.1109 L 135.0724,10.0266 L 135.0163,9.9564 L 134.9462,9.9002 L 134.8620,9.8441 L 134.7919,9.7879 L 134.6937,9.7458 L 134.6096,9.7177 L 134.5114,9.6896 L 134.4132,9.6755 L 132.3093,9.6755 L 132.2111,9.6896 L 132.1129,9.7177 L 132.0287,9.7458 L 131.9306,9.7879 L 131.8604,9.8441 L 131.7763,9.9002 L 131.7061,9.9564 L 131.6500,10.0266 L 131.5939,10.1109 L 131.5378,10.1811 L 131.4957,10.2794 L 131.4677,10.3636 L 131.4396,10.4619 L 131.4256,10.5602 L 131.4256,10.7709 L 131.4396,10.8692 L 131.4677,10.9675 L 131.4957,11.0517 L 131.5378,11.1500 L 131.5939,11.2203 L 131.6500,11.3045 L 131.7061,11.3747 L 131.7763,11.4309 L 131.8604,11.4871 L 131.9306,11.5432 L 132.0287,11.5854 L 132.1129,11.6135 L 132.2111,11.6415 L 132.3093,11.6556 L 134.4132,11.6556 L 134.5114,11.6415 L 134.6096,11.6135 L 134.6937,11.5854 L 134.7919,11.5432 L 134.8620,11.4871 L 134.9462,11.4309 L 135.0163,11.3747 L 135.0724,11.3045 L 135.1285,11.2203 L 135.1846,11.1500 L 135.2267,11.0517 L 135.2548,10.9675 L 135.2828,10.8692 L 135.2969,10.7709 L 135.2969,10.6726 L 135.2969,10.6585 Z" stroke="#000000" stroke-width="0.1198" stroke-linecap="round" stroke-linejoin="round" fill="#FFFFFF"/>
        <path d="M 4.8531,1.5307 L 4.8531,1.4324 L 4.8390,1.3341 L 4.8110,1.2358 L 4.7829,1.1515 L 4.7409,1.0532 L 4.6848,0.9830 L 4.6287,0.8987 L 4.5725,0.8285 L 4.5024,0.7724 L 4.4183,0.7162 L 4.3481,0.6600 L 4.2499,0.6179 L 4.1658,0.5898 L 4.0676,0.5617 L 3.9694,0.5477 L 1.8655,0.5477 L 1.7673,0.5617 L 1.6691,0.5898 L 1.5850,0.6179 L 1.4868,0.6600 L 1.4166,0.7162 L 1.3325,0.7724 L 1.2624,0.8285 L 1.2063,0.8987 L 1.1501,0.9830 L 1.0940,1.0532 L 1.0520,1.1515 L 1.0239,1.2358 L 0.9959,1.3341 L 0.9818,1.4324 L 0.9818,1.6430 L 0.9959,1.7413 L 1.0239,1.8396 L 1.0520,1.9239 L 1.0940,2.0222 L 1.1501,2.0924 L 1.2063,2.1766 L 1.2624,2.2469 L 1.3325,2.3030 L 1.4166,2.3592 L 1.4868,2.4154 L 1.5850,2.4575 L 1.6691,2.4856 L 1.7673,2.5137 L 1.8655,2.5277 L 3.9694,2.5277 L 4.0676,2.5137 L 4.1658,2.4856 L 4.2499,2.4575 L 4.3481,2.4154 L 4.4183,2.3592 L 4.5024,2.3030 L 4.5725,2.2469 L 4.6287,2.1766 L 4.6848,2.0924 L 4.7409,2.0222 L 4.7829,1.9239 L 4.8110,1.8396 L 4.8390,1.7413 L 4.8531,1.6430 L 4.8531,1.5447 L 4.8531,1.5307 Z" stroke="#000000" stroke-width="0.1198" stroke-linecap="round" stroke-linejoin="round" fill="#FFFFFF"/>
        <path d="M 4.8531,10.6585 L 4.8531,10.5602 L 4.8390,10.4619 L 4.8110,10.3636 L 4.7829,10.2794 L 4.7409,10.1811 L 4.6848,10.1109 L 4.6287,10.0266 L 4.5725,9.9564 L 4.5024,9.9002 L 4.4183,9.8441 L 4.3481,9.7879 L 4.2499,9.7458 L 4.1658,9.7177 L 4.0676,9.6896 L 3.9694,9.6755 L 1.8655,9.6755 L 1.7673,9.6896 L 1.6691,9.7177 L 1.5850,9.7458 L 1.4868,9.7879 L 1.4166,9.8441 L 1.3325,9.9002 L 1.2624,9.9564 L 1.2063,10.0266 L 1.1501,10.1109 L 1.0940,10.1811 L 1.0520,10.2794 L 1.0239,10.3636 L 0.9959,10.4619 L 0.9818,10.5602 L 0.9818,10.7709 L 0.9959,10.8692 L 1.0239,10.9675 L 1.0520,11.0517 L 1.0940,11.1500 L 1.1501,11.2203 L 1.2063,11.3045 L 1.2624,11.3747 L 1.3325,11.4309 L 1.4166,11.4871 L 1.4868,11.5432 L 1.5850,11.5854 L 1.6691,11.6135 L 1.7673,11.6415 L 1.8655,11.6556 L 3.9694,11.6556 L 4.0676,11.6415 L 4.1658,11.6135 L 4.2499,11.5854 L 4.3481,11.5432 L 4.4183,11.4871 L 4.5024,11.4309 L 4.5725,11.3747 L 4.6287,11.3045 L 4.6848,11.2203 L 4.7409,11.1500 L 4.7829,11.0517 L 4.8110,10.9675 L 4.8390,10.8692 L 4.8531,10.7709 L 4.8531,10.6726 L 4.8531,10.6585 Z" stroke="#000000" stroke-width="0.1198" stroke-linecap="round" stroke-linejoin="round" fill="#FFFFFF"/>
        <path d="M 7.9248,8.5521 L 7.9248,0.7021 L 7.9388,0.6881 L 7.9388,0.6741 L 7.9529,0.6600 L 7.9529,0.6319 L 7.9669,0.6319 L 7.9669,0.6179 L 8.0230,0.5617 L 8.0370,0.5617 L 8.0651,0.5336 L 8.0791,0.5336 L 8.0931,0.5196 L 8.1212,0.5196 L 8.1352,0.5055 L 41.2932,0.5055 L 40.6620,0.5898 L 40.0448,0.6600 L 39.4557,0.7302 L 38.3336,0.8707 L 37.8006,0.9409 L 37.2817,1.0111 L 36.7908,1.0813 L 36.2998,1.1656 L 35.8229,1.2498 L 34.9253,1.4464 L 34.4905,1.5728 L 34.0697,1.6992 L 33.6489,1.8396 L 33.2421,1.9941 L 32.8354,2.1626 L 32.4426,2.3452 L 32.0499,2.5558 L 31.6572,2.7805 L 31.2785,3.0192 L 30.8997,3.3001 L 30.5070,3.5950 L 30.1283,3.9039 L 29.7496,4.2550 L 29.3709,4.6341 L 28.9782,5.0414 L 28.5854,5.4767 L 28.1927,5.9401 L 27.7859,6.4457 L 27.3792,6.9793 L 26.9584,7.5551 L 26.6218,7.8359 L 26.5236,7.8921 L 26.4394,7.9483 L 26.3412,8.0044 L 26.2571,8.0606 L 25.9625,8.1870 L 25.8503,8.2291 L 25.7521,8.2713 L 25.3033,8.3836 L 25.1771,8.4117 L 25.0508,8.4257 L 24.9246,8.4538 L 24.7983,8.4679 L 24.3776,8.5100 L 24.2233,8.5240 L 24.0690,8.5240 L 23.9007,8.5381 L 23.7464,8.5381 L 23.5781,8.5521 L 7.9669,8.5521 L 7.9248,8.5521 Z" stroke="#CBDBCB" stroke-width="0.1198" stroke-linecap="round" stroke-linejoin="round" fill="#EFEFEF"/>
        <path d="M 21.1515,2.3732 L 16.7754,2.3732 L 16.7754,9.4228 L 21.1515,9.4228 L 21.1515,2.3732 Z" stroke="#000000" stroke-width="0.1198" stroke-linecap="round" stroke-linejoin="round" fill="#7F7F7F"/>
        <path d="M 123.0660,7.2461 L 123.0660,9.4368 L 126.2640,9.4368 L 126.2640,7.2461 L 123.0660,7.2461 Z" stroke="#EFEFEF" stroke-width="0.1198" stroke-linecap="round" stroke-linejoin="round" fill="#EFEFEF"/>
        <path d="M 119.7979,4.5499 L 122.4909,4.5499 L 122.4909,6.7406 L 119.7979,6.7406 L 119.7979,4.5499 Z" stroke="#EFEFEF" stroke-width="0.1198" stroke-linecap="round" stroke-linejoin="round" fill="#EFEFEF"/>
        <path d="M 126.8671,6.7406 L 128.3539,6.7406 L 128.3539,4.5499 L 126.8671,4.5499 L 126.8671,6.7406 Z" stroke="#EFEFEF" stroke-width="0.1198" stroke-linecap="round" stroke-linejoin="round" fill="#EFEFEF"/>
        <path d="M 122.4909,7.2461 L 122.4909,9.4789 L 121.7616,9.4789 L 121.6353,9.4649 L 121.4109,9.4368 L 120.9621,9.3245 L 120.7657,9.2402 L 120.6675,9.1840 L 120.5834,9.1279 L 120.4852,9.0577 L 120.4010,8.9874 L 120.3309,8.9032 L 120.2467,8.8189 L 120.1766,8.7206 L 120.1205,8.6223 L 120.0504,8.5100 L 120.0083,8.3836 L 119.9522,8.2572 L 119.9101,8.1168 L 119.8820,7.9623 L 119.8400,7.7938 L 119.8259,7.6253 L 119.8119,7.4427 L 119.7979,7.2461 L 122.4769,7.2461 L 122.4909,7.2461 Z" stroke="#EFEFEF" stroke-width="0.1198" stroke-linecap="round" stroke-linejoin="round" fill="#EFEFEF"/>
        <path d="M 123.0660,1.8537 L 123.0660,4.0443 L 126.2640,4.0443 L 126.2640,1.8537 L 123.0660,1.8537 Z" stroke="#EFEFEF" stroke-width="0.1198" stroke-linecap="round" stroke-linejoin="round" fill="#EFEFEF"/>
        <path d="M 122.4909,4.0443 L 122.4909,1.8115 L 121.7616,1.8115 L 121.6353,1.8256 L 121.4109,1.8537 L 120.9621,1.9660 L 120.7657,2.0503 L 120.6675,2.1064 L 120.5834,2.1626 L 120.4852,2.2328 L 120.4010,2.3030 L 120.3309,2.3873 L 120.2467,2.4715 L 120.1766,2.5698 L 120.1205,2.6681 L 120.0504,2.7805 L 120.0083,2.9069 L 119.9522,3.0333 L 119.9101,3.1737 L 119.8820,3.3282 L 119.8400,3.4967 L 119.8259,3.6652 L 119.8119,3.8477 L 119.7979,4.0443 L 122.4769,4.0443 L 122.4909,4.0443 Z" stroke="#EFEFEF" stroke-width="0.1198" stroke-linecap="round" stroke-linejoin="round" fill="#EFEFEF"/>
        <path d="M 126.8671,7.2461 L 126.8671,9.4368 L 128.3539,9.4368 L 128.3539,7.2461 L 126.8671,7.2461 Z" stroke="#EFEFEF" stroke-width="0.1198" stroke-linecap="round" stroke-linejoin="round" fill="#EFEFEF"/>
        <path d="M 126.8671,1.8537 L 126.8671,4.0443 L 128.3539,4.0443 L 128.3539,1.8537 L 126.8671,1.8537 Z" stroke="#EFEFEF" stroke-width="0.1198" stroke-linecap="round" stroke-linejoin="round" fill="#EFEFEF"/>
        <path d="M 125.9554,2.3732 L 121.6353,2.3732 L 121.6353,9.4228 L 125.9554,9.4228 L 125.9554,2.3732 Z" stroke="#000000" stroke-width="0.1198" stroke-linecap="round" stroke-linejoin="round" fill="#7F7F7F"/>
        <path d="M 125.9554,5.2099 L 121.6353,5.2099 L 121.6353,6.5861 L 125.9554,6.5861 L 125.9554,5.2099 Z" stroke="#000000" stroke-width="0.1198" stroke-linecap="round" stroke-linejoin="round" fill="#7F7F7F"/>
        <path d="M 122.4488,6.3614 L 122.9398,5.5188 L 121.9579,5.5188 L 122.4488,6.3614 Z" stroke="#494949" stroke-width="0.1198" stroke-linecap="round" stroke-linejoin="round" fill="#00FF00"/>
        <path d="M 125.1559,5.5329 L 124.6650,6.3755 L 125.6468,6.3755 L 125.1559,5.5329 Z" stroke="#494949" stroke-width="0.1198" stroke-linecap="round" stroke-linejoin="round" fill="#00FF00"/>
        <path d="M 46.2444,2.3732 L 21.6986,2.3732 L 21.6986,9.4228 L 46.2444,9.4228 L 46.2444,2.3732 Z" stroke="#000000" stroke-width="0.1198" stroke-linecap="round" stroke-linejoin="round" fill="#7F7F7F"/>
        <path d="M 70.7903,2.3732 L 46.2444,2.3732 L 46.2444,9.4228 L 70.7903,9.4228 L 70.7903,2.3732 Z" stroke="#000000" stroke-width="0.1198" stroke-linecap="round" stroke-linejoin="round" fill="#7F7F7F"/>
        <path d="M 95.8411,2.3732 L 71.2952,2.3732 L 71.2952,9.4228 L 95.8411,9.4228 L 95.8411,2.3732 Z" stroke="#000000" stroke-width="0.1198" stroke-linecap="round" stroke-linejoin="round" fill="#7F7F7F"/>
        <path d="M 120.3870,2.3732 L 95.8411,2.3732 L 95.8411,9.4228 L 120.3870,9.4228 L 120.3870,2.3732 Z" stroke="#000000" stroke-width="0.1198" stroke-linecap="round" stroke-linejoin="round" fill="#7F7F7F"/>
        <path d="M 71.2952,1.1656 L 94.6910,1.1656 " stroke="#FF0000" stroke-width="0.1198" stroke-linecap="round" stroke-linejoin="round" fill="none"/>
        <path d="M 96.9913,1.1656 L 120.3870,1.1656 " stroke="#FF0000" stroke-width="0.1198" stroke-linecap="round" stroke-linejoin="round" fill="none"/>
        <text font-family="Arial" fill="#000000" style="white-space:pre;" font-weight="400" text-anchor="start" x="32.0218" y="1.3170" font-size="0.1683"><![CDATA[DMZ 1]]></text>
        <text font-family="Arial" fill="#000000" style="white-space:pre;" font-weight="400" text-anchor="start" x="32.0218" y="3.3813" font-size="0.1683"><![CDATA[DMZ 2]]></text>
        <path d="M 12.5399,4.1131 L 11.8452,4.1131 L 11.8452,4.8102 L 12.5399,4.8102 L 12.5399,4.1131 Z" stroke="#000000" stroke-width="0.1198" stroke-linecap="round" stroke-linejoin="round" fill="#00FF00"/>
        <path d="M 12.5399,5.5771 L 11.8452,5.5771 L 11.8452,6.2742 L 12.5399,6.2742 L 12.5399,5.5771 Z" stroke="#000000" stroke-width="0.1198" stroke-linecap="round" stroke-linejoin="round" fill="#00FF00"/>
        <path d="M 12.5399,6.9888 L 11.8452,6.9888 L 11.8452,7.6859 L 12.5399,7.6859 L 12.5399,6.9888 Z" stroke="#000000" stroke-width="0.1198" stroke-linecap="round" stroke-linejoin="round" fill="#00FF00"/>
        <path d="M 12.5399,8.4528 L 11.8452,8.4528 L 11.8452,9.1499 L 12.5399,9.1499 L 12.5399,8.4528 Z" stroke="#000000" stroke-width="0.1198" stroke-linecap="round" stroke-linejoin="round" fill="#00FF00"/>
        <text font-family="Arial" fill="#000000" style="white-space:pre;" font-weight="400" text-anchor="start" x="16.2915" y="10.9253" font-size="0.1911"><![CDATA[STATUS]]></text>
        <text font-family="Arial" fill="#000000" style="white-space:pre;" font-weight="400" text-anchor="start" x="16.3610" y="11.3435" font-size="0.1911"><![CDATA[ALARM]]></text>
        <text font-family="Arial" fill="#000000" style="white-space:pre;" font-weight="400" text-anchor="start" x="16.7431" y="11.7793" font-size="0.1911"><![CDATA[HA]]></text>
        <text font-family="Arial" fill="#000000" style="white-space:pre;" font-weight="400" text-anchor="start" x="16.3610" y="12.2324" font-size="0.1911"><![CDATA[POWER]]></text>
        <text font-family="Arial" fill="#000000" style="white-space:pre;" font-weight="400" text-anchor="start" x="19.0704" y="10.0869" font-size="0.2084"><![CDATA[WAN 1]]></text>
        <text font-family="Arial" fill="#000000" style="white-space:pre;" font-weight="400" text-anchor="start" x="19.1052" y="12.6489" font-size="0.2084"><![CDATA[WAN 2]]></text>
        <text font-family="Arial" fill="#000000" style="white-space:pre;" font-weight="400" text-anchor="start" x="17.5768" y="12.6489" font-size="0.2084"><![CDATA[USB MGMT]]></text>
        <ellipse cx="12.1099" cy="10.1173" rx="0.2694" ry="0.2646" fill="#666666" stroke="#000000" stroke-width="0.1198" stroke-linecap="round" stroke-linejoin="round"/>
        <ellipse cx="12.1099" cy="10.1173" rx="0.2694" ry="0.2646" fill="none" stroke="#0A0A0A" stroke-width="0.1198" stroke-linecap="round" stroke-linejoin="round"/>
        <path d="M 8.4726,1.7862 L 8.4591,1.7862 L 8.4524,1.7797 L 8.4457,1.7797 L 8.4255,1.7602 L 8.4255,1.7537 L 8.4188,1.7472 L 8.4188,0.9938 L 8.4255,0.9873 L 8.4255,0.9808 L 8.4322,0.9743 L 8.4390,0.9743 L 8.4390,0.9678 L 8.4457,0.9613 L 8.4524,0.9613 L 8.4591,0.9548 L 9.3729,0.9548 L 9.3796,0.9613 L 9.3863,0.9613 L 9.4065,0.9808 L 9.4065,0.9873 L 9.4132,0.9938 L 9.4132,1.1431 L 9.4065,1.1431 L 9.4065,1.1366 L 9.3998,1.1366 L 9.3998,1.1301 L 9.3931,1.1301 L 9.3931,1.1237 L 9.3796,1.1237 L 9.3796,1.1172 L 8.6405,1.1172 L 8.6405,1.1237 L 8.6271,1.1237 L 8.6271,1.1301 L 8.6204,1.1301 L 8.6204,1.1431 L 8.6137,1.1431 L 8.6137,1.7602 L 8.6204,1.7602 L 8.6204,1.7732 L 8.6271,1.7732 L 8.6271,1.7797 L 8.6338,1.7797 L 8.6338,1.7862 L 8.4793,1.7862 L 8.4726,1.7862 Z" stroke="#000000" stroke-width="0.1198" stroke-linecap="round" stroke-linejoin="round" fill="#000000"/>
        <path d="M 9.3460,1.3055 L 8.6808,1.3055 L 8.6808,1.2990 L 8.6674,1.2990 L 8.6674,1.2925 L 8.6607,1.2925 L 8.6607,1.2795 L 8.6540,1.2795 L 8.6540,1.4419 L 8.6607,1.4419 L 8.6607,1.4549 L 8.6674,1.4549 L 8.6674,1.4614 L 8.6808,1.4614 L 8.6808,1.4679 L 9.3595,1.4679 L 9.3729,1.4549 L 9.3796,1.4549 L 9.3931,1.4419 L 9.3931,1.4354 L 9.3998,1.4289 L 9.3998,1.4224 L 9.4065,1.4159 L 9.4065,1.4029 L 9.4132,1.3964 L 9.4132,1.3770 L 9.4065,1.3705 L 9.4065,1.3510 L 9.3931,1.3380 L 9.3931,1.3315 L 9.3863,1.3250 L 9.3796,1.3250 L 9.3796,1.3185 L 9.3729,1.3185 L 9.3662,1.3120 L 9.3595,1.3120 L 9.3527,1.3055 L 9.3460,1.3055 Z" stroke="#000000" stroke-width="0.1198" stroke-linecap="round" stroke-linejoin="round" fill="#000000"/>
        <path d="M 10.8981,1.4679 L 10.8847,1.4679 L 10.8847,1.4614 L 10.8712,1.4614 L 10.8712,1.4549 L 10.8645,1.4549 L 10.8645,1.4419 L 10.8578,1.4419 L 10.8578,1.2795 L 10.8645,1.2795 L 10.8645,1.2925 L 10.8712,1.2925 L 10.8712,1.2990 L 10.8847,1.2990 L 10.8847,1.3055 L 11.4222,1.3055 L 11.4222,1.1172 L 10.8443,1.1172 L 10.8443,1.1237 L 10.8309,1.1237 L 10.8309,1.1301 L 10.8242,1.1301 L 10.8242,1.1431 L 10.8175,1.1431 L 10.8175,1.7602 L 10.8242,1.7602 L 10.8242,1.7732 L 10.8309,1.7732 L 10.8309,1.7797 L 10.8376,1.7797 L 10.8376,1.7862 L 10.6629,1.7862 L 10.6562,1.7797 L 10.6495,1.7797 L 10.6293,1.7602 L 10.6293,1.7537 L 10.6226,1.7472 L 10.6226,0.9938 L 10.6293,0.9873 L 10.6293,0.9808 L 10.6361,0.9743 L 10.6428,0.9743 L 10.6428,0.9678 L 10.6495,0.9613 L 10.6562,0.9613 L 10.6629,0.9548 L 11.5767,0.9548 L 11.5834,0.9613 L 11.5901,0.9613 L 11.6103,0.9808 L 11.6103,0.9873 L 11.6170,0.9938 L 11.6170,1.4029 L 11.6103,1.4094 L 11.6103,1.4224 L 11.6036,1.4224 L 11.6036,1.4289 L 11.5969,1.4354 L 11.5969,1.4419 L 11.5901,1.4419 L 11.5901,1.4484 L 11.5834,1.4484 L 11.5834,1.4549 L 11.5767,1.4549 L 11.5767,1.4614 L 11.5700,1.4614 L 11.5633,1.4679 L 11.5700,1.4744 L 11.5767,1.4744 L 11.5767,1.4809 L 11.5834,1.4809 L 11.5834,1.4874 L 11.5901,1.4874 L 11.5901,1.4939 L 11.5969,1.4939 L 11.5969,1.5004 L 11.6036,1.5069 L 11.6036,1.5134 L 11.6103,1.5134 L 11.6103,1.5264 L 11.6170,1.5328 L 11.6170,1.7602 L 11.6237,1.7602 L 11.6237,1.7732 L 11.6305,1.7732 L 11.6305,1.7797 L 11.6372,1.7797 L 11.6372,1.7862 L 11.4625,1.7862 L 11.4558,1.7797 L 11.4490,1.7797 L 11.4289,1.7602 L 11.4289,1.7537 L 11.4222,1.7472 L 11.4222,1.4679 L 10.9048,1.4679 L 10.8981,1.4679 Z" stroke="#000000" stroke-width="0.1198" stroke-linecap="round" stroke-linejoin="round" fill="#000000"/>
        <path d="M 11.9664,1.1172 L 11.7648,1.1172 L 11.7581,1.1107 L 11.7514,1.1107 L 11.7312,1.0912 L 11.7312,1.0847 L 11.7245,1.0782 L 11.7245,0.9938 L 11.7312,0.9873 L 11.7312,0.9808 L 11.7380,0.9743 L 11.7447,0.9743 L 11.7447,0.9678 L 11.7514,0.9613 L 11.7581,0.9613 L 11.7648,0.9548 L 12.6786,0.9548 L 12.6853,0.9613 L 12.6920,0.9613 L 12.7122,0.9808 L 12.7122,0.9873 L 12.7189,0.9938 L 12.7189,1.1431 L 12.7122,1.1431 L 12.7122,1.1366 L 12.7055,1.1366 L 12.7055,1.1301 L 12.6988,1.1301 L 12.6988,1.1237 L 12.6853,1.1237 L 12.6853,1.1172 L 12.1881,1.1172 L 12.1881,1.1237 L 12.1747,1.1237 L 12.1747,1.1301 L 12.1680,1.1301 L 12.1680,1.1431 L 12.1612,1.1431 L 12.1612,1.7602 L 12.1680,1.7602 L 12.1680,1.7732 L 12.1747,1.7732 L 12.1747,1.7797 L 12.1814,1.7797 L 12.1814,1.7862 L 12.0067,1.7862 L 12.0000,1.7797 L 11.9933,1.7797 L 11.9731,1.7602 L 11.9731,1.7537 L 11.9664,1.7472 L 11.9664,1.1366 L 11.9664,1.1172 Z" stroke="#000000" stroke-width="0.1198" stroke-linecap="round" stroke-linejoin="round" fill="#000000"/>
        <path d="M 13.0213,1.7407 L 13.0213,1.7602 L 13.0280,1.7602 L 13.0280,1.7732 L 13.0347,1.7732 L 13.0347,1.7797 L 13.0414,1.7797 L 13.0414,1.7862 L 12.8667,1.7862 L 12.8600,1.7797 L 12.8533,1.7797 L 12.8331,1.7602 L 12.8331,1.7537 L 12.8264,1.7472 L 12.8264,0.9808 L 12.8197,0.9808 L 12.8197,0.9678 L 12.8130,0.9678 L 12.8130,0.9613 L 12.8063,0.9613 L 12.8063,0.9548 L 12.9810,0.9548 L 12.9877,0.9613 L 12.9944,0.9613 L 13.0145,0.9808 L 13.0145,0.9873 L 13.0213,0.9938 L 13.0213,1.7342 L 13.0213,1.7407 Z" stroke="#000000" stroke-width="0.1198" stroke-linecap="round" stroke-linejoin="round" fill="#000000"/>
        <path d="M 13.9754,1.1172 L 13.3975,1.1172 L 13.3975,1.1237 L 13.3841,1.1237 L 13.3841,1.1301 L 13.3774,1.1301 L 13.3774,1.1431 L 13.3707,1.1431 L 13.3707,1.7602 L 13.3774,1.7602 L 13.3774,1.7732 L 13.3841,1.7732 L 13.3841,1.7797 L 13.3908,1.7797 L 13.3908,1.7862 L 13.2161,1.7862 L 13.2094,1.7797 L 13.2027,1.7797 L 13.1825,1.7602 L 13.1825,1.7537 L 13.1758,1.7472 L 13.1758,0.9938 L 13.1825,0.9873 L 13.1825,0.9808 L 13.1892,0.9743 L 13.1960,0.9743 L 13.1960,0.9678 L 13.2027,0.9613 L 13.2094,0.9613 L 13.2161,0.9548 L 14.1299,0.9548 L 14.1366,0.9613 L 14.1433,0.9613 L 14.1635,0.9808 L 14.1635,0.9873 L 14.1702,0.9938 L 14.1702,1.7602 L 14.1769,1.7602 L 14.1769,1.7732 L 14.1836,1.7732 L 14.1836,1.7797 L 14.1904,1.7797 L 14.1904,1.7862 L 14.0157,1.7862 L 14.0089,1.7797 L 14.0022,1.7797 L 13.9821,1.7602 L 13.9821,1.7537 L 13.9754,1.7472 L 13.9754,1.1366 L 13.9754,1.1172 Z" stroke="#000000" stroke-width="0.1198" stroke-linecap="round" stroke-linejoin="round" fill="#000000"/>
        <path d="M 15.1579,1.3055 L 14.5397,1.3055 L 14.5330,1.2990 L 14.5263,1.2990 L 14.5263,1.2925 L 14.5196,1.2925 L 14.5196,1.2795 L 14.5129,1.2795 L 14.5129,1.4419 L 14.5196,1.4419 L 14.5196,1.4549 L 14.5263,1.4549 L 14.5263,1.4614 L 14.5330,1.4614 L 14.5397,1.4679 L 15.1646,1.4679 L 15.1780,1.4549 L 15.1848,1.4549 L 15.1982,1.4419 L 15.1982,1.4354 L 15.2049,1.4289 L 15.2049,1.4224 L 15.2116,1.4159 L 15.2116,1.4029 L 15.2184,1.3964 L 15.2184,1.3705 L 15.2116,1.3640 L 15.2116,1.3445 L 15.2049,1.3445 L 15.2049,1.3380 L 15.1848,1.3185 L 15.1780,1.3185 L 15.1780,1.3120 L 15.1713,1.3120 L 15.1646,1.3055 L 15.1579,1.3055 Z" stroke="#000000" stroke-width="0.1198" stroke-linecap="round" stroke-linejoin="round" fill="#000000"/>
        <path d="M 15.6215,1.1172 L 15.4199,1.1172 L 15.4132,1.1107 L 15.4065,1.1107 L 15.3863,1.0912 L 15.3863,1.0847 L 15.3796,1.0782 L 15.3796,0.9938 L 15.3863,0.9873 L 15.3863,0.9808 L 15.3930,0.9743 L 15.3998,0.9743 L 15.3998,0.9678 L 15.4065,0.9613 L 15.4132,0.9613 L 15.4199,0.9548 L 16.3337,0.9548 L 16.3404,0.9613 L 16.3471,0.9613 L 16.3673,0.9808 L 16.3673,0.9873 L 16.3740,0.9938 L 16.3740,1.1431 L 16.3673,1.1431 L 16.3673,1.1366 L 16.3606,1.1366 L 16.3606,1.1301 L 16.3539,1.1301 L 16.3539,1.1237 L 16.3404,1.1237 L 16.3404,1.1172 L 15.8432,1.1172 L 15.8432,1.1237 L 15.8298,1.1237 L 15.8298,1.1301 L 15.8231,1.1301 L 15.8231,1.1431 L 15.8163,1.1431 L 15.8163,1.7602 L 15.8231,1.7602 L 15.8231,1.7732 L 15.8298,1.7732 L 15.8298,1.7797 L 15.8365,1.7797 L 15.8365,1.7862 L 15.6618,1.7862 L 15.6551,1.7797 L 15.6484,1.7797 L 15.6282,1.7602 L 15.6282,1.7537 L 15.6215,1.7472 L 15.6215,1.1366 L 15.6215,1.1172 Z" stroke="#000000" stroke-width="0.1198" stroke-linecap="round" stroke-linejoin="round" fill="#000000"/>
        <path d="M 15.2251,1.6238 L 15.2385,1.6238 L 15.2385,1.6173 L 15.2519,1.6173 L 15.2519,1.6108 L 15.2587,1.6108 L 15.2587,1.6043 L 15.2654,1.6043 L 15.2654,1.5978 L 15.2721,1.5978 L 15.2721,1.7472 L 15.2654,1.7537 L 15.2654,1.7602 L 15.2587,1.7667 L 15.2587,1.7732 L 15.2519,1.7732 L 15.2452,1.7797 L 15.2385,1.7797 L 15.2318,1.7862 L 14.3180,1.7862 L 14.3113,1.7797 L 14.3046,1.7797 L 14.2844,1.7602 L 14.2844,1.7537 L 14.2777,1.7472 L 14.2777,0.9938 L 14.2844,0.9873 L 14.2844,0.9808 L 14.2911,0.9743 L 14.2979,0.9743 L 14.2979,0.9678 L 14.3046,0.9613 L 14.3113,0.9613 L 14.3180,0.9548 L 15.2318,0.9548 L 15.2385,0.9613 L 15.2452,0.9613 L 15.2654,0.9808 L 15.2654,0.9873 L 15.2721,0.9938 L 15.2721,1.1431 L 15.2654,1.1431 L 15.2654,1.1366 L 15.2587,1.1366 L 15.2587,1.1301 L 15.2519,1.1301 L 15.2519,1.1237 L 15.2385,1.1237 L 15.2385,1.1172 L 14.4994,1.1172 L 14.4994,1.1237 L 14.4860,1.1237 L 14.4860,1.1301 L 14.4793,1.1301 L 14.4793,1.1431 L 14.4726,1.1431 L 14.4726,1.6238 L 15.2184,1.6238 L 15.2251,1.6238 Z" stroke="#000000" stroke-width="0.1198" stroke-linecap="round" stroke-linejoin="round" fill="#000000"/>
        <path d="M 9.8567,1.5458 L 9.8567,1.7862 L 10.1792,1.7862 L 10.1792,1.5458 L 9.8567,1.5458 Z" stroke="#ED3440" stroke-width="0.1198" stroke-linecap="round" stroke-linejoin="round" fill="#ED3440"/>
        <path d="M 9.5207,1.2536 L 9.7962,1.2536 L 9.7962,1.4874 L 9.5207,1.4874 L 9.5207,1.2536 Z" stroke="#ED3440" stroke-width="0.1198" stroke-linecap="round" stroke-linejoin="round" fill="#ED3440"/>
        <path d="M 10.2396,1.5458 L 10.2396,1.7862 L 10.3404,1.7862 L 10.3471,1.7797 L 10.3740,1.7797 L 10.3807,1.7732 L 10.3942,1.7732 L 10.4076,1.7667 L 10.4143,1.7602 L 10.4278,1.7537 L 10.4412,1.7407 L 10.4546,1.7342 L 10.4614,1.7277 L 10.4681,1.7147 L 10.4748,1.7082 L 10.5017,1.6563 L 10.5017,1.6433 L 10.5084,1.6238 L 10.5084,1.6043 L 10.5151,1.5848 L 10.5151,1.5458 L 10.2464,1.5458 L 10.2396,1.5458 Z" stroke="#ED3440" stroke-width="0.1198" stroke-linecap="round" stroke-linejoin="round" fill="#ED3440"/>
        <path d="M 10.2396,1.2536 L 10.5151,1.2536 L 10.5151,1.4874 L 10.2396,1.4874 L 10.2396,1.2536 Z" stroke="#ED3440" stroke-width="0.1198" stroke-linecap="round" stroke-linejoin="round" fill="#ED3440"/>
        <path d="M 9.7962,1.5458 L 9.7962,1.7862 L 9.6954,1.7862 L 9.6887,1.7797 L 9.6618,1.7797 L 9.6551,1.7732 L 9.6417,1.7732 L 9.6282,1.7667 L 9.6215,1.7602 L 9.6081,1.7537 L 9.5946,1.7407 L 9.5812,1.7342 L 9.5745,1.7277 L 9.5677,1.7147 L 9.5610,1.7082 L 9.5341,1.6563 L 9.5341,1.6433 L 9.5274,1.6238 L 9.5274,1.6043 L 9.5207,1.5848 L 9.5207,1.5458 L 9.7895,1.5458 L 9.7962,1.5458 Z" stroke="#ED3440" stroke-width="0.1198" stroke-linecap="round" stroke-linejoin="round" fill="#ED3440"/>
        <path d="M 9.8567,0.9548 L 9.8567,1.1951 L 10.1792,1.1951 L 10.1792,0.9548 L 9.8567,0.9548 Z" stroke="#ED3440" stroke-width="0.1198" stroke-linecap="round" stroke-linejoin="round" fill="#ED3440"/>
        <path d="M 10.2396,1.1951 L 10.2396,0.9548 L 10.3404,0.9548 L 10.3471,0.9613 L 10.3740,0.9613 L 10.3807,0.9678 L 10.3942,0.9678 L 10.4076,0.9743 L 10.4143,0.9808 L 10.4278,0.9873 L 10.4412,1.0002 L 10.4546,1.0067 L 10.4614,1.0132 L 10.4681,1.0262 L 10.4748,1.0327 L 10.5017,1.0847 L 10.5017,1.0977 L 10.5084,1.1172 L 10.5084,1.1366 L 10.5151,1.1561 L 10.5151,1.1951 L 10.2464,1.1951 L 10.2396,1.1951 Z" stroke="#ED3440" stroke-width="0.1198" stroke-linecap="round" stroke-linejoin="round" fill="#ED3440"/>
        <path d="M 9.7962,1.1951 L 9.7962,0.9548 L 9.6954,0.9548 L 9.6887,0.9613 L 9.6618,0.9613 L 9.6551,0.9678 L 9.6417,0.9678 L 9.6282,0.9743 L 9.6215,0.9808 L 9.6081,0.9873 L 9.5946,1.0002 L 9.5812,1.0067 L 9.5745,1.0132 L 9.5677,1.0262 L 9.5610,1.0327 L 9.5341,1.0847 L 9.5341,1.0977 L 9.5274,1.1172 L 9.5274,1.1366 L 9.5207,1.1561 L 9.5207,1.1951 L 9.7895,1.1951 L 9.7962,1.1951 Z" stroke="#ED3440" stroke-width="0.1198" stroke-linecap="round" stroke-linejoin="round" fill="#ED3440"/>
        <text font-family="Symbol" fill="#000000" style="white-space:pre;" text-anchor="start" x="15.9361" y="1.8437" font-size="0.4809"><![CDATA[]]></text>
        <text font-family="Arial" fill="#000000" style="white-space:pre;" font-weight="400" text-anchor="start" x="17.6022" y="2.0960" font-size="0.0948"><![CDATA[FortiGate 94D]]></text>
        <text font-family="Arial" fill="#FF0000" style="white-space:pre;" font-weight="400" text-anchor="start" x="18.1508" y="2.0960" font-size="0.0948"><![CDATA[-POE]]></text>
        <path d="M 97.1069,2.7034 L 96.2942,2.7034 L 96.2942,3.0153 L 97.1069,3.0153 L 97.1069,2.7034 Z" stroke="#000000" stroke-width="0.1198" stroke-linecap="round" stroke-linejoin="round" fill="#83FF00"/>
        <path d="M 99.8644,2.7034 L 99.0517,2.7034 L 99.0517,3.0153 L 99.8644,3.0153 L 99.8644,2.7034 Z" stroke="#000000" stroke-width="0.1198" stroke-linecap="round" stroke-linejoin="round" fill="#83FF00"/>
        <path d="M 97.1069,8.7861 L 96.2942,8.7861 L 96.2942,9.0980 L 97.1069,9.0980 L 97.1069,8.7861 Z" stroke="#000000" stroke-width="0.1198" stroke-linecap="round" stroke-linejoin="round" fill="#83FF00"/>
        <path d="M 99.8644,8.7861 L 99.0517,8.7861 L 99.0517,9.0980 L 99.8644,9.0980 L 99.8644,8.7861 Z" stroke="#000000" stroke-width="0.1198" stroke-linecap="round" stroke-linejoin="round" fill="#83FF00"/>
        <path d="M 101.1561,2.7034 L 100.3434,2.7034 L 100.3434,3.0153 L 101.1561,3.0153 L 101.1561,2.7034 Z" stroke="#000000" stroke-width="0.1198" stroke-linecap="round" stroke-linejoin="round" fill="#83FF00"/>
        <path d="M 103.8991,2.7034 L 103.0863,2.7034 L 103.0863,3.0153 L 103.8991,3.0153 L 103.8991,2.7034 Z" stroke="#000000" stroke-width="0.1198" stroke-linecap="round" stroke-linejoin="round" fill="#83FF00"/>
        <path d="M 101.1561,8.7861 L 100.3434,8.7861 L 100.3434,9.0980 L 101.1561,9.0980 L 101.1561,8.7861 Z" stroke="#000000" stroke-width="0.1198" stroke-linecap="round" stroke-linejoin="round" fill="#83FF00"/>
        <path d="M 103.8991,8.7861 L 103.0863,8.7861 L 103.0863,9.0980 L 103.8991,9.0980 L 103.8991,8.7861 Z" stroke="#000000" stroke-width="0.1198" stroke-linecap="round" stroke-linejoin="round" fill="#83FF00"/>
        <path d="M 105.1327,2.7034 L 104.3199,2.7034 L 104.3199,3.0153 L 105.1327,3.0153 L 105.1327,2.7034 Z" stroke="#000000" stroke-width="0.1198" stroke-linecap="round" stroke-linejoin="round" fill="#83FF00"/>
        <path d="M 107.8902,2.7034 L 107.0774,2.7034 L 107.0774,3.0153 L 107.8902,3.0153 L 107.8902,2.7034 Z" stroke="#000000" stroke-width="0.1198" stroke-linecap="round" stroke-linejoin="round" fill="#83FF00"/>
        <path d="M 105.1327,8.7861 L 104.3199,8.7861 L 104.3199,9.0980 L 105.1327,9.0980 L 105.1327,8.7861 Z" stroke="#000000" stroke-width="0.1198" stroke-linecap="round" stroke-linejoin="round" fill="#83FF00"/>
        <path d="M 107.8902,8.7861 L 107.0774,8.7861 L 107.0774,9.0980 L 107.8902,9.0980 L 107.8902,8.7861 Z" stroke="#000000" stroke-width="0.1198" stroke-linecap="round" stroke-linejoin="round" fill="#83FF00"/>
        <path d="M 109.1818,2.7034 L 108.3691,2.7034 L 108.3691,3.0153 L 109.1818,3.0153 L 109.1818,2.7034 Z" stroke="#000000" stroke-width="0.1198" stroke-linecap="round" stroke-linejoin="round" fill="#83FF00"/>
        <path d="M 111.9248,2.7034 L 111.1121,2.7034 L 111.1121,3.0153 L 111.9248,3.0153 L 111.9248,2.7034 Z" stroke="#000000" stroke-width="0.1198" stroke-linecap="round" stroke-linejoin="round" fill="#83FF00"/>
        <path d="M 109.1818,8.7861 L 108.3691,8.7861 L 108.3691,9.0980 L 109.1818,9.0980 L 109.1818,8.7861 Z" stroke="#000000" stroke-width="0.1198" stroke-linecap="round" stroke-linejoin="round" fill="#83FF00"/>
        <path d="M 111.9248,8.7861 L 111.1121,8.7861 L 111.1121,9.0980 L 111.9248,9.0980 L 111.9248,8.7861 Z" stroke="#000000" stroke-width="0.1198" stroke-linecap="round" stroke-linejoin="round" fill="#83FF00"/>
        <path d="M 113.1584,2.7034 L 112.3457,2.7034 L 112.3457,3.0153 L 113.1584,3.0153 L 113.1584,2.7034 Z" stroke="#000000" stroke-width="0.1198" stroke-linecap="round" stroke-linejoin="round" fill="#83FF00"/>
        <path d="M 115.9159,2.7034 L 115.1031,2.7034 L 115.1031,3.0153 L 115.9159,3.0153 L 115.9159,2.7034 Z" stroke="#000000" stroke-width="0.1198" stroke-linecap="round" stroke-linejoin="round" fill="#83FF00"/>
        <path d="M 113.1584,8.7861 L 112.3457,8.7861 L 112.3457,9.0980 L 113.1584,9.0980 L 113.1584,8.7861 Z" stroke="#000000" stroke-width="0.1198" stroke-linecap="round" stroke-linejoin="round" fill="#83FF00"/>
        <path d="M 115.9159,8.7861 L 115.1031,8.7861 L 115.1031,9.0980 L 115.9159,9.0980 L 115.9159,8.7861 Z" stroke="#000000" stroke-width="0.1198" stroke-linecap="round" stroke-linejoin="round" fill="#83FF00"/>
        <path d="M 117.1930,2.7034 L 116.3803,2.7034 L 116.3803,3.0153 L 117.1930,3.0153 L 117.1930,2.7034 Z" stroke="#000000" stroke-width="0.1198" stroke-linecap="round" stroke-linejoin="round" fill="#83FF00"/>
        <path d="M 119.9505,2.7034 L 119.1378,2.7034 L 119.1378,3.0153 L 119.9505,3.0153 L 119.9505,2.7034 Z" stroke="#000000" stroke-width="0.1198" stroke-linecap="round" stroke-linejoin="round" fill="#83FF00"/>
        <path d="M 117.1930,8.7861 L 116.3803,8.7861 L 116.3803,9.0980 L 117.1930,9.0980 L 117.1930,8.7861 Z" stroke="#000000" stroke-width="0.1198" stroke-linecap="round" stroke-linejoin="round" fill="#83FF00"/>
        <path d="M 119.9505,8.7861 L 119.1378,8.7861 L 119.1378,9.0980 L 119.9505,9.0980 L 119.9505,8.7861 Z" stroke="#000000" stroke-width="0.1198" stroke-linecap="round" stroke-linejoin="round" fill="#83FF00"/>
        <path d="M 72.5799,2.7034 L 71.7671,2.7034 L 71.7671,3.0153 L 72.5799,3.0153 L 72.5799,2.7034 Z" stroke="#000000" stroke-width="0.1198" stroke-linecap="round" stroke-linejoin="round" fill="#83FF00"/>
        <path d="M 75.3373,2.7034 L 74.5246,2.7034 L 74.5246,3.0153 L 75.3373,3.0153 L 75.3373,2.7034 Z" stroke="#000000" stroke-width="0.1198" stroke-linecap="round" stroke-linejoin="round" fill="#83FF00"/>
        <path d="M 72.5799,8.7861 L 71.7671,8.7861 L 71.7671,9.0980 L 72.5799,9.0980 L 72.5799,8.7861 Z" stroke="#000000" stroke-width="0.1198" stroke-linecap="round" stroke-linejoin="round" fill="#83FF00"/>
        <path d="M 75.3373,8.7861 L 74.5246,8.7861 L 74.5246,9.0980 L 75.3373,9.0980 L 75.3373,8.7861 Z" stroke="#000000" stroke-width="0.1198" stroke-linecap="round" stroke-linejoin="round" fill="#83FF00"/>
        <path d="M 76.6290,2.7034 L 75.8163,2.7034 L 75.8163,3.0153 L 76.6290,3.0153 L 76.6290,2.7034 Z" stroke="#000000" stroke-width="0.1198" stroke-linecap="round" stroke-linejoin="round" fill="#83FF00"/>
        <path d="M 79.3720,2.7034 L 78.5592,2.7034 L 78.5592,3.0153 L 79.3720,3.0153 L 79.3720,2.7034 Z" stroke="#000000" stroke-width="0.1198" stroke-linecap="round" stroke-linejoin="round" fill="#83FF00"/>
        <path d="M 76.6290,8.7861 L 75.8163,8.7861 L 75.8163,9.0980 L 76.6290,9.0980 L 76.6290,8.7861 Z" stroke="#000000" stroke-width="0.1198" stroke-linecap="round" stroke-linejoin="round" fill="#83FF00"/>
        <path d="M 79.3720,8.7861 L 78.5592,8.7861 L 78.5592,9.0980 L 79.3720,9.0980 L 79.3720,8.7861 Z" stroke="#000000" stroke-width="0.1198" stroke-linecap="round" stroke-linejoin="round" fill="#83FF00"/>
        <path d="M 80.6056,2.7034 L 79.7929,2.7034 L 79.7929,3.0153 L 80.6056,3.0153 L 80.6056,2.7034 Z" stroke="#000000" stroke-width="0.1198" stroke-linecap="round" stroke-linejoin="round" fill="#83FF00"/>
        <path d="M 83.3631,2.7034 L 82.5503,2.7034 L 82.5503,3.0153 L 83.3631,3.0153 L 83.3631,2.7034 Z" stroke="#000000" stroke-width="0.1198" stroke-linecap="round" stroke-linejoin="round" fill="#83FF00"/>
        <path d="M 80.6056,8.7861 L 79.7929,8.7861 L 79.7929,9.0980 L 80.6056,9.0980 L 80.6056,8.7861 Z" stroke="#000000" stroke-width="0.1198" stroke-linecap="round" stroke-linejoin="round" fill="#83FF00"/>
        <path d="M 83.3631,8.7861 L 82.5503,8.7861 L 82.5503,9.0980 L 83.3631,9.0980 L 83.3631,8.7861 Z" stroke="#000000" stroke-width="0.1198" stroke-linecap="round" stroke-linejoin="round" fill="#83FF00"/>
        <path d="M 84.6547,2.7034 L 83.8420,2.7034 L 83.8420,3.0153 L 84.6547,3.0153 L 84.6547,2.7034 Z" stroke="#000000" stroke-width="0.1198" stroke-linecap="round" stroke-linejoin="round" fill="#83FF00"/>
        <path d="M 87.3977,2.7034 L 86.5850,2.7034 L 86.5850,3.0153 L 87.3977,3.0153 L 87.3977,2.7034 Z" stroke="#000000" stroke-width="0.1198" stroke-linecap="round" stroke-linejoin="round" fill="#83FF00"/>
        <path d="M 84.6547,8.7861 L 83.8420,8.7861 L 83.8420,9.0980 L 84.6547,9.0980 L 84.6547,8.7861 Z" stroke="#000000" stroke-width="0.1198" stroke-linecap="round" stroke-linejoin="round" fill="#83FF00"/>
        <path d="M 87.3977,8.7861 L 86.5850,8.7861 L 86.5850,9.0980 L 87.3977,9.0980 L 87.3977,8.7861 Z" stroke="#000000" stroke-width="0.1198" stroke-linecap="round" stroke-linejoin="round" fill="#83FF00"/>
        <path d="M 88.6313,2.7034 L 87.8186,2.7034 L 87.8186,3.0153 L 88.6313,3.0153 L 88.6313,2.7034 Z" stroke="#000000" stroke-width="0.1198" stroke-linecap="round" stroke-linejoin="round" fill="#83FF00"/>
        <path d="M 91.3888,2.7034 L 90.5761,2.7034 L 90.5761,3.0153 L 91.3888,3.0153 L 91.3888,2.7034 Z" stroke="#000000" stroke-width="0.1198" stroke-linecap="round" stroke-linejoin="round" fill="#83FF00"/>
        <path d="M 88.6313,8.7861 L 87.8186,8.7861 L 87.8186,9.0980 L 88.6313,9.0980 L 88.6313,8.7861 Z" stroke="#000000" stroke-width="0.1198" stroke-linecap="round" stroke-linejoin="round" fill="#83FF00"/>
        <path d="M 91.3888,8.7861 L 90.5761,8.7861 L 90.5761,9.0980 L 91.3888,9.0980 L 91.3888,8.7861 Z" stroke="#000000" stroke-width="0.1198" stroke-linecap="round" stroke-linejoin="round" fill="#83FF00"/>
        <path d="M 92.6805,2.7034 L 91.8677,2.7034 L 91.8677,3.0153 L 92.6805,3.0153 L 92.6805,2.7034 Z" stroke="#000000" stroke-width="0.1198" stroke-linecap="round" stroke-linejoin="round" fill="#83FF00"/>
        <path d="M 95.4234,2.7034 L 94.6107,2.7034 L 94.6107,3.0153 L 95.4234,3.0153 L 95.4234,2.7034 Z" stroke="#000000" stroke-width="0.1198" stroke-linecap="round" stroke-linejoin="round" fill="#83FF00"/>
        <path d="M 92.6805,8.7861 L 91.8677,8.7861 L 91.8677,9.0980 L 92.6805,9.0980 L 92.6805,8.7861 Z" stroke="#000000" stroke-width="0.1198" stroke-linecap="round" stroke-linejoin="round" fill="#83FF00"/>
        <path d="M 95.4234,8.7861 L 94.6107,8.7861 L 94.6107,9.0980 L 95.4234,9.0980 L 95.4234,8.7861 Z" stroke="#000000" stroke-width="0.1198" stroke-linecap="round" stroke-linejoin="round" fill="#83FF00"/>
        <path d="M 47.5013,2.7034 L 46.6885,2.7034 L 46.6885,3.0153 L 47.5013,3.0153 L 47.5013,2.7034 Z" stroke="#000000" stroke-width="0.1198" stroke-linecap="round" stroke-linejoin="round" fill="#83FF00"/>
        <path d="M 50.2588,2.7034 L 49.4460,2.7034 L 49.4460,3.0153 L 50.2588,3.0153 L 50.2588,2.7034 Z" stroke="#000000" stroke-width="0.1198" stroke-linecap="round" stroke-linejoin="round" fill="#83FF00"/>
        <path d="M 47.5013,8.7861 L 46.6885,8.7861 L 46.6885,9.0980 L 47.5013,9.0980 L 47.5013,8.7861 Z" stroke="#000000" stroke-width="0.1198" stroke-linecap="round" stroke-linejoin="round" fill="#83FF00"/>
        <path d="M 50.2588,8.7861 L 49.4460,8.7861 L 49.4460,9.0980 L 50.2588,9.0980 L 50.2588,8.7861 Z" stroke="#000000" stroke-width="0.1198" stroke-linecap="round" stroke-linejoin="round" fill="#83FF00"/>
        <path d="M 51.5359,2.7034 L 50.7232,2.7034 L 50.7232,3.0153 L 51.5359,3.0153 L 51.5359,2.7034 Z" stroke="#000000" stroke-width="0.1198" stroke-linecap="round" stroke-linejoin="round" fill="#83FF00"/>
        <path d="M 54.2934,2.7034 L 53.4807,2.7034 L 53.4807,3.0153 L 54.2934,3.0153 L 54.2934,2.7034 Z" stroke="#000000" stroke-width="0.1198" stroke-linecap="round" stroke-linejoin="round" fill="#83FF00"/>
        <path d="M 51.5359,8.7861 L 50.7232,8.7861 L 50.7232,9.0980 L 51.5359,9.0980 L 51.5359,8.7861 Z" stroke="#000000" stroke-width="0.1198" stroke-linecap="round" stroke-linejoin="round" fill="#83FF00"/>
        <path d="M 54.2934,8.7861 L 53.4807,8.7861 L 53.4807,9.0980 L 54.2934,9.0980 L 54.2934,8.7861 Z" stroke="#000000" stroke-width="0.1198" stroke-linecap="round" stroke-linejoin="round" fill="#83FF00"/>
        <path d="M 55.5270,2.7034 L 54.7143,2.7034 L 54.7143,3.0153 L 55.5270,3.0153 L 55.5270,2.7034 Z" stroke="#000000" stroke-width="0.1198" stroke-linecap="round" stroke-linejoin="round" fill="#83FF00"/>
        <path d="M 58.2700,2.7034 L 57.4572,2.7034 L 57.4572,3.0153 L 58.2700,3.0153 L 58.2700,2.7034 Z" stroke="#000000" stroke-width="0.1198" stroke-linecap="round" stroke-linejoin="round" fill="#83FF00"/>
        <path d="M 55.5270,8.7861 L 54.7143,8.7861 L 54.7143,9.0980 L 55.5270,9.0980 L 55.5270,8.7861 Z" stroke="#000000" stroke-width="0.1198" stroke-linecap="round" stroke-linejoin="round" fill="#83FF00"/>
        <path d="M 58.2700,8.7861 L 57.4572,8.7861 L 57.4572,9.0980 L 58.2700,9.0980 L 58.2700,8.7861 Z" stroke="#000000" stroke-width="0.1198" stroke-linecap="round" stroke-linejoin="round" fill="#83FF00"/>
        <path d="M 59.5616,2.7034 L 58.7489,2.7034 L 58.7489,3.0153 L 59.5616,3.0153 L 59.5616,2.7034 Z" stroke="#000000" stroke-width="0.1198" stroke-linecap="round" stroke-linejoin="round" fill="#83FF00"/>
        <path d="M 62.3191,2.7034 L 61.5064,2.7034 L 61.5064,3.0153 L 62.3191,3.0153 L 62.3191,2.7034 Z" stroke="#000000" stroke-width="0.1198" stroke-linecap="round" stroke-linejoin="round" fill="#83FF00"/>
        <path d="M 59.5616,8.7861 L 58.7489,8.7861 L 58.7489,9.0980 L 59.5616,9.0980 L 59.5616,8.7861 Z" stroke="#000000" stroke-width="0.1198" stroke-linecap="round" stroke-linejoin="round" fill="#83FF00"/>
        <path d="M 62.3191,8.7861 L 61.5064,8.7861 L 61.5064,9.0980 L 62.3191,9.0980 L 62.3191,8.7861 Z" stroke="#000000" stroke-width="0.1198" stroke-linecap="round" stroke-linejoin="round" fill="#83FF00"/>
        <path d="M 63.5527,2.7034 L 62.7400,2.7034 L 62.7400,3.0153 L 63.5527,3.0153 L 63.5527,2.7034 Z" stroke="#000000" stroke-width="0.1198" stroke-linecap="round" stroke-linejoin="round" fill="#83FF00"/>
        <path d="M 66.2957,2.7034 L 65.4830,2.7034 L 65.4830,3.0153 L 66.2957,3.0153 L 66.2957,2.7034 Z" stroke="#000000" stroke-width="0.1198" stroke-linecap="round" stroke-linejoin="round" fill="#83FF00"/>
        <path d="M 63.5527,8.7861 L 62.7400,8.7861 L 62.7400,9.0980 L 63.5527,9.0980 L 63.5527,8.7861 Z" stroke="#000000" stroke-width="0.1198" stroke-linecap="round" stroke-linejoin="round" fill="#83FF00"/>
        <path d="M 66.2957,8.7861 L 65.4830,8.7861 L 65.4830,9.0980 L 66.2957,9.0980 L 66.2957,8.7861 Z" stroke="#000000" stroke-width="0.1198" stroke-linecap="round" stroke-linejoin="round" fill="#83FF00"/>
        <path d="M 67.5874,2.7034 L 66.7746,2.7034 L 66.7746,3.0153 L 67.5874,3.0153 L 67.5874,2.7034 Z" stroke="#000000" stroke-width="0.1198" stroke-linecap="round" stroke-linejoin="round" fill="#83FF00"/>
        <path d="M 70.3448,2.7034 L 69.5321,2.7034 L 69.5321,3.0153 L 70.3448,3.0153 L 70.3448,2.7034 Z" stroke="#000000" stroke-width="0.1198" stroke-linecap="round" stroke-linejoin="round" fill="#83FF00"/>
        <path d="M 67.5874,8.7861 L 66.7746,8.7861 L 66.7746,9.0980 L 67.5874,9.0980 L 67.5874,8.7861 Z" stroke="#000000" stroke-width="0.1198" stroke-linecap="round" stroke-linejoin="round" fill="#83FF00"/>
        <path d="M 70.3448,8.7861 L 69.5321,8.7861 L 69.5321,9.0980 L 70.3448,9.0980 L 70.3448,8.7861 Z" stroke="#000000" stroke-width="0.1198" stroke-linecap="round" stroke-linejoin="round" fill="#83FF00"/>
        <path d="M 22.9742,2.7034 L 22.1615,2.7034 L 22.1615,3.0153 L 22.9742,3.0153 L 22.9742,2.7034 Z" stroke="#000000" stroke-width="0.1198" stroke-linecap="round" stroke-linejoin="round" fill="#83FF00"/>
        <path d="M 25.7317,2.7034 L 24.9189,2.7034 L 24.9189,3.0153 L 25.7317,3.0153 L 25.7317,2.7034 Z" stroke="#000000" stroke-width="0.1198" stroke-linecap="round" stroke-linejoin="round" fill="#83FF00"/>
        <path d="M 22.9742,8.7861 L 22.1615,8.7861 L 22.1615,9.0980 L 22.9742,9.0980 L 22.9742,8.7861 Z" stroke="#000000" stroke-width="0.1198" stroke-linecap="round" stroke-linejoin="round" fill="#83FF00"/>
        <path d="M 25.7317,8.7861 L 24.9189,8.7861 L 24.9189,9.0980 L 25.7317,9.0980 L 25.7317,8.7861 Z" stroke="#000000" stroke-width="0.1198" stroke-linecap="round" stroke-linejoin="round" fill="#83FF00"/>
        <path d="M 27.0233,2.7034 L 26.2106,2.7034 L 26.2106,3.0153 L 27.0233,3.0153 L 27.0233,2.7034 Z" stroke="#000000" stroke-width="0.1198" stroke-linecap="round" stroke-linejoin="round" fill="#83FF00"/>
        <path d="M 29.7663,2.7034 L 28.9536,2.7034 L 28.9536,3.0153 L 29.7663,3.0153 L 29.7663,2.7034 Z" stroke="#000000" stroke-width="0.1198" stroke-linecap="round" stroke-linejoin="round" fill="#83FF00"/>
        <path d="M 27.0233,8.7861 L 26.2106,8.7861 L 26.2106,9.0980 L 27.0233,9.0980 L 27.0233,8.7861 Z" stroke="#000000" stroke-width="0.1198" stroke-linecap="round" stroke-linejoin="round" fill="#83FF00"/>
        <path d="M 29.7663,8.7861 L 28.9536,8.7861 L 28.9536,9.0980 L 29.7663,9.0980 L 29.7663,8.7861 Z" stroke="#000000" stroke-width="0.1198" stroke-linecap="round" stroke-linejoin="round" fill="#83FF00"/>
        <path d="M 30.9999,2.7034 L 30.1872,2.7034 L 30.1872,3.0153 L 30.9999,3.0153 L 30.9999,2.7034 Z" stroke="#000000" stroke-width="0.1198" stroke-linecap="round" stroke-linejoin="round" fill="#83FF00"/>
        <path d="M 33.7574,2.7034 L 32.9447,2.7034 L 32.9447,3.0153 L 33.7574,3.0153 L 33.7574,2.7034 Z" stroke="#000000" stroke-width="0.1198" stroke-linecap="round" stroke-linejoin="round" fill="#83FF00"/>
        <path d="M 30.9999,8.7861 L 30.1872,8.7861 L 30.1872,9.0980 L 30.9999,9.0980 L 30.9999,8.7861 Z" stroke="#000000" stroke-width="0.1198" stroke-linecap="round" stroke-linejoin="round" fill="#83FF00"/>
        <path d="M 33.7574,8.7861 L 32.9447,8.7861 L 32.9447,9.0980 L 33.7574,9.0980 L 33.7574,8.7861 Z" stroke="#000000" stroke-width="0.1198" stroke-linecap="round" stroke-linejoin="round" fill="#83FF00"/>
        <path d="M 35.0491,2.7034 L 34.2363,2.7034 L 34.2363,3.0153 L 35.0491,3.0153 L 35.0491,2.7034 Z" stroke="#000000" stroke-width="0.1198" stroke-linecap="round" stroke-linejoin="round" fill="#83FF00"/>
        <path d="M 37.7920,2.7034 L 36.9793,2.7034 L 36.9793,3.0153 L 37.7920,3.0153 L 37.7920,2.7034 Z" stroke="#000000" stroke-width="0.1198" stroke-linecap="round" stroke-linejoin="round" fill="#83FF00"/>
        <path d="M 35.0491,8.7861 L 34.2363,8.7861 L 34.2363,9.0980 L 35.0491,9.0980 L 35.0491,8.7861 Z" stroke="#000000" stroke-width="0.1198" stroke-linecap="round" stroke-linejoin="round" fill="#83FF00"/>
        <path d="M 37.7920,8.7861 L 36.9793,8.7861 L 36.9793,9.0980 L 37.7920,9.0980 L 37.7920,8.7861 Z" stroke="#000000" stroke-width="0.1198" stroke-linecap="round" stroke-linejoin="round" fill="#83FF00"/>
        <path d="M 39.0256,2.7034 L 38.2129,2.7034 L 38.2129,3.0153 L 39.0256,3.0153 L 39.0256,2.7034 Z" stroke="#000000" stroke-width="0.1198" stroke-linecap="round" stroke-linejoin="round" fill="#83FF00"/>
        <path d="M 41.7831,2.7034 L 40.9704,2.7034 L 40.9704,3.0153 L 41.7831,3.0153 L 41.7831,2.7034 Z" stroke="#000000" stroke-width="0.1198" stroke-linecap="round" stroke-linejoin="round" fill="#83FF00"/>
        <path d="M 39.0256,8.7861 L 38.2129,8.7861 L 38.2129,9.0980 L 39.0256,9.0980 L 39.0256,8.7861 Z" stroke="#000000" stroke-width="0.1198" stroke-linecap="round" stroke-linejoin="round" fill="#83FF00"/>
        <path d="M 41.7831,8.7861 L 40.9704,8.7861 L 40.9704,9.0980 L 41.7831,9.0980 L 41.7831,8.7861 Z" stroke="#000000" stroke-width="0.1198" stroke-linecap="round" stroke-linejoin="round" fill="#83FF00"/>
        <path d="M 43.0748,2.7034 L 42.2621,2.7034 L 42.2621,3.0153 L 43.0748,3.0153 L 43.0748,2.7034 Z" stroke="#000000" stroke-width="0.1198" stroke-linecap="round" stroke-linejoin="round" fill="#83FF00"/>
        <path d="M 45.8178,2.7034 L 45.0050,2.7034 L 45.0050,3.0153 L 45.8178,3.0153 L 45.8178,2.7034 Z" stroke="#000000" stroke-width="0.1198" stroke-linecap="round" stroke-linejoin="round" fill="#83FF00"/>
        <path d="M 43.0748,8.7861 L 42.2621,8.7861 L 42.2621,9.0980 L 43.0748,9.0980 L 43.0748,8.7861 Z" stroke="#000000" stroke-width="0.1198" stroke-linecap="round" stroke-linejoin="round" fill="#83FF00"/>
        <path d="M 45.8178,8.7861 L 45.0050,8.7861 L 45.0050,9.0980 L 45.8178,9.0980 L 45.8178,8.7861 Z" stroke="#000000" stroke-width="0.1198" stroke-linecap="round" stroke-linejoin="round" fill="#83FF00"/>
        <text font-family="Arial" fill="#000000" style="white-space:pre;" font-weight="400" text-anchor="start" x="52.5228" y="10.0216" font-size="0.1742"><![CDATA[1]]></text>
        <text font-family="Arial" fill="#000000" style="white-space:pre;" font-weight="400" text-anchor="start" x="53.5677" y="10.0216" font-size="0.1742"><![CDATA[3]]></text>
        <text font-family="Arial" fill="#000000" style="white-space:pre;" font-weight="400" text-anchor="start" x="54.5982" y="10.0216" font-size="0.1742"><![CDATA[5]]></text>
        <text font-family="Arial" fill="#000000" style="white-space:pre;" font-weight="400" text-anchor="start" x="55.6431" y="10.0216" font-size="0.1742"><![CDATA[7]]></text>
        <text font-family="Arial" fill="#000000" style="white-space:pre;" font-weight="400" text-anchor="start" x="56.6735" y="10.0216" font-size="0.1742"><![CDATA[9]]></text>
        <text font-family="Arial" fill="#000000" style="white-space:pre;" font-weight="400" text-anchor="start" x="57.6749" y="10.0216" font-size="0.1742"><![CDATA[11]]></text>
        <text font-family="Arial" fill="#000000" style="white-space:pre;" font-weight="400" text-anchor="start" x="58.8360" y="10.0216" font-size="0.1742"><![CDATA[13]]></text>
        <text font-family="Arial" fill="#000000" style="white-space:pre;" font-weight="400" text-anchor="start" x="59.8809" y="10.0216" font-size="0.1742"><![CDATA[15]]></text>
        <text font-family="Arial" fill="#000000" style="white-space:pre;" font-weight="400" text-anchor="start" x="60.9113" y="10.0216" font-size="0.1742"><![CDATA[17]]></text>
        <text font-family="Arial" fill="#000000" style="white-space:pre;" font-weight="400" text-anchor="start" x="61.9563" y="10.0216" font-size="0.1742"><![CDATA[19]]></text>
        <text font-family="Arial" fill="#000000" style="white-space:pre;" font-weight="400" text-anchor="start" x="62.9867" y="10.0216" font-size="0.1742"><![CDATA[21]]></text>
        <text font-family="Arial" fill="#000000" style="white-space:pre;" font-weight="400" text-anchor="start" x="64.0317" y="10.0216" font-size="0.1742"><![CDATA[23]]></text>
        <text font-family="Arial" fill="#000000" style="white-space:pre;" font-weight="400" text-anchor="start" x="65.3088" y="10.0216" font-size="0.1742"><![CDATA[25]]></text>
        <text font-family="Arial" fill="#000000" style="white-space:pre;" font-weight="400" text-anchor="start" x="66.3537" y="10.0216" font-size="0.1742"><![CDATA[27]]></text>
        <text font-family="Arial" fill="#000000" style="white-space:pre;" font-weight="400" text-anchor="start" x="67.3842" y="10.0216" font-size="0.1742"><![CDATA[29]]></text>
        <text font-family="Arial" fill="#000000" style="white-space:pre;" font-weight="400" text-anchor="start" x="68.4291" y="10.0216" font-size="0.1742"><![CDATA[31]]></text>
        <text font-family="Arial" fill="#000000" style="white-space:pre;" font-weight="400" text-anchor="start" x="69.4595" y="10.0216" font-size="0.1742"><![CDATA[33]]></text>
        <text font-family="Arial" fill="#000000" style="white-space:pre;" font-weight="400" text-anchor="start" x="70.5045" y="10.0216" font-size="0.1742"><![CDATA[35]]></text>
        <text font-family="Arial" fill="#000000" style="white-space:pre;" font-weight="400" text-anchor="start" x="71.6510" y="10.0216" font-size="0.1742"><![CDATA[37]]></text>
        <text font-family="Arial" fill="#000000" style="white-space:pre;" font-weight="400" text-anchor="start" x="72.6960" y="10.0216" font-size="0.1742"><![CDATA[39]]></text>
        <text font-family="Arial" fill="#000000" style="white-space:pre;" font-weight="400" text-anchor="start" x="73.7264" y="10.0216" font-size="0.1742"><![CDATA[41]]></text>
        <text font-family="Arial" fill="#000000" style="white-space:pre;" font-weight="400" text-anchor="start" x="74.7713" y="10.0216" font-size="0.1742"><![CDATA[43]]></text>
        <text font-family="Arial" fill="#000000" style="white-space:pre;" font-weight="400" text-anchor="start" x="75.8018" y="10.0216" font-size="0.1742"><![CDATA[45]]></text>
        <text font-family="Arial" fill="#000000" style="white-space:pre;" font-weight="400" text-anchor="start" x="76.8467" y="10.0216" font-size="0.1742"><![CDATA[47]]></text>
        <text font-family="Arial" fill="#000000" style="white-space:pre;" font-weight="400" text-anchor="start" x="52.5228" y="11.9321" font-size="0.1742"><![CDATA[2]]></text>
        <text font-family="Arial" fill="#000000" style="white-space:pre;" font-weight="400" text-anchor="start" x="53.5677" y="11.9321" font-size="0.1742"><![CDATA[4]]></text>
        <text font-family="Arial" fill="#000000" style="white-space:pre;" font-weight="400" text-anchor="start" x="54.5982" y="11.9321" font-size="0.1742"><![CDATA[6]]></text>
        <text font-family="Arial" fill="#000000" style="white-space:pre;" font-weight="400" text-anchor="start" x="55.6431" y="11.9321" font-size="0.1742"><![CDATA[8]]></text>
        <text font-family="Arial" fill="#000000" style="white-space:pre;" font-weight="400" text-anchor="start" x="56.6300" y="11.9321" font-size="0.1742"><![CDATA[10]]></text>
        <text font-family="Arial" fill="#000000" style="white-space:pre;" font-weight="400" text-anchor="start" x="57.6749" y="11.9321" font-size="0.1742"><![CDATA[12]]></text>
        <text font-family="Arial" fill="#000000" style="white-space:pre;" font-weight="400" text-anchor="start" x="58.8360" y="11.9321" font-size="0.1742"><![CDATA[14]]></text>
        <text font-family="Arial" fill="#000000" style="white-space:pre;" font-weight="400" text-anchor="start" x="59.8809" y="11.9321" font-size="0.1742"><![CDATA[16]]></text>
        <text font-family="Arial" fill="#000000" style="white-space:pre;" font-weight="400" text-anchor="start" x="60.9113" y="11.9321" font-size="0.1742"><![CDATA[18]]></text>
        <text font-family="Arial" fill="#000000" style="white-space:pre;" font-weight="400" text-anchor="start" x="61.9563" y="11.9321" font-size="0.1742"><![CDATA[20]]></text>
        <text font-family="Arial" fill="#000000" style="white-space:pre;" font-weight="400" text-anchor="start" x="62.9867" y="11.9321" font-size="0.1742"><![CDATA[22]]></text>
        <text font-family="Arial" fill="#000000" style="white-space:pre;" font-weight="400" text-anchor="start" x="64.0317" y="11.9321" font-size="0.1742"><![CDATA[24]]></text>
        <text font-family="Arial" fill="#000000" style="white-space:pre;" font-weight="400" text-anchor="start" x="65.3088" y="11.9321" font-size="0.1742"><![CDATA[26]]></text>
        <text font-family="Arial" fill="#000000" style="white-space:pre;" font-weight="400" text-anchor="start" x="66.3537" y="11.9321" font-size="0.1742"><![CDATA[28]]></text>
        <text font-family="Arial" fill="#000000" style="white-space:pre;" font-weight="400" text-anchor="start" x="67.3842" y="11.9321" font-size="0.1742"><![CDATA[30]]></text>
        <text font-family="Arial" fill="#000000" style="white-space:pre;" font-weight="400" text-anchor="start" x="68.4291" y="11.9321" font-size="0.1742"><![CDATA[32]]></text>
        <text font-family="Arial" fill="#000000" style="white-space:pre;" font-weight="400" text-anchor="start" x="69.4595" y="11.9321" font-size="0.1742"><![CDATA[34]]></text>
        <text font-family="Arial" fill="#000000" style="white-space:pre;" font-weight="400" text-anchor="start" x="70.5045" y="11.9321" font-size="0.1742"><![CDATA[36]]></text>
        <text font-family="Arial" fill="#000000" style="white-space:pre;" font-weight="400" text-anchor="start" x="71.6510" y="11.9321" font-size="0.1742"><![CDATA[38]]></text>
        <text font-family="Arial" fill="#000000" style="white-space:pre;" font-weight="400" text-anchor="start" x="72.6960" y="11.9321" font-size="0.1742"><![CDATA[40]]></text>
        <text font-family="Arial" fill="#000000" style="white-space:pre;" font-weight="400" text-anchor="start" x="73.7264" y="11.9321" font-size="0.1742"><![CDATA[42]]></text>
        <text font-family="Arial" fill="#000000" style="white-space:pre;" font-weight="400" text-anchor="start" x="74.7713" y="11.9321" font-size="0.1742"><![CDATA[44]]></text>
        <text font-family="Arial" fill="#000000" style="white-space:pre;" font-weight="400" text-anchor="start" x="75.8018" y="11.9321" font-size="0.1742"><![CDATA[46]]></text>
        <text font-family="Arial" fill="#000000" style="white-space:pre;" font-weight="400" text-anchor="start" x="76.8467" y="11.9321" font-size="0.1742"><![CDATA[48]]></text>
        <text font-family="Arial" fill="#FF0000" style="white-space:pre;" font-weight="400" text-anchor="start" x="71.0270" y="9.8916" font-size="0.1742"><![CDATA[PoE]]></text>
        <path d="M 13.5162,8.5054 L 13.5162,8.4418 L 13.5366,8.4418 L 13.5366,8.3994 L 13.5571,8.3782 L 13.5571,8.3570 L 13.5775,8.3570 L 13.5775,8.3358 L 13.5980,8.3358 L 13.5980,8.3146 L 13.6184,8.3146 L 13.6389,8.2933 L 13.6593,8.2933 L 13.6797,8.2721 L 15.7246,8.2721 L 15.7450,8.2933 L 15.7655,8.2933 L 15.7859,8.3146 L 15.8063,8.3146 L 15.8063,8.3358 L 15.8268,8.3358 L 15.8268,8.3570 L 15.8472,8.3570 L 15.8472,8.3782 L 15.8677,8.3994 L 15.8677,8.4418 L 15.8881,8.4418 L 15.8881,8.8872 L 15.7246,9.0569 L 15.7246,9.3963 L 15.7041,9.4175 L 15.7041,9.4387 L 15.6837,9.4387 L 15.6837,9.4599 L 15.6632,9.4599 L 15.6632,9.4811 L 15.6428,9.4811 L 15.6428,9.5023 L 15.6019,9.5023 L 15.6019,9.5236 L 13.8024,9.5236 L 13.8024,9.5023 L 13.7615,9.5023 L 13.7615,9.4811 L 13.7411,9.4811 L 13.7411,9.4599 L 13.7206,9.4599 L 13.7206,9.4387 L 13.7002,9.4387 L 13.7002,9.4175 L 13.6797,9.3963 L 13.6797,9.0569 L 13.5162,8.8872 L 13.5162,8.5267 L 13.5162,8.5054 Z" stroke="#7F7F7F" stroke-width="0.1198" stroke-linecap="round" stroke-linejoin="round" fill="#BFBFBF"/>
        <path d="M 15.8063,8.8660 L 15.6428,9.0357 L 15.6428,9.3539 L 15.6223,9.3751 L 15.6223,9.3963 L 15.6019,9.3963 L 15.5814,9.4175 L 15.5610,9.4175 L 15.5405,9.4387 L 13.8638,9.4387 L 13.8638,9.4175 L 13.8229,9.4175 L 13.8024,9.3963 L 13.7820,9.3963 L 13.7820,9.3751 L 13.7615,9.3539 L 13.7615,9.0357 L 13.5980,8.8660 L 13.5980,8.5054 L 13.6184,8.5054 L 13.6184,8.4630 L 13.6389,8.4630 L 13.6389,8.4206 L 13.6593,8.4206 L 13.6593,8.3994 L 13.7002,8.3994 L 13.7002,8.3782 L 13.7206,8.3782 L 13.7411,8.3570 L 15.6632,8.3570 L 15.6837,8.3782 L 15.7041,8.3782 L 15.7041,8.3994 L 15.7450,8.3994 L 15.7450,8.4206 L 15.7655,8.4206 L 15.7655,8.4630 L 15.7859,8.4630 L 15.7859,8.5054 L 15.8063,8.5054 L 15.8063,8.8448 L 15.8063,8.8660 Z" stroke="#000000" stroke-width="0.1198" stroke-linecap="round" stroke-linejoin="round" fill="#161616"/>
        <path d="M 15.4996,8.9509 L 15.4996,8.9084 L 15.4792,8.8660 L 15.4383,8.8448 L 13.9865,8.8448 L 13.9456,8.8660 L 13.9251,8.9084 L 13.9251,9.2478 L 13.9456,9.2902 L 13.9865,9.3114 L 15.4383,9.3114 L 15.4792,9.2902 L 15.4996,9.2478 L 15.4996,9.2054 L 15.4996,8.9509 Z" stroke="#000000" stroke-width="0.1198" stroke-linecap="round" stroke-linejoin="round" fill="#CCCCCC"/>
        <path d="M 14.2932,8.7812 L 14.0887,8.7812 L 14.0887,8.8448 L 14.2932,8.8448 L 14.2932,8.7812 Z" stroke="#000000" stroke-width="0.1198" stroke-linecap="round" stroke-linejoin="round" fill="#D6D6B1"/>
        <path d="M 14.6204,8.7812 L 14.4159,8.7812 L 14.4159,8.8448 L 14.6204,8.8448 L 14.6204,8.7812 Z" stroke="#000000" stroke-width="0.1198" stroke-linecap="round" stroke-linejoin="round" fill="#D6D6B1"/>
        <path d="M 14.9680,8.7812 L 14.7635,8.7812 L 14.7635,8.8448 L 14.9680,8.8448 L 14.9680,8.7812 Z" stroke="#000000" stroke-width="0.1198" stroke-linecap="round" stroke-linejoin="round" fill="#D6D6B1"/>
        <path d="M 15.2951,8.7812 L 15.0907,8.7812 L 15.0907,8.8448 L 15.2951,8.8448 L 15.2951,8.7812 Z" stroke="#000000" stroke-width="0.1198" stroke-linecap="round" stroke-linejoin="round" fill="#D6D6B1"/>
        <path d="M 18.3501,2.4712 L 18.3501,2.6239 L 18.1256,2.6239 L 18.1256,3.0543 L 17.1856,3.0543 L 17.1856,3.0960 L 16.8910,3.0960 L 16.8910,2.6239 L 16.9472,2.6239 L 16.9472,3.0543 L 17.1856,3.0543 L 17.1856,4.0123 L 17.2839,4.0123 L 17.2839,4.5121 L 17.1856,4.5121 L 17.1856,5.5950 L 20.7771,5.5950 L 20.7771,4.5121 L 20.6789,4.5121 L 20.6789,4.0123 L 20.7771,4.0123 L 20.7771,3.0543 L 21.0156,3.0543 L 21.0156,2.6239 L 21.0717,2.6239 L 21.0717,3.0960 L 20.7771,3.0960 L 20.7771,3.0543 L 19.8371,3.0543 L 19.8371,2.6239 L 19.6127,2.6239 L 19.6127,2.4712 L 18.3501,2.4712 Z" stroke="#000000" stroke-width="0.1198" stroke-linecap="round" stroke-linejoin="round" fill="#000000"/>
        <path d="M 18.1256,2.6378 L 16.9472,2.6378 L 16.9472,3.0682 L 18.1256,3.0682 L 18.1256,2.6378 Z" stroke="#494949" stroke-width="0.1198" stroke-linecap="round" stroke-linejoin="round" fill="#000000"/>
        <path d="M 21.0156,2.6378 L 19.8371,2.6378 L 19.8371,3.0682 L 21.0156,3.0682 L 21.0156,2.6378 Z" stroke="#494949" stroke-width="0.1198" stroke-linecap="round" stroke-linejoin="round" fill="#000000"/>
        <path d="M 18.3501,9.3712 L 18.3501,9.2185 L 18.1256,9.2185 L 18.1256,8.7881 L 17.1856,8.7881 L 17.1856,8.7465 L 16.8910,8.7465 L 16.8910,9.2185 L 16.9472,9.2185 L 16.9472,8.7881 L 17.1856,8.7881 L 17.1856,7.8302 L 17.2839,7.8302 L 17.2839,7.3304 L 17.1856,7.3304 L 17.1856,6.2475 L 20.7771,6.2475 L 20.7771,7.3304 L 20.6789,7.3304 L 20.6789,7.8302 L 20.7771,7.8302 L 20.7771,8.7881 L 21.0156,8.7881 L 21.0156,9.2185 L 21.0717,9.2185 L 21.0717,8.7465 L 20.7771,8.7465 L 20.7771,8.7881 L 19.8371,8.7881 L 19.8371,9.2185 L 19.6127,9.2185 L 19.6127,9.3712 L 18.3501,9.3712 Z" stroke="#000000" stroke-width="0.1198" stroke-linecap="round" stroke-linejoin="round" fill="#000000"/>
        <path d="M 18.1256,8.7881 L 16.9472,8.7881 L 16.9472,9.2185 L 18.1256,9.2185 L 18.1256,8.7881 Z" stroke="#494949" stroke-width="0.1198" stroke-linecap="round" stroke-linejoin="round" fill="#000000"/>
        <path d="M 21.0156,8.7881 L 19.8371,8.7881 L 19.8371,9.2185 L 21.0156,9.2185 L 21.0156,8.7881 Z" stroke="#494949" stroke-width="0.1198" stroke-linecap="round" stroke-linejoin="round" fill="#000000"/>
        <path d="M 22.1610,5.5950 L 22.1610,3.4708 L 23.0519,3.4708 L 23.0519,2.9710 L 23.4138,2.9710 L 23.4138,2.4712 L 24.4717,2.4712 L 24.4717,2.9710 L 24.8337,2.9710 L 24.8337,3.4708 L 25.7246,3.4708 L 25.7246,5.5950 L 22.1610,5.5950 Z" stroke="#161616" stroke-width="0.1198" stroke-linecap="round" stroke-linejoin="round" fill="#000000"/>
        <path d="M 22.1610,6.2475 L 22.1610,8.3716 L 23.0519,8.3716 L 23.0519,8.8714 L 23.4138,8.8714 L 23.4138,9.3712 L 24.4717,9.3712 L 24.4717,8.8714 L 24.8337,8.8714 L 24.8337,8.3716 L 25.7246,8.3716 L 25.7246,6.2475 L 22.1610,6.2475 Z" stroke="#161616" stroke-width="0.1198" stroke-linecap="round" stroke-linejoin="round" fill="#000000"/>
        <path d="M 26.2118,5.5950 L 26.2118,3.4708 L 27.1027,3.4708 L 27.1027,2.9710 L 27.4646,2.9710 L 27.4646,2.4712 L 28.5225,2.4712 L 28.5225,2.9710 L 28.8844,2.9710 L 28.8844,3.4708 L 29.7753,3.4708 L 29.7753,5.5950 L 26.2118,5.5950 Z" stroke="#161616" stroke-width="0.1198" stroke-linecap="round" stroke-linejoin="round" fill="#000000"/>
        <path d="M 26.2118,6.2475 L 26.2118,8.3716 L 27.1027,8.3716 L 27.1027,8.8714 L 27.4646,8.8714 L 27.4646,9.3712 L 28.5225,9.3712 L 28.5225,8.8714 L 28.8844,8.8714 L 28.8844,8.3716 L 29.7753,8.3716 L 29.7753,6.2475 L 26.2118,6.2475 Z" stroke="#161616" stroke-width="0.1198" stroke-linecap="round" stroke-linejoin="round" fill="#000000"/>
        <path d="M 30.1929,5.5950 L 30.1929,3.4708 L 31.0838,3.4708 L 31.0838,2.9710 L 31.4458,2.9710 L 31.4458,2.4712 L 32.5037,2.4712 L 32.5037,2.9710 L 32.8656,2.9710 L 32.8656,3.4708 L 33.7565,3.4708 L 33.7565,5.5950 L 30.1929,5.5950 Z" stroke="#161616" stroke-width="0.1198" stroke-linecap="round" stroke-linejoin="round" fill="#000000"/>
        <path d="M 30.1929,6.2475 L 30.1929,8.3716 L 31.0838,8.3716 L 31.0838,8.8714 L 31.4458,8.8714 L 31.4458,9.3712 L 32.5037,9.3712 L 32.5037,8.8714 L 32.8656,8.8714 L 32.8656,8.3716 L 33.7565,8.3716 L 33.7565,6.2475 L 30.1929,6.2475 Z" stroke="#161616" stroke-width="0.1198" stroke-linecap="round" stroke-linejoin="round" fill="#000000"/>
        <path d="M 34.2298,5.5950 L 34.2298,3.4708 L 35.1207,3.4708 L 35.1207,2.9710 L 35.4826,2.9710 L 35.4826,2.4712 L 36.5406,2.4712 L 36.5406,2.9710 L 36.9025,2.9710 L 36.9025,3.4708 L 37.7934,3.4708 L 37.7934,5.5950 L 34.2298,5.5950 Z" stroke="#161616" stroke-width="0.1198" stroke-linecap="round" stroke-linejoin="round" fill="#000000"/>
        <path d="M 34.2298,6.2475 L 34.2298,8.3716 L 35.1207,8.3716 L 35.1207,8.8714 L 35.4826,8.8714 L 35.4826,9.3712 L 36.5406,9.3712 L 36.5406,8.8714 L 36.9025,8.8714 L 36.9025,8.3716 L 37.7934,8.3716 L 37.7934,6.2475 L 34.2298,6.2475 Z" stroke="#161616" stroke-width="0.1198" stroke-linecap="round" stroke-linejoin="round" fill="#000000"/>
        <path d="M 38.2110,5.5950 L 38.2110,3.4708 L 39.1019,3.4708 L 39.1019,2.9710 L 39.4638,2.9710 L 39.4638,2.4712 L 40.5217,2.4712 L 40.5217,2.9710 L 40.8837,2.9710 L 40.8837,3.4708 L 41.7746,3.4708 L 41.7746,5.5950 L 38.2110,5.5950 Z" stroke="#161616" stroke-width="0.1198" stroke-linecap="round" stroke-linejoin="round" fill="#000000"/>
        <path d="M 38.2110,6.2475 L 38.2110,8.3716 L 39.1019,8.3716 L 39.1019,8.8714 L 39.4638,8.8714 L 39.4638,9.3712 L 40.5217,9.3712 L 40.5217,8.8714 L 40.8837,8.8714 L 40.8837,8.3716 L 41.7746,8.3716 L 41.7746,6.2475 L 38.2110,6.2475 Z" stroke="#161616" stroke-width="0.1198" stroke-linecap="round" stroke-linejoin="round" fill="#000000"/>
        <path d="M 42.2618,5.5950 L 42.2618,3.4708 L 43.1527,3.4708 L 43.1527,2.9710 L 43.5146,2.9710 L 43.5146,2.4712 L 44.5725,2.4712 L 44.5725,2.9710 L 44.9345,2.9710 L 44.9345,3.4708 L 45.8253,3.4708 L 45.8253,5.5950 L 42.2618,5.5950 Z" stroke="#161616" stroke-width="0.1198" stroke-linecap="round" stroke-linejoin="round" fill="#000000"/>
        <path d="M 42.2618,6.2475 L 42.2618,8.3716 L 43.1527,8.3716 L 43.1527,8.8714 L 43.5146,8.8714 L 43.5146,9.3712 L 44.5725,9.3712 L 44.5725,8.8714 L 44.9345,8.8714 L 44.9345,8.3716 L 45.8253,8.3716 L 45.8253,6.2475 L 42.2618,6.2475 Z" stroke="#161616" stroke-width="0.1198" stroke-linecap="round" stroke-linejoin="round" fill="#000000"/>
        <path d="M 46.6884,5.5950 L 46.6884,3.4708 L 47.5793,3.4708 L 47.5793,2.9710 L 47.9412,2.9710 L 47.9412,2.4712 L 48.9992,2.4712 L 48.9992,2.9710 L 49.3611,2.9710 L 49.3611,3.4708 L 50.2520,3.4708 L 50.2520,5.5950 L 46.6884,5.5950 Z" stroke="#161616" stroke-width="0.1198" stroke-linecap="round" stroke-linejoin="round" fill="#000000"/>
        <path d="M 46.6884,6.2475 L 46.6884,8.3716 L 47.5793,8.3716 L 47.5793,8.8714 L 47.9412,8.8714 L 47.9412,9.3712 L 48.9992,9.3712 L 48.9992,8.8714 L 49.3611,8.8714 L 49.3611,8.3716 L 50.2520,8.3716 L 50.2520,6.2475 L 46.6884,6.2475 Z" stroke="#161616" stroke-width="0.1198" stroke-linecap="round" stroke-linejoin="round" fill="#000000"/>
        <path d="M 50.7253,5.5950 L 50.7253,3.4708 L 51.6162,3.4708 L 51.6162,2.9710 L 51.9781,2.9710 L 51.9781,2.4712 L 53.0360,2.4712 L 53.0360,2.9710 L 53.3979,2.9710 L 53.3979,3.4708 L 54.2888,3.4708 L 54.2888,5.5950 L 50.7253,5.5950 Z" stroke="#161616" stroke-width="0.1198" stroke-linecap="round" stroke-linejoin="round" fill="#000000"/>
        <path d="M 50.7253,6.2475 L 50.7253,8.3716 L 51.6162,8.3716 L 51.6162,8.8714 L 51.9781,8.8714 L 51.9781,9.3712 L 53.0360,9.3712 L 53.0360,8.8714 L 53.3979,8.8714 L 53.3979,8.3716 L 54.2888,8.3716 L 54.2888,6.2475 L 50.7253,6.2475 Z" stroke="#161616" stroke-width="0.1198" stroke-linecap="round" stroke-linejoin="round" fill="#000000"/>
        <path d="M 54.7064,5.5950 L 54.7064,3.4708 L 55.5973,3.4708 L 55.5973,2.9710 L 55.9593,2.9710 L 55.9593,2.4712 L 57.0172,2.4712 L 57.0172,2.9710 L 57.3791,2.9710 L 57.3791,3.4708 L 58.2700,3.4708 L 58.2700,5.5950 L 54.7064,5.5950 Z" stroke="#161616" stroke-width="0.1198" stroke-linecap="round" stroke-linejoin="round" fill="#000000"/>
        <path d="M 54.7064,6.2475 L 54.7064,8.3716 L 55.5973,8.3716 L 55.5973,8.8714 L 55.9593,8.8714 L 55.9593,9.3712 L 57.0172,9.3712 L 57.0172,8.8714 L 57.3791,8.8714 L 57.3791,8.3716 L 58.2700,8.3716 L 58.2700,6.2475 L 54.7064,6.2475 Z" stroke="#161616" stroke-width="0.1198" stroke-linecap="round" stroke-linejoin="round" fill="#000000"/>
        <path d="M 58.7572,5.5950 L 58.7572,3.4708 L 59.6481,3.4708 L 59.6481,2.9710 L 60.0100,2.9710 L 60.0100,2.4712 L 61.0680,2.4712 L 61.0680,2.9710 L 61.4299,2.9710 L 61.4299,3.4708 L 62.3208,3.4708 L 62.3208,5.5950 L 58.7572,5.5950 Z" stroke="#161616" stroke-width="0.1198" stroke-linecap="round" stroke-linejoin="round" fill="#000000"/>
        <path d="M 58.7572,6.2475 L 58.7572,8.3716 L 59.6481,8.3716 L 59.6481,8.8714 L 60.0100,8.8714 L 60.0100,9.3712 L 61.0680,9.3712 L 61.0680,8.8714 L 61.4299,8.8714 L 61.4299,8.3716 L 62.3208,8.3716 L 62.3208,6.2475 L 58.7572,6.2475 Z" stroke="#161616" stroke-width="0.1198" stroke-linecap="round" stroke-linejoin="round" fill="#000000"/>
        <path d="M 62.7384,5.5950 L 62.7384,3.4708 L 63.6293,3.4708 L 63.6293,2.9710 L 63.9912,2.9710 L 63.9912,2.4712 L 65.0492,2.4712 L 65.0492,2.9710 L 65.4111,2.9710 L 65.4111,3.4708 L 66.3020,3.4708 L 66.3020,5.5950 L 62.7384,5.5950 Z" stroke="#161616" stroke-width="0.1198" stroke-linecap="round" stroke-linejoin="round" fill="#000000"/>
        <path d="M 62.7384,6.2475 L 62.7384,8.3716 L 63.6293,8.3716 L 63.6293,8.8714 L 63.9912,8.8714 L 63.9912,9.3712 L 65.0492,9.3712 L 65.0492,8.8714 L 65.4111,8.8714 L 65.4111,8.3716 L 66.3020,8.3716 L 66.3020,6.2475 L 62.7384,6.2475 Z" stroke="#161616" stroke-width="0.1198" stroke-linecap="round" stroke-linejoin="round" fill="#000000"/>
        <path d="M 66.7753,5.5950 L 66.7753,3.4708 L 67.6662,3.4708 L 67.6662,2.9710 L 68.0281,2.9710 L 68.0281,2.4712 L 69.0860,2.4712 L 69.0860,2.9710 L 69.4479,2.9710 L 69.4479,3.4708 L 70.3388,3.4708 L 70.3388,5.5950 L 66.7753,5.5950 Z" stroke="#161616" stroke-width="0.1198" stroke-linecap="round" stroke-linejoin="round" fill="#000000"/>
        <path d="M 66.7753,6.2475 L 66.7753,8.3716 L 67.6662,8.3716 L 67.6662,8.8714 L 68.0281,8.8714 L 68.0281,9.3712 L 69.0860,9.3712 L 69.0860,8.8714 L 69.4479,8.8714 L 69.4479,8.3716 L 70.3388,8.3716 L 70.3388,6.2475 L 66.7753,6.2475 Z" stroke="#161616" stroke-width="0.1198" stroke-linecap="round" stroke-linejoin="round" fill="#000000"/>
        <path d="M 71.7726,5.5950 L 71.7726,3.4708 L 72.6635,3.4708 L 72.6635,2.9710 L 73.0254,2.9710 L 73.0254,2.4712 L 74.0834,2.4712 L 74.0834,2.9710 L 74.4453,2.9710 L 74.4453,3.4708 L 75.3362,3.4708 L 75.3362,5.5950 L 71.7726,5.5950 Z" stroke="#161616" stroke-width="0.1198" stroke-linecap="round" stroke-linejoin="round" fill="#000000"/>
        <path d="M 71.7726,6.2475 L 71.7726,8.3716 L 72.6635,8.3716 L 72.6635,8.8714 L 73.0254,8.8714 L 73.0254,9.3712 L 74.0834,9.3712 L 74.0834,8.8714 L 74.4453,8.8714 L 74.4453,8.3716 L 75.3362,8.3716 L 75.3362,6.2475 L 71.7726,6.2475 Z" stroke="#161616" stroke-width="0.1198" stroke-linecap="round" stroke-linejoin="round" fill="#000000"/>
        <path d="M 75.8095,5.5950 L 75.8095,3.4708 L 76.7004,3.4708 L 76.7004,2.9710 L 77.0623,2.9710 L 77.0623,2.4712 L 78.1202,2.4712 L 78.1202,2.9710 L 78.4822,2.9710 L 78.4822,3.4708 L 79.3731,3.4708 L 79.3731,5.5950 L 75.8095,5.5950 Z" stroke="#161616" stroke-width="0.1198" stroke-linecap="round" stroke-linejoin="round" fill="#000000"/>
        <path d="M 75.8095,6.2475 L 75.8095,8.3716 L 76.7004,8.3716 L 76.7004,8.8714 L 77.0623,8.8714 L 77.0623,9.3712 L 78.1202,9.3712 L 78.1202,8.8714 L 78.4822,8.8714 L 78.4822,8.3716 L 79.3731,8.3716 L 79.3731,6.2475 L 75.8095,6.2475 Z" stroke="#161616" stroke-width="0.1198" stroke-linecap="round" stroke-linejoin="round" fill="#000000"/>
        <path d="M 79.7907,5.5950 L 79.7907,3.4708 L 80.6816,3.4708 L 80.6816,2.9710 L 81.0435,2.9710 L 81.0435,2.4712 L 82.1014,2.4712 L 82.1014,2.9710 L 82.4633,2.9710 L 82.4633,3.4708 L 83.3542,3.4708 L 83.3542,5.5950 L 79.7907,5.5950 Z" stroke="#161616" stroke-width="0.1198" stroke-linecap="round" stroke-linejoin="round" fill="#000000"/>
        <path d="M 79.7907,6.2475 L 79.7907,8.3716 L 80.6816,8.3716 L 80.6816,8.8714 L 81.0435,8.8714 L 81.0435,9.3712 L 82.1014,9.3712 L 82.1014,8.8714 L 82.4633,8.8714 L 82.4633,8.3716 L 83.3542,8.3716 L 83.3542,6.2475 L 79.7907,6.2475 Z" stroke="#161616" stroke-width="0.1198" stroke-linecap="round" stroke-linejoin="round" fill="#000000"/>
        <path d="M 83.8415,5.5950 L 83.8415,3.4708 L 84.7323,3.4708 L 84.7323,2.9710 L 85.0943,2.9710 L 85.0943,2.4712 L 86.1522,2.4712 L 86.1522,2.9710 L 86.5141,2.9710 L 86.5141,3.4708 L 87.4050,3.4708 L 87.4050,5.5950 L 83.8415,5.5950 Z" stroke="#161616" stroke-width="0.1198" stroke-linecap="round" stroke-linejoin="round" fill="#000000"/>
        <path d="M 83.8415,6.2475 L 83.8415,8.3716 L 84.7323,8.3716 L 84.7323,8.8714 L 85.0943,8.8714 L 85.0943,9.3712 L 86.1522,9.3712 L 86.1522,8.8714 L 86.5141,8.8714 L 86.5141,8.3716 L 87.4050,8.3716 L 87.4050,6.2475 L 83.8415,6.2475 Z" stroke="#161616" stroke-width="0.1198" stroke-linecap="round" stroke-linejoin="round" fill="#000000"/>
        <path d="M 87.8226,5.5950 L 87.8226,3.4708 L 88.7135,3.4708 L 88.7135,2.9710 L 89.0755,2.9710 L 89.0755,2.4712 L 90.1334,2.4712 L 90.1334,2.9710 L 90.4953,2.9710 L 90.4953,3.4708 L 91.3862,3.4708 L 91.3862,5.5950 L 87.8226,5.5950 Z" stroke="#161616" stroke-width="0.1198" stroke-linecap="round" stroke-linejoin="round" fill="#000000"/>
        <path d="M 87.8226,6.2475 L 87.8226,8.3716 L 88.7135,8.3716 L 88.7135,8.8714 L 89.0755,8.8714 L 89.0755,9.3712 L 90.1334,9.3712 L 90.1334,8.8714 L 90.4953,8.8714 L 90.4953,8.3716 L 91.3862,8.3716 L 91.3862,6.2475 L 87.8226,6.2475 Z" stroke="#161616" stroke-width="0.1198" stroke-linecap="round" stroke-linejoin="round" fill="#000000"/>
        <path d="M 91.8595,5.5950 L 91.8595,3.4708 L 92.7504,3.4708 L 92.7504,2.9710 L 93.1123,2.9710 L 93.1123,2.4712 L 94.1703,2.4712 L 94.1703,2.9710 L 94.5322,2.9710 L 94.5322,3.4708 L 95.4231,3.4708 L 95.4231,5.5950 L 91.8595,5.5950 Z" stroke="#161616" stroke-width="0.1198" stroke-linecap="round" stroke-linejoin="round" fill="#000000"/>
        <path d="M 91.8595,6.2475 L 91.8595,8.3716 L 92.7504,8.3716 L 92.7504,8.8714 L 93.1123,8.8714 L 93.1123,9.3712 L 94.1703,9.3712 L 94.1703,8.8714 L 94.5322,8.8714 L 94.5322,8.3716 L 95.4231,8.3716 L 95.4231,6.2475 L 91.8595,6.2475 Z" stroke="#161616" stroke-width="0.1198" stroke-linecap="round" stroke-linejoin="round" fill="#000000"/>
        <path d="M 96.3000,5.5950 L 96.3000,3.4708 L 97.1909,3.4708 L 97.1909,2.9710 L 97.5529,2.9710 L 97.5529,2.4712 L 98.6108,2.4712 L 98.6108,2.9710 L 98.9727,2.9710 L 98.9727,3.4708 L 99.8636,3.4708 L 99.8636,5.5950 L 96.3000,5.5950 Z" stroke="#161616" stroke-width="0.1198" stroke-linecap="round" stroke-linejoin="round" fill="#000000"/>
        <path d="M 96.3000,6.2475 L 96.3000,8.3716 L 97.1909,8.3716 L 97.1909,8.8714 L 97.5529,8.8714 L 97.5529,9.3712 L 98.6108,9.3712 L 98.6108,8.8714 L 98.9727,8.8714 L 98.9727,8.3716 L 99.8636,8.3716 L 99.8636,6.2475 L 96.3000,6.2475 Z" stroke="#161616" stroke-width="0.1198" stroke-linecap="round" stroke-linejoin="round" fill="#000000"/>
        <path d="M 100.3369,5.5950 L 100.3369,3.4708 L 101.2278,3.4708 L 101.2278,2.9710 L 101.5897,2.9710 L 101.5897,2.4712 L 102.6477,2.4712 L 102.6477,2.9710 L 103.0096,2.9710 L 103.0096,3.4708 L 103.9005,3.4708 L 103.9005,5.5950 L 100.3369,5.5950 Z" stroke="#161616" stroke-width="0.1198" stroke-linecap="round" stroke-linejoin="round" fill="#000000"/>
        <path d="M 100.3369,6.2475 L 100.3369,8.3716 L 101.2278,8.3716 L 101.2278,8.8714 L 101.5897,8.8714 L 101.5897,9.3712 L 102.6477,9.3712 L 102.6477,8.8714 L 103.0096,8.8714 L 103.0096,8.3716 L 103.9005,8.3716 L 103.9005,6.2475 L 100.3369,6.2475 Z" stroke="#161616" stroke-width="0.1198" stroke-linecap="round" stroke-linejoin="round" fill="#000000"/>
        <path d="M 104.3181,5.5950 L 104.3181,3.4708 L 105.2090,3.4708 L 105.2090,2.9710 L 105.5709,2.9710 L 105.5709,2.4712 L 106.6288,2.4712 L 106.6288,2.9710 L 106.9908,2.9710 L 106.9908,3.4708 L 107.8817,3.4708 L 107.8817,5.5950 L 104.3181,5.5950 Z" stroke="#161616" stroke-width="0.1198" stroke-linecap="round" stroke-linejoin="round" fill="#000000"/>
        <path d="M 104.3181,6.2475 L 104.3181,8.3716 L 105.2090,8.3716 L 105.2090,8.8714 L 105.5709,8.8714 L 105.5709,9.3712 L 106.6288,9.3712 L 106.6288,8.8714 L 106.9908,8.8714 L 106.9908,8.3716 L 107.8817,8.3716 L 107.8817,6.2475 L 104.3181,6.2475 Z" stroke="#161616" stroke-width="0.1198" stroke-linecap="round" stroke-linejoin="round" fill="#000000"/>
        <path d="M 108.3549,5.5950 L 108.3549,3.4708 L 109.2458,3.4708 L 109.2458,2.9710 L 109.6078,2.9710 L 109.6078,2.4712 L 110.6657,2.4712 L 110.6657,2.9710 L 111.0276,2.9710 L 111.0276,3.4708 L 111.9185,3.4708 L 111.9185,5.5950 L 108.3549,5.5950 Z" stroke="#161616" stroke-width="0.1198" stroke-linecap="round" stroke-linejoin="round" fill="#000000"/>
        <path d="M 108.3549,6.2475 L 108.3549,8.3716 L 109.2458,8.3716 L 109.2458,8.8714 L 109.6078,8.8714 L 109.6078,9.3712 L 110.6657,9.3712 L 110.6657,8.8714 L 111.0276,8.8714 L 111.0276,8.3716 L 111.9185,8.3716 L 111.9185,6.2475 L 108.3549,6.2475 Z" stroke="#161616" stroke-width="0.1198" stroke-linecap="round" stroke-linejoin="round" fill="#000000"/>
        <path d="M 112.3501,5.5950 L 112.3501,3.4708 L 113.2409,3.4708 L 113.2409,2.9710 L 113.6029,2.9710 L 113.6029,2.4712 L 114.6608,2.4712 L 114.6608,2.9710 L 115.0227,2.9710 L 115.0227,3.4708 L 115.9136,3.4708 L 115.9136,5.5950 L 112.3501,5.5950 Z" stroke="#161616" stroke-width="0.1198" stroke-linecap="round" stroke-linejoin="round" fill="#000000"/>
        <path d="M 112.3501,6.2475 L 112.3501,8.3716 L 113.2409,8.3716 L 113.2409,8.8714 L 113.6029,8.8714 L 113.6029,9.3712 L 114.6608,9.3712 L 114.6608,8.8714 L 115.0227,8.8714 L 115.0227,8.3716 L 115.9136,8.3716 L 115.9136,6.2475 L 112.3501,6.2475 Z" stroke="#161616" stroke-width="0.1198" stroke-linecap="round" stroke-linejoin="round" fill="#000000"/>
        <path d="M 116.3869,5.5950 L 116.3869,3.4708 L 117.2778,3.4708 L 117.2778,2.9710 L 117.6397,2.9710 L 117.6397,2.4712 L 118.6977,2.4712 L 118.6977,2.9710 L 119.0596,2.9710 L 119.0596,3.4708 L 119.9505,3.4708 L 119.9505,5.5950 L 116.3869,5.5950 Z" stroke="#161616" stroke-width="0.1198" stroke-linecap="round" stroke-linejoin="round" fill="#000000"/>
        <path d="M 116.3869,6.2475 L 116.3869,8.3716 L 117.2778,8.3716 L 117.2778,8.8714 L 117.6397,8.8714 L 117.6397,9.3712 L 118.6977,9.3712 L 118.6977,8.8714 L 119.0596,8.8714 L 119.0596,8.3716 L 119.9505,8.3716 L 119.9505,6.2475 L 116.3869,6.2475 Z" stroke="#161616" stroke-width="0.1198" stroke-linecap="round" stroke-linejoin="round" fill="#000000"/>
        <path d="M 125.7849,5.1529 L 121.8287,5.1529 L 121.8287,2.4795 L 125.7849,2.4795 L 125.7849,5.1529 Z" stroke="#000000" stroke-width="0.1198" stroke-linecap="round" stroke-linejoin="round" fill="#494949"/>
        <path d="M 125.7849,9.3638 L 121.8287,9.3638 L 121.8287,6.6904 L 125.7849,6.6904 L 125.7849,9.3638 Z" stroke="#000000" stroke-width="0.1198" stroke-linecap="round" stroke-linejoin="round" fill="#494949"/>
        <path d="M 21.0113,2.6981 L 19.9819,2.6981 L 19.9819,3.0619 L 21.0113,3.0619 L 21.0113,2.6981 Z" stroke="#000000" stroke-width="0.1198" stroke-linecap="round" stroke-linejoin="round" fill="#83FF00"/>
        <path d="M 18.0333,2.6981 L 17.0039,2.6981 L 17.0039,3.0619 L 18.0333,3.0619 L 18.0333,2.6981 Z" stroke="#000000" stroke-width="0.1198" stroke-linecap="round" stroke-linejoin="round" fill="#83FF00"/>
        <path d="M 21.0113,8.7764 L 19.9819,8.7764 L 19.9819,9.1402 L 21.0113,9.1402 L 21.0113,8.7764 Z" stroke="#000000" stroke-width="0.1198" stroke-linecap="round" stroke-linejoin="round" fill="#83FF00"/>
        <path d="M 18.0333,8.7764 L 17.0039,8.7764 L 17.0039,9.1402 L 18.0333,9.1402 L 18.0333,8.7764 Z" stroke="#000000" stroke-width="0.1198" stroke-linecap="round" stroke-linejoin="round" fill="#83FF00"/>
      </g>
      <!--emf-blob end-->
    </g>
  </g>
</svg>
