<svg xmlns="http://www.w3.org/2000/svg" xmlns:xlink="http://www.w3.org/1999/xlink" version="1.1" width="3.4032000000" height="0.6032000000" viewBox="0 0 61.2567 10.8567">
  <title><![CDATA[FG/FWF-30E]]></title>
  <g transform=" scale(4.000000) ">
    <!--converted by libvisio2svg-->
    <g transform=" translate(0.000000,0.000000) ">
      <!--emf-blob start-->
      <g transform="translate(-0.0000, -0.0000)">
        <path d="M 61.2005,0.0279 L 0.0281,0.0279 L 0.0281,10.7331 L 61.2005,10.7331 L 61.2005,0.0279 Z" stroke="#000000" stroke-width="0.1199" stroke-linecap="round" stroke-linejoin="round" fill="#E2E2E2"/>
        <path d="M 60.5961,0.5576 L 0.6466,0.5576 L 0.6466,10.2173 L 60.5961,10.2173 L 60.5961,0.5576 Z" stroke="#7F7F7F" stroke-width="0.1199" stroke-linecap="round" stroke-linejoin="round" fill="none"/>
        <path d="M 53.4134,3.6520 L 31.3171,3.6520 L 31.3171,8.2241 L 53.4134,8.2241 L 53.4134,3.6520 Z" stroke="#7F7F7F" stroke-width="0.1199" stroke-linecap="round" stroke-linejoin="round" fill="#7F7F7F"/>
        <path d="M 53.2025,3.8611 L 31.5701,3.8611 L 31.5701,8.0289 L 53.2025,8.0289 L 53.2025,3.8611 Z" stroke="#333333" stroke-width="0.1199" stroke-linecap="round" stroke-linejoin="round" fill="#E2E2E2"/>
        <path d="M 17.4015,3.6520 L 12.4819,3.6520 L 12.4819,8.2241 L 17.4015,8.2241 L 17.4015,3.6520 Z" stroke="#7F7F7F" stroke-width="0.1199" stroke-linecap="round" stroke-linejoin="round" fill="#7F7F7F"/>
        <path d="M 17.1766,3.8611 L 12.7208,3.8611 L 12.7208,8.0289 L 17.1766,8.0289 L 17.1766,3.8611 Z" stroke="#333333" stroke-width="0.1199" stroke-linecap="round" stroke-linejoin="round" fill="#E2E2E2"/>
        <path d="M 10.8654,3.3733 L 9.4738,3.3733 L 9.4738,8.2241 L 10.8654,8.2241 L 10.8654,3.3733 Z" stroke="#000000" stroke-width="0.1199" stroke-linecap="round" stroke-linejoin="round" fill="#333333"/>
        <path d="M 10.7248,3.3733 L 9.6004,3.3733 L 9.6004,3.8193 L 9.8393,4.0702 L 10.5281,4.0702 L 10.7248,3.8472 L 10.7248,3.3733 Z" stroke="#000000" stroke-width="0.1199" stroke-linecap="round" stroke-linejoin="round" fill="#494949"/>
        <ellipse cx="54.7521" cy="8.2275" rx="0.6251" ry="0.6209" fill="#666666" stroke="#000000" stroke-width="0.1199" stroke-linecap="round" stroke-linejoin="round"/>
        <ellipse cx="54.7521" cy="8.2275" rx="0.6251" ry="0.6209" fill="none" stroke="#000000" stroke-width="0.1199" stroke-linecap="round" stroke-linejoin="round"/>
        <ellipse cx="54.7521" cy="8.2275" rx="0.5665" ry="0.5627" fill="#7F7F7F" stroke="#000000" stroke-width="0.1199" stroke-linecap="round" stroke-linejoin="round"/>
        <ellipse cx="54.7521" cy="8.2275" rx="0.5665" ry="0.5627" fill="none" stroke="#7F7F7F" stroke-width="0.1199" stroke-linecap="round" stroke-linejoin="round"/>
        <path d="M 54.3223,8.1887 L 54.3028,8.1887 L 54.2833,8.2081 L 54.2833,8.2275 L 54.2637,8.2275 L 54.2637,8.3439 L 54.2833,8.3439 L 54.2833,8.3633 L 54.3028,8.3827 L 54.7130,8.3827 L 54.7130,8.8096 L 54.7325,8.8096 L 54.7325,8.8290 L 54.7521,8.8290 L 54.7521,8.8484 L 54.8693,8.8484 L 54.8693,8.8290 L 54.8888,8.8290 L 54.8888,8.8096 L 54.9083,8.8096 L 54.9083,8.3827 L 55.3381,8.3827 L 55.3381,8.3633 L 55.3576,8.3633 L 55.3576,8.3439 L 55.3772,8.3439 L 55.3772,8.2275 L 55.3576,8.2275 L 55.3576,8.2081 L 55.3381,8.2081 L 55.3381,8.1887 L 54.9083,8.1887 L 54.9083,7.7812 L 54.8888,7.7618 L 54.8693,7.7618 L 54.8693,7.7424 L 54.7521,7.7424 L 54.7521,7.7618 L 54.7325,7.7618 L 54.7130,7.7812 L 54.7130,8.1887 L 54.3419,8.1887 L 54.3223,8.1887 Z" stroke="#161616" stroke-width="0.1199" stroke-linecap="round" stroke-linejoin="round" fill="#494949"/>
        <path d="M 54.2442,8.2469 L 54.2442,8.3439 L 54.2637,8.3633 L 54.2833,8.3633 L 54.2833,8.3827 L 54.7130,8.3827 L 54.7130,8.8290 L 54.7325,8.8484 L 54.7521,8.8484 L 54.7521,8.8678 L 54.8107,8.8678 L 54.8302,8.8678 " stroke="#BFBFBF" stroke-width="0.1199" stroke-linecap="round" stroke-linejoin="round" fill="none"/>
        <path d="M 54.7130,7.7812 L 54.7130,8.1693 L 54.7130,8.1887 " stroke="#BFBFBF" stroke-width="0.1199" stroke-linecap="round" stroke-linejoin="round" fill="none"/>
        <ellipse cx="4.7857" cy="8.2275" rx="0.6251" ry="0.6209" fill="#666666" stroke="#000000" stroke-width="0.1199" stroke-linecap="round" stroke-linejoin="round"/>
        <ellipse cx="4.7857" cy="8.2275" rx="0.6251" ry="0.6209" fill="none" stroke="#000000" stroke-width="0.1199" stroke-linecap="round" stroke-linejoin="round"/>
        <ellipse cx="4.7857" cy="8.2275" rx="0.5665" ry="0.5627" fill="#7F7F7F" stroke="#000000" stroke-width="0.1199" stroke-linecap="round" stroke-linejoin="round"/>
        <ellipse cx="4.7857" cy="8.2275" rx="0.5665" ry="0.5627" fill="none" stroke="#7F7F7F" stroke-width="0.1199" stroke-linecap="round" stroke-linejoin="round"/>
        <path d="M 4.3559,8.1887 L 4.3364,8.1887 L 4.3169,8.2081 L 4.3169,8.2275 L 4.2973,8.2275 L 4.2973,8.3439 L 4.3169,8.3439 L 4.3169,8.3633 L 4.3364,8.3827 L 4.7466,8.3827 L 4.7466,8.8096 L 4.7661,8.8096 L 4.7661,8.8290 L 4.7857,8.8290 L 4.7857,8.8484 L 4.9029,8.8484 L 4.9029,8.8290 L 4.9224,8.8290 L 4.9224,8.8096 L 4.9419,8.8096 L 4.9419,8.3827 L 5.3717,8.3827 L 5.3717,8.3633 L 5.3912,8.3633 L 5.3912,8.3439 L 5.4107,8.3439 L 5.4107,8.2275 L 5.3912,8.2275 L 5.3912,8.2081 L 5.3717,8.2081 L 5.3717,8.1887 L 4.9419,8.1887 L 4.9419,7.7812 L 4.9224,7.7618 L 4.9029,7.7618 L 4.9029,7.7424 L 4.7857,7.7424 L 4.7857,7.7618 L 4.7661,7.7618 L 4.7466,7.7812 L 4.7466,8.1887 L 4.3755,8.1887 L 4.3559,8.1887 Z" stroke="#161616" stroke-width="0.1199" stroke-linecap="round" stroke-linejoin="round" fill="#494949"/>
        <path d="M 4.2778,8.2469 L 4.2778,8.3439 L 4.2973,8.3633 L 4.3169,8.3633 L 4.3169,8.3827 L 4.7466,8.3827 L 4.7466,8.8290 L 4.7661,8.8484 L 4.7857,8.8484 L 4.7857,8.8678 L 4.8443,8.8678 L 4.8638,8.8678 " stroke="#BFBFBF" stroke-width="0.1199" stroke-linecap="round" stroke-linejoin="round" fill="none"/>
        <path d="M 4.7466,7.7812 L 4.7466,8.1693 L 4.7466,8.1887 " stroke="#BFBFBF" stroke-width="0.1199" stroke-linecap="round" stroke-linejoin="round" fill="none"/>
        <path d="M 7.0454,4.7590 L 7.0454,5.4755 " stroke="#000000" stroke-width="0.1199" stroke-linecap="round" stroke-linejoin="round" fill="none"/>
        <path d="M 6.5250,5.6243 L 7.5657,5.6243 " stroke="#000000" stroke-width="0.1199" stroke-linecap="round" stroke-linejoin="round" fill="none"/>
        <path d="M 6.6938,5.7865 L 7.4110,5.7865 " stroke="#000000" stroke-width="0.1199" stroke-linecap="round" stroke-linejoin="round" fill="none"/>
        <path d="M 6.6938,5.7865 L 7.4110,5.7865 " stroke="#000000" stroke-width="0.1199" stroke-linecap="round" stroke-linejoin="round" fill="none"/>
        <path d="M 6.8766,5.9623 L 7.2141,5.9623 " stroke="#000000" stroke-width="0.1199" stroke-linecap="round" stroke-linejoin="round" fill="none"/>
        <ellipse cx="7.8849" cy="6.6141" rx="0.1814" ry="0.1844" fill="#000000" stroke="#000000" stroke-width="0.1199" stroke-linecap="round" stroke-linejoin="round"/>
        <ellipse cx="7.8849" cy="6.6141" rx="0.1814" ry="0.1844" fill="none" stroke="#0A0A0A" stroke-width="0.1199" stroke-linecap="round" stroke-linejoin="round"/>
        <ellipse cx="29.5345" cy="2.9689" rx="0.6251" ry="0.6209" fill="#666666" stroke="#000000" stroke-width="0.1199" stroke-linecap="round" stroke-linejoin="round"/>
        <ellipse cx="29.5345" cy="2.9689" rx="0.6251" ry="0.6209" fill="none" stroke="#000000" stroke-width="0.1199" stroke-linecap="round" stroke-linejoin="round"/>
        <ellipse cx="29.5345" cy="2.9689" rx="0.5665" ry="0.5627" fill="#7F7F7F" stroke="#000000" stroke-width="0.1199" stroke-linecap="round" stroke-linejoin="round"/>
        <ellipse cx="29.5345" cy="2.9689" rx="0.5665" ry="0.5627" fill="none" stroke="#7F7F7F" stroke-width="0.1199" stroke-linecap="round" stroke-linejoin="round"/>
        <path d="M 29.1047,2.9301 L 29.0852,2.9301 L 29.0657,2.9495 L 29.0657,2.9689 L 29.0461,2.9689 L 29.0461,3.0853 L 29.0657,3.0853 L 29.0657,3.1047 L 29.0852,3.1241 L 29.4954,3.1241 L 29.4954,3.5510 L 29.5149,3.5510 L 29.5149,3.5704 L 29.5345,3.5704 L 29.5345,3.5898 L 29.6517,3.5898 L 29.6517,3.5704 L 29.6712,3.5704 L 29.6712,3.5510 L 29.6907,3.5510 L 29.6907,3.1241 L 30.1205,3.1241 L 30.1205,3.1047 L 30.1400,3.1047 L 30.1400,3.0853 L 30.1595,3.0853 L 30.1595,2.9689 L 30.1400,2.9689 L 30.1400,2.9495 L 30.1205,2.9495 L 30.1205,2.9301 L 29.6907,2.9301 L 29.6907,2.5226 L 29.6712,2.5032 L 29.6517,2.5032 L 29.6517,2.4838 L 29.5345,2.4838 L 29.5345,2.5032 L 29.5149,2.5032 L 29.4954,2.5226 L 29.4954,2.9301 L 29.1243,2.9301 L 29.1047,2.9301 Z" stroke="#161616" stroke-width="0.1199" stroke-linecap="round" stroke-linejoin="round" fill="#494949"/>
        <path d="M 29.0266,2.9883 L 29.0266,3.0853 L 29.0461,3.1047 L 29.0657,3.1047 L 29.0657,3.1241 L 29.4954,3.1241 L 29.4954,3.5704 L 29.5149,3.5898 L 29.5345,3.5898 L 29.5345,3.6092 L 29.5931,3.6092 L 29.6126,3.6092 " stroke="#BFBFBF" stroke-width="0.1199" stroke-linecap="round" stroke-linejoin="round" fill="none"/>
        <path d="M 29.4954,2.5226 L 29.4954,2.9107 L 29.4954,2.9301 " stroke="#BFBFBF" stroke-width="0.1199" stroke-linecap="round" stroke-linejoin="round" fill="none"/>
        <text font-family="Arial" fill="#000000" style="white-space:pre;" font-weight="400" text-anchor="start" x="32.3473" y="5.8770" font-size="0.2344"><![CDATA[DC+12V]]></text>
        <text font-family="Arial" fill="#000000" style="white-space:pre;" font-weight="400" text-anchor="start" x="33.8904" y="5.8770" font-size="0.2344"><![CDATA[CONSOLE]]></text>
        <text font-family="Arial" fill="#000000" style="white-space:pre;" font-weight="400" text-anchor="start" x="40.7466" y="5.8770" font-size="0.2344"><![CDATA[WAN]]></text>
        <text font-family="Arial" fill="#000000" style="white-space:pre;" font-weight="400" text-anchor="start" x="42.4070" y="5.8770" font-size="0.2344"><![CDATA[4]]></text>
        <text font-family="Arial" fill="#000000" style="white-space:pre;" font-weight="400" text-anchor="start" x="43.8720" y="5.8770" font-size="0.2344"><![CDATA[3]]></text>
        <text font-family="Arial" fill="#000000" style="white-space:pre;" font-weight="400" text-anchor="start" x="45.3370" y="5.8770" font-size="0.2344"><![CDATA[2]]></text>
        <text font-family="Arial" fill="#000000" style="white-space:pre;" font-weight="400" text-anchor="start" x="46.8020" y="5.8770" font-size="0.2344"><![CDATA[1]]></text>
        <ellipse cx="3.5860" cy="3.2283" rx="0.9422" ry="0.9363" fill="#000000" stroke="#000000" stroke-width="0.1199" stroke-linecap="round" stroke-linejoin="round"/>
        <ellipse cx="3.5860" cy="3.2283" rx="0.9422" ry="0.9363" fill="none" stroke="#000000" stroke-width="0.1199" stroke-linecap="round" stroke-linejoin="round"/>
        <ellipse cx="3.5789" cy="3.2283" rx="0.7383" ry="0.7407" fill="#BCBC7E" stroke="#000000" stroke-width="0.1199" stroke-linecap="round" stroke-linejoin="round"/>
        <ellipse cx="3.5789" cy="3.2283" rx="0.7383" ry="0.7407" fill="none" stroke="#BCBC7E" stroke-width="0.1199" stroke-linecap="round" stroke-linejoin="round"/>
        <ellipse cx="3.5860" cy="3.2213" rx="0.0844" ry="0.0769" fill="#000000" stroke="#000000" stroke-width="0.1199" stroke-linecap="round" stroke-linejoin="round"/>
        <ellipse cx="3.5860" cy="3.2213" rx="0.0844" ry="0.0769" fill="none" stroke="#000000" stroke-width="0.1199" stroke-linecap="round" stroke-linejoin="round"/>
        <ellipse cx="57.5301" cy="3.2283" rx="0.9422" ry="0.9363" fill="#000000" stroke="#000000" stroke-width="0.1199" stroke-linecap="round" stroke-linejoin="round"/>
        <ellipse cx="57.5301" cy="3.2283" rx="0.9422" ry="0.9363" fill="none" stroke="#000000" stroke-width="0.1199" stroke-linecap="round" stroke-linejoin="round"/>
        <ellipse cx="57.5231" cy="3.2283" rx="0.7383" ry="0.7407" fill="#BCBC7E" stroke="#000000" stroke-width="0.1199" stroke-linecap="round" stroke-linejoin="round"/>
        <ellipse cx="57.5231" cy="3.2283" rx="0.7383" ry="0.7407" fill="none" stroke="#BCBC7E" stroke-width="0.1199" stroke-linecap="round" stroke-linejoin="round"/>
        <ellipse cx="57.5301" cy="3.2213" rx="0.0844" ry="0.0769" fill="#000000" stroke="#000000" stroke-width="0.1199" stroke-linecap="round" stroke-linejoin="round"/>
        <ellipse cx="57.5301" cy="3.2213" rx="0.0844" ry="0.0769" fill="none" stroke="#000000" stroke-width="0.1199" stroke-linecap="round" stroke-linejoin="round"/>
        <ellipse cx="6.9510" cy="3.4441" rx="0.8234" ry="0.8182" fill="#999999" stroke="#000000" stroke-width="0.1199" stroke-linecap="round" stroke-linejoin="round"/>
        <ellipse cx="6.9510" cy="3.4441" rx="0.8234" ry="0.8182" fill="none" stroke="#000000" stroke-width="0.1199" stroke-linecap="round" stroke-linejoin="round"/>
        <ellipse cx="6.9510" cy="3.4441" rx="0.6128" ry="0.6089" fill="#666666" stroke="#000000" stroke-width="0.1199" stroke-linecap="round" stroke-linejoin="round"/>
        <ellipse cx="6.9510" cy="3.4441" rx="0.6128" ry="0.6089" fill="none" stroke="#000000" stroke-width="0.1199" stroke-linecap="round" stroke-linejoin="round"/>
        <ellipse cx="6.9510" cy="3.4345" rx="0.5553" ry="0.5423" fill="#7F7F7F" stroke="#000000" stroke-width="0.1199" stroke-linecap="round" stroke-linejoin="round"/>
        <ellipse cx="6.9510" cy="3.4345" rx="0.5553" ry="0.5423" fill="none" stroke="#7F7F7F" stroke-width="0.1199" stroke-linecap="round" stroke-linejoin="round"/>
        <path d="M 6.5297,3.4060 L 6.5106,3.4060 L 6.4914,3.4250 L 6.4914,3.4441 L 6.4723,3.4441 L 6.4723,3.5582 L 6.4914,3.5582 L 6.4914,3.5773 L 6.5106,3.5963 L 6.9127,3.5963 L 6.9127,4.0149 L 6.9318,4.0149 L 6.9318,4.0339 L 6.9510,4.0339 L 6.9510,4.0530 L 7.0659,4.0530 L 7.0659,4.0339 L 7.0850,4.0339 L 7.0850,4.0149 L 7.1042,4.0149 L 7.1042,3.5963 L 7.5254,3.5963 L 7.5254,3.5773 L 7.5446,3.5773 L 7.5446,3.5582 L 7.5637,3.5582 L 7.5637,3.4441 L 7.5446,3.4441 L 7.5446,3.4250 L 7.5254,3.4250 L 7.5254,3.4060 L 7.1042,3.4060 L 7.1042,3.0064 L 7.0850,2.9874 L 7.0659,2.9874 L 7.0659,2.9684 L 6.9510,2.9684 L 6.9510,2.9874 L 6.9318,2.9874 L 6.9127,3.0064 L 6.9127,3.4060 L 6.5489,3.4060 L 6.5297,3.4060 Z" stroke="#161616" stroke-width="0.1199" stroke-linecap="round" stroke-linejoin="round" fill="#494949"/>
        <path d="M 6.4531,3.4631 L 6.4531,3.5582 L 6.4723,3.5773 L 6.4914,3.5773 L 6.4914,3.5963 L 6.9127,3.5963 L 6.9127,4.0339 L 6.9318,4.0530 L 6.9510,4.0530 L 6.9510,4.0720 L 7.0084,4.0720 L 7.0276,4.0720 " stroke="#BFBFBF" stroke-width="0.1199" stroke-linecap="round" stroke-linejoin="round" fill="none"/>
        <path d="M 6.9127,3.0064 L 6.9127,3.3870 L 6.9127,3.4060 " stroke="#BFBFBF" stroke-width="0.1199" stroke-linecap="round" stroke-linejoin="round" fill="none"/>
        <path d="M 10.8427,5.0330 L 10.8427,8.1443 L 9.5671,8.1443 L 9.5671,5.0330 L 9.8131,5.0330 L 9.8131,5.2800 L 10.5967,5.2800 L 10.5967,5.0330 L 10.8427,5.0330 Z" stroke="#000000" stroke-width="0.1199" stroke-linecap="round" stroke-linejoin="round" fill="#000000"/>
        <path d="M 10.8063,5.3715 L 9.6035,5.3715 L 9.6035,8.0985 L 10.8063,8.0985 L 10.8063,5.3715 Z" stroke="#000000" stroke-width="0.1199" stroke-linecap="round" stroke-linejoin="round" fill="#666666"/>
        <path d="M 10.6787,6.8448 L 9.7311,6.8448 L 9.7311,7.7965 L 10.6787,7.7965 L 10.6787,6.8448 Z" stroke="#000000" stroke-width="0.1199" stroke-linecap="round" stroke-linejoin="round" fill="#000000"/>
        <ellipse cx="10.1457" cy="7.2612" rx="0.0592" ry="0.0595" fill="#BFBFBF" stroke="#000000" stroke-width="0.1199" stroke-linecap="round" stroke-linejoin="round"/>
        <ellipse cx="10.1457" cy="7.2612" rx="0.0592" ry="0.0595" fill="none" stroke="#000000" stroke-width="0.1199" stroke-linecap="round" stroke-linejoin="round"/>
        <path d="M 10.6787,5.6918 L 9.7311,5.6918 L 9.7311,6.4056 L 9.9680,6.6435 L 10.4600,6.6435 L 10.6787,6.4239 L 10.6787,5.6918 Z" stroke="#000000" stroke-width="0.1199" stroke-linecap="round" stroke-linejoin="round" fill="#000000"/>
        <ellipse cx="10.1457" cy="6.1128" rx="0.0592" ry="0.0549" fill="#BFBFBF" stroke="#000000" stroke-width="0.1199" stroke-linecap="round" stroke-linejoin="round"/>
        <ellipse cx="10.1457" cy="6.1128" rx="0.0592" ry="0.0549" fill="none" stroke="#000000" stroke-width="0.1199" stroke-linecap="round" stroke-linejoin="round"/>
        <path d="M 13.2141,7.1880 L 13.2141,5.0771 L 14.1072,5.0771 L 14.1072,4.5804 L 14.4700,4.5804 L 14.4700,4.0838 L 15.5305,4.0838 L 15.5305,4.5804 L 15.8933,4.5804 L 15.8933,5.0771 L 16.7863,5.0771 L 16.7863,7.1880 L 13.2141,7.1880 Z" stroke="#161616" stroke-width="0.1199" stroke-linecap="round" stroke-linejoin="round" fill="#000000"/>
        <path d="M 48.9356,4.7598 L 48.9356,6.8706 L 49.8286,6.8706 L 49.8286,7.3673 L 50.1914,7.3673 L 50.1914,7.8640 L 51.2519,7.8640 L 51.2519,7.3673 L 51.6147,7.3673 L 51.6147,6.8706 L 52.5077,6.8706 L 52.5077,4.7598 L 48.9356,4.7598 Z" stroke="#161616" stroke-width="0.1199" stroke-linecap="round" stroke-linejoin="round" fill="#000000"/>
        <path d="M 44.7216,4.7598 L 44.7216,6.8706 L 45.6146,6.8706 L 45.6146,7.3673 L 45.9774,7.3673 L 45.9774,7.8640 L 47.0379,7.8640 L 47.0379,7.3673 L 47.4007,7.3673 L 47.4007,6.8706 L 48.2937,6.8706 L 48.2937,4.7598 L 44.7216,4.7598 Z" stroke="#161616" stroke-width="0.1199" stroke-linecap="round" stroke-linejoin="round" fill="#000000"/>
        <path d="M 40.5076,4.7598 L 40.5076,6.8706 L 41.4006,6.8706 L 41.4006,7.3673 L 41.7634,7.3673 L 41.7634,7.8640 L 42.8239,7.8640 L 42.8239,7.3673 L 43.1867,7.3673 L 43.1867,6.8706 L 44.0797,6.8706 L 44.0797,4.7598 L 40.5076,4.7598 Z" stroke="#161616" stroke-width="0.1199" stroke-linecap="round" stroke-linejoin="round" fill="#000000"/>
        <path d="M 36.2796,4.7598 L 36.2796,6.8706 L 37.1726,6.8706 L 37.1726,7.3673 L 37.5354,7.3673 L 37.5354,7.8640 L 38.5959,7.8640 L 38.5959,7.3673 L 38.9587,7.3673 L 38.9587,6.8706 L 39.8517,6.8706 L 39.8517,4.7598 L 36.2796,4.7598 Z" stroke="#161616" stroke-width="0.1199" stroke-linecap="round" stroke-linejoin="round" fill="#000000"/>
        <path d="M 32.0656,4.7598 L 32.0656,6.8706 L 32.9586,6.8706 L 32.9586,7.3673 L 33.3214,7.3673 L 33.3214,7.8640 L 34.3819,7.8640 L 34.3819,7.3673 L 34.7447,7.3673 L 34.7447,6.8706 L 35.6377,6.8706 L 35.6377,4.7598 L 32.0656,4.7598 Z" stroke="#161616" stroke-width="0.1199" stroke-linecap="round" stroke-linejoin="round" fill="#000000"/>
      </g>
      <!--emf-blob end-->
    </g>
  </g>
</svg>
