<svg xmlns="http://www.w3.org/2000/svg" xmlns:xlink="http://www.w3.org/1999/xlink" version="1.1" width="3.4032000000" height="0.6032000000" viewBox="0 0 61.2567 10.8567">
  <title><![CDATA[FG/FWF-60/61F]]></title>
  <g transform=" scale(4.000000) ">
    <!--converted by libvisio2svg-->
    <g transform=" translate(576.000000,-756.000000) ">
      <!--emf-blob start-->
      <g transform="translate(-0.0000, -0.0000)">
        <path d="M 0.0279,9.2577 L 0.0279,9.3278 L 0.0419,9.3558 L 0.0419,9.3839 L 0.0558,9.3979 L 0.0558,9.4260 L 0.0698,9.4400 L 0.0698,9.4681 L 0.0838,9.4821 L 0.0977,9.5101 L 0.1257,9.5382 L 0.1396,9.5662 L 0.1955,9.6223 L 0.2234,9.6364 L 0.2513,9.6644 L 0.2792,9.6785 L 0.2932,9.6925 L 0.3211,9.6925 L 0.3351,9.7065 L 0.3630,9.7065 L 0.3770,9.7205 L 0.4049,9.7205 L 0.4328,9.7346 L 60.3845,9.7346 L 60.4124,9.7205 L 60.4404,9.7205 L 60.4543,9.7065 L 60.4822,9.7065 L 60.4962,9.6925 L 60.5241,9.6925 L 60.5381,9.6785 L 60.5660,9.6644 L 60.5939,9.6364 L 60.6219,9.6223 L 60.6777,9.5662 L 60.6917,9.5382 L 60.7196,9.5101 L 60.7335,9.4821 L 60.7475,9.4681 L 60.7475,9.4400 L 60.7615,9.4260 L 60.7615,9.3979 L 60.7754,9.3839 L 60.7754,9.3558 L 60.7894,9.3278 L 60.7894,0.4348 L 60.7754,0.4068 L 60.7754,0.3787 L 60.7615,0.3647 L 60.7615,0.3366 L 60.7475,0.3226 L 60.7475,0.2946 L 60.7335,0.2805 L 60.7196,0.2525 L 60.6917,0.2244 L 60.6777,0.1964 L 60.6219,0.1403 L 60.5939,0.1262 L 60.5660,0.0982 L 60.5381,0.0842 L 60.5241,0.0701 L 60.4962,0.0701 L 60.4822,0.0561 L 60.4543,0.0561 L 60.4404,0.0421 L 60.4124,0.0421 L 60.3845,0.0281 L 0.4328,0.0281 L 0.4049,0.0421 L 0.3770,0.0421 L 0.3630,0.0561 L 0.3351,0.0561 L 0.3211,0.0701 L 0.2932,0.0701 L 0.2792,0.0842 L 0.2513,0.0982 L 0.2234,0.1262 L 0.1955,0.1403 L 0.1396,0.1964 L 0.1257,0.2244 L 0.0977,0.2525 L 0.0838,0.2805 L 0.0698,0.2946 L 0.0698,0.3226 L 0.0558,0.3366 L 0.0558,0.3647 L 0.0419,0.3787 L 0.0419,0.4068 L 0.0279,0.4348 L 0.0279,9.2296 L 0.0279,9.2577 Z" stroke="#000000" stroke-width="0.1193" stroke-linecap="round" stroke-linejoin="round" fill="#EAEAEA"/>
        <path d="M 5.1379,9.7346 L 1.1309,9.7346 L 1.3264,10.8006 L 4.9425,10.8006 L 5.1379,9.7346 Z" stroke="#000000" stroke-width="0.1193" stroke-linecap="round" stroke-linejoin="round" fill="#333333"/>
        <path d="M 59.7004,9.7346 L 55.6934,9.7346 L 55.8888,10.8006 L 59.5049,10.8006 L 59.7004,9.7346 Z" stroke="#000000" stroke-width="0.1193" stroke-linecap="round" stroke-linejoin="round" fill="#333333"/>
        <path d="M 8.7819,1.7954 L 8.7819,1.7393 L 8.7680,1.6972 L 8.7121,1.6131 L 8.6284,1.5570 L 8.5865,1.5429 L 7.5533,1.5429 L 7.5114,1.5570 L 7.4276,1.6131 L 7.3718,1.6972 L 7.3578,1.7393 L 7.3578,1.8515 L 7.3718,1.8936 L 7.4276,1.9778 L 7.5114,2.0339 L 7.5533,2.0479 L 8.5865,2.0479 L 8.6284,2.0339 L 8.7121,1.9778 L 8.7680,1.8936 L 8.7819,1.8515 L 8.7819,1.7954 Z" stroke="#000000" stroke-width="0.1193" stroke-linecap="round" stroke-linejoin="round" fill="#000000"/>
        <path d="M 10.9600,1.7954 L 10.9600,1.7393 L 10.9460,1.6972 L 10.8902,1.6131 L 10.8064,1.5570 L 10.7645,1.5429 L 9.7313,1.5429 L 9.6894,1.5570 L 9.6057,1.6131 L 9.5498,1.6972 L 9.5359,1.7393 L 9.5359,1.8515 L 9.5498,1.8936 L 9.6057,1.9778 L 9.6894,2.0339 L 9.7313,2.0479 L 10.7645,2.0479 L 10.8064,2.0339 L 10.8902,1.9778 L 10.9460,1.8936 L 10.9600,1.8515 L 10.9600,1.7954 Z" stroke="#000000" stroke-width="0.1193" stroke-linecap="round" stroke-linejoin="round" fill="#000000"/>
        <path d="M 13.1240,1.7954 L 13.1240,1.7393 L 13.1101,1.6972 L 13.0542,1.6131 L 12.9705,1.5570 L 12.9286,1.5429 L 11.8954,1.5429 L 11.8535,1.5570 L 11.7697,1.6131 L 11.7139,1.6972 L 11.6999,1.7393 L 11.6999,1.8515 L 11.7139,1.8936 L 11.7697,1.9778 L 11.8535,2.0339 L 11.8954,2.0479 L 12.9286,2.0479 L 12.9705,2.0339 L 13.0542,1.9778 L 13.1101,1.8936 L 13.1240,1.8515 L 13.1240,1.7954 Z" stroke="#000000" stroke-width="0.1193" stroke-linecap="round" stroke-linejoin="round" fill="#000000"/>
        <path d="M 15.3021,1.7954 L 15.3021,1.7393 L 15.2881,1.6972 L 15.2323,1.6131 L 15.1485,1.5570 L 15.1066,1.5429 L 14.0734,1.5429 L 14.0315,1.5570 L 13.9478,1.6131 L 13.8919,1.6972 L 13.8780,1.7393 L 13.8780,1.8515 L 13.8919,1.8936 L 13.9478,1.9778 L 14.0315,2.0339 L 14.0734,2.0479 L 15.1066,2.0479 L 15.1485,2.0339 L 15.2323,1.9778 L 15.2881,1.8936 L 15.3021,1.8515 L 15.3021,1.7954 Z" stroke="#000000" stroke-width="0.1193" stroke-linecap="round" stroke-linejoin="round" fill="#000000"/>
        <path d="M 17.4661,1.7954 L 17.4661,1.7393 L 17.4522,1.6972 L 17.3963,1.6131 L 17.3126,1.5570 L 17.2707,1.5429 L 16.2375,1.5429 L 16.1956,1.5570 L 16.1118,1.6131 L 16.0560,1.6972 L 16.0420,1.7393 L 16.0420,1.8515 L 16.0560,1.8936 L 16.1118,1.9778 L 16.1956,2.0339 L 16.2375,2.0479 L 17.2707,2.0479 L 17.3126,2.0339 L 17.3963,1.9778 L 17.4522,1.8936 L 17.4661,1.8515 L 17.4661,1.7954 Z" stroke="#000000" stroke-width="0.1193" stroke-linecap="round" stroke-linejoin="round" fill="#000000"/>
        <path d="M 19.6442,1.7954 L 19.6442,1.7393 L 19.6302,1.6972 L 19.5744,1.6131 L 19.4906,1.5570 L 19.4487,1.5429 L 18.4155,1.5429 L 18.3736,1.5570 L 18.2899,1.6131 L 18.2340,1.6972 L 18.2201,1.7393 L 18.2201,1.8515 L 18.2340,1.8936 L 18.2899,1.9778 L 18.3736,2.0339 L 18.4155,2.0479 L 19.4487,2.0479 L 19.4906,2.0339 L 19.5744,1.9778 L 19.6302,1.8936 L 19.6442,1.8515 L 19.6442,1.7954 Z" stroke="#000000" stroke-width="0.1193" stroke-linecap="round" stroke-linejoin="round" fill="#000000"/>
        <path d="M 21.8082,1.7954 L 21.8082,1.7393 L 21.7943,1.6972 L 21.7384,1.6131 L 21.6547,1.5570 L 21.6128,1.5429 L 20.5796,1.5429 L 20.5377,1.5570 L 20.4539,1.6131 L 20.3981,1.6972 L 20.3841,1.7393 L 20.3841,1.8515 L 20.3981,1.8936 L 20.4539,1.9778 L 20.5377,2.0339 L 20.5796,2.0479 L 21.6128,2.0479 L 21.6547,2.0339 L 21.7384,1.9778 L 21.7943,1.8936 L 21.8082,1.8515 L 21.8082,1.7954 Z" stroke="#000000" stroke-width="0.1193" stroke-linecap="round" stroke-linejoin="round" fill="#000000"/>
        <path d="M 23.9863,1.7954 L 23.9863,1.7393 L 23.9723,1.6972 L 23.9165,1.6131 L 23.8327,1.5570 L 23.7908,1.5429 L 22.7576,1.5429 L 22.7157,1.5570 L 22.6320,1.6131 L 22.5761,1.6972 L 22.5622,1.7393 L 22.5622,1.8515 L 22.5761,1.8936 L 22.6320,1.9778 L 22.7157,2.0339 L 22.7576,2.0479 L 23.7908,2.0479 L 23.8327,2.0339 L 23.9165,1.9778 L 23.9723,1.8936 L 23.9863,1.8515 L 23.9863,1.7954 Z" stroke="#000000" stroke-width="0.1193" stroke-linecap="round" stroke-linejoin="round" fill="#000000"/>
        <path d="M 26.1503,1.7954 L 26.1503,1.7393 L 26.1364,1.6972 L 26.0805,1.6131 L 25.9968,1.5570 L 25.9549,1.5429 L 24.9217,1.5429 L 24.8798,1.5570 L 24.7960,1.6131 L 24.7402,1.6972 L 24.7262,1.7393 L 24.7262,1.8515 L 24.7402,1.8936 L 24.7960,1.9778 L 24.8798,2.0339 L 24.9217,2.0479 L 25.9549,2.0479 L 25.9968,2.0339 L 26.0805,1.9778 L 26.1364,1.8936 L 26.1503,1.8515 L 26.1503,1.7954 Z" stroke="#000000" stroke-width="0.1193" stroke-linecap="round" stroke-linejoin="round" fill="#000000"/>
        <path d="M 28.3284,1.7954 L 28.3284,1.7393 L 28.3144,1.6972 L 28.2586,1.6131 L 28.1748,1.5570 L 28.1329,1.5429 L 27.0997,1.5429 L 27.0578,1.5570 L 26.9741,1.6131 L 26.9182,1.6972 L 26.9043,1.7393 L 26.9043,1.8515 L 26.9182,1.8936 L 26.9741,1.9778 L 27.0578,2.0339 L 27.0997,2.0479 L 28.1329,2.0479 L 28.1748,2.0339 L 28.2586,1.9778 L 28.3144,1.8936 L 28.3284,1.8515 L 28.3284,1.7954 Z" stroke="#000000" stroke-width="0.1193" stroke-linecap="round" stroke-linejoin="round" fill="#000000"/>
        <path d="M 32.6705,1.7954 L 32.6705,1.7393 L 32.6565,1.6972 L 32.6007,1.6131 L 32.5169,1.5570 L 32.4750,1.5429 L 31.4418,1.5429 L 31.3999,1.5570 L 31.3162,1.6131 L 31.2603,1.6972 L 31.2464,1.7393 L 31.2464,1.8515 L 31.2603,1.8936 L 31.3162,1.9778 L 31.3999,2.0339 L 31.4418,2.0479 L 32.4750,2.0479 L 32.5169,2.0339 L 32.6007,1.9778 L 32.6565,1.8936 L 32.6705,1.8515 L 32.6705,1.7954 Z" stroke="#000000" stroke-width="0.1193" stroke-linecap="round" stroke-linejoin="round" fill="#000000"/>
        <path d="M 34.8345,1.7954 L 34.8345,1.7393 L 34.8206,1.6972 L 34.7647,1.6131 L 34.6810,1.5570 L 34.6391,1.5429 L 33.6059,1.5429 L 33.5640,1.5570 L 33.4802,1.6131 L 33.4244,1.6972 L 33.4104,1.7393 L 33.4104,1.8515 L 33.4244,1.8936 L 33.4802,1.9778 L 33.5640,2.0339 L 33.6059,2.0479 L 34.6391,2.0479 L 34.6810,2.0339 L 34.7647,1.9778 L 34.8206,1.8936 L 34.8345,1.8515 L 34.8345,1.7954 Z" stroke="#000000" stroke-width="0.1193" stroke-linecap="round" stroke-linejoin="round" fill="#000000"/>
        <path d="M 37.0126,1.7954 L 37.0126,1.7393 L 36.9986,1.6972 L 36.9428,1.6131 L 36.8590,1.5570 L 36.8171,1.5429 L 35.7839,1.5429 L 35.7420,1.5570 L 35.6583,1.6131 L 35.6024,1.6972 L 35.5885,1.7393 L 35.5885,1.8515 L 35.6024,1.8936 L 35.6583,1.9778 L 35.7420,2.0339 L 35.7839,2.0479 L 36.8171,2.0479 L 36.8590,2.0339 L 36.9428,1.9778 L 36.9986,1.8936 L 37.0126,1.8515 L 37.0126,1.7954 Z" stroke="#000000" stroke-width="0.1193" stroke-linecap="round" stroke-linejoin="round" fill="#000000"/>
        <path d="M 39.1766,1.7954 L 39.1766,1.7393 L 39.1627,1.6972 L 39.1068,1.6131 L 39.0230,1.5570 L 38.9812,1.5429 L 37.9480,1.5429 L 37.9061,1.5570 L 37.8223,1.6131 L 37.7665,1.6972 L 37.7525,1.7393 L 37.7525,1.8515 L 37.7665,1.8936 L 37.8223,1.9778 L 37.9061,2.0339 L 37.9480,2.0479 L 38.9812,2.0479 L 39.0230,2.0339 L 39.1068,1.9778 L 39.1627,1.8936 L 39.1766,1.8515 L 39.1766,1.7954 Z" stroke="#000000" stroke-width="0.1193" stroke-linecap="round" stroke-linejoin="round" fill="#000000"/>
        <path d="M 41.3547,1.7954 L 41.3547,1.7393 L 41.3407,1.6972 L 41.2849,1.6131 L 41.2011,1.5570 L 41.1592,1.5429 L 40.1260,1.5429 L 40.0841,1.5570 L 40.0004,1.6131 L 39.9445,1.6972 L 39.9306,1.7393 L 39.9306,1.8515 L 39.9445,1.8936 L 40.0004,1.9778 L 40.0841,2.0339 L 40.1260,2.0479 L 41.1592,2.0479 L 41.2011,2.0339 L 41.2849,1.9778 L 41.3407,1.8936 L 41.3547,1.8515 L 41.3547,1.7954 Z" stroke="#000000" stroke-width="0.1193" stroke-linecap="round" stroke-linejoin="round" fill="#000000"/>
        <path d="M 43.5187,1.7954 L 43.5187,1.7393 L 43.5048,1.6972 L 43.4489,1.6131 L 43.3651,1.5570 L 43.3233,1.5429 L 42.2901,1.5429 L 42.2482,1.5570 L 42.1644,1.6131 L 42.1086,1.6972 L 42.0946,1.7393 L 42.0946,1.8515 L 42.1086,1.8936 L 42.1644,1.9778 L 42.2482,2.0339 L 42.2901,2.0479 L 43.3233,2.0479 L 43.3651,2.0339 L 43.4489,1.9778 L 43.5048,1.8936 L 43.5187,1.8515 L 43.5187,1.7954 Z" stroke="#000000" stroke-width="0.1193" stroke-linecap="round" stroke-linejoin="round" fill="#000000"/>
        <path d="M 45.6968,1.7954 L 45.6968,1.7393 L 45.6828,1.6972 L 45.6270,1.6131 L 45.5432,1.5570 L 45.5013,1.5429 L 44.4681,1.5429 L 44.4262,1.5570 L 44.3425,1.6131 L 44.2866,1.6972 L 44.2727,1.7393 L 44.2727,1.8515 L 44.2866,1.8936 L 44.3425,1.9778 L 44.4262,2.0339 L 44.4681,2.0479 L 45.5013,2.0479 L 45.5432,2.0339 L 45.6270,1.9778 L 45.6828,1.8936 L 45.6968,1.8515 L 45.6968,1.7954 Z" stroke="#000000" stroke-width="0.1193" stroke-linecap="round" stroke-linejoin="round" fill="#000000"/>
        <path d="M 47.8608,1.7954 L 47.8608,1.7393 L 47.8469,1.6972 L 47.7910,1.6131 L 47.7072,1.5570 L 47.6654,1.5429 L 46.6322,1.5429 L 46.5903,1.5570 L 46.5065,1.6131 L 46.4507,1.6972 L 46.4367,1.7393 L 46.4367,1.8515 L 46.4507,1.8936 L 46.5065,1.9778 L 46.5903,2.0339 L 46.6322,2.0479 L 47.6654,2.0479 L 47.7072,2.0339 L 47.7910,1.9778 L 47.8469,1.8936 L 47.8608,1.8515 L 47.8608,1.7954 Z" stroke="#000000" stroke-width="0.1193" stroke-linecap="round" stroke-linejoin="round" fill="#000000"/>
        <path d="M 50.0389,1.7954 L 50.0389,1.7393 L 50.0249,1.6972 L 49.9691,1.6131 L 49.8853,1.5570 L 49.8434,1.5429 L 48.8102,1.5429 L 48.7683,1.5570 L 48.6846,1.6131 L 48.6287,1.6972 L 48.6148,1.7393 L 48.6148,1.8515 L 48.6287,1.8936 L 48.6846,1.9778 L 48.7683,2.0339 L 48.8102,2.0479 L 49.8434,2.0479 L 49.8853,2.0339 L 49.9691,1.9778 L 50.0249,1.8936 L 50.0389,1.8515 L 50.0389,1.7954 Z" stroke="#000000" stroke-width="0.1193" stroke-linecap="round" stroke-linejoin="round" fill="#000000"/>
        <path d="M 8.7819,0.8136 L 8.7819,0.7574 L 8.7680,0.7154 L 8.7121,0.6312 L 8.6284,0.5751 L 8.5865,0.5611 L 7.5533,0.5611 L 7.5114,0.5751 L 7.4276,0.6312 L 7.3718,0.7154 L 7.3578,0.7574 L 7.3578,0.8697 L 7.3718,0.9117 L 7.4276,0.9959 L 7.5114,1.0520 L 7.5533,1.0660 L 8.5865,1.0660 L 8.6284,1.0520 L 8.7121,0.9959 L 8.7680,0.9117 L 8.7819,0.8697 L 8.7819,0.8136 Z" stroke="#000000" stroke-width="0.1193" stroke-linecap="round" stroke-linejoin="round" fill="#000000"/>
        <path d="M 10.9600,0.8136 L 10.9600,0.7574 L 10.9460,0.7154 L 10.8902,0.6312 L 10.8064,0.5751 L 10.7645,0.5611 L 9.7313,0.5611 L 9.6894,0.5751 L 9.6057,0.6312 L 9.5498,0.7154 L 9.5359,0.7574 L 9.5359,0.8697 L 9.5498,0.9117 L 9.6057,0.9959 L 9.6894,1.0520 L 9.7313,1.0660 L 10.7645,1.0660 L 10.8064,1.0520 L 10.8902,0.9959 L 10.9460,0.9117 L 10.9600,0.8697 L 10.9600,0.8136 Z" stroke="#000000" stroke-width="0.1193" stroke-linecap="round" stroke-linejoin="round" fill="#000000"/>
        <path d="M 13.1240,0.8136 L 13.1240,0.7574 L 13.1101,0.7154 L 13.0542,0.6312 L 12.9705,0.5751 L 12.9286,0.5611 L 11.8954,0.5611 L 11.8535,0.5751 L 11.7697,0.6312 L 11.7139,0.7154 L 11.6999,0.7574 L 11.6999,0.8697 L 11.7139,0.9117 L 11.7697,0.9959 L 11.8535,1.0520 L 11.8954,1.0660 L 12.9286,1.0660 L 12.9705,1.0520 L 13.0542,0.9959 L 13.1101,0.9117 L 13.1240,0.8697 L 13.1240,0.8136 Z" stroke="#000000" stroke-width="0.1193" stroke-linecap="round" stroke-linejoin="round" fill="#000000"/>
        <path d="M 15.3021,0.8136 L 15.3021,0.7574 L 15.2881,0.7154 L 15.2323,0.6312 L 15.1485,0.5751 L 15.1066,0.5611 L 14.0734,0.5611 L 14.0315,0.5751 L 13.9478,0.6312 L 13.8919,0.7154 L 13.8780,0.7574 L 13.8780,0.8697 L 13.8919,0.9117 L 13.9478,0.9959 L 14.0315,1.0520 L 14.0734,1.0660 L 15.1066,1.0660 L 15.1485,1.0520 L 15.2323,0.9959 L 15.2881,0.9117 L 15.3021,0.8697 L 15.3021,0.8136 Z" stroke="#000000" stroke-width="0.1193" stroke-linecap="round" stroke-linejoin="round" fill="#000000"/>
        <path d="M 17.4661,0.8136 L 17.4661,0.7574 L 17.4522,0.7154 L 17.3963,0.6312 L 17.3126,0.5751 L 17.2707,0.5611 L 16.2375,0.5611 L 16.1956,0.5751 L 16.1118,0.6312 L 16.0560,0.7154 L 16.0420,0.7574 L 16.0420,0.8697 L 16.0560,0.9117 L 16.1118,0.9959 L 16.1956,1.0520 L 16.2375,1.0660 L 17.2707,1.0660 L 17.3126,1.0520 L 17.3963,0.9959 L 17.4522,0.9117 L 17.4661,0.8697 L 17.4661,0.8136 Z" stroke="#000000" stroke-width="0.1193" stroke-linecap="round" stroke-linejoin="round" fill="#000000"/>
        <path d="M 19.6442,0.8136 L 19.6442,0.7574 L 19.6302,0.7154 L 19.5744,0.6312 L 19.4906,0.5751 L 19.4487,0.5611 L 18.4155,0.5611 L 18.3736,0.5751 L 18.2899,0.6312 L 18.2340,0.7154 L 18.2201,0.7574 L 18.2201,0.8697 L 18.2340,0.9117 L 18.2899,0.9959 L 18.3736,1.0520 L 18.4155,1.0660 L 19.4487,1.0660 L 19.4906,1.0520 L 19.5744,0.9959 L 19.6302,0.9117 L 19.6442,0.8697 L 19.6442,0.8136 Z" stroke="#000000" stroke-width="0.1193" stroke-linecap="round" stroke-linejoin="round" fill="#000000"/>
        <path d="M 21.8082,0.8136 L 21.8082,0.7574 L 21.7943,0.7154 L 21.7384,0.6312 L 21.6547,0.5751 L 21.6128,0.5611 L 20.5796,0.5611 L 20.5377,0.5751 L 20.4539,0.6312 L 20.3981,0.7154 L 20.3841,0.7574 L 20.3841,0.8697 L 20.3981,0.9117 L 20.4539,0.9959 L 20.5377,1.0520 L 20.5796,1.0660 L 21.6128,1.0660 L 21.6547,1.0520 L 21.7384,0.9959 L 21.7943,0.9117 L 21.8082,0.8697 L 21.8082,0.8136 Z" stroke="#000000" stroke-width="0.1193" stroke-linecap="round" stroke-linejoin="round" fill="#000000"/>
        <path d="M 23.9863,0.8136 L 23.9863,0.7574 L 23.9723,0.7154 L 23.9165,0.6312 L 23.8327,0.5751 L 23.7908,0.5611 L 22.7576,0.5611 L 22.7157,0.5751 L 22.6320,0.6312 L 22.5761,0.7154 L 22.5622,0.7574 L 22.5622,0.8697 L 22.5761,0.9117 L 22.6320,0.9959 L 22.7157,1.0520 L 22.7576,1.0660 L 23.7908,1.0660 L 23.8327,1.0520 L 23.9165,0.9959 L 23.9723,0.9117 L 23.9863,0.8697 L 23.9863,0.8136 Z" stroke="#000000" stroke-width="0.1193" stroke-linecap="round" stroke-linejoin="round" fill="#000000"/>
        <path d="M 26.1503,0.8136 L 26.1503,0.7574 L 26.1364,0.7154 L 26.0805,0.6312 L 25.9968,0.5751 L 25.9549,0.5611 L 24.9217,0.5611 L 24.8798,0.5751 L 24.7960,0.6312 L 24.7402,0.7154 L 24.7262,0.7574 L 24.7262,0.8697 L 24.7402,0.9117 L 24.7960,0.9959 L 24.8798,1.0520 L 24.9217,1.0660 L 25.9549,1.0660 L 25.9968,1.0520 L 26.0805,0.9959 L 26.1364,0.9117 L 26.1503,0.8697 L 26.1503,0.8136 Z" stroke="#000000" stroke-width="0.1193" stroke-linecap="round" stroke-linejoin="round" fill="#000000"/>
        <path d="M 28.3284,0.8136 L 28.3284,0.7574 L 28.3144,0.7154 L 28.2586,0.6312 L 28.1748,0.5751 L 28.1329,0.5611 L 27.0997,0.5611 L 27.0578,0.5751 L 26.9741,0.6312 L 26.9182,0.7154 L 26.9043,0.7574 L 26.9043,0.8697 L 26.9182,0.9117 L 26.9741,0.9959 L 27.0578,1.0520 L 27.0997,1.0660 L 28.1329,1.0660 L 28.1748,1.0520 L 28.2586,0.9959 L 28.3144,0.9117 L 28.3284,0.8697 L 28.3284,0.8136 Z" stroke="#000000" stroke-width="0.1193" stroke-linecap="round" stroke-linejoin="round" fill="#000000"/>
        <path d="M 32.6705,0.8136 L 32.6705,0.7574 L 32.6565,0.7154 L 32.6007,0.6312 L 32.5169,0.5751 L 32.4750,0.5611 L 31.4418,0.5611 L 31.3999,0.5751 L 31.3162,0.6312 L 31.2603,0.7154 L 31.2464,0.7574 L 31.2464,0.8697 L 31.2603,0.9117 L 31.3162,0.9959 L 31.3999,1.0520 L 31.4418,1.0660 L 32.4750,1.0660 L 32.5169,1.0520 L 32.6007,0.9959 L 32.6565,0.9117 L 32.6705,0.8697 L 32.6705,0.8136 Z" stroke="#000000" stroke-width="0.1193" stroke-linecap="round" stroke-linejoin="round" fill="#000000"/>
        <path d="M 34.8345,0.8136 L 34.8345,0.7574 L 34.8206,0.7154 L 34.7647,0.6312 L 34.6810,0.5751 L 34.6391,0.5611 L 33.6059,0.5611 L 33.5640,0.5751 L 33.4802,0.6312 L 33.4244,0.7154 L 33.4104,0.7574 L 33.4104,0.8697 L 33.4244,0.9117 L 33.4802,0.9959 L 33.5640,1.0520 L 33.6059,1.0660 L 34.6391,1.0660 L 34.6810,1.0520 L 34.7647,0.9959 L 34.8206,0.9117 L 34.8345,0.8697 L 34.8345,0.8136 Z" stroke="#000000" stroke-width="0.1193" stroke-linecap="round" stroke-linejoin="round" fill="#000000"/>
        <path d="M 37.0126,0.8136 L 37.0126,0.7574 L 36.9986,0.7154 L 36.9428,0.6312 L 36.8590,0.5751 L 36.8171,0.5611 L 35.7839,0.5611 L 35.7420,0.5751 L 35.6583,0.6312 L 35.6024,0.7154 L 35.5885,0.7574 L 35.5885,0.8697 L 35.6024,0.9117 L 35.6583,0.9959 L 35.7420,1.0520 L 35.7839,1.0660 L 36.8171,1.0660 L 36.8590,1.0520 L 36.9428,0.9959 L 36.9986,0.9117 L 37.0126,0.8697 L 37.0126,0.8136 Z" stroke="#000000" stroke-width="0.1193" stroke-linecap="round" stroke-linejoin="round" fill="#000000"/>
        <path d="M 39.1766,0.8136 L 39.1766,0.7574 L 39.1627,0.7154 L 39.1068,0.6312 L 39.0230,0.5751 L 38.9812,0.5611 L 37.9480,0.5611 L 37.9061,0.5751 L 37.8223,0.6312 L 37.7665,0.7154 L 37.7525,0.7574 L 37.7525,0.8697 L 37.7665,0.9117 L 37.8223,0.9959 L 37.9061,1.0520 L 37.9480,1.0660 L 38.9812,1.0660 L 39.0230,1.0520 L 39.1068,0.9959 L 39.1627,0.9117 L 39.1766,0.8697 L 39.1766,0.8136 Z" stroke="#000000" stroke-width="0.1193" stroke-linecap="round" stroke-linejoin="round" fill="#000000"/>
        <path d="M 41.3547,0.8136 L 41.3547,0.7574 L 41.3407,0.7154 L 41.2849,0.6312 L 41.2011,0.5751 L 41.1592,0.5611 L 40.1260,0.5611 L 40.0841,0.5751 L 40.0004,0.6312 L 39.9445,0.7154 L 39.9306,0.7574 L 39.9306,0.8697 L 39.9445,0.9117 L 40.0004,0.9959 L 40.0841,1.0520 L 40.1260,1.0660 L 41.1592,1.0660 L 41.2011,1.0520 L 41.2849,0.9959 L 41.3407,0.9117 L 41.3547,0.8697 L 41.3547,0.8136 Z" stroke="#000000" stroke-width="0.1193" stroke-linecap="round" stroke-linejoin="round" fill="#000000"/>
        <path d="M 43.5187,0.8136 L 43.5187,0.7574 L 43.5048,0.7154 L 43.4489,0.6312 L 43.3651,0.5751 L 43.3233,0.5611 L 42.2901,0.5611 L 42.2482,0.5751 L 42.1644,0.6312 L 42.1086,0.7154 L 42.0946,0.7574 L 42.0946,0.8697 L 42.1086,0.9117 L 42.1644,0.9959 L 42.2482,1.0520 L 42.2901,1.0660 L 43.3233,1.0660 L 43.3651,1.0520 L 43.4489,0.9959 L 43.5048,0.9117 L 43.5187,0.8697 L 43.5187,0.8136 Z" stroke="#000000" stroke-width="0.1193" stroke-linecap="round" stroke-linejoin="round" fill="#000000"/>
        <path d="M 45.6968,0.8136 L 45.6968,0.7574 L 45.6828,0.7154 L 45.6270,0.6312 L 45.5432,0.5751 L 45.5013,0.5611 L 44.4681,0.5611 L 44.4262,0.5751 L 44.3425,0.6312 L 44.2866,0.7154 L 44.2727,0.7574 L 44.2727,0.8697 L 44.2866,0.9117 L 44.3425,0.9959 L 44.4262,1.0520 L 44.4681,1.0660 L 45.5013,1.0660 L 45.5432,1.0520 L 45.6270,0.9959 L 45.6828,0.9117 L 45.6968,0.8697 L 45.6968,0.8136 Z" stroke="#000000" stroke-width="0.1193" stroke-linecap="round" stroke-linejoin="round" fill="#000000"/>
        <path d="M 47.8608,0.8136 L 47.8608,0.7574 L 47.8469,0.7154 L 47.7910,0.6312 L 47.7072,0.5751 L 47.6654,0.5611 L 46.6322,0.5611 L 46.5903,0.5751 L 46.5065,0.6312 L 46.4507,0.7154 L 46.4367,0.7574 L 46.4367,0.8697 L 46.4507,0.9117 L 46.5065,0.9959 L 46.5903,1.0520 L 46.6322,1.0660 L 47.6654,1.0660 L 47.7072,1.0520 L 47.7910,0.9959 L 47.8469,0.9117 L 47.8608,0.8697 L 47.8608,0.8136 Z" stroke="#000000" stroke-width="0.1193" stroke-linecap="round" stroke-linejoin="round" fill="#000000"/>
        <path d="M 50.0389,0.8136 L 50.0389,0.7574 L 50.0249,0.7154 L 49.9691,0.6312 L 49.8853,0.5751 L 49.8434,0.5611 L 48.8102,0.5611 L 48.7683,0.5751 L 48.6846,0.6312 L 48.6287,0.7154 L 48.6148,0.7574 L 48.6148,0.8697 L 48.6287,0.9117 L 48.6846,0.9959 L 48.7683,1.0520 L 48.8102,1.0660 L 49.8434,1.0660 L 49.8853,1.0520 L 49.9691,0.9959 L 50.0249,0.9117 L 50.0389,0.8697 L 50.0389,0.8136 Z" stroke="#000000" stroke-width="0.1193" stroke-linecap="round" stroke-linejoin="round" fill="#000000"/>
        <ellipse cx="2.3456" cy="6.2209" rx="0.2234" ry="0.2174" fill="#000000" stroke="#000000" stroke-width="0.1193" stroke-linecap="round" stroke-linejoin="round"/>
        <ellipse cx="2.3456" cy="6.2209" rx="0.2234" ry="0.2174" fill="none" stroke="#000000" stroke-width="0.1193" stroke-linecap="round" stroke-linejoin="round"/>
        <ellipse cx="2.3386" cy="6.2279" rx="0.1606" ry="0.1683" fill="#333333" stroke="#000000" stroke-width="0.1193" stroke-linecap="round" stroke-linejoin="round"/>
        <ellipse cx="2.3386" cy="6.2279" rx="0.1606" ry="0.1683" fill="none" stroke="#000000" stroke-width="0.1193" stroke-linecap="round" stroke-linejoin="round"/>
        <path d="M 14.7017,2.9176 L 10.1502,2.9176 L 10.1502,6.7889 L 14.7017,6.7889 L 14.7017,2.9176 Z" stroke="#000000" stroke-width="0.1193" stroke-linecap="round" stroke-linejoin="round" fill="#666666"/>
        <path d="M 56.2798,2.9176 L 36.5379,2.9176 L 36.5379,6.7889 L 56.2798,6.7889 L 56.2798,2.9176 Z" stroke="#000000" stroke-width="0.1193" stroke-linecap="round" stroke-linejoin="round" fill="#666666"/>
        <path d="M 14.5900,3.0157 L 10.2619,3.0157 L 10.2619,6.6908 L 14.5900,6.6908 L 14.5900,3.0157 Z" stroke="#000000" stroke-width="0.1193" stroke-linecap="round" stroke-linejoin="round" fill="#BFBFBF"/>
        <path d="M 56.1681,3.0157 L 36.6496,3.0157 L 36.6496,6.6908 L 56.1681,6.6908 L 56.1681,3.0157 Z" stroke="#000000" stroke-width="0.1193" stroke-linecap="round" stroke-linejoin="round" fill="#BFBFBF"/>
        <path d="M 31.2464,8.3179 L 31.0509,8.3179 L 31.0509,8.3038 L 31.0230,8.3038 L 31.0230,8.2898 L 31.0090,8.2898 L 30.9951,8.2758 L 30.9951,8.2618 L 30.9811,8.2618 L 30.9811,8.2477 L 30.9671,8.2337 L 30.9671,8.1636 L 30.9811,8.1636 L 30.9811,8.1355 L 30.9951,8.1355 L 30.9951,8.1215 L 31.0090,8.1215 L 31.0090,8.1075 L 31.0230,8.1075 L 31.0230,8.0934 L 31.0509,8.0934 L 31.0509,8.0794 L 31.3581,8.0794 L 31.3720,8.0934 L 31.3860,8.0934 L 31.3860,8.1075 L 31.3999,8.1075 L 31.4139,8.1215 L 31.4139,8.1355 L 31.4279,8.1355 L 31.4279,8.1636 L 31.4418,8.1636 L 31.4418,8.2337 L 31.4279,8.2337 L 31.4279,8.2618 L 31.4139,8.2618 L 31.4139,8.2898 L 31.3999,8.2898 L 31.3999,8.3038 " stroke="#000000" stroke-width="0.1193" stroke-linecap="round" stroke-linejoin="round" fill="none"/>
        <path d="M 31.5256,8.1495 L 31.7211,8.1495 L 31.7211,8.1636 L 31.7490,8.1636 L 31.7490,8.1776 L 31.7629,8.1776 L 31.7629,8.1916 L 31.7769,8.1916 L 31.7769,8.2056 L 31.7909,8.2056 L 31.7909,8.2197 L 31.8048,8.2337 L 31.8048,8.3038 L 31.7909,8.3038 L 31.7909,8.3319 L 31.7769,8.3319 L 31.7769,8.3459 L 31.7629,8.3459 L 31.7629,8.3599 L 31.7490,8.3599 L 31.7490,8.3740 L 31.7211,8.3740 L 31.7211,8.3880 L 31.4139,8.3880 L 31.3999,8.3740 L 31.3860,8.3740 L 31.3860,8.3599 L 31.3720,8.3599 L 31.3720,8.3459 L 31.3581,8.3459 L 31.3581,8.3319 L 31.3441,8.3319 L 31.3441,8.3038 L 31.3301,8.3038 L 31.3301,8.2197 L 31.3441,8.2197 L 31.3441,8.1916 L 31.3581,8.1916 L 31.3581,8.1776 L 31.3720,8.1636 " stroke="#000000" stroke-width="0.1193" stroke-linecap="round" stroke-linejoin="round" fill="none"/>
        <path d="M 52.2029,1.7954 L 52.2029,1.7393 L 52.1890,1.6972 L 52.1331,1.6131 L 52.0493,1.5570 L 52.0075,1.5429 L 50.9743,1.5429 L 50.9324,1.5570 L 50.8486,1.6131 L 50.7928,1.6972 L 50.7788,1.7393 L 50.7788,1.8515 L 50.7928,1.8936 L 50.8486,1.9778 L 50.9324,2.0339 L 50.9743,2.0479 L 52.0075,2.0479 L 52.0493,2.0339 L 52.1331,1.9778 L 52.1890,1.8936 L 52.2029,1.8515 L 52.2029,1.7954 Z" stroke="#000000" stroke-width="0.1193" stroke-linecap="round" stroke-linejoin="round" fill="#000000"/>
        <path d="M 52.2029,0.8136 L 52.2029,0.7574 L 52.1890,0.7154 L 52.1331,0.6312 L 52.0493,0.5751 L 52.0075,0.5611 L 50.9743,0.5611 L 50.9324,0.5751 L 50.8486,0.6312 L 50.7928,0.7154 L 50.7788,0.7574 L 50.7788,0.8697 L 50.7928,0.9117 L 50.8486,0.9959 L 50.9324,1.0520 L 50.9743,1.0660 L 52.0075,1.0660 L 52.0493,1.0520 L 52.1331,0.9959 L 52.1890,0.9117 L 52.2029,0.8697 L 52.2029,0.8136 Z" stroke="#000000" stroke-width="0.1193" stroke-linecap="round" stroke-linejoin="round" fill="#000000"/>
        <path d="M 54.3670,1.7954 L 54.3670,1.7393 L 54.3530,1.6972 L 54.2972,1.6131 L 54.2134,1.5570 L 54.1715,1.5429 L 53.1384,1.5429 L 53.0965,1.5570 L 53.0127,1.6131 L 52.9569,1.6972 L 52.9429,1.7393 L 52.9429,1.8515 L 52.9569,1.8936 L 53.0127,1.9778 L 53.0965,2.0339 L 53.1384,2.0479 L 54.1715,2.0479 L 54.2134,2.0339 L 54.2972,1.9778 L 54.3530,1.8936 L 54.3670,1.8515 L 54.3670,1.7954 Z" stroke="#000000" stroke-width="0.1193" stroke-linecap="round" stroke-linejoin="round" fill="#000000"/>
        <path d="M 54.3670,0.8136 L 54.3670,0.7574 L 54.3530,0.7154 L 54.2972,0.6312 L 54.2134,0.5751 L 54.1715,0.5611 L 53.1384,0.5611 L 53.0965,0.5751 L 53.0127,0.6312 L 52.9569,0.7154 L 52.9429,0.7574 L 52.9429,0.8697 L 52.9569,0.9117 L 53.0127,0.9959 L 53.0965,1.0520 L 53.1384,1.0660 L 54.1715,1.0660 L 54.2134,1.0520 L 54.2972,0.9959 L 54.3530,0.9117 L 54.3670,0.8697 L 54.3670,0.8136 Z" stroke="#000000" stroke-width="0.1193" stroke-linecap="round" stroke-linejoin="round" fill="#000000"/>
        <path d="M 35.7281,2.9176 L 15.9862,2.9176 L 15.9862,6.7889 L 35.7281,6.7889 L 35.7281,2.9176 Z" stroke="#000000" stroke-width="0.1193" stroke-linecap="round" stroke-linejoin="round" fill="#666666"/>
        <path d="M 35.6164,3.0157 L 16.0979,3.0157 L 16.0979,6.6908 L 35.6164,6.6908 L 35.6164,3.0157 Z" stroke="#000000" stroke-width="0.1193" stroke-linecap="round" stroke-linejoin="round" fill="#BFBFBF"/>
        <path d="M 32.0841,8.2337 L 32.7542,8.2337 " stroke="#000000" stroke-width="0.1193" stroke-linecap="round" stroke-linejoin="round" fill="none"/>
        <path d="M 30.0317,8.2337 L 30.7019,8.2337 " stroke="#000000" stroke-width="0.1193" stroke-linecap="round" stroke-linejoin="round" fill="none"/>
        <path d="M 1.1314,5.3467 L 1.1314,6.0678 " stroke="#000000" stroke-width="0.1193" stroke-linecap="round" stroke-linejoin="round" fill="none"/>
        <path d="M 0.6146,6.2174 L 1.6482,6.2174 " stroke="#000000" stroke-width="0.1193" stroke-linecap="round" stroke-linejoin="round" fill="none"/>
        <path d="M 0.7822,6.3807 L 1.4946,6.3807 " stroke="#000000" stroke-width="0.1193" stroke-linecap="round" stroke-linejoin="round" fill="none"/>
        <path d="M 0.7822,6.3807 L 1.4946,6.3807 " stroke="#000000" stroke-width="0.1193" stroke-linecap="round" stroke-linejoin="round" fill="none"/>
        <path d="M 0.9638,6.5576 L 1.2990,6.5576 " stroke="#000000" stroke-width="0.1193" stroke-linecap="round" stroke-linejoin="round" fill="none"/>
        <text font-family="Arial" fill="#000000" style="white-space:pre;" font-weight="400" text-anchor="start" x="5.0844" y="7.5498" font-size="0.1956"><![CDATA[WAN2]]></text>
        <text font-family="Arial" fill="#000000" style="white-space:pre;" font-weight="400" text-anchor="start" x="6.0482" y="7.5498" font-size="0.1956"><![CDATA[WAN1]]></text>
        <text font-family="Arial" fill="#000000" style="white-space:pre;" font-weight="400" text-anchor="start" x="7.0818" y="7.5498" font-size="0.1956"><![CDATA[DMZ]]></text>
        <text font-family="Arial" fill="#000000" style="white-space:pre;" font-weight="400" text-anchor="start" x="14.2754" y="7.5614" font-size="0.2235"><![CDATA[1]]></text>
        <text font-family="Arial" fill="#000000" style="white-space:pre;" font-weight="400" text-anchor="start" x="10.4342" y="7.5614" font-size="0.2235"><![CDATA[5]]></text>
        <text font-family="Arial" fill="#000000" style="white-space:pre;" font-weight="400" text-anchor="start" x="11.3980" y="7.5614" font-size="0.2235"><![CDATA[4]]></text>
        <text font-family="Arial" fill="#000000" style="white-space:pre;" font-weight="400" text-anchor="start" x="12.3618" y="7.5614" font-size="0.2235"><![CDATA[3]]></text>
        <text font-family="Arial" fill="#000000" style="white-space:pre;" font-weight="400" text-anchor="start" x="13.3116" y="7.5614" font-size="0.2235"><![CDATA[2]]></text>
        <text font-family="Arial" fill="#000000" style="white-space:pre;" font-weight="400" text-anchor="start" x="9.1212" y="7.5614" font-size="0.2235"><![CDATA[A]]></text>
        <text font-family="Arial" fill="#000000" style="white-space:pre;" font-weight="400" text-anchor="start" x="8.1574" y="7.5614" font-size="0.2235"><![CDATA[B]]></text>
        <text font-family="Arial" fill="#000000" style="white-space:pre;" font-weight="400" text-anchor="start" x="3.4641" y="7.5498" font-size="0.1956"><![CDATA[CONSOLE]]></text>
        <text font-family="Arial" fill="#000000" style="white-space:pre;" font-weight="400" text-anchor="start" x="2.6400" y="7.5498" font-size="0.1956"><![CDATA[USB]]></text>
        <text font-family="Arial" fill="#000000" style="white-space:pre;" font-weight="400" text-anchor="start" x="1.7740" y="7.5498" font-size="0.1956"><![CDATA[DC+12V]]></text>
        <text font-family="Arial" fill="#000000" style="white-space:pre;" font-weight="400" text-anchor="start" x="1.2152" y="7.2809" font-size="0.1536"><![CDATA[RESET]]></text>
        <ellipse cx="2.2895" cy="4.3349" rx="0.6209" ry="0.6248" fill="#666666" stroke="#000000" stroke-width="0.1193" stroke-linecap="round" stroke-linejoin="round"/>
        <ellipse cx="2.2895" cy="4.3349" rx="0.6209" ry="0.6248" fill="none" stroke="#000000" stroke-width="0.1193" stroke-linecap="round" stroke-linejoin="round"/>
        <ellipse cx="2.2895" cy="4.3349" rx="0.5627" ry="0.5663" fill="#7F7F7F" stroke="#000000" stroke-width="0.1193" stroke-linecap="round" stroke-linejoin="round"/>
        <ellipse cx="2.2895" cy="4.3349" rx="0.5627" ry="0.5663" fill="none" stroke="#7F7F7F" stroke-width="0.1193" stroke-linecap="round" stroke-linejoin="round"/>
        <path d="M 1.8626,4.2958 L 1.8432,4.2958 L 1.8238,4.3153 L 1.8238,4.3349 L 1.8044,4.3349 L 1.8044,4.4520 L 1.8238,4.4520 L 1.8238,4.4716 L 1.8432,4.4911 L 2.2507,4.4911 L 2.2507,4.9207 L 2.2701,4.9207 L 2.2701,4.9402 L 2.2895,4.9402 L 2.2895,4.9597 L 2.4059,4.9597 L 2.4059,4.9402 L 2.4253,4.9402 L 2.4253,4.9207 L 2.4447,4.9207 L 2.4447,4.4911 L 2.8715,4.4911 L 2.8715,4.4716 L 2.8909,4.4716 L 2.8909,4.4520 L 2.9103,4.4520 L 2.9103,4.3349 L 2.8909,4.3349 L 2.8909,4.3153 L 2.8715,4.3153 L 2.8715,4.2958 L 2.4447,4.2958 L 2.4447,3.8858 L 2.4253,3.8662 L 2.4059,3.8662 L 2.4059,3.8467 L 2.2895,3.8467 L 2.2895,3.8662 L 2.2701,3.8662 L 2.2507,3.8858 L 2.2507,4.2958 L 1.8820,4.2958 L 1.8626,4.2958 Z" stroke="#161616" stroke-width="0.1193" stroke-linecap="round" stroke-linejoin="round" fill="#494949"/>
        <path d="M 1.7850,4.3544 L 1.7850,4.4520 L 1.8044,4.4716 L 1.8238,4.4716 L 1.8238,4.4911 L 2.2507,4.4911 L 2.2507,4.9402 L 2.2701,4.9597 L 2.2895,4.9597 L 2.2895,4.9792 L 2.3477,4.9792 L 2.3671,4.9792 " stroke="#BFBFBF" stroke-width="0.1193" stroke-linecap="round" stroke-linejoin="round" fill="none"/>
        <path d="M 2.2507,3.8858 L 2.2507,4.2763 L 2.2507,4.2958 " stroke="#BFBFBF" stroke-width="0.1193" stroke-linecap="round" stroke-linejoin="round" fill="none"/>
        <path d="M 6.0584,2.6357 L 6.0584,2.6044 L 6.0431,2.6044 L 6.0431,2.5730 L 6.0278,2.5730 L 6.0278,2.5573 L 6.0124,2.5573 L 5.9971,2.5416 L 5.9818,2.5416 L 5.9664,2.5259 L 5.8591,2.5259 L 5.8591,2.5416 L 5.8284,2.5416 L 5.8130,2.5573 L 5.7977,2.5573 L 5.7977,2.5730 L 5.7824,2.5730 L 5.7824,2.6044 L 5.7670,2.6044 L 5.7670,3.3731 L 5.7517,3.3888 L 5.7517,3.4202 L 5.7364,3.4359 L 5.7364,3.4516 L 5.7210,3.4516 L 5.7210,3.4672 L 5.6750,3.5143 L 5.6597,3.5143 L 5.6597,3.5300 L 5.6443,3.5300 L 5.6290,3.5457 L 5.5983,3.5457 L 5.5983,3.5614 L 5.5676,3.5614 L 5.5523,3.5771 L 5.0308,3.5771 L 5.0155,3.5614 L 4.9848,3.5614 L 4.9848,3.5457 L 4.9541,3.5457 L 4.9388,3.5300 L 4.9234,3.5300 L 4.9234,3.5143 L 4.9081,3.5143 L 4.8621,3.4672 L 4.8621,3.4516 L 4.8468,3.4516 L 4.8468,3.4359 L 4.8314,3.4202 L 4.8314,3.3888 L 4.8161,3.3731 L 4.8161,2.6044 L 4.8007,2.6044 L 4.8007,2.5730 L 4.7854,2.5730 L 4.7854,2.5573 L 4.7701,2.5573 L 4.7547,2.5416 L 4.7241,2.5416 L 4.7241,2.5259 L 4.6167,2.5259 L 4.6014,2.5416 L 4.5860,2.5416 L 4.5707,2.5573 L 4.5553,2.5573 L 4.5553,2.5730 L 4.5400,2.5730 L 4.5400,2.6044 L 4.5247,2.6044 L 4.5247,6.8247 L 6.0584,6.8247 L 6.0584,2.6514 L 6.0584,2.6357 Z" stroke="#000000" stroke-width="0.1193" stroke-linecap="round" stroke-linejoin="round" fill="#494949"/>
        <path d="M 5.9051,4.0477 L 4.6780,4.0477 L 4.6780,6.7148 L 5.9051,6.7148 L 5.9051,4.0477 Z" stroke="#000000" stroke-width="0.1193" stroke-linecap="round" stroke-linejoin="round" fill="#666666"/>
        <path d="M 5.7670,5.4911 L 4.8161,5.4911 L 4.8161,6.4638 L 5.7670,6.4638 L 5.7670,5.4911 Z" stroke="#000000" stroke-width="0.1193" stroke-linecap="round" stroke-linejoin="round" fill="#333333"/>
        <path d="M 5.7670,4.3144 L 4.8161,4.3144 L 4.8161,5.0518 L 5.0462,5.2872 L 5.5523,5.2872 L 5.7670,5.0675 L 5.7670,4.3144 Z" stroke="#000000" stroke-width="0.1193" stroke-linecap="round" stroke-linejoin="round" fill="#333333"/>
        <path d="M 5.4143,5.8519 L 5.1689,5.8519 L 5.1689,6.1030 L 5.4143,6.1030 L 5.4143,5.8519 Z" stroke="#000000" stroke-width="0.1193" stroke-linecap="round" stroke-linejoin="round" fill="#EAEAEA"/>
        <path d="M 5.4143,4.6753 L 5.1689,4.6753 L 5.1689,4.9263 L 5.4143,4.9263 L 5.4143,4.6753 Z" stroke="#000000" stroke-width="0.1193" stroke-linecap="round" stroke-linejoin="round" fill="#EAEAEA"/>
        <path d="M 5.6290,3.8438 L 4.9541,3.8438 L 4.9541,4.0477 L 5.6290,4.0477 L 5.6290,3.8438 Z" stroke="#000000" stroke-width="0.1193" stroke-linecap="round" stroke-linejoin="round" fill="#7F7F7F"/>
        <path d="M 5.7670,2.8868 L 4.8161,2.8868 L 4.8161,3.3574 L 4.8314,3.3731 L 4.8314,3.4045 L 4.8468,3.4202 L 4.8468,3.4359 L 4.8774,3.4672 L 4.8774,3.4829 L 4.8928,3.4829 L 4.8928,3.4986 L 4.9081,3.4986 L 4.9234,3.5143 L 4.9234,3.5300 L 4.9541,3.5300 L 4.9695,3.5457 L 4.9848,3.5457 L 4.9848,3.5614 L 5.0308,3.5614 L 5.0462,3.5771 L 5.5370,3.5771 L 5.5523,3.5614 L 5.5983,3.5614 L 5.5983,3.5457 L 5.6137,3.5457 L 5.6290,3.5300 L 5.6597,3.5300 L 5.6597,3.5143 L 5.6750,3.4986 L 5.6903,3.4986 L 5.6903,3.4829 L 5.7057,3.4829 L 5.7057,3.4672 L 5.7364,3.4359 L 5.7364,3.4202 L 5.7517,3.4045 L 5.7517,3.3731 L 5.7670,3.3574 L 5.7670,2.9024 L 5.7670,2.8868 Z" stroke="#000000" stroke-width="0.1193" stroke-linecap="round" stroke-linejoin="round" fill="#333333"/>
        <path d="M 8.8558,6.6237 L 8.8558,6.6659 L 8.8418,6.6659 L 8.8418,6.6940 L 8.8279,6.7081 L 8.8279,6.7222 L 8.8139,6.7222 L 8.8139,6.7362 L 8.7999,6.7362 L 8.7999,6.7503 L 8.7860,6.7503 L 8.7720,6.7643 L 8.7441,6.7643 L 8.7441,6.7784 L 7.3752,6.7784 L 7.3752,6.7643 L 7.3472,6.7643 L 7.3333,6.7503 L 7.3193,6.7503 L 7.3193,6.7362 L 7.3053,6.7362 L 7.3053,6.7222 L 7.2914,6.7222 L 7.2914,6.7081 L 7.2774,6.6940 L 7.2774,6.6659 L 7.2634,6.6659 L 7.2634,3.1501 L 7.2774,3.1501 L 7.2774,3.1220 L 7.2914,3.1079 L 7.2914,3.0939 L 7.3053,3.0939 L 7.3053,3.0798 L 7.3193,3.0798 L 7.3193,3.0658 L 7.3333,3.0658 L 7.3472,3.0517 L 7.3752,3.0517 L 7.3752,3.0376 L 8.7441,3.0376 L 8.7441,3.0517 L 8.7720,3.0517 L 8.7860,3.0658 L 8.7999,3.0658 L 8.7999,3.0798 L 8.8139,3.0798 L 8.8139,3.0939 L 8.8279,3.0939 L 8.8279,3.1079 L 8.8418,3.1220 L 8.8418,3.1501 L 8.8558,3.1501 L 8.8558,6.6096 L 8.8558,6.6237 Z" stroke="#000000" stroke-width="0.1193" stroke-linecap="round" stroke-linejoin="round" fill="#BFBFBF"/>
        <path d="M 8.7301,6.5675 L 8.7301,6.6096 L 8.7161,6.6096 L 8.7161,6.6378 L 8.6882,6.6378 L 8.6882,6.6518 L 7.4311,6.6518 L 7.4171,6.6378 L 7.4031,6.6378 L 7.4031,6.6237 L 7.3891,6.6237 L 7.3891,6.6096 L 7.3752,6.5956 L 7.3752,3.2064 L 7.3891,3.2064 L 7.3891,3.1923 L 7.4031,3.1923 L 7.4031,3.1783 L 7.4171,3.1783 L 7.4311,3.1642 L 8.6882,3.1642 L 8.6882,3.1783 L 8.7161,3.1783 L 8.7161,3.2064 L 8.7301,3.2064 L 8.7301,6.5534 L 8.7301,6.5675 Z" stroke="#7F7F7F" stroke-width="0.1193" stroke-linecap="round" stroke-linejoin="round" fill="#000000"/>
        <path d="M 8.0317,5.8221 L 8.0317,6.1315 L 8.1015,6.1315 L 8.1015,5.8221 L 8.0317,5.8221 Z" stroke="#000000" stroke-width="0.1193" stroke-linecap="round" stroke-linejoin="round" fill="#BFBFBF"/>
        <path d="M 8.0317,5.1190 L 8.0317,5.4284 L 8.1015,5.4284 L 8.1015,5.1190 L 8.0317,5.1190 Z" stroke="#000000" stroke-width="0.1193" stroke-linecap="round" stroke-linejoin="round" fill="#BFBFBF"/>
        <path d="M 8.0317,4.4299 L 8.0317,4.7393 L 8.1015,4.7393 L 8.1015,4.4299 L 8.0317,4.4299 Z" stroke="#000000" stroke-width="0.1193" stroke-linecap="round" stroke-linejoin="round" fill="#BFBFBF"/>
        <path d="M 8.0317,3.7127 L 8.0317,4.0220 L 8.1015,4.0220 L 8.1015,3.7127 L 8.0317,3.7127 Z" stroke="#000000" stroke-width="0.1193" stroke-linecap="round" stroke-linejoin="round" fill="#BFBFBF"/>
        <path d="M 8.1853,3.3751 L 8.1574,3.3751 L 8.1295,3.3892 L 8.1155,3.4173 L 8.1155,6.3987 L 8.1295,6.4268 L 8.1574,6.4409 L 8.5066,6.4409 L 8.5345,6.4268 L 8.5485,6.3987 L 8.5485,3.4173 L 8.5345,3.3892 L 8.5066,3.3751 L 8.4787,3.3751 L 8.1853,3.3751 Z" stroke="#000000" stroke-width="0.1193" stroke-linecap="round" stroke-linejoin="round" fill="#0000FF"/>
        <path d="M 8.3250,3.4876 L 8.2691,3.5017 L 8.2133,3.5580 L 8.1993,3.6142 L 8.1993,6.2018 L 8.2133,6.2581 L 8.2691,6.3143 L 8.3250,6.3284 L 8.3809,6.3143 L 8.4368,6.2581 L 8.4507,6.2018 L 8.4507,3.6142 L 8.4368,3.5580 L 8.3809,3.5017 L 8.3250,3.4876 Z" stroke="#3232FF" stroke-width="0.1193" stroke-linecap="round" stroke-linejoin="round" fill="#3232FF"/>
        <path d="M 10.6722,6.2197 L 10.6722,4.0956 L 11.5592,4.0956 L 11.5592,3.5958 L 11.9196,3.5958 L 11.9196,3.0960 L 12.9729,3.0960 L 12.9729,3.5958 L 13.3333,3.5958 L 13.3333,4.0956 L 14.2203,4.0956 L 14.2203,6.2197 L 10.6722,6.2197 Z" stroke="#161616" stroke-width="0.1193" stroke-linecap="round" stroke-linejoin="round" fill="#000000"/>
        <path d="M 52.2936,3.5958 L 52.2936,5.7199 L 53.1807,5.7199 L 53.1807,6.2197 L 53.5410,6.2197 L 53.5410,6.7195 L 54.5944,6.7195 L 54.5944,6.2197 L 54.9548,6.2197 L 54.9548,5.7199 L 55.8418,5.7199 L 55.8418,3.5958 L 52.2936,3.5958 Z" stroke="#161616" stroke-width="0.1193" stroke-linecap="round" stroke-linejoin="round" fill="#000000"/>
        <path d="M 48.4406,3.5958 L 48.4406,5.7199 L 49.3276,5.7199 L 49.3276,6.2197 L 49.6880,6.2197 L 49.6880,6.7195 L 50.7413,6.7195 L 50.7413,6.2197 L 51.1017,6.2197 L 51.1017,5.7199 L 51.9887,5.7199 L 51.9887,3.5958 L 48.4406,3.5958 Z" stroke="#161616" stroke-width="0.1193" stroke-linecap="round" stroke-linejoin="round" fill="#000000"/>
        <path d="M 44.6429,3.5958 L 44.6429,5.7199 L 45.5300,5.7199 L 45.5300,6.2197 L 45.8903,6.2197 L 45.8903,6.7195 L 46.9437,6.7195 L 46.9437,6.2197 L 47.3041,6.2197 L 47.3041,5.7199 L 48.1911,5.7199 L 48.1911,3.5958 L 44.6429,3.5958 Z" stroke="#161616" stroke-width="0.1193" stroke-linecap="round" stroke-linejoin="round" fill="#000000"/>
        <path d="M 40.7899,3.5958 L 40.7899,5.7199 L 41.6769,5.7199 L 41.6769,6.2197 L 42.0373,6.2197 L 42.0373,6.7195 L 43.0906,6.7195 L 43.0906,6.2197 L 43.4510,6.2197 L 43.4510,5.7199 L 44.3380,5.7199 L 44.3380,3.5958 L 40.7899,3.5958 Z" stroke="#161616" stroke-width="0.1193" stroke-linecap="round" stroke-linejoin="round" fill="#000000"/>
        <path d="M 36.9368,3.5958 L 36.9368,5.7199 L 37.8238,5.7199 L 37.8238,6.2197 L 38.1842,6.2197 L 38.1842,6.7195 L 39.2376,6.7195 L 39.2376,6.2197 L 39.5979,6.2197 L 39.5979,5.7199 L 40.4850,5.7199 L 40.4850,3.5958 L 36.9368,3.5958 Z" stroke="#161616" stroke-width="0.1193" stroke-linecap="round" stroke-linejoin="round" fill="#000000"/>
        <path d="M 31.7393,3.5958 L 31.7393,5.7199 L 32.6264,5.7199 L 32.6264,6.2197 L 32.9867,6.2197 L 32.9867,6.7195 L 34.0401,6.7195 L 34.0401,6.2197 L 34.4004,6.2197 L 34.4004,5.7199 L 35.2875,5.7199 L 35.2875,3.5958 L 31.7393,3.5958 Z" stroke="#161616" stroke-width="0.1193" stroke-linecap="round" stroke-linejoin="round" fill="#000000"/>
        <path d="M 27.8862,3.5958 L 27.8862,5.7199 L 28.7733,5.7199 L 28.7733,6.2197 L 29.1336,6.2197 L 29.1336,6.7195 L 30.1870,6.7195 L 30.1870,6.2197 L 30.5474,6.2197 L 30.5474,5.7199 L 31.4344,5.7199 L 31.4344,3.5958 L 27.8862,3.5958 Z" stroke="#161616" stroke-width="0.1193" stroke-linecap="round" stroke-linejoin="round" fill="#000000"/>
        <path d="M 24.0748,3.5958 L 24.0748,5.7199 L 24.9618,5.7199 L 24.9618,6.2197 L 25.3222,6.2197 L 25.3222,6.7195 L 26.3755,6.7195 L 26.3755,6.2197 L 26.7359,6.2197 L 26.7359,5.7199 L 27.6229,5.7199 L 27.6229,3.5958 L 24.0748,3.5958 Z" stroke="#161616" stroke-width="0.1193" stroke-linecap="round" stroke-linejoin="round" fill="#000000"/>
        <path d="M 20.2217,3.5958 L 20.2217,5.7199 L 21.1087,5.7199 L 21.1087,6.2197 L 21.4691,6.2197 L 21.4691,6.7195 L 22.5224,6.7195 L 22.5224,6.2197 L 22.8828,6.2197 L 22.8828,5.7199 L 23.7698,5.7199 L 23.7698,3.5958 L 20.2217,3.5958 Z" stroke="#161616" stroke-width="0.1193" stroke-linecap="round" stroke-linejoin="round" fill="#000000"/>
        <path d="M 16.3686,3.5958 L 16.3686,5.7199 L 17.2557,5.7199 L 17.2557,6.2197 L 17.6160,6.2197 L 17.6160,6.7195 L 18.6694,6.7195 L 18.6694,6.2197 L 19.0297,6.2197 L 19.0297,5.7199 L 19.9168,5.7199 L 19.9168,3.5958 L 16.3686,3.5958 Z" stroke="#161616" stroke-width="0.1193" stroke-linecap="round" stroke-linejoin="round" fill="#000000"/>
      </g>
      <!--emf-blob end-->
    </g>
  </g>
</svg>
