<svg xmlns="http://www.w3.org/2000/svg" xmlns:xlink="http://www.w3.org/1999/xlink" version="1.1" width="3.4124000000" height="0.6124000000" viewBox="0 0 61.4268 11.0268">
  <title><![CDATA[FG/FWF-60E]]></title>
  <g transform=" scale(4.000000) ">
    <!--converted by libvisio2svg-->
    <g transform=" translate(0.000000,0.000000) ">
      <!--emf-blob start-->
      <g transform="translate(-0.0000, -0.0000)">
        <g transform="matrix(1.0000 0.0000 0.0000 1.0000 0.0000 0.0000)">
</g>
        <g transform="matrix(1.0000 0.0000 0.0000 1.0000 0.0000 0.0000)">
</g>
        <g transform="matrix(0.2499 0.0000 0.0000 0.2507 0.0000 0.0000)">
</g>
        <g transform="matrix(0.2499 0.0000 0.0000 0.2507 0.0000 0.0000)">
</g>
        <g transform="matrix(0.2499 0.0000 0.0000 0.2507 0.0000 0.0000)">
</g>
        <g transform="matrix(0.2499 0.0000 0.0000 0.2507 0.0000 0.0000)">
</g>
        <g transform="matrix(0.2499 0.0000 0.0000 0.2507 0.0000 0.0000)">
</g>
        <g transform="matrix(0.2499 0.0000 0.0000 0.2507 0.0000 0.0000)">
</g>
        <g transform="matrix(509.5798 0.0000 0.0000 90.5045 0.0000 0.0000)">
</g>
        <g transform="matrix(509.5798 0.0000 0.0000 90.5045 0.0000 0.0000)">
</g>
        <g transform="matrix(0.1170 0.0000 0.0000 0.1172 0.0000 0.0000)">
</g>
        <g transform="matrix(0.1170 0.0000 0.0000 0.1172 0.0000 0.0000)">
</g>
        <g transform="matrix(0.1170 0.0000 0.0000 0.1172 -1.5358 -1.3132)">
</g>
        <g transform="matrix(0.1170 0.0000 0.0000 0.1172 -1.5358 -1.3132)">
          <path d="M 13.4898,90.8153 L 13.4898,90.9358 L 13.4898,91.1766 L 13.4898,91.4175 L 13.4898,91.5380 L 13.6103,91.7789 L 13.6103,92.0198 L 13.7307,92.1402 L 13.7307,92.3811 L 13.8511,92.5015 L 13.9716,92.7424 L 13.9716,92.8629 L 14.0920,93.1038 L 14.2125,93.2242 L 14.3329,93.3446 L 14.4534,93.4651 L 14.5738,93.7060 L 14.8147,93.8264 L 14.9351,93.9469 L 15.0556,94.0673 L 15.1760,94.1878 L 15.4169,94.3082 L 15.5374,94.3082 L 15.7783,94.4286 L 15.8987,94.5491 L 16.1396,94.5491 L 16.2600,94.6695 L 16.5009,94.6695 L 16.7418,94.7900 L 16.8623,94.7900 L 17.1031,94.7900 L 17.3440,94.7900 L 17.5849,94.7900 L 19.0303,94.7900 L 23.3663,94.7900 L 30.2316,94.7900 L 39.7468,94.7900 L 51.4299,94.7900 L 65.1606,94.7900 L 80.8184,94.7900 L 98.1624,94.7900 L 117.0723,94.7900 L 137.1865,94.7900 L 158.5052,94.7900 L 180.7875,94.7900 L 203.7924,94.7900 L 227.3996,94.7900 L 251.3681,94.7900 L 275.5775,94.7900 L 299.6664,94.7900 L 323.6349,94.7900 L 347.2421,94.7900 L 370.2470,94.7900 L 392.5293,94.7900 L 413.8480,94.7900 L 433.9623,94.7900 L 452.8721,94.7900 L 470.2161,94.7900 L 485.8739,94.7900 L 499.6046,94.7900 L 511.2878,94.7900 L 520.8029,94.7900 L 527.6683,94.7900 L 532.0043,94.7900 L 533.4496,94.7900 L 533.6905,94.7900 L 533.9314,94.7900 L 534.1723,94.7900 L 534.2927,94.7900 L 534.5336,94.6695 L 534.7745,94.6695 L 534.8949,94.5491 L 535.1358,94.5491 L 535.2563,94.4286 L 535.4972,94.3082 L 535.6176,94.3082 L 535.8585,94.1878 L 535.9789,94.0673 L 536.0994,93.9469 L 536.2198,93.8264 L 536.4607,93.7060 L 536.5812,93.4651 L 536.7016,93.3446 L 536.8221,93.2242 L 536.9425,93.1038 L 537.0629,92.8629 L 537.0629,92.7424 L 537.1834,92.5015 L 537.3038,92.3811 L 537.3038,92.1402 L 537.4243,92.0198 L 537.4243,91.7789 L 537.5447,91.5380 L 537.5447,91.4175 L 537.5447,91.1766 L 537.5447,90.9358 L 537.6652,90.8153 L 537.6652,90.5744 L 537.6652,89.9722 L 537.6652,88.8882 L 537.6652,87.5633 L 537.6652,85.8771 L 537.6652,83.8295 L 537.6652,81.5411 L 537.6652,79.0117 L 537.6652,76.2415 L 537.6652,73.3508 L 537.6652,70.2193 L 537.6652,66.9673 L 537.6652,63.5948 L 537.6652,60.2224 L 537.6652,56.7295 L 537.6652,53.2366 L 537.6652,49.6232 L 537.6652,46.1303 L 537.6652,42.7579 L 537.6652,39.3854 L 537.6652,36.1334 L 537.6652,33.0018 L 537.6652,30.1112 L 537.6652,27.3409 L 537.6652,24.8116 L 537.6652,22.5232 L 537.6652,20.4756 L 537.6652,18.7894 L 537.6652,17.4645 L 537.6652,16.5009 L 537.6652,15.7783 L 537.6652,15.6578 L 537.5447,15.4169 L 537.5447,15.1760 L 537.5447,14.9351 L 537.5447,14.8147 L 537.4243,14.5738 L 537.4243,14.3329 L 537.3038,14.2125 L 537.3038,13.9716 L 537.1834,13.8511 L 537.0629,13.6103 L 537.0629,13.4898 L 536.9425,13.2489 L 536.8221,13.1285 L 536.7016,13.0080 L 536.5812,12.8876 L 536.4607,12.6467 L 536.2198,12.5262 L 536.0994,12.4058 L 535.9789,12.2854 L 535.8585,12.1649 L 535.6176,12.0445 L 535.4972,12.0445 L 535.2563,11.9240 L 535.1358,11.8036 L 534.8949,11.8036 L 534.7745,11.6831 L 534.5336,11.6831 L 534.2927,11.5627 L 534.1723,11.5627 L 533.9314,11.5627 L 533.6905,11.5627 L 533.4496,11.5627 L 532.0043,11.5627 L 527.6683,11.5627 L 520.8029,11.5627 L 511.2878,11.5627 L 499.6046,11.5627 L 485.8739,11.5627 L 470.2161,11.5627 L 452.8721,11.5627 L 433.9623,11.5627 L 413.8480,11.5627 L 392.5293,11.5627 L 370.2470,11.5627 L 347.2421,11.5627 L 323.6349,11.5627 L 299.6664,11.5627 L 275.5775,11.5627 L 251.3681,11.5627 L 227.3996,11.5627 L 203.7924,11.5627 L 180.7875,11.5627 L 158.5052,11.5627 L 137.1865,11.5627 L 117.0723,11.5627 L 98.1624,11.5627 L 80.8184,11.5627 L 65.1606,11.5627 L 51.4299,11.5627 L 39.7468,11.5627 L 30.2316,11.5627 L 23.3663,11.5627 L 19.0303,11.5627 L 17.5849,11.5627 L 17.3440,11.5627 L 17.1031,11.5627 L 16.8623,11.5627 L 16.7418,11.5627 L 16.5009,11.6831 L 16.2600,11.6831 L 16.1396,11.8036 L 15.8987,11.8036 L 15.7783,11.9240 L 15.5374,12.0445 L 15.4169,12.0445 L 15.1760,12.1649 L 15.0556,12.2854 L 14.9351,12.4058 L 14.8147,12.5262 L 14.5738,12.6467 L 14.4534,12.8876 L 14.3329,13.0080 L 14.2125,13.1285 L 14.0920,13.2489 L 13.9716,13.4898 L 13.9716,13.6103 L 13.8511,13.8511 L 13.7307,13.9716 L 13.7307,14.2125 L 13.6103,14.3329 L 13.6103,14.5738 L 13.4898,14.8147 L 13.4898,14.9351 L 13.4898,15.1760 L 13.4898,15.4169 L 13.4898,15.6578 L 13.4898,15.7783 L 13.4898,16.5009 L 13.4898,17.4645 L 13.4898,18.7894 L 13.4898,20.4756 L 13.4898,22.5232 L 13.4898,24.8116 L 13.4898,27.3409 L 13.4898,30.1112 L 13.4898,33.0018 L 13.4898,36.1334 L 13.4898,39.3854 L 13.4898,42.7579 L 13.4898,46.1303 L 13.4898,49.6232 L 13.4898,53.2366 L 13.4898,56.7295 L 13.4898,60.2224 L 13.4898,63.5948 L 13.4898,66.9673 L 13.4898,70.2193 L 13.4898,73.3508 L 13.4898,76.2415 L 13.4898,79.0117 L 13.4898,81.5411 L 13.4898,83.8295 L 13.4898,85.8771 L 13.4898,87.5633 L 13.4898,88.8882 L 13.4898,89.9722 L 13.4898,90.5744 L 13.4898,90.8153 Z" stroke="#000000" stroke-width="0.1204" stroke-linecap="round" stroke-linejoin="round" fill="#DDDDDD"/>
          <path d="M 482.7424,100.6918 L 68.4126,100.6918 L 62.5108,94.7900 L 488.5237,94.7900 L 482.7424,100.6918 Z" stroke="#000000" stroke-width="0.1204" stroke-linecap="round" stroke-linejoin="round" fill="#7F7F7F"/>
          <path d="M 57.4521,94.7900 L 22.8845,94.7900 L 24.6912,104.0642 L 55.8863,104.0642 L 57.4521,94.7900 Z" stroke="#000000" stroke-width="0.1204" stroke-linecap="round" stroke-linejoin="round" fill="#CCCCCC"/>
          <path d="M 528.2705,94.7900 L 493.5824,94.7900 L 495.3891,104.0642 L 526.4638,104.0642 L 528.2705,94.7900 Z" stroke="#000000" stroke-width="0.1204" stroke-linecap="round" stroke-linejoin="round" fill="#CCCCCC"/>
          <path d="M 100.8122,36.3743 L 140.0772,36.3743 L 140.0772,69.6170 L 100.8122,69.6170 L 100.8122,36.3743 Z" stroke="#000000" stroke-width="0.1204" stroke-linecap="round" stroke-linejoin="round" fill="#FFFFFF"/>
          <path d="M 321.4669,36.2539 L 151.1581,36.2539 L 151.1581,69.6170 L 321.4669,69.6170 L 321.4669,36.2539 Z" stroke="#000000" stroke-width="0.1204" stroke-linecap="round" stroke-linejoin="round" fill="#FFFFFF"/>
          <path d="M 498.7615,36.2539 L 328.4527,36.2539 L 328.4527,69.6170 L 498.7615,69.6170 L 498.7615,36.2539 Z" stroke="#000000" stroke-width="0.1204" stroke-linecap="round" stroke-linejoin="round" fill="#FFFFFF"/>
          <path d="M 89.0086,26.6183 L 88.8882,26.2569 L 88.7677,25.7752 L 88.5269,25.4138 L 88.2860,25.1729 L 88.0451,24.9321 L 87.6837,24.6912 L 87.2020,24.5707 L 86.8406,24.4503 L 78.7708,24.4503 L 78.4095,24.5707 L 77.9277,24.6912 L 77.5664,24.9321 L 77.3255,25.1729 L 77.0846,25.4138 L 76.8437,25.7752 L 76.7233,26.2569 L 76.6028,26.6183 L 76.7233,27.1001 L 76.8437,27.4614 L 77.0846,27.9432 L 77.3255,28.1841 L 77.5664,28.4250 L 77.9277,28.6658 L 78.4095,28.7863 L 78.7708,28.7863 L 86.8406,28.7863 L 87.2020,28.7863 L 87.6837,28.6658 L 88.0451,28.4250 L 88.2860,28.1841 L 88.5269,27.9432 L 88.7677,27.4614 L 88.8882,27.1001 L 89.0086,26.6183 Z" stroke="#000000" stroke-width="0.1204" stroke-linecap="round" stroke-linejoin="round" fill="#000000"/>
          <path d="M 107.7980,26.6183 L 107.6776,26.2569 L 107.5571,25.7752 L 107.3162,25.4138 L 107.0753,25.1729 L 106.8345,24.9321 L 106.4731,24.6912 L 105.9913,24.5707 L 105.6300,24.4503 L 97.6807,24.4503 L 97.1989,24.5707 L 96.8375,24.6912 L 96.3558,24.9321 L 96.1149,25.1729 L 95.8740,25.4138 L 95.6331,25.7752 L 95.5127,26.2569 L 95.5127,26.6183 L 95.5127,27.1001 L 95.6331,27.4614 L 95.8740,27.9432 L 96.1149,28.1841 L 96.3558,28.4250 L 96.8375,28.6658 L 97.1989,28.7863 L 97.6807,28.7863 L 105.6300,28.7863 L 105.9913,28.7863 L 106.4731,28.6658 L 106.8345,28.4250 L 107.0753,28.1841 L 107.3162,27.9432 L 107.5571,27.4614 L 107.6776,27.1001 L 107.7980,26.6183 Z" stroke="#000000" stroke-width="0.1204" stroke-linecap="round" stroke-linejoin="round" fill="#000000"/>
          <path d="M 126.4669,26.6183 L 126.3465,26.2569 L 126.2261,25.7752 L 125.9852,25.4138 L 125.7443,25.1729 L 125.5034,24.9321 L 125.1420,24.6912 L 124.6603,24.5707 L 124.2989,24.4503 L 116.3496,24.4503 L 115.8678,24.5707 L 115.5065,24.6912 L 115.0247,24.9321 L 114.7838,25.1729 L 114.5429,25.4138 L 114.3020,25.7752 L 114.1816,26.2569 L 114.1816,26.6183 L 114.1816,27.1001 L 114.3020,27.4614 L 114.5429,27.9432 L 114.7838,28.1841 L 115.0247,28.4250 L 115.5065,28.6658 L 115.8678,28.7863 L 116.3496,28.7863 L 124.2989,28.7863 L 124.6603,28.7863 L 125.1420,28.6658 L 125.5034,28.4250 L 125.7443,28.1841 L 125.9852,27.9432 L 126.2261,27.4614 L 126.3465,27.1001 L 126.4669,26.6183 Z" stroke="#000000" stroke-width="0.1204" stroke-linecap="round" stroke-linejoin="round" fill="#000000"/>
          <path d="M 145.1359,26.6183 L 145.1359,26.2569 L 145.0154,25.7752 L 144.7745,25.4138 L 144.5336,25.1729 L 144.2928,24.9321 L 143.8110,24.6912 L 143.4496,24.5707 L 142.9679,24.4503 L 135.0185,24.4503 L 134.6572,24.5707 L 134.1754,24.6912 L 133.8141,24.9321 L 133.5732,25.1729 L 133.3323,25.4138 L 133.0914,25.7752 L 132.9710,26.2569 L 132.8505,26.6183 L 132.9710,27.1001 L 133.0914,27.4614 L 133.3323,27.9432 L 133.5732,28.1841 L 133.8141,28.4250 L 134.1754,28.6658 L 134.6572,28.7863 L 135.0185,28.7863 L 142.9679,28.7863 L 143.4496,28.7863 L 143.8110,28.6658 L 144.2928,28.4250 L 144.5336,28.1841 L 144.7745,27.9432 L 145.0154,27.4614 L 145.1359,27.1001 L 145.1359,26.6183 Z" stroke="#000000" stroke-width="0.1204" stroke-linecap="round" stroke-linejoin="round" fill="#000000"/>
          <path d="M 163.8048,26.6183 L 163.8048,26.2569 L 163.6844,25.7752 L 163.4435,25.4138 L 163.2026,25.1729 L 162.9617,24.9321 L 162.4799,24.6912 L 162.1186,24.5707 L 161.6368,24.4503 L 153.6874,24.4503 L 153.3261,24.5707 L 152.8443,24.6912 L 152.4830,24.9321 L 152.2421,25.1729 L 152.0012,25.4138 L 151.7603,25.7752 L 151.6399,26.2569 L 151.5194,26.6183 L 151.6399,27.1001 L 151.7603,27.4614 L 152.0012,27.9432 L 152.2421,28.1841 L 152.4830,28.4250 L 152.8443,28.6658 L 153.3261,28.7863 L 153.6874,28.7863 L 161.6368,28.7863 L 162.1186,28.7863 L 162.4799,28.6658 L 162.9617,28.4250 L 163.2026,28.1841 L 163.4435,27.9432 L 163.6844,27.4614 L 163.8048,27.1001 L 163.8048,26.6183 Z" stroke="#000000" stroke-width="0.1204" stroke-linecap="round" stroke-linejoin="round" fill="#000000"/>
          <path d="M 182.5942,26.6183 L 182.5942,26.2569 L 182.4737,25.7752 L 182.2328,25.4138 L 181.9920,25.1729 L 181.7511,24.9321 L 181.3897,24.6912 L 180.9079,24.5707 L 180.5466,24.4503 L 172.4768,24.4503 L 172.1155,24.5707 L 171.6337,24.6912 L 171.2724,24.9321 L 171.0315,25.1729 L 170.7906,25.4138 L 170.5497,25.7752 L 170.4293,26.2569 L 170.3088,26.6183 L 170.4293,27.1001 L 170.5497,27.4614 L 170.7906,27.9432 L 171.0315,28.1841 L 171.2724,28.4250 L 171.6337,28.6658 L 172.1155,28.7863 L 172.4768,28.7863 L 180.5466,28.7863 L 180.9079,28.7863 L 181.3897,28.6658 L 181.7511,28.4250 L 181.9920,28.1841 L 182.2328,27.9432 L 182.4737,27.4614 L 182.5942,27.1001 L 182.5942,26.6183 Z" stroke="#000000" stroke-width="0.1204" stroke-linecap="round" stroke-linejoin="round" fill="#000000"/>
          <path d="M 201.3835,26.6183 L 201.2631,26.2569 L 201.1427,25.7752 L 200.9018,25.4138 L 200.6609,25.1729 L 200.4200,24.9321 L 200.0587,24.6912 L 199.5769,24.5707 L 199.2155,24.4503 L 191.1457,24.4503 L 190.7844,24.5707 L 190.3026,24.6912 L 189.9413,24.9321 L 189.7004,25.1729 L 189.4595,25.4138 L 189.2186,25.7752 L 189.0982,26.2569 L 188.9777,26.6183 L 189.0982,27.1001 L 189.2186,27.4614 L 189.4595,27.9432 L 189.7004,28.1841 L 189.9413,28.4250 L 190.3026,28.6658 L 190.7844,28.7863 L 191.1457,28.7863 L 199.2155,28.7863 L 199.5769,28.7863 L 200.0587,28.6658 L 200.4200,28.4250 L 200.6609,28.1841 L 200.9018,27.9432 L 201.1427,27.4614 L 201.2631,27.1001 L 201.3835,26.6183 Z" stroke="#000000" stroke-width="0.1204" stroke-linecap="round" stroke-linejoin="round" fill="#000000"/>
          <path d="M 220.1729,26.6183 L 220.0525,26.2569 L 219.9320,25.7752 L 219.6911,25.4138 L 219.4503,25.1729 L 219.2094,24.9321 L 218.8480,24.6912 L 218.3663,24.5707 L 218.0049,24.4503 L 210.0556,24.4503 L 209.5738,24.5707 L 209.0920,24.6912 L 208.7307,24.9321 L 208.4898,25.1729 L 208.2489,25.4138 L 208.0080,25.7752 L 207.8876,26.2569 L 207.8876,26.6183 L 207.8876,27.1001 L 208.0080,27.4614 L 208.2489,27.9432 L 208.4898,28.1841 L 208.7307,28.4250 L 209.0920,28.6658 L 209.5738,28.7863 L 210.0556,28.7863 L 218.0049,28.7863 L 218.3663,28.7863 L 218.8480,28.6658 L 219.2094,28.4250 L 219.4503,28.1841 L 219.6911,27.9432 L 219.9320,27.4614 L 220.0525,27.1001 L 220.1729,26.6183 Z" stroke="#000000" stroke-width="0.1204" stroke-linecap="round" stroke-linejoin="round" fill="#000000"/>
          <path d="M 238.8419,26.6183 L 238.7214,26.2569 L 238.6010,25.7752 L 238.3601,25.4138 L 238.1192,25.1729 L 237.8783,24.9321 L 237.5170,24.6912 L 237.0352,24.5707 L 236.6738,24.4503 L 228.7245,24.4503 L 228.2427,24.5707 L 227.8814,24.6912 L 227.3996,24.9321 L 227.1587,25.1729 L 226.9178,25.4138 L 226.6769,25.7752 L 226.5565,26.2569 L 226.5565,26.6183 L 226.5565,27.1001 L 226.6769,27.4614 L 226.9178,27.9432 L 227.1587,28.1841 L 227.3996,28.4250 L 227.8814,28.6658 L 228.2427,28.7863 L 228.7245,28.7863 L 236.6738,28.7863 L 237.0352,28.7863 L 237.5170,28.6658 L 237.8783,28.4250 L 238.1192,28.1841 L 238.3601,27.9432 L 238.6010,27.4614 L 238.7214,27.1001 L 238.8419,26.6183 Z" stroke="#000000" stroke-width="0.1204" stroke-linecap="round" stroke-linejoin="round" fill="#000000"/>
          <path d="M 257.6312,26.6183 L 257.5108,26.2569 L 257.3903,25.7752 L 257.2699,25.4138 L 256.9086,25.1729 L 256.6677,24.9321 L 256.3063,24.6912 L 255.8246,24.5707 L 255.4632,24.4503 L 247.5139,24.4503 L 247.0321,24.5707 L 246.6708,24.6912 L 246.1890,24.9321 L 245.9481,25.1729 L 245.7072,25.4138 L 245.4663,25.7752 L 245.3459,26.2569 L 245.3459,26.6183 L 245.3459,27.1001 L 245.4663,27.4614 L 245.7072,27.9432 L 245.9481,28.1841 L 246.1890,28.4250 L 246.6708,28.6658 L 247.0321,28.7863 L 247.5139,28.7863 L 255.4632,28.7863 L 255.8246,28.7863 L 256.3063,28.6658 L 256.6677,28.4250 L 256.9086,28.1841 L 257.2699,27.9432 L 257.3903,27.4614 L 257.5108,27.1001 L 257.6312,26.6183 Z" stroke="#000000" stroke-width="0.1204" stroke-linecap="round" stroke-linejoin="round" fill="#000000"/>
          <path d="M 276.1797,26.6183 L 276.1797,26.2569 L 276.0593,25.7752 L 275.8184,25.4138 L 275.5775,25.1729 L 275.3366,24.9321 L 274.8548,24.6912 L 274.4935,24.5707 L 274.0117,24.4503 L 266.0624,24.4503 L 265.7010,24.5707 L 265.2192,24.6912 L 264.8579,24.9321 L 264.6170,25.1729 L 264.3761,25.4138 L 264.1352,25.7752 L 264.0148,26.2569 L 263.8944,26.6183 L 264.0148,27.1001 L 264.1352,27.4614 L 264.3761,27.9432 L 264.6170,28.1841 L 264.8579,28.4250 L 265.2192,28.6658 L 265.7010,28.7863 L 266.0624,28.7863 L 274.0117,28.7863 L 274.4935,28.7863 L 274.8548,28.6658 L 275.3366,28.4250 L 275.5775,28.1841 L 275.8184,27.9432 L 276.0593,27.4614 L 276.1797,27.1001 L 276.1797,26.6183 Z" stroke="#000000" stroke-width="0.1204" stroke-linecap="round" stroke-linejoin="round" fill="#000000"/>
          <path d="M 294.9691,26.6183 L 294.9691,26.2569 L 294.8486,25.7752 L 294.6078,25.4138 L 294.3669,25.1729 L 294.1260,24.9321 L 293.7646,24.6912 L 293.2829,24.5707 L 292.9215,24.4503 L 284.8517,24.4503 L 284.4904,24.5707 L 284.0086,24.6912 L 283.6473,24.9321 L 283.4064,25.1729 L 283.1655,25.4138 L 282.9246,25.7752 L 282.8042,26.2569 L 282.6837,26.6183 L 282.8042,27.1001 L 282.9246,27.4614 L 283.1655,27.9432 L 283.4064,28.1841 L 283.6473,28.4250 L 284.0086,28.6658 L 284.4904,28.7863 L 284.8517,28.7863 L 292.9215,28.7863 L 293.2829,28.7863 L 293.7646,28.6658 L 294.1260,28.4250 L 294.3669,28.1841 L 294.6078,27.9432 L 294.8486,27.4614 L 294.9691,27.1001 L 294.9691,26.6183 Z" stroke="#000000" stroke-width="0.1204" stroke-linecap="round" stroke-linejoin="round" fill="#000000"/>
          <path d="M 313.6380,26.6183 L 313.6380,26.2569 L 313.5176,25.7752 L 313.2767,25.4138 L 313.0358,25.1729 L 312.7949,24.9321 L 312.4336,24.6912 L 311.9518,24.5707 L 311.5905,24.4503 L 303.5207,24.4503 L 303.1593,24.5707 L 302.6775,24.6912 L 302.3162,24.9321 L 302.0753,25.1729 L 301.8344,25.4138 L 301.5935,25.7752 L 301.4731,26.2569 L 301.3527,26.6183 L 301.4731,27.1001 L 301.5935,27.4614 L 301.8344,27.9432 L 302.0753,28.1841 L 302.3162,28.4250 L 302.6775,28.6658 L 303.1593,28.7863 L 303.5207,28.7863 L 311.5905,28.7863 L 311.9518,28.7863 L 312.4336,28.6658 L 312.7949,28.4250 L 313.0358,28.1841 L 313.2767,27.9432 L 313.5176,27.4614 L 313.6380,27.1001 L 313.6380,26.6183 Z" stroke="#000000" stroke-width="0.1204" stroke-linecap="round" stroke-linejoin="round" fill="#000000"/>
          <path d="M 332.5478,26.6183 L 332.4274,26.2569 L 332.3069,25.7752 L 332.0661,25.4138 L 331.8252,25.1729 L 331.5843,24.9321 L 331.2229,24.6912 L 330.7412,24.5707 L 330.3798,24.4503 L 322.3100,24.4503 L 321.9487,24.5707 L 321.4669,24.6912 L 321.1056,24.9321 L 320.8647,25.1729 L 320.6238,25.4138 L 320.3829,25.7752 L 320.2625,26.2569 L 320.2625,26.6183 L 320.2625,27.1001 L 320.3829,27.4614 L 320.6238,27.9432 L 320.8647,28.1841 L 321.1056,28.4250 L 321.4669,28.6658 L 321.9487,28.7863 L 322.3100,28.7863 L 330.3798,28.7863 L 330.7412,28.7863 L 331.2229,28.6658 L 331.5843,28.4250 L 331.8252,28.1841 L 332.0661,27.9432 L 332.3069,27.4614 L 332.4274,27.1001 L 332.5478,26.6183 Z" stroke="#000000" stroke-width="0.1204" stroke-linecap="round" stroke-linejoin="round" fill="#000000"/>
          <path d="M 351.2168,26.6183 L 351.0963,26.2569 L 350.9759,25.7752 L 350.7350,25.4138 L 350.4941,25.1729 L 350.2532,24.9321 L 349.8919,24.6912 L 349.4101,24.5707 L 349.0488,24.4503 L 341.0994,24.4503 L 340.6176,24.5707 L 340.1358,24.6912 L 339.7745,24.9321 L 339.5336,25.1729 L 339.2927,25.4138 L 339.0518,25.7752 L 338.9314,26.2569 L 338.9314,26.6183 L 338.9314,27.1001 L 339.0518,27.4614 L 339.2927,27.9432 L 339.5336,28.1841 L 339.7745,28.4250 L 340.1358,28.6658 L 340.6176,28.7863 L 341.0994,28.7863 L 349.0488,28.7863 L 349.4101,28.7863 L 349.8919,28.6658 L 350.2532,28.4250 L 350.4941,28.1841 L 350.7350,27.9432 L 350.9759,27.4614 L 351.0963,27.1001 L 351.2168,26.6183 Z" stroke="#000000" stroke-width="0.1204" stroke-linecap="round" stroke-linejoin="round" fill="#000000"/>
          <path d="M 370.0061,26.6183 L 369.8857,26.2569 L 369.7652,25.7752 L 369.5244,25.4138 L 369.2835,25.1729 L 369.0426,24.9321 L 368.6812,24.6912 L 368.1995,24.5707 L 367.8381,24.4503 L 359.8888,24.4503 L 359.4070,24.5707 L 359.0457,24.6912 L 358.5639,24.9321 L 358.3230,25.1729 L 358.0821,25.4138 L 357.8412,25.7752 L 357.7208,26.2569 L 357.7208,26.6183 L 357.7208,27.1001 L 357.8412,27.4614 L 358.0821,27.9432 L 358.3230,28.1841 L 358.5639,28.4250 L 359.0457,28.6658 L 359.4070,28.7863 L 359.8888,28.7863 L 367.8381,28.7863 L 368.1995,28.7863 L 368.6812,28.6658 L 369.0426,28.4250 L 369.2835,28.1841 L 369.5244,27.9432 L 369.7652,27.4614 L 369.8857,27.1001 L 370.0061,26.6183 Z" stroke="#000000" stroke-width="0.1204" stroke-linecap="round" stroke-linejoin="round" fill="#000000"/>
          <path d="M 388.6751,26.6183 L 388.5546,26.2569 L 388.4342,25.7752 L 388.3137,25.4138 L 387.9524,25.1729 L 387.7115,24.9321 L 387.3502,24.6912 L 386.8684,24.5707 L 386.5071,24.4503 L 378.5577,24.4503 L 378.0759,24.5707 L 377.7146,24.6912 L 377.2328,24.9321 L 376.9919,25.1729 L 376.7510,25.4138 L 376.5102,25.7752 L 376.3897,26.2569 L 376.3897,26.6183 L 376.3897,27.1001 L 376.5102,27.4614 L 376.7510,27.9432 L 376.9919,28.1841 L 377.2328,28.4250 L 377.7146,28.6658 L 378.0759,28.7863 L 378.5577,28.7863 L 386.5071,28.7863 L 386.8684,28.7863 L 387.3502,28.6658 L 387.7115,28.4250 L 387.9524,28.1841 L 388.3137,27.9432 L 388.4342,27.4614 L 388.5546,27.1001 L 388.6751,26.6183 Z" stroke="#000000" stroke-width="0.1204" stroke-linecap="round" stroke-linejoin="round" fill="#000000"/>
          <path d="M 407.3440,26.6183 L 407.3440,26.2569 L 407.2236,25.7752 L 406.9827,25.4138 L 406.7418,25.1729 L 406.5009,24.9321 L 406.0191,24.6912 L 405.6578,24.5707 L 405.1760,24.4503 L 397.2266,24.4503 L 396.8653,24.5707 L 396.3835,24.6912 L 396.0222,24.9321 L 395.7813,25.1729 L 395.5404,25.4138 L 395.2995,25.7752 L 395.1791,26.2569 L 395.0586,26.6183 L 395.1791,27.1001 L 395.2995,27.4614 L 395.5404,27.9432 L 395.7813,28.1841 L 396.0222,28.4250 L 396.3835,28.6658 L 396.8653,28.7863 L 397.2266,28.7863 L 405.1760,28.7863 L 405.6578,28.7863 L 406.0191,28.6658 L 406.5009,28.4250 L 406.7418,28.1841 L 406.9827,27.9432 L 407.2236,27.4614 L 407.3440,27.1001 L 407.3440,26.6183 Z" stroke="#000000" stroke-width="0.1204" stroke-linecap="round" stroke-linejoin="round" fill="#000000"/>
          <path d="M 426.0129,26.6183 L 426.0129,26.2569 L 425.8925,25.7752 L 425.6516,25.4138 L 425.4107,25.1729 L 425.1698,24.9321 L 424.8085,24.6912 L 424.3267,24.5707 L 423.9654,24.4503 L 415.8956,24.4503 L 415.5342,24.5707 L 415.0525,24.6912 L 414.6911,24.9321 L 414.4502,25.1729 L 414.2093,25.4138 L 413.9685,25.7752 L 413.8480,26.2569 L 413.7276,26.6183 L 413.8480,27.1001 L 413.9685,27.4614 L 414.2093,27.9432 L 414.4502,28.1841 L 414.6911,28.4250 L 415.0525,28.6658 L 415.5342,28.7863 L 415.8956,28.7863 L 423.9654,28.7863 L 424.3267,28.7863 L 424.8085,28.6658 L 425.1698,28.4250 L 425.4107,28.1841 L 425.6516,27.9432 L 425.8925,27.4614 L 426.0129,27.1001 L 426.0129,26.6183 Z" stroke="#000000" stroke-width="0.1204" stroke-linecap="round" stroke-linejoin="round" fill="#000000"/>
          <path d="M 444.9227,26.6183 L 444.8023,26.2569 L 444.6819,25.7752 L 444.4410,25.4138 L 444.2001,25.1729 L 443.9592,24.9321 L 443.5979,24.6912 L 443.1161,24.5707 L 442.7547,24.4503 L 434.6849,24.4503 L 434.3236,24.5707 L 433.8418,24.6912 L 433.4805,24.9321 L 433.2396,25.1729 L 432.9987,25.4138 L 432.7578,25.7752 L 432.6374,26.2569 L 432.6374,26.6183 L 432.6374,27.1001 L 432.7578,27.4614 L 432.9987,27.9432 L 433.2396,28.1841 L 433.4805,28.4250 L 433.8418,28.6658 L 434.3236,28.7863 L 434.6849,28.7863 L 442.7547,28.7863 L 443.1161,28.7863 L 443.5979,28.6658 L 443.9592,28.4250 L 444.2001,28.1841 L 444.4410,27.9432 L 444.6819,27.4614 L 444.8023,27.1001 L 444.9227,26.6183 Z" stroke="#000000" stroke-width="0.1204" stroke-linecap="round" stroke-linejoin="round" fill="#000000"/>
          <path d="M 89.0086,18.3076 L 88.8882,17.8258 L 88.7677,17.4645 L 88.5269,17.1031 L 88.2860,16.7418 L 88.0451,16.5009 L 87.6837,16.2600 L 87.2020,16.1396 L 86.8406,16.1396 L 78.7708,16.1396 L 78.4095,16.1396 L 77.9277,16.2600 L 77.5664,16.5009 L 77.3255,16.7418 L 77.0846,17.1031 L 76.8437,17.4645 L 76.7233,17.8258 L 76.6028,18.3076 L 76.7233,18.6689 L 76.8437,19.1507 L 77.0846,19.5120 L 77.3255,19.7529 L 77.5664,19.9938 L 77.9277,20.2347 L 78.4095,20.3552 L 78.7708,20.4756 L 86.8406,20.4756 L 87.2020,20.3552 L 87.6837,20.2347 L 88.0451,19.9938 L 88.2860,19.7529 L 88.5269,19.5120 L 88.7677,19.1507 L 88.8882,18.6689 L 89.0086,18.3076 Z" stroke="#000000" stroke-width="0.1204" stroke-linecap="round" stroke-linejoin="round" fill="#000000"/>
          <path d="M 107.7980,18.3076 L 107.6776,17.8258 L 107.5571,17.4645 L 107.3162,17.1031 L 107.0753,16.7418 L 106.8345,16.5009 L 106.4731,16.2600 L 105.9913,16.1396 L 105.6300,16.1396 L 97.6807,16.1396 L 97.1989,16.1396 L 96.8375,16.2600 L 96.3558,16.5009 L 96.1149,16.7418 L 95.8740,17.1031 L 95.6331,17.4645 L 95.5127,17.8258 L 95.5127,18.3076 L 95.5127,18.6689 L 95.6331,19.1507 L 95.8740,19.5120 L 96.1149,19.7529 L 96.3558,19.9938 L 96.8375,20.2347 L 97.1989,20.3552 L 97.6807,20.4756 L 105.6300,20.4756 L 105.9913,20.3552 L 106.4731,20.2347 L 106.8345,19.9938 L 107.0753,19.7529 L 107.3162,19.5120 L 107.5571,19.1507 L 107.6776,18.6689 L 107.7980,18.3076 Z" stroke="#000000" stroke-width="0.1204" stroke-linecap="round" stroke-linejoin="round" fill="#000000"/>
          <path d="M 126.4669,18.3076 L 126.3465,17.8258 L 126.2261,17.4645 L 125.9852,17.1031 L 125.7443,16.7418 L 125.5034,16.5009 L 125.1420,16.2600 L 124.6603,16.1396 L 124.2989,16.1396 L 116.3496,16.1396 L 115.8678,16.1396 L 115.5065,16.2600 L 115.0247,16.5009 L 114.7838,16.7418 L 114.5429,17.1031 L 114.3020,17.4645 L 114.1816,17.8258 L 114.1816,18.3076 L 114.1816,18.6689 L 114.3020,19.1507 L 114.5429,19.5120 L 114.7838,19.7529 L 115.0247,19.9938 L 115.5065,20.2347 L 115.8678,20.3552 L 116.3496,20.4756 L 124.2989,20.4756 L 124.6603,20.3552 L 125.1420,20.2347 L 125.5034,19.9938 L 125.7443,19.7529 L 125.9852,19.5120 L 126.2261,19.1507 L 126.3465,18.6689 L 126.4669,18.3076 Z" stroke="#000000" stroke-width="0.1204" stroke-linecap="round" stroke-linejoin="round" fill="#000000"/>
          <path d="M 145.1359,18.3076 L 145.1359,17.8258 L 145.0154,17.4645 L 144.7745,17.1031 L 144.5336,16.7418 L 144.2928,16.5009 L 143.8110,16.2600 L 143.4496,16.1396 L 142.9679,16.1396 L 135.0185,16.1396 L 134.6572,16.1396 L 134.1754,16.2600 L 133.8141,16.5009 L 133.5732,16.7418 L 133.3323,17.1031 L 133.0914,17.4645 L 132.9710,17.8258 L 132.8505,18.3076 L 132.9710,18.6689 L 133.0914,19.1507 L 133.3323,19.5120 L 133.5732,19.7529 L 133.8141,19.9938 L 134.1754,20.2347 L 134.6572,20.3552 L 135.0185,20.4756 L 142.9679,20.4756 L 143.4496,20.3552 L 143.8110,20.2347 L 144.2928,19.9938 L 144.5336,19.7529 L 144.7745,19.5120 L 145.0154,19.1507 L 145.1359,18.6689 L 145.1359,18.3076 Z" stroke="#000000" stroke-width="0.1204" stroke-linecap="round" stroke-linejoin="round" fill="#000000"/>
          <path d="M 163.8048,18.3076 L 163.8048,17.8258 L 163.6844,17.4645 L 163.4435,17.1031 L 163.2026,16.7418 L 162.9617,16.5009 L 162.4799,16.2600 L 162.1186,16.1396 L 161.6368,16.1396 L 153.6874,16.1396 L 153.3261,16.1396 L 152.8443,16.2600 L 152.4830,16.5009 L 152.2421,16.7418 L 152.0012,17.1031 L 151.7603,17.4645 L 151.6399,17.8258 L 151.5194,18.3076 L 151.6399,18.6689 L 151.7603,19.1507 L 152.0012,19.5120 L 152.2421,19.7529 L 152.4830,19.9938 L 152.8443,20.2347 L 153.3261,20.3552 L 153.6874,20.4756 L 161.6368,20.4756 L 162.1186,20.3552 L 162.4799,20.2347 L 162.9617,19.9938 L 163.2026,19.7529 L 163.4435,19.5120 L 163.6844,19.1507 L 163.8048,18.6689 L 163.8048,18.3076 Z" stroke="#000000" stroke-width="0.1204" stroke-linecap="round" stroke-linejoin="round" fill="#000000"/>
          <path d="M 182.5942,18.3076 L 182.5942,17.8258 L 182.4737,17.4645 L 182.2328,17.1031 L 181.9920,16.7418 L 181.7511,16.5009 L 181.3897,16.2600 L 180.9079,16.1396 L 180.5466,16.1396 L 172.4768,16.1396 L 172.1155,16.1396 L 171.6337,16.2600 L 171.2724,16.5009 L 171.0315,16.7418 L 170.7906,17.1031 L 170.5497,17.4645 L 170.4293,17.8258 L 170.3088,18.3076 L 170.4293,18.6689 L 170.5497,19.1507 L 170.7906,19.5120 L 171.0315,19.7529 L 171.2724,19.9938 L 171.6337,20.2347 L 172.1155,20.3552 L 172.4768,20.4756 L 180.5466,20.4756 L 180.9079,20.3552 L 181.3897,20.2347 L 181.7511,19.9938 L 181.9920,19.7529 L 182.2328,19.5120 L 182.4737,19.1507 L 182.5942,18.6689 L 182.5942,18.3076 Z" stroke="#000000" stroke-width="0.1204" stroke-linecap="round" stroke-linejoin="round" fill="#000000"/>
          <path d="M 201.3835,18.3076 L 201.2631,17.8258 L 201.1427,17.4645 L 200.9018,17.1031 L 200.6609,16.7418 L 200.4200,16.5009 L 200.0587,16.2600 L 199.5769,16.1396 L 199.2155,16.1396 L 191.1457,16.1396 L 190.7844,16.1396 L 190.3026,16.2600 L 189.9413,16.5009 L 189.7004,16.7418 L 189.4595,17.1031 L 189.2186,17.4645 L 189.0982,17.8258 L 188.9777,18.3076 L 189.0982,18.6689 L 189.2186,19.1507 L 189.4595,19.5120 L 189.7004,19.7529 L 189.9413,19.9938 L 190.3026,20.2347 L 190.7844,20.3552 L 191.1457,20.4756 L 199.2155,20.4756 L 199.5769,20.3552 L 200.0587,20.2347 L 200.4200,19.9938 L 200.6609,19.7529 L 200.9018,19.5120 L 201.1427,19.1507 L 201.2631,18.6689 L 201.3835,18.3076 Z" stroke="#000000" stroke-width="0.1204" stroke-linecap="round" stroke-linejoin="round" fill="#000000"/>
          <path d="M 220.1729,18.3076 L 220.0525,17.8258 L 219.9320,17.4645 L 219.6911,17.1031 L 219.4503,16.7418 L 219.2094,16.5009 L 218.8480,16.2600 L 218.3663,16.1396 L 218.0049,16.1396 L 210.0556,16.1396 L 209.5738,16.1396 L 209.0920,16.2600 L 208.7307,16.5009 L 208.4898,16.7418 L 208.2489,17.1031 L 208.0080,17.4645 L 207.8876,17.8258 L 207.8876,18.3076 L 207.8876,18.6689 L 208.0080,19.1507 L 208.2489,19.5120 L 208.4898,19.7529 L 208.7307,19.9938 L 209.0920,20.2347 L 209.5738,20.3552 L 210.0556,20.4756 L 218.0049,20.4756 L 218.3663,20.3552 L 218.8480,20.2347 L 219.2094,19.9938 L 219.4503,19.7529 L 219.6911,19.5120 L 219.9320,19.1507 L 220.0525,18.6689 L 220.1729,18.3076 Z" stroke="#000000" stroke-width="0.1204" stroke-linecap="round" stroke-linejoin="round" fill="#000000"/>
          <path d="M 238.8419,18.3076 L 238.7214,17.8258 L 238.6010,17.4645 L 238.3601,17.1031 L 238.1192,16.7418 L 237.8783,16.5009 L 237.5170,16.2600 L 237.0352,16.1396 L 236.6738,16.1396 L 228.7245,16.1396 L 228.2427,16.1396 L 227.8814,16.2600 L 227.3996,16.5009 L 227.1587,16.7418 L 226.9178,17.1031 L 226.6769,17.4645 L 226.5565,17.8258 L 226.5565,18.3076 L 226.5565,18.6689 L 226.6769,19.1507 L 226.9178,19.5120 L 227.1587,19.7529 L 227.3996,19.9938 L 227.8814,20.2347 L 228.2427,20.3552 L 228.7245,20.4756 L 236.6738,20.4756 L 237.0352,20.3552 L 237.5170,20.2347 L 237.8783,19.9938 L 238.1192,19.7529 L 238.3601,19.5120 L 238.6010,19.1507 L 238.7214,18.6689 L 238.8419,18.3076 Z" stroke="#000000" stroke-width="0.1204" stroke-linecap="round" stroke-linejoin="round" fill="#000000"/>
          <path d="M 257.6312,18.3076 L 257.5108,17.8258 L 257.3903,17.4645 L 257.2699,17.1031 L 256.9086,16.7418 L 256.6677,16.5009 L 256.3063,16.2600 L 255.8246,16.1396 L 255.4632,16.1396 L 247.5139,16.1396 L 247.0321,16.1396 L 246.6708,16.2600 L 246.1890,16.5009 L 245.9481,16.7418 L 245.7072,17.1031 L 245.4663,17.4645 L 245.3459,17.8258 L 245.3459,18.3076 L 245.3459,18.6689 L 245.4663,19.1507 L 245.7072,19.5120 L 245.9481,19.7529 L 246.1890,19.9938 L 246.6708,20.2347 L 247.0321,20.3552 L 247.5139,20.4756 L 255.4632,20.4756 L 255.8246,20.3552 L 256.3063,20.2347 L 256.6677,19.9938 L 256.9086,19.7529 L 257.2699,19.5120 L 257.3903,19.1507 L 257.5108,18.6689 L 257.6312,18.3076 Z" stroke="#000000" stroke-width="0.1204" stroke-linecap="round" stroke-linejoin="round" fill="#000000"/>
          <path d="M 276.1797,18.3076 L 276.1797,17.8258 L 276.0593,17.4645 L 275.8184,17.1031 L 275.5775,16.7418 L 275.3366,16.5009 L 274.8548,16.2600 L 274.4935,16.1396 L 274.0117,16.1396 L 266.0624,16.1396 L 265.7010,16.1396 L 265.2192,16.2600 L 264.8579,16.5009 L 264.6170,16.7418 L 264.3761,17.1031 L 264.1352,17.4645 L 264.0148,17.8258 L 263.8944,18.3076 L 264.0148,18.6689 L 264.1352,19.1507 L 264.3761,19.5120 L 264.6170,19.7529 L 264.8579,19.9938 L 265.2192,20.2347 L 265.7010,20.3552 L 266.0624,20.4756 L 274.0117,20.4756 L 274.4935,20.3552 L 274.8548,20.2347 L 275.3366,19.9938 L 275.5775,19.7529 L 275.8184,19.5120 L 276.0593,19.1507 L 276.1797,18.6689 L 276.1797,18.3076 Z" stroke="#000000" stroke-width="0.1204" stroke-linecap="round" stroke-linejoin="round" fill="#000000"/>
          <path d="M 294.9691,18.3076 L 294.9691,17.8258 L 294.8486,17.4645 L 294.6078,17.1031 L 294.3669,16.7418 L 294.1260,16.5009 L 293.7646,16.2600 L 293.2829,16.1396 L 292.9215,16.1396 L 284.8517,16.1396 L 284.4904,16.1396 L 284.0086,16.2600 L 283.6473,16.5009 L 283.4064,16.7418 L 283.1655,17.1031 L 282.9246,17.4645 L 282.8042,17.8258 L 282.6837,18.3076 L 282.8042,18.6689 L 282.9246,19.1507 L 283.1655,19.5120 L 283.4064,19.7529 L 283.6473,19.9938 L 284.0086,20.2347 L 284.4904,20.3552 L 284.8517,20.4756 L 292.9215,20.4756 L 293.2829,20.3552 L 293.7646,20.2347 L 294.1260,19.9938 L 294.3669,19.7529 L 294.6078,19.5120 L 294.8486,19.1507 L 294.9691,18.6689 L 294.9691,18.3076 Z" stroke="#000000" stroke-width="0.1204" stroke-linecap="round" stroke-linejoin="round" fill="#000000"/>
          <path d="M 313.6380,18.3076 L 313.6380,17.8258 L 313.5176,17.4645 L 313.2767,17.1031 L 313.0358,16.7418 L 312.7949,16.5009 L 312.4336,16.2600 L 311.9518,16.1396 L 311.5905,16.1396 L 303.5207,16.1396 L 303.1593,16.1396 L 302.6775,16.2600 L 302.3162,16.5009 L 302.0753,16.7418 L 301.8344,17.1031 L 301.5935,17.4645 L 301.4731,17.8258 L 301.3527,18.3076 L 301.4731,18.6689 L 301.5935,19.1507 L 301.8344,19.5120 L 302.0753,19.7529 L 302.3162,19.9938 L 302.6775,20.2347 L 303.1593,20.3552 L 303.5207,20.4756 L 311.5905,20.4756 L 311.9518,20.3552 L 312.4336,20.2347 L 312.7949,19.9938 L 313.0358,19.7529 L 313.2767,19.5120 L 313.5176,19.1507 L 313.6380,18.6689 L 313.6380,18.3076 Z" stroke="#000000" stroke-width="0.1204" stroke-linecap="round" stroke-linejoin="round" fill="#000000"/>
          <path d="M 332.5478,18.3076 L 332.4274,17.8258 L 332.3069,17.4645 L 332.0661,17.1031 L 331.8252,16.7418 L 331.5843,16.5009 L 331.2229,16.2600 L 330.7412,16.1396 L 330.3798,16.1396 L 322.3100,16.1396 L 321.9487,16.1396 L 321.4669,16.2600 L 321.1056,16.5009 L 320.8647,16.7418 L 320.6238,17.1031 L 320.3829,17.4645 L 320.2625,17.8258 L 320.2625,18.3076 L 320.2625,18.6689 L 320.3829,19.1507 L 320.6238,19.5120 L 320.8647,19.7529 L 321.1056,19.9938 L 321.4669,20.2347 L 321.9487,20.3552 L 322.3100,20.4756 L 330.3798,20.4756 L 330.7412,20.3552 L 331.2229,20.2347 L 331.5843,19.9938 L 331.8252,19.7529 L 332.0661,19.5120 L 332.3069,19.1507 L 332.4274,18.6689 L 332.5478,18.3076 Z" stroke="#000000" stroke-width="0.1204" stroke-linecap="round" stroke-linejoin="round" fill="#000000"/>
          <path d="M 351.2168,18.3076 L 351.0963,17.8258 L 350.9759,17.4645 L 350.7350,17.1031 L 350.4941,16.7418 L 350.2532,16.5009 L 349.8919,16.2600 L 349.4101,16.1396 L 349.0488,16.1396 L 341.0994,16.1396 L 340.6176,16.1396 L 340.1358,16.2600 L 339.7745,16.5009 L 339.5336,16.7418 L 339.2927,17.1031 L 339.0518,17.4645 L 338.9314,17.8258 L 338.9314,18.3076 L 338.9314,18.6689 L 339.0518,19.1507 L 339.2927,19.5120 L 339.5336,19.7529 L 339.7745,19.9938 L 340.1358,20.2347 L 340.6176,20.3552 L 341.0994,20.4756 L 349.0488,20.4756 L 349.4101,20.3552 L 349.8919,20.2347 L 350.2532,19.9938 L 350.4941,19.7529 L 350.7350,19.5120 L 350.9759,19.1507 L 351.0963,18.6689 L 351.2168,18.3076 Z" stroke="#000000" stroke-width="0.1204" stroke-linecap="round" stroke-linejoin="round" fill="#000000"/>
          <path d="M 370.0061,18.3076 L 369.8857,17.8258 L 369.7652,17.4645 L 369.5244,17.1031 L 369.2835,16.7418 L 369.0426,16.5009 L 368.6812,16.2600 L 368.1995,16.1396 L 367.8381,16.1396 L 359.8888,16.1396 L 359.4070,16.1396 L 359.0457,16.2600 L 358.5639,16.5009 L 358.3230,16.7418 L 358.0821,17.1031 L 357.8412,17.4645 L 357.7208,17.8258 L 357.7208,18.3076 L 357.7208,18.6689 L 357.8412,19.1507 L 358.0821,19.5120 L 358.3230,19.7529 L 358.5639,19.9938 L 359.0457,20.2347 L 359.4070,20.3552 L 359.8888,20.4756 L 367.8381,20.4756 L 368.1995,20.3552 L 368.6812,20.2347 L 369.0426,19.9938 L 369.2835,19.7529 L 369.5244,19.5120 L 369.7652,19.1507 L 369.8857,18.6689 L 370.0061,18.3076 Z" stroke="#000000" stroke-width="0.1204" stroke-linecap="round" stroke-linejoin="round" fill="#000000"/>
          <path d="M 388.6751,18.3076 L 388.5546,17.8258 L 388.4342,17.4645 L 388.3137,17.1031 L 387.9524,16.7418 L 387.7115,16.5009 L 387.3502,16.2600 L 386.8684,16.1396 L 386.5071,16.1396 L 378.5577,16.1396 L 378.0759,16.1396 L 377.7146,16.2600 L 377.2328,16.5009 L 376.9919,16.7418 L 376.7510,17.1031 L 376.5102,17.4645 L 376.3897,17.8258 L 376.3897,18.3076 L 376.3897,18.6689 L 376.5102,19.1507 L 376.7510,19.5120 L 376.9919,19.7529 L 377.2328,19.9938 L 377.7146,20.2347 L 378.0759,20.3552 L 378.5577,20.4756 L 386.5071,20.4756 L 386.8684,20.3552 L 387.3502,20.2347 L 387.7115,19.9938 L 387.9524,19.7529 L 388.3137,19.5120 L 388.4342,19.1507 L 388.5546,18.6689 L 388.6751,18.3076 Z" stroke="#000000" stroke-width="0.1204" stroke-linecap="round" stroke-linejoin="round" fill="#000000"/>
          <path d="M 407.3440,18.3076 L 407.3440,17.8258 L 407.2236,17.4645 L 406.9827,17.1031 L 406.7418,16.7418 L 406.5009,16.5009 L 406.0191,16.2600 L 405.6578,16.1396 L 405.1760,16.1396 L 397.2266,16.1396 L 396.8653,16.1396 L 396.3835,16.2600 L 396.0222,16.5009 L 395.7813,16.7418 L 395.5404,17.1031 L 395.2995,17.4645 L 395.1791,17.8258 L 395.0586,18.3076 L 395.1791,18.6689 L 395.2995,19.1507 L 395.5404,19.5120 L 395.7813,19.7529 L 396.0222,19.9938 L 396.3835,20.2347 L 396.8653,20.3552 L 397.2266,20.4756 L 405.1760,20.4756 L 405.6578,20.3552 L 406.0191,20.2347 L 406.5009,19.9938 L 406.7418,19.7529 L 406.9827,19.5120 L 407.2236,19.1507 L 407.3440,18.6689 L 407.3440,18.3076 Z" stroke="#000000" stroke-width="0.1204" stroke-linecap="round" stroke-linejoin="round" fill="#000000"/>
          <path d="M 426.0129,18.3076 L 426.0129,17.8258 L 425.8925,17.4645 L 425.6516,17.1031 L 425.4107,16.7418 L 425.1698,16.5009 L 424.8085,16.2600 L 424.3267,16.1396 L 423.9654,16.1396 L 415.8956,16.1396 L 415.5342,16.1396 L 415.0525,16.2600 L 414.6911,16.5009 L 414.4502,16.7418 L 414.2093,17.1031 L 413.9685,17.4645 L 413.8480,17.8258 L 413.7276,18.3076 L 413.8480,18.6689 L 413.9685,19.1507 L 414.2093,19.5120 L 414.4502,19.7529 L 414.6911,19.9938 L 415.0525,20.2347 L 415.5342,20.3552 L 415.8956,20.4756 L 423.9654,20.4756 L 424.3267,20.3552 L 424.8085,20.2347 L 425.1698,19.9938 L 425.4107,19.7529 L 425.6516,19.5120 L 425.8925,19.1507 L 426.0129,18.6689 L 426.0129,18.3076 Z" stroke="#000000" stroke-width="0.1204" stroke-linecap="round" stroke-linejoin="round" fill="#000000"/>
          <path d="M 444.9227,18.3076 L 444.8023,17.8258 L 444.6819,17.4645 L 444.4410,17.1031 L 444.2001,16.7418 L 443.9592,16.5009 L 443.5979,16.2600 L 443.1161,16.1396 L 442.7547,16.1396 L 434.6849,16.1396 L 434.3236,16.1396 L 433.8418,16.2600 L 433.4805,16.5009 L 433.2396,16.7418 L 432.9987,17.1031 L 432.7578,17.4645 L 432.6374,17.8258 L 432.6374,18.3076 L 432.6374,18.6689 L 432.7578,19.1507 L 432.9987,19.5120 L 433.2396,19.7529 L 433.4805,19.9938 L 433.8418,20.2347 L 434.3236,20.3552 L 434.6849,20.4756 L 442.7547,20.4756 L 443.1161,20.3552 L 443.5979,20.2347 L 443.9592,19.9938 L 444.2001,19.7529 L 444.4410,19.5120 L 444.6819,19.1507 L 444.8023,18.6689 L 444.9227,18.3076 Z" stroke="#000000" stroke-width="0.1204" stroke-linecap="round" stroke-linejoin="round" fill="#000000"/>
          <ellipse cx="33.7847" cy="76.9039" rx="2.2282" ry="2.2282" fill="#000000" stroke="#000000" stroke-width="0.1204" stroke-linecap="round" stroke-linejoin="round"/>
          <ellipse cx="33.7245" cy="76.9642" rx="1.8067" ry="1.8067" fill="#333333" stroke="#000000" stroke-width="0.1204" stroke-linecap="round" stroke-linejoin="round"/>
        </g>
        <g transform="matrix(1.0000 0.0000 0.0000 1.0000 0.0000 0.0000)">
</g>
        <g transform="matrix(1.0000 0.0000 0.0000 1.0000 0.0000 0.0000)">
</g>
        <g transform="matrix(1.0000 0.0000 0.0000 1.0000 0.0000 0.0000)">
</g>
        <g transform="matrix(1.0000 0.0000 0.0000 1.0000 0.0000 0.0000)">
</g>
        <g transform="matrix(0.2562 0.0000 0.0000 0.2466 51.9093 0.7915)">
</g>
        <g transform="matrix(0.2562 0.0000 0.0000 0.2466 51.9093 0.7915)">
</g>
        <g transform="matrix(0.2562 0.0000 0.0000 0.2466 51.9093 0.7915)">
</g>
        <g transform="matrix(0.2562 0.0000 0.0000 0.2466 51.9093 0.7915)">
</g>
        <g transform="matrix(0.2562 0.0000 0.0000 0.2466 51.9093 0.7915)">
</g>
        <g transform="matrix(0.2562 0.0000 0.0000 0.2466 51.9093 0.7915)">
</g>
        <g transform="matrix(8.9657 0.0000 0.0000 10.3584 51.9093 0.7915)">
</g>
        <g transform="matrix(8.9657 0.0000 0.0000 10.3584 51.9093 0.7915)">
</g>
        <g transform="matrix(0.1212 0.0000 0.0000 0.1164 51.9093 0.7915)">
</g>
        <g transform="matrix(0.1212 0.0000 0.0000 0.1164 51.9093 0.7915)">
</g>
        <g transform="matrix(0.1212 0.0000 0.0000 0.1164 51.7050 0.6934)">
</g>
        <g transform="matrix(0.1212 0.0000 0.0000 0.1164 51.7050 0.6934)">
          <path d="M 6.1427,0.8431 L 6.1427,7.2267 " stroke="#000000" stroke-width="0.1204" stroke-linecap="round" stroke-linejoin="round" fill="none"/>
          <path d="M 1.6862,8.5516 L 10.5991,8.5516 " stroke="#000000" stroke-width="0.1204" stroke-linecap="round" stroke-linejoin="round" fill="none"/>
          <path d="M 3.2520,9.8765 L 9.2742,9.8765 " stroke="#000000" stroke-width="0.1204" stroke-linecap="round" stroke-linejoin="round" fill="none"/>
          <path d="M 4.8178,11.5627 L 7.7085,11.5627 " stroke="#000000" stroke-width="0.1204" stroke-linecap="round" stroke-linejoin="round" fill="none"/>
        </g>
        <g transform="matrix(1.0000 0.0000 0.0000 1.0000 0.0000 0.0000)">
</g>
        <g transform="matrix(1.0000 0.0000 0.0000 1.0000 0.0000 0.0000)">
          <text font-family="Arial" fill="#000000" style="white-space:pre;" font-weight="400" text-anchor="start" x="39.0241" y="17.9342" font-size="1.3249"><![CDATA[WAN2]]></text>
          <text font-family="Arial" fill="#000000" style="white-space:pre;" font-weight="400" text-anchor="start" x="47.3348" y="17.9342" font-size="1.3249"><![CDATA[WAN1]]></text>
          <text font-family="Arial" fill="#000000" style="white-space:pre;" font-weight="400" text-anchor="start" x="56.2477" y="17.9342" font-size="1.3249"><![CDATA[DMZ]]></text>
          <text font-family="Arial" fill="#000000" style="white-space:pre;" font-weight="400" text-anchor="start" x="118.0358" y="17.9342" font-size="1.3249"><![CDATA[1]]></text>
          <text font-family="Arial" fill="#000000" style="white-space:pre;" font-weight="400" text-anchor="start" x="84.9135" y="17.9342" font-size="1.3249"><![CDATA[5]]></text>
          <text font-family="Arial" fill="#000000" style="white-space:pre;" font-weight="400" text-anchor="start" x="93.2242" y="17.9342" font-size="1.3249"><![CDATA[4]]></text>
          <text font-family="Arial" fill="#000000" style="white-space:pre;" font-weight="400" text-anchor="start" x="101.5349" y="17.9342" font-size="1.3249"><![CDATA[3]]></text>
          <text font-family="Arial" fill="#000000" style="white-space:pre;" font-weight="400" text-anchor="start" x="109.7251" y="17.9342" font-size="1.3249"><![CDATA[2]]></text>
          <text font-family="Arial" fill="#000000" style="white-space:pre;" font-weight="400" text-anchor="start" x="73.7122" y="17.9342" font-size="1.3249"><![CDATA[6]]></text>
          <text font-family="Arial" fill="#000000" style="white-space:pre;" font-weight="400" text-anchor="start" x="65.4015" y="17.9342" font-size="1.3249"><![CDATA[7]]></text>
          <text font-family="Arial" fill="#000000" style="white-space:pre;" font-weight="400" text-anchor="start" x="25.6547" y="17.9342" font-size="1.3249"><![CDATA[CONSOLE]]></text>
          <text font-family="Arial" fill="#000000" style="white-space:pre;" font-weight="400" text-anchor="start" x="17.8258" y="17.9342" font-size="1.3249"><![CDATA[USB]]></text>
          <text font-family="Arial" fill="#000000" style="white-space:pre;" font-weight="400" text-anchor="start" x="10.8400" y="17.9342" font-size="1.3249"><![CDATA[DC+12V]]></text>
          <text font-family="Arial" fill="#000000" style="white-space:pre;" font-weight="400" text-anchor="start" x="5.1791" y="15.8867" font-size="1.3249"><![CDATA[RESET]]></text>
        </g>
        <g transform="matrix(1.0000 0.0000 0.0000 1.0000 0.0000 0.0000)">
</g>
        <g transform="matrix(1.0000 0.0000 0.0000 1.0000 0.0000 0.0000)">
</g>
        <g transform="matrix(0.2816 0.0000 0.0000 0.2819 53.4875 0.6784)">
</g>
        <g transform="matrix(0.2816 0.0000 0.0000 0.2819 53.4875 0.6784)">
</g>
        <g transform="matrix(0.2816 0.0000 0.0000 0.2819 53.4875 0.6784)">
</g>
        <g transform="matrix(0.2816 0.0000 0.0000 0.2819 53.4875 0.6784)">
</g>
        <g transform="matrix(0.2816 0.0000 0.0000 0.2819 53.4875 0.6784)">
</g>
        <g transform="matrix(0.2816 0.0000 0.0000 0.2819 53.4875 0.6784)">
</g>
        <g transform="matrix(12.1080 0.0000 0.0000 12.1222 53.4875 0.6784)">
</g>
        <g transform="matrix(12.1080 0.0000 0.0000 12.1222 53.4875 0.6784)">
</g>
        <g transform="matrix(0.1316 0.0000 0.0000 0.1318 53.4875 0.6784)">
</g>
        <g transform="matrix(0.1316 0.0000 0.0000 0.1318 53.4875 0.6784)">
</g>
        <g transform="matrix(0.1316 0.0000 0.0000 0.1318 53.2814 0.3610)">
</g>
        <g transform="matrix(0.1316 0.0000 0.0000 0.1318 53.2814 0.3610)">
          <ellipse cx="7.0460" cy="7.8289" rx="5.3598" ry="5.4200" fill="#999999" stroke="#000000" stroke-width="0.1204" stroke-linecap="round" stroke-linejoin="round"/>
          <ellipse cx="7.0460" cy="7.8289" rx="4.0349" ry="4.0951" fill="#666666" stroke="#000000" stroke-width="0.1204" stroke-linecap="round" stroke-linejoin="round"/>
          <ellipse cx="7.1062" cy="7.8289" rx="3.7338" ry="3.7338" fill="#7F7F7F" stroke="#7F7F7F" stroke-width="0.1204" stroke-linecap="round" stroke-linejoin="round"/>
          <path d="M 4.0951,7.3471 L 4.0951,7.3471 L 4.0951,7.3471 L 4.0951,7.4676 L 4.0951,7.4676 L 4.0951,7.4676 L 3.9747,7.4676 L 3.9747,7.4676 L 3.9747,7.4676 L 3.9747,7.4676 L 3.9747,7.4676 L 3.9747,7.4676 L 3.9747,7.4676 L 3.9747,7.4676 L 3.8542,7.4676 L 3.8542,7.5880 L 3.8542,7.5880 L 3.8542,7.5880 L 3.8542,7.5880 L 3.8542,7.5880 L 3.8542,7.5880 L 3.8542,7.7085 L 3.8542,7.7085 L 3.8542,7.7085 L 3.8542,7.7085 L 3.8542,7.7085 L 3.8542,7.7085 L 3.8542,7.8289 L 3.8542,7.8289 L 3.8542,7.8289 L 3.8542,7.8289 L 3.8542,7.8289 L 3.8542,7.9494 L 3.8542,7.9494 L 3.8542,7.9494 L 3.8542,7.9494 L 3.8542,7.9494 L 3.8542,7.9494 L 3.8542,7.9494 L 3.8542,7.9494 L 3.8542,7.9494 L 3.8542,7.9494 L 3.8542,7.9494 L 3.8542,7.9494 L 3.8542,7.9494 L 3.8542,7.9494 L 3.8542,7.9494 L 3.8542,7.9494 L 3.8542,8.0698 L 3.8542,8.0698 L 3.8542,8.0698 L 3.8542,8.0698 L 3.8542,8.0698 L 3.8542,8.0698 L 3.8542,8.0698 L 3.8542,8.0698 L 3.8542,8.0698 L 3.8542,8.0698 L 3.8542,8.0698 L 3.8542,8.0698 L 3.8542,8.0698 L 3.8542,8.0698 L 3.8542,8.0698 L 3.8542,8.0698 L 3.8542,8.0698 L 3.8542,8.1902 L 3.8542,8.1902 L 3.8542,8.1902 L 3.8542,8.1902 L 3.8542,8.1902 L 3.8542,8.3107 L 3.8542,8.3107 L 3.8542,8.3107 L 3.8542,8.3107 L 3.8542,8.3107 L 3.8542,8.3107 L 3.8542,8.4311 L 3.8542,8.4311 L 3.8542,8.4311 L 3.8542,8.4311 L 3.8542,8.4311 L 3.8542,8.4311 L 3.8542,8.5516 L 3.9747,8.5516 L 3.9747,8.5516 L 3.9747,8.5516 L 3.9747,8.5516 L 3.9747,8.5516 L 3.9747,8.5516 L 3.9747,8.5516 L 3.9747,8.5516 L 4.0951,8.5516 L 4.0951,8.5516 L 4.0951,8.6720 L 4.0951,8.6720 L 4.0951,8.6720 L 4.0951,8.6720 L 4.0951,8.6720 L 4.2156,8.6720 L 4.2156,8.6720 L 4.2156,8.6720 L 4.2156,8.6720 L 4.2156,8.6720 L 4.3360,8.6720 L 4.3360,8.6720 L 4.3360,8.6720 L 4.4565,8.6720 L 4.4565,8.6720 L 4.5769,8.6720 L 4.5769,8.6720 L 4.6973,8.6720 L 4.8178,8.6720 L 4.8178,8.6720 L 4.9382,8.6720 L 5.0587,8.6720 L 5.1791,8.6720 L 5.1791,8.6720 L 5.2996,8.6720 L 5.4200,8.6720 L 5.5405,8.6720 L 5.6609,8.6720 L 5.7813,8.6720 L 5.9018,8.6720 L 6.0222,8.6720 L 6.1427,8.6720 L 6.2631,8.6720 L 6.3836,8.6720 L 6.5040,8.6720 L 6.6245,8.6720 L 6.6245,8.7925 L 6.6245,8.9129 L 6.6245,9.0334 L 6.6245,9.1538 L 6.6245,9.2742 L 6.6245,9.2742 L 6.6245,9.3947 L 6.6245,9.5151 L 6.6245,9.6356 L 6.6245,9.7560 L 6.6245,9.8765 L 6.6245,9.9969 L 6.6245,9.9969 L 6.6245,10.1174 L 6.6245,10.2378 L 6.6245,10.3582 L 6.6245,10.3582 L 6.6245,10.4787 L 6.6245,10.5991 L 6.6245,10.5991 L 6.6245,10.7196 L 6.6245,10.7196 L 6.6245,10.8400 L 6.6245,10.8400 L 6.6245,10.8400 L 6.6245,10.9605 L 6.6245,10.9605 L 6.6245,10.9605 L 6.6245,10.9605 L 6.6245,10.9605 L 6.6245,11.0809 L 6.6245,11.0809 L 6.6245,11.0809 L 6.6245,11.0809 L 6.6245,11.0809 L 6.6245,11.0809 L 6.6245,11.0809 L 6.6245,11.2014 L 6.6245,11.2014 L 6.6245,11.2014 L 6.6245,11.2014 L 6.6245,11.2014 L 6.6245,11.2014 L 6.6245,11.3218 L 6.6245,11.3218 L 6.6245,11.3218 L 6.7449,11.3218 L 6.7449,11.3218 L 6.7449,11.3218 L 6.7449,11.4422 L 6.7449,11.4422 L 6.7449,11.4422 L 6.8653,11.4422 L 6.8653,11.4422 L 6.8653,11.4422 L 6.8653,11.4422 L 6.8653,11.4422 L 6.8653,11.4422 L 6.9858,11.4422 L 6.9858,11.4422 L 6.9858,11.4422 L 6.9858,11.4422 L 6.9858,11.4422 L 7.1062,11.5627 L 7.1062,11.5627 L 7.1062,11.5627 L 7.1062,11.5627 L 7.1062,11.5627 L 7.1062,11.5627 L 7.1062,11.5627 L 7.1062,11.5627 L 7.1062,11.5627 L 7.1062,11.5627 L 7.1062,11.5627 L 7.1062,11.5627 L 7.1062,11.5627 L 7.1062,11.5627 L 7.1062,11.5627 L 7.1062,11.5627 L 7.2267,11.5627 L 7.2267,11.5627 L 7.2267,11.5627 L 7.2267,11.5627 L 7.2267,11.5627 L 7.2267,11.5627 L 7.2267,11.5627 L 7.2267,11.5627 L 7.2267,11.5627 L 7.2267,11.5627 L 7.2267,11.5627 L 7.2267,11.5627 L 7.2267,11.5627 L 7.3471,11.5627 L 7.3471,11.5627 L 7.3471,11.5627 L 7.3471,11.5627 L 7.3471,11.4422 L 7.3471,11.4422 L 7.3471,11.4422 L 7.3471,11.4422 L 7.3471,11.4422 L 7.4676,11.4422 L 7.4676,11.4422 L 7.4676,11.4422 L 7.4676,11.4422 L 7.4676,11.4422 L 7.4676,11.4422 L 7.5880,11.4422 L 7.5880,11.4422 L 7.5880,11.4422 L 7.5880,11.3218 L 7.5880,11.3218 L 7.5880,11.3218 L 7.7085,11.3218 L 7.7085,11.3218 L 7.7085,11.3218 L 7.7085,11.2014 L 7.7085,11.2014 L 7.7085,11.2014 L 7.7085,11.2014 L 7.7085,11.2014 L 7.7085,11.2014 L 7.7085,11.0809 L 7.7085,11.0809 L 7.7085,11.0809 L 7.8289,11.0809 L 7.8289,11.0809 L 7.8289,11.0809 L 7.8289,11.0809 L 7.8289,10.9605 L 7.8289,10.9605 L 7.8289,10.9605 L 7.8289,10.9605 L 7.8289,10.9605 L 7.8289,10.8400 L 7.8289,10.8400 L 7.8289,10.8400 L 7.8289,10.7196 L 7.8289,10.7196 L 7.8289,10.5991 L 7.8289,10.5991 L 7.8289,10.4787 L 7.8289,10.4787 L 7.8289,10.3582 L 7.8289,10.2378 L 7.8289,10.2378 L 7.8289,10.1174 L 7.8289,9.9969 L 7.8289,9.8765 L 7.8289,9.7560 L 7.8289,9.7560 L 7.8289,9.6356 L 7.8289,9.5151 L 7.8289,9.3947 L 7.8289,9.2742 L 7.8289,9.1538 L 7.8289,9.0334 L 7.8289,8.9129 L 7.8289,8.7925 L 7.8289,8.6720 L 7.9494,8.6720 L 8.0698,8.6720 L 8.1902,8.6720 L 8.3107,8.6720 L 8.4311,8.6720 L 8.4311,8.6720 L 8.5516,8.6720 L 8.6720,8.6720 L 8.7925,8.6720 L 8.9129,8.6720 L 9.0334,8.6720 L 9.1538,8.6720 L 9.1538,8.6720 L 9.2742,8.6720 L 9.3947,8.6720 L 9.5151,8.6720 L 9.5151,8.6720 L 9.6356,8.6720 L 9.7560,8.6720 L 9.7560,8.6720 L 9.8765,8.6720 L 9.8765,8.6720 L 9.9969,8.6720 L 9.9969,8.6720 L 9.9969,8.6720 L 10.1174,8.6720 L 10.1174,8.6720 L 10.1174,8.6720 L 10.1174,8.6720 L 10.1174,8.6720 L 10.1174,8.6720 L 10.1174,8.6720 L 10.2378,8.6720 L 10.2378,8.6720 L 10.2378,8.6720 L 10.2378,8.5516 L 10.2378,8.5516 L 10.3582,8.5516 L 10.3582,8.5516 L 10.3582,8.5516 L 10.3582,8.5516 L 10.3582,8.5516 L 10.3582,8.5516 L 10.4787,8.5516 L 10.4787,8.5516 L 10.4787,8.5516 L 10.4787,8.4311 L 10.4787,8.4311 L 10.4787,8.4311 L 10.5991,8.4311 L 10.5991,8.4311 L 10.5991,8.4311 L 10.5991,8.3107 L 10.5991,8.3107 L 10.5991,8.3107 L 10.5991,8.3107 L 10.5991,8.3107 L 10.5991,8.3107 L 10.5991,8.1902 L 10.5991,8.1902 L 10.5991,8.1902 L 10.5991,8.1902 L 10.5991,8.1902 L 10.5991,8.0698 L 10.5991,8.0698 L 10.5991,8.0698 L 10.5991,8.0698 L 10.5991,8.0698 L 10.5991,8.0698 L 10.5991,8.0698 L 10.5991,8.0698 L 10.5991,8.0698 L 10.5991,8.0698 L 10.5991,8.0698 L 10.5991,8.0698 L 10.5991,8.0698 L 10.5991,8.0698 L 10.5991,8.0698 L 10.5991,8.0698 L 10.5991,8.0698 L 10.5991,7.9494 L 10.5991,7.9494 L 10.5991,7.9494 L 10.5991,7.9494 L 10.5991,7.9494 L 10.5991,7.9494 L 10.5991,7.9494 L 10.5991,7.9494 L 10.5991,7.9494 L 10.5991,7.9494 L 10.5991,7.9494 L 10.5991,7.9494 L 10.5991,7.9494 L 10.5991,7.9494 L 10.5991,7.9494 L 10.5991,7.9494 L 10.5991,7.8289 L 10.5991,7.8289 L 10.5991,7.8289 L 10.5991,7.8289 L 10.5991,7.8289 L 10.5991,7.7085 L 10.5991,7.7085 L 10.5991,7.7085 L 10.5991,7.7085 L 10.5991,7.7085 L 10.5991,7.7085 L 10.5991,7.5880 L 10.5991,7.5880 L 10.5991,7.5880 L 10.4787,7.5880 L 10.4787,7.5880 L 10.4787,7.5880 L 10.4787,7.4676 L 10.4787,7.4676 L 10.4787,7.4676 L 10.3582,7.4676 L 10.3582,7.4676 L 10.3582,7.4676 L 10.3582,7.4676 L 10.3582,7.4676 L 10.3582,7.4676 L 10.2378,7.4676 L 10.2378,7.4676 L 10.2378,7.4676 L 10.2378,7.3471 L 10.2378,7.3471 L 10.1174,7.3471 L 10.1174,7.3471 L 10.1174,7.3471 L 10.1174,7.3471 L 10.1174,7.3471 L 10.1174,7.3471 L 10.1174,7.3471 L 9.9969,7.3471 L 9.9969,7.3471 L 9.9969,7.3471 L 9.8765,7.3471 L 9.8765,7.3471 L 9.7560,7.3471 L 9.7560,7.3471 L 9.6356,7.3471 L 9.6356,7.3471 L 9.5151,7.3471 L 9.3947,7.3471 L 9.3947,7.3471 L 9.2742,7.3471 L 9.1538,7.3471 L 9.0334,7.3471 L 8.9129,7.3471 L 8.9129,7.3471 L 8.7925,7.3471 L 8.6720,7.3471 L 8.5516,7.3471 L 8.4311,7.3471 L 8.3107,7.3471 L 8.1902,7.3471 L 8.0698,7.3471 L 7.9494,7.3471 L 7.8289,7.3471 L 7.8289,7.3471 L 7.8289,7.3471 L 7.8289,7.3471 L 7.8289,7.3471 L 7.8289,7.2267 L 7.8289,7.2267 L 7.8289,7.1062 L 7.8289,6.9858 L 7.8289,6.9858 L 7.8289,6.8653 L 7.8289,6.7449 L 7.8289,6.6245 L 7.8289,6.5040 L 7.8289,6.3836 L 7.8289,6.2631 L 7.8289,6.1427 L 7.8289,6.1427 L 7.8289,6.0222 L 7.8289,5.9018 L 7.8289,5.7813 L 7.8289,5.6609 L 7.8289,5.5405 L 7.8289,5.4200 L 7.8289,5.4200 L 7.8289,5.2996 L 7.8289,5.1791 L 7.8289,5.1791 L 7.8289,5.0587 L 7.8289,5.0587 L 7.8289,5.0587 L 7.8289,5.0587 L 7.8289,4.9382 L 7.8289,4.9382 L 7.8289,4.9382 L 7.7085,4.9382 L 7.7085,4.9382 L 7.7085,4.9382 L 7.7085,4.8178 L 7.7085,4.8178 L 7.7085,4.8178 L 7.7085,4.8178 L 7.7085,4.8178 L 7.7085,4.8178 L 7.7085,4.8178 L 7.7085,4.8178 L 7.7085,4.6973 L 7.5880,4.6973 L 7.5880,4.6973 L 7.5880,4.6973 L 7.5880,4.6973 L 7.5880,4.6973 L 7.5880,4.6973 L 7.4676,4.6973 L 7.4676,4.6973 L 7.4676,4.6973 L 7.4676,4.6973 L 7.4676,4.6973 L 7.4676,4.6973 L 7.3471,4.6973 L 7.3471,4.6973 L 7.3471,4.6973 L 7.3471,4.6973 L 7.3471,4.6973 L 7.3471,4.6973 L 7.3471,4.6973 L 7.3471,4.6973 L 7.3471,4.6973 L 7.2267,4.6973 L 7.2267,4.6973 L 7.2267,4.6973 L 7.2267,4.6973 L 7.2267,4.6973 L 7.2267,4.6973 L 7.2267,4.6973 L 7.2267,4.6973 L 7.2267,4.6973 L 7.2267,4.6973 L 7.2267,4.6973 L 7.2267,4.6973 L 7.2267,4.6973 L 7.1062,4.6973 L 7.1062,4.6973 L 7.1062,4.6973 L 7.1062,4.6973 L 7.1062,4.6973 L 7.1062,4.6973 L 7.1062,4.6973 L 7.1062,4.6973 L 7.1062,4.6973 L 7.1062,4.6973 L 7.1062,4.6973 L 7.1062,4.6973 L 7.1062,4.6973 L 7.1062,4.6973 L 7.1062,4.6973 L 7.1062,4.6973 L 6.9858,4.6973 L 6.9858,4.6973 L 6.9858,4.6973 L 6.9858,4.6973 L 6.9858,4.6973 L 6.8653,4.6973 L 6.8653,4.6973 L 6.8653,4.6973 L 6.8653,4.6973 L 6.8653,4.6973 L 6.8653,4.6973 L 6.7449,4.6973 L 6.7449,4.6973 L 6.7449,4.6973 L 6.7449,4.6973 L 6.7449,4.6973 L 6.7449,4.6973 L 6.6245,4.6973 L 6.6245,4.8178 L 6.6245,4.8178 L 6.6245,4.8178 L 6.6245,4.8178 L 6.6245,4.8178 L 6.6245,4.8178 L 6.6245,4.8178 L 6.6245,4.8178 L 6.6245,4.9382 L 6.6245,4.9382 L 6.6245,4.9382 L 6.6245,4.9382 L 6.6245,4.9382 L 6.6245,4.9382 L 6.6245,5.0587 L 6.6245,5.0587 L 6.6245,5.0587 L 6.6245,5.0587 L 6.6245,5.0587 L 6.6245,5.0587 L 6.6245,5.1791 L 6.6245,5.1791 L 6.6245,5.1791 L 6.6245,5.2996 L 6.6245,5.2996 L 6.6245,5.4200 L 6.6245,5.4200 L 6.6245,5.5405 L 6.6245,5.6609 L 6.6245,5.6609 L 6.6245,5.7813 L 6.6245,5.9018 L 6.6245,6.0222 L 6.6245,6.0222 L 6.6245,6.1427 L 6.6245,6.2631 L 6.6245,6.3836 L 6.6245,6.5040 L 6.6245,6.6245 L 6.6245,6.7449 L 6.6245,6.7449 L 6.6245,6.8653 L 6.6245,6.9858 L 6.6245,7.1062 L 6.6245,7.2267 L 6.6245,7.3471 L 6.5040,7.3471 L 6.5040,7.3471 L 6.5040,7.3471 L 6.5040,7.3471 L 6.3836,7.3471 L 6.3836,7.3471 L 6.2631,7.3471 L 6.1427,7.3471 L 6.1427,7.3471 L 6.0222,7.3471 L 5.9018,7.3471 L 5.7813,7.3471 L 5.6609,7.3471 L 5.5405,7.3471 L 5.4200,7.3471 L 5.2996,7.3471 L 5.2996,7.3471 L 5.1791,7.3471 L 5.0587,7.3471 L 4.9382,7.3471 L 4.8178,7.3471 L 4.6973,7.3471 L 4.5769,7.3471 L 4.5769,7.3471 L 4.4565,7.3471 L 4.3360,7.3471 L 4.3360,7.3471 L 4.2156,7.3471 L 4.2156,7.3471 L 4.2156,7.3471 L 4.2156,7.3471 L 4.0951,7.3471 Z" stroke="#161616" stroke-width="0.1204" stroke-linecap="round" stroke-linejoin="round" fill="#494949"/>
          <path d="M 3.6133,7.8289 L 3.6133,7.8289 L 3.6133,7.8289 L 3.6133,7.8289 L 3.6133,7.8289 L 3.6133,7.8289 L 3.6133,7.8289 L 3.6133,7.8289 L 3.6133,7.8289 L 3.6133,7.8289 L 3.6133,7.8289 L 3.6133,7.8289 L 3.6133,7.8289 L 3.6133,7.8289 L 3.6133,7.8289 L 3.6133,7.8289 L 3.6133,7.8289 L 3.6133,7.9494 L 3.6133,7.9494 L 3.6133,7.9494 L 3.6133,7.9494 L 3.6133,7.9494 L 3.6133,7.9494 L 3.6133,7.9494 L 3.6133,7.9494 L 3.6133,7.9494 L 3.6133,7.9494 L 3.6133,7.9494 L 3.6133,7.9494 L 3.6133,7.9494 L 3.6133,7.9494 L 3.6133,7.9494 L 3.6133,7.9494 L 3.6133,7.9494 L 3.6133,7.9494 L 3.6133,7.9494 L 3.6133,8.0698 L 3.6133,8.0698 L 3.6133,8.0698 L 3.6133,8.0698 L 3.6133,8.0698 L 3.6133,8.0698 L 3.6133,8.0698 L 3.6133,8.0698 L 3.6133,8.0698 L 3.6133,8.0698 L 3.6133,8.0698 L 3.6133,8.0698 L 3.6133,8.0698 L 3.6133,8.1902 L 3.6133,8.1902 L 3.6133,8.1902 L 3.6133,8.1902 L 3.6133,8.1902 L 3.6133,8.1902 L 3.6133,8.1902 L 3.6133,8.1902 L 3.6133,8.1902 L 3.6133,8.1902 L 3.6133,8.1902 L 3.6133,8.1902 L 3.6133,8.1902 L 3.6133,8.1902 L 3.6133,8.1902 L 3.6133,8.1902 L 3.6133,8.3107 L 3.6133,8.3107 L 3.7338,8.3107 L 3.7338,8.3107 L 3.7338,8.3107 L 3.7338,8.4311 L 3.7338,8.4311 L 3.7338,8.4311 L 3.7338,8.4311 L 3.7338,8.4311 L 3.7338,8.4311 L 3.7338,8.4311 L 3.7338,8.4311 L 3.7338,8.5516 L 3.8542,8.5516 L 3.8542,8.5516 L 3.8542,8.5516 L 3.8542,8.5516 L 3.8542,8.5516 L 3.8542,8.5516 L 3.9747,8.5516 L 3.9747,8.5516 L 3.9747,8.5516 L 3.9747,8.5516 L 3.9747,8.5516 L 3.9747,8.5516 L 4.0951,8.5516 L 4.0951,8.6720 L 4.0951,8.6720 L 4.0951,8.6720 L 4.0951,8.6720 L 4.0951,8.6720 L 4.0951,8.6720 L 4.2156,8.6720 L 4.2156,8.6720 L 4.2156,8.6720 L 4.2156,8.6720 L 4.2156,8.6720 L 4.3360,8.6720 L 4.3360,8.6720 L 4.3360,8.6720 L 4.4565,8.6720 L 4.4565,8.6720 L 4.5769,8.6720 L 4.5769,8.6720 L 4.6973,8.6720 L 4.8178,8.6720 L 4.8178,8.6720 L 4.9382,8.6720 L 5.0587,8.6720 L 5.1791,8.6720 L 5.1791,8.6720 L 5.2996,8.6720 L 5.4200,8.6720 L 5.5405,8.6720 L 5.6609,8.6720 L 5.7813,8.6720 L 5.9018,8.6720 L 6.0222,8.6720 L 6.1427,8.6720 L 6.2631,8.6720 L 6.3836,8.6720 L 6.5040,8.6720 L 6.6245,8.6720 L 6.6245,8.7925 L 6.6245,8.9129 L 6.6245,9.0334 L 6.6245,9.1538 L 6.6245,9.2742 L 6.6245,9.3947 L 6.6245,9.5151 L 6.6245,9.6356 L 6.6245,9.7560 L 6.6245,9.8765 L 6.6245,9.9969 L 6.6245,10.1174 L 6.6245,10.2378 L 6.6245,10.2378 L 6.6245,10.3582 L 6.6245,10.4787 L 6.6245,10.5991 L 6.6245,10.5991 L 6.6245,10.7196 L 6.6245,10.8400 L 6.6245,10.8400 L 6.6245,10.9605 L 6.6245,10.9605 L 6.6245,11.0809 L 6.6245,11.0809 L 6.6245,11.0809 L 6.6245,11.2014 L 6.6245,11.2014 L 6.6245,11.2014 L 6.6245,11.2014 L 6.6245,11.2014 L 6.6245,11.2014 L 6.6245,11.3218 L 6.6245,11.3218 L 6.6245,11.3218 L 6.6245,11.3218 L 6.6245,11.3218 L 6.6245,11.3218 L 6.6245,11.4422 L 6.6245,11.4422 L 6.6245,11.4422 L 6.6245,11.4422 L 6.6245,11.4422 L 6.6245,11.4422 L 6.6245,11.4422 L 6.6245,11.5627 L 6.7449,11.5627 L 6.7449,11.5627 L 6.7449,11.5627 L 6.7449,11.5627 L 6.7449,11.5627 L 6.7449,11.5627 L 6.8653,11.5627 L 6.8653,11.5627 L 6.8653,11.5627 L 6.8653,11.5627 L 6.8653,11.5627 L 6.8653,11.5627 L 6.9858,11.5627 L 6.9858,11.5627 L 6.9858,11.5627 L 6.9858,11.6831 L 6.9858,11.6831 L 7.1062,11.6831 L 7.1062,11.6831 L 7.1062,11.6831 L 7.1062,11.6831 L 7.1062,11.6831 L 7.1062,11.6831 L 7.1062,11.6831 L 7.1062,11.6831 L 7.1062,11.6831 L 7.1062,11.6831 L 7.1062,11.6831 L 7.1062,11.6831 L 7.1062,11.6831 L 7.1062,11.6831 L 7.1062,11.6831 L 7.1062,11.6831 L 7.2267,11.6831 L 7.2267,11.6831 L 7.2267,11.6831 L 7.2267,11.6831 L 7.2267,11.6831 L 7.2267,11.6831 L 7.2267,11.6831 L 7.2267,11.6831 L 7.2267,11.6831 L 7.2267,11.6831 L 7.2267,11.6831 L 7.2267,11.6831 L 7.2267,11.6831 L 7.3471,11.6831 L 7.3471,11.6831 L 7.3471,11.6831 L 7.3471,11.6831 " stroke="#BFBFBF" stroke-width="0.1204" stroke-linecap="round" stroke-linejoin="round" fill="none"/>
          <path d="M 6.6245,4.8178 L 6.6245,4.8178 L 6.6245,4.9382 L 6.6245,4.9382 L 6.6245,4.9382 L 6.6245,4.9382 L 6.6245,4.9382 L 6.6245,5.0587 L 6.6245,5.0587 L 6.6245,5.0587 L 6.6245,5.1791 L 6.6245,5.1791 L 6.6245,5.2996 L 6.6245,5.2996 L 6.6245,5.4200 L 6.6245,5.4200 L 6.6245,5.5405 L 6.6245,5.6609 L 6.6245,5.7813 L 6.6245,5.7813 L 6.6245,5.9018 L 6.6245,6.0222 L 6.6245,6.1427 L 6.6245,6.2631 L 6.6245,6.3836 L 6.6245,6.5040 L 6.6245,6.6245 L 6.6245,6.7449 L 6.6245,6.8653 L 6.6245,6.9858 L 6.6245,7.1062 L 6.6245,7.2267 L 6.6245,7.3471 " stroke="#BFBFBF" stroke-width="0.1204" stroke-linecap="round" stroke-linejoin="round" fill="none"/>
        </g>
        <g transform="matrix(1.0000 0.0000 0.0000 1.0000 0.0000 0.0000)">
</g>
        <g transform="matrix(1.0000 0.0000 0.0000 1.0000 0.0000 0.0000)">
</g>
        <g transform="matrix(1.0000 0.0000 0.0000 1.0000 0.0000 0.0000)">
</g>
        <g transform="matrix(1.0000 0.0000 0.0000 1.0000 0.0000 0.0000)">
</g>
        <g transform="matrix(0.2497 0.0000 0.0000 0.2486 52.7548 3.6183)">
</g>
        <g transform="matrix(0.2497 0.0000 0.0000 0.2486 52.7548 3.6183)">
</g>
        <g transform="matrix(0.2497 0.0000 0.0000 0.2486 52.7548 3.6183)">
</g>
        <g transform="matrix(0.2497 0.0000 0.0000 0.2486 52.7548 3.6183)">
</g>
        <g transform="matrix(0.2497 0.0000 0.0000 0.2486 52.7548 3.6183)">
</g>
        <g transform="matrix(0.2497 0.0000 0.0000 0.2486 52.7548 3.6183)">
</g>
        <g transform="matrix(29.9626 0.0000 0.0000 26.3499 52.7548 3.6183)">
</g>
        <g transform="matrix(29.9626 0.0000 0.0000 26.3499 52.7548 3.6183)">
</g>
        <g transform="matrix(0.1170 0.0000 0.0000 0.1171 52.7548 3.6183)">
</g>
        <g transform="matrix(0.1170 0.0000 0.0000 0.1171 52.7548 3.6183)">
</g>
        <g transform="matrix(0.1170 0.0000 0.0000 0.1171 52.4305 3.4631)">
</g>
        <g transform="matrix(0.1170 0.0000 0.0000 0.1171 52.4305 3.4631)">
          <path d="M 2.8907,1.3249 L 2.8907,19.6325 L 10.5991,19.6325 L 10.5991,24.0889 L 13.7307,24.0889 L 13.7307,28.4250 L 22.7640,28.4250 L 22.7640,24.0889 L 26.0161,24.0889 L 26.0161,19.6325 L 33.7245,19.6325 L 33.7245,1.3249 L 2.8907,1.3249 Z" stroke="#161616" stroke-width="0.1204" stroke-linecap="round" stroke-linejoin="round" fill="#000000"/>
        </g>
        <g transform="matrix(1.0000 0.0000 0.0000 1.0000 0.0000 0.0000)">
</g>
        <g transform="matrix(1.0000 0.0000 0.0000 1.0000 0.0000 0.0000)">
</g>
        <g transform="matrix(1.0000 0.0000 0.0000 1.0000 0.0000 0.0000)">
</g>
        <g transform="matrix(1.0000 0.0000 0.0000 1.0000 0.0000 0.0000)">
</g>
        <g transform="matrix(0.2497 0.0000 0.0000 0.2486 48.8658 3.6183)">
</g>
        <g transform="matrix(0.2497 0.0000 0.0000 0.2486 48.8658 3.6183)">
</g>
        <g transform="matrix(0.2497 0.0000 0.0000 0.2486 48.8658 3.6183)">
</g>
        <g transform="matrix(0.2497 0.0000 0.0000 0.2486 48.8658 3.6183)">
</g>
        <g transform="matrix(0.2497 0.0000 0.0000 0.2486 48.8658 3.6183)">
</g>
        <g transform="matrix(0.2497 0.0000 0.0000 0.2486 48.8658 3.6183)">
</g>
        <g transform="matrix(29.9626 0.0000 0.0000 26.3499 48.8658 3.6183)">
</g>
        <g transform="matrix(29.9626 0.0000 0.0000 26.3499 48.8658 3.6183)">
</g>
        <g transform="matrix(0.1170 0.0000 0.0000 0.1171 48.8658 3.6183)">
</g>
        <g transform="matrix(0.1170 0.0000 0.0000 0.1171 48.8658 3.6183)">
</g>
        <g transform="matrix(0.1170 0.0000 0.0000 0.1171 48.5416 3.4631)">
</g>
        <g transform="matrix(0.1170 0.0000 0.0000 0.1171 48.5416 3.4631)">
          <path d="M 2.8907,1.3249 L 2.8907,19.6325 L 10.5991,19.6325 L 10.5991,24.0889 L 13.7307,24.0889 L 13.7307,28.4250 L 22.7640,28.4250 L 22.7640,24.0889 L 26.0161,24.0889 L 26.0161,19.6325 L 33.7245,19.6325 L 33.7245,1.3249 L 2.8907,1.3249 Z" stroke="#161616" stroke-width="0.1204" stroke-linecap="round" stroke-linejoin="round" fill="#000000"/>
        </g>
        <g transform="matrix(1.0000 0.0000 0.0000 1.0000 0.0000 0.0000)">
</g>
        <g transform="matrix(1.0000 0.0000 0.0000 1.0000 0.0000 0.0000)">
</g>
        <g transform="matrix(1.0000 0.0000 0.0000 1.0000 0.0000 0.0000)">
</g>
        <g transform="matrix(1.0000 0.0000 0.0000 1.0000 0.0000 0.0000)">
</g>
        <g transform="matrix(0.2497 0.0000 0.0000 0.2486 45.0332 3.6183)">
</g>
        <g transform="matrix(0.2497 0.0000 0.0000 0.2486 45.0332 3.6183)">
</g>
        <g transform="matrix(0.2497 0.0000 0.0000 0.2486 45.0332 3.6183)">
</g>
        <g transform="matrix(0.2497 0.0000 0.0000 0.2486 45.0332 3.6183)">
</g>
        <g transform="matrix(0.2497 0.0000 0.0000 0.2486 45.0332 3.6183)">
</g>
        <g transform="matrix(0.2497 0.0000 0.0000 0.2486 45.0332 3.6183)">
</g>
        <g transform="matrix(29.9626 0.0000 0.0000 26.3499 45.0332 3.6183)">
</g>
        <g transform="matrix(29.9626 0.0000 0.0000 26.3499 45.0332 3.6183)">
</g>
        <g transform="matrix(0.1170 0.0000 0.0000 0.1171 45.0332 3.6183)">
</g>
        <g transform="matrix(0.1170 0.0000 0.0000 0.1171 45.0332 3.6183)">
</g>
        <g transform="matrix(0.1170 0.0000 0.0000 0.1171 44.7090 3.4631)">
</g>
        <g transform="matrix(0.1170 0.0000 0.0000 0.1171 44.7090 3.4631)">
          <path d="M 2.8907,1.3249 L 2.8907,19.6325 L 10.5991,19.6325 L 10.5991,24.0889 L 13.7307,24.0889 L 13.7307,28.4250 L 22.7640,28.4250 L 22.7640,24.0889 L 26.0161,24.0889 L 26.0161,19.6325 L 33.7245,19.6325 L 33.7245,1.3249 L 2.8907,1.3249 Z" stroke="#161616" stroke-width="0.1204" stroke-linecap="round" stroke-linejoin="round" fill="#000000"/>
        </g>
        <g transform="matrix(1.0000 0.0000 0.0000 1.0000 0.0000 0.0000)">
</g>
        <g transform="matrix(1.0000 0.0000 0.0000 1.0000 0.0000 0.0000)">
</g>
        <g transform="matrix(1.0000 0.0000 0.0000 1.0000 0.0000 0.0000)">
</g>
        <g transform="matrix(1.0000 0.0000 0.0000 1.0000 0.0000 0.0000)">
</g>
        <g transform="matrix(0.2497 0.0000 0.0000 0.2486 41.1442 3.6183)">
</g>
        <g transform="matrix(0.2497 0.0000 0.0000 0.2486 41.1442 3.6183)">
</g>
        <g transform="matrix(0.2497 0.0000 0.0000 0.2486 41.1442 3.6183)">
</g>
        <g transform="matrix(0.2497 0.0000 0.0000 0.2486 41.1442 3.6183)">
</g>
        <g transform="matrix(0.2497 0.0000 0.0000 0.2486 41.1442 3.6183)">
</g>
        <g transform="matrix(0.2497 0.0000 0.0000 0.2486 41.1442 3.6183)">
</g>
        <g transform="matrix(29.9626 0.0000 0.0000 26.3499 41.1442 3.6183)">
</g>
        <g transform="matrix(29.9626 0.0000 0.0000 26.3499 41.1442 3.6183)">
</g>
        <g transform="matrix(0.1170 0.0000 0.0000 0.1171 41.1442 3.6183)">
</g>
        <g transform="matrix(0.1170 0.0000 0.0000 0.1171 41.1442 3.6183)">
</g>
        <g transform="matrix(0.1170 0.0000 0.0000 0.1171 40.8200 3.4631)">
</g>
        <g transform="matrix(0.1170 0.0000 0.0000 0.1171 40.8200 3.4631)">
          <path d="M 2.8907,1.3249 L 2.8907,19.6325 L 10.5991,19.6325 L 10.5991,24.0889 L 13.7307,24.0889 L 13.7307,28.4250 L 22.7640,28.4250 L 22.7640,24.0889 L 26.0161,24.0889 L 26.0161,19.6325 L 33.7245,19.6325 L 33.7245,1.3249 L 2.8907,1.3249 Z" stroke="#161616" stroke-width="0.1204" stroke-linecap="round" stroke-linejoin="round" fill="#000000"/>
        </g>
        <g transform="matrix(1.0000 0.0000 0.0000 1.0000 0.0000 0.0000)">
</g>
        <g transform="matrix(1.0000 0.0000 0.0000 1.0000 0.0000 0.0000)">
</g>
        <g transform="matrix(1.0000 0.0000 0.0000 1.0000 0.0000 0.0000)">
</g>
        <g transform="matrix(1.0000 0.0000 0.0000 1.0000 0.0000 0.0000)">
</g>
        <g transform="matrix(0.2497 0.0000 0.0000 0.2486 37.2552 3.6183)">
</g>
        <g transform="matrix(0.2497 0.0000 0.0000 0.2486 37.2552 3.6183)">
</g>
        <g transform="matrix(0.2497 0.0000 0.0000 0.2486 37.2552 3.6183)">
</g>
        <g transform="matrix(0.2497 0.0000 0.0000 0.2486 37.2552 3.6183)">
</g>
        <g transform="matrix(0.2497 0.0000 0.0000 0.2486 37.2552 3.6183)">
</g>
        <g transform="matrix(0.2497 0.0000 0.0000 0.2486 37.2552 3.6183)">
</g>
        <g transform="matrix(29.9626 0.0000 0.0000 26.3499 37.2552 3.6183)">
</g>
        <g transform="matrix(29.9626 0.0000 0.0000 26.3499 37.2552 3.6183)">
</g>
        <g transform="matrix(0.1170 0.0000 0.0000 0.1171 37.2552 3.6183)">
</g>
        <g transform="matrix(0.1170 0.0000 0.0000 0.1171 37.2552 3.6183)">
</g>
        <g transform="matrix(0.1170 0.0000 0.0000 0.1171 36.9310 3.4631)">
</g>
        <g transform="matrix(0.1170 0.0000 0.0000 0.1171 36.9310 3.4631)">
          <path d="M 2.8907,1.3249 L 2.8907,19.6325 L 10.5991,19.6325 L 10.5991,24.0889 L 13.7307,24.0889 L 13.7307,28.4250 L 22.7640,28.4250 L 22.7640,24.0889 L 26.0161,24.0889 L 26.0161,19.6325 L 33.7245,19.6325 L 33.7245,1.3249 L 2.8907,1.3249 Z" stroke="#161616" stroke-width="0.1204" stroke-linecap="round" stroke-linejoin="round" fill="#000000"/>
        </g>
        <g transform="matrix(1.0000 0.0000 0.0000 1.0000 0.0000 0.0000)">
</g>
        <g transform="matrix(1.0000 0.0000 0.0000 1.0000 0.0000 0.0000)">
</g>
        <g transform="matrix(1.0000 0.0000 0.0000 1.0000 0.0000 0.0000)">
</g>
        <g transform="matrix(1.0000 0.0000 0.0000 1.0000 0.0000 0.0000)">
</g>
        <g transform="matrix(0.2497 0.0000 0.0000 0.2486 32.0136 3.6183)">
</g>
        <g transform="matrix(0.2497 0.0000 0.0000 0.2486 32.0136 3.6183)">
</g>
        <g transform="matrix(0.2497 0.0000 0.0000 0.2486 32.0136 3.6183)">
</g>
        <g transform="matrix(0.2497 0.0000 0.0000 0.2486 32.0136 3.6183)">
</g>
        <g transform="matrix(0.2497 0.0000 0.0000 0.2486 32.0136 3.6183)">
</g>
        <g transform="matrix(0.2497 0.0000 0.0000 0.2486 32.0136 3.6183)">
</g>
        <g transform="matrix(29.9626 0.0000 0.0000 26.3499 32.0136 3.6183)">
</g>
        <g transform="matrix(29.9626 0.0000 0.0000 26.3499 32.0136 3.6183)">
</g>
        <g transform="matrix(0.1170 0.0000 0.0000 0.1171 32.0136 3.6183)">
</g>
        <g transform="matrix(0.1170 0.0000 0.0000 0.1171 32.0136 3.6183)">
</g>
        <g transform="matrix(0.1170 0.0000 0.0000 0.1171 31.6894 3.4631)">
</g>
        <g transform="matrix(0.1170 0.0000 0.0000 0.1171 31.6894 3.4631)">
          <path d="M 2.8907,1.3249 L 2.8907,19.6325 L 10.5991,19.6325 L 10.5991,24.0889 L 13.7307,24.0889 L 13.7307,28.4250 L 22.7640,28.4250 L 22.7640,24.0889 L 26.0161,24.0889 L 26.0161,19.6325 L 33.7245,19.6325 L 33.7245,1.3249 L 2.8907,1.3249 Z" stroke="#161616" stroke-width="0.1204" stroke-linecap="round" stroke-linejoin="round" fill="#000000"/>
        </g>
        <g transform="matrix(1.0000 0.0000 0.0000 1.0000 0.0000 0.0000)">
</g>
        <g transform="matrix(1.0000 0.0000 0.0000 1.0000 0.0000 0.0000)">
</g>
        <g transform="matrix(1.0000 0.0000 0.0000 1.0000 0.0000 0.0000)">
</g>
        <g transform="matrix(1.0000 0.0000 0.0000 1.0000 0.0000 0.0000)">
</g>
        <g transform="matrix(0.2497 0.0000 0.0000 0.2486 28.1246 3.6183)">
</g>
        <g transform="matrix(0.2497 0.0000 0.0000 0.2486 28.1246 3.6183)">
</g>
        <g transform="matrix(0.2497 0.0000 0.0000 0.2486 28.1246 3.6183)">
</g>
        <g transform="matrix(0.2497 0.0000 0.0000 0.2486 28.1246 3.6183)">
</g>
        <g transform="matrix(0.2497 0.0000 0.0000 0.2486 28.1246 3.6183)">
</g>
        <g transform="matrix(0.2497 0.0000 0.0000 0.2486 28.1246 3.6183)">
</g>
        <g transform="matrix(29.9626 0.0000 0.0000 26.3499 28.1246 3.6183)">
</g>
        <g transform="matrix(29.9626 0.0000 0.0000 26.3499 28.1246 3.6183)">
</g>
        <g transform="matrix(0.1170 0.0000 0.0000 0.1171 28.1246 3.6183)">
</g>
        <g transform="matrix(0.1170 0.0000 0.0000 0.1171 28.1246 3.6183)">
</g>
        <g transform="matrix(0.1170 0.0000 0.0000 0.1171 27.8004 3.4631)">
</g>
        <g transform="matrix(0.1170 0.0000 0.0000 0.1171 27.8004 3.4631)">
          <path d="M 2.8907,1.3249 L 2.8907,19.6325 L 10.5991,19.6325 L 10.5991,24.0889 L 13.7307,24.0889 L 13.7307,28.4250 L 22.7640,28.4250 L 22.7640,24.0889 L 26.0161,24.0889 L 26.0161,19.6325 L 33.7245,19.6325 L 33.7245,1.3249 L 2.8907,1.3249 Z" stroke="#161616" stroke-width="0.1204" stroke-linecap="round" stroke-linejoin="round" fill="#000000"/>
        </g>
        <g transform="matrix(1.0000 0.0000 0.0000 1.0000 0.0000 0.0000)">
</g>
        <g transform="matrix(1.0000 0.0000 0.0000 1.0000 0.0000 0.0000)">
</g>
        <g transform="matrix(1.0000 0.0000 0.0000 1.0000 0.0000 0.0000)">
</g>
        <g transform="matrix(1.0000 0.0000 0.0000 1.0000 0.0000 0.0000)">
</g>
        <g transform="matrix(0.2497 0.0000 0.0000 0.2486 24.2920 3.6183)">
</g>
        <g transform="matrix(0.2497 0.0000 0.0000 0.2486 24.2920 3.6183)">
</g>
        <g transform="matrix(0.2497 0.0000 0.0000 0.2486 24.2920 3.6183)">
</g>
        <g transform="matrix(0.2497 0.0000 0.0000 0.2486 24.2920 3.6183)">
</g>
        <g transform="matrix(0.2497 0.0000 0.0000 0.2486 24.2920 3.6183)">
</g>
        <g transform="matrix(0.2497 0.0000 0.0000 0.2486 24.2920 3.6183)">
</g>
        <g transform="matrix(29.9626 0.0000 0.0000 26.3499 24.2920 3.6183)">
</g>
        <g transform="matrix(29.9626 0.0000 0.0000 26.3499 24.2920 3.6183)">
</g>
        <g transform="matrix(0.1170 0.0000 0.0000 0.1171 24.2920 3.6183)">
</g>
        <g transform="matrix(0.1170 0.0000 0.0000 0.1171 24.2920 3.6183)">
</g>
        <g transform="matrix(0.1170 0.0000 0.0000 0.1171 23.9678 3.4631)">
</g>
        <g transform="matrix(0.1170 0.0000 0.0000 0.1171 23.9678 3.4631)">
          <path d="M 2.8907,1.3249 L 2.8907,19.6325 L 10.5991,19.6325 L 10.5991,24.0889 L 13.7307,24.0889 L 13.7307,28.4250 L 22.7640,28.4250 L 22.7640,24.0889 L 26.0161,24.0889 L 26.0161,19.6325 L 33.7245,19.6325 L 33.7245,1.3249 L 2.8907,1.3249 Z" stroke="#161616" stroke-width="0.1204" stroke-linecap="round" stroke-linejoin="round" fill="#000000"/>
        </g>
        <g transform="matrix(1.0000 0.0000 0.0000 1.0000 0.0000 0.0000)">
</g>
        <g transform="matrix(1.0000 0.0000 0.0000 1.0000 0.0000 0.0000)">
</g>
        <g transform="matrix(1.0000 0.0000 0.0000 1.0000 0.0000 0.0000)">
</g>
        <g transform="matrix(1.0000 0.0000 0.0000 1.0000 0.0000 0.0000)">
</g>
        <g transform="matrix(0.2497 0.0000 0.0000 0.2486 20.4030 3.6183)">
</g>
        <g transform="matrix(0.2497 0.0000 0.0000 0.2486 20.4030 3.6183)">
</g>
        <g transform="matrix(0.2497 0.0000 0.0000 0.2486 20.4030 3.6183)">
</g>
        <g transform="matrix(0.2497 0.0000 0.0000 0.2486 20.4030 3.6183)">
</g>
        <g transform="matrix(0.2497 0.0000 0.0000 0.2486 20.4030 3.6183)">
</g>
        <g transform="matrix(0.2497 0.0000 0.0000 0.2486 20.4030 3.6183)">
</g>
        <g transform="matrix(29.9626 0.0000 0.0000 26.3499 20.4030 3.6183)">
</g>
        <g transform="matrix(29.9626 0.0000 0.0000 26.3499 20.4030 3.6183)">
</g>
        <g transform="matrix(0.1170 0.0000 0.0000 0.1171 20.4030 3.6183)">
</g>
        <g transform="matrix(0.1170 0.0000 0.0000 0.1171 20.4030 3.6183)">
</g>
        <g transform="matrix(0.1170 0.0000 0.0000 0.1171 20.0788 3.4631)">
</g>
        <g transform="matrix(0.1170 0.0000 0.0000 0.1171 20.0788 3.4631)">
          <path d="M 2.8907,1.3249 L 2.8907,19.6325 L 10.5991,19.6325 L 10.5991,24.0889 L 13.7307,24.0889 L 13.7307,28.4250 L 22.7640,28.4250 L 22.7640,24.0889 L 26.0161,24.0889 L 26.0161,19.6325 L 33.7245,19.6325 L 33.7245,1.3249 L 2.8907,1.3249 Z" stroke="#161616" stroke-width="0.1204" stroke-linecap="round" stroke-linejoin="round" fill="#000000"/>
        </g>
        <g transform="matrix(1.0000 0.0000 0.0000 1.0000 0.0000 0.0000)">
</g>
        <g transform="matrix(1.0000 0.0000 0.0000 1.0000 0.0000 0.0000)">
</g>
        <g transform="matrix(1.0000 0.0000 0.0000 1.0000 0.0000 0.0000)">
</g>
        <g transform="matrix(1.0000 0.0000 0.0000 1.0000 0.0000 0.0000)">
</g>
        <g transform="matrix(0.2497 0.0000 0.0000 0.2486 16.5140 3.6183)">
</g>
        <g transform="matrix(0.2497 0.0000 0.0000 0.2486 16.5140 3.6183)">
</g>
        <g transform="matrix(0.2497 0.0000 0.0000 0.2486 16.5140 3.6183)">
</g>
        <g transform="matrix(0.2497 0.0000 0.0000 0.2486 16.5140 3.6183)">
</g>
        <g transform="matrix(0.2497 0.0000 0.0000 0.2486 16.5140 3.6183)">
</g>
        <g transform="matrix(0.2497 0.0000 0.0000 0.2486 16.5140 3.6183)">
</g>
        <g transform="matrix(29.9626 0.0000 0.0000 26.3499 16.5140 3.6183)">
</g>
        <g transform="matrix(29.9626 0.0000 0.0000 26.3499 16.5140 3.6183)">
</g>
        <g transform="matrix(0.1170 0.0000 0.0000 0.1171 16.5140 3.6183)">
</g>
        <g transform="matrix(0.1170 0.0000 0.0000 0.1171 16.5140 3.6183)">
</g>
        <g transform="matrix(0.1170 0.0000 0.0000 0.1171 16.1898 3.4631)">
</g>
        <g transform="matrix(0.1170 0.0000 0.0000 0.1171 16.1898 3.4631)">
          <path d="M 2.8907,1.3249 L 2.8907,19.6325 L 10.5991,19.6325 L 10.5991,24.0889 L 13.7307,24.0889 L 13.7307,28.4250 L 22.7640,28.4250 L 22.7640,24.0889 L 26.0161,24.0889 L 26.0161,19.6325 L 33.7245,19.6325 L 33.7245,1.3249 L 2.8907,1.3249 Z" stroke="#161616" stroke-width="0.1204" stroke-linecap="round" stroke-linejoin="round" fill="#000000"/>
        </g>
        <g transform="matrix(1.0000 0.0000 0.0000 1.0000 0.0000 0.0000)">
</g>
        <g transform="matrix(1.0000 0.0000 0.0000 1.0000 0.0000 0.0000)">
</g>
        <g transform="matrix(1.0000 0.0000 0.0000 -1.0000 0.0000 22.8845)">
</g>
        <g transform="matrix(1.0000 0.0000 0.0000 -1.0000 0.0000 22.8845)">
</g>
        <g transform="matrix(0.2497 0.0000 0.0000 -0.2486 10.7651 6.2754)">
</g>
        <g transform="matrix(0.2497 0.0000 0.0000 -0.2486 10.7651 6.2754)">
</g>
        <g transform="matrix(0.2497 0.0000 0.0000 -0.2486 10.7651 6.2754)">
</g>
        <g transform="matrix(0.2497 0.0000 0.0000 -0.2486 10.7651 6.2754)">
</g>
        <g transform="matrix(0.2497 0.0000 0.0000 -0.2486 10.7651 6.2754)">
</g>
        <g transform="matrix(0.2497 0.0000 0.0000 -0.2486 10.7651 6.2754)">
</g>
        <g transform="matrix(29.9626 0.0000 0.0000 -26.3499 10.7651 6.2754)">
</g>
        <g transform="matrix(29.9626 0.0000 0.0000 -26.3499 10.7651 6.2754)">
</g>
        <g transform="matrix(0.1170 0.0000 0.0000 -0.1171 10.7651 6.2754)">
</g>
        <g transform="matrix(0.1170 0.0000 0.0000 -0.1171 10.7651 6.2754)">
</g>
        <g transform="matrix(0.1170 0.0000 0.0000 -0.1171 10.4409 6.4306)">
</g>
        <g transform="matrix(0.1170 0.0000 0.0000 -0.1171 10.4409 6.4306)">
          <path d="M 2.8907,1.3249 L 2.8907,19.6325 L 10.5991,19.6325 L 10.5991,24.0889 L 13.7307,24.0889 L 13.7307,28.4250 L 22.7640,28.4250 L 22.7640,24.0889 L 26.0161,24.0889 L 26.0161,19.6325 L 33.7245,19.6325 L 33.7245,1.3249 L 2.8907,1.3249 Z" stroke="#161616" stroke-width="0.1204" stroke-linecap="round" stroke-linejoin="round" fill="#000000"/>
        </g>
        <g transform="matrix(1.0000 0.0000 0.0000 1.0000 0.0000 0.0000)">
</g>
        <g transform="matrix(1.0000 0.0000 0.0000 1.0000 0.0000 0.0000)">
</g>
        <g transform="matrix(0.0000 -1.0000 -1.0000 -0.0000 31.3156 31.1952)">
</g>
        <g transform="matrix(0.0000 -1.0000 -1.0000 -0.0000 31.3156 31.1952)">
</g>
        <g transform="matrix(0.0000 -0.2525 -0.2546 -0.0000 8.9615 6.7842)">
</g>
        <g transform="matrix(0.0000 -0.2525 -0.2546 -0.0000 8.9615 6.7842)">
</g>
        <g transform="matrix(0.0000 -0.2525 -0.2546 -0.0000 8.9615 6.7842)">
</g>
        <g transform="matrix(0.0000 -0.2525 -0.2546 -0.0000 8.9615 6.7842)">
</g>
        <g transform="matrix(0.0000 -0.2525 -0.2546 -0.0000 8.9615 6.7842)">
</g>
        <g transform="matrix(0.0000 -0.2525 -0.2546 -0.0000 8.9615 6.7842)">
</g>
        <g transform="matrix(0.0000 -31.5621 -13.4926 -0.0000 8.9615 6.7842)">
</g>
        <g transform="matrix(0.0000 -31.5621 -13.4926 -0.0000 8.9615 6.7842)">
</g>
        <g transform="matrix(0.0000 -0.1187 -0.1184 -0.0000 8.9615 6.7842)">
</g>
        <g transform="matrix(0.0000 -0.1187 -0.1184 -0.0000 8.9615 6.7842)">
</g>
        <g transform="matrix(0.0000 -0.1187 -0.1184 -0.0000 9.0898 7.0129)">
</g>
        <g transform="matrix(0.0000 -0.1187 -0.1184 -0.0000 9.0898 7.0129)">
          <path d="M 3.2520,1.0840 L 3.1316,1.0840 L 3.0111,1.2044 L 3.0111,1.2044 L 2.8907,1.2044 L 2.8907,1.2044 L 2.7702,1.2044 L 2.7702,1.2044 L 2.6498,1.2044 L 2.6498,1.3249 L 2.5293,1.3249 L 2.5293,1.3249 L 2.4089,1.3249 L 2.4089,1.4453 L 2.4089,1.4453 L 2.2884,1.4453 L 2.2884,1.5658 L 2.1680,1.5658 L 2.1680,1.6862 L 2.1680,1.6862 L 2.0476,1.6862 L 2.0476,1.8067 L 2.0476,1.8067 L 2.0476,1.9271 L 1.9271,1.9271 L 1.9271,2.0476 L 1.9271,2.0476 L 1.9271,2.1680 L 1.9271,2.1680 L 1.9271,2.2884 L 1.9271,2.2884 L 1.9271,2.4089 L 1.9271,2.4089 L 1.9271,2.5293 L 1.9271,2.6498 L 1.9271,2.7702 L 1.9271,2.8907 L 1.9271,3.2520 L 1.9271,3.4929 L 1.9271,3.8542 L 1.9271,4.2156 L 1.9271,4.5769 L 1.9271,5.0587 L 1.9271,5.5405 L 1.9271,6.0222 L 1.9271,6.5040 L 1.9271,6.9858 L 1.9271,7.4676 L 1.9271,8.0698 L 1.9271,8.5516 L 1.9271,9.0334 L 1.9271,9.5151 L 1.9271,9.9969 L 1.9271,10.4787 L 1.9271,10.9605 L 1.9271,11.4422 L 1.9271,11.8036 L 1.9271,12.1649 L 1.9271,12.5262 L 1.9271,12.7671 L 1.9271,13.1285 L 1.9271,13.2489 L 1.9271,13.3694 L 1.9271,13.4898 L 1.9271,13.6103 L 1.9271,13.6103 L 1.9271,13.7307 L 1.9271,13.7307 L 1.9271,13.8511 L 1.9271,13.8511 L 1.9271,13.9716 L 1.9271,13.9716 L 1.9271,14.0920 L 2.0476,14.0920 L 2.0476,14.2125 L 2.0476,14.2125 L 2.0476,14.3329 L 2.1680,14.3329 L 2.1680,14.3329 L 2.1680,14.4534 L 2.2884,14.4534 L 2.2884,14.5738 L 2.4089,14.5738 L 2.4089,14.5738 L 2.4089,14.6943 L 2.5293,14.6943 L 2.5293,14.6943 L 2.6498,14.6943 L 2.6498,14.8147 L 2.7702,14.8147 L 2.7702,14.8147 L 2.8907,14.8147 L 2.8907,14.8147 L 3.0111,14.8147 L 3.0111,14.8147 L 3.1316,14.9351 L 3.2520,14.9351 L 3.2520,14.9351 L 3.4929,14.9351 L 3.9747,14.9351 L 4.4565,14.9351 L 5.1791,14.9351 L 5.9018,14.9351 L 6.7449,14.9351 L 7.8289,14.9351 L 8.9129,14.9351 L 9.9969,14.9351 L 11.2014,14.9351 L 12.5262,14.9351 L 13.8511,14.9351 L 15.1760,14.9351 L 16.5009,14.9351 L 17.8258,14.9351 L 19.2712,14.9351 L 20.5960,14.9351 L 21.9209,14.9351 L 23.2458,14.9351 L 24.5707,14.9351 L 25.7752,14.9351 L 26.8592,14.9351 L 27.9432,14.9351 L 29.0272,14.9351 L 29.8703,14.9351 L 30.5930,14.9351 L 31.3156,14.9351 L 31.7974,14.9351 L 32.2792,14.9351 L 32.5201,14.9351 L 32.5201,14.9351 L 32.6405,14.9351 L 32.7610,14.8147 L 32.7610,14.8147 L 32.8814,14.8147 L 32.8814,14.8147 L 33.0018,14.8147 L 33.0018,14.8147 L 33.1223,14.8147 L 33.1223,14.6943 L 33.2427,14.6943 L 33.2427,14.6943 L 33.3632,14.6943 L 33.3632,14.5738 L 33.3632,14.5738 L 33.4836,14.5738 L 33.4836,14.4534 L 33.6041,14.4534 L 33.6041,14.3329 L 33.6041,14.3329 L 33.7245,14.3329 L 33.7245,14.2125 L 33.7245,14.2125 L 33.7245,14.0920 L 33.8450,14.0920 L 33.8450,13.9716 L 33.8450,13.9716 L 33.8450,13.8511 L 33.8450,13.8511 L 33.8450,13.7307 L 33.8450,13.7307 L 33.8450,13.6103 L 33.8450,13.6103 L 33.8450,13.4898 L 33.8450,13.3694 L 33.8450,13.2489 L 33.8450,13.1285 L 33.8450,12.7671 L 33.8450,12.5262 L 33.8450,12.1649 L 33.8450,11.8036 L 33.8450,11.4422 L 33.8450,10.9605 L 33.8450,10.4787 L 33.8450,9.9969 L 33.8450,9.5151 L 33.8450,9.0334 L 33.8450,8.5516 L 33.8450,8.0698 L 33.8450,7.4676 L 33.8450,6.9858 L 33.8450,6.5040 L 33.8450,6.0222 L 33.8450,5.5405 L 33.8450,5.0587 L 33.8450,4.5769 L 33.8450,4.2156 L 33.8450,3.8542 L 33.8450,3.4929 L 33.8450,3.2520 L 33.8450,2.8907 L 33.8450,2.7702 L 33.8450,2.6498 L 33.8450,2.5293 L 33.8450,2.4089 L 33.8450,2.4089 L 33.8450,2.2884 L 33.8450,2.2884 L 33.8450,2.1680 L 33.8450,2.1680 L 33.8450,2.0476 L 33.8450,2.0476 L 33.8450,1.9271 L 33.7245,1.9271 L 33.7245,1.8067 L 33.7245,1.8067 L 33.7245,1.6862 L 33.6041,1.6862 L 33.6041,1.6862 L 33.6041,1.5658 L 33.4836,1.5658 L 33.4836,1.4453 L 33.3632,1.4453 L 33.3632,1.4453 L 33.3632,1.3249 L 33.2427,1.3249 L 33.2427,1.3249 L 33.1223,1.3249 L 33.1223,1.2044 L 33.0018,1.2044 L 33.0018,1.2044 L 32.8814,1.2044 L 32.8814,1.2044 L 32.7610,1.2044 L 32.7610,1.2044 L 32.6405,1.0840 L 32.5201,1.0840 L 32.5201,1.0840 L 32.2792,1.0840 L 31.7974,1.0840 L 31.3156,1.0840 L 30.5930,1.0840 L 29.8703,1.0840 L 29.0272,1.0840 L 27.9432,1.0840 L 26.8592,1.0840 L 25.7752,1.0840 L 24.5707,1.0840 L 23.2458,1.0840 L 21.9209,1.0840 L 20.5960,1.0840 L 19.2712,1.0840 L 17.8258,1.0840 L 16.5009,1.0840 L 15.1760,1.0840 L 13.8511,1.0840 L 12.5262,1.0840 L 11.2014,1.0840 L 9.9969,1.0840 L 8.9129,1.0840 L 7.8289,1.0840 L 6.7449,1.0840 L 5.9018,1.0840 L 5.1791,1.0840 L 4.4565,1.0840 L 3.9747,1.0840 L 3.4929,1.0840 L 3.2520,1.0840 L 3.2520,1.0840 Z" stroke="#000000" stroke-width="0.1204" stroke-linecap="round" stroke-linejoin="round" fill="#BFBFBF"/>
          <path d="M 3.6133,2.1680 L 3.6133,2.1680 L 3.6133,2.1680 L 3.4929,2.1680 L 3.4929,2.2884 L 3.4929,2.2884 L 3.3725,2.2884 L 3.3725,2.2884 L 3.3725,2.2884 L 3.3725,2.2884 L 3.2520,2.2884 L 3.2520,2.2884 L 3.2520,2.2884 L 3.2520,2.2884 L 3.1316,2.4089 L 3.1316,2.4089 L 3.1316,2.4089 L 3.1316,2.4089 L 3.1316,2.4089 L 3.0111,2.5293 L 3.0111,2.5293 L 3.0111,2.5293 L 3.0111,2.5293 L 3.0111,2.6498 L 3.0111,2.6498 L 3.0111,2.6498 L 3.0111,2.6498 L 3.0111,2.7702 L 3.0111,2.7702 L 3.0111,2.7702 L 2.8907,2.8907 L 2.8907,2.8907 L 2.8907,2.8907 L 2.8907,3.0111 L 2.8907,3.0111 L 2.8907,3.2520 L 2.8907,3.3725 L 2.8907,3.6133 L 2.8907,3.8542 L 2.8907,4.2156 L 2.8907,4.5769 L 2.8907,4.9382 L 2.8907,5.2996 L 2.8907,5.7813 L 2.8907,6.1427 L 2.8907,6.6245 L 2.8907,7.1062 L 2.8907,7.5880 L 2.8907,8.0698 L 2.8907,8.5516 L 2.8907,9.0334 L 2.8907,9.5151 L 2.8907,9.9969 L 2.8907,10.3582 L 2.8907,10.8400 L 2.8907,11.2014 L 2.8907,11.5627 L 2.8907,11.9240 L 2.8907,12.2854 L 2.8907,12.5262 L 2.8907,12.7671 L 2.8907,12.8876 L 2.8907,13.0080 L 2.8907,13.1285 L 2.8907,13.1285 L 2.8907,13.2489 L 2.8907,13.2489 L 3.0111,13.2489 L 3.0111,13.3694 L 3.0111,13.3694 L 3.0111,13.3694 L 3.0111,13.3694 L 3.0111,13.4898 L 3.0111,13.4898 L 3.0111,13.4898 L 3.0111,13.4898 L 3.0111,13.6103 L 3.0111,13.6103 L 3.1316,13.6103 L 3.1316,13.6103 L 3.1316,13.7307 L 3.1316,13.7307 L 3.1316,13.7307 L 3.2520,13.7307 L 3.2520,13.7307 L 3.2520,13.8511 L 3.2520,13.8511 L 3.3725,13.8511 L 3.3725,13.8511 L 3.3725,13.8511 L 3.3725,13.8511 L 3.4929,13.8511 L 3.4929,13.8511 L 3.4929,13.8511 L 3.6133,13.8511 L 3.6133,13.8511 L 3.6133,13.8511 L 3.7338,13.8511 L 3.9747,13.8511 L 4.3360,13.8511 L 4.9382,13.8511 L 5.5405,13.8511 L 6.2631,13.8511 L 7.2267,13.8511 L 8.1902,13.8511 L 9.1538,13.8511 L 10.2378,13.8511 L 11.4422,13.8511 L 12.6467,13.8511 L 13.9716,13.8511 L 15.2965,13.8511 L 16.6214,13.8511 L 17.9463,13.8511 L 19.2712,13.8511 L 20.5960,13.8511 L 21.9209,13.8511 L 23.2458,13.8511 L 24.4503,13.8511 L 25.6547,13.8511 L 26.7387,13.8511 L 27.7023,13.8511 L 28.6658,13.8511 L 29.6294,13.8511 L 30.3521,13.8511 L 30.9543,13.8511 L 31.5565,13.8511 L 31.9178,13.8511 L 32.1587,13.8511 L 32.2792,13.8511 L 32.2792,13.8511 L 32.2792,13.8511 L 32.2792,13.8511 L 32.3996,13.8511 L 32.3996,13.8511 L 32.3996,13.8511 L 32.3996,13.8511 L 32.5201,13.8511 L 32.5201,13.8511 L 32.5201,13.8511 L 32.5201,13.8511 L 32.5201,13.7307 L 32.6405,13.7307 L 32.6405,13.7307 L 32.6405,13.7307 L 32.6405,13.7307 L 32.6405,13.6103 L 32.6405,13.6103 L 32.7610,13.6103 L 32.7610,13.6103 L 32.7610,13.4898 L 32.7610,13.4898 L 32.7610,13.4898 L 32.7610,13.4898 L 32.7610,13.3694 L 32.7610,13.3694 L 32.7610,13.3694 L 32.7610,13.3694 L 32.7610,13.2489 L 32.8814,13.2489 L 32.8814,13.2489 L 32.8814,13.1285 L 32.8814,13.1285 L 32.8814,13.0080 L 32.8814,12.8876 L 32.8814,12.7671 L 32.8814,12.5262 L 32.8814,12.2854 L 32.8814,11.9240 L 32.8814,11.5627 L 32.8814,11.2014 L 32.8814,10.8400 L 32.8814,10.3582 L 32.8814,9.9969 L 32.8814,9.5151 L 32.8814,9.0334 L 32.8814,8.5516 L 32.8814,8.0698 L 32.8814,7.5880 L 32.8814,7.1062 L 32.8814,6.6245 L 32.8814,6.1427 L 32.8814,5.7813 L 32.8814,5.2996 L 32.8814,4.9382 L 32.8814,4.5769 L 32.8814,4.2156 L 32.8814,3.8542 L 32.8814,3.6133 L 32.8814,3.3725 L 32.8814,3.2520 L 32.8814,3.0111 L 32.8814,3.0111 L 32.8814,2.8907 L 32.8814,2.8907 L 32.8814,2.8907 L 32.7610,2.7702 L 32.7610,2.7702 L 32.7610,2.7702 L 32.7610,2.6498 L 32.7610,2.6498 L 32.7610,2.6498 L 32.7610,2.6498 L 32.7610,2.5293 L 32.7610,2.5293 L 32.7610,2.5293 L 32.7610,2.5293 L 32.6405,2.4089 L 32.6405,2.4089 L 32.6405,2.4089 L 32.6405,2.4089 L 32.6405,2.4089 L 32.6405,2.2884 L 32.5201,2.2884 L 32.5201,2.2884 L 32.5201,2.2884 L 32.5201,2.2884 L 32.5201,2.2884 L 32.3996,2.2884 L 32.3996,2.2884 L 32.3996,2.2884 L 32.3996,2.2884 L 32.2792,2.1680 L 32.2792,2.1680 L 32.2792,2.1680 L 32.2792,2.1680 L 32.1587,2.1680 L 31.9178,2.1680 L 31.5565,2.1680 L 30.9543,2.1680 L 30.3521,2.1680 L 29.6294,2.1680 L 28.6658,2.1680 L 27.7023,2.1680 L 26.7387,2.1680 L 25.6547,2.1680 L 24.4503,2.1680 L 23.2458,2.1680 L 21.9209,2.1680 L 20.5960,2.1680 L 19.2712,2.1680 L 17.9463,2.1680 L 16.6214,2.1680 L 15.2965,2.1680 L 13.9716,2.1680 L 12.6467,2.1680 L 11.4422,2.1680 L 10.2378,2.1680 L 9.1538,2.1680 L 8.1902,2.1680 L 7.2267,2.1680 L 6.2631,2.1680 L 5.5405,2.1680 L 4.9382,2.1680 L 4.3360,2.1680 L 3.9747,2.1680 L 3.7338,2.1680 L 3.6133,2.1680 Z" stroke="#808080" stroke-width="0.1204" stroke-linecap="round" stroke-linejoin="round" fill="#000000"/>
          <path d="M 9.9969,8.1902 L 7.3471,8.1902 L 7.3471,7.7085 L 9.9969,7.7085 L 9.9969,8.1902 Z" stroke="#000000" stroke-width="0.1204" stroke-linecap="round" stroke-linejoin="round" fill="#C0C0C0"/>
          <path d="M 16.1396,8.1902 L 13.4898,8.1902 L 13.4898,7.7085 L 16.1396,7.7085 L 16.1396,8.1902 Z" stroke="#000000" stroke-width="0.1204" stroke-linecap="round" stroke-linejoin="round" fill="#C0C0C0"/>
          <path d="M 22.0414,8.1902 L 19.3916,8.1902 L 19.3916,7.7085 L 22.0414,7.7085 L 22.0414,8.1902 Z" stroke="#000000" stroke-width="0.1204" stroke-linecap="round" stroke-linejoin="round" fill="#C0C0C0"/>
          <path d="M 28.0636,8.1902 L 25.4138,8.1902 L 25.4138,7.7085 L 28.0636,7.7085 L 28.0636,8.1902 Z" stroke="#000000" stroke-width="0.1204" stroke-linecap="round" stroke-linejoin="round" fill="#C0C0C0"/>
          <path d="M 30.9543,4.4565 L 30.9543,4.2156 L 30.8338,3.9747 L 30.5930,3.8542 L 30.3521,3.8542 L 5.2996,3.8542 L 5.1791,3.8542 L 4.9382,3.9747 L 4.8178,4.2156 L 4.8178,4.4565 L 4.8178,6.9858 L 4.8178,7.2267 L 4.9382,7.4676 L 5.1791,7.5880 L 5.2996,7.5880 L 30.3521,7.5880 L 30.5930,7.5880 L 30.8338,7.4676 L 30.9543,7.2267 L 30.9543,6.9858 L 30.9543,4.4565 Z" stroke="#000000" stroke-width="0.1204" stroke-linecap="round" stroke-linejoin="round" fill="#0000FF"/>
          <path d="M 29.9907,5.6609 L 29.9907,5.2996 L 29.7498,4.9382 L 29.3885,4.6973 L 29.0272,4.5769 L 6.7449,4.5769 L 6.3836,4.6973 L 6.0222,4.9382 L 5.7813,5.2996 L 5.7813,5.6609 L 5.7813,5.7813 L 5.7813,6.1427 L 6.0222,6.5040 L 6.3836,6.7449 L 6.7449,6.8653 L 29.0272,6.8653 L 29.3885,6.7449 L 29.7498,6.5040 L 29.9907,6.1427 L 29.9907,5.7813 L 29.9907,5.6609 Z" stroke="#3333FF" stroke-width="0.1204" stroke-linecap="round" stroke-linejoin="round" fill="#3333FF"/>
        </g>
        <g transform="matrix(1.0000 0.0000 0.0000 1.0000 0.0000 0.0000)">
</g>
        <g transform="matrix(1.0000 0.0000 0.0000 1.0000 0.0000 0.0000)">
</g>
        <g transform="matrix(1.0000 0.0000 0.0000 1.0000 0.0000 0.0000)">
</g>
        <g transform="matrix(1.0000 0.0000 0.0000 1.0000 0.0000 0.0000)">
</g>
        <g transform="matrix(0.1998 0.0000 0.0000 0.2064 4.5653 2.9398)">
</g>
        <g transform="matrix(0.1998 0.0000 0.0000 0.2064 4.5653 2.9398)">
</g>
        <g transform="matrix(0.1998 0.0000 0.0000 0.2064 4.5653 2.9398)">
</g>
        <g transform="matrix(0.1998 0.0000 0.0000 0.2064 4.5653 2.9398)">
</g>
        <g transform="matrix(0.1998 0.0000 0.0000 0.2064 4.5653 2.9398)">
</g>
        <g transform="matrix(0.1998 0.0000 0.0000 0.2064 4.5653 2.9398)">
</g>
        <g transform="matrix(12.9870 0.0000 0.0000 32.8137 4.5653 2.9398)">
</g>
        <g transform="matrix(12.9870 0.0000 0.0000 32.8137 4.5653 2.9398)">
</g>
        <g transform="matrix(0.0928 0.0000 0.0000 0.0965 4.5653 2.9398)">
</g>
        <g transform="matrix(0.0928 0.0000 0.0000 0.0965 4.5653 2.9398)">
</g>
        <g transform="matrix(0.0928 0.0000 0.0000 0.0965 4.3642 2.7306)">
</g>
        <g transform="matrix(0.0928 0.0000 0.0000 0.0965 4.3642 2.7306)">
          <path d="M 18.9098,2.1680 L 18.9098,43.1192 L 2.1680,43.1192 L 2.1680,2.1680 L 5.4200,2.1680 L 5.4200,5.4200 L 15.6578,5.4200 L 15.6578,2.1680 L 18.9098,2.1680 Z" stroke="#000000" stroke-width="0.1204" stroke-linecap="round" stroke-linejoin="round" fill="#000000"/>
          <path d="M 18.4280,6.6245 L 2.6498,6.6245 L 2.6498,42.5170 L 18.4280,42.5170 L 18.4280,6.6245 Z" stroke="#000000" stroke-width="0.1204" stroke-linecap="round" stroke-linejoin="round" fill="#666666"/>
          <path d="M 4.3360,26.0161 L 16.8623,26.0161 L 16.8623,38.5423 L 4.3360,38.5423 L 4.3360,26.0161 Z" stroke="#000000" stroke-width="0.1204" stroke-linecap="round" stroke-linejoin="round" fill="#000000"/>
          <ellipse cx="10.4787" cy="32.0985" rx="1.4453" ry="1.5056" fill="#BFBFBF" stroke="#000000" stroke-width="0.1204" stroke-linecap="round" stroke-linejoin="round"/>
          <path d="M 16.8623,10.7196 L 4.2156,10.7196 L 4.2156,20.2347 L 7.3471,23.3663 L 13.8511,23.3663 L 16.8623,20.3552 L 16.8623,10.7196 Z" stroke="#000000" stroke-width="0.1204" stroke-linecap="round" stroke-linejoin="round" fill="#000000"/>
          <ellipse cx="10.4787" cy="16.9225" rx="1.4453" ry="1.5056" fill="#BFBFBF" stroke="#000000" stroke-width="0.1204" stroke-linecap="round" stroke-linejoin="round"/>
        </g>
        <g transform="matrix(1.0000 0.0000 0.0000 1.0000 0.0000 0.0000)">
</g>
        <g transform="matrix(1.0000 0.0000 0.0000 1.0000 0.0000 0.0000)">
</g>
      </g>
      <!--emf-blob end-->
    </g>
  </g>
</svg>
