<svg xmlns="http://www.w3.org/2000/svg" xmlns:xlink="http://www.w3.org/1999/xlink" version="1.1" width="3.4032000000" height="0.6852000000" viewBox="0 0 61.2567 12.3307">
  <title><![CDATA[FG/FWF-60E-DSL]]></title>
  <g transform=" scale(4.000000) ">
    <!--converted by libvisio2svg-->
    <g transform=" translate(0.000000,0.000000) ">
      <!--emf-blob start-->
      <g transform="translate(-0.0000, -0.0000)">
        <path d="M 0.0280,11.2072 L 0.0280,11.2634 L 0.0420,11.2774 L 0.0420,11.3195 L 0.0560,11.3336 L 0.0560,11.3476 L 0.0700,11.3617 L 0.0700,11.3757 L 0.0981,11.4038 L 0.0981,11.4178 L 0.1821,11.5021 L 0.1961,11.5021 L 0.2242,11.5302 L 0.2382,11.5302 L 0.2522,11.5442 L 0.2662,11.5442 L 0.2802,11.5583 L 0.3222,11.5583 L 0.3362,11.5723 L 60.6907,11.5723 L 60.7047,11.5583 L 60.7467,11.5583 L 60.7607,11.5442 L 60.7747,11.5442 L 60.7887,11.5302 L 60.8027,11.5302 L 60.8308,11.5021 L 60.8448,11.5021 L 60.9288,11.4178 L 60.9288,11.4038 L 60.9569,11.3757 L 60.9569,11.3617 L 60.9709,11.3476 L 60.9709,11.3336 L 60.9849,11.3195 L 60.9849,11.2774 L 60.9989,11.2634 L 60.9989,0.3371 L 60.9849,0.3230 L 60.9849,0.2809 L 60.9709,0.2668 L 60.9709,0.2528 L 60.9569,0.2387 L 60.9569,0.2247 L 60.9288,0.1966 L 60.9288,0.1826 L 60.8448,0.0983 L 60.8308,0.0983 L 60.8027,0.0702 L 60.7887,0.0702 L 60.7747,0.0562 L 60.7607,0.0562 L 60.7467,0.0421 L 60.7047,0.0421 L 60.6907,0.0281 L 0.3362,0.0281 L 0.3222,0.0421 L 0.2802,0.0421 L 0.2662,0.0562 L 0.2522,0.0562 L 0.2382,0.0702 L 0.2242,0.0702 L 0.1961,0.0983 L 0.1821,0.0983 L 0.0981,0.1826 L 0.0981,0.1966 L 0.0700,0.2247 L 0.0700,0.2387 L 0.0560,0.2528 L 0.0560,0.2668 L 0.0420,0.2809 L 0.0420,0.3230 L 0.0280,0.3371 L 0.0280,11.1791 L 0.0280,11.2072 Z" stroke="#000000" stroke-width="0.1197" stroke-linecap="round" stroke-linejoin="round" fill="#EAEAEA"/>
        <path d="M 3.3484,11.5723 L 4.0488,12.2745 L 56.9781,12.2745 L 57.6785,11.5723 L 3.3484,11.5723 Z" stroke="#000000" stroke-width="0.1197" stroke-linecap="round" stroke-linejoin="round" fill="#333333"/>
        <path d="M 59.7380,5.4351 L 55.4370,5.4351 L 55.4370,9.1146 L 59.7380,9.1146 L 59.7380,5.4351 Z" stroke="#000000" stroke-width="0.1197" stroke-linecap="round" stroke-linejoin="round" fill="#000000"/>
        <path d="M 59.6539,5.5193 L 55.5210,5.5193 L 55.5210,9.0444 L 59.6539,9.0444 L 59.6539,5.5193 Z" stroke="#000000" stroke-width="0.1197" stroke-linecap="round" stroke-linejoin="round" fill="#FFFFFF"/>
        <path d="M 13.5896,5.5474 L 9.1204,5.5474 L 9.1204,9.2270 L 13.5896,9.2270 L 13.5896,5.5474 Z" stroke="#000000" stroke-width="0.1197" stroke-linecap="round" stroke-linejoin="round" fill="#000000"/>
        <path d="M 13.5055,5.6457 L 9.2045,5.6457 L 9.2045,9.1708 L 13.5055,9.1708 L 13.5055,5.6457 Z" stroke="#000000" stroke-width="0.1197" stroke-linecap="round" stroke-linejoin="round" fill="#FFFFFF"/>
        <path d="M 55.0447,5.0840 L 37.4763,5.0840 L 37.4763,9.1989 L 55.0447,9.1989 L 55.0447,5.0840 Z" stroke="#000000" stroke-width="0.1197" stroke-linecap="round" stroke-linejoin="round" fill="#000000"/>
        <path d="M 54.9326,5.1682 L 37.5884,5.1682 L 37.5884,9.1146 L 54.9326,9.1146 L 54.9326,5.1682 Z" stroke="#000000" stroke-width="0.1197" stroke-linecap="round" stroke-linejoin="round" fill="#7F7F7F"/>
        <path d="M 42.0716,5.5193 L 37.9387,5.5193 L 37.9387,9.0444 L 42.0716,9.0444 L 42.0716,5.5193 Z" stroke="#000000" stroke-width="0.1197" stroke-linecap="round" stroke-linejoin="round" fill="#FFFFFF"/>
        <path d="M 46.2465,5.5193 L 42.1136,5.5193 L 42.1136,9.0444 L 46.2465,9.0444 L 46.2465,5.5193 Z" stroke="#000000" stroke-width="0.1197" stroke-linecap="round" stroke-linejoin="round" fill="#FFFFFF"/>
        <path d="M 50.4214,5.5193 L 46.2885,5.5193 L 46.2885,9.0444 L 50.4214,9.0444 L 50.4214,5.5193 Z" stroke="#000000" stroke-width="0.1197" stroke-linecap="round" stroke-linejoin="round" fill="#FFFFFF"/>
        <path d="M 54.5964,5.5193 L 50.4635,5.5193 L 50.4635,9.0444 L 54.5964,9.0444 L 54.5964,5.5193 Z" stroke="#000000" stroke-width="0.1197" stroke-linecap="round" stroke-linejoin="round" fill="#FFFFFF"/>
        <path d="M 14.9905,5.0980 L 36.8039,5.0980 L 36.8039,9.2129 L 14.9905,9.2129 L 14.9905,5.0980 Z" stroke="#000000" stroke-width="0.1197" stroke-linecap="round" stroke-linejoin="round" fill="#000000"/>
        <path d="M 36.6918,5.1823 L 15.0886,5.1823 L 15.0886,9.1287 L 36.6918,9.1287 L 36.6918,5.1823 Z" stroke="#000000" stroke-width="0.1197" stroke-linecap="round" stroke-linejoin="round" fill="#7F7F7F"/>
        <ellipse cx="5.8281" cy="10.1047" rx="0.2242" ry="0.2177" fill="#000000" stroke="#000000" stroke-width="0.1197" stroke-linecap="round" stroke-linejoin="round"/>
        <ellipse cx="5.8281" cy="10.1047" rx="0.2242" ry="0.2177" fill="none" stroke="#000000" stroke-width="0.1197" stroke-linecap="round" stroke-linejoin="round"/>
        <ellipse cx="5.8211" cy="10.1047" rx="0.1611" ry="0.1615" fill="#494949" stroke="#000000" stroke-width="0.1197" stroke-linecap="round" stroke-linejoin="round"/>
        <ellipse cx="5.8211" cy="10.1047" rx="0.1611" ry="0.1615" fill="none" stroke="#666666" stroke-width="0.1197" stroke-linecap="round" stroke-linejoin="round"/>
        <path d="M 8.2658,1.7836 L 8.2658,1.7134 L 8.2098,1.6010 L 8.1677,1.5448 L 8.1117,1.5027 L 7.9996,1.4465 L 6.9069,1.4465 L 6.7948,1.5027 L 6.7387,1.5448 L 6.6967,1.6010 L 6.6407,1.7134 L 6.6407,1.8679 L 6.6967,1.9802 L 6.7387,2.0364 L 6.7948,2.0785 L 6.9069,2.1347 L 7.9996,2.1347 L 8.1117,2.0785 L 8.1677,2.0364 L 8.2098,1.9802 L 8.2658,1.8679 L 8.2658,1.7976 L 8.2658,1.7836 Z" stroke="#000000" stroke-width="0.1197" stroke-linecap="round" stroke-linejoin="round" fill="#000000"/>
        <path d="M 10.5774,1.7836 L 10.5774,1.7134 L 10.5214,1.6010 L 10.4794,1.5448 L 10.4233,1.5027 L 10.3112,1.4465 L 9.2185,1.4465 L 9.1064,1.5027 L 9.0504,1.5448 L 9.0083,1.6010 L 8.9523,1.7134 L 8.9523,1.8679 L 9.0083,1.9802 L 9.0504,2.0364 L 9.1064,2.0785 L 9.2185,2.1347 L 10.3112,2.1347 L 10.4233,2.0785 L 10.4794,2.0364 L 10.5214,1.9802 L 10.5774,1.8679 L 10.5774,1.7976 L 10.5774,1.7836 Z" stroke="#000000" stroke-width="0.1197" stroke-linecap="round" stroke-linejoin="round" fill="#000000"/>
        <path d="M 12.8891,1.7836 L 12.8891,1.7134 L 12.8330,1.6010 L 12.7910,1.5448 L 12.7350,1.5027 L 12.6229,1.4465 L 11.5301,1.4465 L 11.4180,1.5027 L 11.3620,1.5448 L 11.3200,1.6010 L 11.2639,1.7134 L 11.2639,1.8679 L 11.3200,1.9802 L 11.3620,2.0364 L 11.4180,2.0785 L 11.5301,2.1347 L 12.6229,2.1347 L 12.7350,2.0785 L 12.7910,2.0364 L 12.8330,1.9802 L 12.8891,1.8679 L 12.8891,1.7976 L 12.8891,1.7836 Z" stroke="#000000" stroke-width="0.1197" stroke-linecap="round" stroke-linejoin="round" fill="#000000"/>
        <path d="M 15.2007,1.7836 L 15.2007,1.7134 L 15.1446,1.6010 L 15.1026,1.5448 L 15.0466,1.5027 L 14.9345,1.4465 L 13.8417,1.4465 L 13.7297,1.5027 L 13.6736,1.5448 L 13.6316,1.6010 L 13.5755,1.7134 L 13.5755,1.8679 L 13.6316,1.9802 L 13.6736,2.0364 L 13.7297,2.0785 L 13.8417,2.1347 L 14.9345,2.1347 L 15.0466,2.0785 L 15.1026,2.0364 L 15.1446,1.9802 L 15.2007,1.8679 L 15.2007,1.7976 L 15.2007,1.7836 Z" stroke="#000000" stroke-width="0.1197" stroke-linecap="round" stroke-linejoin="round" fill="#000000"/>
        <path d="M 17.5123,1.7836 L 17.5123,1.7134 L 17.4563,1.6010 L 17.4142,1.5448 L 17.3582,1.5027 L 17.2461,1.4465 L 16.1534,1.4465 L 16.0413,1.5027 L 15.9852,1.5448 L 15.9432,1.6010 L 15.8872,1.7134 L 15.8872,1.8679 L 15.9432,1.9802 L 15.9852,2.0364 L 16.0413,2.0785 L 16.1534,2.1347 L 17.2461,2.1347 L 17.3582,2.0785 L 17.4142,2.0364 L 17.4563,1.9802 L 17.5123,1.8679 L 17.5123,1.7976 L 17.5123,1.7836 Z" stroke="#000000" stroke-width="0.1197" stroke-linecap="round" stroke-linejoin="round" fill="#000000"/>
        <path d="M 19.8239,1.7836 L 19.8239,1.7134 L 19.7679,1.6010 L 19.7259,1.5448 L 19.6698,1.5027 L 19.5577,1.4465 L 18.4650,1.4465 L 18.3529,1.5027 L 18.2969,1.5448 L 18.2548,1.6010 L 18.1988,1.7134 L 18.1988,1.8679 L 18.2548,1.9802 L 18.2969,2.0364 L 18.3529,2.0785 L 18.4650,2.1347 L 19.5577,2.1347 L 19.6698,2.0785 L 19.7259,2.0364 L 19.7679,1.9802 L 19.8239,1.8679 L 19.8239,1.7976 L 19.8239,1.7836 Z" stroke="#000000" stroke-width="0.1197" stroke-linecap="round" stroke-linejoin="round" fill="#000000"/>
        <path d="M 22.1356,1.7836 L 22.1356,1.7134 L 22.0795,1.6010 L 22.0375,1.5448 L 21.9815,1.5027 L 21.8694,1.4465 L 20.7766,1.4465 L 20.6645,1.5027 L 20.6085,1.5448 L 20.5665,1.6010 L 20.5104,1.7134 L 20.5104,1.8679 L 20.5665,1.9802 L 20.6085,2.0364 L 20.6645,2.0785 L 20.7766,2.1347 L 21.8694,2.1347 L 21.9815,2.0785 L 22.0375,2.0364 L 22.0795,1.9802 L 22.1356,1.8679 L 22.1356,1.7976 L 22.1356,1.7836 Z" stroke="#000000" stroke-width="0.1197" stroke-linecap="round" stroke-linejoin="round" fill="#000000"/>
        <path d="M 24.4472,1.7836 L 24.4472,1.7134 L 24.3911,1.6010 L 24.3491,1.5448 L 24.2931,1.5027 L 24.1810,1.4465 L 23.0882,1.4465 L 22.9762,1.5027 L 22.9201,1.5448 L 22.8781,1.6010 L 22.8220,1.7134 L 22.8220,1.8679 L 22.8781,1.9802 L 22.9201,2.0364 L 22.9762,2.0785 L 23.0882,2.1347 L 24.1810,2.1347 L 24.2931,2.0785 L 24.3491,2.0364 L 24.3911,1.9802 L 24.4472,1.8679 L 24.4472,1.7976 L 24.4472,1.7836 Z" stroke="#000000" stroke-width="0.1197" stroke-linecap="round" stroke-linejoin="round" fill="#000000"/>
        <path d="M 26.7588,1.7836 L 26.7588,1.7134 L 26.7028,1.6010 L 26.6607,1.5448 L 26.6047,1.5027 L 26.4926,1.4465 L 25.3999,1.4465 L 25.2878,1.5027 L 25.2317,1.5448 L 25.1897,1.6010 L 25.1337,1.7134 L 25.1337,1.8679 L 25.1897,1.9802 L 25.2317,2.0364 L 25.2878,2.0785 L 25.3999,2.1347 L 26.4926,2.1347 L 26.6047,2.0785 L 26.6607,2.0364 L 26.7028,1.9802 L 26.7588,1.8679 L 26.7588,1.7976 L 26.7588,1.7836 Z" stroke="#000000" stroke-width="0.1197" stroke-linecap="round" stroke-linejoin="round" fill="#000000"/>
        <path d="M 29.0704,1.7836 L 29.0704,1.7134 L 29.0144,1.6010 L 28.9724,1.5448 L 28.9163,1.5027 L 28.8042,1.4465 L 27.7115,1.4465 L 27.5994,1.5027 L 27.5434,1.5448 L 27.5013,1.6010 L 27.4453,1.7134 L 27.4453,1.8679 L 27.5013,1.9802 L 27.5434,2.0364 L 27.5994,2.0785 L 27.7115,2.1347 L 28.8042,2.1347 L 28.9163,2.0785 L 28.9724,2.0364 L 29.0144,1.9802 L 29.0704,1.8679 L 29.0704,1.7976 L 29.0704,1.7836 Z" stroke="#000000" stroke-width="0.1197" stroke-linecap="round" stroke-linejoin="round" fill="#000000"/>
        <path d="M 31.3821,1.7836 L 31.3821,1.7134 L 31.3260,1.6010 L 31.2840,1.5448 L 31.2280,1.5027 L 31.1159,1.4465 L 30.0231,1.4465 L 29.9110,1.5027 L 29.8550,1.5448 L 29.8130,1.6010 L 29.7569,1.7134 L 29.7569,1.8679 L 29.8130,1.9802 L 29.8550,2.0364 L 29.9110,2.0785 L 30.0231,2.1347 L 31.1159,2.1347 L 31.2280,2.0785 L 31.2840,2.0364 L 31.3260,1.9802 L 31.3821,1.8679 L 31.3821,1.7976 L 31.3821,1.7836 Z" stroke="#000000" stroke-width="0.1197" stroke-linecap="round" stroke-linejoin="round" fill="#000000"/>
        <path d="M 33.6937,1.7836 L 33.6937,1.7134 L 33.6376,1.6010 L 33.5956,1.5448 L 33.5396,1.5027 L 33.4275,1.4465 L 32.3347,1.4465 L 32.2227,1.5027 L 32.1666,1.5448 L 32.1246,1.6010 L 32.0685,1.7134 L 32.0685,1.8679 L 32.1246,1.9802 L 32.1666,2.0364 L 32.2227,2.0785 L 32.3347,2.1347 L 33.4275,2.1347 L 33.5396,2.0785 L 33.5956,2.0364 L 33.6376,1.9802 L 33.6937,1.8679 L 33.6937,1.7976 L 33.6937,1.7836 Z" stroke="#000000" stroke-width="0.1197" stroke-linecap="round" stroke-linejoin="round" fill="#000000"/>
        <path d="M 36.0053,1.7836 L 36.0053,1.7134 L 35.9493,1.6010 L 35.9072,1.5448 L 35.8512,1.5027 L 35.7391,1.4465 L 34.6464,1.4465 L 34.5343,1.5027 L 34.4782,1.5448 L 34.4362,1.6010 L 34.3802,1.7134 L 34.3802,1.8679 L 34.4362,1.9802 L 34.4782,2.0364 L 34.5343,2.0785 L 34.6464,2.1347 L 35.7391,2.1347 L 35.8512,2.0785 L 35.9072,2.0364 L 35.9493,1.9802 L 36.0053,1.8679 L 36.0053,1.7976 L 36.0053,1.7836 Z" stroke="#000000" stroke-width="0.1197" stroke-linecap="round" stroke-linejoin="round" fill="#000000"/>
        <path d="M 38.3169,1.7836 L 38.3169,1.7134 L 38.2609,1.6010 L 38.2189,1.5448 L 38.1628,1.5027 L 38.0508,1.4465 L 36.9580,1.4465 L 36.8459,1.5027 L 36.7899,1.5448 L 36.7478,1.6010 L 36.6918,1.7134 L 36.6918,1.8679 L 36.7478,1.9802 L 36.7899,2.0364 L 36.8459,2.0785 L 36.9580,2.1347 L 38.0508,2.1347 L 38.1628,2.0785 L 38.2189,2.0364 L 38.2609,1.9802 L 38.3169,1.8679 L 38.3169,1.7976 L 38.3169,1.7836 Z" stroke="#000000" stroke-width="0.1197" stroke-linecap="round" stroke-linejoin="round" fill="#000000"/>
        <path d="M 40.6286,1.7836 L 40.6286,1.7134 L 40.5725,1.6010 L 40.5305,1.5448 L 40.4745,1.5027 L 40.3624,1.4465 L 39.2696,1.4465 L 39.1575,1.5027 L 39.1015,1.5448 L 39.0595,1.6010 L 39.0034,1.7134 L 39.0034,1.8679 L 39.0595,1.9802 L 39.1015,2.0364 L 39.1575,2.0785 L 39.2696,2.1347 L 40.3624,2.1347 L 40.4745,2.0785 L 40.5305,2.0364 L 40.5725,1.9802 L 40.6286,1.8679 L 40.6286,1.7976 L 40.6286,1.7836 Z" stroke="#000000" stroke-width="0.1197" stroke-linecap="round" stroke-linejoin="round" fill="#000000"/>
        <path d="M 42.9402,1.7836 L 42.9402,1.7134 L 42.8841,1.6010 L 42.8421,1.5448 L 42.7861,1.5027 L 42.6740,1.4465 L 41.5812,1.4465 L 41.4692,1.5027 L 41.4131,1.5448 L 41.3711,1.6010 L 41.3150,1.7134 L 41.3150,1.8679 L 41.3711,1.9802 L 41.4131,2.0364 L 41.4692,2.0785 L 41.5812,2.1347 L 42.6740,2.1347 L 42.7861,2.0785 L 42.8421,2.0364 L 42.8841,1.9802 L 42.9402,1.8679 L 42.9402,1.7976 L 42.9402,1.7836 Z" stroke="#000000" stroke-width="0.1197" stroke-linecap="round" stroke-linejoin="round" fill="#000000"/>
        <path d="M 45.2518,1.7836 L 45.2518,1.7134 L 45.1958,1.6010 L 45.1537,1.5448 L 45.0977,1.5027 L 44.9856,1.4465 L 43.8929,1.4465 L 43.7808,1.5027 L 43.7247,1.5448 L 43.6827,1.6010 L 43.6267,1.7134 L 43.6267,1.8679 L 43.6827,1.9802 L 43.7247,2.0364 L 43.7808,2.0785 L 43.8929,2.1347 L 44.9856,2.1347 L 45.0977,2.0785 L 45.1537,2.0364 L 45.1958,1.9802 L 45.2518,1.8679 L 45.2518,1.7976 L 45.2518,1.7836 Z" stroke="#000000" stroke-width="0.1197" stroke-linecap="round" stroke-linejoin="round" fill="#000000"/>
        <path d="M 47.5634,1.7836 L 47.5634,1.7134 L 47.5074,1.6010 L 47.4654,1.5448 L 47.4093,1.5027 L 47.2973,1.4465 L 46.2045,1.4465 L 46.0924,1.5027 L 46.0364,1.5448 L 45.9943,1.6010 L 45.9383,1.7134 L 45.9383,1.8679 L 45.9943,1.9802 L 46.0364,2.0364 L 46.0924,2.0785 L 46.2045,2.1347 L 47.2973,2.1347 L 47.4093,2.0785 L 47.4654,2.0364 L 47.5074,1.9802 L 47.5634,1.8679 L 47.5634,1.7976 L 47.5634,1.7836 Z" stroke="#000000" stroke-width="0.1197" stroke-linecap="round" stroke-linejoin="round" fill="#000000"/>
        <path d="M 49.8751,1.7836 L 49.8751,1.7134 L 49.8190,1.6010 L 49.7770,1.5448 L 49.7210,1.5027 L 49.6089,1.4465 L 48.5161,1.4465 L 48.4040,1.5027 L 48.3480,1.5448 L 48.3060,1.6010 L 48.2499,1.7134 L 48.2499,1.8679 L 48.3060,1.9802 L 48.3480,2.0364 L 48.4040,2.0785 L 48.5161,2.1347 L 49.6089,2.1347 L 49.7210,2.0785 L 49.7770,2.0364 L 49.8190,1.9802 L 49.8751,1.8679 L 49.8751,1.7976 L 49.8751,1.7836 Z" stroke="#000000" stroke-width="0.1197" stroke-linecap="round" stroke-linejoin="round" fill="#000000"/>
        <path d="M 52.2007,1.7836 L 52.2007,1.7134 L 52.1447,1.6010 L 52.1026,1.5448 L 52.0466,1.5027 L 51.9345,1.4465 L 50.8417,1.4465 L 50.7297,1.5027 L 50.6736,1.5448 L 50.6316,1.6010 L 50.5756,1.7134 L 50.5756,1.8679 L 50.6316,1.9802 L 50.6736,2.0364 L 50.7297,2.0785 L 50.8417,2.1347 L 51.9345,2.1347 L 52.0466,2.0785 L 52.1026,2.0364 L 52.1447,1.9802 L 52.2007,1.8679 L 52.2007,1.7976 L 52.2007,1.7836 Z" stroke="#000000" stroke-width="0.1197" stroke-linecap="round" stroke-linejoin="round" fill="#000000"/>
        <path d="M 8.2658,3.0195 L 8.2658,2.9493 L 8.2098,2.8369 L 8.1677,2.7807 L 8.1117,2.7386 L 7.9996,2.6824 L 6.9069,2.6824 L 6.7948,2.7386 L 6.7387,2.7807 L 6.6967,2.8369 L 6.6407,2.9493 L 6.6407,3.1037 L 6.6967,3.2161 L 6.7387,3.2723 L 6.7948,3.3144 L 6.9069,3.3706 L 7.9996,3.3706 L 8.1117,3.3144 L 8.1677,3.2723 L 8.2098,3.2161 L 8.2658,3.1037 L 8.2658,3.0335 L 8.2658,3.0195 Z" stroke="#000000" stroke-width="0.1197" stroke-linecap="round" stroke-linejoin="round" fill="#000000"/>
        <path d="M 10.5774,3.0195 L 10.5774,2.9493 L 10.5214,2.8369 L 10.4794,2.7807 L 10.4233,2.7386 L 10.3112,2.6824 L 9.2185,2.6824 L 9.1064,2.7386 L 9.0504,2.7807 L 9.0083,2.8369 L 8.9523,2.9493 L 8.9523,3.1037 L 9.0083,3.2161 L 9.0504,3.2723 L 9.1064,3.3144 L 9.2185,3.3706 L 10.3112,3.3706 L 10.4233,3.3144 L 10.4794,3.2723 L 10.5214,3.2161 L 10.5774,3.1037 L 10.5774,3.0335 L 10.5774,3.0195 Z" stroke="#000000" stroke-width="0.1197" stroke-linecap="round" stroke-linejoin="round" fill="#000000"/>
        <path d="M 12.8891,3.0195 L 12.8891,2.9493 L 12.8330,2.8369 L 12.7910,2.7807 L 12.7350,2.7386 L 12.6229,2.6824 L 11.5301,2.6824 L 11.4180,2.7386 L 11.3620,2.7807 L 11.3200,2.8369 L 11.2639,2.9493 L 11.2639,3.1037 L 11.3200,3.2161 L 11.3620,3.2723 L 11.4180,3.3144 L 11.5301,3.3706 L 12.6229,3.3706 L 12.7350,3.3144 L 12.7910,3.2723 L 12.8330,3.2161 L 12.8891,3.1037 L 12.8891,3.0335 L 12.8891,3.0195 Z" stroke="#000000" stroke-width="0.1197" stroke-linecap="round" stroke-linejoin="round" fill="#000000"/>
        <path d="M 15.2007,3.0195 L 15.2007,2.9493 L 15.1446,2.8369 L 15.1026,2.7807 L 15.0466,2.7386 L 14.9345,2.6824 L 13.8417,2.6824 L 13.7297,2.7386 L 13.6736,2.7807 L 13.6316,2.8369 L 13.5755,2.9493 L 13.5755,3.1037 L 13.6316,3.2161 L 13.6736,3.2723 L 13.7297,3.3144 L 13.8417,3.3706 L 14.9345,3.3706 L 15.0466,3.3144 L 15.1026,3.2723 L 15.1446,3.2161 L 15.2007,3.1037 L 15.2007,3.0335 L 15.2007,3.0195 Z" stroke="#000000" stroke-width="0.1197" stroke-linecap="round" stroke-linejoin="round" fill="#000000"/>
        <path d="M 17.5123,3.0195 L 17.5123,2.9493 L 17.4563,2.8369 L 17.4142,2.7807 L 17.3582,2.7386 L 17.2461,2.6824 L 16.1534,2.6824 L 16.0413,2.7386 L 15.9852,2.7807 L 15.9432,2.8369 L 15.8872,2.9493 L 15.8872,3.1037 L 15.9432,3.2161 L 15.9852,3.2723 L 16.0413,3.3144 L 16.1534,3.3706 L 17.2461,3.3706 L 17.3582,3.3144 L 17.4142,3.2723 L 17.4563,3.2161 L 17.5123,3.1037 L 17.5123,3.0335 L 17.5123,3.0195 Z" stroke="#000000" stroke-width="0.1197" stroke-linecap="round" stroke-linejoin="round" fill="#000000"/>
        <path d="M 19.8239,3.0195 L 19.8239,2.9493 L 19.7679,2.8369 L 19.7259,2.7807 L 19.6698,2.7386 L 19.5577,2.6824 L 18.4650,2.6824 L 18.3529,2.7386 L 18.2969,2.7807 L 18.2548,2.8369 L 18.1988,2.9493 L 18.1988,3.1037 L 18.2548,3.2161 L 18.2969,3.2723 L 18.3529,3.3144 L 18.4650,3.3706 L 19.5577,3.3706 L 19.6698,3.3144 L 19.7259,3.2723 L 19.7679,3.2161 L 19.8239,3.1037 L 19.8239,3.0335 L 19.8239,3.0195 Z" stroke="#000000" stroke-width="0.1197" stroke-linecap="round" stroke-linejoin="round" fill="#000000"/>
        <path d="M 22.1356,3.0195 L 22.1356,2.9493 L 22.0795,2.8369 L 22.0375,2.7807 L 21.9815,2.7386 L 21.8694,2.6824 L 20.7766,2.6824 L 20.6645,2.7386 L 20.6085,2.7807 L 20.5665,2.8369 L 20.5104,2.9493 L 20.5104,3.1037 L 20.5665,3.2161 L 20.6085,3.2723 L 20.6645,3.3144 L 20.7766,3.3706 L 21.8694,3.3706 L 21.9815,3.3144 L 22.0375,3.2723 L 22.0795,3.2161 L 22.1356,3.1037 L 22.1356,3.0335 L 22.1356,3.0195 Z" stroke="#000000" stroke-width="0.1197" stroke-linecap="round" stroke-linejoin="round" fill="#000000"/>
        <path d="M 24.4472,3.0195 L 24.4472,2.9493 L 24.3911,2.8369 L 24.3491,2.7807 L 24.2931,2.7386 L 24.1810,2.6824 L 23.0882,2.6824 L 22.9762,2.7386 L 22.9201,2.7807 L 22.8781,2.8369 L 22.8220,2.9493 L 22.8220,3.1037 L 22.8781,3.2161 L 22.9201,3.2723 L 22.9762,3.3144 L 23.0882,3.3706 L 24.1810,3.3706 L 24.2931,3.3144 L 24.3491,3.2723 L 24.3911,3.2161 L 24.4472,3.1037 L 24.4472,3.0335 L 24.4472,3.0195 Z" stroke="#000000" stroke-width="0.1197" stroke-linecap="round" stroke-linejoin="round" fill="#000000"/>
        <path d="M 26.7588,3.0195 L 26.7588,2.9493 L 26.7028,2.8369 L 26.6607,2.7807 L 26.6047,2.7386 L 26.4926,2.6824 L 25.3999,2.6824 L 25.2878,2.7386 L 25.2317,2.7807 L 25.1897,2.8369 L 25.1337,2.9493 L 25.1337,3.1037 L 25.1897,3.2161 L 25.2317,3.2723 L 25.2878,3.3144 L 25.3999,3.3706 L 26.4926,3.3706 L 26.6047,3.3144 L 26.6607,3.2723 L 26.7028,3.2161 L 26.7588,3.1037 L 26.7588,3.0335 L 26.7588,3.0195 Z" stroke="#000000" stroke-width="0.1197" stroke-linecap="round" stroke-linejoin="round" fill="#000000"/>
        <path d="M 29.0704,3.0195 L 29.0704,2.9493 L 29.0144,2.8369 L 28.9724,2.7807 L 28.9163,2.7386 L 28.8042,2.6824 L 27.7115,2.6824 L 27.5994,2.7386 L 27.5434,2.7807 L 27.5013,2.8369 L 27.4453,2.9493 L 27.4453,3.1037 L 27.5013,3.2161 L 27.5434,3.2723 L 27.5994,3.3144 L 27.7115,3.3706 L 28.8042,3.3706 L 28.9163,3.3144 L 28.9724,3.2723 L 29.0144,3.2161 L 29.0704,3.1037 L 29.0704,3.0335 L 29.0704,3.0195 Z" stroke="#000000" stroke-width="0.1197" stroke-linecap="round" stroke-linejoin="round" fill="#000000"/>
        <path d="M 31.3821,3.0195 L 31.3821,2.9493 L 31.3260,2.8369 L 31.2840,2.7807 L 31.2280,2.7386 L 31.1159,2.6824 L 30.0231,2.6824 L 29.9110,2.7386 L 29.8550,2.7807 L 29.8130,2.8369 L 29.7569,2.9493 L 29.7569,3.1037 L 29.8130,3.2161 L 29.8550,3.2723 L 29.9110,3.3144 L 30.0231,3.3706 L 31.1159,3.3706 L 31.2280,3.3144 L 31.2840,3.2723 L 31.3260,3.2161 L 31.3821,3.1037 L 31.3821,3.0335 L 31.3821,3.0195 Z" stroke="#000000" stroke-width="0.1197" stroke-linecap="round" stroke-linejoin="round" fill="#000000"/>
        <path d="M 33.6937,3.0195 L 33.6937,2.9493 L 33.6376,2.8369 L 33.5956,2.7807 L 33.5396,2.7386 L 33.4275,2.6824 L 32.3347,2.6824 L 32.2227,2.7386 L 32.1666,2.7807 L 32.1246,2.8369 L 32.0685,2.9493 L 32.0685,3.1037 L 32.1246,3.2161 L 32.1666,3.2723 L 32.2227,3.3144 L 32.3347,3.3706 L 33.4275,3.3706 L 33.5396,3.3144 L 33.5956,3.2723 L 33.6376,3.2161 L 33.6937,3.1037 L 33.6937,3.0335 L 33.6937,3.0195 Z" stroke="#000000" stroke-width="0.1197" stroke-linecap="round" stroke-linejoin="round" fill="#000000"/>
        <path d="M 36.0053,3.0195 L 36.0053,2.9493 L 35.9493,2.8369 L 35.9072,2.7807 L 35.8512,2.7386 L 35.7391,2.6824 L 34.6464,2.6824 L 34.5343,2.7386 L 34.4782,2.7807 L 34.4362,2.8369 L 34.3802,2.9493 L 34.3802,3.1037 L 34.4362,3.2161 L 34.4782,3.2723 L 34.5343,3.3144 L 34.6464,3.3706 L 35.7391,3.3706 L 35.8512,3.3144 L 35.9072,3.2723 L 35.9493,3.2161 L 36.0053,3.1037 L 36.0053,3.0335 L 36.0053,3.0195 Z" stroke="#000000" stroke-width="0.1197" stroke-linecap="round" stroke-linejoin="round" fill="#000000"/>
        <path d="M 38.3169,3.0195 L 38.3169,2.9493 L 38.2609,2.8369 L 38.2189,2.7807 L 38.1628,2.7386 L 38.0508,2.6824 L 36.9580,2.6824 L 36.8459,2.7386 L 36.7899,2.7807 L 36.7478,2.8369 L 36.6918,2.9493 L 36.6918,3.1037 L 36.7478,3.2161 L 36.7899,3.2723 L 36.8459,3.3144 L 36.9580,3.3706 L 38.0508,3.3706 L 38.1628,3.3144 L 38.2189,3.2723 L 38.2609,3.2161 L 38.3169,3.1037 L 38.3169,3.0335 L 38.3169,3.0195 Z" stroke="#000000" stroke-width="0.1197" stroke-linecap="round" stroke-linejoin="round" fill="#000000"/>
        <path d="M 40.6286,3.0195 L 40.6286,2.9493 L 40.5725,2.8369 L 40.5305,2.7807 L 40.4745,2.7386 L 40.3624,2.6824 L 39.2696,2.6824 L 39.1575,2.7386 L 39.1015,2.7807 L 39.0595,2.8369 L 39.0034,2.9493 L 39.0034,3.1037 L 39.0595,3.2161 L 39.1015,3.2723 L 39.1575,3.3144 L 39.2696,3.3706 L 40.3624,3.3706 L 40.4745,3.3144 L 40.5305,3.2723 L 40.5725,3.2161 L 40.6286,3.1037 L 40.6286,3.0335 L 40.6286,3.0195 Z" stroke="#000000" stroke-width="0.1197" stroke-linecap="round" stroke-linejoin="round" fill="#000000"/>
        <path d="M 42.9402,3.0195 L 42.9402,2.9493 L 42.8841,2.8369 L 42.8421,2.7807 L 42.7861,2.7386 L 42.6740,2.6824 L 41.5812,2.6824 L 41.4692,2.7386 L 41.4131,2.7807 L 41.3711,2.8369 L 41.3150,2.9493 L 41.3150,3.1037 L 41.3711,3.2161 L 41.4131,3.2723 L 41.4692,3.3144 L 41.5812,3.3706 L 42.6740,3.3706 L 42.7861,3.3144 L 42.8421,3.2723 L 42.8841,3.2161 L 42.9402,3.1037 L 42.9402,3.0335 L 42.9402,3.0195 Z" stroke="#000000" stroke-width="0.1197" stroke-linecap="round" stroke-linejoin="round" fill="#000000"/>
        <path d="M 45.2518,3.0195 L 45.2518,2.9493 L 45.1958,2.8369 L 45.1537,2.7807 L 45.0977,2.7386 L 44.9856,2.6824 L 43.8929,2.6824 L 43.7808,2.7386 L 43.7247,2.7807 L 43.6827,2.8369 L 43.6267,2.9493 L 43.6267,3.1037 L 43.6827,3.2161 L 43.7247,3.2723 L 43.7808,3.3144 L 43.8929,3.3706 L 44.9856,3.3706 L 45.0977,3.3144 L 45.1537,3.2723 L 45.1958,3.2161 L 45.2518,3.1037 L 45.2518,3.0335 L 45.2518,3.0195 Z" stroke="#000000" stroke-width="0.1197" stroke-linecap="round" stroke-linejoin="round" fill="#000000"/>
        <path d="M 47.5634,3.0195 L 47.5634,2.9493 L 47.5074,2.8369 L 47.4654,2.7807 L 47.4093,2.7386 L 47.2973,2.6824 L 46.2045,2.6824 L 46.0924,2.7386 L 46.0364,2.7807 L 45.9943,2.8369 L 45.9383,2.9493 L 45.9383,3.1037 L 45.9943,3.2161 L 46.0364,3.2723 L 46.0924,3.3144 L 46.2045,3.3706 L 47.2973,3.3706 L 47.4093,3.3144 L 47.4654,3.2723 L 47.5074,3.2161 L 47.5634,3.1037 L 47.5634,3.0335 L 47.5634,3.0195 Z" stroke="#000000" stroke-width="0.1197" stroke-linecap="round" stroke-linejoin="round" fill="#000000"/>
        <path d="M 49.8751,3.0195 L 49.8751,2.9493 L 49.8190,2.8369 L 49.7770,2.7807 L 49.7210,2.7386 L 49.6089,2.6824 L 48.5161,2.6824 L 48.4040,2.7386 L 48.3480,2.7807 L 48.3060,2.8369 L 48.2499,2.9493 L 48.2499,3.1037 L 48.3060,3.2161 L 48.3480,3.2723 L 48.4040,3.3144 L 48.5161,3.3706 L 49.6089,3.3706 L 49.7210,3.3144 L 49.7770,3.2723 L 49.8190,3.2161 L 49.8751,3.1037 L 49.8751,3.0335 L 49.8751,3.0195 Z" stroke="#000000" stroke-width="0.1197" stroke-linecap="round" stroke-linejoin="round" fill="#000000"/>
        <path d="M 52.2007,3.0195 L 52.2007,2.9493 L 52.1447,2.8369 L 52.1026,2.7807 L 52.0466,2.7386 L 51.9345,2.6824 L 50.8417,2.6824 L 50.7297,2.7386 L 50.6736,2.7807 L 50.6316,2.8369 L 50.5756,2.9493 L 50.5756,3.1037 L 50.6316,3.2161 L 50.6736,3.2723 L 50.7297,3.3144 L 50.8417,3.3706 L 51.9345,3.3706 L 52.0466,3.3144 L 52.1026,3.2723 L 52.1447,3.2161 L 52.2007,3.1037 L 52.2007,3.0335 L 52.2007,3.0195 Z" stroke="#000000" stroke-width="0.1197" stroke-linecap="round" stroke-linejoin="round" fill="#000000"/>
        <path d="M 19.6138,5.5334 L 15.4809,5.5334 L 15.4809,9.0584 L 19.6138,9.0584 L 19.6138,5.5334 Z" stroke="#000000" stroke-width="0.1197" stroke-linecap="round" stroke-linejoin="round" fill="#FFFFFF"/>
        <path d="M 23.7887,5.5334 L 19.6558,5.5334 L 19.6558,9.0584 L 23.7887,9.0584 L 23.7887,5.5334 Z" stroke="#000000" stroke-width="0.1197" stroke-linecap="round" stroke-linejoin="round" fill="#FFFFFF"/>
        <path d="M 27.9637,5.5334 L 23.8308,5.5334 L 23.8308,9.0584 L 27.9637,9.0584 L 27.9637,5.5334 Z" stroke="#000000" stroke-width="0.1197" stroke-linecap="round" stroke-linejoin="round" fill="#FFFFFF"/>
        <path d="M 32.1386,5.5334 L 28.0057,5.5334 L 28.0057,9.0584 L 32.1386,9.0584 L 32.1386,5.5334 Z" stroke="#000000" stroke-width="0.1197" stroke-linecap="round" stroke-linejoin="round" fill="#FFFFFF"/>
        <path d="M 36.3135,5.5334 L 32.1806,5.5334 L 32.1806,9.0584 L 36.3135,9.0584 L 36.3135,5.5334 Z" stroke="#000000" stroke-width="0.1197" stroke-linecap="round" stroke-linejoin="round" fill="#FFFFFF"/>
        <text font-family="Arial" fill="#000000" style="white-space:pre;" font-weight="400" text-anchor="start" x="2.9421" y="2.7228" font-size="0.1541"><![CDATA[CONSOLE]]></text>
        <text font-family="Arial" fill="#000000" style="white-space:pre;" font-weight="400" text-anchor="start" x="2.1155" y="2.7228" font-size="0.1541"><![CDATA[USB]]></text>
        <text font-family="Arial" fill="#000000" style="white-space:pre;" font-weight="400" text-anchor="start" x="1.8633" y="2.9925" font-size="0.1261"><![CDATA[RESET]]></text>
        <text font-family="Arial" fill="#000000" style="white-space:pre;" font-weight="400" text-anchor="start" x="4.6513" y="2.7228" font-size="0.1541"><![CDATA[WAN]]></text>
        <text font-family="Arial" fill="#000000" style="white-space:pre;" font-weight="400" text-anchor="start" x="5.7300" y="2.7228" font-size="0.1541"><![CDATA[DMZ]]></text>
        <text font-family="Arial" fill="#000000" style="white-space:pre;" font-weight="400" text-anchor="start" x="6.8788" y="2.7228" font-size="0.1541"><![CDATA[7]]></text>
        <text font-family="Arial" fill="#000000" style="white-space:pre;" font-weight="400" text-anchor="start" x="7.9296" y="2.7228" font-size="0.1541"><![CDATA[6]]></text>
        <text font-family="Arial" fill="#000000" style="white-space:pre;" font-weight="400" text-anchor="start" x="8.9663" y="2.7228" font-size="0.1541"><![CDATA[5]]></text>
        <text font-family="Arial" fill="#000000" style="white-space:pre;" font-weight="400" text-anchor="start" x="10.3953" y="2.7228" font-size="0.1541"><![CDATA[4]]></text>
        <text font-family="Arial" fill="#000000" style="white-space:pre;" font-weight="400" text-anchor="start" x="11.4460" y="2.7228" font-size="0.1541"><![CDATA[3]]></text>
        <text font-family="Arial" fill="#000000" style="white-space:pre;" font-weight="400" text-anchor="start" x="12.4828" y="2.7228" font-size="0.1541"><![CDATA[2]]></text>
        <text font-family="Arial" fill="#000000" style="white-space:pre;" font-weight="400" text-anchor="start" x="13.5335" y="2.7228" font-size="0.1541"><![CDATA[1]]></text>
        <text font-family="Arial" fill="#000000" style="white-space:pre;" font-weight="400" text-anchor="start" x="14.6823" y="2.7228" font-size="0.1541"><![CDATA[DSL]]></text>
        <text font-family="Arial" fill="#000000" style="white-space:pre;" font-weight="400" text-anchor="start" x="1.0928" y="2.7228" font-size="0.1541"><![CDATA[DC+12V]]></text>
        <path d="M 1.3795,7.4917 L 1.3795,8.3437 " stroke="#000000" stroke-width="0.1197" stroke-linecap="round" stroke-linejoin="round" fill="none"/>
        <path d="M 0.7790,8.5206 L 1.9800,8.5206 " stroke="#000000" stroke-width="0.1197" stroke-linecap="round" stroke-linejoin="round" fill="none"/>
        <path d="M 0.9738,8.7135 L 1.8015,8.7135 " stroke="#000000" stroke-width="0.1197" stroke-linecap="round" stroke-linejoin="round" fill="none"/>
        <path d="M 0.9738,8.7135 L 1.8015,8.7135 " stroke="#000000" stroke-width="0.1197" stroke-linecap="round" stroke-linejoin="round" fill="none"/>
        <path d="M 1.1847,8.9225 L 1.5742,8.9225 " stroke="#000000" stroke-width="0.1197" stroke-linecap="round" stroke-linejoin="round" fill="none"/>
        <path d="M 55.7283,5.8043 L 55.7283,7.9289 L 56.6184,7.9289 L 56.6184,8.4288 L 56.9800,8.4288 L 56.9800,8.9286 L 58.0369,8.9286 L 58.0369,8.4288 L 58.3985,8.4288 L 58.3985,7.9289 L 59.2886,7.9289 L 59.2886,5.8043 L 55.7283,5.8043 Z" stroke="#161616" stroke-width="0.1197" stroke-linecap="round" stroke-linejoin="round" fill="#000000"/>
        <path d="M 50.7354,5.8043 L 50.7354,7.9289 L 51.6255,7.9289 L 51.6255,8.4288 L 51.9871,8.4288 L 51.9871,8.9286 L 53.0441,8.9286 L 53.0441,8.4288 L 53.4057,8.4288 L 53.4057,7.9289 L 54.2958,7.9289 L 54.2958,5.8043 L 50.7354,5.8043 Z" stroke="#161616" stroke-width="0.1197" stroke-linecap="round" stroke-linejoin="round" fill="#000000"/>
        <path d="M 46.5353,5.8043 L 46.5353,7.9289 L 47.4253,7.9289 L 47.4253,8.4288 L 47.7870,8.4288 L 47.7870,8.9286 L 48.8439,8.9286 L 48.8439,8.4288 L 49.2055,8.4288 L 49.2055,7.9289 L 50.0956,7.9289 L 50.0956,5.8043 L 46.5353,5.8043 Z" stroke="#161616" stroke-width="0.1197" stroke-linecap="round" stroke-linejoin="round" fill="#000000"/>
        <path d="M 42.3908,5.8043 L 42.3908,7.9289 L 43.2808,7.9289 L 43.2808,8.4288 L 43.6424,8.4288 L 43.6424,8.9286 L 44.6994,8.9286 L 44.6994,8.4288 L 45.0610,8.4288 L 45.0610,7.9289 L 45.9511,7.9289 L 45.9511,5.8043 L 42.3908,5.8043 Z" stroke="#161616" stroke-width="0.1197" stroke-linecap="round" stroke-linejoin="round" fill="#000000"/>
        <path d="M 38.1767,5.8043 L 38.1767,7.9289 L 39.0668,7.9289 L 39.0668,8.4288 L 39.4284,8.4288 L 39.4284,8.9286 L 40.4854,8.9286 L 40.4854,8.4288 L 40.8470,8.4288 L 40.8470,7.9289 L 41.7371,7.9289 L 41.7371,5.8043 L 38.1767,5.8043 Z" stroke="#161616" stroke-width="0.1197" stroke-linecap="round" stroke-linejoin="round" fill="#000000"/>
        <path d="M 32.4606,5.8043 L 32.4606,7.9289 L 33.3507,7.9289 L 33.3507,8.4288 L 33.7123,8.4288 L 33.7123,8.9286 L 34.7693,8.9286 L 34.7693,8.4288 L 35.1309,8.4288 L 35.1309,7.9289 L 36.0210,7.9289 L 36.0210,5.8043 L 32.4606,5.8043 Z" stroke="#161616" stroke-width="0.1197" stroke-linecap="round" stroke-linejoin="round" fill="#000000"/>
        <path d="M 28.3161,5.8043 L 28.3161,7.9289 L 29.2062,7.9289 L 29.2062,8.4288 L 29.5678,8.4288 L 29.5678,8.9286 L 30.6248,8.9286 L 30.6248,8.4288 L 30.9864,8.4288 L 30.9864,7.9289 L 31.8765,7.9289 L 31.8765,5.8043 L 28.3161,5.8043 Z" stroke="#161616" stroke-width="0.1197" stroke-linecap="round" stroke-linejoin="round" fill="#000000"/>
        <path d="M 24.1021,5.8043 L 24.1021,7.9289 L 24.9922,7.9289 L 24.9922,8.4288 L 25.3538,8.4288 L 25.3538,8.9286 L 26.4108,8.9286 L 26.4108,8.4288 L 26.7724,8.4288 L 26.7724,7.9289 L 27.6625,7.9289 L 27.6625,5.8043 L 24.1021,5.8043 Z" stroke="#161616" stroke-width="0.1197" stroke-linecap="round" stroke-linejoin="round" fill="#000000"/>
        <path d="M 19.9576,5.8043 L 19.9576,7.9289 L 20.8477,7.9289 L 20.8477,8.4288 L 21.2093,8.4288 L 21.2093,8.9286 L 22.2663,8.9286 L 22.2663,8.4288 L 22.6279,8.4288 L 22.6279,7.9289 L 23.5180,7.9289 L 23.5180,5.8043 L 19.9576,5.8043 Z" stroke="#161616" stroke-width="0.1197" stroke-linecap="round" stroke-linejoin="round" fill="#000000"/>
        <path d="M 15.7575,5.8043 L 15.7575,7.9289 L 16.6475,7.9289 L 16.6475,8.4288 L 17.0092,8.4288 L 17.0092,8.9286 L 18.0661,8.9286 L 18.0661,8.4288 L 18.4277,8.4288 L 18.4277,7.9289 L 19.3178,7.9289 L 19.3178,5.8043 L 15.7575,5.8043 Z" stroke="#161616" stroke-width="0.1197" stroke-linecap="round" stroke-linejoin="round" fill="#000000"/>
        <path d="M 9.5824,8.8592 L 9.5824,6.7347 L 10.4725,6.7347 L 10.4725,6.2348 L 10.8341,6.2348 L 10.8341,5.7349 L 11.8911,5.7349 L 11.8911,6.2348 L 12.2527,6.2348 L 12.2527,6.7347 L 13.1428,6.7347 L 13.1428,8.8592 L 9.5824,8.8592 Z" stroke="#161616" stroke-width="0.1197" stroke-linecap="round" stroke-linejoin="round" fill="#000000"/>
        <path d="M 8.0886,5.5223 L 8.0886,5.4803 L 8.0750,5.4803 L 8.0750,5.4524 L 8.0613,5.4384 L 8.0613,5.4244 L 8.0476,5.4244 L 8.0476,5.4104 L 8.0339,5.4104 L 8.0339,5.3964 L 8.0202,5.3964 L 8.0065,5.3824 L 7.9792,5.3824 L 7.9792,5.3685 L 6.6379,5.3685 L 6.6379,5.3824 L 6.6105,5.3824 L 6.5968,5.3964 L 6.5831,5.3964 L 6.5831,5.4104 L 6.5695,5.4104 L 6.5695,5.4244 L 6.5558,5.4244 L 6.5558,5.4384 L 6.5421,5.4524 L 6.5421,5.4803 L 6.5284,5.4803 L 6.5284,8.9754 L 6.5421,8.9754 L 6.5421,9.0034 L 6.5558,9.0173 L 6.5558,9.0313 L 6.5695,9.0313 L 6.5695,9.0453 L 6.5831,9.0453 L 6.5831,9.0593 L 6.5968,9.0593 L 6.6105,9.0733 L 6.6379,9.0733 L 6.6379,9.0873 L 7.9792,9.0873 L 7.9792,9.0733 L 8.0065,9.0733 L 8.0202,9.0593 L 8.0339,9.0593 L 8.0339,9.0453 L 8.0476,9.0453 L 8.0476,9.0313 L 8.0613,9.0313 L 8.0613,9.0173 L 8.0750,9.0034 L 8.0750,8.9754 L 8.0886,8.9754 L 8.0886,5.5362 L 8.0886,5.5223 Z" stroke="#000000" stroke-width="0.1197" stroke-linecap="round" stroke-linejoin="round" fill="#494949"/>
        <path d="M 7.9655,5.5782 L 7.9655,5.5362 L 7.9518,5.5362 L 7.9518,5.5223 L 7.9381,5.5083 L 7.9244,5.5083 L 7.9244,5.4943 L 6.6926,5.4943 L 6.6790,5.5083 L 6.6653,5.5083 L 6.6653,5.5223 L 6.6516,5.5223 L 6.6516,5.5362 L 6.6379,5.5502 L 6.6379,8.9195 L 6.6516,8.9195 L 6.6516,8.9335 L 6.6653,8.9335 L 6.6653,8.9474 L 6.6790,8.9474 L 6.6926,8.9614 L 7.9244,8.9614 L 7.9244,8.9474 L 7.9518,8.9474 L 7.9518,8.9195 L 7.9655,8.9195 L 7.9655,5.5922 L 7.9655,5.5782 Z" stroke="#494949" stroke-width="0.1197" stroke-linecap="round" stroke-linejoin="round" fill="#000000"/>
        <path d="M 7.2264,6.3191 L 7.2264,6.0116 L 7.2948,6.0116 L 7.2948,6.3191 L 7.2264,6.3191 Z" stroke="#494949" stroke-width="0.1197" stroke-linecap="round" stroke-linejoin="round" fill="#494949"/>
        <path d="M 7.2264,7.0182 L 7.2264,6.7106 L 7.2948,6.7106 L 7.2948,7.0182 L 7.2264,7.0182 Z" stroke="#494949" stroke-width="0.1197" stroke-linecap="round" stroke-linejoin="round" fill="#494949"/>
        <path d="M 7.2264,7.7032 L 7.2264,7.3956 L 7.2948,7.3956 L 7.2948,7.7032 L 7.2264,7.7032 Z" stroke="#494949" stroke-width="0.1197" stroke-linecap="round" stroke-linejoin="round" fill="#494949"/>
        <path d="M 7.2264,8.4162 L 7.2264,8.1086 L 7.2948,8.1086 L 7.2948,8.4162 L 7.2264,8.4162 Z" stroke="#494949" stroke-width="0.1197" stroke-linecap="round" stroke-linejoin="round" fill="#494949"/>
        <path d="M 7.6507,8.7517 L 7.6781,8.7517 L 7.7054,8.7377 L 7.7191,8.7098 L 7.7191,5.7459 L 7.7054,5.7180 L 7.6781,5.7040 L 7.3359,5.7040 L 7.3085,5.7180 L 7.2948,5.7459 L 7.2948,8.7098 L 7.3085,8.7377 L 7.3359,8.7517 L 7.3633,8.7517 L 7.6507,8.7517 Z" stroke="#494949" stroke-width="0.1197" stroke-linecap="round" stroke-linejoin="round" fill="#494949"/>
        <path d="M 7.5138,8.6399 L 7.5686,8.6259 L 7.6233,8.5700 L 7.6370,8.5141 L 7.6370,5.9417 L 7.6233,5.8857 L 7.5686,5.8298 L 7.5138,5.8158 L 7.4591,5.8298 L 7.4043,5.8857 L 7.3906,5.9417 L 7.3906,8.5141 L 7.4043,8.5700 L 7.4591,8.6259 L 7.5138,8.6399 Z" stroke="#0000FF" stroke-width="0.1197" stroke-linecap="round" stroke-linejoin="round" fill="#0000FF"/>
        <path d="M 7.8423,5.4943 L 7.8423,5.3405 L 7.8286,5.3405 L 7.8286,5.3265 L 7.8149,5.3265 L 7.8149,5.3125 L 7.8012,5.3125 L 7.7875,5.2986 L 6.8295,5.2986 L 6.8158,5.3125 L 6.8021,5.3125 L 6.8021,5.3265 L 6.7884,5.3265 L 6.7884,5.3405 L 6.7748,5.3405 L 6.7748,5.4943 L 7.8286,5.4943 L 7.8423,5.4943 Z" stroke="#000000" stroke-width="0.1197" stroke-linecap="round" stroke-linejoin="round" fill="#7F7F7F"/>
        <path d="M 7.8423,8.9614 L 7.8423,9.1152 L 7.8286,9.1152 L 7.8286,9.1292 L 7.8149,9.1292 L 7.8149,9.1432 L 7.8012,9.1432 L 7.7875,9.1572 L 6.8295,9.1572 L 6.8158,9.1432 L 6.8021,9.1432 L 6.8021,9.1292 L 6.7884,9.1292 L 6.7884,9.1152 L 6.7748,9.1152 L 6.7748,8.9614 L 7.8286,8.9614 L 7.8423,8.9614 Z" stroke="#000000" stroke-width="0.1197" stroke-linecap="round" stroke-linejoin="round" fill="#7F7F7F"/>
        <path d="M 7.9655,5.6900 L 8.1160,5.6900 L 8.1160,5.7040 L 8.1297,5.7040 L 8.1434,5.7180 L 8.1434,5.7320 L 8.1571,5.7320 L 8.1571,8.6958 L 8.1434,8.6958 L 8.1434,8.7238 L 8.1160,8.7238 L 8.1160,8.7377 L 7.9655,8.7377 L 7.9655,5.7040 L 7.9655,5.6900 Z" stroke="#000000" stroke-width="0.1197" stroke-linecap="round" stroke-linejoin="round" fill="#7F7F7F"/>
        <path d="M 6.6379,5.6900 L 6.4873,5.6900 L 6.4873,5.7040 L 6.4737,5.7040 L 6.4600,5.7180 L 6.4600,5.7320 L 6.4463,5.7320 L 6.4463,8.6958 L 6.4600,8.6958 L 6.4600,8.7238 L 6.4873,8.7238 L 6.4873,8.7377 L 6.6379,8.7377 L 6.6379,5.7040 L 6.6379,5.6900 Z" stroke="#000000" stroke-width="0.1197" stroke-linecap="round" stroke-linejoin="round" fill="#7F7F7F"/>
        <path d="M 4.6848,4.3948 L 4.6848,9.1536 L 2.7501,9.1536 L 2.7501,4.3948 L 3.1232,4.3948 L 3.1232,4.7727 L 4.3117,4.7727 L 4.3117,4.3948 L 4.6848,4.3948 Z" stroke="#000000" stroke-width="0.1197" stroke-linecap="round" stroke-linejoin="round" fill="#000000"/>
        <path d="M 4.6296,4.9127 L 2.8054,4.9127 L 2.8054,9.0836 L 4.6296,9.0836 L 4.6296,4.9127 Z" stroke="#000000" stroke-width="0.1197" stroke-linecap="round" stroke-linejoin="round" fill="#666666"/>
        <path d="M 4.4361,7.1661 L 2.9988,7.1661 L 2.9988,8.6217 L 4.4361,8.6217 L 4.4361,7.1661 Z" stroke="#000000" stroke-width="0.1197" stroke-linecap="round" stroke-linejoin="round" fill="#000000"/>
        <ellipse cx="3.6553" cy="7.8309" rx="0.1175" ry="0.1190" fill="#BFBFBF" stroke="#000000" stroke-width="0.1197" stroke-linecap="round" stroke-linejoin="round"/>
        <ellipse cx="3.6553" cy="7.8309" rx="0.1175" ry="0.1190" fill="none" stroke="#000000" stroke-width="0.1197" stroke-linecap="round" stroke-linejoin="round"/>
        <path d="M 4.4361,5.4026 L 2.9988,5.4026 L 2.9988,6.4943 L 3.3582,6.8582 L 4.1044,6.8582 L 4.4361,6.5223 L 4.4361,5.4026 Z" stroke="#000000" stroke-width="0.1197" stroke-linecap="round" stroke-linejoin="round" fill="#000000"/>
        <ellipse cx="3.6553" cy="6.0674" rx="0.1175" ry="0.1190" fill="#BFBFBF" stroke="#000000" stroke-width="0.1197" stroke-linecap="round" stroke-linejoin="round"/>
        <ellipse cx="3.6553" cy="6.0674" rx="0.1175" ry="0.1190" fill="none" stroke="#000000" stroke-width="0.1197" stroke-linecap="round" stroke-linejoin="round"/>
        <ellipse cx="1.3044" cy="7.0936" rx="0.6230" ry="0.6253" fill="#666666" stroke="#000000" stroke-width="0.1197" stroke-linecap="round" stroke-linejoin="round"/>
        <ellipse cx="1.3044" cy="7.0936" rx="0.6230" ry="0.6253" fill="none" stroke="#000000" stroke-width="0.1197" stroke-linecap="round" stroke-linejoin="round"/>
        <ellipse cx="1.3044" cy="7.0936" rx="0.5646" ry="0.5667" fill="#7F7F7F" stroke="#000000" stroke-width="0.1197" stroke-linecap="round" stroke-linejoin="round"/>
        <ellipse cx="1.3044" cy="7.0936" rx="0.5646" ry="0.5667" fill="none" stroke="#7F7F7F" stroke-width="0.1197" stroke-linecap="round" stroke-linejoin="round"/>
        <path d="M 0.8761,7.0545 L 0.8566,7.0545 L 0.8372,7.0740 L 0.8372,7.0936 L 0.8177,7.0936 L 0.8177,7.2108 L 0.8372,7.2108 L 0.8372,7.2304 L 0.8566,7.2499 L 1.2655,7.2499 L 1.2655,7.6798 L 1.2850,7.6798 L 1.2850,7.6994 L 1.3044,7.6994 L 1.3044,7.7189 L 1.4212,7.7189 L 1.4212,7.6994 L 1.4407,7.6994 L 1.4407,7.6798 L 1.4602,7.6798 L 1.4602,7.2499 L 1.8885,7.2499 L 1.8885,7.2304 L 1.9080,7.2304 L 1.9080,7.2108 L 1.9274,7.2108 L 1.9274,7.0936 L 1.9080,7.0936 L 1.9080,7.0740 L 1.8885,7.0740 L 1.8885,7.0545 L 1.4602,7.0545 L 1.4602,6.6441 L 1.4407,6.6246 L 1.4212,6.6246 L 1.4212,6.6050 L 1.3044,6.6050 L 1.3044,6.6246 L 1.2850,6.6246 L 1.2655,6.6441 L 1.2655,7.0545 L 0.8956,7.0545 L 0.8761,7.0545 Z" stroke="#161616" stroke-width="0.1197" stroke-linecap="round" stroke-linejoin="round" fill="#494949"/>
        <path d="M 0.7982,7.1131 L 0.7982,7.2108 L 0.8177,7.2304 L 0.8372,7.2304 L 0.8372,7.2499 L 1.2655,7.2499 L 1.2655,7.6994 L 1.2850,7.7189 L 1.3044,7.7189 L 1.3044,7.7384 L 1.3628,7.7384 L 1.3823,7.7384 " stroke="#BFBFBF" stroke-width="0.1197" stroke-linecap="round" stroke-linejoin="round" fill="none"/>
        <path d="M 1.2655,6.6441 L 1.2655,7.0349 L 1.2655,7.0545 " stroke="#BFBFBF" stroke-width="0.1197" stroke-linecap="round" stroke-linejoin="round" fill="none"/>
      </g>
      <!--emf-blob end-->
    </g>
  </g>
</svg>
