<svg xmlns="http://www.w3.org/2000/svg" xmlns:xlink="http://www.w3.org/1999/xlink" version="1.1" width="4.7828000000" height="2.4976000000" viewBox="0 0 86.0919 44.9555">
  <title><![CDATA[FG/FWF-60D-POE ]]></title>
  <g transform=" scale(4.000000) ">
    <!--converted by libvisio2svg-->
    <g transform=" translate(12.531000,0.720000) ">
      <!--emf-blob start-->
      <g transform="translate(-0.0000, -0.0000)">
        <path d="M 60.6181,0.3085 L 60.6181,0.2524 L 60.5902,0.1963 L 60.5762,0.1543 L 60.4924,0.0701 L 60.4505,0.0561 L 60.3946,0.0280 L 0.2515,0.0280 L 0.1956,0.0561 L 0.1537,0.0701 L 0.0699,0.1543 L 0.0559,0.1963 L 0.0279,0.2524 L 0.0279,10.3494 L 0.0559,10.4055 L 0.0699,10.4476 L 0.1537,10.5317 L 0.1956,10.5458 L 0.2515,10.5738 L 60.3946,10.5738 L 60.4505,10.5458 L 60.4924,10.5317 L 60.5762,10.4476 L 60.5902,10.4055 L 60.6181,10.3494 L 60.6181,10.2933 L 60.6181,0.3085 Z" stroke="#000000" stroke-width="0.1194" stroke-linecap="round" stroke-linejoin="round" fill="#EDEDED"/>
        <ellipse cx="59.3535" cy="2.4261" rx="0.6079" ry="0.6170" fill="#BFBFBF" stroke="#000000" stroke-width="0.1194" stroke-linecap="round" stroke-linejoin="round"/>
        <ellipse cx="59.3535" cy="2.4261" rx="0.6079" ry="0.6170" fill="none" stroke="#000000" stroke-width="0.1194" stroke-linecap="round" stroke-linejoin="round"/>
        <ellipse cx="59.3535" cy="2.4191" rx="0.5380" ry="0.5399" fill="#DDDDDD" stroke="#000000" stroke-width="0.1194" stroke-linecap="round" stroke-linejoin="round"/>
        <ellipse cx="59.3535" cy="2.4191" rx="0.5380" ry="0.5399" fill="none" stroke="#7F7F7F" stroke-width="0.1194" stroke-linecap="round" stroke-linejoin="round"/>
        <path d="M 58.9413,2.3840 L 58.9133,2.3840 L 58.9133,2.3980 L 58.8994,2.3980 L 58.8994,2.4121 L 58.8854,2.4261 L 58.8854,2.5523 L 58.8994,2.5523 L 58.8994,2.5663 L 58.9133,2.5663 L 58.9133,2.5803 L 59.3186,2.5803 L 59.3186,2.9870 L 59.3326,2.9870 L 59.3326,3.0151 L 59.3465,3.0151 L 59.3465,3.0291 L 59.3605,3.0291 L 59.3745,3.0431 L 59.4723,3.0431 L 59.4723,3.0291 L 59.4863,3.0291 L 59.4863,3.0151 L 59.5002,3.0151 L 59.5002,3.0011 L 59.5142,2.9870 L 59.5142,2.5803 L 59.9195,2.5803 L 59.9334,2.5663 L 59.9474,2.5663 L 59.9474,2.5523 L 59.9614,2.5523 L 59.9614,2.5383 L 59.9753,2.5383 L 59.9753,2.4401 L 59.9614,2.4261 L 59.9614,2.4121 L 59.9474,2.4121 L 59.9474,2.3980 L 59.9195,2.3980 L 59.9195,2.3840 L 59.5142,2.3840 L 59.5142,1.9773 L 59.5002,1.9773 L 59.5002,1.9633 L 59.4863,1.9633 L 59.4863,1.9493 L 59.3605,1.9493 L 59.3465,1.9633 L 59.3326,1.9633 L 59.3326,1.9773 L 59.3186,1.9773 L 59.3186,2.3840 L 58.9553,2.3840 L 58.9413,2.3840 Z" stroke="#161616" stroke-width="0.1194" stroke-linecap="round" stroke-linejoin="round" fill="#494949"/>
        <path d="M 58.8574,2.4401 L 58.8574,2.5523 L 58.8714,2.5523 L 58.8854,2.5663 L 59.3326,2.5663 L 59.3326,3.0291 L 59.3465,3.0291 L 59.3465,3.0431 L 59.3605,3.0431 L 59.3605,3.0571 L 59.4304,3.0571 L 59.4443,3.0571 " stroke="#BFBFBF" stroke-width="0.1194" stroke-linecap="round" stroke-linejoin="round" fill="none"/>
        <path d="M 59.3186,1.9914 L 59.3186,2.3560 L 59.3186,2.3840 " stroke="#BFBFBF" stroke-width="0.1194" stroke-linecap="round" stroke-linejoin="round" fill="none"/>
        <path d="M 0.3074,0.0280 L 0.2515,0.0280 L 0.2376,0.0421 L 0.2096,0.0421 L 0.1956,0.0561 L 0.1677,0.0561 L 0.1677,0.0701 L 0.1537,0.0701 L 0.0699,0.1543 L 0.0699,0.1683 L 0.0559,0.1683 L 0.0559,0.1963 L 0.0419,0.2104 L 0.0419,0.2384 L 0.0279,0.2524 L 0.0279,0.9396 L 0.2376,0.9396 L 0.2376,0.3646 L 0.2515,0.3506 L 0.2515,0.3225 L 0.2655,0.3085 L 0.2655,0.2805 L 0.2795,0.2805 L 0.2795,0.2664 L 0.3633,0.1823 L 0.3773,0.1823 L 0.3773,0.1683 L 0.4052,0.1683 L 0.4192,0.1543 L 0.4472,0.1543 L 0.4611,0.1402 L 60.1850,0.1402 L 60.1989,0.1543 L 60.2269,0.1543 L 60.2408,0.1683 L 60.2688,0.1683 L 60.2688,0.1823 L 60.2828,0.1823 L 60.3666,0.2664 L 60.3666,0.2805 L 60.3806,0.2805 L 60.3806,0.3085 L 60.3946,0.3225 L 60.3946,0.3506 L 60.4085,0.3646 L 60.4085,0.9396 L 60.6181,0.9396 L 60.6181,0.2524 L 60.6042,0.2384 L 60.6042,0.2104 L 60.5902,0.1963 L 60.5902,0.1683 L 60.5762,0.1683 L 60.5762,0.1543 L 60.4924,0.0701 L 60.4784,0.0701 L 60.4784,0.0561 L 60.4505,0.0561 L 60.4365,0.0421 L 60.4085,0.0421 L 60.3946,0.0280 L 0.4751,0.0280 L 0.3074,0.0280 Z" stroke="#000000" stroke-width="0.1194" stroke-linecap="round" stroke-linejoin="round" fill="#EFEFEF"/>
        <path d="M 0.3074,10.5738 L 0.2515,10.5738 L 0.2376,10.5598 L 0.2096,10.5598 L 0.1956,10.5458 L 0.1677,10.5458 L 0.1677,10.5317 L 0.1537,10.5317 L 0.0699,10.4476 L 0.0699,10.4336 L 0.0559,10.4336 L 0.0559,10.4055 L 0.0419,10.3915 L 0.0419,10.3635 L 0.0279,10.3494 L 0.0279,9.6623 L 0.2376,9.6623 L 0.2376,10.2372 L 0.2515,10.2513 L 0.2515,10.2793 L 0.2655,10.2933 L 0.2655,10.3214 L 0.2795,10.3214 L 0.2795,10.3354 L 0.3633,10.4195 L 0.3773,10.4195 L 0.3773,10.4336 L 0.4052,10.4336 L 0.4192,10.4476 L 0.4472,10.4476 L 0.4611,10.4616 L 60.1850,10.4616 L 60.1989,10.4476 L 60.2269,10.4476 L 60.2408,10.4336 L 60.2688,10.4336 L 60.2688,10.4195 L 60.2828,10.4195 L 60.3666,10.3354 L 60.3666,10.3214 L 60.3806,10.3214 L 60.3806,10.2933 L 60.3946,10.2793 L 60.3946,10.2513 L 60.4085,10.2372 L 60.4085,9.6623 L 60.6181,9.6623 L 60.6181,10.3494 L 60.6042,10.3635 L 60.6042,10.3915 L 60.5902,10.4055 L 60.5902,10.4336 L 60.5762,10.4336 L 60.5762,10.4476 L 60.4924,10.5317 L 60.4784,10.5317 L 60.4784,10.5458 L 60.4505,10.5458 L 60.4365,10.5598 L 60.4085,10.5598 L 60.3946,10.5738 L 0.4751,10.5738 L 0.3074,10.5738 Z" stroke="#000000" stroke-width="0.1194" stroke-linecap="round" stroke-linejoin="round" fill="#EFEFEF"/>
        <ellipse cx="1.1738" cy="2.4261" rx="0.6148" ry="0.6170" fill="#BFBFBF" stroke="#000000" stroke-width="0.1194" stroke-linecap="round" stroke-linejoin="round"/>
        <ellipse cx="1.1738" cy="2.4261" rx="0.6148" ry="0.6170" fill="none" stroke="#000000" stroke-width="0.1194" stroke-linecap="round" stroke-linejoin="round"/>
        <ellipse cx="1.1668" cy="2.4191" rx="0.5380" ry="0.5399" fill="#DDDDDD" stroke="#000000" stroke-width="0.1194" stroke-linecap="round" stroke-linejoin="round"/>
        <ellipse cx="1.1668" cy="2.4191" rx="0.5380" ry="0.5399" fill="none" stroke="#7F7F7F" stroke-width="0.1194" stroke-linecap="round" stroke-linejoin="round"/>
        <path d="M 1.7048,2.3840 L 1.7327,2.3840 L 1.7327,2.3980 L 1.7467,2.3980 L 1.7467,2.4121 L 1.7607,2.4261 L 1.7607,2.5523 L 1.7467,2.5523 L 1.7467,2.5663 L 1.7327,2.5663 L 1.7327,2.5803 L 1.3275,2.5803 L 1.3275,2.9870 L 1.3135,2.9870 L 1.3135,3.0151 L 1.2996,3.0151 L 1.2996,3.0291 L 1.2856,3.0291 L 1.2716,3.0431 L 1.1738,3.0431 L 1.1738,3.0291 L 1.1598,3.0291 L 1.1598,3.0151 L 1.1458,3.0151 L 1.1458,3.0011 L 1.1319,2.9870 L 1.1319,2.5803 L 0.7266,2.5803 L 0.7127,2.5663 L 0.6987,2.5663 L 0.6987,2.5523 L 0.6847,2.5523 L 0.6847,2.5383 L 0.6707,2.5383 L 0.6707,2.4401 L 0.6847,2.4261 L 0.6847,2.4121 L 0.6987,2.4121 L 0.6987,2.3980 L 0.7266,2.3980 L 0.7266,2.3840 L 1.1319,2.3840 L 1.1319,1.9773 L 1.1458,1.9773 L 1.1458,1.9633 L 1.1598,1.9633 L 1.1598,1.9493 L 1.2856,1.9493 L 1.2996,1.9633 L 1.3135,1.9633 L 1.3135,1.9773 L 1.3275,1.9773 L 1.3275,2.3840 L 1.6908,2.3840 L 1.7048,2.3840 Z" stroke="#161616" stroke-width="0.1194" stroke-linecap="round" stroke-linejoin="round" fill="#494949"/>
        <path d="M 1.7886,2.4401 L 1.7886,2.5523 L 1.7747,2.5523 L 1.7607,2.5663 L 1.3135,2.5663 L 1.3135,3.0291 L 1.2996,3.0291 L 1.2996,3.0431 L 1.2856,3.0431 L 1.2856,3.0571 L 1.2157,3.0571 L 1.2017,3.0571 " stroke="#BFBFBF" stroke-width="0.1194" stroke-linecap="round" stroke-linejoin="round" fill="none"/>
        <path d="M 1.3275,1.9914 L 1.3275,2.3560 L 1.3275,2.3840 " stroke="#BFBFBF" stroke-width="0.1194" stroke-linecap="round" stroke-linejoin="round" fill="none"/>
        <path d="M 13.5545,1.2761 L 13.5545,1.2341 L 13.5406,1.1920 L 13.5266,1.1640 L 13.4707,1.1079 L 13.4428,1.0938 L 13.4008,1.0798 L 12.4087,1.0798 L 12.3668,1.0938 L 12.3388,1.1079 L 12.2829,1.1640 L 12.2690,1.1920 L 12.2550,1.2341 L 12.2550,1.3182 L 12.2690,1.3603 L 12.2829,1.3883 L 12.3388,1.4444 L 12.3668,1.4585 L 12.4087,1.4725 L 13.4008,1.4725 L 13.4428,1.4585 L 13.4707,1.4444 L 13.5266,1.3883 L 13.5406,1.3603 L 13.5545,1.3182 L 13.5545,1.2761 Z" stroke="#000000" stroke-width="0.1194" stroke-linecap="round" stroke-linejoin="round" fill="#000000"/>
        <path d="M 15.7344,1.2761 L 15.7344,1.2341 L 15.7205,1.1920 L 15.7065,1.1640 L 15.6506,1.1079 L 15.6227,1.0938 L 15.5807,1.0798 L 14.5886,1.0798 L 14.5467,1.0938 L 14.5187,1.1079 L 14.4628,1.1640 L 14.4489,1.1920 L 14.4349,1.2341 L 14.4349,1.3182 L 14.4489,1.3603 L 14.4628,1.3883 L 14.5187,1.4444 L 14.5467,1.4585 L 14.5886,1.4725 L 15.5807,1.4725 L 15.6227,1.4585 L 15.6506,1.4444 L 15.7065,1.3883 L 15.7205,1.3603 L 15.7344,1.3182 L 15.7344,1.2761 Z" stroke="#000000" stroke-width="0.1194" stroke-linecap="round" stroke-linejoin="round" fill="#000000"/>
        <path d="M 17.9004,1.2761 L 17.9004,1.2341 L 17.8864,1.1920 L 17.8724,1.1640 L 17.8165,1.1079 L 17.7886,1.0938 L 17.7467,1.0798 L 16.7545,1.0798 L 16.7126,1.0938 L 16.6847,1.1079 L 16.6288,1.1640 L 16.6148,1.1920 L 16.6008,1.2341 L 16.6008,1.3182 L 16.6148,1.3603 L 16.6288,1.3883 L 16.6847,1.4444 L 16.7126,1.4585 L 16.7545,1.4725 L 17.7467,1.4725 L 17.7886,1.4585 L 17.8165,1.4444 L 17.8724,1.3883 L 17.8864,1.3603 L 17.9004,1.3182 L 17.9004,1.2761 Z" stroke="#000000" stroke-width="0.1194" stroke-linecap="round" stroke-linejoin="round" fill="#000000"/>
        <path d="M 20.0803,1.2761 L 20.0803,1.2341 L 20.0663,1.1920 L 20.0523,1.1640 L 19.9964,1.1079 L 19.9685,1.0938 L 19.9266,1.0798 L 18.9344,1.0798 L 18.8925,1.0938 L 18.8646,1.1079 L 18.8087,1.1640 L 18.7947,1.1920 L 18.7807,1.2341 L 18.7807,1.3182 L 18.7947,1.3603 L 18.8087,1.3883 L 18.8646,1.4444 L 18.8925,1.4585 L 18.9344,1.4725 L 19.9266,1.4725 L 19.9685,1.4585 L 19.9964,1.4444 L 20.0523,1.3883 L 20.0663,1.3603 L 20.0803,1.3182 L 20.0803,1.2761 Z" stroke="#000000" stroke-width="0.1194" stroke-linecap="round" stroke-linejoin="round" fill="#000000"/>
        <path d="M 22.2602,1.2761 L 22.2602,1.2341 L 22.2462,1.1920 L 22.2322,1.1640 L 22.1763,1.1079 L 22.1484,1.0938 L 22.1065,1.0798 L 21.1143,1.0798 L 21.0724,1.0938 L 21.0445,1.1079 L 20.9886,1.1640 L 20.9746,1.1920 L 20.9606,1.2341 L 20.9606,1.3182 L 20.9746,1.3603 L 20.9886,1.3883 L 21.0445,1.4444 L 21.0724,1.4585 L 21.1143,1.4725 L 22.1065,1.4725 L 22.1484,1.4585 L 22.1763,1.4444 L 22.2322,1.3883 L 22.2462,1.3603 L 22.2602,1.3182 L 22.2602,1.2761 Z" stroke="#000000" stroke-width="0.1194" stroke-linecap="round" stroke-linejoin="round" fill="#000000"/>
        <path d="M 24.4401,1.2761 L 24.4401,1.2341 L 24.4261,1.1920 L 24.4121,1.1640 L 24.3563,1.1079 L 24.3283,1.0938 L 24.2864,1.0798 L 23.2942,1.0798 L 23.2523,1.0938 L 23.2244,1.1079 L 23.1685,1.1640 L 23.1545,1.1920 L 23.1405,1.2341 L 23.1405,1.3182 L 23.1545,1.3603 L 23.1685,1.3883 L 23.2244,1.4444 L 23.2523,1.4585 L 23.2942,1.4725 L 24.2864,1.4725 L 24.3283,1.4585 L 24.3563,1.4444 L 24.4121,1.3883 L 24.4261,1.3603 L 24.4401,1.3182 L 24.4401,1.2761 Z" stroke="#000000" stroke-width="0.1194" stroke-linecap="round" stroke-linejoin="round" fill="#000000"/>
        <path d="M 26.6060,1.2761 L 26.6060,1.2341 L 26.5921,1.1920 L 26.5781,1.1640 L 26.5222,1.1079 L 26.4942,1.0938 L 26.4523,1.0798 L 25.4602,1.0798 L 25.4183,1.0938 L 25.3903,1.1079 L 25.3344,1.1640 L 25.3204,1.1920 L 25.3065,1.2341 L 25.3065,1.3182 L 25.3204,1.3603 L 25.3344,1.3883 L 25.3903,1.4444 L 25.4183,1.4585 L 25.4602,1.4725 L 26.4523,1.4725 L 26.4942,1.4585 L 26.5222,1.4444 L 26.5781,1.3883 L 26.5921,1.3603 L 26.6060,1.3182 L 26.6060,1.2761 Z" stroke="#000000" stroke-width="0.1194" stroke-linecap="round" stroke-linejoin="round" fill="#000000"/>
        <path d="M 28.7859,1.2761 L 28.7859,1.2341 L 28.7720,1.1920 L 28.7580,1.1640 L 28.7021,1.1079 L 28.6741,1.0938 L 28.6322,1.0798 L 27.6401,1.0798 L 27.5982,1.0938 L 27.5702,1.1079 L 27.5143,1.1640 L 27.5003,1.1920 L 27.4864,1.2341 L 27.4864,1.3182 L 27.5003,1.3603 L 27.5143,1.3883 L 27.5702,1.4444 L 27.5982,1.4585 L 27.6401,1.4725 L 28.6322,1.4725 L 28.6741,1.4585 L 28.7021,1.4444 L 28.7580,1.3883 L 28.7720,1.3603 L 28.7859,1.3182 L 28.7859,1.2761 Z" stroke="#000000" stroke-width="0.1194" stroke-linecap="round" stroke-linejoin="round" fill="#000000"/>
        <path d="M 30.9658,1.2761 L 30.9658,1.2341 L 30.9519,1.1920 L 30.9379,1.1640 L 30.8820,1.1079 L 30.8540,1.0938 L 30.8121,1.0798 L 29.8200,1.0798 L 29.7781,1.0938 L 29.7501,1.1079 L 29.6942,1.1640 L 29.6803,1.1920 L 29.6663,1.2341 L 29.6663,1.3182 L 29.6803,1.3603 L 29.6942,1.3883 L 29.7501,1.4444 L 29.7781,1.4585 L 29.8200,1.4725 L 30.8121,1.4725 L 30.8540,1.4585 L 30.8820,1.4444 L 30.9379,1.3883 L 30.9519,1.3603 L 30.9658,1.3182 L 30.9658,1.2761 Z" stroke="#000000" stroke-width="0.1194" stroke-linecap="round" stroke-linejoin="round" fill="#000000"/>
        <path d="M 33.1457,1.2761 L 33.1457,1.2341 L 33.1318,1.1920 L 33.1178,1.1640 L 33.0619,1.1079 L 33.0340,1.0938 L 32.9920,1.0798 L 31.9999,1.0798 L 31.9580,1.0938 L 31.9300,1.1079 L 31.8741,1.1640 L 31.8602,1.1920 L 31.8462,1.2341 L 31.8462,1.3182 L 31.8602,1.3603 L 31.8741,1.3883 L 31.9300,1.4444 L 31.9580,1.4585 L 31.9999,1.4725 L 32.9920,1.4725 L 33.0340,1.4585 L 33.0619,1.4444 L 33.1178,1.3883 L 33.1318,1.3603 L 33.1457,1.3182 L 33.1457,1.2761 Z" stroke="#000000" stroke-width="0.1194" stroke-linecap="round" stroke-linejoin="round" fill="#000000"/>
        <path d="M 35.3117,1.2761 L 35.3117,1.2341 L 35.2977,1.1920 L 35.2837,1.1640 L 35.2278,1.1079 L 35.1999,1.0938 L 35.1580,1.0798 L 34.1658,1.0798 L 34.1239,1.0938 L 34.0960,1.1079 L 34.0401,1.1640 L 34.0261,1.1920 L 34.0121,1.2341 L 34.0121,1.3182 L 34.0261,1.3603 L 34.0401,1.3883 L 34.0960,1.4444 L 34.1239,1.4585 L 34.1658,1.4725 L 35.1580,1.4725 L 35.1999,1.4585 L 35.2278,1.4444 L 35.2837,1.3883 L 35.2977,1.3603 L 35.3117,1.3182 L 35.3117,1.2761 Z" stroke="#000000" stroke-width="0.1194" stroke-linecap="round" stroke-linejoin="round" fill="#000000"/>
        <path d="M 37.4916,1.2761 L 37.4916,1.2341 L 37.4776,1.1920 L 37.4636,1.1640 L 37.4077,1.1079 L 37.3798,1.0938 L 37.3379,1.0798 L 36.3457,1.0798 L 36.3038,1.0938 L 36.2759,1.1079 L 36.2200,1.1640 L 36.2060,1.1920 L 36.1920,1.2341 L 36.1920,1.3182 L 36.2060,1.3603 L 36.2200,1.3883 L 36.2759,1.4444 L 36.3038,1.4585 L 36.3457,1.4725 L 37.3379,1.4725 L 37.3798,1.4585 L 37.4077,1.4444 L 37.4636,1.3883 L 37.4776,1.3603 L 37.4916,1.3182 L 37.4916,1.2761 Z" stroke="#000000" stroke-width="0.1194" stroke-linecap="round" stroke-linejoin="round" fill="#000000"/>
        <path d="M 39.6715,1.2761 L 39.6715,1.2341 L 39.6575,1.1920 L 39.6435,1.1640 L 39.5876,1.1079 L 39.5597,1.0938 L 39.5178,1.0798 L 38.5256,1.0798 L 38.4837,1.0938 L 38.4558,1.1079 L 38.3999,1.1640 L 38.3859,1.1920 L 38.3719,1.2341 L 38.3719,1.3182 L 38.3859,1.3603 L 38.3999,1.3883 L 38.4558,1.4444 L 38.4837,1.4585 L 38.5256,1.4725 L 39.5178,1.4725 L 39.5597,1.4585 L 39.5876,1.4444 L 39.6435,1.3883 L 39.6575,1.3603 L 39.6715,1.3182 L 39.6715,1.2761 Z" stroke="#000000" stroke-width="0.1194" stroke-linecap="round" stroke-linejoin="round" fill="#000000"/>
        <path d="M 41.8514,1.2761 L 41.8514,1.2341 L 41.8374,1.1920 L 41.8234,1.1640 L 41.7675,1.1079 L 41.7396,1.0938 L 41.6977,1.0798 L 40.7055,1.0798 L 40.6636,1.0938 L 40.6357,1.1079 L 40.5798,1.1640 L 40.5658,1.1920 L 40.5518,1.2341 L 40.5518,1.3182 L 40.5658,1.3603 L 40.5798,1.3883 L 40.6357,1.4444 L 40.6636,1.4585 L 40.7055,1.4725 L 41.6977,1.4725 L 41.7396,1.4585 L 41.7675,1.4444 L 41.8234,1.3883 L 41.8374,1.3603 L 41.8514,1.3182 L 41.8514,1.2761 Z" stroke="#000000" stroke-width="0.1194" stroke-linecap="round" stroke-linejoin="round" fill="#000000"/>
        <path d="M 44.0173,1.2761 L 44.0173,1.2341 L 44.0033,1.1920 L 43.9894,1.1640 L 43.9335,1.1079 L 43.9055,1.0938 L 43.8636,1.0798 L 42.8715,1.0798 L 42.8296,1.0938 L 42.8016,1.1079 L 42.7457,1.1640 L 42.7317,1.1920 L 42.7178,1.2341 L 42.7178,1.3182 L 42.7317,1.3603 L 42.7457,1.3883 L 42.8016,1.4444 L 42.8296,1.4585 L 42.8715,1.4725 L 43.8636,1.4725 L 43.9055,1.4585 L 43.9335,1.4444 L 43.9894,1.3883 L 44.0033,1.3603 L 44.0173,1.3182 L 44.0173,1.2761 Z" stroke="#000000" stroke-width="0.1194" stroke-linecap="round" stroke-linejoin="round" fill="#000000"/>
        <path d="M 46.1972,1.2761 L 46.1972,1.2341 L 46.1833,1.1920 L 46.1693,1.1640 L 46.1134,1.1079 L 46.0854,1.0938 L 46.0435,1.0798 L 45.0514,1.0798 L 45.0095,1.0938 L 44.9815,1.1079 L 44.9256,1.1640 L 44.9116,1.1920 L 44.8977,1.2341 L 44.8977,1.3182 L 44.9116,1.3603 L 44.9256,1.3883 L 44.9815,1.4444 L 45.0095,1.4585 L 45.0514,1.4725 L 46.0435,1.4725 L 46.0854,1.4585 L 46.1134,1.4444 L 46.1693,1.3883 L 46.1833,1.3603 L 46.1972,1.3182 L 46.1972,1.2761 Z" stroke="#000000" stroke-width="0.1194" stroke-linecap="round" stroke-linejoin="round" fill="#000000"/>
        <path d="M 48.3911,1.2761 L 48.3911,1.2341 L 48.3771,1.1920 L 48.3632,1.1640 L 48.3073,1.1079 L 48.2793,1.0938 L 48.2374,1.0798 L 47.2453,1.0798 L 47.2033,1.0938 L 47.1754,1.1079 L 47.1195,1.1640 L 47.1055,1.1920 L 47.0915,1.2341 L 47.0915,1.3182 L 47.1055,1.3603 L 47.1195,1.3883 L 47.1754,1.4444 L 47.2033,1.4585 L 47.2453,1.4725 L 48.2374,1.4725 L 48.2793,1.4585 L 48.3073,1.4444 L 48.3632,1.3883 L 48.3771,1.3603 L 48.3911,1.3182 L 48.3911,1.2761 Z" stroke="#000000" stroke-width="0.1194" stroke-linecap="round" stroke-linejoin="round" fill="#000000"/>
        <path d="M 13.5545,2.5663 L 13.5545,2.5243 L 13.5406,2.4822 L 13.5266,2.4541 L 13.4707,2.3980 L 13.4428,2.3840 L 13.4008,2.3700 L 12.4087,2.3700 L 12.3668,2.3840 L 12.3388,2.3980 L 12.2829,2.4541 L 12.2690,2.4822 L 12.2550,2.5243 L 12.2550,2.6084 L 12.2690,2.6505 L 12.2829,2.6785 L 12.3388,2.7346 L 12.3668,2.7486 L 12.4087,2.7627 L 13.4008,2.7627 L 13.4428,2.7486 L 13.4707,2.7346 L 13.5266,2.6785 L 13.5406,2.6505 L 13.5545,2.6084 L 13.5545,2.5663 Z" stroke="#000000" stroke-width="0.1194" stroke-linecap="round" stroke-linejoin="round" fill="#000000"/>
        <path d="M 15.7344,2.5663 L 15.7344,2.5243 L 15.7205,2.4822 L 15.7065,2.4541 L 15.6506,2.3980 L 15.6227,2.3840 L 15.5807,2.3700 L 14.5886,2.3700 L 14.5467,2.3840 L 14.5187,2.3980 L 14.4628,2.4541 L 14.4489,2.4822 L 14.4349,2.5243 L 14.4349,2.6084 L 14.4489,2.6505 L 14.4628,2.6785 L 14.5187,2.7346 L 14.5467,2.7486 L 14.5886,2.7627 L 15.5807,2.7627 L 15.6227,2.7486 L 15.6506,2.7346 L 15.7065,2.6785 L 15.7205,2.6505 L 15.7344,2.6084 L 15.7344,2.5663 Z" stroke="#000000" stroke-width="0.1194" stroke-linecap="round" stroke-linejoin="round" fill="#000000"/>
        <path d="M 17.9004,2.5663 L 17.9004,2.5243 L 17.8864,2.4822 L 17.8724,2.4541 L 17.8165,2.3980 L 17.7886,2.3840 L 17.7467,2.3700 L 16.7545,2.3700 L 16.7126,2.3840 L 16.6847,2.3980 L 16.6288,2.4541 L 16.6148,2.4822 L 16.6008,2.5243 L 16.6008,2.6084 L 16.6148,2.6505 L 16.6288,2.6785 L 16.6847,2.7346 L 16.7126,2.7486 L 16.7545,2.7627 L 17.7467,2.7627 L 17.7886,2.7486 L 17.8165,2.7346 L 17.8724,2.6785 L 17.8864,2.6505 L 17.9004,2.6084 L 17.9004,2.5663 Z" stroke="#000000" stroke-width="0.1194" stroke-linecap="round" stroke-linejoin="round" fill="#000000"/>
        <path d="M 20.0803,2.5663 L 20.0803,2.5243 L 20.0663,2.4822 L 20.0523,2.4541 L 19.9964,2.3980 L 19.9685,2.3840 L 19.9266,2.3700 L 18.9344,2.3700 L 18.8925,2.3840 L 18.8646,2.3980 L 18.8087,2.4541 L 18.7947,2.4822 L 18.7807,2.5243 L 18.7807,2.6084 L 18.7947,2.6505 L 18.8087,2.6785 L 18.8646,2.7346 L 18.8925,2.7486 L 18.9344,2.7627 L 19.9266,2.7627 L 19.9685,2.7486 L 19.9964,2.7346 L 20.0523,2.6785 L 20.0663,2.6505 L 20.0803,2.6084 L 20.0803,2.5663 Z" stroke="#000000" stroke-width="0.1194" stroke-linecap="round" stroke-linejoin="round" fill="#000000"/>
        <path d="M 22.2602,2.5663 L 22.2602,2.5243 L 22.2462,2.4822 L 22.2322,2.4541 L 22.1763,2.3980 L 22.1484,2.3840 L 22.1065,2.3700 L 21.1143,2.3700 L 21.0724,2.3840 L 21.0445,2.3980 L 20.9886,2.4541 L 20.9746,2.4822 L 20.9606,2.5243 L 20.9606,2.6084 L 20.9746,2.6505 L 20.9886,2.6785 L 21.0445,2.7346 L 21.0724,2.7486 L 21.1143,2.7627 L 22.1065,2.7627 L 22.1484,2.7486 L 22.1763,2.7346 L 22.2322,2.6785 L 22.2462,2.6505 L 22.2602,2.6084 L 22.2602,2.5663 Z" stroke="#000000" stroke-width="0.1194" stroke-linecap="round" stroke-linejoin="round" fill="#000000"/>
        <path d="M 24.4401,2.5663 L 24.4401,2.5243 L 24.4261,2.4822 L 24.4121,2.4541 L 24.3563,2.3980 L 24.3283,2.3840 L 24.2864,2.3700 L 23.2942,2.3700 L 23.2523,2.3840 L 23.2244,2.3980 L 23.1685,2.4541 L 23.1545,2.4822 L 23.1405,2.5243 L 23.1405,2.6084 L 23.1545,2.6505 L 23.1685,2.6785 L 23.2244,2.7346 L 23.2523,2.7486 L 23.2942,2.7627 L 24.2864,2.7627 L 24.3283,2.7486 L 24.3563,2.7346 L 24.4121,2.6785 L 24.4261,2.6505 L 24.4401,2.6084 L 24.4401,2.5663 Z" stroke="#000000" stroke-width="0.1194" stroke-linecap="round" stroke-linejoin="round" fill="#000000"/>
        <path d="M 26.6060,2.5663 L 26.6060,2.5243 L 26.5921,2.4822 L 26.5781,2.4541 L 26.5222,2.3980 L 26.4942,2.3840 L 26.4523,2.3700 L 25.4602,2.3700 L 25.4183,2.3840 L 25.3903,2.3980 L 25.3344,2.4541 L 25.3204,2.4822 L 25.3065,2.5243 L 25.3065,2.6084 L 25.3204,2.6505 L 25.3344,2.6785 L 25.3903,2.7346 L 25.4183,2.7486 L 25.4602,2.7627 L 26.4523,2.7627 L 26.4942,2.7486 L 26.5222,2.7346 L 26.5781,2.6785 L 26.5921,2.6505 L 26.6060,2.6084 L 26.6060,2.5663 Z" stroke="#000000" stroke-width="0.1194" stroke-linecap="round" stroke-linejoin="round" fill="#000000"/>
        <path d="M 28.7859,2.5663 L 28.7859,2.5243 L 28.7720,2.4822 L 28.7580,2.4541 L 28.7021,2.3980 L 28.6741,2.3840 L 28.6322,2.3700 L 27.6401,2.3700 L 27.5982,2.3840 L 27.5702,2.3980 L 27.5143,2.4541 L 27.5003,2.4822 L 27.4864,2.5243 L 27.4864,2.6084 L 27.5003,2.6505 L 27.5143,2.6785 L 27.5702,2.7346 L 27.5982,2.7486 L 27.6401,2.7627 L 28.6322,2.7627 L 28.6741,2.7486 L 28.7021,2.7346 L 28.7580,2.6785 L 28.7720,2.6505 L 28.7859,2.6084 L 28.7859,2.5663 Z" stroke="#000000" stroke-width="0.1194" stroke-linecap="round" stroke-linejoin="round" fill="#000000"/>
        <path d="M 30.9658,2.5663 L 30.9658,2.5243 L 30.9519,2.4822 L 30.9379,2.4541 L 30.8820,2.3980 L 30.8540,2.3840 L 30.8121,2.3700 L 29.8200,2.3700 L 29.7781,2.3840 L 29.7501,2.3980 L 29.6942,2.4541 L 29.6803,2.4822 L 29.6663,2.5243 L 29.6663,2.6084 L 29.6803,2.6505 L 29.6942,2.6785 L 29.7501,2.7346 L 29.7781,2.7486 L 29.8200,2.7627 L 30.8121,2.7627 L 30.8540,2.7486 L 30.8820,2.7346 L 30.9379,2.6785 L 30.9519,2.6505 L 30.9658,2.6084 L 30.9658,2.5663 Z" stroke="#000000" stroke-width="0.1194" stroke-linecap="round" stroke-linejoin="round" fill="#000000"/>
        <path d="M 33.1457,2.5663 L 33.1457,2.5243 L 33.1318,2.4822 L 33.1178,2.4541 L 33.0619,2.3980 L 33.0340,2.3840 L 32.9920,2.3700 L 31.9999,2.3700 L 31.9580,2.3840 L 31.9300,2.3980 L 31.8741,2.4541 L 31.8602,2.4822 L 31.8462,2.5243 L 31.8462,2.6084 L 31.8602,2.6505 L 31.8741,2.6785 L 31.9300,2.7346 L 31.9580,2.7486 L 31.9999,2.7627 L 32.9920,2.7627 L 33.0340,2.7486 L 33.0619,2.7346 L 33.1178,2.6785 L 33.1318,2.6505 L 33.1457,2.6084 L 33.1457,2.5663 Z" stroke="#000000" stroke-width="0.1194" stroke-linecap="round" stroke-linejoin="round" fill="#000000"/>
        <path d="M 35.3117,2.5663 L 35.3117,2.5243 L 35.2977,2.4822 L 35.2837,2.4541 L 35.2278,2.3980 L 35.1999,2.3840 L 35.1580,2.3700 L 34.1658,2.3700 L 34.1239,2.3840 L 34.0960,2.3980 L 34.0401,2.4541 L 34.0261,2.4822 L 34.0121,2.5243 L 34.0121,2.6084 L 34.0261,2.6505 L 34.0401,2.6785 L 34.0960,2.7346 L 34.1239,2.7486 L 34.1658,2.7627 L 35.1580,2.7627 L 35.1999,2.7486 L 35.2278,2.7346 L 35.2837,2.6785 L 35.2977,2.6505 L 35.3117,2.6084 L 35.3117,2.5663 Z" stroke="#000000" stroke-width="0.1194" stroke-linecap="round" stroke-linejoin="round" fill="#000000"/>
        <path d="M 37.4916,2.5663 L 37.4916,2.5243 L 37.4776,2.4822 L 37.4636,2.4541 L 37.4077,2.3980 L 37.3798,2.3840 L 37.3379,2.3700 L 36.3457,2.3700 L 36.3038,2.3840 L 36.2759,2.3980 L 36.2200,2.4541 L 36.2060,2.4822 L 36.1920,2.5243 L 36.1920,2.6084 L 36.2060,2.6505 L 36.2200,2.6785 L 36.2759,2.7346 L 36.3038,2.7486 L 36.3457,2.7627 L 37.3379,2.7627 L 37.3798,2.7486 L 37.4077,2.7346 L 37.4636,2.6785 L 37.4776,2.6505 L 37.4916,2.6084 L 37.4916,2.5663 Z" stroke="#000000" stroke-width="0.1194" stroke-linecap="round" stroke-linejoin="round" fill="#000000"/>
        <path d="M 39.6715,2.5663 L 39.6715,2.5243 L 39.6575,2.4822 L 39.6435,2.4541 L 39.5876,2.3980 L 39.5597,2.3840 L 39.5178,2.3700 L 38.5256,2.3700 L 38.4837,2.3840 L 38.4558,2.3980 L 38.3999,2.4541 L 38.3859,2.4822 L 38.3719,2.5243 L 38.3719,2.6084 L 38.3859,2.6505 L 38.3999,2.6785 L 38.4558,2.7346 L 38.4837,2.7486 L 38.5256,2.7627 L 39.5178,2.7627 L 39.5597,2.7486 L 39.5876,2.7346 L 39.6435,2.6785 L 39.6575,2.6505 L 39.6715,2.6084 L 39.6715,2.5663 Z" stroke="#000000" stroke-width="0.1194" stroke-linecap="round" stroke-linejoin="round" fill="#000000"/>
        <path d="M 41.8514,2.5663 L 41.8514,2.5243 L 41.8374,2.4822 L 41.8234,2.4541 L 41.7675,2.3980 L 41.7396,2.3840 L 41.6977,2.3700 L 40.7055,2.3700 L 40.6636,2.3840 L 40.6357,2.3980 L 40.5798,2.4541 L 40.5658,2.4822 L 40.5518,2.5243 L 40.5518,2.6084 L 40.5658,2.6505 L 40.5798,2.6785 L 40.6357,2.7346 L 40.6636,2.7486 L 40.7055,2.7627 L 41.6977,2.7627 L 41.7396,2.7486 L 41.7675,2.7346 L 41.8234,2.6785 L 41.8374,2.6505 L 41.8514,2.6084 L 41.8514,2.5663 Z" stroke="#000000" stroke-width="0.1194" stroke-linecap="round" stroke-linejoin="round" fill="#000000"/>
        <path d="M 44.0173,2.5663 L 44.0173,2.5243 L 44.0033,2.4822 L 43.9894,2.4541 L 43.9335,2.3980 L 43.9055,2.3840 L 43.8636,2.3700 L 42.8715,2.3700 L 42.8296,2.3840 L 42.8016,2.3980 L 42.7457,2.4541 L 42.7317,2.4822 L 42.7178,2.5243 L 42.7178,2.6084 L 42.7317,2.6505 L 42.7457,2.6785 L 42.8016,2.7346 L 42.8296,2.7486 L 42.8715,2.7627 L 43.8636,2.7627 L 43.9055,2.7486 L 43.9335,2.7346 L 43.9894,2.6785 L 44.0033,2.6505 L 44.0173,2.6084 L 44.0173,2.5663 Z" stroke="#000000" stroke-width="0.1194" stroke-linecap="round" stroke-linejoin="round" fill="#000000"/>
        <path d="M 46.1972,2.5663 L 46.1972,2.5243 L 46.1833,2.4822 L 46.1693,2.4541 L 46.1134,2.3980 L 46.0854,2.3840 L 46.0435,2.3700 L 45.0514,2.3700 L 45.0095,2.3840 L 44.9815,2.3980 L 44.9256,2.4541 L 44.9116,2.4822 L 44.8977,2.5243 L 44.8977,2.6084 L 44.9116,2.6505 L 44.9256,2.6785 L 44.9815,2.7346 L 45.0095,2.7486 L 45.0514,2.7627 L 46.0435,2.7627 L 46.0854,2.7486 L 46.1134,2.7346 L 46.1693,2.6785 L 46.1833,2.6505 L 46.1972,2.6084 L 46.1972,2.5663 Z" stroke="#000000" stroke-width="0.1194" stroke-linecap="round" stroke-linejoin="round" fill="#000000"/>
        <path d="M 48.3911,2.5663 L 48.3911,2.5243 L 48.3771,2.4822 L 48.3632,2.4541 L 48.3073,2.3980 L 48.2793,2.3840 L 48.2374,2.3700 L 47.2453,2.3700 L 47.2033,2.3840 L 47.1754,2.3980 L 47.1195,2.4541 L 47.1055,2.4822 L 47.0915,2.5243 L 47.0915,2.6084 L 47.1055,2.6505 L 47.1195,2.6785 L 47.1754,2.7346 L 47.2033,2.7486 L 47.2453,2.7627 L 48.2374,2.7627 L 48.2793,2.7486 L 48.3073,2.7346 L 48.3632,2.6785 L 48.3771,2.6505 L 48.3911,2.6084 L 48.3911,2.5663 Z" stroke="#000000" stroke-width="0.1194" stroke-linecap="round" stroke-linejoin="round" fill="#000000"/>
        <ellipse cx="3.4782" cy="6.7607" rx="0.3478" ry="0.3499" fill="#494949" stroke="#000000" stroke-width="0.1194" stroke-linecap="round" stroke-linejoin="round"/>
        <ellipse cx="3.4782" cy="6.7607" rx="0.3478" ry="0.3499" fill="none" stroke="#000000" stroke-width="0.1194" stroke-linecap="round" stroke-linejoin="round"/>
        <ellipse cx="3.4731" cy="6.7659" rx="0.3120" ry="0.3139" fill="#000000" stroke="#000000" stroke-width="0.1194" stroke-linecap="round" stroke-linejoin="round"/>
        <ellipse cx="3.4731" cy="6.7659" rx="0.3120" ry="0.3139" fill="none" stroke="#000000" stroke-width="0.1194" stroke-linecap="round" stroke-linejoin="round"/>
        <text font-family="Arial" fill="#000000" style="white-space:pre;" font-weight="400" text-anchor="start" x="4.4500" y="8.2707" font-size="0.1228"><![CDATA[RESET]]></text>
        <path d="M 2.5863,0.5029 L 2.5863,1.2234 " stroke="#000000" stroke-width="0.1194" stroke-linecap="round" stroke-linejoin="round" fill="none"/>
        <path d="M 2.0691,1.3729 L 3.1036,1.3729 " stroke="#000000" stroke-width="0.1194" stroke-linecap="round" stroke-linejoin="round" fill="none"/>
        <path d="M 2.2368,1.5360 L 2.9498,1.5360 " stroke="#000000" stroke-width="0.1194" stroke-linecap="round" stroke-linejoin="round" fill="none"/>
        <path d="M 2.2368,1.5360 L 2.9498,1.5360 " stroke="#000000" stroke-width="0.1194" stroke-linecap="round" stroke-linejoin="round" fill="none"/>
        <path d="M 2.4186,1.7127 L 2.7541,1.7127 " stroke="#000000" stroke-width="0.1194" stroke-linecap="round" stroke-linejoin="round" fill="none"/>
        <text font-family="Arial" fill="#000000" style="white-space:pre;" font-weight="400" text-anchor="start" x="6.1513" y="3.2638" font-size="0.1678"><![CDATA[USB]]></text>
        <text font-family="Arial" fill="#000000" style="white-space:pre;" font-weight="400" text-anchor="start" x="5.3824" y="3.1415" font-size="0.1678"><![CDATA[USB]]></text>
        <text font-family="Arial" fill="#000000" style="white-space:pre;" font-weight="400" text-anchor="start" x="4.3758" y="3.2638" font-size="0.1678"><![CDATA[DC + 12V]]></text>
        <text font-family="Arial" fill="#000000" style="white-space:pre;" font-weight="400" text-anchor="start" x="5.3265" y="3.3318" font-size="0.1678"><![CDATA[MGMT]]></text>
        <path d="M 33.9521,4.3327 L 13.9106,4.3327 L 13.9106,8.1344 L 33.9521,8.1344 L 33.9521,4.3327 Z" stroke="#0A0A0A" stroke-width="0.1194" stroke-linecap="round" stroke-linejoin="round" fill="#BFBFBF"/>
        <path d="M 54.6278,4.3327 L 34.5863,4.3327 L 34.5863,8.1344 L 54.6278,8.1344 L 54.6278,4.3327 Z" stroke="#0A0A0A" stroke-width="0.1194" stroke-linecap="round" stroke-linejoin="round" fill="#BFBFBF"/>
        <text font-family="Arial" fill="#000000" style="white-space:pre;" font-weight="400" text-anchor="start" x="49.8077" y="6.8282" font-size="0.5074"><![CDATA[WAN2]]></text>
        <text font-family="Arial" fill="#000000" style="white-space:pre;" font-weight="400" text-anchor="start" x="52.7674" y="6.8282" font-size="0.5074"><![CDATA[WAN1]]></text>
        <text font-family="Arial" fill="#000000" style="white-space:pre;" font-weight="400" text-anchor="start" x="55.8539" y="6.8282" font-size="0.5074"><![CDATA[DMZ]]></text>
        <text font-family="Arial" fill="#000000" style="white-space:pre;" font-weight="400" text-anchor="start" x="59.2365" y="6.8282" font-size="0.5074"><![CDATA[5]]></text>
        <text font-family="Arial" fill="#000000" style="white-space:pre;" font-weight="400" text-anchor="start" x="62.1539" y="6.8282" font-size="0.5074"><![CDATA[4]]></text>
        <text font-family="Arial" fill="#000000" style="white-space:pre;" font-weight="400" text-anchor="start" x="66.0438" y="6.8282" font-size="0.5074"><![CDATA[3]]></text>
        <text font-family="Arial" fill="#000000" style="white-space:pre;" font-weight="400" text-anchor="start" x="77.7981" y="6.8282" font-size="0.5074"><![CDATA[A]]></text>
        <text font-family="Arial" fill="#000000" style="white-space:pre;" font-weight="400" text-anchor="start" x="69.0035" y="6.8282" font-size="0.5074"><![CDATA[2]]></text>
        <text font-family="Arial" fill="#000000" style="white-space:pre;" font-weight="400" text-anchor="start" x="71.9209" y="6.8282" font-size="0.5074"><![CDATA[1]]></text>
        <text font-family="Arial" fill="#000000" style="white-space:pre;" font-weight="400" text-anchor="start" x="74.8806" y="6.8282" font-size="0.5074"><![CDATA[B]]></text>
        <ellipse cx="9.1011" cy="1.7224" rx="0.9367" ry="0.9350" fill="#000000" stroke="#000000" stroke-width="0.1194" stroke-linecap="round" stroke-linejoin="round"/>
        <ellipse cx="9.1011" cy="1.7224" rx="0.9367" ry="0.9350" fill="none" stroke="#000000" stroke-width="0.1194" stroke-linecap="round" stroke-linejoin="round"/>
        <ellipse cx="9.1011" cy="1.7224" rx="0.7410" ry="0.7382" fill="#BCBC7E" stroke="#000000" stroke-width="0.1194" stroke-linecap="round" stroke-linejoin="round"/>
        <ellipse cx="9.1011" cy="1.7224" rx="0.7410" ry="0.7382" fill="none" stroke="#BCBC7E" stroke-width="0.1194" stroke-linecap="round" stroke-linejoin="round"/>
        <ellipse cx="9.1011" cy="1.7224" rx="0.0839" ry="0.0773" fill="#000000" stroke="#000000" stroke-width="0.1194" stroke-linecap="round" stroke-linejoin="round"/>
        <ellipse cx="9.1011" cy="1.7224" rx="0.0839" ry="0.0773" fill="none" stroke="#000000" stroke-width="0.1194" stroke-linecap="round" stroke-linejoin="round"/>
        <ellipse cx="52.3838" cy="1.7224" rx="0.9367" ry="0.9350" fill="#000000" stroke="#000000" stroke-width="0.1194" stroke-linecap="round" stroke-linejoin="round"/>
        <ellipse cx="52.3838" cy="1.7224" rx="0.9367" ry="0.9350" fill="none" stroke="#000000" stroke-width="0.1194" stroke-linecap="round" stroke-linejoin="round"/>
        <ellipse cx="52.3838" cy="1.7224" rx="0.7410" ry="0.7382" fill="#BCBC7E" stroke="#000000" stroke-width="0.1194" stroke-linecap="round" stroke-linejoin="round"/>
        <ellipse cx="52.3838" cy="1.7224" rx="0.7410" ry="0.7382" fill="none" stroke="#BCBC7E" stroke-width="0.1194" stroke-linecap="round" stroke-linejoin="round"/>
        <ellipse cx="52.3838" cy="1.7224" rx="0.0839" ry="0.0773" fill="#000000" stroke="#000000" stroke-width="0.1194" stroke-linecap="round" stroke-linejoin="round"/>
        <ellipse cx="52.3838" cy="1.7224" rx="0.0839" ry="0.0773" fill="none" stroke="#000000" stroke-width="0.1194" stroke-linecap="round" stroke-linejoin="round"/>
        <path d="M 50.6588,4.8986 L 50.6588,7.0218 L 51.5466,7.0218 L 51.5466,7.5214 L 51.9072,7.5214 L 51.9072,8.0210 L 52.9615,8.0210 L 52.9615,7.5214 L 53.3221,7.5214 L 53.3221,7.0218 L 54.2099,7.0218 L 54.2099,4.8986 L 50.6588,4.8986 Z" stroke="#161616" stroke-width="0.1194" stroke-linecap="round" stroke-linejoin="round" fill="#000000"/>
        <path d="M 46.8025,4.8986 L 46.8025,7.0218 L 47.6903,7.0218 L 47.6903,7.5214 L 48.0510,7.5214 L 48.0510,8.0210 L 49.1052,8.0210 L 49.1052,7.5214 L 49.4658,7.5214 L 49.4658,7.0218 L 50.3536,7.0218 L 50.3536,4.8986 L 46.8025,4.8986 Z" stroke="#161616" stroke-width="0.1194" stroke-linecap="round" stroke-linejoin="round" fill="#000000"/>
        <path d="M 42.8907,4.8986 L 42.8907,7.0218 L 43.7785,7.0218 L 43.7785,7.5214 L 44.1392,7.5214 L 44.1392,8.0210 L 45.1934,8.0210 L 45.1934,7.5214 L 45.5541,7.5214 L 45.5541,7.0218 L 46.4419,7.0218 L 46.4419,4.8986 L 42.8907,4.8986 Z" stroke="#161616" stroke-width="0.1194" stroke-linecap="round" stroke-linejoin="round" fill="#000000"/>
        <path d="M 39.0345,4.8986 L 39.0345,7.0218 L 39.9222,7.0218 L 39.9222,7.5214 L 40.2829,7.5214 L 40.2829,8.0210 L 41.3371,8.0210 L 41.3371,7.5214 L 41.6978,7.5214 L 41.6978,7.0218 L 42.5856,7.0218 L 42.5856,4.8986 L 39.0345,4.8986 Z" stroke="#161616" stroke-width="0.1194" stroke-linecap="round" stroke-linejoin="round" fill="#000000"/>
        <path d="M 35.1227,4.8986 L 35.1227,7.0218 L 36.0105,7.0218 L 36.0105,7.5214 L 36.3711,7.5214 L 36.3711,8.0210 L 37.4254,8.0210 L 37.4254,7.5214 L 37.7860,7.5214 L 37.7860,7.0218 L 38.6738,7.0218 L 38.6738,4.8986 L 35.1227,4.8986 Z" stroke="#161616" stroke-width="0.1194" stroke-linecap="round" stroke-linejoin="round" fill="#000000"/>
        <path d="M 29.9764,4.8986 L 29.9764,7.0218 L 30.8641,7.0218 L 30.8641,7.5214 L 31.2248,7.5214 L 31.2248,8.0210 L 32.2790,8.0210 L 32.2790,7.5214 L 32.6397,7.5214 L 32.6397,7.0218 L 33.5275,7.0218 L 33.5275,4.8986 L 29.9764,4.8986 Z" stroke="#161616" stroke-width="0.1194" stroke-linecap="round" stroke-linejoin="round" fill="#000000"/>
        <path d="M 26.1201,4.8986 L 26.1201,7.0218 L 27.0079,7.0218 L 27.0079,7.5214 L 27.3685,7.5214 L 27.3685,8.0210 L 28.4227,8.0210 L 28.4227,7.5214 L 28.7834,7.5214 L 28.7834,7.0218 L 29.6712,7.0218 L 29.6712,4.8986 L 26.1201,4.8986 Z" stroke="#161616" stroke-width="0.1194" stroke-linecap="round" stroke-linejoin="round" fill="#000000"/>
        <path d="M 22.1944,4.8986 L 22.1944,7.0218 L 23.0822,7.0218 L 23.0822,7.5214 L 23.4429,7.5214 L 23.4429,8.0210 L 24.4971,8.0210 L 24.4971,7.5214 L 24.8578,7.5214 L 24.8578,7.0218 L 25.7455,7.0218 L 25.7455,4.8986 L 22.1944,4.8986 Z" stroke="#161616" stroke-width="0.1194" stroke-linecap="round" stroke-linejoin="round" fill="#000000"/>
        <path d="M 18.3382,4.8986 L 18.3382,7.0218 L 19.2259,7.0218 L 19.2259,7.5214 L 19.5866,7.5214 L 19.5866,8.0210 L 20.6408,8.0210 L 20.6408,7.5214 L 21.0015,7.5214 L 21.0015,7.0218 L 21.8893,7.0218 L 21.8893,4.8986 L 18.3382,4.8986 Z" stroke="#161616" stroke-width="0.1194" stroke-linecap="round" stroke-linejoin="round" fill="#000000"/>
        <path d="M 14.4264,4.8986 L 14.4264,7.0218 L 15.3142,7.0218 L 15.3142,7.5214 L 15.6748,7.5214 L 15.6748,8.0210 L 16.7291,8.0210 L 16.7291,7.5214 L 17.0897,7.5214 L 17.0897,7.0218 L 17.9775,7.0218 L 17.9775,4.8986 L 14.4264,4.8986 Z" stroke="#161616" stroke-width="0.1194" stroke-linecap="round" stroke-linejoin="round" fill="#000000"/>
        <path d="M 11.3519,7.9724 L 11.3519,8.0146 L 11.3659,8.0146 L 11.3659,8.0427 L 11.3799,8.0568 L 11.3799,8.0708 L 11.3939,8.0708 L 11.3939,8.0849 L 11.4078,8.0849 L 11.4078,8.0990 L 11.4218,8.0990 L 11.4358,8.1130 L 11.4638,8.1130 L 11.4638,8.1271 L 12.8338,8.1271 L 12.8338,8.1130 L 12.8618,8.1130 L 12.8758,8.0990 L 12.8897,8.0990 L 12.8897,8.0849 L 12.9037,8.0849 L 12.9037,8.0708 L 12.9177,8.0708 L 12.9177,8.0568 L 12.9317,8.0427 L 12.9317,8.0146 L 12.9457,8.0146 L 12.9457,4.4994 L 12.9317,4.4994 L 12.9317,4.4713 L 12.9177,4.4572 L 12.9177,4.4432 L 12.9037,4.4432 L 12.9037,4.4291 L 12.8897,4.4291 L 12.8897,4.4151 L 12.8758,4.4151 L 12.8618,4.4010 L 12.8338,4.4010 L 12.8338,4.3869 L 11.4638,4.3869 L 11.4638,4.4010 L 11.4358,4.4010 L 11.4218,4.4151 L 11.4078,4.4151 L 11.4078,4.4291 L 11.3939,4.4291 L 11.3939,4.4432 L 11.3799,4.4432 L 11.3799,4.4572 L 11.3659,4.4713 L 11.3659,4.4994 L 11.3519,4.4994 L 11.3519,7.9584 L 11.3519,7.9724 Z" stroke="#000000" stroke-width="0.1194" stroke-linecap="round" stroke-linejoin="round" fill="#BFBFBF"/>
        <path d="M 11.4777,7.9162 L 11.4777,7.9584 L 11.4917,7.9584 L 11.4917,7.9724 L 11.5057,7.9865 L 11.5197,7.9865 L 11.5197,8.0005 L 12.7779,8.0005 L 12.7919,7.9865 L 12.8059,7.9865 L 12.8059,7.9724 L 12.8198,7.9724 L 12.8198,7.9584 L 12.8338,7.9443 L 12.8338,4.5557 L 12.8198,4.5557 L 12.8198,4.5416 L 12.8059,4.5416 L 12.8059,4.5275 L 12.7919,4.5275 L 12.7779,4.5135 L 11.5197,4.5135 L 11.5197,4.5275 L 11.5057,4.5275 L 11.4917,4.5416 L 11.4917,4.5557 L 11.4777,4.5557 L 11.4777,7.9021 L 11.4777,7.9162 Z" stroke="#F7DDB9" stroke-width="0.1194" stroke-linecap="round" stroke-linejoin="round" fill="#000000"/>
        <path d="M 12.1767,7.1710 L 12.1767,7.4803 L 12.1068,7.4803 L 12.1068,7.1710 L 12.1767,7.1710 Z" stroke="#000000" stroke-width="0.1194" stroke-linecap="round" stroke-linejoin="round" fill="#E2E2CC"/>
        <path d="M 12.1767,6.4679 L 12.1767,6.7773 L 12.1068,6.7773 L 12.1068,6.4679 L 12.1767,6.4679 Z" stroke="#000000" stroke-width="0.1194" stroke-linecap="round" stroke-linejoin="round" fill="#E2E2CC"/>
        <path d="M 12.1767,5.7790 L 12.1767,6.0883 L 12.1068,6.0883 L 12.1068,5.7790 L 12.1767,5.7790 Z" stroke="#000000" stroke-width="0.1194" stroke-linecap="round" stroke-linejoin="round" fill="#E2E2CC"/>
        <path d="M 12.1767,5.0619 L 12.1767,5.3712 L 12.1068,5.3712 L 12.1068,5.0619 L 12.1767,5.0619 Z" stroke="#000000" stroke-width="0.1194" stroke-linecap="round" stroke-linejoin="round" fill="#E2E2CC"/>
        <path d="M 11.7434,4.7244 L 11.7154,4.7244 L 11.6874,4.7385 L 11.6735,4.7666 L 11.6735,7.7475 L 11.6874,7.7756 L 11.7154,7.7896 L 12.0649,7.7896 L 12.0929,7.7756 L 12.1068,7.7475 L 12.1068,4.7666 L 12.0929,4.7385 L 12.0649,4.7244 L 12.0369,4.7244 L 11.7434,4.7244 Z" stroke="#000000" stroke-width="0.1194" stroke-linecap="round" stroke-linejoin="round" fill="#7F7F7F"/>
        <path d="M 11.8832,4.8369 L 11.8272,4.8509 L 11.7713,4.9072 L 11.7573,4.9634 L 11.7573,7.5506 L 11.7713,7.6068 L 11.8272,7.6631 L 11.8832,7.6771 L 11.9391,7.6631 L 11.9950,7.6068 L 12.0090,7.5506 L 12.0090,4.9634 L 11.9950,4.9072 L 11.9391,4.8509 L 11.8832,4.8369 Z" stroke="#999999" stroke-width="0.1194" stroke-linecap="round" stroke-linejoin="round" fill="#999999"/>
        <path d="M 8.0558,7.1253 L 8.0558,7.0672 L 8.0747,7.0672 L 8.0747,7.0285 L 8.0937,7.0092 L 8.0937,6.9898 L 8.1126,6.9898 L 8.1126,6.9704 L 8.1316,6.9704 L 8.1316,6.9511 L 8.1505,6.9511 L 8.1695,6.9317 L 8.1884,6.9317 L 8.2074,6.9123 L 10.1029,6.9123 L 10.1218,6.9317 L 10.1408,6.9317 L 10.1597,6.9511 L 10.1787,6.9511 L 10.1787,6.9704 L 10.1976,6.9704 L 10.1976,6.9898 L 10.2166,6.9898 L 10.2166,7.0092 L 10.2355,7.0285 L 10.2355,7.0672 L 10.2545,7.0672 L 10.2545,7.4738 L 10.1029,7.6287 L 10.1029,7.9385 L 10.0839,7.9579 L 10.0839,7.9773 L 10.0650,7.9773 L 10.0650,7.9966 L 10.0460,7.9966 L 10.0460,8.0160 L 10.0270,8.0160 L 10.0270,8.0354 L 9.9891,8.0354 L 9.9891,8.0547 L 8.3211,8.0547 L 8.3211,8.0354 L 8.2832,8.0354 L 8.2832,8.0160 L 8.2643,8.0160 L 8.2643,7.9966 L 8.2453,7.9966 L 8.2453,7.9773 L 8.2263,7.9773 L 8.2263,7.9579 L 8.2074,7.9385 L 8.2074,7.6287 L 8.0558,7.4738 L 8.0558,7.1447 L 8.0558,7.1253 Z" stroke="#7F7F7F" stroke-width="0.1194" stroke-linecap="round" stroke-linejoin="round" fill="#BFBFBF"/>
        <path d="M 10.1787,7.4545 L 10.0270,7.6094 L 10.0270,7.8998 L 10.0081,7.9192 L 10.0081,7.9385 L 9.9891,7.9385 L 9.9702,7.9579 L 9.9512,7.9579 L 9.9323,7.9773 L 8.3780,7.9773 L 8.3780,7.9579 L 8.3401,7.9579 L 8.3211,7.9385 L 8.3022,7.9385 L 8.3022,7.9192 L 8.2832,7.8998 L 8.2832,7.6094 L 8.1316,7.4545 L 8.1316,7.1253 L 8.1505,7.1253 L 8.1505,7.0866 L 8.1695,7.0866 L 8.1695,7.0479 L 8.1884,7.0479 L 8.1884,7.0285 L 8.2263,7.0285 L 8.2263,7.0092 L 8.2453,7.0092 L 8.2643,6.9898 L 10.0460,6.9898 L 10.0650,7.0092 L 10.0839,7.0092 L 10.0839,7.0285 L 10.1218,7.0285 L 10.1218,7.0479 L 10.1408,7.0479 L 10.1408,7.0866 L 10.1597,7.0866 L 10.1597,7.1253 L 10.1787,7.1253 L 10.1787,7.4351 L 10.1787,7.4545 Z" stroke="#000000" stroke-width="0.1194" stroke-linecap="round" stroke-linejoin="round" fill="#161616"/>
        <path d="M 9.8944,7.5319 L 9.8944,7.4932 L 9.8754,7.4545 L 9.8375,7.4351 L 8.4917,7.4351 L 8.4538,7.4545 L 8.4348,7.4932 L 8.4348,7.8030 L 8.4538,7.8417 L 8.4917,7.8611 L 9.8375,7.8611 L 9.8754,7.8417 L 9.8944,7.8030 L 9.8944,7.7643 L 9.8944,7.5319 Z" stroke="#000000" stroke-width="0.1194" stroke-linecap="round" stroke-linejoin="round" fill="#CCCCCC"/>
        <path d="M 8.7760,7.3770 L 8.5865,7.3770 L 8.5865,7.4351 L 8.7760,7.4351 L 8.7760,7.3770 Z" stroke="#000000" stroke-width="0.1194" stroke-linecap="round" stroke-linejoin="round" fill="#D6D6B1"/>
        <path d="M 9.0793,7.3770 L 8.8898,7.3770 L 8.8898,7.4351 L 9.0793,7.4351 L 9.0793,7.3770 Z" stroke="#000000" stroke-width="0.1194" stroke-linecap="round" stroke-linejoin="round" fill="#D6D6B1"/>
        <path d="M 9.4015,7.3770 L 9.2120,7.3770 L 9.2120,7.4351 L 9.4015,7.4351 L 9.4015,7.3770 Z" stroke="#000000" stroke-width="0.1194" stroke-linecap="round" stroke-linejoin="round" fill="#D6D6B1"/>
        <path d="M 9.7048,7.3770 L 9.5153,7.3770 L 9.5153,7.4351 L 9.7048,7.4351 L 9.7048,7.3770 Z" stroke="#000000" stroke-width="0.1194" stroke-linecap="round" stroke-linejoin="round" fill="#D6D6B1"/>
        <path d="M 6.8503,3.3149 L 6.8503,8.0703 L 4.9206,8.0703 L 4.9206,3.3149 L 5.2928,3.3149 L 5.2928,3.6925 L 6.4781,3.6925 L 6.4781,3.3149 L 6.8503,3.3149 Z" stroke="#000000" stroke-width="0.1194" stroke-linecap="round" stroke-linejoin="round" fill="#000000"/>
        <path d="M 6.7952,3.8324 L 4.9758,3.8324 L 4.9758,8.0004 L 6.7952,8.0004 L 6.7952,3.8324 Z" stroke="#000000" stroke-width="0.1194" stroke-linecap="round" stroke-linejoin="round" fill="#666666"/>
        <path d="M 6.6022,6.0842 L 5.1687,6.0842 L 5.1687,7.5388 L 6.6022,7.5388 L 6.6022,6.0842 Z" stroke="#000000" stroke-width="0.1194" stroke-linecap="round" stroke-linejoin="round" fill="#000000"/>
        <ellipse cx="5.8234" cy="6.7556" rx="0.1172" ry="0.1259" fill="#BFBFBF" stroke="#000000" stroke-width="0.1194" stroke-linecap="round" stroke-linejoin="round"/>
        <ellipse cx="5.8234" cy="6.7556" rx="0.1172" ry="0.1259" fill="none" stroke="#000000" stroke-width="0.1194" stroke-linecap="round" stroke-linejoin="round"/>
        <path d="M 6.6022,4.3219 L 5.1687,4.3219 L 5.1687,5.4129 L 5.5271,5.7765 L 6.2714,5.7765 L 6.6022,5.4408 L 6.6022,4.3219 Z" stroke="#000000" stroke-width="0.1194" stroke-linecap="round" stroke-linejoin="round" fill="#000000"/>
        <ellipse cx="5.8234" cy="4.9933" rx="0.1172" ry="0.1259" fill="#BFBFBF" stroke="#000000" stroke-width="0.1194" stroke-linecap="round" stroke-linejoin="round"/>
        <ellipse cx="5.8234" cy="4.9933" rx="0.1172" ry="0.1259" fill="none" stroke="#000000" stroke-width="0.1194" stroke-linecap="round" stroke-linejoin="round"/>
        <ellipse cx="4.4730" cy="1.5093" rx="0.8331" ry="0.8385" fill="#666666" stroke="#000000" stroke-width="0.1194" stroke-linecap="round" stroke-linejoin="round"/>
        <ellipse cx="4.4730" cy="1.5093" rx="0.8331" ry="0.8385" fill="none" stroke="#000000" stroke-width="0.1194" stroke-linecap="round" stroke-linejoin="round"/>
        <ellipse cx="4.4730" cy="1.5222" rx="0.7562" ry="0.7740" fill="#CCCC9B" stroke="#000000" stroke-width="0.1194" stroke-linecap="round" stroke-linejoin="round"/>
        <ellipse cx="4.4730" cy="1.5222" rx="0.7562" ry="0.7740" fill="none" stroke="#CCCC9B" stroke-width="0.1194" stroke-linecap="round" stroke-linejoin="round"/>
        <path d="M 3.8963,1.4448 L 3.8706,1.4448 L 3.8450,1.4706 L 3.8450,1.4964 L 3.8194,1.4964 L 3.8194,1.6512 L 3.8450,1.6512 L 3.8450,1.6770 L 3.8706,1.7028 L 4.4089,1.7028 L 4.4089,2.2705 L 4.4346,2.2705 L 4.4346,2.2963 L 4.4602,2.2963 L 4.4602,2.3221 L 4.6140,2.3221 L 4.6140,2.2963 L 4.6396,2.2963 L 4.6396,2.2705 L 4.6653,2.2705 L 4.6653,1.7028 L 5.2292,1.7028 L 5.2292,1.6770 L 5.2548,1.6770 L 5.2548,1.6512 L 5.2805,1.6512 L 5.2805,1.4964 L 5.2548,1.4964 L 5.2548,1.4706 L 5.2292,1.4706 L 5.2292,1.4448 L 4.6653,1.4448 L 4.6653,0.9030 L 4.6396,0.8772 L 4.6140,0.8772 L 4.6140,0.8514 L 4.4602,0.8514 L 4.4602,0.8772 L 4.4346,0.8772 L 4.4089,0.9030 L 4.4089,1.4448 L 3.9219,1.4448 L 3.8963,1.4448 Z" stroke="#161616" stroke-width="0.1194" stroke-linecap="round" stroke-linejoin="round" fill="#494949"/>
        <path d="M 3.7937,1.5222 L 3.7937,1.6512 L 3.8194,1.6770 L 3.8450,1.6770 L 3.8450,1.7028 L 4.4089,1.7028 L 4.4089,2.2963 L 4.4346,2.3221 L 4.4602,2.3221 L 4.4602,2.3479 L 4.5371,2.3479 L 4.5627,2.3479 " stroke="#BFBFBF" stroke-width="0.1194" stroke-linecap="round" stroke-linejoin="round" fill="none"/>
        <path d="M 4.4089,0.9030 L 4.4089,1.4190 L 4.4089,1.4448 " stroke="#BFBFBF" stroke-width="0.1194" stroke-linecap="round" stroke-linejoin="round" fill="none"/>
        <path d="M 9.3667,1.5223 L 9.0032,1.5223 L 9.0032,1.8898 L 9.3667,1.8898 L 9.3667,1.5223 " stroke="none" stroke-width="0.0" fill="none"/>
        <path d="M 52.6494,1.5223 L 52.2859,1.5223 L 52.2859,1.8898 L 52.6494,1.8898 L 52.6494,1.5223 " stroke="none" stroke-width="0.0" fill="none"/>
      </g>
      <!--emf-blob end-->
    </g>
  </g>
</svg>
