<svg xmlns="http://www.w3.org/2000/svg" xmlns:xlink="http://www.w3.org/1999/xlink" version="1.1" width="3.4832000000" height="2.5984000000" viewBox="0 0 62.6967 46.7697">
  <title><![CDATA[FG/FWF-92D ]]></title>
  <g transform=" scale(4.000000) ">
    <!--converted by libvisio2svg-->
    <g transform=" translate(0.720000,0.720000) ">
      <!--emf-blob start-->
      <g transform="translate(-0.0000, -0.0000)">
        <path d="M 60.9679,0.3090 L 60.9679,0.2528 L 60.9399,0.1966 L 60.9259,0.1545 L 60.8419,0.0702 L 60.7999,0.0562 L 60.7439,0.0281 L 0.2520,0.0281 L 0.1960,0.0562 L 0.1540,0.0702 L 0.0700,0.1545 L 0.0560,0.1966 L 0.0280,0.2528 L 0.0280,12.1632 L 0.0560,12.2194 L 0.0700,12.2615 L 0.1540,12.3458 L 0.1960,12.3598 L 0.2520,12.3879 L 60.7439,12.3879 L 60.7999,12.3598 L 60.8419,12.3458 L 60.9259,12.2615 L 60.9399,12.2194 L 60.9679,12.1632 L 60.9679,12.1070 L 60.9679,0.3090 Z" stroke="#000000" stroke-width="0.1197" stroke-linecap="round" stroke-linejoin="round" fill="#EDEDED"/>
        <path d="M 60.7439,0.5899 L 60.7439,0.5056 L 60.7299,0.4916 L 60.7299,0.4494 L 60.7159,0.4354 L 60.7159,0.4214 L 60.7019,0.4073 L 60.7019,0.3933 L 60.6879,0.3792 L 60.6879,0.3652 L 60.6459,0.3230 L 60.6319,0.3230 L 60.6319,0.3090 L 60.6179,0.3090 L 60.6039,0.2950 L 60.5899,0.2950 L 60.5759,0.2809 L 60.5339,0.2809 L 60.5199,0.2669 L 0.4761,0.2669 L 0.4621,0.2809 L 0.4201,0.2809 L 0.4061,0.2950 L 0.3921,0.2950 L 0.3781,0.3090 L 0.3641,0.3090 L 0.3641,0.3230 L 0.3501,0.3230 L 0.3361,0.3371 L 0.3361,0.3511 L 0.3221,0.3511 L 0.3081,0.3652 L 0.3081,0.3792 L 0.2941,0.3933 L 0.2941,0.4073 L 0.2801,0.4214 L 0.2801,0.4354 L 0.2661,0.4494 L 0.2661,0.4916 L 0.2520,0.5056 L 0.2520,11.8963 L 0.2661,11.9244 L 0.2661,11.9666 L 0.2801,11.9806 L 0.2801,11.9947 L 0.2941,12.0087 L 0.2941,12.0227 L 0.3081,12.0368 L 0.3081,12.0508 L 0.3221,12.0508 L 0.3361,12.0649 L 0.3361,12.0789 L 0.3501,12.0789 L 0.3641,12.0930 L 0.3641,12.1070 L 0.3781,12.1070 L 0.3921,12.1211 L 0.4061,12.1211 L 0.4201,12.1351 L 0.4621,12.1351 L 0.4761,12.1491 L 60.5199,12.1491 L 60.5339,12.1351 L 60.5759,12.1351 L 60.5899,12.1211 L 60.6039,12.1211 L 60.6179,12.1070 L 60.6319,12.1070 L 60.6319,12.0930 L 60.6459,12.0789 L 60.6599,12.0789 L 60.6739,12.0649 L 60.6739,12.0508 L 60.6879,12.0508 L 60.6879,12.0368 L 60.7019,12.0227 L 60.7019,12.0087 L 60.7159,11.9947 L 60.7159,11.9806 L 60.7299,11.9666 L 60.7299,11.9244 L 60.7439,11.8963 L 60.7439,0.6180 L 60.7439,0.5899 " stroke="#000000" stroke-width="0.1197" stroke-linecap="round" stroke-linejoin="round" fill="none"/>
        <path d="M 56.5851,2.3596 L 23.4126,2.3596 L 23.4126,10.0564 L 56.5851,10.0564 L 56.5851,2.3596 Z" stroke="#000000" stroke-width="0.1197" stroke-linecap="round" stroke-linejoin="round" fill="#000000"/>
        <path d="M 56.4451,2.4720 L 23.5526,2.4720 L 23.5526,9.9440 L 56.4451,9.9440 L 56.4451,2.4720 Z" stroke="#000000" stroke-width="0.1197" stroke-linecap="round" stroke-linejoin="round" fill="#DDDDDD"/>
        <path d="M 60.7439,1.6293 L 60.3518,1.6293 L 60.3518,7.7530 L 60.7439,7.7530 L 60.7439,1.6293 " stroke="#000000" stroke-width="0.1197" stroke-linecap="round" stroke-linejoin="round" fill="none"/>
        <path d="M 0.6441,1.6293 L 0.2520,1.6293 L 0.2520,7.7530 L 0.6441,7.7530 L 0.6441,1.6293 " stroke="#000000" stroke-width="0.1197" stroke-linecap="round" stroke-linejoin="round" fill="none"/>
        <path d="M 22.0683,3.0619 L 22.0683,3.0057 L 22.0403,2.9495 L 22.0263,2.9074 L 21.9423,2.8231 L 21.9003,2.8091 L 21.8443,2.7810 L 21.7183,2.7810 L 21.6622,2.8091 L 21.6202,2.8231 L 21.5362,2.9074 L 21.5222,2.9495 L 21.4942,3.0057 L 21.4942,4.0029 L 21.5222,4.0591 L 21.5362,4.1012 L 21.6202,4.1855 L 21.6622,4.1995 L 21.7183,4.2276 L 21.8443,4.2276 L 21.9003,4.1995 L 21.9423,4.1855 L 22.0263,4.1012 L 22.0403,4.0591 L 22.0683,4.0029 L 22.0683,3.9467 L 22.0683,3.0619 Z" stroke="#000000" stroke-width="0.1197" stroke-linecap="round" stroke-linejoin="round" fill="#333333"/>
        <path d="M 22.0683,4.8597 L 22.0683,4.8035 L 22.0403,4.7473 L 22.0263,4.7052 L 21.9423,4.6209 L 21.9003,4.6068 L 21.8443,4.5788 L 21.7183,4.5788 L 21.6622,4.6068 L 21.6202,4.6209 L 21.5362,4.7052 L 21.5222,4.7473 L 21.4942,4.8035 L 21.4942,5.8007 L 21.5222,5.8569 L 21.5362,5.8990 L 21.6202,5.9833 L 21.6622,5.9973 L 21.7183,6.0254 L 21.8443,6.0254 L 21.9003,5.9973 L 21.9423,5.9833 L 22.0263,5.8990 L 22.0403,5.8569 L 22.0683,5.8007 L 22.0683,5.7445 L 22.0683,4.8597 Z" stroke="#000000" stroke-width="0.1197" stroke-linecap="round" stroke-linejoin="round" fill="#333333"/>
        <path d="M 22.0683,6.6575 L 22.0683,6.6013 L 22.0403,6.5451 L 22.0263,6.5030 L 21.9423,6.4187 L 21.9003,6.4046 L 21.8443,6.3765 L 21.7183,6.3765 L 21.6622,6.4046 L 21.6202,6.4187 L 21.5362,6.5030 L 21.5222,6.5451 L 21.4942,6.6013 L 21.4942,7.5985 L 21.5222,7.6547 L 21.5362,7.6968 L 21.6202,7.7811 L 21.6622,7.7951 L 21.7183,7.8232 L 21.8443,7.8232 L 21.9003,7.7951 L 21.9423,7.7811 L 22.0263,7.6968 L 22.0403,7.6547 L 22.0683,7.5985 L 22.0683,7.5423 L 22.0683,6.6575 Z" stroke="#000000" stroke-width="0.1197" stroke-linecap="round" stroke-linejoin="round" fill="#333333"/>
        <path d="M 22.0683,8.4552 L 22.0683,8.3991 L 22.0403,8.3429 L 22.0263,8.3007 L 21.9423,8.2165 L 21.9003,8.2024 L 21.8443,8.1743 L 21.7183,8.1743 L 21.6622,8.2024 L 21.6202,8.2165 L 21.5362,8.3007 L 21.5222,8.3429 L 21.4942,8.3991 L 21.4942,9.3963 L 21.5222,9.4525 L 21.5362,9.4946 L 21.6202,9.5789 L 21.6622,9.5929 L 21.7183,9.6210 L 21.8443,9.6210 L 21.9003,9.5929 L 21.9423,9.5789 L 22.0263,9.4946 L 22.0403,9.4525 L 22.0683,9.3963 L 22.0683,9.3401 L 22.0683,8.4552 Z" stroke="#000000" stroke-width="0.1197" stroke-linecap="round" stroke-linejoin="round" fill="#333333"/>
        <path d="M 21.0461,1.2781 L 21.0461,1.2219 L 21.0181,1.1658 L 21.0041,1.1236 L 20.9201,1.0393 L 20.8781,1.0253 L 20.8221,0.9972 L 20.6961,0.9972 L 20.6400,1.0253 L 20.5980,1.0393 L 20.5140,1.1236 L 20.5000,1.1658 L 20.4720,1.2219 L 20.4720,2.2192 L 20.5000,2.2753 L 20.5140,2.3175 L 20.5980,2.4017 L 20.6400,2.4158 L 20.6961,2.4439 L 20.8221,2.4439 L 20.8781,2.4158 L 20.9201,2.4017 L 21.0041,2.3175 L 21.0181,2.2753 L 21.0461,2.2192 L 21.0461,2.1630 L 21.0461,1.2781 Z" stroke="#000000" stroke-width="0.1197" stroke-linecap="round" stroke-linejoin="round" fill="#333333"/>
        <path d="M 21.0461,3.0619 L 21.0461,3.0057 L 21.0181,2.9495 L 21.0041,2.9074 L 20.9201,2.8231 L 20.8781,2.8091 L 20.8221,2.7810 L 20.6961,2.7810 L 20.6400,2.8091 L 20.5980,2.8231 L 20.5140,2.9074 L 20.5000,2.9495 L 20.4720,3.0057 L 20.4720,4.0029 L 20.5000,4.0591 L 20.5140,4.1012 L 20.5980,4.1855 L 20.6400,4.1995 L 20.6961,4.2276 L 20.8221,4.2276 L 20.8781,4.1995 L 20.9201,4.1855 L 21.0041,4.1012 L 21.0181,4.0591 L 21.0461,4.0029 L 21.0461,3.9467 L 21.0461,3.0619 Z" stroke="#000000" stroke-width="0.1197" stroke-linecap="round" stroke-linejoin="round" fill="#333333"/>
        <path d="M 21.0461,4.8597 L 21.0461,4.8035 L 21.0181,4.7473 L 21.0041,4.7052 L 20.9201,4.6209 L 20.8781,4.6068 L 20.8221,4.5788 L 20.6961,4.5788 L 20.6400,4.6068 L 20.5980,4.6209 L 20.5140,4.7052 L 20.5000,4.7473 L 20.4720,4.8035 L 20.4720,5.8007 L 20.5000,5.8569 L 20.5140,5.8990 L 20.5980,5.9833 L 20.6400,5.9973 L 20.6961,6.0254 L 20.8221,6.0254 L 20.8781,5.9973 L 20.9201,5.9833 L 21.0041,5.8990 L 21.0181,5.8569 L 21.0461,5.8007 L 21.0461,5.7445 L 21.0461,4.8597 Z" stroke="#000000" stroke-width="0.1197" stroke-linecap="round" stroke-linejoin="round" fill="#333333"/>
        <path d="M 21.0461,6.6575 L 21.0461,6.6013 L 21.0181,6.5451 L 21.0041,6.5030 L 20.9201,6.4187 L 20.8781,6.4046 L 20.8221,6.3765 L 20.6961,6.3765 L 20.6400,6.4046 L 20.5980,6.4187 L 20.5140,6.5030 L 20.5000,6.5451 L 20.4720,6.6013 L 20.4720,7.5985 L 20.5000,7.6547 L 20.5140,7.6968 L 20.5980,7.7811 L 20.6400,7.7951 L 20.6961,7.8232 L 20.8221,7.8232 L 20.8781,7.7951 L 20.9201,7.7811 L 21.0041,7.6968 L 21.0181,7.6547 L 21.0461,7.5985 L 21.0461,7.5423 L 21.0461,6.6575 Z" stroke="#000000" stroke-width="0.1197" stroke-linecap="round" stroke-linejoin="round" fill="#333333"/>
        <path d="M 21.0461,8.4552 L 21.0461,8.3991 L 21.0181,8.3429 L 21.0041,8.3007 L 20.9201,8.2165 L 20.8781,8.2024 L 20.8221,8.1743 L 20.6961,8.1743 L 20.6400,8.2024 L 20.5980,8.2165 L 20.5140,8.3007 L 20.5000,8.3429 L 20.4720,8.3991 L 20.4720,9.3963 L 20.5000,9.4525 L 20.5140,9.4946 L 20.5980,9.5789 L 20.6400,9.5929 L 20.6961,9.6210 L 20.8221,9.6210 L 20.8781,9.5929 L 20.9201,9.5789 L 21.0041,9.4946 L 21.0181,9.4525 L 21.0461,9.3963 L 21.0461,9.3401 L 21.0461,8.4552 Z" stroke="#000000" stroke-width="0.1197" stroke-linecap="round" stroke-linejoin="round" fill="#333333"/>
        <path d="M 21.0461,10.2671 L 21.0461,10.2109 L 21.0181,10.1547 L 21.0041,10.1126 L 20.9201,10.0283 L 20.8781,10.0143 L 20.8221,9.9862 L 20.6961,9.9862 L 20.6400,10.0143 L 20.5980,10.0283 L 20.5140,10.1126 L 20.5000,10.1547 L 20.4720,10.2109 L 20.4720,11.2081 L 20.5000,11.2643 L 20.5140,11.3064 L 20.5980,11.3907 L 20.6400,11.4048 L 20.6961,11.4328 L 20.8221,11.4328 L 20.8781,11.4048 L 20.9201,11.3907 L 21.0041,11.3064 L 21.0181,11.2643 L 21.0461,11.2081 L 21.0461,11.1519 L 21.0461,10.2671 Z" stroke="#000000" stroke-width="0.1197" stroke-linecap="round" stroke-linejoin="round" fill="#333333"/>
        <path d="M 20.0379,1.2781 L 20.0379,1.2219 L 20.0099,1.1658 L 19.9959,1.1236 L 19.9119,1.0393 L 19.8699,1.0253 L 19.8139,0.9972 L 19.6879,0.9972 L 19.6318,1.0253 L 19.5898,1.0393 L 19.5058,1.1236 L 19.4918,1.1658 L 19.4638,1.2219 L 19.4638,2.2192 L 19.4918,2.2753 L 19.5058,2.3175 L 19.5898,2.4017 L 19.6318,2.4158 L 19.6879,2.4439 L 19.8139,2.4439 L 19.8699,2.4158 L 19.9119,2.4017 L 19.9959,2.3175 L 20.0099,2.2753 L 20.0379,2.2192 L 20.0379,2.1630 L 20.0379,1.2781 Z" stroke="#000000" stroke-width="0.1197" stroke-linecap="round" stroke-linejoin="round" fill="#333333"/>
        <path d="M 20.0379,3.0619 L 20.0379,3.0057 L 20.0099,2.9495 L 19.9959,2.9074 L 19.9119,2.8231 L 19.8699,2.8091 L 19.8139,2.7810 L 19.6879,2.7810 L 19.6318,2.8091 L 19.5898,2.8231 L 19.5058,2.9074 L 19.4918,2.9495 L 19.4638,3.0057 L 19.4638,4.0029 L 19.4918,4.0591 L 19.5058,4.1012 L 19.5898,4.1855 L 19.6318,4.1995 L 19.6879,4.2276 L 19.8139,4.2276 L 19.8699,4.1995 L 19.9119,4.1855 L 19.9959,4.1012 L 20.0099,4.0591 L 20.0379,4.0029 L 20.0379,3.9467 L 20.0379,3.0619 Z" stroke="#000000" stroke-width="0.1197" stroke-linecap="round" stroke-linejoin="round" fill="#333333"/>
        <path d="M 20.0379,4.8597 L 20.0379,4.8035 L 20.0099,4.7473 L 19.9959,4.7052 L 19.9119,4.6209 L 19.8699,4.6068 L 19.8139,4.5788 L 19.6879,4.5788 L 19.6318,4.6068 L 19.5898,4.6209 L 19.5058,4.7052 L 19.4918,4.7473 L 19.4638,4.8035 L 19.4638,5.8007 L 19.4918,5.8569 L 19.5058,5.8990 L 19.5898,5.9833 L 19.6318,5.9973 L 19.6879,6.0254 L 19.8139,6.0254 L 19.8699,5.9973 L 19.9119,5.9833 L 19.9959,5.8990 L 20.0099,5.8569 L 20.0379,5.8007 L 20.0379,5.7445 L 20.0379,4.8597 Z" stroke="#000000" stroke-width="0.1197" stroke-linecap="round" stroke-linejoin="round" fill="#333333"/>
        <path d="M 20.0379,6.6575 L 20.0379,6.6013 L 20.0099,6.5451 L 19.9959,6.5030 L 19.9119,6.4187 L 19.8699,6.4046 L 19.8139,6.3765 L 19.6879,6.3765 L 19.6318,6.4046 L 19.5898,6.4187 L 19.5058,6.5030 L 19.4918,6.5451 L 19.4638,6.6013 L 19.4638,7.5985 L 19.4918,7.6547 L 19.5058,7.6968 L 19.5898,7.7811 L 19.6318,7.7951 L 19.6879,7.8232 L 19.8139,7.8232 L 19.8699,7.7951 L 19.9119,7.7811 L 19.9959,7.6968 L 20.0099,7.6547 L 20.0379,7.5985 L 20.0379,7.5423 L 20.0379,6.6575 Z" stroke="#000000" stroke-width="0.1197" stroke-linecap="round" stroke-linejoin="round" fill="#333333"/>
        <path d="M 20.0379,8.4552 L 20.0379,8.3991 L 20.0099,8.3429 L 19.9959,8.3007 L 19.9119,8.2165 L 19.8699,8.2024 L 19.8139,8.1743 L 19.6879,8.1743 L 19.6318,8.2024 L 19.5898,8.2165 L 19.5058,8.3007 L 19.4918,8.3429 L 19.4638,8.3991 L 19.4638,9.3963 L 19.4918,9.4525 L 19.5058,9.4946 L 19.5898,9.5789 L 19.6318,9.5929 L 19.6879,9.6210 L 19.8139,9.6210 L 19.8699,9.5929 L 19.9119,9.5789 L 19.9959,9.4946 L 20.0099,9.4525 L 20.0379,9.3963 L 20.0379,9.3401 L 20.0379,8.4552 Z" stroke="#000000" stroke-width="0.1197" stroke-linecap="round" stroke-linejoin="round" fill="#333333"/>
        <path d="M 20.0379,10.2671 L 20.0379,10.2109 L 20.0099,10.1547 L 19.9959,10.1126 L 19.9119,10.0283 L 19.8699,10.0143 L 19.8139,9.9862 L 19.6879,9.9862 L 19.6318,10.0143 L 19.5898,10.0283 L 19.5058,10.1126 L 19.4918,10.1547 L 19.4638,10.2109 L 19.4638,11.2081 L 19.4918,11.2643 L 19.5058,11.3064 L 19.5898,11.3907 L 19.6318,11.4048 L 19.6879,11.4328 L 19.8139,11.4328 L 19.8699,11.4048 L 19.9119,11.3907 L 19.9959,11.3064 L 20.0099,11.2643 L 20.0379,11.2081 L 20.0379,11.1519 L 20.0379,10.2671 Z" stroke="#000000" stroke-width="0.1197" stroke-linecap="round" stroke-linejoin="round" fill="#333333"/>
        <path d="M 19.0297,1.2781 L 19.0297,1.2219 L 19.0017,1.1658 L 18.9877,1.1236 L 18.9037,1.0393 L 18.8617,1.0253 L 18.8057,0.9972 L 18.6797,0.9972 L 18.6236,1.0253 L 18.5816,1.0393 L 18.4976,1.1236 L 18.4836,1.1658 L 18.4556,1.2219 L 18.4556,2.2192 L 18.4836,2.2753 L 18.4976,2.3175 L 18.5816,2.4017 L 18.6236,2.4158 L 18.6797,2.4439 L 18.8057,2.4439 L 18.8617,2.4158 L 18.9037,2.4017 L 18.9877,2.3175 L 19.0017,2.2753 L 19.0297,2.2192 L 19.0297,2.1630 L 19.0297,1.2781 Z" stroke="#000000" stroke-width="0.1197" stroke-linecap="round" stroke-linejoin="round" fill="#333333"/>
        <path d="M 19.0297,3.0619 L 19.0297,3.0057 L 19.0017,2.9495 L 18.9877,2.9074 L 18.9037,2.8231 L 18.8617,2.8091 L 18.8057,2.7810 L 18.6797,2.7810 L 18.6236,2.8091 L 18.5816,2.8231 L 18.4976,2.9074 L 18.4836,2.9495 L 18.4556,3.0057 L 18.4556,4.0029 L 18.4836,4.0591 L 18.4976,4.1012 L 18.5816,4.1855 L 18.6236,4.1995 L 18.6797,4.2276 L 18.8057,4.2276 L 18.8617,4.1995 L 18.9037,4.1855 L 18.9877,4.1012 L 19.0017,4.0591 L 19.0297,4.0029 L 19.0297,3.9467 L 19.0297,3.0619 Z" stroke="#000000" stroke-width="0.1197" stroke-linecap="round" stroke-linejoin="round" fill="#333333"/>
        <path d="M 19.0297,4.8597 L 19.0297,4.8035 L 19.0017,4.7473 L 18.9877,4.7052 L 18.9037,4.6209 L 18.8617,4.6068 L 18.8057,4.5788 L 18.6797,4.5788 L 18.6236,4.6068 L 18.5816,4.6209 L 18.4976,4.7052 L 18.4836,4.7473 L 18.4556,4.8035 L 18.4556,5.8007 L 18.4836,5.8569 L 18.4976,5.8990 L 18.5816,5.9833 L 18.6236,5.9973 L 18.6797,6.0254 L 18.8057,6.0254 L 18.8617,5.9973 L 18.9037,5.9833 L 18.9877,5.8990 L 19.0017,5.8569 L 19.0297,5.8007 L 19.0297,5.7445 L 19.0297,4.8597 Z" stroke="#000000" stroke-width="0.1197" stroke-linecap="round" stroke-linejoin="round" fill="#333333"/>
        <path d="M 19.0297,6.6575 L 19.0297,6.6013 L 19.0017,6.5451 L 18.9877,6.5030 L 18.9037,6.4187 L 18.8617,6.4046 L 18.8057,6.3765 L 18.6797,6.3765 L 18.6236,6.4046 L 18.5816,6.4187 L 18.4976,6.5030 L 18.4836,6.5451 L 18.4556,6.6013 L 18.4556,7.5985 L 18.4836,7.6547 L 18.4976,7.6968 L 18.5816,7.7811 L 18.6236,7.7951 L 18.6797,7.8232 L 18.8057,7.8232 L 18.8617,7.7951 L 18.9037,7.7811 L 18.9877,7.6968 L 19.0017,7.6547 L 19.0297,7.5985 L 19.0297,7.5423 L 19.0297,6.6575 Z" stroke="#000000" stroke-width="0.1197" stroke-linecap="round" stroke-linejoin="round" fill="#333333"/>
        <path d="M 19.0297,8.4552 L 19.0297,8.3991 L 19.0017,8.3429 L 18.9877,8.3007 L 18.9037,8.2165 L 18.8617,8.2024 L 18.8057,8.1743 L 18.6797,8.1743 L 18.6236,8.2024 L 18.5816,8.2165 L 18.4976,8.3007 L 18.4836,8.3429 L 18.4556,8.3991 L 18.4556,9.3963 L 18.4836,9.4525 L 18.4976,9.4946 L 18.5816,9.5789 L 18.6236,9.5929 L 18.6797,9.6210 L 18.8057,9.6210 L 18.8617,9.5929 L 18.9037,9.5789 L 18.9877,9.4946 L 19.0017,9.4525 L 19.0297,9.3963 L 19.0297,9.3401 L 19.0297,8.4552 Z" stroke="#000000" stroke-width="0.1197" stroke-linecap="round" stroke-linejoin="round" fill="#333333"/>
        <path d="M 19.0297,10.2671 L 19.0297,10.2109 L 19.0017,10.1547 L 18.9877,10.1126 L 18.9037,10.0283 L 18.8617,10.0143 L 18.8057,9.9862 L 18.6797,9.9862 L 18.6236,10.0143 L 18.5816,10.0283 L 18.4976,10.1126 L 18.4836,10.1547 L 18.4556,10.2109 L 18.4556,11.2081 L 18.4836,11.2643 L 18.4976,11.3064 L 18.5816,11.3907 L 18.6236,11.4048 L 18.6797,11.4328 L 18.8057,11.4328 L 18.8617,11.4048 L 18.9037,11.3907 L 18.9877,11.3064 L 19.0017,11.2643 L 19.0297,11.2081 L 19.0297,11.1519 L 19.0297,10.2671 Z" stroke="#000000" stroke-width="0.1197" stroke-linecap="round" stroke-linejoin="round" fill="#333333"/>
        <path d="M 18.0215,1.2781 L 18.0215,1.2219 L 17.9935,1.1658 L 17.9795,1.1236 L 17.8955,1.0393 L 17.8535,1.0253 L 17.7975,0.9972 L 17.6715,0.9972 L 17.6155,1.0253 L 17.5734,1.0393 L 17.4894,1.1236 L 17.4754,1.1658 L 17.4474,1.2219 L 17.4474,2.2192 L 17.4754,2.2753 L 17.4894,2.3175 L 17.5734,2.4017 L 17.6155,2.4158 L 17.6715,2.4439 L 17.7975,2.4439 L 17.8535,2.4158 L 17.8955,2.4017 L 17.9795,2.3175 L 17.9935,2.2753 L 18.0215,2.2192 L 18.0215,2.1630 L 18.0215,1.2781 Z" stroke="#000000" stroke-width="0.1197" stroke-linecap="round" stroke-linejoin="round" fill="#333333"/>
        <path d="M 18.0215,3.0619 L 18.0215,3.0057 L 17.9935,2.9495 L 17.9795,2.9074 L 17.8955,2.8231 L 17.8535,2.8091 L 17.7975,2.7810 L 17.6715,2.7810 L 17.6155,2.8091 L 17.5734,2.8231 L 17.4894,2.9074 L 17.4754,2.9495 L 17.4474,3.0057 L 17.4474,4.0029 L 17.4754,4.0591 L 17.4894,4.1012 L 17.5734,4.1855 L 17.6155,4.1995 L 17.6715,4.2276 L 17.7975,4.2276 L 17.8535,4.1995 L 17.8955,4.1855 L 17.9795,4.1012 L 17.9935,4.0591 L 18.0215,4.0029 L 18.0215,3.9467 L 18.0215,3.0619 Z" stroke="#000000" stroke-width="0.1197" stroke-linecap="round" stroke-linejoin="round" fill="#333333"/>
        <path d="M 18.0215,4.8597 L 18.0215,4.8035 L 17.9935,4.7473 L 17.9795,4.7052 L 17.8955,4.6209 L 17.8535,4.6068 L 17.7975,4.5788 L 17.6715,4.5788 L 17.6155,4.6068 L 17.5734,4.6209 L 17.4894,4.7052 L 17.4754,4.7473 L 17.4474,4.8035 L 17.4474,5.8007 L 17.4754,5.8569 L 17.4894,5.8990 L 17.5734,5.9833 L 17.6155,5.9973 L 17.6715,6.0254 L 17.7975,6.0254 L 17.8535,5.9973 L 17.8955,5.9833 L 17.9795,5.8990 L 17.9935,5.8569 L 18.0215,5.8007 L 18.0215,5.7445 L 18.0215,4.8597 Z" stroke="#000000" stroke-width="0.1197" stroke-linecap="round" stroke-linejoin="round" fill="#333333"/>
        <path d="M 18.0215,6.6575 L 18.0215,6.6013 L 17.9935,6.5451 L 17.9795,6.5030 L 17.8955,6.4187 L 17.8535,6.4046 L 17.7975,6.3765 L 17.6715,6.3765 L 17.6155,6.4046 L 17.5734,6.4187 L 17.4894,6.5030 L 17.4754,6.5451 L 17.4474,6.6013 L 17.4474,7.5985 L 17.4754,7.6547 L 17.4894,7.6968 L 17.5734,7.7811 L 17.6155,7.7951 L 17.6715,7.8232 L 17.7975,7.8232 L 17.8535,7.7951 L 17.8955,7.7811 L 17.9795,7.6968 L 17.9935,7.6547 L 18.0215,7.5985 L 18.0215,7.5423 L 18.0215,6.6575 Z" stroke="#000000" stroke-width="0.1197" stroke-linecap="round" stroke-linejoin="round" fill="#333333"/>
        <path d="M 18.0215,8.4552 L 18.0215,8.3991 L 17.9935,8.3429 L 17.9795,8.3007 L 17.8955,8.2165 L 17.8535,8.2024 L 17.7975,8.1743 L 17.6715,8.1743 L 17.6155,8.2024 L 17.5734,8.2165 L 17.4894,8.3007 L 17.4754,8.3429 L 17.4474,8.3991 L 17.4474,9.3963 L 17.4754,9.4525 L 17.4894,9.4946 L 17.5734,9.5789 L 17.6155,9.5929 L 17.6715,9.6210 L 17.7975,9.6210 L 17.8535,9.5929 L 17.8955,9.5789 L 17.9795,9.4946 L 17.9935,9.4525 L 18.0215,9.3963 L 18.0215,9.3401 L 18.0215,8.4552 Z" stroke="#000000" stroke-width="0.1197" stroke-linecap="round" stroke-linejoin="round" fill="#333333"/>
        <path d="M 18.0215,10.2671 L 18.0215,10.2109 L 17.9935,10.1547 L 17.9795,10.1126 L 17.8955,10.0283 L 17.8535,10.0143 L 17.7975,9.9862 L 17.6715,9.9862 L 17.6155,10.0143 L 17.5734,10.0283 L 17.4894,10.1126 L 17.4754,10.1547 L 17.4474,10.2109 L 17.4474,11.2081 L 17.4754,11.2643 L 17.4894,11.3064 L 17.5734,11.3907 L 17.6155,11.4048 L 17.6715,11.4328 L 17.7975,11.4328 L 17.8535,11.4048 L 17.8955,11.3907 L 17.9795,11.3064 L 17.9935,11.2643 L 18.0215,11.2081 L 18.0215,11.1519 L 18.0215,10.2671 Z" stroke="#000000" stroke-width="0.1197" stroke-linecap="round" stroke-linejoin="round" fill="#333333"/>
        <path d="M 17.0133,1.2781 L 17.0133,1.2219 L 16.9853,1.1658 L 16.9713,1.1236 L 16.8873,1.0393 L 16.8453,1.0253 L 16.7893,0.9972 L 16.6633,0.9972 L 16.6073,1.0253 L 16.5652,1.0393 L 16.4812,1.1236 L 16.4672,1.1658 L 16.4392,1.2219 L 16.4392,2.2192 L 16.4672,2.2753 L 16.4812,2.3175 L 16.5652,2.4017 L 16.6073,2.4158 L 16.6633,2.4439 L 16.7893,2.4439 L 16.8453,2.4158 L 16.8873,2.4017 L 16.9713,2.3175 L 16.9853,2.2753 L 17.0133,2.2192 L 17.0133,2.1630 L 17.0133,1.2781 Z" stroke="#000000" stroke-width="0.1197" stroke-linecap="round" stroke-linejoin="round" fill="#333333"/>
        <path d="M 17.0133,3.0619 L 17.0133,3.0057 L 16.9853,2.9495 L 16.9713,2.9074 L 16.8873,2.8231 L 16.8453,2.8091 L 16.7893,2.7810 L 16.6633,2.7810 L 16.6073,2.8091 L 16.5652,2.8231 L 16.4812,2.9074 L 16.4672,2.9495 L 16.4392,3.0057 L 16.4392,4.0029 L 16.4672,4.0591 L 16.4812,4.1012 L 16.5652,4.1855 L 16.6073,4.1995 L 16.6633,4.2276 L 16.7893,4.2276 L 16.8453,4.1995 L 16.8873,4.1855 L 16.9713,4.1012 L 16.9853,4.0591 L 17.0133,4.0029 L 17.0133,3.9467 L 17.0133,3.0619 Z" stroke="#000000" stroke-width="0.1197" stroke-linecap="round" stroke-linejoin="round" fill="#333333"/>
        <path d="M 17.0133,4.8597 L 17.0133,4.8035 L 16.9853,4.7473 L 16.9713,4.7052 L 16.8873,4.6209 L 16.8453,4.6068 L 16.7893,4.5788 L 16.6633,4.5788 L 16.6073,4.6068 L 16.5652,4.6209 L 16.4812,4.7052 L 16.4672,4.7473 L 16.4392,4.8035 L 16.4392,5.8007 L 16.4672,5.8569 L 16.4812,5.8990 L 16.5652,5.9833 L 16.6073,5.9973 L 16.6633,6.0254 L 16.7893,6.0254 L 16.8453,5.9973 L 16.8873,5.9833 L 16.9713,5.8990 L 16.9853,5.8569 L 17.0133,5.8007 L 17.0133,5.7445 L 17.0133,4.8597 Z" stroke="#000000" stroke-width="0.1197" stroke-linecap="round" stroke-linejoin="round" fill="#333333"/>
        <path d="M 17.0133,6.6575 L 17.0133,6.6013 L 16.9853,6.5451 L 16.9713,6.5030 L 16.8873,6.4187 L 16.8453,6.4046 L 16.7893,6.3765 L 16.6633,6.3765 L 16.6073,6.4046 L 16.5652,6.4187 L 16.4812,6.5030 L 16.4672,6.5451 L 16.4392,6.6013 L 16.4392,7.5985 L 16.4672,7.6547 L 16.4812,7.6968 L 16.5652,7.7811 L 16.6073,7.7951 L 16.6633,7.8232 L 16.7893,7.8232 L 16.8453,7.7951 L 16.8873,7.7811 L 16.9713,7.6968 L 16.9853,7.6547 L 17.0133,7.5985 L 17.0133,7.5423 L 17.0133,6.6575 Z" stroke="#000000" stroke-width="0.1197" stroke-linecap="round" stroke-linejoin="round" fill="#333333"/>
        <path d="M 17.0133,8.4552 L 17.0133,8.3991 L 16.9853,8.3429 L 16.9713,8.3007 L 16.8873,8.2165 L 16.8453,8.2024 L 16.7893,8.1743 L 16.6633,8.1743 L 16.6073,8.2024 L 16.5652,8.2165 L 16.4812,8.3007 L 16.4672,8.3429 L 16.4392,8.3991 L 16.4392,9.3963 L 16.4672,9.4525 L 16.4812,9.4946 L 16.5652,9.5789 L 16.6073,9.5929 L 16.6633,9.6210 L 16.7893,9.6210 L 16.8453,9.5929 L 16.8873,9.5789 L 16.9713,9.4946 L 16.9853,9.4525 L 17.0133,9.3963 L 17.0133,9.3401 L 17.0133,8.4552 Z" stroke="#000000" stroke-width="0.1197" stroke-linecap="round" stroke-linejoin="round" fill="#333333"/>
        <path d="M 17.0133,10.2671 L 17.0133,10.2109 L 16.9853,10.1547 L 16.9713,10.1126 L 16.8873,10.0283 L 16.8453,10.0143 L 16.7893,9.9862 L 16.6633,9.9862 L 16.6073,10.0143 L 16.5652,10.0283 L 16.4812,10.1126 L 16.4672,10.1547 L 16.4392,10.2109 L 16.4392,11.2081 L 16.4672,11.2643 L 16.4812,11.3064 L 16.5652,11.3907 L 16.6073,11.4048 L 16.6633,11.4328 L 16.7893,11.4328 L 16.8453,11.4048 L 16.8873,11.3907 L 16.9713,11.3064 L 16.9853,11.2643 L 17.0133,11.2081 L 17.0133,11.1519 L 17.0133,10.2671 Z" stroke="#000000" stroke-width="0.1197" stroke-linecap="round" stroke-linejoin="round" fill="#333333"/>
        <path d="M 16.0051,1.2781 L 16.0051,1.2219 L 15.9771,1.1658 L 15.9631,1.1236 L 15.8791,1.0393 L 15.8371,1.0253 L 15.7811,0.9972 L 15.6551,0.9972 L 15.5991,1.0253 L 15.5570,1.0393 L 15.4730,1.1236 L 15.4590,1.1658 L 15.4310,1.2219 L 15.4310,2.2192 L 15.4590,2.2753 L 15.4730,2.3175 L 15.5570,2.4017 L 15.5991,2.4158 L 15.6551,2.4439 L 15.7811,2.4439 L 15.8371,2.4158 L 15.8791,2.4017 L 15.9631,2.3175 L 15.9771,2.2753 L 16.0051,2.2192 L 16.0051,2.1630 L 16.0051,1.2781 Z" stroke="#000000" stroke-width="0.1197" stroke-linecap="round" stroke-linejoin="round" fill="#333333"/>
        <path d="M 16.0051,3.0619 L 16.0051,3.0057 L 15.9771,2.9495 L 15.9631,2.9074 L 15.8791,2.8231 L 15.8371,2.8091 L 15.7811,2.7810 L 15.6551,2.7810 L 15.5991,2.8091 L 15.5570,2.8231 L 15.4730,2.9074 L 15.4590,2.9495 L 15.4310,3.0057 L 15.4310,4.0029 L 15.4590,4.0591 L 15.4730,4.1012 L 15.5570,4.1855 L 15.5991,4.1995 L 15.6551,4.2276 L 15.7811,4.2276 L 15.8371,4.1995 L 15.8791,4.1855 L 15.9631,4.1012 L 15.9771,4.0591 L 16.0051,4.0029 L 16.0051,3.9467 L 16.0051,3.0619 Z" stroke="#000000" stroke-width="0.1197" stroke-linecap="round" stroke-linejoin="round" fill="#333333"/>
        <path d="M 16.0051,4.8597 L 16.0051,4.8035 L 15.9771,4.7473 L 15.9631,4.7052 L 15.8791,4.6209 L 15.8371,4.6068 L 15.7811,4.5788 L 15.6551,4.5788 L 15.5991,4.6068 L 15.5570,4.6209 L 15.4730,4.7052 L 15.4590,4.7473 L 15.4310,4.8035 L 15.4310,5.8007 L 15.4590,5.8569 L 15.4730,5.8990 L 15.5570,5.9833 L 15.5991,5.9973 L 15.6551,6.0254 L 15.7811,6.0254 L 15.8371,5.9973 L 15.8791,5.9833 L 15.9631,5.8990 L 15.9771,5.8569 L 16.0051,5.8007 L 16.0051,5.7445 L 16.0051,4.8597 Z" stroke="#000000" stroke-width="0.1197" stroke-linecap="round" stroke-linejoin="round" fill="#333333"/>
        <path d="M 16.0051,6.6575 L 16.0051,6.6013 L 15.9771,6.5451 L 15.9631,6.5030 L 15.8791,6.4187 L 15.8371,6.4046 L 15.7811,6.3765 L 15.6551,6.3765 L 15.5991,6.4046 L 15.5570,6.4187 L 15.4730,6.5030 L 15.4590,6.5451 L 15.4310,6.6013 L 15.4310,7.5985 L 15.4590,7.6547 L 15.4730,7.6968 L 15.5570,7.7811 L 15.5991,7.7951 L 15.6551,7.8232 L 15.7811,7.8232 L 15.8371,7.7951 L 15.8791,7.7811 L 15.9631,7.6968 L 15.9771,7.6547 L 16.0051,7.5985 L 16.0051,7.5423 L 16.0051,6.6575 Z" stroke="#000000" stroke-width="0.1197" stroke-linecap="round" stroke-linejoin="round" fill="#333333"/>
        <path d="M 16.0051,8.4552 L 16.0051,8.3991 L 15.9771,8.3429 L 15.9631,8.3007 L 15.8791,8.2165 L 15.8371,8.2024 L 15.7811,8.1743 L 15.6551,8.1743 L 15.5991,8.2024 L 15.5570,8.2165 L 15.4730,8.3007 L 15.4590,8.3429 L 15.4310,8.3991 L 15.4310,9.3963 L 15.4590,9.4525 L 15.4730,9.4946 L 15.5570,9.5789 L 15.5991,9.5929 L 15.6551,9.6210 L 15.7811,9.6210 L 15.8371,9.5929 L 15.8791,9.5789 L 15.9631,9.4946 L 15.9771,9.4525 L 16.0051,9.3963 L 16.0051,9.3401 L 16.0051,8.4552 Z" stroke="#000000" stroke-width="0.1197" stroke-linecap="round" stroke-linejoin="round" fill="#333333"/>
        <path d="M 16.0051,10.2671 L 16.0051,10.2109 L 15.9771,10.1547 L 15.9631,10.1126 L 15.8791,10.0283 L 15.8371,10.0143 L 15.7811,9.9862 L 15.6551,9.9862 L 15.5991,10.0143 L 15.5570,10.0283 L 15.4730,10.1126 L 15.4590,10.1547 L 15.4310,10.2109 L 15.4310,11.2081 L 15.4590,11.2643 L 15.4730,11.3064 L 15.5570,11.3907 L 15.5991,11.4048 L 15.6551,11.4328 L 15.7811,11.4328 L 15.8371,11.4048 L 15.8791,11.3907 L 15.9631,11.3064 L 15.9771,11.2643 L 16.0051,11.2081 L 16.0051,11.1519 L 16.0051,10.2671 Z" stroke="#000000" stroke-width="0.1197" stroke-linecap="round" stroke-linejoin="round" fill="#333333"/>
        <path d="M 14.9969,1.2781 L 14.9969,1.2219 L 14.9689,1.1658 L 14.9549,1.1236 L 14.8709,1.0393 L 14.8289,1.0253 L 14.7729,0.9972 L 14.6469,0.9972 L 14.5909,1.0253 L 14.5488,1.0393 L 14.4648,1.1236 L 14.4508,1.1658 L 14.4228,1.2219 L 14.4228,2.2192 L 14.4508,2.2753 L 14.4648,2.3175 L 14.5488,2.4017 L 14.5909,2.4158 L 14.6469,2.4439 L 14.7729,2.4439 L 14.8289,2.4158 L 14.8709,2.4017 L 14.9549,2.3175 L 14.9689,2.2753 L 14.9969,2.2192 L 14.9969,2.1630 L 14.9969,1.2781 Z" stroke="#000000" stroke-width="0.1197" stroke-linecap="round" stroke-linejoin="round" fill="#333333"/>
        <path d="M 14.9969,3.0619 L 14.9969,3.0057 L 14.9689,2.9495 L 14.9549,2.9074 L 14.8709,2.8231 L 14.8289,2.8091 L 14.7729,2.7810 L 14.6469,2.7810 L 14.5909,2.8091 L 14.5488,2.8231 L 14.4648,2.9074 L 14.4508,2.9495 L 14.4228,3.0057 L 14.4228,4.0029 L 14.4508,4.0591 L 14.4648,4.1012 L 14.5488,4.1855 L 14.5909,4.1995 L 14.6469,4.2276 L 14.7729,4.2276 L 14.8289,4.1995 L 14.8709,4.1855 L 14.9549,4.1012 L 14.9689,4.0591 L 14.9969,4.0029 L 14.9969,3.9467 L 14.9969,3.0619 Z" stroke="#000000" stroke-width="0.1197" stroke-linecap="round" stroke-linejoin="round" fill="#333333"/>
        <path d="M 14.9969,4.8597 L 14.9969,4.8035 L 14.9689,4.7473 L 14.9549,4.7052 L 14.8709,4.6209 L 14.8289,4.6068 L 14.7729,4.5788 L 14.6469,4.5788 L 14.5909,4.6068 L 14.5488,4.6209 L 14.4648,4.7052 L 14.4508,4.7473 L 14.4228,4.8035 L 14.4228,5.8007 L 14.4508,5.8569 L 14.4648,5.8990 L 14.5488,5.9833 L 14.5909,5.9973 L 14.6469,6.0254 L 14.7729,6.0254 L 14.8289,5.9973 L 14.8709,5.9833 L 14.9549,5.8990 L 14.9689,5.8569 L 14.9969,5.8007 L 14.9969,5.7445 L 14.9969,4.8597 Z" stroke="#000000" stroke-width="0.1197" stroke-linecap="round" stroke-linejoin="round" fill="#333333"/>
        <path d="M 14.9969,6.6575 L 14.9969,6.6013 L 14.9689,6.5451 L 14.9549,6.5030 L 14.8709,6.4187 L 14.8289,6.4046 L 14.7729,6.3765 L 14.6469,6.3765 L 14.5909,6.4046 L 14.5488,6.4187 L 14.4648,6.5030 L 14.4508,6.5451 L 14.4228,6.6013 L 14.4228,7.5985 L 14.4508,7.6547 L 14.4648,7.6968 L 14.5488,7.7811 L 14.5909,7.7951 L 14.6469,7.8232 L 14.7729,7.8232 L 14.8289,7.7951 L 14.8709,7.7811 L 14.9549,7.6968 L 14.9689,7.6547 L 14.9969,7.5985 L 14.9969,7.5423 L 14.9969,6.6575 Z" stroke="#000000" stroke-width="0.1197" stroke-linecap="round" stroke-linejoin="round" fill="#333333"/>
        <path d="M 14.9969,8.4552 L 14.9969,8.3991 L 14.9689,8.3429 L 14.9549,8.3007 L 14.8709,8.2165 L 14.8289,8.2024 L 14.7729,8.1743 L 14.6469,8.1743 L 14.5909,8.2024 L 14.5488,8.2165 L 14.4648,8.3007 L 14.4508,8.3429 L 14.4228,8.3991 L 14.4228,9.3963 L 14.4508,9.4525 L 14.4648,9.4946 L 14.5488,9.5789 L 14.5909,9.5929 L 14.6469,9.6210 L 14.7729,9.6210 L 14.8289,9.5929 L 14.8709,9.5789 L 14.9549,9.4946 L 14.9689,9.4525 L 14.9969,9.3963 L 14.9969,9.3401 L 14.9969,8.4552 Z" stroke="#000000" stroke-width="0.1197" stroke-linecap="round" stroke-linejoin="round" fill="#333333"/>
        <path d="M 14.9969,10.2671 L 14.9969,10.2109 L 14.9689,10.1547 L 14.9549,10.1126 L 14.8709,10.0283 L 14.8289,10.0143 L 14.7729,9.9862 L 14.6469,9.9862 L 14.5909,10.0143 L 14.5488,10.0283 L 14.4648,10.1126 L 14.4508,10.1547 L 14.4228,10.2109 L 14.4228,11.2081 L 14.4508,11.2643 L 14.4648,11.3064 L 14.5488,11.3907 L 14.5909,11.4048 L 14.6469,11.4328 L 14.7729,11.4328 L 14.8289,11.4048 L 14.8709,11.3907 L 14.9549,11.3064 L 14.9689,11.2643 L 14.9969,11.2081 L 14.9969,11.1519 L 14.9969,10.2671 Z" stroke="#000000" stroke-width="0.1197" stroke-linecap="round" stroke-linejoin="round" fill="#333333"/>
        <path d="M 13.9887,1.2781 L 13.9887,1.2219 L 13.9607,1.1658 L 13.9467,1.1236 L 13.8627,1.0393 L 13.8207,1.0253 L 13.7647,0.9972 L 13.6387,0.9972 L 13.5827,1.0253 L 13.5407,1.0393 L 13.4566,1.1236 L 13.4426,1.1658 L 13.4146,1.2219 L 13.4146,2.2192 L 13.4426,2.2753 L 13.4566,2.3175 L 13.5407,2.4017 L 13.5827,2.4158 L 13.6387,2.4439 L 13.7647,2.4439 L 13.8207,2.4158 L 13.8627,2.4017 L 13.9467,2.3175 L 13.9607,2.2753 L 13.9887,2.2192 L 13.9887,2.1630 L 13.9887,1.2781 Z" stroke="#000000" stroke-width="0.1197" stroke-linecap="round" stroke-linejoin="round" fill="#333333"/>
        <path d="M 13.9887,3.0619 L 13.9887,3.0057 L 13.9607,2.9495 L 13.9467,2.9074 L 13.8627,2.8231 L 13.8207,2.8091 L 13.7647,2.7810 L 13.6387,2.7810 L 13.5827,2.8091 L 13.5407,2.8231 L 13.4566,2.9074 L 13.4426,2.9495 L 13.4146,3.0057 L 13.4146,4.0029 L 13.4426,4.0591 L 13.4566,4.1012 L 13.5407,4.1855 L 13.5827,4.1995 L 13.6387,4.2276 L 13.7647,4.2276 L 13.8207,4.1995 L 13.8627,4.1855 L 13.9467,4.1012 L 13.9607,4.0591 L 13.9887,4.0029 L 13.9887,3.9467 L 13.9887,3.0619 Z" stroke="#000000" stroke-width="0.1197" stroke-linecap="round" stroke-linejoin="round" fill="#333333"/>
        <path d="M 13.9887,4.8597 L 13.9887,4.8035 L 13.9607,4.7473 L 13.9467,4.7052 L 13.8627,4.6209 L 13.8207,4.6068 L 13.7647,4.5788 L 13.6387,4.5788 L 13.5827,4.6068 L 13.5407,4.6209 L 13.4566,4.7052 L 13.4426,4.7473 L 13.4146,4.8035 L 13.4146,5.8007 L 13.4426,5.8569 L 13.4566,5.8990 L 13.5407,5.9833 L 13.5827,5.9973 L 13.6387,6.0254 L 13.7647,6.0254 L 13.8207,5.9973 L 13.8627,5.9833 L 13.9467,5.8990 L 13.9607,5.8569 L 13.9887,5.8007 L 13.9887,5.7445 L 13.9887,4.8597 Z" stroke="#000000" stroke-width="0.1197" stroke-linecap="round" stroke-linejoin="round" fill="#333333"/>
        <path d="M 13.9887,6.6575 L 13.9887,6.6013 L 13.9607,6.5451 L 13.9467,6.5030 L 13.8627,6.4187 L 13.8207,6.4046 L 13.7647,6.3765 L 13.6387,6.3765 L 13.5827,6.4046 L 13.5407,6.4187 L 13.4566,6.5030 L 13.4426,6.5451 L 13.4146,6.6013 L 13.4146,7.5985 L 13.4426,7.6547 L 13.4566,7.6968 L 13.5407,7.7811 L 13.5827,7.7951 L 13.6387,7.8232 L 13.7647,7.8232 L 13.8207,7.7951 L 13.8627,7.7811 L 13.9467,7.6968 L 13.9607,7.6547 L 13.9887,7.5985 L 13.9887,7.5423 L 13.9887,6.6575 Z" stroke="#000000" stroke-width="0.1197" stroke-linecap="round" stroke-linejoin="round" fill="#333333"/>
        <path d="M 13.9887,8.4552 L 13.9887,8.3991 L 13.9607,8.3429 L 13.9467,8.3007 L 13.8627,8.2165 L 13.8207,8.2024 L 13.7647,8.1743 L 13.6387,8.1743 L 13.5827,8.2024 L 13.5407,8.2165 L 13.4566,8.3007 L 13.4426,8.3429 L 13.4146,8.3991 L 13.4146,9.3963 L 13.4426,9.4525 L 13.4566,9.4946 L 13.5407,9.5789 L 13.5827,9.5929 L 13.6387,9.6210 L 13.7647,9.6210 L 13.8207,9.5929 L 13.8627,9.5789 L 13.9467,9.4946 L 13.9607,9.4525 L 13.9887,9.3963 L 13.9887,9.3401 L 13.9887,8.4552 Z" stroke="#000000" stroke-width="0.1197" stroke-linecap="round" stroke-linejoin="round" fill="#333333"/>
        <path d="M 13.9887,10.2671 L 13.9887,10.2109 L 13.9607,10.1547 L 13.9467,10.1126 L 13.8627,10.0283 L 13.8207,10.0143 L 13.7647,9.9862 L 13.6387,9.9862 L 13.5827,10.0143 L 13.5407,10.0283 L 13.4566,10.1126 L 13.4426,10.1547 L 13.4146,10.2109 L 13.4146,11.2081 L 13.4426,11.2643 L 13.4566,11.3064 L 13.5407,11.3907 L 13.5827,11.4048 L 13.6387,11.4328 L 13.7647,11.4328 L 13.8207,11.4048 L 13.8627,11.3907 L 13.9467,11.3064 L 13.9607,11.2643 L 13.9887,11.2081 L 13.9887,11.1519 L 13.9887,10.2671 Z" stroke="#000000" stroke-width="0.1197" stroke-linecap="round" stroke-linejoin="round" fill="#333333"/>
        <path d="M 12.9805,1.2781 L 12.9805,1.2219 L 12.9525,1.1658 L 12.9385,1.1236 L 12.8545,1.0393 L 12.8125,1.0253 L 12.7565,0.9972 L 12.6305,0.9972 L 12.5745,1.0253 L 12.5325,1.0393 L 12.4484,1.1236 L 12.4344,1.1658 L 12.4064,1.2219 L 12.4064,2.2192 L 12.4344,2.2753 L 12.4484,2.3175 L 12.5325,2.4017 L 12.5745,2.4158 L 12.6305,2.4439 L 12.7565,2.4439 L 12.8125,2.4158 L 12.8545,2.4017 L 12.9385,2.3175 L 12.9525,2.2753 L 12.9805,2.2192 L 12.9805,2.1630 L 12.9805,1.2781 Z" stroke="#000000" stroke-width="0.1197" stroke-linecap="round" stroke-linejoin="round" fill="#333333"/>
        <path d="M 12.9805,3.0619 L 12.9805,3.0057 L 12.9525,2.9495 L 12.9385,2.9074 L 12.8545,2.8231 L 12.8125,2.8091 L 12.7565,2.7810 L 12.6305,2.7810 L 12.5745,2.8091 L 12.5325,2.8231 L 12.4484,2.9074 L 12.4344,2.9495 L 12.4064,3.0057 L 12.4064,4.0029 L 12.4344,4.0591 L 12.4484,4.1012 L 12.5325,4.1855 L 12.5745,4.1995 L 12.6305,4.2276 L 12.7565,4.2276 L 12.8125,4.1995 L 12.8545,4.1855 L 12.9385,4.1012 L 12.9525,4.0591 L 12.9805,4.0029 L 12.9805,3.9467 L 12.9805,3.0619 Z" stroke="#000000" stroke-width="0.1197" stroke-linecap="round" stroke-linejoin="round" fill="#333333"/>
        <path d="M 12.9805,4.8597 L 12.9805,4.8035 L 12.9525,4.7473 L 12.9385,4.7052 L 12.8545,4.6209 L 12.8125,4.6068 L 12.7565,4.5788 L 12.6305,4.5788 L 12.5745,4.6068 L 12.5325,4.6209 L 12.4484,4.7052 L 12.4344,4.7473 L 12.4064,4.8035 L 12.4064,5.8007 L 12.4344,5.8569 L 12.4484,5.8990 L 12.5325,5.9833 L 12.5745,5.9973 L 12.6305,6.0254 L 12.7565,6.0254 L 12.8125,5.9973 L 12.8545,5.9833 L 12.9385,5.8990 L 12.9525,5.8569 L 12.9805,5.8007 L 12.9805,5.7445 L 12.9805,4.8597 Z" stroke="#000000" stroke-width="0.1197" stroke-linecap="round" stroke-linejoin="round" fill="#333333"/>
        <path d="M 12.9805,6.6575 L 12.9805,6.6013 L 12.9525,6.5451 L 12.9385,6.5030 L 12.8545,6.4187 L 12.8125,6.4046 L 12.7565,6.3765 L 12.6305,6.3765 L 12.5745,6.4046 L 12.5325,6.4187 L 12.4484,6.5030 L 12.4344,6.5451 L 12.4064,6.6013 L 12.4064,7.5985 L 12.4344,7.6547 L 12.4484,7.6968 L 12.5325,7.7811 L 12.5745,7.7951 L 12.6305,7.8232 L 12.7565,7.8232 L 12.8125,7.7951 L 12.8545,7.7811 L 12.9385,7.6968 L 12.9525,7.6547 L 12.9805,7.5985 L 12.9805,7.5423 L 12.9805,6.6575 Z" stroke="#000000" stroke-width="0.1197" stroke-linecap="round" stroke-linejoin="round" fill="#333333"/>
        <path d="M 12.9805,8.4552 L 12.9805,8.3991 L 12.9525,8.3429 L 12.9385,8.3007 L 12.8545,8.2165 L 12.8125,8.2024 L 12.7565,8.1743 L 12.6305,8.1743 L 12.5745,8.2024 L 12.5325,8.2165 L 12.4484,8.3007 L 12.4344,8.3429 L 12.4064,8.3991 L 12.4064,9.3963 L 12.4344,9.4525 L 12.4484,9.4946 L 12.5325,9.5789 L 12.5745,9.5929 L 12.6305,9.6210 L 12.7565,9.6210 L 12.8125,9.5929 L 12.8545,9.5789 L 12.9385,9.4946 L 12.9525,9.4525 L 12.9805,9.3963 L 12.9805,9.3401 L 12.9805,8.4552 Z" stroke="#000000" stroke-width="0.1197" stroke-linecap="round" stroke-linejoin="round" fill="#333333"/>
        <path d="M 12.9805,10.2671 L 12.9805,10.2109 L 12.9525,10.1547 L 12.9385,10.1126 L 12.8545,10.0283 L 12.8125,10.0143 L 12.7565,9.9862 L 12.6305,9.9862 L 12.5745,10.0143 L 12.5325,10.0283 L 12.4484,10.1126 L 12.4344,10.1547 L 12.4064,10.2109 L 12.4064,11.2081 L 12.4344,11.2643 L 12.4484,11.3064 L 12.5325,11.3907 L 12.5745,11.4048 L 12.6305,11.4328 L 12.7565,11.4328 L 12.8125,11.4048 L 12.8545,11.3907 L 12.9385,11.3064 L 12.9525,11.2643 L 12.9805,11.2081 L 12.9805,11.1519 L 12.9805,10.2671 Z" stroke="#000000" stroke-width="0.1197" stroke-linecap="round" stroke-linejoin="round" fill="#333333"/>
        <path d="M 11.9863,3.0619 L 11.9863,3.0057 L 11.9583,2.9495 L 11.9443,2.9074 L 11.8603,2.8231 L 11.8183,2.8091 L 11.7623,2.7810 L 11.6363,2.7810 L 11.5803,2.8091 L 11.5383,2.8231 L 11.4542,2.9074 L 11.4402,2.9495 L 11.4122,3.0057 L 11.4122,4.0029 L 11.4402,4.0591 L 11.4542,4.1012 L 11.5383,4.1855 L 11.5803,4.1995 L 11.6363,4.2276 L 11.7623,4.2276 L 11.8183,4.1995 L 11.8603,4.1855 L 11.9443,4.1012 L 11.9583,4.0591 L 11.9863,4.0029 L 11.9863,3.9467 L 11.9863,3.0619 Z" stroke="#000000" stroke-width="0.1197" stroke-linecap="round" stroke-linejoin="round" fill="#333333"/>
        <path d="M 11.9863,4.8597 L 11.9863,4.8035 L 11.9583,4.7473 L 11.9443,4.7052 L 11.8603,4.6209 L 11.8183,4.6068 L 11.7623,4.5788 L 11.6363,4.5788 L 11.5803,4.6068 L 11.5383,4.6209 L 11.4542,4.7052 L 11.4402,4.7473 L 11.4122,4.8035 L 11.4122,5.8007 L 11.4402,5.8569 L 11.4542,5.8990 L 11.5383,5.9833 L 11.5803,5.9973 L 11.6363,6.0254 L 11.7623,6.0254 L 11.8183,5.9973 L 11.8603,5.9833 L 11.9443,5.8990 L 11.9583,5.8569 L 11.9863,5.8007 L 11.9863,5.7445 L 11.9863,4.8597 Z" stroke="#000000" stroke-width="0.1197" stroke-linecap="round" stroke-linejoin="round" fill="#333333"/>
        <path d="M 11.9863,6.6575 L 11.9863,6.6013 L 11.9583,6.5451 L 11.9443,6.5030 L 11.8603,6.4187 L 11.8183,6.4046 L 11.7623,6.3765 L 11.6363,6.3765 L 11.5803,6.4046 L 11.5383,6.4187 L 11.4542,6.5030 L 11.4402,6.5451 L 11.4122,6.6013 L 11.4122,7.5985 L 11.4402,7.6547 L 11.4542,7.6968 L 11.5383,7.7811 L 11.5803,7.7951 L 11.6363,7.8232 L 11.7623,7.8232 L 11.8183,7.7951 L 11.8603,7.7811 L 11.9443,7.6968 L 11.9583,7.6547 L 11.9863,7.5985 L 11.9863,7.5423 L 11.9863,6.6575 Z" stroke="#000000" stroke-width="0.1197" stroke-linecap="round" stroke-linejoin="round" fill="#333333"/>
        <path d="M 11.9863,8.4552 L 11.9863,8.3991 L 11.9583,8.3429 L 11.9443,8.3007 L 11.8603,8.2165 L 11.8183,8.2024 L 11.7623,8.1743 L 11.6363,8.1743 L 11.5803,8.2024 L 11.5383,8.2165 L 11.4542,8.3007 L 11.4402,8.3429 L 11.4122,8.3991 L 11.4122,9.3963 L 11.4402,9.4525 L 11.4542,9.4946 L 11.5383,9.5789 L 11.5803,9.5929 L 11.6363,9.6210 L 11.7623,9.6210 L 11.8183,9.5929 L 11.8603,9.5789 L 11.9443,9.4946 L 11.9583,9.4525 L 11.9863,9.3963 L 11.9863,9.3401 L 11.9863,8.4552 Z" stroke="#000000" stroke-width="0.1197" stroke-linecap="round" stroke-linejoin="round" fill="#333333"/>
        <path d="M 56.0110,6.2080 L 56.0110,6.1518 L 55.9970,6.1097 L 55.9410,6.0254 L 55.8569,5.9692 L 55.8149,5.9552 L 24.1687,5.9552 L 24.1267,5.9692 L 24.0427,6.0254 L 23.9867,6.1097 L 23.9727,6.1518 L 23.9727,6.2642 L 23.9867,6.3063 L 24.0427,6.3906 L 24.1267,6.4468 L 24.1687,6.4608 L 55.8149,6.4608 L 55.8569,6.4468 L 55.9410,6.3906 L 55.9970,6.3063 L 56.0110,6.2642 L 56.0110,6.2080 Z" stroke="#7F7F7F" stroke-width="0.1197" stroke-linecap="round" stroke-linejoin="round" fill="#7F7F7F"/>
        <ellipse cx="2.2205" cy="2.6817" rx="0.9316" ry="0.9361" fill="#000000" stroke="#000000" stroke-width="0.1197" stroke-linecap="round" stroke-linejoin="round"/>
        <ellipse cx="2.2205" cy="2.6817" rx="0.9316" ry="0.9361" fill="none" stroke="#000000" stroke-width="0.1197" stroke-linecap="round" stroke-linejoin="round"/>
        <ellipse cx="2.2205" cy="2.6817" rx="0.7355" ry="0.7390" fill="#BCBC7E" stroke="#000000" stroke-width="0.1197" stroke-linecap="round" stroke-linejoin="round"/>
        <ellipse cx="2.2205" cy="2.6817" rx="0.7355" ry="0.7390" fill="none" stroke="#BCBC7E" stroke-width="0.1197" stroke-linecap="round" stroke-linejoin="round"/>
        <ellipse cx="2.2205" cy="2.6817" rx="0.0771" ry="0.0774" fill="#000000" stroke="#000000" stroke-width="0.1197" stroke-linecap="round" stroke-linejoin="round"/>
        <ellipse cx="2.2205" cy="2.6817" rx="0.0771" ry="0.0774" fill="none" stroke="#000000" stroke-width="0.1197" stroke-linecap="round" stroke-linejoin="round"/>
        <ellipse cx="58.3132" cy="2.6817" rx="0.9316" ry="0.9361" fill="#000000" stroke="#000000" stroke-width="0.1197" stroke-linecap="round" stroke-linejoin="round"/>
        <ellipse cx="58.3132" cy="2.6817" rx="0.9316" ry="0.9361" fill="none" stroke="#000000" stroke-width="0.1197" stroke-linecap="round" stroke-linejoin="round"/>
        <ellipse cx="58.3202" cy="2.6817" rx="0.7425" ry="0.7390" fill="#BCBC7E" stroke="#000000" stroke-width="0.1197" stroke-linecap="round" stroke-linejoin="round"/>
        <ellipse cx="58.3202" cy="2.6817" rx="0.7425" ry="0.7390" fill="none" stroke="#BCBC7E" stroke-width="0.1197" stroke-linecap="round" stroke-linejoin="round"/>
        <ellipse cx="58.3202" cy="2.6817" rx="0.0841" ry="0.0774" fill="#000000" stroke="#000000" stroke-width="0.1197" stroke-linecap="round" stroke-linejoin="round"/>
        <ellipse cx="58.3202" cy="2.6817" rx="0.0841" ry="0.0774" fill="none" stroke="#000000" stroke-width="0.1197" stroke-linecap="round" stroke-linejoin="round"/>
        <text font-family="Arial" fill="#000000" style="white-space:pre;" font-weight="400" text-anchor="start" x="60.1134" y="4.9671" font-size="0.1541"><![CDATA[USB]]></text>
        <ellipse cx="2.4297" cy="10.4303" rx="0.2414" ry="0.2375" fill="#666666" stroke="#000000" stroke-width="0.1197" stroke-linecap="round" stroke-linejoin="round"/>
        <ellipse cx="2.4297" cy="10.4303" rx="0.2414" ry="0.2375" fill="none" stroke="#0A0A0A" stroke-width="0.1197" stroke-linecap="round" stroke-linejoin="round"/>
        <text font-family="Arial" fill="#000000" style="white-space:pre;" font-weight="400" text-anchor="start" x="8.1263" y="10.9451" font-size="0.1130"><![CDATA[13]]></text>
        <text font-family="Arial" fill="#000000" style="white-space:pre;" font-weight="400" text-anchor="start" x="8.8762" y="10.9451" font-size="0.1130"><![CDATA[11]]></text>
        <text font-family="Arial" fill="#000000" style="white-space:pre;" font-weight="400" text-anchor="start" x="8.8762" y="12.5974" font-size="0.1130"><![CDATA[12]]></text>
        <text font-family="Arial" fill="#000000" style="white-space:pre;" font-weight="400" text-anchor="start" x="8.1263" y="12.5974" font-size="0.1130"><![CDATA[14]]></text>
        <text font-family="Arial" fill="#000000" style="white-space:pre;" font-weight="400" text-anchor="start" x="9.6570" y="10.9451" font-size="0.1130"><![CDATA[9]]></text>
        <text font-family="Arial" fill="#000000" style="white-space:pre;" font-weight="400" text-anchor="start" x="10.4069" y="10.9451" font-size="0.1130"><![CDATA[7]]></text>
        <text font-family="Arial" fill="#000000" style="white-space:pre;" font-weight="400" text-anchor="start" x="11.1672" y="10.9451" font-size="0.1130"><![CDATA[5]]></text>
        <text font-family="Arial" fill="#000000" style="white-space:pre;" font-weight="400" text-anchor="start" x="11.9171" y="10.9451" font-size="0.1130"><![CDATA[3]]></text>
        <text font-family="Arial" fill="#000000" style="white-space:pre;" font-weight="400" text-anchor="start" x="12.6671" y="10.9451" font-size="0.1130"><![CDATA[1]]></text>
        <text font-family="Arial" fill="#000000" style="white-space:pre;" font-weight="400" text-anchor="start" x="7.2633" y="10.9451" font-size="0.1130"><![CDATA[WAN 1]]></text>
        <text font-family="Arial" fill="#000000" style="white-space:pre;" font-weight="400" text-anchor="start" x="9.6262" y="12.5974" font-size="0.1130"><![CDATA[10]]></text>
        <text font-family="Arial" fill="#000000" style="white-space:pre;" font-weight="400" text-anchor="start" x="10.4378" y="12.5974" font-size="0.1130"><![CDATA[8]]></text>
        <text font-family="Arial" fill="#000000" style="white-space:pre;" font-weight="400" text-anchor="start" x="11.1775" y="12.5974" font-size="0.1130"><![CDATA[6]]></text>
        <text font-family="Arial" fill="#000000" style="white-space:pre;" font-weight="400" text-anchor="start" x="11.9274" y="12.5974" font-size="0.1130"><![CDATA[4]]></text>
        <text font-family="Arial" fill="#000000" style="white-space:pre;" font-weight="400" text-anchor="start" x="12.6671" y="12.5974" font-size="0.1130"><![CDATA[2]]></text>
        <text font-family="Arial" fill="#000000" style="white-space:pre;" font-weight="400" text-anchor="start" x="7.2633" y="12.5974" font-size="0.1130"><![CDATA[WAN 2]]></text>
        <text font-family="Arial" fill="#000000" style="white-space:pre;" font-weight="400" text-anchor="start" x="3.5649" y="12.5561" font-size="0.1130"><![CDATA[DC+12V]]></text>
        <path d="M 2.4796,8.4413 L 2.4796,9.1629 " stroke="#000000" stroke-width="0.1197" stroke-linecap="round" stroke-linejoin="round" fill="none"/>
        <path d="M 1.9613,9.3127 L 2.9980,9.3127 " stroke="#000000" stroke-width="0.1197" stroke-linecap="round" stroke-linejoin="round" fill="none"/>
        <path d="M 2.1294,9.4760 L 2.8439,9.4760 " stroke="#000000" stroke-width="0.1197" stroke-linecap="round" stroke-linejoin="round" fill="none"/>
        <path d="M 2.1294,9.4760 L 2.8439,9.4760 " stroke="#000000" stroke-width="0.1197" stroke-linecap="round" stroke-linejoin="round" fill="none"/>
        <path d="M 2.3115,9.6530 L 2.6477,9.6530 " stroke="#000000" stroke-width="0.1197" stroke-linecap="round" stroke-linejoin="round" fill="none"/>
        <path d="M 52.5584,5.7082 L 52.5584,3.5832 L 53.4481,3.5832 L 53.4481,3.0832 L 53.8095,3.0832 L 53.8095,2.5833 L 54.8660,2.5833 L 54.8660,3.0832 L 55.2274,3.0832 L 55.2274,3.5832 L 56.1170,3.5832 L 56.1170,5.7082 L 52.5584,5.7082 Z" stroke="#161616" stroke-width="0.1197" stroke-linecap="round" stroke-linejoin="round" fill="#000000"/>
        <path d="M 52.5584,6.7498 L 52.5584,8.8748 L 53.4481,8.8748 L 53.4481,9.3747 L 53.8095,9.3747 L 53.8095,9.8747 L 54.8660,9.8747 L 54.8660,9.3747 L 55.2274,9.3747 L 55.2274,8.8748 L 56.1170,8.8748 L 56.1170,6.7498 L 52.5584,6.7498 Z" stroke="#161616" stroke-width="0.1197" stroke-linecap="round" stroke-linejoin="round" fill="#000000"/>
        <path d="M 48.4716,5.7082 L 48.4716,3.5832 L 49.3613,3.5832 L 49.3613,3.0832 L 49.7227,3.0832 L 49.7227,2.5833 L 50.7792,2.5833 L 50.7792,3.0832 L 51.1406,3.0832 L 51.1406,3.5832 L 52.0302,3.5832 L 52.0302,5.7082 L 48.4716,5.7082 Z" stroke="#161616" stroke-width="0.1197" stroke-linecap="round" stroke-linejoin="round" fill="#000000"/>
        <path d="M 48.4716,6.7498 L 48.4716,8.8748 L 49.3613,8.8748 L 49.3613,9.3747 L 49.7227,9.3747 L 49.7227,9.8747 L 50.7792,9.8747 L 50.7792,9.3747 L 51.1406,9.3747 L 51.1406,8.8748 L 52.0302,8.8748 L 52.0302,6.7498 L 48.4716,6.7498 Z" stroke="#161616" stroke-width="0.1197" stroke-linecap="round" stroke-linejoin="round" fill="#000000"/>
        <path d="M 44.3848,5.7082 L 44.3848,3.5832 L 45.2745,3.5832 L 45.2745,3.0832 L 45.6359,3.0832 L 45.6359,2.5833 L 46.6924,2.5833 L 46.6924,3.0832 L 47.0538,3.0832 L 47.0538,3.5832 L 47.9434,3.5832 L 47.9434,5.7082 L 44.3848,5.7082 Z" stroke="#161616" stroke-width="0.1197" stroke-linecap="round" stroke-linejoin="round" fill="#000000"/>
        <path d="M 44.3848,6.7498 L 44.3848,8.8748 L 45.2745,8.8748 L 45.2745,9.3747 L 45.6359,9.3747 L 45.6359,9.8747 L 46.6924,9.8747 L 46.6924,9.3747 L 47.0538,9.3747 L 47.0538,8.8748 L 47.9434,8.8748 L 47.9434,6.7498 L 44.3848,6.7498 Z" stroke="#161616" stroke-width="0.1197" stroke-linecap="round" stroke-linejoin="round" fill="#000000"/>
        <path d="M 40.2841,5.7082 L 40.2841,3.5832 L 41.1738,3.5832 L 41.1738,3.0832 L 41.5352,3.0832 L 41.5352,2.5833 L 42.5917,2.5833 L 42.5917,3.0832 L 42.9531,3.0832 L 42.9531,3.5832 L 43.8427,3.5832 L 43.8427,5.7082 L 40.2841,5.7082 Z" stroke="#161616" stroke-width="0.1197" stroke-linecap="round" stroke-linejoin="round" fill="#000000"/>
        <path d="M 40.2841,6.7498 L 40.2841,8.8748 L 41.1738,8.8748 L 41.1738,9.3747 L 41.5352,9.3747 L 41.5352,9.8747 L 42.5917,9.8747 L 42.5917,9.3747 L 42.9531,9.3747 L 42.9531,8.8748 L 43.8427,8.8748 L 43.8427,6.7498 L 40.2841,6.7498 Z" stroke="#161616" stroke-width="0.1197" stroke-linecap="round" stroke-linejoin="round" fill="#000000"/>
        <path d="M 36.1417,5.7082 L 36.1417,3.5832 L 37.0314,3.5832 L 37.0314,3.0832 L 37.3928,3.0832 L 37.3928,2.5833 L 38.4493,2.5833 L 38.4493,3.0832 L 38.8107,3.0832 L 38.8107,3.5832 L 39.7003,3.5832 L 39.7003,5.7082 L 36.1417,5.7082 Z" stroke="#161616" stroke-width="0.1197" stroke-linecap="round" stroke-linejoin="round" fill="#000000"/>
        <path d="M 36.1417,6.7498 L 36.1417,8.8748 L 37.0314,8.8748 L 37.0314,9.3747 L 37.3928,9.3747 L 37.3928,9.8747 L 38.4493,9.8747 L 38.4493,9.3747 L 38.8107,9.3747 L 38.8107,8.8748 L 39.7003,8.8748 L 39.7003,6.7498 L 36.1417,6.7498 Z" stroke="#161616" stroke-width="0.1197" stroke-linecap="round" stroke-linejoin="round" fill="#000000"/>
        <path d="M 32.0550,5.7082 L 32.0550,3.5832 L 32.9446,3.5832 L 32.9446,3.0832 L 33.3060,3.0832 L 33.3060,2.5833 L 34.3625,2.5833 L 34.3625,3.0832 L 34.7239,3.0832 L 34.7239,3.5832 L 35.6135,3.5832 L 35.6135,5.7082 L 32.0550,5.7082 Z" stroke="#161616" stroke-width="0.1197" stroke-linecap="round" stroke-linejoin="round" fill="#000000"/>
        <path d="M 32.0550,6.7498 L 32.0550,8.8748 L 32.9446,8.8748 L 32.9446,9.3747 L 33.3060,9.3747 L 33.3060,9.8747 L 34.3625,9.8747 L 34.3625,9.3747 L 34.7239,9.3747 L 34.7239,8.8748 L 35.6135,8.8748 L 35.6135,6.7498 L 32.0550,6.7498 Z" stroke="#161616" stroke-width="0.1197" stroke-linecap="round" stroke-linejoin="round" fill="#000000"/>
        <path d="M 27.9682,5.7082 L 27.9682,3.5832 L 28.8578,3.5832 L 28.8578,3.0832 L 29.2192,3.0832 L 29.2192,2.5833 L 30.2757,2.5833 L 30.2757,3.0832 L 30.6371,3.0832 L 30.6371,3.5832 L 31.5267,3.5832 L 31.5267,5.7082 L 27.9682,5.7082 Z" stroke="#161616" stroke-width="0.1197" stroke-linecap="round" stroke-linejoin="round" fill="#000000"/>
        <path d="M 27.9682,6.7498 L 27.9682,8.8748 L 28.8578,8.8748 L 28.8578,9.3747 L 29.2192,9.3747 L 29.2192,9.8747 L 30.2757,9.8747 L 30.2757,9.3747 L 30.6371,9.3747 L 30.6371,8.8748 L 31.5267,8.8748 L 31.5267,6.7498 L 27.9682,6.7498 Z" stroke="#161616" stroke-width="0.1197" stroke-linecap="round" stroke-linejoin="round" fill="#000000"/>
        <path d="M 23.8675,5.7082 L 23.8675,3.5832 L 24.7571,3.5832 L 24.7571,3.0832 L 25.1185,3.0832 L 25.1185,2.5833 L 26.1750,2.5833 L 26.1750,3.0832 L 26.5364,3.0832 L 26.5364,3.5832 L 27.4260,3.5832 L 27.4260,5.7082 L 23.8675,5.7082 Z" stroke="#161616" stroke-width="0.1197" stroke-linecap="round" stroke-linejoin="round" fill="#000000"/>
        <path d="M 23.8675,6.7498 L 23.8675,8.8748 L 24.7571,8.8748 L 24.7571,9.3747 L 25.1185,9.3747 L 25.1185,9.8747 L 26.1750,9.8747 L 26.1750,9.3747 L 26.5364,9.3747 L 26.5364,8.8748 L 27.4260,8.8748 L 27.4260,6.7498 L 23.8675,6.7498 Z" stroke="#161616" stroke-width="0.1197" stroke-linecap="round" stroke-linejoin="round" fill="#000000"/>
        <path d="M 7.9062,9.1861 L 7.9062,9.2213 L 7.9178,9.2213 L 7.9178,9.2449 L 7.9294,9.2566 L 7.9294,9.2684 L 7.9410,9.2684 L 7.9410,9.2801 L 7.9526,9.2801 L 7.9526,9.2919 L 7.9642,9.2919 L 7.9758,9.3037 L 7.9990,9.3037 L 7.9990,9.3154 L 9.1350,9.3154 L 9.1350,9.3037 L 9.1582,9.3037 L 9.1698,9.2919 L 9.1814,9.2919 L 9.1814,9.2801 L 9.1930,9.2801 L 9.1930,9.2684 L 9.2046,9.2684 L 9.2046,9.2566 L 9.2162,9.2449 L 9.2162,9.2213 L 9.2278,9.2213 L 9.2278,6.2809 L 9.2162,6.2809 L 9.2162,6.2573 L 9.2046,6.2456 L 9.2046,6.2338 L 9.1930,6.2338 L 9.1930,6.2221 L 9.1814,6.2221 L 9.1814,6.2103 L 9.1698,6.2103 L 9.1582,6.1985 L 9.1350,6.1985 L 9.1350,6.1868 L 7.9990,6.1868 L 7.9990,6.1985 L 7.9758,6.1985 L 7.9642,6.2103 L 7.9526,6.2103 L 7.9526,6.2221 L 7.9410,6.2221 L 7.9410,6.2338 L 7.9294,6.2338 L 7.9294,6.2456 L 7.9178,6.2573 L 7.9178,6.2809 L 7.9062,6.2809 L 7.9062,9.1743 L 7.9062,9.1861 Z" stroke="#000000" stroke-width="0.1197" stroke-linecap="round" stroke-linejoin="round" fill="#BFBFBF"/>
        <path d="M 8.0106,9.1390 L 8.0106,9.1743 L 8.0221,9.1743 L 8.0221,9.1861 L 8.0337,9.1978 L 8.0453,9.1978 L 8.0453,9.2096 L 9.0887,9.2096 L 9.1003,9.1978 L 9.1119,9.1978 L 9.1119,9.1861 L 9.1235,9.1861 L 9.1235,9.1743 L 9.1350,9.1625 L 9.1350,6.3279 L 9.1235,6.3279 L 9.1235,6.3161 L 9.1119,6.3161 L 9.1119,6.3044 L 9.1003,6.3044 L 9.0887,6.2926 L 8.0453,6.2926 L 8.0453,6.3044 L 8.0337,6.3044 L 8.0221,6.3161 L 8.0221,6.3279 L 8.0106,6.3279 L 8.0106,9.1272 L 8.0106,9.1390 Z" stroke="#333333" stroke-width="0.1197" stroke-linecap="round" stroke-linejoin="round" fill="#000000"/>
        <path d="M 8.5902,8.5156 L 8.5902,8.7744 L 8.5322,8.7744 L 8.5322,8.5156 L 8.5902,8.5156 Z" stroke="#000000" stroke-width="0.1197" stroke-linecap="round" stroke-linejoin="round" fill="#E2E2CC"/>
        <path d="M 8.5902,7.9275 L 8.5902,8.1863 L 8.5322,8.1863 L 8.5322,7.9275 L 8.5902,7.9275 Z" stroke="#000000" stroke-width="0.1197" stroke-linecap="round" stroke-linejoin="round" fill="#E2E2CC"/>
        <path d="M 8.5902,7.3512 L 8.5902,7.6100 L 8.5322,7.6100 L 8.5322,7.3512 L 8.5902,7.3512 Z" stroke="#000000" stroke-width="0.1197" stroke-linecap="round" stroke-linejoin="round" fill="#E2E2CC"/>
        <path d="M 8.5902,6.7513 L 8.5902,7.0101 L 8.5322,7.0101 L 8.5322,6.7513 L 8.5902,6.7513 Z" stroke="#000000" stroke-width="0.1197" stroke-linecap="round" stroke-linejoin="round" fill="#E2E2CC"/>
        <path d="M 8.2308,6.4691 L 8.2076,6.4691 L 8.1844,6.4808 L 8.1729,6.5043 L 8.1729,8.9979 L 8.1844,9.0214 L 8.2076,9.0331 L 8.4974,9.0331 L 8.5206,9.0214 L 8.5322,8.9979 L 8.5322,6.5043 L 8.5206,6.4808 L 8.4974,6.4691 L 8.4743,6.4691 L 8.2308,6.4691 Z" stroke="#000000" stroke-width="0.1197" stroke-linecap="round" stroke-linejoin="round" fill="#7F7F7F"/>
        <path d="M 8.3467,6.5631 L 8.3004,6.5749 L 8.2540,6.6220 L 8.2424,6.6690 L 8.2424,8.8332 L 8.2540,8.8802 L 8.3004,8.9273 L 8.3467,8.9391 L 8.3931,8.9273 L 8.4395,8.8802 L 8.4511,8.8332 L 8.4511,6.6690 L 8.4395,6.6220 L 8.3931,6.5749 L 8.3467,6.5631 Z" stroke="#999999" stroke-width="0.1197" stroke-linecap="round" stroke-linejoin="round" fill="#999999"/>
        <path d="M 6.6438,4.5073 L 6.6438,9.2666 L 4.7101,9.2666 L 4.7101,4.5073 L 5.0830,4.5073 L 5.0830,4.8853 L 6.2709,4.8853 L 6.2709,4.5073 L 6.6438,4.5073 Z" stroke="#000000" stroke-width="0.1197" stroke-linecap="round" stroke-linejoin="round" fill="#000000"/>
        <path d="M 6.5886,5.0252 L 4.7653,5.0252 L 4.7653,9.1966 L 6.5886,9.1966 L 6.5886,5.0252 Z" stroke="#000000" stroke-width="0.1197" stroke-linecap="round" stroke-linejoin="round" fill="#666666"/>
        <path d="M 6.3952,7.2789 L 4.9587,7.2789 L 4.9587,8.7347 L 6.3952,8.7347 L 6.3952,7.2789 Z" stroke="#000000" stroke-width="0.1197" stroke-linecap="round" stroke-linejoin="round" fill="#000000"/>
        <ellipse cx="5.6148" cy="7.9438" rx="0.1174" ry="0.1190" fill="#BFBFBF" stroke="#000000" stroke-width="0.1197" stroke-linecap="round" stroke-linejoin="round"/>
        <ellipse cx="5.6148" cy="7.9438" rx="0.1174" ry="0.1190" fill="none" stroke="#000000" stroke-width="0.1197" stroke-linecap="round" stroke-linejoin="round"/>
        <path d="M 6.3952,5.5152 L 4.9587,5.5152 L 4.9587,6.6070 L 5.3178,6.9709 L 6.0637,6.9709 L 6.3952,6.6350 L 6.3952,5.5152 Z" stroke="#000000" stroke-width="0.1197" stroke-linecap="round" stroke-linejoin="round" fill="#000000"/>
        <ellipse cx="5.6148" cy="6.1801" rx="0.1174" ry="0.1190" fill="#BFBFBF" stroke="#000000" stroke-width="0.1197" stroke-linecap="round" stroke-linejoin="round"/>
        <ellipse cx="5.6148" cy="6.1801" rx="0.1174" ry="0.1190" fill="none" stroke="#000000" stroke-width="0.1197" stroke-linecap="round" stroke-linejoin="round"/>
        <ellipse cx="2.4191" cy="6.9745" rx="0.9503" ry="0.9550" fill="#666666" stroke="#000000" stroke-width="0.1197" stroke-linecap="round" stroke-linejoin="round"/>
        <ellipse cx="2.4191" cy="6.9745" rx="0.9503" ry="0.9550" fill="none" stroke="#000000" stroke-width="0.1197" stroke-linecap="round" stroke-linejoin="round"/>
        <ellipse cx="2.4191" cy="6.9745" rx="0.8640" ry="0.8682" fill="#7F7F7F" stroke="#000000" stroke-width="0.1197" stroke-linecap="round" stroke-linejoin="round"/>
        <ellipse cx="2.4191" cy="6.9745" rx="0.8640" ry="0.8682" fill="none" stroke="#7F7F7F" stroke-width="0.1197" stroke-linecap="round" stroke-linejoin="round"/>
        <path d="M 1.7567,6.8877 L 1.7279,6.8877 L 1.6991,6.9166 L 1.6991,6.9455 L 1.6703,6.9455 L 1.6703,7.1192 L 1.6991,7.1192 L 1.6991,7.1481 L 1.7279,7.1771 L 2.3327,7.1771 L 2.3327,7.8137 L 2.3615,7.8137 L 2.3615,7.8427 L 2.3903,7.8427 L 2.3903,7.8716 L 2.5631,7.8716 L 2.5631,7.8427 L 2.5919,7.8427 L 2.5919,7.8137 L 2.6207,7.8137 L 2.6207,7.1771 L 3.2542,7.1771 L 3.2542,7.1481 L 3.2830,7.1481 L 3.2830,7.1192 L 3.3118,7.1192 L 3.3118,6.9455 L 3.2830,6.9455 L 3.2830,6.9166 L 3.2542,6.9166 L 3.2542,6.8877 L 2.6207,6.8877 L 2.6207,6.2799 L 2.5919,6.2510 L 2.5631,6.2510 L 2.5631,6.2221 L 2.3903,6.2221 L 2.3903,6.2510 L 2.3615,6.2510 L 2.3327,6.2799 L 2.3327,6.8877 L 1.7855,6.8877 L 1.7567,6.8877 Z" stroke="#161616" stroke-width="0.1197" stroke-linecap="round" stroke-linejoin="round" fill="#494949"/>
        <path d="M 1.6415,6.9745 L 1.6415,7.1192 L 1.6703,7.1481 L 1.6991,7.1481 L 1.6991,7.1771 L 2.3327,7.1771 L 2.3327,7.8427 L 2.3615,7.8716 L 2.3903,7.8716 L 2.3903,7.9006 L 2.4767,7.9006 L 2.5055,7.9006 " stroke="#BFBFBF" stroke-width="0.1197" stroke-linecap="round" stroke-linejoin="round" fill="none"/>
        <path d="M 2.3327,6.2799 L 2.3327,6.8587 L 2.3327,6.8877 " stroke="#BFBFBF" stroke-width="0.1197" stroke-linecap="round" stroke-linejoin="round" fill="none"/>
        <path d="M 2.4936,2.5887 L 2.1294,2.5887 L 2.1294,2.9566 L 2.4936,2.9566 L 2.4936,2.5887 " stroke="none" stroke-width="0.0" fill="none"/>
        <path d="M 58.5864,2.5887 L 58.2221,2.5887 L 58.2221,2.9566 L 58.5864,2.9566 L 58.5864,2.5887 " stroke="none" stroke-width="0.0" fill="none"/>
      </g>
      <!--emf-blob end-->
    </g>
  </g>
</svg>
