<svg xmlns="http://www.w3.org/2000/svg" xmlns:xlink="http://www.w3.org/1999/xlink" version="1.1" width="3.4032000000" height="0.6032000000" viewBox="0 0 61.2567 10.8567">
  <title><![CDATA[FG/FWF-40/41F]]></title>
  <g transform=" scale(4.000000) ">
    <!--converted by libvisio2svg-->
    <g transform=" translate(576.000000,-756.000000) ">
      <!--emf-blob start-->
      <g transform="translate(-0.0000, -0.0000)">
        <path d="M 0.0279,9.2577 L 0.0279,9.3278 L 0.0419,9.3558 L 0.0419,9.3839 L 0.0558,9.3979 L 0.0558,9.4260 L 0.0698,9.4400 L 0.0698,9.4681 L 0.0838,9.4821 L 0.0977,9.5101 L 0.1257,9.5382 L 0.1396,9.5662 L 0.1955,9.6223 L 0.2234,9.6364 L 0.2513,9.6644 L 0.2792,9.6785 L 0.2932,9.6925 L 0.3211,9.6925 L 0.3351,9.7065 L 0.3630,9.7065 L 0.3770,9.7205 L 0.4049,9.7205 L 0.4328,9.7346 L 60.3845,9.7346 L 60.4124,9.7205 L 60.4404,9.7205 L 60.4543,9.7065 L 60.4822,9.7065 L 60.4962,9.6925 L 60.5241,9.6925 L 60.5381,9.6785 L 60.5660,9.6644 L 60.5939,9.6364 L 60.6219,9.6223 L 60.6777,9.5662 L 60.6917,9.5382 L 60.7196,9.5101 L 60.7335,9.4821 L 60.7475,9.4681 L 60.7475,9.4400 L 60.7615,9.4260 L 60.7615,9.3979 L 60.7754,9.3839 L 60.7754,9.3558 L 60.7894,9.3278 L 60.7894,0.4348 L 60.7754,0.4068 L 60.7754,0.3787 L 60.7615,0.3647 L 60.7615,0.3366 L 60.7475,0.3226 L 60.7475,0.2946 L 60.7335,0.2805 L 60.7196,0.2525 L 60.6917,0.2244 L 60.6777,0.1964 L 60.6219,0.1403 L 60.5939,0.1262 L 60.5660,0.0982 L 60.5381,0.0842 L 60.5241,0.0701 L 60.4962,0.0701 L 60.4822,0.0561 L 60.4543,0.0561 L 60.4404,0.0421 L 60.4124,0.0421 L 60.3845,0.0281 L 0.4328,0.0281 L 0.4049,0.0421 L 0.3770,0.0421 L 0.3630,0.0561 L 0.3351,0.0561 L 0.3211,0.0701 L 0.2932,0.0701 L 0.2792,0.0842 L 0.2513,0.0982 L 0.2234,0.1262 L 0.1955,0.1403 L 0.1396,0.1964 L 0.1257,0.2244 L 0.0977,0.2525 L 0.0838,0.2805 L 0.0698,0.2946 L 0.0698,0.3226 L 0.0558,0.3366 L 0.0558,0.3647 L 0.0419,0.3787 L 0.0419,0.4068 L 0.0279,0.4348 L 0.0279,9.2296 L 0.0279,9.2577 Z" stroke="#000000" stroke-width="0.1193" stroke-linecap="round" stroke-linejoin="round" fill="#EAEAEA"/>
        <path d="M 5.1379,9.7346 L 1.1309,9.7346 L 1.3264,10.8006 L 4.9425,10.8006 L 5.1379,9.7346 Z" stroke="#000000" stroke-width="0.1193" stroke-linecap="round" stroke-linejoin="round" fill="#333333"/>
        <path d="M 59.7004,9.7346 L 55.6934,9.7346 L 55.8888,10.8006 L 59.5049,10.8006 L 59.7004,9.7346 Z" stroke="#000000" stroke-width="0.1193" stroke-linecap="round" stroke-linejoin="round" fill="#333333"/>
        <path d="M 14.7017,2.9176 L 10.1502,2.9176 L 10.1502,6.7889 L 14.7017,6.7889 L 14.7017,2.9176 Z" stroke="#000000" stroke-width="0.1193" stroke-linecap="round" stroke-linejoin="round" fill="#666666"/>
        <path d="M 56.2798,2.9176 L 36.5379,2.9176 L 36.5379,6.7889 L 56.2798,6.7889 L 56.2798,2.9176 Z" stroke="#000000" stroke-width="0.1193" stroke-linecap="round" stroke-linejoin="round" fill="#666666"/>
        <path d="M 9.3404,1.7954 L 9.3404,1.7393 L 9.3264,1.6972 L 9.2706,1.6131 L 9.1868,1.5570 L 9.1449,1.5429 L 8.1118,1.5429 L 8.0699,1.5570 L 7.9861,1.6131 L 7.9303,1.6972 L 7.9163,1.7393 L 7.9163,1.8515 L 7.9303,1.8936 L 7.9861,1.9778 L 8.0699,2.0339 L 8.1118,2.0479 L 9.1449,2.0479 L 9.1868,2.0339 L 9.2706,1.9778 L 9.3264,1.8936 L 9.3404,1.8515 L 9.3404,1.7954 Z" stroke="#000000" stroke-width="0.1193" stroke-linecap="round" stroke-linejoin="round" fill="#000000"/>
        <path d="M 11.5184,1.7954 L 11.5184,1.7393 L 11.5045,1.6972 L 11.4486,1.6131 L 11.3649,1.5570 L 11.3230,1.5429 L 10.2898,1.5429 L 10.2479,1.5570 L 10.1641,1.6131 L 10.1083,1.6972 L 10.0943,1.7393 L 10.0943,1.8515 L 10.1083,1.8936 L 10.1641,1.9778 L 10.2479,2.0339 L 10.2898,2.0479 L 11.3230,2.0479 L 11.3649,2.0339 L 11.4486,1.9778 L 11.5045,1.8936 L 11.5184,1.8515 L 11.5184,1.7954 Z" stroke="#000000" stroke-width="0.1193" stroke-linecap="round" stroke-linejoin="round" fill="#000000"/>
        <path d="M 13.6825,1.7954 L 13.6825,1.7393 L 13.6685,1.6972 L 13.6127,1.6131 L 13.5289,1.5570 L 13.4870,1.5429 L 12.4539,1.5429 L 12.4120,1.5570 L 12.3282,1.6131 L 12.2724,1.6972 L 12.2584,1.7393 L 12.2584,1.8515 L 12.2724,1.8936 L 12.3282,1.9778 L 12.4120,2.0339 L 12.4539,2.0479 L 13.4870,2.0479 L 13.5289,2.0339 L 13.6127,1.9778 L 13.6685,1.8936 L 13.6825,1.8515 L 13.6825,1.7954 Z" stroke="#000000" stroke-width="0.1193" stroke-linecap="round" stroke-linejoin="round" fill="#000000"/>
        <path d="M 15.8605,1.7954 L 15.8605,1.7393 L 15.8466,1.6972 L 15.7907,1.6131 L 15.7070,1.5570 L 15.6651,1.5429 L 14.6319,1.5429 L 14.5900,1.5570 L 14.5062,1.6131 L 14.4504,1.6972 L 14.4364,1.7393 L 14.4364,1.8515 L 14.4504,1.8936 L 14.5062,1.9778 L 14.5900,2.0339 L 14.6319,2.0479 L 15.6651,2.0479 L 15.7070,2.0339 L 15.7907,1.9778 L 15.8466,1.8936 L 15.8605,1.8515 L 15.8605,1.7954 Z" stroke="#000000" stroke-width="0.1193" stroke-linecap="round" stroke-linejoin="round" fill="#000000"/>
        <path d="M 18.0246,1.7954 L 18.0246,1.7393 L 18.0106,1.6972 L 17.9548,1.6131 L 17.8710,1.5570 L 17.8291,1.5429 L 16.7960,1.5429 L 16.7541,1.5570 L 16.6703,1.6131 L 16.6145,1.6972 L 16.6005,1.7393 L 16.6005,1.8515 L 16.6145,1.8936 L 16.6703,1.9778 L 16.7541,2.0339 L 16.7960,2.0479 L 17.8291,2.0479 L 17.8710,2.0339 L 17.9548,1.9778 L 18.0106,1.8936 L 18.0246,1.8515 L 18.0246,1.7954 Z" stroke="#000000" stroke-width="0.1193" stroke-linecap="round" stroke-linejoin="round" fill="#000000"/>
        <path d="M 20.2026,1.7954 L 20.2026,1.7393 L 20.1887,1.6972 L 20.1328,1.6131 L 20.0491,1.5570 L 20.0072,1.5429 L 18.9740,1.5429 L 18.9321,1.5570 L 18.8483,1.6131 L 18.7925,1.6972 L 18.7785,1.7393 L 18.7785,1.8515 L 18.7925,1.8936 L 18.8483,1.9778 L 18.9321,2.0339 L 18.9740,2.0479 L 20.0072,2.0479 L 20.0491,2.0339 L 20.1328,1.9778 L 20.1887,1.8936 L 20.2026,1.8515 L 20.2026,1.7954 Z" stroke="#000000" stroke-width="0.1193" stroke-linecap="round" stroke-linejoin="round" fill="#000000"/>
        <path d="M 22.3667,1.7954 L 22.3667,1.7393 L 22.3527,1.6972 L 22.2969,1.6131 L 22.2131,1.5570 L 22.1712,1.5429 L 21.1381,1.5429 L 21.0962,1.5570 L 21.0124,1.6131 L 20.9566,1.6972 L 20.9426,1.7393 L 20.9426,1.8515 L 20.9566,1.8936 L 21.0124,1.9778 L 21.0962,2.0339 L 21.1381,2.0479 L 22.1712,2.0479 L 22.2131,2.0339 L 22.2969,1.9778 L 22.3527,1.8936 L 22.3667,1.8515 L 22.3667,1.7954 Z" stroke="#000000" stroke-width="0.1193" stroke-linecap="round" stroke-linejoin="round" fill="#000000"/>
        <path d="M 24.5447,1.7954 L 24.5447,1.7393 L 24.5308,1.6972 L 24.4749,1.6131 L 24.3912,1.5570 L 24.3493,1.5429 L 23.3161,1.5429 L 23.2742,1.5570 L 23.1904,1.6131 L 23.1346,1.6972 L 23.1206,1.7393 L 23.1206,1.8515 L 23.1346,1.8936 L 23.1904,1.9778 L 23.2742,2.0339 L 23.3161,2.0479 L 24.3493,2.0479 L 24.3912,2.0339 L 24.4749,1.9778 L 24.5308,1.8936 L 24.5447,1.8515 L 24.5447,1.7954 Z" stroke="#000000" stroke-width="0.1193" stroke-linecap="round" stroke-linejoin="round" fill="#000000"/>
        <path d="M 26.7088,1.7954 L 26.7088,1.7393 L 26.6948,1.6972 L 26.6390,1.6131 L 26.5552,1.5570 L 26.5133,1.5429 L 25.4802,1.5429 L 25.4383,1.5570 L 25.3545,1.6131 L 25.2987,1.6972 L 25.2847,1.7393 L 25.2847,1.8515 L 25.2987,1.8936 L 25.3545,1.9778 L 25.4383,2.0339 L 25.4802,2.0479 L 26.5133,2.0479 L 26.5552,2.0339 L 26.6390,1.9778 L 26.6948,1.8936 L 26.7088,1.8515 L 26.7088,1.7954 Z" stroke="#000000" stroke-width="0.1193" stroke-linecap="round" stroke-linejoin="round" fill="#000000"/>
        <path d="M 28.8868,1.7954 L 28.8868,1.7393 L 28.8729,1.6972 L 28.8170,1.6131 L 28.7333,1.5570 L 28.6914,1.5429 L 27.6582,1.5429 L 27.6163,1.5570 L 27.5325,1.6131 L 27.4767,1.6972 L 27.4627,1.7393 L 27.4627,1.8515 L 27.4767,1.8936 L 27.5325,1.9778 L 27.6163,2.0339 L 27.6582,2.0479 L 28.6914,2.0479 L 28.7333,2.0339 L 28.8170,1.9778 L 28.8729,1.8936 L 28.8868,1.8515 L 28.8868,1.7954 Z" stroke="#000000" stroke-width="0.1193" stroke-linecap="round" stroke-linejoin="round" fill="#000000"/>
        <path d="M 33.2289,1.7954 L 33.2289,1.7393 L 33.2150,1.6972 L 33.1591,1.6131 L 33.0754,1.5570 L 33.0335,1.5429 L 32.0003,1.5429 L 31.9584,1.5570 L 31.8746,1.6131 L 31.8188,1.6972 L 31.8048,1.7393 L 31.8048,1.8515 L 31.8188,1.8936 L 31.8746,1.9778 L 31.9584,2.0339 L 32.0003,2.0479 L 33.0335,2.0479 L 33.0754,2.0339 L 33.1591,1.9778 L 33.2150,1.8936 L 33.2289,1.8515 L 33.2289,1.7954 Z" stroke="#000000" stroke-width="0.1193" stroke-linecap="round" stroke-linejoin="round" fill="#000000"/>
        <path d="M 35.3930,1.7954 L 35.3930,1.7393 L 35.3790,1.6972 L 35.3232,1.6131 L 35.2394,1.5570 L 35.1975,1.5429 L 34.1644,1.5429 L 34.1225,1.5570 L 34.0387,1.6131 L 33.9829,1.6972 L 33.9689,1.7393 L 33.9689,1.8515 L 33.9829,1.8936 L 34.0387,1.9778 L 34.1225,2.0339 L 34.1644,2.0479 L 35.1975,2.0479 L 35.2394,2.0339 L 35.3232,1.9778 L 35.3790,1.8936 L 35.3930,1.8515 L 35.3930,1.7954 Z" stroke="#000000" stroke-width="0.1193" stroke-linecap="round" stroke-linejoin="round" fill="#000000"/>
        <path d="M 37.5710,1.7954 L 37.5710,1.7393 L 37.5571,1.6972 L 37.5012,1.6131 L 37.4175,1.5570 L 37.3756,1.5429 L 36.3424,1.5429 L 36.3005,1.5570 L 36.2167,1.6131 L 36.1609,1.6972 L 36.1469,1.7393 L 36.1469,1.8515 L 36.1609,1.8936 L 36.2167,1.9778 L 36.3005,2.0339 L 36.3424,2.0479 L 37.3756,2.0479 L 37.4175,2.0339 L 37.5012,1.9778 L 37.5571,1.8936 L 37.5710,1.8515 L 37.5710,1.7954 Z" stroke="#000000" stroke-width="0.1193" stroke-linecap="round" stroke-linejoin="round" fill="#000000"/>
        <path d="M 39.7351,1.7954 L 39.7351,1.7393 L 39.7211,1.6972 L 39.6653,1.6131 L 39.5815,1.5570 L 39.5396,1.5429 L 38.5065,1.5429 L 38.4646,1.5570 L 38.3808,1.6131 L 38.3250,1.6972 L 38.3110,1.7393 L 38.3110,1.8515 L 38.3250,1.8936 L 38.3808,1.9778 L 38.4646,2.0339 L 38.5065,2.0479 L 39.5396,2.0479 L 39.5815,2.0339 L 39.6653,1.9778 L 39.7211,1.8936 L 39.7351,1.8515 L 39.7351,1.7954 Z" stroke="#000000" stroke-width="0.1193" stroke-linecap="round" stroke-linejoin="round" fill="#000000"/>
        <path d="M 41.9131,1.7954 L 41.9131,1.7393 L 41.8992,1.6972 L 41.8433,1.6131 L 41.7595,1.5570 L 41.7177,1.5429 L 40.6845,1.5429 L 40.6426,1.5570 L 40.5588,1.6131 L 40.5030,1.6972 L 40.4890,1.7393 L 40.4890,1.8515 L 40.5030,1.8936 L 40.5588,1.9778 L 40.6426,2.0339 L 40.6845,2.0479 L 41.7177,2.0479 L 41.7595,2.0339 L 41.8433,1.9778 L 41.8992,1.8936 L 41.9131,1.8515 L 41.9131,1.7954 Z" stroke="#000000" stroke-width="0.1193" stroke-linecap="round" stroke-linejoin="round" fill="#000000"/>
        <path d="M 44.0772,1.7954 L 44.0772,1.7393 L 44.0632,1.6972 L 44.0074,1.6131 L 43.9236,1.5570 L 43.8817,1.5429 L 42.8486,1.5429 L 42.8067,1.5570 L 42.7229,1.6131 L 42.6671,1.6972 L 42.6531,1.7393 L 42.6531,1.8515 L 42.6671,1.8936 L 42.7229,1.9778 L 42.8067,2.0339 L 42.8486,2.0479 L 43.8817,2.0479 L 43.9236,2.0339 L 44.0074,1.9778 L 44.0632,1.8936 L 44.0772,1.8515 L 44.0772,1.7954 Z" stroke="#000000" stroke-width="0.1193" stroke-linecap="round" stroke-linejoin="round" fill="#000000"/>
        <path d="M 46.2552,1.7954 L 46.2552,1.7393 L 46.2413,1.6972 L 46.1854,1.6131 L 46.1016,1.5570 L 46.0598,1.5429 L 45.0266,1.5429 L 44.9847,1.5570 L 44.9009,1.6131 L 44.8451,1.6972 L 44.8311,1.7393 L 44.8311,1.8515 L 44.8451,1.8936 L 44.9009,1.9778 L 44.9847,2.0339 L 45.0266,2.0479 L 46.0598,2.0479 L 46.1016,2.0339 L 46.1854,1.9778 L 46.2413,1.8936 L 46.2552,1.8515 L 46.2552,1.7954 Z" stroke="#000000" stroke-width="0.1193" stroke-linecap="round" stroke-linejoin="round" fill="#000000"/>
        <path d="M 48.4193,1.7954 L 48.4193,1.7393 L 48.4053,1.6972 L 48.3495,1.6131 L 48.2657,1.5570 L 48.2238,1.5429 L 47.1907,1.5429 L 47.1488,1.5570 L 47.0650,1.6131 L 47.0092,1.6972 L 46.9952,1.7393 L 46.9952,1.8515 L 47.0092,1.8936 L 47.0650,1.9778 L 47.1488,2.0339 L 47.1907,2.0479 L 48.2238,2.0479 L 48.2657,2.0339 L 48.3495,1.9778 L 48.4053,1.8936 L 48.4193,1.8515 L 48.4193,1.7954 Z" stroke="#000000" stroke-width="0.1193" stroke-linecap="round" stroke-linejoin="round" fill="#000000"/>
        <path d="M 50.5973,1.7954 L 50.5973,1.7393 L 50.5834,1.6972 L 50.5275,1.6131 L 50.4437,1.5570 L 50.4019,1.5429 L 49.3687,1.5429 L 49.3268,1.5570 L 49.2430,1.6131 L 49.1872,1.6972 L 49.1732,1.7393 L 49.1732,1.8515 L 49.1872,1.8936 L 49.2430,1.9778 L 49.3268,2.0339 L 49.3687,2.0479 L 50.4019,2.0479 L 50.4437,2.0339 L 50.5275,1.9778 L 50.5834,1.8936 L 50.5973,1.8515 L 50.5973,1.7954 Z" stroke="#000000" stroke-width="0.1193" stroke-linecap="round" stroke-linejoin="round" fill="#000000"/>
        <path d="M 9.3404,0.8136 L 9.3404,0.7574 L 9.3264,0.7154 L 9.2706,0.6312 L 9.1868,0.5751 L 9.1449,0.5611 L 8.1118,0.5611 L 8.0699,0.5751 L 7.9861,0.6312 L 7.9303,0.7154 L 7.9163,0.7574 L 7.9163,0.8697 L 7.9303,0.9117 L 7.9861,0.9959 L 8.0699,1.0520 L 8.1118,1.0660 L 9.1449,1.0660 L 9.1868,1.0520 L 9.2706,0.9959 L 9.3264,0.9117 L 9.3404,0.8697 L 9.3404,0.8136 Z" stroke="#000000" stroke-width="0.1193" stroke-linecap="round" stroke-linejoin="round" fill="#000000"/>
        <path d="M 11.5184,0.8136 L 11.5184,0.7574 L 11.5045,0.7154 L 11.4486,0.6312 L 11.3649,0.5751 L 11.3230,0.5611 L 10.2898,0.5611 L 10.2479,0.5751 L 10.1641,0.6312 L 10.1083,0.7154 L 10.0943,0.7574 L 10.0943,0.8697 L 10.1083,0.9117 L 10.1641,0.9959 L 10.2479,1.0520 L 10.2898,1.0660 L 11.3230,1.0660 L 11.3649,1.0520 L 11.4486,0.9959 L 11.5045,0.9117 L 11.5184,0.8697 L 11.5184,0.8136 Z" stroke="#000000" stroke-width="0.1193" stroke-linecap="round" stroke-linejoin="round" fill="#000000"/>
        <path d="M 13.6825,0.8136 L 13.6825,0.7574 L 13.6685,0.7154 L 13.6127,0.6312 L 13.5289,0.5751 L 13.4870,0.5611 L 12.4539,0.5611 L 12.4120,0.5751 L 12.3282,0.6312 L 12.2724,0.7154 L 12.2584,0.7574 L 12.2584,0.8697 L 12.2724,0.9117 L 12.3282,0.9959 L 12.4120,1.0520 L 12.4539,1.0660 L 13.4870,1.0660 L 13.5289,1.0520 L 13.6127,0.9959 L 13.6685,0.9117 L 13.6825,0.8697 L 13.6825,0.8136 Z" stroke="#000000" stroke-width="0.1193" stroke-linecap="round" stroke-linejoin="round" fill="#000000"/>
        <path d="M 15.8605,0.8136 L 15.8605,0.7574 L 15.8466,0.7154 L 15.7907,0.6312 L 15.7070,0.5751 L 15.6651,0.5611 L 14.6319,0.5611 L 14.5900,0.5751 L 14.5062,0.6312 L 14.4504,0.7154 L 14.4364,0.7574 L 14.4364,0.8697 L 14.4504,0.9117 L 14.5062,0.9959 L 14.5900,1.0520 L 14.6319,1.0660 L 15.6651,1.0660 L 15.7070,1.0520 L 15.7907,0.9959 L 15.8466,0.9117 L 15.8605,0.8697 L 15.8605,0.8136 Z" stroke="#000000" stroke-width="0.1193" stroke-linecap="round" stroke-linejoin="round" fill="#000000"/>
        <path d="M 18.0246,0.8136 L 18.0246,0.7574 L 18.0106,0.7154 L 17.9548,0.6312 L 17.8710,0.5751 L 17.8291,0.5611 L 16.7960,0.5611 L 16.7541,0.5751 L 16.6703,0.6312 L 16.6145,0.7154 L 16.6005,0.7574 L 16.6005,0.8697 L 16.6145,0.9117 L 16.6703,0.9959 L 16.7541,1.0520 L 16.7960,1.0660 L 17.8291,1.0660 L 17.8710,1.0520 L 17.9548,0.9959 L 18.0106,0.9117 L 18.0246,0.8697 L 18.0246,0.8136 Z" stroke="#000000" stroke-width="0.1193" stroke-linecap="round" stroke-linejoin="round" fill="#000000"/>
        <path d="M 20.2026,0.8136 L 20.2026,0.7574 L 20.1887,0.7154 L 20.1328,0.6312 L 20.0491,0.5751 L 20.0072,0.5611 L 18.9740,0.5611 L 18.9321,0.5751 L 18.8483,0.6312 L 18.7925,0.7154 L 18.7785,0.7574 L 18.7785,0.8697 L 18.7925,0.9117 L 18.8483,0.9959 L 18.9321,1.0520 L 18.9740,1.0660 L 20.0072,1.0660 L 20.0491,1.0520 L 20.1328,0.9959 L 20.1887,0.9117 L 20.2026,0.8697 L 20.2026,0.8136 Z" stroke="#000000" stroke-width="0.1193" stroke-linecap="round" stroke-linejoin="round" fill="#000000"/>
        <path d="M 22.3667,0.8136 L 22.3667,0.7574 L 22.3527,0.7154 L 22.2969,0.6312 L 22.2131,0.5751 L 22.1712,0.5611 L 21.1381,0.5611 L 21.0962,0.5751 L 21.0124,0.6312 L 20.9566,0.7154 L 20.9426,0.7574 L 20.9426,0.8697 L 20.9566,0.9117 L 21.0124,0.9959 L 21.0962,1.0520 L 21.1381,1.0660 L 22.1712,1.0660 L 22.2131,1.0520 L 22.2969,0.9959 L 22.3527,0.9117 L 22.3667,0.8697 L 22.3667,0.8136 Z" stroke="#000000" stroke-width="0.1193" stroke-linecap="round" stroke-linejoin="round" fill="#000000"/>
        <path d="M 24.5447,0.8136 L 24.5447,0.7574 L 24.5308,0.7154 L 24.4749,0.6312 L 24.3912,0.5751 L 24.3493,0.5611 L 23.3161,0.5611 L 23.2742,0.5751 L 23.1904,0.6312 L 23.1346,0.7154 L 23.1206,0.7574 L 23.1206,0.8697 L 23.1346,0.9117 L 23.1904,0.9959 L 23.2742,1.0520 L 23.3161,1.0660 L 24.3493,1.0660 L 24.3912,1.0520 L 24.4749,0.9959 L 24.5308,0.9117 L 24.5447,0.8697 L 24.5447,0.8136 Z" stroke="#000000" stroke-width="0.1193" stroke-linecap="round" stroke-linejoin="round" fill="#000000"/>
        <path d="M 26.7088,0.8136 L 26.7088,0.7574 L 26.6948,0.7154 L 26.6390,0.6312 L 26.5552,0.5751 L 26.5133,0.5611 L 25.4802,0.5611 L 25.4383,0.5751 L 25.3545,0.6312 L 25.2987,0.7154 L 25.2847,0.7574 L 25.2847,0.8697 L 25.2987,0.9117 L 25.3545,0.9959 L 25.4383,1.0520 L 25.4802,1.0660 L 26.5133,1.0660 L 26.5552,1.0520 L 26.6390,0.9959 L 26.6948,0.9117 L 26.7088,0.8697 L 26.7088,0.8136 Z" stroke="#000000" stroke-width="0.1193" stroke-linecap="round" stroke-linejoin="round" fill="#000000"/>
        <path d="M 28.8868,0.8136 L 28.8868,0.7574 L 28.8729,0.7154 L 28.8170,0.6312 L 28.7333,0.5751 L 28.6914,0.5611 L 27.6582,0.5611 L 27.6163,0.5751 L 27.5325,0.6312 L 27.4767,0.7154 L 27.4627,0.7574 L 27.4627,0.8697 L 27.4767,0.9117 L 27.5325,0.9959 L 27.6163,1.0520 L 27.6582,1.0660 L 28.6914,1.0660 L 28.7333,1.0520 L 28.8170,0.9959 L 28.8729,0.9117 L 28.8868,0.8697 L 28.8868,0.8136 Z" stroke="#000000" stroke-width="0.1193" stroke-linecap="round" stroke-linejoin="round" fill="#000000"/>
        <path d="M 33.2289,0.8136 L 33.2289,0.7574 L 33.2150,0.7154 L 33.1591,0.6312 L 33.0754,0.5751 L 33.0335,0.5611 L 32.0003,0.5611 L 31.9584,0.5751 L 31.8746,0.6312 L 31.8188,0.7154 L 31.8048,0.7574 L 31.8048,0.8697 L 31.8188,0.9117 L 31.8746,0.9959 L 31.9584,1.0520 L 32.0003,1.0660 L 33.0335,1.0660 L 33.0754,1.0520 L 33.1591,0.9959 L 33.2150,0.9117 L 33.2289,0.8697 L 33.2289,0.8136 Z" stroke="#000000" stroke-width="0.1193" stroke-linecap="round" stroke-linejoin="round" fill="#000000"/>
        <path d="M 35.3930,0.8136 L 35.3930,0.7574 L 35.3790,0.7154 L 35.3232,0.6312 L 35.2394,0.5751 L 35.1975,0.5611 L 34.1644,0.5611 L 34.1225,0.5751 L 34.0387,0.6312 L 33.9829,0.7154 L 33.9689,0.7574 L 33.9689,0.8697 L 33.9829,0.9117 L 34.0387,0.9959 L 34.1225,1.0520 L 34.1644,1.0660 L 35.1975,1.0660 L 35.2394,1.0520 L 35.3232,0.9959 L 35.3790,0.9117 L 35.3930,0.8697 L 35.3930,0.8136 Z" stroke="#000000" stroke-width="0.1193" stroke-linecap="round" stroke-linejoin="round" fill="#000000"/>
        <path d="M 37.5710,0.8136 L 37.5710,0.7574 L 37.5571,0.7154 L 37.5012,0.6312 L 37.4175,0.5751 L 37.3756,0.5611 L 36.3424,0.5611 L 36.3005,0.5751 L 36.2167,0.6312 L 36.1609,0.7154 L 36.1469,0.7574 L 36.1469,0.8697 L 36.1609,0.9117 L 36.2167,0.9959 L 36.3005,1.0520 L 36.3424,1.0660 L 37.3756,1.0660 L 37.4175,1.0520 L 37.5012,0.9959 L 37.5571,0.9117 L 37.5710,0.8697 L 37.5710,0.8136 Z" stroke="#000000" stroke-width="0.1193" stroke-linecap="round" stroke-linejoin="round" fill="#000000"/>
        <path d="M 39.7351,0.8136 L 39.7351,0.7574 L 39.7211,0.7154 L 39.6653,0.6312 L 39.5815,0.5751 L 39.5396,0.5611 L 38.5065,0.5611 L 38.4646,0.5751 L 38.3808,0.6312 L 38.3250,0.7154 L 38.3110,0.7574 L 38.3110,0.8697 L 38.3250,0.9117 L 38.3808,0.9959 L 38.4646,1.0520 L 38.5065,1.0660 L 39.5396,1.0660 L 39.5815,1.0520 L 39.6653,0.9959 L 39.7211,0.9117 L 39.7351,0.8697 L 39.7351,0.8136 Z" stroke="#000000" stroke-width="0.1193" stroke-linecap="round" stroke-linejoin="round" fill="#000000"/>
        <path d="M 41.9131,0.8136 L 41.9131,0.7574 L 41.8992,0.7154 L 41.8433,0.6312 L 41.7595,0.5751 L 41.7177,0.5611 L 40.6845,0.5611 L 40.6426,0.5751 L 40.5588,0.6312 L 40.5030,0.7154 L 40.4890,0.7574 L 40.4890,0.8697 L 40.5030,0.9117 L 40.5588,0.9959 L 40.6426,1.0520 L 40.6845,1.0660 L 41.7177,1.0660 L 41.7595,1.0520 L 41.8433,0.9959 L 41.8992,0.9117 L 41.9131,0.8697 L 41.9131,0.8136 Z" stroke="#000000" stroke-width="0.1193" stroke-linecap="round" stroke-linejoin="round" fill="#000000"/>
        <path d="M 44.0772,0.8136 L 44.0772,0.7574 L 44.0632,0.7154 L 44.0074,0.6312 L 43.9236,0.5751 L 43.8817,0.5611 L 42.8486,0.5611 L 42.8067,0.5751 L 42.7229,0.6312 L 42.6671,0.7154 L 42.6531,0.7574 L 42.6531,0.8697 L 42.6671,0.9117 L 42.7229,0.9959 L 42.8067,1.0520 L 42.8486,1.0660 L 43.8817,1.0660 L 43.9236,1.0520 L 44.0074,0.9959 L 44.0632,0.9117 L 44.0772,0.8697 L 44.0772,0.8136 Z" stroke="#000000" stroke-width="0.1193" stroke-linecap="round" stroke-linejoin="round" fill="#000000"/>
        <path d="M 46.2552,0.8136 L 46.2552,0.7574 L 46.2413,0.7154 L 46.1854,0.6312 L 46.1016,0.5751 L 46.0598,0.5611 L 45.0266,0.5611 L 44.9847,0.5751 L 44.9009,0.6312 L 44.8451,0.7154 L 44.8311,0.7574 L 44.8311,0.8697 L 44.8451,0.9117 L 44.9009,0.9959 L 44.9847,1.0520 L 45.0266,1.0660 L 46.0598,1.0660 L 46.1016,1.0520 L 46.1854,0.9959 L 46.2413,0.9117 L 46.2552,0.8697 L 46.2552,0.8136 Z" stroke="#000000" stroke-width="0.1193" stroke-linecap="round" stroke-linejoin="round" fill="#000000"/>
        <path d="M 48.4193,0.8136 L 48.4193,0.7574 L 48.4053,0.7154 L 48.3495,0.6312 L 48.2657,0.5751 L 48.2238,0.5611 L 47.1907,0.5611 L 47.1488,0.5751 L 47.0650,0.6312 L 47.0092,0.7154 L 46.9952,0.7574 L 46.9952,0.8697 L 47.0092,0.9117 L 47.0650,0.9959 L 47.1488,1.0520 L 47.1907,1.0660 L 48.2238,1.0660 L 48.2657,1.0520 L 48.3495,0.9959 L 48.4053,0.9117 L 48.4193,0.8697 L 48.4193,0.8136 Z" stroke="#000000" stroke-width="0.1193" stroke-linecap="round" stroke-linejoin="round" fill="#000000"/>
        <path d="M 50.5973,0.8136 L 50.5973,0.7574 L 50.5834,0.7154 L 50.5275,0.6312 L 50.4437,0.5751 L 50.4019,0.5611 L 49.3687,0.5611 L 49.3268,0.5751 L 49.2430,0.6312 L 49.1872,0.7154 L 49.1732,0.7574 L 49.1732,0.8697 L 49.1872,0.9117 L 49.2430,0.9959 L 49.3268,1.0520 L 49.3687,1.0660 L 50.4019,1.0660 L 50.4437,1.0520 L 50.5275,0.9959 L 50.5834,0.9117 L 50.5973,0.8697 L 50.5973,0.8136 Z" stroke="#000000" stroke-width="0.1193" stroke-linecap="round" stroke-linejoin="round" fill="#000000"/>
        <ellipse cx="2.3456" cy="6.5365" rx="0.2234" ry="0.2244" fill="#000000" stroke="#000000" stroke-width="0.1193" stroke-linecap="round" stroke-linejoin="round"/>
        <ellipse cx="2.3456" cy="6.5365" rx="0.2234" ry="0.2244" fill="none" stroke="#000000" stroke-width="0.1193" stroke-linecap="round" stroke-linejoin="round"/>
        <ellipse cx="2.3386" cy="6.5294" rx="0.1606" ry="0.1613" fill="#333333" stroke="#000000" stroke-width="0.1193" stroke-linecap="round" stroke-linejoin="round"/>
        <ellipse cx="2.3386" cy="6.5294" rx="0.1606" ry="0.1613" fill="none" stroke="#000000" stroke-width="0.1193" stroke-linecap="round" stroke-linejoin="round"/>
        <path d="M 52.7614,1.7954 L 52.7614,1.7393 L 52.7474,1.6972 L 52.6916,1.6131 L 52.6078,1.5570 L 52.5659,1.5429 L 51.5328,1.5429 L 51.4909,1.5570 L 51.4071,1.6131 L 51.3513,1.6972 L 51.3373,1.7393 L 51.3373,1.8515 L 51.3513,1.8936 L 51.4071,1.9778 L 51.4909,2.0339 L 51.5328,2.0479 L 52.5659,2.0479 L 52.6078,2.0339 L 52.6916,1.9778 L 52.7474,1.8936 L 52.7614,1.8515 L 52.7614,1.7954 Z" stroke="#000000" stroke-width="0.1193" stroke-linecap="round" stroke-linejoin="round" fill="#000000"/>
        <path d="M 52.7614,0.8136 L 52.7614,0.7574 L 52.7474,0.7154 L 52.6916,0.6312 L 52.6078,0.5751 L 52.5659,0.5611 L 51.5328,0.5611 L 51.4909,0.5751 L 51.4071,0.6312 L 51.3513,0.7154 L 51.3373,0.7574 L 51.3373,0.8697 L 51.3513,0.9117 L 51.4071,0.9959 L 51.4909,1.0520 L 51.5328,1.0660 L 52.5659,1.0660 L 52.6078,1.0520 L 52.6916,0.9959 L 52.7474,0.9117 L 52.7614,0.8697 L 52.7614,0.8136 Z" stroke="#000000" stroke-width="0.1193" stroke-linecap="round" stroke-linejoin="round" fill="#000000"/>
        <path d="M 54.9255,1.7954 L 54.9255,1.7393 L 54.9115,1.6972 L 54.8557,1.6131 L 54.7719,1.5570 L 54.7300,1.5429 L 53.6968,1.5429 L 53.6549,1.5570 L 53.5712,1.6131 L 53.5153,1.6972 L 53.5014,1.7393 L 53.5014,1.8515 L 53.5153,1.8936 L 53.5712,1.9778 L 53.6549,2.0339 L 53.6968,2.0479 L 54.7300,2.0479 L 54.7719,2.0339 L 54.8557,1.9778 L 54.9115,1.8936 L 54.9255,1.8515 L 54.9255,1.7954 Z" stroke="#000000" stroke-width="0.1193" stroke-linecap="round" stroke-linejoin="round" fill="#000000"/>
        <path d="M 54.9255,0.8136 L 54.9255,0.7574 L 54.9115,0.7154 L 54.8557,0.6312 L 54.7719,0.5751 L 54.7300,0.5611 L 53.6968,0.5611 L 53.6549,0.5751 L 53.5712,0.6312 L 53.5153,0.7154 L 53.5014,0.7574 L 53.5014,0.8697 L 53.5153,0.9117 L 53.5712,0.9959 L 53.6549,1.0520 L 53.6968,1.0660 L 54.7300,1.0660 L 54.7719,1.0520 L 54.8557,0.9959 L 54.9115,0.9117 L 54.9255,0.8697 L 54.9255,0.8136 Z" stroke="#000000" stroke-width="0.1193" stroke-linecap="round" stroke-linejoin="round" fill="#000000"/>
        <path d="M 18.0246,4.7691 L 18.0246,4.7130 L 18.0106,4.6709 L 17.9548,4.5867 L 17.8710,4.5306 L 17.8291,4.5166 L 16.7960,4.5166 L 16.7541,4.5306 L 16.6703,4.5867 L 16.6145,4.6709 L 16.6005,4.7130 L 16.6005,4.8252 L 16.6145,4.8673 L 16.6703,4.9514 L 16.7541,5.0075 L 16.7960,5.0216 L 17.8291,5.0216 L 17.8710,5.0075 L 17.9548,4.9514 L 18.0106,4.8673 L 18.0246,4.8252 L 18.0246,4.7691 Z" stroke="#000000" stroke-width="0.1193" stroke-linecap="round" stroke-linejoin="round" fill="#000000"/>
        <path d="M 20.2026,4.7691 L 20.2026,4.7130 L 20.1887,4.6709 L 20.1328,4.5867 L 20.0491,4.5306 L 20.0072,4.5166 L 18.9740,4.5166 L 18.9321,4.5306 L 18.8483,4.5867 L 18.7925,4.6709 L 18.7785,4.7130 L 18.7785,4.8252 L 18.7925,4.8673 L 18.8483,4.9514 L 18.9321,5.0075 L 18.9740,5.0216 L 20.0072,5.0216 L 20.0491,5.0075 L 20.1328,4.9514 L 20.1887,4.8673 L 20.2026,4.8252 L 20.2026,4.7691 Z" stroke="#000000" stroke-width="0.1193" stroke-linecap="round" stroke-linejoin="round" fill="#000000"/>
        <path d="M 22.3667,4.7691 L 22.3667,4.7130 L 22.3527,4.6709 L 22.2969,4.5867 L 22.2131,4.5306 L 22.1712,4.5166 L 21.1381,4.5166 L 21.0962,4.5306 L 21.0124,4.5867 L 20.9566,4.6709 L 20.9426,4.7130 L 20.9426,4.8252 L 20.9566,4.8673 L 21.0124,4.9514 L 21.0962,5.0075 L 21.1381,5.0216 L 22.1712,5.0216 L 22.2131,5.0075 L 22.2969,4.9514 L 22.3527,4.8673 L 22.3667,4.8252 L 22.3667,4.7691 Z" stroke="#000000" stroke-width="0.1193" stroke-linecap="round" stroke-linejoin="round" fill="#000000"/>
        <path d="M 24.5447,4.7691 L 24.5447,4.7130 L 24.5308,4.6709 L 24.4749,4.5867 L 24.3912,4.5306 L 24.3493,4.5166 L 23.3161,4.5166 L 23.2742,4.5306 L 23.1904,4.5867 L 23.1346,4.6709 L 23.1206,4.7130 L 23.1206,4.8252 L 23.1346,4.8673 L 23.1904,4.9514 L 23.2742,5.0075 L 23.3161,5.0216 L 24.3493,5.0216 L 24.3912,5.0075 L 24.4749,4.9514 L 24.5308,4.8673 L 24.5447,4.8252 L 24.5447,4.7691 Z" stroke="#000000" stroke-width="0.1193" stroke-linecap="round" stroke-linejoin="round" fill="#000000"/>
        <path d="M 26.7088,4.7691 L 26.7088,4.7130 L 26.6948,4.6709 L 26.6390,4.5867 L 26.5552,4.5306 L 26.5133,4.5166 L 25.4802,4.5166 L 25.4383,4.5306 L 25.3545,4.5867 L 25.2987,4.6709 L 25.2847,4.7130 L 25.2847,4.8252 L 25.2987,4.8673 L 25.3545,4.9514 L 25.4383,5.0075 L 25.4802,5.0216 L 26.5133,5.0216 L 26.5552,5.0075 L 26.6390,4.9514 L 26.6948,4.8673 L 26.7088,4.8252 L 26.7088,4.7691 Z" stroke="#000000" stroke-width="0.1193" stroke-linecap="round" stroke-linejoin="round" fill="#000000"/>
        <path d="M 28.8868,4.7691 L 28.8868,4.7130 L 28.8729,4.6709 L 28.8170,4.5867 L 28.7333,4.5306 L 28.6914,4.5166 L 27.6582,4.5166 L 27.6163,4.5306 L 27.5325,4.5867 L 27.4767,4.6709 L 27.4627,4.7130 L 27.4627,4.8252 L 27.4767,4.8673 L 27.5325,4.9514 L 27.6163,5.0075 L 27.6582,5.0216 L 28.6914,5.0216 L 28.7333,5.0075 L 28.8170,4.9514 L 28.8729,4.8673 L 28.8868,4.8252 L 28.8868,4.7691 Z" stroke="#000000" stroke-width="0.1193" stroke-linecap="round" stroke-linejoin="round" fill="#000000"/>
        <path d="M 33.2289,4.7691 L 33.2289,4.7130 L 33.2150,4.6709 L 33.1591,4.5867 L 33.0754,4.5306 L 33.0335,4.5166 L 32.0003,4.5166 L 31.9584,4.5306 L 31.8746,4.5867 L 31.8188,4.6709 L 31.8048,4.7130 L 31.8048,4.8252 L 31.8188,4.8673 L 31.8746,4.9514 L 31.9584,5.0075 L 32.0003,5.0216 L 33.0335,5.0216 L 33.0754,5.0075 L 33.1591,4.9514 L 33.2150,4.8673 L 33.2289,4.8252 L 33.2289,4.7691 Z" stroke="#000000" stroke-width="0.1193" stroke-linecap="round" stroke-linejoin="round" fill="#000000"/>
        <path d="M 35.3930,4.7691 L 35.3930,4.7130 L 35.3790,4.6709 L 35.3232,4.5867 L 35.2394,4.5306 L 35.1975,4.5166 L 34.1644,4.5166 L 34.1225,4.5306 L 34.0387,4.5867 L 33.9829,4.6709 L 33.9689,4.7130 L 33.9689,4.8252 L 33.9829,4.8673 L 34.0387,4.9514 L 34.1225,5.0075 L 34.1644,5.0216 L 35.1975,5.0216 L 35.2394,5.0075 L 35.3232,4.9514 L 35.3790,4.8673 L 35.3930,4.8252 L 35.3930,4.7691 Z" stroke="#000000" stroke-width="0.1193" stroke-linecap="round" stroke-linejoin="round" fill="#000000"/>
        <path d="M 18.0246,3.7872 L 18.0246,3.7311 L 18.0106,3.6890 L 17.9548,3.6049 L 17.8710,3.5488 L 17.8291,3.5347 L 16.7960,3.5347 L 16.7541,3.5488 L 16.6703,3.6049 L 16.6145,3.6890 L 16.6005,3.7311 L 16.6005,3.8433 L 16.6145,3.8854 L 16.6703,3.9696 L 16.7541,4.0257 L 16.7960,4.0397 L 17.8291,4.0397 L 17.8710,4.0257 L 17.9548,3.9696 L 18.0106,3.8854 L 18.0246,3.8433 L 18.0246,3.7872 Z" stroke="#000000" stroke-width="0.1193" stroke-linecap="round" stroke-linejoin="round" fill="#000000"/>
        <path d="M 20.2026,3.7872 L 20.2026,3.7311 L 20.1887,3.6890 L 20.1328,3.6049 L 20.0491,3.5488 L 20.0072,3.5347 L 18.9740,3.5347 L 18.9321,3.5488 L 18.8483,3.6049 L 18.7925,3.6890 L 18.7785,3.7311 L 18.7785,3.8433 L 18.7925,3.8854 L 18.8483,3.9696 L 18.9321,4.0257 L 18.9740,4.0397 L 20.0072,4.0397 L 20.0491,4.0257 L 20.1328,3.9696 L 20.1887,3.8854 L 20.2026,3.8433 L 20.2026,3.7872 Z" stroke="#000000" stroke-width="0.1193" stroke-linecap="round" stroke-linejoin="round" fill="#000000"/>
        <path d="M 22.3667,3.7872 L 22.3667,3.7311 L 22.3527,3.6890 L 22.2969,3.6049 L 22.2131,3.5488 L 22.1712,3.5347 L 21.1381,3.5347 L 21.0962,3.5488 L 21.0124,3.6049 L 20.9566,3.6890 L 20.9426,3.7311 L 20.9426,3.8433 L 20.9566,3.8854 L 21.0124,3.9696 L 21.0962,4.0257 L 21.1381,4.0397 L 22.1712,4.0397 L 22.2131,4.0257 L 22.2969,3.9696 L 22.3527,3.8854 L 22.3667,3.8433 L 22.3667,3.7872 Z" stroke="#000000" stroke-width="0.1193" stroke-linecap="round" stroke-linejoin="round" fill="#000000"/>
        <path d="M 24.5447,3.7872 L 24.5447,3.7311 L 24.5308,3.6890 L 24.4749,3.6049 L 24.3912,3.5488 L 24.3493,3.5347 L 23.3161,3.5347 L 23.2742,3.5488 L 23.1904,3.6049 L 23.1346,3.6890 L 23.1206,3.7311 L 23.1206,3.8433 L 23.1346,3.8854 L 23.1904,3.9696 L 23.2742,4.0257 L 23.3161,4.0397 L 24.3493,4.0397 L 24.3912,4.0257 L 24.4749,3.9696 L 24.5308,3.8854 L 24.5447,3.8433 L 24.5447,3.7872 Z" stroke="#000000" stroke-width="0.1193" stroke-linecap="round" stroke-linejoin="round" fill="#000000"/>
        <path d="M 26.7088,3.7872 L 26.7088,3.7311 L 26.6948,3.6890 L 26.6390,3.6049 L 26.5552,3.5488 L 26.5133,3.5347 L 25.4802,3.5347 L 25.4383,3.5488 L 25.3545,3.6049 L 25.2987,3.6890 L 25.2847,3.7311 L 25.2847,3.8433 L 25.2987,3.8854 L 25.3545,3.9696 L 25.4383,4.0257 L 25.4802,4.0397 L 26.5133,4.0397 L 26.5552,4.0257 L 26.6390,3.9696 L 26.6948,3.8854 L 26.7088,3.8433 L 26.7088,3.7872 Z" stroke="#000000" stroke-width="0.1193" stroke-linecap="round" stroke-linejoin="round" fill="#000000"/>
        <path d="M 28.8868,3.7872 L 28.8868,3.7311 L 28.8729,3.6890 L 28.8170,3.6049 L 28.7333,3.5488 L 28.6914,3.5347 L 27.6582,3.5347 L 27.6163,3.5488 L 27.5325,3.6049 L 27.4767,3.6890 L 27.4627,3.7311 L 27.4627,3.8433 L 27.4767,3.8854 L 27.5325,3.9696 L 27.6163,4.0257 L 27.6582,4.0397 L 28.6914,4.0397 L 28.7333,4.0257 L 28.8170,3.9696 L 28.8729,3.8854 L 28.8868,3.8433 L 28.8868,3.7872 Z" stroke="#000000" stroke-width="0.1193" stroke-linecap="round" stroke-linejoin="round" fill="#000000"/>
        <path d="M 33.2289,3.7872 L 33.2289,3.7311 L 33.2150,3.6890 L 33.1591,3.6049 L 33.0754,3.5488 L 33.0335,3.5347 L 32.0003,3.5347 L 31.9584,3.5488 L 31.8746,3.6049 L 31.8188,3.6890 L 31.8048,3.7311 L 31.8048,3.8433 L 31.8188,3.8854 L 31.8746,3.9696 L 31.9584,4.0257 L 32.0003,4.0397 L 33.0335,4.0397 L 33.0754,4.0257 L 33.1591,3.9696 L 33.2150,3.8854 L 33.2289,3.8433 L 33.2289,3.7872 Z" stroke="#000000" stroke-width="0.1193" stroke-linecap="round" stroke-linejoin="round" fill="#000000"/>
        <path d="M 35.3930,3.7872 L 35.3930,3.7311 L 35.3790,3.6890 L 35.3232,3.6049 L 35.2394,3.5488 L 35.1975,3.5347 L 34.1644,3.5347 L 34.1225,3.5488 L 34.0387,3.6049 L 33.9829,3.6890 L 33.9689,3.7311 L 33.9689,3.8433 L 33.9829,3.8854 L 34.0387,3.9696 L 34.1225,4.0257 L 34.1644,4.0397 L 35.1975,4.0397 L 35.2394,4.0257 L 35.3232,3.9696 L 35.3790,3.8854 L 35.3930,3.8433 L 35.3930,3.7872 Z" stroke="#000000" stroke-width="0.1193" stroke-linecap="round" stroke-linejoin="round" fill="#000000"/>
        <path d="M 31.0509,4.7691 L 31.0509,4.7130 L 31.0369,4.6709 L 30.9811,4.5867 L 30.8973,4.5306 L 30.8554,4.5166 L 29.8223,4.5166 L 29.7804,4.5306 L 29.6966,4.5867 L 29.6408,4.6709 L 29.6268,4.7130 L 29.6268,4.8252 L 29.6408,4.8673 L 29.6966,4.9514 L 29.7804,5.0075 L 29.8223,5.0216 L 30.8554,5.0216 L 30.8973,5.0075 L 30.9811,4.9514 L 31.0369,4.8673 L 31.0509,4.8252 L 31.0509,4.7691 Z" stroke="#000000" stroke-width="0.1193" stroke-linecap="round" stroke-linejoin="round" fill="#000000"/>
        <path d="M 31.0509,3.7872 L 31.0509,3.7311 L 31.0369,3.6890 L 30.9811,3.6049 L 30.8973,3.5488 L 30.8554,3.5347 L 29.8223,3.5347 L 29.7804,3.5488 L 29.6966,3.6049 L 29.6408,3.6890 L 29.6268,3.7311 L 29.6268,3.8433 L 29.6408,3.8854 L 29.6966,3.9696 L 29.7804,4.0257 L 29.8223,4.0397 L 30.8554,4.0397 L 30.8973,4.0257 L 30.9811,3.9696 L 31.0369,3.8854 L 31.0509,3.8433 L 31.0509,3.7872 Z" stroke="#000000" stroke-width="0.1193" stroke-linecap="round" stroke-linejoin="round" fill="#000000"/>
        <path d="M 18.0246,5.7510 L 18.0246,5.6949 L 18.0106,5.6528 L 17.9548,5.5686 L 17.8710,5.5125 L 17.8291,5.4985 L 16.7960,5.4985 L 16.7541,5.5125 L 16.6703,5.5686 L 16.6145,5.6528 L 16.6005,5.6949 L 16.6005,5.8071 L 16.6145,5.8492 L 16.6703,5.9333 L 16.7541,5.9894 L 16.7960,6.0034 L 17.8291,6.0034 L 17.8710,5.9894 L 17.9548,5.9333 L 18.0106,5.8492 L 18.0246,5.8071 L 18.0246,5.7510 Z" stroke="#000000" stroke-width="0.1193" stroke-linecap="round" stroke-linejoin="round" fill="#000000"/>
        <path d="M 20.2026,5.7510 L 20.2026,5.6949 L 20.1887,5.6528 L 20.1328,5.5686 L 20.0491,5.5125 L 20.0072,5.4985 L 18.9740,5.4985 L 18.9321,5.5125 L 18.8483,5.5686 L 18.7925,5.6528 L 18.7785,5.6949 L 18.7785,5.8071 L 18.7925,5.8492 L 18.8483,5.9333 L 18.9321,5.9894 L 18.9740,6.0034 L 20.0072,6.0034 L 20.0491,5.9894 L 20.1328,5.9333 L 20.1887,5.8492 L 20.2026,5.8071 L 20.2026,5.7510 Z" stroke="#000000" stroke-width="0.1193" stroke-linecap="round" stroke-linejoin="round" fill="#000000"/>
        <path d="M 22.3667,5.7510 L 22.3667,5.6949 L 22.3527,5.6528 L 22.2969,5.5686 L 22.2131,5.5125 L 22.1712,5.4985 L 21.1381,5.4985 L 21.0962,5.5125 L 21.0124,5.5686 L 20.9566,5.6528 L 20.9426,5.6949 L 20.9426,5.8071 L 20.9566,5.8492 L 21.0124,5.9333 L 21.0962,5.9894 L 21.1381,6.0034 L 22.1712,6.0034 L 22.2131,5.9894 L 22.2969,5.9333 L 22.3527,5.8492 L 22.3667,5.8071 L 22.3667,5.7510 Z" stroke="#000000" stroke-width="0.1193" stroke-linecap="round" stroke-linejoin="round" fill="#000000"/>
        <path d="M 24.5447,5.7510 L 24.5447,5.6949 L 24.5308,5.6528 L 24.4749,5.5686 L 24.3912,5.5125 L 24.3493,5.4985 L 23.3161,5.4985 L 23.2742,5.5125 L 23.1904,5.5686 L 23.1346,5.6528 L 23.1206,5.6949 L 23.1206,5.8071 L 23.1346,5.8492 L 23.1904,5.9333 L 23.2742,5.9894 L 23.3161,6.0034 L 24.3493,6.0034 L 24.3912,5.9894 L 24.4749,5.9333 L 24.5308,5.8492 L 24.5447,5.8071 L 24.5447,5.7510 Z" stroke="#000000" stroke-width="0.1193" stroke-linecap="round" stroke-linejoin="round" fill="#000000"/>
        <path d="M 26.7088,5.7510 L 26.7088,5.6949 L 26.6948,5.6528 L 26.6390,5.5686 L 26.5552,5.5125 L 26.5133,5.4985 L 25.4802,5.4985 L 25.4383,5.5125 L 25.3545,5.5686 L 25.2987,5.6528 L 25.2847,5.6949 L 25.2847,5.8071 L 25.2987,5.8492 L 25.3545,5.9333 L 25.4383,5.9894 L 25.4802,6.0034 L 26.5133,6.0034 L 26.5552,5.9894 L 26.6390,5.9333 L 26.6948,5.8492 L 26.7088,5.8071 L 26.7088,5.7510 Z" stroke="#000000" stroke-width="0.1193" stroke-linecap="round" stroke-linejoin="round" fill="#000000"/>
        <path d="M 28.8868,5.7510 L 28.8868,5.6949 L 28.8729,5.6528 L 28.8170,5.5686 L 28.7333,5.5125 L 28.6914,5.4985 L 27.6582,5.4985 L 27.6163,5.5125 L 27.5325,5.5686 L 27.4767,5.6528 L 27.4627,5.6949 L 27.4627,5.8071 L 27.4767,5.8492 L 27.5325,5.9333 L 27.6163,5.9894 L 27.6582,6.0034 L 28.6914,6.0034 L 28.7333,5.9894 L 28.8170,5.9333 L 28.8729,5.8492 L 28.8868,5.8071 L 28.8868,5.7510 Z" stroke="#000000" stroke-width="0.1193" stroke-linecap="round" stroke-linejoin="round" fill="#000000"/>
        <path d="M 33.2289,5.7510 L 33.2289,5.6949 L 33.2150,5.6528 L 33.1591,5.5686 L 33.0754,5.5125 L 33.0335,5.4985 L 32.0003,5.4985 L 31.9584,5.5125 L 31.8746,5.5686 L 31.8188,5.6528 L 31.8048,5.6949 L 31.8048,5.8071 L 31.8188,5.8492 L 31.8746,5.9333 L 31.9584,5.9894 L 32.0003,6.0034 L 33.0335,6.0034 L 33.0754,5.9894 L 33.1591,5.9333 L 33.2150,5.8492 L 33.2289,5.8071 L 33.2289,5.7510 Z" stroke="#000000" stroke-width="0.1193" stroke-linecap="round" stroke-linejoin="round" fill="#000000"/>
        <path d="M 35.3930,5.7510 L 35.3930,5.6949 L 35.3790,5.6528 L 35.3232,5.5686 L 35.2394,5.5125 L 35.1975,5.4985 L 34.1644,5.4985 L 34.1225,5.5125 L 34.0387,5.5686 L 33.9829,5.6528 L 33.9689,5.6949 L 33.9689,5.8071 L 33.9829,5.8492 L 34.0387,5.9333 L 34.1225,5.9894 L 34.1644,6.0034 L 35.1975,6.0034 L 35.2394,5.9894 L 35.3232,5.9333 L 35.3790,5.8492 L 35.3930,5.8071 L 35.3930,5.7510 Z" stroke="#000000" stroke-width="0.1193" stroke-linecap="round" stroke-linejoin="round" fill="#000000"/>
        <path d="M 31.0509,5.7510 L 31.0509,5.6949 L 31.0369,5.6528 L 30.9811,5.5686 L 30.8973,5.5125 L 30.8554,5.4985 L 29.8223,5.4985 L 29.7804,5.5125 L 29.6966,5.5686 L 29.6408,5.6528 L 29.6268,5.6949 L 29.6268,5.8071 L 29.6408,5.8492 L 29.6966,5.9333 L 29.7804,5.9894 L 29.8223,6.0034 L 30.8554,6.0034 L 30.8973,5.9894 L 30.9811,5.9333 L 31.0369,5.8492 L 31.0509,5.8071 L 31.0509,5.7510 Z" stroke="#000000" stroke-width="0.1193" stroke-linecap="round" stroke-linejoin="round" fill="#000000"/>
        <path d="M 31.0090,2.2022 L 31.0649,2.1461 L 31.0788,2.1180 L 31.1067,2.1040 L 31.1207,2.0760 L 31.1766,2.0199 L 31.2045,1.9637 L 31.2184,1.9497 L 31.2603,1.8656 L 31.2743,1.8515 L 31.3162,1.7674 L 31.3162,1.7393 L 31.3441,1.6832 L 31.3441,1.6692 L 31.3581,1.6411 L 31.3581,1.6131 L 31.3720,1.5850 L 31.3720,1.5289 L 31.3860,1.5009 L 31.3860,1.3185 L 31.3720,1.2624 L 31.3720,1.2203 L 31.3581,1.1642 L 31.3301,1.0801 L 31.3022,1.0380 L 31.2882,0.9959 L 31.2603,0.9398 L 31.2324,0.9117 L 31.2184,0.8697 L 31.1905,0.8276 L 31.1207,0.7574 L 31.0928,0.7154 L 31.0509,0.6873 L 31.0230,0.6593 L 30.9392,0.6031 L 30.9113,0.5751 L 30.8694,0.5470 L 30.8275,0.5330 L 30.7856,0.5050 L 30.7298,0.4909 L 30.6041,0.4489 L 30.5483,0.4489 L 30.5064,0.4348 L 30.3109,0.4348 L 30.2690,0.4489 L 30.2132,0.4489 L 30.0875,0.4909 L 30.0317,0.5050 L 29.9898,0.5330 L 29.9479,0.5470 L 29.9060,0.5751 L 29.8781,0.6031 L 29.7943,0.6593 L 29.7664,0.6873 L 29.7245,0.7154 L 29.6966,0.7574 L 29.6268,0.8276 L 29.5989,0.8697 L 29.5849,0.9117 L 29.5570,0.9398 L 29.5291,0.9959 L 29.5151,1.0380 L 29.4872,1.0801 L 29.4593,1.1642 L 29.4453,1.2203 L 29.4453,1.2624 L 29.4313,1.3185 L 29.4313,1.5009 L 29.4453,1.5289 L 29.4453,1.5850 L 29.4593,1.6131 L 29.4593,1.6552 L 29.4872,1.7113 L 29.4872,1.7393 L 29.5291,1.8235 L 29.5291,1.8515 L 29.5710,1.9357 L 29.5849,1.9497 L 29.6128,2.0058 L 29.6547,2.0479 L 29.6687,2.0760 L 29.6826,2.0900 L 29.6966,2.1180 L 29.7245,2.1321 L 29.7385,2.1461 L 29.7525,2.1741 L 29.7804,2.1882 L 29.7943,2.2022 L 30.9951,2.2022 L 31.0090,2.2022 Z" stroke="#000000" stroke-width="0.1193" stroke-linecap="round" stroke-linejoin="round" fill="#000000"/>
        <path d="M 31.2743,1.4027 L 31.2743,1.3185 L 31.2603,1.2624 L 31.2603,1.2203 L 31.2184,1.0941 L 31.2045,1.0660 L 31.1766,0.9819 L 31.1486,0.9538 L 31.1347,0.9117 L 31.1067,0.8837 L 31.0788,0.8416 L 30.9671,0.7294 L 30.9252,0.7013 L 30.8973,0.6733 L 30.8554,0.6593 L 30.8275,0.6312 L 30.7437,0.6031 L 30.7158,0.5891 L 30.5902,0.5470 L 30.5483,0.5470 L 30.4924,0.5330 L 30.3249,0.5330 L 30.2690,0.5470 L 30.2272,0.5470 L 30.1015,0.5891 L 30.0736,0.6031 L 29.9898,0.6312 L 29.9619,0.6593 L 29.9200,0.6733 L 29.8921,0.7013 L 29.8502,0.7294 L 29.7385,0.8416 L 29.7106,0.8837 L 29.6826,0.9117 L 29.6687,0.9538 L 29.6408,0.9819 L 29.6128,1.0660 L 29.5989,1.0941 L 29.5570,1.2203 L 29.5570,1.2624 L 29.5430,1.3185 L 29.5430,1.5149 L 29.5570,1.5429 L 29.5570,1.5990 L 29.5710,1.6271 L 29.5710,1.6411 L 29.5849,1.6692 L 29.5849,1.6972 L 29.5989,1.7253 L 29.5989,1.7533 L 29.6128,1.7814 L 29.6268,1.7954 L 29.6408,1.8235 L 29.6408,1.8515 L 29.6547,1.8656 L 29.6826,1.9217 L 29.6966,1.9357 L 29.7106,1.9637 L 29.7245,1.9778 L 29.7385,2.0058 L 29.7664,2.0199 L 29.7804,2.0339 L 29.7943,2.0619 L 29.8083,2.0760 L 29.8362,2.0900 L 29.8502,2.1040 L 29.8781,2.1180 L 29.8921,2.1321 L 29.9898,2.1321 L 30.0177,2.1461 L 30.5762,2.1461 L 30.6181,2.1321 L 30.9113,2.1321 L 30.9252,2.1180 L 30.9532,2.1040 L 30.9671,2.0760 L 30.9951,2.0619 L 31.0649,1.9918 L 31.0788,1.9637 L 31.0928,1.9497 L 31.1067,1.9217 L 31.1207,1.9076 L 31.1347,1.8796 L 31.1486,1.8656 L 31.1766,1.8094 L 31.1905,1.7954 L 31.2045,1.7674 L 31.2045,1.7393 L 31.2184,1.7253 L 31.2324,1.6972 L 31.2324,1.6692 L 31.2464,1.6411 L 31.2464,1.6131 L 31.2603,1.5850 L 31.2603,1.5429 L 31.2743,1.5149 L 31.2743,1.4307 L 31.2743,1.4027 Z" stroke="#000000" stroke-width="0.1193" stroke-linecap="round" stroke-linejoin="round" fill="#BCBC7E"/>
        <ellipse cx="30.3458" cy="1.3536" rx="0.1466" ry="0.1473" fill="#000000" stroke="#000000" stroke-width="0.1193" stroke-linecap="round" stroke-linejoin="round"/>
        <ellipse cx="30.3458" cy="1.3536" rx="0.1466" ry="0.1473" fill="none" stroke="#000000" stroke-width="0.1193" stroke-linecap="round" stroke-linejoin="round"/>
        <path d="M 3.0297,2.2022 L 3.0855,2.1461 L 3.0995,2.1180 L 3.1274,2.1040 L 3.1414,2.0760 L 3.1972,2.0199 L 3.2252,1.9637 L 3.2391,1.9497 L 3.2810,1.8656 L 3.2950,1.8515 L 3.3369,1.7674 L 3.3369,1.7393 L 3.3648,1.6832 L 3.3648,1.6692 L 3.3787,1.6411 L 3.3787,1.6131 L 3.3927,1.5850 L 3.3927,1.5289 L 3.4067,1.5009 L 3.4067,1.3185 L 3.3927,1.2624 L 3.3927,1.2203 L 3.3787,1.1642 L 3.3508,1.0801 L 3.3229,1.0380 L 3.3089,0.9959 L 3.2810,0.9398 L 3.2531,0.9117 L 3.2391,0.8697 L 3.2112,0.8276 L 3.1414,0.7574 L 3.1135,0.7154 L 3.0716,0.6873 L 3.0437,0.6593 L 2.9599,0.6031 L 2.9320,0.5751 L 2.8901,0.5470 L 2.8482,0.5330 L 2.8063,0.5050 L 2.7505,0.4909 L 2.6248,0.4489 L 2.5690,0.4489 L 2.5271,0.4348 L 2.3316,0.4348 L 2.2897,0.4489 L 2.2339,0.4489 L 2.1082,0.4909 L 2.0524,0.5050 L 2.0105,0.5330 L 1.9686,0.5470 L 1.9267,0.5751 L 1.8988,0.6031 L 1.8150,0.6593 L 1.7871,0.6873 L 1.7452,0.7154 L 1.7173,0.7574 L 1.6475,0.8276 L 1.6196,0.8697 L 1.6056,0.9117 L 1.5777,0.9398 L 1.5498,0.9959 L 1.5358,1.0380 L 1.5079,1.0801 L 1.4799,1.1642 L 1.4660,1.2203 L 1.4660,1.2624 L 1.4520,1.3185 L 1.4520,1.5009 L 1.4660,1.5289 L 1.4660,1.5850 L 1.4799,1.6131 L 1.4799,1.6552 L 1.5079,1.7113 L 1.5079,1.7393 L 1.5498,1.8235 L 1.5498,1.8515 L 1.5916,1.9357 L 1.6056,1.9497 L 1.6335,2.0058 L 1.6754,2.0479 L 1.6894,2.0760 L 1.7033,2.0900 L 1.7173,2.1180 L 1.7452,2.1321 L 1.7592,2.1461 L 1.7731,2.1741 L 1.8011,2.1882 L 1.8150,2.2022 L 3.0157,2.2022 L 3.0297,2.2022 Z" stroke="#000000" stroke-width="0.1193" stroke-linecap="round" stroke-linejoin="round" fill="#000000"/>
        <path d="M 3.2950,1.4027 L 3.2950,1.3185 L 3.2810,1.2624 L 3.2810,1.2203 L 3.2391,1.0941 L 3.2252,1.0660 L 3.1972,0.9819 L 3.1693,0.9538 L 3.1554,0.9117 L 3.1274,0.8837 L 3.0995,0.8416 L 2.9878,0.7294 L 2.9459,0.7013 L 2.9180,0.6733 L 2.8761,0.6593 L 2.8482,0.6312 L 2.7644,0.6031 L 2.7365,0.5891 L 2.6108,0.5470 L 2.5690,0.5470 L 2.5131,0.5330 L 2.3456,0.5330 L 2.2897,0.5470 L 2.2478,0.5470 L 2.1222,0.5891 L 2.0943,0.6031 L 2.0105,0.6312 L 1.9826,0.6593 L 1.9407,0.6733 L 1.9128,0.7013 L 1.8709,0.7294 L 1.7592,0.8416 L 1.7313,0.8837 L 1.7033,0.9117 L 1.6894,0.9538 L 1.6614,0.9819 L 1.6335,1.0660 L 1.6196,1.0941 L 1.5777,1.2203 L 1.5777,1.2624 L 1.5637,1.3185 L 1.5637,1.5149 L 1.5777,1.5429 L 1.5777,1.5990 L 1.5916,1.6271 L 1.5916,1.6411 L 1.6056,1.6692 L 1.6056,1.6972 L 1.6196,1.7253 L 1.6196,1.7533 L 1.6335,1.7814 L 1.6475,1.7954 L 1.6614,1.8235 L 1.6614,1.8515 L 1.6754,1.8656 L 1.7033,1.9217 L 1.7173,1.9357 L 1.7313,1.9637 L 1.7452,1.9778 L 1.7592,2.0058 L 1.7871,2.0199 L 1.8011,2.0339 L 1.8150,2.0619 L 1.8290,2.0760 L 1.8569,2.0900 L 1.8709,2.1040 L 1.8988,2.1180 L 1.9128,2.1321 L 2.0105,2.1321 L 2.0384,2.1461 L 2.5969,2.1461 L 2.6388,2.1321 L 2.9320,2.1321 L 2.9459,2.1180 L 2.9738,2.1040 L 2.9878,2.0760 L 3.0157,2.0619 L 3.0855,1.9918 L 3.0995,1.9637 L 3.1135,1.9497 L 3.1274,1.9217 L 3.1414,1.9076 L 3.1554,1.8796 L 3.1693,1.8656 L 3.1972,1.8094 L 3.2112,1.7954 L 3.2252,1.7674 L 3.2252,1.7393 L 3.2391,1.7253 L 3.2531,1.6972 L 3.2531,1.6692 L 3.2670,1.6411 L 3.2670,1.6131 L 3.2810,1.5850 L 3.2810,1.5429 L 3.2950,1.5149 L 3.2950,1.4307 L 3.2950,1.4027 Z" stroke="#000000" stroke-width="0.1193" stroke-linecap="round" stroke-linejoin="round" fill="#BCBC7E"/>
        <ellipse cx="2.3735" cy="1.3536" rx="0.1536" ry="0.1473" fill="#000000" stroke="#000000" stroke-width="0.1193" stroke-linecap="round" stroke-linejoin="round"/>
        <ellipse cx="2.3735" cy="1.3536" rx="0.1536" ry="0.1473" fill="none" stroke="#000000" stroke-width="0.1193" stroke-linecap="round" stroke-linejoin="round"/>
        <path d="M 57.7597,2.2022 L 57.8155,2.1461 L 57.8295,2.1180 L 57.8574,2.1040 L 57.8714,2.0760 L 57.9272,2.0199 L 57.9552,1.9637 L 57.9691,1.9497 L 58.0110,1.8656 L 58.0250,1.8515 L 58.0669,1.7674 L 58.0669,1.7393 L 58.0948,1.6832 L 58.0948,1.6692 L 58.1087,1.6411 L 58.1087,1.6131 L 58.1227,1.5850 L 58.1227,1.5289 L 58.1367,1.5009 L 58.1367,1.3185 L 58.1227,1.2624 L 58.1227,1.2203 L 58.1087,1.1642 L 58.0808,1.0801 L 58.0529,1.0380 L 58.0389,0.9959 L 58.0110,0.9398 L 57.9831,0.9117 L 57.9691,0.8697 L 57.9412,0.8276 L 57.8714,0.7574 L 57.8435,0.7154 L 57.8016,0.6873 L 57.7737,0.6593 L 57.6899,0.6031 L 57.6620,0.5751 L 57.6201,0.5470 L 57.5782,0.5330 L 57.5363,0.5050 L 57.4805,0.4909 L 57.3548,0.4489 L 57.2990,0.4489 L 57.2571,0.4348 L 57.0616,0.4348 L 57.0197,0.4489 L 56.9639,0.4489 L 56.8382,0.4909 L 56.7824,0.5050 L 56.7405,0.5330 L 56.6986,0.5470 L 56.6567,0.5751 L 56.6288,0.6031 L 56.5450,0.6593 L 56.5171,0.6873 L 56.4752,0.7154 L 56.4473,0.7574 L 56.3775,0.8276 L 56.3496,0.8697 L 56.3356,0.9117 L 56.3077,0.9398 L 56.2798,0.9959 L 56.2658,1.0380 L 56.2379,1.0801 L 56.2099,1.1642 L 56.1960,1.2203 L 56.1960,1.2624 L 56.1820,1.3185 L 56.1820,1.5009 L 56.1960,1.5289 L 56.1960,1.5850 L 56.2099,1.6131 L 56.2099,1.6552 L 56.2379,1.7113 L 56.2379,1.7393 L 56.2798,1.8235 L 56.2798,1.8515 L 56.3216,1.9357 L 56.3356,1.9497 L 56.3635,2.0058 L 56.4054,2.0479 L 56.4194,2.0760 L 56.4333,2.0900 L 56.4473,2.1180 L 56.4752,2.1321 L 56.4892,2.1461 L 56.5031,2.1741 L 56.5311,2.1882 L 56.5450,2.2022 L 57.7457,2.2022 L 57.7597,2.2022 Z" stroke="#000000" stroke-width="0.1193" stroke-linecap="round" stroke-linejoin="round" fill="#000000"/>
        <path d="M 58.0250,1.4027 L 58.0250,1.3185 L 58.0110,1.2624 L 58.0110,1.2203 L 57.9691,1.0941 L 57.9552,1.0660 L 57.9272,0.9819 L 57.8993,0.9538 L 57.8854,0.9117 L 57.8574,0.8837 L 57.8295,0.8416 L 57.7178,0.7294 L 57.6759,0.7013 L 57.6480,0.6733 L 57.6061,0.6593 L 57.5782,0.6312 L 57.4944,0.6031 L 57.4665,0.5891 L 57.3408,0.5470 L 57.2990,0.5470 L 57.2431,0.5330 L 57.0756,0.5330 L 57.0197,0.5470 L 56.9778,0.5470 L 56.8522,0.5891 L 56.8243,0.6031 L 56.7405,0.6312 L 56.7126,0.6593 L 56.6707,0.6733 L 56.6428,0.7013 L 56.6009,0.7294 L 56.4892,0.8416 L 56.4613,0.8837 L 56.4333,0.9117 L 56.4194,0.9538 L 56.3914,0.9819 L 56.3635,1.0660 L 56.3496,1.0941 L 56.3077,1.2203 L 56.3077,1.2624 L 56.2937,1.3185 L 56.2937,1.5149 L 56.3077,1.5429 L 56.3077,1.5990 L 56.3216,1.6271 L 56.3216,1.6411 L 56.3356,1.6692 L 56.3356,1.6972 L 56.3496,1.7253 L 56.3496,1.7533 L 56.3635,1.7814 L 56.3775,1.7954 L 56.3914,1.8235 L 56.3914,1.8515 L 56.4054,1.8656 L 56.4333,1.9217 L 56.4473,1.9357 L 56.4613,1.9637 L 56.4752,1.9778 L 56.4892,2.0058 L 56.5171,2.0199 L 56.5311,2.0339 L 56.5450,2.0619 L 56.5590,2.0760 L 56.5869,2.0900 L 56.6009,2.1040 L 56.6288,2.1180 L 56.6428,2.1321 L 56.7405,2.1321 L 56.7684,2.1461 L 57.3269,2.1461 L 57.3688,2.1321 L 57.6620,2.1321 L 57.6759,2.1180 L 57.7039,2.1040 L 57.7178,2.0760 L 57.7457,2.0619 L 57.8155,1.9918 L 57.8295,1.9637 L 57.8435,1.9497 L 57.8574,1.9217 L 57.8714,1.9076 L 57.8854,1.8796 L 57.8993,1.8656 L 57.9272,1.8094 L 57.9412,1.7954 L 57.9552,1.7674 L 57.9552,1.7393 L 57.9691,1.7253 L 57.9831,1.6972 L 57.9831,1.6692 L 57.9970,1.6411 L 57.9970,1.6131 L 58.0110,1.5850 L 58.0110,1.5429 L 58.0250,1.5149 L 58.0250,1.4307 L 58.0250,1.4027 Z" stroke="#000000" stroke-width="0.1193" stroke-linecap="round" stroke-linejoin="round" fill="#BCBC7E"/>
        <ellipse cx="57.1035" cy="1.3536" rx="0.1536" ry="0.1473" fill="#000000" stroke="#000000" stroke-width="0.1193" stroke-linecap="round" stroke-linejoin="round"/>
        <ellipse cx="57.1035" cy="1.3536" rx="0.1536" ry="0.1473" fill="none" stroke="#000000" stroke-width="0.1193" stroke-linecap="round" stroke-linejoin="round"/>
        <path d="M 14.5900,3.0157 L 10.2619,3.0157 L 10.2619,6.6908 L 14.5900,6.6908 L 14.5900,3.0157 Z" stroke="#000000" stroke-width="0.1193" stroke-linecap="round" stroke-linejoin="round" fill="#BFBFBF"/>
        <path d="M 56.1681,3.0157 L 36.6496,3.0157 L 36.6496,6.6908 L 56.1681,6.6908 L 56.1681,3.0157 Z" stroke="#000000" stroke-width="0.1193" stroke-linecap="round" stroke-linejoin="round" fill="#BFBFBF"/>
        <path d="M 44.4681,8.3740 L 44.2727,8.3740 L 44.2727,8.3599 L 44.2447,8.3599 L 44.2447,8.3459 L 44.2308,8.3459 L 44.2168,8.3319 L 44.2168,8.3179 L 44.2029,8.3179 L 44.2029,8.3038 L 44.1889,8.2898 L 44.1889,8.2197 L 44.2029,8.2197 L 44.2029,8.1916 L 44.2168,8.1916 L 44.2168,8.1776 L 44.2308,8.1776 L 44.2308,8.1636 L 44.2447,8.1636 L 44.2447,8.1495 L 44.2727,8.1495 L 44.2727,8.1355 L 44.5798,8.1355 L 44.5938,8.1495 L 44.6077,8.1495 L 44.6077,8.1636 L 44.6217,8.1636 L 44.6357,8.1776 L 44.6357,8.1916 L 44.6496,8.1916 L 44.6496,8.2197 L 44.6636,8.2197 L 44.6636,8.2898 L 44.6496,8.2898 L 44.6496,8.3179 L 44.6357,8.3179 L 44.6357,8.3459 L 44.6217,8.3459 L 44.6217,8.3599 " stroke="#000000" stroke-width="0.1193" stroke-linecap="round" stroke-linejoin="round" fill="none"/>
        <path d="M 44.7474,8.2056 L 44.9428,8.2056 L 44.9428,8.2197 L 44.9707,8.2197 L 44.9707,8.2337 L 44.9847,8.2337 L 44.9847,8.2477 L 44.9987,8.2477 L 44.9987,8.2618 L 45.0126,8.2618 L 45.0126,8.2758 L 45.0266,8.2898 L 45.0266,8.3599 L 45.0126,8.3599 L 45.0126,8.3880 L 44.9987,8.3880 L 44.9987,8.4020 L 44.9847,8.4020 L 44.9847,8.4160 L 44.9707,8.4160 L 44.9707,8.4301 L 44.9428,8.4301 L 44.9428,8.4441 L 44.6357,8.4441 L 44.6217,8.4301 L 44.6077,8.4301 L 44.6077,8.4160 L 44.5938,8.4160 L 44.5938,8.4020 L 44.5798,8.4020 L 44.5798,8.3880 L 44.5659,8.3880 L 44.5659,8.3599 L 44.5519,8.3599 L 44.5519,8.2758 L 44.5659,8.2758 L 44.5659,8.2477 L 44.5798,8.2477 L 44.5798,8.2337 L 44.5938,8.2197 " stroke="#000000" stroke-width="0.1193" stroke-linecap="round" stroke-linejoin="round" fill="none"/>
        <path d="M 43.7421,8.2618 L 43.2535,8.2618 " stroke="#000000" stroke-width="0.1193" stroke-linecap="round" stroke-linejoin="round" fill="none"/>
        <path d="M 1.1314,5.6324 L 1.1314,6.3535 " stroke="#000000" stroke-width="0.1193" stroke-linecap="round" stroke-linejoin="round" fill="none"/>
        <path d="M 0.6146,6.5031 L 1.6482,6.5031 " stroke="#000000" stroke-width="0.1193" stroke-linecap="round" stroke-linejoin="round" fill="none"/>
        <path d="M 0.7822,6.6664 L 1.4946,6.6664 " stroke="#000000" stroke-width="0.1193" stroke-linecap="round" stroke-linejoin="round" fill="none"/>
        <path d="M 0.7822,6.6664 L 1.4946,6.6664 " stroke="#000000" stroke-width="0.1193" stroke-linecap="round" stroke-linejoin="round" fill="none"/>
        <path d="M 0.9638,6.8433 L 1.2990,6.8433 " stroke="#000000" stroke-width="0.1193" stroke-linecap="round" stroke-linejoin="round" fill="none"/>
        <text font-family="Arial" fill="#000000" style="white-space:pre;" font-weight="400" text-anchor="start" x="14.2754" y="7.8607" font-size="0.2235"><![CDATA[1]]></text>
        <text font-family="Arial" fill="#000000" style="white-space:pre;" font-weight="400" text-anchor="start" x="10.2387" y="7.8607" font-size="0.2235"><![CDATA[WAN]]></text>
        <text font-family="Arial" fill="#000000" style="white-space:pre;" font-weight="400" text-anchor="start" x="11.4259" y="7.8607" font-size="0.2235"><![CDATA[A]]></text>
        <text font-family="Arial" fill="#000000" style="white-space:pre;" font-weight="400" text-anchor="start" x="12.3618" y="7.8607" font-size="0.2235"><![CDATA[3]]></text>
        <text font-family="Arial" fill="#000000" style="white-space:pre;" font-weight="400" text-anchor="start" x="13.3116" y="7.8607" font-size="0.2235"><![CDATA[2]]></text>
        <text font-family="Arial" fill="#000000" style="white-space:pre;" font-weight="400" text-anchor="start" x="3.4641" y="7.8492" font-size="0.1956"><![CDATA[CONSOLE]]></text>
        <text font-family="Arial" fill="#000000" style="white-space:pre;" font-weight="400" text-anchor="start" x="2.6400" y="7.8492" font-size="0.1956"><![CDATA[USB]]></text>
        <text font-family="Arial" fill="#000000" style="white-space:pre;" font-weight="400" text-anchor="start" x="1.7740" y="7.8492" font-size="0.1956"><![CDATA[DC+12V]]></text>
        <text font-family="Arial" fill="#000000" style="white-space:pre;" font-weight="400" text-anchor="start" x="1.2152" y="7.6618" font-size="0.1536"><![CDATA[RESET]]></text>
        <ellipse cx="2.2895" cy="4.4520" rx="0.6209" ry="0.6248" fill="#666666" stroke="#000000" stroke-width="0.1193" stroke-linecap="round" stroke-linejoin="round"/>
        <ellipse cx="2.2895" cy="4.4520" rx="0.6209" ry="0.6248" fill="none" stroke="#000000" stroke-width="0.1193" stroke-linecap="round" stroke-linejoin="round"/>
        <ellipse cx="2.2895" cy="4.4520" rx="0.5627" ry="0.5663" fill="#7F7F7F" stroke="#000000" stroke-width="0.1193" stroke-linecap="round" stroke-linejoin="round"/>
        <ellipse cx="2.2895" cy="4.4520" rx="0.5627" ry="0.5663" fill="none" stroke="#7F7F7F" stroke-width="0.1193" stroke-linecap="round" stroke-linejoin="round"/>
        <path d="M 1.8626,4.4130 L 1.8432,4.4130 L 1.8238,4.4325 L 1.8238,4.4520 L 1.8044,4.4520 L 1.8044,4.5692 L 1.8238,4.5692 L 1.8238,4.5887 L 1.8432,4.6082 L 2.2507,4.6082 L 2.2507,5.0378 L 2.2701,5.0378 L 2.2701,5.0573 L 2.2895,5.0573 L 2.2895,5.0769 L 2.4059,5.0769 L 2.4059,5.0573 L 2.4253,5.0573 L 2.4253,5.0378 L 2.4447,5.0378 L 2.4447,4.6082 L 2.8715,4.6082 L 2.8715,4.5887 L 2.8909,4.5887 L 2.8909,4.5692 L 2.9103,4.5692 L 2.9103,4.4520 L 2.8909,4.4520 L 2.8909,4.4325 L 2.8715,4.4325 L 2.8715,4.4130 L 2.4447,4.4130 L 2.4447,4.0029 L 2.4253,3.9834 L 2.4059,3.9834 L 2.4059,3.9639 L 2.2895,3.9639 L 2.2895,3.9834 L 2.2701,3.9834 L 2.2507,4.0029 L 2.2507,4.4130 L 1.8820,4.4130 L 1.8626,4.4130 Z" stroke="#161616" stroke-width="0.1193" stroke-linecap="round" stroke-linejoin="round" fill="#494949"/>
        <path d="M 1.7850,4.4716 L 1.7850,4.5692 L 1.8044,4.5887 L 1.8238,4.5887 L 1.8238,4.6082 L 2.2507,4.6082 L 2.2507,5.0573 L 2.2701,5.0769 L 2.2895,5.0769 L 2.2895,5.0964 L 2.3477,5.0964 L 2.3671,5.0964 " stroke="#BFBFBF" stroke-width="0.1193" stroke-linecap="round" stroke-linejoin="round" fill="none"/>
        <path d="M 2.2507,4.0029 L 2.2507,4.3934 L 2.2507,4.4130 " stroke="#BFBFBF" stroke-width="0.1193" stroke-linecap="round" stroke-linejoin="round" fill="none"/>
        <path d="M 6.0584,2.6985 L 6.0584,2.6671 L 6.0431,2.6671 L 6.0431,2.6357 L 6.0278,2.6357 L 6.0278,2.6200 L 6.0124,2.6200 L 5.9971,2.6044 L 5.9818,2.6044 L 5.9664,2.5887 L 5.8591,2.5887 L 5.8591,2.6044 L 5.8284,2.6044 L 5.8130,2.6200 L 5.7977,2.6200 L 5.7977,2.6357 L 5.7824,2.6357 L 5.7824,2.6671 L 5.7670,2.6671 L 5.7670,3.4359 L 5.7517,3.4516 L 5.7517,3.4829 L 5.7364,3.4986 L 5.7364,3.5143 L 5.7210,3.5143 L 5.7210,3.5300 L 5.6750,3.5771 L 5.6597,3.5771 L 5.6597,3.5928 L 5.6443,3.5928 L 5.6290,3.6084 L 5.5983,3.6084 L 5.5983,3.6241 L 5.5676,3.6241 L 5.5523,3.6398 L 5.0308,3.6398 L 5.0155,3.6241 L 4.9848,3.6241 L 4.9848,3.6084 L 4.9541,3.6084 L 4.9388,3.5928 L 4.9234,3.5928 L 4.9234,3.5771 L 4.9081,3.5771 L 4.8621,3.5300 L 4.8621,3.5143 L 4.8468,3.5143 L 4.8468,3.4986 L 4.8314,3.4829 L 4.8314,3.4516 L 4.8161,3.4359 L 4.8161,2.6671 L 4.8007,2.6671 L 4.8007,2.6357 L 4.7854,2.6357 L 4.7854,2.6200 L 4.7701,2.6200 L 4.7547,2.6044 L 4.7241,2.6044 L 4.7241,2.5887 L 4.6167,2.5887 L 4.6014,2.6044 L 4.5860,2.6044 L 4.5707,2.6200 L 4.5553,2.6200 L 4.5553,2.6357 L 4.5400,2.6357 L 4.5400,2.6671 L 4.5247,2.6671 L 4.5247,6.8874 L 6.0584,6.8874 L 6.0584,2.7142 L 6.0584,2.6985 Z" stroke="#000000" stroke-width="0.1193" stroke-linecap="round" stroke-linejoin="round" fill="#494949"/>
        <path d="M 5.9051,4.1105 L 4.6780,4.1105 L 4.6780,6.7776 L 5.9051,6.7776 L 5.9051,4.1105 Z" stroke="#000000" stroke-width="0.1193" stroke-linecap="round" stroke-linejoin="round" fill="#666666"/>
        <path d="M 5.7670,5.5539 L 4.8161,5.5539 L 4.8161,6.5266 L 5.7670,6.5266 L 5.7670,5.5539 Z" stroke="#000000" stroke-width="0.1193" stroke-linecap="round" stroke-linejoin="round" fill="#333333"/>
        <path d="M 5.7670,4.3772 L 4.8161,4.3772 L 4.8161,5.1146 L 5.0462,5.3499 L 5.5523,5.3499 L 5.7670,5.1303 L 5.7670,4.3772 Z" stroke="#000000" stroke-width="0.1193" stroke-linecap="round" stroke-linejoin="round" fill="#333333"/>
        <path d="M 5.4143,5.9147 L 5.1689,5.9147 L 5.1689,6.1657 L 5.4143,6.1657 L 5.4143,5.9147 Z" stroke="#000000" stroke-width="0.1193" stroke-linecap="round" stroke-linejoin="round" fill="#EAEAEA"/>
        <path d="M 5.4143,4.7380 L 5.1689,4.7380 L 5.1689,4.9891 L 5.4143,4.9891 L 5.4143,4.7380 Z" stroke="#000000" stroke-width="0.1193" stroke-linecap="round" stroke-linejoin="round" fill="#EAEAEA"/>
        <path d="M 5.6290,3.9065 L 4.9541,3.9065 L 4.9541,4.1105 L 5.6290,4.1105 L 5.6290,3.9065 Z" stroke="#000000" stroke-width="0.1193" stroke-linecap="round" stroke-linejoin="round" fill="#7F7F7F"/>
        <path d="M 5.7670,2.9495 L 4.8161,2.9495 L 4.8161,3.4202 L 4.8314,3.4359 L 4.8314,3.4672 L 4.8468,3.4829 L 4.8468,3.4986 L 4.8774,3.5300 L 4.8774,3.5457 L 4.8928,3.5457 L 4.8928,3.5614 L 4.9081,3.5614 L 4.9234,3.5771 L 4.9234,3.5928 L 4.9541,3.5928 L 4.9695,3.6084 L 4.9848,3.6084 L 4.9848,3.6241 L 5.0308,3.6241 L 5.0462,3.6398 L 5.5370,3.6398 L 5.5523,3.6241 L 5.5983,3.6241 L 5.5983,3.6084 L 5.6137,3.6084 L 5.6290,3.5928 L 5.6597,3.5928 L 5.6597,3.5771 L 5.6750,3.5614 L 5.6903,3.5614 L 5.6903,3.5457 L 5.7057,3.5457 L 5.7057,3.5300 L 5.7364,3.4986 L 5.7364,3.4829 L 5.7517,3.4672 L 5.7517,3.4359 L 5.7670,3.4202 L 5.7670,2.9652 L 5.7670,2.9495 Z" stroke="#000000" stroke-width="0.1193" stroke-linecap="round" stroke-linejoin="round" fill="#333333"/>
        <path d="M 8.8558,6.6237 L 8.8558,6.6659 L 8.8418,6.6659 L 8.8418,6.6940 L 8.8279,6.7081 L 8.8279,6.7222 L 8.8139,6.7222 L 8.8139,6.7362 L 8.7999,6.7362 L 8.7999,6.7503 L 8.7860,6.7503 L 8.7720,6.7643 L 8.7441,6.7643 L 8.7441,6.7784 L 7.3752,6.7784 L 7.3752,6.7643 L 7.3472,6.7643 L 7.3333,6.7503 L 7.3193,6.7503 L 7.3193,6.7362 L 7.3053,6.7362 L 7.3053,6.7222 L 7.2914,6.7222 L 7.2914,6.7081 L 7.2774,6.6940 L 7.2774,6.6659 L 7.2634,6.6659 L 7.2634,3.1501 L 7.2774,3.1501 L 7.2774,3.1220 L 7.2914,3.1079 L 7.2914,3.0939 L 7.3053,3.0939 L 7.3053,3.0798 L 7.3193,3.0798 L 7.3193,3.0658 L 7.3333,3.0658 L 7.3472,3.0517 L 7.3752,3.0517 L 7.3752,3.0376 L 8.7441,3.0376 L 8.7441,3.0517 L 8.7720,3.0517 L 8.7860,3.0658 L 8.7999,3.0658 L 8.7999,3.0798 L 8.8139,3.0798 L 8.8139,3.0939 L 8.8279,3.0939 L 8.8279,3.1079 L 8.8418,3.1220 L 8.8418,3.1501 L 8.8558,3.1501 L 8.8558,6.6096 L 8.8558,6.6237 Z" stroke="#000000" stroke-width="0.1193" stroke-linecap="round" stroke-linejoin="round" fill="#BFBFBF"/>
        <path d="M 8.7301,6.5675 L 8.7301,6.6096 L 8.7161,6.6096 L 8.7161,6.6378 L 8.6882,6.6378 L 8.6882,6.6518 L 7.4311,6.6518 L 7.4171,6.6378 L 7.4031,6.6378 L 7.4031,6.6237 L 7.3891,6.6237 L 7.3891,6.6096 L 7.3752,6.5956 L 7.3752,3.2064 L 7.3891,3.2064 L 7.3891,3.1923 L 7.4031,3.1923 L 7.4031,3.1783 L 7.4171,3.1783 L 7.4311,3.1642 L 8.6882,3.1642 L 8.6882,3.1783 L 8.7161,3.1783 L 8.7161,3.2064 L 8.7301,3.2064 L 8.7301,6.5534 L 8.7301,6.5675 Z" stroke="#7F7F7F" stroke-width="0.1193" stroke-linecap="round" stroke-linejoin="round" fill="#000000"/>
        <path d="M 8.0317,5.8221 L 8.0317,6.1315 L 8.1015,6.1315 L 8.1015,5.8221 L 8.0317,5.8221 Z" stroke="#000000" stroke-width="0.1193" stroke-linecap="round" stroke-linejoin="round" fill="#BFBFBF"/>
        <path d="M 8.0317,5.1190 L 8.0317,5.4284 L 8.1015,5.4284 L 8.1015,5.1190 L 8.0317,5.1190 Z" stroke="#000000" stroke-width="0.1193" stroke-linecap="round" stroke-linejoin="round" fill="#BFBFBF"/>
        <path d="M 8.0317,4.4299 L 8.0317,4.7393 L 8.1015,4.7393 L 8.1015,4.4299 L 8.0317,4.4299 Z" stroke="#000000" stroke-width="0.1193" stroke-linecap="round" stroke-linejoin="round" fill="#BFBFBF"/>
        <path d="M 8.0317,3.7127 L 8.0317,4.0220 L 8.1015,4.0220 L 8.1015,3.7127 L 8.0317,3.7127 Z" stroke="#000000" stroke-width="0.1193" stroke-linecap="round" stroke-linejoin="round" fill="#BFBFBF"/>
        <path d="M 8.1853,3.3751 L 8.1574,3.3751 L 8.1295,3.3892 L 8.1155,3.4173 L 8.1155,6.3987 L 8.1295,6.4268 L 8.1574,6.4409 L 8.5066,6.4409 L 8.5345,6.4268 L 8.5485,6.3987 L 8.5485,3.4173 L 8.5345,3.3892 L 8.5066,3.3751 L 8.4787,3.3751 L 8.1853,3.3751 Z" stroke="#000000" stroke-width="0.1193" stroke-linecap="round" stroke-linejoin="round" fill="#0000FF"/>
        <path d="M 8.3250,3.4876 L 8.2691,3.5017 L 8.2133,3.5580 L 8.1993,3.6142 L 8.1993,6.2018 L 8.2133,6.2581 L 8.2691,6.3143 L 8.3250,6.3284 L 8.3809,6.3143 L 8.4368,6.2581 L 8.4507,6.2018 L 8.4507,3.6142 L 8.4368,3.5580 L 8.3809,3.5017 L 8.3250,3.4876 Z" stroke="#3232FF" stroke-width="0.1193" stroke-linecap="round" stroke-linejoin="round" fill="#3232FF"/>
        <path d="M 10.6722,6.2752 L 10.6722,4.1511 L 11.5592,4.1511 L 11.5592,3.6513 L 11.9196,3.6513 L 11.9196,3.1515 L 12.9729,3.1515 L 12.9729,3.6513 L 13.3333,3.6513 L 13.3333,4.1511 L 14.2203,4.1511 L 14.2203,6.2752 L 10.6722,6.2752 Z" stroke="#161616" stroke-width="0.1193" stroke-linecap="round" stroke-linejoin="round" fill="#000000"/>
        <path d="M 52.2936,3.4847 L 52.2936,5.6088 L 53.1807,5.6088 L 53.1807,6.1086 L 53.5410,6.1086 L 53.5410,6.6084 L 54.5944,6.6084 L 54.5944,6.1086 L 54.9548,6.1086 L 54.9548,5.6088 L 55.8418,5.6088 L 55.8418,3.4847 L 52.2936,3.4847 Z" stroke="#161616" stroke-width="0.1193" stroke-linecap="round" stroke-linejoin="round" fill="#000000"/>
        <path d="M 48.4406,3.4847 L 48.4406,5.6088 L 49.3276,5.6088 L 49.3276,6.1086 L 49.6880,6.1086 L 49.6880,6.6084 L 50.7413,6.6084 L 50.7413,6.1086 L 51.1017,6.1086 L 51.1017,5.6088 L 51.9887,5.6088 L 51.9887,3.4847 L 48.4406,3.4847 Z" stroke="#161616" stroke-width="0.1193" stroke-linecap="round" stroke-linejoin="round" fill="#000000"/>
        <path d="M 44.6429,3.4847 L 44.6429,5.6088 L 45.5300,5.6088 L 45.5300,6.1086 L 45.8903,6.1086 L 45.8903,6.6084 L 46.9437,6.6084 L 46.9437,6.1086 L 47.3041,6.1086 L 47.3041,5.6088 L 48.1911,5.6088 L 48.1911,3.4847 L 44.6429,3.4847 Z" stroke="#161616" stroke-width="0.1193" stroke-linecap="round" stroke-linejoin="round" fill="#000000"/>
        <path d="M 40.7899,3.4847 L 40.7899,5.6088 L 41.6769,5.6088 L 41.6769,6.1086 L 42.0373,6.1086 L 42.0373,6.6084 L 43.0906,6.6084 L 43.0906,6.1086 L 43.4510,6.1086 L 43.4510,5.6088 L 44.3380,5.6088 L 44.3380,3.4847 L 40.7899,3.4847 Z" stroke="#161616" stroke-width="0.1193" stroke-linecap="round" stroke-linejoin="round" fill="#000000"/>
        <path d="M 36.9368,3.4847 L 36.9368,5.6088 L 37.8238,5.6088 L 37.8238,6.1086 L 38.1842,6.1086 L 38.1842,6.6084 L 39.2376,6.6084 L 39.2376,6.1086 L 39.5979,6.1086 L 39.5979,5.6088 L 40.4850,5.6088 L 40.4850,3.4847 L 36.9368,3.4847 Z" stroke="#161616" stroke-width="0.1193" stroke-linecap="round" stroke-linejoin="round" fill="#000000"/>
      </g>
      <!--emf-blob end-->
    </g>
  </g>
</svg>
