<svg xmlns="http://www.w3.org/2000/svg" xmlns:xlink="http://www.w3.org/1999/xlink" version="1.1" width="2.2440000000" height="0.7120000000" viewBox="0 0 40.3937 12.8126">
  <title><![CDATA[FG/FWF-30G]]></title>
  <g transform=" scale(4.000000) ">
    <!--converted by libvisio2svg-->
    <g transform=" translate(0.000000,0.000000) ">
      <!--emf-blob start-->
      <g transform="translate(-0.0000, -0.0000)">
        <path d="M 5.8551,11.5229 L 6.5431,12.2098 L 33.7825,12.2098 L 34.4705,11.5229 L 5.8551,11.5229 Z" stroke="#000000" stroke-width="0.1197" stroke-linecap="round" stroke-linejoin="round" fill="#BFBFBF"/>
        <path d="M 5.2794,11.5229 L 1.2496,11.5229 L 1.4462,12.7565 L 5.0828,12.7565 L 5.2794,11.5229 Z" stroke="#000000" stroke-width="0.1197" stroke-linecap="round" stroke-linejoin="round" fill="#333333"/>
        <path d="M 1.0531,11.5229 L 5.4760,11.5229 L 5.4760,11.7893 L 1.0531,11.7893 L 1.0531,11.5229 Z" stroke="#000000" stroke-width="0.1197" stroke-linecap="round" stroke-linejoin="round" fill="#333333"/>
        <path d="M 35.0462,11.5229 L 39.0760,11.5229 L 38.8794,12.7565 L 35.2428,12.7565 L 35.0462,11.5229 Z" stroke="#000000" stroke-width="0.1197" stroke-linecap="round" stroke-linejoin="round" fill="#333333"/>
        <path d="M 39.2725,11.5229 L 34.8496,11.5229 L 34.8496,11.7893 L 39.2725,11.7893 L 39.2725,11.5229 Z" stroke="#000000" stroke-width="0.1197" stroke-linecap="round" stroke-linejoin="round" fill="#333333"/>
        <path d="M 40.2975,0.2243 L 40.2975,0.1822 L 40.2835,0.1402 L 40.2695,0.1121 L 40.2414,0.0841 L 40.2133,0.0561 L 40.1852,0.0421 L 40.1431,0.0280 L 40.1010,0.0280 L 0.2247,0.0280 L 0.1825,0.0280 L 0.1404,0.0421 L 0.1123,0.0561 L 0.0842,0.0841 L 0.0562,0.1121 L 0.0421,0.1402 L 0.0281,0.1822 L 0.0281,0.2243 L 0.0281,11.3267 L 0.0281,11.3687 L 0.0421,11.4108 L 0.0562,11.4388 L 0.0842,11.4669 L 0.1123,11.4949 L 0.1404,11.5089 L 0.1825,11.5229 L 0.2247,11.5229 L 40.1010,11.5229 L 40.1431,11.5229 L 40.1852,11.5089 L 40.2133,11.4949 L 40.2414,11.4669 L 40.2695,11.4388 L 40.2835,11.4108 L 40.2975,11.3687 L 40.2975,11.3267 L 40.2975,0.2243 Z" stroke="#000000" stroke-width="0.1197" stroke-linecap="round" stroke-linejoin="round" fill="#EFEFEF"/>
        <path d="M 40.1290,0.3505 L 40.1150,0.2944 L 40.0869,0.2523 L 40.0448,0.2243 L 39.9886,0.2103 L 0.3510,0.2103 L 0.2949,0.2243 L 0.2527,0.2523 L 0.2247,0.2944 L 0.2106,0.3505 L 0.2106,11.2145 L 0.2247,11.2706 L 0.2527,11.3127 L 0.2949,11.3407 L 0.3510,11.3547 L 39.9886,11.3547 L 40.0448,11.3407 L 40.0869,11.3127 L 40.1150,11.2706 L 40.1290,11.2145 L 40.1290,0.3505 Z" stroke="#000000" stroke-width="0.1197" stroke-linecap="round" stroke-linejoin="round" fill="#7F7F7F"/>
        <path d="M 0.4353,0.0280 L 0.3791,0.2523 L 0.0281,0.2523 L 0.0281,11.2986 L 0.3791,11.2986 L 0.4353,11.5229 L 39.8904,11.5229 L 39.9465,11.2986 L 40.2975,11.2986 L 40.2975,0.2523 L 39.9465,0.2523 L 39.8904,0.0280 L 0.4353,0.0280 Z" stroke="#000000" stroke-width="0.1197" stroke-linecap="round" stroke-linejoin="round" fill="#EFEFEF"/>
        <path d="M 0.4072,0.1682 L 0.4353,0.0280 L 39.8904,0.0280 L 39.9184,0.1682 L 0.4072,0.1682 Z" stroke="#FFFFFF" stroke-width="0.1197" stroke-linecap="round" stroke-linejoin="round" fill="#FFFFFF"/>
        <path d="M 0.4072,11.3827 L 0.4353,11.5229 L 39.8904,11.5229 L 39.9184,11.3827 L 0.4072,11.3827 Z" stroke="#D8D8D8" stroke-width="0.1197" stroke-linecap="round" stroke-linejoin="round" fill="#D8D8D8"/>
        <path d="M 40.2975,0.2523 L 39.9465,0.2523 L 39.8904,0.0280 L 0.4353,0.0280 L 0.3791,0.2523 L 0.0281,0.2523 L 0.0281,11.2986 L 0.3791,11.2986 L 0.4353,11.5229 L 39.8904,11.5229 L 39.9465,11.2986 L 40.2975,11.2986 L 40.2975,0.2523 " stroke="#000000" stroke-width="0.1197" stroke-linecap="round" stroke-linejoin="round" fill="none"/>
        <path d="M 10.7975,4.8503 L 5.8972,4.8503 L 5.8972,9.0137 L 10.7975,9.0137 L 10.7975,4.8503 Z" stroke="#BFBFBF" stroke-width="0.1197" stroke-linecap="round" stroke-linejoin="round" fill="#000000"/>
        <path d="M 6.2201,8.9156 L 6.2201,8.8034 L 6.1359,8.8034 L 6.1359,8.9156 L 6.0657,8.9156 L 6.0657,8.3408 L 6.1219,8.3408 L 6.1219,8.1866 L 6.0095,8.1866 L 6.0095,7.5698 L 6.1219,7.5698 L 6.1219,7.4296 L 6.0657,7.4296 L 6.0657,6.5745 L 6.1219,6.5745 L 6.1219,6.4203 L 6.0095,6.4203 L 6.0095,5.8035 L 6.1219,5.8035 L 6.1219,5.6493 L 6.0657,5.6493 L 6.0657,5.1306 L 6.1499,5.1306 L 6.1499,5.0045 L 6.5712,5.0045 L 6.6133,5.1026 L 6.6975,5.1026 L 6.7256,4.9204 L 7.2311,4.9204 L 7.2592,5.1026 L 7.3294,5.1026 L 7.3715,5.0045 L 9.3092,5.0045 L 9.3513,5.1026 L 9.4215,5.1026 L 9.4496,4.9204 L 9.9550,4.9204 L 9.9831,5.1026 L 10.0674,5.1026 L 10.1095,5.0045 L 10.5307,5.0045 L 10.5307,5.1306 L 10.6150,5.1306 L 10.6150,5.6493 L 10.5588,5.6493 L 10.5588,5.8035 L 10.6711,5.8035 L 10.6711,6.4203 L 10.5588,6.4203 L 10.5588,6.5745 L 10.6150,6.5745 L 10.6150,7.4296 L 10.5588,7.4296 L 10.5588,7.5698 L 10.6711,7.5698 L 10.6711,8.1866 L 10.5588,8.1866 L 10.5588,8.3408 L 10.6150,8.3408 L 10.6150,8.9156 L 10.5448,8.9156 L 10.5448,8.8034 L 10.4605,8.8034 L 10.4605,8.9156 L 6.2201,8.9156 Z" stroke="#161616" stroke-width="0.1197" stroke-linecap="round" stroke-linejoin="round" fill="#EAEAEA"/>
        <path d="M 6.1499,5.1306 L 6.1499,8.8034 L 10.5307,8.8034 L 10.5307,5.1306 L 6.1499,5.1306 Z" stroke="#BFBFBF" stroke-width="0.1197" stroke-linecap="round" stroke-linejoin="round" fill="#BFBFBF"/>
        <path d="M 37.5455,4.8503 L 20.6823,4.8503 L 20.6823,9.0137 L 37.5455,9.0137 L 37.5455,4.8503 Z" stroke="#BFBFBF" stroke-width="0.1197" stroke-linecap="round" stroke-linejoin="round" fill="#000000"/>
        <path d="M 21.0053,8.9156 L 21.0053,8.8034 L 20.8508,8.8034 L 20.8508,8.3408 L 20.9070,8.3408 L 20.9070,8.1866 L 20.7947,8.1866 L 20.7947,7.5698 L 20.9070,7.5698 L 20.9070,7.4296 L 20.8508,7.4296 L 20.8508,6.5745 L 20.9070,6.5745 L 20.9070,6.4203 L 20.7947,6.4203 L 20.7947,5.8035 L 20.9070,5.8035 L 20.9070,5.6493 L 20.8508,5.6493 L 20.8508,5.1306 L 20.9351,5.1306 L 20.9351,5.0045 L 21.3563,5.0045 L 24.7121,5.0045 L 24.7542,5.1026 L 24.8244,5.1026 L 24.8525,4.9204 L 25.3580,4.9204 L 25.3860,5.1026 L 25.4703,5.1026 L 25.5124,5.0045 L 28.6857,5.0045 L 28.7278,5.1026 L 28.7980,5.1026 L 28.8261,4.9204 L 29.3316,4.9204 L 29.3596,5.1026 L 29.4439,5.1026 L 29.4860,5.0045 L 32.6873,5.0045 L 32.7295,5.1026 L 32.7997,5.1026 L 32.8278,4.9204 L 33.3332,4.9204 L 33.3613,5.1026 L 33.4456,5.1026 L 33.4877,5.0045 L 36.8575,5.0045 L 37.2787,5.0045 L 37.2787,5.1306 L 37.3630,5.1306 L 37.3630,5.6493 L 37.3068,5.6493 L 37.3068,5.8035 L 37.4191,5.8035 L 37.4191,6.4203 L 37.3068,6.4203 L 37.3068,6.5745 L 37.3630,6.5745 L 37.3630,7.4296 L 37.3068,7.4296 L 37.3068,7.5698 L 37.4191,7.5698 L 37.4191,8.1866 L 37.3068,8.1866 L 37.3068,8.3408 L 37.3630,8.3408 L 37.3630,8.8034 L 37.2085,8.8034 L 37.2085,8.9156 L 21.0053,8.9156 Z" stroke="#161616" stroke-width="0.1197" stroke-linecap="round" stroke-linejoin="round" fill="#EAEAEA"/>
        <path d="M 20.9351,5.1306 L 20.9351,8.8034 L 37.2787,8.8034 L 37.2787,5.1306 L 20.9351,5.1306 Z" stroke="#BFBFBF" stroke-width="0.1197" stroke-linecap="round" stroke-linejoin="round" fill="#BFBFBF"/>
        <path d="M 21.2720,5.4531 L 21.2720,6.3362 L 21.2440,6.3362 L 21.2440,6.3783 L 21.2720,6.3783 L 21.2720,6.8549 L 21.2440,6.8549 L 21.2440,6.8969 L 21.2720,6.8969 L 21.2720,7.9062 L 21.1597,7.9062 L 21.1597,8.5511 L 22.4655,8.5511 L 22.4655,8.7894 L 23.7854,8.7894 L 23.7854,8.5511 L 25.0912,8.5511 L 25.0912,7.9062 L 24.9789,7.9062 L 24.9789,6.8969 L 25.0069,6.8969 L 25.0069,6.8549 L 24.9789,6.8549 L 24.9789,6.3783 L 25.0069,6.3783 L 25.0069,6.3362 L 24.9789,6.3362 L 24.9789,5.4531 L 21.2720,5.4531 Z" stroke="#000000" stroke-width="0.1197" stroke-linecap="round" stroke-linejoin="round" fill="#494949"/>
        <path d="M 25.0350,7.9483 L 25.0350,8.5090 L 24.1224,8.5090 L 24.1224,7.9483 L 25.0350,7.9483 Z" stroke="#000000" stroke-width="0.1197" stroke-linecap="round" stroke-linejoin="round" fill="#A5A54C"/>
        <path d="M 24.9227,8.0184 L 24.9227,8.4389 L 24.2347,8.4389 L 24.2347,8.0184 L 24.9227,8.0184 Z" stroke="#FFFF00" stroke-width="0.1197" stroke-linecap="round" stroke-linejoin="round" fill="#FFFF00"/>
        <path d="M 21.2159,7.9483 L 21.2159,8.5090 L 22.1285,8.5090 L 22.1285,7.9483 L 21.2159,7.9483 Z" stroke="#000000" stroke-width="0.1197" stroke-linecap="round" stroke-linejoin="round" fill="#007F00"/>
        <path d="M 21.3282,8.0184 L 21.3282,8.4389 L 22.0162,8.4389 L 22.0162,8.0184 L 21.3282,8.0184 Z" stroke="#00FF00" stroke-width="0.1197" stroke-linecap="round" stroke-linejoin="round" fill="#00FF00"/>
        <path d="M 25.2597,5.4531 L 25.2597,6.3362 L 25.2316,6.3362 L 25.2316,6.3783 L 25.2597,6.3783 L 25.2597,6.8549 L 25.2316,6.8549 L 25.2316,6.8969 L 25.2597,6.8969 L 25.2597,7.9062 L 25.1473,7.9062 L 25.1473,8.5511 L 26.4532,8.5511 L 26.4532,8.7894 L 27.7730,8.7894 L 27.7730,8.5511 L 29.0788,8.5511 L 29.0788,7.9062 L 28.9665,7.9062 L 28.9665,6.8969 L 28.9946,6.8969 L 28.9946,6.8549 L 28.9665,6.8549 L 28.9665,6.3783 L 28.9946,6.3783 L 28.9946,6.3362 L 28.9665,6.3362 L 28.9665,5.4531 L 25.2597,5.4531 Z" stroke="#000000" stroke-width="0.1197" stroke-linecap="round" stroke-linejoin="round" fill="#494949"/>
        <path d="M 29.0227,7.9483 L 29.0227,8.5090 L 28.1100,8.5090 L 28.1100,7.9483 L 29.0227,7.9483 Z" stroke="#000000" stroke-width="0.1197" stroke-linecap="round" stroke-linejoin="round" fill="#A5A54C"/>
        <path d="M 28.9103,8.0184 L 28.9103,8.4389 L 28.2223,8.4389 L 28.2223,8.0184 L 28.9103,8.0184 Z" stroke="#FFFF00" stroke-width="0.1197" stroke-linecap="round" stroke-linejoin="round" fill="#FFFF00"/>
        <path d="M 25.2035,7.9483 L 25.2035,8.5090 L 26.1162,8.5090 L 26.1162,7.9483 L 25.2035,7.9483 Z" stroke="#000000" stroke-width="0.1197" stroke-linecap="round" stroke-linejoin="round" fill="#007F00"/>
        <path d="M 25.3158,8.0184 L 25.3158,8.4389 L 26.0038,8.4389 L 26.0038,8.0184 L 25.3158,8.0184 Z" stroke="#00FF00" stroke-width="0.1197" stroke-linecap="round" stroke-linejoin="round" fill="#00FF00"/>
        <path d="M 29.2473,5.4531 L 29.2473,6.3362 L 29.2192,6.3362 L 29.2192,6.3783 L 29.2473,6.3783 L 29.2473,6.8549 L 29.2192,6.8549 L 29.2192,6.8969 L 29.2473,6.8969 L 29.2473,7.9062 L 29.1350,7.9062 L 29.1350,8.5511 L 30.4408,8.5511 L 30.4408,8.7894 L 31.7606,8.7894 L 31.7606,8.5511 L 33.0664,8.5511 L 33.0664,7.9062 L 32.9541,7.9062 L 32.9541,6.8969 L 32.9822,6.8969 L 32.9822,6.8549 L 32.9541,6.8549 L 32.9541,6.3783 L 32.9822,6.3783 L 32.9822,6.3362 L 32.9541,6.3362 L 32.9541,5.4531 L 29.2473,5.4531 Z" stroke="#000000" stroke-width="0.1197" stroke-linecap="round" stroke-linejoin="round" fill="#494949"/>
        <path d="M 33.0103,7.9483 L 33.0103,8.5090 L 32.0976,8.5090 L 32.0976,7.9483 L 33.0103,7.9483 Z" stroke="#000000" stroke-width="0.1197" stroke-linecap="round" stroke-linejoin="round" fill="#A5A54C"/>
        <path d="M 32.8980,8.0184 L 32.8980,8.4389 L 32.2099,8.4389 L 32.2099,8.0184 L 32.8980,8.0184 Z" stroke="#FFFF00" stroke-width="0.1197" stroke-linecap="round" stroke-linejoin="round" fill="#FFFF00"/>
        <path d="M 29.1911,7.9483 L 29.1911,8.5090 L 30.1038,8.5090 L 30.1038,7.9483 L 29.1911,7.9483 Z" stroke="#000000" stroke-width="0.1197" stroke-linecap="round" stroke-linejoin="round" fill="#007F00"/>
        <path d="M 29.3035,8.0184 L 29.3035,8.4389 L 29.9915,8.4389 L 29.9915,8.0184 L 29.3035,8.0184 Z" stroke="#00FF00" stroke-width="0.1197" stroke-linecap="round" stroke-linejoin="round" fill="#00FF00"/>
        <path d="M 33.2349,5.4531 L 33.2349,6.3362 L 33.2069,6.3362 L 33.2069,6.3783 L 33.2349,6.3783 L 33.2349,6.8549 L 33.2069,6.8549 L 33.2069,6.8969 L 33.2349,6.8969 L 33.2349,7.9062 L 33.1226,7.9062 L 33.1226,8.5511 L 34.4284,8.5511 L 34.4284,8.7894 L 35.7483,8.7894 L 35.7483,8.5511 L 37.0541,8.5511 L 37.0541,7.9062 L 36.9418,7.9062 L 36.9418,6.8969 L 36.9698,6.8969 L 36.9698,6.8549 L 36.9418,6.8549 L 36.9418,6.3783 L 36.9698,6.3783 L 36.9698,6.3362 L 36.9418,6.3362 L 36.9418,5.4531 L 33.2349,5.4531 Z" stroke="#000000" stroke-width="0.1197" stroke-linecap="round" stroke-linejoin="round" fill="#494949"/>
        <path d="M 36.9979,7.9483 L 36.9979,8.5090 L 36.0853,8.5090 L 36.0853,7.9483 L 36.9979,7.9483 Z" stroke="#000000" stroke-width="0.1197" stroke-linecap="round" stroke-linejoin="round" fill="#A5A54C"/>
        <path d="M 36.8856,8.0184 L 36.8856,8.4389 L 36.1976,8.4389 L 36.1976,8.0184 L 36.8856,8.0184 Z" stroke="#FFFF00" stroke-width="0.1197" stroke-linecap="round" stroke-linejoin="round" fill="#FFFF00"/>
        <path d="M 33.1788,7.9483 L 33.1788,8.5090 L 34.0914,8.5090 L 34.0914,7.9483 L 33.1788,7.9483 Z" stroke="#000000" stroke-width="0.1197" stroke-linecap="round" stroke-linejoin="round" fill="#007F00"/>
        <path d="M 33.2911,8.0184 L 33.2911,8.4389 L 33.9791,8.4389 L 33.9791,8.0184 L 33.2911,8.0184 Z" stroke="#00FF00" stroke-width="0.1197" stroke-linecap="round" stroke-linejoin="round" fill="#00FF00"/>
        <path d="M 24.3611,3.1961 L 24.3611,3.1401 L 24.3470,3.0980 L 24.3189,3.0560 L 24.2909,3.0139 L 24.2487,2.9859 L 24.2066,2.9578 L 24.1645,2.9438 L 24.1083,2.9438 L 23.1816,2.9438 L 23.1255,2.9438 L 23.0833,2.9578 L 23.0412,2.9859 L 22.9991,3.0139 L 22.9710,3.0560 L 22.9429,3.0980 L 22.9289,3.1401 L 22.9289,3.1961 L 22.9289,3.2522 L 22.9429,3.2943 L 22.9710,3.3363 L 22.9991,3.3784 L 23.0412,3.4064 L 23.0833,3.4344 L 23.1255,3.4485 L 23.1816,3.4485 L 24.1083,3.4485 L 24.1645,3.4485 L 24.2066,3.4344 L 24.2487,3.4064 L 24.2909,3.3784 L 24.3189,3.3363 L 24.3470,3.2943 L 24.3611,3.2522 L 24.3611,3.1961 Z" stroke="#7F7F7F" stroke-width="0.1197" stroke-linecap="round" stroke-linejoin="round" fill="#000000"/>
        <path d="M 26.5514,3.1961 L 26.5514,3.1401 L 26.5374,3.0980 L 26.5093,3.0560 L 26.4812,3.0139 L 26.4391,2.9859 L 26.3970,2.9578 L 26.3549,2.9438 L 26.2987,2.9438 L 25.3720,2.9438 L 25.3158,2.9438 L 25.2737,2.9578 L 25.2316,2.9859 L 25.1895,3.0139 L 25.1614,3.0560 L 25.1333,3.0980 L 25.1193,3.1401 L 25.1193,3.1961 L 25.1193,3.2522 L 25.1333,3.2943 L 25.1614,3.3363 L 25.1895,3.3784 L 25.2316,3.4064 L 25.2737,3.4344 L 25.3158,3.4485 L 25.3720,3.4485 L 26.2987,3.4485 L 26.3549,3.4485 L 26.3970,3.4344 L 26.4391,3.4064 L 26.4812,3.3784 L 26.5093,3.3363 L 26.5374,3.2943 L 26.5514,3.2522 L 26.5514,3.1961 Z" stroke="#7F7F7F" stroke-width="0.1197" stroke-linecap="round" stroke-linejoin="round" fill="#000000"/>
        <path d="M 28.7278,3.1961 L 28.7278,3.1401 L 28.7138,3.0980 L 28.6857,3.0560 L 28.6576,3.0139 L 28.6155,2.9859 L 28.5733,2.9578 L 28.5312,2.9438 L 28.4751,2.9438 L 27.5484,2.9438 L 27.4922,2.9438 L 27.4501,2.9578 L 27.4079,2.9859 L 27.3658,3.0139 L 27.3377,3.0560 L 27.3097,3.0980 L 27.2956,3.1401 L 27.2956,3.1961 L 27.2956,3.2522 L 27.3097,3.2943 L 27.3377,3.3363 L 27.3658,3.3784 L 27.4079,3.4064 L 27.4501,3.4344 L 27.4922,3.4485 L 27.5484,3.4485 L 28.4751,3.4485 L 28.5312,3.4485 L 28.5733,3.4344 L 28.6155,3.4064 L 28.6576,3.3784 L 28.6857,3.3363 L 28.7138,3.2943 L 28.7278,3.2522 L 28.7278,3.1961 Z" stroke="#7F7F7F" stroke-width="0.1197" stroke-linecap="round" stroke-linejoin="round" fill="#000000"/>
        <path d="M 30.9182,3.1961 L 30.9182,3.1401 L 30.9041,3.0980 L 30.8761,3.0560 L 30.8480,3.0139 L 30.8059,2.9859 L 30.7637,2.9578 L 30.7216,2.9438 L 30.6654,2.9438 L 29.7387,2.9438 L 29.6826,2.9438 L 29.6405,2.9578 L 29.5983,2.9859 L 29.5562,3.0139 L 29.5281,3.0560 L 29.5000,3.0980 L 29.4860,3.1401 L 29.4860,3.1961 L 29.4860,3.2522 L 29.5000,3.2943 L 29.5281,3.3363 L 29.5562,3.3784 L 29.5983,3.4064 L 29.6405,3.4344 L 29.6826,3.4485 L 29.7387,3.4485 L 30.6654,3.4485 L 30.7216,3.4485 L 30.7637,3.4344 L 30.8059,3.4064 L 30.8480,3.3784 L 30.8761,3.3363 L 30.9041,3.2943 L 30.9182,3.2522 L 30.9182,3.1961 Z" stroke="#7F7F7F" stroke-width="0.1197" stroke-linecap="round" stroke-linejoin="round" fill="#000000"/>
        <path d="M 33.0945,3.1961 L 33.0945,3.1401 L 33.0805,3.0980 L 33.0524,3.0560 L 33.0243,3.0139 L 32.9822,2.9859 L 32.9401,2.9578 L 32.8980,2.9438 L 32.8418,2.9438 L 31.9151,2.9438 L 31.8589,2.9438 L 31.8168,2.9578 L 31.7747,2.9859 L 31.7326,3.0139 L 31.7045,3.0560 L 31.6764,3.0980 L 31.6624,3.1401 L 31.6624,3.1961 L 31.6624,3.2522 L 31.6764,3.2943 L 31.7045,3.3363 L 31.7326,3.3784 L 31.7747,3.4064 L 31.8168,3.4344 L 31.8589,3.4485 L 31.9151,3.4485 L 32.8418,3.4485 L 32.8980,3.4485 L 32.9401,3.4344 L 32.9822,3.4064 L 33.0243,3.3784 L 33.0524,3.3363 L 33.0805,3.2943 L 33.0945,3.2522 L 33.0945,3.1961 Z" stroke="#7F7F7F" stroke-width="0.1197" stroke-linecap="round" stroke-linejoin="round" fill="#000000"/>
        <path d="M 35.2849,3.1961 L 35.2849,3.1401 L 35.2709,3.0980 L 35.2428,3.0560 L 35.2147,3.0139 L 35.1726,2.9859 L 35.1305,2.9578 L 35.0883,2.9438 L 35.0322,2.9438 L 34.1055,2.9438 L 34.0493,2.9438 L 34.0072,2.9578 L 33.9651,2.9859 L 33.9229,3.0139 L 33.8949,3.0560 L 33.8668,3.0980 L 33.8527,3.1401 L 33.8527,3.1961 L 33.8527,3.2522 L 33.8668,3.2943 L 33.8949,3.3363 L 33.9229,3.3784 L 33.9651,3.4064 L 34.0072,3.4344 L 34.0493,3.4485 L 34.1055,3.4485 L 35.0322,3.4485 L 35.0883,3.4485 L 35.1305,3.4344 L 35.1726,3.4064 L 35.2147,3.3784 L 35.2428,3.3363 L 35.2709,3.2943 L 35.2849,3.2522 L 35.2849,3.1961 Z" stroke="#7F7F7F" stroke-width="0.1197" stroke-linecap="round" stroke-linejoin="round" fill="#000000"/>
        <path d="M 24.3611,2.1027 L 24.3611,2.0467 L 24.3470,2.0046 L 24.3189,1.9625 L 24.2909,1.9205 L 24.2487,1.8925 L 24.2066,1.8644 L 24.1645,1.8504 L 24.1083,1.8504 L 23.1816,1.8504 L 23.1255,1.8504 L 23.0833,1.8644 L 23.0412,1.8925 L 22.9991,1.9205 L 22.9710,1.9625 L 22.9429,2.0046 L 22.9289,2.0467 L 22.9289,2.1027 L 22.9289,2.1588 L 22.9429,2.2009 L 22.9710,2.2429 L 22.9991,2.2850 L 23.0412,2.3130 L 23.0833,2.3410 L 23.1255,2.3551 L 23.1816,2.3551 L 24.1083,2.3551 L 24.1645,2.3551 L 24.2066,2.3410 L 24.2487,2.3130 L 24.2909,2.2850 L 24.3189,2.2429 L 24.3470,2.2009 L 24.3611,2.1588 L 24.3611,2.1027 Z" stroke="#7F7F7F" stroke-width="0.1197" stroke-linecap="round" stroke-linejoin="round" fill="#000000"/>
        <path d="M 26.5514,2.1027 L 26.5514,2.0467 L 26.5374,2.0046 L 26.5093,1.9625 L 26.4812,1.9205 L 26.4391,1.8925 L 26.3970,1.8644 L 26.3549,1.8504 L 26.2987,1.8504 L 25.3720,1.8504 L 25.3158,1.8504 L 25.2737,1.8644 L 25.2316,1.8925 L 25.1895,1.9205 L 25.1614,1.9625 L 25.1333,2.0046 L 25.1193,2.0467 L 25.1193,2.1027 L 25.1193,2.1588 L 25.1333,2.2009 L 25.1614,2.2429 L 25.1895,2.2850 L 25.2316,2.3130 L 25.2737,2.3410 L 25.3158,2.3551 L 25.3720,2.3551 L 26.2987,2.3551 L 26.3549,2.3551 L 26.3970,2.3410 L 26.4391,2.3130 L 26.4812,2.2850 L 26.5093,2.2429 L 26.5374,2.2009 L 26.5514,2.1588 L 26.5514,2.1027 Z" stroke="#7F7F7F" stroke-width="0.1197" stroke-linecap="round" stroke-linejoin="round" fill="#000000"/>
        <path d="M 28.7278,2.1027 L 28.7278,2.0467 L 28.7138,2.0046 L 28.6857,1.9625 L 28.6576,1.9205 L 28.6155,1.8925 L 28.5733,1.8644 L 28.5312,1.8504 L 28.4751,1.8504 L 27.5484,1.8504 L 27.4922,1.8504 L 27.4501,1.8644 L 27.4079,1.8925 L 27.3658,1.9205 L 27.3377,1.9625 L 27.3097,2.0046 L 27.2956,2.0467 L 27.2956,2.1027 L 27.2956,2.1588 L 27.3097,2.2009 L 27.3377,2.2429 L 27.3658,2.2850 L 27.4079,2.3130 L 27.4501,2.3410 L 27.4922,2.3551 L 27.5484,2.3551 L 28.4751,2.3551 L 28.5312,2.3551 L 28.5733,2.3410 L 28.6155,2.3130 L 28.6576,2.2850 L 28.6857,2.2429 L 28.7138,2.2009 L 28.7278,2.1588 L 28.7278,2.1027 Z" stroke="#7F7F7F" stroke-width="0.1197" stroke-linecap="round" stroke-linejoin="round" fill="#000000"/>
        <path d="M 30.9182,2.1027 L 30.9182,2.0467 L 30.9041,2.0046 L 30.8761,1.9625 L 30.8480,1.9205 L 30.8059,1.8925 L 30.7637,1.8644 L 30.7216,1.8504 L 30.6654,1.8504 L 29.7387,1.8504 L 29.6826,1.8504 L 29.6405,1.8644 L 29.5983,1.8925 L 29.5562,1.9205 L 29.5281,1.9625 L 29.5000,2.0046 L 29.4860,2.0467 L 29.4860,2.1027 L 29.4860,2.1588 L 29.5000,2.2009 L 29.5281,2.2429 L 29.5562,2.2850 L 29.5983,2.3130 L 29.6405,2.3410 L 29.6826,2.3551 L 29.7387,2.3551 L 30.6654,2.3551 L 30.7216,2.3551 L 30.7637,2.3410 L 30.8059,2.3130 L 30.8480,2.2850 L 30.8761,2.2429 L 30.9041,2.2009 L 30.9182,2.1588 L 30.9182,2.1027 Z" stroke="#7F7F7F" stroke-width="0.1197" stroke-linecap="round" stroke-linejoin="round" fill="#000000"/>
        <path d="M 33.0945,2.1027 L 33.0945,2.0467 L 33.0805,2.0046 L 33.0524,1.9625 L 33.0243,1.9205 L 32.9822,1.8925 L 32.9401,1.8644 L 32.8980,1.8504 L 32.8418,1.8504 L 31.9151,1.8504 L 31.8589,1.8504 L 31.8168,1.8644 L 31.7747,1.8925 L 31.7326,1.9205 L 31.7045,1.9625 L 31.6764,2.0046 L 31.6624,2.0467 L 31.6624,2.1027 L 31.6624,2.1588 L 31.6764,2.2009 L 31.7045,2.2429 L 31.7326,2.2850 L 31.7747,2.3130 L 31.8168,2.3410 L 31.8589,2.3551 L 31.9151,2.3551 L 32.8418,2.3551 L 32.8980,2.3551 L 32.9401,2.3410 L 32.9822,2.3130 L 33.0243,2.2850 L 33.0524,2.2429 L 33.0805,2.2009 L 33.0945,2.1588 L 33.0945,2.1027 Z" stroke="#7F7F7F" stroke-width="0.1197" stroke-linecap="round" stroke-linejoin="round" fill="#000000"/>
        <path d="M 35.2849,2.1027 L 35.2849,2.0467 L 35.2709,2.0046 L 35.2428,1.9625 L 35.2147,1.9205 L 35.1726,1.8925 L 35.1305,1.8644 L 35.0883,1.8504 L 35.0322,1.8504 L 34.1055,1.8504 L 34.0493,1.8504 L 34.0072,1.8644 L 33.9651,1.8925 L 33.9229,1.9205 L 33.8949,1.9625 L 33.8668,2.0046 L 33.8527,2.0467 L 33.8527,2.1027 L 33.8527,2.1588 L 33.8668,2.2009 L 33.8949,2.2429 L 33.9229,2.2850 L 33.9651,2.3130 L 34.0072,2.3410 L 34.0493,2.3551 L 34.1055,2.3551 L 35.0322,2.3551 L 35.0883,2.3551 L 35.1305,2.3410 L 35.1726,2.3130 L 35.2147,2.2850 L 35.2428,2.2429 L 35.2709,2.2009 L 35.2849,2.1588 L 35.2849,2.1027 Z" stroke="#7F7F7F" stroke-width="0.1197" stroke-linecap="round" stroke-linejoin="round" fill="#000000"/>
        <ellipse cx="2.5344" cy="7.6329" rx="0.2738" ry="0.2734" fill="#000000" stroke="#000000" stroke-width="0.1197" stroke-linecap="round" stroke-linejoin="round"/>
        <ellipse cx="2.5344" cy="7.6329" rx="0.2738" ry="0.2734" fill="none" stroke="#000000" stroke-width="0.1197" stroke-linecap="round" stroke-linejoin="round"/>
        <ellipse cx="2.5414" cy="7.6399" rx="0.2247" ry="0.2243" fill="#333333" stroke="#000000" stroke-width="0.1197" stroke-linecap="round" stroke-linejoin="round"/>
        <ellipse cx="2.5414" cy="7.6399" rx="0.2247" ry="0.2243" fill="none" stroke="#000000" stroke-width="0.1197" stroke-linecap="round" stroke-linejoin="round"/>
        <path d="M 1.4322,2.1588 L 1.4181,2.1588 L 1.4041,2.1588 L 1.4041,2.1448 L 1.3901,2.1448 L 1.3901,2.1308 L 1.3760,2.1308 L 1.3760,2.1167 L 1.3620,2.1167 L 1.3620,2.1027 L 1.3620,2.0887 L 1.3620,2.0747 L 1.3620,2.0607 L 1.3620,2.0467 L 1.3620,2.0186 L 1.3620,1.9906 L 1.3620,1.9625 L 1.3620,1.9205 L 1.3620,1.8784 L 1.3620,1.8364 L 1.3620,1.7943 L 1.3620,1.7523 L 1.3620,1.7102 L 1.3620,1.6541 L 1.3620,1.6121 L 1.3620,1.5560 L 1.3620,1.4999 L 1.3620,1.4579 L 1.3620,1.4018 L 1.3620,1.3598 L 1.3620,1.3177 L 1.3620,1.2757 L 1.3620,1.2336 L 1.3620,1.1915 L 1.3620,1.1495 L 1.3620,1.1215 L 1.3620,1.0934 L 1.3620,1.0654 L 1.3620,1.0514 L 1.3620,1.0373 L 1.3620,1.0233 L 1.3620,1.0093 L 1.3620,0.9953 L 1.3760,0.9953 L 1.3760,0.9813 L 1.3901,0.9813 L 1.3901,0.9673 L 1.4041,0.9673 L 1.4041,0.9532 L 1.4181,0.9532 L 1.4322,0.9532 L 1.4462,0.9532 L 1.4603,0.9532 L 1.4883,0.9532 L 1.5164,0.9532 L 1.5445,0.9532 L 1.5866,0.9532 L 1.6288,0.9532 L 1.6709,0.9532 L 1.7270,0.9532 L 1.7832,0.9532 L 1.8253,0.9532 L 1.8815,0.9532 L 1.9517,0.9532 L 2.0079,0.9532 L 2.0640,0.9532 L 2.1202,0.9532 L 2.1763,0.9532 L 2.2466,0.9532 L 2.3027,0.9532 L 2.3448,0.9532 L 2.4010,0.9532 L 2.4572,0.9532 L 2.4993,0.9532 L 2.5414,0.9532 L 2.5835,0.9532 L 2.6116,0.9532 L 2.6397,0.9532 L 2.6678,0.9532 L 2.6818,0.9532 L 2.6959,0.9532 L 2.7099,0.9532 L 2.7239,0.9532 L 2.7239,0.9673 L 2.7380,0.9673 L 2.7380,0.9813 L 2.7520,0.9813 L 2.7520,0.9953 L 2.7661,0.9953 L 2.7661,1.0093 L 2.7661,1.0233 L 2.7661,1.0373 L 2.7661,1.0514 L 2.7661,1.0654 L 2.7661,1.0794 L 2.7661,1.0934 L 2.7661,1.1074 L 2.7661,1.1215 L 2.7661,1.1355 L 2.7661,1.1495 L 2.7661,1.1635 L 2.7661,1.1775 L 2.7661,1.1915 L 2.7661,1.2056 L 2.7661,1.2196 L 2.7661,1.2336 L 2.7661,1.2476 L 2.7661,1.2336 L 2.7520,1.2196 L 2.7520,1.2056 L 2.7380,1.2056 L 2.7239,1.2056 L 2.7239,1.1915 L 2.7099,1.1915 L 2.6959,1.1915 L 2.6818,1.1915 L 2.6678,1.1915 L 2.6397,1.1915 L 2.6116,1.1915 L 2.5835,1.1915 L 2.5555,1.1915 L 2.5133,1.1915 L 2.4712,1.1915 L 2.4291,1.1915 L 2.3870,1.1915 L 2.3448,1.1915 L 2.3027,1.1915 L 2.2466,1.1915 L 2.2044,1.1915 L 2.1623,1.1915 L 2.1061,1.1915 L 2.0640,1.1915 L 2.0219,1.1915 L 1.9798,1.1915 L 1.9377,1.1915 L 1.8955,1.1915 L 1.8534,1.1915 L 1.8253,1.1915 L 1.7972,1.1915 L 1.7692,1.1915 L 1.7411,1.1915 L 1.7270,1.1915 L 1.7130,1.1915 L 1.6990,1.1915 L 1.6849,1.1915 L 1.6709,1.1915 L 1.6709,1.2056 L 1.6568,1.2056 L 1.6568,1.2196 L 1.6428,1.2196 L 1.6428,1.2336 L 1.6428,1.2476 L 1.6428,1.2616 L 1.6428,1.2757 L 1.6428,1.2897 L 1.6428,1.3037 L 1.6428,1.3317 L 1.6428,1.3457 L 1.6428,1.3878 L 1.6428,1.4158 L 1.6428,1.4439 L 1.6428,1.4859 L 1.6428,1.5140 L 1.6428,1.5560 L 1.6428,1.5981 L 1.6428,1.6401 L 1.6428,1.6822 L 1.6428,1.7102 L 1.6428,1.7523 L 1.6428,1.7943 L 1.6428,1.8364 L 1.6428,1.8644 L 1.6428,1.9065 L 1.6428,1.9345 L 1.6428,1.9625 L 1.6428,2.0046 L 1.6428,2.0186 L 1.6428,2.0467 L 1.6428,2.0607 L 1.6428,2.0747 L 1.6428,2.0887 L 1.6428,2.1027 L 1.6428,2.1167 L 1.6428,2.1308 L 1.6568,2.1308 L 1.6568,2.1448 L 1.6709,2.1588 L 1.6849,2.1588 L 1.6709,2.1588 L 1.6568,2.1588 L 1.6428,2.1588 L 1.6288,2.1588 L 1.6147,2.1588 L 1.6007,2.1588 L 1.5866,2.1588 L 1.5726,2.1588 L 1.5585,2.1588 L 1.5445,2.1588 L 1.5305,2.1588 L 1.5164,2.1588 L 1.5024,2.1588 L 1.4883,2.1588 L 1.4743,2.1588 L 1.4603,2.1588 L 1.4462,2.1588 L 1.4322,2.1588 Z" stroke="#000000" stroke-width="0.1197" stroke-linecap="round" stroke-linejoin="round" fill="#000000"/>
        <path d="M 2.6818,1.4719 L 2.6537,1.4719 L 2.6257,1.4719 L 2.5976,1.4719 L 2.5695,1.4719 L 2.5414,1.4719 L 2.5133,1.4719 L 2.4712,1.4719 L 2.4431,1.4719 L 2.4010,1.4719 L 2.3589,1.4719 L 2.3168,1.4719 L 2.2887,1.4719 L 2.2466,1.4719 L 2.2044,1.4719 L 2.1623,1.4719 L 2.1342,1.4719 L 2.0921,1.4719 L 2.0500,1.4719 L 2.0219,1.4719 L 1.9798,1.4719 L 1.9517,1.4719 L 1.9236,1.4719 L 1.8955,1.4719 L 1.8674,1.4719 L 1.8394,1.4719 L 1.8253,1.4719 L 1.7972,1.4719 L 1.7832,1.4719 L 1.7692,1.4719 L 1.7551,1.4719 L 1.7411,1.4719 L 1.7411,1.4579 L 1.7270,1.4579 L 1.7270,1.4439 L 1.7130,1.4439 L 1.7130,1.4299 L 1.7130,1.4158 L 1.7130,1.4018 L 1.7130,1.4158 L 1.7130,1.4299 L 1.7130,1.4439 L 1.7130,1.4579 L 1.7130,1.4719 L 1.7130,1.4859 L 1.7130,1.4999 L 1.7130,1.5140 L 1.7130,1.5280 L 1.7130,1.5420 L 1.7130,1.5560 L 1.7130,1.5700 L 1.7130,1.5841 L 1.7130,1.5981 L 1.7130,1.6121 L 1.7130,1.6261 L 1.7130,1.6401 L 1.7130,1.6541 L 1.7130,1.6682 L 1.7270,1.6682 L 1.7270,1.6822 L 1.7411,1.6822 L 1.7411,1.6962 L 1.7551,1.6962 L 1.7692,1.6962 L 1.7832,1.6962 L 1.7972,1.6962 L 1.8253,1.6962 L 1.8534,1.6962 L 1.8674,1.6962 L 1.8955,1.6962 L 1.9377,1.6962 L 1.9657,1.6962 L 1.9938,1.6962 L 2.0359,1.6962 L 2.0640,1.6962 L 2.1061,1.6962 L 2.1483,1.6962 L 2.1904,1.6962 L 2.2325,1.6962 L 2.2746,1.6962 L 2.3027,1.6962 L 2.3448,1.6962 L 2.3870,1.6962 L 2.4291,1.6962 L 2.4712,1.6962 L 2.4993,1.6962 L 2.5414,1.6962 L 2.5695,1.6962 L 2.5976,1.6962 L 2.6397,1.6962 L 2.6678,1.6962 L 2.6818,1.6962 L 2.7099,1.6962 L 2.7239,1.6822 L 2.7380,1.6682 L 2.7520,1.6541 L 2.7520,1.6401 L 2.7661,1.6261 L 2.7661,1.6121 L 2.7801,1.5981 L 2.7801,1.5841 L 2.7801,1.5700 L 2.7801,1.5560 L 2.7801,1.5420 L 2.7801,1.5280 L 2.7661,1.5280 L 2.7661,1.5140 L 2.7520,1.4999 L 2.7380,1.4999 L 2.7380,1.4859 L 2.7239,1.4859 L 2.7099,1.4719 L 2.6959,1.4719 L 2.6818,1.4719 Z" stroke="#000000" stroke-width="0.1197" stroke-linecap="round" stroke-linejoin="round" fill="#000000"/>
        <path d="M 4.9003,1.6962 L 4.8863,1.6962 L 4.8722,1.6962 L 4.8722,1.6822 L 4.8582,1.6822 L 4.8582,1.6682 L 4.8441,1.6682 L 4.8441,1.6541 L 4.8301,1.6541 L 4.8301,1.6401 L 4.8301,1.6261 L 4.8301,1.6121 L 4.8301,1.5981 L 4.8301,1.5841 L 4.8301,1.5700 L 4.8301,1.5560 L 4.8301,1.5420 L 4.8301,1.5280 L 4.8301,1.5140 L 4.8301,1.4999 L 4.8301,1.4859 L 4.8301,1.4719 L 4.8301,1.4579 L 4.8301,1.4439 L 4.8301,1.4299 L 4.8301,1.4158 L 4.8301,1.4018 L 4.8301,1.4158 L 4.8301,1.4299 L 4.8441,1.4299 L 4.8441,1.4439 L 4.8582,1.4439 L 4.8582,1.4579 L 4.8722,1.4579 L 4.8722,1.4719 L 4.8863,1.4719 L 4.9003,1.4719 L 4.9143,1.4719 L 4.9284,1.4719 L 4.9424,1.4719 L 4.9705,1.4719 L 4.9845,1.4719 L 5.0126,1.4719 L 5.0407,1.4719 L 5.0688,1.4719 L 5.0969,1.4719 L 5.1249,1.4719 L 5.1671,1.4719 L 5.1952,1.4719 L 5.2373,1.4719 L 5.2654,1.4719 L 5.2934,1.4719 L 5.3356,1.4719 L 5.3636,1.4719 L 5.4058,1.4719 L 5.4338,1.4719 L 5.4619,1.4719 L 5.4900,1.4719 L 5.5181,1.4719 L 5.5462,1.4719 L 5.5602,1.4719 L 5.5883,1.4719 L 5.6023,1.4719 L 5.6164,1.4719 L 5.6304,1.4719 L 5.6304,1.4579 L 5.6304,1.4439 L 5.6304,1.4299 L 5.6304,1.4158 L 5.6304,1.4018 L 5.6304,1.3878 L 5.6304,1.3738 L 5.6304,1.3598 L 5.6304,1.3457 L 5.6304,1.3317 L 5.6304,1.3177 L 5.6304,1.3037 L 5.6304,1.2897 L 5.6304,1.2757 L 5.6304,1.2616 L 5.6304,1.2476 L 5.6304,1.2336 L 5.6304,1.2196 L 5.6304,1.2056 L 5.6304,1.1915 L 5.6164,1.1915 L 5.6023,1.1915 L 5.5743,1.1915 L 5.5602,1.1915 L 5.5321,1.1915 L 5.5041,1.1915 L 5.4760,1.1915 L 5.4479,1.1915 L 5.4058,1.1915 L 5.3777,1.1915 L 5.3356,1.1915 L 5.3075,1.1915 L 5.2654,1.1915 L 5.2373,1.1915 L 5.1952,1.1915 L 5.1530,1.1915 L 5.1249,1.1915 L 5.0828,1.1915 L 5.0547,1.1915 L 5.0126,1.1915 L 4.9845,1.1915 L 4.9565,1.1915 L 4.9284,1.1915 L 4.9003,1.1915 L 4.8863,1.1915 L 4.8582,1.1915 L 4.8441,1.1915 L 4.8301,1.1915 L 4.8160,1.1915 L 4.8160,1.2056 L 4.8020,1.2056 L 4.7880,1.2056 L 4.7880,1.2196 L 4.7739,1.2336 L 4.7739,1.2476 L 4.7739,1.2616 L 4.7739,1.2757 L 4.7739,1.2897 L 4.7739,1.3037 L 4.7739,1.3317 L 4.7739,1.3457 L 4.7739,1.3878 L 4.7739,1.4158 L 4.7739,1.4439 L 4.7739,1.4859 L 4.7739,1.5140 L 4.7739,1.5560 L 4.7739,1.5981 L 4.7739,1.6401 L 4.7739,1.6822 L 4.7739,1.7102 L 4.7739,1.7523 L 4.7739,1.7943 L 4.7739,1.8364 L 4.7739,1.8644 L 4.7739,1.9065 L 4.7739,1.9345 L 4.7739,1.9625 L 4.7739,2.0046 L 4.7739,2.0186 L 4.7739,2.0467 L 4.7739,2.0607 L 4.7739,2.0747 L 4.7739,2.0887 L 4.7739,2.1027 L 4.7739,2.1167 L 4.7739,2.1308 L 4.7880,2.1308 L 4.7880,2.1448 L 4.8020,2.1448 L 4.8020,2.1588 L 4.8160,2.1588 L 4.8020,2.1588 L 4.7880,2.1588 L 4.7739,2.1588 L 4.7599,2.1588 L 4.7458,2.1588 L 4.7318,2.1588 L 4.7178,2.1588 L 4.7037,2.1588 L 4.6897,2.1588 L 4.6756,2.1588 L 4.6616,2.1588 L 4.6476,2.1588 L 4.6335,2.1588 L 4.6195,2.1588 L 4.6054,2.1588 L 4.5914,2.1588 L 4.5774,2.1588 L 4.5633,2.1588 L 4.5493,2.1588 L 4.5493,2.1448 L 4.5352,2.1448 L 4.5212,2.1448 L 4.5212,2.1308 L 4.5212,2.1167 L 4.5071,2.1167 L 4.5071,2.1027 L 4.5071,2.0887 L 4.5071,2.0747 L 4.5071,2.0607 L 4.5071,2.0467 L 4.5071,2.0186 L 4.5071,1.9906 L 4.5071,1.9625 L 4.5071,1.9205 L 4.5071,1.8784 L 4.5071,1.8364 L 4.5071,1.7943 L 4.5071,1.7523 L 4.5071,1.7102 L 4.5071,1.6541 L 4.5071,1.6121 L 4.5071,1.5560 L 4.5071,1.4999 L 4.5071,1.4579 L 4.5071,1.4018 L 4.5071,1.3598 L 4.5071,1.3177 L 4.5071,1.2757 L 4.5071,1.2336 L 4.5071,1.1915 L 4.5071,1.1495 L 4.5071,1.1215 L 4.5071,1.0934 L 4.5071,1.0654 L 4.5071,1.0514 L 4.5071,1.0373 L 4.5071,1.0233 L 4.5071,1.0093 L 4.5071,0.9953 L 4.5212,0.9953 L 4.5212,0.9813 L 4.5212,0.9673 L 4.5352,0.9673 L 4.5493,0.9673 L 4.5493,0.9532 L 4.5633,0.9532 L 4.5774,0.9532 L 4.5914,0.9532 L 4.6054,0.9532 L 4.6335,0.9532 L 4.6616,0.9532 L 4.6897,0.9532 L 4.7318,0.9532 L 4.7739,0.9532 L 4.8160,0.9532 L 4.8722,0.9532 L 4.9143,0.9532 L 4.9705,0.9532 L 5.0267,0.9532 L 5.0828,0.9532 L 5.1390,0.9532 L 5.2092,0.9532 L 5.2654,0.9532 L 5.3215,0.9532 L 5.3777,0.9532 L 5.4338,0.9532 L 5.4900,0.9532 L 5.5321,0.9532 L 5.5883,0.9532 L 5.6304,0.9532 L 5.6725,0.9532 L 5.7147,0.9532 L 5.7428,0.9532 L 5.7708,0.9532 L 5.7989,0.9532 L 5.8130,0.9532 L 5.8270,0.9532 L 5.8410,0.9532 L 5.8551,0.9532 L 5.8691,0.9673 L 5.8832,0.9673 L 5.8832,0.9813 L 5.8972,0.9813 L 5.8972,0.9953 L 5.9112,0.9953 L 5.9112,1.0093 L 5.9112,1.0233 L 5.9112,1.0373 L 5.9112,1.0514 L 5.9112,1.0654 L 5.9112,1.0794 L 5.9112,1.0934 L 5.9112,1.1074 L 5.9112,1.1355 L 5.9112,1.1635 L 5.9112,1.1775 L 5.9112,1.2056 L 5.9112,1.2336 L 5.9112,1.2616 L 5.9112,1.2897 L 5.9112,1.3177 L 5.9112,1.3317 L 5.9112,1.3598 L 5.9112,1.3878 L 5.9112,1.4158 L 5.9112,1.4439 L 5.9112,1.4579 L 5.9112,1.4859 L 5.9112,1.5140 L 5.9112,1.5280 L 5.9112,1.5420 L 5.9112,1.5560 L 5.9112,1.5700 L 5.9112,1.5841 L 5.9112,1.5981 L 5.9112,1.6121 L 5.8972,1.6121 L 5.8972,1.6261 L 5.8832,1.6261 L 5.8832,1.6401 L 5.8691,1.6541 L 5.8691,1.6682 L 5.8551,1.6682 L 5.8551,1.6822 L 5.8410,1.6822 L 5.8410,1.6962 L 5.8270,1.6962 L 5.8410,1.7102 L 5.8551,1.7242 L 5.8691,1.7383 L 5.8691,1.7523 L 5.8832,1.7523 L 5.8832,1.7663 L 5.8972,1.7663 L 5.8972,1.7803 L 5.8972,1.7943 L 5.9112,1.7943 L 5.9112,1.8083 L 5.9112,1.8224 L 5.9112,1.8364 L 5.9112,1.8504 L 5.9112,1.8644 L 5.9112,1.8784 L 5.9112,1.8925 L 5.9112,1.9065 L 5.9112,1.9205 L 5.9112,1.9345 L 5.9112,1.9485 L 5.9112,1.9625 L 5.9112,1.9766 L 5.9112,1.9906 L 5.9112,2.0046 L 5.9112,2.0186 L 5.9112,2.0326 L 5.9112,2.0467 L 5.9112,2.0607 L 5.9112,2.0747 L 5.9112,2.0887 L 5.9112,2.1027 L 5.9112,2.1167 L 5.9112,2.1308 L 5.9253,2.1308 L 5.9253,2.1448 L 5.9393,2.1588 L 5.9534,2.1588 L 5.9393,2.1588 L 5.9253,2.1588 L 5.9112,2.1588 L 5.8972,2.1588 L 5.8832,2.1588 L 5.8691,2.1588 L 5.8551,2.1588 L 5.8410,2.1588 L 5.8270,2.1588 L 5.8130,2.1588 L 5.7989,2.1588 L 5.7849,2.1588 L 5.7708,2.1588 L 5.7568,2.1588 L 5.7428,2.1588 L 5.7287,2.1588 L 5.7147,2.1588 L 5.7006,2.1588 L 5.6866,2.1588 L 5.6725,2.1588 L 5.6725,2.1448 L 5.6585,2.1448 L 5.6585,2.1308 L 5.6445,2.1308 L 5.6445,2.1167 L 5.6304,2.1167 L 5.6304,2.1027 L 5.6304,2.0887 L 5.6304,2.0747 L 5.6304,2.0607 L 5.6304,2.0467 L 5.6304,2.0326 L 5.6304,2.0186 L 5.6304,2.0046 L 5.6304,1.9906 L 5.6304,1.9766 L 5.6304,1.9625 L 5.6304,1.9485 L 5.6304,1.9345 L 5.6304,1.9205 L 5.6304,1.9065 L 5.6304,1.8925 L 5.6304,1.8644 L 5.6304,1.8504 L 5.6304,1.8364 L 5.6304,1.8224 L 5.6304,1.7943 L 5.6304,1.7803 L 5.6304,1.7523 L 5.6304,1.7383 L 5.6304,1.7102 L 5.6304,1.6962 L 5.6164,1.6962 L 5.6023,1.6962 L 5.5883,1.6962 L 5.5602,1.6962 L 5.5462,1.6962 L 5.5181,1.6962 L 5.4900,1.6962 L 5.4619,1.6962 L 5.4338,1.6962 L 5.4058,1.6962 L 5.3636,1.6962 L 5.3356,1.6962 L 5.2934,1.6962 L 5.2654,1.6962 L 5.2373,1.6962 L 5.1952,1.6962 L 5.1671,1.6962 L 5.1249,1.6962 L 5.0969,1.6962 L 5.0688,1.6962 L 5.0407,1.6962 L 5.0126,1.6962 L 4.9845,1.6962 L 4.9705,1.6962 L 4.9424,1.6962 L 4.9284,1.6962 L 4.9143,1.6962 L 4.9003,1.6962 Z" stroke="#000000" stroke-width="0.1197" stroke-linecap="round" stroke-linejoin="round" fill="#000000"/>
        <path d="M 6.3886,1.1915 L 6.3746,1.1915 L 6.3606,1.1915 L 6.3465,1.1915 L 6.3184,1.1915 L 6.3044,1.1915 L 6.2903,1.1915 L 6.2763,1.1915 L 6.2623,1.1915 L 6.2482,1.1915 L 6.2342,1.1915 L 6.2201,1.1915 L 6.2061,1.1915 L 6.1921,1.1915 L 6.1780,1.1915 L 6.1640,1.1915 L 6.1499,1.1915 L 6.1359,1.1915 L 6.1219,1.1915 L 6.1078,1.1915 L 6.0938,1.1915 L 6.0797,1.1775 L 6.0657,1.1775 L 6.0657,1.1635 L 6.0517,1.1635 L 6.0517,1.1495 L 6.0517,1.1355 L 6.0376,1.1355 L 6.0376,1.1215 L 6.0376,1.1074 L 6.0376,1.0934 L 6.0376,1.0794 L 6.0376,1.0654 L 6.0376,1.0514 L 6.0376,1.0373 L 6.0376,1.0233 L 6.0376,1.0093 L 6.0376,0.9953 L 6.0517,0.9953 L 6.0517,0.9813 L 6.0657,0.9813 L 6.0657,0.9673 L 6.0797,0.9673 L 6.0797,0.9532 L 6.0938,0.9532 L 6.1078,0.9532 L 6.1219,0.9532 L 6.1359,0.9532 L 6.1640,0.9532 L 6.1921,0.9532 L 6.2201,0.9532 L 6.2623,0.9532 L 6.3044,0.9532 L 6.3465,0.9532 L 6.4027,0.9532 L 6.4588,0.9532 L 6.5010,0.9532 L 6.5571,0.9532 L 6.6273,0.9532 L 6.6835,0.9532 L 6.7397,0.9532 L 6.7958,0.9532 L 6.8520,0.9532 L 6.9222,0.9532 L 6.9784,0.9532 L 7.0205,0.9532 L 7.0766,0.9532 L 7.1328,0.9532 L 7.1749,0.9532 L 7.2171,0.9532 L 7.2592,0.9532 L 7.2873,0.9532 L 7.3153,0.9532 L 7.3434,0.9532 L 7.3575,0.9532 L 7.3715,0.9532 L 7.3855,0.9532 L 7.3996,0.9532 L 7.3996,0.9673 L 7.4136,0.9673 L 7.4136,0.9813 L 7.4277,0.9813 L 7.4277,0.9953 L 7.4417,0.9953 L 7.4417,1.0093 L 7.4417,1.0233 L 7.4417,1.0373 L 7.4417,1.0514 L 7.4417,1.0654 L 7.4417,1.0794 L 7.4417,1.0934 L 7.4417,1.1074 L 7.4417,1.1215 L 7.4417,1.1355 L 7.4417,1.1495 L 7.4417,1.1635 L 7.4417,1.1775 L 7.4417,1.1915 L 7.4417,1.2056 L 7.4417,1.2196 L 7.4417,1.2336 L 7.4417,1.2476 L 7.4417,1.2336 L 7.4277,1.2196 L 7.4277,1.2056 L 7.4136,1.2056 L 7.3996,1.2056 L 7.3996,1.1915 L 7.3855,1.1915 L 7.3715,1.1915 L 7.3575,1.1915 L 7.3434,1.1915 L 7.3294,1.1915 L 7.3153,1.1915 L 7.3013,1.1915 L 7.2873,1.1915 L 7.2732,1.1915 L 7.2451,1.1915 L 7.2311,1.1915 L 7.2030,1.1915 L 7.1890,1.1915 L 7.1609,1.1915 L 7.1328,1.1915 L 7.1047,1.1915 L 7.0766,1.1915 L 7.0486,1.1915 L 7.0205,1.1915 L 6.9924,1.1915 L 6.9643,1.1915 L 6.9362,1.1915 L 6.9081,1.1915 L 6.8801,1.1915 L 6.8520,1.1915 L 6.8239,1.1915 L 6.7958,1.1915 L 6.7677,1.1915 L 6.7397,1.1915 L 6.7116,1.1915 L 6.6975,1.1915 L 6.6835,1.2056 L 6.6835,1.2196 L 6.6695,1.2196 L 6.6695,1.2336 L 6.6695,1.2476 L 6.6695,1.2616 L 6.6695,1.2757 L 6.6695,1.2897 L 6.6695,1.3037 L 6.6695,1.3317 L 6.6695,1.3457 L 6.6695,1.3878 L 6.6695,1.4158 L 6.6695,1.4439 L 6.6695,1.4859 L 6.6695,1.5140 L 6.6695,1.5560 L 6.6695,1.5981 L 6.6695,1.6401 L 6.6695,1.6822 L 6.6695,1.7102 L 6.6695,1.7523 L 6.6695,1.7943 L 6.6695,1.8364 L 6.6695,1.8644 L 6.6695,1.9065 L 6.6695,1.9345 L 6.6695,1.9625 L 6.6695,2.0046 L 6.6695,2.0186 L 6.6695,2.0467 L 6.6695,2.0607 L 6.6695,2.0747 L 6.6695,2.0887 L 6.6695,2.1027 L 6.6695,2.1167 L 6.6695,2.1308 L 6.6835,2.1448 L 6.6835,2.1588 L 6.6975,2.1588 L 6.6835,2.1588 L 6.6695,2.1588 L 6.6554,2.1588 L 6.6414,2.1588 L 6.6273,2.1588 L 6.6133,2.1588 L 6.5992,2.1588 L 6.5852,2.1588 L 6.5712,2.1588 L 6.5571,2.1588 L 6.5431,2.1588 L 6.5290,2.1588 L 6.5150,2.1588 L 6.5010,2.1588 L 6.4869,2.1588 L 6.4729,2.1588 L 6.4588,2.1588 L 6.4448,2.1588 L 6.4308,2.1588 L 6.4167,2.1588 L 6.4167,2.1448 L 6.4027,2.1448 L 6.4027,2.1308 L 6.4027,2.1167 L 6.3886,2.1167 L 6.3886,2.1027 L 6.3886,2.0887 L 6.3886,2.0747 L 6.3886,2.0607 L 6.3886,2.0467 L 6.3886,2.0326 L 6.3886,2.0046 L 6.3886,1.9906 L 6.3886,1.9625 L 6.3886,1.9345 L 6.3886,1.9065 L 6.3886,1.8784 L 6.3886,1.8504 L 6.3886,1.8083 L 6.3886,1.7803 L 6.3886,1.7523 L 6.3886,1.7102 L 6.3886,1.6682 L 6.3886,1.6401 L 6.3886,1.5981 L 6.3886,1.5560 L 6.3886,1.5280 L 6.3886,1.4859 L 6.3886,1.4439 L 6.3886,1.4158 L 6.3886,1.3738 L 6.3886,1.3457 L 6.3886,1.3037 L 6.3886,1.2757 L 6.3886,1.2476 L 6.3886,1.2196 L 6.3886,1.1915 Z" stroke="#000000" stroke-width="0.1197" stroke-linecap="round" stroke-linejoin="round" fill="#000000"/>
        <path d="M 7.8629,2.1027 L 7.8629,2.1167 L 7.8770,2.1308 L 7.8770,2.1448 L 7.8910,2.1448 L 7.9051,2.1448 L 7.9051,2.1588 L 7.9191,2.1588 L 7.9051,2.1588 L 7.8910,2.1588 L 7.8770,2.1588 L 7.8629,2.1588 L 7.8489,2.1588 L 7.8349,2.1588 L 7.8208,2.1588 L 7.8068,2.1588 L 7.7927,2.1588 L 7.7787,2.1588 L 7.7646,2.1588 L 7.7506,2.1588 L 7.7366,2.1588 L 7.7225,2.1588 L 7.7085,2.1588 L 7.6944,2.1588 L 7.6804,2.1588 L 7.6664,2.1588 L 7.6523,2.1588 L 7.6383,2.1588 L 7.6383,2.1448 L 7.6242,2.1448 L 7.6242,2.1308 L 7.6102,2.1308 L 7.6102,2.1167 L 7.5962,2.1167 L 7.5962,2.1027 L 7.5962,2.0887 L 7.5962,2.0747 L 7.5962,2.0607 L 7.5962,2.0467 L 7.5962,2.0186 L 7.5962,1.9906 L 7.5962,1.9625 L 7.5962,1.9205 L 7.5962,1.8784 L 7.5962,1.8364 L 7.5962,1.7943 L 7.5962,1.7523 L 7.5962,1.6962 L 7.5962,1.6541 L 7.5962,1.5981 L 7.5962,1.5560 L 7.5962,1.4999 L 7.5962,1.4439 L 7.5962,1.4018 L 7.5962,1.3457 L 7.5962,1.3037 L 7.5962,1.2616 L 7.5962,1.2196 L 7.5962,1.1775 L 7.5962,1.1355 L 7.5962,1.1074 L 7.5962,1.0794 L 7.5962,1.0514 L 7.5962,1.0373 L 7.5962,1.0233 L 7.5962,1.0093 L 7.5962,0.9953 L 7.5962,0.9813 L 7.5821,0.9813 L 7.5821,0.9673 L 7.5681,0.9673 L 7.5681,0.9532 L 7.5540,0.9532 L 7.5400,0.9532 L 7.5540,0.9532 L 7.5681,0.9532 L 7.5821,0.9532 L 7.5962,0.9532 L 7.6102,0.9532 L 7.6242,0.9532 L 7.6383,0.9532 L 7.6523,0.9532 L 7.6664,0.9532 L 7.6804,0.9532 L 7.6944,0.9532 L 7.7085,0.9532 L 7.7225,0.9532 L 7.7366,0.9532 L 7.7506,0.9532 L 7.7646,0.9532 L 7.7787,0.9532 L 7.7927,0.9532 L 7.8068,0.9532 L 7.8208,0.9673 L 7.8349,0.9673 L 7.8349,0.9813 L 7.8489,0.9813 L 7.8489,0.9953 L 7.8629,0.9953 L 7.8629,1.0093 L 7.8629,1.0233 L 7.8629,1.0373 L 7.8629,1.0514 L 7.8629,1.0654 L 7.8629,1.0934 L 7.8629,1.1215 L 7.8629,1.1495 L 7.8629,1.1915 L 7.8629,1.2336 L 7.8629,1.2757 L 7.8629,1.3177 L 7.8629,1.3598 L 7.8629,1.4158 L 7.8629,1.4579 L 7.8629,1.5140 L 7.8629,1.5700 L 7.8629,1.6121 L 7.8629,1.6682 L 7.8629,1.7102 L 7.8629,1.7663 L 7.8629,1.8083 L 7.8629,1.8504 L 7.8629,1.8925 L 7.8629,1.9345 L 7.8629,1.9766 L 7.8629,2.0046 L 7.8629,2.0326 L 7.8629,2.0607 L 7.8629,2.0747 L 7.8629,2.0887 L 7.8629,2.1027 Z" stroke="#000000" stroke-width="0.1197" stroke-linecap="round" stroke-linejoin="round" fill="#000000"/>
        <path d="M 9.2389,1.1915 L 9.2109,1.1915 L 9.1828,1.1915 L 9.1547,1.1915 L 9.1126,1.1915 L 9.0845,1.1915 L 9.0564,1.1915 L 9.0143,1.1915 L 8.9862,1.1915 L 8.9441,1.1915 L 8.9160,1.1915 L 8.8879,1.1915 L 8.8458,1.1915 L 8.8177,1.1915 L 8.7896,1.1915 L 8.7475,1.1915 L 8.7194,1.1915 L 8.6914,1.1915 L 8.6633,1.1915 L 8.6352,1.1915 L 8.6071,1.1915 L 8.5790,1.1915 L 8.5650,1.1915 L 8.5369,1.1915 L 8.5229,1.1915 L 8.5088,1.1915 L 8.4807,1.1915 L 8.4667,1.1915 L 8.4527,1.1915 L 8.4386,1.1915 L 8.4246,1.1915 L 8.4246,1.2056 L 8.4105,1.2056 L 8.3965,1.2056 L 8.3965,1.2196 L 8.3824,1.2336 L 8.3824,1.2476 L 8.3824,1.2616 L 8.3824,1.2757 L 8.3824,1.2897 L 8.3824,1.3037 L 8.3824,1.3317 L 8.3824,1.3457 L 8.3824,1.3878 L 8.3824,1.4158 L 8.3824,1.4439 L 8.3824,1.4859 L 8.3824,1.5140 L 8.3824,1.5560 L 8.3824,1.5981 L 8.3824,1.6401 L 8.3824,1.6822 L 8.3824,1.7102 L 8.3824,1.7523 L 8.3824,1.7943 L 8.3824,1.8364 L 8.3824,1.8644 L 8.3824,1.9065 L 8.3824,1.9345 L 8.3824,1.9625 L 8.3824,2.0046 L 8.3824,2.0186 L 8.3824,2.0467 L 8.3824,2.0607 L 8.3824,2.0747 L 8.3824,2.0887 L 8.3824,2.1027 L 8.3824,2.1167 L 8.3824,2.1308 L 8.3965,2.1308 L 8.3965,2.1448 L 8.4105,2.1448 L 8.4105,2.1588 L 8.4246,2.1588 L 8.4105,2.1588 L 8.3965,2.1588 L 8.3824,2.1588 L 8.3684,2.1588 L 8.3544,2.1588 L 8.3403,2.1588 L 8.3263,2.1588 L 8.3122,2.1588 L 8.2982,2.1588 L 8.2842,2.1588 L 8.2701,2.1588 L 8.2561,2.1588 L 8.2420,2.1588 L 8.2280,2.1588 L 8.2140,2.1588 L 8.1999,2.1588 L 8.1859,2.1588 L 8.1718,2.1588 L 8.1578,2.1588 L 8.1578,2.1448 L 8.1438,2.1448 L 8.1297,2.1448 L 8.1297,2.1308 L 8.1297,2.1167 L 8.1157,2.1167 L 8.1157,2.1027 L 8.1157,2.0887 L 8.1157,2.0747 L 8.1157,2.0607 L 8.1157,2.0467 L 8.1157,2.0186 L 8.1157,1.9906 L 8.1157,1.9625 L 8.1157,1.9205 L 8.1157,1.8784 L 8.1157,1.8364 L 8.1157,1.7943 L 8.1157,1.7523 L 8.1157,1.7102 L 8.1157,1.6541 L 8.1157,1.6121 L 8.1157,1.5560 L 8.1157,1.4999 L 8.1157,1.4579 L 8.1157,1.4018 L 8.1157,1.3598 L 8.1157,1.3177 L 8.1157,1.2757 L 8.1157,1.2336 L 8.1157,1.1915 L 8.1157,1.1495 L 8.1157,1.1215 L 8.1157,1.0934 L 8.1157,1.0654 L 8.1157,1.0514 L 8.1157,1.0373 L 8.1157,1.0233 L 8.1157,1.0093 L 8.1157,0.9953 L 8.1297,0.9953 L 8.1297,0.9813 L 8.1297,0.9673 L 8.1438,0.9673 L 8.1578,0.9673 L 8.1578,0.9532 L 8.1718,0.9532 L 8.1859,0.9532 L 8.1999,0.9532 L 8.2140,0.9532 L 8.2420,0.9532 L 8.2701,0.9532 L 8.2982,0.9532 L 8.3403,0.9532 L 8.3824,0.9532 L 8.4246,0.9532 L 8.4807,0.9532 L 8.5229,0.9532 L 8.5790,0.9532 L 8.6352,0.9532 L 8.6914,0.9532 L 8.7475,0.9532 L 8.8177,0.9532 L 8.8739,0.9532 L 8.9300,0.9532 L 8.9862,0.9532 L 9.0424,0.9532 L 9.0985,0.9532 L 9.1407,0.9532 L 9.1968,0.9532 L 9.2389,0.9532 L 9.2811,0.9532 L 9.3232,0.9532 L 9.3513,0.9532 L 9.3794,0.9532 L 9.4074,0.9532 L 9.4215,0.9532 L 9.4355,0.9532 L 9.4496,0.9532 L 9.4636,0.9532 L 9.4776,0.9673 L 9.4917,0.9673 L 9.4917,0.9813 L 9.5057,0.9813 L 9.5057,0.9953 L 9.5198,0.9953 L 9.5198,1.0093 L 9.5198,1.0233 L 9.5198,1.0373 L 9.5198,1.0514 L 9.5198,1.0654 L 9.5198,1.0934 L 9.5198,1.1215 L 9.5198,1.1495 L 9.5198,1.1915 L 9.5198,1.2336 L 9.5198,1.2757 L 9.5198,1.3177 L 9.5198,1.3598 L 9.5198,1.4158 L 9.5198,1.4579 L 9.5198,1.5140 L 9.5198,1.5700 L 9.5198,1.6121 L 9.5198,1.6682 L 9.5198,1.7102 L 9.5198,1.7663 L 9.5198,1.8083 L 9.5198,1.8504 L 9.5198,1.8925 L 9.5198,1.9345 L 9.5198,1.9766 L 9.5198,2.0046 L 9.5198,2.0326 L 9.5198,2.0607 L 9.5198,2.0747 L 9.5198,2.0887 L 9.5198,2.1027 L 9.5198,2.1167 L 9.5198,2.1308 L 9.5338,2.1308 L 9.5338,2.1448 L 9.5478,2.1588 L 9.5619,2.1588 L 9.5478,2.1588 L 9.5338,2.1588 L 9.5198,2.1588 L 9.5057,2.1588 L 9.4917,2.1588 L 9.4776,2.1588 L 9.4636,2.1588 L 9.4496,2.1588 L 9.4355,2.1588 L 9.4215,2.1588 L 9.4074,2.1588 L 9.3934,2.1588 L 9.3794,2.1588 L 9.3653,2.1588 L 9.3513,2.1588 L 9.3372,2.1588 L 9.3232,2.1588 L 9.3092,2.1588 L 9.2951,2.1588 L 9.2811,2.1588 L 9.2811,2.1448 L 9.2670,2.1448 L 9.2670,2.1308 L 9.2530,2.1308 L 9.2530,2.1167 L 9.2389,2.1167 L 9.2389,2.1027 L 9.2389,2.0887 L 9.2389,2.0747 L 9.2389,2.0607 L 9.2389,2.0467 L 9.2389,2.0326 L 9.2389,2.0046 L 9.2389,1.9906 L 9.2389,1.9625 L 9.2389,1.9345 L 9.2389,1.9065 L 9.2389,1.8784 L 9.2389,1.8504 L 9.2389,1.8083 L 9.2389,1.7803 L 9.2389,1.7523 L 9.2389,1.7102 L 9.2389,1.6682 L 9.2389,1.6401 L 9.2389,1.5981 L 9.2389,1.5560 L 9.2389,1.5280 L 9.2389,1.4859 L 9.2389,1.4439 L 9.2389,1.4158 L 9.2389,1.3738 L 9.2389,1.3457 L 9.2389,1.3037 L 9.2389,1.2757 L 9.2389,1.2476 L 9.2389,1.2196 L 9.2389,1.1915 Z" stroke="#000000" stroke-width="0.1197" stroke-linecap="round" stroke-linejoin="round" fill="#000000"/>
        <path d="M 10.8958,1.4719 L 10.8677,1.4719 L 10.8537,1.4719 L 10.8256,1.4719 L 10.7975,1.4719 L 10.7694,1.4719 L 10.7273,1.4719 L 10.6992,1.4719 L 10.6711,1.4719 L 10.6290,1.4719 L 10.6009,1.4719 L 10.5588,1.4719 L 10.5307,1.4719 L 10.4886,1.4719 L 10.4605,1.4719 L 10.4184,1.4719 L 10.3903,1.4719 L 10.3482,1.4719 L 10.3201,1.4719 L 10.2780,1.4719 L 10.2499,1.4719 L 10.2218,1.4719 L 10.1937,1.4719 L 10.1657,1.4719 L 10.1376,1.4719 L 10.1235,1.4719 L 10.0954,1.4719 L 10.0814,1.4719 L 10.0674,1.4719 L 10.0533,1.4719 L 10.0393,1.4719 L 10.0252,1.4719 L 10.0112,1.4719 L 10.0112,1.4579 L 9.9972,1.4579 L 9.9972,1.4439 L 9.9831,1.4439 L 9.9831,1.4299 L 9.9691,1.4158 L 9.9691,1.4018 L 9.9691,1.4158 L 9.9691,1.4299 L 9.9691,1.4439 L 9.9691,1.4579 L 9.9691,1.4719 L 9.9691,1.4859 L 9.9691,1.4999 L 9.9691,1.5140 L 9.9691,1.5280 L 9.9691,1.5420 L 9.9691,1.5560 L 9.9691,1.5700 L 9.9691,1.5841 L 9.9691,1.5981 L 9.9691,1.6121 L 9.9691,1.6261 L 9.9691,1.6401 L 9.9831,1.6541 L 9.9831,1.6682 L 9.9972,1.6682 L 9.9972,1.6822 L 10.0112,1.6822 L 10.0112,1.6962 L 10.0252,1.6962 L 10.0393,1.6962 L 10.0533,1.6962 L 10.0674,1.6962 L 10.0814,1.6962 L 10.0954,1.6962 L 10.1235,1.6962 L 10.1516,1.6962 L 10.1657,1.6962 L 10.1937,1.6962 L 10.2218,1.6962 L 10.2639,1.6962 L 10.2920,1.6962 L 10.3201,1.6962 L 10.3622,1.6962 L 10.3903,1.6962 L 10.4324,1.6962 L 10.4605,1.6962 L 10.5026,1.6962 L 10.5448,1.6962 L 10.5728,1.6962 L 10.6150,1.6962 L 10.6430,1.6962 L 10.6852,1.6962 L 10.7132,1.6962 L 10.7413,1.6962 L 10.7694,1.6962 L 10.7975,1.6962 L 10.8256,1.6962 L 10.8537,1.6962 L 10.8817,1.6962 L 10.8958,1.6962 L 10.9098,1.6822 L 10.9239,1.6822 L 10.9239,1.6682 L 10.9379,1.6541 L 10.9519,1.6401 L 10.9519,1.6261 L 10.9660,1.6261 L 10.9660,1.6121 L 10.9660,1.5981 L 10.9800,1.5981 L 10.9800,1.5841 L 10.9800,1.5700 L 10.9800,1.5560 L 10.9800,1.5420 L 10.9800,1.5280 L 10.9660,1.5280 L 10.9660,1.5140 L 10.9660,1.4999 L 10.9519,1.4999 L 10.9379,1.4859 L 10.9239,1.4859 L 10.9239,1.4719 L 10.9098,1.4719 L 10.8958,1.4719 Z" stroke="#000000" stroke-width="0.1197" stroke-linecap="round" stroke-linejoin="round" fill="#000000"/>
        <path d="M 11.5697,1.1915 L 11.5557,1.1915 L 11.5417,1.1915 L 11.5276,1.1915 L 11.4995,1.1915 L 11.4855,1.1915 L 11.4715,1.1915 L 11.4574,1.1915 L 11.4434,1.1915 L 11.4293,1.1915 L 11.4153,1.1915 L 11.4013,1.1915 L 11.3872,1.1915 L 11.3732,1.1915 L 11.3591,1.1915 L 11.3451,1.1915 L 11.3311,1.1915 L 11.3170,1.1915 L 11.3030,1.1915 L 11.2889,1.1915 L 11.2749,1.1915 L 11.2608,1.1775 L 11.2468,1.1775 L 11.2468,1.1635 L 11.2328,1.1635 L 11.2328,1.1495 L 11.2328,1.1355 L 11.2187,1.1355 L 11.2187,1.1215 L 11.2187,1.1074 L 11.2187,1.0934 L 11.2187,1.0794 L 11.2187,1.0654 L 11.2187,1.0514 L 11.2187,1.0373 L 11.2187,1.0233 L 11.2187,1.0093 L 11.2187,0.9953 L 11.2328,0.9953 L 11.2328,0.9813 L 11.2468,0.9813 L 11.2468,0.9673 L 11.2608,0.9673 L 11.2608,0.9532 L 11.2749,0.9532 L 11.2889,0.9532 L 11.3030,0.9532 L 11.3170,0.9532 L 11.3451,0.9532 L 11.3732,0.9532 L 11.4013,0.9532 L 11.4434,0.9532 L 11.4855,0.9532 L 11.5276,0.9532 L 11.5838,0.9532 L 11.6400,0.9532 L 11.6821,0.9532 L 11.7382,0.9532 L 11.8084,0.9532 L 11.8646,0.9532 L 11.9208,0.9532 L 11.9769,0.9532 L 12.0331,0.9532 L 12.1033,0.9532 L 12.1595,0.9532 L 12.2016,0.9532 L 12.2578,0.9532 L 12.3139,0.9532 L 12.3560,0.9532 L 12.3982,0.9532 L 12.4403,0.9532 L 12.4684,0.9532 L 12.4964,0.9532 L 12.5245,0.9532 L 12.5386,0.9532 L 12.5526,0.9532 L 12.5667,0.9532 L 12.5807,0.9532 L 12.5807,0.9673 L 12.5947,0.9673 L 12.5947,0.9813 L 12.6088,0.9813 L 12.6088,0.9953 L 12.6228,0.9953 L 12.6228,1.0093 L 12.6228,1.0233 L 12.6228,1.0373 L 12.6228,1.0514 L 12.6228,1.0654 L 12.6228,1.0794 L 12.6228,1.0934 L 12.6228,1.1074 L 12.6228,1.1215 L 12.6228,1.1355 L 12.6228,1.1495 L 12.6228,1.1635 L 12.6228,1.1775 L 12.6228,1.1915 L 12.6228,1.2056 L 12.6228,1.2196 L 12.6228,1.2336 L 12.6228,1.2476 L 12.6228,1.2336 L 12.6088,1.2196 L 12.6088,1.2056 L 12.5947,1.2056 L 12.5807,1.2056 L 12.5807,1.1915 L 12.5667,1.1915 L 12.5526,1.1915 L 12.5386,1.1915 L 12.5245,1.1915 L 12.5105,1.1915 L 12.4964,1.1915 L 12.4824,1.1915 L 12.4684,1.1915 L 12.4543,1.1915 L 12.4262,1.1915 L 12.4122,1.1915 L 12.3841,1.1915 L 12.3701,1.1915 L 12.3420,1.1915 L 12.3139,1.1915 L 12.2858,1.1915 L 12.2578,1.1915 L 12.2297,1.1915 L 12.2016,1.1915 L 12.1735,1.1915 L 12.1454,1.1915 L 12.1173,1.1915 L 12.0893,1.1915 L 12.0612,1.1915 L 12.0331,1.1915 L 12.0050,1.1915 L 11.9769,1.1915 L 11.9489,1.1915 L 11.9208,1.1915 L 11.8927,1.1915 L 11.8786,1.1915 L 11.8646,1.2056 L 11.8646,1.2196 L 11.8506,1.2196 L 11.8506,1.2336 L 11.8506,1.2476 L 11.8506,1.2616 L 11.8506,1.2757 L 11.8506,1.2897 L 11.8506,1.3037 L 11.8506,1.3317 L 11.8506,1.3457 L 11.8506,1.3878 L 11.8506,1.4158 L 11.8506,1.4439 L 11.8506,1.4859 L 11.8506,1.5140 L 11.8506,1.5560 L 11.8506,1.5981 L 11.8506,1.6401 L 11.8506,1.6822 L 11.8506,1.7102 L 11.8506,1.7523 L 11.8506,1.7943 L 11.8506,1.8364 L 11.8506,1.8644 L 11.8506,1.9065 L 11.8506,1.9345 L 11.8506,1.9625 L 11.8506,2.0046 L 11.8506,2.0186 L 11.8506,2.0467 L 11.8506,2.0607 L 11.8506,2.0747 L 11.8506,2.0887 L 11.8506,2.1027 L 11.8506,2.1167 L 11.8506,2.1308 L 11.8646,2.1448 L 11.8646,2.1588 L 11.8786,2.1588 L 11.8646,2.1588 L 11.8506,2.1588 L 11.8365,2.1588 L 11.8225,2.1588 L 11.8084,2.1588 L 11.7944,2.1588 L 11.7804,2.1588 L 11.7663,2.1588 L 11.7523,2.1588 L 11.7382,2.1588 L 11.7242,2.1588 L 11.7102,2.1588 L 11.6961,2.1588 L 11.6821,2.1588 L 11.6680,2.1588 L 11.6540,2.1588 L 11.6400,2.1588 L 11.6259,2.1588 L 11.6119,2.1588 L 11.5978,2.1588 L 11.5978,2.1448 L 11.5838,2.1448 L 11.5838,2.1308 L 11.5838,2.1167 L 11.5697,2.1167 L 11.5697,2.1027 L 11.5697,2.0887 L 11.5697,2.0747 L 11.5697,2.0607 L 11.5697,2.0467 L 11.5697,2.0326 L 11.5697,2.0046 L 11.5697,1.9906 L 11.5697,1.9625 L 11.5697,1.9345 L 11.5697,1.9065 L 11.5697,1.8784 L 11.5697,1.8504 L 11.5697,1.8083 L 11.5697,1.7803 L 11.5697,1.7523 L 11.5697,1.7102 L 11.5697,1.6682 L 11.5697,1.6401 L 11.5697,1.5981 L 11.5697,1.5560 L 11.5697,1.5280 L 11.5697,1.4859 L 11.5697,1.4439 L 11.5697,1.4158 L 11.5697,1.3738 L 11.5697,1.3457 L 11.5697,1.3037 L 11.5697,1.2757 L 11.5697,1.2476 L 11.5697,1.2196 L 11.5697,1.1915 Z" stroke="#000000" stroke-width="0.1197" stroke-linecap="round" stroke-linejoin="round" fill="#000000"/>
        <path d="M 10.9941,1.9205 L 11.0081,1.9205 L 11.0081,1.9065 L 11.0221,1.9065 L 11.0362,1.9065 L 11.0362,1.8925 L 11.0502,1.8784 L 11.0502,1.8644 L 11.0502,1.8784 L 11.0502,1.8925 L 11.0502,1.9065 L 11.0502,1.9205 L 11.0502,1.9345 L 11.0502,1.9485 L 11.0502,1.9625 L 11.0502,1.9766 L 11.0502,1.9906 L 11.0502,2.0046 L 11.0502,2.0186 L 11.0502,2.0326 L 11.0502,2.0467 L 11.0502,2.0607 L 11.0502,2.0747 L 11.0502,2.0887 L 11.0502,2.1027 L 11.0502,2.1167 L 11.0362,2.1167 L 11.0362,2.1308 L 11.0221,2.1308 L 11.0221,2.1448 L 11.0081,2.1448 L 11.0081,2.1588 L 10.9941,2.1588 L 10.9800,2.1588 L 10.9660,2.1588 L 10.9519,2.1588 L 10.9239,2.1588 L 10.8958,2.1588 L 10.8677,2.1588 L 10.8256,2.1588 L 10.7835,2.1588 L 10.7413,2.1588 L 10.6852,2.1588 L 10.6290,2.1588 L 10.5869,2.1588 L 10.5307,2.1588 L 10.4605,2.1588 L 10.4043,2.1588 L 10.3482,2.1588 L 10.2920,2.1588 L 10.2359,2.1588 L 10.1657,2.1588 L 10.1095,2.1588 L 10.0674,2.1588 L 10.0112,2.1588 L 9.9550,2.1588 L 9.9129,2.1588 L 9.8708,2.1588 L 9.8287,2.1588 L 9.8006,2.1588 L 9.7725,2.1588 L 9.7444,2.1588 L 9.7304,2.1588 L 9.7163,2.1588 L 9.7023,2.1588 L 9.6883,2.1588 L 9.6883,2.1448 L 9.6742,2.1448 L 9.6742,2.1308 L 9.6602,2.1308 L 9.6602,2.1167 L 9.6461,2.1167 L 9.6461,2.1027 L 9.6461,2.0887 L 9.6461,2.0747 L 9.6461,2.0607 L 9.6461,2.0467 L 9.6461,2.0186 L 9.6461,1.9906 L 9.6461,1.9625 L 9.6461,1.9205 L 9.6461,1.8784 L 9.6461,1.8364 L 9.6461,1.7943 L 9.6461,1.7523 L 9.6461,1.7102 L 9.6461,1.6541 L 9.6461,1.6121 L 9.6461,1.5560 L 9.6461,1.4999 L 9.6461,1.4579 L 9.6461,1.4018 L 9.6461,1.3598 L 9.6461,1.3177 L 9.6461,1.2757 L 9.6461,1.2336 L 9.6461,1.1915 L 9.6461,1.1495 L 9.6461,1.1215 L 9.6461,1.0934 L 9.6461,1.0654 L 9.6461,1.0514 L 9.6461,1.0373 L 9.6461,1.0233 L 9.6461,1.0093 L 9.6461,0.9953 L 9.6602,0.9953 L 9.6602,0.9813 L 9.6742,0.9813 L 9.6742,0.9673 L 9.6883,0.9673 L 9.6883,0.9532 L 9.7023,0.9532 L 9.7163,0.9532 L 9.7304,0.9532 L 9.7444,0.9532 L 9.7725,0.9532 L 9.8006,0.9532 L 9.8287,0.9532 L 9.8708,0.9532 L 9.9129,0.9532 L 9.9550,0.9532 L 10.0112,0.9532 L 10.0674,0.9532 L 10.1095,0.9532 L 10.1657,0.9532 L 10.2359,0.9532 L 10.2920,0.9532 L 10.3482,0.9532 L 10.4043,0.9532 L 10.4605,0.9532 L 10.5307,0.9532 L 10.5869,0.9532 L 10.6290,0.9532 L 10.6852,0.9532 L 10.7413,0.9532 L 10.7835,0.9532 L 10.8256,0.9532 L 10.8677,0.9532 L 10.8958,0.9532 L 10.9239,0.9532 L 10.9519,0.9532 L 10.9660,0.9532 L 10.9800,0.9532 L 10.9941,0.9532 L 11.0081,0.9532 L 11.0081,0.9673 L 11.0221,0.9673 L 11.0221,0.9813 L 11.0362,0.9813 L 11.0362,0.9953 L 11.0502,0.9953 L 11.0502,1.0093 L 11.0502,1.0233 L 11.0502,1.0373 L 11.0502,1.0514 L 11.0502,1.0654 L 11.0502,1.0794 L 11.0502,1.0934 L 11.0502,1.1074 L 11.0502,1.1215 L 11.0502,1.1355 L 11.0502,1.1495 L 11.0502,1.1635 L 11.0502,1.1775 L 11.0502,1.1915 L 11.0502,1.2056 L 11.0502,1.2196 L 11.0502,1.2336 L 11.0502,1.2476 L 11.0502,1.2336 L 11.0362,1.2196 L 11.0362,1.2056 L 11.0221,1.2056 L 11.0081,1.2056 L 11.0081,1.1915 L 10.9941,1.1915 L 10.9800,1.1915 L 10.9660,1.1915 L 10.9519,1.1915 L 10.9239,1.1915 L 10.8958,1.1915 L 10.8677,1.1915 L 10.8396,1.1915 L 10.7975,1.1915 L 10.7554,1.1915 L 10.7132,1.1915 L 10.6711,1.1915 L 10.6290,1.1915 L 10.5869,1.1915 L 10.5307,1.1915 L 10.4886,1.1915 L 10.4465,1.1915 L 10.3903,1.1915 L 10.3482,1.1915 L 10.3061,1.1915 L 10.2639,1.1915 L 10.2218,1.1915 L 10.1797,1.1915 L 10.1376,1.1915 L 10.1095,1.1915 L 10.0814,1.1915 L 10.0533,1.1915 L 10.0252,1.1915 L 10.0112,1.1915 L 9.9972,1.1915 L 9.9831,1.1915 L 9.9691,1.1915 L 9.9550,1.1915 L 9.9550,1.2056 L 9.9410,1.2056 L 9.9410,1.2196 L 9.9270,1.2196 L 9.9270,1.2336 L 9.9270,1.2476 L 9.9270,1.2616 L 9.9270,1.2757 L 9.9270,1.2897 L 9.9270,1.3037 L 9.9270,1.3177 L 9.9270,1.3317 L 9.9270,1.3598 L 9.9270,1.3738 L 9.9270,1.3878 L 9.9270,1.4158 L 9.9270,1.4439 L 9.9270,1.4579 L 9.9270,1.4859 L 9.9270,1.5140 L 9.9270,1.5420 L 9.9270,1.5700 L 9.9270,1.5981 L 9.9270,1.6261 L 9.9270,1.6541 L 9.9270,1.6822 L 9.9270,1.7102 L 9.9270,1.7383 L 9.9270,1.7663 L 9.9270,1.7943 L 9.9270,1.8224 L 9.9270,1.8504 L 9.9270,1.8644 L 9.9270,1.8925 L 9.9270,1.9205 L 9.9410,1.9205 L 9.9550,1.9205 L 9.9691,1.9205 L 9.9972,1.9205 L 10.0252,1.9205 L 10.0533,1.9205 L 10.0954,1.9205 L 10.1376,1.9205 L 10.1797,1.9205 L 10.2218,1.9205 L 10.2639,1.9205 L 10.3061,1.9205 L 10.3622,1.9205 L 10.4043,1.9205 L 10.4605,1.9205 L 10.5167,1.9205 L 10.5588,1.9205 L 10.6150,1.9205 L 10.6571,1.9205 L 10.6992,1.9205 L 10.7413,1.9205 L 10.7835,1.9205 L 10.8256,1.9205 L 10.8677,1.9205 L 10.8958,1.9205 L 10.9239,1.9205 L 10.9519,1.9205 L 10.9660,1.9205 L 10.9800,1.9205 L 10.9941,1.9205 Z" stroke="#000000" stroke-width="0.1197" stroke-linecap="round" stroke-linejoin="round" fill="#000000"/>
        <path d="M 3.4120,1.7943 L 3.4120,2.1588 L 3.8613,2.1588 L 3.8613,1.7943 L 3.4120,1.7943 Z" stroke="#ED3440" stroke-width="0.1197" stroke-linecap="round" stroke-linejoin="round" fill="#ED3440"/>
        <path d="M 2.9205,1.3738 L 3.3137,1.3738 L 3.3137,1.7383 L 2.9205,1.7383 L 2.9205,1.3738 Z" stroke="#ED3440" stroke-width="0.1197" stroke-linecap="round" stroke-linejoin="round" fill="#ED3440"/>
        <path d="M 3.9315,1.8083 L 3.9315,1.8224 L 3.9315,1.8364 L 3.9315,1.8504 L 3.9315,1.8644 L 3.9315,1.8784 L 3.9315,1.8925 L 3.9315,1.9065 L 3.9315,1.9205 L 3.9315,1.9345 L 3.9315,1.9625 L 3.9315,1.9766 L 3.9315,1.9906 L 3.9315,2.0046 L 3.9315,2.0186 L 3.9315,2.0467 L 3.9315,2.0607 L 3.9315,2.0747 L 3.9315,2.0887 L 3.9315,2.1027 L 3.9315,2.1167 L 3.9315,2.1308 L 3.9315,2.1448 L 3.9315,2.1588 L 3.9315,2.1728 L 3.9455,2.1728 L 3.9736,2.1728 L 3.9876,2.1728 L 4.0017,2.1728 L 4.0298,2.1728 L 4.0438,2.1728 L 4.0578,2.1728 L 4.0719,2.1728 L 4.1000,2.1588 L 4.1140,2.1588 L 4.1280,2.1588 L 4.1421,2.1588 L 4.1561,2.1448 L 4.1702,2.1448 L 4.1842,2.1308 L 4.1982,2.1308 L 4.2123,2.1167 L 4.2263,2.1027 L 4.2404,2.1027 L 4.2544,2.0887 L 4.2685,2.0747 L 4.2685,2.0607 L 4.2825,2.0326 L 4.2965,2.0186 L 4.2965,2.0046 L 4.3106,1.9766 L 4.3106,1.9485 L 4.3106,1.9345 L 4.3246,1.9065 L 4.3246,1.8784 L 4.3246,1.8364 L 4.3246,1.8083 L 4.3106,1.8083 L 4.2965,1.8083 L 4.2825,1.8083 L 4.2685,1.8083 L 4.2544,1.8083 L 4.2404,1.8083 L 4.2123,1.8083 L 4.1982,1.8083 L 4.1842,1.8083 L 4.1702,1.8083 L 4.1421,1.8083 L 4.1280,1.8083 L 4.1140,1.8083 L 4.0859,1.8083 L 4.0719,1.8083 L 4.0578,1.8083 L 4.0438,1.8083 L 4.0157,1.8083 L 4.0017,1.8083 L 3.9876,1.8083 L 3.9736,1.8083 L 3.9595,1.8083 L 3.9455,1.8083 L 3.9315,1.8083 Z" stroke="#ED3440" stroke-width="0.1197" stroke-linecap="round" stroke-linejoin="round" fill="#ED3440"/>
        <path d="M 3.9315,1.3738 L 4.3246,1.3738 L 4.3246,1.7383 L 3.9315,1.7383 L 3.9315,1.3738 Z" stroke="#ED3440" stroke-width="0.1197" stroke-linecap="round" stroke-linejoin="round" fill="#ED3440"/>
        <path d="M 3.3137,1.8083 L 3.3137,1.8224 L 3.3137,1.8364 L 3.3137,1.8504 L 3.3137,1.8644 L 3.3137,1.8784 L 3.3137,1.8925 L 3.3137,1.9065 L 3.3137,1.9205 L 3.3137,1.9345 L 3.3137,1.9625 L 3.3137,1.9766 L 3.3137,1.9906 L 3.3137,2.0046 L 3.3137,2.0186 L 3.3137,2.0467 L 3.3137,2.0607 L 3.3137,2.0747 L 3.3137,2.0887 L 3.3137,2.1027 L 3.3137,2.1167 L 3.3137,2.1308 L 3.3137,2.1448 L 3.3137,2.1588 L 3.3137,2.1728 L 3.2996,2.1728 L 3.2856,2.1728 L 3.2575,2.1728 L 3.2435,2.1728 L 3.2294,2.1728 L 3.2154,2.1728 L 3.1873,2.1728 L 3.1733,2.1728 L 3.1592,2.1588 L 3.1452,2.1588 L 3.1311,2.1588 L 3.1171,2.1588 L 3.1031,2.1448 L 3.0890,2.1448 L 3.0750,2.1308 L 3.0609,2.1308 L 3.0469,2.1167 L 3.0328,2.1027 L 3.0188,2.1027 L 3.0048,2.0887 L 2.9907,2.0747 L 2.9767,2.0607 L 2.9767,2.0326 L 2.9626,2.0186 L 2.9486,2.0046 L 2.9486,1.9766 L 2.9346,1.9485 L 2.9346,1.9345 L 2.9346,1.9065 L 2.9205,1.8784 L 2.9205,1.8364 L 2.9205,1.8083 L 2.9346,1.8083 L 2.9486,1.8083 L 2.9626,1.8083 L 2.9767,1.8083 L 2.9907,1.8083 L 3.0048,1.8083 L 3.0328,1.8083 L 3.0469,1.8083 L 3.0609,1.8083 L 3.0750,1.8083 L 3.1031,1.8083 L 3.1171,1.8083 L 3.1311,1.8083 L 3.1592,1.8083 L 3.1733,1.8083 L 3.1873,1.8083 L 3.2013,1.8083 L 3.2294,1.8083 L 3.2435,1.8083 L 3.2575,1.8083 L 3.2715,1.8083 L 3.2856,1.8083 L 3.2996,1.8083 L 3.3137,1.8083 Z" stroke="#ED3440" stroke-width="0.1197" stroke-linecap="round" stroke-linejoin="round" fill="#ED3440"/>
        <path d="M 3.4120,0.9392 L 3.4120,1.3037 L 3.8613,1.3037 L 3.8613,0.9392 L 3.4120,0.9392 Z" stroke="#ED3440" stroke-width="0.1197" stroke-linecap="round" stroke-linejoin="round" fill="#ED3440"/>
        <path d="M 3.9315,1.3037 L 3.9315,1.2897 L 3.9315,1.2757 L 3.9315,1.2616 L 3.9315,1.2476 L 3.9315,1.2336 L 3.9315,1.2196 L 3.9315,1.2056 L 3.9315,1.1915 L 3.9315,1.1775 L 3.9315,1.1495 L 3.9315,1.1355 L 3.9315,1.1215 L 3.9315,1.1074 L 3.9315,1.0934 L 3.9315,1.0654 L 3.9315,1.0514 L 3.9315,1.0373 L 3.9315,1.0233 L 3.9315,1.0093 L 3.9315,0.9953 L 3.9315,0.9813 L 3.9315,0.9673 L 3.9315,0.9532 L 3.9315,0.9392 L 3.9455,0.9392 L 3.9736,0.9392 L 3.9876,0.9392 L 4.0017,0.9392 L 4.0298,0.9392 L 4.0438,0.9392 L 4.0578,0.9392 L 4.0719,0.9392 L 4.1000,0.9532 L 4.1140,0.9532 L 4.1280,0.9532 L 4.1421,0.9532 L 4.1561,0.9673 L 4.1702,0.9673 L 4.1842,0.9813 L 4.1982,0.9813 L 4.2123,0.9953 L 4.2263,1.0093 L 4.2404,1.0093 L 4.2544,1.0233 L 4.2685,1.0373 L 4.2685,1.0514 L 4.2825,1.0794 L 4.2965,1.0934 L 4.2965,1.1074 L 4.3106,1.1355 L 4.3106,1.1635 L 4.3106,1.1775 L 4.3246,1.2056 L 4.3246,1.2336 L 4.3246,1.2757 L 4.3246,1.3037 L 4.3106,1.3037 L 4.2965,1.3037 L 4.2825,1.3037 L 4.2685,1.3037 L 4.2544,1.3037 L 4.2404,1.3037 L 4.2123,1.3037 L 4.1982,1.3037 L 4.1842,1.3037 L 4.1702,1.3037 L 4.1421,1.3037 L 4.1280,1.3037 L 4.1140,1.3037 L 4.0859,1.3037 L 4.0719,1.3037 L 4.0578,1.3037 L 4.0438,1.3037 L 4.0157,1.3037 L 4.0017,1.3037 L 3.9876,1.3037 L 3.9736,1.3037 L 3.9595,1.3037 L 3.9455,1.3037 L 3.9315,1.3037 Z" stroke="#ED3440" stroke-width="0.1197" stroke-linecap="round" stroke-linejoin="round" fill="#ED3440"/>
        <path d="M 3.3137,1.3037 L 3.3137,1.2897 L 3.3137,1.2757 L 3.3137,1.2616 L 3.3137,1.2476 L 3.3137,1.2336 L 3.3137,1.2196 L 3.3137,1.2056 L 3.3137,1.1915 L 3.3137,1.1775 L 3.3137,1.1495 L 3.3137,1.1355 L 3.3137,1.1215 L 3.3137,1.1074 L 3.3137,1.0934 L 3.3137,1.0654 L 3.3137,1.0514 L 3.3137,1.0373 L 3.3137,1.0233 L 3.3137,1.0093 L 3.3137,0.9953 L 3.3137,0.9813 L 3.3137,0.9673 L 3.3137,0.9532 L 3.3137,0.9392 L 3.2996,0.9392 L 3.2856,0.9392 L 3.2575,0.9392 L 3.2435,0.9392 L 3.2294,0.9392 L 3.2154,0.9392 L 3.1873,0.9392 L 3.1733,0.9392 L 3.1592,0.9532 L 3.1452,0.9532 L 3.1311,0.9532 L 3.1171,0.9532 L 3.1031,0.9673 L 3.0890,0.9673 L 3.0750,0.9813 L 3.0609,0.9813 L 3.0469,0.9953 L 3.0328,1.0093 L 3.0188,1.0093 L 3.0048,1.0233 L 2.9907,1.0373 L 2.9767,1.0514 L 2.9767,1.0794 L 2.9626,1.0934 L 2.9486,1.1074 L 2.9486,1.1355 L 2.9346,1.1635 L 2.9346,1.1775 L 2.9346,1.2056 L 2.9205,1.2336 L 2.9205,1.2757 L 2.9205,1.3037 L 2.9346,1.3037 L 2.9486,1.3037 L 2.9626,1.3037 L 2.9767,1.3037 L 2.9907,1.3037 L 3.0048,1.3037 L 3.0328,1.3037 L 3.0469,1.3037 L 3.0609,1.3037 L 3.0750,1.3037 L 3.1031,1.3037 L 3.1171,1.3037 L 3.1311,1.3037 L 3.1592,1.3037 L 3.1733,1.3037 L 3.1873,1.3037 L 3.2013,1.3037 L 3.2294,1.3037 L 3.2435,1.3037 L 3.2575,1.3037 L 3.2715,1.3037 L 3.2856,1.3037 L 3.2996,1.3037 L 3.3137,1.3037 Z" stroke="#ED3440" stroke-width="0.1197" stroke-linecap="round" stroke-linejoin="round" fill="#ED3440"/>
        <path d="M 35.8044,9.9389 L 36.3099,9.9389 " stroke="#000000" stroke-width="0.1197" stroke-linecap="round" stroke-linejoin="round" fill="none"/>
        <path d="M 1.5024,3.1120 L 1.5024,3.0840 L 1.4883,3.0560 L 1.4603,3.0419 L 1.4322,3.0419 L 1.4041,3.0419 L 1.3760,3.0560 L 1.3620,3.0840 L 1.3620,3.1120 L 1.3620,4.1494 L 1.3620,4.1774 L 1.3760,4.2054 L 1.4041,4.2195 L 1.4322,4.2195 L 1.4603,4.2195 L 1.4883,4.2054 L 1.5024,4.1774 L 1.5024,4.1494 L 1.5024,3.1120 Z" stroke="#000000" stroke-width="0.1197" stroke-linecap="round" stroke-linejoin="round" fill="#000000"/>
        <path d="M 1.9517,3.1120 L 1.9517,3.0840 L 1.9377,3.0560 L 1.9096,3.0419 L 1.8815,3.0419 L 1.8534,3.0419 L 1.8253,3.0560 L 1.8113,3.0840 L 1.8113,3.1120 L 1.8113,4.1494 L 1.8113,4.1774 L 1.8253,4.2054 L 1.8534,4.2195 L 1.8815,4.2195 L 1.9096,4.2195 L 1.9377,4.2054 L 1.9517,4.1774 L 1.9517,4.1494 L 1.9517,3.1120 Z" stroke="#000000" stroke-width="0.1197" stroke-linecap="round" stroke-linejoin="round" fill="#000000"/>
        <path d="M 2.4010,3.1120 L 2.4010,3.0840 L 2.3870,3.0560 L 2.3589,3.0419 L 2.3308,3.0419 L 2.3027,3.0419 L 2.2746,3.0560 L 2.2606,3.0840 L 2.2606,3.1120 L 2.2606,4.1494 L 2.2606,4.1774 L 2.2746,4.2054 L 2.3027,4.2195 L 2.3308,4.2195 L 2.3589,4.2195 L 2.3870,4.2054 L 2.4010,4.1774 L 2.4010,4.1494 L 2.4010,3.1120 Z" stroke="#000000" stroke-width="0.1197" stroke-linecap="round" stroke-linejoin="round" fill="#000000"/>
        <path d="M 37.1243,9.8267 L 37.1102,9.8267 L 37.0962,9.8267 L 37.0822,9.8267 L 37.0681,9.8267 L 37.0541,9.8267 L 37.0400,9.8267 L 37.0260,9.8267 L 37.0120,9.8267 L 36.9979,9.8267 L 36.9979,9.8407 L 36.9979,9.8548 L 36.9979,9.8688 L 36.9839,9.8828 L 36.9839,9.8968 L 36.9839,9.9108 L 36.9839,9.9249 L 36.9839,9.9389 L 36.9839,9.9529 L 36.9839,9.9669 L 36.9839,9.9809 L 36.9839,9.9949 L 36.9839,10.0090 L 36.9979,10.0090 L 36.9979,10.0230 L 36.9979,10.0370 L 37.0120,10.0510 L 37.0120,10.0650 L 37.0260,10.0650 L 37.0260,10.0791 L 37.0260,10.0931 L 37.0400,10.0931 L 37.0541,10.1071 L 37.0681,10.1211 L 37.0822,10.1211 L 37.0822,10.1351 L 37.0962,10.1351 L 37.1102,10.1351 L 37.1102,10.1491 L 37.1243,10.1491 L 37.1383,10.1491 L 37.1524,10.1491 L 37.1664,10.1491 L 37.1804,10.1491 L 37.1945,10.1491 L 37.2085,10.1491 L 37.2226,10.1491 L 37.2366,10.1491 L 37.2507,10.1491 L 37.2647,10.1491 L 37.2787,10.1491 L 37.2928,10.1491 L 37.3068,10.1491 L 37.3209,10.1491 L 37.3349,10.1491 L 37.3489,10.1491 L 37.3630,10.1491 L 37.3770,10.1491 L 37.3911,10.1491 L 37.4051,10.1491 L 37.4191,10.1491 L 37.4332,10.1491 L 37.4472,10.1491 L 37.4613,10.1491 L 37.4753,10.1491 L 37.4893,10.1491 L 37.5034,10.1491 L 37.5174,10.1491 L 37.5315,10.1491 L 37.5315,10.1351 L 37.5455,10.1351 L 37.5596,10.1351 L 37.5596,10.1211 L 37.5736,10.1211 L 37.5876,10.1071 L 37.6017,10.0931 L 37.6157,10.0931 L 37.6157,10.0791 L 37.6157,10.0650 L 37.6298,10.0650 L 37.6298,10.0510 L 37.6438,10.0370 L 37.6438,10.0230 L 37.6438,10.0090 L 37.6578,10.0090 L 37.6578,9.9949 L 37.6578,9.9809 L 37.6578,9.9669 L 37.6578,9.9529 L 37.6578,9.9389 L 37.6578,9.9249 L 37.6578,9.9108 L 37.6578,9.8968 L 37.6438,9.8968 L 37.6438,9.8828 L 37.6438,9.8688 L 37.6298,9.8548 L 37.6298,9.8407 L 37.6157,9.8407 L 37.6157,9.8267 L 37.6157,9.8127 L 37.6017,9.8127 L 37.5876,9.7987 L 37.5736,9.7847 L 37.5596,9.7847 L 37.5596,9.7707 L 37.5455,9.7707 L 37.5315,9.7707 L 37.5315,9.7566 L 37.5174,9.7566 L 37.5034,9.7566 L 37.4893,9.7566 L 37.4753,9.7566 L 37.4613,9.7566 L 37.4472,9.7566 L 37.4332,9.7566 L 37.4191,9.7566 L 37.4051,9.7566 L 37.3911,9.7566 L 37.3770,9.7566 L 37.3630,9.7566 L 37.3489,9.7566 L 37.3349,9.7566 L 37.3209,9.7566 L 37.3068,9.7566 L 37.2928,9.7566 L 37.2928,9.7707 L 37.3068,9.7707 L 37.3068,9.7847 L 37.3209,9.7847 L 37.3209,9.7987 L 37.3209,9.8127 L 37.3349,9.8267 L 37.3349,9.8407 L 37.3489,9.8407 L 37.3630,9.8407 L 37.3770,9.8407 L 37.3911,9.8407 L 37.4051,9.8407 L 37.4191,9.8407 L 37.4332,9.8407 L 37.4472,9.8407 L 37.4613,9.8407 L 37.4753,9.8407 L 37.4893,9.8548 L 37.5034,9.8548 L 37.5034,9.8688 L 37.5174,9.8688 L 37.5174,9.8828 L 37.5174,9.8968 L 37.5315,9.8968 L 37.5315,9.9108 L 37.5315,9.9249 L 37.5315,9.9389 L 37.5315,9.9529 L 37.5315,9.9669 L 37.5315,9.9809 L 37.5315,9.9949 L 37.5315,10.0090 L 37.5174,10.0090 L 37.5174,10.0230 L 37.5174,10.0370 L 37.5034,10.0510 L 37.5034,10.0650 L 37.4893,10.0650 L 37.4753,10.0650 L 37.4753,10.0791 L 37.4613,10.0791 L 37.4472,10.0791 L 37.4332,10.0791 L 37.4191,10.0791 L 37.4051,10.0791 L 37.3911,10.0791 L 37.3770,10.0791 L 37.3630,10.0791 L 37.3489,10.0791 L 37.3349,10.0791 L 37.3209,10.0791 L 37.3068,10.0791 L 37.2928,10.0791 L 37.2787,10.0791 L 37.2647,10.0791 L 37.2507,10.0791 L 37.2366,10.0791 L 37.2226,10.0791 L 37.2085,10.0791 L 37.1945,10.0791 L 37.1804,10.0791 L 37.1664,10.0791 L 37.1664,10.0650 L 37.1524,10.0650 L 37.1383,10.0650 L 37.1383,10.0510 L 37.1243,10.0370 L 37.1243,10.0230 L 37.1243,10.0090 L 37.1102,10.0090 L 37.1102,9.9949 L 37.1102,9.9809 L 37.1102,9.9669 L 37.1102,9.9529 L 37.1102,9.9389 L 37.1102,9.9249 L 37.1102,9.9108 L 37.1102,9.8968 L 37.1102,9.8828 L 37.1243,9.8688 L 37.1243,9.8548 L 37.1243,9.8407 L 37.1243,9.8267 Z" stroke-width="1px" stroke="#000000" fill="#000000"/>
        <path d="M 37.1804,10.0791 L 37.1945,10.0791 L 37.2085,10.0791 L 37.2226,10.0791 L 37.2366,10.0791 L 37.2507,10.0791 L 37.2647,10.0791 L 37.2787,10.0791 L 37.2928,10.0791 L 37.3068,10.0791 L 37.3068,10.0650 L 37.3068,10.0510 L 37.3068,10.0370 L 37.3209,10.0370 L 37.3209,10.0230 L 37.3209,10.0090 L 37.3209,9.9949 L 37.3209,9.9809 L 37.3209,9.9669 L 37.3209,9.9529 L 37.3209,9.9389 L 37.3209,9.9249 L 37.3209,9.9108 L 37.3209,9.8968 L 37.3068,9.8968 L 37.3068,9.8828 L 37.3068,9.8688 L 37.2928,9.8548 L 37.2928,9.8407 L 37.2787,9.8407 L 37.2787,9.8267 L 37.2787,9.8127 L 37.2647,9.8127 L 37.2507,9.7987 L 37.2366,9.7847 L 37.2226,9.7847 L 37.2226,9.7707 L 37.2085,9.7707 L 37.1945,9.7707 L 37.1945,9.7566 L 37.1804,9.7566 L 37.1664,9.7566 L 37.1524,9.7566 L 37.1383,9.7566 L 37.1243,9.7566 L 37.1102,9.7566 L 37.0962,9.7566 L 37.0822,9.7566 L 37.0681,9.7566 L 37.0541,9.7566 L 37.0400,9.7566 L 37.0260,9.7566 L 37.0120,9.7566 L 36.9979,9.7566 L 36.9839,9.7566 L 36.9698,9.7566 L 36.9558,9.7566 L 36.9418,9.7566 L 36.9277,9.7566 L 36.9137,9.7566 L 36.8996,9.7566 L 36.8856,9.7566 L 36.8715,9.7566 L 36.8575,9.7566 L 36.8435,9.7566 L 36.8294,9.7566 L 36.8154,9.7566 L 36.8013,9.7566 L 36.7873,9.7566 L 36.7733,9.7566 L 36.7733,9.7707 L 36.7592,9.7707 L 36.7452,9.7707 L 36.7452,9.7847 L 36.7311,9.7847 L 36.7171,9.7987 L 36.7031,9.8127 L 36.6890,9.8127 L 36.6890,9.8267 L 36.6890,9.8407 L 36.6750,9.8407 L 36.6750,9.8548 L 36.6609,9.8688 L 36.6609,9.8828 L 36.6609,9.8968 L 36.6469,9.8968 L 36.6469,9.9108 L 36.6469,9.9249 L 36.6469,9.9389 L 36.6469,9.9529 L 36.6469,9.9669 L 36.6469,9.9809 L 36.6469,9.9949 L 36.6469,10.0090 L 36.6609,10.0090 L 36.6609,10.0230 L 36.6609,10.0370 L 36.6750,10.0510 L 36.6750,10.0650 L 36.6890,10.0650 L 36.6890,10.0791 L 36.6890,10.0931 L 36.7031,10.0931 L 36.7171,10.1071 L 36.7311,10.1211 L 36.7452,10.1211 L 36.7452,10.1351 L 36.7592,10.1351 L 36.7733,10.1351 L 36.7733,10.1491 L 36.7873,10.1491 L 36.8013,10.1491 L 36.8154,10.1491 L 36.8294,10.1491 L 36.8435,10.1491 L 36.8575,10.1491 L 36.8715,10.1491 L 36.8856,10.1491 L 36.8996,10.1491 L 36.9137,10.1491 L 36.9277,10.1491 L 36.9418,10.1491 L 36.9558,10.1491 L 36.9698,10.1491 L 36.9839,10.1491 L 36.9979,10.1491 L 37.0120,10.1491 L 37.0120,10.1351 L 36.9979,10.1351 L 36.9979,10.1211 L 36.9839,10.1211 L 36.9839,10.1071 L 36.9839,10.0931 L 36.9698,10.0791 L 36.9698,10.0650 L 36.9558,10.0650 L 36.9418,10.0650 L 36.9277,10.0650 L 36.9137,10.0650 L 36.8996,10.0650 L 36.8856,10.0650 L 36.8715,10.0650 L 36.8575,10.0650 L 36.8435,10.0650 L 36.8294,10.0650 L 36.8154,10.0510 L 36.8013,10.0510 L 36.8013,10.0370 L 36.7873,10.0370 L 36.7873,10.0230 L 36.7873,10.0090 L 36.7733,10.0090 L 36.7733,9.9949 L 36.7733,9.9809 L 36.7733,9.9669 L 36.7733,9.9529 L 36.7733,9.9389 L 36.7733,9.9249 L 36.7733,9.9108 L 36.7733,9.8968 L 36.7873,9.8968 L 36.7873,9.8828 L 36.7873,9.8688 L 36.8013,9.8548 L 36.8013,9.8407 L 36.8154,9.8407 L 36.8294,9.8407 L 36.8294,9.8267 L 36.8435,9.8267 L 36.8575,9.8267 L 36.8715,9.8267 L 36.8856,9.8267 L 36.8996,9.8267 L 36.9137,9.8267 L 36.9277,9.8267 L 36.9418,9.8267 L 36.9558,9.8267 L 36.9698,9.8267 L 36.9839,9.8267 L 36.9979,9.8267 L 37.0120,9.8267 L 37.0260,9.8267 L 37.0400,9.8267 L 37.0541,9.8267 L 37.0681,9.8267 L 37.0822,9.8267 L 37.0962,9.8267 L 37.1102,9.8267 L 37.1243,9.8267 L 37.1383,9.8267 L 37.1383,9.8407 L 37.1524,9.8407 L 37.1664,9.8407 L 37.1664,9.8548 L 37.1804,9.8688 L 37.1804,9.8828 L 37.1804,9.8968 L 37.1945,9.8968 L 37.1945,9.9108 L 37.1945,9.9249 L 37.1945,9.9389 L 37.1945,9.9529 L 37.1945,9.9669 L 37.1945,9.9809 L 37.1945,9.9949 L 37.1945,10.0090 L 37.1945,10.0230 L 37.1945,10.0370 L 37.1804,10.0370 L 37.1804,10.0510 L 37.1804,10.0650 L 37.1804,10.0791 Z" stroke-width="1px" stroke="#000000" fill="#000000"/>
        <ellipse cx="14.1884" cy="6.6376" rx="0.3721" ry="0.3715" fill="#333333" stroke="#000000" stroke-width="0.1197" stroke-linecap="round" stroke-linejoin="round"/>
        <ellipse cx="14.1884" cy="6.6376" rx="0.3721" ry="0.3715" fill="none" stroke="#000000" stroke-width="0.1197" stroke-linecap="round" stroke-linejoin="round"/>
        <ellipse cx="14.1884" cy="7.8992" rx="0.3721" ry="0.3715" fill="#333333" stroke="#000000" stroke-width="0.1197" stroke-linecap="round" stroke-linejoin="round"/>
        <ellipse cx="14.1884" cy="7.8992" rx="0.3721" ry="0.3715" fill="none" stroke="#000000" stroke-width="0.1197" stroke-linecap="round" stroke-linejoin="round"/>
        <ellipse cx="15.4521" cy="7.8992" rx="0.3721" ry="0.3715" fill="#333333" stroke="#000000" stroke-width="0.1197" stroke-linecap="round" stroke-linejoin="round"/>
        <ellipse cx="15.4521" cy="7.8992" rx="0.3721" ry="0.3715" fill="none" stroke="#000000" stroke-width="0.1197" stroke-linecap="round" stroke-linejoin="round"/>
        <ellipse cx="14.1884" cy="6.6376" rx="0.2878" ry="0.2874" fill="#00FF00" stroke="#000000" stroke-width="0.1197" stroke-linecap="round" stroke-linejoin="round"/>
        <ellipse cx="14.1884" cy="6.6376" rx="0.2878" ry="0.2874" fill="none" stroke="#000000" stroke-width="0.1197" stroke-linecap="round" stroke-linejoin="round"/>
        <ellipse cx="14.1884" cy="7.9062" rx="0.2878" ry="0.2944" fill="#00FF00" stroke="#000000" stroke-width="0.1197" stroke-linecap="round" stroke-linejoin="round"/>
        <ellipse cx="14.1884" cy="7.9062" rx="0.2878" ry="0.2944" fill="none" stroke="#000000" stroke-width="0.1197" stroke-linecap="round" stroke-linejoin="round"/>
        <ellipse cx="15.4521" cy="7.9062" rx="0.2878" ry="0.2944" fill="#00FF00" stroke="#000000" stroke-width="0.1197" stroke-linecap="round" stroke-linejoin="round"/>
        <ellipse cx="15.4521" cy="7.9062" rx="0.2878" ry="0.2944" fill="none" stroke="#000000" stroke-width="0.1197" stroke-linecap="round" stroke-linejoin="round"/>
        <text font-family="Arial" fill="#000000" style="white-space:pre;" font-weight="400" text-anchor="start" x="1.8674" y="2.8123" font-size="0.1966"><![CDATA[CONSOLE]]></text>
        <text font-family="Arial" fill="#000000" style="white-space:pre;" font-weight="400" text-anchor="start" x="8.9581" y="2.8123" font-size="0.1966"><![CDATA[A]]></text>
        <text font-family="Arial" fill="#000000" style="white-space:pre;" font-weight="400" text-anchor="start" x="5.8130" y="2.8123" font-size="0.1966"><![CDATA[WAN]]></text>
        <text font-family="Arial" fill="#000000" style="white-space:pre;" font-weight="400" text-anchor="start" x="6.9643" y="2.8123" font-size="0.1966"><![CDATA[1]]></text>
        <text font-family="Arial" fill="#000000" style="white-space:pre;" font-weight="400" text-anchor="start" x="7.9612" y="2.8123" font-size="0.1966"><![CDATA[2]]></text>
        <text font-family="Arial" fill="#000000" style="white-space:pre;" font-weight="400" text-anchor="start" x="0.6178" y="2.4479" font-size="0.1966"><![CDATA[RESET]]></text>
        <text font-family="Arial" fill="#000000" style="white-space:pre;" font-weight="400" text-anchor="start" x="3.0188" y="1.9600" font-size="0.1685"><![CDATA[STATUS]]></text>
        <text font-family="Arial" fill="#000000" style="white-space:pre;" font-weight="400" text-anchor="start" x="3.2715" y="2.2964" font-size="0.1685"><![CDATA[PWR]]></text>
        <text font-family="Arial" fill="#000000" style="white-space:pre;" font-weight="400" text-anchor="start" x="4.2685" y="2.2838" font-size="0.1545"><![CDATA[HA]]></text>
        <text font-family="Arial" fill="#000000" style="white-space:pre;" font-weight="400" text-anchor="start" x="1.0812" y="1.2255" font-size="0.2247"><![CDATA[FortiGate 30G]]></text>
        <path d="M 6.5815,8.1812 L 6.5815,6.0596 L 7.4739,6.0596 L 7.4739,5.5604 L 7.8365,5.5604 L 7.8365,5.0613 L 8.8962,5.0613 L 8.8962,5.5604 L 9.2588,5.5604 L 9.2588,6.0596 L 10.1512,6.0596 L 10.1512,8.1812 L 6.5815,8.1812 Z" stroke="#161616" stroke-width="0.1197" stroke-linecap="round" stroke-linejoin="round" fill="#000000"/>
        <path d="M 21.3621,5.6159 L 21.3621,7.7375 L 22.2545,7.7375 L 22.2545,8.2367 L 22.6170,8.2367 L 22.6170,8.7359 L 23.6768,8.7359 L 23.6768,8.2367 L 24.0393,8.2367 L 24.0393,7.7375 L 24.9317,7.7375 L 24.9317,5.6159 L 21.3621,5.6159 Z" stroke="#161616" stroke-width="0.1197" stroke-linecap="round" stroke-linejoin="round" fill="#000000"/>
        <path d="M 25.3500,5.6159 L 25.3500,7.7375 L 26.2425,7.7375 L 26.2425,8.2367 L 26.6050,8.2367 L 26.6050,8.7359 L 27.6647,8.7359 L 27.6647,8.2367 L 28.0273,8.2367 L 28.0273,7.7375 L 28.9197,7.7375 L 28.9197,5.6159 L 25.3500,5.6159 Z" stroke="#161616" stroke-width="0.1197" stroke-linecap="round" stroke-linejoin="round" fill="#000000"/>
        <path d="M 29.3380,5.6159 L 29.3380,7.7375 L 30.2304,7.7375 L 30.2304,8.2367 L 30.5930,8.2367 L 30.5930,8.7359 L 31.6527,8.7359 L 31.6527,8.2367 L 32.0152,8.2367 L 32.0152,7.7375 L 32.9076,7.7375 L 32.9076,5.6159 L 29.3380,5.6159 Z" stroke="#161616" stroke-width="0.1197" stroke-linecap="round" stroke-linejoin="round" fill="#000000"/>
        <path d="M 33.3399,5.6159 L 33.3399,7.7375 L 34.2323,7.7375 L 34.2323,8.2367 L 34.5949,8.2367 L 34.5949,8.7359 L 35.6546,8.7359 L 35.6546,8.2367 L 36.0171,8.2367 L 36.0171,7.7375 L 36.9096,7.7375 L 36.9096,5.6159 L 33.3399,5.6159 Z" stroke="#161616" stroke-width="0.1197" stroke-linecap="round" stroke-linejoin="round" fill="#000000"/>
        <text font-family="Symbol" fill="#000000" style="white-space:pre;" text-anchor="start" x="12.2506" y="2.1806" font-size="0.4816"><![CDATA[]]></text>
      </g>
      <!--emf-blob end-->
    </g>
  </g>
</svg>
