<svg xmlns="http://www.w3.org/2000/svg" xmlns:xlink="http://www.w3.org/1999/xlink" version="1.1" width="3.7652000000" height="2.5984000000" viewBox="0 0 67.7707 46.7697">
  <title><![CDATA[FG/FWF-90D ]]></title>
  <g transform=" scale(4.000000) ">
    <!--converted by libvisio2svg-->
    <g transform=" translate(0.720000,0.720000) ">
      <!--emf-blob start-->
      <g transform="translate(-0.0000, -0.0000)">
        <path d="M 2.5199,4.1012 L 0.1120,4.1012 L 0.1120,8.3148 L 2.5199,8.3148 L 2.5199,4.1012 Z" stroke="#000000" stroke-width="0.1197" stroke-linecap="round" stroke-linejoin="round" fill="#EFEFEF"/>
        <path d="M 65.8535,4.1012 L 63.4456,4.1012 L 63.4456,8.3148 L 65.8535,8.3148 L 65.8535,4.1012 Z" stroke="#000000" stroke-width="0.1197" stroke-linecap="round" stroke-linejoin="round" fill="#EFEFEF"/>
        <path d="M 63.4456,0.3090 L 63.4456,0.2528 L 63.4176,0.1966 L 63.4036,0.1545 L 63.3196,0.0702 L 63.2776,0.0562 L 63.2216,0.0281 L 2.7439,0.0281 L 2.6879,0.0562 L 2.6459,0.0702 L 2.5619,0.1545 L 2.5479,0.1966 L 2.5199,0.2528 L 2.5199,12.1632 L 2.5479,12.2194 L 2.5619,12.2615 L 2.6459,12.3458 L 2.6879,12.3598 L 2.7439,12.3879 L 63.2216,12.3879 L 63.2776,12.3598 L 63.3196,12.3458 L 63.4036,12.2615 L 63.4176,12.2194 L 63.4456,12.1632 L 63.4456,12.1070 L 63.4456,0.3090 Z" stroke="#000000" stroke-width="0.1197" stroke-linecap="round" stroke-linejoin="round" fill="#EDEDED"/>
        <path d="M 2.7999,0.0281 L 2.7439,0.0281 L 2.7299,0.0421 L 2.6879,0.0421 L 2.6739,0.0562 L 2.6599,0.0562 L 2.6459,0.0702 L 2.6319,0.0702 L 2.6319,0.0843 L 2.6179,0.0843 L 2.6039,0.0983 L 2.6039,0.1124 L 2.5899,0.1124 L 2.5759,0.1264 L 2.5759,0.1405 L 2.5619,0.1405 L 2.5619,0.1545 L 2.5479,0.1685 L 2.5479,0.1826 L 2.5339,0.1966 L 2.5339,0.2388 L 2.5199,0.2528 L 2.5199,1.0393 L 2.7439,1.0393 L 2.7439,0.3933 L 2.7579,0.3792 L 2.7579,0.3371 L 2.7719,0.3090 L 2.7719,0.2950 L 2.7859,0.2809 L 2.7859,0.2669 L 2.8279,0.2247 L 2.8279,0.2107 L 2.8419,0.2107 L 2.8559,0.1966 L 2.8559,0.1826 L 2.8699,0.1826 L 2.8839,0.1685 L 2.9119,0.1685 L 2.9259,0.1545 L 2.9539,0.1545 L 2.9679,0.1405 L 62.9976,0.1405 L 63.0116,0.1545 L 63.0396,0.1545 L 63.0536,0.1685 L 63.0816,0.1685 L 63.0956,0.1826 L 63.1096,0.1826 L 63.1096,0.1966 L 63.1236,0.2107 L 63.1376,0.2107 L 63.1516,0.2247 L 63.1516,0.2388 L 63.1796,0.2669 L 63.1796,0.2809 L 63.1936,0.2950 L 63.1936,0.3090 L 63.2076,0.3371 L 63.2076,0.3792 L 63.2216,0.3933 L 63.2216,1.0393 L 63.4456,1.0393 L 63.4456,0.2528 L 63.4316,0.2388 L 63.4316,0.1966 L 63.4176,0.1826 L 63.4176,0.1685 L 63.4036,0.1545 L 63.4036,0.1405 L 63.3896,0.1405 L 63.3896,0.1264 L 63.3476,0.0843 L 63.3336,0.0843 L 63.3336,0.0702 L 63.3196,0.0702 L 63.3056,0.0562 L 63.2916,0.0562 L 63.2776,0.0421 L 63.2356,0.0421 L 63.2216,0.0281 L 2.9679,0.0281 L 2.7999,0.0281 Z" stroke="#000000" stroke-width="0.1197" stroke-linecap="round" stroke-linejoin="round" fill="#EFEFEF"/>
        <path d="M 2.7999,12.3879 L 2.7439,12.3879 L 2.7299,12.3739 L 2.6879,12.3739 L 2.6739,12.3598 L 2.6599,12.3598 L 2.6459,12.3458 L 2.6319,12.3458 L 2.6319,12.3317 L 2.6179,12.3317 L 2.5759,12.2896 L 2.5759,12.2756 L 2.5619,12.2756 L 2.5619,12.2615 L 2.5479,12.2475 L 2.5479,12.2334 L 2.5339,12.2194 L 2.5339,12.1772 L 2.5199,12.1632 L 2.5199,11.3767 L 2.7439,11.3767 L 2.7439,12.0227 L 2.7579,12.0368 L 2.7579,12.0930 L 2.7719,12.1070 L 2.7719,12.1211 L 2.7859,12.1351 L 2.7859,12.1491 L 2.8279,12.1913 L 2.8279,12.2053 L 2.8419,12.2053 L 2.8559,12.2194 L 2.8559,12.2334 L 2.8699,12.2334 L 2.8839,12.2475 L 2.8979,12.2475 L 2.9119,12.2615 L 2.9539,12.2615 L 2.9679,12.2756 L 62.9976,12.2756 L 63.0116,12.2615 L 63.0536,12.2615 L 63.0676,12.2475 L 63.0816,12.2475 L 63.0956,12.2334 L 63.1096,12.2334 L 63.1096,12.2194 L 63.1236,12.2053 L 63.1376,12.2053 L 63.1516,12.1913 L 63.1516,12.1772 L 63.1796,12.1491 L 63.1796,12.1351 L 63.1936,12.1211 L 63.1936,12.1070 L 63.2076,12.0930 L 63.2076,12.0368 L 63.2216,12.0227 L 63.2216,11.3767 L 63.4456,11.3767 L 63.4456,12.1632 L 63.4316,12.1772 L 63.4316,12.2194 L 63.4176,12.2334 L 63.4176,12.2475 L 63.4036,12.2615 L 63.4036,12.2756 L 63.3896,12.2756 L 63.3896,12.2896 L 63.3756,12.3036 L 63.3756,12.3177 L 63.3616,12.3177 L 63.3476,12.3317 L 63.3336,12.3317 L 63.3336,12.3458 L 63.3196,12.3458 L 63.3056,12.3598 L 63.2916,12.3598 L 63.2776,12.3739 L 63.2356,12.3739 L 63.2216,12.3879 L 2.9679,12.3879 L 2.7999,12.3879 Z" stroke="#000000" stroke-width="0.1197" stroke-linecap="round" stroke-linejoin="round" fill="#EFEFEF"/>
        <path d="M 23.7291,2.3596 L 18.7173,2.3596 L 18.7173,10.0564 L 23.7291,10.0564 L 23.7291,2.3596 Z" stroke="#000000" stroke-width="0.1197" stroke-linecap="round" stroke-linejoin="round" fill="#000000"/>
        <path d="M 18.8293,2.4720 L 23.6171,2.4720 L 23.6171,9.9440 L 18.8293,9.9440 L 18.8293,2.4720 Z" stroke="#000000" stroke-width="0.1197" stroke-linecap="round" stroke-linejoin="round" fill="#AAA29B"/>
        <path d="M 11.0876,6.1518 L 14.7834,6.1518 L 14.7834,9.7474 L 11.0876,9.7474 L 11.0876,6.1518 Z" stroke="#EFEFEF" stroke-width="0.1197" stroke-linecap="round" stroke-linejoin="round" fill="#AAA29B"/>
        <path d="M 48.7601,2.3596 L 24.0091,2.3596 L 24.0091,10.0564 L 48.7601,10.0564 L 48.7601,2.3596 Z" stroke="#000000" stroke-width="0.1197" stroke-linecap="round" stroke-linejoin="round" fill="#000000"/>
        <path d="M 54.7519,2.3596 L 49.7401,2.3596 L 49.7401,10.0564 L 54.7519,10.0564 L 54.7519,2.3596 Z" stroke="#000000" stroke-width="0.1197" stroke-linecap="round" stroke-linejoin="round" fill="#000000"/>
        <path d="M 49.8521,2.4720 L 54.6399,2.4720 L 54.6399,9.9440 L 49.8521,9.9440 L 49.8521,2.4720 Z" stroke="#000000" stroke-width="0.1197" stroke-linecap="round" stroke-linejoin="round" fill="#AAA29B"/>
        <path d="M 48.6481,2.4720 L 24.1211,2.4720 L 24.1211,9.9440 L 48.6481,9.9440 L 48.6481,2.4720 Z" stroke="#000000" stroke-width="0.1197" stroke-linecap="round" stroke-linejoin="round" fill="#AAA29B"/>
        <ellipse cx="8.3838" cy="5.5615" rx="0.6572" ry="0.6606" fill="none" stroke="#0A0A0A" stroke-width="0.1197" stroke-linecap="round" stroke-linejoin="round"/>
        <path d="M 8.4460,5.0973 L 8.4460,5.7489 " stroke="#000000" stroke-width="0.1197" stroke-linecap="round" stroke-linejoin="round" fill="none"/>
        <path d="M 8.0020,5.8739 L 8.8901,5.8739 " stroke="#000000" stroke-width="0.1197" stroke-linecap="round" stroke-linejoin="round" fill="none"/>
        <path d="M 8.0997,6.0257 L 8.7924,6.0257 " stroke="#000000" stroke-width="0.1197" stroke-linecap="round" stroke-linejoin="round" fill="none"/>
        <path d="M 8.0997,6.0257 L 8.7924,6.0257 " stroke="#000000" stroke-width="0.1197" stroke-linecap="round" stroke-linejoin="round" fill="none"/>
        <path d="M 8.2240,6.1774 L 8.6680,6.1774 " stroke="#000000" stroke-width="0.1197" stroke-linecap="round" stroke-linejoin="round" fill="none"/>
        <text font-family="Arial" fill="#000000" style="white-space:pre;" font-weight="400" text-anchor="start" x="10.5153" y="6.6403" font-size="0.0977"><![CDATA[USB]]></text>
        <text font-family="Arial" fill="#000000" style="white-space:pre;" font-weight="400" text-anchor="start" x="9.9025" y="7.4705" font-size="0.0977"><![CDATA[USB]]></text>
        <text font-family="Arial" fill="#000000" style="white-space:pre;" font-weight="400" text-anchor="start" x="9.8670" y="7.5865" font-size="0.0977"><![CDATA[MGMT]]></text>
        <ellipse cx="12.9511" cy="10.4303" rx="0.2362" ry="0.2375" fill="#666666" stroke="#000000" stroke-width="0.1197" stroke-linecap="round" stroke-linejoin="round"/>
        <ellipse cx="12.9511" cy="10.4303" rx="0.2362" ry="0.2375" fill="none" stroke="#0A0A0A" stroke-width="0.1197" stroke-linecap="round" stroke-linejoin="round"/>
        <text font-family="Arial" fill="#000000" style="white-space:pre;" font-weight="400" text-anchor="start" x="17.4598" y="11.5881" font-size="0.1849"><![CDATA[13]]></text>
        <text font-family="Arial" fill="#000000" style="white-space:pre;" font-weight="400" text-anchor="start" x="18.4047" y="11.5881" font-size="0.1849"><![CDATA[11]]></text>
        <text font-family="Arial" fill="#000000" style="white-space:pre;" font-weight="400" text-anchor="start" x="18.4047" y="13.2404" font-size="0.1849"><![CDATA[12]]></text>
        <text font-family="Arial" fill="#000000" style="white-space:pre;" font-weight="400" text-anchor="start" x="17.4598" y="13.2404" font-size="0.1849"><![CDATA[14]]></text>
        <text font-family="Arial" fill="#000000" style="white-space:pre;" font-weight="400" text-anchor="start" x="19.1853" y="11.5881" font-size="0.1849"><![CDATA[9]]></text>
        <text font-family="Arial" fill="#000000" style="white-space:pre;" font-weight="400" text-anchor="start" x="19.9350" y="11.5881" font-size="0.1849"><![CDATA[7]]></text>
        <text font-family="Arial" fill="#000000" style="white-space:pre;" font-weight="400" text-anchor="start" x="20.6539" y="11.5881" font-size="0.1849"><![CDATA[5]]></text>
        <text font-family="Arial" fill="#000000" style="white-space:pre;" font-weight="400" text-anchor="start" x="21.3934" y="11.5881" font-size="0.1849"><![CDATA[3]]></text>
        <text font-family="Arial" fill="#000000" style="white-space:pre;" font-weight="400" text-anchor="start" x="22.1123" y="11.5881" font-size="0.1849"><![CDATA[1]]></text>
        <text font-family="Arial" fill="#000000" style="white-space:pre;" font-weight="400" text-anchor="start" x="22.9545" y="11.5881" font-size="0.1849"><![CDATA[WAN 1]]></text>
        <text font-family="Arial" fill="#000000" style="white-space:pre;" font-weight="400" text-anchor="start" x="19.1236" y="13.2404" font-size="0.1849"><![CDATA[10]]></text>
        <text font-family="Arial" fill="#000000" style="white-space:pre;" font-weight="400" text-anchor="start" x="19.9247" y="13.2404" font-size="0.1849"><![CDATA[8]]></text>
        <text font-family="Arial" fill="#000000" style="white-space:pre;" font-weight="400" text-anchor="start" x="20.6642" y="13.2404" font-size="0.1849"><![CDATA[6]]></text>
        <text font-family="Arial" fill="#000000" style="white-space:pre;" font-weight="400" text-anchor="start" x="21.4037" y="13.2404" font-size="0.1849"><![CDATA[4]]></text>
        <text font-family="Arial" fill="#000000" style="white-space:pre;" font-weight="400" text-anchor="start" x="22.1432" y="13.2404" font-size="0.1849"><![CDATA[2]]></text>
        <text font-family="Arial" fill="#000000" style="white-space:pre;" font-weight="400" text-anchor="start" x="22.9545" y="13.2404" font-size="0.1849"><![CDATA[WAN 2]]></text>
        <text font-family="Arial" fill="#000000" style="white-space:pre;" font-weight="400" text-anchor="start" x="14.2965" y="13.2344" font-size="0.1438"><![CDATA[DC+12V]]></text>
        <path d="M 50.4716,5.7776 L 50.4716,3.6527 L 51.3610,3.6527 L 51.3610,3.1527 L 51.7223,3.1527 L 51.7223,2.6527 L 52.7784,2.6527 L 52.7784,3.1527 L 53.1397,3.1527 L 53.1397,3.6527 L 54.0291,3.6527 L 54.0291,5.7776 L 50.4716,5.7776 Z" stroke="#161616" stroke-width="0.1197" stroke-linecap="round" stroke-linejoin="round" fill="#000000"/>
        <path d="M 50.4716,6.6943 L 50.4716,8.8192 L 51.3610,8.8192 L 51.3610,9.3192 L 51.7223,9.3192 L 51.7223,9.8192 L 52.7784,9.8192 L 52.7784,9.3192 L 53.1397,9.3192 L 53.1397,8.8192 L 54.0291,8.8192 L 54.0291,6.6943 L 50.4716,6.6943 Z" stroke="#161616" stroke-width="0.1197" stroke-linecap="round" stroke-linejoin="round" fill="#000000"/>
        <path d="M 44.5935,5.7776 L 44.5935,3.6527 L 45.4828,3.6527 L 45.4828,3.1527 L 45.8441,3.1527 L 45.8441,2.6527 L 46.9003,2.6527 L 46.9003,3.1527 L 47.2616,3.1527 L 47.2616,3.6527 L 48.1509,3.6527 L 48.1509,5.7776 L 44.5935,5.7776 Z" stroke="#161616" stroke-width="0.1197" stroke-linecap="round" stroke-linejoin="round" fill="#000000"/>
        <path d="M 44.5935,6.6943 L 44.5935,8.8192 L 45.4828,8.8192 L 45.4828,9.3192 L 45.8441,9.3192 L 45.8441,9.8192 L 46.9003,9.8192 L 46.9003,9.3192 L 47.2616,9.3192 L 47.2616,8.8192 L 48.1509,8.8192 L 48.1509,6.6943 L 44.5935,6.6943 Z" stroke="#161616" stroke-width="0.1197" stroke-linecap="round" stroke-linejoin="round" fill="#000000"/>
        <path d="M 40.6191,5.7776 L 40.6191,3.6527 L 41.5085,3.6527 L 41.5085,3.1527 L 41.8698,3.1527 L 41.8698,2.6527 L 42.9259,2.6527 L 42.9259,3.1527 L 43.2872,3.1527 L 43.2872,3.6527 L 44.1766,3.6527 L 44.1766,5.7776 L 40.6191,5.7776 Z" stroke="#161616" stroke-width="0.1197" stroke-linecap="round" stroke-linejoin="round" fill="#000000"/>
        <path d="M 40.6191,6.6943 L 40.6191,8.8192 L 41.5085,8.8192 L 41.5085,9.3192 L 41.8698,9.3192 L 41.8698,9.8192 L 42.9259,9.8192 L 42.9259,9.3192 L 43.2872,9.3192 L 43.2872,8.8192 L 44.1766,8.8192 L 44.1766,6.6943 L 40.6191,6.6943 Z" stroke="#161616" stroke-width="0.1197" stroke-linecap="round" stroke-linejoin="round" fill="#000000"/>
        <path d="M 36.5752,5.7776 L 36.5752,3.6527 L 37.4646,3.6527 L 37.4646,3.1527 L 37.8259,3.1527 L 37.8259,2.6527 L 38.8820,2.6527 L 38.8820,3.1527 L 39.2434,3.1527 L 39.2434,3.6527 L 40.1327,3.6527 L 40.1327,5.7776 L 36.5752,5.7776 Z" stroke="#161616" stroke-width="0.1197" stroke-linecap="round" stroke-linejoin="round" fill="#000000"/>
        <path d="M 36.5752,6.6943 L 36.5752,8.8192 L 37.4646,8.8192 L 37.4646,9.3192 L 37.8259,9.3192 L 37.8259,9.8192 L 38.8820,9.8192 L 38.8820,9.3192 L 39.2434,9.3192 L 39.2434,8.8192 L 40.1327,8.8192 L 40.1327,6.6943 L 36.5752,6.6943 Z" stroke="#161616" stroke-width="0.1197" stroke-linecap="round" stroke-linejoin="round" fill="#000000"/>
        <path d="M 32.6009,5.7776 L 32.6009,3.6527 L 33.4903,3.6527 L 33.4903,3.1527 L 33.8516,3.1527 L 33.8516,2.6527 L 34.9077,2.6527 L 34.9077,3.1527 L 35.2690,3.1527 L 35.2690,3.6527 L 36.1584,3.6527 L 36.1584,5.7776 L 32.6009,5.7776 Z" stroke="#161616" stroke-width="0.1197" stroke-linecap="round" stroke-linejoin="round" fill="#000000"/>
        <path d="M 32.6009,6.6943 L 32.6009,8.8192 L 33.4903,8.8192 L 33.4903,9.3192 L 33.8516,9.3192 L 33.8516,9.8192 L 34.9077,9.8192 L 34.9077,9.3192 L 35.2690,9.3192 L 35.2690,8.8192 L 36.1584,8.8192 L 36.1584,6.6943 L 32.6009,6.6943 Z" stroke="#161616" stroke-width="0.1197" stroke-linecap="round" stroke-linejoin="round" fill="#000000"/>
        <path d="M 28.5709,5.7776 L 28.5709,3.6527 L 29.4603,3.6527 L 29.4603,3.1527 L 29.8216,3.1527 L 29.8216,2.6527 L 30.8777,2.6527 L 30.8777,3.1527 L 31.2390,3.1527 L 31.2390,3.6527 L 32.1284,3.6527 L 32.1284,5.7776 L 28.5709,5.7776 Z" stroke="#161616" stroke-width="0.1197" stroke-linecap="round" stroke-linejoin="round" fill="#000000"/>
        <path d="M 28.5709,6.6943 L 28.5709,8.8192 L 29.4603,8.8192 L 29.4603,9.3192 L 29.8216,9.3192 L 29.8216,9.8192 L 30.8777,9.8192 L 30.8777,9.3192 L 31.2390,9.3192 L 31.2390,8.8192 L 32.1284,8.8192 L 32.1284,6.6943 L 28.5709,6.6943 Z" stroke="#161616" stroke-width="0.1197" stroke-linecap="round" stroke-linejoin="round" fill="#000000"/>
        <path d="M 24.5966,5.7776 L 24.5966,3.6527 L 25.4859,3.6527 L 25.4859,3.1527 L 25.8473,3.1527 L 25.8473,2.6527 L 26.9034,2.6527 L 26.9034,3.1527 L 27.2647,3.1527 L 27.2647,3.6527 L 28.1540,3.6527 L 28.1540,5.7776 L 24.5966,5.7776 Z" stroke="#161616" stroke-width="0.1197" stroke-linecap="round" stroke-linejoin="round" fill="#000000"/>
        <path d="M 24.5966,6.6943 L 24.5966,8.8192 L 25.4859,8.8192 L 25.4859,9.3192 L 25.8473,9.3192 L 25.8473,9.8192 L 26.9034,9.8192 L 26.9034,9.3192 L 27.2647,9.3192 L 27.2647,8.8192 L 28.1540,8.8192 L 28.1540,6.6943 L 24.5966,6.6943 Z" stroke="#161616" stroke-width="0.1197" stroke-linecap="round" stroke-linejoin="round" fill="#000000"/>
        <path d="M 19.4410,5.7776 L 19.4410,3.6527 L 20.3304,3.6527 L 20.3304,3.1527 L 20.6917,3.1527 L 20.6917,2.6527 L 21.7478,2.6527 L 21.7478,3.1527 L 22.1091,3.1527 L 22.1091,3.6527 L 22.9985,3.6527 L 22.9985,5.7776 L 19.4410,5.7776 Z" stroke="#161616" stroke-width="0.1197" stroke-linecap="round" stroke-linejoin="round" fill="#000000"/>
        <path d="M 19.4410,6.6943 L 19.4410,8.8192 L 20.3304,8.8192 L 20.3304,9.3192 L 20.6917,9.3192 L 20.6917,9.8192 L 21.7478,9.8192 L 21.7478,9.3192 L 22.1091,9.3192 L 22.1091,8.8192 L 22.9985,8.8192 L 22.9985,6.6943 L 19.4410,6.6943 Z" stroke="#161616" stroke-width="0.1197" stroke-linecap="round" stroke-linejoin="round" fill="#000000"/>
        <path d="M 11.5546,6.3036 L 11.5194,6.3036 L 11.5194,6.3153 L 11.4960,6.3153 L 11.4843,6.3269 L 11.4726,6.3269 L 11.4726,6.3386 L 11.4609,6.3386 L 11.4609,6.3502 L 11.4492,6.3502 L 11.4492,6.3619 L 11.4375,6.3735 L 11.4375,6.3968 L 11.4258,6.3968 L 11.4258,7.5387 L 11.4375,7.5387 L 11.4375,7.5620 L 11.4492,7.5737 L 11.4492,7.5853 L 11.4609,7.5853 L 11.4609,7.5970 L 11.4726,7.5970 L 11.4726,7.6086 L 11.4843,7.6086 L 11.4960,7.6203 L 11.5194,7.6203 L 11.5194,7.6319 L 14.4461,7.6319 L 14.4461,7.6203 L 14.4695,7.6203 L 14.4812,7.6086 L 14.4929,7.6086 L 14.4929,7.5970 L 14.5047,7.5970 L 14.5047,7.5853 L 14.5164,7.5853 L 14.5164,7.5737 L 14.5281,7.5620 L 14.5281,7.5387 L 14.5398,7.5387 L 14.5398,6.3968 L 14.5281,6.3968 L 14.5281,6.3735 L 14.5164,6.3619 L 14.5164,6.3502 L 14.5047,6.3502 L 14.5047,6.3386 L 14.4929,6.3386 L 14.4929,6.3269 L 14.4812,6.3269 L 14.4695,6.3153 L 14.4461,6.3153 L 14.4461,6.3036 L 11.5663,6.3036 L 11.5546,6.3036 Z" stroke="#000000" stroke-width="0.1197" stroke-linecap="round" stroke-linejoin="round" fill="#BFBFBF"/>
        <path d="M 11.6014,6.4085 L 11.5663,6.4085 L 11.5663,6.4201 L 11.5546,6.4201 L 11.5546,6.4318 L 11.5429,6.4318 L 11.5429,6.4434 L 11.5311,6.4434 L 11.5311,7.4921 L 11.5429,7.5037 L 11.5429,7.5154 L 11.5546,7.5154 L 11.5546,7.5270 L 11.5663,7.5270 L 11.5780,7.5387 L 14.3993,7.5387 L 14.3993,7.5270 L 14.4110,7.5270 L 14.4110,7.5154 L 14.4227,7.5154 L 14.4227,7.5037 L 14.4344,7.4921 L 14.4344,6.4434 L 14.4227,6.4434 L 14.4227,6.4318 L 14.4110,6.4201 L 14.3993,6.4201 L 14.3993,6.4085 L 11.6131,6.4085 L 11.6014,6.4085 Z" stroke="#333333" stroke-width="0.1197" stroke-linecap="round" stroke-linejoin="round" fill="#000000"/>
        <path d="M 12.2218,6.9911 L 11.9643,6.9911 L 11.9643,6.9328 L 12.2218,6.9328 L 12.2218,6.9911 Z" stroke="#000000" stroke-width="0.1197" stroke-linecap="round" stroke-linejoin="round" fill="#E2E2CC"/>
        <path d="M 12.8072,6.9911 L 12.5496,6.9911 L 12.5496,6.9328 L 12.8072,6.9328 L 12.8072,6.9911 Z" stroke="#000000" stroke-width="0.1197" stroke-linecap="round" stroke-linejoin="round" fill="#E2E2CC"/>
        <path d="M 13.3808,6.9911 L 13.1233,6.9911 L 13.1233,6.9328 L 13.3808,6.9328 L 13.3808,6.9911 Z" stroke="#000000" stroke-width="0.1197" stroke-linecap="round" stroke-linejoin="round" fill="#E2E2CC"/>
        <path d="M 13.9779,6.9911 L 13.7203,6.9911 L 13.7203,6.9328 L 13.9779,6.9328 L 13.9779,6.9911 Z" stroke="#000000" stroke-width="0.1197" stroke-linecap="round" stroke-linejoin="round" fill="#E2E2CC"/>
        <path d="M 14.2588,6.6299 L 14.2588,6.6066 L 14.2471,6.5833 L 14.2237,6.5716 L 11.7419,6.5716 L 11.7185,6.5833 L 11.7067,6.6066 L 11.7067,6.8979 L 11.7185,6.9212 L 11.7419,6.9328 L 14.2237,6.9328 L 14.2471,6.9212 L 14.2588,6.8979 L 14.2588,6.8745 L 14.2588,6.6299 Z" stroke="#000000" stroke-width="0.1197" stroke-linecap="round" stroke-linejoin="round" fill="#7F7F7F"/>
        <path d="M 14.1652,6.7464 L 14.1535,6.6998 L 14.1066,6.6532 L 14.0598,6.6415 L 11.9058,6.6415 L 11.8589,6.6532 L 11.8121,6.6998 L 11.8004,6.7464 L 11.8121,6.7930 L 11.8589,6.8396 L 11.9058,6.8512 L 14.0598,6.8512 L 14.1066,6.8396 L 14.1535,6.7930 L 14.1652,6.7464 Z" stroke="#999999" stroke-width="0.1197" stroke-linecap="round" stroke-linejoin="round" fill="#999999"/>
        <path d="M 11.5546,8.2844 L 11.5194,8.2844 L 11.5194,8.2961 L 11.4960,8.2961 L 11.4843,8.3077 L 11.4726,8.3077 L 11.4726,8.3194 L 11.4609,8.3194 L 11.4609,8.3310 L 11.4492,8.3310 L 11.4492,8.3427 L 11.4375,8.3543 L 11.4375,8.3776 L 11.4258,8.3776 L 11.4258,9.5195 L 11.4375,9.5195 L 11.4375,9.5428 L 11.4492,9.5545 L 11.4492,9.5661 L 11.4609,9.5661 L 11.4609,9.5778 L 11.4726,9.5778 L 11.4726,9.5894 L 11.4843,9.5894 L 11.4960,9.6011 L 11.5194,9.6011 L 11.5194,9.6127 L 14.4461,9.6127 L 14.4461,9.6011 L 14.4695,9.6011 L 14.4812,9.5894 L 14.4929,9.5894 L 14.4929,9.5778 L 14.5047,9.5778 L 14.5047,9.5661 L 14.5164,9.5661 L 14.5164,9.5545 L 14.5281,9.5428 L 14.5281,9.5195 L 14.5398,9.5195 L 14.5398,8.3776 L 14.5281,8.3776 L 14.5281,8.3543 L 14.5164,8.3427 L 14.5164,8.3310 L 14.5047,8.3310 L 14.5047,8.3194 L 14.4929,8.3194 L 14.4929,8.3077 L 14.4812,8.3077 L 14.4695,8.2961 L 14.4461,8.2961 L 14.4461,8.2844 L 11.5663,8.2844 L 11.5546,8.2844 Z" stroke="#000000" stroke-width="0.1197" stroke-linecap="round" stroke-linejoin="round" fill="#BFBFBF"/>
        <path d="M 11.6014,8.3893 L 11.5663,8.3893 L 11.5663,8.4009 L 11.5546,8.4009 L 11.5546,8.4126 L 11.5429,8.4126 L 11.5429,8.4242 L 11.5311,8.4242 L 11.5311,9.4729 L 11.5429,9.4845 L 11.5429,9.4962 L 11.5546,9.4962 L 11.5546,9.5079 L 11.5663,9.5079 L 11.5780,9.5195 L 14.3993,9.5195 L 14.3993,9.5079 L 14.4110,9.5079 L 14.4110,9.4962 L 14.4227,9.4962 L 14.4227,9.4845 L 14.4344,9.4729 L 14.4344,8.4242 L 14.4227,8.4242 L 14.4227,8.4126 L 14.4110,8.4009 L 14.3993,8.4009 L 14.3993,8.3893 L 11.6131,8.3893 L 11.6014,8.3893 Z" stroke="#333333" stroke-width="0.1197" stroke-linecap="round" stroke-linejoin="round" fill="#000000"/>
        <path d="M 12.2218,8.9719 L 11.9643,8.9719 L 11.9643,8.9136 L 12.2218,8.9136 L 12.2218,8.9719 Z" stroke="#000000" stroke-width="0.1197" stroke-linecap="round" stroke-linejoin="round" fill="#E2E2CC"/>
        <path d="M 12.8072,8.9719 L 12.5496,8.9719 L 12.5496,8.9136 L 12.8072,8.9136 L 12.8072,8.9719 Z" stroke="#000000" stroke-width="0.1197" stroke-linecap="round" stroke-linejoin="round" fill="#E2E2CC"/>
        <path d="M 13.3808,8.9719 L 13.1233,8.9719 L 13.1233,8.9136 L 13.3808,8.9136 L 13.3808,8.9719 Z" stroke="#000000" stroke-width="0.1197" stroke-linecap="round" stroke-linejoin="round" fill="#E2E2CC"/>
        <path d="M 13.9779,8.9719 L 13.7203,8.9719 L 13.7203,8.9136 L 13.9779,8.9136 L 13.9779,8.9719 Z" stroke="#000000" stroke-width="0.1197" stroke-linecap="round" stroke-linejoin="round" fill="#E2E2CC"/>
        <path d="M 14.2588,8.6107 L 14.2588,8.5874 L 14.2471,8.5641 L 14.2237,8.5524 L 11.7419,8.5524 L 11.7185,8.5641 L 11.7067,8.5874 L 11.7067,8.8787 L 11.7185,8.9020 L 11.7419,8.9136 L 14.2237,8.9136 L 14.2471,8.9020 L 14.2588,8.8787 L 14.2588,8.8554 L 14.2588,8.6107 Z" stroke="#000000" stroke-width="0.1197" stroke-linecap="round" stroke-linejoin="round" fill="#7F7F7F"/>
        <path d="M 14.1652,8.7272 L 14.1535,8.6806 L 14.1066,8.6340 L 14.0598,8.6223 L 11.9058,8.6223 L 11.8589,8.6340 L 11.8121,8.6806 L 11.8004,8.7272 L 11.8121,8.7738 L 11.8589,8.8204 L 11.9058,8.8320 L 14.0598,8.8320 L 14.1066,8.8204 L 14.1535,8.7738 L 14.1652,8.7272 Z" stroke="#999999" stroke-width="0.1197" stroke-linecap="round" stroke-linejoin="round" fill="#999999"/>
        <path d="M 7.9627,8.7916 L 7.9627,8.7279 L 7.9831,8.7279 L 7.9831,8.6854 L 8.0035,8.6642 L 8.0035,8.6429 L 8.0239,8.6429 L 8.0239,8.6217 L 8.0444,8.6217 L 8.0444,8.6004 L 8.0648,8.6004 L 8.0852,8.5792 L 8.1056,8.5792 L 8.1260,8.5580 L 10.1677,8.5580 L 10.1882,8.5792 L 10.2086,8.5792 L 10.2290,8.6004 L 10.2494,8.6004 L 10.2494,8.6217 L 10.2698,8.6217 L 10.2698,8.6429 L 10.2902,8.6429 L 10.2902,8.6642 L 10.3107,8.6854 L 10.3107,8.7279 L 10.3311,8.7279 L 10.3311,9.1738 L 10.1677,9.3437 L 10.1677,9.6835 L 10.1473,9.7047 L 10.1473,9.7259 L 10.1269,9.7259 L 10.1269,9.7472 L 10.1065,9.7472 L 10.1065,9.7684 L 10.0861,9.7684 L 10.0861,9.7896 L 10.0452,9.7896 L 10.0452,9.8109 L 8.2485,9.8109 L 8.2485,9.7896 L 8.2077,9.7896 L 8.2077,9.7684 L 8.1873,9.7684 L 8.1873,9.7472 L 8.1669,9.7472 L 8.1669,9.7259 L 8.1464,9.7259 L 8.1464,9.7047 L 8.1260,9.6835 L 8.1260,9.3437 L 7.9627,9.1738 L 7.9627,8.8128 L 7.9627,8.7916 Z" stroke="#7F7F7F" stroke-width="0.1197" stroke-linecap="round" stroke-linejoin="round" fill="#BFBFBF"/>
        <path d="M 10.2494,9.1526 L 10.0861,9.3225 L 10.0861,9.6410 L 10.0657,9.6622 L 10.0657,9.6835 L 10.0452,9.6835 L 10.0248,9.7047 L 10.0044,9.7047 L 9.9840,9.7259 L 8.3098,9.7259 L 8.3098,9.7047 L 8.2689,9.7047 L 8.2485,9.6835 L 8.2281,9.6835 L 8.2281,9.6622 L 8.2077,9.6410 L 8.2077,9.3225 L 8.0444,9.1526 L 8.0444,8.7916 L 8.0648,8.7916 L 8.0648,8.7491 L 8.0852,8.7491 L 8.0852,8.7066 L 8.1056,8.7066 L 8.1056,8.6854 L 8.1464,8.6854 L 8.1464,8.6642 L 8.1669,8.6642 L 8.1873,8.6429 L 10.1065,8.6429 L 10.1269,8.6642 L 10.1473,8.6642 L 10.1473,8.6854 L 10.1882,8.6854 L 10.1882,8.7066 L 10.2086,8.7066 L 10.2086,8.7491 L 10.2290,8.7491 L 10.2290,8.7916 L 10.2494,8.7916 L 10.2494,9.1313 L 10.2494,9.1526 Z" stroke="#000000" stroke-width="0.1197" stroke-linecap="round" stroke-linejoin="round" fill="#161616"/>
        <path d="M 9.9431,9.2375 L 9.9431,9.1950 L 9.9227,9.1526 L 9.8819,9.1313 L 8.4323,9.1313 L 8.3914,9.1526 L 8.3710,9.1950 L 8.3710,9.5348 L 8.3914,9.5773 L 8.4323,9.5985 L 9.8819,9.5985 L 9.9227,9.5773 L 9.9431,9.5348 L 9.9431,9.4923 L 9.9431,9.2375 Z" stroke="#000000" stroke-width="0.1197" stroke-linecap="round" stroke-linejoin="round" fill="#CCCCCC"/>
        <path d="M 8.7385,9.0676 L 8.5344,9.0676 L 8.5344,9.1313 L 8.7385,9.1313 L 8.7385,9.0676 Z" stroke="#000000" stroke-width="0.1197" stroke-linecap="round" stroke-linejoin="round" fill="#D6D6B1"/>
        <path d="M 9.0652,9.0676 L 8.8610,9.0676 L 8.8610,9.1313 L 9.0652,9.1313 L 9.0652,9.0676 Z" stroke="#000000" stroke-width="0.1197" stroke-linecap="round" stroke-linejoin="round" fill="#D6D6B1"/>
        <path d="M 9.4123,9.0676 L 9.2081,9.0676 L 9.2081,9.1313 L 9.4123,9.1313 L 9.4123,9.0676 Z" stroke="#000000" stroke-width="0.1197" stroke-linecap="round" stroke-linejoin="round" fill="#D6D6B1"/>
        <path d="M 9.7390,9.0676 L 9.5348,9.0676 L 9.5348,9.1313 L 9.7390,9.1313 L 9.7390,9.0676 Z" stroke="#000000" stroke-width="0.1197" stroke-linecap="round" stroke-linejoin="round" fill="#D6D6B1"/>
        <ellipse cx="8.3591" cy="2.8952" rx="1.1993" ry="1.2048" fill="#666666" stroke="#000000" stroke-width="0.1197" stroke-linecap="round" stroke-linejoin="round"/>
        <ellipse cx="8.3591" cy="2.8952" rx="1.1993" ry="1.2048" fill="none" stroke="#000000" stroke-width="0.1197" stroke-linecap="round" stroke-linejoin="round"/>
        <ellipse cx="8.3591" cy="2.8952" rx="1.0919" ry="1.0970" fill="#CCCC9B" stroke="#000000" stroke-width="0.1197" stroke-linecap="round" stroke-linejoin="round"/>
        <ellipse cx="8.3591" cy="2.8952" rx="1.0919" ry="1.0970" fill="none" stroke="#CCCC9B" stroke-width="0.1197" stroke-linecap="round" stroke-linejoin="round"/>
        <path d="M 7.5178,2.7694 L 7.4820,2.7694 L 7.4462,2.8053 L 7.4462,2.8413 L 7.4104,2.8413 L 7.4104,3.0571 L 7.4462,3.0571 L 7.4462,3.0930 L 7.4820,3.1290 L 8.2338,3.1290 L 8.2338,3.9203 L 8.2696,3.9203 L 8.2696,3.9562 L 8.3054,3.9562 L 8.3054,3.9922 L 8.5202,3.9922 L 8.5202,3.9562 L 8.5560,3.9562 L 8.5560,3.9203 L 8.5918,3.9203 L 8.5918,3.1290 L 9.3794,3.1290 L 9.3794,3.0930 L 9.4152,3.0930 L 9.4152,3.0571 L 9.4510,3.0571 L 9.4510,2.8413 L 9.4152,2.8413 L 9.4152,2.8053 L 9.3794,2.8053 L 9.3794,2.7694 L 8.5918,2.7694 L 8.5918,2.0141 L 8.5560,1.9781 L 8.5202,1.9781 L 8.5202,1.9421 L 8.3054,1.9421 L 8.3054,1.9781 L 8.2696,1.9781 L 8.2338,2.0141 L 8.2338,2.7694 L 7.5536,2.7694 L 7.5178,2.7694 Z" stroke="#161616" stroke-width="0.1197" stroke-linecap="round" stroke-linejoin="round" fill="#494949"/>
        <path d="M 7.3746,2.8772 L 7.3746,3.0571 L 7.4104,3.0930 L 7.4462,3.0930 L 7.4462,3.1290 L 8.2338,3.1290 L 8.2338,3.9562 L 8.2696,3.9922 L 8.3054,3.9922 L 8.3054,4.0281 L 8.4128,4.0281 L 8.4486,4.0281 " stroke="#BFBFBF" stroke-width="0.1197" stroke-linecap="round" stroke-linejoin="round" fill="none"/>
        <path d="M 8.2338,2.0141 L 8.2338,2.7334 L 8.2338,2.7694 " stroke="#BFBFBF" stroke-width="0.1197" stroke-linecap="round" stroke-linejoin="round" fill="none"/>
        <path d="M 5.9103,5.0672 L 5.9103,9.8265 L 3.9771,9.8265 L 3.9771,5.0672 L 4.3499,5.0672 L 4.3499,5.4452 L 5.5375,5.4452 L 5.5375,5.0672 L 5.9103,5.0672 Z" stroke="#000000" stroke-width="0.1197" stroke-linecap="round" stroke-linejoin="round" fill="#000000"/>
        <path d="M 5.8551,5.5851 L 4.0323,5.5851 L 4.0323,9.7565 L 5.8551,9.7565 L 5.8551,5.5851 Z" stroke="#000000" stroke-width="0.1197" stroke-linecap="round" stroke-linejoin="round" fill="#EFEFEF"/>
        <path d="M 5.6618,7.8388 L 4.2256,7.8388 L 4.2256,9.2946 L 5.6618,9.2946 L 5.6618,7.8388 Z" stroke="#000000" stroke-width="0.1197" stroke-linecap="round" stroke-linejoin="round" fill="#000000"/>
        <ellipse cx="4.8816" cy="8.5107" rx="0.1174" ry="0.1260" fill="#BFBFBF" stroke="#000000" stroke-width="0.1197" stroke-linecap="round" stroke-linejoin="round"/>
        <ellipse cx="4.8816" cy="8.5107" rx="0.1174" ry="0.1260" fill="none" stroke="#000000" stroke-width="0.1197" stroke-linecap="round" stroke-linejoin="round"/>
        <path d="M 5.6618,6.0751 L 4.2256,6.0751 L 4.2256,7.1669 L 4.5847,7.5309 L 5.3304,7.5309 L 5.6618,7.1949 L 5.6618,6.0751 Z" stroke="#000000" stroke-width="0.1197" stroke-linecap="round" stroke-linejoin="round" fill="#000000"/>
        <ellipse cx="4.8816" cy="6.7400" rx="0.1174" ry="0.1190" fill="#BFBFBF" stroke="#000000" stroke-width="0.1197" stroke-linecap="round" stroke-linejoin="round"/>
        <ellipse cx="4.8816" cy="6.7400" rx="0.1174" ry="0.1190" fill="none" stroke="#000000" stroke-width="0.1197" stroke-linecap="round" stroke-linejoin="round"/>
        <path d="M 0.3641,6.0315 L 0.0000,6.0315 L 0.0000,6.3994 L 0.3641,6.3994 L 0.3641,6.0315 " stroke="none" stroke-width="0.0" fill="none"/>
        <path d="M 66.0214,6.0315 L 65.6573,6.0315 L 65.6573,6.3994 L 66.0214,6.3994 L 66.0214,6.0315 " stroke="none" stroke-width="0.0" fill="none"/>
      </g>
      <!--emf-blob end-->
    </g>
  </g>
</svg>
