<svg xmlns="http://www.w3.org/2000/svg" xmlns:xlink="http://www.w3.org/1999/xlink" version="1.1" width="3.4032000000" height="0.6756000000" viewBox="0 0 61.2567 12.1606">
  <title><![CDATA[FGR-60F/-3G4G]]></title>
  <g transform=" scale(4.000000) ">
    <!--converted by libvisio2svg-->
    <g transform=" translate(0.000000,0.000000) ">
      <!--emf-blob start-->
      <g transform="translate(-0.0000, -0.0000)">
        <path d="M 27.7125,1.7154 L 27.7125,2.7583 L 28.6436,2.7583 " stroke="#000000" stroke-width="0.1201" stroke-linecap="round" stroke-linejoin="round" fill="none"/>
        <path d="M 28.6436,1.7154 L 30.4813,1.7154 " stroke="#000000" stroke-width="0.1201" stroke-linecap="round" stroke-linejoin="round" fill="none"/>
        <path d="M 29.5502,1.7154 L 29.5502,2.7583 " stroke="#000000" stroke-width="0.1201" stroke-linecap="round" stroke-linejoin="round" fill="none"/>
        <path d="M 30.9469,1.7154 L 30.9469,2.7583 " stroke="#000000" stroke-width="0.1201" stroke-linecap="round" stroke-linejoin="round" fill="none"/>
        <path d="M 30.9469,1.7154 L 30.9469,2.7583 " stroke="#000000" stroke-width="0.1201" stroke-linecap="round" stroke-linejoin="round" fill="none"/>
        <path d="M 31.8535,2.7583 L 31.8535,1.7154 L 32.7846,2.7583 L 33.7157,1.7154 L 33.7157,2.7583 " stroke="#000000" stroke-width="0.1201" stroke-linecap="round" stroke-linejoin="round" fill="none"/>
        <path d="M 34.1567,2.7583 L 35.0878,1.7154 L 36.0189,2.7583 " stroke="#000000" stroke-width="0.1201" stroke-linecap="round" stroke-linejoin="round" fill="none"/>
        <path d="M 34.4018,2.4976 L 35.7739,2.4976 " stroke="#000000" stroke-width="0.1201" stroke-linecap="round" stroke-linejoin="round" fill="none"/>
        <path d="M 24.9437,2.7583 L 25.8748,1.7154 L 26.8059,2.7583 " stroke="#000000" stroke-width="0.1201" stroke-linecap="round" stroke-linejoin="round" fill="none"/>
        <path d="M 25.1888,2.4976 L 26.5609,2.4976 " stroke="#000000" stroke-width="0.1201" stroke-linecap="round" stroke-linejoin="round" fill="none"/>
        <path d="M 61.2005,0.0280 L 0.0281,0.0280 L 0.0281,12.0752 L 61.2005,12.0752 L 61.2005,0.0280 Z" stroke="#000000" stroke-width="0.1201" stroke-linecap="round" stroke-linejoin="round" fill="#EAEAEA"/>
        <path d="M 35.6745,5.5753 L 17.7248,5.5753 L 17.7248,9.5257 L 35.6745,9.5257 L 35.6745,5.5753 Z" stroke="#000000" stroke-width="0.1201" stroke-linecap="round" stroke-linejoin="round" fill="#000000"/>
        <path d="M 35.6464,5.6033 L 17.7529,5.6033 L 17.7529,9.4977 L 35.6464,9.4977 L 35.6464,5.6033 Z" stroke="#000000" stroke-width="0.1201" stroke-linecap="round" stroke-linejoin="round" fill="#DDDDDD"/>
        <path d="M 41.7608,5.5753 L 37.1926,5.5753 L 37.1926,9.5257 L 41.7608,9.5257 L 41.7608,5.5753 Z" stroke="#000000" stroke-width="0.1201" stroke-linecap="round" stroke-linejoin="round" fill="#000000"/>
        <path d="M 41.7327,5.6033 L 37.2207,5.6033 L 37.2207,9.4977 L 41.7327,9.4977 L 41.7327,5.6033 Z" stroke="#000000" stroke-width="0.1201" stroke-linecap="round" stroke-linejoin="round" fill="#DDDDDD"/>
        <path d="M 47.2849,5.5753 L 42.7166,5.5753 L 42.7166,9.5257 L 47.2849,9.5257 L 47.2849,5.5753 Z" stroke="#000000" stroke-width="0.1201" stroke-linecap="round" stroke-linejoin="round" fill="#000000"/>
        <path d="M 47.2568,5.6033 L 42.7448,5.6033 L 42.7448,9.4977 L 47.2568,9.4977 L 47.2568,5.6033 Z" stroke="#000000" stroke-width="0.1201" stroke-linecap="round" stroke-linejoin="round" fill="#DDDDDD"/>
        <path d="M 57.0680,9.5257 L 48.3813,9.5257 L 48.3813,6.2197 L 57.0680,6.2197 L 57.0680,9.5257 Z" stroke="#000000" stroke-width="0.1201" stroke-linecap="round" stroke-linejoin="round" fill="#000000"/>
        <path d="M 56.9836,9.4416 L 48.4656,9.4416 L 48.4656,6.3038 L 56.9836,6.3038 L 56.9836,9.4416 Z" stroke="#000000" stroke-width="0.1201" stroke-linecap="round" stroke-linejoin="round" fill="#EFEFEF"/>
        <path d="M 49.7166,6.5279 L 49.7166,6.3038 L 51.5720,6.3038 L 51.5720,6.5279 L 52.6403,6.5279 L 52.6403,9.2595 L 48.6483,9.2595 L 48.6483,6.5279 L 49.7166,6.5279 Z" stroke="#000000" stroke-width="0.1201" stroke-linecap="round" stroke-linejoin="round" fill="#333333"/>
        <path d="M 49.8009,6.6540 L 49.8009,6.5139 L 49.8150,6.4999 L 49.8150,6.4859 L 49.8291,6.4719 L 49.8291,6.4578 L 49.8431,6.4578 L 49.8431,6.4438 L 49.8572,6.4438 L 49.8712,6.4298 L 49.8853,6.4298 L 49.8993,6.4158 L 51.4033,6.4158 L 51.4174,6.4298 L 51.4315,6.4298 L 51.4455,6.4438 L 51.4596,6.4438 L 51.4596,6.4578 L 51.4736,6.4578 L 51.4736,6.4719 L 51.4877,6.4859 L 51.4877,6.4999 L 51.5017,6.5139 L 51.5017,6.6540 L 49.8150,6.6540 L 49.8009,6.6540 Z" stroke="#000000" stroke-width="0.1201" stroke-linecap="round" stroke-linejoin="round" fill="#EFEFEF"/>
        <path d="M 53.8772,6.5279 L 53.8772,6.3038 L 55.7326,6.3038 L 55.7326,6.5279 L 56.8009,6.5279 L 56.8009,9.2595 L 52.8090,9.2595 L 52.8090,6.5279 L 53.8772,6.5279 Z" stroke="#000000" stroke-width="0.1201" stroke-linecap="round" stroke-linejoin="round" fill="#333333"/>
        <path d="M 53.9616,6.6540 L 53.9616,6.5139 L 53.9756,6.4999 L 53.9756,6.4859 L 53.9897,6.4719 L 53.9897,6.4578 L 54.0037,6.4578 L 54.0037,6.4438 L 54.0178,6.4438 L 54.0318,6.4298 L 54.0459,6.4298 L 54.0600,6.4158 L 55.5640,6.4158 L 55.5780,6.4298 L 55.5921,6.4298 L 55.6061,6.4438 L 55.6202,6.4438 L 55.6202,6.4578 L 55.6342,6.4578 L 55.6342,6.4719 L 55.6483,6.4859 L 55.6483,6.4999 L 55.6624,6.5139 L 55.6624,6.6540 L 53.9756,6.6540 L 53.9616,6.6540 Z" stroke="#000000" stroke-width="0.1201" stroke-linecap="round" stroke-linejoin="round" fill="#EFEFEF"/>
        <path d="M 16.9377,5.5753 L 12.3694,5.5753 L 12.3694,9.5257 L 16.9377,9.5257 L 16.9377,5.5753 Z" stroke="#000000" stroke-width="0.1201" stroke-linecap="round" stroke-linejoin="round" fill="#000000"/>
        <path d="M 16.9095,5.6033 L 12.3975,5.6033 L 12.3975,9.4977 L 16.9095,9.4977 L 16.9095,5.6033 Z" stroke="#000000" stroke-width="0.1201" stroke-linecap="round" stroke-linejoin="round" fill="#DDDDDD"/>
        <ellipse cx="44.2086" cy="2.1356" rx="0.6708" ry="0.6697" fill="#BFBFBF" stroke="#000000" stroke-width="0.1201" stroke-linecap="round" stroke-linejoin="round"/>
        <ellipse cx="44.2086" cy="2.1356" rx="0.6708" ry="0.6697" fill="none" stroke="#7F7F7F" stroke-width="0.1201" stroke-linecap="round" stroke-linejoin="round"/>
        <ellipse cx="49.4990" cy="2.1356" rx="0.6708" ry="0.6697" fill="#BFBFBF" stroke="#000000" stroke-width="0.1201" stroke-linecap="round" stroke-linejoin="round"/>
        <ellipse cx="49.4990" cy="2.1356" rx="0.6708" ry="0.6697" fill="none" stroke="#7F7F7F" stroke-width="0.1201" stroke-linecap="round" stroke-linejoin="round"/>
        <text font-family="Arial" fill="#000000" style="white-space:pre;" font-weight="400" text-anchor="start" x="60.2189" y="3.7259" font-size="0.4050"><![CDATA[FortiGate Rugged 60F 3G4G]]></text>
        <text font-family="Arial" fill="#000000" style="white-space:pre;" font-weight="400" text-anchor="start" x="50.7266" y="4.7240" font-size="0.2784"><![CDATA[BYPASS]]></text>
        <text font-family="Arial" fill="#000000" style="white-space:pre;" font-weight="400" text-anchor="start" x="50.7266" y="5.2042" font-size="0.2784"><![CDATA[STATUS]]></text>
        <text font-family="Arial" fill="#000000" style="white-space:pre;" font-weight="400" text-anchor="start" x="50.7266" y="5.6844" font-size="0.2784"><![CDATA[HA]]></text>
        <text font-family="Arial" fill="#000000" style="white-space:pre;" font-weight="400" text-anchor="start" x="50.7266" y="6.1646" font-size="0.2784"><![CDATA[POWER]]></text>
        <text font-family="Arial" fill="#000000" style="white-space:pre;" font-weight="400" text-anchor="start" x="54.8020" y="6.7384" font-size="0.3544"><![CDATA[CONSOLE]]></text>
        <path d="M 21.9666,6.0138 L 21.2063,6.0138 L 21.2063,6.3248 L 21.9666,6.3248 L 21.9666,6.0138 Z" stroke="#000000" stroke-width="0.1201" stroke-linecap="round" stroke-linejoin="round" fill="#83FF00"/>
        <path d="M 19.1563,6.0138 L 18.3960,6.0138 L 18.3960,6.3248 L 19.1563,6.3248 L 19.1563,6.0138 Z" stroke="#000000" stroke-width="0.1201" stroke-linecap="round" stroke-linejoin="round" fill="#83FF00"/>
        <text font-family="Arial" fill="#000000" style="white-space:pre;" font-weight="400" text-anchor="start" x="23.3242" y="8.7251" font-size="0.1901"><![CDATA[1]]></text>
        <path d="M 26.2975,6.0138 L 25.5372,6.0138 L 25.5372,6.3248 L 26.2975,6.3248 L 26.2975,6.0138 Z" stroke="#000000" stroke-width="0.1201" stroke-linecap="round" stroke-linejoin="round" fill="#83FF00"/>
        <path d="M 23.4872,6.0138 L 22.7269,6.0138 L 22.7269,6.3248 L 23.4872,6.3248 L 23.4872,6.0138 Z" stroke="#000000" stroke-width="0.1201" stroke-linecap="round" stroke-linejoin="round" fill="#83FF00"/>
        <text font-family="Arial" fill="#000000" style="white-space:pre;" font-weight="400" text-anchor="start" x="28.7005" y="8.7251" font-size="0.1901"><![CDATA[2]]></text>
        <path d="M 30.6284,6.0138 L 29.8681,6.0138 L 29.8681,6.3248 L 30.6284,6.3248 L 30.6284,6.0138 Z" stroke="#000000" stroke-width="0.1201" stroke-linecap="round" stroke-linejoin="round" fill="#83FF00"/>
        <path d="M 27.8180,6.0138 L 27.0578,6.0138 L 27.0578,6.3248 L 27.8180,6.3248 L 27.8180,6.0138 Z" stroke="#000000" stroke-width="0.1201" stroke-linecap="round" stroke-linejoin="round" fill="#83FF00"/>
        <text font-family="Arial" fill="#000000" style="white-space:pre;" font-weight="400" text-anchor="start" x="34.0768" y="8.7251" font-size="0.1901"><![CDATA[3]]></text>
        <path d="M 34.9592,6.0138 L 34.1989,6.0138 L 34.1989,6.3248 L 34.9592,6.3248 L 34.9592,6.0138 Z" stroke="#000000" stroke-width="0.1201" stroke-linecap="round" stroke-linejoin="round" fill="#83FF00"/>
        <path d="M 32.1489,6.0138 L 31.3886,6.0138 L 31.3886,6.3248 L 32.1489,6.3248 L 32.1489,6.0138 Z" stroke="#000000" stroke-width="0.1201" stroke-linecap="round" stroke-linejoin="round" fill="#83FF00"/>
        <text font-family="Arial" fill="#000000" style="white-space:pre;" font-weight="400" text-anchor="start" x="39.4530" y="8.7251" font-size="0.1901"><![CDATA[4]]></text>
        <path d="M 41.2587,6.0138 L 40.4984,6.0138 L 40.4984,6.3248 L 41.2587,6.3248 L 41.2587,6.0138 Z" stroke="#000000" stroke-width="0.1201" stroke-linecap="round" stroke-linejoin="round" fill="#83FF00"/>
        <path d="M 38.4484,6.0138 L 37.6881,6.0138 L 37.6881,6.3248 L 38.4484,6.3248 L 38.4484,6.0138 Z" stroke="#000000" stroke-width="0.1201" stroke-linecap="round" stroke-linejoin="round" fill="#83FF00"/>
        <text font-family="Arial" fill="#000000" style="white-space:pre;" font-weight="400" text-anchor="start" x="47.0694" y="8.7251" font-size="0.1901"><![CDATA[WAN1]]></text>
        <path d="M 46.7707,6.0138 L 46.0104,6.0138 L 46.0104,6.3248 L 46.7707,6.3248 L 46.7707,6.0138 Z" stroke="#000000" stroke-width="0.1201" stroke-linecap="round" stroke-linejoin="round" fill="#83FF00"/>
        <path d="M 43.9604,6.0138 L 43.2001,6.0138 L 43.2001,6.3248 L 43.9604,6.3248 L 43.9604,6.0138 Z" stroke="#000000" stroke-width="0.1201" stroke-linecap="round" stroke-linejoin="round" fill="#83FF00"/>
        <text font-family="Arial" fill="#000000" style="white-space:pre;" font-weight="400" text-anchor="start" x="53.9119" y="8.7251" font-size="0.1901"><![CDATA[WAN2]]></text>
        <text font-family="Arial" fill="#000000" style="white-space:pre;" font-weight="400" text-anchor="start" x="55.3238" y="8.7251" font-size="0.1901"><![CDATA[SFP1]]></text>
        <text font-family="Arial" fill="#000000" style="white-space:pre;" font-weight="400" text-anchor="start" x="56.3285" y="8.7251" font-size="0.1901"><![CDATA[SFP2]]></text>
        <path d="M 24.8801,2.8427 L 24.8609,2.8427 L 24.8512,2.8332 L 24.8416,2.8332 L 24.8127,2.8046 L 24.8127,2.7951 L 24.8031,2.7856 L 24.8031,1.6828 L 24.8127,1.6733 L 24.8127,1.6638 L 24.8223,1.6543 L 24.8320,1.6543 L 24.8320,1.6448 L 24.8416,1.6352 L 24.8512,1.6352 L 24.8609,1.6257 L 26.1703,1.6257 L 26.1800,1.6352 L 26.1896,1.6352 L 26.2185,1.6638 L 26.2185,1.6733 L 26.2281,1.6828 L 26.2281,1.9014 L 26.2185,1.9014 L 26.2185,1.8919 L 26.2089,1.8919 L 26.2089,1.8824 L 26.1992,1.8824 L 26.1992,1.8729 L 26.1800,1.8729 L 26.1800,1.8634 L 25.1208,1.8634 L 25.1208,1.8729 L 25.1016,1.8729 L 25.1016,1.8824 L 25.0919,1.8824 L 25.0919,1.9014 L 25.0823,1.9014 L 25.0823,2.8046 L 25.0919,2.8046 L 25.0919,2.8236 L 25.1016,2.8236 L 25.1016,2.8332 L 25.1112,2.8332 L 25.1112,2.8427 L 24.8897,2.8427 L 24.8801,2.8427 Z" stroke="#000000" stroke-width="0.1201" stroke-linecap="round" stroke-linejoin="round" fill="#000000"/>
        <path d="M 26.1318,2.1391 L 25.1786,2.1391 L 25.1786,2.1296 L 25.1593,2.1296 L 25.1593,2.1201 L 25.1497,2.1201 L 25.1497,2.1011 L 25.1401,2.1011 L 25.1401,2.3388 L 25.1497,2.3388 L 25.1497,2.3578 L 25.1593,2.3578 L 25.1593,2.3673 L 25.1786,2.3673 L 25.1786,2.3768 L 26.1511,2.3768 L 26.1703,2.3578 L 26.1800,2.3578 L 26.1992,2.3388 L 26.1992,2.3293 L 26.2089,2.3198 L 26.2089,2.3103 L 26.2185,2.3008 L 26.2185,2.2817 L 26.2281,2.2722 L 26.2281,2.2437 L 26.2185,2.2342 L 26.2185,2.2057 L 26.1992,2.1867 L 26.1992,2.1772 L 26.1896,2.1676 L 26.1800,2.1676 L 26.1800,2.1581 L 26.1703,2.1581 L 26.1607,2.1486 L 26.1511,2.1486 L 26.1415,2.1391 L 26.1318,2.1391 Z" stroke="#000000" stroke-width="0.1201" stroke-linecap="round" stroke-linejoin="round" fill="#000000"/>
        <path d="M 28.3560,2.3768 L 28.3368,2.3768 L 28.3368,2.3673 L 28.3175,2.3673 L 28.3175,2.3578 L 28.3079,2.3578 L 28.3079,2.3388 L 28.2982,2.3388 L 28.2982,2.1011 L 28.3079,2.1011 L 28.3079,2.1201 L 28.3175,2.1201 L 28.3175,2.1296 L 28.3368,2.1296 L 28.3368,2.1391 L 29.1070,2.1391 L 29.1070,1.8634 L 28.2790,1.8634 L 28.2790,1.8729 L 28.2597,1.8729 L 28.2597,1.8824 L 28.2501,1.8824 L 28.2501,1.9014 L 28.2405,1.9014 L 28.2405,2.8046 L 28.2501,2.8046 L 28.2501,2.8236 L 28.2597,2.8236 L 28.2597,2.8332 L 28.2694,2.8332 L 28.2694,2.8427 L 28.0190,2.8427 L 28.0094,2.8332 L 27.9998,2.8332 L 27.9709,2.8046 L 27.9709,2.7951 L 27.9612,2.7856 L 27.9612,1.6828 L 27.9709,1.6733 L 27.9709,1.6638 L 27.9805,1.6543 L 27.9901,1.6543 L 27.9901,1.6448 L 27.9998,1.6352 L 28.0094,1.6352 L 28.0190,1.6257 L 29.3285,1.6257 L 29.3381,1.6352 L 29.3478,1.6352 L 29.3766,1.6638 L 29.3766,1.6733 L 29.3863,1.6828 L 29.3863,2.2817 L 29.3766,2.2912 L 29.3766,2.3103 L 29.3670,2.3103 L 29.3670,2.3198 L 29.3574,2.3293 L 29.3574,2.3388 L 29.3478,2.3388 L 29.3478,2.3483 L 29.3381,2.3483 L 29.3381,2.3578 L 29.3285,2.3578 L 29.3285,2.3673 L 29.3189,2.3673 L 29.3092,2.3768 L 29.3189,2.3863 L 29.3285,2.3863 L 29.3285,2.3958 L 29.3381,2.3958 L 29.3381,2.4053 L 29.3478,2.4053 L 29.3478,2.4148 L 29.3574,2.4148 L 29.3574,2.4243 L 29.3670,2.4339 L 29.3670,2.4434 L 29.3766,2.4434 L 29.3766,2.4624 L 29.3863,2.4719 L 29.3863,2.8046 L 29.3959,2.8046 L 29.3959,2.8236 L 29.4055,2.8236 L 29.4055,2.8332 L 29.4152,2.8332 L 29.4152,2.8427 L 29.1648,2.8427 L 29.1552,2.8332 L 29.1456,2.8332 L 29.1167,2.8046 L 29.1167,2.7951 L 29.1070,2.7856 L 29.1070,2.3768 L 28.3656,2.3768 L 28.3560,2.3768 Z" stroke="#000000" stroke-width="0.1201" stroke-linecap="round" stroke-linejoin="round" fill="#000000"/>
        <path d="M 29.8870,1.8634 L 29.5981,1.8634 L 29.5885,1.8539 L 29.5788,1.8539 L 29.5500,1.8254 L 29.5500,1.8159 L 29.5403,1.8064 L 29.5403,1.6828 L 29.5500,1.6733 L 29.5500,1.6638 L 29.5596,1.6543 L 29.5692,1.6543 L 29.5692,1.6448 L 29.5788,1.6352 L 29.5885,1.6352 L 29.5981,1.6257 L 30.9076,1.6257 L 30.9172,1.6352 L 30.9268,1.6352 L 30.9557,1.6638 L 30.9557,1.6733 L 30.9653,1.6828 L 30.9653,1.9014 L 30.9557,1.9014 L 30.9557,1.8919 L 30.9461,1.8919 L 30.9461,1.8824 L 30.9365,1.8824 L 30.9365,1.8729 L 30.9172,1.8729 L 30.9172,1.8634 L 30.2047,1.8634 L 30.2047,1.8729 L 30.1854,1.8729 L 30.1854,1.8824 L 30.1758,1.8824 L 30.1758,1.9014 L 30.1662,1.9014 L 30.1662,2.8046 L 30.1758,2.8046 L 30.1758,2.8236 L 30.1854,2.8236 L 30.1854,2.8332 L 30.1951,2.8332 L 30.1951,2.8427 L 29.9447,2.8427 L 29.9351,2.8332 L 29.9255,2.8332 L 29.8966,2.8046 L 29.8966,2.7951 L 29.8870,2.7856 L 29.8870,1.8919 L 29.8870,1.8634 Z" stroke="#000000" stroke-width="0.1201" stroke-linecap="round" stroke-linejoin="round" fill="#000000"/>
        <path d="M 31.3986,2.7761 L 31.3986,2.8046 L 31.4083,2.8046 L 31.4083,2.8236 L 31.4179,2.8236 L 31.4179,2.8332 L 31.4275,2.8332 L 31.4275,2.8427 L 31.1772,2.8427 L 31.1675,2.8332 L 31.1579,2.8332 L 31.1290,2.8046 L 31.1290,2.7951 L 31.1194,2.7856 L 31.1194,1.6638 L 31.1098,1.6638 L 31.1098,1.6448 L 31.1001,1.6448 L 31.1001,1.6352 L 31.0905,1.6352 L 31.0905,1.6257 L 31.3409,1.6257 L 31.3505,1.6352 L 31.3601,1.6352 L 31.3890,1.6638 L 31.3890,1.6733 L 31.3986,1.6828 L 31.3986,2.7666 L 31.3986,2.7761 Z" stroke="#000000" stroke-width="0.1201" stroke-linecap="round" stroke-linejoin="round" fill="#000000"/>
        <path d="M 32.7659,1.8634 L 31.9378,1.8634 L 31.9378,1.8729 L 31.9186,1.8729 L 31.9186,1.8824 L 31.9089,1.8824 L 31.9089,1.9014 L 31.8993,1.9014 L 31.8993,2.8046 L 31.9089,2.8046 L 31.9089,2.8236 L 31.9186,2.8236 L 31.9186,2.8332 L 31.9282,2.8332 L 31.9282,2.8427 L 31.6779,2.8427 L 31.6682,2.8332 L 31.6586,2.8332 L 31.6297,2.8046 L 31.6297,2.7951 L 31.6201,2.7856 L 31.6201,1.6828 L 31.6297,1.6733 L 31.6297,1.6638 L 31.6393,1.6543 L 31.6490,1.6543 L 31.6490,1.6448 L 31.6586,1.6352 L 31.6682,1.6352 L 31.6779,1.6257 L 32.9873,1.6257 L 32.9970,1.6352 L 33.0066,1.6352 L 33.0355,1.6638 L 33.0355,1.6733 L 33.0451,1.6828 L 33.0451,2.8046 L 33.0547,2.8046 L 33.0547,2.8236 L 33.0644,2.8236 L 33.0644,2.8332 L 33.0740,2.8332 L 33.0740,2.8427 L 32.8237,2.8427 L 32.8140,2.8332 L 32.8044,2.8332 L 32.7755,2.8046 L 32.7755,2.7951 L 32.7659,2.7856 L 32.7659,1.8919 L 32.7659,1.8634 Z" stroke="#000000" stroke-width="0.1201" stroke-linecap="round" stroke-linejoin="round" fill="#000000"/>
        <path d="M 34.4605,2.1391 L 33.5747,2.1391 L 33.5651,2.1296 L 33.5554,2.1296 L 33.5554,2.1201 L 33.5458,2.1201 L 33.5458,2.1011 L 33.5362,2.1011 L 33.5362,2.3388 L 33.5458,2.3388 L 33.5458,2.3578 L 33.5554,2.3578 L 33.5554,2.3673 L 33.5651,2.3673 L 33.5747,2.3768 L 34.4701,2.3768 L 34.4894,2.3578 L 34.4990,2.3578 L 34.5183,2.3388 L 34.5183,2.3293 L 34.5279,2.3198 L 34.5279,2.3103 L 34.5375,2.3008 L 34.5375,2.2817 L 34.5472,2.2722 L 34.5472,2.2342 L 34.5375,2.2247 L 34.5375,2.1962 L 34.5279,2.1962 L 34.5279,2.1867 L 34.4990,2.1581 L 34.4894,2.1581 L 34.4894,2.1486 L 34.4798,2.1486 L 34.4701,2.1391 L 34.4605,2.1391 Z" stroke="#000000" stroke-width="0.1201" stroke-linecap="round" stroke-linejoin="round" fill="#000000"/>
        <path d="M 35.1249,1.8634 L 34.8360,1.8634 L 34.8264,1.8539 L 34.8168,1.8539 L 34.7879,1.8254 L 34.7879,1.8159 L 34.7782,1.8064 L 34.7782,1.6828 L 34.7879,1.6733 L 34.7879,1.6638 L 34.7975,1.6543 L 34.8071,1.6543 L 34.8071,1.6448 L 34.8168,1.6352 L 34.8264,1.6352 L 34.8360,1.6257 L 36.1455,1.6257 L 36.1551,1.6352 L 36.1648,1.6352 L 36.1936,1.6638 L 36.1936,1.6733 L 36.2033,1.6828 L 36.2033,1.9014 L 36.1936,1.9014 L 36.1936,1.8919 L 36.1840,1.8919 L 36.1840,1.8824 L 36.1744,1.8824 L 36.1744,1.8729 L 36.1551,1.8729 L 36.1551,1.8634 L 35.4426,1.8634 L 35.4426,1.8729 L 35.4234,1.8729 L 35.4234,1.8824 L 35.4137,1.8824 L 35.4137,1.9014 L 35.4041,1.9014 L 35.4041,2.8046 L 35.4137,2.8046 L 35.4137,2.8236 L 35.4234,2.8236 L 35.4234,2.8332 L 35.4330,2.8332 L 35.4330,2.8427 L 35.1826,2.8427 L 35.1730,2.8332 L 35.1634,2.8332 L 35.1345,2.8046 L 35.1345,2.7951 L 35.1249,2.7856 L 35.1249,1.8919 L 35.1249,1.8634 Z" stroke="#000000" stroke-width="0.1201" stroke-linecap="round" stroke-linejoin="round" fill="#000000"/>
        <path d="M 34.5568,2.6050 L 34.5760,2.6050 L 34.5760,2.5955 L 34.5953,2.5955 L 34.5953,2.5860 L 34.6049,2.5860 L 34.6049,2.5765 L 34.6146,2.5765 L 34.6146,2.5670 L 34.6242,2.5670 L 34.6242,2.7856 L 34.6146,2.7951 L 34.6146,2.8046 L 34.6049,2.8141 L 34.6049,2.8236 L 34.5953,2.8236 L 34.5857,2.8332 L 34.5760,2.8332 L 34.5664,2.8427 L 33.2569,2.8427 L 33.2473,2.8332 L 33.2377,2.8332 L 33.2088,2.8046 L 33.2088,2.7951 L 33.1992,2.7856 L 33.1992,1.6828 L 33.2088,1.6733 L 33.2088,1.6638 L 33.2184,1.6543 L 33.2281,1.6543 L 33.2281,1.6448 L 33.2377,1.6352 L 33.2473,1.6352 L 33.2569,1.6257 L 34.5664,1.6257 L 34.5760,1.6352 L 34.5857,1.6352 L 34.6146,1.6638 L 34.6146,1.6733 L 34.6242,1.6828 L 34.6242,1.9014 L 34.6146,1.9014 L 34.6146,1.8919 L 34.6049,1.8919 L 34.6049,1.8824 L 34.5953,1.8824 L 34.5953,1.8729 L 34.5760,1.8729 L 34.5760,1.8634 L 33.5169,1.8634 L 33.5169,1.8729 L 33.4977,1.8729 L 33.4977,1.8824 L 33.4880,1.8824 L 33.4880,1.9014 L 33.4784,1.9014 L 33.4784,2.6050 L 34.5472,2.6050 L 34.5568,2.6050 Z" stroke="#000000" stroke-width="0.1201" stroke-linecap="round" stroke-linejoin="round" fill="#000000"/>
        <path d="M 26.8636,2.4909 L 26.8636,2.8427 L 27.3258,2.8427 L 27.3258,2.4909 L 26.8636,2.4909 Z" stroke="#FF0000" stroke-width="0.1201" stroke-linecap="round" stroke-linejoin="round" fill="#FF0000"/>
        <path d="M 26.3822,2.0631 L 26.7769,2.0631 L 26.7769,2.4053 L 26.3822,2.4053 L 26.3822,2.0631 Z" stroke="#FF0000" stroke-width="0.1201" stroke-linecap="round" stroke-linejoin="round" fill="#FF0000"/>
        <path d="M 27.4124,2.4909 L 27.4124,2.8427 L 27.5568,2.8427 L 27.5665,2.8332 L 27.6050,2.8332 L 27.6146,2.8236 L 27.6339,2.8236 L 27.6531,2.8141 L 27.6628,2.8046 L 27.6820,2.7951 L 27.7013,2.7761 L 27.7205,2.7666 L 27.7302,2.7571 L 27.7398,2.7381 L 27.7494,2.7286 L 27.7879,2.6525 L 27.7879,2.6335 L 27.7976,2.6050 L 27.7976,2.5765 L 27.8072,2.5479 L 27.8072,2.4909 L 27.4220,2.4909 L 27.4124,2.4909 Z" stroke="#FF0000" stroke-width="0.1201" stroke-linecap="round" stroke-linejoin="round" fill="#FF0000"/>
        <path d="M 27.4124,2.0631 L 27.8072,2.0631 L 27.8072,2.4053 L 27.4124,2.4053 L 27.4124,2.0631 Z" stroke="#FF0000" stroke-width="0.1201" stroke-linecap="round" stroke-linejoin="round" fill="#FF0000"/>
        <path d="M 26.7769,2.4909 L 26.7769,2.8427 L 26.6325,2.8427 L 26.6229,2.8332 L 26.5844,2.8332 L 26.5747,2.8236 L 26.5555,2.8236 L 26.5362,2.8141 L 26.5266,2.8046 L 26.5073,2.7951 L 26.4881,2.7761 L 26.4688,2.7666 L 26.4592,2.7571 L 26.4496,2.7381 L 26.4399,2.7286 L 26.4014,2.6525 L 26.4014,2.6335 L 26.3918,2.6050 L 26.3918,2.5765 L 26.3822,2.5479 L 26.3822,2.4909 L 26.7673,2.4909 L 26.7769,2.4909 Z" stroke="#FF0000" stroke-width="0.1201" stroke-linecap="round" stroke-linejoin="round" fill="#FF0000"/>
        <path d="M 26.8636,1.6257 L 26.8636,1.9775 L 27.3258,1.9775 L 27.3258,1.6257 L 26.8636,1.6257 Z" stroke="#FF0000" stroke-width="0.1201" stroke-linecap="round" stroke-linejoin="round" fill="#FF0000"/>
        <path d="M 27.4124,1.9775 L 27.4124,1.6257 L 27.5568,1.6257 L 27.5665,1.6352 L 27.6050,1.6352 L 27.6146,1.6448 L 27.6339,1.6448 L 27.6531,1.6543 L 27.6628,1.6638 L 27.6820,1.6733 L 27.7013,1.6923 L 27.7205,1.7018 L 27.7302,1.7113 L 27.7398,1.7303 L 27.7494,1.7398 L 27.7879,1.8159 L 27.7879,1.8349 L 27.7976,1.8634 L 27.7976,1.8919 L 27.8072,1.9205 L 27.8072,1.9775 L 27.4220,1.9775 L 27.4124,1.9775 Z" stroke="#FF0000" stroke-width="0.1201" stroke-linecap="round" stroke-linejoin="round" fill="#FF0000"/>
        <path d="M 26.7769,1.9775 L 26.7769,1.6257 L 26.6325,1.6257 L 26.6229,1.6352 L 26.5844,1.6352 L 26.5747,1.6448 L 26.5555,1.6448 L 26.5362,1.6543 L 26.5266,1.6638 L 26.5073,1.6733 L 26.4881,1.6923 L 26.4688,1.7018 L 26.4592,1.7113 L 26.4496,1.7303 L 26.4399,1.7398 L 26.4014,1.8159 L 26.4014,1.8349 L 26.3918,1.8634 L 26.3918,1.8919 L 26.3822,1.9205 L 26.3822,1.9775 L 26.7673,1.9775 L 26.7769,1.9775 Z" stroke="#FF0000" stroke-width="0.1201" stroke-linecap="round" stroke-linejoin="round" fill="#FF0000"/>
        <text font-family="Symbol" fill="#000000" style="white-space:pre;" text-anchor="start" x="35.9432" y="2.8439" font-size="0.3443"><![CDATA[]]></text>
        <ellipse cx="2.9611" cy="5.8769" rx="0.3690" ry="0.3774" fill="#00FF00" stroke="#000000" stroke-width="0.1201" stroke-linecap="round" stroke-linejoin="round"/>
        <ellipse cx="2.9611" cy="5.8769" rx="0.3690" ry="0.3774" fill="none" stroke="#000000" stroke-width="0.1201" stroke-linecap="round" stroke-linejoin="round"/>
        <ellipse cx="2.9611" cy="6.9463" rx="0.3690" ry="0.3684" fill="#00FF00" stroke="#000000" stroke-width="0.1201" stroke-linecap="round" stroke-linejoin="round"/>
        <ellipse cx="2.9611" cy="6.9463" rx="0.3690" ry="0.3684" fill="none" stroke="#000000" stroke-width="0.1201" stroke-linecap="round" stroke-linejoin="round"/>
        <ellipse cx="2.9611" cy="8.0066" rx="0.3690" ry="0.3684" fill="#00FF00" stroke="#000000" stroke-width="0.1201" stroke-linecap="round" stroke-linejoin="round"/>
        <ellipse cx="2.9611" cy="8.0066" rx="0.3690" ry="0.3684" fill="none" stroke="#000000" stroke-width="0.1201" stroke-linecap="round" stroke-linejoin="round"/>
        <ellipse cx="2.9611" cy="9.0670" rx="0.3690" ry="0.3684" fill="#00FF00" stroke="#000000" stroke-width="0.1201" stroke-linecap="round" stroke-linejoin="round"/>
        <ellipse cx="2.9611" cy="9.0670" rx="0.3690" ry="0.3684" fill="none" stroke="#000000" stroke-width="0.1201" stroke-linecap="round" stroke-linejoin="round"/>
        <text font-family="Arial" fill="#000000" style="white-space:pre;" font-weight="400" text-anchor="start" x="5.1662" y="11.3569" font-size="0.1980"><![CDATA[LTE]]></text>
        <text font-family="Arial" fill="#000000" style="white-space:pre;" font-weight="400" text-anchor="start" x="5.1662" y="11.6984" font-size="0.1980"><![CDATA[SIM1]]></text>
        <text font-family="Arial" fill="#000000" style="white-space:pre;" font-weight="400" text-anchor="start" x="5.1662" y="12.0399" font-size="0.1980"><![CDATA[SIM2]]></text>
        <ellipse cx="6.7773" cy="6.9463" rx="0.3690" ry="0.3684" fill="#00FF00" stroke="#000000" stroke-width="0.1201" stroke-linecap="round" stroke-linejoin="round"/>
        <ellipse cx="6.7773" cy="6.9463" rx="0.3690" ry="0.3684" fill="none" stroke="#000000" stroke-width="0.1201" stroke-linecap="round" stroke-linejoin="round"/>
        <ellipse cx="6.7773" cy="8.0066" rx="0.3690" ry="0.3684" fill="#00FF00" stroke="#000000" stroke-width="0.1201" stroke-linecap="round" stroke-linejoin="round"/>
        <ellipse cx="6.7773" cy="8.0066" rx="0.3690" ry="0.3684" fill="none" stroke="#000000" stroke-width="0.1201" stroke-linecap="round" stroke-linejoin="round"/>
        <ellipse cx="6.7773" cy="9.0670" rx="0.3690" ry="0.3684" fill="#00FF00" stroke="#000000" stroke-width="0.1201" stroke-linecap="round" stroke-linejoin="round"/>
        <ellipse cx="6.7773" cy="9.0670" rx="0.3690" ry="0.3684" fill="none" stroke="#000000" stroke-width="0.1201" stroke-linecap="round" stroke-linejoin="round"/>
        <ellipse cx="1.7508" cy="2.1272" rx="0.6750" ry="0.6740" fill="#666666" stroke="#000000" stroke-width="0.1201" stroke-linecap="round" stroke-linejoin="round"/>
        <ellipse cx="1.7508" cy="2.1272" rx="0.6750" ry="0.6740" fill="none" stroke="#000000" stroke-width="0.1201" stroke-linecap="round" stroke-linejoin="round"/>
        <ellipse cx="1.7508" cy="2.1272" rx="0.6117" ry="0.6108" fill="#7F7F7F" stroke="#000000" stroke-width="0.1201" stroke-linecap="round" stroke-linejoin="round"/>
        <ellipse cx="1.7508" cy="2.1272" rx="0.6117" ry="0.6108" fill="none" stroke="#7F7F7F" stroke-width="0.1201" stroke-linecap="round" stroke-linejoin="round"/>
        <path d="M 1.2867,2.0851 L 1.2656,2.0851 L 1.2445,2.1061 L 1.2445,2.1272 L 1.2234,2.1272 L 1.2234,2.2535 L 1.2445,2.2535 L 1.2445,2.2746 L 1.2656,2.2957 L 1.7086,2.2957 L 1.7086,2.7590 L 1.7297,2.7590 L 1.7297,2.7801 L 1.7508,2.7801 L 1.7508,2.8011 L 1.8774,2.8011 L 1.8774,2.7801 L 1.8985,2.7801 L 1.8985,2.7590 L 1.9195,2.7590 L 1.9195,2.2957 L 2.3836,2.2957 L 2.3836,2.2746 L 2.4047,2.2746 L 2.4047,2.2535 L 2.4258,2.2535 L 2.4258,2.1272 L 2.4047,2.1272 L 2.4047,2.1061 L 2.3836,2.1061 L 2.3836,2.0851 L 1.9195,2.0851 L 1.9195,1.6428 L 1.8985,1.6217 L 1.8774,1.6217 L 1.8774,1.6006 L 1.7508,1.6006 L 1.7508,1.6217 L 1.7297,1.6217 L 1.7086,1.6428 L 1.7086,2.0851 L 1.3078,2.0851 L 1.2867,2.0851 Z" stroke="#161616" stroke-width="0.1201" stroke-linecap="round" stroke-linejoin="round" fill="#494949"/>
        <path d="M 1.2024,2.1482 L 1.2024,2.2535 L 1.2234,2.2746 L 1.2445,2.2746 L 1.2445,2.2957 L 1.7086,2.2957 L 1.7086,2.7801 L 1.7297,2.8011 L 1.7508,2.8011 L 1.7508,2.8222 L 1.8141,2.8222 L 1.8352,2.8222 " stroke="#BFBFBF" stroke-width="0.1201" stroke-linecap="round" stroke-linejoin="round" fill="none"/>
        <path d="M 1.7086,1.6428 L 1.7086,2.0640 L 1.7086,2.0851 " stroke="#BFBFBF" stroke-width="0.1201" stroke-linecap="round" stroke-linejoin="round" fill="none"/>
        <ellipse cx="6.8555" cy="2.1272" rx="0.6750" ry="0.6740" fill="#666666" stroke="#000000" stroke-width="0.1201" stroke-linecap="round" stroke-linejoin="round"/>
        <ellipse cx="6.8555" cy="2.1272" rx="0.6750" ry="0.6740" fill="none" stroke="#000000" stroke-width="0.1201" stroke-linecap="round" stroke-linejoin="round"/>
        <ellipse cx="6.8555" cy="2.1272" rx="0.6117" ry="0.6108" fill="#7F7F7F" stroke="#000000" stroke-width="0.1201" stroke-linecap="round" stroke-linejoin="round"/>
        <ellipse cx="6.8555" cy="2.1272" rx="0.6117" ry="0.6108" fill="none" stroke="#7F7F7F" stroke-width="0.1201" stroke-linecap="round" stroke-linejoin="round"/>
        <path d="M 6.3915,2.0851 L 6.3704,2.0851 L 6.3493,2.1061 L 6.3493,2.1272 L 6.3282,2.1272 L 6.3282,2.2535 L 6.3493,2.2535 L 6.3493,2.2746 L 6.3704,2.2957 L 6.8133,2.2957 L 6.8133,2.7590 L 6.8344,2.7590 L 6.8344,2.7801 L 6.8555,2.7801 L 6.8555,2.8011 L 6.9821,2.8011 L 6.9821,2.7801 L 7.0032,2.7801 L 7.0032,2.7590 L 7.0243,2.7590 L 7.0243,2.2957 L 7.4883,2.2957 L 7.4883,2.2746 L 7.5094,2.2746 L 7.5094,2.2535 L 7.5305,2.2535 L 7.5305,2.1272 L 7.5094,2.1272 L 7.5094,2.1061 L 7.4883,2.1061 L 7.4883,2.0851 L 7.0243,2.0851 L 7.0243,1.6428 L 7.0032,1.6217 L 6.9821,1.6217 L 6.9821,1.6006 L 6.8555,1.6006 L 6.8555,1.6217 L 6.8344,1.6217 L 6.8133,1.6428 L 6.8133,2.0851 L 6.4125,2.0851 L 6.3915,2.0851 Z" stroke="#161616" stroke-width="0.1201" stroke-linecap="round" stroke-linejoin="round" fill="#494949"/>
        <path d="M 6.3071,2.1482 L 6.3071,2.2535 L 6.3282,2.2746 L 6.3493,2.2746 L 6.3493,2.2957 L 6.8133,2.2957 L 6.8133,2.7801 L 6.8344,2.8011 L 6.8555,2.8011 L 6.8555,2.8222 L 6.9188,2.8222 L 6.9399,2.8222 " stroke="#BFBFBF" stroke-width="0.1201" stroke-linecap="round" stroke-linejoin="round" fill="none"/>
        <path d="M 6.8133,1.6428 L 6.8133,2.0640 L 6.8133,2.0851 " stroke="#BFBFBF" stroke-width="0.1201" stroke-linecap="round" stroke-linejoin="round" fill="none"/>
        <text font-family="Arial" fill="#000000" style="white-space:pre;" font-weight="400" text-anchor="start" x="7.7626" y="3.7198" font-size="0.2953"><![CDATA[DIV]]></text>
        <ellipse cx="54.2324" cy="2.1272" rx="0.6750" ry="0.6740" fill="#666666" stroke="#000000" stroke-width="0.1201" stroke-linecap="round" stroke-linejoin="round"/>
        <ellipse cx="54.2324" cy="2.1272" rx="0.6750" ry="0.6740" fill="none" stroke="#000000" stroke-width="0.1201" stroke-linecap="round" stroke-linejoin="round"/>
        <ellipse cx="54.2324" cy="2.1272" rx="0.6117" ry="0.6108" fill="#7F7F7F" stroke="#000000" stroke-width="0.1201" stroke-linecap="round" stroke-linejoin="round"/>
        <ellipse cx="54.2324" cy="2.1272" rx="0.6117" ry="0.6108" fill="none" stroke="#7F7F7F" stroke-width="0.1201" stroke-linecap="round" stroke-linejoin="round"/>
        <path d="M 53.7684,2.0851 L 53.7473,2.0851 L 53.7262,2.1061 L 53.7262,2.1272 L 53.7051,2.1272 L 53.7051,2.2535 L 53.7262,2.2535 L 53.7262,2.2746 L 53.7473,2.2957 L 54.1902,2.2957 L 54.1902,2.7590 L 54.2113,2.7590 L 54.2113,2.7801 L 54.2324,2.7801 L 54.2324,2.8011 L 54.3590,2.8011 L 54.3590,2.7801 L 54.3801,2.7801 L 54.3801,2.7590 L 54.4012,2.7590 L 54.4012,2.2957 L 54.8652,2.2957 L 54.8652,2.2746 L 54.8863,2.2746 L 54.8863,2.2535 L 54.9074,2.2535 L 54.9074,2.1272 L 54.8863,2.1272 L 54.8863,2.1061 L 54.8652,2.1061 L 54.8652,2.0851 L 54.4012,2.0851 L 54.4012,1.6428 L 54.3801,1.6217 L 54.3590,1.6217 L 54.3590,1.6006 L 54.2324,1.6006 L 54.2324,1.6217 L 54.2113,1.6217 L 54.1902,1.6428 L 54.1902,2.0851 L 53.7895,2.0851 L 53.7684,2.0851 Z" stroke="#161616" stroke-width="0.1201" stroke-linecap="round" stroke-linejoin="round" fill="#494949"/>
        <path d="M 53.6840,2.1482 L 53.6840,2.2535 L 53.7051,2.2746 L 53.7262,2.2746 L 53.7262,2.2957 L 54.1902,2.2957 L 54.1902,2.7801 L 54.2113,2.8011 L 54.2324,2.8011 L 54.2324,2.8222 L 54.2957,2.8222 L 54.3168,2.8222 " stroke="#BFBFBF" stroke-width="0.1201" stroke-linecap="round" stroke-linejoin="round" fill="none"/>
        <path d="M 54.1902,1.6428 L 54.1902,2.0640 L 54.1902,2.0851 " stroke="#BFBFBF" stroke-width="0.1201" stroke-linecap="round" stroke-linejoin="round" fill="none"/>
        <ellipse cx="59.3372" cy="2.1272" rx="0.6750" ry="0.6740" fill="#666666" stroke="#000000" stroke-width="0.1201" stroke-linecap="round" stroke-linejoin="round"/>
        <ellipse cx="59.3372" cy="2.1272" rx="0.6750" ry="0.6740" fill="none" stroke="#000000" stroke-width="0.1201" stroke-linecap="round" stroke-linejoin="round"/>
        <ellipse cx="59.3372" cy="2.1272" rx="0.6117" ry="0.6108" fill="#7F7F7F" stroke="#000000" stroke-width="0.1201" stroke-linecap="round" stroke-linejoin="round"/>
        <ellipse cx="59.3372" cy="2.1272" rx="0.6117" ry="0.6108" fill="none" stroke="#7F7F7F" stroke-width="0.1201" stroke-linecap="round" stroke-linejoin="round"/>
        <path d="M 58.8731,2.0851 L 58.8520,2.0851 L 58.8309,2.1061 L 58.8309,2.1272 L 58.8098,2.1272 L 58.8098,2.2535 L 58.8309,2.2535 L 58.8309,2.2746 L 58.8520,2.2957 L 59.2950,2.2957 L 59.2950,2.7590 L 59.3161,2.7590 L 59.3161,2.7801 L 59.3372,2.7801 L 59.3372,2.8011 L 59.4637,2.8011 L 59.4637,2.7801 L 59.4848,2.7801 L 59.4848,2.7590 L 59.5059,2.7590 L 59.5059,2.2957 L 59.9700,2.2957 L 59.9700,2.2746 L 59.9911,2.2746 L 59.9911,2.2535 L 60.0122,2.2535 L 60.0122,2.1272 L 59.9911,2.1272 L 59.9911,2.1061 L 59.9700,2.1061 L 59.9700,2.0851 L 59.5059,2.0851 L 59.5059,1.6428 L 59.4848,1.6217 L 59.4637,1.6217 L 59.4637,1.6006 L 59.3372,1.6006 L 59.3372,1.6217 L 59.3161,1.6217 L 59.2950,1.6428 L 59.2950,2.0851 L 58.8942,2.0851 L 58.8731,2.0851 Z" stroke="#161616" stroke-width="0.1201" stroke-linecap="round" stroke-linejoin="round" fill="#494949"/>
        <path d="M 58.7887,2.1482 L 58.7887,2.2535 L 58.8098,2.2746 L 58.8309,2.2746 L 58.8309,2.2957 L 59.2950,2.2957 L 59.2950,2.7801 L 59.3161,2.8011 L 59.3372,2.8011 L 59.3372,2.8222 L 59.4004,2.8222 L 59.4215,2.8222 " stroke="#BFBFBF" stroke-width="0.1201" stroke-linecap="round" stroke-linejoin="round" fill="none"/>
        <path d="M 59.2950,1.6428 L 59.2950,2.0640 L 59.2950,2.0851 " stroke="#BFBFBF" stroke-width="0.1201" stroke-linecap="round" stroke-linejoin="round" fill="none"/>
        <text font-family="Arial" fill="#000000" style="white-space:pre;" font-weight="400" text-anchor="start" x="79.8193" y="3.7198" font-size="0.2953"><![CDATA[MAIN]]></text>
        <text font-family="Arial" fill="#000000" style="white-space:pre;" font-weight="400" text-anchor="start" x="71.8880" y="6.1629" font-size="0.2953"><![CDATA[BYPASS]]></text>
        <text font-family="Arial" fill="#000000" style="white-space:pre;" font-weight="400" text-anchor="start" x="80.8107" y="4.7159" font-size="0.2320"><![CDATA[SFP1]]></text>
        <text font-family="Arial" fill="#000000" style="white-space:pre;" font-weight="400" text-anchor="start" x="80.8107" y="5.1161" font-size="0.2320"><![CDATA[SFP2]]></text>
        <ellipse cx="57.7555" cy="7.3416" rx="0.3690" ry="0.3684" fill="#00FF00" stroke="#000000" stroke-width="0.1201" stroke-linecap="round" stroke-linejoin="round"/>
        <ellipse cx="57.7555" cy="7.3416" rx="0.3690" ry="0.3684" fill="none" stroke="#000000" stroke-width="0.1201" stroke-linecap="round" stroke-linejoin="round"/>
        <ellipse cx="57.7555" cy="8.4020" rx="0.3690" ry="0.3684" fill="#00FF00" stroke="#000000" stroke-width="0.1201" stroke-linecap="round" stroke-linejoin="round"/>
        <ellipse cx="57.7555" cy="8.4020" rx="0.3690" ry="0.3684" fill="none" stroke="#000000" stroke-width="0.1201" stroke-linecap="round" stroke-linejoin="round"/>
        <path d="M 34.4767,11.1588 L 33.0762,11.1588 L 33.0762,10.7795 " stroke="#000000" stroke-width="0.1201" stroke-linecap="round" stroke-linejoin="round" fill="none"/>
        <path d="M 38.1928,11.1588 L 39.5933,11.1588 L 39.5933,10.7795 " stroke="#000000" stroke-width="0.1201" stroke-linecap="round" stroke-linejoin="round" fill="none"/>
        <path d="M 4.9915,3.0609 L 5.0470,3.0047 L 5.0608,2.9766 L 5.0885,2.9626 L 5.1024,2.9345 L 5.1579,2.8784 L 5.1856,2.8222 L 5.1995,2.8082 L 5.2411,2.7239 L 5.2549,2.7099 L 5.2965,2.6256 L 5.2965,2.5975 L 5.3243,2.5414 L 5.3243,2.5273 L 5.3381,2.4993 L 5.3381,2.4712 L 5.3520,2.4431 L 5.3520,2.3869 L 5.3659,2.3589 L 5.3659,2.1763 L 5.3520,2.1202 L 5.3520,2.0780 L 5.3381,2.0219 L 5.3104,1.9376 L 5.2827,1.8955 L 5.2688,1.8534 L 5.2411,1.7972 L 5.2133,1.7691 L 5.1995,1.7270 L 5.1717,1.6849 L 5.1024,1.6147 L 5.0747,1.5726 L 5.0331,1.5445 L 5.0054,1.5164 L 4.9222,1.4602 L 4.8944,1.4322 L 4.8528,1.4041 L 4.8112,1.3900 L 4.7696,1.3620 L 4.7142,1.3479 L 4.5894,1.3058 L 4.5339,1.3058 L 4.4923,1.2918 L 4.2982,1.2918 L 4.2566,1.3058 L 4.2012,1.3058 L 4.0764,1.3479 L 4.0209,1.3620 L 3.9793,1.3900 L 3.9377,1.4041 L 3.8961,1.4322 L 3.8684,1.4602 L 3.7852,1.5164 L 3.7575,1.5445 L 3.7159,1.5726 L 3.6882,1.6147 L 3.6188,1.6849 L 3.5911,1.7270 L 3.5772,1.7691 L 3.5495,1.7972 L 3.5218,1.8534 L 3.5079,1.8955 L 3.4802,1.9376 L 3.4524,2.0219 L 3.4386,2.0780 L 3.4386,2.1202 L 3.4247,2.1763 L 3.4247,2.3589 L 3.4386,2.3869 L 3.4386,2.4431 L 3.4524,2.4712 L 3.4524,2.5133 L 3.4802,2.5695 L 3.4802,2.5975 L 3.5218,2.6818 L 3.5218,2.7099 L 3.5634,2.7941 L 3.5772,2.8082 L 3.6050,2.8643 L 3.6466,2.9064 L 3.6604,2.9345 L 3.6743,2.9486 L 3.6882,2.9766 L 3.7159,2.9907 L 3.7298,3.0047 L 3.7436,3.0328 L 3.7713,3.0468 L 3.7852,3.0609 L 4.9776,3.0609 L 4.9915,3.0609 Z" stroke="#000000" stroke-width="0.1201" stroke-linecap="round" stroke-linejoin="round" fill="#000000"/>
        <path d="M 5.2549,2.2606 L 5.2549,2.1763 L 5.2411,2.1202 L 5.2411,2.0780 L 5.1995,1.9517 L 5.1856,1.9236 L 5.1579,1.8393 L 5.1301,1.8113 L 5.1163,1.7691 L 5.0885,1.7411 L 5.0608,1.6989 L 4.9499,1.5866 L 4.9083,1.5585 L 4.8806,1.5304 L 4.8390,1.5164 L 4.8112,1.4883 L 4.7281,1.4602 L 4.7003,1.4462 L 4.5755,1.4041 L 4.5339,1.4041 L 4.4785,1.3900 L 4.3121,1.3900 L 4.2566,1.4041 L 4.2150,1.4041 L 4.0903,1.4462 L 4.0625,1.4602 L 3.9793,1.4883 L 3.9516,1.5164 L 3.9100,1.5304 L 3.8823,1.5585 L 3.8407,1.5866 L 3.7298,1.6989 L 3.7020,1.7411 L 3.6743,1.7691 L 3.6604,1.8113 L 3.6327,1.8393 L 3.6050,1.9236 L 3.5911,1.9517 L 3.5495,2.0780 L 3.5495,2.1202 L 3.5356,2.1763 L 3.5356,2.3729 L 3.5495,2.4010 L 3.5495,2.4571 L 3.5634,2.4852 L 3.5634,2.4993 L 3.5772,2.5273 L 3.5772,2.5554 L 3.5911,2.5835 L 3.5911,2.6116 L 3.6050,2.6397 L 3.6188,2.6537 L 3.6327,2.6818 L 3.6327,2.7099 L 3.6466,2.7239 L 3.6743,2.7801 L 3.6882,2.7941 L 3.7020,2.8222 L 3.7159,2.8362 L 3.7298,2.8643 L 3.7575,2.8784 L 3.7713,2.8924 L 3.7852,2.9205 L 3.7991,2.9345 L 3.8268,2.9486 L 3.8407,2.9626 L 3.8684,2.9766 L 3.8823,2.9907 L 4.8944,2.9907 L 4.9083,2.9766 L 4.9360,2.9626 L 4.9499,2.9345 L 4.9776,2.9205 L 5.0470,2.8503 L 5.0608,2.8222 L 5.0747,2.8082 L 5.0885,2.7801 L 5.1024,2.7660 L 5.1163,2.7380 L 5.1301,2.7239 L 5.1579,2.6677 L 5.1717,2.6537 L 5.1856,2.6256 L 5.1856,2.5975 L 5.1995,2.5835 L 5.2133,2.5554 L 5.2133,2.5273 L 5.2272,2.4993 L 5.2272,2.4712 L 5.2411,2.4431 L 5.2411,2.4010 L 5.2549,2.3729 L 5.2549,2.2886 L 5.2549,2.2606 Z" stroke="#000000" stroke-width="0.1201" stroke-linecap="round" stroke-linejoin="round" fill="#BCBC7E"/>
        <ellipse cx="4.3329" cy="2.2114" rx="0.1456" ry="0.1474" fill="#000000" stroke="#000000" stroke-width="0.1201" stroke-linecap="round" stroke-linejoin="round"/>
        <ellipse cx="4.3329" cy="2.2114" rx="0.1456" ry="0.1474" fill="none" stroke="#000000" stroke-width="0.1201" stroke-linecap="round" stroke-linejoin="round"/>
        <path d="M 57.4854,3.0609 L 57.5408,3.0047 L 57.5547,2.9766 L 57.5824,2.9626 L 57.5963,2.9345 L 57.6517,2.8784 L 57.6795,2.8222 L 57.6933,2.8082 L 57.7349,2.7239 L 57.7488,2.7099 L 57.7904,2.6256 L 57.7904,2.5975 L 57.8181,2.5414 L 57.8181,2.5273 L 57.8320,2.4993 L 57.8320,2.4712 L 57.8458,2.4431 L 57.8458,2.3869 L 57.8597,2.3589 L 57.8597,2.1763 L 57.8458,2.1202 L 57.8458,2.0780 L 57.8320,2.0219 L 57.8043,1.9376 L 57.7765,1.8955 L 57.7627,1.8534 L 57.7349,1.7972 L 57.7072,1.7691 L 57.6933,1.7270 L 57.6656,1.6849 L 57.5963,1.6147 L 57.5685,1.5726 L 57.5269,1.5445 L 57.4992,1.5164 L 57.4160,1.4602 L 57.3883,1.4322 L 57.3467,1.4041 L 57.3051,1.3900 L 57.2635,1.3620 L 57.2080,1.3479 L 57.0833,1.3058 L 57.0278,1.3058 L 56.9862,1.2918 L 56.7921,1.2918 L 56.7505,1.3058 L 56.6950,1.3058 L 56.5702,1.3479 L 56.5148,1.3620 L 56.4732,1.3900 L 56.4316,1.4041 L 56.3900,1.4322 L 56.3623,1.4602 L 56.2791,1.5164 L 56.2513,1.5445 L 56.2097,1.5726 L 56.1820,1.6147 L 56.1127,1.6849 L 56.0850,1.7270 L 56.0711,1.7691 L 56.0434,1.7972 L 56.0156,1.8534 L 56.0018,1.8955 L 55.9740,1.9376 L 55.9463,2.0219 L 55.9324,2.0780 L 55.9324,2.1202 L 55.9186,2.1763 L 55.9186,2.3589 L 55.9324,2.3869 L 55.9324,2.4431 L 55.9463,2.4712 L 55.9463,2.5133 L 55.9740,2.5695 L 55.9740,2.5975 L 56.0156,2.6818 L 56.0156,2.7099 L 56.0572,2.7941 L 56.0711,2.8082 L 56.0988,2.8643 L 56.1404,2.9064 L 56.1543,2.9345 L 56.1682,2.9486 L 56.1820,2.9766 L 56.2097,2.9907 L 56.2236,3.0047 L 56.2375,3.0328 L 56.2652,3.0468 L 56.2791,3.0609 L 57.4715,3.0609 L 57.4854,3.0609 Z" stroke="#000000" stroke-width="0.1201" stroke-linecap="round" stroke-linejoin="round" fill="#000000"/>
        <path d="M 57.7488,2.2606 L 57.7488,2.1763 L 57.7349,2.1202 L 57.7349,2.0780 L 57.6933,1.9517 L 57.6795,1.9236 L 57.6517,1.8393 L 57.6240,1.8113 L 57.6101,1.7691 L 57.5824,1.7411 L 57.5547,1.6989 L 57.4438,1.5866 L 57.4022,1.5585 L 57.3744,1.5304 L 57.3328,1.5164 L 57.3051,1.4883 L 57.2219,1.4602 L 57.1942,1.4462 L 57.0694,1.4041 L 57.0278,1.4041 L 56.9723,1.3900 L 56.8060,1.3900 L 56.7505,1.4041 L 56.7089,1.4041 L 56.5841,1.4462 L 56.5564,1.4602 L 56.4732,1.4883 L 56.4455,1.5164 L 56.4039,1.5304 L 56.3761,1.5585 L 56.3345,1.5866 L 56.2236,1.6989 L 56.1959,1.7411 L 56.1682,1.7691 L 56.1543,1.8113 L 56.1266,1.8393 L 56.0988,1.9236 L 56.0850,1.9517 L 56.0434,2.0780 L 56.0434,2.1202 L 56.0295,2.1763 L 56.0295,2.3729 L 56.0434,2.4010 L 56.0434,2.4571 L 56.0572,2.4852 L 56.0572,2.4993 L 56.0711,2.5273 L 56.0711,2.5554 L 56.0850,2.5835 L 56.0850,2.6116 L 56.0988,2.6397 L 56.1127,2.6537 L 56.1266,2.6818 L 56.1266,2.7099 L 56.1404,2.7239 L 56.1682,2.7801 L 56.1820,2.7941 L 56.1959,2.8222 L 56.2097,2.8362 L 56.2236,2.8643 L 56.2513,2.8784 L 56.2652,2.8924 L 56.2791,2.9205 L 56.2929,2.9345 L 56.3207,2.9486 L 56.3345,2.9626 L 56.3623,2.9766 L 56.3761,2.9907 L 57.3883,2.9907 L 57.4022,2.9766 L 57.4299,2.9626 L 57.4438,2.9345 L 57.4715,2.9205 L 57.5408,2.8503 L 57.5547,2.8222 L 57.5685,2.8082 L 57.5824,2.7801 L 57.5963,2.7660 L 57.6101,2.7380 L 57.6240,2.7239 L 57.6517,2.6677 L 57.6656,2.6537 L 57.6795,2.6256 L 57.6795,2.5975 L 57.6933,2.5835 L 57.7072,2.5554 L 57.7072,2.5273 L 57.7211,2.4993 L 57.7211,2.4712 L 57.7349,2.4431 L 57.7349,2.4010 L 57.7488,2.3729 L 57.7488,2.2886 L 57.7488,2.2606 Z" stroke="#000000" stroke-width="0.1201" stroke-linecap="round" stroke-linejoin="round" fill="#BCBC7E"/>
        <ellipse cx="56.8268" cy="2.2114" rx="0.1456" ry="0.1474" fill="#000000" stroke="#000000" stroke-width="0.1201" stroke-linecap="round" stroke-linejoin="round"/>
        <ellipse cx="56.8268" cy="2.2114" rx="0.1456" ry="0.1474" fill="none" stroke="#000000" stroke-width="0.1201" stroke-linecap="round" stroke-linejoin="round"/>
        <path d="M 11.3345,5.7708 L 11.3345,5.7286 L 11.3204,5.7286 L 11.3204,5.7006 L 11.3063,5.6865 L 11.3063,5.6725 L 11.2923,5.6725 L 11.2923,5.6584 L 11.2782,5.6584 L 11.2782,5.6444 L 11.2641,5.6444 L 11.2501,5.6304 L 11.2220,5.6304 L 11.2220,5.6163 L 9.8438,5.6163 L 9.8438,5.6304 L 9.8157,5.6304 L 9.8016,5.6444 L 9.7876,5.6444 L 9.7876,5.6584 L 9.7735,5.6584 L 9.7735,5.6725 L 9.7594,5.6725 L 9.7594,5.6865 L 9.7454,5.7006 L 9.7454,5.7286 L 9.7313,5.7286 L 9.7313,9.2388 L 9.7454,9.2388 L 9.7454,9.2669 L 9.7594,9.2810 L 9.7594,9.2950 L 9.7735,9.2950 L 9.7735,9.3090 L 9.7876,9.3090 L 9.7876,9.3231 L 9.8016,9.3231 L 9.8157,9.3371 L 9.8438,9.3371 L 9.8438,9.3512 L 11.2220,9.3512 L 11.2220,9.3371 L 11.2501,9.3371 L 11.2641,9.3231 L 11.2782,9.3231 L 11.2782,9.3090 L 11.2923,9.3090 L 11.2923,9.2950 L 11.3063,9.2950 L 11.3063,9.2810 L 11.3204,9.2669 L 11.3204,9.2388 L 11.3345,9.2388 L 11.3345,5.7848 L 11.3345,5.7708 Z" stroke="#000000" stroke-width="0.1201" stroke-linecap="round" stroke-linejoin="round" fill="#BFBFBF"/>
        <path d="M 11.2079,5.8269 L 11.2079,5.7848 L 11.1938,5.7848 L 11.1938,5.7708 L 11.1798,5.7567 L 11.1657,5.7567 L 11.1657,5.7427 L 9.9001,5.7427 L 9.8860,5.7567 L 9.8719,5.7567 L 9.8719,5.7708 L 9.8579,5.7708 L 9.8579,5.7848 L 9.8438,5.7988 L 9.8438,9.1827 L 9.8579,9.1827 L 9.8579,9.1967 L 9.8719,9.1967 L 9.8719,9.2107 L 9.8860,9.2107 L 9.9001,9.2248 L 11.1657,9.2248 L 11.1657,9.2107 L 11.1938,9.2107 L 11.1938,9.1827 L 11.2079,9.1827 L 11.2079,5.8410 L 11.2079,5.8269 Z" stroke="#7F7F7F" stroke-width="0.1201" stroke-linecap="round" stroke-linejoin="round" fill="#000000"/>
        <path d="M 10.5048,6.5711 L 10.5048,6.2622 L 10.5751,6.2622 L 10.5751,6.5711 L 10.5048,6.5711 Z" stroke="#000000" stroke-width="0.1201" stroke-linecap="round" stroke-linejoin="round" fill="#E2E2CC"/>
        <path d="M 10.5048,7.2731 L 10.5048,6.9642 L 10.5751,6.9642 L 10.5751,7.2731 L 10.5048,7.2731 Z" stroke="#000000" stroke-width="0.1201" stroke-linecap="round" stroke-linejoin="round" fill="#E2E2CC"/>
        <path d="M 10.5048,7.9611 L 10.5048,7.6522 L 10.5751,7.6522 L 10.5751,7.9611 L 10.5048,7.9611 Z" stroke="#000000" stroke-width="0.1201" stroke-linecap="round" stroke-linejoin="round" fill="#E2E2CC"/>
        <path d="M 10.5048,8.6772 L 10.5048,8.3683 L 10.5751,8.3683 L 10.5751,8.6772 L 10.5048,8.6772 Z" stroke="#000000" stroke-width="0.1201" stroke-linecap="round" stroke-linejoin="round" fill="#E2E2CC"/>
        <path d="M 10.9407,9.0142 L 10.9688,9.0142 L 10.9970,9.0001 L 11.0110,8.9721 L 11.0110,5.9954 L 10.9970,5.9673 L 10.9688,5.9533 L 10.6173,5.9533 L 10.5891,5.9673 L 10.5751,5.9954 L 10.5751,8.9721 L 10.5891,9.0001 L 10.6173,9.0142 L 10.6454,9.0142 L 10.9407,9.0142 Z" stroke="#000000" stroke-width="0.1201" stroke-linecap="round" stroke-linejoin="round" fill="#0000FF"/>
        <path d="M 10.8001,8.9019 L 10.8563,8.8878 L 10.9126,8.8316 L 10.9266,8.7755 L 10.9266,6.1920 L 10.9126,6.1358 L 10.8563,6.0797 L 10.8001,6.0656 L 10.7438,6.0797 L 10.6876,6.1358 L 10.6735,6.1920 L 10.6735,8.7755 L 10.6876,8.8316 L 10.7438,8.8878 L 10.8001,8.9019 Z" stroke="#6565FF" stroke-width="0.1201" stroke-linecap="round" stroke-linejoin="round" fill="#6565FF"/>
        <path d="M 12.8793,9.0153 L 12.8793,6.8965 L 13.7723,6.8965 L 13.7723,6.3980 L 14.1351,6.3980 L 14.1351,5.8994 L 15.1956,5.8994 L 15.1956,6.3980 L 15.5584,6.3980 L 15.5584,6.8965 L 16.4514,6.8965 L 16.4514,9.0153 L 12.8793,9.0153 Z" stroke="#161616" stroke-width="0.1201" stroke-linecap="round" stroke-linejoin="round" fill="#000000"/>
        <path d="M 18.3910,9.0153 L 18.3910,6.8965 L 19.2840,6.8965 L 19.2840,6.3980 L 19.6468,6.3980 L 19.6468,5.8994 L 20.7073,5.8994 L 20.7073,6.3980 L 21.0701,6.3980 L 21.0701,6.8965 L 21.9631,6.8965 L 21.9631,9.0153 L 18.3910,9.0153 Z" stroke="#161616" stroke-width="0.1201" stroke-linecap="round" stroke-linejoin="round" fill="#000000"/>
        <path d="M 22.7306,9.0153 L 22.7306,6.8965 L 23.6236,6.8965 L 23.6236,6.3980 L 23.9864,6.3980 L 23.9864,5.8994 L 25.0469,5.8994 L 25.0469,6.3980 L 25.4097,6.3980 L 25.4097,6.8965 L 26.3027,6.8965 L 26.3027,9.0153 L 22.7306,9.0153 Z" stroke="#161616" stroke-width="0.1201" stroke-linecap="round" stroke-linejoin="round" fill="#000000"/>
        <path d="M 27.0562,9.0153 L 27.0562,6.8965 L 27.9492,6.8965 L 27.9492,6.3980 L 28.3120,6.3980 L 28.3120,5.8994 L 29.3725,5.8994 L 29.3725,6.3980 L 29.7353,6.3980 L 29.7353,6.8965 L 30.6284,6.8965 L 30.6284,9.0153 L 27.0562,9.0153 Z" stroke="#161616" stroke-width="0.1201" stroke-linecap="round" stroke-linejoin="round" fill="#000000"/>
        <path d="M 31.3818,9.0153 L 31.3818,6.8965 L 32.2749,6.8965 L 32.2749,6.3980 L 32.6377,6.3980 L 32.6377,5.8994 L 33.6982,5.8994 L 33.6982,6.3980 L 34.0610,6.3980 L 34.0610,6.8965 L 34.9540,6.8965 L 34.9540,9.0153 L 31.3818,9.0153 Z" stroke="#161616" stroke-width="0.1201" stroke-linecap="round" stroke-linejoin="round" fill="#000000"/>
        <path d="M 37.6889,9.0153 L 37.6889,6.8965 L 38.5820,6.8965 L 38.5820,6.3980 L 38.9447,6.3980 L 38.9447,5.8994 L 40.0052,5.8994 L 40.0052,6.3980 L 40.3680,6.3980 L 40.3680,6.8965 L 41.2611,6.8965 L 41.2611,9.0153 L 37.6889,9.0153 Z" stroke="#161616" stroke-width="0.1201" stroke-linecap="round" stroke-linejoin="round" fill="#000000"/>
        <path d="M 43.2006,9.0153 L 43.2006,6.8965 L 44.0937,6.8965 L 44.0937,6.3980 L 44.4565,6.3980 L 44.4565,5.8994 L 45.5169,5.8994 L 45.5169,6.3980 L 45.8797,6.3980 L 45.8797,6.8965 L 46.7728,6.8965 L 46.7728,9.0153 L 43.2006,9.0153 Z" stroke="#161616" stroke-width="0.1201" stroke-linecap="round" stroke-linejoin="round" fill="#000000"/>
        <path d="M 52.6223,9.2297 L 48.6566,9.2297 L 48.6566,6.5630 L 52.6223,6.5630 L 52.6223,9.2297 Z" stroke="#000000" stroke-width="0.1201" stroke-linecap="round" stroke-linejoin="round" fill="none"/>
        <path d="M 48.6532,6.5630 L 52.5632,6.5630 L 52.5632,9.2297 L 48.6532,9.2297 L 48.6532,6.5630 Z" stroke="#000000" stroke-width="0.1201" stroke-linecap="round" stroke-linejoin="round" fill="#DDDDDD"/>
        <path d="M 48.7716,6.6272 L 52.4566,6.6272 L 52.4566,9.1827 L 48.7716,9.1827 L 48.7716,6.6272 Z" stroke="#000000" stroke-width="0.1201" stroke-linecap="round" stroke-linejoin="round" fill="#999974"/>
        <path d="M 48.8266,8.9440 L 48.8266,8.9861 L 48.8679,9.0703 L 48.9504,9.1125 L 52.2779,9.1125 L 52.3604,9.0703 L 52.4016,8.9861 L 52.4016,6.8098 L 52.3604,6.7255 L 52.2779,6.6834 L 48.9504,6.6834 L 48.8679,6.7255 L 48.8266,6.8098 L 48.8266,6.8519 L 48.8266,8.9440 Z" stroke="#7F7F7F" stroke-width="0.1201" stroke-linecap="round" stroke-linejoin="round" fill="#CCCCB9"/>
        <path d="M 52.1816,6.8519 L 52.1816,8.3823 L 52.0579,8.3823 L 52.0579,8.5368 L 52.1816,8.5368 L 52.1816,8.7755 L 51.9204,8.7755 L 51.9204,9.0563 L 51.0266,9.0563 L 51.0266,8.7755 L 50.7516,8.7755 L 50.7516,8.5368 L 50.8754,8.5368 L 50.8754,8.3823 L 50.7516,8.3823 L 50.7516,6.8519 L 52.1816,6.8519 Z" stroke="#000000" stroke-width="0.1201" stroke-linecap="round" stroke-linejoin="round" fill="#938476"/>
        <path d="M 52.1816,8.6491 L 52.1816,8.7755 L 51.9204,8.7755 L 51.9204,9.0703 L 51.0266,9.0703 L 51.0266,8.7755 L 50.7516,8.7755 L 50.7516,8.6491 L 52.1816,8.6491 Z" stroke="#000000" stroke-width="0.1201" stroke-linecap="round" stroke-linejoin="round" fill="#938476"/>
        <path d="M 52.1816,8.6491 L 52.1816,8.5930 L 50.7516,8.5930 L 50.7516,8.6491 L 52.1816,8.6491 Z" stroke="#000000" stroke-width="0.1201" stroke-linecap="round" stroke-linejoin="round" fill="#706257"/>
        <path d="M 52.1816,8.0032 L 50.7791,8.0032 " stroke="#000000" stroke-width="0.1201" stroke-linecap="round" stroke-linejoin="round" fill="none"/>
        <path d="M 50.9579,6.8519 L 50.9029,6.9081 L 50.8891,6.9361 L 50.8616,6.9642 L 50.8479,6.9923 L 50.8341,7.0344 L 50.8066,7.0906 L 50.7929,7.1327 L 50.7654,7.1889 L 50.7654,7.2591 L 50.7516,7.3012 L 50.7516,7.4416 L 50.7654,7.4837 L 50.7654,7.5539 L 50.7929,7.6101 L 50.8066,7.6522 L 50.8341,7.7084 L 50.8479,7.7505 L 50.8616,7.7786 L 50.8891,7.8067 L 50.9029,7.8348 L 51.0129,7.9471 L 51.0404,7.9611 L 51.0679,7.9892 L 51.0954,8.0032 L 51.1366,8.0173 L 51.1916,8.0454 L 51.2329,8.0594 L 51.2879,8.0875 L 51.3566,8.0875 L 51.3979,8.1015 L 51.5354,8.1015 L 51.5766,8.0875 L 51.6454,8.0875 L 51.7004,8.0594 L 51.7416,8.0454 L 51.7966,8.0173 L 51.8379,8.0032 L 51.8654,7.9892 L 51.8929,7.9611 L 51.9204,7.9471 L 52.0304,7.8348 L 52.0441,7.8067 L 52.0716,7.7786 L 52.0854,7.7505 L 52.0991,7.7084 L 52.1266,7.6522 L 52.1404,7.6101 L 52.1679,7.5539 L 52.1679,7.4837 L 52.1816,7.4416 L 52.1816,7.3012 L 52.1679,7.2591 L 52.1679,7.1889 L 52.1404,7.1327 L 52.1266,7.0906 L 52.0991,7.0344 L 52.0854,6.9923 L 52.0716,6.9642 L 52.0441,6.9361 L 52.0304,6.9081 L 51.9754,6.8519 L 50.9716,6.8519 L 50.9579,6.8519 Z" stroke="#000000" stroke-width="0.1201" stroke-linecap="round" stroke-linejoin="round" fill="#A09183"/>
        <ellipse cx="51.4048" cy="7.3152" rx="0.2819" ry="0.2949" fill="none" stroke="#494949" stroke-width="0.1201" stroke-linecap="round" stroke-linejoin="round"/>
        <ellipse cx="51.4048" cy="7.3152" rx="0.1719" ry="0.1825" fill="#706257" stroke="#000000" stroke-width="0.1201" stroke-linecap="round" stroke-linejoin="round"/>
        <ellipse cx="51.4048" cy="7.3152" rx="0.1719" ry="0.1825" fill="none" stroke="#000000" stroke-width="0.1201" stroke-linecap="round" stroke-linejoin="round"/>
        <ellipse cx="51.4048" cy="7.3152" rx="0.1581" ry="0.1685" fill="#9B8C81" stroke="#000000" stroke-width="0.1201" stroke-linecap="round" stroke-linejoin="round"/>
        <ellipse cx="51.4048" cy="7.3152" rx="0.1581" ry="0.1685" fill="none" stroke="#000000" stroke-width="0.1201" stroke-linecap="round" stroke-linejoin="round"/>
        <path d="M 51.4254,7.5820 L 51.4941,7.5820 L 51.4941,7.1468 L 51.4254,7.1468 L 51.4254,7.5820 Z" stroke="#000000" stroke-width="0.1201" stroke-linecap="round" stroke-linejoin="round" fill="#4F443C"/>
        <path d="M 50.5316,6.8519 L 50.5316,8.3823 L 50.4079,8.3823 L 50.4079,8.5368 L 50.5316,8.5368 L 50.5316,8.7755 L 50.2704,8.7755 L 50.2704,9.0563 L 49.3766,9.0563 L 49.3766,8.7755 L 49.1016,8.7755 L 49.1016,8.5368 L 49.2254,8.5368 L 49.2254,8.3823 L 49.1016,8.3823 L 49.1016,6.8519 L 50.5316,6.8519 Z" stroke="#000000" stroke-width="0.1201" stroke-linecap="round" stroke-linejoin="round" fill="#938476"/>
        <path d="M 50.5316,8.6491 L 50.5316,8.7755 L 50.2704,8.7755 L 50.2704,9.0703 L 49.3766,9.0703 L 49.3766,8.7755 L 49.1016,8.7755 L 49.1016,8.6491 L 50.5316,8.6491 Z" stroke="#000000" stroke-width="0.1201" stroke-linecap="round" stroke-linejoin="round" fill="#938476"/>
        <path d="M 50.5316,8.6491 L 50.5316,8.5930 L 49.1016,8.5930 L 49.1016,8.6491 L 50.5316,8.6491 Z" stroke="#000000" stroke-width="0.1201" stroke-linecap="round" stroke-linejoin="round" fill="#706257"/>
        <path d="M 50.5316,8.0032 L 49.1291,8.0032 " stroke="#000000" stroke-width="0.1201" stroke-linecap="round" stroke-linejoin="round" fill="none"/>
        <path d="M 49.3079,6.8519 L 49.2529,6.9081 L 49.2391,6.9361 L 49.2116,6.9642 L 49.1979,6.9923 L 49.1841,7.0344 L 49.1566,7.0906 L 49.1429,7.1327 L 49.1154,7.1889 L 49.1154,7.2591 L 49.1016,7.3012 L 49.1016,7.4416 L 49.1154,7.4837 L 49.1154,7.5539 L 49.1429,7.6101 L 49.1566,7.6522 L 49.1841,7.7084 L 49.1979,7.7505 L 49.2116,7.7786 L 49.2391,7.8067 L 49.2529,7.8348 L 49.3629,7.9471 L 49.3904,7.9611 L 49.4179,7.9892 L 49.4454,8.0032 L 49.4866,8.0173 L 49.5416,8.0454 L 49.5829,8.0594 L 49.6379,8.0875 L 49.7066,8.0875 L 49.7479,8.1015 L 49.8854,8.1015 L 49.9266,8.0875 L 49.9954,8.0875 L 50.0504,8.0594 L 50.0916,8.0454 L 50.1466,8.0173 L 50.1879,8.0032 L 50.2154,7.9892 L 50.2429,7.9611 L 50.2704,7.9471 L 50.3804,7.8348 L 50.3941,7.8067 L 50.4216,7.7786 L 50.4354,7.7505 L 50.4491,7.7084 L 50.4766,7.6522 L 50.4904,7.6101 L 50.5179,7.5539 L 50.5179,7.4837 L 50.5316,7.4416 L 50.5316,7.3012 L 50.5179,7.2591 L 50.5179,7.1889 L 50.4904,7.1327 L 50.4766,7.0906 L 50.4491,7.0344 L 50.4354,6.9923 L 50.4216,6.9642 L 50.3941,6.9361 L 50.3804,6.9081 L 50.3254,6.8519 L 49.3216,6.8519 L 49.3079,6.8519 Z" stroke="#000000" stroke-width="0.1201" stroke-linecap="round" stroke-linejoin="round" fill="#A09183"/>
        <ellipse cx="49.7547" cy="7.3152" rx="0.2819" ry="0.2949" fill="none" stroke="#494949" stroke-width="0.1201" stroke-linecap="round" stroke-linejoin="round"/>
        <ellipse cx="49.7547" cy="7.3152" rx="0.1719" ry="0.1825" fill="#706257" stroke="#000000" stroke-width="0.1201" stroke-linecap="round" stroke-linejoin="round"/>
        <ellipse cx="49.7547" cy="7.3152" rx="0.1719" ry="0.1825" fill="none" stroke="#000000" stroke-width="0.1201" stroke-linecap="round" stroke-linejoin="round"/>
        <ellipse cx="49.7616" cy="7.3152" rx="0.1650" ry="0.1685" fill="#9B8C81" stroke="#000000" stroke-width="0.1201" stroke-linecap="round" stroke-linejoin="round"/>
        <ellipse cx="49.7616" cy="7.3152" rx="0.1650" ry="0.1685" fill="none" stroke="#000000" stroke-width="0.1201" stroke-linecap="round" stroke-linejoin="round"/>
        <path d="M 49.7754,7.5820 L 49.8441,7.5820 L 49.8441,7.1468 L 49.7754,7.1468 L 49.7754,7.5820 Z" stroke="#000000" stroke-width="0.1201" stroke-linecap="round" stroke-linejoin="round" fill="#4F443C"/>
        <path d="M 56.7285,9.2297 L 52.7629,9.2297 L 52.7629,6.5630 L 56.7285,6.5630 L 56.7285,9.2297 Z" stroke="#000000" stroke-width="0.1201" stroke-linecap="round" stroke-linejoin="round" fill="none"/>
        <path d="M 52.7712,6.5630 L 56.6812,6.5630 L 56.6812,9.2297 L 52.7712,9.2297 L 52.7712,6.5630 Z" stroke="#000000" stroke-width="0.1201" stroke-linecap="round" stroke-linejoin="round" fill="#DDDDDD"/>
        <path d="M 52.8691,6.6272 L 56.5542,6.6272 L 56.5542,9.1827 L 52.8691,9.1827 L 52.8691,6.6272 Z" stroke="#000000" stroke-width="0.1201" stroke-linecap="round" stroke-linejoin="round" fill="#999974"/>
        <path d="M 52.9241,8.9440 L 52.9241,8.9861 L 52.9654,9.0703 L 53.0479,9.1125 L 56.3754,9.1125 L 56.4579,9.0703 L 56.4992,8.9861 L 56.4992,6.8098 L 56.4579,6.7255 L 56.3754,6.6834 L 53.0479,6.6834 L 52.9654,6.7255 L 52.9241,6.8098 L 52.9241,6.8519 L 52.9241,8.9440 Z" stroke="#7F7F7F" stroke-width="0.1201" stroke-linecap="round" stroke-linejoin="round" fill="#CCCCB9"/>
        <path d="M 56.2792,6.8519 L 56.2792,8.3823 L 56.1554,8.3823 L 56.1554,8.5368 L 56.2792,8.5368 L 56.2792,8.7755 L 56.0179,8.7755 L 56.0179,9.0563 L 55.1242,9.0563 L 55.1242,8.7755 L 54.8492,8.7755 L 54.8492,8.5368 L 54.9729,8.5368 L 54.9729,8.3823 L 54.8492,8.3823 L 54.8492,6.8519 L 56.2792,6.8519 Z" stroke="#000000" stroke-width="0.1201" stroke-linecap="round" stroke-linejoin="round" fill="#938476"/>
        <path d="M 56.2792,8.6491 L 56.2792,8.7755 L 56.0179,8.7755 L 56.0179,9.0703 L 55.1242,9.0703 L 55.1242,8.7755 L 54.8492,8.7755 L 54.8492,8.6491 L 56.2792,8.6491 Z" stroke="#000000" stroke-width="0.1201" stroke-linecap="round" stroke-linejoin="round" fill="#938476"/>
        <path d="M 56.2792,8.6491 L 56.2792,8.5930 L 54.8492,8.5930 L 54.8492,8.6491 L 56.2792,8.6491 Z" stroke="#000000" stroke-width="0.1201" stroke-linecap="round" stroke-linejoin="round" fill="#706257"/>
        <path d="M 56.2792,8.0032 L 54.8767,8.0032 " stroke="#000000" stroke-width="0.1201" stroke-linecap="round" stroke-linejoin="round" fill="none"/>
        <path d="M 55.0554,6.8519 L 55.0004,6.9081 L 54.9867,6.9361 L 54.9592,6.9642 L 54.9454,6.9923 L 54.9317,7.0344 L 54.9042,7.0906 L 54.8904,7.1327 L 54.8629,7.1889 L 54.8629,7.2591 L 54.8492,7.3012 L 54.8492,7.4416 L 54.8629,7.4837 L 54.8629,7.5539 L 54.8904,7.6101 L 54.9042,7.6522 L 54.9317,7.7084 L 54.9454,7.7505 L 54.9592,7.7786 L 54.9867,7.8067 L 55.0004,7.8348 L 55.1104,7.9471 L 55.1379,7.9611 L 55.1654,7.9892 L 55.1929,8.0032 L 55.2342,8.0173 L 55.2892,8.0454 L 55.3304,8.0594 L 55.3854,8.0875 L 55.4542,8.0875 L 55.4954,8.1015 L 55.6329,8.1015 L 55.6742,8.0875 L 55.7429,8.0875 L 55.7979,8.0594 L 55.8392,8.0454 L 55.8942,8.0173 L 55.9354,8.0032 L 55.9629,7.9892 L 55.9904,7.9611 L 56.0179,7.9471 L 56.1279,7.8348 L 56.1417,7.8067 L 56.1692,7.7786 L 56.1829,7.7505 L 56.1967,7.7084 L 56.2242,7.6522 L 56.2379,7.6101 L 56.2654,7.5539 L 56.2654,7.4837 L 56.2792,7.4416 L 56.2792,7.3012 L 56.2654,7.2591 L 56.2654,7.1889 L 56.2379,7.1327 L 56.2242,7.0906 L 56.1967,7.0344 L 56.1829,6.9923 L 56.1692,6.9642 L 56.1417,6.9361 L 56.1279,6.9081 L 56.0729,6.8519 L 55.0692,6.8519 L 55.0554,6.8519 Z" stroke="#000000" stroke-width="0.1201" stroke-linecap="round" stroke-linejoin="round" fill="#A09183"/>
        <ellipse cx="55.5092" cy="7.3152" rx="0.2888" ry="0.2949" fill="none" stroke="#494949" stroke-width="0.1201" stroke-linecap="round" stroke-linejoin="round"/>
        <ellipse cx="55.5023" cy="7.3152" rx="0.1719" ry="0.1825" fill="#706257" stroke="#000000" stroke-width="0.1201" stroke-linecap="round" stroke-linejoin="round"/>
        <ellipse cx="55.5023" cy="7.3152" rx="0.1719" ry="0.1825" fill="none" stroke="#000000" stroke-width="0.1201" stroke-linecap="round" stroke-linejoin="round"/>
        <ellipse cx="55.5023" cy="7.3152" rx="0.1581" ry="0.1685" fill="#9B8C81" stroke="#000000" stroke-width="0.1201" stroke-linecap="round" stroke-linejoin="round"/>
        <ellipse cx="55.5023" cy="7.3152" rx="0.1581" ry="0.1685" fill="none" stroke="#000000" stroke-width="0.1201" stroke-linecap="round" stroke-linejoin="round"/>
        <path d="M 55.5229,7.5820 L 55.5917,7.5820 L 55.5917,7.1468 L 55.5229,7.1468 L 55.5229,7.5820 Z" stroke="#000000" stroke-width="0.1201" stroke-linecap="round" stroke-linejoin="round" fill="#4F443C"/>
        <path d="M 54.6292,6.8519 L 54.6292,8.3823 L 54.5054,8.3823 L 54.5054,8.5368 L 54.6292,8.5368 L 54.6292,8.7755 L 54.3679,8.7755 L 54.3679,9.0563 L 53.4741,9.0563 L 53.4741,8.7755 L 53.1991,8.7755 L 53.1991,8.5368 L 53.3229,8.5368 L 53.3229,8.3823 L 53.1991,8.3823 L 53.1991,6.8519 L 54.6292,6.8519 Z" stroke="#000000" stroke-width="0.1201" stroke-linecap="round" stroke-linejoin="round" fill="#938476"/>
        <path d="M 54.6292,8.6491 L 54.6292,8.7755 L 54.3679,8.7755 L 54.3679,9.0703 L 53.4741,9.0703 L 53.4741,8.7755 L 53.1991,8.7755 L 53.1991,8.6491 L 54.6292,8.6491 Z" stroke="#000000" stroke-width="0.1201" stroke-linecap="round" stroke-linejoin="round" fill="#938476"/>
        <path d="M 54.6292,8.6491 L 54.6292,8.5930 L 53.1991,8.5930 L 53.1991,8.6491 L 54.6292,8.6491 Z" stroke="#000000" stroke-width="0.1201" stroke-linecap="round" stroke-linejoin="round" fill="#706257"/>
        <path d="M 54.6292,8.0032 L 53.2266,8.0032 " stroke="#000000" stroke-width="0.1201" stroke-linecap="round" stroke-linejoin="round" fill="none"/>
        <path d="M 53.4054,6.8519 L 53.3504,6.9081 L 53.3366,6.9361 L 53.3091,6.9642 L 53.2954,6.9923 L 53.2816,7.0344 L 53.2541,7.0906 L 53.2404,7.1327 L 53.2129,7.1889 L 53.2129,7.2591 L 53.1991,7.3012 L 53.1991,7.4416 L 53.2129,7.4837 L 53.2129,7.5539 L 53.2404,7.6101 L 53.2541,7.6522 L 53.2816,7.7084 L 53.2954,7.7505 L 53.3091,7.7786 L 53.3366,7.8067 L 53.3504,7.8348 L 53.4604,7.9471 L 53.4879,7.9611 L 53.5154,7.9892 L 53.5429,8.0032 L 53.5841,8.0173 L 53.6391,8.0454 L 53.6804,8.0594 L 53.7354,8.0875 L 53.8041,8.0875 L 53.8454,8.1015 L 53.9829,8.1015 L 54.0241,8.0875 L 54.0929,8.0875 L 54.1479,8.0594 L 54.1891,8.0454 L 54.2441,8.0173 L 54.2854,8.0032 L 54.3129,7.9892 L 54.3404,7.9611 L 54.3679,7.9471 L 54.4779,7.8348 L 54.4917,7.8067 L 54.5192,7.7786 L 54.5329,7.7505 L 54.5467,7.7084 L 54.5742,7.6522 L 54.5879,7.6101 L 54.6154,7.5539 L 54.6154,7.4837 L 54.6292,7.4416 L 54.6292,7.3012 L 54.6154,7.2591 L 54.6154,7.1889 L 54.5879,7.1327 L 54.5742,7.0906 L 54.5467,7.0344 L 54.5329,6.9923 L 54.5192,6.9642 L 54.4917,6.9361 L 54.4779,6.9081 L 54.4229,6.8519 L 53.4191,6.8519 L 53.4054,6.8519 Z" stroke="#000000" stroke-width="0.1201" stroke-linecap="round" stroke-linejoin="round" fill="#A09183"/>
        <ellipse cx="53.8523" cy="7.3152" rx="0.2819" ry="0.2949" fill="none" stroke="#494949" stroke-width="0.1201" stroke-linecap="round" stroke-linejoin="round"/>
        <ellipse cx="53.8523" cy="7.3152" rx="0.1719" ry="0.1825" fill="#706257" stroke="#000000" stroke-width="0.1201" stroke-linecap="round" stroke-linejoin="round"/>
        <ellipse cx="53.8523" cy="7.3152" rx="0.1719" ry="0.1825" fill="none" stroke="#000000" stroke-width="0.1201" stroke-linecap="round" stroke-linejoin="round"/>
        <ellipse cx="53.8591" cy="7.3152" rx="0.1650" ry="0.1685" fill="#9B8C81" stroke="#000000" stroke-width="0.1201" stroke-linecap="round" stroke-linejoin="round"/>
        <ellipse cx="53.8591" cy="7.3152" rx="0.1650" ry="0.1685" fill="none" stroke="#000000" stroke-width="0.1201" stroke-linecap="round" stroke-linejoin="round"/>
        <path d="M 53.8729,7.5820 L 53.9416,7.5820 L 53.9416,7.1468 L 53.8729,7.1468 L 53.8729,7.5820 Z" stroke="#000000" stroke-width="0.1201" stroke-linecap="round" stroke-linejoin="round" fill="#4F443C"/>
      </g>
      <!--emf-blob end-->
    </g>
  </g>
</svg>
