<svg xmlns="http://www.w3.org/2000/svg" xmlns:xlink="http://www.w3.org/1999/xlink" version="1.1" width="6.9088000000" height="4.0000000000" viewBox="0 0 124.3559 72.0000">
  <title><![CDATA[FIM-7904E]]></title>
  <g transform=" scale(4.000000) ">
    <!--converted by libvisio2svg-->
    <g transform=" translate(0.000000,22.563800) ">
      <!--emf-blob start-->
      <g transform="translate(-0.0000, -0.0000)">
        <path d="M 120.9410,11.4967 L 124.2568,11.4967 L 124.2568,4.2445 L 120.9410,4.2445 L 120.9410,11.4967 Z" stroke="#000000" stroke-width="0.1200" stroke-linecap="round" stroke-linejoin="round" fill="#BFBFBF"/>
        <path d="M 122.8096,11.4967 L 124.2568,11.4967 L 124.2568,4.2445 L 122.8096,4.2445 L 122.8096,11.4967 Z" stroke="#000000" stroke-width="0.1200" stroke-linecap="round" stroke-linejoin="round" fill="#EAEAEA"/>
        <ellipse cx="121.8753" cy="10.3372" rx="0.7095" ry="0.7098" fill="#666666" stroke="#000000" stroke-width="0.1200" stroke-linecap="round" stroke-linejoin="round"/>
        <ellipse cx="121.8753" cy="10.3372" rx="0.7095" ry="0.7098" fill="none" stroke="#000000" stroke-width="0.1200" stroke-linecap="round" stroke-linejoin="round"/>
        <ellipse cx="121.8823" cy="10.3442" rx="0.6463" ry="0.6465" fill="#DDDDDD" stroke="#000000" stroke-width="0.1200" stroke-linecap="round" stroke-linejoin="round"/>
        <ellipse cx="121.8823" cy="10.3442" rx="0.6463" ry="0.6465" fill="none" stroke="#7F7F7F" stroke-width="0.1200" stroke-linecap="round" stroke-linejoin="round"/>
        <path d="M 121.3906,10.2880 L 121.3625,10.2880 L 121.3625,10.3020 L 121.3344,10.3020 L 121.3344,10.3301 L 121.3203,10.3301 L 121.3203,10.4707 L 121.3344,10.4707 L 121.3344,10.4988 L 121.3625,10.4988 L 121.3625,10.5128 L 121.8261,10.5128 L 121.8261,10.9766 L 121.8402,10.9907 L 121.8402,11.0048 L 121.8542,11.0048 L 121.8542,11.0188 L 121.8823,11.0188 L 121.8823,11.0329 L 121.9947,11.0329 L 121.9947,11.0188 L 122.0228,11.0188 L 122.0228,11.0048 L 122.0369,11.0048 L 122.0369,10.9907 L 122.0509,10.9766 L 122.0509,10.5128 L 122.5146,10.5128 L 122.5286,10.4988 L 122.5427,10.4988 L 122.5427,10.4847 L 122.5567,10.4847 L 122.5567,10.4566 L 122.5708,10.4566 L 122.5708,10.3442 L 122.5567,10.3442 L 122.5567,10.3161 L 122.5427,10.3161 L 122.5427,10.3020 L 122.5286,10.3020 L 122.5146,10.2880 L 122.0509,10.2880 L 122.0509,9.8242 L 122.0369,9.8242 L 122.0369,9.7961 L 122.0088,9.7961 L 122.0088,9.7820 L 121.8683,9.7820 L 121.8683,9.7961 L 121.8402,9.7961 L 121.8402,9.8242 L 121.8261,9.8242 L 121.8261,10.2880 L 121.4046,10.2880 L 121.3906,10.2880 Z" stroke="#161616" stroke-width="0.1200" stroke-linecap="round" stroke-linejoin="round" fill="#494949"/>
        <path d="M 121.5170,8.4749 L 121.5170,5.9170 L 121.1798,5.9170 L 121.8823,4.8488 L 122.5848,5.9170 L 122.2195,5.9170 L 122.2195,8.4749 L 121.5170,8.4749 Z" stroke="#000000" stroke-width="0.1200" stroke-linecap="round" stroke-linejoin="round" fill="none"/>
        <path d="M 3.3158,11.4967 L 0.0000,11.4967 L 0.0000,4.2445 L 3.3158,4.2445 L 3.3158,11.4967 Z" stroke="#000000" stroke-width="0.1200" stroke-linecap="round" stroke-linejoin="round" fill="#BFBFBF"/>
        <path d="M 1.4471,11.4967 L 0.0000,11.4967 L 0.0000,4.2445 L 1.4471,4.2445 L 1.4471,11.4967 Z" stroke="#000000" stroke-width="0.1200" stroke-linecap="round" stroke-linejoin="round" fill="#EAEAEA"/>
        <ellipse cx="2.2550" cy="10.3372" rx="0.7095" ry="0.7098" fill="#666666" stroke="#000000" stroke-width="0.1200" stroke-linecap="round" stroke-linejoin="round"/>
        <ellipse cx="2.2550" cy="10.3372" rx="0.7095" ry="0.7098" fill="none" stroke="#000000" stroke-width="0.1200" stroke-linecap="round" stroke-linejoin="round"/>
        <ellipse cx="2.2620" cy="10.3442" rx="0.6463" ry="0.6465" fill="#DDDDDD" stroke="#000000" stroke-width="0.1200" stroke-linecap="round" stroke-linejoin="round"/>
        <ellipse cx="2.2620" cy="10.3442" rx="0.6463" ry="0.6465" fill="none" stroke="#7F7F7F" stroke-width="0.1200" stroke-linecap="round" stroke-linejoin="round"/>
        <path d="M 2.8662,10.2880 L 2.8943,10.2880 L 2.8943,10.3020 L 2.9224,10.3020 L 2.9224,10.3301 L 2.9364,10.3301 L 2.9364,10.4707 L 2.9224,10.4707 L 2.9224,10.4988 L 2.8943,10.4988 L 2.8943,10.5128 L 2.4306,10.5128 L 2.4306,10.9766 L 2.4166,10.9907 L 2.4166,11.0048 L 2.4025,11.0048 L 2.4025,11.0188 L 2.3744,11.0188 L 2.3744,11.0329 L 2.2620,11.0329 L 2.2620,11.0188 L 2.2339,11.0188 L 2.2339,11.0048 L 2.2199,11.0048 L 2.2199,10.9907 L 2.2058,10.9766 L 2.2058,10.5128 L 1.7422,10.5128 L 1.7281,10.4988 L 1.7141,10.4988 L 1.7141,10.4847 L 1.7000,10.4847 L 1.7000,10.4566 L 1.6860,10.4566 L 1.6860,10.3442 L 1.7000,10.3442 L 1.7000,10.3161 L 1.7141,10.3161 L 1.7141,10.3020 L 1.7281,10.3020 L 1.7422,10.2880 L 2.2058,10.2880 L 2.2058,9.8242 L 2.2199,9.8242 L 2.2199,9.7961 L 2.2480,9.7961 L 2.2480,9.7820 L 2.3885,9.7820 L 2.3885,9.7961 L 2.4166,9.7961 L 2.4166,9.8242 L 2.4306,9.8242 L 2.4306,10.2880 L 2.8521,10.2880 L 2.8662,10.2880 Z" stroke="#161616" stroke-width="0.1200" stroke-linecap="round" stroke-linejoin="round" fill="#494949"/>
        <path d="M 2.7397,8.4749 L 2.7397,5.9170 L 3.0769,5.9170 L 2.3744,4.8488 L 1.6719,5.9170 L 2.0372,5.9170 L 2.0372,8.4749 L 2.7397,8.4749 Z" stroke="#000000" stroke-width="0.1200" stroke-linecap="round" stroke-linejoin="round" fill="none"/>
        <path d="M 3.6811,0.0000 L 3.6249,0.0000 L 3.6108,0.0141 L 3.5687,0.0141 L 3.5546,0.0281 L 3.5406,0.0281 L 3.5265,0.0422 L 3.5125,0.0422 L 3.4844,0.0703 L 3.4703,0.0703 L 3.3860,0.1546 L 3.3860,0.1687 L 3.3579,0.1968 L 3.3579,0.2108 L 3.3439,0.2249 L 3.3439,0.2389 L 3.3298,0.2530 L 3.3298,0.2951 L 3.3158,0.3092 L 3.3158,13.4081 L 120.9410,13.4081 L 120.9410,0.3092 L 120.9269,0.2951 L 120.9269,0.2530 L 120.9129,0.2389 L 120.9129,0.2249 L 120.8988,0.2108 L 120.8988,0.1968 L 120.8707,0.1687 L 120.8707,0.1546 L 120.7864,0.0703 L 120.7724,0.0703 L 120.7443,0.0422 L 120.7302,0.0422 L 120.7162,0.0281 L 120.7021,0.0281 L 120.6881,0.0141 L 120.6459,0.0141 L 120.6319,0.0000 L 4.0183,0.0000 L 3.6811,0.0000 Z" stroke="#000000" stroke-width="0.1200" stroke-linecap="round" stroke-linejoin="round" fill="#EAEAEA"/>
        <path d="M 19.6417,11.4967 L 3.3158,11.4967 L 3.3158,13.4081 L 19.6417,13.4081 L 19.6417,11.4967 Z" stroke="#000000" stroke-width="0.1200" stroke-linecap="round" stroke-linejoin="round" fill="#BFBFBF"/>
        <path d="M 19.6417,11.4967 L 16.7474,11.4967 L 16.7474,13.4081 L 19.6417,13.4081 L 19.6417,11.4967 Z" stroke="#000000" stroke-width="0.1200" stroke-linecap="round" stroke-linejoin="round" fill="#494949"/>
        <path d="M 120.9410,11.4967 L 104.6151,11.4967 L 104.6151,13.4081 L 120.9410,13.4081 L 120.9410,11.4967 Z" stroke="#000000" stroke-width="0.1200" stroke-linecap="round" stroke-linejoin="round" fill="#494949"/>
        <path d="M 107.5093,11.4967 L 104.6151,11.4967 L 104.6151,13.4081 L 107.5093,13.4081 L 107.5093,11.4967 Z" stroke="#000000" stroke-width="0.1200" stroke-linecap="round" stroke-linejoin="round" fill="#BFBFBF"/>
        <path d="M 3.3158,11.4967 L 7.0249,11.4967 L 7.0249,4.2445 L 3.3158,4.2445 L 3.3158,11.4967 Z" stroke="#000000" stroke-width="0.1200" stroke-linecap="round" stroke-linejoin="round" fill="#494949"/>
        <path d="M 6.4489,11.3561 L 3.5687,11.3561 L 3.5687,5.5656 L 6.4489,5.5656 L 6.4489,11.3561 Z" stroke="#000000" stroke-width="0.1200" stroke-linecap="round" stroke-linejoin="round" fill="#EAEAEA"/>
        <path d="M 4.5521,10.8361 L 4.5521,8.2782 L 4.7348,8.2782 L 4.3414,7.2100 L 3.9480,8.2782 L 4.1588,8.2782 L 4.1588,10.8361 L 4.5521,10.8361 Z" stroke="#333333" stroke-width="0.1200" stroke-linecap="round" stroke-linejoin="round" fill="#333333"/>
        <path d="M 117.2318,11.4967 L 120.9410,11.4967 L 120.9410,4.2445 L 117.2318,4.2445 L 117.2318,11.4967 Z" stroke="#000000" stroke-width="0.1200" stroke-linecap="round" stroke-linejoin="round" fill="#494949"/>
        <path d="M 120.3649,11.3561 L 117.4847,11.3561 L 117.4847,5.5656 L 120.3649,5.5656 L 120.3649,11.3561 Z" stroke="#000000" stroke-width="0.1200" stroke-linecap="round" stroke-linejoin="round" fill="#EAEAEA"/>
        <path d="M 118.4682,10.8361 L 118.4682,8.2782 L 118.6509,8.2782 L 118.2575,7.2100 L 117.8641,8.2782 L 118.0748,8.2782 L 118.0748,10.8361 L 118.4682,10.8361 Z" stroke="#333333" stroke-width="0.1200" stroke-linecap="round" stroke-linejoin="round" fill="#333333"/>
        <path d="M 16.6069,2.1222 L 15.6656,2.1222 L 15.6656,3.0639 L 16.6069,3.0639 L 16.6069,2.1222 Z" stroke="#000000" stroke-width="0.1200" stroke-linecap="round" stroke-linejoin="round" fill="#000000"/>
        <path d="M 18.0259,2.1363 L 17.0846,2.1363 L 17.0846,3.0780 L 18.0259,3.0780 L 18.0259,2.1363 Z" stroke="#000000" stroke-width="0.1200" stroke-linecap="round" stroke-linejoin="round" fill="#000000"/>
        <path d="M 19.4309,2.1363 L 18.4896,2.1363 L 18.4896,3.0780 L 19.4309,3.0780 L 19.4309,2.1363 Z" stroke="#000000" stroke-width="0.1200" stroke-linecap="round" stroke-linejoin="round" fill="#000000"/>
        <path d="M 20.8500,2.1363 L 19.9086,2.1363 L 19.9086,3.0780 L 20.8500,3.0780 L 20.8500,2.1363 Z" stroke="#000000" stroke-width="0.1200" stroke-linecap="round" stroke-linejoin="round" fill="#000000"/>
        <path d="M 22.2690,2.1363 L 21.3277,2.1363 L 21.3277,3.0780 L 22.2690,3.0780 L 22.2690,2.1363 Z" stroke="#000000" stroke-width="0.1200" stroke-linecap="round" stroke-linejoin="round" fill="#000000"/>
        <path d="M 23.6880,2.1363 L 22.7467,2.1363 L 22.7467,3.0780 L 23.6880,3.0780 L 23.6880,2.1363 Z" stroke="#000000" stroke-width="0.1200" stroke-linecap="round" stroke-linejoin="round" fill="#000000"/>
        <path d="M 25.0930,2.1363 L 24.1517,2.1363 L 24.1517,3.0780 L 25.0930,3.0780 L 25.0930,2.1363 Z" stroke="#000000" stroke-width="0.1200" stroke-linecap="round" stroke-linejoin="round" fill="#000000"/>
        <path d="M 26.5120,2.1363 L 25.5707,2.1363 L 25.5707,3.0780 L 26.5120,3.0780 L 26.5120,2.1363 Z" stroke="#000000" stroke-width="0.1200" stroke-linecap="round" stroke-linejoin="round" fill="#000000"/>
        <path d="M 47.7413,2.3612 L 46.8000,2.3612 L 46.8000,3.3028 L 47.7413,3.3028 L 47.7413,2.3612 Z" stroke="#000000" stroke-width="0.1200" stroke-linecap="round" stroke-linejoin="round" fill="#000000"/>
        <path d="M 49.1604,2.3612 L 48.2190,2.3612 L 48.2190,3.3028 L 49.1604,3.3028 L 49.1604,2.3612 Z" stroke="#000000" stroke-width="0.1200" stroke-linecap="round" stroke-linejoin="round" fill="#000000"/>
        <path d="M 50.5794,2.3612 L 49.6381,2.3612 L 49.6381,3.3028 L 50.5794,3.3028 L 50.5794,2.3612 Z" stroke="#000000" stroke-width="0.1200" stroke-linecap="round" stroke-linejoin="round" fill="#000000"/>
        <path d="M 51.9844,2.3612 L 51.0431,2.3612 L 51.0431,3.3028 L 51.9844,3.3028 L 51.9844,2.3612 Z" stroke="#000000" stroke-width="0.1200" stroke-linecap="round" stroke-linejoin="round" fill="#000000"/>
        <path d="M 53.4034,2.3612 L 52.4621,2.3612 L 52.4621,3.3028 L 53.4034,3.3028 L 53.4034,2.3612 Z" stroke="#000000" stroke-width="0.1200" stroke-linecap="round" stroke-linejoin="round" fill="#000000"/>
        <path d="M 54.8225,2.3612 L 53.8811,2.3612 L 53.8811,3.3028 L 54.8225,3.3028 L 54.8225,2.3612 Z" stroke="#000000" stroke-width="0.1200" stroke-linecap="round" stroke-linejoin="round" fill="#000000"/>
        <path d="M 56.2415,2.3612 L 55.3002,2.3612 L 55.3002,3.3028 L 56.2415,3.3028 L 56.2415,2.3612 Z" stroke="#000000" stroke-width="0.1200" stroke-linecap="round" stroke-linejoin="round" fill="#000000"/>
        <path d="M 57.6465,2.3612 L 56.7051,2.3612 L 56.7051,3.3028 L 57.6465,3.3028 L 57.6465,2.3612 Z" stroke="#000000" stroke-width="0.1200" stroke-linecap="round" stroke-linejoin="round" fill="#000000"/>
        <path d="M 59.0655,2.3612 L 58.1242,2.3612 L 58.1242,3.3028 L 59.0655,3.3028 L 59.0655,2.3612 Z" stroke="#000000" stroke-width="0.1200" stroke-linecap="round" stroke-linejoin="round" fill="#000000"/>
        <path d="M 60.4845,2.3612 L 59.5432,2.3612 L 59.5432,3.3028 L 60.4845,3.3028 L 60.4845,2.3612 Z" stroke="#000000" stroke-width="0.1200" stroke-linecap="round" stroke-linejoin="round" fill="#000000"/>
        <path d="M 61.9036,2.3612 L 60.9622,2.3612 L 60.9622,3.3028 L 61.9036,3.3028 L 61.9036,2.3612 Z" stroke="#000000" stroke-width="0.1200" stroke-linecap="round" stroke-linejoin="round" fill="#000000"/>
        <path d="M 63.3086,2.3612 L 62.3672,2.3612 L 62.3672,3.3028 L 63.3086,3.3028 L 63.3086,2.3612 Z" stroke="#000000" stroke-width="0.1200" stroke-linecap="round" stroke-linejoin="round" fill="#000000"/>
        <path d="M 64.7276,2.3612 L 63.7863,2.3612 L 63.7863,3.3028 L 64.7276,3.3028 L 64.7276,2.3612 Z" stroke="#000000" stroke-width="0.1200" stroke-linecap="round" stroke-linejoin="round" fill="#000000"/>
        <path d="M 66.1466,2.3612 L 65.2053,2.3612 L 65.2053,3.3028 L 66.1466,3.3028 L 66.1466,2.3612 Z" stroke="#000000" stroke-width="0.1200" stroke-linecap="round" stroke-linejoin="round" fill="#000000"/>
        <path d="M 67.5657,2.3612 L 66.6243,2.3612 L 66.6243,3.3028 L 67.5657,3.3028 L 67.5657,2.3612 Z" stroke="#000000" stroke-width="0.1200" stroke-linecap="round" stroke-linejoin="round" fill="#000000"/>
        <path d="M 68.9706,2.3612 L 68.0293,2.3612 L 68.0293,3.3028 L 68.9706,3.3028 L 68.9706,2.3612 Z" stroke="#000000" stroke-width="0.1200" stroke-linecap="round" stroke-linejoin="round" fill="#000000"/>
        <path d="M 70.3897,2.3612 L 69.4483,2.3612 L 69.4483,3.3028 L 70.3897,3.3028 L 70.3897,2.3612 Z" stroke="#000000" stroke-width="0.1200" stroke-linecap="round" stroke-linejoin="round" fill="#000000"/>
        <path d="M 71.8087,2.3612 L 70.8674,2.3612 L 70.8674,3.3028 L 71.8087,3.3028 L 71.8087,2.3612 Z" stroke="#000000" stroke-width="0.1200" stroke-linecap="round" stroke-linejoin="round" fill="#000000"/>
        <path d="M 73.2277,2.3612 L 72.2864,2.3612 L 72.2864,3.3028 L 73.2277,3.3028 L 73.2277,2.3612 Z" stroke="#000000" stroke-width="0.1200" stroke-linecap="round" stroke-linejoin="round" fill="#000000"/>
        <path d="M 74.6327,2.3612 L 73.6914,2.3612 L 73.6914,3.3028 L 74.6327,3.3028 L 74.6327,2.3612 Z" stroke="#000000" stroke-width="0.1200" stroke-linecap="round" stroke-linejoin="round" fill="#000000"/>
        <path d="M 76.0518,2.3612 L 75.1104,2.3612 L 75.1104,3.3028 L 76.0518,3.3028 L 76.0518,2.3612 Z" stroke="#000000" stroke-width="0.1200" stroke-linecap="round" stroke-linejoin="round" fill="#000000"/>
        <path d="M 77.4708,2.3612 L 76.5295,2.3612 L 76.5295,3.3028 L 77.4708,3.3028 L 77.4708,2.3612 Z" stroke="#000000" stroke-width="0.1200" stroke-linecap="round" stroke-linejoin="round" fill="#000000"/>
        <path d="M 78.8898,2.3612 L 77.9485,2.3612 L 77.9485,3.3028 L 78.8898,3.3028 L 78.8898,2.3612 Z" stroke="#000000" stroke-width="0.1200" stroke-linecap="round" stroke-linejoin="round" fill="#000000"/>
        <path d="M 80.2948,2.3612 L 79.3535,2.3612 L 79.3535,3.3028 L 80.2948,3.3028 L 80.2948,2.3612 Z" stroke="#000000" stroke-width="0.1200" stroke-linecap="round" stroke-linejoin="round" fill="#000000"/>
        <path d="M 81.7138,2.3612 L 80.7725,2.3612 L 80.7725,3.3028 L 81.7138,3.3028 L 81.7138,2.3612 Z" stroke="#000000" stroke-width="0.1200" stroke-linecap="round" stroke-linejoin="round" fill="#000000"/>
        <path d="M 83.1329,2.3612 L 82.1915,2.3612 L 82.1915,3.3028 L 83.1329,3.3028 L 83.1329,2.3612 Z" stroke="#000000" stroke-width="0.1200" stroke-linecap="round" stroke-linejoin="round" fill="#000000"/>
        <path d="M 84.5379,2.3612 L 83.5965,2.3612 L 83.5965,3.3028 L 84.5379,3.3028 L 84.5379,2.3612 Z" stroke="#000000" stroke-width="0.1200" stroke-linecap="round" stroke-linejoin="round" fill="#000000"/>
        <path d="M 85.9569,2.3612 L 85.0156,2.3612 L 85.0156,3.3028 L 85.9569,3.3028 L 85.9569,2.3612 Z" stroke="#000000" stroke-width="0.1200" stroke-linecap="round" stroke-linejoin="round" fill="#000000"/>
        <path d="M 87.3759,2.3612 L 86.4346,2.3612 L 86.4346,3.3028 L 87.3759,3.3028 L 87.3759,2.3612 Z" stroke="#000000" stroke-width="0.1200" stroke-linecap="round" stroke-linejoin="round" fill="#000000"/>
        <path d="M 88.7950,2.3612 L 87.8536,2.3612 L 87.8536,3.3028 L 88.7950,3.3028 L 88.7950,2.3612 Z" stroke="#000000" stroke-width="0.1200" stroke-linecap="round" stroke-linejoin="round" fill="#000000"/>
        <path d="M 90.1999,2.3612 L 89.2586,2.3612 L 89.2586,3.3028 L 90.1999,3.3028 L 90.1999,2.3612 Z" stroke="#000000" stroke-width="0.1200" stroke-linecap="round" stroke-linejoin="round" fill="#000000"/>
        <path d="M 91.6190,2.3612 L 90.6776,2.3612 L 90.6776,3.3028 L 91.6190,3.3028 L 91.6190,2.3612 Z" stroke="#000000" stroke-width="0.1200" stroke-linecap="round" stroke-linejoin="round" fill="#000000"/>
        <path d="M 93.0380,2.3612 L 92.0967,2.3612 L 92.0967,3.3028 L 93.0380,3.3028 L 93.0380,2.3612 Z" stroke="#000000" stroke-width="0.1200" stroke-linecap="round" stroke-linejoin="round" fill="#000000"/>
        <path d="M 94.4570,2.3612 L 93.5157,2.3612 L 93.5157,3.3028 L 94.4570,3.3028 L 94.4570,2.3612 Z" stroke="#000000" stroke-width="0.1200" stroke-linecap="round" stroke-linejoin="round" fill="#000000"/>
        <path d="M 95.8620,2.3612 L 94.9207,2.3612 L 94.9207,3.3028 L 95.8620,3.3028 L 95.8620,2.3612 Z" stroke="#000000" stroke-width="0.1200" stroke-linecap="round" stroke-linejoin="round" fill="#000000"/>
        <path d="M 97.2811,2.3612 L 96.3397,2.3612 L 96.3397,3.3028 L 97.2811,3.3028 L 97.2811,2.3612 Z" stroke="#000000" stroke-width="0.1200" stroke-linecap="round" stroke-linejoin="round" fill="#000000"/>
        <path d="M 98.7001,2.3612 L 97.7588,2.3612 L 97.7588,3.3028 L 98.7001,3.3028 L 98.7001,2.3612 Z" stroke="#000000" stroke-width="0.1200" stroke-linecap="round" stroke-linejoin="round" fill="#000000"/>
        <path d="M 100.1191,2.3612 L 99.1778,2.3612 L 99.1778,3.3028 L 100.1191,3.3028 L 100.1191,2.3612 Z" stroke="#000000" stroke-width="0.1200" stroke-linecap="round" stroke-linejoin="round" fill="#000000"/>
        <path d="M 101.5241,2.3612 L 100.5828,2.3612 L 100.5828,3.3028 L 101.5241,3.3028 L 101.5241,2.3612 Z" stroke="#000000" stroke-width="0.1200" stroke-linecap="round" stroke-linejoin="round" fill="#000000"/>
        <path d="M 102.9431,2.3612 L 102.0018,2.3612 L 102.0018,3.3028 L 102.9431,3.3028 L 102.9431,2.3612 Z" stroke="#000000" stroke-width="0.1200" stroke-linecap="round" stroke-linejoin="round" fill="#000000"/>
        <path d="M 104.3622,2.3612 L 103.4208,2.3612 L 103.4208,3.3028 L 104.3622,3.3028 L 104.3622,2.3612 Z" stroke="#000000" stroke-width="0.1200" stroke-linecap="round" stroke-linejoin="round" fill="#000000"/>
        <path d="M 105.7812,2.3612 L 104.8399,2.3612 L 104.8399,3.3028 L 105.7812,3.3028 L 105.7812,2.3612 Z" stroke="#000000" stroke-width="0.1200" stroke-linecap="round" stroke-linejoin="round" fill="#000000"/>
        <path d="M 107.1862,2.3612 L 106.2449,2.3612 L 106.2449,3.3028 L 107.1862,3.3028 L 107.1862,2.3612 Z" stroke="#000000" stroke-width="0.1200" stroke-linecap="round" stroke-linejoin="round" fill="#000000"/>
        <path d="M 108.6052,2.3612 L 107.6639,2.3612 L 107.6639,3.3028 L 108.6052,3.3028 L 108.6052,2.3612 Z" stroke="#000000" stroke-width="0.1200" stroke-linecap="round" stroke-linejoin="round" fill="#000000"/>
        <path d="M 110.0243,2.3612 L 109.0829,2.3612 L 109.0829,3.3028 L 110.0243,3.3028 L 110.0243,2.3612 Z" stroke="#000000" stroke-width="0.1200" stroke-linecap="round" stroke-linejoin="round" fill="#000000"/>
        <path d="M 111.4433,2.3612 L 110.5020,2.3612 L 110.5020,3.3028 L 111.4433,3.3028 L 111.4433,2.3612 Z" stroke="#000000" stroke-width="0.1200" stroke-linecap="round" stroke-linejoin="round" fill="#000000"/>
        <path d="M 112.8483,2.3612 L 111.9069,2.3612 L 111.9069,3.3028 L 112.8483,3.3028 L 112.8483,2.3612 Z" stroke="#000000" stroke-width="0.1200" stroke-linecap="round" stroke-linejoin="round" fill="#000000"/>
        <path d="M 114.2814,2.3612 L 113.3400,2.3612 L 113.3400,3.3028 L 114.2814,3.3028 L 114.2814,2.3612 Z" stroke="#000000" stroke-width="0.1200" stroke-linecap="round" stroke-linejoin="round" fill="#000000"/>
        <path d="M 16.6069,3.5137 L 15.6656,3.5137 L 15.6656,4.4553 L 16.6069,4.4553 L 16.6069,3.5137 Z" stroke="#000000" stroke-width="0.1200" stroke-linecap="round" stroke-linejoin="round" fill="#000000"/>
        <path d="M 18.0259,3.5137 L 17.0846,3.5137 L 17.0846,4.4553 L 18.0259,4.4553 L 18.0259,3.5137 Z" stroke="#000000" stroke-width="0.1200" stroke-linecap="round" stroke-linejoin="round" fill="#000000"/>
        <path d="M 19.4309,3.5137 L 18.4896,3.5137 L 18.4896,4.4553 L 19.4309,4.4553 L 19.4309,3.5137 Z" stroke="#000000" stroke-width="0.1200" stroke-linecap="round" stroke-linejoin="round" fill="#000000"/>
        <path d="M 20.8500,3.5137 L 19.9086,3.5137 L 19.9086,4.4553 L 20.8500,4.4553 L 20.8500,3.5137 Z" stroke="#000000" stroke-width="0.1200" stroke-linecap="round" stroke-linejoin="round" fill="#000000"/>
        <path d="M 22.2690,3.5137 L 21.3277,3.5137 L 21.3277,4.4553 L 22.2690,4.4553 L 22.2690,3.5137 Z" stroke="#000000" stroke-width="0.1200" stroke-linecap="round" stroke-linejoin="round" fill="#000000"/>
        <path d="M 23.6880,3.5137 L 22.7467,3.5137 L 22.7467,4.4553 L 23.6880,4.4553 L 23.6880,3.5137 Z" stroke="#000000" stroke-width="0.1200" stroke-linecap="round" stroke-linejoin="round" fill="#000000"/>
        <path d="M 25.0930,3.5137 L 24.1517,3.5137 L 24.1517,4.4553 L 25.0930,4.4553 L 25.0930,3.5137 Z" stroke="#000000" stroke-width="0.1200" stroke-linecap="round" stroke-linejoin="round" fill="#000000"/>
        <path d="M 26.5120,3.5137 L 25.5707,3.5137 L 25.5707,4.4553 L 26.5120,4.4553 L 26.5120,3.5137 Z" stroke="#000000" stroke-width="0.1200" stroke-linecap="round" stroke-linejoin="round" fill="#000000"/>
        <path d="M 47.7413,3.9775 L 46.8000,3.9775 L 46.8000,4.9191 L 47.7413,4.9191 L 47.7413,3.9775 Z" stroke="#000000" stroke-width="0.1200" stroke-linecap="round" stroke-linejoin="round" fill="#000000"/>
        <path d="M 49.1604,3.9775 L 48.2190,3.9775 L 48.2190,4.9191 L 49.1604,4.9191 L 49.1604,3.9775 Z" stroke="#000000" stroke-width="0.1200" stroke-linecap="round" stroke-linejoin="round" fill="#000000"/>
        <path d="M 50.5794,3.9775 L 49.6381,3.9775 L 49.6381,4.9191 L 50.5794,4.9191 L 50.5794,3.9775 Z" stroke="#000000" stroke-width="0.1200" stroke-linecap="round" stroke-linejoin="round" fill="#000000"/>
        <path d="M 51.9844,3.9775 L 51.0431,3.9775 L 51.0431,4.9191 L 51.9844,4.9191 L 51.9844,3.9775 Z" stroke="#000000" stroke-width="0.1200" stroke-linecap="round" stroke-linejoin="round" fill="#000000"/>
        <path d="M 53.4034,3.9775 L 52.4621,3.9775 L 52.4621,4.9191 L 53.4034,4.9191 L 53.4034,3.9775 Z" stroke="#000000" stroke-width="0.1200" stroke-linecap="round" stroke-linejoin="round" fill="#000000"/>
        <path d="M 54.8225,3.9775 L 53.8811,3.9775 L 53.8811,4.9191 L 54.8225,4.9191 L 54.8225,3.9775 Z" stroke="#000000" stroke-width="0.1200" stroke-linecap="round" stroke-linejoin="round" fill="#000000"/>
        <path d="M 56.2415,3.9775 L 55.3002,3.9775 L 55.3002,4.9191 L 56.2415,4.9191 L 56.2415,3.9775 Z" stroke="#000000" stroke-width="0.1200" stroke-linecap="round" stroke-linejoin="round" fill="#000000"/>
        <path d="M 57.6465,3.9775 L 56.7051,3.9775 L 56.7051,4.9191 L 57.6465,4.9191 L 57.6465,3.9775 Z" stroke="#000000" stroke-width="0.1200" stroke-linecap="round" stroke-linejoin="round" fill="#000000"/>
        <path d="M 59.0655,3.9775 L 58.1242,3.9775 L 58.1242,4.9191 L 59.0655,4.9191 L 59.0655,3.9775 Z" stroke="#000000" stroke-width="0.1200" stroke-linecap="round" stroke-linejoin="round" fill="#000000"/>
        <path d="M 60.4845,3.9775 L 59.5432,3.9775 L 59.5432,4.9191 L 60.4845,4.9191 L 60.4845,3.9775 Z" stroke="#000000" stroke-width="0.1200" stroke-linecap="round" stroke-linejoin="round" fill="#000000"/>
        <path d="M 61.9036,3.9775 L 60.9622,3.9775 L 60.9622,4.9191 L 61.9036,4.9191 L 61.9036,3.9775 Z" stroke="#000000" stroke-width="0.1200" stroke-linecap="round" stroke-linejoin="round" fill="#000000"/>
        <path d="M 63.3086,3.9775 L 62.3672,3.9775 L 62.3672,4.9191 L 63.3086,4.9191 L 63.3086,3.9775 Z" stroke="#000000" stroke-width="0.1200" stroke-linecap="round" stroke-linejoin="round" fill="#000000"/>
        <path d="M 64.7276,3.9775 L 63.7863,3.9775 L 63.7863,4.9191 L 64.7276,4.9191 L 64.7276,3.9775 Z" stroke="#000000" stroke-width="0.1200" stroke-linecap="round" stroke-linejoin="round" fill="#000000"/>
        <path d="M 66.1466,3.9775 L 65.2053,3.9775 L 65.2053,4.9191 L 66.1466,4.9191 L 66.1466,3.9775 Z" stroke="#000000" stroke-width="0.1200" stroke-linecap="round" stroke-linejoin="round" fill="#000000"/>
        <path d="M 67.5657,3.9775 L 66.6243,3.9775 L 66.6243,4.9191 L 67.5657,4.9191 L 67.5657,3.9775 Z" stroke="#000000" stroke-width="0.1200" stroke-linecap="round" stroke-linejoin="round" fill="#000000"/>
        <path d="M 68.9706,3.9775 L 68.0293,3.9775 L 68.0293,4.9191 L 68.9706,4.9191 L 68.9706,3.9775 Z" stroke="#000000" stroke-width="0.1200" stroke-linecap="round" stroke-linejoin="round" fill="#000000"/>
        <path d="M 70.3897,3.9775 L 69.4483,3.9775 L 69.4483,4.9191 L 70.3897,4.9191 L 70.3897,3.9775 Z" stroke="#000000" stroke-width="0.1200" stroke-linecap="round" stroke-linejoin="round" fill="#000000"/>
        <path d="M 71.8087,3.9775 L 70.8674,3.9775 L 70.8674,4.9191 L 71.8087,4.9191 L 71.8087,3.9775 Z" stroke="#000000" stroke-width="0.1200" stroke-linecap="round" stroke-linejoin="round" fill="#000000"/>
        <path d="M 73.2277,3.9775 L 72.2864,3.9775 L 72.2864,4.9191 L 73.2277,4.9191 L 73.2277,3.9775 Z" stroke="#000000" stroke-width="0.1200" stroke-linecap="round" stroke-linejoin="round" fill="#000000"/>
        <path d="M 74.6327,3.9775 L 73.6914,3.9775 L 73.6914,4.9191 L 74.6327,4.9191 L 74.6327,3.9775 Z" stroke="#000000" stroke-width="0.1200" stroke-linecap="round" stroke-linejoin="round" fill="#000000"/>
        <path d="M 76.0518,3.9775 L 75.1104,3.9775 L 75.1104,4.9191 L 76.0518,4.9191 L 76.0518,3.9775 Z" stroke="#000000" stroke-width="0.1200" stroke-linecap="round" stroke-linejoin="round" fill="#000000"/>
        <path d="M 77.4708,3.9775 L 76.5295,3.9775 L 76.5295,4.9191 L 77.4708,4.9191 L 77.4708,3.9775 Z" stroke="#000000" stroke-width="0.1200" stroke-linecap="round" stroke-linejoin="round" fill="#000000"/>
        <path d="M 78.8898,3.9775 L 77.9485,3.9775 L 77.9485,4.9191 L 78.8898,4.9191 L 78.8898,3.9775 Z" stroke="#000000" stroke-width="0.1200" stroke-linecap="round" stroke-linejoin="round" fill="#000000"/>
        <path d="M 80.2948,3.9775 L 79.3535,3.9775 L 79.3535,4.9191 L 80.2948,4.9191 L 80.2948,3.9775 Z" stroke="#000000" stroke-width="0.1200" stroke-linecap="round" stroke-linejoin="round" fill="#000000"/>
        <path d="M 81.7138,3.9775 L 80.7725,3.9775 L 80.7725,4.9191 L 81.7138,4.9191 L 81.7138,3.9775 Z" stroke="#000000" stroke-width="0.1200" stroke-linecap="round" stroke-linejoin="round" fill="#000000"/>
        <path d="M 83.1329,3.9775 L 82.1915,3.9775 L 82.1915,4.9191 L 83.1329,4.9191 L 83.1329,3.9775 Z" stroke="#000000" stroke-width="0.1200" stroke-linecap="round" stroke-linejoin="round" fill="#000000"/>
        <path d="M 84.5379,3.9775 L 83.5965,3.9775 L 83.5965,4.9191 L 84.5379,4.9191 L 84.5379,3.9775 Z" stroke="#000000" stroke-width="0.1200" stroke-linecap="round" stroke-linejoin="round" fill="#000000"/>
        <path d="M 85.9569,3.9775 L 85.0156,3.9775 L 85.0156,4.9191 L 85.9569,4.9191 L 85.9569,3.9775 Z" stroke="#000000" stroke-width="0.1200" stroke-linecap="round" stroke-linejoin="round" fill="#000000"/>
        <path d="M 87.3759,3.9775 L 86.4346,3.9775 L 86.4346,4.9191 L 87.3759,4.9191 L 87.3759,3.9775 Z" stroke="#000000" stroke-width="0.1200" stroke-linecap="round" stroke-linejoin="round" fill="#000000"/>
        <path d="M 88.7950,3.9775 L 87.8536,3.9775 L 87.8536,4.9191 L 88.7950,4.9191 L 88.7950,3.9775 Z" stroke="#000000" stroke-width="0.1200" stroke-linecap="round" stroke-linejoin="round" fill="#000000"/>
        <path d="M 90.1999,3.9775 L 89.2586,3.9775 L 89.2586,4.9191 L 90.1999,4.9191 L 90.1999,3.9775 Z" stroke="#000000" stroke-width="0.1200" stroke-linecap="round" stroke-linejoin="round" fill="#000000"/>
        <path d="M 91.6190,3.9775 L 90.6776,3.9775 L 90.6776,4.9191 L 91.6190,4.9191 L 91.6190,3.9775 Z" stroke="#000000" stroke-width="0.1200" stroke-linecap="round" stroke-linejoin="round" fill="#000000"/>
        <path d="M 93.0380,3.9775 L 92.0967,3.9775 L 92.0967,4.9191 L 93.0380,4.9191 L 93.0380,3.9775 Z" stroke="#000000" stroke-width="0.1200" stroke-linecap="round" stroke-linejoin="round" fill="#000000"/>
        <path d="M 94.4570,3.9775 L 93.5157,3.9775 L 93.5157,4.9191 L 94.4570,4.9191 L 94.4570,3.9775 Z" stroke="#000000" stroke-width="0.1200" stroke-linecap="round" stroke-linejoin="round" fill="#000000"/>
        <path d="M 95.8620,3.9775 L 94.9207,3.9775 L 94.9207,4.9191 L 95.8620,4.9191 L 95.8620,3.9775 Z" stroke="#000000" stroke-width="0.1200" stroke-linecap="round" stroke-linejoin="round" fill="#000000"/>
        <path d="M 97.2811,3.9775 L 96.3397,3.9775 L 96.3397,4.9191 L 97.2811,4.9191 L 97.2811,3.9775 Z" stroke="#000000" stroke-width="0.1200" stroke-linecap="round" stroke-linejoin="round" fill="#000000"/>
        <path d="M 98.7001,3.9775 L 97.7588,3.9775 L 97.7588,4.9191 L 98.7001,4.9191 L 98.7001,3.9775 Z" stroke="#000000" stroke-width="0.1200" stroke-linecap="round" stroke-linejoin="round" fill="#000000"/>
        <path d="M 100.1191,3.9775 L 99.1778,3.9775 L 99.1778,4.9191 L 100.1191,4.9191 L 100.1191,3.9775 Z" stroke="#000000" stroke-width="0.1200" stroke-linecap="round" stroke-linejoin="round" fill="#000000"/>
        <path d="M 101.5241,3.9775 L 100.5828,3.9775 L 100.5828,4.9191 L 101.5241,4.9191 L 101.5241,3.9775 Z" stroke="#000000" stroke-width="0.1200" stroke-linecap="round" stroke-linejoin="round" fill="#000000"/>
        <path d="M 102.9431,3.9775 L 102.0018,3.9775 L 102.0018,4.9191 L 102.9431,4.9191 L 102.9431,3.9775 Z" stroke="#000000" stroke-width="0.1200" stroke-linecap="round" stroke-linejoin="round" fill="#000000"/>
        <path d="M 104.3622,3.9775 L 103.4208,3.9775 L 103.4208,4.9191 L 104.3622,4.9191 L 104.3622,3.9775 Z" stroke="#000000" stroke-width="0.1200" stroke-linecap="round" stroke-linejoin="round" fill="#000000"/>
        <path d="M 105.7812,3.9775 L 104.8399,3.9775 L 104.8399,4.9191 L 105.7812,4.9191 L 105.7812,3.9775 Z" stroke="#000000" stroke-width="0.1200" stroke-linecap="round" stroke-linejoin="round" fill="#000000"/>
        <path d="M 107.1862,3.9775 L 106.2449,3.9775 L 106.2449,4.9191 L 107.1862,4.9191 L 107.1862,3.9775 Z" stroke="#000000" stroke-width="0.1200" stroke-linecap="round" stroke-linejoin="round" fill="#000000"/>
        <path d="M 108.6052,3.9775 L 107.6639,3.9775 L 107.6639,4.9191 L 108.6052,4.9191 L 108.6052,3.9775 Z" stroke="#000000" stroke-width="0.1200" stroke-linecap="round" stroke-linejoin="round" fill="#000000"/>
        <path d="M 110.0243,3.9775 L 109.0829,3.9775 L 109.0829,4.9191 L 110.0243,4.9191 L 110.0243,3.9775 Z" stroke="#000000" stroke-width="0.1200" stroke-linecap="round" stroke-linejoin="round" fill="#000000"/>
        <path d="M 111.4433,3.9775 L 110.5020,3.9775 L 110.5020,4.9191 L 111.4433,4.9191 L 111.4433,3.9775 Z" stroke="#000000" stroke-width="0.1200" stroke-linecap="round" stroke-linejoin="round" fill="#000000"/>
        <path d="M 112.8483,3.9775 L 111.9069,3.9775 L 111.9069,4.9191 L 112.8483,4.9191 L 112.8483,3.9775 Z" stroke="#000000" stroke-width="0.1200" stroke-linecap="round" stroke-linejoin="round" fill="#000000"/>
        <path d="M 114.2673,3.9775 L 113.3260,3.9775 L 113.3260,4.9191 L 114.2673,4.9191 L 114.2673,3.9775 Z" stroke="#000000" stroke-width="0.1200" stroke-linecap="round" stroke-linejoin="round" fill="#000000"/>
        <path d="M 10.9589,3.5137 L 10.0175,3.5137 L 10.0175,4.4553 L 10.9589,4.4553 L 10.9589,3.5137 Z" stroke="#000000" stroke-width="0.1200" stroke-linecap="round" stroke-linejoin="round" fill="#000000"/>
        <path d="M 12.3639,3.5137 L 11.4225,3.5137 L 11.4225,4.4553 L 12.3639,4.4553 L 12.3639,3.5137 Z" stroke="#000000" stroke-width="0.1200" stroke-linecap="round" stroke-linejoin="round" fill="#000000"/>
        <path d="M 13.7688,3.5137 L 12.8275,3.5137 L 12.8275,4.4553 L 13.7688,4.4553 L 13.7688,3.5137 Z" stroke="#000000" stroke-width="0.1200" stroke-linecap="round" stroke-linejoin="round" fill="#000000"/>
        <path d="M 15.1879,3.5137 L 14.2465,3.5137 L 14.2465,4.4553 L 15.1879,4.4553 L 15.1879,3.5137 Z" stroke="#000000" stroke-width="0.1200" stroke-linecap="round" stroke-linejoin="round" fill="#000000"/>
        <path d="M 18.0259,4.9051 L 17.0846,4.9051 L 17.0846,5.8467 L 18.0259,5.8467 L 18.0259,4.9051 Z" stroke="#000000" stroke-width="0.1200" stroke-linecap="round" stroke-linejoin="round" fill="#000000"/>
        <path d="M 19.4309,4.9051 L 18.4896,4.9051 L 18.4896,5.8467 L 19.4309,5.8467 L 19.4309,4.9051 Z" stroke="#000000" stroke-width="0.1200" stroke-linecap="round" stroke-linejoin="round" fill="#000000"/>
        <path d="M 20.8500,4.9051 L 19.9086,4.9051 L 19.9086,5.8467 L 20.8500,5.8467 L 20.8500,4.9051 Z" stroke="#000000" stroke-width="0.1200" stroke-linecap="round" stroke-linejoin="round" fill="#000000"/>
        <path d="M 22.2690,4.9051 L 21.3277,4.9051 L 21.3277,5.8467 L 22.2690,5.8467 L 22.2690,4.9051 Z" stroke="#000000" stroke-width="0.1200" stroke-linecap="round" stroke-linejoin="round" fill="#000000"/>
        <path d="M 23.6880,4.9051 L 22.7467,4.9051 L 22.7467,5.8467 L 23.6880,5.8467 L 23.6880,4.9051 Z" stroke="#000000" stroke-width="0.1200" stroke-linecap="round" stroke-linejoin="round" fill="#000000"/>
        <path d="M 25.0930,4.9051 L 24.1517,4.9051 L 24.1517,5.8467 L 25.0930,5.8467 L 25.0930,4.9051 Z" stroke="#000000" stroke-width="0.1200" stroke-linecap="round" stroke-linejoin="round" fill="#000000"/>
        <path d="M 26.5120,4.9051 L 25.5707,4.9051 L 25.5707,5.8467 L 26.5120,5.8467 L 26.5120,4.9051 Z" stroke="#000000" stroke-width="0.1200" stroke-linecap="round" stroke-linejoin="round" fill="#000000"/>
        <path d="M 47.7413,5.6078 L 46.8000,5.6078 L 46.8000,6.5494 L 47.7413,6.5494 L 47.7413,5.6078 Z" stroke="#000000" stroke-width="0.1200" stroke-linecap="round" stroke-linejoin="round" fill="#000000"/>
        <path d="M 49.1604,5.6078 L 48.2190,5.6078 L 48.2190,6.5494 L 49.1604,6.5494 L 49.1604,5.6078 Z" stroke="#000000" stroke-width="0.1200" stroke-linecap="round" stroke-linejoin="round" fill="#000000"/>
        <path d="M 50.5794,5.6078 L 49.6381,5.6078 L 49.6381,6.5494 L 50.5794,6.5494 L 50.5794,5.6078 Z" stroke="#000000" stroke-width="0.1200" stroke-linecap="round" stroke-linejoin="round" fill="#000000"/>
        <path d="M 51.9844,5.6078 L 51.0431,5.6078 L 51.0431,6.5494 L 51.9844,6.5494 L 51.9844,5.6078 Z" stroke="#000000" stroke-width="0.1200" stroke-linecap="round" stroke-linejoin="round" fill="#000000"/>
        <path d="M 112.8483,5.6078 L 111.9069,5.6078 L 111.9069,6.5494 L 112.8483,6.5494 L 112.8483,5.6078 Z" stroke="#000000" stroke-width="0.1200" stroke-linecap="round" stroke-linejoin="round" fill="#000000"/>
        <path d="M 114.2673,5.6078 L 113.3260,5.6078 L 113.3260,6.5494 L 114.2673,6.5494 L 114.2673,5.6078 Z" stroke="#000000" stroke-width="0.1200" stroke-linecap="round" stroke-linejoin="round" fill="#000000"/>
        <path d="M 18.0259,6.2824 L 17.0846,6.2824 L 17.0846,7.2241 L 18.0259,7.2241 L 18.0259,6.2824 Z" stroke="#000000" stroke-width="0.1200" stroke-linecap="round" stroke-linejoin="round" fill="#000000"/>
        <path d="M 19.4309,6.2824 L 18.4896,6.2824 L 18.4896,7.2241 L 19.4309,7.2241 L 19.4309,6.2824 Z" stroke="#000000" stroke-width="0.1200" stroke-linecap="round" stroke-linejoin="round" fill="#000000"/>
        <path d="M 20.8500,6.2965 L 19.9086,6.2965 L 19.9086,7.2381 L 20.8500,7.2381 L 20.8500,6.2965 Z" stroke="#000000" stroke-width="0.1200" stroke-linecap="round" stroke-linejoin="round" fill="#000000"/>
        <path d="M 22.2690,6.2965 L 21.3277,6.2965 L 21.3277,7.2381 L 22.2690,7.2381 L 22.2690,6.2965 Z" stroke="#000000" stroke-width="0.1200" stroke-linecap="round" stroke-linejoin="round" fill="#000000"/>
        <path d="M 23.6880,6.2965 L 22.7467,6.2965 L 22.7467,7.2381 L 23.6880,7.2381 L 23.6880,6.2965 Z" stroke="#000000" stroke-width="0.1200" stroke-linecap="round" stroke-linejoin="round" fill="#000000"/>
        <path d="M 25.0930,6.2965 L 24.1517,6.2965 L 24.1517,7.2381 L 25.0930,7.2381 L 25.0930,6.2965 Z" stroke="#000000" stroke-width="0.1200" stroke-linecap="round" stroke-linejoin="round" fill="#000000"/>
        <path d="M 26.5120,6.2965 L 25.5707,6.2965 L 25.5707,7.2381 L 26.5120,7.2381 L 26.5120,6.2965 Z" stroke="#000000" stroke-width="0.1200" stroke-linecap="round" stroke-linejoin="round" fill="#000000"/>
        <path d="M 18.0259,7.6879 L 17.0846,7.6879 L 17.0846,8.6295 L 18.0259,8.6295 L 18.0259,7.6879 Z" stroke="#000000" stroke-width="0.1200" stroke-linecap="round" stroke-linejoin="round" fill="#000000"/>
        <path d="M 19.4450,7.6879 L 18.5036,7.6879 L 18.5036,8.6295 L 19.4450,8.6295 L 19.4450,7.6879 Z" stroke="#000000" stroke-width="0.1200" stroke-linecap="round" stroke-linejoin="round" fill="#000000"/>
        <path d="M 20.8500,7.6879 L 19.9086,7.6879 L 19.9086,8.6295 L 20.8500,8.6295 L 20.8500,7.6879 Z" stroke="#000000" stroke-width="0.1200" stroke-linecap="round" stroke-linejoin="round" fill="#000000"/>
        <path d="M 22.2690,7.6879 L 21.3277,7.6879 L 21.3277,8.6295 L 22.2690,8.6295 L 22.2690,7.6879 Z" stroke="#000000" stroke-width="0.1200" stroke-linecap="round" stroke-linejoin="round" fill="#000000"/>
        <path d="M 23.6880,7.6879 L 22.7467,7.6879 L 22.7467,8.6295 L 23.6880,8.6295 L 23.6880,7.6879 Z" stroke="#000000" stroke-width="0.1200" stroke-linecap="round" stroke-linejoin="round" fill="#000000"/>
        <path d="M 25.0930,7.6879 L 24.1517,7.6879 L 24.1517,8.6295 L 25.0930,8.6295 L 25.0930,7.6879 Z" stroke="#000000" stroke-width="0.1200" stroke-linecap="round" stroke-linejoin="round" fill="#000000"/>
        <path d="M 26.5120,7.6879 L 25.5707,7.6879 L 25.5707,8.6295 L 26.5120,8.6295 L 26.5120,7.6879 Z" stroke="#000000" stroke-width="0.1200" stroke-linecap="round" stroke-linejoin="round" fill="#000000"/>
        <path d="M 20.8500,9.0652 L 19.9086,9.0652 L 19.9086,10.0069 L 20.8500,10.0069 L 20.8500,9.0652 Z" stroke="#000000" stroke-width="0.1200" stroke-linecap="round" stroke-linejoin="round" fill="#000000"/>
        <path d="M 22.2690,9.0652 L 21.3277,9.0652 L 21.3277,10.0069 L 22.2690,10.0069 L 22.2690,9.0652 Z" stroke="#000000" stroke-width="0.1200" stroke-linecap="round" stroke-linejoin="round" fill="#000000"/>
        <path d="M 23.6880,9.0652 L 22.7467,9.0652 L 22.7467,10.0069 L 23.6880,10.0069 L 23.6880,9.0652 Z" stroke="#000000" stroke-width="0.1200" stroke-linecap="round" stroke-linejoin="round" fill="#000000"/>
        <path d="M 25.0930,9.0652 L 24.1517,9.0652 L 24.1517,10.0069 L 25.0930,10.0069 L 25.0930,9.0652 Z" stroke="#000000" stroke-width="0.1200" stroke-linecap="round" stroke-linejoin="round" fill="#000000"/>
        <path d="M 26.5120,9.0652 L 25.5707,9.0652 L 25.5707,10.0069 L 26.5120,10.0069 L 26.5120,9.0652 Z" stroke="#000000" stroke-width="0.1200" stroke-linecap="round" stroke-linejoin="round" fill="#000000"/>
        <path d="M 20.8500,10.4707 L 19.9086,10.4707 L 19.9086,11.4123 L 20.8500,11.4123 L 20.8500,10.4707 Z" stroke="#000000" stroke-width="0.1200" stroke-linecap="round" stroke-linejoin="round" fill="#000000"/>
        <path d="M 22.2690,10.4707 L 21.3277,10.4707 L 21.3277,11.4123 L 22.2690,11.4123 L 22.2690,10.4707 Z" stroke="#000000" stroke-width="0.1200" stroke-linecap="round" stroke-linejoin="round" fill="#000000"/>
        <path d="M 23.6880,10.4707 L 22.7467,10.4707 L 22.7467,11.4123 L 23.6880,11.4123 L 23.6880,10.4707 Z" stroke="#000000" stroke-width="0.1200" stroke-linecap="round" stroke-linejoin="round" fill="#000000"/>
        <path d="M 25.0930,10.4707 L 24.1517,10.4707 L 24.1517,11.4123 L 25.0930,11.4123 L 25.0930,10.4707 Z" stroke="#000000" stroke-width="0.1200" stroke-linecap="round" stroke-linejoin="round" fill="#000000"/>
        <path d="M 26.5120,10.4707 L 25.5707,10.4707 L 25.5707,11.4123 L 26.5120,11.4123 L 26.5120,10.4707 Z" stroke="#000000" stroke-width="0.1200" stroke-linecap="round" stroke-linejoin="round" fill="#000000"/>
        <ellipse cx="17.6115" cy="10.8853" rx="0.3021" ry="0.3022" fill="#BFBFBF" stroke="#000000" stroke-width="0.1200" stroke-linecap="round" stroke-linejoin="round"/>
        <ellipse cx="17.6115" cy="10.8853" rx="0.3021" ry="0.3022" fill="none" stroke="#000000" stroke-width="0.1200" stroke-linecap="round" stroke-linejoin="round"/>
        <ellipse cx="17.6185" cy="9.7961" rx="0.4355" ry="0.4357" fill="#0A0A0A" stroke="#000000" stroke-width="0.1200" stroke-linecap="round" stroke-linejoin="round"/>
        <ellipse cx="17.6185" cy="9.7961" rx="0.4355" ry="0.4357" fill="none" stroke="#000000" stroke-width="0.1200" stroke-linecap="round" stroke-linejoin="round"/>
        <ellipse cx="17.6185" cy="9.7890" rx="0.3512" ry="0.3443" fill="#BFBFBF" stroke="#000000" stroke-width="0.1200" stroke-linecap="round" stroke-linejoin="round"/>
        <ellipse cx="17.6185" cy="9.7890" rx="0.3512" ry="0.3443" fill="none" stroke="#000000" stroke-width="0.1200" stroke-linecap="round" stroke-linejoin="round"/>
        <ellipse cx="5.3249" cy="2.3612" rx="0.4777" ry="0.4779" fill="none" stroke="#000000" stroke-width="0.1200" stroke-linecap="round" stroke-linejoin="round"/>
        <ellipse cx="5.3179" cy="2.3541" rx="0.3161" ry="0.3162" fill="none" stroke="#000000" stroke-width="0.1200" stroke-linecap="round" stroke-linejoin="round"/>
        <ellipse cx="118.8195" cy="2.3612" rx="0.4777" ry="0.4779" fill="none" stroke="#000000" stroke-width="0.1200" stroke-linecap="round" stroke-linejoin="round"/>
        <ellipse cx="118.8124" cy="2.3541" rx="0.3161" ry="0.3162" fill="none" stroke="#000000" stroke-width="0.1200" stroke-linecap="round" stroke-linejoin="round"/>
        <path d="M 16.6069,0.7589 L 15.6656,0.7589 L 15.6656,1.7006 L 16.6069,1.7006 L 16.6069,0.7589 Z" stroke="#000000" stroke-width="0.1200" stroke-linecap="round" stroke-linejoin="round" fill="#000000"/>
        <path d="M 18.0259,0.7589 L 17.0846,0.7589 L 17.0846,1.7006 L 18.0259,1.7006 L 18.0259,0.7589 Z" stroke="#000000" stroke-width="0.1200" stroke-linecap="round" stroke-linejoin="round" fill="#000000"/>
        <path d="M 19.4309,0.7589 L 18.4896,0.7589 L 18.4896,1.7006 L 19.4309,1.7006 L 19.4309,0.7589 Z" stroke="#000000" stroke-width="0.1200" stroke-linecap="round" stroke-linejoin="round" fill="#000000"/>
        <path d="M 20.8500,0.7589 L 19.9086,0.7589 L 19.9086,1.7006 L 20.8500,1.7006 L 20.8500,0.7589 Z" stroke="#000000" stroke-width="0.1200" stroke-linecap="round" stroke-linejoin="round" fill="#000000"/>
        <path d="M 22.2690,0.7589 L 21.3277,0.7589 L 21.3277,1.7006 L 22.2690,1.7006 L 22.2690,0.7589 Z" stroke="#000000" stroke-width="0.1200" stroke-linecap="round" stroke-linejoin="round" fill="#000000"/>
        <path d="M 23.6880,0.7589 L 22.7467,0.7589 L 22.7467,1.7006 L 23.6880,1.7006 L 23.6880,0.7589 Z" stroke="#000000" stroke-width="0.1200" stroke-linecap="round" stroke-linejoin="round" fill="#000000"/>
        <path d="M 25.0930,0.7589 L 24.1517,0.7589 L 24.1517,1.7006 L 25.0930,1.7006 L 25.0930,0.7589 Z" stroke="#000000" stroke-width="0.1200" stroke-linecap="round" stroke-linejoin="round" fill="#000000"/>
        <path d="M 26.5120,0.7589 L 25.5707,0.7589 L 25.5707,1.7006 L 26.5120,1.7006 L 26.5120,0.7589 Z" stroke="#000000" stroke-width="0.1200" stroke-linecap="round" stroke-linejoin="round" fill="#000000"/>
        <path d="M 27.9311,0.7589 L 26.9897,0.7589 L 26.9897,1.7006 L 27.9311,1.7006 L 27.9311,0.7589 Z" stroke="#000000" stroke-width="0.1200" stroke-linecap="round" stroke-linejoin="round" fill="#000000"/>
        <path d="M 29.3501,0.7589 L 28.4088,0.7589 L 28.4088,1.7006 L 29.3501,1.7006 L 29.3501,0.7589 Z" stroke="#000000" stroke-width="0.1200" stroke-linecap="round" stroke-linejoin="round" fill="#000000"/>
        <path d="M 30.7551,0.7589 L 29.8138,0.7589 L 29.8138,1.7006 L 30.7551,1.7006 L 30.7551,0.7589 Z" stroke="#000000" stroke-width="0.1200" stroke-linecap="round" stroke-linejoin="round" fill="#000000"/>
        <path d="M 32.1741,0.7589 L 31.2328,0.7589 L 31.2328,1.7006 L 32.1741,1.7006 L 32.1741,0.7589 Z" stroke="#000000" stroke-width="0.1200" stroke-linecap="round" stroke-linejoin="round" fill="#000000"/>
        <path d="M 33.5932,0.7589 L 32.6518,0.7589 L 32.6518,1.7006 L 33.5932,1.7006 L 33.5932,0.7589 Z" stroke="#000000" stroke-width="0.1200" stroke-linecap="round" stroke-linejoin="round" fill="#000000"/>
        <path d="M 35.0122,0.7589 L 34.0709,0.7589 L 34.0709,1.7006 L 35.0122,1.7006 L 35.0122,0.7589 Z" stroke="#000000" stroke-width="0.1200" stroke-linecap="round" stroke-linejoin="round" fill="#000000"/>
        <path d="M 36.4172,0.7589 L 35.4758,0.7589 L 35.4758,1.7006 L 36.4172,1.7006 L 36.4172,0.7589 Z" stroke="#000000" stroke-width="0.1200" stroke-linecap="round" stroke-linejoin="round" fill="#000000"/>
        <path d="M 37.8362,0.7589 L 36.8949,0.7589 L 36.8949,1.7006 L 37.8362,1.7006 L 37.8362,0.7589 Z" stroke="#000000" stroke-width="0.1200" stroke-linecap="round" stroke-linejoin="round" fill="#000000"/>
        <path d="M 39.2552,0.7589 L 38.3139,0.7589 L 38.3139,1.7006 L 39.2552,1.7006 L 39.2552,0.7589 Z" stroke="#000000" stroke-width="0.1200" stroke-linecap="round" stroke-linejoin="round" fill="#000000"/>
        <path d="M 40.6743,0.7589 L 39.7329,0.7589 L 39.7329,1.7006 L 40.6743,1.7006 L 40.6743,0.7589 Z" stroke="#000000" stroke-width="0.1200" stroke-linecap="round" stroke-linejoin="round" fill="#000000"/>
        <path d="M 42.0793,0.7589 L 41.1379,0.7589 L 41.1379,1.7006 L 42.0793,1.7006 L 42.0793,0.7589 Z" stroke="#000000" stroke-width="0.1200" stroke-linecap="round" stroke-linejoin="round" fill="#000000"/>
        <path d="M 43.4983,0.7589 L 42.5570,0.7589 L 42.5570,1.7006 L 43.4983,1.7006 L 43.4983,0.7589 Z" stroke="#000000" stroke-width="0.1200" stroke-linecap="round" stroke-linejoin="round" fill="#000000"/>
        <path d="M 44.9173,0.7589 L 43.9760,0.7589 L 43.9760,1.7006 L 44.9173,1.7006 L 44.9173,0.7589 Z" stroke="#000000" stroke-width="0.1200" stroke-linecap="round" stroke-linejoin="round" fill="#000000"/>
        <path d="M 46.3223,0.7589 L 45.3810,0.7589 L 45.3810,1.7006 L 46.3223,1.7006 L 46.3223,0.7589 Z" stroke="#000000" stroke-width="0.1200" stroke-linecap="round" stroke-linejoin="round" fill="#000000"/>
        <path d="M 47.7413,0.7589 L 46.8000,0.7589 L 46.8000,1.7006 L 47.7413,1.7006 L 47.7413,0.7589 Z" stroke="#000000" stroke-width="0.1200" stroke-linecap="round" stroke-linejoin="round" fill="#000000"/>
        <path d="M 49.1604,0.7589 L 48.2190,0.7589 L 48.2190,1.7006 L 49.1604,1.7006 L 49.1604,0.7589 Z" stroke="#000000" stroke-width="0.1200" stroke-linecap="round" stroke-linejoin="round" fill="#000000"/>
        <path d="M 50.5794,0.7589 L 49.6381,0.7589 L 49.6381,1.7006 L 50.5794,1.7006 L 50.5794,0.7589 Z" stroke="#000000" stroke-width="0.1200" stroke-linecap="round" stroke-linejoin="round" fill="#000000"/>
        <path d="M 51.9844,0.7589 L 51.0431,0.7589 L 51.0431,1.7006 L 51.9844,1.7006 L 51.9844,0.7589 Z" stroke="#000000" stroke-width="0.1200" stroke-linecap="round" stroke-linejoin="round" fill="#000000"/>
        <path d="M 53.4034,0.7589 L 52.4621,0.7589 L 52.4621,1.7006 L 53.4034,1.7006 L 53.4034,0.7589 Z" stroke="#000000" stroke-width="0.1200" stroke-linecap="round" stroke-linejoin="round" fill="#000000"/>
        <path d="M 54.8225,0.7589 L 53.8811,0.7589 L 53.8811,1.7006 L 54.8225,1.7006 L 54.8225,0.7589 Z" stroke="#000000" stroke-width="0.1200" stroke-linecap="round" stroke-linejoin="round" fill="#000000"/>
        <path d="M 56.2415,0.7589 L 55.3002,0.7589 L 55.3002,1.7006 L 56.2415,1.7006 L 56.2415,0.7589 Z" stroke="#000000" stroke-width="0.1200" stroke-linecap="round" stroke-linejoin="round" fill="#000000"/>
        <path d="M 57.6465,0.7589 L 56.7051,0.7589 L 56.7051,1.7006 L 57.6465,1.7006 L 57.6465,0.7589 Z" stroke="#000000" stroke-width="0.1200" stroke-linecap="round" stroke-linejoin="round" fill="#000000"/>
        <path d="M 59.0655,0.7589 L 58.1242,0.7589 L 58.1242,1.7006 L 59.0655,1.7006 L 59.0655,0.7589 Z" stroke="#000000" stroke-width="0.1200" stroke-linecap="round" stroke-linejoin="round" fill="#000000"/>
        <path d="M 60.4845,0.7589 L 59.5432,0.7589 L 59.5432,1.7006 L 60.4845,1.7006 L 60.4845,0.7589 Z" stroke="#000000" stroke-width="0.1200" stroke-linecap="round" stroke-linejoin="round" fill="#000000"/>
        <path d="M 61.9036,0.7589 L 60.9622,0.7589 L 60.9622,1.7006 L 61.9036,1.7006 L 61.9036,0.7589 Z" stroke="#000000" stroke-width="0.1200" stroke-linecap="round" stroke-linejoin="round" fill="#000000"/>
        <path d="M 63.3086,0.7589 L 62.3672,0.7589 L 62.3672,1.7006 L 63.3086,1.7006 L 63.3086,0.7589 Z" stroke="#000000" stroke-width="0.1200" stroke-linecap="round" stroke-linejoin="round" fill="#000000"/>
        <path d="M 64.7276,0.7589 L 63.7863,0.7589 L 63.7863,1.7006 L 64.7276,1.7006 L 64.7276,0.7589 Z" stroke="#000000" stroke-width="0.1200" stroke-linecap="round" stroke-linejoin="round" fill="#000000"/>
        <path d="M 66.1466,0.7589 L 65.2053,0.7589 L 65.2053,1.7006 L 66.1466,1.7006 L 66.1466,0.7589 Z" stroke="#000000" stroke-width="0.1200" stroke-linecap="round" stroke-linejoin="round" fill="#000000"/>
        <path d="M 67.5657,0.7589 L 66.6243,0.7589 L 66.6243,1.7006 L 67.5657,1.7006 L 67.5657,0.7589 Z" stroke="#000000" stroke-width="0.1200" stroke-linecap="round" stroke-linejoin="round" fill="#000000"/>
        <path d="M 68.9706,0.7589 L 68.0293,0.7589 L 68.0293,1.7006 L 68.9706,1.7006 L 68.9706,0.7589 Z" stroke="#000000" stroke-width="0.1200" stroke-linecap="round" stroke-linejoin="round" fill="#000000"/>
        <path d="M 70.3897,0.7589 L 69.4483,0.7589 L 69.4483,1.7006 L 70.3897,1.7006 L 70.3897,0.7589 Z" stroke="#000000" stroke-width="0.1200" stroke-linecap="round" stroke-linejoin="round" fill="#000000"/>
        <path d="M 71.8087,0.7589 L 70.8674,0.7589 L 70.8674,1.7006 L 71.8087,1.7006 L 71.8087,0.7589 Z" stroke="#000000" stroke-width="0.1200" stroke-linecap="round" stroke-linejoin="round" fill="#000000"/>
        <path d="M 73.2277,0.7589 L 72.2864,0.7589 L 72.2864,1.7006 L 73.2277,1.7006 L 73.2277,0.7589 Z" stroke="#000000" stroke-width="0.1200" stroke-linecap="round" stroke-linejoin="round" fill="#000000"/>
        <path d="M 74.6327,0.7589 L 73.6914,0.7589 L 73.6914,1.7006 L 74.6327,1.7006 L 74.6327,0.7589 Z" stroke="#000000" stroke-width="0.1200" stroke-linecap="round" stroke-linejoin="round" fill="#000000"/>
        <path d="M 76.0518,0.7589 L 75.1104,0.7589 L 75.1104,1.7006 L 76.0518,1.7006 L 76.0518,0.7589 Z" stroke="#000000" stroke-width="0.1200" stroke-linecap="round" stroke-linejoin="round" fill="#000000"/>
        <path d="M 77.4708,0.7589 L 76.5295,0.7589 L 76.5295,1.7006 L 77.4708,1.7006 L 77.4708,0.7589 Z" stroke="#000000" stroke-width="0.1200" stroke-linecap="round" stroke-linejoin="round" fill="#000000"/>
        <path d="M 78.8898,0.7589 L 77.9485,0.7589 L 77.9485,1.7006 L 78.8898,1.7006 L 78.8898,0.7589 Z" stroke="#000000" stroke-width="0.1200" stroke-linecap="round" stroke-linejoin="round" fill="#000000"/>
        <path d="M 80.2948,0.7589 L 79.3535,0.7589 L 79.3535,1.7006 L 80.2948,1.7006 L 80.2948,0.7589 Z" stroke="#000000" stroke-width="0.1200" stroke-linecap="round" stroke-linejoin="round" fill="#000000"/>
        <path d="M 81.7138,0.7589 L 80.7725,0.7589 L 80.7725,1.7006 L 81.7138,1.7006 L 81.7138,0.7589 Z" stroke="#000000" stroke-width="0.1200" stroke-linecap="round" stroke-linejoin="round" fill="#000000"/>
        <path d="M 83.1329,0.7589 L 82.1915,0.7589 L 82.1915,1.7006 L 83.1329,1.7006 L 83.1329,0.7589 Z" stroke="#000000" stroke-width="0.1200" stroke-linecap="round" stroke-linejoin="round" fill="#000000"/>
        <path d="M 84.5379,0.7589 L 83.5965,0.7589 L 83.5965,1.7006 L 84.5379,1.7006 L 84.5379,0.7589 Z" stroke="#000000" stroke-width="0.1200" stroke-linecap="round" stroke-linejoin="round" fill="#000000"/>
        <path d="M 85.9569,0.7589 L 85.0156,0.7589 L 85.0156,1.7006 L 85.9569,1.7006 L 85.9569,0.7589 Z" stroke="#000000" stroke-width="0.1200" stroke-linecap="round" stroke-linejoin="round" fill="#000000"/>
        <path d="M 87.3759,0.7589 L 86.4346,0.7589 L 86.4346,1.7006 L 87.3759,1.7006 L 87.3759,0.7589 Z" stroke="#000000" stroke-width="0.1200" stroke-linecap="round" stroke-linejoin="round" fill="#000000"/>
        <path d="M 88.7950,0.7589 L 87.8536,0.7589 L 87.8536,1.7006 L 88.7950,1.7006 L 88.7950,0.7589 Z" stroke="#000000" stroke-width="0.1200" stroke-linecap="round" stroke-linejoin="round" fill="#000000"/>
        <path d="M 90.1999,0.7589 L 89.2586,0.7589 L 89.2586,1.7006 L 90.1999,1.7006 L 90.1999,0.7589 Z" stroke="#000000" stroke-width="0.1200" stroke-linecap="round" stroke-linejoin="round" fill="#000000"/>
        <path d="M 91.6190,0.7589 L 90.6776,0.7589 L 90.6776,1.7006 L 91.6190,1.7006 L 91.6190,0.7589 Z" stroke="#000000" stroke-width="0.1200" stroke-linecap="round" stroke-linejoin="round" fill="#000000"/>
        <path d="M 93.0380,0.7589 L 92.0967,0.7589 L 92.0967,1.7006 L 93.0380,1.7006 L 93.0380,0.7589 Z" stroke="#000000" stroke-width="0.1200" stroke-linecap="round" stroke-linejoin="round" fill="#000000"/>
        <path d="M 94.4570,0.7589 L 93.5157,0.7589 L 93.5157,1.7006 L 94.4570,1.7006 L 94.4570,0.7589 Z" stroke="#000000" stroke-width="0.1200" stroke-linecap="round" stroke-linejoin="round" fill="#000000"/>
        <path d="M 95.8620,0.7589 L 94.9207,0.7589 L 94.9207,1.7006 L 95.8620,1.7006 L 95.8620,0.7589 Z" stroke="#000000" stroke-width="0.1200" stroke-linecap="round" stroke-linejoin="round" fill="#000000"/>
        <path d="M 97.2811,0.7589 L 96.3397,0.7589 L 96.3397,1.7006 L 97.2811,1.7006 L 97.2811,0.7589 Z" stroke="#000000" stroke-width="0.1200" stroke-linecap="round" stroke-linejoin="round" fill="#000000"/>
        <path d="M 98.7001,0.7589 L 97.7588,0.7589 L 97.7588,1.7006 L 98.7001,1.7006 L 98.7001,0.7589 Z" stroke="#000000" stroke-width="0.1200" stroke-linecap="round" stroke-linejoin="round" fill="#000000"/>
        <path d="M 100.1191,0.7589 L 99.1778,0.7589 L 99.1778,1.7006 L 100.1191,1.7006 L 100.1191,0.7589 Z" stroke="#000000" stroke-width="0.1200" stroke-linecap="round" stroke-linejoin="round" fill="#000000"/>
        <path d="M 101.5241,0.7589 L 100.5828,0.7589 L 100.5828,1.7006 L 101.5241,1.7006 L 101.5241,0.7589 Z" stroke="#000000" stroke-width="0.1200" stroke-linecap="round" stroke-linejoin="round" fill="#000000"/>
        <path d="M 102.9431,0.7589 L 102.0018,0.7589 L 102.0018,1.7006 L 102.9431,1.7006 L 102.9431,0.7589 Z" stroke="#000000" stroke-width="0.1200" stroke-linecap="round" stroke-linejoin="round" fill="#000000"/>
        <path d="M 104.3622,0.7589 L 103.4208,0.7589 L 103.4208,1.7006 L 104.3622,1.7006 L 104.3622,0.7589 Z" stroke="#000000" stroke-width="0.1200" stroke-linecap="round" stroke-linejoin="round" fill="#000000"/>
        <path d="M 105.7812,0.7589 L 104.8399,0.7589 L 104.8399,1.7006 L 105.7812,1.7006 L 105.7812,0.7589 Z" stroke="#000000" stroke-width="0.1200" stroke-linecap="round" stroke-linejoin="round" fill="#000000"/>
        <path d="M 107.1862,0.7589 L 106.2449,0.7589 L 106.2449,1.7006 L 107.1862,1.7006 L 107.1862,0.7589 Z" stroke="#000000" stroke-width="0.1200" stroke-linecap="round" stroke-linejoin="round" fill="#000000"/>
        <path d="M 108.6052,0.7589 L 107.6639,0.7589 L 107.6639,1.7006 L 108.6052,1.7006 L 108.6052,0.7589 Z" stroke="#000000" stroke-width="0.1200" stroke-linecap="round" stroke-linejoin="round" fill="#000000"/>
        <path d="M 110.0243,0.7589 L 109.0829,0.7589 L 109.0829,1.7006 L 110.0243,1.7006 L 110.0243,0.7589 Z" stroke="#000000" stroke-width="0.1200" stroke-linecap="round" stroke-linejoin="round" fill="#000000"/>
        <path d="M 111.4433,0.7589 L 110.5020,0.7589 L 110.5020,1.7006 L 111.4433,1.7006 L 111.4433,0.7589 Z" stroke="#000000" stroke-width="0.1200" stroke-linecap="round" stroke-linejoin="round" fill="#000000"/>
        <path d="M 112.8483,0.7589 L 111.9069,0.7589 L 111.9069,1.7006 L 112.8483,1.7006 L 112.8483,0.7589 Z" stroke="#000000" stroke-width="0.1200" stroke-linecap="round" stroke-linejoin="round" fill="#000000"/>
        <path d="M 114.2814,0.7589 L 113.3400,0.7589 L 113.3400,1.7006 L 114.2814,1.7006 L 114.2814,0.7589 Z" stroke="#000000" stroke-width="0.1200" stroke-linecap="round" stroke-linejoin="round" fill="#000000"/>
        <path d="M 31.9493,3.0358 L 26.8352,3.0358 L 26.8352,10.5972 L 31.9493,10.5972 L 31.9493,3.0358 Z" stroke="#000000" stroke-width="0.1200" stroke-linecap="round" stroke-linejoin="round" fill="#BFBFBF"/>
        <path d="M 31.9493,3.0358 L 26.8352,3.0358 L 26.8352,6.8165 L 31.9493,6.8165 L 31.9493,3.0358 " stroke="#000000" stroke-width="0.1200" stroke-linecap="round" stroke-linejoin="round" fill="none"/>
        <path d="M 37.2040,3.0358 L 32.0898,3.0358 L 32.0898,10.5972 L 37.2040,10.5972 L 37.2040,3.0358 Z" stroke="#000000" stroke-width="0.1200" stroke-linecap="round" stroke-linejoin="round" fill="#BFBFBF"/>
        <path d="M 37.2040,3.0358 L 32.0898,3.0358 L 32.0898,6.8165 L 37.2040,6.8165 L 37.2040,3.0358 " stroke="#000000" stroke-width="0.1200" stroke-linecap="round" stroke-linejoin="round" fill="none"/>
        <path d="M 42.1074,3.0358 L 37.6395,3.0358 L 37.6395,10.5972 L 42.1074,10.5972 L 42.1074,3.0358 Z" stroke="#000000" stroke-width="0.1200" stroke-linecap="round" stroke-linejoin="round" fill="#7F7F7F"/>
        <path d="M 42.1074,6.1840 L 37.6395,6.1840 L 37.6395,7.4489 L 42.1074,7.4489 L 42.1074,6.1840 Z" stroke="#000000" stroke-width="0.1200" stroke-linecap="round" stroke-linejoin="round" fill="#BFBFBF"/>
        <path d="M 40.5619,6.1840 L 39.1990,6.1840 L 39.1990,6.4230 L 40.5619,6.4230 L 40.5619,6.1840 Z" stroke="#000000" stroke-width="0.1200" stroke-linecap="round" stroke-linejoin="round" fill="#666666"/>
        <path d="M 40.5619,7.2100 L 39.1990,7.2100 L 39.1990,7.4489 L 40.5619,7.4489 L 40.5619,7.2100 Z" stroke="#000000" stroke-width="0.1200" stroke-linecap="round" stroke-linejoin="round" fill="#666666"/>
        <path d="M 41.5313,6.5213 L 41.2503,7.1116 L 41.7983,7.1116 L 41.5313,6.5213 Z" stroke="#000000" stroke-width="0.1200" stroke-linecap="round" stroke-linejoin="round" fill="#00FF00"/>
        <path d="M 38.1453,6.5213 L 38.4263,7.1116 L 38.6932,6.5213 L 38.1453,6.5213 Z" stroke="#000000" stroke-width="0.1200" stroke-linecap="round" stroke-linejoin="round" fill="#00FF00"/>
        <path d="M 43.4983,2.3612 L 42.5570,2.3612 L 42.5570,3.3028 L 43.4983,3.3028 L 43.4983,2.3612 Z" stroke="#000000" stroke-width="0.1200" stroke-linecap="round" stroke-linejoin="round" fill="#000000"/>
        <path d="M 43.4983,3.9775 L 42.5570,3.9775 L 42.5570,4.9191 L 43.4983,4.9191 L 43.4983,3.9775 Z" stroke="#000000" stroke-width="0.1200" stroke-linecap="round" stroke-linejoin="round" fill="#000000"/>
        <path d="M 43.4983,5.6078 L 42.5570,5.6078 L 42.5570,6.5494 L 43.4983,6.5494 L 43.4983,5.6078 Z" stroke="#000000" stroke-width="0.1200" stroke-linecap="round" stroke-linejoin="round" fill="#000000"/>
        <path d="M 43.4983,7.2241 L 42.5570,7.2241 L 42.5570,8.1657 L 43.4983,8.1657 L 43.4983,7.2241 Z" stroke="#000000" stroke-width="0.1200" stroke-linecap="round" stroke-linejoin="round" fill="#000000"/>
        <path d="M 43.4983,8.8403 L 42.5570,8.8403 L 42.5570,9.7820 L 43.4983,9.7820 L 43.4983,8.8403 Z" stroke="#000000" stroke-width="0.1200" stroke-linecap="round" stroke-linejoin="round" fill="#000000"/>
        <path d="M 43.4983,10.4707 L 42.5570,10.4707 L 42.5570,11.4123 L 43.4983,11.4123 L 43.4983,10.4707 Z" stroke="#000000" stroke-width="0.1200" stroke-linecap="round" stroke-linejoin="round" fill="#000000"/>
        <path d="M 44.9173,2.3612 L 43.9760,2.3612 L 43.9760,3.3028 L 44.9173,3.3028 L 44.9173,2.3612 Z" stroke="#000000" stroke-width="0.1200" stroke-linecap="round" stroke-linejoin="round" fill="#000000"/>
        <path d="M 44.9173,3.9775 L 43.9760,3.9775 L 43.9760,4.9191 L 44.9173,4.9191 L 44.9173,3.9775 Z" stroke="#000000" stroke-width="0.1200" stroke-linecap="round" stroke-linejoin="round" fill="#000000"/>
        <path d="M 44.9173,5.6078 L 43.9760,5.6078 L 43.9760,6.5494 L 44.9173,6.5494 L 44.9173,5.6078 Z" stroke="#000000" stroke-width="0.1200" stroke-linecap="round" stroke-linejoin="round" fill="#000000"/>
        <path d="M 46.3223,2.3612 L 45.3810,2.3612 L 45.3810,3.3028 L 46.3223,3.3028 L 46.3223,2.3612 Z" stroke="#000000" stroke-width="0.1200" stroke-linecap="round" stroke-linejoin="round" fill="#000000"/>
        <path d="M 46.3223,3.9775 L 45.3810,3.9775 L 45.3810,4.9191 L 46.3223,4.9191 L 46.3223,3.9775 Z" stroke="#000000" stroke-width="0.1200" stroke-linecap="round" stroke-linejoin="round" fill="#000000"/>
        <path d="M 46.3223,5.6078 L 45.3810,5.6078 L 45.3810,6.5494 L 46.3223,6.5494 L 46.3223,5.6078 Z" stroke="#000000" stroke-width="0.1200" stroke-linecap="round" stroke-linejoin="round" fill="#000000"/>
        <path d="M 53.4034,5.6078 L 52.4621,5.6078 L 52.4621,6.5494 L 53.4034,6.5494 L 53.4034,5.6078 Z" stroke="#000000" stroke-width="0.1200" stroke-linecap="round" stroke-linejoin="round" fill="#000000"/>
        <path d="M 54.8225,5.6078 L 53.8811,5.6078 L 53.8811,6.5494 L 54.8225,6.5494 L 54.8225,5.6078 Z" stroke="#000000" stroke-width="0.1200" stroke-linecap="round" stroke-linejoin="round" fill="#000000"/>
        <path d="M 56.2415,5.6078 L 55.3002,5.6078 L 55.3002,6.5494 L 56.2415,6.5494 L 56.2415,5.6078 Z" stroke="#000000" stroke-width="0.1200" stroke-linecap="round" stroke-linejoin="round" fill="#000000"/>
        <path d="M 57.6465,5.6078 L 56.7051,5.6078 L 56.7051,6.5494 L 57.6465,6.5494 L 57.6465,5.6078 Z" stroke="#000000" stroke-width="0.1200" stroke-linecap="round" stroke-linejoin="round" fill="#000000"/>
        <path d="M 59.0655,5.6078 L 58.1242,5.6078 L 58.1242,6.5494 L 59.0655,6.5494 L 59.0655,5.6078 Z" stroke="#000000" stroke-width="0.1200" stroke-linecap="round" stroke-linejoin="round" fill="#000000"/>
        <path d="M 60.4845,5.6078 L 59.5432,5.6078 L 59.5432,6.5494 L 60.4845,6.5494 L 60.4845,5.6078 Z" stroke="#000000" stroke-width="0.1200" stroke-linecap="round" stroke-linejoin="round" fill="#000000"/>
        <path d="M 61.9036,5.6078 L 60.9622,5.6078 L 60.9622,6.5494 L 61.9036,6.5494 L 61.9036,5.6078 Z" stroke="#000000" stroke-width="0.1200" stroke-linecap="round" stroke-linejoin="round" fill="#000000"/>
        <path d="M 63.3086,5.6078 L 62.3672,5.6078 L 62.3672,6.5494 L 63.3086,6.5494 L 63.3086,5.6078 Z" stroke="#000000" stroke-width="0.1200" stroke-linecap="round" stroke-linejoin="round" fill="#000000"/>
        <path d="M 64.7276,5.6078 L 63.7863,5.6078 L 63.7863,6.5494 L 64.7276,6.5494 L 64.7276,5.6078 Z" stroke="#000000" stroke-width="0.1200" stroke-linecap="round" stroke-linejoin="round" fill="#000000"/>
        <path d="M 66.1466,5.6078 L 65.2053,5.6078 L 65.2053,6.5494 L 66.1466,6.5494 L 66.1466,5.6078 Z" stroke="#000000" stroke-width="0.1200" stroke-linecap="round" stroke-linejoin="round" fill="#000000"/>
        <path d="M 67.5657,5.6078 L 66.6243,5.6078 L 66.6243,6.5494 L 67.5657,6.5494 L 67.5657,5.6078 Z" stroke="#000000" stroke-width="0.1200" stroke-linecap="round" stroke-linejoin="round" fill="#000000"/>
        <path d="M 68.9706,5.6078 L 68.0293,5.6078 L 68.0293,6.5494 L 68.9706,6.5494 L 68.9706,5.6078 Z" stroke="#000000" stroke-width="0.1200" stroke-linecap="round" stroke-linejoin="round" fill="#000000"/>
        <path d="M 70.3897,5.6078 L 69.4483,5.6078 L 69.4483,6.5494 L 70.3897,6.5494 L 70.3897,5.6078 Z" stroke="#000000" stroke-width="0.1200" stroke-linecap="round" stroke-linejoin="round" fill="#000000"/>
        <path d="M 71.8087,5.6078 L 70.8674,5.6078 L 70.8674,6.5494 L 71.8087,6.5494 L 71.8087,5.6078 Z" stroke="#000000" stroke-width="0.1200" stroke-linecap="round" stroke-linejoin="round" fill="#000000"/>
        <path d="M 73.2277,5.6078 L 72.2864,5.6078 L 72.2864,6.5494 L 73.2277,6.5494 L 73.2277,5.6078 Z" stroke="#000000" stroke-width="0.1200" stroke-linecap="round" stroke-linejoin="round" fill="#000000"/>
        <path d="M 74.6327,5.6078 L 73.6914,5.6078 L 73.6914,6.5494 L 74.6327,6.5494 L 74.6327,5.6078 Z" stroke="#000000" stroke-width="0.1200" stroke-linecap="round" stroke-linejoin="round" fill="#000000"/>
        <path d="M 76.0518,5.6078 L 75.1104,5.6078 L 75.1104,6.5494 L 76.0518,6.5494 L 76.0518,5.6078 Z" stroke="#000000" stroke-width="0.1200" stroke-linecap="round" stroke-linejoin="round" fill="#000000"/>
        <path d="M 77.4708,5.6078 L 76.5295,5.6078 L 76.5295,6.5494 L 77.4708,6.5494 L 77.4708,5.6078 Z" stroke="#000000" stroke-width="0.1200" stroke-linecap="round" stroke-linejoin="round" fill="#000000"/>
        <path d="M 78.8898,5.6078 L 77.9485,5.6078 L 77.9485,6.5494 L 78.8898,6.5494 L 78.8898,5.6078 Z" stroke="#000000" stroke-width="0.1200" stroke-linecap="round" stroke-linejoin="round" fill="#000000"/>
        <path d="M 80.2948,5.6078 L 79.3535,5.6078 L 79.3535,6.5494 L 80.2948,6.5494 L 80.2948,5.6078 Z" stroke="#000000" stroke-width="0.1200" stroke-linecap="round" stroke-linejoin="round" fill="#000000"/>
        <path d="M 81.7138,5.6078 L 80.7725,5.6078 L 80.7725,6.5494 L 81.7138,6.5494 L 81.7138,5.6078 Z" stroke="#000000" stroke-width="0.1200" stroke-linecap="round" stroke-linejoin="round" fill="#000000"/>
        <path d="M 83.1329,5.6078 L 82.1915,5.6078 L 82.1915,6.5494 L 83.1329,6.5494 L 83.1329,5.6078 Z" stroke="#000000" stroke-width="0.1200" stroke-linecap="round" stroke-linejoin="round" fill="#000000"/>
        <path d="M 84.5379,5.6078 L 83.5965,5.6078 L 83.5965,6.5494 L 84.5379,6.5494 L 84.5379,5.6078 Z" stroke="#000000" stroke-width="0.1200" stroke-linecap="round" stroke-linejoin="round" fill="#000000"/>
        <path d="M 85.9569,5.6078 L 85.0156,5.6078 L 85.0156,6.5494 L 85.9569,6.5494 L 85.9569,5.6078 Z" stroke="#000000" stroke-width="0.1200" stroke-linecap="round" stroke-linejoin="round" fill="#000000"/>
        <path d="M 87.3759,5.6078 L 86.4346,5.6078 L 86.4346,6.5494 L 87.3759,6.5494 L 87.3759,5.6078 Z" stroke="#000000" stroke-width="0.1200" stroke-linecap="round" stroke-linejoin="round" fill="#000000"/>
        <path d="M 88.7950,5.6078 L 87.8536,5.6078 L 87.8536,6.5494 L 88.7950,6.5494 L 88.7950,5.6078 Z" stroke="#000000" stroke-width="0.1200" stroke-linecap="round" stroke-linejoin="round" fill="#000000"/>
        <path d="M 90.1999,5.6078 L 89.2586,5.6078 L 89.2586,6.5494 L 90.1999,6.5494 L 90.1999,5.6078 Z" stroke="#000000" stroke-width="0.1200" stroke-linecap="round" stroke-linejoin="round" fill="#000000"/>
        <path d="M 91.6190,5.6078 L 90.6776,5.6078 L 90.6776,6.5494 L 91.6190,6.5494 L 91.6190,5.6078 Z" stroke="#000000" stroke-width="0.1200" stroke-linecap="round" stroke-linejoin="round" fill="#000000"/>
        <path d="M 93.0380,5.6078 L 92.0967,5.6078 L 92.0967,6.5494 L 93.0380,6.5494 L 93.0380,5.6078 Z" stroke="#000000" stroke-width="0.1200" stroke-linecap="round" stroke-linejoin="round" fill="#000000"/>
        <path d="M 94.4570,5.6078 L 93.5157,5.6078 L 93.5157,6.5494 L 94.4570,6.5494 L 94.4570,5.6078 Z" stroke="#000000" stroke-width="0.1200" stroke-linecap="round" stroke-linejoin="round" fill="#000000"/>
        <path d="M 95.8620,5.6078 L 94.9207,5.6078 L 94.9207,6.5494 L 95.8620,6.5494 L 95.8620,5.6078 Z" stroke="#000000" stroke-width="0.1200" stroke-linecap="round" stroke-linejoin="round" fill="#000000"/>
        <path d="M 97.2811,5.6078 L 96.3397,5.6078 L 96.3397,6.5494 L 97.2811,6.5494 L 97.2811,5.6078 Z" stroke="#000000" stroke-width="0.1200" stroke-linecap="round" stroke-linejoin="round" fill="#000000"/>
        <path d="M 98.7001,5.6078 L 97.7588,5.6078 L 97.7588,6.5494 L 98.7001,6.5494 L 98.7001,5.6078 Z" stroke="#000000" stroke-width="0.1200" stroke-linecap="round" stroke-linejoin="round" fill="#000000"/>
        <path d="M 100.1191,5.6078 L 99.1778,5.6078 L 99.1778,6.5494 L 100.1191,6.5494 L 100.1191,5.6078 Z" stroke="#000000" stroke-width="0.1200" stroke-linecap="round" stroke-linejoin="round" fill="#000000"/>
        <path d="M 101.5241,5.6078 L 100.5828,5.6078 L 100.5828,6.5494 L 101.5241,6.5494 L 101.5241,5.6078 Z" stroke="#000000" stroke-width="0.1200" stroke-linecap="round" stroke-linejoin="round" fill="#000000"/>
        <path d="M 102.9431,5.6078 L 102.0018,5.6078 L 102.0018,6.5494 L 102.9431,6.5494 L 102.9431,5.6078 Z" stroke="#000000" stroke-width="0.1200" stroke-linecap="round" stroke-linejoin="round" fill="#000000"/>
        <path d="M 104.3622,5.6078 L 103.4208,5.6078 L 103.4208,6.5494 L 104.3622,6.5494 L 104.3622,5.6078 Z" stroke="#000000" stroke-width="0.1200" stroke-linecap="round" stroke-linejoin="round" fill="#000000"/>
        <path d="M 105.7812,5.6078 L 104.8399,5.6078 L 104.8399,6.5494 L 105.7812,6.5494 L 105.7812,5.6078 Z" stroke="#000000" stroke-width="0.1200" stroke-linecap="round" stroke-linejoin="round" fill="#000000"/>
        <path d="M 107.1862,5.6078 L 106.2449,5.6078 L 106.2449,6.5494 L 107.1862,6.5494 L 107.1862,5.6078 Z" stroke="#000000" stroke-width="0.1200" stroke-linecap="round" stroke-linejoin="round" fill="#000000"/>
        <path d="M 108.6052,5.6078 L 107.6639,5.6078 L 107.6639,6.5494 L 108.6052,6.5494 L 108.6052,5.6078 Z" stroke="#000000" stroke-width="0.1200" stroke-linecap="round" stroke-linejoin="round" fill="#000000"/>
        <path d="M 110.0243,5.6078 L 109.0829,5.6078 L 109.0829,6.5494 L 110.0243,6.5494 L 110.0243,5.6078 Z" stroke="#000000" stroke-width="0.1200" stroke-linecap="round" stroke-linejoin="round" fill="#000000"/>
        <path d="M 111.4433,5.6078 L 110.5020,5.6078 L 110.5020,6.5494 L 111.4433,6.5494 L 111.4433,5.6078 Z" stroke="#000000" stroke-width="0.1200" stroke-linecap="round" stroke-linejoin="round" fill="#000000"/>
        <text font-family="Arial" fill="#000000" style="white-space:pre;" font-weight="400" text-anchor="start" x="2.6133" y="0.9767" font-size="0.3512"><![CDATA[FIM-7904E]]></text>
        <ellipse cx="12.2963" cy="5.9424" rx="0.2631" ry="0.2631" fill="#00FF00" stroke="#000000" stroke-width="0.1200" stroke-linecap="round" stroke-linejoin="round"/>
        <ellipse cx="12.2963" cy="5.9424" rx="0.2631" ry="0.2631" fill="none" stroke="#000000" stroke-width="0.1200" stroke-linecap="round" stroke-linejoin="round"/>
        <ellipse cx="12.2963" cy="7.1161" rx="0.2631" ry="0.2631" fill="#FF0000" stroke="#000000" stroke-width="0.1200" stroke-linecap="round" stroke-linejoin="round"/>
        <ellipse cx="12.2963" cy="7.1161" rx="0.2631" ry="0.2631" fill="none" stroke="#000000" stroke-width="0.1200" stroke-linecap="round" stroke-linejoin="round"/>
        <ellipse cx="12.2963" cy="8.3032" rx="0.2631" ry="0.2631" fill="#00FF00" stroke="#000000" stroke-width="0.1200" stroke-linecap="round" stroke-linejoin="round"/>
        <ellipse cx="12.2963" cy="8.3032" rx="0.2631" ry="0.2631" fill="none" stroke="#000000" stroke-width="0.1200" stroke-linecap="round" stroke-linejoin="round"/>
        <ellipse cx="12.2963" cy="9.4768" rx="0.2631" ry="0.2631" fill="#00FF00" stroke="#000000" stroke-width="0.1200" stroke-linecap="round" stroke-linejoin="round"/>
        <ellipse cx="12.2963" cy="9.4768" rx="0.2631" ry="0.2631" fill="none" stroke="#000000" stroke-width="0.1200" stroke-linecap="round" stroke-linejoin="round"/>
        <text font-family="Arial" fill="#000000" style="white-space:pre;" font-weight="400" text-anchor="start" x="16.0668" y="11.1685" font-size="0.1484"><![CDATA[STATUS]]></text>
        <text font-family="Arial" fill="#000000" style="white-space:pre;" font-weight="400" text-anchor="start" x="16.0668" y="11.4518" font-size="0.1484"><![CDATA[ALARM]]></text>
        <text font-family="Arial" fill="#000000" style="white-space:pre;" font-weight="400" text-anchor="start" x="16.0668" y="11.7351" font-size="0.1484"><![CDATA[HA]]></text>
        <text font-family="Arial" fill="#000000" style="white-space:pre;" font-weight="400" text-anchor="start" x="16.0668" y="12.0184" font-size="0.1484"><![CDATA[POWER]]></text>
        <path d="M 19.1423,9.4447 L 19.1741,9.4616 L 19.1900,9.4784 L 19.2006,9.4840 L 19.2271,9.5122 L 19.2324,9.5234 L 19.2429,9.5290 L 19.2482,9.5403 L 19.2588,9.5515 L 19.2641,9.5628 L 19.2694,9.5684 L 19.2800,9.5909 L 19.2906,9.6021 L 19.2959,9.6133 L 19.2959,9.6246 L 19.3012,9.6415 L 19.3118,9.6639 L 19.3118,9.6752 L 19.3171,9.6864 L 19.3224,9.7033 L 19.3224,9.7258 L 19.3277,9.7427 L 19.3277,9.8214 L 19.3224,9.8382 L 19.3224,9.8607 L 19.3118,9.8944 L 19.3065,9.9169 L 19.3012,9.9338 L 19.2906,9.9507 L 19.2853,9.9675 L 19.2747,9.9788 L 19.2694,9.9956 L 19.2588,10.0125 L 19.1847,10.0912 L 19.1688,10.1024 L 19.1529,10.1081 L 19.1423,10.1193 L 19.1264,10.1249 L 19.1106,10.1362 L 19.0947,10.1418 L 19.0735,10.1474 L 19.0417,10.1587 L 19.0205,10.1587 L 19.0047,10.1643 L 18.9305,10.1643 L 18.9146,10.1587 L 18.8935,10.1587 L 18.8617,10.1474 L 18.8405,10.1418 L 18.8246,10.1362 L 18.8087,10.1249 L 18.7928,10.1193 L 18.7823,10.1081 L 18.7664,10.1024 L 18.7505,10.0912 L 18.6764,10.0125 L 18.6658,9.9956 L 18.6605,9.9788 L 18.6499,9.9675 L 18.6446,9.9507 L 18.6340,9.9338 L 18.6287,9.9169 L 18.6234,9.8944 L 18.6128,9.8607 L 18.6128,9.8382 L 18.6075,9.8214 L 18.6075,9.7427 L 18.6128,9.7314 L 18.6128,9.7089 L 18.6181,9.6977 L 18.6181,9.6864 L 18.6234,9.6752 L 18.6234,9.6639 L 18.6287,9.6527 L 18.6287,9.6415 L 18.6499,9.5965 L 18.6552,9.5909 L 18.6711,9.5571 L 18.6764,9.5515 L 18.6816,9.5403 L 18.6922,9.5346 L 18.6975,9.5234 L 18.7346,9.4840 L 18.7452,9.4784 L 18.7505,9.4672 L 18.7611,9.4616 L 18.7611,9.4672 L 18.7664,9.4672 L 18.7664,9.4728 L 18.7717,9.4728 L 18.7717,9.4784 L 18.7770,9.4840 L 18.7770,9.4897 L 18.7823,9.4897 L 18.7823,9.5009 L 18.7876,9.5009 L 18.7876,9.5065 L 18.7928,9.5122 L 18.7928,9.5178 L 18.7981,9.5178 L 18.7981,9.5234 L 18.8034,9.5234 L 18.8034,9.5290 L 18.7981,9.5346 L 18.7876,9.5403 L 18.7399,9.5909 L 18.7346,9.6021 L 18.7240,9.6133 L 18.7187,9.6246 L 18.7187,9.6302 L 18.7134,9.6415 L 18.7081,9.6471 L 18.7028,9.6583 L 18.7028,9.6639 L 18.6975,9.6752 L 18.6922,9.6808 L 18.6922,9.6921 L 18.6869,9.7033 L 18.6869,9.7089 L 18.6816,9.7202 L 18.6816,9.7370 L 18.6764,9.7483 L 18.6764,9.8214 L 18.6816,9.8326 L 18.6816,9.8495 L 18.6869,9.8663 L 18.6922,9.8776 L 18.6922,9.8944 L 18.6975,9.9057 L 18.7028,9.9225 L 18.7134,9.9338 L 18.7187,9.9450 L 18.7240,9.9619 L 18.7452,9.9844 L 18.7505,9.9956 L 18.7717,10.0181 L 18.7823,10.0237 L 18.8034,10.0462 L 18.8193,10.0519 L 18.8299,10.0575 L 18.8405,10.0687 L 18.8564,10.0743 L 18.8670,10.0800 L 18.8829,10.0800 L 18.8935,10.0856 L 18.9093,10.0912 L 18.9252,10.0912 L 18.9358,10.0968 L 18.9994,10.0968 L 19.0100,10.0912 L 19.0258,10.0912 L 19.0417,10.0856 L 19.0523,10.0800 L 19.0682,10.0800 L 19.0788,10.0743 L 19.0947,10.0687 L 19.1053,10.0575 L 19.1159,10.0519 L 19.1317,10.0462 L 19.1529,10.0237 L 19.1635,10.0181 L 19.1847,9.9956 L 19.1900,9.9844 L 19.2112,9.9619 L 19.2165,9.9450 L 19.2218,9.9338 L 19.2324,9.9225 L 19.2376,9.9057 L 19.2429,9.8944 L 19.2429,9.8776 L 19.2482,9.8663 L 19.2535,9.8495 L 19.2535,9.8326 L 19.2588,9.8214 L 19.2588,9.7539 L 19.2535,9.7427 L 19.2535,9.7258 L 19.2482,9.7145 L 19.2482,9.7033 L 19.2429,9.6921 L 19.2429,9.6808 L 19.2376,9.6752 L 19.2324,9.6639 L 19.2324,9.6527 L 19.2271,9.6471 L 19.2218,9.6358 L 19.2165,9.6302 L 19.2059,9.6077 L 19.1741,9.5740 L 19.1688,9.5628 L 19.1582,9.5571 L 19.1476,9.5459 L 19.1370,9.5403 L 19.1317,9.5346 L 19.1212,9.5290 L 19.1159,9.5234 L 19.1053,9.5178 L 19.1053,9.5122 L 19.1106,9.5122 L 19.1106,9.5009 L 19.1159,9.5009 L 19.1159,9.4953 L 19.1212,9.4897 L 19.1212,9.4840 L 19.1264,9.4840 L 19.1264,9.4728 L 19.1317,9.4672 L 19.1317,9.4616 L 19.1370,9.4616 L 19.1370,9.4503 L 19.1423,9.4503 L 19.1423,9.4447 Z" stroke="#000000" stroke-width="0.1200" stroke-linecap="round" stroke-linejoin="round" fill="#000000"/>
        <path d="M 18.9994,9.2760 L 18.9199,9.2760 L 18.9199,9.8101 L 18.9994,9.8101 L 18.9994,9.2760 Z" stroke="#000000" stroke-width="0.1200" stroke-linecap="round" stroke-linejoin="round" fill="#000000"/>
        <text font-family="Arial" fill="#000000" style="white-space:pre;" font-weight="400" text-anchor="start" x="21.5993" y="9.7276" font-size="0.0582"><![CDATA[MGMT1]]></text>
        <text font-family="Arial" fill="#000000" style="white-space:pre;" font-weight="400" text-anchor="start" x="22.0971" y="9.7276" font-size="0.0582"><![CDATA[MGMT3]]></text>
        <text font-family="Arial" fill="#000000" style="white-space:pre;" font-weight="400" text-anchor="start" x="22.6478" y="9.7276" font-size="0.0582"><![CDATA[M1]]></text>
        <text font-family="Arial" fill="#000000" style="white-space:pre;" font-weight="400" text-anchor="start" x="22.6478" y="10.6215" font-size="0.0582"><![CDATA[M2]]></text>
        <text font-family="Arial" fill="#000000" style="white-space:pre;" font-weight="400" text-anchor="start" x="21.5993" y="10.6215" font-size="0.0582"><![CDATA[MGMT2]]></text>
        <text font-family="Arial" fill="#000000" style="white-space:pre;" font-weight="400" text-anchor="start" x="22.0971" y="10.6215" font-size="0.0582"><![CDATA[MGMT4]]></text>
        <text font-family="Arial" fill="#000000" transform="rotate(-270, 30.2465, 10.1492) translate(0, 0.0524)" style="white-space:pre;" font-weight="400" text-anchor="start" x="30.2465" y="10.1492" font-size="0.0582"><![CDATA[Push to Unlock]]></text>
        <text font-family="Arial" fill="#000000" transform="rotate(-270, 19.4865, 10.1492) translate(0, 0.0524)" style="white-space:pre;" font-weight="400" text-anchor="start" x="19.4865" y="10.1492" font-size="0.0582"><![CDATA[Push to Unlock]]></text>
        <ellipse cx="47.3707" cy="7.8580" rx="0.2631" ry="0.2631" fill="#00FF00" stroke="#000000" stroke-width="0.1200" stroke-linecap="round" stroke-linejoin="round"/>
        <ellipse cx="47.3707" cy="7.8580" rx="0.2631" ry="0.2631" fill="none" stroke="#000000" stroke-width="0.1200" stroke-linecap="round" stroke-linejoin="round"/>
        <ellipse cx="49.2189" cy="7.8580" rx="0.2631" ry="0.2631" fill="#00FF00" stroke="#000000" stroke-width="0.1200" stroke-linecap="round" stroke-linejoin="round"/>
        <ellipse cx="49.2189" cy="7.8580" rx="0.2631" ry="0.2631" fill="none" stroke="#000000" stroke-width="0.1200" stroke-linecap="round" stroke-linejoin="round"/>
        <text font-family="Arial" fill="#000000" style="white-space:pre;" font-weight="400" text-anchor="start" x="61.2858" y="9.8465" font-size="0.1484"><![CDATA[B1]]></text>
        <ellipse cx="56.3551" cy="7.8580" rx="0.2631" ry="0.2631" fill="#00FF00" stroke="#000000" stroke-width="0.1200" stroke-linecap="round" stroke-linejoin="round"/>
        <ellipse cx="56.3551" cy="7.8580" rx="0.2631" ry="0.2631" fill="none" stroke="#000000" stroke-width="0.1200" stroke-linecap="round" stroke-linejoin="round"/>
        <ellipse cx="58.2168" cy="7.8580" rx="0.2631" ry="0.2631" fill="#00FF00" stroke="#000000" stroke-width="0.1200" stroke-linecap="round" stroke-linejoin="round"/>
        <ellipse cx="58.2168" cy="7.8580" rx="0.2631" ry="0.2631" fill="none" stroke="#000000" stroke-width="0.1200" stroke-linecap="round" stroke-linejoin="round"/>
        <text font-family="Arial" fill="#000000" style="white-space:pre;" font-weight="400" text-anchor="start" x="72.4422" y="9.8465" font-size="0.1484"><![CDATA[B2]]></text>
        <ellipse cx="65.3531" cy="7.8580" rx="0.2631" ry="0.2631" fill="#00FF00" stroke="#000000" stroke-width="0.1200" stroke-linecap="round" stroke-linejoin="round"/>
        <ellipse cx="65.3531" cy="7.8580" rx="0.2631" ry="0.2631" fill="none" stroke="#000000" stroke-width="0.1200" stroke-linecap="round" stroke-linejoin="round"/>
        <ellipse cx="67.2147" cy="7.8580" rx="0.2631" ry="0.2631" fill="#00FF00" stroke="#000000" stroke-width="0.1200" stroke-linecap="round" stroke-linejoin="round"/>
        <ellipse cx="67.2147" cy="7.8580" rx="0.2631" ry="0.2631" fill="none" stroke="#000000" stroke-width="0.1200" stroke-linecap="round" stroke-linejoin="round"/>
        <text font-family="Arial" fill="#000000" style="white-space:pre;" font-weight="400" text-anchor="start" x="83.5985" y="9.8465" font-size="0.1484"><![CDATA[B3]]></text>
        <ellipse cx="74.3510" cy="7.8580" rx="0.2631" ry="0.2631" fill="#00FF00" stroke="#000000" stroke-width="0.1200" stroke-linecap="round" stroke-linejoin="round"/>
        <ellipse cx="74.3510" cy="7.8580" rx="0.2631" ry="0.2631" fill="none" stroke="#000000" stroke-width="0.1200" stroke-linecap="round" stroke-linejoin="round"/>
        <ellipse cx="76.1992" cy="7.8580" rx="0.2631" ry="0.2631" fill="#00FF00" stroke="#000000" stroke-width="0.1200" stroke-linecap="round" stroke-linejoin="round"/>
        <ellipse cx="76.1992" cy="7.8580" rx="0.2631" ry="0.2631" fill="none" stroke="#000000" stroke-width="0.1200" stroke-linecap="round" stroke-linejoin="round"/>
        <text font-family="Arial" fill="#000000" style="white-space:pre;" font-weight="400" text-anchor="start" x="94.7414" y="9.8465" font-size="0.1484"><![CDATA[B4]]></text>
        <ellipse cx="83.2815" cy="7.8580" rx="0.2631" ry="0.2631" fill="#00FF00" stroke="#000000" stroke-width="0.1200" stroke-linecap="round" stroke-linejoin="round"/>
        <ellipse cx="83.2815" cy="7.8580" rx="0.2631" ry="0.2631" fill="none" stroke="#000000" stroke-width="0.1200" stroke-linecap="round" stroke-linejoin="round"/>
        <ellipse cx="85.1431" cy="7.8580" rx="0.2631" ry="0.2631" fill="#00FF00" stroke="#000000" stroke-width="0.1200" stroke-linecap="round" stroke-linejoin="round"/>
        <ellipse cx="85.1431" cy="7.8580" rx="0.2631" ry="0.2631" fill="none" stroke="#000000" stroke-width="0.1200" stroke-linecap="round" stroke-linejoin="round"/>
        <text font-family="Arial" fill="#000000" style="white-space:pre;" font-weight="400" text-anchor="start" x="105.8303" y="9.8465" font-size="0.1484"><![CDATA[B5]]></text>
        <ellipse cx="92.2794" cy="7.8580" rx="0.2631" ry="0.2631" fill="#00FF00" stroke="#000000" stroke-width="0.1200" stroke-linecap="round" stroke-linejoin="round"/>
        <ellipse cx="92.2794" cy="7.8580" rx="0.2631" ry="0.2631" fill="none" stroke="#000000" stroke-width="0.1200" stroke-linecap="round" stroke-linejoin="round"/>
        <ellipse cx="94.1276" cy="7.8580" rx="0.2631" ry="0.2631" fill="#00FF00" stroke="#000000" stroke-width="0.1200" stroke-linecap="round" stroke-linejoin="round"/>
        <ellipse cx="94.1276" cy="7.8580" rx="0.2631" ry="0.2631" fill="none" stroke="#000000" stroke-width="0.1200" stroke-linecap="round" stroke-linejoin="round"/>
        <text font-family="Arial" fill="#000000" style="white-space:pre;" font-weight="400" text-anchor="start" x="116.9732" y="9.8465" font-size="0.1484"><![CDATA[B6]]></text>
        <ellipse cx="101.2774" cy="7.8580" rx="0.2631" ry="0.2631" fill="#00FF00" stroke="#000000" stroke-width="0.1200" stroke-linecap="round" stroke-linejoin="round"/>
        <ellipse cx="101.2774" cy="7.8580" rx="0.2631" ry="0.2631" fill="none" stroke="#000000" stroke-width="0.1200" stroke-linecap="round" stroke-linejoin="round"/>
        <ellipse cx="103.1255" cy="7.8580" rx="0.2631" ry="0.2631" fill="#00FF00" stroke="#000000" stroke-width="0.1200" stroke-linecap="round" stroke-linejoin="round"/>
        <ellipse cx="103.1255" cy="7.8580" rx="0.2631" ry="0.2631" fill="none" stroke="#000000" stroke-width="0.1200" stroke-linecap="round" stroke-linejoin="round"/>
        <text font-family="Arial" fill="#000000" style="white-space:pre;" font-weight="400" text-anchor="start" x="128.1295" y="9.8465" font-size="0.1484"><![CDATA[B7]]></text>
        <ellipse cx="110.2618" cy="7.8580" rx="0.2631" ry="0.2631" fill="#00FF00" stroke="#000000" stroke-width="0.1200" stroke-linecap="round" stroke-linejoin="round"/>
        <ellipse cx="110.2618" cy="7.8580" rx="0.2631" ry="0.2631" fill="none" stroke="#000000" stroke-width="0.1200" stroke-linecap="round" stroke-linejoin="round"/>
        <ellipse cx="112.1235" cy="7.8580" rx="0.2631" ry="0.2631" fill="#00FF00" stroke="#000000" stroke-width="0.1200" stroke-linecap="round" stroke-linejoin="round"/>
        <ellipse cx="112.1235" cy="7.8580" rx="0.2631" ry="0.2631" fill="none" stroke="#000000" stroke-width="0.1200" stroke-linecap="round" stroke-linejoin="round"/>
        <text font-family="Arial" fill="#000000" style="white-space:pre;" font-weight="400" text-anchor="start" x="139.2859" y="9.8465" font-size="0.1484"><![CDATA[B8]]></text>
        <path d="M 9.4495,9.7424 L 9.4495,9.7783 L 9.4616,9.7783 L 9.4616,9.8022 L 9.4737,9.8142 L 9.4737,9.8261 L 9.4858,9.8261 L 9.4858,9.8381 L 9.4979,9.8381 L 9.4979,9.8500 L 9.5101,9.8500 L 9.5222,9.8620 L 9.5464,9.8620 L 9.5464,9.8739 L 10.7336,9.8739 L 10.7336,9.8620 L 10.7579,9.8620 L 10.7700,9.8500 L 10.7821,9.8500 L 10.7821,9.8381 L 10.7942,9.8381 L 10.7942,9.8261 L 10.8063,9.8261 L 10.8063,9.8142 L 10.8184,9.8022 L 10.8184,9.7783 L 10.8306,9.7783 L 10.8306,6.7898 L 10.8184,6.7898 L 10.8184,6.7659 L 10.8063,6.7540 L 10.8063,6.7420 L 10.7942,6.7420 L 10.7942,6.7301 L 10.7821,6.7301 L 10.7821,6.7181 L 10.7700,6.7181 L 10.7579,6.7061 L 10.7336,6.7061 L 10.7336,6.6942 L 9.5464,6.6942 L 9.5464,6.7061 L 9.5222,6.7061 L 9.5101,6.7181 L 9.4979,6.7181 L 9.4979,6.7301 L 9.4858,6.7301 L 9.4858,6.7420 L 9.4737,6.7420 L 9.4737,6.7540 L 9.4616,6.7659 L 9.4616,6.7898 L 9.4495,6.7898 L 9.4495,9.7305 L 9.4495,9.7424 Z" stroke="#000000" stroke-width="0.1200" stroke-linecap="round" stroke-linejoin="round" fill="#BFBFBF"/>
        <path d="M 9.5585,9.6946 L 9.5585,9.7305 L 9.5706,9.7305 L 9.5706,9.7424 L 9.5827,9.7544 L 9.5949,9.7544 L 9.5949,9.7663 L 10.6852,9.7663 L 10.6973,9.7544 L 10.7094,9.7544 L 10.7094,9.7424 L 10.7215,9.7424 L 10.7215,9.7305 L 10.7336,9.7185 L 10.7336,6.8376 L 10.7215,6.8376 L 10.7215,6.8257 L 10.7094,6.8257 L 10.7094,6.8137 L 10.6973,6.8137 L 10.6852,6.8018 L 9.5949,6.8018 L 9.5949,6.8137 L 9.5827,6.8137 L 9.5706,6.8257 L 9.5706,6.8376 L 9.5585,6.8376 L 9.5585,9.6827 L 9.5585,9.6946 Z" stroke="#7F7F7F" stroke-width="0.1200" stroke-linecap="round" stroke-linejoin="round" fill="#000000"/>
        <path d="M 10.1642,9.0611 L 10.1642,9.3241 L 10.1037,9.3241 L 10.1037,9.0611 L 10.1642,9.0611 Z" stroke="#000000" stroke-width="0.1200" stroke-linecap="round" stroke-linejoin="round" fill="#7F7F7F"/>
        <path d="M 10.1642,8.4634 L 10.1642,8.7264 L 10.1037,8.7264 L 10.1037,8.4634 L 10.1642,8.4634 Z" stroke="#000000" stroke-width="0.1200" stroke-linecap="round" stroke-linejoin="round" fill="#7F7F7F"/>
        <path d="M 10.1642,7.8776 L 10.1642,8.1406 L 10.1037,8.1406 L 10.1037,7.8776 L 10.1642,7.8776 Z" stroke="#000000" stroke-width="0.1200" stroke-linecap="round" stroke-linejoin="round" fill="#7F7F7F"/>
        <path d="M 10.1642,7.2680 L 10.1642,7.5310 L 10.1037,7.5310 L 10.1037,7.2680 L 10.1642,7.2680 Z" stroke="#000000" stroke-width="0.1200" stroke-linecap="round" stroke-linejoin="round" fill="#7F7F7F"/>
        <path d="M 9.7887,6.9811 L 9.7645,6.9811 L 9.7402,6.9930 L 9.7281,7.0169 L 9.7281,9.5512 L 9.7402,9.5751 L 9.7645,9.5870 L 10.0673,9.5870 L 10.0916,9.5751 L 10.1037,9.5512 L 10.1037,7.0169 L 10.0916,6.9930 L 10.0673,6.9811 L 10.0431,6.9811 L 9.7887,6.9811 Z" stroke="#000000" stroke-width="0.1200" stroke-linecap="round" stroke-linejoin="round" fill="#0000FF"/>
        <path d="M 9.9098,7.0767 L 9.8614,7.0887 L 9.8129,7.1365 L 9.8008,7.1843 L 9.8008,9.3838 L 9.8129,9.4316 L 9.8614,9.4795 L 9.9098,9.4914 L 9.9583,9.4795 L 10.0068,9.4316 L 10.0189,9.3838 L 10.0189,7.1843 L 10.0068,7.1365 L 9.9583,7.0887 L 9.9098,7.0767 Z" stroke="#6565FF" stroke-width="0.1200" stroke-linecap="round" stroke-linejoin="round" fill="#6565FF"/>
        <path d="M 28.7244,3.1476 L 28.7244,3.3001 L 28.4995,3.3001 L 28.4995,3.7300 L 27.5580,3.7300 L 27.5580,3.7716 L 27.2628,3.7716 L 27.2628,3.3001 L 27.3191,3.3001 L 27.3191,3.7300 L 27.5580,3.7300 L 27.5580,4.6867 L 27.6563,4.6867 L 27.6563,5.1859 L 27.5580,5.1859 L 27.5580,6.2675 L 31.1555,6.2675 L 31.1555,5.1859 L 31.0572,5.1859 L 31.0572,4.6867 L 31.1555,4.6867 L 31.1555,3.7300 L 31.3944,3.7300 L 31.3944,3.3001 L 31.4506,3.3001 L 31.4506,3.7716 L 31.1555,3.7716 L 31.1555,3.7300 L 30.2140,3.7300 L 30.2140,3.3001 L 29.9891,3.3001 L 29.9891,3.1476 L 28.7244,3.1476 Z" stroke="#000000" stroke-width="0.1200" stroke-linecap="round" stroke-linejoin="round" fill="#000000"/>
        <path d="M 28.4995,3.3140 L 27.3191,3.3140 L 27.3191,3.7438 L 28.4995,3.7438 L 28.4995,3.3140 Z" stroke="#494949" stroke-width="0.1200" stroke-linecap="round" stroke-linejoin="round" fill="#000000"/>
        <path d="M 31.3944,3.3140 L 30.2140,3.3140 L 30.2140,3.7438 L 31.3944,3.7438 L 31.3944,3.3140 Z" stroke="#494949" stroke-width="0.1200" stroke-linecap="round" stroke-linejoin="round" fill="#000000"/>
        <path d="M 28.7244,10.4827 L 28.7244,10.3302 L 28.4995,10.3302 L 28.4995,9.9004 L 27.5580,9.9004 L 27.5580,9.8588 L 27.2628,9.8588 L 27.2628,10.3302 L 27.3191,10.3302 L 27.3191,9.9004 L 27.5580,9.9004 L 27.5580,8.9436 L 27.6563,8.9436 L 27.6563,8.4444 L 27.5580,8.4444 L 27.5580,7.3629 L 31.1555,7.3629 L 31.1555,8.4444 L 31.0572,8.4444 L 31.0572,8.9436 L 31.1555,8.9436 L 31.1555,9.9004 L 31.3944,9.9004 L 31.3944,10.3302 L 31.4506,10.3302 L 31.4506,9.8588 L 31.1555,9.8588 L 31.1555,9.9004 L 30.2140,9.9004 L 30.2140,10.3302 L 29.9891,10.3302 L 29.9891,10.4827 L 28.7244,10.4827 Z" stroke="#000000" stroke-width="0.1200" stroke-linecap="round" stroke-linejoin="round" fill="#000000"/>
        <path d="M 28.4995,9.9004 L 27.3191,9.9004 L 27.3191,10.3302 L 28.4995,10.3302 L 28.4995,9.9004 Z" stroke="#494949" stroke-width="0.1200" stroke-linecap="round" stroke-linejoin="round" fill="#000000"/>
        <path d="M 31.3944,9.9004 L 30.2140,9.9004 L 30.2140,10.3302 L 31.3944,10.3302 L 31.3944,9.9004 Z" stroke="#494949" stroke-width="0.1200" stroke-linecap="round" stroke-linejoin="round" fill="#000000"/>
        <path d="M 34.0083,3.1476 L 34.0083,3.3001 L 33.7834,3.3001 L 33.7834,3.7300 L 32.8419,3.7300 L 32.8419,3.7716 L 32.5468,3.7716 L 32.5468,3.3001 L 32.6030,3.3001 L 32.6030,3.7300 L 32.8419,3.7300 L 32.8419,4.6867 L 32.9403,4.6867 L 32.9403,5.1859 L 32.8419,5.1859 L 32.8419,6.2675 L 36.4395,6.2675 L 36.4395,5.1859 L 36.3411,5.1859 L 36.3411,4.6867 L 36.4395,4.6867 L 36.4395,3.7300 L 36.6784,3.7300 L 36.6784,3.3001 L 36.7346,3.3001 L 36.7346,3.7716 L 36.4395,3.7716 L 36.4395,3.7300 L 35.4979,3.7300 L 35.4979,3.3001 L 35.2731,3.3001 L 35.2731,3.1476 L 34.0083,3.1476 Z" stroke="#000000" stroke-width="0.1200" stroke-linecap="round" stroke-linejoin="round" fill="#000000"/>
        <path d="M 33.7834,3.3140 L 32.6030,3.3140 L 32.6030,3.7438 L 33.7834,3.7438 L 33.7834,3.3140 Z" stroke="#494949" stroke-width="0.1200" stroke-linecap="round" stroke-linejoin="round" fill="#000000"/>
        <path d="M 36.6784,3.3140 L 35.4979,3.3140 L 35.4979,3.7438 L 36.6784,3.7438 L 36.6784,3.3140 Z" stroke="#494949" stroke-width="0.1200" stroke-linecap="round" stroke-linejoin="round" fill="#000000"/>
        <path d="M 34.0083,10.4827 L 34.0083,10.3302 L 33.7834,10.3302 L 33.7834,9.9004 L 32.8419,9.9004 L 32.8419,9.8588 L 32.5468,9.8588 L 32.5468,10.3302 L 32.6030,10.3302 L 32.6030,9.9004 L 32.8419,9.9004 L 32.8419,8.9436 L 32.9403,8.9436 L 32.9403,8.4444 L 32.8419,8.4444 L 32.8419,7.3629 L 36.4395,7.3629 L 36.4395,8.4444 L 36.3411,8.4444 L 36.3411,8.9436 L 36.4395,8.9436 L 36.4395,9.9004 L 36.6784,9.9004 L 36.6784,10.3302 L 36.7346,10.3302 L 36.7346,9.8588 L 36.4395,9.8588 L 36.4395,9.9004 L 35.4979,9.9004 L 35.4979,10.3302 L 35.2731,10.3302 L 35.2731,10.4827 L 34.0083,10.4827 Z" stroke="#000000" stroke-width="0.1200" stroke-linecap="round" stroke-linejoin="round" fill="#000000"/>
        <path d="M 33.7834,9.9004 L 32.6030,9.9004 L 32.6030,10.3302 L 33.7834,10.3302 L 33.7834,9.9004 Z" stroke="#494949" stroke-width="0.1200" stroke-linecap="round" stroke-linejoin="round" fill="#000000"/>
        <path d="M 36.6784,9.9004 L 35.4979,9.9004 L 35.4979,10.3302 L 36.6784,10.3302 L 36.6784,9.9004 Z" stroke="#494949" stroke-width="0.1200" stroke-linecap="round" stroke-linejoin="round" fill="#000000"/>
        <path d="M 41.8499,5.9363 L 37.8869,5.9363 L 37.8869,3.2656 L 41.8499,3.2656 L 41.8499,5.9363 Z" stroke="#000000" stroke-width="0.1200" stroke-linecap="round" stroke-linejoin="round" fill="#494949"/>
        <path d="M 41.8499,10.3781 L 37.8869,10.3781 L 37.8869,7.7075 L 41.8499,7.7075 L 41.8499,10.3781 Z" stroke="#000000" stroke-width="0.1200" stroke-linecap="round" stroke-linejoin="round" fill="#494949"/>
        <path d="M 50.7955,11.3329 L 45.8767,11.3329 L 45.8767,8.6623 L 50.7955,8.6623 L 50.7955,11.3329 Z" stroke="#000000" stroke-width="0.1200" stroke-linecap="round" stroke-linejoin="round" fill="#7F7F7F"/>
        <path d="M 59.7808,11.3329 L 54.8620,11.3329 L 54.8620,8.6623 L 59.7808,8.6623 L 59.7808,11.3329 Z" stroke="#000000" stroke-width="0.1200" stroke-linecap="round" stroke-linejoin="round" fill="#7F7F7F"/>
        <path d="M 68.7801,11.3329 L 63.8612,11.3329 L 63.8612,8.6623 L 68.7801,8.6623 L 68.7801,11.3329 Z" stroke="#000000" stroke-width="0.1200" stroke-linecap="round" stroke-linejoin="round" fill="#7F7F7F"/>
        <path d="M 77.7654,11.3329 L 72.8465,11.3329 L 72.8465,8.6623 L 77.7654,8.6623 L 77.7654,11.3329 Z" stroke="#000000" stroke-width="0.1200" stroke-linecap="round" stroke-linejoin="round" fill="#7F7F7F"/>
        <path d="M 86.7087,11.3329 L 81.7899,11.3329 L 81.7899,8.6623 L 86.7087,8.6623 L 86.7087,11.3329 Z" stroke="#000000" stroke-width="0.1200" stroke-linecap="round" stroke-linejoin="round" fill="#7F7F7F"/>
        <path d="M 95.7080,11.3329 L 90.7891,11.3329 L 90.7891,8.6623 L 95.7080,8.6623 L 95.7080,11.3329 Z" stroke="#000000" stroke-width="0.1200" stroke-linecap="round" stroke-linejoin="round" fill="#7F7F7F"/>
        <path d="M 104.6933,11.3329 L 99.7744,11.3329 L 99.7744,8.6623 L 104.6933,8.6623 L 104.6933,11.3329 Z" stroke="#000000" stroke-width="0.1200" stroke-linecap="round" stroke-linejoin="round" fill="#7F7F7F"/>
        <path d="M 113.6925,11.3329 L 108.7737,11.3329 L 108.7737,8.6623 L 113.6925,8.6623 L 113.6925,11.3329 Z" stroke="#000000" stroke-width="0.1200" stroke-linecap="round" stroke-linejoin="round" fill="#7F7F7F"/>
        <path d="M 28.3576,3.4239 L 27.5977,3.4239 L 27.5977,3.7352 L 28.3576,3.7352 L 28.3576,3.4239 Z" stroke="#000000" stroke-width="0.1200" stroke-linecap="round" stroke-linejoin="round" fill="#83FF00"/>
        <path d="M 31.2205,3.4239 L 30.4606,3.4239 L 30.4606,3.7352 L 31.2205,3.7352 L 31.2205,3.4239 Z" stroke="#000000" stroke-width="0.1200" stroke-linecap="round" stroke-linejoin="round" fill="#83FF00"/>
        <path d="M 33.7034,3.4239 L 32.9436,3.4239 L 32.9436,3.7352 L 33.7034,3.7352 L 33.7034,3.4239 Z" stroke="#000000" stroke-width="0.1200" stroke-linecap="round" stroke-linejoin="round" fill="#83FF00"/>
        <path d="M 36.5663,3.4239 L 35.8065,3.4239 L 35.8065,3.7352 L 36.5663,3.7352 L 36.5663,3.4239 Z" stroke="#000000" stroke-width="0.1200" stroke-linecap="round" stroke-linejoin="round" fill="#83FF00"/>
        <path d="M 28.3576,9.9993 L 27.5977,9.9993 L 27.5977,10.3106 L 28.3576,10.3106 L 28.3576,9.9993 Z" stroke="#000000" stroke-width="0.1200" stroke-linecap="round" stroke-linejoin="round" fill="#83FF00"/>
        <path d="M 31.2205,9.9993 L 30.4606,9.9993 L 30.4606,10.3106 L 31.2205,10.3106 L 31.2205,9.9993 Z" stroke="#000000" stroke-width="0.1200" stroke-linecap="round" stroke-linejoin="round" fill="#83FF00"/>
        <path d="M 36.5663,9.9993 L 35.8065,9.9993 L 35.8065,10.3106 L 36.5663,10.3106 L 36.5663,9.9993 Z" stroke="#000000" stroke-width="0.1200" stroke-linecap="round" stroke-linejoin="round" fill="#83FF00"/>
        <path d="M 33.7034,9.9993 L 32.9436,9.9993 L 32.9436,10.3106 L 33.7034,10.3106 L 33.7034,9.9993 Z" stroke="#000000" stroke-width="0.1200" stroke-linecap="round" stroke-linejoin="round" fill="#83FF00"/>
      </g>
      <!--emf-blob end-->
    </g>
  </g>
</svg>
