<svg xmlns="http://www.w3.org/2000/svg" xmlns:xlink="http://www.w3.org/1999/xlink" version="1.1" width="2.7652000000" height="4.0000000000" viewBox="0 0 49.7764 72.0000">
  <title><![CDATA[FortiGate Shelf Manager]]></title>
  <g transform=" scale(4.000000) ">
    <!--converted by libvisio2svg-->
    <g transform=" translate(24.8882, 32.0031)  scale(1, 1)  rotate(-90.0000)  translate(-24.8882, -32.0031)  translate(20.891300,7.115000) ">
      <!--emf-blob start-->
      <g transform="translate(0.1193, 0.1193)">
        <g transform="matrix(1.0000 0.0000 0.0000 1.0000 0.0000 0.0000)">
</g>
        <g transform="matrix(1.0000 0.0000 0.0000 1.0000 0.0000 0.0000)">
</g>
        <g transform="matrix(0.2525 0.0000 0.0000 0.2499 0.0000 0.0000)">
</g>
        <g transform="matrix(0.2525 0.0000 0.0000 0.2499 0.0000 0.0000)">
</g>
        <g transform="matrix(0.2525 0.0000 0.0000 0.2499 0.0000 0.0000)">
</g>
        <g transform="matrix(0.2525 0.0000 0.0000 0.2499 0.0000 0.0000)">
</g>
        <g transform="matrix(0.2525 0.0000 0.0000 0.2499 0.0000 0.0000)">
</g>
        <g transform="matrix(0.2525 0.0000 0.0000 0.2499 0.0000 0.0000)">
</g>
        <g transform="matrix(65.6567 0.0000 0.0000 412.5518 0.0000 0.0000)">
</g>
        <g transform="matrix(65.6567 0.0000 0.0000 412.5518 0.0000 0.0000)">
</g>
        <g transform="matrix(0.1185 0.0000 0.0000 0.1169 0.0000 0.0000)">
</g>
        <g transform="matrix(0.1185 0.0000 0.0000 0.1169 0.0000 0.0000)">
</g>
        <g transform="matrix(0.1185 0.0000 0.0000 0.1169 -1.4564 -0.8929)">
</g>
        <g transform="matrix(0.1185 0.0000 0.0000 0.1169 -1.4564 -0.8929)">
          <path d="M 78.2667,428.5578 L 12.1695,428.4385 L 12.1695,55.8366 L 24.3390,55.8366 L 24.3390,7.5165 L 78.2667,7.5165 L 78.2667,428.5578 Z" stroke="#000000" stroke-width="0.1193" stroke-linecap="round" stroke-linejoin="round" fill="#666666"/>
          <path d="M 27.2024,399.4464 L 19.0894,399.4464 L 19.0894,275.7230 L 27.2024,275.8423 " stroke="#FFFFFF" stroke-width="0.1193" stroke-linecap="round" stroke-linejoin="round" fill="none"/>
          <path d="M 42.4740,85.4252 L 42.4740,81.2494 L 62.1600,81.2494 L 62.1600,85.4252 " stroke="#FFFFFF" stroke-width="0.1193" stroke-linecap="round" stroke-linejoin="round" fill="none"/>
          <path d="M 49.6325,106.9008 L 62.9951,106.9008 L 62.9951,104.2760 " stroke="#FFFFFF" stroke-width="0.1193" stroke-linecap="round" stroke-linejoin="round" fill="none"/>
          <path d="M 14.3171,123.1268 L 14.3171,17.6577 L 22.0722,17.6577 L 22.0722,123.1268 L 14.3171,123.1268 Z" stroke="#000000" stroke-width="0.1193" stroke-linecap="round" stroke-linejoin="round" fill="#BFBFBF"/>
          <path d="M 13.4819,62.7565 L 13.4819,106.4236 L 22.9073,106.4236 L 22.9073,62.7565 L 13.4819,62.7565 Z" stroke="#000000" stroke-width="0.1193" stroke-linecap="round" stroke-linejoin="round" fill="#7F7F7F"/>
          <path d="M 13.4819,123.1268 L 13.4819,161.5443 L 22.9073,161.5443 L 22.9073,123.1268 L 13.4819,123.1268 Z" stroke="#000000" stroke-width="0.1193" stroke-linecap="round" stroke-linejoin="round" fill="#7F7F7F"/>
        </g>
        <g transform="matrix(1.0000 0.0000 0.0000 1.0000 0.0000 0.0000)">
</g>
        <g transform="matrix(1.0000 0.0000 0.0000 1.0000 0.0000 0.0000)">
</g>
        <g transform="matrix(0.0000 1.0000 -1.0000 0.0000 52.9732 28.3955)">
</g>
        <g transform="matrix(0.0000 1.0000 -1.0000 0.0000 52.9732 28.3955)">
</g>
        <g transform="matrix(0.0000 0.1557 -0.1747 0.0000 5.7982 15.5158)">
</g>
        <g transform="matrix(0.0000 0.1557 -0.1747 0.0000 5.7982 15.5158)">
</g>
        <g transform="matrix(0.0000 0.1557 -0.1747 0.0000 5.7982 15.5158)">
</g>
        <g transform="matrix(0.0000 0.1557 -0.1747 0.0000 5.7982 15.5158)">
</g>
        <g transform="matrix(0.0000 0.1557 -0.1747 0.0000 5.7982 15.5158)">
</g>
        <g transform="matrix(0.0000 0.1557 -0.1747 0.0000 5.7982 15.5158)">
</g>
        <g transform="matrix(0.0000 34.5585 -29.1744 0.0000 5.7982 15.5158)">
</g>
        <g transform="matrix(0.0000 34.5585 -29.1744 0.0000 5.7982 15.5158)">
</g>
        <g transform="matrix(0.0000 0.0729 -0.0815 0.0000 5.7982 15.5158)">
</g>
        <g transform="matrix(0.0000 0.0729 -0.0815 0.0000 5.7982 15.5158)">
</g>
        <g transform="matrix(0.0000 0.0729 -0.0815 0.0000 6.3913 14.8982)">
</g>
        <g transform="matrix(0.0000 0.0729 -0.0815 0.0000 6.3913 14.8982)">
          <path d="M 8.3516,7.1585 L 64.9041,7.1585 L 64.9041,49.9905 L 8.3516,49.9905 L 8.3516,7.1585 Z" stroke="#0A0A0A" stroke-width="0.1193" stroke-linecap="round" stroke-linejoin="round" fill="#FFFFFF"/>
        </g>
        <g transform="matrix(1.0000 0.0000 0.0000 1.0000 0.0000 0.0000)">
</g>
        <g transform="matrix(1.0000 0.0000 0.0000 1.0000 0.0000 0.0000)">
</g>
        <g transform="matrix(0.0000 1.0000 -1.0000 0.0000 68.4833 45.3374)">
</g>
        <g transform="matrix(0.0000 1.0000 -1.0000 0.0000 68.4833 45.3374)">
</g>
        <g transform="matrix(0.0000 0.1599 -0.1747 0.0000 5.4605 23.0505)">
</g>
        <g transform="matrix(0.0000 0.1599 -0.1747 0.0000 5.4605 23.0505)">
</g>
        <g transform="matrix(0.0000 0.1599 -0.1747 0.0000 5.4605 23.0505)">
</g>
        <g transform="matrix(0.0000 0.1599 -0.1747 0.0000 5.4605 23.0505)">
</g>
        <g transform="matrix(0.0000 0.1599 -0.1747 0.0000 5.4605 23.0505)">
</g>
        <g transform="matrix(0.0000 0.1599 -0.1747 0.0000 5.4605 23.0505)">
</g>
        <g transform="matrix(0.0000 35.4925 -29.1744 0.0000 5.4605 23.0505)">
</g>
        <g transform="matrix(0.0000 35.4925 -29.1744 0.0000 5.4605 23.0505)">
</g>
        <g transform="matrix(0.0000 0.0749 -0.0815 0.0000 5.4605 23.0505)">
</g>
        <g transform="matrix(0.0000 0.0749 -0.0815 0.0000 5.4605 23.0505)">
</g>
        <g transform="matrix(0.0000 0.0749 -0.0815 0.0000 6.0536 22.4162)">
</g>
        <g transform="matrix(0.0000 0.0749 -0.0815 0.0000 6.0536 22.4162)">
          <path d="M 8.3516,7.1585 L 64.9041,7.1585 L 64.9041,49.9905 L 8.3516,49.9905 L 8.3516,7.1585 Z" stroke="#0A0A0A" stroke-width="0.1193" stroke-linecap="round" stroke-linejoin="round" fill="#FFFFFF"/>
        </g>
        <g transform="matrix(1.0000 0.0000 0.0000 1.0000 0.0000 0.0000)">
</g>
        <g transform="matrix(1.0000 0.0000 0.0000 1.0000 0.0000 0.0000)">
</g>
        <g transform="matrix(0.0000 1.0000 -1.0000 0.0000 29.7079 9.6640)">
</g>
        <g transform="matrix(0.0000 1.0000 -1.0000 0.0000 29.7079 9.6640)">
</g>
        <g transform="matrix(0.0000 0.2917 -0.2948 0.0000 3.3776 7.3672)">
</g>
        <g transform="matrix(0.0000 0.2917 -0.2948 0.0000 3.3776 7.3672)">
</g>
        <g transform="matrix(0.0000 0.2917 -0.2948 0.0000 3.3776 7.3672)">
</g>
        <g transform="matrix(0.0000 0.2917 -0.2948 0.0000 3.3776 7.3672)">
</g>
        <g transform="matrix(0.0000 0.2917 -0.2948 0.0000 3.3776 7.3672)">
</g>
        <g transform="matrix(0.0000 0.2917 -0.2948 0.0000 3.3776 7.3672)">
</g>
        <g transform="matrix(0.0000 6.7095 -6.4860 0.0000 3.3776 7.3672)">
</g>
        <g transform="matrix(0.0000 6.7095 -6.4860 0.0000 3.3776 7.3672)">
</g>
        <g transform="matrix(0.0000 0.1398 -0.1351 0.0000 3.3776 7.3672)">
</g>
        <g transform="matrix(0.0000 0.1398 -0.1351 0.0000 3.3776 7.3672)">
</g>
        <g transform="matrix(0.0000 0.1398 -0.1351 0.0000 3.9096 6.8169)">
</g>
        <g transform="matrix(0.0000 0.1398 -0.1351 0.0000 3.9096 6.8169)">
          <ellipse cx="6.6216" cy="6.6216" rx="2.8038" ry="2.8038" fill="#FF0000" stroke="#000000" stroke-width="0.1193" stroke-linecap="round" stroke-linejoin="round"/>
        </g>
        <g transform="matrix(1.0000 0.0000 0.0000 1.0000 0.0000 0.0000)">
</g>
        <g transform="matrix(1.0000 0.0000 0.0000 1.0000 0.0000 0.0000)">
</g>
        <g transform="matrix(0.0000 1.0000 -1.0000 0.0000 31.3783 7.9937)">
</g>
        <g transform="matrix(0.0000 1.0000 -1.0000 0.0000 31.3783 7.9937)">
</g>
        <g transform="matrix(0.0000 0.2917 -0.2948 0.0000 4.1657 7.3672)">
</g>
        <g transform="matrix(0.0000 0.2917 -0.2948 0.0000 4.1657 7.3672)">
</g>
        <g transform="matrix(0.0000 0.2917 -0.2948 0.0000 4.1657 7.3672)">
</g>
        <g transform="matrix(0.0000 0.2917 -0.2948 0.0000 4.1657 7.3672)">
</g>
        <g transform="matrix(0.0000 0.2917 -0.2948 0.0000 4.1657 7.3672)">
</g>
        <g transform="matrix(0.0000 0.2917 -0.2948 0.0000 4.1657 7.3672)">
</g>
        <g transform="matrix(0.0000 6.7095 -6.4860 0.0000 4.1657 7.3672)">
</g>
        <g transform="matrix(0.0000 6.7095 -6.4860 0.0000 4.1657 7.3672)">
</g>
        <g transform="matrix(0.0000 0.1398 -0.1351 0.0000 4.1657 7.3672)">
</g>
        <g transform="matrix(0.0000 0.1398 -0.1351 0.0000 4.1657 7.3672)">
</g>
        <g transform="matrix(0.0000 0.1398 -0.1351 0.0000 4.6977 6.8169)">
</g>
        <g transform="matrix(0.0000 0.1398 -0.1351 0.0000 4.6977 6.8169)">
          <ellipse cx="6.6216" cy="6.6216" rx="2.8038" ry="2.8038" fill="#FF0000" stroke="#000000" stroke-width="0.1193" stroke-linecap="round" stroke-linejoin="round"/>
        </g>
        <g transform="matrix(1.0000 0.0000 0.0000 1.0000 0.0000 0.0000)">
</g>
        <g transform="matrix(1.0000 0.0000 0.0000 1.0000 0.0000 0.0000)">
</g>
        <g transform="matrix(0.0000 1.0000 -1.0000 0.0000 32.9293 6.4427)">
</g>
        <g transform="matrix(0.0000 1.0000 -1.0000 0.0000 32.9293 6.4427)">
</g>
        <g transform="matrix(0.0000 0.2917 -0.2948 0.0000 4.8975 7.3672)">
</g>
        <g transform="matrix(0.0000 0.2917 -0.2948 0.0000 4.8975 7.3672)">
</g>
        <g transform="matrix(0.0000 0.2917 -0.2948 0.0000 4.8975 7.3672)">
</g>
        <g transform="matrix(0.0000 0.2917 -0.2948 0.0000 4.8975 7.3672)">
</g>
        <g transform="matrix(0.0000 0.2917 -0.2948 0.0000 4.8975 7.3672)">
</g>
        <g transform="matrix(0.0000 0.2917 -0.2948 0.0000 4.8975 7.3672)">
</g>
        <g transform="matrix(0.0000 6.7095 -6.4860 0.0000 4.8975 7.3672)">
</g>
        <g transform="matrix(0.0000 6.7095 -6.4860 0.0000 4.8975 7.3672)">
</g>
        <g transform="matrix(0.0000 0.1398 -0.1351 0.0000 4.8975 7.3672)">
</g>
        <g transform="matrix(0.0000 0.1398 -0.1351 0.0000 4.8975 7.3672)">
</g>
        <g transform="matrix(0.0000 0.1398 -0.1351 0.0000 5.4296 6.8169)">
</g>
        <g transform="matrix(0.0000 0.1398 -0.1351 0.0000 5.4296 6.8169)">
          <ellipse cx="6.6216" cy="6.6216" rx="2.8038" ry="2.8038" fill="#FF0000" stroke="#000000" stroke-width="0.1193" stroke-linecap="round" stroke-linejoin="round"/>
        </g>
        <g transform="matrix(1.0000 0.0000 0.0000 1.0000 0.0000 0.0000)">
</g>
        <g transform="matrix(1.0000 0.0000 0.0000 1.0000 0.0000 0.0000)">
</g>
        <g transform="matrix(0.0000 1.0000 -1.0000 0.0000 34.5996 4.7724)">
</g>
        <g transform="matrix(0.0000 1.0000 -1.0000 0.0000 34.5996 4.7724)">
</g>
        <g transform="matrix(0.0000 0.2917 -0.2948 0.0000 5.6857 7.3672)">
</g>
        <g transform="matrix(0.0000 0.2917 -0.2948 0.0000 5.6857 7.3672)">
</g>
        <g transform="matrix(0.0000 0.2917 -0.2948 0.0000 5.6857 7.3672)">
</g>
        <g transform="matrix(0.0000 0.2917 -0.2948 0.0000 5.6857 7.3672)">
</g>
        <g transform="matrix(0.0000 0.2917 -0.2948 0.0000 5.6857 7.3672)">
</g>
        <g transform="matrix(0.0000 0.2917 -0.2948 0.0000 5.6857 7.3672)">
</g>
        <g transform="matrix(0.0000 6.7095 -6.4860 0.0000 5.6857 7.3672)">
</g>
        <g transform="matrix(0.0000 6.7095 -6.4860 0.0000 5.6857 7.3672)">
</g>
        <g transform="matrix(0.0000 0.1398 -0.1351 0.0000 5.6857 7.3672)">
</g>
        <g transform="matrix(0.0000 0.1398 -0.1351 0.0000 5.6857 7.3672)">
</g>
        <g transform="matrix(0.0000 0.1398 -0.1351 0.0000 6.2177 6.8169)">
</g>
        <g transform="matrix(0.0000 0.1398 -0.1351 0.0000 6.2177 6.8169)">
          <ellipse cx="6.6216" cy="6.6216" rx="2.8038" ry="2.8038" fill="#FF0000" stroke="#000000" stroke-width="0.1193" stroke-linecap="round" stroke-linejoin="round"/>
        </g>
        <g transform="matrix(1.0000 0.0000 0.0000 1.0000 0.0000 0.0000)">
</g>
        <g transform="matrix(1.0000 0.0000 0.0000 1.0000 0.0000 0.0000)">
          <text font-family="Arial" fill="#FFFFFF" transform="rotate(-270, 15.6295, 14.3290) translate(0, 0.9664)" style="white-space:pre;" font-weight="400" text-anchor="start" x="15.6295" y="14.3290" font-size="1.0738"><![CDATA[FT1 OOS]]></text>
          <text font-family="Arial" fill="#FFFFFF" transform="rotate(-270, 13.9591, 14.3290) translate(0, 0.9664)" style="white-space:pre;" font-weight="400" text-anchor="start" x="13.9591" y="14.3290" font-size="1.0738"><![CDATA[FT2 OOS]]></text>
          <text font-family="Arial" fill="#FFFFFF" transform="rotate(-270, 12.4081, 14.3290) translate(0, 0.9664)" style="white-space:pre;" font-weight="400" text-anchor="start" x="12.4081" y="14.3290" font-size="1.0738"><![CDATA[FT3 OOS]]></text>
          <text font-family="Arial" fill="#FFFFFF" transform="rotate(-270, 10.7378, 14.3290) translate(0, 0.9664)" style="white-space:pre;" font-weight="400" text-anchor="start" x="10.7378" y="14.3290" font-size="1.0738"><![CDATA[FT4 OOS]]></text>
        </g>
        <g transform="matrix(0.0000 1.0000 -1.0000 0.0000 33.1679 13.1240)">
</g>
        <g transform="matrix(0.0000 1.0000 -1.0000 0.0000 33.1679 13.1240)">
</g>
        <g transform="matrix(0.0000 0.2917 -0.2948 0.0000 3.3776 8.9858)">
</g>
        <g transform="matrix(0.0000 0.2917 -0.2948 0.0000 3.3776 8.9858)">
</g>
        <g transform="matrix(0.0000 0.2917 -0.2948 0.0000 3.3776 8.9858)">
</g>
        <g transform="matrix(0.0000 0.2917 -0.2948 0.0000 3.3776 8.9858)">
</g>
        <g transform="matrix(0.0000 0.2917 -0.2948 0.0000 3.3776 8.9858)">
</g>
        <g transform="matrix(0.0000 0.2917 -0.2948 0.0000 3.3776 8.9858)">
</g>
        <g transform="matrix(0.0000 6.7095 -6.4860 0.0000 3.3776 8.9858)">
</g>
        <g transform="matrix(0.0000 6.7095 -6.4860 0.0000 3.3776 8.9858)">
</g>
        <g transform="matrix(0.0000 0.1398 -0.1351 0.0000 3.3776 8.9858)">
</g>
        <g transform="matrix(0.0000 0.1398 -0.1351 0.0000 3.3776 8.9858)">
</g>
        <g transform="matrix(0.0000 0.1398 -0.1351 0.0000 3.9096 8.4354)">
</g>
        <g transform="matrix(0.0000 0.1398 -0.1351 0.0000 3.9096 8.4354)">
          <ellipse cx="6.6216" cy="6.6216" rx="2.8038" ry="2.8038" fill="#00FFFF" stroke="#000000" stroke-width="0.1193" stroke-linecap="round" stroke-linejoin="round"/>
        </g>
        <g transform="matrix(1.0000 0.0000 0.0000 1.0000 0.0000 0.0000)">
</g>
        <g transform="matrix(1.0000 0.0000 0.0000 1.0000 0.0000 0.0000)">
</g>
        <g transform="matrix(0.0000 1.0000 -1.0000 0.0000 34.8382 11.4537)">
</g>
        <g transform="matrix(0.0000 1.0000 -1.0000 0.0000 34.8382 11.4537)">
</g>
        <g transform="matrix(0.0000 0.2917 -0.2948 0.0000 4.1657 8.9858)">
</g>
        <g transform="matrix(0.0000 0.2917 -0.2948 0.0000 4.1657 8.9858)">
</g>
        <g transform="matrix(0.0000 0.2917 -0.2948 0.0000 4.1657 8.9858)">
</g>
        <g transform="matrix(0.0000 0.2917 -0.2948 0.0000 4.1657 8.9858)">
</g>
        <g transform="matrix(0.0000 0.2917 -0.2948 0.0000 4.1657 8.9858)">
</g>
        <g transform="matrix(0.0000 0.2917 -0.2948 0.0000 4.1657 8.9858)">
</g>
        <g transform="matrix(0.0000 6.7095 -6.4860 0.0000 4.1657 8.9858)">
</g>
        <g transform="matrix(0.0000 6.7095 -6.4860 0.0000 4.1657 8.9858)">
</g>
        <g transform="matrix(0.0000 0.1398 -0.1351 0.0000 4.1657 8.9858)">
</g>
        <g transform="matrix(0.0000 0.1398 -0.1351 0.0000 4.1657 8.9858)">
</g>
        <g transform="matrix(0.0000 0.1398 -0.1351 0.0000 4.6977 8.4354)">
</g>
        <g transform="matrix(0.0000 0.1398 -0.1351 0.0000 4.6977 8.4354)">
          <ellipse cx="6.6216" cy="6.6216" rx="2.8038" ry="2.8038" fill="#00FFFF" stroke="#000000" stroke-width="0.1193" stroke-linecap="round" stroke-linejoin="round"/>
        </g>
        <g transform="matrix(1.0000 0.0000 0.0000 1.0000 0.0000 0.0000)">
</g>
        <g transform="matrix(1.0000 0.0000 0.0000 1.0000 0.0000 0.0000)">
</g>
        <g transform="matrix(0.0000 1.0000 -1.0000 0.0000 36.3892 9.9026)">
</g>
        <g transform="matrix(0.0000 1.0000 -1.0000 0.0000 36.3892 9.9026)">
</g>
        <g transform="matrix(0.0000 0.2917 -0.2948 0.0000 4.8975 8.9858)">
</g>
        <g transform="matrix(0.0000 0.2917 -0.2948 0.0000 4.8975 8.9858)">
</g>
        <g transform="matrix(0.0000 0.2917 -0.2948 0.0000 4.8975 8.9858)">
</g>
        <g transform="matrix(0.0000 0.2917 -0.2948 0.0000 4.8975 8.9858)">
</g>
        <g transform="matrix(0.0000 0.2917 -0.2948 0.0000 4.8975 8.9858)">
</g>
        <g transform="matrix(0.0000 0.2917 -0.2948 0.0000 4.8975 8.9858)">
</g>
        <g transform="matrix(0.0000 6.7095 -6.4860 0.0000 4.8975 8.9858)">
</g>
        <g transform="matrix(0.0000 6.7095 -6.4860 0.0000 4.8975 8.9858)">
</g>
        <g transform="matrix(0.0000 0.1398 -0.1351 0.0000 4.8975 8.9858)">
</g>
        <g transform="matrix(0.0000 0.1398 -0.1351 0.0000 4.8975 8.9858)">
</g>
        <g transform="matrix(0.0000 0.1398 -0.1351 0.0000 5.4296 8.4354)">
</g>
        <g transform="matrix(0.0000 0.1398 -0.1351 0.0000 5.4296 8.4354)">
          <ellipse cx="6.6216" cy="6.6216" rx="2.8038" ry="2.8038" fill="#00FF00" stroke="#000000" stroke-width="0.1193" stroke-linecap="round" stroke-linejoin="round"/>
        </g>
        <g transform="matrix(1.0000 0.0000 0.0000 1.0000 0.0000 0.0000)">
</g>
        <g transform="matrix(1.0000 0.0000 0.0000 1.0000 0.0000 0.0000)">
</g>
        <g transform="matrix(0.0000 1.0000 -1.0000 0.0000 38.0596 8.2323)">
</g>
        <g transform="matrix(0.0000 1.0000 -1.0000 0.0000 38.0596 8.2323)">
</g>
        <g transform="matrix(0.0000 0.2917 -0.2948 0.0000 5.6857 8.9858)">
</g>
        <g transform="matrix(0.0000 0.2917 -0.2948 0.0000 5.6857 8.9858)">
</g>
        <g transform="matrix(0.0000 0.2917 -0.2948 0.0000 5.6857 8.9858)">
</g>
        <g transform="matrix(0.0000 0.2917 -0.2948 0.0000 5.6857 8.9858)">
</g>
        <g transform="matrix(0.0000 0.2917 -0.2948 0.0000 5.6857 8.9858)">
</g>
        <g transform="matrix(0.0000 0.2917 -0.2948 0.0000 5.6857 8.9858)">
</g>
        <g transform="matrix(0.0000 6.7095 -6.4860 0.0000 5.6857 8.9858)">
</g>
        <g transform="matrix(0.0000 6.7095 -6.4860 0.0000 5.6857 8.9858)">
</g>
        <g transform="matrix(0.0000 0.1398 -0.1351 0.0000 5.6857 8.9858)">
</g>
        <g transform="matrix(0.0000 0.1398 -0.1351 0.0000 5.6857 8.9858)">
</g>
        <g transform="matrix(0.0000 0.1398 -0.1351 0.0000 6.2177 8.4354)">
</g>
        <g transform="matrix(0.0000 0.1398 -0.1351 0.0000 6.2177 8.4354)">
          <ellipse cx="6.6216" cy="6.6216" rx="2.8038" ry="2.8038" fill="#FF0000" stroke="#000000" stroke-width="0.1193" stroke-linecap="round" stroke-linejoin="round"/>
        </g>
        <g transform="matrix(1.0000 0.0000 0.0000 1.0000 0.0000 0.0000)">
</g>
        <g transform="matrix(1.0000 0.0000 0.0000 1.0000 0.0000 0.0000)">
          <text font-family="Arial" fill="#FFFFFF" transform="rotate(-270, 15.6295, 25.3054) translate(0, 0.9664)" style="white-space:pre;" font-weight="400" text-anchor="start" x="15.6295" y="25.3054" font-size="1.0738"><![CDATA[OOS]]></text>
          <text font-family="Arial" fill="#FFFFFF" transform="rotate(-270, 13.9591, 25.3054) translate(0, 0.9664)" style="white-space:pre;" font-weight="400" text-anchor="start" x="13.9591" y="25.3054" font-size="1.0738"><![CDATA[ACT]]></text>
          <text font-family="Arial" fill="#FFFFFF" transform="rotate(-270, 12.4081, 25.3054) translate(0, 0.9664)" style="white-space:pre;" font-weight="400" text-anchor="start" x="12.4081" y="25.3054" font-size="1.0738"><![CDATA[H/S]]></text>
        </g>
        <g transform="matrix(0.0000 1.0000 -1.0000 0.0000 101.5319 81.7266)">
</g>
        <g transform="matrix(0.0000 1.0000 -1.0000 0.0000 101.5319 81.7266)">
</g>
        <g transform="matrix(0.0000 0.2917 -0.2948 0.0000 3.3213 41.0221)">
</g>
        <g transform="matrix(0.0000 0.2917 -0.2948 0.0000 3.3213 41.0221)">
</g>
        <g transform="matrix(0.0000 0.2917 -0.2948 0.0000 3.3213 41.0221)">
</g>
        <g transform="matrix(0.0000 0.2917 -0.2948 0.0000 3.3213 41.0221)">
</g>
        <g transform="matrix(0.0000 0.2917 -0.2948 0.0000 3.3213 41.0221)">
</g>
        <g transform="matrix(0.0000 0.2917 -0.2948 0.0000 3.3213 41.0221)">
</g>
        <g transform="matrix(0.0000 6.7095 -6.4860 0.0000 3.3213 41.0221)">
</g>
        <g transform="matrix(0.0000 6.7095 -6.4860 0.0000 3.3213 41.0221)">
</g>
        <g transform="matrix(0.0000 0.1398 -0.1351 0.0000 3.3213 41.0221)">
</g>
        <g transform="matrix(0.0000 0.1398 -0.1351 0.0000 3.3213 41.0221)">
</g>
        <g transform="matrix(0.0000 0.1398 -0.1351 0.0000 3.8533 40.4717)">
</g>
        <g transform="matrix(0.0000 0.1398 -0.1351 0.0000 3.8533 40.4717)">
          <ellipse cx="6.6216" cy="6.6216" rx="2.8038" ry="2.8038" fill="#00FF00" stroke="#000000" stroke-width="0.1193" stroke-linecap="round" stroke-linejoin="round"/>
        </g>
        <g transform="matrix(1.0000 0.0000 0.0000 1.0000 0.0000 0.0000)">
</g>
        <g transform="matrix(1.0000 0.0000 0.0000 1.0000 0.0000 0.0000)">
</g>
        <g transform="matrix(0.0000 1.0000 -1.0000 0.0000 103.2022 80.0563)">
</g>
        <g transform="matrix(0.0000 1.0000 -1.0000 0.0000 103.2022 80.0563)">
</g>
        <g transform="matrix(0.0000 0.2917 -0.2948 0.0000 4.1094 41.0221)">
</g>
        <g transform="matrix(0.0000 0.2917 -0.2948 0.0000 4.1094 41.0221)">
</g>
        <g transform="matrix(0.0000 0.2917 -0.2948 0.0000 4.1094 41.0221)">
</g>
        <g transform="matrix(0.0000 0.2917 -0.2948 0.0000 4.1094 41.0221)">
</g>
        <g transform="matrix(0.0000 0.2917 -0.2948 0.0000 4.1094 41.0221)">
</g>
        <g transform="matrix(0.0000 0.2917 -0.2948 0.0000 4.1094 41.0221)">
</g>
        <g transform="matrix(0.0000 6.7095 -6.4860 0.0000 4.1094 41.0221)">
</g>
        <g transform="matrix(0.0000 6.7095 -6.4860 0.0000 4.1094 41.0221)">
</g>
        <g transform="matrix(0.0000 0.1398 -0.1351 0.0000 4.1094 41.0221)">
</g>
        <g transform="matrix(0.0000 0.1398 -0.1351 0.0000 4.1094 41.0221)">
</g>
        <g transform="matrix(0.0000 0.1398 -0.1351 0.0000 4.6415 40.4717)">
</g>
        <g transform="matrix(0.0000 0.1398 -0.1351 0.0000 4.6415 40.4717)">
          <ellipse cx="6.6216" cy="6.6216" rx="2.8038" ry="2.8038" fill="#FFFF00" stroke="#000000" stroke-width="0.1193" stroke-linecap="round" stroke-linejoin="round"/>
        </g>
        <g transform="matrix(1.0000 0.0000 0.0000 1.0000 0.0000 0.0000)">
</g>
        <g transform="matrix(1.0000 0.0000 0.0000 1.0000 0.0000 0.0000)">
</g>
        <g transform="matrix(0.0000 1.0000 -1.0000 0.0000 104.7533 78.5053)">
</g>
        <g transform="matrix(0.0000 1.0000 -1.0000 0.0000 104.7533 78.5053)">
</g>
        <g transform="matrix(0.0000 0.2917 -0.2948 0.0000 4.8413 41.0221)">
</g>
        <g transform="matrix(0.0000 0.2917 -0.2948 0.0000 4.8413 41.0221)">
</g>
        <g transform="matrix(0.0000 0.2917 -0.2948 0.0000 4.8413 41.0221)">
</g>
        <g transform="matrix(0.0000 0.2917 -0.2948 0.0000 4.8413 41.0221)">
</g>
        <g transform="matrix(0.0000 0.2917 -0.2948 0.0000 4.8413 41.0221)">
</g>
        <g transform="matrix(0.0000 0.2917 -0.2948 0.0000 4.8413 41.0221)">
</g>
        <g transform="matrix(0.0000 6.7095 -6.4860 0.0000 4.8413 41.0221)">
</g>
        <g transform="matrix(0.0000 6.7095 -6.4860 0.0000 4.8413 41.0221)">
</g>
        <g transform="matrix(0.0000 0.1398 -0.1351 0.0000 4.8413 41.0221)">
</g>
        <g transform="matrix(0.0000 0.1398 -0.1351 0.0000 4.8413 41.0221)">
</g>
        <g transform="matrix(0.0000 0.1398 -0.1351 0.0000 5.3733 40.4717)">
</g>
        <g transform="matrix(0.0000 0.1398 -0.1351 0.0000 5.3733 40.4717)">
          <ellipse cx="6.6216" cy="6.6216" rx="2.8038" ry="2.8038" fill="#FF0000" stroke="#000000" stroke-width="0.1193" stroke-linecap="round" stroke-linejoin="round"/>
        </g>
        <g transform="matrix(1.0000 0.0000 0.0000 1.0000 0.0000 0.0000)">
</g>
        <g transform="matrix(1.0000 0.0000 0.0000 1.0000 0.0000 0.0000)">
</g>
        <g transform="matrix(0.0000 1.0000 -1.0000 0.0000 106.4236 76.8350)">
</g>
        <g transform="matrix(0.0000 1.0000 -1.0000 0.0000 106.4236 76.8350)">
</g>
        <g transform="matrix(0.0000 0.2917 -0.2948 0.0000 5.6294 41.0221)">
</g>
        <g transform="matrix(0.0000 0.2917 -0.2948 0.0000 5.6294 41.0221)">
</g>
        <g transform="matrix(0.0000 0.2917 -0.2948 0.0000 5.6294 41.0221)">
</g>
        <g transform="matrix(0.0000 0.2917 -0.2948 0.0000 5.6294 41.0221)">
</g>
        <g transform="matrix(0.0000 0.2917 -0.2948 0.0000 5.6294 41.0221)">
</g>
        <g transform="matrix(0.0000 0.2917 -0.2948 0.0000 5.6294 41.0221)">
</g>
        <g transform="matrix(0.0000 6.7095 -6.4860 0.0000 5.6294 41.0221)">
</g>
        <g transform="matrix(0.0000 6.7095 -6.4860 0.0000 5.6294 41.0221)">
</g>
        <g transform="matrix(0.0000 0.1398 -0.1351 0.0000 5.6294 41.0221)">
</g>
        <g transform="matrix(0.0000 0.1398 -0.1351 0.0000 5.6294 41.0221)">
</g>
        <g transform="matrix(0.0000 0.1398 -0.1351 0.0000 6.1614 40.4717)">
</g>
        <g transform="matrix(0.0000 0.1398 -0.1351 0.0000 6.1614 40.4717)">
          <ellipse cx="6.6216" cy="6.6216" rx="2.8038" ry="2.8038" fill="#FF0000" stroke="#000000" stroke-width="0.1193" stroke-linecap="round" stroke-linejoin="round"/>
        </g>
        <g transform="matrix(1.0000 0.0000 0.0000 1.0000 0.0000 0.0000)">
</g>
        <g transform="matrix(1.0000 0.0000 0.0000 1.0000 0.0000 0.0000)">
          <text font-family="Arial" fill="#FFFFFF" transform="rotate(-270, 15.3909, 94.0274) translate(0, 0.9664)" style="white-space:pre;" font-weight="400" text-anchor="start" x="15.3909" y="94.0274" font-size="1.0738"><![CDATA[CRITICAL]]></text>
          <text font-family="Arial" fill="#FFFFFF" transform="rotate(-270, 13.7205, 93.9081) translate(0, 0.9664)" style="white-space:pre;" font-weight="400" text-anchor="start" x="13.7205" y="93.9081" font-size="1.0738"><![CDATA[MAJOR]]></text>
          <text font-family="Arial" fill="#FFFFFF" transform="rotate(-270, 12.1695, 93.9081) translate(0, 0.9664)" style="white-space:pre;" font-weight="400" text-anchor="start" x="12.1695" y="93.9081" font-size="1.0738"><![CDATA[MINOR]]></text>
          <text font-family="Arial" fill="#FFFFFF" transform="rotate(-270, 10.4992, 93.9081) translate(0, 0.9664)" style="white-space:pre;" font-weight="400" text-anchor="start" x="10.4992" y="93.9081" font-size="1.0738"><![CDATA[POWER OK]]></text>
        </g>
        <g transform="matrix(0.0000 1.0000 -1.0000 0.0000 97.3561 76.1191)">
</g>
        <g transform="matrix(0.0000 1.0000 -1.0000 0.0000 97.3561 76.1191)">
</g>
        <g transform="matrix(0.0000 0.2490 -0.2516 0.0000 3.8280 38.5663)">
</g>
        <g transform="matrix(0.0000 0.2490 -0.2516 0.0000 3.8280 38.5663)">
</g>
        <g transform="matrix(0.0000 0.2490 -0.2516 0.0000 3.8280 38.5663)">
</g>
        <g transform="matrix(0.0000 0.2490 -0.2516 0.0000 3.8280 38.5663)">
</g>
        <g transform="matrix(0.0000 0.2490 -0.2516 0.0000 3.8280 38.5663)">
</g>
        <g transform="matrix(0.0000 0.2490 -0.2516 0.0000 3.8280 38.5663)">
</g>
        <g transform="matrix(0.0000 9.4618 -9.3108 0.0000 3.8280 38.5663)">
</g>
        <g transform="matrix(0.0000 9.4618 -9.3108 0.0000 3.8280 38.5663)">
</g>
        <g transform="matrix(0.0000 0.1183 -0.1164 0.0000 3.8280 38.5663)">
</g>
        <g transform="matrix(0.0000 0.1183 -0.1164 0.0000 3.8280 38.5663)">
</g>
        <g transform="matrix(0.0000 0.1183 -0.1164 0.0000 4.0918 38.2418)">
</g>
        <g transform="matrix(0.0000 0.1183 -0.1164 0.0000 4.0918 38.2418)">
          <ellipse cx="7.4568" cy="6.9796" rx="4.7127" ry="4.7127" fill="#494949" stroke="#000000" stroke-width="0.1193" stroke-linecap="round" stroke-linejoin="round"/>
          <ellipse cx="7.4568" cy="7.0392" rx="4.1162" ry="4.1758" fill="#EFEFEF" stroke="#000000" stroke-width="0.1193" stroke-linecap="round" stroke-linejoin="round"/>
        </g>
        <g transform="matrix(1.0000 0.0000 0.0000 1.0000 0.0000 0.0000)">
</g>
        <g transform="matrix(1.0000 0.0000 0.0000 1.0000 0.0000 0.0000)">
          <text font-family="Arial" fill="#FFFFFF" transform="rotate(-270, 7.8744, 91.9991) translate(0, 0.9664)" style="white-space:pre;" font-weight="400" text-anchor="start" x="7.8744" y="91.9991" font-size="1.0738"><![CDATA[ALARMS]]></text>
          <text font-family="Arial" fill="#FFFFFF" transform="rotate(-270, 7.8744, 85.5565) translate(0, 0.9664)" style="white-space:pre;" font-weight="400" text-anchor="start" x="7.8744" y="85.5565" font-size="1.0738"><![CDATA[CUTOFF]]></text>
        </g>
        <g transform="matrix(0.0000 1.0000 -1.0000 0.0000 76.1191 52.2573)">
</g>
        <g transform="matrix(0.0000 1.0000 -1.0000 0.0000 76.1191 52.2573)">
</g>
        <g transform="matrix(0.0000 0.2492 -0.2577 0.0000 4.4472 28.0736)">
</g>
        <g transform="matrix(0.0000 0.2492 -0.2577 0.0000 4.4472 28.0736)">
</g>
        <g transform="matrix(0.0000 0.2492 -0.2577 0.0000 4.4472 28.0736)">
</g>
        <g transform="matrix(0.0000 0.2492 -0.2577 0.0000 4.4472 28.0736)">
</g>
        <g transform="matrix(0.0000 0.2492 -0.2577 0.0000 4.4472 28.0736)">
</g>
        <g transform="matrix(0.0000 0.2492 -0.2577 0.0000 4.4472 28.0736)">
</g>
        <g transform="matrix(0.0000 8.4718 -9.7942 0.0000 4.4472 28.0736)">
</g>
        <g transform="matrix(0.0000 8.4718 -9.7942 0.0000 4.4472 28.0736)">
</g>
        <g transform="matrix(0.0000 0.1177 -0.1194 0.0000 4.4472 28.0736)">
</g>
        <g transform="matrix(0.0000 0.1177 -0.1194 0.0000 4.4472 28.0736)">
</g>
        <g transform="matrix(0.0000 0.1177 -0.1194 0.0000 4.5755 27.9613)">
</g>
        <g transform="matrix(0.0000 0.1177 -0.1194 0.0000 4.5755 27.9613)">
          <path d="M 9.5447,8.4709 L 9.5447,3.5793 L 5.3689,1.0738 L 1.0738,3.5793 L 1.0738,8.4709 L 5.3689,10.8571 Z" stroke="#000000" stroke-width="0.1193" stroke-linecap="round" stroke-linejoin="round" fill="#999999"/>
          <ellipse cx="5.2496" cy="5.8461" rx="3.5793" ry="3.5793" fill="#DDDDDD" stroke="#BFBFBF" stroke-width="0.1193" stroke-linecap="round" stroke-linejoin="round"/>
          <ellipse cx="5.2496" cy="5.9058" rx="3.3407" ry="3.4003" fill="#999999" stroke="#BFBFBF" stroke-width="0.1193" stroke-linecap="round" stroke-linejoin="round"/>
          <ellipse cx="5.2496" cy="5.9058" rx="1.4317" ry="1.4914" fill="#A5A5A5" stroke="#999999" stroke-width="0.1193" stroke-linecap="round" stroke-linejoin="round"/>
        </g>
        <g transform="matrix(1.0000 0.0000 0.0000 1.0000 0.0000 0.0000)">
</g>
        <g transform="matrix(1.0000 0.0000 0.0000 1.0000 0.0000 0.0000)">
</g>
        <g transform="matrix(0.0000 1.0000 -1.0000 0.0000 93.0610 69.1992)">
</g>
        <g transform="matrix(0.0000 1.0000 -1.0000 0.0000 93.0610 69.1992)">
</g>
        <g transform="matrix(0.0000 0.2492 -0.2577 0.0000 4.4472 35.9990)">
</g>
        <g transform="matrix(0.0000 0.2492 -0.2577 0.0000 4.4472 35.9990)">
</g>
        <g transform="matrix(0.0000 0.2492 -0.2577 0.0000 4.4472 35.9990)">
</g>
        <g transform="matrix(0.0000 0.2492 -0.2577 0.0000 4.4472 35.9990)">
</g>
        <g transform="matrix(0.0000 0.2492 -0.2577 0.0000 4.4472 35.9990)">
</g>
        <g transform="matrix(0.0000 0.2492 -0.2577 0.0000 4.4472 35.9990)">
</g>
        <g transform="matrix(0.0000 8.4718 -9.7942 0.0000 4.4472 35.9990)">
</g>
        <g transform="matrix(0.0000 8.4718 -9.7942 0.0000 4.4472 35.9990)">
</g>
        <g transform="matrix(0.0000 0.1177 -0.1194 0.0000 4.4472 35.9990)">
</g>
        <g transform="matrix(0.0000 0.1177 -0.1194 0.0000 4.4472 35.9990)">
</g>
        <g transform="matrix(0.0000 0.1177 -0.1194 0.0000 4.5755 35.8866)">
</g>
        <g transform="matrix(0.0000 0.1177 -0.1194 0.0000 4.5755 35.8866)">
          <path d="M 9.5447,8.4709 L 9.5447,3.5793 L 5.3689,1.0738 L 1.0738,3.5793 L 1.0738,8.4709 L 5.3689,10.8571 Z" stroke="#000000" stroke-width="0.1193" stroke-linecap="round" stroke-linejoin="round" fill="#999999"/>
          <ellipse cx="5.2496" cy="5.8461" rx="3.5793" ry="3.5793" fill="#DDDDDD" stroke="#BFBFBF" stroke-width="0.1193" stroke-linecap="round" stroke-linejoin="round"/>
          <ellipse cx="5.2496" cy="5.9058" rx="3.3407" ry="3.4003" fill="#999999" stroke="#BFBFBF" stroke-width="0.1193" stroke-linecap="round" stroke-linejoin="round"/>
          <ellipse cx="5.2496" cy="5.9058" rx="1.4317" ry="1.4914" fill="#A5A5A5" stroke="#999999" stroke-width="0.1193" stroke-linecap="round" stroke-linejoin="round"/>
        </g>
        <g transform="matrix(1.0000 0.0000 0.0000 1.0000 0.0000 0.0000)">
</g>
        <g transform="matrix(1.0000 0.0000 0.0000 1.0000 0.0000 0.0000)">
          <text font-family="Arial" fill="#FFFFFF" transform="rotate(-270, 9.0675, 70.4042) translate(0, 0.9664)" style="white-space:pre;" font-weight="400" text-anchor="start" x="9.0675" y="70.4042" font-size="1.0738"><![CDATA[CONTACTS]]></text>
          <text font-family="Arial" fill="#FFFFFF" transform="rotate(-270, 7.1585, 80.2711) translate(0, 1.2885)" style="white-space:pre;" font-weight="400" text-anchor="start" x="7.1585" y="80.2711" font-size="1.4317"><![CDATA[TELCO]]></text>
        </g>
        <g transform="matrix(0.0000 1.0000 -1.0000 0.0000 38.5368 17.0612)">
</g>
        <g transform="matrix(0.0000 1.0000 -1.0000 0.0000 38.5368 17.0612)">
</g>
        <g transform="matrix(0.0000 0.2490 -0.2516 0.0000 3.8843 10.9950)">
</g>
        <g transform="matrix(0.0000 0.2490 -0.2516 0.0000 3.8843 10.9950)">
</g>
        <g transform="matrix(0.0000 0.2490 -0.2516 0.0000 3.8843 10.9950)">
</g>
        <g transform="matrix(0.0000 0.2490 -0.2516 0.0000 3.8843 10.9950)">
</g>
        <g transform="matrix(0.0000 0.2490 -0.2516 0.0000 3.8843 10.9950)">
</g>
        <g transform="matrix(0.0000 0.2490 -0.2516 0.0000 3.8843 10.9950)">
</g>
        <g transform="matrix(0.0000 9.4618 -9.3108 0.0000 3.8843 10.9950)">
</g>
        <g transform="matrix(0.0000 9.4618 -9.3108 0.0000 3.8843 10.9950)">
</g>
        <g transform="matrix(0.0000 0.1183 -0.1164 0.0000 3.8843 10.9950)">
</g>
        <g transform="matrix(0.0000 0.1183 -0.1164 0.0000 3.8843 10.9950)">
</g>
        <g transform="matrix(0.0000 0.1183 -0.1164 0.0000 4.1481 10.6705)">
</g>
        <g transform="matrix(0.0000 0.1183 -0.1164 0.0000 4.1481 10.6705)">
          <ellipse cx="7.4568" cy="6.9796" rx="4.7127" ry="4.7127" fill="#494949" stroke="#000000" stroke-width="0.1193" stroke-linecap="round" stroke-linejoin="round"/>
          <ellipse cx="7.4568" cy="7.0392" rx="4.1162" ry="4.1758" fill="#EFEFEF" stroke="#000000" stroke-width="0.1193" stroke-linecap="round" stroke-linejoin="round"/>
        </g>
        <g transform="matrix(1.0000 0.0000 0.0000 1.0000 0.0000 0.0000)">
</g>
        <g transform="matrix(1.0000 0.0000 0.0000 1.0000 0.0000 0.0000)">
          <text font-family="Arial" fill="#FFFFFF" transform="rotate(-270, 9.1868, 27.9302) translate(0, 0.9664)" style="white-space:pre;" font-weight="400" text-anchor="start" x="9.1868" y="27.9302" font-size="1.0738"><![CDATA[H/S]]></text>
          <text font-family="Arial" fill="#FFFFFF" transform="rotate(-270, 13.9591, 29.4812) translate(0, 0.9664)" style="white-space:pre;" font-weight="400" text-anchor="start" x="13.9591" y="29.4812" font-size="1.0738"><![CDATA[SHMC]]></text>
        </g>
        <g transform="matrix(0.0000 1.0000 -1.0000 0.0000 43.7864 22.3108)">
</g>
        <g transform="matrix(0.0000 1.0000 -1.0000 0.0000 43.7864 22.3108)">
</g>
        <g transform="matrix(0.0000 0.2490 -0.2516 0.0000 3.8843 13.4508)">
</g>
        <g transform="matrix(0.0000 0.2490 -0.2516 0.0000 3.8843 13.4508)">
</g>
        <g transform="matrix(0.0000 0.2490 -0.2516 0.0000 3.8843 13.4508)">
</g>
        <g transform="matrix(0.0000 0.2490 -0.2516 0.0000 3.8843 13.4508)">
</g>
        <g transform="matrix(0.0000 0.2490 -0.2516 0.0000 3.8843 13.4508)">
</g>
        <g transform="matrix(0.0000 0.2490 -0.2516 0.0000 3.8843 13.4508)">
</g>
        <g transform="matrix(0.0000 9.4618 -9.3108 0.0000 3.8843 13.4508)">
</g>
        <g transform="matrix(0.0000 9.4618 -9.3108 0.0000 3.8843 13.4508)">
</g>
        <g transform="matrix(0.0000 0.1183 -0.1164 0.0000 3.8843 13.4508)">
</g>
        <g transform="matrix(0.0000 0.1183 -0.1164 0.0000 3.8843 13.4508)">
</g>
        <g transform="matrix(0.0000 0.1183 -0.1164 0.0000 4.1481 13.1262)">
</g>
        <g transform="matrix(0.0000 0.1183 -0.1164 0.0000 4.1481 13.1262)">
          <ellipse cx="7.4568" cy="6.9796" rx="4.7127" ry="4.7127" fill="#494949" stroke="#000000" stroke-width="0.1193" stroke-linecap="round" stroke-linejoin="round"/>
          <ellipse cx="7.4568" cy="7.0392" rx="4.1162" ry="4.1758" fill="#EFEFEF" stroke="#000000" stroke-width="0.1193" stroke-linecap="round" stroke-linejoin="round"/>
        </g>
        <g transform="matrix(1.0000 0.0000 0.0000 1.0000 0.0000 0.0000)">
</g>
        <g transform="matrix(1.0000 0.0000 0.0000 1.0000 0.0000 0.0000)">
          <text font-family="Arial" fill="#FFFFFF" transform="rotate(-270, 9.1868, 32.8219) translate(0, 0.9664)" style="white-space:pre;" font-weight="400" text-anchor="start" x="9.1868" y="32.8219" font-size="1.0738"><![CDATA[RST]]></text>
          <text font-family="Arial" fill="#FFFFFF" transform="rotate(-270, 8.2323, 39.9804) translate(0, 0.9664)" style="white-space:pre;" font-weight="400" text-anchor="start" x="8.2323" y="39.9804" font-size="1.0738"><![CDATA[RS232]]></text>
        </g>
        <g transform="matrix(0.0000 1.0000 -1.0000 0.0000 59.1772 39.1333)">
</g>
        <g transform="matrix(0.0000 1.0000 -1.0000 0.0000 59.1772 39.1333)">
</g>
        <g transform="matrix(0.0000 0.2917 -0.2948 0.0000 3.3776 21.1529)">
</g>
        <g transform="matrix(0.0000 0.2917 -0.2948 0.0000 3.3776 21.1529)">
</g>
        <g transform="matrix(0.0000 0.2917 -0.2948 0.0000 3.3776 21.1529)">
</g>
        <g transform="matrix(0.0000 0.2917 -0.2948 0.0000 3.3776 21.1529)">
</g>
        <g transform="matrix(0.0000 0.2917 -0.2948 0.0000 3.3776 21.1529)">
</g>
        <g transform="matrix(0.0000 0.2917 -0.2948 0.0000 3.3776 21.1529)">
</g>
        <g transform="matrix(0.0000 6.7095 -6.4860 0.0000 3.3776 21.1529)">
</g>
        <g transform="matrix(0.0000 6.7095 -6.4860 0.0000 3.3776 21.1529)">
</g>
        <g transform="matrix(0.0000 0.1398 -0.1351 0.0000 3.3776 21.1529)">
</g>
        <g transform="matrix(0.0000 0.1398 -0.1351 0.0000 3.3776 21.1529)">
</g>
        <g transform="matrix(0.0000 0.1398 -0.1351 0.0000 3.9096 20.6025)">
</g>
        <g transform="matrix(0.0000 0.1398 -0.1351 0.0000 3.9096 20.6025)">
          <ellipse cx="6.6216" cy="6.6216" rx="2.8038" ry="2.8038" fill="#FFFF00" stroke="#000000" stroke-width="0.1193" stroke-linecap="round" stroke-linejoin="round"/>
        </g>
        <g transform="matrix(1.0000 0.0000 0.0000 1.0000 0.0000 0.0000)">
</g>
        <g transform="matrix(1.0000 0.0000 0.0000 1.0000 0.0000 0.0000)">
</g>
        <g transform="matrix(0.0000 1.0000 -1.0000 0.0000 60.8476 37.4630)">
</g>
        <g transform="matrix(0.0000 1.0000 -1.0000 0.0000 60.8476 37.4630)">
</g>
        <g transform="matrix(0.0000 0.2917 -0.2948 0.0000 4.1657 21.1529)">
</g>
        <g transform="matrix(0.0000 0.2917 -0.2948 0.0000 4.1657 21.1529)">
</g>
        <g transform="matrix(0.0000 0.2917 -0.2948 0.0000 4.1657 21.1529)">
</g>
        <g transform="matrix(0.0000 0.2917 -0.2948 0.0000 4.1657 21.1529)">
</g>
        <g transform="matrix(0.0000 0.2917 -0.2948 0.0000 4.1657 21.1529)">
</g>
        <g transform="matrix(0.0000 0.2917 -0.2948 0.0000 4.1657 21.1529)">
</g>
        <g transform="matrix(0.0000 6.7095 -6.4860 0.0000 4.1657 21.1529)">
</g>
        <g transform="matrix(0.0000 6.7095 -6.4860 0.0000 4.1657 21.1529)">
</g>
        <g transform="matrix(0.0000 0.1398 -0.1351 0.0000 4.1657 21.1529)">
</g>
        <g transform="matrix(0.0000 0.1398 -0.1351 0.0000 4.1657 21.1529)">
</g>
        <g transform="matrix(0.0000 0.1398 -0.1351 0.0000 4.6977 20.6025)">
</g>
        <g transform="matrix(0.0000 0.1398 -0.1351 0.0000 4.6977 20.6025)">
          <ellipse cx="6.6216" cy="6.6216" rx="2.8038" ry="2.8038" fill="#00FF00" stroke="#000000" stroke-width="0.1193" stroke-linecap="round" stroke-linejoin="round"/>
        </g>
        <g transform="matrix(1.0000 0.0000 0.0000 1.0000 0.0000 0.0000)">
</g>
        <g transform="matrix(1.0000 0.0000 0.0000 1.0000 0.0000 0.0000)">
</g>
        <g transform="matrix(0.0000 1.0000 -1.0000 0.0000 62.3986 35.9120)">
</g>
        <g transform="matrix(0.0000 1.0000 -1.0000 0.0000 62.3986 35.9120)">
</g>
        <g transform="matrix(0.0000 0.2917 -0.2948 0.0000 4.8975 21.1529)">
</g>
        <g transform="matrix(0.0000 0.2917 -0.2948 0.0000 4.8975 21.1529)">
</g>
        <g transform="matrix(0.0000 0.2917 -0.2948 0.0000 4.8975 21.1529)">
</g>
        <g transform="matrix(0.0000 0.2917 -0.2948 0.0000 4.8975 21.1529)">
</g>
        <g transform="matrix(0.0000 0.2917 -0.2948 0.0000 4.8975 21.1529)">
</g>
        <g transform="matrix(0.0000 0.2917 -0.2948 0.0000 4.8975 21.1529)">
</g>
        <g transform="matrix(0.0000 6.7095 -6.4860 0.0000 4.8975 21.1529)">
</g>
        <g transform="matrix(0.0000 6.7095 -6.4860 0.0000 4.8975 21.1529)">
</g>
        <g transform="matrix(0.0000 0.1398 -0.1351 0.0000 4.8975 21.1529)">
</g>
        <g transform="matrix(0.0000 0.1398 -0.1351 0.0000 4.8975 21.1529)">
</g>
        <g transform="matrix(0.0000 0.1398 -0.1351 0.0000 5.4296 20.6025)">
</g>
        <g transform="matrix(0.0000 0.1398 -0.1351 0.0000 5.4296 20.6025)">
          <ellipse cx="6.6216" cy="6.6216" rx="2.8038" ry="2.8038" fill="#FFFF00" stroke="#000000" stroke-width="0.1193" stroke-linecap="round" stroke-linejoin="round"/>
        </g>
        <g transform="matrix(1.0000 0.0000 0.0000 1.0000 0.0000 0.0000)">
</g>
        <g transform="matrix(1.0000 0.0000 0.0000 1.0000 0.0000 0.0000)">
</g>
        <g transform="matrix(0.0000 1.0000 -1.0000 0.0000 64.0689 34.2417)">
</g>
        <g transform="matrix(0.0000 1.0000 -1.0000 0.0000 64.0689 34.2417)">
</g>
        <g transform="matrix(0.0000 0.2917 -0.2948 0.0000 5.6857 21.1529)">
</g>
        <g transform="matrix(0.0000 0.2917 -0.2948 0.0000 5.6857 21.1529)">
</g>
        <g transform="matrix(0.0000 0.2917 -0.2948 0.0000 5.6857 21.1529)">
</g>
        <g transform="matrix(0.0000 0.2917 -0.2948 0.0000 5.6857 21.1529)">
</g>
        <g transform="matrix(0.0000 0.2917 -0.2948 0.0000 5.6857 21.1529)">
</g>
        <g transform="matrix(0.0000 0.2917 -0.2948 0.0000 5.6857 21.1529)">
</g>
        <g transform="matrix(0.0000 6.7095 -6.4860 0.0000 5.6857 21.1529)">
</g>
        <g transform="matrix(0.0000 6.7095 -6.4860 0.0000 5.6857 21.1529)">
</g>
        <g transform="matrix(0.0000 0.1398 -0.1351 0.0000 5.6857 21.1529)">
</g>
        <g transform="matrix(0.0000 0.1398 -0.1351 0.0000 5.6857 21.1529)">
</g>
        <g transform="matrix(0.0000 0.1398 -0.1351 0.0000 6.2177 20.6025)">
</g>
        <g transform="matrix(0.0000 0.1398 -0.1351 0.0000 6.2177 20.6025)">
          <ellipse cx="6.6216" cy="6.6216" rx="2.8038" ry="2.8038" fill="#00FF00" stroke="#000000" stroke-width="0.1193" stroke-linecap="round" stroke-linejoin="round"/>
        </g>
        <g transform="matrix(1.0000 0.0000 0.0000 1.0000 0.0000 0.0000)">
</g>
        <g transform="matrix(1.0000 0.0000 0.0000 1.0000 0.0000 0.0000)">
          <text font-family="Arial" fill="#FFFFFF" transform="rotate(-270, 15.3909, 46.7810) translate(0, 0.9664)" style="white-space:pre;" font-weight="400" text-anchor="start" x="15.3909" y="46.7810" font-size="1.0738"><![CDATA[LA2]]></text>
          <text font-family="Arial" fill="#FFFFFF" transform="rotate(-270, 13.7205, 46.7810) translate(0, 0.9664)" style="white-space:pre;" font-weight="400" text-anchor="start" x="13.7205" y="46.7810" font-size="1.0738"><![CDATA[LS2]]></text>
          <text font-family="Arial" fill="#FFFFFF" transform="rotate(-270, 12.1695, 46.6617) translate(0, 0.9664)" style="white-space:pre;" font-weight="400" text-anchor="start" x="12.1695" y="46.6617" font-size="1.0738"><![CDATA[LA1]]></text>
          <text font-family="Arial" fill="#FFFFFF" transform="rotate(-270, 10.4992, 46.6617) translate(0, 0.9664)" style="white-space:pre;" font-weight="400" text-anchor="start" x="10.4992" y="46.6617" font-size="1.0738"><![CDATA[LS1]]></text>
          <text font-family="Arial" fill="#FFFFFF" transform="rotate(-270, 8.7096, 48.9286) translate(0, 0.9664)" style="white-space:pre;" font-weight="400" text-anchor="start" x="8.7096" y="48.9286" font-size="1.0738"><![CDATA[ETH]]></text>
          <text font-family="Arial" fill="#FFFFFF" transform="rotate(-270, 16.9419, 53.5817) translate(0, 0.9664)" style="white-space:pre;" font-weight="400" text-anchor="start" x="16.9419" y="53.5817" font-size="1.0738"><![CDATA[10/100 ETH L/A]]></text>
        </g>
        <g transform="matrix(0.0000 1.0000 -1.0000 0.0000 52.8539 28.5148)">
</g>
        <g transform="matrix(0.0000 1.0000 -1.0000 0.0000 52.8539 28.5148)">
</g>
        <g transform="matrix(0.0000 0.2494 -0.2506 0.0000 5.5731 15.7949)">
</g>
        <g transform="matrix(0.0000 0.2494 -0.2506 0.0000 5.5731 15.7949)">
</g>
        <g transform="matrix(0.0000 0.2494 -0.2506 0.0000 5.5731 15.7949)">
</g>
        <g transform="matrix(0.0000 0.2494 -0.2506 0.0000 5.5731 15.7949)">
</g>
        <g transform="matrix(0.0000 0.2494 -0.2506 0.0000 5.5731 15.7949)">
</g>
        <g transform="matrix(0.0000 0.2494 -0.2506 0.0000 5.5731 15.7949)">
</g>
        <g transform="matrix(0.0000 29.9266 -26.3161 0.0000 5.5731 15.7949)">
</g>
        <g transform="matrix(0.0000 29.9266 -26.3161 0.0000 5.5731 15.7949)">
</g>
        <g transform="matrix(0.0000 0.1169 -0.1170 0.0000 5.5731 15.7949)">
</g>
        <g transform="matrix(0.0000 0.1169 -0.1170 0.0000 5.5731 15.7949)">
</g>
        <g transform="matrix(0.0000 0.1169 -0.1170 0.0000 5.7266 15.4741)">
</g>
        <g transform="matrix(0.0000 0.1169 -0.1170 0.0000 5.7266 15.4741)">
          <path d="M 2.8634,1.3124 L 2.8634,19.4474 L 10.4992,19.4474 L 10.4992,23.8618 L 13.6012,23.8618 L 13.6012,28.1569 L 22.5494,28.1569 L 22.5494,23.8618 L 25.7707,23.8618 L 25.7707,19.4474 L 33.4065,19.4474 L 33.4065,1.3124 L 2.8634,1.3124 Z" stroke="#161616" stroke-width="0.1193" stroke-linecap="round" stroke-linejoin="round" fill="#000000"/>
        </g>
        <g transform="matrix(1.0000 0.0000 0.0000 1.0000 0.0000 0.0000)">
</g>
        <g transform="matrix(1.0000 0.0000 0.0000 1.0000 0.0000 0.0000)">
</g>
        <g transform="matrix(0.0000 1.0000 1.0000 0.0000 -45.0988 45.0988)">
</g>
        <g transform="matrix(0.0000 1.0000 1.0000 0.0000 -45.0988 45.0988)">
</g>
        <g transform="matrix(0.0000 0.2512 0.2506 0.0000 2.2517 23.1063)">
</g>
        <g transform="matrix(0.0000 0.2512 0.2506 0.0000 2.2517 23.1063)">
</g>
        <g transform="matrix(0.0000 0.2512 0.2506 0.0000 2.2517 23.1063)">
</g>
        <g transform="matrix(0.0000 0.2512 0.2506 0.0000 2.2517 23.1063)">
</g>
        <g transform="matrix(0.0000 0.2512 0.2506 0.0000 2.2517 23.1063)">
</g>
        <g transform="matrix(0.0000 0.2512 0.2506 0.0000 2.2517 23.1063)">
</g>
        <g transform="matrix(0.0000 35.1691 26.3161 0.0000 2.2517 23.1063)">
</g>
        <g transform="matrix(0.0000 35.1691 26.3161 0.0000 2.2517 23.1063)">
</g>
        <g transform="matrix(0.0000 0.1180 0.1170 0.0000 2.2517 23.1063)">
</g>
        <g transform="matrix(0.0000 0.1180 0.1170 0.0000 2.2517 23.1063)">
</g>
        <g transform="matrix(0.0000 0.1180 0.1170 0.0000 2.0285 22.8247)">
</g>
        <g transform="matrix(0.0000 0.1180 0.1170 0.0000 2.0285 22.8247)">
          <path d="M 14.9136,28.7535 L 14.9136,27.4411 L 13.0047,27.4411 L 13.0047,23.7425 L 4.8917,23.7425 L 4.8917,23.2652 L 2.3862,23.2652 L 2.3862,27.4411 L 2.8634,27.4411 L 2.8634,23.7425 L 4.8917,23.7425 L 4.8917,15.5102 L 5.8461,15.5102 L 5.8461,11.0957 L 4.8917,11.0957 L 4.8917,1.9089 L 35.4348,1.9089 L 35.4348,11.0957 L 34.5996,11.0957 L 34.5996,15.5102 L 35.4348,15.5102 L 35.4348,23.7425 L 37.5823,23.7425 L 37.5823,27.4411 L 37.9402,27.4411 L 37.9402,23.2652 L 35.4348,23.2652 L 35.4348,23.7425 L 27.5604,23.7425 L 27.5604,27.4411 L 25.6514,27.4411 L 25.6514,28.7535 L 14.9136,28.7535 Z" stroke="#000000" stroke-width="0.1193" stroke-linecap="round" stroke-linejoin="round" fill="#000000"/>
          <path d="M 2.8634,23.6232 L 12.8854,23.6232 L 12.8854,27.3218 L 2.8634,27.3218 L 2.8634,23.6232 Z" stroke="#494949" stroke-width="0.1193" stroke-linecap="round" stroke-linejoin="round" fill="#000000"/>
          <path d="M 27.5604,23.6232 L 37.5823,23.6232 L 37.5823,27.3218 L 27.5604,27.3218 L 27.5604,23.6232 Z" stroke="#494949" stroke-width="0.1193" stroke-linecap="round" stroke-linejoin="round" fill="#000000"/>
        </g>
        <g transform="matrix(1.0000 0.0000 0.0000 1.0000 0.0000 0.0000)">
</g>
        <g transform="matrix(1.0000 0.0000 0.0000 1.0000 0.0000 0.0000)">
</g>
        <g transform="matrix(0.0000 1.0000 -1.0000 0.0000 84.4707 60.6089)">
</g>
        <g transform="matrix(0.0000 1.0000 -1.0000 0.0000 84.4707 60.6089)">
</g>
        <g transform="matrix(0.0000 0.2490 -0.2554 0.0000 4.8975 29.0782)">
</g>
        <g transform="matrix(0.0000 0.2490 -0.2554 0.0000 4.8975 29.0782)">
</g>
        <g transform="matrix(0.0000 0.2490 -0.2554 0.0000 4.8975 29.0782)">
</g>
        <g transform="matrix(0.0000 0.2490 -0.2554 0.0000 4.8975 29.0782)">
</g>
        <g transform="matrix(0.0000 0.2490 -0.2554 0.0000 4.8975 29.0782)">
</g>
        <g transform="matrix(0.0000 0.2490 -0.2554 0.0000 4.8975 29.0782)">
</g>
        <g transform="matrix(0.0000 57.0142 -16.8558 0.0000 4.8975 29.0782)">
</g>
        <g transform="matrix(0.0000 57.0142 -16.8558 0.0000 4.8975 29.0782)">
</g>
        <g transform="matrix(0.0000 0.1166 -0.1187 0.0000 4.8975 29.0782)">
</g>
        <g transform="matrix(0.0000 0.1166 -0.1187 0.0000 4.8975 29.0782)">
</g>
        <g transform="matrix(0.0000 0.1166 -0.1187 0.0000 5.2091 28.6192)">
</g>
        <g transform="matrix(0.0000 0.1166 -0.1187 0.0000 5.2091 28.6192)">
          <path d="M 57.5069,2.6248 L 57.6262,2.6248 L 57.6262,2.6248 L 57.7455,2.6248 L 57.7455,2.6248 L 57.8648,2.6248 L 58.1035,2.6248 L 58.2228,2.6248 L 58.3421,2.6248 L 58.5807,2.6248 L 58.8193,2.7441 L 58.9386,2.7441 L 59.1772,2.8634 L 59.4159,2.8634 L 59.6545,2.9827 L 59.8931,2.9827 L 60.1317,3.1020 L 60.3703,3.2213 L 60.6089,3.3407 L 60.8476,3.4600 L 61.0862,3.6986 L 61.2055,3.8179 L 61.4441,4.0565 L 61.5634,4.2951 L 61.6827,4.5337 L 61.9213,4.7724 L 62.0407,5.0110 L 62.0407,5.2496 L 62.1600,5.6075 L 62.1600,5.9654 L 62.1600,6.3234 L 62.1600,6.6813 L 62.0407,7.1585 L 62.0407,7.1585 L 62.0407,7.3972 L 62.0407,7.5165 L 62.0407,7.7551 L 62.0407,7.9937 L 61.9213,8.2323 L 61.9213,8.4709 L 61.8020,8.7096 L 61.8020,9.0675 L 61.6827,9.4254 L 61.5634,9.6640 L 61.5634,10.0220 L 61.4441,10.3799 L 61.3248,10.7378 L 61.2055,11.2150 L 61.0862,11.5730 L 61.0862,11.9309 L 60.9669,12.2888 L 60.8476,12.7661 L 60.7283,13.1240 L 60.6089,13.4819 L 60.4896,13.9591 L 60.3703,14.3171 L 60.1317,14.6750 L 60.0124,15.0329 L 59.8931,15.3909 L 59.7738,15.7488 L 59.6545,16.1067 L 59.5352,16.4646 L 59.4159,16.8226 L 59.2966,17.0612 L 59.1772,17.4191 L 59.0579,17.5384 L 58.9386,17.7770 L 58.8193,17.8963 L 58.7000,18.0157 L 58.5807,18.2543 L 58.4614,18.3736 L 58.3421,18.4929 L 58.2228,18.6122 L 58.1035,18.7315 L 57.9842,18.8508 L 57.8648,18.8508 L 57.7455,18.9701 L 57.7455,19.0894 L 57.6262,19.0894 L 57.5069,19.2087 L 57.3876,19.2087 L 57.2683,19.3281 L 57.1490,19.3281 L 57.0297,19.3281 L 56.9104,19.4474 L 56.9104,19.4474 L 56.7911,19.4474 L 56.6718,19.4474 L 56.5524,19.4474 L 56.5524,19.4474 L 56.4331,19.4474 L 56.3138,19.4474 L 56.1945,19.4474 L 56.1945,19.4474 L 56.0752,19.4474 L 55.9559,19.4474 L 55.8366,19.4474 L 55.7173,19.4474 L 55.3594,19.4474 L 54.7628,19.4474 L 53.9276,19.4474 L 52.8539,19.4474 L 51.6608,19.4474 L 50.3484,19.4474 L 48.7974,19.4474 L 47.1270,19.4474 L 45.3374,19.4474 L 43.4285,19.4474 L 41.4002,19.4474 L 39.3720,19.4474 L 37.3437,19.4474 L 35.1961,19.4474 L 33.0486,19.4474 L 30.9010,19.4474 L 28.7535,19.4474 L 26.7252,19.4474 L 24.6970,19.4474 L 22.6687,19.4474 L 20.7598,19.4474 L 18.9701,19.4474 L 17.2998,19.4474 L 15.7488,19.4474 L 14.4364,19.4474 L 13.2433,19.4474 L 12.1695,19.4474 L 11.3344,19.4474 L 10.7378,19.4474 L 10.3799,19.4474 L 10.2606,19.4474 L 10.1413,19.4474 L 10.0220,19.4474 L 9.9026,19.4474 L 9.9026,19.4474 L 9.7833,19.4474 L 9.6640,19.4474 L 9.5447,19.4474 L 9.5447,19.4474 L 9.4254,19.4474 L 9.3061,19.4474 L 9.1868,19.4474 L 9.0675,19.4474 L 8.9482,19.3281 L 8.9482,19.3281 L 8.8289,19.3281 L 8.7096,19.2087 L 8.5902,19.2087 L 8.4709,19.0894 L 8.3516,19.0894 L 8.2323,18.9701 L 8.1130,18.8508 L 7.9937,18.8508 L 7.8744,18.7315 L 7.8744,18.6122 L 7.7551,18.4929 L 7.6358,18.3736 L 7.5165,18.2543 L 7.3972,18.0157 L 7.2778,17.8963 L 7.1585,17.7770 L 7.0392,17.5384 L 7.0392,17.4191 L 6.8006,17.0612 L 6.6813,16.8226 L 6.5620,16.5839 L 6.4427,16.2260 L 6.3234,15.8681 L 6.2041,15.5102 L 6.0848,15.2715 L 5.9654,14.9136 L 5.8461,14.4364 L 5.7268,14.0785 L 5.6075,13.7205 L 5.4882,13.3626 L 5.2496,13.0047 L 5.1303,12.5274 L 5.0110,12.1695 L 5.0110,11.8116 L 4.8917,11.4537 L 4.7724,10.9764 L 4.6530,10.6185 L 4.5337,10.2606 L 4.4144,9.9026 L 4.4144,9.5447 L 4.2951,9.3061 L 4.1758,8.9482 L 4.1758,8.5902 L 4.1758,8.3516 L 4.0565,8.1130 L 4.0565,7.8744 L 4.0565,7.6358 L 4.0565,7.3972 L 3.9372,7.2778 L 4.0565,7.1585 L 3.9372,6.6813 L 3.9372,6.3234 L 3.9372,5.9654 L 3.9372,5.6075 L 4.0565,5.2496 L 4.1758,5.0110 L 4.1758,4.7724 L 4.4144,4.5337 L 4.5337,4.2951 L 4.6530,4.0565 L 4.8917,3.8179 L 5.1303,3.6986 L 5.3689,3.4600 L 5.4882,3.3407 L 5.7268,3.2213 L 5.9654,3.1020 L 6.2041,2.9827 L 6.4427,2.9827 L 6.6813,2.8634 L 6.9199,2.8634 L 7.1585,2.7441 L 7.3972,2.7441 L 7.6358,2.6248 L 7.7551,2.6248 L 7.9937,2.6248 L 8.1130,2.6248 L 8.2323,2.6248 L 8.3516,2.6248 L 8.4709,2.6248 L 8.5902,2.6248 L 8.5902,2.6248 L 8.5902,2.6248 L 8.8289,2.5055 L 9.1868,2.5055 L 9.7833,2.5055 L 10.7378,2.5055 L 11.8116,2.5055 L 13.1240,2.5055 L 14.5557,2.5055 L 16.2260,2.5055 L 18.0157,2.5055 L 19.9246,2.5055 L 21.9528,2.5055 L 24.1004,2.5055 L 26.2480,2.5055 L 28.5148,2.5055 L 30.7817,2.5055 L 33.0486,2.5055 L 35.3155,2.5055 L 37.5823,2.5055 L 39.8492,2.5055 L 41.9968,2.5055 L 44.1443,2.5055 L 46.1726,2.5055 L 48.0815,2.5055 L 49.8711,2.5055 L 51.5415,2.5055 L 53.0925,2.5055 L 54.2856,2.5055 L 55.4787,2.5055 L 56.3138,2.5055 L 57.0297,2.6248 L 57.3876,2.6248 L 57.5069,2.6248 Z" stroke="#BFBFBF" stroke-width="0.1193" stroke-linecap="round" stroke-linejoin="round" fill="#BFBFBF"/>
          <path d="M 10.8571,18.7315 L 10.7378,18.7315 L 10.6185,18.7315 L 10.4992,18.7315 L 10.4992,18.7315 L 10.3799,18.6122 L 10.2606,18.6122 L 10.2606,18.6122 L 10.1413,18.6122 L 10.0220,18.6122 L 9.9026,18.6122 L 9.7833,18.6122 L 9.7833,18.6122 L 9.6640,18.4929 L 9.5447,18.4929 L 9.4254,18.4929 L 9.3061,18.4929 L 9.3061,18.3736 L 9.1868,18.3736 L 9.0675,18.2543 L 8.9482,18.2543 L 8.8289,18.1350 L 8.7096,18.0157 L 8.7096,18.0157 L 8.5902,17.8963 L 8.4709,17.7770 L 8.3516,17.6577 L 8.2323,17.5384 L 8.2323,17.4191 L 8.1130,17.2998 L 7.9937,17.0612 L 7.8744,16.9419 L 7.8744,16.8226 L 7.7551,16.5839 L 7.6358,16.2260 L 7.5165,15.9874 L 7.3972,15.7488 L 7.2778,15.3909 L 7.1585,15.1522 L 7.0392,14.7943 L 6.9199,14.4364 L 6.8006,14.1978 L 6.6813,13.8398 L 6.5620,13.4819 L 6.4427,13.1240 L 6.3234,12.7661 L 6.2041,12.4081 L 6.0848,12.0502 L 5.9654,11.6923 L 5.9654,11.3344 L 5.8461,10.9764 L 5.7268,10.6185 L 5.6075,10.3799 L 5.6075,10.0220 L 5.4882,9.6640 L 5.4882,9.4254 L 5.3689,9.0675 L 5.3689,8.8289 L 5.2496,8.5902 L 5.2496,8.3516 L 5.2496,8.1130 L 5.2496,7.8744 L 5.2496,7.7551 L 5.1303,7.6358 L 5.2496,7.3972 L 5.1303,7.0392 L 5.1303,6.8006 L 5.1303,6.4427 L 5.1303,6.0848 L 5.1303,5.8461 L 5.2496,5.6075 L 5.3689,5.3689 L 5.4882,5.1303 L 5.6075,4.8917 L 5.8461,4.7724 L 5.9654,4.5337 L 6.0848,4.4144 L 6.3234,4.2951 L 6.5620,4.1758 L 6.8006,4.0565 L 6.9199,3.9372 L 7.1585,3.8179 L 7.3972,3.6986 L 7.6358,3.6986 L 7.8744,3.5793 L 7.9937,3.5793 L 8.2323,3.5793 L 8.4709,3.4600 L 8.5902,3.4600 L 8.7096,3.4600 L 8.9482,3.4600 L 9.0675,3.4600 L 9.1868,3.4600 L 9.1868,3.4600 L 9.3061,3.4600 L 9.3061,3.4600 L 9.3061,3.4600 L 9.5447,3.3407 L 9.9026,3.3407 L 10.4992,3.3407 L 11.3344,3.3407 L 12.4081,3.3407 L 13.7205,3.3407 L 15.1522,3.3407 L 16.7033,3.3407 L 18.4929,3.3407 L 20.4018,3.3407 L 22.3108,3.3407 L 24.3390,3.3407 L 26.4866,3.3407 L 28.6341,3.3407 L 30.9010,3.3407 L 33.1679,3.3407 L 35.3155,3.3407 L 37.5823,3.3407 L 39.7299,3.3407 L 41.8774,3.3407 L 43.9057,3.3407 L 45.9339,3.3407 L 47.7236,3.3407 L 49.5132,3.3407 L 51.0642,3.3407 L 52.6152,3.3407 L 53.8083,3.3407 L 54.8821,3.4600 L 55.8366,3.4600 L 56.4331,3.4600 L 56.7911,3.4600 L 56.9104,3.4600 L 57.0297,3.4600 L 57.0297,3.4600 L 57.0297,3.4600 L 57.1490,3.4600 L 57.2683,3.4600 L 57.3876,3.4600 L 57.5069,3.4600 L 57.7455,3.4600 L 57.8648,3.4600 L 58.1035,3.5793 L 58.2228,3.5793 L 58.4614,3.5793 L 58.7000,3.6986 L 58.8193,3.6986 L 59.0579,3.8179 L 59.2966,3.9372 L 59.4159,4.0565 L 59.6545,4.1758 L 59.8931,4.2951 L 60.0124,4.4144 L 60.2510,4.5337 L 60.3703,4.7724 L 60.6089,4.8917 L 60.7283,5.1303 L 60.8476,5.3689 L 60.9669,5.6075 L 60.9669,5.8461 L 61.0862,6.0848 L 61.0862,6.4427 L 61.0862,6.8006 L 61.0862,7.0392 L 61.0862,7.3972 L 60.9669,7.5165 L 60.9669,7.6358 L 60.9669,7.8744 L 60.9669,7.9937 L 60.9669,8.2323 L 60.8476,8.4709 L 60.8476,8.7096 L 60.7283,8.9482 L 60.7283,9.1868 L 60.6089,9.5447 L 60.6089,9.7833 L 60.4896,10.1413 L 60.3703,10.4992 L 60.3703,10.7378 L 60.2510,11.0957 L 60.1317,11.4537 L 60.0124,11.8116 L 60.0124,12.1695 L 59.8931,12.5274 L 59.7738,12.8854 L 59.6545,13.2433 L 59.5352,13.6012 L 59.4159,13.9591 L 59.2966,14.3171 L 59.1772,14.6750 L 59.0579,15.0329 L 58.9386,15.3909 L 58.8193,15.6295 L 58.7000,15.9874 L 58.5807,16.2260 L 58.4614,16.4646 L 58.3421,16.8226 L 58.3421,16.9419 L 58.2228,17.0612 L 58.1035,17.2998 L 57.9842,17.4191 L 57.8648,17.5384 L 57.7455,17.6577 L 57.7455,17.7770 L 57.6262,17.8963 L 57.5069,18.0157 L 57.3876,18.0157 L 57.2683,18.1350 L 57.2683,18.2543 L 57.1490,18.2543 L 57.0297,18.3736 L 56.9104,18.3736 L 56.7911,18.4929 L 56.6718,18.4929 L 56.6718,18.4929 L 56.5524,18.4929 L 56.4331,18.6122 L 56.3138,18.6122 L 56.3138,18.6122 L 56.1945,18.6122 L 56.0752,18.6122 L 55.9559,18.6122 L 55.9559,18.6122 L 55.8366,18.6122 L 55.7173,18.7315 L 55.7173,18.7315 L 55.5980,18.7315 L 55.4787,18.7315 L 55.4787,18.7315 L 55.2400,18.7315 L 54.8821,18.7315 L 54.2856,18.7315 L 53.4504,18.7315 L 52.4959,18.7315 L 51.3029,18.7315 L 49.9905,18.7315 L 48.4394,18.7315 L 46.7691,18.7315 L 45.0988,18.7315 L 43.1898,18.7315 L 41.2809,18.7315 L 39.2526,18.7315 L 37.2244,18.7315 L 35.1961,18.7315 L 33.1679,18.7315 L 31.0203,18.7315 L 28.9921,18.7315 L 26.9638,18.7315 L 24.9356,18.7315 L 23.0266,18.7315 L 21.1177,18.7315 L 19.4474,18.7315 L 17.7770,18.7315 L 16.2260,18.7315 L 14.9136,18.7315 L 13.7205,18.7315 L 12.7661,18.7315 L 11.9309,18.7315 L 11.3344,18.7315 L 10.9764,18.7315 L 10.8571,18.7315 Z" stroke="#494949" stroke-width="0.1193" stroke-linecap="round" stroke-linejoin="round" fill="#494949"/>
          <ellipse cx="9.6640" cy="7.1585" rx="1.6703" ry="1.6703" fill="#000000" stroke="#000000" stroke-width="0.1193" stroke-linecap="round" stroke-linejoin="round"/>
          <ellipse cx="16.2857" cy="7.1585" rx="1.6107" ry="1.6703" fill="#000000" stroke="#000000" stroke-width="0.1193" stroke-linecap="round" stroke-linejoin="round"/>
          <ellipse cx="22.8477" cy="7.1585" rx="1.6107" ry="1.6703" fill="#000000" stroke="#000000" stroke-width="0.1193" stroke-linecap="round" stroke-linejoin="round"/>
          <ellipse cx="29.4693" cy="7.1585" rx="1.6703" ry="1.6703" fill="#000000" stroke="#000000" stroke-width="0.1193" stroke-linecap="round" stroke-linejoin="round"/>
          <ellipse cx="36.2699" cy="7.1585" rx="1.6703" ry="1.6703" fill="#000000" stroke="#000000" stroke-width="0.1193" stroke-linecap="round" stroke-linejoin="round"/>
          <ellipse cx="42.8319" cy="7.1585" rx="1.6703" ry="1.6703" fill="#000000" stroke="#000000" stroke-width="0.1193" stroke-linecap="round" stroke-linejoin="round"/>
          <ellipse cx="49.4536" cy="7.1585" rx="1.6107" ry="1.6703" fill="#000000" stroke="#000000" stroke-width="0.1193" stroke-linecap="round" stroke-linejoin="round"/>
          <ellipse cx="56.1945" cy="7.1585" rx="1.6703" ry="1.6703" fill="#000000" stroke="#000000" stroke-width="0.1193" stroke-linecap="round" stroke-linejoin="round"/>
          <ellipse cx="12.8854" cy="14.6750" rx="1.6703" ry="1.6703" fill="#000000" stroke="#000000" stroke-width="0.1193" stroke-linecap="round" stroke-linejoin="round"/>
          <ellipse cx="19.6263" cy="14.6750" rx="1.6107" ry="1.6703" fill="#000000" stroke="#000000" stroke-width="0.1193" stroke-linecap="round" stroke-linejoin="round"/>
          <ellipse cx="26.2480" cy="14.6750" rx="1.6703" ry="1.6703" fill="#000000" stroke="#000000" stroke-width="0.1193" stroke-linecap="round" stroke-linejoin="round"/>
          <ellipse cx="32.8696" cy="14.6750" rx="1.6107" ry="1.6703" fill="#000000" stroke="#000000" stroke-width="0.1193" stroke-linecap="round" stroke-linejoin="round"/>
          <ellipse cx="39.6106" cy="14.6750" rx="1.6703" ry="1.6703" fill="#000000" stroke="#000000" stroke-width="0.1193" stroke-linecap="round" stroke-linejoin="round"/>
          <ellipse cx="46.2322" cy="14.6750" rx="1.6107" ry="1.6703" fill="#000000" stroke="#000000" stroke-width="0.1193" stroke-linecap="round" stroke-linejoin="round"/>
          <ellipse cx="52.8539" cy="14.6750" rx="1.6703" ry="1.6703" fill="#000000" stroke="#000000" stroke-width="0.1193" stroke-linecap="round" stroke-linejoin="round"/>
        </g>
        <g transform="matrix(1.0000 0.0000 0.0000 1.0000 0.0000 0.0000)">
</g>
        <g transform="matrix(1.0000 0.0000 0.0000 1.0000 0.0000 0.0000)">
</g>
        <g transform="matrix(0.0000 1.0000 -1.0000 0.0000 68.3640 39.7299)">
</g>
        <g transform="matrix(0.0000 1.0000 -1.0000 0.0000 68.3640 39.7299)">
</g>
        <g transform="matrix(0.0000 0.2497 -0.2554 0.0000 5.1790 23.4412)">
</g>
        <g transform="matrix(0.0000 0.2497 -0.2554 0.0000 5.1790 23.4412)">
</g>
        <g transform="matrix(0.0000 0.2497 -0.2554 0.0000 5.1790 23.4412)">
</g>
        <g transform="matrix(0.0000 0.2497 -0.2554 0.0000 5.1790 23.4412)">
</g>
        <g transform="matrix(0.0000 0.2497 -0.2554 0.0000 5.1790 23.4412)">
</g>
        <g transform="matrix(0.0000 0.2497 -0.2554 0.0000 5.1790 23.4412)">
</g>
        <g transform="matrix(0.0000 6.4914 -2.8093 0.0000 5.1790 23.4412)">
</g>
        <g transform="matrix(0.0000 6.4914 -2.8093 0.0000 5.1790 23.4412)">
</g>
        <g transform="matrix(0.0000 0.1159 -0.1171 0.0000 5.1790 23.4412)">
</g>
        <g transform="matrix(0.0000 0.1159 -0.1171 0.0000 5.1790 23.4412)">
</g>
        <g transform="matrix(0.0000 0.1159 -0.1171 0.0000 6.0309 22.6805)">
</g>
        <g transform="matrix(0.0000 0.1159 -0.1171 0.0000 6.0309 22.6805)">
          <path d="M 6.5620,7.1585 L 13.3626,7.1585 L 13.3626,10.0220 L 6.5620,10.0220 L 6.5620,7.1585 Z" stroke="#000000" stroke-width="0.1193" stroke-linecap="round" stroke-linejoin="round" fill="#83FF00"/>
        </g>
        <g transform="matrix(1.0000 0.0000 0.0000 1.0000 0.0000 0.0000)">
</g>
        <g transform="matrix(1.0000 0.0000 0.0000 1.0000 0.0000 0.0000)">
</g>
        <g transform="matrix(0.0000 1.0000 -1.0000 0.0000 74.3295 45.6953)">
</g>
        <g transform="matrix(0.0000 1.0000 -1.0000 0.0000 74.3295 45.6953)">
</g>
        <g transform="matrix(0.0000 0.2497 -0.2554 0.0000 5.1790 26.2318)">
</g>
        <g transform="matrix(0.0000 0.2497 -0.2554 0.0000 5.1790 26.2318)">
</g>
        <g transform="matrix(0.0000 0.2497 -0.2554 0.0000 5.1790 26.2318)">
</g>
        <g transform="matrix(0.0000 0.2497 -0.2554 0.0000 5.1790 26.2318)">
</g>
        <g transform="matrix(0.0000 0.2497 -0.2554 0.0000 5.1790 26.2318)">
</g>
        <g transform="matrix(0.0000 0.2497 -0.2554 0.0000 5.1790 26.2318)">
</g>
        <g transform="matrix(0.0000 6.4914 -2.8093 0.0000 5.1790 26.2318)">
</g>
        <g transform="matrix(0.0000 6.4914 -2.8093 0.0000 5.1790 26.2318)">
</g>
        <g transform="matrix(0.0000 0.1159 -0.1171 0.0000 5.1790 26.2318)">
</g>
        <g transform="matrix(0.0000 0.1159 -0.1171 0.0000 5.1790 26.2318)">
</g>
        <g transform="matrix(0.0000 0.1159 -0.1171 0.0000 6.0309 25.4711)">
</g>
        <g transform="matrix(0.0000 0.1159 -0.1171 0.0000 6.0309 25.4711)">
          <path d="M 6.5620,7.1585 L 13.3626,7.1585 L 13.3626,10.0220 L 6.5620,10.0220 L 6.5620,7.1585 Z" stroke="#000000" stroke-width="0.1193" stroke-linecap="round" stroke-linejoin="round" fill="#FFFF00"/>
        </g>
        <g transform="matrix(1.0000 0.0000 0.0000 1.0000 0.0000 0.0000)">
</g>
        <g transform="matrix(1.0000 0.0000 0.0000 1.0000 0.0000 0.0000)">
</g>
        <g transform="matrix(0.0000 1.0000 -1.0000 0.0000 118.4738 89.8396)">
</g>
        <g transform="matrix(0.0000 1.0000 -1.0000 0.0000 118.4738 89.8396)">
</g>
        <g transform="matrix(0.0000 0.6923 -0.6997 0.0000 6.8115 45.4870)">
</g>
        <g transform="matrix(0.0000 0.6923 -0.6997 0.0000 6.8115 45.4870)">
</g>
        <g transform="matrix(0.0000 0.6923 -0.6997 0.0000 6.8115 45.4870)">
</g>
        <g transform="matrix(0.0000 0.6923 -0.6997 0.0000 6.8115 45.4870)">
</g>
        <g transform="matrix(0.0000 0.6923 -0.6997 0.0000 6.8115 45.4870)">
</g>
        <g transform="matrix(0.0000 0.6923 -0.6997 0.0000 6.8115 45.4870)">
</g>
        <g transform="matrix(0.0000 29.7685 -30.0850 0.0000 6.8115 45.4870)">
</g>
        <g transform="matrix(0.0000 29.7685 -30.0850 0.0000 6.8115 45.4870)">
</g>
        <g transform="matrix(0.0000 0.3236 -0.3270 0.0000 6.8115 45.4870)">
</g>
        <g transform="matrix(0.0000 0.3236 -0.3270 0.0000 6.8115 45.4870)">
</g>
        <g transform="matrix(0.0000 0.3236 -0.3270 0.0000 7.5918 44.9852)">
</g>
        <g transform="matrix(0.0000 0.3236 -0.3270 0.0000 7.5918 44.9852)">
          <ellipse cx="6.9796" cy="7.7551" rx="5.3092" ry="5.3689" fill="#C0C0C0" stroke="#000000" stroke-width="0.1193" stroke-linecap="round" stroke-linejoin="round"/>
          <ellipse cx="6.9796" cy="7.7551" rx="3.9968" ry="4.0565" fill="#666666" stroke="#000000" stroke-width="0.1193" stroke-linecap="round" stroke-linejoin="round"/>
          <ellipse cx="7.0392" cy="7.7551" rx="3.6986" ry="3.6986" fill="#E5E5E5" stroke="#E5E5E5" stroke-width="0.1193" stroke-linecap="round" stroke-linejoin="round"/>
          <path d="M 4.0565,7.2778 L 4.0565,7.2778 L 4.0565,7.2778 L 4.0565,7.3972 L 4.0565,7.3972 L 4.0565,7.3972 L 3.9372,7.3972 L 3.9372,7.3972 L 3.9372,7.3972 L 3.9372,7.3972 L 3.9372,7.3972 L 3.9372,7.3972 L 3.9372,7.3972 L 3.9372,7.3972 L 3.8179,7.3972 L 3.8179,7.5165 L 3.8179,7.5165 L 3.8179,7.5165 L 3.8179,7.5165 L 3.8179,7.5165 L 3.8179,7.5165 L 3.8179,7.6358 L 3.8179,7.6358 L 3.8179,7.6358 L 3.8179,7.6358 L 3.8179,7.6358 L 3.8179,7.6358 L 3.8179,7.7551 L 3.8179,7.7551 L 3.8179,7.7551 L 3.8179,7.7551 L 3.8179,7.7551 L 3.8179,7.8744 L 3.8179,7.8744 L 3.8179,7.8744 L 3.8179,7.8744 L 3.8179,7.8744 L 3.8179,7.8744 L 3.8179,7.8744 L 3.8179,7.8744 L 3.8179,7.8744 L 3.8179,7.8744 L 3.8179,7.8744 L 3.8179,7.8744 L 3.8179,7.8744 L 3.8179,7.8744 L 3.8179,7.8744 L 3.8179,7.8744 L 3.8179,7.9937 L 3.8179,7.9937 L 3.8179,7.9937 L 3.8179,7.9937 L 3.8179,7.9937 L 3.8179,7.9937 L 3.8179,7.9937 L 3.8179,7.9937 L 3.8179,7.9937 L 3.8179,7.9937 L 3.8179,7.9937 L 3.8179,7.9937 L 3.8179,7.9937 L 3.8179,7.9937 L 3.8179,7.9937 L 3.8179,7.9937 L 3.8179,7.9937 L 3.8179,8.1130 L 3.8179,8.1130 L 3.8179,8.1130 L 3.8179,8.1130 L 3.8179,8.1130 L 3.8179,8.2323 L 3.8179,8.2323 L 3.8179,8.2323 L 3.8179,8.2323 L 3.8179,8.2323 L 3.8179,8.2323 L 3.8179,8.3516 L 3.8179,8.3516 L 3.8179,8.3516 L 3.8179,8.3516 L 3.8179,8.3516 L 3.8179,8.3516 L 3.8179,8.4709 L 3.9372,8.4709 L 3.9372,8.4709 L 3.9372,8.4709 L 3.9372,8.4709 L 3.9372,8.4709 L 3.9372,8.4709 L 3.9372,8.4709 L 3.9372,8.4709 L 4.0565,8.4709 L 4.0565,8.4709 L 4.0565,8.5902 L 4.0565,8.5902 L 4.0565,8.5902 L 4.0565,8.5902 L 4.0565,8.5902 L 4.1758,8.5902 L 4.1758,8.5902 L 4.1758,8.5902 L 4.1758,8.5902 L 4.1758,8.5902 L 4.2951,8.5902 L 4.2951,8.5902 L 4.2951,8.5902 L 4.4144,8.5902 L 4.4144,8.5902 L 4.5337,8.5902 L 4.5337,8.5902 L 4.6530,8.5902 L 4.7724,8.5902 L 4.7724,8.5902 L 4.8917,8.5902 L 5.0110,8.5902 L 5.1303,8.5902 L 5.1303,8.5902 L 5.2496,8.5902 L 5.3689,8.5902 L 5.4882,8.5902 L 5.6075,8.5902 L 5.7268,8.5902 L 5.8461,8.5902 L 5.9654,8.5902 L 6.0848,8.5902 L 6.2041,8.5902 L 6.3234,8.5902 L 6.4427,8.5902 L 6.5620,8.5902 L 6.5620,8.7096 L 6.5620,8.8289 L 6.5620,8.9482 L 6.5620,9.0675 L 6.5620,9.1868 L 6.5620,9.1868 L 6.5620,9.3061 L 6.5620,9.4254 L 6.5620,9.5447 L 6.5620,9.6640 L 6.5620,9.7833 L 6.5620,9.9026 L 6.5620,9.9026 L 6.5620,10.0220 L 6.5620,10.1413 L 6.5620,10.2606 L 6.5620,10.2606 L 6.5620,10.3799 L 6.5620,10.4992 L 6.5620,10.4992 L 6.5620,10.6185 L 6.5620,10.6185 L 6.5620,10.7378 L 6.5620,10.7378 L 6.5620,10.7378 L 6.5620,10.8571 L 6.5620,10.8571 L 6.5620,10.8571 L 6.5620,10.8571 L 6.5620,10.8571 L 6.5620,10.9764 L 6.5620,10.9764 L 6.5620,10.9764 L 6.5620,10.9764 L 6.5620,10.9764 L 6.5620,10.9764 L 6.5620,10.9764 L 6.5620,11.0957 L 6.5620,11.0957 L 6.5620,11.0957 L 6.5620,11.0957 L 6.5620,11.0957 L 6.5620,11.0957 L 6.5620,11.2150 L 6.5620,11.2150 L 6.5620,11.2150 L 6.6813,11.2150 L 6.6813,11.2150 L 6.6813,11.2150 L 6.6813,11.3344 L 6.6813,11.3344 L 6.6813,11.3344 L 6.8006,11.3344 L 6.8006,11.3344 L 6.8006,11.3344 L 6.8006,11.3344 L 6.8006,11.3344 L 6.8006,11.3344 L 6.9199,11.3344 L 6.9199,11.3344 L 6.9199,11.3344 L 6.9199,11.3344 L 6.9199,11.3344 L 7.0392,11.4537 L 7.0392,11.4537 L 7.0392,11.4537 L 7.0392,11.4537 L 7.0392,11.4537 L 7.0392,11.4537 L 7.0392,11.4537 L 7.0392,11.4537 L 7.0392,11.4537 L 7.0392,11.4537 L 7.0392,11.4537 L 7.0392,11.4537 L 7.0392,11.4537 L 7.0392,11.4537 L 7.0392,11.4537 L 7.0392,11.4537 L 7.1585,11.4537 L 7.1585,11.4537 L 7.1585,11.4537 L 7.1585,11.4537 L 7.1585,11.4537 L 7.1585,11.4537 L 7.1585,11.4537 L 7.1585,11.4537 L 7.1585,11.4537 L 7.1585,11.4537 L 7.1585,11.4537 L 7.1585,11.4537 L 7.1585,11.4537 L 7.2778,11.4537 L 7.2778,11.4537 L 7.2778,11.4537 L 7.2778,11.4537 L 7.2778,11.3344 L 7.2778,11.3344 L 7.2778,11.3344 L 7.2778,11.3344 L 7.2778,11.3344 L 7.3972,11.3344 L 7.3972,11.3344 L 7.3972,11.3344 L 7.3972,11.3344 L 7.3972,11.3344 L 7.3972,11.3344 L 7.5165,11.3344 L 7.5165,11.3344 L 7.5165,11.3344 L 7.5165,11.2150 L 7.5165,11.2150 L 7.5165,11.2150 L 7.6358,11.2150 L 7.6358,11.2150 L 7.6358,11.2150 L 7.6358,11.0957 L 7.6358,11.0957 L 7.6358,11.0957 L 7.6358,11.0957 L 7.6358,11.0957 L 7.6358,11.0957 L 7.6358,10.9764 L 7.6358,10.9764 L 7.6358,10.9764 L 7.7551,10.9764 L 7.7551,10.9764 L 7.7551,10.9764 L 7.7551,10.9764 L 7.7551,10.8571 L 7.7551,10.8571 L 7.7551,10.8571 L 7.7551,10.8571 L 7.7551,10.8571 L 7.7551,10.7378 L 7.7551,10.7378 L 7.7551,10.7378 L 7.7551,10.6185 L 7.7551,10.6185 L 7.7551,10.4992 L 7.7551,10.4992 L 7.7551,10.3799 L 7.7551,10.3799 L 7.7551,10.2606 L 7.7551,10.1413 L 7.7551,10.1413 L 7.7551,10.0220 L 7.7551,9.9026 L 7.7551,9.7833 L 7.7551,9.6640 L 7.7551,9.6640 L 7.7551,9.5447 L 7.7551,9.4254 L 7.7551,9.3061 L 7.7551,9.1868 L 7.7551,9.0675 L 7.7551,8.9482 L 7.7551,8.8289 L 7.7551,8.7096 L 7.7551,8.5902 L 7.8744,8.5902 L 7.9937,8.5902 L 8.1130,8.5902 L 8.2323,8.5902 L 8.3516,8.5902 L 8.3516,8.5902 L 8.4709,8.5902 L 8.5902,8.5902 L 8.7096,8.5902 L 8.8289,8.5902 L 8.9482,8.5902 L 9.0675,8.5902 L 9.0675,8.5902 L 9.1868,8.5902 L 9.3061,8.5902 L 9.4254,8.5902 L 9.4254,8.5902 L 9.5447,8.5902 L 9.6640,8.5902 L 9.6640,8.5902 L 9.7833,8.5902 L 9.7833,8.5902 L 9.9026,8.5902 L 9.9026,8.5902 L 9.9026,8.5902 L 10.0220,8.5902 L 10.0220,8.5902 L 10.0220,8.5902 L 10.0220,8.5902 L 10.0220,8.5902 L 10.0220,8.5902 L 10.0220,8.5902 L 10.1413,8.5902 L 10.1413,8.5902 L 10.1413,8.5902 L 10.1413,8.4709 L 10.1413,8.4709 L 10.2606,8.4709 L 10.2606,8.4709 L 10.2606,8.4709 L 10.2606,8.4709 L 10.2606,8.4709 L 10.2606,8.4709 L 10.3799,8.4709 L 10.3799,8.4709 L 10.3799,8.4709 L 10.3799,8.3516 L 10.3799,8.3516 L 10.3799,8.3516 L 10.4992,8.3516 L 10.4992,8.3516 L 10.4992,8.3516 L 10.4992,8.2323 L 10.4992,8.2323 L 10.4992,8.2323 L 10.4992,8.2323 L 10.4992,8.2323 L 10.4992,8.2323 L 10.4992,8.1130 L 10.4992,8.1130 L 10.4992,8.1130 L 10.4992,8.1130 L 10.4992,8.1130 L 10.4992,7.9937 L 10.4992,7.9937 L 10.4992,7.9937 L 10.4992,7.9937 L 10.4992,7.9937 L 10.4992,7.9937 L 10.4992,7.9937 L 10.4992,7.9937 L 10.4992,7.9937 L 10.4992,7.9937 L 10.4992,7.9937 L 10.4992,7.9937 L 10.4992,7.9937 L 10.4992,7.9937 L 10.4992,7.9937 L 10.4992,7.9937 L 10.4992,7.9937 L 10.4992,7.8744 L 10.4992,7.8744 L 10.4992,7.8744 L 10.4992,7.8744 L 10.4992,7.8744 L 10.4992,7.8744 L 10.4992,7.8744 L 10.4992,7.8744 L 10.4992,7.8744 L 10.4992,7.8744 L 10.4992,7.8744 L 10.4992,7.8744 L 10.4992,7.8744 L 10.4992,7.8744 L 10.4992,7.8744 L 10.4992,7.8744 L 10.4992,7.7551 L 10.4992,7.7551 L 10.4992,7.7551 L 10.4992,7.7551 L 10.4992,7.7551 L 10.4992,7.6358 L 10.4992,7.6358 L 10.4992,7.6358 L 10.4992,7.6358 L 10.4992,7.6358 L 10.4992,7.6358 L 10.4992,7.5165 L 10.4992,7.5165 L 10.4992,7.5165 L 10.3799,7.5165 L 10.3799,7.5165 L 10.3799,7.5165 L 10.3799,7.3972 L 10.3799,7.3972 L 10.3799,7.3972 L 10.2606,7.3972 L 10.2606,7.3972 L 10.2606,7.3972 L 10.2606,7.3972 L 10.2606,7.3972 L 10.2606,7.3972 L 10.1413,7.3972 L 10.1413,7.3972 L 10.1413,7.3972 L 10.1413,7.2778 L 10.1413,7.2778 L 10.0220,7.2778 L 10.0220,7.2778 L 10.0220,7.2778 L 10.0220,7.2778 L 10.0220,7.2778 L 10.0220,7.2778 L 10.0220,7.2778 L 9.9026,7.2778 L 9.9026,7.2778 L 9.9026,7.2778 L 9.7833,7.2778 L 9.7833,7.2778 L 9.6640,7.2778 L 9.6640,7.2778 L 9.5447,7.2778 L 9.5447,7.2778 L 9.4254,7.2778 L 9.3061,7.2778 L 9.3061,7.2778 L 9.1868,7.2778 L 9.0675,7.2778 L 8.9482,7.2778 L 8.8289,7.2778 L 8.8289,7.2778 L 8.7096,7.2778 L 8.5902,7.2778 L 8.4709,7.2778 L 8.3516,7.2778 L 8.2323,7.2778 L 8.1130,7.2778 L 7.9937,7.2778 L 7.8744,7.2778 L 7.7551,7.2778 L 7.7551,7.2778 L 7.7551,7.2778 L 7.7551,7.2778 L 7.7551,7.2778 L 7.7551,7.1585 L 7.7551,7.1585 L 7.7551,7.0392 L 7.7551,6.9199 L 7.7551,6.9199 L 7.7551,6.8006 L 7.7551,6.6813 L 7.7551,6.5620 L 7.7551,6.4427 L 7.7551,6.3234 L 7.7551,6.2041 L 7.7551,6.0848 L 7.7551,6.0848 L 7.7551,5.9654 L 7.7551,5.8461 L 7.7551,5.7268 L 7.7551,5.6075 L 7.7551,5.4882 L 7.7551,5.3689 L 7.7551,5.3689 L 7.7551,5.2496 L 7.7551,5.1303 L 7.7551,5.1303 L 7.7551,5.0110 L 7.7551,5.0110 L 7.7551,5.0110 L 7.7551,5.0110 L 7.7551,4.8917 L 7.7551,4.8917 L 7.7551,4.8917 L 7.6358,4.8917 L 7.6358,4.8917 L 7.6358,4.8917 L 7.6358,4.7724 L 7.6358,4.7724 L 7.6358,4.7724 L 7.6358,4.7724 L 7.6358,4.7724 L 7.6358,4.7724 L 7.6358,4.7724 L 7.6358,4.7724 L 7.6358,4.6530 L 7.5165,4.6530 L 7.5165,4.6530 L 7.5165,4.6530 L 7.5165,4.6530 L 7.5165,4.6530 L 7.5165,4.6530 L 7.3972,4.6530 L 7.3972,4.6530 L 7.3972,4.6530 L 7.3972,4.6530 L 7.3972,4.6530 L 7.3972,4.6530 L 7.2778,4.6530 L 7.2778,4.6530 L 7.2778,4.6530 L 7.2778,4.6530 L 7.2778,4.6530 L 7.2778,4.6530 L 7.2778,4.6530 L 7.2778,4.6530 L 7.2778,4.6530 L 7.1585,4.6530 L 7.1585,4.6530 L 7.1585,4.6530 L 7.1585,4.6530 L 7.1585,4.6530 L 7.1585,4.6530 L 7.1585,4.6530 L 7.1585,4.6530 L 7.1585,4.6530 L 7.1585,4.6530 L 7.1585,4.6530 L 7.1585,4.6530 L 7.1585,4.6530 L 7.0392,4.6530 L 7.0392,4.6530 L 7.0392,4.6530 L 7.0392,4.6530 L 7.0392,4.6530 L 7.0392,4.6530 L 7.0392,4.6530 L 7.0392,4.6530 L 7.0392,4.6530 L 7.0392,4.6530 L 7.0392,4.6530 L 7.0392,4.6530 L 7.0392,4.6530 L 7.0392,4.6530 L 7.0392,4.6530 L 7.0392,4.6530 L 6.9199,4.6530 L 6.9199,4.6530 L 6.9199,4.6530 L 6.9199,4.6530 L 6.9199,4.6530 L 6.8006,4.6530 L 6.8006,4.6530 L 6.8006,4.6530 L 6.8006,4.6530 L 6.8006,4.6530 L 6.8006,4.6530 L 6.6813,4.6530 L 6.6813,4.6530 L 6.6813,4.6530 L 6.6813,4.6530 L 6.6813,4.6530 L 6.6813,4.6530 L 6.5620,4.6530 L 6.5620,4.7724 L 6.5620,4.7724 L 6.5620,4.7724 L 6.5620,4.7724 L 6.5620,4.7724 L 6.5620,4.7724 L 6.5620,4.7724 L 6.5620,4.7724 L 6.5620,4.8917 L 6.5620,4.8917 L 6.5620,4.8917 L 6.5620,4.8917 L 6.5620,4.8917 L 6.5620,4.8917 L 6.5620,5.0110 L 6.5620,5.0110 L 6.5620,5.0110 L 6.5620,5.0110 L 6.5620,5.0110 L 6.5620,5.0110 L 6.5620,5.1303 L 6.5620,5.1303 L 6.5620,5.1303 L 6.5620,5.2496 L 6.5620,5.2496 L 6.5620,5.3689 L 6.5620,5.3689 L 6.5620,5.4882 L 6.5620,5.6075 L 6.5620,5.6075 L 6.5620,5.7268 L 6.5620,5.8461 L 6.5620,5.9654 L 6.5620,5.9654 L 6.5620,6.0848 L 6.5620,6.2041 L 6.5620,6.3234 L 6.5620,6.4427 L 6.5620,6.5620 L 6.5620,6.6813 L 6.5620,6.6813 L 6.5620,6.8006 L 6.5620,6.9199 L 6.5620,7.0392 L 6.5620,7.1585 L 6.5620,7.2778 L 6.4427,7.2778 L 6.4427,7.2778 L 6.4427,7.2778 L 6.4427,7.2778 L 6.3234,7.2778 L 6.3234,7.2778 L 6.2041,7.2778 L 6.0848,7.2778 L 6.0848,7.2778 L 5.9654,7.2778 L 5.8461,7.2778 L 5.7268,7.2778 L 5.6075,7.2778 L 5.4882,7.2778 L 5.3689,7.2778 L 5.2496,7.2778 L 5.2496,7.2778 L 5.1303,7.2778 L 5.0110,7.2778 L 4.8917,7.2778 L 4.7724,7.2778 L 4.6530,7.2778 L 4.5337,7.2778 L 4.5337,7.2778 L 4.4144,7.2778 L 4.2951,7.2778 L 4.2951,7.2778 L 4.1758,7.2778 L 4.1758,7.2778 L 4.1758,7.2778 L 4.1758,7.2778 L 4.0565,7.2778 Z" stroke="#161616" stroke-width="0.1193" stroke-linecap="round" stroke-linejoin="round" fill="#494949"/>
          <path d="M 3.5793,7.7551 L 3.5793,7.7551 L 3.5793,7.7551 L 3.5793,7.7551 L 3.5793,7.7551 L 3.5793,7.7551 L 3.5793,7.7551 L 3.5793,7.7551 L 3.5793,7.7551 L 3.5793,7.7551 L 3.5793,7.7551 L 3.5793,7.7551 L 3.5793,7.7551 L 3.5793,7.7551 L 3.5793,7.7551 L 3.5793,7.7551 L 3.5793,7.7551 L 3.5793,7.8744 L 3.5793,7.8744 L 3.5793,7.8744 L 3.5793,7.8744 L 3.5793,7.8744 L 3.5793,7.8744 L 3.5793,7.8744 L 3.5793,7.8744 L 3.5793,7.8744 L 3.5793,7.8744 L 3.5793,7.8744 L 3.5793,7.8744 L 3.5793,7.8744 L 3.5793,7.8744 L 3.5793,7.8744 L 3.5793,7.8744 L 3.5793,7.8744 L 3.5793,7.8744 L 3.5793,7.8744 L 3.5793,7.9937 L 3.5793,7.9937 L 3.5793,7.9937 L 3.5793,7.9937 L 3.5793,7.9937 L 3.5793,7.9937 L 3.5793,7.9937 L 3.5793,7.9937 L 3.5793,7.9937 L 3.5793,7.9937 L 3.5793,7.9937 L 3.5793,7.9937 L 3.5793,7.9937 L 3.5793,8.1130 L 3.5793,8.1130 L 3.5793,8.1130 L 3.5793,8.1130 L 3.5793,8.1130 L 3.5793,8.1130 L 3.5793,8.1130 L 3.5793,8.1130 L 3.5793,8.1130 L 3.5793,8.1130 L 3.5793,8.1130 L 3.5793,8.1130 L 3.5793,8.1130 L 3.5793,8.1130 L 3.5793,8.1130 L 3.5793,8.1130 L 3.5793,8.2323 L 3.5793,8.2323 L 3.6986,8.2323 L 3.6986,8.2323 L 3.6986,8.2323 L 3.6986,8.3516 L 3.6986,8.3516 L 3.6986,8.3516 L 3.6986,8.3516 L 3.6986,8.3516 L 3.6986,8.3516 L 3.6986,8.3516 L 3.6986,8.3516 L 3.6986,8.4709 L 3.8179,8.4709 L 3.8179,8.4709 L 3.8179,8.4709 L 3.8179,8.4709 L 3.8179,8.4709 L 3.8179,8.4709 L 3.9372,8.4709 L 3.9372,8.4709 L 3.9372,8.4709 L 3.9372,8.4709 L 3.9372,8.4709 L 3.9372,8.4709 L 4.0565,8.4709 L 4.0565,8.5902 L 4.0565,8.5902 L 4.0565,8.5902 L 4.0565,8.5902 L 4.0565,8.5902 L 4.0565,8.5902 L 4.1758,8.5902 L 4.1758,8.5902 L 4.1758,8.5902 L 4.1758,8.5902 L 4.1758,8.5902 L 4.2951,8.5902 L 4.2951,8.5902 L 4.2951,8.5902 L 4.4144,8.5902 L 4.4144,8.5902 L 4.5337,8.5902 L 4.5337,8.5902 L 4.6530,8.5902 L 4.7724,8.5902 L 4.7724,8.5902 L 4.8917,8.5902 L 5.0110,8.5902 L 5.1303,8.5902 L 5.1303,8.5902 L 5.2496,8.5902 L 5.3689,8.5902 L 5.4882,8.5902 L 5.6075,8.5902 L 5.7268,8.5902 L 5.8461,8.5902 L 5.9654,8.5902 L 6.0848,8.5902 L 6.2041,8.5902 L 6.3234,8.5902 L 6.4427,8.5902 L 6.5620,8.5902 L 6.5620,8.7096 L 6.5620,8.8289 L 6.5620,8.9482 L 6.5620,9.0675 L 6.5620,9.1868 L 6.5620,9.3061 L 6.5620,9.4254 L 6.5620,9.5447 L 6.5620,9.6640 L 6.5620,9.7833 L 6.5620,9.9026 L 6.5620,10.0220 L 6.5620,10.1413 L 6.5620,10.1413 L 6.5620,10.2606 L 6.5620,10.3799 L 6.5620,10.4992 L 6.5620,10.4992 L 6.5620,10.6185 L 6.5620,10.7378 L 6.5620,10.7378 L 6.5620,10.8571 L 6.5620,10.8571 L 6.5620,10.9764 L 6.5620,10.9764 L 6.5620,10.9764 L 6.5620,11.0957 L 6.5620,11.0957 L 6.5620,11.0957 L 6.5620,11.0957 L 6.5620,11.0957 L 6.5620,11.0957 L 6.5620,11.2150 L 6.5620,11.2150 L 6.5620,11.2150 L 6.5620,11.2150 L 6.5620,11.2150 L 6.5620,11.2150 L 6.5620,11.3344 L 6.5620,11.3344 L 6.5620,11.3344 L 6.5620,11.3344 L 6.5620,11.3344 L 6.5620,11.3344 L 6.5620,11.3344 L 6.5620,11.4537 L 6.6813,11.4537 L 6.6813,11.4537 L 6.6813,11.4537 L 6.6813,11.4537 L 6.6813,11.4537 L 6.6813,11.4537 L 6.8006,11.4537 L 6.8006,11.4537 L 6.8006,11.4537 L 6.8006,11.4537 L 6.8006,11.4537 L 6.8006,11.4537 L 6.9199,11.4537 L 6.9199,11.4537 L 6.9199,11.4537 L 6.9199,11.5730 L 6.9199,11.5730 L 7.0392,11.5730 L 7.0392,11.5730 L 7.0392,11.5730 L 7.0392,11.5730 L 7.0392,11.5730 L 7.0392,11.5730 L 7.0392,11.5730 L 7.0392,11.5730 L 7.0392,11.5730 L 7.0392,11.5730 L 7.0392,11.5730 L 7.0392,11.5730 L 7.0392,11.5730 L 7.0392,11.5730 L 7.0392,11.5730 L 7.0392,11.5730 L 7.1585,11.5730 L 7.1585,11.5730 L 7.1585,11.5730 L 7.1585,11.5730 L 7.1585,11.5730 L 7.1585,11.5730 L 7.1585,11.5730 L 7.1585,11.5730 L 7.1585,11.5730 L 7.1585,11.5730 L 7.1585,11.5730 L 7.1585,11.5730 L 7.1585,11.5730 L 7.2778,11.5730 L 7.2778,11.5730 L 7.2778,11.5730 L 7.2778,11.5730 " stroke="#BFBFBF" stroke-width="0.1193" stroke-linecap="round" stroke-linejoin="round" fill="none"/>
          <path d="M 6.5620,4.7724 L 6.5620,4.7724 L 6.5620,4.8917 L 6.5620,4.8917 L 6.5620,4.8917 L 6.5620,4.8917 L 6.5620,4.8917 L 6.5620,5.0110 L 6.5620,5.0110 L 6.5620,5.0110 L 6.5620,5.1303 L 6.5620,5.1303 L 6.5620,5.2496 L 6.5620,5.2496 L 6.5620,5.3689 L 6.5620,5.3689 L 6.5620,5.4882 L 6.5620,5.6075 L 6.5620,5.7268 L 6.5620,5.7268 L 6.5620,5.8461 L 6.5620,5.9654 L 6.5620,6.0848 L 6.5620,6.2041 L 6.5620,6.3234 L 6.5620,6.4427 L 6.5620,6.5620 L 6.5620,6.6813 L 6.5620,6.8006 L 6.5620,6.9199 L 6.5620,7.0392 L 6.5620,7.1585 L 6.5620,7.2778 " stroke="#BFBFBF" stroke-width="0.1193" stroke-linecap="round" stroke-linejoin="round" fill="none"/>
        </g>
        <g transform="matrix(1.0000 0.0000 0.0000 1.0000 0.0000 0.0000)">
</g>
        <g transform="matrix(1.0000 0.0000 0.0000 1.0000 0.0000 0.0000)">
</g>
        <g transform="matrix(0.0000 1.0000 -1.0000 0.0000 21.8335 -7.0392)">
</g>
        <g transform="matrix(0.0000 1.0000 -1.0000 0.0000 21.8335 -7.0392)">
</g>
        <g transform="matrix(0.0000 0.6923 -0.6997 0.0000 6.8678 0.2232)">
</g>
        <g transform="matrix(0.0000 0.6923 -0.6997 0.0000 6.8678 0.2232)">
</g>
        <g transform="matrix(0.0000 0.6923 -0.6997 0.0000 6.8678 0.2232)">
</g>
        <g transform="matrix(0.0000 0.6923 -0.6997 0.0000 6.8678 0.2232)">
</g>
        <g transform="matrix(0.0000 0.6923 -0.6997 0.0000 6.8678 0.2232)">
</g>
        <g transform="matrix(0.0000 0.6923 -0.6997 0.0000 6.8678 0.2232)">
</g>
        <g transform="matrix(0.0000 29.7685 -30.0850 0.0000 6.8678 0.2232)">
</g>
        <g transform="matrix(0.0000 29.7685 -30.0850 0.0000 6.8678 0.2232)">
</g>
        <g transform="matrix(0.0000 0.3236 -0.3270 0.0000 6.8678 0.2232)">
</g>
        <g transform="matrix(0.0000 0.3236 -0.3270 0.0000 6.8678 0.2232)">
</g>
        <g transform="matrix(0.0000 0.3236 -0.3270 0.0000 7.6481 -0.2786)">
</g>
        <g transform="matrix(0.0000 0.3236 -0.3270 0.0000 7.6481 -0.2786)">
          <ellipse cx="6.9796" cy="7.7551" rx="5.3092" ry="5.3689" fill="#C0C0C0" stroke="#000000" stroke-width="0.1193" stroke-linecap="round" stroke-linejoin="round"/>
          <ellipse cx="6.9796" cy="7.7551" rx="3.9968" ry="4.0565" fill="#666666" stroke="#000000" stroke-width="0.1193" stroke-linecap="round" stroke-linejoin="round"/>
          <ellipse cx="7.0392" cy="7.7551" rx="3.6986" ry="3.6986" fill="#E5E5E5" stroke="#E5E5E5" stroke-width="0.1193" stroke-linecap="round" stroke-linejoin="round"/>
          <path d="M 4.0565,7.2778 L 4.0565,7.2778 L 4.0565,7.2778 L 4.0565,7.3972 L 4.0565,7.3972 L 4.0565,7.3972 L 3.9372,7.3972 L 3.9372,7.3972 L 3.9372,7.3972 L 3.9372,7.3972 L 3.9372,7.3972 L 3.9372,7.3972 L 3.9372,7.3972 L 3.9372,7.3972 L 3.8179,7.3972 L 3.8179,7.5165 L 3.8179,7.5165 L 3.8179,7.5165 L 3.8179,7.5165 L 3.8179,7.5165 L 3.8179,7.5165 L 3.8179,7.6358 L 3.8179,7.6358 L 3.8179,7.6358 L 3.8179,7.6358 L 3.8179,7.6358 L 3.8179,7.6358 L 3.8179,7.7551 L 3.8179,7.7551 L 3.8179,7.7551 L 3.8179,7.7551 L 3.8179,7.7551 L 3.8179,7.8744 L 3.8179,7.8744 L 3.8179,7.8744 L 3.8179,7.8744 L 3.8179,7.8744 L 3.8179,7.8744 L 3.8179,7.8744 L 3.8179,7.8744 L 3.8179,7.8744 L 3.8179,7.8744 L 3.8179,7.8744 L 3.8179,7.8744 L 3.8179,7.8744 L 3.8179,7.8744 L 3.8179,7.8744 L 3.8179,7.8744 L 3.8179,7.9937 L 3.8179,7.9937 L 3.8179,7.9937 L 3.8179,7.9937 L 3.8179,7.9937 L 3.8179,7.9937 L 3.8179,7.9937 L 3.8179,7.9937 L 3.8179,7.9937 L 3.8179,7.9937 L 3.8179,7.9937 L 3.8179,7.9937 L 3.8179,7.9937 L 3.8179,7.9937 L 3.8179,7.9937 L 3.8179,7.9937 L 3.8179,7.9937 L 3.8179,8.1130 L 3.8179,8.1130 L 3.8179,8.1130 L 3.8179,8.1130 L 3.8179,8.1130 L 3.8179,8.2323 L 3.8179,8.2323 L 3.8179,8.2323 L 3.8179,8.2323 L 3.8179,8.2323 L 3.8179,8.2323 L 3.8179,8.3516 L 3.8179,8.3516 L 3.8179,8.3516 L 3.8179,8.3516 L 3.8179,8.3516 L 3.8179,8.3516 L 3.8179,8.4709 L 3.9372,8.4709 L 3.9372,8.4709 L 3.9372,8.4709 L 3.9372,8.4709 L 3.9372,8.4709 L 3.9372,8.4709 L 3.9372,8.4709 L 3.9372,8.4709 L 4.0565,8.4709 L 4.0565,8.4709 L 4.0565,8.5902 L 4.0565,8.5902 L 4.0565,8.5902 L 4.0565,8.5902 L 4.0565,8.5902 L 4.1758,8.5902 L 4.1758,8.5902 L 4.1758,8.5902 L 4.1758,8.5902 L 4.1758,8.5902 L 4.2951,8.5902 L 4.2951,8.5902 L 4.2951,8.5902 L 4.4144,8.5902 L 4.4144,8.5902 L 4.5337,8.5902 L 4.5337,8.5902 L 4.6530,8.5902 L 4.7724,8.5902 L 4.7724,8.5902 L 4.8917,8.5902 L 5.0110,8.5902 L 5.1303,8.5902 L 5.1303,8.5902 L 5.2496,8.5902 L 5.3689,8.5902 L 5.4882,8.5902 L 5.6075,8.5902 L 5.7268,8.5902 L 5.8461,8.5902 L 5.9654,8.5902 L 6.0848,8.5902 L 6.2041,8.5902 L 6.3234,8.5902 L 6.4427,8.5902 L 6.5620,8.5902 L 6.5620,8.7096 L 6.5620,8.8289 L 6.5620,8.9482 L 6.5620,9.0675 L 6.5620,9.1868 L 6.5620,9.1868 L 6.5620,9.3061 L 6.5620,9.4254 L 6.5620,9.5447 L 6.5620,9.6640 L 6.5620,9.7833 L 6.5620,9.9026 L 6.5620,9.9026 L 6.5620,10.0220 L 6.5620,10.1413 L 6.5620,10.2606 L 6.5620,10.2606 L 6.5620,10.3799 L 6.5620,10.4992 L 6.5620,10.4992 L 6.5620,10.6185 L 6.5620,10.6185 L 6.5620,10.7378 L 6.5620,10.7378 L 6.5620,10.7378 L 6.5620,10.8571 L 6.5620,10.8571 L 6.5620,10.8571 L 6.5620,10.8571 L 6.5620,10.8571 L 6.5620,10.9764 L 6.5620,10.9764 L 6.5620,10.9764 L 6.5620,10.9764 L 6.5620,10.9764 L 6.5620,10.9764 L 6.5620,10.9764 L 6.5620,11.0957 L 6.5620,11.0957 L 6.5620,11.0957 L 6.5620,11.0957 L 6.5620,11.0957 L 6.5620,11.0957 L 6.5620,11.2150 L 6.5620,11.2150 L 6.5620,11.2150 L 6.6813,11.2150 L 6.6813,11.2150 L 6.6813,11.2150 L 6.6813,11.3344 L 6.6813,11.3344 L 6.6813,11.3344 L 6.8006,11.3344 L 6.8006,11.3344 L 6.8006,11.3344 L 6.8006,11.3344 L 6.8006,11.3344 L 6.8006,11.3344 L 6.9199,11.3344 L 6.9199,11.3344 L 6.9199,11.3344 L 6.9199,11.3344 L 6.9199,11.3344 L 7.0392,11.4537 L 7.0392,11.4537 L 7.0392,11.4537 L 7.0392,11.4537 L 7.0392,11.4537 L 7.0392,11.4537 L 7.0392,11.4537 L 7.0392,11.4537 L 7.0392,11.4537 L 7.0392,11.4537 L 7.0392,11.4537 L 7.0392,11.4537 L 7.0392,11.4537 L 7.0392,11.4537 L 7.0392,11.4537 L 7.0392,11.4537 L 7.1585,11.4537 L 7.1585,11.4537 L 7.1585,11.4537 L 7.1585,11.4537 L 7.1585,11.4537 L 7.1585,11.4537 L 7.1585,11.4537 L 7.1585,11.4537 L 7.1585,11.4537 L 7.1585,11.4537 L 7.1585,11.4537 L 7.1585,11.4537 L 7.1585,11.4537 L 7.2778,11.4537 L 7.2778,11.4537 L 7.2778,11.4537 L 7.2778,11.4537 L 7.2778,11.3344 L 7.2778,11.3344 L 7.2778,11.3344 L 7.2778,11.3344 L 7.2778,11.3344 L 7.3972,11.3344 L 7.3972,11.3344 L 7.3972,11.3344 L 7.3972,11.3344 L 7.3972,11.3344 L 7.3972,11.3344 L 7.5165,11.3344 L 7.5165,11.3344 L 7.5165,11.3344 L 7.5165,11.2150 L 7.5165,11.2150 L 7.5165,11.2150 L 7.6358,11.2150 L 7.6358,11.2150 L 7.6358,11.2150 L 7.6358,11.0957 L 7.6358,11.0957 L 7.6358,11.0957 L 7.6358,11.0957 L 7.6358,11.0957 L 7.6358,11.0957 L 7.6358,10.9764 L 7.6358,10.9764 L 7.6358,10.9764 L 7.7551,10.9764 L 7.7551,10.9764 L 7.7551,10.9764 L 7.7551,10.9764 L 7.7551,10.8571 L 7.7551,10.8571 L 7.7551,10.8571 L 7.7551,10.8571 L 7.7551,10.8571 L 7.7551,10.7378 L 7.7551,10.7378 L 7.7551,10.7378 L 7.7551,10.6185 L 7.7551,10.6185 L 7.7551,10.4992 L 7.7551,10.4992 L 7.7551,10.3799 L 7.7551,10.3799 L 7.7551,10.2606 L 7.7551,10.1413 L 7.7551,10.1413 L 7.7551,10.0220 L 7.7551,9.9026 L 7.7551,9.7833 L 7.7551,9.6640 L 7.7551,9.6640 L 7.7551,9.5447 L 7.7551,9.4254 L 7.7551,9.3061 L 7.7551,9.1868 L 7.7551,9.0675 L 7.7551,8.9482 L 7.7551,8.8289 L 7.7551,8.7096 L 7.7551,8.5902 L 7.8744,8.5902 L 7.9937,8.5902 L 8.1130,8.5902 L 8.2323,8.5902 L 8.3516,8.5902 L 8.3516,8.5902 L 8.4709,8.5902 L 8.5902,8.5902 L 8.7096,8.5902 L 8.8289,8.5902 L 8.9482,8.5902 L 9.0675,8.5902 L 9.0675,8.5902 L 9.1868,8.5902 L 9.3061,8.5902 L 9.4254,8.5902 L 9.4254,8.5902 L 9.5447,8.5902 L 9.6640,8.5902 L 9.6640,8.5902 L 9.7833,8.5902 L 9.7833,8.5902 L 9.9026,8.5902 L 9.9026,8.5902 L 9.9026,8.5902 L 10.0220,8.5902 L 10.0220,8.5902 L 10.0220,8.5902 L 10.0220,8.5902 L 10.0220,8.5902 L 10.0220,8.5902 L 10.0220,8.5902 L 10.1413,8.5902 L 10.1413,8.5902 L 10.1413,8.5902 L 10.1413,8.4709 L 10.1413,8.4709 L 10.2606,8.4709 L 10.2606,8.4709 L 10.2606,8.4709 L 10.2606,8.4709 L 10.2606,8.4709 L 10.2606,8.4709 L 10.3799,8.4709 L 10.3799,8.4709 L 10.3799,8.4709 L 10.3799,8.3516 L 10.3799,8.3516 L 10.3799,8.3516 L 10.4992,8.3516 L 10.4992,8.3516 L 10.4992,8.3516 L 10.4992,8.2323 L 10.4992,8.2323 L 10.4992,8.2323 L 10.4992,8.2323 L 10.4992,8.2323 L 10.4992,8.2323 L 10.4992,8.1130 L 10.4992,8.1130 L 10.4992,8.1130 L 10.4992,8.1130 L 10.4992,8.1130 L 10.4992,7.9937 L 10.4992,7.9937 L 10.4992,7.9937 L 10.4992,7.9937 L 10.4992,7.9937 L 10.4992,7.9937 L 10.4992,7.9937 L 10.4992,7.9937 L 10.4992,7.9937 L 10.4992,7.9937 L 10.4992,7.9937 L 10.4992,7.9937 L 10.4992,7.9937 L 10.4992,7.9937 L 10.4992,7.9937 L 10.4992,7.9937 L 10.4992,7.9937 L 10.4992,7.8744 L 10.4992,7.8744 L 10.4992,7.8744 L 10.4992,7.8744 L 10.4992,7.8744 L 10.4992,7.8744 L 10.4992,7.8744 L 10.4992,7.8744 L 10.4992,7.8744 L 10.4992,7.8744 L 10.4992,7.8744 L 10.4992,7.8744 L 10.4992,7.8744 L 10.4992,7.8744 L 10.4992,7.8744 L 10.4992,7.8744 L 10.4992,7.7551 L 10.4992,7.7551 L 10.4992,7.7551 L 10.4992,7.7551 L 10.4992,7.7551 L 10.4992,7.6358 L 10.4992,7.6358 L 10.4992,7.6358 L 10.4992,7.6358 L 10.4992,7.6358 L 10.4992,7.6358 L 10.4992,7.5165 L 10.4992,7.5165 L 10.4992,7.5165 L 10.3799,7.5165 L 10.3799,7.5165 L 10.3799,7.5165 L 10.3799,7.3972 L 10.3799,7.3972 L 10.3799,7.3972 L 10.2606,7.3972 L 10.2606,7.3972 L 10.2606,7.3972 L 10.2606,7.3972 L 10.2606,7.3972 L 10.2606,7.3972 L 10.1413,7.3972 L 10.1413,7.3972 L 10.1413,7.3972 L 10.1413,7.2778 L 10.1413,7.2778 L 10.0220,7.2778 L 10.0220,7.2778 L 10.0220,7.2778 L 10.0220,7.2778 L 10.0220,7.2778 L 10.0220,7.2778 L 10.0220,7.2778 L 9.9026,7.2778 L 9.9026,7.2778 L 9.9026,7.2778 L 9.7833,7.2778 L 9.7833,7.2778 L 9.6640,7.2778 L 9.6640,7.2778 L 9.5447,7.2778 L 9.5447,7.2778 L 9.4254,7.2778 L 9.3061,7.2778 L 9.3061,7.2778 L 9.1868,7.2778 L 9.0675,7.2778 L 8.9482,7.2778 L 8.8289,7.2778 L 8.8289,7.2778 L 8.7096,7.2778 L 8.5902,7.2778 L 8.4709,7.2778 L 8.3516,7.2778 L 8.2323,7.2778 L 8.1130,7.2778 L 7.9937,7.2778 L 7.8744,7.2778 L 7.7551,7.2778 L 7.7551,7.2778 L 7.7551,7.2778 L 7.7551,7.2778 L 7.7551,7.2778 L 7.7551,7.1585 L 7.7551,7.1585 L 7.7551,7.0392 L 7.7551,6.9199 L 7.7551,6.9199 L 7.7551,6.8006 L 7.7551,6.6813 L 7.7551,6.5620 L 7.7551,6.4427 L 7.7551,6.3234 L 7.7551,6.2041 L 7.7551,6.0848 L 7.7551,6.0848 L 7.7551,5.9654 L 7.7551,5.8461 L 7.7551,5.7268 L 7.7551,5.6075 L 7.7551,5.4882 L 7.7551,5.3689 L 7.7551,5.3689 L 7.7551,5.2496 L 7.7551,5.1303 L 7.7551,5.1303 L 7.7551,5.0110 L 7.7551,5.0110 L 7.7551,5.0110 L 7.7551,5.0110 L 7.7551,4.8917 L 7.7551,4.8917 L 7.7551,4.8917 L 7.6358,4.8917 L 7.6358,4.8917 L 7.6358,4.8917 L 7.6358,4.7724 L 7.6358,4.7724 L 7.6358,4.7724 L 7.6358,4.7724 L 7.6358,4.7724 L 7.6358,4.7724 L 7.6358,4.7724 L 7.6358,4.7724 L 7.6358,4.6530 L 7.5165,4.6530 L 7.5165,4.6530 L 7.5165,4.6530 L 7.5165,4.6530 L 7.5165,4.6530 L 7.5165,4.6530 L 7.3972,4.6530 L 7.3972,4.6530 L 7.3972,4.6530 L 7.3972,4.6530 L 7.3972,4.6530 L 7.3972,4.6530 L 7.2778,4.6530 L 7.2778,4.6530 L 7.2778,4.6530 L 7.2778,4.6530 L 7.2778,4.6530 L 7.2778,4.6530 L 7.2778,4.6530 L 7.2778,4.6530 L 7.2778,4.6530 L 7.1585,4.6530 L 7.1585,4.6530 L 7.1585,4.6530 L 7.1585,4.6530 L 7.1585,4.6530 L 7.1585,4.6530 L 7.1585,4.6530 L 7.1585,4.6530 L 7.1585,4.6530 L 7.1585,4.6530 L 7.1585,4.6530 L 7.1585,4.6530 L 7.1585,4.6530 L 7.0392,4.6530 L 7.0392,4.6530 L 7.0392,4.6530 L 7.0392,4.6530 L 7.0392,4.6530 L 7.0392,4.6530 L 7.0392,4.6530 L 7.0392,4.6530 L 7.0392,4.6530 L 7.0392,4.6530 L 7.0392,4.6530 L 7.0392,4.6530 L 7.0392,4.6530 L 7.0392,4.6530 L 7.0392,4.6530 L 7.0392,4.6530 L 6.9199,4.6530 L 6.9199,4.6530 L 6.9199,4.6530 L 6.9199,4.6530 L 6.9199,4.6530 L 6.8006,4.6530 L 6.8006,4.6530 L 6.8006,4.6530 L 6.8006,4.6530 L 6.8006,4.6530 L 6.8006,4.6530 L 6.6813,4.6530 L 6.6813,4.6530 L 6.6813,4.6530 L 6.6813,4.6530 L 6.6813,4.6530 L 6.6813,4.6530 L 6.5620,4.6530 L 6.5620,4.7724 L 6.5620,4.7724 L 6.5620,4.7724 L 6.5620,4.7724 L 6.5620,4.7724 L 6.5620,4.7724 L 6.5620,4.7724 L 6.5620,4.7724 L 6.5620,4.8917 L 6.5620,4.8917 L 6.5620,4.8917 L 6.5620,4.8917 L 6.5620,4.8917 L 6.5620,4.8917 L 6.5620,5.0110 L 6.5620,5.0110 L 6.5620,5.0110 L 6.5620,5.0110 L 6.5620,5.0110 L 6.5620,5.0110 L 6.5620,5.1303 L 6.5620,5.1303 L 6.5620,5.1303 L 6.5620,5.2496 L 6.5620,5.2496 L 6.5620,5.3689 L 6.5620,5.3689 L 6.5620,5.4882 L 6.5620,5.6075 L 6.5620,5.6075 L 6.5620,5.7268 L 6.5620,5.8461 L 6.5620,5.9654 L 6.5620,5.9654 L 6.5620,6.0848 L 6.5620,6.2041 L 6.5620,6.3234 L 6.5620,6.4427 L 6.5620,6.5620 L 6.5620,6.6813 L 6.5620,6.6813 L 6.5620,6.8006 L 6.5620,6.9199 L 6.5620,7.0392 L 6.5620,7.1585 L 6.5620,7.2778 L 6.4427,7.2778 L 6.4427,7.2778 L 6.4427,7.2778 L 6.4427,7.2778 L 6.3234,7.2778 L 6.3234,7.2778 L 6.2041,7.2778 L 6.0848,7.2778 L 6.0848,7.2778 L 5.9654,7.2778 L 5.8461,7.2778 L 5.7268,7.2778 L 5.6075,7.2778 L 5.4882,7.2778 L 5.3689,7.2778 L 5.2496,7.2778 L 5.2496,7.2778 L 5.1303,7.2778 L 5.0110,7.2778 L 4.8917,7.2778 L 4.7724,7.2778 L 4.6530,7.2778 L 4.5337,7.2778 L 4.5337,7.2778 L 4.4144,7.2778 L 4.2951,7.2778 L 4.2951,7.2778 L 4.1758,7.2778 L 4.1758,7.2778 L 4.1758,7.2778 L 4.1758,7.2778 L 4.0565,7.2778 Z" stroke="#161616" stroke-width="0.1193" stroke-linecap="round" stroke-linejoin="round" fill="#494949"/>
          <path d="M 3.5793,7.7551 L 3.5793,7.7551 L 3.5793,7.7551 L 3.5793,7.7551 L 3.5793,7.7551 L 3.5793,7.7551 L 3.5793,7.7551 L 3.5793,7.7551 L 3.5793,7.7551 L 3.5793,7.7551 L 3.5793,7.7551 L 3.5793,7.7551 L 3.5793,7.7551 L 3.5793,7.7551 L 3.5793,7.7551 L 3.5793,7.7551 L 3.5793,7.7551 L 3.5793,7.8744 L 3.5793,7.8744 L 3.5793,7.8744 L 3.5793,7.8744 L 3.5793,7.8744 L 3.5793,7.8744 L 3.5793,7.8744 L 3.5793,7.8744 L 3.5793,7.8744 L 3.5793,7.8744 L 3.5793,7.8744 L 3.5793,7.8744 L 3.5793,7.8744 L 3.5793,7.8744 L 3.5793,7.8744 L 3.5793,7.8744 L 3.5793,7.8744 L 3.5793,7.8744 L 3.5793,7.8744 L 3.5793,7.9937 L 3.5793,7.9937 L 3.5793,7.9937 L 3.5793,7.9937 L 3.5793,7.9937 L 3.5793,7.9937 L 3.5793,7.9937 L 3.5793,7.9937 L 3.5793,7.9937 L 3.5793,7.9937 L 3.5793,7.9937 L 3.5793,7.9937 L 3.5793,7.9937 L 3.5793,8.1130 L 3.5793,8.1130 L 3.5793,8.1130 L 3.5793,8.1130 L 3.5793,8.1130 L 3.5793,8.1130 L 3.5793,8.1130 L 3.5793,8.1130 L 3.5793,8.1130 L 3.5793,8.1130 L 3.5793,8.1130 L 3.5793,8.1130 L 3.5793,8.1130 L 3.5793,8.1130 L 3.5793,8.1130 L 3.5793,8.1130 L 3.5793,8.2323 L 3.5793,8.2323 L 3.6986,8.2323 L 3.6986,8.2323 L 3.6986,8.2323 L 3.6986,8.3516 L 3.6986,8.3516 L 3.6986,8.3516 L 3.6986,8.3516 L 3.6986,8.3516 L 3.6986,8.3516 L 3.6986,8.3516 L 3.6986,8.3516 L 3.6986,8.4709 L 3.8179,8.4709 L 3.8179,8.4709 L 3.8179,8.4709 L 3.8179,8.4709 L 3.8179,8.4709 L 3.8179,8.4709 L 3.9372,8.4709 L 3.9372,8.4709 L 3.9372,8.4709 L 3.9372,8.4709 L 3.9372,8.4709 L 3.9372,8.4709 L 4.0565,8.4709 L 4.0565,8.5902 L 4.0565,8.5902 L 4.0565,8.5902 L 4.0565,8.5902 L 4.0565,8.5902 L 4.0565,8.5902 L 4.1758,8.5902 L 4.1758,8.5902 L 4.1758,8.5902 L 4.1758,8.5902 L 4.1758,8.5902 L 4.2951,8.5902 L 4.2951,8.5902 L 4.2951,8.5902 L 4.4144,8.5902 L 4.4144,8.5902 L 4.5337,8.5902 L 4.5337,8.5902 L 4.6530,8.5902 L 4.7724,8.5902 L 4.7724,8.5902 L 4.8917,8.5902 L 5.0110,8.5902 L 5.1303,8.5902 L 5.1303,8.5902 L 5.2496,8.5902 L 5.3689,8.5902 L 5.4882,8.5902 L 5.6075,8.5902 L 5.7268,8.5902 L 5.8461,8.5902 L 5.9654,8.5902 L 6.0848,8.5902 L 6.2041,8.5902 L 6.3234,8.5902 L 6.4427,8.5902 L 6.5620,8.5902 L 6.5620,8.7096 L 6.5620,8.8289 L 6.5620,8.9482 L 6.5620,9.0675 L 6.5620,9.1868 L 6.5620,9.3061 L 6.5620,9.4254 L 6.5620,9.5447 L 6.5620,9.6640 L 6.5620,9.7833 L 6.5620,9.9026 L 6.5620,10.0220 L 6.5620,10.1413 L 6.5620,10.1413 L 6.5620,10.2606 L 6.5620,10.3799 L 6.5620,10.4992 L 6.5620,10.4992 L 6.5620,10.6185 L 6.5620,10.7378 L 6.5620,10.7378 L 6.5620,10.8571 L 6.5620,10.8571 L 6.5620,10.9764 L 6.5620,10.9764 L 6.5620,10.9764 L 6.5620,11.0957 L 6.5620,11.0957 L 6.5620,11.0957 L 6.5620,11.0957 L 6.5620,11.0957 L 6.5620,11.0957 L 6.5620,11.2150 L 6.5620,11.2150 L 6.5620,11.2150 L 6.5620,11.2150 L 6.5620,11.2150 L 6.5620,11.2150 L 6.5620,11.3344 L 6.5620,11.3344 L 6.5620,11.3344 L 6.5620,11.3344 L 6.5620,11.3344 L 6.5620,11.3344 L 6.5620,11.3344 L 6.5620,11.4537 L 6.6813,11.4537 L 6.6813,11.4537 L 6.6813,11.4537 L 6.6813,11.4537 L 6.6813,11.4537 L 6.6813,11.4537 L 6.8006,11.4537 L 6.8006,11.4537 L 6.8006,11.4537 L 6.8006,11.4537 L 6.8006,11.4537 L 6.8006,11.4537 L 6.9199,11.4537 L 6.9199,11.4537 L 6.9199,11.4537 L 6.9199,11.5730 L 6.9199,11.5730 L 7.0392,11.5730 L 7.0392,11.5730 L 7.0392,11.5730 L 7.0392,11.5730 L 7.0392,11.5730 L 7.0392,11.5730 L 7.0392,11.5730 L 7.0392,11.5730 L 7.0392,11.5730 L 7.0392,11.5730 L 7.0392,11.5730 L 7.0392,11.5730 L 7.0392,11.5730 L 7.0392,11.5730 L 7.0392,11.5730 L 7.0392,11.5730 L 7.1585,11.5730 L 7.1585,11.5730 L 7.1585,11.5730 L 7.1585,11.5730 L 7.1585,11.5730 L 7.1585,11.5730 L 7.1585,11.5730 L 7.1585,11.5730 L 7.1585,11.5730 L 7.1585,11.5730 L 7.1585,11.5730 L 7.1585,11.5730 L 7.1585,11.5730 L 7.2778,11.5730 L 7.2778,11.5730 L 7.2778,11.5730 L 7.2778,11.5730 " stroke="#BFBFBF" stroke-width="0.1193" stroke-linecap="round" stroke-linejoin="round" fill="none"/>
          <path d="M 6.5620,4.7724 L 6.5620,4.7724 L 6.5620,4.8917 L 6.5620,4.8917 L 6.5620,4.8917 L 6.5620,4.8917 L 6.5620,4.8917 L 6.5620,5.0110 L 6.5620,5.0110 L 6.5620,5.0110 L 6.5620,5.1303 L 6.5620,5.1303 L 6.5620,5.2496 L 6.5620,5.2496 L 6.5620,5.3689 L 6.5620,5.3689 L 6.5620,5.4882 L 6.5620,5.6075 L 6.5620,5.7268 L 6.5620,5.7268 L 6.5620,5.8461 L 6.5620,5.9654 L 6.5620,6.0848 L 6.5620,6.2041 L 6.5620,6.3234 L 6.5620,6.4427 L 6.5620,6.5620 L 6.5620,6.6813 L 6.5620,6.8006 L 6.5620,6.9199 L 6.5620,7.0392 L 6.5620,7.1585 L 6.5620,7.2778 " stroke="#BFBFBF" stroke-width="0.1193" stroke-linecap="round" stroke-linejoin="round" fill="none"/>
        </g>
        <g transform="matrix(1.0000 0.0000 0.0000 1.0000 0.0000 0.0000)">
</g>
        <g transform="matrix(1.0000 0.0000 0.0000 1.0000 0.0000 0.0000)">
</g>
      </g>
      <!--emf-blob end-->
    </g>
  </g>
</svg>
