<svg xmlns="http://www.w3.org/2000/svg" xmlns:xlink="http://www.w3.org/1999/xlink" version="1.1" width="5.4504000000" height="4.3320000000" viewBox="0 0 98.1096 77.9791">
  <title><![CDATA[FSR-112D-POE (F)]]></title>
  <g transform=" scale(4.000000) ">
    <!--converted by libvisio2svg-->
    <g transform=" translate(35.391800,0.720000) ">
      <!--emf-blob start-->
      <g transform="translate(-0.0000, -0.0000)">
        <path d="M 16.6849,2.2840 L 16.6849,3.3757 L 17.6663,3.3757 " stroke="#000000" stroke-width="0.1199" stroke-linecap="round" stroke-linejoin="round" fill="none"/>
        <path d="M 17.6663,2.2840 L 19.6034,2.2840 " stroke="#000000" stroke-width="0.1199" stroke-linecap="round" stroke-linejoin="round" fill="none"/>
        <path d="M 18.6220,2.2840 L 18.6220,3.3757 " stroke="#000000" stroke-width="0.1199" stroke-linecap="round" stroke-linejoin="round" fill="none"/>
        <path d="M 20.0942,2.2840 L 20.0942,3.3757 " stroke="#000000" stroke-width="0.1199" stroke-linecap="round" stroke-linejoin="round" fill="none"/>
        <path d="M 20.0942,2.2840 L 20.0942,3.3757 " stroke="#000000" stroke-width="0.1199" stroke-linecap="round" stroke-linejoin="round" fill="none"/>
        <path d="M 21.0498,3.3757 L 21.0498,2.2840 L 22.0313,3.3757 L 23.0127,2.2840 L 23.0127,3.3757 " stroke="#000000" stroke-width="0.1199" stroke-linecap="round" stroke-linejoin="round" fill="none"/>
        <path d="M 23.4776,3.3757 L 24.4591,2.2840 L 25.4406,3.3757 " stroke="#000000" stroke-width="0.1199" stroke-linecap="round" stroke-linejoin="round" fill="none"/>
        <path d="M 23.7359,3.1028 L 25.1823,3.1028 " stroke="#000000" stroke-width="0.1199" stroke-linecap="round" stroke-linejoin="round" fill="none"/>
        <path d="M 13.7663,3.3757 L 14.7478,2.2840 L 15.7292,3.3757 " stroke="#000000" stroke-width="0.1199" stroke-linecap="round" stroke-linejoin="round" fill="none"/>
        <path d="M 14.0246,3.1028 L 15.4710,3.1028 " stroke="#000000" stroke-width="0.1199" stroke-linecap="round" stroke-linejoin="round" fill="none"/>
        <path d="M 26.4572,42.7700 L 0.8408,42.7700 L 0.8408,43.5696 L 26.4572,43.5696 L 26.4572,42.7700 Z" stroke="#000000" stroke-width="0.1199" stroke-linecap="round" stroke-linejoin="round" fill="#494949"/>
        <path d="M 26.4572,1.1783 L 0.8408,1.1783 L 0.8408,42.7700 L 26.4572,42.7700 L 26.4572,1.1783 Z" stroke="#000000" stroke-width="0.1199" stroke-linecap="round" stroke-linejoin="round" fill="#7F7F7F"/>
        <path d="M 0.8408,1.1783 L 0.0280,1.1783 L 0.6026,1.7534 L 0.6026,1.9358 L 0.0280,2.1883 L 0.0280,2.4969 L 0.6026,2.7494 L 0.6026,2.9879 L 0.0280,3.2404 L 0.0280,3.5490 L 0.6026,3.8015 L 0.6026,4.0399 L 0.0280,4.2924 L 0.0280,4.6010 L 0.6026,4.8535 L 0.6026,5.0920 L 0.0280,5.3445 L 0.0280,5.6531 L 0.6026,5.9056 L 0.6026,6.1441 L 0.0280,6.3966 L 0.0280,6.7052 L 0.6026,6.9577 L 0.6026,7.1961 L 0.0280,7.4486 L 0.0280,7.7572 L 0.6026,8.0097 L 0.6026,8.2482 L 0.0280,8.5007 L 0.0280,8.8093 L 0.6026,9.0618 L 0.6026,9.3003 L 0.0280,9.5528 L 0.0280,9.8614 L 0.6026,10.1139 L 0.6026,10.3523 L 0.0280,10.6048 L 0.0280,10.9134 L 0.6026,11.1659 L 0.6026,11.4044 L 0.0280,11.6569 L 0.0280,11.9655 L 0.6026,12.2180 L 0.6026,12.4565 L 0.0280,12.7090 L 0.0280,13.0176 L 0.6026,13.2701 L 0.6026,13.5085 L 0.0280,13.7610 L 0.0280,14.0696 L 0.6026,14.3221 L 0.6026,14.5606 L 0.0280,14.8131 L 0.0280,15.1217 L 0.6026,15.3742 L 0.6026,15.6127 L 0.0280,15.8652 L 0.0280,16.1738 L 0.6026,16.4263 L 0.6026,16.6647 L 0.0280,16.9172 L 0.0280,17.2258 L 0.6026,17.4783 L 0.6026,17.7168 L 0.0280,17.9693 L 0.0280,18.2779 L 0.6026,18.5304 L 0.6026,18.7689 L 0.0280,19.0214 L 0.0280,19.3300 L 0.6026,19.5825 L 0.6026,19.8209 L 0.0280,20.0734 L 0.0280,20.3820 L 0.6026,20.6345 L 0.6026,20.8730 L 0.0280,21.1255 L 0.0280,21.4341 L 0.6026,21.6866 L 0.6026,21.9251 L 0.0280,22.1776 L 0.0280,22.4862 L 0.6026,22.7387 L 0.6026,22.9771 L 0.0280,23.2296 L 0.0280,23.5382 L 0.6026,23.7907 L 0.6026,24.0292 L 0.0280,24.2817 L 0.0280,24.5903 L 0.6026,24.8428 L 0.6026,25.0813 L 0.0280,25.3338 L 0.0280,25.6424 L 0.6026,25.8949 L 0.6026,26.1333 L 0.0280,26.3858 L 0.0280,26.6945 L 0.6026,26.9469 L 0.6026,27.1854 L 0.0280,27.4379 L 0.0280,27.7465 L 0.6026,27.9990 L 0.6026,28.2375 L 0.0280,28.4900 L 0.0280,28.7986 L 0.6026,29.0511 L 0.6026,29.2896 L 0.0280,29.5420 L 0.0280,29.8507 L 0.6026,30.1031 L 0.6026,30.3416 L 0.0280,30.5941 L 0.0280,30.9027 L 0.6026,31.1552 L 0.6026,31.3937 L 0.0280,31.6462 L 0.0280,31.9548 L 0.6026,32.2073 L 0.6026,32.4458 L 0.0280,32.6982 L 0.0280,33.0069 L 0.6026,33.2594 L 0.6026,33.4978 L 0.0280,33.7503 L 0.0280,34.0589 L 0.6026,34.3114 L 0.6026,34.5499 L 0.0280,34.8024 L 0.0280,35.1110 L 0.6026,35.3635 L 0.6026,35.6020 L 0.0280,35.8544 L 0.0280,36.1631 L 0.6026,36.4156 L 0.6026,36.6540 L 0.0280,36.9065 L 0.0280,37.2151 L 0.6026,37.4676 L 0.6026,37.7061 L 0.0280,37.9586 L 0.0280,38.2672 L 0.6026,38.5197 L 0.6026,38.7582 L 0.0280,39.0107 L 0.0280,39.3193 L 0.6026,39.5718 L 0.6026,39.8102 L 0.0280,40.0627 L 0.0280,40.3713 L 0.6026,40.6238 L 0.6026,40.8623 L 0.0280,41.1148 L 0.0280,41.4234 L 0.6026,41.6759 L 0.6026,41.9284 L 0.0280,42.3352 L 0.0280,43.0786 L 0.5185,43.5696 L 0.8408,43.5696 L 0.8408,1.1783 Z" stroke="#000000" stroke-width="0.1199" stroke-linecap="round" stroke-linejoin="round" fill="#494949"/>
        <path d="M 26.4572,1.1783 L 27.2699,1.1783 L 26.6954,1.7534 L 26.6954,1.9358 L 27.2699,2.1883 L 27.2699,2.4969 L 26.6954,2.7494 L 26.6954,2.9879 L 27.2699,3.2404 L 27.2699,3.5490 L 26.6954,3.8015 L 26.6954,4.0399 L 27.2699,4.2924 L 27.2699,4.6010 L 26.6954,4.8535 L 26.6954,5.0920 L 27.2699,5.3445 L 27.2699,5.6531 L 26.6954,5.9056 L 26.6954,6.1441 L 27.2699,6.3966 L 27.2699,6.7052 L 26.6954,6.9577 L 26.6954,7.1961 L 27.2699,7.4486 L 27.2699,7.7572 L 26.6954,8.0097 L 26.6954,8.2482 L 27.2699,8.5007 L 27.2699,8.8093 L 26.6954,9.0618 L 26.6954,9.3003 L 27.2699,9.5528 L 27.2699,9.8614 L 26.6954,10.1139 L 26.6954,10.3523 L 27.2699,10.6048 L 27.2699,10.9134 L 26.6954,11.1659 L 26.6954,11.4044 L 27.2699,11.6569 L 27.2699,11.9655 L 26.6954,12.2180 L 26.6954,12.4565 L 27.2699,12.7090 L 27.2699,13.0176 L 26.6954,13.2701 L 26.6954,13.5085 L 27.2699,13.7610 L 27.2699,14.0696 L 26.6954,14.3221 L 26.6954,14.5606 L 27.2699,14.8131 L 27.2699,15.1217 L 26.6954,15.3742 L 26.6954,15.6127 L 27.2699,15.8652 L 27.2699,16.1738 L 26.6954,16.4263 L 26.6954,16.6647 L 27.2699,16.9172 L 27.2699,17.2258 L 26.6954,17.4783 L 26.6954,17.7168 L 27.2699,17.9693 L 27.2699,18.2779 L 26.6954,18.5304 L 26.6954,18.7689 L 27.2699,19.0214 L 27.2699,19.3300 L 26.6954,19.5825 L 26.6954,19.8209 L 27.2699,20.0734 L 27.2699,20.3820 L 26.6954,20.6345 L 26.6954,20.8730 L 27.2699,21.1255 L 27.2699,21.4341 L 26.6954,21.6866 L 26.6954,21.9251 L 27.2699,22.1776 L 27.2699,22.4862 L 26.6954,22.7387 L 26.6954,22.9771 L 27.2699,23.2296 L 27.2699,23.5382 L 26.6954,23.7907 L 26.6954,24.0292 L 27.2699,24.2817 L 27.2699,24.5903 L 26.6954,24.8428 L 26.6954,25.0813 L 27.2699,25.3338 L 27.2699,25.6424 L 26.6954,25.8949 L 26.6954,26.1333 L 27.2699,26.3858 L 27.2699,26.6945 L 26.6954,26.9469 L 26.6954,27.1854 L 27.2699,27.4379 L 27.2699,27.7465 L 26.6954,27.9990 L 26.6954,28.2375 L 27.2699,28.4900 L 27.2699,28.7986 L 26.6954,29.0511 L 26.6954,29.2896 L 27.2699,29.5420 L 27.2699,29.8507 L 26.6954,30.1031 L 26.6954,30.3416 L 27.2699,30.5941 L 27.2699,30.9027 L 26.6954,31.1552 L 26.6954,31.3937 L 27.2699,31.6462 L 27.2699,31.9548 L 26.6954,32.2073 L 26.6954,32.4458 L 27.2699,32.6982 L 27.2699,33.0069 L 26.6954,33.2594 L 26.6954,33.4978 L 27.2699,33.7503 L 27.2699,34.0589 L 26.6954,34.3114 L 26.6954,34.5499 L 27.2699,34.8024 L 27.2699,35.1110 L 26.6954,35.3635 L 26.6954,35.6020 L 27.2699,35.8544 L 27.2699,36.1631 L 26.6954,36.4156 L 26.6954,36.6540 L 27.2699,36.9065 L 27.2699,37.2151 L 26.6954,37.4676 L 26.6954,37.7061 L 27.2699,37.9586 L 27.2699,38.2672 L 26.6954,38.5197 L 26.6954,38.7582 L 27.2699,39.0107 L 27.2699,39.3193 L 26.6954,39.5718 L 26.6954,39.8102 L 27.2699,40.0627 L 27.2699,40.3713 L 26.6954,40.6238 L 26.6954,40.8623 L 27.2699,41.1148 L 27.2699,41.4234 L 26.6954,41.6759 L 26.6954,41.9284 L 27.2699,42.3352 L 27.2699,43.0786 L 26.7795,43.5696 L 26.4572,43.5696 L 26.4572,1.1783 Z" stroke="#000000" stroke-width="0.1199" stroke-linecap="round" stroke-linejoin="round" fill="#494949"/>
        <path d="M 27.2699,0.0281 L 0.0280,0.0281 L 0.0280,1.1783 L 27.2699,1.1783 L 27.2699,0.0281 Z" stroke="#000000" stroke-width="0.1199" stroke-linecap="round" stroke-linejoin="round" fill="#494949"/>
        <path d="M 5.4792,17.3521 L 5.4792,21.3079 L 2.7746,21.3079 L 2.7746,17.3521 L 5.4792,17.3521 Z" stroke="#000000" stroke-width="0.1199" stroke-linecap="round" stroke-linejoin="round" fill="#494949"/>
        <path d="M 5.4792,13.3823 L 5.4792,17.3381 L 2.7746,17.3381 L 2.7746,13.3823 L 5.4792,13.3823 Z" stroke="#000000" stroke-width="0.1199" stroke-linecap="round" stroke-linejoin="round" fill="#494949"/>
        <path d="M 5.4792,9.4125 L 5.4792,13.3683 L 2.7746,13.3683 L 2.7746,9.4125 L 5.4792,9.4125 Z" stroke="#000000" stroke-width="0.1199" stroke-linecap="round" stroke-linejoin="round" fill="#494949"/>
        <path d="M 5.4792,5.4427 L 5.4792,9.3985 L 2.7746,9.3985 L 2.7746,5.4427 L 5.4792,5.4427 Z" stroke="#000000" stroke-width="0.1199" stroke-linecap="round" stroke-linejoin="round" fill="#494949"/>
        <path d="M 10.4820,23.6785 L 12.8923,23.6785 L 12.8923,24.6745 " stroke="#FFFFFF" stroke-width="0.1199" stroke-linecap="round" stroke-linejoin="round" fill="none"/>
        <path d="M 10.4820,26.1754 L 11.5190,26.1754 L 11.5190,25.2496 " stroke="#FFFFFF" stroke-width="0.1199" stroke-linecap="round" stroke-linejoin="round" fill="none"/>
        <path d="M 23.8227,15.6267 L 20.4034,15.6267 L 20.4034,20.1155 L 23.8227,20.1155 L 23.8227,15.6267 Z" stroke="#000000" stroke-width="0.1199" stroke-linecap="round" stroke-linejoin="round" fill="#E2E2E2"/>
        <path d="M 10.4820,27.6624 L 12.8923,27.6624 L 12.8923,28.6583 " stroke="#FFFFFF" stroke-width="0.1199" stroke-linecap="round" stroke-linejoin="round" fill="none"/>
        <path d="M 10.4820,30.1593 L 11.5190,30.1593 L 11.5190,29.2334 " stroke="#FFFFFF" stroke-width="0.1199" stroke-linecap="round" stroke-linejoin="round" fill="none"/>
        <path d="M 10.4820,31.6462 L 12.8923,31.6462 L 12.8923,32.6421 " stroke="#FFFFFF" stroke-width="0.1199" stroke-linecap="round" stroke-linejoin="round" fill="none"/>
        <path d="M 10.4820,34.1431 L 11.5190,34.1431 L 11.5190,33.2173 " stroke="#FFFFFF" stroke-width="0.1199" stroke-linecap="round" stroke-linejoin="round" fill="none"/>
        <path d="M 10.4820,35.6300 L 12.8923,35.6300 L 12.8923,36.6260 " stroke="#FFFFFF" stroke-width="0.1199" stroke-linecap="round" stroke-linejoin="round" fill="none"/>
        <path d="M 10.4820,38.1269 L 11.5190,38.1269 L 11.5190,37.2011 " stroke="#FFFFFF" stroke-width="0.1199" stroke-linecap="round" stroke-linejoin="round" fill="none"/>
        <path d="M 10.4820,22.4020 L 2.7746,22.4020 L 2.7746,39.4175 L 10.4820,39.4175 L 10.4820,22.4020 Z" stroke="#000000" stroke-width="0.1199" stroke-linecap="round" stroke-linejoin="round" fill="#DDDDDD"/>
        <text font-family="Arial" fill="#FFFFFF" style="white-space:pre;" font-weight="400" text-anchor="start" x="3.2231" y="6.6475" font-size="0.1541"><![CDATA[7]]></text>
        <text font-family="Arial" fill="#FFFFFF" style="white-space:pre;" font-weight="400" text-anchor="start" x="3.5454" y="6.7457" font-size="0.1541"><![CDATA[8]]></text>
        <text font-family="Arial" fill="#FFFFFF" style="white-space:pre;" font-weight="400" text-anchor="start" x="3.2231" y="7.6435" font-size="0.1541"><![CDATA[5]]></text>
        <text font-family="Arial" fill="#FFFFFF" style="white-space:pre;" font-weight="400" text-anchor="start" x="3.5454" y="7.7417" font-size="0.1541"><![CDATA[6]]></text>
        <text font-family="Arial" fill="#FFFFFF" style="white-space:pre;" font-weight="400" text-anchor="start" x="3.2231" y="8.6394" font-size="0.1541"><![CDATA[3]]></text>
        <text font-family="Arial" fill="#FFFFFF" style="white-space:pre;" font-weight="400" text-anchor="start" x="3.5454" y="8.7376" font-size="0.1541"><![CDATA[4]]></text>
        <text font-family="Arial" fill="#FFFFFF" style="white-space:pre;" font-weight="400" text-anchor="start" x="3.2231" y="9.6354" font-size="0.1541"><![CDATA[1]]></text>
        <text font-family="Arial" fill="#FFFFFF" style="white-space:pre;" font-weight="400" text-anchor="start" x="3.5454" y="9.7336" font-size="0.1541"><![CDATA[2]]></text>
        <text font-family="Arial" fill="#FFFFFF" style="white-space:pre;" font-weight="400" text-anchor="start" x="0.8128" y="9.6634" font-size="0.1541"><![CDATA[2]]></text>
        <text font-family="Arial" fill="#FFFFFF" style="white-space:pre;" font-weight="400" text-anchor="start" x="0.8128" y="8.6675" font-size="0.1541"><![CDATA[4]]></text>
        <text font-family="Arial" fill="#FFFFFF" style="white-space:pre;" font-weight="400" text-anchor="start" x="0.8128" y="7.6715" font-size="0.1541"><![CDATA[6]]></text>
        <text font-family="Arial" fill="#FFFFFF" style="white-space:pre;" font-weight="400" text-anchor="start" x="0.8128" y="6.6756" font-size="0.1541"><![CDATA[8]]></text>
        <text font-family="Arial" fill="#FFFFFF" style="white-space:pre;" font-weight="400" text-anchor="start" x="2.0740" y="5.2728" font-size="0.1541"><![CDATA[9]]></text>
        <text font-family="Arial" fill="#FFFFFF" style="white-space:pre;" font-weight="400" text-anchor="start" x="2.0319" y="4.2769" font-size="0.1541"><![CDATA[10]]></text>
        <text font-family="Arial" fill="#FFFFFF" style="white-space:pre;" font-weight="400" text-anchor="start" x="2.0319" y="3.2809" font-size="0.1541"><![CDATA[11]]></text>
        <text font-family="Arial" fill="#FFFFFF" style="white-space:pre;" font-weight="400" text-anchor="start" x="2.0319" y="2.2849" font-size="0.1541"><![CDATA[12]]></text>
        <path d="M 9.7315,23.1087 L 9.7315,23.8686 L 10.0429,23.8686 L 10.0429,23.1087 L 9.7315,23.1087 Z" stroke="#000000" stroke-width="0.1199" stroke-linecap="round" stroke-linejoin="round" fill="#83FF00"/>
        <path d="M 9.7315,25.9176 L 9.7315,26.6775 L 10.0429,26.6775 L 10.0429,25.9176 L 9.7315,25.9176 Z" stroke="#000000" stroke-width="0.1199" stroke-linecap="round" stroke-linejoin="round" fill="#83FF00"/>
        <path d="M 9.7315,27.0982 L 9.7315,27.8580 L 10.0429,27.8580 L 10.0429,27.0982 L 9.7315,27.0982 Z" stroke="#000000" stroke-width="0.1199" stroke-linecap="round" stroke-linejoin="round" fill="#83FF00"/>
        <path d="M 9.7315,29.9070 L 9.7315,30.6669 L 10.0429,30.6669 L 10.0429,29.9070 L 9.7315,29.9070 Z" stroke="#000000" stroke-width="0.1199" stroke-linecap="round" stroke-linejoin="round" fill="#83FF00"/>
        <path d="M 9.7315,31.0876 L 9.7315,31.8475 L 10.0429,31.8475 L 10.0429,31.0876 L 9.7315,31.0876 Z" stroke="#000000" stroke-width="0.1199" stroke-linecap="round" stroke-linejoin="round" fill="#83FF00"/>
        <path d="M 9.7315,33.8964 L 9.7315,34.6563 L 10.0429,34.6563 L 10.0429,33.8964 L 9.7315,33.8964 Z" stroke="#000000" stroke-width="0.1199" stroke-linecap="round" stroke-linejoin="round" fill="#83FF00"/>
        <path d="M 9.7315,35.0770 L 9.7315,35.8369 L 10.0429,35.8369 L 10.0429,35.0770 L 9.7315,35.0770 Z" stroke="#000000" stroke-width="0.1199" stroke-linecap="round" stroke-linejoin="round" fill="#83FF00"/>
        <path d="M 9.7315,37.8859 L 9.7315,38.6457 L 10.0429,38.6457 L 10.0429,37.8859 L 9.7315,37.8859 Z" stroke="#000000" stroke-width="0.1199" stroke-linecap="round" stroke-linejoin="round" fill="#83FF00"/>
        <ellipse cx="20.5586" cy="13.8650" rx="0.2631" ry="0.2631" fill="#00FF00" stroke="#000000" stroke-width="0.1199" stroke-linecap="round" stroke-linejoin="round"/>
        <ellipse cx="20.5586" cy="13.8650" rx="0.2631" ry="0.2631" fill="none" stroke="#000000" stroke-width="0.1199" stroke-linecap="round" stroke-linejoin="round"/>
        <text font-family="Arial" fill="#FFFFFF" style="white-space:pre;" font-weight="400" text-anchor="start" x="25.7472" y="17.3923" font-size="0.1484"><![CDATA[ALARM]]></text>
        <ellipse cx="20.5586" cy="9.9922" rx="0.2631" ry="0.2631" fill="#00FF00" stroke="#000000" stroke-width="0.1199" stroke-linecap="round" stroke-linejoin="round"/>
        <ellipse cx="20.5586" cy="9.9922" rx="0.2631" ry="0.2631" fill="none" stroke="#000000" stroke-width="0.1199" stroke-linecap="round" stroke-linejoin="round"/>
        <text font-family="Arial" fill="#FFFFFF" style="white-space:pre;" font-weight="400" text-anchor="start" x="25.7472" y="12.5884" font-size="0.1484"><![CDATA[PWR2]]></text>
        <ellipse cx="20.5586" cy="8.5349" rx="0.2631" ry="0.2631" fill="#00FF00" stroke="#000000" stroke-width="0.1199" stroke-linecap="round" stroke-linejoin="round"/>
        <ellipse cx="20.5586" cy="8.5349" rx="0.2631" ry="0.2631" fill="none" stroke="#000000" stroke-width="0.1199" stroke-linecap="round" stroke-linejoin="round"/>
        <text font-family="Arial" fill="#FFFFFF" style="white-space:pre;" font-weight="400" text-anchor="start" x="25.7472" y="10.7803" font-size="0.1484"><![CDATA[PWR1]]></text>
        <ellipse cx="20.5586" cy="7.0640" rx="0.2631" ry="0.2631" fill="#00FF00" stroke="#000000" stroke-width="0.1199" stroke-linecap="round" stroke-linejoin="round"/>
        <ellipse cx="20.5586" cy="7.0640" rx="0.2631" ry="0.2631" fill="none" stroke="#000000" stroke-width="0.1199" stroke-linecap="round" stroke-linejoin="round"/>
        <text font-family="Arial" fill="#FFFFFF" style="white-space:pre;" font-weight="400" text-anchor="start" x="25.7472" y="8.9586" font-size="0.1484"><![CDATA[PWR]]></text>
        <path d="M 13.6884,3.4614 L 13.6681,3.4614 L 13.6579,3.4515 L 13.6478,3.4515 L 13.6173,3.4216 L 13.6173,3.4117 L 13.6072,3.4017 L 13.6072,2.2479 L 13.6173,2.2380 L 13.6173,2.2280 L 13.6275,2.2181 L 13.6376,2.2181 L 13.6376,2.2081 L 13.6478,2.1982 L 13.6579,2.1982 L 13.6681,2.1882 L 15.0481,2.1882 L 15.0582,2.1982 L 15.0684,2.1982 L 15.0988,2.2280 L 15.0988,2.2380 L 15.1090,2.2479 L 15.1090,2.4767 L 15.0988,2.4767 L 15.0988,2.4668 L 15.0887,2.4668 L 15.0887,2.4568 L 15.0785,2.4568 L 15.0785,2.4469 L 15.0582,2.4469 L 15.0582,2.4369 L 13.9420,2.4369 L 13.9420,2.4469 L 13.9217,2.4469 L 13.9217,2.4568 L 13.9116,2.4568 L 13.9116,2.4767 L 13.9015,2.4767 L 13.9015,3.4216 L 13.9116,3.4216 L 13.9116,3.4415 L 13.9217,3.4415 L 13.9217,3.4515 L 13.9319,3.4515 L 13.9319,3.4614 L 13.6985,3.4614 L 13.6884,3.4614 Z" stroke="#FFFFFF" stroke-width="0.1199" stroke-linecap="round" stroke-linejoin="round" fill="#FFFFFF"/>
        <path d="M 15.0075,2.7254 L 14.0029,2.7254 L 14.0029,2.7154 L 13.9826,2.7154 L 13.9826,2.7055 L 13.9725,2.7055 L 13.9725,2.6856 L 13.9623,2.6856 L 13.9623,2.9342 L 13.9725,2.9342 L 13.9725,2.9541 L 13.9826,2.9541 L 13.9826,2.9641 L 14.0029,2.9641 L 14.0029,2.9740 L 15.0278,2.9740 L 15.0481,2.9541 L 15.0582,2.9541 L 15.0785,2.9342 L 15.0785,2.9243 L 15.0887,2.9143 L 15.0887,2.9044 L 15.0988,2.8945 L 15.0988,2.8746 L 15.1090,2.8646 L 15.1090,2.8348 L 15.0988,2.8248 L 15.0988,2.7950 L 15.0785,2.7751 L 15.0785,2.7652 L 15.0684,2.7552 L 15.0582,2.7552 L 15.0582,2.7453 L 15.0481,2.7453 L 15.0379,2.7353 L 15.0278,2.7353 L 15.0176,2.7254 L 15.0075,2.7254 Z" stroke="#FFFFFF" stroke-width="0.1199" stroke-linecap="round" stroke-linejoin="round" fill="#FFFFFF"/>
        <path d="M 17.3515,2.9740 L 17.3312,2.9740 L 17.3312,2.9641 L 17.3109,2.9641 L 17.3109,2.9541 L 17.3007,2.9541 L 17.3007,2.9342 L 17.2906,2.9342 L 17.2906,2.6856 L 17.3007,2.6856 L 17.3007,2.7055 L 17.3109,2.7055 L 17.3109,2.7154 L 17.3312,2.7154 L 17.3312,2.7254 L 18.1429,2.7254 L 18.1429,2.4369 L 17.2703,2.4369 L 17.2703,2.4469 L 17.2500,2.4469 L 17.2500,2.4568 L 17.2398,2.4568 L 17.2398,2.4767 L 17.2297,2.4767 L 17.2297,3.4216 L 17.2398,3.4216 L 17.2398,3.4415 L 17.2500,3.4415 L 17.2500,3.4515 L 17.2601,3.4515 L 17.2601,3.4614 L 16.9963,3.4614 L 16.9862,3.4515 L 16.9760,3.4515 L 16.9456,3.4216 L 16.9456,3.4117 L 16.9354,3.4017 L 16.9354,2.2479 L 16.9456,2.2380 L 16.9456,2.2280 L 16.9557,2.2181 L 16.9659,2.2181 L 16.9659,2.2081 L 16.9760,2.1982 L 16.9862,2.1982 L 16.9963,2.1882 L 18.3763,2.1882 L 18.3865,2.1982 L 18.3966,2.1982 L 18.4270,2.2280 L 18.4270,2.2380 L 18.4372,2.2479 L 18.4372,2.8746 L 18.4270,2.8845 L 18.4270,2.9044 L 18.4169,2.9044 L 18.4169,2.9143 L 18.4067,2.9243 L 18.4067,2.9342 L 18.3966,2.9342 L 18.3966,2.9442 L 18.3865,2.9442 L 18.3865,2.9541 L 18.3763,2.9541 L 18.3763,2.9641 L 18.3662,2.9641 L 18.3560,2.9740 L 18.3662,2.9840 L 18.3763,2.9840 L 18.3763,2.9939 L 18.3865,2.9939 L 18.3865,3.0039 L 18.3966,3.0039 L 18.3966,3.0138 L 18.4067,3.0138 L 18.4067,3.0238 L 18.4169,3.0337 L 18.4169,3.0437 L 18.4270,3.0437 L 18.4270,3.0635 L 18.4372,3.0735 L 18.4372,3.4216 L 18.4473,3.4216 L 18.4473,3.4415 L 18.4575,3.4415 L 18.4575,3.4515 L 18.4676,3.4515 L 18.4676,3.4614 L 18.2038,3.4614 L 18.1937,3.4515 L 18.1835,3.4515 L 18.1531,3.4216 L 18.1531,3.4117 L 18.1429,3.4017 L 18.1429,2.9740 L 17.3616,2.9740 L 17.3515,2.9740 Z" stroke="#FFFFFF" stroke-width="0.1199" stroke-linecap="round" stroke-linejoin="round" fill="#FFFFFF"/>
        <path d="M 18.9648,2.4369 L 18.6604,2.4369 L 18.6503,2.4270 L 18.6401,2.4270 L 18.6097,2.3971 L 18.6097,2.3872 L 18.5995,2.3772 L 18.5995,2.2479 L 18.6097,2.2380 L 18.6097,2.2280 L 18.6198,2.2181 L 18.6300,2.2181 L 18.6300,2.2081 L 18.6401,2.1982 L 18.6503,2.1982 L 18.6604,2.1882 L 20.0404,2.1882 L 20.0506,2.1982 L 20.0607,2.1982 L 20.0912,2.2280 L 20.0912,2.2380 L 20.1013,2.2479 L 20.1013,2.4767 L 20.0912,2.4767 L 20.0912,2.4668 L 20.0810,2.4668 L 20.0810,2.4568 L 20.0709,2.4568 L 20.0709,2.4469 L 20.0506,2.4469 L 20.0506,2.4369 L 19.2997,2.4369 L 19.2997,2.4469 L 19.2794,2.4469 L 19.2794,2.4568 L 19.2692,2.4568 L 19.2692,2.4767 L 19.2591,2.4767 L 19.2591,3.4216 L 19.2692,3.4216 L 19.2692,3.4415 L 19.2794,3.4415 L 19.2794,3.4515 L 19.2895,3.4515 L 19.2895,3.4614 L 19.0257,3.4614 L 19.0156,3.4515 L 19.0054,3.4515 L 18.9750,3.4216 L 18.9750,3.4117 L 18.9648,3.4017 L 18.9648,2.4668 L 18.9648,2.4369 Z" stroke="#FFFFFF" stroke-width="0.1199" stroke-linecap="round" stroke-linejoin="round" fill="#FFFFFF"/>
        <path d="M 20.5579,3.3918 L 20.5579,3.4216 L 20.5681,3.4216 L 20.5681,3.4415 L 20.5782,3.4415 L 20.5782,3.4515 L 20.5884,3.4515 L 20.5884,3.4614 L 20.3245,3.4614 L 20.3144,3.4515 L 20.3042,3.4515 L 20.2738,3.4216 L 20.2738,3.4117 L 20.2637,3.4017 L 20.2637,2.2280 L 20.2535,2.2280 L 20.2535,2.2081 L 20.2434,2.2081 L 20.2434,2.1982 L 20.2332,2.1982 L 20.2332,2.1882 L 20.4970,2.1882 L 20.5072,2.1982 L 20.5173,2.1982 L 20.5478,2.2280 L 20.5478,2.2380 L 20.5579,2.2479 L 20.5579,3.3818 L 20.5579,3.3918 Z" stroke="#FFFFFF" stroke-width="0.1199" stroke-linecap="round" stroke-linejoin="round" fill="#FFFFFF"/>
        <path d="M 21.9988,2.4369 L 21.1262,2.4369 L 21.1262,2.4469 L 21.1059,2.4469 L 21.1059,2.4568 L 21.0957,2.4568 L 21.0957,2.4767 L 21.0856,2.4767 L 21.0856,3.4216 L 21.0957,3.4216 L 21.0957,3.4415 L 21.1059,3.4415 L 21.1059,3.4515 L 21.1160,3.4515 L 21.1160,3.4614 L 20.8522,3.4614 L 20.8420,3.4515 L 20.8319,3.4515 L 20.8014,3.4216 L 20.8014,3.4117 L 20.7913,3.4017 L 20.7913,2.2479 L 20.8014,2.2380 L 20.8014,2.2280 L 20.8116,2.2181 L 20.8217,2.2181 L 20.8217,2.2081 L 20.8319,2.1982 L 20.8420,2.1982 L 20.8522,2.1882 L 22.2322,2.1882 L 22.2423,2.1982 L 22.2525,2.1982 L 22.2829,2.2280 L 22.2829,2.2380 L 22.2931,2.2479 L 22.2931,3.4216 L 22.3032,3.4216 L 22.3032,3.4415 L 22.3134,3.4415 L 22.3134,3.4515 L 22.3235,3.4515 L 22.3235,3.4614 L 22.0597,3.4614 L 22.0495,3.4515 L 22.0394,3.4515 L 22.0089,3.4216 L 22.0089,3.4117 L 21.9988,3.4017 L 21.9988,2.4668 L 21.9988,2.4369 Z" stroke="#FFFFFF" stroke-width="0.1199" stroke-linecap="round" stroke-linejoin="round" fill="#FFFFFF"/>
        <path d="M 23.7847,2.7254 L 22.8512,2.7254 L 22.8410,2.7154 L 22.8309,2.7154 L 22.8309,2.7055 L 22.8207,2.7055 L 22.8207,2.6856 L 22.8106,2.6856 L 22.8106,2.9342 L 22.8207,2.9342 L 22.8207,2.9541 L 22.8309,2.9541 L 22.8309,2.9641 L 22.8410,2.9641 L 22.8512,2.9740 L 23.7948,2.9740 L 23.8151,2.9541 L 23.8253,2.9541 L 23.8456,2.9342 L 23.8456,2.9243 L 23.8557,2.9143 L 23.8557,2.9044 L 23.8659,2.8945 L 23.8659,2.8746 L 23.8760,2.8646 L 23.8760,2.8248 L 23.8659,2.8149 L 23.8659,2.7850 L 23.8557,2.7850 L 23.8557,2.7751 L 23.8253,2.7453 L 23.8151,2.7453 L 23.8151,2.7353 L 23.8050,2.7353 L 23.7948,2.7254 L 23.7847,2.7254 Z" stroke="#FFFFFF" stroke-width="0.1199" stroke-linecap="round" stroke-linejoin="round" fill="#FFFFFF"/>
        <path d="M 24.4848,2.4369 L 24.1804,2.4369 L 24.1703,2.4270 L 24.1601,2.4270 L 24.1297,2.3971 L 24.1297,2.3872 L 24.1195,2.3772 L 24.1195,2.2479 L 24.1297,2.2380 L 24.1297,2.2280 L 24.1398,2.2181 L 24.1500,2.2181 L 24.1500,2.2081 L 24.1601,2.1982 L 24.1703,2.1982 L 24.1804,2.1882 L 25.5604,2.1882 L 25.5706,2.1982 L 25.5807,2.1982 L 25.6111,2.2280 L 25.6111,2.2380 L 25.6213,2.2479 L 25.6213,2.4767 L 25.6111,2.4767 L 25.6111,2.4668 L 25.6010,2.4668 L 25.6010,2.4568 L 25.5909,2.4568 L 25.5909,2.4469 L 25.5706,2.4469 L 25.5706,2.4369 L 24.8197,2.4369 L 24.8197,2.4469 L 24.7994,2.4469 L 24.7994,2.4568 L 24.7892,2.4568 L 24.7892,2.4767 L 24.7791,2.4767 L 24.7791,3.4216 L 24.7892,3.4216 L 24.7892,3.4415 L 24.7994,3.4415 L 24.7994,3.4515 L 24.8095,3.4515 L 24.8095,3.4614 L 24.5457,3.4614 L 24.5356,3.4515 L 24.5254,3.4515 L 24.4950,3.4216 L 24.4950,3.4117 L 24.4848,3.4017 L 24.4848,2.4668 L 24.4848,2.4369 Z" stroke="#FFFFFF" stroke-width="0.1199" stroke-linecap="round" stroke-linejoin="round" fill="#FFFFFF"/>
        <path d="M 23.8862,3.2127 L 23.9064,3.2127 L 23.9064,3.2028 L 23.9267,3.2028 L 23.9267,3.1929 L 23.9369,3.1929 L 23.9369,3.1829 L 23.9470,3.1829 L 23.9470,3.1730 L 23.9572,3.1730 L 23.9572,3.4017 L 23.9470,3.4117 L 23.9470,3.4216 L 23.9369,3.4316 L 23.9369,3.4415 L 23.9267,3.4415 L 23.9166,3.4515 L 23.9064,3.4515 L 23.8963,3.4614 L 22.5163,3.4614 L 22.5062,3.4515 L 22.4960,3.4515 L 22.4656,3.4216 L 22.4656,3.4117 L 22.4554,3.4017 L 22.4554,2.2479 L 22.4656,2.2380 L 22.4656,2.2280 L 22.4757,2.2181 L 22.4859,2.2181 L 22.4859,2.2081 L 22.4960,2.1982 L 22.5062,2.1982 L 22.5163,2.1882 L 23.8963,2.1882 L 23.9064,2.1982 L 23.9166,2.1982 L 23.9470,2.2280 L 23.9470,2.2380 L 23.9572,2.2479 L 23.9572,2.4767 L 23.9470,2.4767 L 23.9470,2.4668 L 23.9369,2.4668 L 23.9369,2.4568 L 23.9267,2.4568 L 23.9267,2.4469 L 23.9064,2.4469 L 23.9064,2.4369 L 22.7903,2.4369 L 22.7903,2.4469 L 22.7700,2.4469 L 22.7700,2.4568 L 22.7598,2.4568 L 22.7598,2.4767 L 22.7497,2.4767 L 22.7497,3.2127 L 23.8760,3.2127 L 23.8862,3.2127 Z" stroke="#FFFFFF" stroke-width="0.1199" stroke-linecap="round" stroke-linejoin="round" fill="#FFFFFF"/>
        <path d="M 15.7787,3.0934 L 15.7787,3.4614 L 16.2657,3.4614 L 16.2657,3.0934 L 15.7787,3.0934 Z" stroke="#FFFFFF" stroke-width="0.1199" stroke-linecap="round" stroke-linejoin="round" fill="#FFFFFF"/>
        <path d="M 15.2713,2.6458 L 15.6873,2.6458 L 15.6873,3.0039 L 15.2713,3.0039 L 15.2713,2.6458 Z" stroke="#FFFFFF" stroke-width="0.1199" stroke-linecap="round" stroke-linejoin="round" fill="#FFFFFF"/>
        <path d="M 16.3570,3.0934 L 16.3570,3.4614 L 16.5092,3.4614 L 16.5194,3.4515 L 16.5600,3.4515 L 16.5701,3.4415 L 16.5904,3.4415 L 16.6107,3.4316 L 16.6209,3.4216 L 16.6412,3.4117 L 16.6615,3.3918 L 16.6817,3.3818 L 16.6919,3.3719 L 16.7020,3.3520 L 16.7122,3.3421 L 16.7528,3.2625 L 16.7528,3.2426 L 16.7629,3.2127 L 16.7629,3.1829 L 16.7731,3.1531 L 16.7731,3.0934 L 16.3672,3.0934 L 16.3570,3.0934 Z" stroke="#FFFFFF" stroke-width="0.1199" stroke-linecap="round" stroke-linejoin="round" fill="#FFFFFF"/>
        <path d="M 16.3570,2.6458 L 16.7731,2.6458 L 16.7731,3.0039 L 16.3570,3.0039 L 16.3570,2.6458 Z" stroke="#FFFFFF" stroke-width="0.1199" stroke-linecap="round" stroke-linejoin="round" fill="#FFFFFF"/>
        <path d="M 15.6873,3.0934 L 15.6873,3.4614 L 15.5351,3.4614 L 15.5250,3.4515 L 15.4844,3.4515 L 15.4742,3.4415 L 15.4540,3.4415 L 15.4337,3.4316 L 15.4235,3.4216 L 15.4032,3.4117 L 15.3829,3.3918 L 15.3626,3.3818 L 15.3525,3.3719 L 15.3423,3.3520 L 15.3322,3.3421 L 15.2916,3.2625 L 15.2916,3.2426 L 15.2815,3.2127 L 15.2815,3.1829 L 15.2713,3.1531 L 15.2713,3.0934 L 15.6772,3.0934 L 15.6873,3.0934 Z" stroke="#FFFFFF" stroke-width="0.1199" stroke-linecap="round" stroke-linejoin="round" fill="#FFFFFF"/>
        <path d="M 15.7787,2.1882 L 15.7787,2.5563 L 16.2657,2.5563 L 16.2657,2.1882 L 15.7787,2.1882 Z" stroke="#FFFFFF" stroke-width="0.1199" stroke-linecap="round" stroke-linejoin="round" fill="#FFFFFF"/>
        <path d="M 16.3570,2.5563 L 16.3570,2.1882 L 16.5092,2.1882 L 16.5194,2.1982 L 16.5600,2.1982 L 16.5701,2.2081 L 16.5904,2.2081 L 16.6107,2.2181 L 16.6209,2.2280 L 16.6412,2.2380 L 16.6615,2.2579 L 16.6817,2.2678 L 16.6919,2.2778 L 16.7020,2.2977 L 16.7122,2.3076 L 16.7528,2.3872 L 16.7528,2.4071 L 16.7629,2.4369 L 16.7629,2.4668 L 16.7731,2.4966 L 16.7731,2.5563 L 16.3672,2.5563 L 16.3570,2.5563 Z" stroke="#FFFFFF" stroke-width="0.1199" stroke-linecap="round" stroke-linejoin="round" fill="#FFFFFF"/>
        <path d="M 15.6873,2.5563 L 15.6873,2.1882 L 15.5351,2.1882 L 15.5250,2.1982 L 15.4844,2.1982 L 15.4742,2.2081 L 15.4540,2.2081 L 15.4337,2.2181 L 15.4235,2.2280 L 15.4032,2.2380 L 15.3829,2.2579 L 15.3626,2.2678 L 15.3525,2.2778 L 15.3423,2.2977 L 15.3322,2.3076 L 15.2916,2.3872 L 15.2916,2.4071 L 15.2815,2.4369 L 15.2815,2.4668 L 15.2713,2.4966 L 15.2713,2.5563 L 15.6772,2.5563 L 15.6873,2.5563 Z" stroke="#FFFFFF" stroke-width="0.1199" stroke-linecap="round" stroke-linejoin="round" fill="#FFFFFF"/>
        <text font-family="Symbol" fill="#FFFFFF" style="white-space:pre;" text-anchor="start" x="25.1332" y="3.4393" font-size="0.4130"><![CDATA[]]></text>
        <ellipse cx="20.6986" cy="4.2871" rx="0.2924" ry="0.2923" fill="#000000" stroke="#000000" stroke-width="0.1199" stroke-linecap="round" stroke-linejoin="round"/>
        <ellipse cx="20.6986" cy="4.2871" rx="0.2924" ry="0.2923" fill="none" stroke="#7F7F7F" stroke-width="0.1199" stroke-linecap="round" stroke-linejoin="round"/>
        <text font-family="Arial" fill="#FFFFFF" style="white-space:pre;" font-weight="400" text-anchor="start" x="25.2184" y="8.8774" font-size="0.1340"><![CDATA[CONSOLE]]></text>
        <text font-family="Arial" fill="#FF0000" style="white-space:pre;" font-weight="400" text-anchor="start" x="25.2184" y="9.9638" font-size="0.1096"><![CDATA[PoE]]></text>
        <text font-family="Arial" fill="#FF0000" style="white-space:pre;" font-weight="400" text-anchor="start" x="25.1331" y="10.1952" font-size="0.1096"><![CDATA[7]]></text>
        <ellipse cx="21.7461" cy="27.5343" rx="0.2631" ry="0.2631" fill="#00FF00" stroke="#000000" stroke-width="0.1199" stroke-linecap="round" stroke-linejoin="round"/>
        <ellipse cx="21.7461" cy="27.5343" rx="0.2631" ry="0.2631" fill="none" stroke="#000000" stroke-width="0.1199" stroke-linecap="round" stroke-linejoin="round"/>
        <ellipse cx="20.3427" cy="27.5343" rx="0.2631" ry="0.2631" fill="#00FF00" stroke="#000000" stroke-width="0.1199" stroke-linecap="round" stroke-linejoin="round"/>
        <ellipse cx="20.3427" cy="27.5343" rx="0.2631" ry="0.2631" fill="none" stroke="#000000" stroke-width="0.1199" stroke-linecap="round" stroke-linejoin="round"/>
        <ellipse cx="21.7461" cy="31.3530" rx="0.2631" ry="0.2631" fill="#00FF00" stroke="#000000" stroke-width="0.1199" stroke-linecap="round" stroke-linejoin="round"/>
        <ellipse cx="21.7461" cy="31.3530" rx="0.2631" ry="0.2631" fill="none" stroke="#000000" stroke-width="0.1199" stroke-linecap="round" stroke-linejoin="round"/>
        <ellipse cx="20.3427" cy="31.3530" rx="0.2631" ry="0.2631" fill="#00FF00" stroke="#000000" stroke-width="0.1199" stroke-linecap="round" stroke-linejoin="round"/>
        <ellipse cx="20.3427" cy="31.3530" rx="0.2631" ry="0.2631" fill="none" stroke="#000000" stroke-width="0.1199" stroke-linecap="round" stroke-linejoin="round"/>
        <ellipse cx="21.7461" cy="35.1178" rx="0.2631" ry="0.2631" fill="#00FF00" stroke="#000000" stroke-width="0.1199" stroke-linecap="round" stroke-linejoin="round"/>
        <ellipse cx="21.7461" cy="35.1178" rx="0.2631" ry="0.2631" fill="none" stroke="#000000" stroke-width="0.1199" stroke-linecap="round" stroke-linejoin="round"/>
        <ellipse cx="20.3427" cy="35.1178" rx="0.2631" ry="0.2631" fill="#00FF00" stroke="#000000" stroke-width="0.1199" stroke-linecap="round" stroke-linejoin="round"/>
        <ellipse cx="20.3427" cy="35.1178" rx="0.2631" ry="0.2631" fill="none" stroke="#000000" stroke-width="0.1199" stroke-linecap="round" stroke-linejoin="round"/>
        <ellipse cx="21.7461" cy="38.9501" rx="0.2631" ry="0.2631" fill="#00FF00" stroke="#000000" stroke-width="0.1199" stroke-linecap="round" stroke-linejoin="round"/>
        <ellipse cx="21.7461" cy="38.9501" rx="0.2631" ry="0.2631" fill="none" stroke="#000000" stroke-width="0.1199" stroke-linecap="round" stroke-linejoin="round"/>
        <ellipse cx="20.3427" cy="38.9501" rx="0.2631" ry="0.2631" fill="#00FF00" stroke="#000000" stroke-width="0.1199" stroke-linecap="round" stroke-linejoin="round"/>
        <ellipse cx="20.3427" cy="38.9501" rx="0.2631" ry="0.2631" fill="none" stroke="#000000" stroke-width="0.1199" stroke-linecap="round" stroke-linejoin="round"/>
        <text font-family="Arial" fill="#FF0000" style="white-space:pre;" font-weight="400" text-anchor="start" x="25.6392" y="45.5567" font-size="0.1214"><![CDATA[8]]></text>
        <text font-family="Arial" fill="#FF0000" style="white-space:pre;" font-weight="400" text-anchor="start" x="25.3153" y="46.4878" font-size="0.1214"><![CDATA[5]]></text>
        <text font-family="Arial" fill="#FF0000" style="white-space:pre;" font-weight="400" text-anchor="start" x="25.6392" y="46.4878" font-size="0.1214"><![CDATA[6]]></text>
        <text font-family="Arial" fill="#FF0000" style="white-space:pre;" font-weight="400" text-anchor="start" x="25.3153" y="47.3784" font-size="0.1214"><![CDATA[3]]></text>
        <text font-family="Arial" fill="#FF0000" style="white-space:pre;" font-weight="400" text-anchor="start" x="25.6392" y="47.3784" font-size="0.1214"><![CDATA[4]]></text>
        <text font-family="Arial" fill="#FF0000" style="white-space:pre;" font-weight="400" text-anchor="start" x="25.3153" y="48.3094" font-size="0.1214"><![CDATA[1]]></text>
        <text font-family="Arial" fill="#FF0000" style="white-space:pre;" font-weight="400" text-anchor="start" x="25.6392" y="48.3094" font-size="0.1214"><![CDATA[2]]></text>
        <text font-family="Arial" fill="#FFFFFF" style="white-space:pre;" font-weight="400" text-anchor="start" x="22.8729" y="49.1447" font-size="0.2699"><![CDATA[FortiSwitchRugged 112D-]]></text>
        <text font-family="Arial" fill="#FF0000" style="white-space:pre;" font-weight="400" text-anchor="start" x="25.9901" y="49.1447" font-size="0.2699"><![CDATA[POE]]></text>
        <path d="M 7.3655,38.6606 L 9.4878,38.6606 L 9.4878,37.7680 L 9.9872,37.7680 L 9.9872,37.4054 L 10.4865,37.4054 L 10.4865,36.3455 L 9.9872,36.3455 L 9.9872,35.9829 L 9.4878,35.9829 L 9.4878,35.0903 L 7.3655,35.0903 L 7.3655,38.6606 Z" stroke="#161616" stroke-width="0.1199" stroke-linecap="round" stroke-linejoin="round" fill="#000000"/>
        <path d="M 5.8813,35.0903 L 3.7591,35.0903 L 3.7591,35.9829 L 3.2597,35.9829 L 3.2597,36.3455 L 2.7603,36.3455 L 2.7603,37.4054 L 3.2597,37.4054 L 3.2597,37.7680 L 3.7591,37.7680 L 3.7591,38.6606 L 5.8813,38.6606 L 5.8813,35.0903 Z" stroke="#161616" stroke-width="0.1199" stroke-linecap="round" stroke-linejoin="round" fill="#000000"/>
        <path d="M 7.3655,34.6579 L 9.4878,34.6579 L 9.4878,33.7653 L 9.9872,33.7653 L 9.9872,33.4027 L 10.4865,33.4027 L 10.4865,32.3427 L 9.9872,32.3427 L 9.9872,31.9801 L 9.4878,31.9801 L 9.4878,31.0875 L 7.3655,31.0875 L 7.3655,34.6579 Z" stroke="#161616" stroke-width="0.1199" stroke-linecap="round" stroke-linejoin="round" fill="#000000"/>
        <path d="M 5.8813,31.0875 L 3.7591,31.0875 L 3.7591,31.9801 L 3.2597,31.9801 L 3.2597,32.3427 L 2.7603,32.3427 L 2.7603,33.4027 L 3.2597,33.4027 L 3.2597,33.7653 L 3.7591,33.7653 L 3.7591,34.6579 L 5.8813,34.6579 L 5.8813,31.0875 Z" stroke="#161616" stroke-width="0.1199" stroke-linecap="round" stroke-linejoin="round" fill="#000000"/>
        <path d="M 7.3655,30.6691 L 9.4878,30.6691 L 9.4878,29.7765 L 9.9872,29.7765 L 9.9872,29.4139 L 10.4865,29.4139 L 10.4865,28.3539 L 9.9872,28.3539 L 9.9872,27.9913 L 9.4878,27.9913 L 9.4878,27.0987 L 7.3655,27.0987 L 7.3655,30.6691 Z" stroke="#161616" stroke-width="0.1199" stroke-linecap="round" stroke-linejoin="round" fill="#000000"/>
        <path d="M 5.8813,27.0987 L 3.7591,27.0987 L 3.7591,27.9913 L 3.2597,27.9913 L 3.2597,28.3539 L 2.7603,28.3539 L 2.7603,29.4139 L 3.2597,29.4139 L 3.2597,29.7765 L 3.7591,29.7765 L 3.7591,30.6691 L 5.8813,30.6691 L 5.8813,27.0987 Z" stroke="#161616" stroke-width="0.1199" stroke-linecap="round" stroke-linejoin="round" fill="#000000"/>
        <path d="M 7.3655,26.6803 L 9.4878,26.6803 L 9.4878,25.7877 L 9.9872,25.7877 L 9.9872,25.4251 L 10.4865,25.4251 L 10.4865,24.3651 L 9.9872,24.3651 L 9.9872,24.0025 L 9.4878,24.0025 L 9.4878,23.1099 L 7.3655,23.1099 L 7.3655,26.6803 Z" stroke="#161616" stroke-width="0.1199" stroke-linecap="round" stroke-linejoin="round" fill="#000000"/>
        <path d="M 5.8813,23.1099 L 3.7591,23.1099 L 3.7591,24.0025 L 3.2597,24.0025 L 3.2597,24.3651 L 2.7603,24.3651 L 2.7603,25.4251 L 3.2597,25.4251 L 3.2597,25.7877 L 3.7591,25.7877 L 3.7591,26.6803 L 5.8813,26.6803 L 5.8813,23.1099 Z" stroke="#161616" stroke-width="0.1199" stroke-linecap="round" stroke-linejoin="round" fill="#000000"/>
        <path d="M 5.4264,17.3154 L 5.4264,21.2788 L 2.7547,21.2788 L 2.7547,17.3154 L 5.4264,17.3154 Z" stroke="#000000" stroke-width="0.1199" stroke-linecap="round" stroke-linejoin="round" fill="none"/>
        <path d="M 2.7547,21.2308 L 2.7547,17.3228 L 5.4264,17.3228 L 5.4264,21.2308 L 2.7547,21.2308 Z" stroke="#000000" stroke-width="0.1199" stroke-linecap="round" stroke-linejoin="round" fill="#DDDDDD"/>
        <path d="M 2.8113,21.1052 L 2.8113,17.4228 L 5.3696,17.4228 L 5.3696,21.1052 L 2.8113,21.1052 Z" stroke="#000000" stroke-width="0.1199" stroke-linecap="round" stroke-linejoin="round" fill="#999974"/>
        <path d="M 5.1307,21.0503 L 5.1728,21.0503 L 5.2572,21.0090 L 5.2993,20.9266 L 5.2993,17.6014 L 5.2572,17.5190 L 5.1728,17.4778 L 2.9941,17.4778 L 2.9097,17.5190 L 2.8675,17.6014 L 2.8675,20.9266 L 2.9097,21.0090 L 2.9941,21.0503 L 3.0362,21.0503 L 5.1307,21.0503 Z" stroke="#7F7F7F" stroke-width="0.1199" stroke-linecap="round" stroke-linejoin="round" fill="#CCCCB9"/>
        <path d="M 3.0362,17.6976 L 4.5684,17.6976 L 4.5684,17.8213 L 4.7230,17.8213 L 4.7230,17.6976 L 4.9620,17.6976 L 4.9620,17.9587 L 5.2431,17.9587 L 5.2431,18.8518 L 4.9620,18.8518 L 4.9620,19.1266 L 4.7230,19.1266 L 4.7230,19.0030 L 4.5684,19.0030 L 4.5684,19.1266 L 3.0362,19.1266 L 3.0362,17.6976 Z" stroke="#000000" stroke-width="0.1199" stroke-linecap="round" stroke-linejoin="round" fill="#938476"/>
        <path d="M 4.8355,17.6976 L 4.9620,17.6976 L 4.9620,17.9587 L 5.2572,17.9587 L 5.2572,18.8518 L 4.9620,18.8518 L 4.9620,19.1266 L 4.8355,19.1266 L 4.8355,17.6976 Z" stroke="#000000" stroke-width="0.1199" stroke-linecap="round" stroke-linejoin="round" fill="#938476"/>
        <path d="M 4.8355,17.6976 L 4.7792,17.6976 L 4.7792,19.1266 L 4.8355,19.1266 L 4.8355,17.6976 Z" stroke="#000000" stroke-width="0.1199" stroke-linecap="round" stroke-linejoin="round" fill="#706257"/>
        <path d="M 4.1889,17.6976 L 4.1889,19.0991 " stroke="#000000" stroke-width="0.1199" stroke-linecap="round" stroke-linejoin="round" fill="none"/>
        <path d="M 3.0362,18.9205 L 3.0924,18.9755 L 3.1206,18.9892 L 3.1487,19.0167 L 3.1768,19.0304 L 3.2190,19.0442 L 3.2752,19.0717 L 3.3174,19.0854 L 3.3736,19.1129 L 3.4439,19.1129 L 3.4860,19.1266 L 3.6266,19.1266 L 3.6688,19.1129 L 3.7391,19.1129 L 3.7953,19.0854 L 3.8374,19.0717 L 3.8937,19.0442 L 3.9358,19.0304 L 3.9640,19.0167 L 3.9921,18.9892 L 4.0202,18.9755 L 4.1326,18.8655 L 4.1467,18.8381 L 4.1748,18.8106 L 4.1889,18.7831 L 4.2029,18.7419 L 4.2310,18.6869 L 4.2451,18.6457 L 4.2732,18.5907 L 4.2732,18.5220 L 4.2873,18.4808 L 4.2873,18.3434 L 4.2732,18.3022 L 4.2732,18.2335 L 4.2451,18.1785 L 4.2310,18.1373 L 4.2029,18.0823 L 4.1889,18.0411 L 4.1748,18.0136 L 4.1467,17.9862 L 4.1326,17.9587 L 4.0202,17.8488 L 3.9921,17.8350 L 3.9640,17.8075 L 3.9358,17.7938 L 3.8937,17.7801 L 3.8374,17.7526 L 3.7953,17.7388 L 3.7391,17.7114 L 3.6688,17.7114 L 3.6266,17.6976 L 3.4860,17.6976 L 3.4439,17.7114 L 3.3736,17.7114 L 3.3174,17.7388 L 3.2752,17.7526 L 3.2190,17.7801 L 3.1768,17.7938 L 3.1487,17.8075 L 3.1206,17.8350 L 3.0924,17.8488 L 3.0362,17.9037 L 3.0362,18.9068 L 3.0362,18.9205 Z" stroke="#000000" stroke-width="0.1199" stroke-linecap="round" stroke-linejoin="round" fill="#A09183"/>
        <ellipse cx="3.4931" cy="18.3503" rx="0.2882" ry="0.2817" fill="none" stroke="#494949" stroke-width="0.1199" stroke-linecap="round" stroke-linejoin="round"/>
        <ellipse cx="3.4931" cy="18.3503" rx="0.1757" ry="0.1718" fill="#706257" stroke="#000000" stroke-width="0.1199" stroke-linecap="round" stroke-linejoin="round"/>
        <ellipse cx="3.4931" cy="18.3503" rx="0.1757" ry="0.1718" fill="none" stroke="#000000" stroke-width="0.1199" stroke-linecap="round" stroke-linejoin="round"/>
        <ellipse cx="3.4931" cy="18.3503" rx="0.1617" ry="0.1580" fill="#9B8C81" stroke="#000000" stroke-width="0.1199" stroke-linecap="round" stroke-linejoin="round"/>
        <ellipse cx="3.4931" cy="18.3503" rx="0.1617" ry="0.1580" fill="none" stroke="#000000" stroke-width="0.1199" stroke-linecap="round" stroke-linejoin="round"/>
        <path d="M 3.7672,18.4533 L 3.7672,18.3846 L 3.3314,18.3846 L 3.3314,18.4533 L 3.7672,18.4533 Z" stroke="#000000" stroke-width="0.1199" stroke-linecap="round" stroke-linejoin="round" fill="#4F443C"/>
        <path d="M 3.0362,19.3465 L 4.5684,19.3465 L 4.5684,19.4701 L 4.7230,19.4701 L 4.7230,19.3465 L 4.9620,19.3465 L 4.9620,19.6075 L 5.2431,19.6075 L 5.2431,20.5007 L 4.9620,20.5007 L 4.9620,20.7755 L 4.7230,20.7755 L 4.7230,20.6518 L 4.5684,20.6518 L 4.5684,20.7755 L 3.0362,20.7755 L 3.0362,19.3465 Z" stroke="#000000" stroke-width="0.1199" stroke-linecap="round" stroke-linejoin="round" fill="#938476"/>
        <path d="M 4.8355,19.3465 L 4.9620,19.3465 L 4.9620,19.6075 L 5.2572,19.6075 L 5.2572,20.5007 L 4.9620,20.5007 L 4.9620,20.7755 L 4.8355,20.7755 L 4.8355,19.3465 Z" stroke="#000000" stroke-width="0.1199" stroke-linecap="round" stroke-linejoin="round" fill="#938476"/>
        <path d="M 4.8355,19.3465 L 4.7792,19.3465 L 4.7792,20.7755 L 4.8355,20.7755 L 4.8355,19.3465 Z" stroke="#000000" stroke-width="0.1199" stroke-linecap="round" stroke-linejoin="round" fill="#706257"/>
        <path d="M 4.1889,19.3465 L 4.1889,20.7480 " stroke="#000000" stroke-width="0.1199" stroke-linecap="round" stroke-linejoin="round" fill="none"/>
        <path d="M 3.0362,20.5694 L 3.0924,20.6243 L 3.1206,20.6381 L 3.1487,20.6655 L 3.1768,20.6793 L 3.2190,20.6930 L 3.2752,20.7205 L 3.3174,20.7342 L 3.3736,20.7617 L 3.4439,20.7617 L 3.4860,20.7755 L 3.6266,20.7755 L 3.6688,20.7617 L 3.7391,20.7617 L 3.7953,20.7342 L 3.8374,20.7205 L 3.8937,20.6930 L 3.9358,20.6793 L 3.9640,20.6655 L 3.9921,20.6381 L 4.0202,20.6243 L 4.1326,20.5144 L 4.1467,20.4869 L 4.1748,20.4594 L 4.1889,20.4320 L 4.2029,20.3907 L 4.2310,20.3358 L 4.2451,20.2945 L 4.2732,20.2396 L 4.2732,20.1709 L 4.2873,20.1297 L 4.2873,19.9923 L 4.2732,19.9510 L 4.2732,19.8823 L 4.2451,19.8274 L 4.2310,19.7862 L 4.2029,19.7312 L 4.1889,19.6900 L 4.1748,19.6625 L 4.1467,19.6350 L 4.1326,19.6075 L 4.0202,19.4976 L 3.9921,19.4839 L 3.9640,19.4564 L 3.9358,19.4426 L 3.8937,19.4289 L 3.8374,19.4014 L 3.7953,19.3877 L 3.7391,19.3602 L 3.6688,19.3602 L 3.6266,19.3465 L 3.4860,19.3465 L 3.4439,19.3602 L 3.3736,19.3602 L 3.3174,19.3877 L 3.2752,19.4014 L 3.2190,19.4289 L 3.1768,19.4426 L 3.1487,19.4564 L 3.1206,19.4839 L 3.0924,19.4976 L 3.0362,19.5526 L 3.0362,20.5556 L 3.0362,20.5694 Z" stroke="#000000" stroke-width="0.1199" stroke-linecap="round" stroke-linejoin="round" fill="#A09183"/>
        <ellipse cx="3.4931" cy="19.9991" rx="0.2882" ry="0.2817" fill="none" stroke="#494949" stroke-width="0.1199" stroke-linecap="round" stroke-linejoin="round"/>
        <ellipse cx="3.4931" cy="19.9991" rx="0.1757" ry="0.1718" fill="#706257" stroke="#000000" stroke-width="0.1199" stroke-linecap="round" stroke-linejoin="round"/>
        <ellipse cx="3.4931" cy="19.9991" rx="0.1757" ry="0.1718" fill="none" stroke="#000000" stroke-width="0.1199" stroke-linecap="round" stroke-linejoin="round"/>
        <ellipse cx="3.4931" cy="20.0060" rx="0.1617" ry="0.1649" fill="#9B8C81" stroke="#000000" stroke-width="0.1199" stroke-linecap="round" stroke-linejoin="round"/>
        <ellipse cx="3.4931" cy="20.0060" rx="0.1617" ry="0.1649" fill="none" stroke="#000000" stroke-width="0.1199" stroke-linecap="round" stroke-linejoin="round"/>
        <path d="M 3.7672,20.1022 L 3.7672,20.0335 L 3.3314,20.0335 L 3.3314,20.1022 L 3.7672,20.1022 Z" stroke="#000000" stroke-width="0.1199" stroke-linecap="round" stroke-linejoin="round" fill="#4F443C"/>
        <path d="M 5.4264,13.3238 L 5.4264,17.2873 L 2.7547,17.2873 L 2.7547,13.3238 L 5.4264,13.3238 Z" stroke="#000000" stroke-width="0.1199" stroke-linecap="round" stroke-linejoin="round" fill="none"/>
        <path d="M 2.7547,17.2396 L 2.7547,13.3316 L 5.4264,13.3316 L 5.4264,17.2396 L 2.7547,17.2396 Z" stroke="#000000" stroke-width="0.1199" stroke-linecap="round" stroke-linejoin="round" fill="#DDDDDD"/>
        <path d="M 2.8113,17.1205 L 2.8113,13.4381 L 5.3696,13.4381 L 5.3696,17.1205 L 2.8113,17.1205 Z" stroke="#000000" stroke-width="0.1199" stroke-linecap="round" stroke-linejoin="round" fill="#999974"/>
        <path d="M 5.1307,17.0656 L 5.1728,17.0656 L 5.2572,17.0243 L 5.2993,16.9419 L 5.2993,13.6167 L 5.2572,13.5343 L 5.1728,13.4931 L 2.9941,13.4931 L 2.9097,13.5343 L 2.8675,13.6167 L 2.8675,16.9419 L 2.9097,17.0243 L 2.9941,17.0656 L 3.0362,17.0656 L 5.1307,17.0656 Z" stroke="#7F7F7F" stroke-width="0.1199" stroke-linecap="round" stroke-linejoin="round" fill="#CCCCB9"/>
        <path d="M 3.0362,13.7129 L 4.5684,13.7129 L 4.5684,13.8366 L 4.7230,13.8366 L 4.7230,13.7129 L 4.9620,13.7129 L 4.9620,13.9740 L 5.2431,13.9740 L 5.2431,14.8671 L 4.9620,14.8671 L 4.9620,15.1419 L 4.7230,15.1419 L 4.7230,15.0182 L 4.5684,15.0182 L 4.5684,15.1419 L 3.0362,15.1419 L 3.0362,13.7129 Z" stroke="#000000" stroke-width="0.1199" stroke-linecap="round" stroke-linejoin="round" fill="#938476"/>
        <path d="M 4.8355,13.7129 L 4.9620,13.7129 L 4.9620,13.9740 L 5.2572,13.9740 L 5.2572,14.8671 L 4.9620,14.8671 L 4.9620,15.1419 L 4.8355,15.1419 L 4.8355,13.7129 Z" stroke="#000000" stroke-width="0.1199" stroke-linecap="round" stroke-linejoin="round" fill="#938476"/>
        <path d="M 4.8355,13.7129 L 4.7792,13.7129 L 4.7792,15.1419 L 4.8355,15.1419 L 4.8355,13.7129 Z" stroke="#000000" stroke-width="0.1199" stroke-linecap="round" stroke-linejoin="round" fill="#706257"/>
        <path d="M 4.1889,13.7129 L 4.1889,15.1144 " stroke="#000000" stroke-width="0.1199" stroke-linecap="round" stroke-linejoin="round" fill="none"/>
        <path d="M 3.0362,14.9358 L 3.0924,14.9908 L 3.1206,15.0045 L 3.1487,15.0320 L 3.1768,15.0457 L 3.2190,15.0595 L 3.2752,15.0869 L 3.3174,15.1007 L 3.3736,15.1282 L 3.4439,15.1282 L 3.4860,15.1419 L 3.6266,15.1419 L 3.6688,15.1282 L 3.7391,15.1282 L 3.7953,15.1007 L 3.8374,15.0869 L 3.8937,15.0595 L 3.9358,15.0457 L 3.9640,15.0320 L 3.9921,15.0045 L 4.0202,14.9908 L 4.1326,14.8808 L 4.1467,14.8534 L 4.1748,14.8259 L 4.1889,14.7984 L 4.2029,14.7572 L 4.2310,14.7022 L 4.2451,14.6610 L 4.2732,14.6060 L 4.2732,14.5373 L 4.2873,14.4961 L 4.2873,14.3587 L 4.2732,14.3175 L 4.2732,14.2488 L 4.2451,14.1938 L 4.2310,14.1526 L 4.2029,14.0976 L 4.1889,14.0564 L 4.1748,14.0289 L 4.1467,14.0015 L 4.1326,13.9740 L 4.0202,13.8640 L 3.9921,13.8503 L 3.9640,13.8228 L 3.9358,13.8091 L 3.8937,13.7953 L 3.8374,13.7679 L 3.7953,13.7541 L 3.7391,13.7266 L 3.6688,13.7266 L 3.6266,13.7129 L 3.4860,13.7129 L 3.4439,13.7266 L 3.3736,13.7266 L 3.3174,13.7541 L 3.2752,13.7679 L 3.2190,13.7953 L 3.1768,13.8091 L 3.1487,13.8228 L 3.1206,13.8503 L 3.0924,13.8640 L 3.0362,13.9190 L 3.0362,14.9221 L 3.0362,14.9358 Z" stroke="#000000" stroke-width="0.1199" stroke-linecap="round" stroke-linejoin="round" fill="#A09183"/>
        <ellipse cx="3.4931" cy="14.3656" rx="0.2882" ry="0.2817" fill="none" stroke="#494949" stroke-width="0.1199" stroke-linecap="round" stroke-linejoin="round"/>
        <ellipse cx="3.4931" cy="14.3656" rx="0.1757" ry="0.1718" fill="#706257" stroke="#000000" stroke-width="0.1199" stroke-linecap="round" stroke-linejoin="round"/>
        <ellipse cx="3.4931" cy="14.3656" rx="0.1757" ry="0.1718" fill="none" stroke="#000000" stroke-width="0.1199" stroke-linecap="round" stroke-linejoin="round"/>
        <ellipse cx="3.4931" cy="14.3656" rx="0.1617" ry="0.1580" fill="#9B8C81" stroke="#000000" stroke-width="0.1199" stroke-linecap="round" stroke-linejoin="round"/>
        <ellipse cx="3.4931" cy="14.3656" rx="0.1617" ry="0.1580" fill="none" stroke="#000000" stroke-width="0.1199" stroke-linecap="round" stroke-linejoin="round"/>
        <path d="M 3.7672,14.4686 L 3.7672,14.3999 L 3.3314,14.3999 L 3.3314,14.4686 L 3.7672,14.4686 Z" stroke="#000000" stroke-width="0.1199" stroke-linecap="round" stroke-linejoin="round" fill="#4F443C"/>
        <path d="M 3.0362,15.3617 L 4.5684,15.3617 L 4.5684,15.4854 L 4.7230,15.4854 L 4.7230,15.3617 L 4.9620,15.3617 L 4.9620,15.6228 L 5.2431,15.6228 L 5.2431,16.5159 L 4.9620,16.5159 L 4.9620,16.7907 L 4.7230,16.7907 L 4.7230,16.6671 L 4.5684,16.6671 L 4.5684,16.7907 L 3.0362,16.7907 L 3.0362,15.3617 Z" stroke="#000000" stroke-width="0.1199" stroke-linecap="round" stroke-linejoin="round" fill="#938476"/>
        <path d="M 4.8355,15.3617 L 4.9620,15.3617 L 4.9620,15.6228 L 5.2572,15.6228 L 5.2572,16.5159 L 4.9620,16.5159 L 4.9620,16.7907 L 4.8355,16.7907 L 4.8355,15.3617 Z" stroke="#000000" stroke-width="0.1199" stroke-linecap="round" stroke-linejoin="round" fill="#938476"/>
        <path d="M 4.8355,15.3617 L 4.7792,15.3617 L 4.7792,16.7907 L 4.8355,16.7907 L 4.8355,15.3617 Z" stroke="#000000" stroke-width="0.1199" stroke-linecap="round" stroke-linejoin="round" fill="#706257"/>
        <path d="M 4.1889,15.3617 L 4.1889,16.7633 " stroke="#000000" stroke-width="0.1199" stroke-linecap="round" stroke-linejoin="round" fill="none"/>
        <path d="M 3.0362,16.5846 L 3.0924,16.6396 L 3.1206,16.6533 L 3.1487,16.6808 L 3.1768,16.6946 L 3.2190,16.7083 L 3.2752,16.7358 L 3.3174,16.7495 L 3.3736,16.7770 L 3.4439,16.7770 L 3.4860,16.7907 L 3.6266,16.7907 L 3.6688,16.7770 L 3.7391,16.7770 L 3.7953,16.7495 L 3.8374,16.7358 L 3.8937,16.7083 L 3.9358,16.6946 L 3.9640,16.6808 L 3.9921,16.6533 L 4.0202,16.6396 L 4.1326,16.5297 L 4.1467,16.5022 L 4.1748,16.4747 L 4.1889,16.4472 L 4.2029,16.4060 L 4.2310,16.3511 L 4.2451,16.3098 L 4.2732,16.2549 L 4.2732,16.1862 L 4.2873,16.1450 L 4.2873,16.0075 L 4.2732,15.9663 L 4.2732,15.8976 L 4.2451,15.8427 L 4.2310,15.8014 L 4.2029,15.7465 L 4.1889,15.7053 L 4.1748,15.6778 L 4.1467,15.6503 L 4.1326,15.6228 L 4.0202,15.5129 L 3.9921,15.4992 L 3.9640,15.4717 L 3.9358,15.4579 L 3.8937,15.4442 L 3.8374,15.4167 L 3.7953,15.4030 L 3.7391,15.3755 L 3.6688,15.3755 L 3.6266,15.3617 L 3.4860,15.3617 L 3.4439,15.3755 L 3.3736,15.3755 L 3.3174,15.4030 L 3.2752,15.4167 L 3.2190,15.4442 L 3.1768,15.4579 L 3.1487,15.4717 L 3.1206,15.4992 L 3.0924,15.5129 L 3.0362,15.5679 L 3.0362,16.5709 L 3.0362,16.5846 Z" stroke="#000000" stroke-width="0.1199" stroke-linecap="round" stroke-linejoin="round" fill="#A09183"/>
        <ellipse cx="3.4931" cy="16.0144" rx="0.2882" ry="0.2817" fill="none" stroke="#494949" stroke-width="0.1199" stroke-linecap="round" stroke-linejoin="round"/>
        <ellipse cx="3.4931" cy="16.0144" rx="0.1757" ry="0.1718" fill="#706257" stroke="#000000" stroke-width="0.1199" stroke-linecap="round" stroke-linejoin="round"/>
        <ellipse cx="3.4931" cy="16.0144" rx="0.1757" ry="0.1718" fill="none" stroke="#000000" stroke-width="0.1199" stroke-linecap="round" stroke-linejoin="round"/>
        <ellipse cx="3.4931" cy="16.0213" rx="0.1617" ry="0.1649" fill="#9B8C81" stroke="#000000" stroke-width="0.1199" stroke-linecap="round" stroke-linejoin="round"/>
        <ellipse cx="3.4931" cy="16.0213" rx="0.1617" ry="0.1649" fill="none" stroke="#000000" stroke-width="0.1199" stroke-linecap="round" stroke-linejoin="round"/>
        <path d="M 3.7672,16.1175 L 3.7672,16.0488 L 3.3314,16.0488 L 3.3314,16.1175 L 3.7672,16.1175 Z" stroke="#000000" stroke-width="0.1199" stroke-linecap="round" stroke-linejoin="round" fill="#4F443C"/>
        <path d="M 5.4264,9.3323 L 5.4264,13.2957 L 2.7547,13.2957 L 2.7547,9.3323 L 5.4264,9.3323 Z" stroke="#000000" stroke-width="0.1199" stroke-linecap="round" stroke-linejoin="round" fill="none"/>
        <path d="M 2.7547,13.2346 L 2.7547,9.3266 L 5.4264,9.3266 L 5.4264,13.2346 L 2.7547,13.2346 Z" stroke="#000000" stroke-width="0.1199" stroke-linecap="round" stroke-linejoin="round" fill="#DDDDDD"/>
        <path d="M 2.8113,13.1221 L 2.8113,9.4396 L 5.3696,9.4396 L 5.3696,13.1221 L 2.8113,13.1221 Z" stroke="#000000" stroke-width="0.1199" stroke-linecap="round" stroke-linejoin="round" fill="#999974"/>
        <path d="M 5.1307,13.0671 L 5.1728,13.0671 L 5.2572,13.0259 L 5.2993,12.9434 L 5.2993,9.6183 L 5.2572,9.5358 L 5.1728,9.4946 L 2.9941,9.4946 L 2.9097,9.5358 L 2.8675,9.6183 L 2.8675,12.9434 L 2.9097,13.0259 L 2.9941,13.0671 L 3.0362,13.0671 L 5.1307,13.0671 Z" stroke="#7F7F7F" stroke-width="0.1199" stroke-linecap="round" stroke-linejoin="round" fill="#CCCCB9"/>
        <path d="M 3.0362,9.7145 L 4.5684,9.7145 L 4.5684,9.8381 L 4.7230,9.8381 L 4.7230,9.7145 L 4.9620,9.7145 L 4.9620,9.9755 L 5.2431,9.9755 L 5.2431,10.8686 L 4.9620,10.8686 L 4.9620,11.1435 L 4.7230,11.1435 L 4.7230,11.0198 L 4.5684,11.0198 L 4.5684,11.1435 L 3.0362,11.1435 L 3.0362,9.7145 Z" stroke="#000000" stroke-width="0.1199" stroke-linecap="round" stroke-linejoin="round" fill="#938476"/>
        <path d="M 4.8355,9.7145 L 4.9620,9.7145 L 4.9620,9.9755 L 5.2572,9.9755 L 5.2572,10.8686 L 4.9620,10.8686 L 4.9620,11.1435 L 4.8355,11.1435 L 4.8355,9.7145 Z" stroke="#000000" stroke-width="0.1199" stroke-linecap="round" stroke-linejoin="round" fill="#938476"/>
        <path d="M 4.8355,9.7145 L 4.7792,9.7145 L 4.7792,11.1435 L 4.8355,11.1435 L 4.8355,9.7145 Z" stroke="#000000" stroke-width="0.1199" stroke-linecap="round" stroke-linejoin="round" fill="#706257"/>
        <path d="M 4.1889,9.7145 L 4.1889,11.1160 " stroke="#000000" stroke-width="0.1199" stroke-linecap="round" stroke-linejoin="round" fill="none"/>
        <path d="M 3.0362,10.9373 L 3.0924,10.9923 L 3.1206,11.0060 L 3.1487,11.0335 L 3.1768,11.0473 L 3.2190,11.0610 L 3.2752,11.0885 L 3.3174,11.1022 L 3.3736,11.1297 L 3.4439,11.1297 L 3.4860,11.1435 L 3.6266,11.1435 L 3.6688,11.1297 L 3.7391,11.1297 L 3.7953,11.1022 L 3.8374,11.0885 L 3.8937,11.0610 L 3.9358,11.0473 L 3.9640,11.0335 L 3.9921,11.0060 L 4.0202,10.9923 L 4.1326,10.8824 L 4.1467,10.8549 L 4.1748,10.8274 L 4.1889,10.7999 L 4.2029,10.7587 L 4.2310,10.7038 L 4.2451,10.6625 L 4.2732,10.6076 L 4.2732,10.5389 L 4.2873,10.4977 L 4.2873,10.3602 L 4.2732,10.3190 L 4.2732,10.2503 L 4.2451,10.1954 L 4.2310,10.1541 L 4.2029,10.0992 L 4.1889,10.0580 L 4.1748,10.0305 L 4.1467,10.0030 L 4.1326,9.9755 L 4.0202,9.8656 L 3.9921,9.8519 L 3.9640,9.8244 L 3.9358,9.8106 L 3.8937,9.7969 L 3.8374,9.7694 L 3.7953,9.7557 L 3.7391,9.7282 L 3.6688,9.7282 L 3.6266,9.7145 L 3.4860,9.7145 L 3.4439,9.7282 L 3.3736,9.7282 L 3.3174,9.7557 L 3.2752,9.7694 L 3.2190,9.7969 L 3.1768,9.8106 L 3.1487,9.8244 L 3.1206,9.8519 L 3.0924,9.8656 L 3.0362,9.9206 L 3.0362,10.9236 L 3.0362,10.9373 Z" stroke="#000000" stroke-width="0.1199" stroke-linecap="round" stroke-linejoin="round" fill="#A09183"/>
        <ellipse cx="3.4931" cy="10.3671" rx="0.2882" ry="0.2817" fill="none" stroke="#494949" stroke-width="0.1199" stroke-linecap="round" stroke-linejoin="round"/>
        <ellipse cx="3.4931" cy="10.3671" rx="0.1757" ry="0.1718" fill="#706257" stroke="#000000" stroke-width="0.1199" stroke-linecap="round" stroke-linejoin="round"/>
        <ellipse cx="3.4931" cy="10.3671" rx="0.1757" ry="0.1718" fill="none" stroke="#000000" stroke-width="0.1199" stroke-linecap="round" stroke-linejoin="round"/>
        <ellipse cx="3.4931" cy="10.3671" rx="0.1617" ry="0.1580" fill="#9B8C81" stroke="#000000" stroke-width="0.1199" stroke-linecap="round" stroke-linejoin="round"/>
        <ellipse cx="3.4931" cy="10.3671" rx="0.1617" ry="0.1580" fill="none" stroke="#000000" stroke-width="0.1199" stroke-linecap="round" stroke-linejoin="round"/>
        <path d="M 3.7672,10.4702 L 3.7672,10.4015 L 3.3314,10.4015 L 3.3314,10.4702 L 3.7672,10.4702 Z" stroke="#000000" stroke-width="0.1199" stroke-linecap="round" stroke-linejoin="round" fill="#4F443C"/>
        <path d="M 3.0362,11.3633 L 4.5684,11.3633 L 4.5684,11.4870 L 4.7230,11.4870 L 4.7230,11.3633 L 4.9620,11.3633 L 4.9620,11.6244 L 5.2431,11.6244 L 5.2431,12.5175 L 4.9620,12.5175 L 4.9620,12.7923 L 4.7230,12.7923 L 4.7230,12.6686 L 4.5684,12.6686 L 4.5684,12.7923 L 3.0362,12.7923 L 3.0362,11.3633 Z" stroke="#000000" stroke-width="0.1199" stroke-linecap="round" stroke-linejoin="round" fill="#938476"/>
        <path d="M 4.8355,11.3633 L 4.9620,11.3633 L 4.9620,11.6244 L 5.2572,11.6244 L 5.2572,12.5175 L 4.9620,12.5175 L 4.9620,12.7923 L 4.8355,12.7923 L 4.8355,11.3633 Z" stroke="#000000" stroke-width="0.1199" stroke-linecap="round" stroke-linejoin="round" fill="#938476"/>
        <path d="M 4.8355,11.3633 L 4.7792,11.3633 L 4.7792,12.7923 L 4.8355,12.7923 L 4.8355,11.3633 Z" stroke="#000000" stroke-width="0.1199" stroke-linecap="round" stroke-linejoin="round" fill="#706257"/>
        <path d="M 4.1889,11.3633 L 4.1889,12.7648 " stroke="#000000" stroke-width="0.1199" stroke-linecap="round" stroke-linejoin="round" fill="none"/>
        <path d="M 3.0362,12.5862 L 3.0924,12.6412 L 3.1206,12.6549 L 3.1487,12.6824 L 3.1768,12.6961 L 3.2190,12.7099 L 3.2752,12.7373 L 3.3174,12.7511 L 3.3736,12.7786 L 3.4439,12.7786 L 3.4860,12.7923 L 3.6266,12.7923 L 3.6688,12.7786 L 3.7391,12.7786 L 3.7953,12.7511 L 3.8374,12.7373 L 3.8937,12.7099 L 3.9358,12.6961 L 3.9640,12.6824 L 3.9921,12.6549 L 4.0202,12.6412 L 4.1326,12.5312 L 4.1467,12.5037 L 4.1748,12.4763 L 4.1889,12.4488 L 4.2029,12.4076 L 4.2310,12.3526 L 4.2451,12.3114 L 4.2732,12.2564 L 4.2732,12.1877 L 4.2873,12.1465 L 4.2873,12.0091 L 4.2732,11.9679 L 4.2732,11.8992 L 4.2451,11.8442 L 4.2310,11.8030 L 4.2029,11.7480 L 4.1889,11.7068 L 4.1748,11.6793 L 4.1467,11.6518 L 4.1326,11.6244 L 4.0202,11.5144 L 3.9921,11.5007 L 3.9640,11.4732 L 3.9358,11.4595 L 3.8937,11.4457 L 3.8374,11.4183 L 3.7953,11.4045 L 3.7391,11.3770 L 3.6688,11.3770 L 3.6266,11.3633 L 3.4860,11.3633 L 3.4439,11.3770 L 3.3736,11.3770 L 3.3174,11.4045 L 3.2752,11.4183 L 3.2190,11.4457 L 3.1768,11.4595 L 3.1487,11.4732 L 3.1206,11.5007 L 3.0924,11.5144 L 3.0362,11.5694 L 3.0362,12.5725 L 3.0362,12.5862 Z" stroke="#000000" stroke-width="0.1199" stroke-linecap="round" stroke-linejoin="round" fill="#A09183"/>
        <ellipse cx="3.4931" cy="12.0160" rx="0.2882" ry="0.2817" fill="none" stroke="#494949" stroke-width="0.1199" stroke-linecap="round" stroke-linejoin="round"/>
        <ellipse cx="3.4931" cy="12.0160" rx="0.1757" ry="0.1718" fill="#706257" stroke="#000000" stroke-width="0.1199" stroke-linecap="round" stroke-linejoin="round"/>
        <ellipse cx="3.4931" cy="12.0160" rx="0.1757" ry="0.1718" fill="none" stroke="#000000" stroke-width="0.1199" stroke-linecap="round" stroke-linejoin="round"/>
        <ellipse cx="3.4931" cy="12.0160" rx="0.1617" ry="0.1580" fill="#9B8C81" stroke="#000000" stroke-width="0.1199" stroke-linecap="round" stroke-linejoin="round"/>
        <ellipse cx="3.4931" cy="12.0160" rx="0.1617" ry="0.1580" fill="none" stroke="#000000" stroke-width="0.1199" stroke-linecap="round" stroke-linejoin="round"/>
        <path d="M 3.7672,12.1190 L 3.7672,12.0503 L 3.3314,12.0503 L 3.3314,12.1190 L 3.7672,12.1190 Z" stroke="#000000" stroke-width="0.1199" stroke-linecap="round" stroke-linejoin="round" fill="#4F443C"/>
        <path d="M 5.4264,5.3408 L 5.4264,9.3042 L 2.7547,9.3042 L 2.7547,5.3408 L 5.4264,5.3408 Z" stroke="#000000" stroke-width="0.1199" stroke-linecap="round" stroke-linejoin="round" fill="none"/>
        <path d="M 2.7547,9.2434 L 2.7547,5.3354 L 5.4264,5.3354 L 5.4264,9.2434 L 2.7547,9.2434 Z" stroke="#000000" stroke-width="0.1199" stroke-linecap="round" stroke-linejoin="round" fill="#DDDDDD"/>
        <path d="M 2.8113,9.1374 L 2.8113,5.4549 L 5.3696,5.4549 L 5.3696,9.1374 L 2.8113,9.1374 Z" stroke="#000000" stroke-width="0.1199" stroke-linecap="round" stroke-linejoin="round" fill="#999974"/>
        <path d="M 5.1307,9.0824 L 5.1728,9.0824 L 5.2572,9.0412 L 5.2993,8.9587 L 5.2993,5.6336 L 5.2572,5.5511 L 5.1728,5.5099 L 2.9941,5.5099 L 2.9097,5.5511 L 2.8675,5.6336 L 2.8675,8.9587 L 2.9097,9.0412 L 2.9941,9.0824 L 3.0362,9.0824 L 5.1307,9.0824 Z" stroke="#7F7F7F" stroke-width="0.1199" stroke-linecap="round" stroke-linejoin="round" fill="#CCCCB9"/>
        <path d="M 3.0362,5.7297 L 4.5684,5.7297 L 4.5684,5.8534 L 4.7230,5.8534 L 4.7230,5.7297 L 4.9620,5.7297 L 4.9620,5.9908 L 5.2431,5.9908 L 5.2431,6.8839 L 4.9620,6.8839 L 4.9620,7.1587 L 4.7230,7.1587 L 4.7230,7.0351 L 4.5684,7.0351 L 4.5684,7.1587 L 3.0362,7.1587 L 3.0362,5.7297 Z" stroke="#000000" stroke-width="0.1199" stroke-linecap="round" stroke-linejoin="round" fill="#938476"/>
        <path d="M 4.8355,5.7297 L 4.9620,5.7297 L 4.9620,5.9908 L 5.2572,5.9908 L 5.2572,6.8839 L 4.9620,6.8839 L 4.9620,7.1587 L 4.8355,7.1587 L 4.8355,5.7297 Z" stroke="#000000" stroke-width="0.1199" stroke-linecap="round" stroke-linejoin="round" fill="#938476"/>
        <path d="M 4.8355,5.7297 L 4.7792,5.7297 L 4.7792,7.1587 L 4.8355,7.1587 L 4.8355,5.7297 Z" stroke="#000000" stroke-width="0.1199" stroke-linecap="round" stroke-linejoin="round" fill="#706257"/>
        <path d="M 4.1889,5.7297 L 4.1889,7.1313 " stroke="#000000" stroke-width="0.1199" stroke-linecap="round" stroke-linejoin="round" fill="none"/>
        <path d="M 3.0362,6.9526 L 3.0924,7.0076 L 3.1206,7.0213 L 3.1487,7.0488 L 3.1768,7.0626 L 3.2190,7.0763 L 3.2752,7.1038 L 3.3174,7.1175 L 3.3736,7.1450 L 3.4439,7.1450 L 3.4860,7.1587 L 3.6266,7.1587 L 3.6688,7.1450 L 3.7391,7.1450 L 3.7953,7.1175 L 3.8374,7.1038 L 3.8937,7.0763 L 3.9358,7.0626 L 3.9640,7.0488 L 3.9921,7.0213 L 4.0202,7.0076 L 4.1326,6.8977 L 4.1467,6.8702 L 4.1748,6.8427 L 4.1889,6.8152 L 4.2029,6.7740 L 4.2310,6.7190 L 4.2451,6.6778 L 4.2732,6.6229 L 4.2732,6.5542 L 4.2873,6.5129 L 4.2873,6.3755 L 4.2732,6.3343 L 4.2732,6.2656 L 4.2451,6.2107 L 4.2310,6.1694 L 4.2029,6.1145 L 4.1889,6.0732 L 4.1748,6.0458 L 4.1467,6.0183 L 4.1326,5.9908 L 4.0202,5.8809 L 3.9921,5.8671 L 3.9640,5.8397 L 3.9358,5.8259 L 3.8937,5.8122 L 3.8374,5.7847 L 3.7953,5.7710 L 3.7391,5.7435 L 3.6688,5.7435 L 3.6266,5.7297 L 3.4860,5.7297 L 3.4439,5.7435 L 3.3736,5.7435 L 3.3174,5.7710 L 3.2752,5.7847 L 3.2190,5.8122 L 3.1768,5.8259 L 3.1487,5.8397 L 3.1206,5.8671 L 3.0924,5.8809 L 3.0362,5.9358 L 3.0362,6.9389 L 3.0362,6.9526 Z" stroke="#000000" stroke-width="0.1199" stroke-linecap="round" stroke-linejoin="round" fill="#A09183"/>
        <ellipse cx="3.4931" cy="6.3824" rx="0.2882" ry="0.2817" fill="none" stroke="#494949" stroke-width="0.1199" stroke-linecap="round" stroke-linejoin="round"/>
        <ellipse cx="3.4931" cy="6.3824" rx="0.1757" ry="0.1718" fill="#706257" stroke="#000000" stroke-width="0.1199" stroke-linecap="round" stroke-linejoin="round"/>
        <ellipse cx="3.4931" cy="6.3824" rx="0.1757" ry="0.1718" fill="none" stroke="#000000" stroke-width="0.1199" stroke-linecap="round" stroke-linejoin="round"/>
        <ellipse cx="3.4931" cy="6.3824" rx="0.1617" ry="0.1580" fill="#9B8C81" stroke="#000000" stroke-width="0.1199" stroke-linecap="round" stroke-linejoin="round"/>
        <ellipse cx="3.4931" cy="6.3824" rx="0.1617" ry="0.1580" fill="none" stroke="#000000" stroke-width="0.1199" stroke-linecap="round" stroke-linejoin="round"/>
        <path d="M 3.7672,6.4855 L 3.7672,6.4168 L 3.3314,6.4168 L 3.3314,6.4855 L 3.7672,6.4855 Z" stroke="#000000" stroke-width="0.1199" stroke-linecap="round" stroke-linejoin="round" fill="#4F443C"/>
        <path d="M 3.0362,7.3786 L 4.5684,7.3786 L 4.5684,7.5022 L 4.7230,7.5022 L 4.7230,7.3786 L 4.9620,7.3786 L 4.9620,7.6397 L 5.2431,7.6397 L 5.2431,8.5328 L 4.9620,8.5328 L 4.9620,8.8076 L 4.7230,8.8076 L 4.7230,8.6839 L 4.5684,8.6839 L 4.5684,8.8076 L 3.0362,8.8076 L 3.0362,7.3786 Z" stroke="#000000" stroke-width="0.1199" stroke-linecap="round" stroke-linejoin="round" fill="#938476"/>
        <path d="M 4.8355,7.3786 L 4.9620,7.3786 L 4.9620,7.6397 L 5.2572,7.6397 L 5.2572,8.5328 L 4.9620,8.5328 L 4.9620,8.8076 L 4.8355,8.8076 L 4.8355,7.3786 Z" stroke="#000000" stroke-width="0.1199" stroke-linecap="round" stroke-linejoin="round" fill="#938476"/>
        <path d="M 4.8355,7.3786 L 4.7792,7.3786 L 4.7792,8.8076 L 4.8355,8.8076 L 4.8355,7.3786 Z" stroke="#000000" stroke-width="0.1199" stroke-linecap="round" stroke-linejoin="round" fill="#706257"/>
        <path d="M 4.1889,7.3786 L 4.1889,8.7801 " stroke="#000000" stroke-width="0.1199" stroke-linecap="round" stroke-linejoin="round" fill="none"/>
        <path d="M 3.0362,8.6015 L 3.0924,8.6564 L 3.1206,8.6702 L 3.1487,8.6977 L 3.1768,8.7114 L 3.2190,8.7251 L 3.2752,8.7526 L 3.3174,8.7664 L 3.3736,8.7938 L 3.4439,8.7938 L 3.4860,8.8076 L 3.6266,8.8076 L 3.6688,8.7938 L 3.7391,8.7938 L 3.7953,8.7664 L 3.8374,8.7526 L 3.8937,8.7251 L 3.9358,8.7114 L 3.9640,8.6977 L 3.9921,8.6702 L 4.0202,8.6564 L 4.1326,8.5465 L 4.1467,8.5190 L 4.1748,8.4916 L 4.1889,8.4641 L 4.2029,8.4229 L 4.2310,8.3679 L 4.2451,8.3267 L 4.2732,8.2717 L 4.2732,8.2030 L 4.2873,8.1618 L 4.2873,8.0244 L 4.2732,7.9832 L 4.2732,7.9145 L 4.2451,7.8595 L 4.2310,7.8183 L 4.2029,7.7633 L 4.1889,7.7221 L 4.1748,7.6946 L 4.1467,7.6671 L 4.1326,7.6397 L 4.0202,7.5297 L 3.9921,7.5160 L 3.9640,7.4885 L 3.9358,7.4748 L 3.8937,7.4610 L 3.8374,7.4335 L 3.7953,7.4198 L 3.7391,7.3923 L 3.6688,7.3923 L 3.6266,7.3786 L 3.4860,7.3786 L 3.4439,7.3923 L 3.3736,7.3923 L 3.3174,7.4198 L 3.2752,7.4335 L 3.2190,7.4610 L 3.1768,7.4748 L 3.1487,7.4885 L 3.1206,7.5160 L 3.0924,7.5297 L 3.0362,7.5847 L 3.0362,8.5877 L 3.0362,8.6015 Z" stroke="#000000" stroke-width="0.1199" stroke-linecap="round" stroke-linejoin="round" fill="#A09183"/>
        <ellipse cx="3.4931" cy="8.0313" rx="0.2882" ry="0.2817" fill="none" stroke="#494949" stroke-width="0.1199" stroke-linecap="round" stroke-linejoin="round"/>
        <ellipse cx="3.4931" cy="8.0313" rx="0.1757" ry="0.1718" fill="#706257" stroke="#000000" stroke-width="0.1199" stroke-linecap="round" stroke-linejoin="round"/>
        <ellipse cx="3.4931" cy="8.0313" rx="0.1757" ry="0.1718" fill="none" stroke="#000000" stroke-width="0.1199" stroke-linecap="round" stroke-linejoin="round"/>
        <ellipse cx="3.4931" cy="8.0313" rx="0.1617" ry="0.1580" fill="#9B8C81" stroke="#000000" stroke-width="0.1199" stroke-linecap="round" stroke-linejoin="round"/>
        <ellipse cx="3.4931" cy="8.0313" rx="0.1617" ry="0.1580" fill="none" stroke="#000000" stroke-width="0.1199" stroke-linecap="round" stroke-linejoin="round"/>
        <path d="M 3.7672,8.1343 L 3.7672,8.0656 L 3.3314,8.0656 L 3.3314,8.1343 L 3.7672,8.1343 Z" stroke="#000000" stroke-width="0.1199" stroke-linecap="round" stroke-linejoin="round" fill="#4F443C"/>
        <path d="M 20.6956,19.6511 L 22.8179,19.6511 L 22.8179,18.7585 L 23.3173,18.7585 L 23.3173,18.3959 L 23.8166,18.3959 L 23.8166,17.3359 L 23.3173,17.3359 L 23.3173,16.9733 L 22.8179,16.9733 L 22.8179,16.0807 L 20.6956,16.0807 L 20.6956,19.6511 Z" stroke="#161616" stroke-width="0.1199" stroke-linecap="round" stroke-linejoin="round" fill="#000000"/>
        <path d="M 22.1380,0.0000 L 21.8189,0.0000 L 21.8189,0.3191 L 22.1380,0.3191 L 22.1380,0.0000 Z" stroke="#000000" stroke-width="0.1199" stroke-linecap="round" stroke-linejoin="round" fill="none"/>
      </g>
      <!--emf-blob end-->
    </g>
  </g>
</svg>
