<svg xmlns="http://www.w3.org/2000/svg" xmlns:xlink="http://www.w3.org/1999/xlink" version="1.1" width="0.8660000000" height="1.7844000000" viewBox="0 0 15.5906 32.1165">
  <title><![CDATA[FSR-108F]]></title>
  <g transform=" scale(4.000000) ">
    <!--converted by libvisio2svg-->
    <g transform=" translate(0.000000,0.000000) ">
      <!--emf-blob start-->
      <g transform="translate(-0.0000, -0.0000)">
        <path d="M 15.5228,0.0281 L 0.0281,0.0281 L 0.0281,32.0603 L 15.5228,32.0603 L 15.5228,0.0281 Z" stroke="#000000" stroke-width="0.1198" stroke-linecap="round" stroke-linejoin="round" fill="#EFEFEF"/>
        <path d="M 0.6175,17.2103 L 0.6175,21.8044 L 8.2245,21.8044 L 8.2245,17.2103 L 0.6175,17.2103 Z" stroke="#000000" stroke-width="0.1198" stroke-linecap="round" stroke-linejoin="round" fill="#000000"/>
        <path d="M 15.5228,0.0281 L 15.1298,0.0281 L 15.1298,0.5058 L 15.5228,0.5058 L 15.5228,0.0281 Z" stroke="#7F7F7F" stroke-width="0.1198" stroke-linecap="round" stroke-linejoin="round" fill="#DDDDDD"/>
        <path d="M 0.4211,31.5826 L 0.0281,31.5826 L 0.0281,32.0603 L 0.4211,32.0603 L 0.4211,31.5826 Z" stroke="#7F7F7F" stroke-width="0.1198" stroke-linecap="round" stroke-linejoin="round" fill="#DDDDDD"/>
        <path d="M 15.5228,31.5826 L 15.1298,31.5826 L 15.1298,32.0603 L 15.5228,32.0603 L 15.5228,31.5826 Z" stroke="#7F7F7F" stroke-width="0.1198" stroke-linecap="round" stroke-linejoin="round" fill="#DDDDDD"/>
        <path d="M 2.4281,7.3337 L 2.4281,16.3111 L 9.7123,16.3111 L 9.7123,7.3337 L 2.4281,7.3337 Z" stroke="#000000" stroke-width="0.1198" stroke-linecap="round" stroke-linejoin="round" fill="#0A0A0A"/>
        <path d="M 2.4982,7.4180 L 2.4982,16.2268 L 9.6421,16.2268 L 9.6421,7.4180 L 2.4982,7.4180 Z" stroke="#000000" stroke-width="0.1198" stroke-linecap="round" stroke-linejoin="round" fill="#BFBFBF"/>
        <path d="M 2.4281,1.3347 L 2.4281,6.4626 L 9.7123,6.4626 L 9.7123,1.3347 L 2.4281,1.3347 Z" stroke="#000000" stroke-width="0.1198" stroke-linecap="round" stroke-linejoin="round" fill="#0A0A0A"/>
        <path d="M 2.4982,1.3768 L 2.4982,6.4064 L 9.6421,6.4064 L 9.6421,1.3768 L 2.4982,1.3768 Z" stroke="#000000" stroke-width="0.1198" stroke-linecap="round" stroke-linejoin="round" fill="#BFBFBF"/>
        <ellipse cx="12.4561" cy="15.5876" rx="0.4421" ry="0.4426" fill="#000000" stroke="#000000" stroke-width="0.1198" stroke-linecap="round" stroke-linejoin="round"/>
        <ellipse cx="12.4561" cy="15.5876" rx="0.4421" ry="0.4426" fill="none" stroke="#000000" stroke-width="0.1198" stroke-linecap="round" stroke-linejoin="round"/>
        <ellipse cx="12.4561" cy="15.5946" rx="0.3860" ry="0.3934" fill="#7F7F7F" stroke="#000000" stroke-width="0.1198" stroke-linecap="round" stroke-linejoin="round"/>
        <ellipse cx="12.4561" cy="15.5946" rx="0.3860" ry="0.3934" fill="none" stroke="#000000" stroke-width="0.1198" stroke-linecap="round" stroke-linejoin="round"/>
        <ellipse cx="10.7438" cy="15.5946" rx="0.2456" ry="0.2529" fill="#00FF00" stroke="#000000" stroke-width="0.1198" stroke-linecap="round" stroke-linejoin="round"/>
        <ellipse cx="10.7438" cy="15.5946" rx="0.2456" ry="0.2529" fill="none" stroke="#000000" stroke-width="0.1198" stroke-linecap="round" stroke-linejoin="round"/>
        <path d="M 14.1193,17.4210 L 11.4386,17.4210 L 11.4386,18.0251 L 10.4421,18.0251 L 10.4421,22.0713 L 11.4386,22.0713 L 11.4386,22.6754 L 14.1193,22.6754 L 14.1193,17.4210 Z" stroke="#000000" stroke-width="0.1198" stroke-linecap="round" stroke-linejoin="round" fill="#000000"/>
        <path d="M 14.0350,17.5334 L 11.4666,17.5334 L 11.4666,18.1094 L 10.5263,18.1094 L 10.5263,21.9870 L 11.4666,21.9870 L 11.4666,22.5630 L 14.0350,22.5630 L 14.0350,17.5334 Z" stroke="#000000" stroke-width="0.1198" stroke-linecap="round" stroke-linejoin="round" fill="#494949"/>
        <path d="M 11.1438,4.4396 L 11.1438,8.5981 L 14.1193,8.5981 L 14.1193,4.4396 L 11.1438,4.4396 Z" stroke="#000000" stroke-width="0.1198" stroke-linecap="round" stroke-linejoin="round" fill="#DDDDDD"/>
        <path d="M 11.2561,4.5519 L 11.2561,8.4857 L 14.0070,8.4857 L 14.0070,4.5519 L 11.2561,4.5519 Z" stroke="#000000" stroke-width="0.1198" stroke-linecap="round" stroke-linejoin="round" fill="#333333"/>
        <path d="M 11.2561,5.6337 L 11.2561,7.4039 L 11.4245,7.4039 L 11.4245,5.6337 L 11.2561,5.6337 Z" stroke="#000000" stroke-width="0.1198" stroke-linecap="round" stroke-linejoin="round" fill="#CCCCCC"/>
        <path d="M 11.1438,9.6097 L 11.1438,13.7682 L 14.1193,13.7682 L 14.1193,9.6097 L 11.1438,9.6097 Z" stroke="#000000" stroke-width="0.1198" stroke-linecap="round" stroke-linejoin="round" fill="#DDDDDD"/>
        <path d="M 11.2561,9.7221 L 11.2561,13.6558 L 14.0070,13.6558 L 14.0070,9.7221 L 11.2561,9.7221 Z" stroke="#000000" stroke-width="0.1198" stroke-linecap="round" stroke-linejoin="round" fill="#333333"/>
        <path d="M 11.2561,10.8038 L 11.2561,12.5740 L 11.4245,12.5740 L 11.4245,10.8038 L 11.2561,10.8038 Z" stroke="#000000" stroke-width="0.1198" stroke-linecap="round" stroke-linejoin="round" fill="#CCCCCC"/>
        <ellipse cx="10.5263" cy="11.6327" rx="0.3930" ry="0.3934" fill="#00FF00" stroke="#000000" stroke-width="0.1198" stroke-linecap="round" stroke-linejoin="round"/>
        <ellipse cx="10.5263" cy="11.6327" rx="0.3930" ry="0.3934" fill="none" stroke="#000000" stroke-width="0.1198" stroke-linecap="round" stroke-linejoin="round"/>
        <ellipse cx="10.5263" cy="6.4556" rx="0.3930" ry="0.3864" fill="#00FF00" stroke="#000000" stroke-width="0.1198" stroke-linecap="round" stroke-linejoin="round"/>
        <ellipse cx="10.5263" cy="6.4556" rx="0.3930" ry="0.3864" fill="none" stroke="#000000" stroke-width="0.1198" stroke-linecap="round" stroke-linejoin="round"/>
        <path d="M 0.7298,17.2805 L 0.7298,21.7341 L 8.1123,21.7341 L 8.1123,17.2805 L 0.7298,17.2805 Z" stroke="#000000" stroke-width="0.1198" stroke-linecap="round" stroke-linejoin="round" fill="#C1C1C1"/>
        <path d="M 4.8281,17.4351 L 4.8281,17.3789 L 4.8140,17.3367 L 4.8000,17.2805 L 4.7860,17.2384 L 4.7579,17.1962 L 4.7438,17.1541 L 4.7017,17.1119 L 4.6737,17.0698 L 4.6316,17.0417 L 4.5895,16.9995 L 4.5474,16.9855 L 4.5052,16.9574 L 4.4631,16.9434 L 4.4070,16.9293 L 4.3649,16.9153 L 4.3088,16.9153 L 0.8421,16.9153 L 0.7860,16.9153 L 0.7439,16.9293 L 0.6877,16.9434 L 0.6456,16.9574 L 0.6035,16.9855 L 0.5614,16.9995 L 0.5193,17.0417 L 0.4772,17.0698 L 0.4491,17.1119 L 0.4070,17.1541 L 0.3930,17.1962 L 0.3649,17.2384 L 0.3509,17.2805 L 0.3368,17.3367 L 0.3228,17.3789 L 0.3228,17.4351 L 0.3228,21.5655 L 0.3228,21.6217 L 0.3368,21.6639 L 0.3509,21.7201 L 0.3649,21.7622 L 0.3930,21.8044 L 0.4070,21.8465 L 0.4491,21.8887 L 0.4772,21.9308 L 0.5193,21.9589 L 0.5614,22.0011 L 0.6035,22.0151 L 0.6456,22.0432 L 0.6877,22.0573 L 0.7439,22.0713 L 0.7860,22.0854 L 0.8421,22.0854 L 4.3088,22.0854 L 4.3649,22.0854 L 4.4070,22.0713 L 4.4631,22.0573 L 4.5052,22.0432 L 4.5474,22.0151 L 4.5895,22.0011 L 4.6316,21.9589 L 4.6737,21.9308 L 4.7017,21.8887 L 4.7438,21.8465 L 4.7579,21.8044 L 4.7860,21.7622 L 4.8000,21.7201 L 4.8140,21.6639 L 4.8281,21.6217 L 4.8281,21.5655 L 4.8281,17.4351 Z" stroke="#7F7F7F" stroke-width="0.1198" stroke-linecap="round" stroke-linejoin="round" fill="#EFEFEF"/>
        <path d="M 0.4211,0.0281 L 0.0281,0.0281 L 0.0281,0.5058 L 0.4211,0.5058 L 0.4211,0.0281 Z" stroke="#7F7F7F" stroke-width="0.1198" stroke-linecap="round" stroke-linejoin="round" fill="#DDDDDD"/>
        <ellipse cx="1.6210" cy="2.9222" rx="0.2456" ry="0.2529" fill="#00FF00" stroke="#000000" stroke-width="0.1198" stroke-linecap="round" stroke-linejoin="round"/>
        <ellipse cx="1.6210" cy="2.9222" rx="0.2456" ry="0.2529" fill="none" stroke="#000000" stroke-width="0.1198" stroke-linecap="round" stroke-linejoin="round"/>
        <ellipse cx="1.6210" cy="4.7486" rx="0.2456" ry="0.2529" fill="#00FF00" stroke="#000000" stroke-width="0.1198" stroke-linecap="round" stroke-linejoin="round"/>
        <ellipse cx="1.6210" cy="4.7486" rx="0.2456" ry="0.2529" fill="none" stroke="#000000" stroke-width="0.1198" stroke-linecap="round" stroke-linejoin="round"/>
        <ellipse cx="1.2912" cy="17.9268" rx="0.5193" ry="0.5198" fill="#7F7F7F" stroke="#000000" stroke-width="0.1198" stroke-linecap="round" stroke-linejoin="round"/>
        <ellipse cx="1.2912" cy="17.9268" rx="0.5193" ry="0.5198" fill="none" stroke="#000000" stroke-width="0.1198" stroke-linecap="round" stroke-linejoin="round"/>
        <ellipse cx="1.2912" cy="17.9198" rx="0.3930" ry="0.3864" fill="#898989" stroke="#000000" stroke-width="0.1198" stroke-linecap="round" stroke-linejoin="round"/>
        <ellipse cx="1.2912" cy="17.9198" rx="0.3930" ry="0.3864" fill="none" stroke="#898989" stroke-width="0.1198" stroke-linecap="round" stroke-linejoin="round"/>
        <path d="M 0.9825,17.9549 L 0.9825,17.9408 L 0.9965,17.9408 L 0.9965,17.9268 L 1.0105,17.9268 L 1.0246,17.9268 L 1.0246,17.9127 L 1.0386,17.9127 L 1.0526,17.9127 L 1.0667,17.9127 L 1.0807,17.9127 L 1.0807,17.8987 L 1.0947,17.8987 L 1.1088,17.8987 L 1.1228,17.8987 L 1.1368,17.8987 L 1.1509,17.8987 L 1.1649,17.8987 L 1.1789,17.8987 L 1.1930,17.8987 L 1.2070,17.8987 L 1.2210,17.8846 L 1.2351,17.8706 L 1.2491,17.8706 L 1.2491,17.8565 L 1.2632,17.8425 L 1.2772,17.8285 L 1.2772,17.8144 L 1.2772,17.8004 L 1.2772,17.7863 L 1.2772,17.7723 L 1.2772,17.7582 L 1.2772,17.7442 L 1.2772,17.7301 L 1.2772,17.7161 L 1.2772,17.7020 L 1.2912,17.7020 L 1.2912,17.6880 L 1.2912,17.6739 L 1.2912,17.6599 L 1.3053,17.6458 L 1.3053,17.6318 L 1.3193,17.6318 L 1.3193,17.6177 L 1.3333,17.6177 L 1.3474,17.6177 L 1.3614,17.6177 L 1.3754,17.6177 L 1.3895,17.6177 L 1.3895,17.6318 L 1.4035,17.6458 L 1.4035,17.6599 L 1.4035,17.6739 L 1.4175,17.6739 L 1.4175,17.6880 L 1.4175,17.7020 L 1.4175,17.7161 L 1.4316,17.7301 L 1.4316,17.7442 L 1.4316,17.7582 L 1.4316,17.7723 L 1.4316,17.7863 L 1.4316,17.8004 L 1.4316,17.8144 L 1.4316,17.8285 L 1.4456,17.8425 L 1.4596,17.8565 L 1.4737,17.8706 L 1.4877,17.8846 L 1.5017,17.8987 L 1.5158,17.8987 L 1.5298,17.8987 L 1.5439,17.8987 L 1.5579,17.8987 L 1.5719,17.8987 L 1.5860,17.8987 L 1.6000,17.8987 L 1.6140,17.8987 L 1.6140,17.9127 L 1.6281,17.9127 L 1.6421,17.9127 L 1.6561,17.9127 L 1.6702,17.9127 L 1.6702,17.9268 L 1.6842,17.9268 L 1.6982,17.9268 L 1.6982,17.9408 L 1.7123,17.9408 L 1.7123,17.9549 L 1.7123,17.9689 L 1.7123,17.9830 L 1.7123,17.9970 L 1.7123,18.0111 L 1.7123,18.0251 L 1.6982,18.0251 L 1.6982,18.0392 L 1.6842,18.0392 L 1.6702,18.0392 L 1.6702,18.0532 L 1.6561,18.0532 L 1.6421,18.0532 L 1.6281,18.0532 L 1.6140,18.0532 L 1.6140,18.0673 L 1.6000,18.0673 L 1.5860,18.0673 L 1.5719,18.0673 L 1.5579,18.0673 L 1.5439,18.0673 L 1.5298,18.0673 L 1.5158,18.0673 L 1.5017,18.0673 L 1.4877,18.0813 L 1.4737,18.0954 L 1.4737,18.1094 L 1.4596,18.1094 L 1.4456,18.1235 L 1.4316,18.1375 L 1.4316,18.1516 L 1.4316,18.1656 L 1.4316,18.1797 L 1.4316,18.1937 L 1.4316,18.2078 L 1.4316,18.2218 L 1.4316,18.2359 L 1.4175,18.2499 L 1.4175,18.2640 L 1.4175,18.2780 L 1.4175,18.2921 L 1.4035,18.2921 L 1.4035,18.3061 L 1.4035,18.3202 L 1.3895,18.3342 L 1.3895,18.3483 L 1.3754,18.3483 L 1.3614,18.3483 L 1.3474,18.3483 L 1.3333,18.3483 L 1.3193,18.3483 L 1.3193,18.3342 L 1.3053,18.3342 L 1.3053,18.3202 L 1.2912,18.3061 L 1.2912,18.2921 L 1.2912,18.2780 L 1.2912,18.2640 L 1.2772,18.2640 L 1.2772,18.2499 L 1.2772,18.2359 L 1.2772,18.2218 L 1.2772,18.2078 L 1.2772,18.1937 L 1.2772,18.1797 L 1.2772,18.1656 L 1.2772,18.1516 L 1.2772,18.1375 L 1.2632,18.1235 L 1.2491,18.1094 L 1.2351,18.0954 L 1.2210,18.0813 L 1.2070,18.0673 L 1.1930,18.0673 L 1.1789,18.0673 L 1.1649,18.0673 L 1.1509,18.0673 L 1.1368,18.0673 L 1.1228,18.0673 L 1.1088,18.0673 L 1.0947,18.0673 L 1.0807,18.0673 L 1.0807,18.0532 L 1.0667,18.0532 L 1.0526,18.0532 L 1.0386,18.0532 L 1.0246,18.0532 L 1.0246,18.0392 L 1.0105,18.0392 L 0.9965,18.0392 L 0.9965,18.0251 L 0.9825,18.0251 L 0.9825,18.0111 L 0.9825,17.9970 L 0.9825,17.9830 L 0.9825,17.9689 L 0.9825,17.9549 Z" stroke="#333333" stroke-width="0.1198" stroke-linecap="round" stroke-linejoin="round" fill="#494949"/>
        <ellipse cx="1.2912" cy="17.9268" rx="0.5193" ry="0.5198" fill="none" stroke="#000000" stroke-width="0.1198" stroke-linecap="round" stroke-linejoin="round"/>
        <ellipse cx="1.2912" cy="17.9268" rx="0.5193" ry="0.5198" fill="none" stroke="#000000" stroke-width="0.1198" stroke-linecap="round" stroke-linejoin="round"/>
        <ellipse cx="1.2912" cy="20.9544" rx="0.5193" ry="0.5128" fill="#7F7F7F" stroke="#000000" stroke-width="0.1198" stroke-linecap="round" stroke-linejoin="round"/>
        <ellipse cx="1.2912" cy="20.9544" rx="0.5193" ry="0.5128" fill="none" stroke="#000000" stroke-width="0.1198" stroke-linecap="round" stroke-linejoin="round"/>
        <ellipse cx="1.2912" cy="20.9544" rx="0.3930" ry="0.3864" fill="#898989" stroke="#000000" stroke-width="0.1198" stroke-linecap="round" stroke-linejoin="round"/>
        <ellipse cx="1.2912" cy="20.9544" rx="0.3930" ry="0.3864" fill="none" stroke="#898989" stroke-width="0.1198" stroke-linecap="round" stroke-linejoin="round"/>
        <path d="M 0.9825,20.9895 L 0.9825,20.9755 L 0.9965,20.9755 L 0.9965,20.9614 L 1.0105,20.9614 L 1.0246,20.9614 L 1.0246,20.9474 L 1.0386,20.9474 L 1.0526,20.9474 L 1.0667,20.9474 L 1.0807,20.9474 L 1.0807,20.9333 L 1.0947,20.9333 L 1.1088,20.9333 L 1.1228,20.9333 L 1.1368,20.9333 L 1.1509,20.9333 L 1.1649,20.9333 L 1.1789,20.9333 L 1.1930,20.9333 L 1.2070,20.9333 L 1.2210,20.9193 L 1.2351,20.9052 L 1.2491,20.9052 L 1.2491,20.8912 L 1.2632,20.8771 L 1.2772,20.8631 L 1.2772,20.8490 L 1.2772,20.8350 L 1.2772,20.8209 L 1.2772,20.8069 L 1.2772,20.7928 L 1.2772,20.7788 L 1.2772,20.7647 L 1.2772,20.7507 L 1.2772,20.7366 L 1.2912,20.7366 L 1.2912,20.7226 L 1.2912,20.7085 L 1.2912,20.6945 L 1.3053,20.6804 L 1.3053,20.6664 L 1.3193,20.6664 L 1.3193,20.6523 L 1.3333,20.6523 L 1.3474,20.6523 L 1.3614,20.6523 L 1.3754,20.6523 L 1.3895,20.6523 L 1.3895,20.6664 L 1.4035,20.6804 L 1.4035,20.6945 L 1.4035,20.7085 L 1.4175,20.7085 L 1.4175,20.7226 L 1.4175,20.7366 L 1.4175,20.7507 L 1.4316,20.7647 L 1.4316,20.7788 L 1.4316,20.7928 L 1.4316,20.8069 L 1.4316,20.8209 L 1.4316,20.8350 L 1.4316,20.8490 L 1.4316,20.8631 L 1.4456,20.8771 L 1.4596,20.8912 L 1.4737,20.9052 L 1.4877,20.9193 L 1.5017,20.9333 L 1.5158,20.9333 L 1.5298,20.9333 L 1.5439,20.9333 L 1.5579,20.9333 L 1.5719,20.9333 L 1.5860,20.9333 L 1.6000,20.9333 L 1.6140,20.9333 L 1.6140,20.9474 L 1.6281,20.9474 L 1.6421,20.9474 L 1.6561,20.9474 L 1.6702,20.9474 L 1.6702,20.9614 L 1.6842,20.9614 L 1.6982,20.9614 L 1.6982,20.9755 L 1.7123,20.9755 L 1.7123,20.9895 L 1.7123,21.0036 L 1.7123,21.0176 L 1.7123,21.0317 L 1.7123,21.0457 L 1.7123,21.0598 L 1.6982,21.0598 L 1.6982,21.0738 L 1.6842,21.0738 L 1.6702,21.0738 L 1.6702,21.0879 L 1.6561,21.0879 L 1.6421,21.0879 L 1.6281,21.0879 L 1.6140,21.0879 L 1.6140,21.1019 L 1.6000,21.1019 L 1.5860,21.1019 L 1.5719,21.1019 L 1.5579,21.1019 L 1.5439,21.1019 L 1.5298,21.1019 L 1.5158,21.1019 L 1.5017,21.1019 L 1.4877,21.1160 L 1.4737,21.1300 L 1.4737,21.1441 L 1.4596,21.1441 L 1.4456,21.1581 L 1.4316,21.1722 L 1.4316,21.1862 L 1.4316,21.2003 L 1.4316,21.2143 L 1.4316,21.2284 L 1.4316,21.2424 L 1.4316,21.2565 L 1.4316,21.2705 L 1.4175,21.2846 L 1.4175,21.2986 L 1.4175,21.3127 L 1.4175,21.3267 L 1.4035,21.3267 L 1.4035,21.3408 L 1.4035,21.3548 L 1.3895,21.3689 L 1.3895,21.3829 L 1.3754,21.3829 L 1.3614,21.3829 L 1.3474,21.3829 L 1.3333,21.3829 L 1.3193,21.3829 L 1.3193,21.3689 L 1.3053,21.3689 L 1.3053,21.3548 L 1.2912,21.3408 L 1.2912,21.3267 L 1.2912,21.3127 L 1.2912,21.2986 L 1.2772,21.2986 L 1.2772,21.2846 L 1.2772,21.2705 L 1.2772,21.2565 L 1.2772,21.2424 L 1.2772,21.2284 L 1.2772,21.2143 L 1.2772,21.2003 L 1.2772,21.1862 L 1.2772,21.1722 L 1.2632,21.1581 L 1.2491,21.1441 L 1.2351,21.1300 L 1.2210,21.1160 L 1.2070,21.1019 L 1.1930,21.1019 L 1.1789,21.1019 L 1.1649,21.1019 L 1.1509,21.1019 L 1.1368,21.1019 L 1.1228,21.1019 L 1.1088,21.1019 L 1.0947,21.1019 L 1.0807,21.1019 L 1.0807,21.0879 L 1.0667,21.0879 L 1.0526,21.0879 L 1.0386,21.0879 L 1.0246,21.0879 L 1.0246,21.0738 L 1.0105,21.0738 L 0.9965,21.0738 L 0.9965,21.0598 L 0.9825,21.0598 L 0.9825,21.0457 L 0.9825,21.0317 L 0.9825,21.0176 L 0.9825,21.0036 L 0.9825,20.9895 Z" stroke="#333333" stroke-width="0.1198" stroke-linecap="round" stroke-linejoin="round" fill="#494949"/>
        <ellipse cx="1.2912" cy="20.9544" rx="0.5193" ry="0.5128" fill="none" stroke="#000000" stroke-width="0.1198" stroke-linecap="round" stroke-linejoin="round"/>
        <ellipse cx="1.2912" cy="20.9544" rx="0.5193" ry="0.5128" fill="none" stroke="#000000" stroke-width="0.1198" stroke-linecap="round" stroke-linejoin="round"/>
        <ellipse cx="6.9544" cy="29.6087" rx="0.8772" ry="0.8781" fill="#000000" stroke="#000000" stroke-width="0.1198" stroke-linecap="round" stroke-linejoin="round"/>
        <ellipse cx="6.9544" cy="29.6087" rx="0.8772" ry="0.8781" fill="none" stroke="#000000" stroke-width="0.1198" stroke-linecap="round" stroke-linejoin="round"/>
        <ellipse cx="6.9614" cy="29.6157" rx="0.8561" ry="0.8570" fill="#BFBFBF" stroke="#000000" stroke-width="0.1198" stroke-linecap="round" stroke-linejoin="round"/>
        <ellipse cx="6.9614" cy="29.6157" rx="0.8561" ry="0.8570" fill="none" stroke="#000000" stroke-width="0.1198" stroke-linecap="round" stroke-linejoin="round"/>
        <ellipse cx="6.9614" cy="29.6087" rx="0.6456" ry="0.6392" fill="#D1D1D1" stroke="#000000" stroke-width="0.1198" stroke-linecap="round" stroke-linejoin="round"/>
        <ellipse cx="6.9614" cy="29.6087" rx="0.6456" ry="0.6392" fill="none" stroke="#D8D8D8" stroke-width="0.1198" stroke-linecap="round" stroke-linejoin="round"/>
        <path d="M 6.4421,29.6298 L 6.4421,29.6157 L 6.4561,29.6157 L 6.4561,29.6017 L 6.4702,29.6017 L 6.4702,29.5876 L 6.4842,29.5876 L 6.4982,29.5876 L 6.5123,29.5736 L 6.5263,29.5736 L 6.5403,29.5736 L 6.5403,29.5595 L 6.5544,29.5595 L 6.5684,29.5595 L 6.5824,29.5595 L 6.5965,29.5595 L 6.6105,29.5595 L 6.6245,29.5455 L 6.6386,29.5455 L 6.6526,29.5455 L 6.6666,29.5455 L 6.6807,29.5455 L 6.6947,29.5455 L 6.7088,29.5455 L 6.7228,29.5455 L 6.7368,29.5455 L 6.7509,29.5455 L 6.7649,29.5455 L 6.7789,29.5455 L 6.7930,29.5455 L 6.8070,29.5314 L 6.8210,29.5174 L 6.8351,29.5033 L 6.8351,29.4893 L 6.8491,29.4893 L 6.8491,29.4752 L 6.8631,29.4752 L 6.8631,29.4612 L 6.8772,29.4471 L 6.8912,29.4331 L 6.9052,29.4191 L 6.9052,29.4050 L 6.9052,29.3910 L 6.9052,29.3769 L 6.9052,29.3629 L 6.9052,29.3488 L 6.9052,29.3348 L 6.9052,29.3207 L 6.9052,29.3067 L 6.9052,29.2926 L 6.9052,29.2786 L 6.9193,29.2645 L 6.9193,29.2505 L 6.9193,29.2364 L 6.9193,29.2224 L 6.9193,29.2083 L 6.9333,29.1943 L 6.9333,29.1802 L 6.9333,29.1662 L 6.9333,29.1521 L 6.9473,29.1521 L 6.9473,29.1381 L 6.9473,29.1240 L 6.9614,29.1240 L 6.9614,29.1100 L 6.9754,29.1100 L 6.9754,29.0959 L 6.9895,29.0959 L 7.0035,29.0959 L 7.0175,29.0959 L 7.0316,29.0959 L 7.0456,29.0959 L 7.0596,29.0959 L 7.0737,29.0959 L 7.0737,29.1100 L 7.0877,29.1100 L 7.0877,29.1240 L 7.0877,29.1381 L 7.1017,29.1381 L 7.1017,29.1521 L 7.1017,29.1662 L 7.1158,29.1802 L 7.1158,29.1943 L 7.1158,29.2083 L 7.1298,29.2224 L 7.1298,29.2364 L 7.1298,29.2505 L 7.1298,29.2645 L 7.1298,29.2786 L 7.1298,29.2926 L 7.1438,29.2926 L 7.1438,29.3067 L 7.1438,29.3207 L 7.1438,29.3348 L 7.1438,29.3488 L 7.1438,29.3629 L 7.1438,29.3769 L 7.1438,29.3910 L 7.1438,29.4050 L 7.1438,29.4191 L 7.1579,29.4331 L 7.1719,29.4471 L 7.1859,29.4612 L 7.2000,29.4752 L 7.2140,29.4893 L 7.2280,29.5033 L 7.2421,29.5174 L 7.2561,29.5314 L 7.2702,29.5455 L 7.2842,29.5455 L 7.2982,29.5455 L 7.3123,29.5455 L 7.3263,29.5455 L 7.3403,29.5455 L 7.3544,29.5455 L 7.3684,29.5455 L 7.3824,29.5455 L 7.3965,29.5455 L 7.4105,29.5455 L 7.4245,29.5595 L 7.4386,29.5595 L 7.4526,29.5595 L 7.4666,29.5595 L 7.4807,29.5595 L 7.4947,29.5595 L 7.4947,29.5736 L 7.5087,29.5736 L 7.5228,29.5736 L 7.5368,29.5876 L 7.5509,29.5876 L 7.5649,29.5876 L 7.5649,29.6017 L 7.5789,29.6017 L 7.5789,29.6157 L 7.5930,29.6157 L 7.5930,29.6298 L 7.5930,29.6438 L 7.5930,29.6579 L 7.5930,29.6719 L 7.5930,29.6860 L 7.5930,29.7000 L 7.5930,29.7141 L 7.5930,29.7281 L 7.5789,29.7281 L 7.5789,29.7422 L 7.5649,29.7422 L 7.5649,29.7562 L 7.5509,29.7562 L 7.5368,29.7562 L 7.5228,29.7703 L 7.5087,29.7703 L 7.4947,29.7703 L 7.4947,29.7843 L 7.4807,29.7843 L 7.4666,29.7843 L 7.4526,29.7843 L 7.4386,29.7843 L 7.4245,29.7843 L 7.4105,29.7984 L 7.3965,29.7984 L 7.3824,29.7984 L 7.3684,29.7984 L 7.3544,29.7984 L 7.3403,29.7984 L 7.3263,29.7984 L 7.3123,29.7984 L 7.2982,29.7984 L 7.2842,29.7984 L 7.2702,29.7984 L 7.2561,29.8124 L 7.2421,29.8265 L 7.2280,29.8405 L 7.2140,29.8546 L 7.2140,29.8686 L 7.2000,29.8686 L 7.1859,29.8827 L 7.1719,29.8967 L 7.1579,29.9108 L 7.1438,29.9248 L 7.1438,29.9389 L 7.1438,29.9529 L 7.1438,29.9670 L 7.1438,29.9810 L 7.1438,29.9951 L 7.1438,30.0091 L 7.1438,30.0232 L 7.1438,30.0372 L 7.1438,30.0513 L 7.1298,30.0653 L 7.1298,30.0794 L 7.1298,30.0934 L 7.1298,30.1075 L 7.1298,30.1215 L 7.1158,30.1356 L 7.1158,30.1496 L 7.1158,30.1637 L 7.1017,30.1777 L 7.1017,30.1918 L 7.1017,30.2058 L 7.0877,30.2058 L 7.0877,30.2199 L 7.0877,30.2339 L 7.0737,30.2339 L 7.0737,30.2480 L 7.0596,30.2480 L 7.0456,30.2480 L 7.0316,30.2480 L 7.0175,30.2480 L 7.0035,30.2480 L 6.9895,30.2480 L 6.9754,30.2480 L 6.9754,30.2339 L 6.9614,30.2339 L 6.9614,30.2199 L 6.9473,30.2199 L 6.9473,30.2058 L 6.9473,30.1918 L 6.9333,30.1918 L 6.9333,30.1777 L 6.9333,30.1637 L 6.9333,30.1496 L 6.9193,30.1356 L 6.9193,30.1215 L 6.9193,30.1075 L 6.9193,30.0934 L 6.9193,30.0794 L 6.9052,30.0653 L 6.9052,30.0513 L 6.9052,30.0372 L 6.9052,30.0232 L 6.9052,30.0091 L 6.9052,29.9951 L 6.9052,29.9810 L 6.9052,29.9670 L 6.9052,29.9529 L 6.9052,29.9389 L 6.9052,29.9248 L 6.8912,29.9108 L 6.8772,29.8967 L 6.8631,29.8827 L 6.8631,29.8686 L 6.8491,29.8686 L 6.8491,29.8546 L 6.8351,29.8546 L 6.8351,29.8405 L 6.8210,29.8265 L 6.8070,29.8124 L 6.7930,29.7984 L 6.7789,29.7984 L 6.7649,29.7984 L 6.7509,29.7984 L 6.7368,29.7984 L 6.7228,29.7984 L 6.7088,29.7984 L 6.6947,29.7984 L 6.6807,29.7984 L 6.6666,29.7984 L 6.6526,29.7984 L 6.6386,29.7984 L 6.6245,29.7984 L 6.6105,29.7843 L 6.5965,29.7843 L 6.5824,29.7843 L 6.5684,29.7843 L 6.5544,29.7843 L 6.5403,29.7843 L 6.5403,29.7703 L 6.5263,29.7703 L 6.5123,29.7703 L 6.4982,29.7562 L 6.4842,29.7562 L 6.4702,29.7562 L 6.4702,29.7422 L 6.4561,29.7422 L 6.4561,29.7281 L 6.4421,29.7281 L 6.4421,29.7141 L 6.4421,29.7000 L 6.4421,29.6860 L 6.4421,29.6719 L 6.4421,29.6579 L 6.4421,29.6438 L 6.4421,29.6298 Z" stroke="#333333" stroke-width="0.1198" stroke-linecap="round" stroke-linejoin="round" fill="#494949"/>
        <ellipse cx="6.9614" cy="29.6157" rx="0.8561" ry="0.8570" fill="none" stroke="#000000" stroke-width="0.1198" stroke-linecap="round" stroke-linejoin="round"/>
        <ellipse cx="6.9614" cy="29.6157" rx="0.8561" ry="0.8570" fill="none" stroke="#000000" stroke-width="0.1198" stroke-linecap="round" stroke-linejoin="round"/>
        <ellipse cx="10.7438" cy="24.2419" rx="0.2456" ry="0.2459" fill="#00FF00" stroke="#000000" stroke-width="0.1198" stroke-linecap="round" stroke-linejoin="round"/>
        <ellipse cx="10.7438" cy="24.2419" rx="0.2456" ry="0.2459" fill="none" stroke="#000000" stroke-width="0.1198" stroke-linecap="round" stroke-linejoin="round"/>
        <ellipse cx="10.7438" cy="30.0302" rx="0.2456" ry="0.2459" fill="#00FF00" stroke="#000000" stroke-width="0.1198" stroke-linecap="round" stroke-linejoin="round"/>
        <ellipse cx="10.7438" cy="30.0302" rx="0.2456" ry="0.2459" fill="none" stroke="#000000" stroke-width="0.1198" stroke-linecap="round" stroke-linejoin="round"/>
        <path d="M 11.3965,23.6589 L 13.0245,23.6589 L 13.0245,24.9514 L 13.4736,24.9514 L 13.4736,29.4471 L 13.0245,29.4471 L 13.0245,30.7397 L 11.3965,30.7397 L 11.3965,23.6589 Z" stroke="#000000" stroke-width="0.1198" stroke-linecap="round" stroke-linejoin="round" fill="#494949"/>
        <ellipse cx="12.1263" cy="24.4456" rx="0.4632" ry="0.4636" fill="#848484" stroke="#000000" stroke-width="0.1198" stroke-linecap="round" stroke-linejoin="round"/>
        <ellipse cx="12.1263" cy="24.4456" rx="0.4632" ry="0.4636" fill="none" stroke="#000000" stroke-width="0.1198" stroke-linecap="round" stroke-linejoin="round"/>
        <ellipse cx="12.1193" cy="24.4386" rx="0.3158" ry="0.3161" fill="#BFBFBF" stroke="#000000" stroke-width="0.1198" stroke-linecap="round" stroke-linejoin="round"/>
        <ellipse cx="12.1193" cy="24.4386" rx="0.3158" ry="0.3161" fill="none" stroke="#000000" stroke-width="0.1198" stroke-linecap="round" stroke-linejoin="round"/>
        <ellipse cx="12.1193" cy="24.4386" rx="0.1895" ry="0.1897" fill="#161616" stroke="#000000" stroke-width="0.1198" stroke-linecap="round" stroke-linejoin="round"/>
        <ellipse cx="12.1193" cy="24.4386" rx="0.1895" ry="0.1897" fill="none" stroke="#000000" stroke-width="0.1198" stroke-linecap="round" stroke-linejoin="round"/>
        <ellipse cx="12.1263" cy="29.8335" rx="0.4632" ry="0.4566" fill="#848484" stroke="#000000" stroke-width="0.1198" stroke-linecap="round" stroke-linejoin="round"/>
        <ellipse cx="12.1263" cy="29.8335" rx="0.4632" ry="0.4566" fill="none" stroke="#000000" stroke-width="0.1198" stroke-linecap="round" stroke-linejoin="round"/>
        <ellipse cx="12.1193" cy="29.8335" rx="0.3158" ry="0.3161" fill="#BFBFBF" stroke="#000000" stroke-width="0.1198" stroke-linecap="round" stroke-linejoin="round"/>
        <ellipse cx="12.1193" cy="29.8335" rx="0.3158" ry="0.3161" fill="none" stroke="#000000" stroke-width="0.1198" stroke-linecap="round" stroke-linejoin="round"/>
        <ellipse cx="12.1193" cy="29.8335" rx="0.1895" ry="0.1897" fill="#161616" stroke="#000000" stroke-width="0.1198" stroke-linecap="round" stroke-linejoin="round"/>
        <ellipse cx="12.1193" cy="29.8335" rx="0.1895" ry="0.1897" fill="none" stroke="#000000" stroke-width="0.1198" stroke-linecap="round" stroke-linejoin="round"/>
        <path d="M 13.3193,25.1902 L 13.2631,25.1902 L 13.0807,25.4291 L 12.9684,25.4291 L 12.7859,25.1902 L 11.5508,25.1902 L 11.5508,25.4010 L 11.6631,25.4010 L 11.6631,25.8225 L 11.5508,25.8225 L 11.5508,26.0332 L 12.7859,26.0332 L 12.9684,25.7944 L 13.0807,25.7944 L 13.2631,26.0332 L 13.3193,26.0332 L 13.3193,25.1902 Z" stroke="#000000" stroke-width="0.1198" stroke-linecap="round" stroke-linejoin="round" fill="#000000"/>
        <ellipse cx="12.1965" cy="25.5625" rx="0.0982" ry="0.0913" fill="#FFFFFF" stroke="#000000" stroke-width="0.1198" stroke-linecap="round" stroke-linejoin="round"/>
        <ellipse cx="12.1965" cy="25.5625" rx="0.0982" ry="0.0913" fill="none" stroke="#000000" stroke-width="0.1198" stroke-linecap="round" stroke-linejoin="round"/>
        <path d="M 13.3193,26.2580 L 13.2631,26.2580 L 13.0807,26.4968 L 12.9684,26.4968 L 12.7859,26.2580 L 11.5508,26.2580 L 11.5508,26.4687 L 11.6631,26.4687 L 11.6631,26.8902 L 11.5508,26.8902 L 11.5508,27.1009 L 12.7859,27.1009 L 12.9684,26.8621 L 13.0807,26.8621 L 13.2631,27.1009 L 13.3193,27.1009 L 13.3193,26.2580 Z" stroke="#000000" stroke-width="0.1198" stroke-linecap="round" stroke-linejoin="round" fill="#000000"/>
        <ellipse cx="12.1965" cy="26.6373" rx="0.0982" ry="0.0983" fill="#FFFFFF" stroke="#000000" stroke-width="0.1198" stroke-linecap="round" stroke-linejoin="round"/>
        <ellipse cx="12.1965" cy="26.6373" rx="0.0982" ry="0.0983" fill="none" stroke="#000000" stroke-width="0.1198" stroke-linecap="round" stroke-linejoin="round"/>
        <path d="M 13.3193,27.3117 L 13.2631,27.3117 L 13.0807,27.5505 L 12.9684,27.5505 L 12.7859,27.3117 L 11.5508,27.3117 L 11.5508,27.5224 L 11.6631,27.5224 L 11.6631,27.9439 L 11.5508,27.9439 L 11.5508,28.1546 L 12.7859,28.1546 L 12.9684,27.9158 L 13.0807,27.9158 L 13.2631,28.1546 L 13.3193,28.1546 L 13.3193,27.3117 Z" stroke="#000000" stroke-width="0.1198" stroke-linecap="round" stroke-linejoin="round" fill="#000000"/>
        <ellipse cx="12.1965" cy="27.6840" rx="0.0982" ry="0.0913" fill="#FFFFFF" stroke="#000000" stroke-width="0.1198" stroke-linecap="round" stroke-linejoin="round"/>
        <ellipse cx="12.1965" cy="27.6840" rx="0.0982" ry="0.0913" fill="none" stroke="#000000" stroke-width="0.1198" stroke-linecap="round" stroke-linejoin="round"/>
        <path d="M 13.3193,28.3654 L 13.2631,28.3654 L 13.0807,28.6042 L 12.9684,28.6042 L 12.7859,28.3654 L 11.5508,28.3654 L 11.5508,28.5761 L 11.6631,28.5761 L 11.6631,28.9976 L 11.5508,28.9976 L 11.5508,29.2083 L 12.7859,29.2083 L 12.9684,28.9695 L 13.0807,28.9695 L 13.2631,29.2083 L 13.3193,29.2083 L 13.3193,28.3654 Z" stroke="#000000" stroke-width="0.1198" stroke-linecap="round" stroke-linejoin="round" fill="#000000"/>
        <ellipse cx="12.1965" cy="28.7377" rx="0.0982" ry="0.0913" fill="#FFFFFF" stroke="#000000" stroke-width="0.1198" stroke-linecap="round" stroke-linejoin="round"/>
        <ellipse cx="12.1965" cy="28.7377" rx="0.0982" ry="0.0913" fill="none" stroke="#000000" stroke-width="0.1198" stroke-linecap="round" stroke-linejoin="round"/>
        <ellipse cx="1.5930" cy="23.4341" rx="0.2456" ry="0.2529" fill="#00FF00" stroke="#000000" stroke-width="0.1198" stroke-linecap="round" stroke-linejoin="round"/>
        <ellipse cx="1.5930" cy="23.4341" rx="0.2456" ry="0.2529" fill="none" stroke="#000000" stroke-width="0.1198" stroke-linecap="round" stroke-linejoin="round"/>
        <ellipse cx="1.5930" cy="30.0302" rx="0.2456" ry="0.2459" fill="#00FF00" stroke="#000000" stroke-width="0.1198" stroke-linecap="round" stroke-linejoin="round"/>
        <ellipse cx="1.5930" cy="30.0302" rx="0.2456" ry="0.2459" fill="none" stroke="#000000" stroke-width="0.1198" stroke-linecap="round" stroke-linejoin="round"/>
        <path d="M 15.5228,0.0281 L 0.0281,0.0281 L 0.0281,32.0603 L 15.5228,32.0603 L 15.5228,0.0281 Z" stroke="#000000" stroke-width="0.1198" stroke-linecap="round" stroke-linejoin="round" fill="none"/>
        <path d="M 7.1719,28.3654 L 7.1719,28.3794 L 7.1719,28.3935 L 7.1579,28.3935 L 7.1579,28.4075 L 7.1438,28.4075 L 7.1298,28.4075 L 7.1158,28.4075 L 7.1017,28.4075 L 7.0877,28.4075 L 7.0737,28.4075 L 7.0456,28.4075 L 7.0316,28.4075 L 7.0035,28.4075 L 6.9895,28.4075 L 6.9614,28.4075 L 6.9333,28.4075 L 6.9052,28.4075 L 6.8772,28.4075 L 6.8491,28.4075 L 6.8210,28.4075 L 6.7930,28.4075 L 6.7649,28.4075 L 6.7368,28.4075 L 6.7088,28.4075 L 6.6947,28.4075 L 6.6666,28.4075 L 6.6526,28.4075 L 6.6245,28.4075 L 6.6105,28.4075 L 6.5965,28.4075 L 6.5824,28.4075 L 6.5684,28.4075 L 6.5544,28.4075 L 6.5403,28.4075 L 6.5403,28.3935 L 6.5263,28.3935 L 6.5263,28.3794 L 6.5263,28.3654 L 6.5263,28.3513 L 6.5263,28.3373 L 6.5263,28.3232 L 6.5263,28.3092 L 6.5263,28.2811 L 6.5263,28.2670 L 6.5263,28.2389 L 6.5263,28.2108 L 6.5263,28.1827 L 6.5263,28.1546 L 6.5263,28.1265 L 6.5263,28.0844 L 6.5263,28.0563 L 6.5263,28.0282 L 6.5263,28.0001 L 6.5263,27.9720 L 6.5263,27.9298 L 6.5263,27.9017 L 6.5263,27.8736 L 6.5263,27.8455 L 6.5263,27.8174 L 6.5263,27.8034 L 6.5263,27.7753 L 6.5263,27.7472 L 6.5263,27.7331 L 6.5263,27.7191 L 6.5263,27.7050 L 6.5263,27.6910 L 6.5263,27.6769 L 6.5263,27.6629 L 6.5403,27.6629 L 6.5403,27.6489 L 6.5544,27.6489 L 6.5684,27.6489 L 6.5824,27.6489 L 6.5965,27.6489 L 6.6105,27.6489 L 6.6245,27.6489 L 6.6386,27.6489 L 6.6526,27.6489 L 6.6666,27.6489 L 6.6526,27.6489 L 6.6526,27.6629 L 6.6526,27.6769 L 6.6526,27.6910 L 6.6526,27.7050 L 6.6526,27.7191 L 6.6526,27.7331 L 6.6526,27.7472 L 6.6526,27.7612 L 6.6526,27.7893 L 6.6526,27.8034 L 6.6526,27.8315 L 6.6526,27.8455 L 6.6526,27.8736 L 6.6526,27.9017 L 6.6526,27.9298 L 6.6526,27.9579 L 6.6526,27.9720 L 6.6526,28.0001 L 6.6526,28.0282 L 6.6526,28.0563 L 6.6526,28.0703 L 6.6526,28.0984 L 6.6526,28.1125 L 6.6526,28.1406 L 6.6526,28.1546 L 6.6526,28.1687 L 6.6526,28.1827 L 6.6526,28.1968 L 6.6526,28.2108 L 6.6526,28.2249 L 6.6526,28.2389 L 6.6526,28.2530 L 6.6666,28.2530 L 6.6807,28.2530 L 6.6947,28.2530 L 6.7088,28.2530 L 6.7228,28.2530 L 6.7368,28.2530 L 6.7649,28.2530 L 6.7789,28.2530 L 6.8070,28.2530 L 6.8210,28.2530 L 6.8491,28.2530 L 6.8631,28.2530 L 6.8912,28.2530 L 6.9193,28.2530 L 6.9333,28.2530 L 6.9614,28.2530 L 6.9754,28.2530 L 7.0035,28.2530 L 7.0175,28.2530 L 7.0456,28.2530 L 7.0596,28.2530 L 7.0877,28.2530 L 7.1017,28.2530 L 7.1158,28.2530 L 7.1298,28.2530 L 7.1438,28.2530 L 7.1579,28.2530 L 7.1719,28.2530 L 7.1719,28.2389 L 7.1719,28.2530 L 7.1719,28.2670 L 7.1719,28.2811 L 7.1719,28.2951 L 7.1719,28.3092 L 7.1719,28.3232 L 7.1719,28.3373 L 7.1719,28.3513 L 7.1719,28.3654 Z" stroke="#000000" stroke-width="0.1198" stroke-linecap="round" stroke-linejoin="round" fill="#000000"/>
        <path d="M 6.7930,27.6769 L 6.7930,27.6910 L 6.7930,27.7050 L 6.7930,27.7191 L 6.7930,27.7331 L 6.7930,27.7612 L 6.7930,27.7753 L 6.7930,27.7893 L 6.7930,27.8174 L 6.7930,27.8315 L 6.7930,27.8596 L 6.7930,27.8736 L 6.7930,27.9017 L 6.7930,27.9158 L 6.7930,27.9439 L 6.7930,27.9579 L 6.7930,27.9860 L 6.7930,28.0001 L 6.7930,28.0282 L 6.7930,28.0422 L 6.7930,28.0563 L 6.7930,28.0703 L 6.7930,28.0984 L 6.7930,28.1125 L 6.7930,28.1265 L 6.7930,28.1406 L 6.7930,28.1546 L 6.7930,28.1687 L 6.7930,28.1827 L 6.7930,28.1968 L 6.7930,28.2108 L 6.7789,28.2108 L 6.7649,28.2108 L 6.7789,28.2108 L 6.7930,28.2108 L 6.8070,28.2108 L 6.8210,28.2108 L 6.8351,28.2108 L 6.8491,28.2108 L 6.8631,28.2108 L 6.8772,28.2108 L 6.8912,28.2108 L 6.9052,28.2108 L 6.9052,28.1968 L 6.9052,28.1827 L 6.9052,28.1687 L 6.9052,28.1546 L 6.9052,28.1406 L 6.9052,28.1265 L 6.9052,28.1125 L 6.9052,28.0984 L 6.9052,28.0844 L 6.9052,28.0703 L 6.9052,28.0563 L 6.9052,28.0282 L 6.9052,28.0141 L 6.9052,27.9860 L 6.9052,27.9720 L 6.9052,27.9439 L 6.9052,27.9298 L 6.9052,27.9017 L 6.9052,27.8877 L 6.9052,27.8596 L 6.9052,27.8455 L 6.9052,27.8174 L 6.9052,27.8034 L 6.9052,27.7753 L 6.9052,27.7612 L 6.9052,27.7331 L 6.9052,27.7191 L 6.9052,27.7050 L 6.9052,27.6910 L 6.9052,27.6769 L 6.9052,27.6629 L 6.8912,27.6489 L 6.8912,27.6348 L 6.8772,27.6348 L 6.8772,27.6208 L 6.8631,27.6208 L 6.8491,27.6208 L 6.8351,27.6208 L 6.8210,27.6208 L 6.8210,27.6348 L 6.8070,27.6348 L 6.8070,27.6489 L 6.8070,27.6629 L 6.7930,27.6629 L 6.7930,27.6769 Z" stroke="#000000" stroke-width="0.1198" stroke-linecap="round" stroke-linejoin="round" fill="#000000"/>
        <path d="M 6.9193,26.4828 L 6.9193,26.4968 L 6.9052,26.4968 L 6.9052,26.5109 L 6.8912,26.5109 L 6.8772,26.5109 L 6.8631,26.5109 L 6.8491,26.5109 L 6.8351,26.5109 L 6.8210,26.5109 L 6.8070,26.5109 L 6.7930,26.5109 L 6.7789,26.5109 L 6.7930,26.5109 L 6.7930,26.4968 L 6.8070,26.4968 L 6.8070,26.4828 L 6.8070,26.4687 L 6.8070,26.4547 L 6.8070,26.4406 L 6.8070,26.4266 L 6.8070,26.4125 L 6.8070,26.3985 L 6.8070,26.3844 L 6.8070,26.3704 L 6.8070,26.3563 L 6.8070,26.3423 L 6.8070,26.3142 L 6.8070,26.3001 L 6.8070,26.2861 L 6.8070,26.2580 L 6.8070,26.2439 L 6.8070,26.2158 L 6.8070,26.2018 L 6.8070,26.1877 L 6.8070,26.1737 L 6.8070,26.1596 L 6.8070,26.1456 L 6.8070,26.1315 L 6.8070,26.1175 L 6.8070,26.1034 L 6.8070,26.0894 L 6.8070,26.0753 L 6.7930,26.0753 L 6.7789,26.0753 L 6.7649,26.0753 L 6.7509,26.0753 L 6.7368,26.0753 L 6.7228,26.0753 L 6.7088,26.0753 L 6.6947,26.0753 L 6.6807,26.0753 L 6.6666,26.0753 L 6.6526,26.0753 L 6.6526,26.0894 L 6.6526,26.1034 L 6.6526,26.1175 L 6.6526,26.1315 L 6.6526,26.1456 L 6.6526,26.1596 L 6.6526,26.1737 L 6.6526,26.1877 L 6.6526,26.2158 L 6.6526,26.2299 L 6.6526,26.2580 L 6.6526,26.2720 L 6.6526,26.3001 L 6.6526,26.3142 L 6.6526,26.3282 L 6.6526,26.3563 L 6.6526,26.3704 L 6.6526,26.3985 L 6.6526,26.4125 L 6.6526,26.4266 L 6.6526,26.4406 L 6.6526,26.4547 L 6.6526,26.4687 L 6.6526,26.4828 L 6.6526,26.4968 L 6.6526,26.5109 L 6.6526,26.5249 L 6.6526,26.5390 L 6.6666,26.5390 L 6.6807,26.5390 L 6.6947,26.5390 L 6.7088,26.5390 L 6.7228,26.5390 L 6.7368,26.5390 L 6.7649,26.5390 L 6.7789,26.5390 L 6.8070,26.5390 L 6.8210,26.5390 L 6.8491,26.5390 L 6.8631,26.5390 L 6.8912,26.5390 L 6.9193,26.5390 L 6.9333,26.5390 L 6.9614,26.5390 L 6.9754,26.5390 L 7.0035,26.5390 L 7.0175,26.5390 L 7.0456,26.5390 L 7.0596,26.5390 L 7.0877,26.5390 L 7.1017,26.5390 L 7.1158,26.5390 L 7.1298,26.5390 L 7.1438,26.5390 L 7.1579,26.5390 L 7.1719,26.5390 L 7.1719,26.5249 L 7.1719,26.5109 L 7.1719,26.5249 L 7.1719,26.5390 L 7.1719,26.5530 L 7.1719,26.5671 L 7.1719,26.5811 L 7.1719,26.5952 L 7.1719,26.6092 L 7.1719,26.6233 L 7.1719,26.6373 L 7.1719,26.6514 L 7.1719,26.6654 L 7.1719,26.6795 L 7.1579,26.6795 L 7.1438,26.6795 L 7.1298,26.6795 L 7.1158,26.6795 L 7.1017,26.6795 L 7.0877,26.6795 L 7.0737,26.6795 L 7.0456,26.6795 L 7.0316,26.6795 L 7.0035,26.6795 L 6.9895,26.6795 L 6.9614,26.6795 L 6.9333,26.6795 L 6.9052,26.6795 L 6.8772,26.6795 L 6.8491,26.6795 L 6.8210,26.6795 L 6.7930,26.6795 L 6.7649,26.6795 L 6.7368,26.6795 L 6.7088,26.6795 L 6.6947,26.6795 L 6.6666,26.6795 L 6.6526,26.6795 L 6.6245,26.6795 L 6.6105,26.6795 L 6.5965,26.6795 L 6.5824,26.6795 L 6.5684,26.6795 L 6.5544,26.6795 L 6.5403,26.6795 L 6.5263,26.6795 L 6.5263,26.6654 L 6.5263,26.6514 L 6.5263,26.6373 L 6.5263,26.6233 L 6.5263,26.6092 L 6.5263,26.5952 L 6.5263,26.5811 L 6.5263,26.5530 L 6.5263,26.5390 L 6.5263,26.5109 L 6.5263,26.4828 L 6.5263,26.4547 L 6.5263,26.4266 L 6.5263,26.3985 L 6.5263,26.3563 L 6.5263,26.3282 L 6.5263,26.3001 L 6.5263,26.2720 L 6.5263,26.2439 L 6.5263,26.2018 L 6.5263,26.1737 L 6.5263,26.1456 L 6.5263,26.1175 L 6.5263,26.0894 L 6.5263,26.0753 L 6.5263,26.0472 L 6.5263,26.0191 L 6.5263,26.0051 L 6.5263,25.9910 L 6.5263,25.9770 L 6.5263,25.9629 L 6.5263,25.9489 L 6.5263,25.9348 L 6.5403,25.9348 L 6.5403,25.9208 L 6.5544,25.9208 L 6.5684,25.9208 L 6.5824,25.9208 L 6.5965,25.9208 L 6.6105,25.9208 L 6.6245,25.9208 L 6.6386,25.9208 L 6.6526,25.9208 L 6.6666,25.9208 L 6.6807,25.9208 L 6.6947,25.9208 L 6.7228,25.9208 L 6.7368,25.9208 L 6.7509,25.9208 L 6.7649,25.9208 L 6.7789,25.9208 L 6.7930,25.9208 L 6.8070,25.9208 L 6.8210,25.9208 L 6.8351,25.9208 L 6.8491,25.9208 L 6.8631,25.9208 L 6.8772,25.9208 L 6.8772,25.9348 L 6.8912,25.9348 L 6.8912,25.9489 L 6.9052,25.9489 L 6.9052,25.9629 L 6.9193,25.9629 L 6.9333,25.9629 L 6.9333,25.9489 L 6.9473,25.9489 L 6.9473,25.9348 L 6.9614,25.9348 L 6.9754,25.9208 L 6.9895,25.9208 L 7.0035,25.9208 L 7.0175,25.9208 L 7.0316,25.9208 L 7.0456,25.9208 L 7.0596,25.9208 L 7.0737,25.9208 L 7.0877,25.9208 L 7.1017,25.9208 L 7.1158,25.9208 L 7.1298,25.9208 L 7.1438,25.9208 L 7.1579,25.9208 L 7.1719,25.9208 L 7.1719,25.9067 L 7.1719,25.8927 L 7.1719,25.9067 L 7.1719,25.9208 L 7.1719,25.9348 L 7.1719,25.9489 L 7.1719,25.9629 L 7.1719,25.9770 L 7.1719,25.9910 L 7.1719,26.0051 L 7.1719,26.0191 L 7.1719,26.0332 L 7.1719,26.0472 L 7.1719,26.0613 L 7.1579,26.0613 L 7.1579,26.0753 L 7.1438,26.0753 L 7.1298,26.0753 L 7.1158,26.0753 L 7.1017,26.0753 L 7.0877,26.0753 L 7.0737,26.0753 L 7.0596,26.0753 L 7.0456,26.0753 L 7.0316,26.0753 L 7.0175,26.0753 L 7.0035,26.0753 L 6.9895,26.0753 L 6.9754,26.0753 L 6.9614,26.0753 L 6.9473,26.0753 L 6.9333,26.0753 L 6.9193,26.0753 L 6.9193,26.0894 L 6.9193,26.1034 L 6.9193,26.1175 L 6.9193,26.1315 L 6.9193,26.1456 L 6.9193,26.1596 L 6.9193,26.1737 L 6.9193,26.1877 L 6.9193,26.2018 L 6.9193,26.2158 L 6.9193,26.2439 L 6.9193,26.2580 L 6.9193,26.2861 L 6.9193,26.3001 L 6.9193,26.3142 L 6.9193,26.3423 L 6.9193,26.3563 L 6.9193,26.3704 L 6.9193,26.3844 L 6.9193,26.3985 L 6.9193,26.4125 L 6.9193,26.4266 L 6.9193,26.4406 L 6.9193,26.4547 L 6.9193,26.4687 L 6.9193,26.4828 Z" stroke="#000000" stroke-width="0.1198" stroke-linecap="round" stroke-linejoin="round" fill="#000000"/>
        <path d="M 6.6526,25.6398 L 6.6526,25.6539 L 6.6526,25.6679 L 6.6526,25.6820 L 6.6526,25.6960 L 6.6526,25.7101 L 6.6526,25.7241 L 6.6526,25.7382 L 6.6526,25.7522 L 6.6526,25.7663 L 6.6526,25.7803 L 6.6526,25.7944 L 6.6386,25.7944 L 6.6386,25.8084 L 6.6245,25.8084 L 6.6245,25.8225 L 6.6105,25.8225 L 6.5965,25.8225 L 6.5824,25.8225 L 6.5684,25.8225 L 6.5544,25.8225 L 6.5403,25.8225 L 6.5403,25.8084 L 6.5263,25.8084 L 6.5263,25.7944 L 6.5263,25.7803 L 6.5263,25.7663 L 6.5263,25.7522 L 6.5263,25.7382 L 6.5263,25.7241 L 6.5263,25.6960 L 6.5263,25.6820 L 6.5263,25.6539 L 6.5263,25.6258 L 6.5263,25.5977 L 6.5263,25.5696 L 6.5263,25.5415 L 6.5263,25.4993 L 6.5263,25.4712 L 6.5263,25.4431 L 6.5263,25.4150 L 6.5263,25.3869 L 6.5263,25.3448 L 6.5263,25.3167 L 6.5263,25.2886 L 6.5263,25.2605 L 6.5263,25.2324 L 6.5263,25.2183 L 6.5263,25.1902 L 6.5263,25.1621 L 6.5263,25.1481 L 6.5263,25.1340 L 6.5263,25.1200 L 6.5263,25.1059 L 6.5263,25.0919 L 6.5263,25.0778 L 6.5403,25.0778 L 6.5403,25.0638 L 6.5544,25.0638 L 6.5684,25.0638 L 6.5824,25.0638 L 6.5965,25.0638 L 6.6105,25.0638 L 6.6245,25.0638 L 6.6386,25.0638 L 6.6526,25.0638 L 6.6666,25.0638 L 6.6526,25.0638 L 6.6526,25.0778 L 6.6526,25.0919 L 6.6526,25.1059 L 6.6526,25.1200 L 6.6526,25.1340 L 6.6526,25.1481 L 6.6526,25.1621 L 6.6526,25.1762 L 6.6526,25.1902 L 6.6526,25.2043 L 6.6526,25.2183 L 6.6526,25.2324 L 6.6526,25.2464 L 6.6526,25.2745 L 6.6526,25.2886 L 6.6526,25.3026 L 6.6526,25.3167 L 6.6526,25.3307 L 6.6526,25.3448 L 6.6526,25.3588 L 6.6526,25.3729 L 6.6526,25.3869 L 6.6526,25.4150 L 6.6526,25.4291 L 6.6526,25.4431 L 6.6526,25.4572 L 6.6526,25.4712 L 6.6526,25.4853 L 6.6666,25.4853 L 6.6807,25.4853 L 6.6947,25.4853 L 6.7088,25.4853 L 6.7228,25.4853 L 6.7368,25.4853 L 6.7649,25.4853 L 6.7789,25.4853 L 6.8070,25.4853 L 6.8210,25.4853 L 6.8491,25.4853 L 6.8631,25.4853 L 6.8912,25.4853 L 6.9193,25.4853 L 6.9333,25.4853 L 6.9614,25.4853 L 6.9754,25.4853 L 7.0035,25.4853 L 7.0175,25.4853 L 7.0456,25.4853 L 7.0596,25.4853 L 7.0877,25.4853 L 7.1017,25.4853 L 7.1158,25.4853 L 7.1298,25.4853 L 7.1438,25.4853 L 7.1579,25.4853 L 7.1719,25.4853 L 7.1719,25.4712 L 7.1719,25.4853 L 7.1719,25.4993 L 7.1719,25.5134 L 7.1719,25.5274 L 7.1719,25.5415 L 7.1719,25.5555 L 7.1719,25.5696 L 7.1719,25.5836 L 7.1719,25.5977 L 7.1719,25.6117 L 7.1719,25.6258 L 7.1719,25.6398 L 7.1579,25.6398 L 7.1438,25.6398 L 7.1298,25.6398 L 7.1158,25.6398 L 7.1017,25.6398 L 7.0877,25.6398 L 7.0737,25.6398 L 7.0596,25.6398 L 7.0456,25.6398 L 7.0316,25.6398 L 7.0175,25.6398 L 6.9895,25.6398 L 6.9754,25.6398 L 6.9614,25.6398 L 6.9333,25.6398 L 6.9193,25.6398 L 6.8912,25.6398 L 6.8772,25.6398 L 6.8491,25.6398 L 6.8351,25.6398 L 6.8210,25.6398 L 6.7930,25.6398 L 6.7789,25.6398 L 6.7509,25.6398 L 6.7368,25.6398 L 6.7228,25.6398 L 6.6947,25.6398 L 6.6807,25.6398 L 6.6666,25.6398 L 6.6526,25.6398 Z" stroke="#000000" stroke-width="0.1198" stroke-linecap="round" stroke-linejoin="round" fill="#000000"/>
        <path d="M 7.1579,24.8531 L 7.1719,24.8531 L 7.1719,24.8390 L 7.1719,24.8250 L 7.1719,24.8109 L 7.1719,24.8250 L 7.1719,24.8390 L 7.1719,24.8531 L 7.1719,24.8671 L 7.1719,24.8812 L 7.1719,24.8952 L 7.1719,24.9093 L 7.1719,24.9233 L 7.1719,24.9374 L 7.1719,24.9514 L 7.1719,24.9655 L 7.1719,24.9795 L 7.1579,24.9795 L 7.1438,24.9795 L 7.1298,24.9795 L 7.1158,24.9795 L 7.1017,24.9795 L 7.0877,24.9795 L 7.0737,24.9795 L 7.0456,24.9795 L 7.0316,24.9795 L 7.0035,24.9795 L 6.9754,24.9795 L 6.9473,24.9795 L 6.9193,24.9795 L 6.9052,24.9795 L 6.8772,24.9795 L 6.8491,24.9795 L 6.8070,24.9795 L 6.7789,24.9795 L 6.7649,24.9795 L 6.7368,24.9795 L 6.7088,24.9795 L 6.6807,24.9795 L 6.6526,24.9795 L 6.6386,24.9795 L 6.6105,24.9795 L 6.5965,24.9795 L 6.5824,24.9795 L 6.5684,24.9795 L 6.5544,24.9795 L 6.5403,24.9795 L 6.5263,24.9795 L 6.5263,24.9935 L 6.5263,25.0076 L 6.5263,24.9935 L 6.5263,24.9795 L 6.5263,24.9655 L 6.5263,24.9514 L 6.5263,24.9374 L 6.5263,24.9233 L 6.5263,24.9093 L 6.5263,24.8952 L 6.5263,24.8812 L 6.5263,24.8671 L 6.5263,24.8531 L 6.5403,24.8531 L 6.5544,24.8531 L 6.5684,24.8531 L 6.5824,24.8531 L 6.5965,24.8531 L 6.6105,24.8531 L 6.6245,24.8531 L 6.6526,24.8531 L 6.6666,24.8531 L 6.6947,24.8531 L 6.7228,24.8531 L 6.7509,24.8531 L 6.7789,24.8531 L 6.7930,24.8531 L 6.8210,24.8531 L 6.8631,24.8531 L 6.8912,24.8531 L 6.9193,24.8531 L 6.9333,24.8531 L 6.9614,24.8531 L 6.9895,24.8531 L 7.0175,24.8531 L 7.0456,24.8531 L 7.0596,24.8531 L 7.0877,24.8531 L 7.1017,24.8531 L 7.1158,24.8531 L 7.1298,24.8531 L 7.1438,24.8531 L 7.1579,24.8531 Z" stroke="#000000" stroke-width="0.1198" stroke-linecap="round" stroke-linejoin="round" fill="#000000"/>
        <path d="M 6.6526,24.0944 L 6.6526,24.1084 L 6.6526,24.1225 L 6.6526,24.1506 L 6.6526,24.1646 L 6.6526,24.1787 L 6.6526,24.1927 L 6.6526,24.2208 L 6.6526,24.2349 L 6.6526,24.2489 L 6.6526,24.2770 L 6.6526,24.2911 L 6.6526,24.3051 L 6.6526,24.3192 L 6.6526,24.3473 L 6.6526,24.3613 L 6.6526,24.3754 L 6.6526,24.3894 L 6.6526,24.4035 L 6.6526,24.4175 L 6.6526,24.4316 L 6.6526,24.4456 L 6.6526,24.4597 L 6.6526,24.4737 L 6.6526,24.4878 L 6.6526,24.5018 L 6.6526,24.5159 L 6.6526,24.5299 L 6.6526,24.5440 L 6.6526,24.5580 L 6.6666,24.5580 L 6.6807,24.5580 L 6.6947,24.5580 L 6.7088,24.5580 L 6.7228,24.5580 L 6.7368,24.5580 L 6.7649,24.5580 L 6.7789,24.5580 L 6.8070,24.5580 L 6.8210,24.5580 L 6.8491,24.5580 L 6.8631,24.5580 L 6.8912,24.5580 L 6.9193,24.5580 L 6.9333,24.5580 L 6.9614,24.5580 L 6.9754,24.5580 L 7.0035,24.5580 L 7.0175,24.5580 L 7.0456,24.5580 L 7.0596,24.5580 L 7.0877,24.5580 L 7.1017,24.5580 L 7.1158,24.5580 L 7.1298,24.5580 L 7.1438,24.5580 L 7.1579,24.5580 L 7.1719,24.5580 L 7.1719,24.5440 L 7.1719,24.5299 L 7.1719,24.5440 L 7.1719,24.5580 L 7.1719,24.5721 L 7.1719,24.5861 L 7.1719,24.6002 L 7.1719,24.6142 L 7.1719,24.6283 L 7.1719,24.6423 L 7.1719,24.6564 L 7.1719,24.6704 L 7.1719,24.6845 L 7.1719,24.6985 L 7.1579,24.6985 L 7.1438,24.6985 L 7.1298,24.6985 L 7.1158,24.6985 L 7.1017,24.6985 L 7.0877,24.6985 L 7.0737,24.6985 L 7.0456,24.6985 L 7.0316,24.6985 L 7.0035,24.6985 L 6.9895,24.6985 L 6.9614,24.6985 L 6.9333,24.6985 L 6.9052,24.6985 L 6.8772,24.6985 L 6.8491,24.6985 L 6.8210,24.6985 L 6.7930,24.6985 L 6.7649,24.6985 L 6.7368,24.6985 L 6.7088,24.6985 L 6.6947,24.6985 L 6.6666,24.6985 L 6.6526,24.6985 L 6.6245,24.6985 L 6.6105,24.6985 L 6.5965,24.6985 L 6.5824,24.6985 L 6.5684,24.6985 L 6.5544,24.6985 L 6.5403,24.6985 L 6.5263,24.6985 L 6.5263,24.6845 L 6.5263,24.6704 L 6.5263,24.6564 L 6.5263,24.6423 L 6.5263,24.6283 L 6.5263,24.6142 L 6.5263,24.6002 L 6.5263,24.5721 L 6.5263,24.5580 L 6.5263,24.5299 L 6.5263,24.5018 L 6.5263,24.4737 L 6.5263,24.4456 L 6.5263,24.4175 L 6.5263,24.3754 L 6.5263,24.3473 L 6.5263,24.3192 L 6.5263,24.2911 L 6.5263,24.2630 L 6.5263,24.2208 L 6.5263,24.1927 L 6.5263,24.1646 L 6.5263,24.1365 L 6.5263,24.1084 L 6.5263,24.0944 L 6.5263,24.0663 L 6.5263,24.0382 L 6.5263,24.0242 L 6.5263,24.0101 L 6.5263,23.9961 L 6.5263,23.9820 L 6.5263,23.9680 L 6.5263,23.9539 L 6.5403,23.9539 L 6.5403,23.9399 L 6.5544,23.9399 L 6.5684,23.9399 L 6.5824,23.9399 L 6.5965,23.9399 L 6.6105,23.9399 L 6.6245,23.9399 L 6.6526,23.9399 L 6.6666,23.9399 L 6.6947,23.9399 L 6.7228,23.9399 L 6.7509,23.9399 L 6.7789,23.9399 L 6.7930,23.9399 L 6.8210,23.9399 L 6.8631,23.9399 L 6.8912,23.9399 L 6.9193,23.9399 L 6.9333,23.9399 L 6.9614,23.9399 L 6.9895,23.9399 L 7.0175,23.9399 L 7.0456,23.9399 L 7.0596,23.9399 L 7.0877,23.9399 L 7.1017,23.9399 L 7.1158,23.9399 L 7.1298,23.9399 L 7.1438,23.9399 L 7.1579,23.9399 L 7.1719,23.9399 L 7.1719,23.9258 L 7.1719,23.9118 L 7.1719,23.9258 L 7.1719,23.9399 L 7.1719,23.9539 L 7.1719,23.9680 L 7.1719,23.9820 L 7.1719,23.9961 L 7.1719,24.0101 L 7.1719,24.0242 L 7.1719,24.0382 L 7.1719,24.0523 L 7.1719,24.0663 L 7.1719,24.0804 L 7.1579,24.0804 L 7.1579,24.0944 L 7.1438,24.0944 L 7.1298,24.0944 L 7.1158,24.0944 L 7.1017,24.0944 L 7.0877,24.0944 L 7.0737,24.0944 L 7.0596,24.0944 L 7.0456,24.0944 L 7.0316,24.0944 L 7.0175,24.0944 L 6.9895,24.0944 L 6.9754,24.0944 L 6.9614,24.0944 L 6.9333,24.0944 L 6.9193,24.0944 L 6.8912,24.0944 L 6.8772,24.0944 L 6.8491,24.0944 L 6.8351,24.0944 L 6.8210,24.0944 L 6.7930,24.0944 L 6.7789,24.0944 L 6.7509,24.0944 L 6.7368,24.0944 L 6.7228,24.0944 L 6.6947,24.0944 L 6.6807,24.0944 L 6.6666,24.0944 L 6.6526,24.0944 Z" stroke="#000000" stroke-width="0.1198" stroke-linecap="round" stroke-linejoin="round" fill="#000000"/>
        <path d="M 6.7930,23.1812 L 6.7930,23.1953 L 6.7930,23.2093 L 6.7930,23.2233 L 6.7930,23.2374 L 6.7930,23.2514 L 6.7930,23.2655 L 6.7930,23.2936 L 6.7930,23.3076 L 6.7930,23.3217 L 6.7930,23.3498 L 6.7930,23.3638 L 6.7930,23.3779 L 6.7930,23.4060 L 6.7930,23.4200 L 6.7930,23.4481 L 6.7930,23.4622 L 6.7930,23.4762 L 6.7930,23.4903 L 6.7930,23.5184 L 6.7930,23.5324 L 6.7930,23.5465 L 6.7930,23.5605 L 6.7930,23.5746 L 6.7930,23.5886 L 6.7930,23.6027 L 6.7930,23.6167 L 6.7930,23.6308 L 6.7930,23.6448 L 6.7930,23.6589 L 6.7930,23.6729 L 6.7789,23.6729 L 6.7789,23.6870 L 6.7649,23.6870 L 6.7789,23.6870 L 6.7930,23.6870 L 6.8070,23.6870 L 6.8210,23.6870 L 6.8351,23.6870 L 6.8491,23.6870 L 6.8631,23.6870 L 6.8772,23.6870 L 6.8912,23.6870 L 6.8912,23.6729 L 6.9052,23.6729 L 6.9052,23.6589 L 6.9052,23.6448 L 6.9052,23.6308 L 6.9052,23.6167 L 6.9052,23.6027 L 6.9052,23.5886 L 6.9052,23.5746 L 6.9052,23.5605 L 6.9052,23.5465 L 6.9052,23.5324 L 6.9052,23.5043 L 6.9052,23.4903 L 6.9052,23.4762 L 6.9052,23.4622 L 6.9052,23.4341 L 6.9052,23.4200 L 6.9052,23.3919 L 6.9052,23.3779 L 6.9052,23.3638 L 6.9052,23.3357 L 6.9052,23.3217 L 6.9052,23.3076 L 6.9052,23.2795 L 6.9052,23.2655 L 6.9052,23.2514 L 6.9052,23.2374 L 6.9052,23.2233 L 6.9052,23.2093 L 6.9052,23.1953 L 6.9052,23.1812 L 6.8912,23.1672 L 6.8912,23.1531 L 6.8772,23.1531 L 6.8772,23.1391 L 6.8631,23.1391 L 6.8491,23.1391 L 6.8351,23.1391 L 6.8210,23.1391 L 6.8070,23.1391 L 6.8070,23.1531 L 6.8070,23.1672 L 6.7930,23.1672 L 6.7930,23.1812 Z" stroke="#000000" stroke-width="0.1198" stroke-linecap="round" stroke-linejoin="round" fill="#000000"/>
        <path d="M 6.6526,22.8019 L 6.6526,22.8159 L 6.6526,22.8300 L 6.6526,22.8440 L 6.6526,22.8581 L 6.6526,22.8721 L 6.6526,22.8862 L 6.6526,22.9002 L 6.6526,22.9143 L 6.6526,22.9283 L 6.6526,22.9424 L 6.6526,22.9564 L 6.6386,22.9564 L 6.6386,22.9705 L 6.6245,22.9705 L 6.6245,22.9845 L 6.6105,22.9845 L 6.5965,22.9845 L 6.5824,22.9845 L 6.5684,22.9845 L 6.5544,22.9845 L 6.5403,22.9845 L 6.5403,22.9705 L 6.5263,22.9705 L 6.5263,22.9564 L 6.5263,22.9424 L 6.5263,22.9283 L 6.5263,22.9143 L 6.5263,22.9002 L 6.5263,22.8862 L 6.5263,22.8581 L 6.5263,22.8440 L 6.5263,22.8159 L 6.5263,22.7878 L 6.5263,22.7597 L 6.5263,22.7316 L 6.5263,22.7035 L 6.5263,22.6614 L 6.5263,22.6333 L 6.5263,22.6052 L 6.5263,22.5771 L 6.5263,22.5490 L 6.5263,22.5068 L 6.5263,22.4787 L 6.5263,22.4506 L 6.5263,22.4225 L 6.5263,22.3944 L 6.5263,22.3804 L 6.5263,22.3523 L 6.5263,22.3242 L 6.5263,22.3101 L 6.5263,22.2961 L 6.5263,22.2821 L 6.5263,22.2680 L 6.5263,22.2540 L 6.5263,22.2399 L 6.5403,22.2399 L 6.5403,22.2259 L 6.5544,22.2259 L 6.5684,22.2259 L 6.5824,22.2259 L 6.5965,22.2259 L 6.6105,22.2259 L 6.6245,22.2259 L 6.6386,22.2259 L 6.6526,22.2259 L 6.6666,22.2259 L 6.6526,22.2259 L 6.6526,22.2399 L 6.6526,22.2540 L 6.6526,22.2680 L 6.6526,22.2821 L 6.6526,22.2961 L 6.6526,22.3101 L 6.6526,22.3242 L 6.6526,22.3382 L 6.6526,22.3523 L 6.6526,22.3663 L 6.6526,22.3804 L 6.6526,22.3944 L 6.6526,22.4085 L 6.6526,22.4366 L 6.6526,22.4506 L 6.6526,22.4647 L 6.6526,22.4787 L 6.6526,22.4928 L 6.6526,22.5068 L 6.6526,22.5209 L 6.6526,22.5349 L 6.6526,22.5490 L 6.6526,22.5771 L 6.6526,22.5911 L 6.6526,22.6052 L 6.6526,22.6192 L 6.6526,22.6333 L 6.6526,22.6473 L 6.6666,22.6473 L 6.6807,22.6473 L 6.6947,22.6473 L 6.7088,22.6473 L 6.7228,22.6473 L 6.7368,22.6473 L 6.7649,22.6473 L 6.7789,22.6473 L 6.8070,22.6473 L 6.8210,22.6473 L 6.8491,22.6473 L 6.8631,22.6473 L 6.8912,22.6473 L 6.9193,22.6473 L 6.9333,22.6473 L 6.9614,22.6473 L 6.9754,22.6473 L 7.0035,22.6473 L 7.0175,22.6473 L 7.0456,22.6473 L 7.0596,22.6473 L 7.0877,22.6473 L 7.1017,22.6473 L 7.1158,22.6473 L 7.1298,22.6473 L 7.1438,22.6473 L 7.1579,22.6473 L 7.1719,22.6473 L 7.1719,22.6333 L 7.1719,22.6473 L 7.1719,22.6614 L 7.1719,22.6754 L 7.1719,22.6895 L 7.1719,22.7035 L 7.1719,22.7176 L 7.1719,22.7316 L 7.1719,22.7457 L 7.1719,22.7597 L 7.1719,22.7738 L 7.1719,22.7878 L 7.1719,22.8019 L 7.1579,22.8019 L 7.1438,22.8019 L 7.1298,22.8019 L 7.1158,22.8019 L 7.1017,22.8019 L 7.0877,22.8019 L 7.0737,22.8019 L 7.0596,22.8019 L 7.0456,22.8019 L 7.0316,22.8019 L 7.0175,22.8019 L 6.9895,22.8019 L 6.9754,22.8019 L 6.9614,22.8019 L 6.9333,22.8019 L 6.9193,22.8019 L 6.8912,22.8019 L 6.8772,22.8019 L 6.8491,22.8019 L 6.8351,22.8019 L 6.8210,22.8019 L 6.7930,22.8019 L 6.7789,22.8019 L 6.7509,22.8019 L 6.7368,22.8019 L 6.7228,22.8019 L 6.6947,22.8019 L 6.6807,22.8019 L 6.6666,22.8019 L 6.6526,22.8019 Z" stroke="#000000" stroke-width="0.1198" stroke-linecap="round" stroke-linejoin="round" fill="#000000"/>
        <path d="M 7.0456,23.1250 L 7.0456,23.1110 L 7.0456,23.0969 L 7.0316,23.0969 L 7.0456,23.0969 L 7.0596,23.0969 L 7.0737,23.0969 L 7.0877,23.0969 L 7.1017,23.0969 L 7.1158,23.0969 L 7.1298,23.0969 L 7.1438,23.0969 L 7.1579,23.0969 L 7.1579,23.1110 L 7.1719,23.1110 L 7.1719,23.1250 L 7.1719,23.1391 L 7.1719,23.1531 L 7.1719,23.1672 L 7.1719,23.1812 L 7.1719,23.1953 L 7.1719,23.2233 L 7.1719,23.2514 L 7.1719,23.2655 L 7.1719,23.2936 L 7.1719,23.3217 L 7.1719,23.3498 L 7.1719,23.3779 L 7.1719,23.4200 L 7.1719,23.4481 L 7.1719,23.4762 L 7.1719,23.5043 L 7.1719,23.5324 L 7.1719,23.5746 L 7.1719,23.6027 L 7.1719,23.6308 L 7.1719,23.6589 L 7.1719,23.6870 L 7.1719,23.7151 L 7.1719,23.7291 L 7.1719,23.7572 L 7.1719,23.7713 L 7.1719,23.7853 L 7.1719,23.7994 L 7.1719,23.8134 L 7.1719,23.8275 L 7.1719,23.8415 L 7.1579,23.8415 L 7.1579,23.8556 L 7.1438,23.8556 L 7.1298,23.8556 L 7.1158,23.8556 L 7.1017,23.8556 L 7.0877,23.8556 L 7.0737,23.8556 L 7.0456,23.8556 L 7.0316,23.8556 L 7.0035,23.8556 L 6.9895,23.8556 L 6.9614,23.8556 L 6.9333,23.8556 L 6.9052,23.8556 L 6.8772,23.8556 L 6.8491,23.8556 L 6.8210,23.8556 L 6.7930,23.8556 L 6.7649,23.8556 L 6.7368,23.8556 L 6.7088,23.8556 L 6.6947,23.8556 L 6.6666,23.8556 L 6.6526,23.8556 L 6.6245,23.8556 L 6.6105,23.8556 L 6.5965,23.8556 L 6.5824,23.8556 L 6.5684,23.8556 L 6.5544,23.8556 L 6.5403,23.8556 L 6.5403,23.8415 L 6.5263,23.8415 L 6.5263,23.8275 L 6.5263,23.8134 L 6.5263,23.7994 L 6.5263,23.7853 L 6.5263,23.7713 L 6.5263,23.7572 L 6.5263,23.7291 L 6.5263,23.7151 L 6.5263,23.6870 L 6.5263,23.6589 L 6.5263,23.6308 L 6.5263,23.6027 L 6.5263,23.5746 L 6.5263,23.5324 L 6.5263,23.5043 L 6.5263,23.4762 L 6.5263,23.4481 L 6.5263,23.4200 L 6.5263,23.3779 L 6.5263,23.3498 L 6.5263,23.3217 L 6.5263,23.2936 L 6.5263,23.2655 L 6.5263,23.2514 L 6.5263,23.2233 L 6.5263,23.1953 L 6.5263,23.1812 L 6.5263,23.1672 L 6.5263,23.1531 L 6.5263,23.1391 L 6.5263,23.1250 L 6.5263,23.1110 L 6.5403,23.1110 L 6.5403,23.0969 L 6.5544,23.0969 L 6.5684,23.0969 L 6.5824,23.0969 L 6.5965,23.0969 L 6.6105,23.0969 L 6.6245,23.0969 L 6.6386,23.0969 L 6.6526,23.0969 L 6.6666,23.0969 L 6.6526,23.0969 L 6.6526,23.1110 L 6.6526,23.1250 L 6.6526,23.1391 L 6.6526,23.1531 L 6.6526,23.1672 L 6.6526,23.1812 L 6.6526,23.1953 L 6.6526,23.2093 L 6.6526,23.2374 L 6.6526,23.2514 L 6.6526,23.2795 L 6.6526,23.2936 L 6.6526,23.3217 L 6.6526,23.3498 L 6.6526,23.3779 L 6.6526,23.4060 L 6.6526,23.4200 L 6.6526,23.4481 L 6.6526,23.4762 L 6.6526,23.5043 L 6.6526,23.5184 L 6.6526,23.5465 L 6.6526,23.5605 L 6.6526,23.5886 L 6.6526,23.6027 L 6.6526,23.6167 L 6.6526,23.6308 L 6.6526,23.6448 L 6.6526,23.6589 L 6.6526,23.6729 L 6.6526,23.6870 L 6.6526,23.7010 L 6.6666,23.7010 L 6.6807,23.7010 L 6.6947,23.7010 L 6.7088,23.7010 L 6.7228,23.7010 L 6.7368,23.7010 L 6.7509,23.7010 L 6.7649,23.7010 L 6.7789,23.7010 L 6.7930,23.7010 L 6.8070,23.7010 L 6.8210,23.7010 L 6.8351,23.7010 L 6.8491,23.7010 L 6.8631,23.7010 L 6.8772,23.7010 L 6.8912,23.7010 L 6.9052,23.7010 L 6.9333,23.7010 L 6.9473,23.7010 L 6.9614,23.7010 L 6.9754,23.7010 L 6.9895,23.7010 L 7.0035,23.7010 L 7.0175,23.7010 L 7.0316,23.7010 L 7.0456,23.7010 L 7.0456,23.6870 L 7.0456,23.6729 L 7.0456,23.6589 L 7.0456,23.6448 L 7.0456,23.6308 L 7.0456,23.6167 L 7.0456,23.5886 L 7.0456,23.5605 L 7.0456,23.5465 L 7.0456,23.5184 L 7.0456,23.4903 L 7.0456,23.4622 L 7.0456,23.4341 L 7.0456,23.4200 L 7.0456,23.3919 L 7.0456,23.3638 L 7.0456,23.3357 L 7.0456,23.3076 L 7.0456,23.2795 L 7.0456,23.2655 L 7.0456,23.2374 L 7.0456,23.2093 L 7.0456,23.1953 L 7.0456,23.1812 L 7.0456,23.1672 L 7.0456,23.1531 L 7.0456,23.1391 L 7.0456,23.1250 Z" stroke="#000000" stroke-width="0.1198" stroke-linecap="round" stroke-linejoin="round" fill="#000000"/>
        <path d="M 6.9754,27.2695 L 7.1719,27.2695 L 7.1719,27.0447 L 6.9754,27.0447 L 6.9754,27.2695 Z" stroke="#ED3440" stroke-width="0.1198" stroke-linecap="round" stroke-linejoin="round" fill="#ED3440"/>
        <path d="M 6.7509,27.5365 L 6.7509,27.3398 L 6.9473,27.3398 L 6.9473,27.5365 L 6.7509,27.5365 Z" stroke="#ED3440" stroke-width="0.1198" stroke-linecap="round" stroke-linejoin="round" fill="#ED3440"/>
        <path d="M 6.9895,26.9745 L 7.0035,26.9745 L 7.0175,26.9745 L 7.0316,26.9745 L 7.0456,26.9745 L 7.0596,26.9745 L 7.0737,26.9745 L 7.0877,26.9745 L 7.1017,26.9745 L 7.1158,26.9745 L 7.1298,26.9745 L 7.1438,26.9745 L 7.1579,26.9745 L 7.1719,26.9745 L 7.1859,26.9745 L 7.1859,26.9604 L 7.1859,26.9464 L 7.1859,26.9323 L 7.1859,26.9183 L 7.1859,26.9042 L 7.1859,26.8902 L 7.1719,26.8761 L 7.1719,26.8621 L 7.1719,26.8480 L 7.1579,26.8340 L 7.1579,26.8199 L 7.1438,26.8199 L 7.1298,26.8059 L 7.1158,26.8059 L 7.1017,26.7918 L 7.0877,26.7918 L 7.0737,26.7918 L 7.0737,26.7778 L 7.0596,26.7778 L 7.0456,26.7778 L 7.0175,26.7778 L 7.0035,26.7778 L 6.9895,26.7778 L 6.9895,26.7918 L 6.9895,26.8059 L 6.9895,26.8199 L 6.9895,26.8340 L 6.9895,26.8480 L 6.9895,26.8621 L 6.9895,26.8761 L 6.9895,26.8902 L 6.9895,26.9042 L 6.9895,26.9183 L 6.9895,26.9323 L 6.9895,26.9464 L 6.9895,26.9604 L 6.9895,26.9745 Z" stroke="#ED3440" stroke-width="0.1198" stroke-linecap="round" stroke-linejoin="round" fill="#ED3440"/>
        <path d="M 6.7509,26.9745 L 6.7509,26.7778 L 6.9473,26.7778 L 6.9473,26.9745 L 6.7509,26.9745 Z" stroke="#ED3440" stroke-width="0.1198" stroke-linecap="round" stroke-linejoin="round" fill="#ED3440"/>
        <path d="M 6.9895,27.3398 L 7.0035,27.3398 L 7.0175,27.3398 L 7.0316,27.3398 L 7.0456,27.3398 L 7.0596,27.3398 L 7.0737,27.3398 L 7.0877,27.3398 L 7.1017,27.3398 L 7.1158,27.3398 L 7.1298,27.3398 L 7.1438,27.3398 L 7.1579,27.3398 L 7.1719,27.3398 L 7.1859,27.3398 L 7.1859,27.3538 L 7.1859,27.3679 L 7.1859,27.3819 L 7.1859,27.3960 L 7.1859,27.4100 L 7.1859,27.4241 L 7.1719,27.4241 L 7.1719,27.4381 L 7.1719,27.4522 L 7.1719,27.4662 L 7.1579,27.4662 L 7.1579,27.4803 L 7.1438,27.4943 L 7.1298,27.5084 L 7.1158,27.5084 L 7.1017,27.5224 L 7.0877,27.5224 L 7.0737,27.5224 L 7.0596,27.5365 L 7.0456,27.5365 L 7.0175,27.5365 L 7.0035,27.5365 L 6.9895,27.5365 L 6.9895,27.5224 L 6.9895,27.5084 L 6.9895,27.4943 L 6.9895,27.4803 L 6.9895,27.4662 L 6.9895,27.4522 L 6.9895,27.4381 L 6.9895,27.4241 L 6.9895,27.4100 L 6.9895,27.3960 L 6.9895,27.3819 L 6.9895,27.3679 L 6.9895,27.3538 L 6.9895,27.3398 Z" stroke="#ED3440" stroke-width="0.1198" stroke-linecap="round" stroke-linejoin="round" fill="#ED3440"/>
        <path d="M 6.5123,27.2695 L 6.7088,27.2695 L 6.7088,27.0447 L 6.5123,27.0447 L 6.5123,27.2695 Z" stroke="#ED3440" stroke-width="0.1198" stroke-linecap="round" stroke-linejoin="round" fill="#ED3440"/>
        <path d="M 6.7088,26.9745 L 6.6947,26.9745 L 6.6807,26.9745 L 6.6666,26.9745 L 6.6526,26.9745 L 6.6386,26.9745 L 6.6245,26.9745 L 6.6105,26.9745 L 6.5965,26.9745 L 6.5824,26.9745 L 6.5684,26.9745 L 6.5544,26.9745 L 6.5403,26.9745 L 6.5263,26.9745 L 6.5123,26.9745 L 6.5123,26.9604 L 6.5123,26.9464 L 6.5123,26.9323 L 6.5123,26.9183 L 6.5123,26.9042 L 6.5123,26.8902 L 6.5263,26.8761 L 6.5263,26.8621 L 6.5263,26.8480 L 6.5403,26.8340 L 6.5403,26.8199 L 6.5544,26.8199 L 6.5684,26.8059 L 6.5824,26.8059 L 6.5965,26.7918 L 6.6105,26.7918 L 6.6245,26.7918 L 6.6245,26.7778 L 6.6386,26.7778 L 6.6526,26.7778 L 6.6807,26.7778 L 6.6947,26.7778 L 6.7088,26.7778 L 6.7088,26.7918 L 6.7088,26.8059 L 6.7088,26.8199 L 6.7088,26.8340 L 6.7088,26.8480 L 6.7088,26.8621 L 6.7088,26.8761 L 6.7088,26.8902 L 6.7088,26.9042 L 6.7088,26.9183 L 6.7088,26.9323 L 6.7088,26.9464 L 6.7088,26.9604 L 6.7088,26.9745 Z" stroke="#ED3440" stroke-width="0.1198" stroke-linecap="round" stroke-linejoin="round" fill="#ED3440"/>
        <path d="M 6.7088,27.3398 L 6.6947,27.3398 L 6.6807,27.3398 L 6.6666,27.3398 L 6.6526,27.3398 L 6.6386,27.3398 L 6.6245,27.3398 L 6.6105,27.3398 L 6.5965,27.3398 L 6.5824,27.3398 L 6.5684,27.3398 L 6.5544,27.3398 L 6.5403,27.3398 L 6.5263,27.3398 L 6.5123,27.3398 L 6.5123,27.3538 L 6.5123,27.3679 L 6.5123,27.3819 L 6.5123,27.3960 L 6.5123,27.4100 L 6.5123,27.4241 L 6.5263,27.4241 L 6.5263,27.4381 L 6.5263,27.4522 L 6.5263,27.4662 L 6.5403,27.4662 L 6.5403,27.4803 L 6.5544,27.4943 L 6.5684,27.5084 L 6.5824,27.5084 L 6.5965,27.5224 L 6.6105,27.5224 L 6.6245,27.5224 L 6.6386,27.5365 L 6.6526,27.5365 L 6.6807,27.5365 L 6.6947,27.5365 L 6.7088,27.5365 L 6.7088,27.5224 L 6.7088,27.5084 L 6.7088,27.4943 L 6.7088,27.4803 L 6.7088,27.4662 L 6.7088,27.4522 L 6.7088,27.4381 L 6.7088,27.4241 L 6.7088,27.4100 L 6.7088,27.3960 L 6.7088,27.3819 L 6.7088,27.3679 L 6.7088,27.3538 L 6.7088,27.3398 Z" stroke="#ED3440" stroke-width="0.1198" stroke-linecap="round" stroke-linejoin="round" fill="#ED3440"/>
        <text font-family="Symbol" fill="#000000" transform="rotate(-90, 7.1579, 22.9630) translate(0, 0.4421)" style="white-space:pre;" text-anchor="start" x="7.1579" y="22.5209" font-size="0.4912"><![CDATA[]]></text>
        <ellipse cx="4.9193" cy="30.5289" rx="0.6947" ry="0.7025" fill="none" stroke="#0A0A0A" stroke-width="0.1198" stroke-linecap="round" stroke-linejoin="round"/>
        <path d="M 4.9824,30.0372 L 4.9824,30.7116 " stroke="#000000" stroke-width="0.1198" stroke-linecap="round" stroke-linejoin="round" fill="none"/>
        <path d="M 4.5193,30.8521 L 5.4456,30.8521 " stroke="#000000" stroke-width="0.1198" stroke-linecap="round" stroke-linejoin="round" fill="none"/>
        <path d="M 4.6175,30.9926 L 5.3474,30.9926 " stroke="#000000" stroke-width="0.1198" stroke-linecap="round" stroke-linejoin="round" fill="none"/>
        <path d="M 4.6175,30.9926 L 5.3474,30.9926 " stroke="#000000" stroke-width="0.1198" stroke-linecap="round" stroke-linejoin="round" fill="none"/>
        <path d="M 4.7579,31.1612 L 5.2070,31.1612 " stroke="#000000" stroke-width="0.1198" stroke-linecap="round" stroke-linejoin="round" fill="none"/>
        <path d="M 2.2456,22.6192 L 3.8737,22.6192 L 3.8737,23.9118 L 4.3228,23.9118 L 4.3228,29.4471 L 3.8737,29.4471 L 3.8737,30.7397 L 2.2456,30.7397 L 2.2456,22.6192 Z" stroke="#000000" stroke-width="0.1198" stroke-linecap="round" stroke-linejoin="round" fill="#494949"/>
        <ellipse cx="2.9684" cy="23.4060" rx="0.4561" ry="0.4636" fill="#848484" stroke="#000000" stroke-width="0.1198" stroke-linecap="round" stroke-linejoin="round"/>
        <ellipse cx="2.9684" cy="23.4060" rx="0.4561" ry="0.4636" fill="none" stroke="#000000" stroke-width="0.1198" stroke-linecap="round" stroke-linejoin="round"/>
        <ellipse cx="2.9684" cy="23.3990" rx="0.3158" ry="0.3161" fill="#BFBFBF" stroke="#000000" stroke-width="0.1198" stroke-linecap="round" stroke-linejoin="round"/>
        <ellipse cx="2.9684" cy="23.3990" rx="0.3158" ry="0.3161" fill="none" stroke="#000000" stroke-width="0.1198" stroke-linecap="round" stroke-linejoin="round"/>
        <ellipse cx="2.9684" cy="23.3990" rx="0.1895" ry="0.1897" fill="#161616" stroke="#000000" stroke-width="0.1198" stroke-linecap="round" stroke-linejoin="round"/>
        <ellipse cx="2.9684" cy="23.3990" rx="0.1895" ry="0.1897" fill="none" stroke="#000000" stroke-width="0.1198" stroke-linecap="round" stroke-linejoin="round"/>
        <ellipse cx="2.9684" cy="29.8335" rx="0.4561" ry="0.4566" fill="#848484" stroke="#000000" stroke-width="0.1198" stroke-linecap="round" stroke-linejoin="round"/>
        <ellipse cx="2.9684" cy="29.8335" rx="0.4561" ry="0.4566" fill="none" stroke="#000000" stroke-width="0.1198" stroke-linecap="round" stroke-linejoin="round"/>
        <ellipse cx="2.9684" cy="29.8335" rx="0.3158" ry="0.3161" fill="#BFBFBF" stroke="#000000" stroke-width="0.1198" stroke-linecap="round" stroke-linejoin="round"/>
        <ellipse cx="2.9684" cy="29.8335" rx="0.3158" ry="0.3161" fill="none" stroke="#000000" stroke-width="0.1198" stroke-linecap="round" stroke-linejoin="round"/>
        <ellipse cx="2.9684" cy="29.8335" rx="0.1895" ry="0.1897" fill="#161616" stroke="#000000" stroke-width="0.1198" stroke-linecap="round" stroke-linejoin="round"/>
        <ellipse cx="2.9684" cy="29.8335" rx="0.1895" ry="0.1897" fill="none" stroke="#000000" stroke-width="0.1198" stroke-linecap="round" stroke-linejoin="round"/>
        <path d="M 4.1684,24.1506 L 4.1123,24.1506 L 3.9298,24.3894 L 3.8175,24.3894 L 3.6351,24.1506 L 2.4000,24.1506 L 2.4000,24.3613 L 2.5123,24.3613 L 2.5123,24.7828 L 2.4000,24.7828 L 2.4000,24.9935 L 3.6351,24.9935 L 3.8175,24.7547 L 3.9298,24.7547 L 4.1123,24.9935 L 4.1684,24.9935 L 4.1684,24.1506 Z" stroke="#000000" stroke-width="0.1198" stroke-linecap="round" stroke-linejoin="round" fill="#000000"/>
        <ellipse cx="3.0456" cy="24.5229" rx="0.0982" ry="0.0913" fill="#FFFFFF" stroke="#000000" stroke-width="0.1198" stroke-linecap="round" stroke-linejoin="round"/>
        <ellipse cx="3.0456" cy="24.5229" rx="0.0982" ry="0.0913" fill="none" stroke="#000000" stroke-width="0.1198" stroke-linecap="round" stroke-linejoin="round"/>
        <path d="M 4.1684,25.2043 L 4.1123,25.2043 L 3.9298,25.4431 L 3.8175,25.4431 L 3.6351,25.2043 L 2.4000,25.2043 L 2.4000,25.4150 L 2.5123,25.4150 L 2.5123,25.8365 L 2.4000,25.8365 L 2.4000,26.0472 L 3.6351,26.0472 L 3.8175,25.8084 L 3.9298,25.8084 L 4.1123,26.0472 L 4.1684,26.0472 L 4.1684,25.2043 Z" stroke="#000000" stroke-width="0.1198" stroke-linecap="round" stroke-linejoin="round" fill="#000000"/>
        <ellipse cx="3.0456" cy="25.5836" rx="0.0982" ry="0.0983" fill="#FFFFFF" stroke="#000000" stroke-width="0.1198" stroke-linecap="round" stroke-linejoin="round"/>
        <ellipse cx="3.0456" cy="25.5836" rx="0.0982" ry="0.0983" fill="none" stroke="#000000" stroke-width="0.1198" stroke-linecap="round" stroke-linejoin="round"/>
        <path d="M 4.1684,26.2580 L 4.1123,26.2580 L 3.9298,26.4968 L 3.8175,26.4968 L 3.6351,26.2580 L 2.4000,26.2580 L 2.4000,26.4687 L 2.5123,26.4687 L 2.5123,26.8902 L 2.4000,26.8902 L 2.4000,27.1009 L 3.6351,27.1009 L 3.8175,26.8621 L 3.9298,26.8621 L 4.1123,27.1009 L 4.1684,27.1009 L 4.1684,26.2580 Z" stroke="#000000" stroke-width="0.1198" stroke-linecap="round" stroke-linejoin="round" fill="#000000"/>
        <ellipse cx="3.0456" cy="26.6373" rx="0.0982" ry="0.0983" fill="#FFFFFF" stroke="#000000" stroke-width="0.1198" stroke-linecap="round" stroke-linejoin="round"/>
        <ellipse cx="3.0456" cy="26.6373" rx="0.0982" ry="0.0983" fill="none" stroke="#000000" stroke-width="0.1198" stroke-linecap="round" stroke-linejoin="round"/>
        <path d="M 4.1684,27.3117 L 4.1123,27.3117 L 3.9298,27.5505 L 3.8175,27.5505 L 3.6351,27.3117 L 2.4000,27.3117 L 2.4000,27.5224 L 2.5123,27.5224 L 2.5123,27.9439 L 2.4000,27.9439 L 2.4000,28.1546 L 3.6351,28.1546 L 3.8175,27.9158 L 3.9298,27.9158 L 4.1123,28.1546 L 4.1684,28.1546 L 4.1684,27.3117 Z" stroke="#000000" stroke-width="0.1198" stroke-linecap="round" stroke-linejoin="round" fill="#000000"/>
        <ellipse cx="3.0456" cy="27.6840" rx="0.0982" ry="0.0913" fill="#FFFFFF" stroke="#000000" stroke-width="0.1198" stroke-linecap="round" stroke-linejoin="round"/>
        <ellipse cx="3.0456" cy="27.6840" rx="0.0982" ry="0.0913" fill="none" stroke="#000000" stroke-width="0.1198" stroke-linecap="round" stroke-linejoin="round"/>
        <path d="M 4.1684,28.3654 L 4.1123,28.3654 L 3.9298,28.6042 L 3.8175,28.6042 L 3.6351,28.3654 L 2.4000,28.3654 L 2.4000,28.5761 L 2.5123,28.5761 L 2.5123,28.9976 L 2.4000,28.9976 L 2.4000,29.2083 L 3.6351,29.2083 L 3.8175,28.9695 L 3.9298,28.9695 L 4.1123,29.2083 L 4.1684,29.2083 L 4.1684,28.3654 Z" stroke="#000000" stroke-width="0.1198" stroke-linecap="round" stroke-linejoin="round" fill="#000000"/>
        <ellipse cx="3.0456" cy="28.7377" rx="0.0982" ry="0.0913" fill="#FFFFFF" stroke="#000000" stroke-width="0.1198" stroke-linecap="round" stroke-linejoin="round"/>
        <ellipse cx="3.0456" cy="28.7377" rx="0.0982" ry="0.0913" fill="none" stroke="#000000" stroke-width="0.1198" stroke-linecap="round" stroke-linejoin="round"/>
        <ellipse cx="1.6210" cy="14.6463" rx="0.2456" ry="0.2459" fill="#00FF00" stroke="#000000" stroke-width="0.1198" stroke-linecap="round" stroke-linejoin="round"/>
        <ellipse cx="1.6210" cy="14.6463" rx="0.2456" ry="0.2459" fill="none" stroke="#000000" stroke-width="0.1198" stroke-linecap="round" stroke-linejoin="round"/>
        <ellipse cx="0.8912" cy="14.6533" rx="0.2877" ry="0.2950" fill="#EFEFEF" stroke="#000000" stroke-width="0.1198" stroke-linecap="round" stroke-linejoin="round"/>
        <ellipse cx="0.8912" cy="14.6533" rx="0.2877" ry="0.2950" fill="none" stroke="#BFBFBF" stroke-width="0.1198" stroke-linecap="round" stroke-linejoin="round"/>
        <ellipse cx="1.2561" cy="14.0281" rx="0.2877" ry="0.2880" fill="#EFEFEF" stroke="#000000" stroke-width="0.1198" stroke-linecap="round" stroke-linejoin="round"/>
        <ellipse cx="1.2561" cy="14.0281" rx="0.2877" ry="0.2880" fill="none" stroke="#BFBFBF" stroke-width="0.1198" stroke-linecap="round" stroke-linejoin="round"/>
        <path d="M 1.4175,13.9790 L 1.3754,13.9368 L 1.3193,13.9087 L 1.2632,13.8947 L 1.2210,13.8806 L 1.1649,13.8806 L 1.1228,13.8806 L 1.0807,13.8947 L 1.0526,13.9228 L 1.0246,13.9509 L 1.0105,13.9930 L 1.0105,14.0352 L 1.0105,14.0914 L 1.0246,14.1335 L 1.0386,14.1897 L 1.0667,14.2459 L 1.1088,14.2880 L 1.1509,14.3302 L 1.2070,14.3583 L 1.2632,14.3723 L 1.3053,14.3864 L 1.3614,14.3864 L 1.4035,14.3864 L 1.4456,14.3723 L 1.4737,14.3442 L 1.5017,14.3161 L 1.5158,14.2740 L 1.5158,14.2319 L 1.5158,14.1757 L 1.5017,14.1335 L 1.4877,14.0773 L 1.4596,14.0211 L 1.4175,13.9790 Z" stroke="#98C621" stroke-width="0.1198" stroke-linecap="round" stroke-linejoin="round" fill="#98C621"/>
        <text font-family="Arial" fill="#FFFFFF" transform="rotate(-45, 1.2632, 14.7091) translate(0, 0.3789)" style="white-space:pre;" text-anchor="start" x="1.2632" y="14.3302" font-size="0.4211"><![CDATA[H]]></text>
        <ellipse cx="1.2561" cy="15.2785" rx="0.2877" ry="0.2880" fill="#EFEFEF" stroke="#000000" stroke-width="0.1198" stroke-linecap="round" stroke-linejoin="round"/>
        <ellipse cx="1.2561" cy="15.2785" rx="0.2877" ry="0.2880" fill="none" stroke="#BFBFBF" stroke-width="0.1198" stroke-linecap="round" stroke-linejoin="round"/>
        <path d="M 1.0947,15.1170 L 1.0526,15.1591 L 1.0246,15.2153 L 1.0105,15.2715 L 0.9965,15.3136 L 0.9965,15.3698 L 0.9965,15.4120 L 1.0105,15.4541 L 1.0386,15.4822 L 1.0667,15.5103 L 1.1088,15.5244 L 1.1509,15.5244 L 1.2070,15.5244 L 1.2491,15.5103 L 1.3053,15.4963 L 1.3614,15.4682 L 1.4035,15.4260 L 1.4456,15.3839 L 1.4737,15.3277 L 1.4877,15.2715 L 1.5017,15.2293 L 1.5017,15.1731 L 1.5017,15.1310 L 1.4877,15.0889 L 1.4596,15.0608 L 1.4316,15.0327 L 1.3895,15.0186 L 1.3474,15.0186 L 1.2912,15.0186 L 1.2491,15.0327 L 1.1930,15.0467 L 1.1368,15.0748 L 1.0947,15.1170 Z" stroke="#FF0000" stroke-width="0.1198" stroke-linecap="round" stroke-linejoin="round" fill="#FF0C0C"/>
        <text font-family="Arial" fill="#FFFFFF" transform="rotate(-135, 1.4175, 15.6364) translate(0, 0.3789)" style="white-space:pre;" text-anchor="start" x="1.4175" y="15.2574" font-size="0.4211"><![CDATA[L]]></text>
        <path d="M 2.2737,7.8957 L 2.2737,7.8395 L 2.2456,7.7833 L 2.2175,7.7271 L 2.1895,7.6849 L 2.1333,7.6428 L 2.0912,7.6147 L 2.0210,7.5866 L 1.9649,7.5866 L 0.7439,7.5866 L 0.6877,7.5866 L 0.6316,7.6147 L 0.5754,7.6428 L 0.5333,7.6849 L 0.4912,7.7271 L 0.4632,7.7833 L 0.4351,7.8395 L 0.4351,7.8957 L 0.4351,13.2063 L 0.4351,13.2625 L 0.4632,13.3327 L 0.4912,13.3749 L 0.5333,13.4310 L 0.5754,13.4591 L 0.6316,13.4872 L 0.6877,13.5153 L 0.7439,13.5153 L 1.9649,13.5153 L 2.0210,13.5153 L 2.0912,13.4872 L 2.1333,13.4591 L 2.1895,13.4310 L 2.2175,13.3749 L 2.2456,13.3327 L 2.2737,13.2625 L 2.2737,13.2063 L 2.2737,7.8957 Z" stroke="#7F7F7F" stroke-width="0.1198" stroke-linecap="round" stroke-linejoin="round" fill="#EFEFEF"/>
        <ellipse cx="1.2912" cy="9.1039" rx="0.5193" ry="0.5198" fill="#7F7F7F" stroke="#000000" stroke-width="0.1198" stroke-linecap="round" stroke-linejoin="round"/>
        <ellipse cx="1.2912" cy="9.1039" rx="0.5193" ry="0.5198" fill="none" stroke="#000000" stroke-width="0.1198" stroke-linecap="round" stroke-linejoin="round"/>
        <ellipse cx="1.2912" cy="9.0969" rx="0.3930" ry="0.3864" fill="#898989" stroke="#000000" stroke-width="0.1198" stroke-linecap="round" stroke-linejoin="round"/>
        <ellipse cx="1.2912" cy="9.0969" rx="0.3930" ry="0.3864" fill="none" stroke="#898989" stroke-width="0.1198" stroke-linecap="round" stroke-linejoin="round"/>
        <path d="M 0.9825,9.1320 L 0.9825,9.1179 L 0.9965,9.1179 L 0.9965,9.1039 L 1.0105,9.1039 L 1.0246,9.1039 L 1.0246,9.0898 L 1.0386,9.0898 L 1.0526,9.0898 L 1.0667,9.0898 L 1.0807,9.0898 L 1.0807,9.0758 L 1.0947,9.0758 L 1.1088,9.0758 L 1.1228,9.0758 L 1.1368,9.0758 L 1.1509,9.0758 L 1.1649,9.0758 L 1.1789,9.0758 L 1.1930,9.0758 L 1.2070,9.0758 L 1.2210,9.0617 L 1.2351,9.0477 L 1.2491,9.0477 L 1.2491,9.0336 L 1.2632,9.0196 L 1.2772,9.0055 L 1.2772,8.9915 L 1.2772,8.9774 L 1.2772,8.9634 L 1.2772,8.9493 L 1.2772,8.9353 L 1.2772,8.9213 L 1.2772,8.9072 L 1.2772,8.8932 L 1.2772,8.8791 L 1.2912,8.8791 L 1.2912,8.8651 L 1.2912,8.8510 L 1.2912,8.8370 L 1.3053,8.8229 L 1.3053,8.8089 L 1.3193,8.8089 L 1.3193,8.7948 L 1.3333,8.7948 L 1.3474,8.7948 L 1.3614,8.7948 L 1.3754,8.7948 L 1.3895,8.7948 L 1.3895,8.8089 L 1.4035,8.8229 L 1.4035,8.8370 L 1.4035,8.8510 L 1.4175,8.8510 L 1.4175,8.8651 L 1.4175,8.8791 L 1.4175,8.8932 L 1.4316,8.9072 L 1.4316,8.9213 L 1.4316,8.9353 L 1.4316,8.9493 L 1.4316,8.9634 L 1.4316,8.9774 L 1.4316,8.9915 L 1.4316,9.0055 L 1.4456,9.0196 L 1.4596,9.0336 L 1.4737,9.0477 L 1.4877,9.0617 L 1.5017,9.0758 L 1.5158,9.0758 L 1.5298,9.0758 L 1.5439,9.0758 L 1.5579,9.0758 L 1.5719,9.0758 L 1.5860,9.0758 L 1.6000,9.0758 L 1.6140,9.0758 L 1.6140,9.0898 L 1.6281,9.0898 L 1.6421,9.0898 L 1.6561,9.0898 L 1.6702,9.0898 L 1.6702,9.1039 L 1.6842,9.1039 L 1.6982,9.1039 L 1.6982,9.1179 L 1.7123,9.1179 L 1.7123,9.1320 L 1.7123,9.1460 L 1.7123,9.1601 L 1.7123,9.1741 L 1.7123,9.1882 L 1.7123,9.2022 L 1.6982,9.2022 L 1.6982,9.2163 L 1.6842,9.2163 L 1.6702,9.2163 L 1.6702,9.2303 L 1.6561,9.2303 L 1.6421,9.2303 L 1.6281,9.2303 L 1.6140,9.2303 L 1.6140,9.2444 L 1.6000,9.2444 L 1.5860,9.2444 L 1.5719,9.2444 L 1.5579,9.2444 L 1.5439,9.2444 L 1.5298,9.2444 L 1.5158,9.2444 L 1.5017,9.2444 L 1.4877,9.2584 L 1.4737,9.2725 L 1.4737,9.2865 L 1.4596,9.2865 L 1.4456,9.3006 L 1.4316,9.3146 L 1.4316,9.3287 L 1.4316,9.3427 L 1.4316,9.3568 L 1.4316,9.3708 L 1.4316,9.3849 L 1.4316,9.3989 L 1.4316,9.4130 L 1.4175,9.4270 L 1.4175,9.4411 L 1.4175,9.4551 L 1.4175,9.4692 L 1.4035,9.4692 L 1.4035,9.4832 L 1.4035,9.4973 L 1.3895,9.5113 L 1.3895,9.5254 L 1.3754,9.5254 L 1.3614,9.5254 L 1.3474,9.5254 L 1.3333,9.5254 L 1.3193,9.5254 L 1.3193,9.5113 L 1.3053,9.5113 L 1.3053,9.4973 L 1.2912,9.4832 L 1.2912,9.4692 L 1.2912,9.4551 L 1.2912,9.4411 L 1.2772,9.4411 L 1.2772,9.4270 L 1.2772,9.4130 L 1.2772,9.3989 L 1.2772,9.3849 L 1.2772,9.3708 L 1.2772,9.3568 L 1.2772,9.3427 L 1.2772,9.3287 L 1.2772,9.3146 L 1.2632,9.3006 L 1.2491,9.2865 L 1.2351,9.2725 L 1.2210,9.2584 L 1.2070,9.2444 L 1.1930,9.2444 L 1.1789,9.2444 L 1.1649,9.2444 L 1.1509,9.2444 L 1.1368,9.2444 L 1.1228,9.2444 L 1.1088,9.2444 L 1.0947,9.2444 L 1.0807,9.2444 L 1.0807,9.2303 L 1.0667,9.2303 L 1.0526,9.2303 L 1.0386,9.2303 L 1.0246,9.2303 L 1.0246,9.2163 L 1.0105,9.2163 L 0.9965,9.2163 L 0.9965,9.2022 L 0.9825,9.2022 L 0.9825,9.1882 L 0.9825,9.1741 L 0.9825,9.1601 L 0.9825,9.1460 L 0.9825,9.1320 Z" stroke="#333333" stroke-width="0.1198" stroke-linecap="round" stroke-linejoin="round" fill="#494949"/>
        <ellipse cx="1.2912" cy="9.1039" rx="0.5193" ry="0.5198" fill="none" stroke="#000000" stroke-width="0.1198" stroke-linecap="round" stroke-linejoin="round"/>
        <ellipse cx="1.2912" cy="9.1039" rx="0.5193" ry="0.5198" fill="none" stroke="#000000" stroke-width="0.1198" stroke-linecap="round" stroke-linejoin="round"/>
        <ellipse cx="1.2842" cy="7.5515" rx="0.2316" ry="0.2318" fill="#EFEFEF" stroke="#000000" stroke-width="0.1198" stroke-linecap="round" stroke-linejoin="round"/>
        <ellipse cx="1.2842" cy="7.5515" rx="0.2316" ry="0.2318" fill="none" stroke="#BFBFBF" stroke-width="0.1198" stroke-linecap="round" stroke-linejoin="round"/>
        <path d="M 14.0350,17.5334 L 11.4666,17.5334 L 11.4666,18.1094 L 11.4666,21.9870 L 11.4666,22.5630 L 14.0350,22.5630 L 14.0350,17.5334 Z" stroke="#000000" stroke-width="0.1198" stroke-linecap="round" stroke-linejoin="round" fill="#BFBFBF"/>
        <path d="M 13.0245,18.1235 L 13.8386,18.1235 L 13.8386,17.6739 L 13.0245,17.6739 L 13.0245,18.1235 Z" stroke="#000000" stroke-width="0.1198" stroke-linecap="round" stroke-linejoin="round" fill="#00FF00"/>
        <path d="M 13.0245,22.4506 L 13.8386,22.4506 L 13.8386,22.0011 L 13.0245,22.0011 L 13.0245,22.4506 Z" stroke="#000000" stroke-width="0.1198" stroke-linecap="round" stroke-linejoin="round" fill="#00FF00"/>
        <path d="M 13.0245,17.5334 L 13.0245,18.1094 L 13.0245,21.9870 L 13.0245,22.5630 " stroke="#000000" stroke-width="0.1198" stroke-linecap="round" stroke-linejoin="round" fill="none"/>
        <text font-family="Arial" fill="#000000" transform="rotate(-90, 0.6737, 1.4975) translate(0, 0.1768)" style="white-space:pre;" font-weight="400" text-anchor="start" x="0.6737" y="1.4975" font-size="0.1965"><![CDATA[ALM]]></text>
        <text font-family="Arial" fill="#000000" transform="rotate(-90, 0.6737, 2.1156) translate(0, 0.1768)" style="white-space:pre;" font-weight="400" text-anchor="start" x="0.6737" y="2.1156" font-size="0.1965"><![CDATA[PWR]]></text>
        <path d="M 2.9773,2.1964 L 2.9773,3.0109 L 3.3927,3.0109 L 3.3927,2.1964 L 2.9773,2.1964 Z" stroke="#000000" stroke-width="0.1198" stroke-linecap="round" stroke-linejoin="round" fill="#83FF00"/>
        <path d="M 2.9773,4.9455 L 2.9773,5.7600 L 3.3927,5.7600 L 3.3927,4.9455 L 2.9773,4.9455 Z" stroke="#000000" stroke-width="0.1198" stroke-linecap="round" stroke-linejoin="round" fill="#83FF00"/>
        <path d="M 8.7242,2.1964 L 8.7242,3.0109 L 9.1396,3.0109 L 9.1396,2.1964 L 8.7242,2.1964 Z" stroke="#000000" stroke-width="0.1198" stroke-linecap="round" stroke-linejoin="round" fill="#83FF00"/>
        <path d="M 8.7242,4.9455 L 8.7242,5.7600 L 9.1396,5.7600 L 9.1396,4.9455 L 8.7242,4.9455 Z" stroke="#000000" stroke-width="0.1198" stroke-linecap="round" stroke-linejoin="round" fill="#83FF00"/>
        <text font-family="Arial" fill="#000000" transform="rotate(-90, 12.4285, 6.7927) translate(0, 0.2181)" style="white-space:pre;" font-weight="400" text-anchor="start" x="12.4285" y="6.7927" font-size="0.2423"><![CDATA[5/6]]></text>
        <text font-family="Arial" fill="#000000" transform="rotate(-90, 13.7960, 7.3745) translate(0, 0.2181)" style="white-space:pre;" font-weight="400" text-anchor="start" x="13.7960" y="7.3745" font-size="0.2423"><![CDATA[8]]></text>
        <text font-family="Arial" fill="#000000" transform="rotate(-90, 13.7960, 8.6981) translate(0, 0.2181)" style="white-space:pre;" font-weight="400" text-anchor="start" x="13.7960" y="8.6981" font-size="0.2423"><![CDATA[7]]></text>
        <text font-family="Arial" fill="#000000" transform="rotate(-90, 13.4671, 9.9761) translate(0, 0.1869)" style="white-space:pre;" font-weight="400" text-anchor="start" x="13.4671" y="9.9761" font-size="0.2077"><![CDATA[RST/BLE]]></text>
        <text font-family="Arial" fill="#000000" transform="rotate(-90, 12.8439, 9.7724) translate(0, 0.1869)" style="white-space:pre;" font-weight="400" text-anchor="start" x="12.8439" y="9.7724" font-size="0.2077"><![CDATA[BLE]]></text>
        <text font-family="Arial" fill="#000000" transform="rotate(-90, 13.7787, 11.1127) translate(0, 0.2181)" style="white-space:pre;" font-weight="400" text-anchor="start" x="13.7787" y="11.1127" font-size="0.2423"><![CDATA[MGMT]]></text>
        <text font-family="Arial" fill="#000000" transform="rotate(-90, 11.9784, 11.2561) translate(0, 0.1869)" style="white-space:pre;" font-weight="400" text-anchor="start" x="11.9784" y="11.2561" font-size="0.2077"><![CDATA[USB/CONSOLE]]></text>
        <path d="M 13.9620,26.6747 L 13.9620,25.0998 " stroke="#000000" stroke-width="0.1198" stroke-linecap="round" stroke-linejoin="round" fill="none"/>
        <path d="M 14.4119,26.6466 L 14.4119,26.3372 " stroke="#000000" stroke-width="0.1198" stroke-linecap="round" stroke-linejoin="round" fill="none"/>
        <path d="M 14.4119,26.0419 L 14.4119,25.7326 " stroke="#000000" stroke-width="0.1198" stroke-linecap="round" stroke-linejoin="round" fill="none"/>
        <path d="M 14.4119,26.0419 L 14.4119,25.7326 " stroke="#000000" stroke-width="0.1198" stroke-linecap="round" stroke-linejoin="round" fill="none"/>
        <path d="M 14.4119,25.4373 L 14.4119,25.1279 " stroke="#000000" stroke-width="0.1198" stroke-linecap="round" stroke-linejoin="round" fill="none"/>
        <text font-family="Arial" fill="#000000" transform="rotate(-90, 17.9270, 33.0249) translate(0, 0.1772)" style="white-space:pre;" font-weight="400" text-anchor="start" x="17.9270" y="33.0249" font-size="0.1968"><![CDATA[12-57V]]></text>
        <text font-family="Arial" fill="#000000" transform="rotate(-90, 16.9006, 31.8887) translate(0, 0.1519)" style="white-space:pre;" font-weight="400" text-anchor="start" x="16.9006" y="31.8887" font-size="0.1687"><![CDATA[DC2]]></text>
        <text font-family="Arial" fill="#000000" transform="rotate(-90, 16.9006, 33.3370) translate(0, 0.1519)" style="white-space:pre;" font-weight="400" text-anchor="start" x="16.9006" y="33.3370" font-size="0.1687"><![CDATA[DC1]]></text>
        <text font-family="Arial" fill="#000000" style="white-space:pre;" font-weight="400" text-anchor="start" x="16.8162" y="32.0012" font-size="0.1687"><![CDATA[DC2-]]></text>
        <text font-family="Arial" fill="#000000" style="white-space:pre;" font-weight="400" text-anchor="start" x="16.8162" y="32.2402" font-size="0.1687"><![CDATA[DC2+]]></text>
        <text font-family="Arial" fill="#000000" style="white-space:pre;" font-weight="400" text-anchor="start" x="16.8162" y="32.4933" font-size="0.1687"><![CDATA[DC1+]]></text>
        <text font-family="Arial" fill="#000000" style="white-space:pre;" font-weight="400" text-anchor="start" x="16.8162" y="32.7324" font-size="0.1687"><![CDATA[DC1-]]></text>
        <text font-family="Arial" fill="#000000" style="white-space:pre;" font-weight="400" text-anchor="start" x="15.6914" y="32.0012" font-size="0.1687"><![CDATA[COM]]></text>
        <text font-family="Arial" fill="#000000" style="white-space:pre;" font-weight="400" text-anchor="start" x="15.6914" y="32.2402" font-size="0.1687"><![CDATA[NC]]></text>
        <text font-family="Arial" fill="#000000" style="white-space:pre;" font-weight="400" text-anchor="start" x="15.6914" y="32.4933" font-size="0.1687"><![CDATA[REF]]></text>
        <text font-family="Arial" fill="#000000" style="white-space:pre;" font-weight="400" text-anchor="start" x="15.6914" y="32.7324" font-size="0.1687"><![CDATA[IN+]]></text>
        <text font-family="Arial" fill="#000000" style="white-space:pre;" font-weight="400" text-anchor="start" x="15.6914" y="31.7481" font-size="0.1687"><![CDATA[NO]]></text>
        <path d="M 2.9773,7.9855 L 2.9773,8.8000 L 3.3927,8.8000 L 3.3927,7.9855 L 2.9773,7.9855 Z" stroke="#000000" stroke-width="0.1198" stroke-linecap="round" stroke-linejoin="round" fill="#83FF00"/>
        <path d="M 2.9773,10.7491 L 2.9773,11.5637 L 3.3927,11.5637 L 3.3927,10.7491 L 2.9773,10.7491 Z" stroke="#000000" stroke-width="0.1198" stroke-linecap="round" stroke-linejoin="round" fill="#83FF00"/>
        <path d="M 8.7242,7.9855 L 8.7242,8.8000 L 9.1396,8.8000 L 9.1396,7.9855 L 8.7242,7.9855 Z" stroke="#000000" stroke-width="0.1198" stroke-linecap="round" stroke-linejoin="round" fill="#83FF00"/>
        <path d="M 8.7242,10.7491 L 8.7242,11.5637 L 9.1396,11.5637 L 9.1396,10.7491 L 8.7242,10.7491 Z" stroke="#000000" stroke-width="0.1198" stroke-linecap="round" stroke-linejoin="round" fill="#83FF00"/>
        <path d="M 2.9773,11.9855 L 2.9773,12.8001 L 3.3927,12.8001 L 3.3927,11.9855 L 2.9773,11.9855 Z" stroke="#000000" stroke-width="0.1198" stroke-linecap="round" stroke-linejoin="round" fill="#83FF00"/>
        <path d="M 2.9773,14.7346 L 2.9773,15.5492 L 3.3927,15.5492 L 3.3927,14.7346 L 2.9773,14.7346 Z" stroke="#000000" stroke-width="0.1198" stroke-linecap="round" stroke-linejoin="round" fill="#83FF00"/>
        <path d="M 8.7242,11.9855 L 8.7242,12.8001 L 9.1396,12.8001 L 9.1396,11.9855 L 8.7242,11.9855 Z" stroke="#000000" stroke-width="0.1198" stroke-linecap="round" stroke-linejoin="round" fill="#83FF00"/>
        <path d="M 8.7242,14.7346 L 8.7242,15.5492 L 9.1396,15.5492 L 9.1396,14.7346 L 8.7242,14.7346 Z" stroke="#000000" stroke-width="0.1198" stroke-linecap="round" stroke-linejoin="round" fill="#83FF00"/>
        <text font-family="Arial" fill="#000000" transform="rotate(-90, 12.4285, 18.0800) translate(0, 0.2181)" style="white-space:pre;" font-weight="400" text-anchor="start" x="12.4285" y="18.0800" font-size="0.2423"><![CDATA[3/4]]></text>
        <text font-family="Arial" fill="#000000" transform="rotate(-90, 12.4285, 19.1127) translate(0, 0.2181)" style="white-space:pre;" font-weight="400" text-anchor="start" x="12.4285" y="19.1127" font-size="0.2423"><![CDATA[1/2]]></text>
        <text font-family="Arial" fill="#000000" transform="rotate(-90, 9.6589, 18.6712) translate(0, 0.1402)" style="white-space:pre;" font-weight="400" text-anchor="start" x="9.6589" y="18.6712" font-size="0.1558"><![CDATA[SIGNED]]></text>
        <text font-family="Arial" fill="#000000" transform="rotate(-90, 9.8493, 18.6712) translate(0, 0.1402)" style="white-space:pre;" font-weight="400" text-anchor="start" x="9.8493" y="18.6712" font-size="0.1558"><![CDATA[FIRMWARE]]></text>
        <text font-family="Arial" fill="#000000" transform="rotate(-90, 11.6496, 22.6889) translate(0, 0.1869)" style="white-space:pre;" font-weight="400" text-anchor="start" x="11.6496" y="22.6889" font-size="0.2077"><![CDATA[FortiSwitchRugged]]></text>
        <text font-family="Arial" fill="#000000" transform="rotate(-90, 11.8746, 22.1361) translate(0, 0.1869)" style="white-space:pre;" font-weight="400" text-anchor="start" x="11.8746" y="22.1361" font-size="0.2077"><![CDATA[108F]]></text>
        <text font-family="Arial" fill="#000000" transform="rotate(-90, 9.5724, 23.2125) translate(0, 0.1869)" style="white-space:pre;" font-weight="400" text-anchor="start" x="9.5724" y="23.2125" font-size="0.2077"><![CDATA[IN]]></text>
        <text font-family="Arial" fill="#000000" transform="rotate(-90, 9.5724, 21.6125) translate(0, 0.1869)" style="white-space:pre;" font-weight="400" text-anchor="start" x="9.5724" y="21.6125" font-size="0.2077"><![CDATA[OUT]]></text>
        <path d="M 12.8267,0.9535 L 11.3256,0.9535 L 10.5750,2.2582 L 11.3256,3.5629 L 12.8267,3.5629 L 13.5773,2.2582 L 12.8267,0.9535 Z" stroke="#0A0A0A" stroke-width="0.1198" stroke-linecap="round" stroke-linejoin="round" fill="#E2E2CC"/>
        <path d="M 5.6461,11.9844 L 3.5236,11.9844 L 3.5236,12.8773 L 3.0242,12.8773 L 3.0242,13.2400 L 2.5248,13.2400 L 2.5248,14.3004 L 3.0242,14.3004 L 3.0242,14.6631 L 3.5236,14.6631 L 3.5236,15.5560 L 5.6461,15.5560 L 5.6461,11.9844 Z" stroke="#161616" stroke-width="0.1198" stroke-linecap="round" stroke-linejoin="round" fill="#000000"/>
        <path d="M 6.4646,11.9844 L 8.5871,11.9844 L 8.5871,12.8773 L 9.0865,12.8773 L 9.0865,13.2400 L 9.5859,13.2400 L 9.5859,14.3004 L 9.0865,14.3004 L 9.0865,14.6631 L 8.5871,14.6631 L 8.5871,15.5560 L 6.4646,15.5560 L 6.4646,11.9844 Z" stroke="#161616" stroke-width="0.1198" stroke-linecap="round" stroke-linejoin="round" fill="#000000"/>
        <path d="M 5.6461,7.9803 L 3.5236,7.9803 L 3.5236,8.8732 L 3.0242,8.8732 L 3.0242,9.2359 L 2.5248,9.2359 L 2.5248,10.2963 L 3.0242,10.2963 L 3.0242,10.6590 L 3.5236,10.6590 L 3.5236,11.5519 L 5.6461,11.5519 L 5.6461,7.9803 Z" stroke="#161616" stroke-width="0.1198" stroke-linecap="round" stroke-linejoin="round" fill="#000000"/>
        <path d="M 6.4646,7.9803 L 8.5871,7.9803 L 8.5871,8.8732 L 9.0865,8.8732 L 9.0865,9.2359 L 9.5859,9.2359 L 9.5859,10.2963 L 9.0865,10.2963 L 9.0865,10.6590 L 8.5871,10.6590 L 8.5871,11.5519 L 6.4646,11.5519 L 6.4646,7.9803 Z" stroke="#161616" stroke-width="0.1198" stroke-linecap="round" stroke-linejoin="round" fill="#000000"/>
        <path d="M 5.6461,2.1904 L 3.5236,2.1904 L 3.5236,3.0833 L 3.0242,3.0833 L 3.0242,3.4460 L 2.5248,3.4460 L 2.5248,4.5064 L 3.0242,4.5064 L 3.0242,4.8691 L 3.5236,4.8691 L 3.5236,5.7620 L 5.6461,5.7620 L 5.6461,2.1904 Z" stroke="#161616" stroke-width="0.1198" stroke-linecap="round" stroke-linejoin="round" fill="#000000"/>
        <path d="M 6.4646,2.1904 L 8.5871,2.1904 L 8.5871,3.0833 L 9.0865,3.0833 L 9.0865,3.4460 L 9.5859,3.4460 L 9.5859,4.5064 L 9.0865,4.5064 L 9.0865,4.8691 L 8.5871,4.8691 L 8.5871,5.7620 L 6.4646,5.7620 L 6.4646,2.1904 Z" stroke="#161616" stroke-width="0.1198" stroke-linecap="round" stroke-linejoin="round" fill="#000000"/>
        <path d="M 11.1934,9.7327 L 11.1934,13.6425 L 13.9222,13.6425 L 13.9222,9.7327 L 11.1934,9.7327 " stroke="#000000" stroke-width="0.1198" stroke-linecap="round" stroke-linejoin="round" fill="none"/>
        <path d="M 11.1934,4.6080 L 11.1934,8.5179 L 13.9222,8.5179 L 13.9222,4.6080 L 11.1934,4.6080 " stroke="#000000" stroke-width="0.1198" stroke-linecap="round" stroke-linejoin="round" fill="none"/>
        <ellipse cx="12.0528" cy="2.2054" rx="1.1918" ry="1.1979" fill="#CCCC9B" stroke="#000000" stroke-width="0.1198" stroke-linecap="round" stroke-linejoin="round"/>
        <ellipse cx="12.0528" cy="2.2054" rx="1.1918" ry="1.1979" fill="none" stroke="#000000" stroke-width="0.1198" stroke-linecap="round" stroke-linejoin="round"/>
        <ellipse cx="12.0528" cy="2.2054" rx="0.9706" ry="0.9645" fill="#CCCC9B" stroke="#000000" stroke-width="0.1198" stroke-linecap="round" stroke-linejoin="round"/>
        <ellipse cx="12.0528" cy="2.2054" rx="0.9706" ry="0.9645" fill="none" stroke="#EFEFE3" stroke-width="0.1198" stroke-linecap="round" stroke-linejoin="round"/>
        <ellipse cx="12.0528" cy="2.1993" rx="0.8232" ry="0.8232" fill="#CCCC9B" stroke="#000000" stroke-width="0.1198" stroke-linecap="round" stroke-linejoin="round"/>
        <ellipse cx="12.0528" cy="2.1993" rx="0.8232" ry="0.8232" fill="none" stroke="#000000" stroke-width="0.1198" stroke-linecap="round" stroke-linejoin="round"/>
        <ellipse cx="12.0528" cy="2.1993" rx="0.1474" ry="0.1474" fill="#776D44" stroke="#000000" stroke-width="0.1198" stroke-linecap="round" stroke-linejoin="round"/>
        <ellipse cx="12.0528" cy="2.1993" rx="0.1474" ry="0.1474" fill="none" stroke="#AA9D6B" stroke-width="0.1198" stroke-linecap="round" stroke-linejoin="round"/>
        <ellipse cx="12.0528" cy="2.1993" rx="0.0737" ry="0.0737" fill="#000000" stroke="#000000" stroke-width="0.1198" stroke-linecap="round" stroke-linejoin="round"/>
        <ellipse cx="12.0528" cy="2.1993" rx="0.0737" ry="0.0737" fill="none" stroke="#000000" stroke-width="0.1198" stroke-linecap="round" stroke-linejoin="round"/>
        <path d="M 5.0080,17.7185 L 7.1305,17.7185 L 7.1305,18.6114 L 7.6299,18.6114 L 7.6299,18.9741 L 8.1293,18.9741 L 8.1293,20.0344 L 7.6299,20.0344 L 7.6299,20.3972 L 7.1305,20.3972 L 7.1305,21.2901 L 5.0080,21.2901 L 5.0080,17.7185 Z" stroke="#161616" stroke-width="0.1198" stroke-linecap="round" stroke-linejoin="round" fill="#000000"/>
        <path d="M 10.8484,18.2207 L 12.9709,18.2207 L 12.9709,19.1136 L 13.4703,19.1136 L 13.4703,19.4764 L 13.9697,19.4764 L 13.9697,20.5367 L 13.4703,20.5367 L 13.4703,20.8994 L 12.9709,20.8994 L 12.9709,21.7923 L 10.8484,21.7923 L 10.8484,18.2207 Z" stroke="#161616" stroke-width="0.1198" stroke-linecap="round" stroke-linejoin="round" fill="#000000"/>
        <path d="M 3.1377,26.6016 L 2.9248,26.6016 L 2.9248,26.8144 L 3.1377,26.8144 L 3.1377,26.6016 Z" stroke="#000000" stroke-width="0.1198" stroke-linecap="round" stroke-linejoin="round" fill="none"/>
        <path d="M 12.3075,28.1764 L 12.0946,28.1764 L 12.0946,28.3892 L 12.3075,28.3892 L 12.3075,28.1764 Z" stroke="#000000" stroke-width="0.1198" stroke-linecap="round" stroke-linejoin="round" fill="none"/>
        <path d="M 12.3075,25.9875 L 12.0946,25.9875 L 12.0946,26.2003 L 12.3075,26.2003 L 12.3075,25.9875 Z" stroke="#000000" stroke-width="0.1198" stroke-linecap="round" stroke-linejoin="round" fill="none"/>
      </g>
      <!--emf-blob end-->
    </g>
  </g>
</svg>
