<svg xmlns="http://www.w3.org/2000/svg" xmlns:xlink="http://www.w3.org/1999/xlink" version="1.1" width="5.2032000000" height="0.6944000000" viewBox="0 0 93.6567 12.5008">
  <title><![CDATA[FSW-224E-POE]]></title>
  <g transform=" scale(4.000000) ">
    <!--converted by libvisio2svg-->
    <g transform=" translate(0.000000,0.000000) ">
      <!--emf-blob start-->
      <g transform="translate(-0.0000, -0.0000)">
        <path d="M 3.9331,1.6277 L 3.9331,2.2927 L 4.5432,2.2927 " stroke="#000000" stroke-width="0.1201" stroke-linecap="round" stroke-linejoin="round" fill="none"/>
        <path d="M 4.5432,1.6277 L 5.7472,1.6277 " stroke="#000000" stroke-width="0.1201" stroke-linecap="round" stroke-linejoin="round" fill="none"/>
        <path d="M 5.1372,1.6277 L 5.1372,2.2927 " stroke="#000000" stroke-width="0.1201" stroke-linecap="round" stroke-linejoin="round" fill="none"/>
        <path d="M 6.0522,1.6277 L 6.0522,2.2927 " stroke="#000000" stroke-width="0.1201" stroke-linecap="round" stroke-linejoin="round" fill="none"/>
        <path d="M 6.0522,1.6277 L 6.0522,2.2927 " stroke="#000000" stroke-width="0.1201" stroke-linecap="round" stroke-linejoin="round" fill="none"/>
        <path d="M 6.6462,2.2927 L 6.6462,1.6277 L 7.2562,2.2927 L 7.8663,1.6277 L 7.8663,2.2927 " stroke="#000000" stroke-width="0.1201" stroke-linecap="round" stroke-linejoin="round" fill="none"/>
        <path d="M 8.1552,2.2927 L 8.7653,1.6277 L 9.3753,2.2927 " stroke="#000000" stroke-width="0.1201" stroke-linecap="round" stroke-linejoin="round" fill="none"/>
        <path d="M 8.3158,2.1265 L 9.2148,2.1265 " stroke="#000000" stroke-width="0.1201" stroke-linecap="round" stroke-linejoin="round" fill="none"/>
        <path d="M 2.1191,2.2927 L 2.7291,1.6277 L 3.3391,2.2927 " stroke="#000000" stroke-width="0.1201" stroke-linecap="round" stroke-linejoin="round" fill="none"/>
        <path d="M 2.2796,2.1265 L 3.1786,2.1265 " stroke="#000000" stroke-width="0.1201" stroke-linecap="round" stroke-linejoin="round" fill="none"/>
        <path d="M 93.6005,0.0281 L 0.0281,0.0281 L 0.0281,12.4314 L 93.6005,12.4314 L 93.6005,0.0281 Z" stroke="#000000" stroke-width="0.1201" stroke-linecap="round" stroke-linejoin="round" fill="#DDDDDD"/>
        <path d="M 92.0822,1.3329 L 92.0681,1.2347 L 92.0400,1.1505 L 91.9978,1.0664 L 91.9416,0.9962 L 91.8713,0.9401 L 91.7869,0.8980 L 91.7026,0.8699 L 91.6042,0.8559 L 2.0385,0.8559 L 1.9401,0.8699 L 1.8557,0.8980 L 1.7714,0.9401 L 1.7011,0.9962 L 1.6448,1.0664 L 1.6027,1.1505 L 1.5745,1.2347 L 1.5605,1.3329 L 1.5605,11.1406 L 1.5745,11.2388 L 1.6027,11.3230 L 1.6448,11.4072 L 1.7011,11.4773 L 1.7714,11.5335 L 1.8557,11.5755 L 1.9401,11.6036 L 2.0385,11.6176 L 91.6042,11.6176 L 91.7026,11.6036 L 91.7869,11.5755 L 91.8713,11.5335 L 91.9416,11.4773 L 91.9978,11.4072 L 92.0400,11.3230 L 92.0681,11.2388 L 92.0822,11.1406 L 92.0822,1.3329 Z" stroke="#7F7F7F" stroke-width="0.1201" stroke-linecap="round" stroke-linejoin="round" fill="#EAEAEA"/>
        <path d="M 48.5294,2.6939 L 74.5092,2.6939 L 74.5092,9.8638 L 48.5294,9.8638 L 48.5294,2.6939 Z" stroke="#000000" stroke-width="0.1201" stroke-linecap="round" stroke-linejoin="round" fill="#000000"/>
        <path d="M 2.2072,6.0754 L 6.9026,6.0754 L 6.9026,9.8638 L 2.2072,9.8638 L 2.2072,6.0754 Z" stroke="#000000" stroke-width="0.1201" stroke-linecap="round" stroke-linejoin="round" fill="#000000"/>
        <path d="M 2.2775,6.1315 L 6.8324,6.1315 L 6.8324,9.7796 L 2.2775,9.7796 L 2.2775,6.1315 Z" stroke="#000000" stroke-width="0.1201" stroke-linecap="round" stroke-linejoin="round" fill="#EAEAEA"/>
        <path d="M 11.7387,7.1979 L 10.9655,7.1979 L 10.9655,7.5767 L 11.7387,7.5767 L 11.7387,7.1979 Z" stroke="#000000" stroke-width="0.1201" stroke-linecap="round" stroke-linejoin="round" fill="#00FF00"/>
        <path d="M 77.3209,9.2604 L 76.5477,9.2604 L 76.5477,9.6393 L 77.3209,9.6393 L 77.3209,9.2604 Z" stroke="#000000" stroke-width="0.1201" stroke-linecap="round" stroke-linejoin="round" fill="#00FF00"/>
        <path d="M 84.8281,9.2604 L 84.0548,9.2604 L 84.0548,9.6393 L 84.8281,9.6393 L 84.8281,9.2604 Z" stroke="#000000" stroke-width="0.1201" stroke-linecap="round" stroke-linejoin="round" fill="#00FF00"/>
        <path d="M 48.5997,2.7501 L 74.4249,2.7501 L 74.4249,9.7796 L 48.5997,9.7796 L 48.5997,2.7501 Z" stroke="#000000" stroke-width="0.1201" stroke-linecap="round" stroke-linejoin="round" fill="#EAEAEA"/>
        <path d="M 20.9891,2.6939 L 46.9689,2.6939 L 46.9689,9.8638 L 20.9891,9.8638 L 20.9891,2.6939 Z" stroke="#000000" stroke-width="0.1201" stroke-linecap="round" stroke-linejoin="round" fill="#000000"/>
        <path d="M 21.0594,2.7501 L 46.8846,2.7501 L 46.8846,9.7796 L 21.0594,9.7796 L 21.0594,2.7501 Z" stroke="#000000" stroke-width="0.1201" stroke-linecap="round" stroke-linejoin="round" fill="#EAEAEA"/>
        <path d="M 90.3952,2.5817 L 86.0230,2.5817 L 86.0230,9.8638 L 90.3952,9.8638 L 90.3952,2.5817 Z" stroke="#000000" stroke-width="0.1201" stroke-linecap="round" stroke-linejoin="round" fill="#DDDDDD"/>
        <path d="M 90.1843,5.4580 L 86.2198,5.4580 L 86.2198,2.7501 L 90.1843,2.7501 L 90.1843,5.4580 Z" stroke="#7F7F7F" stroke-width="0.1201" stroke-linecap="round" stroke-linejoin="round" fill="#7F7F7F"/>
        <path d="M 90.1843,9.6393 L 86.2198,9.6393 L 86.2198,6.9313 L 90.1843,6.9313 L 90.1843,9.6393 Z" stroke="#7F7F7F" stroke-width="0.1201" stroke-linecap="round" stroke-linejoin="round" fill="#7F7F7F"/>
        <path d="M 86.2198,3.5639 L 86.2198,7.1558 " stroke="#848484" stroke-width="0.1201" stroke-linecap="round" stroke-linejoin="round" fill="none"/>
        <path d="M 90.1843,3.5639 L 90.1843,7.1558 " stroke="#848484" stroke-width="0.1201" stroke-linecap="round" stroke-linejoin="round" fill="none"/>
        <path d="M 89.2705,5.4300 L 87.1336,5.4300 L 87.1336,5.6685 L 89.2705,5.6685 L 89.2705,5.4300 Z" stroke="#7F7F7F" stroke-width="0.1201" stroke-linecap="round" stroke-linejoin="round" fill="#7F7F7F"/>
        <path d="M 89.1721,5.5282 L 87.2461,5.5282 L 87.2461,5.6685 L 89.1721,5.6685 L 89.1721,5.5282 Z" stroke="#7F7F7F" stroke-width="0.1201" stroke-linecap="round" stroke-linejoin="round" fill="#DDDDDD"/>
        <path d="M 89.2705,6.7208 L 87.1336,6.7208 L 87.1336,6.9594 L 89.2705,6.9594 L 89.2705,6.7208 Z" stroke="#7F7F7F" stroke-width="0.1201" stroke-linecap="round" stroke-linejoin="round" fill="#7F7F7F"/>
        <path d="M 89.1721,6.7208 L 87.2461,6.7208 L 87.2461,6.8611 L 89.1721,6.8611 L 89.1721,6.7208 Z" stroke="#7F7F7F" stroke-width="0.1201" stroke-linecap="round" stroke-linejoin="round" fill="#DDDDDD"/>
        <path d="M 82.8599,2.5817 L 78.4877,2.5817 L 78.4877,9.8638 L 82.8599,9.8638 L 82.8599,2.5817 Z" stroke="#000000" stroke-width="0.1201" stroke-linecap="round" stroke-linejoin="round" fill="#DDDDDD"/>
        <path d="M 82.6490,5.4580 L 78.6846,5.4580 L 78.6846,2.7501 L 82.6490,2.7501 L 82.6490,5.4580 Z" stroke="#7F7F7F" stroke-width="0.1201" stroke-linecap="round" stroke-linejoin="round" fill="#7F7F7F"/>
        <path d="M 82.6490,9.6393 L 78.6846,9.6393 L 78.6846,6.9313 L 82.6490,6.9313 L 82.6490,9.6393 Z" stroke="#7F7F7F" stroke-width="0.1201" stroke-linecap="round" stroke-linejoin="round" fill="#7F7F7F"/>
        <path d="M 78.6846,3.5639 L 78.6846,7.1558 " stroke="#848484" stroke-width="0.1201" stroke-linecap="round" stroke-linejoin="round" fill="none"/>
        <path d="M 78.6846,3.5639 L 78.6846,7.1558 " stroke="#848484" stroke-width="0.1201" stroke-linecap="round" stroke-linejoin="round" fill="none"/>
        <path d="M 82.6490,3.5639 L 82.6490,7.1558 " stroke="#848484" stroke-width="0.1201" stroke-linecap="round" stroke-linejoin="round" fill="none"/>
        <path d="M 81.7352,5.4300 L 79.5984,5.4300 L 79.5984,5.6685 L 81.7352,5.6685 L 81.7352,5.4300 Z" stroke="#7F7F7F" stroke-width="0.1201" stroke-linecap="round" stroke-linejoin="round" fill="#7F7F7F"/>
        <path d="M 81.6368,5.5282 L 79.7108,5.5282 L 79.7108,5.6685 L 81.6368,5.6685 L 81.6368,5.5282 Z" stroke="#7F7F7F" stroke-width="0.1201" stroke-linecap="round" stroke-linejoin="round" fill="#DDDDDD"/>
        <path d="M 81.7352,6.7208 L 79.5984,6.7208 L 79.5984,6.9594 L 81.7352,6.9594 L 81.7352,6.7208 Z" stroke="#7F7F7F" stroke-width="0.1201" stroke-linecap="round" stroke-linejoin="round" fill="#7F7F7F"/>
        <path d="M 81.6368,6.7208 L 79.7108,6.7208 L 79.7108,6.8611 L 81.6368,6.8611 L 81.6368,6.7208 Z" stroke="#7F7F7F" stroke-width="0.1201" stroke-linecap="round" stroke-linejoin="round" fill="#DDDDDD"/>
        <path d="M 77.3209,4.1532 L 76.5477,4.1532 L 76.5477,4.5320 L 77.3209,4.5320 L 77.3209,4.1532 Z" stroke="#000000" stroke-width="0.1201" stroke-linecap="round" stroke-linejoin="round" fill="#00FF00"/>
        <path d="M 84.8281,4.1532 L 84.0548,4.1532 L 84.0548,4.5320 L 84.8281,4.5320 L 84.8281,4.1532 Z" stroke="#000000" stroke-width="0.1201" stroke-linecap="round" stroke-linejoin="round" fill="#00FF00"/>
        <path d="M 78.6564,10.5092 L 78.4737,10.9021 L 78.8392,10.9021 L 78.6564,10.5092 Z" stroke="#000000" stroke-width="0.1201" stroke-linecap="round" stroke-linejoin="round" fill="#000000"/>
        <path d="M 82.7474,10.5092 L 82.9442,10.9021 L 83.1270,10.5092 L 82.7474,10.5092 Z" stroke="#000000" stroke-width="0.1201" stroke-linecap="round" stroke-linejoin="round" fill="#000000"/>
        <path d="M 86.2339,10.5092 L 86.0511,10.9021 L 86.4167,10.9021 L 86.2339,10.5092 Z" stroke="#000000" stroke-width="0.1201" stroke-linecap="round" stroke-linejoin="round" fill="#000000"/>
        <path d="M 90.3249,10.5092 L 90.5217,10.9021 L 90.7044,10.5092 L 90.3249,10.5092 Z" stroke="#000000" stroke-width="0.1201" stroke-linecap="round" stroke-linejoin="round" fill="#000000"/>
        <path d="M 77.3209,7.5627 L 76.5477,7.5627 L 76.5477,7.9415 L 77.3209,7.9415 L 77.3209,7.5627 Z" stroke="#000000" stroke-width="0.1201" stroke-linecap="round" stroke-linejoin="round" fill="#00FF00"/>
        <path d="M 84.8281,7.5627 L 84.0548,7.5627 L 84.0548,7.9415 L 84.8281,7.9415 L 84.8281,7.5627 Z" stroke="#000000" stroke-width="0.1201" stroke-linecap="round" stroke-linejoin="round" fill="#00FF00"/>
        <path d="M 77.3209,5.8509 L 76.5477,5.8509 L 76.5477,6.2297 L 77.3209,6.2297 L 77.3209,5.8509 Z" stroke="#000000" stroke-width="0.1201" stroke-linecap="round" stroke-linejoin="round" fill="#00FF00"/>
        <path d="M 84.8281,5.8509 L 84.0548,5.8509 L 84.0548,6.2297 L 84.8281,6.2297 L 84.8281,5.8509 Z" stroke="#000000" stroke-width="0.1201" stroke-linecap="round" stroke-linejoin="round" fill="#00FF00"/>
        <path d="M 11.7387,2.6659 L 10.9655,2.6659 L 10.9655,3.0447 L 11.7387,3.0447 L 11.7387,2.6659 Z" stroke="#000000" stroke-width="0.1201" stroke-linecap="round" stroke-linejoin="round" fill="#00FF00"/>
        <path d="M 11.7387,1.6416 L 10.9655,1.6416 L 10.9655,2.0205 L 11.7387,2.0205 L 11.7387,1.6416 Z" stroke="#000000" stroke-width="0.1201" stroke-linecap="round" stroke-linejoin="round" fill="#00FF00"/>
        <ellipse cx="15.0143" cy="8.9728" rx="0.3515" ry="0.3438" fill="#000000" stroke="#000000" stroke-width="0.1201" stroke-linecap="round" stroke-linejoin="round"/>
        <ellipse cx="15.0143" cy="8.9728" rx="0.3515" ry="0.3438" fill="none" stroke="#000000" stroke-width="0.1201" stroke-linecap="round" stroke-linejoin="round"/>
        <path d="M 11.7387,3.6761 L 10.9655,3.6761 L 10.9655,4.0549 L 11.7387,4.0549 L 11.7387,3.6761 Z" stroke="#000000" stroke-width="0.1201" stroke-linecap="round" stroke-linejoin="round" fill="#FF7F00"/>
        <path d="M 11.7387,4.6863 L 10.9655,4.6863 L 10.9655,5.0652 L 11.7387,5.0652 L 11.7387,4.6863 Z" stroke="#000000" stroke-width="0.1201" stroke-linecap="round" stroke-linejoin="round" fill="#00FF00"/>
        <path d="M 2.0754,2.3509 L 2.0628,2.3509 L 2.0564,2.3448 L 2.0501,2.3448 L 2.0312,2.3266 L 2.0312,2.3206 L 2.0249,2.3145 L 2.0249,1.6117 L 2.0312,1.6056 L 2.0312,1.5996 L 2.0375,1.5935 L 2.0438,1.5935 L 2.0438,1.5875 L 2.0501,1.5814 L 2.0564,1.5814 L 2.0628,1.5753 L 2.9207,1.5753 L 2.9270,1.5814 L 2.9333,1.5814 L 2.9522,1.5996 L 2.9522,1.6056 L 2.9585,1.6117 L 2.9585,1.7510 L 2.9522,1.7510 L 2.9522,1.7450 L 2.9459,1.7450 L 2.9459,1.7389 L 2.9396,1.7389 L 2.9396,1.7329 L 2.9270,1.7329 L 2.9270,1.7268 L 2.2331,1.7268 L 2.2331,1.7329 L 2.2205,1.7329 L 2.2205,1.7389 L 2.2142,1.7389 L 2.2142,1.7510 L 2.2078,1.7510 L 2.2078,2.3266 L 2.2142,2.3266 L 2.2142,2.3388 L 2.2205,2.3388 L 2.2205,2.3448 L 2.2268,2.3448 L 2.2268,2.3509 L 2.0817,2.3509 L 2.0754,2.3509 Z" stroke="#000000" stroke-width="0.1201" stroke-linecap="round" stroke-linejoin="round" fill="#000000"/>
        <path d="M 2.8954,1.9025 L 2.2709,1.9025 L 2.2709,1.8965 L 2.2583,1.8965 L 2.2583,1.8904 L 2.2520,1.8904 L 2.2520,1.8783 L 2.2457,1.8783 L 2.2457,2.0298 L 2.2520,2.0298 L 2.2520,2.0419 L 2.2583,2.0419 L 2.2583,2.0479 L 2.2709,2.0479 L 2.2709,2.0540 L 2.9080,2.0540 L 2.9207,2.0419 L 2.9270,2.0419 L 2.9396,2.0298 L 2.9396,2.0237 L 2.9459,2.0176 L 2.9459,2.0116 L 2.9522,2.0055 L 2.9522,1.9934 L 2.9585,1.9873 L 2.9585,1.9692 L 2.9522,1.9631 L 2.9522,1.9449 L 2.9396,1.9328 L 2.9396,1.9268 L 2.9333,1.9207 L 2.9270,1.9207 L 2.9270,1.9146 L 2.9207,1.9146 L 2.9144,1.9086 L 2.9080,1.9086 L 2.9017,1.9025 L 2.8954,1.9025 Z" stroke="#000000" stroke-width="0.1201" stroke-linecap="round" stroke-linejoin="round" fill="#000000"/>
        <path d="M 4.3526,2.0540 L 4.3400,2.0540 L 4.3400,2.0479 L 4.3274,2.0479 L 4.3274,2.0419 L 4.3211,2.0419 L 4.3211,2.0298 L 4.3148,2.0298 L 4.3148,1.8783 L 4.3211,1.8783 L 4.3211,1.8904 L 4.3274,1.8904 L 4.3274,1.8965 L 4.3400,1.8965 L 4.3400,1.9025 L 4.8446,1.9025 L 4.8446,1.7268 L 4.3021,1.7268 L 4.3021,1.7329 L 4.2895,1.7329 L 4.2895,1.7389 L 4.2832,1.7389 L 4.2832,1.7510 L 4.2769,1.7510 L 4.2769,2.3266 L 4.2832,2.3266 L 4.2832,2.3388 L 4.2895,2.3388 L 4.2895,2.3448 L 4.2958,2.3448 L 4.2958,2.3509 L 4.1318,2.3509 L 4.1255,2.3448 L 4.1192,2.3448 L 4.1003,2.3266 L 4.1003,2.3206 L 4.0940,2.3145 L 4.0940,1.6117 L 4.1003,1.6056 L 4.1003,1.5996 L 4.1066,1.5935 L 4.1129,1.5935 L 4.1129,1.5875 L 4.1192,1.5814 L 4.1255,1.5814 L 4.1318,1.5753 L 4.9897,1.5753 L 4.9960,1.5814 L 5.0023,1.5814 L 5.0213,1.5996 L 5.0213,1.6056 L 5.0276,1.6117 L 5.0276,1.9934 L 5.0213,1.9995 L 5.0213,2.0116 L 5.0150,2.0116 L 5.0150,2.0176 L 5.0086,2.0237 L 5.0086,2.0298 L 5.0023,2.0298 L 5.0023,2.0358 L 4.9960,2.0358 L 4.9960,2.0419 L 4.9897,2.0419 L 4.9897,2.0479 L 4.9834,2.0479 L 4.9771,2.0540 L 4.9834,2.0601 L 4.9897,2.0601 L 4.9897,2.0661 L 4.9960,2.0661 L 4.9960,2.0722 L 5.0023,2.0722 L 5.0023,2.0782 L 5.0086,2.0782 L 5.0086,2.0843 L 5.0150,2.0903 L 5.0150,2.0964 L 5.0213,2.0964 L 5.0213,2.1085 L 5.0276,2.1146 L 5.0276,2.3266 L 5.0339,2.3266 L 5.0339,2.3388 L 5.0402,2.3388 L 5.0402,2.3448 L 5.0465,2.3448 L 5.0465,2.3509 L 4.8825,2.3509 L 4.8762,2.3448 L 4.8699,2.3448 L 4.8509,2.3266 L 4.8509,2.3206 L 4.8446,2.3145 L 4.8446,2.0540 L 4.3589,2.0540 L 4.3526,2.0540 Z" stroke="#000000" stroke-width="0.1201" stroke-linecap="round" stroke-linejoin="round" fill="#000000"/>
        <path d="M 5.3556,1.7268 L 5.1664,1.7268 L 5.1600,1.7208 L 5.1537,1.7208 L 5.1348,1.7026 L 5.1348,1.6965 L 5.1285,1.6905 L 5.1285,1.6117 L 5.1348,1.6056 L 5.1348,1.5996 L 5.1411,1.5935 L 5.1474,1.5935 L 5.1474,1.5875 L 5.1537,1.5814 L 5.1600,1.5814 L 5.1664,1.5753 L 6.0243,1.5753 L 6.0306,1.5814 L 6.0369,1.5814 L 6.0558,1.5996 L 6.0558,1.6056 L 6.0621,1.6117 L 6.0621,1.7510 L 6.0558,1.7510 L 6.0558,1.7450 L 6.0495,1.7450 L 6.0495,1.7389 L 6.0432,1.7389 L 6.0432,1.7329 L 6.0306,1.7329 L 6.0306,1.7268 L 5.5638,1.7268 L 5.5638,1.7329 L 5.5511,1.7329 L 5.5511,1.7389 L 5.5448,1.7389 L 5.5448,1.7510 L 5.5385,1.7510 L 5.5385,2.3266 L 5.5448,2.3266 L 5.5448,2.3388 L 5.5511,2.3388 L 5.5511,2.3448 L 5.5575,2.3448 L 5.5575,2.3509 L 5.3934,2.3509 L 5.3871,2.3448 L 5.3808,2.3448 L 5.3619,2.3266 L 5.3619,2.3206 L 5.3556,2.3145 L 5.3556,1.7450 L 5.3556,1.7268 Z" stroke="#000000" stroke-width="0.1201" stroke-linecap="round" stroke-linejoin="round" fill="#000000"/>
        <path d="M 6.3460,2.3085 L 6.3460,2.3266 L 6.3523,2.3266 L 6.3523,2.3388 L 6.3586,2.3388 L 6.3586,2.3448 L 6.3649,2.3448 L 6.3649,2.3509 L 6.2009,2.3509 L 6.1946,2.3448 L 6.1883,2.3448 L 6.1693,2.3266 L 6.1693,2.3206 L 6.1630,2.3145 L 6.1630,1.5996 L 6.1567,1.5996 L 6.1567,1.5875 L 6.1504,1.5875 L 6.1504,1.5814 L 6.1441,1.5814 L 6.1441,1.5753 L 6.3081,1.5753 L 6.3144,1.5814 L 6.3207,1.5814 L 6.3397,1.5996 L 6.3397,1.6056 L 6.3460,1.6117 L 6.3460,2.3024 L 6.3460,2.3085 Z" stroke="#000000" stroke-width="0.1201" stroke-linecap="round" stroke-linejoin="round" fill="#000000"/>
        <path d="M 7.2417,1.7268 L 6.6992,1.7268 L 6.6992,1.7329 L 6.6866,1.7329 L 6.6866,1.7389 L 6.6803,1.7389 L 6.6803,1.7510 L 6.6740,1.7510 L 6.6740,2.3266 L 6.6803,2.3266 L 6.6803,2.3388 L 6.6866,2.3388 L 6.6866,2.3448 L 6.6929,2.3448 L 6.6929,2.3509 L 6.5289,2.3509 L 6.5226,2.3448 L 6.5163,2.3448 L 6.4974,2.3266 L 6.4974,2.3206 L 6.4911,2.3145 L 6.4911,1.6117 L 6.4974,1.6056 L 6.4974,1.5996 L 6.5037,1.5935 L 6.5100,1.5935 L 6.5100,1.5875 L 6.5163,1.5814 L 6.5226,1.5814 L 6.5289,1.5753 L 7.3868,1.5753 L 7.3931,1.5814 L 7.3994,1.5814 L 7.4184,1.5996 L 7.4184,1.6056 L 7.4247,1.6117 L 7.4247,2.3266 L 7.4310,2.3266 L 7.4310,2.3388 L 7.4373,2.3388 L 7.4373,2.3448 L 7.4436,2.3448 L 7.4436,2.3509 L 7.2796,2.3509 L 7.2733,2.3448 L 7.2670,2.3448 L 7.2480,2.3266 L 7.2480,2.3206 L 7.2417,2.3145 L 7.2417,1.7450 L 7.2417,1.7268 Z" stroke="#000000" stroke-width="0.1201" stroke-linecap="round" stroke-linejoin="round" fill="#000000"/>
        <path d="M 8.3520,1.9025 L 7.7716,1.9025 L 7.7653,1.8965 L 7.7590,1.8965 L 7.7590,1.8904 L 7.7527,1.8904 L 7.7527,1.8783 L 7.7464,1.8783 L 7.7464,2.0298 L 7.7527,2.0298 L 7.7527,2.0419 L 7.7590,2.0419 L 7.7590,2.0479 L 7.7653,2.0479 L 7.7716,2.0540 L 8.3583,2.0540 L 8.3709,2.0419 L 8.3772,2.0419 L 8.3898,2.0298 L 8.3898,2.0237 L 8.3961,2.0176 L 8.3961,2.0116 L 8.4024,2.0055 L 8.4024,1.9934 L 8.4087,1.9873 L 8.4087,1.9631 L 8.4024,1.9571 L 8.4024,1.9389 L 8.3961,1.9389 L 8.3961,1.9328 L 8.3772,1.9146 L 8.3709,1.9146 L 8.3709,1.9086 L 8.3646,1.9086 L 8.3583,1.9025 L 8.3520,1.9025 Z" stroke="#000000" stroke-width="0.1201" stroke-linecap="round" stroke-linejoin="round" fill="#000000"/>
        <path d="M 8.7872,1.7268 L 8.5980,1.7268 L 8.5917,1.7208 L 8.5854,1.7208 L 8.5664,1.7026 L 8.5664,1.6965 L 8.5601,1.6905 L 8.5601,1.6117 L 8.5664,1.6056 L 8.5664,1.5996 L 8.5727,1.5935 L 8.5790,1.5935 L 8.5790,1.5875 L 8.5854,1.5814 L 8.5917,1.5814 L 8.5980,1.5753 L 9.4559,1.5753 L 9.4622,1.5814 L 9.4685,1.5814 L 9.4874,1.5996 L 9.4874,1.6056 L 9.4937,1.6117 L 9.4937,1.7510 L 9.4874,1.7510 L 9.4874,1.7450 L 9.4811,1.7450 L 9.4811,1.7389 L 9.4748,1.7389 L 9.4748,1.7329 L 9.4622,1.7329 L 9.4622,1.7268 L 8.9954,1.7268 L 8.9954,1.7329 L 8.9828,1.7329 L 8.9828,1.7389 L 8.9765,1.7389 L 8.9765,1.7510 L 8.9702,1.7510 L 8.9702,2.3266 L 8.9765,2.3266 L 8.9765,2.3388 L 8.9828,2.3388 L 8.9828,2.3448 L 8.9891,2.3448 L 8.9891,2.3509 L 8.8251,2.3509 L 8.8188,2.3448 L 8.8124,2.3448 L 8.7935,2.3266 L 8.7935,2.3206 L 8.7872,2.3145 L 8.7872,1.7450 L 8.7872,1.7268 Z" stroke="#000000" stroke-width="0.1201" stroke-linecap="round" stroke-linejoin="round" fill="#000000"/>
        <path d="M 8.4150,2.1994 L 8.4277,2.1994 L 8.4277,2.1934 L 8.4403,2.1934 L 8.4403,2.1873 L 8.4466,2.1873 L 8.4466,2.1812 L 8.4529,2.1812 L 8.4529,2.1752 L 8.4592,2.1752 L 8.4592,2.3145 L 8.4529,2.3206 L 8.4529,2.3266 L 8.4466,2.3327 L 8.4466,2.3388 L 8.4403,2.3388 L 8.4340,2.3448 L 8.4277,2.3448 L 8.4213,2.3509 L 7.5634,2.3509 L 7.5571,2.3448 L 7.5508,2.3448 L 7.5319,2.3266 L 7.5319,2.3206 L 7.5256,2.3145 L 7.5256,1.6117 L 7.5319,1.6056 L 7.5319,1.5996 L 7.5382,1.5935 L 7.5445,1.5935 L 7.5445,1.5875 L 7.5508,1.5814 L 7.5571,1.5814 L 7.5634,1.5753 L 8.4213,1.5753 L 8.4277,1.5814 L 8.4340,1.5814 L 8.4529,1.5996 L 8.4529,1.6056 L 8.4592,1.6117 L 8.4592,1.7510 L 8.4529,1.7510 L 8.4529,1.7450 L 8.4466,1.7450 L 8.4466,1.7389 L 8.4403,1.7389 L 8.4403,1.7329 L 8.4277,1.7329 L 8.4277,1.7268 L 7.7338,1.7268 L 7.7338,1.7329 L 7.7211,1.7329 L 7.7211,1.7389 L 7.7148,1.7389 L 7.7148,1.7510 L 7.7085,1.7510 L 7.7085,2.1994 L 8.4087,2.1994 L 8.4150,2.1994 Z" stroke="#000000" stroke-width="0.1201" stroke-linecap="round" stroke-linejoin="round" fill="#000000"/>
        <path d="M 3.3748,2.1267 L 3.3748,2.3509 L 3.6776,2.3509 L 3.6776,2.1267 L 3.3748,2.1267 Z" stroke="#FF0000" stroke-width="0.1201" stroke-linecap="round" stroke-linejoin="round" fill="#FF0000"/>
        <path d="M 3.0594,1.8540 L 3.3181,1.8540 L 3.3181,2.0722 L 3.0594,2.0722 L 3.0594,1.8540 Z" stroke="#FF0000" stroke-width="0.1201" stroke-linecap="round" stroke-linejoin="round" fill="#FF0000"/>
        <path d="M 3.7344,2.1267 L 3.7344,2.3509 L 3.8290,2.3509 L 3.8353,2.3448 L 3.8606,2.3448 L 3.8669,2.3388 L 3.8795,2.3388 L 3.8921,2.3327 L 3.8984,2.3266 L 3.9110,2.3206 L 3.9237,2.3085 L 3.9363,2.3024 L 3.9426,2.2964 L 3.9489,2.2842 L 3.9552,2.2782 L 3.9804,2.2297 L 3.9804,2.2176 L 3.9867,2.1994 L 3.9867,2.1812 L 3.9930,2.1631 L 3.9930,2.1267 L 3.7407,2.1267 L 3.7344,2.1267 Z" stroke="#FF0000" stroke-width="0.1201" stroke-linecap="round" stroke-linejoin="round" fill="#FF0000"/>
        <path d="M 3.7344,1.8540 L 3.9930,1.8540 L 3.9930,2.0722 L 3.7344,2.0722 L 3.7344,1.8540 Z" stroke="#FF0000" stroke-width="0.1201" stroke-linecap="round" stroke-linejoin="round" fill="#FF0000"/>
        <path d="M 3.3181,2.1267 L 3.3181,2.3509 L 3.2235,2.3509 L 3.2171,2.3448 L 3.1919,2.3448 L 3.1856,2.3388 L 3.1730,2.3388 L 3.1604,2.3327 L 3.1541,2.3266 L 3.1414,2.3206 L 3.1288,2.3085 L 3.1162,2.3024 L 3.1099,2.2964 L 3.1036,2.2842 L 3.0973,2.2782 L 3.0721,2.2297 L 3.0721,2.2176 L 3.0657,2.1994 L 3.0657,2.1812 L 3.0594,2.1631 L 3.0594,2.1267 L 3.3118,2.1267 L 3.3181,2.1267 Z" stroke="#FF0000" stroke-width="0.1201" stroke-linecap="round" stroke-linejoin="round" fill="#FF0000"/>
        <path d="M 3.3748,1.5753 L 3.3748,1.7995 L 3.6776,1.7995 L 3.6776,1.5753 L 3.3748,1.5753 Z" stroke="#FF0000" stroke-width="0.1201" stroke-linecap="round" stroke-linejoin="round" fill="#FF0000"/>
        <path d="M 3.7344,1.7995 L 3.7344,1.5753 L 3.8290,1.5753 L 3.8353,1.5814 L 3.8606,1.5814 L 3.8669,1.5875 L 3.8795,1.5875 L 3.8921,1.5935 L 3.8984,1.5996 L 3.9110,1.6056 L 3.9237,1.6177 L 3.9363,1.6238 L 3.9426,1.6299 L 3.9489,1.6420 L 3.9552,1.6480 L 3.9804,1.6965 L 3.9804,1.7086 L 3.9867,1.7268 L 3.9867,1.7450 L 3.9930,1.7632 L 3.9930,1.7995 L 3.7407,1.7995 L 3.7344,1.7995 Z" stroke="#FF0000" stroke-width="0.1201" stroke-linecap="round" stroke-linejoin="round" fill="#FF0000"/>
        <path d="M 3.3181,1.7995 L 3.3181,1.5753 L 3.2235,1.5753 L 3.2171,1.5814 L 3.1919,1.5814 L 3.1856,1.5875 L 3.1730,1.5875 L 3.1604,1.5935 L 3.1541,1.5996 L 3.1414,1.6056 L 3.1288,1.6177 L 3.1162,1.6238 L 3.1099,1.6299 L 3.1036,1.6420 L 3.0973,1.6480 L 3.0721,1.6965 L 3.0721,1.7086 L 3.0657,1.7268 L 3.0657,1.7450 L 3.0594,1.7632 L 3.0594,1.7995 L 3.3118,1.7995 L 3.3181,1.7995 Z" stroke="#FF0000" stroke-width="0.1201" stroke-linecap="round" stroke-linejoin="round" fill="#FF0000"/>
        <text font-family="Symbol" fill="#000000" style="white-space:pre;" text-anchor="start" x="9.2231" y="2.3863" font-size="0.3443"><![CDATA[]]></text>
        <text font-family="Arial" fill="#000000" style="white-space:pre;" font-weight="400" text-anchor="start" x="10.5469" y="2.4559" font-size="0.0436"><![CDATA[POWER]]></text>
        <text font-family="Arial" fill="#000000" style="white-space:pre;" font-weight="400" text-anchor="start" x="10.5469" y="2.5469" font-size="0.0436"><![CDATA[ALARM]]></text>
        <text font-family="Arial" fill="#000000" style="white-space:pre;" font-weight="400" text-anchor="start" x="9.7856" y="2.7643" font-size="0.0436"><![CDATA[CONSOLE]]></text>
        <text font-family="Arial" fill="#FF0000" style="white-space:pre;" font-weight="400" text-anchor="start" x="11.4974" y="2.4697" font-size="0.0533"><![CDATA[1]]></text>
        <text font-family="Arial" fill="#FF0000" style="white-space:pre;" font-weight="400" text-anchor="start" x="11.8659" y="2.4697" font-size="0.0533"><![CDATA[3]]></text>
        <text font-family="Arial" fill="#FF0000" style="white-space:pre;" font-weight="400" text-anchor="start" x="12.2344" y="2.4697" font-size="0.0533"><![CDATA[5]]></text>
        <text font-family="Arial" fill="#FF0000" style="white-space:pre;" font-weight="400" text-anchor="start" x="12.6030" y="2.4697" font-size="0.0533"><![CDATA[7]]></text>
        <text font-family="Arial" fill="#FF0000" style="white-space:pre;" font-weight="400" text-anchor="start" x="12.9715" y="2.4697" font-size="0.0533"><![CDATA[9]]></text>
        <text font-family="Arial" fill="#FF0000" style="white-space:pre;" font-weight="400" text-anchor="start" x="13.3255" y="2.4697" font-size="0.0533"><![CDATA[11]]></text>
        <text font-family="Arial" fill="#000000" style="white-space:pre;" font-weight="400" text-anchor="start" x="13.8589" y="2.4697" font-size="0.0533"><![CDATA[13]]></text>
        <text font-family="Arial" fill="#000000" style="white-space:pre;" font-weight="400" text-anchor="start" x="14.2274" y="2.4697" font-size="0.0533"><![CDATA[15]]></text>
        <text font-family="Arial" fill="#000000" style="white-space:pre;" font-weight="400" text-anchor="start" x="14.5960" y="2.4697" font-size="0.0533"><![CDATA[17]]></text>
        <text font-family="Arial" fill="#000000" style="white-space:pre;" font-weight="400" text-anchor="start" x="14.9645" y="2.4697" font-size="0.0533"><![CDATA[19]]></text>
        <text font-family="Arial" fill="#000000" style="white-space:pre;" font-weight="400" text-anchor="start" x="15.3330" y="2.4697" font-size="0.0533"><![CDATA[21]]></text>
        <text font-family="Arial" fill="#000000" style="white-space:pre;" font-weight="400" text-anchor="start" x="15.7016" y="2.4697" font-size="0.0533"><![CDATA[23]]></text>
        <text font-family="Arial" fill="#000000" style="white-space:pre;" font-weight="400" text-anchor="start" x="13.8589" y="3.2584" font-size="0.0533"><![CDATA[14]]></text>
        <text font-family="Arial" fill="#000000" style="white-space:pre;" font-weight="400" text-anchor="start" x="14.2274" y="3.2584" font-size="0.0533"><![CDATA[16]]></text>
        <text font-family="Arial" fill="#000000" style="white-space:pre;" font-weight="400" text-anchor="start" x="14.5960" y="3.2584" font-size="0.0533"><![CDATA[18]]></text>
        <text font-family="Arial" fill="#000000" style="white-space:pre;" font-weight="400" text-anchor="start" x="14.9645" y="3.2584" font-size="0.0533"><![CDATA[20]]></text>
        <text font-family="Arial" fill="#000000" style="white-space:pre;" font-weight="400" text-anchor="start" x="15.3330" y="3.2584" font-size="0.0533"><![CDATA[22]]></text>
        <text font-family="Arial" fill="#000000" style="white-space:pre;" font-weight="400" text-anchor="start" x="15.7016" y="3.2584" font-size="0.0533"><![CDATA[24]]></text>
        <text font-family="Arial" fill="#FF0000" style="white-space:pre;" font-weight="400" text-anchor="start" x="11.4974" y="3.2584" font-size="0.0533"><![CDATA[2]]></text>
        <text font-family="Arial" fill="#FF0000" style="white-space:pre;" font-weight="400" text-anchor="start" x="11.8659" y="3.2584" font-size="0.0533"><![CDATA[4]]></text>
        <text font-family="Arial" fill="#FF0000" style="white-space:pre;" font-weight="400" text-anchor="start" x="12.2344" y="3.2584" font-size="0.0533"><![CDATA[6]]></text>
        <text font-family="Arial" fill="#FF0000" style="white-space:pre;" font-weight="400" text-anchor="start" x="12.6030" y="3.2584" font-size="0.0533"><![CDATA[8]]></text>
        <text font-family="Arial" fill="#FF0000" style="white-space:pre;" font-weight="400" text-anchor="start" x="12.9570" y="3.2584" font-size="0.0533"><![CDATA[10]]></text>
        <text font-family="Arial" fill="#FF0000" style="white-space:pre;" font-weight="400" text-anchor="start" x="13.3255" y="3.2584" font-size="0.0533"><![CDATA[12]]></text>
        <text font-family="Arial" fill="#000000" style="white-space:pre;" font-weight="400" text-anchor="start" x="16.0216" y="2.7694" font-size="0.0436"><![CDATA[LINK/ACT]]></text>
        <text font-family="Arial" fill="#000000" style="white-space:pre;" font-weight="400" text-anchor="start" x="16.0216" y="3.0676" font-size="0.0436"><![CDATA[LINK/ACT]]></text>
        <text font-family="Arial" fill="#000000" style="white-space:pre;" font-weight="400" text-anchor="start" x="16.6908" y="3.0676" font-size="0.0436"><![CDATA[LINK/ACT]]></text>
        <text font-family="Arial" fill="#000000" style="white-space:pre;" font-weight="400" text-anchor="start" x="16.6908" y="2.7694" font-size="0.0436"><![CDATA[LINK/ACT]]></text>
        <text font-family="Arial" fill="#000000" style="white-space:pre;" font-weight="400" text-anchor="start" x="16.3853" y="3.2584" font-size="0.0533"><![CDATA[25/26]]></text>
        <text font-family="Arial" fill="#000000" style="white-space:pre;" font-weight="400" text-anchor="start" x="17.0351" y="3.2584" font-size="0.0533"><![CDATA[27/28]]></text>
        <text font-family="Arial" fill="#000000" style="white-space:pre;" font-weight="400" text-anchor="start" x="16.4193" y="2.4547" font-size="0.0873"><![CDATA[FortiSwitch 224E-]]></text>
        <text font-family="Arial" fill="#000000" style="white-space:pre;" font-weight="400" text-anchor="start" x="10.5469" y="2.9514" font-size="0.0436"><![CDATA[MGMT]]></text>
        <text font-family="Arial" fill="#000000" style="white-space:pre;" font-weight="400" text-anchor="start" x="16.0459" y="2.6177" font-size="0.0436"><![CDATA[SPEED]]></text>
        <text font-family="Arial" fill="#000000" style="white-space:pre;" font-weight="400" text-anchor="start" x="16.7151" y="2.6177" font-size="0.0436"><![CDATA[SPEED]]></text>
        <text font-family="Arial" fill="#000000" style="white-space:pre;" font-weight="400" text-anchor="start" x="16.7151" y="2.9160" font-size="0.0436"><![CDATA[SPEED]]></text>
        <text font-family="Arial" fill="#000000" style="white-space:pre;" font-weight="400" text-anchor="start" x="16.0459" y="2.9160" font-size="0.0436"><![CDATA[SPEED]]></text>
        <path d="M 2.7628,9.3102 L 2.7628,7.1873 L 3.6558,7.1873 L 3.6558,6.6878 L 4.0186,6.6878 L 4.0186,6.1883 L 5.0791,6.1883 L 5.0791,6.6878 L 5.4419,6.6878 L 5.4419,7.1873 L 6.3349,7.1873 L 6.3349,9.3102 L 2.7628,9.3102 Z" stroke="#161616" stroke-width="0.1201" stroke-linecap="round" stroke-linejoin="round" fill="#000000"/>
        <path d="M 22.6689,2.8166 L 22.6689,2.9693 L 22.4439,2.9693 L 22.4439,3.3994 L 21.5017,3.3994 L 21.5017,3.4410 L 21.2064,3.4410 L 21.2064,2.9693 L 21.2626,2.9693 L 21.2626,3.3994 L 21.5017,3.3994 L 21.5017,4.3568 L 21.6001,4.3568 L 21.6001,4.8563 L 21.5017,4.8563 L 21.5017,5.9385 L 25.1017,5.9385 L 25.1017,4.8563 L 25.0032,4.8563 L 25.0032,4.3568 L 25.1017,4.3568 L 25.1017,3.3994 L 25.3407,3.3994 L 25.3407,2.9693 L 25.3970,2.9693 L 25.3970,3.4410 L 25.1017,3.4410 L 25.1017,3.3994 L 24.1595,3.3994 L 24.1595,2.9693 L 23.9345,2.9693 L 23.9345,2.8166 L 22.6689,2.8166 Z" stroke="#000000" stroke-width="0.1201" stroke-linecap="round" stroke-linejoin="round" fill="#000000"/>
        <path d="M 22.4439,2.9831 L 21.2626,2.9831 L 21.2626,3.4133 L 22.4439,3.4133 L 22.4439,2.9831 Z" stroke="#494949" stroke-width="0.1201" stroke-linecap="round" stroke-linejoin="round" fill="#000000"/>
        <path d="M 25.3407,2.9831 L 24.1595,2.9831 L 24.1595,3.4133 L 25.3407,3.4133 L 25.3407,2.9831 Z" stroke="#494949" stroke-width="0.1201" stroke-linecap="round" stroke-linejoin="round" fill="#000000"/>
        <path d="M 22.6689,9.6987 L 22.6689,9.5460 L 22.4439,9.5460 L 22.4439,9.1159 L 21.5017,9.1159 L 21.5017,9.0743 L 21.2064,9.0743 L 21.2064,9.5460 L 21.2626,9.5460 L 21.2626,9.1159 L 21.5017,9.1159 L 21.5017,8.1585 L 21.6001,8.1585 L 21.6001,7.6590 L 21.5017,7.6590 L 21.5017,6.5768 L 25.1017,6.5768 L 25.1017,7.6590 L 25.0032,7.6590 L 25.0032,8.1585 L 25.1017,8.1585 L 25.1017,9.1159 L 25.3407,9.1159 L 25.3407,9.5460 L 25.3970,9.5460 L 25.3970,9.0743 L 25.1017,9.0743 L 25.1017,9.1159 L 24.1595,9.1159 L 24.1595,9.5460 L 23.9345,9.5460 L 23.9345,9.6987 L 22.6689,9.6987 Z" stroke="#000000" stroke-width="0.1201" stroke-linecap="round" stroke-linejoin="round" fill="#000000"/>
        <path d="M 22.4439,9.1159 L 21.2626,9.1159 L 21.2626,9.5460 L 22.4439,9.5460 L 22.4439,9.1159 Z" stroke="#494949" stroke-width="0.1201" stroke-linecap="round" stroke-linejoin="round" fill="#000000"/>
        <path d="M 25.3407,9.1159 L 24.1595,9.1159 L 24.1595,9.5460 L 25.3407,9.5460 L 25.3407,9.1159 Z" stroke="#494949" stroke-width="0.1201" stroke-linecap="round" stroke-linejoin="round" fill="#000000"/>
        <path d="M 26.9439,2.8166 L 26.9439,2.9693 L 26.7189,2.9693 L 26.7189,3.3994 L 25.7767,3.3994 L 25.7767,3.4410 L 25.4814,3.4410 L 25.4814,2.9693 L 25.5376,2.9693 L 25.5376,3.3994 L 25.7767,3.3994 L 25.7767,4.3568 L 25.8751,4.3568 L 25.8751,4.8563 L 25.7767,4.8563 L 25.7767,5.9385 L 29.3767,5.9385 L 29.3767,4.8563 L 29.2783,4.8563 L 29.2783,4.3568 L 29.3767,4.3568 L 29.3767,3.3994 L 29.6158,3.3994 L 29.6158,2.9693 L 29.6720,2.9693 L 29.6720,3.4410 L 29.3767,3.4410 L 29.3767,3.3994 L 28.4345,3.3994 L 28.4345,2.9693 L 28.2095,2.9693 L 28.2095,2.8166 L 26.9439,2.8166 Z" stroke="#000000" stroke-width="0.1201" stroke-linecap="round" stroke-linejoin="round" fill="#000000"/>
        <path d="M 26.7189,2.9831 L 25.5376,2.9831 L 25.5376,3.4133 L 26.7189,3.4133 L 26.7189,2.9831 Z" stroke="#494949" stroke-width="0.1201" stroke-linecap="round" stroke-linejoin="round" fill="#000000"/>
        <path d="M 29.6158,2.9831 L 28.4345,2.9831 L 28.4345,3.4133 L 29.6158,3.4133 L 29.6158,2.9831 Z" stroke="#494949" stroke-width="0.1201" stroke-linecap="round" stroke-linejoin="round" fill="#000000"/>
        <path d="M 26.9439,9.6987 L 26.9439,9.5460 L 26.7189,9.5460 L 26.7189,9.1159 L 25.7767,9.1159 L 25.7767,9.0743 L 25.4814,9.0743 L 25.4814,9.5460 L 25.5376,9.5460 L 25.5376,9.1159 L 25.7767,9.1159 L 25.7767,8.1585 L 25.8751,8.1585 L 25.8751,7.6590 L 25.7767,7.6590 L 25.7767,6.5768 L 29.3767,6.5768 L 29.3767,7.6590 L 29.2783,7.6590 L 29.2783,8.1585 L 29.3767,8.1585 L 29.3767,9.1159 L 29.6158,9.1159 L 29.6158,9.5460 L 29.6720,9.5460 L 29.6720,9.0743 L 29.3767,9.0743 L 29.3767,9.1159 L 28.4345,9.1159 L 28.4345,9.5460 L 28.2095,9.5460 L 28.2095,9.6987 L 26.9439,9.6987 Z" stroke="#000000" stroke-width="0.1201" stroke-linecap="round" stroke-linejoin="round" fill="#000000"/>
        <path d="M 26.7189,9.1159 L 25.5376,9.1159 L 25.5376,9.5460 L 26.7189,9.5460 L 26.7189,9.1159 Z" stroke="#494949" stroke-width="0.1201" stroke-linecap="round" stroke-linejoin="round" fill="#000000"/>
        <path d="M 29.6158,9.1159 L 28.4345,9.1159 L 28.4345,9.5460 L 29.6158,9.5460 L 29.6158,9.1159 Z" stroke="#494949" stroke-width="0.1201" stroke-linecap="round" stroke-linejoin="round" fill="#000000"/>
        <path d="M 31.2189,2.8166 L 31.2189,2.9693 L 30.9939,2.9693 L 30.9939,3.3994 L 30.0517,3.3994 L 30.0517,3.4410 L 29.7564,3.4410 L 29.7564,2.9693 L 29.8126,2.9693 L 29.8126,3.3994 L 30.0517,3.3994 L 30.0517,4.3568 L 30.1501,4.3568 L 30.1501,4.8563 L 30.0517,4.8563 L 30.0517,5.9385 L 33.6517,5.9385 L 33.6517,4.8563 L 33.5533,4.8563 L 33.5533,4.3568 L 33.6517,4.3568 L 33.6517,3.3994 L 33.8908,3.3994 L 33.8908,2.9693 L 33.9470,2.9693 L 33.9470,3.4410 L 33.6517,3.4410 L 33.6517,3.3994 L 32.7095,3.3994 L 32.7095,2.9693 L 32.4845,2.9693 L 32.4845,2.8166 L 31.2189,2.8166 Z" stroke="#000000" stroke-width="0.1201" stroke-linecap="round" stroke-linejoin="round" fill="#000000"/>
        <path d="M 30.9939,2.9831 L 29.8126,2.9831 L 29.8126,3.4133 L 30.9939,3.4133 L 30.9939,2.9831 Z" stroke="#494949" stroke-width="0.1201" stroke-linecap="round" stroke-linejoin="round" fill="#000000"/>
        <path d="M 33.8908,2.9831 L 32.7095,2.9831 L 32.7095,3.4133 L 33.8908,3.4133 L 33.8908,2.9831 Z" stroke="#494949" stroke-width="0.1201" stroke-linecap="round" stroke-linejoin="round" fill="#000000"/>
        <path d="M 31.2189,9.6987 L 31.2189,9.5460 L 30.9939,9.5460 L 30.9939,9.1159 L 30.0517,9.1159 L 30.0517,9.0743 L 29.7564,9.0743 L 29.7564,9.5460 L 29.8126,9.5460 L 29.8126,9.1159 L 30.0517,9.1159 L 30.0517,8.1585 L 30.1501,8.1585 L 30.1501,7.6590 L 30.0517,7.6590 L 30.0517,6.5768 L 33.6517,6.5768 L 33.6517,7.6590 L 33.5533,7.6590 L 33.5533,8.1585 L 33.6517,8.1585 L 33.6517,9.1159 L 33.8908,9.1159 L 33.8908,9.5460 L 33.9470,9.5460 L 33.9470,9.0743 L 33.6517,9.0743 L 33.6517,9.1159 L 32.7095,9.1159 L 32.7095,9.5460 L 32.4845,9.5460 L 32.4845,9.6987 L 31.2189,9.6987 Z" stroke="#000000" stroke-width="0.1201" stroke-linecap="round" stroke-linejoin="round" fill="#000000"/>
        <path d="M 30.9939,9.1159 L 29.8126,9.1159 L 29.8126,9.5460 L 30.9939,9.5460 L 30.9939,9.1159 Z" stroke="#494949" stroke-width="0.1201" stroke-linecap="round" stroke-linejoin="round" fill="#000000"/>
        <path d="M 33.8908,9.1159 L 32.7095,9.1159 L 32.7095,9.5460 L 33.8908,9.5460 L 33.8908,9.1159 Z" stroke="#494949" stroke-width="0.1201" stroke-linecap="round" stroke-linejoin="round" fill="#000000"/>
        <path d="M 35.4939,2.8166 L 35.4939,2.9693 L 35.2689,2.9693 L 35.2689,3.3994 L 34.3267,3.3994 L 34.3267,3.4410 L 34.0314,3.4410 L 34.0314,2.9693 L 34.0877,2.9693 L 34.0877,3.3994 L 34.3267,3.3994 L 34.3267,4.3568 L 34.4252,4.3568 L 34.4252,4.8563 L 34.3267,4.8563 L 34.3267,5.9385 L 37.9267,5.9385 L 37.9267,4.8563 L 37.8283,4.8563 L 37.8283,4.3568 L 37.9267,4.3568 L 37.9267,3.3994 L 38.1658,3.3994 L 38.1658,2.9693 L 38.2221,2.9693 L 38.2221,3.4410 L 37.9267,3.4410 L 37.9267,3.3994 L 36.9846,3.3994 L 36.9846,2.9693 L 36.7596,2.9693 L 36.7596,2.8166 L 35.4939,2.8166 Z" stroke="#000000" stroke-width="0.1201" stroke-linecap="round" stroke-linejoin="round" fill="#000000"/>
        <path d="M 35.2689,2.9831 L 34.0877,2.9831 L 34.0877,3.4133 L 35.2689,3.4133 L 35.2689,2.9831 Z" stroke="#494949" stroke-width="0.1201" stroke-linecap="round" stroke-linejoin="round" fill="#000000"/>
        <path d="M 38.1658,2.9831 L 36.9846,2.9831 L 36.9846,3.4133 L 38.1658,3.4133 L 38.1658,2.9831 Z" stroke="#494949" stroke-width="0.1201" stroke-linecap="round" stroke-linejoin="round" fill="#000000"/>
        <path d="M 35.4939,9.6987 L 35.4939,9.5460 L 35.2689,9.5460 L 35.2689,9.1159 L 34.3267,9.1159 L 34.3267,9.0743 L 34.0314,9.0743 L 34.0314,9.5460 L 34.0877,9.5460 L 34.0877,9.1159 L 34.3267,9.1159 L 34.3267,8.1585 L 34.4252,8.1585 L 34.4252,7.6590 L 34.3267,7.6590 L 34.3267,6.5768 L 37.9267,6.5768 L 37.9267,7.6590 L 37.8283,7.6590 L 37.8283,8.1585 L 37.9267,8.1585 L 37.9267,9.1159 L 38.1658,9.1159 L 38.1658,9.5460 L 38.2221,9.5460 L 38.2221,9.0743 L 37.9267,9.0743 L 37.9267,9.1159 L 36.9846,9.1159 L 36.9846,9.5460 L 36.7596,9.5460 L 36.7596,9.6987 L 35.4939,9.6987 Z" stroke="#000000" stroke-width="0.1201" stroke-linecap="round" stroke-linejoin="round" fill="#000000"/>
        <path d="M 35.2689,9.1159 L 34.0877,9.1159 L 34.0877,9.5460 L 35.2689,9.5460 L 35.2689,9.1159 Z" stroke="#494949" stroke-width="0.1201" stroke-linecap="round" stroke-linejoin="round" fill="#000000"/>
        <path d="M 38.1658,9.1159 L 36.9846,9.1159 L 36.9846,9.5460 L 38.1658,9.5460 L 38.1658,9.1159 Z" stroke="#494949" stroke-width="0.1201" stroke-linecap="round" stroke-linejoin="round" fill="#000000"/>
        <path d="M 39.7689,2.8166 L 39.7689,2.9693 L 39.5439,2.9693 L 39.5439,3.3994 L 38.6017,3.3994 L 38.6017,3.4410 L 38.3064,3.4410 L 38.3064,2.9693 L 38.3627,2.9693 L 38.3627,3.3994 L 38.6017,3.3994 L 38.6017,4.3568 L 38.7002,4.3568 L 38.7002,4.8563 L 38.6017,4.8563 L 38.6017,5.9385 L 42.2018,5.9385 L 42.2018,4.8563 L 42.1033,4.8563 L 42.1033,4.3568 L 42.2018,4.3568 L 42.2018,3.3994 L 42.4408,3.3994 L 42.4408,2.9693 L 42.4971,2.9693 L 42.4971,3.4410 L 42.2018,3.4410 L 42.2018,3.3994 L 41.2596,3.3994 L 41.2596,2.9693 L 41.0346,2.9693 L 41.0346,2.8166 L 39.7689,2.8166 Z" stroke="#000000" stroke-width="0.1201" stroke-linecap="round" stroke-linejoin="round" fill="#000000"/>
        <path d="M 39.5439,2.9831 L 38.3627,2.9831 L 38.3627,3.4133 L 39.5439,3.4133 L 39.5439,2.9831 Z" stroke="#494949" stroke-width="0.1201" stroke-linecap="round" stroke-linejoin="round" fill="#000000"/>
        <path d="M 42.4408,2.9831 L 41.2596,2.9831 L 41.2596,3.4133 L 42.4408,3.4133 L 42.4408,2.9831 Z" stroke="#494949" stroke-width="0.1201" stroke-linecap="round" stroke-linejoin="round" fill="#000000"/>
        <path d="M 39.7689,9.6987 L 39.7689,9.5460 L 39.5439,9.5460 L 39.5439,9.1159 L 38.6017,9.1159 L 38.6017,9.0743 L 38.3064,9.0743 L 38.3064,9.5460 L 38.3627,9.5460 L 38.3627,9.1159 L 38.6017,9.1159 L 38.6017,8.1585 L 38.7002,8.1585 L 38.7002,7.6590 L 38.6017,7.6590 L 38.6017,6.5768 L 42.2018,6.5768 L 42.2018,7.6590 L 42.1033,7.6590 L 42.1033,8.1585 L 42.2018,8.1585 L 42.2018,9.1159 L 42.4408,9.1159 L 42.4408,9.5460 L 42.4971,9.5460 L 42.4971,9.0743 L 42.2018,9.0743 L 42.2018,9.1159 L 41.2596,9.1159 L 41.2596,9.5460 L 41.0346,9.5460 L 41.0346,9.6987 L 39.7689,9.6987 Z" stroke="#000000" stroke-width="0.1201" stroke-linecap="round" stroke-linejoin="round" fill="#000000"/>
        <path d="M 39.5439,9.1159 L 38.3627,9.1159 L 38.3627,9.5460 L 39.5439,9.5460 L 39.5439,9.1159 Z" stroke="#494949" stroke-width="0.1201" stroke-linecap="round" stroke-linejoin="round" fill="#000000"/>
        <path d="M 42.4408,9.1159 L 41.2596,9.1159 L 41.2596,9.5460 L 42.4408,9.5460 L 42.4408,9.1159 Z" stroke="#494949" stroke-width="0.1201" stroke-linecap="round" stroke-linejoin="round" fill="#000000"/>
        <path d="M 44.0440,2.8166 L 44.0440,2.9693 L 43.8190,2.9693 L 43.8190,3.3994 L 42.8768,3.3994 L 42.8768,3.4410 L 42.5815,3.4410 L 42.5815,2.9693 L 42.6377,2.9693 L 42.6377,3.3994 L 42.8768,3.3994 L 42.8768,4.3568 L 42.9752,4.3568 L 42.9752,4.8563 L 42.8768,4.8563 L 42.8768,5.9385 L 46.4768,5.9385 L 46.4768,4.8563 L 46.3783,4.8563 L 46.3783,4.3568 L 46.4768,4.3568 L 46.4768,3.3994 L 46.7158,3.3994 L 46.7158,2.9693 L 46.7721,2.9693 L 46.7721,3.4410 L 46.4768,3.4410 L 46.4768,3.3994 L 45.5346,3.3994 L 45.5346,2.9693 L 45.3096,2.9693 L 45.3096,2.8166 L 44.0440,2.8166 Z" stroke="#000000" stroke-width="0.1201" stroke-linecap="round" stroke-linejoin="round" fill="#000000"/>
        <path d="M 43.8190,2.9831 L 42.6377,2.9831 L 42.6377,3.4133 L 43.8190,3.4133 L 43.8190,2.9831 Z" stroke="#494949" stroke-width="0.1201" stroke-linecap="round" stroke-linejoin="round" fill="#000000"/>
        <path d="M 46.7158,2.9831 L 45.5346,2.9831 L 45.5346,3.4133 L 46.7158,3.4133 L 46.7158,2.9831 Z" stroke="#494949" stroke-width="0.1201" stroke-linecap="round" stroke-linejoin="round" fill="#000000"/>
        <path d="M 44.0440,9.6987 L 44.0440,9.5460 L 43.8190,9.5460 L 43.8190,9.1159 L 42.8768,9.1159 L 42.8768,9.0743 L 42.5815,9.0743 L 42.5815,9.5460 L 42.6377,9.5460 L 42.6377,9.1159 L 42.8768,9.1159 L 42.8768,8.1585 L 42.9752,8.1585 L 42.9752,7.6590 L 42.8768,7.6590 L 42.8768,6.5768 L 46.4768,6.5768 L 46.4768,7.6590 L 46.3783,7.6590 L 46.3783,8.1585 L 46.4768,8.1585 L 46.4768,9.1159 L 46.7158,9.1159 L 46.7158,9.5460 L 46.7721,9.5460 L 46.7721,9.0743 L 46.4768,9.0743 L 46.4768,9.1159 L 45.5346,9.1159 L 45.5346,9.5460 L 45.3096,9.5460 L 45.3096,9.6987 L 44.0440,9.6987 Z" stroke="#000000" stroke-width="0.1201" stroke-linecap="round" stroke-linejoin="round" fill="#000000"/>
        <path d="M 43.8190,9.1159 L 42.6377,9.1159 L 42.6377,9.5460 L 43.8190,9.5460 L 43.8190,9.1159 Z" stroke="#494949" stroke-width="0.1201" stroke-linecap="round" stroke-linejoin="round" fill="#000000"/>
        <path d="M 46.7158,9.1159 L 45.5346,9.1159 L 45.5346,9.5460 L 46.7158,9.5460 L 46.7158,9.1159 Z" stroke="#494949" stroke-width="0.1201" stroke-linecap="round" stroke-linejoin="round" fill="#000000"/>
        <path d="M 50.2315,2.8166 L 50.2315,2.9693 L 50.0065,2.9693 L 50.0065,3.3994 L 49.0643,3.3994 L 49.0643,3.4410 L 48.7690,3.4410 L 48.7690,2.9693 L 48.8252,2.9693 L 48.8252,3.3994 L 49.0643,3.3994 L 49.0643,4.3568 L 49.1627,4.3568 L 49.1627,4.8563 L 49.0643,4.8563 L 49.0643,5.9385 L 52.6643,5.9385 L 52.6643,4.8563 L 52.5659,4.8563 L 52.5659,4.3568 L 52.6643,4.3568 L 52.6643,3.3994 L 52.9034,3.3994 L 52.9034,2.9693 L 52.9596,2.9693 L 52.9596,3.4410 L 52.6643,3.4410 L 52.6643,3.3994 L 51.7221,3.3994 L 51.7221,2.9693 L 51.4971,2.9693 L 51.4971,2.8166 L 50.2315,2.8166 Z" stroke="#000000" stroke-width="0.1201" stroke-linecap="round" stroke-linejoin="round" fill="#000000"/>
        <path d="M 50.0065,2.9831 L 48.8252,2.9831 L 48.8252,3.4133 L 50.0065,3.4133 L 50.0065,2.9831 Z" stroke="#494949" stroke-width="0.1201" stroke-linecap="round" stroke-linejoin="round" fill="#000000"/>
        <path d="M 52.9034,2.9831 L 51.7221,2.9831 L 51.7221,3.4133 L 52.9034,3.4133 L 52.9034,2.9831 Z" stroke="#494949" stroke-width="0.1201" stroke-linecap="round" stroke-linejoin="round" fill="#000000"/>
        <path d="M 50.2315,9.6987 L 50.2315,9.5460 L 50.0065,9.5460 L 50.0065,9.1159 L 49.0643,9.1159 L 49.0643,9.0743 L 48.7690,9.0743 L 48.7690,9.5460 L 48.8252,9.5460 L 48.8252,9.1159 L 49.0643,9.1159 L 49.0643,8.1585 L 49.1627,8.1585 L 49.1627,7.6590 L 49.0643,7.6590 L 49.0643,6.5768 L 52.6643,6.5768 L 52.6643,7.6590 L 52.5659,7.6590 L 52.5659,8.1585 L 52.6643,8.1585 L 52.6643,9.1159 L 52.9034,9.1159 L 52.9034,9.5460 L 52.9596,9.5460 L 52.9596,9.0743 L 52.6643,9.0743 L 52.6643,9.1159 L 51.7221,9.1159 L 51.7221,9.5460 L 51.4971,9.5460 L 51.4971,9.6987 L 50.2315,9.6987 Z" stroke="#000000" stroke-width="0.1201" stroke-linecap="round" stroke-linejoin="round" fill="#000000"/>
        <path d="M 50.0065,9.1159 L 48.8252,9.1159 L 48.8252,9.5460 L 50.0065,9.5460 L 50.0065,9.1159 Z" stroke="#494949" stroke-width="0.1201" stroke-linecap="round" stroke-linejoin="round" fill="#000000"/>
        <path d="M 52.9034,9.1159 L 51.7221,9.1159 L 51.7221,9.5460 L 52.9034,9.5460 L 52.9034,9.1159 Z" stroke="#494949" stroke-width="0.1201" stroke-linecap="round" stroke-linejoin="round" fill="#000000"/>
        <path d="M 54.5065,2.8166 L 54.5065,2.9693 L 54.2815,2.9693 L 54.2815,3.3994 L 53.3393,3.3994 L 53.3393,3.4410 L 53.0440,3.4410 L 53.0440,2.9693 L 53.1003,2.9693 L 53.1003,3.3994 L 53.3393,3.3994 L 53.3393,4.3568 L 53.4378,4.3568 L 53.4378,4.8563 L 53.3393,4.8563 L 53.3393,5.9385 L 56.9393,5.9385 L 56.9393,4.8563 L 56.8409,4.8563 L 56.8409,4.3568 L 56.9393,4.3568 L 56.9393,3.3994 L 57.1784,3.3994 L 57.1784,2.9693 L 57.2346,2.9693 L 57.2346,3.4410 L 56.9393,3.4410 L 56.9393,3.3994 L 55.9971,3.3994 L 55.9971,2.9693 L 55.7721,2.9693 L 55.7721,2.8166 L 54.5065,2.8166 Z" stroke="#000000" stroke-width="0.1201" stroke-linecap="round" stroke-linejoin="round" fill="#000000"/>
        <path d="M 54.2815,2.9831 L 53.1003,2.9831 L 53.1003,3.4133 L 54.2815,3.4133 L 54.2815,2.9831 Z" stroke="#494949" stroke-width="0.1201" stroke-linecap="round" stroke-linejoin="round" fill="#000000"/>
        <path d="M 57.1784,2.9831 L 55.9971,2.9831 L 55.9971,3.4133 L 57.1784,3.4133 L 57.1784,2.9831 Z" stroke="#494949" stroke-width="0.1201" stroke-linecap="round" stroke-linejoin="round" fill="#000000"/>
        <path d="M 54.5065,9.6987 L 54.5065,9.5460 L 54.2815,9.5460 L 54.2815,9.1159 L 53.3393,9.1159 L 53.3393,9.0743 L 53.0440,9.0743 L 53.0440,9.5460 L 53.1003,9.5460 L 53.1003,9.1159 L 53.3393,9.1159 L 53.3393,8.1585 L 53.4378,8.1585 L 53.4378,7.6590 L 53.3393,7.6590 L 53.3393,6.5768 L 56.9393,6.5768 L 56.9393,7.6590 L 56.8409,7.6590 L 56.8409,8.1585 L 56.9393,8.1585 L 56.9393,9.1159 L 57.1784,9.1159 L 57.1784,9.5460 L 57.2346,9.5460 L 57.2346,9.0743 L 56.9393,9.0743 L 56.9393,9.1159 L 55.9971,9.1159 L 55.9971,9.5460 L 55.7721,9.5460 L 55.7721,9.6987 L 54.5065,9.6987 Z" stroke="#000000" stroke-width="0.1201" stroke-linecap="round" stroke-linejoin="round" fill="#000000"/>
        <path d="M 54.2815,9.1159 L 53.1003,9.1159 L 53.1003,9.5460 L 54.2815,9.5460 L 54.2815,9.1159 Z" stroke="#494949" stroke-width="0.1201" stroke-linecap="round" stroke-linejoin="round" fill="#000000"/>
        <path d="M 57.1784,9.1159 L 55.9971,9.1159 L 55.9971,9.5460 L 57.1784,9.5460 L 57.1784,9.1159 Z" stroke="#494949" stroke-width="0.1201" stroke-linecap="round" stroke-linejoin="round" fill="#000000"/>
        <path d="M 58.7815,2.8166 L 58.7815,2.9693 L 58.5565,2.9693 L 58.5565,3.3994 L 57.6143,3.3994 L 57.6143,3.4410 L 57.3190,3.4410 L 57.3190,2.9693 L 57.3753,2.9693 L 57.3753,3.3994 L 57.6143,3.3994 L 57.6143,4.3568 L 57.7128,4.3568 L 57.7128,4.8563 L 57.6143,4.8563 L 57.6143,5.9385 L 61.2144,5.9385 L 61.2144,4.8563 L 61.1159,4.8563 L 61.1159,4.3568 L 61.2144,4.3568 L 61.2144,3.3994 L 61.4534,3.3994 L 61.4534,2.9693 L 61.5097,2.9693 L 61.5097,3.4410 L 61.2144,3.4410 L 61.2144,3.3994 L 60.2722,3.3994 L 60.2722,2.9693 L 60.0472,2.9693 L 60.0472,2.8166 L 58.7815,2.8166 Z" stroke="#000000" stroke-width="0.1201" stroke-linecap="round" stroke-linejoin="round" fill="#000000"/>
        <path d="M 58.5565,2.9831 L 57.3753,2.9831 L 57.3753,3.4133 L 58.5565,3.4133 L 58.5565,2.9831 Z" stroke="#494949" stroke-width="0.1201" stroke-linecap="round" stroke-linejoin="round" fill="#000000"/>
        <path d="M 61.4534,2.9831 L 60.2722,2.9831 L 60.2722,3.4133 L 61.4534,3.4133 L 61.4534,2.9831 Z" stroke="#494949" stroke-width="0.1201" stroke-linecap="round" stroke-linejoin="round" fill="#000000"/>
        <path d="M 58.7815,9.6987 L 58.7815,9.5460 L 58.5565,9.5460 L 58.5565,9.1159 L 57.6143,9.1159 L 57.6143,9.0743 L 57.3190,9.0743 L 57.3190,9.5460 L 57.3753,9.5460 L 57.3753,9.1159 L 57.6143,9.1159 L 57.6143,8.1585 L 57.7128,8.1585 L 57.7128,7.6590 L 57.6143,7.6590 L 57.6143,6.5768 L 61.2144,6.5768 L 61.2144,7.6590 L 61.1159,7.6590 L 61.1159,8.1585 L 61.2144,8.1585 L 61.2144,9.1159 L 61.4534,9.1159 L 61.4534,9.5460 L 61.5097,9.5460 L 61.5097,9.0743 L 61.2144,9.0743 L 61.2144,9.1159 L 60.2722,9.1159 L 60.2722,9.5460 L 60.0472,9.5460 L 60.0472,9.6987 L 58.7815,9.6987 Z" stroke="#000000" stroke-width="0.1201" stroke-linecap="round" stroke-linejoin="round" fill="#000000"/>
        <path d="M 58.5565,9.1159 L 57.3753,9.1159 L 57.3753,9.5460 L 58.5565,9.5460 L 58.5565,9.1159 Z" stroke="#494949" stroke-width="0.1201" stroke-linecap="round" stroke-linejoin="round" fill="#000000"/>
        <path d="M 61.4534,9.1159 L 60.2722,9.1159 L 60.2722,9.5460 L 61.4534,9.5460 L 61.4534,9.1159 Z" stroke="#494949" stroke-width="0.1201" stroke-linecap="round" stroke-linejoin="round" fill="#000000"/>
        <path d="M 63.0566,2.8166 L 63.0566,2.9693 L 62.8316,2.9693 L 62.8316,3.3994 L 61.8894,3.3994 L 61.8894,3.4410 L 61.5940,3.4410 L 61.5940,2.9693 L 61.6503,2.9693 L 61.6503,3.3994 L 61.8894,3.3994 L 61.8894,4.3568 L 61.9878,4.3568 L 61.9878,4.8563 L 61.8894,4.8563 L 61.8894,5.9385 L 65.4894,5.9385 L 65.4894,4.8563 L 65.3909,4.8563 L 65.3909,4.3568 L 65.4894,4.3568 L 65.4894,3.3994 L 65.7284,3.3994 L 65.7284,2.9693 L 65.7847,2.9693 L 65.7847,3.4410 L 65.4894,3.4410 L 65.4894,3.3994 L 64.5472,3.3994 L 64.5472,2.9693 L 64.3222,2.9693 L 64.3222,2.8166 L 63.0566,2.8166 Z" stroke="#000000" stroke-width="0.1201" stroke-linecap="round" stroke-linejoin="round" fill="#000000"/>
        <path d="M 62.8316,2.9831 L 61.6503,2.9831 L 61.6503,3.4133 L 62.8316,3.4133 L 62.8316,2.9831 Z" stroke="#494949" stroke-width="0.1201" stroke-linecap="round" stroke-linejoin="round" fill="#000000"/>
        <path d="M 65.7284,2.9831 L 64.5472,2.9831 L 64.5472,3.4133 L 65.7284,3.4133 L 65.7284,2.9831 Z" stroke="#494949" stroke-width="0.1201" stroke-linecap="round" stroke-linejoin="round" fill="#000000"/>
        <path d="M 63.0566,9.6987 L 63.0566,9.5460 L 62.8316,9.5460 L 62.8316,9.1159 L 61.8894,9.1159 L 61.8894,9.0743 L 61.5940,9.0743 L 61.5940,9.5460 L 61.6503,9.5460 L 61.6503,9.1159 L 61.8894,9.1159 L 61.8894,8.1585 L 61.9878,8.1585 L 61.9878,7.6590 L 61.8894,7.6590 L 61.8894,6.5768 L 65.4894,6.5768 L 65.4894,7.6590 L 65.3909,7.6590 L 65.3909,8.1585 L 65.4894,8.1585 L 65.4894,9.1159 L 65.7284,9.1159 L 65.7284,9.5460 L 65.7847,9.5460 L 65.7847,9.0743 L 65.4894,9.0743 L 65.4894,9.1159 L 64.5472,9.1159 L 64.5472,9.5460 L 64.3222,9.5460 L 64.3222,9.6987 L 63.0566,9.6987 Z" stroke="#000000" stroke-width="0.1201" stroke-linecap="round" stroke-linejoin="round" fill="#000000"/>
        <path d="M 62.8316,9.1159 L 61.6503,9.1159 L 61.6503,9.5460 L 62.8316,9.5460 L 62.8316,9.1159 Z" stroke="#494949" stroke-width="0.1201" stroke-linecap="round" stroke-linejoin="round" fill="#000000"/>
        <path d="M 65.7284,9.1159 L 64.5472,9.1159 L 64.5472,9.5460 L 65.7284,9.5460 L 65.7284,9.1159 Z" stroke="#494949" stroke-width="0.1201" stroke-linecap="round" stroke-linejoin="round" fill="#000000"/>
        <path d="M 67.3316,2.8166 L 67.3316,2.9693 L 67.1066,2.9693 L 67.1066,3.3994 L 66.1644,3.3994 L 66.1644,3.4410 L 65.8691,3.4410 L 65.8691,2.9693 L 65.9253,2.9693 L 65.9253,3.3994 L 66.1644,3.3994 L 66.1644,4.3568 L 66.2628,4.3568 L 66.2628,4.8563 L 66.1644,4.8563 L 66.1644,5.9385 L 69.7644,5.9385 L 69.7644,4.8563 L 69.6660,4.8563 L 69.6660,4.3568 L 69.7644,4.3568 L 69.7644,3.3994 L 70.0035,3.3994 L 70.0035,2.9693 L 70.0597,2.9693 L 70.0597,3.4410 L 69.7644,3.4410 L 69.7644,3.3994 L 68.8222,3.3994 L 68.8222,2.9693 L 68.5972,2.9693 L 68.5972,2.8166 L 67.3316,2.8166 Z" stroke="#000000" stroke-width="0.1201" stroke-linecap="round" stroke-linejoin="round" fill="#000000"/>
        <path d="M 67.1066,2.9831 L 65.9253,2.9831 L 65.9253,3.4133 L 67.1066,3.4133 L 67.1066,2.9831 Z" stroke="#494949" stroke-width="0.1201" stroke-linecap="round" stroke-linejoin="round" fill="#000000"/>
        <path d="M 70.0035,2.9831 L 68.8222,2.9831 L 68.8222,3.4133 L 70.0035,3.4133 L 70.0035,2.9831 Z" stroke="#494949" stroke-width="0.1201" stroke-linecap="round" stroke-linejoin="round" fill="#000000"/>
        <path d="M 67.3316,9.6987 L 67.3316,9.5460 L 67.1066,9.5460 L 67.1066,9.1159 L 66.1644,9.1159 L 66.1644,9.0743 L 65.8691,9.0743 L 65.8691,9.5460 L 65.9253,9.5460 L 65.9253,9.1159 L 66.1644,9.1159 L 66.1644,8.1585 L 66.2628,8.1585 L 66.2628,7.6590 L 66.1644,7.6590 L 66.1644,6.5768 L 69.7644,6.5768 L 69.7644,7.6590 L 69.6660,7.6590 L 69.6660,8.1585 L 69.7644,8.1585 L 69.7644,9.1159 L 70.0035,9.1159 L 70.0035,9.5460 L 70.0597,9.5460 L 70.0597,9.0743 L 69.7644,9.0743 L 69.7644,9.1159 L 68.8222,9.1159 L 68.8222,9.5460 L 68.5972,9.5460 L 68.5972,9.6987 L 67.3316,9.6987 Z" stroke="#000000" stroke-width="0.1201" stroke-linecap="round" stroke-linejoin="round" fill="#000000"/>
        <path d="M 67.1066,9.1159 L 65.9253,9.1159 L 65.9253,9.5460 L 67.1066,9.5460 L 67.1066,9.1159 Z" stroke="#494949" stroke-width="0.1201" stroke-linecap="round" stroke-linejoin="round" fill="#000000"/>
        <path d="M 70.0035,9.1159 L 68.8222,9.1159 L 68.8222,9.5460 L 70.0035,9.5460 L 70.0035,9.1159 Z" stroke="#494949" stroke-width="0.1201" stroke-linecap="round" stroke-linejoin="round" fill="#000000"/>
        <path d="M 71.6066,2.8166 L 71.6066,2.9693 L 71.3816,2.9693 L 71.3816,3.3994 L 70.4394,3.3994 L 70.4394,3.4410 L 70.1441,3.4410 L 70.1441,2.9693 L 70.2003,2.9693 L 70.2003,3.3994 L 70.4394,3.3994 L 70.4394,4.3568 L 70.5378,4.3568 L 70.5378,4.8563 L 70.4394,4.8563 L 70.4394,5.9385 L 74.0394,5.9385 L 74.0394,4.8563 L 73.9410,4.8563 L 73.9410,4.3568 L 74.0394,4.3568 L 74.0394,3.3994 L 74.2785,3.3994 L 74.2785,2.9693 L 74.3347,2.9693 L 74.3347,3.4410 L 74.0394,3.4410 L 74.0394,3.3994 L 73.0972,3.3994 L 73.0972,2.9693 L 72.8722,2.9693 L 72.8722,2.8166 L 71.6066,2.8166 Z" stroke="#000000" stroke-width="0.1201" stroke-linecap="round" stroke-linejoin="round" fill="#000000"/>
        <path d="M 71.3816,2.9831 L 70.2003,2.9831 L 70.2003,3.4133 L 71.3816,3.4133 L 71.3816,2.9831 Z" stroke="#494949" stroke-width="0.1201" stroke-linecap="round" stroke-linejoin="round" fill="#000000"/>
        <path d="M 74.2785,2.9831 L 73.0972,2.9831 L 73.0972,3.4133 L 74.2785,3.4133 L 74.2785,2.9831 Z" stroke="#494949" stroke-width="0.1201" stroke-linecap="round" stroke-linejoin="round" fill="#000000"/>
        <path d="M 71.6066,9.6987 L 71.6066,9.5460 L 71.3816,9.5460 L 71.3816,9.1159 L 70.4394,9.1159 L 70.4394,9.0743 L 70.1441,9.0743 L 70.1441,9.5460 L 70.2003,9.5460 L 70.2003,9.1159 L 70.4394,9.1159 L 70.4394,8.1585 L 70.5378,8.1585 L 70.5378,7.6590 L 70.4394,7.6590 L 70.4394,6.5768 L 74.0394,6.5768 L 74.0394,7.6590 L 73.9410,7.6590 L 73.9410,8.1585 L 74.0394,8.1585 L 74.0394,9.1159 L 74.2785,9.1159 L 74.2785,9.5460 L 74.3347,9.5460 L 74.3347,9.0743 L 74.0394,9.0743 L 74.0394,9.1159 L 73.0972,9.1159 L 73.0972,9.5460 L 72.8722,9.5460 L 72.8722,9.6987 L 71.6066,9.6987 Z" stroke="#000000" stroke-width="0.1201" stroke-linecap="round" stroke-linejoin="round" fill="#000000"/>
        <path d="M 71.3816,9.1159 L 70.2003,9.1159 L 70.2003,9.5460 L 71.3816,9.5460 L 71.3816,9.1159 Z" stroke="#494949" stroke-width="0.1201" stroke-linecap="round" stroke-linejoin="round" fill="#000000"/>
        <path d="M 74.2785,9.1159 L 73.0972,9.1159 L 73.0972,9.5460 L 74.2785,9.5460 L 74.2785,9.1159 Z" stroke="#494949" stroke-width="0.1201" stroke-linecap="round" stroke-linejoin="round" fill="#000000"/>
        <path d="M 22.1311,3.0375 L 21.3708,3.0375 L 21.3708,3.3491 L 22.1311,3.3491 L 22.1311,3.0375 Z" stroke="#000000" stroke-width="0.1201" stroke-linecap="round" stroke-linejoin="round" fill="#FFFF00"/>
        <path d="M 25.1181,3.0375 L 24.3578,3.0375 L 24.3578,3.3491 L 25.1181,3.3491 L 25.1181,3.0375 Z" stroke="#000000" stroke-width="0.1201" stroke-linecap="round" stroke-linejoin="round" fill="#83FF00"/>
        <path d="M 26.4080,3.0375 L 25.6477,3.0375 L 25.6477,3.3491 L 26.4080,3.3491 L 26.4080,3.0375 Z" stroke="#000000" stroke-width="0.1201" stroke-linecap="round" stroke-linejoin="round" fill="#FFFF00"/>
        <path d="M 29.3950,3.0375 L 28.6347,3.0375 L 28.6347,3.3491 L 29.3950,3.3491 L 29.3950,3.0375 Z" stroke="#000000" stroke-width="0.1201" stroke-linecap="round" stroke-linejoin="round" fill="#83FF00"/>
        <path d="M 30.6849,3.0375 L 29.9245,3.0375 L 29.9245,3.3491 L 30.6849,3.3491 L 30.6849,3.0375 Z" stroke="#000000" stroke-width="0.1201" stroke-linecap="round" stroke-linejoin="round" fill="#FFFF00"/>
        <path d="M 33.6719,3.0375 L 32.9115,3.0375 L 32.9115,3.3491 L 33.6719,3.3491 L 33.6719,3.0375 Z" stroke="#000000" stroke-width="0.1201" stroke-linecap="round" stroke-linejoin="round" fill="#83FF00"/>
        <path d="M 34.9617,3.0375 L 34.2014,3.0375 L 34.2014,3.3491 L 34.9617,3.3491 L 34.9617,3.0375 Z" stroke="#000000" stroke-width="0.1201" stroke-linecap="round" stroke-linejoin="round" fill="#FFFF00"/>
        <path d="M 37.9352,3.0375 L 37.1748,3.0375 L 37.1748,3.3491 L 37.9352,3.3491 L 37.9352,3.0375 Z" stroke="#000000" stroke-width="0.1201" stroke-linecap="round" stroke-linejoin="round" fill="#83FF00"/>
        <path d="M 39.2386,3.0375 L 38.4783,3.0375 L 38.4783,3.3491 L 39.2386,3.3491 L 39.2386,3.0375 Z" stroke="#000000" stroke-width="0.1201" stroke-linecap="round" stroke-linejoin="round" fill="#FFFF00"/>
        <path d="M 42.2120,3.0375 L 41.4517,3.0375 L 41.4517,3.3491 L 42.2120,3.3491 L 42.2120,3.0375 Z" stroke="#000000" stroke-width="0.1201" stroke-linecap="round" stroke-linejoin="round" fill="#83FF00"/>
        <path d="M 43.5155,3.0375 L 42.7551,3.0375 L 42.7551,3.3491 L 43.5155,3.3491 L 43.5155,3.0375 Z" stroke="#000000" stroke-width="0.1201" stroke-linecap="round" stroke-linejoin="round" fill="#FFFF00"/>
        <path d="M 46.4889,3.0375 L 45.7286,3.0375 L 45.7286,3.3491 L 46.4889,3.3491 L 46.4889,3.0375 Z" stroke="#000000" stroke-width="0.1201" stroke-linecap="round" stroke-linejoin="round" fill="#83FF00"/>
        <path d="M 49.6932,3.0375 L 48.9328,3.0375 L 48.9328,3.3491 L 49.6932,3.3491 L 49.6932,3.0375 Z" stroke="#000000" stroke-width="0.1201" stroke-linecap="round" stroke-linejoin="round" fill="#83FF00"/>
        <path d="M 52.6802,3.0375 L 51.9199,3.0375 L 51.9199,3.3491 L 52.6802,3.3491 L 52.6802,3.0375 Z" stroke="#000000" stroke-width="0.1201" stroke-linecap="round" stroke-linejoin="round" fill="#83FF00"/>
        <path d="M 53.9700,3.0375 L 53.2097,3.0375 L 53.2097,3.3491 L 53.9700,3.3491 L 53.9700,3.0375 Z" stroke="#000000" stroke-width="0.1201" stroke-linecap="round" stroke-linejoin="round" fill="#83FF00"/>
        <path d="M 56.9571,3.0375 L 56.1967,3.0375 L 56.1967,3.3491 L 56.9571,3.3491 L 56.9571,3.0375 Z" stroke="#000000" stroke-width="0.1201" stroke-linecap="round" stroke-linejoin="round" fill="#83FF00"/>
        <path d="M 58.2469,3.0375 L 57.4866,3.0375 L 57.4866,3.3491 L 58.2469,3.3491 L 58.2469,3.0375 Z" stroke="#000000" stroke-width="0.1201" stroke-linecap="round" stroke-linejoin="round" fill="#83FF00"/>
        <path d="M 61.2339,3.0375 L 60.4736,3.0375 L 60.4736,3.3491 L 61.2339,3.3491 L 61.2339,3.0375 Z" stroke="#000000" stroke-width="0.1201" stroke-linecap="round" stroke-linejoin="round" fill="#83FF00"/>
        <path d="M 62.5238,3.0375 L 61.7635,3.0375 L 61.7635,3.3491 L 62.5238,3.3491 L 62.5238,3.0375 Z" stroke="#000000" stroke-width="0.1201" stroke-linecap="round" stroke-linejoin="round" fill="#83FF00"/>
        <path d="M 65.4972,3.0375 L 64.7369,3.0375 L 64.7369,3.3491 L 65.4972,3.3491 L 65.4972,3.0375 Z" stroke="#000000" stroke-width="0.1201" stroke-linecap="round" stroke-linejoin="round" fill="#83FF00"/>
        <path d="M 66.8007,3.0375 L 66.0403,3.0375 L 66.0403,3.3491 L 66.8007,3.3491 L 66.8007,3.0375 Z" stroke="#000000" stroke-width="0.1201" stroke-linecap="round" stroke-linejoin="round" fill="#83FF00"/>
        <path d="M 69.7741,3.0375 L 69.0138,3.0375 L 69.0138,3.3491 L 69.7741,3.3491 L 69.7741,3.0375 Z" stroke="#000000" stroke-width="0.1201" stroke-linecap="round" stroke-linejoin="round" fill="#83FF00"/>
        <path d="M 71.0775,3.0375 L 70.3172,3.0375 L 70.3172,3.3491 L 71.0775,3.3491 L 71.0775,3.0375 Z" stroke="#000000" stroke-width="0.1201" stroke-linecap="round" stroke-linejoin="round" fill="#83FF00"/>
        <path d="M 74.0510,3.0375 L 73.2906,3.0375 L 73.2906,3.3491 L 74.0510,3.3491 L 74.0510,3.0375 Z" stroke="#000000" stroke-width="0.1201" stroke-linecap="round" stroke-linejoin="round" fill="#83FF00"/>
        <path d="M 22.1311,9.1645 L 21.3708,9.1645 L 21.3708,9.4760 L 22.1311,9.4760 L 22.1311,9.1645 Z" stroke="#000000" stroke-width="0.1201" stroke-linecap="round" stroke-linejoin="round" fill="#FFFF00"/>
        <path d="M 25.1181,9.1645 L 24.3578,9.1645 L 24.3578,9.4760 L 25.1181,9.4760 L 25.1181,9.1645 Z" stroke="#000000" stroke-width="0.1201" stroke-linecap="round" stroke-linejoin="round" fill="#83FF00"/>
        <path d="M 26.4080,9.1645 L 25.6477,9.1645 L 25.6477,9.4760 L 26.4080,9.4760 L 26.4080,9.1645 Z" stroke="#000000" stroke-width="0.1201" stroke-linecap="round" stroke-linejoin="round" fill="#FFFF00"/>
        <path d="M 29.3950,9.1645 L 28.6347,9.1645 L 28.6347,9.4760 L 29.3950,9.4760 L 29.3950,9.1645 Z" stroke="#000000" stroke-width="0.1201" stroke-linecap="round" stroke-linejoin="round" fill="#83FF00"/>
        <path d="M 30.6849,9.1645 L 29.9245,9.1645 L 29.9245,9.4760 L 30.6849,9.4760 L 30.6849,9.1645 Z" stroke="#000000" stroke-width="0.1201" stroke-linecap="round" stroke-linejoin="round" fill="#FFFF00"/>
        <path d="M 33.6719,9.1645 L 32.9115,9.1645 L 32.9115,9.4760 L 33.6719,9.4760 L 33.6719,9.1645 Z" stroke="#000000" stroke-width="0.1201" stroke-linecap="round" stroke-linejoin="round" fill="#83FF00"/>
        <path d="M 34.9617,9.1645 L 34.2014,9.1645 L 34.2014,9.4760 L 34.9617,9.4760 L 34.9617,9.1645 Z" stroke="#000000" stroke-width="0.1201" stroke-linecap="round" stroke-linejoin="round" fill="#FFFF00"/>
        <path d="M 37.9352,9.1645 L 37.1748,9.1645 L 37.1748,9.4760 L 37.9352,9.4760 L 37.9352,9.1645 Z" stroke="#000000" stroke-width="0.1201" stroke-linecap="round" stroke-linejoin="round" fill="#83FF00"/>
        <path d="M 39.2386,9.1645 L 38.4783,9.1645 L 38.4783,9.4760 L 39.2386,9.4760 L 39.2386,9.1645 Z" stroke="#000000" stroke-width="0.1201" stroke-linecap="round" stroke-linejoin="round" fill="#FFFF00"/>
        <path d="M 42.2120,9.1645 L 41.4517,9.1645 L 41.4517,9.4760 L 42.2120,9.4760 L 42.2120,9.1645 Z" stroke="#000000" stroke-width="0.1201" stroke-linecap="round" stroke-linejoin="round" fill="#83FF00"/>
        <path d="M 43.5155,9.1645 L 42.7551,9.1645 L 42.7551,9.4760 L 43.5155,9.4760 L 43.5155,9.1645 Z" stroke="#000000" stroke-width="0.1201" stroke-linecap="round" stroke-linejoin="round" fill="#FFFF00"/>
        <path d="M 46.4889,9.1645 L 45.7286,9.1645 L 45.7286,9.4760 L 46.4889,9.4760 L 46.4889,9.1645 Z" stroke="#000000" stroke-width="0.1201" stroke-linecap="round" stroke-linejoin="round" fill="#83FF00"/>
        <path d="M 49.6932,9.1645 L 48.9328,9.1645 L 48.9328,9.4760 L 49.6932,9.4760 L 49.6932,9.1645 Z" stroke="#000000" stroke-width="0.1201" stroke-linecap="round" stroke-linejoin="round" fill="#83FF00"/>
        <path d="M 52.6802,9.1645 L 51.9199,9.1645 L 51.9199,9.4760 L 52.6802,9.4760 L 52.6802,9.1645 Z" stroke="#000000" stroke-width="0.1201" stroke-linecap="round" stroke-linejoin="round" fill="#83FF00"/>
        <path d="M 53.9700,9.1645 L 53.2097,9.1645 L 53.2097,9.4760 L 53.9700,9.4760 L 53.9700,9.1645 Z" stroke="#000000" stroke-width="0.1201" stroke-linecap="round" stroke-linejoin="round" fill="#83FF00"/>
        <path d="M 56.9571,9.1645 L 56.1967,9.1645 L 56.1967,9.4760 L 56.9571,9.4760 L 56.9571,9.1645 Z" stroke="#000000" stroke-width="0.1201" stroke-linecap="round" stroke-linejoin="round" fill="#83FF00"/>
        <path d="M 58.2469,9.1645 L 57.4866,9.1645 L 57.4866,9.4760 L 58.2469,9.4760 L 58.2469,9.1645 Z" stroke="#000000" stroke-width="0.1201" stroke-linecap="round" stroke-linejoin="round" fill="#83FF00"/>
        <path d="M 61.2339,9.1645 L 60.4736,9.1645 L 60.4736,9.4760 L 61.2339,9.4760 L 61.2339,9.1645 Z" stroke="#000000" stroke-width="0.1201" stroke-linecap="round" stroke-linejoin="round" fill="#83FF00"/>
        <path d="M 62.5238,9.1645 L 61.7635,9.1645 L 61.7635,9.4760 L 62.5238,9.4760 L 62.5238,9.1645 Z" stroke="#000000" stroke-width="0.1201" stroke-linecap="round" stroke-linejoin="round" fill="#83FF00"/>
        <path d="M 65.4972,9.1645 L 64.7369,9.1645 L 64.7369,9.4760 L 65.4972,9.4760 L 65.4972,9.1645 Z" stroke="#000000" stroke-width="0.1201" stroke-linecap="round" stroke-linejoin="round" fill="#83FF00"/>
        <path d="M 66.8007,9.1645 L 66.0403,9.1645 L 66.0403,9.4760 L 66.8007,9.4760 L 66.8007,9.1645 Z" stroke="#000000" stroke-width="0.1201" stroke-linecap="round" stroke-linejoin="round" fill="#83FF00"/>
        <path d="M 69.7741,9.1645 L 69.0138,9.1645 L 69.0138,9.4760 L 69.7741,9.4760 L 69.7741,9.1645 Z" stroke="#000000" stroke-width="0.1201" stroke-linecap="round" stroke-linejoin="round" fill="#83FF00"/>
        <path d="M 71.0775,9.1645 L 70.3172,9.1645 L 70.3172,9.4760 L 71.0775,9.4760 L 71.0775,9.1645 Z" stroke="#000000" stroke-width="0.1201" stroke-linecap="round" stroke-linejoin="round" fill="#83FF00"/>
        <path d="M 74.0510,9.1645 L 73.2906,9.1645 L 73.2906,9.4760 L 74.0510,9.4760 L 74.0510,9.1645 Z" stroke="#000000" stroke-width="0.1201" stroke-linecap="round" stroke-linejoin="round" fill="#83FF00"/>
        <text font-family="Arial" fill="#000000" style="white-space:pre;" font-weight="400" text-anchor="start" x="76.9973" y="10.7413" font-size="0.1222"><![CDATA[PoE MAX]]></text>
        <text font-family="Arial" fill="#000000" style="white-space:pre;" font-weight="400" text-anchor="start" x="76.9973" y="10.9749" font-size="0.1222"><![CDATA[RPS]]></text>
        <text font-family="Arial" fill="#FF0000" style="white-space:pre;" font-weight="400" text-anchor="start" x="95.4625" y="10.2801" font-size="0.2444"><![CDATA[POE]]></text>
        <path d="M 82.6598,5.4823 L 78.6941,5.4823 L 78.6941,2.8104 L 82.6598,2.8104 L 82.6598,5.4823 Z" stroke="#000000" stroke-width="0.1201" stroke-linecap="round" stroke-linejoin="round" fill="none"/>
        <path d="M 82.6598,9.6495 L 78.6941,9.6495 L 78.6941,6.9775 L 82.6598,6.9775 L 82.6598,9.6495 Z" stroke="#000000" stroke-width="0.1201" stroke-linecap="round" stroke-linejoin="round" fill="none"/>
        <path d="M 90.1973,5.4823 L 86.2317,5.4823 L 86.2317,2.8104 L 90.1973,2.8104 L 90.1973,5.4823 Z" stroke="#000000" stroke-width="0.1201" stroke-linecap="round" stroke-linejoin="round" fill="none"/>
        <path d="M 90.1973,9.6495 L 86.2317,9.6495 L 86.2317,6.9775 L 90.1973,6.9775 L 90.1973,9.6495 Z" stroke="#000000" stroke-width="0.1201" stroke-linecap="round" stroke-linejoin="round" fill="none"/>
      </g>
      <!--emf-blob end-->
    </g>
  </g>
</svg>
