<svg xmlns="http://www.w3.org/2000/svg" xmlns:xlink="http://www.w3.org/1999/xlink" version="1.1" width="7.6000000000" height="4.0000000000" viewBox="0 0 136.8000 72.0000">
  <title><![CDATA[FSW-248D-POE]]></title>
  <g transform=" scale(4.000000) ">
    <!--converted by libvisio2svg-->
    <g transform=" translate(0.000000,23.669300) ">
      <!--emf-blob start-->
      <g transform="translate(-0.0000, -0.0000)">
        <path d="M 10.6490,1.2485 L 10.6490,2.1522 L 11.4903,2.1522 " stroke="#000000" stroke-width="0.1197" stroke-linecap="round" stroke-linejoin="round" fill="none"/>
        <path d="M 11.4903,1.2485 L 13.1507,1.2485 " stroke="#000000" stroke-width="0.1197" stroke-linecap="round" stroke-linejoin="round" fill="none"/>
        <path d="M 12.3095,1.2485 L 12.3095,2.1522 " stroke="#000000" stroke-width="0.1197" stroke-linecap="round" stroke-linejoin="round" fill="none"/>
        <path d="M 13.5714,1.2485 L 13.5714,2.1522 " stroke="#000000" stroke-width="0.1197" stroke-linecap="round" stroke-linejoin="round" fill="none"/>
        <path d="M 13.5714,1.2485 L 13.5714,2.1522 " stroke="#000000" stroke-width="0.1197" stroke-linecap="round" stroke-linejoin="round" fill="none"/>
        <path d="M 14.3905,2.1522 L 14.3905,1.2485 L 15.2318,2.1522 L 16.0731,1.2485 L 16.0731,2.1522 " stroke="#000000" stroke-width="0.1197" stroke-linecap="round" stroke-linejoin="round" fill="none"/>
        <path d="M 16.4716,2.1522 L 17.3129,1.2485 L 18.1542,2.1522 " stroke="#000000" stroke-width="0.1197" stroke-linecap="round" stroke-linejoin="round" fill="none"/>
        <path d="M 16.6930,1.9263 L 17.9328,1.9263 " stroke="#000000" stroke-width="0.1197" stroke-linecap="round" stroke-linejoin="round" fill="none"/>
        <path d="M 8.1473,2.1522 L 8.9886,1.2485 L 9.8299,2.1522 " stroke="#000000" stroke-width="0.1197" stroke-linecap="round" stroke-linejoin="round" fill="none"/>
        <path d="M 8.3687,1.9263 L 9.6085,1.9263 " stroke="#000000" stroke-width="0.1197" stroke-linecap="round" stroke-linejoin="round" fill="none"/>
        <path d="M 136.3000,0.0281 L 0.0280,0.0281 L 0.0280,12.2745 L 136.3000,12.2745 L 136.3000,0.0281 Z" stroke="#000000" stroke-width="0.1197" stroke-linecap="round" stroke-linejoin="round" fill="#EAEAEA"/>
        <path d="M 130.1924,0.0281 L 6.1356,0.0281 L 6.1356,12.2745 L 130.1924,12.2745 L 130.1924,0.0281 Z" stroke="#000000" stroke-width="0.1197" stroke-linecap="round" stroke-linejoin="round" fill="#EAEAEA"/>
        <path d="M 4.0764,1.6151 L 4.0764,1.5448 L 4.0624,1.4606 L 4.0484,1.3904 L 4.0204,1.3342 L 3.9923,1.2640 L 3.8663,1.0954 L 3.6982,0.9690 L 3.6281,0.9410 L 3.5721,0.9129 L 3.5021,0.8988 L 3.4180,0.8848 L 1.6950,0.8848 L 1.6109,0.8988 L 1.5409,0.9129 L 1.4849,0.9410 L 1.4148,0.9690 L 1.2467,1.0954 L 1.1207,1.2640 L 1.0926,1.3342 L 1.0646,1.3904 L 1.0506,1.4606 L 1.0366,1.5448 L 1.0366,1.6853 L 1.0506,1.7696 L 1.0646,1.8398 L 1.0926,1.8960 L 1.1207,1.9662 L 1.2467,2.1347 L 1.4148,2.2611 L 1.4849,2.2892 L 1.5409,2.3173 L 1.6109,2.3313 L 1.6950,2.3454 L 3.4180,2.3454 L 3.5021,2.3313 L 3.5721,2.3173 L 3.6281,2.2892 L 3.6982,2.2611 L 3.8663,2.1347 L 3.9923,1.9662 L 4.0204,1.8960 L 4.0484,1.8398 L 4.0624,1.7696 L 4.0764,1.6853 L 4.0764,1.6151 Z" stroke="#000000" stroke-width="0.1197" stroke-linecap="round" stroke-linejoin="round" fill="#FFFFFF"/>
        <path d="M 4.0764,10.6875 L 4.0764,10.6173 L 4.0624,10.5331 L 4.0484,10.4628 L 4.0204,10.4067 L 3.9923,10.3364 L 3.8663,10.1679 L 3.6982,10.0415 L 3.6281,10.0134 L 3.5721,9.9853 L 3.5021,9.9713 L 3.4180,9.9573 L 1.6950,9.9573 L 1.6109,9.9713 L 1.5409,9.9853 L 1.4849,10.0134 L 1.4148,10.0415 L 1.2467,10.1679 L 1.1207,10.3364 L 1.0926,10.4067 L 1.0646,10.4628 L 1.0506,10.5331 L 1.0366,10.6173 L 1.0366,10.7578 L 1.0506,10.8420 L 1.0646,10.9122 L 1.0926,10.9684 L 1.1207,11.0386 L 1.2467,11.2072 L 1.4148,11.3336 L 1.4849,11.3617 L 1.5409,11.3897 L 1.6109,11.4038 L 1.6950,11.4178 L 3.4180,11.4178 L 3.5021,11.4038 L 3.5721,11.3897 L 3.6281,11.3617 L 3.6982,11.3336 L 3.8663,11.2072 L 3.9923,11.0386 L 4.0204,10.9684 L 4.0484,10.9122 L 4.0624,10.8420 L 4.0764,10.7578 L 4.0764,10.6875 Z" stroke="#000000" stroke-width="0.1197" stroke-linecap="round" stroke-linejoin="round" fill="#FFFFFF"/>
        <path d="M 135.2914,1.6151 L 135.2914,1.5448 L 135.2774,1.4606 L 135.2634,1.3904 L 135.2353,1.3342 L 135.2073,1.2640 L 135.0812,1.0954 L 134.9131,0.9690 L 134.8431,0.9410 L 134.7871,0.9129 L 134.7170,0.8988 L 134.6330,0.8848 L 132.9100,0.8848 L 132.8259,0.8988 L 132.7559,0.9129 L 132.6998,0.9410 L 132.6298,0.9690 L 132.4617,1.0954 L 132.3356,1.2640 L 132.3076,1.3342 L 132.2796,1.3904 L 132.2656,1.4606 L 132.2516,1.5448 L 132.2516,1.6853 L 132.2656,1.7696 L 132.2796,1.8398 L 132.3076,1.8960 L 132.3356,1.9662 L 132.4617,2.1347 L 132.6298,2.2611 L 132.6998,2.2892 L 132.7559,2.3173 L 132.8259,2.3313 L 132.9100,2.3454 L 134.6330,2.3454 L 134.7170,2.3313 L 134.7871,2.3173 L 134.8431,2.2892 L 134.9131,2.2611 L 135.0812,2.1347 L 135.2073,1.9662 L 135.2353,1.8960 L 135.2634,1.8398 L 135.2774,1.7696 L 135.2914,1.6853 L 135.2914,1.6151 Z" stroke="#000000" stroke-width="0.1197" stroke-linecap="round" stroke-linejoin="round" fill="#FFFFFF"/>
        <path d="M 135.2914,10.6875 L 135.2914,10.6173 L 135.2774,10.5331 L 135.2634,10.4628 L 135.2353,10.4067 L 135.2073,10.3364 L 135.0812,10.1679 L 134.9131,10.0415 L 134.8431,10.0134 L 134.7871,9.9853 L 134.7170,9.9713 L 134.6330,9.9573 L 132.9100,9.9573 L 132.8259,9.9713 L 132.7559,9.9853 L 132.6998,10.0134 L 132.6298,10.0415 L 132.4617,10.1679 L 132.3356,10.3364 L 132.3076,10.4067 L 132.2796,10.4628 L 132.2656,10.5331 L 132.2516,10.6173 L 132.2516,10.7578 L 132.2656,10.8420 L 132.2796,10.9122 L 132.3076,10.9684 L 132.3356,11.0386 L 132.4617,11.2072 L 132.6298,11.3336 L 132.6998,11.3617 L 132.7559,11.3897 L 132.8259,11.4038 L 132.9100,11.4178 L 134.6330,11.4178 L 134.7170,11.4038 L 134.7871,11.3897 L 134.8431,11.3617 L 134.9131,11.3336 L 135.0812,11.2072 L 135.2073,11.0386 L 135.2353,10.9684 L 135.2634,10.9122 L 135.2774,10.8420 L 135.2914,10.7578 L 135.2914,10.6875 Z" stroke="#000000" stroke-width="0.1197" stroke-linecap="round" stroke-linejoin="round" fill="#FFFFFF"/>
        <path d="M 129.8001,0.9269 L 129.8001,0.8707 L 129.7861,0.8005 L 129.7581,0.6882 L 129.7301,0.6320 L 129.6881,0.5899 L 129.6601,0.5337 L 129.5760,0.4494 L 129.5200,0.4213 L 129.4780,0.3792 L 129.4219,0.3651 L 129.3659,0.3371 L 129.3099,0.3230 L 129.2398,0.3090 L 7.1022,0.3090 L 7.0321,0.3230 L 6.9761,0.3371 L 6.9201,0.3651 L 6.8640,0.3792 L 6.8220,0.4213 L 6.7660,0.4494 L 6.6819,0.5337 L 6.6539,0.5899 L 6.6119,0.6320 L 6.5979,0.6882 L 6.5699,0.7443 L 6.5558,0.8005 L 6.5418,0.8707 L 6.5418,11.4459 L 6.5558,11.5161 L 6.5699,11.5723 L 6.5979,11.6285 L 6.6119,11.6847 L 6.6539,11.7268 L 6.6819,11.7830 L 6.7660,11.8672 L 6.8220,11.8953 L 6.8640,11.9375 L 6.9201,11.9656 L 7.0321,11.9936 L 7.1022,12.0077 L 129.2398,12.0077 L 129.3099,11.9936 L 129.4219,11.9656 L 129.4780,11.9375 L 129.5200,11.8953 L 129.5760,11.8672 L 129.6601,11.7830 L 129.6881,11.7268 L 129.7301,11.6847 L 129.7581,11.6285 L 129.7861,11.5161 L 129.8001,11.4459 L 129.8001,11.3897 L 129.8001,0.9269 " stroke="#000000" stroke-width="0.1197" stroke-linecap="round" stroke-linejoin="round" fill="none"/>
        <path d="M 20.9843,6.4884 L 16.3896,6.4884 L 16.3896,10.3645 L 20.9843,10.3645 L 20.9843,6.4884 Z" stroke="#000000" stroke-width="0.1197" stroke-linecap="round" stroke-linejoin="round" fill="#DDDDDD"/>
        <path d="M 122.9361,2.7246 L 118.4115,2.7246 L 118.4115,10.3645 L 122.9361,10.3645 L 122.9361,2.7246 Z" stroke="#000000" stroke-width="0.1197" stroke-linecap="round" stroke-linejoin="round" fill="#494949"/>
        <path d="M 122.6279,5.7300 L 118.6776,5.7300 L 118.6776,3.0195 L 122.6279,3.0195 L 122.6279,5.7300 Z" stroke="#000000" stroke-width="0.1197" stroke-linecap="round" stroke-linejoin="round" fill="#494949"/>
        <path d="M 122.6279,10.0836 L 118.6776,10.0836 L 118.6776,7.3731 L 122.6279,7.3731 L 122.6279,10.0836 Z" stroke="#000000" stroke-width="0.1197" stroke-linecap="round" stroke-linejoin="round" fill="#494949"/>
        <path d="M 53.8056,2.7246 L 21.9649,2.7246 L 21.9649,10.3645 L 53.8056,10.3645 L 53.8056,2.7246 Z" stroke="#000000" stroke-width="0.1197" stroke-linecap="round" stroke-linejoin="round" fill="#DDDDDD"/>
        <path d="M 85.6603,2.7246 L 53.8196,2.7246 L 53.8196,10.3645 L 85.6603,10.3645 L 85.6603,2.7246 Z" stroke="#000000" stroke-width="0.1197" stroke-linecap="round" stroke-linejoin="round" fill="#DDDDDD"/>
        <path d="M 117.5149,2.7246 L 85.6743,2.7246 L 85.6743,10.3645 L 117.5149,10.3645 L 117.5149,2.7246 Z" stroke="#000000" stroke-width="0.1197" stroke-linecap="round" stroke-linejoin="round" fill="#DDDDDD"/>
        <path d="M 128.5674,2.7246 L 123.9727,2.7246 L 123.9727,6.6007 L 128.5674,6.6007 L 128.5674,2.7246 Z" stroke="#000000" stroke-width="0.1197" stroke-linecap="round" stroke-linejoin="round" fill="#DDDDDD"/>
        <path d="M 122.6279,5.7300 L 118.6776,5.7300 L 118.6776,7.3731 L 122.6279,7.3731 L 122.6279,5.7300 Z" stroke="#000000" stroke-width="0.1197" stroke-linecap="round" stroke-linejoin="round" fill="#7F7F7F"/>
        <path d="M 121.3952,5.8704 L 119.9103,5.8704 L 119.9103,5.5053 L 121.3952,5.5053 L 121.3952,5.8704 Z" stroke="#000000" stroke-width="0.1197" stroke-linecap="round" stroke-linejoin="round" fill="#494949"/>
        <path d="M 121.2411,5.8142 L 120.0644,5.8142 L 120.0644,5.5053 L 121.2411,5.5053 L 121.2411,5.8142 Z" stroke="#000000" stroke-width="0.1197" stroke-linecap="round" stroke-linejoin="round" fill="#7F7F7F"/>
        <path d="M 121.3952,7.4855 L 119.9103,7.4855 L 119.9103,7.1203 L 121.3952,7.1203 L 121.3952,7.4855 Z" stroke="#000000" stroke-width="0.1197" stroke-linecap="round" stroke-linejoin="round" fill="#494949"/>
        <path d="M 121.2411,7.4855 L 120.0644,7.4855 L 120.0644,7.1765 L 121.2411,7.1765 L 121.2411,7.4855 Z" stroke="#000000" stroke-width="0.1197" stroke-linecap="round" stroke-linejoin="round" fill="#7F7F7F"/>
        <path d="M 22.9455,0.7584 L 44.9664,0.7584 " stroke="#FF0000" stroke-width="0.1197" stroke-linecap="round" stroke-linejoin="round" fill="none"/>
        <path d="M 47.0396,0.7584 L 69.0605,0.7584 " stroke="#FF0000" stroke-width="0.1197" stroke-linecap="round" stroke-linejoin="round" fill="none"/>
        <text font-family="Arial" fill="#000000" style="white-space:pre;" font-weight="400" text-anchor="start" x="2.5775" y="1.5892" font-size="0.2521"><![CDATA[FortiSwitch 248D]]></text>
        <text font-family="Arial" fill="#FF0000" style="white-space:pre;" font-weight="400" text-anchor="start" x="4.5947" y="1.5892" font-size="0.2521"><![CDATA[-POE]]></text>
        <path d="M 8.0895,2.2390 L 8.0721,2.2390 L 8.0634,2.2307 L 8.0547,2.2307 L 8.0286,2.2060 L 8.0286,2.1978 L 8.0199,2.1896 L 8.0199,1.2347 L 8.0286,1.2265 L 8.0286,1.2183 L 8.0373,1.2100 L 8.0460,1.2100 L 8.0460,1.2018 L 8.0547,1.1936 L 8.0634,1.1936 L 8.0721,1.1853 L 9.2551,1.1853 L 9.2638,1.1936 L 9.2725,1.1936 L 9.2986,1.2183 L 9.2986,1.2265 L 9.3073,1.2347 L 9.3073,1.4240 L 9.2986,1.4240 L 9.2986,1.4158 L 9.2899,1.4158 L 9.2899,1.4076 L 9.2812,1.4076 L 9.2812,1.3993 L 9.2638,1.3993 L 9.2638,1.3911 L 8.3070,1.3911 L 8.3070,1.3993 L 8.2896,1.3993 L 8.2896,1.4076 L 8.2809,1.4076 L 8.2809,1.4240 L 8.2722,1.4240 L 8.2722,2.2060 L 8.2809,2.2060 L 8.2809,2.2225 L 8.2896,2.2225 L 8.2896,2.2307 L 8.2983,2.2307 L 8.2983,2.2390 L 8.0982,2.2390 L 8.0895,2.2390 Z" stroke="#000000" stroke-width="0.1197" stroke-linecap="round" stroke-linejoin="round" fill="#000000"/>
        <path d="M 9.2203,1.6298 L 8.3592,1.6298 L 8.3592,1.6216 L 8.3418,1.6216 L 8.3418,1.6134 L 8.3331,1.6134 L 8.3331,1.5969 L 8.3244,1.5969 L 8.3244,1.8027 L 8.3331,1.8027 L 8.3331,1.8191 L 8.3418,1.8191 L 8.3418,1.8274 L 8.3592,1.8274 L 8.3592,1.8356 L 9.2377,1.8356 L 9.2551,1.8191 L 9.2638,1.8191 L 9.2812,1.8027 L 9.2812,1.7945 L 9.2899,1.7862 L 9.2899,1.7780 L 9.2986,1.7698 L 9.2986,1.7533 L 9.3073,1.7451 L 9.3073,1.7204 L 9.2986,1.7121 L 9.2986,1.6874 L 9.2812,1.6710 L 9.2812,1.6628 L 9.2725,1.6545 L 9.2638,1.6545 L 9.2638,1.6463 L 9.2551,1.6463 L 9.2464,1.6381 L 9.2377,1.6381 L 9.2290,1.6298 L 9.2203,1.6298 Z" stroke="#000000" stroke-width="0.1197" stroke-linecap="round" stroke-linejoin="round" fill="#000000"/>
        <path d="M 11.2296,1.8356 L 11.2122,1.8356 L 11.2122,1.8274 L 11.1948,1.8274 L 11.1948,1.8191 L 11.1861,1.8191 L 11.1861,1.8027 L 11.1774,1.8027 L 11.1774,1.5969 L 11.1861,1.5969 L 11.1861,1.6134 L 11.1948,1.6134 L 11.1948,1.6216 L 11.2122,1.6216 L 11.2122,1.6298 L 11.9081,1.6298 L 11.9081,1.3911 L 11.1600,1.3911 L 11.1600,1.3993 L 11.1426,1.3993 L 11.1426,1.4076 L 11.1339,1.4076 L 11.1339,1.4240 L 11.1252,1.4240 L 11.1252,2.2060 L 11.1339,2.2060 L 11.1339,2.2225 L 11.1426,2.2225 L 11.1426,2.2307 L 11.1513,2.2307 L 11.1513,2.2390 L 10.9252,2.2390 L 10.9165,2.2307 L 10.9078,2.2307 L 10.8817,2.2060 L 10.8817,2.1978 L 10.8730,2.1896 L 10.8730,1.2347 L 10.8817,1.2265 L 10.8817,1.2183 L 10.8904,1.2100 L 10.8991,1.2100 L 10.8991,1.2018 L 10.9078,1.1936 L 10.9165,1.1936 L 10.9252,1.1853 L 12.1082,1.1853 L 12.1169,1.1936 L 12.1256,1.1936 L 12.1517,1.2183 L 12.1517,1.2265 L 12.1604,1.2347 L 12.1604,1.7533 L 12.1517,1.7615 L 12.1517,1.7780 L 12.1430,1.7780 L 12.1430,1.7862 L 12.1343,1.7945 L 12.1343,1.8027 L 12.1256,1.8027 L 12.1256,1.8109 L 12.1169,1.8109 L 12.1169,1.8191 L 12.1082,1.8191 L 12.1082,1.8274 L 12.0995,1.8274 L 12.0908,1.8356 L 12.0995,1.8438 L 12.1082,1.8438 L 12.1082,1.8521 L 12.1169,1.8521 L 12.1169,1.8603 L 12.1256,1.8603 L 12.1256,1.8685 L 12.1343,1.8685 L 12.1343,1.8768 L 12.1430,1.8850 L 12.1430,1.8932 L 12.1517,1.8932 L 12.1517,1.9097 L 12.1604,1.9179 L 12.1604,2.2060 L 12.1691,2.2060 L 12.1691,2.2225 L 12.1777,2.2225 L 12.1777,2.2307 L 12.1864,2.2307 L 12.1864,2.2390 L 11.9603,2.2390 L 11.9516,2.2307 L 11.9429,2.2307 L 11.9168,2.2060 L 11.9168,2.1978 L 11.9081,2.1896 L 11.9081,1.8356 L 11.2383,1.8356 L 11.2296,1.8356 Z" stroke="#000000" stroke-width="0.1197" stroke-linecap="round" stroke-linejoin="round" fill="#000000"/>
        <path d="M 12.6127,1.3911 L 12.3517,1.3911 L 12.3430,1.3829 L 12.3343,1.3829 L 12.3082,1.3582 L 12.3082,1.3500 L 12.2995,1.3417 L 12.2995,1.2347 L 12.3082,1.2265 L 12.3082,1.2183 L 12.3169,1.2100 L 12.3256,1.2100 L 12.3256,1.2018 L 12.3343,1.1936 L 12.3430,1.1936 L 12.3517,1.1853 L 13.5347,1.1853 L 13.5434,1.1936 L 13.5521,1.1936 L 13.5782,1.2183 L 13.5782,1.2265 L 13.5869,1.2347 L 13.5869,1.4240 L 13.5782,1.4240 L 13.5782,1.4158 L 13.5695,1.4158 L 13.5695,1.4076 L 13.5608,1.4076 L 13.5608,1.3993 L 13.5434,1.3993 L 13.5434,1.3911 L 12.8997,1.3911 L 12.8997,1.3993 L 12.8823,1.3993 L 12.8823,1.4076 L 12.8736,1.4076 L 12.8736,1.4240 L 12.8649,1.4240 L 12.8649,2.2060 L 12.8736,2.2060 L 12.8736,2.2225 L 12.8823,2.2225 L 12.8823,2.2307 L 12.8910,2.2307 L 12.8910,2.2390 L 12.6649,2.2390 L 12.6562,2.2307 L 12.6475,2.2307 L 12.6214,2.2060 L 12.6214,2.1978 L 12.6127,2.1896 L 12.6127,1.4158 L 12.6127,1.3911 Z" stroke="#000000" stroke-width="0.1197" stroke-linecap="round" stroke-linejoin="round" fill="#000000"/>
        <path d="M 13.9783,2.1813 L 13.9783,2.2060 L 13.9870,2.2060 L 13.9870,2.2225 L 13.9957,2.2225 L 13.9957,2.2307 L 14.0044,2.2307 L 14.0044,2.2390 L 13.7783,2.2390 L 13.7696,2.2307 L 13.7609,2.2307 L 13.7348,2.2060 L 13.7348,2.1978 L 13.7261,2.1896 L 13.7261,1.2183 L 13.7174,1.2183 L 13.7174,1.2018 L 13.7087,1.2018 L 13.7087,1.1936 L 13.7000,1.1936 L 13.7000,1.1853 L 13.9261,1.1853 L 13.9348,1.1936 L 13.9435,1.1936 L 13.9696,1.2183 L 13.9696,1.2265 L 13.9783,1.2347 L 13.9783,2.1731 L 13.9783,2.1813 Z" stroke="#000000" stroke-width="0.1197" stroke-linecap="round" stroke-linejoin="round" fill="#000000"/>
        <path d="M 15.2135,1.3911 L 14.4654,1.3911 L 14.4654,1.3993 L 14.4480,1.3993 L 14.4480,1.4076 L 14.4393,1.4076 L 14.4393,1.4240 L 14.4306,1.4240 L 14.4306,2.2060 L 14.4393,2.2060 L 14.4393,2.2225 L 14.4480,2.2225 L 14.4480,2.2307 L 14.4567,2.2307 L 14.4567,2.2390 L 14.2306,2.2390 L 14.2219,2.2307 L 14.2132,2.2307 L 14.1871,2.2060 L 14.1871,2.1978 L 14.1784,2.1896 L 14.1784,1.2347 L 14.1871,1.2265 L 14.1871,1.2183 L 14.1958,1.2100 L 14.2045,1.2100 L 14.2045,1.2018 L 14.2132,1.1936 L 14.2219,1.1936 L 14.2306,1.1853 L 15.4136,1.1853 L 15.4222,1.1936 L 15.4309,1.1936 L 15.4570,1.2183 L 15.4570,1.2265 L 15.4657,1.2347 L 15.4657,2.2060 L 15.4744,2.2060 L 15.4744,2.2225 L 15.4831,2.2225 L 15.4831,2.2307 L 15.4918,2.2307 L 15.4918,2.2390 L 15.2657,2.2390 L 15.2570,2.2307 L 15.2483,2.2307 L 15.2222,2.2060 L 15.2222,2.1978 L 15.2135,2.1896 L 15.2135,1.4158 L 15.2135,1.3911 Z" stroke="#000000" stroke-width="0.1197" stroke-linecap="round" stroke-linejoin="round" fill="#000000"/>
        <path d="M 16.7444,1.6298 L 15.9442,1.6298 L 15.9355,1.6216 L 15.9268,1.6216 L 15.9268,1.6134 L 15.9181,1.6134 L 15.9181,1.5969 L 15.9094,1.5969 L 15.9094,1.8027 L 15.9181,1.8027 L 15.9181,1.8191 L 15.9268,1.8191 L 15.9268,1.8274 L 15.9355,1.8274 L 15.9442,1.8356 L 16.7531,1.8356 L 16.7705,1.8191 L 16.7792,1.8191 L 16.7966,1.8027 L 16.7966,1.7945 L 16.8053,1.7862 L 16.8053,1.7780 L 16.8140,1.7698 L 16.8140,1.7533 L 16.8227,1.7451 L 16.8227,1.7121 L 16.8140,1.7039 L 16.8140,1.6792 L 16.8053,1.6792 L 16.8053,1.6710 L 16.7792,1.6463 L 16.7705,1.6463 L 16.7705,1.6381 L 16.7618,1.6381 L 16.7531,1.6298 L 16.7444,1.6298 Z" stroke="#000000" stroke-width="0.1197" stroke-linecap="round" stroke-linejoin="round" fill="#000000"/>
        <path d="M 17.3446,1.3911 L 17.0836,1.3911 L 17.0749,1.3829 L 17.0662,1.3829 L 17.0401,1.3582 L 17.0401,1.3500 L 17.0315,1.3417 L 17.0315,1.2347 L 17.0401,1.2265 L 17.0401,1.2183 L 17.0488,1.2100 L 17.0575,1.2100 L 17.0575,1.2018 L 17.0662,1.1936 L 17.0749,1.1936 L 17.0836,1.1853 L 18.2666,1.1853 L 18.2753,1.1936 L 18.2840,1.1936 L 18.3101,1.2183 L 18.3101,1.2265 L 18.3188,1.2347 L 18.3188,1.4240 L 18.3101,1.4240 L 18.3101,1.4158 L 18.3014,1.4158 L 18.3014,1.4076 L 18.2927,1.4076 L 18.2927,1.3993 L 18.2753,1.3993 L 18.2753,1.3911 L 17.6316,1.3911 L 17.6316,1.3993 L 17.6142,1.3993 L 17.6142,1.4076 L 17.6055,1.4076 L 17.6055,1.4240 L 17.5968,1.4240 L 17.5968,2.2060 L 17.6055,2.2060 L 17.6055,2.2225 L 17.6142,2.2225 L 17.6142,2.2307 L 17.6229,2.2307 L 17.6229,2.2390 L 17.3968,2.2390 L 17.3881,2.2307 L 17.3794,2.2307 L 17.3533,2.2060 L 17.3533,2.1978 L 17.3446,2.1896 L 17.3446,1.4158 L 17.3446,1.3911 Z" stroke="#000000" stroke-width="0.1197" stroke-linecap="round" stroke-linejoin="round" fill="#000000"/>
        <path d="M 16.8314,2.0332 L 16.8488,2.0332 L 16.8488,2.0249 L 16.8662,2.0249 L 16.8662,2.0167 L 16.8749,2.0167 L 16.8749,2.0085 L 16.8836,2.0085 L 16.8836,2.0002 L 16.8923,2.0002 L 16.8923,2.1896 L 16.8836,2.1978 L 16.8836,2.2060 L 16.8749,2.2143 L 16.8749,2.2225 L 16.8662,2.2225 L 16.8575,2.2307 L 16.8488,2.2307 L 16.8401,2.2390 L 15.6571,2.2390 L 15.6484,2.2307 L 15.6397,2.2307 L 15.6136,2.2060 L 15.6136,2.1978 L 15.6049,2.1896 L 15.6049,1.2347 L 15.6136,1.2265 L 15.6136,1.2183 L 15.6223,1.2100 L 15.6310,1.2100 L 15.6310,1.2018 L 15.6397,1.1936 L 15.6484,1.1936 L 15.6571,1.1853 L 16.8401,1.1853 L 16.8488,1.1936 L 16.8575,1.1936 L 16.8836,1.2183 L 16.8836,1.2265 L 16.8923,1.2347 L 16.8923,1.4240 L 16.8836,1.4240 L 16.8836,1.4158 L 16.8749,1.4158 L 16.8749,1.4076 L 16.8662,1.4076 L 16.8662,1.3993 L 16.8488,1.3993 L 16.8488,1.3911 L 15.8920,1.3911 L 15.8920,1.3993 L 15.8746,1.3993 L 15.8746,1.4076 L 15.8659,1.4076 L 15.8659,1.4240 L 15.8572,1.4240 L 15.8572,2.0332 L 16.8227,2.0332 L 16.8314,2.0332 Z" stroke="#000000" stroke-width="0.1197" stroke-linecap="round" stroke-linejoin="round" fill="#000000"/>
        <path d="M 9.8814,1.9344 L 9.8814,2.2390 L 10.2989,2.2390 L 10.2989,1.9344 L 9.8814,1.9344 Z" stroke="#FF0000" stroke-width="0.1197" stroke-linecap="round" stroke-linejoin="round" fill="#FF0000"/>
        <path d="M 9.4465,1.5640 L 9.8031,1.5640 L 9.8031,1.8603 L 9.4465,1.8603 L 9.4465,1.5640 Z" stroke="#FF0000" stroke-width="0.1197" stroke-linecap="round" stroke-linejoin="round" fill="#FF0000"/>
        <path d="M 10.3772,1.9344 L 10.3772,2.2390 L 10.5077,2.2390 L 10.5164,2.2307 L 10.5511,2.2307 L 10.5598,2.2225 L 10.5772,2.2225 L 10.5946,2.2143 L 10.6033,2.2060 L 10.6207,2.1978 L 10.6381,2.1813 L 10.6555,2.1731 L 10.6642,2.1649 L 10.6729,2.1484 L 10.6816,2.1402 L 10.7164,2.0743 L 10.7164,2.0579 L 10.7251,2.0332 L 10.7251,2.0085 L 10.7338,1.9838 L 10.7338,1.9344 L 10.3859,1.9344 L 10.3772,1.9344 Z" stroke="#FF0000" stroke-width="0.1197" stroke-linecap="round" stroke-linejoin="round" fill="#FF0000"/>
        <path d="M 10.3772,1.5640 L 10.7338,1.5640 L 10.7338,1.8603 L 10.3772,1.8603 L 10.3772,1.5640 Z" stroke="#FF0000" stroke-width="0.1197" stroke-linecap="round" stroke-linejoin="round" fill="#FF0000"/>
        <path d="M 9.8031,1.9344 L 9.8031,2.2390 L 9.6726,2.2390 L 9.6639,2.2307 L 9.6291,2.2307 L 9.6204,2.2225 L 9.6030,2.2225 L 9.5856,2.2143 L 9.5769,2.2060 L 9.5595,2.1978 L 9.5421,2.1813 L 9.5247,2.1731 L 9.5160,2.1649 L 9.5073,2.1484 L 9.4986,2.1402 L 9.4639,2.0743 L 9.4639,2.0579 L 9.4552,2.0332 L 9.4552,2.0085 L 9.4465,1.9838 L 9.4465,1.9344 L 9.7944,1.9344 L 9.8031,1.9344 Z" stroke="#FF0000" stroke-width="0.1197" stroke-linecap="round" stroke-linejoin="round" fill="#FF0000"/>
        <path d="M 9.8814,1.1853 L 9.8814,1.4899 L 10.2989,1.4899 L 10.2989,1.1853 L 9.8814,1.1853 Z" stroke="#FF0000" stroke-width="0.1197" stroke-linecap="round" stroke-linejoin="round" fill="#FF0000"/>
        <path d="M 10.3772,1.4899 L 10.3772,1.1853 L 10.5077,1.1853 L 10.5164,1.1936 L 10.5511,1.1936 L 10.5598,1.2018 L 10.5772,1.2018 L 10.5946,1.2100 L 10.6033,1.2183 L 10.6207,1.2265 L 10.6381,1.2429 L 10.6555,1.2512 L 10.6642,1.2594 L 10.6729,1.2759 L 10.6816,1.2841 L 10.7164,1.3500 L 10.7164,1.3664 L 10.7251,1.3911 L 10.7251,1.4158 L 10.7338,1.4405 L 10.7338,1.4899 L 10.3859,1.4899 L 10.3772,1.4899 Z" stroke="#FF0000" stroke-width="0.1197" stroke-linecap="round" stroke-linejoin="round" fill="#FF0000"/>
        <path d="M 9.8031,1.4899 L 9.8031,1.1853 L 9.6726,1.1853 L 9.6639,1.1936 L 9.6291,1.1936 L 9.6204,1.2018 L 9.6030,1.2018 L 9.5856,1.2100 L 9.5769,1.2183 L 9.5595,1.2265 L 9.5421,1.2429 L 9.5247,1.2512 L 9.5160,1.2594 L 9.5073,1.2759 L 9.4986,1.2841 L 9.4639,1.3500 L 9.4639,1.3664 L 9.4552,1.3911 L 9.4552,1.4158 L 9.4465,1.4405 L 9.4465,1.4899 L 9.7944,1.4899 L 9.8031,1.4899 Z" stroke="#FF0000" stroke-width="0.1197" stroke-linecap="round" stroke-linejoin="round" fill="#FF0000"/>
        <text font-family="Symbol" fill="#000000" style="white-space:pre;" text-anchor="start" x="18.0529" y="2.2169" font-size="0.3432"><![CDATA[]]></text>
        <text font-family="Arial" fill="#000000" style="white-space:pre;" font-weight="400" text-anchor="start" x="19.7397" y="3.0955" font-size="0.0532"><![CDATA[CONSOLE]]></text>
        <text font-family="Arial" fill="#000000" style="white-space:pre;" font-weight="400" text-anchor="start" x="19.4449" y="2.8066" font-size="0.0435"><![CDATA[MGMT]]></text>
        <ellipse cx="14.5131" cy="6.7961" rx="0.3218" ry="0.3154" fill="#00FF00" stroke="#000000" stroke-width="0.1197" stroke-linecap="round" stroke-linejoin="round"/>
        <ellipse cx="14.5131" cy="6.7961" rx="0.3218" ry="0.3154" fill="none" stroke="#000000" stroke-width="0.1197" stroke-linecap="round" stroke-linejoin="round"/>
        <text font-family="Arial" fill="#000000" style="white-space:pre;" font-weight="400" text-anchor="start" x="17.8333" y="9.2254" font-size="0.1413"><![CDATA[PWR]]></text>
        <ellipse cx="12.4253" cy="6.7961" rx="0.3218" ry="0.3154" fill="#00FF00" stroke="#000000" stroke-width="0.1197" stroke-linecap="round" stroke-linejoin="round"/>
        <ellipse cx="12.4253" cy="6.7961" rx="0.3218" ry="0.3154" fill="none" stroke="#000000" stroke-width="0.1197" stroke-linecap="round" stroke-linejoin="round"/>
        <ellipse cx="12.4253" cy="8.1994" rx="0.3218" ry="0.3154" fill="#FF0000" stroke="#000000" stroke-width="0.1197" stroke-linecap="round" stroke-linejoin="round"/>
        <ellipse cx="12.4253" cy="8.1994" rx="0.3218" ry="0.3154" fill="none" stroke="#000000" stroke-width="0.1197" stroke-linecap="round" stroke-linejoin="round"/>
        <ellipse cx="12.4253" cy="9.6028" rx="0.3218" ry="0.3154" fill="#00FF00" stroke="#000000" stroke-width="0.1197" stroke-linecap="round" stroke-linejoin="round"/>
        <ellipse cx="12.4253" cy="9.6028" rx="0.3218" ry="0.3154" fill="none" stroke="#000000" stroke-width="0.1197" stroke-linecap="round" stroke-linejoin="round"/>
        <text font-family="Arial" fill="#000000" style="white-space:pre;" font-weight="400" text-anchor="start" x="15.4943" y="12.4421" font-size="0.1413"><![CDATA[PoE MAX]]></text>
        <text font-family="Arial" fill="#000000" style="white-space:pre;" font-weight="400" text-anchor="start" x="15.4315" y="12.8205" font-size="0.1413"><![CDATA[FAN ERR]]></text>
        <ellipse cx="13.2462" cy="10.9329" rx="0.1850" ry="0.1816" fill="#333333" stroke="#000000" stroke-width="0.1197" stroke-linecap="round" stroke-linejoin="round"/>
        <ellipse cx="13.2462" cy="10.9329" rx="0.1850" ry="0.1816" fill="none" stroke="#0A0A0A" stroke-width="0.1197" stroke-linecap="round" stroke-linejoin="round"/>
        <text font-family="Arial" fill="#FF0000" style="white-space:pre;" font-weight="400" text-anchor="start" x="16.8710" y="11.5036" font-size="0.0757"><![CDATA[1]]></text>
        <path d="M 23.6588,1.5041 L 24.0356,1.5041 L 23.8472,1.0698 L 23.6588,1.5041 Z" stroke="#FF0000" stroke-width="0.1197" stroke-linecap="round" stroke-linejoin="round" fill="#FF0000"/>
        <text font-family="Arial" fill="#FF0000" style="white-space:pre;" font-weight="400" text-anchor="start" x="27.4580" y="1.7849" font-size="0.0706"><![CDATA[2]]></text>
        <path d="M 24.3339,1.0698 L 24.7106,1.0698 L 24.5223,1.5041 L 24.3339,1.0698 Z" stroke="#FF0000" stroke-width="0.1197" stroke-linecap="round" stroke-linejoin="round" fill="#FF0000"/>
        <path d="M 25.2671,1.0738 L 24.7865,1.0738 L 24.7865,1.5564 L 25.2671,1.5564 L 25.2671,1.0738 Z" stroke="#000000" stroke-width="0.1197" stroke-linecap="round" stroke-linejoin="round" fill="#00FF00"/>
        <path d="M 23.5250,1.0738 L 23.0444,1.0738 L 23.0444,1.5564 L 23.5250,1.5564 L 23.5250,1.0738 Z" stroke="#000000" stroke-width="0.1197" stroke-linecap="round" stroke-linejoin="round" fill="#00FF00"/>
        <text font-family="Arial" fill="#FF0000" style="white-space:pre;" font-weight="400" text-anchor="start" x="29.3281" y="2.1484" font-size="0.1081"><![CDATA[3]]></text>
        <path d="M 27.5836,1.5041 L 27.9604,1.5041 L 27.7720,1.0698 L 27.5836,1.5041 Z" stroke="#FF0000" stroke-width="0.1197" stroke-linecap="round" stroke-linejoin="round" fill="#FF0000"/>
        <text font-family="Arial" fill="#FF0000" style="white-space:pre;" font-weight="400" text-anchor="start" x="31.9323" y="1.7849" font-size="0.0706"><![CDATA[4]]></text>
        <path d="M 28.2587,1.0698 L 28.6355,1.0698 L 28.4471,1.5041 L 28.2587,1.0698 Z" stroke="#FF0000" stroke-width="0.1197" stroke-linecap="round" stroke-linejoin="round" fill="#FF0000"/>
        <path d="M 29.1840,1.0738 L 28.7034,1.0738 L 28.7034,1.5564 L 29.1840,1.5564 L 29.1840,1.0738 Z" stroke="#000000" stroke-width="0.1197" stroke-linecap="round" stroke-linejoin="round" fill="#00FF00"/>
        <path d="M 27.4538,1.0738 L 26.9732,1.0738 L 26.9732,1.5564 L 27.4538,1.5564 L 27.4538,1.0738 Z" stroke="#000000" stroke-width="0.1197" stroke-linecap="round" stroke-linejoin="round" fill="#00FF00"/>
        <text font-family="Arial" fill="#FF0000" style="white-space:pre;" font-weight="400" text-anchor="start" x="34.0980" y="2.1484" font-size="0.1081"><![CDATA[5]]></text>
        <path d="M 31.5084,1.5041 L 31.8852,1.5041 L 31.6968,1.0698 L 31.5084,1.5041 Z" stroke="#FF0000" stroke-width="0.1197" stroke-linecap="round" stroke-linejoin="round" fill="#FF0000"/>
        <text font-family="Arial" fill="#FF0000" style="white-space:pre;" font-weight="400" text-anchor="start" x="36.4066" y="1.7849" font-size="0.0706"><![CDATA[6]]></text>
        <path d="M 32.1835,1.0698 L 32.5603,1.0698 L 32.3719,1.5041 L 32.1835,1.0698 Z" stroke="#FF0000" stroke-width="0.1197" stroke-linecap="round" stroke-linejoin="round" fill="#FF0000"/>
        <path d="M 33.1128,1.0738 L 32.6322,1.0738 L 32.6322,1.5564 L 33.1128,1.5564 L 33.1128,1.0738 Z" stroke="#000000" stroke-width="0.1197" stroke-linecap="round" stroke-linejoin="round" fill="#00FF00"/>
        <path d="M 31.3706,1.0738 L 30.8901,1.0738 L 30.8901,1.5564 L 31.3706,1.5564 L 31.3706,1.0738 Z" stroke="#000000" stroke-width="0.1197" stroke-linecap="round" stroke-linejoin="round" fill="#00FF00"/>
        <text font-family="Arial" fill="#FF0000" style="white-space:pre;" font-weight="400" text-anchor="start" x="38.8559" y="2.1484" font-size="0.1081"><![CDATA[7]]></text>
        <path d="M 35.4332,1.5041 L 35.8100,1.5041 L 35.6216,1.0698 L 35.4332,1.5041 Z" stroke="#FF0000" stroke-width="0.1197" stroke-linecap="round" stroke-linejoin="round" fill="#FF0000"/>
        <text font-family="Arial" fill="#FF0000" style="white-space:pre;" font-weight="400" text-anchor="start" x="40.8809" y="1.7849" font-size="0.0706"><![CDATA[8]]></text>
        <path d="M 36.1083,1.0698 L 36.4851,1.0698 L 36.2967,1.5041 L 36.1083,1.0698 Z" stroke="#FF0000" stroke-width="0.1197" stroke-linecap="round" stroke-linejoin="round" fill="#FF0000"/>
        <path d="M 37.0416,1.0738 L 36.5610,1.0738 L 36.5610,1.5564 L 37.0416,1.5564 L 37.0416,1.0738 Z" stroke="#000000" stroke-width="0.1197" stroke-linecap="round" stroke-linejoin="round" fill="#00FF00"/>
        <path d="M 35.2995,1.0738 L 34.8189,1.0738 L 34.8189,1.5564 L 35.2995,1.5564 L 35.2995,1.0738 Z" stroke="#000000" stroke-width="0.1197" stroke-linecap="round" stroke-linejoin="round" fill="#00FF00"/>
        <text font-family="Arial" fill="#FF0000" style="white-space:pre;" font-weight="400" text-anchor="start" x="43.6257" y="2.1484" font-size="0.1081"><![CDATA[9]]></text>
        <path d="M 39.3581,1.5041 L 39.7348,1.5041 L 39.5465,1.0698 L 39.3581,1.5041 Z" stroke="#FF0000" stroke-width="0.1197" stroke-linecap="round" stroke-linejoin="round" fill="#FF0000"/>
        <text font-family="Arial" fill="#FF0000" style="white-space:pre;" font-weight="400" text-anchor="start" x="45.3395" y="1.7849" font-size="0.0706"><![CDATA[10]]></text>
        <path d="M 40.0331,1.0698 L 40.4099,1.0698 L 40.2215,1.5041 L 40.0331,1.0698 Z" stroke="#FF0000" stroke-width="0.1197" stroke-linecap="round" stroke-linejoin="round" fill="#FF0000"/>
        <path d="M 40.9585,1.0738 L 40.4779,1.0738 L 40.4779,1.5564 L 40.9585,1.5564 L 40.9585,1.0738 Z" stroke="#000000" stroke-width="0.1197" stroke-linecap="round" stroke-linejoin="round" fill="#00FF00"/>
        <path d="M 39.2283,1.0738 L 38.7477,1.0738 L 38.7477,1.5564 L 39.2283,1.5564 L 39.2283,1.0738 Z" stroke="#000000" stroke-width="0.1197" stroke-linecap="round" stroke-linejoin="round" fill="#00FF00"/>
        <text font-family="Arial" fill="#FF0000" style="white-space:pre;" font-weight="400" text-anchor="start" x="48.3716" y="2.1484" font-size="0.1081"><![CDATA[11]]></text>
        <path d="M 43.2829,1.5041 L 43.6597,1.5041 L 43.4713,1.0698 L 43.2829,1.5041 Z" stroke="#FF0000" stroke-width="0.1197" stroke-linecap="round" stroke-linejoin="round" fill="#FF0000"/>
        <text font-family="Arial" fill="#FF0000" style="white-space:pre;" font-weight="400" text-anchor="start" x="49.8138" y="1.7849" font-size="0.0706"><![CDATA[12]]></text>
        <path d="M 43.9580,1.0698 L 44.3347,1.0698 L 44.1463,1.5041 L 43.9580,1.0698 Z" stroke="#FF0000" stroke-width="0.1197" stroke-linecap="round" stroke-linejoin="round" fill="#FF0000"/>
        <path d="M 44.8873,1.0738 L 44.4067,1.0738 L 44.4067,1.5564 L 44.8873,1.5564 L 44.8873,1.0738 Z" stroke="#000000" stroke-width="0.1197" stroke-linecap="round" stroke-linejoin="round" fill="#00FF00"/>
        <path d="M 43.1452,1.0738 L 42.6646,1.0738 L 42.6646,1.5564 L 43.1452,1.5564 L 43.1452,1.0738 Z" stroke="#000000" stroke-width="0.1197" stroke-linecap="round" stroke-linejoin="round" fill="#00FF00"/>
        <text font-family="Arial" fill="#FF0000" style="white-space:pre;" font-weight="400" text-anchor="start" x="53.1295" y="2.1484" font-size="0.1081"><![CDATA[13]]></text>
        <path d="M 47.2077,1.5041 L 47.5845,1.5041 L 47.3961,1.0698 L 47.2077,1.5041 Z" stroke="#FF0000" stroke-width="0.1197" stroke-linecap="round" stroke-linejoin="round" fill="#FF0000"/>
        <text font-family="Arial" fill="#FF0000" style="white-space:pre;" font-weight="400" text-anchor="start" x="54.2881" y="1.7849" font-size="0.0706"><![CDATA[14]]></text>
        <path d="M 47.8828,1.0698 L 48.2596,1.0698 L 48.0712,1.5041 L 47.8828,1.0698 Z" stroke="#FF0000" stroke-width="0.1197" stroke-linecap="round" stroke-linejoin="round" fill="#FF0000"/>
        <path d="M 48.8161,1.0738 L 48.3356,1.0738 L 48.3356,1.5564 L 48.8161,1.5564 L 48.8161,1.0738 Z" stroke="#000000" stroke-width="0.1197" stroke-linecap="round" stroke-linejoin="round" fill="#00FF00"/>
        <path d="M 47.0740,1.0738 L 46.5934,1.0738 L 46.5934,1.5564 L 47.0740,1.5564 L 47.0740,1.0738 Z" stroke="#000000" stroke-width="0.1197" stroke-linecap="round" stroke-linejoin="round" fill="#00FF00"/>
        <text font-family="Arial" fill="#FF0000" style="white-space:pre;" font-weight="400" text-anchor="start" x="57.8993" y="2.1484" font-size="0.1081"><![CDATA[15]]></text>
        <path d="M 51.1325,1.5041 L 51.5093,1.5041 L 51.3209,1.0698 L 51.1325,1.5041 Z" stroke="#FF0000" stroke-width="0.1197" stroke-linecap="round" stroke-linejoin="round" fill="#FF0000"/>
        <text font-family="Arial" fill="#FF0000" style="white-space:pre;" font-weight="400" text-anchor="start" x="58.7624" y="1.7849" font-size="0.0706"><![CDATA[16]]></text>
        <path d="M 51.8076,1.0698 L 52.1844,1.0698 L 51.9960,1.5041 L 51.8076,1.0698 Z" stroke="#FF0000" stroke-width="0.1197" stroke-linecap="round" stroke-linejoin="round" fill="#FF0000"/>
        <path d="M 52.7330,1.0738 L 52.2524,1.0738 L 52.2524,1.5564 L 52.7330,1.5564 L 52.7330,1.0738 Z" stroke="#000000" stroke-width="0.1197" stroke-linecap="round" stroke-linejoin="round" fill="#00FF00"/>
        <path d="M 51.0028,1.0738 L 50.5222,1.0738 L 50.5222,1.5564 L 51.0028,1.5564 L 51.0028,1.0738 Z" stroke="#000000" stroke-width="0.1197" stroke-linecap="round" stroke-linejoin="round" fill="#00FF00"/>
        <text font-family="Arial" fill="#FF0000" style="white-space:pre;" font-weight="400" text-anchor="start" x="62.7653" y="2.1484" font-size="0.1081"><![CDATA[17]]></text>
        <path d="M 55.5048,1.5041 L 55.8815,1.5041 L 55.6932,1.0698 L 55.5048,1.5041 Z" stroke="#FF0000" stroke-width="0.1197" stroke-linecap="round" stroke-linejoin="round" fill="#FF0000"/>
        <text font-family="Arial" fill="#FF0000" style="white-space:pre;" font-weight="400" text-anchor="start" x="63.7469" y="1.7849" font-size="0.0706"><![CDATA[18]]></text>
        <path d="M 56.1798,1.0698 L 56.5566,1.0698 L 56.3682,1.5041 L 56.1798,1.0698 Z" stroke="#FF0000" stroke-width="0.1197" stroke-linecap="round" stroke-linejoin="round" fill="#FF0000"/>
        <path d="M 57.1064,1.0738 L 56.6258,1.0738 L 56.6258,1.5564 L 57.1064,1.5564 L 57.1064,1.0738 Z" stroke="#000000" stroke-width="0.1197" stroke-linecap="round" stroke-linejoin="round" fill="#00FF00"/>
        <path d="M 55.3762,1.0738 L 54.8956,1.0738 L 54.8956,1.5564 L 55.3762,1.5564 L 55.3762,1.0738 Z" stroke="#000000" stroke-width="0.1197" stroke-linecap="round" stroke-linejoin="round" fill="#00FF00"/>
        <text font-family="Arial" fill="#FF0000" style="white-space:pre;" font-weight="400" text-anchor="start" x="67.9798" y="2.1484" font-size="0.1081"><![CDATA[19]]></text>
        <path d="M 59.4296,1.5041 L 59.8064,1.5041 L 59.6180,1.0698 L 59.4296,1.5041 Z" stroke="#FF0000" stroke-width="0.1197" stroke-linecap="round" stroke-linejoin="round" fill="#FF0000"/>
        <text font-family="Arial" fill="#FF0000" style="white-space:pre;" font-weight="400" text-anchor="start" x="68.2212" y="1.7849" font-size="0.0706"><![CDATA[20]]></text>
        <path d="M 60.1046,1.0698 L 60.4814,1.0698 L 60.2930,1.5041 L 60.1046,1.0698 Z" stroke="#FF0000" stroke-width="0.1197" stroke-linecap="round" stroke-linejoin="round" fill="#FF0000"/>
        <path d="M 61.0352,1.0738 L 60.5546,1.0738 L 60.5546,1.5564 L 61.0352,1.5564 L 61.0352,1.0738 Z" stroke="#000000" stroke-width="0.1197" stroke-linecap="round" stroke-linejoin="round" fill="#00FF00"/>
        <path d="M 59.2931,1.0738 L 58.8125,1.0738 L 58.8125,1.5564 L 59.2931,1.5564 L 59.2931,1.0738 Z" stroke="#000000" stroke-width="0.1197" stroke-linecap="round" stroke-linejoin="round" fill="#00FF00"/>
        <text font-family="Arial" fill="#FF0000" style="white-space:pre;" font-weight="400" text-anchor="start" x="72.7376" y="2.1484" font-size="0.1081"><![CDATA[21]]></text>
        <path d="M 63.3544,1.5041 L 63.7312,1.5041 L 63.5428,1.0698 L 63.3544,1.5041 Z" stroke="#FF0000" stroke-width="0.1197" stroke-linecap="round" stroke-linejoin="round" fill="#FF0000"/>
        <text font-family="Arial" fill="#FF0000" style="white-space:pre;" font-weight="400" text-anchor="start" x="72.6955" y="1.7849" font-size="0.0706"><![CDATA[22]]></text>
        <path d="M 64.0295,1.0698 L 64.4062,1.0698 L 64.2179,1.5041 L 64.0295,1.0698 Z" stroke="#FF0000" stroke-width="0.1197" stroke-linecap="round" stroke-linejoin="round" fill="#FF0000"/>
        <path d="M 64.9640,1.0738 L 64.4834,1.0738 L 64.4834,1.5564 L 64.9640,1.5564 L 64.9640,1.0738 Z" stroke="#000000" stroke-width="0.1197" stroke-linecap="round" stroke-linejoin="round" fill="#00FF00"/>
        <path d="M 63.2219,1.0738 L 62.7413,1.0738 L 62.7413,1.5564 L 63.2219,1.5564 L 63.2219,1.0738 Z" stroke="#000000" stroke-width="0.1197" stroke-linecap="round" stroke-linejoin="round" fill="#00FF00"/>
        <text font-family="Arial" fill="#FF0000" style="white-space:pre;" font-weight="400" text-anchor="start" x="77.5075" y="2.1484" font-size="0.1081"><![CDATA[23]]></text>
        <path d="M 67.2792,1.5041 L 67.6560,1.5041 L 67.4676,1.0698 L 67.2792,1.5041 Z" stroke="#FF0000" stroke-width="0.1197" stroke-linecap="round" stroke-linejoin="round" fill="#FF0000"/>
        <text font-family="Arial" fill="#FF0000" style="white-space:pre;" font-weight="400" text-anchor="start" x="77.1698" y="1.7849" font-size="0.0706"><![CDATA[24]]></text>
        <path d="M 67.9543,1.0698 L 68.3311,1.0698 L 68.1427,1.5041 L 67.9543,1.0698 Z" stroke="#FF0000" stroke-width="0.1197" stroke-linecap="round" stroke-linejoin="round" fill="#FF0000"/>
        <path d="M 68.8809,1.0738 L 68.4003,1.0738 L 68.4003,1.5564 L 68.8809,1.5564 L 68.8809,1.0738 Z" stroke="#000000" stroke-width="0.1197" stroke-linecap="round" stroke-linejoin="round" fill="#00FF00"/>
        <path d="M 67.1507,1.0738 L 66.6701,1.0738 L 66.6701,1.5564 L 67.1507,1.5564 L 67.1507,1.0738 Z" stroke="#000000" stroke-width="0.1197" stroke-linecap="round" stroke-linejoin="round" fill="#00FF00"/>
        <text font-family="Arial" fill="#000000" style="white-space:pre;" font-weight="400" text-anchor="start" x="82.2774" y="2.1484" font-size="0.1081"><![CDATA[25]]></text>
        <text font-family="Arial" fill="#000000" style="white-space:pre;" font-weight="400" text-anchor="start" x="82.6498" y="2.1484" font-size="0.1081"><![CDATA[26]]></text>
        <text font-family="Arial" fill="#000000" style="white-space:pre;" font-weight="400" text-anchor="start" x="83.1184" y="2.1484" font-size="0.1081"><![CDATA[27]]></text>
        <text font-family="Arial" fill="#000000" style="white-space:pre;" font-weight="400" text-anchor="start" x="83.4909" y="2.1484" font-size="0.1081"><![CDATA[28]]></text>
        <text font-family="Arial" fill="#000000" style="white-space:pre;" font-weight="400" text-anchor="start" x="83.9594" y="2.1484" font-size="0.1081"><![CDATA[29]]></text>
        <text font-family="Arial" fill="#000000" style="white-space:pre;" font-weight="400" text-anchor="start" x="84.3319" y="2.1484" font-size="0.1081"><![CDATA[30]]></text>
        <text font-family="Arial" fill="#000000" style="white-space:pre;" font-weight="400" text-anchor="start" x="84.8005" y="2.1484" font-size="0.1081"><![CDATA[31]]></text>
        <text font-family="Arial" fill="#000000" style="white-space:pre;" font-weight="400" text-anchor="start" x="85.1729" y="2.1484" font-size="0.1081"><![CDATA[32]]></text>
        <text font-family="Arial" fill="#000000" style="white-space:pre;" font-weight="400" text-anchor="start" x="85.7376" y="2.1484" font-size="0.1081"><![CDATA[33]]></text>
        <text font-family="Arial" fill="#000000" style="white-space:pre;" font-weight="400" text-anchor="start" x="86.1101" y="2.1484" font-size="0.1081"><![CDATA[34]]></text>
        <text font-family="Arial" fill="#000000" style="white-space:pre;" font-weight="400" text-anchor="start" x="86.5787" y="2.1484" font-size="0.1081"><![CDATA[35]]></text>
        <text font-family="Arial" fill="#000000" style="white-space:pre;" font-weight="400" text-anchor="start" x="86.9511" y="2.1484" font-size="0.1081"><![CDATA[36]]></text>
        <text font-family="Arial" fill="#000000" style="white-space:pre;" font-weight="400" text-anchor="start" x="87.4197" y="2.1484" font-size="0.1081"><![CDATA[37]]></text>
        <text font-family="Arial" fill="#000000" style="white-space:pre;" font-weight="400" text-anchor="start" x="87.7922" y="2.1484" font-size="0.1081"><![CDATA[38]]></text>
        <text font-family="Arial" fill="#000000" style="white-space:pre;" font-weight="400" text-anchor="start" x="88.2607" y="2.1484" font-size="0.1081"><![CDATA[39]]></text>
        <text font-family="Arial" fill="#000000" style="white-space:pre;" font-weight="400" text-anchor="start" x="88.6332" y="2.1484" font-size="0.1081"><![CDATA[40]]></text>
        <text font-family="Arial" fill="#000000" style="white-space:pre;" font-weight="400" text-anchor="start" x="89.1018" y="2.1484" font-size="0.1081"><![CDATA[41]]></text>
        <text font-family="Arial" fill="#000000" style="white-space:pre;" font-weight="400" text-anchor="start" x="89.4742" y="2.1484" font-size="0.1081"><![CDATA[42]]></text>
        <text font-family="Arial" fill="#000000" style="white-space:pre;" font-weight="400" text-anchor="start" x="89.9428" y="2.1484" font-size="0.1081"><![CDATA[43]]></text>
        <text font-family="Arial" fill="#000000" style="white-space:pre;" font-weight="400" text-anchor="start" x="90.3153" y="2.1484" font-size="0.1081"><![CDATA[44]]></text>
        <text font-family="Arial" fill="#000000" style="white-space:pre;" font-weight="400" text-anchor="start" x="90.7838" y="2.1484" font-size="0.1081"><![CDATA[45]]></text>
        <text font-family="Arial" fill="#000000" style="white-space:pre;" font-weight="400" text-anchor="start" x="91.1563" y="2.1484" font-size="0.1081"><![CDATA[46]]></text>
        <text font-family="Arial" fill="#000000" style="white-space:pre;" font-weight="400" text-anchor="start" x="91.6249" y="2.1484" font-size="0.1081"><![CDATA[47]]></text>
        <text font-family="Arial" fill="#000000" style="white-space:pre;" font-weight="400" text-anchor="start" x="91.9973" y="2.1484" font-size="0.1081"><![CDATA[48]]></text>
        <path d="M 114.8323,1.5041 L 115.2091,1.5041 L 115.0207,1.0698 L 114.8323,1.5041 Z" stroke="#000000" stroke-width="0.1197" stroke-linecap="round" stroke-linejoin="round" fill="#000000"/>
        <path d="M 115.4995,1.0698 L 115.8763,1.0698 L 115.6879,1.5041 L 115.4995,1.0698 Z" stroke="#000000" stroke-width="0.1197" stroke-linecap="round" stroke-linejoin="round" fill="#000000"/>
        <path d="M 116.4355,1.0738 L 115.9549,1.0738 L 115.9549,1.5564 L 116.4355,1.5564 L 116.4355,1.0738 Z" stroke="#000000" stroke-width="0.1197" stroke-linecap="round" stroke-linejoin="round" fill="#00FF00"/>
        <path d="M 114.6933,1.0738 L 114.2127,1.0738 L 114.2127,1.5564 L 114.6933,1.5564 L 114.6933,1.0738 Z" stroke="#000000" stroke-width="0.1197" stroke-linecap="round" stroke-linejoin="round" fill="#00FF00"/>
        <path d="M 110.9075,1.5041 L 111.2843,1.5041 L 111.0959,1.0698 L 110.9075,1.5041 Z" stroke="#000000" stroke-width="0.1197" stroke-linecap="round" stroke-linejoin="round" fill="#000000"/>
        <path d="M 111.5747,1.0698 L 111.9515,1.0698 L 111.7631,1.5041 L 111.5747,1.0698 Z" stroke="#000000" stroke-width="0.1197" stroke-linecap="round" stroke-linejoin="round" fill="#000000"/>
        <path d="M 112.5066,1.0738 L 112.0260,1.0738 L 112.0260,1.5564 L 112.5066,1.5564 L 112.5066,1.0738 Z" stroke="#000000" stroke-width="0.1197" stroke-linecap="round" stroke-linejoin="round" fill="#00FF00"/>
        <path d="M 110.7645,1.0738 L 110.2839,1.0738 L 110.2839,1.5564 L 110.7645,1.5564 L 110.7645,1.0738 Z" stroke="#000000" stroke-width="0.1197" stroke-linecap="round" stroke-linejoin="round" fill="#00FF00"/>
        <path d="M 106.9827,1.5041 L 107.3594,1.5041 L 107.1711,1.0698 L 106.9827,1.5041 Z" stroke="#000000" stroke-width="0.1197" stroke-linecap="round" stroke-linejoin="round" fill="#000000"/>
        <path d="M 107.6499,1.0698 L 108.0267,1.0698 L 107.8383,1.5041 L 107.6499,1.0698 Z" stroke="#000000" stroke-width="0.1197" stroke-linecap="round" stroke-linejoin="round" fill="#000000"/>
        <path d="M 108.5778,1.0738 L 108.0972,1.0738 L 108.0972,1.5564 L 108.5778,1.5564 L 108.5778,1.0738 Z" stroke="#000000" stroke-width="0.1197" stroke-linecap="round" stroke-linejoin="round" fill="#00FF00"/>
        <path d="M 106.8476,1.0738 L 106.3670,1.0738 L 106.3670,1.5564 L 106.8476,1.5564 L 106.8476,1.0738 Z" stroke="#000000" stroke-width="0.1197" stroke-linecap="round" stroke-linejoin="round" fill="#00FF00"/>
        <path d="M 103.0578,1.5041 L 103.4346,1.5041 L 103.2462,1.0698 L 103.0578,1.5041 Z" stroke="#000000" stroke-width="0.1197" stroke-linecap="round" stroke-linejoin="round" fill="#000000"/>
        <path d="M 103.7251,1.0698 L 104.1018,1.0698 L 103.9135,1.5041 L 103.7251,1.0698 Z" stroke="#000000" stroke-width="0.1197" stroke-linecap="round" stroke-linejoin="round" fill="#000000"/>
        <path d="M 104.6609,1.0738 L 104.1804,1.0738 L 104.1804,1.5564 L 104.6609,1.5564 L 104.6609,1.0738 Z" stroke="#000000" stroke-width="0.1197" stroke-linecap="round" stroke-linejoin="round" fill="#00FF00"/>
        <path d="M 102.9188,1.0738 L 102.4382,1.0738 L 102.4382,1.5564 L 102.9188,1.5564 L 102.9188,1.0738 Z" stroke="#000000" stroke-width="0.1197" stroke-linecap="round" stroke-linejoin="round" fill="#00FF00"/>
        <path d="M 99.1330,1.5041 L 99.5098,1.5041 L 99.3214,1.0698 L 99.1330,1.5041 Z" stroke="#000000" stroke-width="0.1197" stroke-linecap="round" stroke-linejoin="round" fill="#000000"/>
        <path d="M 99.8002,1.0698 L 100.1770,1.0698 L 99.9886,1.5041 L 99.8002,1.0698 Z" stroke="#000000" stroke-width="0.1197" stroke-linecap="round" stroke-linejoin="round" fill="#000000"/>
        <path d="M 100.7321,1.0738 L 100.2515,1.0738 L 100.2515,1.5564 L 100.7321,1.5564 L 100.7321,1.0738 Z" stroke="#000000" stroke-width="0.1197" stroke-linecap="round" stroke-linejoin="round" fill="#00FF00"/>
        <path d="M 98.9900,1.0738 L 98.5094,1.0738 L 98.5094,1.5564 L 98.9900,1.5564 L 98.9900,1.0738 Z" stroke="#000000" stroke-width="0.1197" stroke-linecap="round" stroke-linejoin="round" fill="#00FF00"/>
        <path d="M 95.2082,1.5041 L 95.5850,1.5041 L 95.3966,1.0698 L 95.2082,1.5041 Z" stroke="#000000" stroke-width="0.1197" stroke-linecap="round" stroke-linejoin="round" fill="#000000"/>
        <path d="M 95.8754,1.0698 L 96.2522,1.0698 L 96.0638,1.5041 L 95.8754,1.0698 Z" stroke="#000000" stroke-width="0.1197" stroke-linecap="round" stroke-linejoin="round" fill="#000000"/>
        <path d="M 96.8033,1.0738 L 96.3227,1.0738 L 96.3227,1.5564 L 96.8033,1.5564 L 96.8033,1.0738 Z" stroke="#000000" stroke-width="0.1197" stroke-linecap="round" stroke-linejoin="round" fill="#00FF00"/>
        <path d="M 95.0731,1.0738 L 94.5925,1.0738 L 94.5925,1.5564 L 95.0731,1.5564 L 95.0731,1.0738 Z" stroke="#000000" stroke-width="0.1197" stroke-linecap="round" stroke-linejoin="round" fill="#00FF00"/>
        <path d="M 91.2834,1.5041 L 91.6602,1.5041 L 91.4718,1.0698 L 91.2834,1.5041 Z" stroke="#000000" stroke-width="0.1197" stroke-linecap="round" stroke-linejoin="round" fill="#000000"/>
        <path d="M 91.9506,1.0698 L 92.3274,1.0698 L 92.1390,1.5041 L 91.9506,1.0698 Z" stroke="#000000" stroke-width="0.1197" stroke-linecap="round" stroke-linejoin="round" fill="#000000"/>
        <path d="M 92.8864,1.0738 L 92.4058,1.0738 L 92.4058,1.5564 L 92.8864,1.5564 L 92.8864,1.0738 Z" stroke="#000000" stroke-width="0.1197" stroke-linecap="round" stroke-linejoin="round" fill="#00FF00"/>
        <path d="M 91.1443,1.0738 L 90.6637,1.0738 L 90.6637,1.5564 L 91.1443,1.5564 L 91.1443,1.0738 Z" stroke="#000000" stroke-width="0.1197" stroke-linecap="round" stroke-linejoin="round" fill="#00FF00"/>
        <path d="M 87.3586,1.5041 L 87.7354,1.5041 L 87.5470,1.0698 L 87.3586,1.5041 Z" stroke="#000000" stroke-width="0.1197" stroke-linecap="round" stroke-linejoin="round" fill="#000000"/>
        <path d="M 88.0258,1.0698 L 88.4026,1.0698 L 88.2142,1.5041 L 88.0258,1.0698 Z" stroke="#000000" stroke-width="0.1197" stroke-linecap="round" stroke-linejoin="round" fill="#000000"/>
        <path d="M 88.9576,1.0738 L 88.4770,1.0738 L 88.4770,1.5564 L 88.9576,1.5564 L 88.9576,1.0738 Z" stroke="#000000" stroke-width="0.1197" stroke-linecap="round" stroke-linejoin="round" fill="#00FF00"/>
        <path d="M 87.2155,1.0738 L 86.7349,1.0738 L 86.7349,1.5564 L 87.2155,1.5564 L 87.2155,1.0738 Z" stroke="#000000" stroke-width="0.1197" stroke-linecap="round" stroke-linejoin="round" fill="#00FF00"/>
        <path d="M 82.9785,1.5041 L 83.3553,1.5041 L 83.1669,1.0698 L 82.9785,1.5041 Z" stroke="#000000" stroke-width="0.1197" stroke-linecap="round" stroke-linejoin="round" fill="#000000"/>
        <path d="M 83.6536,1.0698 L 84.0303,1.0698 L 83.8419,1.5041 L 83.6536,1.0698 Z" stroke="#000000" stroke-width="0.1197" stroke-linecap="round" stroke-linejoin="round" fill="#000000"/>
        <path d="M 84.5842,1.0738 L 84.1036,1.0738 L 84.1036,1.5564 L 84.5842,1.5564 L 84.5842,1.0738 Z" stroke="#000000" stroke-width="0.1197" stroke-linecap="round" stroke-linejoin="round" fill="#00FF00"/>
        <path d="M 82.8421,1.0738 L 82.3615,1.0738 L 82.3615,1.5564 L 82.8421,1.5564 L 82.8421,1.0738 Z" stroke="#000000" stroke-width="0.1197" stroke-linecap="round" stroke-linejoin="round" fill="#00FF00"/>
        <path d="M 71.2040,1.5041 L 71.5808,1.5041 L 71.3924,1.0698 L 71.2040,1.5041 Z" stroke="#000000" stroke-width="0.1197" stroke-linecap="round" stroke-linejoin="round" fill="#000000"/>
        <path d="M 71.8791,1.0698 L 72.2559,1.0698 L 72.0675,1.5041 L 71.8791,1.0698 Z" stroke="#000000" stroke-width="0.1197" stroke-linecap="round" stroke-linejoin="round" fill="#000000"/>
        <path d="M 72.8097,1.0738 L 72.3291,1.0738 L 72.3291,1.5564 L 72.8097,1.5564 L 72.8097,1.0738 Z" stroke="#000000" stroke-width="0.1197" stroke-linecap="round" stroke-linejoin="round" fill="#00FF00"/>
        <path d="M 71.0676,1.0738 L 70.5870,1.0738 L 70.5870,1.5564 L 71.0676,1.5564 L 71.0676,1.0738 Z" stroke="#000000" stroke-width="0.1197" stroke-linecap="round" stroke-linejoin="round" fill="#00FF00"/>
        <path d="M 75.1288,1.5041 L 75.5056,1.5041 L 75.3172,1.0698 L 75.1288,1.5041 Z" stroke="#000000" stroke-width="0.1197" stroke-linecap="round" stroke-linejoin="round" fill="#000000"/>
        <path d="M 75.8039,1.0698 L 76.1807,1.0698 L 75.9923,1.5041 L 75.8039,1.0698 Z" stroke="#000000" stroke-width="0.1197" stroke-linecap="round" stroke-linejoin="round" fill="#000000"/>
        <path d="M 76.7385,1.0738 L 76.2580,1.0738 L 76.2580,1.5564 L 76.7385,1.5564 L 76.7385,1.0738 Z" stroke="#000000" stroke-width="0.1197" stroke-linecap="round" stroke-linejoin="round" fill="#00FF00"/>
        <path d="M 74.9964,1.0738 L 74.5158,1.0738 L 74.5158,1.5564 L 74.9964,1.5564 L 74.9964,1.0738 Z" stroke="#000000" stroke-width="0.1197" stroke-linecap="round" stroke-linejoin="round" fill="#00FF00"/>
        <path d="M 79.0537,1.5041 L 79.4304,1.5041 L 79.2421,1.0698 L 79.0537,1.5041 Z" stroke="#000000" stroke-width="0.1197" stroke-linecap="round" stroke-linejoin="round" fill="#000000"/>
        <path d="M 79.7287,1.0698 L 80.1055,1.0698 L 79.9171,1.5041 L 79.7287,1.0698 Z" stroke="#000000" stroke-width="0.1197" stroke-linecap="round" stroke-linejoin="round" fill="#000000"/>
        <path d="M 80.6554,1.0738 L 80.1748,1.0738 L 80.1748,1.5564 L 80.6554,1.5564 L 80.6554,1.0738 Z" stroke="#000000" stroke-width="0.1197" stroke-linecap="round" stroke-linejoin="round" fill="#00FF00"/>
        <path d="M 78.9252,1.0738 L 78.4446,1.0738 L 78.4446,1.5564 L 78.9252,1.5564 L 78.9252,1.0738 Z" stroke="#000000" stroke-width="0.1197" stroke-linecap="round" stroke-linejoin="round" fill="#00FF00"/>
        <text font-family="Arial" fill="#000000" style="white-space:pre;" font-weight="400" text-anchor="start" x="104.5408" y="2.1484" font-size="0.1081"><![CDATA[49]]></text>
        <text font-family="Arial" fill="#000000" style="white-space:pre;" font-weight="400" text-anchor="start" x="104.9133" y="2.1484" font-size="0.1081"><![CDATA[50]]></text>
        <path d="M 120.1543,1.5041 L 120.5311,1.5041 L 120.3427,1.0698 L 120.1543,1.5041 Z" stroke="#000000" stroke-width="0.1197" stroke-linecap="round" stroke-linejoin="round" fill="#000000"/>
        <path d="M 120.8294,1.0698 L 121.2062,1.0698 L 121.0178,1.5041 L 120.8294,1.0698 Z" stroke="#000000" stroke-width="0.1197" stroke-linecap="round" stroke-linejoin="round" fill="#000000"/>
        <path d="M 121.7580,1.0738 L 121.2774,1.0738 L 121.2774,1.5564 L 121.7580,1.5564 L 121.7580,1.0738 Z" stroke="#000000" stroke-width="0.1197" stroke-linecap="round" stroke-linejoin="round" fill="#00FF00"/>
        <path d="M 120.0159,1.0738 L 119.5353,1.0738 L 119.5353,1.5564 L 120.0159,1.5564 L 120.0159,1.0738 Z" stroke="#000000" stroke-width="0.1197" stroke-linecap="round" stroke-linejoin="round" fill="#00FF00"/>
        <text font-family="Arial" fill="#000000" style="white-space:pre;" font-weight="400" text-anchor="start" x="146.9170" y="3.2921" font-size="0.1322"><![CDATA[MGMT]]></text>
        <text font-family="Arial" fill="#FF0000" style="white-space:pre;" font-weight="400" text-anchor="start" x="129.7959" y="1.8734" font-size="0.0841"><![CDATA[PoE]]></text>
        <path d="M 16.8706,10.0534 L 16.8706,7.9289 L 17.7608,7.9289 L 17.7608,7.4290 L 18.1224,7.4290 L 18.1224,6.9291 L 19.1794,6.9291 L 19.1794,7.4290 L 19.5410,7.4290 L 19.5410,7.9289 L 20.4311,7.9289 L 20.4311,10.0534 L 16.8706,10.0534 Z" stroke="#161616" stroke-width="0.1197" stroke-linecap="round" stroke-linejoin="round" fill="#000000"/>
        <path d="M 22.3644,5.9432 L 22.3644,3.8186 L 23.2545,3.8186 L 23.2545,3.3187 L 23.6161,3.3187 L 23.6161,2.8188 L 24.6731,2.8188 L 24.6731,3.3187 L 25.0348,3.3187 L 25.0348,3.8186 L 25.9249,3.8186 L 25.9249,5.9432 L 22.3644,5.9432 Z" stroke="#161616" stroke-width="0.1197" stroke-linecap="round" stroke-linejoin="round" fill="#000000"/>
        <path d="M 22.3644,7.0957 L 22.3644,9.2203 L 23.2545,9.2203 L 23.2545,9.7201 L 23.6161,9.7201 L 23.6161,10.2200 L 24.6731,10.2200 L 24.6731,9.7201 L 25.0348,9.7201 L 25.0348,9.2203 L 25.9249,9.2203 L 25.9249,7.0957 L 22.3644,7.0957 Z" stroke="#161616" stroke-width="0.1197" stroke-linecap="round" stroke-linejoin="round" fill="#000000"/>
        <path d="M 26.3004,5.9432 L 26.3004,3.8186 L 27.1905,3.8186 L 27.1905,3.3187 L 27.5521,3.3187 L 27.5521,2.8188 L 28.6092,2.8188 L 28.6092,3.3187 L 28.9708,3.3187 L 28.9708,3.8186 L 29.8609,3.8186 L 29.8609,5.9432 L 26.3004,5.9432 Z" stroke="#161616" stroke-width="0.1197" stroke-linecap="round" stroke-linejoin="round" fill="#000000"/>
        <path d="M 26.3004,7.0957 L 26.3004,9.2203 L 27.1905,9.2203 L 27.1905,9.7201 L 27.5521,9.7201 L 27.5521,10.2200 L 28.6092,10.2200 L 28.6092,9.7201 L 28.9708,9.7201 L 28.9708,9.2203 L 29.8609,9.2203 L 29.8609,7.0957 L 26.3004,7.0957 Z" stroke="#161616" stroke-width="0.1197" stroke-linecap="round" stroke-linejoin="round" fill="#000000"/>
        <path d="M 30.2225,5.9432 L 30.2225,3.8186 L 31.1126,3.8186 L 31.1126,3.3187 L 31.4743,3.3187 L 31.4743,2.8188 L 32.5313,2.8188 L 32.5313,3.3187 L 32.8929,3.3187 L 32.8929,3.8186 L 33.7830,3.8186 L 33.7830,5.9432 L 30.2225,5.9432 Z" stroke="#161616" stroke-width="0.1197" stroke-linecap="round" stroke-linejoin="round" fill="#000000"/>
        <path d="M 30.2225,7.0957 L 30.2225,9.2203 L 31.1126,9.2203 L 31.1126,9.7201 L 31.4743,9.7201 L 31.4743,10.2200 L 32.5313,10.2200 L 32.5313,9.7201 L 32.8929,9.7201 L 32.8929,9.2203 L 33.7830,9.2203 L 33.7830,7.0957 L 30.2225,7.0957 Z" stroke="#161616" stroke-width="0.1197" stroke-linecap="round" stroke-linejoin="round" fill="#000000"/>
        <path d="M 34.1446,5.9432 L 34.1446,3.8186 L 35.0348,3.8186 L 35.0348,3.3187 L 35.3964,3.3187 L 35.3964,2.8188 L 36.4534,2.8188 L 36.4534,3.3187 L 36.8150,3.3187 L 36.8150,3.8186 L 37.7051,3.8186 L 37.7051,5.9432 L 34.1446,5.9432 Z" stroke="#161616" stroke-width="0.1197" stroke-linecap="round" stroke-linejoin="round" fill="#000000"/>
        <path d="M 34.1446,7.0957 L 34.1446,9.2203 L 35.0348,9.2203 L 35.0348,9.7201 L 35.3964,9.7201 L 35.3964,10.2200 L 36.4534,10.2200 L 36.4534,9.7201 L 36.8150,9.7201 L 36.8150,9.2203 L 37.7051,9.2203 L 37.7051,7.0957 L 34.1446,7.0957 Z" stroke="#161616" stroke-width="0.1197" stroke-linecap="round" stroke-linejoin="round" fill="#000000"/>
        <path d="M 38.0667,5.9432 L 38.0667,3.8186 L 38.9569,3.8186 L 38.9569,3.3187 L 39.3185,3.3187 L 39.3185,2.8188 L 40.3755,2.8188 L 40.3755,3.3187 L 40.7371,3.3187 L 40.7371,3.8186 L 41.6272,3.8186 L 41.6272,5.9432 L 38.0667,5.9432 Z" stroke="#161616" stroke-width="0.1197" stroke-linecap="round" stroke-linejoin="round" fill="#000000"/>
        <path d="M 38.0667,7.0957 L 38.0667,9.2203 L 38.9569,9.2203 L 38.9569,9.7201 L 39.3185,9.7201 L 39.3185,10.2200 L 40.3755,10.2200 L 40.3755,9.7201 L 40.7371,9.7201 L 40.7371,9.2203 L 41.6272,9.2203 L 41.6272,7.0957 L 38.0667,7.0957 Z" stroke="#161616" stroke-width="0.1197" stroke-linecap="round" stroke-linejoin="round" fill="#000000"/>
        <path d="M 41.9889,5.9432 L 41.9889,3.8186 L 42.8790,3.8186 L 42.8790,3.3187 L 43.2406,3.3187 L 43.2406,2.8188 L 44.2976,2.8188 L 44.2976,3.3187 L 44.6592,3.3187 L 44.6592,3.8186 L 45.5494,3.8186 L 45.5494,5.9432 L 41.9889,5.9432 Z" stroke="#161616" stroke-width="0.1197" stroke-linecap="round" stroke-linejoin="round" fill="#000000"/>
        <path d="M 41.9889,7.0957 L 41.9889,9.2203 L 42.8790,9.2203 L 42.8790,9.7201 L 43.2406,9.7201 L 43.2406,10.2200 L 44.2976,10.2200 L 44.2976,9.7201 L 44.6592,9.7201 L 44.6592,9.2203 L 45.5494,9.2203 L 45.5494,7.0957 L 41.9889,7.0957 Z" stroke="#161616" stroke-width="0.1197" stroke-linecap="round" stroke-linejoin="round" fill="#000000"/>
        <path d="M 45.9249,5.9432 L 45.9249,3.8186 L 46.8150,3.8186 L 46.8150,3.3187 L 47.1766,3.3187 L 47.1766,2.8188 L 48.2336,2.8188 L 48.2336,3.3187 L 48.5953,3.3187 L 48.5953,3.8186 L 49.4854,3.8186 L 49.4854,5.9432 L 45.9249,5.9432 Z" stroke="#161616" stroke-width="0.1197" stroke-linecap="round" stroke-linejoin="round" fill="#000000"/>
        <path d="M 45.9249,7.0957 L 45.9249,9.2203 L 46.8150,9.2203 L 46.8150,9.7201 L 47.1766,9.7201 L 47.1766,10.2200 L 48.2336,10.2200 L 48.2336,9.7201 L 48.5953,9.7201 L 48.5953,9.2203 L 49.4854,9.2203 L 49.4854,7.0957 L 45.9249,7.0957 Z" stroke="#161616" stroke-width="0.1197" stroke-linecap="round" stroke-linejoin="round" fill="#000000"/>
        <path d="M 49.8470,5.9432 L 49.8470,3.8186 L 50.7371,3.8186 L 50.7371,3.3187 L 51.0987,3.3187 L 51.0987,2.8188 L 52.1558,2.8188 L 52.1558,3.3187 L 52.5174,3.3187 L 52.5174,3.8186 L 53.4075,3.8186 L 53.4075,5.9432 L 49.8470,5.9432 Z" stroke="#161616" stroke-width="0.1197" stroke-linecap="round" stroke-linejoin="round" fill="#000000"/>
        <path d="M 49.8470,7.0957 L 49.8470,9.2203 L 50.7371,9.2203 L 50.7371,9.7201 L 51.0987,9.7201 L 51.0987,10.2200 L 52.1558,10.2200 L 52.1558,9.7201 L 52.5174,9.7201 L 52.5174,9.2203 L 53.4075,9.2203 L 53.4075,7.0957 L 49.8470,7.0957 Z" stroke="#161616" stroke-width="0.1197" stroke-linecap="round" stroke-linejoin="round" fill="#000000"/>
        <path d="M 54.2142,5.9432 L 54.2142,3.8186 L 55.1043,3.8186 L 55.1043,3.3187 L 55.4659,3.3187 L 55.4659,2.8188 L 56.5229,2.8188 L 56.5229,3.3187 L 56.8845,3.3187 L 56.8845,3.8186 L 57.7747,3.8186 L 57.7747,5.9432 L 54.2142,5.9432 Z" stroke="#161616" stroke-width="0.1197" stroke-linecap="round" stroke-linejoin="round" fill="#000000"/>
        <path d="M 54.2142,7.0957 L 54.2142,9.2203 L 55.1043,9.2203 L 55.1043,9.7201 L 55.4659,9.7201 L 55.4659,10.2200 L 56.5229,10.2200 L 56.5229,9.7201 L 56.8845,9.7201 L 56.8845,9.2203 L 57.7747,9.2203 L 57.7747,7.0957 L 54.2142,7.0957 Z" stroke="#161616" stroke-width="0.1197" stroke-linecap="round" stroke-linejoin="round" fill="#000000"/>
        <path d="M 58.1363,5.9432 L 58.1363,3.8186 L 59.0264,3.8186 L 59.0264,3.3187 L 59.3880,3.3187 L 59.3880,2.8188 L 60.4450,2.8188 L 60.4450,3.3187 L 60.8067,3.3187 L 60.8067,3.8186 L 61.6968,3.8186 L 61.6968,5.9432 L 58.1363,5.9432 Z" stroke="#161616" stroke-width="0.1197" stroke-linecap="round" stroke-linejoin="round" fill="#000000"/>
        <path d="M 58.1363,7.0957 L 58.1363,9.2203 L 59.0264,9.2203 L 59.0264,9.7201 L 59.3880,9.7201 L 59.3880,10.2200 L 60.4450,10.2200 L 60.4450,9.7201 L 60.8067,9.7201 L 60.8067,9.2203 L 61.6968,9.2203 L 61.6968,7.0957 L 58.1363,7.0957 Z" stroke="#161616" stroke-width="0.1197" stroke-linecap="round" stroke-linejoin="round" fill="#000000"/>
        <path d="M 62.0723,5.9432 L 62.0723,3.8186 L 62.9624,3.8186 L 62.9624,3.3187 L 63.3240,3.3187 L 63.3240,2.8188 L 64.3811,2.8188 L 64.3811,3.3187 L 64.7427,3.3187 L 64.7427,3.8186 L 65.6328,3.8186 L 65.6328,5.9432 L 62.0723,5.9432 Z" stroke="#161616" stroke-width="0.1197" stroke-linecap="round" stroke-linejoin="round" fill="#000000"/>
        <path d="M 62.0723,7.0957 L 62.0723,9.2203 L 62.9624,9.2203 L 62.9624,9.7201 L 63.3240,9.7201 L 63.3240,10.2200 L 64.3811,10.2200 L 64.3811,9.7201 L 64.7427,9.7201 L 64.7427,9.2203 L 65.6328,9.2203 L 65.6328,7.0957 L 62.0723,7.0957 Z" stroke="#161616" stroke-width="0.1197" stroke-linecap="round" stroke-linejoin="round" fill="#000000"/>
        <path d="M 65.9944,5.9432 L 65.9944,3.8186 L 66.8845,3.8186 L 66.8845,3.3187 L 67.2461,3.3187 L 67.2461,2.8188 L 68.3032,2.8188 L 68.3032,3.3187 L 68.6648,3.3187 L 68.6648,3.8186 L 69.5549,3.8186 L 69.5549,5.9432 L 65.9944,5.9432 Z" stroke="#161616" stroke-width="0.1197" stroke-linecap="round" stroke-linejoin="round" fill="#000000"/>
        <path d="M 65.9944,7.0957 L 65.9944,9.2203 L 66.8845,9.2203 L 66.8845,9.7201 L 67.2461,9.7201 L 67.2461,10.2200 L 68.3032,10.2200 L 68.3032,9.7201 L 68.6648,9.7201 L 68.6648,9.2203 L 69.5549,9.2203 L 69.5549,7.0957 L 65.9944,7.0957 Z" stroke="#161616" stroke-width="0.1197" stroke-linecap="round" stroke-linejoin="round" fill="#000000"/>
        <path d="M 69.9165,5.9432 L 69.9165,3.8186 L 70.8066,3.8186 L 70.8066,3.3187 L 71.1683,3.3187 L 71.1683,2.8188 L 72.2253,2.8188 L 72.2253,3.3187 L 72.5869,3.3187 L 72.5869,3.8186 L 73.4770,3.8186 L 73.4770,5.9432 L 69.9165,5.9432 Z" stroke="#161616" stroke-width="0.1197" stroke-linecap="round" stroke-linejoin="round" fill="#000000"/>
        <path d="M 69.9165,7.0957 L 69.9165,9.2203 L 70.8066,9.2203 L 70.8066,9.7201 L 71.1683,9.7201 L 71.1683,10.2200 L 72.2253,10.2200 L 72.2253,9.7201 L 72.5869,9.7201 L 72.5869,9.2203 L 73.4770,9.2203 L 73.4770,7.0957 L 69.9165,7.0957 Z" stroke="#161616" stroke-width="0.1197" stroke-linecap="round" stroke-linejoin="round" fill="#000000"/>
        <path d="M 73.8386,5.9432 L 73.8386,3.8186 L 74.7288,3.8186 L 74.7288,3.3187 L 75.0904,3.3187 L 75.0904,2.8188 L 76.1474,2.8188 L 76.1474,3.3187 L 76.5090,3.3187 L 76.5090,3.8186 L 77.3991,3.8186 L 77.3991,5.9432 L 73.8386,5.9432 Z" stroke="#161616" stroke-width="0.1197" stroke-linecap="round" stroke-linejoin="round" fill="#000000"/>
        <path d="M 73.8386,7.0957 L 73.8386,9.2203 L 74.7288,9.2203 L 74.7288,9.7201 L 75.0904,9.7201 L 75.0904,10.2200 L 76.1474,10.2200 L 76.1474,9.7201 L 76.5090,9.7201 L 76.5090,9.2203 L 77.3991,9.2203 L 77.3991,7.0957 L 73.8386,7.0957 Z" stroke="#161616" stroke-width="0.1197" stroke-linecap="round" stroke-linejoin="round" fill="#000000"/>
        <path d="M 77.7607,5.9432 L 77.7607,3.8186 L 78.6509,3.8186 L 78.6509,3.3187 L 79.0125,3.3187 L 79.0125,2.8188 L 80.0695,2.8188 L 80.0695,3.3187 L 80.4311,3.3187 L 80.4311,3.8186 L 81.3212,3.8186 L 81.3212,5.9432 L 77.7607,5.9432 Z" stroke="#161616" stroke-width="0.1197" stroke-linecap="round" stroke-linejoin="round" fill="#000000"/>
        <path d="M 77.7607,7.0957 L 77.7607,9.2203 L 78.6509,9.2203 L 78.6509,9.7201 L 79.0125,9.7201 L 79.0125,10.2200 L 80.0695,10.2200 L 80.0695,9.7201 L 80.4311,9.7201 L 80.4311,9.2203 L 81.3212,9.2203 L 81.3212,7.0957 L 77.7607,7.0957 Z" stroke="#161616" stroke-width="0.1197" stroke-linecap="round" stroke-linejoin="round" fill="#000000"/>
        <path d="M 81.6968,5.9432 L 81.6968,3.8186 L 82.5869,3.8186 L 82.5869,3.3187 L 82.9485,3.3187 L 82.9485,2.8188 L 84.0055,2.8188 L 84.0055,3.3187 L 84.3671,3.3187 L 84.3671,3.8186 L 85.2573,3.8186 L 85.2573,5.9432 L 81.6968,5.9432 Z" stroke="#161616" stroke-width="0.1197" stroke-linecap="round" stroke-linejoin="round" fill="#000000"/>
        <path d="M 81.6968,7.0957 L 81.6968,9.2203 L 82.5869,9.2203 L 82.5869,9.7201 L 82.9485,9.7201 L 82.9485,10.2200 L 84.0055,10.2200 L 84.0055,9.7201 L 84.3671,9.7201 L 84.3671,9.2203 L 85.2573,9.2203 L 85.2573,7.0957 L 81.6968,7.0957 Z" stroke="#161616" stroke-width="0.1197" stroke-linecap="round" stroke-linejoin="round" fill="#000000"/>
        <path d="M 86.0639,5.9432 L 86.0639,3.8186 L 86.9541,3.8186 L 86.9541,3.3187 L 87.3157,3.3187 L 87.3157,2.8188 L 88.3727,2.8188 L 88.3727,3.3187 L 88.7343,3.3187 L 88.7343,3.8186 L 89.6244,3.8186 L 89.6244,5.9432 L 86.0639,5.9432 Z" stroke="#161616" stroke-width="0.1197" stroke-linecap="round" stroke-linejoin="round" fill="#000000"/>
        <path d="M 86.0639,7.0957 L 86.0639,9.2203 L 86.9541,9.2203 L 86.9541,9.7201 L 87.3157,9.7201 L 87.3157,10.2200 L 88.3727,10.2200 L 88.3727,9.7201 L 88.7343,9.7201 L 88.7343,9.2203 L 89.6244,9.2203 L 89.6244,7.0957 L 86.0639,7.0957 Z" stroke="#161616" stroke-width="0.1197" stroke-linecap="round" stroke-linejoin="round" fill="#000000"/>
        <path d="M 89.9861,5.9432 L 89.9861,3.8186 L 90.8762,3.8186 L 90.8762,3.3187 L 91.2378,3.3187 L 91.2378,2.8188 L 92.2948,2.8188 L 92.2948,3.3187 L 92.6564,3.3187 L 92.6564,3.8186 L 93.5466,3.8186 L 93.5466,5.9432 L 89.9861,5.9432 Z" stroke="#161616" stroke-width="0.1197" stroke-linecap="round" stroke-linejoin="round" fill="#000000"/>
        <path d="M 89.9861,7.0957 L 89.9861,9.2203 L 90.8762,9.2203 L 90.8762,9.7201 L 91.2378,9.7201 L 91.2378,10.2200 L 92.2948,10.2200 L 92.2948,9.7201 L 92.6564,9.7201 L 92.6564,9.2203 L 93.5466,9.2203 L 93.5466,7.0957 L 89.9861,7.0957 Z" stroke="#161616" stroke-width="0.1197" stroke-linecap="round" stroke-linejoin="round" fill="#000000"/>
        <path d="M 93.9082,5.9432 L 93.9082,3.8186 L 94.7983,3.8186 L 94.7983,3.3187 L 95.1599,3.3187 L 95.1599,2.8188 L 96.2169,2.8188 L 96.2169,3.3187 L 96.5785,3.3187 L 96.5785,3.8186 L 97.4687,3.8186 L 97.4687,5.9432 L 93.9082,5.9432 Z" stroke="#161616" stroke-width="0.1197" stroke-linecap="round" stroke-linejoin="round" fill="#000000"/>
        <path d="M 93.9082,7.0957 L 93.9082,9.2203 L 94.7983,9.2203 L 94.7983,9.7201 L 95.1599,9.7201 L 95.1599,10.2200 L 96.2169,10.2200 L 96.2169,9.7201 L 96.5785,9.7201 L 96.5785,9.2203 L 97.4687,9.2203 L 97.4687,7.0957 L 93.9082,7.0957 Z" stroke="#161616" stroke-width="0.1197" stroke-linecap="round" stroke-linejoin="round" fill="#000000"/>
        <path d="M 97.8442,5.9432 L 97.8442,3.8186 L 98.7343,3.8186 L 98.7343,3.3187 L 99.0959,3.3187 L 99.0959,2.8188 L 100.1529,2.8188 L 100.1529,3.3187 L 100.5146,3.3187 L 100.5146,3.8186 L 101.4047,3.8186 L 101.4047,5.9432 L 97.8442,5.9432 Z" stroke="#161616" stroke-width="0.1197" stroke-linecap="round" stroke-linejoin="round" fill="#000000"/>
        <path d="M 97.8442,7.0957 L 97.8442,9.2203 L 98.7343,9.2203 L 98.7343,9.7201 L 99.0959,9.7201 L 99.0959,10.2200 L 100.1529,10.2200 L 100.1529,9.7201 L 100.5146,9.7201 L 100.5146,9.2203 L 101.4047,9.2203 L 101.4047,7.0957 L 97.8442,7.0957 Z" stroke="#161616" stroke-width="0.1197" stroke-linecap="round" stroke-linejoin="round" fill="#000000"/>
        <path d="M 101.7663,5.9432 L 101.7663,3.8186 L 102.6564,3.8186 L 102.6564,3.3187 L 103.0180,3.3187 L 103.0180,2.8188 L 104.0751,2.8188 L 104.0751,3.3187 L 104.4367,3.3187 L 104.4367,3.8186 L 105.3268,3.8186 L 105.3268,5.9432 L 101.7663,5.9432 Z" stroke="#161616" stroke-width="0.1197" stroke-linecap="round" stroke-linejoin="round" fill="#000000"/>
        <path d="M 101.7663,7.0957 L 101.7663,9.2203 L 102.6564,9.2203 L 102.6564,9.7201 L 103.0180,9.7201 L 103.0180,10.2200 L 104.0751,10.2200 L 104.0751,9.7201 L 104.4367,9.7201 L 104.4367,9.2203 L 105.3268,9.2203 L 105.3268,7.0957 L 101.7663,7.0957 Z" stroke="#161616" stroke-width="0.1197" stroke-linecap="round" stroke-linejoin="round" fill="#000000"/>
        <path d="M 105.6884,5.9432 L 105.6884,3.8186 L 106.5785,3.8186 L 106.5785,3.3187 L 106.9402,3.3187 L 106.9402,2.8188 L 107.9972,2.8188 L 107.9972,3.3187 L 108.3588,3.3187 L 108.3588,3.8186 L 109.2489,3.8186 L 109.2489,5.9432 L 105.6884,5.9432 Z" stroke="#161616" stroke-width="0.1197" stroke-linecap="round" stroke-linejoin="round" fill="#000000"/>
        <path d="M 105.6884,7.0957 L 105.6884,9.2203 L 106.5785,9.2203 L 106.5785,9.7201 L 106.9402,9.7201 L 106.9402,10.2200 L 107.9972,10.2200 L 107.9972,9.7201 L 108.3588,9.7201 L 108.3588,9.2203 L 109.2489,9.2203 L 109.2489,7.0957 L 105.6884,7.0957 Z" stroke="#161616" stroke-width="0.1197" stroke-linecap="round" stroke-linejoin="round" fill="#000000"/>
        <path d="M 109.6105,5.9432 L 109.6105,3.8186 L 110.5006,3.8186 L 110.5006,3.3187 L 110.8623,3.3187 L 110.8623,2.8188 L 111.9193,2.8188 L 111.9193,3.3187 L 112.2809,3.3187 L 112.2809,3.8186 L 113.1710,3.8186 L 113.1710,5.9432 L 109.6105,5.9432 Z" stroke="#161616" stroke-width="0.1197" stroke-linecap="round" stroke-linejoin="round" fill="#000000"/>
        <path d="M 109.6105,7.0957 L 109.6105,9.2203 L 110.5006,9.2203 L 110.5006,9.7201 L 110.8623,9.7201 L 110.8623,10.2200 L 111.9193,10.2200 L 111.9193,9.7201 L 112.2809,9.7201 L 112.2809,9.2203 L 113.1710,9.2203 L 113.1710,7.0957 L 109.6105,7.0957 Z" stroke="#161616" stroke-width="0.1197" stroke-linecap="round" stroke-linejoin="round" fill="#000000"/>
        <path d="M 113.5326,5.9432 L 113.5326,3.8186 L 114.4228,3.8186 L 114.4228,3.3187 L 114.7844,3.3187 L 114.7844,2.8188 L 115.8414,2.8188 L 115.8414,3.3187 L 116.2030,3.3187 L 116.2030,3.8186 L 117.0931,3.8186 L 117.0931,5.9432 L 113.5326,5.9432 Z" stroke="#161616" stroke-width="0.1197" stroke-linecap="round" stroke-linejoin="round" fill="#000000"/>
        <path d="M 113.5326,7.0957 L 113.5326,9.2203 L 114.4228,9.2203 L 114.4228,9.7201 L 114.7844,9.7201 L 114.7844,10.2200 L 115.8414,10.2200 L 115.8414,9.7201 L 116.2030,9.7201 L 116.2030,9.2203 L 117.0931,9.2203 L 117.0931,7.0957 L 113.5326,7.0957 Z" stroke="#161616" stroke-width="0.1197" stroke-linecap="round" stroke-linejoin="round" fill="#000000"/>
        <path d="M 122.6475,5.7081 L 118.6948,5.7081 L 118.6948,3.0342 L 122.6475,3.0342 L 122.6475,5.7081 Z" stroke="#000000" stroke-width="0.1197" stroke-linecap="round" stroke-linejoin="round" fill="none"/>
        <path d="M 122.6475,10.0447 L 118.6948,10.0447 L 118.6948,7.3707 L 122.6475,7.3707 L 122.6475,10.0447 Z" stroke="#000000" stroke-width="0.1197" stroke-linecap="round" stroke-linejoin="round" fill="none"/>
        <path d="M 124.5201,6.2764 L 124.5201,4.1519 L 125.4102,4.1519 L 125.4102,3.6520 L 125.7719,3.6520 L 125.7719,3.1521 L 126.8289,3.1521 L 126.8289,3.6520 L 127.1905,3.6520 L 127.1905,4.1519 L 128.0806,4.1519 L 128.0806,6.2764 L 124.5201,6.2764 Z" stroke="#161616" stroke-width="0.1197" stroke-linecap="round" stroke-linejoin="round" fill="#000000"/>
      </g>
      <!--emf-blob end-->
    </g>
  </g>
</svg>
