<svg xmlns="http://www.w3.org/2000/svg" xmlns:xlink="http://www.w3.org/1999/xlink" version="1.1" width="7.6032000000" height="4.0000000000" viewBox="0 0 136.8567 72.0000">
  <title><![CDATA[FSW-124D-POE]]></title>
  <g transform=" scale(4.000000) ">
    <!--converted by libvisio2svg-->
    <g transform=" translate(0.000000,23.669300) ">
      <!--emf-blob start-->
      <g transform="translate(-0.0000, -0.0000)">
        <path d="M 25.4038,2.1369 L 25.4038,2.8024 L 25.9939,2.8024 " stroke="#000000" stroke-width="0.1197" stroke-linecap="round" stroke-linejoin="round" fill="none"/>
        <path d="M 25.9939,2.1369 L 27.1585,2.1369 " stroke="#000000" stroke-width="0.1197" stroke-linecap="round" stroke-linejoin="round" fill="none"/>
        <path d="M 26.5684,2.1369 L 26.5684,2.8024 " stroke="#000000" stroke-width="0.1197" stroke-linecap="round" stroke-linejoin="round" fill="none"/>
        <path d="M 27.4535,2.1369 L 27.4535,2.8024 " stroke="#000000" stroke-width="0.1197" stroke-linecap="round" stroke-linejoin="round" fill="none"/>
        <path d="M 27.4535,2.1369 L 27.4535,2.8024 " stroke="#000000" stroke-width="0.1197" stroke-linecap="round" stroke-linejoin="round" fill="none"/>
        <path d="M 28.0281,2.8024 L 28.0281,2.1369 L 28.6181,2.8024 L 29.2082,2.1369 L 29.2082,2.8024 " stroke="#000000" stroke-width="0.1197" stroke-linecap="round" stroke-linejoin="round" fill="none"/>
        <path d="M 29.4877,2.8024 L 30.0778,2.1369 L 30.6678,2.8024 " stroke="#000000" stroke-width="0.1197" stroke-linecap="round" stroke-linejoin="round" fill="none"/>
        <path d="M 29.6430,2.6360 L 30.5125,2.6360 " stroke="#000000" stroke-width="0.1197" stroke-linecap="round" stroke-linejoin="round" fill="none"/>
        <path d="M 23.6492,2.8024 L 24.2392,2.1369 L 24.8293,2.8024 " stroke="#000000" stroke-width="0.1197" stroke-linecap="round" stroke-linejoin="round" fill="none"/>
        <path d="M 23.8044,2.6360 L 24.6740,2.6360 " stroke="#000000" stroke-width="0.1197" stroke-linecap="round" stroke-linejoin="round" fill="none"/>
        <path d="M 136.4196,0.0281 L 0.0280,0.0281 L 0.0280,12.2745 L 136.4196,12.2745 L 136.4196,0.0281 Z" stroke="#000000" stroke-width="0.1197" stroke-linecap="round" stroke-linejoin="round" fill="#EFEFEF"/>
        <path d="M 4.2903,1.5729 L 4.2903,1.4887 L 4.2763,1.4044 L 4.2482,1.3201 L 4.2202,1.2499 L 4.1921,1.1657 L 4.1501,1.1095 L 4.0940,1.0393 L 3.9818,0.9269 L 3.9117,0.8707 L 3.8556,0.8286 L 3.7715,0.8005 L 3.7014,0.7724 L 3.6173,0.7443 L 3.5332,0.7303 L 1.8227,0.7303 L 1.7385,0.7443 L 1.6544,0.7724 L 1.5843,0.8005 L 1.5002,0.8286 L 1.4441,0.8707 L 1.3740,0.9269 L 1.2618,1.0393 L 1.2058,1.1095 L 1.1637,1.1657 L 1.1357,1.2499 L 1.1076,1.3201 L 1.0796,1.4044 L 1.0656,1.4887 L 1.0656,1.6572 L 1.0796,1.7415 L 1.1076,1.8257 L 1.1357,1.8960 L 1.1637,1.9802 L 1.2058,2.0364 L 1.2618,2.1066 L 1.3740,2.2190 L 1.4441,2.2751 L 1.5002,2.3173 L 1.5843,2.3454 L 1.6544,2.3734 L 1.7385,2.4015 L 1.8227,2.4156 L 3.5332,2.4156 L 3.6173,2.4015 L 3.7014,2.3734 L 3.7715,2.3454 L 3.8556,2.3173 L 3.9117,2.2751 L 3.9818,2.2190 L 4.0940,2.1066 L 4.1501,2.0364 L 4.1921,1.9802 L 4.2202,1.8960 L 4.2482,1.8257 L 4.2763,1.7415 L 4.2903,1.6572 L 4.2903,1.5729 Z" stroke="#000000" stroke-width="0.1197" stroke-linecap="round" stroke-linejoin="round" fill="#FFFFFF"/>
        <path d="M 4.2903,10.7297 L 4.2903,10.6454 L 4.2763,10.5611 L 4.2482,10.4769 L 4.2202,10.4067 L 4.1921,10.3224 L 4.1501,10.2662 L 4.0940,10.1960 L 3.9818,10.0836 L 3.9117,10.0275 L 3.8556,9.9853 L 3.7715,9.9573 L 3.7014,9.9292 L 3.6173,9.9011 L 3.5332,9.8870 L 1.8227,9.8870 L 1.7385,9.9011 L 1.6544,9.9292 L 1.5843,9.9573 L 1.5002,9.9853 L 1.4441,10.0275 L 1.3740,10.0836 L 1.2618,10.1960 L 1.2058,10.2662 L 1.1637,10.3224 L 1.1357,10.4067 L 1.1076,10.4769 L 1.0796,10.5611 L 1.0656,10.6454 L 1.0656,10.8139 L 1.0796,10.8982 L 1.1076,10.9825 L 1.1357,11.0527 L 1.1637,11.1370 L 1.2058,11.1931 L 1.2618,11.2634 L 1.3740,11.3757 L 1.4441,11.4319 L 1.5002,11.4740 L 1.5843,11.5021 L 1.6544,11.5302 L 1.7385,11.5583 L 1.8227,11.5723 L 3.5332,11.5723 L 3.6173,11.5583 L 3.7014,11.5302 L 3.7715,11.5021 L 3.8556,11.4740 L 3.9117,11.4319 L 3.9818,11.3757 L 4.0940,11.2634 L 4.1501,11.1931 L 4.1921,11.1370 L 4.2202,11.0527 L 4.2482,10.9825 L 4.2763,10.8982 L 4.2903,10.8139 L 4.2903,10.7297 Z" stroke="#000000" stroke-width="0.1197" stroke-linecap="round" stroke-linejoin="round" fill="#FFFFFF"/>
        <path d="M 135.3821,1.5729 L 135.3821,1.4887 L 135.3681,1.4044 L 135.3400,1.3201 L 135.3120,1.2499 L 135.2840,1.1657 L 135.2419,1.1095 L 135.1858,1.0393 L 135.0737,0.9269 L 135.0036,0.8707 L 134.9475,0.8286 L 134.8633,0.8005 L 134.7932,0.7724 L 134.7091,0.7443 L 134.6250,0.7303 L 132.9145,0.7303 L 132.8304,0.7443 L 132.7463,0.7724 L 132.6761,0.8005 L 132.5920,0.8286 L 132.5359,0.8707 L 132.4658,0.9269 L 132.3537,1.0393 L 132.2976,1.1095 L 132.2555,1.1657 L 132.2275,1.2499 L 132.1995,1.3201 L 132.1714,1.4044 L 132.1574,1.4887 L 132.1574,1.6572 L 132.1714,1.7415 L 132.1995,1.8257 L 132.2275,1.8960 L 132.2555,1.9802 L 132.2976,2.0364 L 132.3537,2.1066 L 132.4658,2.2190 L 132.5359,2.2751 L 132.5920,2.3173 L 132.6761,2.3454 L 132.7463,2.3734 L 132.8304,2.4015 L 132.9145,2.4156 L 134.6250,2.4156 L 134.7091,2.4015 L 134.7932,2.3734 L 134.8633,2.3454 L 134.9475,2.3173 L 135.0036,2.2751 L 135.0737,2.2190 L 135.1858,2.1066 L 135.2419,2.0364 L 135.2840,1.9802 L 135.3120,1.8960 L 135.3400,1.8257 L 135.3681,1.7415 L 135.3821,1.6572 L 135.3821,1.5729 Z" stroke="#000000" stroke-width="0.1197" stroke-linecap="round" stroke-linejoin="round" fill="#FFFFFF"/>
        <path d="M 135.3821,10.7297 L 135.3821,10.6454 L 135.3681,10.5611 L 135.3400,10.4769 L 135.3120,10.4067 L 135.2840,10.3224 L 135.2419,10.2662 L 135.1858,10.1960 L 135.0737,10.0836 L 135.0036,10.0275 L 134.9475,9.9853 L 134.8633,9.9573 L 134.7932,9.9292 L 134.7091,9.9011 L 134.6250,9.8870 L 132.9145,9.8870 L 132.8304,9.9011 L 132.7463,9.9292 L 132.6761,9.9573 L 132.5920,9.9853 L 132.5359,10.0275 L 132.4658,10.0836 L 132.3537,10.1960 L 132.2976,10.2662 L 132.2555,10.3224 L 132.2275,10.4067 L 132.1995,10.4769 L 132.1714,10.5611 L 132.1574,10.6454 L 132.1574,10.8139 L 132.1714,10.8982 L 132.1995,10.9825 L 132.2275,11.0527 L 132.2555,11.1370 L 132.2976,11.1931 L 132.3537,11.2634 L 132.4658,11.3757 L 132.5359,11.4319 L 132.5920,11.4740 L 132.6761,11.5021 L 132.7463,11.5302 L 132.8304,11.5583 L 132.9145,11.5723 L 134.6250,11.5723 L 134.7091,11.5583 L 134.7932,11.5302 L 134.8633,11.5021 L 134.9475,11.4740 L 135.0036,11.4319 L 135.0737,11.3757 L 135.1858,11.2634 L 135.2419,11.1931 L 135.2840,11.1370 L 135.3120,11.0527 L 135.3400,10.9825 L 135.3681,10.8982 L 135.3821,10.8139 L 135.3821,10.7297 Z" stroke="#000000" stroke-width="0.1197" stroke-linecap="round" stroke-linejoin="round" fill="#FFFFFF"/>
        <path d="M 114.7719,0.0562 L 21.6757,0.0562 L 21.6757,12.2464 L 114.7719,12.2464 L 114.7719,0.0562 Z" stroke="#000000" stroke-width="0.1197" stroke-linecap="round" stroke-linejoin="round" fill="#EFEFEF"/>
        <path d="M 113.5662,1.4746 L 113.5662,1.4185 L 113.5522,1.3482 L 113.5241,1.2359 L 113.4961,1.1797 L 113.4680,1.1376 L 113.4260,1.0954 L 113.3979,1.0533 L 113.3419,1.0112 L 113.2998,0.9690 L 113.2577,0.9410 L 113.2017,0.9129 L 113.0895,0.8848 L 113.0194,0.8707 L 23.1479,0.8707 L 23.0778,0.8848 L 22.9656,0.9129 L 22.9095,0.9410 L 22.8675,0.9690 L 22.6992,1.1376 L 22.6712,1.1797 L 22.6431,1.2359 L 22.6151,1.3482 L 22.6011,1.4185 L 22.6011,10.8842 L 22.6151,10.9544 L 22.6431,11.0667 L 22.6712,11.1229 L 22.6992,11.1650 L 22.7413,11.2072 L 22.7833,11.2634 L 22.8254,11.2914 L 22.8675,11.3336 L 22.9095,11.3617 L 22.9656,11.3897 L 23.0778,11.4178 L 23.1479,11.4319 L 113.0194,11.4319 L 113.0895,11.4178 L 113.2017,11.3897 L 113.2577,11.3617 L 113.2998,11.3336 L 113.3419,11.2914 L 113.3979,11.2634 L 113.4260,11.2072 L 113.4680,11.1650 L 113.4961,11.1229 L 113.5241,11.0667 L 113.5522,10.9544 L 113.5662,10.8842 L 113.5662,10.8280 L 113.5662,1.4746 Z" stroke="#000000" stroke-width="0.1197" stroke-linecap="round" stroke-linejoin="round" fill="#F7F7F7"/>
        <path d="M 27.6204,6.6007 L 23.1899,6.6007 L 23.1899,10.4769 L 27.6204,10.4769 L 27.6204,6.6007 Z" stroke="#000000" stroke-width="0.1197" stroke-linecap="round" stroke-linejoin="round" fill="#F7F7F7"/>
        <path d="M 102.7143,10.0275 L 98.7605,10.0275 L 98.7605,7.3170 L 102.7143,7.3170 L 102.7143,10.0275 Z" stroke="#666666" stroke-width="0.1197" stroke-linecap="round" stroke-linejoin="round" fill="#666666"/>
        <path d="M 110.4536,10.0275 L 106.4998,10.0275 L 106.4998,7.3170 L 110.4536,7.3170 L 110.4536,10.0275 Z" stroke="#666666" stroke-width="0.1197" stroke-linecap="round" stroke-linejoin="round" fill="#666666"/>
        <path d="M 66.9900,2.6824 L 40.6315,2.6824 L 40.6315,10.0275 L 66.9900,10.0275 L 66.9900,2.6824 Z" stroke="#000000" stroke-width="0.1197" stroke-linecap="round" stroke-linejoin="round" fill="#F7F7F7"/>
        <path d="M 94.5824,2.6824 L 68.2238,2.6824 L 68.2238,10.0275 L 94.5824,10.0275 L 94.5824,2.6824 Z" stroke="#000000" stroke-width="0.1197" stroke-linecap="round" stroke-linejoin="round" fill="#F7F7F7"/>
        <path d="M 23.6052,2.8614 L 23.5930,2.8614 L 23.5869,2.8553 L 23.5808,2.8553 L 23.5625,2.8372 L 23.5625,2.8311 L 23.5564,2.8250 L 23.5564,2.1218 L 23.5625,2.1157 L 23.5625,2.1097 L 23.5686,2.1036 L 23.5747,2.1036 L 23.5747,2.0976 L 23.5808,2.0915 L 23.5869,2.0915 L 23.5930,2.0854 L 24.4227,2.0854 L 24.4288,2.0915 L 24.4349,2.0915 L 24.4532,2.1097 L 24.4532,2.1157 L 24.4593,2.1218 L 24.4593,2.2612 L 24.4532,2.2612 L 24.4532,2.2552 L 24.4471,2.2552 L 24.4471,2.2491 L 24.4410,2.2491 L 24.4410,2.2430 L 24.4288,2.2430 L 24.4288,2.2370 L 23.7577,2.2370 L 23.7577,2.2430 L 23.7455,2.2430 L 23.7455,2.2491 L 23.7394,2.2491 L 23.7394,2.2612 L 23.7333,2.2612 L 23.7333,2.8372 L 23.7394,2.8372 L 23.7394,2.8493 L 23.7455,2.8493 L 23.7455,2.8553 L 23.7516,2.8553 L 23.7516,2.8614 L 23.6113,2.8614 L 23.6052,2.8614 Z" stroke="#000000" stroke-width="0.1197" stroke-linecap="round" stroke-linejoin="round" fill="#000000"/>
        <path d="M 24.3983,2.4128 L 23.7943,2.4128 L 23.7943,2.4067 L 23.7821,2.4067 L 23.7821,2.4007 L 23.7760,2.4007 L 23.7760,2.3885 L 23.7699,2.3885 L 23.7699,2.5401 L 23.7760,2.5401 L 23.7760,2.5522 L 23.7821,2.5522 L 23.7821,2.5583 L 23.7943,2.5583 L 23.7943,2.5643 L 24.4105,2.5643 L 24.4227,2.5522 L 24.4288,2.5522 L 24.4410,2.5401 L 24.4410,2.5340 L 24.4471,2.5280 L 24.4471,2.5219 L 24.4532,2.5159 L 24.4532,2.5037 L 24.4593,2.4977 L 24.4593,2.4795 L 24.4532,2.4734 L 24.4532,2.4552 L 24.4410,2.4431 L 24.4410,2.4370 L 24.4349,2.4310 L 24.4288,2.4310 L 24.4288,2.4249 L 24.4227,2.4249 L 24.4166,2.4189 L 24.4105,2.4189 L 24.4044,2.4128 L 24.3983,2.4128 Z" stroke="#000000" stroke-width="0.1197" stroke-linecap="round" stroke-linejoin="round" fill="#000000"/>
        <path d="M 25.8077,2.5643 L 25.7955,2.5643 L 25.7955,2.5583 L 25.7833,2.5583 L 25.7833,2.5522 L 25.7772,2.5522 L 25.7772,2.5401 L 25.7711,2.5401 L 25.7711,2.3885 L 25.7772,2.3885 L 25.7772,2.4007 L 25.7833,2.4007 L 25.7833,2.4067 L 25.7955,2.4067 L 25.7955,2.4128 L 26.2836,2.4128 L 26.2836,2.2370 L 25.7589,2.2370 L 25.7589,2.2430 L 25.7467,2.2430 L 25.7467,2.2491 L 25.7406,2.2491 L 25.7406,2.2612 L 25.7345,2.2612 L 25.7345,2.8372 L 25.7406,2.8372 L 25.7406,2.8493 L 25.7467,2.8493 L 25.7467,2.8553 L 25.7528,2.8553 L 25.7528,2.8614 L 25.5942,2.8614 L 25.5881,2.8553 L 25.5820,2.8553 L 25.5636,2.8372 L 25.5636,2.8311 L 25.5575,2.8250 L 25.5575,2.1218 L 25.5636,2.1157 L 25.5636,2.1097 L 25.5697,2.1036 L 25.5758,2.1036 L 25.5758,2.0976 L 25.5820,2.0915 L 25.5881,2.0915 L 25.5942,2.0854 L 26.4239,2.0854 L 26.4300,2.0915 L 26.4361,2.0915 L 26.4544,2.1097 L 26.4544,2.1157 L 26.4605,2.1218 L 26.4605,2.5037 L 26.4544,2.5098 L 26.4544,2.5219 L 26.4483,2.5219 L 26.4483,2.5280 L 26.4422,2.5340 L 26.4422,2.5401 L 26.4361,2.5401 L 26.4361,2.5462 L 26.4300,2.5462 L 26.4300,2.5522 L 26.4239,2.5522 L 26.4239,2.5583 L 26.4178,2.5583 L 26.4117,2.5643 L 26.4178,2.5704 L 26.4239,2.5704 L 26.4239,2.5765 L 26.4300,2.5765 L 26.4300,2.5825 L 26.4361,2.5825 L 26.4361,2.5886 L 26.4422,2.5886 L 26.4422,2.5947 L 26.4483,2.6007 L 26.4483,2.6068 L 26.4544,2.6068 L 26.4544,2.6189 L 26.4605,2.6250 L 26.4605,2.8372 L 26.4666,2.8372 L 26.4666,2.8493 L 26.4727,2.8493 L 26.4727,2.8553 L 26.4788,2.8553 L 26.4788,2.8614 L 26.3202,2.8614 L 26.3141,2.8553 L 26.3080,2.8553 L 26.2897,2.8372 L 26.2897,2.8311 L 26.2836,2.8250 L 26.2836,2.5643 L 25.8138,2.5643 L 25.8077,2.5643 Z" stroke="#000000" stroke-width="0.1197" stroke-linecap="round" stroke-linejoin="round" fill="#000000"/>
        <path d="M 26.7778,2.2370 L 26.5947,2.2370 L 26.5886,2.2309 L 26.5825,2.2309 L 26.5642,2.2127 L 26.5642,2.2067 L 26.5581,2.2006 L 26.5581,2.1218 L 26.5642,2.1157 L 26.5642,2.1097 L 26.5703,2.1036 L 26.5764,2.1036 L 26.5764,2.0976 L 26.5825,2.0915 L 26.5886,2.0915 L 26.5947,2.0854 L 27.4245,2.0854 L 27.4306,2.0915 L 27.4367,2.0915 L 27.4550,2.1097 L 27.4550,2.1157 L 27.4611,2.1218 L 27.4611,2.2612 L 27.4550,2.2612 L 27.4550,2.2552 L 27.4489,2.2552 L 27.4489,2.2491 L 27.4428,2.2491 L 27.4428,2.2430 L 27.4306,2.2430 L 27.4306,2.2370 L 26.9791,2.2370 L 26.9791,2.2430 L 26.9669,2.2430 L 26.9669,2.2491 L 26.9608,2.2491 L 26.9608,2.2612 L 26.9547,2.2612 L 26.9547,2.8372 L 26.9608,2.8372 L 26.9608,2.8493 L 26.9669,2.8493 L 26.9669,2.8553 L 26.9730,2.8553 L 26.9730,2.8614 L 26.8144,2.8614 L 26.8083,2.8553 L 26.8022,2.8553 L 26.7839,2.8372 L 26.7839,2.8311 L 26.7778,2.8250 L 26.7778,2.2552 L 26.7778,2.2370 Z" stroke="#000000" stroke-width="0.1197" stroke-linecap="round" stroke-linejoin="round" fill="#000000"/>
        <path d="M 27.7356,2.8190 L 27.7356,2.8372 L 27.7417,2.8372 L 27.7417,2.8493 L 27.7478,2.8493 L 27.7478,2.8553 L 27.7539,2.8553 L 27.7539,2.8614 L 27.5953,2.8614 L 27.5892,2.8553 L 27.5831,2.8553 L 27.5648,2.8372 L 27.5648,2.8311 L 27.5587,2.8250 L 27.5587,2.1097 L 27.5526,2.1097 L 27.5526,2.0976 L 27.5465,2.0976 L 27.5465,2.0915 L 27.5404,2.0915 L 27.5404,2.0854 L 27.6990,2.0854 L 27.7051,2.0915 L 27.7112,2.0915 L 27.7295,2.1097 L 27.7295,2.1157 L 27.7356,2.1218 L 27.7356,2.8129 L 27.7356,2.8190 Z" stroke="#000000" stroke-width="0.1197" stroke-linecap="round" stroke-linejoin="round" fill="#000000"/>
        <path d="M 28.6020,2.2370 L 28.0773,2.2370 L 28.0773,2.2430 L 28.0651,2.2430 L 28.0651,2.2491 L 28.0590,2.2491 L 28.0590,2.2612 L 28.0529,2.2612 L 28.0529,2.8372 L 28.0590,2.8372 L 28.0590,2.8493 L 28.0651,2.8493 L 28.0651,2.8553 L 28.0712,2.8553 L 28.0712,2.8614 L 27.9126,2.8614 L 27.9065,2.8553 L 27.9004,2.8553 L 27.8821,2.8372 L 27.8821,2.8311 L 27.8760,2.8250 L 27.8760,2.1218 L 27.8821,2.1157 L 27.8821,2.1097 L 27.8882,2.1036 L 27.8943,2.1036 L 27.8943,2.0976 L 27.9004,2.0915 L 27.9065,2.0915 L 27.9126,2.0854 L 28.7423,2.0854 L 28.7484,2.0915 L 28.7545,2.0915 L 28.7728,2.1097 L 28.7728,2.1157 L 28.7789,2.1218 L 28.7789,2.8372 L 28.7850,2.8372 L 28.7850,2.8493 L 28.7911,2.8493 L 28.7911,2.8553 L 28.7972,2.8553 L 28.7972,2.8614 L 28.6386,2.8614 L 28.6325,2.8553 L 28.6264,2.8553 L 28.6081,2.8372 L 28.6081,2.8311 L 28.6020,2.8250 L 28.6020,2.2552 L 28.6020,2.2370 Z" stroke="#000000" stroke-width="0.1197" stroke-linecap="round" stroke-linejoin="round" fill="#000000"/>
        <path d="M 29.6758,2.4128 L 29.1145,2.4128 L 29.1084,2.4067 L 29.1023,2.4067 L 29.1023,2.4007 L 29.0962,2.4007 L 29.0962,2.3885 L 29.0901,2.3885 L 29.0901,2.5401 L 29.0962,2.5401 L 29.0962,2.5522 L 29.1023,2.5522 L 29.1023,2.5583 L 29.1084,2.5583 L 29.1145,2.5643 L 29.6819,2.5643 L 29.6941,2.5522 L 29.7002,2.5522 L 29.7124,2.5401 L 29.7124,2.5340 L 29.7185,2.5280 L 29.7185,2.5219 L 29.7246,2.5159 L 29.7246,2.5037 L 29.7307,2.4977 L 29.7307,2.4734 L 29.7246,2.4674 L 29.7246,2.4492 L 29.7185,2.4492 L 29.7185,2.4431 L 29.7002,2.4249 L 29.6941,2.4249 L 29.6941,2.4189 L 29.6880,2.4189 L 29.6819,2.4128 L 29.6758,2.4128 Z" stroke="#000000" stroke-width="0.1197" stroke-linecap="round" stroke-linejoin="round" fill="#000000"/>
        <path d="M 30.0968,2.2370 L 29.9137,2.2370 L 29.9076,2.2309 L 29.9015,2.2309 L 29.8832,2.2127 L 29.8832,2.2067 L 29.8771,2.2006 L 29.8771,2.1218 L 29.8832,2.1157 L 29.8832,2.1097 L 29.8893,2.1036 L 29.8954,2.1036 L 29.8954,2.0976 L 29.9015,2.0915 L 29.9076,2.0915 L 29.9137,2.0854 L 30.7435,2.0854 L 30.7496,2.0915 L 30.7557,2.0915 L 30.7740,2.1097 L 30.7740,2.1157 L 30.7801,2.1218 L 30.7801,2.2612 L 30.7740,2.2612 L 30.7740,2.2552 L 30.7679,2.2552 L 30.7679,2.2491 L 30.7618,2.2491 L 30.7618,2.2430 L 30.7496,2.2430 L 30.7496,2.2370 L 30.2981,2.2370 L 30.2981,2.2430 L 30.2859,2.2430 L 30.2859,2.2491 L 30.2798,2.2491 L 30.2798,2.2612 L 30.2737,2.2612 L 30.2737,2.8372 L 30.2798,2.8372 L 30.2798,2.8493 L 30.2859,2.8493 L 30.2859,2.8553 L 30.2920,2.8553 L 30.2920,2.8614 L 30.1334,2.8614 L 30.1273,2.8553 L 30.1212,2.8553 L 30.1029,2.8372 L 30.1029,2.8311 L 30.0968,2.8250 L 30.0968,2.2552 L 30.0968,2.2370 Z" stroke="#000000" stroke-width="0.1197" stroke-linecap="round" stroke-linejoin="round" fill="#000000"/>
        <path d="M 29.7368,2.7098 L 29.7490,2.7098 L 29.7490,2.7038 L 29.7612,2.7038 L 29.7612,2.6977 L 29.7673,2.6977 L 29.7673,2.6917 L 29.7734,2.6917 L 29.7734,2.6856 L 29.7795,2.6856 L 29.7795,2.8250 L 29.7734,2.8311 L 29.7734,2.8372 L 29.7673,2.8432 L 29.7673,2.8493 L 29.7612,2.8493 L 29.7551,2.8553 L 29.7490,2.8553 L 29.7429,2.8614 L 28.9132,2.8614 L 28.9071,2.8553 L 28.9010,2.8553 L 28.8827,2.8372 L 28.8827,2.8311 L 28.8765,2.8250 L 28.8765,2.1218 L 28.8827,2.1157 L 28.8827,2.1097 L 28.8888,2.1036 L 28.8949,2.1036 L 28.8949,2.0976 L 28.9010,2.0915 L 28.9071,2.0915 L 28.9132,2.0854 L 29.7429,2.0854 L 29.7490,2.0915 L 29.7551,2.0915 L 29.7734,2.1097 L 29.7734,2.1157 L 29.7795,2.1218 L 29.7795,2.2612 L 29.7734,2.2612 L 29.7734,2.2552 L 29.7673,2.2552 L 29.7673,2.2491 L 29.7612,2.2491 L 29.7612,2.2430 L 29.7490,2.2430 L 29.7490,2.2370 L 29.0779,2.2370 L 29.0779,2.2430 L 29.0657,2.2430 L 29.0657,2.2491 L 29.0596,2.2491 L 29.0596,2.2612 L 29.0535,2.2612 L 29.0535,2.7098 L 29.7307,2.7098 L 29.7368,2.7098 Z" stroke="#000000" stroke-width="0.1197" stroke-linecap="round" stroke-linejoin="round" fill="#000000"/>
        <path d="M 24.8620,2.6371 L 24.8620,2.8614 L 25.1549,2.8614 L 25.1549,2.6371 L 24.8620,2.6371 Z" stroke="#ED3440" stroke-width="0.1197" stroke-linecap="round" stroke-linejoin="round" fill="#ED3440"/>
        <path d="M 24.5570,2.3643 L 24.8071,2.3643 L 24.8071,2.5825 L 24.5570,2.5825 L 24.5570,2.3643 Z" stroke="#ED3440" stroke-width="0.1197" stroke-linecap="round" stroke-linejoin="round" fill="#ED3440"/>
        <path d="M 25.2098,2.6371 L 25.2098,2.8614 L 25.3013,2.8614 L 25.3074,2.8553 L 25.3318,2.8553 L 25.3379,2.8493 L 25.3501,2.8493 L 25.3623,2.8432 L 25.3684,2.8372 L 25.3806,2.8311 L 25.3928,2.8190 L 25.4050,2.8129 L 25.4111,2.8068 L 25.4172,2.7947 L 25.4233,2.7887 L 25.4477,2.7402 L 25.4477,2.7280 L 25.4538,2.7098 L 25.4538,2.6917 L 25.4599,2.6735 L 25.4599,2.6371 L 25.2159,2.6371 L 25.2098,2.6371 Z" stroke="#ED3440" stroke-width="0.1197" stroke-linecap="round" stroke-linejoin="round" fill="#ED3440"/>
        <path d="M 25.2098,2.3643 L 25.4599,2.3643 L 25.4599,2.5825 L 25.2098,2.5825 L 25.2098,2.3643 Z" stroke="#ED3440" stroke-width="0.1197" stroke-linecap="round" stroke-linejoin="round" fill="#ED3440"/>
        <path d="M 24.8071,2.6371 L 24.8071,2.8614 L 24.7156,2.8614 L 24.7095,2.8553 L 24.6851,2.8553 L 24.6790,2.8493 L 24.6668,2.8493 L 24.6546,2.8432 L 24.6485,2.8372 L 24.6363,2.8311 L 24.6241,2.8190 L 24.6119,2.8129 L 24.6058,2.8068 L 24.5997,2.7947 L 24.5936,2.7887 L 24.5692,2.7402 L 24.5692,2.7280 L 24.5631,2.7098 L 24.5631,2.6917 L 24.5570,2.6735 L 24.5570,2.6371 L 24.8010,2.6371 L 24.8071,2.6371 Z" stroke="#ED3440" stroke-width="0.1197" stroke-linecap="round" stroke-linejoin="round" fill="#ED3440"/>
        <path d="M 24.8620,2.0854 L 24.8620,2.3097 L 25.1549,2.3097 L 25.1549,2.0854 L 24.8620,2.0854 Z" stroke="#ED3440" stroke-width="0.1197" stroke-linecap="round" stroke-linejoin="round" fill="#ED3440"/>
        <path d="M 25.2098,2.3097 L 25.2098,2.0854 L 25.3013,2.0854 L 25.3074,2.0915 L 25.3318,2.0915 L 25.3379,2.0976 L 25.3501,2.0976 L 25.3623,2.1036 L 25.3684,2.1097 L 25.3806,2.1157 L 25.3928,2.1279 L 25.4050,2.1339 L 25.4111,2.1400 L 25.4172,2.1521 L 25.4233,2.1582 L 25.4477,2.2067 L 25.4477,2.2188 L 25.4538,2.2370 L 25.4538,2.2552 L 25.4599,2.2734 L 25.4599,2.3097 L 25.2159,2.3097 L 25.2098,2.3097 Z" stroke="#ED3440" stroke-width="0.1197" stroke-linecap="round" stroke-linejoin="round" fill="#ED3440"/>
        <path d="M 24.8071,2.3097 L 24.8071,2.0854 L 24.7156,2.0854 L 24.7095,2.0915 L 24.6851,2.0915 L 24.6790,2.0976 L 24.6668,2.0976 L 24.6546,2.1036 L 24.6485,2.1097 L 24.6363,2.1157 L 24.6241,2.1279 L 24.6119,2.1339 L 24.6058,2.1400 L 24.5997,2.1521 L 24.5936,2.1582 L 24.5692,2.2067 L 24.5692,2.2188 L 24.5631,2.2370 L 24.5631,2.2552 L 24.5570,2.2734 L 24.5570,2.3097 L 24.8010,2.3097 L 24.8071,2.3097 Z" stroke="#ED3440" stroke-width="0.1197" stroke-linecap="round" stroke-linejoin="round" fill="#ED3440"/>
        <text font-family="Symbol" fill="#000000" style="white-space:pre;" text-anchor="start" x="30.5732" y="2.8600" font-size="0.4807"><![CDATA[]]></text>
        <text font-family="Arial" fill="#000000" style="white-space:pre;" font-weight="400" text-anchor="start" x="43.2872" y="3.2672" font-size="0.1354"><![CDATA[FortiSwitch 124D-]]></text>
        <text font-family="Arial" fill="#000000" style="white-space:pre;" font-weight="400" text-anchor="start" x="34.0800" y="3.6855" font-size="0.0745"><![CDATA[MGMT]]></text>
        <text font-family="Arial" fill="#000000" style="white-space:pre;" font-weight="400" text-anchor="start" x="43.2195" y="3.7734" font-size="0.0948"><![CDATA[25]]></text>
        <text font-family="Arial" fill="#000000" style="white-space:pre;" font-weight="400" text-anchor="start" x="44.1334" y="3.7734" font-size="0.0948"><![CDATA[26]]></text>
        <text font-family="Arial" fill="#FF0000" style="white-space:pre;" font-weight="400" text-anchor="start" x="44.3703" y="3.2672" font-size="0.1354"><![CDATA[POE]]></text>
        <path d="M 33.5155,1.5760 L 32.6490,1.5760 L 32.6490,1.9916 L 33.5155,1.9916 L 33.5155,1.5760 Z" stroke="#000000" stroke-width="0.1197" stroke-linecap="round" stroke-linejoin="round" fill="#83FF00"/>
        <text font-family="Arial" fill="#000000" style="white-space:pre;" font-weight="400" text-anchor="start" x="43.2792" y="3.5476" font-size="0.1702"><![CDATA[POWER]]></text>
        <path d="M 33.5155,2.8229 L 32.6490,2.8229 L 32.6490,3.2385 L 33.5155,3.2385 L 33.5155,2.8229 Z" stroke="#000000" stroke-width="0.1197" stroke-linecap="round" stroke-linejoin="round" fill="#FF0000"/>
        <path d="M 33.5155,4.1045 L 32.6490,4.1045 L 32.6490,4.5201 L 33.5155,4.5201 L 33.5155,4.1045 Z" stroke="#000000" stroke-width="0.1197" stroke-linecap="round" stroke-linejoin="round" fill="#FFFF00"/>
        <path d="M 33.5155,5.3514 L 32.6490,5.3514 L 32.6490,5.7670 L 33.5155,5.7670 L 33.5155,5.3514 Z" stroke="#000000" stroke-width="0.1197" stroke-linecap="round" stroke-linejoin="round" fill="#83FF00"/>
        <path d="M 33.5155,7.7760 L 32.6490,7.7760 L 32.6490,8.1916 L 33.5155,8.1916 L 33.5155,7.7760 Z" stroke="#000000" stroke-width="0.1197" stroke-linecap="round" stroke-linejoin="round" fill="#83FF00"/>
        <text font-family="Arial" fill="#000000" style="white-space:pre;" font-weight="400" text-anchor="start" x="43.2792" y="10.1286" font-size="0.1702"><![CDATA[ALARM]]></text>
        <text font-family="Arial" fill="#000000" style="white-space:pre;" font-weight="400" text-anchor="start" x="43.2792" y="10.5269" font-size="0.1702"><![CDATA[PoE MAX]]></text>
        <text font-family="Arial" fill="#000000" style="white-space:pre;" font-weight="400" text-anchor="start" x="43.2792" y="10.9079" font-size="0.1702"><![CDATA[RPS]]></text>
        <text font-family="Arial" fill="#000000" style="white-space:pre;" font-weight="400" text-anchor="start" x="43.2792" y="11.6526" font-size="0.1702"><![CDATA[MGMT]]></text>
        <ellipse cx="36.6104" cy="9.2199" rx="0.2057" ry="0.2111" fill="#000000" stroke="#000000" stroke-width="0.1197" stroke-linecap="round" stroke-linejoin="round"/>
        <ellipse cx="36.6104" cy="9.2199" rx="0.2057" ry="0.2111" fill="none" stroke="#0A0A0A" stroke-width="0.1197" stroke-linecap="round" stroke-linejoin="round"/>
        <text font-family="Arial" fill="#FF0000" style="white-space:pre;" font-weight="400" text-anchor="start" x="44.2578" y="10.1400" font-size="0.1309"><![CDATA[1]]></text>
        <text font-family="Arial" fill="#FF0000" style="white-space:pre;" font-weight="400" text-anchor="start" x="44.2765" y="11.5852" font-size="0.1309"><![CDATA[2]]></text>
        <path d="M 42.2088,2.8210 L 41.1798,2.8210 L 41.1798,3.1851 L 42.2088,3.1851 L 42.2088,2.8210 Z" stroke="#000000" stroke-width="0.1197" stroke-linecap="round" stroke-linejoin="round" fill="#FFFF00"/>
        <path d="M 44.7263,2.8210 L 43.6972,2.8210 L 43.6972,3.1851 L 44.7263,3.1851 L 44.7263,2.8210 Z" stroke="#000000" stroke-width="0.1197" stroke-linecap="round" stroke-linejoin="round" fill="#83FF00"/>
        <path d="M 42.2088,9.4642 L 41.1798,9.4642 L 41.1798,9.8282 L 42.2088,9.8282 L 42.2088,9.4642 Z" stroke="#000000" stroke-width="0.1197" stroke-linecap="round" stroke-linejoin="round" fill="#FFFF00"/>
        <path d="M 44.7263,9.4642 L 43.6972,9.4642 L 43.6972,9.8282 L 44.7263,9.8282 L 44.7263,9.4642 Z" stroke="#000000" stroke-width="0.1197" stroke-linecap="round" stroke-linejoin="round" fill="#83FF00"/>
        <text font-family="Arial" fill="#FF0000" style="white-space:pre;" font-weight="400" text-anchor="start" x="60.5477" y="11.3337" font-size="0.2573"><![CDATA[3]]></text>
        <text font-family="Arial" fill="#FF0000" style="white-space:pre;" font-weight="400" text-anchor="start" x="60.5844" y="13.6694" font-size="0.2573"><![CDATA[4]]></text>
        <path d="M 46.5271,2.8210 L 45.4980,2.8210 L 45.4980,3.1851 L 46.5271,3.1851 L 46.5271,2.8210 Z" stroke="#000000" stroke-width="0.1197" stroke-linecap="round" stroke-linejoin="round" fill="#FFFF00"/>
        <path d="M 49.0445,2.8210 L 48.0155,2.8210 L 48.0155,3.1851 L 49.0445,3.1851 L 49.0445,2.8210 Z" stroke="#000000" stroke-width="0.1197" stroke-linecap="round" stroke-linejoin="round" fill="#83FF00"/>
        <path d="M 46.5271,9.4642 L 45.4980,9.4642 L 45.4980,9.8282 L 46.5271,9.8282 L 46.5271,9.4642 Z" stroke="#000000" stroke-width="0.1197" stroke-linecap="round" stroke-linejoin="round" fill="#FFFF00"/>
        <path d="M 49.0445,9.4642 L 48.0155,9.4642 L 48.0155,9.8282 L 49.0445,9.8282 L 49.0445,9.4642 Z" stroke="#000000" stroke-width="0.1197" stroke-linecap="round" stroke-linejoin="round" fill="#83FF00"/>
        <text font-family="Arial" fill="#FF0000" style="white-space:pre;" font-weight="400" text-anchor="start" x="66.2992" y="11.3337" font-size="0.2573"><![CDATA[5]]></text>
        <text font-family="Arial" fill="#FF0000" style="white-space:pre;" font-weight="400" text-anchor="start" x="66.3360" y="13.6694" font-size="0.2573"><![CDATA[6]]></text>
        <path d="M 50.9005,2.8210 L 49.8714,2.8210 L 49.8714,3.1851 L 50.9005,3.1851 L 50.9005,2.8210 Z" stroke="#000000" stroke-width="0.1197" stroke-linecap="round" stroke-linejoin="round" fill="#FFFF00"/>
        <path d="M 53.4179,2.8210 L 52.3889,2.8210 L 52.3889,3.1851 L 53.4179,3.1851 L 53.4179,2.8210 Z" stroke="#000000" stroke-width="0.1197" stroke-linecap="round" stroke-linejoin="round" fill="#83FF00"/>
        <path d="M 50.9005,9.4642 L 49.8714,9.4642 L 49.8714,9.8282 L 50.9005,9.8282 L 50.9005,9.4642 Z" stroke="#000000" stroke-width="0.1197" stroke-linecap="round" stroke-linejoin="round" fill="#FFFF00"/>
        <path d="M 53.4179,9.4642 L 52.3889,9.4642 L 52.3889,9.8282 L 53.4179,9.8282 L 53.4179,9.4642 Z" stroke="#000000" stroke-width="0.1197" stroke-linecap="round" stroke-linejoin="round" fill="#83FF00"/>
        <text font-family="Arial" fill="#FF0000" style="white-space:pre;" font-weight="400" text-anchor="start" x="72.0875" y="11.3337" font-size="0.2573"><![CDATA[7]]></text>
        <text font-family="Arial" fill="#FF0000" style="white-space:pre;" font-weight="400" text-anchor="start" x="72.1243" y="13.6694" font-size="0.2573"><![CDATA[8]]></text>
        <path d="M 55.2187,2.8210 L 54.1897,2.8210 L 54.1897,3.1851 L 55.2187,3.1851 L 55.2187,2.8210 Z" stroke="#000000" stroke-width="0.1197" stroke-linecap="round" stroke-linejoin="round" fill="#FFFF00"/>
        <path d="M 57.7362,2.8210 L 56.7072,2.8210 L 56.7072,3.1851 L 57.7362,3.1851 L 57.7362,2.8210 Z" stroke="#000000" stroke-width="0.1197" stroke-linecap="round" stroke-linejoin="round" fill="#83FF00"/>
        <path d="M 55.2187,9.4642 L 54.1897,9.4642 L 54.1897,9.8282 L 55.2187,9.8282 L 55.2187,9.4642 Z" stroke="#000000" stroke-width="0.1197" stroke-linecap="round" stroke-linejoin="round" fill="#FFFF00"/>
        <path d="M 57.7362,9.4642 L 56.7072,9.4642 L 56.7072,9.8282 L 57.7362,9.8282 L 57.7362,9.4642 Z" stroke="#000000" stroke-width="0.1197" stroke-linecap="round" stroke-linejoin="round" fill="#83FF00"/>
        <text font-family="Arial" fill="#FF0000" style="white-space:pre;" font-weight="400" text-anchor="start" x="77.8391" y="11.3337" font-size="0.2573"><![CDATA[9]]></text>
        <text font-family="Arial" fill="#FF0000" style="white-space:pre;" font-weight="400" text-anchor="start" x="77.8024" y="13.6694" font-size="0.2573"><![CDATA[10]]></text>
        <path d="M 59.5921,2.8210 L 58.5631,2.8210 L 58.5631,3.1851 L 59.5921,3.1851 L 59.5921,2.8210 Z" stroke="#000000" stroke-width="0.1197" stroke-linecap="round" stroke-linejoin="round" fill="#FFFF00"/>
        <path d="M 62.1096,2.8210 L 61.0806,2.8210 L 61.0806,3.1851 L 62.1096,3.1851 L 62.1096,2.8210 Z" stroke="#000000" stroke-width="0.1197" stroke-linecap="round" stroke-linejoin="round" fill="#83FF00"/>
        <path d="M 59.5921,9.4642 L 58.5631,9.4642 L 58.5631,9.8282 L 59.5921,9.8282 L 59.5921,9.4642 Z" stroke="#000000" stroke-width="0.1197" stroke-linecap="round" stroke-linejoin="round" fill="#FFFF00"/>
        <path d="M 62.1096,9.4642 L 61.0806,9.4642 L 61.0806,9.8282 L 62.1096,9.8282 L 62.1096,9.4642 Z" stroke="#000000" stroke-width="0.1197" stroke-linecap="round" stroke-linejoin="round" fill="#83FF00"/>
        <text font-family="Arial" fill="#FF0000" style="white-space:pre;" font-weight="400" text-anchor="start" x="83.5539" y="11.3337" font-size="0.2573"><![CDATA[11]]></text>
        <text font-family="Arial" fill="#FF0000" style="white-space:pre;" font-weight="400" text-anchor="start" x="83.5907" y="13.6694" font-size="0.2573"><![CDATA[12]]></text>
        <path d="M 63.9104,2.8210 L 62.8814,2.8210 L 62.8814,3.1851 L 63.9104,3.1851 L 63.9104,2.8210 Z" stroke="#000000" stroke-width="0.1197" stroke-linecap="round" stroke-linejoin="round" fill="#FFFF00"/>
        <path d="M 66.4279,2.8210 L 65.3988,2.8210 L 65.3988,3.1851 L 66.4279,3.1851 L 66.4279,2.8210 Z" stroke="#000000" stroke-width="0.1197" stroke-linecap="round" stroke-linejoin="round" fill="#83FF00"/>
        <path d="M 63.9104,9.4642 L 62.8814,9.4642 L 62.8814,9.8282 L 63.9104,9.8282 L 63.9104,9.4642 Z" stroke="#000000" stroke-width="0.1197" stroke-linecap="round" stroke-linejoin="round" fill="#FFFF00"/>
        <path d="M 66.4279,9.4642 L 65.3988,9.4642 L 65.3988,9.8282 L 66.4279,9.8282 L 66.4279,9.4642 Z" stroke="#000000" stroke-width="0.1197" stroke-linecap="round" stroke-linejoin="round" fill="#83FF00"/>
        <text font-family="Arial" fill="#000000" style="white-space:pre;" font-weight="400" text-anchor="start" x="89.8016" y="11.3337" font-size="0.2573"><![CDATA[13]]></text>
        <text font-family="Arial" fill="#000000" style="white-space:pre;" font-weight="400" text-anchor="start" x="89.8384" y="13.6694" font-size="0.2573"><![CDATA[14]]></text>
        <path d="M 69.8090,2.8210 L 68.7799,2.8210 L 68.7799,3.1851 L 69.8090,3.1851 L 69.8090,2.8210 Z" stroke="#000000" stroke-width="0.1197" stroke-linecap="round" stroke-linejoin="round" fill="#83FF00"/>
        <path d="M 72.3264,2.8210 L 71.2974,2.8210 L 71.2974,3.1851 L 72.3264,3.1851 L 72.3264,2.8210 Z" stroke="#000000" stroke-width="0.1197" stroke-linecap="round" stroke-linejoin="round" fill="#83FF00"/>
        <path d="M 69.8090,9.4642 L 68.7799,9.4642 L 68.7799,9.8282 L 69.8090,9.8282 L 69.8090,9.4642 Z" stroke="#000000" stroke-width="0.1197" stroke-linecap="round" stroke-linejoin="round" fill="#83FF00"/>
        <path d="M 72.3264,9.4642 L 71.2974,9.4642 L 71.2974,9.8282 L 72.3264,9.8282 L 72.3264,9.4642 Z" stroke="#000000" stroke-width="0.1197" stroke-linecap="round" stroke-linejoin="round" fill="#83FF00"/>
        <text font-family="Arial" fill="#000000" style="white-space:pre;" font-weight="400" text-anchor="start" x="97.1151" y="11.3337" font-size="0.2573"><![CDATA[15]]></text>
        <text font-family="Arial" fill="#000000" style="white-space:pre;" font-weight="400" text-anchor="start" x="97.1519" y="13.6694" font-size="0.2573"><![CDATA[16]]></text>
        <path d="M 74.1272,2.8210 L 73.0982,2.8210 L 73.0982,3.1851 L 74.1272,3.1851 L 74.1272,2.8210 Z" stroke="#000000" stroke-width="0.1197" stroke-linecap="round" stroke-linejoin="round" fill="#83FF00"/>
        <path d="M 76.6447,2.8210 L 75.6157,2.8210 L 75.6157,3.1851 L 76.6447,3.1851 L 76.6447,2.8210 Z" stroke="#000000" stroke-width="0.1197" stroke-linecap="round" stroke-linejoin="round" fill="#83FF00"/>
        <path d="M 74.1272,9.4642 L 73.0982,9.4642 L 73.0982,9.8282 L 74.1272,9.8282 L 74.1272,9.4642 Z" stroke="#000000" stroke-width="0.1197" stroke-linecap="round" stroke-linejoin="round" fill="#83FF00"/>
        <path d="M 76.6447,9.4642 L 75.6157,9.4642 L 75.6157,9.8282 L 76.6447,9.8282 L 76.6447,9.4642 Z" stroke="#000000" stroke-width="0.1197" stroke-linecap="round" stroke-linejoin="round" fill="#83FF00"/>
        <text font-family="Arial" fill="#000000" style="white-space:pre;" font-weight="400" text-anchor="start" x="102.8667" y="11.3337" font-size="0.2573"><![CDATA[17]]></text>
        <text font-family="Arial" fill="#000000" style="white-space:pre;" font-weight="400" text-anchor="start" x="102.9035" y="13.6694" font-size="0.2573"><![CDATA[18]]></text>
        <path d="M 78.5006,2.8210 L 77.4716,2.8210 L 77.4716,3.1851 L 78.5006,3.1851 L 78.5006,2.8210 Z" stroke="#000000" stroke-width="0.1197" stroke-linecap="round" stroke-linejoin="round" fill="#83FF00"/>
        <path d="M 81.0181,2.8210 L 79.9891,2.8210 L 79.9891,3.1851 L 81.0181,3.1851 L 81.0181,2.8210 Z" stroke="#000000" stroke-width="0.1197" stroke-linecap="round" stroke-linejoin="round" fill="#83FF00"/>
        <path d="M 78.5006,9.4642 L 77.4716,9.4642 L 77.4716,9.8282 L 78.5006,9.8282 L 78.5006,9.4642 Z" stroke="#000000" stroke-width="0.1197" stroke-linecap="round" stroke-linejoin="round" fill="#83FF00"/>
        <path d="M 81.0181,9.4642 L 79.9891,9.4642 L 79.9891,9.8282 L 81.0181,9.8282 L 81.0181,9.4642 Z" stroke="#000000" stroke-width="0.1197" stroke-linecap="round" stroke-linejoin="round" fill="#83FF00"/>
        <text font-family="Arial" fill="#000000" style="white-space:pre;" font-weight="400" text-anchor="start" x="108.6550" y="11.3337" font-size="0.2573"><![CDATA[19]]></text>
        <text font-family="Arial" fill="#000000" style="white-space:pre;" font-weight="400" text-anchor="start" x="108.6918" y="13.6694" font-size="0.2573"><![CDATA[20]]></text>
        <path d="M 82.8189,2.8210 L 81.7899,2.8210 L 81.7899,3.1851 L 82.8189,3.1851 L 82.8189,2.8210 Z" stroke="#000000" stroke-width="0.1197" stroke-linecap="round" stroke-linejoin="round" fill="#83FF00"/>
        <path d="M 85.3364,2.8210 L 84.3073,2.8210 L 84.3073,3.1851 L 85.3364,3.1851 L 85.3364,2.8210 Z" stroke="#000000" stroke-width="0.1197" stroke-linecap="round" stroke-linejoin="round" fill="#83FF00"/>
        <path d="M 82.8189,9.4642 L 81.7899,9.4642 L 81.7899,9.8282 L 82.8189,9.8282 L 82.8189,9.4642 Z" stroke="#000000" stroke-width="0.1197" stroke-linecap="round" stroke-linejoin="round" fill="#83FF00"/>
        <path d="M 85.3364,9.4642 L 84.3073,9.4642 L 84.3073,9.8282 L 85.3364,9.8282 L 85.3364,9.4642 Z" stroke="#000000" stroke-width="0.1197" stroke-linecap="round" stroke-linejoin="round" fill="#83FF00"/>
        <text font-family="Arial" fill="#000000" style="white-space:pre;" font-weight="400" text-anchor="start" x="114.4066" y="11.3337" font-size="0.2573"><![CDATA[21]]></text>
        <text font-family="Arial" fill="#000000" style="white-space:pre;" font-weight="400" text-anchor="start" x="114.4433" y="13.6694" font-size="0.2573"><![CDATA[22]]></text>
        <path d="M 87.1923,2.8210 L 86.1633,2.8210 L 86.1633,3.1851 L 87.1923,3.1851 L 87.1923,2.8210 Z" stroke="#000000" stroke-width="0.1197" stroke-linecap="round" stroke-linejoin="round" fill="#83FF00"/>
        <path d="M 89.7098,2.8210 L 88.6807,2.8210 L 88.6807,3.1851 L 89.7098,3.1851 L 89.7098,2.8210 Z" stroke="#000000" stroke-width="0.1197" stroke-linecap="round" stroke-linejoin="round" fill="#83FF00"/>
        <path d="M 87.1923,9.4642 L 86.1633,9.4642 L 86.1633,9.8282 L 87.1923,9.8282 L 87.1923,9.4642 Z" stroke="#000000" stroke-width="0.1197" stroke-linecap="round" stroke-linejoin="round" fill="#83FF00"/>
        <path d="M 89.7098,9.4642 L 88.6807,9.4642 L 88.6807,9.8282 L 89.7098,9.8282 L 89.7098,9.4642 Z" stroke="#000000" stroke-width="0.1197" stroke-linecap="round" stroke-linejoin="round" fill="#83FF00"/>
        <text font-family="Arial" fill="#000000" style="white-space:pre;" font-weight="400" text-anchor="start" x="120.1949" y="11.3337" font-size="0.2573"><![CDATA[23]]></text>
        <text font-family="Arial" fill="#000000" style="white-space:pre;" font-weight="400" text-anchor="start" x="120.2317" y="13.6694" font-size="0.2573"><![CDATA[24]]></text>
        <path d="M 91.5106,2.8210 L 90.4815,2.8210 L 90.4815,3.1851 L 91.5106,3.1851 L 91.5106,2.8210 Z" stroke="#000000" stroke-width="0.1197" stroke-linecap="round" stroke-linejoin="round" fill="#83FF00"/>
        <path d="M 94.0280,2.8210 L 92.9990,2.8210 L 92.9990,3.1851 L 94.0280,3.1851 L 94.0280,2.8210 Z" stroke="#000000" stroke-width="0.1197" stroke-linecap="round" stroke-linejoin="round" fill="#83FF00"/>
        <path d="M 91.5106,9.4642 L 90.4815,9.4642 L 90.4815,9.8282 L 91.5106,9.8282 L 91.5106,9.4642 Z" stroke="#000000" stroke-width="0.1197" stroke-linecap="round" stroke-linejoin="round" fill="#83FF00"/>
        <path d="M 94.0280,9.4642 L 92.9990,9.4642 L 92.9990,9.8282 L 94.0280,9.8282 L 94.0280,9.4642 Z" stroke="#000000" stroke-width="0.1197" stroke-linecap="round" stroke-linejoin="round" fill="#83FF00"/>
        <path d="M 97.0649,9.2307 L 96.1984,9.2307 L 96.1984,9.6463 L 97.0649,9.6463 L 97.0649,9.2307 Z" stroke="#000000" stroke-width="0.1197" stroke-linecap="round" stroke-linejoin="round" fill="#83FF00"/>
        <text font-family="Arial" fill="#000000" style="white-space:pre;" font-weight="400" text-anchor="start" x="123.7565" y="13.3325" font-size="0.1702"><![CDATA[LINK/ACT]]></text>
        <path d="M 104.9099,9.2307 L 104.0434,9.2307 L 104.0434,9.6463 L 104.9099,9.6463 L 104.9099,9.2307 Z" stroke="#000000" stroke-width="0.1197" stroke-linecap="round" stroke-linejoin="round" fill="#83FF00"/>
        <text font-family="Arial" fill="#000000" style="white-space:pre;" font-weight="400" text-anchor="start" x="133.7679" y="13.3325" font-size="0.1702"><![CDATA[LINK/ACT]]></text>
        <path d="M 23.6690,9.7618 L 23.6690,7.6373 L 24.5595,7.6373 L 24.5595,7.1374 L 24.9213,7.1374 L 24.9213,6.6375 L 25.9788,6.6375 L 25.9788,7.1374 L 26.3406,7.1374 L 26.3406,7.6373 L 27.2311,7.6373 L 27.2311,9.7618 L 23.6690,9.7618 Z" stroke="#161616" stroke-width="0.1197" stroke-linecap="round" stroke-linejoin="round" fill="#000000"/>
        <path d="M 41.1737,5.8321 L 41.1737,3.7075 L 42.0642,3.7075 L 42.0642,3.2076 L 42.4260,3.2076 L 42.4260,2.7078 L 43.4835,2.7078 L 43.4835,3.2076 L 43.8453,3.2076 L 43.8453,3.7075 L 44.7359,3.7075 L 44.7359,5.8321 L 41.1737,5.8321 Z" stroke="#161616" stroke-width="0.1197" stroke-linecap="round" stroke-linejoin="round" fill="#000000"/>
        <path d="M 41.1737,6.8735 L 41.1737,8.9981 L 42.0642,8.9981 L 42.0642,9.4980 L 42.4260,9.4980 L 42.4260,9.9979 L 43.4835,9.9979 L 43.4835,9.4980 L 43.8453,9.4980 L 43.8453,8.9981 L 44.7359,8.9981 L 44.7359,6.8735 L 41.1737,6.8735 Z" stroke="#161616" stroke-width="0.1197" stroke-linecap="round" stroke-linejoin="round" fill="#000000"/>
        <path d="M 45.4873,5.8321 L 45.4873,3.7075 L 46.3778,3.7075 L 46.3778,3.2076 L 46.7396,3.2076 L 46.7396,2.7078 L 47.7971,2.7078 L 47.7971,3.2076 L 48.1589,3.2076 L 48.1589,3.7075 L 49.0494,3.7075 L 49.0494,5.8321 L 45.4873,5.8321 Z" stroke="#161616" stroke-width="0.1197" stroke-linecap="round" stroke-linejoin="round" fill="#000000"/>
        <path d="M 45.4873,6.8735 L 45.4873,8.9981 L 46.3778,8.9981 L 46.3778,9.4980 L 46.7396,9.4980 L 46.7396,9.9979 L 47.7971,9.9979 L 47.7971,9.4980 L 48.1589,9.4980 L 48.1589,8.9981 L 49.0494,8.9981 L 49.0494,6.8735 L 45.4873,6.8735 Z" stroke="#161616" stroke-width="0.1197" stroke-linecap="round" stroke-linejoin="round" fill="#000000"/>
        <path d="M 49.8704,5.8321 L 49.8704,3.7075 L 50.7609,3.7075 L 50.7609,3.2076 L 51.1227,3.2076 L 51.1227,2.7078 L 52.1803,2.7078 L 52.1803,3.2076 L 52.5420,3.2076 L 52.5420,3.7075 L 53.4326,3.7075 L 53.4326,5.8321 L 49.8704,5.8321 Z" stroke="#161616" stroke-width="0.1197" stroke-linecap="round" stroke-linejoin="round" fill="#000000"/>
        <path d="M 49.8704,6.8735 L 49.8704,8.9981 L 50.7609,8.9981 L 50.7609,9.4980 L 51.1227,9.4980 L 51.1227,9.9979 L 52.1803,9.9979 L 52.1803,9.4980 L 52.5420,9.4980 L 52.5420,8.9981 L 53.4326,8.9981 L 53.4326,6.8735 L 49.8704,6.8735 Z" stroke="#161616" stroke-width="0.1197" stroke-linecap="round" stroke-linejoin="round" fill="#000000"/>
        <path d="M 54.1840,5.8321 L 54.1840,3.7075 L 55.0745,3.7075 L 55.0745,3.2076 L 55.4363,3.2076 L 55.4363,2.7078 L 56.4938,2.7078 L 56.4938,3.2076 L 56.8556,3.2076 L 56.8556,3.7075 L 57.7461,3.7075 L 57.7461,5.8321 L 54.1840,5.8321 Z" stroke="#161616" stroke-width="0.1197" stroke-linecap="round" stroke-linejoin="round" fill="#000000"/>
        <path d="M 54.1840,6.8735 L 54.1840,8.9981 L 55.0745,8.9981 L 55.0745,9.4980 L 55.4363,9.4980 L 55.4363,9.9979 L 56.4938,9.9979 L 56.4938,9.4980 L 56.8556,9.4980 L 56.8556,8.9981 L 57.7461,8.9981 L 57.7461,6.8735 L 54.1840,6.8735 Z" stroke="#161616" stroke-width="0.1197" stroke-linecap="round" stroke-linejoin="round" fill="#000000"/>
        <path d="M 58.5671,5.8321 L 58.5671,3.7075 L 59.4577,3.7075 L 59.4577,3.2076 L 59.8194,3.2076 L 59.8194,2.7078 L 60.8770,2.7078 L 60.8770,3.2076 L 61.2387,3.2076 L 61.2387,3.7075 L 62.1293,3.7075 L 62.1293,5.8321 L 58.5671,5.8321 Z" stroke="#161616" stroke-width="0.1197" stroke-linecap="round" stroke-linejoin="round" fill="#000000"/>
        <path d="M 58.5671,6.8735 L 58.5671,8.9981 L 59.4577,8.9981 L 59.4577,9.4980 L 59.8194,9.4980 L 59.8194,9.9979 L 60.8770,9.9979 L 60.8770,9.4980 L 61.2387,9.4980 L 61.2387,8.9981 L 62.1293,8.9981 L 62.1293,6.8735 L 58.5671,6.8735 Z" stroke="#161616" stroke-width="0.1197" stroke-linecap="round" stroke-linejoin="round" fill="#000000"/>
        <path d="M 62.8807,5.8321 L 62.8807,3.7075 L 63.7712,3.7075 L 63.7712,3.2076 L 64.1330,3.2076 L 64.1330,2.7078 L 65.1905,2.7078 L 65.1905,3.2076 L 65.5523,3.2076 L 65.5523,3.7075 L 66.4429,3.7075 L 66.4429,5.8321 L 62.8807,5.8321 Z" stroke="#161616" stroke-width="0.1197" stroke-linecap="round" stroke-linejoin="round" fill="#000000"/>
        <path d="M 62.8807,6.8735 L 62.8807,8.9981 L 63.7712,8.9981 L 63.7712,9.4980 L 64.1330,9.4980 L 64.1330,9.9979 L 65.1905,9.9979 L 65.1905,9.4980 L 65.5523,9.4980 L 65.5523,8.9981 L 66.4429,8.9981 L 66.4429,6.8735 L 62.8807,6.8735 Z" stroke="#161616" stroke-width="0.1197" stroke-linecap="round" stroke-linejoin="round" fill="#000000"/>
        <path d="M 68.7666,5.8321 L 68.7666,3.7075 L 69.6572,3.7075 L 69.6572,3.2076 L 70.0189,3.2076 L 70.0189,2.7078 L 71.0765,2.7078 L 71.0765,3.2076 L 71.4382,3.2076 L 71.4382,3.7075 L 72.3288,3.7075 L 72.3288,5.8321 L 68.7666,5.8321 Z" stroke="#161616" stroke-width="0.1197" stroke-linecap="round" stroke-linejoin="round" fill="#000000"/>
        <path d="M 68.7666,6.8735 L 68.7666,8.9981 L 69.6572,8.9981 L 69.6572,9.4980 L 70.0189,9.4980 L 70.0189,9.9979 L 71.0765,9.9979 L 71.0765,9.4980 L 71.4382,9.4980 L 71.4382,8.9981 L 72.3288,8.9981 L 72.3288,6.8735 L 68.7666,6.8735 Z" stroke="#161616" stroke-width="0.1197" stroke-linecap="round" stroke-linejoin="round" fill="#000000"/>
        <path d="M 73.0941,5.8321 L 73.0941,3.7075 L 73.9846,3.7075 L 73.9846,3.2076 L 74.3464,3.2076 L 74.3464,2.7078 L 75.4039,2.7078 L 75.4039,3.2076 L 75.7657,3.2076 L 75.7657,3.7075 L 76.6563,3.7075 L 76.6563,5.8321 L 73.0941,5.8321 Z" stroke="#161616" stroke-width="0.1197" stroke-linecap="round" stroke-linejoin="round" fill="#000000"/>
        <path d="M 73.0941,6.8735 L 73.0941,8.9981 L 73.9846,8.9981 L 73.9846,9.4980 L 74.3464,9.4980 L 74.3464,9.9979 L 75.4039,9.9979 L 75.4039,9.4980 L 75.7657,9.4980 L 75.7657,8.9981 L 76.6563,8.9981 L 76.6563,6.8735 L 73.0941,6.8735 Z" stroke="#161616" stroke-width="0.1197" stroke-linecap="round" stroke-linejoin="round" fill="#000000"/>
        <path d="M 77.4633,5.8321 L 77.4633,3.7075 L 78.3539,3.7075 L 78.3539,3.2076 L 78.7156,3.2076 L 78.7156,2.7078 L 79.7732,2.7078 L 79.7732,3.2076 L 80.1350,3.2076 L 80.1350,3.7075 L 81.0255,3.7075 L 81.0255,5.8321 L 77.4633,5.8321 Z" stroke="#161616" stroke-width="0.1197" stroke-linecap="round" stroke-linejoin="round" fill="#000000"/>
        <path d="M 77.4633,6.8735 L 77.4633,8.9981 L 78.3539,8.9981 L 78.3539,9.4980 L 78.7156,9.4980 L 78.7156,9.9979 L 79.7732,9.9979 L 79.7732,9.4980 L 80.1350,9.4980 L 80.1350,8.9981 L 81.0255,8.9981 L 81.0255,6.8735 L 77.4633,6.8735 Z" stroke="#161616" stroke-width="0.1197" stroke-linecap="round" stroke-linejoin="round" fill="#000000"/>
        <path d="M 81.7908,5.8321 L 81.7908,3.7075 L 82.6813,3.7075 L 82.6813,3.2076 L 83.0431,3.2076 L 83.0431,2.7078 L 84.1007,2.7078 L 84.1007,3.2076 L 84.4624,3.2076 L 84.4624,3.7075 L 85.3530,3.7075 L 85.3530,5.8321 L 81.7908,5.8321 Z" stroke="#161616" stroke-width="0.1197" stroke-linecap="round" stroke-linejoin="round" fill="#000000"/>
        <path d="M 81.7908,6.8735 L 81.7908,8.9981 L 82.6813,8.9981 L 82.6813,9.4980 L 83.0431,9.4980 L 83.0431,9.9979 L 84.1007,9.9979 L 84.1007,9.4980 L 84.4624,9.4980 L 84.4624,8.9981 L 85.3530,8.9981 L 85.3530,6.8735 L 81.7908,6.8735 Z" stroke="#161616" stroke-width="0.1197" stroke-linecap="round" stroke-linejoin="round" fill="#000000"/>
        <path d="M 86.1600,5.8321 L 86.1600,3.7075 L 87.0506,3.7075 L 87.0506,3.2076 L 87.4124,3.2076 L 87.4124,2.7078 L 88.4699,2.7078 L 88.4699,3.2076 L 88.8317,3.2076 L 88.8317,3.7075 L 89.7222,3.7075 L 89.7222,5.8321 L 86.1600,5.8321 Z" stroke="#161616" stroke-width="0.1197" stroke-linecap="round" stroke-linejoin="round" fill="#000000"/>
        <path d="M 86.1600,6.8735 L 86.1600,8.9981 L 87.0506,8.9981 L 87.0506,9.4980 L 87.4124,9.4980 L 87.4124,9.9979 L 88.4699,9.9979 L 88.4699,9.4980 L 88.8317,9.4980 L 88.8317,8.9981 L 89.7222,8.9981 L 89.7222,6.8735 L 86.1600,6.8735 Z" stroke="#161616" stroke-width="0.1197" stroke-linecap="round" stroke-linejoin="round" fill="#000000"/>
        <path d="M 90.4736,5.8321 L 90.4736,3.7075 L 91.3641,3.7075 L 91.3641,3.2076 L 91.7259,3.2076 L 91.7259,2.7078 L 92.7834,2.7078 L 92.7834,3.2076 L 93.1452,3.2076 L 93.1452,3.7075 L 94.0358,3.7075 L 94.0358,5.8321 L 90.4736,5.8321 Z" stroke="#161616" stroke-width="0.1197" stroke-linecap="round" stroke-linejoin="round" fill="#000000"/>
        <path d="M 90.4736,6.8735 L 90.4736,8.9981 L 91.3641,8.9981 L 91.3641,9.4980 L 91.7259,9.4980 L 91.7259,9.9979 L 92.7834,9.9979 L 92.7834,9.4980 L 93.1452,9.4980 L 93.1452,8.9981 L 94.0358,8.9981 L 94.0358,6.8735 L 90.4736,6.8735 Z" stroke="#161616" stroke-width="0.1197" stroke-linecap="round" stroke-linejoin="round" fill="#000000"/>
        <path d="M 102.7354,10.0447 L 98.7808,10.0447 L 98.7808,7.3707 L 102.7354,7.3707 L 102.7354,10.0447 Z" stroke="#000000" stroke-width="0.1197" stroke-linecap="round" stroke-linejoin="round" fill="none"/>
        <path d="M 110.4202,10.0447 L 106.4656,10.0447 L 106.4656,7.3707 L 110.4202,7.3707 L 110.4202,10.0447 Z" stroke="#000000" stroke-width="0.1197" stroke-linecap="round" stroke-linejoin="round" fill="none"/>
      </g>
      <!--emf-blob end-->
    </g>
  </g>
</svg>
