<svg xmlns="http://www.w3.org/2000/svg" xmlns:xlink="http://www.w3.org/1999/xlink" version="1.1" width="5.8896000000" height="2.6016000000" viewBox="0 0 106.0143 46.8264">
  <title><![CDATA[FSW-108F-FPOE]]></title>
  <g transform=" scale(4.000000) ">
    <!--converted by libvisio2svg-->
    <g transform=" translate(17.517400,0.720000) ">
      <!--emf-blob start-->
      <g transform="translate(-0.0000, -0.0000)">
        <path d="M 4.9307,2.4340 L 4.9307,3.3363 L 5.8022,3.3363 " stroke="#000000" stroke-width="0.1201" stroke-linecap="round" stroke-linejoin="round" fill="none"/>
        <path d="M 5.8022,2.4340 L 7.5222,2.4340 " stroke="#000000" stroke-width="0.1201" stroke-linecap="round" stroke-linejoin="round" fill="none"/>
        <path d="M 6.6507,2.4340 L 6.6507,3.3363 " stroke="#000000" stroke-width="0.1201" stroke-linecap="round" stroke-linejoin="round" fill="none"/>
        <path d="M 7.9580,2.4340 L 7.9580,3.3363 " stroke="#000000" stroke-width="0.1201" stroke-linecap="round" stroke-linejoin="round" fill="none"/>
        <path d="M 7.9580,2.4340 L 7.9580,3.3363 " stroke="#000000" stroke-width="0.1201" stroke-linecap="round" stroke-linejoin="round" fill="none"/>
        <path d="M 8.8065,3.3363 L 8.8065,2.4340 L 9.6780,3.3363 L 10.5495,2.4340 L 10.5495,3.3363 " stroke="#000000" stroke-width="0.1201" stroke-linecap="round" stroke-linejoin="round" fill="none"/>
        <path d="M 10.9623,3.3363 L 11.8337,2.4340 L 12.7052,3.3363 " stroke="#000000" stroke-width="0.1201" stroke-linecap="round" stroke-linejoin="round" fill="none"/>
        <path d="M 11.1916,3.1107 L 12.4759,3.1107 " stroke="#000000" stroke-width="0.1201" stroke-linecap="round" stroke-linejoin="round" fill="none"/>
        <path d="M 2.3392,3.3363 L 3.2107,2.4340 L 4.0822,3.3363 " stroke="#000000" stroke-width="0.1201" stroke-linecap="round" stroke-linejoin="round" fill="none"/>
        <path d="M 2.5686,3.1107 L 3.8528,3.1107 " stroke="#000000" stroke-width="0.1201" stroke-linecap="round" stroke-linejoin="round" fill="none"/>
        <path d="M 70.9233,0.0281 L 0.0281,0.0281 L 0.0281,12.4343 L 70.9233,12.4343 L 70.9233,0.0281 Z" stroke="#000000" stroke-width="0.1201" stroke-linecap="round" stroke-linejoin="round" fill="#EAEAEA"/>
        <path d="M 70.0237,1.1929 L 70.0237,1.1227 L 69.9956,1.0526 L 69.9675,0.9964 L 69.9253,0.9403 L 69.8691,0.8982 L 69.8129,0.8701 L 69.6724,0.8421 L 1.2790,0.8421 L 1.1385,0.8701 L 1.0823,0.8982 L 1.0260,0.9403 L 0.9839,0.9964 L 0.9558,1.0526 L 0.9277,1.1929 L 0.9277,11.2695 L 0.9558,11.4098 L 0.9839,11.4660 L 1.0260,11.5221 L 1.0823,11.5642 L 1.1385,11.5923 L 1.2088,11.6203 L 69.7426,11.6203 L 69.8129,11.5923 L 69.8691,11.5642 L 69.9253,11.5221 L 69.9675,11.4660 L 69.9956,11.4098 L 70.0237,11.3397 L 70.0237,11.2695 L 70.0237,1.1929 Z" stroke="#000000" stroke-width="0.1201" stroke-linecap="round" stroke-linejoin="round" fill="#EAEAEA"/>
        <path d="M 18.7779,4.2103 L 33.9577,4.2103 " stroke="#000000" stroke-width="0.1201" stroke-linecap="round" stroke-linejoin="round" fill="none"/>
        <path d="M 36.6001,4.2103 L 51.7799,4.2103 " stroke="#000000" stroke-width="0.1201" stroke-linecap="round" stroke-linejoin="round" fill="none"/>
        <path d="M 34.7167,5.6418 L 16.4448,5.6418 L 16.4448,10.0906 L 34.7167,10.0906 L 34.7167,5.6418 Z" stroke="#000000" stroke-width="0.1201" stroke-linecap="round" stroke-linejoin="round" fill="#E2E2E2"/>
        <path d="M 34.4215,5.8803 L 16.7540,5.8803 L 16.7540,9.8380 L 34.4215,9.8380 L 34.4215,5.8803 Z" stroke="#000000" stroke-width="0.1201" stroke-linecap="round" stroke-linejoin="round" fill="#EFEFEF"/>
        <path d="M 53.9444,5.6418 L 35.6725,5.6418 L 35.6725,10.0906 L 53.9444,10.0906 L 53.9444,5.6418 Z" stroke="#000000" stroke-width="0.1201" stroke-linecap="round" stroke-linejoin="round" fill="#E2E2E2"/>
        <path d="M 53.6493,5.8803 L 35.9817,5.8803 L 35.9817,9.8380 L 53.6493,9.8380 L 53.6493,5.8803 Z" stroke="#000000" stroke-width="0.1201" stroke-linecap="round" stroke-linejoin="round" fill="#EFEFEF"/>
        <path d="M 65.3011,7.0031 L 56.9242,7.0031 L 56.9242,10.0906 L 65.3011,10.0906 L 65.3011,7.0031 " stroke="#000000" stroke-width="0.1201" stroke-linecap="round" stroke-linejoin="round" fill="none"/>
        <path d="M 61.0564,9.8380 L 57.0928,9.8380 L 57.0928,7.1294 L 61.0564,7.1294 L 61.0564,9.8380 Z" stroke="#333333" stroke-width="0.1201" stroke-linecap="round" stroke-linejoin="round" fill="#333333"/>
        <path d="M 59.8196,9.9783 L 58.3297,9.9783 L 58.3297,9.6135 L 59.8196,9.6135 L 59.8196,9.9783 Z" stroke="#333333" stroke-width="0.1201" stroke-linecap="round" stroke-linejoin="round" fill="#333333"/>
        <path d="M 59.6649,9.9222 L 58.4843,9.9222 L 58.4843,9.6135 L 59.6649,9.6135 L 59.6649,9.9222 Z" stroke="#E2E2E2" stroke-width="0.1201" stroke-linecap="round" stroke-linejoin="round" fill="#E2E2E2"/>
        <path d="M 65.1465,9.8380 L 61.1829,9.8380 L 61.1829,7.1294 L 65.1465,7.1294 L 65.1465,9.8380 Z" stroke="#333333" stroke-width="0.1201" stroke-linecap="round" stroke-linejoin="round" fill="#333333"/>
        <path d="M 63.9097,9.9783 L 62.4198,9.9783 L 62.4198,9.6135 L 63.9097,9.6135 L 63.9097,9.9783 Z" stroke="#333333" stroke-width="0.1201" stroke-linecap="round" stroke-linejoin="round" fill="#333333"/>
        <path d="M 63.7551,9.9222 L 62.5744,9.9222 L 62.5744,9.6135 L 63.7551,9.6135 L 63.7551,9.9222 Z" stroke="#E2E2E2" stroke-width="0.1201" stroke-linecap="round" stroke-linejoin="round" fill="#E2E2E2"/>
        <path d="M 15.0533,5.6418 L 10.3728,5.6418 L 10.3728,10.0906 L 15.0533,10.0906 L 15.0533,5.6418 Z" stroke="#000000" stroke-width="0.1201" stroke-linecap="round" stroke-linejoin="round" fill="#E2E2E2"/>
        <path d="M 14.8565,5.8803 L 10.5556,5.8803 L 10.5556,9.8380 L 14.8565,9.8380 L 14.8565,5.8803 Z" stroke="#000000" stroke-width="0.1201" stroke-linecap="round" stroke-linejoin="round" fill="#EFEFEF"/>
        <path d="M 3.9355,9.3468 L 3.9355,9.2907 L 3.8793,9.1784 L 3.8512,9.1363 L 3.7949,9.0942 L 3.7528,9.0661 L 3.6825,9.0380 L 3.5701,9.0380 L 3.4576,9.0942 L 3.3733,9.1784 L 3.3171,9.2907 L 3.3171,9.4029 L 3.3452,9.4731 L 3.3733,9.5152 L 3.4154,9.5713 L 3.4576,9.5994 L 3.5701,9.6556 L 3.6825,9.6556 L 3.7528,9.6275 L 3.7949,9.5994 L 3.8512,9.5713 L 3.8793,9.5152 L 3.9074,9.4731 L 3.9355,9.4029 L 3.9355,9.3468 Z" stroke="#BFBFBF" stroke-width="0.1201" stroke-linecap="round" stroke-linejoin="round" fill="#BFBFBF"/>
        <path d="M 2.2615,3.4125 L 2.2434,3.4125 L 2.2344,3.4042 L 2.2254,3.4042 L 2.1984,3.3796 L 2.1984,3.3714 L 2.1894,3.3631 L 2.1894,2.4093 L 2.1984,2.4011 L 2.1984,2.3928 L 2.2074,2.3846 L 2.2164,2.3846 L 2.2164,2.3764 L 2.2254,2.3682 L 2.2344,2.3682 L 2.2434,2.3600 L 3.4688,2.3600 L 3.4778,2.3682 L 3.4868,2.3682 L 3.5138,2.3928 L 3.5138,2.4011 L 3.5228,2.4093 L 3.5228,2.5984 L 3.5138,2.5984 L 3.5138,2.5902 L 3.5048,2.5902 L 3.5048,2.5820 L 3.4958,2.5820 L 3.4958,2.5737 L 3.4778,2.5737 L 3.4778,2.5655 L 2.4867,2.5655 L 2.4867,2.5737 L 2.4687,2.5737 L 2.4687,2.5820 L 2.4597,2.5820 L 2.4597,2.5984 L 2.4507,2.5984 L 2.4507,3.3796 L 2.4597,3.3796 L 2.4597,3.3960 L 2.4687,3.3960 L 2.4687,3.4042 L 2.4777,3.4042 L 2.4777,3.4125 L 2.2705,3.4125 L 2.2615,3.4125 Z" stroke="#000000" stroke-width="0.1201" stroke-linecap="round" stroke-linejoin="round" fill="#000000"/>
        <path d="M 3.4327,2.8040 L 2.5408,2.8040 L 2.5408,2.7958 L 2.5228,2.7958 L 2.5228,2.7875 L 2.5137,2.7875 L 2.5137,2.7711 L 2.5047,2.7711 L 2.5047,2.9767 L 2.5137,2.9767 L 2.5137,2.9931 L 2.5228,2.9931 L 2.5228,3.0013 L 2.5408,3.0013 L 2.5408,3.0096 L 3.4508,3.0096 L 3.4688,2.9931 L 3.4778,2.9931 L 3.4958,2.9767 L 3.4958,2.9684 L 3.5048,2.9602 L 3.5048,2.9520 L 3.5138,2.9438 L 3.5138,2.9273 L 3.5228,2.9191 L 3.5228,2.8944 L 3.5138,2.8862 L 3.5138,2.8615 L 3.4958,2.8451 L 3.4958,2.8369 L 3.4868,2.8287 L 3.4778,2.8287 L 3.4778,2.8204 L 3.4688,2.8204 L 3.4598,2.8122 L 3.4508,2.8122 L 3.4418,2.8040 L 3.4327,2.8040 Z" stroke="#000000" stroke-width="0.1201" stroke-linecap="round" stroke-linejoin="round" fill="#000000"/>
        <path d="M 5.5140,3.0096 L 5.4960,3.0096 L 5.4960,3.0013 L 5.4780,3.0013 L 5.4780,2.9931 L 5.4690,2.9931 L 5.4690,2.9767 L 5.4600,2.9767 L 5.4600,2.7711 L 5.4690,2.7711 L 5.4690,2.7875 L 5.4780,2.7875 L 5.4780,2.7958 L 5.4960,2.7958 L 5.4960,2.8040 L 6.2168,2.8040 L 6.2168,2.5655 L 5.4419,2.5655 L 5.4419,2.5737 L 5.4239,2.5737 L 5.4239,2.5820 L 5.4149,2.5820 L 5.4149,2.5984 L 5.4059,2.5984 L 5.4059,3.3796 L 5.4149,3.3796 L 5.4149,3.3960 L 5.4239,3.3960 L 5.4239,3.4042 L 5.4329,3.4042 L 5.4329,3.4125 L 5.1987,3.4125 L 5.1897,3.4042 L 5.1807,3.4042 L 5.1536,3.3796 L 5.1536,3.3714 L 5.1446,3.3631 L 5.1446,2.4093 L 5.1536,2.4011 L 5.1536,2.3928 L 5.1626,2.3846 L 5.1716,2.3846 L 5.1716,2.3764 L 5.1807,2.3682 L 5.1897,2.3682 L 5.1987,2.3600 L 6.4240,2.3600 L 6.4330,2.3682 L 6.4420,2.3682 L 6.4691,2.3928 L 6.4691,2.4011 L 6.4781,2.4093 L 6.4781,2.9273 L 6.4691,2.9355 L 6.4691,2.9520 L 6.4601,2.9520 L 6.4601,2.9602 L 6.4510,2.9684 L 6.4510,2.9767 L 6.4420,2.9767 L 6.4420,2.9849 L 6.4330,2.9849 L 6.4330,2.9931 L 6.4240,2.9931 L 6.4240,3.0013 L 6.4150,3.0013 L 6.4060,3.0096 L 6.4150,3.0178 L 6.4240,3.0178 L 6.4240,3.0260 L 6.4330,3.0260 L 6.4330,3.0342 L 6.4420,3.0342 L 6.4420,3.0424 L 6.4510,3.0424 L 6.4510,3.0507 L 6.4601,3.0589 L 6.4601,3.0671 L 6.4691,3.0671 L 6.4691,3.0836 L 6.4781,3.0918 L 6.4781,3.3796 L 6.4871,3.3796 L 6.4871,3.3960 L 6.4961,3.3960 L 6.4961,3.4042 L 6.5051,3.4042 L 6.5051,3.4125 L 6.2708,3.4125 L 6.2618,3.4042 L 6.2528,3.4042 L 6.2258,3.3796 L 6.2258,3.3714 L 6.2168,3.3631 L 6.2168,3.0096 L 5.5230,3.0096 L 5.5140,3.0096 Z" stroke="#000000" stroke-width="0.1201" stroke-linecap="round" stroke-linejoin="round" fill="#000000"/>
        <path d="M 6.9466,2.5655 L 6.6763,2.5655 L 6.6673,2.5573 L 6.6583,2.5573 L 6.6312,2.5326 L 6.6312,2.5244 L 6.6222,2.5162 L 6.6222,2.4093 L 6.6312,2.4011 L 6.6312,2.3928 L 6.6403,2.3846 L 6.6493,2.3846 L 6.6493,2.3764 L 6.6583,2.3682 L 6.6673,2.3682 L 6.6763,2.3600 L 7.9016,2.3600 L 7.9106,2.3682 L 7.9196,2.3682 L 7.9467,2.3928 L 7.9467,2.4011 L 7.9557,2.4093 L 7.9557,2.5984 L 7.9467,2.5984 L 7.9467,2.5902 L 7.9377,2.5902 L 7.9377,2.5820 L 7.9287,2.5820 L 7.9287,2.5737 L 7.9106,2.5737 L 7.9106,2.5655 L 7.2439,2.5655 L 7.2439,2.5737 L 7.2259,2.5737 L 7.2259,2.5820 L 7.2169,2.5820 L 7.2169,2.5984 L 7.2079,2.5984 L 7.2079,3.3796 L 7.2169,3.3796 L 7.2169,3.3960 L 7.2259,3.3960 L 7.2259,3.4042 L 7.2349,3.4042 L 7.2349,3.4125 L 7.0006,3.4125 L 6.9916,3.4042 L 6.9826,3.4042 L 6.9556,3.3796 L 6.9556,3.3714 L 6.9466,3.3631 L 6.9466,2.5902 L 6.9466,2.5655 Z" stroke="#000000" stroke-width="0.1201" stroke-linecap="round" stroke-linejoin="round" fill="#000000"/>
        <path d="M 8.3611,3.3549 L 8.3611,3.3796 L 8.3701,3.3796 L 8.3701,3.3960 L 8.3791,3.3960 L 8.3791,3.4042 L 8.3882,3.4042 L 8.3882,3.4125 L 8.1539,3.4125 L 8.1449,3.4042 L 8.1359,3.4042 L 8.1089,3.3796 L 8.1089,3.3714 L 8.0998,3.3631 L 8.0998,2.3928 L 8.0908,2.3928 L 8.0908,2.3764 L 8.0818,2.3764 L 8.0818,2.3682 L 8.0728,2.3682 L 8.0728,2.3600 L 8.3071,2.3600 L 8.3161,2.3682 L 8.3251,2.3682 L 8.3521,2.3928 L 8.3521,2.4011 L 8.3611,2.4093 L 8.3611,3.3467 L 8.3611,3.3549 Z" stroke="#000000" stroke-width="0.1201" stroke-linecap="round" stroke-linejoin="round" fill="#000000"/>
        <path d="M 9.6405,2.5655 L 8.8657,2.5655 L 8.8657,2.5737 L 8.8477,2.5737 L 8.8477,2.5820 L 8.8387,2.5820 L 8.8387,2.5984 L 8.8296,2.5984 L 8.8296,3.3796 L 8.8387,3.3796 L 8.8387,3.3960 L 8.8477,3.3960 L 8.8477,3.4042 L 8.8567,3.4042 L 8.8567,3.4125 L 8.6224,3.4125 L 8.6134,3.4042 L 8.6044,3.4042 L 8.5774,3.3796 L 8.5774,3.3714 L 8.5684,3.3631 L 8.5684,2.4093 L 8.5774,2.4011 L 8.5774,2.3928 L 8.5864,2.3846 L 8.5954,2.3846 L 8.5954,2.3764 L 8.6044,2.3682 L 8.6134,2.3682 L 8.6224,2.3600 L 9.8478,2.3600 L 9.8568,2.3682 L 9.8658,2.3682 L 9.8928,2.3928 L 9.8928,2.4011 L 9.9018,2.4093 L 9.9018,3.3796 L 9.9108,3.3796 L 9.9108,3.3960 L 9.9198,3.3960 L 9.9198,3.4042 L 9.9288,3.4042 L 9.9288,3.4125 L 9.6946,3.4125 L 9.6856,3.4042 L 9.6766,3.4042 L 9.6495,3.3796 L 9.6495,3.3714 L 9.6405,3.3631 L 9.6405,2.5902 L 9.6405,2.5655 Z" stroke="#000000" stroke-width="0.1201" stroke-linecap="round" stroke-linejoin="round" fill="#000000"/>
        <path d="M 11.2263,2.8040 L 10.3974,2.8040 L 10.3883,2.7958 L 10.3793,2.7958 L 10.3793,2.7875 L 10.3703,2.7875 L 10.3703,2.7711 L 10.3613,2.7711 L 10.3613,2.9767 L 10.3703,2.9767 L 10.3703,2.9931 L 10.3793,2.9931 L 10.3793,3.0013 L 10.3883,3.0013 L 10.3974,3.0096 L 11.2353,3.0096 L 11.2533,2.9931 L 11.2623,2.9931 L 11.2803,2.9767 L 11.2803,2.9684 L 11.2893,2.9602 L 11.2893,2.9520 L 11.2983,2.9438 L 11.2983,2.9273 L 11.3073,2.9191 L 11.3073,2.8862 L 11.2983,2.8780 L 11.2983,2.8533 L 11.2893,2.8533 L 11.2893,2.8451 L 11.2623,2.8204 L 11.2533,2.8204 L 11.2533,2.8122 L 11.2443,2.8122 L 11.2353,2.8040 L 11.2263,2.8040 Z" stroke="#000000" stroke-width="0.1201" stroke-linecap="round" stroke-linejoin="round" fill="#000000"/>
        <path d="M 11.8479,2.5655 L 11.5776,2.5655 L 11.5686,2.5573 L 11.5596,2.5573 L 11.5326,2.5326 L 11.5326,2.5244 L 11.5236,2.5162 L 11.5236,2.4093 L 11.5326,2.4011 L 11.5326,2.3928 L 11.5416,2.3846 L 11.5506,2.3846 L 11.5506,2.3764 L 11.5596,2.3682 L 11.5686,2.3682 L 11.5776,2.3600 L 12.8030,2.3600 L 12.8120,2.3682 L 12.8210,2.3682 L 12.8480,2.3928 L 12.8480,2.4011 L 12.8570,2.4093 L 12.8570,2.5984 L 12.8480,2.5984 L 12.8480,2.5902 L 12.8390,2.5902 L 12.8390,2.5820 L 12.8300,2.5820 L 12.8300,2.5737 L 12.8120,2.5737 L 12.8120,2.5655 L 12.1453,2.5655 L 12.1453,2.5737 L 12.1272,2.5737 L 12.1272,2.5820 L 12.1182,2.5820 L 12.1182,2.5984 L 12.1092,2.5984 L 12.1092,3.3796 L 12.1182,3.3796 L 12.1182,3.3960 L 12.1272,3.3960 L 12.1272,3.4042 L 12.1363,3.4042 L 12.1363,3.4125 L 11.9020,3.4125 L 11.8930,3.4042 L 11.8840,3.4042 L 11.8569,3.3796 L 11.8569,3.3714 L 11.8479,3.3631 L 11.8479,2.5902 L 11.8479,2.5655 Z" stroke="#000000" stroke-width="0.1201" stroke-linecap="round" stroke-linejoin="round" fill="#000000"/>
        <path d="M 11.3164,3.2069 L 11.3344,3.2069 L 11.3344,3.1987 L 11.3524,3.1987 L 11.3524,3.1905 L 11.3614,3.1905 L 11.3614,3.1822 L 11.3704,3.1822 L 11.3704,3.1740 L 11.3794,3.1740 L 11.3794,3.3631 L 11.3704,3.3714 L 11.3704,3.3796 L 11.3614,3.3878 L 11.3614,3.3960 L 11.3524,3.3960 L 11.3434,3.4042 L 11.3344,3.4042 L 11.3254,3.4125 L 10.1000,3.4125 L 10.0910,3.4042 L 10.0820,3.4042 L 10.0550,3.3796 L 10.0550,3.3714 L 10.0460,3.3631 L 10.0460,2.4093 L 10.0550,2.4011 L 10.0550,2.3928 L 10.0640,2.3846 L 10.0730,2.3846 L 10.0730,2.3764 L 10.0820,2.3682 L 10.0910,2.3682 L 10.1000,2.3600 L 11.3254,2.3600 L 11.3344,2.3682 L 11.3434,2.3682 L 11.3704,2.3928 L 11.3704,2.4011 L 11.3794,2.4093 L 11.3794,2.5984 L 11.3704,2.5984 L 11.3704,2.5902 L 11.3614,2.5902 L 11.3614,2.5820 L 11.3524,2.5820 L 11.3524,2.5737 L 11.3344,2.5737 L 11.3344,2.5655 L 10.3433,2.5655 L 10.3433,2.5737 L 10.3253,2.5737 L 10.3253,2.5820 L 10.3163,2.5820 L 10.3163,2.5984 L 10.3073,2.5984 L 10.3073,3.2069 L 11.3073,3.2069 L 11.3164,3.2069 Z" stroke="#000000" stroke-width="0.1201" stroke-linecap="round" stroke-linejoin="round" fill="#000000"/>
        <path d="M 4.1175,3.1082 L 4.1175,3.4125 L 4.5500,3.4125 L 4.5500,3.1082 L 4.1175,3.1082 Z" stroke="#FF0000" stroke-width="0.1201" stroke-linecap="round" stroke-linejoin="round" fill="#FF0000"/>
        <path d="M 3.6670,2.7382 L 4.0364,2.7382 L 4.0364,3.0342 L 3.6670,3.0342 L 3.6670,2.7382 Z" stroke="#FF0000" stroke-width="0.1201" stroke-linecap="round" stroke-linejoin="round" fill="#FF0000"/>
        <path d="M 4.6311,3.1082 L 4.6311,3.4125 L 4.7662,3.4125 L 4.7752,3.4042 L 4.8113,3.4042 L 4.8203,3.3960 L 4.8383,3.3960 L 4.8563,3.3878 L 4.8653,3.3796 L 4.8833,3.3714 L 4.9014,3.3549 L 4.9194,3.3467 L 4.9284,3.3385 L 4.9374,3.3220 L 4.9464,3.3138 L 4.9824,3.2480 L 4.9824,3.2316 L 4.9914,3.2069 L 4.9914,3.1822 L 5.0005,3.1576 L 5.0005,3.1082 L 4.6401,3.1082 L 4.6311,3.1082 Z" stroke="#FF0000" stroke-width="0.1201" stroke-linecap="round" stroke-linejoin="round" fill="#FF0000"/>
        <path d="M 4.6311,2.7382 L 5.0005,2.7382 L 5.0005,3.0342 L 4.6311,3.0342 L 4.6311,2.7382 Z" stroke="#FF0000" stroke-width="0.1201" stroke-linecap="round" stroke-linejoin="round" fill="#FF0000"/>
        <path d="M 4.0364,3.1082 L 4.0364,3.4125 L 3.9013,3.4125 L 3.8922,3.4042 L 3.8562,3.4042 L 3.8472,3.3960 L 3.8292,3.3960 L 3.8112,3.3878 L 3.8022,3.3796 L 3.7841,3.3714 L 3.7661,3.3549 L 3.7481,3.3467 L 3.7391,3.3385 L 3.7301,3.3220 L 3.7211,3.3138 L 3.6850,3.2480 L 3.6850,3.2316 L 3.6760,3.2069 L 3.6760,3.1822 L 3.6670,3.1576 L 3.6670,3.1082 L 4.0274,3.1082 L 4.0364,3.1082 Z" stroke="#FF0000" stroke-width="0.1201" stroke-linecap="round" stroke-linejoin="round" fill="#FF0000"/>
        <path d="M 4.1175,2.3600 L 4.1175,2.6642 L 4.5500,2.6642 L 4.5500,2.3600 L 4.1175,2.3600 Z" stroke="#FF0000" stroke-width="0.1201" stroke-linecap="round" stroke-linejoin="round" fill="#FF0000"/>
        <path d="M 4.6311,2.6642 L 4.6311,2.3600 L 4.7662,2.3600 L 4.7752,2.3682 L 4.8113,2.3682 L 4.8203,2.3764 L 4.8383,2.3764 L 4.8563,2.3846 L 4.8653,2.3928 L 4.8833,2.4011 L 4.9014,2.4175 L 4.9194,2.4257 L 4.9284,2.4340 L 4.9374,2.4504 L 4.9464,2.4586 L 4.9824,2.5244 L 4.9824,2.5409 L 4.9914,2.5655 L 4.9914,2.5902 L 5.0005,2.6149 L 5.0005,2.6642 L 4.6401,2.6642 L 4.6311,2.6642 Z" stroke="#FF0000" stroke-width="0.1201" stroke-linecap="round" stroke-linejoin="round" fill="#FF0000"/>
        <path d="M 4.0364,2.6642 L 4.0364,2.3600 L 3.9013,2.3600 L 3.8922,2.3682 L 3.8562,2.3682 L 3.8472,2.3764 L 3.8292,2.3764 L 3.8112,2.3846 L 3.8022,2.3928 L 3.7841,2.4011 L 3.7661,2.4175 L 3.7481,2.4257 L 3.7391,2.4340 L 3.7301,2.4504 L 3.7211,2.4586 L 3.6850,2.5244 L 3.6850,2.5409 L 3.6760,2.5655 L 3.6760,2.5902 L 3.6670,2.6149 L 3.6670,2.6642 L 4.0274,2.6642 L 4.0364,2.6642 Z" stroke="#FF0000" stroke-width="0.1201" stroke-linecap="round" stroke-linejoin="round" fill="#FF0000"/>
        <text font-family="Arial" fill="#000000" style="white-space:pre;" font-weight="400" text-anchor="start" x="3.7391" y="3.6088" font-size="0.0811"><![CDATA[POWER]]></text>
        <path d="M 7.2143,6.0796 L 6.1283,6.0796 L 6.1283,6.5473 L 7.2143,6.5473 L 7.2143,6.0796 Z" stroke="#000000" stroke-width="0.1201" stroke-linecap="round" stroke-linejoin="round" fill="#83FF00"/>
        <path d="M 7.2143,7.4241 L 6.1283,7.4241 L 6.1283,7.8918 L 7.2143,7.8918 L 7.2143,7.4241 Z" stroke="#000000" stroke-width="0.1201" stroke-linecap="round" stroke-linejoin="round" fill="#83FF00"/>
        <text font-family="Arial" fill="#000000" style="white-space:pre;" font-weight="400" text-anchor="start" x="9.4639" y="10.8354" font-size="0.1745"><![CDATA[ALARM]]></text>
        <text font-family="Symbol" fill="#000000" style="white-space:pre;" text-anchor="start" x="12.5446" y="3.3858" font-size="0.4131"><![CDATA[]]></text>
        <text font-family="Arial" fill="#000000" style="white-space:pre;" font-weight="400" text-anchor="start" x="18.4911" y="3.5199" font-size="0.1047"><![CDATA[FortiSwitch 108F-]]></text>
        <path d="M 7.2143,8.7881 L 6.1283,8.7881 L 6.1283,9.2558 L 7.2143,9.2558 L 7.2143,8.7881 Z" stroke="#000000" stroke-width="0.1201" stroke-linecap="round" stroke-linejoin="round" fill="#83FF00"/>
        <text font-family="Arial" fill="#000000" style="white-space:pre;" font-weight="400" text-anchor="start" x="9.4639" y="12.6670" font-size="0.1745"><![CDATA[PoE MAX]]></text>
        <text font-family="Arial" fill="#000000" style="white-space:pre;" font-weight="400" text-anchor="start" x="10.7633" y="11.2641" font-size="0.1745"><![CDATA[CONSOLE]]></text>
        <text font-family="Arial" fill="#000000" style="white-space:pre;" font-weight="400" text-anchor="start" x="13.3232" y="11.2641" font-size="0.1745"><![CDATA[1]]></text>
        <text font-family="Arial" fill="#000000" style="white-space:pre;" font-weight="400" text-anchor="start" x="14.8165" y="11.2641" font-size="0.1745"><![CDATA[2]]></text>
        <text font-family="Arial" fill="#000000" style="white-space:pre;" font-weight="400" text-anchor="start" x="16.3292" y="11.2641" font-size="0.1745"><![CDATA[3]]></text>
        <text font-family="Arial" fill="#000000" style="white-space:pre;" font-weight="400" text-anchor="start" x="17.8224" y="11.2641" font-size="0.1745"><![CDATA[4]]></text>
        <text font-family="Arial" fill="#000000" style="white-space:pre;" font-weight="400" text-anchor="start" x="19.9557" y="11.2641" font-size="0.1745"><![CDATA[5]]></text>
        <text font-family="Arial" fill="#000000" style="white-space:pre;" font-weight="400" text-anchor="start" x="21.4490" y="11.2641" font-size="0.1745"><![CDATA[6]]></text>
        <text font-family="Arial" fill="#000000" style="white-space:pre;" font-weight="400" text-anchor="start" x="22.9617" y="11.2641" font-size="0.1745"><![CDATA[7]]></text>
        <text font-family="Arial" fill="#000000" style="white-space:pre;" font-weight="400" text-anchor="start" x="24.4550" y="11.2641" font-size="0.1745"><![CDATA[8]]></text>
        <text font-family="Arial" fill="#FF0000" style="white-space:pre;" font-weight="400" text-anchor="start" x="18.7727" y="11.0107" font-size="0.1745"><![CDATA[POE]]></text>
        <text font-family="Arial" fill="#000000" style="white-space:pre;" font-weight="400" text-anchor="start" x="25.5410" y="12.2578" font-size="0.1745"><![CDATA[LINK/ACT]]></text>
        <path d="M 55.9691,8.5543 L 54.8831,8.5543 L 54.8831,9.0220 L 55.9691,9.0220 L 55.9691,8.5543 Z" stroke="#000000" stroke-width="0.1201" stroke-linecap="round" stroke-linejoin="round" fill="#83FF00"/>
        <text font-family="Arial" fill="#000000" style="white-space:pre;" font-weight="400" text-anchor="start" x="78.2326" y="12.0240" font-size="0.1745"><![CDATA[LINK/ACT]]></text>
        <path d="M 67.3917,8.5543 L 66.3057,8.5543 L 66.3057,9.0220 L 67.3917,9.0220 L 67.3917,8.5543 Z" stroke="#000000" stroke-width="0.1201" stroke-linecap="round" stroke-linejoin="round" fill="#83FF00"/>
        <text font-family="Arial" fill="#FF0000" style="white-space:pre;" font-weight="400" text-anchor="start" x="89.0153" y="10.3884" font-size="0.3491"><![CDATA[FPOE]]></text>
        <path d="M 46.9341,10.6987 L 46.8525,10.6987 L 46.8525,10.7247 L 46.8388,10.7247 L 46.8388,10.8285 L 46.8525,10.8415 L 46.8525,10.8675 L 46.8661,10.8675 L 46.8661,10.8935 L 46.8797,10.8935 L 46.8797,10.9064 L 46.8933,10.9064 L 46.8933,10.9194 L 46.9069,10.9194 L 46.9069,10.9324 L 46.9341,10.9324 L 46.9341,10.9454 L 47.2879,10.9454 L 47.2879,10.9324 L 47.3151,10.9324 L 47.3151,10.9194 L 47.3287,10.9194 L 47.3287,10.9064 L 47.3423,10.9064 L 47.3423,10.8935 L 47.3560,10.8935 L 47.3560,10.8675 L 47.3696,10.8675 L 47.3696,10.8415 L 47.3832,10.8285 L 47.3832,10.7506 L 47.3696,10.7376 L 47.3696,10.7117 L 47.3560,10.7117 L 47.3560,10.6857 L 47.3423,10.6857 L 47.3423,10.6727 L 47.3287,10.6727 L 47.3287,10.6597 L 47.3151,10.6597 L 47.3151,10.6468 L 47.2879,10.6468 L 47.2879,10.6338 L 47.0838,10.6338 L 47.0838,10.6468 L 47.0974,10.6468 L 47.0974,10.6597 L 47.1110,10.6727 L 47.1110,10.6857 L 47.1246,10.6987 L 47.1246,10.7117 L 47.2607,10.7117 L 47.2607,10.7247 L 47.2743,10.7247 L 47.2879,10.7376 L 47.2879,10.7506 L 47.3015,10.7506 L 47.3015,10.8285 L 47.2879,10.8415 L 47.2879,10.8675 L 47.2743,10.8675 L 47.2743,10.8805 L 47.2471,10.8805 L 47.2471,10.8935 L 46.9749,10.8935 L 46.9749,10.8805 L 46.9477,10.8805 L 46.9477,10.8675 L 46.9341,10.8545 L 46.9341,10.8415 L 46.9205,10.8285 L 46.9205,10.7247 L 46.9341,10.7247 L 46.9341,10.7117 L 46.9341,10.6987 Z" stroke="#6EACD3" stroke-width="0.1201" stroke-linecap="round" stroke-linejoin="round" fill="#6EACD3"/>
        <path d="M 47.0158,10.8805 L 47.0974,10.8805 L 47.0974,10.8545 L 47.1110,10.8545 L 47.1110,10.7506 L 47.0974,10.7376 L 47.0974,10.7117 L 47.0838,10.7117 L 47.0838,10.6857 L 47.0702,10.6857 L 47.0702,10.6727 L 47.0566,10.6727 L 47.0566,10.6597 L 47.0430,10.6597 L 47.0430,10.6468 L 47.0158,10.6468 L 47.0158,10.6338 L 46.6619,10.6338 L 46.6619,10.6468 L 46.6347,10.6468 L 46.6347,10.6597 L 46.6211,10.6597 L 46.6211,10.6727 L 46.6075,10.6727 L 46.6075,10.6857 L 46.5939,10.6857 L 46.5939,10.7117 L 46.5803,10.7117 L 46.5803,10.7376 L 46.5667,10.7506 L 46.5667,10.8285 L 46.5803,10.8415 L 46.5803,10.8675 L 46.5939,10.8675 L 46.5939,10.8935 L 46.6075,10.8935 L 46.6075,10.9064 L 46.6211,10.9064 L 46.6211,10.9194 L 46.6347,10.9194 L 46.6347,10.9324 L 46.6619,10.9324 L 46.6619,10.9454 L 46.8661,10.9454 L 46.8661,10.9324 L 46.8525,10.9324 L 46.8525,10.9194 L 46.8388,10.9064 L 46.8388,10.8935 L 46.8252,10.8805 L 46.8252,10.8675 L 46.6892,10.8675 L 46.6892,10.8545 L 46.6756,10.8545 L 46.6619,10.8415 L 46.6619,10.8285 L 46.6483,10.8285 L 46.6483,10.7506 L 46.6619,10.7376 L 46.6619,10.7247 L 46.6756,10.7247 L 46.6756,10.6987 L 46.7028,10.6987 L 46.7028,10.6857 L 46.9749,10.6857 L 46.9749,10.6987 L 47.0021,10.6987 L 47.0021,10.7117 L 47.0158,10.7247 L 47.0158,10.7376 L 47.0294,10.7506 L 47.0294,10.8545 L 47.0158,10.8545 L 47.0158,10.8675 L 47.0158,10.8805 Z" stroke="#6EACD3" stroke-width="0.1201" stroke-linecap="round" stroke-linejoin="round" fill="#6EACD3"/>
        <path d="M 51.2751,10.6987 L 51.1934,10.6987 L 51.1934,10.7247 L 51.1798,10.7247 L 51.1798,10.8285 L 51.1934,10.8415 L 51.1934,10.8675 L 51.2070,10.8675 L 51.2070,10.8935 L 51.2206,10.8935 L 51.2206,10.9064 L 51.2342,10.9064 L 51.2342,10.9194 L 51.2479,10.9194 L 51.2479,10.9324 L 51.2751,10.9324 L 51.2751,10.9454 L 51.6289,10.9454 L 51.6289,10.9324 L 51.6561,10.9324 L 51.6561,10.9194 L 51.6697,10.9194 L 51.6697,10.9064 L 51.6833,10.9064 L 51.6833,10.8935 L 51.6969,10.8935 L 51.6969,10.8675 L 51.7105,10.8675 L 51.7105,10.8415 L 51.7241,10.8285 L 51.7241,10.7506 L 51.7105,10.7376 L 51.7105,10.7117 L 51.6969,10.7117 L 51.6969,10.6857 L 51.6833,10.6857 L 51.6833,10.6727 L 51.6697,10.6727 L 51.6697,10.6597 L 51.6561,10.6597 L 51.6561,10.6468 L 51.6289,10.6468 L 51.6289,10.6338 L 51.4248,10.6338 L 51.4248,10.6468 L 51.4384,10.6468 L 51.4384,10.6597 L 51.4520,10.6727 L 51.4520,10.6857 L 51.4656,10.6987 L 51.4656,10.7117 L 51.6017,10.7117 L 51.6017,10.7247 L 51.6153,10.7247 L 51.6289,10.7376 L 51.6289,10.7506 L 51.6425,10.7506 L 51.6425,10.8285 L 51.6289,10.8415 L 51.6289,10.8675 L 51.6153,10.8675 L 51.6153,10.8805 L 51.5881,10.8805 L 51.5881,10.8935 L 51.3159,10.8935 L 51.3159,10.8805 L 51.2887,10.8805 L 51.2887,10.8675 L 51.2751,10.8545 L 51.2751,10.8415 L 51.2615,10.8285 L 51.2615,10.7247 L 51.2751,10.7247 L 51.2751,10.7117 L 51.2751,10.6987 Z" stroke="#6EACD3" stroke-width="0.1201" stroke-linecap="round" stroke-linejoin="round" fill="#6EACD3"/>
        <path d="M 51.3567,10.8805 L 51.4384,10.8805 L 51.4384,10.8545 L 51.4520,10.8545 L 51.4520,10.7506 L 51.4384,10.7376 L 51.4384,10.7117 L 51.4248,10.7117 L 51.4248,10.6857 L 51.4111,10.6857 L 51.4111,10.6727 L 51.3975,10.6727 L 51.3975,10.6597 L 51.3839,10.6597 L 51.3839,10.6468 L 51.3567,10.6468 L 51.3567,10.6338 L 51.0029,10.6338 L 51.0029,10.6468 L 50.9757,10.6468 L 50.9757,10.6597 L 50.9621,10.6597 L 50.9621,10.6727 L 50.9485,10.6727 L 50.9485,10.6857 L 50.9349,10.6857 L 50.9349,10.7117 L 50.9213,10.7117 L 50.9213,10.7376 L 50.9077,10.7506 L 50.9077,10.8285 L 50.9213,10.8415 L 50.9213,10.8675 L 50.9349,10.8675 L 50.9349,10.8935 L 50.9485,10.8935 L 50.9485,10.9064 L 50.9621,10.9064 L 50.9621,10.9194 L 50.9757,10.9194 L 50.9757,10.9324 L 51.0029,10.9324 L 51.0029,10.9454 L 51.2070,10.9454 L 51.2070,10.9324 L 51.1934,10.9324 L 51.1934,10.9194 L 51.1798,10.9064 L 51.1798,10.8935 L 51.1662,10.8805 L 51.1662,10.8675 L 51.0301,10.8675 L 51.0301,10.8545 L 51.0165,10.8545 L 51.0029,10.8415 L 51.0029,10.8285 L 50.9893,10.8285 L 50.9893,10.7506 L 51.0029,10.7376 L 51.0029,10.7247 L 51.0165,10.7247 L 51.0165,10.6987 L 51.0437,10.6987 L 51.0437,10.6857 L 51.3159,10.6857 L 51.3159,10.6987 L 51.3431,10.6987 L 51.3431,10.7117 L 51.3567,10.7247 L 51.3567,10.7376 L 51.3703,10.7506 L 51.3703,10.8545 L 51.3567,10.8545 L 51.3567,10.8675 L 51.3567,10.8805 Z" stroke="#6EACD3" stroke-width="0.1201" stroke-linecap="round" stroke-linejoin="round" fill="#6EACD3"/>
        <path d="M 59.0316,10.6987 L 58.9500,10.6987 L 58.9500,10.7247 L 58.9364,10.7247 L 58.9364,10.8285 L 58.9500,10.8415 L 58.9500,10.8675 L 58.9636,10.8675 L 58.9636,10.8935 L 58.9772,10.8935 L 58.9772,10.9064 L 58.9908,10.9064 L 58.9908,10.9194 L 59.0044,10.9194 L 59.0044,10.9324 L 59.0316,10.9324 L 59.0316,10.9454 L 59.3855,10.9454 L 59.3855,10.9324 L 59.4127,10.9324 L 59.4127,10.9194 L 59.4263,10.9194 L 59.4263,10.9064 L 59.4399,10.9064 L 59.4399,10.8935 L 59.4535,10.8935 L 59.4535,10.8675 L 59.4671,10.8675 L 59.4671,10.8415 L 59.4807,10.8285 L 59.4807,10.7506 L 59.4671,10.7376 L 59.4671,10.7117 L 59.4535,10.7117 L 59.4535,10.6857 L 59.4399,10.6857 L 59.4399,10.6727 L 59.4263,10.6727 L 59.4263,10.6597 L 59.4127,10.6597 L 59.4127,10.6468 L 59.3855,10.6468 L 59.3855,10.6338 L 59.1813,10.6338 L 59.1813,10.6468 L 59.1949,10.6468 L 59.1949,10.6597 L 59.2086,10.6727 L 59.2086,10.6857 L 59.2222,10.6987 L 59.2222,10.7117 L 59.3582,10.7117 L 59.3582,10.7247 L 59.3718,10.7247 L 59.3855,10.7376 L 59.3855,10.7506 L 59.3991,10.7506 L 59.3991,10.8285 L 59.3855,10.8415 L 59.3855,10.8675 L 59.3718,10.8675 L 59.3718,10.8805 L 59.3446,10.8805 L 59.3446,10.8935 L 59.0725,10.8935 L 59.0725,10.8805 L 59.0453,10.8805 L 59.0453,10.8675 L 59.0316,10.8545 L 59.0316,10.8415 L 59.0180,10.8285 L 59.0180,10.7247 L 59.0316,10.7247 L 59.0316,10.7117 L 59.0316,10.6987 Z" stroke="#6EACD3" stroke-width="0.1201" stroke-linecap="round" stroke-linejoin="round" fill="#6EACD3"/>
        <path d="M 59.1133,10.8805 L 59.1949,10.8805 L 59.1949,10.8545 L 59.2086,10.8545 L 59.2086,10.7506 L 59.1949,10.7376 L 59.1949,10.7117 L 59.1813,10.7117 L 59.1813,10.6857 L 59.1677,10.6857 L 59.1677,10.6727 L 59.1541,10.6727 L 59.1541,10.6597 L 59.1405,10.6597 L 59.1405,10.6468 L 59.1133,10.6468 L 59.1133,10.6338 L 58.7595,10.6338 L 58.7595,10.6468 L 58.7323,10.6468 L 58.7323,10.6597 L 58.7187,10.6597 L 58.7187,10.6727 L 58.7051,10.6727 L 58.7051,10.6857 L 58.6914,10.6857 L 58.6914,10.7117 L 58.6778,10.7117 L 58.6778,10.7376 L 58.6642,10.7506 L 58.6642,10.8285 L 58.6778,10.8415 L 58.6778,10.8675 L 58.6914,10.8675 L 58.6914,10.8935 L 58.7051,10.8935 L 58.7051,10.9064 L 58.7187,10.9064 L 58.7187,10.9194 L 58.7323,10.9194 L 58.7323,10.9324 L 58.7595,10.9324 L 58.7595,10.9454 L 58.9636,10.9454 L 58.9636,10.9324 L 58.9500,10.9324 L 58.9500,10.9194 L 58.9364,10.9064 L 58.9364,10.8935 L 58.9228,10.8805 L 58.9228,10.8675 L 58.7867,10.8675 L 58.7867,10.8545 L 58.7731,10.8545 L 58.7595,10.8415 L 58.7595,10.8285 L 58.7459,10.8285 L 58.7459,10.7506 L 58.7595,10.7376 L 58.7595,10.7247 L 58.7731,10.7247 L 58.7731,10.6987 L 58.8003,10.6987 L 58.8003,10.6857 L 59.0725,10.6857 L 59.0725,10.6987 L 59.0997,10.6987 L 59.0997,10.7117 L 59.1133,10.7247 L 59.1133,10.7376 L 59.1269,10.7506 L 59.1269,10.8545 L 59.1133,10.8545 L 59.1133,10.8675 L 59.1133,10.8805 Z" stroke="#6EACD3" stroke-width="0.1201" stroke-linecap="round" stroke-linejoin="round" fill="#6EACD3"/>
        <path d="M 63.1413,10.6987 L 63.0596,10.6987 L 63.0596,10.7247 L 63.0460,10.7247 L 63.0460,10.8285 L 63.0596,10.8415 L 63.0596,10.8675 L 63.0732,10.8675 L 63.0732,10.8935 L 63.0868,10.8935 L 63.0868,10.9064 L 63.1004,10.9064 L 63.1004,10.9194 L 63.1141,10.9194 L 63.1141,10.9324 L 63.1413,10.9324 L 63.1413,10.9454 L 63.4951,10.9454 L 63.4951,10.9324 L 63.5223,10.9324 L 63.5223,10.9194 L 63.5359,10.9194 L 63.5359,10.9064 L 63.5495,10.9064 L 63.5495,10.8935 L 63.5631,10.8935 L 63.5631,10.8675 L 63.5767,10.8675 L 63.5767,10.8415 L 63.5903,10.8285 L 63.5903,10.7506 L 63.5767,10.7376 L 63.5767,10.7117 L 63.5631,10.7117 L 63.5631,10.6857 L 63.5495,10.6857 L 63.5495,10.6727 L 63.5359,10.6727 L 63.5359,10.6597 L 63.5223,10.6597 L 63.5223,10.6468 L 63.4951,10.6468 L 63.4951,10.6338 L 63.2910,10.6338 L 63.2910,10.6468 L 63.3046,10.6468 L 63.3046,10.6597 L 63.3182,10.6727 L 63.3182,10.6857 L 63.3318,10.6987 L 63.3318,10.7117 L 63.4679,10.7117 L 63.4679,10.7247 L 63.4815,10.7247 L 63.4951,10.7376 L 63.4951,10.7506 L 63.5087,10.7506 L 63.5087,10.8285 L 63.4951,10.8415 L 63.4951,10.8675 L 63.4815,10.8675 L 63.4815,10.8805 L 63.4543,10.8805 L 63.4543,10.8935 L 63.1821,10.8935 L 63.1821,10.8805 L 63.1549,10.8805 L 63.1549,10.8675 L 63.1413,10.8545 L 63.1413,10.8415 L 63.1277,10.8285 L 63.1277,10.7247 L 63.1413,10.7247 L 63.1413,10.7117 L 63.1413,10.6987 Z" stroke="#6EACD3" stroke-width="0.1201" stroke-linecap="round" stroke-linejoin="round" fill="#6EACD3"/>
        <path d="M 63.2229,10.8805 L 63.3046,10.8805 L 63.3046,10.8545 L 63.3182,10.8545 L 63.3182,10.7506 L 63.3046,10.7376 L 63.3046,10.7117 L 63.2910,10.7117 L 63.2910,10.6857 L 63.2774,10.6857 L 63.2774,10.6727 L 63.2637,10.6727 L 63.2637,10.6597 L 63.2501,10.6597 L 63.2501,10.6468 L 63.2229,10.6468 L 63.2229,10.6338 L 62.8691,10.6338 L 62.8691,10.6468 L 62.8419,10.6468 L 62.8419,10.6597 L 62.8283,10.6597 L 62.8283,10.6727 L 62.8147,10.6727 L 62.8147,10.6857 L 62.8011,10.6857 L 62.8011,10.7117 L 62.7875,10.7117 L 62.7875,10.7376 L 62.7739,10.7506 L 62.7739,10.8285 L 62.7875,10.8415 L 62.7875,10.8675 L 62.8011,10.8675 L 62.8011,10.8935 L 62.8147,10.8935 L 62.8147,10.9064 L 62.8283,10.9064 L 62.8283,10.9194 L 62.8419,10.9194 L 62.8419,10.9324 L 62.8691,10.9324 L 62.8691,10.9454 L 63.0732,10.9454 L 63.0732,10.9324 L 63.0596,10.9324 L 63.0596,10.9194 L 63.0460,10.9064 L 63.0460,10.8935 L 63.0324,10.8805 L 63.0324,10.8675 L 62.8963,10.8675 L 62.8963,10.8545 L 62.8827,10.8545 L 62.8691,10.8415 L 62.8691,10.8285 L 62.8555,10.8285 L 62.8555,10.7506 L 62.8691,10.7376 L 62.8691,10.7247 L 62.8827,10.7247 L 62.8827,10.6987 L 62.9099,10.6987 L 62.9099,10.6857 L 63.1821,10.6857 L 63.1821,10.6987 L 63.2093,10.6987 L 63.2093,10.7117 L 63.2229,10.7247 L 63.2229,10.7376 L 63.2365,10.7506 L 63.2365,10.8545 L 63.2229,10.8545 L 63.2229,10.8675 L 63.2229,10.8805 Z" stroke="#6EACD3" stroke-width="0.1201" stroke-linecap="round" stroke-linejoin="round" fill="#6EACD3"/>
        <text font-family="Arial" fill="#000000" style="white-space:pre;" font-weight="400" text-anchor="start" x="77.5114" y="12.6137" font-size="0.1225"><![CDATA[9]]></text>
        <text font-family="Arial" fill="#000000" style="white-space:pre;" font-weight="400" text-anchor="start" x="78.4775" y="12.6137" font-size="0.1225"><![CDATA[10]]></text>
        <path d="M 10.9113,9.0903 L 10.9113,6.9669 L 11.8043,6.9669 L 11.8043,6.4673 L 12.1671,6.4673 L 12.1671,5.9677 L 13.2276,5.9677 L 13.2276,6.4673 L 13.5903,6.4673 L 13.5903,6.9669 L 14.4833,6.9669 L 14.4833,9.0903 L 10.9113,9.0903 Z" stroke="#161616" stroke-width="0.1201" stroke-linecap="round" stroke-linejoin="round" fill="#000000"/>
        <path d="M 18.3917,6.0232 L 18.3917,6.1758 L 18.1667,6.1758 L 18.1667,6.6061 L 17.2246,6.6061 L 17.2246,6.6477 L 16.9293,6.6477 L 16.9293,6.1758 L 16.9856,6.1758 L 16.9856,6.6061 L 17.2246,6.6061 L 17.2246,7.5637 L 17.3230,7.5637 L 17.3230,8.0633 L 17.2246,8.0633 L 17.2246,9.1458 L 20.8242,9.1458 L 20.8242,8.0633 L 20.7258,8.0633 L 20.7258,7.5637 L 20.8242,7.5637 L 20.8242,6.6061 L 21.0633,6.6061 L 21.0633,6.1758 L 21.1195,6.1758 L 21.1195,6.6477 L 20.8242,6.6477 L 20.8242,6.6061 L 19.8821,6.6061 L 19.8821,6.1758 L 19.6572,6.1758 L 19.6572,6.0232 L 18.3917,6.0232 Z" stroke="#000000" stroke-width="0.1201" stroke-linecap="round" stroke-linejoin="round" fill="#000000"/>
        <path d="M 18.1667,6.1897 L 16.9856,6.1897 L 16.9856,6.6199 L 18.1667,6.6199 L 18.1667,6.1897 Z" stroke="#494949" stroke-width="0.1201" stroke-linecap="round" stroke-linejoin="round" fill="#000000"/>
        <path d="M 21.0633,6.1897 L 19.8821,6.1897 L 19.8821,6.6199 L 21.0633,6.6199 L 21.0633,6.1897 Z" stroke="#494949" stroke-width="0.1201" stroke-linecap="round" stroke-linejoin="round" fill="#000000"/>
        <path d="M 22.7224,6.0232 L 22.7224,6.1758 L 22.4975,6.1758 L 22.4975,6.6061 L 21.5554,6.6061 L 21.5554,6.6477 L 21.2601,6.6477 L 21.2601,6.1758 L 21.3163,6.1758 L 21.3163,6.6061 L 21.5554,6.6061 L 21.5554,7.5637 L 21.6538,7.5637 L 21.6538,8.0633 L 21.5554,8.0633 L 21.5554,9.1458 L 25.1550,9.1458 L 25.1550,8.0633 L 25.0566,8.0633 L 25.0566,7.5637 L 25.1550,7.5637 L 25.1550,6.6061 L 25.3940,6.6061 L 25.3940,6.1758 L 25.4503,6.1758 L 25.4503,6.6477 L 25.1550,6.6477 L 25.1550,6.6061 L 24.2129,6.6061 L 24.2129,6.1758 L 23.9879,6.1758 L 23.9879,6.0232 L 22.7224,6.0232 Z" stroke="#000000" stroke-width="0.1201" stroke-linecap="round" stroke-linejoin="round" fill="#000000"/>
        <path d="M 22.4975,6.1897 L 21.3163,6.1897 L 21.3163,6.6199 L 22.4975,6.6199 L 22.4975,6.1897 Z" stroke="#494949" stroke-width="0.1201" stroke-linecap="round" stroke-linejoin="round" fill="#000000"/>
        <path d="M 25.3940,6.1897 L 24.2129,6.1897 L 24.2129,6.6199 L 25.3940,6.6199 L 25.3940,6.1897 Z" stroke="#494949" stroke-width="0.1201" stroke-linecap="round" stroke-linejoin="round" fill="#000000"/>
        <path d="M 27.1094,6.0232 L 27.1094,6.1758 L 26.8845,6.1758 L 26.8845,6.6061 L 25.9424,6.6061 L 25.9424,6.6477 L 25.6471,6.6477 L 25.6471,6.1758 L 25.7034,6.1758 L 25.7034,6.6061 L 25.9424,6.6061 L 25.9424,7.5637 L 26.0408,7.5637 L 26.0408,8.0633 L 25.9424,8.0633 L 25.9424,9.1458 L 29.5420,9.1458 L 29.5420,8.0633 L 29.4436,8.0633 L 29.4436,7.5637 L 29.5420,7.5637 L 29.5420,6.6061 L 29.7810,6.6061 L 29.7810,6.1758 L 29.8373,6.1758 L 29.8373,6.6477 L 29.5420,6.6477 L 29.5420,6.6061 L 28.5999,6.6061 L 28.5999,6.1758 L 28.3749,6.1758 L 28.3749,6.0232 L 27.1094,6.0232 Z" stroke="#000000" stroke-width="0.1201" stroke-linecap="round" stroke-linejoin="round" fill="#000000"/>
        <path d="M 26.8845,6.1897 L 25.7034,6.1897 L 25.7034,6.6199 L 26.8845,6.6199 L 26.8845,6.1897 Z" stroke="#494949" stroke-width="0.1201" stroke-linecap="round" stroke-linejoin="round" fill="#000000"/>
        <path d="M 29.7810,6.1897 L 28.5999,6.1897 L 28.5999,6.6199 L 29.7810,6.6199 L 29.7810,6.1897 Z" stroke="#494949" stroke-width="0.1201" stroke-linecap="round" stroke-linejoin="round" fill="#000000"/>
        <path d="M 31.4402,6.0232 L 31.4402,6.1758 L 31.2152,6.1758 L 31.2152,6.6061 L 30.2732,6.6061 L 30.2732,6.6477 L 29.9779,6.6477 L 29.9779,6.1758 L 30.0341,6.1758 L 30.0341,6.6061 L 30.2732,6.6061 L 30.2732,7.5637 L 30.3716,7.5637 L 30.3716,8.0633 L 30.2732,8.0633 L 30.2732,9.1458 L 33.8727,9.1458 L 33.8727,8.0633 L 33.7743,8.0633 L 33.7743,7.5637 L 33.8727,7.5637 L 33.8727,6.6061 L 34.1118,6.6061 L 34.1118,6.1758 L 34.1680,6.1758 L 34.1680,6.6477 L 33.8727,6.6477 L 33.8727,6.6061 L 32.9307,6.6061 L 32.9307,6.1758 L 32.7057,6.1758 L 32.7057,6.0232 L 31.4402,6.0232 Z" stroke="#000000" stroke-width="0.1201" stroke-linecap="round" stroke-linejoin="round" fill="#000000"/>
        <path d="M 31.2152,6.1897 L 30.0341,6.1897 L 30.0341,6.6199 L 31.2152,6.6199 L 31.2152,6.1897 Z" stroke="#494949" stroke-width="0.1201" stroke-linecap="round" stroke-linejoin="round" fill="#000000"/>
        <path d="M 34.1118,6.1897 L 32.9307,6.1897 L 32.9307,6.6199 L 34.1118,6.6199 L 34.1118,6.1897 Z" stroke="#494949" stroke-width="0.1201" stroke-linecap="round" stroke-linejoin="round" fill="#000000"/>
        <path d="M 37.6270,6.0232 L 37.6270,6.1758 L 37.4020,6.1758 L 37.4020,6.6061 L 36.4600,6.6061 L 36.4600,6.6477 L 36.1647,6.6477 L 36.1647,6.1758 L 36.2209,6.1758 L 36.2209,6.6061 L 36.4600,6.6061 L 36.4600,7.5637 L 36.5584,7.5637 L 36.5584,8.0633 L 36.4600,8.0633 L 36.4600,9.1458 L 40.0595,9.1458 L 40.0595,8.0633 L 39.9611,8.0633 L 39.9611,7.5637 L 40.0595,7.5637 L 40.0595,6.6061 L 40.2986,6.6061 L 40.2986,6.1758 L 40.3548,6.1758 L 40.3548,6.6477 L 40.0595,6.6477 L 40.0595,6.6061 L 39.1175,6.6061 L 39.1175,6.1758 L 38.8925,6.1758 L 38.8925,6.0232 L 37.6270,6.0232 Z" stroke="#000000" stroke-width="0.1201" stroke-linecap="round" stroke-linejoin="round" fill="#000000"/>
        <path d="M 37.4020,6.1897 L 36.2209,6.1897 L 36.2209,6.6199 L 37.4020,6.6199 L 37.4020,6.1897 Z" stroke="#494949" stroke-width="0.1201" stroke-linecap="round" stroke-linejoin="round" fill="#000000"/>
        <path d="M 40.2986,6.1897 L 39.1175,6.1897 L 39.1175,6.6199 L 40.2986,6.6199 L 40.2986,6.1897 Z" stroke="#494949" stroke-width="0.1201" stroke-linecap="round" stroke-linejoin="round" fill="#000000"/>
        <path d="M 41.9578,6.0232 L 41.9578,6.1758 L 41.7328,6.1758 L 41.7328,6.6061 L 40.7907,6.6061 L 40.7907,6.6477 L 40.4954,6.6477 L 40.4954,6.1758 L 40.5517,6.1758 L 40.5517,6.6061 L 40.7907,6.6061 L 40.7907,7.5637 L 40.8891,7.5637 L 40.8891,8.0633 L 40.7907,8.0633 L 40.7907,9.1458 L 44.3903,9.1458 L 44.3903,8.0633 L 44.2919,8.0633 L 44.2919,7.5637 L 44.3903,7.5637 L 44.3903,6.6061 L 44.6293,6.6061 L 44.6293,6.1758 L 44.6856,6.1758 L 44.6856,6.6477 L 44.3903,6.6477 L 44.3903,6.6061 L 43.4482,6.6061 L 43.4482,6.1758 L 43.2233,6.1758 L 43.2233,6.0232 L 41.9578,6.0232 Z" stroke="#000000" stroke-width="0.1201" stroke-linecap="round" stroke-linejoin="round" fill="#000000"/>
        <path d="M 41.7328,6.1897 L 40.5517,6.1897 L 40.5517,6.6199 L 41.7328,6.6199 L 41.7328,6.1897 Z" stroke="#494949" stroke-width="0.1201" stroke-linecap="round" stroke-linejoin="round" fill="#000000"/>
        <path d="M 44.6293,6.1897 L 43.4482,6.1897 L 43.4482,6.6199 L 44.6293,6.6199 L 44.6293,6.1897 Z" stroke="#494949" stroke-width="0.1201" stroke-linecap="round" stroke-linejoin="round" fill="#000000"/>
        <path d="M 46.3448,6.0232 L 46.3448,6.1758 L 46.1198,6.1758 L 46.1198,6.6061 L 45.1777,6.6061 L 45.1777,6.6477 L 44.8824,6.6477 L 44.8824,6.1758 L 44.9387,6.1758 L 44.9387,6.6061 L 45.1777,6.6061 L 45.1777,7.5637 L 45.2761,7.5637 L 45.2761,8.0633 L 45.1777,8.0633 L 45.1777,9.1458 L 48.7773,9.1458 L 48.7773,8.0633 L 48.6789,8.0633 L 48.6789,7.5637 L 48.7773,7.5637 L 48.7773,6.6061 L 49.0164,6.6061 L 49.0164,6.1758 L 49.0726,6.1758 L 49.0726,6.6477 L 48.7773,6.6477 L 48.7773,6.6061 L 47.8352,6.6061 L 47.8352,6.1758 L 47.6103,6.1758 L 47.6103,6.0232 L 46.3448,6.0232 Z" stroke="#000000" stroke-width="0.1201" stroke-linecap="round" stroke-linejoin="round" fill="#000000"/>
        <path d="M 46.1198,6.1897 L 44.9387,6.1897 L 44.9387,6.6199 L 46.1198,6.6199 L 46.1198,6.1897 Z" stroke="#494949" stroke-width="0.1201" stroke-linecap="round" stroke-linejoin="round" fill="#000000"/>
        <path d="M 49.0164,6.1897 L 47.8352,6.1897 L 47.8352,6.6199 L 49.0164,6.6199 L 49.0164,6.1897 Z" stroke="#494949" stroke-width="0.1201" stroke-linecap="round" stroke-linejoin="round" fill="#000000"/>
        <path d="M 50.6755,6.0232 L 50.6755,6.1758 L 50.4506,6.1758 L 50.4506,6.6061 L 49.5085,6.6061 L 49.5085,6.6477 L 49.2132,6.6477 L 49.2132,6.1758 L 49.2694,6.1758 L 49.2694,6.6061 L 49.5085,6.6061 L 49.5085,7.5637 L 49.6069,7.5637 L 49.6069,8.0633 L 49.5085,8.0633 L 49.5085,9.1458 L 53.1081,9.1458 L 53.1081,8.0633 L 53.0097,8.0633 L 53.0097,7.5637 L 53.1081,7.5637 L 53.1081,6.6061 L 53.3471,6.6061 L 53.3471,6.1758 L 53.4034,6.1758 L 53.4034,6.6477 L 53.1081,6.6477 L 53.1081,6.6061 L 52.1660,6.6061 L 52.1660,6.1758 L 51.9410,6.1758 L 51.9410,6.0232 L 50.6755,6.0232 Z" stroke="#000000" stroke-width="0.1201" stroke-linecap="round" stroke-linejoin="round" fill="#000000"/>
        <path d="M 50.4506,6.1897 L 49.2694,6.1897 L 49.2694,6.6199 L 50.4506,6.6199 L 50.4506,6.1897 Z" stroke="#494949" stroke-width="0.1201" stroke-linecap="round" stroke-linejoin="round" fill="#000000"/>
        <path d="M 53.3471,6.1897 L 52.1660,6.1897 L 52.1660,6.6199 L 53.3471,6.6199 L 53.3471,6.1897 Z" stroke="#494949" stroke-width="0.1201" stroke-linecap="round" stroke-linejoin="round" fill="#000000"/>
        <path d="M 61.0525,9.8179 L 57.0873,9.8179 L 57.0873,7.1453 L 61.0525,7.1453 L 61.0525,9.8179 Z" stroke="#000000" stroke-width="0.1201" stroke-linecap="round" stroke-linejoin="round" fill="none"/>
        <path d="M 61.0525,9.8179 L 57.0873,9.8179 L 57.0873,7.1453 L 61.0525,7.1453 L 61.0525,9.8179 Z" stroke="#000000" stroke-width="0.1201" stroke-linecap="round" stroke-linejoin="round" fill="#DDDDDD"/>
        <path d="M 60.9313,9.7617 L 57.1911,9.7617 L 57.1911,7.2017 L 60.9313,7.2017 L 60.9313,9.7617 Z" stroke="#000000" stroke-width="0.1201" stroke-linecap="round" stroke-linejoin="round" fill="#999974"/>
        <path d="M 60.8755,7.4408 L 60.8755,7.3986 L 60.8336,7.3142 L 60.7499,7.2720 L 57.3725,7.2720 L 57.2888,7.3142 L 57.2469,7.3986 L 57.2469,9.5788 L 57.2888,9.6632 L 57.3725,9.7054 L 60.7499,9.7054 L 60.8336,9.6632 L 60.8755,9.5788 L 60.8755,9.5366 L 60.8755,7.4408 Z" stroke="#7F7F7F" stroke-width="0.1201" stroke-linecap="round" stroke-linejoin="round" fill="#CCCCB9"/>
        <path d="M 57.4702,9.5366 L 57.4702,8.0035 L 57.5958,8.0035 L 57.5958,7.8487 L 57.4702,7.8487 L 57.4702,7.6096 L 57.7354,7.6096 L 57.7354,7.3283 L 58.6425,7.3283 L 58.6425,7.6096 L 58.9216,7.6096 L 58.9216,7.8487 L 58.7960,7.8487 L 58.7960,8.0035 L 58.9216,8.0035 L 58.9216,9.5366 L 57.4702,9.5366 Z" stroke="#000000" stroke-width="0.1201" stroke-linecap="round" stroke-linejoin="round" fill="#938476"/>
        <path d="M 57.4702,7.7362 L 57.4702,7.6096 L 57.7354,7.6096 L 57.7354,7.3142 L 58.6425,7.3142 L 58.6425,7.6096 L 58.9216,7.6096 L 58.9216,7.7362 L 57.4702,7.7362 Z" stroke="#000000" stroke-width="0.1201" stroke-linecap="round" stroke-linejoin="round" fill="#938476"/>
        <path d="M 57.4702,7.7362 L 57.4702,7.7925 L 58.9216,7.7925 L 58.9216,7.7362 L 57.4702,7.7362 Z" stroke="#000000" stroke-width="0.1201" stroke-linecap="round" stroke-linejoin="round" fill="#706257"/>
        <path d="M 57.4702,8.3832 L 58.9077,8.3832 " stroke="#000000" stroke-width="0.1201" stroke-linecap="round" stroke-linejoin="round" fill="none"/>
        <path d="M 58.7123,9.5366 L 58.7681,9.4804 L 58.7821,9.4522 L 58.8100,9.4241 L 58.8239,9.3960 L 58.8379,9.3538 L 58.8658,9.2975 L 58.8798,9.2553 L 58.9077,9.1991 L 58.9077,9.1287 L 58.9216,9.0865 L 58.9216,8.9459 L 58.9077,8.9037 L 58.9077,8.8334 L 58.8798,8.7771 L 58.8658,8.7349 L 58.8379,8.6786 L 58.8239,8.6364 L 58.8100,8.6083 L 58.7821,8.5802 L 58.7681,8.5520 L 58.6565,8.4395 L 58.6286,8.4254 L 58.6007,8.3973 L 58.5727,8.3832 L 58.5309,8.3692 L 58.4751,8.3410 L 58.4332,8.3270 L 58.3774,8.2988 L 58.3076,8.2988 L 58.2657,8.2848 L 58.1262,8.2848 L 58.0843,8.2988 L 58.0145,8.2988 L 57.9587,8.3270 L 57.9168,8.3410 L 57.8610,8.3692 L 57.8191,8.3832 L 57.7912,8.3973 L 57.7633,8.4254 L 57.7354,8.4395 L 57.6237,8.5520 L 57.6098,8.5802 L 57.5819,8.6083 L 57.5679,8.6364 L 57.5540,8.6786 L 57.5261,8.7349 L 57.5121,8.7771 L 57.4842,8.8334 L 57.4842,8.9037 L 57.4702,8.9459 L 57.4702,9.0865 L 57.4842,9.1287 L 57.4842,9.1991 L 57.5121,9.2553 L 57.5261,9.2975 L 57.5540,9.3538 L 57.5679,9.3960 L 57.5819,9.4241 L 57.6098,9.4522 L 57.6237,9.4804 L 57.6796,9.5366 L 58.6983,9.5366 L 58.7123,9.5366 Z" stroke="#000000" stroke-width="0.1201" stroke-linecap="round" stroke-linejoin="round" fill="#A09183"/>
        <ellipse cx="58.1331" cy="8.9529" rx="0.2861" ry="0.2883" fill="none" stroke="#494949" stroke-width="0.1201" stroke-linecap="round" stroke-linejoin="round"/>
        <ellipse cx="58.1331" cy="8.9529" rx="0.1744" ry="0.1758" fill="#706257" stroke="#000000" stroke-width="0.1201" stroke-linecap="round" stroke-linejoin="round"/>
        <ellipse cx="58.1331" cy="8.9529" rx="0.1744" ry="0.1758" fill="none" stroke="#000000" stroke-width="0.1201" stroke-linecap="round" stroke-linejoin="round"/>
        <ellipse cx="58.1401" cy="8.9529" rx="0.1675" ry="0.1618" fill="#9B8C81" stroke="#000000" stroke-width="0.1201" stroke-linecap="round" stroke-linejoin="round"/>
        <ellipse cx="58.1401" cy="8.9529" rx="0.1675" ry="0.1618" fill="none" stroke="#000000" stroke-width="0.1201" stroke-linecap="round" stroke-linejoin="round"/>
        <path d="M 58.2378,8.8052 L 58.1680,8.8052 L 58.1680,9.2413 L 58.2378,9.2413 L 58.2378,8.8052 Z" stroke="#000000" stroke-width="0.1201" stroke-linecap="round" stroke-linejoin="round" fill="#4F443C"/>
        <path d="M 59.1449,9.5366 L 59.1449,8.0035 L 59.2705,8.0035 L 59.2705,7.8487 L 59.1449,7.8487 L 59.1449,7.6096 L 59.4101,7.6096 L 59.4101,7.3283 L 60.3172,7.3283 L 60.3172,7.6096 L 60.5963,7.6096 L 60.5963,7.8487 L 60.4707,7.8487 L 60.4707,8.0035 L 60.5963,8.0035 L 60.5963,9.5366 L 59.1449,9.5366 Z" stroke="#000000" stroke-width="0.1201" stroke-linecap="round" stroke-linejoin="round" fill="#938476"/>
        <path d="M 59.1449,7.7362 L 59.1449,7.6096 L 59.4101,7.6096 L 59.4101,7.3142 L 60.3172,7.3142 L 60.3172,7.6096 L 60.5963,7.6096 L 60.5963,7.7362 L 59.1449,7.7362 Z" stroke="#000000" stroke-width="0.1201" stroke-linecap="round" stroke-linejoin="round" fill="#938476"/>
        <path d="M 59.1449,7.7362 L 59.1449,7.7925 L 60.5963,7.7925 L 60.5963,7.7362 L 59.1449,7.7362 Z" stroke="#000000" stroke-width="0.1201" stroke-linecap="round" stroke-linejoin="round" fill="#706257"/>
        <path d="M 59.1449,8.3832 L 60.5824,8.3832 " stroke="#000000" stroke-width="0.1201" stroke-linecap="round" stroke-linejoin="round" fill="none"/>
        <path d="M 60.3870,9.5366 L 60.4428,9.4804 L 60.4568,9.4522 L 60.4847,9.4241 L 60.4986,9.3960 L 60.5126,9.3538 L 60.5405,9.2975 L 60.5545,9.2553 L 60.5824,9.1991 L 60.5824,9.1287 L 60.5963,9.0865 L 60.5963,8.9459 L 60.5824,8.9037 L 60.5824,8.8334 L 60.5545,8.7771 L 60.5405,8.7349 L 60.5126,8.6786 L 60.4986,8.6364 L 60.4847,8.6083 L 60.4568,8.5802 L 60.4428,8.5520 L 60.3312,8.4395 L 60.3033,8.4254 L 60.2754,8.3973 L 60.2474,8.3832 L 60.2056,8.3692 L 60.1498,8.3410 L 60.1079,8.3270 L 60.0521,8.2988 L 59.9823,8.2988 L 59.9404,8.2848 L 59.8009,8.2848 L 59.7590,8.2988 L 59.6892,8.2988 L 59.6334,8.3270 L 59.5915,8.3410 L 59.5357,8.3692 L 59.4938,8.3832 L 59.4659,8.3973 L 59.4380,8.4254 L 59.4101,8.4395 L 59.2984,8.5520 L 59.2845,8.5802 L 59.2566,8.6083 L 59.2426,8.6364 L 59.2287,8.6786 L 59.2008,8.7349 L 59.1868,8.7771 L 59.1589,8.8334 L 59.1589,8.9037 L 59.1449,8.9459 L 59.1449,9.0865 L 59.1589,9.1287 L 59.1589,9.1991 L 59.1868,9.2553 L 59.2008,9.2975 L 59.2287,9.3538 L 59.2426,9.3960 L 59.2566,9.4241 L 59.2845,9.4522 L 59.2984,9.4804 L 59.3543,9.5366 L 60.3730,9.5366 L 60.3870,9.5366 Z" stroke="#000000" stroke-width="0.1201" stroke-linecap="round" stroke-linejoin="round" fill="#A09183"/>
        <ellipse cx="59.8078" cy="8.9529" rx="0.2861" ry="0.2883" fill="none" stroke="#494949" stroke-width="0.1201" stroke-linecap="round" stroke-linejoin="round"/>
        <ellipse cx="59.8148" cy="8.9529" rx="0.1814" ry="0.1758" fill="#706257" stroke="#000000" stroke-width="0.1201" stroke-linecap="round" stroke-linejoin="round"/>
        <ellipse cx="59.8148" cy="8.9529" rx="0.1814" ry="0.1758" fill="none" stroke="#000000" stroke-width="0.1201" stroke-linecap="round" stroke-linejoin="round"/>
        <ellipse cx="59.8078" cy="8.9529" rx="0.1605" ry="0.1618" fill="#9B8C81" stroke="#000000" stroke-width="0.1201" stroke-linecap="round" stroke-linejoin="round"/>
        <ellipse cx="59.8078" cy="8.9529" rx="0.1605" ry="0.1618" fill="none" stroke="#000000" stroke-width="0.1201" stroke-linecap="round" stroke-linejoin="round"/>
        <path d="M 59.9125,8.8052 L 59.8427,8.8052 L 59.8427,9.2413 L 59.9125,9.2413 L 59.9125,8.8052 Z" stroke="#000000" stroke-width="0.1201" stroke-linecap="round" stroke-linejoin="round" fill="#4F443C"/>
        <path d="M 65.1583,9.8179 L 61.1931,9.8179 L 61.1931,7.1453 L 65.1583,7.1453 L 65.1583,9.8179 Z" stroke="#000000" stroke-width="0.1201" stroke-linecap="round" stroke-linejoin="round" fill="none"/>
        <path d="M 65.1583,9.8179 L 61.1931,9.8179 L 61.1931,7.1453 L 65.1583,7.1453 L 65.1583,9.8179 Z" stroke="#000000" stroke-width="0.1201" stroke-linecap="round" stroke-linejoin="round" fill="#DDDDDD"/>
        <path d="M 65.0483,9.7617 L 61.3081,9.7617 L 61.3081,7.2017 L 65.0483,7.2017 L 65.0483,9.7617 Z" stroke="#000000" stroke-width="0.1201" stroke-linecap="round" stroke-linejoin="round" fill="#999974"/>
        <path d="M 64.9924,7.4408 L 64.9924,7.3986 L 64.9506,7.3142 L 64.8668,7.2720 L 61.4895,7.2720 L 61.4058,7.3142 L 61.3639,7.3986 L 61.3639,9.5788 L 61.4058,9.6632 L 61.4895,9.7054 L 64.8668,9.7054 L 64.9506,9.6632 L 64.9924,9.5788 L 64.9924,9.5366 L 64.9924,7.4408 Z" stroke="#7F7F7F" stroke-width="0.1201" stroke-linecap="round" stroke-linejoin="round" fill="#CCCCB9"/>
        <path d="M 61.5872,9.5366 L 61.5872,8.0035 L 61.7128,8.0035 L 61.7128,7.8487 L 61.5872,7.8487 L 61.5872,7.6096 L 61.8524,7.6096 L 61.8524,7.3283 L 62.7595,7.3283 L 62.7595,7.6096 L 63.0386,7.6096 L 63.0386,7.8487 L 62.9130,7.8487 L 62.9130,8.0035 L 63.0386,8.0035 L 63.0386,9.5366 L 61.5872,9.5366 Z" stroke="#000000" stroke-width="0.1201" stroke-linecap="round" stroke-linejoin="round" fill="#938476"/>
        <path d="M 61.5872,7.7362 L 61.5872,7.6096 L 61.8524,7.6096 L 61.8524,7.3142 L 62.7595,7.3142 L 62.7595,7.6096 L 63.0386,7.6096 L 63.0386,7.7362 L 61.5872,7.7362 Z" stroke="#000000" stroke-width="0.1201" stroke-linecap="round" stroke-linejoin="round" fill="#938476"/>
        <path d="M 61.5872,7.7362 L 61.5872,7.7925 L 63.0386,7.7925 L 63.0386,7.7362 L 61.5872,7.7362 Z" stroke="#000000" stroke-width="0.1201" stroke-linecap="round" stroke-linejoin="round" fill="#706257"/>
        <path d="M 61.5872,8.3832 L 63.0247,8.3832 " stroke="#000000" stroke-width="0.1201" stroke-linecap="round" stroke-linejoin="round" fill="none"/>
        <path d="M 62.8293,9.5366 L 62.8851,9.4804 L 62.8991,9.4522 L 62.9270,9.4241 L 62.9409,9.3960 L 62.9549,9.3538 L 62.9828,9.2975 L 62.9967,9.2553 L 63.0247,9.1991 L 63.0247,9.1287 L 63.0386,9.0865 L 63.0386,8.9459 L 63.0247,8.9037 L 63.0247,8.8334 L 62.9967,8.7771 L 62.9828,8.7349 L 62.9549,8.6786 L 62.9409,8.6364 L 62.9270,8.6083 L 62.8991,8.5802 L 62.8851,8.5520 L 62.7735,8.4395 L 62.7455,8.4254 L 62.7176,8.3973 L 62.6897,8.3832 L 62.6479,8.3692 L 62.5920,8.3410 L 62.5502,8.3270 L 62.4943,8.2988 L 62.4246,8.2988 L 62.3827,8.2848 L 62.2431,8.2848 L 62.2013,8.2988 L 62.1315,8.2988 L 62.0757,8.3270 L 62.0338,8.3410 L 61.9780,8.3692 L 61.9361,8.3832 L 61.9082,8.3973 L 61.8803,8.4254 L 61.8524,8.4395 L 61.7407,8.5520 L 61.7268,8.5802 L 61.6989,8.6083 L 61.6849,8.6364 L 61.6709,8.6786 L 61.6430,8.7349 L 61.6291,8.7771 L 61.6012,8.8334 L 61.6012,8.9037 L 61.5872,8.9459 L 61.5872,9.0865 L 61.6012,9.1287 L 61.6012,9.1991 L 61.6291,9.2553 L 61.6430,9.2975 L 61.6709,9.3538 L 61.6849,9.3960 L 61.6989,9.4241 L 61.7268,9.4522 L 61.7407,9.4804 L 61.7965,9.5366 L 62.8153,9.5366 L 62.8293,9.5366 Z" stroke="#000000" stroke-width="0.1201" stroke-linecap="round" stroke-linejoin="round" fill="#A09183"/>
        <ellipse cx="62.2501" cy="8.9529" rx="0.2861" ry="0.2883" fill="none" stroke="#494949" stroke-width="0.1201" stroke-linecap="round" stroke-linejoin="round"/>
        <ellipse cx="62.2501" cy="8.9529" rx="0.1744" ry="0.1758" fill="#706257" stroke="#000000" stroke-width="0.1201" stroke-linecap="round" stroke-linejoin="round"/>
        <ellipse cx="62.2501" cy="8.9529" rx="0.1744" ry="0.1758" fill="none" stroke="#000000" stroke-width="0.1201" stroke-linecap="round" stroke-linejoin="round"/>
        <ellipse cx="62.2571" cy="8.9529" rx="0.1675" ry="0.1618" fill="#9B8C81" stroke="#000000" stroke-width="0.1201" stroke-linecap="round" stroke-linejoin="round"/>
        <ellipse cx="62.2571" cy="8.9529" rx="0.1675" ry="0.1618" fill="none" stroke="#000000" stroke-width="0.1201" stroke-linecap="round" stroke-linejoin="round"/>
        <path d="M 62.3548,8.8052 L 62.2850,8.8052 L 62.2850,9.2413 L 62.3548,9.2413 L 62.3548,8.8052 Z" stroke="#000000" stroke-width="0.1201" stroke-linecap="round" stroke-linejoin="round" fill="#4F443C"/>
        <path d="M 63.2619,9.5366 L 63.2619,8.0035 L 63.3875,8.0035 L 63.3875,7.8487 L 63.2619,7.8487 L 63.2619,7.6096 L 63.5271,7.6096 L 63.5271,7.3283 L 64.4342,7.3283 L 64.4342,7.6096 L 64.7133,7.6096 L 64.7133,7.8487 L 64.5877,7.8487 L 64.5877,8.0035 L 64.7133,8.0035 L 64.7133,9.5366 L 63.2619,9.5366 Z" stroke="#000000" stroke-width="0.1201" stroke-linecap="round" stroke-linejoin="round" fill="#938476"/>
        <path d="M 63.2619,7.7362 L 63.2619,7.6096 L 63.5271,7.6096 L 63.5271,7.3142 L 64.4342,7.3142 L 64.4342,7.6096 L 64.7133,7.6096 L 64.7133,7.7362 L 63.2619,7.7362 Z" stroke="#000000" stroke-width="0.1201" stroke-linecap="round" stroke-linejoin="round" fill="#938476"/>
        <path d="M 63.2619,7.7362 L 63.2619,7.7925 L 64.7133,7.7925 L 64.7133,7.7362 L 63.2619,7.7362 Z" stroke="#000000" stroke-width="0.1201" stroke-linecap="round" stroke-linejoin="round" fill="#706257"/>
        <path d="M 63.2619,8.3832 L 64.6994,8.3832 " stroke="#000000" stroke-width="0.1201" stroke-linecap="round" stroke-linejoin="round" fill="none"/>
        <path d="M 64.5040,9.5366 L 64.5598,9.4804 L 64.5738,9.4522 L 64.6017,9.4241 L 64.6156,9.3960 L 64.6296,9.3538 L 64.6575,9.2975 L 64.6715,9.2553 L 64.6994,9.1991 L 64.6994,9.1287 L 64.7133,9.0865 L 64.7133,8.9459 L 64.6994,8.9037 L 64.6994,8.8334 L 64.6715,8.7771 L 64.6575,8.7349 L 64.6296,8.6786 L 64.6156,8.6364 L 64.6017,8.6083 L 64.5738,8.5802 L 64.5598,8.5520 L 64.4482,8.4395 L 64.4202,8.4254 L 64.3923,8.3973 L 64.3644,8.3832 L 64.3226,8.3692 L 64.2667,8.3410 L 64.2249,8.3270 L 64.1690,8.2988 L 64.0993,8.2988 L 64.0574,8.2848 L 63.9178,8.2848 L 63.8760,8.2988 L 63.8062,8.2988 L 63.7504,8.3270 L 63.7085,8.3410 L 63.6527,8.3692 L 63.6108,8.3832 L 63.5829,8.3973 L 63.5550,8.4254 L 63.5271,8.4395 L 63.4154,8.5520 L 63.4015,8.5802 L 63.3736,8.6083 L 63.3596,8.6364 L 63.3456,8.6786 L 63.3177,8.7349 L 63.3038,8.7771 L 63.2759,8.8334 L 63.2759,8.9037 L 63.2619,8.9459 L 63.2619,9.0865 L 63.2759,9.1287 L 63.2759,9.1991 L 63.3038,9.2553 L 63.3177,9.2975 L 63.3456,9.3538 L 63.3596,9.3960 L 63.3736,9.4241 L 63.4015,9.4522 L 63.4154,9.4804 L 63.4712,9.5366 L 64.4900,9.5366 L 64.5040,9.5366 Z" stroke="#000000" stroke-width="0.1201" stroke-linecap="round" stroke-linejoin="round" fill="#A09183"/>
        <ellipse cx="63.9248" cy="8.9529" rx="0.2861" ry="0.2883" fill="none" stroke="#494949" stroke-width="0.1201" stroke-linecap="round" stroke-linejoin="round"/>
        <ellipse cx="63.9318" cy="8.9529" rx="0.1814" ry="0.1758" fill="#706257" stroke="#000000" stroke-width="0.1201" stroke-linecap="round" stroke-linejoin="round"/>
        <ellipse cx="63.9318" cy="8.9529" rx="0.1814" ry="0.1758" fill="none" stroke="#000000" stroke-width="0.1201" stroke-linecap="round" stroke-linejoin="round"/>
        <ellipse cx="63.9318" cy="8.9529" rx="0.1675" ry="0.1618" fill="#9B8C81" stroke="#000000" stroke-width="0.1201" stroke-linecap="round" stroke-linejoin="round"/>
        <ellipse cx="63.9318" cy="8.9529" rx="0.1675" ry="0.1618" fill="none" stroke="#000000" stroke-width="0.1201" stroke-linecap="round" stroke-linejoin="round"/>
        <path d="M 64.0295,8.8052 L 63.9597,8.8052 L 63.9597,9.2413 L 64.0295,9.2413 L 64.0295,8.8052 Z" stroke="#000000" stroke-width="0.1201" stroke-linecap="round" stroke-linejoin="round" fill="#4F443C"/>
        <path d="M 17.9757,6.2452 L 17.2154,6.2452 L 17.2154,6.5568 L 17.9757,6.5568 L 17.9757,6.2452 Z" stroke="#000000" stroke-width="0.1201" stroke-linecap="round" stroke-linejoin="round" fill="#FFFF00"/>
        <path d="M 20.8947,6.2452 L 20.1344,6.2452 L 20.1344,6.5568 L 20.8947,6.5568 L 20.8947,6.2452 Z" stroke="#000000" stroke-width="0.1201" stroke-linecap="round" stroke-linejoin="round" fill="#83FF00"/>
        <path d="M 22.3067,6.2452 L 21.5464,6.2452 L 21.5464,6.5568 L 22.3067,6.5568 L 22.3067,6.2452 Z" stroke="#000000" stroke-width="0.1201" stroke-linecap="round" stroke-linejoin="round" fill="#FFFF00"/>
        <path d="M 25.2257,6.2452 L 24.4654,6.2452 L 24.4654,6.5568 L 25.2257,6.5568 L 25.2257,6.2452 Z" stroke="#000000" stroke-width="0.1201" stroke-linecap="round" stroke-linejoin="round" fill="#83FF00"/>
        <path d="M 26.6920,6.2452 L 25.9317,6.2452 L 25.9317,6.5568 L 26.6920,6.5568 L 26.6920,6.2452 Z" stroke="#000000" stroke-width="0.1201" stroke-linecap="round" stroke-linejoin="round" fill="#FFFF00"/>
        <path d="M 29.6110,6.2452 L 28.8507,6.2452 L 28.8507,6.5568 L 29.6110,6.5568 L 29.6110,6.2452 Z" stroke="#000000" stroke-width="0.1201" stroke-linecap="round" stroke-linejoin="round" fill="#83FF00"/>
        <path d="M 31.0230,6.2452 L 30.2627,6.2452 L 30.2627,6.5568 L 31.0230,6.5568 L 31.0230,6.2452 Z" stroke="#000000" stroke-width="0.1201" stroke-linecap="round" stroke-linejoin="round" fill="#FFFF00"/>
        <path d="M 33.9420,6.2452 L 33.1817,6.2452 L 33.1817,6.5568 L 33.9420,6.5568 L 33.9420,6.2452 Z" stroke="#000000" stroke-width="0.1201" stroke-linecap="round" stroke-linejoin="round" fill="#83FF00"/>
        <path d="M 37.2140,6.2452 L 36.4537,6.2452 L 36.4537,6.5568 L 37.2140,6.5568 L 37.2140,6.2452 Z" stroke="#000000" stroke-width="0.1201" stroke-linecap="round" stroke-linejoin="round" fill="#FFFF00"/>
        <path d="M 40.1330,6.2452 L 39.3727,6.2452 L 39.3727,6.5568 L 40.1330,6.5568 L 40.1330,6.2452 Z" stroke="#000000" stroke-width="0.1201" stroke-linecap="round" stroke-linejoin="round" fill="#83FF00"/>
        <path d="M 41.5450,6.2452 L 40.7847,6.2452 L 40.7847,6.5568 L 41.5450,6.5568 L 41.5450,6.2452 Z" stroke="#000000" stroke-width="0.1201" stroke-linecap="round" stroke-linejoin="round" fill="#FFFF00"/>
        <path d="M 44.4640,6.2452 L 43.7037,6.2452 L 43.7037,6.5568 L 44.4640,6.5568 L 44.4640,6.2452 Z" stroke="#000000" stroke-width="0.1201" stroke-linecap="round" stroke-linejoin="round" fill="#83FF00"/>
        <path d="M 45.9303,6.2452 L 45.1700,6.2452 L 45.1700,6.5568 L 45.9303,6.5568 L 45.9303,6.2452 Z" stroke="#000000" stroke-width="0.1201" stroke-linecap="round" stroke-linejoin="round" fill="#FFFF00"/>
        <path d="M 48.8493,6.2452 L 48.0890,6.2452 L 48.0890,6.5568 L 48.8493,6.5568 L 48.8493,6.2452 Z" stroke="#000000" stroke-width="0.1201" stroke-linecap="round" stroke-linejoin="round" fill="#83FF00"/>
        <path d="M 50.2613,6.2452 L 49.5010,6.2452 L 49.5010,6.5568 L 50.2613,6.5568 L 50.2613,6.2452 Z" stroke="#000000" stroke-width="0.1201" stroke-linecap="round" stroke-linejoin="round" fill="#FFFF00"/>
        <path d="M 53.1803,6.2452 L 52.4200,6.2452 L 52.4200,6.5568 L 53.1803,6.5568 L 53.1803,6.2452 Z" stroke="#000000" stroke-width="0.1201" stroke-linecap="round" stroke-linejoin="round" fill="#83FF00"/>
      </g>
      <!--emf-blob end-->
    </g>
  </g>
</svg>
