<svg xmlns="http://www.w3.org/2000/svg" xmlns:xlink="http://www.w3.org/1999/xlink" version="1.1" width="7.6032000000" height="4.0000000000" viewBox="0 0 136.8567 72.0000">
  <title><![CDATA[FSW-124D (F)]]></title>
  <g transform=" scale(4.000000) ">
    <!--converted by libvisio2svg-->
    <g transform=" translate(0.000000,23.669300) ">
      <!--emf-blob start-->
      <g transform="translate(-0.0000, -0.0000)">
        <path d="M 9.5326,1.1916 L 9.5326,2.0001 L 10.2279,2.0001 " stroke="#000000" stroke-width="0.1197" stroke-linecap="round" stroke-linejoin="round" fill="none"/>
        <path d="M 10.2279,1.1916 L 11.6002,1.1916 " stroke="#000000" stroke-width="0.1197" stroke-linecap="round" stroke-linejoin="round" fill="none"/>
        <path d="M 10.9049,1.1916 L 10.9049,2.0001 " stroke="#000000" stroke-width="0.1197" stroke-linecap="round" stroke-linejoin="round" fill="none"/>
        <path d="M 11.9478,1.1916 L 11.9478,2.0001 " stroke="#000000" stroke-width="0.1197" stroke-linecap="round" stroke-linejoin="round" fill="none"/>
        <path d="M 11.9478,1.1916 L 11.9478,2.0001 " stroke="#000000" stroke-width="0.1197" stroke-linecap="round" stroke-linejoin="round" fill="none"/>
        <path d="M 12.6248,2.0001 L 12.6248,1.1916 L 13.3201,2.0001 L 14.0153,1.1916 L 14.0153,2.0001 " stroke="#000000" stroke-width="0.1197" stroke-linecap="round" stroke-linejoin="round" fill="none"/>
        <path d="M 14.3447,2.0001 L 15.0400,1.1916 L 15.7352,2.0001 " stroke="#000000" stroke-width="0.1197" stroke-linecap="round" stroke-linejoin="round" fill="none"/>
        <path d="M 14.5276,1.7980 L 15.5523,1.7980 " stroke="#000000" stroke-width="0.1197" stroke-linecap="round" stroke-linejoin="round" fill="none"/>
        <path d="M 7.4651,2.0001 L 8.1604,1.1916 L 8.8556,2.0001 " stroke="#000000" stroke-width="0.1197" stroke-linecap="round" stroke-linejoin="round" fill="none"/>
        <path d="M 7.6481,1.7980 L 8.6727,1.7980 " stroke="#000000" stroke-width="0.1197" stroke-linecap="round" stroke-linejoin="round" fill="none"/>
        <path d="M 136.4196,0.0281 L 0.0280,0.0281 L 0.0280,12.2745 L 136.4196,12.2745 L 136.4196,0.0281 Z" stroke="#000000" stroke-width="0.1197" stroke-linecap="round" stroke-linejoin="round" fill="#EFEFEF"/>
        <path d="M 130.3067,0.0281 L 6.1410,0.0281 L 6.1410,12.2745 L 130.3067,12.2745 L 130.3067,0.0281 Z" stroke="#000000" stroke-width="0.1197" stroke-linecap="round" stroke-linejoin="round" fill="#E2E2E2"/>
        <path d="M 130.0964,0.2107 L 6.3513,0.2107 L 6.3513,12.0920 L 130.0964,12.0920 L 130.0964,0.2107 Z" stroke="#EFEFEF" stroke-width="0.1197" stroke-linecap="round" stroke-linejoin="round" fill="#EFEFEF"/>
        <path d="M 4.2903,1.5729 L 4.2903,1.4887 L 4.2763,1.4044 L 4.2482,1.3201 L 4.2202,1.2499 L 4.1921,1.1657 L 4.1501,1.1095 L 4.0940,1.0393 L 3.9818,0.9269 L 3.9117,0.8707 L 3.8556,0.8286 L 3.7715,0.8005 L 3.7014,0.7724 L 3.6173,0.7443 L 3.5332,0.7303 L 1.8227,0.7303 L 1.7385,0.7443 L 1.6544,0.7724 L 1.5843,0.8005 L 1.5002,0.8286 L 1.4441,0.8707 L 1.3740,0.9269 L 1.2618,1.0393 L 1.2058,1.1095 L 1.1637,1.1657 L 1.1357,1.2499 L 1.1076,1.3201 L 1.0796,1.4044 L 1.0656,1.4887 L 1.0656,1.6572 L 1.0796,1.7415 L 1.1076,1.8257 L 1.1357,1.8960 L 1.1637,1.9802 L 1.2058,2.0364 L 1.2618,2.1066 L 1.3740,2.2190 L 1.4441,2.2751 L 1.5002,2.3173 L 1.5843,2.3454 L 1.6544,2.3734 L 1.7385,2.4015 L 1.8227,2.4156 L 3.5332,2.4156 L 3.6173,2.4015 L 3.7014,2.3734 L 3.7715,2.3454 L 3.8556,2.3173 L 3.9117,2.2751 L 3.9818,2.2190 L 4.0940,2.1066 L 4.1501,2.0364 L 4.1921,1.9802 L 4.2202,1.8960 L 4.2482,1.8257 L 4.2763,1.7415 L 4.2903,1.6572 L 4.2903,1.5729 Z" stroke="#000000" stroke-width="0.1197" stroke-linecap="round" stroke-linejoin="round" fill="#FFFFFF"/>
        <path d="M 4.2903,10.7297 L 4.2903,10.6454 L 4.2763,10.5611 L 4.2482,10.4769 L 4.2202,10.4067 L 4.1921,10.3224 L 4.1501,10.2662 L 4.0940,10.1960 L 3.9818,10.0836 L 3.9117,10.0275 L 3.8556,9.9853 L 3.7715,9.9573 L 3.7014,9.9292 L 3.6173,9.9011 L 3.5332,9.8870 L 1.8227,9.8870 L 1.7385,9.9011 L 1.6544,9.9292 L 1.5843,9.9573 L 1.5002,9.9853 L 1.4441,10.0275 L 1.3740,10.0836 L 1.2618,10.1960 L 1.2058,10.2662 L 1.1637,10.3224 L 1.1357,10.4067 L 1.1076,10.4769 L 1.0796,10.5611 L 1.0656,10.6454 L 1.0656,10.8139 L 1.0796,10.8982 L 1.1076,10.9825 L 1.1357,11.0527 L 1.1637,11.1370 L 1.2058,11.1931 L 1.2618,11.2634 L 1.3740,11.3757 L 1.4441,11.4319 L 1.5002,11.4740 L 1.5843,11.5021 L 1.6544,11.5302 L 1.7385,11.5583 L 1.8227,11.5723 L 3.5332,11.5723 L 3.6173,11.5583 L 3.7014,11.5302 L 3.7715,11.5021 L 3.8556,11.4740 L 3.9117,11.4319 L 3.9818,11.3757 L 4.0940,11.2634 L 4.1501,11.1931 L 4.1921,11.1370 L 4.2202,11.0527 L 4.2482,10.9825 L 4.2763,10.8982 L 4.2903,10.8139 L 4.2903,10.7297 Z" stroke="#000000" stroke-width="0.1197" stroke-linecap="round" stroke-linejoin="round" fill="#FFFFFF"/>
        <path d="M 135.3821,1.5729 L 135.3821,1.4887 L 135.3681,1.4044 L 135.3400,1.3201 L 135.3120,1.2499 L 135.2840,1.1657 L 135.2419,1.1095 L 135.1858,1.0393 L 135.0737,0.9269 L 135.0036,0.8707 L 134.9475,0.8286 L 134.8633,0.8005 L 134.7932,0.7724 L 134.7091,0.7443 L 134.6250,0.7303 L 132.9145,0.7303 L 132.8304,0.7443 L 132.7463,0.7724 L 132.6761,0.8005 L 132.5920,0.8286 L 132.5359,0.8707 L 132.4658,0.9269 L 132.3537,1.0393 L 132.2976,1.1095 L 132.2555,1.1657 L 132.2275,1.2499 L 132.1995,1.3201 L 132.1714,1.4044 L 132.1574,1.4887 L 132.1574,1.6572 L 132.1714,1.7415 L 132.1995,1.8257 L 132.2275,1.8960 L 132.2555,1.9802 L 132.2976,2.0364 L 132.3537,2.1066 L 132.4658,2.2190 L 132.5359,2.2751 L 132.5920,2.3173 L 132.6761,2.3454 L 132.7463,2.3734 L 132.8304,2.4015 L 132.9145,2.4156 L 134.6250,2.4156 L 134.7091,2.4015 L 134.7932,2.3734 L 134.8633,2.3454 L 134.9475,2.3173 L 135.0036,2.2751 L 135.0737,2.2190 L 135.1858,2.1066 L 135.2419,2.0364 L 135.2840,1.9802 L 135.3120,1.8960 L 135.3400,1.8257 L 135.3681,1.7415 L 135.3821,1.6572 L 135.3821,1.5729 Z" stroke="#000000" stroke-width="0.1197" stroke-linecap="round" stroke-linejoin="round" fill="#FFFFFF"/>
        <path d="M 135.3821,10.7297 L 135.3821,10.6454 L 135.3681,10.5611 L 135.3400,10.4769 L 135.3120,10.4067 L 135.2840,10.3224 L 135.2419,10.2662 L 135.1858,10.1960 L 135.0737,10.0836 L 135.0036,10.0275 L 134.9475,9.9853 L 134.8633,9.9573 L 134.7932,9.9292 L 134.7091,9.9011 L 134.6250,9.8870 L 132.9145,9.8870 L 132.8304,9.9011 L 132.7463,9.9292 L 132.6761,9.9573 L 132.5920,9.9853 L 132.5359,10.0275 L 132.4658,10.0836 L 132.3537,10.1960 L 132.2976,10.2662 L 132.2555,10.3224 L 132.2275,10.4067 L 132.1995,10.4769 L 132.1714,10.5611 L 132.1574,10.6454 L 132.1574,10.8139 L 132.1714,10.8982 L 132.1995,10.9825 L 132.2275,11.0527 L 132.2555,11.1370 L 132.2976,11.1931 L 132.3537,11.2634 L 132.4658,11.3757 L 132.5359,11.4319 L 132.5920,11.4740 L 132.6761,11.5021 L 132.7463,11.5302 L 132.8304,11.5583 L 132.9145,11.5723 L 134.6250,11.5723 L 134.7091,11.5583 L 134.7932,11.5302 L 134.8633,11.5021 L 134.9475,11.4740 L 135.0036,11.4319 L 135.0737,11.3757 L 135.1858,11.2634 L 135.2419,11.1931 L 135.2840,11.1370 L 135.3120,11.0527 L 135.3400,10.9825 L 135.3681,10.8982 L 135.3821,10.8139 L 135.3821,10.7297 Z" stroke="#000000" stroke-width="0.1197" stroke-linecap="round" stroke-linejoin="round" fill="#FFFFFF"/>
        <path d="M 61.1014,2.7386 L 43.7160,2.7386 L 43.7160,10.4769 L 61.1014,10.4769 L 61.1014,2.7386 Z" stroke="#000000" stroke-width="0.1197" stroke-linecap="round" stroke-linejoin="round" fill="#BFBFBF"/>
        <path d="M 44.5572,7.3029 L 44.5572,9.4517 L 45.4545,9.4517 L 45.4545,9.9573 L 45.8190,9.9573 L 45.8190,10.4628 L 46.8846,10.4628 L 46.8846,9.9573 L 47.2491,9.9573 L 47.2491,9.4517 L 48.1465,9.4517 L 48.1465,7.3029 L 44.5572,7.3029 Z" stroke="#161616" stroke-width="0.1197" stroke-linecap="round" stroke-linejoin="round" fill="#000000"/>
        <path d="M 48.5951,7.3029 L 48.5951,9.4517 L 49.4924,9.4517 L 49.4924,9.9573 L 49.8570,9.9573 L 49.8570,10.4628 L 50.9225,10.4628 L 50.9225,9.9573 L 51.2870,9.9573 L 51.2870,9.4517 L 52.1844,9.4517 L 52.1844,7.3029 L 48.5951,7.3029 Z" stroke="#161616" stroke-width="0.1197" stroke-linecap="round" stroke-linejoin="round" fill="#000000"/>
        <path d="M 52.6330,7.3029 L 52.6330,9.4517 L 53.5303,9.4517 L 53.5303,9.9573 L 53.8949,9.9573 L 53.8949,10.4628 L 54.9604,10.4628 L 54.9604,9.9573 L 55.3250,9.9573 L 55.3250,9.4517 L 56.2223,9.4517 L 56.2223,7.3029 L 52.6330,7.3029 Z" stroke="#161616" stroke-width="0.1197" stroke-linecap="round" stroke-linejoin="round" fill="#000000"/>
        <path d="M 56.6709,7.3029 L 56.6709,9.4517 L 57.5682,9.4517 L 57.5682,9.9573 L 57.9328,9.9573 L 57.9328,10.4628 L 58.9983,10.4628 L 58.9983,9.9573 L 59.3629,9.9573 L 59.3629,9.4517 L 60.2602,9.4517 L 60.2602,7.3029 L 56.6709,7.3029 Z" stroke="#161616" stroke-width="0.1197" stroke-linecap="round" stroke-linejoin="round" fill="#000000"/>
        <path d="M 44.5572,5.9126 L 44.5572,3.7638 L 45.4545,3.7638 L 45.4545,3.2582 L 45.8190,3.2582 L 45.8190,2.7526 L 46.8846,2.7526 L 46.8846,3.2582 L 47.2491,3.2582 L 47.2491,3.7638 L 48.1465,3.7638 L 48.1465,5.9126 L 44.5572,5.9126 Z" stroke="#161616" stroke-width="0.1197" stroke-linecap="round" stroke-linejoin="round" fill="#000000"/>
        <path d="M 48.5951,5.9126 L 48.5951,3.7638 L 49.4924,3.7638 L 49.4924,3.2582 L 49.8570,3.2582 L 49.8570,2.7526 L 50.9225,2.7526 L 50.9225,3.2582 L 51.2870,3.2582 L 51.2870,3.7638 L 52.1844,3.7638 L 52.1844,5.9126 L 48.5951,5.9126 Z" stroke="#161616" stroke-width="0.1197" stroke-linecap="round" stroke-linejoin="round" fill="#000000"/>
        <path d="M 52.6330,5.9126 L 52.6330,3.7638 L 53.5303,3.7638 L 53.5303,3.2582 L 53.8949,3.2582 L 53.8949,2.7526 L 54.9604,2.7526 L 54.9604,3.2582 L 55.3250,3.2582 L 55.3250,3.7638 L 56.2223,3.7638 L 56.2223,5.9126 L 52.6330,5.9126 Z" stroke="#161616" stroke-width="0.1197" stroke-linecap="round" stroke-linejoin="round" fill="#000000"/>
        <path d="M 56.6709,5.9126 L 56.6709,3.7638 L 57.5682,3.7638 L 57.5682,3.2582 L 57.9328,3.2582 L 57.9328,2.7526 L 58.9983,2.7526 L 58.9983,3.2582 L 59.3629,3.2582 L 59.3629,3.7638 L 60.2602,3.7638 L 60.2602,5.9126 L 56.6709,5.9126 Z" stroke="#161616" stroke-width="0.1197" stroke-linecap="round" stroke-linejoin="round" fill="#000000"/>
        <path d="M 43.9964,3.9885 L 43.7160,3.9885 L 43.7160,4.6907 L 43.9964,4.6907 L 43.9964,3.9885 Z" stroke="#000000" stroke-width="0.1197" stroke-linecap="round" stroke-linejoin="round" fill="#BFBFBF"/>
        <path d="M 43.9964,8.5248 L 43.7160,8.5248 L 43.7160,9.2270 L 43.9964,9.2270 L 43.9964,8.5248 Z" stroke="#000000" stroke-width="0.1197" stroke-linecap="round" stroke-linejoin="round" fill="#BFBFBF"/>
        <path d="M 48.0203,2.7386 L 48.0203,3.0195 L 48.7213,3.0195 L 48.7213,2.7386 L 48.0203,2.7386 Z" stroke="#000000" stroke-width="0.1197" stroke-linecap="round" stroke-linejoin="round" fill="#BFBFBF"/>
        <path d="M 52.0582,2.7386 L 52.0582,3.0195 L 52.7592,3.0195 L 52.7592,2.7386 L 52.0582,2.7386 Z" stroke="#000000" stroke-width="0.1197" stroke-linecap="round" stroke-linejoin="round" fill="#BFBFBF"/>
        <path d="M 56.0961,2.7386 L 56.0961,3.0195 L 56.7971,3.0195 L 56.7971,2.7386 L 56.0961,2.7386 Z" stroke="#000000" stroke-width="0.1197" stroke-linecap="round" stroke-linejoin="round" fill="#BFBFBF"/>
        <path d="M 61.1014,3.9885 L 60.8210,3.9885 L 60.8210,4.6907 L 61.1014,4.6907 L 61.1014,3.9885 Z" stroke="#000000" stroke-width="0.1197" stroke-linecap="round" stroke-linejoin="round" fill="#BFBFBF"/>
        <path d="M 61.1014,8.5248 L 60.8210,8.5248 L 60.8210,9.2270 L 61.1014,9.2270 L 61.1014,8.5248 Z" stroke="#000000" stroke-width="0.1197" stroke-linecap="round" stroke-linejoin="round" fill="#BFBFBF"/>
        <path d="M 48.0203,10.1960 L 48.0203,10.4769 L 48.7213,10.4769 L 48.7213,10.1960 L 48.0203,10.1960 Z" stroke="#000000" stroke-width="0.1197" stroke-linecap="round" stroke-linejoin="round" fill="#BFBFBF"/>
        <path d="M 52.0582,10.1960 L 52.0582,10.4769 L 52.7592,10.4769 L 52.7592,10.1960 L 52.0582,10.1960 Z" stroke="#000000" stroke-width="0.1197" stroke-linecap="round" stroke-linejoin="round" fill="#BFBFBF"/>
        <path d="M 56.0961,10.1960 L 56.0961,10.4769 L 56.7971,10.4769 L 56.7971,10.1960 L 56.0961,10.1960 Z" stroke="#000000" stroke-width="0.1197" stroke-linecap="round" stroke-linejoin="round" fill="#BFBFBF"/>
        <path d="M 80.2815,2.7386 L 62.8960,2.7386 L 62.8960,10.4769 L 80.2815,10.4769 L 80.2815,2.7386 Z" stroke="#000000" stroke-width="0.1197" stroke-linecap="round" stroke-linejoin="round" fill="#BFBFBF"/>
        <path d="M 63.7373,7.3029 L 63.7373,9.4517 L 64.6346,9.4517 L 64.6346,9.9573 L 64.9991,9.9573 L 64.9991,10.4628 L 66.0647,10.4628 L 66.0647,9.9573 L 66.4292,9.9573 L 66.4292,9.4517 L 67.3265,9.4517 L 67.3265,7.3029 L 63.7373,7.3029 Z" stroke="#161616" stroke-width="0.1197" stroke-linecap="round" stroke-linejoin="round" fill="#000000"/>
        <path d="M 67.7752,7.3029 L 67.7752,9.4517 L 68.6725,9.4517 L 68.6725,9.9573 L 69.0370,9.9573 L 69.0370,10.4628 L 70.1026,10.4628 L 70.1026,9.9573 L 70.4671,9.9573 L 70.4671,9.4517 L 71.3644,9.4517 L 71.3644,7.3029 L 67.7752,7.3029 Z" stroke="#161616" stroke-width="0.1197" stroke-linecap="round" stroke-linejoin="round" fill="#000000"/>
        <path d="M 71.8131,7.3029 L 71.8131,9.4517 L 72.7104,9.4517 L 72.7104,9.9573 L 73.0749,9.9573 L 73.0749,10.4628 L 74.1405,10.4628 L 74.1405,9.9573 L 74.5050,9.9573 L 74.5050,9.4517 L 75.4023,9.4517 L 75.4023,7.3029 L 71.8131,7.3029 Z" stroke="#161616" stroke-width="0.1197" stroke-linecap="round" stroke-linejoin="round" fill="#000000"/>
        <path d="M 75.8510,7.3029 L 75.8510,9.4517 L 76.7483,9.4517 L 76.7483,9.9573 L 77.1128,9.9573 L 77.1128,10.4628 L 78.1784,10.4628 L 78.1784,9.9573 L 78.5429,9.9573 L 78.5429,9.4517 L 79.4402,9.4517 L 79.4402,7.3029 L 75.8510,7.3029 Z" stroke="#161616" stroke-width="0.1197" stroke-linecap="round" stroke-linejoin="round" fill="#000000"/>
        <path d="M 63.7373,5.9126 L 63.7373,3.7638 L 64.6346,3.7638 L 64.6346,3.2582 L 64.9991,3.2582 L 64.9991,2.7526 L 66.0647,2.7526 L 66.0647,3.2582 L 66.4292,3.2582 L 66.4292,3.7638 L 67.3265,3.7638 L 67.3265,5.9126 L 63.7373,5.9126 Z" stroke="#161616" stroke-width="0.1197" stroke-linecap="round" stroke-linejoin="round" fill="#000000"/>
        <path d="M 67.7752,5.9126 L 67.7752,3.7638 L 68.6725,3.7638 L 68.6725,3.2582 L 69.0370,3.2582 L 69.0370,2.7526 L 70.1026,2.7526 L 70.1026,3.2582 L 70.4671,3.2582 L 70.4671,3.7638 L 71.3644,3.7638 L 71.3644,5.9126 L 67.7752,5.9126 Z" stroke="#161616" stroke-width="0.1197" stroke-linecap="round" stroke-linejoin="round" fill="#000000"/>
        <path d="M 71.8131,5.9126 L 71.8131,3.7638 L 72.7104,3.7638 L 72.7104,3.2582 L 73.0749,3.2582 L 73.0749,2.7526 L 74.1405,2.7526 L 74.1405,3.2582 L 74.5050,3.2582 L 74.5050,3.7638 L 75.4023,3.7638 L 75.4023,5.9126 L 71.8131,5.9126 Z" stroke="#161616" stroke-width="0.1197" stroke-linecap="round" stroke-linejoin="round" fill="#000000"/>
        <path d="M 75.8510,5.9126 L 75.8510,3.7638 L 76.7483,3.7638 L 76.7483,3.2582 L 77.1128,3.2582 L 77.1128,2.7526 L 78.1784,2.7526 L 78.1784,3.2582 L 78.5429,3.2582 L 78.5429,3.7638 L 79.4402,3.7638 L 79.4402,5.9126 L 75.8510,5.9126 Z" stroke="#161616" stroke-width="0.1197" stroke-linecap="round" stroke-linejoin="round" fill="#000000"/>
        <path d="M 63.1764,3.9885 L 62.8960,3.9885 L 62.8960,4.6907 L 63.1764,4.6907 L 63.1764,3.9885 Z" stroke="#000000" stroke-width="0.1197" stroke-linecap="round" stroke-linejoin="round" fill="#BFBFBF"/>
        <path d="M 63.1764,8.5248 L 62.8960,8.5248 L 62.8960,9.2270 L 63.1764,9.2270 L 63.1764,8.5248 Z" stroke="#000000" stroke-width="0.1197" stroke-linecap="round" stroke-linejoin="round" fill="#BFBFBF"/>
        <path d="M 67.2003,2.7386 L 67.2003,3.0195 L 67.9014,3.0195 L 67.9014,2.7386 L 67.2003,2.7386 Z" stroke="#000000" stroke-width="0.1197" stroke-linecap="round" stroke-linejoin="round" fill="#BFBFBF"/>
        <path d="M 71.2382,2.7386 L 71.2382,3.0195 L 71.9393,3.0195 L 71.9393,2.7386 L 71.2382,2.7386 Z" stroke="#000000" stroke-width="0.1197" stroke-linecap="round" stroke-linejoin="round" fill="#BFBFBF"/>
        <path d="M 75.2762,2.7386 L 75.2762,3.0195 L 75.9772,3.0195 L 75.9772,2.7386 L 75.2762,2.7386 Z" stroke="#000000" stroke-width="0.1197" stroke-linecap="round" stroke-linejoin="round" fill="#BFBFBF"/>
        <path d="M 80.2815,3.9885 L 80.0011,3.9885 L 80.0011,4.6907 L 80.2815,4.6907 L 80.2815,3.9885 Z" stroke="#000000" stroke-width="0.1197" stroke-linecap="round" stroke-linejoin="round" fill="#BFBFBF"/>
        <path d="M 80.2815,8.5248 L 80.0011,8.5248 L 80.0011,9.2270 L 80.2815,9.2270 L 80.2815,8.5248 Z" stroke="#000000" stroke-width="0.1197" stroke-linecap="round" stroke-linejoin="round" fill="#BFBFBF"/>
        <path d="M 67.2003,10.1960 L 67.2003,10.4769 L 67.9014,10.4769 L 67.9014,10.1960 L 67.2003,10.1960 Z" stroke="#000000" stroke-width="0.1197" stroke-linecap="round" stroke-linejoin="round" fill="#BFBFBF"/>
        <path d="M 71.2382,10.1960 L 71.2382,10.4769 L 71.9393,10.4769 L 71.9393,10.1960 L 71.2382,10.1960 Z" stroke="#000000" stroke-width="0.1197" stroke-linecap="round" stroke-linejoin="round" fill="#BFBFBF"/>
        <path d="M 75.2762,10.1960 L 75.2762,10.4769 L 75.9772,10.4769 L 75.9772,10.1960 L 75.2762,10.1960 Z" stroke="#000000" stroke-width="0.1197" stroke-linecap="round" stroke-linejoin="round" fill="#BFBFBF"/>
        <path d="M 99.4615,2.7386 L 82.0761,2.7386 L 82.0761,10.4769 L 99.4615,10.4769 L 99.4615,2.7386 Z" stroke="#000000" stroke-width="0.1197" stroke-linecap="round" stroke-linejoin="round" fill="#BFBFBF"/>
        <path d="M 82.9173,7.3029 L 82.9173,9.4517 L 83.8146,9.4517 L 83.8146,9.9573 L 84.1792,9.9573 L 84.1792,10.4628 L 85.2447,10.4628 L 85.2447,9.9573 L 85.6093,9.9573 L 85.6093,9.4517 L 86.5066,9.4517 L 86.5066,7.3029 L 82.9173,7.3029 Z" stroke="#161616" stroke-width="0.1197" stroke-linecap="round" stroke-linejoin="round" fill="#000000"/>
        <path d="M 86.9552,7.3029 L 86.9552,9.4517 L 87.8526,9.4517 L 87.8526,9.9573 L 88.2171,9.9573 L 88.2171,10.4628 L 89.2826,10.4628 L 89.2826,9.9573 L 89.6472,9.9573 L 89.6472,9.4517 L 90.5445,9.4517 L 90.5445,7.3029 L 86.9552,7.3029 Z" stroke="#161616" stroke-width="0.1197" stroke-linecap="round" stroke-linejoin="round" fill="#000000"/>
        <path d="M 90.9932,7.3029 L 90.9932,9.4517 L 91.8905,9.4517 L 91.8905,9.9573 L 92.2550,9.9573 L 92.2550,10.4628 L 93.3206,10.4628 L 93.3206,9.9573 L 93.6851,9.9573 L 93.6851,9.4517 L 94.5824,9.4517 L 94.5824,7.3029 L 90.9932,7.3029 Z" stroke="#161616" stroke-width="0.1197" stroke-linecap="round" stroke-linejoin="round" fill="#000000"/>
        <path d="M 95.0311,7.3029 L 95.0311,9.4517 L 95.9284,9.4517 L 95.9284,9.9573 L 96.2929,9.9573 L 96.2929,10.4628 L 97.3585,10.4628 L 97.3585,9.9573 L 97.7230,9.9573 L 97.7230,9.4517 L 98.6203,9.4517 L 98.6203,7.3029 L 95.0311,7.3029 Z" stroke="#161616" stroke-width="0.1197" stroke-linecap="round" stroke-linejoin="round" fill="#000000"/>
        <path d="M 82.9173,5.9126 L 82.9173,3.7638 L 83.8146,3.7638 L 83.8146,3.2582 L 84.1792,3.2582 L 84.1792,2.7526 L 85.2447,2.7526 L 85.2447,3.2582 L 85.6093,3.2582 L 85.6093,3.7638 L 86.5066,3.7638 L 86.5066,5.9126 L 82.9173,5.9126 Z" stroke="#161616" stroke-width="0.1197" stroke-linecap="round" stroke-linejoin="round" fill="#000000"/>
        <path d="M 86.9552,5.9126 L 86.9552,3.7638 L 87.8526,3.7638 L 87.8526,3.2582 L 88.2171,3.2582 L 88.2171,2.7526 L 89.2826,2.7526 L 89.2826,3.2582 L 89.6472,3.2582 L 89.6472,3.7638 L 90.5445,3.7638 L 90.5445,5.9126 L 86.9552,5.9126 Z" stroke="#161616" stroke-width="0.1197" stroke-linecap="round" stroke-linejoin="round" fill="#000000"/>
        <path d="M 90.9932,5.9126 L 90.9932,3.7638 L 91.8905,3.7638 L 91.8905,3.2582 L 92.2550,3.2582 L 92.2550,2.7526 L 93.3206,2.7526 L 93.3206,3.2582 L 93.6851,3.2582 L 93.6851,3.7638 L 94.5824,3.7638 L 94.5824,5.9126 L 90.9932,5.9126 Z" stroke="#161616" stroke-width="0.1197" stroke-linecap="round" stroke-linejoin="round" fill="#000000"/>
        <path d="M 95.0311,5.9126 L 95.0311,3.7638 L 95.9284,3.7638 L 95.9284,3.2582 L 96.2929,3.2582 L 96.2929,2.7526 L 97.3585,2.7526 L 97.3585,3.2582 L 97.7230,3.2582 L 97.7230,3.7638 L 98.6203,3.7638 L 98.6203,5.9126 L 95.0311,5.9126 Z" stroke="#161616" stroke-width="0.1197" stroke-linecap="round" stroke-linejoin="round" fill="#000000"/>
        <path d="M 82.3565,3.9885 L 82.0761,3.9885 L 82.0761,4.6907 L 82.3565,4.6907 L 82.3565,3.9885 Z" stroke="#000000" stroke-width="0.1197" stroke-linecap="round" stroke-linejoin="round" fill="#BFBFBF"/>
        <path d="M 82.3565,8.5248 L 82.0761,8.5248 L 82.0761,9.2270 L 82.3565,9.2270 L 82.3565,8.5248 Z" stroke="#000000" stroke-width="0.1197" stroke-linecap="round" stroke-linejoin="round" fill="#BFBFBF"/>
        <path d="M 86.3804,2.7386 L 86.3804,3.0195 L 87.0814,3.0195 L 87.0814,2.7386 L 86.3804,2.7386 Z" stroke="#000000" stroke-width="0.1197" stroke-linecap="round" stroke-linejoin="round" fill="#BFBFBF"/>
        <path d="M 90.4183,2.7386 L 90.4183,3.0195 L 91.1193,3.0195 L 91.1193,2.7386 L 90.4183,2.7386 Z" stroke="#000000" stroke-width="0.1197" stroke-linecap="round" stroke-linejoin="round" fill="#BFBFBF"/>
        <path d="M 94.4562,2.7386 L 94.4562,3.0195 L 95.1572,3.0195 L 95.1572,2.7386 L 94.4562,2.7386 Z" stroke="#000000" stroke-width="0.1197" stroke-linecap="round" stroke-linejoin="round" fill="#BFBFBF"/>
        <path d="M 99.4615,3.9885 L 99.1811,3.9885 L 99.1811,4.6907 L 99.4615,4.6907 L 99.4615,3.9885 Z" stroke="#000000" stroke-width="0.1197" stroke-linecap="round" stroke-linejoin="round" fill="#BFBFBF"/>
        <path d="M 99.4615,8.5248 L 99.1811,8.5248 L 99.1811,9.2270 L 99.4615,9.2270 L 99.4615,8.5248 Z" stroke="#000000" stroke-width="0.1197" stroke-linecap="round" stroke-linejoin="round" fill="#BFBFBF"/>
        <path d="M 86.3804,10.1960 L 86.3804,10.4769 L 87.0814,10.4769 L 87.0814,10.1960 L 86.3804,10.1960 Z" stroke="#000000" stroke-width="0.1197" stroke-linecap="round" stroke-linejoin="round" fill="#BFBFBF"/>
        <path d="M 90.4183,10.1960 L 90.4183,10.4769 L 91.1193,10.4769 L 91.1193,10.1960 L 90.4183,10.1960 Z" stroke="#000000" stroke-width="0.1197" stroke-linecap="round" stroke-linejoin="round" fill="#BFBFBF"/>
        <path d="M 94.4562,10.1960 L 94.4562,10.4769 L 95.1572,10.4769 L 95.1572,10.1960 L 94.4562,10.1960 Z" stroke="#000000" stroke-width="0.1197" stroke-linecap="round" stroke-linejoin="round" fill="#BFBFBF"/>
        <path d="M 41.7531,6.6007 L 37.3226,6.6007 L 37.3226,10.4769 L 41.7531,10.4769 L 41.7531,6.6007 Z" stroke="#000000" stroke-width="0.1197" stroke-linecap="round" stroke-linejoin="round" fill="#BFBFBF"/>
        <path d="M 37.7432,9.7606 L 37.7432,7.6119 L 38.6405,7.6119 L 38.6405,7.1063 L 39.0051,7.1063 L 39.0051,6.6007 L 40.0706,6.6007 L 40.0706,7.1063 L 40.4352,7.1063 L 40.4352,7.6119 L 41.3325,7.6119 L 41.3325,9.7606 L 37.7432,9.7606 Z" stroke="#161616" stroke-width="0.1197" stroke-linecap="round" stroke-linejoin="round" fill="#000000"/>
        <path d="M 104.7333,10.4769 L 100.7795,10.4769 L 100.7795,7.7664 L 104.7333,7.7664 L 104.7333,10.4769 Z" stroke="#666666" stroke-width="0.1197" stroke-linecap="round" stroke-linejoin="round" fill="#666666"/>
        <path d="M 109.8928,10.4769 L 105.9390,10.4769 L 105.9390,7.7664 L 109.8928,7.7664 L 109.8928,10.4769 Z" stroke="#666666" stroke-width="0.1197" stroke-linecap="round" stroke-linejoin="round" fill="#666666"/>
        <path d="M 7.4047,2.0686 L 7.3903,2.0686 L 7.3831,2.0613 L 7.3759,2.0613 L 7.3543,2.0392 L 7.3543,2.0318 L 7.3471,2.0244 L 7.3471,1.1705 L 7.3543,1.1631 L 7.3543,1.1558 L 7.3615,1.1484 L 7.3687,1.1484 L 7.3687,1.1410 L 7.3759,1.1337 L 7.3831,1.1337 L 7.3903,1.1263 L 8.3680,1.1263 L 8.3752,1.1337 L 8.3824,1.1337 L 8.4039,1.1558 L 8.4039,1.1631 L 8.4111,1.1705 L 8.4111,1.3398 L 8.4039,1.3398 L 8.4039,1.3325 L 8.3967,1.3325 L 8.3967,1.3251 L 8.3895,1.3251 L 8.3895,1.3177 L 8.3752,1.3177 L 8.3752,1.3104 L 7.5844,1.3104 L 7.5844,1.3177 L 7.5700,1.3177 L 7.5700,1.3251 L 7.5628,1.3251 L 7.5628,1.3398 L 7.5556,1.3398 L 7.5556,2.0392 L 7.5628,2.0392 L 7.5628,2.0539 L 7.5700,2.0539 L 7.5700,2.0613 L 7.5772,2.0613 L 7.5772,2.0686 L 7.4118,2.0686 L 7.4047,2.0686 Z" stroke="#000000" stroke-width="0.1197" stroke-linecap="round" stroke-linejoin="round" fill="#000000"/>
        <path d="M 8.3392,1.5239 L 7.6275,1.5239 L 7.6275,1.5165 L 7.6131,1.5165 L 7.6131,1.5091 L 7.6059,1.5091 L 7.6059,1.4944 L 7.5988,1.4944 L 7.5988,1.6784 L 7.6059,1.6784 L 7.6059,1.6932 L 7.6131,1.6932 L 7.6131,1.7005 L 7.6275,1.7005 L 7.6275,1.7079 L 8.3536,1.7079 L 8.3680,1.6932 L 8.3752,1.6932 L 8.3895,1.6784 L 8.3895,1.6711 L 8.3967,1.6637 L 8.3967,1.6564 L 8.4039,1.6490 L 8.4039,1.6343 L 8.4111,1.6269 L 8.4111,1.6048 L 8.4039,1.5975 L 8.4039,1.5754 L 8.3895,1.5607 L 8.3895,1.5533 L 8.3824,1.5459 L 8.3752,1.5459 L 8.3752,1.5386 L 8.3680,1.5386 L 8.3608,1.5312 L 8.3536,1.5312 L 8.3464,1.5239 L 8.3392,1.5239 Z" stroke="#000000" stroke-width="0.1197" stroke-linecap="round" stroke-linejoin="round" fill="#000000"/>
        <path d="M 9.9999,1.7079 L 9.9855,1.7079 L 9.9855,1.7005 L 9.9711,1.7005 L 9.9711,1.6932 L 9.9639,1.6932 L 9.9639,1.6784 L 9.9567,1.6784 L 9.9567,1.4944 L 9.9639,1.4944 L 9.9639,1.5091 L 9.9711,1.5091 L 9.9711,1.5165 L 9.9855,1.5165 L 9.9855,1.5239 L 10.5606,1.5239 L 10.5606,1.3104 L 9.9424,1.3104 L 9.9424,1.3177 L 9.9280,1.3177 L 9.9280,1.3251 L 9.9208,1.3251 L 9.9208,1.3398 L 9.9136,1.3398 L 9.9136,2.0392 L 9.9208,2.0392 L 9.9208,2.0539 L 9.9280,2.0539 L 9.9280,2.0613 L 9.9352,2.0613 L 9.9352,2.0686 L 9.7483,2.0686 L 9.7411,2.0613 L 9.7339,2.0613 L 9.7123,2.0392 L 9.7123,2.0318 L 9.7051,2.0244 L 9.7051,1.1705 L 9.7123,1.1631 L 9.7123,1.1558 L 9.7195,1.1484 L 9.7267,1.1484 L 9.7267,1.1410 L 9.7339,1.1337 L 9.7411,1.1337 L 9.7483,1.1263 L 10.7260,1.1263 L 10.7332,1.1337 L 10.7403,1.1337 L 10.7619,1.1558 L 10.7619,1.1631 L 10.7691,1.1705 L 10.7691,1.6343 L 10.7619,1.6416 L 10.7619,1.6564 L 10.7547,1.6564 L 10.7547,1.6637 L 10.7475,1.6711 L 10.7475,1.6784 L 10.7403,1.6784 L 10.7403,1.6858 L 10.7332,1.6858 L 10.7332,1.6932 L 10.7260,1.6932 L 10.7260,1.7005 L 10.7188,1.7005 L 10.7116,1.7079 L 10.7188,1.7153 L 10.7260,1.7153 L 10.7260,1.7226 L 10.7332,1.7226 L 10.7332,1.7300 L 10.7403,1.7300 L 10.7403,1.7373 L 10.7475,1.7373 L 10.7475,1.7447 L 10.7547,1.7521 L 10.7547,1.7594 L 10.7619,1.7594 L 10.7619,1.7741 L 10.7691,1.7815 L 10.7691,2.0392 L 10.7763,2.0392 L 10.7763,2.0539 L 10.7835,2.0539 L 10.7835,2.0613 L 10.7907,2.0613 L 10.7907,2.0686 L 10.6038,2.0686 L 10.5966,2.0613 L 10.5894,2.0613 L 10.5678,2.0392 L 10.5678,2.0318 L 10.5606,2.0244 L 10.5606,1.7079 L 10.0071,1.7079 L 9.9999,1.7079 Z" stroke="#000000" stroke-width="0.1197" stroke-linecap="round" stroke-linejoin="round" fill="#000000"/>
        <path d="M 11.1429,1.3104 L 10.9273,1.3104 L 10.9201,1.3030 L 10.9129,1.3030 L 10.8913,1.2809 L 10.8913,1.2736 L 10.8841,1.2662 L 10.8841,1.1705 L 10.8913,1.1631 L 10.8913,1.1558 L 10.8985,1.1484 L 10.9057,1.1484 L 10.9057,1.1410 L 10.9129,1.1337 L 10.9201,1.1337 L 10.9273,1.1263 L 11.9050,1.1263 L 11.9121,1.1337 L 11.9193,1.1337 L 11.9409,1.1558 L 11.9409,1.1631 L 11.9481,1.1705 L 11.9481,1.3398 L 11.9409,1.3398 L 11.9409,1.3325 L 11.9337,1.3325 L 11.9337,1.3251 L 11.9265,1.3251 L 11.9265,1.3177 L 11.9121,1.3177 L 11.9121,1.3104 L 11.3802,1.3104 L 11.3802,1.3177 L 11.3658,1.3177 L 11.3658,1.3251 L 11.3586,1.3251 L 11.3586,1.3398 L 11.3514,1.3398 L 11.3514,2.0392 L 11.3586,2.0392 L 11.3586,2.0539 L 11.3658,2.0539 L 11.3658,2.0613 L 11.3730,2.0613 L 11.3730,2.0686 L 11.1861,2.0686 L 11.1789,2.0613 L 11.1717,2.0613 L 11.1501,2.0392 L 11.1501,2.0318 L 11.1429,2.0244 L 11.1429,1.3325 L 11.1429,1.3104 Z" stroke="#000000" stroke-width="0.1197" stroke-linecap="round" stroke-linejoin="round" fill="#000000"/>
        <path d="M 12.2716,2.0171 L 12.2716,2.0392 L 12.2788,2.0392 L 12.2788,2.0539 L 12.2860,2.0539 L 12.2860,2.0613 L 12.2932,2.0613 L 12.2932,2.0686 L 12.1063,2.0686 L 12.0991,2.0613 L 12.0919,2.0613 L 12.0703,2.0392 L 12.0703,2.0318 L 12.0631,2.0244 L 12.0631,1.1558 L 12.0559,1.1558 L 12.0559,1.1410 L 12.0487,1.1410 L 12.0487,1.1337 L 12.0416,1.1337 L 12.0416,1.1263 L 12.2285,1.1263 L 12.2357,1.1337 L 12.2428,1.1337 L 12.2644,1.1558 L 12.2644,1.1631 L 12.2716,1.1705 L 12.2716,2.0097 L 12.2716,2.0171 Z" stroke="#000000" stroke-width="0.1197" stroke-linecap="round" stroke-linejoin="round" fill="#000000"/>
        <path d="M 13.2924,1.3104 L 12.6742,1.3104 L 12.6742,1.3177 L 12.6598,1.3177 L 12.6598,1.3251 L 12.6526,1.3251 L 12.6526,1.3398 L 12.6454,1.3398 L 12.6454,2.0392 L 12.6526,2.0392 L 12.6526,2.0539 L 12.6598,2.0539 L 12.6598,2.0613 L 12.6670,2.0613 L 12.6670,2.0686 L 12.4801,2.0686 L 12.4729,2.0613 L 12.4657,2.0613 L 12.4441,2.0392 L 12.4441,2.0318 L 12.4369,2.0244 L 12.4369,1.1705 L 12.4441,1.1631 L 12.4441,1.1558 L 12.4513,1.1484 L 12.4585,1.1484 L 12.4585,1.1410 L 12.4657,1.1337 L 12.4729,1.1337 L 12.4801,1.1263 L 13.4578,1.1263 L 13.4650,1.1337 L 13.4722,1.1337 L 13.4937,1.1558 L 13.4937,1.1631 L 13.5009,1.1705 L 13.5009,2.0392 L 13.5081,2.0392 L 13.5081,2.0539 L 13.5153,2.0539 L 13.5153,2.0613 L 13.5225,2.0613 L 13.5225,2.0686 L 13.3356,2.0686 L 13.3284,2.0613 L 13.3212,2.0613 L 13.2996,2.0392 L 13.2996,2.0318 L 13.2924,2.0244 L 13.2924,1.3325 L 13.2924,1.3104 Z" stroke="#000000" stroke-width="0.1197" stroke-linecap="round" stroke-linejoin="round" fill="#000000"/>
        <path d="M 14.5577,1.5239 L 13.8963,1.5239 L 13.8891,1.5165 L 13.8819,1.5165 L 13.8819,1.5091 L 13.8747,1.5091 L 13.8747,1.4944 L 13.8676,1.4944 L 13.8676,1.6784 L 13.8747,1.6784 L 13.8747,1.6932 L 13.8819,1.6932 L 13.8819,1.7005 L 13.8891,1.7005 L 13.8963,1.7079 L 14.5649,1.7079 L 14.5793,1.6932 L 14.5865,1.6932 L 14.6008,1.6784 L 14.6008,1.6711 L 14.6080,1.6637 L 14.6080,1.6564 L 14.6152,1.6490 L 14.6152,1.6343 L 14.6224,1.6269 L 14.6224,1.5975 L 14.6152,1.5901 L 14.6152,1.5680 L 14.6080,1.5680 L 14.6080,1.5607 L 14.5865,1.5386 L 14.5793,1.5386 L 14.5793,1.5312 L 14.5721,1.5312 L 14.5649,1.5239 L 14.5577,1.5239 Z" stroke="#000000" stroke-width="0.1197" stroke-linecap="round" stroke-linejoin="round" fill="#000000"/>
        <path d="M 15.0537,1.3104 L 14.8381,1.3104 L 14.8309,1.3030 L 14.8237,1.3030 L 14.8021,1.2809 L 14.8021,1.2736 L 14.7949,1.2662 L 14.7949,1.1705 L 14.8021,1.1631 L 14.8021,1.1558 L 14.8093,1.1484 L 14.8165,1.1484 L 14.8165,1.1410 L 14.8237,1.1337 L 14.8309,1.1337 L 14.8381,1.1263 L 15.8158,1.1263 L 15.8230,1.1337 L 15.8301,1.1337 L 15.8517,1.1558 L 15.8517,1.1631 L 15.8589,1.1705 L 15.8589,1.3398 L 15.8517,1.3398 L 15.8517,1.3325 L 15.8445,1.3325 L 15.8445,1.3251 L 15.8373,1.3251 L 15.8373,1.3177 L 15.8230,1.3177 L 15.8230,1.3104 L 15.2910,1.3104 L 15.2910,1.3177 L 15.2766,1.3177 L 15.2766,1.3251 L 15.2694,1.3251 L 15.2694,1.3398 L 15.2622,1.3398 L 15.2622,2.0392 L 15.2694,2.0392 L 15.2694,2.0539 L 15.2766,2.0539 L 15.2766,2.0613 L 15.2838,2.0613 L 15.2838,2.0686 L 15.0969,2.0686 L 15.0897,2.0613 L 15.0825,2.0613 L 15.0609,2.0392 L 15.0609,2.0318 L 15.0537,2.0244 L 15.0537,1.3325 L 15.0537,1.3104 Z" stroke="#000000" stroke-width="0.1197" stroke-linecap="round" stroke-linejoin="round" fill="#000000"/>
        <path d="M 14.6296,1.8846 L 14.6440,1.8846 L 14.6440,1.8772 L 14.6583,1.8772 L 14.6583,1.8698 L 14.6655,1.8698 L 14.6655,1.8625 L 14.6727,1.8625 L 14.6727,1.8551 L 14.6799,1.8551 L 14.6799,2.0244 L 14.6727,2.0318 L 14.6727,2.0392 L 14.6655,2.0465 L 14.6655,2.0539 L 14.6583,2.0539 L 14.6512,2.0613 L 14.6440,2.0613 L 14.6368,2.0686 L 13.6591,2.0686 L 13.6519,2.0613 L 13.6447,2.0613 L 13.6231,2.0392 L 13.6231,2.0318 L 13.6159,2.0244 L 13.6159,1.1705 L 13.6231,1.1631 L 13.6231,1.1558 L 13.6303,1.1484 L 13.6375,1.1484 L 13.6375,1.1410 L 13.6447,1.1337 L 13.6519,1.1337 L 13.6591,1.1263 L 14.6368,1.1263 L 14.6440,1.1337 L 14.6512,1.1337 L 14.6727,1.1558 L 14.6727,1.1631 L 14.6799,1.1705 L 14.6799,1.3398 L 14.6727,1.3398 L 14.6727,1.3325 L 14.6655,1.3325 L 14.6655,1.3251 L 14.6583,1.3251 L 14.6583,1.3177 L 14.6440,1.3177 L 14.6440,1.3104 L 13.8532,1.3104 L 13.8532,1.3177 L 13.8388,1.3177 L 13.8388,1.3251 L 13.8316,1.3251 L 13.8316,1.3398 L 13.8244,1.3398 L 13.8244,1.8846 L 14.6224,1.8846 L 14.6296,1.8846 Z" stroke="#000000" stroke-width="0.1197" stroke-linecap="round" stroke-linejoin="round" fill="#000000"/>
        <path d="M 8.8856,1.7962 L 8.8856,2.0686 L 9.2307,2.0686 L 9.2307,1.7962 L 8.8856,1.7962 Z" stroke="#ED3440" stroke-width="0.1197" stroke-linecap="round" stroke-linejoin="round" fill="#ED3440"/>
        <path d="M 8.5261,1.4650 L 8.8209,1.4650 L 8.8209,1.7300 L 8.5261,1.7300 L 8.5261,1.4650 Z" stroke="#ED3440" stroke-width="0.1197" stroke-linecap="round" stroke-linejoin="round" fill="#ED3440"/>
        <path d="M 9.2954,1.7962 L 9.2954,2.0686 L 9.4032,2.0686 L 9.4104,2.0613 L 9.4391,2.0613 L 9.4463,2.0539 L 9.4607,2.0539 L 9.4751,2.0465 L 9.4823,2.0392 L 9.4967,2.0318 L 9.5110,2.0171 L 9.5254,2.0097 L 9.5326,2.0024 L 9.5398,1.9876 L 9.5470,1.9803 L 9.5757,1.9214 L 9.5757,1.9067 L 9.5829,1.8846 L 9.5829,1.8625 L 9.5901,1.8404 L 9.5901,1.7962 L 9.3025,1.7962 L 9.2954,1.7962 Z" stroke="#ED3440" stroke-width="0.1197" stroke-linecap="round" stroke-linejoin="round" fill="#ED3440"/>
        <path d="M 9.2954,1.4650 L 9.5901,1.4650 L 9.5901,1.7300 L 9.2954,1.7300 L 9.2954,1.4650 Z" stroke="#ED3440" stroke-width="0.1197" stroke-linecap="round" stroke-linejoin="round" fill="#ED3440"/>
        <path d="M 8.8209,1.7962 L 8.8209,2.0686 L 8.7131,2.0686 L 8.7059,2.0613 L 8.6771,2.0613 L 8.6699,2.0539 L 8.6555,2.0539 L 8.6412,2.0465 L 8.6340,2.0392 L 8.6196,2.0318 L 8.6052,2.0171 L 8.5908,2.0097 L 8.5836,2.0024 L 8.5765,1.9876 L 8.5693,1.9803 L 8.5405,1.9214 L 8.5405,1.9067 L 8.5333,1.8846 L 8.5333,1.8625 L 8.5261,1.8404 L 8.5261,1.7962 L 8.8137,1.7962 L 8.8209,1.7962 Z" stroke="#ED3440" stroke-width="0.1197" stroke-linecap="round" stroke-linejoin="round" fill="#ED3440"/>
        <path d="M 8.8856,1.1263 L 8.8856,1.3987 L 9.2307,1.3987 L 9.2307,1.1263 L 8.8856,1.1263 Z" stroke="#ED3440" stroke-width="0.1197" stroke-linecap="round" stroke-linejoin="round" fill="#ED3440"/>
        <path d="M 9.2954,1.3987 L 9.2954,1.1263 L 9.4032,1.1263 L 9.4104,1.1337 L 9.4391,1.1337 L 9.4463,1.1410 L 9.4607,1.1410 L 9.4751,1.1484 L 9.4823,1.1558 L 9.4967,1.1631 L 9.5110,1.1779 L 9.5254,1.1852 L 9.5326,1.1926 L 9.5398,1.2073 L 9.5470,1.2147 L 9.5757,1.2736 L 9.5757,1.2883 L 9.5829,1.3104 L 9.5829,1.3325 L 9.5901,1.3545 L 9.5901,1.3987 L 9.3025,1.3987 L 9.2954,1.3987 Z" stroke="#ED3440" stroke-width="0.1197" stroke-linecap="round" stroke-linejoin="round" fill="#ED3440"/>
        <path d="M 8.8209,1.3987 L 8.8209,1.1263 L 8.7131,1.1263 L 8.7059,1.1337 L 8.6771,1.1337 L 8.6699,1.1410 L 8.6555,1.1410 L 8.6412,1.1484 L 8.6340,1.1558 L 8.6196,1.1631 L 8.6052,1.1779 L 8.5908,1.1852 L 8.5836,1.1926 L 8.5765,1.2073 L 8.5693,1.2147 L 8.5405,1.2736 L 8.5405,1.2883 L 8.5333,1.3104 L 8.5333,1.3325 L 8.5261,1.3545 L 8.5261,1.3987 L 8.8137,1.3987 L 8.8209,1.3987 Z" stroke="#ED3440" stroke-width="0.1197" stroke-linecap="round" stroke-linejoin="round" fill="#ED3440"/>
        <text font-family="Symbol" fill="#000000" style="white-space:pre;" text-anchor="start" x="15.4821" y="2.0576" font-size="0.5493"><![CDATA[]]></text>
        <text font-family="Arial" fill="#000000" style="white-space:pre;" font-weight="400" text-anchor="start" x="32.2407" y="2.3975" font-size="0.2089"><![CDATA[FortiSwitch  124D]]></text>
        <ellipse cx="27.8637" cy="6.9065" rx="0.3141" ry="0.3154" fill="#00FF00" stroke="#000000" stroke-width="0.1197" stroke-linecap="round" stroke-linejoin="round"/>
        <ellipse cx="27.8637" cy="6.9065" rx="0.3141" ry="0.3154" fill="none" stroke="#000000" stroke-width="0.1197" stroke-linecap="round" stroke-linejoin="round"/>
        <ellipse cx="26.4501" cy="6.9065" rx="0.3141" ry="0.3154" fill="#00FF00" stroke="#000000" stroke-width="0.1197" stroke-linecap="round" stroke-linejoin="round"/>
        <ellipse cx="26.4501" cy="6.9065" rx="0.3141" ry="0.3154" fill="none" stroke="#000000" stroke-width="0.1197" stroke-linecap="round" stroke-linejoin="round"/>
        <ellipse cx="25.0522" cy="6.9065" rx="0.3141" ry="0.3154" fill="#00FF00" stroke="#000000" stroke-width="0.1197" stroke-linecap="round" stroke-linejoin="round"/>
        <ellipse cx="25.0522" cy="6.9065" rx="0.3141" ry="0.3154" fill="none" stroke="#000000" stroke-width="0.1197" stroke-linecap="round" stroke-linejoin="round"/>
        <ellipse cx="23.6543" cy="6.9065" rx="0.3141" ry="0.3154" fill="#00FF00" stroke="#000000" stroke-width="0.1197" stroke-linecap="round" stroke-linejoin="round"/>
        <ellipse cx="23.6543" cy="6.9065" rx="0.3141" ry="0.3154" fill="none" stroke="#000000" stroke-width="0.1197" stroke-linecap="round" stroke-linejoin="round"/>
        <ellipse cx="22.2407" cy="6.9065" rx="0.3141" ry="0.3154" fill="#00FF00" stroke="#000000" stroke-width="0.1197" stroke-linecap="round" stroke-linejoin="round"/>
        <ellipse cx="22.2407" cy="6.9065" rx="0.3141" ry="0.3154" fill="none" stroke="#000000" stroke-width="0.1197" stroke-linecap="round" stroke-linejoin="round"/>
        <ellipse cx="20.8507" cy="6.9065" rx="0.3220" ry="0.3154" fill="#00FF00" stroke="#000000" stroke-width="0.1197" stroke-linecap="round" stroke-linejoin="round"/>
        <ellipse cx="20.8507" cy="6.9065" rx="0.3220" ry="0.3154" fill="none" stroke="#000000" stroke-width="0.1197" stroke-linecap="round" stroke-linejoin="round"/>
        <ellipse cx="19.4528" cy="6.9065" rx="0.3220" ry="0.3154" fill="#00FF00" stroke="#000000" stroke-width="0.1197" stroke-linecap="round" stroke-linejoin="round"/>
        <ellipse cx="19.4528" cy="6.9065" rx="0.3220" ry="0.3154" fill="none" stroke="#000000" stroke-width="0.1197" stroke-linecap="round" stroke-linejoin="round"/>
        <ellipse cx="18.0470" cy="6.9065" rx="0.3141" ry="0.3154" fill="#00FF00" stroke="#000000" stroke-width="0.1197" stroke-linecap="round" stroke-linejoin="round"/>
        <ellipse cx="18.0470" cy="6.9065" rx="0.3141" ry="0.3154" fill="none" stroke="#000000" stroke-width="0.1197" stroke-linecap="round" stroke-linejoin="round"/>
        <ellipse cx="16.6334" cy="6.9065" rx="0.3141" ry="0.3154" fill="#00FF00" stroke="#000000" stroke-width="0.1197" stroke-linecap="round" stroke-linejoin="round"/>
        <ellipse cx="16.6334" cy="6.9065" rx="0.3141" ry="0.3154" fill="none" stroke="#000000" stroke-width="0.1197" stroke-linecap="round" stroke-linejoin="round"/>
        <ellipse cx="15.2355" cy="6.9065" rx="0.3141" ry="0.3154" fill="#00FF00" stroke="#000000" stroke-width="0.1197" stroke-linecap="round" stroke-linejoin="round"/>
        <ellipse cx="15.2355" cy="6.9065" rx="0.3141" ry="0.3154" fill="none" stroke="#000000" stroke-width="0.1197" stroke-linecap="round" stroke-linejoin="round"/>
        <ellipse cx="13.8376" cy="6.9065" rx="0.3141" ry="0.3154" fill="#00FF00" stroke="#000000" stroke-width="0.1197" stroke-linecap="round" stroke-linejoin="round"/>
        <ellipse cx="13.8376" cy="6.9065" rx="0.3141" ry="0.3154" fill="none" stroke="#000000" stroke-width="0.1197" stroke-linecap="round" stroke-linejoin="round"/>
        <ellipse cx="12.4240" cy="6.9065" rx="0.3141" ry="0.3154" fill="#00FF00" stroke="#000000" stroke-width="0.1197" stroke-linecap="round" stroke-linejoin="round"/>
        <ellipse cx="12.4240" cy="6.9065" rx="0.3141" ry="0.3154" fill="none" stroke="#000000" stroke-width="0.1197" stroke-linecap="round" stroke-linejoin="round"/>
        <ellipse cx="11.0340" cy="6.9065" rx="0.3220" ry="0.3154" fill="#00FF00" stroke="#000000" stroke-width="0.1197" stroke-linecap="round" stroke-linejoin="round"/>
        <ellipse cx="11.0340" cy="6.9065" rx="0.3220" ry="0.3154" fill="none" stroke="#000000" stroke-width="0.1197" stroke-linecap="round" stroke-linejoin="round"/>
        <ellipse cx="11.0340" cy="5.2666" rx="0.3220" ry="0.3154" fill="#00FF00" stroke="#000000" stroke-width="0.1197" stroke-linecap="round" stroke-linejoin="round"/>
        <ellipse cx="11.0340" cy="5.2666" rx="0.3220" ry="0.3154" fill="none" stroke="#000000" stroke-width="0.1197" stroke-linecap="round" stroke-linejoin="round"/>
        <ellipse cx="12.4240" cy="5.2666" rx="0.3141" ry="0.3154" fill="#00FF00" stroke="#000000" stroke-width="0.1197" stroke-linecap="round" stroke-linejoin="round"/>
        <ellipse cx="12.4240" cy="5.2666" rx="0.3141" ry="0.3154" fill="none" stroke="#000000" stroke-width="0.1197" stroke-linecap="round" stroke-linejoin="round"/>
        <ellipse cx="13.8376" cy="5.2666" rx="0.3141" ry="0.3154" fill="#00FF00" stroke="#000000" stroke-width="0.1197" stroke-linecap="round" stroke-linejoin="round"/>
        <ellipse cx="13.8376" cy="5.2666" rx="0.3141" ry="0.3154" fill="none" stroke="#000000" stroke-width="0.1197" stroke-linecap="round" stroke-linejoin="round"/>
        <ellipse cx="15.2355" cy="5.2666" rx="0.3141" ry="0.3154" fill="#00FF00" stroke="#000000" stroke-width="0.1197" stroke-linecap="round" stroke-linejoin="round"/>
        <ellipse cx="15.2355" cy="5.2666" rx="0.3141" ry="0.3154" fill="none" stroke="#000000" stroke-width="0.1197" stroke-linecap="round" stroke-linejoin="round"/>
        <ellipse cx="16.6334" cy="5.2666" rx="0.3141" ry="0.3154" fill="#00FF00" stroke="#000000" stroke-width="0.1197" stroke-linecap="round" stroke-linejoin="round"/>
        <ellipse cx="16.6334" cy="5.2666" rx="0.3141" ry="0.3154" fill="none" stroke="#000000" stroke-width="0.1197" stroke-linecap="round" stroke-linejoin="round"/>
        <ellipse cx="18.0470" cy="5.2666" rx="0.3141" ry="0.3154" fill="#00FF00" stroke="#000000" stroke-width="0.1197" stroke-linecap="round" stroke-linejoin="round"/>
        <ellipse cx="18.0470" cy="5.2666" rx="0.3141" ry="0.3154" fill="none" stroke="#000000" stroke-width="0.1197" stroke-linecap="round" stroke-linejoin="round"/>
        <ellipse cx="19.4528" cy="5.2666" rx="0.3220" ry="0.3154" fill="#00FF00" stroke="#000000" stroke-width="0.1197" stroke-linecap="round" stroke-linejoin="round"/>
        <ellipse cx="19.4528" cy="5.2666" rx="0.3220" ry="0.3154" fill="none" stroke="#000000" stroke-width="0.1197" stroke-linecap="round" stroke-linejoin="round"/>
        <ellipse cx="20.8507" cy="5.2666" rx="0.3220" ry="0.3154" fill="#00FF00" stroke="#000000" stroke-width="0.1197" stroke-linecap="round" stroke-linejoin="round"/>
        <ellipse cx="20.8507" cy="5.2666" rx="0.3220" ry="0.3154" fill="none" stroke="#000000" stroke-width="0.1197" stroke-linecap="round" stroke-linejoin="round"/>
        <ellipse cx="22.2407" cy="5.2666" rx="0.3141" ry="0.3154" fill="#00FF00" stroke="#000000" stroke-width="0.1197" stroke-linecap="round" stroke-linejoin="round"/>
        <ellipse cx="22.2407" cy="5.2666" rx="0.3141" ry="0.3154" fill="none" stroke="#000000" stroke-width="0.1197" stroke-linecap="round" stroke-linejoin="round"/>
        <ellipse cx="23.6543" cy="5.2666" rx="0.3141" ry="0.3154" fill="#00FF00" stroke="#000000" stroke-width="0.1197" stroke-linecap="round" stroke-linejoin="round"/>
        <ellipse cx="23.6543" cy="5.2666" rx="0.3141" ry="0.3154" fill="none" stroke="#000000" stroke-width="0.1197" stroke-linecap="round" stroke-linejoin="round"/>
        <ellipse cx="25.0522" cy="5.2666" rx="0.3141" ry="0.3154" fill="#00FF00" stroke="#000000" stroke-width="0.1197" stroke-linecap="round" stroke-linejoin="round"/>
        <ellipse cx="25.0522" cy="5.2666" rx="0.3141" ry="0.3154" fill="none" stroke="#000000" stroke-width="0.1197" stroke-linecap="round" stroke-linejoin="round"/>
        <ellipse cx="26.4501" cy="5.2666" rx="0.3141" ry="0.3154" fill="#00FF00" stroke="#000000" stroke-width="0.1197" stroke-linecap="round" stroke-linejoin="round"/>
        <ellipse cx="26.4501" cy="5.2666" rx="0.3141" ry="0.3154" fill="none" stroke="#000000" stroke-width="0.1197" stroke-linecap="round" stroke-linejoin="round"/>
        <ellipse cx="27.8637" cy="5.2666" rx="0.3141" ry="0.3154" fill="#00FF00" stroke="#000000" stroke-width="0.1197" stroke-linecap="round" stroke-linejoin="round"/>
        <ellipse cx="27.8637" cy="5.2666" rx="0.3141" ry="0.3154" fill="none" stroke="#000000" stroke-width="0.1197" stroke-linecap="round" stroke-linejoin="round"/>
        <ellipse cx="9.1806" cy="5.2666" rx="0.3220" ry="0.3154" fill="#00FF00" stroke="#000000" stroke-width="0.1197" stroke-linecap="round" stroke-linejoin="round"/>
        <ellipse cx="9.1806" cy="5.2666" rx="0.3220" ry="0.3154" fill="none" stroke="#000000" stroke-width="0.1197" stroke-linecap="round" stroke-linejoin="round"/>
        <ellipse cx="9.1834" cy="6.9171" rx="0.2155" ry="0.2163" fill="#494949" stroke="#000000" stroke-width="0.1197" stroke-linecap="round" stroke-linejoin="round"/>
        <ellipse cx="9.1834" cy="6.9171" rx="0.2155" ry="0.2163" fill="none" stroke="#000000" stroke-width="0.1197" stroke-linecap="round" stroke-linejoin="round"/>
        <ellipse cx="9.1834" cy="6.9206" rx="0.1813" ry="0.1854" fill="#000000" stroke="#000000" stroke-width="0.1197" stroke-linecap="round" stroke-linejoin="round"/>
        <ellipse cx="9.1834" cy="6.9206" rx="0.1813" ry="0.1854" fill="none" stroke="#000000" stroke-width="0.1197" stroke-linecap="round" stroke-linejoin="round"/>
        <text font-family="Arial" fill="#000000" style="white-space:pre;" font-weight="400" text-anchor="start" x="10.5618" y="7.7977" font-size="0.0821"><![CDATA[PWR]]></text>
        <text font-family="Arial" fill="#000000" style="white-space:pre;" font-weight="400" text-anchor="start" x="10.8423" y="7.7977" font-size="0.0821"><![CDATA[1]]></text>
        <text font-family="Arial" fill="#000000" style="white-space:pre;" font-weight="400" text-anchor="start" x="11.0133" y="7.7977" font-size="0.0821"><![CDATA[3]]></text>
        <text font-family="Arial" fill="#000000" style="white-space:pre;" font-weight="400" text-anchor="start" x="11.1843" y="7.7977" font-size="0.0821"><![CDATA[5]]></text>
        <text font-family="Arial" fill="#000000" style="white-space:pre;" font-weight="400" text-anchor="start" x="11.3553" y="7.7977" font-size="0.0821"><![CDATA[7]]></text>
        <text font-family="Arial" fill="#000000" style="white-space:pre;" font-weight="400" text-anchor="start" x="11.5263" y="7.7977" font-size="0.0821"><![CDATA[9]]></text>
        <text font-family="Arial" fill="#000000" style="white-space:pre;" font-weight="400" text-anchor="start" x="11.6768" y="7.7977" font-size="0.0821"><![CDATA[11]]></text>
        <text font-family="Arial" fill="#000000" style="white-space:pre;" font-weight="400" text-anchor="start" x="11.8478" y="7.7977" font-size="0.0821"><![CDATA[13]]></text>
        <text font-family="Arial" fill="#000000" style="white-space:pre;" font-weight="400" text-anchor="start" x="12.0188" y="7.7977" font-size="0.0821"><![CDATA[15]]></text>
        <text font-family="Arial" fill="#000000" style="white-space:pre;" font-weight="400" text-anchor="start" x="12.1899" y="7.7977" font-size="0.0821"><![CDATA[17]]></text>
        <text font-family="Arial" fill="#000000" style="white-space:pre;" font-weight="400" text-anchor="start" x="12.3609" y="7.7977" font-size="0.0821"><![CDATA[19]]></text>
        <text font-family="Arial" fill="#000000" style="white-space:pre;" font-weight="400" text-anchor="start" x="12.5319" y="7.7977" font-size="0.0821"><![CDATA[21]]></text>
        <text font-family="Arial" fill="#000000" style="white-space:pre;" font-weight="400" text-anchor="start" x="12.7029" y="7.7977" font-size="0.0821"><![CDATA[23]]></text>
        <text font-family="Arial" fill="#000000" style="white-space:pre;" font-weight="400" text-anchor="start" x="12.8739" y="7.7977" font-size="0.0821"><![CDATA[25]]></text>
        <text font-family="Arial" fill="#000000" style="white-space:pre;" font-weight="400" text-anchor="start" x="10.8423" y="8.2509" font-size="0.0821"><![CDATA[2]]></text>
        <text font-family="Arial" fill="#000000" style="white-space:pre;" font-weight="400" text-anchor="start" x="11.0133" y="8.2509" font-size="0.0821"><![CDATA[4]]></text>
        <text font-family="Arial" fill="#000000" style="white-space:pre;" font-weight="400" text-anchor="start" x="11.1843" y="8.2509" font-size="0.0821"><![CDATA[6]]></text>
        <text font-family="Arial" fill="#000000" style="white-space:pre;" font-weight="400" text-anchor="start" x="11.3553" y="8.2509" font-size="0.0821"><![CDATA[8]]></text>
        <text font-family="Arial" fill="#000000" style="white-space:pre;" font-weight="400" text-anchor="start" x="11.5058" y="8.2509" font-size="0.0821"><![CDATA[10]]></text>
        <text font-family="Arial" fill="#000000" style="white-space:pre;" font-weight="400" text-anchor="start" x="11.6768" y="8.2509" font-size="0.0821"><![CDATA[12]]></text>
        <text font-family="Arial" fill="#000000" style="white-space:pre;" font-weight="400" text-anchor="start" x="11.8478" y="8.2509" font-size="0.0821"><![CDATA[14]]></text>
        <text font-family="Arial" fill="#000000" style="white-space:pre;" font-weight="400" text-anchor="start" x="12.0188" y="8.2509" font-size="0.0821"><![CDATA[16]]></text>
        <text font-family="Arial" fill="#000000" style="white-space:pre;" font-weight="400" text-anchor="start" x="12.1899" y="8.2509" font-size="0.0821"><![CDATA[18]]></text>
        <text font-family="Arial" fill="#000000" style="white-space:pre;" font-weight="400" text-anchor="start" x="12.3609" y="8.2509" font-size="0.0821"><![CDATA[20]]></text>
        <text font-family="Arial" fill="#000000" style="white-space:pre;" font-weight="400" text-anchor="start" x="12.5319" y="8.2509" font-size="0.0821"><![CDATA[22]]></text>
        <text font-family="Arial" fill="#000000" style="white-space:pre;" font-weight="400" text-anchor="start" x="12.7029" y="8.2509" font-size="0.0821"><![CDATA[24]]></text>
        <text font-family="Arial" fill="#000000" style="white-space:pre;" font-weight="400" text-anchor="start" x="12.8739" y="8.2509" font-size="0.0821"><![CDATA[26]]></text>
        <text font-family="Arial" fill="#000000" style="white-space:pre;" font-weight="400" text-anchor="start" x="14.1120" y="8.6682" font-size="0.0958"><![CDATA[CONSOLE]]></text>
        <text font-family="Arial" fill="#000000" style="white-space:pre;" font-weight="400" text-anchor="start" x="15.1313" y="7.5560" font-size="0.0958"><![CDATA[1]]></text>
        <text font-family="Arial" fill="#000000" style="white-space:pre;" font-weight="400" text-anchor="start" x="15.6238" y="7.5560" font-size="0.0958"><![CDATA[3]]></text>
        <text font-family="Arial" fill="#000000" style="white-space:pre;" font-weight="400" text-anchor="start" x="16.1232" y="7.5560" font-size="0.0958"><![CDATA[5]]></text>
        <text font-family="Arial" fill="#000000" style="white-space:pre;" font-weight="400" text-anchor="start" x="16.6157" y="7.5560" font-size="0.0958"><![CDATA[7]]></text>
        <text font-family="Arial" fill="#000000" style="white-space:pre;" font-weight="400" text-anchor="start" x="15.1313" y="8.6682" font-size="0.0958"><![CDATA[2]]></text>
        <text font-family="Arial" fill="#000000" style="white-space:pre;" font-weight="400" text-anchor="start" x="15.6238" y="8.6682" font-size="0.0958"><![CDATA[4]]></text>
        <text font-family="Arial" fill="#000000" style="white-space:pre;" font-weight="400" text-anchor="start" x="16.1232" y="8.6682" font-size="0.0958"><![CDATA[6]]></text>
        <text font-family="Arial" fill="#000000" style="white-space:pre;" font-weight="400" text-anchor="start" x="16.6157" y="8.6682" font-size="0.0958"><![CDATA[8]]></text>
        <text font-family="Arial" fill="#000000" style="white-space:pre;" font-weight="400" text-anchor="start" x="17.4776" y="7.5560" font-size="0.0958"><![CDATA[9]]></text>
        <text font-family="Arial" fill="#000000" style="white-space:pre;" font-weight="400" text-anchor="start" x="17.9427" y="7.5560" font-size="0.0958"><![CDATA[11]]></text>
        <text font-family="Arial" fill="#000000" style="white-space:pre;" font-weight="400" text-anchor="start" x="18.4421" y="7.5560" font-size="0.0958"><![CDATA[13]]></text>
        <text font-family="Arial" fill="#000000" style="white-space:pre;" font-weight="400" text-anchor="start" x="18.9346" y="7.5560" font-size="0.0958"><![CDATA[15]]></text>
        <text font-family="Arial" fill="#000000" style="white-space:pre;" font-weight="400" text-anchor="start" x="17.4502" y="8.6682" font-size="0.0958"><![CDATA[10]]></text>
        <text font-family="Arial" fill="#000000" style="white-space:pre;" font-weight="400" text-anchor="start" x="17.9427" y="8.6682" font-size="0.0958"><![CDATA[12]]></text>
        <text font-family="Arial" fill="#000000" style="white-space:pre;" font-weight="400" text-anchor="start" x="18.4421" y="8.6682" font-size="0.0958"><![CDATA[14]]></text>
        <text font-family="Arial" fill="#000000" style="white-space:pre;" font-weight="400" text-anchor="start" x="18.9346" y="8.6682" font-size="0.0958"><![CDATA[16]]></text>
        <text font-family="Arial" fill="#000000" style="white-space:pre;" font-weight="400" text-anchor="start" x="19.7965" y="7.5560" font-size="0.0958"><![CDATA[17]]></text>
        <text font-family="Arial" fill="#000000" style="white-space:pre;" font-weight="400" text-anchor="start" x="20.2891" y="7.5560" font-size="0.0958"><![CDATA[19]]></text>
        <text font-family="Arial" fill="#000000" style="white-space:pre;" font-weight="400" text-anchor="start" x="20.7884" y="7.5560" font-size="0.0958"><![CDATA[21]]></text>
        <text font-family="Arial" fill="#000000" style="white-space:pre;" font-weight="400" text-anchor="start" x="21.2809" y="7.5560" font-size="0.0958"><![CDATA[23]]></text>
        <text font-family="Arial" fill="#000000" style="white-space:pre;" font-weight="400" text-anchor="start" x="19.7965" y="8.6682" font-size="0.0958"><![CDATA[18]]></text>
        <text font-family="Arial" fill="#000000" style="white-space:pre;" font-weight="400" text-anchor="start" x="20.2891" y="8.6682" font-size="0.0958"><![CDATA[20]]></text>
        <text font-family="Arial" fill="#000000" style="white-space:pre;" font-weight="400" text-anchor="start" x="20.7884" y="8.6682" font-size="0.0958"><![CDATA[22]]></text>
        <text font-family="Arial" fill="#000000" style="white-space:pre;" font-weight="400" text-anchor="start" x="21.2809" y="8.6682" font-size="0.0958"><![CDATA[24]]></text>
        <text font-family="Arial" fill="#000000" style="white-space:pre;" font-weight="400" text-anchor="start" x="21.9992" y="8.1396" font-size="0.0958"><![CDATA[25]]></text>
        <text font-family="Arial" fill="#000000" style="white-space:pre;" font-weight="400" text-anchor="start" x="22.6148" y="8.1396" font-size="0.0958"><![CDATA[26]]></text>
        <path d="M 37.7507,9.7618 L 37.7507,7.6373 L 38.6412,7.6373 L 38.6412,7.1374 L 39.0030,7.1374 L 39.0030,6.6375 L 40.0605,6.6375 L 40.0605,7.1374 L 40.4223,7.1374 L 40.4223,7.6373 L 41.3128,7.6373 L 41.3128,9.7618 L 37.7507,9.7618 Z" stroke="#161616" stroke-width="0.1197" stroke-linecap="round" stroke-linejoin="round" fill="#000000"/>
        <path d="M 44.5411,5.9432 L 44.5411,3.8186 L 45.4316,3.8186 L 45.4316,3.3187 L 45.7934,3.3187 L 45.7934,2.8188 L 46.8509,2.8188 L 46.8509,3.3187 L 47.2127,3.3187 L 47.2127,3.8186 L 48.1032,3.8186 L 48.1032,5.9432 L 44.5411,5.9432 Z" stroke="#161616" stroke-width="0.1197" stroke-linecap="round" stroke-linejoin="round" fill="#000000"/>
        <path d="M 44.5411,7.3179 L 44.5411,9.4424 L 45.4316,9.4424 L 45.4316,9.9423 L 45.7934,9.9423 L 45.7934,10.4422 L 46.8509,10.4422 L 46.8509,9.9423 L 47.2127,9.9423 L 47.2127,9.4424 L 48.1032,9.4424 L 48.1032,7.3179 L 44.5411,7.3179 Z" stroke="#161616" stroke-width="0.1197" stroke-linecap="round" stroke-linejoin="round" fill="#000000"/>
        <path d="M 48.5763,5.9432 L 48.5763,3.8186 L 49.4669,3.8186 L 49.4669,3.3187 L 49.8287,3.3187 L 49.8287,2.8188 L 50.8862,2.8188 L 50.8862,3.3187 L 51.2480,3.3187 L 51.2480,3.8186 L 52.1385,3.8186 L 52.1385,5.9432 L 48.5763,5.9432 Z" stroke="#161616" stroke-width="0.1197" stroke-linecap="round" stroke-linejoin="round" fill="#000000"/>
        <path d="M 48.5763,7.3179 L 48.5763,9.4424 L 49.4669,9.4424 L 49.4669,9.9423 L 49.8287,9.9423 L 49.8287,10.4422 L 50.8862,10.4422 L 50.8862,9.9423 L 51.2480,9.9423 L 51.2480,9.4424 L 52.1385,9.4424 L 52.1385,7.3179 L 48.5763,7.3179 Z" stroke="#161616" stroke-width="0.1197" stroke-linecap="round" stroke-linejoin="round" fill="#000000"/>
        <path d="M 52.6673,5.9432 L 52.6673,3.8186 L 53.5578,3.8186 L 53.5578,3.3187 L 53.9196,3.3187 L 53.9196,2.8188 L 54.9771,2.8188 L 54.9771,3.3187 L 55.3389,3.3187 L 55.3389,3.8186 L 56.2294,3.8186 L 56.2294,5.9432 L 52.6673,5.9432 Z" stroke="#161616" stroke-width="0.1197" stroke-linecap="round" stroke-linejoin="round" fill="#000000"/>
        <path d="M 52.6673,7.3179 L 52.6673,9.4424 L 53.5578,9.4424 L 53.5578,9.9423 L 53.9196,9.9423 L 53.9196,10.4422 L 54.9771,10.4422 L 54.9771,9.9423 L 55.3389,9.9423 L 55.3389,9.4424 L 56.2294,9.4424 L 56.2294,7.3179 L 52.6673,7.3179 Z" stroke="#161616" stroke-width="0.1197" stroke-linecap="round" stroke-linejoin="round" fill="#000000"/>
        <path d="M 56.7165,5.9432 L 56.7165,3.8186 L 57.6070,3.8186 L 57.6070,3.3187 L 57.9688,3.3187 L 57.9688,2.8188 L 59.0263,2.8188 L 59.0263,3.3187 L 59.3881,3.3187 L 59.3881,3.8186 L 60.2786,3.8186 L 60.2786,5.9432 L 56.7165,5.9432 Z" stroke="#161616" stroke-width="0.1197" stroke-linecap="round" stroke-linejoin="round" fill="#000000"/>
        <path d="M 56.7165,7.3179 L 56.7165,9.4424 L 57.6070,9.4424 L 57.6070,9.9423 L 57.9688,9.9423 L 57.9688,10.4422 L 59.0263,10.4422 L 59.0263,9.9423 L 59.3881,9.9423 L 59.3881,9.4424 L 60.2786,9.4424 L 60.2786,7.3179 L 56.7165,7.3179 Z" stroke="#161616" stroke-width="0.1197" stroke-linecap="round" stroke-linejoin="round" fill="#000000"/>
        <path d="M 63.7295,5.9432 L 63.7295,3.8186 L 64.6200,3.8186 L 64.6200,3.3187 L 64.9818,3.3187 L 64.9818,2.8188 L 66.0393,2.8188 L 66.0393,3.3187 L 66.4011,3.3187 L 66.4011,3.8186 L 67.2917,3.8186 L 67.2917,5.9432 L 63.7295,5.9432 Z" stroke="#161616" stroke-width="0.1197" stroke-linecap="round" stroke-linejoin="round" fill="#000000"/>
        <path d="M 63.7295,7.3179 L 63.7295,9.4424 L 64.6200,9.4424 L 64.6200,9.9423 L 64.9818,9.9423 L 64.9818,10.4422 L 66.0393,10.4422 L 66.0393,9.9423 L 66.4011,9.9423 L 66.4011,9.4424 L 67.2917,9.4424 L 67.2917,7.3179 L 63.7295,7.3179 Z" stroke="#161616" stroke-width="0.1197" stroke-linecap="round" stroke-linejoin="round" fill="#000000"/>
        <path d="M 67.7648,5.9432 L 67.7648,3.8186 L 68.6553,3.8186 L 68.6553,3.3187 L 69.0171,3.3187 L 69.0171,2.8188 L 70.0746,2.8188 L 70.0746,3.3187 L 70.4364,3.3187 L 70.4364,3.8186 L 71.3269,3.8186 L 71.3269,5.9432 L 67.7648,5.9432 Z" stroke="#161616" stroke-width="0.1197" stroke-linecap="round" stroke-linejoin="round" fill="#000000"/>
        <path d="M 67.7648,7.3179 L 67.7648,9.4424 L 68.6553,9.4424 L 68.6553,9.9423 L 69.0171,9.9423 L 69.0171,10.4422 L 70.0746,10.4422 L 70.0746,9.9423 L 70.4364,9.9423 L 70.4364,9.4424 L 71.3269,9.4424 L 71.3269,7.3179 L 67.7648,7.3179 Z" stroke="#161616" stroke-width="0.1197" stroke-linecap="round" stroke-linejoin="round" fill="#000000"/>
        <path d="M 71.8557,5.9432 L 71.8557,3.8186 L 72.7462,3.8186 L 72.7462,3.3187 L 73.1080,3.3187 L 73.1080,2.8188 L 74.1655,2.8188 L 74.1655,3.3187 L 74.5273,3.3187 L 74.5273,3.8186 L 75.4179,3.8186 L 75.4179,5.9432 L 71.8557,5.9432 Z" stroke="#161616" stroke-width="0.1197" stroke-linecap="round" stroke-linejoin="round" fill="#000000"/>
        <path d="M 71.8557,7.3179 L 71.8557,9.4424 L 72.7462,9.4424 L 72.7462,9.9423 L 73.1080,9.9423 L 73.1080,10.4422 L 74.1655,10.4422 L 74.1655,9.9423 L 74.5273,9.9423 L 74.5273,9.4424 L 75.4179,9.4424 L 75.4179,7.3179 L 71.8557,7.3179 Z" stroke="#161616" stroke-width="0.1197" stroke-linecap="round" stroke-linejoin="round" fill="#000000"/>
        <path d="M 75.8910,5.9432 L 75.8910,3.8186 L 76.7815,3.8186 L 76.7815,3.3187 L 77.1433,3.3187 L 77.1433,2.8188 L 78.2008,2.8188 L 78.2008,3.3187 L 78.5626,3.3187 L 78.5626,3.8186 L 79.4531,3.8186 L 79.4531,5.9432 L 75.8910,5.9432 Z" stroke="#161616" stroke-width="0.1197" stroke-linecap="round" stroke-linejoin="round" fill="#000000"/>
        <path d="M 75.8910,7.3179 L 75.8910,9.4424 L 76.7815,9.4424 L 76.7815,9.9423 L 77.1433,9.9423 L 77.1433,10.4422 L 78.2008,10.4422 L 78.2008,9.9423 L 78.5626,9.9423 L 78.5626,9.4424 L 79.4531,9.4424 L 79.4531,7.3179 L 75.8910,7.3179 Z" stroke="#161616" stroke-width="0.1197" stroke-linecap="round" stroke-linejoin="round" fill="#000000"/>
        <path d="M 82.9040,5.9432 L 82.9040,3.8186 L 83.7945,3.8186 L 83.7945,3.3187 L 84.1563,3.3187 L 84.1563,2.8188 L 85.2138,2.8188 L 85.2138,3.3187 L 85.5756,3.3187 L 85.5756,3.8186 L 86.4662,3.8186 L 86.4662,5.9432 L 82.9040,5.9432 Z" stroke="#161616" stroke-width="0.1197" stroke-linecap="round" stroke-linejoin="round" fill="#000000"/>
        <path d="M 82.9040,7.3179 L 82.9040,9.4424 L 83.7945,9.4424 L 83.7945,9.9423 L 84.1563,9.9423 L 84.1563,10.4422 L 85.2138,10.4422 L 85.2138,9.9423 L 85.5756,9.9423 L 85.5756,9.4424 L 86.4662,9.4424 L 86.4662,7.3179 L 82.9040,7.3179 Z" stroke="#161616" stroke-width="0.1197" stroke-linecap="round" stroke-linejoin="round" fill="#000000"/>
        <path d="M 86.9393,5.9432 L 86.9393,3.8186 L 87.8298,3.8186 L 87.8298,3.3187 L 88.1916,3.3187 L 88.1916,2.8188 L 89.2491,2.8188 L 89.2491,3.3187 L 89.6109,3.3187 L 89.6109,3.8186 L 90.5014,3.8186 L 90.5014,5.9432 L 86.9393,5.9432 Z" stroke="#161616" stroke-width="0.1197" stroke-linecap="round" stroke-linejoin="round" fill="#000000"/>
        <path d="M 86.9393,7.3179 L 86.9393,9.4424 L 87.8298,9.4424 L 87.8298,9.9423 L 88.1916,9.9423 L 88.1916,10.4422 L 89.2491,10.4422 L 89.2491,9.9423 L 89.6109,9.9423 L 89.6109,9.4424 L 90.5014,9.4424 L 90.5014,7.3179 L 86.9393,7.3179 Z" stroke="#161616" stroke-width="0.1197" stroke-linecap="round" stroke-linejoin="round" fill="#000000"/>
        <path d="M 91.0441,5.9432 L 91.0441,3.8186 L 91.9346,3.8186 L 91.9346,3.3187 L 92.2964,3.3187 L 92.2964,2.8188 L 93.3539,2.8188 L 93.3539,3.3187 L 93.7157,3.3187 L 93.7157,3.8186 L 94.6063,3.8186 L 94.6063,5.9432 L 91.0441,5.9432 Z" stroke="#161616" stroke-width="0.1197" stroke-linecap="round" stroke-linejoin="round" fill="#000000"/>
        <path d="M 91.0441,7.3179 L 91.0441,9.4424 L 91.9346,9.4424 L 91.9346,9.9423 L 92.2964,9.9423 L 92.2964,10.4422 L 93.3539,10.4422 L 93.3539,9.9423 L 93.7157,9.9423 L 93.7157,9.4424 L 94.6063,9.4424 L 94.6063,7.3179 L 91.0441,7.3179 Z" stroke="#161616" stroke-width="0.1197" stroke-linecap="round" stroke-linejoin="round" fill="#000000"/>
        <path d="M 95.0794,5.9432 L 95.0794,3.8186 L 95.9699,3.8186 L 95.9699,3.3187 L 96.3317,3.3187 L 96.3317,2.8188 L 97.3892,2.8188 L 97.3892,3.3187 L 97.7510,3.3187 L 97.7510,3.8186 L 98.6415,3.8186 L 98.6415,5.9432 L 95.0794,5.9432 Z" stroke="#161616" stroke-width="0.1197" stroke-linecap="round" stroke-linejoin="round" fill="#000000"/>
        <path d="M 95.0794,7.3179 L 95.0794,9.4424 L 95.9699,9.4424 L 95.9699,9.9423 L 96.3317,9.9423 L 96.3317,10.4422 L 97.3892,10.4422 L 97.3892,9.9423 L 97.7510,9.9423 L 97.7510,9.4424 L 98.6415,9.4424 L 98.6415,7.3179 L 95.0794,7.3179 Z" stroke="#161616" stroke-width="0.1197" stroke-linecap="round" stroke-linejoin="round" fill="#000000"/>
        <path d="M 104.7548,10.4465 L 100.8002,10.4465 L 100.8002,7.7725 L 104.7548,7.7725 L 104.7548,10.4465 Z" stroke="#000000" stroke-width="0.1197" stroke-linecap="round" stroke-linejoin="round" fill="none"/>
        <path d="M 109.9154,10.4465 L 105.9608,10.4465 L 105.9608,7.7725 L 109.9154,7.7725 L 109.9154,10.4465 Z" stroke="#000000" stroke-width="0.1197" stroke-linecap="round" stroke-linejoin="round" fill="none"/>
      </g>
      <!--emf-blob end-->
    </g>
  </g>
</svg>
