<svg xmlns="http://www.w3.org/2000/svg" xmlns:xlink="http://www.w3.org/1999/xlink" version="1.1" width="7.6704000000" height="2.5856000000" viewBox="0 0 138.0699 46.5429">
  <title><![CDATA[FSW-348B (F)]]></title>
  <g transform=" scale(4.000000) ">
    <!--converted by libvisio2svg-->
    <g transform=" translate(0.720000,0.720000) ">
      <!--emf-blob start-->
      <g transform="translate(-0.0000, -0.0000)">
        <path d="M 10.9728,1.0208 L 10.9728,1.8289 L 11.7188,1.8289 " stroke="#000000" stroke-width="0.1198" stroke-linecap="round" stroke-linejoin="round" fill="none"/>
        <path d="M 11.7188,1.0208 L 13.1910,1.0208 " stroke="#000000" stroke-width="0.1198" stroke-linecap="round" stroke-linejoin="round" fill="none"/>
        <path d="M 12.4451,1.0208 L 12.4451,1.8289 " stroke="#000000" stroke-width="0.1198" stroke-linecap="round" stroke-linejoin="round" fill="none"/>
        <path d="M 13.5639,1.0208 L 13.5639,1.8289 " stroke="#000000" stroke-width="0.1198" stroke-linecap="round" stroke-linejoin="round" fill="none"/>
        <path d="M 13.5639,1.0208 L 13.5639,1.8289 " stroke="#000000" stroke-width="0.1198" stroke-linecap="round" stroke-linejoin="round" fill="none"/>
        <path d="M 14.2902,1.8289 L 14.2902,1.0208 L 15.0361,1.8289 L 15.7821,1.0208 L 15.7821,1.8289 " stroke="#000000" stroke-width="0.1198" stroke-linecap="round" stroke-linejoin="round" fill="none"/>
        <path d="M 16.1354,1.8289 L 16.8813,1.0208 L 17.6272,1.8289 " stroke="#000000" stroke-width="0.1198" stroke-linecap="round" stroke-linejoin="round" fill="none"/>
        <path d="M 16.3317,1.6268 L 17.4309,1.6268 " stroke="#000000" stroke-width="0.1198" stroke-linecap="round" stroke-linejoin="round" fill="none"/>
        <path d="M 8.7547,1.8289 L 9.5006,1.0208 L 10.2466,1.8289 " stroke="#000000" stroke-width="0.1198" stroke-linecap="round" stroke-linejoin="round" fill="none"/>
        <path d="M 8.9510,1.6268 L 10.0503,1.6268 " stroke="#000000" stroke-width="0.1198" stroke-linecap="round" stroke-linejoin="round" fill="none"/>
        <path d="M 136.2506,0.0281 L 0.0281,0.0281 L 0.0281,12.1611 L 136.2506,12.1611 L 136.2506,0.0281 Z" stroke="#000000" stroke-width="0.1198" stroke-linecap="round" stroke-linejoin="round" fill="#EFEFEF"/>
        <path d="M 129.0692,0.4072 L 129.0552,0.3370 L 129.0412,0.2528 L 128.9570,0.1404 L 128.8448,0.0562 L 128.7606,0.0421 L 128.6905,0.0281 L 7.5882,0.0281 L 7.5181,0.0421 L 7.4339,0.0562 L 7.3217,0.1404 L 7.2375,0.2528 L 7.2235,0.3370 L 7.2095,0.4072 L 7.2095,11.7820 L 7.2235,11.8522 L 7.2375,11.9364 L 7.3217,12.0488 L 7.4339,12.1330 L 7.5181,12.1471 L 7.5882,12.1611 L 128.6905,12.1611 L 128.7606,12.1471 L 128.8448,12.1330 L 128.9570,12.0488 L 129.0412,11.9364 L 129.0552,11.8522 L 129.0692,11.7820 L 129.0692,0.4072 Z" stroke="#000000" stroke-width="0.1198" stroke-linecap="round" stroke-linejoin="round" fill="#EFEFEF"/>
        <path d="M 128.3679,0.8566 L 128.3679,0.7864 L 128.3399,0.7162 L 128.3118,0.6600 L 128.2697,0.6038 L 128.2136,0.5617 L 128.1575,0.5336 L 128.0172,0.5055 L 8.2755,0.5055 L 8.1352,0.5336 L 8.0791,0.5617 L 8.0230,0.6038 L 7.9809,0.6600 L 7.9529,0.7162 L 7.9248,0.8566 L 7.9248,11.3326 L 7.9529,11.4730 L 7.9809,11.5292 L 8.0230,11.5854 L 8.0791,11.6275 L 8.1352,11.6556 L 8.2053,11.6837 L 128.0874,11.6837 L 128.1575,11.6556 L 128.2136,11.6275 L 128.2697,11.5854 L 128.3118,11.5292 L 128.3399,11.4730 L 128.3679,11.4028 L 128.3679,11.3326 L 128.3679,0.8566 Z" stroke="#CBDBCB" stroke-width="0.1198" stroke-linecap="round" stroke-linejoin="round" fill="#CBDBCB"/>
        <path d="M 135.2969,1.5307 L 135.2969,1.4324 L 135.2828,1.3341 L 135.2548,1.2358 L 135.2267,1.1515 L 135.1846,1.0532 L 135.1285,0.9830 L 135.0724,0.8987 L 135.0163,0.8285 L 134.9462,0.7724 L 134.8620,0.7162 L 134.7919,0.6600 L 134.6937,0.6179 L 134.6096,0.5898 L 134.5114,0.5617 L 134.4132,0.5477 L 132.3093,0.5477 L 132.2111,0.5617 L 132.1129,0.5898 L 132.0287,0.6179 L 131.9306,0.6600 L 131.8604,0.7162 L 131.7763,0.7724 L 131.7061,0.8285 L 131.6500,0.8987 L 131.5939,0.9830 L 131.5378,1.0532 L 131.4957,1.1515 L 131.4677,1.2358 L 131.4396,1.3341 L 131.4256,1.4324 L 131.4256,1.6430 L 131.4396,1.7413 L 131.4677,1.8396 L 131.4957,1.9239 L 131.5378,2.0222 L 131.5939,2.0924 L 131.6500,2.1766 L 131.7061,2.2469 L 131.7763,2.3030 L 131.8604,2.3592 L 131.9306,2.4154 L 132.0287,2.4575 L 132.1129,2.4856 L 132.2111,2.5137 L 132.3093,2.5277 L 134.4132,2.5277 L 134.5114,2.5137 L 134.6096,2.4856 L 134.6937,2.4575 L 134.7919,2.4154 L 134.8620,2.3592 L 134.9462,2.3030 L 135.0163,2.2469 L 135.0724,2.1766 L 135.1285,2.0924 L 135.1846,2.0222 L 135.2267,1.9239 L 135.2548,1.8396 L 135.2828,1.7413 L 135.2969,1.6430 L 135.2969,1.5447 L 135.2969,1.5307 Z" stroke="#000000" stroke-width="0.1198" stroke-linecap="round" stroke-linejoin="round" fill="#FFFFFF"/>
        <path d="M 135.2969,10.6585 L 135.2969,10.5602 L 135.2828,10.4619 L 135.2548,10.3636 L 135.2267,10.2794 L 135.1846,10.1811 L 135.1285,10.1109 L 135.0724,10.0266 L 135.0163,9.9564 L 134.9462,9.9002 L 134.8620,9.8441 L 134.7919,9.7879 L 134.6937,9.7458 L 134.6096,9.7177 L 134.5114,9.6896 L 134.4132,9.6755 L 132.3093,9.6755 L 132.2111,9.6896 L 132.1129,9.7177 L 132.0287,9.7458 L 131.9306,9.7879 L 131.8604,9.8441 L 131.7763,9.9002 L 131.7061,9.9564 L 131.6500,10.0266 L 131.5939,10.1109 L 131.5378,10.1811 L 131.4957,10.2794 L 131.4677,10.3636 L 131.4396,10.4619 L 131.4256,10.5602 L 131.4256,10.7709 L 131.4396,10.8692 L 131.4677,10.9675 L 131.4957,11.0517 L 131.5378,11.1500 L 131.5939,11.2203 L 131.6500,11.3045 L 131.7061,11.3747 L 131.7763,11.4309 L 131.8604,11.4871 L 131.9306,11.5432 L 132.0287,11.5854 L 132.1129,11.6135 L 132.2111,11.6415 L 132.3093,11.6556 L 134.4132,11.6556 L 134.5114,11.6415 L 134.6096,11.6135 L 134.6937,11.5854 L 134.7919,11.5432 L 134.8620,11.4871 L 134.9462,11.4309 L 135.0163,11.3747 L 135.0724,11.3045 L 135.1285,11.2203 L 135.1846,11.1500 L 135.2267,11.0517 L 135.2548,10.9675 L 135.2828,10.8692 L 135.2969,10.7709 L 135.2969,10.6726 L 135.2969,10.6585 Z" stroke="#000000" stroke-width="0.1198" stroke-linecap="round" stroke-linejoin="round" fill="#FFFFFF"/>
        <path d="M 4.8531,1.5307 L 4.8531,1.4324 L 4.8390,1.3341 L 4.8110,1.2358 L 4.7829,1.1515 L 4.7409,1.0532 L 4.6848,0.9830 L 4.6287,0.8987 L 4.5725,0.8285 L 4.5024,0.7724 L 4.4183,0.7162 L 4.3481,0.6600 L 4.2499,0.6179 L 4.1658,0.5898 L 4.0676,0.5617 L 3.9694,0.5477 L 1.8655,0.5477 L 1.7673,0.5617 L 1.6691,0.5898 L 1.5850,0.6179 L 1.4868,0.6600 L 1.4166,0.7162 L 1.3325,0.7724 L 1.2624,0.8285 L 1.2063,0.8987 L 1.1501,0.9830 L 1.0940,1.0532 L 1.0520,1.1515 L 1.0239,1.2358 L 0.9959,1.3341 L 0.9818,1.4324 L 0.9818,1.6430 L 0.9959,1.7413 L 1.0239,1.8396 L 1.0520,1.9239 L 1.0940,2.0222 L 1.1501,2.0924 L 1.2063,2.1766 L 1.2624,2.2469 L 1.3325,2.3030 L 1.4166,2.3592 L 1.4868,2.4154 L 1.5850,2.4575 L 1.6691,2.4856 L 1.7673,2.5137 L 1.8655,2.5277 L 3.9694,2.5277 L 4.0676,2.5137 L 4.1658,2.4856 L 4.2499,2.4575 L 4.3481,2.4154 L 4.4183,2.3592 L 4.5024,2.3030 L 4.5725,2.2469 L 4.6287,2.1766 L 4.6848,2.0924 L 4.7409,2.0222 L 4.7829,1.9239 L 4.8110,1.8396 L 4.8390,1.7413 L 4.8531,1.6430 L 4.8531,1.5447 L 4.8531,1.5307 Z" stroke="#000000" stroke-width="0.1198" stroke-linecap="round" stroke-linejoin="round" fill="#FFFFFF"/>
        <path d="M 4.8531,10.6585 L 4.8531,10.5602 L 4.8390,10.4619 L 4.8110,10.3636 L 4.7829,10.2794 L 4.7409,10.1811 L 4.6848,10.1109 L 4.6287,10.0266 L 4.5725,9.9564 L 4.5024,9.9002 L 4.4183,9.8441 L 4.3481,9.7879 L 4.2499,9.7458 L 4.1658,9.7177 L 4.0676,9.6896 L 3.9694,9.6755 L 1.8655,9.6755 L 1.7673,9.6896 L 1.6691,9.7177 L 1.5850,9.7458 L 1.4868,9.7879 L 1.4166,9.8441 L 1.3325,9.9002 L 1.2624,9.9564 L 1.2063,10.0266 L 1.1501,10.1109 L 1.0940,10.1811 L 1.0520,10.2794 L 1.0239,10.3636 L 0.9959,10.4619 L 0.9818,10.5602 L 0.9818,10.7709 L 0.9959,10.8692 L 1.0239,10.9675 L 1.0520,11.0517 L 1.0940,11.1500 L 1.1501,11.2203 L 1.2063,11.3045 L 1.2624,11.3747 L 1.3325,11.4309 L 1.4166,11.4871 L 1.4868,11.5432 L 1.5850,11.5854 L 1.6691,11.6135 L 1.7673,11.6415 L 1.8655,11.6556 L 3.9694,11.6556 L 4.0676,11.6415 L 4.1658,11.6135 L 4.2499,11.5854 L 4.3481,11.5432 L 4.4183,11.4871 L 4.5024,11.4309 L 4.5725,11.3747 L 4.6287,11.3045 L 4.6848,11.2203 L 4.7409,11.1500 L 4.7829,11.0517 L 4.8110,10.9675 L 4.8390,10.8692 L 4.8531,10.7709 L 4.8531,10.6726 L 4.8531,10.6585 Z" stroke="#000000" stroke-width="0.1198" stroke-linecap="round" stroke-linejoin="round" fill="#FFFFFF"/>
        <path d="M 7.9248,9.3245 L 7.9248,0.7021 L 7.9388,0.6881 L 7.9388,0.6741 L 7.9529,0.6600 L 7.9529,0.6319 L 7.9669,0.6319 L 7.9669,0.6179 L 8.0230,0.5617 L 8.0370,0.5617 L 8.0651,0.5336 L 8.0791,0.5336 L 8.0931,0.5196 L 8.1212,0.5196 L 8.1352,0.5055 L 26.2851,0.5055 L 27.9823,0.4915 L 44.3789,0.4915 L 43.7898,0.5477 L 42.6677,0.6881 L 42.1207,0.7583 L 41.5877,0.8426 L 41.0688,0.9268 L 40.5498,1.0251 L 40.0448,1.1234 L 39.5399,1.2358 L 39.0490,1.3622 L 38.5721,1.4885 L 38.0812,1.6430 L 37.6043,1.7975 L 37.1414,1.9520 L 36.6645,2.1345 L 36.1876,2.3311 L 35.7248,2.5418 L 35.2479,2.7524 L 34.7710,2.9911 L 34.2941,3.2439 L 33.8172,3.5107 L 33.3263,3.7916 L 32.3444,4.4095 L 31.8395,4.7605 L 31.3205,5.1116 L 30.8016,5.4908 L 30.2686,5.8840 L 29.7356,6.3053 L 29.1745,6.7406 L 28.5994,7.2040 L 28.0244,7.6955 L 27.9402,7.7657 L 27.8420,7.8500 L 27.7438,7.9202 L 27.6316,8.0044 L 27.5194,8.0747 L 27.2670,8.2151 L 27.1407,8.2993 L 26.8602,8.4398 L 26.7199,8.4959 L 26.4114,8.6364 L 26.2571,8.6925 L 26.0888,8.7628 L 25.5838,8.9313 L 25.4015,8.9734 L 25.2191,9.0296 L 24.6721,9.1560 L 24.3074,9.2121 L 24.1111,9.2402 L 23.9287,9.2683 L 23.7324,9.2823 L 23.5500,9.3104 L 23.3536,9.3104 L 23.1713,9.3245 L 7.9669,9.3245 L 7.9248,9.3245 Z" stroke="#CBDBCB" stroke-width="0.1198" stroke-linecap="round" stroke-linejoin="round" fill="#EFEFEF"/>
        <path d="M 18.6829,5.9120 L 14.3067,5.9120 L 14.3067,9.4228 L 18.6829,9.4228 L 18.6829,5.9120 Z" stroke="#000000" stroke-width="0.1198" stroke-linecap="round" stroke-linejoin="round" fill="#7F7F7F"/>
        <path d="M 123.0660,7.2461 L 123.0660,9.4368 L 126.2640,9.4368 L 126.2640,7.2461 L 123.0660,7.2461 Z" stroke="#EFEFEF" stroke-width="0.1198" stroke-linecap="round" stroke-linejoin="round" fill="#EFEFEF"/>
        <path d="M 119.7979,4.5499 L 122.4909,4.5499 L 122.4909,6.7406 L 119.7979,6.7406 L 119.7979,4.5499 Z" stroke="#EFEFEF" stroke-width="0.1198" stroke-linecap="round" stroke-linejoin="round" fill="#EFEFEF"/>
        <path d="M 126.8671,6.7406 L 128.3539,6.7406 L 128.3539,4.5499 L 126.8671,4.5499 L 126.8671,6.7406 Z" stroke="#EFEFEF" stroke-width="0.1198" stroke-linecap="round" stroke-linejoin="round" fill="#EFEFEF"/>
        <path d="M 122.4909,7.2461 L 122.4909,9.4789 L 121.7616,9.4789 L 121.6353,9.4649 L 121.4109,9.4368 L 120.9621,9.3245 L 120.7657,9.2402 L 120.6675,9.1840 L 120.5834,9.1279 L 120.4852,9.0577 L 120.4010,8.9874 L 120.3309,8.9032 L 120.2467,8.8189 L 120.1766,8.7206 L 120.1205,8.6223 L 120.0504,8.5100 L 120.0083,8.3836 L 119.9522,8.2572 L 119.9101,8.1168 L 119.8820,7.9623 L 119.8400,7.7938 L 119.8259,7.6253 L 119.8119,7.4427 L 119.7979,7.2461 L 122.4769,7.2461 L 122.4909,7.2461 Z" stroke="#EFEFEF" stroke-width="0.1198" stroke-linecap="round" stroke-linejoin="round" fill="#EFEFEF"/>
        <path d="M 123.0660,1.8537 L 123.0660,4.0443 L 126.2640,4.0443 L 126.2640,1.8537 L 123.0660,1.8537 Z" stroke="#EFEFEF" stroke-width="0.1198" stroke-linecap="round" stroke-linejoin="round" fill="#EFEFEF"/>
        <path d="M 122.4909,4.0443 L 122.4909,1.8115 L 121.7616,1.8115 L 121.6353,1.8256 L 121.4109,1.8537 L 120.9621,1.9660 L 120.7657,2.0503 L 120.6675,2.1064 L 120.5834,2.1626 L 120.4852,2.2328 L 120.4010,2.3030 L 120.3309,2.3873 L 120.2467,2.4715 L 120.1766,2.5698 L 120.1205,2.6681 L 120.0504,2.7805 L 120.0083,2.9069 L 119.9522,3.0333 L 119.9101,3.1737 L 119.8820,3.3282 L 119.8400,3.4967 L 119.8259,3.6652 L 119.8119,3.8477 L 119.7979,4.0443 L 122.4769,4.0443 L 122.4909,4.0443 Z" stroke="#EFEFEF" stroke-width="0.1198" stroke-linecap="round" stroke-linejoin="round" fill="#EFEFEF"/>
        <path d="M 126.8671,7.2461 L 126.8671,9.4368 L 128.3539,9.4368 L 128.3539,7.2461 L 126.8671,7.2461 Z" stroke="#EFEFEF" stroke-width="0.1198" stroke-linecap="round" stroke-linejoin="round" fill="#EFEFEF"/>
        <path d="M 126.8671,1.8537 L 126.8671,4.0443 L 128.3539,4.0443 L 128.3539,1.8537 L 126.8671,1.8537 Z" stroke="#EFEFEF" stroke-width="0.1198" stroke-linecap="round" stroke-linejoin="round" fill="#EFEFEF"/>
        <path d="M 121.6073,3.6090 L 120.7657,3.3001 L 120.7657,3.9180 L 121.6073,3.6090 Z" stroke="#494949" stroke-width="0.1198" stroke-linecap="round" stroke-linejoin="round" fill="#00FF00"/>
        <path d="M 120.0644,2.3732 L 115.6882,2.3732 L 115.6882,9.4228 L 120.0644,9.4228 L 120.0644,2.3732 Z" stroke="#000000" stroke-width="0.1198" stroke-linecap="round" stroke-linejoin="round" fill="#7F7F7F"/>
        <path d="M 43.3550,2.3732 L 19.6227,2.3732 L 19.6227,9.4228 L 43.3550,9.4228 L 43.3550,2.3732 Z" stroke="#000000" stroke-width="0.1198" stroke-linecap="round" stroke-linejoin="round" fill="#7F7F7F"/>
        <path d="M 67.1014,2.3732 L 43.3691,2.3732 L 43.3691,9.4228 L 67.1014,9.4228 L 67.1014,2.3732 Z" stroke="#000000" stroke-width="0.1198" stroke-linecap="round" stroke-linejoin="round" fill="#7F7F7F"/>
        <path d="M 90.8478,2.3732 L 67.1154,2.3732 L 67.1154,9.4228 L 90.8478,9.4228 L 90.8478,2.3732 Z" stroke="#000000" stroke-width="0.1198" stroke-linecap="round" stroke-linejoin="round" fill="#7F7F7F"/>
        <path d="M 114.5942,2.3732 L 90.8618,2.3732 L 90.8618,9.4228 L 114.5942,9.4228 L 114.5942,2.3732 Z" stroke="#000000" stroke-width="0.1198" stroke-linecap="round" stroke-linejoin="round" fill="#7F7F7F"/>
        <path d="M 121.6073,7.7376 L 120.7657,7.4287 L 120.7657,8.0466 L 121.6073,7.7376 Z" stroke="#494949" stroke-width="0.1198" stroke-linecap="round" stroke-linejoin="round" fill="#00FF00"/>
        <path d="M 126.4042,2.3732 L 122.0842,2.3732 L 122.0842,9.4228 L 126.4042,9.4228 L 126.4042,2.3732 Z" stroke="#000000" stroke-width="0.1198" stroke-linecap="round" stroke-linejoin="round" fill="#7F7F7F"/>
        <path d="M 126.4042,5.6874 L 122.0842,5.6874 L 122.0842,6.1086 L 126.4042,6.1086 L 126.4042,5.6874 Z" stroke="#000000" stroke-width="0.1198" stroke-linecap="round" stroke-linejoin="round" fill="#7F7F7F"/>
        <path d="M 115.6882,9.6053 L 115.6882,9.8862 L 115.7022,9.9002 L 115.7022,9.9283 L 115.7163,9.9424 L 115.7163,9.9564 L 115.7303,9.9704 L 115.7303,9.9845 L 115.7443,9.9985 L 115.7583,9.9985 L 115.7583,10.0126 L 115.7724,10.0126 L 115.7724,10.0266 L 115.7864,10.0407 L 115.8004,10.0407 L 115.8144,10.0547 L 115.8285,10.0547 L 115.8425,10.0687 L 115.8705,10.0687 L 115.8846,10.0828 L 119.8259,10.0828 L 119.8400,10.0828 " stroke="#000000" stroke-width="0.1198" stroke-linecap="round" stroke-linejoin="round" fill="none"/>
        <path d="M 126.4042,9.6053 L 126.4042,9.8862 L 126.3902,9.9002 L 126.3902,9.9283 L 126.3762,9.9424 L 126.3762,9.9564 L 126.3622,9.9704 L 126.3622,9.9845 L 126.3481,9.9985 L 126.3341,9.9985 L 126.3341,10.0126 L 126.3201,10.0126 L 126.3201,10.0266 L 126.3060,10.0407 L 126.2920,10.0407 L 126.2780,10.0547 L 126.2640,10.0547 L 126.2499,10.0687 L 126.2219,10.0687 L 126.2079,10.0828 L 122.2665,10.0828 L 122.2525,10.0828 " stroke="#000000" stroke-width="0.1198" stroke-linecap="round" stroke-linejoin="round" fill="none"/>
        <path d="M 115.6882,2.1907 L 115.6882,1.9098 L 115.7022,1.8958 L 115.7022,1.8677 L 115.7163,1.8537 L 115.7163,1.8396 L 115.7303,1.8256 L 115.7303,1.8115 L 115.7443,1.7975 L 115.7583,1.7975 L 115.7583,1.7834 L 115.7724,1.7834 L 115.7724,1.7694 L 115.7864,1.7554 L 115.8004,1.7554 L 115.8144,1.7413 L 115.8285,1.7413 L 115.8425,1.7273 L 115.8705,1.7273 L 115.8846,1.7132 L 119.8259,1.7132 L 119.8400,1.7132 " stroke="#000000" stroke-width="0.1198" stroke-linecap="round" stroke-linejoin="round" fill="none"/>
        <path d="M 126.4042,2.1907 L 126.4042,1.9098 L 126.3902,1.8958 L 126.3902,1.8677 L 126.3762,1.8537 L 126.3762,1.8396 L 126.3622,1.8256 L 126.3622,1.8115 L 126.3481,1.7975 L 126.3341,1.7975 L 126.3341,1.7834 L 126.3201,1.7834 L 126.3201,1.7694 L 126.3060,1.7554 L 126.2920,1.7554 L 126.2780,1.7413 L 126.2640,1.7413 L 126.2499,1.7273 L 126.2219,1.7273 L 126.2079,1.7132 L 122.2665,1.7132 L 122.2525,1.7132 " stroke="#000000" stroke-width="0.1198" stroke-linecap="round" stroke-linejoin="round" fill="none"/>
        <path d="M 9.7935,5.2973 L 9.2590,5.2973 L 9.2590,5.8337 L 9.7935,5.8337 L 9.7935,5.2973 Z" stroke="#000000" stroke-width="0.1198" stroke-linecap="round" stroke-linejoin="round" fill="#00FF00"/>
        <text font-family="Arial" fill="#000000" style="white-space:pre;" font-weight="400" text-anchor="start" x="12.6660" y="7.2669" font-size="0.1470"><![CDATA[RPS]]></text>
        <text font-family="Arial" fill="#000000" style="white-space:pre;" font-weight="400" text-anchor="start" x="39.1337" y="6.5547" font-size="0.1603"><![CDATA[WAN 1]]></text>
        <text font-family="Arial" fill="#000000" style="white-space:pre;" font-weight="400" text-anchor="start" x="39.1337" y="8.5261" font-size="0.1603"><![CDATA[WAN 2]]></text>
        <text font-family="Arial" fill="#000000" style="white-space:pre;" font-weight="400" text-anchor="start" x="13.0802" y="8.5261" font-size="0.1603"><![CDATA[USB MGMT]]></text>
        <ellipse cx="9.6352" cy="10.1736" rx="0.2637" ry="0.2646" fill="#666666" stroke="#000000" stroke-width="0.1198" stroke-linecap="round" stroke-linejoin="round"/>
        <ellipse cx="9.6352" cy="10.1736" rx="0.2637" ry="0.2646" fill="none" stroke="#0A0A0A" stroke-width="0.1198" stroke-linecap="round" stroke-linejoin="round"/>
        <path d="M 8.7072,1.9000 L 8.6917,1.9000 L 8.6840,1.8926 L 8.6763,1.8926 L 8.6532,1.8705 L 8.6532,1.8632 L 8.6455,1.8558 L 8.6455,1.0015 L 8.6532,0.9942 L 8.6532,0.9868 L 8.6609,0.9794 L 8.6686,0.9794 L 8.6686,0.9721 L 8.6763,0.9647 L 8.6840,0.9647 L 8.6917,0.9574 L 9.7406,0.9574 L 9.7483,0.9647 L 9.7560,0.9647 L 9.7792,0.9868 L 9.7792,0.9942 L 9.7869,1.0015 L 9.7869,1.1709 L 9.7792,1.1709 L 9.7792,1.1636 L 9.7715,1.1636 L 9.7715,1.1562 L 9.7637,1.1562 L 9.7637,1.1488 L 9.7483,1.1488 L 9.7483,1.1415 L 8.9000,1.1415 L 8.9000,1.1488 L 8.8845,1.1488 L 8.8845,1.1562 L 8.8768,1.1562 L 8.8768,1.1709 L 8.8691,1.1709 L 8.8691,1.8705 L 8.8768,1.8705 L 8.8768,1.8852 L 8.8845,1.8852 L 8.8845,1.8926 L 8.8923,1.8926 L 8.8923,1.9000 L 8.7149,1.9000 L 8.7072,1.9000 Z" stroke="#000000" stroke-width="0.1198" stroke-linecap="round" stroke-linejoin="round" fill="#000000"/>
        <path d="M 9.7098,1.3550 L 8.9462,1.3550 L 8.9462,1.3477 L 8.9308,1.3477 L 8.9308,1.3403 L 8.9231,1.3403 L 8.9231,1.3256 L 8.9154,1.3256 L 8.9154,1.5097 L 8.9231,1.5097 L 8.9231,1.5244 L 8.9308,1.5244 L 8.9308,1.5318 L 8.9462,1.5318 L 8.9462,1.5391 L 9.7252,1.5391 L 9.7406,1.5244 L 9.7483,1.5244 L 9.7637,1.5097 L 9.7637,1.5023 L 9.7715,1.4949 L 9.7715,1.4876 L 9.7792,1.4802 L 9.7792,1.4655 L 9.7869,1.4581 L 9.7869,1.4360 L 9.7792,1.4287 L 9.7792,1.4066 L 9.7637,1.3918 L 9.7637,1.3845 L 9.7560,1.3771 L 9.7483,1.3771 L 9.7483,1.3698 L 9.7406,1.3698 L 9.7329,1.3624 L 9.7252,1.3624 L 9.7175,1.3550 L 9.7098,1.3550 Z" stroke="#000000" stroke-width="0.1198" stroke-linecap="round" stroke-linejoin="round" fill="#000000"/>
        <path d="M 11.4913,1.5391 L 11.4759,1.5391 L 11.4759,1.5318 L 11.4604,1.5318 L 11.4604,1.5244 L 11.4527,1.5244 L 11.4527,1.5097 L 11.4450,1.5097 L 11.4450,1.3256 L 11.4527,1.3256 L 11.4527,1.3403 L 11.4604,1.3403 L 11.4604,1.3477 L 11.4759,1.3477 L 11.4759,1.3550 L 12.0928,1.3550 L 12.0928,1.1415 L 11.4296,1.1415 L 11.4296,1.1488 L 11.4142,1.1488 L 11.4142,1.1562 L 11.4065,1.1562 L 11.4065,1.1709 L 11.3987,1.1709 L 11.3987,1.8705 L 11.4065,1.8705 L 11.4065,1.8852 L 11.4142,1.8852 L 11.4142,1.8926 L 11.4219,1.8926 L 11.4219,1.9000 L 11.2214,1.9000 L 11.2136,1.8926 L 11.2059,1.8926 L 11.1828,1.8705 L 11.1828,1.8632 L 11.1751,1.8558 L 11.1751,1.0015 L 11.1828,0.9942 L 11.1828,0.9868 L 11.1905,0.9794 L 11.1982,0.9794 L 11.1982,0.9721 L 11.2059,0.9647 L 11.2136,0.9647 L 11.2214,0.9574 L 12.2702,0.9574 L 12.2779,0.9647 L 12.2857,0.9647 L 12.3088,0.9868 L 12.3088,0.9942 L 12.3165,1.0015 L 12.3165,1.4655 L 12.3088,1.4729 L 12.3088,1.4876 L 12.3011,1.4876 L 12.3011,1.4949 L 12.2934,1.5023 L 12.2934,1.5097 L 12.2857,1.5097 L 12.2857,1.5170 L 12.2779,1.5170 L 12.2779,1.5244 L 12.2702,1.5244 L 12.2702,1.5318 L 12.2625,1.5318 L 12.2548,1.5391 L 12.2625,1.5465 L 12.2702,1.5465 L 12.2702,1.5539 L 12.2779,1.5539 L 12.2779,1.5612 L 12.2857,1.5612 L 12.2857,1.5686 L 12.2934,1.5686 L 12.2934,1.5760 L 12.3011,1.5833 L 12.3011,1.5907 L 12.3088,1.5907 L 12.3088,1.6054 L 12.3165,1.6128 L 12.3165,1.8705 L 12.3242,1.8705 L 12.3242,1.8852 L 12.3319,1.8852 L 12.3319,1.8926 L 12.3396,1.8926 L 12.3396,1.9000 L 12.1391,1.9000 L 12.1314,1.8926 L 12.1237,1.8926 L 12.1006,1.8705 L 12.1006,1.8632 L 12.0928,1.8558 L 12.0928,1.5391 L 11.4990,1.5391 L 11.4913,1.5391 Z" stroke="#000000" stroke-width="0.1198" stroke-linecap="round" stroke-linejoin="round" fill="#000000"/>
        <path d="M 12.7175,1.1415 L 12.4862,1.1415 L 12.4785,1.1341 L 12.4707,1.1341 L 12.4476,1.1120 L 12.4476,1.1046 L 12.4399,1.0973 L 12.4399,1.0015 L 12.4476,0.9942 L 12.4476,0.9868 L 12.4553,0.9794 L 12.4630,0.9794 L 12.4630,0.9721 L 12.4707,0.9647 L 12.4785,0.9647 L 12.4862,0.9574 L 13.5350,0.9574 L 13.5428,0.9647 L 13.5505,0.9647 L 13.5736,0.9868 L 13.5736,0.9942 L 13.5813,1.0015 L 13.5813,1.1709 L 13.5736,1.1709 L 13.5736,1.1636 L 13.5659,1.1636 L 13.5659,1.1562 L 13.5582,1.1562 L 13.5582,1.1488 L 13.5428,1.1488 L 13.5428,1.1415 L 12.9720,1.1415 L 12.9720,1.1488 L 12.9566,1.1488 L 12.9566,1.1562 L 12.9489,1.1562 L 12.9489,1.1709 L 12.9412,1.1709 L 12.9412,1.8705 L 12.9489,1.8705 L 12.9489,1.8852 L 12.9566,1.8852 L 12.9566,1.8926 L 12.9643,1.8926 L 12.9643,1.9000 L 12.7638,1.9000 L 12.7561,1.8926 L 12.7484,1.8926 L 12.7253,1.8705 L 12.7253,1.8632 L 12.7175,1.8558 L 12.7175,1.1636 L 12.7175,1.1415 Z" stroke="#000000" stroke-width="0.1198" stroke-linecap="round" stroke-linejoin="round" fill="#000000"/>
        <path d="M 13.9284,1.8484 L 13.9284,1.8705 L 13.9361,1.8705 L 13.9361,1.8852 L 13.9438,1.8852 L 13.9438,1.8926 L 13.9515,1.8926 L 13.9515,1.9000 L 13.7510,1.9000 L 13.7433,1.8926 L 13.7356,1.8926 L 13.7124,1.8705 L 13.7124,1.8632 L 13.7047,1.8558 L 13.7047,0.9868 L 13.6970,0.9868 L 13.6970,0.9721 L 13.6893,0.9721 L 13.6893,0.9647 L 13.6816,0.9647 L 13.6816,0.9574 L 13.8821,0.9574 L 13.8898,0.9647 L 13.8975,0.9647 L 13.9207,0.9868 L 13.9207,0.9942 L 13.9284,1.0015 L 13.9284,1.8411 L 13.9284,1.8484 Z" stroke="#000000" stroke-width="0.1198" stroke-linecap="round" stroke-linejoin="round" fill="#000000"/>
        <path d="M 15.0235,1.1415 L 14.3603,1.1415 L 14.3603,1.1488 L 14.3448,1.1488 L 14.3448,1.1562 L 14.3371,1.1562 L 14.3371,1.1709 L 14.3294,1.1709 L 14.3294,1.8705 L 14.3371,1.8705 L 14.3371,1.8852 L 14.3448,1.8852 L 14.3448,1.8926 L 14.3525,1.8926 L 14.3525,1.9000 L 14.1520,1.9000 L 14.1443,1.8926 L 14.1366,1.8926 L 14.1135,1.8705 L 14.1135,1.8632 L 14.1058,1.8558 L 14.1058,1.0015 L 14.1135,0.9942 L 14.1135,0.9868 L 14.1212,0.9794 L 14.1289,0.9794 L 14.1289,0.9721 L 14.1366,0.9647 L 14.1443,0.9647 L 14.1520,0.9574 L 15.2009,0.9574 L 15.2086,0.9647 L 15.2163,0.9647 L 15.2395,0.9868 L 15.2395,0.9942 L 15.2472,1.0015 L 15.2472,1.8705 L 15.2549,1.8705 L 15.2549,1.8852 L 15.2626,1.8852 L 15.2626,1.8926 L 15.2703,1.8926 L 15.2703,1.9000 L 15.0698,1.9000 L 15.0621,1.8926 L 15.0544,1.8926 L 15.0312,1.8705 L 15.0312,1.8632 L 15.0235,1.8558 L 15.0235,1.1636 L 15.0235,1.1415 Z" stroke="#000000" stroke-width="0.1198" stroke-linecap="round" stroke-linejoin="round" fill="#000000"/>
        <path d="M 16.3809,1.3550 L 15.6713,1.3550 L 15.6636,1.3477 L 15.6559,1.3477 L 15.6559,1.3403 L 15.6482,1.3403 L 15.6482,1.3256 L 15.6405,1.3256 L 15.6405,1.5097 L 15.6482,1.5097 L 15.6482,1.5244 L 15.6559,1.5244 L 15.6559,1.5318 L 15.6636,1.5318 L 15.6713,1.5391 L 16.3886,1.5391 L 16.4040,1.5244 L 16.4117,1.5244 L 16.4271,1.5097 L 16.4271,1.5023 L 16.4349,1.4949 L 16.4349,1.4876 L 16.4426,1.4802 L 16.4426,1.4655 L 16.4503,1.4581 L 16.4503,1.4287 L 16.4426,1.4213 L 16.4426,1.3992 L 16.4349,1.3992 L 16.4349,1.3918 L 16.4117,1.3698 L 16.4040,1.3698 L 16.4040,1.3624 L 16.3963,1.3624 L 16.3886,1.3550 L 16.3809,1.3550 Z" stroke="#000000" stroke-width="0.1198" stroke-linecap="round" stroke-linejoin="round" fill="#000000"/>
        <path d="M 16.9130,1.1415 L 16.6816,1.1415 L 16.6739,1.1341 L 16.6662,1.1341 L 16.6431,1.1120 L 16.6431,1.1046 L 16.6354,1.0973 L 16.6354,1.0015 L 16.6431,0.9942 L 16.6431,0.9868 L 16.6508,0.9794 L 16.6585,0.9794 L 16.6585,0.9721 L 16.6662,0.9647 L 16.6739,0.9647 L 16.6816,0.9574 L 17.7305,0.9574 L 17.7382,0.9647 L 17.7459,0.9647 L 17.7691,0.9868 L 17.7691,0.9942 L 17.7768,1.0015 L 17.7768,1.1709 L 17.7691,1.1709 L 17.7691,1.1636 L 17.7614,1.1636 L 17.7614,1.1562 L 17.7537,1.1562 L 17.7537,1.1488 L 17.7382,1.1488 L 17.7382,1.1415 L 17.1675,1.1415 L 17.1675,1.1488 L 17.1521,1.1488 L 17.1521,1.1562 L 17.1444,1.1562 L 17.1444,1.1709 L 17.1367,1.1709 L 17.1367,1.8705 L 17.1444,1.8705 L 17.1444,1.8852 L 17.1521,1.8852 L 17.1521,1.8926 L 17.1598,1.8926 L 17.1598,1.9000 L 16.9593,1.9000 L 16.9516,1.8926 L 16.9439,1.8926 L 16.9207,1.8705 L 16.9207,1.8632 L 16.9130,1.8558 L 16.9130,1.1636 L 16.9130,1.1415 Z" stroke="#000000" stroke-width="0.1198" stroke-linecap="round" stroke-linejoin="round" fill="#000000"/>
        <path d="M 16.4580,1.7159 L 16.4734,1.7159 L 16.4734,1.7085 L 16.4888,1.7085 L 16.4888,1.7011 L 16.4966,1.7011 L 16.4966,1.6938 L 16.5043,1.6938 L 16.5043,1.6864 L 16.5120,1.6864 L 16.5120,1.8558 L 16.5043,1.8632 L 16.5043,1.8705 L 16.4966,1.8779 L 16.4966,1.8852 L 16.4888,1.8852 L 16.4811,1.8926 L 16.4734,1.8926 L 16.4657,1.9000 L 15.4168,1.9000 L 15.4091,1.8926 L 15.4014,1.8926 L 15.3783,1.8705 L 15.3783,1.8632 L 15.3706,1.8558 L 15.3706,1.0015 L 15.3783,0.9942 L 15.3783,0.9868 L 15.3860,0.9794 L 15.3937,0.9794 L 15.3937,0.9721 L 15.4014,0.9647 L 15.4091,0.9647 L 15.4168,0.9574 L 16.4657,0.9574 L 16.4734,0.9647 L 16.4811,0.9647 L 16.5043,0.9868 L 16.5043,0.9942 L 16.5120,1.0015 L 16.5120,1.1709 L 16.5043,1.1709 L 16.5043,1.1636 L 16.4966,1.1636 L 16.4966,1.1562 L 16.4888,1.1562 L 16.4888,1.1488 L 16.4734,1.1488 L 16.4734,1.1415 L 15.6251,1.1415 L 15.6251,1.1488 L 15.6096,1.1488 L 15.6096,1.1562 L 15.6019,1.1562 L 15.6019,1.1709 L 15.5942,1.1709 L 15.5942,1.7159 L 16.4503,1.7159 L 16.4580,1.7159 Z" stroke="#000000" stroke-width="0.1198" stroke-linecap="round" stroke-linejoin="round" fill="#000000"/>
        <path d="M 10.2959,1.6275 L 10.2959,1.9000 L 10.6661,1.9000 L 10.6661,1.6275 L 10.2959,1.6275 Z" stroke="#ED3440" stroke-width="0.1198" stroke-linecap="round" stroke-linejoin="round" fill="#ED3440"/>
        <path d="M 9.9103,1.2961 L 10.2265,1.2961 L 10.2265,1.5612 L 9.9103,1.5612 L 9.9103,1.2961 Z" stroke="#ED3440" stroke-width="0.1198" stroke-linecap="round" stroke-linejoin="round" fill="#ED3440"/>
        <path d="M 10.7355,1.6275 L 10.7355,1.9000 L 10.8512,1.9000 L 10.8589,1.8926 L 10.8897,1.8926 L 10.8974,1.8852 L 10.9129,1.8852 L 10.9283,1.8779 L 10.9360,1.8705 L 10.9514,1.8632 L 10.9669,1.8484 L 10.9823,1.8411 L 10.9900,1.8337 L 10.9977,1.8190 L 11.0054,1.8116 L 11.0363,1.7527 L 11.0363,1.7380 L 11.0440,1.7159 L 11.0440,1.6938 L 11.0517,1.6717 L 11.0517,1.6275 L 10.7432,1.6275 L 10.7355,1.6275 Z" stroke="#ED3440" stroke-width="0.1198" stroke-linecap="round" stroke-linejoin="round" fill="#ED3440"/>
        <path d="M 10.7355,1.2961 L 11.0517,1.2961 L 11.0517,1.5612 L 10.7355,1.5612 L 10.7355,1.2961 Z" stroke="#ED3440" stroke-width="0.1198" stroke-linecap="round" stroke-linejoin="round" fill="#ED3440"/>
        <path d="M 10.2265,1.6275 L 10.2265,1.9000 L 10.1108,1.9000 L 10.1031,1.8926 L 10.0722,1.8926 L 10.0645,1.8852 L 10.0491,1.8852 L 10.0337,1.8779 L 10.0260,1.8705 L 10.0105,1.8632 L 9.9951,1.8484 L 9.9797,1.8411 L 9.9720,1.8337 L 9.9643,1.8190 L 9.9565,1.8116 L 9.9257,1.7527 L 9.9257,1.7380 L 9.9180,1.7159 L 9.9180,1.6938 L 9.9103,1.6717 L 9.9103,1.6275 L 10.2188,1.6275 L 10.2265,1.6275 Z" stroke="#ED3440" stroke-width="0.1198" stroke-linecap="round" stroke-linejoin="round" fill="#ED3440"/>
        <path d="M 10.2959,0.9574 L 10.2959,1.2298 L 10.6661,1.2298 L 10.6661,0.9574 L 10.2959,0.9574 Z" stroke="#ED3440" stroke-width="0.1198" stroke-linecap="round" stroke-linejoin="round" fill="#ED3440"/>
        <path d="M 10.7355,1.2298 L 10.7355,0.9574 L 10.8512,0.9574 L 10.8589,0.9647 L 10.8897,0.9647 L 10.8974,0.9721 L 10.9129,0.9721 L 10.9283,0.9794 L 10.9360,0.9868 L 10.9514,0.9942 L 10.9669,1.0089 L 10.9823,1.0163 L 10.9900,1.0236 L 10.9977,1.0384 L 11.0054,1.0457 L 11.0363,1.1046 L 11.0363,1.1194 L 11.0440,1.1415 L 11.0440,1.1636 L 11.0517,1.1856 L 11.0517,1.2298 L 10.7432,1.2298 L 10.7355,1.2298 Z" stroke="#ED3440" stroke-width="0.1198" stroke-linecap="round" stroke-linejoin="round" fill="#ED3440"/>
        <path d="M 10.2265,1.2298 L 10.2265,0.9574 L 10.1108,0.9574 L 10.1031,0.9647 L 10.0722,0.9647 L 10.0645,0.9721 L 10.0491,0.9721 L 10.0337,0.9794 L 10.0260,0.9868 L 10.0105,0.9942 L 9.9951,1.0089 L 9.9797,1.0163 L 9.9720,1.0236 L 9.9643,1.0384 L 9.9565,1.0457 L 9.9257,1.1046 L 9.9257,1.1194 L 9.9180,1.1415 L 9.9180,1.1636 L 9.9103,1.1856 L 9.9103,1.2298 L 10.2188,1.2298 L 10.2265,1.2298 Z" stroke="#ED3440" stroke-width="0.1198" stroke-linecap="round" stroke-linejoin="round" fill="#ED3440"/>
        <text font-family="Symbol" fill="#000000" style="white-space:pre;" text-anchor="start" x="17.3380" y="1.8994" font-size="0.4809"><![CDATA[]]></text>
        <text font-family="Arial" fill="#000000" style="white-space:pre;" font-weight="400" text-anchor="start" x="19.0312" y="2.1917" font-size="0.1084"><![CDATA[FortiSwitch 348B]]></text>
        <text font-family="Arial" fill="#000000" style="white-space:pre;" font-weight="400" text-anchor="start" x="20.5754" y="2.0560" font-size="0.0813"><![CDATA[1]]></text>
        <text font-family="Arial" fill="#000000" style="white-space:pre;" font-weight="400" text-anchor="start" x="21.0495" y="2.0560" font-size="0.0813"><![CDATA[3]]></text>
        <text font-family="Arial" fill="#000000" style="white-space:pre;" font-weight="400" text-anchor="start" x="21.5168" y="2.0560" font-size="0.0813"><![CDATA[5]]></text>
        <text font-family="Arial" fill="#000000" style="white-space:pre;" font-weight="400" text-anchor="start" x="21.9909" y="2.0560" font-size="0.0813"><![CDATA[7]]></text>
        <text font-family="Arial" fill="#000000" style="white-space:pre;" font-weight="400" text-anchor="start" x="22.4582" y="2.0560" font-size="0.0813"><![CDATA[9]]></text>
        <text font-family="Arial" fill="#000000" style="white-space:pre;" font-weight="400" text-anchor="start" x="22.9119" y="2.0560" font-size="0.0813"><![CDATA[11]]></text>
        <text font-family="Arial" fill="#000000" style="white-space:pre;" font-weight="400" text-anchor="start" x="23.4199" y="2.0560" font-size="0.0813"><![CDATA[13]]></text>
        <text font-family="Arial" fill="#000000" style="white-space:pre;" font-weight="400" text-anchor="start" x="23.8940" y="2.0560" font-size="0.0813"><![CDATA[15]]></text>
        <text font-family="Arial" fill="#000000" style="white-space:pre;" font-weight="400" text-anchor="start" x="24.3613" y="2.0560" font-size="0.0813"><![CDATA[17]]></text>
        <text font-family="Arial" fill="#000000" style="white-space:pre;" font-weight="400" text-anchor="start" x="24.8354" y="2.0560" font-size="0.0813"><![CDATA[19]]></text>
        <text font-family="Arial" fill="#000000" style="white-space:pre;" font-weight="400" text-anchor="start" x="25.3027" y="2.0560" font-size="0.0813"><![CDATA[21]]></text>
        <text font-family="Arial" fill="#000000" style="white-space:pre;" font-weight="400" text-anchor="start" x="25.7768" y="2.0560" font-size="0.0813"><![CDATA[23]]></text>
        <text font-family="Arial" fill="#000000" style="white-space:pre;" font-weight="400" text-anchor="start" x="26.2915" y="2.0560" font-size="0.0813"><![CDATA[25]]></text>
        <text font-family="Arial" fill="#000000" style="white-space:pre;" font-weight="400" text-anchor="start" x="26.7656" y="2.0560" font-size="0.0813"><![CDATA[27]]></text>
        <text font-family="Arial" fill="#000000" style="white-space:pre;" font-weight="400" text-anchor="start" x="27.2329" y="2.0560" font-size="0.0813"><![CDATA[29]]></text>
        <text font-family="Arial" fill="#000000" style="white-space:pre;" font-weight="400" text-anchor="start" x="27.7070" y="2.0560" font-size="0.0813"><![CDATA[31]]></text>
        <text font-family="Arial" fill="#000000" style="white-space:pre;" font-weight="400" text-anchor="start" x="28.1743" y="2.0560" font-size="0.0813"><![CDATA[33]]></text>
        <text font-family="Arial" fill="#000000" style="white-space:pre;" font-weight="400" text-anchor="start" x="28.6484" y="2.0560" font-size="0.0813"><![CDATA[35]]></text>
        <text font-family="Arial" fill="#000000" style="white-space:pre;" font-weight="400" text-anchor="start" x="29.1563" y="2.0560" font-size="0.0813"><![CDATA[37]]></text>
        <text font-family="Arial" fill="#000000" style="white-space:pre;" font-weight="400" text-anchor="start" x="29.6304" y="2.0560" font-size="0.0813"><![CDATA[39]]></text>
        <text font-family="Arial" fill="#000000" style="white-space:pre;" font-weight="400" text-anchor="start" x="30.0977" y="2.0560" font-size="0.0813"><![CDATA[41]]></text>
        <text font-family="Arial" fill="#000000" style="white-space:pre;" font-weight="400" text-anchor="start" x="30.5718" y="2.0560" font-size="0.0813"><![CDATA[43]]></text>
        <text font-family="Arial" fill="#000000" style="white-space:pre;" font-weight="400" text-anchor="start" x="31.0391" y="2.0560" font-size="0.0813"><![CDATA[45]]></text>
        <text font-family="Arial" fill="#000000" style="white-space:pre;" font-weight="400" text-anchor="start" x="31.5132" y="2.0560" font-size="0.0813"><![CDATA[47]]></text>
        <text font-family="Arial" fill="#000000" style="white-space:pre;" font-weight="400" text-anchor="start" x="20.5754" y="3.0788" font-size="0.0813"><![CDATA[2]]></text>
        <text font-family="Arial" fill="#000000" style="white-space:pre;" font-weight="400" text-anchor="start" x="21.0495" y="3.0788" font-size="0.0813"><![CDATA[4]]></text>
        <text font-family="Arial" fill="#000000" style="white-space:pre;" font-weight="400" text-anchor="start" x="21.5168" y="3.0788" font-size="0.0813"><![CDATA[6]]></text>
        <text font-family="Arial" fill="#000000" style="white-space:pre;" font-weight="400" text-anchor="start" x="21.9909" y="3.0788" font-size="0.0813"><![CDATA[8]]></text>
        <text font-family="Arial" fill="#000000" style="white-space:pre;" font-weight="400" text-anchor="start" x="22.4379" y="3.0788" font-size="0.0813"><![CDATA[10]]></text>
        <text font-family="Arial" fill="#000000" style="white-space:pre;" font-weight="400" text-anchor="start" x="22.9119" y="3.0788" font-size="0.0813"><![CDATA[12]]></text>
        <text font-family="Arial" fill="#000000" style="white-space:pre;" font-weight="400" text-anchor="start" x="23.4199" y="3.0788" font-size="0.0813"><![CDATA[14]]></text>
        <text font-family="Arial" fill="#000000" style="white-space:pre;" font-weight="400" text-anchor="start" x="23.8940" y="3.0788" font-size="0.0813"><![CDATA[16]]></text>
        <text font-family="Arial" fill="#000000" style="white-space:pre;" font-weight="400" text-anchor="start" x="24.3613" y="3.0788" font-size="0.0813"><![CDATA[18]]></text>
        <text font-family="Arial" fill="#000000" style="white-space:pre;" font-weight="400" text-anchor="start" x="24.8354" y="3.0788" font-size="0.0813"><![CDATA[20]]></text>
        <text font-family="Arial" fill="#000000" style="white-space:pre;" font-weight="400" text-anchor="start" x="25.3027" y="3.0788" font-size="0.0813"><![CDATA[22]]></text>
        <text font-family="Arial" fill="#000000" style="white-space:pre;" font-weight="400" text-anchor="start" x="25.7768" y="3.0788" font-size="0.0813"><![CDATA[24]]></text>
        <text font-family="Arial" fill="#000000" style="white-space:pre;" font-weight="400" text-anchor="start" x="26.2915" y="3.0788" font-size="0.0813"><![CDATA[26]]></text>
        <text font-family="Arial" fill="#000000" style="white-space:pre;" font-weight="400" text-anchor="start" x="26.7656" y="3.0788" font-size="0.0813"><![CDATA[28]]></text>
        <text font-family="Arial" fill="#000000" style="white-space:pre;" font-weight="400" text-anchor="start" x="27.2329" y="3.0788" font-size="0.0813"><![CDATA[30]]></text>
        <text font-family="Arial" fill="#000000" style="white-space:pre;" font-weight="400" text-anchor="start" x="27.7070" y="3.0788" font-size="0.0813"><![CDATA[32]]></text>
        <text font-family="Arial" fill="#000000" style="white-space:pre;" font-weight="400" text-anchor="start" x="28.1743" y="3.0788" font-size="0.0813"><![CDATA[34]]></text>
        <text font-family="Arial" fill="#000000" style="white-space:pre;" font-weight="400" text-anchor="start" x="28.6484" y="3.0788" font-size="0.0813"><![CDATA[36]]></text>
        <text font-family="Arial" fill="#000000" style="white-space:pre;" font-weight="400" text-anchor="start" x="29.1563" y="3.0788" font-size="0.0813"><![CDATA[38]]></text>
        <text font-family="Arial" fill="#000000" style="white-space:pre;" font-weight="400" text-anchor="start" x="29.6304" y="3.0788" font-size="0.0813"><![CDATA[40]]></text>
        <text font-family="Arial" fill="#000000" style="white-space:pre;" font-weight="400" text-anchor="start" x="30.0977" y="3.0788" font-size="0.0813"><![CDATA[42]]></text>
        <text font-family="Arial" fill="#000000" style="white-space:pre;" font-weight="400" text-anchor="start" x="30.5718" y="3.0788" font-size="0.0813"><![CDATA[44]]></text>
        <text font-family="Arial" fill="#000000" style="white-space:pre;" font-weight="400" text-anchor="start" x="31.0391" y="3.0788" font-size="0.0813"><![CDATA[46]]></text>
        <text font-family="Arial" fill="#000000" style="white-space:pre;" font-weight="400" text-anchor="start" x="31.5132" y="3.0788" font-size="0.0813"><![CDATA[48]]></text>
        <path d="M 9.7935,7.0407 L 9.2590,7.0407 L 9.2590,7.5771 L 9.7935,7.5771 L 9.7935,7.0407 Z" stroke="#000000" stroke-width="0.1198" stroke-linecap="round" stroke-linejoin="round" fill="#00FF00"/>
        <text font-family="Arial" fill="#000000" style="white-space:pre;" font-weight="400" text-anchor="start" x="12.6393" y="9.7881" font-size="0.1470"><![CDATA[PWR]]></text>
        <text font-family="Arial" fill="#000000" style="white-space:pre;" font-weight="400" text-anchor="start" x="12.6259" y="9.9624" font-size="0.1470"><![CDATA[/SYS]]></text>
        <text font-family="Arial" fill="#000000" style="white-space:pre;" font-weight="400" text-anchor="start" x="14.0689" y="10.2695" font-size="0.1603"><![CDATA[CONSOLE]]></text>
        <path d="M 44.4680,2.7034 L 43.6553,2.7034 L 43.6553,3.0153 L 44.4680,3.0153 L 44.4680,2.7034 Z" stroke="#000000" stroke-width="0.1198" stroke-linecap="round" stroke-linejoin="round" fill="#83FF00"/>
        <path d="M 47.2255,2.7034 L 46.4128,2.7034 L 46.4128,3.0153 L 47.2255,3.0153 L 47.2255,2.7034 Z" stroke="#000000" stroke-width="0.1198" stroke-linecap="round" stroke-linejoin="round" fill="#83FF00"/>
        <path d="M 44.4680,8.7861 L 43.6553,8.7861 L 43.6553,9.0980 L 44.4680,9.0980 L 44.4680,8.7861 Z" stroke="#000000" stroke-width="0.1198" stroke-linecap="round" stroke-linejoin="round" fill="#83FF00"/>
        <path d="M 47.2255,8.7861 L 46.4128,8.7861 L 46.4128,9.0980 L 47.2255,9.0980 L 47.2255,8.7861 Z" stroke="#000000" stroke-width="0.1198" stroke-linecap="round" stroke-linejoin="round" fill="#83FF00"/>
        <path d="M 48.4011,2.7034 L 47.5884,2.7034 L 47.5884,3.0153 L 48.4011,3.0153 L 48.4011,2.7034 Z" stroke="#000000" stroke-width="0.1198" stroke-linecap="round" stroke-linejoin="round" fill="#83FF00"/>
        <path d="M 51.1441,2.7034 L 50.3313,2.7034 L 50.3313,3.0153 L 51.1441,3.0153 L 51.1441,2.7034 Z" stroke="#000000" stroke-width="0.1198" stroke-linecap="round" stroke-linejoin="round" fill="#83FF00"/>
        <path d="M 48.4011,8.7861 L 47.5884,8.7861 L 47.5884,9.0980 L 48.4011,9.0980 L 48.4011,8.7861 Z" stroke="#000000" stroke-width="0.1198" stroke-linecap="round" stroke-linejoin="round" fill="#83FF00"/>
        <path d="M 51.1441,8.7861 L 50.3313,8.7861 L 50.3313,9.0980 L 51.1441,9.0980 L 51.1441,8.7861 Z" stroke="#000000" stroke-width="0.1198" stroke-linecap="round" stroke-linejoin="round" fill="#83FF00"/>
        <path d="M 52.2761,2.7034 L 51.4633,2.7034 L 51.4633,3.0153 L 52.2761,3.0153 L 52.2761,2.7034 Z" stroke="#000000" stroke-width="0.1198" stroke-linecap="round" stroke-linejoin="round" fill="#83FF00"/>
        <path d="M 55.0190,2.7034 L 54.2063,2.7034 L 54.2063,3.0153 L 55.0190,3.0153 L 55.0190,2.7034 Z" stroke="#000000" stroke-width="0.1198" stroke-linecap="round" stroke-linejoin="round" fill="#83FF00"/>
        <path d="M 52.2761,8.7861 L 51.4633,8.7861 L 51.4633,9.0980 L 52.2761,9.0980 L 52.2761,8.7861 Z" stroke="#000000" stroke-width="0.1198" stroke-linecap="round" stroke-linejoin="round" fill="#83FF00"/>
        <path d="M 55.0190,8.7861 L 54.2063,8.7861 L 54.2063,9.0980 L 55.0190,9.0980 L 55.0190,8.7861 Z" stroke="#000000" stroke-width="0.1198" stroke-linecap="round" stroke-linejoin="round" fill="#83FF00"/>
        <path d="M 56.1946,2.7034 L 55.3819,2.7034 L 55.3819,3.0153 L 56.1946,3.0153 L 56.1946,2.7034 Z" stroke="#000000" stroke-width="0.1198" stroke-linecap="round" stroke-linejoin="round" fill="#83FF00"/>
        <path d="M 58.9521,2.7034 L 58.1394,2.7034 L 58.1394,3.0153 L 58.9521,3.0153 L 58.9521,2.7034 Z" stroke="#000000" stroke-width="0.1198" stroke-linecap="round" stroke-linejoin="round" fill="#83FF00"/>
        <path d="M 56.1946,8.7861 L 55.3819,8.7861 L 55.3819,9.0980 L 56.1946,9.0980 L 56.1946,8.7861 Z" stroke="#000000" stroke-width="0.1198" stroke-linecap="round" stroke-linejoin="round" fill="#83FF00"/>
        <path d="M 58.9521,8.7861 L 58.1394,8.7861 L 58.1394,9.0980 L 58.9521,9.0980 L 58.9521,8.7861 Z" stroke="#000000" stroke-width="0.1198" stroke-linecap="round" stroke-linejoin="round" fill="#83FF00"/>
        <path d="M 60.0696,2.7034 L 59.2569,2.7034 L 59.2569,3.0153 L 60.0696,3.0153 L 60.0696,2.7034 Z" stroke="#000000" stroke-width="0.1198" stroke-linecap="round" stroke-linejoin="round" fill="#83FF00"/>
        <path d="M 62.8271,2.7034 L 62.0143,2.7034 L 62.0143,3.0153 L 62.8271,3.0153 L 62.8271,2.7034 Z" stroke="#000000" stroke-width="0.1198" stroke-linecap="round" stroke-linejoin="round" fill="#83FF00"/>
        <path d="M 60.0696,8.7861 L 59.2569,8.7861 L 59.2569,9.0980 L 60.0696,9.0980 L 60.0696,8.7861 Z" stroke="#000000" stroke-width="0.1198" stroke-linecap="round" stroke-linejoin="round" fill="#83FF00"/>
        <path d="M 62.8271,8.7861 L 62.0143,8.7861 L 62.0143,9.0980 L 62.8271,9.0980 L 62.8271,8.7861 Z" stroke="#000000" stroke-width="0.1198" stroke-linecap="round" stroke-linejoin="round" fill="#83FF00"/>
        <path d="M 64.0026,2.7034 L 63.1899,2.7034 L 63.1899,3.0153 L 64.0026,3.0153 L 64.0026,2.7034 Z" stroke="#000000" stroke-width="0.1198" stroke-linecap="round" stroke-linejoin="round" fill="#83FF00"/>
        <path d="M 66.7456,2.7034 L 65.9329,2.7034 L 65.9329,3.0153 L 66.7456,3.0153 L 66.7456,2.7034 Z" stroke="#000000" stroke-width="0.1198" stroke-linecap="round" stroke-linejoin="round" fill="#83FF00"/>
        <path d="M 64.0026,8.7861 L 63.1899,8.7861 L 63.1899,9.0980 L 64.0026,9.0980 L 64.0026,8.7861 Z" stroke="#000000" stroke-width="0.1198" stroke-linecap="round" stroke-linejoin="round" fill="#83FF00"/>
        <path d="M 66.7456,8.7861 L 65.9329,8.7861 L 65.9329,9.0980 L 66.7456,9.0980 L 66.7456,8.7861 Z" stroke="#000000" stroke-width="0.1198" stroke-linecap="round" stroke-linejoin="round" fill="#83FF00"/>
        <path d="M 20.7392,2.7034 L 19.9264,2.7034 L 19.9264,3.0153 L 20.7392,3.0153 L 20.7392,2.7034 Z" stroke="#000000" stroke-width="0.1198" stroke-linecap="round" stroke-linejoin="round" fill="#83FF00"/>
        <path d="M 23.4821,2.7034 L 22.6694,2.7034 L 22.6694,3.0153 L 23.4821,3.0153 L 23.4821,2.7034 Z" stroke="#000000" stroke-width="0.1198" stroke-linecap="round" stroke-linejoin="round" fill="#83FF00"/>
        <path d="M 20.7392,8.7861 L 19.9264,8.7861 L 19.9264,9.0980 L 20.7392,9.0980 L 20.7392,8.7861 Z" stroke="#000000" stroke-width="0.1198" stroke-linecap="round" stroke-linejoin="round" fill="#83FF00"/>
        <path d="M 23.4821,8.7861 L 22.6694,8.7861 L 22.6694,9.0980 L 23.4821,9.0980 L 23.4821,8.7861 Z" stroke="#000000" stroke-width="0.1198" stroke-linecap="round" stroke-linejoin="round" fill="#83FF00"/>
        <path d="M 24.6577,2.7034 L 23.8450,2.7034 L 23.8450,3.0153 L 24.6577,3.0153 L 24.6577,2.7034 Z" stroke="#000000" stroke-width="0.1198" stroke-linecap="round" stroke-linejoin="round" fill="#83FF00"/>
        <path d="M 27.4152,2.7034 L 26.6025,2.7034 L 26.6025,3.0153 L 27.4152,3.0153 L 27.4152,2.7034 Z" stroke="#000000" stroke-width="0.1198" stroke-linecap="round" stroke-linejoin="round" fill="#83FF00"/>
        <path d="M 24.6577,8.7861 L 23.8450,8.7861 L 23.8450,9.0980 L 24.6577,9.0980 L 24.6577,8.7861 Z" stroke="#000000" stroke-width="0.1198" stroke-linecap="round" stroke-linejoin="round" fill="#83FF00"/>
        <path d="M 27.4152,8.7861 L 26.6025,8.7861 L 26.6025,9.0980 L 27.4152,9.0980 L 27.4152,8.7861 Z" stroke="#000000" stroke-width="0.1198" stroke-linecap="round" stroke-linejoin="round" fill="#83FF00"/>
        <path d="M 28.5327,2.7034 L 27.7200,2.7034 L 27.7200,3.0153 L 28.5327,3.0153 L 28.5327,2.7034 Z" stroke="#000000" stroke-width="0.1198" stroke-linecap="round" stroke-linejoin="round" fill="#83FF00"/>
        <path d="M 31.2902,2.7034 L 30.4774,2.7034 L 30.4774,3.0153 L 31.2902,3.0153 L 31.2902,2.7034 Z" stroke="#000000" stroke-width="0.1198" stroke-linecap="round" stroke-linejoin="round" fill="#83FF00"/>
        <path d="M 28.5327,8.7861 L 27.7200,8.7861 L 27.7200,9.0980 L 28.5327,9.0980 L 28.5327,8.7861 Z" stroke="#000000" stroke-width="0.1198" stroke-linecap="round" stroke-linejoin="round" fill="#83FF00"/>
        <path d="M 31.2902,8.7861 L 30.4774,8.7861 L 30.4774,9.0980 L 31.2902,9.0980 L 31.2902,8.7861 Z" stroke="#000000" stroke-width="0.1198" stroke-linecap="round" stroke-linejoin="round" fill="#83FF00"/>
        <path d="M 32.4657,2.7034 L 31.6530,2.7034 L 31.6530,3.0153 L 32.4657,3.0153 L 32.4657,2.7034 Z" stroke="#000000" stroke-width="0.1198" stroke-linecap="round" stroke-linejoin="round" fill="#83FF00"/>
        <path d="M 35.2087,2.7034 L 34.3960,2.7034 L 34.3960,3.0153 L 35.2087,3.0153 L 35.2087,2.7034 Z" stroke="#000000" stroke-width="0.1198" stroke-linecap="round" stroke-linejoin="round" fill="#83FF00"/>
        <path d="M 32.4657,8.7861 L 31.6530,8.7861 L 31.6530,9.0980 L 32.4657,9.0980 L 32.4657,8.7861 Z" stroke="#000000" stroke-width="0.1198" stroke-linecap="round" stroke-linejoin="round" fill="#83FF00"/>
        <path d="M 35.2087,8.7861 L 34.3960,8.7861 L 34.3960,9.0980 L 35.2087,9.0980 L 35.2087,8.7861 Z" stroke="#000000" stroke-width="0.1198" stroke-linecap="round" stroke-linejoin="round" fill="#83FF00"/>
        <path d="M 36.3407,2.7034 L 35.5280,2.7034 L 35.5280,3.0153 L 36.3407,3.0153 L 36.3407,2.7034 Z" stroke="#000000" stroke-width="0.1198" stroke-linecap="round" stroke-linejoin="round" fill="#83FF00"/>
        <path d="M 39.0837,2.7034 L 38.2710,2.7034 L 38.2710,3.0153 L 39.0837,3.0153 L 39.0837,2.7034 Z" stroke="#000000" stroke-width="0.1198" stroke-linecap="round" stroke-linejoin="round" fill="#83FF00"/>
        <path d="M 36.3407,8.7861 L 35.5280,8.7861 L 35.5280,9.0980 L 36.3407,9.0980 L 36.3407,8.7861 Z" stroke="#000000" stroke-width="0.1198" stroke-linecap="round" stroke-linejoin="round" fill="#83FF00"/>
        <path d="M 39.0837,8.7861 L 38.2710,8.7861 L 38.2710,9.0980 L 39.0837,9.0980 L 39.0837,8.7861 Z" stroke="#000000" stroke-width="0.1198" stroke-linecap="round" stroke-linejoin="round" fill="#83FF00"/>
        <path d="M 40.2593,2.7034 L 39.4465,2.7034 L 39.4465,3.0153 L 40.2593,3.0153 L 40.2593,2.7034 Z" stroke="#000000" stroke-width="0.1198" stroke-linecap="round" stroke-linejoin="round" fill="#83FF00"/>
        <path d="M 43.0167,2.7034 L 42.2040,2.7034 L 42.2040,3.0153 L 43.0167,3.0153 L 43.0167,2.7034 Z" stroke="#000000" stroke-width="0.1198" stroke-linecap="round" stroke-linejoin="round" fill="#83FF00"/>
        <path d="M 40.2593,8.7861 L 39.4465,8.7861 L 39.4465,9.0980 L 40.2593,9.0980 L 40.2593,8.7861 Z" stroke="#000000" stroke-width="0.1198" stroke-linecap="round" stroke-linejoin="round" fill="#83FF00"/>
        <path d="M 43.0167,8.7861 L 42.2040,8.7861 L 42.2040,9.0980 L 43.0167,9.0980 L 43.0167,8.7861 Z" stroke="#000000" stroke-width="0.1198" stroke-linecap="round" stroke-linejoin="round" fill="#83FF00"/>
        <path d="M 68.2695,2.7034 L 67.4567,2.7034 L 67.4567,3.0153 L 68.2695,3.0153 L 68.2695,2.7034 Z" stroke="#000000" stroke-width="0.1198" stroke-linecap="round" stroke-linejoin="round" fill="#83FF00"/>
        <path d="M 71.0124,2.7034 L 70.1997,2.7034 L 70.1997,3.0153 L 71.0124,3.0153 L 71.0124,2.7034 Z" stroke="#000000" stroke-width="0.1198" stroke-linecap="round" stroke-linejoin="round" fill="#83FF00"/>
        <path d="M 68.2695,8.7861 L 67.4567,8.7861 L 67.4567,9.0980 L 68.2695,9.0980 L 68.2695,8.7861 Z" stroke="#000000" stroke-width="0.1198" stroke-linecap="round" stroke-linejoin="round" fill="#83FF00"/>
        <path d="M 71.0124,8.7861 L 70.1997,8.7861 L 70.1997,9.0980 L 71.0124,9.0980 L 71.0124,8.7861 Z" stroke="#000000" stroke-width="0.1198" stroke-linecap="round" stroke-linejoin="round" fill="#83FF00"/>
        <path d="M 72.1880,2.7034 L 71.3753,2.7034 L 71.3753,3.0153 L 72.1880,3.0153 L 72.1880,2.7034 Z" stroke="#000000" stroke-width="0.1198" stroke-linecap="round" stroke-linejoin="round" fill="#83FF00"/>
        <path d="M 74.9455,2.7034 L 74.1328,2.7034 L 74.1328,3.0153 L 74.9455,3.0153 L 74.9455,2.7034 Z" stroke="#000000" stroke-width="0.1198" stroke-linecap="round" stroke-linejoin="round" fill="#83FF00"/>
        <path d="M 72.1880,8.7861 L 71.3753,8.7861 L 71.3753,9.0980 L 72.1880,9.0980 L 72.1880,8.7861 Z" stroke="#000000" stroke-width="0.1198" stroke-linecap="round" stroke-linejoin="round" fill="#83FF00"/>
        <path d="M 74.9455,8.7861 L 74.1328,8.7861 L 74.1328,9.0980 L 74.9455,9.0980 L 74.9455,8.7861 Z" stroke="#000000" stroke-width="0.1198" stroke-linecap="round" stroke-linejoin="round" fill="#83FF00"/>
        <path d="M 76.0630,2.7034 L 75.2503,2.7034 L 75.2503,3.0153 L 76.0630,3.0153 L 76.0630,2.7034 Z" stroke="#000000" stroke-width="0.1198" stroke-linecap="round" stroke-linejoin="round" fill="#83FF00"/>
        <path d="M 78.8205,2.7034 L 78.0077,2.7034 L 78.0077,3.0153 L 78.8205,3.0153 L 78.8205,2.7034 Z" stroke="#000000" stroke-width="0.1198" stroke-linecap="round" stroke-linejoin="round" fill="#83FF00"/>
        <path d="M 76.0630,8.7861 L 75.2503,8.7861 L 75.2503,9.0980 L 76.0630,9.0980 L 76.0630,8.7861 Z" stroke="#000000" stroke-width="0.1198" stroke-linecap="round" stroke-linejoin="round" fill="#83FF00"/>
        <path d="M 78.8205,8.7861 L 78.0077,8.7861 L 78.0077,9.0980 L 78.8205,9.0980 L 78.8205,8.7861 Z" stroke="#000000" stroke-width="0.1198" stroke-linecap="round" stroke-linejoin="round" fill="#83FF00"/>
        <path d="M 79.9960,2.7034 L 79.1833,2.7034 L 79.1833,3.0153 L 79.9960,3.0153 L 79.9960,2.7034 Z" stroke="#000000" stroke-width="0.1198" stroke-linecap="round" stroke-linejoin="round" fill="#83FF00"/>
        <path d="M 82.7390,2.7034 L 81.9263,2.7034 L 81.9263,3.0153 L 82.7390,3.0153 L 82.7390,2.7034 Z" stroke="#000000" stroke-width="0.1198" stroke-linecap="round" stroke-linejoin="round" fill="#83FF00"/>
        <path d="M 79.9960,8.7861 L 79.1833,8.7861 L 79.1833,9.0980 L 79.9960,9.0980 L 79.9960,8.7861 Z" stroke="#000000" stroke-width="0.1198" stroke-linecap="round" stroke-linejoin="round" fill="#83FF00"/>
        <path d="M 82.7390,8.7861 L 81.9263,8.7861 L 81.9263,9.0980 L 82.7390,9.0980 L 82.7390,8.7861 Z" stroke="#000000" stroke-width="0.1198" stroke-linecap="round" stroke-linejoin="round" fill="#83FF00"/>
        <path d="M 83.8710,2.7034 L 83.0583,2.7034 L 83.0583,3.0153 L 83.8710,3.0153 L 83.8710,2.7034 Z" stroke="#000000" stroke-width="0.1198" stroke-linecap="round" stroke-linejoin="round" fill="#83FF00"/>
        <path d="M 86.6140,2.7034 L 85.8013,2.7034 L 85.8013,3.0153 L 86.6140,3.0153 L 86.6140,2.7034 Z" stroke="#000000" stroke-width="0.1198" stroke-linecap="round" stroke-linejoin="round" fill="#83FF00"/>
        <path d="M 83.8710,8.7861 L 83.0583,8.7861 L 83.0583,9.0980 L 83.8710,9.0980 L 83.8710,8.7861 Z" stroke="#000000" stroke-width="0.1198" stroke-linecap="round" stroke-linejoin="round" fill="#83FF00"/>
        <path d="M 86.6140,8.7861 L 85.8013,8.7861 L 85.8013,9.0980 L 86.6140,9.0980 L 86.6140,8.7861 Z" stroke="#000000" stroke-width="0.1198" stroke-linecap="round" stroke-linejoin="round" fill="#83FF00"/>
        <path d="M 87.7896,2.7034 L 86.9768,2.7034 L 86.9768,3.0153 L 87.7896,3.0153 L 87.7896,2.7034 Z" stroke="#000000" stroke-width="0.1198" stroke-linecap="round" stroke-linejoin="round" fill="#83FF00"/>
        <path d="M 90.5470,2.7034 L 89.7343,2.7034 L 89.7343,3.0153 L 90.5470,3.0153 L 90.5470,2.7034 Z" stroke="#000000" stroke-width="0.1198" stroke-linecap="round" stroke-linejoin="round" fill="#83FF00"/>
        <path d="M 87.7896,8.7861 L 86.9768,8.7861 L 86.9768,9.0980 L 87.7896,9.0980 L 87.7896,8.7861 Z" stroke="#000000" stroke-width="0.1198" stroke-linecap="round" stroke-linejoin="round" fill="#83FF00"/>
        <path d="M 90.5470,8.7861 L 89.7343,8.7861 L 89.7343,9.0980 L 90.5470,9.0980 L 90.5470,8.7861 Z" stroke="#000000" stroke-width="0.1198" stroke-linecap="round" stroke-linejoin="round" fill="#83FF00"/>
        <path d="M 91.9983,2.7034 L 91.1856,2.7034 L 91.1856,3.0153 L 91.9983,3.0153 L 91.9983,2.7034 Z" stroke="#000000" stroke-width="0.1198" stroke-linecap="round" stroke-linejoin="round" fill="#83FF00"/>
        <path d="M 94.7558,2.7034 L 93.9431,2.7034 L 93.9431,3.0153 L 94.7558,3.0153 L 94.7558,2.7034 Z" stroke="#000000" stroke-width="0.1198" stroke-linecap="round" stroke-linejoin="round" fill="#83FF00"/>
        <path d="M 91.9983,8.7861 L 91.1856,8.7861 L 91.1856,9.0980 L 91.9983,9.0980 L 91.9983,8.7861 Z" stroke="#000000" stroke-width="0.1198" stroke-linecap="round" stroke-linejoin="round" fill="#83FF00"/>
        <path d="M 94.7558,8.7861 L 93.9431,8.7861 L 93.9431,9.0980 L 94.7558,9.0980 L 94.7558,8.7861 Z" stroke="#000000" stroke-width="0.1198" stroke-linecap="round" stroke-linejoin="round" fill="#83FF00"/>
        <path d="M 95.9314,2.7034 L 95.1187,2.7034 L 95.1187,3.0153 L 95.9314,3.0153 L 95.9314,2.7034 Z" stroke="#000000" stroke-width="0.1198" stroke-linecap="round" stroke-linejoin="round" fill="#83FF00"/>
        <path d="M 98.6744,2.7034 L 97.8616,2.7034 L 97.8616,3.0153 L 98.6744,3.0153 L 98.6744,2.7034 Z" stroke="#000000" stroke-width="0.1198" stroke-linecap="round" stroke-linejoin="round" fill="#83FF00"/>
        <path d="M 95.9314,8.7861 L 95.1187,8.7861 L 95.1187,9.0980 L 95.9314,9.0980 L 95.9314,8.7861 Z" stroke="#000000" stroke-width="0.1198" stroke-linecap="round" stroke-linejoin="round" fill="#83FF00"/>
        <path d="M 98.6744,8.7861 L 97.8616,8.7861 L 97.8616,9.0980 L 98.6744,9.0980 L 98.6744,8.7861 Z" stroke="#000000" stroke-width="0.1198" stroke-linecap="round" stroke-linejoin="round" fill="#83FF00"/>
        <path d="M 99.8064,2.7034 L 98.9936,2.7034 L 98.9936,3.0153 L 99.8064,3.0153 L 99.8064,2.7034 Z" stroke="#000000" stroke-width="0.1198" stroke-linecap="round" stroke-linejoin="round" fill="#83FF00"/>
        <path d="M 102.5493,2.7034 L 101.7366,2.7034 L 101.7366,3.0153 L 102.5493,3.0153 L 102.5493,2.7034 Z" stroke="#000000" stroke-width="0.1198" stroke-linecap="round" stroke-linejoin="round" fill="#83FF00"/>
        <path d="M 99.8064,8.7861 L 98.9936,8.7861 L 98.9936,9.0980 L 99.8064,9.0980 L 99.8064,8.7861 Z" stroke="#000000" stroke-width="0.1198" stroke-linecap="round" stroke-linejoin="round" fill="#83FF00"/>
        <path d="M 102.5493,8.7861 L 101.7366,8.7861 L 101.7366,9.0980 L 102.5493,9.0980 L 102.5493,8.7861 Z" stroke="#000000" stroke-width="0.1198" stroke-linecap="round" stroke-linejoin="round" fill="#83FF00"/>
        <path d="M 103.7249,2.7034 L 102.9122,2.7034 L 102.9122,3.0153 L 103.7249,3.0153 L 103.7249,2.7034 Z" stroke="#000000" stroke-width="0.1198" stroke-linecap="round" stroke-linejoin="round" fill="#83FF00"/>
        <path d="M 106.4824,2.7034 L 105.6697,2.7034 L 105.6697,3.0153 L 106.4824,3.0153 L 106.4824,2.7034 Z" stroke="#000000" stroke-width="0.1198" stroke-linecap="round" stroke-linejoin="round" fill="#83FF00"/>
        <path d="M 103.7249,8.7861 L 102.9122,8.7861 L 102.9122,9.0980 L 103.7249,9.0980 L 103.7249,8.7861 Z" stroke="#000000" stroke-width="0.1198" stroke-linecap="round" stroke-linejoin="round" fill="#83FF00"/>
        <path d="M 106.4824,8.7861 L 105.6697,8.7861 L 105.6697,9.0980 L 106.4824,9.0980 L 106.4824,8.7861 Z" stroke="#000000" stroke-width="0.1198" stroke-linecap="round" stroke-linejoin="round" fill="#83FF00"/>
        <path d="M 107.5999,2.7034 L 106.7872,2.7034 L 106.7872,3.0153 L 107.5999,3.0153 L 107.5999,2.7034 Z" stroke="#000000" stroke-width="0.1198" stroke-linecap="round" stroke-linejoin="round" fill="#83FF00"/>
        <path d="M 110.3574,2.7034 L 109.5446,2.7034 L 109.5446,3.0153 L 110.3574,3.0153 L 110.3574,2.7034 Z" stroke="#000000" stroke-width="0.1198" stroke-linecap="round" stroke-linejoin="round" fill="#83FF00"/>
        <path d="M 107.5999,8.7861 L 106.7872,8.7861 L 106.7872,9.0980 L 107.5999,9.0980 L 107.5999,8.7861 Z" stroke="#000000" stroke-width="0.1198" stroke-linecap="round" stroke-linejoin="round" fill="#83FF00"/>
        <path d="M 110.3574,8.7861 L 109.5446,8.7861 L 109.5446,9.0980 L 110.3574,9.0980 L 110.3574,8.7861 Z" stroke="#000000" stroke-width="0.1198" stroke-linecap="round" stroke-linejoin="round" fill="#83FF00"/>
        <path d="M 111.5329,2.7034 L 110.7202,2.7034 L 110.7202,3.0153 L 111.5329,3.0153 L 111.5329,2.7034 Z" stroke="#000000" stroke-width="0.1198" stroke-linecap="round" stroke-linejoin="round" fill="#83FF00"/>
        <path d="M 114.2759,2.7034 L 113.4632,2.7034 L 113.4632,3.0153 L 114.2759,3.0153 L 114.2759,2.7034 Z" stroke="#000000" stroke-width="0.1198" stroke-linecap="round" stroke-linejoin="round" fill="#83FF00"/>
        <path d="M 111.5329,8.7861 L 110.7202,8.7861 L 110.7202,9.0980 L 111.5329,9.0980 L 111.5329,8.7861 Z" stroke="#000000" stroke-width="0.1198" stroke-linecap="round" stroke-linejoin="round" fill="#83FF00"/>
        <path d="M 114.2759,8.7861 L 113.4632,8.7861 L 113.4632,9.0980 L 114.2759,9.0980 L 114.2759,8.7861 Z" stroke="#000000" stroke-width="0.1198" stroke-linecap="round" stroke-linejoin="round" fill="#83FF00"/>
        <path d="M 116.8592,2.7034 L 116.0465,2.7034 L 116.0465,3.0153 L 116.8592,3.0153 L 116.8592,2.7034 Z" stroke="#000000" stroke-width="0.1198" stroke-linecap="round" stroke-linejoin="round" fill="#83FF00"/>
        <path d="M 119.6167,2.7034 L 118.8040,2.7034 L 118.8040,3.0153 L 119.6167,3.0153 L 119.6167,2.7034 Z" stroke="#000000" stroke-width="0.1198" stroke-linecap="round" stroke-linejoin="round" fill="#83FF00"/>
        <path d="M 116.8592,8.7861 L 116.0465,8.7861 L 116.0465,9.0980 L 116.8592,9.0980 L 116.8592,8.7861 Z" stroke="#000000" stroke-width="0.1198" stroke-linecap="round" stroke-linejoin="round" fill="#83FF00"/>
        <path d="M 119.6167,8.7861 L 118.8040,8.7861 L 118.8040,9.0980 L 119.6167,9.0980 L 119.6167,8.7861 Z" stroke="#000000" stroke-width="0.1198" stroke-linecap="round" stroke-linejoin="round" fill="#83FF00"/>
        <ellipse cx="121.0276" cy="4.4936" rx="0.2626" ry="0.2635" fill="#00FF00" stroke="#000000" stroke-width="0.1198" stroke-linecap="round" stroke-linejoin="round"/>
        <ellipse cx="121.0276" cy="4.4936" rx="0.2626" ry="0.2635" fill="none" stroke="#000000" stroke-width="0.1198" stroke-linecap="round" stroke-linejoin="round"/>
        <ellipse cx="121.0276" cy="8.5548" rx="0.2626" ry="0.2703" fill="#00FF00" stroke="#000000" stroke-width="0.1198" stroke-linecap="round" stroke-linejoin="round"/>
        <ellipse cx="121.0276" cy="8.5548" rx="0.2626" ry="0.2703" fill="none" stroke="#000000" stroke-width="0.1198" stroke-linecap="round" stroke-linejoin="round"/>
        <path d="M 11.0624,8.5054 L 11.0624,8.4418 L 11.0828,8.4418 L 11.0828,8.3994 L 11.1033,8.3782 L 11.1033,8.3570 L 11.1237,8.3570 L 11.1237,8.3358 L 11.1442,8.3358 L 11.1442,8.3146 L 11.1646,8.3146 L 11.1851,8.2933 L 11.2055,8.2933 L 11.2260,8.2721 L 13.2708,8.2721 L 13.2912,8.2933 L 13.3117,8.2933 L 13.3321,8.3146 L 13.3526,8.3146 L 13.3526,8.3358 L 13.3730,8.3358 L 13.3730,8.3570 L 13.3935,8.3570 L 13.3935,8.3782 L 13.4139,8.3994 L 13.4139,8.4418 L 13.4344,8.4418 L 13.4344,8.8872 L 13.2708,9.0569 L 13.2708,9.3963 L 13.2503,9.4175 L 13.2503,9.4387 L 13.2299,9.4387 L 13.2299,9.4599 L 13.2094,9.4599 L 13.2094,9.4811 L 13.1890,9.4811 L 13.1890,9.5023 L 13.1481,9.5023 L 13.1481,9.5236 L 11.3487,9.5236 L 11.3487,9.5023 L 11.3078,9.5023 L 11.3078,9.4811 L 11.2873,9.4811 L 11.2873,9.4599 L 11.2669,9.4599 L 11.2669,9.4387 L 11.2464,9.4387 L 11.2464,9.4175 L 11.2260,9.3963 L 11.2260,9.0569 L 11.0624,8.8872 L 11.0624,8.5267 L 11.0624,8.5054 Z" stroke="#7F7F7F" stroke-width="0.1198" stroke-linecap="round" stroke-linejoin="round" fill="#BFBFBF"/>
        <path d="M 13.3526,8.8660 L 13.1890,9.0357 L 13.1890,9.3539 L 13.1685,9.3751 L 13.1685,9.3963 L 13.1481,9.3963 L 13.1277,9.4175 L 13.1072,9.4175 L 13.0868,9.4387 L 11.4100,9.4387 L 11.4100,9.4175 L 11.3691,9.4175 L 11.3487,9.3963 L 11.3282,9.3963 L 11.3282,9.3751 L 11.3078,9.3539 L 11.3078,9.0357 L 11.1442,8.8660 L 11.1442,8.5054 L 11.1646,8.5054 L 11.1646,8.4630 L 11.1851,8.4630 L 11.1851,8.4206 L 11.2055,8.4206 L 11.2055,8.3994 L 11.2464,8.3994 L 11.2464,8.3782 L 11.2669,8.3782 L 11.2873,8.3570 L 13.2094,8.3570 L 13.2299,8.3782 L 13.2503,8.3782 L 13.2503,8.3994 L 13.2912,8.3994 L 13.2912,8.4206 L 13.3117,8.4206 L 13.3117,8.4630 L 13.3321,8.4630 L 13.3321,8.5054 L 13.3526,8.5054 L 13.3526,8.8448 L 13.3526,8.8660 Z" stroke="#000000" stroke-width="0.1198" stroke-linecap="round" stroke-linejoin="round" fill="#161616"/>
        <path d="M 13.0459,8.9509 L 13.0459,8.9084 L 13.0254,8.8660 L 12.9845,8.8448 L 11.5327,8.8448 L 11.4918,8.8660 L 11.4714,8.9084 L 11.4714,9.2478 L 11.4918,9.2902 L 11.5327,9.3114 L 12.9845,9.3114 L 13.0254,9.2902 L 13.0459,9.2478 L 13.0459,9.2054 L 13.0459,8.9509 Z" stroke="#000000" stroke-width="0.1198" stroke-linecap="round" stroke-linejoin="round" fill="#CCCCCC"/>
        <path d="M 11.8394,8.7812 L 11.6349,8.7812 L 11.6349,8.8448 L 11.8394,8.8448 L 11.8394,8.7812 Z" stroke="#000000" stroke-width="0.1198" stroke-linecap="round" stroke-linejoin="round" fill="#D6D6B1"/>
        <path d="M 12.1666,8.7812 L 11.9621,8.7812 L 11.9621,8.8448 L 12.1666,8.8448 L 12.1666,8.7812 Z" stroke="#000000" stroke-width="0.1198" stroke-linecap="round" stroke-linejoin="round" fill="#D6D6B1"/>
        <path d="M 12.5142,8.7812 L 12.3097,8.7812 L 12.3097,8.8448 L 12.5142,8.8448 L 12.5142,8.7812 Z" stroke="#000000" stroke-width="0.1198" stroke-linecap="round" stroke-linejoin="round" fill="#D6D6B1"/>
        <path d="M 12.8414,8.7812 L 12.6369,8.7812 L 12.6369,8.8448 L 12.8414,8.8448 L 12.8414,8.7812 Z" stroke="#000000" stroke-width="0.1198" stroke-linecap="round" stroke-linejoin="round" fill="#D6D6B1"/>
        <path d="M 14.7554,6.2475 L 14.7554,8.3716 L 15.6463,8.3716 L 15.6463,8.8714 L 16.0082,8.8714 L 16.0082,9.3712 L 17.0662,9.3712 L 17.0662,8.8714 L 17.4281,8.8714 L 17.4281,8.3716 L 18.3190,8.3716 L 18.3190,6.2475 L 14.7554,6.2475 Z" stroke="#161616" stroke-width="0.1198" stroke-linecap="round" stroke-linejoin="round" fill="#000000"/>
        <path d="M 19.9198,5.5950 L 19.9198,3.4708 L 20.8107,3.4708 L 20.8107,2.9710 L 21.1726,2.9710 L 21.1726,2.4712 L 22.2306,2.4712 L 22.2306,2.9710 L 22.5925,2.9710 L 22.5925,3.4708 L 23.4834,3.4708 L 23.4834,5.5950 L 19.9198,5.5950 Z" stroke="#161616" stroke-width="0.1198" stroke-linecap="round" stroke-linejoin="round" fill="#000000"/>
        <path d="M 19.9198,6.2475 L 19.9198,8.3716 L 20.8107,8.3716 L 20.8107,8.8714 L 21.1726,8.8714 L 21.1726,9.3712 L 22.2306,9.3712 L 22.2306,8.8714 L 22.5925,8.8714 L 22.5925,8.3716 L 23.4834,8.3716 L 23.4834,6.2475 L 19.9198,6.2475 Z" stroke="#161616" stroke-width="0.1198" stroke-linecap="round" stroke-linejoin="round" fill="#000000"/>
        <path d="M 23.8453,5.5950 L 23.8453,3.4708 L 24.7362,3.4708 L 24.7362,2.9710 L 25.0981,2.9710 L 25.0981,2.4712 L 26.1561,2.4712 L 26.1561,2.9710 L 26.5180,2.9710 L 26.5180,3.4708 L 27.4089,3.4708 L 27.4089,5.5950 L 23.8453,5.5950 Z" stroke="#161616" stroke-width="0.1198" stroke-linecap="round" stroke-linejoin="round" fill="#000000"/>
        <path d="M 23.8453,6.2475 L 23.8453,8.3716 L 24.7362,8.3716 L 24.7362,8.8714 L 25.0981,8.8714 L 25.0981,9.3712 L 26.1561,9.3712 L 26.1561,8.8714 L 26.5180,8.8714 L 26.5180,8.3716 L 27.4089,8.3716 L 27.4089,6.2475 L 23.8453,6.2475 Z" stroke="#161616" stroke-width="0.1198" stroke-linecap="round" stroke-linejoin="round" fill="#000000"/>
        <path d="M 27.7151,5.5950 L 27.7151,3.4708 L 28.6060,3.4708 L 28.6060,2.9710 L 28.9680,2.9710 L 28.9680,2.4712 L 30.0259,2.4712 L 30.0259,2.9710 L 30.3878,2.9710 L 30.3878,3.4708 L 31.2787,3.4708 L 31.2787,5.5950 L 27.7151,5.5950 Z" stroke="#161616" stroke-width="0.1198" stroke-linecap="round" stroke-linejoin="round" fill="#000000"/>
        <path d="M 27.7151,6.2475 L 27.7151,8.3716 L 28.6060,8.3716 L 28.6060,8.8714 L 28.9680,8.8714 L 28.9680,9.3712 L 30.0259,9.3712 L 30.0259,8.8714 L 30.3878,8.8714 L 30.3878,8.3716 L 31.2787,8.3716 L 31.2787,6.2475 L 27.7151,6.2475 Z" stroke="#161616" stroke-width="0.1198" stroke-linecap="round" stroke-linejoin="round" fill="#000000"/>
        <path d="M 31.6546,5.5950 L 31.6546,3.4708 L 32.5455,3.4708 L 32.5455,2.9710 L 32.9074,2.9710 L 32.9074,2.4712 L 33.9653,2.4712 L 33.9653,2.9710 L 34.3272,2.9710 L 34.3272,3.4708 L 35.2181,3.4708 L 35.2181,5.5950 L 31.6546,5.5950 Z" stroke="#161616" stroke-width="0.1198" stroke-linecap="round" stroke-linejoin="round" fill="#000000"/>
        <path d="M 31.6546,6.2475 L 31.6546,8.3716 L 32.5455,8.3716 L 32.5455,8.8714 L 32.9074,8.8714 L 32.9074,9.3712 L 33.9653,9.3712 L 33.9653,8.8714 L 34.3272,8.8714 L 34.3272,8.3716 L 35.2181,8.3716 L 35.2181,6.2475 L 31.6546,6.2475 Z" stroke="#161616" stroke-width="0.1198" stroke-linecap="round" stroke-linejoin="round" fill="#000000"/>
        <path d="M 35.5244,5.5950 L 35.5244,3.4708 L 36.4153,3.4708 L 36.4153,2.9710 L 36.7772,2.9710 L 36.7772,2.4712 L 37.8351,2.4712 L 37.8351,2.9710 L 38.1971,2.9710 L 38.1971,3.4708 L 39.0880,3.4708 L 39.0880,5.5950 L 35.5244,5.5950 Z" stroke="#161616" stroke-width="0.1198" stroke-linecap="round" stroke-linejoin="round" fill="#000000"/>
        <path d="M 35.5244,6.2475 L 35.5244,8.3716 L 36.4153,8.3716 L 36.4153,8.8714 L 36.7772,8.8714 L 36.7772,9.3712 L 37.8351,9.3712 L 37.8351,8.8714 L 38.1971,8.8714 L 38.1971,8.3716 L 39.0880,8.3716 L 39.0880,6.2475 L 35.5244,6.2475 Z" stroke="#161616" stroke-width="0.1198" stroke-linecap="round" stroke-linejoin="round" fill="#000000"/>
        <path d="M 39.4499,5.5950 L 39.4499,3.4708 L 40.3408,3.4708 L 40.3408,2.9710 L 40.7027,2.9710 L 40.7027,2.4712 L 41.7606,2.4712 L 41.7606,2.9710 L 42.1226,2.9710 L 42.1226,3.4708 L 43.0135,3.4708 L 43.0135,5.5950 L 39.4499,5.5950 Z" stroke="#161616" stroke-width="0.1198" stroke-linecap="round" stroke-linejoin="round" fill="#000000"/>
        <path d="M 39.4499,6.2475 L 39.4499,8.3716 L 40.3408,8.3716 L 40.3408,8.8714 L 40.7027,8.8714 L 40.7027,9.3712 L 41.7606,9.3712 L 41.7606,8.8714 L 42.1226,8.8714 L 42.1226,8.3716 L 43.0135,8.3716 L 43.0135,6.2475 L 39.4499,6.2475 Z" stroke="#161616" stroke-width="0.1198" stroke-linecap="round" stroke-linejoin="round" fill="#000000"/>
        <path d="M 43.6538,5.5950 L 43.6538,3.4708 L 44.5447,3.4708 L 44.5447,2.9710 L 44.9066,2.9710 L 44.9066,2.4712 L 45.9645,2.4712 L 45.9645,2.9710 L 46.3265,2.9710 L 46.3265,3.4708 L 47.2174,3.4708 L 47.2174,5.5950 L 43.6538,5.5950 Z" stroke="#161616" stroke-width="0.1198" stroke-linecap="round" stroke-linejoin="round" fill="#000000"/>
        <path d="M 43.6538,6.2475 L 43.6538,8.3716 L 44.5447,8.3716 L 44.5447,8.8714 L 44.9066,8.8714 L 44.9066,9.3712 L 45.9645,9.3712 L 45.9645,8.8714 L 46.3265,8.8714 L 46.3265,8.3716 L 47.2174,8.3716 L 47.2174,6.2475 L 43.6538,6.2475 Z" stroke="#161616" stroke-width="0.1198" stroke-linecap="round" stroke-linejoin="round" fill="#000000"/>
        <path d="M 47.5932,5.5950 L 47.5932,3.4708 L 48.4841,3.4708 L 48.4841,2.9710 L 48.8460,2.9710 L 48.8460,2.4712 L 49.9040,2.4712 L 49.9040,2.9710 L 50.2659,2.9710 L 50.2659,3.4708 L 51.1568,3.4708 L 51.1568,5.5950 L 47.5932,5.5950 Z" stroke="#161616" stroke-width="0.1198" stroke-linecap="round" stroke-linejoin="round" fill="#000000"/>
        <path d="M 47.5932,6.2475 L 47.5932,8.3716 L 48.4841,8.3716 L 48.4841,8.8714 L 48.8460,8.8714 L 48.8460,9.3712 L 49.9040,9.3712 L 49.9040,8.8714 L 50.2659,8.8714 L 50.2659,8.3716 L 51.1568,8.3716 L 51.1568,6.2475 L 47.5932,6.2475 Z" stroke="#161616" stroke-width="0.1198" stroke-linecap="round" stroke-linejoin="round" fill="#000000"/>
        <path d="M 51.4630,5.5950 L 51.4630,3.4708 L 52.3539,3.4708 L 52.3539,2.9710 L 52.7159,2.9710 L 52.7159,2.4712 L 53.7738,2.4712 L 53.7738,2.9710 L 54.1357,2.9710 L 54.1357,3.4708 L 55.0266,3.4708 L 55.0266,5.5950 L 51.4630,5.5950 Z" stroke="#161616" stroke-width="0.1198" stroke-linecap="round" stroke-linejoin="round" fill="#000000"/>
        <path d="M 51.4630,6.2475 L 51.4630,8.3716 L 52.3539,8.3716 L 52.3539,8.8714 L 52.7159,8.8714 L 52.7159,9.3712 L 53.7738,9.3712 L 53.7738,8.8714 L 54.1357,8.8714 L 54.1357,8.3716 L 55.0266,8.3716 L 55.0266,6.2475 L 51.4630,6.2475 Z" stroke="#161616" stroke-width="0.1198" stroke-linecap="round" stroke-linejoin="round" fill="#000000"/>
        <path d="M 55.3885,5.5950 L 55.3885,3.4708 L 56.2794,3.4708 L 56.2794,2.9710 L 56.6414,2.9710 L 56.6414,2.4712 L 57.6993,2.4712 L 57.6993,2.9710 L 58.0612,2.9710 L 58.0612,3.4708 L 58.9521,3.4708 L 58.9521,5.5950 L 55.3885,5.5950 Z" stroke="#161616" stroke-width="0.1198" stroke-linecap="round" stroke-linejoin="round" fill="#000000"/>
        <path d="M 55.3885,6.2475 L 55.3885,8.3716 L 56.2794,8.3716 L 56.2794,8.8714 L 56.6414,8.8714 L 56.6414,9.3712 L 57.6993,9.3712 L 57.6993,8.8714 L 58.0612,8.8714 L 58.0612,8.3716 L 58.9521,8.3716 L 58.9521,6.2475 L 55.3885,6.2475 Z" stroke="#161616" stroke-width="0.1198" stroke-linecap="round" stroke-linejoin="round" fill="#000000"/>
        <path d="M 59.2584,5.5950 L 59.2584,3.4708 L 60.1492,3.4708 L 60.1492,2.9710 L 60.5112,2.9710 L 60.5112,2.4712 L 61.5691,2.4712 L 61.5691,2.9710 L 61.9310,2.9710 L 61.9310,3.4708 L 62.8219,3.4708 L 62.8219,5.5950 L 59.2584,5.5950 Z" stroke="#161616" stroke-width="0.1198" stroke-linecap="round" stroke-linejoin="round" fill="#000000"/>
        <path d="M 59.2584,6.2475 L 59.2584,8.3716 L 60.1492,8.3716 L 60.1492,8.8714 L 60.5112,8.8714 L 60.5112,9.3712 L 61.5691,9.3712 L 61.5691,8.8714 L 61.9310,8.8714 L 61.9310,8.3716 L 62.8219,8.3716 L 62.8219,6.2475 L 59.2584,6.2475 Z" stroke="#161616" stroke-width="0.1198" stroke-linecap="round" stroke-linejoin="round" fill="#000000"/>
        <path d="M 63.1839,5.5950 L 63.1839,3.4708 L 64.0747,3.4708 L 64.0747,2.9710 L 64.4367,2.9710 L 64.4367,2.4712 L 65.4946,2.4712 L 65.4946,2.9710 L 65.8565,2.9710 L 65.8565,3.4708 L 66.7474,3.4708 L 66.7474,5.5950 L 63.1839,5.5950 Z" stroke="#161616" stroke-width="0.1198" stroke-linecap="round" stroke-linejoin="round" fill="#000000"/>
        <path d="M 63.1839,6.2475 L 63.1839,8.3716 L 64.0747,8.3716 L 64.0747,8.8714 L 64.4367,8.8714 L 64.4367,9.3712 L 65.4946,9.3712 L 65.4946,8.8714 L 65.8565,8.8714 L 65.8565,8.3716 L 66.7474,8.3716 L 66.7474,6.2475 L 63.1839,6.2475 Z" stroke="#161616" stroke-width="0.1198" stroke-linecap="round" stroke-linejoin="round" fill="#000000"/>
        <path d="M 67.4574,5.5950 L 67.4574,3.4708 L 68.3483,3.4708 L 68.3483,2.9710 L 68.7102,2.9710 L 68.7102,2.4712 L 69.7681,2.4712 L 69.7681,2.9710 L 70.1300,2.9710 L 70.1300,3.4708 L 71.0209,3.4708 L 71.0209,5.5950 L 67.4574,5.5950 Z" stroke="#161616" stroke-width="0.1198" stroke-linecap="round" stroke-linejoin="round" fill="#000000"/>
        <path d="M 67.4574,6.2475 L 67.4574,8.3716 L 68.3483,8.3716 L 68.3483,8.8714 L 68.7102,8.8714 L 68.7102,9.3712 L 69.7681,9.3712 L 69.7681,8.8714 L 70.1300,8.8714 L 70.1300,8.3716 L 71.0209,8.3716 L 71.0209,6.2475 L 67.4574,6.2475 Z" stroke="#161616" stroke-width="0.1198" stroke-linecap="round" stroke-linejoin="round" fill="#000000"/>
        <path d="M 71.3829,5.5950 L 71.3829,3.4708 L 72.2738,3.4708 L 72.2738,2.9710 L 72.6357,2.9710 L 72.6357,2.4712 L 73.6936,2.4712 L 73.6936,2.9710 L 74.0555,2.9710 L 74.0555,3.4708 L 74.9464,3.4708 L 74.9464,5.5950 L 71.3829,5.5950 Z" stroke="#161616" stroke-width="0.1198" stroke-linecap="round" stroke-linejoin="round" fill="#000000"/>
        <path d="M 71.3829,6.2475 L 71.3829,8.3716 L 72.2738,8.3716 L 72.2738,8.8714 L 72.6357,8.8714 L 72.6357,9.3712 L 73.6936,9.3712 L 73.6936,8.8714 L 74.0555,8.8714 L 74.0555,8.3716 L 74.9464,8.3716 L 74.9464,6.2475 L 71.3829,6.2475 Z" stroke="#161616" stroke-width="0.1198" stroke-linecap="round" stroke-linejoin="round" fill="#000000"/>
        <path d="M 75.2527,5.5950 L 75.2527,3.4708 L 76.1436,3.4708 L 76.1436,2.9710 L 76.5055,2.9710 L 76.5055,2.4712 L 77.5634,2.4712 L 77.5634,2.9710 L 77.9254,2.9710 L 77.9254,3.4708 L 78.8163,3.4708 L 78.8163,5.5950 L 75.2527,5.5950 Z" stroke="#161616" stroke-width="0.1198" stroke-linecap="round" stroke-linejoin="round" fill="#000000"/>
        <path d="M 75.2527,6.2475 L 75.2527,8.3716 L 76.1436,8.3716 L 76.1436,8.8714 L 76.5055,8.8714 L 76.5055,9.3712 L 77.5634,9.3712 L 77.5634,8.8714 L 77.9254,8.8714 L 77.9254,8.3716 L 78.8163,8.3716 L 78.8163,6.2475 L 75.2527,6.2475 Z" stroke="#161616" stroke-width="0.1198" stroke-linecap="round" stroke-linejoin="round" fill="#000000"/>
        <path d="M 79.1782,5.5950 L 79.1782,3.4708 L 80.0691,3.4708 L 80.0691,2.9710 L 80.4310,2.9710 L 80.4310,2.4712 L 81.4889,2.4712 L 81.4889,2.9710 L 81.8509,2.9710 L 81.8509,3.4708 L 82.7418,3.4708 L 82.7418,5.5950 L 79.1782,5.5950 Z" stroke="#161616" stroke-width="0.1198" stroke-linecap="round" stroke-linejoin="round" fill="#000000"/>
        <path d="M 79.1782,6.2475 L 79.1782,8.3716 L 80.0691,8.3716 L 80.0691,8.8714 L 80.4310,8.8714 L 80.4310,9.3712 L 81.4889,9.3712 L 81.4889,8.8714 L 81.8509,8.8714 L 81.8509,8.3716 L 82.7418,8.3716 L 82.7418,6.2475 L 79.1782,6.2475 Z" stroke="#161616" stroke-width="0.1198" stroke-linecap="round" stroke-linejoin="round" fill="#000000"/>
        <path d="M 83.0480,5.5950 L 83.0480,3.4708 L 83.9389,3.4708 L 83.9389,2.9710 L 84.3008,2.9710 L 84.3008,2.4712 L 85.3588,2.4712 L 85.3588,2.9710 L 85.7207,2.9710 L 85.7207,3.4708 L 86.6116,3.4708 L 86.6116,5.5950 L 83.0480,5.5950 Z" stroke="#161616" stroke-width="0.1198" stroke-linecap="round" stroke-linejoin="round" fill="#000000"/>
        <path d="M 83.0480,6.2475 L 83.0480,8.3716 L 83.9389,8.3716 L 83.9389,8.8714 L 84.3008,8.8714 L 84.3008,9.3712 L 85.3588,9.3712 L 85.3588,8.8714 L 85.7207,8.8714 L 85.7207,8.3716 L 86.6116,8.3716 L 86.6116,6.2475 L 83.0480,6.2475 Z" stroke="#161616" stroke-width="0.1198" stroke-linecap="round" stroke-linejoin="round" fill="#000000"/>
        <path d="M 86.9735,5.5950 L 86.9735,3.4708 L 87.8644,3.4708 L 87.8644,2.9710 L 88.2263,2.9710 L 88.2263,2.4712 L 89.2843,2.4712 L 89.2843,2.9710 L 89.6462,2.9710 L 89.6462,3.4708 L 90.5371,3.4708 L 90.5371,5.5950 L 86.9735,5.5950 Z" stroke="#161616" stroke-width="0.1198" stroke-linecap="round" stroke-linejoin="round" fill="#000000"/>
        <path d="M 86.9735,6.2475 L 86.9735,8.3716 L 87.8644,8.3716 L 87.8644,8.8714 L 88.2263,8.8714 L 88.2263,9.3712 L 89.2843,9.3712 L 89.2843,8.8714 L 89.6462,8.8714 L 89.6462,8.3716 L 90.5371,8.3716 L 90.5371,6.2475 L 86.9735,6.2475 Z" stroke="#161616" stroke-width="0.1198" stroke-linecap="round" stroke-linejoin="round" fill="#000000"/>
        <path d="M 91.1913,5.5950 L 91.1913,3.4708 L 92.0822,3.4708 L 92.0822,2.9710 L 92.4441,2.9710 L 92.4441,2.4712 L 93.5021,2.4712 L 93.5021,2.9710 L 93.8640,2.9710 L 93.8640,3.4708 L 94.7549,3.4708 L 94.7549,5.5950 L 91.1913,5.5950 Z" stroke="#161616" stroke-width="0.1198" stroke-linecap="round" stroke-linejoin="round" fill="#000000"/>
        <path d="M 91.1913,6.2475 L 91.1913,8.3716 L 92.0822,8.3716 L 92.0822,8.8714 L 92.4441,8.8714 L 92.4441,9.3712 L 93.5021,9.3712 L 93.5021,8.8714 L 93.8640,8.8714 L 93.8640,8.3716 L 94.7549,8.3716 L 94.7549,6.2475 L 91.1913,6.2475 Z" stroke="#161616" stroke-width="0.1198" stroke-linecap="round" stroke-linejoin="round" fill="#000000"/>
        <path d="M 95.1168,5.5950 L 95.1168,3.4708 L 96.0077,3.4708 L 96.0077,2.9710 L 96.3696,2.9710 L 96.3696,2.4712 L 97.4276,2.4712 L 97.4276,2.9710 L 97.7895,2.9710 L 97.7895,3.4708 L 98.6804,3.4708 L 98.6804,5.5950 L 95.1168,5.5950 Z" stroke="#161616" stroke-width="0.1198" stroke-linecap="round" stroke-linejoin="round" fill="#000000"/>
        <path d="M 95.1168,6.2475 L 95.1168,8.3716 L 96.0077,8.3716 L 96.0077,8.8714 L 96.3696,8.8714 L 96.3696,9.3712 L 97.4276,9.3712 L 97.4276,8.8714 L 97.7895,8.8714 L 97.7895,8.3716 L 98.6804,8.3716 L 98.6804,6.2475 L 95.1168,6.2475 Z" stroke="#161616" stroke-width="0.1198" stroke-linecap="round" stroke-linejoin="round" fill="#000000"/>
        <path d="M 98.9866,5.5950 L 98.9866,3.4708 L 99.8775,3.4708 L 99.8775,2.9710 L 100.2395,2.9710 L 100.2395,2.4712 L 101.2974,2.4712 L 101.2974,2.9710 L 101.6593,2.9710 L 101.6593,3.4708 L 102.5502,3.4708 L 102.5502,5.5950 L 98.9866,5.5950 Z" stroke="#161616" stroke-width="0.1198" stroke-linecap="round" stroke-linejoin="round" fill="#000000"/>
        <path d="M 98.9866,6.2475 L 98.9866,8.3716 L 99.8775,8.3716 L 99.8775,8.8714 L 100.2395,8.8714 L 100.2395,9.3712 L 101.2974,9.3712 L 101.2974,8.8714 L 101.6593,8.8714 L 101.6593,8.3716 L 102.5502,8.3716 L 102.5502,6.2475 L 98.9866,6.2475 Z" stroke="#161616" stroke-width="0.1198" stroke-linecap="round" stroke-linejoin="round" fill="#000000"/>
        <path d="M 102.9121,5.5950 L 102.9121,3.4708 L 103.8030,3.4708 L 103.8030,2.9710 L 104.1650,2.9710 L 104.1650,2.4712 L 105.2229,2.4712 L 105.2229,2.9710 L 105.5848,2.9710 L 105.5848,3.4708 L 106.4757,3.4708 L 106.4757,5.5950 L 102.9121,5.5950 Z" stroke="#161616" stroke-width="0.1198" stroke-linecap="round" stroke-linejoin="round" fill="#000000"/>
        <path d="M 102.9121,6.2475 L 102.9121,8.3716 L 103.8030,8.3716 L 103.8030,8.8714 L 104.1650,8.8714 L 104.1650,9.3712 L 105.2229,9.3712 L 105.2229,8.8714 L 105.5848,8.8714 L 105.5848,8.3716 L 106.4757,8.3716 L 106.4757,6.2475 L 102.9121,6.2475 Z" stroke="#161616" stroke-width="0.1198" stroke-linecap="round" stroke-linejoin="round" fill="#000000"/>
        <path d="M 106.7820,5.5950 L 106.7820,3.4708 L 107.6729,3.4708 L 107.6729,2.9710 L 108.0348,2.9710 L 108.0348,2.4712 L 109.0927,2.4712 L 109.0927,2.9710 L 109.4546,2.9710 L 109.4546,3.4708 L 110.3455,3.4708 L 110.3455,5.5950 L 106.7820,5.5950 Z" stroke="#161616" stroke-width="0.1198" stroke-linecap="round" stroke-linejoin="round" fill="#000000"/>
        <path d="M 106.7820,6.2475 L 106.7820,8.3716 L 107.6729,8.3716 L 107.6729,8.8714 L 108.0348,8.8714 L 108.0348,9.3712 L 109.0927,9.3712 L 109.0927,8.8714 L 109.4546,8.8714 L 109.4546,8.3716 L 110.3455,8.3716 L 110.3455,6.2475 L 106.7820,6.2475 Z" stroke="#161616" stroke-width="0.1198" stroke-linecap="round" stroke-linejoin="round" fill="#000000"/>
        <path d="M 110.7214,5.5950 L 110.7214,3.4708 L 111.6123,3.4708 L 111.6123,2.9710 L 111.9742,2.9710 L 111.9742,2.4712 L 113.0321,2.4712 L 113.0321,2.9710 L 113.3941,2.9710 L 113.3941,3.4708 L 114.2850,3.4708 L 114.2850,5.5950 L 110.7214,5.5950 Z" stroke="#161616" stroke-width="0.1198" stroke-linecap="round" stroke-linejoin="round" fill="#000000"/>
        <path d="M 110.7214,6.2475 L 110.7214,8.3716 L 111.6123,8.3716 L 111.6123,8.8714 L 111.9742,8.8714 L 111.9742,9.3712 L 113.0321,9.3712 L 113.0321,8.8714 L 113.3941,8.8714 L 113.3941,8.3716 L 114.2850,8.3716 L 114.2850,6.2475 L 110.7214,6.2475 Z" stroke="#161616" stroke-width="0.1198" stroke-linecap="round" stroke-linejoin="round" fill="#000000"/>
        <path d="M 116.0528,5.5950 L 116.0528,3.4708 L 116.9437,3.4708 L 116.9437,2.9710 L 117.3056,2.9710 L 117.3056,2.4712 L 118.3636,2.4712 L 118.3636,2.9710 L 118.7255,2.9710 L 118.7255,3.4708 L 119.6164,3.4708 L 119.6164,5.5950 L 116.0528,5.5950 Z" stroke="#161616" stroke-width="0.1198" stroke-linecap="round" stroke-linejoin="round" fill="#000000"/>
        <path d="M 116.0528,6.2475 L 116.0528,8.3716 L 116.9437,8.3716 L 116.9437,8.8714 L 117.3056,8.8714 L 117.3056,9.3712 L 118.3636,9.3712 L 118.3636,8.8714 L 118.7255,8.8714 L 118.7255,8.3716 L 119.6164,8.3716 L 119.6164,6.2475 L 116.0528,6.2475 Z" stroke="#161616" stroke-width="0.1198" stroke-linecap="round" stroke-linejoin="round" fill="#000000"/>
        <path d="M 126.2338,5.1529 L 122.2776,5.1529 L 122.2776,2.4795 L 126.2338,2.4795 L 126.2338,5.1529 Z" stroke="#000000" stroke-width="0.1198" stroke-linecap="round" stroke-linejoin="round" fill="#494949"/>
        <path d="M 126.2338,5.1529 L 122.2776,5.1529 L 122.2776,2.4795 L 126.2338,2.4795 L 126.2338,5.1529 Z" stroke="#000000" stroke-width="0.1198" stroke-linecap="round" stroke-linejoin="round" fill="#DDDDDD"/>
        <path d="M 126.1140,5.0952 L 122.3823,5.0952 L 122.3823,2.5335 L 126.1140,2.5335 L 126.1140,5.0952 Z" stroke="#000000" stroke-width="0.1198" stroke-linecap="round" stroke-linejoin="round" fill="#999974"/>
        <path d="M 126.0583,2.7728 L 126.0583,2.7306 L 126.0165,2.6461 L 125.9330,2.6039 L 122.5633,2.6039 L 122.4797,2.6461 L 122.4380,2.7306 L 122.4380,4.9123 L 122.4797,4.9967 L 122.5633,5.0389 L 125.9330,5.0389 L 126.0165,4.9967 L 126.0583,4.9123 L 126.0583,4.8700 L 126.0583,2.7728 Z" stroke="#7F7F7F" stroke-width="0.1198" stroke-linecap="round" stroke-linejoin="round" fill="#CCCCB9"/>
        <path d="M 122.6607,4.8700 L 122.6607,3.3358 L 122.7861,3.3358 L 122.7861,3.1810 L 122.6607,3.1810 L 122.6607,2.9417 L 122.9253,2.9417 L 122.9253,2.6602 L 123.8304,2.6602 L 123.8304,2.9417 L 124.1089,2.9417 L 124.1089,3.1810 L 123.9836,3.1810 L 123.9836,3.3358 L 124.1089,3.3358 L 124.1089,4.8700 L 122.6607,4.8700 Z" stroke="#000000" stroke-width="0.1198" stroke-linecap="round" stroke-linejoin="round" fill="#938476"/>
        <path d="M 122.6607,3.0684 L 122.6607,2.9417 L 122.9253,2.9417 L 122.9253,2.6461 L 123.8304,2.6461 L 123.8304,2.9417 L 124.1089,2.9417 L 124.1089,3.0684 L 122.6607,3.0684 Z" stroke="#000000" stroke-width="0.1198" stroke-linecap="round" stroke-linejoin="round" fill="#938476"/>
        <path d="M 122.6607,3.0684 L 122.6607,3.1247 L 124.1089,3.1247 L 124.1089,3.0684 L 122.6607,3.0684 Z" stroke="#000000" stroke-width="0.1198" stroke-linecap="round" stroke-linejoin="round" fill="#706257"/>
        <path d="M 122.6607,3.7159 L 124.0950,3.7159 " stroke="#000000" stroke-width="0.1198" stroke-linecap="round" stroke-linejoin="round" fill="none"/>
        <path d="M 123.9000,4.8700 L 123.9557,4.8137 L 123.9696,4.7856 L 123.9975,4.7574 L 124.0114,4.7293 L 124.0253,4.6871 L 124.0532,4.6308 L 124.0671,4.5885 L 124.0950,4.5322 L 124.0950,4.4618 L 124.1089,4.4196 L 124.1089,4.2789 L 124.0950,4.2366 L 124.0950,4.1663 L 124.0671,4.1100 L 124.0532,4.0677 L 124.0253,4.0114 L 124.0114,3.9692 L 123.9975,3.9411 L 123.9696,3.9129 L 123.9557,3.8848 L 123.8443,3.7722 L 123.8165,3.7581 L 123.7886,3.7299 L 123.7608,3.7159 L 123.7190,3.7018 L 123.6633,3.6736 L 123.6215,3.6596 L 123.5658,3.6314 L 123.4962,3.6314 L 123.4544,3.6173 L 123.3152,3.6173 L 123.2734,3.6314 L 123.2038,3.6314 L 123.1481,3.6596 L 123.1063,3.6736 L 123.0506,3.7018 L 123.0089,3.7159 L 122.9810,3.7299 L 122.9532,3.7581 L 122.9253,3.7722 L 122.8139,3.8848 L 122.8000,3.9129 L 122.7721,3.9411 L 122.7582,3.9692 L 122.7443,4.0114 L 122.7164,4.0677 L 122.7025,4.1100 L 122.6747,4.1663 L 122.6747,4.2366 L 122.6607,4.2789 L 122.6607,4.4196 L 122.6747,4.4618 L 122.6747,4.5322 L 122.7025,4.5885 L 122.7164,4.6308 L 122.7443,4.6871 L 122.7582,4.7293 L 122.7721,4.7574 L 122.8000,4.7856 L 122.8139,4.8137 L 122.8696,4.8700 L 123.8861,4.8700 L 123.9000,4.8700 Z" stroke="#000000" stroke-width="0.1198" stroke-linecap="round" stroke-linejoin="round" fill="#A09183"/>
        <ellipse cx="123.3222" cy="4.2859" rx="0.2855" ry="0.2885" fill="none" stroke="#494949" stroke-width="0.1198" stroke-linecap="round" stroke-linejoin="round"/>
        <ellipse cx="123.3291" cy="4.2929" rx="0.1810" ry="0.1830" fill="#706257" stroke="#000000" stroke-width="0.1198" stroke-linecap="round" stroke-linejoin="round"/>
        <ellipse cx="123.3291" cy="4.2929" rx="0.1810" ry="0.1830" fill="none" stroke="#000000" stroke-width="0.1198" stroke-linecap="round" stroke-linejoin="round"/>
        <ellipse cx="123.3291" cy="4.2859" rx="0.1671" ry="0.1619" fill="#9B8C81" stroke="#000000" stroke-width="0.1198" stroke-linecap="round" stroke-linejoin="round"/>
        <ellipse cx="123.3291" cy="4.2859" rx="0.1671" ry="0.1619" fill="none" stroke="#000000" stroke-width="0.1198" stroke-linecap="round" stroke-linejoin="round"/>
        <path d="M 123.4266,4.1381 L 123.3570,4.1381 L 123.3570,4.5744 L 123.4266,4.5744 L 123.4266,4.1381 Z" stroke="#000000" stroke-width="0.1198" stroke-linecap="round" stroke-linejoin="round" fill="#4F443C"/>
        <path d="M 124.3317,4.8700 L 124.3317,3.3358 L 124.4570,3.3358 L 124.4570,3.1810 L 124.3317,3.1810 L 124.3317,2.9417 L 124.5963,2.9417 L 124.5963,2.6602 L 125.5013,2.6602 L 125.5013,2.9417 L 125.7798,2.9417 L 125.7798,3.1810 L 125.6545,3.1810 L 125.6545,3.3358 L 125.7798,3.3358 L 125.7798,4.8700 L 124.3317,4.8700 Z" stroke="#000000" stroke-width="0.1198" stroke-linecap="round" stroke-linejoin="round" fill="#938476"/>
        <path d="M 124.3317,3.0684 L 124.3317,2.9417 L 124.5963,2.9417 L 124.5963,2.6461 L 125.5013,2.6461 L 125.5013,2.9417 L 125.7798,2.9417 L 125.7798,3.0684 L 124.3317,3.0684 Z" stroke="#000000" stroke-width="0.1198" stroke-linecap="round" stroke-linejoin="round" fill="#938476"/>
        <path d="M 124.3317,3.0684 L 124.3317,3.1247 L 125.7798,3.1247 L 125.7798,3.0684 L 124.3317,3.0684 Z" stroke="#000000" stroke-width="0.1198" stroke-linecap="round" stroke-linejoin="round" fill="#706257"/>
        <path d="M 124.3317,3.7159 L 125.7659,3.7159 " stroke="#000000" stroke-width="0.1198" stroke-linecap="round" stroke-linejoin="round" fill="none"/>
        <path d="M 125.5710,4.8700 L 125.6267,4.8137 L 125.6406,4.7856 L 125.6684,4.7574 L 125.6824,4.7293 L 125.6963,4.6871 L 125.7241,4.6308 L 125.7381,4.5885 L 125.7659,4.5322 L 125.7659,4.4618 L 125.7798,4.4196 L 125.7798,4.2789 L 125.7659,4.2366 L 125.7659,4.1663 L 125.7381,4.1100 L 125.7241,4.0677 L 125.6963,4.0114 L 125.6824,3.9692 L 125.6684,3.9411 L 125.6406,3.9129 L 125.6267,3.8848 L 125.5153,3.7722 L 125.4874,3.7581 L 125.4596,3.7299 L 125.4317,3.7159 L 125.3899,3.7018 L 125.3342,3.6736 L 125.2925,3.6596 L 125.2368,3.6314 L 125.1672,3.6314 L 125.1254,3.6173 L 124.9861,3.6173 L 124.9444,3.6314 L 124.8747,3.6314 L 124.8190,3.6596 L 124.7773,3.6736 L 124.7216,3.7018 L 124.6798,3.7159 L 124.6519,3.7299 L 124.6241,3.7581 L 124.5963,3.7722 L 124.4849,3.8848 L 124.4709,3.9129 L 124.4431,3.9411 L 124.4292,3.9692 L 124.4152,4.0114 L 124.3874,4.0677 L 124.3735,4.1100 L 124.3456,4.1663 L 124.3456,4.2366 L 124.3317,4.2789 L 124.3317,4.4196 L 124.3456,4.4618 L 124.3456,4.5322 L 124.3735,4.5885 L 124.3874,4.6308 L 124.4152,4.6871 L 124.4292,4.7293 L 124.4431,4.7574 L 124.4709,4.7856 L 124.4849,4.8137 L 124.5406,4.8700 L 125.5570,4.8700 L 125.5710,4.8700 Z" stroke="#000000" stroke-width="0.1198" stroke-linecap="round" stroke-linejoin="round" fill="#A09183"/>
        <ellipse cx="125.0001" cy="4.2859" rx="0.2924" ry="0.2885" fill="none" stroke="#494949" stroke-width="0.1198" stroke-linecap="round" stroke-linejoin="round"/>
        <ellipse cx="125.0001" cy="4.2929" rx="0.1810" ry="0.1830" fill="#706257" stroke="#000000" stroke-width="0.1198" stroke-linecap="round" stroke-linejoin="round"/>
        <ellipse cx="125.0001" cy="4.2929" rx="0.1810" ry="0.1830" fill="none" stroke="#000000" stroke-width="0.1198" stroke-linecap="round" stroke-linejoin="round"/>
        <ellipse cx="124.9931" cy="4.2859" rx="0.1601" ry="0.1619" fill="#9B8C81" stroke="#000000" stroke-width="0.1198" stroke-linecap="round" stroke-linejoin="round"/>
        <ellipse cx="124.9931" cy="4.2859" rx="0.1601" ry="0.1619" fill="none" stroke="#000000" stroke-width="0.1198" stroke-linecap="round" stroke-linejoin="round"/>
        <path d="M 125.0975,4.1381 L 125.0279,4.1381 L 125.0279,4.5744 L 125.0975,4.5744 L 125.0975,4.1381 Z" stroke="#000000" stroke-width="0.1198" stroke-linecap="round" stroke-linejoin="round" fill="#4F443C"/>
        <path d="M 126.2338,9.3638 L 122.2776,9.3638 L 122.2776,6.6904 L 126.2338,6.6904 L 126.2338,9.3638 Z" stroke="#000000" stroke-width="0.1198" stroke-linecap="round" stroke-linejoin="round" fill="#494949"/>
        <path d="M 122.2819,6.6904 L 126.1823,6.6904 L 126.1823,9.3638 L 122.2819,9.3638 L 122.2819,6.6904 Z" stroke="#000000" stroke-width="0.1198" stroke-linecap="round" stroke-linejoin="round" fill="#DDDDDD"/>
        <path d="M 122.3839,6.7561 L 126.0601,6.7561 L 126.0601,9.3178 L 122.3839,9.3178 L 122.3839,6.7561 Z" stroke="#000000" stroke-width="0.1198" stroke-linecap="round" stroke-linejoin="round" fill="#999974"/>
        <path d="M 122.4388,9.0785 L 122.4388,9.1207 L 122.4799,9.2052 L 122.5622,9.2474 L 125.8817,9.2474 L 125.9641,9.2052 L 126.0052,9.1207 L 126.0052,6.9391 L 125.9641,6.8546 L 125.8817,6.8124 L 122.5622,6.8124 L 122.4799,6.8546 L 122.4388,6.9391 L 122.4388,6.9813 L 122.4388,9.0785 Z" stroke="#7F7F7F" stroke-width="0.1198" stroke-linecap="round" stroke-linejoin="round" fill="#CCCCB9"/>
        <path d="M 125.7857,6.9813 L 125.7857,8.5155 L 125.6623,8.5155 L 125.6623,8.6703 L 125.7857,8.6703 L 125.7857,8.9096 L 125.5251,8.9096 L 125.5251,9.1911 L 124.6335,9.1911 L 124.6335,8.9096 L 124.3592,8.9096 L 124.3592,8.6703 L 124.4826,8.6703 L 124.4826,8.5155 L 124.3592,8.5155 L 124.3592,6.9813 L 125.7857,6.9813 Z" stroke="#000000" stroke-width="0.1198" stroke-linecap="round" stroke-linejoin="round" fill="#938476"/>
        <path d="M 125.7857,8.7829 L 125.7857,8.9096 L 125.5251,8.9096 L 125.5251,9.2052 L 124.6335,9.2052 L 124.6335,8.9096 L 124.3592,8.9096 L 124.3592,8.7829 L 125.7857,8.7829 Z" stroke="#000000" stroke-width="0.1198" stroke-linecap="round" stroke-linejoin="round" fill="#938476"/>
        <path d="M 125.7857,8.7829 L 125.7857,8.7266 L 124.3592,8.7266 L 124.3592,8.7829 L 125.7857,8.7829 Z" stroke="#000000" stroke-width="0.1198" stroke-linecap="round" stroke-linejoin="round" fill="#706257"/>
        <path d="M 125.7857,8.1355 L 124.3866,8.1355 " stroke="#000000" stroke-width="0.1198" stroke-linecap="round" stroke-linejoin="round" fill="none"/>
        <path d="M 124.5649,6.9813 L 124.5100,7.0376 L 124.4963,7.0658 L 124.4689,7.0939 L 124.4552,7.1221 L 124.4415,7.1643 L 124.4140,7.2206 L 124.4003,7.2628 L 124.3729,7.3191 L 124.3729,7.3895 L 124.3592,7.4317 L 124.3592,7.5725 L 124.3729,7.6147 L 124.3729,7.6851 L 124.4003,7.7414 L 124.4140,7.7836 L 124.4415,7.8399 L 124.4552,7.8821 L 124.4689,7.9103 L 124.4963,7.9384 L 124.5100,7.9666 L 124.6198,8.0792 L 124.6472,8.0933 L 124.6746,8.1214 L 124.7021,8.1355 L 124.7432,8.1496 L 124.7981,8.1777 L 124.8393,8.1918 L 124.8941,8.2199 L 124.9627,8.2199 L 125.0039,8.2340 L 125.1410,8.2340 L 125.1822,8.2199 L 125.2508,8.2199 L 125.3056,8.1918 L 125.3468,8.1777 L 125.4017,8.1496 L 125.4428,8.1355 L 125.4702,8.1214 L 125.4977,8.0933 L 125.5251,8.0792 L 125.6348,7.9666 L 125.6486,7.9384 L 125.6760,7.9103 L 125.6897,7.8821 L 125.7034,7.8399 L 125.7309,7.7836 L 125.7446,7.7414 L 125.7720,7.6851 L 125.7720,7.6147 L 125.7857,7.5725 L 125.7857,7.4317 L 125.7720,7.3895 L 125.7720,7.3191 L 125.7446,7.2628 L 125.7309,7.2206 L 125.7034,7.1643 L 125.6897,7.1221 L 125.6760,7.0939 L 125.6486,7.0658 L 125.6348,7.0376 L 125.5800,6.9813 L 124.5786,6.9813 L 124.5649,6.9813 Z" stroke="#000000" stroke-width="0.1198" stroke-linecap="round" stroke-linejoin="round" fill="#A09183"/>
        <ellipse cx="125.0107" cy="7.4388" rx="0.2812" ry="0.2885" fill="none" stroke="#494949" stroke-width="0.1198" stroke-linecap="round" stroke-linejoin="round"/>
        <ellipse cx="125.0107" cy="7.4388" rx="0.1715" ry="0.1759" fill="#706257" stroke="#000000" stroke-width="0.1198" stroke-linecap="round" stroke-linejoin="round"/>
        <ellipse cx="125.0107" cy="7.4388" rx="0.1715" ry="0.1759" fill="none" stroke="#000000" stroke-width="0.1198" stroke-linecap="round" stroke-linejoin="round"/>
        <ellipse cx="125.0107" cy="7.4388" rx="0.1577" ry="0.1619" fill="#9B8C81" stroke="#000000" stroke-width="0.1198" stroke-linecap="round" stroke-linejoin="round"/>
        <ellipse cx="125.0107" cy="7.4388" rx="0.1577" ry="0.1619" fill="none" stroke="#000000" stroke-width="0.1198" stroke-linecap="round" stroke-linejoin="round"/>
        <path d="M 125.0313,7.7132 L 125.0999,7.7132 L 125.0999,7.2769 L 125.0313,7.2769 L 125.0313,7.7132 Z" stroke="#000000" stroke-width="0.1198" stroke-linecap="round" stroke-linejoin="round" fill="#4F443C"/>
        <path d="M 124.1397,6.9813 L 124.1397,8.5155 L 124.0162,8.5155 L 124.0162,8.6703 L 124.1397,8.6703 L 124.1397,8.9096 L 123.8791,8.9096 L 123.8791,9.1911 L 122.9874,9.1911 L 122.9874,8.9096 L 122.7131,8.9096 L 122.7131,8.6703 L 122.8366,8.6703 L 122.8366,8.5155 L 122.7131,8.5155 L 122.7131,6.9813 L 124.1397,6.9813 Z" stroke="#000000" stroke-width="0.1198" stroke-linecap="round" stroke-linejoin="round" fill="#938476"/>
        <path d="M 124.1397,8.7829 L 124.1397,8.9096 L 123.8791,8.9096 L 123.8791,9.2052 L 122.9874,9.2052 L 122.9874,8.9096 L 122.7131,8.9096 L 122.7131,8.7829 L 124.1397,8.7829 Z" stroke="#000000" stroke-width="0.1198" stroke-linecap="round" stroke-linejoin="round" fill="#938476"/>
        <path d="M 124.1397,8.7829 L 124.1397,8.7266 L 122.7131,8.7266 L 122.7131,8.7829 L 124.1397,8.7829 Z" stroke="#000000" stroke-width="0.1198" stroke-linecap="round" stroke-linejoin="round" fill="#706257"/>
        <path d="M 124.1397,8.1355 L 122.7405,8.1355 " stroke="#000000" stroke-width="0.1198" stroke-linecap="round" stroke-linejoin="round" fill="none"/>
        <path d="M 122.9189,6.9813 L 122.8640,7.0376 L 122.8503,7.0658 L 122.8228,7.0939 L 122.8091,7.1221 L 122.7954,7.1643 L 122.7680,7.2206 L 122.7543,7.2628 L 122.7268,7.3191 L 122.7268,7.3895 L 122.7131,7.4317 L 122.7131,7.5725 L 122.7268,7.6147 L 122.7268,7.6851 L 122.7543,7.7414 L 122.7680,7.7836 L 122.7954,7.8399 L 122.8091,7.8821 L 122.8228,7.9103 L 122.8503,7.9384 L 122.8640,7.9666 L 122.9737,8.0792 L 123.0012,8.0933 L 123.0286,8.1214 L 123.0560,8.1355 L 123.0972,8.1496 L 123.1520,8.1777 L 123.1932,8.1918 L 123.2481,8.2199 L 123.3167,8.2199 L 123.3578,8.2340 L 123.4950,8.2340 L 123.5361,8.2199 L 123.6047,8.2199 L 123.6596,8.1918 L 123.7007,8.1777 L 123.7556,8.1496 L 123.7968,8.1355 L 123.8242,8.1214 L 123.8516,8.0933 L 123.8791,8.0792 L 123.9888,7.9666 L 124.0025,7.9384 L 124.0299,7.9103 L 124.0437,7.8821 L 124.0574,7.8399 L 124.0848,7.7836 L 124.0985,7.7414 L 124.1260,7.6851 L 124.1260,7.6147 L 124.1397,7.5725 L 124.1397,7.4317 L 124.1260,7.3895 L 124.1260,7.3191 L 124.0985,7.2628 L 124.0848,7.2206 L 124.0574,7.1643 L 124.0437,7.1221 L 124.0299,7.0939 L 124.0025,7.0658 L 123.9888,7.0376 L 123.9339,6.9813 L 122.9326,6.9813 L 122.9189,6.9813 Z" stroke="#000000" stroke-width="0.1198" stroke-linecap="round" stroke-linejoin="round" fill="#A09183"/>
        <ellipse cx="123.3647" cy="7.4388" rx="0.2812" ry="0.2885" fill="none" stroke="#494949" stroke-width="0.1198" stroke-linecap="round" stroke-linejoin="round"/>
        <ellipse cx="123.3647" cy="7.4388" rx="0.1715" ry="0.1759" fill="#706257" stroke="#000000" stroke-width="0.1198" stroke-linecap="round" stroke-linejoin="round"/>
        <ellipse cx="123.3647" cy="7.4388" rx="0.1715" ry="0.1759" fill="none" stroke="#000000" stroke-width="0.1198" stroke-linecap="round" stroke-linejoin="round"/>
        <ellipse cx="123.3647" cy="7.4388" rx="0.1577" ry="0.1619" fill="#9B8C81" stroke="#000000" stroke-width="0.1198" stroke-linecap="round" stroke-linejoin="round"/>
        <ellipse cx="123.3647" cy="7.4388" rx="0.1577" ry="0.1619" fill="none" stroke="#000000" stroke-width="0.1198" stroke-linecap="round" stroke-linejoin="round"/>
        <path d="M 123.3852,7.7132 L 123.4538,7.7132 L 123.4538,7.2769 L 123.3852,7.2769 L 123.3852,7.7132 Z" stroke="#000000" stroke-width="0.1198" stroke-linecap="round" stroke-linejoin="round" fill="#4F443C"/>
      </g>
      <!--emf-blob end-->
    </g>
  </g>
</svg>
