<svg xmlns="http://www.w3.org/2000/svg" xmlns:xlink="http://www.w3.org/1999/xlink" version="1.1" width="7.6832000000" height="2.6016000000" viewBox="0 0 138.2967 46.8264">
  <title><![CDATA[FSW-124B-POE (F)]]></title>
  <g transform=" scale(4.000000) ">
    <!--converted by libvisio2svg-->
    <g transform=" translate(0.720000,0.720000) ">
      <!--emf-blob start-->
      <g transform="translate(-0.0000, -0.0000)">
        <path d="M 9.3786,1.7493 L 9.3786,2.5090 L 10.0575,2.5090 " stroke="#000000" stroke-width="0.1200" stroke-linecap="round" stroke-linejoin="round" fill="none"/>
        <path d="M 10.0575,1.7493 L 11.3973,1.7493 " stroke="#000000" stroke-width="0.1200" stroke-linecap="round" stroke-linejoin="round" fill="none"/>
        <path d="M 10.7184,1.7493 L 10.7184,2.5090 " stroke="#000000" stroke-width="0.1200" stroke-linecap="round" stroke-linejoin="round" fill="none"/>
        <path d="M 11.7367,1.7493 L 11.7367,2.5090 " stroke="#000000" stroke-width="0.1200" stroke-linecap="round" stroke-linejoin="round" fill="none"/>
        <path d="M 11.7367,1.7493 L 11.7367,2.5090 " stroke="#000000" stroke-width="0.1200" stroke-linecap="round" stroke-linejoin="round" fill="none"/>
        <path d="M 12.3977,2.5090 L 12.3977,1.7493 L 13.0765,2.5090 L 13.7553,1.7493 L 13.7553,2.5090 " stroke="#000000" stroke-width="0.1200" stroke-linecap="round" stroke-linejoin="round" fill="none"/>
        <path d="M 14.0769,2.5090 L 14.7557,1.7493 L 15.4346,2.5090 " stroke="#000000" stroke-width="0.1200" stroke-linecap="round" stroke-linejoin="round" fill="none"/>
        <path d="M 14.2555,2.3191 L 15.2559,2.3191 " stroke="#000000" stroke-width="0.1200" stroke-linecap="round" stroke-linejoin="round" fill="none"/>
        <path d="M 7.3600,2.5090 L 8.0388,1.7493 L 8.7177,2.5090 " stroke="#000000" stroke-width="0.1200" stroke-linecap="round" stroke-linejoin="round" fill="none"/>
        <path d="M 7.5386,2.3191 L 8.5390,2.3191 " stroke="#000000" stroke-width="0.1200" stroke-linecap="round" stroke-linejoin="round" fill="none"/>
        <path d="M 136.8005,0.0281 L 0.0281,0.0281 L 0.0281,12.4291 L 136.8005,12.4291 L 136.8005,0.0281 Z" stroke="#000000" stroke-width="0.1200" stroke-linecap="round" stroke-linejoin="round" fill="#EFEFEF"/>
        <path d="M 130.7267,0.0281 L 6.1019,0.0281 L 6.1019,12.4291 L 130.7267,12.4291 L 130.7267,0.0281 Z" stroke="#000000" stroke-width="0.1200" stroke-linecap="round" stroke-linejoin="round" fill="#EFEFEF"/>
        <path d="M 89.9537,0.4770 L 6.7627,0.4770 L 6.7486,0.4910 L 6.7346,0.4910 L 6.7205,0.5050 L 6.6924,0.5050 L 6.6643,0.5331 L 6.6502,0.5331 L 6.6362,0.5471 L 6.6362,0.5611 L 6.6221,0.5611 L 6.6080,0.5752 L 6.6080,0.5892 L 6.5799,0.6172 L 6.5799,0.6453 L 6.5659,0.6593 L 6.5659,0.6734 L 6.5518,0.6874 L 6.5518,11.7697 L 6.5659,11.7838 L 6.5659,11.7978 L 6.5799,11.8118 L 6.5799,11.8399 L 6.6080,11.8679 L 6.6080,11.8820 L 6.6221,11.8960 L 6.6362,11.8960 L 6.6362,11.9100 L 6.6502,11.9240 L 6.6643,11.9240 L 6.6924,11.9521 L 6.7205,11.9521 L 6.7346,11.9661 L 6.7486,11.9661 L 6.7627,11.9802 L 130.0659,11.9802 L 130.0799,11.9661 L 130.0940,11.9661 L 130.1081,11.9521 L 130.1362,11.9521 L 130.1643,11.9240 L 130.1784,11.9240 L 130.1924,11.9100 L 130.1924,11.8960 L 130.2065,11.8960 L 130.2205,11.8820 L 130.2205,11.8679 L 130.2487,11.8399 L 130.2487,11.8118 L 130.2627,11.7978 L 130.2627,11.7838 L 130.2768,11.7697 L 130.2768,0.6874 L 130.2627,0.6734 L 130.2627,0.6593 L 130.2487,0.6453 L 130.2487,0.6172 L 130.2205,0.5892 L 130.2205,0.5752 L 130.2065,0.5611 L 130.1924,0.5611 L 130.1924,0.5471 L 130.1784,0.5331 L 130.1643,0.5331 L 130.1362,0.5050 L 130.1081,0.5050 L 130.0940,0.4910 L 130.0799,0.4910 L 130.0659,0.4770 L 90.0662,0.4770 L 89.9537,0.4770 Z" stroke="#A8A6A3" stroke-width="0.1200" stroke-linecap="round" stroke-linejoin="round" fill="#CCDDCC"/>
        <path d="M 6.5518,9.8479 L 6.5518,0.6734 L 6.5659,0.6593 L 6.5659,0.6453 L 6.5799,0.6313 L 6.5799,0.6032 L 6.5940,0.6032 L 6.5940,0.5892 L 6.6502,0.5331 L 6.6643,0.5331 L 6.6924,0.5050 L 6.7065,0.5050 L 6.7205,0.4910 L 6.7486,0.4910 L 6.7627,0.4770 L 43.4022,0.4770 L 42.7976,0.5190 L 42.2071,0.5471 L 41.6166,0.5892 L 41.0401,0.6172 L 40.4496,0.6593 L 39.8732,0.6874 L 39.2967,0.7295 L 38.1720,0.8417 L 37.0472,0.9820 L 36.4848,1.0802 L 35.9365,1.1784 L 35.3882,1.3046 L 34.8258,1.4309 L 34.2915,1.5992 L 33.7432,1.7676 L 33.1948,1.9640 L 32.6606,2.1884 L 32.1263,2.4409 L 31.5780,2.7215 L 31.0437,3.0161 L 30.5095,3.3528 L 29.9752,3.7175 L 29.4409,4.1243 L 28.9207,4.5592 L 28.3864,5.0221 L 27.8522,5.5412 L 27.3179,6.0883 L 26.7977,6.6775 L 26.2634,7.3087 L 25.7292,7.9821 L 25.6870,8.0382 L 25.6308,8.1083 L 25.5886,8.1645 L 25.5183,8.2346 L 25.4620,8.3047 L 25.3917,8.3749 L 25.3214,8.4591 L 25.1527,8.5993 L 25.0684,8.6835 L 24.9700,8.7536 L 24.8715,8.8378 L 24.7731,8.9080 L 24.6606,8.9921 L 24.5482,9.0623 L 24.4357,9.1464 L 24.0561,9.3569 L 23.9155,9.4130 L 23.7749,9.4831 L 23.6343,9.5392 L 23.4796,9.5953 L 23.3250,9.6374 L 23.1703,9.6935 L 23.0157,9.7216 L 22.8469,9.7637 L 22.6782,9.7917 L 22.4955,9.8198 L 22.1299,9.8479 L 6.5940,9.8479 L 6.5518,9.8479 Z" stroke="#EFEFEF" stroke-width="0.1200" stroke-linecap="round" stroke-linejoin="round" fill="#EFEFEF"/>
        <path d="M 135.7038,1.8517 L 135.7038,1.7535 L 135.6897,1.6553 L 135.6616,1.5712 L 135.6335,1.4730 L 135.5913,1.3888 L 135.5492,1.3187 L 135.4929,1.2485 L 135.3523,1.1082 L 135.2820,1.0521 L 135.2117,1.0100 L 135.1274,0.9680 L 135.0289,0.9399 L 134.9446,0.9118 L 134.8462,0.8978 L 132.6810,0.8978 L 132.5826,0.9118 L 132.4982,0.9399 L 132.3998,0.9680 L 132.3154,1.0100 L 132.2451,1.0521 L 132.1748,1.1082 L 132.0342,1.2485 L 131.9780,1.3187 L 131.9358,1.3888 L 131.8936,1.4730 L 131.8655,1.5712 L 131.8374,1.6553 L 131.8233,1.7535 L 131.8233,1.9499 L 131.8374,2.0481 L 131.8655,2.1323 L 131.8936,2.2305 L 131.9358,2.3147 L 131.9780,2.3848 L 132.0342,2.4549 L 132.1748,2.5952 L 132.2451,2.6513 L 132.3154,2.6934 L 132.3998,2.7355 L 132.4982,2.7636 L 132.5826,2.7916 L 132.6810,2.8057 L 134.8462,2.8057 L 134.9446,2.7916 L 135.0289,2.7636 L 135.1274,2.7355 L 135.2117,2.6934 L 135.2820,2.6513 L 135.3523,2.5952 L 135.4929,2.4549 L 135.5492,2.3848 L 135.5913,2.3147 L 135.6335,2.2305 L 135.6616,2.1323 L 135.6897,2.0481 L 135.7038,1.9499 L 135.7038,1.8517 Z" stroke="#000000" stroke-width="0.1200" stroke-linecap="round" stroke-linejoin="round" fill="#FFFFFF"/>
        <path d="M 135.7038,10.6054 L 135.7038,10.5072 L 135.6897,10.4090 L 135.6616,10.3248 L 135.6335,10.2266 L 135.5913,10.1424 L 135.5492,10.0723 L 135.4929,10.0022 L 135.3523,9.8619 L 135.2820,9.8058 L 135.2117,9.7637 L 135.1274,9.7216 L 135.0289,9.6935 L 134.9446,9.6655 L 134.8462,9.6515 L 132.6810,9.6515 L 132.5826,9.6655 L 132.4982,9.6935 L 132.3998,9.7216 L 132.3154,9.7637 L 132.2451,9.8058 L 132.1748,9.8619 L 132.0342,10.0022 L 131.9780,10.0723 L 131.9358,10.1424 L 131.8936,10.2266 L 131.8655,10.3248 L 131.8374,10.4090 L 131.8233,10.5072 L 131.8233,10.7036 L 131.8374,10.8018 L 131.8655,10.8859 L 131.8936,10.9841 L 131.9358,11.0683 L 131.9780,11.1385 L 132.0342,11.2086 L 132.1748,11.3489 L 132.2451,11.4050 L 132.3154,11.4471 L 132.3998,11.4892 L 132.4982,11.5172 L 132.5826,11.5453 L 132.6810,11.5593 L 134.8462,11.5593 L 134.9446,11.5453 L 135.0289,11.5172 L 135.1274,11.4892 L 135.2117,11.4471 L 135.2820,11.4050 L 135.3523,11.3489 L 135.4929,11.2086 L 135.5492,11.1385 L 135.5913,11.0683 L 135.6335,10.9841 L 135.6616,10.8859 L 135.6897,10.8018 L 135.7038,10.7036 L 135.7038,10.6054 Z" stroke="#000000" stroke-width="0.1200" stroke-linecap="round" stroke-linejoin="round" fill="#FFFFFF"/>
        <path d="M 5.0052,1.8517 L 5.0052,1.7535 L 4.9912,1.6553 L 4.9631,1.5712 L 4.9349,1.4730 L 4.8928,1.3888 L 4.8506,1.3187 L 4.7943,1.2485 L 4.6537,1.1082 L 4.5834,1.0521 L 4.5131,1.0100 L 4.4288,0.9680 L 4.3304,0.9399 L 4.2460,0.9118 L 4.1476,0.8978 L 1.9824,0.8978 L 1.8840,0.9118 L 1.7996,0.9399 L 1.7012,0.9680 L 1.6169,1.0100 L 1.5466,1.0521 L 1.4763,1.1082 L 1.3357,1.2485 L 1.2794,1.3187 L 1.2372,1.3888 L 1.1951,1.4730 L 1.1670,1.5712 L 1.1388,1.6553 L 1.1248,1.7535 L 1.1248,1.9499 L 1.1388,2.0481 L 1.1670,2.1323 L 1.1951,2.2305 L 1.2372,2.3147 L 1.2794,2.3848 L 1.3357,2.4549 L 1.4763,2.5952 L 1.5466,2.6513 L 1.6169,2.6934 L 1.7012,2.7355 L 1.7996,2.7636 L 1.8840,2.7916 L 1.9824,2.8057 L 4.1476,2.8057 L 4.2460,2.7916 L 4.3304,2.7636 L 4.4288,2.7355 L 4.5131,2.6934 L 4.5834,2.6513 L 4.6537,2.5952 L 4.7943,2.4549 L 4.8506,2.3848 L 4.8928,2.3147 L 4.9349,2.2305 L 4.9631,2.1323 L 4.9912,2.0481 L 5.0052,1.9499 L 5.0052,1.8517 Z" stroke="#000000" stroke-width="0.1200" stroke-linecap="round" stroke-linejoin="round" fill="#FFFFFF"/>
        <path d="M 5.0052,10.6054 L 5.0052,10.5072 L 4.9912,10.4090 L 4.9631,10.3248 L 4.9349,10.2266 L 4.8928,10.1424 L 4.8506,10.0723 L 4.7943,10.0022 L 4.6537,9.8619 L 4.5834,9.8058 L 4.5131,9.7637 L 4.4288,9.7216 L 4.3304,9.6935 L 4.2460,9.6655 L 4.1476,9.6515 L 1.9824,9.6515 L 1.8840,9.6655 L 1.7996,9.6935 L 1.7012,9.7216 L 1.6169,9.7637 L 1.5466,9.8058 L 1.4763,9.8619 L 1.3357,10.0022 L 1.2794,10.0723 L 1.2372,10.1424 L 1.1951,10.2266 L 1.1670,10.3248 L 1.1388,10.4090 L 1.1248,10.5072 L 1.1248,10.7036 L 1.1388,10.8018 L 1.1670,10.8859 L 1.1951,10.9841 L 1.2372,11.0683 L 1.2794,11.1385 L 1.3357,11.2086 L 1.4763,11.3489 L 1.5466,11.4050 L 1.6169,11.4471 L 1.7012,11.4892 L 1.7996,11.5172 L 1.8840,11.5453 L 1.9824,11.5593 L 4.1476,11.5593 L 4.2460,11.5453 L 4.3304,11.5172 L 4.4288,11.4892 L 4.5131,11.4471 L 4.5834,11.4050 L 4.6537,11.3489 L 4.7943,11.2086 L 4.8506,11.1385 L 4.8928,11.0683 L 4.9349,10.9841 L 4.9631,10.8859 L 4.9912,10.8018 L 5.0052,10.7036 L 5.0052,10.6054 Z" stroke="#000000" stroke-width="0.1200" stroke-linecap="round" stroke-linejoin="round" fill="#FFFFFF"/>
        <path d="M 124.6670,7.9260 L 124.6670,10.2547 L 128.0694,10.2547 L 128.0694,7.9260 L 124.6670,7.9260 Z" stroke="#D6D5D4" stroke-width="0.1200" stroke-linecap="round" stroke-linejoin="round" fill="#EFEFEF"/>
        <path d="M 121.1802,5.0782 L 124.0484,5.0782 L 124.0484,7.3789 L 121.1802,7.3789 L 121.1802,5.0782 Z" stroke="#D6D5D4" stroke-width="0.1200" stroke-linecap="round" stroke-linejoin="round" fill="#EFEFEF"/>
        <path d="M 128.7302,7.3789 L 130.2768,7.3789 L 130.2768,5.0782 L 128.7302,5.0782 L 128.7302,7.3789 Z" stroke="#D6D5D4" stroke-width="0.1200" stroke-linecap="round" stroke-linejoin="round" fill="#EFEFEF"/>
        <path d="M 124.0484,7.9400 L 124.0484,10.2827 L 123.3875,10.2827 L 123.2610,10.2687 L 123.1345,10.2687 L 122.8814,10.2406 L 122.7689,10.2126 L 122.6424,10.1845 L 122.5299,10.1565 L 122.3050,10.0723 L 122.2065,10.0302 L 122.0097,9.9180 L 121.9113,9.8479 L 121.6582,9.5953 L 121.5879,9.4971 L 121.5176,9.3849 L 121.4473,9.2587 L 121.3911,9.1324 L 121.3489,8.9921 L 121.2927,8.8518 L 121.2645,8.6975 L 121.2083,8.3328 L 121.1942,8.1504 L 121.1802,7.9400 L 124.0343,7.9400 L 124.0484,7.9400 Z" stroke="#D6D5D4" stroke-width="0.1200" stroke-linecap="round" stroke-linejoin="round" fill="#EFEFEF"/>
        <path d="M 124.6670,2.2024 L 124.6670,4.5311 L 128.0694,4.5311 L 128.0694,2.2024 L 124.6670,2.2024 Z" stroke="#D6D5D4" stroke-width="0.1200" stroke-linecap="round" stroke-linejoin="round" fill="#EFEFEF"/>
        <path d="M 124.0484,4.5171 L 124.0484,2.1744 L 123.3875,2.1744 L 123.2610,2.1884 L 123.1345,2.1884 L 122.8814,2.2165 L 122.7689,2.2445 L 122.6424,2.2726 L 122.5299,2.3006 L 122.3050,2.3848 L 122.2065,2.4269 L 122.0097,2.5391 L 121.9113,2.6093 L 121.6582,2.8618 L 121.5879,2.9600 L 121.5176,3.0722 L 121.4473,3.1984 L 121.3911,3.3247 L 121.3489,3.4650 L 121.2927,3.6053 L 121.2645,3.7596 L 121.2083,4.1243 L 121.1942,4.3067 L 121.1802,4.5171 L 124.0343,4.5171 L 124.0484,4.5171 Z" stroke="#D6D5D4" stroke-width="0.1200" stroke-linecap="round" stroke-linejoin="round" fill="#EFEFEF"/>
        <path d="M 128.7302,7.9260 L 128.7302,10.2547 L 130.2768,10.2547 L 130.2768,7.9260 L 128.7302,7.9260 Z" stroke="#D6D5D4" stroke-width="0.1200" stroke-linecap="round" stroke-linejoin="round" fill="#EFEFEF"/>
        <path d="M 128.7302,2.2024 L 128.7302,4.5311 L 130.2768,4.5311 L 130.2768,2.2024 L 128.7302,2.2024 Z" stroke="#D6D5D4" stroke-width="0.1200" stroke-linecap="round" stroke-linejoin="round" fill="#EFEFEF"/>
        <path d="M 89.9537,0.4770 L 6.7627,0.4770 L 6.7486,0.4910 L 6.7346,0.4910 L 6.7205,0.5050 L 6.6924,0.5050 L 6.6643,0.5331 L 6.6502,0.5331 L 6.6362,0.5471 L 6.6362,0.5611 L 6.6221,0.5611 L 6.6080,0.5752 L 6.6080,0.5892 L 6.5799,0.6172 L 6.5799,0.6453 L 6.5659,0.6593 L 6.5659,0.6734 L 6.5518,0.6874 L 6.5518,11.7697 L 6.5659,11.7838 L 6.5659,11.7978 L 6.5799,11.8118 L 6.5799,11.8399 L 6.6080,11.8679 L 6.6080,11.8820 L 6.6221,11.8960 L 6.6362,11.8960 L 6.6362,11.9100 L 6.6502,11.9240 L 6.6643,11.9240 L 6.6924,11.9521 L 6.7205,11.9521 L 6.7346,11.9661 L 6.7486,11.9661 L 6.7627,11.9802 L 130.0659,11.9802 L 130.0799,11.9661 L 130.0940,11.9661 L 130.1081,11.9521 L 130.1362,11.9521 L 130.1643,11.9240 L 130.1784,11.9240 L 130.1924,11.9100 L 130.1924,11.8960 L 130.2065,11.8960 L 130.2205,11.8820 L 130.2205,11.8679 L 130.2487,11.8399 L 130.2487,11.8118 L 130.2627,11.7978 L 130.2627,11.7838 L 130.2768,11.7697 L 130.2768,0.6874 L 130.2627,0.6734 L 130.2627,0.6593 L 130.2487,0.6453 L 130.2487,0.6172 L 130.2205,0.5892 L 130.2205,0.5752 L 130.2065,0.5611 L 130.1924,0.5611 L 130.1924,0.5471 L 130.1784,0.5331 L 130.1643,0.5331 L 130.1362,0.5050 L 130.1081,0.5050 L 130.0940,0.4910 L 130.0799,0.4910 L 130.0659,0.4770 L 90.0662,0.4770 L 89.9537,0.4770 Z" stroke="#A8A6A3" stroke-width="0.1200" stroke-linecap="round" stroke-linejoin="round" fill="none"/>
        <path d="M 9.6309,3.7035 L 9.6309,6.2426 L 9.6449,6.2706 L 9.6449,6.3127 L 9.6590,6.3548 L 9.6590,6.3829 L 9.6730,6.4250 L 9.7012,6.4811 L 9.7152,6.5232 L 9.7433,6.5512 L 9.7574,6.5793 L 9.7855,6.6073 L 9.7996,6.6354 L 9.9121,6.7476 L 9.9402,6.7616 L 9.9683,6.7897 L 9.9964,6.8037 L 10.0245,6.8318 L 10.0667,6.8458 L 10.1230,6.8739 L 10.1651,6.8879 L 10.1933,6.8879 L 10.2354,6.9019 L 10.2776,6.9019 L 10.3057,6.9159 L 26.8399,6.9159 L 26.8680,6.9019 L 26.9102,6.9019 L 26.9524,6.8879 L 26.9805,6.8879 L 27.0227,6.8739 L 27.0789,6.8458 L 27.1211,6.8318 L 27.1492,6.8037 L 27.1773,6.7897 L 27.2054,6.7616 L 27.2336,6.7476 L 27.3460,6.6354 L 27.3601,6.6073 L 27.3882,6.5793 L 27.4023,6.5512 L 27.4304,6.5232 L 27.4445,6.4811 L 27.4726,6.4250 L 27.4866,6.3829 L 27.4866,6.3548 L 27.5007,6.3127 L 27.5007,6.2706 L 27.5147,6.2426 L 27.5147,3.7456 L 27.5147,3.7175 " stroke="#000000" stroke-width="0.1200" stroke-linecap="round" stroke-linejoin="round" fill="none"/>
        <path d="M 9.6309,10.1284 L 9.6309,7.5893 L 9.6449,7.5612 L 9.6449,7.5192 L 9.6590,7.4771 L 9.6590,7.4490 L 9.6730,7.4069 L 9.7012,7.3508 L 9.7152,7.3087 L 9.7433,7.2807 L 9.7574,7.2526 L 9.7855,7.2246 L 9.7996,7.1965 L 9.9121,7.0843 L 9.9402,7.0703 L 9.9683,7.0422 L 9.9964,7.0282 L 10.0245,7.0001 L 10.0667,6.9861 L 10.1230,6.9580 L 10.1651,6.9440 L 10.1933,6.9440 L 10.2354,6.9300 L 10.2776,6.9300 L 10.3057,6.9159 L 26.8399,6.9159 L 26.8680,6.9300 L 26.9102,6.9300 L 26.9524,6.9440 L 26.9805,6.9440 L 27.0227,6.9580 L 27.0789,6.9861 L 27.1211,7.0001 L 27.1492,7.0282 L 27.1773,7.0422 L 27.2054,7.0703 L 27.2336,7.0843 L 27.3460,7.1965 L 27.3601,7.2246 L 27.3882,7.2526 L 27.4023,7.2807 L 27.4304,7.3087 L 27.4445,7.3508 L 27.4726,7.4069 L 27.4866,7.4490 L 27.4866,7.4771 L 27.5007,7.5192 L 27.5007,7.5612 L 27.5147,7.5893 L 27.5147,10.0863 L 27.5147,10.1144 " stroke="#000000" stroke-width="0.1200" stroke-linecap="round" stroke-linejoin="round" fill="none"/>
        <path d="M 99.9079,6.1724 L 95.5635,6.1724 L 95.5635,10.1845 L 99.9079,10.1845 L 99.9079,6.1724 Z" stroke="#000000" stroke-width="0.1200" stroke-linecap="round" stroke-linejoin="round" fill="#999999"/>
        <path d="M 68.5830,2.2866 L 43.6412,2.2866 L 43.6412,10.1845 L 68.5830,10.1845 L 68.5830,2.2866 Z" stroke="#000000" stroke-width="0.1200" stroke-linecap="round" stroke-linejoin="round" fill="#999999"/>
        <path d="M 68.5830,3.8017 L 68.3721,3.8017 L 68.3721,4.6293 L 68.5830,4.6293 L 68.5830,3.8017 Z" stroke="#000000" stroke-width="0.1200" stroke-linecap="round" stroke-linejoin="round" fill="#000000"/>
        <path d="M 68.5830,7.8278 L 68.3721,7.8278 L 68.3721,8.6555 L 68.5830,8.6555 L 68.5830,7.8278 Z" stroke="#000000" stroke-width="0.1200" stroke-linecap="round" stroke-linejoin="round" fill="#000000"/>
        <path d="M 43.8521,3.8017 L 43.6412,3.8017 L 43.6412,4.6293 L 43.8521,4.6293 L 43.8521,3.8017 Z" stroke="#000000" stroke-width="0.1200" stroke-linecap="round" stroke-linejoin="round" fill="#000000"/>
        <path d="M 43.8521,7.8278 L 43.6412,7.8278 L 43.6412,8.6555 L 43.8521,8.6555 L 43.8521,7.8278 Z" stroke="#000000" stroke-width="0.1200" stroke-linecap="round" stroke-linejoin="round" fill="#000000"/>
        <path d="M 52.3160,9.9881 L 51.6974,9.9881 L 51.6974,10.1845 L 52.3160,10.1845 L 52.3160,9.9881 Z" stroke="#000000" stroke-width="0.1200" stroke-linecap="round" stroke-linejoin="round" fill="#000000"/>
        <path d="M 56.4214,9.9881 L 55.8028,9.9881 L 55.8028,10.1845 L 56.4214,10.1845 L 56.4214,9.9881 Z" stroke="#000000" stroke-width="0.1200" stroke-linecap="round" stroke-linejoin="round" fill="#000000"/>
        <path d="M 60.5268,9.9881 L 59.9082,9.9881 L 59.9082,10.1845 L 60.5268,10.1845 L 60.5268,9.9881 Z" stroke="#000000" stroke-width="0.1200" stroke-linecap="round" stroke-linejoin="round" fill="#000000"/>
        <path d="M 64.6322,9.9881 L 64.0136,9.9881 L 64.0136,10.1845 L 64.6322,10.1845 L 64.6322,9.9881 Z" stroke="#000000" stroke-width="0.1200" stroke-linecap="round" stroke-linejoin="round" fill="#000000"/>
        <path d="M 48.2106,9.9881 L 47.5919,9.9881 L 47.5919,10.1845 L 48.2106,10.1845 L 48.2106,9.9881 Z" stroke="#000000" stroke-width="0.1200" stroke-linecap="round" stroke-linejoin="round" fill="#000000"/>
        <path d="M 52.3160,2.2866 L 51.6974,2.2866 L 51.6974,2.4830 L 52.3160,2.4830 L 52.3160,2.2866 Z" stroke="#000000" stroke-width="0.1200" stroke-linecap="round" stroke-linejoin="round" fill="#000000"/>
        <path d="M 56.4214,2.2866 L 55.8028,2.2866 L 55.8028,2.4830 L 56.4214,2.4830 L 56.4214,2.2866 Z" stroke="#000000" stroke-width="0.1200" stroke-linecap="round" stroke-linejoin="round" fill="#000000"/>
        <path d="M 60.5268,2.2866 L 59.9082,2.2866 L 59.9082,2.4830 L 60.5268,2.4830 L 60.5268,2.2866 Z" stroke="#000000" stroke-width="0.1200" stroke-linecap="round" stroke-linejoin="round" fill="#000000"/>
        <path d="M 64.6322,2.2866 L 64.0136,2.2866 L 64.0136,2.4830 L 64.6322,2.4830 L 64.6322,2.2866 Z" stroke="#000000" stroke-width="0.1200" stroke-linecap="round" stroke-linejoin="round" fill="#000000"/>
        <path d="M 48.2106,2.2866 L 47.5919,2.2866 L 47.5919,2.4830 L 48.2106,2.4830 L 48.2106,2.2866 Z" stroke="#000000" stroke-width="0.1200" stroke-linecap="round" stroke-linejoin="round" fill="#000000"/>
        <path d="M 94.2841,2.2866 L 69.3422,2.2866 L 69.3422,10.1845 L 94.2841,10.1845 L 94.2841,2.2866 Z" stroke="#000000" stroke-width="0.1200" stroke-linecap="round" stroke-linejoin="round" fill="#999999"/>
        <path d="M 94.2841,3.8017 L 94.0732,3.8017 L 94.0732,4.6293 L 94.2841,4.6293 L 94.2841,3.8017 Z" stroke="#000000" stroke-width="0.1200" stroke-linecap="round" stroke-linejoin="round" fill="#000000"/>
        <path d="M 94.2841,7.8278 L 94.0732,7.8278 L 94.0732,8.6555 L 94.2841,8.6555 L 94.2841,7.8278 Z" stroke="#000000" stroke-width="0.1200" stroke-linecap="round" stroke-linejoin="round" fill="#000000"/>
        <path d="M 69.5531,3.8017 L 69.3422,3.8017 L 69.3422,4.6293 L 69.5531,4.6293 L 69.5531,3.8017 Z" stroke="#000000" stroke-width="0.1200" stroke-linecap="round" stroke-linejoin="round" fill="#000000"/>
        <path d="M 69.5531,7.8278 L 69.3422,7.8278 L 69.3422,8.6555 L 69.5531,8.6555 L 69.5531,7.8278 Z" stroke="#000000" stroke-width="0.1200" stroke-linecap="round" stroke-linejoin="round" fill="#000000"/>
        <path d="M 78.0170,9.9881 L 77.3984,9.9881 L 77.3984,10.1845 L 78.0170,10.1845 L 78.0170,9.9881 Z" stroke="#000000" stroke-width="0.1200" stroke-linecap="round" stroke-linejoin="round" fill="#000000"/>
        <path d="M 82.1225,9.9881 L 81.5038,9.9881 L 81.5038,10.1845 L 82.1225,10.1845 L 82.1225,9.9881 Z" stroke="#000000" stroke-width="0.1200" stroke-linecap="round" stroke-linejoin="round" fill="#000000"/>
        <path d="M 86.2279,9.9881 L 85.6093,9.9881 L 85.6093,10.1845 L 86.2279,10.1845 L 86.2279,9.9881 Z" stroke="#000000" stroke-width="0.1200" stroke-linecap="round" stroke-linejoin="round" fill="#000000"/>
        <path d="M 90.3333,9.9881 L 89.7147,9.9881 L 89.7147,10.1845 L 90.3333,10.1845 L 90.3333,9.9881 Z" stroke="#000000" stroke-width="0.1200" stroke-linecap="round" stroke-linejoin="round" fill="#000000"/>
        <path d="M 73.9116,9.9881 L 73.2930,9.9881 L 73.2930,10.1845 L 73.9116,10.1845 L 73.9116,9.9881 Z" stroke="#000000" stroke-width="0.1200" stroke-linecap="round" stroke-linejoin="round" fill="#000000"/>
        <path d="M 78.0170,2.2866 L 77.3984,2.2866 L 77.3984,2.4830 L 78.0170,2.4830 L 78.0170,2.2866 Z" stroke="#000000" stroke-width="0.1200" stroke-linecap="round" stroke-linejoin="round" fill="#000000"/>
        <path d="M 82.1225,2.2866 L 81.5038,2.2866 L 81.5038,2.4830 L 82.1225,2.4830 L 82.1225,2.2866 Z" stroke="#000000" stroke-width="0.1200" stroke-linecap="round" stroke-linejoin="round" fill="#000000"/>
        <path d="M 86.2279,2.2866 L 85.6093,2.2866 L 85.6093,2.4830 L 86.2279,2.4830 L 86.2279,2.2866 Z" stroke="#000000" stroke-width="0.1200" stroke-linecap="round" stroke-linejoin="round" fill="#000000"/>
        <path d="M 90.3333,2.2866 L 89.7147,2.2866 L 89.7147,2.4830 L 90.3333,2.4830 L 90.3333,2.2866 Z" stroke="#000000" stroke-width="0.1200" stroke-linecap="round" stroke-linejoin="round" fill="#000000"/>
        <path d="M 73.9116,2.2866 L 73.2930,2.2866 L 73.2930,2.4830 L 73.9116,2.4830 L 73.9116,2.2866 Z" stroke="#000000" stroke-width="0.1200" stroke-linecap="round" stroke-linejoin="round" fill="#000000"/>
        <path d="M 68.5830,1.9640 L 43.6412,1.9640 L 43.6412,1.3046 L 68.5830,1.3046 L 68.5830,1.9640 Z" stroke="#FF422D" stroke-width="0.1200" stroke-linecap="round" stroke-linejoin="round" fill="#FF422D"/>
        <path d="M 68.5830,11.1665 L 43.6412,11.1665 L 43.6412,10.5072 L 68.5830,10.5072 L 68.5830,11.1665 Z" stroke="#FF422D" stroke-width="0.1200" stroke-linecap="round" stroke-linejoin="round" fill="#FF422D"/>
        <path d="M 102.2137,9.6374 L 105.0256,9.6374 L 105.0538,9.6234 L 105.0959,9.6234 L 105.1100,9.6094 L 105.1381,9.6094 L 105.1662,9.5813 L 105.1944,9.5673 L 105.2084,9.5673 L 105.2365,9.5392 L 105.2647,9.5252 L 105.2928,9.4971 L 105.3068,9.4691 L 105.3349,9.4410 L 105.3349,9.4270 L 105.3490,9.3990 L 105.3771,9.3709 L 105.3771,9.3428 L 105.3912,9.3288 L 105.3912,9.2867 L 105.4052,9.2587 L 105.4052,5.8358 L 105.3912,5.8077 L 105.3912,5.7656 L 105.3771,5.7516 L 105.3771,5.7235 L 105.3490,5.6955 L 105.3349,5.6674 L 105.3349,5.6534 L 105.3068,5.6253 L 105.2928,5.5973 L 105.2647,5.5692 L 105.2365,5.5552 L 105.2084,5.5271 L 105.1944,5.5271 L 105.1662,5.5131 L 105.1381,5.4851 L 105.1100,5.4851 L 105.0959,5.4710 L 105.0538,5.4710 L 105.0256,5.4570 L 102.5652,5.4570 L 102.4387,5.4570 " stroke="#000000" stroke-width="0.1200" stroke-linecap="round" stroke-linejoin="round" fill="none"/>
        <path d="M 107.2892,10.1845 L 103.3244,10.1845 L 103.3244,7.4771 L 107.2892,7.4771 L 107.2892,10.1845 Z" stroke="#000000" stroke-width="0.1200" stroke-linecap="round" stroke-linejoin="round" fill="#494949"/>
        <path d="M 100.9483,5.4570 L 98.1083,5.4570 L 98.0802,5.4710 L 98.0380,5.4710 L 98.0239,5.4851 L 97.9958,5.4851 L 97.9677,5.5131 L 97.9396,5.5271 L 97.9255,5.5271 L 97.8974,5.5552 L 97.8693,5.5692 L 97.8412,5.5973 L 97.8271,5.6253 L 97.7990,5.6534 L 97.7990,5.6674 L 97.7849,5.6955 L 97.7568,5.7235 L 97.7568,5.7516 L 97.7427,5.7656 L 97.7427,5.8077 L 97.7287,5.8358 L 97.7287,6.1584 L 97.7287,6.1724 " stroke="#000000" stroke-width="0.1200" stroke-linecap="round" stroke-linejoin="round" fill="none"/>
        <path d="M 10.7556,4.8959 L 10.1933,4.8959 L 10.1933,4.1524 L 10.7556,4.1524 L 10.7556,4.8959 Z" stroke="#FF422D" stroke-width="0.1200" stroke-linecap="round" stroke-linejoin="round" fill="#FF422D"/>
        <path d="M 12.0069,4.8959 L 11.4446,4.8959 L 11.4446,4.1524 L 12.0069,4.1524 L 12.0069,4.8959 Z" stroke="#FF422D" stroke-width="0.1200" stroke-linecap="round" stroke-linejoin="round" fill="#FF422D"/>
        <path d="M 13.2583,4.8959 L 12.6959,4.8959 L 12.6959,4.1524 L 13.2583,4.1524 L 13.2583,4.8959 Z" stroke="#FF422D" stroke-width="0.1200" stroke-linecap="round" stroke-linejoin="round" fill="#FF422D"/>
        <path d="M 14.4955,4.8959 L 13.9331,4.8959 L 13.9331,4.1524 L 14.4955,4.1524 L 14.4955,4.8959 Z" stroke="#FF422D" stroke-width="0.1200" stroke-linecap="round" stroke-linejoin="round" fill="#FF422D"/>
        <path d="M 15.7468,4.8959 L 15.1844,4.8959 L 15.1844,4.1524 L 15.7468,4.1524 L 15.7468,4.8959 Z" stroke="#FF422D" stroke-width="0.1200" stroke-linecap="round" stroke-linejoin="round" fill="#FF422D"/>
        <path d="M 16.9981,4.8959 L 16.4357,4.8959 L 16.4357,4.1524 L 16.9981,4.1524 L 16.9981,4.8959 Z" stroke="#FF422D" stroke-width="0.1200" stroke-linecap="round" stroke-linejoin="round" fill="#FF422D"/>
        <path d="M 10.7556,8.5432 L 10.1933,8.5432 L 10.1933,7.7997 L 10.7556,7.7997 L 10.7556,8.5432 Z" stroke="#FF422D" stroke-width="0.1200" stroke-linecap="round" stroke-linejoin="round" fill="#FF422D"/>
        <path d="M 12.0069,8.5432 L 11.4446,8.5432 L 11.4446,7.7997 L 12.0069,7.7997 L 12.0069,8.5432 Z" stroke="#FF422D" stroke-width="0.1200" stroke-linecap="round" stroke-linejoin="round" fill="#FF422D"/>
        <path d="M 13.2583,8.5432 L 12.6959,8.5432 L 12.6959,7.7997 L 13.2583,7.7997 L 13.2583,8.5432 Z" stroke="#FF422D" stroke-width="0.1200" stroke-linecap="round" stroke-linejoin="round" fill="#FF422D"/>
        <path d="M 14.4955,8.5432 L 13.9331,8.5432 L 13.9331,7.7997 L 14.4955,7.7997 L 14.4955,8.5432 Z" stroke="#FF422D" stroke-width="0.1200" stroke-linecap="round" stroke-linejoin="round" fill="#FF422D"/>
        <path d="M 15.7468,8.5432 L 15.1844,8.5432 L 15.1844,7.7997 L 15.7468,7.7997 L 15.7468,8.5432 Z" stroke="#FF422D" stroke-width="0.1200" stroke-linecap="round" stroke-linejoin="round" fill="#FF422D"/>
        <path d="M 16.9981,8.5432 L 16.4357,8.5432 L 16.4357,7.7997 L 16.9981,7.7997 L 16.9981,8.5432 Z" stroke="#FF422D" stroke-width="0.1200" stroke-linecap="round" stroke-linejoin="round" fill="#FF422D"/>
        <path d="M 115.0642,6.1724 L 110.7198,6.1724 L 110.7198,10.1845 L 115.0642,10.1845 L 115.0642,6.1724 Z" stroke="#000000" stroke-width="0.1200" stroke-linecap="round" stroke-linejoin="round" fill="#999999"/>
        <path d="M 117.3700,9.6374 L 120.1819,9.6374 L 120.2101,9.6234 L 120.2522,9.6234 L 120.2663,9.6094 L 120.2944,9.6094 L 120.3225,9.5813 L 120.3507,9.5673 L 120.3647,9.5673 L 120.3928,9.5392 L 120.4210,9.5252 L 120.4491,9.4971 L 120.4631,9.4691 L 120.4913,9.4410 L 120.4913,9.4270 L 120.5053,9.3990 L 120.5334,9.3709 L 120.5334,9.3428 L 120.5475,9.3288 L 120.5475,9.2867 L 120.5616,9.2587 L 120.5616,5.8358 L 120.5475,5.8077 L 120.5475,5.7656 L 120.5334,5.7516 L 120.5334,5.7235 L 120.5053,5.6955 L 120.4913,5.6674 L 120.4913,5.6534 L 120.4631,5.6253 L 120.4491,5.5973 L 120.4210,5.5692 L 120.3928,5.5552 L 120.3647,5.5271 L 120.3507,5.5271 L 120.3225,5.5131 L 120.2944,5.4851 L 120.2663,5.4851 L 120.2522,5.4710 L 120.2101,5.4710 L 120.1819,5.4570 L 117.7215,5.4570 L 117.5950,5.4570 " stroke="#000000" stroke-width="0.1200" stroke-linecap="round" stroke-linejoin="round" fill="none"/>
        <path d="M 122.4456,10.1845 L 118.4807,10.1845 L 118.4807,7.4771 L 122.4456,7.4771 L 122.4456,10.1845 Z" stroke="#000000" stroke-width="0.1200" stroke-linecap="round" stroke-linejoin="round" fill="#494949"/>
        <path d="M 116.1046,5.4570 L 113.2646,5.4570 L 113.2365,5.4710 L 113.1943,5.4710 L 113.1802,5.4851 L 113.1521,5.4851 L 113.1240,5.5131 L 113.0959,5.5271 L 113.0818,5.5271 L 113.0537,5.5552 L 113.0256,5.5692 L 112.9975,5.5973 L 112.9834,5.6253 L 112.9553,5.6534 L 112.9553,5.6674 L 112.9412,5.6955 L 112.9131,5.7235 L 112.9131,5.7516 L 112.8990,5.7656 L 112.8990,5.8077 L 112.8850,5.8358 L 112.8850,6.1584 L 112.8850,6.1724 " stroke="#000000" stroke-width="0.1200" stroke-linecap="round" stroke-linejoin="round" fill="none"/>
        <text font-family="Arial" fill="#000000" style="white-space:pre;" font-weight="400" text-anchor="start" x="29.6940" y="1.4595" font-size="0.2812"><![CDATA[FortiSwitch 124B-POE]]></text>
        <path d="M 7.3142,2.5745 L 7.3001,2.5745 L 7.2931,2.5676 L 7.2861,2.5676 L 7.2651,2.5469 L 7.2651,2.5399 L 7.2580,2.5330 L 7.2580,1.7302 L 7.2651,1.7233 L 7.2651,1.7164 L 7.2721,1.7094 L 7.2791,1.7094 L 7.2791,1.7025 L 7.2861,1.6956 L 7.2931,1.6956 L 7.3001,1.6887 L 8.2548,1.6887 L 8.2618,1.6956 L 8.2688,1.6956 L 8.2899,1.7164 L 8.2899,1.7233 L 8.2969,1.7302 L 8.2969,1.8894 L 8.2899,1.8894 L 8.2899,1.8825 L 8.2829,1.8825 L 8.2829,1.8755 L 8.2758,1.8755 L 8.2758,1.8686 L 8.2618,1.8686 L 8.2618,1.8617 L 7.4897,1.8617 L 7.4897,1.8686 L 7.4756,1.8686 L 7.4756,1.8755 L 7.4686,1.8755 L 7.4686,1.8894 L 7.4616,1.8894 L 7.4616,2.5469 L 7.4686,2.5469 L 7.4686,2.5607 L 7.4756,2.5607 L 7.4756,2.5676 L 7.4827,2.5676 L 7.4827,2.5745 L 7.3212,2.5745 L 7.3142,2.5745 Z" stroke="#161616" stroke-width="0.1200" stroke-linecap="round" stroke-linejoin="round" fill="#161616"/>
        <path d="M 8.2267,2.0624 L 7.5318,2.0624 L 7.5318,2.0555 L 7.5177,2.0555 L 7.5177,2.0486 L 7.5107,2.0486 L 7.5107,2.0347 L 7.5037,2.0347 L 7.5037,2.2077 L 7.5107,2.2077 L 7.5107,2.2216 L 7.5177,2.2216 L 7.5177,2.2285 L 7.5318,2.2285 L 7.5318,2.2354 L 8.2407,2.2354 L 8.2548,2.2216 L 8.2618,2.2216 L 8.2758,2.2077 L 8.2758,2.2008 L 8.2829,2.1939 L 8.2829,2.1870 L 8.2899,2.1801 L 8.2899,2.1662 L 8.2969,2.1593 L 8.2969,2.1385 L 8.2899,2.1316 L 8.2899,2.1109 L 8.2758,2.0970 L 8.2758,2.0901 L 8.2688,2.0832 L 8.2618,2.0832 L 8.2618,2.0762 L 8.2548,2.0762 L 8.2478,2.0693 L 8.2407,2.0693 L 8.2337,2.0624 L 8.2267,2.0624 Z" stroke="#161616" stroke-width="0.1200" stroke-linecap="round" stroke-linejoin="round" fill="#161616"/>
        <path d="M 9.8482,2.2354 L 9.8341,2.2354 L 9.8341,2.2285 L 9.8201,2.2285 L 9.8201,2.2216 L 9.8131,2.2216 L 9.8131,2.2077 L 9.8061,2.2077 L 9.8061,2.0347 L 9.8131,2.0347 L 9.8131,2.0486 L 9.8201,2.0486 L 9.8201,2.0555 L 9.8341,2.0555 L 9.8341,2.0624 L 10.3957,2.0624 L 10.3957,1.8617 L 9.7920,1.8617 L 9.7920,1.8686 L 9.7780,1.8686 L 9.7780,1.8755 L 9.7710,1.8755 L 9.7710,1.8894 L 9.7639,1.8894 L 9.7639,2.5469 L 9.7710,2.5469 L 9.7710,2.5607 L 9.7780,2.5607 L 9.7780,2.5676 L 9.7850,2.5676 L 9.7850,2.5745 L 9.6025,2.5745 L 9.5955,2.5676 L 9.5885,2.5676 L 9.5674,2.5469 L 9.5674,2.5399 L 9.5604,2.5330 L 9.5604,1.7302 L 9.5674,1.7233 L 9.5674,1.7164 L 9.5744,1.7094 L 9.5814,1.7094 L 9.5814,1.7025 L 9.5885,1.6956 L 9.5955,1.6956 L 9.6025,1.6887 L 10.5571,1.6887 L 10.5642,1.6956 L 10.5712,1.6956 L 10.5922,1.7164 L 10.5922,1.7233 L 10.5993,1.7302 L 10.5993,2.1662 L 10.5922,2.1731 L 10.5922,2.1870 L 10.5852,2.1870 L 10.5852,2.1939 L 10.5782,2.2008 L 10.5782,2.2077 L 10.5712,2.2077 L 10.5712,2.2147 L 10.5642,2.2147 L 10.5642,2.2216 L 10.5571,2.2216 L 10.5571,2.2285 L 10.5501,2.2285 L 10.5431,2.2354 L 10.5501,2.2423 L 10.5571,2.2423 L 10.5571,2.2493 L 10.5642,2.2493 L 10.5642,2.2562 L 10.5712,2.2562 L 10.5712,2.2631 L 10.5782,2.2631 L 10.5782,2.2700 L 10.5852,2.2770 L 10.5852,2.2839 L 10.5922,2.2839 L 10.5922,2.2977 L 10.5993,2.3046 L 10.5993,2.5469 L 10.6063,2.5469 L 10.6063,2.5607 L 10.6133,2.5607 L 10.6133,2.5676 L 10.6203,2.5676 L 10.6203,2.5745 L 10.4378,2.5745 L 10.4308,2.5676 L 10.4238,2.5676 L 10.4027,2.5469 L 10.4027,2.5399 L 10.3957,2.5330 L 10.3957,2.2354 L 9.8552,2.2354 L 9.8482,2.2354 Z" stroke="#161616" stroke-width="0.1200" stroke-linecap="round" stroke-linejoin="round" fill="#161616"/>
        <path d="M 10.9643,1.8617 L 10.7537,1.8617 L 10.7467,1.8548 L 10.7396,1.8548 L 10.7186,1.8340 L 10.7186,1.8271 L 10.7116,1.8202 L 10.7116,1.7302 L 10.7186,1.7233 L 10.7186,1.7164 L 10.7256,1.7094 L 10.7326,1.7094 L 10.7326,1.7025 L 10.7396,1.6956 L 10.7467,1.6956 L 10.7537,1.6887 L 11.7083,1.6887 L 11.7153,1.6956 L 11.7224,1.6956 L 11.7434,1.7164 L 11.7434,1.7233 L 11.7504,1.7302 L 11.7504,1.8894 L 11.7434,1.8894 L 11.7434,1.8825 L 11.7364,1.8825 L 11.7364,1.8755 L 11.7294,1.8755 L 11.7294,1.8686 L 11.7153,1.8686 L 11.7153,1.8617 L 11.1959,1.8617 L 11.1959,1.8686 L 11.1819,1.8686 L 11.1819,1.8755 L 11.1748,1.8755 L 11.1748,1.8894 L 11.1678,1.8894 L 11.1678,2.5469 L 11.1748,2.5469 L 11.1748,2.5607 L 11.1819,2.5607 L 11.1819,2.5676 L 11.1889,2.5676 L 11.1889,2.5745 L 11.0064,2.5745 L 10.9994,2.5676 L 10.9923,2.5676 L 10.9713,2.5469 L 10.9713,2.5399 L 10.9643,2.5330 L 10.9643,1.8825 L 10.9643,1.8617 Z" stroke="#161616" stroke-width="0.1200" stroke-linecap="round" stroke-linejoin="round" fill="#161616"/>
        <path d="M 12.0663,2.5261 L 12.0663,2.5469 L 12.0733,2.5469 L 12.0733,2.5607 L 12.0803,2.5607 L 12.0803,2.5676 L 12.0874,2.5676 L 12.0874,2.5745 L 11.9049,2.5745 L 11.8978,2.5676 L 11.8908,2.5676 L 11.8698,2.5469 L 11.8698,2.5399 L 11.8627,2.5330 L 11.8627,1.7164 L 11.8557,1.7164 L 11.8557,1.7025 L 11.8487,1.7025 L 11.8487,1.6956 L 11.8417,1.6956 L 11.8417,1.6887 L 12.0242,1.6887 L 12.0312,1.6956 L 12.0382,1.6956 L 12.0593,1.7164 L 12.0593,1.7233 L 12.0663,1.7302 L 12.0663,2.5192 L 12.0663,2.5261 Z" stroke="#161616" stroke-width="0.1200" stroke-linecap="round" stroke-linejoin="round" fill="#161616"/>
        <path d="M 13.0631,1.8617 L 12.4594,1.8617 L 12.4594,1.8686 L 12.4453,1.8686 L 12.4453,1.8755 L 12.4383,1.8755 L 12.4383,1.8894 L 12.4313,1.8894 L 12.4313,2.5469 L 12.4383,2.5469 L 12.4383,2.5607 L 12.4453,2.5607 L 12.4453,2.5676 L 12.4524,2.5676 L 12.4524,2.5745 L 12.2699,2.5745 L 12.2628,2.5676 L 12.2558,2.5676 L 12.2348,2.5469 L 12.2348,2.5399 L 12.2277,2.5330 L 12.2277,1.7302 L 12.2348,1.7233 L 12.2348,1.7164 L 12.2418,1.7094 L 12.2488,1.7094 L 12.2488,1.7025 L 12.2558,1.6956 L 12.2628,1.6956 L 12.2699,1.6887 L 13.2245,1.6887 L 13.2315,1.6956 L 13.2385,1.6956 L 13.2596,1.7164 L 13.2596,1.7233 L 13.2666,1.7302 L 13.2666,2.5469 L 13.2736,2.5469 L 13.2736,2.5607 L 13.2807,2.5607 L 13.2807,2.5676 L 13.2877,2.5676 L 13.2877,2.5745 L 13.1052,2.5745 L 13.0981,2.5676 L 13.0911,2.5676 L 13.0701,2.5469 L 13.0701,2.5399 L 13.0631,2.5330 L 13.0631,1.8825 L 13.0631,1.8617 Z" stroke="#161616" stroke-width="0.1200" stroke-linecap="round" stroke-linejoin="round" fill="#161616"/>
        <path d="M 14.2985,2.0624 L 13.6527,2.0624 L 13.6457,2.0555 L 13.6386,2.0555 L 13.6386,2.0486 L 13.6316,2.0486 L 13.6316,2.0347 L 13.6246,2.0347 L 13.6246,2.2077 L 13.6316,2.2077 L 13.6316,2.2216 L 13.6386,2.2216 L 13.6386,2.2285 L 13.6457,2.2285 L 13.6527,2.2354 L 14.3055,2.2354 L 14.3195,2.2216 L 14.3265,2.2216 L 14.3406,2.2077 L 14.3406,2.2008 L 14.3476,2.1939 L 14.3476,2.1870 L 14.3546,2.1801 L 14.3546,2.1662 L 14.3616,2.1593 L 14.3616,2.1316 L 14.3546,2.1247 L 14.3546,2.1039 L 14.3476,2.1039 L 14.3476,2.0970 L 14.3265,2.0762 L 14.3195,2.0762 L 14.3195,2.0693 L 14.3125,2.0693 L 14.3055,2.0624 L 14.2985,2.0624 Z" stroke="#161616" stroke-width="0.1200" stroke-linecap="round" stroke-linejoin="round" fill="#161616"/>
        <path d="M 14.7828,1.8617 L 14.5722,1.8617 L 14.5652,1.8548 L 14.5582,1.8548 L 14.5371,1.8340 L 14.5371,1.8271 L 14.5301,1.8202 L 14.5301,1.7302 L 14.5371,1.7233 L 14.5371,1.7164 L 14.5441,1.7094 L 14.5512,1.7094 L 14.5512,1.7025 L 14.5582,1.6956 L 14.5652,1.6956 L 14.5722,1.6887 L 15.5269,1.6887 L 15.5339,1.6956 L 15.5409,1.6956 L 15.5619,1.7164 L 15.5619,1.7233 L 15.5690,1.7302 L 15.5690,1.8894 L 15.5619,1.8894 L 15.5619,1.8825 L 15.5549,1.8825 L 15.5549,1.8755 L 15.5479,1.8755 L 15.5479,1.8686 L 15.5339,1.8686 L 15.5339,1.8617 L 15.0144,1.8617 L 15.0144,1.8686 L 15.0004,1.8686 L 15.0004,1.8755 L 14.9934,1.8755 L 14.9934,1.8894 L 14.9864,1.8894 L 14.9864,2.5469 L 14.9934,2.5469 L 14.9934,2.5607 L 15.0004,2.5607 L 15.0004,2.5676 L 15.0074,2.5676 L 15.0074,2.5745 L 14.8249,2.5745 L 14.8179,2.5676 L 14.8109,2.5676 L 14.7898,2.5469 L 14.7898,2.5399 L 14.7828,2.5330 L 14.7828,1.8825 L 14.7828,1.8617 Z" stroke="#161616" stroke-width="0.1200" stroke-linecap="round" stroke-linejoin="round" fill="#161616"/>
        <path d="M 14.3687,2.4015 L 14.3827,2.4015 L 14.3827,2.3946 L 14.3967,2.3946 L 14.3967,2.3877 L 14.4038,2.3877 L 14.4038,2.3808 L 14.4108,2.3808 L 14.4108,2.3738 L 14.4178,2.3738 L 14.4178,2.5330 L 14.4108,2.5399 L 14.4108,2.5469 L 14.4038,2.5538 L 14.4038,2.5607 L 14.3967,2.5607 L 14.3897,2.5676 L 14.3827,2.5676 L 14.3757,2.5745 L 13.4210,2.5745 L 13.4140,2.5676 L 13.4070,2.5676 L 13.3859,2.5469 L 13.3859,2.5399 L 13.3789,2.5330 L 13.3789,1.7302 L 13.3859,1.7233 L 13.3859,1.7164 L 13.3930,1.7094 L 13.4000,1.7094 L 13.4000,1.7025 L 13.4070,1.6956 L 13.4140,1.6956 L 13.4210,1.6887 L 14.3757,1.6887 L 14.3827,1.6956 L 14.3897,1.6956 L 14.4108,1.7164 L 14.4108,1.7233 L 14.4178,1.7302 L 14.4178,1.8894 L 14.4108,1.8894 L 14.4108,1.8825 L 14.4038,1.8825 L 14.4038,1.8755 L 14.3967,1.8755 L 14.3967,1.8686 L 14.3827,1.8686 L 14.3827,1.8617 L 13.6106,1.8617 L 13.6106,1.8686 L 13.5965,1.8686 L 13.5965,1.8755 L 13.5895,1.8755 L 13.5895,1.8894 L 13.5825,1.8894 L 13.5825,2.4015 L 14.3616,2.4015 L 14.3687,2.4015 Z" stroke="#161616" stroke-width="0.1200" stroke-linecap="round" stroke-linejoin="round" fill="#161616"/>
        <path d="M 8.7602,2.3185 L 8.7602,2.5745 L 9.0971,2.5745 L 9.0971,2.3185 L 8.7602,2.3185 Z" stroke="#ED3440" stroke-width="0.1200" stroke-linecap="round" stroke-linejoin="round" fill="#ED3440"/>
        <path d="M 8.4092,2.0070 L 8.6970,2.0070 L 8.6970,2.2562 L 8.4092,2.2562 L 8.4092,2.0070 Z" stroke="#ED3440" stroke-width="0.1200" stroke-linecap="round" stroke-linejoin="round" fill="#ED3440"/>
        <path d="M 9.1603,2.3185 L 9.1603,2.5745 L 9.2656,2.5745 L 9.2726,2.5676 L 9.3007,2.5676 L 9.3077,2.5607 L 9.3217,2.5607 L 9.3358,2.5538 L 9.3428,2.5469 L 9.3568,2.5399 L 9.3709,2.5261 L 9.3849,2.5192 L 9.3919,2.5123 L 9.3989,2.4984 L 9.4060,2.4915 L 9.4340,2.4361 L 9.4340,2.4223 L 9.4411,2.4015 L 9.4411,2.3808 L 9.4481,2.3600 L 9.4481,2.3185 L 9.1673,2.3185 L 9.1603,2.3185 Z" stroke="#ED3440" stroke-width="0.1200" stroke-linecap="round" stroke-linejoin="round" fill="#ED3440"/>
        <path d="M 9.1603,2.0070 L 9.4481,2.0070 L 9.4481,2.2562 L 9.1603,2.2562 L 9.1603,2.0070 Z" stroke="#ED3440" stroke-width="0.1200" stroke-linecap="round" stroke-linejoin="round" fill="#ED3440"/>
        <path d="M 8.6970,2.3185 L 8.6970,2.5745 L 8.5917,2.5745 L 8.5847,2.5676 L 8.5566,2.5676 L 8.5496,2.5607 L 8.5356,2.5607 L 8.5215,2.5538 L 8.5145,2.5469 L 8.5005,2.5399 L 8.4864,2.5261 L 8.4724,2.5192 L 8.4654,2.5123 L 8.4583,2.4984 L 8.4513,2.4915 L 8.4232,2.4361 L 8.4232,2.4223 L 8.4162,2.4015 L 8.4162,2.3808 L 8.4092,2.3600 L 8.4092,2.3185 L 8.6900,2.3185 L 8.6970,2.3185 Z" stroke="#ED3440" stroke-width="0.1200" stroke-linecap="round" stroke-linejoin="round" fill="#ED3440"/>
        <path d="M 8.7602,1.6887 L 8.7602,1.9448 L 9.0971,1.9448 L 9.0971,1.6887 L 8.7602,1.6887 Z" stroke="#ED3440" stroke-width="0.1200" stroke-linecap="round" stroke-linejoin="round" fill="#ED3440"/>
        <path d="M 9.1603,1.9448 L 9.1603,1.6887 L 9.2656,1.6887 L 9.2726,1.6956 L 9.3007,1.6956 L 9.3077,1.7025 L 9.3217,1.7025 L 9.3358,1.7094 L 9.3428,1.7164 L 9.3568,1.7233 L 9.3709,1.7371 L 9.3849,1.7440 L 9.3919,1.7510 L 9.3989,1.7648 L 9.4060,1.7717 L 9.4340,1.8271 L 9.4340,1.8409 L 9.4411,1.8617 L 9.4411,1.8825 L 9.4481,1.9032 L 9.4481,1.9448 L 9.1673,1.9448 L 9.1603,1.9448 Z" stroke="#ED3440" stroke-width="0.1200" stroke-linecap="round" stroke-linejoin="round" fill="#ED3440"/>
        <path d="M 8.6970,1.9448 L 8.6970,1.6887 L 8.5917,1.6887 L 8.5847,1.6956 L 8.5566,1.6956 L 8.5496,1.7025 L 8.5356,1.7025 L 8.5215,1.7094 L 8.5145,1.7164 L 8.5005,1.7233 L 8.4864,1.7371 L 8.4724,1.7440 L 8.4654,1.7510 L 8.4583,1.7648 L 8.4513,1.7717 L 8.4232,1.8271 L 8.4232,1.8409 L 8.4162,1.8617 L 8.4162,1.8825 L 8.4092,1.9032 L 8.4092,1.9448 L 8.6900,1.9448 L 8.6970,1.9448 Z" stroke="#ED3440" stroke-width="0.1200" stroke-linecap="round" stroke-linejoin="round" fill="#ED3440"/>
        <text font-family="Symbol" fill="#000000" style="white-space:pre;" text-anchor="start" x="15.2981" y="2.6277" font-size="0.4131"><![CDATA[]]></text>
        <ellipse cx="8.0288" cy="5.8312" rx="0.3787" ry="0.3785" fill="#494949" stroke="#000000" stroke-width="0.1200" stroke-linecap="round" stroke-linejoin="round"/>
        <ellipse cx="8.0288" cy="5.8312" rx="0.3787" ry="0.3785" fill="none" stroke="#000000" stroke-width="0.1200" stroke-linecap="round" stroke-linejoin="round"/>
        <ellipse cx="8.0288" cy="5.8312" rx="0.3348" ry="0.3346" fill="#000000" stroke="#000000" stroke-width="0.1200" stroke-linecap="round" stroke-linejoin="round"/>
        <ellipse cx="8.0288" cy="5.8312" rx="0.3348" ry="0.3346" fill="none" stroke="#000000" stroke-width="0.1200" stroke-linecap="round" stroke-linejoin="round"/>
        <text font-family="Arial" fill="#000000" style="white-space:pre;" font-weight="400" text-anchor="start" x="9.3623" y="7.3957" font-size="0.0988"><![CDATA[RESET]]></text>
        <text font-family="Arial" fill="#FF0000" style="white-space:pre;" font-weight="400" text-anchor="start" x="18.8124" y="6.2108" font-size="0.0988"><![CDATA[PoE]]></text>
        <text font-family="Arial" fill="#000000" style="white-space:pre;" font-weight="400" text-anchor="start" x="27.3626" y="8.1659" font-size="0.0768"><![CDATA[SHARED INTERFACES]]></text>
        <text font-family="Arial" fill="#FFFFFF" style="white-space:pre;" font-weight="400" text-anchor="start" x="16.8697" y="6.3534" font-size="0.0988"><![CDATA[1]]></text>
        <text font-family="Arial" fill="#FFFFFF" style="white-space:pre;" font-weight="400" text-anchor="start" x="17.6710" y="6.3534" font-size="0.0988"><![CDATA[3]]></text>
        <text font-family="Arial" fill="#FFFFFF" style="white-space:pre;" font-weight="400" text-anchor="start" x="18.4722" y="6.3534" font-size="0.0988"><![CDATA[5]]></text>
        <text font-family="Arial" fill="#FFFFFF" style="white-space:pre;" font-weight="400" text-anchor="start" x="19.2734" y="6.3534" font-size="0.0988"><![CDATA[7]]></text>
        <text font-family="Arial" fill="#FFFFFF" style="white-space:pre;" font-weight="400" text-anchor="start" x="20.0856" y="6.3534" font-size="0.0988"><![CDATA[9]]></text>
        <text font-family="Arial" fill="#FFFFFF" style="white-space:pre;" font-weight="400" text-anchor="start" x="20.8539" y="6.3534" font-size="0.0988"><![CDATA[11]]></text>
        <text font-family="Arial" fill="#FFFFFF" style="white-space:pre;" font-weight="400" text-anchor="start" x="16.8697" y="8.1527" font-size="0.0988"><![CDATA[2]]></text>
        <text font-family="Arial" fill="#FFFFFF" style="white-space:pre;" font-weight="400" text-anchor="start" x="17.6710" y="8.1527" font-size="0.0988"><![CDATA[4]]></text>
        <text font-family="Arial" fill="#FFFFFF" style="white-space:pre;" font-weight="400" text-anchor="start" x="18.4722" y="8.1527" font-size="0.0988"><![CDATA[6]]></text>
        <text font-family="Arial" fill="#FFFFFF" style="white-space:pre;" font-weight="400" text-anchor="start" x="19.2734" y="8.1527" font-size="0.0988"><![CDATA[8]]></text>
        <text font-family="Arial" fill="#FFFFFF" style="white-space:pre;" font-weight="400" text-anchor="start" x="20.0637" y="8.1527" font-size="0.0988"><![CDATA[10]]></text>
        <text font-family="Arial" fill="#FFFFFF" style="white-space:pre;" font-weight="400" text-anchor="start" x="20.8539" y="8.1527" font-size="0.0988"><![CDATA[12]]></text>
        <text font-family="Arial" fill="#000000" style="white-space:pre;" font-weight="400" text-anchor="start" x="21.8527" y="6.3534" font-size="0.0988"><![CDATA[13]]></text>
        <text font-family="Arial" fill="#000000" style="white-space:pre;" font-weight="400" text-anchor="start" x="22.6540" y="6.3534" font-size="0.0988"><![CDATA[15]]></text>
        <text font-family="Arial" fill="#000000" style="white-space:pre;" font-weight="400" text-anchor="start" x="23.4552" y="6.3534" font-size="0.0988"><![CDATA[17]]></text>
        <text font-family="Arial" fill="#000000" style="white-space:pre;" font-weight="400" text-anchor="start" x="24.2564" y="6.3534" font-size="0.0988"><![CDATA[19]]></text>
        <text font-family="Arial" fill="#000000" style="white-space:pre;" font-weight="400" text-anchor="start" x="25.0577" y="6.3534" font-size="0.0988"><![CDATA[21]]></text>
        <text font-family="Arial" fill="#000000" style="white-space:pre;" font-weight="400" text-anchor="start" x="25.8589" y="6.3534" font-size="0.0988"><![CDATA[23]]></text>
        <text font-family="Arial" fill="#000000" style="white-space:pre;" font-weight="400" text-anchor="start" x="21.8527" y="8.1527" font-size="0.0988"><![CDATA[14]]></text>
        <text font-family="Arial" fill="#000000" style="white-space:pre;" font-weight="400" text-anchor="start" x="22.6540" y="8.1527" font-size="0.0988"><![CDATA[16]]></text>
        <text font-family="Arial" fill="#000000" style="white-space:pre;" font-weight="400" text-anchor="start" x="23.4552" y="8.1527" font-size="0.0988"><![CDATA[18]]></text>
        <text font-family="Arial" fill="#000000" style="white-space:pre;" font-weight="400" text-anchor="start" x="24.2564" y="8.1527" font-size="0.0988"><![CDATA[20]]></text>
        <text font-family="Arial" fill="#000000" style="white-space:pre;" font-weight="400" text-anchor="start" x="25.0577" y="8.1527" font-size="0.0988"><![CDATA[22]]></text>
        <text font-family="Arial" fill="#000000" style="white-space:pre;" font-weight="400" text-anchor="start" x="25.8589" y="8.1527" font-size="0.0988"><![CDATA[24]]></text>
        <path d="M 10.8888,6.1907 L 10.1285,6.1907 L 10.1285,6.5022 L 10.8888,6.5022 L 10.8888,6.1907 Z" stroke="#000000" stroke-width="0.1200" stroke-linecap="round" stroke-linejoin="round" fill="#83FF00"/>
        <path d="M 12.1243,6.1907 L 11.3640,6.1907 L 11.3640,6.5022 L 12.1243,6.5022 L 12.1243,6.1907 Z" stroke="#000000" stroke-width="0.1200" stroke-linecap="round" stroke-linejoin="round" fill="#83FF00"/>
        <path d="M 13.4141,6.1907 L 12.6538,6.1907 L 12.6538,6.5022 L 13.4141,6.5022 L 13.4141,6.1907 Z" stroke="#000000" stroke-width="0.1200" stroke-linecap="round" stroke-linejoin="round" fill="#83FF00"/>
        <path d="M 14.6496,6.1907 L 13.8893,6.1907 L 13.8893,6.5022 L 14.6496,6.5022 L 14.6496,6.1907 Z" stroke="#000000" stroke-width="0.1200" stroke-linecap="round" stroke-linejoin="round" fill="#83FF00"/>
        <path d="M 15.8852,6.1907 L 15.1248,6.1907 L 15.1248,6.5022 L 15.8852,6.5022 L 15.8852,6.1907 Z" stroke="#000000" stroke-width="0.1200" stroke-linecap="round" stroke-linejoin="round" fill="#83FF00"/>
        <path d="M 17.1342,6.1907 L 16.3739,6.1907 L 16.3739,6.5022 L 17.1342,6.5022 L 17.1342,6.1907 Z" stroke="#000000" stroke-width="0.1200" stroke-linecap="round" stroke-linejoin="round" fill="#83FF00"/>
        <path d="M 10.8888,9.7857 L 10.1285,9.7857 L 10.1285,10.0972 L 10.8888,10.0972 L 10.8888,9.7857 Z" stroke="#000000" stroke-width="0.1200" stroke-linecap="round" stroke-linejoin="round" fill="#83FF00"/>
        <path d="M 12.1243,9.7857 L 11.3640,9.7857 L 11.3640,10.0972 L 12.1243,10.0972 L 12.1243,9.7857 Z" stroke="#000000" stroke-width="0.1200" stroke-linecap="round" stroke-linejoin="round" fill="#83FF00"/>
        <path d="M 13.4141,9.7857 L 12.6538,9.7857 L 12.6538,10.0972 L 13.4141,10.0972 L 13.4141,9.7857 Z" stroke="#000000" stroke-width="0.1200" stroke-linecap="round" stroke-linejoin="round" fill="#83FF00"/>
        <path d="M 14.6496,9.7857 L 13.8893,9.7857 L 13.8893,10.0972 L 14.6496,10.0972 L 14.6496,9.7857 Z" stroke="#000000" stroke-width="0.1200" stroke-linecap="round" stroke-linejoin="round" fill="#83FF00"/>
        <path d="M 15.8852,9.7857 L 15.1248,9.7857 L 15.1248,10.0972 L 15.8852,10.0972 L 15.8852,9.7857 Z" stroke="#000000" stroke-width="0.1200" stroke-linecap="round" stroke-linejoin="round" fill="#83FF00"/>
        <path d="M 17.1342,9.7857 L 16.3739,9.7857 L 16.3739,10.0972 L 17.1342,10.0972 L 17.1342,9.7857 Z" stroke="#000000" stroke-width="0.1200" stroke-linecap="round" stroke-linejoin="round" fill="#83FF00"/>
        <path d="M 10.8888,8.6046 L 10.1285,8.6046 L 10.1285,8.9161 L 10.8888,8.9161 L 10.8888,8.6046 Z" stroke="#000000" stroke-width="0.1200" stroke-linecap="round" stroke-linejoin="round" fill="#83FF00"/>
        <path d="M 12.1243,8.6046 L 11.3640,8.6046 L 11.3640,8.9161 L 12.1243,8.9161 L 12.1243,8.6046 Z" stroke="#000000" stroke-width="0.1200" stroke-linecap="round" stroke-linejoin="round" fill="#83FF00"/>
        <path d="M 13.4141,8.6046 L 12.6538,8.6046 L 12.6538,8.9161 L 13.4141,8.9161 L 13.4141,8.6046 Z" stroke="#000000" stroke-width="0.1200" stroke-linecap="round" stroke-linejoin="round" fill="#83FF00"/>
        <path d="M 14.6496,8.6046 L 13.8893,8.6046 L 13.8893,8.9161 L 14.6496,8.9161 L 14.6496,8.6046 Z" stroke="#000000" stroke-width="0.1200" stroke-linecap="round" stroke-linejoin="round" fill="#83FF00"/>
        <path d="M 15.8852,8.6046 L 15.1248,8.6046 L 15.1248,8.9161 L 15.8852,8.9161 L 15.8852,8.6046 Z" stroke="#000000" stroke-width="0.1200" stroke-linecap="round" stroke-linejoin="round" fill="#83FF00"/>
        <path d="M 17.1342,8.6046 L 16.3739,8.6046 L 16.3739,8.9161 L 17.1342,8.9161 L 17.1342,8.6046 Z" stroke="#000000" stroke-width="0.1200" stroke-linecap="round" stroke-linejoin="round" fill="#83FF00"/>
        <path d="M 18.4241,8.6046 L 17.6637,8.6046 L 17.6637,8.9161 L 18.4241,8.9161 L 18.4241,8.6046 Z" stroke="#000000" stroke-width="0.1200" stroke-linecap="round" stroke-linejoin="round" fill="#83FF00"/>
        <path d="M 19.6596,8.6046 L 18.8993,8.6046 L 18.8993,8.9161 L 19.6596,8.9161 L 19.6596,8.6046 Z" stroke="#000000" stroke-width="0.1200" stroke-linecap="round" stroke-linejoin="round" fill="#83FF00"/>
        <path d="M 20.8951,8.6046 L 20.1348,8.6046 L 20.1348,8.9161 L 20.8951,8.9161 L 20.8951,8.6046 Z" stroke="#000000" stroke-width="0.1200" stroke-linecap="round" stroke-linejoin="round" fill="#83FF00"/>
        <path d="M 22.1306,8.6046 L 21.3703,8.6046 L 21.3703,8.9161 L 22.1306,8.9161 L 22.1306,8.6046 Z" stroke="#000000" stroke-width="0.1200" stroke-linecap="round" stroke-linejoin="round" fill="#83FF00"/>
        <path d="M 23.4340,8.6046 L 22.6737,8.6046 L 22.6737,8.9161 L 23.4340,8.9161 L 23.4340,8.6046 Z" stroke="#000000" stroke-width="0.1200" stroke-linecap="round" stroke-linejoin="round" fill="#83FF00"/>
        <path d="M 24.6695,8.6046 L 23.9092,8.6046 L 23.9092,8.9161 L 24.6695,8.9161 L 24.6695,8.6046 Z" stroke="#000000" stroke-width="0.1200" stroke-linecap="round" stroke-linejoin="round" fill="#83FF00"/>
        <path d="M 10.8888,7.3717 L 10.1285,7.3717 L 10.1285,7.6832 L 10.8888,7.6832 L 10.8888,7.3717 Z" stroke="#000000" stroke-width="0.1200" stroke-linecap="round" stroke-linejoin="round" fill="#83FF00"/>
        <path d="M 12.1243,7.3717 L 11.3640,7.3717 L 11.3640,7.6832 L 12.1243,7.6832 L 12.1243,7.3717 Z" stroke="#000000" stroke-width="0.1200" stroke-linecap="round" stroke-linejoin="round" fill="#83FF00"/>
        <path d="M 13.4141,7.3717 L 12.6538,7.3717 L 12.6538,7.6832 L 13.4141,7.6832 L 13.4141,7.3717 Z" stroke="#000000" stroke-width="0.1200" stroke-linecap="round" stroke-linejoin="round" fill="#83FF00"/>
        <path d="M 14.6496,7.3717 L 13.8893,7.3717 L 13.8893,7.6832 L 14.6496,7.6832 L 14.6496,7.3717 Z" stroke="#000000" stroke-width="0.1200" stroke-linecap="round" stroke-linejoin="round" fill="#83FF00"/>
        <path d="M 15.8852,7.3717 L 15.1248,7.3717 L 15.1248,7.6832 L 15.8852,7.6832 L 15.8852,7.3717 Z" stroke="#000000" stroke-width="0.1200" stroke-linecap="round" stroke-linejoin="round" fill="#83FF00"/>
        <path d="M 17.1342,7.3717 L 16.3739,7.3717 L 16.3739,7.6832 L 17.1342,7.6832 L 17.1342,7.3717 Z" stroke="#000000" stroke-width="0.1200" stroke-linecap="round" stroke-linejoin="round" fill="#83FF00"/>
        <path d="M 18.4241,7.3717 L 17.6637,7.3717 L 17.6637,7.6832 L 18.4241,7.6832 L 18.4241,7.3717 Z" stroke="#000000" stroke-width="0.1200" stroke-linecap="round" stroke-linejoin="round" fill="#83FF00"/>
        <path d="M 19.6596,7.3717 L 18.8993,7.3717 L 18.8993,7.6832 L 19.6596,7.6832 L 19.6596,7.3717 Z" stroke="#000000" stroke-width="0.1200" stroke-linecap="round" stroke-linejoin="round" fill="#83FF00"/>
        <path d="M 20.8951,7.3717 L 20.1348,7.3717 L 20.1348,7.6832 L 20.8951,7.6832 L 20.8951,7.3717 Z" stroke="#000000" stroke-width="0.1200" stroke-linecap="round" stroke-linejoin="round" fill="#83FF00"/>
        <path d="M 22.1306,7.3717 L 21.3703,7.3717 L 21.3703,7.6832 L 22.1306,7.6832 L 22.1306,7.3717 Z" stroke="#000000" stroke-width="0.1200" stroke-linecap="round" stroke-linejoin="round" fill="#83FF00"/>
        <path d="M 23.4340,7.3717 L 22.6737,7.3717 L 22.6737,7.6832 L 23.4340,7.6832 L 23.4340,7.3717 Z" stroke="#000000" stroke-width="0.1200" stroke-linecap="round" stroke-linejoin="round" fill="#83FF00"/>
        <path d="M 24.6695,7.3717 L 23.9092,7.3717 L 23.9092,7.6832 L 24.6695,7.6832 L 24.6695,7.3717 Z" stroke="#000000" stroke-width="0.1200" stroke-linecap="round" stroke-linejoin="round" fill="#83FF00"/>
        <path d="M 10.8888,4.9448 L 10.1285,4.9448 L 10.1285,5.2562 L 10.8888,5.2562 L 10.8888,4.9448 Z" stroke="#000000" stroke-width="0.1200" stroke-linecap="round" stroke-linejoin="round" fill="#83FF00"/>
        <path d="M 12.1243,4.9448 L 11.3640,4.9448 L 11.3640,5.2562 L 12.1243,5.2562 L 12.1243,4.9448 Z" stroke="#000000" stroke-width="0.1200" stroke-linecap="round" stroke-linejoin="round" fill="#83FF00"/>
        <path d="M 13.4141,4.9448 L 12.6538,4.9448 L 12.6538,5.2562 L 13.4141,5.2562 L 13.4141,4.9448 Z" stroke="#000000" stroke-width="0.1200" stroke-linecap="round" stroke-linejoin="round" fill="#83FF00"/>
        <path d="M 14.6496,4.9448 L 13.8893,4.9448 L 13.8893,5.2562 L 14.6496,5.2562 L 14.6496,4.9448 Z" stroke="#000000" stroke-width="0.1200" stroke-linecap="round" stroke-linejoin="round" fill="#83FF00"/>
        <path d="M 15.8852,4.9448 L 15.1248,4.9448 L 15.1248,5.2562 L 15.8852,5.2562 L 15.8852,4.9448 Z" stroke="#000000" stroke-width="0.1200" stroke-linecap="round" stroke-linejoin="round" fill="#83FF00"/>
        <path d="M 17.1342,4.9448 L 16.3739,4.9448 L 16.3739,5.2562 L 17.1342,5.2562 L 17.1342,4.9448 Z" stroke="#000000" stroke-width="0.1200" stroke-linecap="round" stroke-linejoin="round" fill="#83FF00"/>
        <path d="M 18.4241,4.9448 L 17.6637,4.9448 L 17.6637,5.2562 L 18.4241,5.2562 L 18.4241,4.9448 Z" stroke="#000000" stroke-width="0.1200" stroke-linecap="round" stroke-linejoin="round" fill="#83FF00"/>
        <path d="M 19.6596,4.9448 L 18.8993,4.9448 L 18.8993,5.2562 L 19.6596,5.2562 L 19.6596,4.9448 Z" stroke="#000000" stroke-width="0.1200" stroke-linecap="round" stroke-linejoin="round" fill="#83FF00"/>
        <path d="M 20.8951,4.9448 L 20.1348,4.9448 L 20.1348,5.2562 L 20.8951,5.2562 L 20.8951,4.9448 Z" stroke="#000000" stroke-width="0.1200" stroke-linecap="round" stroke-linejoin="round" fill="#83FF00"/>
        <path d="M 22.1306,4.9448 L 21.3703,4.9448 L 21.3703,5.2562 L 22.1306,5.2562 L 22.1306,4.9448 Z" stroke="#000000" stroke-width="0.1200" stroke-linecap="round" stroke-linejoin="round" fill="#83FF00"/>
        <path d="M 23.4340,4.9448 L 22.6737,4.9448 L 22.6737,5.2562 L 23.4340,5.2562 L 23.4340,4.9448 Z" stroke="#000000" stroke-width="0.1200" stroke-linecap="round" stroke-linejoin="round" fill="#83FF00"/>
        <path d="M 24.6695,4.9448 L 23.9092,4.9448 L 23.9092,5.2562 L 24.6695,5.2562 L 24.6695,4.9448 Z" stroke="#000000" stroke-width="0.1200" stroke-linecap="round" stroke-linejoin="round" fill="#83FF00"/>
        <path d="M 10.8888,3.7637 L 10.1285,3.7637 L 10.1285,4.0752 L 10.8888,4.0752 L 10.8888,3.7637 Z" stroke="#000000" stroke-width="0.1200" stroke-linecap="round" stroke-linejoin="round" fill="#83FF00"/>
        <path d="M 12.1243,3.7637 L 11.3640,3.7637 L 11.3640,4.0752 L 12.1243,4.0752 L 12.1243,3.7637 Z" stroke="#000000" stroke-width="0.1200" stroke-linecap="round" stroke-linejoin="round" fill="#83FF00"/>
        <path d="M 13.4141,3.7637 L 12.6538,3.7637 L 12.6538,4.0752 L 13.4141,4.0752 L 13.4141,3.7637 Z" stroke="#000000" stroke-width="0.1200" stroke-linecap="round" stroke-linejoin="round" fill="#83FF00"/>
        <path d="M 14.6496,3.7637 L 13.8893,3.7637 L 13.8893,4.0752 L 14.6496,4.0752 L 14.6496,3.7637 Z" stroke="#000000" stroke-width="0.1200" stroke-linecap="round" stroke-linejoin="round" fill="#83FF00"/>
        <path d="M 15.8852,3.7637 L 15.1248,3.7637 L 15.1248,4.0752 L 15.8852,4.0752 L 15.8852,3.7637 Z" stroke="#000000" stroke-width="0.1200" stroke-linecap="round" stroke-linejoin="round" fill="#83FF00"/>
        <path d="M 17.1342,3.7637 L 16.3739,3.7637 L 16.3739,4.0752 L 17.1342,4.0752 L 17.1342,3.7637 Z" stroke="#000000" stroke-width="0.1200" stroke-linecap="round" stroke-linejoin="round" fill="#83FF00"/>
        <path d="M 18.4241,3.7637 L 17.6637,3.7637 L 17.6637,4.0752 L 18.4241,4.0752 L 18.4241,3.7637 Z" stroke="#000000" stroke-width="0.1200" stroke-linecap="round" stroke-linejoin="round" fill="#83FF00"/>
        <path d="M 19.6596,3.7637 L 18.8993,3.7637 L 18.8993,4.0752 L 19.6596,4.0752 L 19.6596,3.7637 Z" stroke="#000000" stroke-width="0.1200" stroke-linecap="round" stroke-linejoin="round" fill="#83FF00"/>
        <path d="M 20.8951,3.7637 L 20.1348,3.7637 L 20.1348,4.0752 L 20.8951,4.0752 L 20.8951,3.7637 Z" stroke="#000000" stroke-width="0.1200" stroke-linecap="round" stroke-linejoin="round" fill="#83FF00"/>
        <path d="M 22.1306,3.7637 L 21.3703,3.7637 L 21.3703,4.0752 L 22.1306,4.0752 L 22.1306,3.7637 Z" stroke="#000000" stroke-width="0.1200" stroke-linecap="round" stroke-linejoin="round" fill="#83FF00"/>
        <path d="M 23.4340,3.7637 L 22.6737,3.7637 L 22.6737,4.0752 L 23.4340,4.0752 L 23.4340,3.7637 Z" stroke="#000000" stroke-width="0.1200" stroke-linecap="round" stroke-linejoin="round" fill="#83FF00"/>
        <path d="M 24.6695,3.7637 L 23.9092,3.7637 L 23.9092,4.0752 L 24.6695,4.0752 L 24.6695,3.7637 Z" stroke="#000000" stroke-width="0.1200" stroke-linecap="round" stroke-linejoin="round" fill="#83FF00"/>
        <path d="M 29.6659,9.7857 L 28.9055,9.7857 L 28.9055,10.0972 L 29.6659,10.0972 L 29.6659,9.7857 Z" stroke="#000000" stroke-width="0.1200" stroke-linecap="round" stroke-linejoin="round" fill="#83FF00"/>
        <path d="M 30.9150,9.7857 L 30.1546,9.7857 L 30.1546,10.0972 L 30.9150,10.0972 L 30.9150,9.7857 Z" stroke="#000000" stroke-width="0.1200" stroke-linecap="round" stroke-linejoin="round" fill="#83FF00"/>
        <path d="M 29.6659,8.6046 L 28.9055,8.6046 L 28.9055,8.9161 L 29.6659,8.9161 L 29.6659,8.6046 Z" stroke="#000000" stroke-width="0.1200" stroke-linecap="round" stroke-linejoin="round" fill="#83FF00"/>
        <path d="M 30.9150,8.6046 L 30.1546,8.6046 L 30.1546,8.9161 L 30.9150,8.9161 L 30.9150,8.6046 Z" stroke="#000000" stroke-width="0.1200" stroke-linecap="round" stroke-linejoin="round" fill="#83FF00"/>
        <text font-family="Arial" fill="#000000" style="white-space:pre;" font-weight="400" text-anchor="start" x="36.3322" y="11.1805" font-size="0.1222"><![CDATA[24]]></text>
        <text font-family="Arial" fill="#000000" style="white-space:pre;" font-weight="400" text-anchor="start" x="36.3322" y="10.3369" font-size="0.1222"><![CDATA[23]]></text>
        <text font-family="Arial" fill="#000000" style="white-space:pre;" font-weight="400" text-anchor="start" x="36.0335" y="11.1805" font-size="0.1222"><![CDATA[22]]></text>
        <text font-family="Arial" fill="#000000" style="white-space:pre;" font-weight="400" text-anchor="start" x="36.0335" y="10.3369" font-size="0.1222"><![CDATA[21]]></text>
        <text font-family="Arial" fill="#000000" style="white-space:pre;" font-weight="400" text-anchor="start" x="35.7212" y="11.1805" font-size="0.1222"><![CDATA[20]]></text>
        <text font-family="Arial" fill="#000000" style="white-space:pre;" font-weight="400" text-anchor="start" x="35.7212" y="10.3369" font-size="0.1222"><![CDATA[19]]></text>
        <text font-family="Arial" fill="#000000" style="white-space:pre;" font-weight="400" text-anchor="start" x="35.4225" y="11.1805" font-size="0.1222"><![CDATA[18]]></text>
        <text font-family="Arial" fill="#000000" style="white-space:pre;" font-weight="400" text-anchor="start" x="35.4225" y="10.3369" font-size="0.1222"><![CDATA[17]]></text>
        <text font-family="Arial" fill="#000000" style="white-space:pre;" font-weight="400" text-anchor="start" x="35.1238" y="11.1805" font-size="0.1222"><![CDATA[16]]></text>
        <text font-family="Arial" fill="#000000" style="white-space:pre;" font-weight="400" text-anchor="start" x="35.1238" y="10.3369" font-size="0.1222"><![CDATA[15]]></text>
        <text font-family="Arial" fill="#000000" style="white-space:pre;" font-weight="400" text-anchor="start" x="34.8251" y="11.1805" font-size="0.1222"><![CDATA[14]]></text>
        <text font-family="Arial" fill="#000000" style="white-space:pre;" font-weight="400" text-anchor="start" x="34.8251" y="10.3369" font-size="0.1222"><![CDATA[13]]></text>
        <text font-family="Arial" fill="#FFFFFF" style="white-space:pre;" font-weight="400" text-anchor="start" x="34.5129" y="11.1805" font-size="0.1222"><![CDATA[12]]></text>
        <text font-family="Arial" fill="#FFFFFF" style="white-space:pre;" font-weight="400" text-anchor="start" x="34.5129" y="10.3369" font-size="0.1222"><![CDATA[11]]></text>
        <text font-family="Arial" fill="#FFFFFF" style="white-space:pre;" font-weight="400" text-anchor="start" x="34.2142" y="11.1805" font-size="0.1222"><![CDATA[10]]></text>
        <text font-family="Arial" fill="#FFFFFF" style="white-space:pre;" font-weight="400" text-anchor="start" x="34.2413" y="10.3369" font-size="0.1222"><![CDATA[9]]></text>
        <text font-family="Arial" fill="#FFFFFF" style="white-space:pre;" font-weight="400" text-anchor="start" x="33.9426" y="11.1805" font-size="0.1222"><![CDATA[8]]></text>
        <text font-family="Arial" fill="#FFFFFF" style="white-space:pre;" font-weight="400" text-anchor="start" x="33.9426" y="10.3369" font-size="0.1222"><![CDATA[7]]></text>
        <text font-family="Arial" fill="#FFFFFF" style="white-space:pre;" font-weight="400" text-anchor="start" x="33.6439" y="11.1805" font-size="0.1222"><![CDATA[6]]></text>
        <text font-family="Arial" fill="#FFFFFF" style="white-space:pre;" font-weight="400" text-anchor="start" x="33.6439" y="10.3369" font-size="0.1222"><![CDATA[5]]></text>
        <text font-family="Arial" fill="#FFFFFF" style="white-space:pre;" font-weight="400" text-anchor="start" x="33.3317" y="11.1805" font-size="0.1222"><![CDATA[4]]></text>
        <text font-family="Arial" fill="#FFFFFF" style="white-space:pre;" font-weight="400" text-anchor="start" x="33.3317" y="10.3369" font-size="0.1222"><![CDATA[3]]></text>
        <text font-family="Arial" fill="#FFFFFF" style="white-space:pre;" font-weight="400" text-anchor="start" x="33.0330" y="11.1805" font-size="0.1222"><![CDATA[2]]></text>
        <text font-family="Arial" fill="#FFFFFF" style="white-space:pre;" font-weight="400" text-anchor="start" x="33.0330" y="10.3369" font-size="0.1222"><![CDATA[1]]></text>
        <text font-family="Arial" fill="#000000" style="white-space:pre;" font-weight="400" text-anchor="start" x="36.5494" y="10.2071" font-size="0.1222"><![CDATA[LINK/ACT]]></text>
        <text font-family="Arial" fill="#000000" style="white-space:pre;" font-weight="400" text-anchor="start" x="36.5494" y="10.4797" font-size="0.1222"><![CDATA[100]]></text>
        <text font-family="Arial" fill="#FF0000" style="white-space:pre;" font-weight="400" text-anchor="start" x="36.5494" y="10.7652" font-size="0.1222"><![CDATA[PoE]]></text>
        <text font-family="Arial" fill="#000000" style="white-space:pre;" font-weight="400" text-anchor="start" x="36.5494" y="11.0377" font-size="0.1222"><![CDATA[LINK/ACT]]></text>
        <text font-family="Arial" fill="#000000" style="white-space:pre;" font-weight="400" text-anchor="start" x="36.5494" y="11.3233" font-size="0.1222"><![CDATA[100]]></text>
        <text font-family="Arial" fill="#FF0000" style="white-space:pre;" font-weight="400" text-anchor="start" x="36.5494" y="11.5958" font-size="0.1222"><![CDATA[PoE]]></text>
        <text font-family="Arial" fill="#000000" style="white-space:pre;" font-weight="400" text-anchor="start" x="37.8392" y="11.1805" font-size="0.1222"><![CDATA[26]]></text>
        <text font-family="Arial" fill="#000000" style="white-space:pre;" font-weight="400" text-anchor="start" x="37.5406" y="11.1805" font-size="0.1222"><![CDATA[25]]></text>
        <text font-family="Arial" fill="#000000" style="white-space:pre;" font-weight="400" text-anchor="start" x="38.0701" y="11.3233" font-size="0.1222"><![CDATA[LINK/ACT]]></text>
        <text font-family="Arial" fill="#000000" style="white-space:pre;" font-weight="400" text-anchor="start" x="38.0701" y="11.6088" font-size="0.1222"><![CDATA[100/1000]]></text>
        <path d="M 8.4721,8.6046 L 7.7118,8.6046 L 7.7118,8.9161 L 8.4721,8.9161 L 8.4721,8.6046 Z" stroke="#000000" stroke-width="0.1200" stroke-linecap="round" stroke-linejoin="round" fill="#83FF00"/>
        <path d="M 8.4721,9.7857 L 7.7118,9.7857 L 7.7118,10.0972 L 8.4721,10.0972 L 8.4721,9.7857 Z" stroke="#000000" stroke-width="0.1200" stroke-linecap="round" stroke-linejoin="round" fill="#83FF00"/>
        <text font-family="Arial" fill="#000000" style="white-space:pre;" font-weight="400" text-anchor="start" x="9.7755" y="12.6471" font-size="0.1222"><![CDATA[PoE MAX]]></text>
        <text font-family="Arial" fill="#000000" style="white-space:pre;" font-weight="400" text-anchor="start" x="9.9112" y="12.9066" font-size="0.1222"><![CDATA[PWR]]></text>
        <text font-family="Arial" fill="#000000" style="white-space:pre;" font-weight="400" text-anchor="start" x="32.6121" y="11.7516" font-size="0.1222"><![CDATA[25]]></text>
        <text font-family="Arial" fill="#000000" style="white-space:pre;" font-weight="400" text-anchor="start" x="32.5306" y="12.5951" font-size="0.1222"><![CDATA[LINK]]></text>
        <path d="M 102.1809,9.5002 L 101.4206,9.5002 L 101.4206,9.8116 L 102.1809,9.8116 L 102.1809,9.5002 Z" stroke="#000000" stroke-width="0.1200" stroke-linecap="round" stroke-linejoin="round" fill="#83FF00"/>
        <text font-family="Arial" fill="#000000" style="white-space:pre;" font-weight="400" text-anchor="start" x="126.2666" y="12.1928" font-size="0.1222"><![CDATA[SFP]]></text>
        <text font-family="Arial" fill="#000000" style="white-space:pre;" font-weight="400" text-anchor="start" x="129.4572" y="12.7135" font-size="0.0950"><![CDATA[SHARED INTERFACES]]></text>
        <text font-family="Arial" fill="#000000" style="white-space:pre;" font-weight="400" text-anchor="start" x="129.9731" y="11.4660" font-size="0.1222"><![CDATA[26]]></text>
        <text font-family="Arial" fill="#000000" style="white-space:pre;" font-weight="400" text-anchor="start" x="129.8917" y="12.3096" font-size="0.1222"><![CDATA[LINK]]></text>
        <path d="M 117.3057,9.5002 L 116.5454,9.5002 L 116.5454,9.8116 L 117.3057,9.8116 L 117.3057,9.5002 Z" stroke="#000000" stroke-width="0.1200" stroke-linecap="round" stroke-linejoin="round" fill="#83FF00"/>
        <text font-family="Arial" fill="#000000" style="white-space:pre;" font-weight="400" text-anchor="start" x="145.0437" y="12.1928" font-size="0.1222"><![CDATA[SFP]]></text>
        <ellipse cx="127.3352" cy="8.4752" rx="0.3787" ry="0.3785" fill="#494949" stroke="#000000" stroke-width="0.1200" stroke-linecap="round" stroke-linejoin="round"/>
        <ellipse cx="127.3352" cy="8.4752" rx="0.3787" ry="0.3785" fill="none" stroke="#000000" stroke-width="0.1200" stroke-linecap="round" stroke-linejoin="round"/>
        <ellipse cx="127.3352" cy="8.4752" rx="0.3348" ry="0.3346" fill="#000000" stroke="#000000" stroke-width="0.1200" stroke-linecap="round" stroke-linejoin="round"/>
        <ellipse cx="127.3352" cy="8.4752" rx="0.3348" ry="0.3346" fill="none" stroke="#000000" stroke-width="0.1200" stroke-linecap="round" stroke-linejoin="round"/>
        <text font-family="Arial" fill="#000000" style="white-space:pre;" font-weight="400" text-anchor="start" x="151.8606" y="10.5444" font-size="0.0988"><![CDATA[FACTORY]]></text>
        <text font-family="Arial" fill="#000000" style="white-space:pre;" font-weight="400" text-anchor="start" x="151.8496" y="10.6651" font-size="0.0988"><![CDATA[DEFAULTS]]></text>
        <path d="M 44.1073,5.4241 L 44.1073,3.3016 L 45.0003,3.3016 L 45.0003,2.8022 L 45.3631,2.8022 L 45.3631,2.3028 L 46.4236,2.3028 L 46.4236,2.8022 L 46.7863,2.8022 L 46.7863,3.3016 L 47.6794,3.3016 L 47.6794,5.4241 L 44.1073,5.4241 Z" stroke="#161616" stroke-width="0.1200" stroke-linecap="round" stroke-linejoin="round" fill="#000000"/>
        <path d="M 44.1073,7.0333 L 44.1073,9.1558 L 45.0003,9.1558 L 45.0003,9.6552 L 45.3631,9.6552 L 45.3631,10.1546 L 46.4236,10.1546 L 46.4236,9.6552 L 46.7863,9.6552 L 46.7863,9.1558 L 47.6794,9.1558 L 47.6794,7.0333 L 44.1073,7.0333 Z" stroke="#161616" stroke-width="0.1200" stroke-linecap="round" stroke-linejoin="round" fill="#000000"/>
        <path d="M 48.2096,5.4241 L 48.2096,3.3016 L 49.1026,3.3016 L 49.1026,2.8022 L 49.4654,2.8022 L 49.4654,2.3028 L 50.5259,2.3028 L 50.5259,2.8022 L 50.8887,2.8022 L 50.8887,3.3016 L 51.7817,3.3016 L 51.7817,5.4241 L 48.2096,5.4241 Z" stroke="#161616" stroke-width="0.1200" stroke-linecap="round" stroke-linejoin="round" fill="#000000"/>
        <path d="M 48.2096,7.0333 L 48.2096,9.1558 L 49.1026,9.1558 L 49.1026,9.6552 L 49.4654,9.6552 L 49.4654,10.1546 L 50.5259,10.1546 L 50.5259,9.6552 L 50.8887,9.6552 L 50.8887,9.1558 L 51.7817,9.1558 L 51.7817,7.0333 L 48.2096,7.0333 Z" stroke="#161616" stroke-width="0.1200" stroke-linecap="round" stroke-linejoin="round" fill="#000000"/>
        <path d="M 52.3120,5.4241 L 52.3120,3.3016 L 53.2050,3.3016 L 53.2050,2.8022 L 53.5678,2.8022 L 53.5678,2.3028 L 54.6283,2.3028 L 54.6283,2.8022 L 54.9911,2.8022 L 54.9911,3.3016 L 55.8841,3.3016 L 55.8841,5.4241 L 52.3120,5.4241 Z" stroke="#161616" stroke-width="0.1200" stroke-linecap="round" stroke-linejoin="round" fill="#000000"/>
        <path d="M 52.3120,7.0333 L 52.3120,9.1558 L 53.2050,9.1558 L 53.2050,9.6552 L 53.5678,9.6552 L 53.5678,10.1546 L 54.6283,10.1546 L 54.6283,9.6552 L 54.9911,9.6552 L 54.9911,9.1558 L 55.8841,9.1558 L 55.8841,7.0333 L 52.3120,7.0333 Z" stroke="#161616" stroke-width="0.1200" stroke-linecap="round" stroke-linejoin="round" fill="#000000"/>
        <path d="M 56.4143,5.4241 L 56.4143,3.3016 L 57.3073,3.3016 L 57.3073,2.8022 L 57.6701,2.8022 L 57.6701,2.3028 L 58.7306,2.3028 L 58.7306,2.8022 L 59.0934,2.8022 L 59.0934,3.3016 L 59.9864,3.3016 L 59.9864,5.4241 L 56.4143,5.4241 Z" stroke="#161616" stroke-width="0.1200" stroke-linecap="round" stroke-linejoin="round" fill="#000000"/>
        <path d="M 56.4143,7.0333 L 56.4143,9.1558 L 57.3073,9.1558 L 57.3073,9.6552 L 57.6701,9.6552 L 57.6701,10.1546 L 58.7306,10.1546 L 58.7306,9.6552 L 59.0934,9.6552 L 59.0934,9.1558 L 59.9864,9.1558 L 59.9864,7.0333 L 56.4143,7.0333 Z" stroke="#161616" stroke-width="0.1200" stroke-linecap="round" stroke-linejoin="round" fill="#000000"/>
        <path d="M 60.5306,5.4241 L 60.5306,3.3016 L 61.4237,3.3016 L 61.4237,2.8022 L 61.7864,2.8022 L 61.7864,2.3028 L 62.8469,2.3028 L 62.8469,2.8022 L 63.2097,2.8022 L 63.2097,3.3016 L 64.1027,3.3016 L 64.1027,5.4241 L 60.5306,5.4241 Z" stroke="#161616" stroke-width="0.1200" stroke-linecap="round" stroke-linejoin="round" fill="#000000"/>
        <path d="M 60.5306,7.0333 L 60.5306,9.1558 L 61.4237,9.1558 L 61.4237,9.6552 L 61.7864,9.6552 L 61.7864,10.1546 L 62.8469,10.1546 L 62.8469,9.6552 L 63.2097,9.6552 L 63.2097,9.1558 L 64.1027,9.1558 L 64.1027,7.0333 L 60.5306,7.0333 Z" stroke="#161616" stroke-width="0.1200" stroke-linecap="round" stroke-linejoin="round" fill="#000000"/>
        <path d="M 64.6330,5.4241 L 64.6330,3.3016 L 65.5260,3.3016 L 65.5260,2.8022 L 65.8888,2.8022 L 65.8888,2.3028 L 66.9493,2.3028 L 66.9493,2.8022 L 67.3121,2.8022 L 67.3121,3.3016 L 68.2051,3.3016 L 68.2051,5.4241 L 64.6330,5.4241 Z" stroke="#161616" stroke-width="0.1200" stroke-linecap="round" stroke-linejoin="round" fill="#000000"/>
        <path d="M 64.6330,7.0333 L 64.6330,9.1558 L 65.5260,9.1558 L 65.5260,9.6552 L 65.8888,9.6552 L 65.8888,10.1546 L 66.9493,10.1546 L 66.9493,9.6552 L 67.3121,9.6552 L 67.3121,9.1558 L 68.2051,9.1558 L 68.2051,7.0333 L 64.6330,7.0333 Z" stroke="#161616" stroke-width="0.1200" stroke-linecap="round" stroke-linejoin="round" fill="#000000"/>
        <path d="M 69.7539,5.4241 L 69.7539,3.3016 L 70.6470,3.3016 L 70.6470,2.8022 L 71.0098,2.8022 L 71.0098,2.3028 L 72.0702,2.3028 L 72.0702,2.8022 L 72.4330,2.8022 L 72.4330,3.3016 L 73.3261,3.3016 L 73.3261,5.4241 L 69.7539,5.4241 Z" stroke="#161616" stroke-width="0.1200" stroke-linecap="round" stroke-linejoin="round" fill="#000000"/>
        <path d="M 69.7539,7.0333 L 69.7539,9.1558 L 70.6470,9.1558 L 70.6470,9.6552 L 71.0098,9.6552 L 71.0098,10.1546 L 72.0702,10.1546 L 72.0702,9.6552 L 72.4330,9.6552 L 72.4330,9.1558 L 73.3261,9.1558 L 73.3261,7.0333 L 69.7539,7.0333 Z" stroke="#161616" stroke-width="0.1200" stroke-linecap="round" stroke-linejoin="round" fill="#000000"/>
        <path d="M 73.8563,5.4241 L 73.8563,3.3016 L 74.7493,3.3016 L 74.7493,2.8022 L 75.1121,2.8022 L 75.1121,2.3028 L 76.1726,2.3028 L 76.1726,2.8022 L 76.5354,2.8022 L 76.5354,3.3016 L 77.4284,3.3016 L 77.4284,5.4241 L 73.8563,5.4241 Z" stroke="#161616" stroke-width="0.1200" stroke-linecap="round" stroke-linejoin="round" fill="#000000"/>
        <path d="M 73.8563,7.0333 L 73.8563,9.1558 L 74.7493,9.1558 L 74.7493,9.6552 L 75.1121,9.6552 L 75.1121,10.1546 L 76.1726,10.1546 L 76.1726,9.6552 L 76.5354,9.6552 L 76.5354,9.1558 L 77.4284,9.1558 L 77.4284,7.0333 L 73.8563,7.0333 Z" stroke="#161616" stroke-width="0.1200" stroke-linecap="round" stroke-linejoin="round" fill="#000000"/>
        <path d="M 77.9586,5.4241 L 77.9586,3.3016 L 78.8517,3.3016 L 78.8517,2.8022 L 79.2145,2.8022 L 79.2145,2.3028 L 80.2749,2.3028 L 80.2749,2.8022 L 80.6377,2.8022 L 80.6377,3.3016 L 81.5308,3.3016 L 81.5308,5.4241 L 77.9586,5.4241 Z" stroke="#161616" stroke-width="0.1200" stroke-linecap="round" stroke-linejoin="round" fill="#000000"/>
        <path d="M 77.9586,7.0333 L 77.9586,9.1558 L 78.8517,9.1558 L 78.8517,9.6552 L 79.2145,9.6552 L 79.2145,10.1546 L 80.2749,10.1546 L 80.2749,9.6552 L 80.6377,9.6552 L 80.6377,9.1558 L 81.5308,9.1558 L 81.5308,7.0333 L 77.9586,7.0333 Z" stroke="#161616" stroke-width="0.1200" stroke-linecap="round" stroke-linejoin="round" fill="#000000"/>
        <path d="M 82.0749,5.4241 L 82.0749,3.3016 L 82.9680,3.3016 L 82.9680,2.8022 L 83.3308,2.8022 L 83.3308,2.3028 L 84.3912,2.3028 L 84.3912,2.8022 L 84.7540,2.8022 L 84.7540,3.3016 L 85.6471,3.3016 L 85.6471,5.4241 L 82.0749,5.4241 Z" stroke="#161616" stroke-width="0.1200" stroke-linecap="round" stroke-linejoin="round" fill="#000000"/>
        <path d="M 82.0749,7.0333 L 82.0749,9.1558 L 82.9680,9.1558 L 82.9680,9.6552 L 83.3308,9.6552 L 83.3308,10.1546 L 84.3912,10.1546 L 84.3912,9.6552 L 84.7540,9.6552 L 84.7540,9.1558 L 85.6471,9.1558 L 85.6471,7.0333 L 82.0749,7.0333 Z" stroke="#161616" stroke-width="0.1200" stroke-linecap="round" stroke-linejoin="round" fill="#000000"/>
        <path d="M 86.1773,5.4241 L 86.1773,3.3016 L 87.0703,3.3016 L 87.0703,2.8022 L 87.4331,2.8022 L 87.4331,2.3028 L 88.4936,2.3028 L 88.4936,2.8022 L 88.8564,2.8022 L 88.8564,3.3016 L 89.7494,3.3016 L 89.7494,5.4241 L 86.1773,5.4241 Z" stroke="#161616" stroke-width="0.1200" stroke-linecap="round" stroke-linejoin="round" fill="#000000"/>
        <path d="M 86.1773,7.0333 L 86.1773,9.1558 L 87.0703,9.1558 L 87.0703,9.6552 L 87.4331,9.6552 L 87.4331,10.1546 L 88.4936,10.1546 L 88.4936,9.6552 L 88.8564,9.6552 L 88.8564,9.1558 L 89.7494,9.1558 L 89.7494,7.0333 L 86.1773,7.0333 Z" stroke="#161616" stroke-width="0.1200" stroke-linecap="round" stroke-linejoin="round" fill="#000000"/>
        <path d="M 90.2797,5.4241 L 90.2797,3.3016 L 91.1727,3.3016 L 91.1727,2.8022 L 91.5355,2.8022 L 91.5355,2.3028 L 92.5959,2.3028 L 92.5959,2.8022 L 92.9587,2.8022 L 92.9587,3.3016 L 93.8518,3.3016 L 93.8518,5.4241 L 90.2797,5.4241 Z" stroke="#161616" stroke-width="0.1200" stroke-linecap="round" stroke-linejoin="round" fill="#000000"/>
        <path d="M 90.2797,7.0333 L 90.2797,9.1558 L 91.1727,9.1558 L 91.1727,9.6552 L 91.5355,9.6552 L 91.5355,10.1546 L 92.5959,10.1546 L 92.5959,9.6552 L 92.9587,9.6552 L 92.9587,9.1558 L 93.8518,9.1558 L 93.8518,7.0333 L 90.2797,7.0333 Z" stroke="#161616" stroke-width="0.1200" stroke-linecap="round" stroke-linejoin="round" fill="#000000"/>
        <path d="M 95.9588,7.0333 L 95.9588,9.1558 L 96.8518,9.1558 L 96.8518,9.6552 L 97.2146,9.6552 L 97.2146,10.1546 L 98.2751,10.1546 L 98.2751,9.6552 L 98.6378,9.6552 L 98.6378,9.1558 L 99.5309,9.1558 L 99.5309,7.0333 L 95.9588,7.0333 Z" stroke="#161616" stroke-width="0.1200" stroke-linecap="round" stroke-linejoin="round" fill="#000000"/>
        <path d="M 111.0984,7.0333 L 111.0984,9.1558 L 111.9914,9.1558 L 111.9914,9.6552 L 112.3542,9.6552 L 112.3542,10.1546 L 113.4147,10.1546 L 113.4147,9.6552 L 113.7775,9.6552 L 113.7775,9.1558 L 114.6705,9.1558 L 114.6705,7.0333 L 111.0984,7.0333 Z" stroke="#161616" stroke-width="0.1200" stroke-linecap="round" stroke-linejoin="round" fill="#000000"/>
        <path d="M 107.2972,10.1459 L 103.3316,10.1459 L 103.3316,7.4745 L 107.2972,7.4745 L 107.2972,10.1459 Z" stroke="#000000" stroke-width="0.1200" stroke-linecap="round" stroke-linejoin="round" fill="none"/>
        <path d="M 107.2972,10.1459 L 103.3316,10.1459 L 103.3316,7.4745 L 107.2972,7.4745 L 107.2972,10.1459 Z" stroke="#000000" stroke-width="0.1200" stroke-linecap="round" stroke-linejoin="round" fill="#DDDDDD"/>
        <path d="M 107.1823,10.0950 L 103.4416,10.0950 L 103.4416,7.5361 L 107.1823,7.5361 L 107.1823,10.0950 Z" stroke="#000000" stroke-width="0.1200" stroke-linecap="round" stroke-linejoin="round" fill="#999974"/>
        <path d="M 107.1265,7.7751 L 107.1265,7.7329 L 107.0846,7.6486 L 107.0009,7.6064 L 103.6231,7.6064 L 103.5393,7.6486 L 103.4974,7.7329 L 103.4974,9.9122 L 103.5393,9.9966 L 103.6231,10.0388 L 107.0009,10.0388 L 107.0846,9.9966 L 107.1265,9.9122 L 107.1265,9.8700 L 107.1265,7.7751 Z" stroke="#7F7F7F" stroke-width="0.1200" stroke-linecap="round" stroke-linejoin="round" fill="#CCCCB9"/>
        <path d="M 103.7208,9.8700 L 103.7208,8.3375 L 103.8464,8.3375 L 103.8464,8.1828 L 103.7208,8.1828 L 103.7208,7.9438 L 103.9860,7.9438 L 103.9860,7.6626 L 104.8932,7.6626 L 104.8932,7.9438 L 105.1724,7.9438 L 105.1724,8.1828 L 105.0468,8.1828 L 105.0468,8.3375 L 105.1724,8.3375 L 105.1724,9.8700 L 103.7208,9.8700 Z" stroke="#000000" stroke-width="0.1200" stroke-linecap="round" stroke-linejoin="round" fill="#938476"/>
        <path d="M 103.7208,8.0704 L 103.7208,7.9438 L 103.9860,7.9438 L 103.9860,7.6486 L 104.8932,7.6486 L 104.8932,7.9438 L 105.1724,7.9438 L 105.1724,8.0704 L 103.7208,8.0704 Z" stroke="#000000" stroke-width="0.1200" stroke-linecap="round" stroke-linejoin="round" fill="#938476"/>
        <path d="M 103.7208,8.0704 L 103.7208,8.1266 L 105.1724,8.1266 L 105.1724,8.0704 L 103.7208,8.0704 Z" stroke="#000000" stroke-width="0.1200" stroke-linecap="round" stroke-linejoin="round" fill="#706257"/>
        <path d="M 103.7208,8.7171 L 105.1584,8.7171 " stroke="#000000" stroke-width="0.1200" stroke-linecap="round" stroke-linejoin="round" fill="none"/>
        <path d="M 104.9630,9.8700 L 105.0188,9.8138 L 105.0328,9.7857 L 105.0607,9.7576 L 105.0747,9.7294 L 105.0886,9.6873 L 105.1166,9.6310 L 105.1305,9.5888 L 105.1584,9.5326 L 105.1584,9.4623 L 105.1724,9.4201 L 105.1724,9.2795 L 105.1584,9.2373 L 105.1584,9.1670 L 105.1305,9.1108 L 105.1166,9.0686 L 105.0886,9.0124 L 105.0747,8.9702 L 105.0607,8.9421 L 105.0328,8.9140 L 105.0188,8.8858 L 104.9072,8.7734 L 104.8793,8.7593 L 104.8514,8.7312 L 104.8234,8.7171 L 104.7816,8.7031 L 104.7257,8.6749 L 104.6839,8.6609 L 104.6280,8.6328 L 104.5582,8.6328 L 104.5164,8.6187 L 104.3768,8.6187 L 104.3349,8.6328 L 104.2651,8.6328 L 104.2093,8.6609 L 104.1674,8.6749 L 104.1116,8.7031 L 104.0697,8.7171 L 104.0418,8.7312 L 104.0139,8.7593 L 103.9860,8.7734 L 103.8743,8.8858 L 103.8603,8.9140 L 103.8324,8.9421 L 103.8185,8.9702 L 103.8045,9.0124 L 103.7766,9.0686 L 103.7626,9.1108 L 103.7347,9.1670 L 103.7347,9.2373 L 103.7208,9.2795 L 103.7208,9.4201 L 103.7347,9.4623 L 103.7347,9.5326 L 103.7626,9.5888 L 103.7766,9.6310 L 103.8045,9.6873 L 103.8185,9.7294 L 103.8324,9.7576 L 103.8603,9.7857 L 103.8743,9.8138 L 103.9301,9.8700 L 104.9491,9.8700 L 104.9630,9.8700 Z" stroke="#000000" stroke-width="0.1200" stroke-linecap="round" stroke-linejoin="round" fill="#A09183"/>
        <ellipse cx="104.3838" cy="9.2866" rx="0.2861" ry="0.2882" fill="none" stroke="#494949" stroke-width="0.1200" stroke-linecap="round" stroke-linejoin="round"/>
        <ellipse cx="104.3907" cy="9.2866" rx="0.1815" ry="0.1757" fill="#706257" stroke="#000000" stroke-width="0.1200" stroke-linecap="round" stroke-linejoin="round"/>
        <ellipse cx="104.3907" cy="9.2866" rx="0.1815" ry="0.1757" fill="none" stroke="#000000" stroke-width="0.1200" stroke-linecap="round" stroke-linejoin="round"/>
        <ellipse cx="104.3907" cy="9.2866" rx="0.1675" ry="0.1617" fill="#9B8C81" stroke="#000000" stroke-width="0.1200" stroke-linecap="round" stroke-linejoin="round"/>
        <ellipse cx="104.3907" cy="9.2866" rx="0.1675" ry="0.1617" fill="none" stroke="#000000" stroke-width="0.1200" stroke-linecap="round" stroke-linejoin="round"/>
        <path d="M 104.4885,9.1389 L 104.4187,9.1389 L 104.4187,9.5748 L 104.4885,9.5748 L 104.4885,9.1389 Z" stroke="#000000" stroke-width="0.1200" stroke-linecap="round" stroke-linejoin="round" fill="#4F443C"/>
        <path d="M 105.3957,9.8700 L 105.3957,8.3375 L 105.5213,8.3375 L 105.5213,8.1828 L 105.3957,8.1828 L 105.3957,7.9438 L 105.6609,7.9438 L 105.6609,7.6626 L 106.5682,7.6626 L 106.5682,7.9438 L 106.8473,7.9438 L 106.8473,8.1828 L 106.7217,8.1828 L 106.7217,8.3375 L 106.8473,8.3375 L 106.8473,9.8700 L 105.3957,9.8700 Z" stroke="#000000" stroke-width="0.1200" stroke-linecap="round" stroke-linejoin="round" fill="#938476"/>
        <path d="M 105.3957,8.0704 L 105.3957,7.9438 L 105.6609,7.9438 L 105.6609,7.6486 L 106.5682,7.6486 L 106.5682,7.9438 L 106.8473,7.9438 L 106.8473,8.0704 L 105.3957,8.0704 Z" stroke="#000000" stroke-width="0.1200" stroke-linecap="round" stroke-linejoin="round" fill="#938476"/>
        <path d="M 105.3957,8.0704 L 105.3957,8.1266 L 106.8473,8.1266 L 106.8473,8.0704 L 105.3957,8.0704 Z" stroke="#000000" stroke-width="0.1200" stroke-linecap="round" stroke-linejoin="round" fill="#706257"/>
        <path d="M 105.3957,8.7171 L 106.8334,8.7171 " stroke="#000000" stroke-width="0.1200" stroke-linecap="round" stroke-linejoin="round" fill="none"/>
        <path d="M 106.6380,9.8700 L 106.6938,9.8138 L 106.7077,9.7857 L 106.7357,9.7576 L 106.7496,9.7294 L 106.7636,9.6873 L 106.7915,9.6310 L 106.8055,9.5888 L 106.8334,9.5326 L 106.8334,9.4623 L 106.8473,9.4201 L 106.8473,9.2795 L 106.8334,9.2373 L 106.8334,9.1670 L 106.8055,9.1108 L 106.7915,9.0686 L 106.7636,9.0124 L 106.7496,8.9702 L 106.7357,8.9421 L 106.7077,8.9140 L 106.6938,8.8858 L 106.5821,8.7734 L 106.5542,8.7593 L 106.5263,8.7312 L 106.4984,8.7171 L 106.4565,8.7031 L 106.4007,8.6749 L 106.3588,8.6609 L 106.3030,8.6328 L 106.2332,8.6328 L 106.1913,8.6187 L 106.0517,8.6187 L 106.0099,8.6328 L 105.9401,8.6328 L 105.8842,8.6609 L 105.8424,8.6749 L 105.7865,8.7031 L 105.7447,8.7171 L 105.7167,8.7312 L 105.6888,8.7593 L 105.6609,8.7734 L 105.5492,8.8858 L 105.5353,8.9140 L 105.5074,8.9421 L 105.4934,8.9702 L 105.4795,9.0124 L 105.4515,9.0686 L 105.4376,9.1108 L 105.4097,9.1670 L 105.4097,9.2373 L 105.3957,9.2795 L 105.3957,9.4201 L 105.4097,9.4623 L 105.4097,9.5326 L 105.4376,9.5888 L 105.4515,9.6310 L 105.4795,9.6873 L 105.4934,9.7294 L 105.5074,9.7576 L 105.5353,9.7857 L 105.5492,9.8138 L 105.6051,9.8700 L 106.6240,9.8700 L 106.6380,9.8700 Z" stroke="#000000" stroke-width="0.1200" stroke-linecap="round" stroke-linejoin="round" fill="#A09183"/>
        <ellipse cx="106.0657" cy="9.2866" rx="0.2931" ry="0.2882" fill="none" stroke="#494949" stroke-width="0.1200" stroke-linecap="round" stroke-linejoin="round"/>
        <ellipse cx="106.0727" cy="9.2866" rx="0.1745" ry="0.1757" fill="#706257" stroke="#000000" stroke-width="0.1200" stroke-linecap="round" stroke-linejoin="round"/>
        <ellipse cx="106.0727" cy="9.2866" rx="0.1745" ry="0.1757" fill="none" stroke="#000000" stroke-width="0.1200" stroke-linecap="round" stroke-linejoin="round"/>
        <ellipse cx="106.0657" cy="9.2866" rx="0.1675" ry="0.1617" fill="#9B8C81" stroke="#000000" stroke-width="0.1200" stroke-linecap="round" stroke-linejoin="round"/>
        <ellipse cx="106.0657" cy="9.2866" rx="0.1675" ry="0.1617" fill="none" stroke="#000000" stroke-width="0.1200" stroke-linecap="round" stroke-linejoin="round"/>
        <path d="M 106.1634,9.1389 L 106.0936,9.1389 L 106.0936,9.5748 L 106.1634,9.5748 L 106.1634,9.1389 Z" stroke="#000000" stroke-width="0.1200" stroke-linecap="round" stroke-linejoin="round" fill="#4F443C"/>
        <path d="M 122.4285,10.1459 L 118.4629,10.1459 L 118.4629,7.4745 L 122.4285,7.4745 L 122.4285,10.1459 Z" stroke="#000000" stroke-width="0.1200" stroke-linecap="round" stroke-linejoin="round" fill="none"/>
        <path d="M 122.4285,10.1459 L 118.4629,10.1459 L 118.4629,7.4745 L 122.4285,7.4745 L 122.4285,10.1459 Z" stroke="#000000" stroke-width="0.1200" stroke-linecap="round" stroke-linejoin="round" fill="#DDDDDD"/>
        <path d="M 122.3126,10.0950 L 118.5719,10.0950 L 118.5719,7.5361 L 122.3126,7.5361 L 122.3126,10.0950 Z" stroke="#000000" stroke-width="0.1200" stroke-linecap="round" stroke-linejoin="round" fill="#999974"/>
        <path d="M 122.2568,7.7751 L 122.2568,7.7329 L 122.2149,7.6486 L 122.1312,7.6064 L 118.7534,7.6064 L 118.6696,7.6486 L 118.6278,7.7329 L 118.6278,9.9122 L 118.6696,9.9966 L 118.7534,10.0388 L 122.1312,10.0388 L 122.2149,9.9966 L 122.2568,9.9122 L 122.2568,9.8700 L 122.2568,7.7751 Z" stroke="#7F7F7F" stroke-width="0.1200" stroke-linecap="round" stroke-linejoin="round" fill="#CCCCB9"/>
        <path d="M 118.8511,9.8700 L 118.8511,8.3375 L 118.9767,8.3375 L 118.9767,8.1828 L 118.8511,8.1828 L 118.8511,7.9438 L 119.1163,7.9438 L 119.1163,7.6626 L 120.0235,7.6626 L 120.0235,7.9438 L 120.3027,7.9438 L 120.3027,8.1828 L 120.1771,8.1828 L 120.1771,8.3375 L 120.3027,8.3375 L 120.3027,9.8700 L 118.8511,9.8700 Z" stroke="#000000" stroke-width="0.1200" stroke-linecap="round" stroke-linejoin="round" fill="#938476"/>
        <path d="M 118.8511,8.0704 L 118.8511,7.9438 L 119.1163,7.9438 L 119.1163,7.6486 L 120.0235,7.6486 L 120.0235,7.9438 L 120.3027,7.9438 L 120.3027,8.0704 L 118.8511,8.0704 Z" stroke="#000000" stroke-width="0.1200" stroke-linecap="round" stroke-linejoin="round" fill="#938476"/>
        <path d="M 118.8511,8.0704 L 118.8511,8.1266 L 120.3027,8.1266 L 120.3027,8.0704 L 118.8511,8.0704 Z" stroke="#000000" stroke-width="0.1200" stroke-linecap="round" stroke-linejoin="round" fill="#706257"/>
        <path d="M 118.8511,8.7171 L 120.2887,8.7171 " stroke="#000000" stroke-width="0.1200" stroke-linecap="round" stroke-linejoin="round" fill="none"/>
        <path d="M 120.0933,9.8700 L 120.1492,9.8138 L 120.1631,9.7857 L 120.1910,9.7576 L 120.2050,9.7294 L 120.2189,9.6873 L 120.2469,9.6310 L 120.2608,9.5888 L 120.2887,9.5326 L 120.2887,9.4623 L 120.3027,9.4201 L 120.3027,9.2795 L 120.2887,9.2373 L 120.2887,9.1670 L 120.2608,9.1108 L 120.2469,9.0686 L 120.2189,9.0124 L 120.2050,8.9702 L 120.1910,8.9421 L 120.1631,8.9140 L 120.1492,8.8858 L 120.0375,8.7734 L 120.0096,8.7593 L 119.9817,8.7312 L 119.9537,8.7171 L 119.9119,8.7031 L 119.8560,8.6749 L 119.8142,8.6609 L 119.7583,8.6328 L 119.6885,8.6328 L 119.6467,8.6187 L 119.5071,8.6187 L 119.4652,8.6328 L 119.3954,8.6328 L 119.3396,8.6609 L 119.2977,8.6749 L 119.2419,8.7031 L 119.2000,8.7171 L 119.1721,8.7312 L 119.1442,8.7593 L 119.1163,8.7734 L 119.0046,8.8858 L 118.9907,8.9140 L 118.9627,8.9421 L 118.9488,8.9702 L 118.9348,9.0124 L 118.9069,9.0686 L 118.8929,9.1108 L 118.8650,9.1670 L 118.8650,9.2373 L 118.8511,9.2795 L 118.8511,9.4201 L 118.8650,9.4623 L 118.8650,9.5326 L 118.8929,9.5888 L 118.9069,9.6310 L 118.9348,9.6873 L 118.9488,9.7294 L 118.9627,9.7576 L 118.9907,9.7857 L 119.0046,9.8138 L 119.0604,9.8700 L 120.0794,9.8700 L 120.0933,9.8700 Z" stroke="#000000" stroke-width="0.1200" stroke-linecap="round" stroke-linejoin="round" fill="#A09183"/>
        <ellipse cx="119.5141" cy="9.2866" rx="0.2861" ry="0.2882" fill="none" stroke="#494949" stroke-width="0.1200" stroke-linecap="round" stroke-linejoin="round"/>
        <ellipse cx="119.5211" cy="9.2866" rx="0.1815" ry="0.1757" fill="#706257" stroke="#000000" stroke-width="0.1200" stroke-linecap="round" stroke-linejoin="round"/>
        <ellipse cx="119.5211" cy="9.2866" rx="0.1815" ry="0.1757" fill="none" stroke="#000000" stroke-width="0.1200" stroke-linecap="round" stroke-linejoin="round"/>
        <ellipse cx="119.5211" cy="9.2866" rx="0.1675" ry="0.1617" fill="#9B8C81" stroke="#000000" stroke-width="0.1200" stroke-linecap="round" stroke-linejoin="round"/>
        <ellipse cx="119.5211" cy="9.2866" rx="0.1675" ry="0.1617" fill="none" stroke="#000000" stroke-width="0.1200" stroke-linecap="round" stroke-linejoin="round"/>
        <path d="M 119.6188,9.1389 L 119.5490,9.1389 L 119.5490,9.5748 L 119.6188,9.5748 L 119.6188,9.1389 Z" stroke="#000000" stroke-width="0.1200" stroke-linecap="round" stroke-linejoin="round" fill="#4F443C"/>
        <path d="M 120.5260,9.8700 L 120.5260,8.3375 L 120.6516,8.3375 L 120.6516,8.1828 L 120.5260,8.1828 L 120.5260,7.9438 L 120.7912,7.9438 L 120.7912,7.6626 L 121.6985,7.6626 L 121.6985,7.9438 L 121.9776,7.9438 L 121.9776,8.1828 L 121.8520,8.1828 L 121.8520,8.3375 L 121.9776,8.3375 L 121.9776,9.8700 L 120.5260,9.8700 Z" stroke="#000000" stroke-width="0.1200" stroke-linecap="round" stroke-linejoin="round" fill="#938476"/>
        <path d="M 120.5260,8.0704 L 120.5260,7.9438 L 120.7912,7.9438 L 120.7912,7.6486 L 121.6985,7.6486 L 121.6985,7.9438 L 121.9776,7.9438 L 121.9776,8.0704 L 120.5260,8.0704 Z" stroke="#000000" stroke-width="0.1200" stroke-linecap="round" stroke-linejoin="round" fill="#938476"/>
        <path d="M 120.5260,8.0704 L 120.5260,8.1266 L 121.9776,8.1266 L 121.9776,8.0704 L 120.5260,8.0704 Z" stroke="#000000" stroke-width="0.1200" stroke-linecap="round" stroke-linejoin="round" fill="#706257"/>
        <path d="M 120.5260,8.7171 L 121.9637,8.7171 " stroke="#000000" stroke-width="0.1200" stroke-linecap="round" stroke-linejoin="round" fill="none"/>
        <path d="M 121.7683,9.8700 L 121.8241,9.8138 L 121.8381,9.7857 L 121.8660,9.7576 L 121.8799,9.7294 L 121.8939,9.6873 L 121.9218,9.6310 L 121.9358,9.5888 L 121.9637,9.5326 L 121.9637,9.4623 L 121.9776,9.4201 L 121.9776,9.2795 L 121.9637,9.2373 L 121.9637,9.1670 L 121.9358,9.1108 L 121.9218,9.0686 L 121.8939,9.0124 L 121.8799,8.9702 L 121.8660,8.9421 L 121.8381,8.9140 L 121.8241,8.8858 L 121.7124,8.7734 L 121.6845,8.7593 L 121.6566,8.7312 L 121.6287,8.7171 L 121.5868,8.7031 L 121.5310,8.6749 L 121.4891,8.6609 L 121.4333,8.6328 L 121.3635,8.6328 L 121.3216,8.6187 L 121.1820,8.6187 L 121.1402,8.6328 L 121.0704,8.6328 L 121.0145,8.6609 L 120.9727,8.6749 L 120.9168,8.7031 L 120.8750,8.7171 L 120.8470,8.7312 L 120.8191,8.7593 L 120.7912,8.7734 L 120.6796,8.8858 L 120.6656,8.9140 L 120.6377,8.9421 L 120.6237,8.9702 L 120.6098,9.0124 L 120.5818,9.0686 L 120.5679,9.1108 L 120.5400,9.1670 L 120.5400,9.2373 L 120.5260,9.2795 L 120.5260,9.4201 L 120.5400,9.4623 L 120.5400,9.5326 L 120.5679,9.5888 L 120.5818,9.6310 L 120.6098,9.6873 L 120.6237,9.7294 L 120.6377,9.7576 L 120.6656,9.7857 L 120.6796,9.8138 L 120.7354,9.8700 L 121.7543,9.8700 L 121.7683,9.8700 Z" stroke="#000000" stroke-width="0.1200" stroke-linecap="round" stroke-linejoin="round" fill="#A09183"/>
        <ellipse cx="121.1960" cy="9.2866" rx="0.2931" ry="0.2882" fill="none" stroke="#494949" stroke-width="0.1200" stroke-linecap="round" stroke-linejoin="round"/>
        <ellipse cx="121.1890" cy="9.2866" rx="0.1745" ry="0.1757" fill="#706257" stroke="#000000" stroke-width="0.1200" stroke-linecap="round" stroke-linejoin="round"/>
        <ellipse cx="121.1890" cy="9.2866" rx="0.1745" ry="0.1757" fill="none" stroke="#000000" stroke-width="0.1200" stroke-linecap="round" stroke-linejoin="round"/>
        <ellipse cx="121.1890" cy="9.2866" rx="0.1605" ry="0.1617" fill="#9B8C81" stroke="#000000" stroke-width="0.1200" stroke-linecap="round" stroke-linejoin="round"/>
        <ellipse cx="121.1890" cy="9.2866" rx="0.1605" ry="0.1617" fill="none" stroke="#000000" stroke-width="0.1200" stroke-linecap="round" stroke-linejoin="round"/>
        <path d="M 121.2937,9.1389 L 121.2239,9.1389 L 121.2239,9.5748 L 121.2937,9.5748 L 121.2937,9.1389 Z" stroke="#000000" stroke-width="0.1200" stroke-linecap="round" stroke-linejoin="round" fill="#4F443C"/>
      </g>
      <!--emf-blob end-->
    </g>
  </g>
</svg>
