<svg xmlns="http://www.w3.org/2000/svg" xmlns:xlink="http://www.w3.org/1999/xlink" version="1.1" width="4.2568000000" height="0.6880000000" viewBox="0 0 76.6205 12.3874">
  <title><![CDATA[FSW-110G-FPOE]]></title>
  <g transform=" scale(4.000000) ">
    <!--converted by libvisio2svg-->
    <g transform=" translate(0.000000,0.000000) ">
      <!--emf-blob start-->
      <g transform="translate(-0.0000, -0.0000)">
        <path d="M 76.5643,0.0280 L 0.0281,0.0280 L 0.0281,12.2752 L 76.5643,12.2752 L 76.5643,0.0280 Z" stroke="#000000" stroke-width="0.1197" stroke-linecap="round" stroke-linejoin="round" fill="#E2E2E2"/>
        <path d="M 76.3956,0.1957 L 0.1968,0.1957 L 0.1968,12.1074 L 76.3956,12.1074 L 76.3956,0.1957 Z" stroke="#E2E2E2" stroke-width="0.1197" stroke-linecap="round" stroke-linejoin="round" fill="#EFEFEF"/>
        <path d="M 76.5643,0.0280 L 0.0281,0.0280 L 0.0281,12.2752 L 76.5643,12.2752 L 76.5643,0.0280 " stroke="#000000" stroke-width="0.1197" stroke-linecap="round" stroke-linejoin="round" fill="none"/>
        <path d="M 0.0281,0.3495 L 0.2249,0.2796 L 0.3515,0.0280 " stroke="#000000" stroke-width="0.1197" stroke-linecap="round" stroke-linejoin="round" fill="none"/>
        <path d="M 0.0281,11.9536 L 0.2249,12.0235 L 0.3515,12.2752 " stroke="#000000" stroke-width="0.1197" stroke-linecap="round" stroke-linejoin="round" fill="none"/>
        <path d="M 76.5643,0.3495 L 76.3674,0.2796 L 76.2409,0.0280 " stroke="#000000" stroke-width="0.1197" stroke-linecap="round" stroke-linejoin="round" fill="none"/>
        <path d="M 76.5643,11.9536 L 76.3674,12.0235 L 76.2409,12.2752 " stroke="#000000" stroke-width="0.1197" stroke-linecap="round" stroke-linejoin="round" fill="none"/>
        <path d="M 75.4255,1.4960 L 75.4114,1.3981 L 75.3833,1.3142 L 75.3411,1.2303 L 75.2849,1.1604 L 75.2146,1.1045 L 75.1303,1.0625 L 75.0459,1.0346 L 74.9475,1.0206 L 1.6589,1.0206 L 1.5605,1.0346 L 1.4762,1.0625 L 1.3918,1.1045 L 1.3215,1.1604 L 1.2653,1.2303 L 1.2231,1.3142 L 1.1950,1.3981 L 1.1809,1.4960 L 1.1809,10.8072 L 1.1950,10.9051 L 1.2231,10.9889 L 1.2653,11.0728 L 1.3215,11.1427 L 1.3918,11.1987 L 1.4762,11.2406 L 1.5605,11.2686 L 1.6589,11.2825 L 74.9475,11.2825 L 75.0459,11.2686 L 75.1303,11.2406 L 75.2146,11.1987 L 75.2849,11.1427 L 75.3411,11.0728 L 75.3833,10.9889 L 75.4114,10.9051 L 75.4255,10.8072 L 75.4255,1.4960 Z" stroke="#D8D8D8" stroke-width="0.1197" stroke-linecap="round" stroke-linejoin="round" fill="#D8D8D8"/>
        <path d="M 75.2709,1.6078 L 75.2568,1.5099 L 75.2427,1.4260 L 75.2006,1.3561 L 75.1443,1.2862 L 75.0740,1.2303 L 75.0037,1.1884 L 74.9194,1.1744 L 74.8210,1.1604 L 1.7714,1.1604 L 1.6730,1.1744 L 1.5886,1.1884 L 1.5184,1.2303 L 1.4481,1.2862 L 1.3918,1.3561 L 1.3496,1.4260 L 1.3356,1.5099 L 1.3215,1.6078 L 1.3215,10.7093 L 1.3356,10.8072 L 1.3496,10.8911 L 1.3918,10.9610 L 1.4481,11.0309 L 1.5184,11.0868 L 1.5886,11.1288 L 1.6730,11.1427 L 1.7714,11.1567 L 74.8210,11.1567 L 74.9194,11.1427 L 75.0037,11.1288 L 75.0740,11.0868 L 75.1443,11.0309 L 75.2006,10.9610 L 75.2427,10.8911 L 75.2568,10.8072 L 75.2709,10.7093 L 75.2709,1.6078 Z" stroke="#7F7F7F" stroke-width="0.1197" stroke-linecap="round" stroke-linejoin="round" fill="#EFEFEF"/>
        <path d="M 54.4357,3.0618 L 54.0139,3.0618 L 54.0139,5.6622 " stroke="#000000" stroke-width="0.1197" stroke-linecap="round" stroke-linejoin="round" fill="none"/>
        <path d="M 54.4357,9.4511 L 54.0139,9.4511 L 54.0139,6.8506 " stroke="#000000" stroke-width="0.1197" stroke-linecap="round" stroke-linejoin="round" fill="none"/>
        <path d="M 32.7148,6.0118 L 32.7289,6.0118 L 32.7430,6.0118 L 32.7570,6.0118 L 32.7711,6.0257 L 32.7851,6.0257 L 32.7992,6.0257 L 32.7992,6.0397 L 32.8133,6.0397 L 32.8273,6.0537 L 32.8414,6.0537 L 32.8414,6.0677 L 32.8554,6.0677 L 32.8554,6.0817 L 32.8695,6.0817 L 32.8695,6.0957 L 32.8836,6.0957 L 32.8836,6.1096 L 32.8836,6.1236 L 32.8836,6.1376 L 32.8836,6.1656 L 32.8836,6.2075 L 32.8836,6.2634 L 32.8836,6.3473 L 32.8836,6.4312 L 32.8836,6.5430 L 32.8836,6.6549 L 32.8836,6.7667 L 32.8836,6.9065 L 32.8836,7.0463 L 32.8836,7.1862 L 32.8836,7.3399 L 32.8836,7.4937 L 32.8836,7.6475 L 32.8836,7.8153 L 32.8836,7.9691 L 32.8836,8.1229 L 32.8836,8.2767 L 32.8836,8.4305 L 32.8836,8.5703 L 32.8836,8.7101 L 32.8836,8.8499 L 32.8836,8.9617 L 32.8836,9.0736 L 32.8836,9.1854 L 32.8836,9.2693 L 32.8836,9.3532 L 32.8836,9.4091 L 32.8836,9.4511 L 32.8836,9.4790 L 32.8836,9.4930 L 32.8836,9.5070 L 32.8836,9.5210 L 32.8836,9.5349 L 32.8695,9.5349 L 32.8695,9.5489 L 32.8554,9.5629 L 32.8414,9.5769 L 32.8273,9.5909 L 32.8133,9.5909 L 32.8133,9.6048 L 32.7992,9.6048 L 32.7851,9.6048 L 32.7851,9.6188 L 32.7711,9.6188 L 32.7570,9.6328 L 32.7430,9.6328 L 32.7289,9.6328 L 32.7148,9.6328 L 32.7008,9.6328 L 32.6867,9.6328 L 32.6586,9.6328 L 32.6305,9.6328 L 32.5883,9.6328 L 32.5461,9.6328 L 32.5040,9.6328 L 32.4618,9.6328 L 32.4056,9.6328 L 32.3493,9.6328 L 32.2931,9.6328 L 32.2368,9.6328 L 32.1806,9.6328 L 32.1103,9.6328 L 32.0541,9.6328 L 31.9978,9.6328 L 31.9276,9.6328 L 31.8713,9.6328 L 31.8151,9.6328 L 31.7588,9.6328 L 31.7026,9.6328 L 31.6464,9.6328 L 31.6042,9.6328 L 31.5620,9.6328 L 31.5198,9.6328 L 31.4777,9.6328 L 31.4496,9.6328 L 31.4214,9.6328 L 31.4074,9.6328 L 31.3933,9.6328 L 31.3793,9.6328 L 31.3652,9.6328 L 31.3511,9.6188 L 31.3371,9.6188 L 31.3230,9.6048 L 31.3090,9.6048 L 31.3090,9.5909 L 31.2949,9.5909 L 31.2949,9.5769 L 31.2808,9.5769 L 31.2808,9.5629 L 31.2668,9.5489 L 31.2668,9.5349 L 31.2527,9.5210 L 31.2527,9.5070 L 31.2527,9.4930 L 31.2527,9.4790 L 31.2527,9.4511 L 31.2527,9.4091 L 31.2527,9.3532 L 31.2527,9.2693 L 31.2527,9.1854 L 31.2527,9.0736 L 31.2527,8.9617 L 31.2527,8.8499 L 31.2527,8.7101 L 31.2527,8.5703 L 31.2527,8.4305 L 31.2527,8.2767 L 31.2527,8.1229 L 31.2527,7.9691 L 31.2527,7.8153 L 31.2527,7.6475 L 31.2527,7.4937 L 31.2527,7.3399 L 31.2527,7.1862 L 31.2527,7.0463 L 31.2527,6.9065 L 31.2527,6.7667 L 31.2527,6.6549 L 31.2527,6.5430 L 31.2527,6.4312 L 31.2527,6.3473 L 31.2527,6.2634 L 31.2527,6.2075 L 31.2527,6.1656 L 31.2527,6.1376 L 31.2527,6.1236 L 31.2527,6.1096 L 31.2527,6.0957 L 31.2668,6.0957 L 31.2668,6.0817 L 31.2668,6.0677 L 31.2808,6.0677 L 31.2808,6.0537 L 31.2949,6.0537 L 31.2949,6.0397 L 31.3090,6.0397 L 31.3230,6.0397 L 31.3230,6.0257 L 31.3371,6.0257 L 31.3511,6.0257 L 31.3511,6.0118 L 31.3652,6.0118 L 31.3793,6.0118 L 31.3933,6.0118 L 31.4074,6.0118 L 31.4214,6.0118 L 31.4496,6.0118 L 31.4777,6.0118 L 31.5198,6.0118 L 31.5620,6.0118 L 31.6042,6.0118 L 31.6464,6.0118 L 31.7026,6.0118 L 31.7588,6.0118 L 31.8151,6.0118 L 31.8713,6.0118 L 31.9276,6.0118 L 31.9978,6.0118 L 32.0541,6.0118 L 32.1103,6.0118 L 32.1806,6.0118 L 32.2368,6.0118 L 32.2931,6.0118 L 32.3493,6.0118 L 32.4056,6.0118 L 32.4618,6.0118 L 32.5040,6.0118 L 32.5461,6.0118 L 32.5883,6.0118 L 32.6305,6.0118 L 32.6586,6.0118 L 32.6867,6.0118 L 32.7008,6.0118 L 32.7148,6.0118 Z" stroke="#000000" stroke-width="0.1197" stroke-linecap="round" stroke-linejoin="round" fill="#161616"/>
        <path d="M 19.3168,4.8094 L 18.5857,4.8094 L 18.5857,5.0191 L 19.3168,5.0191 L 19.3168,4.8094 Z" stroke="#000000" stroke-width="0.1197" stroke-linecap="round" stroke-linejoin="round" fill="#00FF00"/>
        <path d="M 19.3168,9.1295 L 18.5857,9.1295 L 18.5857,9.3392 L 19.3168,9.3392 L 19.3168,9.1295 Z" stroke="#000000" stroke-width="0.1197" stroke-linecap="round" stroke-linejoin="round" fill="#00FF00"/>
        <path d="M 19.3168,6.2355 L 18.5857,6.2355 L 18.5857,6.4452 L 19.3168,6.4452 L 19.3168,6.2355 Z" stroke="#000000" stroke-width="0.1197" stroke-linecap="round" stroke-linejoin="round" fill="#00FF00"/>
        <path d="M 19.3168,7.6755 L 18.5857,7.6755 L 18.5857,7.8852 L 19.3168,7.8852 L 19.3168,7.6755 Z" stroke="#000000" stroke-width="0.1197" stroke-linecap="round" stroke-linejoin="round" fill="#00FF00"/>
        <ellipse cx="16.2168" cy="8.7310" rx="0.2460" ry="0.2447" fill="#0A0A0A" stroke="#000000" stroke-width="0.1197" stroke-linecap="round" stroke-linejoin="round"/>
        <ellipse cx="16.2168" cy="8.7310" rx="0.2460" ry="0.2447" fill="none" stroke="#000000" stroke-width="0.1197" stroke-linecap="round" stroke-linejoin="round"/>
        <ellipse cx="16.2168" cy="8.7380" rx="0.2039" ry="0.2097" fill="#333333" stroke="#000000" stroke-width="0.1197" stroke-linecap="round" stroke-linejoin="round"/>
        <ellipse cx="16.2168" cy="8.7380" rx="0.2039" ry="0.2097" fill="none" stroke="#000000" stroke-width="0.1197" stroke-linecap="round" stroke-linejoin="round"/>
        <path d="M 29.4954,6.1935 L 24.6451,6.1935 L 24.6451,10.0103 L 29.4954,10.0103 L 29.4954,6.1935 Z" stroke="#000000" stroke-width="0.1197" stroke-linecap="round" stroke-linejoin="round" fill="#0A0A0A"/>
        <path d="M 29.4532,6.2355 L 24.6873,6.2355 L 24.6873,9.9544 L 29.4532,9.9544 L 29.4532,6.2355 Z" stroke="#000000" stroke-width="0.1197" stroke-linecap="round" stroke-linejoin="round" fill="#F7F7F7"/>
        <path d="M 59.6937,2.6004 L 54.7872,2.6004 L 54.7872,10.0103 L 59.6937,10.0103 L 59.6937,2.6004 Z" stroke="#000000" stroke-width="0.1197" stroke-linecap="round" stroke-linejoin="round" fill="#0A0A0A"/>
        <path d="M 59.6234,2.6564 L 54.8434,2.6564 L 54.8434,9.9544 L 59.6234,9.9544 L 59.6234,2.6564 Z" stroke="#000000" stroke-width="0.1197" stroke-linecap="round" stroke-linejoin="round" fill="#F7F7F7"/>
        <path d="M 61.5213,9.1295 L 60.7903,9.1295 L 60.7903,9.3392 L 61.5213,9.3392 L 61.5213,9.1295 Z" stroke="#000000" stroke-width="0.1197" stroke-linecap="round" stroke-linejoin="round" fill="#00FF00"/>
        <path d="M 61.5213,7.6755 L 60.7903,7.6755 L 60.7903,7.8852 L 61.5213,7.8852 L 61.5213,7.6755 Z" stroke="#000000" stroke-width="0.1197" stroke-linecap="round" stroke-linejoin="round" fill="#00FF00"/>
        <path d="M 62.8710,9.1295 L 62.1399,9.1295 L 62.1399,9.3392 L 62.8710,9.3392 L 62.8710,9.1295 Z" stroke="#000000" stroke-width="0.1197" stroke-linecap="round" stroke-linejoin="round" fill="#00FF00"/>
        <path d="M 62.8710,7.6755 L 62.1399,7.6755 L 62.1399,7.8852 L 62.8710,7.8852 L 62.8710,7.6755 Z" stroke="#000000" stroke-width="0.1197" stroke-linecap="round" stroke-linejoin="round" fill="#00FF00"/>
        <path d="M 68.2977,2.6004 L 64.0097,2.6004 L 64.0097,10.0103 L 68.2977,10.0103 L 68.2977,2.6004 Z" stroke="#000000" stroke-width="0.1197" stroke-linecap="round" stroke-linejoin="round" fill="#0A0A0A"/>
        <path d="M 68.2274,2.6564 L 64.0660,2.6564 L 64.0660,9.9544 L 68.2274,9.9544 L 68.2274,2.6564 Z" stroke="#000000" stroke-width="0.1197" stroke-linecap="round" stroke-linejoin="round" fill="#F7F7F7"/>
        <path d="M 64.0660,5.6203 L 68.2274,5.6203 L 68.2274,2.6564 L 64.0660,2.6564 L 64.0660,5.6203 Z" stroke="#000000" stroke-width="0.1197" stroke-linecap="round" stroke-linejoin="round" fill="#DDDDDD"/>
        <path d="M 64.1785,5.5085 L 68.1149,5.5085 L 68.1149,2.7682 L 64.1785,2.7682 L 64.1785,5.5085 Z" stroke="#000000" stroke-width="0.1197" stroke-linecap="round" stroke-linejoin="round" fill="#333333"/>
        <path d="M 65.2610,5.5085 L 67.0324,5.5085 L 67.0324,5.3407 L 65.2610,5.3407 L 65.2610,5.5085 Z" stroke="#000000" stroke-width="0.1197" stroke-linecap="round" stroke-linejoin="round" fill="#CCCCCC"/>
        <path d="M 64.0660,6.9904 L 68.2274,6.9904 L 68.2274,9.9544 L 64.0660,9.9544 L 64.0660,6.9904 Z" stroke="#000000" stroke-width="0.1197" stroke-linecap="round" stroke-linejoin="round" fill="#DDDDDD"/>
        <path d="M 68.1149,7.1023 L 64.1785,7.1023 L 64.1785,9.8425 L 68.1149,9.8425 L 68.1149,7.1023 Z" stroke="#000000" stroke-width="0.1197" stroke-linecap="round" stroke-linejoin="round" fill="#333333"/>
        <path d="M 65.2610,7.1023 L 67.0324,7.1023 L 67.0324,7.2700 L 65.2610,7.2700 L 65.2610,7.1023 Z" stroke="#000000" stroke-width="0.1197" stroke-linecap="round" stroke-linejoin="round" fill="#CCCCCC"/>
        <path d="M 73.8931,2.6004 L 69.6052,2.6004 L 69.6052,10.0103 L 73.8931,10.0103 L 73.8931,2.6004 Z" stroke="#000000" stroke-width="0.1197" stroke-linecap="round" stroke-linejoin="round" fill="#0A0A0A"/>
        <path d="M 73.8228,2.6564 L 69.6614,2.6564 L 69.6614,9.9544 L 73.8228,9.9544 L 73.8228,2.6564 Z" stroke="#000000" stroke-width="0.1197" stroke-linecap="round" stroke-linejoin="round" fill="#F7F7F7"/>
        <path d="M 69.6614,5.6203 L 73.8228,5.6203 L 73.8228,2.6564 L 69.6614,2.6564 L 69.6614,5.6203 Z" stroke="#000000" stroke-width="0.1197" stroke-linecap="round" stroke-linejoin="round" fill="#DDDDDD"/>
        <path d="M 69.7739,5.5085 L 73.7103,5.5085 L 73.7103,2.7682 L 69.7739,2.7682 L 69.7739,5.5085 Z" stroke="#000000" stroke-width="0.1197" stroke-linecap="round" stroke-linejoin="round" fill="#333333"/>
        <path d="M 70.8564,5.5085 L 72.6278,5.5085 L 72.6278,5.3407 L 70.8564,5.3407 L 70.8564,5.5085 Z" stroke="#000000" stroke-width="0.1197" stroke-linecap="round" stroke-linejoin="round" fill="#CCCCCC"/>
        <path d="M 69.6614,6.9904 L 73.8228,6.9904 L 73.8228,9.9544 L 69.6614,9.9544 L 69.6614,6.9904 Z" stroke="#000000" stroke-width="0.1197" stroke-linecap="round" stroke-linejoin="round" fill="#DDDDDD"/>
        <path d="M 73.7103,7.1023 L 69.7739,7.1023 L 69.7739,9.8425 L 73.7103,9.8425 L 73.7103,7.1023 Z" stroke="#000000" stroke-width="0.1197" stroke-linecap="round" stroke-linejoin="round" fill="#333333"/>
        <path d="M 70.8564,7.1023 L 72.6278,7.1023 L 72.6278,7.2700 L 70.8564,7.2700 L 70.8564,7.1023 Z" stroke="#000000" stroke-width="0.1197" stroke-linecap="round" stroke-linejoin="round" fill="#CCCCCC"/>
        <path d="M 53.0017,2.6004 L 34.6971,2.6004 L 34.6971,10.0103 L 53.0017,10.0103 L 53.0017,2.6004 Z" stroke="#000000" stroke-width="0.1197" stroke-linecap="round" stroke-linejoin="round" fill="#0A0A0A"/>
        <path d="M 52.9595,2.6564 L 34.7534,2.6564 L 34.7534,9.9544 L 52.9595,9.9544 L 52.9595,2.6564 Z" stroke="#000000" stroke-width="0.1197" stroke-linecap="round" stroke-linejoin="round" fill="#F7F7F7"/>
        <path d="M 37.1715,2.4047 L 37.1715,1.9014 L 41.1080,1.9014 " stroke="#000000" stroke-width="0.1197" stroke-linecap="round" stroke-linejoin="round" fill="none"/>
        <path d="M 50.5414,2.4047 L 50.5414,1.9014 L 46.6049,1.9014 " stroke="#000000" stroke-width="0.1197" stroke-linecap="round" stroke-linejoin="round" fill="none"/>
        <path d="M 76.5643,0.0280 L 0.0281,0.0280 L 0.0281,12.2752 L 76.5643,12.2752 L 76.5643,0.0280 " stroke="#000000" stroke-width="0.1197" stroke-linecap="round" stroke-linejoin="round" fill="none"/>
        <text font-family="Arial" fill="#000000" style="white-space:pre;" font-weight="400" text-anchor="start" x="7.5777" y="2.2070" font-size="0.1687"><![CDATA[CONSOLE]]></text>
        <text font-family="Arial" fill="#000000" style="white-space:pre;" font-weight="400" text-anchor="start" x="9.0679" y="3.5352" font-size="0.1687"><![CDATA[USB]]></text>
        <path d="M 2.3666,3.3737 L 2.3533,3.3737 L 2.3400,3.3737 L 2.3400,3.3607 L 2.3267,3.3607 L 2.3267,3.3476 L 2.3134,3.3476 L 2.3134,3.3345 L 2.3001,3.3345 L 2.3001,3.3214 L 2.3001,3.3083 L 2.3001,3.2953 L 2.3001,3.2822 L 2.3001,3.2691 L 2.3001,3.2430 L 2.3001,3.2168 L 2.3001,3.1907 L 2.3001,3.1514 L 2.3001,3.1122 L 2.3001,3.0730 L 2.3001,3.0337 L 2.3001,2.9945 L 2.3001,2.9553 L 2.3001,2.9030 L 2.3001,2.8637 L 2.3001,2.8114 L 2.3001,2.7591 L 2.3001,2.7199 L 2.3001,2.6676 L 2.3001,2.6284 L 2.3001,2.5891 L 2.3001,2.5499 L 2.3001,2.5107 L 2.3001,2.4715 L 2.3001,2.4322 L 2.3001,2.4061 L 2.3001,2.3799 L 2.3001,2.3538 L 2.3001,2.3407 L 2.3001,2.3276 L 2.3001,2.3145 L 2.3001,2.3015 L 2.3001,2.2884 L 2.3134,2.2884 L 2.3134,2.2753 L 2.3267,2.2753 L 2.3267,2.2622 L 2.3400,2.2622 L 2.3400,2.2492 L 2.3533,2.2492 L 2.3666,2.2492 L 2.3798,2.2492 L 2.3931,2.2492 L 2.4197,2.2492 L 2.4463,2.2492 L 2.4729,2.2492 L 2.5128,2.2492 L 2.5527,2.2492 L 2.5926,2.2492 L 2.6458,2.2492 L 2.6989,2.2492 L 2.7388,2.2492 L 2.7920,2.2492 L 2.8585,2.2492 L 2.9117,2.2492 L 2.9648,2.2492 L 3.0180,2.2492 L 3.0712,2.2492 L 3.1377,2.2492 L 3.1909,2.2492 L 3.2307,2.2492 L 3.2839,2.2492 L 3.3371,2.2492 L 3.3770,2.2492 L 3.4169,2.2492 L 3.4568,2.2492 L 3.4834,2.2492 L 3.5099,2.2492 L 3.5365,2.2492 L 3.5498,2.2492 L 3.5631,2.2492 L 3.5764,2.2492 L 3.5897,2.2492 L 3.5897,2.2622 L 3.6030,2.2622 L 3.6030,2.2753 L 3.6163,2.2753 L 3.6163,2.2884 L 3.6296,2.2884 L 3.6296,2.3015 L 3.6296,2.3145 L 3.6296,2.3276 L 3.6296,2.3407 L 3.6296,2.3538 L 3.6296,2.3668 L 3.6296,2.3799 L 3.6296,2.3930 L 3.6296,2.4061 L 3.6296,2.4191 L 3.6296,2.4322 L 3.6296,2.4453 L 3.6296,2.4584 L 3.6296,2.4715 L 3.6296,2.4845 L 3.6296,2.4976 L 3.6296,2.5107 L 3.6296,2.5238 L 3.6296,2.5107 L 3.6163,2.4976 L 3.6163,2.4845 L 3.6030,2.4845 L 3.5897,2.4845 L 3.5897,2.4715 L 3.5764,2.4715 L 3.5631,2.4715 L 3.5498,2.4715 L 3.5365,2.4715 L 3.5099,2.4715 L 3.4834,2.4715 L 3.4568,2.4715 L 3.4302,2.4715 L 3.3903,2.4715 L 3.3504,2.4715 L 3.3105,2.4715 L 3.2706,2.4715 L 3.2307,2.4715 L 3.1909,2.4715 L 3.1377,2.4715 L 3.0978,2.4715 L 3.0579,2.4715 L 3.0047,2.4715 L 2.9648,2.4715 L 2.9250,2.4715 L 2.8851,2.4715 L 2.8452,2.4715 L 2.8053,2.4715 L 2.7654,2.4715 L 2.7388,2.4715 L 2.7122,2.4715 L 2.6856,2.4715 L 2.6590,2.4715 L 2.6458,2.4715 L 2.6325,2.4715 L 2.6192,2.4715 L 2.6059,2.4715 L 2.5926,2.4715 L 2.5926,2.4845 L 2.5793,2.4845 L 2.5793,2.4976 L 2.5660,2.4976 L 2.5660,2.5107 L 2.5660,2.5238 L 2.5660,2.5368 L 2.5660,2.5499 L 2.5660,2.5630 L 2.5660,2.5761 L 2.5660,2.6022 L 2.5660,2.6153 L 2.5660,2.6545 L 2.5660,2.6807 L 2.5660,2.7068 L 2.5660,2.7461 L 2.5660,2.7722 L 2.5660,2.8114 L 2.5660,2.8507 L 2.5660,2.8899 L 2.5660,2.9291 L 2.5660,2.9553 L 2.5660,2.9945 L 2.5660,3.0337 L 2.5660,3.0730 L 2.5660,3.0991 L 2.5660,3.1384 L 2.5660,3.1645 L 2.5660,3.1907 L 2.5660,3.2299 L 2.5660,3.2430 L 2.5660,3.2691 L 2.5660,3.2822 L 2.5660,3.2953 L 2.5660,3.3083 L 2.5660,3.3214 L 2.5660,3.3345 L 2.5660,3.3476 L 2.5793,3.3476 L 2.5793,3.3607 L 2.5926,3.3737 L 2.6059,3.3737 L 2.5926,3.3737 L 2.5793,3.3737 L 2.5660,3.3737 L 2.5527,3.3737 L 2.5394,3.3737 L 2.5261,3.3737 L 2.5128,3.3737 L 2.4995,3.3737 L 2.4862,3.3737 L 2.4729,3.3737 L 2.4596,3.3737 L 2.4463,3.3737 L 2.4330,3.3737 L 2.4197,3.3737 L 2.4064,3.3737 L 2.3931,3.3737 L 2.3798,3.3737 L 2.3666,3.3737 Z" stroke="#000000" stroke-width="0.1197" stroke-linecap="round" stroke-linejoin="round" fill="#000000"/>
        <path d="M 3.5498,2.7330 L 3.5232,2.7330 L 3.4966,2.7330 L 3.4701,2.7330 L 3.4435,2.7330 L 3.4169,2.7330 L 3.3903,2.7330 L 3.3504,2.7330 L 3.3238,2.7330 L 3.2839,2.7330 L 3.2440,2.7330 L 3.2042,2.7330 L 3.1776,2.7330 L 3.1377,2.7330 L 3.0978,2.7330 L 3.0579,2.7330 L 3.0313,2.7330 L 2.9914,2.7330 L 2.9515,2.7330 L 2.9250,2.7330 L 2.8851,2.7330 L 2.8585,2.7330 L 2.8319,2.7330 L 2.8053,2.7330 L 2.7787,2.7330 L 2.7521,2.7330 L 2.7388,2.7330 L 2.7122,2.7330 L 2.6989,2.7330 L 2.6856,2.7330 L 2.6723,2.7330 L 2.6590,2.7330 L 2.6590,2.7199 L 2.6458,2.7199 L 2.6458,2.7068 L 2.6325,2.7068 L 2.6325,2.6938 L 2.6325,2.6807 L 2.6325,2.6676 L 2.6325,2.6807 L 2.6325,2.6938 L 2.6325,2.7068 L 2.6325,2.7199 L 2.6325,2.7330 L 2.6325,2.7461 L 2.6325,2.7591 L 2.6325,2.7722 L 2.6325,2.7853 L 2.6325,2.7984 L 2.6325,2.8114 L 2.6325,2.8245 L 2.6325,2.8376 L 2.6325,2.8507 L 2.6325,2.8637 L 2.6325,2.8768 L 2.6325,2.8899 L 2.6325,2.9030 L 2.6325,2.9161 L 2.6458,2.9161 L 2.6458,2.9291 L 2.6590,2.9291 L 2.6590,2.9422 L 2.6723,2.9422 L 2.6856,2.9422 L 2.6989,2.9422 L 2.7122,2.9422 L 2.7388,2.9422 L 2.7654,2.9422 L 2.7787,2.9422 L 2.8053,2.9422 L 2.8452,2.9422 L 2.8718,2.9422 L 2.8984,2.9422 L 2.9382,2.9422 L 2.9648,2.9422 L 3.0047,2.9422 L 3.0446,2.9422 L 3.0845,2.9422 L 3.1244,2.9422 L 3.1643,2.9422 L 3.1909,2.9422 L 3.2307,2.9422 L 3.2706,2.9422 L 3.3105,2.9422 L 3.3504,2.9422 L 3.3770,2.9422 L 3.4169,2.9422 L 3.4435,2.9422 L 3.4701,2.9422 L 3.5099,2.9422 L 3.5365,2.9422 L 3.5498,2.9422 L 3.5764,2.9422 L 3.5897,2.9291 L 3.6030,2.9161 L 3.6163,2.9030 L 3.6163,2.8899 L 3.6296,2.8768 L 3.6296,2.8637 L 3.6429,2.8507 L 3.6429,2.8376 L 3.6429,2.8245 L 3.6429,2.8114 L 3.6429,2.7984 L 3.6429,2.7853 L 3.6296,2.7853 L 3.6296,2.7722 L 3.6163,2.7591 L 3.6030,2.7591 L 3.6030,2.7461 L 3.5897,2.7461 L 3.5764,2.7330 L 3.5631,2.7330 L 3.5498,2.7330 Z" stroke="#000000" stroke-width="0.1197" stroke-linecap="round" stroke-linejoin="round" fill="#000000"/>
        <path d="M 5.6505,2.9422 L 5.6372,2.9422 L 5.6239,2.9422 L 5.6239,2.9291 L 5.6106,2.9291 L 5.6106,2.9161 L 5.5973,2.9161 L 5.5973,2.9030 L 5.5840,2.9030 L 5.5840,2.8899 L 5.5840,2.8768 L 5.5840,2.8637 L 5.5840,2.8507 L 5.5840,2.8376 L 5.5840,2.8245 L 5.5840,2.8114 L 5.5840,2.7984 L 5.5840,2.7853 L 5.5840,2.7722 L 5.5840,2.7591 L 5.5840,2.7461 L 5.5840,2.7330 L 5.5840,2.7199 L 5.5840,2.7068 L 5.5840,2.6938 L 5.5840,2.6807 L 5.5840,2.6676 L 5.5840,2.6807 L 5.5840,2.6938 L 5.5973,2.6938 L 5.5973,2.7068 L 5.6106,2.7068 L 5.6106,2.7199 L 5.6239,2.7199 L 5.6239,2.7330 L 5.6372,2.7330 L 5.6505,2.7330 L 5.6638,2.7330 L 5.6771,2.7330 L 5.6904,2.7330 L 5.7170,2.7330 L 5.7303,2.7330 L 5.7568,2.7330 L 5.7834,2.7330 L 5.8100,2.7330 L 5.8366,2.7330 L 5.8632,2.7330 L 5.9031,2.7330 L 5.9297,2.7330 L 5.9696,2.7330 L 5.9962,2.7330 L 6.0227,2.7330 L 6.0626,2.7330 L 6.0892,2.7330 L 6.1291,2.7330 L 6.1557,2.7330 L 6.1823,2.7330 L 6.2089,2.7330 L 6.2355,2.7330 L 6.2621,2.7330 L 6.2754,2.7330 L 6.3019,2.7330 L 6.3152,2.7330 L 6.3285,2.7330 L 6.3418,2.7330 L 6.3418,2.7199 L 6.3418,2.7068 L 6.3418,2.6938 L 6.3418,2.6807 L 6.3418,2.6676 L 6.3418,2.6545 L 6.3418,2.6414 L 6.3418,2.6284 L 6.3418,2.6153 L 6.3418,2.6022 L 6.3418,2.5891 L 6.3418,2.5761 L 6.3418,2.5630 L 6.3418,2.5499 L 6.3418,2.5368 L 6.3418,2.5238 L 6.3418,2.5107 L 6.3418,2.4976 L 6.3418,2.4845 L 6.3418,2.4715 L 6.3285,2.4715 L 6.3152,2.4715 L 6.2887,2.4715 L 6.2754,2.4715 L 6.2488,2.4715 L 6.2222,2.4715 L 6.1956,2.4715 L 6.1690,2.4715 L 6.1291,2.4715 L 6.1025,2.4715 L 6.0626,2.4715 L 6.0360,2.4715 L 5.9962,2.4715 L 5.9696,2.4715 L 5.9297,2.4715 L 5.8898,2.4715 L 5.8632,2.4715 L 5.8233,2.4715 L 5.7967,2.4715 L 5.7568,2.4715 L 5.7303,2.4715 L 5.7037,2.4715 L 5.6771,2.4715 L 5.6505,2.4715 L 5.6372,2.4715 L 5.6106,2.4715 L 5.5973,2.4715 L 5.5840,2.4715 L 5.5707,2.4715 L 5.5707,2.4845 L 5.5574,2.4845 L 5.5441,2.4845 L 5.5441,2.4976 L 5.5308,2.5107 L 5.5308,2.5238 L 5.5308,2.5368 L 5.5308,2.5499 L 5.5308,2.5630 L 5.5308,2.5761 L 5.5308,2.6022 L 5.5308,2.6153 L 5.5308,2.6545 L 5.5308,2.6807 L 5.5308,2.7068 L 5.5308,2.7461 L 5.5308,2.7722 L 5.5308,2.8114 L 5.5308,2.8507 L 5.5308,2.8899 L 5.5308,2.9291 L 5.5308,2.9553 L 5.5308,2.9945 L 5.5308,3.0337 L 5.5308,3.0730 L 5.5308,3.0991 L 5.5308,3.1384 L 5.5308,3.1645 L 5.5308,3.1907 L 5.5308,3.2299 L 5.5308,3.2430 L 5.5308,3.2691 L 5.5308,3.2822 L 5.5308,3.2953 L 5.5308,3.3083 L 5.5308,3.3214 L 5.5308,3.3345 L 5.5308,3.3476 L 5.5441,3.3476 L 5.5441,3.3607 L 5.5574,3.3607 L 5.5574,3.3737 L 5.5707,3.3737 L 5.5574,3.3737 L 5.5441,3.3737 L 5.5308,3.3737 L 5.5175,3.3737 L 5.5042,3.3737 L 5.4909,3.3737 L 5.4776,3.3737 L 5.4643,3.3737 L 5.4511,3.3737 L 5.4378,3.3737 L 5.4245,3.3737 L 5.4112,3.3737 L 5.3979,3.3737 L 5.3846,3.3737 L 5.3713,3.3737 L 5.3580,3.3737 L 5.3447,3.3737 L 5.3314,3.3737 L 5.3181,3.3737 L 5.3181,3.3607 L 5.3048,3.3607 L 5.2915,3.3607 L 5.2915,3.3476 L 5.2915,3.3345 L 5.2782,3.3345 L 5.2782,3.3214 L 5.2782,3.3083 L 5.2782,3.2953 L 5.2782,3.2822 L 5.2782,3.2691 L 5.2782,3.2430 L 5.2782,3.2168 L 5.2782,3.1907 L 5.2782,3.1514 L 5.2782,3.1122 L 5.2782,3.0730 L 5.2782,3.0337 L 5.2782,2.9945 L 5.2782,2.9553 L 5.2782,2.9030 L 5.2782,2.8637 L 5.2782,2.8114 L 5.2782,2.7591 L 5.2782,2.7199 L 5.2782,2.6676 L 5.2782,2.6284 L 5.2782,2.5891 L 5.2782,2.5499 L 5.2782,2.5107 L 5.2782,2.4715 L 5.2782,2.4322 L 5.2782,2.4061 L 5.2782,2.3799 L 5.2782,2.3538 L 5.2782,2.3407 L 5.2782,2.3276 L 5.2782,2.3145 L 5.2782,2.3015 L 5.2782,2.2884 L 5.2915,2.2884 L 5.2915,2.2753 L 5.2915,2.2622 L 5.3048,2.2622 L 5.3181,2.2622 L 5.3181,2.2492 L 5.3314,2.2492 L 5.3447,2.2492 L 5.3580,2.2492 L 5.3713,2.2492 L 5.3979,2.2492 L 5.4245,2.2492 L 5.4511,2.2492 L 5.4909,2.2492 L 5.5308,2.2492 L 5.5707,2.2492 L 5.6239,2.2492 L 5.6638,2.2492 L 5.7170,2.2492 L 5.7701,2.2492 L 5.8233,2.2492 L 5.8765,2.2492 L 5.9430,2.2492 L 5.9962,2.2492 L 6.0493,2.2492 L 6.1025,2.2492 L 6.1557,2.2492 L 6.2089,2.2492 L 6.2488,2.2492 L 6.3019,2.2492 L 6.3418,2.2492 L 6.3817,2.2492 L 6.4216,2.2492 L 6.4482,2.2492 L 6.4748,2.2492 L 6.5014,2.2492 L 6.5147,2.2492 L 6.5280,2.2492 L 6.5413,2.2492 L 6.5546,2.2492 L 6.5679,2.2622 L 6.5811,2.2622 L 6.5811,2.2753 L 6.5944,2.2753 L 6.5944,2.2884 L 6.6077,2.2884 L 6.6077,2.3015 L 6.6077,2.3145 L 6.6077,2.3276 L 6.6077,2.3407 L 6.6077,2.3538 L 6.6077,2.3668 L 6.6077,2.3799 L 6.6077,2.3930 L 6.6077,2.4191 L 6.6077,2.4453 L 6.6077,2.4584 L 6.6077,2.4845 L 6.6077,2.5107 L 6.6077,2.5368 L 6.6077,2.5630 L 6.6077,2.5891 L 6.6077,2.6022 L 6.6077,2.6284 L 6.6077,2.6545 L 6.6077,2.6807 L 6.6077,2.7068 L 6.6077,2.7199 L 6.6077,2.7461 L 6.6077,2.7722 L 6.6077,2.7853 L 6.6077,2.7984 L 6.6077,2.8114 L 6.6077,2.8245 L 6.6077,2.8376 L 6.6077,2.8507 L 6.6077,2.8637 L 6.5944,2.8637 L 6.5944,2.8768 L 6.5811,2.8768 L 6.5811,2.8899 L 6.5679,2.9030 L 6.5679,2.9161 L 6.5546,2.9161 L 6.5546,2.9291 L 6.5413,2.9291 L 6.5413,2.9422 L 6.5280,2.9422 L 6.5413,2.9553 L 6.5546,2.9684 L 6.5679,2.9814 L 6.5679,2.9945 L 6.5811,2.9945 L 6.5811,3.0076 L 6.5944,3.0076 L 6.5944,3.0207 L 6.5944,3.0337 L 6.6077,3.0337 L 6.6077,3.0468 L 6.6077,3.0599 L 6.6077,3.0730 L 6.6077,3.0860 L 6.6077,3.0991 L 6.6077,3.1122 L 6.6077,3.1253 L 6.6077,3.1384 L 6.6077,3.1514 L 6.6077,3.1645 L 6.6077,3.1776 L 6.6077,3.1907 L 6.6077,3.2037 L 6.6077,3.2168 L 6.6077,3.2299 L 6.6077,3.2430 L 6.6077,3.2560 L 6.6077,3.2691 L 6.6077,3.2822 L 6.6077,3.2953 L 6.6077,3.3083 L 6.6077,3.3214 L 6.6077,3.3345 L 6.6077,3.3476 L 6.6210,3.3476 L 6.6210,3.3607 L 6.6343,3.3737 L 6.6476,3.3737 L 6.6343,3.3737 L 6.6210,3.3737 L 6.6077,3.3737 L 6.5944,3.3737 L 6.5811,3.3737 L 6.5679,3.3737 L 6.5546,3.3737 L 6.5413,3.3737 L 6.5280,3.3737 L 6.5147,3.3737 L 6.5014,3.3737 L 6.4881,3.3737 L 6.4748,3.3737 L 6.4615,3.3737 L 6.4482,3.3737 L 6.4349,3.3737 L 6.4216,3.3737 L 6.4083,3.3737 L 6.3950,3.3737 L 6.3817,3.3737 L 6.3817,3.3607 L 6.3684,3.3607 L 6.3684,3.3476 L 6.3551,3.3476 L 6.3551,3.3345 L 6.3418,3.3345 L 6.3418,3.3214 L 6.3418,3.3083 L 6.3418,3.2953 L 6.3418,3.2822 L 6.3418,3.2691 L 6.3418,3.2560 L 6.3418,3.2430 L 6.3418,3.2299 L 6.3418,3.2168 L 6.3418,3.2037 L 6.3418,3.1907 L 6.3418,3.1776 L 6.3418,3.1645 L 6.3418,3.1514 L 6.3418,3.1384 L 6.3418,3.1253 L 6.3418,3.0991 L 6.3418,3.0860 L 6.3418,3.0730 L 6.3418,3.0599 L 6.3418,3.0337 L 6.3418,3.0207 L 6.3418,2.9945 L 6.3418,2.9814 L 6.3418,2.9553 L 6.3418,2.9422 L 6.3285,2.9422 L 6.3152,2.9422 L 6.3019,2.9422 L 6.2754,2.9422 L 6.2621,2.9422 L 6.2355,2.9422 L 6.2089,2.9422 L 6.1823,2.9422 L 6.1557,2.9422 L 6.1291,2.9422 L 6.0892,2.9422 L 6.0626,2.9422 L 6.0227,2.9422 L 5.9962,2.9422 L 5.9696,2.9422 L 5.9297,2.9422 L 5.9031,2.9422 L 5.8632,2.9422 L 5.8366,2.9422 L 5.8100,2.9422 L 5.7834,2.9422 L 5.7568,2.9422 L 5.7303,2.9422 L 5.7170,2.9422 L 5.6904,2.9422 L 5.6771,2.9422 L 5.6638,2.9422 L 5.6505,2.9422 Z" stroke="#000000" stroke-width="0.1197" stroke-linecap="round" stroke-linejoin="round" fill="#000000"/>
        <path d="M 7.0598,2.4715 L 7.0465,2.4715 L 7.0332,2.4715 L 7.0199,2.4715 L 6.9933,2.4715 L 6.9800,2.4715 L 6.9667,2.4715 L 6.9534,2.4715 L 6.9401,2.4715 L 6.9268,2.4715 L 6.9135,2.4715 L 6.9002,2.4715 L 6.8869,2.4715 L 6.8736,2.4715 L 6.8603,2.4715 L 6.8471,2.4715 L 6.8338,2.4715 L 6.8205,2.4715 L 6.8072,2.4715 L 6.7939,2.4715 L 6.7806,2.4715 L 6.7673,2.4584 L 6.7540,2.4584 L 6.7540,2.4453 L 6.7407,2.4453 L 6.7407,2.4322 L 6.7407,2.4191 L 6.7274,2.4191 L 6.7274,2.4061 L 6.7274,2.3930 L 6.7274,2.3799 L 6.7274,2.3668 L 6.7274,2.3538 L 6.7274,2.3407 L 6.7274,2.3276 L 6.7274,2.3145 L 6.7274,2.3015 L 6.7274,2.2884 L 6.7407,2.2884 L 6.7407,2.2753 L 6.7540,2.2753 L 6.7540,2.2622 L 6.7673,2.2622 L 6.7673,2.2492 L 6.7806,2.2492 L 6.7939,2.2492 L 6.8072,2.2492 L 6.8205,2.2492 L 6.8471,2.2492 L 6.8736,2.2492 L 6.9002,2.2492 L 6.9401,2.2492 L 6.9800,2.2492 L 7.0199,2.2492 L 7.0731,2.2492 L 7.1263,2.2492 L 7.1661,2.2492 L 7.2193,2.2492 L 7.2858,2.2492 L 7.3390,2.2492 L 7.3922,2.2492 L 7.4453,2.2492 L 7.4985,2.2492 L 7.5650,2.2492 L 7.6182,2.2492 L 7.6581,2.2492 L 7.7112,2.2492 L 7.7644,2.2492 L 7.8043,2.2492 L 7.8442,2.2492 L 7.8841,2.2492 L 7.9107,2.2492 L 7.9373,2.2492 L 7.9639,2.2492 L 7.9771,2.2492 L 7.9904,2.2492 L 8.0037,2.2492 L 8.0170,2.2492 L 8.0170,2.2622 L 8.0303,2.2622 L 8.0303,2.2753 L 8.0436,2.2753 L 8.0436,2.2884 L 8.0569,2.2884 L 8.0569,2.3015 L 8.0569,2.3145 L 8.0569,2.3276 L 8.0569,2.3407 L 8.0569,2.3538 L 8.0569,2.3668 L 8.0569,2.3799 L 8.0569,2.3930 L 8.0569,2.4061 L 8.0569,2.4191 L 8.0569,2.4322 L 8.0569,2.4453 L 8.0569,2.4584 L 8.0569,2.4715 L 8.0569,2.4845 L 8.0569,2.4976 L 8.0569,2.5107 L 8.0569,2.5238 L 8.0569,2.5107 L 8.0436,2.4976 L 8.0436,2.4845 L 8.0303,2.4845 L 8.0170,2.4845 L 8.0170,2.4715 L 8.0037,2.4715 L 7.9904,2.4715 L 7.9771,2.4715 L 7.9639,2.4715 L 7.9506,2.4715 L 7.9373,2.4715 L 7.9240,2.4715 L 7.9107,2.4715 L 7.8974,2.4715 L 7.8708,2.4715 L 7.8575,2.4715 L 7.8309,2.4715 L 7.8176,2.4715 L 7.7910,2.4715 L 7.7644,2.4715 L 7.7378,2.4715 L 7.7112,2.4715 L 7.6847,2.4715 L 7.6581,2.4715 L 7.6315,2.4715 L 7.6049,2.4715 L 7.5783,2.4715 L 7.5517,2.4715 L 7.5251,2.4715 L 7.4985,2.4715 L 7.4719,2.4715 L 7.4453,2.4715 L 7.4187,2.4715 L 7.3922,2.4715 L 7.3656,2.4715 L 7.3523,2.4715 L 7.3390,2.4845 L 7.3390,2.4976 L 7.3257,2.4976 L 7.3257,2.5107 L 7.3257,2.5238 L 7.3257,2.5368 L 7.3257,2.5499 L 7.3257,2.5630 L 7.3257,2.5761 L 7.3257,2.6022 L 7.3257,2.6153 L 7.3257,2.6545 L 7.3257,2.6807 L 7.3257,2.7068 L 7.3257,2.7461 L 7.3257,2.7722 L 7.3257,2.8114 L 7.3257,2.8507 L 7.3257,2.8899 L 7.3257,2.9291 L 7.3257,2.9553 L 7.3257,2.9945 L 7.3257,3.0337 L 7.3257,3.0730 L 7.3257,3.0991 L 7.3257,3.1384 L 7.3257,3.1645 L 7.3257,3.1907 L 7.3257,3.2299 L 7.3257,3.2430 L 7.3257,3.2691 L 7.3257,3.2822 L 7.3257,3.2953 L 7.3257,3.3083 L 7.3257,3.3214 L 7.3257,3.3345 L 7.3257,3.3476 L 7.3390,3.3607 L 7.3390,3.3737 L 7.3523,3.3737 L 7.3390,3.3737 L 7.3257,3.3737 L 7.3124,3.3737 L 7.2991,3.3737 L 7.2858,3.3737 L 7.2725,3.3737 L 7.2592,3.3737 L 7.2459,3.3737 L 7.2326,3.3737 L 7.2193,3.3737 L 7.2060,3.3737 L 7.1927,3.3737 L 7.1794,3.3737 L 7.1661,3.3737 L 7.1528,3.3737 L 7.1395,3.3737 L 7.1263,3.3737 L 7.1130,3.3737 L 7.0997,3.3737 L 7.0864,3.3737 L 7.0864,3.3607 L 7.0731,3.3607 L 7.0731,3.3476 L 7.0731,3.3345 L 7.0598,3.3345 L 7.0598,3.3214 L 7.0598,3.3083 L 7.0598,3.2953 L 7.0598,3.2822 L 7.0598,3.2691 L 7.0598,3.2560 L 7.0598,3.2299 L 7.0598,3.2168 L 7.0598,3.1907 L 7.0598,3.1645 L 7.0598,3.1384 L 7.0598,3.1122 L 7.0598,3.0860 L 7.0598,3.0468 L 7.0598,3.0207 L 7.0598,2.9945 L 7.0598,2.9553 L 7.0598,2.9161 L 7.0598,2.8899 L 7.0598,2.8507 L 7.0598,2.8114 L 7.0598,2.7853 L 7.0598,2.7461 L 7.0598,2.7068 L 7.0598,2.6807 L 7.0598,2.6414 L 7.0598,2.6153 L 7.0598,2.5761 L 7.0598,2.5499 L 7.0598,2.5238 L 7.0598,2.4976 L 7.0598,2.4715 Z" stroke="#000000" stroke-width="0.1197" stroke-linecap="round" stroke-linejoin="round" fill="#000000"/>
        <path d="M 8.4558,3.3214 L 8.4558,3.3345 L 8.4691,3.3476 L 8.4691,3.3607 L 8.4824,3.3607 L 8.4957,3.3607 L 8.4957,3.3737 L 8.5090,3.3737 L 8.4957,3.3737 L 8.4824,3.3737 L 8.4691,3.3737 L 8.4558,3.3737 L 8.4425,3.3737 L 8.4292,3.3737 L 8.4159,3.3737 L 8.4026,3.3737 L 8.3893,3.3737 L 8.3760,3.3737 L 8.3627,3.3737 L 8.3494,3.3737 L 8.3361,3.3737 L 8.3228,3.3737 L 8.3095,3.3737 L 8.2962,3.3737 L 8.2829,3.3737 L 8.2696,3.3737 L 8.2563,3.3737 L 8.2431,3.3737 L 8.2431,3.3607 L 8.2298,3.3607 L 8.2298,3.3476 L 8.2165,3.3476 L 8.2165,3.3345 L 8.2032,3.3345 L 8.2032,3.3214 L 8.2032,3.3083 L 8.2032,3.2953 L 8.2032,3.2822 L 8.2032,3.2691 L 8.2032,3.2430 L 8.2032,3.2168 L 8.2032,3.1907 L 8.2032,3.1514 L 8.2032,3.1122 L 8.2032,3.0730 L 8.2032,3.0337 L 8.2032,2.9945 L 8.2032,2.9422 L 8.2032,2.9030 L 8.2032,2.8507 L 8.2032,2.8114 L 8.2032,2.7591 L 8.2032,2.7068 L 8.2032,2.6676 L 8.2032,2.6153 L 8.2032,2.5761 L 8.2032,2.5368 L 8.2032,2.4976 L 8.2032,2.4584 L 8.2032,2.4191 L 8.2032,2.3930 L 8.2032,2.3668 L 8.2032,2.3407 L 8.2032,2.3276 L 8.2032,2.3145 L 8.2032,2.3015 L 8.2032,2.2884 L 8.2032,2.2753 L 8.1899,2.2753 L 8.1899,2.2622 L 8.1766,2.2622 L 8.1766,2.2492 L 8.1633,2.2492 L 8.1500,2.2492 L 8.1633,2.2492 L 8.1766,2.2492 L 8.1899,2.2492 L 8.2032,2.2492 L 8.2165,2.2492 L 8.2298,2.2492 L 8.2431,2.2492 L 8.2563,2.2492 L 8.2696,2.2492 L 8.2829,2.2492 L 8.2962,2.2492 L 8.3095,2.2492 L 8.3228,2.2492 L 8.3361,2.2492 L 8.3494,2.2492 L 8.3627,2.2492 L 8.3760,2.2492 L 8.3893,2.2492 L 8.4026,2.2492 L 8.4159,2.2622 L 8.4292,2.2622 L 8.4292,2.2753 L 8.4425,2.2753 L 8.4425,2.2884 L 8.4558,2.2884 L 8.4558,2.3015 L 8.4558,2.3145 L 8.4558,2.3276 L 8.4558,2.3407 L 8.4558,2.3538 L 8.4558,2.3799 L 8.4558,2.4061 L 8.4558,2.4322 L 8.4558,2.4715 L 8.4558,2.5107 L 8.4558,2.5499 L 8.4558,2.5891 L 8.4558,2.6284 L 8.4558,2.6807 L 8.4558,2.7199 L 8.4558,2.7722 L 8.4558,2.8245 L 8.4558,2.8637 L 8.4558,2.9161 L 8.4558,2.9553 L 8.4558,3.0076 L 8.4558,3.0468 L 8.4558,3.0860 L 8.4558,3.1253 L 8.4558,3.1645 L 8.4558,3.2037 L 8.4558,3.2299 L 8.4558,3.2560 L 8.4558,3.2822 L 8.4558,3.2953 L 8.4558,3.3083 L 8.4558,3.3214 Z" stroke="#000000" stroke-width="0.1197" stroke-linecap="round" stroke-linejoin="round" fill="#000000"/>
        <path d="M 9.7587,2.4715 L 9.7321,2.4715 L 9.7055,2.4715 L 9.6789,2.4715 L 9.6391,2.4715 L 9.6125,2.4715 L 9.5859,2.4715 L 9.5460,2.4715 L 9.5194,2.4715 L 9.4795,2.4715 L 9.4529,2.4715 L 9.4263,2.4715 L 9.3864,2.4715 L 9.3599,2.4715 L 9.3333,2.4715 L 9.2934,2.4715 L 9.2668,2.4715 L 9.2402,2.4715 L 9.2136,2.4715 L 9.1870,2.4715 L 9.1604,2.4715 L 9.1338,2.4715 L 9.1205,2.4715 L 9.0939,2.4715 L 9.0807,2.4715 L 9.0674,2.4715 L 9.0408,2.4715 L 9.0275,2.4715 L 9.0142,2.4715 L 9.0009,2.4715 L 8.9876,2.4715 L 8.9876,2.4845 L 8.9743,2.4845 L 8.9610,2.4845 L 8.9610,2.4976 L 8.9477,2.5107 L 8.9477,2.5238 L 8.9477,2.5368 L 8.9477,2.5499 L 8.9477,2.5630 L 8.9477,2.5761 L 8.9477,2.6022 L 8.9477,2.6153 L 8.9477,2.6545 L 8.9477,2.6807 L 8.9477,2.7068 L 8.9477,2.7461 L 8.9477,2.7722 L 8.9477,2.8114 L 8.9477,2.8507 L 8.9477,2.8899 L 8.9477,2.9291 L 8.9477,2.9553 L 8.9477,2.9945 L 8.9477,3.0337 L 8.9477,3.0730 L 8.9477,3.0991 L 8.9477,3.1384 L 8.9477,3.1645 L 8.9477,3.1907 L 8.9477,3.2299 L 8.9477,3.2430 L 8.9477,3.2691 L 8.9477,3.2822 L 8.9477,3.2953 L 8.9477,3.3083 L 8.9477,3.3214 L 8.9477,3.3345 L 8.9477,3.3476 L 8.9610,3.3476 L 8.9610,3.3607 L 8.9743,3.3607 L 8.9743,3.3737 L 8.9876,3.3737 L 8.9743,3.3737 L 8.9610,3.3737 L 8.9477,3.3737 L 8.9344,3.3737 L 8.9211,3.3737 L 8.9078,3.3737 L 8.8945,3.3737 L 8.8812,3.3737 L 8.8679,3.3737 L 8.8546,3.3737 L 8.8413,3.3737 L 8.8280,3.3737 L 8.8147,3.3737 L 8.8015,3.3737 L 8.7882,3.3737 L 8.7749,3.3737 L 8.7616,3.3737 L 8.7483,3.3737 L 8.7350,3.3737 L 8.7350,3.3607 L 8.7217,3.3607 L 8.7084,3.3607 L 8.7084,3.3476 L 8.7084,3.3345 L 8.6951,3.3345 L 8.6951,3.3214 L 8.6951,3.3083 L 8.6951,3.2953 L 8.6951,3.2822 L 8.6951,3.2691 L 8.6951,3.2430 L 8.6951,3.2168 L 8.6951,3.1907 L 8.6951,3.1514 L 8.6951,3.1122 L 8.6951,3.0730 L 8.6951,3.0337 L 8.6951,2.9945 L 8.6951,2.9553 L 8.6951,2.9030 L 8.6951,2.8637 L 8.6951,2.8114 L 8.6951,2.7591 L 8.6951,2.7199 L 8.6951,2.6676 L 8.6951,2.6284 L 8.6951,2.5891 L 8.6951,2.5499 L 8.6951,2.5107 L 8.6951,2.4715 L 8.6951,2.4322 L 8.6951,2.4061 L 8.6951,2.3799 L 8.6951,2.3538 L 8.6951,2.3407 L 8.6951,2.3276 L 8.6951,2.3145 L 8.6951,2.3015 L 8.6951,2.2884 L 8.7084,2.2884 L 8.7084,2.2753 L 8.7084,2.2622 L 8.7217,2.2622 L 8.7350,2.2622 L 8.7350,2.2492 L 8.7483,2.2492 L 8.7616,2.2492 L 8.7749,2.2492 L 8.7882,2.2492 L 8.8147,2.2492 L 8.8413,2.2492 L 8.8679,2.2492 L 8.9078,2.2492 L 8.9477,2.2492 L 8.9876,2.2492 L 9.0408,2.2492 L 9.0807,2.2492 L 9.1338,2.2492 L 9.1870,2.2492 L 9.2402,2.2492 L 9.2934,2.2492 L 9.3599,2.2492 L 9.4130,2.2492 L 9.4662,2.2492 L 9.5194,2.2492 L 9.5726,2.2492 L 9.6258,2.2492 L 9.6656,2.2492 L 9.7188,2.2492 L 9.7587,2.2492 L 9.7986,2.2492 L 9.8385,2.2492 L 9.8651,2.2492 L 9.8917,2.2492 L 9.9183,2.2492 L 9.9315,2.2492 L 9.9448,2.2492 L 9.9581,2.2492 L 9.9714,2.2492 L 9.9847,2.2622 L 9.9980,2.2622 L 9.9980,2.2753 L 10.0113,2.2753 L 10.0113,2.2884 L 10.0246,2.2884 L 10.0246,2.3015 L 10.0246,2.3145 L 10.0246,2.3276 L 10.0246,2.3407 L 10.0246,2.3538 L 10.0246,2.3799 L 10.0246,2.4061 L 10.0246,2.4322 L 10.0246,2.4715 L 10.0246,2.5107 L 10.0246,2.5499 L 10.0246,2.5891 L 10.0246,2.6284 L 10.0246,2.6807 L 10.0246,2.7199 L 10.0246,2.7722 L 10.0246,2.8245 L 10.0246,2.8637 L 10.0246,2.9161 L 10.0246,2.9553 L 10.0246,3.0076 L 10.0246,3.0468 L 10.0246,3.0860 L 10.0246,3.1253 L 10.0246,3.1645 L 10.0246,3.2037 L 10.0246,3.2299 L 10.0246,3.2560 L 10.0246,3.2822 L 10.0246,3.2953 L 10.0246,3.3083 L 10.0246,3.3214 L 10.0246,3.3345 L 10.0246,3.3476 L 10.0379,3.3476 L 10.0379,3.3607 L 10.0512,3.3737 L 10.0645,3.3737 L 10.0512,3.3737 L 10.0379,3.3737 L 10.0246,3.3737 L 10.0113,3.3737 L 9.9980,3.3737 L 9.9847,3.3737 L 9.9714,3.3737 L 9.9581,3.3737 L 9.9448,3.3737 L 9.9315,3.3737 L 9.9183,3.3737 L 9.9050,3.3737 L 9.8917,3.3737 L 9.8784,3.3737 L 9.8651,3.3737 L 9.8518,3.3737 L 9.8385,3.3737 L 9.8252,3.3737 L 9.8119,3.3737 L 9.7986,3.3737 L 9.7986,3.3607 L 9.7853,3.3607 L 9.7853,3.3476 L 9.7720,3.3476 L 9.7720,3.3345 L 9.7587,3.3345 L 9.7587,3.3214 L 9.7587,3.3083 L 9.7587,3.2953 L 9.7587,3.2822 L 9.7587,3.2691 L 9.7587,3.2560 L 9.7587,3.2299 L 9.7587,3.2168 L 9.7587,3.1907 L 9.7587,3.1645 L 9.7587,3.1384 L 9.7587,3.1122 L 9.7587,3.0860 L 9.7587,3.0468 L 9.7587,3.0207 L 9.7587,2.9945 L 9.7587,2.9553 L 9.7587,2.9161 L 9.7587,2.8899 L 9.7587,2.8507 L 9.7587,2.8114 L 9.7587,2.7853 L 9.7587,2.7461 L 9.7587,2.7068 L 9.7587,2.6807 L 9.7587,2.6414 L 9.7587,2.6153 L 9.7587,2.5761 L 9.7587,2.5499 L 9.7587,2.5238 L 9.7587,2.4976 L 9.7587,2.4715 Z" stroke="#000000" stroke-width="0.1197" stroke-linecap="round" stroke-linejoin="round" fill="#000000"/>
        <path d="M 11.3275,2.7330 L 11.3010,2.7330 L 11.2877,2.7330 L 11.2611,2.7330 L 11.2345,2.7330 L 11.2079,2.7330 L 11.1680,2.7330 L 11.1414,2.7330 L 11.1148,2.7330 L 11.0749,2.7330 L 11.0483,2.7330 L 11.0085,2.7330 L 10.9819,2.7330 L 10.9420,2.7330 L 10.9154,2.7330 L 10.8755,2.7330 L 10.8489,2.7330 L 10.8090,2.7330 L 10.7824,2.7330 L 10.7426,2.7330 L 10.7160,2.7330 L 10.6894,2.7330 L 10.6628,2.7330 L 10.6362,2.7330 L 10.6096,2.7330 L 10.5963,2.7330 L 10.5697,2.7330 L 10.5564,2.7330 L 10.5431,2.7330 L 10.5298,2.7330 L 10.5165,2.7330 L 10.5032,2.7330 L 10.4899,2.7330 L 10.4899,2.7199 L 10.4767,2.7199 L 10.4767,2.7068 L 10.4634,2.7068 L 10.4634,2.6938 L 10.4501,2.6807 L 10.4501,2.6676 L 10.4501,2.6807 L 10.4501,2.6938 L 10.4501,2.7068 L 10.4501,2.7199 L 10.4501,2.7330 L 10.4501,2.7461 L 10.4501,2.7591 L 10.4501,2.7722 L 10.4501,2.7853 L 10.4501,2.7984 L 10.4501,2.8114 L 10.4501,2.8245 L 10.4501,2.8376 L 10.4501,2.8507 L 10.4501,2.8637 L 10.4501,2.8768 L 10.4501,2.8899 L 10.4634,2.9030 L 10.4634,2.9161 L 10.4767,2.9161 L 10.4767,2.9291 L 10.4899,2.9291 L 10.4899,2.9422 L 10.5032,2.9422 L 10.5165,2.9422 L 10.5298,2.9422 L 10.5431,2.9422 L 10.5564,2.9422 L 10.5697,2.9422 L 10.5963,2.9422 L 10.6229,2.9422 L 10.6362,2.9422 L 10.6628,2.9422 L 10.6894,2.9422 L 10.7293,2.9422 L 10.7559,2.9422 L 10.7824,2.9422 L 10.8223,2.9422 L 10.8489,2.9422 L 10.8888,2.9422 L 10.9154,2.9422 L 10.9553,2.9422 L 10.9952,2.9422 L 11.0218,2.9422 L 11.0616,2.9422 L 11.0882,2.9422 L 11.1281,2.9422 L 11.1547,2.9422 L 11.1813,2.9422 L 11.2079,2.9422 L 11.2345,2.9422 L 11.2611,2.9422 L 11.2877,2.9422 L 11.3143,2.9422 L 11.3275,2.9422 L 11.3408,2.9291 L 11.3541,2.9291 L 11.3541,2.9161 L 11.3674,2.9030 L 11.3807,2.8899 L 11.3807,2.8768 L 11.3940,2.8768 L 11.3940,2.8637 L 11.3940,2.8507 L 11.4073,2.8507 L 11.4073,2.8376 L 11.4073,2.8245 L 11.4073,2.8114 L 11.4073,2.7984 L 11.4073,2.7853 L 11.3940,2.7853 L 11.3940,2.7722 L 11.3940,2.7591 L 11.3807,2.7591 L 11.3674,2.7461 L 11.3541,2.7461 L 11.3541,2.7330 L 11.3408,2.7330 L 11.3275,2.7330 Z" stroke="#000000" stroke-width="0.1197" stroke-linecap="round" stroke-linejoin="round" fill="#000000"/>
        <path d="M 11.9657,2.4715 L 11.9524,2.4715 L 11.9391,2.4715 L 11.9258,2.4715 L 11.8992,2.4715 L 11.8859,2.4715 L 11.8727,2.4715 L 11.8594,2.4715 L 11.8461,2.4715 L 11.8328,2.4715 L 11.8195,2.4715 L 11.8062,2.4715 L 11.7929,2.4715 L 11.7796,2.4715 L 11.7663,2.4715 L 11.7530,2.4715 L 11.7397,2.4715 L 11.7264,2.4715 L 11.7131,2.4715 L 11.6998,2.4715 L 11.6865,2.4715 L 11.6732,2.4584 L 11.6599,2.4584 L 11.6599,2.4453 L 11.6466,2.4453 L 11.6466,2.4322 L 11.6466,2.4191 L 11.6333,2.4191 L 11.6333,2.4061 L 11.6333,2.3930 L 11.6333,2.3799 L 11.6333,2.3668 L 11.6333,2.3538 L 11.6333,2.3407 L 11.6333,2.3276 L 11.6333,2.3145 L 11.6333,2.3015 L 11.6333,2.2884 L 11.6466,2.2884 L 11.6466,2.2753 L 11.6599,2.2753 L 11.6599,2.2622 L 11.6732,2.2622 L 11.6732,2.2492 L 11.6865,2.2492 L 11.6998,2.2492 L 11.7131,2.2492 L 11.7264,2.2492 L 11.7530,2.2492 L 11.7796,2.2492 L 11.8062,2.2492 L 11.8461,2.2492 L 11.8859,2.2492 L 11.9258,2.2492 L 11.9790,2.2492 L 12.0322,2.2492 L 12.0721,2.2492 L 12.1253,2.2492 L 12.1917,2.2492 L 12.2449,2.2492 L 12.2981,2.2492 L 12.3513,2.2492 L 12.4045,2.2492 L 12.4709,2.2492 L 12.5241,2.2492 L 12.5640,2.2492 L 12.6172,2.2492 L 12.6704,2.2492 L 12.7103,2.2492 L 12.7501,2.2492 L 12.7900,2.2492 L 12.8166,2.2492 L 12.8432,2.2492 L 12.8698,2.2492 L 12.8831,2.2492 L 12.8964,2.2492 L 12.9097,2.2492 L 12.9230,2.2492 L 12.9230,2.2622 L 12.9363,2.2622 L 12.9363,2.2753 L 12.9496,2.2753 L 12.9496,2.2884 L 12.9629,2.2884 L 12.9629,2.3015 L 12.9629,2.3145 L 12.9629,2.3276 L 12.9629,2.3407 L 12.9629,2.3538 L 12.9629,2.3668 L 12.9629,2.3799 L 12.9629,2.3930 L 12.9629,2.4061 L 12.9629,2.4191 L 12.9629,2.4322 L 12.9629,2.4453 L 12.9629,2.4584 L 12.9629,2.4715 L 12.9629,2.4845 L 12.9629,2.4976 L 12.9629,2.5107 L 12.9629,2.5238 L 12.9629,2.5107 L 12.9496,2.4976 L 12.9496,2.4845 L 12.9363,2.4845 L 12.9230,2.4845 L 12.9230,2.4715 L 12.9097,2.4715 L 12.8964,2.4715 L 12.8831,2.4715 L 12.8698,2.4715 L 12.8565,2.4715 L 12.8432,2.4715 L 12.8299,2.4715 L 12.8166,2.4715 L 12.8033,2.4715 L 12.7767,2.4715 L 12.7634,2.4715 L 12.7368,2.4715 L 12.7235,2.4715 L 12.6970,2.4715 L 12.6704,2.4715 L 12.6438,2.4715 L 12.6172,2.4715 L 12.5906,2.4715 L 12.5640,2.4715 L 12.5374,2.4715 L 12.5108,2.4715 L 12.4842,2.4715 L 12.4576,2.4715 L 12.4311,2.4715 L 12.4045,2.4715 L 12.3779,2.4715 L 12.3513,2.4715 L 12.3247,2.4715 L 12.2981,2.4715 L 12.2715,2.4715 L 12.2582,2.4715 L 12.2449,2.4845 L 12.2449,2.4976 L 12.2316,2.4976 L 12.2316,2.5107 L 12.2316,2.5238 L 12.2316,2.5368 L 12.2316,2.5499 L 12.2316,2.5630 L 12.2316,2.5761 L 12.2316,2.6022 L 12.2316,2.6153 L 12.2316,2.6545 L 12.2316,2.6807 L 12.2316,2.7068 L 12.2316,2.7461 L 12.2316,2.7722 L 12.2316,2.8114 L 12.2316,2.8507 L 12.2316,2.8899 L 12.2316,2.9291 L 12.2316,2.9553 L 12.2316,2.9945 L 12.2316,3.0337 L 12.2316,3.0730 L 12.2316,3.0991 L 12.2316,3.1384 L 12.2316,3.1645 L 12.2316,3.1907 L 12.2316,3.2299 L 12.2316,3.2430 L 12.2316,3.2691 L 12.2316,3.2822 L 12.2316,3.2953 L 12.2316,3.3083 L 12.2316,3.3214 L 12.2316,3.3345 L 12.2316,3.3476 L 12.2449,3.3607 L 12.2449,3.3737 L 12.2582,3.3737 L 12.2449,3.3737 L 12.2316,3.3737 L 12.2183,3.3737 L 12.2050,3.3737 L 12.1917,3.3737 L 12.1784,3.3737 L 12.1651,3.3737 L 12.1519,3.3737 L 12.1386,3.3737 L 12.1253,3.3737 L 12.1120,3.3737 L 12.0987,3.3737 L 12.0854,3.3737 L 12.0721,3.3737 L 12.0588,3.3737 L 12.0455,3.3737 L 12.0322,3.3737 L 12.0189,3.3737 L 12.0056,3.3737 L 11.9923,3.3737 L 11.9923,3.3607 L 11.9790,3.3607 L 11.9790,3.3476 L 11.9790,3.3345 L 11.9657,3.3345 L 11.9657,3.3214 L 11.9657,3.3083 L 11.9657,3.2953 L 11.9657,3.2822 L 11.9657,3.2691 L 11.9657,3.2560 L 11.9657,3.2299 L 11.9657,3.2168 L 11.9657,3.1907 L 11.9657,3.1645 L 11.9657,3.1384 L 11.9657,3.1122 L 11.9657,3.0860 L 11.9657,3.0468 L 11.9657,3.0207 L 11.9657,2.9945 L 11.9657,2.9553 L 11.9657,2.9161 L 11.9657,2.8899 L 11.9657,2.8507 L 11.9657,2.8114 L 11.9657,2.7853 L 11.9657,2.7461 L 11.9657,2.7068 L 11.9657,2.6807 L 11.9657,2.6414 L 11.9657,2.6153 L 11.9657,2.5761 L 11.9657,2.5499 L 11.9657,2.5238 L 11.9657,2.4976 L 11.9657,2.4715 Z" stroke="#000000" stroke-width="0.1197" stroke-linecap="round" stroke-linejoin="round" fill="#000000"/>
        <path d="M 11.4206,3.1514 L 11.4339,3.1514 L 11.4339,3.1384 L 11.4472,3.1384 L 11.4605,3.1384 L 11.4605,3.1253 L 11.4738,3.1122 L 11.4738,3.0991 L 11.4738,3.1122 L 11.4738,3.1253 L 11.4738,3.1384 L 11.4738,3.1514 L 11.4738,3.1645 L 11.4738,3.1776 L 11.4738,3.1907 L 11.4738,3.2037 L 11.4738,3.2168 L 11.4738,3.2299 L 11.4738,3.2430 L 11.4738,3.2560 L 11.4738,3.2691 L 11.4738,3.2822 L 11.4738,3.2953 L 11.4738,3.3083 L 11.4738,3.3214 L 11.4738,3.3345 L 11.4605,3.3345 L 11.4605,3.3476 L 11.4472,3.3476 L 11.4472,3.3607 L 11.4339,3.3607 L 11.4339,3.3737 L 11.4206,3.3737 L 11.4073,3.3737 L 11.3940,3.3737 L 11.3807,3.3737 L 11.3541,3.3737 L 11.3275,3.3737 L 11.3010,3.3737 L 11.2611,3.3737 L 11.2212,3.3737 L 11.1813,3.3737 L 11.1281,3.3737 L 11.0749,3.3737 L 11.0351,3.3737 L 10.9819,3.3737 L 10.9154,3.3737 L 10.8622,3.3737 L 10.8090,3.3737 L 10.7559,3.3737 L 10.7027,3.3737 L 10.6362,3.3737 L 10.5830,3.3737 L 10.5431,3.3737 L 10.4899,3.3737 L 10.4368,3.3737 L 10.3969,3.3737 L 10.3570,3.3737 L 10.3171,3.3737 L 10.2905,3.3737 L 10.2639,3.3737 L 10.2373,3.3737 L 10.2240,3.3737 L 10.2107,3.3737 L 10.1975,3.3737 L 10.1842,3.3737 L 10.1842,3.3607 L 10.1709,3.3607 L 10.1709,3.3476 L 10.1576,3.3476 L 10.1576,3.3345 L 10.1443,3.3345 L 10.1443,3.3214 L 10.1443,3.3083 L 10.1443,3.2953 L 10.1443,3.2822 L 10.1443,3.2691 L 10.1443,3.2430 L 10.1443,3.2168 L 10.1443,3.1907 L 10.1443,3.1514 L 10.1443,3.1122 L 10.1443,3.0730 L 10.1443,3.0337 L 10.1443,2.9945 L 10.1443,2.9553 L 10.1443,2.9030 L 10.1443,2.8637 L 10.1443,2.8114 L 10.1443,2.7591 L 10.1443,2.7199 L 10.1443,2.6676 L 10.1443,2.6284 L 10.1443,2.5891 L 10.1443,2.5499 L 10.1443,2.5107 L 10.1443,2.4715 L 10.1443,2.4322 L 10.1443,2.4061 L 10.1443,2.3799 L 10.1443,2.3538 L 10.1443,2.3407 L 10.1443,2.3276 L 10.1443,2.3145 L 10.1443,2.3015 L 10.1443,2.2884 L 10.1576,2.2884 L 10.1576,2.2753 L 10.1709,2.2753 L 10.1709,2.2622 L 10.1842,2.2622 L 10.1842,2.2492 L 10.1975,2.2492 L 10.2107,2.2492 L 10.2240,2.2492 L 10.2373,2.2492 L 10.2639,2.2492 L 10.2905,2.2492 L 10.3171,2.2492 L 10.3570,2.2492 L 10.3969,2.2492 L 10.4368,2.2492 L 10.4899,2.2492 L 10.5431,2.2492 L 10.5830,2.2492 L 10.6362,2.2492 L 10.7027,2.2492 L 10.7559,2.2492 L 10.8090,2.2492 L 10.8622,2.2492 L 10.9154,2.2492 L 10.9819,2.2492 L 11.0351,2.2492 L 11.0749,2.2492 L 11.1281,2.2492 L 11.1813,2.2492 L 11.2212,2.2492 L 11.2611,2.2492 L 11.3010,2.2492 L 11.3275,2.2492 L 11.3541,2.2492 L 11.3807,2.2492 L 11.3940,2.2492 L 11.4073,2.2492 L 11.4206,2.2492 L 11.4339,2.2492 L 11.4339,2.2622 L 11.4472,2.2622 L 11.4472,2.2753 L 11.4605,2.2753 L 11.4605,2.2884 L 11.4738,2.2884 L 11.4738,2.3015 L 11.4738,2.3145 L 11.4738,2.3276 L 11.4738,2.3407 L 11.4738,2.3538 L 11.4738,2.3668 L 11.4738,2.3799 L 11.4738,2.3930 L 11.4738,2.4061 L 11.4738,2.4191 L 11.4738,2.4322 L 11.4738,2.4453 L 11.4738,2.4584 L 11.4738,2.4715 L 11.4738,2.4845 L 11.4738,2.4976 L 11.4738,2.5107 L 11.4738,2.5238 L 11.4738,2.5107 L 11.4605,2.4976 L 11.4605,2.4845 L 11.4472,2.4845 L 11.4339,2.4845 L 11.4339,2.4715 L 11.4206,2.4715 L 11.4073,2.4715 L 11.3940,2.4715 L 11.3807,2.4715 L 11.3541,2.4715 L 11.3275,2.4715 L 11.3010,2.4715 L 11.2744,2.4715 L 11.2345,2.4715 L 11.1946,2.4715 L 11.1547,2.4715 L 11.1148,2.4715 L 11.0749,2.4715 L 11.0351,2.4715 L 10.9819,2.4715 L 10.9420,2.4715 L 10.9021,2.4715 L 10.8489,2.4715 L 10.8090,2.4715 L 10.7691,2.4715 L 10.7293,2.4715 L 10.6894,2.4715 L 10.6495,2.4715 L 10.6096,2.4715 L 10.5830,2.4715 L 10.5564,2.4715 L 10.5298,2.4715 L 10.5032,2.4715 L 10.4899,2.4715 L 10.4767,2.4715 L 10.4634,2.4715 L 10.4501,2.4715 L 10.4368,2.4715 L 10.4368,2.4845 L 10.4235,2.4845 L 10.4235,2.4976 L 10.4102,2.4976 L 10.4102,2.5107 L 10.4102,2.5238 L 10.4102,2.5368 L 10.4102,2.5499 L 10.4102,2.5630 L 10.4102,2.5761 L 10.4102,2.5891 L 10.4102,2.6022 L 10.4102,2.6284 L 10.4102,2.6414 L 10.4102,2.6545 L 10.4102,2.6807 L 10.4102,2.7068 L 10.4102,2.7199 L 10.4102,2.7461 L 10.4102,2.7722 L 10.4102,2.7984 L 10.4102,2.8245 L 10.4102,2.8507 L 10.4102,2.8768 L 10.4102,2.9030 L 10.4102,2.9291 L 10.4102,2.9553 L 10.4102,2.9814 L 10.4102,3.0076 L 10.4102,3.0337 L 10.4102,3.0599 L 10.4102,3.0860 L 10.4102,3.0991 L 10.4102,3.1253 L 10.4102,3.1514 L 10.4235,3.1514 L 10.4368,3.1514 L 10.4501,3.1514 L 10.4767,3.1514 L 10.5032,3.1514 L 10.5298,3.1514 L 10.5697,3.1514 L 10.6096,3.1514 L 10.6495,3.1514 L 10.6894,3.1514 L 10.7293,3.1514 L 10.7691,3.1514 L 10.8223,3.1514 L 10.8622,3.1514 L 10.9154,3.1514 L 10.9686,3.1514 L 11.0085,3.1514 L 11.0616,3.1514 L 11.1015,3.1514 L 11.1414,3.1514 L 11.1813,3.1514 L 11.2212,3.1514 L 11.2611,3.1514 L 11.3010,3.1514 L 11.3275,3.1514 L 11.3541,3.1514 L 11.3807,3.1514 L 11.3940,3.1514 L 11.4073,3.1514 L 11.4206,3.1514 Z" stroke="#000000" stroke-width="0.1197" stroke-linecap="round" stroke-linejoin="round" fill="#000000"/>
        <path d="M 4.2412,3.0337 L 4.2412,3.3737 L 4.6666,3.3737 L 4.6666,3.0337 L 4.2412,3.0337 Z" stroke="#ED3440" stroke-width="0.1197" stroke-linecap="round" stroke-linejoin="round" fill="#ED3440"/>
        <path d="M 3.7758,2.6414 L 4.1481,2.6414 L 4.1481,2.9814 L 3.7758,2.9814 L 3.7758,2.6414 Z" stroke="#ED3440" stroke-width="0.1197" stroke-linecap="round" stroke-linejoin="round" fill="#ED3440"/>
        <path d="M 4.7331,3.0468 L 4.7331,3.0599 L 4.7331,3.0730 L 4.7331,3.0860 L 4.7331,3.0991 L 4.7331,3.1122 L 4.7331,3.1253 L 4.7331,3.1384 L 4.7331,3.1514 L 4.7331,3.1645 L 4.7331,3.1907 L 4.7331,3.2037 L 4.7331,3.2168 L 4.7331,3.2299 L 4.7331,3.2430 L 4.7331,3.2691 L 4.7331,3.2822 L 4.7331,3.2953 L 4.7331,3.3083 L 4.7331,3.3214 L 4.7331,3.3345 L 4.7331,3.3476 L 4.7331,3.3607 L 4.7331,3.3737 L 4.7331,3.3868 L 4.7464,3.3868 L 4.7730,3.3868 L 4.7863,3.3868 L 4.7996,3.3868 L 4.8262,3.3868 L 4.8395,3.3868 L 4.8528,3.3868 L 4.8661,3.3868 L 4.8927,3.3737 L 4.9059,3.3737 L 4.9192,3.3737 L 4.9325,3.3737 L 4.9458,3.3607 L 4.9591,3.3607 L 4.9724,3.3476 L 4.9857,3.3476 L 4.9990,3.3345 L 5.0123,3.3214 L 5.0256,3.3214 L 5.0389,3.3083 L 5.0522,3.2953 L 5.0522,3.2822 L 5.0655,3.2560 L 5.0788,3.2430 L 5.0788,3.2299 L 5.0921,3.2037 L 5.0921,3.1776 L 5.0921,3.1645 L 5.1054,3.1384 L 5.1054,3.1122 L 5.1054,3.0730 L 5.1054,3.0468 L 5.0921,3.0468 L 5.0788,3.0468 L 5.0655,3.0468 L 5.0522,3.0468 L 5.0389,3.0468 L 5.0256,3.0468 L 4.9990,3.0468 L 4.9857,3.0468 L 4.9724,3.0468 L 4.9591,3.0468 L 4.9325,3.0468 L 4.9192,3.0468 L 4.9059,3.0468 L 4.8794,3.0468 L 4.8661,3.0468 L 4.8528,3.0468 L 4.8395,3.0468 L 4.8129,3.0468 L 4.7996,3.0468 L 4.7863,3.0468 L 4.7730,3.0468 L 4.7597,3.0468 L 4.7464,3.0468 L 4.7331,3.0468 Z" stroke="#ED3440" stroke-width="0.1197" stroke-linecap="round" stroke-linejoin="round" fill="#ED3440"/>
        <path d="M 4.7331,2.6414 L 5.1054,2.6414 L 5.1054,2.9814 L 4.7331,2.9814 L 4.7331,2.6414 Z" stroke="#ED3440" stroke-width="0.1197" stroke-linecap="round" stroke-linejoin="round" fill="#ED3440"/>
        <path d="M 4.1481,3.0468 L 4.1481,3.0599 L 4.1481,3.0730 L 4.1481,3.0860 L 4.1481,3.0991 L 4.1481,3.1122 L 4.1481,3.1253 L 4.1481,3.1384 L 4.1481,3.1514 L 4.1481,3.1645 L 4.1481,3.1907 L 4.1481,3.2037 L 4.1481,3.2168 L 4.1481,3.2299 L 4.1481,3.2430 L 4.1481,3.2691 L 4.1481,3.2822 L 4.1481,3.2953 L 4.1481,3.3083 L 4.1481,3.3214 L 4.1481,3.3345 L 4.1481,3.3476 L 4.1481,3.3607 L 4.1481,3.3737 L 4.1481,3.3868 L 4.1348,3.3868 L 4.1215,3.3868 L 4.0949,3.3868 L 4.0816,3.3868 L 4.0683,3.3868 L 4.0550,3.3868 L 4.0285,3.3868 L 4.0152,3.3868 L 4.0019,3.3737 L 3.9886,3.3737 L 3.9753,3.3737 L 3.9620,3.3737 L 3.9487,3.3607 L 3.9354,3.3607 L 3.9221,3.3476 L 3.9088,3.3476 L 3.8955,3.3345 L 3.8822,3.3214 L 3.8689,3.3214 L 3.8556,3.3083 L 3.8423,3.2953 L 3.8290,3.2822 L 3.8290,3.2560 L 3.8157,3.2430 L 3.8024,3.2299 L 3.8024,3.2037 L 3.7891,3.1776 L 3.7891,3.1645 L 3.7891,3.1384 L 3.7758,3.1122 L 3.7758,3.0730 L 3.7758,3.0468 L 3.7891,3.0468 L 3.8024,3.0468 L 3.8157,3.0468 L 3.8290,3.0468 L 3.8423,3.0468 L 3.8556,3.0468 L 3.8822,3.0468 L 3.8955,3.0468 L 3.9088,3.0468 L 3.9221,3.0468 L 3.9487,3.0468 L 3.9620,3.0468 L 3.9753,3.0468 L 4.0019,3.0468 L 4.0152,3.0468 L 4.0285,3.0468 L 4.0418,3.0468 L 4.0683,3.0468 L 4.0816,3.0468 L 4.0949,3.0468 L 4.1082,3.0468 L 4.1215,3.0468 L 4.1348,3.0468 L 4.1481,3.0468 Z" stroke="#ED3440" stroke-width="0.1197" stroke-linecap="round" stroke-linejoin="round" fill="#ED3440"/>
        <path d="M 4.2412,2.2361 L 4.2412,2.5761 L 4.6666,2.5761 L 4.6666,2.2361 L 4.2412,2.2361 Z" stroke="#ED3440" stroke-width="0.1197" stroke-linecap="round" stroke-linejoin="round" fill="#ED3440"/>
        <path d="M 4.7331,2.5761 L 4.7331,2.5630 L 4.7331,2.5499 L 4.7331,2.5368 L 4.7331,2.5238 L 4.7331,2.5107 L 4.7331,2.4976 L 4.7331,2.4845 L 4.7331,2.4715 L 4.7331,2.4584 L 4.7331,2.4322 L 4.7331,2.4191 L 4.7331,2.4061 L 4.7331,2.3930 L 4.7331,2.3799 L 4.7331,2.3538 L 4.7331,2.3407 L 4.7331,2.3276 L 4.7331,2.3145 L 4.7331,2.3015 L 4.7331,2.2884 L 4.7331,2.2753 L 4.7331,2.2622 L 4.7331,2.2492 L 4.7331,2.2361 L 4.7464,2.2361 L 4.7730,2.2361 L 4.7863,2.2361 L 4.7996,2.2361 L 4.8262,2.2361 L 4.8395,2.2361 L 4.8528,2.2361 L 4.8661,2.2361 L 4.8927,2.2492 L 4.9059,2.2492 L 4.9192,2.2492 L 4.9325,2.2492 L 4.9458,2.2622 L 4.9591,2.2622 L 4.9724,2.2753 L 4.9857,2.2753 L 4.9990,2.2884 L 5.0123,2.3015 L 5.0256,2.3015 L 5.0389,2.3145 L 5.0522,2.3276 L 5.0522,2.3407 L 5.0655,2.3668 L 5.0788,2.3799 L 5.0788,2.3930 L 5.0921,2.4191 L 5.0921,2.4453 L 5.0921,2.4584 L 5.1054,2.4845 L 5.1054,2.5107 L 5.1054,2.5499 L 5.1054,2.5761 L 5.0921,2.5761 L 5.0788,2.5761 L 5.0655,2.5761 L 5.0522,2.5761 L 5.0389,2.5761 L 5.0256,2.5761 L 4.9990,2.5761 L 4.9857,2.5761 L 4.9724,2.5761 L 4.9591,2.5761 L 4.9325,2.5761 L 4.9192,2.5761 L 4.9059,2.5761 L 4.8794,2.5761 L 4.8661,2.5761 L 4.8528,2.5761 L 4.8395,2.5761 L 4.8129,2.5761 L 4.7996,2.5761 L 4.7863,2.5761 L 4.7730,2.5761 L 4.7597,2.5761 L 4.7464,2.5761 L 4.7331,2.5761 Z" stroke="#ED3440" stroke-width="0.1197" stroke-linecap="round" stroke-linejoin="round" fill="#ED3440"/>
        <path d="M 4.1481,2.5761 L 4.1481,2.5630 L 4.1481,2.5499 L 4.1481,2.5368 L 4.1481,2.5238 L 4.1481,2.5107 L 4.1481,2.4976 L 4.1481,2.4845 L 4.1481,2.4715 L 4.1481,2.4584 L 4.1481,2.4322 L 4.1481,2.4191 L 4.1481,2.4061 L 4.1481,2.3930 L 4.1481,2.3799 L 4.1481,2.3538 L 4.1481,2.3407 L 4.1481,2.3276 L 4.1481,2.3145 L 4.1481,2.3015 L 4.1481,2.2884 L 4.1481,2.2753 L 4.1481,2.2622 L 4.1481,2.2492 L 4.1481,2.2361 L 4.1348,2.2361 L 4.1215,2.2361 L 4.0949,2.2361 L 4.0816,2.2361 L 4.0683,2.2361 L 4.0550,2.2361 L 4.0285,2.2361 L 4.0152,2.2361 L 4.0019,2.2492 L 3.9886,2.2492 L 3.9753,2.2492 L 3.9620,2.2492 L 3.9487,2.2622 L 3.9354,2.2622 L 3.9221,2.2753 L 3.9088,2.2753 L 3.8955,2.2884 L 3.8822,2.3015 L 3.8689,2.3015 L 3.8556,2.3145 L 3.8423,2.3276 L 3.8290,2.3407 L 3.8290,2.3668 L 3.8157,2.3799 L 3.8024,2.3930 L 3.8024,2.4191 L 3.7891,2.4453 L 3.7891,2.4584 L 3.7891,2.4845 L 3.7758,2.5107 L 3.7758,2.5499 L 3.7758,2.5761 L 3.7891,2.5761 L 3.8024,2.5761 L 3.8157,2.5761 L 3.8290,2.5761 L 3.8423,2.5761 L 3.8556,2.5761 L 3.8822,2.5761 L 3.8955,2.5761 L 3.9088,2.5761 L 3.9221,2.5761 L 3.9487,2.5761 L 3.9620,2.5761 L 3.9753,2.5761 L 4.0019,2.5761 L 4.0152,2.5761 L 4.0285,2.5761 L 4.0418,2.5761 L 4.0683,2.5761 L 4.0816,2.5761 L 4.0949,2.5761 L 4.1082,2.5761 L 4.1215,2.5761 L 4.1348,2.5761 L 4.1481,2.5761 Z" stroke="#ED3440" stroke-width="0.1197" stroke-linecap="round" stroke-linejoin="round" fill="#ED3440"/>
        <text font-family="Symbol" fill="#000000" style="white-space:pre;" text-anchor="start" x="12.4339" y="3.3639" font-size="0.6886"><![CDATA[]]></text>
        <text font-family="Arial" fill="#000000" style="white-space:pre;" font-weight="400" text-anchor="start" x="15.9060" y="4.9144" font-size="0.1164"><![CDATA[RESET]]></text>
        <text font-family="Arial" fill="#000000" style="white-space:pre;" font-weight="400" text-anchor="start" x="16.7110" y="4.1017" font-size="0.1164"><![CDATA[PWR]]></text>
        <text font-family="Arial" fill="#000000" style="white-space:pre;" font-weight="400" text-anchor="start" x="16.7110" y="4.3474" font-size="0.1164"><![CDATA[ALARM]]></text>
        <text font-family="Arial" fill="#000000" style="white-space:pre;" font-weight="400" text-anchor="start" x="16.7110" y="4.5931" font-size="0.1164"><![CDATA[BT/BLE]]></text>
        <text font-family="Arial" fill="#000000" style="white-space:pre;" font-weight="400" text-anchor="start" x="16.7110" y="4.8388" font-size="0.1164"><![CDATA[POE MAX]]></text>
        <text font-family="Arial" fill="#FF0000" style="white-space:pre;" font-weight="400" text-anchor="start" x="20.3966" y="3.5842" font-size="0.0873"><![CDATA[POE 54V, 0.56A(MAX)]]></text>
        <text font-family="Arial" fill="#FF0000" style="white-space:pre;" font-weight="400" text-anchor="start" x="22.6855" y="3.5842" font-size="0.0873"><![CDATA[POE 54V, 1.67A(MAX)]]></text>
        <text font-family="Arial" fill="#000000" style="white-space:pre;" font-weight="400" text-anchor="start" x="24.0045" y="4.9907" font-size="0.1067"><![CDATA[14]]></text>
        <text font-family="Arial" fill="#000000" style="white-space:pre;" font-weight="400" text-anchor="start" x="24.0045" y="4.7072" font-size="0.1067"><![CDATA[13]]></text>
        <text font-family="Arial" fill="#000000" style="white-space:pre;" font-weight="400" text-anchor="start" x="23.7621" y="4.7072" font-size="0.1067"><![CDATA[11]]></text>
        <text font-family="Arial" fill="#000000" style="white-space:pre;" font-weight="400" text-anchor="start" x="23.6942" y="4.4324" font-size="0.1164"><![CDATA[LINK/ACT]]></text>
        <text font-family="Arial" fill="#000000" style="white-space:pre;" font-weight="400" text-anchor="start" x="23.8105" y="4.3096" font-size="0.1164"><![CDATA[SFP+]]></text>
        <text font-family="Arial" fill="#000000" style="white-space:pre;" font-weight="400" text-anchor="start" x="24.5477" y="5.0757" font-size="0.1067"><![CDATA[11/12]]></text>
        <path d="M 67.4849,10.5412 L 67.1069,10.5412 L 67.2959,10.8656 L 67.4849,10.5412 Z" stroke="#000000" stroke-width="0.1197" stroke-linecap="round" stroke-linejoin="round" fill="#000000"/>
        <path d="M 64.7443,10.8656 L 65.1223,10.8656 L 64.9333,10.5412 L 64.7443,10.8656 Z" stroke="#000000" stroke-width="0.1197" stroke-linecap="round" stroke-linejoin="round" fill="#000000"/>
        <text font-family="Arial" fill="#000000" style="white-space:pre;" font-weight="400" text-anchor="start" x="75.3604" y="12.0727" font-size="0.0866"><![CDATA[13/14]]></text>
        <path d="M 73.0608,10.5412 L 72.6828,10.5412 L 72.8718,10.8656 L 73.0608,10.5412 Z" stroke="#000000" stroke-width="0.1197" stroke-linecap="round" stroke-linejoin="round" fill="#000000"/>
        <path d="M 70.3201,10.8656 L 70.6981,10.8656 L 70.5091,10.5412 L 70.3201,10.8656 Z" stroke="#000000" stroke-width="0.1197" stroke-linecap="round" stroke-linejoin="round" fill="#000000"/>
        <text font-family="Arial" fill="#000000" style="white-space:pre;" font-weight="400" text-anchor="start" x="78.5027" y="11.6053" font-size="0.0945"><![CDATA[5G]]></text>
        <text font-family="Arial" fill="#000000" style="white-space:pre;" font-weight="400" text-anchor="start" x="79.9912" y="11.1411" font-size="0.1260"><![CDATA[FortiSwitch 110G-]]></text>
        <text font-family="Arial" fill="#FF0000" style="white-space:pre;" font-weight="400" text-anchor="start" x="80.9993" y="11.1411" font-size="0.1260"><![CDATA[FPOE]]></text>
        <path d="M 25.3123,9.3313 L 25.3123,7.2162 L 26.2053,7.2162 L 26.2053,6.7185 L 26.5681,6.7185 L 26.5681,6.2209 L 27.6286,6.2209 L 27.6286,6.7185 L 27.9914,6.7185 L 27.9914,7.2162 L 28.8844,7.2162 L 28.8844,9.3313 L 25.3123,9.3313 Z" stroke="#161616" stroke-width="0.1197" stroke-linecap="round" stroke-linejoin="round" fill="#00007F"/>
        <path d="M 31.5111,6.1656 L 31.4972,6.1656 L 31.4833,6.1656 L 31.4694,6.1656 L 31.4694,6.1796 L 31.4555,6.1796 L 31.4555,6.1936 L 31.4415,6.1936 L 31.4415,6.2076 L 31.4415,6.2216 L 31.4415,6.2356 L 31.4415,6.2496 L 31.4415,6.2777 L 31.4415,6.3197 L 31.4415,6.3757 L 31.4415,6.4458 L 31.4415,6.5299 L 31.4415,6.6280 L 31.4415,6.7401 L 31.4415,6.8522 L 31.4415,6.9783 L 31.4415,7.1044 L 31.4415,7.2445 L 31.4415,7.3847 L 31.4415,7.5388 L 31.4415,7.6789 L 31.4415,7.8331 L 31.4415,7.9872 L 31.4415,8.1273 L 31.4415,8.2815 L 31.4415,8.4216 L 31.4415,8.5617 L 31.4415,8.6878 L 31.4415,8.8139 L 31.4415,8.9260 L 31.4415,9.0381 L 31.4415,9.1362 L 31.4415,9.2203 L 31.4415,9.2904 L 31.4415,9.3464 L 31.4415,9.3885 L 31.4415,9.4165 L 31.4415,9.4305 L 31.4415,9.4445 L 31.4415,9.4585 L 31.4415,9.4725 L 31.4555,9.4725 L 31.4555,9.4865 L 31.4694,9.4865 L 31.4694,9.5006 L 31.4833,9.5006 L 31.4972,9.5006 L 31.5111,9.5006 L 31.5251,9.5006 L 31.5390,9.5006 L 31.5668,9.5006 L 31.5946,9.5006 L 31.6225,9.5006 L 31.6503,9.5006 L 31.6921,9.5006 L 31.7338,9.5006 L 31.7895,9.5006 L 31.8313,9.5006 L 31.8869,9.5006 L 31.9426,9.5006 L 31.9983,9.5006 L 32.0540,9.5006 L 32.1096,9.5006 L 32.1514,9.5006 L 32.2071,9.5006 L 32.2627,9.5006 L 32.3184,9.5006 L 32.3741,9.5006 L 32.4158,9.5006 L 32.4715,9.5006 L 32.5133,9.5006 L 32.5550,9.5006 L 32.5829,9.5006 L 32.6107,9.5006 L 32.6385,9.5006 L 32.6664,9.5006 L 32.6803,9.5006 L 32.6942,9.5006 L 32.7081,9.5006 L 32.7220,9.5006 L 32.7220,9.4865 L 32.7360,9.4865 L 32.7499,9.4865 L 32.7499,9.4725 L 32.7499,9.4585 L 32.7638,9.4585 L 32.7638,9.4445 L 32.7638,9.4305 L 32.7638,9.4165 L 32.7638,9.3885 L 32.7638,9.3464 L 32.7638,9.2904 L 32.7638,9.2203 L 32.7638,9.1362 L 32.7638,9.0381 L 32.7638,8.9260 L 32.7638,8.8139 L 32.7638,8.6878 L 32.7638,8.5617 L 32.7638,8.4216 L 32.7638,8.2815 L 32.7638,8.1273 L 32.7638,7.9872 L 32.7638,7.8331 L 32.7638,7.6789 L 32.7638,7.5388 L 32.7638,7.3847 L 32.7638,7.2445 L 32.7638,7.1044 L 32.7638,6.9783 L 32.7638,6.8522 L 32.7638,6.7401 L 32.7638,6.6280 L 32.7638,6.5299 L 32.7638,6.4458 L 32.7638,6.3757 L 32.7638,6.3197 L 32.7638,6.2777 L 32.7638,6.2496 L 32.7638,6.2356 L 32.7638,6.2216 L 32.7638,6.2076 L 32.7499,6.2076 L 32.7499,6.1936 L 32.7499,6.1796 L 32.7360,6.1796 L 32.7220,6.1796 L 32.7220,6.1656 L 32.7081,6.1656 L 32.6942,6.1656 L 32.6803,6.1656 L 32.6664,6.1656 L 32.6385,6.1656 L 32.6107,6.1656 L 32.5829,6.1656 L 32.5550,6.1656 L 32.5133,6.1656 L 32.4715,6.1656 L 32.4158,6.1656 L 32.3741,6.1656 L 32.3184,6.1656 L 32.2627,6.1656 L 32.2071,6.1656 L 32.1514,6.1656 L 32.1096,6.1656 L 32.0540,6.1656 L 31.9983,6.1656 L 31.9426,6.1656 L 31.8869,6.1656 L 31.8313,6.1656 L 31.7895,6.1656 L 31.7338,6.1656 L 31.6921,6.1656 L 31.6503,6.1656 L 31.6225,6.1656 L 31.5946,6.1656 L 31.5668,6.1656 L 31.5390,6.1656 L 31.5251,6.1656 L 31.5111,6.1656 Z" stroke="#333333" stroke-width="0.1197" stroke-linecap="round" stroke-linejoin="round" fill="#BFBFBF"/>
        <path d="M 32.6385,6.2076 L 32.6524,6.2076 L 32.6664,6.2076 L 32.6664,6.2216 L 32.6803,6.2216 L 32.6942,6.2216 L 32.6942,6.2356 L 32.7081,6.2356 L 32.7081,6.2496 L 32.7081,6.2636 L 32.7081,6.2777 L 32.7081,6.2917 L 32.7081,6.3337 L 32.7081,6.4038 L 32.7081,6.4738 L 32.7081,6.5439 L 32.7081,6.6420 L 32.7081,6.7541 L 32.7081,6.8662 L 32.7081,6.9783 L 32.7081,7.1184 L 32.7081,7.2445 L 32.7081,7.3847 L 32.7081,7.5248 L 32.7081,7.6789 L 32.7081,7.8190 L 32.7081,7.9592 L 32.7081,8.1133 L 32.7081,8.2534 L 32.7081,8.3936 L 32.7081,8.5197 L 32.7081,8.6598 L 32.7081,8.7719 L 32.7081,8.8840 L 32.7081,8.9961 L 32.7081,9.0942 L 32.7081,9.1643 L 32.7081,9.2343 L 32.7081,9.3044 L 32.7081,9.3464 L 32.7081,9.3604 L 32.7081,9.3744 L 32.7081,9.3885 L 32.7081,9.4025 L 32.6942,9.4025 L 32.6942,9.4165 L 32.6803,9.4165 L 32.6664,9.4165 L 32.6664,9.4305 L 32.6524,9.4305 L 32.6385,9.4305 L 32.6246,9.4305 L 32.6107,9.4305 L 32.5968,9.4305 L 32.5689,9.4305 L 32.5411,9.4305 L 32.4993,9.4305 L 32.4715,9.4305 L 32.4297,9.4305 L 32.3880,9.4305 L 32.3462,9.4305 L 32.2906,9.4305 L 32.2488,9.4305 L 32.1931,9.4305 L 32.1514,9.4305 L 32.0957,9.4305 L 32.0400,9.4305 L 31.9983,9.4305 L 31.9426,9.4305 L 31.9009,9.4305 L 31.8452,9.4305 L 31.8034,9.4305 L 31.7617,9.4305 L 31.7199,9.4305 L 31.6921,9.4305 L 31.6503,9.4305 L 31.6225,9.4305 L 31.5946,9.4305 L 31.5807,9.4305 L 31.5668,9.4305 L 31.5529,9.4305 L 31.5390,9.4305 L 31.5251,9.4305 L 31.5251,9.4165 L 31.5111,9.4165 L 31.4972,9.4025 L 31.4972,9.3885 L 31.4833,9.3885 L 31.4833,9.3744 L 31.4833,9.3604 L 31.4833,9.3464 L 31.4833,9.3044 L 31.4833,9.2343 L 31.4833,9.1643 L 31.4833,9.0942 L 31.4833,8.9961 L 31.4833,8.8840 L 31.4833,8.7719 L 31.4833,8.6598 L 31.4833,8.5197 L 31.4833,8.3936 L 31.4833,8.2534 L 31.4833,8.1133 L 31.4833,7.9592 L 31.4833,7.8190 L 31.4833,7.6789 L 31.4833,7.5248 L 31.4833,7.3847 L 31.4833,7.2445 L 31.4833,7.1184 L 31.4833,6.9783 L 31.4833,6.8662 L 31.4833,6.7541 L 31.4833,6.6420 L 31.4833,6.5439 L 31.4833,6.4738 L 31.4833,6.4038 L 31.4833,6.3337 L 31.4833,6.2917 L 31.4833,6.2777 L 31.4833,6.2636 L 31.4833,6.2496 L 31.4972,6.2496 L 31.4972,6.2356 L 31.5111,6.2216 L 31.5251,6.2216 L 31.5251,6.2076 L 31.5390,6.2076 L 31.5529,6.2076 L 31.5668,6.2076 L 31.5807,6.2076 L 31.5946,6.2076 L 31.6225,6.2076 L 31.6503,6.2076 L 31.6921,6.2076 L 31.7199,6.2076 L 31.7617,6.2076 L 31.8034,6.2076 L 31.8452,6.2076 L 31.9009,6.2076 L 31.9426,6.2076 L 31.9983,6.2076 L 32.0400,6.2076 L 32.0957,6.2076 L 32.1514,6.2076 L 32.1931,6.2076 L 32.2488,6.2076 L 32.2906,6.2076 L 32.3462,6.2076 L 32.3880,6.2076 L 32.4297,6.2076 L 32.4715,6.2076 L 32.4993,6.2076 L 32.5411,6.2076 L 32.5689,6.2076 L 32.5968,6.2076 L 32.6107,6.2076 L 32.6246,6.2076 L 32.6385,6.2076 Z" stroke="#333333" stroke-width="0.1197" stroke-linecap="round" stroke-linejoin="round" fill="#EAEAEA"/>
        <path d="M 32.2627,8.6458 L 32.2627,8.9821 L 32.0679,8.9821 L 32.0679,8.6458 L 32.2627,8.6458 Z" stroke="#000000" stroke-width="0.1197" stroke-linecap="round" stroke-linejoin="round" fill="#0A0A0A"/>
        <path d="M 32.2627,7.9872 L 32.2627,8.3235 L 32.0679,8.3235 L 32.0679,7.9872 L 32.2627,7.9872 Z" stroke="#000000" stroke-width="0.1197" stroke-linecap="round" stroke-linejoin="round" fill="#0A0A0A"/>
        <path d="M 32.2627,7.3426 L 32.2627,7.6789 L 32.0679,7.6789 L 32.0679,7.3426 L 32.2627,7.3426 Z" stroke="#000000" stroke-width="0.1197" stroke-linecap="round" stroke-linejoin="round" fill="#0A0A0A"/>
        <path d="M 32.2627,6.6560 L 32.2627,6.9923 L 32.0679,6.9923 L 32.0679,6.6560 L 32.2627,6.6560 Z" stroke="#000000" stroke-width="0.1197" stroke-linecap="round" stroke-linejoin="round" fill="#0A0A0A"/>
        <path d="M 31.7338,6.3757 L 31.7060,6.3757 L 31.6782,6.3898 L 31.6642,6.4178 L 31.6642,6.4458 L 31.6642,9.1923 L 31.6642,9.2203 L 31.6782,9.2483 L 31.7060,9.2623 L 31.7338,9.2623 L 31.9844,9.2623 L 32.0122,9.2623 L 32.0400,9.2483 L 32.0540,9.2203 L 32.0540,9.1923 L 32.0540,6.4458 L 32.0540,6.4178 L 32.0400,6.3898 L 32.0122,6.3757 L 31.9844,6.3757 L 31.7338,6.3757 Z" stroke="#7F7F7F" stroke-width="0.1197" stroke-linecap="round" stroke-linejoin="round" fill="#EAEAEA"/>
        <path d="M 31.8591,6.4738 L 31.8173,6.4878 L 31.7895,6.5159 L 31.7617,6.5439 L 31.7477,6.5859 L 31.7477,9.0381 L 31.7617,9.0802 L 31.7895,9.1222 L 31.8173,9.1362 L 31.8591,9.1502 L 31.8730,9.1502 L 31.9148,9.1362 L 31.9565,9.1222 L 31.9704,9.0802 L 31.9844,9.0381 L 31.9844,6.5859 L 31.9704,6.5439 L 31.9565,6.5159 L 31.9148,6.4878 L 31.8730,6.4738 L 31.8591,6.4738 Z" stroke="#F7F7F7" stroke-width="0.1197" stroke-linecap="round" stroke-linejoin="round" fill="#F7F7F7"/>
        <path d="M 32.7081,8.8980 L 32.5411,8.8980 L 32.5411,8.5897 L 32.7081,8.5897 L 32.7081,8.8980 Z" stroke="#000000" stroke-width="0.1197" stroke-linecap="round" stroke-linejoin="round" fill="#BFBFBF"/>
        <path d="M 32.7081,6.7681 L 32.5411,6.7681 L 32.5411,7.0764 L 32.7081,7.0764 L 32.7081,6.7681 Z" stroke="#000000" stroke-width="0.1197" stroke-linecap="round" stroke-linejoin="round" fill="#BFBFBF"/>
        <path d="M 31.7338,6.3757 L 31.7060,6.3757 L 31.6782,6.3898 L 31.6642,6.4178 L 31.6642,6.4458 L 31.6642,9.1923 L 31.6642,9.2203 L 31.6782,9.2483 L 31.7060,9.2623 L 31.7338,9.2623 L 31.9844,9.2623 L 32.0122,9.2623 L 32.0400,9.2483 L 32.0540,9.2203 L 32.0540,9.1923 L 32.0540,6.4458 L 32.0540,6.4178 L 32.0400,6.3898 L 32.0122,6.3757 L 31.9844,6.3757 L 31.7338,6.3757 Z" stroke="#7F7F7F" stroke-width="0.1197" stroke-linecap="round" stroke-linejoin="round" fill="none"/>
        <path d="M 36.5101,2.6957 L 36.5101,2.8478 L 36.2850,2.8478 L 36.2850,3.2763 L 35.3428,3.2763 L 35.3428,3.3178 L 35.0474,3.3178 L 35.0474,2.8478 L 35.1037,2.8478 L 35.1037,3.2763 L 35.3428,3.2763 L 35.3428,4.2302 L 35.4412,4.2302 L 35.4412,4.7278 L 35.3428,4.7278 L 35.3428,5.8061 L 38.9431,5.8061 L 38.9431,4.7278 L 38.8447,4.7278 L 38.8447,4.2302 L 38.9431,4.2302 L 38.9431,3.2763 L 39.1822,3.2763 L 39.1822,2.8478 L 39.2385,2.8478 L 39.2385,3.3178 L 38.9431,3.3178 L 38.9431,3.2763 L 38.0008,3.2763 L 38.0008,2.8478 L 37.7758,2.8478 L 37.7758,2.6957 L 36.5101,2.6957 Z" stroke="#000000" stroke-width="0.1197" stroke-linecap="round" stroke-linejoin="round" fill="#000000"/>
        <path d="M 36.2850,2.8616 L 35.1037,2.8616 L 35.1037,3.2901 L 36.2850,3.2901 L 36.2850,2.8616 Z" stroke="#494949" stroke-width="0.1197" stroke-linecap="round" stroke-linejoin="round" fill="#000000"/>
        <path d="M 39.1822,2.8616 L 38.0008,2.8616 L 38.0008,3.2901 L 39.1822,3.2901 L 39.1822,2.8616 Z" stroke="#494949" stroke-width="0.1197" stroke-linecap="round" stroke-linejoin="round" fill="#000000"/>
        <path d="M 36.5101,9.9534 L 36.5101,9.8013 L 36.2850,9.8013 L 36.2850,9.3728 L 35.3428,9.3728 L 35.3428,9.3313 L 35.0474,9.3313 L 35.0474,9.8013 L 35.1037,9.8013 L 35.1037,9.3728 L 35.3428,9.3728 L 35.3428,8.4189 L 35.4412,8.4189 L 35.4412,7.9212 L 35.3428,7.9212 L 35.3428,6.8429 L 38.9431,6.8429 L 38.9431,7.9212 L 38.8447,7.9212 L 38.8447,8.4189 L 38.9431,8.4189 L 38.9431,9.3728 L 39.1822,9.3728 L 39.1822,9.8013 L 39.2385,9.8013 L 39.2385,9.3313 L 38.9431,9.3313 L 38.9431,9.3728 L 38.0008,9.3728 L 38.0008,9.8013 L 37.7758,9.8013 L 37.7758,9.9534 L 36.5101,9.9534 Z" stroke="#000000" stroke-width="0.1197" stroke-linecap="round" stroke-linejoin="round" fill="#000000"/>
        <path d="M 36.2850,9.3728 L 35.1037,9.3728 L 35.1037,9.8013 L 36.2850,9.8013 L 36.2850,9.3728 Z" stroke="#494949" stroke-width="0.1197" stroke-linecap="round" stroke-linejoin="round" fill="#000000"/>
        <path d="M 39.1822,9.3728 L 38.0008,9.3728 L 38.0008,9.8013 L 39.1822,9.8013 L 39.1822,9.3728 Z" stroke="#494949" stroke-width="0.1197" stroke-linecap="round" stroke-linejoin="round" fill="#000000"/>
        <path d="M 41.0105,2.6957 L 41.0105,2.8478 L 40.7855,2.8478 L 40.7855,3.2763 L 39.8432,3.2763 L 39.8432,3.3178 L 39.5479,3.3178 L 39.5479,2.8478 L 39.6041,2.8478 L 39.6041,3.2763 L 39.8432,3.2763 L 39.8432,4.2302 L 39.9417,4.2302 L 39.9417,4.7278 L 39.8432,4.7278 L 39.8432,5.8061 L 43.4436,5.8061 L 43.4436,4.7278 L 43.3452,4.7278 L 43.3452,4.2302 L 43.4436,4.2302 L 43.4436,3.2763 L 43.6827,3.2763 L 43.6827,2.8478 L 43.7389,2.8478 L 43.7389,3.3178 L 43.4436,3.3178 L 43.4436,3.2763 L 42.5013,3.2763 L 42.5013,2.8478 L 42.2763,2.8478 L 42.2763,2.6957 L 41.0105,2.6957 Z" stroke="#000000" stroke-width="0.1197" stroke-linecap="round" stroke-linejoin="round" fill="#000000"/>
        <path d="M 40.7855,2.8616 L 39.6041,2.8616 L 39.6041,3.2901 L 40.7855,3.2901 L 40.7855,2.8616 Z" stroke="#494949" stroke-width="0.1197" stroke-linecap="round" stroke-linejoin="round" fill="#000000"/>
        <path d="M 43.6827,2.8616 L 42.5013,2.8616 L 42.5013,3.2901 L 43.6827,3.2901 L 43.6827,2.8616 Z" stroke="#494949" stroke-width="0.1197" stroke-linecap="round" stroke-linejoin="round" fill="#000000"/>
        <path d="M 41.0105,9.9534 L 41.0105,9.8013 L 40.7855,9.8013 L 40.7855,9.3728 L 39.8432,9.3728 L 39.8432,9.3313 L 39.5479,9.3313 L 39.5479,9.8013 L 39.6041,9.8013 L 39.6041,9.3728 L 39.8432,9.3728 L 39.8432,8.4189 L 39.9417,8.4189 L 39.9417,7.9212 L 39.8432,7.9212 L 39.8432,6.8429 L 43.4436,6.8429 L 43.4436,7.9212 L 43.3452,7.9212 L 43.3452,8.4189 L 43.4436,8.4189 L 43.4436,9.3728 L 43.6827,9.3728 L 43.6827,9.8013 L 43.7389,9.8013 L 43.7389,9.3313 L 43.4436,9.3313 L 43.4436,9.3728 L 42.5013,9.3728 L 42.5013,9.8013 L 42.2763,9.8013 L 42.2763,9.9534 L 41.0105,9.9534 Z" stroke="#000000" stroke-width="0.1197" stroke-linecap="round" stroke-linejoin="round" fill="#000000"/>
        <path d="M 40.7855,9.3728 L 39.6041,9.3728 L 39.6041,9.8013 L 40.7855,9.8013 L 40.7855,9.3728 Z" stroke="#494949" stroke-width="0.1197" stroke-linecap="round" stroke-linejoin="round" fill="#000000"/>
        <path d="M 43.6827,9.3728 L 42.5013,9.3728 L 42.5013,9.8013 L 43.6827,9.8013 L 43.6827,9.3728 Z" stroke="#494949" stroke-width="0.1197" stroke-linecap="round" stroke-linejoin="round" fill="#000000"/>
        <path d="M 45.5110,2.6957 L 45.5110,2.8478 L 45.2860,2.8478 L 45.2860,3.2763 L 44.3437,3.2763 L 44.3437,3.3178 L 44.0483,3.3178 L 44.0483,2.8478 L 44.1046,2.8478 L 44.1046,3.2763 L 44.3437,3.2763 L 44.3437,4.2302 L 44.4421,4.2302 L 44.4421,4.7278 L 44.3437,4.7278 L 44.3437,5.8061 L 47.9441,5.8061 L 47.9441,4.7278 L 47.8456,4.7278 L 47.8456,4.2302 L 47.9441,4.2302 L 47.9441,3.2763 L 48.1832,3.2763 L 48.1832,2.8478 L 48.2394,2.8478 L 48.2394,3.3178 L 47.9441,3.3178 L 47.9441,3.2763 L 47.0018,3.2763 L 47.0018,2.8478 L 46.7768,2.8478 L 46.7768,2.6957 L 45.5110,2.6957 Z" stroke="#000000" stroke-width="0.1197" stroke-linecap="round" stroke-linejoin="round" fill="#000000"/>
        <path d="M 45.2860,2.8616 L 44.1046,2.8616 L 44.1046,3.2901 L 45.2860,3.2901 L 45.2860,2.8616 Z" stroke="#494949" stroke-width="0.1197" stroke-linecap="round" stroke-linejoin="round" fill="#000000"/>
        <path d="M 48.1832,2.8616 L 47.0018,2.8616 L 47.0018,3.2901 L 48.1832,3.2901 L 48.1832,2.8616 Z" stroke="#494949" stroke-width="0.1197" stroke-linecap="round" stroke-linejoin="round" fill="#000000"/>
        <path d="M 45.5110,9.9534 L 45.5110,9.8013 L 45.2860,9.8013 L 45.2860,9.3728 L 44.3437,9.3728 L 44.3437,9.3313 L 44.0483,9.3313 L 44.0483,9.8013 L 44.1046,9.8013 L 44.1046,9.3728 L 44.3437,9.3728 L 44.3437,8.4189 L 44.4421,8.4189 L 44.4421,7.9212 L 44.3437,7.9212 L 44.3437,6.8429 L 47.9441,6.8429 L 47.9441,7.9212 L 47.8456,7.9212 L 47.8456,8.4189 L 47.9441,8.4189 L 47.9441,9.3728 L 48.1832,9.3728 L 48.1832,9.8013 L 48.2394,9.8013 L 48.2394,9.3313 L 47.9441,9.3313 L 47.9441,9.3728 L 47.0018,9.3728 L 47.0018,9.8013 L 46.7768,9.8013 L 46.7768,9.9534 L 45.5110,9.9534 Z" stroke="#000000" stroke-width="0.1197" stroke-linecap="round" stroke-linejoin="round" fill="#000000"/>
        <path d="M 45.2860,9.3728 L 44.1046,9.3728 L 44.1046,9.8013 L 45.2860,9.8013 L 45.2860,9.3728 Z" stroke="#494949" stroke-width="0.1197" stroke-linecap="round" stroke-linejoin="round" fill="#000000"/>
        <path d="M 48.1832,9.3728 L 47.0018,9.3728 L 47.0018,9.8013 L 48.1832,9.8013 L 48.1832,9.3728 Z" stroke="#494949" stroke-width="0.1197" stroke-linecap="round" stroke-linejoin="round" fill="#000000"/>
        <path d="M 50.0115,2.6957 L 50.0115,2.8478 L 49.7864,2.8478 L 49.7864,3.2763 L 48.8442,3.2763 L 48.8442,3.3178 L 48.5488,3.3178 L 48.5488,2.8478 L 48.6051,2.8478 L 48.6051,3.2763 L 48.8442,3.2763 L 48.8442,4.2302 L 48.9426,4.2302 L 48.9426,4.7278 L 48.8442,4.7278 L 48.8442,5.8061 L 52.4445,5.8061 L 52.4445,4.7278 L 52.3461,4.7278 L 52.3461,4.2302 L 52.4445,4.2302 L 52.4445,3.2763 L 52.6836,3.2763 L 52.6836,2.8478 L 52.7399,2.8478 L 52.7399,3.3178 L 52.4445,3.3178 L 52.4445,3.2763 L 51.5023,3.2763 L 51.5023,2.8478 L 51.2772,2.8478 L 51.2772,2.6957 L 50.0115,2.6957 Z" stroke="#000000" stroke-width="0.1197" stroke-linecap="round" stroke-linejoin="round" fill="#000000"/>
        <path d="M 49.7864,2.8616 L 48.6051,2.8616 L 48.6051,3.2901 L 49.7864,3.2901 L 49.7864,2.8616 Z" stroke="#494949" stroke-width="0.1197" stroke-linecap="round" stroke-linejoin="round" fill="#000000"/>
        <path d="M 52.6836,2.8616 L 51.5023,2.8616 L 51.5023,3.2901 L 52.6836,3.2901 L 52.6836,2.8616 Z" stroke="#494949" stroke-width="0.1197" stroke-linecap="round" stroke-linejoin="round" fill="#000000"/>
        <path d="M 50.0115,9.9534 L 50.0115,9.8013 L 49.7864,9.8013 L 49.7864,9.3728 L 48.8442,9.3728 L 48.8442,9.3313 L 48.5488,9.3313 L 48.5488,9.8013 L 48.6051,9.8013 L 48.6051,9.3728 L 48.8442,9.3728 L 48.8442,8.4189 L 48.9426,8.4189 L 48.9426,7.9212 L 48.8442,7.9212 L 48.8442,6.8429 L 52.4445,6.8429 L 52.4445,7.9212 L 52.3461,7.9212 L 52.3461,8.4189 L 52.4445,8.4189 L 52.4445,9.3728 L 52.6836,9.3728 L 52.6836,9.8013 L 52.7399,9.8013 L 52.7399,9.3313 L 52.4445,9.3313 L 52.4445,9.3728 L 51.5023,9.3728 L 51.5023,9.8013 L 51.2772,9.8013 L 51.2772,9.9534 L 50.0115,9.9534 Z" stroke="#000000" stroke-width="0.1197" stroke-linecap="round" stroke-linejoin="round" fill="#000000"/>
        <path d="M 49.7864,9.3728 L 48.6051,9.3728 L 48.6051,9.8013 L 49.7864,9.8013 L 49.7864,9.3728 Z" stroke="#494949" stroke-width="0.1197" stroke-linecap="round" stroke-linejoin="round" fill="#000000"/>
        <path d="M 52.6836,9.3728 L 51.5023,9.3728 L 51.5023,9.8013 L 52.6836,9.8013 L 52.6836,9.3728 Z" stroke="#494949" stroke-width="0.1197" stroke-linecap="round" stroke-linejoin="round" fill="#000000"/>
        <path d="M 56.5372,2.6957 L 56.5372,2.8478 L 56.3121,2.8478 L 56.3121,3.2763 L 55.3698,3.2763 L 55.3698,3.3178 L 55.0745,3.3178 L 55.0745,2.8478 L 55.1308,2.8478 L 55.1308,3.2763 L 55.3698,3.2763 L 55.3698,4.2302 L 55.4683,4.2302 L 55.4683,4.7278 L 55.3698,4.7278 L 55.3698,5.8061 L 58.9702,5.8061 L 58.9702,4.7278 L 58.8718,4.7278 L 58.8718,4.2302 L 58.9702,4.2302 L 58.9702,3.2763 L 59.2093,3.2763 L 59.2093,2.8478 L 59.2656,2.8478 L 59.2656,3.3178 L 58.9702,3.3178 L 58.9702,3.2763 L 58.0279,3.2763 L 58.0279,2.8478 L 57.8029,2.8478 L 57.8029,2.6957 L 56.5372,2.6957 Z" stroke="#000000" stroke-width="0.1197" stroke-linecap="round" stroke-linejoin="round" fill="#000000"/>
        <path d="M 56.3121,2.8616 L 55.1308,2.8616 L 55.1308,3.2901 L 56.3121,3.2901 L 56.3121,2.8616 Z" stroke="#494949" stroke-width="0.1197" stroke-linecap="round" stroke-linejoin="round" fill="#000000"/>
        <path d="M 59.2093,2.8616 L 58.0279,2.8616 L 58.0279,3.2901 L 59.2093,3.2901 L 59.2093,2.8616 Z" stroke="#494949" stroke-width="0.1197" stroke-linecap="round" stroke-linejoin="round" fill="#000000"/>
        <path d="M 56.5372,9.9534 L 56.5372,9.8013 L 56.3121,9.8013 L 56.3121,9.3728 L 55.3698,9.3728 L 55.3698,9.3313 L 55.0745,9.3313 L 55.0745,9.8013 L 55.1308,9.8013 L 55.1308,9.3728 L 55.3698,9.3728 L 55.3698,8.4189 L 55.4683,8.4189 L 55.4683,7.9212 L 55.3698,7.9212 L 55.3698,6.8429 L 58.9702,6.8429 L 58.9702,7.9212 L 58.8718,7.9212 L 58.8718,8.4189 L 58.9702,8.4189 L 58.9702,9.3728 L 59.2093,9.3728 L 59.2093,9.8013 L 59.2656,9.8013 L 59.2656,9.3313 L 58.9702,9.3313 L 58.9702,9.3728 L 58.0279,9.3728 L 58.0279,9.8013 L 57.8029,9.8013 L 57.8029,9.9534 L 56.5372,9.9534 Z" stroke="#000000" stroke-width="0.1197" stroke-linecap="round" stroke-linejoin="round" fill="#000000"/>
        <path d="M 56.3121,9.3728 L 55.1308,9.3728 L 55.1308,9.8013 L 56.3121,9.8013 L 56.3121,9.3728 Z" stroke="#494949" stroke-width="0.1197" stroke-linecap="round" stroke-linejoin="round" fill="#000000"/>
        <path d="M 59.2093,9.3728 L 58.0279,9.3728 L 58.0279,9.8013 L 59.2093,9.8013 L 59.2093,9.3728 Z" stroke="#494949" stroke-width="0.1197" stroke-linecap="round" stroke-linejoin="round" fill="#000000"/>
        <path d="M 68.1025,2.8574 L 64.1925,2.8574 L 64.1925,5.5760 L 68.1025,5.5760 L 68.1025,2.8574 " stroke="#000000" stroke-width="0.1197" stroke-linecap="round" stroke-linejoin="round" fill="none"/>
        <path d="M 68.1025,7.1157 L 64.1925,7.1157 L 64.1925,9.8344 L 68.1025,9.8344 L 68.1025,7.1157 " stroke="#000000" stroke-width="0.1197" stroke-linecap="round" stroke-linejoin="round" fill="none"/>
        <path d="M 73.6601,2.8574 L 69.7502,2.8574 L 69.7502,5.5760 L 73.6601,5.5760 L 73.6601,2.8574 " stroke="#000000" stroke-width="0.1197" stroke-linecap="round" stroke-linejoin="round" fill="none"/>
        <path d="M 73.6601,7.1157 L 69.7502,7.1157 L 69.7502,9.8344 L 73.6601,9.8344 L 73.6601,7.1157 " stroke="#000000" stroke-width="0.1197" stroke-linecap="round" stroke-linejoin="round" fill="none"/>
        <path d="M 56.2142,2.8501 L 55.1280,2.8501 L 55.1280,3.3154 L 56.2142,3.3154 L 56.2142,2.8501 Z" stroke="#000000" stroke-width="0.1197" stroke-linecap="round" stroke-linejoin="round" fill="#FFFF00"/>
        <path d="M 59.2597,2.8501 L 58.1734,2.8501 L 58.1734,3.3154 L 59.2597,3.3154 L 59.2597,2.8501 Z" stroke="#000000" stroke-width="0.1197" stroke-linecap="round" stroke-linejoin="round" fill="#83FF00"/>
        <path d="M 36.1959,2.8501 L 35.1096,2.8501 L 35.1096,3.3154 L 36.1959,3.3154 L 36.1959,2.8501 Z" stroke="#000000" stroke-width="0.1197" stroke-linecap="round" stroke-linejoin="round" fill="#FFFF00"/>
        <path d="M 39.2219,2.8501 L 38.1357,2.8501 L 38.1357,3.3154 L 39.2219,3.3154 L 39.2219,2.8501 Z" stroke="#000000" stroke-width="0.1197" stroke-linecap="round" stroke-linejoin="round" fill="#83FF00"/>
        <path d="M 40.6962,2.8501 L 39.6099,2.8501 L 39.6099,3.3154 L 40.6962,3.3154 L 40.6962,2.8501 Z" stroke="#000000" stroke-width="0.1197" stroke-linecap="round" stroke-linejoin="round" fill="#FFFF00"/>
        <path d="M 43.7222,2.8501 L 42.6359,2.8501 L 42.6359,3.3154 L 43.7222,3.3154 L 43.7222,2.8501 Z" stroke="#000000" stroke-width="0.1197" stroke-linecap="round" stroke-linejoin="round" fill="#83FF00"/>
        <path d="M 45.1964,2.8501 L 44.1101,2.8501 L 44.1101,3.3154 L 45.1964,3.3154 L 45.1964,2.8501 Z" stroke="#000000" stroke-width="0.1197" stroke-linecap="round" stroke-linejoin="round" fill="#FFFF00"/>
        <path d="M 48.2224,2.8501 L 47.1362,2.8501 L 47.1362,3.3154 L 48.2224,3.3154 L 48.2224,2.8501 Z" stroke="#000000" stroke-width="0.1197" stroke-linecap="round" stroke-linejoin="round" fill="#83FF00"/>
        <path d="M 49.6966,2.8501 L 48.6104,2.8501 L 48.6104,3.3154 L 49.6966,3.3154 L 49.6966,2.8501 Z" stroke="#000000" stroke-width="0.1197" stroke-linecap="round" stroke-linejoin="round" fill="#FFFF00"/>
        <path d="M 52.7227,2.8501 L 51.6364,2.8501 L 51.6364,3.3154 L 52.7227,3.3154 L 52.7227,2.8501 Z" stroke="#000000" stroke-width="0.1197" stroke-linecap="round" stroke-linejoin="round" fill="#83FF00"/>
        <text font-family="Arial" fill="#000000" style="white-space:pre;" font-weight="400" text-anchor="start" x="66.0488" y="7.7342" font-size="0.2134"><![CDATA[1/2]]></text>
        <text font-family="Arial" fill="#000000" style="white-space:pre;" font-weight="400" text-anchor="start" x="67.5230" y="7.7342" font-size="0.2134"><![CDATA[3/4]]></text>
        <text font-family="Arial" fill="#000000" style="white-space:pre;" font-weight="400" text-anchor="start" x="69.0748" y="7.7342" font-size="0.2134"><![CDATA[5/6]]></text>
        <text font-family="Arial" fill="#000000" style="white-space:pre;" font-weight="400" text-anchor="start" x="70.6266" y="7.7342" font-size="0.2134"><![CDATA[7/8]]></text>
        <text font-family="Arial" fill="#000000" style="white-space:pre;" font-weight="400" text-anchor="start" x="74.2928" y="7.5597" font-size="0.2134"><![CDATA[12]]></text>
        <path d="M 56.2142,9.3065 L 55.1280,9.3065 L 55.1280,9.7718 L 56.2142,9.7718 L 56.2142,9.3065 Z" stroke="#000000" stroke-width="0.1197" stroke-linecap="round" stroke-linejoin="round" fill="#FFFF00"/>
        <path d="M 59.2597,9.3065 L 58.1734,9.3065 L 58.1734,9.7718 L 59.2597,9.7718 L 59.2597,9.3065 Z" stroke="#000000" stroke-width="0.1197" stroke-linecap="round" stroke-linejoin="round" fill="#83FF00"/>
        <text font-family="Arial" fill="#000000" style="white-space:pre;" font-weight="400" text-anchor="start" x="79.3556" y="14.1906" font-size="0.2134"><![CDATA[9/10]]></text>
        <path d="M 58.4912,10.5412 L 58.1131,10.5412 L 58.3021,10.8656 L 58.4912,10.5412 Z" stroke="#000000" stroke-width="0.1197" stroke-linecap="round" stroke-linejoin="round" fill="#000000"/>
        <path d="M 55.7505,10.8656 L 56.1285,10.8656 L 55.9395,10.5412 L 55.7505,10.8656 Z" stroke="#000000" stroke-width="0.1197" stroke-linecap="round" stroke-linejoin="round" fill="#000000"/>
        <path d="M 38.4638,10.5412 L 38.0858,10.5412 L 38.2748,10.8656 L 38.4638,10.5412 Z" stroke="#000000" stroke-width="0.1197" stroke-linecap="round" stroke-linejoin="round" fill="#000000"/>
        <path d="M 35.7232,10.8656 L 36.1012,10.8656 L 35.9122,10.5412 L 35.7232,10.8656 Z" stroke="#000000" stroke-width="0.1197" stroke-linecap="round" stroke-linejoin="round" fill="#000000"/>
        <path d="M 36.1959,9.3065 L 35.1096,9.3065 L 35.1096,9.7718 L 36.1959,9.7718 L 36.1959,9.3065 Z" stroke="#000000" stroke-width="0.1197" stroke-linecap="round" stroke-linejoin="round" fill="#FFFF00"/>
        <path d="M 39.2219,9.3065 L 38.1357,9.3065 L 38.1357,9.7718 L 39.2219,9.7718 L 39.2219,9.3065 Z" stroke="#000000" stroke-width="0.1197" stroke-linecap="round" stroke-linejoin="round" fill="#83FF00"/>
        <path d="M 42.9607,10.5412 L 42.5827,10.5412 L 42.7717,10.8656 L 42.9607,10.5412 Z" stroke="#000000" stroke-width="0.1197" stroke-linecap="round" stroke-linejoin="round" fill="#000000"/>
        <path d="M 40.2201,10.8656 L 40.5981,10.8656 L 40.4091,10.5412 L 40.2201,10.8656 Z" stroke="#000000" stroke-width="0.1197" stroke-linecap="round" stroke-linejoin="round" fill="#000000"/>
        <path d="M 40.6962,9.3065 L 39.6099,9.3065 L 39.6099,9.7718 L 40.6962,9.7718 L 40.6962,9.3065 Z" stroke="#000000" stroke-width="0.1197" stroke-linecap="round" stroke-linejoin="round" fill="#FFFF00"/>
        <path d="M 43.7222,9.3065 L 42.6359,9.3065 L 42.6359,9.7718 L 43.7222,9.7718 L 43.7222,9.3065 Z" stroke="#000000" stroke-width="0.1197" stroke-linecap="round" stroke-linejoin="round" fill="#83FF00"/>
        <path d="M 47.4655,10.5412 L 47.0875,10.5412 L 47.2765,10.8656 L 47.4655,10.5412 Z" stroke="#000000" stroke-width="0.1197" stroke-linecap="round" stroke-linejoin="round" fill="#000000"/>
        <path d="M 44.7248,10.8656 L 45.1028,10.8656 L 44.9138,10.5412 L 44.7248,10.8656 Z" stroke="#000000" stroke-width="0.1197" stroke-linecap="round" stroke-linejoin="round" fill="#000000"/>
        <path d="M 45.1964,9.3065 L 44.1101,9.3065 L 44.1101,9.7718 L 45.1964,9.7718 L 45.1964,9.3065 Z" stroke="#000000" stroke-width="0.1197" stroke-linecap="round" stroke-linejoin="round" fill="#FFFF00"/>
        <path d="M 48.2224,9.3065 L 47.1362,9.3065 L 47.1362,9.7718 L 48.2224,9.7718 L 48.2224,9.3065 Z" stroke="#000000" stroke-width="0.1197" stroke-linecap="round" stroke-linejoin="round" fill="#83FF00"/>
        <path d="M 51.9624,10.5412 L 51.5844,10.5412 L 51.7734,10.8656 L 51.9624,10.5412 Z" stroke="#000000" stroke-width="0.1197" stroke-linecap="round" stroke-linejoin="round" fill="#000000"/>
        <path d="M 49.2217,10.8656 L 49.5997,10.8656 L 49.4107,10.5412 L 49.2217,10.8656 Z" stroke="#000000" stroke-width="0.1197" stroke-linecap="round" stroke-linejoin="round" fill="#000000"/>
        <path d="M 49.6966,9.3065 L 48.6104,9.3065 L 48.6104,9.7718 L 49.6966,9.7718 L 49.6966,9.3065 Z" stroke="#000000" stroke-width="0.1197" stroke-linecap="round" stroke-linejoin="round" fill="#FFFF00"/>
        <path d="M 52.7227,9.3065 L 51.6364,9.3065 L 51.6364,9.7718 L 52.7227,9.7718 L 52.7227,9.3065 Z" stroke="#000000" stroke-width="0.1197" stroke-linecap="round" stroke-linejoin="round" fill="#83FF00"/>
      </g>
      <!--emf-blob end-->
    </g>
  </g>
</svg>
