<svg xmlns="http://www.w3.org/2000/svg" xmlns:xlink="http://www.w3.org/1999/xlink" version="1.1" width="4.7460000000" height="2.5068000000" viewBox="0 0 85.4300 45.1256">
  <title><![CDATA[FSW-80-POE (F)]]></title>
  <g transform=" scale(4.000000) ">
    <!--converted by libvisio2svg-->
    <g transform=" translate(15.715000,0.720000) ">
      <!--emf-blob start-->
      <g transform="translate(-0.0000, -0.0000)">
        <path d="M 4.3730,1.0456 L 4.3730,2.0912 L 5.3225,2.0912 " stroke="#000000" stroke-width="0.1200" stroke-linecap="round" stroke-linejoin="round" fill="none"/>
        <path d="M 5.3225,1.0456 L 7.1967,1.0456 " stroke="#000000" stroke-width="0.1200" stroke-linecap="round" stroke-linejoin="round" fill="none"/>
        <path d="M 6.2471,1.0456 L 6.2471,2.0912 " stroke="#000000" stroke-width="0.1200" stroke-linecap="round" stroke-linejoin="round" fill="none"/>
        <path d="M 7.6714,1.0456 L 7.6714,2.0912 " stroke="#000000" stroke-width="0.1200" stroke-linecap="round" stroke-linejoin="round" fill="none"/>
        <path d="M 7.6714,1.0456 L 7.6714,2.0912 " stroke="#000000" stroke-width="0.1200" stroke-linecap="round" stroke-linejoin="round" fill="none"/>
        <path d="M 8.5960,2.0912 L 8.5960,1.0456 L 9.5456,2.0912 L 10.4951,1.0456 L 10.4951,2.0912 " stroke="#000000" stroke-width="0.1200" stroke-linecap="round" stroke-linejoin="round" fill="none"/>
        <path d="M 10.9449,2.0912 L 11.8945,1.0456 L 12.8441,2.0912 " stroke="#000000" stroke-width="0.1200" stroke-linecap="round" stroke-linejoin="round" fill="none"/>
        <path d="M 11.1948,1.8298 L 12.5942,1.8298 " stroke="#000000" stroke-width="0.1200" stroke-linecap="round" stroke-linejoin="round" fill="none"/>
        <path d="M 1.5493,2.0912 L 2.4988,1.0456 L 3.4484,2.0912 " stroke="#000000" stroke-width="0.1200" stroke-linecap="round" stroke-linejoin="round" fill="none"/>
        <path d="M 1.7992,1.8298 L 3.1985,1.8298 " stroke="#000000" stroke-width="0.1200" stroke-linecap="round" stroke-linejoin="round" fill="none"/>
        <path d="M 53.9438,0.0281 L 0.0281,0.0281 L 0.0281,10.7439 L 53.9438,10.7439 L 53.9438,0.0281 Z" stroke="#000000" stroke-width="0.1200" stroke-linecap="round" stroke-linejoin="round" fill="#EFEFEF"/>
        <path d="M 53.9157,7.6862 L 53.9157,10.7018 L 0.0703,10.7018 L 0.0703,7.6862 L 7.4211,7.6862 L 7.8850,7.7003 L 12.8886,7.7003 L 13.3524,7.7143 L 15.9105,7.7143 L 16.3602,7.5740 L 16.7819,7.4057 L 16.9787,7.3216 L 17.1614,7.2374 L 17.3300,7.1532 L 17.5128,7.0551 L 17.9766,6.7605 L 18.1312,6.6483 L 18.2717,6.5501 L 18.4123,6.4379 L 18.5388,6.3257 L 18.6653,6.2275 L 19.0448,5.8909 L 19.1713,5.7647 L 19.4243,5.5403 L 19.5367,5.4281 L 19.6632,5.3158 L 19.7897,5.1896 L 20.0427,4.9652 L 20.1832,4.8530 L 20.3097,4.7408 L 20.5908,4.5164 L 20.7454,4.4042 L 20.8719,4.2779 L 20.9844,4.1517 L 21.1109,4.0395 L 21.2233,3.9273 L 21.3217,3.8151 L 21.4341,3.7169 L 21.5325,3.6047 L 21.6309,3.5065 L 21.7153,3.4083 L 21.8136,3.3242 L 21.8980,3.2260 L 21.9964,3.1418 L 22.0807,3.0436 L 22.1650,2.9595 L 22.2634,2.8753 L 22.3477,2.8052 L 22.5164,2.6369 L 22.6148,2.5668 L 22.6991,2.4826 L 22.7975,2.4125 L 22.8959,2.3283 L 22.9943,2.2582 L 23.0927,2.1740 L 23.2051,2.1039 L 23.3035,2.0197 L 23.4159,1.9496 L 23.5424,1.8655 L 23.6689,1.7953 L 23.9219,1.6270 L 24.0625,1.5429 L 24.1609,1.4868 L 24.2733,1.4447 L 24.3717,1.3886 L 24.4841,1.3325 L 24.5825,1.2764 L 24.8074,1.1642 L 24.9198,1.1221 L 25.1447,1.0099 L 25.3977,0.8977 L 25.5102,0.8416 L 25.6366,0.7995 L 25.7772,0.7434 L 25.9037,0.6873 L 26.0442,0.6452 L 26.1848,0.5891 L 26.3254,0.5470 L 26.4800,0.4909 L 26.9438,0.3647 L 27.2811,0.2805 L 27.4498,0.2525 L 27.6325,0.2104 L 27.8152,0.1823 L 28.4055,0.0982 L 28.6163,0.0701 L 53.9157,0.0701 L 53.9157,7.6582 L 53.9157,7.6862 Z" stroke="#A4DB6D" stroke-width="0.1200" stroke-linecap="round" stroke-linejoin="round" fill="#A4DB6D"/>
        <path d="M 7.7585,7.9387 L 7.7585,8.4997 L 9.5294,8.4997 " stroke="#000000" stroke-width="0.1200" stroke-linecap="round" stroke-linejoin="round" fill="none"/>
        <path d="M 17.8641,7.9387 L 17.8641,8.4997 L 15.9807,8.4997 " stroke="#000000" stroke-width="0.1200" stroke-linecap="round" stroke-linejoin="round" fill="none"/>
        <path d="M 24.2452,4.9091 L 20.1973,4.9091 L 20.1973,8.6821 L 24.2452,8.6821 L 24.2452,4.9091 Z" stroke="#0A0A0A" stroke-width="0.1200" stroke-linecap="round" stroke-linejoin="round" fill="#F7F7F7"/>
        <path d="M 28.2931,4.9091 L 24.2452,4.9091 L 24.2452,8.6821 L 28.2931,8.6821 L 28.2931,4.9091 Z" stroke="#0A0A0A" stroke-width="0.1200" stroke-linecap="round" stroke-linejoin="round" fill="#F7F7F7"/>
        <path d="M 32.3410,4.9091 L 28.2931,4.9091 L 28.2931,8.6821 L 32.3410,8.6821 L 32.3410,4.9091 Z" stroke="#0A0A0A" stroke-width="0.1200" stroke-linecap="round" stroke-linejoin="round" fill="#F7F7F7"/>
        <path d="M 36.3889,4.9091 L 32.3410,4.9091 L 32.3410,8.6821 L 36.3889,8.6821 L 36.3889,4.9091 Z" stroke="#0A0A0A" stroke-width="0.1200" stroke-linecap="round" stroke-linejoin="round" fill="#F7F7F7"/>
        <path d="M 40.4368,4.9091 L 36.3889,4.9091 L 36.3889,8.6821 L 40.4368,8.6821 L 40.4368,4.9091 Z" stroke="#0A0A0A" stroke-width="0.1200" stroke-linecap="round" stroke-linejoin="round" fill="#F7F7F7"/>
        <path d="M 44.4846,4.9091 L 40.4368,4.9091 L 40.4368,8.6821 L 44.4846,8.6821 L 44.4846,4.9091 Z" stroke="#0A0A0A" stroke-width="0.1200" stroke-linecap="round" stroke-linejoin="round" fill="#F7F7F7"/>
        <path d="M 48.5325,4.9091 L 44.4846,4.9091 L 44.4846,8.6821 L 48.5325,8.6821 L 48.5325,4.9091 Z" stroke="#0A0A0A" stroke-width="0.1200" stroke-linecap="round" stroke-linejoin="round" fill="#F7F7F7"/>
        <path d="M 52.5804,4.9091 L 48.5325,4.9091 L 48.5325,8.6821 L 52.5804,8.6821 L 52.5804,4.9091 Z" stroke="#0A0A0A" stroke-width="0.1200" stroke-linecap="round" stroke-linejoin="round" fill="#F7F7F7"/>
        <path d="M 53.7048,6.7044 L 53.0864,6.7044 L 53.0864,8.1631 L 53.7048,8.1631 L 53.7048,6.7044 Z" stroke="#F7F7F7" stroke-width="0.1200" stroke-linecap="round" stroke-linejoin="round" fill="#F7F7F7"/>
        <path d="M 53.7048,4.6286 L 53.0864,4.6286 L 53.0864,6.0873 L 53.7048,6.0873 L 53.7048,4.6286 Z" stroke="#F7F7F7" stroke-width="0.1200" stroke-linecap="round" stroke-linejoin="round" fill="#F7F7F7"/>
        <path d="M 53.7048,2.5527 L 53.0864,2.5527 L 53.0864,4.0114 L 53.7048,4.0114 L 53.7048,2.5527 Z" stroke="#F7F7F7" stroke-width="0.1200" stroke-linecap="round" stroke-linejoin="round" fill="#F7F7F7"/>
        <path d="M 52.0744,2.5527 L 49.9381,2.5527 L 49.9381,4.0114 L 52.0744,4.0114 L 52.0744,2.5527 Z" stroke="#F7F7F7" stroke-width="0.1200" stroke-linecap="round" stroke-linejoin="round" fill="#F7F7F7"/>
        <path d="M 47.7595,2.5527 L 49.0385,2.5527 L 49.0385,4.0114 L 46.9021,4.0114 L 46.9021,3.6608 L 46.9162,3.6327 L 46.9162,3.5906 L 46.9302,3.5486 L 46.9302,3.5065 L 46.9584,3.4223 L 46.9724,3.3662 L 46.9865,3.3242 L 47.0146,3.2821 L 47.0286,3.2260 L 47.0567,3.1839 L 47.0849,3.1278 L 47.0989,3.0857 L 47.1270,3.0296 L 47.1551,2.9875 L 47.1832,2.9314 L 47.2254,2.8894 L 47.2816,2.8052 L 47.3238,2.7631 L 47.3660,2.7351 L 47.3941,2.6930 L 47.5206,2.6088 L 47.5627,2.5948 L 47.6189,2.5808 L 47.7033,2.5527 L 47.7595,2.5527 Z" stroke="#F7F7F7" stroke-width="0.1200" stroke-linecap="round" stroke-linejoin="round" fill="#F7F7F7"/>
        <path d="M 36.1359,4.7268 L 20.0849,4.7268 L 20.0849,8.9065 L 36.1359,8.9065 " stroke="#FF0000" stroke-width="0.1200" stroke-linecap="round" stroke-linejoin="round" fill="none"/>
        <path d="M 19.8459,9.7340 L 25.7491,9.7340 " stroke="#FF0000" stroke-width="0.1200" stroke-linecap="round" stroke-linejoin="round" fill="none"/>
        <path d="M 30.4154,9.7340 L 36.3186,9.7340 " stroke="#FF0000" stroke-width="0.1200" stroke-linecap="round" stroke-linejoin="round" fill="none"/>
        <path d="M 12.2983,8.5278 L 12.2983,8.4857 L 12.2702,8.4577 L 12.2561,8.4296 L 12.1718,8.3735 L 12.0593,8.3455 L 11.9469,8.3455 L 11.8345,8.3735 L 11.7501,8.4296 L 11.7361,8.4577 L 11.7080,8.4857 L 11.7080,8.5699 L 11.7361,8.6119 L 11.7501,8.6400 L 11.8345,8.6961 L 11.9469,8.7242 L 12.0593,8.7242 L 12.1718,8.6961 L 12.2561,8.6400 L 12.2702,8.6119 L 12.2983,8.5699 L 12.2983,8.5278 Z" stroke="#FFFF00" stroke-width="0.1200" stroke-linecap="round" stroke-linejoin="round" fill="#FFFF00"/>
        <path d="M 14.6314,8.5278 L 14.6314,8.4857 L 14.6033,8.4577 L 14.5893,8.4296 L 14.5049,8.3735 L 14.4628,8.3595 L 14.4066,8.3455 L 14.2941,8.3455 L 14.1817,8.3735 L 14.0973,8.4296 L 14.0833,8.4577 L 14.0552,8.4857 L 14.0552,8.5699 L 14.0833,8.6119 L 14.0973,8.6400 L 14.1817,8.6961 L 14.2238,8.7101 L 14.2801,8.7242 L 14.3925,8.7242 L 14.5049,8.6961 L 14.5893,8.6400 L 14.6033,8.6119 L 14.6314,8.5699 L 14.6314,8.5278 Z" stroke="#FFFF00" stroke-width="0.1200" stroke-linecap="round" stroke-linejoin="round" fill="#FFFF00"/>
        <path d="M 14.3363,8.2473 L 14.3363,8.1351 " stroke="#FFFF00" stroke-width="0.1200" stroke-linecap="round" stroke-linejoin="round" fill="none"/>
        <path d="M 14.3363,8.2473 L 14.3363,8.1351 " stroke="#FFFF00" stroke-width="0.1200" stroke-linecap="round" stroke-linejoin="round" fill="none"/>
        <path d="M 14.2098,8.2613 L 14.1817,8.1491 " stroke="#FFFF00" stroke-width="0.1200" stroke-linecap="round" stroke-linejoin="round" fill="none"/>
        <path d="M 14.0833,8.3174 L 14.0552,8.2052 " stroke="#FFFF00" stroke-width="0.1200" stroke-linecap="round" stroke-linejoin="round" fill="none"/>
        <path d="M 14.4628,8.2613 L 14.4909,8.1491 " stroke="#FFFF00" stroke-width="0.1200" stroke-linecap="round" stroke-linejoin="round" fill="none"/>
        <path d="M 14.5893,8.3174 L 14.6174,8.2052 " stroke="#FFFF00" stroke-width="0.1200" stroke-linecap="round" stroke-linejoin="round" fill="none"/>
        <path d="M 12.2983,9.7340 L 12.2983,9.6919 L 12.2702,9.6639 L 12.2561,9.6358 L 12.1718,9.5797 L 12.0593,9.5517 L 11.9469,9.5517 L 11.8345,9.5797 L 11.7501,9.6358 L 11.7361,9.6639 L 11.7080,9.6919 L 11.7080,9.7761 L 11.7361,9.8182 L 11.7501,9.8462 L 11.8345,9.9023 L 11.9469,9.9304 L 12.0593,9.9304 L 12.1718,9.9023 L 12.2561,9.8462 L 12.2702,9.8182 L 12.2983,9.7761 L 12.2983,9.7340 Z" stroke="#007F00" stroke-width="0.1200" stroke-linecap="round" stroke-linejoin="round" fill="#007F00"/>
        <path d="M 14.6314,9.7340 L 14.6314,9.6919 L 14.6033,9.6639 L 14.5893,9.6358 L 14.5049,9.5797 L 14.3925,9.5517 L 14.2801,9.5517 L 14.1676,9.5797 L 14.0833,9.6358 L 14.0692,9.6639 L 14.0411,9.6919 L 14.0411,9.7761 L 14.0692,9.8182 L 14.0833,9.8462 L 14.1676,9.9023 L 14.2801,9.9304 L 14.3925,9.9304 L 14.5049,9.9023 L 14.5893,9.8462 L 14.6033,9.8182 L 14.6314,9.7761 L 14.6314,9.7340 Z" stroke="#007F00" stroke-width="0.1200" stroke-linecap="round" stroke-linejoin="round" fill="#007F00"/>
        <path d="M 14.3363,9.4535 L 14.3363,9.3413 " stroke="#007F00" stroke-width="0.1200" stroke-linecap="round" stroke-linejoin="round" fill="none"/>
        <path d="M 14.2098,9.4675 L 14.1817,9.3553 " stroke="#007F00" stroke-width="0.1200" stroke-linecap="round" stroke-linejoin="round" fill="none"/>
        <path d="M 14.0833,9.5236 L 14.0552,9.4114 " stroke="#007F00" stroke-width="0.1200" stroke-linecap="round" stroke-linejoin="round" fill="none"/>
        <path d="M 14.4628,9.4675 L 14.4909,9.3553 " stroke="#007F00" stroke-width="0.1200" stroke-linecap="round" stroke-linejoin="round" fill="none"/>
        <path d="M 14.5893,9.5236 L 14.6174,9.4114 " stroke="#007F00" stroke-width="0.1200" stroke-linecap="round" stroke-linejoin="round" fill="none"/>
        <path d="M 7.7585,5.8629 L 7.7585,5.3018 L 9.1921,5.3018 " stroke="#000000" stroke-width="0.1200" stroke-linecap="round" stroke-linejoin="round" fill="none"/>
        <path d="M 12.0031,5.8629 L 12.0031,5.3018 L 10.5695,5.3018 " stroke="#000000" stroke-width="0.1200" stroke-linecap="round" stroke-linejoin="round" fill="none"/>
        <path d="M 14.4768,8.5979 L 14.2238,8.5979 " stroke="#A4DB6D" stroke-width="0.1200" stroke-linecap="round" stroke-linejoin="round" fill="none"/>
        <path d="M 14.4768,9.8042 L 14.2238,9.8042 " stroke="#A4DB6D" stroke-width="0.1200" stroke-linecap="round" stroke-linejoin="round" fill="none"/>
        <path d="M 1.4825,2.1695 L 1.4629,2.1695 L 1.4531,2.1600 L 1.4433,2.1600 L 1.4138,2.1315 L 1.4138,2.1219 L 1.4040,2.1124 L 1.4040,1.0086 L 1.4138,0.9991 L 1.4138,0.9896 L 1.4236,0.9801 L 1.4335,0.9801 L 1.4335,0.9706 L 1.4433,0.9611 L 1.4531,0.9611 L 1.4629,0.9515 L 2.7982,0.9515 L 2.8080,0.9611 L 2.8178,0.9611 L 2.8473,0.9896 L 2.8473,0.9991 L 2.8571,1.0086 L 2.8571,1.2275 L 2.8473,1.2275 L 2.8473,1.2180 L 2.8375,1.2180 L 2.8375,1.2085 L 2.8276,1.2085 L 2.8276,1.1989 L 2.8080,1.1989 L 2.8080,1.1894 L 1.7280,1.1894 L 1.7280,1.1989 L 1.7084,1.1989 L 1.7084,1.2085 L 1.6985,1.2085 L 1.6985,1.2275 L 1.6887,1.2275 L 1.6887,2.1315 L 1.6985,2.1315 L 1.6985,2.1505 L 1.7084,2.1505 L 1.7084,2.1600 L 1.7182,2.1600 L 1.7182,2.1695 L 1.4924,2.1695 L 1.4825,2.1695 Z" stroke="#000000" stroke-width="0.1200" stroke-linecap="round" stroke-linejoin="round" fill="#000000"/>
        <path d="M 2.7589,1.4654 L 1.7869,1.4654 L 1.7869,1.4559 L 1.7673,1.4559 L 1.7673,1.4463 L 1.7575,1.4463 L 1.7575,1.4273 L 1.7476,1.4273 L 1.7476,1.6652 L 1.7575,1.6652 L 1.7575,1.6842 L 1.7673,1.6842 L 1.7673,1.6937 L 1.7869,1.6937 L 1.7869,1.7033 L 2.7785,1.7033 L 2.7982,1.6842 L 2.8080,1.6842 L 2.8276,1.6652 L 2.8276,1.6557 L 2.8375,1.6462 L 2.8375,1.6367 L 2.8473,1.6271 L 2.8473,1.6081 L 2.8571,1.5986 L 2.8571,1.5700 L 2.8473,1.5605 L 2.8473,1.5320 L 2.8276,1.5130 L 2.8276,1.5034 L 2.8178,1.4939 L 2.8080,1.4939 L 2.8080,1.4844 L 2.7982,1.4844 L 2.7884,1.4749 L 2.7785,1.4749 L 2.7687,1.4654 L 2.7589,1.4654 Z" stroke="#000000" stroke-width="0.1200" stroke-linecap="round" stroke-linejoin="round" fill="#000000"/>
        <path d="M 5.0269,1.7033 L 5.0073,1.7033 L 5.0073,1.6937 L 4.9876,1.6937 L 4.9876,1.6842 L 4.9778,1.6842 L 4.9778,1.6652 L 4.9680,1.6652 L 4.9680,1.4273 L 4.9778,1.4273 L 4.9778,1.4463 L 4.9876,1.4463 L 4.9876,1.4559 L 5.0073,1.4559 L 5.0073,1.4654 L 5.7927,1.4654 L 5.7927,1.1894 L 4.9484,1.1894 L 4.9484,1.1989 L 4.9287,1.1989 L 4.9287,1.2085 L 4.9189,1.2085 L 4.9189,1.2275 L 4.9091,1.2275 L 4.9091,2.1315 L 4.9189,2.1315 L 4.9189,2.1505 L 4.9287,2.1505 L 4.9287,2.1600 L 4.9385,2.1600 L 4.9385,2.1695 L 4.6833,2.1695 L 4.6735,2.1600 L 4.6636,2.1600 L 4.6342,2.1315 L 4.6342,2.1219 L 4.6244,2.1124 L 4.6244,1.0086 L 4.6342,0.9991 L 4.6342,0.9896 L 4.6440,0.9801 L 4.6538,0.9801 L 4.6538,0.9706 L 4.6636,0.9611 L 4.6735,0.9611 L 4.6833,0.9515 L 6.0185,0.9515 L 6.0284,0.9611 L 6.0382,0.9611 L 6.0676,0.9896 L 6.0676,0.9991 L 6.0775,1.0086 L 6.0775,1.6081 L 6.0676,1.6176 L 6.0676,1.6367 L 6.0578,1.6367 L 6.0578,1.6462 L 6.0480,1.6557 L 6.0480,1.6652 L 6.0382,1.6652 L 6.0382,1.6747 L 6.0284,1.6747 L 6.0284,1.6842 L 6.0185,1.6842 L 6.0185,1.6937 L 6.0087,1.6937 L 5.9989,1.7033 L 6.0087,1.7128 L 6.0185,1.7128 L 6.0185,1.7223 L 6.0284,1.7223 L 6.0284,1.7318 L 6.0382,1.7318 L 6.0382,1.7413 L 6.0480,1.7413 L 6.0480,1.7508 L 6.0578,1.7604 L 6.0578,1.7699 L 6.0676,1.7699 L 6.0676,1.7889 L 6.0775,1.7984 L 6.0775,2.1315 L 6.0873,2.1315 L 6.0873,2.1505 L 6.0971,2.1505 L 6.0971,2.1600 L 6.1069,2.1600 L 6.1069,2.1695 L 5.8516,2.1695 L 5.8418,2.1600 L 5.8320,2.1600 L 5.8025,2.1315 L 5.8025,2.1219 L 5.7927,2.1124 L 5.7927,1.7033 L 5.0367,1.7033 L 5.0269,1.7033 Z" stroke="#000000" stroke-width="0.1200" stroke-linecap="round" stroke-linejoin="round" fill="#000000"/>
        <path d="M 6.5880,1.1894 L 6.2935,1.1894 L 6.2836,1.1799 L 6.2738,1.1799 L 6.2444,1.1514 L 6.2444,1.1419 L 6.2345,1.1323 L 6.2345,1.0086 L 6.2444,0.9991 L 6.2444,0.9896 L 6.2542,0.9801 L 6.2640,0.9801 L 6.2640,0.9706 L 6.2738,0.9611 L 6.2836,0.9611 L 6.2935,0.9515 L 7.6287,0.9515 L 7.6385,0.9611 L 7.6484,0.9611 L 7.6778,0.9896 L 7.6778,0.9991 L 7.6876,1.0086 L 7.6876,1.2275 L 7.6778,1.2275 L 7.6778,1.2180 L 7.6680,1.2180 L 7.6680,1.2085 L 7.6582,1.2085 L 7.6582,1.1989 L 7.6385,1.1989 L 7.6385,1.1894 L 6.9120,1.1894 L 6.9120,1.1989 L 6.8924,1.1989 L 6.8924,1.2085 L 6.8825,1.2085 L 6.8825,1.2275 L 6.8727,1.2275 L 6.8727,2.1315 L 6.8825,2.1315 L 6.8825,2.1505 L 6.8924,2.1505 L 6.8924,2.1600 L 6.9022,2.1600 L 6.9022,2.1695 L 6.6469,2.1695 L 6.6371,2.1600 L 6.6273,2.1600 L 6.5978,2.1315 L 6.5978,2.1219 L 6.5880,2.1124 L 6.5880,1.2180 L 6.5880,1.1894 Z" stroke="#000000" stroke-width="0.1200" stroke-linecap="round" stroke-linejoin="round" fill="#000000"/>
        <path d="M 8.1295,2.1029 L 8.1295,2.1315 L 8.1393,2.1315 L 8.1393,2.1505 L 8.1491,2.1505 L 8.1491,2.1600 L 8.1589,2.1600 L 8.1589,2.1695 L 7.9036,2.1695 L 7.8938,2.1600 L 7.8840,2.1600 L 7.8545,2.1315 L 7.8545,2.1219 L 7.8447,2.1124 L 7.8447,0.9896 L 7.8349,0.9896 L 7.8349,0.9706 L 7.8251,0.9706 L 7.8251,0.9611 L 7.8153,0.9611 L 7.8153,0.9515 L 8.0705,0.9515 L 8.0804,0.9611 L 8.0902,0.9611 L 8.1196,0.9896 L 8.1196,0.9991 L 8.1295,1.0086 L 8.1295,2.0934 L 8.1295,2.1029 Z" stroke="#000000" stroke-width="0.1200" stroke-linecap="round" stroke-linejoin="round" fill="#000000"/>
        <path d="M 9.5236,1.1894 L 8.6793,1.1894 L 8.6793,1.1989 L 8.6596,1.1989 L 8.6596,1.2085 L 8.6498,1.2085 L 8.6498,1.2275 L 8.6400,1.2275 L 8.6400,2.1315 L 8.6498,2.1315 L 8.6498,2.1505 L 8.6596,2.1505 L 8.6596,2.1600 L 8.6695,2.1600 L 8.6695,2.1695 L 8.4142,2.1695 L 8.4044,2.1600 L 8.3945,2.1600 L 8.3651,2.1315 L 8.3651,2.1219 L 8.3553,2.1124 L 8.3553,1.0086 L 8.3651,0.9991 L 8.3651,0.9896 L 8.3749,0.9801 L 8.3847,0.9801 L 8.3847,0.9706 L 8.3945,0.9611 L 8.4044,0.9611 L 8.4142,0.9515 L 9.7495,0.9515 L 9.7593,0.9611 L 9.7691,0.9611 L 9.7985,0.9896 L 9.7985,0.9991 L 9.8084,1.0086 L 9.8084,2.1315 L 9.8182,2.1315 L 9.8182,2.1505 L 9.8280,2.1505 L 9.8280,2.1600 L 9.8378,2.1600 L 9.8378,2.1695 L 9.5825,2.1695 L 9.5727,2.1600 L 9.5629,2.1600 L 9.5335,2.1315 L 9.5335,2.1219 L 9.5236,2.1124 L 9.5236,1.2180 L 9.5236,1.1894 Z" stroke="#000000" stroke-width="0.1200" stroke-linecap="round" stroke-linejoin="round" fill="#000000"/>
        <path d="M 11.2516,1.4654 L 10.3484,1.4654 L 10.3385,1.4559 L 10.3287,1.4559 L 10.3287,1.4463 L 10.3189,1.4463 L 10.3189,1.4273 L 10.3091,1.4273 L 10.3091,1.6652 L 10.3189,1.6652 L 10.3189,1.6842 L 10.3287,1.6842 L 10.3287,1.6937 L 10.3385,1.6937 L 10.3484,1.7033 L 11.2615,1.7033 L 11.2811,1.6842 L 11.2909,1.6842 L 11.3105,1.6652 L 11.3105,1.6557 L 11.3204,1.6462 L 11.3204,1.6367 L 11.3302,1.6271 L 11.3302,1.6081 L 11.3400,1.5986 L 11.3400,1.5605 L 11.3302,1.5510 L 11.3302,1.5225 L 11.3204,1.5225 L 11.3204,1.5130 L 11.2909,1.4844 L 11.2811,1.4844 L 11.2811,1.4749 L 11.2713,1.4749 L 11.2615,1.4654 L 11.2516,1.4654 Z" stroke="#000000" stroke-width="0.1200" stroke-linecap="round" stroke-linejoin="round" fill="#000000"/>
        <path d="M 11.9291,1.1894 L 11.6345,1.1894 L 11.6247,1.1799 L 11.6149,1.1799 L 11.5855,1.1514 L 11.5855,1.1419 L 11.5756,1.1323 L 11.5756,1.0086 L 11.5855,0.9991 L 11.5855,0.9896 L 11.5953,0.9801 L 11.6051,0.9801 L 11.6051,0.9706 L 11.6149,0.9611 L 11.6247,0.9611 L 11.6345,0.9515 L 12.9698,0.9515 L 12.9796,0.9611 L 12.9895,0.9611 L 13.0189,0.9896 L 13.0189,0.9991 L 13.0287,1.0086 L 13.0287,1.2275 L 13.0189,1.2275 L 13.0189,1.2180 L 13.0091,1.2180 L 13.0091,1.2085 L 12.9993,1.2085 L 12.9993,1.1989 L 12.9796,1.1989 L 12.9796,1.1894 L 12.2531,1.1894 L 12.2531,1.1989 L 12.2335,1.1989 L 12.2335,1.2085 L 12.2236,1.2085 L 12.2236,1.2275 L 12.2138,1.2275 L 12.2138,2.1315 L 12.2236,2.1315 L 12.2236,2.1505 L 12.2335,2.1505 L 12.2335,2.1600 L 12.2433,2.1600 L 12.2433,2.1695 L 11.9880,2.1695 L 11.9782,2.1600 L 11.9684,2.1600 L 11.9389,2.1315 L 11.9389,2.1219 L 11.9291,2.1124 L 11.9291,1.2180 L 11.9291,1.1894 Z" stroke="#000000" stroke-width="0.1200" stroke-linecap="round" stroke-linejoin="round" fill="#000000"/>
        <path d="M 11.3498,1.9316 L 11.3695,1.9316 L 11.3695,1.9221 L 11.3891,1.9221 L 11.3891,1.9126 L 11.3989,1.9126 L 11.3989,1.9031 L 11.4087,1.9031 L 11.4087,1.8936 L 11.4185,1.8936 L 11.4185,2.1124 L 11.4087,2.1219 L 11.4087,2.1315 L 11.3989,2.1410 L 11.3989,2.1505 L 11.3891,2.1505 L 11.3793,2.1600 L 11.3695,2.1600 L 11.3596,2.1695 L 10.0244,2.1695 L 10.0145,2.1600 L 10.0047,2.1600 L 9.9753,2.1315 L 9.9753,2.1219 L 9.9655,2.1124 L 9.9655,1.0086 L 9.9753,0.9991 L 9.9753,0.9896 L 9.9851,0.9801 L 9.9949,0.9801 L 9.9949,0.9706 L 10.0047,0.9611 L 10.0145,0.9611 L 10.0244,0.9515 L 11.3596,0.9515 L 11.3695,0.9611 L 11.3793,0.9611 L 11.4087,0.9896 L 11.4087,0.9991 L 11.4185,1.0086 L 11.4185,1.2275 L 11.4087,1.2275 L 11.4087,1.2180 L 11.3989,1.2180 L 11.3989,1.2085 L 11.3891,1.2085 L 11.3891,1.1989 L 11.3695,1.1989 L 11.3695,1.1894 L 10.2895,1.1894 L 10.2895,1.1989 L 10.2698,1.1989 L 10.2698,1.2085 L 10.2600,1.2085 L 10.2600,1.2275 L 10.2502,1.2275 L 10.2502,1.9316 L 11.3400,1.9316 L 11.3498,1.9316 Z" stroke="#000000" stroke-width="0.1200" stroke-linecap="round" stroke-linejoin="round" fill="#000000"/>
        <path d="M 3.5051,1.8174 L 3.5051,2.1695 L 3.9764,2.1695 L 3.9764,1.8174 L 3.5051,1.8174 Z" stroke="#ED3440" stroke-width="0.1200" stroke-linecap="round" stroke-linejoin="round" fill="#ED3440"/>
        <path d="M 3.0142,1.3893 L 3.4167,1.3893 L 3.4167,1.7318 L 3.0142,1.7318 L 3.0142,1.3893 Z" stroke="#ED3440" stroke-width="0.1200" stroke-linecap="round" stroke-linejoin="round" fill="#ED3440"/>
        <path d="M 4.0647,1.8174 L 4.0647,2.1695 L 4.2120,2.1695 L 4.2218,2.1600 L 4.2611,2.1600 L 4.2709,2.1505 L 4.2905,2.1505 L 4.3102,2.1410 L 4.3200,2.1315 L 4.3396,2.1219 L 4.3593,2.1029 L 4.3789,2.0934 L 4.3887,2.0839 L 4.3985,2.0648 L 4.4084,2.0553 L 4.4476,1.9792 L 4.4476,1.9602 L 4.4575,1.9316 L 4.4575,1.9031 L 4.4673,1.8745 L 4.4673,1.8174 L 4.0745,1.8174 L 4.0647,1.8174 Z" stroke="#ED3440" stroke-width="0.1200" stroke-linecap="round" stroke-linejoin="round" fill="#ED3440"/>
        <path d="M 4.0647,1.3893 L 4.4673,1.3893 L 4.4673,1.7318 L 4.0647,1.7318 L 4.0647,1.3893 Z" stroke="#ED3440" stroke-width="0.1200" stroke-linecap="round" stroke-linejoin="round" fill="#ED3440"/>
        <path d="M 3.4167,1.8174 L 3.4167,2.1695 L 3.2695,2.1695 L 3.2596,2.1600 L 3.2204,2.1600 L 3.2105,2.1505 L 3.1909,2.1505 L 3.1713,2.1410 L 3.1615,2.1315 L 3.1418,2.1219 L 3.1222,2.1029 L 3.1025,2.0934 L 3.0927,2.0839 L 3.0829,2.0648 L 3.0731,2.0553 L 3.0338,1.9792 L 3.0338,1.9602 L 3.0240,1.9316 L 3.0240,1.9031 L 3.0142,1.8745 L 3.0142,1.8174 L 3.4069,1.8174 L 3.4167,1.8174 Z" stroke="#ED3440" stroke-width="0.1200" stroke-linecap="round" stroke-linejoin="round" fill="#ED3440"/>
        <path d="M 3.5051,0.9515 L 3.5051,1.3036 L 3.9764,1.3036 L 3.9764,0.9515 L 3.5051,0.9515 Z" stroke="#ED3440" stroke-width="0.1200" stroke-linecap="round" stroke-linejoin="round" fill="#ED3440"/>
        <path d="M 4.0647,1.3036 L 4.0647,0.9515 L 4.2120,0.9515 L 4.2218,0.9611 L 4.2611,0.9611 L 4.2709,0.9706 L 4.2905,0.9706 L 4.3102,0.9801 L 4.3200,0.9896 L 4.3396,0.9991 L 4.3593,1.0181 L 4.3789,1.0277 L 4.3887,1.0372 L 4.3985,1.0562 L 4.4084,1.0657 L 4.4476,1.1419 L 4.4476,1.1609 L 4.4575,1.1894 L 4.4575,1.2180 L 4.4673,1.2465 L 4.4673,1.3036 L 4.0745,1.3036 L 4.0647,1.3036 Z" stroke="#ED3440" stroke-width="0.1200" stroke-linecap="round" stroke-linejoin="round" fill="#ED3440"/>
        <path d="M 3.4167,1.3036 L 3.4167,0.9515 L 3.2695,0.9515 L 3.2596,0.9611 L 3.2204,0.9611 L 3.2105,0.9706 L 3.1909,0.9706 L 3.1713,0.9801 L 3.1615,0.9896 L 3.1418,0.9991 L 3.1222,1.0181 L 3.1025,1.0277 L 3.0927,1.0372 L 3.0829,1.0562 L 3.0731,1.0657 L 3.0338,1.1419 L 3.0338,1.1609 L 3.0240,1.1894 L 3.0240,1.2180 L 3.0142,1.2465 L 3.0142,1.3036 L 3.4069,1.3036 L 3.4167,1.3036 Z" stroke="#ED3440" stroke-width="0.1200" stroke-linecap="round" stroke-linejoin="round" fill="#ED3440"/>
        <text font-family="Arial" fill="#000000" style="white-space:pre;" font-weight="400" text-anchor="start" x="3.7407" y="1.5259" font-size="0.0884"><![CDATA[®]]></text>
        <text font-family="Arial" fill="#000000" style="white-space:pre;" font-weight="400" text-anchor="start" x="1.7967" y="1.7672" font-size="0.1767"><![CDATA[FortiSwitch 80-POE]]></text>
        <text font-family="Arial" fill="#000000" style="white-space:pre;" font-weight="400" text-anchor="start" x="3.1615" y="2.1050" font-size="0.1080"><![CDATA[POE]]></text>
        <path d="M 2.7857,5.8556 L 2.2500,5.8556 L 2.2500,6.3916 L 2.7857,6.3916 L 2.7857,5.8556 Z" stroke="#000000" stroke-width="0.1200" stroke-linecap="round" stroke-linejoin="round" fill="#00FF00"/>
        <text font-family="Arial" fill="#000000" style="white-space:pre;" font-weight="400" text-anchor="start" x="3.1875" y="7.6631" font-size="0.1473"><![CDATA[POWER]]></text>
        <path d="M 2.7857,7.2089 L 2.2500,7.2089 L 2.2500,7.7449 L 2.7857,7.7449 L 2.7857,7.2089 Z" stroke="#000000" stroke-width="0.1200" stroke-linecap="round" stroke-linejoin="round" fill="#00FF00"/>
        <text font-family="Arial" fill="#000000" style="white-space:pre;" font-weight="400" text-anchor="start" x="3.1875" y="9.3380" font-size="0.1473"><![CDATA[POE MAX.]]></text>
        <path d="M 8.1295,5.9092 L 7.5938,5.9092 L 7.5938,6.4452 L 8.1295,6.4452 L 8.1295,5.9092 Z" stroke="#000000" stroke-width="0.1200" stroke-linecap="round" stroke-linejoin="round" fill="#00FF00"/>
        <path d="M 8.1295,7.2625 L 7.5938,7.2625 L 7.5938,7.7985 L 8.1295,7.7985 L 8.1295,7.2625 Z" stroke="#000000" stroke-width="0.1200" stroke-linecap="round" stroke-linejoin="round" fill="#00FF00"/>
        <text font-family="Arial" fill="#000000" style="white-space:pre;" font-weight="400" text-anchor="start" x="9.6161" y="9.2577" font-size="0.1473"><![CDATA[1]]></text>
        <path d="M 9.5357,5.9092 L 9.0000,5.9092 L 9.0000,6.4452 L 9.5357,6.4452 L 9.5357,5.9092 Z" stroke="#000000" stroke-width="0.1200" stroke-linecap="round" stroke-linejoin="round" fill="#00FF00"/>
        <path d="M 9.5357,7.2625 L 9.0000,7.2625 L 9.0000,7.7985 L 9.5357,7.7985 L 9.5357,7.2625 Z" stroke="#000000" stroke-width="0.1200" stroke-linecap="round" stroke-linejoin="round" fill="#00FF00"/>
        <text font-family="Arial" fill="#000000" style="white-space:pre;" font-weight="400" text-anchor="start" x="11.3571" y="9.2577" font-size="0.1473"><![CDATA[2]]></text>
        <path d="M 10.9420,5.9092 L 10.4062,5.9092 L 10.4062,6.4452 L 10.9420,6.4452 L 10.9420,5.9092 Z" stroke="#000000" stroke-width="0.1200" stroke-linecap="round" stroke-linejoin="round" fill="#00FF00"/>
        <path d="M 10.9420,7.2625 L 10.4062,7.2625 L 10.4062,7.7985 L 10.9420,7.7985 L 10.9420,7.2625 Z" stroke="#000000" stroke-width="0.1200" stroke-linecap="round" stroke-linejoin="round" fill="#00FF00"/>
        <text font-family="Arial" fill="#000000" style="white-space:pre;" font-weight="400" text-anchor="start" x="13.0982" y="9.2577" font-size="0.1473"><![CDATA[3]]></text>
        <path d="M 12.3482,5.9092 L 11.8125,5.9092 L 11.8125,6.4452 L 12.3482,6.4452 L 12.3482,5.9092 Z" stroke="#000000" stroke-width="0.1200" stroke-linecap="round" stroke-linejoin="round" fill="#00FF00"/>
        <path d="M 12.3482,7.2625 L 11.8125,7.2625 L 11.8125,7.7985 L 12.3482,7.7985 L 12.3482,7.2625 Z" stroke="#000000" stroke-width="0.1200" stroke-linecap="round" stroke-linejoin="round" fill="#00FF00"/>
        <text font-family="Arial" fill="#000000" style="white-space:pre;" font-weight="400" text-anchor="start" x="14.8393" y="9.2577" font-size="0.1473"><![CDATA[4]]></text>
        <path d="M 13.7545,7.2625 L 13.2188,7.2625 L 13.2188,7.7985 L 13.7545,7.7985 L 13.7545,7.2625 Z" stroke="#000000" stroke-width="0.1200" stroke-linecap="round" stroke-linejoin="round" fill="#00FF00"/>
        <text font-family="Arial" fill="#000000" style="white-space:pre;" font-weight="400" text-anchor="start" x="16.5804" y="9.2577" font-size="0.1473"><![CDATA[5]]></text>
        <path d="M 15.1607,7.2625 L 14.6250,7.2625 L 14.6250,7.7985 L 15.1607,7.7985 L 15.1607,7.2625 Z" stroke="#000000" stroke-width="0.1200" stroke-linecap="round" stroke-linejoin="round" fill="#00FF00"/>
        <text font-family="Arial" fill="#000000" style="white-space:pre;" font-weight="400" text-anchor="start" x="18.3214" y="9.2577" font-size="0.1473"><![CDATA[6]]></text>
        <path d="M 16.5670,7.2625 L 16.0312,7.2625 L 16.0312,7.7985 L 16.5670,7.7985 L 16.5670,7.2625 Z" stroke="#000000" stroke-width="0.1200" stroke-linecap="round" stroke-linejoin="round" fill="#00FF00"/>
        <text font-family="Arial" fill="#000000" style="white-space:pre;" font-weight="400" text-anchor="start" x="20.0625" y="9.2577" font-size="0.1473"><![CDATA[7]]></text>
        <path d="M 17.9732,7.2625 L 17.4375,7.2625 L 17.4375,7.7985 L 17.9732,7.7985 L 17.9732,7.2625 Z" stroke="#000000" stroke-width="0.1200" stroke-linecap="round" stroke-linejoin="round" fill="#00FF00"/>
        <text font-family="Arial" fill="#000000" style="white-space:pre;" font-weight="400" text-anchor="start" x="21.8036" y="9.2577" font-size="0.1473"><![CDATA[8]]></text>
        <text font-family="Arial" fill="#000000" style="white-space:pre;" font-weight="400" text-anchor="start" x="19.9152" y="9.6087" font-size="0.1205"><![CDATA[10/100M]]></text>
        <text font-family="Arial" fill="#000000" style="white-space:pre;" font-weight="400" text-anchor="start" x="20.0089" y="9.9035" font-size="0.1205"><![CDATA[1000M]]></text>
        <text font-family="Arial" fill="#000000" style="white-space:pre;" font-weight="400" text-anchor="start" x="20.6250" y="9.6087" font-size="0.1205"><![CDATA[LINK]]></text>
        <text font-family="Arial" fill="#000000" style="white-space:pre;" font-weight="400" text-anchor="start" x="20.6250" y="9.9035" font-size="0.1205"><![CDATA[LINK]]></text>
        <text font-family="Arial" fill="#000000" style="white-space:pre;" font-weight="400" text-anchor="start" x="21.1607" y="9.9035" font-size="0.1205"><![CDATA[ACT]]></text>
        <text font-family="Arial" fill="#000000" style="white-space:pre;" font-weight="400" text-anchor="start" x="21.1607" y="9.6087" font-size="0.1205"><![CDATA[ACT]]></text>
        <text font-family="Arial" fill="#000000" style="white-space:pre;" font-weight="400" text-anchor="start" x="22.8750" y="8.5207" font-size="0.1473"><![CDATA[1]]></text>
        <text font-family="Arial" fill="#000000" style="white-space:pre;" font-weight="400" text-anchor="start" x="23.8393" y="8.5207" font-size="0.1473"><![CDATA[2]]></text>
        <text font-family="Arial" fill="#000000" style="white-space:pre;" font-weight="400" text-anchor="start" x="24.8036" y="8.5207" font-size="0.1473"><![CDATA[3]]></text>
        <text font-family="Arial" fill="#000000" style="white-space:pre;" font-weight="400" text-anchor="start" x="25.7679" y="8.5207" font-size="0.1473"><![CDATA[4]]></text>
        <text font-family="Arial" fill="#000000" style="white-space:pre;" font-weight="400" text-anchor="start" x="26.6652" y="8.5207" font-size="0.1473"><![CDATA[5]]></text>
        <text font-family="Arial" fill="#000000" style="white-space:pre;" font-weight="400" text-anchor="start" x="27.5625" y="8.5207" font-size="0.1473"><![CDATA[6]]></text>
        <text font-family="Arial" fill="#000000" style="white-space:pre;" font-weight="400" text-anchor="start" x="28.4598" y="8.5207" font-size="0.1473"><![CDATA[7]]></text>
        <text font-family="Arial" fill="#000000" style="white-space:pre;" font-weight="400" text-anchor="start" x="29.3705" y="8.5207" font-size="0.1473"><![CDATA[8]]></text>
        <text font-family="Arial" fill="#FF0000" style="white-space:pre;" font-weight="400" text-anchor="start" x="23.9196" y="9.9142" font-size="0.1473"><![CDATA[POE PORTS]]></text>
        <path d="M 20.4140,5.4555 L 20.4140,7.5794 L 21.3070,7.5794 L 21.3070,8.0792 L 21.6698,8.0792 L 21.6698,8.5789 L 22.7302,8.5789 L 22.7302,8.0792 L 23.0930,8.0792 L 23.0930,7.5794 L 23.9860,7.5794 L 23.9860,5.4555 L 20.4140,5.4555 Z" stroke="#161616" stroke-width="0.1200" stroke-linecap="round" stroke-linejoin="round" fill="#000000"/>
        <path d="M 24.4744,5.4555 L 24.4744,7.5794 L 25.3674,7.5794 L 25.3674,8.0792 L 25.7302,8.0792 L 25.7302,8.5789 L 26.7907,8.5789 L 26.7907,8.0792 L 27.1535,8.0792 L 27.1535,7.5794 L 28.0465,7.5794 L 28.0465,5.4555 L 24.4744,5.4555 Z" stroke="#161616" stroke-width="0.1200" stroke-linecap="round" stroke-linejoin="round" fill="#000000"/>
        <path d="M 28.5209,5.4555 L 28.5209,7.5794 L 29.4140,7.5794 L 29.4140,8.0792 L 29.7767,8.0792 L 29.7767,8.5789 L 30.8372,8.5789 L 30.8372,8.0792 L 31.2000,8.0792 L 31.2000,7.5794 L 32.0930,7.5794 L 32.0930,5.4555 L 28.5209,5.4555 Z" stroke="#161616" stroke-width="0.1200" stroke-linecap="round" stroke-linejoin="round" fill="#000000"/>
        <path d="M 32.5674,5.4555 L 32.5674,7.5794 L 33.4605,7.5794 L 33.4605,8.0792 L 33.8233,8.0792 L 33.8233,8.5789 L 34.8837,8.5789 L 34.8837,8.0792 L 35.2465,8.0792 L 35.2465,7.5794 L 36.1395,7.5794 L 36.1395,5.4555 L 32.5674,5.4555 Z" stroke="#161616" stroke-width="0.1200" stroke-linecap="round" stroke-linejoin="round" fill="#000000"/>
        <path d="M 36.6140,5.4555 L 36.6140,7.5794 L 37.5070,7.5794 L 37.5070,8.0792 L 37.8698,8.0792 L 37.8698,8.5789 L 38.9302,8.5789 L 38.9302,8.0792 L 39.2930,8.0792 L 39.2930,7.5794 L 40.1860,7.5794 L 40.1860,5.4555 L 36.6140,5.4555 Z" stroke="#161616" stroke-width="0.1200" stroke-linecap="round" stroke-linejoin="round" fill="#000000"/>
        <path d="M 40.6744,5.4555 L 40.6744,7.5794 L 41.5674,7.5794 L 41.5674,8.0792 L 41.9302,8.0792 L 41.9302,8.5789 L 42.9907,8.5789 L 42.9907,8.0792 L 43.3535,8.0792 L 43.3535,7.5794 L 44.2465,7.5794 L 44.2465,5.4555 L 40.6744,5.4555 Z" stroke="#161616" stroke-width="0.1200" stroke-linecap="round" stroke-linejoin="round" fill="#000000"/>
        <path d="M 44.7209,5.4555 L 44.7209,7.5794 L 45.6140,7.5794 L 45.6140,8.0792 L 45.9767,8.0792 L 45.9767,8.5789 L 47.0372,8.5789 L 47.0372,8.0792 L 47.4000,8.0792 L 47.4000,7.5794 L 48.2930,7.5794 L 48.2930,5.4555 L 44.7209,5.4555 Z" stroke="#161616" stroke-width="0.1200" stroke-linecap="round" stroke-linejoin="round" fill="#000000"/>
        <path d="M 48.7674,5.4555 L 48.7674,7.5794 L 49.6605,7.5794 L 49.6605,8.0792 L 50.0233,8.0792 L 50.0233,8.5789 L 51.0837,8.5789 L 51.0837,8.0792 L 51.4465,8.0792 L 51.4465,7.5794 L 52.3395,7.5794 L 52.3395,5.4555 L 48.7674,5.4555 Z" stroke="#161616" stroke-width="0.1200" stroke-linecap="round" stroke-linejoin="round" fill="#000000"/>
      </g>
      <!--emf-blob end-->
    </g>
  </g>
</svg>
