<svg xmlns="http://www.w3.org/2000/svg" xmlns:xlink="http://www.w3.org/1999/xlink" version="1.1" width="3.5976000000" height="2.4692000000" viewBox="0 0 64.7579 44.4452">
  <title><![CDATA[FSW-28C (F)]]></title>
  <g transform=" scale(4.000000) ">
    <!--converted by libvisio2svg-->
    <g transform=" translate(1.920700,0.720000) ">
      <!--emf-blob start-->
      <g transform="translate(-0.0000, -0.0000)">
        <path d="M 28.0056,3.3403 L 28.0056,4.4299 L 28.8268,4.4299 " stroke="#000000" stroke-width="0.1202" stroke-linecap="round" stroke-linejoin="round" fill="none"/>
        <path d="M 28.8268,3.3403 L 30.4474,3.3403 " stroke="#000000" stroke-width="0.1202" stroke-linecap="round" stroke-linejoin="round" fill="none"/>
        <path d="M 29.6263,3.3403 L 29.6263,4.4299 " stroke="#000000" stroke-width="0.1202" stroke-linecap="round" stroke-linejoin="round" fill="none"/>
        <path d="M 30.8580,3.3403 L 30.8580,4.4299 " stroke="#000000" stroke-width="0.1202" stroke-linecap="round" stroke-linejoin="round" fill="none"/>
        <path d="M 30.8580,3.3403 L 30.8580,4.4299 " stroke="#000000" stroke-width="0.1202" stroke-linecap="round" stroke-linejoin="round" fill="none"/>
        <path d="M 31.6576,4.4299 L 31.6576,3.3403 L 32.4787,4.4299 L 33.2999,3.3403 L 33.2999,4.4299 " stroke="#000000" stroke-width="0.1202" stroke-linecap="round" stroke-linejoin="round" fill="none"/>
        <path d="M 33.6888,4.4299 L 34.5100,3.3403 L 35.3311,4.4299 " stroke="#000000" stroke-width="0.1202" stroke-linecap="round" stroke-linejoin="round" fill="none"/>
        <path d="M 33.9049,4.1575 L 35.1150,4.1575 " stroke="#000000" stroke-width="0.1202" stroke-linecap="round" stroke-linejoin="round" fill="none"/>
        <path d="M 25.5638,4.4299 L 26.3849,3.3403 L 27.2061,4.4299 " stroke="#000000" stroke-width="0.1202" stroke-linecap="round" stroke-linejoin="round" fill="none"/>
        <path d="M 25.7798,4.1575 L 26.9900,4.1575 " stroke="#000000" stroke-width="0.1202" stroke-linecap="round" stroke-linejoin="round" fill="none"/>
        <path d="M 60.4946,0.0280 L 0.0281,0.0280 L 0.0281,7.2410 L 60.4946,7.2410 L 60.4946,0.0280 Z" stroke="#000000" stroke-width="0.1202" stroke-linecap="round" stroke-linejoin="round" fill="#EDEDED"/>
        <path d="M 4.9217,7.2410 L 0.0281,7.2410 L 0.0281,0.0280 L 4.9217,0.0280 L 4.9217,7.2410 Z" stroke-width="1px" stroke="#E8E8E8" fill="#E8E8E8"/>
        <path d="M 4.0780,7.2410 L 0.0562,7.2410 L 0.0562,0.0280 L 4.0780,0.0280 L 4.0780,7.2410 Z" stroke-width="1px" stroke="#E2E2E2" fill="#E2E2E2"/>
        <path d="M 2.9811,7.2410 L 0.0562,7.2410 L 0.0562,0.0280 L 2.9811,0.0280 L 2.9811,7.2410 Z" stroke-width="1px" stroke="#DDDDDD" fill="#DDDDDD"/>
        <path d="M 1.7718,7.2410 L 0.0281,7.2410 L 0.0281,0.0280 L 1.7718,0.0280 L 1.7718,7.2410 Z" stroke-width="1px" stroke="#D8D8D8" fill="#D8D8D8"/>
        <path d="M 0.0281,7.2410 L 0.2531,7.2969 L 0.6469,7.4367 L 0.8156,7.5066 L 0.9703,7.5765 L 1.2515,7.7163 L 1.3640,7.7862 L 1.4765,7.8700 L 1.5749,7.9399 L 1.8140,8.1776 L 1.8843,8.2615 L 2.0530,8.5131 L 2.1093,8.5830 L 2.1655,8.6668 L 2.2077,8.7507 L 2.3765,9.0023 L 2.4327,9.0722 L 2.5733,9.2400 L 2.6437,9.3099 L 2.7280,9.3798 L 2.8265,9.4636 L 2.9249,9.5335 L 3.0374,9.6034 L 3.1639,9.6733 L 4.2748,9.6733 L 4.2889,9.6873 L 4.3030,9.6873 L 4.3170,9.7013 L 4.3311,9.7013 L 4.3592,9.7292 L 4.4155,9.7572 L 4.4295,9.7712 L 4.4858,9.7991 L 4.5139,9.8271 L 4.5701,9.8550 L 4.5842,9.8690 L 4.6123,9.8830 L 4.6405,9.9110 L 4.6967,9.9389 L 4.7108,9.9529 L 4.7670,9.9808 L 4.7951,10.0088 L 4.8092,10.0088 L 4.8233,10.0228 L 4.8373,10.0228 L 4.8514,10.0368 L 11.8824,10.0368 L 11.8824,10.0228 L 11.8964,10.0228 L 11.9246,10.0088 L 11.9386,10.0088 L 12.0792,9.9389 L 12.1214,9.9249 L 12.1496,9.9110 L 12.1917,9.8830 L 12.2199,9.8690 L 12.3042,9.8411 L 12.3324,9.8271 L 12.3745,9.7991 L 12.4027,9.7851 L 12.4449,9.7712 L 12.5855,9.7013 L 12.5995,9.7013 L 12.6277,9.6873 L 12.6417,9.6873 L 12.6417,9.6733 L 47.8810,9.6733 L 47.8810,9.6873 L 47.8951,9.6873 L 47.9232,9.7013 L 47.9373,9.7013 L 48.0779,9.7712 L 48.1201,9.7851 L 48.1482,9.7991 L 48.1904,9.8271 L 48.2185,9.8411 L 48.3029,9.8690 L 48.3310,9.8830 L 48.3732,9.9110 L 48.4013,9.9249 L 48.4435,9.9389 L 48.5841,10.0088 L 48.5982,10.0088 L 48.6263,10.0228 L 48.6404,10.0228 L 48.6404,10.0368 L 55.6714,10.0368 L 55.6854,10.0228 L 55.6995,10.0228 L 55.7136,10.0088 L 55.7276,10.0088 L 55.7558,9.9808 L 55.8120,9.9529 L 55.8261,9.9389 L 55.8823,9.9110 L 55.9104,9.8830 L 55.9667,9.8550 L 55.9807,9.8411 L 56.0089,9.8271 L 56.0370,9.7991 L 56.0932,9.7712 L 56.1073,9.7572 L 56.1636,9.7292 L 56.1917,9.7013 L 56.2057,9.7013 L 56.2198,9.6873 L 56.2339,9.6873 L 56.2479,9.6733 L 57.3588,9.6733 L 57.4854,9.6034 L 57.5979,9.5335 L 57.6963,9.4636 L 57.7947,9.3798 L 57.8791,9.3099 L 57.9494,9.2400 L 58.0900,9.0722 L 58.1463,9.0023 L 58.3150,8.7507 L 58.3572,8.6668 L 58.4135,8.5830 L 58.4697,8.5131 L 58.6385,8.2615 L 58.7088,8.1776 L 58.9478,7.9399 L 59.0463,7.8700 L 59.1588,7.7862 L 59.2712,7.7163 L 59.5525,7.5765 L 59.7072,7.5066 L 59.8759,7.4367 L 60.2696,7.2969 L 60.4946,7.2410 L 0.1969,7.2410 L 0.0281,7.2410 Z" stroke="#000000" stroke-width="0.1202" stroke-linecap="round" stroke-linejoin="round" fill="#EFEFEF"/>
        <path d="M 60.4946,0.0280 L 0.0281,0.0280 L 0.0281,7.2410 L 60.4946,7.2410 L 60.4946,0.0280 Z" stroke="#000000" stroke-width="0.1202" stroke-linecap="round" stroke-linejoin="round" fill="none"/>
        <path d="M 55.9104,7.2410 L 60.8603,7.2410 L 60.8603,0.0280 L 55.9104,0.0280 L 55.9104,7.2410 Z" stroke-width="1px" stroke="#E8E8E8" fill="#E8E8E8"/>
        <path d="M 56.7823,7.2410 L 60.8603,7.2410 L 60.8603,0.0280 L 56.7823,0.0280 L 56.7823,7.2410 Z" stroke-width="1px" stroke="#E2E2E2" fill="#E2E2E2"/>
        <path d="M 57.8791,7.2410 L 60.8603,7.2410 L 60.8603,0.0280 L 57.8791,0.0280 L 57.8791,7.2410 Z" stroke-width="1px" stroke="#DDDDDD" fill="#DDDDDD"/>
        <path d="M 59.1166,7.2410 L 60.8603,7.2410 L 60.8603,0.0280 L 59.1166,0.0280 L 59.1166,7.2410 Z" stroke-width="1px" stroke="#D8D8D8" fill="#D8D8D8"/>
        <path d="M 47.8670,9.6733 L 47.8810,9.6733 L 47.8810,9.6873 L 47.8951,9.6873 L 47.9232,9.7013 L 47.9373,9.7013 L 48.0779,9.7712 L 48.1201,9.7851 L 48.1482,9.7991 L 48.1904,9.8271 L 48.2185,9.8411 L 48.3029,9.8690 L 48.3310,9.8830 L 48.3732,9.9110 L 48.4013,9.9249 L 48.4435,9.9389 L 48.5841,10.0088 L 48.5982,10.0088 L 48.6263,10.0228 L 48.6404,10.0228 L 48.6404,10.0368 L 55.6714,10.0368 L 55.6854,10.0228 L 55.6995,10.0228 L 55.7136,10.0088 L 55.7276,10.0088 L 55.7558,9.9808 L 55.7839,9.9669 L 55.7979,9.9529 L 55.8542,9.9249 L 55.8964,9.8830 L 56.0089,9.8271 L 56.0511,9.7851 L 56.1073,9.7572 L 56.1214,9.7432 L 56.1495,9.7292 L 56.1776,9.7013 L 56.1917,9.7013 L 56.2057,9.6873 L 56.2198,9.6873 L 56.2339,9.6733 L 47.8951,9.6733 L 47.8670,9.6733 Z" stroke="#000000" stroke-width="0.1202" stroke-linecap="round" stroke-linejoin="round" fill="#EFEFEF"/>
        <path d="M 12.6558,9.6733 L 12.6417,9.6733 L 12.6417,9.6873 L 12.6277,9.6873 L 12.5995,9.7013 L 12.5855,9.7013 L 12.4449,9.7712 L 12.4027,9.7851 L 12.3745,9.7991 L 12.3324,9.8271 L 12.3042,9.8411 L 12.2199,9.8690 L 12.1917,9.8830 L 12.1496,9.9110 L 12.1214,9.9249 L 12.0792,9.9389 L 11.9386,10.0088 L 11.9246,10.0088 L 11.8964,10.0228 L 11.8824,10.0228 L 11.8824,10.0368 L 4.8514,10.0368 L 4.8373,10.0228 L 4.8233,10.0228 L 4.8092,10.0088 L 4.7951,10.0088 L 4.7811,9.9948 L 4.7529,9.9808 L 4.7389,9.9669 L 4.7108,9.9529 L 4.6967,9.9389 L 4.6405,9.9110 L 4.6123,9.8830 L 4.4998,9.8271 L 4.4717,9.7991 L 4.4155,9.7712 L 4.4014,9.7572 L 4.3733,9.7432 L 4.3592,9.7292 L 4.3311,9.7152 L 4.3170,9.7013 L 4.3030,9.7013 L 4.2889,9.6873 L 4.2748,9.6873 L 4.2608,9.6733 L 12.6277,9.6733 L 12.6558,9.6733 Z" stroke="#000000" stroke-width="0.1202" stroke-linecap="round" stroke-linejoin="round" fill="#EFEFEF"/>
        <path d="M 59.4400,7.6324 L 30.2754,7.6324 L 27.5474,7.6184 L 1.2796,7.6184 L 1.1109,7.6184 " stroke="#BFBFBF" stroke-width="0.1202" stroke-linecap="round" stroke-linejoin="round" fill="none"/>
        <path d="M 15.2854,3.2291 L 15.2994,3.2291 L 15.2994,3.2431 L 15.3135,3.2431 L 15.3416,3.2710 L 15.3557,3.2710 L 15.3557,3.2850 L 15.3838,3.3130 L 15.3838,3.3269 L 15.3979,3.3409 L 15.3979,3.3689 L 15.4119,3.3689 L 15.4119,3.4108 L 15.4260,3.4248 L 15.4260,3.5366 L 15.4119,3.5506 L 15.4119,3.5786 L 15.3979,3.5925 L 15.3979,3.6205 L 15.3838,3.6205 L 15.3838,3.6345 L 15.2994,3.7184 L 15.2854,3.7184 L 15.2854,3.7323 L 15.2572,3.7323 L 15.2432,3.7463 L 15.2151,3.7463 L 15.2010,3.7603 L 15.0885,3.7603 L 15.0744,3.7463 L 15.0463,3.7463 L 15.0323,3.7323 L 15.0041,3.7323 L 15.0041,3.7184 L 14.9901,3.7184 L 14.9057,3.6345 L 14.9057,3.6205 L 14.8916,3.6205 L 14.8916,3.5925 L 14.8776,3.5786 L 14.8776,3.5506 L 14.8635,3.5366 L 14.8635,3.4248 L 14.8776,3.4108 L 14.8776,3.3689 L 14.8916,3.3549 L 14.8916,3.3409 L 14.9057,3.3269 L 14.9057,3.3130 L 14.9198,3.3130 L 14.9198,3.2990 L 14.9338,3.2850 L 14.9338,3.2710 L 14.9479,3.2710 L 14.9760,3.2431 L 15.0182,3.2850 L 15.0041,3.2990 L 14.9901,3.2990 L 14.9901,3.3130 L 14.9760,3.3130 L 14.9760,3.3269 L 14.9619,3.3269 L 14.9619,3.3409 L 14.9479,3.3409 L 14.9479,3.3549 L 14.9338,3.3549 L 14.9338,3.3829 L 14.9198,3.3829 L 14.9198,3.4248 L 14.9057,3.4248 L 14.9057,3.5227 L 14.9198,3.5366 L 14.9198,3.5646 L 14.9338,3.5786 L 14.9338,3.5925 L 14.9479,3.6065 L 14.9479,3.6205 L 14.9619,3.6345 L 14.9760,3.6345 L 14.9760,3.6485 L 14.9901,3.6485 L 14.9901,3.6624 L 15.0041,3.6764 L 15.0182,3.6764 L 15.0323,3.6904 L 15.0463,3.6904 L 15.0604,3.7044 L 15.0885,3.7044 L 15.1026,3.7184 L 15.1869,3.7184 L 15.2010,3.7044 L 15.2291,3.7044 L 15.2432,3.6904 L 15.2572,3.6904 L 15.2713,3.6764 L 15.2854,3.6764 L 15.2994,3.6624 L 15.2994,3.6485 L 15.3135,3.6485 L 15.3135,3.6345 L 15.3276,3.6345 L 15.3416,3.6205 L 15.3416,3.6065 L 15.3557,3.5925 L 15.3557,3.5786 L 15.3697,3.5646 L 15.3697,3.5366 L 15.3838,3.5227 L 15.3838,3.4388 L 15.3697,3.4248 L 15.3697,3.3968 L 15.3557,3.3829 L 15.3557,3.3689 L 15.3416,3.3689 L 15.3416,3.3549 L 15.3276,3.3409 L 15.3276,3.3269 L 15.3135,3.3269 L 15.3135,3.3130 L 15.2994,3.3130 L 15.2854,3.2990 L 15.2713,3.2990 L 15.2713,3.2850 L 15.2572,3.2850 L 15.2572,3.2710 L 15.2713,3.2710 L 15.2713,3.2431 L 15.2854,3.2431 L 15.2854,3.2291 Z" stroke="#000000" stroke-width="0.1202" stroke-linecap="round" stroke-linejoin="round" fill="#000000"/>
        <path d="M 15.1729,3.0893 L 15.1026,3.0893 L 15.1026,3.4947 L 15.1729,3.4947 L 15.1729,3.0893 Z" stroke="#000000" stroke-width="0.1202" stroke-linecap="round" stroke-linejoin="round" fill="#000000"/>
        <path d="M 17.6618,3.7743 L 17.6759,3.7743 L 17.7040,3.7463 L 17.7040,3.7184 L 17.6900,3.7184 L 17.6900,3.6904 L 17.6759,3.6904 L 17.6759,3.6764 L 17.6618,3.6624 L 17.6618,3.6345 L 17.6337,3.6065 L 17.6197,3.5786 L 17.6056,3.5646 L 17.5775,3.5087 L 17.5775,3.4947 L 17.5634,3.4667 L 17.5494,3.4528 L 17.5212,3.3968 L 17.5072,3.3829 L 17.4931,3.3549 L 17.4790,3.3409 L 17.4650,3.3130 L 17.4509,3.2990 L 17.4369,3.2710 L 17.4228,3.2571 L 17.4228,3.2431 L 17.4087,3.2151 L 17.3947,3.2011 L 17.3947,3.1872 L 17.3806,3.1732 L 17.3806,3.1592 L 17.3665,3.1592 L 17.3665,3.1452 L 17.3525,3.1452 L 17.3525,3.1173 L 17.3384,3.1033 L 17.3244,3.1033 L 17.3244,3.0893 L 17.2962,3.0893 L 17.2962,3.1033 L 17.2822,3.1033 L 17.2822,3.1173 L 17.2681,3.1173 L 17.2681,3.1452 L 17.2541,3.1452 L 17.2541,3.1592 L 17.2400,3.1732 L 17.2400,3.1872 L 17.2259,3.2011 L 17.2259,3.2151 L 17.1978,3.2431 L 17.1837,3.2710 L 17.1697,3.2850 L 17.1556,3.3130 L 17.1556,3.3269 L 17.1275,3.3829 L 17.1134,3.3968 L 17.0853,3.4528 L 17.0712,3.4667 L 17.0291,3.5506 L 17.0150,3.5646 L 17.0009,3.5925 L 16.9869,3.6065 L 16.9728,3.6345 L 16.9587,3.6485 L 16.9447,3.6764 L 16.9447,3.6904 L 16.9306,3.7044 L 16.9166,3.7044 L 16.9166,3.7603 L 16.9306,3.7603 L 16.9306,3.7743 L 17.6478,3.7743 L 17.6478,3.7603 L 17.6618,3.7603 L 17.6618,3.6764 L 17.6478,3.6764 L 17.6478,3.6624 L 17.6337,3.6485 L 17.6337,3.6205 L 17.6056,3.5925 L 17.5915,3.5646 L 17.5775,3.5506 L 17.5775,3.5227 L 17.5634,3.5087 L 17.5494,3.4807 L 17.5353,3.4667 L 17.5212,3.4388 L 17.5072,3.4248 L 17.4931,3.3968 L 17.4931,3.3829 L 17.4790,3.3689 L 17.4650,3.3409 L 17.4509,3.3269 L 17.4369,3.2990 L 17.4369,3.2850 L 17.3947,3.2431 L 17.3947,3.2291 L 17.3806,3.2151 L 17.3806,3.2011 L 17.3665,3.1872 L 17.3665,3.1732 L 17.3525,3.1732 L 17.3525,3.1452 L 17.3384,3.1452 L 17.3384,3.1312 L 17.3244,3.1312 L 17.3244,3.1173 L 17.2822,3.1173 L 17.2822,3.1312 L 17.2681,3.1452 L 17.2681,3.1732 L 17.2541,3.1732 L 17.2541,3.1872 L 17.2400,3.1872 L 17.2400,3.2011 L 17.2259,3.2151 L 17.2259,3.2291 L 17.2119,3.2431 L 17.1978,3.2710 L 17.1978,3.2850 L 17.1697,3.3130 L 17.1556,3.3409 L 17.1416,3.3549 L 17.1275,3.3829 L 17.1134,3.3968 L 17.1134,3.4248 L 17.0994,3.4388 L 17.0712,3.4947 L 17.0572,3.5087 L 17.0431,3.5366 L 17.0291,3.5506 L 17.0150,3.5786 L 17.0009,3.5925 L 17.0009,3.6065 L 16.9869,3.6345 L 16.9728,3.6485 L 16.9728,3.6624 L 16.9587,3.6764 L 16.9587,3.6904 L 16.9447,3.7044 L 16.9447,3.7463 L 16.9587,3.7463 L 16.9587,3.7603 L 17.6478,3.7603 L 17.6478,3.7743 L 17.6618,3.7743 Z" stroke="#000000" stroke-width="0.1202" stroke-linecap="round" stroke-linejoin="round" fill="#000000"/>
        <path d="M 17.2962,3.6345 L 17.2962,3.5786 L 17.3103,3.5646 L 17.3103,3.4807 L 17.3244,3.4667 L 17.3244,3.3549 L 17.3384,3.3409 L 17.3384,3.2571 L 17.3244,3.2571 L 17.3244,3.2431 L 17.2681,3.2431 L 17.2681,3.2571 L 17.2541,3.2571 L 17.2541,3.3409 L 17.2681,3.3549 L 17.2681,3.4388 L 17.2822,3.4667 L 17.2822,3.5646 L 17.2962,3.5786 L 17.2962,3.6205 L 17.2962,3.6345 Z" stroke="#161616" stroke-width="0.1202" stroke-linecap="round" stroke-linejoin="round" fill="#161616"/>
        <path d="M 21.9226,3.2151 L 21.8945,3.2011 L 21.8383,3.2011 L 21.8101,3.2151 L 21.2758,3.7463 L 21.2617,3.7743 L 21.2617,3.8302 L 21.2758,3.8581 L 21.2758,3.8721 L 21.3039,3.8861 L 21.3461,3.9001 L 21.4023,3.8721 L 21.9367,3.3409 L 21.9648,3.2850 L 21.9508,3.2431 L 21.9367,3.2151 L 21.9226,3.2151 " stroke="#000000" stroke-width="0.1202" stroke-linecap="round" stroke-linejoin="round" fill="none"/>
        <path d="M 21.7961,3.3409 L 21.7117,3.2850 L 21.6555,3.2710 L 21.5570,3.2710 L 21.5008,3.2850 L 21.4164,3.3409 L 21.4164,3.3549 L 21.3742,3.3968 L 21.3601,3.4388 L 21.3320,3.4807 L 21.3320,3.5925 L 21.3601,3.6345 L 21.3742,3.6764 L 21.4586,3.7603 L 21.5008,3.7882 L 21.5430,3.8022 L 21.6555,3.8022 L 21.6976,3.7882 L 21.7398,3.7603 L 21.7820,3.7184 L 21.7961,3.7184 L 21.8523,3.6345 L 21.8664,3.5786 L 21.8664,3.4807 L 21.8523,3.4248 L 21.8242,3.3829 L 21.7961,3.3409 " stroke="#000000" stroke-width="0.1202" stroke-linecap="round" stroke-linejoin="round" fill="none"/>
        <path d="M 21.3461,3.4388 L 21.7117,3.7743 " stroke="#000000" stroke-width="0.1202" stroke-linecap="round" stroke-linejoin="round" fill="none"/>
        <path d="M 21.4164,3.3689 L 21.7820,3.7044 " stroke="#000000" stroke-width="0.1202" stroke-linecap="round" stroke-linejoin="round" fill="none"/>
        <path d="M 21.5008,3.2990 L 21.8523,3.6205 " stroke="#000000" stroke-width="0.1202" stroke-linecap="round" stroke-linejoin="round" fill="none"/>
        <path d="M 21.5992,3.2571 L 21.8664,3.5227 " stroke="#000000" stroke-width="0.1202" stroke-linecap="round" stroke-linejoin="round" fill="none"/>
        <path d="M 21.3320,3.5227 L 21.6273,3.8022 " stroke="#000000" stroke-width="0.1202" stroke-linecap="round" stroke-linejoin="round" fill="none"/>
        <path d="M 52.5496,3.5087 L 51.9590,3.5087 " stroke="#000000" stroke-width="0.1202" stroke-linecap="round" stroke-linejoin="round" fill="none"/>
        <path d="M 52.2543,3.4248 L 52.2543,3.4947 " stroke="#000000" stroke-width="0.1202" stroke-linecap="round" stroke-linejoin="round" fill="none"/>
        <path d="M 52.3246,3.2710 L 52.1840,3.2710 L 52.1840,3.4108 L 52.3246,3.4108 L 52.3246,3.2710 Z" stroke="#000000" stroke-width="0.1202" stroke-linecap="round" stroke-linejoin="round" fill="none"/>
        <path d="M 52.4231,3.4947 L 52.4231,3.5786 " stroke="#000000" stroke-width="0.1202" stroke-linecap="round" stroke-linejoin="round" fill="none"/>
        <path d="M 52.4231,3.4947 L 52.4231,3.5786 " stroke="#000000" stroke-width="0.1202" stroke-linecap="round" stroke-linejoin="round" fill="none"/>
        <path d="M 52.3528,3.5786 L 52.4934,3.5786 L 52.4934,3.7184 L 52.3528,3.7184 L 52.3528,3.5786 Z" stroke="#000000" stroke-width="0.1202" stroke-linecap="round" stroke-linejoin="round" fill="none"/>
        <path d="M 52.0715,3.4947 L 52.0715,3.5786 " stroke="#000000" stroke-width="0.1202" stroke-linecap="round" stroke-linejoin="round" fill="none"/>
        <path d="M 52.1559,3.5786 L 52.0153,3.5786 L 52.0153,3.7184 L 52.1559,3.7184 L 52.1559,3.5786 Z" stroke="#000000" stroke-width="0.1202" stroke-linecap="round" stroke-linejoin="round" fill="none"/>
        <path d="M 24.0179,3.2151 L 23.9897,3.2011 L 23.9335,3.2011 L 23.9054,3.2151 L 23.3710,3.7463 L 23.3569,3.7743 L 23.3569,3.8302 L 23.3710,3.8581 L 23.3710,3.8721 L 23.3991,3.8861 L 23.4413,3.9001 L 23.4976,3.8721 L 24.0319,3.3409 L 24.0600,3.2850 L 24.0460,3.2431 L 24.0319,3.2151 L 24.0179,3.2151 " stroke="#000000" stroke-width="0.1202" stroke-linecap="round" stroke-linejoin="round" fill="none"/>
        <path d="M 23.8913,3.3409 L 23.8069,3.2850 L 23.7507,3.2710 L 23.6523,3.2710 L 23.5960,3.2850 L 23.5116,3.3409 L 23.5116,3.3549 L 23.4694,3.3968 L 23.4554,3.4388 L 23.4273,3.4807 L 23.4273,3.5925 L 23.4554,3.6345 L 23.4694,3.6764 L 23.5538,3.7603 L 23.5960,3.7882 L 23.6382,3.8022 L 23.7507,3.8022 L 23.7929,3.7882 L 23.8351,3.7603 L 23.8772,3.7184 L 23.8913,3.7184 L 23.9476,3.6345 L 23.9616,3.5786 L 23.9616,3.4807 L 23.9476,3.4248 L 23.9194,3.3829 L 23.8913,3.3409 " stroke="#000000" stroke-width="0.1202" stroke-linecap="round" stroke-linejoin="round" fill="none"/>
        <path d="M 23.4413,3.4388 L 23.8069,3.7743 " stroke="#000000" stroke-width="0.1202" stroke-linecap="round" stroke-linejoin="round" fill="none"/>
        <path d="M 23.5116,3.3689 L 23.8772,3.7044 " stroke="#000000" stroke-width="0.1202" stroke-linecap="round" stroke-linejoin="round" fill="none"/>
        <path d="M 23.5960,3.2990 L 23.9476,3.6205 " stroke="#000000" stroke-width="0.1202" stroke-linecap="round" stroke-linejoin="round" fill="none"/>
        <path d="M 23.6944,3.2571 L 23.9616,3.5227 " stroke="#000000" stroke-width="0.1202" stroke-linecap="round" stroke-linejoin="round" fill="none"/>
        <path d="M 23.4273,3.5227 L 23.7226,3.8022 " stroke="#000000" stroke-width="0.1202" stroke-linecap="round" stroke-linejoin="round" fill="none"/>
        <ellipse cx="18.9837" cy="3.4388" rx="0.0281" ry="0.0280" fill="#000000" stroke="#000000" stroke-width="0.1202" stroke-linecap="round" stroke-linejoin="round"/>
        <ellipse cx="18.9837" cy="3.4388" rx="0.0281" ry="0.0280" fill="none" stroke="#000000" stroke-width="0.1202" stroke-linecap="round" stroke-linejoin="round"/>
        <path d="M 19.1243,3.4947 L 19.7852,3.4947 " stroke="#000000" stroke-width="0.1202" stroke-linecap="round" stroke-linejoin="round" fill="none"/>
        <path d="M 19.2087,3.4947 L 19.3493,3.3549 L 19.5180,3.3549 " stroke="#000000" stroke-width="0.1202" stroke-linecap="round" stroke-linejoin="round" fill="none"/>
        <path d="M 19.3212,3.4947 L 19.4758,3.6345 L 19.5743,3.6345 " stroke="#000000" stroke-width="0.1202" stroke-linecap="round" stroke-linejoin="round" fill="none"/>
        <path d="M 19.6868,3.5786 L 19.5743,3.5786 L 19.5743,3.6904 L 19.6868,3.6904 L 19.6868,3.5786 Z" stroke="#000000" stroke-width="0.1202" stroke-linecap="round" stroke-linejoin="round" fill="#000000"/>
        <path d="M 19.9399,3.4947 L 19.7711,3.4388 L 19.7711,3.5506 L 19.9399,3.4947 Z" stroke="#000000" stroke-width="0.1202" stroke-linecap="round" stroke-linejoin="round" fill="#000000"/>
        <ellipse cx="51.5653" cy="4.6410" rx="0.2250" ry="0.2237" fill="#000000" stroke="#000000" stroke-width="0.1202" stroke-linecap="round" stroke-linejoin="round"/>
        <ellipse cx="51.5653" cy="4.6410" rx="0.2250" ry="0.2237" fill="none" stroke="#000000" stroke-width="0.1202" stroke-linecap="round" stroke-linejoin="round"/>
        <ellipse cx="51.5583" cy="4.6340" rx="0.1758" ry="0.1747" fill="#00FF00" stroke="#000000" stroke-width="0.1202" stroke-linecap="round" stroke-linejoin="round"/>
        <ellipse cx="51.5583" cy="4.6340" rx="0.1758" ry="0.1747" fill="none" stroke="#000000" stroke-width="0.1202" stroke-linecap="round" stroke-linejoin="round"/>
        <ellipse cx="49.4068" cy="4.6410" rx="0.2180" ry="0.2237" fill="#000000" stroke="#000000" stroke-width="0.1202" stroke-linecap="round" stroke-linejoin="round"/>
        <ellipse cx="49.4068" cy="4.6410" rx="0.2180" ry="0.2237" fill="none" stroke="#000000" stroke-width="0.1202" stroke-linecap="round" stroke-linejoin="round"/>
        <ellipse cx="49.4138" cy="4.6340" rx="0.1828" ry="0.1747" fill="#00FF00" stroke="#000000" stroke-width="0.1202" stroke-linecap="round" stroke-linejoin="round"/>
        <ellipse cx="49.4138" cy="4.6340" rx="0.1828" ry="0.1747" fill="none" stroke="#000000" stroke-width="0.1202" stroke-linecap="round" stroke-linejoin="round"/>
        <ellipse cx="47.2764" cy="4.6410" rx="0.2250" ry="0.2237" fill="#000000" stroke="#000000" stroke-width="0.1202" stroke-linecap="round" stroke-linejoin="round"/>
        <ellipse cx="47.2764" cy="4.6410" rx="0.2250" ry="0.2237" fill="none" stroke="#000000" stroke-width="0.1202" stroke-linecap="round" stroke-linejoin="round"/>
        <ellipse cx="47.2693" cy="4.6340" rx="0.1758" ry="0.1747" fill="#00FF00" stroke="#000000" stroke-width="0.1202" stroke-linecap="round" stroke-linejoin="round"/>
        <ellipse cx="47.2693" cy="4.6340" rx="0.1758" ry="0.1747" fill="none" stroke="#000000" stroke-width="0.1202" stroke-linecap="round" stroke-linejoin="round"/>
        <ellipse cx="45.1179" cy="4.6410" rx="0.2180" ry="0.2237" fill="#000000" stroke="#000000" stroke-width="0.1202" stroke-linecap="round" stroke-linejoin="round"/>
        <ellipse cx="45.1179" cy="4.6410" rx="0.2180" ry="0.2237" fill="none" stroke="#000000" stroke-width="0.1202" stroke-linecap="round" stroke-linejoin="round"/>
        <ellipse cx="45.1179" cy="4.6340" rx="0.1758" ry="0.1747" fill="#00FF00" stroke="#000000" stroke-width="0.1202" stroke-linecap="round" stroke-linejoin="round"/>
        <ellipse cx="45.1179" cy="4.6340" rx="0.1758" ry="0.1747" fill="none" stroke="#000000" stroke-width="0.1202" stroke-linecap="round" stroke-linejoin="round"/>
        <ellipse cx="42.9804" cy="4.6410" rx="0.2180" ry="0.2237" fill="#000000" stroke="#000000" stroke-width="0.1202" stroke-linecap="round" stroke-linejoin="round"/>
        <ellipse cx="42.9804" cy="4.6410" rx="0.2180" ry="0.2237" fill="none" stroke="#000000" stroke-width="0.1202" stroke-linecap="round" stroke-linejoin="round"/>
        <ellipse cx="42.9875" cy="4.6340" rx="0.1828" ry="0.1747" fill="#00FF00" stroke="#000000" stroke-width="0.1202" stroke-linecap="round" stroke-linejoin="round"/>
        <ellipse cx="42.9875" cy="4.6340" rx="0.1828" ry="0.1747" fill="none" stroke="#000000" stroke-width="0.1202" stroke-linecap="round" stroke-linejoin="round"/>
        <ellipse cx="40.8360" cy="4.6410" rx="0.2250" ry="0.2237" fill="#000000" stroke="#000000" stroke-width="0.1202" stroke-linecap="round" stroke-linejoin="round"/>
        <ellipse cx="40.8360" cy="4.6410" rx="0.2250" ry="0.2237" fill="none" stroke="#000000" stroke-width="0.1202" stroke-linecap="round" stroke-linejoin="round"/>
        <ellipse cx="40.8290" cy="4.6340" rx="0.1758" ry="0.1747" fill="#00FF00" stroke="#000000" stroke-width="0.1202" stroke-linecap="round" stroke-linejoin="round"/>
        <ellipse cx="40.8290" cy="4.6340" rx="0.1758" ry="0.1747" fill="none" stroke="#000000" stroke-width="0.1202" stroke-linecap="round" stroke-linejoin="round"/>
        <ellipse cx="38.6915" cy="4.6410" rx="0.2180" ry="0.2237" fill="#000000" stroke="#000000" stroke-width="0.1202" stroke-linecap="round" stroke-linejoin="round"/>
        <ellipse cx="38.6915" cy="4.6410" rx="0.2180" ry="0.2237" fill="none" stroke="#000000" stroke-width="0.1202" stroke-linecap="round" stroke-linejoin="round"/>
        <ellipse cx="38.6986" cy="4.6340" rx="0.1828" ry="0.1747" fill="#00FF00" stroke="#000000" stroke-width="0.1202" stroke-linecap="round" stroke-linejoin="round"/>
        <ellipse cx="38.6986" cy="4.6340" rx="0.1828" ry="0.1747" fill="none" stroke="#000000" stroke-width="0.1202" stroke-linecap="round" stroke-linejoin="round"/>
        <ellipse cx="36.5471" cy="4.6410" rx="0.2250" ry="0.2237" fill="#000000" stroke="#000000" stroke-width="0.1202" stroke-linecap="round" stroke-linejoin="round"/>
        <ellipse cx="36.5471" cy="4.6410" rx="0.2250" ry="0.2237" fill="none" stroke="#000000" stroke-width="0.1202" stroke-linecap="round" stroke-linejoin="round"/>
        <ellipse cx="36.5401" cy="4.6340" rx="0.1758" ry="0.1747" fill="#00FF00" stroke="#000000" stroke-width="0.1202" stroke-linecap="round" stroke-linejoin="round"/>
        <ellipse cx="36.5401" cy="4.6340" rx="0.1758" ry="0.1747" fill="none" stroke="#000000" stroke-width="0.1202" stroke-linecap="round" stroke-linejoin="round"/>
        <ellipse cx="23.6733" cy="4.6410" rx="0.2180" ry="0.2237" fill="#000000" stroke="#000000" stroke-width="0.1202" stroke-linecap="round" stroke-linejoin="round"/>
        <ellipse cx="23.6733" cy="4.6410" rx="0.2180" ry="0.2237" fill="none" stroke="#000000" stroke-width="0.1202" stroke-linecap="round" stroke-linejoin="round"/>
        <ellipse cx="23.6804" cy="4.6340" rx="0.1828" ry="0.1747" fill="#00FF00" stroke="#000000" stroke-width="0.1202" stroke-linecap="round" stroke-linejoin="round"/>
        <ellipse cx="23.6804" cy="4.6340" rx="0.1828" ry="0.1747" fill="none" stroke="#000000" stroke-width="0.1202" stroke-linecap="round" stroke-linejoin="round"/>
        <ellipse cx="21.5430" cy="4.6410" rx="0.2250" ry="0.2237" fill="#000000" stroke="#000000" stroke-width="0.1202" stroke-linecap="round" stroke-linejoin="round"/>
        <ellipse cx="21.5430" cy="4.6410" rx="0.2250" ry="0.2237" fill="none" stroke="#000000" stroke-width="0.1202" stroke-linecap="round" stroke-linejoin="round"/>
        <ellipse cx="21.5359" cy="4.6340" rx="0.1758" ry="0.1747" fill="#00FF00" stroke="#000000" stroke-width="0.1202" stroke-linecap="round" stroke-linejoin="round"/>
        <ellipse cx="21.5359" cy="4.6340" rx="0.1758" ry="0.1747" fill="none" stroke="#000000" stroke-width="0.1202" stroke-linecap="round" stroke-linejoin="round"/>
        <ellipse cx="19.3844" cy="4.6410" rx="0.2180" ry="0.2237" fill="#000000" stroke="#000000" stroke-width="0.1202" stroke-linecap="round" stroke-linejoin="round"/>
        <ellipse cx="19.3844" cy="4.6410" rx="0.2180" ry="0.2237" fill="none" stroke="#000000" stroke-width="0.1202" stroke-linecap="round" stroke-linejoin="round"/>
        <ellipse cx="19.3915" cy="4.6340" rx="0.1828" ry="0.1747" fill="#00FF00" stroke="#000000" stroke-width="0.1202" stroke-linecap="round" stroke-linejoin="round"/>
        <ellipse cx="19.3915" cy="4.6340" rx="0.1828" ry="0.1747" fill="none" stroke="#000000" stroke-width="0.1202" stroke-linecap="round" stroke-linejoin="round"/>
        <ellipse cx="17.2541" cy="4.6410" rx="0.2250" ry="0.2237" fill="#000000" stroke="#000000" stroke-width="0.1202" stroke-linecap="round" stroke-linejoin="round"/>
        <ellipse cx="17.2541" cy="4.6410" rx="0.2250" ry="0.2237" fill="none" stroke="#000000" stroke-width="0.1202" stroke-linecap="round" stroke-linejoin="round"/>
        <ellipse cx="17.2470" cy="4.6340" rx="0.1758" ry="0.1747" fill="#00FF00" stroke="#000000" stroke-width="0.1202" stroke-linecap="round" stroke-linejoin="round"/>
        <ellipse cx="17.2470" cy="4.6340" rx="0.1758" ry="0.1747" fill="none" stroke="#000000" stroke-width="0.1202" stroke-linecap="round" stroke-linejoin="round"/>
        <ellipse cx="15.0955" cy="4.6410" rx="0.2180" ry="0.2237" fill="#000000" stroke="#000000" stroke-width="0.1202" stroke-linecap="round" stroke-linejoin="round"/>
        <ellipse cx="15.0955" cy="4.6410" rx="0.2180" ry="0.2237" fill="none" stroke="#000000" stroke-width="0.1202" stroke-linecap="round" stroke-linejoin="round"/>
        <ellipse cx="15.0955" cy="4.6340" rx="0.1758" ry="0.1747" fill="#00FF00" stroke="#000000" stroke-width="0.1202" stroke-linecap="round" stroke-linejoin="round"/>
        <ellipse cx="15.0955" cy="4.6340" rx="0.1758" ry="0.1747" fill="none" stroke="#000000" stroke-width="0.1202" stroke-linecap="round" stroke-linejoin="round"/>
        <path d="M 25.4922,4.5253 L 25.4753,4.5253 L 25.4668,4.5154 L 25.4583,4.5154 L 25.4328,4.4856 L 25.4328,4.4757 L 25.4243,4.4658 L 25.4243,3.3146 L 25.4328,3.3047 L 25.4328,3.2948 L 25.4413,3.2848 L 25.4498,3.2848 L 25.4498,3.2749 L 25.4583,3.2650 L 25.4668,3.2650 L 25.4753,3.2551 L 26.6297,3.2551 L 26.6382,3.2650 L 26.6467,3.2650 L 26.6722,3.2948 L 26.6722,3.3047 L 26.6807,3.3146 L 26.6807,3.5429 L 26.6722,3.5429 L 26.6722,3.5329 L 26.6637,3.5329 L 26.6637,3.5230 L 26.6552,3.5230 L 26.6552,3.5131 L 26.6382,3.5131 L 26.6382,3.5032 L 25.7045,3.5032 L 25.7045,3.5131 L 25.6875,3.5131 L 25.6875,3.5230 L 25.6790,3.5230 L 25.6790,3.5429 L 25.6705,3.5429 L 25.6705,4.4856 L 25.6790,4.4856 L 25.6790,4.5055 L 25.6875,4.5055 L 25.6875,4.5154 L 25.6960,4.5154 L 25.6960,4.5253 L 25.5007,4.5253 L 25.4922,4.5253 Z" stroke="#000000" stroke-width="0.1202" stroke-linecap="round" stroke-linejoin="round" fill="#000000"/>
        <path d="M 26.5958,3.7910 L 25.7554,3.7910 L 25.7554,3.7810 L 25.7384,3.7810 L 25.7384,3.7711 L 25.7299,3.7711 L 25.7299,3.7513 L 25.7214,3.7513 L 25.7214,3.9994 L 25.7299,3.9994 L 25.7299,4.0192 L 25.7384,4.0192 L 25.7384,4.0291 L 25.7554,4.0291 L 25.7554,4.0391 L 26.6128,4.0391 L 26.6297,4.0192 L 26.6382,4.0192 L 26.6552,3.9994 L 26.6552,3.9894 L 26.6637,3.9795 L 26.6637,3.9696 L 26.6722,3.9597 L 26.6722,3.9398 L 26.6807,3.9299 L 26.6807,3.9001 L 26.6722,3.8902 L 26.6722,3.8604 L 26.6552,3.8406 L 26.6552,3.8307 L 26.6467,3.8207 L 26.6382,3.8207 L 26.6382,3.8108 L 26.6297,3.8108 L 26.6213,3.8009 L 26.6128,3.8009 L 26.6043,3.7910 L 26.5958,3.7910 Z" stroke="#000000" stroke-width="0.1202" stroke-linecap="round" stroke-linejoin="round" fill="#000000"/>
        <path d="M 28.5567,4.0391 L 28.5398,4.0391 L 28.5398,4.0291 L 28.5228,4.0291 L 28.5228,4.0192 L 28.5143,4.0192 L 28.5143,3.9994 L 28.5058,3.9994 L 28.5058,3.7513 L 28.5143,3.7513 L 28.5143,3.7711 L 28.5228,3.7711 L 28.5228,3.7810 L 28.5398,3.7810 L 28.5398,3.7910 L 29.2189,3.7910 L 29.2189,3.5032 L 28.4888,3.5032 L 28.4888,3.5131 L 28.4718,3.5131 L 28.4718,3.5230 L 28.4634,3.5230 L 28.4634,3.5429 L 28.4549,3.5429 L 28.4549,4.4856 L 28.4634,4.4856 L 28.4634,4.5055 L 28.4718,4.5055 L 28.4718,4.5154 L 28.4803,4.5154 L 28.4803,4.5253 L 28.2596,4.5253 L 28.2511,4.5154 L 28.2426,4.5154 L 28.2172,4.4856 L 28.2172,4.4757 L 28.2087,4.4658 L 28.2087,3.3146 L 28.2172,3.3047 L 28.2172,3.2948 L 28.2257,3.2848 L 28.2342,3.2848 L 28.2342,3.2749 L 28.2426,3.2650 L 28.2511,3.2650 L 28.2596,3.2551 L 29.4141,3.2551 L 29.4226,3.2650 L 29.4311,3.2650 L 29.4566,3.2948 L 29.4566,3.3047 L 29.4650,3.3146 L 29.4650,3.9398 L 29.4566,3.9497 L 29.4566,3.9696 L 29.4481,3.9696 L 29.4481,3.9795 L 29.4396,3.9894 L 29.4396,3.9994 L 29.4311,3.9994 L 29.4311,4.0093 L 29.4226,4.0093 L 29.4226,4.0192 L 29.4141,4.0192 L 29.4141,4.0291 L 29.4056,4.0291 L 29.3971,4.0391 L 29.4056,4.0490 L 29.4141,4.0490 L 29.4141,4.0589 L 29.4226,4.0589 L 29.4226,4.0688 L 29.4311,4.0688 L 29.4311,4.0788 L 29.4396,4.0788 L 29.4396,4.0887 L 29.4481,4.0986 L 29.4481,4.1085 L 29.4566,4.1085 L 29.4566,4.1284 L 29.4650,4.1383 L 29.4650,4.4856 L 29.4735,4.4856 L 29.4735,4.5055 L 29.4820,4.5055 L 29.4820,4.5154 L 29.4905,4.5154 L 29.4905,4.5253 L 29.2698,4.5253 L 29.2613,4.5154 L 29.2528,4.5154 L 29.2274,4.4856 L 29.2274,4.4757 L 29.2189,4.4658 L 29.2189,4.0391 L 28.5652,4.0391 L 28.5567,4.0391 Z" stroke="#000000" stroke-width="0.1202" stroke-linecap="round" stroke-linejoin="round" fill="#000000"/>
        <path d="M 29.9065,3.5032 L 29.6518,3.5032 L 29.6433,3.4932 L 29.6348,3.4932 L 29.6094,3.4635 L 29.6094,3.4535 L 29.6009,3.4436 L 29.6009,3.3146 L 29.6094,3.3047 L 29.6094,3.2948 L 29.6178,3.2848 L 29.6263,3.2848 L 29.6263,3.2749 L 29.6348,3.2650 L 29.6433,3.2650 L 29.6518,3.2551 L 30.8063,3.2551 L 30.8148,3.2650 L 30.8233,3.2650 L 30.8487,3.2948 L 30.8487,3.3047 L 30.8572,3.3146 L 30.8572,3.5429 L 30.8487,3.5429 L 30.8487,3.5329 L 30.8403,3.5329 L 30.8403,3.5230 L 30.8318,3.5230 L 30.8318,3.5131 L 30.8148,3.5131 L 30.8148,3.5032 L 30.1866,3.5032 L 30.1866,3.5131 L 30.1696,3.5131 L 30.1696,3.5230 L 30.1611,3.5230 L 30.1611,3.5429 L 30.1526,3.5429 L 30.1526,4.4856 L 30.1611,4.4856 L 30.1611,4.5055 L 30.1696,4.5055 L 30.1696,4.5154 L 30.1781,4.5154 L 30.1781,4.5253 L 29.9574,4.5253 L 29.9489,4.5154 L 29.9404,4.5154 L 29.9150,4.4856 L 29.9150,4.4757 L 29.9065,4.4658 L 29.9065,3.5329 L 29.9065,3.5032 Z" stroke="#000000" stroke-width="0.1202" stroke-linecap="round" stroke-linejoin="round" fill="#000000"/>
        <path d="M 31.2392,4.4559 L 31.2392,4.4856 L 31.2477,4.4856 L 31.2477,4.5055 L 31.2562,4.5055 L 31.2562,4.5154 L 31.2647,4.5154 L 31.2647,4.5253 L 31.0440,4.5253 L 31.0355,4.5154 L 31.0270,4.5154 L 31.0015,4.4856 L 31.0015,4.4757 L 30.9931,4.4658 L 30.9931,3.2948 L 30.9846,3.2948 L 30.9846,3.2749 L 30.9761,3.2749 L 30.9761,3.2650 L 30.9676,3.2650 L 30.9676,3.2551 L 31.1883,3.2551 L 31.1968,3.2650 L 31.2053,3.2650 L 31.2307,3.2948 L 31.2307,3.3047 L 31.2392,3.3146 L 31.2392,4.4459 L 31.2392,4.4559 Z" stroke="#000000" stroke-width="0.1202" stroke-linecap="round" stroke-linejoin="round" fill="#000000"/>
        <path d="M 32.4447,3.5032 L 31.7146,3.5032 L 31.7146,3.5131 L 31.6976,3.5131 L 31.6976,3.5230 L 31.6891,3.5230 L 31.6891,3.5429 L 31.6807,3.5429 L 31.6807,4.4856 L 31.6891,4.4856 L 31.6891,4.5055 L 31.6976,4.5055 L 31.6976,4.5154 L 31.7061,4.5154 L 31.7061,4.5253 L 31.4854,4.5253 L 31.4769,4.5154 L 31.4684,4.5154 L 31.4430,4.4856 L 31.4430,4.4757 L 31.4345,4.4658 L 31.4345,3.3146 L 31.4430,3.3047 L 31.4430,3.2948 L 31.4515,3.2848 L 31.4599,3.2848 L 31.4599,3.2749 L 31.4684,3.2650 L 31.4769,3.2650 L 31.4854,3.2551 L 32.6399,3.2551 L 32.6484,3.2650 L 32.6569,3.2650 L 32.6823,3.2948 L 32.6823,3.3047 L 32.6908,3.3146 L 32.6908,4.4856 L 32.6993,4.4856 L 32.6993,4.5055 L 32.7078,4.5055 L 32.7078,4.5154 L 32.7163,4.5154 L 32.7163,4.5253 L 32.4956,4.5253 L 32.4871,4.5154 L 32.4786,4.5154 L 32.4531,4.4856 L 32.4531,4.4757 L 32.4447,4.4658 L 32.4447,3.5329 L 32.4447,3.5032 Z" stroke="#000000" stroke-width="0.1202" stroke-linecap="round" stroke-linejoin="round" fill="#000000"/>
        <path d="M 33.9387,3.7910 L 33.1577,3.7910 L 33.1492,3.7810 L 33.1407,3.7810 L 33.1407,3.7711 L 33.1323,3.7711 L 33.1323,3.7513 L 33.1238,3.7513 L 33.1238,3.9994 L 33.1323,3.9994 L 33.1323,4.0192 L 33.1407,4.0192 L 33.1407,4.0291 L 33.1492,4.0291 L 33.1577,4.0391 L 33.9472,4.0391 L 33.9642,4.0192 L 33.9727,4.0192 L 33.9896,3.9994 L 33.9896,3.9894 L 33.9981,3.9795 L 33.9981,3.9696 L 34.0066,3.9597 L 34.0066,3.9398 L 34.0151,3.9299 L 34.0151,3.8902 L 34.0066,3.8803 L 34.0066,3.8505 L 33.9981,3.8505 L 33.9981,3.8406 L 33.9727,3.8108 L 33.9642,3.8108 L 33.9642,3.8009 L 33.9557,3.8009 L 33.9472,3.7910 L 33.9387,3.7910 Z" stroke="#000000" stroke-width="0.1202" stroke-linecap="round" stroke-linejoin="round" fill="#000000"/>
        <path d="M 34.5244,3.5032 L 34.2698,3.5032 L 34.2613,3.4932 L 34.2528,3.4932 L 34.2273,3.4635 L 34.2273,3.4535 L 34.2188,3.4436 L 34.2188,3.3146 L 34.2273,3.3047 L 34.2273,3.2948 L 34.2358,3.2848 L 34.2443,3.2848 L 34.2443,3.2749 L 34.2528,3.2650 L 34.2613,3.2650 L 34.2698,3.2551 L 35.4243,3.2551 L 35.4328,3.2650 L 35.4412,3.2650 L 35.4667,3.2948 L 35.4667,3.3047 L 35.4752,3.3146 L 35.4752,3.5429 L 35.4667,3.5429 L 35.4667,3.5329 L 35.4582,3.5329 L 35.4582,3.5230 L 35.4497,3.5230 L 35.4497,3.5131 L 35.4328,3.5131 L 35.4328,3.5032 L 34.8046,3.5032 L 34.8046,3.5131 L 34.7876,3.5131 L 34.7876,3.5230 L 34.7791,3.5230 L 34.7791,3.5429 L 34.7706,3.5429 L 34.7706,4.4856 L 34.7791,4.4856 L 34.7791,4.5055 L 34.7876,4.5055 L 34.7876,4.5154 L 34.7961,4.5154 L 34.7961,4.5253 L 34.5754,4.5253 L 34.5669,4.5154 L 34.5584,4.5154 L 34.5329,4.4856 L 34.5329,4.4757 L 34.5244,4.4658 L 34.5244,3.5329 L 34.5244,3.5032 Z" stroke="#000000" stroke-width="0.1202" stroke-linecap="round" stroke-linejoin="round" fill="#000000"/>
        <path d="M 34.0236,4.2772 L 34.0406,4.2772 L 34.0406,4.2673 L 34.0576,4.2673 L 34.0576,4.2574 L 34.0660,4.2574 L 34.0660,4.2475 L 34.0745,4.2475 L 34.0745,4.2375 L 34.0830,4.2375 L 34.0830,4.4658 L 34.0745,4.4757 L 34.0745,4.4856 L 34.0660,4.4956 L 34.0660,4.5055 L 34.0576,4.5055 L 34.0491,4.5154 L 34.0406,4.5154 L 34.0321,4.5253 L 32.8776,4.5253 L 32.8691,4.5154 L 32.8606,4.5154 L 32.8351,4.4856 L 32.8351,4.4757 L 32.8267,4.4658 L 32.8267,3.3146 L 32.8351,3.3047 L 32.8351,3.2948 L 32.8436,3.2848 L 32.8521,3.2848 L 32.8521,3.2749 L 32.8606,3.2650 L 32.8691,3.2650 L 32.8776,3.2551 L 34.0321,3.2551 L 34.0406,3.2650 L 34.0491,3.2650 L 34.0745,3.2948 L 34.0745,3.3047 L 34.0830,3.3146 L 34.0830,3.5429 L 34.0745,3.5429 L 34.0745,3.5329 L 34.0660,3.5329 L 34.0660,3.5230 L 34.0576,3.5230 L 34.0576,3.5131 L 34.0406,3.5131 L 34.0406,3.5032 L 33.1068,3.5032 L 33.1068,3.5131 L 33.0898,3.5131 L 33.0898,3.5230 L 33.0813,3.5230 L 33.0813,3.5429 L 33.0728,3.5429 L 33.0728,4.2772 L 34.0151,4.2772 L 34.0236,4.2772 Z" stroke="#000000" stroke-width="0.1202" stroke-linecap="round" stroke-linejoin="round" fill="#000000"/>
        <path d="M 27.2409,4.1581 L 27.2409,4.5253 L 27.6484,4.5253 L 27.6484,4.1581 L 27.2409,4.1581 Z" stroke="#ED3440" stroke-width="0.1202" stroke-linecap="round" stroke-linejoin="round" fill="#ED3440"/>
        <path d="M 26.8165,3.7116 L 27.1645,3.7116 L 27.1645,4.0688 L 26.8165,4.0688 L 26.8165,3.7116 Z" stroke="#ED3440" stroke-width="0.1202" stroke-linecap="round" stroke-linejoin="round" fill="#ED3440"/>
        <path d="M 27.7248,4.1581 L 27.7248,4.5253 L 27.8522,4.5253 L 27.8606,4.5154 L 27.8946,4.5154 L 27.9031,4.5055 L 27.9201,4.5055 L 27.9370,4.4956 L 27.9455,4.4856 L 27.9625,4.4757 L 27.9795,4.4559 L 27.9965,4.4459 L 28.0050,4.4360 L 28.0134,4.4162 L 28.0219,4.4062 L 28.0559,4.3268 L 28.0559,4.3070 L 28.0644,4.2772 L 28.0644,4.2475 L 28.0729,4.2177 L 28.0729,4.1581 L 27.7333,4.1581 L 27.7248,4.1581 Z" stroke="#ED3440" stroke-width="0.1202" stroke-linecap="round" stroke-linejoin="round" fill="#ED3440"/>
        <path d="M 27.7248,3.7116 L 28.0729,3.7116 L 28.0729,4.0688 L 27.7248,4.0688 L 27.7248,3.7116 Z" stroke="#ED3440" stroke-width="0.1202" stroke-linecap="round" stroke-linejoin="round" fill="#ED3440"/>
        <path d="M 27.1645,4.1581 L 27.1645,4.5253 L 27.0372,4.5253 L 27.0287,4.5154 L 26.9948,4.5154 L 26.9863,4.5055 L 26.9693,4.5055 L 26.9523,4.4956 L 26.9438,4.4856 L 26.9269,4.4757 L 26.9099,4.4559 L 26.8929,4.4459 L 26.8844,4.4360 L 26.8759,4.4162 L 26.8674,4.4062 L 26.8335,4.3268 L 26.8335,4.3070 L 26.8250,4.2772 L 26.8250,4.2475 L 26.8165,4.2177 L 26.8165,4.1581 L 27.1561,4.1581 L 27.1645,4.1581 Z" stroke="#ED3440" stroke-width="0.1202" stroke-linecap="round" stroke-linejoin="round" fill="#ED3440"/>
        <path d="M 27.2409,3.2551 L 27.2409,3.6222 L 27.6484,3.6222 L 27.6484,3.2551 L 27.2409,3.2551 Z" stroke="#ED3440" stroke-width="0.1202" stroke-linecap="round" stroke-linejoin="round" fill="#ED3440"/>
        <path d="M 27.7248,3.6222 L 27.7248,3.2551 L 27.8522,3.2551 L 27.8606,3.2650 L 27.8946,3.2650 L 27.9031,3.2749 L 27.9201,3.2749 L 27.9370,3.2848 L 27.9455,3.2948 L 27.9625,3.3047 L 27.9795,3.3245 L 27.9965,3.3345 L 28.0050,3.3444 L 28.0134,3.3642 L 28.0219,3.3741 L 28.0559,3.4535 L 28.0559,3.4734 L 28.0644,3.5032 L 28.0644,3.5329 L 28.0729,3.5627 L 28.0729,3.6222 L 27.7333,3.6222 L 27.7248,3.6222 Z" stroke="#ED3440" stroke-width="0.1202" stroke-linecap="round" stroke-linejoin="round" fill="#ED3440"/>
        <path d="M 27.1645,3.6222 L 27.1645,3.2551 L 27.0372,3.2551 L 27.0287,3.2650 L 26.9948,3.2650 L 26.9863,3.2749 L 26.9693,3.2749 L 26.9523,3.2848 L 26.9438,3.2948 L 26.9269,3.3047 L 26.9099,3.3245 L 26.8929,3.3345 L 26.8844,3.3444 L 26.8759,3.3642 L 26.8674,3.3741 L 26.8335,3.4535 L 26.8335,3.4734 L 26.8250,3.5032 L 26.8250,3.5329 L 26.8165,3.5627 L 26.8165,3.6222 L 27.1561,3.6222 L 27.1645,3.6222 Z" stroke="#ED3440" stroke-width="0.1202" stroke-linecap="round" stroke-linejoin="round" fill="#ED3440"/>
        <text font-family="Arial" fill="#000000" style="white-space:pre;" font-weight="400" text-anchor="start" x="31.0270" y="3.9842" font-size="0.0934"><![CDATA[1]]></text>
        <text font-family="Arial" fill="#000000" style="white-space:pre;" font-weight="400" text-anchor="start" x="31.9947" y="3.9842" font-size="0.0934"><![CDATA[4]]></text>
        <text font-family="Arial" fill="#000000" style="white-space:pre;" font-weight="400" text-anchor="start" x="31.3496" y="3.9842" font-size="0.0934"><![CDATA[2]]></text>
        <text font-family="Arial" fill="#000000" style="white-space:pre;" font-weight="400" text-anchor="start" x="31.6722" y="3.9842" font-size="0.0934"><![CDATA[3]]></text>
        <text font-family="Arial" fill="#000000" style="white-space:pre;" font-weight="400" text-anchor="start" x="32.3258" y="3.9842" font-size="0.0934"><![CDATA[5]]></text>
        <text font-family="Arial" fill="#000000" style="white-space:pre;" font-weight="400" text-anchor="start" x="33.2935" y="3.9842" font-size="0.0934"><![CDATA[8]]></text>
        <text font-family="Arial" fill="#000000" style="white-space:pre;" font-weight="400" text-anchor="start" x="32.6484" y="3.9842" font-size="0.0934"><![CDATA[6]]></text>
        <text font-family="Arial" fill="#000000" style="white-space:pre;" font-weight="400" text-anchor="start" x="32.9710" y="3.9842" font-size="0.0934"><![CDATA[7]]></text>
        <ellipse cx="11.2327" cy="2.5666" rx="0.0731" ry="0.0705" fill="#000000" stroke="#000000" stroke-width="0.1202" stroke-linecap="round" stroke-linejoin="round"/>
        <ellipse cx="11.2327" cy="2.5666" rx="0.0731" ry="0.0705" fill="none" stroke="#000000" stroke-width="0.1202" stroke-linecap="round" stroke-linejoin="round"/>
        <path d="M 11.4183,2.6263 L 12.4645,2.6263 " stroke="#000000" stroke-width="0.1202" stroke-linecap="round" stroke-linejoin="round" fill="none"/>
        <path d="M 11.5533,2.6263 L 11.7783,2.4092 L 12.0483,2.4092 " stroke="#000000" stroke-width="0.1202" stroke-linecap="round" stroke-linejoin="round" fill="none"/>
        <path d="M 11.7446,2.6263 L 11.9696,2.8433 L 12.1383,2.8433 " stroke="#000000" stroke-width="0.1202" stroke-linecap="round" stroke-linejoin="round" fill="none"/>
        <ellipse cx="12.0652" cy="2.3495" rx="0.0281" ry="0.0271" fill="#000000" stroke="#000000" stroke-width="0.1202" stroke-linecap="round" stroke-linejoin="round"/>
        <ellipse cx="12.0652" cy="2.3495" rx="0.0281" ry="0.0271" fill="none" stroke="#000000" stroke-width="0.1202" stroke-linecap="round" stroke-linejoin="round"/>
        <path d="M 12.3070,2.7673 L 12.1383,2.7673 L 12.1383,2.9301 L 12.3070,2.9301 L 12.3070,2.7673 Z" stroke="#000000" stroke-width="0.1202" stroke-linecap="round" stroke-linejoin="round" fill="#000000"/>
        <path d="M 12.7233,2.6263 L 12.4645,2.5394 L 12.4645,2.7131 L 12.7233,2.6263 Z" stroke="#000000" stroke-width="0.1202" stroke-linecap="round" stroke-linejoin="round" fill="#000000"/>
        <text font-family="Arial" fill="#000000" style="white-space:pre;" font-weight="400" text-anchor="start" x="12.5433" y="3.1175" font-size="0.1237"><![CDATA[MGMT]]></text>
        <ellipse cx="6.5079" cy="2.5666" rx="0.0731" ry="0.0705" fill="#000000" stroke="#000000" stroke-width="0.1202" stroke-linecap="round" stroke-linejoin="round"/>
        <ellipse cx="6.5079" cy="2.5666" rx="0.0731" ry="0.0705" fill="none" stroke="#000000" stroke-width="0.1202" stroke-linecap="round" stroke-linejoin="round"/>
        <path d="M 6.6935,2.6263 L 7.7397,2.6263 " stroke="#000000" stroke-width="0.1202" stroke-linecap="round" stroke-linejoin="round" fill="none"/>
        <path d="M 6.8285,2.6263 L 7.0535,2.4092 L 7.3235,2.4092 " stroke="#000000" stroke-width="0.1202" stroke-linecap="round" stroke-linejoin="round" fill="none"/>
        <path d="M 7.0197,2.6263 L 7.2447,2.8433 L 7.4135,2.8433 " stroke="#000000" stroke-width="0.1202" stroke-linecap="round" stroke-linejoin="round" fill="none"/>
        <ellipse cx="7.3460" cy="2.3495" rx="0.0337" ry="0.0271" fill="#000000" stroke="#000000" stroke-width="0.1202" stroke-linecap="round" stroke-linejoin="round"/>
        <ellipse cx="7.3460" cy="2.3495" rx="0.0337" ry="0.0271" fill="none" stroke="#000000" stroke-width="0.1202" stroke-linecap="round" stroke-linejoin="round"/>
        <path d="M 7.5822,2.7673 L 7.4135,2.7673 L 7.4135,2.9301 L 7.5822,2.9301 L 7.5822,2.7673 Z" stroke="#000000" stroke-width="0.1202" stroke-linecap="round" stroke-linejoin="round" fill="#000000"/>
        <path d="M 7.9985,2.6263 L 7.7397,2.5394 L 7.7397,2.7131 L 7.9985,2.6263 Z" stroke="#000000" stroke-width="0.1202" stroke-linecap="round" stroke-linejoin="round" fill="#000000"/>
        <path d="M 6.0261,4.5068 L 6.0261,4.4433 L 6.0466,4.4433 L 6.0466,4.4010 L 6.0671,4.3798 L 6.0671,4.3587 L 6.0876,4.3587 L 6.0876,4.3375 L 6.1080,4.3375 L 6.1080,4.3164 L 6.1285,4.3164 L 6.1490,4.2952 L 6.1695,4.2952 L 6.1900,4.2740 L 8.2397,4.2740 L 8.2602,4.2952 L 8.2807,4.2952 L 8.3012,4.3164 L 8.3217,4.3164 L 8.3217,4.3375 L 8.3422,4.3375 L 8.3422,4.3587 L 8.3627,4.3587 L 8.3627,4.3798 L 8.3832,4.4010 L 8.3832,4.4433 L 8.4037,4.4433 L 8.4037,4.8876 L 8.2397,5.0569 L 8.2397,5.3955 L 8.2192,5.4166 L 8.2192,5.4378 L 8.1987,5.4378 L 8.1987,5.4589 L 8.1782,5.4589 L 8.1782,5.4801 L 8.1577,5.4801 L 8.1577,5.5012 L 8.1167,5.5012 L 8.1167,5.5224 L 6.3130,5.5224 L 6.3130,5.5012 L 6.2720,5.5012 L 6.2720,5.4801 L 6.2515,5.4801 L 6.2515,5.4589 L 6.2310,5.4589 L 6.2310,5.4378 L 6.2105,5.4378 L 6.2105,5.4166 L 6.1900,5.3955 L 6.1900,5.0569 L 6.0261,4.8876 L 6.0261,4.5280 L 6.0261,4.5068 Z" stroke="#7F7F7F" stroke-width="0.1202" stroke-linecap="round" stroke-linejoin="round" fill="#BFBFBF"/>
        <path d="M 8.3217,4.8665 L 8.1577,5.0358 L 8.1577,5.3531 L 8.1372,5.3743 L 8.1372,5.3955 L 8.1167,5.3955 L 8.0962,5.4166 L 8.0757,5.4166 L 8.0552,5.4378 L 6.3745,5.4378 L 6.3745,5.4166 L 6.3335,5.4166 L 6.3130,5.3955 L 6.2925,5.3955 L 6.2925,5.3743 L 6.2720,5.3531 L 6.2720,5.0358 L 6.1080,4.8665 L 6.1080,4.5068 L 6.1285,4.5068 L 6.1285,4.4645 L 6.1490,4.4645 L 6.1490,4.4222 L 6.1695,4.4222 L 6.1695,4.4010 L 6.2105,4.4010 L 6.2105,4.3798 L 6.2310,4.3798 L 6.2515,4.3587 L 8.1782,4.3587 L 8.1987,4.3798 L 8.2192,4.3798 L 8.2192,4.4010 L 8.2602,4.4010 L 8.2602,4.4222 L 8.2807,4.4222 L 8.2807,4.4645 L 8.3012,4.4645 L 8.3012,4.5068 L 8.3217,4.5068 L 8.3217,4.8453 L 8.3217,4.8665 Z" stroke="#000000" stroke-width="0.1202" stroke-linecap="round" stroke-linejoin="round" fill="#161616"/>
        <path d="M 8.0143,4.9511 L 8.0143,4.9088 L 7.9938,4.8665 L 7.9528,4.8453 L 6.4975,4.8453 L 6.4565,4.8665 L 6.4360,4.9088 L 6.4360,5.2473 L 6.4565,5.2897 L 6.4975,5.3108 L 7.9528,5.3108 L 7.9938,5.2897 L 8.0143,5.2473 L 8.0143,5.2050 L 8.0143,4.9511 Z" stroke="#000000" stroke-width="0.1202" stroke-linecap="round" stroke-linejoin="round" fill="#CCCCCC"/>
        <path d="M 6.8049,4.7819 L 6.6000,4.7819 L 6.6000,4.8453 L 6.8049,4.8453 L 6.8049,4.7819 Z" stroke="#000000" stroke-width="0.1202" stroke-linecap="round" stroke-linejoin="round" fill="#D6D6B1"/>
        <path d="M 7.1329,4.7819 L 6.9279,4.7819 L 6.9279,4.8453 L 7.1329,4.8453 L 7.1329,4.7819 Z" stroke="#000000" stroke-width="0.1202" stroke-linecap="round" stroke-linejoin="round" fill="#D6D6B1"/>
        <path d="M 7.4813,4.7819 L 7.2764,4.7819 L 7.2764,4.8453 L 7.4813,4.8453 L 7.4813,4.7819 Z" stroke="#000000" stroke-width="0.1202" stroke-linecap="round" stroke-linejoin="round" fill="#D6D6B1"/>
        <path d="M 7.8093,4.7819 L 7.6043,4.7819 L 7.6043,4.8453 L 7.8093,4.8453 L 7.8093,4.7819 Z" stroke="#000000" stroke-width="0.1202" stroke-linecap="round" stroke-linejoin="round" fill="#D6D6B1"/>
        <path d="M 10.2231,3.4203 L 10.1809,3.4203 L 10.1809,3.4343 L 10.1527,3.4343 L 10.1387,3.4483 L 10.1246,3.4483 L 10.1246,3.4623 L 10.1106,3.4623 L 10.1106,3.4764 L 10.0965,3.4764 L 10.0965,3.4904 L 10.0824,3.5044 L 10.0824,3.5324 L 10.0684,3.5324 L 10.0684,4.9062 L 10.0824,4.9062 L 10.0824,4.9342 L 10.0965,4.9482 L 10.0965,4.9622 L 10.1106,4.9622 L 10.1106,4.9762 L 10.1246,4.9762 L 10.1246,4.9903 L 10.1387,4.9903 L 10.1527,5.0043 L 10.1809,5.0043 L 10.1809,5.0183 L 13.6964,5.0183 L 13.6964,5.0043 L 13.7245,5.0043 L 13.7386,4.9903 L 13.7526,4.9903 L 13.7526,4.9762 L 13.7667,4.9762 L 13.7667,4.9622 L 13.7807,4.9622 L 13.7807,4.9482 L 13.7948,4.9342 L 13.7948,4.9062 L 13.8089,4.9062 L 13.8089,3.5324 L 13.7948,3.5324 L 13.7948,3.5044 L 13.7807,3.4904 L 13.7807,3.4764 L 13.7667,3.4764 L 13.7667,3.4623 L 13.7526,3.4623 L 13.7526,3.4483 L 13.7386,3.4483 L 13.7245,3.4343 L 13.6964,3.4343 L 13.6964,3.4203 L 10.2371,3.4203 L 10.2231,3.4203 Z" stroke="#000000" stroke-width="0.1202" stroke-linecap="round" stroke-linejoin="round" fill="#BFBFBF"/>
        <path d="M 10.2793,3.5465 L 10.2371,3.5465 L 10.2371,3.5605 L 10.2231,3.5605 L 10.2231,3.5745 L 10.2090,3.5745 L 10.2090,3.5885 L 10.1949,3.5885 L 10.1949,4.8501 L 10.2090,4.8641 L 10.2090,4.8781 L 10.2231,4.8781 L 10.2231,4.8921 L 10.2371,4.8921 L 10.2512,4.9062 L 13.6401,4.9062 L 13.6401,4.8921 L 13.6542,4.8921 L 13.6542,4.8781 L 13.6682,4.8781 L 13.6682,4.8641 L 13.6823,4.8501 L 13.6823,3.5885 L 13.6682,3.5885 L 13.6682,3.5745 L 13.6542,3.5605 L 13.6401,3.5605 L 13.6401,3.5465 L 10.2934,3.5465 L 10.2793,3.5465 Z" stroke="#F7DDB9" stroke-width="0.1202" stroke-linecap="round" stroke-linejoin="round" fill="#000000"/>
        <path d="M 11.0246,4.2473 L 10.7152,4.2473 L 10.7152,4.1772 L 11.0246,4.1772 L 11.0246,4.2473 Z" stroke="#000000" stroke-width="0.1202" stroke-linecap="round" stroke-linejoin="round" fill="#E2E2CC"/>
        <path d="M 11.7277,4.2473 L 11.4183,4.2473 L 11.4183,4.1772 L 11.7277,4.1772 L 11.7277,4.2473 Z" stroke="#000000" stroke-width="0.1202" stroke-linecap="round" stroke-linejoin="round" fill="#E2E2CC"/>
        <path d="M 12.4167,4.2473 L 12.1074,4.2473 L 12.1074,4.1772 L 12.4167,4.1772 L 12.4167,4.2473 Z" stroke="#000000" stroke-width="0.1202" stroke-linecap="round" stroke-linejoin="round" fill="#E2E2CC"/>
        <path d="M 13.1339,4.2473 L 12.8245,4.2473 L 12.8245,4.1772 L 13.1339,4.1772 L 13.1339,4.2473 Z" stroke="#000000" stroke-width="0.1202" stroke-linecap="round" stroke-linejoin="round" fill="#E2E2CC"/>
        <path d="M 13.4714,3.8128 L 13.4714,3.7848 L 13.4573,3.7567 L 13.4292,3.7427 L 10.4481,3.7427 L 10.4199,3.7567 L 10.4059,3.7848 L 10.4059,4.1352 L 10.4199,4.1632 L 10.4481,4.1772 L 13.4292,4.1772 L 13.4573,4.1632 L 13.4714,4.1352 L 13.4714,4.1072 L 13.4714,3.8128 Z" stroke="#000000" stroke-width="0.1202" stroke-linecap="round" stroke-linejoin="round" fill="#7F7F7F"/>
        <path d="M 13.3589,3.9530 L 13.3448,3.8969 L 13.2886,3.8408 L 13.2323,3.8268 L 10.6449,3.8268 L 10.5887,3.8408 L 10.5324,3.8969 L 10.5184,3.9530 L 10.5324,4.0090 L 10.5887,4.0651 L 10.6449,4.0791 L 13.2323,4.0791 L 13.2886,4.0651 L 13.3448,4.0090 L 13.3589,3.9530 Z" stroke="#999999" stroke-width="0.1202" stroke-linecap="round" stroke-linejoin="round" fill="#999999"/>
        <text font-family="Arial" fill="#000000" style="white-space:pre;" font-weight="400" text-anchor="start" x="15.7916" y="4.3192" font-size="0.1266"><![CDATA[1]]></text>
        <text font-family="Arial" fill="#000000" style="white-space:pre;" font-weight="400" text-anchor="start" x="16.3119" y="4.3192" font-size="0.1266"><![CDATA[2]]></text>
      </g>
      <!--emf-blob end-->
    </g>
  </g>
</svg>
