<svg xmlns="http://www.w3.org/2000/svg" xmlns:xlink="http://www.w3.org/1999/xlink" version="1.1" width="7.0032000000" height="0.6944000000" viewBox="0 0 126.0567 12.5008">
  <title><![CDATA[FSW-124E-FPOE]]></title>
  <g transform=" scale(4.000000) ">
    <!--converted by libvisio2svg-->
    <g transform=" translate(0.000000,0.000000) ">
      <!--emf-blob start-->
      <g transform="translate(-0.0000, -0.0000)">
        <path d="M 5.0275,2.1484 L 5.0275,3.0033 L 5.8073,3.0033 " stroke="#000000" stroke-width="0.1201" stroke-linecap="round" stroke-linejoin="round" fill="none"/>
        <path d="M 5.8073,2.1484 L 7.3463,2.1484 " stroke="#000000" stroke-width="0.1201" stroke-linecap="round" stroke-linejoin="round" fill="none"/>
        <path d="M 6.5665,2.1484 L 6.5665,3.0033 " stroke="#000000" stroke-width="0.1201" stroke-linecap="round" stroke-linejoin="round" fill="none"/>
        <path d="M 7.7362,2.1484 L 7.7362,3.0033 " stroke="#000000" stroke-width="0.1201" stroke-linecap="round" stroke-linejoin="round" fill="none"/>
        <path d="M 7.7362,2.1484 L 7.7362,3.0033 " stroke="#000000" stroke-width="0.1201" stroke-linecap="round" stroke-linejoin="round" fill="none"/>
        <path d="M 8.4954,3.0033 L 8.4954,2.1484 L 9.2752,3.0033 L 10.0550,2.1484 L 10.0550,3.0033 " stroke="#000000" stroke-width="0.1201" stroke-linecap="round" stroke-linejoin="round" fill="none"/>
        <path d="M 10.4244,3.0033 L 11.2041,2.1484 L 11.9839,3.0033 " stroke="#000000" stroke-width="0.1201" stroke-linecap="round" stroke-linejoin="round" fill="none"/>
        <path d="M 10.6296,2.7896 L 11.7787,2.7896 " stroke="#000000" stroke-width="0.1201" stroke-linecap="round" stroke-linejoin="round" fill="none"/>
        <path d="M 2.7087,3.0033 L 3.4885,2.1484 L 4.2682,3.0033 " stroke="#000000" stroke-width="0.1201" stroke-linecap="round" stroke-linejoin="round" fill="none"/>
        <path d="M 2.9139,2.7896 L 4.0630,2.7896 " stroke="#000000" stroke-width="0.1201" stroke-linecap="round" stroke-linejoin="round" fill="none"/>
        <path d="M 126.0005,0.0281 L 0.0281,0.0281 L 0.0281,12.4295 L 126.0005,12.4295 L 126.0005,0.0281 Z" stroke="#000000" stroke-width="0.1201" stroke-linecap="round" stroke-linejoin="round" fill="#BFBFBF"/>
        <path d="M 124.9179,1.4169 L 124.9038,1.3187 L 124.8757,1.2345 L 124.8335,1.1644 L 124.7773,1.0942 L 124.7070,1.0381 L 124.6367,0.9960 L 124.5523,0.9680 L 124.4539,0.9540 L 1.5887,0.9540 L 1.4903,0.9680 L 1.4059,0.9960 L 1.3356,1.0381 L 1.2653,1.0942 L 1.2091,1.1644 L 1.1669,1.2345 L 1.1388,1.3187 L 1.1248,1.4169 L 1.1248,11.0547 L 1.1388,11.1529 L 1.1669,11.2371 L 1.2091,11.3072 L 1.2653,11.3773 L 1.3356,11.4335 L 1.4059,11.4755 L 1.4903,11.5036 L 1.5887,11.5176 L 124.4539,11.5176 L 124.5523,11.5036 L 124.6367,11.4755 L 124.7070,11.4335 L 124.7773,11.3773 L 124.8335,11.3072 L 124.8757,11.2371 L 124.9038,11.1529 L 124.9179,11.0547 L 124.9179,1.4169 Z" stroke="#7F7F7F" stroke-width="0.1201" stroke-linecap="round" stroke-linejoin="round" fill="#DDDDDD"/>
        <path d="M 76.7082,2.6935 L 102.6900,2.6935 L 102.6900,9.8622 L 76.7082,9.8622 L 76.7082,2.6935 Z" stroke="#000000" stroke-width="0.1201" stroke-linecap="round" stroke-linejoin="round" fill="#000000"/>
        <path d="M 4.9630,6.0745 L 9.6588,6.0745 L 9.6588,9.8622 L 4.9630,9.8622 L 4.9630,6.0745 Z" stroke="#000000" stroke-width="0.1201" stroke-linecap="round" stroke-linejoin="round" fill="#000000"/>
        <path d="M 5.0333,6.1306 L 9.5885,6.1306 L 9.5885,9.7781 L 5.0333,9.7781 L 5.0333,6.1306 Z" stroke="#000000" stroke-width="0.1201" stroke-linecap="round" stroke-linejoin="round" fill="#EAEAEA"/>
        <path d="M 13.8766,8.0104 L 13.1034,8.0104 L 13.1034,8.2630 L 13.8766,8.2630 L 13.8766,8.0104 Z" stroke="#000000" stroke-width="0.1201" stroke-linecap="round" stroke-linejoin="round" fill="#00FF00"/>
        <path d="M 13.8766,6.8040 L 13.1034,6.8040 L 13.1034,7.0565 L 13.8766,7.0565 L 13.8766,6.8040 Z" stroke="#000000" stroke-width="0.1201" stroke-linecap="round" stroke-linejoin="round" fill="#00FF00"/>
        <path d="M 105.8674,7.6036 L 105.0941,7.6036 L 105.0941,7.8561 L 105.8674,7.8561 L 105.8674,7.6036 Z" stroke="#000000" stroke-width="0.1201" stroke-linecap="round" stroke-linejoin="round" fill="#00FF00"/>
        <path d="M 114.7670,7.6036 L 113.9937,7.6036 L 113.9937,7.8561 L 114.7670,7.8561 L 114.7670,7.6036 Z" stroke="#000000" stroke-width="0.1201" stroke-linecap="round" stroke-linejoin="round" fill="#00FF00"/>
        <path d="M 76.7785,2.7496 L 102.6056,2.7496 L 102.6056,9.7781 L 76.7785,9.7781 L 76.7785,2.7496 Z" stroke="#000000" stroke-width="0.1201" stroke-linecap="round" stroke-linejoin="round" fill="#EAEAEA"/>
        <path d="M 48.3222,2.6935 L 74.3040,2.6935 L 74.3040,9.8622 L 48.3222,9.8622 L 48.3222,2.6935 Z" stroke="#000000" stroke-width="0.1201" stroke-linecap="round" stroke-linejoin="round" fill="#000000"/>
        <path d="M 48.3925,2.7496 L 74.2196,2.7496 L 74.2196,9.7781 L 48.3925,9.7781 L 48.3925,2.7496 Z" stroke="#000000" stroke-width="0.1201" stroke-linecap="round" stroke-linejoin="round" fill="#EAEAEA"/>
        <path d="M 105.8674,4.2086 L 105.0941,4.2086 L 105.0941,4.4612 L 105.8674,4.4612 L 105.8674,4.2086 Z" stroke="#000000" stroke-width="0.1201" stroke-linecap="round" stroke-linejoin="round" fill="#00FF00"/>
        <path d="M 114.7670,4.2086 L 113.9937,4.2086 L 113.9937,4.4612 L 114.7670,4.4612 L 114.7670,4.2086 Z" stroke="#000000" stroke-width="0.1201" stroke-linecap="round" stroke-linejoin="round" fill="#00FF00"/>
        <path d="M 13.8766,9.2029 L 13.1034,9.2029 L 13.1034,9.4554 L 13.8766,9.4554 L 13.8766,9.2029 Z" stroke="#000000" stroke-width="0.1201" stroke-linecap="round" stroke-linejoin="round" fill="#FF7F00"/>
        <path d="M 111.9973,2.5813 L 107.6248,2.5813 L 107.6248,9.8622 L 111.9973,9.8622 L 111.9973,2.5813 Z" stroke="#000000" stroke-width="0.1201" stroke-linecap="round" stroke-linejoin="round" fill="#DDDDDD"/>
        <path d="M 111.7864,5.4572 L 107.8216,5.4572 L 107.8216,2.7496 L 111.7864,2.7496 L 111.7864,5.4572 Z" stroke="#7F7F7F" stroke-width="0.1201" stroke-linecap="round" stroke-linejoin="round" fill="#7F7F7F"/>
        <path d="M 111.7864,9.6378 L 107.8216,9.6378 L 107.8216,6.9302 L 111.7864,6.9302 L 111.7864,9.6378 Z" stroke="#7F7F7F" stroke-width="0.1201" stroke-linecap="round" stroke-linejoin="round" fill="#7F7F7F"/>
        <path d="M 107.8216,3.5633 L 107.8216,7.1547 " stroke="#848484" stroke-width="0.1201" stroke-linecap="round" stroke-linejoin="round" fill="none"/>
        <path d="M 111.7864,3.5633 L 111.7864,7.1547 " stroke="#848484" stroke-width="0.1201" stroke-linecap="round" stroke-linejoin="round" fill="none"/>
        <path d="M 110.8725,5.4291 L 108.7355,5.4291 L 108.7355,5.6676 L 110.8725,5.6676 L 110.8725,5.4291 Z" stroke="#7F7F7F" stroke-width="0.1201" stroke-linecap="round" stroke-linejoin="round" fill="#7F7F7F"/>
        <path d="M 110.7741,5.5273 L 108.8480,5.5273 L 108.8480,5.6676 L 110.7741,5.6676 L 110.7741,5.5273 Z" stroke="#7F7F7F" stroke-width="0.1201" stroke-linecap="round" stroke-linejoin="round" fill="#DDDDDD"/>
        <path d="M 110.8725,6.7198 L 108.7355,6.7198 L 108.7355,6.9583 L 110.8725,6.9583 L 110.8725,6.7198 Z" stroke="#7F7F7F" stroke-width="0.1201" stroke-linecap="round" stroke-linejoin="round" fill="#7F7F7F"/>
        <path d="M 110.7741,6.7198 L 108.8480,6.7198 L 108.8480,6.8601 L 110.7741,6.8601 L 110.7741,6.7198 Z" stroke="#7F7F7F" stroke-width="0.1201" stroke-linecap="round" stroke-linejoin="round" fill="#DDDDDD"/>
        <path d="M 107.7935,10.5076 L 107.6107,10.9004 L 107.9763,10.9004 L 107.7935,10.5076 Z" stroke="#000000" stroke-width="0.1201" stroke-linecap="round" stroke-linejoin="round" fill="#000000"/>
        <path d="M 111.8848,10.5076 L 112.0816,10.9004 L 112.2644,10.5076 L 111.8848,10.5076 Z" stroke="#000000" stroke-width="0.1201" stroke-linecap="round" stroke-linejoin="round" fill="#000000"/>
        <path d="M 120.8828,2.5813 L 116.5104,2.5813 L 116.5104,9.8622 L 120.8828,9.8622 L 120.8828,2.5813 Z" stroke="#000000" stroke-width="0.1201" stroke-linecap="round" stroke-linejoin="round" fill="#DDDDDD"/>
        <path d="M 120.6719,5.4572 L 116.7072,5.4572 L 116.7072,2.7496 L 120.6719,2.7496 L 120.6719,5.4572 Z" stroke="#7F7F7F" stroke-width="0.1201" stroke-linecap="round" stroke-linejoin="round" fill="#7F7F7F"/>
        <path d="M 120.6719,9.6378 L 116.7072,9.6378 L 116.7072,6.9302 L 120.6719,6.9302 L 120.6719,9.6378 Z" stroke="#7F7F7F" stroke-width="0.1201" stroke-linecap="round" stroke-linejoin="round" fill="#7F7F7F"/>
        <path d="M 116.7072,3.5633 L 116.7072,7.1547 " stroke="#848484" stroke-width="0.1201" stroke-linecap="round" stroke-linejoin="round" fill="none"/>
        <path d="M 116.7072,3.5633 L 116.7072,7.1547 " stroke="#848484" stroke-width="0.1201" stroke-linecap="round" stroke-linejoin="round" fill="none"/>
        <path d="M 120.6719,3.5633 L 120.6719,7.1547 " stroke="#848484" stroke-width="0.1201" stroke-linecap="round" stroke-linejoin="round" fill="none"/>
        <path d="M 119.7581,5.4291 L 117.6211,5.4291 L 117.6211,5.6676 L 119.7581,5.6676 L 119.7581,5.4291 Z" stroke="#7F7F7F" stroke-width="0.1201" stroke-linecap="round" stroke-linejoin="round" fill="#7F7F7F"/>
        <path d="M 119.6597,5.5273 L 117.7335,5.5273 L 117.7335,5.6676 L 119.6597,5.6676 L 119.6597,5.5273 Z" stroke="#7F7F7F" stroke-width="0.1201" stroke-linecap="round" stroke-linejoin="round" fill="#DDDDDD"/>
        <path d="M 119.7581,6.7198 L 117.6211,6.7198 L 117.6211,6.9583 L 119.7581,6.9583 L 119.7581,6.7198 Z" stroke="#7F7F7F" stroke-width="0.1201" stroke-linecap="round" stroke-linejoin="round" fill="#7F7F7F"/>
        <path d="M 119.6597,6.7198 L 117.7335,6.7198 L 117.7335,6.8601 L 119.6597,6.8601 L 119.6597,6.7198 Z" stroke="#7F7F7F" stroke-width="0.1201" stroke-linecap="round" stroke-linejoin="round" fill="#DDDDDD"/>
        <path d="M 116.7212,10.5076 L 116.5385,10.9004 L 116.9040,10.9004 L 116.7212,10.5076 Z" stroke="#000000" stroke-width="0.1201" stroke-linecap="round" stroke-linejoin="round" fill="#000000"/>
        <path d="M 120.8125,10.5076 L 121.0094,10.9004 L 121.1921,10.5076 L 120.8125,10.5076 Z" stroke="#000000" stroke-width="0.1201" stroke-linecap="round" stroke-linejoin="round" fill="#000000"/>
        <path d="M 2.6527,3.0766 L 2.6366,3.0766 L 2.6285,3.0688 L 2.6205,3.0688 L 2.5963,3.0455 L 2.5963,3.0377 L 2.5882,3.0299 L 2.5882,2.1264 L 2.5963,2.1186 L 2.5963,2.1108 L 2.6043,2.1030 L 2.6124,2.1030 L 2.6124,2.0952 L 2.6205,2.0874 L 2.6285,2.0874 L 2.6366,2.0796 L 3.7332,2.0796 L 3.7412,2.0874 L 3.7493,2.0874 L 3.7735,2.1108 L 3.7735,2.1186 L 3.7815,2.1264 L 3.7815,2.3055 L 3.7735,2.3055 L 3.7735,2.2977 L 3.7654,2.2977 L 3.7654,2.2899 L 3.7574,2.2899 L 3.7574,2.2821 L 3.7412,2.2821 L 3.7412,2.2744 L 2.8543,2.2744 L 2.8543,2.2821 L 2.8382,2.2821 L 2.8382,2.2899 L 2.8301,2.2899 L 2.8301,2.3055 L 2.8220,2.3055 L 2.8220,3.0455 L 2.8301,3.0455 L 2.8301,3.0610 L 2.8382,3.0610 L 2.8382,3.0688 L 2.8462,3.0688 L 2.8462,3.0766 L 2.6608,3.0766 L 2.6527,3.0766 Z" stroke="#000000" stroke-width="0.1201" stroke-linecap="round" stroke-linejoin="round" fill="#000000"/>
        <path d="M 3.7009,2.5002 L 2.9027,2.5002 L 2.9027,2.4924 L 2.8865,2.4924 L 2.8865,2.4847 L 2.8785,2.4847 L 2.8785,2.4691 L 2.8704,2.4691 L 2.8704,2.6638 L 2.8785,2.6638 L 2.8785,2.6794 L 2.8865,2.6794 L 2.8865,2.6872 L 2.9027,2.6872 L 2.9027,2.6950 L 3.7170,2.6950 L 3.7332,2.6794 L 3.7412,2.6794 L 3.7574,2.6638 L 3.7574,2.6560 L 3.7654,2.6482 L 3.7654,2.6404 L 3.7735,2.6327 L 3.7735,2.6171 L 3.7815,2.6093 L 3.7815,2.5859 L 3.7735,2.5781 L 3.7735,2.5548 L 3.7574,2.5392 L 3.7574,2.5314 L 3.7493,2.5236 L 3.7412,2.5236 L 3.7412,2.5158 L 3.7332,2.5158 L 3.7251,2.5080 L 3.7170,2.5080 L 3.7090,2.5002 L 3.7009,2.5002 Z" stroke="#000000" stroke-width="0.1201" stroke-linecap="round" stroke-linejoin="round" fill="#000000"/>
        <path d="M 5.5635,2.6950 L 5.5473,2.6950 L 5.5473,2.6872 L 5.5312,2.6872 L 5.5312,2.6794 L 5.5231,2.6794 L 5.5231,2.6638 L 5.5151,2.6638 L 5.5151,2.4691 L 5.5231,2.4691 L 5.5231,2.4847 L 5.5312,2.4847 L 5.5312,2.4924 L 5.5473,2.4924 L 5.5473,2.5002 L 6.1924,2.5002 L 6.1924,2.2744 L 5.4990,2.2744 L 5.4990,2.2821 L 5.4828,2.2821 L 5.4828,2.2899 L 5.4748,2.2899 L 5.4748,2.3055 L 5.4667,2.3055 L 5.4667,3.0455 L 5.4748,3.0455 L 5.4748,3.0610 L 5.4828,3.0610 L 5.4828,3.0688 L 5.4909,3.0688 L 5.4909,3.0766 L 5.2813,3.0766 L 5.2732,3.0688 L 5.2651,3.0688 L 5.2409,3.0455 L 5.2409,3.0377 L 5.2329,3.0299 L 5.2329,2.1264 L 5.2409,2.1186 L 5.2409,2.1108 L 5.2490,2.1030 L 5.2571,2.1030 L 5.2571,2.0952 L 5.2651,2.0874 L 5.2732,2.0874 L 5.2813,2.0796 L 6.3778,2.0796 L 6.3859,2.0874 L 6.3939,2.0874 L 6.4181,2.1108 L 6.4181,2.1186 L 6.4262,2.1264 L 6.4262,2.6171 L 6.4181,2.6249 L 6.4181,2.6404 L 6.4101,2.6404 L 6.4101,2.6482 L 6.4020,2.6560 L 6.4020,2.6638 L 6.3939,2.6638 L 6.3939,2.6716 L 6.3859,2.6716 L 6.3859,2.6794 L 6.3778,2.6794 L 6.3778,2.6872 L 6.3698,2.6872 L 6.3617,2.6950 L 6.3698,2.7028 L 6.3778,2.7028 L 6.3778,2.7105 L 6.3859,2.7105 L 6.3859,2.7183 L 6.3939,2.7183 L 6.3939,2.7261 L 6.4020,2.7261 L 6.4020,2.7339 L 6.4101,2.7417 L 6.4101,2.7495 L 6.4181,2.7495 L 6.4181,2.7651 L 6.4262,2.7729 L 6.4262,3.0455 L 6.4343,3.0455 L 6.4343,3.0610 L 6.4423,3.0610 L 6.4423,3.0688 L 6.4504,3.0688 L 6.4504,3.0766 L 6.2408,3.0766 L 6.2327,3.0688 L 6.2246,3.0688 L 6.2004,3.0455 L 6.2004,3.0377 L 6.1924,3.0299 L 6.1924,2.6950 L 5.5715,2.6950 L 5.5635,2.6950 Z" stroke="#000000" stroke-width="0.1201" stroke-linecap="round" stroke-linejoin="round" fill="#000000"/>
        <path d="M 6.8455,2.2744 L 6.6036,2.2744 L 6.5955,2.2666 L 6.5875,2.2666 L 6.5633,2.2432 L 6.5633,2.2354 L 6.5552,2.2276 L 6.5552,2.1264 L 6.5633,2.1186 L 6.5633,2.1108 L 6.5713,2.1030 L 6.5794,2.1030 L 6.5794,2.0952 L 6.5875,2.0874 L 6.5955,2.0874 L 6.6036,2.0796 L 7.7002,2.0796 L 7.7082,2.0874 L 7.7163,2.0874 L 7.7405,2.1108 L 7.7405,2.1186 L 7.7485,2.1264 L 7.7485,2.3055 L 7.7405,2.3055 L 7.7405,2.2977 L 7.7324,2.2977 L 7.7324,2.2899 L 7.7243,2.2899 L 7.7243,2.2821 L 7.7082,2.2821 L 7.7082,2.2744 L 7.1116,2.2744 L 7.1116,2.2821 L 7.0954,2.2821 L 7.0954,2.2899 L 7.0874,2.2899 L 7.0874,2.3055 L 7.0793,2.3055 L 7.0793,3.0455 L 7.0874,3.0455 L 7.0874,3.0610 L 7.0954,3.0610 L 7.0954,3.0688 L 7.1035,3.0688 L 7.1035,3.0766 L 6.8939,3.0766 L 6.8858,3.0688 L 6.8777,3.0688 L 6.8535,3.0455 L 6.8535,3.0377 L 6.8455,3.0299 L 6.8455,2.2977 L 6.8455,2.2744 Z" stroke="#000000" stroke-width="0.1201" stroke-linecap="round" stroke-linejoin="round" fill="#000000"/>
        <path d="M 8.1114,3.0221 L 8.1114,3.0455 L 8.1194,3.0455 L 8.1194,3.0610 L 8.1275,3.0610 L 8.1275,3.0688 L 8.1356,3.0688 L 8.1356,3.0766 L 7.9259,3.0766 L 7.9179,3.0688 L 7.9098,3.0688 L 7.8856,3.0455 L 7.8856,3.0377 L 7.8775,3.0299 L 7.8775,2.1108 L 7.8695,2.1108 L 7.8695,2.0952 L 7.8614,2.0952 L 7.8614,2.0874 L 7.8533,2.0874 L 7.8533,2.0796 L 8.0630,2.0796 L 8.0710,2.0874 L 8.0791,2.0874 L 8.1033,2.1108 L 8.1033,2.1186 L 8.1114,2.1264 L 8.1114,3.0143 L 8.1114,3.0221 Z" stroke="#000000" stroke-width="0.1201" stroke-linecap="round" stroke-linejoin="round" fill="#000000"/>
        <path d="M 9.2563,2.2744 L 8.5629,2.2744 L 8.5629,2.2821 L 8.5468,2.2821 L 8.5468,2.2899 L 8.5387,2.2899 L 8.5387,2.3055 L 8.5306,2.3055 L 8.5306,3.0455 L 8.5387,3.0455 L 8.5387,3.0610 L 8.5468,3.0610 L 8.5468,3.0688 L 8.5548,3.0688 L 8.5548,3.0766 L 8.3452,3.0766 L 8.3371,3.0688 L 8.3291,3.0688 L 8.3049,3.0455 L 8.3049,3.0377 L 8.2968,3.0299 L 8.2968,2.1264 L 8.3049,2.1186 L 8.3049,2.1108 L 8.3129,2.1030 L 8.3210,2.1030 L 8.3210,2.0952 L 8.3291,2.0874 L 8.3371,2.0874 L 8.3452,2.0796 L 9.4418,2.0796 L 9.4498,2.0874 L 9.4579,2.0874 L 9.4821,2.1108 L 9.4821,2.1186 L 9.4901,2.1264 L 9.4901,3.0455 L 9.4982,3.0455 L 9.4982,3.0610 L 9.5063,3.0610 L 9.5063,3.0688 L 9.5143,3.0688 L 9.5143,3.0766 L 9.3047,3.0766 L 9.2966,3.0688 L 9.2886,3.0688 L 9.2644,3.0455 L 9.2644,3.0377 L 9.2563,3.0299 L 9.2563,2.2977 L 9.2563,2.2744 Z" stroke="#000000" stroke-width="0.1201" stroke-linecap="round" stroke-linejoin="round" fill="#000000"/>
        <path d="M 10.6754,2.5002 L 9.9336,2.5002 L 9.9255,2.4924 L 9.9175,2.4924 L 9.9175,2.4847 L 9.9094,2.4847 L 9.9094,2.4691 L 9.9013,2.4691 L 9.9013,2.6638 L 9.9094,2.6638 L 9.9094,2.6794 L 9.9175,2.6794 L 9.9175,2.6872 L 9.9255,2.6872 L 9.9336,2.6950 L 10.6835,2.6950 L 10.6996,2.6794 L 10.7076,2.6794 L 10.7238,2.6638 L 10.7238,2.6560 L 10.7318,2.6482 L 10.7318,2.6404 L 10.7399,2.6327 L 10.7399,2.6171 L 10.7480,2.6093 L 10.7480,2.5781 L 10.7399,2.5703 L 10.7399,2.5470 L 10.7318,2.5470 L 10.7318,2.5392 L 10.7076,2.5158 L 10.6996,2.5158 L 10.6996,2.5080 L 10.6915,2.5080 L 10.6835,2.5002 L 10.6754,2.5002 Z" stroke="#000000" stroke-width="0.1201" stroke-linecap="round" stroke-linejoin="round" fill="#000000"/>
        <path d="M 11.2317,2.2744 L 10.9898,2.2744 L 10.9818,2.2666 L 10.9737,2.2666 L 10.9495,2.2432 L 10.9495,2.2354 L 10.9415,2.2276 L 10.9415,2.1264 L 10.9495,2.1186 L 10.9495,2.1108 L 10.9576,2.1030 L 10.9657,2.1030 L 10.9657,2.0952 L 10.9737,2.0874 L 10.9818,2.0874 L 10.9898,2.0796 L 12.0864,2.0796 L 12.0945,2.0874 L 12.1025,2.0874 L 12.1267,2.1108 L 12.1267,2.1186 L 12.1348,2.1264 L 12.1348,2.3055 L 12.1267,2.3055 L 12.1267,2.2977 L 12.1187,2.2977 L 12.1187,2.2899 L 12.1106,2.2899 L 12.1106,2.2821 L 12.0945,2.2821 L 12.0945,2.2744 L 11.4978,2.2744 L 11.4978,2.2821 L 11.4817,2.2821 L 11.4817,2.2899 L 11.4736,2.2899 L 11.4736,2.3055 L 11.4656,2.3055 L 11.4656,3.0455 L 11.4736,3.0455 L 11.4736,3.0610 L 11.4817,3.0610 L 11.4817,3.0688 L 11.4898,3.0688 L 11.4898,3.0766 L 11.2801,3.0766 L 11.2721,3.0688 L 11.2640,3.0688 L 11.2398,3.0455 L 11.2398,3.0377 L 11.2317,3.0299 L 11.2317,2.2977 L 11.2317,2.2744 Z" stroke="#000000" stroke-width="0.1201" stroke-linecap="round" stroke-linejoin="round" fill="#000000"/>
        <path d="M 10.7560,2.8819 L 10.7721,2.8819 L 10.7721,2.8741 L 10.7883,2.8741 L 10.7883,2.8663 L 10.7963,2.8663 L 10.7963,2.8585 L 10.8044,2.8585 L 10.8044,2.8507 L 10.8125,2.8507 L 10.8125,3.0299 L 10.8044,3.0377 L 10.8044,3.0455 L 10.7963,3.0533 L 10.7963,3.0610 L 10.7883,3.0610 L 10.7802,3.0688 L 10.7721,3.0688 L 10.7641,3.0766 L 9.6675,3.0766 L 9.6595,3.0688 L 9.6514,3.0688 L 9.6272,3.0455 L 9.6272,3.0377 L 9.6191,3.0299 L 9.6191,2.1264 L 9.6272,2.1186 L 9.6272,2.1108 L 9.6353,2.1030 L 9.6433,2.1030 L 9.6433,2.0952 L 9.6514,2.0874 L 9.6595,2.0874 L 9.6675,2.0796 L 10.7641,2.0796 L 10.7721,2.0874 L 10.7802,2.0874 L 10.8044,2.1108 L 10.8044,2.1186 L 10.8125,2.1264 L 10.8125,2.3055 L 10.8044,2.3055 L 10.8044,2.2977 L 10.7963,2.2977 L 10.7963,2.2899 L 10.7883,2.2899 L 10.7883,2.2821 L 10.7721,2.2821 L 10.7721,2.2744 L 9.8852,2.2744 L 9.8852,2.2821 L 9.8691,2.2821 L 9.8691,2.2899 L 9.8610,2.2899 L 9.8610,2.3055 L 9.8530,2.3055 L 9.8530,2.8819 L 10.7480,2.8819 L 10.7560,2.8819 Z" stroke="#000000" stroke-width="0.1201" stroke-linecap="round" stroke-linejoin="round" fill="#000000"/>
        <path d="M 4.3137,2.7884 L 4.3137,3.0766 L 4.7007,3.0766 L 4.7007,2.7884 L 4.3137,2.7884 Z" stroke="#FF0000" stroke-width="0.1201" stroke-linecap="round" stroke-linejoin="round" fill="#FF0000"/>
        <path d="M 3.9105,2.4379 L 4.2411,2.4379 L 4.2411,2.7183 L 3.9105,2.7183 L 3.9105,2.4379 Z" stroke="#FF0000" stroke-width="0.1201" stroke-linecap="round" stroke-linejoin="round" fill="#FF0000"/>
        <path d="M 4.7733,2.7884 L 4.7733,3.0766 L 4.8942,3.0766 L 4.9023,3.0688 L 4.9345,3.0688 L 4.9426,3.0610 L 4.9587,3.0610 L 4.9749,3.0533 L 4.9829,3.0455 L 4.9991,3.0377 L 5.0152,3.0221 L 5.0313,3.0143 L 5.0394,3.0065 L 5.0474,2.9909 L 5.0555,2.9832 L 5.0877,2.9208 L 5.0877,2.9053 L 5.0958,2.8819 L 5.0958,2.8585 L 5.1039,2.8352 L 5.1039,2.7884 L 4.7813,2.7884 L 4.7733,2.7884 Z" stroke="#FF0000" stroke-width="0.1201" stroke-linecap="round" stroke-linejoin="round" fill="#FF0000"/>
        <path d="M 4.7733,2.4379 L 5.1039,2.4379 L 5.1039,2.7183 L 4.7733,2.7183 L 4.7733,2.4379 Z" stroke="#FF0000" stroke-width="0.1201" stroke-linecap="round" stroke-linejoin="round" fill="#FF0000"/>
        <path d="M 4.2411,2.7884 L 4.2411,3.0766 L 4.1202,3.0766 L 4.1121,3.0688 L 4.0799,3.0688 L 4.0718,3.0610 L 4.0557,3.0610 L 4.0396,3.0533 L 4.0315,3.0455 L 4.0154,3.0377 L 3.9992,3.0221 L 3.9831,3.0143 L 3.9751,3.0065 L 3.9670,2.9909 L 3.9589,2.9832 L 3.9267,2.9208 L 3.9267,2.9053 L 3.9186,2.8819 L 3.9186,2.8585 L 3.9105,2.8352 L 3.9105,2.7884 L 4.2331,2.7884 L 4.2411,2.7884 Z" stroke="#FF0000" stroke-width="0.1201" stroke-linecap="round" stroke-linejoin="round" fill="#FF0000"/>
        <path d="M 4.3137,2.0796 L 4.3137,2.3678 L 4.7007,2.3678 L 4.7007,2.0796 L 4.3137,2.0796 Z" stroke="#FF0000" stroke-width="0.1201" stroke-linecap="round" stroke-linejoin="round" fill="#FF0000"/>
        <path d="M 4.7733,2.3678 L 4.7733,2.0796 L 4.8942,2.0796 L 4.9023,2.0874 L 4.9345,2.0874 L 4.9426,2.0952 L 4.9587,2.0952 L 4.9749,2.1030 L 4.9829,2.1108 L 4.9991,2.1186 L 5.0152,2.1342 L 5.0313,2.1419 L 5.0394,2.1497 L 5.0474,2.1653 L 5.0555,2.1731 L 5.0877,2.2354 L 5.0877,2.2510 L 5.0958,2.2744 L 5.0958,2.2977 L 5.1039,2.3211 L 5.1039,2.3678 L 4.7813,2.3678 L 4.7733,2.3678 Z" stroke="#FF0000" stroke-width="0.1201" stroke-linecap="round" stroke-linejoin="round" fill="#FF0000"/>
        <path d="M 4.2411,2.3678 L 4.2411,2.0796 L 4.1202,2.0796 L 4.1121,2.0874 L 4.0799,2.0874 L 4.0718,2.0952 L 4.0557,2.0952 L 4.0396,2.1030 L 4.0315,2.1108 L 4.0154,2.1186 L 3.9992,2.1342 L 3.9831,2.1419 L 3.9751,2.1497 L 3.9670,2.1653 L 3.9589,2.1731 L 3.9267,2.2354 L 3.9267,2.2510 L 3.9186,2.2744 L 3.9186,2.2977 L 3.9105,2.3211 L 3.9105,2.3678 L 4.2331,2.3678 L 4.2411,2.3678 Z" stroke="#FF0000" stroke-width="0.1201" stroke-linecap="round" stroke-linejoin="round" fill="#FF0000"/>
        <text font-family="Symbol" fill="#000000" style="white-space:pre;" text-anchor="start" x="11.9239" y="2.9470" font-size="0.3443"><![CDATA[]]></text>
        <text font-family="Arial" fill="#000000" style="white-space:pre;" font-weight="400" text-anchor="start" x="13.3738" y="3.4058" font-size="0.0436"><![CDATA[POWER]]></text>
        <text font-family="Arial" fill="#000000" style="white-space:pre;" font-weight="400" text-anchor="start" x="13.3738" y="3.5171" font-size="0.0436"><![CDATA[ALARM]]></text>
        <text font-family="Arial" fill="#000000" style="white-space:pre;" font-weight="400" text-anchor="start" x="12.6270" y="3.2593" font-size="0.0436"><![CDATA[CONSOLE]]></text>
        <text font-family="Arial" fill="#FF0000" style="white-space:pre;" font-weight="400" text-anchor="start" x="16.4529" y="2.9647" font-size="0.0533"><![CDATA[1]]></text>
        <text font-family="Arial" fill="#FF0000" style="white-space:pre;" font-weight="400" text-anchor="start" x="16.8215" y="2.9647" font-size="0.0533"><![CDATA[3]]></text>
        <text font-family="Arial" fill="#FF0000" style="white-space:pre;" font-weight="400" text-anchor="start" x="17.1900" y="2.9647" font-size="0.0533"><![CDATA[5]]></text>
        <text font-family="Arial" fill="#FF0000" style="white-space:pre;" font-weight="400" text-anchor="start" x="17.5585" y="2.9647" font-size="0.0533"><![CDATA[7]]></text>
        <text font-family="Arial" fill="#FF0000" style="white-space:pre;" font-weight="400" text-anchor="start" x="17.9271" y="2.9647" font-size="0.0533"><![CDATA[9]]></text>
        <text font-family="Arial" fill="#FF0000" style="white-space:pre;" font-weight="400" text-anchor="start" x="18.2810" y="2.9647" font-size="0.0533"><![CDATA[11]]></text>
        <text font-family="Arial" fill="#FF0000" style="white-space:pre;" font-weight="400" text-anchor="start" x="18.8872" y="2.9647" font-size="0.0533"><![CDATA[13]]></text>
        <text font-family="Arial" fill="#FF0000" style="white-space:pre;" font-weight="400" text-anchor="start" x="19.2557" y="2.9647" font-size="0.0533"><![CDATA[15]]></text>
        <text font-family="Arial" fill="#FF0000" style="white-space:pre;" font-weight="400" text-anchor="start" x="19.6242" y="2.9647" font-size="0.0533"><![CDATA[17]]></text>
        <text font-family="Arial" fill="#FF0000" style="white-space:pre;" font-weight="400" text-anchor="start" x="19.9928" y="2.9647" font-size="0.0533"><![CDATA[19]]></text>
        <text font-family="Arial" fill="#FF0000" style="white-space:pre;" font-weight="400" text-anchor="start" x="20.3613" y="2.9647" font-size="0.0533"><![CDATA[21]]></text>
        <text font-family="Arial" fill="#FF0000" style="white-space:pre;" font-weight="400" text-anchor="start" x="20.7298" y="2.9647" font-size="0.0533"><![CDATA[23]]></text>
        <text font-family="Arial" fill="#FF0000" style="white-space:pre;" font-weight="400" text-anchor="start" x="18.8872" y="3.7533" font-size="0.0533"><![CDATA[14]]></text>
        <text font-family="Arial" fill="#FF0000" style="white-space:pre;" font-weight="400" text-anchor="start" x="19.2557" y="3.7533" font-size="0.0533"><![CDATA[16]]></text>
        <text font-family="Arial" fill="#FF0000" style="white-space:pre;" font-weight="400" text-anchor="start" x="19.6242" y="3.7533" font-size="0.0533"><![CDATA[18]]></text>
        <text font-family="Arial" fill="#FF0000" style="white-space:pre;" font-weight="400" text-anchor="start" x="19.9928" y="3.7533" font-size="0.0533"><![CDATA[20]]></text>
        <text font-family="Arial" fill="#FF0000" style="white-space:pre;" font-weight="400" text-anchor="start" x="20.3613" y="3.7533" font-size="0.0533"><![CDATA[22]]></text>
        <text font-family="Arial" fill="#FF0000" style="white-space:pre;" font-weight="400" text-anchor="start" x="20.7298" y="3.7533" font-size="0.0533"><![CDATA[24]]></text>
        <text font-family="Arial" fill="#FF0000" style="white-space:pre;" font-weight="400" text-anchor="start" x="16.4529" y="3.7533" font-size="0.0533"><![CDATA[2]]></text>
        <text font-family="Arial" fill="#FF0000" style="white-space:pre;" font-weight="400" text-anchor="start" x="16.8215" y="3.7533" font-size="0.0533"><![CDATA[4]]></text>
        <text font-family="Arial" fill="#FF0000" style="white-space:pre;" font-weight="400" text-anchor="start" x="17.1900" y="3.7533" font-size="0.0533"><![CDATA[6]]></text>
        <text font-family="Arial" fill="#FF0000" style="white-space:pre;" font-weight="400" text-anchor="start" x="17.5585" y="3.7533" font-size="0.0533"><![CDATA[8]]></text>
        <text font-family="Arial" fill="#FF0000" style="white-space:pre;" font-weight="400" text-anchor="start" x="17.9125" y="3.7533" font-size="0.0533"><![CDATA[10]]></text>
        <text font-family="Arial" fill="#FF0000" style="white-space:pre;" font-weight="400" text-anchor="start" x="18.2810" y="3.7533" font-size="0.0533"><![CDATA[12]]></text>
        <text font-family="Arial" fill="#000000" style="white-space:pre;" font-weight="400" text-anchor="start" x="21.1080" y="3.2643" font-size="0.0436"><![CDATA[LINK/ACT]]></text>
        <text font-family="Arial" fill="#000000" style="white-space:pre;" font-weight="400" text-anchor="start" x="21.1080" y="3.5625" font-size="0.0436"><![CDATA[LINK/ACT]]></text>
        <text font-family="Arial" fill="#000000" style="white-space:pre;" font-weight="400" text-anchor="start" x="21.8791" y="3.5625" font-size="0.0436"><![CDATA[LINK/ACT]]></text>
        <text font-family="Arial" fill="#000000" style="white-space:pre;" font-weight="400" text-anchor="start" x="21.8791" y="3.2643" font-size="0.0436"><![CDATA[LINK/ACT]]></text>
        <text font-family="Arial" fill="#000000" style="white-space:pre;" font-weight="400" text-anchor="start" x="21.4960" y="3.7533" font-size="0.0533"><![CDATA[25/26]]></text>
        <text font-family="Arial" fill="#000000" style="white-space:pre;" font-weight="400" text-anchor="start" x="22.2621" y="3.7533" font-size="0.0533"><![CDATA[27/28]]></text>
        <text font-family="Arial" fill="#000000" style="white-space:pre;" font-weight="700" text-anchor="start" x="21.5105" y="2.9548" font-size="0.0873"><![CDATA[FortiSwitch 124E-]]></text>
        <text font-family="Arial" fill="#000000" style="white-space:pre;" font-weight="400" text-anchor="start" x="13.3738" y="3.6232" font-size="0.0436"><![CDATA[PoE MAX]]></text>
        <text font-family="Arial" fill="#FF0000" style="white-space:pre;" font-weight="700" text-anchor="start" x="22.2718" y="2.9548" font-size="0.0873"><![CDATA[FPOE]]></text>
        <path d="M 5.5675,6.5758 L 5.5675,8.6983 L 6.4605,8.6983 L 6.4605,9.1977 L 6.8233,9.1977 L 6.8233,9.6972 L 7.8838,9.6972 L 7.8838,9.1977 L 8.2466,9.1977 L 8.2466,8.6983 L 9.1396,8.6983 L 9.1396,6.5758 L 5.5675,6.5758 Z" stroke="#161616" stroke-width="0.1201" stroke-linecap="round" stroke-linejoin="round" fill="#000000"/>
        <path d="M 50.0064,2.8717 L 50.0064,3.0243 L 49.7814,3.0243 L 49.7814,3.4544 L 48.8392,3.4544 L 48.8392,3.4960 L 48.5439,3.4960 L 48.5439,3.0243 L 48.6002,3.0243 L 48.6002,3.4544 L 48.8392,3.4544 L 48.8392,4.4116 L 48.9377,4.4116 L 48.9377,4.9110 L 48.8392,4.9110 L 48.8392,5.9931 L 52.4392,5.9931 L 52.4392,4.9110 L 52.3408,4.9110 L 52.3408,4.4116 L 52.4392,4.4116 L 52.4392,3.4544 L 52.6783,3.4544 L 52.6783,3.0243 L 52.7346,3.0243 L 52.7346,3.4960 L 52.4392,3.4960 L 52.4392,3.4544 L 51.4971,3.4544 L 51.4971,3.0243 L 51.2721,3.0243 L 51.2721,2.8717 L 50.0064,2.8717 Z" stroke="#000000" stroke-width="0.1201" stroke-linecap="round" stroke-linejoin="round" fill="#000000"/>
        <path d="M 49.7814,3.0382 L 48.6002,3.0382 L 48.6002,3.4682 L 49.7814,3.4682 L 49.7814,3.0382 Z" stroke="#494949" stroke-width="0.1201" stroke-linecap="round" stroke-linejoin="round" fill="#000000"/>
        <path d="M 52.6783,3.0382 L 51.4971,3.0382 L 51.4971,3.4682 L 52.6783,3.4682 L 52.6783,3.0382 Z" stroke="#494949" stroke-width="0.1201" stroke-linecap="round" stroke-linejoin="round" fill="#000000"/>
        <path d="M 50.0064,9.6972 L 50.0064,9.5446 L 49.7814,9.5446 L 49.7814,9.1145 L 48.8392,9.1145 L 48.8392,9.0729 L 48.5439,9.0729 L 48.5439,9.5446 L 48.6002,9.5446 L 48.6002,9.1145 L 48.8392,9.1145 L 48.8392,8.1573 L 48.9377,8.1573 L 48.9377,7.6578 L 48.8392,7.6578 L 48.8392,6.5758 L 52.4392,6.5758 L 52.4392,7.6578 L 52.3408,7.6578 L 52.3408,8.1573 L 52.4392,8.1573 L 52.4392,9.1145 L 52.6783,9.1145 L 52.6783,9.5446 L 52.7346,9.5446 L 52.7346,9.0729 L 52.4392,9.0729 L 52.4392,9.1145 L 51.4971,9.1145 L 51.4971,9.5446 L 51.2721,9.5446 L 51.2721,9.6972 L 50.0064,9.6972 Z" stroke="#000000" stroke-width="0.1201" stroke-linecap="round" stroke-linejoin="round" fill="#000000"/>
        <path d="M 49.7814,9.1145 L 48.6002,9.1145 L 48.6002,9.5446 L 49.7814,9.5446 L 49.7814,9.1145 Z" stroke="#494949" stroke-width="0.1201" stroke-linecap="round" stroke-linejoin="round" fill="#000000"/>
        <path d="M 52.6783,9.1145 L 51.4971,9.1145 L 51.4971,9.5446 L 52.6783,9.5446 L 52.6783,9.1145 Z" stroke="#494949" stroke-width="0.1201" stroke-linecap="round" stroke-linejoin="round" fill="#000000"/>
        <path d="M 54.2814,2.8717 L 54.2814,3.0243 L 54.0564,3.0243 L 54.0564,3.4544 L 53.1143,3.4544 L 53.1143,3.4960 L 52.8189,3.4960 L 52.8189,3.0243 L 52.8752,3.0243 L 52.8752,3.4544 L 53.1143,3.4544 L 53.1143,4.4116 L 53.2127,4.4116 L 53.2127,4.9110 L 53.1143,4.9110 L 53.1143,5.9931 L 56.7143,5.9931 L 56.7143,4.9110 L 56.6158,4.9110 L 56.6158,4.4116 L 56.7143,4.4116 L 56.7143,3.4544 L 56.9533,3.4544 L 56.9533,3.0243 L 57.0096,3.0243 L 57.0096,3.4960 L 56.7143,3.4960 L 56.7143,3.4544 L 55.7721,3.4544 L 55.7721,3.0243 L 55.5471,3.0243 L 55.5471,2.8717 L 54.2814,2.8717 Z" stroke="#000000" stroke-width="0.1201" stroke-linecap="round" stroke-linejoin="round" fill="#000000"/>
        <path d="M 54.0564,3.0382 L 52.8752,3.0382 L 52.8752,3.4682 L 54.0564,3.4682 L 54.0564,3.0382 Z" stroke="#494949" stroke-width="0.1201" stroke-linecap="round" stroke-linejoin="round" fill="#000000"/>
        <path d="M 56.9533,3.0382 L 55.7721,3.0382 L 55.7721,3.4682 L 56.9533,3.4682 L 56.9533,3.0382 Z" stroke="#494949" stroke-width="0.1201" stroke-linecap="round" stroke-linejoin="round" fill="#000000"/>
        <path d="M 54.2814,9.6972 L 54.2814,9.5446 L 54.0564,9.5446 L 54.0564,9.1145 L 53.1143,9.1145 L 53.1143,9.0729 L 52.8189,9.0729 L 52.8189,9.5446 L 52.8752,9.5446 L 52.8752,9.1145 L 53.1143,9.1145 L 53.1143,8.1573 L 53.2127,8.1573 L 53.2127,7.6578 L 53.1143,7.6578 L 53.1143,6.5758 L 56.7143,6.5758 L 56.7143,7.6578 L 56.6158,7.6578 L 56.6158,8.1573 L 56.7143,8.1573 L 56.7143,9.1145 L 56.9533,9.1145 L 56.9533,9.5446 L 57.0096,9.5446 L 57.0096,9.0729 L 56.7143,9.0729 L 56.7143,9.1145 L 55.7721,9.1145 L 55.7721,9.5446 L 55.5471,9.5446 L 55.5471,9.6972 L 54.2814,9.6972 Z" stroke="#000000" stroke-width="0.1201" stroke-linecap="round" stroke-linejoin="round" fill="#000000"/>
        <path d="M 54.0564,9.1145 L 52.8752,9.1145 L 52.8752,9.5446 L 54.0564,9.5446 L 54.0564,9.1145 Z" stroke="#494949" stroke-width="0.1201" stroke-linecap="round" stroke-linejoin="round" fill="#000000"/>
        <path d="M 56.9533,9.1145 L 55.7721,9.1145 L 55.7721,9.5446 L 56.9533,9.5446 L 56.9533,9.1145 Z" stroke="#494949" stroke-width="0.1201" stroke-linecap="round" stroke-linejoin="round" fill="#000000"/>
        <path d="M 58.5565,2.8717 L 58.5565,3.0243 L 58.3315,3.0243 L 58.3315,3.4544 L 57.3893,3.4544 L 57.3893,3.4960 L 57.0940,3.4960 L 57.0940,3.0243 L 57.1502,3.0243 L 57.1502,3.4544 L 57.3893,3.4544 L 57.3893,4.4116 L 57.4877,4.4116 L 57.4877,4.9110 L 57.3893,4.9110 L 57.3893,5.9931 L 60.9893,5.9931 L 60.9893,4.9110 L 60.8908,4.9110 L 60.8908,4.4116 L 60.9893,4.4116 L 60.9893,3.4544 L 61.2283,3.4544 L 61.2283,3.0243 L 61.2846,3.0243 L 61.2846,3.4960 L 60.9893,3.4960 L 60.9893,3.4544 L 60.0471,3.4544 L 60.0471,3.0243 L 59.8221,3.0243 L 59.8221,2.8717 L 58.5565,2.8717 Z" stroke="#000000" stroke-width="0.1201" stroke-linecap="round" stroke-linejoin="round" fill="#000000"/>
        <path d="M 58.3315,3.0382 L 57.1502,3.0382 L 57.1502,3.4682 L 58.3315,3.4682 L 58.3315,3.0382 Z" stroke="#494949" stroke-width="0.1201" stroke-linecap="round" stroke-linejoin="round" fill="#000000"/>
        <path d="M 61.2283,3.0382 L 60.0471,3.0382 L 60.0471,3.4682 L 61.2283,3.4682 L 61.2283,3.0382 Z" stroke="#494949" stroke-width="0.1201" stroke-linecap="round" stroke-linejoin="round" fill="#000000"/>
        <path d="M 58.5565,9.6972 L 58.5565,9.5446 L 58.3315,9.5446 L 58.3315,9.1145 L 57.3893,9.1145 L 57.3893,9.0729 L 57.0940,9.0729 L 57.0940,9.5446 L 57.1502,9.5446 L 57.1502,9.1145 L 57.3893,9.1145 L 57.3893,8.1573 L 57.4877,8.1573 L 57.4877,7.6578 L 57.3893,7.6578 L 57.3893,6.5758 L 60.9893,6.5758 L 60.9893,7.6578 L 60.8908,7.6578 L 60.8908,8.1573 L 60.9893,8.1573 L 60.9893,9.1145 L 61.2283,9.1145 L 61.2283,9.5446 L 61.2846,9.5446 L 61.2846,9.0729 L 60.9893,9.0729 L 60.9893,9.1145 L 60.0471,9.1145 L 60.0471,9.5446 L 59.8221,9.5446 L 59.8221,9.6972 L 58.5565,9.6972 Z" stroke="#000000" stroke-width="0.1201" stroke-linecap="round" stroke-linejoin="round" fill="#000000"/>
        <path d="M 58.3315,9.1145 L 57.1502,9.1145 L 57.1502,9.5446 L 58.3315,9.5446 L 58.3315,9.1145 Z" stroke="#494949" stroke-width="0.1201" stroke-linecap="round" stroke-linejoin="round" fill="#000000"/>
        <path d="M 61.2283,9.1145 L 60.0471,9.1145 L 60.0471,9.5446 L 61.2283,9.5446 L 61.2283,9.1145 Z" stroke="#494949" stroke-width="0.1201" stroke-linecap="round" stroke-linejoin="round" fill="#000000"/>
        <path d="M 62.8315,2.8717 L 62.8315,3.0243 L 62.6065,3.0243 L 62.6065,3.4544 L 61.6643,3.4544 L 61.6643,3.4960 L 61.3690,3.4960 L 61.3690,3.0243 L 61.4252,3.0243 L 61.4252,3.4544 L 61.6643,3.4544 L 61.6643,4.4116 L 61.7627,4.4116 L 61.7627,4.9110 L 61.6643,4.9110 L 61.6643,5.9931 L 65.2643,5.9931 L 65.2643,4.9110 L 65.1659,4.9110 L 65.1659,4.4116 L 65.2643,4.4116 L 65.2643,3.4544 L 65.5034,3.4544 L 65.5034,3.0243 L 65.5596,3.0243 L 65.5596,3.4960 L 65.2643,3.4960 L 65.2643,3.4544 L 64.3221,3.4544 L 64.3221,3.0243 L 64.0971,3.0243 L 64.0971,2.8717 L 62.8315,2.8717 Z" stroke="#000000" stroke-width="0.1201" stroke-linecap="round" stroke-linejoin="round" fill="#000000"/>
        <path d="M 62.6065,3.0382 L 61.4252,3.0382 L 61.4252,3.4682 L 62.6065,3.4682 L 62.6065,3.0382 Z" stroke="#494949" stroke-width="0.1201" stroke-linecap="round" stroke-linejoin="round" fill="#000000"/>
        <path d="M 65.5034,3.0382 L 64.3221,3.0382 L 64.3221,3.4682 L 65.5034,3.4682 L 65.5034,3.0382 Z" stroke="#494949" stroke-width="0.1201" stroke-linecap="round" stroke-linejoin="round" fill="#000000"/>
        <path d="M 62.8315,9.6972 L 62.8315,9.5446 L 62.6065,9.5446 L 62.6065,9.1145 L 61.6643,9.1145 L 61.6643,9.0729 L 61.3690,9.0729 L 61.3690,9.5446 L 61.4252,9.5446 L 61.4252,9.1145 L 61.6643,9.1145 L 61.6643,8.1573 L 61.7627,8.1573 L 61.7627,7.6578 L 61.6643,7.6578 L 61.6643,6.5758 L 65.2643,6.5758 L 65.2643,7.6578 L 65.1659,7.6578 L 65.1659,8.1573 L 65.2643,8.1573 L 65.2643,9.1145 L 65.5034,9.1145 L 65.5034,9.5446 L 65.5596,9.5446 L 65.5596,9.0729 L 65.2643,9.0729 L 65.2643,9.1145 L 64.3221,9.1145 L 64.3221,9.5446 L 64.0971,9.5446 L 64.0971,9.6972 L 62.8315,9.6972 Z" stroke="#000000" stroke-width="0.1201" stroke-linecap="round" stroke-linejoin="round" fill="#000000"/>
        <path d="M 62.6065,9.1145 L 61.4252,9.1145 L 61.4252,9.5446 L 62.6065,9.5446 L 62.6065,9.1145 Z" stroke="#494949" stroke-width="0.1201" stroke-linecap="round" stroke-linejoin="round" fill="#000000"/>
        <path d="M 65.5034,9.1145 L 64.3221,9.1145 L 64.3221,9.5446 L 65.5034,9.5446 L 65.5034,9.1145 Z" stroke="#494949" stroke-width="0.1201" stroke-linecap="round" stroke-linejoin="round" fill="#000000"/>
        <path d="M 67.1065,2.8717 L 67.1065,3.0243 L 66.8815,3.0243 L 66.8815,3.4544 L 65.9393,3.4544 L 65.9393,3.4960 L 65.6440,3.4960 L 65.6440,3.0243 L 65.7002,3.0243 L 65.7002,3.4544 L 65.9393,3.4544 L 65.9393,4.4116 L 66.0377,4.4116 L 66.0377,4.9110 L 65.9393,4.9110 L 65.9393,5.9931 L 69.5393,5.9931 L 69.5393,4.9110 L 69.4409,4.9110 L 69.4409,4.4116 L 69.5393,4.4116 L 69.5393,3.4544 L 69.7784,3.4544 L 69.7784,3.0243 L 69.8346,3.0243 L 69.8346,3.4960 L 69.5393,3.4960 L 69.5393,3.4544 L 68.5971,3.4544 L 68.5971,3.0243 L 68.3721,3.0243 L 68.3721,2.8717 L 67.1065,2.8717 Z" stroke="#000000" stroke-width="0.1201" stroke-linecap="round" stroke-linejoin="round" fill="#000000"/>
        <path d="M 66.8815,3.0382 L 65.7002,3.0382 L 65.7002,3.4682 L 66.8815,3.4682 L 66.8815,3.0382 Z" stroke="#494949" stroke-width="0.1201" stroke-linecap="round" stroke-linejoin="round" fill="#000000"/>
        <path d="M 69.7784,3.0382 L 68.5971,3.0382 L 68.5971,3.4682 L 69.7784,3.4682 L 69.7784,3.0382 Z" stroke="#494949" stroke-width="0.1201" stroke-linecap="round" stroke-linejoin="round" fill="#000000"/>
        <path d="M 67.1065,9.6972 L 67.1065,9.5446 L 66.8815,9.5446 L 66.8815,9.1145 L 65.9393,9.1145 L 65.9393,9.0729 L 65.6440,9.0729 L 65.6440,9.5446 L 65.7002,9.5446 L 65.7002,9.1145 L 65.9393,9.1145 L 65.9393,8.1573 L 66.0377,8.1573 L 66.0377,7.6578 L 65.9393,7.6578 L 65.9393,6.5758 L 69.5393,6.5758 L 69.5393,7.6578 L 69.4409,7.6578 L 69.4409,8.1573 L 69.5393,8.1573 L 69.5393,9.1145 L 69.7784,9.1145 L 69.7784,9.5446 L 69.8346,9.5446 L 69.8346,9.0729 L 69.5393,9.0729 L 69.5393,9.1145 L 68.5971,9.1145 L 68.5971,9.5446 L 68.3721,9.5446 L 68.3721,9.6972 L 67.1065,9.6972 Z" stroke="#000000" stroke-width="0.1201" stroke-linecap="round" stroke-linejoin="round" fill="#000000"/>
        <path d="M 66.8815,9.1145 L 65.7002,9.1145 L 65.7002,9.5446 L 66.8815,9.5446 L 66.8815,9.1145 Z" stroke="#494949" stroke-width="0.1201" stroke-linecap="round" stroke-linejoin="round" fill="#000000"/>
        <path d="M 69.7784,9.1145 L 68.5971,9.1145 L 68.5971,9.5446 L 69.7784,9.5446 L 69.7784,9.1145 Z" stroke="#494949" stroke-width="0.1201" stroke-linecap="round" stroke-linejoin="round" fill="#000000"/>
        <path d="M 71.3815,2.8717 L 71.3815,3.0243 L 71.1565,3.0243 L 71.1565,3.4544 L 70.2143,3.4544 L 70.2143,3.4960 L 69.9190,3.4960 L 69.9190,3.0243 L 69.9752,3.0243 L 69.9752,3.4544 L 70.2143,3.4544 L 70.2143,4.4116 L 70.3128,4.4116 L 70.3128,4.9110 L 70.2143,4.9110 L 70.2143,5.9931 L 73.8143,5.9931 L 73.8143,4.9110 L 73.7159,4.9110 L 73.7159,4.4116 L 73.8143,4.4116 L 73.8143,3.4544 L 74.0534,3.4544 L 74.0534,3.0243 L 74.1096,3.0243 L 74.1096,3.4960 L 73.8143,3.4960 L 73.8143,3.4544 L 72.8721,3.4544 L 72.8721,3.0243 L 72.6471,3.0243 L 72.6471,2.8717 L 71.3815,2.8717 Z" stroke="#000000" stroke-width="0.1201" stroke-linecap="round" stroke-linejoin="round" fill="#000000"/>
        <path d="M 71.1565,3.0382 L 69.9752,3.0382 L 69.9752,3.4682 L 71.1565,3.4682 L 71.1565,3.0382 Z" stroke="#494949" stroke-width="0.1201" stroke-linecap="round" stroke-linejoin="round" fill="#000000"/>
        <path d="M 74.0534,3.0382 L 72.8721,3.0382 L 72.8721,3.4682 L 74.0534,3.4682 L 74.0534,3.0382 Z" stroke="#494949" stroke-width="0.1201" stroke-linecap="round" stroke-linejoin="round" fill="#000000"/>
        <path d="M 71.3815,9.6972 L 71.3815,9.5446 L 71.1565,9.5446 L 71.1565,9.1145 L 70.2143,9.1145 L 70.2143,9.0729 L 69.9190,9.0729 L 69.9190,9.5446 L 69.9752,9.5446 L 69.9752,9.1145 L 70.2143,9.1145 L 70.2143,8.1573 L 70.3128,8.1573 L 70.3128,7.6578 L 70.2143,7.6578 L 70.2143,6.5758 L 73.8143,6.5758 L 73.8143,7.6578 L 73.7159,7.6578 L 73.7159,8.1573 L 73.8143,8.1573 L 73.8143,9.1145 L 74.0534,9.1145 L 74.0534,9.5446 L 74.1096,9.5446 L 74.1096,9.0729 L 73.8143,9.0729 L 73.8143,9.1145 L 72.8721,9.1145 L 72.8721,9.5446 L 72.6471,9.5446 L 72.6471,9.6972 L 71.3815,9.6972 Z" stroke="#000000" stroke-width="0.1201" stroke-linecap="round" stroke-linejoin="round" fill="#000000"/>
        <path d="M 71.1565,9.1145 L 69.9752,9.1145 L 69.9752,9.5446 L 71.1565,9.5446 L 71.1565,9.1145 Z" stroke="#494949" stroke-width="0.1201" stroke-linecap="round" stroke-linejoin="round" fill="#000000"/>
        <path d="M 74.0534,9.1145 L 72.8721,9.1145 L 72.8721,9.5446 L 74.0534,9.5446 L 74.0534,9.1145 Z" stroke="#494949" stroke-width="0.1201" stroke-linecap="round" stroke-linejoin="round" fill="#000000"/>
        <path d="M 78.4128,2.8717 L 78.4128,3.0243 L 78.1878,3.0243 L 78.1878,3.4544 L 77.2456,3.4544 L 77.2456,3.4960 L 76.9503,3.4960 L 76.9503,3.0243 L 77.0065,3.0243 L 77.0065,3.4544 L 77.2456,3.4544 L 77.2456,4.4116 L 77.3440,4.4116 L 77.3440,4.9110 L 77.2456,4.9110 L 77.2456,5.9931 L 80.8456,5.9931 L 80.8456,4.9110 L 80.7472,4.9110 L 80.7472,4.4116 L 80.8456,4.4116 L 80.8456,3.4544 L 81.0847,3.4544 L 81.0847,3.0243 L 81.1409,3.0243 L 81.1409,3.4960 L 80.8456,3.4960 L 80.8456,3.4544 L 79.9034,3.4544 L 79.9034,3.0243 L 79.6784,3.0243 L 79.6784,2.8717 L 78.4128,2.8717 Z" stroke="#000000" stroke-width="0.1201" stroke-linecap="round" stroke-linejoin="round" fill="#000000"/>
        <path d="M 78.1878,3.0382 L 77.0065,3.0382 L 77.0065,3.4682 L 78.1878,3.4682 L 78.1878,3.0382 Z" stroke="#494949" stroke-width="0.1201" stroke-linecap="round" stroke-linejoin="round" fill="#000000"/>
        <path d="M 81.0847,3.0382 L 79.9034,3.0382 L 79.9034,3.4682 L 81.0847,3.4682 L 81.0847,3.0382 Z" stroke="#494949" stroke-width="0.1201" stroke-linecap="round" stroke-linejoin="round" fill="#000000"/>
        <path d="M 78.4128,9.6972 L 78.4128,9.5446 L 78.1878,9.5446 L 78.1878,9.1145 L 77.2456,9.1145 L 77.2456,9.0729 L 76.9503,9.0729 L 76.9503,9.5446 L 77.0065,9.5446 L 77.0065,9.1145 L 77.2456,9.1145 L 77.2456,8.1573 L 77.3440,8.1573 L 77.3440,7.6578 L 77.2456,7.6578 L 77.2456,6.5758 L 80.8456,6.5758 L 80.8456,7.6578 L 80.7472,7.6578 L 80.7472,8.1573 L 80.8456,8.1573 L 80.8456,9.1145 L 81.0847,9.1145 L 81.0847,9.5446 L 81.1409,9.5446 L 81.1409,9.0729 L 80.8456,9.0729 L 80.8456,9.1145 L 79.9034,9.1145 L 79.9034,9.5446 L 79.6784,9.5446 L 79.6784,9.6972 L 78.4128,9.6972 Z" stroke="#000000" stroke-width="0.1201" stroke-linecap="round" stroke-linejoin="round" fill="#000000"/>
        <path d="M 78.1878,9.1145 L 77.0065,9.1145 L 77.0065,9.5446 L 78.1878,9.5446 L 78.1878,9.1145 Z" stroke="#494949" stroke-width="0.1201" stroke-linecap="round" stroke-linejoin="round" fill="#000000"/>
        <path d="M 81.0847,9.1145 L 79.9034,9.1145 L 79.9034,9.5446 L 81.0847,9.5446 L 81.0847,9.1145 Z" stroke="#494949" stroke-width="0.1201" stroke-linecap="round" stroke-linejoin="round" fill="#000000"/>
        <path d="M 82.6878,2.8717 L 82.6878,3.0243 L 82.4628,3.0243 L 82.4628,3.4544 L 81.5206,3.4544 L 81.5206,3.4960 L 81.2253,3.4960 L 81.2253,3.0243 L 81.2815,3.0243 L 81.2815,3.4544 L 81.5206,3.4544 L 81.5206,4.4116 L 81.6190,4.4116 L 81.6190,4.9110 L 81.5206,4.9110 L 81.5206,5.9931 L 85.1206,5.9931 L 85.1206,4.9110 L 85.0222,4.9110 L 85.0222,4.4116 L 85.1206,4.4116 L 85.1206,3.4544 L 85.3597,3.4544 L 85.3597,3.0243 L 85.4159,3.0243 L 85.4159,3.4960 L 85.1206,3.4960 L 85.1206,3.4544 L 84.1784,3.4544 L 84.1784,3.0243 L 83.9534,3.0243 L 83.9534,2.8717 L 82.6878,2.8717 Z" stroke="#000000" stroke-width="0.1201" stroke-linecap="round" stroke-linejoin="round" fill="#000000"/>
        <path d="M 82.4628,3.0382 L 81.2815,3.0382 L 81.2815,3.4682 L 82.4628,3.4682 L 82.4628,3.0382 Z" stroke="#494949" stroke-width="0.1201" stroke-linecap="round" stroke-linejoin="round" fill="#000000"/>
        <path d="M 85.3597,3.0382 L 84.1784,3.0382 L 84.1784,3.4682 L 85.3597,3.4682 L 85.3597,3.0382 Z" stroke="#494949" stroke-width="0.1201" stroke-linecap="round" stroke-linejoin="round" fill="#000000"/>
        <path d="M 82.6878,9.6972 L 82.6878,9.5446 L 82.4628,9.5446 L 82.4628,9.1145 L 81.5206,9.1145 L 81.5206,9.0729 L 81.2253,9.0729 L 81.2253,9.5446 L 81.2815,9.5446 L 81.2815,9.1145 L 81.5206,9.1145 L 81.5206,8.1573 L 81.6190,8.1573 L 81.6190,7.6578 L 81.5206,7.6578 L 81.5206,6.5758 L 85.1206,6.5758 L 85.1206,7.6578 L 85.0222,7.6578 L 85.0222,8.1573 L 85.1206,8.1573 L 85.1206,9.1145 L 85.3597,9.1145 L 85.3597,9.5446 L 85.4159,9.5446 L 85.4159,9.0729 L 85.1206,9.0729 L 85.1206,9.1145 L 84.1784,9.1145 L 84.1784,9.5446 L 83.9534,9.5446 L 83.9534,9.6972 L 82.6878,9.6972 Z" stroke="#000000" stroke-width="0.1201" stroke-linecap="round" stroke-linejoin="round" fill="#000000"/>
        <path d="M 82.4628,9.1145 L 81.2815,9.1145 L 81.2815,9.5446 L 82.4628,9.5446 L 82.4628,9.1145 Z" stroke="#494949" stroke-width="0.1201" stroke-linecap="round" stroke-linejoin="round" fill="#000000"/>
        <path d="M 85.3597,9.1145 L 84.1784,9.1145 L 84.1784,9.5446 L 85.3597,9.5446 L 85.3597,9.1145 Z" stroke="#494949" stroke-width="0.1201" stroke-linecap="round" stroke-linejoin="round" fill="#000000"/>
        <path d="M 86.9628,2.8717 L 86.9628,3.0243 L 86.7378,3.0243 L 86.7378,3.4544 L 85.7956,3.4544 L 85.7956,3.4960 L 85.5003,3.4960 L 85.5003,3.0243 L 85.5566,3.0243 L 85.5566,3.4544 L 85.7956,3.4544 L 85.7956,4.4116 L 85.8941,4.4116 L 85.8941,4.9110 L 85.7956,4.9110 L 85.7956,5.9931 L 89.3956,5.9931 L 89.3956,4.9110 L 89.2972,4.9110 L 89.2972,4.4116 L 89.3956,4.4116 L 89.3956,3.4544 L 89.6347,3.4544 L 89.6347,3.0243 L 89.6909,3.0243 L 89.6909,3.4960 L 89.3956,3.4960 L 89.3956,3.4544 L 88.4534,3.4544 L 88.4534,3.0243 L 88.2284,3.0243 L 88.2284,2.8717 L 86.9628,2.8717 Z" stroke="#000000" stroke-width="0.1201" stroke-linecap="round" stroke-linejoin="round" fill="#000000"/>
        <path d="M 86.7378,3.0382 L 85.5566,3.0382 L 85.5566,3.4682 L 86.7378,3.4682 L 86.7378,3.0382 Z" stroke="#494949" stroke-width="0.1201" stroke-linecap="round" stroke-linejoin="round" fill="#000000"/>
        <path d="M 89.6347,3.0382 L 88.4534,3.0382 L 88.4534,3.4682 L 89.6347,3.4682 L 89.6347,3.0382 Z" stroke="#494949" stroke-width="0.1201" stroke-linecap="round" stroke-linejoin="round" fill="#000000"/>
        <path d="M 86.9628,9.6972 L 86.9628,9.5446 L 86.7378,9.5446 L 86.7378,9.1145 L 85.7956,9.1145 L 85.7956,9.0729 L 85.5003,9.0729 L 85.5003,9.5446 L 85.5566,9.5446 L 85.5566,9.1145 L 85.7956,9.1145 L 85.7956,8.1573 L 85.8941,8.1573 L 85.8941,7.6578 L 85.7956,7.6578 L 85.7956,6.5758 L 89.3956,6.5758 L 89.3956,7.6578 L 89.2972,7.6578 L 89.2972,8.1573 L 89.3956,8.1573 L 89.3956,9.1145 L 89.6347,9.1145 L 89.6347,9.5446 L 89.6909,9.5446 L 89.6909,9.0729 L 89.3956,9.0729 L 89.3956,9.1145 L 88.4534,9.1145 L 88.4534,9.5446 L 88.2284,9.5446 L 88.2284,9.6972 L 86.9628,9.6972 Z" stroke="#000000" stroke-width="0.1201" stroke-linecap="round" stroke-linejoin="round" fill="#000000"/>
        <path d="M 86.7378,9.1145 L 85.5566,9.1145 L 85.5566,9.5446 L 86.7378,9.5446 L 86.7378,9.1145 Z" stroke="#494949" stroke-width="0.1201" stroke-linecap="round" stroke-linejoin="round" fill="#000000"/>
        <path d="M 89.6347,9.1145 L 88.4534,9.1145 L 88.4534,9.5446 L 89.6347,9.5446 L 89.6347,9.1145 Z" stroke="#494949" stroke-width="0.1201" stroke-linecap="round" stroke-linejoin="round" fill="#000000"/>
        <path d="M 91.2378,2.8717 L 91.2378,3.0243 L 91.0128,3.0243 L 91.0128,3.4544 L 90.0706,3.4544 L 90.0706,3.4960 L 89.7753,3.4960 L 89.7753,3.0243 L 89.8316,3.0243 L 89.8316,3.4544 L 90.0706,3.4544 L 90.0706,4.4116 L 90.1691,4.4116 L 90.1691,4.9110 L 90.0706,4.9110 L 90.0706,5.9931 L 93.6706,5.9931 L 93.6706,4.9110 L 93.5722,4.9110 L 93.5722,4.4116 L 93.6706,4.4116 L 93.6706,3.4544 L 93.9097,3.4544 L 93.9097,3.0243 L 93.9660,3.0243 L 93.9660,3.4960 L 93.6706,3.4960 L 93.6706,3.4544 L 92.7285,3.4544 L 92.7285,3.0243 L 92.5035,3.0243 L 92.5035,2.8717 L 91.2378,2.8717 Z" stroke="#000000" stroke-width="0.1201" stroke-linecap="round" stroke-linejoin="round" fill="#000000"/>
        <path d="M 91.0128,3.0382 L 89.8316,3.0382 L 89.8316,3.4682 L 91.0128,3.4682 L 91.0128,3.0382 Z" stroke="#494949" stroke-width="0.1201" stroke-linecap="round" stroke-linejoin="round" fill="#000000"/>
        <path d="M 93.9097,3.0382 L 92.7285,3.0382 L 92.7285,3.4682 L 93.9097,3.4682 L 93.9097,3.0382 Z" stroke="#494949" stroke-width="0.1201" stroke-linecap="round" stroke-linejoin="round" fill="#000000"/>
        <path d="M 91.2378,9.6972 L 91.2378,9.5446 L 91.0128,9.5446 L 91.0128,9.1145 L 90.0706,9.1145 L 90.0706,9.0729 L 89.7753,9.0729 L 89.7753,9.5446 L 89.8316,9.5446 L 89.8316,9.1145 L 90.0706,9.1145 L 90.0706,8.1573 L 90.1691,8.1573 L 90.1691,7.6578 L 90.0706,7.6578 L 90.0706,6.5758 L 93.6706,6.5758 L 93.6706,7.6578 L 93.5722,7.6578 L 93.5722,8.1573 L 93.6706,8.1573 L 93.6706,9.1145 L 93.9097,9.1145 L 93.9097,9.5446 L 93.9660,9.5446 L 93.9660,9.0729 L 93.6706,9.0729 L 93.6706,9.1145 L 92.7285,9.1145 L 92.7285,9.5446 L 92.5035,9.5446 L 92.5035,9.6972 L 91.2378,9.6972 Z" stroke="#000000" stroke-width="0.1201" stroke-linecap="round" stroke-linejoin="round" fill="#000000"/>
        <path d="M 91.0128,9.1145 L 89.8316,9.1145 L 89.8316,9.5446 L 91.0128,9.5446 L 91.0128,9.1145 Z" stroke="#494949" stroke-width="0.1201" stroke-linecap="round" stroke-linejoin="round" fill="#000000"/>
        <path d="M 93.9097,9.1145 L 92.7285,9.1145 L 92.7285,9.5446 L 93.9097,9.5446 L 93.9097,9.1145 Z" stroke="#494949" stroke-width="0.1201" stroke-linecap="round" stroke-linejoin="round" fill="#000000"/>
        <path d="M 95.5128,2.8717 L 95.5128,3.0243 L 95.2878,3.0243 L 95.2878,3.4544 L 94.3456,3.4544 L 94.3456,3.4960 L 94.0503,3.4960 L 94.0503,3.0243 L 94.1066,3.0243 L 94.1066,3.4544 L 94.3456,3.4544 L 94.3456,4.4116 L 94.4441,4.4116 L 94.4441,4.9110 L 94.3456,4.9110 L 94.3456,5.9931 L 97.9457,5.9931 L 97.9457,4.9110 L 97.8472,4.9110 L 97.8472,4.4116 L 97.9457,4.4116 L 97.9457,3.4544 L 98.1847,3.4544 L 98.1847,3.0243 L 98.2410,3.0243 L 98.2410,3.4960 L 97.9457,3.4960 L 97.9457,3.4544 L 97.0035,3.4544 L 97.0035,3.0243 L 96.7785,3.0243 L 96.7785,2.8717 L 95.5128,2.8717 Z" stroke="#000000" stroke-width="0.1201" stroke-linecap="round" stroke-linejoin="round" fill="#000000"/>
        <path d="M 95.2878,3.0382 L 94.1066,3.0382 L 94.1066,3.4682 L 95.2878,3.4682 L 95.2878,3.0382 Z" stroke="#494949" stroke-width="0.1201" stroke-linecap="round" stroke-linejoin="round" fill="#000000"/>
        <path d="M 98.1847,3.0382 L 97.0035,3.0382 L 97.0035,3.4682 L 98.1847,3.4682 L 98.1847,3.0382 Z" stroke="#494949" stroke-width="0.1201" stroke-linecap="round" stroke-linejoin="round" fill="#000000"/>
        <path d="M 95.5128,9.6972 L 95.5128,9.5446 L 95.2878,9.5446 L 95.2878,9.1145 L 94.3456,9.1145 L 94.3456,9.0729 L 94.0503,9.0729 L 94.0503,9.5446 L 94.1066,9.5446 L 94.1066,9.1145 L 94.3456,9.1145 L 94.3456,8.1573 L 94.4441,8.1573 L 94.4441,7.6578 L 94.3456,7.6578 L 94.3456,6.5758 L 97.9457,6.5758 L 97.9457,7.6578 L 97.8472,7.6578 L 97.8472,8.1573 L 97.9457,8.1573 L 97.9457,9.1145 L 98.1847,9.1145 L 98.1847,9.5446 L 98.2410,9.5446 L 98.2410,9.0729 L 97.9457,9.0729 L 97.9457,9.1145 L 97.0035,9.1145 L 97.0035,9.5446 L 96.7785,9.5446 L 96.7785,9.6972 L 95.5128,9.6972 Z" stroke="#000000" stroke-width="0.1201" stroke-linecap="round" stroke-linejoin="round" fill="#000000"/>
        <path d="M 95.2878,9.1145 L 94.1066,9.1145 L 94.1066,9.5446 L 95.2878,9.5446 L 95.2878,9.1145 Z" stroke="#494949" stroke-width="0.1201" stroke-linecap="round" stroke-linejoin="round" fill="#000000"/>
        <path d="M 98.1847,9.1145 L 97.0035,9.1145 L 97.0035,9.5446 L 98.1847,9.5446 L 98.1847,9.1145 Z" stroke="#494949" stroke-width="0.1201" stroke-linecap="round" stroke-linejoin="round" fill="#000000"/>
        <path d="M 99.7879,2.8717 L 99.7879,3.0243 L 99.5629,3.0243 L 99.5629,3.4544 L 98.6207,3.4544 L 98.6207,3.4960 L 98.3254,3.4960 L 98.3254,3.0243 L 98.3816,3.0243 L 98.3816,3.4544 L 98.6207,3.4544 L 98.6207,4.4116 L 98.7191,4.4116 L 98.7191,4.9110 L 98.6207,4.9110 L 98.6207,5.9931 L 102.2207,5.9931 L 102.2207,4.9110 L 102.1222,4.9110 L 102.1222,4.4116 L 102.2207,4.4116 L 102.2207,3.4544 L 102.4597,3.4544 L 102.4597,3.0243 L 102.5160,3.0243 L 102.5160,3.4960 L 102.2207,3.4960 L 102.2207,3.4544 L 101.2785,3.4544 L 101.2785,3.0243 L 101.0535,3.0243 L 101.0535,2.8717 L 99.7879,2.8717 Z" stroke="#000000" stroke-width="0.1201" stroke-linecap="round" stroke-linejoin="round" fill="#000000"/>
        <path d="M 99.5629,3.0382 L 98.3816,3.0382 L 98.3816,3.4682 L 99.5629,3.4682 L 99.5629,3.0382 Z" stroke="#494949" stroke-width="0.1201" stroke-linecap="round" stroke-linejoin="round" fill="#000000"/>
        <path d="M 102.4597,3.0382 L 101.2785,3.0382 L 101.2785,3.4682 L 102.4597,3.4682 L 102.4597,3.0382 Z" stroke="#494949" stroke-width="0.1201" stroke-linecap="round" stroke-linejoin="round" fill="#000000"/>
        <path d="M 99.7879,9.6972 L 99.7879,9.5446 L 99.5629,9.5446 L 99.5629,9.1145 L 98.6207,9.1145 L 98.6207,9.0729 L 98.3254,9.0729 L 98.3254,9.5446 L 98.3816,9.5446 L 98.3816,9.1145 L 98.6207,9.1145 L 98.6207,8.1573 L 98.7191,8.1573 L 98.7191,7.6578 L 98.6207,7.6578 L 98.6207,6.5758 L 102.2207,6.5758 L 102.2207,7.6578 L 102.1222,7.6578 L 102.1222,8.1573 L 102.2207,8.1573 L 102.2207,9.1145 L 102.4597,9.1145 L 102.4597,9.5446 L 102.5160,9.5446 L 102.5160,9.0729 L 102.2207,9.0729 L 102.2207,9.1145 L 101.2785,9.1145 L 101.2785,9.5446 L 101.0535,9.5446 L 101.0535,9.6972 L 99.7879,9.6972 Z" stroke="#000000" stroke-width="0.1201" stroke-linecap="round" stroke-linejoin="round" fill="#000000"/>
        <path d="M 99.5629,9.1145 L 98.3816,9.1145 L 98.3816,9.5446 L 99.5629,9.5446 L 99.5629,9.1145 Z" stroke="#494949" stroke-width="0.1201" stroke-linecap="round" stroke-linejoin="round" fill="#000000"/>
        <path d="M 102.4597,9.1145 L 101.2785,9.1145 L 101.2785,9.5446 L 102.4597,9.5446 L 102.4597,9.1145 Z" stroke="#494949" stroke-width="0.1201" stroke-linecap="round" stroke-linejoin="round" fill="#000000"/>
        <path d="M 49.4777,3.0890 L 48.7173,3.0890 L 48.7173,3.4004 L 49.4777,3.4004 L 49.4777,3.0890 Z" stroke="#000000" stroke-width="0.1201" stroke-linecap="round" stroke-linejoin="round" fill="#FFFF00"/>
        <path d="M 52.4512,3.0890 L 51.6909,3.0890 L 51.6909,3.4004 L 52.4512,3.4004 L 52.4512,3.0890 Z" stroke="#000000" stroke-width="0.1201" stroke-linecap="round" stroke-linejoin="round" fill="#83FF00"/>
        <path d="M 53.7547,3.0890 L 52.9943,3.0890 L 52.9943,3.4004 L 53.7547,3.4004 L 53.7547,3.0890 Z" stroke="#000000" stroke-width="0.1201" stroke-linecap="round" stroke-linejoin="round" fill="#FFFF00"/>
        <path d="M 56.7282,3.0890 L 55.9679,3.0890 L 55.9679,3.4004 L 56.7282,3.4004 L 56.7282,3.0890 Z" stroke="#000000" stroke-width="0.1201" stroke-linecap="round" stroke-linejoin="round" fill="#83FF00"/>
        <path d="M 58.0181,3.0890 L 57.2578,3.0890 L 57.2578,3.4004 L 58.0181,3.4004 L 58.0181,3.0890 Z" stroke="#000000" stroke-width="0.1201" stroke-linecap="round" stroke-linejoin="round" fill="#FFFF00"/>
        <path d="M 61.0053,3.0890 L 60.2449,3.0890 L 60.2449,3.4004 L 61.0053,3.4004 L 61.0053,3.0890 Z" stroke="#000000" stroke-width="0.1201" stroke-linecap="round" stroke-linejoin="round" fill="#83FF00"/>
        <path d="M 62.2951,3.0890 L 61.5348,3.0890 L 61.5348,3.4004 L 62.2951,3.4004 L 62.2951,3.0890 Z" stroke="#000000" stroke-width="0.1201" stroke-linecap="round" stroke-linejoin="round" fill="#FFFF00"/>
        <path d="M 65.2823,3.0890 L 64.5219,3.0890 L 64.5219,3.4004 L 65.2823,3.4004 L 65.2823,3.0890 Z" stroke="#000000" stroke-width="0.1201" stroke-linecap="round" stroke-linejoin="round" fill="#83FF00"/>
        <path d="M 66.5722,3.0890 L 65.8118,3.0890 L 65.8118,3.4004 L 66.5722,3.4004 L 66.5722,3.0890 Z" stroke="#000000" stroke-width="0.1201" stroke-linecap="round" stroke-linejoin="round" fill="#FFFF00"/>
        <path d="M 69.5593,3.0890 L 68.7989,3.0890 L 68.7989,3.4004 L 69.5593,3.4004 L 69.5593,3.0890 Z" stroke="#000000" stroke-width="0.1201" stroke-linecap="round" stroke-linejoin="round" fill="#83FF00"/>
        <path d="M 70.8492,3.0890 L 70.0888,3.0890 L 70.0888,3.4004 L 70.8492,3.4004 L 70.8492,3.0890 Z" stroke="#000000" stroke-width="0.1201" stroke-linecap="round" stroke-linejoin="round" fill="#FFFF00"/>
        <path d="M 73.8363,3.0890 L 73.0760,3.0890 L 73.0760,3.4004 L 73.8363,3.4004 L 73.8363,3.0890 Z" stroke="#000000" stroke-width="0.1201" stroke-linecap="round" stroke-linejoin="round" fill="#83FF00"/>
        <path d="M 77.8825,3.0890 L 77.1222,3.0890 L 77.1222,3.4004 L 77.8825,3.4004 L 77.8825,3.0890 Z" stroke="#000000" stroke-width="0.1201" stroke-linecap="round" stroke-linejoin="round" fill="#FFFF00"/>
        <path d="M 80.8561,3.0890 L 80.0957,3.0890 L 80.0957,3.4004 L 80.8561,3.4004 L 80.8561,3.0890 Z" stroke="#000000" stroke-width="0.1201" stroke-linecap="round" stroke-linejoin="round" fill="#83FF00"/>
        <path d="M 82.1595,3.0890 L 81.3992,3.0890 L 81.3992,3.4004 L 82.1595,3.4004 L 82.1595,3.0890 Z" stroke="#000000" stroke-width="0.1201" stroke-linecap="round" stroke-linejoin="round" fill="#FFFF00"/>
        <path d="M 85.1331,3.0890 L 84.3727,3.0890 L 84.3727,3.4004 L 85.1331,3.4004 L 85.1331,3.0890 Z" stroke="#000000" stroke-width="0.1201" stroke-linecap="round" stroke-linejoin="round" fill="#83FF00"/>
        <path d="M 86.4366,3.0890 L 85.6762,3.0890 L 85.6762,3.4004 L 86.4366,3.4004 L 86.4366,3.0890 Z" stroke="#000000" stroke-width="0.1201" stroke-linecap="round" stroke-linejoin="round" fill="#FFFF00"/>
        <path d="M 89.4101,3.0890 L 88.6497,3.0890 L 88.6497,3.4004 L 89.4101,3.4004 L 89.4101,3.0890 Z" stroke="#000000" stroke-width="0.1201" stroke-linecap="round" stroke-linejoin="round" fill="#83FF00"/>
        <path d="M 90.7000,3.0890 L 89.9396,3.0890 L 89.9396,3.4004 L 90.7000,3.4004 L 90.7000,3.0890 Z" stroke="#000000" stroke-width="0.1201" stroke-linecap="round" stroke-linejoin="round" fill="#FFFF00"/>
        <path d="M 93.6871,3.0890 L 92.9268,3.0890 L 92.9268,3.4004 L 93.6871,3.4004 L 93.6871,3.0890 Z" stroke="#000000" stroke-width="0.1201" stroke-linecap="round" stroke-linejoin="round" fill="#83FF00"/>
        <path d="M 94.9770,3.0890 L 94.2167,3.0890 L 94.2167,3.4004 L 94.9770,3.4004 L 94.9770,3.0890 Z" stroke="#000000" stroke-width="0.1201" stroke-linecap="round" stroke-linejoin="round" fill="#FFFF00"/>
        <path d="M 97.9641,3.0890 L 97.2038,3.0890 L 97.2038,3.4004 L 97.9641,3.4004 L 97.9641,3.0890 Z" stroke="#000000" stroke-width="0.1201" stroke-linecap="round" stroke-linejoin="round" fill="#83FF00"/>
        <path d="M 99.2540,3.0890 L 98.4937,3.0890 L 98.4937,3.4004 L 99.2540,3.4004 L 99.2540,3.0890 Z" stroke="#000000" stroke-width="0.1201" stroke-linecap="round" stroke-linejoin="round" fill="#FFFF00"/>
        <path d="M 102.2412,3.0890 L 101.4808,3.0890 L 101.4808,3.4004 L 102.2412,3.4004 L 102.2412,3.0890 Z" stroke="#000000" stroke-width="0.1201" stroke-linecap="round" stroke-linejoin="round" fill="#83FF00"/>
        <path d="M 49.4777,9.1630 L 48.7173,9.1630 L 48.7173,9.4745 L 49.4777,9.4745 L 49.4777,9.1630 Z" stroke="#000000" stroke-width="0.1201" stroke-linecap="round" stroke-linejoin="round" fill="#FFFF00"/>
        <path d="M 52.4512,9.1630 L 51.6909,9.1630 L 51.6909,9.4745 L 52.4512,9.4745 L 52.4512,9.1630 Z" stroke="#000000" stroke-width="0.1201" stroke-linecap="round" stroke-linejoin="round" fill="#83FF00"/>
        <path d="M 53.7547,9.1630 L 52.9943,9.1630 L 52.9943,9.4745 L 53.7547,9.4745 L 53.7547,9.1630 Z" stroke="#000000" stroke-width="0.1201" stroke-linecap="round" stroke-linejoin="round" fill="#FFFF00"/>
        <path d="M 56.7282,9.1630 L 55.9679,9.1630 L 55.9679,9.4745 L 56.7282,9.4745 L 56.7282,9.1630 Z" stroke="#000000" stroke-width="0.1201" stroke-linecap="round" stroke-linejoin="round" fill="#83FF00"/>
        <path d="M 58.0181,9.1630 L 57.2578,9.1630 L 57.2578,9.4745 L 58.0181,9.4745 L 58.0181,9.1630 Z" stroke="#000000" stroke-width="0.1201" stroke-linecap="round" stroke-linejoin="round" fill="#FFFF00"/>
        <path d="M 61.0053,9.1630 L 60.2449,9.1630 L 60.2449,9.4745 L 61.0053,9.4745 L 61.0053,9.1630 Z" stroke="#000000" stroke-width="0.1201" stroke-linecap="round" stroke-linejoin="round" fill="#83FF00"/>
        <path d="M 62.2951,9.1630 L 61.5348,9.1630 L 61.5348,9.4745 L 62.2951,9.4745 L 62.2951,9.1630 Z" stroke="#000000" stroke-width="0.1201" stroke-linecap="round" stroke-linejoin="round" fill="#FFFF00"/>
        <path d="M 65.2823,9.1630 L 64.5219,9.1630 L 64.5219,9.4745 L 65.2823,9.4745 L 65.2823,9.1630 Z" stroke="#000000" stroke-width="0.1201" stroke-linecap="round" stroke-linejoin="round" fill="#83FF00"/>
        <path d="M 66.5722,9.1630 L 65.8118,9.1630 L 65.8118,9.4745 L 66.5722,9.4745 L 66.5722,9.1630 Z" stroke="#000000" stroke-width="0.1201" stroke-linecap="round" stroke-linejoin="round" fill="#FFFF00"/>
        <path d="M 69.5593,9.1630 L 68.7989,9.1630 L 68.7989,9.4745 L 69.5593,9.4745 L 69.5593,9.1630 Z" stroke="#000000" stroke-width="0.1201" stroke-linecap="round" stroke-linejoin="round" fill="#83FF00"/>
        <path d="M 70.8492,9.1630 L 70.0888,9.1630 L 70.0888,9.4745 L 70.8492,9.4745 L 70.8492,9.1630 Z" stroke="#000000" stroke-width="0.1201" stroke-linecap="round" stroke-linejoin="round" fill="#FFFF00"/>
        <path d="M 73.8363,9.1630 L 73.0760,9.1630 L 73.0760,9.4745 L 73.8363,9.4745 L 73.8363,9.1630 Z" stroke="#000000" stroke-width="0.1201" stroke-linecap="round" stroke-linejoin="round" fill="#83FF00"/>
        <path d="M 77.8825,9.1630 L 77.1222,9.1630 L 77.1222,9.4745 L 77.8825,9.4745 L 77.8825,9.1630 Z" stroke="#000000" stroke-width="0.1201" stroke-linecap="round" stroke-linejoin="round" fill="#FFFF00"/>
        <path d="M 80.8561,9.1630 L 80.0957,9.1630 L 80.0957,9.4745 L 80.8561,9.4745 L 80.8561,9.1630 Z" stroke="#000000" stroke-width="0.1201" stroke-linecap="round" stroke-linejoin="round" fill="#83FF00"/>
        <path d="M 82.1595,9.1630 L 81.3992,9.1630 L 81.3992,9.4745 L 82.1595,9.4745 L 82.1595,9.1630 Z" stroke="#000000" stroke-width="0.1201" stroke-linecap="round" stroke-linejoin="round" fill="#FFFF00"/>
        <path d="M 85.1331,9.1630 L 84.3727,9.1630 L 84.3727,9.4745 L 85.1331,9.4745 L 85.1331,9.1630 Z" stroke="#000000" stroke-width="0.1201" stroke-linecap="round" stroke-linejoin="round" fill="#83FF00"/>
        <path d="M 86.4366,9.1630 L 85.6762,9.1630 L 85.6762,9.4745 L 86.4366,9.4745 L 86.4366,9.1630 Z" stroke="#000000" stroke-width="0.1201" stroke-linecap="round" stroke-linejoin="round" fill="#FFFF00"/>
        <path d="M 89.4101,9.1630 L 88.6497,9.1630 L 88.6497,9.4745 L 89.4101,9.4745 L 89.4101,9.1630 Z" stroke="#000000" stroke-width="0.1201" stroke-linecap="round" stroke-linejoin="round" fill="#83FF00"/>
        <path d="M 90.7000,9.1630 L 89.9396,9.1630 L 89.9396,9.4745 L 90.7000,9.4745 L 90.7000,9.1630 Z" stroke="#000000" stroke-width="0.1201" stroke-linecap="round" stroke-linejoin="round" fill="#FFFF00"/>
        <path d="M 93.6871,9.1630 L 92.9268,9.1630 L 92.9268,9.4745 L 93.6871,9.4745 L 93.6871,9.1630 Z" stroke="#000000" stroke-width="0.1201" stroke-linecap="round" stroke-linejoin="round" fill="#83FF00"/>
        <path d="M 94.9770,9.1630 L 94.2167,9.1630 L 94.2167,9.4745 L 94.9770,9.4745 L 94.9770,9.1630 Z" stroke="#000000" stroke-width="0.1201" stroke-linecap="round" stroke-linejoin="round" fill="#FFFF00"/>
        <path d="M 97.9641,9.1630 L 97.2038,9.1630 L 97.2038,9.4745 L 97.9641,9.4745 L 97.9641,9.1630 Z" stroke="#000000" stroke-width="0.1201" stroke-linecap="round" stroke-linejoin="round" fill="#83FF00"/>
        <path d="M 99.2540,9.1630 L 98.4937,9.1630 L 98.4937,9.4745 L 99.2540,9.4745 L 99.2540,9.1630 Z" stroke="#000000" stroke-width="0.1201" stroke-linecap="round" stroke-linejoin="round" fill="#FFFF00"/>
        <path d="M 102.2412,9.1630 L 101.4808,9.1630 L 101.4808,9.4745 L 102.2412,9.4745 L 102.2412,9.1630 Z" stroke="#000000" stroke-width="0.1201" stroke-linecap="round" stroke-linejoin="round" fill="#83FF00"/>
        <path d="M 111.7973,5.4815 L 107.8316,5.4815 L 107.8316,2.8100 L 111.7973,2.8100 L 111.7973,5.4815 Z" stroke="#000000" stroke-width="0.1201" stroke-linecap="round" stroke-linejoin="round" fill="none"/>
        <path d="M 111.7973,9.6480 L 107.8316,9.6480 L 107.8316,6.9764 L 111.7973,6.9764 L 111.7973,9.6480 Z" stroke="#000000" stroke-width="0.1201" stroke-linecap="round" stroke-linejoin="round" fill="none"/>
        <path d="M 120.6848,5.4815 L 116.7192,5.4815 L 116.7192,2.8100 L 120.6848,2.8100 L 120.6848,5.4815 Z" stroke="#000000" stroke-width="0.1201" stroke-linecap="round" stroke-linejoin="round" fill="none"/>
        <path d="M 120.6848,9.6480 L 116.7192,9.6480 L 116.7192,6.9764 L 120.6848,6.9764 L 120.6848,9.6480 Z" stroke="#000000" stroke-width="0.1201" stroke-linecap="round" stroke-linejoin="round" fill="none"/>
      </g>
      <!--emf-blob end-->
    </g>
  </g>
</svg>
