<svg xmlns="http://www.w3.org/2000/svg" xmlns:xlink="http://www.w3.org/1999/xlink" version="1.1" width="4.4100000000" height="2.4220000000" viewBox="0 0 79.3834 43.5949">
  <title><![CDATA[GPI-115/13]]></title>
  <g transform=" scale(4.000000) ">
    <!--converted by libvisio2svg-->
    <g transform=" translate(32.123200,0.720000) ">
      <!--emf-blob start-->
      <g transform="translate(-0.0000, -0.0000)">
        <path d="M 14.8562,0.7406 L 14.8562,0.6707 L 14.8421,0.6288 L 14.8421,0.6009 L 14.8281,0.5589 L 14.8281,0.5310 L 14.8140,0.5030 L 14.8000,0.4611 L 14.7579,0.3773 L 14.7298,0.3493 L 14.7157,0.3214 L 14.6877,0.2934 L 14.6736,0.2655 L 14.6175,0.2096 L 14.5894,0.1956 L 14.5613,0.1677 L 14.5332,0.1537 L 14.5051,0.1258 L 14.4209,0.0838 L 14.3787,0.0699 L 14.3507,0.0559 L 14.3226,0.0559 L 14.2805,0.0419 L 14.2524,0.0419 L 14.2102,0.0279 L 0.8987,0.0279 L 0.8565,0.0419 L 0.8285,0.0419 L 0.7863,0.0559 L 0.7583,0.0559 L 0.7302,0.0699 L 0.6880,0.0838 L 0.6038,0.1258 L 0.5757,0.1537 L 0.5476,0.1677 L 0.5195,0.1956 L 0.4915,0.2096 L 0.4353,0.2655 L 0.4213,0.2934 L 0.3932,0.3214 L 0.3791,0.3493 L 0.3510,0.3773 L 0.3089,0.4611 L 0.2949,0.5030 L 0.2808,0.5310 L 0.2808,0.5589 L 0.2668,0.6009 L 0.2668,0.6288 L 0.2528,0.6707 L 0.2528,0.7965 L 0.2387,0.8244 L 0.2387,0.9362 L 0.2247,0.9921 L 0.2247,1.0760 L 0.1966,1.2436 L 0.1966,1.3414 L 0.1545,1.6768 L 0.1545,1.8165 L 0.1404,1.9423 L 0.1264,2.0820 L 0.1264,2.2218 L 0.0843,2.6829 L 0.0843,2.8506 L 0.0702,3.0183 L 0.0702,3.1859 L 0.0421,3.5213 L 0.0421,3.8846 L 0.0281,4.0663 L 0.0281,5.1422 L 0.0421,5.3239 L 0.0421,5.6732 L 0.0562,5.8549 L 0.0702,6.0225 L 0.0702,6.1902 L 0.0843,6.3579 L 0.0843,6.5256 L 0.1264,6.9867 L 0.1264,7.1264 L 0.1404,7.2662 L 0.1545,7.3919 L 0.1545,7.5317 L 0.1966,7.8670 L 0.1966,7.9648 L 0.2106,8.0627 L 0.2247,8.1465 L 0.2247,8.2164 L 0.2387,8.2862 L 0.2387,8.3980 L 0.2528,8.4260 L 0.2528,8.5517 L 0.2668,8.5936 L 0.2668,8.6216 L 0.2808,8.6635 L 0.2808,8.6915 L 0.2949,8.7194 L 0.3089,8.7613 L 0.3510,8.8452 L 0.3791,8.8731 L 0.3932,8.9011 L 0.4213,8.9290 L 0.4353,8.9569 L 0.4915,9.0128 L 0.5195,9.0268 L 0.5476,9.0548 L 0.5757,9.0687 L 0.6038,9.0967 L 0.6880,9.1386 L 0.7302,9.1526 L 0.7583,9.1665 L 0.7863,9.1665 L 0.8285,9.1805 L 0.8565,9.1805 L 0.8987,9.1945 L 14.2102,9.1945 L 14.2524,9.1805 L 14.2805,9.1805 L 14.3226,9.1665 L 14.3507,9.1665 L 14.3787,9.1526 L 14.4209,9.1386 L 14.5051,9.0967 L 14.5332,9.0687 L 14.5613,9.0548 L 14.5894,9.0268 L 14.6175,9.0128 L 14.6736,8.9569 L 14.6877,8.9290 L 14.7157,8.9011 L 14.7298,8.8731 L 14.7579,8.8452 L 14.8000,8.7613 L 14.8140,8.7194 L 14.8281,8.6915 L 14.8281,8.6635 L 14.8421,8.6216 L 14.8421,8.5936 L 14.8562,8.5517 L 14.8562,8.4260 L 14.8702,8.3980 L 14.8702,8.2862 L 14.8842,8.2303 L 14.8983,8.1465 L 14.8983,8.0627 L 14.9123,7.9788 L 14.9123,7.8810 L 14.9545,7.5456 L 14.9545,7.4199 L 14.9825,7.1404 L 14.9825,7.0007 L 15.0247,6.5395 L 15.0247,6.3858 L 15.0527,6.0505 L 15.0527,5.8828 L 15.0668,5.7011 L 15.0668,5.3518 L 15.0808,5.1702 L 15.0808,4.0802 L 15.0668,3.8986 L 15.0668,3.5492 L 15.0527,3.3816 L 15.0527,3.1999 L 15.0247,2.8645 L 15.0247,2.7108 L 15.0106,2.5432 L 14.9966,2.3895 L 14.9825,2.2497 L 14.9825,2.0960 L 14.9685,1.9563 L 14.9545,1.8305 L 14.9545,1.6908 L 14.9123,1.3554 L 14.9123,1.2576 L 14.8983,1.1598 L 14.8983,1.0760 L 14.8702,0.9362 L 14.8702,0.8244 L 14.8562,0.7965 L 14.8562,0.7685 L 14.8562,0.7406 Z" stroke="#000000" stroke-width="0.1201" stroke-linecap="round" stroke-linejoin="round" fill="#333333"/>
        <path d="M 14.6455,0.8664 L 14.6455,0.7965 L 14.6315,0.7546 L 14.6315,0.7266 L 14.6175,0.6847 L 14.6175,0.6567 L 14.6034,0.6288 L 14.5894,0.5869 L 14.5472,0.5030 L 14.5192,0.4751 L 14.5051,0.4471 L 14.4770,0.4192 L 14.4630,0.3913 L 14.4349,0.3773 L 14.4068,0.3493 L 14.3928,0.3214 L 14.3647,0.3074 L 14.3366,0.2795 L 14.2805,0.2515 L 14.2383,0.2375 L 14.1541,0.1956 L 14.1120,0.1956 L 14.0839,0.1817 L 14.0417,0.1817 L 14.0137,0.1677 L 1.0953,0.1677 L 1.0672,0.1817 L 1.0250,0.1817 L 0.9970,0.1956 L 0.9548,0.1956 L 0.8706,0.2375 L 0.8285,0.2515 L 0.7723,0.2795 L 0.7442,0.3074 L 0.7161,0.3214 L 0.7021,0.3493 L 0.6740,0.3773 L 0.6459,0.3913 L 0.6319,0.4192 L 0.6038,0.4471 L 0.5898,0.4751 L 0.5617,0.5030 L 0.5195,0.5869 L 0.5055,0.6288 L 0.4915,0.6567 L 0.4915,0.6847 L 0.4774,0.7266 L 0.4774,0.7546 L 0.4634,0.7965 L 0.4634,0.9083 L 0.4493,0.9502 L 0.4493,1.0480 L 0.4353,1.1179 L 0.4353,1.1877 L 0.4213,1.2576 L 0.4213,1.3554 L 0.3932,1.5510 L 0.3932,1.6628 L 0.3791,1.7746 L 0.3651,1.9004 L 0.3651,2.0261 L 0.3230,2.4453 L 0.3230,2.5851 L 0.3089,2.7388 L 0.2949,2.9065 L 0.2949,3.0602 L 0.2808,3.2279 L 0.2808,3.3955 L 0.2668,3.5632 L 0.2668,3.8986 L 0.2528,4.0802 L 0.2528,5.1282 L 0.2668,5.3099 L 0.2668,5.6453 L 0.2808,5.8129 L 0.2808,5.9806 L 0.2949,6.1483 L 0.2949,6.3020 L 0.3230,6.6094 L 0.3230,6.7631 L 0.3651,7.1823 L 0.3651,7.3081 L 0.3791,7.4338 L 0.3932,7.5456 L 0.3932,7.6574 L 0.4072,7.7692 L 0.4213,7.8670 L 0.4213,7.9509 L 0.4353,8.0347 L 0.4353,8.1046 L 0.4493,8.1744 L 0.4493,8.2723 L 0.4634,8.3142 L 0.4634,8.4260 L 0.4774,8.4679 L 0.4774,8.4958 L 0.4915,8.5377 L 0.4915,8.5657 L 0.5055,8.5936 L 0.5195,8.6356 L 0.5617,8.7194 L 0.5898,8.7473 L 0.6038,8.7753 L 0.6319,8.8032 L 0.6459,8.8312 L 0.6740,8.8591 L 0.7021,8.8731 L 0.7161,8.9011 L 0.7442,8.9150 L 0.7723,8.9430 L 0.8285,8.9709 L 0.8706,8.9849 L 0.9548,9.0268 L 0.9970,9.0268 L 1.0250,9.0408 L 1.0672,9.0408 L 1.0953,9.0548 L 14.0137,9.0548 L 14.0417,9.0408 L 14.0839,9.0408 L 14.1120,9.0268 L 14.1541,9.0268 L 14.2383,8.9849 L 14.2805,8.9709 L 14.3366,8.9430 L 14.3647,8.9150 L 14.3928,8.9011 L 14.4068,8.8731 L 14.4349,8.8591 L 14.4630,8.8312 L 14.4770,8.8032 L 14.5051,8.7753 L 14.5192,8.7473 L 14.5472,8.7194 L 14.5894,8.6356 L 14.6034,8.5936 L 14.6175,8.5657 L 14.6175,8.5377 L 14.6315,8.4958 L 14.6315,8.4679 L 14.6455,8.4260 L 14.6455,8.3142 L 14.6596,8.2723 L 14.6596,8.1744 L 14.6736,8.1046 L 14.6736,8.0347 L 14.6877,7.9648 L 14.6877,7.8670 L 14.7157,7.6714 L 14.7157,7.5596 L 14.7298,7.4478 L 14.7579,7.1963 L 14.7579,7.0705 L 14.7719,6.9308 L 14.7860,6.7771 L 14.7860,6.6374 L 14.8140,6.3299 L 14.8140,6.1623 L 14.8281,6.0086 L 14.8281,5.8409 L 14.8421,5.6732 L 14.8421,5.3239 L 14.8562,5.1562 L 14.8562,4.0942 L 14.8421,3.9265 L 14.8421,3.5772 L 14.8281,3.4095 L 14.8281,3.2418 L 14.8140,3.0881 L 14.8140,2.9204 L 14.7860,2.6130 L 14.7860,2.4593 L 14.7579,2.1798 L 14.7579,2.0401 L 14.7298,1.7886 L 14.7157,1.6768 L 14.7157,1.5650 L 14.7017,1.4532 L 14.6877,1.3554 L 14.6877,1.2716 L 14.6736,1.1877 L 14.6736,1.1179 L 14.6596,1.0480 L 14.6596,0.9502 L 14.6455,0.9083 L 14.6455,0.8943 L 14.6455,0.8664 Z" stroke="#494949" stroke-width="0.1201" stroke-linecap="round" stroke-linejoin="round" fill="#494949"/>
        <path d="M 14.5332,0.9781 L 14.5332,0.9083 L 14.5192,0.8664 L 14.5192,0.8384 L 14.5051,0.7965 L 14.5051,0.7685 L 14.4770,0.7126 L 14.4630,0.6707 L 14.4349,0.6428 L 14.4068,0.5869 L 14.3787,0.5589 L 14.3647,0.5310 L 14.3366,0.5170 L 14.2383,0.4192 L 14.2102,0.4052 L 14.1681,0.3913 L 14.0558,0.3354 L 14.0137,0.3214 L 13.9856,0.3074 L 13.9154,0.3074 L 13.8873,0.2934 L 1.2216,0.2934 L 1.1935,0.3074 L 1.1514,0.3074 L 1.1233,0.3214 L 1.0953,0.3214 L 1.0672,0.3354 L 1.0250,0.3493 L 0.9127,0.4052 L 0.8846,0.4332 L 0.8565,0.4471 L 0.8285,0.4751 L 0.8144,0.5030 L 0.7863,0.5170 L 0.7723,0.5450 L 0.7442,0.5729 L 0.7302,0.6009 L 0.7021,0.6288 L 0.6600,0.7126 L 0.6459,0.7546 L 0.6319,0.7825 L 0.6319,0.8105 L 0.6178,0.8524 L 0.6178,0.8803 L 0.6038,0.9222 L 0.6038,1.0340 L 0.5898,1.0760 L 0.5898,1.1738 L 0.5757,1.2297 L 0.5757,1.2995 L 0.5617,1.3694 L 0.5617,1.4532 L 0.5336,1.6489 L 0.5336,1.7467 L 0.5195,1.8585 L 0.5055,1.9842 L 0.5055,2.1100 L 0.4774,2.3615 L 0.4634,2.5012 L 0.4634,2.6549 L 0.4493,2.7947 L 0.4353,2.9484 L 0.4353,3.1021 L 0.4213,3.2558 L 0.4213,3.4235 L 0.4072,3.5912 L 0.4072,3.9265 L 0.3932,4.0942 L 0.3932,5.1143 L 0.4072,5.2819 L 0.4072,5.6173 L 0.4213,5.7850 L 0.4213,5.9387 L 0.4353,6.1064 L 0.4353,6.2601 L 0.4493,6.4138 L 0.4634,6.5535 L 0.4634,6.6933 L 0.4915,6.9727 L 0.5055,7.0985 L 0.5055,7.2242 L 0.5195,7.3500 L 0.5336,7.4618 L 0.5336,7.5596 L 0.5617,7.7552 L 0.5617,7.8391 L 0.5757,7.9229 L 0.5757,7.9928 L 0.5898,8.0487 L 0.5898,8.1465 L 0.6038,8.1884 L 0.6038,8.3002 L 0.6178,8.3421 L 0.6178,8.3701 L 0.6319,8.4120 L 0.6319,8.4399 L 0.6459,8.4679 L 0.6600,8.5098 L 0.7021,8.5936 L 0.7302,8.6216 L 0.7442,8.6495 L 0.7723,8.6775 L 0.7863,8.7054 L 0.8565,8.7753 L 0.8846,8.7893 L 0.9127,8.8172 L 1.0250,8.8731 L 1.0672,8.8871 L 1.0953,8.9011 L 1.1233,8.9011 L 1.1514,8.9150 L 1.1935,8.9150 L 1.2216,8.9290 L 13.8873,8.9290 L 13.9154,8.9150 L 13.9575,8.9150 L 13.9856,8.9011 L 14.0137,8.9011 L 14.0417,8.8871 L 14.0839,8.8731 L 14.1962,8.8172 L 14.2243,8.7893 L 14.2524,8.7753 L 14.3226,8.7054 L 14.3366,8.6775 L 14.3647,8.6495 L 14.3787,8.6216 L 14.4068,8.5936 L 14.4490,8.5098 L 14.4630,8.4679 L 14.4770,8.4399 L 14.4770,8.4120 L 14.4911,8.3701 L 14.4911,8.3421 L 14.5051,8.3002 L 14.5051,8.1884 L 14.5192,8.1465 L 14.5192,8.0627 L 14.5332,7.9928 L 14.5332,7.9229 L 14.5472,7.8530 L 14.5472,7.7692 L 14.5753,7.5736 L 14.5753,7.4758 L 14.5894,7.3640 L 14.6034,7.2382 L 14.6175,7.1264 L 14.6175,6.9867 L 14.6315,6.8609 L 14.6455,6.7212 L 14.6455,6.5815 L 14.6736,6.2741 L 14.6736,6.1203 L 14.6877,5.9666 L 14.6877,5.8129 L 14.7017,5.6453 L 14.7017,5.3099 L 14.7157,5.1422 L 14.7157,4.1082 L 14.7017,3.9405 L 14.7017,3.6051 L 14.6877,3.4514 L 14.6877,3.2837 L 14.6736,3.1300 L 14.6736,2.9624 L 14.6596,2.8226 L 14.6596,2.6689 L 14.6455,2.5152 L 14.6455,2.3755 L 14.6315,2.2497 L 14.6315,2.1100 L 14.6175,1.9842 L 14.6034,1.8724 L 14.6034,1.7606 L 14.5894,1.6489 L 14.5894,1.5510 L 14.5753,1.4532 L 14.5753,1.3694 L 14.5613,1.2856 L 14.5613,1.2157 L 14.5472,1.1598 L 14.5472,1.0620 L 14.5332,1.0201 L 14.5332,0.9921 L 14.5332,0.9781 Z" stroke="#000000" stroke-width="0.1201" stroke-linecap="round" stroke-linejoin="round" fill="#494949"/>
        <path d="M 0.6459,0.6847 L 0.2668,0.6847 " stroke="#000000" stroke-width="0.1201" stroke-linecap="round" stroke-linejoin="round" fill="none"/>
        <path d="M 1.1935,0.2934 L 1.1935,0.0419 " stroke="#000000" stroke-width="0.1201" stroke-linecap="round" stroke-linejoin="round" fill="none"/>
        <path d="M 14.4770,0.6847 L 14.8562,0.6847 " stroke="#000000" stroke-width="0.1201" stroke-linecap="round" stroke-linejoin="round" fill="none"/>
        <path d="M 14.4770,0.6847 L 14.8562,0.6847 " stroke="#000000" stroke-width="0.1201" stroke-linecap="round" stroke-linejoin="round" fill="none"/>
        <path d="M 13.9294,0.2934 L 13.9294,0.0279 " stroke="#000000" stroke-width="0.1201" stroke-linecap="round" stroke-linejoin="round" fill="none"/>
        <path d="M 0.6459,8.5517 L 0.2668,8.5517 " stroke="#000000" stroke-width="0.1201" stroke-linecap="round" stroke-linejoin="round" fill="none"/>
        <path d="M 1.1935,8.9430 L 1.1935,9.1945 " stroke="#000000" stroke-width="0.1201" stroke-linecap="round" stroke-linejoin="round" fill="none"/>
        <path d="M 14.4349,8.5517 L 14.8562,8.5517 " stroke="#000000" stroke-width="0.1201" stroke-linecap="round" stroke-linejoin="round" fill="none"/>
        <path d="M 13.9294,8.9150 L 13.9294,9.2085 " stroke="#000000" stroke-width="0.1201" stroke-linecap="round" stroke-linejoin="round" fill="none"/>
        <path d="M 13.8873,2.3755 L 1.2216,2.3755 L 1.2216,7.0985 L 13.8873,7.0985 L 13.8873,2.3755 Z" stroke="#000000" stroke-width="0.1201" stroke-linecap="round" stroke-linejoin="round" fill="#3D3D3D"/>
        <path d="M 14.7017,4.1641 L 0.0421,4.1641 L 0.0421,4.2200 L 14.7017,4.2200 L 14.7017,4.1641 Z" stroke="#000000" stroke-width="0.1201" stroke-linecap="round" stroke-linejoin="round" fill="#000000"/>
        <path d="M 12.7499,2.8925 L 3.5666,2.8925 L 3.5666,6.8050 L 12.7499,6.8050 L 12.7499,2.8925 Z" stroke="#282828" stroke-width="0.1201" stroke-linecap="round" stroke-linejoin="round" fill="#282828"/>
        <path d="M 8.1161,2.9903 L 3.7070,2.9903 L 3.7070,6.7072 L 8.1161,6.7072 L 8.1161,2.9903 Z" stroke="#000000" stroke-width="0.1201" stroke-linecap="round" stroke-linejoin="round" fill="#BFBFBF"/>
        <path d="M 12.5954,2.9903 L 8.1863,2.9903 L 8.1863,6.7072 L 12.5954,6.7072 L 12.5954,2.9903 Z" stroke="#000000" stroke-width="0.1201" stroke-linecap="round" stroke-linejoin="round" fill="#BFBFBF"/>
        <path d="M 2.0501,0.0419 L 1.4323,0.0419 L 1.4323,0.7965 L 2.0501,0.7965 L 2.0501,0.0419 Z" stroke="#000000" stroke-width="0.1201" stroke-linecap="round" stroke-linejoin="round" fill="#00FF00"/>
        <path d="M 4.1142,8.0766 L 1.0110,8.0766 L 1.0110,9.1665 L 4.1142,9.1665 L 4.1142,8.0766 Z" stroke="#000000" stroke-width="0.1201" stroke-linecap="round" stroke-linejoin="round" fill="#494949"/>
        <path d="M 1.6008,8.0766 L 1.0110,8.0766 L 1.0110,9.1665 L 1.6008,9.1665 L 1.6008,8.0766 Z" stroke="#3D3D3D" stroke-width="0.1201" stroke-linecap="round" stroke-linejoin="round" fill="#3D3D3D"/>
        <path d="M 1.4042,8.0766 L 1.0110,8.0766 L 1.0110,9.1665 L 1.4042,9.1665 L 1.4042,8.0766 Z" stroke="#383838" stroke-width="0.1201" stroke-linecap="round" stroke-linejoin="round" fill="#383838"/>
        <path d="M 1.1795,8.0766 L 1.0110,8.0766 L 1.0110,9.1665 L 1.1795,9.1665 L 1.1795,8.0766 Z" stroke="#333333" stroke-width="0.1201" stroke-linecap="round" stroke-linejoin="round" fill="#333333"/>
        <path d="M 4.1142,8.0766 L 3.5245,8.0766 L 3.5245,9.1665 L 4.1142,9.1665 L 4.1142,8.0766 Z" stroke="#3D3D3D" stroke-width="0.1201" stroke-linecap="round" stroke-linejoin="round" fill="#3D3D3D"/>
        <path d="M 4.1142,8.0766 L 3.7211,8.0766 L 3.7211,9.1665 L 4.1142,9.1665 L 4.1142,8.0766 Z" stroke="#383838" stroke-width="0.1201" stroke-linecap="round" stroke-linejoin="round" fill="#383838"/>
        <path d="M 4.1142,8.0766 L 3.9457,8.0766 L 3.9457,9.1665 L 4.1142,9.1665 L 4.1142,8.0766 Z" stroke="#333333" stroke-width="0.1201" stroke-linecap="round" stroke-linejoin="round" fill="#333333"/>
        <path d="M 4.1142,8.0766 L 1.0110,8.0766 L 1.0110,9.1665 L 4.1142,9.1665 L 4.1142,8.0766 Z" stroke="#000000" stroke-width="0.1201" stroke-linecap="round" stroke-linejoin="round" fill="none"/>
        <path d="M 1.3199,8.0766 L 1.0110,8.0766 L 1.0110,7.2522 L 1.3199,7.2522 L 1.3199,8.0766 Z" stroke="#000000" stroke-width="0.1201" stroke-linecap="round" stroke-linejoin="round" fill="#545454"/>
        <path d="M 4.1142,8.0766 L 3.8053,8.0766 L 3.8053,7.2522 L 4.1142,7.2522 L 4.1142,8.0766 Z" stroke="#000000" stroke-width="0.1201" stroke-linecap="round" stroke-linejoin="round" fill="#545454"/>
        <text font-family="Arial" fill="#000000" style="white-space:pre;" font-weight="400" text-anchor="start" x="0.5055" y="0.8543" font-size="0.1264"><![CDATA[PORT]]></text>
        <text font-family="Arial" fill="#000000" style="white-space:pre;" font-weight="400" text-anchor="start" x="0.5898" y="1.0080" font-size="0.1264"><![CDATA[ON]]></text>
        <text font-family="Arial" fill="#000000" style="white-space:pre;" font-weight="400" text-anchor="start" x="1.4182" y="0.5329" font-size="0.1264"><![CDATA[OUT]]></text>
        <text font-family="Arial" fill="#000000" style="white-space:pre;" font-weight="400" text-anchor="start" x="2.4994" y="0.3792" font-size="0.1264"><![CDATA[DATA]]></text>
        <text font-family="Arial" fill="#000000" style="white-space:pre;" font-weight="400" text-anchor="start" x="2.5977" y="0.5329" font-size="0.1264"><![CDATA[IN]]></text>
        <text font-family="Arial" fill="#000000" style="white-space:pre;" font-weight="400" text-anchor="start" x="1.0531" y="0.3792" font-size="0.1264"><![CDATA[DATA]]></text>
        <text font-family="Arial" fill="#000000" style="white-space:pre;" font-weight="400" text-anchor="start" x="1.5586" y="0.3792" font-size="0.1264"><![CDATA[POWER]]></text>
        <path d="M 5.6142,1.2120 L 5.6320,1.2120 L 5.6320,1.2298 L 5.6497,1.2298 L 5.6497,1.2476 L 5.6853,1.2476 L 5.6853,1.2298 L 5.7030,1.2298 L 5.6497,1.1764 L 5.6497,1.1585 L 5.6675,1.1585 L 5.6675,1.1229 L 5.6853,1.1229 L 5.6853,1.1051 L 5.6675,1.1051 L 5.6497,1.0872 L 5.6320,1.0872 L 5.6320,1.1229 L 5.6142,1.1229 L 5.6142,1.1051 L 5.5964,1.1051 L 5.5964,1.0872 L 5.5787,1.0872 L 5.5787,1.0694 L 5.5609,1.0694 L 5.5609,1.0516 L 5.5254,1.0159 L 5.5254,0.9981 L 5.5076,0.9981 L 5.5076,0.9625 L 5.4898,0.9625 L 5.4898,0.9446 L 5.5076,0.9446 L 5.5076,0.9268 L 5.5609,0.9268 L 5.5609,0.9446 L 5.5787,0.9446 L 5.5787,0.9803 L 5.5609,0.9981 L 5.5431,0.9981 L 5.5431,1.0159 L 5.5254,1.0159 L 5.5609,1.0516 L 5.5787,1.0516 L 5.5787,1.0338 L 5.5964,1.0338 L 5.5964,1.0159 L 5.6142,1.0159 L 5.6142,0.9268 L 5.5964,0.9090 L 5.5787,0.9090 L 5.5787,0.8912 L 5.5076,0.8912 L 5.4898,0.9090 L 5.4721,0.9090 L 5.4721,0.9268 L 5.4543,0.9268 L 5.4543,1.0159 L 5.4721,1.0159 L 5.4721,1.0338 L 5.4898,1.0338 L 5.4898,1.0516 L 5.4721,1.0516 L 5.4721,1.0694 L 5.4543,1.0694 L 5.4543,1.0872 L 5.4365,1.0872 L 5.4365,1.1051 L 5.4188,1.1051 L 5.4188,1.1407 L 5.4010,1.1407 L 5.4010,1.1942 L 5.4188,1.1942 L 5.4188,1.2298 L 5.4543,1.2298 L 5.4543,1.2476 L 5.5787,1.2476 L 5.5787,1.2298 L 5.6142,1.2298 L 5.6142,1.1942 L 5.5964,1.1942 L 5.5964,1.1764 L 5.5787,1.1942 L 5.5609,1.1942 L 5.5609,1.2120 L 5.4898,1.2120 L 5.4721,1.1942 L 5.4721,1.1764 L 5.4543,1.1764 L 5.4543,1.1229 L 5.4721,1.1229 L 5.4721,1.1051 L 5.4898,1.1051 L 5.4898,1.0872 L 5.5076,1.0872 L 5.5964,1.1764 L 5.5964,1.1942 L 5.6142,1.1942 L 5.6142,1.2120 Z" stroke="#000000" stroke-width="0.1201" stroke-linecap="round" stroke-linejoin="round" fill="#000000"/>
        <path d="M 4.1054,3.4706 L 4.1054,5.5862 L 4.9991,5.5862 L 4.9991,6.0840 L 5.3622,6.0840 L 5.3622,6.5817 L 6.4235,6.5817 L 6.4235,6.0840 L 6.7865,6.0840 L 6.7865,5.5862 L 7.6802,5.5862 L 7.6802,3.4706 L 4.1054,3.4706 Z" stroke="#161616" stroke-width="0.1201" stroke-linecap="round" stroke-linejoin="round" fill="#000000"/>
        <path d="M 8.5599,3.4706 L 8.5599,5.5862 L 9.4536,5.5862 L 9.4536,6.0840 L 9.8167,6.0840 L 9.8167,6.5817 L 10.8780,6.5817 L 10.8780,6.0840 L 11.2410,6.0840 L 11.2410,5.5862 L 12.1347,5.5862 L 12.1347,3.4706 L 8.5599,3.4706 Z" stroke="#161616" stroke-width="0.1201" stroke-linecap="round" stroke-linejoin="round" fill="#000000"/>
      </g>
      <!--emf-blob end-->
    </g>
  </g>
</svg>
