<svg xmlns="http://www.w3.org/2000/svg" xmlns:xlink="http://www.w3.org/1999/xlink" version="1.1" width="8.4336000000" height="2.0564000000" viewBox="0 0 151.8061 37.0185">
  <title><![CDATA[QSFP+ 40GE Transceiver]]></title>
  <g transform=" scale(4.000000) ">
    <!--converted by libvisio2svg-->
    <g transform=" translate(73.422700,0.720000) ">
      <!--emf-blob start-->
      <g transform="translate(-0.0000, -0.0000)">
        <path d="M 4.7733,2.6653 L 0.0000,2.6653 L 0.0000,0.0000 L 4.7733,0.0000 L 4.7733,2.6653 Z" stroke="#000000" stroke-width="0.1171" stroke-linecap="round" stroke-linejoin="round" fill="#DDDDDD"/>
        <path d="M 4.2987,2.6653 L 0.4746,2.6653 L 0.4746,0.0000 L 4.2987,0.0000 L 4.2987,2.6653 Z" stroke="#000000" stroke-width="0.1171" stroke-linecap="round" stroke-linejoin="round" fill="#DDDDDD"/>
        <path d="M 4.2189,2.6087 L 0.5950,2.6087 L 0.5950,0.0561 L 4.2189,0.0561 L 4.2189,2.6087 Z" stroke="#000000" stroke-width="0.1171" stroke-linecap="round" stroke-linejoin="round" fill="#999974"/>
        <path d="M 4.1648,0.2945 L 4.1648,0.2525 L 4.1243,0.1683 L 4.0431,0.1262 L 0.7708,0.1262 L 0.6896,0.1683 L 0.6491,0.2525 L 0.6491,2.4264 L 0.6896,2.5106 L 0.7708,2.5526 L 4.0431,2.5526 L 4.1243,2.5106 L 4.1648,2.4264 L 4.1648,2.3843 L 4.1648,0.2945 Z" stroke="#7F7F7F" stroke-width="0.1171" stroke-linecap="round" stroke-linejoin="round" fill="#CCCCB9"/>
        <path d="M 0.8654,2.3843 L 0.8654,0.8556 L 0.9871,0.8556 L 0.9871,0.7013 L 0.8654,0.7013 L 0.8654,0.4628 L 1.1223,0.4628 L 1.1223,0.1823 L 2.0013,0.1823 L 2.0013,0.4628 L 2.2717,0.4628 L 2.2717,0.7013 L 2.1500,0.7013 L 2.1500,0.8556 L 2.2717,0.8556 L 2.2717,2.3843 L 0.8654,2.3843 Z" stroke="#000000" stroke-width="0.1171" stroke-linecap="round" stroke-linejoin="round" fill="#938476"/>
        <path d="M 0.8654,0.5891 L 0.8654,0.4628 L 1.1223,0.4628 L 1.1223,0.1683 L 2.0013,0.1683 L 2.0013,0.4628 L 2.2717,0.4628 L 2.2717,0.5891 L 0.8654,0.5891 Z" stroke="#000000" stroke-width="0.1171" stroke-linecap="round" stroke-linejoin="round" fill="#938476"/>
        <path d="M 0.8654,0.5891 L 0.8654,0.6452 L 2.2717,0.6452 L 2.2717,0.5891 L 0.8654,0.5891 Z" stroke="#000000" stroke-width="0.1171" stroke-linecap="round" stroke-linejoin="round" fill="#706257"/>
        <path d="M 0.8654,1.2342 L 2.2582,1.2342 " stroke="#000000" stroke-width="0.1171" stroke-linecap="round" stroke-linejoin="round" fill="none"/>
        <path d="M 2.0689,2.3843 L 2.1230,2.3282 L 2.1365,2.3002 L 2.1636,2.2721 L 2.1771,2.2441 L 2.1906,2.2020 L 2.2176,2.1459 L 2.2312,2.1038 L 2.2582,2.0477 L 2.2582,1.9776 L 2.2717,1.9355 L 2.2717,1.7953 L 2.2582,1.7532 L 2.2582,1.6831 L 2.2312,1.6270 L 2.2176,1.5849 L 2.1906,1.5288 L 2.1771,1.4867 L 2.1636,1.4587 L 2.1365,1.4306 L 2.1230,1.4026 L 2.0148,1.2903 L 1.9878,1.2763 L 1.9607,1.2483 L 1.9337,1.2342 L 1.8931,1.2202 L 1.8390,1.1922 L 1.7985,1.1781 L 1.7444,1.1501 L 1.6768,1.1501 L 1.6362,1.1361 L 1.5010,1.1361 L 1.4604,1.1501 L 1.3928,1.1501 L 1.3387,1.1781 L 1.2981,1.1922 L 1.2440,1.2202 L 1.2035,1.2342 L 1.1764,1.2483 L 1.1494,1.2763 L 1.1223,1.2903 L 1.0142,1.4026 L 1.0006,1.4306 L 0.9736,1.4587 L 0.9601,1.4867 L 0.9466,1.5288 L 0.9195,1.5849 L 0.9060,1.6270 L 0.8789,1.6831 L 0.8789,1.7532 L 0.8654,1.7953 L 0.8654,1.9355 L 0.8789,1.9776 L 0.8789,2.0477 L 0.9060,2.1038 L 0.9195,2.1459 L 0.9466,2.2020 L 0.9601,2.2441 L 0.9736,2.2721 L 1.0006,2.3002 L 1.0142,2.3282 L 1.0683,2.3843 L 2.0554,2.3843 L 2.0689,2.3843 Z" stroke="#000000" stroke-width="0.1171" stroke-linecap="round" stroke-linejoin="round" fill="#A09183"/>
        <ellipse cx="1.5077" cy="1.8093" rx="0.2772" ry="0.2945" fill="none" stroke="#494949" stroke-width="0.1171" stroke-linecap="round" stroke-linejoin="round"/>
        <ellipse cx="1.5077" cy="1.8093" rx="0.1690" ry="0.1823" fill="#706257" stroke="#000000" stroke-width="0.1171" stroke-linecap="round" stroke-linejoin="round"/>
        <ellipse cx="1.5077" cy="1.8093" rx="0.1690" ry="0.1823" fill="none" stroke="#000000" stroke-width="0.1171" stroke-linecap="round" stroke-linejoin="round"/>
        <ellipse cx="1.5077" cy="1.8093" rx="0.1555" ry="0.1683" fill="#9B8C81" stroke="#000000" stroke-width="0.1171" stroke-linecap="round" stroke-linejoin="round"/>
        <ellipse cx="1.5077" cy="1.8093" rx="0.1555" ry="0.1683" fill="none" stroke="#000000" stroke-width="0.1171" stroke-linecap="round" stroke-linejoin="round"/>
        <path d="M 1.6091,1.6550 L 1.5415,1.6550 L 1.5415,2.0898 L 1.6091,2.0898 L 1.6091,1.6550 Z" stroke="#000000" stroke-width="0.1171" stroke-linecap="round" stroke-linejoin="round" fill="#4F443C"/>
        <path d="M 2.4881,2.3843 L 2.4881,0.8556 L 2.6098,0.8556 L 2.6098,0.7013 L 2.4881,0.7013 L 2.4881,0.4628 L 2.7450,0.4628 L 2.7450,0.1823 L 3.6240,0.1823 L 3.6240,0.4628 L 3.8944,0.4628 L 3.8944,0.7013 L 3.7727,0.7013 L 3.7727,0.8556 L 3.8944,0.8556 L 3.8944,2.3843 L 2.4881,2.3843 Z" stroke="#000000" stroke-width="0.1171" stroke-linecap="round" stroke-linejoin="round" fill="#938476"/>
        <path d="M 2.4881,0.5891 L 2.4881,0.4628 L 2.7450,0.4628 L 2.7450,0.1683 L 3.6240,0.1683 L 3.6240,0.4628 L 3.8944,0.4628 L 3.8944,0.5891 L 2.4881,0.5891 Z" stroke="#000000" stroke-width="0.1171" stroke-linecap="round" stroke-linejoin="round" fill="#938476"/>
        <path d="M 2.4881,0.5891 L 2.4881,0.6452 L 3.8944,0.6452 L 3.8944,0.5891 L 2.4881,0.5891 Z" stroke="#000000" stroke-width="0.1171" stroke-linecap="round" stroke-linejoin="round" fill="#706257"/>
        <path d="M 2.4881,1.2342 L 3.8809,1.2342 " stroke="#000000" stroke-width="0.1171" stroke-linecap="round" stroke-linejoin="round" fill="none"/>
        <path d="M 3.6916,2.3843 L 3.7457,2.3282 L 3.7592,2.3002 L 3.7862,2.2721 L 3.7997,2.2441 L 3.8133,2.2020 L 3.8403,2.1459 L 3.8538,2.1038 L 3.8809,2.0477 L 3.8809,1.9776 L 3.8944,1.9355 L 3.8944,1.7953 L 3.8809,1.7532 L 3.8809,1.6831 L 3.8538,1.6270 L 3.8403,1.5849 L 3.8133,1.5288 L 3.7997,1.4867 L 3.7862,1.4587 L 3.7592,1.4306 L 3.7457,1.4026 L 3.6375,1.2903 L 3.6104,1.2763 L 3.5834,1.2483 L 3.5563,1.2342 L 3.5158,1.2202 L 3.4617,1.1922 L 3.4211,1.1781 L 3.3670,1.1501 L 3.2994,1.1501 L 3.2589,1.1361 L 3.1236,1.1361 L 3.0831,1.1501 L 3.0155,1.1501 L 2.9614,1.1781 L 2.9208,1.1922 L 2.8667,1.2202 L 2.8261,1.2342 L 2.7991,1.2483 L 2.7721,1.2763 L 2.7450,1.2903 L 2.6368,1.4026 L 2.6233,1.4306 L 2.5963,1.4587 L 2.5827,1.4867 L 2.5692,1.5288 L 2.5422,1.5849 L 2.5287,1.6270 L 2.5016,1.6831 L 2.5016,1.7532 L 2.4881,1.7953 L 2.4881,1.9355 L 2.5016,1.9776 L 2.5016,2.0477 L 2.5287,2.1038 L 2.5422,2.1459 L 2.5692,2.2020 L 2.5827,2.2441 L 2.5963,2.2721 L 2.6233,2.3002 L 2.6368,2.3282 L 2.6909,2.3843 L 3.6780,2.3843 L 3.6916,2.3843 Z" stroke="#000000" stroke-width="0.1171" stroke-linecap="round" stroke-linejoin="round" fill="#A09183"/>
        <ellipse cx="3.1304" cy="1.8093" rx="0.2772" ry="0.2945" fill="none" stroke="#494949" stroke-width="0.1171" stroke-linecap="round" stroke-linejoin="round"/>
        <ellipse cx="3.1304" cy="1.8093" rx="0.1690" ry="0.1823" fill="#706257" stroke="#000000" stroke-width="0.1171" stroke-linecap="round" stroke-linejoin="round"/>
        <ellipse cx="3.1304" cy="1.8093" rx="0.1690" ry="0.1823" fill="none" stroke="#000000" stroke-width="0.1171" stroke-linecap="round" stroke-linejoin="round"/>
        <ellipse cx="3.1304" cy="1.8093" rx="0.1555" ry="0.1683" fill="#9B8C81" stroke="#000000" stroke-width="0.1171" stroke-linecap="round" stroke-linejoin="round"/>
        <ellipse cx="3.1304" cy="1.8093" rx="0.1555" ry="0.1683" fill="none" stroke="#000000" stroke-width="0.1171" stroke-linecap="round" stroke-linejoin="round"/>
        <path d="M 3.2318,1.6550 L 3.1642,1.6550 L 3.1642,2.0898 L 3.2318,2.0898 L 3.2318,1.6550 Z" stroke="#000000" stroke-width="0.1171" stroke-linecap="round" stroke-linejoin="round" fill="#4F443C"/>
      </g>
      <!--emf-blob end-->
    </g>
  </g>
</svg>
