<svg xmlns="http://www.w3.org/2000/svg" xmlns:xlink="http://www.w3.org/1999/xlink" version="1.1" width="8.4884000000" height="2.0564000000" viewBox="0 0 152.7905 37.0185">
  <title><![CDATA[SFP Fiber GE Transceiver]]></title>
  <g transform=" scale(4.000000) ">
    <!--converted by libvisio2svg-->
    <g transform=" translate(74.396800,0.720000) ">
      <!--emf-blob start-->
      <g transform="translate(-0.0000, -0.0000)">
        <path d="M 3.8365,2.6653 L 0.0000,2.6653 L 0.0000,0.0000 L 3.8365,0.0000 L 3.8365,2.6653 Z" stroke="#000000" stroke-width="0.1171" stroke-linecap="round" stroke-linejoin="round" fill="#DDDDDD"/>
        <path d="M 3.7286,2.6087 L 0.1081,2.6087 L 0.1081,0.0561 L 3.7286,0.0561 L 3.7286,2.6087 Z" stroke="#000000" stroke-width="0.1171" stroke-linecap="round" stroke-linejoin="round" fill="#999974"/>
        <path d="M 3.6746,0.2945 L 3.6746,0.2525 L 3.6341,0.1683 L 3.5530,0.1262 L 0.2837,0.1262 L 0.2026,0.1683 L 0.1621,0.2525 L 0.1621,2.4264 L 0.2026,2.5106 L 0.2837,2.5526 L 3.5530,2.5526 L 3.6341,2.5106 L 3.6746,2.4264 L 3.6746,2.3843 L 3.6746,0.2945 Z" stroke="#7F7F7F" stroke-width="0.1171" stroke-linecap="round" stroke-linejoin="round" fill="#CCCCB9"/>
        <path d="M 0.3783,2.3843 L 0.3783,0.8556 L 0.4999,0.8556 L 0.4999,0.7013 L 0.3783,0.7013 L 0.3783,0.4628 L 0.6349,0.4628 L 0.6349,0.1823 L 1.5131,0.1823 L 1.5131,0.4628 L 1.7833,0.4628 L 1.7833,0.7013 L 1.6617,0.7013 L 1.6617,0.8556 L 1.7833,0.8556 L 1.7833,2.3843 L 0.3783,2.3843 Z" stroke="#000000" stroke-width="0.1171" stroke-linecap="round" stroke-linejoin="round" fill="#938476"/>
        <path d="M 0.3783,0.5891 L 0.3783,0.4628 L 0.6349,0.4628 L 0.6349,0.1683 L 1.5131,0.1683 L 1.5131,0.4628 L 1.7833,0.4628 L 1.7833,0.5891 L 0.3783,0.5891 Z" stroke="#000000" stroke-width="0.1171" stroke-linecap="round" stroke-linejoin="round" fill="#938476"/>
        <path d="M 0.3783,0.5891 L 0.3783,0.6452 L 1.7833,0.6452 L 1.7833,0.5891 L 0.3783,0.5891 Z" stroke="#000000" stroke-width="0.1171" stroke-linecap="round" stroke-linejoin="round" fill="#706257"/>
        <path d="M 0.3783,1.2342 L 1.7697,1.2342 " stroke="#000000" stroke-width="0.1171" stroke-linecap="round" stroke-linejoin="round" fill="none"/>
        <path d="M 1.5806,2.3843 L 1.6347,2.3282 L 1.6482,2.3002 L 1.6752,2.2721 L 1.6887,2.2441 L 1.7022,2.2020 L 1.7292,2.1459 L 1.7427,2.1038 L 1.7697,2.0477 L 1.7697,1.9776 L 1.7833,1.9355 L 1.7833,1.7953 L 1.7697,1.7532 L 1.7697,1.6831 L 1.7427,1.6270 L 1.7292,1.5849 L 1.7022,1.5288 L 1.6887,1.4867 L 1.6752,1.4587 L 1.6482,1.4306 L 1.6347,1.4026 L 1.5266,1.2903 L 1.4996,1.2763 L 1.4725,1.2483 L 1.4455,1.2342 L 1.4050,1.2202 L 1.3510,1.1922 L 1.3104,1.1781 L 1.2564,1.1501 L 1.1888,1.1501 L 1.1483,1.1361 L 1.0132,1.1361 L 0.9727,1.1501 L 0.9051,1.1501 L 0.8511,1.1781 L 0.8106,1.1922 L 0.7565,1.2202 L 0.7160,1.2342 L 0.6890,1.2483 L 0.6620,1.2763 L 0.6349,1.2903 L 0.5269,1.4026 L 0.5134,1.4306 L 0.4863,1.4587 L 0.4728,1.4867 L 0.4593,1.5288 L 0.4323,1.5849 L 0.4188,1.6270 L 0.3918,1.6831 L 0.3918,1.7532 L 0.3783,1.7953 L 0.3783,1.9355 L 0.3918,1.9776 L 0.3918,2.0477 L 0.4188,2.1038 L 0.4323,2.1459 L 0.4593,2.2020 L 0.4728,2.2441 L 0.4863,2.2721 L 0.5134,2.3002 L 0.5269,2.3282 L 0.5809,2.3843 L 1.5671,2.3843 L 1.5806,2.3843 Z" stroke="#000000" stroke-width="0.1171" stroke-linecap="round" stroke-linejoin="round" fill="#A09183"/>
        <ellipse cx="1.0200" cy="1.8093" rx="0.2769" ry="0.2945" fill="none" stroke="#494949" stroke-width="0.1171" stroke-linecap="round" stroke-linejoin="round"/>
        <ellipse cx="1.0200" cy="1.8093" rx="0.1689" ry="0.1823" fill="#706257" stroke="#000000" stroke-width="0.1171" stroke-linecap="round" stroke-linejoin="round"/>
        <ellipse cx="1.0200" cy="1.8093" rx="0.1689" ry="0.1823" fill="none" stroke="#000000" stroke-width="0.1171" stroke-linecap="round" stroke-linejoin="round"/>
        <ellipse cx="1.0200" cy="1.8093" rx="0.1554" ry="0.1683" fill="#9B8C81" stroke="#000000" stroke-width="0.1171" stroke-linecap="round" stroke-linejoin="round"/>
        <ellipse cx="1.0200" cy="1.8093" rx="0.1554" ry="0.1683" fill="none" stroke="#000000" stroke-width="0.1171" stroke-linecap="round" stroke-linejoin="round"/>
        <path d="M 1.1213,1.6550 L 1.0537,1.6550 L 1.0537,2.0898 L 1.1213,2.0898 L 1.1213,1.6550 Z" stroke="#000000" stroke-width="0.1171" stroke-linecap="round" stroke-linejoin="round" fill="#4F443C"/>
        <path d="M 1.9994,2.3843 L 1.9994,0.8556 L 2.1210,0.8556 L 2.1210,0.7013 L 1.9994,0.7013 L 1.9994,0.4628 L 2.2561,0.4628 L 2.2561,0.1823 L 3.1342,0.1823 L 3.1342,0.4628 L 3.4044,0.4628 L 3.4044,0.7013 L 3.2828,0.7013 L 3.2828,0.8556 L 3.4044,0.8556 L 3.4044,2.3843 L 1.9994,2.3843 Z" stroke="#000000" stroke-width="0.1171" stroke-linecap="round" stroke-linejoin="round" fill="#938476"/>
        <path d="M 1.9994,0.5891 L 1.9994,0.4628 L 2.2561,0.4628 L 2.2561,0.1683 L 3.1342,0.1683 L 3.1342,0.4628 L 3.4044,0.4628 L 3.4044,0.5891 L 1.9994,0.5891 Z" stroke="#000000" stroke-width="0.1171" stroke-linecap="round" stroke-linejoin="round" fill="#938476"/>
        <path d="M 1.9994,0.5891 L 1.9994,0.6452 L 3.4044,0.6452 L 3.4044,0.5891 L 1.9994,0.5891 Z" stroke="#000000" stroke-width="0.1171" stroke-linecap="round" stroke-linejoin="round" fill="#706257"/>
        <path d="M 1.9994,1.2342 L 3.3909,1.2342 " stroke="#000000" stroke-width="0.1171" stroke-linecap="round" stroke-linejoin="round" fill="none"/>
        <path d="M 3.2018,2.3843 L 3.2558,2.3282 L 3.2693,2.3002 L 3.2963,2.2721 L 3.3098,2.2441 L 3.3233,2.2020 L 3.3504,2.1459 L 3.3639,2.1038 L 3.3909,2.0477 L 3.3909,1.9776 L 3.4044,1.9355 L 3.4044,1.7953 L 3.3909,1.7532 L 3.3909,1.6831 L 3.3639,1.6270 L 3.3504,1.5849 L 3.3233,1.5288 L 3.3098,1.4867 L 3.2963,1.4587 L 3.2693,1.4306 L 3.2558,1.4026 L 3.1477,1.2903 L 3.1207,1.2763 L 3.0937,1.2483 L 3.0667,1.2342 L 3.0261,1.2202 L 2.9721,1.1922 L 2.9316,1.1781 L 2.8775,1.1501 L 2.8100,1.1501 L 2.7695,1.1361 L 2.6344,1.1361 L 2.5938,1.1501 L 2.5263,1.1501 L 2.4722,1.1781 L 2.4317,1.1922 L 2.3777,1.2202 L 2.3371,1.2342 L 2.3101,1.2483 L 2.2831,1.2763 L 2.2561,1.2903 L 2.1480,1.4026 L 2.1345,1.4306 L 2.1075,1.4587 L 2.0940,1.4867 L 2.0805,1.5288 L 2.0534,1.5849 L 2.0399,1.6270 L 2.0129,1.6831 L 2.0129,1.7532 L 1.9994,1.7953 L 1.9994,1.9355 L 2.0129,1.9776 L 2.0129,2.0477 L 2.0399,2.1038 L 2.0534,2.1459 L 2.0805,2.2020 L 2.0940,2.2441 L 2.1075,2.2721 L 2.1345,2.3002 L 2.1480,2.3282 L 2.2021,2.3843 L 3.1882,2.3843 L 3.2018,2.3843 Z" stroke="#000000" stroke-width="0.1171" stroke-linecap="round" stroke-linejoin="round" fill="#A09183"/>
        <ellipse cx="2.6479" cy="1.8093" rx="0.2837" ry="0.2945" fill="none" stroke="#494949" stroke-width="0.1171" stroke-linecap="round" stroke-linejoin="round"/>
        <ellipse cx="2.6479" cy="1.8093" rx="0.1756" ry="0.1823" fill="#706257" stroke="#000000" stroke-width="0.1171" stroke-linecap="round" stroke-linejoin="round"/>
        <ellipse cx="2.6479" cy="1.8093" rx="0.1756" ry="0.1823" fill="none" stroke="#000000" stroke-width="0.1171" stroke-linecap="round" stroke-linejoin="round"/>
        <ellipse cx="2.6411" cy="1.8093" rx="0.1554" ry="0.1683" fill="#9B8C81" stroke="#000000" stroke-width="0.1171" stroke-linecap="round" stroke-linejoin="round"/>
        <ellipse cx="2.6411" cy="1.8093" rx="0.1554" ry="0.1683" fill="none" stroke="#000000" stroke-width="0.1171" stroke-linecap="round" stroke-linejoin="round"/>
        <path d="M 2.7424,1.6550 L 2.6749,1.6550 L 2.6749,2.0898 L 2.7424,2.0898 L 2.7424,1.6550 Z" stroke="#000000" stroke-width="0.1171" stroke-linecap="round" stroke-linejoin="round" fill="#4F443C"/>
      </g>
      <!--emf-blob end-->
    </g>
  </g>
</svg>
