<svg xmlns="http://www.w3.org/2000/svg" xmlns:xlink="http://www.w3.org/1999/xlink" version="1.1" width="2.8348000000" height="2.8348000000" viewBox="0 0 51.0236 51.0236">
  <title><![CDATA[FAP-321E]]></title>
  <g transform=" scale(4.000000) ">
    <!--converted by libvisio2svg-->
    <g transform=" translate(576.000000,-756.000000) ">
      <!--emf-blob start-->
      <g transform="translate(-0.0000, -0.0000)">
        <path d="M 50.8477,0.7028 L 50.8477,0.6325 L 50.8337,0.5622 L 50.8197,0.5060 L 50.7916,0.4357 L 50.7355,0.3233 L 50.6935,0.2671 L 50.6093,0.1827 L 50.5532,0.1406 L 50.4411,0.0843 L 50.3709,0.0562 L 50.3149,0.0422 L 50.2447,0.0281 L 0.6310,0.0281 L 0.5609,0.0422 L 0.5048,0.0562 L 0.4347,0.0843 L 0.3225,0.1406 L 0.2664,0.1827 L 0.1823,0.2671 L 0.1402,0.3233 L 0.0841,0.4357 L 0.0561,0.5060 L 0.0421,0.5622 L 0.0280,0.6325 L 0.0280,50.3630 L 0.0421,50.4332 L 0.0561,50.4895 L 0.0841,50.5597 L 0.1402,50.6722 L 0.1823,50.7284 L 0.2664,50.8128 L 0.3225,50.8549 L 0.4347,50.9112 L 0.5048,50.9393 L 0.5609,50.9533 L 0.6310,50.9674 L 50.2447,50.9674 L 50.3149,50.9533 L 50.3709,50.9393 L 50.4411,50.9112 L 50.5532,50.8549 L 50.6093,50.8128 L 50.6935,50.7284 L 50.7355,50.6722 L 50.7916,50.5597 L 50.8197,50.4895 L 50.8337,50.4332 L 50.8477,50.3630 L 50.8477,50.2927 L 50.8477,0.7028 Z" stroke="#000000" stroke-width="0.1198" stroke-linecap="round" stroke-linejoin="round" fill="#D8D8D8"/>
        <path d="M 50.5953,0.9558 L 50.5953,0.8855 L 50.5813,0.8153 L 50.5673,0.7590 L 50.5392,0.6887 L 50.4831,0.5763 L 50.4411,0.5201 L 50.3569,0.4357 L 50.3008,0.3936 L 50.1886,0.3373 L 50.1185,0.3092 L 50.0624,0.2952 L 49.9923,0.2811 L 0.8835,0.2811 L 0.8133,0.2952 L 0.7572,0.3092 L 0.6871,0.3373 L 0.5749,0.3936 L 0.5189,0.4357 L 0.4347,0.5201 L 0.3926,0.5763 L 0.3366,0.6887 L 0.3085,0.7590 L 0.2945,0.8153 L 0.2805,0.8855 L 0.2805,50.1100 L 0.2945,50.1802 L 0.3085,50.2365 L 0.3366,50.3067 L 0.3926,50.4192 L 0.4347,50.4754 L 0.5189,50.5597 L 0.5749,50.6019 L 0.6871,50.6581 L 0.7572,50.6863 L 0.8133,50.7003 L 0.8835,50.7144 L 49.9923,50.7144 L 50.0624,50.7003 L 50.1185,50.6863 L 50.1886,50.6581 L 50.3008,50.6019 L 50.3569,50.5597 L 50.4411,50.4754 L 50.4831,50.4192 L 50.5392,50.3067 L 50.5673,50.2365 L 50.5813,50.1802 L 50.5953,50.1100 L 50.5953,50.0397 L 50.5953,0.9558 Z" stroke="#EFEFEF" stroke-width="0.1198" stroke-linecap="round" stroke-linejoin="round" fill="#EFEFEF"/>
        <ellipse cx="18.8400" cy="47.0176" rx="0.4698" ry="0.4779" fill="#000000" stroke="#000000" stroke-width="0.1198" stroke-linecap="round" stroke-linejoin="round"/>
        <ellipse cx="18.8400" cy="47.0176" rx="0.4698" ry="0.4779" fill="none" stroke="#000000" stroke-width="0.1198" stroke-linecap="round" stroke-linejoin="round"/>
        <ellipse cx="18.8400" cy="47.0176" rx="0.3576" ry="0.3655" fill="#00FF00" stroke="#000000" stroke-width="0.1198" stroke-linecap="round" stroke-linejoin="round"/>
        <ellipse cx="18.8400" cy="47.0176" rx="0.3576" ry="0.3655" fill="none" stroke="#000000" stroke-width="0.1198" stroke-linecap="round" stroke-linejoin="round"/>
        <ellipse cx="22.1144" cy="47.0176" rx="0.4768" ry="0.4779" fill="#000000" stroke="#000000" stroke-width="0.1198" stroke-linecap="round" stroke-linejoin="round"/>
        <ellipse cx="22.1144" cy="47.0176" rx="0.4768" ry="0.4779" fill="none" stroke="#000000" stroke-width="0.1198" stroke-linecap="round" stroke-linejoin="round"/>
        <ellipse cx="22.1144" cy="47.0176" rx="0.3646" ry="0.3655" fill="#00FF00" stroke="#000000" stroke-width="0.1198" stroke-linecap="round" stroke-linejoin="round"/>
        <ellipse cx="22.1144" cy="47.0176" rx="0.3646" ry="0.3655" fill="none" stroke="#000000" stroke-width="0.1198" stroke-linecap="round" stroke-linejoin="round"/>
        <ellipse cx="25.3538" cy="47.0176" rx="0.4768" ry="0.4779" fill="#000000" stroke="#000000" stroke-width="0.1198" stroke-linecap="round" stroke-linejoin="round"/>
        <ellipse cx="25.3538" cy="47.0176" rx="0.4768" ry="0.4779" fill="none" stroke="#000000" stroke-width="0.1198" stroke-linecap="round" stroke-linejoin="round"/>
        <ellipse cx="25.3538" cy="47.0176" rx="0.3646" ry="0.3655" fill="#00FF00" stroke="#000000" stroke-width="0.1198" stroke-linecap="round" stroke-linejoin="round"/>
        <ellipse cx="25.3538" cy="47.0176" rx="0.3646" ry="0.3655" fill="none" stroke="#000000" stroke-width="0.1198" stroke-linecap="round" stroke-linejoin="round"/>
        <ellipse cx="31.8605" cy="47.0176" rx="0.4768" ry="0.4779" fill="#000000" stroke="#000000" stroke-width="0.1198" stroke-linecap="round" stroke-linejoin="round"/>
        <ellipse cx="31.8605" cy="47.0176" rx="0.4768" ry="0.4779" fill="none" stroke="#000000" stroke-width="0.1198" stroke-linecap="round" stroke-linejoin="round"/>
        <ellipse cx="31.8605" cy="47.0176" rx="0.3646" ry="0.3655" fill="#00FF00" stroke="#000000" stroke-width="0.1198" stroke-linecap="round" stroke-linejoin="round"/>
        <ellipse cx="31.8605" cy="47.0176" rx="0.3646" ry="0.3655" fill="none" stroke="#000000" stroke-width="0.1198" stroke-linecap="round" stroke-linejoin="round"/>
        <ellipse cx="28.5721" cy="47.0176" rx="0.4698" ry="0.4779" fill="#000000" stroke="#000000" stroke-width="0.1198" stroke-linecap="round" stroke-linejoin="round"/>
        <ellipse cx="28.5721" cy="47.0176" rx="0.4698" ry="0.4779" fill="none" stroke="#000000" stroke-width="0.1198" stroke-linecap="round" stroke-linejoin="round"/>
        <ellipse cx="28.5721" cy="47.0176" rx="0.3576" ry="0.3655" fill="#00FF00" stroke="#000000" stroke-width="0.1198" stroke-linecap="round" stroke-linejoin="round"/>
        <ellipse cx="28.5721" cy="47.0176" rx="0.3576" ry="0.3655" fill="none" stroke="#000000" stroke-width="0.1198" stroke-linecap="round" stroke-linejoin="round"/>
        <path d="M 18.9312,45.4152 L 18.9452,45.4152 L 18.9452,45.4293 L 18.9592,45.4293 L 18.9732,45.4433 L 18.9873,45.4433 L 19.0293,45.4855 L 19.0293,45.4996 L 19.0434,45.4996 L 19.0434,45.5136 L 19.0574,45.5277 L 19.0574,45.5417 L 19.0714,45.5558 L 19.0714,45.5979 L 19.0854,45.6120 L 19.0854,45.7385 L 19.0714,45.7526 L 19.0714,45.7947 L 19.0574,45.8088 L 19.0574,45.8228 L 19.0434,45.8369 L 19.0434,45.8510 L 19.0293,45.8650 L 19.0293,45.8791 L 19.0153,45.8791 L 19.0013,45.8931 L 19.0013,45.9072 L 18.9873,45.9072 L 18.9452,45.9494 L 18.9172,45.9494 L 18.9031,45.9634 L 18.8751,45.9634 L 18.8611,45.9775 L 18.7208,45.9775 L 18.7068,45.9634 L 18.6788,45.9634 L 18.6647,45.9494 L 18.6367,45.9494 L 18.5946,45.9072 L 18.5806,45.9072 L 18.5806,45.8931 L 18.5666,45.8791 L 18.5526,45.8791 L 18.5526,45.8650 L 18.5385,45.8510 L 18.5385,45.8369 L 18.5245,45.8228 L 18.5245,45.8088 L 18.5105,45.7947 L 18.5105,45.7526 L 18.4965,45.7385 L 18.4965,45.6120 L 18.5105,45.5979 L 18.5105,45.5558 L 18.5245,45.5558 L 18.5245,45.5277 L 18.5385,45.5136 L 18.5385,45.4996 L 18.5526,45.4996 L 18.5526,45.4855 L 18.5666,45.4714 L 18.5666,45.4574 L 18.5806,45.4574 L 18.6086,45.4293 L 18.6086,45.4433 L 18.6227,45.4433 L 18.6227,45.4574 L 18.6367,45.4574 L 18.6367,45.4714 L 18.6507,45.4714 L 18.6507,45.4855 L 18.6367,45.4855 L 18.6367,45.4996 L 18.6227,45.4996 L 18.5806,45.5417 L 18.5806,45.5558 L 18.5666,45.5698 L 18.5666,45.5839 L 18.5526,45.5839 L 18.5526,45.6261 L 18.5385,45.6261 L 18.5385,45.7385 L 18.5526,45.7385 L 18.5526,45.7807 L 18.5806,45.8088 L 18.5806,45.8228 L 18.5946,45.8228 L 18.5946,45.8369 L 18.6227,45.8650 L 18.6367,45.8650 L 18.6367,45.8791 L 18.6507,45.8791 L 18.6647,45.8931 L 18.6788,45.8931 L 18.6928,45.9072 L 18.7208,45.9072 L 18.7208,45.9212 L 18.8611,45.9212 L 18.8611,45.9072 L 18.8891,45.9072 L 18.9031,45.8931 L 18.9172,45.8931 L 18.9312,45.8791 L 18.9452,45.8791 L 18.9452,45.8650 L 18.9592,45.8650 L 18.9873,45.8369 L 18.9873,45.8228 L 19.0013,45.8228 L 19.0013,45.8088 L 19.0293,45.7807 L 19.0293,45.7385 L 19.0434,45.7385 L 19.0434,45.6261 L 19.0293,45.6261 L 19.0293,45.5839 L 19.0153,45.5839 L 19.0153,45.5558 L 19.0013,45.5558 L 19.0013,45.5417 L 18.9873,45.5277 L 18.9873,45.5136 L 18.9732,45.5136 L 18.9732,45.4996 L 18.9592,45.4996 L 18.9452,45.4855 L 18.9312,45.4855 L 18.9312,45.4714 L 18.9172,45.4714 L 18.9172,45.4433 L 18.9312,45.4433 L 18.9312,45.4293 L 18.9312,45.4152 Z" stroke="#000000" stroke-width="0.1198" stroke-linecap="round" stroke-linejoin="round" fill="#000000"/>
        <path d="M 18.8190,45.2747 L 18.7489,45.2747 L 18.7489,45.6963 L 18.8190,45.6963 L 18.8190,45.2747 Z" stroke="#000000" stroke-width="0.1198" stroke-linecap="round" stroke-linejoin="round" fill="#000000"/>
        <path d="M 22.5912,45.6120 L 21.6657,45.6120 " stroke="#000000" stroke-width="0.1198" stroke-linecap="round" stroke-linejoin="round" fill="none"/>
        <path d="M 22.1284,45.4855 L 22.1284,45.6261 " stroke="#000000" stroke-width="0.1198" stroke-linecap="round" stroke-linejoin="round" fill="none"/>
        <path d="M 22.2406,45.2606 L 22.0163,45.2606 L 22.0163,45.4855 L 22.2406,45.4855 L 22.2406,45.2606 Z" stroke="#000000" stroke-width="0.1198" stroke-linecap="round" stroke-linejoin="round" fill="#0A0A0A"/>
        <path d="M 22.3949,45.6261 L 22.3949,45.7666 " stroke="#000000" stroke-width="0.1198" stroke-linecap="round" stroke-linejoin="round" fill="none"/>
        <path d="M 22.3949,45.6261 L 22.3949,45.7666 " stroke="#000000" stroke-width="0.1198" stroke-linecap="round" stroke-linejoin="round" fill="none"/>
        <path d="M 22.2967,45.7666 L 22.5211,45.7666 L 22.5211,45.9915 L 22.2967,45.9915 L 22.2967,45.7666 Z" stroke="#000000" stroke-width="0.1198" stroke-linecap="round" stroke-linejoin="round" fill="#0A0A0A"/>
        <path d="M 21.8340,45.6261 L 21.8340,45.7666 " stroke="#000000" stroke-width="0.1198" stroke-linecap="round" stroke-linejoin="round" fill="none"/>
        <path d="M 21.9602,45.7666 L 21.7358,45.7666 L 21.7358,45.9915 L 21.9602,45.9915 L 21.9602,45.7666 Z" stroke="#000000" stroke-width="0.1198" stroke-linecap="round" stroke-linejoin="round" fill="#0A0A0A"/>
        <path d="M 31.7623,45.8228 L 32.1409,45.4293 L 31.9586,45.2465 L 31.9586,46.0056 L 32.1409,45.8228 L 31.7483,45.4293 " stroke="#000000" stroke-width="0.1198" stroke-linecap="round" stroke-linejoin="round" fill="none"/>
        <path d="M 14.7663,23.1082 L 14.7523,23.1082 L 14.7383,23.0942 L 14.7242,23.0942 L 14.7242,23.0801 L 14.7102,23.0801 L 14.7102,23.0660 L 14.6962,23.0520 L 14.6962,23.0379 L 14.6822,23.0239 L 14.6822,22.9958 L 14.6682,22.9958 L 14.6682,20.8873 L 14.6822,20.8873 L 14.6822,20.8592 L 14.6962,20.8452 L 14.6962,20.8311 L 14.7102,20.8171 L 14.7102,20.8030 L 14.7242,20.8030 L 14.7242,20.7890 L 14.7383,20.7890 L 14.7523,20.7749 L 17.2484,20.7749 L 17.2624,20.7890 L 17.2765,20.7890 L 17.2765,20.8030 L 17.2905,20.8030 L 17.2905,20.8171 L 17.3045,20.8311 L 17.3045,20.8452 L 17.3185,20.8592 L 17.3185,20.8873 L 17.3325,20.8873 L 17.3325,21.2950 L 17.3185,21.2950 L 17.3185,21.2669 L 17.3045,21.2669 L 17.3045,21.2528 L 17.2905,21.2528 L 17.2905,21.2387 L 17.2765,21.2387 L 17.2624,21.2247 L 15.2431,21.2247 L 15.2431,21.2387 L 15.2151,21.2387 L 15.2151,21.2528 L 15.2010,21.2669 L 15.2010,21.2809 L 15.1870,21.2950 L 15.1870,23.0098 L 15.2010,23.0098 L 15.2010,23.0379 L 15.2151,23.0379 L 15.2151,23.0660 L 15.2291,23.0660 L 15.2291,23.0801 L 15.2431,23.0801 L 15.2431,23.0942 L 15.2571,23.0942 L 15.2571,23.1082 L 14.7803,23.1082 L 14.7663,23.1082 Z" stroke="#000000" stroke-width="0.1198" stroke-linecap="round" stroke-linejoin="round" fill="#000000"/>
        <path d="M 17.1643,21.7729 L 15.3553,21.7729 L 15.3553,21.7588 L 15.3413,21.7588 L 15.3413,21.7448 L 15.3272,21.7448 L 15.3132,21.7307 L 15.3132,21.7167 L 15.2992,21.7167 L 15.2992,21.6885 L 15.2852,21.6885 L 15.2852,22.1524 L 15.2992,22.1665 L 15.2992,22.1805 L 15.3132,22.1805 L 15.3132,22.1946 L 15.3413,22.1946 L 15.3413,22.2086 L 17.2063,22.2086 L 17.2204,22.1946 L 17.2484,22.1805 L 17.3045,22.1243 L 17.3045,22.1102 L 17.3185,22.0821 L 17.3325,22.0681 L 17.3325,22.0399 L 17.3466,22.0259 L 17.3466,21.9416 L 17.3325,21.9275 L 17.3325,21.9134 L 17.3185,21.8853 L 17.3185,21.8713 L 17.3045,21.8713 L 17.3045,21.8572 L 17.2484,21.8010 L 17.2344,21.8010 L 17.2204,21.7869 L 17.2063,21.7869 L 17.1783,21.7729 L 17.1643,21.7729 Z" stroke="#000000" stroke-width="0.1198" stroke-linecap="round" stroke-linejoin="round" fill="#000000"/>
        <path d="M 21.3431,22.2227 L 21.3291,22.2227 L 21.3151,22.2086 L 21.3011,22.2086 L 21.3011,22.1946 L 21.2871,22.1946 L 21.2871,22.1665 L 21.2730,22.1665 L 21.2730,22.1383 L 21.2590,22.1383 L 21.2590,21.6745 L 21.2730,21.6885 L 21.2730,21.7026 L 21.2871,21.7026 L 21.2871,21.7167 L 21.3011,21.7167 L 21.3011,21.7307 L 21.3151,21.7307 L 21.3291,21.7448 L 22.7875,21.7448 L 22.7875,21.2247 L 21.2310,21.2247 L 21.2310,21.2387 L 21.2029,21.2387 L 21.2029,21.2528 L 21.1889,21.2528 L 21.1889,21.2669 L 21.1749,21.2669 L 21.1749,21.2950 L 21.1608,21.2950 L 21.1608,23.0098 L 21.1749,23.0098 L 21.1749,23.0379 L 21.1889,23.0520 L 21.1889,23.0660 L 21.2029,23.0660 L 21.2029,23.0801 L 21.2310,23.1082 L 20.7402,23.1082 L 20.7402,23.0942 L 20.7121,23.0942 L 20.7121,23.0801 L 20.6981,23.0801 L 20.6981,23.0660 L 20.6841,23.0660 L 20.6841,23.0520 L 20.6700,23.0520 L 20.6700,23.0379 L 20.6560,23.0379 L 20.6560,23.0239 L 20.6420,23.0098 L 20.6420,22.9958 L 20.6280,22.9958 L 20.6280,20.8873 L 20.6420,20.8873 L 20.6420,20.8733 L 20.6560,20.8592 L 20.6560,20.8452 L 20.6700,20.8452 L 20.6700,20.8311 L 20.6841,20.8311 L 20.6841,20.8171 L 20.6981,20.8171 L 20.6981,20.8030 L 20.7121,20.8030 L 20.7121,20.7890 L 20.7402,20.7890 L 20.7402,20.7749 L 23.2222,20.7749 L 23.2222,20.7890 L 23.2503,20.7890 L 23.2503,20.8030 L 23.2643,20.8030 L 23.2643,20.8171 L 23.2783,20.8171 L 23.2783,20.8311 L 23.2924,20.8311 L 23.2924,20.8592 L 23.3064,20.8592 L 23.3064,20.8873 L 23.3204,20.8873 L 23.3204,22.0540 L 23.3064,22.0681 L 23.3064,22.0962 L 23.2924,22.0962 L 23.2924,22.1243 L 23.2783,22.1243 L 23.2783,22.1383 L 23.2643,22.1383 L 23.2643,22.1524 L 23.2503,22.1524 L 23.2503,22.1665 L 23.2222,22.1946 L 23.2082,22.1946 L 23.2082,22.2086 L 23.1942,22.2086 L 23.1942,22.2227 L 23.1942,22.2367 L 23.2082,22.2367 L 23.2082,22.2508 L 23.2222,22.2508 L 23.2503,22.2789 L 23.2503,22.2930 L 23.2643,22.2930 L 23.2643,22.3070 L 23.2783,22.3070 L 23.2783,22.3211 L 23.2924,22.3351 L 23.2924,22.3492 L 23.3064,22.3632 L 23.3064,22.3913 L 23.3204,22.3913 L 23.3204,23.0239 L 23.3344,23.0239 L 23.3344,23.0520 L 23.3484,23.0520 L 23.3484,23.0801 L 23.3625,23.0801 L 23.3625,23.0942 L 23.3765,23.0942 L 23.3765,23.1082 L 22.9137,23.1082 L 22.8997,23.0942 L 22.8857,23.0942 L 22.8717,23.0801 L 22.8576,23.0801 L 22.8576,23.0660 L 22.8436,23.0660 L 22.8436,23.0520 L 22.8296,23.0520 L 22.8296,23.0379 L 22.8015,23.0098 L 22.8015,22.9958 L 22.7875,22.9958 L 22.7875,22.2227 L 21.3572,22.2227 L 21.3431,22.2227 Z" stroke="#000000" stroke-width="0.1198" stroke-linecap="round" stroke-linejoin="round" fill="#000000"/>
        <path d="M 24.2459,21.2247 L 23.6850,21.2247 L 23.6850,21.2106 L 23.6710,21.2106 L 23.6429,21.1825 L 23.6429,21.1685 L 23.6289,21.1685 L 23.6289,21.1404 L 23.6149,21.1263 L 23.6149,20.8873 L 23.6289,20.8873 L 23.6289,20.8592 L 23.6429,20.8452 L 23.6429,20.8311 L 23.6570,20.8171 L 23.6570,20.8030 L 23.6710,20.8030 L 23.6710,20.7890 L 23.6850,20.7890 L 23.6990,20.7749 L 26.1951,20.7749 L 26.2092,20.7890 L 26.2232,20.7890 L 26.2232,20.8030 L 26.2372,20.8030 L 26.2372,20.8171 L 26.2512,20.8311 L 26.2512,20.8452 L 26.2653,20.8592 L 26.2653,20.8873 L 26.2793,20.8873 L 26.2793,21.2950 L 26.2653,21.2950 L 26.2653,21.2669 L 26.2512,21.2669 L 26.2512,21.2528 L 26.2372,21.2528 L 26.2372,21.2387 L 26.2232,21.2387 L 26.2092,21.2247 L 24.8489,21.2247 L 24.8489,21.2387 L 24.8209,21.2387 L 24.8209,21.2528 L 24.8069,21.2528 L 24.8069,21.2809 L 24.7928,21.2950 L 24.7928,23.0239 L 24.8069,23.0379 L 24.8069,23.0660 L 24.8209,23.0801 L 24.8209,23.0942 L 24.8349,23.0942 L 24.8349,23.1082 L 24.3581,23.1082 L 24.3581,23.0942 L 24.3301,23.0942 L 24.3301,23.0801 L 24.3160,23.0801 L 24.2880,23.0520 L 24.2880,23.0379 L 24.2740,23.0379 L 24.2740,23.0239 L 24.2600,23.0239 L 24.2600,22.9958 L 24.2459,22.9958 L 24.2459,21.2809 L 24.2459,21.2247 Z" stroke="#000000" stroke-width="0.1198" stroke-linecap="round" stroke-linejoin="round" fill="#000000"/>
        <path d="M 27.1347,22.9817 L 27.1347,23.0379 L 27.1487,23.0520 L 27.1487,23.0801 L 27.1627,23.0801 L 27.1627,23.0942 L 27.1768,23.0942 L 27.1768,23.1082 L 26.7000,23.1082 L 26.7000,23.0942 L 26.6719,23.0942 L 26.6719,23.0801 L 26.6579,23.0801 L 26.6299,23.0520 L 26.6299,23.0379 L 26.6158,23.0379 L 26.6158,23.0239 L 26.6018,23.0239 L 26.6018,22.9958 L 26.5878,22.9958 L 26.5878,20.8592 L 26.5738,20.8452 L 26.5738,20.8171 L 26.5597,20.8171 L 26.5597,20.8030 L 26.5457,20.7890 L 26.5317,20.7890 L 26.5317,20.7749 L 27.0225,20.7749 L 27.0225,20.7890 L 27.0505,20.7890 L 27.0505,20.8030 L 27.0646,20.8030 L 27.0646,20.8171 L 27.0786,20.8171 L 27.0926,20.8311 L 27.0926,20.8452 L 27.1066,20.8452 L 27.1066,20.8592 L 27.1207,20.8733 L 27.1207,20.8873 L 27.1347,20.8873 L 27.1347,22.9536 L 27.1347,22.9817 Z" stroke="#000000" stroke-width="0.1198" stroke-linecap="round" stroke-linejoin="round" fill="#000000"/>
        <path d="M 29.7009,21.2247 L 28.1443,21.2247 L 28.1443,21.2387 L 28.1163,21.2387 L 28.1163,21.2528 L 28.1023,21.2528 L 28.1023,21.2669 L 28.0883,21.2669 L 28.0883,21.2950 L 28.0742,21.2950 L 28.0742,23.0098 L 28.0883,23.0098 L 28.0883,23.0379 L 28.1023,23.0520 L 28.1023,23.0660 L 28.1163,23.0660 L 28.1163,23.0801 L 28.1443,23.1082 L 27.6535,23.1082 L 27.6535,23.0942 L 27.6255,23.0942 L 27.6255,23.0801 L 27.6115,23.0801 L 27.6115,23.0660 L 27.5974,23.0660 L 27.5974,23.0520 L 27.5834,23.0520 L 27.5834,23.0379 L 27.5694,23.0379 L 27.5694,23.0239 L 27.5554,23.0098 L 27.5554,22.9958 L 27.5414,22.9958 L 27.5414,20.8873 L 27.5554,20.8873 L 27.5554,20.8733 L 27.5694,20.8592 L 27.5694,20.8452 L 27.5834,20.8452 L 27.5834,20.8311 L 27.5974,20.8311 L 27.5974,20.8171 L 27.6115,20.8171 L 27.6115,20.8030 L 27.6255,20.8030 L 27.6255,20.7890 L 27.6535,20.7890 L 27.6535,20.7749 L 30.1356,20.7749 L 30.1356,20.7890 L 30.1637,20.7890 L 30.1637,20.8030 L 30.1777,20.8030 L 30.1777,20.8171 L 30.1917,20.8171 L 30.1917,20.8311 L 30.2057,20.8311 L 30.2057,20.8592 L 30.2198,20.8592 L 30.2198,20.8873 L 30.2338,20.8873 L 30.2338,23.0239 L 30.2478,23.0239 L 30.2478,23.0520 L 30.2618,23.0520 L 30.2618,23.0801 L 30.2759,23.0801 L 30.2759,23.0942 L 30.2899,23.0942 L 30.2899,23.1082 L 29.8271,23.1082 L 29.8131,23.0942 L 29.7991,23.0942 L 29.7850,23.0801 L 29.7710,23.0801 L 29.7710,23.0660 L 29.7570,23.0660 L 29.7570,23.0520 L 29.7430,23.0520 L 29.7430,23.0379 L 29.7149,23.0098 L 29.7149,22.9958 L 29.7009,22.9958 L 29.7009,21.2809 L 29.7009,21.2247 Z" stroke="#000000" stroke-width="0.1198" stroke-linecap="round" stroke-linejoin="round" fill="#000000"/>
        <path d="M 32.9262,21.7729 L 31.2435,21.7729 L 31.2435,21.7588 L 31.2294,21.7588 L 31.2294,21.7448 L 31.2154,21.7448 L 31.2154,21.7307 L 31.2014,21.7307 L 31.2014,21.7167 L 31.1874,21.7167 L 31.1874,21.6885 L 31.1733,21.6745 L 31.1733,22.1524 L 31.1874,22.1524 L 31.1874,22.1805 L 31.2014,22.1805 L 31.2014,22.1946 L 31.2294,22.1946 L 31.2294,22.2086 L 32.9262,22.2086 L 32.9543,22.1946 L 32.9823,22.1665 L 33.0104,22.1524 L 33.0524,22.1102 L 33.0524,22.0821 L 33.0805,22.0540 L 33.0805,22.0259 L 33.0945,21.9978 L 33.0945,21.9556 L 33.0805,21.9416 L 33.0805,21.9134 L 33.0665,21.8853 L 33.0665,21.8713 L 33.0524,21.8713 L 33.0524,21.8572 L 32.9963,21.8010 L 32.9823,21.8010 L 32.9683,21.7869 L 32.9543,21.7869 L 32.9402,21.7729 L 32.9262,21.7729 Z" stroke="#000000" stroke-width="0.1198" stroke-linecap="round" stroke-linejoin="round" fill="#000000"/>
        <path d="M 34.1743,21.2247 L 33.6134,21.2247 L 33.6134,21.2106 L 33.5993,21.2106 L 33.5713,21.1825 L 33.5713,21.1685 L 33.5573,21.1685 L 33.5573,21.1404 L 33.5432,21.1263 L 33.5432,20.8873 L 33.5573,20.8873 L 33.5573,20.8592 L 33.5713,20.8452 L 33.5713,20.8311 L 33.5853,20.8171 L 33.5853,20.8030 L 33.5993,20.8030 L 33.5993,20.7890 L 33.6134,20.7890 L 33.6274,20.7749 L 36.1235,20.7749 L 36.1375,20.7890 L 36.1515,20.7890 L 36.1515,20.8030 L 36.1656,20.8030 L 36.1656,20.8171 L 36.1796,20.8311 L 36.1796,20.8452 L 36.1936,20.8592 L 36.1936,20.8873 L 36.2076,20.8873 L 36.2076,21.2950 L 36.1936,21.2950 L 36.1936,21.2669 L 36.1796,21.2669 L 36.1796,21.2528 L 36.1656,21.2528 L 36.1656,21.2387 L 36.1515,21.2387 L 36.1375,21.2247 L 34.7773,21.2247 L 34.7773,21.2387 L 34.7492,21.2387 L 34.7492,21.2528 L 34.7352,21.2528 L 34.7352,21.2809 L 34.7212,21.2950 L 34.7212,23.0239 L 34.7352,23.0379 L 34.7352,23.0660 L 34.7492,23.0801 L 34.7492,23.0942 L 34.7632,23.0942 L 34.7632,23.1082 L 34.2865,23.1082 L 34.2865,23.0942 L 34.2584,23.0942 L 34.2584,23.0801 L 34.2444,23.0801 L 34.2163,23.0520 L 34.2163,23.0379 L 34.2023,23.0379 L 34.2023,23.0239 L 34.1883,23.0239 L 34.1883,22.9958 L 34.1743,22.9958 L 34.1743,21.2809 L 34.1743,21.2247 Z" stroke="#000000" stroke-width="0.1198" stroke-linecap="round" stroke-linejoin="round" fill="#000000"/>
        <path d="M 33.0945,22.6584 L 33.1225,22.6584 L 33.1366,22.6444 L 33.1506,22.6444 L 33.1506,22.6303 L 33.1646,22.6303 L 33.1646,22.6162 L 33.1786,22.6162 L 33.1786,22.5881 L 33.1927,22.5881 L 33.1927,22.9958 L 33.1786,22.9958 L 33.1786,23.0239 L 33.1646,23.0379 L 33.1646,23.0520 L 33.1506,23.0660 L 33.1506,23.0801 L 33.1366,23.0801 L 33.1366,23.0942 L 33.1225,23.0942 L 33.1085,23.1082 L 30.6124,23.1082 L 30.5984,23.0942 L 30.5844,23.0942 L 30.5844,23.0801 L 30.5703,23.0801 L 30.5703,23.0660 L 30.5563,23.0520 L 30.5563,23.0379 L 30.5423,23.0239 L 30.5423,22.9958 L 30.5283,22.9958 L 30.5283,20.8873 L 30.5423,20.8873 L 30.5423,20.8592 L 30.5563,20.8452 L 30.5563,20.8311 L 30.5703,20.8171 L 30.5703,20.8030 L 30.5844,20.8030 L 30.5844,20.7890 L 30.5984,20.7890 L 30.6124,20.7749 L 33.1085,20.7749 L 33.1225,20.7890 L 33.1366,20.7890 L 33.1366,20.8030 L 33.1506,20.8030 L 33.1506,20.8171 L 33.1646,20.8311 L 33.1646,20.8452 L 33.1786,20.8592 L 33.1786,20.8873 L 33.1927,20.8873 L 33.1927,21.2950 L 33.1786,21.2950 L 33.1786,21.2669 L 33.1646,21.2669 L 33.1646,21.2528 L 33.1506,21.2528 L 33.1506,21.2387 L 33.1366,21.2387 L 33.1225,21.2247 L 31.1032,21.2247 L 31.1032,21.2387 L 31.0752,21.2387 L 31.0752,21.2528 L 31.0612,21.2669 L 31.0612,21.2809 L 31.0471,21.2950 L 31.0471,22.6584 L 33.0665,22.6584 L 33.0945,22.6584 Z" stroke="#000000" stroke-width="0.1198" stroke-linecap="round" stroke-linejoin="round" fill="#000000"/>
        <path d="M 18.5806,22.4195 L 18.5806,23.1082 L 19.4500,23.1082 L 19.4500,22.4195 L 18.5806,22.4195 Z" stroke="#000000" stroke-width="0.1198" stroke-linecap="round" stroke-linejoin="round" fill="#000000"/>
        <path d="M 17.7112,21.6042 L 18.4263,21.6042 L 18.4263,22.2789 L 17.7112,22.2789 L 17.7112,21.6042 Z" stroke="#000000" stroke-width="0.1198" stroke-linecap="round" stroke-linejoin="round" fill="#000000"/>
        <path d="M 19.6323,22.4335 L 19.6323,23.1223 L 19.8287,23.1223 L 19.8567,23.1082 L 19.9268,23.1082 L 19.9549,23.0942 L 19.9829,23.0942 L 20.1231,23.0239 L 20.1372,22.9958 L 20.1652,22.9817 L 20.2073,22.9395 L 20.2213,22.9114 L 20.2493,22.8833 L 20.2634,22.8411 L 20.2774,22.8130 L 20.3335,22.6444 L 20.3335,22.6022 L 20.3475,22.5460 L 20.3475,22.4335 L 19.6464,22.4335 L 19.6323,22.4335 Z" stroke="#000000" stroke-width="0.1198" stroke-linecap="round" stroke-linejoin="round" fill="#000000"/>
        <path d="M 19.6323,21.6042 L 20.3475,21.6042 L 20.3475,22.2789 L 19.6323,22.2789 L 19.6323,21.6042 Z" stroke="#000000" stroke-width="0.1198" stroke-linecap="round" stroke-linejoin="round" fill="#000000"/>
        <path d="M 18.4263,22.4335 L 18.4263,23.1223 L 18.2300,23.1223 L 18.2020,23.1082 L 18.1319,23.1082 L 18.1038,23.0942 L 18.0758,23.0942 L 17.9355,23.0239 L 17.8234,22.9114 L 17.8093,22.8833 L 17.7953,22.8411 L 17.7673,22.8130 L 17.7532,22.7709 L 17.7532,22.7287 L 17.7252,22.6444 L 17.7252,22.6022 L 17.7112,22.5460 L 17.7112,22.4335 L 18.4123,22.4335 L 18.4263,22.4335 Z" stroke="#000000" stroke-width="0.1198" stroke-linecap="round" stroke-linejoin="round" fill="#000000"/>
        <path d="M 18.5806,20.7608 L 18.5806,21.4496 L 19.4500,21.4496 L 19.4500,20.7608 L 18.5806,20.7608 Z" stroke="#000000" stroke-width="0.1198" stroke-linecap="round" stroke-linejoin="round" fill="#000000"/>
        <path d="M 19.6323,21.4496 L 19.6323,20.7608 L 19.8287,20.7608 L 19.8567,20.7749 L 19.9268,20.7749 L 19.9549,20.7890 L 19.9829,20.7890 L 20.1231,20.8592 L 20.1372,20.8873 L 20.1652,20.9014 L 20.2073,20.9436 L 20.2213,20.9717 L 20.2493,20.9998 L 20.2634,21.0420 L 20.2774,21.0701 L 20.3335,21.2387 L 20.3335,21.2809 L 20.3475,21.3371 L 20.3475,21.4496 L 19.6464,21.4496 L 19.6323,21.4496 Z" stroke="#000000" stroke-width="0.1198" stroke-linecap="round" stroke-linejoin="round" fill="#000000"/>
        <path d="M 18.4263,21.4496 L 18.4263,20.7608 L 18.2300,20.7608 L 18.2020,20.7749 L 18.1319,20.7749 L 18.1038,20.7890 L 18.0758,20.7890 L 17.9355,20.8592 L 17.8234,20.9717 L 17.8093,20.9998 L 17.7953,21.0420 L 17.7673,21.0701 L 17.7532,21.1122 L 17.7532,21.1544 L 17.7252,21.2387 L 17.7252,21.2809 L 17.7112,21.3371 L 17.7112,21.4496 L 18.4123,21.4496 L 18.4263,21.4496 Z" stroke="#000000" stroke-width="0.1198" stroke-linecap="round" stroke-linejoin="round" fill="#000000"/>
        <text font-family="Arial" fill="#000000" style="white-space:pre;" text-anchor="start" x="20.7121" y="25.9897" font-size="1.5706"><![CDATA[F]]></text>
        <text font-family="Arial" fill="#000000" style="white-space:pre;" text-anchor="start" x="21.6797" y="25.9897" font-size="1.5706"><![CDATA[o]]></text>
        <text font-family="Arial" fill="#000000" style="white-space:pre;" text-anchor="start" x="22.5491" y="25.9897" font-size="1.5706"><![CDATA[r]]></text>
        <text font-family="Arial" fill="#000000" style="white-space:pre;" text-anchor="start" x="23.0680" y="25.9897" font-size="1.5706"><![CDATA[t]]></text>
        <text font-family="Arial" fill="#000000" style="white-space:pre;" text-anchor="start" x="23.5027" y="25.9897" font-size="1.5706"><![CDATA[i]]></text>
        <text font-family="Arial" fill="#000000" style="white-space:pre;" text-anchor="start" x="23.8533" y="25.9897" font-size="1.5706"><![CDATA[A]]></text>
        <text font-family="Arial" fill="#000000" style="white-space:pre;" text-anchor="start" x="24.9050" y="25.9897" font-size="1.5706"><![CDATA[P]]></text>
        <text font-family="Arial" fill="#000000" style="white-space:pre;" text-anchor="start" x="25.9567" y="25.9897" font-size="1.5706"><![CDATA[ ]]></text>
        <text font-family="Arial" fill="#000000" style="white-space:pre;" text-anchor="start" x="26.3915" y="25.9897" font-size="1.5706"><![CDATA[3]]></text>
        <text font-family="Arial" fill="#000000" style="white-space:pre;" text-anchor="start" x="27.2609" y="25.9897" font-size="1.5706"><![CDATA[2]]></text>
        <text font-family="Arial" fill="#000000" style="white-space:pre;" text-anchor="start" x="28.1303" y="25.9897" font-size="1.5706"><![CDATA[1]]></text>
        <text font-family="Arial" fill="#000000" style="white-space:pre;" text-anchor="start" x="28.9998" y="25.9897" font-size="1.5706"><![CDATA[E]]></text>
        <text font-family="Symbol" fill="#000000" style="white-space:pre;" text-anchor="start" x="35.4083" y="23.0942" font-size="0.8133"><![CDATA[]]></text>
        <path d="M 25.4379,46.0337 L 25.4239,46.0196 L 25.4098,46.0196 L 25.4098,46.0056 L 25.3257,46.0056 L 25.3257,46.0196 L 25.3117,46.0196 L 25.2836,46.0477 L 25.2836,46.0618 L 25.2696,46.0618 L 25.2696,46.1461 L 25.2836,46.1461 L 25.2836,46.1602 L 25.3117,46.1883 L 25.3257,46.1883 L 25.3257,46.2024 L 25.4098,46.2024 L 25.4098,46.1883 L 25.4239,46.1883 L 25.4519,46.1602 L 25.4519,46.1461 L 25.4659,46.1461 L 25.4659,46.0618 L 25.4519,46.0618 L 25.4519,46.0477 L 25.4379,46.0337 Z" stroke="#000000" stroke-width="0.1198" stroke-linecap="round" stroke-linejoin="round" fill="#000000"/>
        <path d="M 25.0593,45.8088 L 25.0733,45.7947 L 25.1013,45.7807 L 25.1154,45.7666 L 25.1434,45.7666 L 25.1574,45.7526 L 25.1855,45.7385 L 25.1995,45.7385 L 25.2135,45.7245 L 25.2556,45.7245 L 25.2836,45.7104 L 25.4800,45.7104 L 25.4940,45.7245 L 25.5361,45.7245 L 25.5501,45.7385 L 25.5641,45.7385 L 25.5921,45.7526 L 25.6062,45.7666 L 25.6202,45.7666 L 25.6482,45.7807 L 25.6763,45.8088 L 25.6482,45.8369 L 25.6342,45.8228 L 25.6062,45.8088 L 25.5921,45.8088 L 25.5781,45.7947 L 25.5501,45.7947 L 25.5220,45.7666 L 25.4800,45.7666 L 25.4659,45.7526 L 25.2696,45.7526 L 25.2556,45.7666 L 25.2135,45.7666 L 25.1995,45.7807 L 25.1855,45.7807 L 25.1715,45.7947 L 25.1574,45.7947 L 25.1294,45.8088 L 25.1154,45.8228 L 25.1013,45.8228 L 25.0873,45.8369 L 25.0733,45.8228 L 25.0593,45.8088 Z" stroke="#000000" stroke-width="0.1198" stroke-linecap="round" stroke-linejoin="round" fill="#000000"/>
        <path d="M 24.8209,45.4855 L 24.8489,45.4574 L 24.8910,45.4293 L 24.9190,45.4012 L 24.9611,45.3871 L 24.9892,45.3590 L 25.0312,45.3449 L 25.0593,45.3309 L 25.1013,45.3168 L 25.1294,45.3028 L 25.1715,45.2887 L 25.1995,45.2747 L 25.2416,45.2747 L 25.2696,45.2606 L 25.4519,45.2606 L 25.4800,45.2747 L 25.5220,45.2747 L 25.5501,45.2887 L 25.5921,45.2887 L 25.6202,45.3028 L 25.6623,45.3168 L 25.7184,45.3449 L 25.7604,45.3731 L 25.7885,45.3871 L 25.8165,45.4152 L 25.8586,45.4293 L 25.9147,45.4855 L 25.9147,45.4714 L 25.9287,45.4714 L 25.9287,45.4574 L 25.9427,45.4574 L 25.9427,45.4433 L 25.9147,45.4152 L 25.8726,45.3871 L 25.8446,45.3590 L 25.8025,45.3309 L 25.7744,45.3168 L 25.7324,45.2887 L 25.7043,45.2747 L 25.6623,45.2606 L 25.6342,45.2465 L 25.5501,45.2184 L 25.5220,45.2184 L 25.4800,45.2044 L 25.2556,45.2044 L 25.2135,45.2184 L 25.1855,45.2184 L 25.1013,45.2465 L 25.0733,45.2606 L 25.0312,45.2747 L 25.0032,45.2887 L 24.9611,45.3168 L 24.9331,45.3309 L 24.8910,45.3590 L 24.8629,45.3871 L 24.8209,45.4152 L 24.7928,45.4433 L 24.7928,45.4574 L 24.8069,45.4574 L 24.8069,45.4714 L 24.8209,45.4714 L 24.8209,45.4855 Z" stroke="#000000" stroke-width="0.1198" stroke-linecap="round" stroke-linejoin="round" fill="#000000"/>
        <path d="M 24.9331,45.6261 L 24.9611,45.6120 L 24.9892,45.5839 L 25.0733,45.5417 L 25.0873,45.5277 L 25.1715,45.4855 L 25.1995,45.4855 L 25.2275,45.4714 L 25.2556,45.4714 L 25.2836,45.4574 L 25.4519,45.4574 L 25.4800,45.4714 L 25.5080,45.4714 L 25.5361,45.4855 L 25.5641,45.4855 L 25.6482,45.5277 L 25.6623,45.5417 L 25.7464,45.5839 L 25.7744,45.6120 L 25.8025,45.6261 L 25.7744,45.6542 L 25.7464,45.6401 L 25.7043,45.5979 L 25.6202,45.5558 L 25.5921,45.5558 L 25.5781,45.5417 L 25.5501,45.5277 L 25.5220,45.5277 L 25.4940,45.5136 L 25.4239,45.5136 L 25.3958,45.4996 L 25.3678,45.5136 L 25.2696,45.5136 L 25.2416,45.5277 L 25.2135,45.5277 L 25.1855,45.5417 L 25.1574,45.5417 L 25.1434,45.5558 L 25.0312,45.6120 L 25.0172,45.6261 L 24.9611,45.6542 L 24.9471,45.6401 L 24.9331,45.6261 Z" stroke="#000000" stroke-width="0.1198" stroke-linecap="round" stroke-linejoin="round" fill="#000000"/>
        <path d="M 28.7053,46.0337 L 28.6912,46.0196 L 28.6772,46.0196 L 28.6772,46.0056 L 28.5931,46.0056 L 28.5931,46.0196 L 28.5791,46.0196 L 28.5510,46.0477 L 28.5510,46.0618 L 28.5370,46.0618 L 28.5370,46.1461 L 28.5510,46.1461 L 28.5510,46.1602 L 28.5791,46.1883 L 28.5931,46.1883 L 28.5931,46.2024 L 28.6772,46.2024 L 28.6772,46.1883 L 28.6912,46.1883 L 28.7193,46.1602 L 28.7193,46.1461 L 28.7333,46.1461 L 28.7333,46.0618 L 28.7193,46.0618 L 28.7193,46.0477 L 28.7053,46.0337 Z" stroke="#000000" stroke-width="0.1198" stroke-linecap="round" stroke-linejoin="round" fill="#000000"/>
        <path d="M 28.3266,45.8088 L 28.3407,45.7947 L 28.3687,45.7807 L 28.3827,45.7666 L 28.4108,45.7666 L 28.4248,45.7526 L 28.4529,45.7385 L 28.4669,45.7385 L 28.4809,45.7245 L 28.5230,45.7245 L 28.5510,45.7104 L 28.7473,45.7104 L 28.7614,45.7245 L 28.8034,45.7245 L 28.8175,45.7385 L 28.8315,45.7385 L 28.8595,45.7526 L 28.8735,45.7666 L 28.8876,45.7666 L 28.9156,45.7807 L 28.9437,45.8088 L 28.9156,45.8369 L 28.9016,45.8228 L 28.8735,45.8088 L 28.8595,45.8088 L 28.8455,45.7947 L 28.8175,45.7947 L 28.7894,45.7666 L 28.7473,45.7666 L 28.7333,45.7526 L 28.5370,45.7526 L 28.5230,45.7666 L 28.4809,45.7666 L 28.4669,45.7807 L 28.4529,45.7807 L 28.4388,45.7947 L 28.4248,45.7947 L 28.3968,45.8088 L 28.3827,45.8228 L 28.3687,45.8228 L 28.3547,45.8369 L 28.3407,45.8228 L 28.3266,45.8088 Z" stroke="#000000" stroke-width="0.1198" stroke-linecap="round" stroke-linejoin="round" fill="#000000"/>
        <path d="M 28.0883,45.4855 L 28.1163,45.4574 L 28.1584,45.4293 L 28.1864,45.4012 L 28.2285,45.3871 L 28.2565,45.3590 L 28.2986,45.3449 L 28.3266,45.3309 L 28.3687,45.3168 L 28.3968,45.3028 L 28.4388,45.2887 L 28.4669,45.2747 L 28.5089,45.2747 L 28.5370,45.2606 L 28.7193,45.2606 L 28.7473,45.2747 L 28.7894,45.2747 L 28.8175,45.2887 L 28.8595,45.2887 L 28.8876,45.3028 L 28.9296,45.3168 L 28.9857,45.3449 L 29.0278,45.3731 L 29.0558,45.3871 L 29.0839,45.4152 L 29.1260,45.4293 L 29.1821,45.4855 L 29.1821,45.4714 L 29.1961,45.4714 L 29.1961,45.4574 L 29.2101,45.4574 L 29.2101,45.4433 L 29.1821,45.4152 L 29.1400,45.3871 L 29.1119,45.3590 L 29.0699,45.3309 L 29.0418,45.3168 L 28.9998,45.2887 L 28.9717,45.2747 L 28.9296,45.2606 L 28.9016,45.2465 L 28.8175,45.2184 L 28.7894,45.2184 L 28.7473,45.2044 L 28.5230,45.2044 L 28.4809,45.2184 L 28.4529,45.2184 L 28.3687,45.2465 L 28.3407,45.2606 L 28.2986,45.2747 L 28.2706,45.2887 L 28.2285,45.3168 L 28.2004,45.3309 L 28.1584,45.3590 L 28.1303,45.3871 L 28.0883,45.4152 L 28.0602,45.4433 L 28.0602,45.4574 L 28.0742,45.4574 L 28.0742,45.4714 L 28.0883,45.4714 L 28.0883,45.4855 Z" stroke="#000000" stroke-width="0.1198" stroke-linecap="round" stroke-linejoin="round" fill="#000000"/>
        <path d="M 28.2004,45.6261 L 28.2285,45.6120 L 28.2565,45.5839 L 28.3407,45.5417 L 28.3547,45.5277 L 28.4388,45.4855 L 28.4669,45.4855 L 28.4949,45.4714 L 28.5230,45.4714 L 28.5510,45.4574 L 28.7193,45.4574 L 28.7473,45.4714 L 28.7754,45.4714 L 28.8034,45.4855 L 28.8315,45.4855 L 28.9156,45.5277 L 28.9296,45.5417 L 29.0138,45.5839 L 29.0418,45.6120 L 29.0699,45.6261 L 29.0418,45.6542 L 29.0138,45.6401 L 28.9717,45.5979 L 28.8876,45.5558 L 28.8595,45.5558 L 28.8455,45.5417 L 28.8175,45.5277 L 28.7894,45.5277 L 28.7614,45.5136 L 28.6912,45.5136 L 28.6632,45.4996 L 28.6352,45.5136 L 28.5370,45.5136 L 28.5089,45.5277 L 28.4809,45.5277 L 28.4529,45.5417 L 28.4248,45.5417 L 28.4108,45.5558 L 28.2986,45.6120 L 28.2846,45.6261 L 28.2285,45.6542 L 28.2145,45.6401 L 28.2004,45.6261 Z" stroke="#000000" stroke-width="0.1198" stroke-linecap="round" stroke-linejoin="round" fill="#000000"/>
        <text font-family="Arial" fill="#000000" style="white-space:pre;" text-anchor="start" x="24.7788" y="46.2305" font-size="0.3646"><![CDATA[2]]></text>
        <text font-family="Arial" fill="#000000" style="white-space:pre;" text-anchor="start" x="25.7604" y="46.2305" font-size="0.3646"><![CDATA[G]]></text>
        <text font-family="Arial" fill="#000000" style="white-space:pre;" text-anchor="start" x="28.0462" y="46.2305" font-size="0.3646"><![CDATA[5]]></text>
        <text font-family="Arial" fill="#000000" style="white-space:pre;" text-anchor="start" x="29.0278" y="46.2305" font-size="0.3646"><![CDATA[G]]></text>
        <path d="M 50.8917,16.8214 L 50.6793,16.8214 L 50.6793,17.0342 L 50.8917,17.0342 L 50.8917,16.8214 Z" stroke="#000000" stroke-width="0.1198" stroke-linecap="round" stroke-linejoin="round" fill="none"/>
        <path d="M 50.8917,22.6717 L 50.6793,22.6717 L 50.6793,22.8846 L 50.8917,22.8846 L 50.8917,22.6717 Z" stroke="#000000" stroke-width="0.1198" stroke-linecap="round" stroke-linejoin="round" fill="none"/>
        <path d="M 50.8917,32.2926 L 50.6793,32.2926 L 50.6793,32.5055 L 50.8917,32.5055 L 50.8917,32.2926 Z" stroke="#000000" stroke-width="0.1198" stroke-linecap="round" stroke-linejoin="round" fill="none"/>
      </g>
      <!--emf-blob end-->
    </g>
  </g>
</svg>
