<?xml version="1.0" encoding="UTF-8"?>
<svg width="80" height="80" viewBox="0 0 80 80" fill="none" xmlns="http://www.w3.org/2000/svg">
  <!-- FortiAP 231F Access Point for Restaurant Environments -->
  
  <!-- Main AP Body -->
  <circle cx="40" cy="40" r="35" fill="#F8F9FA" stroke="#495057" stroke-width="2"/>
  
  <!-- Inner Ring -->
  <circle cx="40" cy="40" r="28" fill="#E9ECEF" stroke="#6C757D" stroke-width="1"/>
  
  <!-- Status LED Ring -->
  <circle cx="40" cy="40" r="22" fill="#FFFFFF" stroke="#ADB5BD" stroke-width="1"/>
  
  <!-- Wi-Fi Signal Rings -->
  <circle cx="40" cy="40" r="18" fill="none" stroke="#28A745" stroke-width="2" opacity="0.7"/>
  <circle cx="40" cy="40" r="14" fill="none" stroke="#28A745" stroke-width="2" opacity="0.5"/>
  <circle cx="40" cy="40" r="10" fill="none" stroke="#28A745" stroke-width="2" opacity="0.3"/>
  
  <!-- Central Status LED -->
  <circle cx="40" cy="40" r="6" fill="#28A745"/>
  
  <!-- Antenna Indicators -->
  <g id="antennas">
    <!-- 2.4GHz Antenna -->
    <rect x="35" y="12" width="2" height="8" fill="#007BFF" rx="1"/>
    <circle cx="36" cy="10" r="2" fill="#007BFF"/>
    
    <!-- 5GHz Antenna -->
    <rect x="43" y="12" width="2" height="8" fill="#DC3545" rx="1"/>
    <circle cx="44" cy="10" r="2" fill="#DC3545"/>
  </g>
  
  <!-- Power Status -->
  <rect x="50" y="35" width="12" height="10" fill="#495057" rx="2"/>
  <circle cx="56" cy="40" r="2" fill="#28A745"/>
  
  <!-- Network Status -->
  <rect x="18" y="35" width="12" height="10" fill="#495057" rx="2"/>
  <circle cx="24" cy="40" r="2" fill="#17A2B8"/>
  
  <!-- Wi-Fi 6 Badge -->
  <rect x="30" y="60" width="20" height="8" fill="#6F42C1" rx="4"/>
  <text x="40" y="65" text-anchor="middle" fill="white" font-family="Arial, sans-serif" font-size="5" font-weight="bold">Wi-Fi 6</text>
  
  <!-- Model Label -->
  <text x="40" y="74" text-anchor="middle" fill="#495057" font-family="Arial, sans-serif" font-size="6" font-weight="bold">FAP-231F</text>
  
  <!-- Restaurant Environment Indicators -->
  <g id="restaurant-features">
    <!-- High Density Support -->
    <rect x="65" y="20" width="12" height="6" fill="#FFC107" rx="3"/>
    <text x="71" y="24" text-anchor="middle" fill="#212529" font-family="Arial, sans-serif" font-size="3" font-weight="bold">HD</text>
    
    <!-- Guest Network -->
    <rect x="3" y="20" width="12" height="6" fill="#28A745" rx="3"/>
    <text x="9" y="24" text-anchor="middle" fill="white" font-family="Arial, sans-serif" font-size="2.5" font-weight="bold">GUEST</text>
    
    <!-- PCI Compliant -->
    <rect x="65" y="54" width="12" height="6" fill="#17A2B8" rx="3"/>
    <text x="71" y="58" text-anchor="middle" fill="white" font-family="Arial, sans-serif" font-size="2.5" font-weight="bold">PCI</text>
    
    <!-- Coverage Zone -->
    <rect x="3" y="54" width="12" height="6" fill="#6610F2" rx="3"/>
    <text x="9" y="58" text-anchor="middle" fill="white" font-family="Arial, sans-serif" font-size="2.5" font-weight="bold">ZONE</text>
  </g>
  
  <!-- Mounting Points -->
  <g id="mounting">
    <circle cx="15" cy="15" r="2" fill="#6C757D"/>
    <circle cx="65" cy="15" r="2" fill="#6C757D"/>
    <circle cx="15" cy="65" r="2" fill="#6C757D"/>
    <circle cx="65" cy="65" r="2" fill="#6C757D"/>
  </g>
  
  <!-- Fortinet Branding -->
  <text x="40" y="8" text-anchor="middle" fill="#E74C3C" font-family="Arial, sans-serif" font-size="6" font-weight="bold">Fortinet</text>
  
  <!-- Client Connection Indicators -->
  <g id="client-indicators">
    <!-- Connected Clients -->
    <text x="40" y="52" text-anchor="middle" fill="#495057" font-family="Arial, sans-serif" font-size="4">24 Clients</text>
  </g>
</svg>